<?xml version="1.0" encoding="utf-8"?>
<!-- Generator: Adobe Illustrator 21.0.2, SVG Export Plug-In . SVG Version: 6.00 Build 0)  -->
<svg version="1.1" id="Layer_1" xmlns="http://www.w3.org/2000/svg" xmlns:xlink="http://www.w3.org/1999/xlink" x="0px" y="0px"
	 viewBox="0 0 200 600" style="enable-background:new 0 0 200 600;" xml:space="preserve">
<style type="text/css">
	.st0{fill:#624018;}
	.st1{fill:none;stroke:#000005;stroke-width:0.1;stroke-miterlimit:10;}
	.st2{fill:#000005;}
	.st3{fill:#4F330C;}
</style>
<g>
	<g>
		<g id="XMLID_6_">
			<g>
				<path class="st0" d="M135.7,315.1l0.2,0c-0.2,8.2-0.5,16.5-0.9,24.7c-0.1,1.6-0.1,3.1-0.2,4.7l-0.4,0c-1.3-0.6-2.7-1.2-4.1-1.4
					c-1.1-0.2-2.2-0.2-3.4-0.3c-20.9-0.6-41.8-1.1-62.5,2l-0.2-0.5c-0.1-1.8-0.2-3.6-0.2-5.3c-0.3-8.2-0.7-16.4-0.9-24.7l0.2,0
					c-0.1-4.4-0.2-8.7-0.2-13.1c0-3.3,0-6.5,0-9.8c0-1.3,0-2.7,0-4c0-1,0-2.1,0-3.1c0.2-7.2,1.5-14.4,3.9-21.3l0.1,0
					c14.4,4.7,29.8,6.3,44.9,4.5c6.5-0.8,12.9-2.2,19.2-3.7l0.4-0.1c2.4,6.9,3.7,14.1,3.9,21.4c0,1.1,0,2.1,0.1,3.1c0,1.3,0,2.7,0,4
					c0,3.3,0,6.5,0,9.8C135.9,306.3,135.8,310.7,135.7,315.1z"/>
			</g>
			<g>
				<path class="st1" d="M67.3,262.9c14.4,4.7,29.8,6.3,44.9,4.5c6.5-0.8,12.9-2.2,19.2-3.7"/>
				<path class="st1" d="M67.4,262.5c0,0.1-0.1,0.2-0.1,0.4c-2.4,6.8-3.7,14-3.9,21.3c0,1,0,2.1,0,3.1c0,1.3,0,2.7,0,4
					c0,3.3,0,6.5,0,9.8c0,4.4,0.1,8.7,0.2,13.1c0,0.5,0,1,0.1,1.5"/>
				<path class="st1" d="M63.2,314.2c0.2,8.2,0.5,16.5,0.9,24.7c0.1,1.8,0.1,3.6,0.2,5.3"/>
				<path class="st1" d="M131.7,263.4c0,0.1,0.1,0.2,0.1,0.2c2.4,6.9,3.7,14.1,3.9,21.4c0,1.1,0,2.1,0.1,3.1c0,1.3,0,2.7,0,4
					c0,3.3,0,6.5,0,9.8c0,4.4-0.1,8.7-0.2,13.1c0,0.5,0,1-0.1,1.5"/>
				<path class="st1" d="M135.9,315.1c-0.2,8.2-0.5,16.5-0.9,24.7c-0.1,1.6-0.1,3.1-0.2,4.7c0,0.2,0,0.4,0,0.6"/>
				<path class="st1" d="M64.5,344.7c20.6-3.1,41.6-2.6,62.5-2c1.1,0,2.3,0.1,3.4,0.3c1.4,0.3,2.8,0.8,4.1,1.4"/>
			</g>
		</g>
	</g>
	<g>
		<g>
			<path class="st2" d="M65,345.1c4.9-0.9,9.8-1.5,14.8-1.7c2.4-0.1,6.1,0.6,8.1-0.4c0.3-0.2,0.4-0.7,0.1-0.9c0,0-0.1-0.1-0.1-0.1
				c-0.3-0.3-0.7-0.2-0.9,0.1c0,0,0,0.1-0.1,0.1c-0.3,0.4,0.1,0.9,0.5,0.9c7.6-0.3,15.3-0.5,22.9-0.5c7.8,0,16.8-1,24,2.5
				c0.7,0.3,1.3-0.7,0.6-1c-9.5-4.6-22-2.7-32.3-2.6c-12.7,0.2-25.5,0.3-38,2.5C63.9,344,64.3,345.2,65,345.1L65,345.1z"/>
		</g>
	</g>
	<g>
		<g>
			<path class="st2" d="M65.2,344.4c-0.7-9.6-1.7-19.5-1-29.2c0.1-0.8-1.1-0.8-1.2,0c-0.6,9.6,0.3,19.5,1,29.2
				C64,345.2,65.2,345.2,65.2,344.4L65.2,344.4z"/>
		</g>
	</g>
	<g>
		<g>
			<path class="st2" d="M64.1,315.4c-0.4-9.6-0.5-19.1-0.2-28.7c0-0.8-1.2-0.8-1.2,0c-0.3,9.6-0.3,19.1,0.2,28.7
				C62.9,316.2,64.1,316.2,64.1,315.4L64.1,315.4z"/>
		</g>
	</g>
	<g>
		<g>
			<path class="st2" d="M63.8,287.3c0.3-8.4,1.7-16.6,4.3-24.7c0.2-0.7-0.9-1.1-1.2-0.3c-2.7,8.1-4.1,16.4-4.4,25
				C62.6,288.1,63.8,288.1,63.8,287.3L63.8,287.3z"/>
		</g>
	</g>
	<g>
		<g>
			<path class="st2" d="M67.6,263.3c4.2,2,8.9,2.3,13.3,3.4c4.8,1.3,9.8,1.2,14.7,1.5c12.4,0.6,23.6-1.6,35.7-4
				c0.8-0.2,0.4-1.3-0.3-1.2c-11.3,2.3-22.1,4.5-33.7,4c-4.8-0.2-9.8-0.1-14.4-1.1c-4.7-1-10.3-1.7-14.6-3.7
				C67.5,261.9,66.9,262.9,67.6,263.3L67.6,263.3z"/>
		</g>
	</g>
	<g>
		<g>
			<path class="st2" d="M131.3,263c1.6,5,2.9,10.1,3.7,15.3c0.8,5.3,1.5,12.1,0.5,17.4c-0.1,0.8,1,1.1,1.2,0.3
				c0.9-5,0.4-11.1-0.2-16.1c-0.8-5.9-2.1-11.6-3.9-17.2C132.2,262,131.1,262.3,131.3,263L131.3,263z"/>
		</g>
	</g>
	<g>
		<g>
			<path class="st2" d="M135.9,345.1c0-0.1,0-0.1,0-0.2c0-0.8-1.2-0.8-1.2,0c0,0.1,0,0.1,0,0.2C134.7,345.9,135.9,345.9,135.9,345.1
				L135.9,345.1z"/>
		</g>
	</g>
	<g>
		<g>
			<path class="st2" d="M135.7,344.8c-0.4-11.1,0.8-22.4,1.3-33.5c0-0.8-1.2-0.8-1.2,0c-0.5,11.1-1.6,22.4-1.3,33.5
				C134.6,345.5,135.8,345.5,135.7,344.8L135.7,344.8z"/>
		</g>
	</g>
	<g>
		<g>
			<path class="st2" d="M136.9,311.5c0.3-4.8,0.5-9.5,0.1-14.3c-0.1-0.8-1.3-0.8-1.2,0c0.3,4.8,0.2,9.5-0.1,14.3
				C135.6,312.3,136.8,312.3,136.9,311.5L136.9,311.5z"/>
		</g>
	</g>
	<g>
		<g>
			<path class="st2" d="M137.2,297.6c0-1.1,0-2.2,0-3.3c0-0.8-1.2-0.8-1.2,0c0,1.1,0,2.2,0,3.3C136,298.4,137.2,298.4,137.2,297.6
				L137.2,297.6z"/>
		</g>
	</g>
	<g>
		<path class="st0" d="M121.4,300.2c0.3-1.1,0.7-2.1,1.4-3c0.5-0.7,1.3-1.4,2-1c0.4,0.2,0.6,0.5,0.8,0.9c0.3,0.5,0.7,1,1,1.5
			c0.1,0.1,0.2,0.3,0.3,0.3c0.3,0.2,0.7-0.1,1-0.3c0.6-0.4,1.1-0.8,1.7-1.2c0.4-0.3,0.7-0.6,0.8-1c0-0.3-0.1-0.5-0.1-0.8
			c0-0.3,0.3-0.6,0.5-0.5c0.1,0.1,0.2,0.2,0.2,0.3c0.1,0.3,0.2,0.7,0.3,1c-0.1-0.5-0.1-1-0.2-1.5"/>
	</g>
	<g>
		<g>
			<path class="st3" d="M69,281.4c-0.4-4.5,0.4-8.8,2.4-12.9c0.4-0.7-0.7-1.3-1-0.6c-2.2,4.2-3.1,8.7-2.6,13.5
				C67.8,282.1,69,282.1,69,281.4L69,281.4z"/>
		</g>
	</g>
	<g>
		<g>
			<path class="st3" d="M68.2,328.7c-0.2,3.5,0.7,6.9,2.7,9.8c0.4,0.6,1.5,0,1-0.6c-1.9-2.8-2.7-5.9-2.5-9.2
				C69.4,327.9,68.2,327.9,68.2,328.7L68.2,328.7z"/>
		</g>
	</g>
	<g>
		<g>
			<path class="st3" d="M131,339c0.9-3,1.2-6,0.8-9c-0.1-0.8-1.3-0.8-1.2,0c0.4,3,0.1,5.9-0.8,8.7C129.7,339.5,130.8,339.8,131,339
				L131,339z"/>
		</g>
	</g>
	<g>
		<g>
			<path class="st3" d="M127.5,268.4c2.8,2.3,2.8,7.9,3.4,11.2c0.1,0.8,1.3,0.4,1.2-0.3c-0.7-3.7-0.6-9.2-3.7-11.8
				C127.8,267,126.9,267.9,127.5,268.4L127.5,268.4z"/>
		</g>
	</g>
	<g>
		<g>
			<path class="st3" d="M98.1,270.3c0.1,0.8,0.2,1.7,0.3,2.5c0,0.3,0.2,0.6,0.6,0.6c0.3,0,0.6-0.3,0.6-0.6c-0.1-0.8-0.2-1.7-0.3-2.5
				c0-0.3-0.2-0.6-0.6-0.6C98.4,269.7,98,270,98.1,270.3L98.1,270.3z"/>
		</g>
	</g>
	<g>
		<g>
			<path class="st3" d="M98.5,277.8c0.1,0.9,0.2,1.8,0.3,2.7c0,0.8,1.2,0.8,1.2,0c0-1-0.1-2-0.3-3C99.5,276.7,98.3,277.1,98.5,277.8
				L98.5,277.8z"/>
		</g>
	</g>
	<g>
		<g>
			<path class="st3" d="M98.8,285c0,1.3,0.1,2.7,0.3,4c0.1,0.8,1.3,0.4,1.2-0.3c-0.2-1.2-0.3-2.4-0.3-3.7
				C100,284.2,98.8,284.2,98.8,285L98.8,285z"/>
		</g>
	</g>
	<g>
		<g>
			<path class="st3" d="M99.4,293c0.1,0.8,0.2,1.7,0.3,2.5c0.1,0.8,1.3,0.8,1.2,0c-0.1-0.8-0.2-1.7-0.3-2.5
				C100.5,292.2,99.3,292.2,99.4,293L99.4,293z"/>
		</g>
	</g>
	<g>
		<g>
			<path class="st3" d="M100.1,300.5c0,1.1,0.1,2.1,0.4,3.1c0.2,0.7,1.4,0.4,1.2-0.3c-0.2-0.9-0.4-1.9-0.4-2.8
				C101.2,299.7,100,299.7,100.1,300.5L100.1,300.5z"/>
		</g>
	</g>
	<g>
		<g>
			<path class="st3" d="M101.7,307.7c-0.1-0.1-0.2-0.3-0.2-0.4c-0.2-0.4-1-0.4-1.1,0.1c-0.2,1.1-0.1,2.1,0.1,3.2
				c0.2,0.7,1.4,0.4,1.2-0.3c-0.2-0.8-0.3-1.7-0.1-2.6c-0.4,0-0.7,0.1-1.1,0.1c0.1,0.1,0.2,0.3,0.2,0.4
				C101.1,309,102.1,308.4,101.7,307.7L101.7,307.7z"/>
		</g>
	</g>
	<g>
		<g>
			<path class="st3" d="M100.7,315.2c0,1.2,0,2.3,0,3.5c0,0.8,1.2,0.8,1.2,0c0-1.2,0-2.3,0-3.5C101.9,314.4,100.7,314.4,100.7,315.2
				L100.7,315.2z"/>
		</g>
	</g>
	<g>
		<g>
			<path class="st3" d="M101,321.8c0.1,1.1,0.3,2.1,0.4,3.2c0.1,0.8,1.3,0.8,1.2,0c-0.1-1.1-0.3-2.1-0.4-3.2
				C102.2,321.1,101,321.1,101,321.8L101,321.8z"/>
		</g>
	</g>
	<g>
		<g>
			<path class="st3" d="M101.5,328.3c0.1,0.8,0.1,1.7,0.1,2.5c-0.1,0.8,1.1,0.8,1.2,0c0.1-1,0-1.9-0.1-2.8
				C102.5,327.2,101.4,327.6,101.5,328.3L101.5,328.3z"/>
		</g>
	</g>
	<g>
		<g>
			<path class="st3" d="M101.7,334.3c-0.1,1.2,0.1,2.3,0.4,3.5c0.2,0.7,1.3,0.4,1.2-0.3c-0.3-1-0.4-2.1-0.3-3.2
				C103,333.6,101.8,333.6,101.7,334.3L101.7,334.3z"/>
		</g>
	</g>
</g>
</svg>
