<svg id="Layer_1" data-name="Layer 1" xmlns="http://www.w3.org/2000/svg" viewBox="0 0 77.43 59.72"><defs><style>.cls-1{fill:#613515;}.cls-2{fill:#602f13;}.cls-3{fill:none;stroke:#000;stroke-miterlimit:10;stroke-width:0.1px;}</style></defs><title>Brown</title><path class="cls-1" d="M72.8,54.7A33.43,33.43,0,0,1,84.1,33.8c.6-.5-.3-1.3-.8-.8A35,35,0,0,0,71.7,54.5a.56.56,0,1,0,1.1.2Z" transform="translate(-68.64 -24.97)"/><path class="cls-2" d="M101.7,38.2c-7.6,5.1-15.3,10.1-22.9,15.1a57.7,57.7,0,0,1-9.3,5.4l-.6-.1a12,12,0,0,1,.1-5c1.6-9,5.6-18,13.2-23.1A45.31,45.31,0,0,1,87,27.8c2.5-1.2,5.1-2.5,7.9-2.3a19.27,19.27,0,0,0,2.4.1c.6-.1,1.2-.3,1.8-.4a11.3,11.3,0,0,1,2.6,0c4.8.5,9.8,1,13.8,3.6V29c6.7-3.3,15.1-3.9,21.5,0a18.39,18.39,0,0,1,2.2,1.7,13.45,13.45,0,0,1,1.7,3.1,51.6,51.6,0,0,1,3.8,12.7c.2,2.4.3,4.9.3,7.4v12A99,99,0,0,1,143.8,84h-.2a115.9,115.9,0,0,0-6-29.1c-1.9-5.6-4.4-11.2-8.8-15.3l-.6.2A50.75,50.75,0,0,1,132,51.6a30.23,30.23,0,0,0-9.2-5.3c-1.6-.6-3.3-1-4.9-1.5a34.6,34.6,0,0,1-12.8-7.6l-.9.2a4.38,4.38,0,0,0-2.5.8Z" transform="translate(-68.64 -24.97)"/><path class="cls-3" d="M68.9,58.7a12,12,0,0,1,.1-5c1.6-9,5.6-18,13.2-23.1A45.31,45.31,0,0,1,87,27.9c2.5-1.2,5.1-2.5,7.9-2.3a19.27,19.27,0,0,0,2.4.1c.6-.1,1.2-.3,1.8-.4a11.3,11.3,0,0,1,2.6,0c4.8.5,9.8,1,13.8,3.6.2.1.4.3.6.4" transform="translate(-68.64 -24.97)"/><path class="cls-3" d="M124.2,35c.1-.3.5-.1.7.1a20.43,20.43,0,0,1,3.3,4.8A50.75,50.75,0,0,1,132,51.7c0,.1.1.2.1.3" transform="translate(-68.64 -24.97)"/><path class="cls-3" d="M105.1,37.3a36.27,36.27,0,0,0,12.8,7.6c1.6.5,3.3.9,4.9,1.5a36.7,36.7,0,0,1,9.2,5.3l.4.3" transform="translate(-68.64 -24.97)"/><path class="cls-3" d="M69.5,58.8a77.73,77.73,0,0,0,9.3-5.4c7.6-5.1,15.3-10.1,22.9-15.1l.8-.5" transform="translate(-68.64 -24.97)"/><path class="cls-3" d="M101.7,38.2a4.3,4.3,0,0,1,2.5-.7h.1" transform="translate(-68.64 -24.97)"/><path class="cls-3" d="M115.5,29c6.7-3.3,15.1-3.9,21.5,0a18.39,18.39,0,0,1,2.2,1.7,13.45,13.45,0,0,1,1.7,3.1,51.38,51.38,0,0,1,3.7,12.7c.2,2.4.3,4.9.3,7.4v12A99,99,0,0,1,143.7,84" transform="translate(-68.64 -24.97)"/><path class="cls-3" d="M143.5,84.2v-.1a115.9,115.9,0,0,0-6-29.1c-1.9-5.6-4.4-11.2-8.8-15.3" transform="translate(-68.64 -24.97)"/><path d="M70.1,58.8c-.5-11.1,5-22.7,14.5-28.7,9.8-6.2,20.6-4.4,30.8-.5.7.3,1-.9.3-1.1-11.1-4.2-22.7-5.7-33,1.5-9.1,6.4-14.3,17.9-13.8,28.9C68.9,59.6,70.1,59.6,70.1,58.8Z" transform="translate(-68.64 -24.97)"/><path d="M70.2,59.6c12.4-6.7,23.2-16,35.9-22,.7-.3.1-1.4-.6-1-12.8,6-23.6,15.3-35.9,22-.6.4,0,1.4.6,1Z" transform="translate(-68.64 -24.97)"/><path d="M105.5,37.2c1.2,3.1,3.8,4.2,6.8,5.4s5.8,2.3,8.7,3.4c2.3.9,9.2,2.9,10.2,5.7.3.7,1.4.4,1.1-.3-.8-2.2-4.8-3.9-6.7-4.8-4.8-2.1-16.9-4.4-18.9-9.8-.3-.6-1.5-.3-1.2.4Z" transform="translate(-68.64 -24.97)"/><path d="M116.4,29.8a35,35,0,0,1,14-2c6.4.6,9.9,4.2,11.4,10.3a.55.55,0,0,0,.8.3.67.67,0,0,0,.4-.7c-1.2-4.7-3-8.5-7.9-10.2-6-2.2-13.1-.9-19,1-.7.4-.4,1.6.3,1.3Z" transform="translate(-68.64 -24.97)"/><path d="M127.8,39.6c6,4.8,8.5,12,10.7,19.1,2.3,7.4,4.4,16.1,3.9,23.9a.6.6,0,1,0,1.2,0c.5-8.5-1.9-17.8-4.5-25.8-2.2-6.8-4.9-13.4-10.6-18-.4-.5-1.3.3-.7.8Z" transform="translate(-68.64 -24.97)"/><path d="M144,84.3c3.8-15.1,1.7-31.8-1.1-46.8-.1-.8-1.3-.4-1.1.3,2.8,14.8,4.9,31.4,1.1,46.2-.1.3.2.6.5.7a.68.68,0,0,0,.6-.4Z" transform="translate(-68.64 -24.97)"/><path d="M142.5,81.7a5.7,5.7,0,0,0,0,2.6.55.55,0,0,0,.8.3.67.67,0,0,0,.4-.7,3.08,3.08,0,0,1,0-1.9.62.62,0,0,0-1.2-.3Z" transform="translate(-68.64 -24.97)"/><path d="M128.9,39a11.74,11.74,0,0,0-4.8-5.3.68.68,0,0,0-.8.4c-.1.2,0,.4.2.6a11.31,11.31,0,0,1,4.3,4.9c.4.7,1.4.1,1.1-.6Z" transform="translate(-68.64 -24.97)"/><path d="M132.1,51.8c-1-4.5-.8-9.2-3.2-13.3a.61.61,0,0,0-.8,0,.73.73,0,0,0-.2.6c2.3,4,2.1,8.6,3,13a.62.62,0,0,0,1.2-.3Z" transform="translate(-68.64 -24.97)"/><path class="cls-2" d="M104.3,32.7a9.58,9.58,0,0,0-3.8,3.4c-.9,1.3.3,2.3,1.6,1.6l-.9-.4a.92.92,0,0,0,1.1.7c.2,0,.3-.1.5-.2a.6.6,0,0,0-.4-1,1.91,1.91,0,0,0-1.6.6.52.52,0,0,0,.1.8.59.59,0,0,0,.7.1l1-.5-.7-.9a1.39,1.39,0,0,1-1,.5c-.8.1-.8,1.3,0,1.2a3,3,0,0,0,1.8-.8.52.52,0,0,0-.1-.8.59.59,0,0,0-.7-.1l-1,.5.7.9a.67.67,0,0,1,.8-.3l-.4-1,.4.1a.57.57,0,0,0-.7-.4.1.1,0,0,0-.1.1h0c.1-.2.3-.4.4-.6.3-.3.5-.6.8-.9a8,8,0,0,1,2.1-1.5c.6-.4,0-1.4-.6-1.1Z" transform="translate(-68.64 -24.97)"/><path class="cls-1" d="M73.5,55A139.41,139.41,0,0,1,95.3,40.2a.58.58,0,1,0-.6-1,143.24,143.24,0,0,0-22.1,15C72,54.6,72.9,55.5,73.5,55Z" transform="translate(-68.64 -24.97)"/><path class="cls-1" d="M108.8,36.4c.7,2.8,2.8,3.9,5.5,4.6,4.5,1.2,9.3,1,12.9,4.3.6.5,1.4-.3.8-.8a15.1,15.1,0,0,0-6.3-3.2c-3.6-.9-10.6-.6-11.8-5.2a.55.55,0,0,0-.8-.3c-.2,0-.4.3-.3.6Z" transform="translate(-68.64 -24.97)"/><path class="cls-1" d="M120.5,30.8c6.4-2,12.5-1.3,16.5,4.5a24,24,0,0,1,4.2,13.2.54.54,0,0,0,.7.5.47.47,0,0,0,.5-.5,24.08,24.08,0,0,0-6-16c-4.2-4.7-10.5-4.6-16.1-2.9-.8.3-.5,1.5.2,1.2Z" transform="translate(-68.64 -24.97)"/><path class="cls-1" d="M140.9,55.5V54.4l-1,.4c2.4,2.5,3.2,5.8,3.4,9.2.1.8,1.3.8,1.2,0-.3-3.7-1.2-7.3-3.8-10a.61.61,0,0,0-.8,0c-.1.1-.1.2-.2.4v1.1c.1.7,1.3.7,1.2,0Z" transform="translate(-68.64 -24.97)"/><path class="cls-1" d="M85.2,40.2a40.9,40.9,0,0,1,16-6.6c.8-.1.4-1.3-.3-1.2a42.57,42.57,0,0,0-16.3,6.8c-.6.4,0,1.4.6,1Z" transform="translate(-68.64 -24.97)"/><path d="M115.2,29.7a38.56,38.56,0,0,1,8.3,4.9c.6.5,1.2-.6.6-1a41.14,41.14,0,0,0-8.3-4.9c-.7-.4-1.3.7-.6,1Z" transform="translate(-68.64 -24.97)"/></svg>