<?xml version="1.0" encoding="utf-8"?>
<!-- Generator: Adobe Illustrator 21.0.2, SVG Export Plug-In . SVG Version: 6.00 Build 0)  -->
<svg version="1.1" id="Layer_1" xmlns="http://www.w3.org/2000/svg" xmlns:xlink="http://www.w3.org/1999/xlink" x="0px" y="0px"
	 viewBox="0 0 200 600" style="enable-background:new 0 0 200 600;" xml:space="preserve">
<style type="text/css">
	.st0{fill:#141113;}
	.st1{fill:#603017;}
	.st2{fill:#211E1F;}
	.st3{fill:#221F1F;}
</style>
<g>
	<g>
		<g>
			<path class="st0" d="M122.9,46.6c0.6,1.8,1.9,3.1,3.1,4.6c1.4,1.7,2.7,3.4,4.4,4.8c1.5,1.2,3.5-0.7,2.1-2.1
				c-1.2-1.3-1.2-3.2-1.8-4.8c-0.5-1.6-1.4-2.9-2.5-4.2c-1.3-1.4-3.4,0.7-2.1,2.1c2.3,2.6,1.8,6.4,4.3,8.9c0.7-0.7,1.4-1.4,2.1-2.1
				c-1.4-1.1-2.5-2.4-3.6-3.8c-1.1-1.3-2.5-2.6-3.1-4.2C125.2,44.1,122.3,44.8,122.9,46.6L122.9,46.6z"/>
		</g>
	</g>
	<g>
		<g>
			<path class="st0" d="M118,115.4c-0.3,1.2-0.7,2.4-1,3.6c0.4,0.2,0.7,0.3,1.1,0.5c0.1-1.9,0.7-2.2,1.6-1c0.6,0.5,1.4-0.3,0.8-0.8
				c-0.3-0.4-0.6-0.9-0.9-1.3c-0.3,0.2-0.6,0.4-0.9,0.7c0.5,0.4,0.9,0.8,1.4,1.2c0.5,0.5,1.3-0.1,0.9-0.7c-0.9-1.3-1.4-2.6-1.6-4.1
				c-0.3,0.2-0.7,0.4-1,0.6c0.4,0.5,0.8,1,1.1,1.5c0.3,0.6,1.2,0.2,1.1-0.5c-0.1-0.5-0.2-1-0.3-1.6c-0.4,0.2-0.7,0.3-1.1,0.5
				c0.2,0.3,0.4,0.7,0.6,1c0.2,0.4,1,0.4,1.1-0.1c0.1-0.3,0.1-0.6,0.2-0.9c-0.4,0-0.7,0.1-1.1,0.1c0.5,0.9,0.4,0.8,1.3,1.3
				c0.4,0.2,1-0.1,0.9-0.7c-0.7-2.3-1.6-3.7-3.4-5.3c-0.2,0.3-0.5,0.6-0.7,0.9c1,0.9,1.9,1.8,2.9,2.6c0.3-0.2,0.6-0.5,0.9-0.7
				c-1.2-1.4-0.8-1-2.3-2c-0.2-0.1-0.5-0.1-0.7,0.1c0.3-0.3-0.7,0.8-0.6,0.8c0,0.2-0.1,0.5-0.1,0.7c0.1,0.6-0.3,0.7-1.4,0.2
				c0.5-0.3,0.3-1.1-0.3-1.1c-3.2,0-1.9,3.8,0.3,4.7c1.6,0.6,5.2-0.3,3.1-2.3c-0.3-0.3-0.9-0.2-1,0.3c-0.1,0.5-0.3,1.1-0.4,1.6
				c0.4,0,0.7-0.1,1.1-0.1c-1-1.6-1.5-3.1-1.8-4.9c-0.3,0.2-0.7,0.4-1,0.6c0.9,0.9,1.7,1.9,2.2,3c0.3,0.5,1.2,0.3,1.1-0.3
				c0-0.4-0.1-0.7-0.1-1.1c-0.3,0.1-0.7,0.3-1,0.4c0.3,0.3,0.7,0.6,1,0.9c0.5,0.5,1.3-0.1,0.9-0.7c-0.3-0.4-0.5-0.9-0.8-1.3
				c-0.4-0.6-1.2-0.2-1.1,0.5c0.1,0.6,0.3,1.2,0.4,1.7c0.3-0.2,0.6-0.4,0.9-0.7c-0.7-0.6-1.4-1.3-2.2-1.9c-0.2-0.2-0.5-0.2-0.7-0.1
				c-0.2,0.1-0.5,0.1-0.7,0.2c0.5,0.3,1.1-0.3,0.8-0.8c0-0.4,0-0.7,0-1.1c0.1-0.3,0.1-0.6-0.2-0.8c-0.7-0.3-1.4-0.6-2.2-0.9
				c0.3,0.1,0.7,0.3,1,0.4c0.4,0.4,0.8,0.9,1.2,1.3c0.4,0,0.8,0,1.1,0c-0.1-0.1-0.1-0.2-0.2-0.3c0.4,0,0.8,0,1.1,0
				c0.4-0.6,0.9-1.1,1.3-1.7c0.4,0.2,0.7,0.3,1.1,0.5c0.7-2.8-1.6-4.2-4-4.9c-0.7-0.2-1,0.7-0.5,1.1c1.2,0.6,2.2,1.5,3,2.5
				c0.2-0.3,0.4-0.7,0.6-1c-0.8-1.1-1.6-2.2-2.4-3.2c-0.4-0.1-0.7-0.2-1.1-0.3c0.2,0.3,0.3,0.4,0.2,0.1c-0.8-1-1-2.3-0.7-3.8
				c0.4-0.4,0-1.1-0.6-1c-3.6,0.9-3.1,5.1,0.6,5.2c0.4,0,0.7-0.4,0.6-0.8c0-0.9-0.1-1.8-0.1-2.7c-0.4,0.1-0.8,0.1-1.2,0.2
				c0.2,0.9,0.4,1.9,0.6,2.8c0.4-0.1,0.8-0.1,1.2-0.2c0-1.4,0-2.8,0-4.2c-0.4,0-0.8,0-1.1,0c0,1.1,0,2.2,0,3.3
				c0.4,0.1,0.8,0.1,1.2,0.2c0.1-1.1,0.3-2.2,0.4-3.2c-0.4,0.1-0.8,0.1-1.2,0.2c0.4,1.2,0.5,2.4,0.2,3.6c-0.1,0.7,0.9,0.7,1.2,0.2
				c0.2-0.5,0.4-1,0.6-1.6c-0.4,0-0.8,0-1.1,0c0.1,0.8,0.1,1.7,0.2,2.5c0,0.6,0.9,0.8,1.1,0.3c1.6-3.6,3-5.8-1-8
				c-0.5-0.3-1.1,0.3-0.8,0.8c0.1,1,0.2,2,0.4,2.9c0.4,0,0.7-0.1,1.1-0.1c-0.3-1.2-0.7-2.3-1-3.5c-0.4,0.1-0.7,0.2-1.1,0.3
				c0.3,0.5,0.6,0.9,1,1.4c-0.4,0.1-0.7,0.2-1.1,0.3c0,0.3-0.1,0.6-0.1,0.9c0.4,0,0.7,0.1,1.1,0.1c-0.1-0.4-0.2-0.9-0.3-1.3
				c-0.1-0.5-0.8-0.6-1.1-0.1c-0.2,0.3-0.4,0.6-0.6,0.9c0.3,0.2,0.7,0.4,1,0.6c0.6-1.9,1.2-1.8,1.9,0.4c0.1,0.3,0.3,0.4,0.6,0.4
				c0.1,0.5,0.1,1.1,0.2,1.6c-0.3,0.6,0.5,1.3,0.9,0.7c3.4-4.1-1.4-4-3-7.6c-0.2-0.5-1-0.3-1.1,0.1c0.2-0.7,0.5-1.4,0.7-2.1
				c0.2,0.1,0.4,0,0.6-0.2c0.5-0.5,1.1-0.9,1.6-1.4c0.5-0.4,0-1.1-0.6-1c-0.8,0.1-1.5,0.4-2.2,0.7c0.2,0.3,0.4,0.7,0.6,1
				c0.2,0.9,0.4,1.9,0.6,2.8c0.3,0.3,0.5,0.5,0.8,0.8c0.7-1.3,1.3-2.5,1.8-3.8c-0.4-0.1-0.8-0.2-1.1-0.3c-0.2,0.5-0.5,1.1-0.7,1.6
				c0.4,0,0.7,0.1,1.1,0.1c-0.3-0.9,0.7-3.1,1.1-4.1c0.2-0.6-0.6-1-1-0.6c-0.4,0.4-0.8,0.8-1.2,1.3c-0.5,0.6,0.3,1.3,0.8,0.8
				c0.5-0.4,0.9-0.8,1.4-1.2c0.5-0.4-0.2-1.3-0.7-0.9c-1.7,1.1-4.1,2.1-3.6,4.5c0.2,0.8,1.3,0.4,1.1-0.3c0.8-1.3,1.8-2.4,3.1-3.1
				c-0.2-0.3-0.5-0.6-0.7-0.9c-0.5,0.4-0.9,0.8-1.4,1.2c0.3,0.3,0.6,0.6,0.8,0.8c0.4-0.4,0.8-0.8,1.2-1.3c-0.3-0.2-0.7-0.4-1-0.6
				c-0.8,2-1.9,2.7-1.1,4.8c0.2,0.5,0.8,0.6,1.1,0.1c0.6-1,0.5-0.8,0.8-1.9c0.2-0.7-0.9-1-1.1-0.3c-0.4,1.2-1,2.4-1.7,3.5
				c-0.3,0.5,0.3,1.2,0.8,0.8c1.6-1.1,3.8-3,2.1-5.1c-1.3-1.6-3-0.8-4.2,0.4c-0.4,0.4,0,1.2,0.6,1c0.7-0.3,1.5-0.6,2.2-0.7
				c-0.2-0.3-0.4-0.7-0.6-1c-2,1.7-4.9,1.5-2.3,4.8c0.2,0.3,0.5,0.4,0.8,0.2c1.1-0.7,2.4-2.8,0.2-3.1c-1.9-0.3-2.6,2.5-1.3,3.6
				c0.3,0.2,0.6,0.2,0.8,0c2.7-2.2-1.6-4.2-2.1-1.7c-0.5,2.4,3.6,2.5,2.8-0.5c-0.1-0.4-0.7-0.6-1-0.3c-1.1,1-1.1,1.9,0,2.9
				c0.3,0.3,0.9,0.2,1-0.3c0.1-0.3,0.2-0.6,0.2-0.9c-0.4,0-0.7,0.1-1.1,0.1c0.7,1.6,4.4,4.6,3.1,6.2c0.3,0.2,0.6,0.5,0.9,0.7
				c1.5-2.7-0.8-4-2.1-6.3c-0.2-0.4-0.8-0.4-1,0c-0.5,0.9-1,1.8-1.5,2.6c-0.4,0.7,0.6,1.2,1,0.6c0.2-0.3,0.4-0.6,0.6-0.9
				c-0.4,0-0.7-0.1-1.1-0.1c0.1,0.4,0.2,0.9,0.3,1.3c0.1,0.5,0.8,0.6,1.1,0.1c0.6-1,0.6-1,0.1-2.1c-0.3-0.6-1.1-0.2-1.1,0.3
				c-0.4,3.8,4.1,1.9,1.3-2c-0.4-0.5-1.1-0.3-1.1,0.3c-0.2,1.8,0.1,2.7,1.2,4.1c0.3,0.4,0.9,0.4,1.1-0.1c0.5-1.4,0.2-2.1-0.9-2.9
				c-0.4-0.3-0.9,0.1-0.9,0.5c0,1.4,0.1,3.6,1.9,3.8c0.3,0,0.5-0.2,0.6-0.4c0.7-1.6-0.3-3.4-1.1-4.8c-0.3,0.3-0.5,0.5-0.8,0.8
				c1.6,2.3,1.8,4.4,0.5,6.4c0.4,0.1,0.7,0.2,1.1,0.3c0.1-1.7,0.2-1.1-0.2-2.8c-0.1-0.6-1-0.5-1.1,0c-0.2,0.5-0.4,1-0.6,1.6
				c0.4,0.1,0.8,0.1,1.2,0.2c0.2-1.5,0.1-2.5-0.3-3.9c-0.2-0.7-1.1-0.5-1.2,0.2c-0.1,1.1-0.3,2.2-0.4,3.2c-0.1,0.7,1,0.8,1.2,0.2
				c0.3-1.4,0.3-2.5,0-4c-0.1-0.6-1-0.6-1.1,0c-0.4,1.8-0.4,3.1,0,4.9c0.1,0.7,1.2,0.5,1.2-0.2c-0.1-2,0.1-1.3-0.7-3.2
				c-0.3-0.6-1.1-0.5-1.2,0.2c-0.5,3.9,0-0.5,0.5-0.6c-0.2-0.3-0.4-0.7-0.6-1c-2.5,2.4-0.2,3.5,0.8,6c0.2,0.4,0.6,0.6,1,0.3
				c0.8-0.7,0.8-0.7,0.7-1.8c0-0.6-0.8-0.8-1.1-0.3c-0.9,1.4-1.4,2.4,0.2,3.3c0.2,0.1,0.5,0.1,0.7-0.1c0.2-0.2,0.4-0.3,0.6-0.5
				c0.2-0.1,0.2-0.4,0.2-0.6c-0.1-0.2-0.1-0.4-0.2-0.6c-0.1-0.2-0.3-0.5-0.6-0.4c-3.2,0.3,0.9,3.6,2.2,3.9c0.6,0.1,1-0.5,0.6-1
				c-1-1.2-2-1.9-3.3-2.7c-0.2,0.4-0.3,0.7-0.5,1.1c1.6,0.5,3.7,1.5,3.2,3.4c-0.2,0.7,0.7,1,1.1,0.5c0.7-0.9,0.7-0.9,0.3-1.9
				c-0.2-0.4-0.7-0.6-1-0.3c-0.9,1-0.9,0.9-0.9,2.2c0,0.4,0.5,0.8,0.9,0.5c1.1-0.8,1.2-1.6,0.4-2.6c-0.1-0.2-0.4-0.2-0.6-0.2
				c-1.3,0.2-1.7,1-1.3,2.2c0.1,0.4,0.5,0.6,0.9,0.4c1-0.6,1-0.5,1-1.8c0-0.2-0.1-0.4-0.3-0.5c-3.7-2.1-3.2,4.4-0.7,2.8
				c1-0.7,0.4-3.3-0.8-3.5c-2.4-0.3-1.6,3-1.2,4.2c0.2,0.5,1,0.6,1.1,0c0.4-1.5,0.3-2.2-0.4-3.5c-0.2-0.4-0.8-0.4-1,0
				c-1,1.4-1.1,2.2-0.7,3.9c0.1,0.6,0.9,0.5,1.1,0c0.8-2,0.7-3.4-0.2-5.4c-0.2-0.4-0.8-0.4-1,0c-0.9,1.6-1.5,3.4-0.2,4.9
				c0.1,0.2,0.4,0.2,0.6,0.2c3.9-1.1,0.4-8-2-4.3c-2.3,3.8,4.9,5,2.4-0.4c-0.1-0.2-0.3-0.3-0.5-0.3c-2.1,0.1-2.8,1.7-2.6,3.6
				c0.1,0.4,0.7,0.9,1,0.4c0.8-1,1.4-1.9,0.9-3.2c-0.1-0.3-0.3-0.4-0.6-0.4c-1.6-0.1-3.4,2.5-1.5,3.6c2.3,1.3,2-1.8,1.4-2.9
				c-0.2-0.4-0.8-0.4-1,0c-0.9,1.4-1.1,2.1,0.2,3.2c0.1,0.1,0.4,0.2,0.6,0.2c0.3-0.1,0.5-0.2,0.8-0.3c0.3-0.1,0.5-0.4,0.4-0.7
				c-0.1-1-0.1-0.8-0.8-1.6c-0.3-0.3-0.9-0.2-1,0.3c-0.3,1.6,0.5,3.2,1.2,4.5c0.3-0.3,0.5-0.5,0.8-0.8c-1.8-0.9-3.1,0.5-1.8,2.1
				c0.1,0.2,0.4,0.2,0.6,0.2c0.2-0.1,0.4-0.1,0.7-0.2c0.2-0.1,0.4-0.2,0.4-0.4c0-0.2,0.1-0.4,0.1-0.7c0-0.3,0-0.5-0.3-0.7
				c-0.8-0.4-0.8-0.4-1.6,0c-0.2,0.1-0.3,0.3-0.3,0.5c0,1,0.2,0.9,0.9,1.5c0.2,0.2,0.9-0.1,1.2,0c1.1,0.5,1.6,0.8,2.6,1.6
				c0.4,0.3,1-0.2,0.9-0.7c-0.1-0.6-0.3-1.2-0.4-1.7c-0.4,0.2-0.7,0.3-1.1,0.5c0.3,0.4,0.5,0.9,0.8,1.3c0.3-0.2,0.6-0.5,0.9-0.7
				c-0.3-0.3-0.7-0.6-1-0.9c-0.3-0.3-1.1-0.1-1,0.4c0,0.4,0.1,0.7,0.1,1.1c0.4-0.1,0.7-0.2,1.1-0.3c-0.7-1.3-1.3-2.2-2.3-3.3
				c-0.4-0.5-1.1,0-1,0.6c0.3,2,0.9,3.5,1.9,5.2c0.3,0.4,1,0.4,1.1-0.1c-1-1.1-2.1-2.3-3.1-3.4c-0.1-0.4-0.2-0.7-0.3-1.1
				c-1.8,0.9-1.5,2.7,0.4,3.1c0.3,0.1,0.7-0.1,0.7-0.4c0-0.2,0.1-0.5,0.1-0.7c0-0.3,0-0.5-0.3-0.7c-0.2-0.1-0.4-0.3-0.6-0.4
				c-0.2-0.1-0.5-0.1-0.7,0.1c-0.2,0.2-0.3,0.4-0.5,0.6c-0.1,0.1-0.2,0.4-0.2,0.6c0.1,0.2,0.2,0.5,0.3,0.7c0.1,0.3,0.4,0.5,0.7,0.4
				c0.3,0,0.5-0.1,0.8-0.1c0.2,0,0.4-0.2,0.4-0.4c0.1-0.2,0.2-0.5,0.3-0.7c0.1-0.3-0.1-0.5-0.3-0.7c-0.2-0.1-0.4-0.3-0.6-0.4
				c-0.2-0.1-0.4-0.1-0.6,0c-0.2,0.1-0.5,0.2-0.7,0.3c-0.2,0.1-0.3,0.3-0.3,0.5c-0.2,2,2.7,3.4,3.2,1c0.1-0.3,0-0.5-0.3-0.7
				c-0.2-0.1-0.3-0.2-0.5-0.3c-0.2-0.1-0.4-0.1-0.6,0c-0.2,0.1-0.3,0.2-0.5,0.3c-0.3,0.2-0.4,0.7-0.1,0.9c2.4,2.4,3.5-2.1,4.7-0.8
				c0.5,0.5,1.3-0.1,0.9-0.7c-0.9-1.5-1.7-2.3-3.3-3.1c-0.6-0.3-1.3,0.5-0.7,0.9c1.6,1.2,2.6,2.7,3.1,4.8c0.3-0.2,0.6-0.4,0.9-0.7
				c-0.3-0.3-0.6-0.6-0.9-0.9c-0.2-0.4-1-0.3-1.1,0.1c-0.1,0.3-0.1,0.6-0.2,0.9c0.4,0,0.7-0.1,1.1-0.1c-0.2-0.3-0.4-0.7-0.6-1
				c-0.3-0.6-1.2-0.2-1.1,0.5c0.1,0.5,0.2,1,0.3,1.6c0.4-0.2,0.7-0.3,1.1-0.5c-0.6-1.2-0.4-0.8-1.3-1.7c-0.4-0.4-1.1,0-1,0.6
				c0.4,1.7,0.9,2.9,1.7,4.4c0.3-0.2,0.6-0.5,0.9-0.7c-0.8-0.9-0.6-0.7-1.6-1.4c-0.4-0.3-1,0.2-0.9,0.7c0.4,1.2,0.2,1,1.2,1.8
				c0.3-0.3,0.6-0.6,0.8-0.8c-0.6-0.4-1.1-0.9-1.6-1.5c-0.3-0.3-0.8-0.2-0.9,0.1c-0.9,1.7-0.7,1-1,2.9c-0.1,0.6,0.8,1.1,1.1,0.5
				c0.6-1.4,1-2.7,1.1-4.2C119.3,114.6,118.1,114.6,118,115.4L118,115.4z"/>
		</g>
	</g>
	<g>
		<g>
			<path class="st0" d="M124.9,46.6c1.1,3.3,2.6,6.4,4.5,9.3c0.8,1.3,2.9,0.1,2.1-1.2c-1.8-2.7-3.2-5.6-4.3-8.7
				C126.7,44.5,124.4,45.1,124.9,46.6L124.9,46.6z"/>
		</g>
	</g>
	<g>
		<g>
			<g>
				<path class="st0" d="M77.1,85.1c-0.1,1,0.6,2,1.6,2.3c0.6,0.2,0.9-0.6,0.6-1c-0.4-0.5-0.8-1-1.2-1.4c-0.2,0.3-0.5,0.6-0.7,0.9
					c0.7,0.4,1.3,0.9,1.9,1.6c0.5,0.6,1.3-0.3,0.8-0.8c-0.6-0.7-1.3-1.3-2.1-1.7c-0.6-0.3-1.1,0.4-0.7,0.9c0.4,0.5,0.8,1,1.2,1.4
					c0.2-0.3,0.4-0.7,0.6-1c-0.5-0.1-0.8-0.6-0.8-1.1C78.4,84.3,77.2,84.3,77.1,85.1L77.1,85.1z"/>
			</g>
		</g>
		<g>
			<g>
				<path class="st0" d="M79.8,90.1c0-0.1,0-0.1,0-0.2c-0.4,0.1-0.7,0.2-1.1,0.3c0.2,0.3,0.4,0.6,0.6,0.9c0.2-0.3,0.4-0.6,0.7-0.9
					c0.2-0.4,0.5-0.8,0.7-1.2c0.1-0.2,0-0.6-0.3-0.7c-2.7-1.3-4.5,1.9-2.4,3.9c1.8,1.7,4.9,0.4,3.4-2c-0.3,0.2-0.7,0.4-1,0.6
					c0.3,0.4,0.7,0.7,1,1.1c0.3-0.2,0.7-0.4,1-0.6c-0.3,0-0.5,0-0.8,0c-0.6,0.4-0.1,1.4,0.6,1c1.8-1,1.4-3.5-0.9-3.8
					c-3.1-0.3-2.1,4-1.6,5.8c0.3-0.2,0.7-0.4,1-0.6c-0.1-0.3-0.1-0.6-0.2-0.9c-0.4,0.1-0.8,0.1-1.2,0.2c0,0.4,0.1,0.8,0.1,1.2
					c0.5-0.2,0.3-1-0.1-1.1c-3.7-0.8-2.8,4.1,0.1,4.8c3.8,1,5.4-4.5,1.3-5.2c-0.3-0.1-0.8,0.2-0.8,0.6c0.1,1,0.2,2,0.3,3
					c0.3-0.1,0.7-0.3,1-0.4c-0.5-0.7-1.1-1.5-1.6-2.2c0.4,0,0.7,0.1,1.1,0.1c0.1-0.4,0.2-0.8,0.3-1.2c-0.3-0.1-0.7-0.3-1-0.4
					c-0.2,1.8,0,3.8-1.2,5.3C78.3,98.1,77.4,98,77,99c-0.7,1.4-0.1,2.5,1.2,3.2c0.6,0.3,1.2-0.5,0.7-0.9c0.5-0.5,1-0.9,1.5-1.4
					c0.1,0.2,0.3,0.4,0.5,0.5c-0.5-0.1,2.7,1.6,1.5,1c0.5,0.3,1.2-0.3,0.8-0.8c-1-1.5-0.9-1.4-2.1-2.9c-0.3,0.3-0.6,0.6-0.8,0.8
					c0,0.3-0.1,0.5-0.1,0.8c-0.3,0.2-0.7,0.4-1,0.6c0.3-0.2,0.6-0.4,0.9-0.6c-0.4,0-0.7,0.1-1.1,0.1c0.3,0.1,0.5,0.2,0.8,0.3
					c-0.4,0.1-0.7,0.2-1.1,0.3c-0.1,0.5-0.1,1-0.2,1.5c0.4,0,0.7,0.1,1.1,0.1c-0.8-2-0.7,3.7-0.8,4.4c-0.1,0.7,1,0.8,1.2,0.2
					c0.4-1.6,0.8-3.2,1.2-4.9c-0.4,0-0.8,0-1.1,0c0.4,1.3,0.7,2.5,1,3.9c0.1,0.6,1.1,0.6,1.1,0c0.2-1.2,0.4-2.3,0.5-3.5
					c-0.4,0-0.8,0-1.1,0c0.1,0.7,0.1,1.3,0.2,2c0.4-0.1,0.8-0.1,1.2-0.2c-0.3-1.1-0.5-2.2-0.6-3.3c-0.4,0.2-0.7,0.3-1.1,0.5
					c0.5,0.7,0.4,0.3,0.5,1.1c0.1,0.5,0.8,0.9,1.1,0.3c0.6-1.4,0.6-2.1-0.3-3.3c-0.3,0.2-0.6,0.5-0.9,0.7c0.5,0.7,1,1.5,1.4,2.2
					c0.3,0.6,1.3,0.2,1.1-0.5c-0.5-1.4-0.4-1.3-1.7-2.2c-0.5-0.3-1,0.2-0.9,0.7c0.6,3.4-2.1,4.9,1.3,6.8c0.5,0.3,1.1-0.3,0.8-0.8
					c-0.4-0.6-0.7-1.2-0.9-1.8c-0.3,0.2-0.6,0.5-0.9,0.7c-1-0.3-2-0.7-3-1c0.4-0.5-0.5-1.2-0.9-0.7c-0.9,0.9-1.5,2-0.9,3.4
					c0.4,0.9,4.6,2.8,4.6,1.3c0.4-0.1,0.7-0.2,1.1-0.3c-0.1-0.7-0.2-1.4-0.2-2.1c-0.4,0-0.7,0.1-1.1,0.1c0.2,0.6,0.5,1.2,0.7,1.8
					c0.4-0.1,0.7-0.2,1.1-0.3c0-0.5-0.1-1.1-0.1-1.6c-0.4-0.1-0.8-0.1-1.2-0.2c-0.2-0.4-0.3-0.7-0.5-1.1c-0.4,0.1-0.8,0.1-1.2,0.2
					c-0.2,0.7-0.5,1.4-0.7,2.1c-0.4,0-0.7,0.4-0.6,0.8c0,0.4-0.1,0.8-0.1,1.3c0.4,0.1,0.8,0.2,1.1,0.3c0.3-1.3,0.9-2.5,1.6-3.6
					c-0.4,0-0.7-0.1-1.1-0.1c0.8,2.1-4.5,3.4-4,6.1c0.4,2.2,2.9,2.3,4.7,2.2c0.7,0,0.8-0.9,0.2-1.2c-1.1-0.3-2.3-0.5-3.4-0.8
					c-0.1,0.7,1,1.1,1.1,0.3c0.5,0.1,1,0.2,1.5,0.4c0.4,0,0.7-0.1,1.1-0.1c0.9,0,1.5-0.3,2-1c-0.4,0.1-0.8,0.2-1.1,0.3
					c-0.4,0.2-0.8,0.5-1.2,0.7c-0.4-0.1-0.9,0.3-0.7,0.7c0.2,0.8,0.3,1.6,0.5,2.5c0.4-0.1,0.7-0.2,1.1-0.3c-0.3-0.3-0.5-0.6-0.8-0.9
					c-0.4,0.1-0.8,0.1-1.2,0.2c-0.2,0.5-0.4,1-0.6,1.5c0.4,0,0.7,0.1,1.1,0.1c0.2,0.1,0.4,0.3,0.6,0.4c0.3-0.2,0.6-0.4,0.9-0.7
					c0.1,0.3,0.2,0.7,0.3,1c0.3-0.2,0.6-0.4,0.9-0.7c-0.2-0.2-0.4-0.5-0.6-0.7c-0.3,0.2-0.6,0.4-0.9,0.7c0.2,0.5,0.3,0.9,0.5,1.4
					c-0.6-0.5-1.2,0.6-0.6,1c0.2,0.2,0.5,0.3,0.7,0.5c0.2,0.1,0.4,0.1,0.6,0c2.2-1.1,1.1-2.9-0.6-3.9c-0.4-0.3-1,0.2-0.9,0.7
					c0.3,1,0.3,1,1.2,1.4c0.4,0.2,1.1-0.1,0.9-0.7c-0.6-1.5-1.1-2.1-2.8-2.4c-0.4-0.1-0.9,0.3-0.7,0.7c0.4,1.2,0.4,1.2,1.5,2
					c0.4,0.3,1-0.2,0.9-0.7c-0.4-1.4-0.8-2.8-2.4-3.1c-0.2-0.1-0.6,0-0.7,0.3c-0.5,1.1-0.2,2,0.2,3.1c0.2,0.4,0.9,0.7,1.1,0.1
					c0.7-1.6,0.4-2.8-1-3.8c-0.4-0.2-0.9,0.1-0.9,0.5c0.2,1.8,0.5,2.5,1.9,3.7c0.3,0.3,0.9,0.2,1-0.3c0.2-1.5,0.3-1.2-0.2-2.6
					c-0.2-0.6-1.2-0.5-1.2,0.2c0.2,1.6,0.5,2.4,1.7,3.6c0.2,0.2,0.8,0.2,0.9-0.1c0.6-1.3,0.5-2.5-0.7-3.4c-0.2-0.1-0.5-0.1-0.7,0.1
					c-0.1,0.1-0.2,0.2-0.4,0.3c-0.2,0.2-0.2,0.5-0.1,0.7c0.1,0.1,0.1,0.2,0.2,0.3c0.3,0.5,1.1,0.3,1.1-0.3c-0.2-4.3,0.2,0.4,1-2
					c0.4-1.3,1-0.8,0.4-2.3c-0.3-0.7-1.4-0.4-1.1,0.3c0.4,1.2,0.3,1.2,1.4,1.5c0.3,0.1,0.7-0.1,0.7-0.4c0.2-1.2-0.2-1.9-1.4-2.3
					c-0.2-0.1-0.4,0-0.6,0.2c-0.2,0.2-0.3,0.3-0.5,0.5c-0.1,0.1-0.2,0.4-0.2,0.6c0.4,1.2,1,1.4,2.2,1.5c0.5,0,0.7-0.5,0.5-0.9
					c-1.4-2.9-3.8-1.6-2,0.7c0.3,0.3,0.9,0.2,1-0.3c0.8-5.1-5.9,0.8-1.1,1.2c0.2,0,0.4-0.1,0.5-0.3c0.9-1.4-0.2-5.1-2.4-3.9
					c-1.5,0.9,0,3.3,1.4,3.3c0.3,0,0.5-0.2,0.6-0.4c0.5-1.3,0-2.8-0.9-3.8c-0.1-0.2-0.4-0.2-0.6-0.2c-2,0.5-1.4,3-0.6,4.3
					c0.3,0.4,0.9,0.3,1.1-0.1c1.1-3.2-3.1-4.3-3.7-1c0.4,0.1,0.8,0.2,1.1,0.3c0.3-1.6-0.3-2.9-2-2.2c-0.2,0.1-0.3,0.3-0.3,0.5
					c-0.1,3.9,5.1,0.8,2.1-0.6c-0.4-0.2-0.9,0-0.9,0.5c0,1.1,0.6,1.5,1.7,1.3c0.2,0,0.4-0.2,0.4-0.4c0.4-1.4-1-2.5-2-1.2
					c-1,1.3,1.5,3.3,2.6,2.4c1.2-1,0.3-3.1-1.2-2.8c-2.5,0.4-1.3,3.1,0.7,3.2c0.5,0,0.7-0.5,0.5-0.9c-0.2-0.3-0.4-0.7-0.6-1
					c-0.1-0.2-0.3-0.3-0.5-0.3c-0.2,0-0.4,0-0.6,0c-0.2,0-0.4,0.1-0.5,0.3c-0.1,0.2-0.1,0.3-0.2,0.5c-0.1,0.3-0.1,0.5,0.1,0.7
					c0.7,0.8,1.7,1.2,2.7,1.6c0.1-0.4,0.1-0.8,0.2-1.2c-1.5,0.4-2.4-0.4-2.6-2.5c0.4,0,0.9-0.1,1.3-0.3c0.5-0.6,1.1-0.5,1.6-1.3
					c0.7-1.1,0.6-2.2,0.2-3.4c-0.2-0.5-0.8-0.6-1.1-0.1c-0.8,1.3-1.3,2.4-1.8,3.9c-0.2,0.8,0.9,1,1.1,0.3c0.8-1.9,2.3-2.1,1.4-4.7
					c-0.2-0.6-1.2-0.5-1.2,0.2c0.1,2,2.6,3.9,2.9,1.1c0.1-0.7-1-0.7-1.2-0.2c-0.5,1.4-0.5,1.2,0.2,2.5c0.3,0.5,1.2,0.3,1.1-0.3
					c-0.2-1.5,0-1.1-0.9-2.4c-0.3-0.4-0.9-0.4-1.1,0.1c-0.4,1.2-0.4,1.9,0.4,3c0.3,0.5,1.1,0.3,1.1-0.3c0-1.4-0.1-2.7-1-3.8
					c-0.1-0.2-0.4-0.2-0.6-0.2c-2.3,0.4-1.5,3.4-0.6,4.6c0.2,0.3,0.8,0.4,1,0c0.1-0.1,0.1-0.3,0.2-0.4c0.1-0.2,0.1-0.4,0-0.6
					c-0.8-1-5.2-1.3-3.1-3.5c-0.3-0.2-0.6-0.5-0.9-0.7c-0.6,0.8-0.6,0.7-0.5,1.7c0,0.2,0.1,0.4,0.3,0.5c0.2,0.1,0.4,0.2,0.7,0.3
					c0.2,0.1,0.4,0.1,0.6,0c0.2-0.1,0.4-0.3,0.6-0.4c0.3-0.2,0.4-0.5,0.2-0.8c-0.1-0.2-0.2-0.4-0.3-0.6c-0.1-0.2-0.3-0.3-0.5-0.3
					c-0.2,0-0.5,0.1-0.7,0.1c-0.2,0-0.5,0.2-0.6,0.4c-0.5,3.2,4.4,1.6,1.9-1.2c-0.2-0.3-0.8-0.2-0.9,0.1c-0.9,1.9-0.2,3.2,1.9,3.4
					c0.5,0,0.7-0.5,0.5-0.9c-0.1-0.2-0.2-0.4-0.3-0.6c-0.1-0.2-0.3-0.3-0.5-0.3c-3.1-0.2-1.9,4,0.5,4.6c3.5,0.9,4.6-3.5,2.2-5.4
					c-0.5-0.4-1.2,0.1-0.9,0.7c0.3,0.6,0.6,1.3,0.9,1.8c0.3-0.3,0.5-0.5,0.8-0.8c-1.6-0.9-0.5-4.5-0.8-6.1c-0.3,0.2-0.6,0.4-0.9,0.7
					c0.4,0.5,0.7,1,1.1,1.5c0.4-0.2,0.7-0.3,1.1-0.5c-0.7-1.7-0.4-1.1-1.6-2.5c-0.5-0.5-1.3,0.2-0.9,0.7c0.1,0.7,0.2,1.4,0.3,2.1
					c0.4,0.1,0.7,0.2,1.1,0.3c0-0.4-0.1-0.7-0.1-1.1c0-0.3-0.2-0.6-0.6-0.6c0,0,0,0,0.1,0c-0.4-0.6-1.2-0.2-1.1,0.5
					c0.1,1.1,0.3,2.2,0.6,3.3c0.2,0.7,1.1,0.5,1.2-0.2c0.1-1.4,0.2-1-0.2-2.3c-0.2-0.5-1.1-0.6-1.1,0c-0.2,1.2-0.4,2.3-0.5,3.5
					c0.4,0,0.8,0,1.1,0c-0.2-1.4-0.5-2.6-1-3.9c-0.2-0.5-1-0.6-1.1,0c-0.4,1.6-0.8,3.2-1.2,4.9c0.4,0.1,0.8,0.1,1.2,0.2
					c0.2-2.3,1.1-6.5-0.8-8.2c-0.3-0.3-0.9-0.2-1,0.3c-0.4,1.5-0.3,2.5,0.3,3.9c0.2,0.4,0.9,0.7,1.1,0.1c0.7-1.5,0.7-2.2-0.1-3.6
					c-0.2-0.4-0.8-0.4-1,0c-0.7,1.5-0.7,2.3,0.5,3.5c0.3,0.3,0.9,0.2,1-0.3c0.4-1.2,0.3-1.1-0.2-2.3c-0.3-0.6-1.1-0.2-1.1,0.3
					c-0.1,1.4,0.3,2,1.4,2.8c0.4,0.3,0.9-0.1,0.9-0.5c-0.1-1.8,0-1.3-0.9-2.8c-0.2-0.4-0.8-0.4-1,0c-1,2.1-1,3.6,0,5.7
					c0.2,0.4,0.8,0.4,1,0c1.2-2.3,1.2-3.8,0.1-6.1c-0.2-0.5-1-0.3-1.1,0.1c-0.5,1.9,0,3.1,1.7,4.1c0.4,0.2,0.9-0.1,0.9-0.5
					c0-1.6-0.3-2.3-1.4-3.4c-0.4-0.4-1.2,0-1,0.6c0.6,1.6,1.2,2.4,2.6,3.4c0.3,0.2,0.7,0.1,0.8-0.2c1.1-2.2,0.4-3.5-1.3-5.1
					c-0.6-0.6-1.3,0.3-0.8,0.8c0.6,0.9,1.3,1.8,1.9,2.6c0.3-0.3,0.5-0.5,0.8-0.8c-1.8-1-3.2-4.8-5.6-2.5c-1.5,1.5-0.7,3.1,0.6,4.2
					c0.2-0.3,0.5-0.6,0.7-0.9c0.5-0.9,1-1.9,1.6-2.8c0.3-0.1,0.4-0.3,0.4-0.6c0.2-1.8,0.3-3.7,0.5-5.5c0-0.5-0.7-0.8-1-0.4
					c-1,1.1-0.9,0.9-0.6,2.4c0.1,0.5,0.8,0.6,1.1,0.1c0.8-1.2,0.7-1.1,0.1-2.4c-0.1-0.3-0.7-0.4-0.9-0.1c-3.3,4.3,2.6,8.5,2.5,3.7
					c-0.1-4.7-5.4,1-2,2.7c0.2,0.1,0.5,0.1,0.7-0.1c1.3-1.2,1.1-2.4,0.6-4c-0.1-0.4-0.7-0.6-1-0.3c-1.2,1.4-1.5,3.1,0.7,3.3
					c0.2,0,0.4-0.1,0.5-0.3c2.5-3.8-4.7-2.8-1.7-0.4c0.3,0.2,0.6,0.2,0.8,0c1-0.9,1.2-1.5,0.8-2.8c-0.1-0.4-0.5-0.5-0.9-0.4
					c-1.6,0.9-1.8,2.2-0.4,3.5c0.3,0.3,1.1,0.1,1-0.4c0.3-1.7-0.5-2.4-2.5-2c0-0.4-0.1-0.7-0.1-1.1c-0.9,0.4-0.9,0.4-1.1,1.4
					c0,0.3,0,0.5,0.3,0.7c0.8,0.6,0.8,0.6,1.8,0.2c0.3-0.1,0.4-0.3,0.4-0.6c0.1-1,0.1-1-0.7-1.7c-0.2-0.1-0.4-0.2-0.6-0.2
					c-5.1,1.9,2.2,5.5,0.9,1.4c-0.1-0.2-0.2-0.4-0.4-0.4c-1.1-0.2-1-0.2-1.9,0.5c-0.2,0.1-0.2,0.4-0.2,0.6c0.7,3.2,4.3,0.2,2.1-1.9
					c-0.2-0.1-0.4-0.2-0.6-0.2c-1.6,0.5-1.3,2.1-0.5,3.3c0.2,0.3,0.7,0.4,0.9,0.1c1.1-1,1.1-2.3-0.1-3.3c-0.4-0.3-0.8-0.2-1,0.3
					C77.8,95,77.7,96,79,96.7c0.2,0.1,0.4,0.1,0.6,0c1.5-0.9,1.5-2.6,0.9-4c-0.3-0.6-1.1-0.5-1.2,0.2c-0.1,1,0,1,0.6,1.8
					c0.4,0.5,1.2,0,1-0.6c0.2-0.9,0.5-1.9,0.7-2.8c0.2,0.3,0.4,0.7,0.6,1c1.9-1.4,0.8-4-1.6-3.5c-0.2,0-0.4,0.2-0.4,0.4
					c-0.3,1.3,0.5,2.1,1.4,3c0.5,0.4,1.1,0,1-0.6c-0.3-1.7-0.1-1.3-1.3-2.6c-0.3-0.3-0.8-0.2-0.9,0.1c-0.8,1.5-0.5,2.7,0.9,3.7
					c0.4,0.2,0.9-0.1,0.9-0.5c-0.1-1.2,0-1-0.7-2.1c-0.4-0.6-1.4-0.1-1,0.6c-1.7-2.8-1.2-0.2,0.1,0.7c0.3,0.2,0.8,0,0.9-0.4
					c1-3.4-3.4-4.5-3.1-1.3c0,0.3,0.2,0.5,0.4,0.6c0.2,0.1,0.4,0.1,0.6,0.2c0.2,0.1,0.4,0,0.6-0.2c0.1-0.1,0.2-0.2,0.4-0.3
					c0.1-0.1,0.2-0.4,0.2-0.6c-0.5-1.3-2.6-1.3-2.9,0.3c-0.3,1.8,2.2,2.3,3,0.9c0.8-1.3-0.5-2.9-1.9-2.4c-2.2,0.7-1,2.9,0.7,3.1
					c0.2,0,0.4-0.1,0.5-0.3c0.1-0.3,0.3-0.5,0.4-0.8c0.1-0.2,0.1-0.4,0-0.6c-0.2-0.2-0.3-0.5-0.5-0.7c-0.2-0.2-0.4-0.3-0.7-0.3
					c-2.8,0.4-1.3,4.2,0.7,2.2C80,91,80,90.7,80,90.5c-0.4-1.1-1.2-1.5-2.2-0.8c-0.3,0.2-0.4,0.5-0.2,0.8c0.8,1.1,0.6,1.1,2,1.1
					c0.3,0,0.5-0.2,0.6-0.4c0.4-1,0.1-1.7-1-1.9c-0.5-0.1-0.8,0.3-0.7,0.7c0,0.2,0.1,0.5,0.1,0.7c0,0.2,0.2,0.3,0.4,0.4
					c0.2,0.1,0.5,0.2,0.7,0.3c0.5,0.2,0.9-0.5,0.7-0.9c-0.2-0.3-0.4-0.6-0.6-0.9c-0.3-0.5-1-0.3-1.1,0.3c0,0.1,0,0.3,0,0.4
					c0,0.2,0.1,0.4,0.3,0.5c0.1,0.1,0.3,0.2,0.4,0.2C79.8,91.5,80.4,90.5,79.8,90.1L79.8,90.1z"/>
			</g>
		</g>
		<g>
			<g>
				<path class="st0" d="M75.1,50c-0.2,2.4-2.3,5.1-3.6,7.1c-1.1,1.9-2.2,3.8-2.6,6c-0.2,1.1,1.1,2,2,1.2c1.7-1.7,3.5-3.3,5.3-5
					c-0.6-0.6-1.1-1.1-1.7-1.7c-0.6,0.5-2,1.8-2.8,1.9c-1.3,0.1,0.2-1.7,0.6-2.2c0.9-1.2-0.7-2.9-1.7-1.7c-1.1,1.4-3,4.6-1.2,6.3
					c1.8,1.7,5.5-1.4,6.8-2.6c1.1-1-0.5-2.7-1.7-1.7c-1.8,1.6-3.6,3.3-5.3,5c0.7,0.4,1.3,0.8,2,1.2c1-5,5.8-8.7,6.3-13.8
					C77.6,48.5,75.2,48.5,75.1,50L75.1,50z"/>
			</g>
		</g>
		<g>
			<g>
				<path class="st0" d="M122.5,39.5c-4.5-0.1-10.3-1.2-14.6-2.8c-4.4-1.7-8-5.7-11.3-8.9c-1.2,1.6-2.4,3.1-3.6,4.7
					c1.7,0.7,2.3,0.5,4.1,0.3c2.8-0.2,6,0.2,8.8,0.8c5.3,1.1,10.2,5.3,14.8,8c0.8-1.8,1.5-3.6,2.3-5.4c-5.9-1.5-11.9-3-17.7-4.8
					c-0.3,1.9-0.5,3.9-0.8,5.8c4.3-0.2,8.5,0,12.8,0.7c0-1.9,0-3.8,0-5.7c-1.5,0.4-2.1,1-3,2.1c-0.6,0.8-0.5,2.2,0,3
					c1,1.5,1.7,1.4,3.1,2.3c2.3,1.4,3.8,4.2,5.4,6.4c2.2,3.1,7.4,0.1,5.1-3c-1.6-2.2-3.1-4.6-5-6.6c-0.6-0.6-1.3-1.3-2.1-1.8
					c-0.6-0.3-2.4-1.7-1.4-0.3c0,1,0,2,0,3c-0.2,0.2-0.4,0.4-0.6,0.6c2.7-0.7,3-5.2,0-5.7c-4.8-0.8-9.5-1.1-14.3-0.9
					c-3.3,0.2-4.1,4.8-0.8,5.8c5.8,1.8,11.8,3.3,17.7,4.8c3.3,0.8,5.2-3.7,2.3-5.4c-4.6-2.8-9.5-6.8-14.8-8.3
					c-2.5-0.7-5.3-0.9-7.9-1.3c-1.1-0.2-2.3-0.4-3.4-0.3c-0.5,0-3,0.1-1.6,0.6c-2.9-1.2-6.3,2.1-3.6,4.7c3.7,3.5,7.6,7.8,12.4,9.8
					c5.1,2.2,12.1,3.6,17.7,3.6C126.3,45.5,126.3,39.6,122.5,39.5L122.5,39.5z"/>
			</g>
		</g>
		<g>
			<g>
				<path class="st0" d="M77.2,44.2c0,0,0,0.1-0.1,0.1c1.1-0.5,2.2-0.9,3.4-1.4c-0.1,0-0.1,0-0.2-0.1c0.6,1.5,1.2,2.9,1.8,4.4
					c0.8-1.4,4.4-2.9,5.8-3.7c-1.2-1.6-2.4-3.1-3.6-4.7c-1.8,1.6-3.7,3.1-5.6,4.6c-2.7,2.1,0.8,6.5,3.6,4.7c1.4-0.9,2.8-1.9,4.2-2.8
					c-1.4-1.4-2.7-2.7-4.1-4.1c-1.8,2.5-9,10.6-2.6,12.7C85,55.7,90.7,46,94.1,43.6c-1.2-1.6-2.4-3.1-3.6-4.7
					c-1.9,1.8-3.9,3.6-5.8,5.4c-2.9,2.7,1.3,6.5,4.2,4.2c4.5-3.5,8.4-7.8,12.5-11.9c1.4-1.4,1.1-3.7-0.6-4.7c-3-1.7-6.3-4.6-10-3.8
					c-3.9,0.9-8.2,3.8-11.1,6.6c-5.3,5-11,14.8-11,22.3c0,0.9,0.5,2.2,1.5,2.6c4.2,1.8,10.1-2.6,12.5-5.8c1.3-1.7-0.4-4.8-2.6-4.5
					c-1.7,0.2-3.1,0.5-4.6,1.1c1.2,1.2,2.4,2.4,3.7,3.7c0.7-3.3,4.5-6.4,6.8-8.7c2.5-2.5,5-5.3,8.3-6.6c-0.8-1.8-1.5-3.6-2.3-5.4
					c-0.8,0.4-1.6,0.8-2.4,1.3c1.2,1.6,2.4,3.1,3.6,4.7c0.5-0.4,1-0.7,1.5-1.1c3.5-1.4,2-7.1-1.6-5.7c-1.7,0.6-2.9,1.3-4.1,2.6
					c-2.4,2.5,0.6,6.3,3.6,4.7c0.8-0.4,1.6-0.8,2.4-1.3c2.9-1.5,0.9-6.8-2.3-5.4c-4.4,1.8-7.7,4.8-11,8.2c-3.1,3.2-7.4,6.8-8.4,11.3
					c-0.4,1.9,1.4,4.6,3.7,3.7c1-0.5,2-0.8,3-0.9c-0.9-1.5-1.7-3-2.6-4.5c-0.7,1-1.9,1.4-2.9,2c-0.5,0.3-3.2,1-1.5,1.7
					c0.5,0.9,1,1.7,1.5,2.6c-0.1-5.2,4-11.4,7-15.4c1.9-2.5,4.1-4.3,6.9-5.8c4-2.3,5.4-0.8,9.2,1.3c-0.2-1.6-0.4-3.1-0.6-4.7
					c-4.1,4.1-8,8.3-12.5,11.9c1.4,1.4,2.8,2.8,4.2,4.2c1.9-1.8,3.9-3.6,5.8-5.4c2.4-2.3-0.8-6.6-3.6-4.7c-1.9,1.3-3.7,2.8-5.3,4.5
					c-1,1-3.8,5.2-5.1,5.2c0.9,0.5,1.7,1,2.6,1.5c0.7,1.1,1.1-0.8,1.7-1.7c0.9-1.2,1.7-2.5,2.6-3.7c1.7-2.4-1.7-5.7-4.1-4.1
					c-1.4,0.9-2.8,1.9-4.2,2.8c1.2,1.6,2.4,3.1,3.6,4.7c1.9-1.5,3.8-3,5.6-4.6c2.6-2.3-0.7-6.2-3.6-4.7c-2.5,1.4-6.6,3.2-8,5.8
					c-1,1.8-0.1,3.7,1.8,4.4c0.1,0,0.1,0,0.2,0.1c1.2,0.4,2.8-0.3,3.4-1.4c0,0,0-0.1,0.1-0.1C84,43.7,78.9,40.7,77.2,44.2L77.2,44.2
					z"/>
			</g>
		</g>
		<g>
			<g>
				<g>
					<g>
						<g>
							<path class="st1" d="M117.1,116.5c0,0.4,0.1,0.9,0.1,1.3c0,0.2,0,0.4,0,0.6c0,0.1,0,0.5,0.1,0.4c0.1-0.1,0.3-0.1,0.4-0.2
								c0,0-0.1,0-0.1,0c-0.8,0-0.8,1.2,0,1.2c0.6,0,0.8-0.5,0.8-1c0-0.8-0.1-1.6-0.2-2.4C118.2,115.7,117,115.7,117.1,116.5
								L117.1,116.5z"/>
						</g>
					</g>
					<g>
						<g>
							<g>
								<path class="st2" d="M99.4,39.3c2.2,2.7,6.6,3.6,9.7,4.6c4.6,1.4,9.2,2.1,13.9,2.4c0.8,0,0.8-1.1,0-1.2
									c-4.1-0.3-8.1-0.9-12-1.9c-3.3-0.9-8.6-2-10.8-4.7C99.8,37.8,98.9,38.7,99.4,39.3L99.4,39.3z"/>
							</g>
						</g>
						<g>
							<g>
								<path class="st2" d="M70.4,51.3c3.7-11.5,12.7-21.1,24.9-23.4c12.4-2.3,28.7,4.7,32.1,17.7c0.2,0.7,1.3,0.4,1.1-0.3
									c-3.5-13-19.2-20.4-31.8-18.8c-13.4,1.7-23.5,12-27.5,24.5C69,51.7,70.1,52,70.4,51.3L70.4,51.3z"/>
							</g>
						</g>
						<g>
							<g>
								<path class="st2" d="M116.3,89.7c-3.8,1-3.6,6.6,0.4,7.1c0.7,0.1,1.1-1,0.3-1.1c-2.8-0.4-3.1-4.1-0.4-4.8
									C117.3,90.7,117,89.5,116.3,89.7L116.3,89.7z"/>
							</g>
						</g>
						<g>
							<g>
								<path class="st2" d="M116.2,96.2c-1.6,0.1-2.8,1.4-3,3c-0.2,2,1.3,3.5,3,4.3c0.7,0.3,1.3-0.7,0.6-1c-1-0.5-2.1-1.3-2.3-2.5
									c-0.3-1.2,0.5-2.5,1.8-2.6C116.9,97.4,116.9,96.2,116.2,96.2L116.2,96.2z"/>
							</g>
						</g>
						<g>
							<g>
								<path class="st2" d="M116.3,103.3c-3.9-0.3-4.5,7.2-0.2,6.7c0.8-0.1,0.8-1.3,0-1.2c-2.8,0.3-2.1-4.5,0.2-4.4
									C117.1,104.5,117.1,103.3,116.3,103.3L116.3,103.3z"/>
							</g>
						</g>
						<g>
							<g>
								<path class="st2" d="M116.1,109.4c-2.1-0.1-3.1,2-2.7,3.8c0.5,1.9,2.3,3,4.1,2.8c0.8-0.1,0.4-1.2-0.3-1.1
									c-1.1,0.1-2.1-0.6-2.6-1.6c-0.5-1.1-0.1-2.7,1.4-2.6C116.9,110.7,116.9,109.5,116.1,109.4L116.1,109.4z"/>
							</g>
						</g>
						<g>
							<g>
								<path class="st2" d="M119.3,89.5c2.3,0.7,0.8,3.4-0.3,4.4c-0.5,0.5,0.3,1.4,0.8,0.8c1-1,1.9-2.3,1.8-3.8
									c-0.1-1.2-0.9-2.2-2-2.6C118.9,88.1,118.6,89.3,119.3,89.5L119.3,89.5z"/>
							</g>
						</g>
						<g>
							<g>
								<path class="st2" d="M118.6,95.2c2.7,1.4,2.9,4.7,0.5,6.6c-0.6,0.5,0.2,1.3,0.8,0.8c2.9-2.3,2.5-6.7-0.8-8.5
									C118.5,93.8,117.9,94.8,118.6,95.2L118.6,95.2z"/>
							</g>
						</g>
						<g>
							<g>
								<path class="st2" d="M119.2,103.5c0.9,0.4,1.9,0.9,2.5,1.8c0.7,1.2,0.3,3-1.3,2.8c-0.8-0.1-0.8,1.1,0,1.2
									c1.7,0.2,3-1.3,2.9-2.9c-0.1-2-1.7-3.2-3.4-3.9C119.1,102.1,118.4,103.1,119.2,103.5L119.2,103.5z"/>
							</g>
						</g>
						<g>
							<g>
								<path class="st2" d="M119.4,109.9c2.3,0.6,3,3.1,1.7,5c-0.4,0.6,0.6,1.2,1,0.6c1.8-2.5,0.5-5.9-2.4-6.7
									C119,108.5,118.7,109.7,119.4,109.9L119.4,109.9z"/>
							</g>
						</g>
						<g>
							<g>
								<path class="st2" d="M116.8,116.2c-0.3,1.3-0.5,2.6-0.8,3.8c-0.1,0.3,0.1,0.6,0.4,0.7c1,0.3,1.7-0.4,2.2-1.2
									c0.5-0.7,0.8-0.9,1.4-0.2c0.3,0.3,0.6,0.7,1,0.9c0.7,0.3,1.3-0.7,0.6-1c-0.8-0.4-1.2-1.5-2.2-1.5c-0.5,0-0.9,0.2-1.2,0.5
									c-0.4,0.4-0.9,1.7-1.6,1.6c0.1,0.2,0.3,0.5,0.4,0.7c0.3-1.3,0.5-2.6,0.8-3.8C118.1,115.7,117,115.4,116.8,116.2L116.8,116.2
									z"/>
							</g>
						</g>
						<g>
							<g>
								<path class="st2" d="M119.8,115.3c0.2,1.7,0.7,3.2,1.6,4.6c0.4,0.6,1.4,0,1-0.6c-0.8-1.2-1.3-2.6-1.5-4
									C120.9,114.5,119.7,114.5,119.8,115.3L119.8,115.3z"/>
							</g>
						</g>
						<g>
							<g>
								<path class="st2" d="M70.4,65.5c10.1-8.3,20.8-16.2,29-26.5c0.5-0.6-0.4-1.4-0.8-0.8c-8.2,10.2-18.9,18.1-29,26.5
									C68.9,65.1,69.8,66,70.4,65.5L70.4,65.5z"/>
							</g>
						</g>
						<g>
							<g>
								<path class="st2" d="M70.1,65.3c-1.5-2.1-1.1-6.1-0.8-8.6c0.2-2.9,0.9-5.6,1.9-8.3c0.3-0.7-0.9-1-1.1-0.3
									c-1.2,3.2-1.9,6.5-2,9.9c-0.1,2.4-0.4,5.9,1.1,7.9C69.5,66.5,70.6,65.9,70.1,65.3L70.1,65.3z"/>
							</g>
						</g>
						<g>
							<g>
								<path class="st2" d="M79.5,86.8c-1.7,0-3.4,1.1-3.6,2.9c-0.2,1.7,1.1,3.2,2.8,3.3c0.8,0,0.8-1.1,0-1.2
									c-1-0.1-1.8-1.1-1.6-2.1c0.2-1.1,1.4-1.7,2.4-1.6C80.2,88,80.2,86.8,79.5,86.8L79.5,86.8z"/>
							</g>
						</g>
						<g>
							<g>
								<path class="st2" d="M78.3,92.2c-2.9,0.7-2.9,4.6-0.1,5.5c0.7,0.2,1-0.9,0.3-1.1c-1.7-0.5-1.5-2.8,0.1-3.2
									C79.3,93.1,79,92,78.3,92.2L78.3,92.2z"/>
							</g>
						</g>
						<g>
							<g>
								<path class="st2" d="M78.3,96.8c-1.3,0.6-2.6,1.6-2.7,3.1c-0.1,1.2,0.7,2.5,2,2.7c0.7,0.1,1.1-1,0.3-1.1
									c-0.9-0.1-1.3-1.1-1-2c0.3-0.9,1.2-1.4,2-1.7C79.6,97.5,79,96.5,78.3,96.8L78.3,96.8z"/>
							</g>
						</g>
						<g>
							<g>
								<path class="st2" d="M78.3,102.1c-1.4,0.2-2.6,1.2-2.7,2.6c-0.1,1.4,1,2.7,2.4,3c0.7,0.1,1.1-1,0.3-1.1
									c-1.9-0.4-2-3.1,0-3.3C79,103.2,79,102,78.3,102.1L78.3,102.1z"/>
							</g>
						</g>
						<g>
							<g>
								<path class="st2" d="M78.6,107.2c-1.6-0.1-3.4,1.7-3.4,3.3c-0.1,1.9,2.4,2.8,3.9,3.1c0.7,0.1,1.1-1,0.3-1.1
									c-0.9-0.2-2.2-0.5-2.8-1.3c-0.9-1.1,0.9-2.8,2-2.7C79.4,108.5,79.4,107.3,78.6,107.2L78.6,107.2z"/>
							</g>
						</g>
						<g>
							<g>
								<path class="st2" d="M79.3,113.2c-1.6-0.3-3.3,0.8-3.6,2.5c-0.2,1.8,1.3,3.2,3.1,3.2c0.8,0,0.8-1.2,0-1.2
									c-1,0-2.1-0.9-1.9-1.9c0.2-0.9,1.2-1.6,2.1-1.4C79.7,114.5,80,113.3,79.3,113.2L79.3,113.2z"/>
							</g>
						</g>
						<g>
							<g>
								<path class="st2" d="M82.3,118.8c1.3,0.2,3,0.1,3.2-1.6c0.1-1.7-1.2-3.2-2.6-4c-0.7-0.4-1.3,0.7-0.6,1
									c0.9,0.5,1.5,1.2,1.9,2.1c0.2,0.5,0.3,1.1-0.3,1.3c-0.4,0.1-0.9,0-1.3,0C81.9,117.5,81.6,118.7,82.3,118.8L82.3,118.8z"/>
							</g>
						</g>
						<g>
							<g>
								<path class="st2" d="M82.5,114c1.4-0.2,3.2-0.6,3.3-2.3c0.2-1.8-1.6-2.8-3.1-3.3c-0.7-0.3-1,0.9-0.3,1.1
									c0.9,0.3,2.2,0.9,2.2,2c0,1-1.3,1.2-2.1,1.3C81.7,112.9,81.7,114.1,82.5,114L82.5,114z"/>
							</g>
						</g>
						<g>
							<g>
								<path class="st2" d="M82.3,109.5c3.1-1,3.6-5,0.8-6.7c-0.7-0.4-1.2,0.6-0.6,1c1.9,1.2,1.6,3.9-0.5,4.6
									C81.2,108.6,81.5,109.7,82.3,109.5L82.3,109.5z"/>
							</g>
						</g>
						<g>
							<g>
								<path class="st2" d="M82.5,103.6c1.2-0.2,2-1.4,2-2.7c0-1.5-1.2-2.7-2.3-3.6c-0.6-0.5-1.4,0.4-0.8,0.8
									c0.7,0.5,1.4,1.1,1.8,1.9c0.4,0.9,0.2,2.1-0.9,2.3C81.5,102.6,81.8,103.7,82.5,103.6L82.5,103.6z"/>
							</g>
						</g>
						<g>
							<g>
								<path class="st2" d="M81.4,97.9c2.8-0.3,3.7-3.7,1.3-5.3c-0.6-0.4-1.2,0.6-0.6,1c1.3,0.9,0.9,2.9-0.7,3.1
									C80.7,96.8,80.7,98,81.4,97.9L81.4,97.9z"/>
							</g>
						</g>
						<g>
							<g>
								<path class="st2" d="M82.1,93.4c1-0.4,2.1-1,2.4-2.2c0.2-1-0.2-2.1-1.1-2.5c-0.7-0.3-1.3,0.7-0.6,1c0.5,0.2,0.7,0.8,0.5,1.4
									c-0.3,0.6-0.9,1-1.5,1.2C81.1,92.5,81.4,93.6,82.1,93.4L82.1,93.4z"/>
							</g>
						</g>
						<g>
							<g>
								<path class="st2" d="M79.8,87.9c1,0.3,1.8,0.8,2.5,1.5c0.5,0.5,1.4-0.3,0.8-0.8c-0.8-0.9-1.9-1.5-3-1.8
									C79.4,86.5,79.1,87.7,79.8,87.9L79.8,87.9z"/>
							</g>
						</g>
						<g>
							<g>
								<path class="st2" d="M116,90.9c1.1-0.8,2.2-1.4,3.4-2c0.7-0.3,0.1-1.4-0.6-1c-1.2,0.6-2.3,1.3-3.4,2
									C114.8,90.3,115.4,91.3,116,90.9L116,90.9z"/>
							</g>
						</g>
						<g>
							<g>
								<path class="st2" d="M79.1,120.1C79.1,120.1,79.2,120.1,79.1,120.1c0.3,0,0.5-0.2,0.6-0.4c0.1-0.2,0-0.4-0.1-0.6
									c-0.2-0.2-0.4-0.3-0.7-0.3c-1,0.2-1.1,1.9-1,2.7c0,0.3,0.5,0.5,0.7,0.4c1-0.3,1.9-0.8,2.7-1.6c0.5-0.6-0.3-1.4-0.8-0.8
									c-0.6,0.6-1.3,1.1-2.2,1.3c0.2,0.1,0.5,0.3,0.7,0.4c0-0.2,0-0.5,0-0.7c0-0.1,0.1-0.2,0.1-0.3c0-0.1,0.2-0.2,0.1-0.2
									c-0.2-0.1-0.4-0.2-0.7-0.3c0,0,0,0,0,0.1c0-0.2,0-0.3-0.1-0.5c0,0,0,0.1,0,0.1c0.2-0.1,0.4-0.3,0.6-0.4c0,0,0,0-0.1,0
									C78.3,119,78.3,120.2,79.1,120.1L79.1,120.1z"/>
							</g>
						</g>
						<g>
							<g>
								<path class="st2" d="M80.9,119.9c0.5,0.8,1.2,1.5,2,2c0.3,0.2,0.8,0,0.9-0.4c0.1-0.7-0.1-1.2-0.5-1.7
									c-0.3-0.5-0.9-0.9-0.8-1.6c0.1-0.8-1.1-0.8-1.2,0c-0.1,0.6,0.2,1.1,0.5,1.6c0.3,0.4,0.9,0.9,0.8,1.4
									c0.3-0.1,0.6-0.2,0.9-0.4c-0.7-0.4-1.2-0.9-1.6-1.6C81.6,118.7,80.6,119.3,80.9,119.9L80.9,119.9z"/>
							</g>
						</g>
						<g>
							<g>
								<path class="st2" d="M78.8,87.1c-1.1-0.1-1.8-1.3-1.3-2.3c0.3-0.7-0.7-1.3-1-0.6c-0.9,1.9,0.3,3.9,2.3,4.1
									C79.5,88.4,79.5,87.2,78.8,87.1L78.8,87.1z"/>
							</g>
						</g>
						<g>
							<g>
								<path class="st2" d="M120.8,89.4c0.3-0.5,0.5-1,0.6-1.6c0.1-0.8-1.1-0.8-1.2,0c0,0.4-0.2,0.7-0.4,1
									C119.4,89.5,120.4,90.1,120.8,89.4L120.8,89.4z"/>
							</g>
						</g>
						<g>
							<g>
								<path class="st2" d="M122.6,45.9c2.2,4.8,4.3,9,9.1,11.7c0.7,0.4,1.3-0.6,0.6-1c-4.6-2.6-6.5-6.7-8.6-11.3
									C123.3,44.6,122.3,45.2,122.6,45.9L122.6,45.9z"/>
							</g>
						</g>
						<g>
							<g>
								<path class="st2" d="M124,45.6c0-0.1,0-0.1,0-0.2c0-0.8-1.2-0.8-1.2,0c0,0.1,0,0.1,0,0.2C122.9,46.4,124,46.4,124,45.6
									L124,45.6z"/>
							</g>
						</g>
						<g>
							<g>
								<path class="st2" d="M132.7,56.8c0.3-4.5-2.1-9.8-4.7-13.4c-0.4-0.6-1.5,0-1,0.6c2.4,3.5,4.8,8.5,4.5,12.8
									C131.5,57.6,132.7,57.5,132.7,56.8L132.7,56.8z"/>
							</g>
						</g>
					</g>
				</g>
			</g>
		</g>
		<g>
			<g>
				<path class="st3" d="M71.2,62.1c1.1-4.8,1.8-10.1,3.7-14.6c2.2-5,6-8.9,10.4-11.9c0.6-0.4,0-1.5-0.6-1c-4,2.8-7.6,6.1-9.9,10.4
					C72,50.1,71.3,56.2,70,61.8C69.9,62.6,71,62.9,71.2,62.1L71.2,62.1z"/>
			</g>
		</g>
		<g>
			<g>
				<path class="st3" d="M71.2,62.9c7.5-8,15.3-15.7,23.3-23.2c0.6-0.5-0.3-1.4-0.8-0.8c-8,7.5-15.7,15.3-23.3,23.2
					C69.8,62.6,70.6,63.5,71.2,62.9L71.2,62.9z"/>
			</g>
		</g>
		<g>
			<g>
				<path class="st3" d="M102.9,37.2c4.9,3.5,11.8,4,17.6,4.7c0.8,0.1,0.8-1.1,0-1.2c-5.6-0.7-12.3-1.2-17-4.6
					C102.9,35.7,102.3,36.8,102.9,37.2L102.9,37.2z"/>
			</g>
		</g>
		<g>
			<g>
				<path class="st0" d="M79.5,89.5C79.5,89.5,79.5,89.5,79.5,89.5c0.4-0.7-0.6-1.3-1-0.6c-0.5,0.9,0.3,2,1.3,1.7
					C80.5,90.5,80.2,89.3,79.5,89.5L79.5,89.5z"/>
			</g>
		</g>
	</g>
	<g>
		<g>
			<path class="st0" d="M80.7,116.8c-0.3-0.1-0.6-0.2-0.9-0.3c-0.2,0.2-0.4,0.4-0.6,0.6c-0.1,0-0.2,0-0.4,0c0-0.2,0-0.4,0-0.6
				c0-0.3-0.1-0.5-0.3-0.7c-0.2,0.1-0.5,0.3-0.7,0.4c0.3-0.3,0.6-0.7,0.9-1c0.2,0,0.3,0,0.5,0c0.3-0.1,0.5-0.1,0.7-0.2
				c0.5-0.3,0.3-1.1-0.3-1.1c-1.1,0.1-1.6,1.1-1.1,2.1c0.2,0.3,0.5,0.6,0.7,0.9c0.3,0.6,0.2,1.3,0.2,1.9c0,0.3-0.1,1.2,0.5,1.1
				c0.2,0,0.7-1.6,0.8-1.8c-0.4,0-0.7,0.1-1.1,0.1c0.6,1.1,1.4,1.9,2.4,2.4c0.1-0.4,0.2-0.7,0.3-1.1c-0.3-0.2-0.5-0.5-0.6-0.8
				c0.2-0.5,0.5-0.6,0.9-0.4c0.3,0,0.6,0.2,0.9,0.1c0.5-0.1,0.9-0.5,1-1c0.4-1.6-1.8-2.7-2.8-3.4c-0.6-0.5-1.2,0.6-0.6,1
				c0.5,0.4,1.2,0.7,1.6,1.1c0.3,0.3,0.8,0.8,0,1c-0.1,0-0.4-0.1-0.6-0.1c-0.6-0.1-1.2,0.1-1.5,0.7c-0.6,1.2,0.3,3,1.6,3
				c0.6,0,0.8-0.8,0.3-1.1c-0.9-0.5-1.5-1.1-2-2c-0.3-0.5-0.9-0.3-1.1,0.1c-0.3,0.7-1.3,2.1-0.7,2.9c0.3,0.5,1,0.5,1.5,0.1
				c0.2-0.2,0.3-0.4,0.4-0.7c0.2-0.6,0.1-1.5,0.1-2.1c0-0.4,0-0.8-0.1-1.2c-0.1-0.2-1.2-1.7-1-1.7c-0.1-0.4-0.2-0.7-0.3-1.1
				c-0.7,0.3-1.4,0-1.9,0.6c-0.4,0.4-0.5,1.1-0.4,1.6c0.2,0.9,1.5,1.9,2.2,0.8c0.6-1-0.6-2.1-1.6-1.7c-1,0.4-1,2,0,2.4
				c1,0.4,2.1-0.6,1.8-1.7c-0.4-1-1.9-1.3-2.4-0.3c-0.5,0.9,0.5,2,1.4,1.6c1.1-0.4,0.7-1.8-0.2-2.1c-0.3-0.1-0.7,0.1-0.7,0.4
				c-0.2,1,1.1,3.1,2.3,2c0.9-0.9-0.6-2-1.3-1.1c-0.8,1,0.8,2.5,1.9,1.9c1.4-0.7,0.2-2.5-1-2.5c-0.3,0-0.6,0.3-0.6,0.6
				c0.1,2,3,1.9,2.7,0c-0.1-0.6-0.8-1.2-1.5-1c-1,0.2-0.6,1.4-0.2,1.9C80.1,118.1,81.2,117.5,80.7,116.8L80.7,116.8z"/>
		</g>
	</g>
	<g>
		<g>
			<path class="st0" d="M80.6,102.2c0.8,0,0.8-1.2,0-1.2C79.9,101,79.9,102.2,80.6,102.2L80.6,102.2z"/>
		</g>
	</g>
	<g>
		<g>
			<path class="st0" d="M82.3,102.3c0.8,0,0.8-1.2,0-1.2C81.5,101.2,81.5,102.3,82.3,102.3L82.3,102.3z"/>
		</g>
	</g>
	<g>
		<g>
			<path class="st0" d="M82.3,102.3c0.8,0,0.8-1.2,0-1.2C81.5,101.2,81.5,102.3,82.3,102.3L82.3,102.3z"/>
		</g>
	</g>
	<g>
		<g>
			<path class="st0" d="M82.5,102.5c0.8,0,0.8-1.2,0-1.2C81.7,101.3,81.7,102.5,82.5,102.5L82.5,102.5z"/>
		</g>
	</g>
	<g>
		<g>
			<path class="st0" d="M82.6,102.6c0.8,0,0.8-1.2,0-1.2C81.9,101.4,81.9,102.6,82.6,102.6L82.6,102.6z"/>
		</g>
	</g>
	<g>
		<g>
			<path class="st0" d="M82.9,113.3c0.8,0,0.8-1.2,0-1.2C82.1,112.2,82.1,113.3,82.9,113.3L82.9,113.3z"/>
		</g>
	</g>
	<g>
		<g>
			<path class="st0" d="M83.6,112.7c0-0.1,0.1-0.2,0.1-0.3c0.3-0.7-0.7-1.3-1-0.6c0,0.1-0.1,0.2-0.1,0.3
				C82.3,112.8,83.3,113.4,83.6,112.7L83.6,112.7z"/>
		</g>
	</g>
	<g>
		<g>
			<path class="st0" d="M76.8,114.7c-0.3,0.3-0.5,0.6-0.4,1c0.1,0.8,1.3,0.8,1.2,0c0-0.1,0-0.2,0.1-0.2
				C78.2,115,77.4,114.2,76.8,114.7L76.8,114.7z"/>
		</g>
	</g>
	<g>
		<g>
			<path class="st0" d="M80.6,89.7c-0.1-0.6-0.2-1.2-0.3-1.8c-0.2,0.2-0.5,0.5-0.7,0.7c0.8,0.3,1.7,0.5,2.4,1.1
				c0.3,0.2,0.5,0.5,0.7,0.8c0.1,0.2,0.5,0.8,0.4,1c0.1-0.1,0.2-0.2,0.4-0.3c0,0-0.1,0-0.1,0c0.2,0,0.3,0,0.5,0.1c0,0-0.1,0-0.1,0
				c0.1,0.1,0.2,0.2,0.3,0.4c0,0,0-0.1,0-0.1c-0.2-0.7-1.3-0.4-1.1,0.3c0.1,0.5,0.8,0.8,1.2,0.4c0.5-0.5,0.2-1.3,0-1.8
				c-0.7-1.7-2.5-2.4-4.1-2.9c-0.5-0.1-0.8,0.3-0.7,0.7c0.1,0.6,0.2,1.2,0.3,1.8C79.6,90.8,80.7,90.5,80.6,89.7L80.6,89.7z"/>
		</g>
	</g>
	<g>
		<g>
			<path class="st0" d="M78.5,92.2c-0.1,0.5-0.1,1,0.2,1.5c0.4,0.7,1.4,0.1,1-0.6c-0.1-0.2-0.1-0.3-0.1-0.5
				C79.9,91.8,78.7,91.5,78.5,92.2L78.5,92.2z"/>
		</g>
	</g>
	<g>
		<g>
			<path class="st0" d="M118.9,88c0,0.1,0.1,0.3,0.1,0.4c0.2,0.7,1.4,0.4,1.1-0.3c0-0.1-0.1-0.3-0.1-0.4
				C119.9,87,118.7,87.3,118.9,88L118.9,88z"/>
		</g>
	</g>
	<g>
		<g>
			<path class="st0" d="M69.1,62.7c0.8,0,0.8-1.2,0-1.2C68.4,61.5,68.4,62.7,69.1,62.7L69.1,62.7z"/>
		</g>
	</g>
	<g>
		<g>
			<path class="st0" d="M69,61.7c0.8,0,0.8-1.2,0-1.2C68.2,60.5,68.2,61.7,69,61.7L69,61.7z"/>
		</g>
	</g>
	<g>
		<g>
			<path class="st0" d="M117.5,95.3c-0.1,0.8,0,1.6,0.3,2.4c0.2,0.6,1.2,0.5,1.2-0.2c0-1-0.3-2-0.8-2.9c-0.2,0.3-0.4,0.6-0.7,0.9
				c0.8,0.3,1.5,1,1.8,1.8c0.2,0.7,1.4,0.4,1.1-0.3c-0.4-1.3-1.3-2.2-2.6-2.6c-0.5-0.2-0.9,0.4-0.7,0.9c0.4,0.7,0.7,1.4,0.7,2.3
				c0.4-0.1,0.8-0.1,1.2-0.2c-0.2-0.7-0.3-1.3-0.2-2C118.8,94.5,117.6,94.5,117.5,95.3L117.5,95.3z"/>
		</g>
	</g>
	<g>
		<g>
			<path class="st0" d="M116.8,96.1c0.6-0.5,0.4-1.2-0.2-1.6c-0.4-0.3-0.8-0.5-1-1.1c-0.2-0.7,0.1-1.4,0.4-2.1
				c0.2-0.7-0.9-1-1.1-0.3c-0.3,0.9-0.6,1.9-0.3,2.9c0.1,0.4,0.9,1.9,1.4,1.4C115.3,95.8,116.2,96.6,116.8,96.1L116.8,96.1z"/>
		</g>
	</g>
	<g>
		<g>
			<path class="st0" d="M117.4,119.3c1.9-1,1.8-4.1,0.5-5.5c-1.1-1.3-2.5-0.8-2.2-3.7c0-0.4,0.5-1,0.6-1.4c0.3-1.4-1.7-3.5,0.3-4.1
				c0.7-0.2,0.4-1.4-0.3-1.1c-0.8,0.2-1.8,0.5-2.1,1.4c-0.2,0.5,0,0.7,0,1.1c0.1,2,0.9-0.4,0.1,4c-0.2,1-0.8,1.4-0.1,2.5
				c0.3,0.5,0.7,0.8,1.2,1.1c0.8,0.7,4,3.5,1.5,4.8C116.1,118.6,116.7,119.6,117.4,119.3L117.4,119.3z"/>
		</g>
	</g>
	<g>
		<g>
			<path class="st0" d="M119.4,105c0.4-0.1,0.9-0.1,1.3,0.1c0.2,0.1,1,0.9,0.4,1c-0.8,0.1-0.4,1.3,0.3,1.1c1.3-0.3,1.2-1.8,0.5-2.6
				c-0.7-0.8-1.9-1.1-2.9-0.8C118.3,104.1,118.7,105.3,119.4,105L119.4,105z"/>
		</g>
	</g>
	<g>
		<g>
			<path class="st0" d="M118.9,109.7c0.7,1.4,1.7,2.7,2.9,3.7c0.5,0.4,1.3-0.1,0.9-0.7c-0.6-0.8-1.1-1.7-1.7-2.5
				c-0.4-0.6-1.5,0-1,0.6c0.6,0.8,1.1,1.7,1.7,2.5c0.3-0.2,0.6-0.5,0.9-0.7c-1.2-1-2.1-2.1-2.7-3.5
				C119.6,108.4,118.5,109,118.9,109.7L118.9,109.7z"/>
		</g>
	</g>
	<g>
		<g>
			<path class="st0" d="M115.4,109.5c0.1,0.5,0.2,1,0.5,1.5c0.3,0.4,1,0.4,1.1-0.1c0.1-0.3,0.1-0.7,0.2-1c-0.3,0.1-0.6,0.2-0.9,0.4
				c0.1,0.1,0.1,0.1,0.1,0.2c0.1,0.8,1.3,0.4,1.1-0.3c-0.1-0.4-0.3-0.7-0.6-0.9c-0.3-0.2-0.8,0-0.9,0.4c-0.1,0.3-0.1,0.7-0.2,1
				c0.4,0,0.7-0.1,1.1-0.1c-0.2-0.3-0.3-0.6-0.4-0.9C116.5,108.7,115.3,108.7,115.4,109.5L115.4,109.5z"/>
		</g>
	</g>
</g>
</svg>
