<?xml version="1.0" encoding="utf-8"?>
<!-- Generator: Adobe Illustrator 21.0.2, SVG Export Plug-In . SVG Version: 6.00 Build 0)  -->
<svg version="1.1" id="Layer_1" xmlns="http://www.w3.org/2000/svg" xmlns:xlink="http://www.w3.org/1999/xlink" x="0px" y="0px"
	 viewBox="0 0 200 600" style="enable-background:new 0 0 200 600;" xml:space="preserve">
<style type="text/css">
	.st0{fill:#ED7A23;}
	.st1{fill:#603017;}
	.st2{fill:#211E1F;}
	.st3{fill:#EB8523;}
</style>
<g>
	<g>
		<g>
			<path class="st0" d="M116.4,44.3c0.6,1,1.3,1.9,2.4,2.3c1.6,0.6,3.4-0.4,4.9,0.4c1.7,0.9,3,3.4,4,5c1,1.6,1.8,3.3,2.5,5
				c0.8,1.8,3.3,0.2,2.6-1.5c-1.4-3.2-3.1-6.4-5.3-9c-0.9-1-2-2.1-3.3-2.5c-1.5-0.5-4.3,0.5-5.2-1.1C118,41.1,115.4,42.6,116.4,44.3
				L116.4,44.3z"/>
		</g>
	</g>
	<g>
		<g>
			<path class="st0" d="M84.4,45.7c-2.5,2-4.9,4.2-7,6.5c-1.2,1.2-3.6,3.3-4,5.1c-0.6,2.8,1.5,2.9,3.6,2c-0.2-0.4-0.3-0.7-0.5-1.1
				c-1.2,0.9-0.9,0.6-1.9,1.7c-0.4,0.5,0.1,1.4,0.7,0.9c1-0.7,1.9-1.4,2.9-2.1c-0.2-0.3-0.5-0.6-0.7-0.9
				C80.4,55.4,82.2,49.2,84.4,45.7c2-3.1,4.8-5.7,6.5-8.9c1.3-2.4,0.8-5.4-2.4-5.3c0.1,0.4,0.2,0.7,0.3,1.1c0.9-0.8,1.9-1.3,3-1.7
				c0.5-0.2,0.3-1.1-0.3-1.1c-1.4,0.1-1,0-2.3,0.4c-0.6,0.2-0.5,1.1,0.2,1.2c2.6,0.1,3.6,0.3,5.5,2.3c0.9,0.5,1.5,1.1,1.8,2
				c0.2,0.4,0.3,0.8,0.5,1.2c0.3,0.3,0.4,0.8,0.7,1c0,0,2.8,1.2,2.1,0.2c-0.3,0.3-0.5,0.5-0.8,0.8c3.2,2.2,6.5,3.9,10.1,5.3
				c0.7,0.3,1-0.9,0.3-1.1c-3.5-1.4-6.7-3.1-9.8-5.2c-0.5-0.3-1.2,0.3-0.8,0.8c0,0,0.1,0.1,0.1,0.1c0.2,0.2,0.5,0.4,0.8,0.2
				c0.1-0.1,0.1-0.1,0.2-0.2c0.4-0.3,0.4-0.7,0-1c-2.3-1.7-2.4-4.3-4.4-6c-1.7-1.5-4.2-1.6-6.4-1.7c0.1,0.4,0.1,0.8,0.2,1.2
				c0.7-0.1,1.3-0.2,2-0.3c-0.1-0.4-0.2-0.7-0.3-1.1c-1.1,0.4-2.1,0.9-3,1.7c-0.5,0.3-0.3,1.1,0.3,1.1c0.1,1.7,0.1,3.4,0.2,5.1
				c-0.4,0.5-0.7,0.9-1.1,1.4c-0.4,0.8-1.2,1.5-1.7,2.2c-1.6,2.1-3,4.3-4.3,6.6c-1.7,2.9-4.4,6.9-4.8,10.4c0,0.2,0.1,0.4,0.3,0.5
				c0.1,0,0.2,0.1,0.3,0.1c0.3,0.1,0.5,0.1,0.7-0.1c0.1-0.1,0.1-0.1,0.2-0.2c0.5-0.4-0.2-1.3-0.7-0.9c-1,0.7-1.9,1.4-2.9,2.1
				c0.2,0.3,0.5,0.6,0.7,0.9c0.6-0.5,1.1-1,1.7-1.5c0.5-0.4,0.2-1.4-0.5-1.1c-3.9,1.6,1.9-5.5,2.7-6.3c1.9-1.9,3.9-3.7,5.9-5.4
				C85.8,46.1,84.9,45.3,84.4,45.7L84.4,45.7z"/>
		</g>
	</g>
	<g>
		<g>
			<path class="st0" d="M82,115c1.1,0.4,2.4,0,3.1-1c0.6-1,0.4-2.3-0.3-3.2c-0.5-0.6-1.4,0.3-0.8,0.8c1,1.1-0.2,2.7-1.5,2.3
				C81.6,113.6,81.3,114.8,82,115L82,115z"/>
		</g>
	</g>
	<g>
		<g>
			<path class="st0" d="M79.3,116.6c-0.2,1-0.5,2-0.7,3c-0.2,0.8,0.2,1.6,1,1.8c0.8,0.2,1.6-0.3,1.8-1c0.2-1,0.5-2,0.7-3
				c0.2-0.8-0.2-1.6-1-1.8C80.3,115.4,79.4,115.9,79.3,116.6L79.3,116.6z"/>
		</g>
	</g>
	<g>
		<g>
			<path class="st0" d="M80.8,94.8c1.4-0.2,2.9-0.8,3.4-2.2c0.5-1.4-0.3-2.8-1.6-3.4c-0.7-0.3-1.6,0.3-1.8,1c-0.2,0.8,0.3,1.5,1,1.8
				c-0.1-0.1-0.2-0.1-0.3-0.2c-0.1,0-0.1-0.1-0.1-0.2c0,0,0,0.1,0,0.1c0,0,0-0.1,0-0.1c0,0.2,0,0.2,0,0.1c0-0.2,0.2-0.2,0-0.1
				c0.1-0.1,0,0-0.1,0c0.2-0.1-0.1,0-0.1,0.1c-0.1,0-0.1,0,0,0c0,0-0.1,0-0.1,0c-0.1,0-0.5,0.1-0.2,0.1c-0.8,0.1-1.5,0.6-1.5,1.5
				C79.3,94,79.9,94.9,80.8,94.8L80.8,94.8z"/>
		</g>
	</g>
	<g>
		<g>
			<path class="st0" d="M82.9,103.9c-0.2,0.2-0.4,0.4-0.6,0.7c0,0,0.1,0,0.1,0c0.1,0,0.2,0,0.3-0.1c0.3-0.1,0.6-0.2,0.9-0.4
				c0.6-0.4,0.8-1.1,0.8-1.8c-0.1-1.3-1.1-2.5-2.2-3.1c-1.6-1-3.1,1.6-1.5,2.6c0.2,0.1,0.4,0.3,0.6,0.5c0,0,0.2,0.2,0.1,0.3
				c0,0,0.3-0.9,0.5-0.8c-0.2-0.1-0.9,0.3-1,0.4c-0.4,0.3-0.7,0.7-0.9,1.2C79.5,105,82.4,105.8,82.9,103.9L82.9,103.9z"/>
		</g>
	</g>
	<g>
		<g>
			<path class="st0" d="M80.5,105.2c-0.1,0.4-0.2,0.7-0.2,1.1c0.9-0.1,1.8-0.2,2.7-0.4c-0.2-0.4-0.4-0.9-0.6-1.3
				c-0.3-1.4-2.6-1.5-2.9,0c-0.1,0.4-0.1,0.7-0.2,1.1c0.9-0.1,1.8-0.2,2.7-0.4c-0.8-1.7-2.1-2.8-2-4.4c0.1-0.9,0.4-1.8,0.4-2.9
				c-0.1-2.8,1.7-5.8-1.5-7.4c0.1,0.8,0.2,1.6,0.3,2.3c0.8-0.8,3.5-5.5,0.7-4.7c-0.6-0.2-1.1-0.5-1.7-0.7c2.2,3.2,1.5,4.7,1.5,7.9
				c0,2.3-0.8,4.6-0.3,7c0.4,1.8,2.7,1.1,2.9-0.4c0.1-0.5,0.1-0.9,0.2-1.4c-1,0.1-1.9,0.3-2.9,0.4c0.2,0.6,0.4,1.2,0.6,1.8
				c0.9-0.4,1.8-0.8,2.7-1.1c-0.9-1.8-1.4-3.6-1.5-5.6c-1,0.1-1.9,0.3-2.9,0.4c1.1,3.5,2.7,8.2,2.1,11.3c-0.4,2.6-0.9,4.6,2.5,5.4
				c-0.3-0.7-0.6-1.5-0.9-2.2c-0.7,1.5-2.6,1.4-2.6,3.4c0,2,2.5,2,2.8,3.6c0.5-0.6,1-1.3,1.4-1.9c-1.2,0.1-2.6-0.2-3.7,0.4
				c-0.6-0.1-1.2-0.2-1.8-0.2c0.2,0.3,0.4,0.5,0.7,0.8c0.9,1.1,2.5,0.1,2.5-1.1c0-0.8-1.3-5.9-2.2-5.4c-0.7-0.2-1.4-0.4-2-0.5
				c0.4,0.8,0.8,1.5,1.2,2.3c0.8,1.5,3.3,0.4,2.7-1.1c-0.4-1-0.8-2.1-1.2-3.2c-1.8-0.8-2.1-0.5-1.1,1c0.4,0.9,1.7,1.6,2.5,0.7
				c0.2-0.2,0.3-0.4,0.5-0.6c1.2-1.5-0.9-3.6-2.1-2.1c-0.2,0.2-0.3,0.4-0.5,0.6c0.8,0.2,1.7,0.4,2.5,0.7c-0.6-1.5-1-2.8-2-4.1
				c-0.3-0.4-1-0.5-1.4-0.4c-3.7,1-0.8,6.1,0,8.2c0.9-0.4,1.8-0.8,2.7-1.1c-0.4-0.8-0.8-1.5-1.2-2.3c-0.4-0.8-1.3-0.9-2-0.5
				c-4.6,2.3,0.9,5.2,0.8,8c0.8-0.4,1.7-0.7,2.5-1.1c-0.2-0.3-0.4-0.5-0.7-0.8c-0.4-0.5-1.3-0.5-1.8-0.2c-1.5,0.8-3.1,2-2,3.9
				c1.2,2.1,5.4,1.3,7.2,1.3c1,0,1.6-0.9,1.4-1.9c-0.2-1.2-1.5-1.5-1.7-2.4c-0.3-1,0.6-1,1.2-2.3c0.4-0.8,0.1-1.9-0.9-2.2
				c-1.1-0.3,0.5-2.4,0.5-2.8c0-1-0.7-1.3-0.9-2.4c-0.2-0.7,0.1-1.7,0-2.5c-0.2-2.3-1.5-4.8-2.2-7c-0.5-1.5-3.1-1.4-2.9,0.4
				c0.2,2.5,0.8,4.7,1.9,7.1c0.7,1.5,3.2,0.4,2.7-1.1c-0.2-0.6-0.4-1.2-0.6-1.8c-0.5-1.7-2.7-1.2-2.9,0.4c-0.1,0.5-0.1,0.9-0.2,1.4
				c1-0.1,1.9-0.3,2.9-0.4c-0.3-1.3,1-3.6,1-5.2c0-0.9-0.1-2-0.1-2.7c0.1-2.9-0.8-5.2-2.4-7.6c-0.4-0.6-1-0.9-1.7-0.7
				c-0.2,0.1-0.4,0.1-0.6,0.2c-0.5,0.1-0.9,0.5-1,1c-0.3,1.1,0.3,3.6-0.4,4.3c-0.6,0.7-0.6,1.9,0.3,2.3c0.3,0.1-0.7,3.7-0.7,4.3
				c0,0.5,0.7,1.2,0.7,1.6c0,0.6-0.5,1.1-0.7,1.9c-0.7,3.3,1.6,3.3,2.8,5.8c0.5,1.1,2.5,0.9,2.7-0.4c0.1-0.4,0.1-0.7,0.2-1.1
				c-1,0-1.9,0-2.9,0c0.2,1.1,0.2,1.1,0.9,2c0.7,0.9,2.4,1,2.7-0.4c0.1-0.4,0.2-0.7,0.2-1.1C83.8,104.2,80.9,103.4,80.5,105.2
				L80.5,105.2z"/>
		</g>
	</g>
	<g>
		<g>
			<path class="st0" d="M78.7,51.8c7.7,0,7.7-11.9,0-11.9C71,39.9,71,51.8,78.7,51.8L78.7,51.8z"/>
		</g>
	</g>
	<g>
		<g>
			<path class="st0" d="M99.3,38.3c4.8,3.3,10.2,5.7,15.7,7.4c7.3,2.2,10.5-9.2,3.2-11.5c-4.7-1.4-8.9-3.5-12.9-6.2
				c-2.7-1.8-6.6-0.5-8.1,2.1C95.5,33.1,96.6,36.5,99.3,38.3L99.3,38.3z"/>
		</g>
	</g>
	<g>
		<g>
			<path class="st0" d="M99.2,36.8c1,2.6,2.5,4.3,5.3,5c1.8,0.4,3.7,0.3,5.5,0.4c1.2,0,2.3,0,3.5,0.1c0.6,0,1.2,0,1.7,0
				c0.9,0.2,1.5-0.1,1.9-1c-1.5,0-2,2.1-0.8,2.8c1.2,0.6,2.1,1.1,3.4,1.3c2.8,0.5,2.9,0.1,4.4,2.7c1.8,3,2.9,5.4,5.6,7.7
				c1.2,1,3.4-0.3,2.3-1.8c-1.1-1.5-2.1-2.6-3.6-3.7c-1.1-0.9-2.4,0.6-2.2,1.7c0.4,1.7,0.4,1.7,1.6,3c1.2,1.2,3.2-0.4,2.3-1.8
				c-1.5-2.5-3-4.9-4.6-7.4c-1.1-1.7-3.6-4.3-3.5-6.3c-0.7,0.4-1.5,0.9-2.2,1.3c1.3,0.8,2.2,1.8,2.7,3.2c0.8,1.7,3.4,0.2,2.6-1.5
				c-0.6-1.2-0.6-1.3-1.5-2.3c-1.1-1.3-3.3,0.4-2.3,1.8c2.5,3.4,4.7,6.9,6.7,10.7c0.9-0.5,1.7-1,2.6-1.5c-2.8-5.2-5.5-12-9.9-16
				c-3.8-3.5-9.2-5.4-14.1-6.5c-1.9-0.4-2.7,2.5-0.8,2.9c5.3,1.2,11.2,3.2,14.5,7.7c3,4,5.3,8.9,7.7,13.4c0.9,1.7,3.5,0.2,2.6-1.5
				c-2-3.7-4.2-7.3-6.7-10.7c-0.8,0.6-1.6,1.2-2.3,1.8c0.4,0.6,0.7,1.1,1.1,1.7c0.9-0.5,1.7-1,2.6-1.5c-0.9-1.9-2-3.1-3.7-4.2
				c-1-0.7-2.2,0.2-2.2,1.3c-0.1,2.5,0.5,3.3,2,5.1c2.5,3.1,4.4,6.7,6.5,10.1c0.8-0.6,1.6-1.2,2.3-1.8c-0.3-0.6-0.6-1.1-0.8-1.7
				c-0.7,0.6-1.5,1.1-2.2,1.7c0.8,0.9,1.7,1.8,2.5,2.7c0.8-0.6,1.6-1.2,2.3-1.8c-1.8-1.5-3.3-3.2-4.4-5.4c-0.6-1.2-0.8-3.2-1.8-4.3
				c-1.8-2.2-5.5-1.1-7.8-2.4c-0.3,0.9-0.5,1.8-0.8,2.8c1.9,0.1,3.2-1.9,2.1-3.6c-0.7-1.1-2-1.1-3.2-1.3c-3.7-0.6-12.1,1.6-14-3.3
				C101.4,34.2,98.5,35,99.2,36.8L99.2,36.8z"/>
		</g>
	</g>
	<g>
		<g>
			<path class="st0" d="M117,93.8c-0.1,0-0.2-0.1-0.3-0.1c-0.2-0.1-0.1,0,0,0c-0.1,0-0.1-0.2,0,0c0.1,0.2,0.2,0.3,0.2,0.5
				c0,0.2-0.2,0.3,0.1,0.1c0,0,0.2-0.2,0.1-0.1c-0.1,0.1,0.2-0.1,0.2-0.2c0.7-0.4,1-1.3,0.5-2c-0.4-0.7-1.4-1-2-0.5
				c-1,0.6-1.9,1.6-1.9,2.8c0,1.3,1.1,2.1,2.3,2.4c0.8,0.2,1.6-0.3,1.8-1C118.3,94.9,117.8,94.1,117,93.8L117,93.8z"/>
		</g>
	</g>
	<g>
		<g>
			<path class="st0" d="M118.2,113.8c-0.2,2,1.1,3.7-0.8,5.3c0.3,0.2,0.6,0.5,0.9,0.7c0.4-0.8,0.6-1.6,0.6-2.5
				c-0.4,0.1-0.8,0.1-1.2,0.2c0.2,0.4,0.2,0.7,0,1.1c-0.2,0.6,0.6,0.9,1,0.6c0.3-0.2,0.4-0.7,0.7-0.7c0.6-0.1,1.4,1,1.8,1.4
				c0.2-0.3,0.4-0.7,0.6-1c-0.6-0.2-1-0.5-1.4-1c-0.5-0.6-1.4,0.3-0.8,0.8c0.5,0.6,1.2,1,1.9,1.3c0.6,0.2,0.9-0.6,0.6-1
				c-0.6-0.7-1.7-1.9-2.8-1.9c-0.9,0-0.8,0.8-1.4,1.3c0.3,0.2,0.7,0.4,1,0.6c0.2-0.6,0.2-1.1,0-1.7c-0.2-0.6-1.2-0.5-1.2,0.2
				c0,0.7-0.1,1.3-0.4,1.9c-0.3,0.6,0.4,1.1,0.9,0.7c0.8-0.6,1.3-1.5,1.5-2.5c0.2-1.2-0.4-2.4-0.3-3.6
				C119.4,113.1,118.3,113.1,118.2,113.8L118.2,113.8z"/>
		</g>
	</g>
	<g>
		<g>
			<path class="st0" d="M117,112.6c0.5-1.1,1.9-1.5,1.9-2.9c0-0.9-0.8-1.2-1-1.9c-0.2-1.6,1.2-2.4,1.2-4c0-1.2-0.9-2.1-1-3.3
				c0-0.3,1.5-9.5-0.8-8.2c-0.8,0.5-0.9,2.2-0.9,2.9c0,0.7,2.3,6.1,3.2,4.5c-0.9-0.4-1.8-0.8-2.7-1.1c-0.4,2-0.9,4.2-0.1,6.2
				c0.6,1.4,3.8,3.9,2,0.7c-0.7-1.3-2.8-0.7-2.8,0.8c0.1,3.6,1.6,6.3,3.7,9.2c0.9,1.3,3.2,0.6,2.7-1.1c-0.4-1.7-1.2-2.4-2.8-2.9
				c-0.9-0.3-1.9,0.5-1.9,1.4c0.1,1.6,0.2,3.2,0.3,4.7c0.1,1.9,3.1,1.9,3,0c-0.1-1.6-0.2-3.2-0.3-4.7c-0.6,0.5-1.3,1-1.9,1.4
				c0.2,0.3,0.5,0.6,0.7,0.9c0.9-0.4,1.8-0.8,2.7-1.1c-1.7-2.4-3.2-4.6-3.3-7.7c-0.9,0.3-1.8,0.5-2.8,0.8c1,1.9,3,5.8,5.7,2.7
				c0.5-0.6,0.8-1.7,0.7-2.4c-0.1-0.6-0.6-1-0.9-1.5c-1.3-2.4-2.6-3.3-1.9-6.3c0.4-1.6-1.9-2.7-2.7-1.1c-0.8,1.4-1.6,3.3-0.3,4.7
				c1.1,1.2,2.6,1.2,3.7,0.2c1.9-1.8,0.3-3.8-0.1-5.7c-0.5-2.3,1.4-4.7,0.3-6.9c-0.2-0.4-0.8-0.8-1.3-0.7c-3.8,0.5-4.3,2.5-4.1,5.8
				c0.2,2.4-1.3,3.6-0.9,5.9c0.1,0.6,0.9,1,1,1.5c0.3,2-1,2.4-1,3.9c0,0.7,0.2,1.4,0.4,2.1c0.1,0.1,0.2,0.2,0.2,0.3
				c0.9,0.5,1,0.7,0.2,0.7c-0.1,1.4-1.7,2.1-1.1,3.9c0.9,2.5,4.2,2.7,5.3,0.3C120.4,112.4,117.8,110.9,117,112.6L117,112.6z"/>
		</g>
	</g>
	<g>
		<g>
			<path class="st0" d="M77.2,52.2c0.2-0.6,0.4-1.2,0.6-1.8c-0.9-0.4-1.8-0.8-2.7-1.1c-0.2,0.6-0.5,1.2-0.7,1.9
				c1,0.1,1.9,0.3,2.9,0.4c0-0.4,0-0.8-0.1-1.3c-0.1-1.5-2-2-2.8-0.8c-0.9,0.8-1.7,1.6-2.6,2.4c0.7,0.6,1.5,1.1,2.2,1.7
				c0.5-2.7,1.2-5.3,2.1-7.9c0.5-1.6-1.9-2.6-2.7-1.1c-1.7,2.8-2.9,5.8-3.3,9.1c-0.4,2.6,1.1,7.5-0.9,9.6c0.8,0.4,1.7,0.7,2.5,1.1
				c-0.2-3.8-0.7-10.4,2.8-13c-0.7-0.3-1.5-0.6-2.2-0.9c1.1,2.7-0.8,8.2-1.3,11c-0.2,1.3,1.4,2.7,2.5,1.4c2-2.4,4.2-4.6,6.6-6.6
				c-0.8-0.6-1.6-1.2-2.3-1.8c-0.6,1-1.3,1.9-2.2,2.6c-1.4,1.3,0.6,3.3,2.1,2.1c7.9-6.3,15.2-13.1,22-20.5c1.3-1.4-0.7-3.4-2.1-2.1
				c-6.2,6-12.3,13.1-20,17.2c0.7,0.6,1.5,1.1,2.2,1.7c0.4-0.7,0.7-1.4,1.1-2c1-1.4-1.2-3.1-2.3-1.8c-0.7,0.7-1.4,1.3-2.1,2
				c0.7,0.6,1.5,1.1,2.2,1.7c0.4-0.7,0.8-1.3,1.2-2c-0.7-0.7-1.4-1.4-2-2c-0.4,1.2-1.1,2.2-2.1,3c0.8,0.4,1.7,0.7,2.5,1.1
				c0.1-0.2,0.2-0.4,0.2-0.6c-0.8-0.5-1.7-1-2.5-1.4c-0.4,0.7-0.7,1.4-1.1,2.1c0.9,0.3,1.8,0.5,2.8,0.8c0-0.6,0-1.3,0-1.9
				c0-1.8-2.3-1.9-2.9-0.4c-0.6,1.4-0.7,2.6-0.6,4.1c0.1,1.3,2.1,2.2,2.8,0.8c0.2-0.5,0.5-1,0.7-1.6c0.6-1.4-1.1-3.2-2.3-1.8
				c-0.4,0.4-0.7,0.8-1.1,1.2c0.8,0.2,1.7,0.4,2.5,0.7c-1.3-4.4,1.3-10.3,3-14.3c0.3-0.8-0.3-1.6-1-1.8c-0.4-0.1-0.8-0.2-1.1-0.3
				c0.2,0.8,0.4,1.7,0.7,2.5c1.5-1.7,3-3.3,4.7-4.8c1.2-1.1-0.4-3.3-1.8-2.3c-0.9,0.6-1.8,1.3-2.7,1.9c0.5,0.9,1,1.7,1.5,2.6
				c2.3-1.7,4.7-3.4,7-5.1c-0.6-0.8-1.2-1.6-1.8-2.3c-1.6,1.5-2.8,2.3-4.7,3.1c0.6,0.8,1.2,1.6,1.8,2.3c4.5-3.8,9.8-5.9,15.6-6.3
				c-0.1-1-0.3-1.9-0.4-2.9c-2.3,0.7-4.5,1.2-6.9,1.6c0.6,0.6,1.2,1.2,1.8,1.8c0.4-1.5,7.9-1.6,8.9-1.6c1.9,0,1.9-3,0-3
				c-3.1,0-10.8,0-11.7,3.8c-0.3,1.2,0.7,2,1.8,1.8c2.4-0.4,4.6-0.9,6.9-1.6c1.6-0.5,1.3-3-0.4-2.9C90.8,29.7,85,32,79.8,36.4
				c-1.4,1.2,0.4,3,1.8,2.3c2.1-0.9,3.7-2.1,5.3-3.6c1.2-1.1-0.4-3.4-1.8-2.3c-2.3,1.7-4.7,3.4-7,5.1c-1.5,1.1-0.1,3.7,1.5,2.6
				c0.9-0.6,1.8-1.3,2.7-1.9c-0.6-0.8-1.2-1.6-1.8-2.3c-1.6,1.5-3.2,3.1-4.7,4.8c-0.7,0.8-0.5,2.1,0.7,2.5c0.4,0.1,0.8,0.2,1.1,0.3
				c-0.3-0.6-0.7-1.2-1-1.8c-1.8,4.4-4.4,11-3,15.9c0.3,1,1.7,1.5,2.5,0.7c0.4-0.4,0.7-0.8,1.1-1.2c-0.8-0.6-1.6-1.2-2.3-1.8
				c-0.2,0.5-0.5,1-0.7,1.6c0.9,0.3,1.8,0.5,2.8,0.8c-0.2-1.2,0-2.3,0.5-3.3c-1-0.1-1.9-0.3-2.9-0.4c0,0.6,0,1.3,0,1.9
				c0,1.5,1.9,1.9,2.8,0.8c0.9-1.3,0.9-1.3,1.4-2.8c0.5-1.4-1.5-2.6-2.5-1.4c-0.9,1-1,1.4-1.1,2.7c-0.1,1.3,1.6,1.9,2.5,1.1
				c1.2-1.1,1.9-2.1,2.5-3.6c0.5-1.2-0.7-3-2-2c-1.5,1.1-2.2,1.9-2.6,3.8c-0.2,1.1,1.1,2.5,2.2,1.7c1.5-1.1,1.5-1.1,2.7-2.5
				c-0.8-0.6-1.6-1.2-2.3-1.8c-0.9,1.3-0.9,1.3-1.4,2.7c-0.5,1.3,1.1,2.3,2.2,1.7c8-4.2,14.2-11.5,20.6-17.6
				c-0.7-0.7-1.4-1.4-2.1-2.1c-6.8,7.4-14.1,14.2-22,20.5c0.7,0.7,1.4,1.4,2.1,2.1c1.1-1,1.9-2,2.7-3.2c1-1.5-1.1-2.8-2.3-1.8
				c-2.4,2-4.6,4.2-6.6,6.6c0.8,0.5,1.7,1,2.5,1.4c0.6-3.7,2.8-9,1.3-12.6c-0.3-0.8-1.3-1.5-2.2-0.9c-4.6,3.5-4.6,10.3-4.2,15.6
				c0.1,1.2,1.6,2,2.5,1.1c1.7-1.8,1.8-3.5,1.7-6c-0.2-4.9,0.4-8.9,2.9-13.2c-0.9-0.4-1.8-0.8-2.7-1.1c-0.9,2.6-1.6,5.2-2.1,7.9
				c-0.3,1.3,1,2.3,2.2,1.7c1.7-0.9,2.7-1.8,3.7-3.5c-0.9-0.3-1.8-0.5-2.8-0.8c0,0.4,0,0.8,0.1,1.3c0.1,1.7,2.3,2,2.9,0.4
				c0.2-0.6,0.5-1.2,0.7-1.9c0.6-1.6-2-2.7-2.7-1.1c-0.5,1-0.6,1.4-0.9,2.5C73.8,53.3,76.7,54.1,77.2,52.2L77.2,52.2z"/>
		</g>
	</g>
	<g>
		<g>
			<path class="st0" d="M86.1,49.3c0.3-0.3,1.5-1.2,2-1.6c1-0.9,2-1.7,2.9-2.6c1.8-1.6,3.7-3.3,5.5-4.9c2.4-2.1,2.2-6.2,0-8.4
				c-2.4-2.4-6-2.1-8.4,0c-4.1,3.6-9.1,7.1-12.4,11.5c-1.9,2.6-0.4,6.6,2.1,8.1C81,53.2,84.2,51.9,86.1,49.3L86.1,49.3z"/>
		</g>
	</g>
	<g>
		<g>
			<g>
				<g>
					<path class="st1" d="M117.3,117.3c0,0.4,0.1,0.9,0.1,1.3c0,0.2,0,0.4,0,0.6c0,0.1,0,0.5,0.1,0.4c0.1-0.1,0.3-0.1,0.4-0.2
						c0,0-0.1,0-0.1,0c-0.8,0-0.8,1.2,0,1.2c0.6,0,0.8-0.5,0.8-1c0-0.8-0.1-1.6-0.2-2.4C118.4,116.6,117.2,116.6,117.3,117.3
						L117.3,117.3z"/>
				</g>
			</g>
			<g>
				<g>
					<g>
						<path class="st2" d="M99.6,40.1c2.2,2.7,6.6,3.6,9.7,4.6c4.6,1.4,9.2,2.1,13.9,2.4c0.8,0,0.8-1.1,0-1.2
							c-4.1-0.3-8.1-0.9-12-1.9c-3.3-0.9-8.6-2-10.8-4.7C100,38.7,99.2,39.5,99.6,40.1L99.6,40.1z"/>
					</g>
				</g>
				<g>
					<g>
						<path class="st2" d="M70.6,52.2c3.7-11.5,12.7-21.1,24.9-23.4c12.4-2.3,28.7,4.7,32.1,17.7c0.2,0.7,1.3,0.4,1.1-0.3
							c-3.5-13-19.2-20.4-31.8-18.8c-13.4,1.7-23.5,12-27.5,24.5C69.2,52.6,70.4,52.9,70.6,52.2L70.6,52.2z"/>
					</g>
				</g>
				<g>
					<g>
						<path class="st2" d="M116.5,90.6c-3.8,1-3.6,6.6,0.4,7.1c0.7,0.1,1.1-1,0.3-1.1c-2.8-0.4-3.1-4.1-0.4-4.8
							C117.5,91.6,117.2,90.4,116.5,90.6L116.5,90.6z"/>
					</g>
				</g>
				<g>
					<g>
						<path class="st2" d="M116.4,97.1c-1.6,0.1-2.8,1.4-3,3c-0.2,2,1.3,3.5,3,4.3c0.7,0.3,1.3-0.7,0.6-1c-1-0.5-2.1-1.3-2.3-2.5
							c-0.3-1.2,0.5-2.5,1.8-2.6C117.1,98.3,117.1,97.1,116.4,97.1L116.4,97.1z"/>
					</g>
				</g>
				<g>
					<g>
						<path class="st2" d="M116.5,104.1c-3.9-0.3-4.5,7.2-0.2,6.7c0.8-0.1,0.8-1.3,0-1.2c-2.8,0.3-2.1-4.5,0.2-4.4
							C117.3,105.4,117.3,104.2,116.5,104.1L116.5,104.1z"/>
					</g>
				</g>
				<g>
					<g>
						<path class="st2" d="M116.3,110.3c-2.1-0.1-3.1,2-2.7,3.8c0.5,1.9,2.3,3,4.1,2.8c0.8-0.1,0.4-1.2-0.3-1.1
							c-1.1,0.1-2.1-0.6-2.6-1.6c-0.5-1.1-0.1-2.7,1.4-2.6C117.1,111.5,117.1,110.3,116.3,110.3L116.3,110.3z"/>
					</g>
				</g>
				<g>
					<g>
						<path class="st2" d="M119.5,90.4c2.3,0.7,0.8,3.4-0.3,4.4c-0.5,0.5,0.3,1.4,0.8,0.8c1-1,1.9-2.3,1.8-3.8
							c-0.1-1.2-0.9-2.2-2-2.6C119.1,89,118.8,90.2,119.5,90.4L119.5,90.4z"/>
					</g>
				</g>
				<g>
					<g>
						<path class="st2" d="M118.8,96.1c2.7,1.4,2.9,4.7,0.5,6.6c-0.6,0.5,0.2,1.3,0.8,0.8c2.9-2.3,2.5-6.7-0.8-8.5
							C118.8,94.7,118.2,95.7,118.8,96.1L118.8,96.1z"/>
					</g>
				</g>
				<g>
					<g>
						<path class="st2" d="M119.4,104.3c0.9,0.4,1.9,0.9,2.5,1.8c0.7,1.2,0.3,3-1.3,2.8c-0.8-0.1-0.8,1.1,0,1.2
							c1.7,0.2,3-1.3,2.9-2.9c-0.1-2-1.7-3.2-3.4-3.9C119.3,103,118.7,104,119.4,104.3L119.4,104.3z"/>
					</g>
				</g>
				<g>
					<g>
						<path class="st2" d="M119.7,110.8c2.3,0.6,3,3.1,1.7,5c-0.4,0.6,0.6,1.2,1,0.6c1.8-2.5,0.5-5.9-2.4-6.7
							C119.2,109.4,118.9,110.6,119.7,110.8L119.7,110.8z"/>
					</g>
				</g>
				<g>
					<g>
						<path class="st2" d="M117,117c-0.3,1.3-0.5,2.6-0.8,3.8c-0.1,0.3,0.1,0.6,0.4,0.7c1,0.3,1.7-0.4,2.2-1.2
							c0.5-0.7,0.8-0.9,1.4-0.2c0.3,0.3,0.6,0.7,1,0.9c0.7,0.3,1.3-0.7,0.6-1c-0.8-0.4-1.2-1.5-2.2-1.5c-0.5,0-0.9,0.2-1.2,0.5
							c-0.4,0.4-0.9,1.7-1.6,1.6c0.1,0.2,0.3,0.5,0.4,0.7c0.3-1.3,0.5-2.6,0.8-3.8C118.4,116.6,117.2,116.3,117,117L117,117z"/>
					</g>
				</g>
				<g>
					<g>
						<path class="st2" d="M120,116.2c0.2,1.7,0.7,3.2,1.6,4.6c0.4,0.6,1.4,0,1-0.6c-0.8-1.2-1.3-2.6-1.5-4
							C121.1,115.4,119.9,115.4,120,116.2L120,116.2z"/>
					</g>
				</g>
				<g>
					<g>
						<path class="st2" d="M70.6,66.4c10.1-8.3,20.8-16.2,29-26.5c0.5-0.6-0.4-1.4-0.8-0.8c-8.2,10.2-18.9,18.1-29,26.5
							C69.1,66,70,66.9,70.6,66.4L70.6,66.4z"/>
					</g>
				</g>
				<g>
					<g>
						<path class="st2" d="M70.4,66.2c-1.5-2.1-1.1-6.1-0.8-8.6c0.2-2.9,0.9-5.6,1.9-8.3c0.3-0.7-0.9-1-1.1-0.3
							c-1.2,3.2-1.9,6.5-2,9.9c-0.1,2.4-0.4,5.9,1.1,7.9C69.8,67.4,70.8,66.8,70.4,66.2L70.4,66.2z"/>
					</g>
				</g>
				<g>
					<g>
						<path class="st2" d="M79.7,87.7c-1.7,0-3.4,1.1-3.6,2.9c-0.2,1.7,1.1,3.2,2.8,3.3c0.8,0,0.8-1.1,0-1.2c-1-0.1-1.8-1.1-1.6-2.1
							c0.2-1.1,1.4-1.7,2.4-1.6C80.4,88.9,80.4,87.7,79.7,87.7L79.7,87.7z"/>
					</g>
				</g>
				<g>
					<g>
						<path class="st2" d="M78.5,93c-2.9,0.7-2.9,4.6-0.1,5.5c0.7,0.2,1-0.9,0.3-1.1c-1.7-0.5-1.5-2.8,0.1-3.2
							C79.6,94,79.2,92.8,78.5,93L78.5,93z"/>
					</g>
				</g>
				<g>
					<g>
						<path class="st2" d="M78.6,97.7c-1.3,0.6-2.6,1.6-2.7,3.1c-0.1,1.2,0.7,2.5,2,2.7c0.7,0.1,1.1-1,0.3-1.1c-0.9-0.1-1.3-1.1-1-2
							c0.3-0.9,1.2-1.4,2-1.7C79.9,98.4,79.3,97.4,78.6,97.7L78.6,97.7z"/>
					</g>
				</g>
				<g>
					<g>
						<path class="st2" d="M78.5,103c-1.4,0.2-2.6,1.2-2.7,2.6c-0.1,1.4,1,2.7,2.4,3c0.7,0.1,1.1-1,0.3-1.1c-1.9-0.4-2-3.1,0-3.3
							C79.3,104.1,79.3,102.9,78.5,103L78.5,103z"/>
					</g>
				</g>
				<g>
					<g>
						<path class="st2" d="M78.8,108.1c-1.6-0.1-3.4,1.7-3.4,3.3c-0.1,1.9,2.4,2.8,3.9,3.1c0.7,0.1,1.1-1,0.3-1.1
							c-0.9-0.2-2.2-0.5-2.8-1.3c-0.9-1.1,0.9-2.8,2-2.7C79.6,109.4,79.6,108.2,78.8,108.1L78.8,108.1z"/>
					</g>
				</g>
				<g>
					<g>
						<path class="st2" d="M79.5,114.1c-1.6-0.3-3.3,0.8-3.6,2.5c-0.2,1.8,1.3,3.2,3.1,3.2c0.8,0,0.8-1.2,0-1.2
							c-1,0-2.1-0.9-1.9-1.9c0.2-0.9,1.2-1.6,2.1-1.4C79.9,115.4,80.2,114.2,79.5,114.1L79.5,114.1z"/>
					</g>
				</g>
				<g>
					<g>
						<path class="st2" d="M82.5,119.7c1.3,0.2,3,0.1,3.2-1.6c0.1-1.7-1.2-3.2-2.6-4c-0.7-0.4-1.3,0.7-0.6,1
							c0.9,0.5,1.5,1.2,1.9,2.1c0.2,0.5,0.3,1.1-0.3,1.3c-0.4,0.1-0.9,0-1.3,0C82.1,118.4,81.8,119.5,82.5,119.7L82.5,119.7z"/>
					</g>
				</g>
				<g>
					<g>
						<path class="st2" d="M82.7,114.9c1.4-0.2,3.2-0.6,3.3-2.3c0.2-1.8-1.6-2.8-3.1-3.3c-0.7-0.3-1,0.9-0.3,1.1
							c0.9,0.3,2.2,0.9,2.2,2c0,1-1.3,1.2-2.1,1.3C81.9,113.8,81.9,115,82.7,114.9L82.7,114.9z"/>
					</g>
				</g>
				<g>
					<g>
						<path class="st2" d="M82.5,110.4c3.1-1,3.6-5,0.8-6.7c-0.7-0.4-1.2,0.6-0.6,1c1.9,1.2,1.6,3.9-0.5,4.6
							C81.4,109.5,81.7,110.6,82.5,110.4L82.5,110.4z"/>
					</g>
				</g>
				<g>
					<g>
						<path class="st2" d="M82.8,104.5c1.2-0.2,2-1.4,2-2.7c0-1.5-1.2-2.7-2.3-3.6c-0.6-0.5-1.4,0.4-0.8,0.8
							c0.7,0.5,1.4,1.1,1.8,1.9c0.4,0.9,0.2,2.1-0.9,2.3C81.7,103.5,82,104.6,82.8,104.5L82.8,104.5z"/>
					</g>
				</g>
				<g>
					<g>
						<path class="st2" d="M81.7,98.8c2.8-0.3,3.7-3.7,1.3-5.3c-0.6-0.4-1.2,0.6-0.6,1c1.3,0.9,0.9,2.9-0.7,3.1
							C80.9,97.6,80.9,98.8,81.7,98.8L81.7,98.8z"/>
					</g>
				</g>
				<g>
					<g>
						<path class="st2" d="M82.3,94.3c1-0.4,2.1-1,2.4-2.2c0.2-1-0.2-2.1-1.1-2.5c-0.7-0.3-1.3,0.7-0.6,1c0.5,0.2,0.7,0.8,0.5,1.4
							c-0.3,0.6-0.9,1-1.5,1.2C81.3,93.3,81.6,94.5,82.3,94.3L82.3,94.3z"/>
					</g>
				</g>
				<g>
					<g>
						<path class="st2" d="M80,88.8c1,0.3,1.8,0.8,2.5,1.5c0.5,0.5,1.4-0.3,0.8-0.8c-0.8-0.9-1.9-1.5-3-1.8
							C79.6,87.4,79.3,88.6,80,88.8L80,88.8z"/>
					</g>
				</g>
				<g>
					<g>
						<path class="st2" d="M116.2,91.8c1.1-0.8,2.2-1.4,3.4-2c0.7-0.3,0.1-1.4-0.6-1c-1.2,0.6-2.3,1.3-3.4,2
							C115,91.2,115.6,92.2,116.2,91.8L116.2,91.8z"/>
					</g>
				</g>
				<g>
					<g>
						<path class="st2" d="M79.3,121C79.3,121,79.4,121,79.3,121c0.3,0,0.5-0.2,0.6-0.4c0.1-0.2,0-0.4-0.1-0.6
							c-0.2-0.2-0.4-0.3-0.7-0.3c-1,0.2-1.1,1.9-1,2.7c0,0.3,0.5,0.5,0.7,0.4c1-0.3,1.9-0.8,2.7-1.6c0.5-0.6-0.3-1.4-0.8-0.8
							c-0.6,0.6-1.3,1.1-2.2,1.3c0.2,0.1,0.5,0.3,0.7,0.4c0-0.2,0-0.5,0-0.7c0-0.1,0.1-0.2,0.1-0.3c0-0.1,0.2-0.2,0.1-0.2
							c-0.2-0.1-0.4-0.2-0.7-0.3c0,0,0,0,0,0.1c0-0.2,0-0.3-0.1-0.5c0,0,0,0.1,0,0.1c0.2-0.1,0.4-0.3,0.6-0.4c0,0,0,0-0.1,0
							C78.6,119.8,78.6,121,79.3,121L79.3,121z"/>
					</g>
				</g>
				<g>
					<g>
						<path class="st2" d="M81.2,120.8c0.5,0.8,1.2,1.5,2,2c0.3,0.2,0.8,0,0.9-0.4c0.1-0.7-0.1-1.2-0.5-1.7
							c-0.3-0.5-0.9-0.9-0.8-1.6c0.1-0.8-1.1-0.8-1.2,0c-0.1,0.6,0.2,1.1,0.5,1.6c0.3,0.4,0.9,0.9,0.8,1.4c0.3-0.1,0.6-0.2,0.9-0.4
							c-0.7-0.4-1.2-0.9-1.6-1.6C81.8,119.5,80.8,120.1,81.2,120.8L81.2,120.8z"/>
					</g>
				</g>
				<g>
					<g>
						<path class="st2" d="M79,88c-1.1-0.1-1.8-1.3-1.3-2.3c0.3-0.7-0.7-1.3-1-0.6c-0.9,1.9,0.3,3.9,2.3,4.1
							C79.8,89.2,79.8,88,79,88L79,88z"/>
					</g>
				</g>
				<g>
					<g>
						<path class="st2" d="M121,90.3c0.3-0.5,0.5-1,0.6-1.6c0.1-0.8-1.1-0.8-1.2,0c0,0.4-0.2,0.7-0.4,1
							C119.6,90.3,120.6,90.9,121,90.3L121,90.3z"/>
					</g>
				</g>
				<g>
					<g>
						<path class="st2" d="M122.8,46.8c2.2,4.8,4.3,9,9.1,11.7c0.7,0.4,1.3-0.6,0.6-1c-4.6-2.6-6.5-6.7-8.6-11.3
							C123.5,45.5,122.5,46.1,122.8,46.8L122.8,46.8z"/>
					</g>
				</g>
				<g>
					<g>
						<path class="st2" d="M124.3,46.5c0-0.1,0-0.1,0-0.2c0-0.8-1.2-0.8-1.2,0c0,0.1,0,0.1,0,0.2C123.1,47.3,124.3,47.3,124.3,46.5
							L124.3,46.5z"/>
					</g>
				</g>
				<g>
					<g>
						<path class="st2" d="M132.9,57.7c0.3-4.5-2.1-9.8-4.7-13.4c-0.4-0.6-1.5,0-1,0.6c2.4,3.5,4.8,8.5,4.5,12.8
							C131.7,58.4,132.9,58.4,132.9,57.7L132.9,57.7z"/>
					</g>
				</g>
			</g>
		</g>
	</g>
	<g>
		<g>
			<path class="st3" d="M72.1,61.4c2.2-9.8,4.8-20.2,13.7-26.1c0.6-0.4,0-1.5-0.6-1c-9.2,6.1-12,16.6-14.3,26.8
				C70.8,61.8,72,62.1,72.1,61.4L72.1,61.4z"/>
		</g>
	</g>
	<g>
		<g>
			<path class="st3" d="M72.4,61.8c7.4-6.3,14.2-13.2,20.3-20.8c0.5-0.6-0.4-1.4-0.8-0.8C85.8,47.8,79,54.7,71.6,61
				C71,61.5,71.8,62.3,72.4,61.8L72.4,61.8z"/>
		</g>
	</g>
	<g>
		<g>
			<path class="st3" d="M103.2,38.4c5.8,2.8,12,4.3,18.4,4.5c0.8,0,0.8-1.2,0-1.2c-6.3-0.1-12.2-1.5-17.8-4.3
				C103.1,37.1,102.5,38.1,103.2,38.4L103.2,38.4z"/>
		</g>
	</g>
	<g>
		<g>
			<path class="st3" d="M126.2,47.5c-0.8,2.5,1.6,4.2,3,5.9c0.5,0.6,1.3-0.3,0.8-0.8c-1.1-1.3-3.3-2.7-2.6-4.7
				C127.5,47.1,126.4,46.8,126.2,47.5L126.2,47.5z"/>
		</g>
	</g>
	<g>
		<g>
			<path class="st3" d="M79.3,89.6c-0.7,0.2-1.1,0.9-0.8,1.5c0.3,0.6,1,0.7,1.5,0.5c0.7-0.3,0.1-1.3-0.6-1c0.1-0.1,0.2,0,0.2,0.2
				C80.4,90.6,80,89.5,79.3,89.6L79.3,89.6z"/>
		</g>
	</g>
	<g>
		<g>
			<path class="st3" d="M80.3,111.9c-0.4,0-0.9,0-1.2-0.2c-0.1-0.1-0.4-0.4-0.2-0.5c0.6-0.4,0-1.5-0.6-1c-0.7,0.5-0.8,1.3-0.4,2
				c0.5,0.8,1.5,0.9,2.4,1C81.1,113.1,81.1,111.9,80.3,111.9L80.3,111.9z"/>
		</g>
	</g>
	<g>
		<g>
			<path class="st3" d="M82.5,108c0.4-1.1-0.2-2.4-1.2-2.8c-0.7-0.3-1.3,0.7-0.6,1c0.6,0.3,0.9,0.8,0.7,1.5
				C81.1,108.4,82.3,108.7,82.5,108L82.5,108z"/>
		</g>
	</g>
	<g>
		<g>
			<path class="st3" d="M79.8,101.3c-0.3-0.1-0.4-0.4,0-0.5c0.7-0.2,0.4-1.4-0.3-1.1c-1.3,0.4-1.5,2.1-0.3,2.7
				C79.9,102.6,80.5,101.6,79.8,101.3L79.8,101.3z"/>
		</g>
	</g>
	<g>
		<g>
			<path class="st3" d="M79.3,116.1c-0.4,0.1-0.8,0.5-0.7,1c0.1,0.5,0.6,0.8,1.1,0.7c0.8-0.1,0.8-1.3,0-1.2c0,0,0,0-0.1,0
				c0.1,0.2,0.1,0.4,0.2,0.6c0,0-0.1,0.1-0.1,0.1C80.4,117.1,80.1,116,79.3,116.1L79.3,116.1z"/>
		</g>
	</g>
	<g>
		<g>
			<path class="st3" d="M118.1,114.2c-0.5,0-0.9-0.4-0.8-0.9c0.2-0.7-1-1.1-1.1-0.3c-0.2,1.2,0.7,2.4,2,2.4
				C118.9,115.4,118.9,114.2,118.1,114.2L118.1,114.2z"/>
		</g>
	</g>
	<g>
		<g>
			<path class="st3" d="M118.4,109.4c1.2-0.3,1.9-1.6,1.5-2.7c-0.3-0.7-1.4-0.4-1.1,0.3c0.2,0.6-0.1,1.1-0.7,1.3
				C117.4,108.4,117.7,109.5,118.4,109.4L118.4,109.4z"/>
		</g>
	</g>
	<g>
		<g>
			<path class="st3" d="M118.4,102.6c0.9-1.2,1.3-2.7,1.1-4.3c-0.1-0.8-1.3-0.8-1.2,0c0.2,1.3-0.1,2.6-0.9,3.7
				C116.9,102.6,118,103.2,118.4,102.6L118.4,102.6z"/>
		</g>
	</g>
	<g>
		<g>
			<path class="st3" d="M117.1,94.6C117.3,94.7,117.1,94.7,117.1,94.6c0.1-0.1,0.1-0.2,0.2-0.2c0.1-0.2,0.4-0.2,0.5-0.3
				c0.4-0.2,0.8-0.5,1-0.9c0.4-0.7-0.6-1.3-1-0.6c-0.2,0.3-0.5,0.4-0.8,0.6c-0.3,0.2-0.6,0.4-0.8,0.7c-0.4,0.6-0.3,1.3,0.3,1.8
				C117.2,96.1,117.7,95.1,117.1,94.6L117.1,94.6z"/>
		</g>
	</g>
</g>
</svg>
