<?xml version="1.0" encoding="utf-8"?>
<!-- Generator: Adobe Illustrator 21.0.2, SVG Export Plug-In . SVG Version: 6.00 Build 0)  -->
<svg version="1.1" id="Layer_1" xmlns="http://www.w3.org/2000/svg" xmlns:xlink="http://www.w3.org/1999/xlink" x="0px" y="0px"
	 viewBox="0 0 200 600" style="enable-background:new 0 0 200 600;" xml:space="preserve">
<style type="text/css">
	.st0{fill:#FFE329;}
	.st1{fill:#F9EE53;}
</style>
<g>
	<path class="st0" d="M119.4,90.7c-0.7,0.2-0.8,0.6-1.4,0.8c-0.1,0-0.1,0.1-0.1,0.2c0,0,0,0,0,0c-0.2-0.1-0.4-0.2-0.6-0.2
		c-1.7,0.6-3.7,0.8-5.4,1.3c-0.3,0.1-0.5,0.5-0.4,0.8c0.1,0.3,0.4,0.4,0.6,0.4c0.7-0.2,1.4-0.4,2.1-0.7c0.3-0.1,0.5-0.4,0.4-0.8
		c-0.1-0.2-0.3-0.4-0.5-0.4h-0.7l0.3,1.1c3-1.3,5.9-2.8,8.7-4.3l-0.6-1c-1,0.7-2,1.3-3.1,1.8c-0.6,0.3-0.2,1.2,0.5,1.1
		c2.5-0.4,4.8-2.7,6.8-4.1c0.6-0.4,0-1.5-0.6-1c-1.9,1.3-4.2,3.5-6.5,3.9l0.5,1.1c1.1-0.6,2.1-1.2,3.1-1.8c0.2-0.2,0.2-0.6,0-0.8
		c-0.2-0.2-0.4-0.2-0.6-0.2c-2.8,1.6-5.8,3-8.7,4.3c-0.6,0.3-0.2,1.1,0.3,1.1h0.7l-0.2-1.2c-0.7,0.3-1.4,0.5-2.1,0.7l0.3,1.1
		c1.2-0.4,2.4-0.7,3.7-1c0.6-0.1,1.4,0,1.8,0c0.8-0.2,1.2-1,2-1.2c0.3-0.1,0.5-0.5,0.3-0.8C119.9,90.8,119.7,90.7,119.4,90.7
		L119.4,90.7z"/>
	<path class="st0" d="M80.7,50.2c0.3-0.4,0.7-0.7,1.1-1.1L73.6,41l-1.3,1.8c-4.1,5.6,4.7,11.9,9.4,7.3c1.8-2,3.8-3.9,5.9-5.7
		c2.5-1.7,5.2-3.2,8-4.3c2.9-1.3,3.6-5.6,2.1-8.1c-1.8-3-5.2-3.5-8.2-2.1c-6.5,2.9-11.3,6.8-16.3,11.8l9.3,7.2l1.3-1.8
		c3.4-4.7-3.5-11.7-8.2-8.2c-2,1.5-3.8,3.3-5.3,5.3c-1.9,2.6-0.4,6.7,2.1,8.2C75.6,54.1,78.8,52.8,80.7,50.2L80.7,50.2z"/>
	<path class="st0" d="M95.4,32.9c-0.2-0.3,1.1-1.3,1.3-1.6c0.4-0.5,0.7-1.1,0.8-1.7c0.2-1.1-0.3-2.3-1.3-2.9l-0.8,2.8
		c2.4,0.2,4.9,0.8,7.1,1.7c1.6,0.5,2.3-1.4,1.4-2.5c-0.8-0.8-1.7-1.5-2.8-1.8c-1.8-0.7-2.6,2.2-0.8,2.9c0.6,0.2,1.1,0.5,1.5,1
		l1.4-2.5c-2.5-1-5.2-1.6-7.9-1.8c-0.8,0-1.5,0.7-1.5,1.5c0,0.5,0.3,1,0.7,1.2c-0.4-0.3-1.9,1.9-2.1,2.4c-0.4,0.9-0.3,1.9,0.2,2.7
		C93.7,36.1,96.3,34.6,95.4,32.9L95.4,32.9z"/>
	<path class="st0" d="M73.4,86.2l2.7,2.9l2.1-2.1c-1.3-1.2-2.4-2.5-3.5-3.9l-0.9,2.2c-0.6,0.1,0.7,1.2,0.9,1.5
		c0.6,0.7,1.2,1.3,1.8,1.9c1.4,1.2,2.9,2.2,4.5,3.2v-2.6c-0.6,0.4-2.3-0.2-2.9-0.3l-0.8,2.9c0.9,0.2,1.7,0.4,2.6,0.7
		c1.8,0.6,2.6-2.3,0.8-2.9c-0.8-0.3-1.7-0.5-2.6-0.7c-1.9-0.3-2.7,2.4-0.8,2.9c1.4,0.4,3.9,1,5.2,0c0.7-0.4,0.9-1.4,0.5-2.1
		c-0.1-0.2-0.3-0.4-0.5-0.5c-2-1.2-3.9-2.7-5.5-4.5c-1-1.1-2.3-2.8-4-2.4c-0.8,0.2-1.2,1.1-1,1.9c0,0.1,0.1,0.2,0.2,0.4
		c1.1,1.6,2.5,3.1,3.9,4.5c0.6,0.5,1.6,0.5,2.1-0.2c0.5-0.6,0.5-1.4,0-1.9l-2.7-2.9C74.2,82.7,72.1,84.8,73.4,86.2L73.4,86.2z"/>
	<path class="st0" d="M73.3,89.3c1.1,1.5,2.2,2.9,3.5,4.2l1.8-2.3c-3.6-2.7-6.4-3.9-8-8.7c-1.5-4.1-1.4-8.5,0.1-12.5l-2.9-0.8
		c-0.5,3-1,6.1,0,9.1c1.1,3.4,3.7,6.1,5,9.6l2.7-1.2c-1-1.4-1.9-2.9-2.7-4.4c-0.8-1.7-3.4-0.2-2.6,1.5c0.8,1.8,1.9,3.4,3.3,4.7
		c1,1,3.1,0,2.5-1.4c-1.3-3.4-2.3-6.8-3-10.4l-2.7,1.2c1,2.3,1.6,4.8,1.8,7.4l2.9-0.4c-1.8-5.8-2.6-11.9-2.4-18h-3l0.5,6.5h3
		c-0.8-7.6,1.7-14.4,4.5-21.3c0.6-1.6-2-2.6-2.7-1.2L71.3,58l2.8,0.8c-0.2-2.4,0.2-4.8,1.2-7.1c0.6-1.6-1.9-2.6-2.7-1.2L70,55.1
		l2.8,0.8c0-1.7,0.2-3.4,0.7-5c0.2-0.8-0.3-1.6-1.1-1.8c-0.6-0.1-1.2,0.1-1.6,0.6l-1.1,1.6l2.7,1.2c0.3-1.8,0.6-3.6,0.7-5.4
		c0-0.8-0.7-1.5-1.5-1.5c-0.3,0-0.5,0.1-0.7,0.2c-3.5,2.4-4.3,8.2-4.7,12.1c-0.8,7.2,0.3,14.5,0.5,21.7l2.9-0.4
		c-3.2-8.2-2.2-17.4,2.6-24.7l-2.7-1.2l-2.6,13.3l2.9,0.4c0.3-2.7,0.9-5.3,2-7.8l-2.9-0.4c-0.1,2-0.4,3.9-0.8,5.8l2.9,0.4
		c-0.1-1.7,0.4-3.3,1.5-4.7l-2.8-0.8c-0.1,2.5-0.5,5-1.1,7.4l2.9,0.4c0.1-1.6,0.5-3.2,1-4.8l-2.9-0.8l-1.9,8.4l2.9,0.4
		c-0.1-2.1-0.5-4.3-1.3-6.3c-1-3.2-1.9-4.8,0.5-7.7c1.2-1.5,3.5-3.5,5.5-3.5l-1.5-1.5c0.1,1.5-0.5,1.8,0.1,3.1
		c0.2,0.6,0.8,1.1,1.4,1.1c2.4-0.1,4.4-2.6,6.2-4.1l-2.1-2.1l-1.9,2.1c-1.1,1.2,0.3,3.4,1.8,2.3c2.4-1.7,4.7-3.5,6.9-5.3L84,47
		l-2.1,2.3l1.8,2.3c2.1-2,4.4-3.9,6.8-5.6l-1.8-2.3l-3.2,3.1c-1.2,1.1,0.4,3.3,1.8,2.4L96,43l-1.8-2.3c-1.3,1.3-2.8,2.4-4.4,3.3
		l2.2,0.9c-0.2-1,6.8-5.3,7.9-6.4l-2.1-2.1l-4,4.2c-1.1,1.2,0.4,3.4,1.8,2.3c3-2.1,5.8-4.3,8.5-6.8c1.5-1.3-0.6-3.3-2.1-2.1
		l-2.3-0.3c-1.8,0.5-1.1,3.4,0.8,2.9c4.4-1.3,1.1-7-2.2-4.3c-1.2,1.1-1.3,2.9-0.3,4.1c0.1,0.1,0.1,0.1,0.2,0.2
		c1.8,2,4.1,0.9,5.9-0.5l-2.1-2.1c-2.6,2.2-5.2,4.3-7.9,6.3l1.8,2.3l4-4.2c0.5-0.6,0.5-1.6-0.2-2.1c-0.6-0.5-1.4-0.5-1.9,0
		c-3,2.8-9.5,4.4-8.7,9.3c0.2,0.8,1.1,1.3,1.9,1c0.1,0,0.2-0.1,0.3-0.1c1.8-1,3.5-2.3,5-3.7c1.2-1.2-0.4-3.3-1.8-2.3l-8.8,6.1
		l1.8,2.3l3.2-3.1c1.2-1.1-0.4-3.3-1.8-2.3c-2.6,1.9-5,3.9-7.4,6.1c-1.2,1.1,0.4,3.3,1.8,2.3c1.3-0.9,2.4-2,3.2-3.3
		c1-1.5-1.1-2.8-2.3-1.8c-2,1.7-4.1,3.4-6.3,4.9l1.8,2.3l1.9-2.1c0.5-0.6,0.5-1.6-0.2-2.1c-0.6-0.5-1.4-0.5-1.9,0
		c-0.6,0.5-3.3,3.2-4.1,3.2l1.4,1.1c-0.1-0.2,0-2.1,0-2.3c0-0.8-0.7-1.5-1.5-1.5c-3.6-0.1-7.4,3.4-9.1,6.4c-3,5.2,1.3,8.8,1.3,14
		c0,0.8,0.7,1.5,1.6,1.4c0.6,0,1.1-0.4,1.3-1l1.9-8.4c0.2-0.8-0.3-1.6-1.1-1.8c-0.8-0.2-1.5,0.3-1.7,1c-0.5,1.8-0.9,3.7-1.1,5.6
		c-0.2,1.7,2.5,2,2.9,0.4c0.7-2.7,1.1-5.4,1.2-8.2c0-0.8-0.7-1.5-1.5-1.5c-0.5,0-1,0.3-1.2,0.7c-1.2,1.8-1.8,4-1.9,6.2
		c0,0.8,0.7,1.5,1.5,1.5c0.7,0,1.2-0.4,1.4-1.1c0.5-2.2,0.8-4.4,0.9-6.6c0.1-1.8-2.3-1.8-2.9-0.4c-1.1,2.7-1.8,5.6-2.1,8.6
		c-0.2,1.7,2.6,2,2.9,0.4l2.6-13.3c0.2-0.8-0.3-1.6-1.1-1.8c-0.6-0.1-1.2,0.1-1.6,0.6c-5.2,8-6.3,18.1-2.9,27c0.6,1.5,3,1.4,2.9-0.4
		c-0.2-5.2-0.8-10.4-0.8-15.6c0-4-0.2-13.1,3.6-15.7L70,46.9c0,1.6-0.2,3.1-0.6,4.6c-0.3,0.8,0.1,1.6,0.9,1.9
		c0.7,0.2,1.5-0.1,1.8-0.7l1-1.6l-2.7-1.1c-0.4,1.9-0.7,3.8-0.8,5.8c0,0.8,0.7,1.5,1.5,1.5c0.5,0,1-0.3,1.2-0.7l2.5-4.6l-2.7-1.2
		c-1.1,2.5-1.5,5.2-1.3,7.9c0.1,1.4,2,2.2,2.8,0.8l3.7-7.2l-2.7-1.2c-2.9,7.2-5.4,14.3-4.6,22.1c0.2,1.9,3.1,1.9,3,0l-0.5-6.5
		c0-0.8-0.7-1.5-1.5-1.5s-1.5,0.7-1.5,1.5l0,0c-0.2,6.4,0.7,12.7,2.5,18.8c0.5,1.5,3.1,1.3,2.9-0.4c-0.2-3.1-1-6-2.2-8.8
		c-0.7-1.6-3-0.4-2.7,1.2c0.7,3.6,1.7,7,3,10.4l2.5-1.4c-1.2-1.2-2.2-2.6-2.9-4.1l-2.6,1.5c0.7,1.6,1.6,3,2.7,4.4
		c0.9,1.3,3.3,0.6,2.7-1.2c-0.8-2.3-1.9-4.5-3.2-6.5C70.2,77,70,74.2,70.7,70c0.2-0.8-0.3-1.6-1.1-1.8c-0.8-0.2-1.5,0.3-1.7,1
		c-1.9,5.1-1.7,10.7,0.4,15.7c0.6,1.9,1.6,3.7,2.8,5.2c1.7,2,3.9,2.2,6,3.7c1.4,1,2.9-1.2,1.8-2.3c-1.1-1.1-2.1-2.3-3-3.6
		C74.8,86.3,72.2,87.8,73.3,89.3L73.3,89.3z"/>
	<path class="st0" d="M132,51.8c-0.8-3.5-3-6.4-6.2-8c-0.7-0.4-1.6-0.2-2.1,0.6c-0.1,0.1-0.1,0.2-0.1,0.3c-1,3.5,2.3,8.7,3.5,11.9
		c0.6,1.5,3,1.4,2.9-0.4c-0.1-2.9-0.3-5.8-0.6-8.7l-2.8,0.8c0.8,1.8,1.4,3.6,1.9,5.4c0.4,1.6,3.1,1.3,2.9-0.4l-0.7-7l-2.8,0.8
		c0.6,1.1,1,2.2,1.3,3.4c0.3,0.8,1.1,1.2,1.9,1c0.7-0.2,1.2-1,1-1.7l-1.3-6.6l-2.7,1.1c1.6,2.9,2.7,6.1,3.3,9.3
		c0.3,1.7,3,1.3,2.9-0.4c-0.2-3.2-0.6-6.2-2.2-9c-0.7-1.2-2.9-0.8-2.8,0.8c0.6,6.7,0.5,13.5-0.4,20.2h3c-0.2-2-0.5-4-1-5.9
		c-0.3-0.8-1.1-1.2-1.9-0.9c-0.6,0.2-1,0.7-1,1.3v3.7h3c0-2.4-0.3-4.7-0.9-7c-0.5-1.9-3.2-1.1-2.9,0.8c0.4,2,0.9,3.9,1.7,5.7
		c0.3,0.8,1.1,1.2,1.9,0.9c0.6-0.2,1-0.7,1-1.3l0.6-5.5l-2.9,0.4l1.2,5.8c0.4,1.7,2.9,1.3,2.9-0.4c0-2,0.2-3.9,0.4-5.9h-2.9l0.8,4.4
		c0.3,1.6,3,1.3,2.9-0.4c-0.1-2.2-0.2-4.4-0.2-6.6l-2.9,0.4c1.6,6.3,1,11.6-1.1,17.7c-0.8,2.3-1.6,4.5-2.4,6.8
		c-0.3,0.9-2.8,6.2-1,3.6c0.8-1.4,1.5-2.9,2.2-4.4c0.9-1.7-1.6-3.2-2.6-1.5l-1.6,2.8l2.6,1.5c3-5.6,3.3-11.6,3-17.8l-2.5,1.1
		c1.4,1.7,1.1,4.7,1,6.8s2.8,1.9,3,0c0.2-1.7,0.4-3.5,0.8-5.2l-2.9-0.4l-0.2,6.8c-0.1,1.9,2.9,1.9,3,0l0.4-6.9
		c0.1-1.8-2.4-1.9-2.9-0.4l-0.1,0.1c-0.2,0.6,0.1,1.3,0.7,1.7l0.2,0.1c0.7,0.4,1.6,0.1,2-0.5c0.5-1,0.7-2.2,1.1-3.3l-2.9-0.8
		c-0.6,3.8,0.8,7.4,0.4,11.3c-0.1,1.7,2.6,2.1,2.9,0.4l0.8-4.6c0.3-1.8-2.4-2.7-2.9-0.8c-0.4,1.6-0.1,2.7-0.2,4.3
		c-0.2,2.4-0.9,4.8-2.1,6.9c-2.2,4.6-6.3,9.6-11.6,10.5l1.4,2.5c2.2-1.9,4.1-4.1,5.7-6.6c0.9-1.4-1.2-3.1-2.3-1.8
		c-0.9,1-1.3,2.4-2.2,3.4s-2.6,1.9-3.8,3c-1.4,1.3,0.7,3.4,2.1,2.1c1.2-1.1,2.7-1.7,3.8-2.8s1.2-2.4,2.2-3.5l-2.3-1.8
		c-1.4,2.2-3.2,4.3-5.2,6c-1.2,1.1,0.1,2.7,1.4,2.5c5-0.9,9.1-4.9,11.8-9.1c1.5-2.4,2.7-5,3.5-7.7c0.7-2.4,0-4.7,0.6-7.1l-2.9-0.8
		l-0.8,4.6l2.9,0.4c0.3-3.5-1.1-7-0.5-10.5c0.2-0.8-0.3-1.6-1.1-1.8c-0.8-0.2-1.5,0.3-1.7,1c-0.4,0.8-0.7,1.7-0.8,2.6l2-0.5
		l-0.2-0.1l0.7,1.7l0.1-0.1l-2.9-0.4l-0.3,6.8h3l0.2-6.8c0-1.7-2.6-2.1-2.9-0.4c-0.4,2-0.7,4-0.9,6h3c0.2-3.2,0.2-6.3-1.9-8.9
		c-0.6-0.6-1.5-0.6-2.1,0c-0.3,0.3-0.4,0.6-0.4,1c0.3,5.7,0.2,11.2-2.6,16.3c-0.4,0.7-0.1,1.6,0.6,2c0.7,0.3,1.5,0.1,1.9-0.5
		l1.6-2.8l-2.6-1.5c-1,2-5.6,7.8-3.4,10.1c1.8,1.9,4.6-0.8,5.6-2.3c2.9-4,4.3-10.4,5.6-15.1c1.5-5.2,1.4-10.6-0.1-15.8
		c-0.3-0.8-1.1-1.2-1.9-0.9c-0.6,0.2-1,0.7-1,1.3c0,2.2,0.1,4.4,0.2,6.6l2.9-0.4l-0.9-4.4c-0.3-1.4-2.6-1.4-2.9,0
		c-0.3,2.2-0.5,4.4-0.6,6.7l2.9-0.4l-1.2-5.8c-0.4-1.8-2.8-1.2-2.9,0.4l-0.6,5.5l2.9-0.4c-0.8-1.8-1.3-3.7-1.7-5.7l-2.9,0.8
		c0.5,2,0.8,4.1,0.8,6.2c0,0.8,0.7,1.5,1.5,1.5s1.5-0.7,1.5-1.5l0,0v-3.7l-2.9,0.4c0.5,1.7,0.8,3.4,0.9,5.1c0,0.8,0.7,1.5,1.5,1.5
		s1.5-0.7,1.5-1.5c0.8-6.7,1-13.5,0.4-20.3l-2.8,0.8c1.4,2.4,1.6,4.8,1.8,7.5l2.9-0.4c-0.6-3.5-1.9-6.9-3.6-10
		c-0.8-1.6-3-0.4-2.7,1.2l1.3,6.7l2.9-0.8c-0.4-1.4-1-2.8-1.6-4.1c-0.6-1.3-2.9-0.7-2.8,0.8l0.7,7l2.9-0.4c-0.6-2.1-1.3-4.2-2.2-6.2
		c-0.6-1.3-2.9-0.7-2.8,0.8c0.3,2.9,0.5,5.8,0.6,8.7l2.9-0.4c-0.8-2.1-4.1-8.1-3.5-10.3l-2.2,0.9c2.5,1.2,4.3,3.5,4.9,6.2
		C129.7,54.4,132.6,53.6,132,51.8L132,51.8z"/>
	<path class="st0" d="M107.8,34.5l-0.1,0.4l1.4-1.1c-1.3-0.2-2.6-0.5-3.8-0.9l-0.8,2.9c2.1,0.4,4,1.4,5.5,2.9l1.1-2.5
		c-2.4-0.1-4.7-0.7-6.8-1.7c-1.2-0.5-2,0.8-1.8,1.8l0.2,1.2l1.8-1.8c-0.9-0.2-1.8-0.2-2.8-0.2c-0.5,0-1,0.3-1.3,0.7
		c-1.2,2.4,0.2,4,2.6,4.6c0.8,0.2,1.6-0.3,1.8-1.1c0.2-0.8-0.3-1.5-1-1.7l-3.2-1c-1.8-0.6-2.6,2.3-0.8,2.9c1.8,0.5,3.5,1.2,5.1,2
		l1.1-2.7c-1.4-0.2-2.8-0.6-4.1-1l-0.8,2.8c2.8,0.9,5.6,1.8,8.4,2.7c1.8,0.5,2.6-2.3,0.8-2.9l-3.2-1c-0.8-0.2-1.6,0.3-1.8,1.1
		c-0.1,0.5,0,1,0.4,1.4c2.1,2.2,5.5,2.1,8.3,2.5l0.4-2.9h-2.3c-0.8-0.2-1.6,0.3-1.8,1.1c-0.2,0.8,0.3,1.5,1,1.7
		c3.8,1.5,8,0.1,11.6,1.9l1.5-2.6l-13.4-5.7c-1.7-0.7-3.3,1.8-1.5,2.6l3.3,1.6l1.2-2.7c-2.6-0.7-5.2-1.8-7.5-3.2l-1.2,2.7
		c2.1,0.8,4.2,1.8,6.2,2.8l1.5-2.6c-1.9-1-3.7-2-5.4-3.2l-1.1,2.7c3,0.4,5.9,1.3,8.6,2.7c0.7,0.4,1.6,0.1,2-0.6
		c0.3-0.7,0.1-1.5-0.5-1.9c-2.2-1.5-4.3-3.3-6.2-5.2l-1.8,2.3c3.4,2.3,6.8,4.3,10.9,5.3c1.6,0.4,2.7-1.9,1.2-2.7
		c-2.1-1.1-4.1-2.5-6-4.1l-1.8,2.3c3.2,2.2,6.5,4.3,9.8,6.3c1.6,1,3.1-1.5,1.5-2.6c-2.2-1.4-4.3-3-6.3-4.7l-1.8,2.3l8.5,6.1
		c1.4,1,3-1.2,1.8-2.3c-1.8-1.7-3.9-3.2-6-4.5c-1.2-0.7-2.9,0.8-2,2c0.8,1.2,1.4,2.4,2,3.8l2-2c-1.6-1-3.1-2-4.6-3.1
		s-3.1,1.3-1.8,2.3c1.6,1.3,3.3,2.5,5.1,3.4c0.7,0.4,1.6,0,2-0.7c0.2-0.4,0.2-0.9,0-1.3c-1-2.1-2.2-4.1-3.7-5.8l-1.8,2.3l9.2,6.8
		c1.4,1,3-1.2,1.8-2.3c-1.9-1.8-3.7-3.6-5.5-5.5l-1.7,2.3c2.3,1.1,4.2,2.8,5.8,4.8l2.1-2.1c-1.5-1.4-2.8-3-3.8-4.7l-2,2
		c1.5,1.1,2.9,2.4,4.1,3.9l2.1-2.1c-0.9-0.6-1.7-1.4-2.3-2.4l-2.3,1.8l2.7,2.1c1.2,0.9,3.5-0.3,2.3-1.8c-2-2.7-4.6-5-7.4-6.7
		c-1.7-1-3.1,1.5-1.5,2.6l4.6,3.1c1.4,1,3.1-1.2,1.8-2.3l-2.6-2.3l-1.5,2.5l-0.7-0.7l1.4-1.9c-5.1-0.6-10.1-1.4-15.1-2.5
		c-2.1-0.5-4.2-1-6.3-1.5c-1.1-0.3-2.1-0.6-3.2-0.9c-3.6-1.4-3.1-1.2,1.7,0.5l1.3-2.2c-1.5,0-2.9,0-4.4-0.2c-1.7-0.1-2,2.6-0.4,2.9
		l5.1,1l0.8-2.9c-1.4-0.1-2.8-0.5-4.1-1.2l-0.8,2.8c2.7,0.3,5.3,1,7.7,2c1.6,0.6,2.7-2,1.2-2.7c-1.3-0.6-2.5-1.3-3.6-2.1l-1.2,2.7
		l8.8,2.8c1.9,0.6,2.5-2.2,0.8-2.9l-9.1-3.8v2.9c3.5-0.9,6.8,0.6,9.9,1.8c3,1.1,6.5,1.9,8.6,4.4l1.1-2.5c-3.2-0.2-6.3-1-9.2-2.5
		l-1.2,2.7c2.5,0.9,4.9,2,7.2,3.3l1.1-2.7c-4.2-1-8-2.3-12.3-1.5c-2.8,0.5-5.4,0.3-8.2,0.6c-2.1,0.3-3.9,1.3-5.9,1.9
		c-4.3,1.3-8.8,1.1-13.2,2.6c-4.3,1.4-8.2,3.6-11.6,6.6l2.5,1.5C76,36.3,84.9,32.9,94.9,30l-1.2-2.7c-2.5,1.2-5.1,2.4-7.5,3.8
		c-1.2,0.7-5,3.9-6.1,3.5l1.1,1.5c0.6-1.3,1.8-2.2,3.2-2.6c1.7-0.8,0.2-3.4-1.5-2.6c-2,1-4.9,2.6-4.7,5.2c0,0.7,0.5,1.2,1.1,1.4
		c2.1,0.8,3.8-1,5.5-2.1c3.3-2,6.8-3.9,10.4-5.5c1.6-0.7,0.4-3.2-1.2-2.7C83,30.3,73.5,34.5,69.4,46c-0.5,1.5,1.5,2.4,2.5,1.5
		c3.8-3.3,8.4-5.7,13.4-6.8c3.4-0.9,6.8-0.6,10.1-1.7c2.3-0.7,4.2-1.8,6.6-1.9c1.6-0.1,3.1,0.3,4.7,0c2.7-0.4,4.7-1.1,7.5-0.6
		c2,0.4,4,0.9,6,1.4c1.6,0.4,2.7-1.9,1.2-2.7c-2.6-1.4-5.2-2.6-7.9-3.6c-1.6-0.6-2.7,2-1.2,2.7c3.3,1.7,7,2.7,10.7,2.9
		c1.4,0.1,1.8-1.6,1.1-2.5c-2.5-3-6.4-3.9-10-5.2c-3.9-1.4-7.4-2.9-11.5-1.8c-1.6,0.4-1.3,2.3,0,2.9l9.1,3.8l0.8-2.9l-8.8-2.8
		c-1.7-0.5-2.5,1.8-1.2,2.7c1.2,0.8,2.4,1.5,3.6,2.1l1.2-2.7c-2.7-1.1-5.6-1.8-8.5-2.1c-0.8,0-1.5,0.7-1.5,1.5c0,0.5,0.3,1,0.7,1.2
		c1.5,0.7,3.2,1.2,4.8,1.5c1.8,0.3,2.7-2.5,0.8-2.9l-5.1-1l-0.4,2.9c1.5,0.1,2.9,0.2,4.4,0.2c0.8,0,1.5-0.7,1.5-1.5
		c0-0.3-0.1-0.5-0.2-0.7c-2.1-3.1-8.9-4.6-10.4-0.1c-0.1,0.5,0,1.1,0.4,1.5c2.7,3.1,8.8,3.7,12.5,4.6c5.8,1.3,11.7,2.3,17.7,3
		c0.8,0,1.5-0.7,1.5-1.5c0-0.1,0-0.3-0.1-0.4c-0.2-0.7-0.7-1.2-1.4-1.4c-1.4-0.3-2.6,1.5-1.4,2.5l2.6,2.3l1.8-2.3l-4.6-3.1l-1.5,2.6
		c2.5,1.4,4.6,3.3,6.4,5.5l2.3-1.8l-2.7-2.1c-1.2-1-3.4,0.3-2.3,1.8c0.8,1.1,1.7,2.1,2.8,3c0.6,0.5,1.6,0.5,2.1-0.2
		c0.5-0.6,0.5-1.4,0-1.9c-1.4-1.6-2.9-3.1-4.7-4.4c-1.2-0.9-2.8,0.8-2,2c1.2,1.9,2.6,3.7,4.3,5.3c1.4,1.4,3.3-0.6,2.1-2.1
		c-1.7-2.2-3.9-4-6.4-5.3c-0.7-0.4-1.6-0.1-2,0.6c-0.3,0.6-0.2,1.2,0.2,1.7c1.8,1.9,3.6,3.8,5.5,5.5l1.8-2.3l-9.2-6.8
		c-1.4-1.1-2.8,1.1-1.8,2.3c1.3,1.6,2.4,3.4,3.3,5.2l2-2c-1.6-0.8-3.1-1.8-4.5-3l-1.8,2.3c1.5,1.1,3,2.1,4.6,3.1
		c1.4,0.9,2.6-0.8,2-2c-0.6-1.3-1.2-2.6-2-3.8l-2,2c1.9,1.2,3.7,2.5,5.4,4l1.8-2.3l-8.5-6.1c-1.4-1-3.1,1.3-1.8,2.3
		c2.2,1.9,4.5,3.6,6.9,5.1l1.5-2.6c-3.3-2-6.6-4.1-9.8-6.3c-1.4-1-3.1,1.2-1.8,2.3c2,1.7,4.2,3.3,6.6,4.5l1.2-2.7
		c-3.8-0.9-7-2.8-10.2-5c-1.4-1-3,1.2-1.8,2.3c2.1,2.1,4.3,4,6.8,5.7l1.5-2.6c-2.9-1.5-6.1-2.5-9.3-3c-0.8-0.3-1.6,0-2,0.8
		s0,1.6,0.8,2c1.8,1.2,3.6,2.2,5.4,3.2c1.7,0.9,3.2-1.7,1.5-2.6c-2.2-1.2-4.6-2.2-6.9-3.2c-1.6-0.6-2.6,1.9-1.2,2.7
		c2.6,1.5,5.3,2.7,8.2,3.5c1.6,0.4,2.7-2,1.2-2.7l-3.3-1.6l-1.5,2.6l13.3,5.6c1.7,0.7,3.3-1.7,1.5-2.6c-3.9-2-8.3-0.6-12.3-2.2
		l-0.8,2.9c1,0.2,2.1,0.3,3.1,0.1c1.5-0.2,2.2-2.6,0.4-2.9s-5.6-0.3-7-1.8l-1.4,2.5l3.2,1l0.8-2.9c-2.8-0.8-5.6-1.7-8.4-2.6
		c-1.8-0.6-2.6,2.3-0.8,2.9c1.3,0.5,2.7,0.8,4.1,1.1c1.5,0.3,2.8-1.9,1.2-2.7c-1.9-0.9-3.8-1.7-5.8-2.3l-0.8,2.9l3.2,1l0.8-2.9
		l-0.1,0.6c0.8,0.2,1.6-0.3,1.8-1.1c0.1-0.2,0.1-0.5,0-0.7l-0.2-1.2l-1.8,1.8c2.4,1,5,1.6,7.6,1.8c0.8,0,1.5-0.7,1.5-1.5
		c0-0.4-0.2-0.7-0.4-1c-1.8-1.9-4.2-3.2-6.8-3.7c-0.8-0.2-1.6,0.3-1.8,1.1c-0.2,0.8,0.3,1.5,1,1.7c1.5,0.4,3.1,1.2,4.6,1
		c0.7,0,1.2-0.5,1.4-1.1l0.1-0.4C111.4,33.6,108.5,32.8,107.8,34.5L107.8,34.5z"/>
	<path d="M71.5,89.3c-8.5-10.3-6.7-28.7-2.7-40.5c2.3-6.8,5.3-12.7,11.6-16.3c6.4-3.8,13.7-5.6,21.2-5.1c0.8,0,0.8-1.1,0-1.2
		c-7.6-0.5-15.2,1.3-21.8,5.3c-6.1,3.5-9.2,8.9-11.6,15.4c-4.6,12.5-6.7,32.2,2.4,43.3C71.2,90.8,72,89.9,71.5,89.3z"/>
	<path d="M69.3,88.8c2.7,3.1,6.2,5.5,10.2,6.7c0.5,0.2,0.9-0.4,0.7-0.9c-5.6-11-8.4-26.2-3.3-37.8c0.3-0.7-0.7-1.3-1-0.6
		c-5.3,12.1-2.5,27.6,3.3,39l0.7-0.9c-3.7-1.2-7.1-3.4-9.7-6.4C69.7,87.4,68.9,88.2,69.3,88.8L69.3,88.8z"/>
	<path d="M72.2,57c5.4-0.4,10.6-4.6,15.2-7.3c5.6-3.2,10.8-6.7,15-11.7c0.5-0.6-0.3-1.4-0.8-0.8c-3.7,4.4-8.3,7.7-13.3,10.6
		c-4.5,2.7-10.7,7.5-16,8C71.5,55.9,71.5,57.1,72.2,57z"/>
	<path d="M77.1,56.7c0.1-0.4,0.3-0.8,0.7-1.1c0.6-0.5-0.3-1.3-0.8-0.8c-0.5,0.4-0.9,1-1,1.6C75.8,57.1,76.9,57.5,77.1,56.7
		L77.1,56.7z"/>
	<path d="M78.9,93.4c3.6,0.8,6.7,1.8,10.4,1.9c0.3,0,0.6-0.3,0.6-0.6c0-0.3-0.3-0.6-0.6-0.6c-3.6-0.1-6.7-1.1-10.1-1.8
		C78.5,92.1,78.2,93.2,78.9,93.4L78.9,93.4z"/>
	<path d="M101,27.5c7.2,0.7,14.7,2.1,20.8,6.3c6.8,4.7,11,10.5,12.8,18.5c1.7,7.8,1.4,15.9,0.1,23.7c-1.3,8-8.7,16.1-17.2,16.6
		l0.4,1c4.3-5.1,7.1-11.6,9.3-17.8c2.5-7.1,1.7-13.9,0.1-21.1c-0.2-0.8-1.3-0.4-1.2,0.3c1.5,7,2.3,13.6-0.1,20.5
		c-2.1,6-4.9,12.4-9,17.4c-0.3,0.4-0.1,1.1,0.4,1c6.8-0.4,14-6,17-12.1c1.6-3.4,1.8-8.1,2.1-11.8c0.5-4.8,0.4-9.7-0.3-14.5
		c-1.4-9.5-5-15.9-12.6-21.7c-6.5-5-14.8-6.7-22.8-7.5C100.2,26.2,100.2,27.4,101,27.5L101,27.5z"/>
	<path d="M111.4,94.2c2,0.1,4-0.4,5.8-1.3c0.7-0.3,0.1-1.4-0.6-1c-1.6,0.8-3.4,1.2-5.2,1.1C110.7,93.1,110.7,94.3,111.4,94.2
		L111.4,94.2z"/>
	<path d="M100,40.5c4.5,2.6,9.3,4.4,14.4,5.4c2,0.4,4.1,0.2,6.1,0.7c4.1,1,4.3,5,5.5,8.5c0.2,0.7,1.4,0.4,1.2-0.3
		c-0.9-2.9-1.3-7.9-4.1-9.3c-1.1-0.6-3.8-0.1-5.1-0.2c-2.2-0.2-4.4-0.6-6.5-1.2c-3.8-1-7.4-2.6-10.8-4.5c-0.3-0.1-0.7,0.1-0.8,0.4
		C99.8,40.1,99.9,40.3,100,40.5L100,40.5z"/>
	<path class="st0" d="M90.7,37.9l-0.1-0.3c-0.4-1.5-1.4-2.8-2.7-3.6c-2.8-1.6-6.5-0.7-8.2,2.1c-0.8,1.4-1,3-0.6,4.6l0.1,0.3
		c0.4,1.5,1.4,2.8,2.7,3.6c2.8,1.6,6.5,0.7,8.2-2.1C90.9,41.1,91.1,39.5,90.7,37.9L90.7,37.9z"/>
	<path class="st1" d="M73.4,53.5c8.1-4.1,15.7-9.2,22.6-15.1c0.6-0.5-0.3-1.3-0.8-0.8c-6.9,5.8-14.4,10.9-22.4,14.9
		C72.1,52.8,72.7,53.8,73.4,53.5L73.4,53.5z"/>
	<path class="st1" d="M75.7,89.3c-3.7-2.3-6.4-8.2-7.3-12.3c-1.1-5.4-1.1-10.9,0.1-16.3c0.2-0.8-1-1.1-1.2-0.3
		C66,66.6,66.1,72.9,67.7,79c1.2,4.1,3.8,9.1,7.5,11.3C75.8,90.8,76.4,89.7,75.7,89.3L75.7,89.3z"/>
	<path class="st1" d="M104.4,39.1c1.9,1.4,4.6,1.9,6.8,2.5c2.5,0.6,5.1,0.8,7.7,0.6c0.8-0.1,0.8-1.3,0-1.2
		c-4.1,0.5-10.5-0.3-13.9-2.8C104.4,37.6,103.8,38.6,104.4,39.1L104.4,39.1z"/>
	<path class="st1" d="M73.1,45.8c2.1-6.6,10.6-11.7,16.6-14.1c0.7-0.3,0.4-1.4-0.3-1.1c-6.4,2.6-15.2,7.8-17.4,14.9
		C71.7,46.2,72.9,46.5,73.1,45.8L73.1,45.8z"/>
	<path class="st0" d="M80,89.9l1.8,1v-1c-1,0.5-1.8,0.4-2.4,1.4c-0.2,0.3-0.1,0.7,0.2,0.8c0,0,0.1,0,0.1,0.1l1.1,0.2v-1.1l-0.9,0.2
		c-0.7,0-0.8,1-0.2,1.2l1.5,0.3l0.2-1.2c-0.5,0.1-1,0-1.5-0.1l-0.2,1.2l1.2,0.1l0.2-1.2l-0.8-0.2l-0.2,1.2l3.1,0.4V92l-1.8-0.1v1.2
		c1-0.1,1.9-0.1,2.9,0.1v-1.1c-0.7,0.1-1.5,0.1-2.2,0.1c-0.7-0.1-0.8,1.1-0.2,1.2l2.2,0.3l0.2-1.2c-0.5,0-1.1-0.1-1.6-0.2l-0.2,1.2
		c1.7,0,3.3,0.2,4.9,0.3l-0.2-1.2c-1,0.3-2,0.4-3,0.2c-0.7-0.1-1.1,1-0.3,1.2c0.7,0.2,1.3,0.2,2,0.3c0.7,0,0.8-1.1,0.2-1.2L85.8,93
		l-0.2,1.1l3.6,0.3c0.3,0,0.6-0.3,0.6-0.6c0-0.1,0-0.2-0.1-0.3c-0.5-0.7-1.3-1.2-2.2-1.4c-1.8-0.6-3.6-1.3-5.3-2.2l-0.6,1
		c0.9,0.4,1.7,0.9,2.4,1.4l0.4-1c-0.7,0-1.5-0.1-2.1-0.3l-0.3,1.2l1.8,0.4c0.7,0.2,1.1-1,0.3-1.2c-0.7-0.2-1.4-0.5-2-0.9l-0.5,1.1
		c0.6,0,1.2,0.2,1.8,0.5l0.5-1.1l-2.4-0.8c-0.7-0.3-1,0.9-0.3,1.2l2.3,0.9v-1.1c-0.6,0.2-1.3,0.3-2,0.2c-0.7-0.1-0.8,1-0.2,1.2
		l2,0.4l0.2-1.2l-2.5-0.1c-0.7,0-0.8,1.1-0.2,1.2l2.2,0.4l0.2-1.2c-0.7,0-1.3,0-2,0c-0.3,0-0.6,0.3-0.6,0.6c0,0.3,0.2,0.5,0.4,0.5
		c0.6,0.1,1.2,0.3,1.8,0.4s1.1-1,0.3-1.2l-1.3-0.3l-0.3,1.2l2.2,0.4c0.8,0.2,1.1-1,0.3-1.2l-2.2-0.4c-0.7-0.2-1.1,1-0.3,1.2l1.3,0.3
		l0.3-1.2c-0.6-0.1-1.2-0.2-1.8-0.4l-0.2,1.2c0.7,0,1.3,0,2,0c0.6,0,0.8-1,0.2-1.2l-2.2-0.4L81.1,93l2.5,0.1c0.3,0,0.6-0.3,0.6-0.6
		c0-0.3-0.2-0.5-0.4-0.5l-2-0.4l-0.2,1.2c0.8,0.1,1.6,0,2.3-0.3c0.3-0.1,0.5-0.4,0.4-0.7c-0.1-0.2-0.2-0.3-0.4-0.4l-2.3-0.9
		l-0.3,1.2l2.4,0.8c0.3,0.2,0.7,0,0.8-0.3s0-0.7-0.3-0.8c-0.6-0.3-1.3-0.6-2.1-0.7c-0.3-0.1-0.6,0.1-0.7,0.4c-0.1,0.2,0,0.5,0.3,0.6
		c0.7,0.5,1.4,0.8,2.2,1l0.3-1.1l-1.8-0.5c-0.3-0.1-0.6,0.2-0.7,0.5c0,0.3,0.1,0.6,0.4,0.7c0.8,0.3,1.6,0.4,2.5,0.4
		c0.5,0,0.8-0.7,0.4-1c-0.8-0.7-1.7-1.2-2.7-1.6c-0.7-0.3-1.3,0.7-0.6,1c1.1,0.5,2.2,1,3.3,1.5s3.1,0.7,3.7,1.6l0.5-0.9l-3.6-0.3
		c-0.7-0.1-0.8,1.1-0.2,1.2l0.3,0.1l0.2-1.2c-0.6,0-1.1,0-1.7-0.2l-0.3,1.2c1.2,0.2,2.5,0.2,3.6-0.2c0.3-0.1,0.5-0.4,0.4-0.8
		c-0.1-0.2-0.3-0.4-0.5-0.4c-1.6-0.2-3.3-0.3-4.9-0.3c-0.3,0-0.6,0.3-0.6,0.6c0,0.3,0.2,0.5,0.4,0.5c0.6,0.1,1.3,0.2,1.9,0.3
		c0.7,0,0.8-1.1,0.2-1.2l-2.1-0.3l-0.2,1.2c0.9,0.1,1.7,0,2.6-0.1c0.3-0.1,0.5-0.4,0.4-0.7c-0.1-0.2-0.2-0.3-0.4-0.4
		c-1-0.2-2.1-0.3-3.2-0.2c-0.3,0-0.6,0.3-0.5,0.7c0,0.3,0.2,0.5,0.5,0.5l1.8,0.1c0.8,0,0.7-1.1,0-1.2l-3.1-0.4
		c-0.7-0.1-0.8,1-0.2,1.2c0.4,0.1,0.7,0.2,1.1,0.2c0.7,0.1,0.8-1.1,0.2-1.2c-0.5-0.1-1-0.1-1.5-0.1c-0.3,0-0.6,0.3-0.6,0.6
		c0,0.3,0.2,0.5,0.4,0.5c0.6,0.1,1.2,0.2,1.8,0.2c0.6,0,0.8-1,0.2-1.2L80,91.4l-0.2,1.2c0.4,0,0.9-0.1,1.3-0.2c0.5-0.2,0.6-1,0-1.2
		l-1.1-0.1l0.4,0.9c0.3-0.6,1.4-0.7,2-1c0.3-0.2,0.4-0.6,0.2-0.8c0-0.1-0.1-0.1-0.2-0.2l-1.8-1c-0.3-0.1-0.7,0.1-0.8,0.4
		C79.8,89.6,79.9,89.8,80,89.9L80,89.9z"/>
	<path class="st1" d="M122.7,90.3c7.5-7.6,13.7-16.2,12.2-27.4c-0.1-0.8-1.3-0.8-1.2,0c1.4,10.8-4.7,19.3-11.9,26.6
		C121.3,90,122.2,90.8,122.7,90.3L122.7,90.3z"/>
</g>
</svg>
