<?xml version="1.0" encoding="utf-8"?>
<!-- Generator: Adobe Illustrator 21.0.2, SVG Export Plug-In . SVG Version: 6.00 Build 0)  -->
<svg version="1.1" id="Layer_1" xmlns="http://www.w3.org/2000/svg" xmlns:xlink="http://www.w3.org/1999/xlink" x="0px" y="0px"
	 viewBox="0 0 200 600" style="enable-background:new 0 0 200 600;" xml:space="preserve">
<style type="text/css">
	.st0{fill:#EF7A22;}
	.st1{fill:#100D0C;}
	.st2{fill:#ED8622;}
</style>
<g>
	<g>
		<g>
			<path class="st0" d="M115.4,97.8c3.8,0,3.8-6,0-6C111.6,91.8,111.6,97.8,115.4,97.8L115.4,97.8z"/>
		</g>
	</g>
	<g>
		<g>
			<path class="st0" d="M127.5,63.8C127.5,63.8,127.5,63.9,127.5,63.8c0,1.6,1.4,3.1,3,3.1c1.6-0.1,3-1.3,3-3c0,0,0-0.1,0-0.1
				c0-1.6-1.4-3-3-3C128.8,60.9,127.5,62.1,127.5,63.8L127.5,63.8z"/>
		</g>
	</g>
	<g>
		<g>
			<path class="st0" d="M115.9,91.9c-0.5,0.1-1.1,0-1.6,0c0.3,0,0.5,0.1,0.8,0.1c-0.2,0-0.5-0.1-0.7-0.1c-1.2-0.3-2.7,0.2-3.4,1.4
				c-0.2,0.5-0.4,1-0.4,1.5c0,0.8,0.4,1.5,0.9,2.1c0.1,0.1,0.1,0.1,0.2,0.2c0.4,0.6,1.4,0.9,2.1,0.9c0.7,0,1.6-0.3,2.1-0.9
				c0.5-0.6,0.9-1.3,0.9-2.1c0-0.8-0.4-1.5-0.9-2.1c-0.1-0.1-0.1-0.1-0.2-0.2c-1,1.7-1.9,3.3-2.9,5c1,0.2,2.1,0.3,3.1,0.2
				c0.8-0.1,1.5-0.3,2.1-0.9c0.5-0.5,0.9-1.4,0.9-2.1C118.8,93.4,117.6,91.8,115.9,91.9L115.9,91.9z"/>
		</g>
	</g>
	<g>
		<g>
			<path class="st0" d="M89.8,121.1c-0.4-0.1-0.7-0.3-1.1-0.4c-2.7-1-5.2,3.2-2.9,5c0.9,0.6,1.7,1.3,2.3,2.2c1-1.7,1.9-3.3,2.9-5
				c-2.1-0.4-4.1-0.6-6.2-0.6c-3.6,0-3.7,4.6-0.8,5.8c1.1,0.5,2.1,0.3,3.1-0.4c2.2-1.5,1.7-5.8-1.5-5.5c-4.7,0.3-10.8,1.1-11.8-4.6
				c-0.2-0.9-0.3-1.8-0.3-2.7c0-1.3,0.2-2.6,0.7-3.8c-1.8-2.7-2.2-2.4-1.3,0.9c-0.5,2.9-0.6,3.6-0.1,2.2c1-0.3,1.9-0.5,2.9-0.8
				c0.7-1.1,1.2-2.4,1.4-3.8c-1.1,0.5-2.2,0.9-3.4,1.4c0,0,0.7,4.9,0.6,5c1.2-0.2,2.4-0.3,3.6-0.5c0.2-0.8,0-1.4-0.7-1.8
				c-1-0.3-1.9-0.5-2.9-0.8c0.3,1.1,0.6,2.1,0.8,3.2c1,0,2,0,3,0c-0.1,0-0.1,0-0.2,0c-0.9-0.5-1.7-1-2.6-1.5
				c1.2,1.6,0.7,3.9,0.2,5.6c1.7-0.4,3.3-0.9,5-1.3c-4.3-4.9-1.9,0.6-1.8,3c1.7-0.7,3.4-1.4,5.1-2.1c-3.6-1.7-4.9-1.6-3.8,0.4
				c0.3,0.7,0.6,1.5,0.7,2.3c1.8-0.8,3.6-1.5,5.4-2.3c-0.6-0.6-0.9-1.3-1.1-2c-0.9,0.5-1.7,1-2.6,1.5c0.2,0,0.4,0,0.6,0.1
				c-0.9-0.5-1.7-1-2.6-1.5c1.1,1.4,1.6,3.5,2.1,5.2c1,3,6.1,2.7,5.8-0.8c-0.1-1.3-0.2-2.6-0.3-3.9c-1.8,0.5-3.7,1-5.5,1.5
				c0.8,1.4,1.7,2.8,2.5,4.1c1.6,2.7,5.2,1.3,5.5-1.5c0.1-0.7,0.2-1.4,0.2-2.2c-1.8,0.5-3.7,1-5.5,1.5c0.2,0.5,0.4,0.9,0.6,1.4
				c1.9-0.5,3.8-1.1,5.7-1.6c-1.1-3-1.8-5.9-1.9-9.1c-1.9,0.3-3.9,0.5-5.8,0.8c0.4,1.1,0.6,2.3,0.7,3.5c2,0,4,0,6,0
				c-0.7-5.4-0.5-11-0.4-16.4c0.1-4,0.3-7.2-3.6-9.3c-0.5,1.8-1,3.7-1.5,5.5c0.9,0.1,1.8,0.2,2.7,0.4c-0.3-1.9-0.5-3.9-0.8-5.8
				c-2.8,0.5-7.7-4.2-9.5-5.8c-2.6-2.2-6.2,0.5-4.7,3.6c1.7,3.5,4.7,8.1,5,12c1.8-0.5,3.7-1,5.5-1.5c-1-1.5-1.5-3.2-1.5-5
				c-1.7,0.7-3.4,1.4-5.1,2.1c2.5,3.2,2.1,8.2,1.8,11.9c1.9-0.3,3.9-0.5,5.8-0.8c-0.4-2.6-0.4-4.9,0-7.5c-1.8,0.2-3.6,0.5-5.4,0.7
				c1.3,2.2,1.2,4.2,0.9,6.7c1.9-0.3,3.9-0.5,5.8-0.8c-1.1-2.8-1.2-5-0.3-7.8c-1.9-0.3-3.9-0.5-5.8-0.8c0.3,4,0.1,7.8-0.2,11.8
				c2,0,4,0,6,0c0.1-1.1,0.1-2.3,0.2-3.4c-1.9,0.3-3.9,0.5-5.8,0.8c0.4,1.9,0.5,3.7,0.5,5.6c-0.1,3.9,5.7,3.8,6,0
				c0.2-2.5-0.7-4.2-2.3-6c-3.1-3.5-5-6-6.4-10.5c-1.1-3.7-6.6-2.2-5.7,1.6c0.4,1.8,1,3.5,1.5,5.3c0.9,3.6,0.3,4.5-1.7,7.4
				c-0.4,0.6-3.8,6.7-1.4,6.5c0.9,0.5,1.7,1,2.6,1.5c-1.8-3.2-2.1-8.7-2.4-12.2c-1.9,0.3-3.9,0.5-5.8,0.8c-0.1,0.7-0.1,1.5-0.2,2.2
				c1.9,0.3,3.9,0.5,5.8,0.8c0.2-5.7,1-11.2,2.3-16.6c-1.9-0.3-3.9-0.5-5.8-0.8c-0.1,3.5,0.2,6.9,0.8,10.4c0.6,3.3,5.9,2.5,5.8-0.8
				c0-1.8,0-3.4,0.3-5.2c-1.9,0-3.8,0-5.7,0c0.5,2.4,0.7,4.5,0.7,6.9c0.1,3.8,6,3.8,6,0c0-2.9-0.2-5.7-0.4-8.6c-0.3-3.8-6-3.9-6,0
				c0,1.7,0.3,3.3,0.8,5c1,3.2,5.8,2.6,5.8-0.8c0-2.3,0.1-4.6,0.1-7c-1.9,0.3-3.9,0.5-5.8,0.8c0.2,1.1,0.4,2.2,0.6,3.3
				c0.6,3.3,5.9,2.5,5.8-0.8c0-2-0.3-3.8-0.6-5.8c-0.6-3.3-6.1-2.6-5.8,0.8c0.3,4.3-2.7,7.2-4.5,10.8c1.8,0.5,3.7,1,5.5,1.5
				c0.1-0.4,0.1-0.8,0.2-1.2c1.6-3.4-3-6.2-5.1-3c-0.2,0.3-0.4,0.7-0.7,1c1.6-0.2,3.1-0.4,4.7-0.6c1.1,1.1,0.2,1.4,0.7-0.7
				c0.3-1.6,0.4-3.2,0.5-4.8c0.3-2.9,0.6-5.8,1-8.7c0.4-3.8-5.5-3.7-6,0c-0.2,1.7-0.2,3.2-0.1,4.9c0.4,3.8,5.6,3.8,6,0
				c0.3-2.6,0.7-5,1.3-7.5c-1.9,0-3.8,0-5.7,0c0.3,1.5,0.5,3.1,0.5,4.7c0.3,3.8,5.9,3.9,6,0c0-1.5,0-3.1,0.1-4.6
				c-1.9,0.3-3.9,0.5-5.8,0.8c0.3,1.6,0.5,3.3,0.7,4.9c0.4,3.8,5.8,3.9,6,0c0.1-1.8,0.1-3.6,0.2-5.5c-1.9,0.3-3.9,0.5-5.8,0.8
				c0.2,1.3,0.4,2.6,0.7,4c0.6,3.3,5.9,2.5,5.8-0.8c0-1.3-0.1-2.7-0.1-4c-2,0-4,0-6,0c0.2,1.5,0.4,2.7,0.8,4.2
				c0.9,3.4,5.6,2.4,5.8-0.8c0.1-0.8,0.1-1.6,0.2-2.4c-1.9,0.3-3.9,0.5-5.8,0.8c0.2,0.6,0.3,1.1,0.5,1.7c0.9,3.1,6.2,2.7,5.8-0.8
				c-0.4-3.2-0.9-6.4-1.6-9.5c-0.8-3.7-6.6-2.2-5.7,1.6c0.6,2.6,1.1,5.3,1.4,8c1.9-0.3,3.9-0.5,5.8-0.8c-0.2-0.6-0.3-1.1-0.5-1.7
				c-1-3.3-5.6-2.5-5.8,0.8c-0.1,0.8-0.1,1.6-0.2,2.4c1.9-0.3,3.9-0.5,5.8-0.8c-0.2-0.9-0.4-1.7-0.6-2.6c-0.5-3.7-6-4-6,0
				c0,1.3,0.1,2.7,0.1,4c1.9-0.3,3.9-0.5,5.8-0.8c-0.2-1.3-0.4-2.6-0.7-4c-0.6-3.4-5.7-2.4-5.8,0.8c-0.1,1.8-0.1,3.6-0.2,5.5
				c2,0,4,0,6,0c-0.2-2.2-0.5-4.3-0.9-6.5c-0.6-3.4-5.8-2.5-5.8,0.8c0,1.5,0,3.1-0.1,4.6c2,0,4,0,6,0c-0.2-2.1-0.4-4.2-0.8-6.2
				c-0.5-2.9-5.1-2.7-5.7,0c-0.7,3-1.2,6-1.5,9.1c2,0,4,0,6,0C71,89,71,87.6,71.2,85.8c-2,0-4,0-6,0c-0.5,4.2-0.9,8.4-1.4,12.5
				c-0.2,2.2-0.8,4.2,0.9,5.9c1.5,1.4,3.6,1,4.7-0.6c0.2-0.3,0.4-0.7,0.7-1c-1.7-1-3.4-2-5.1-3c-0.8,1.6-1,2.4-1,4.2
				c0,2.9,4.2,4.2,5.5,1.5c2.4-4.8,5.8-8.1,5.4-13.8C72.9,91.8,71,92,69,92.3c0.3,1.4,0.4,2.8,0.4,4.2c1.9-0.3,3.9-0.5,5.8-0.8
				c-0.2-1.1-0.4-2.2-0.6-3.3c-0.7-3.4-5.8-2.5-5.8,0.8c0,2.3-0.1,4.6-0.1,7c1.9-0.3,3.9-0.5,5.8-0.8c-0.5-1.1-0.6-2.2-0.6-3.4
				c-2,0-4,0-6,0c0.2,2.9,0.4,5.7,0.4,8.6c2,0,4,0,6,0c-0.1-2.9-0.4-5.6-0.9-8.4c-0.5-2.8-5.3-2.9-5.7,0c-0.3,2.3-0.5,4.4-0.5,6.7
				c1.9-0.3,3.9-0.5,5.8-0.8c-0.5-3-0.7-5.8-0.6-8.8c0.1-3.3-5-4.1-5.8-0.8c-1.5,6-2.3,12.1-2.5,18.2c-0.1,3.5,4.8,3.8,5.8,0.8
				c0.7-1.9,0.5-3.4,0.2-5.4c-0.5-3.3-6.1-2.5-5.8,0.8c0.4,4.8,0.8,11,3.2,15.2c0.5,0.8,1.6,1.6,2.6,1.5c2.1-0.2,2.9-0.9,3.9-2.7
				c1.4-2.6,1.5-4.8,3.3-7.1c4.1-5.4,1.7-11,0.2-16.9c-1.9,0.5-3.8,1.1-5.7,1.6c0.8,2.6,1.7,5.2,3.1,7.5c1.2,2,5.5,5.4,5.4,7.5
				c2,0,4,0,6,0c0-2.5-0.2-4.8-0.7-7.2c-0.7-3.4-5.7-2.4-5.8,0.8c-0.1,1.1-0.1,2.3-0.2,3.4c-0.2,3.9,5.7,3.8,6,0
				c0.3-4,0.5-7.8,0.2-11.8c-0.3-3.3-4.7-4.1-5.8-0.8c-1.3,3.7-1.2,7.3,0.3,11c1.3,3.1,5.5,2.7,5.8-0.8c0.4-3.5,0-6.6-1.8-9.7
				c-1.2-2-5-1.9-5.4,0.7c-0.5,3.7-0.6,7,0,10.6c0.5,3.5,5.6,2.3,5.8-0.8c0.5-5.7,0-11.5-3.6-16.1c-1.6-2-5.2-0.3-5.1,2.1
				c0.2,3,0.8,5.4,2.3,8c1.4,2.4,5.8,1.5,5.5-1.5c-0.5-5.2-3.6-10.3-5.8-15c-1.6,1.2-3.1,2.4-4.7,3.6c4.2,3.6,9.4,8.4,15.3,7.3
				c3.6-0.6,2.2-5.5-0.8-5.8c-0.9-0.1-1.8-0.2-2.7-0.4c-3-0.4-3.9,4.2-1.5,5.5c1.8,1,0.6,8.8,0.6,10.7c0,3.3,0,6.6,0.4,9.8
				c0.5,3.7,6.3,3.9,6,0c-0.1-1.8-0.4-3.4-0.9-5.1c-0.9-3.2-6-2.6-5.8,0.8c0.2,3.7,0.8,7.2,2.1,10.7c1.3,3.5,6.8,2.2,5.7-1.6
				c-0.3-1.2-0.6-1.8-1.2-2.8c-1.6-2.7-5.2-1.3-5.5,1.5c-0.1,0.7-0.2,1.4-0.2,2.2c1.8-0.5,3.7-1,5.5-1.5c-0.8-1.4-1.7-2.8-2.5-4.1
				c-1.4-2.4-5.8-1.6-5.5,1.5c0.1,1.3,0.2,2.6,0.3,3.9c1.9-0.3,3.9-0.5,5.8-0.8c-1.1-3.3-1.8-7.8-5.9-8.1c-1-0.1-2.2,0.6-2.6,1.5
				c-1.3,2.7-0.6,5.7,1.1,8.1c2,2.7,6.2,1.2,5.4-2.3c-0.7-3.2-2.7-8.9-7.1-6.9c-4.4,1.9-2.3,7.6,0.3,10c1.8,1.7,5.2,0.6,5.1-2.1
				c-0.2-3.8-1-11.8-6.8-10c-5.1,1.6-4.4,8.1-1.6,11.3c1.6,1.8,4.3,0.7,5-1.3c1.3-4.2,0.2-15.7-6.7-10.5c-4.1,3-2.2,12.4,3.6,10
				c4.9-2,3.9-13.1-1.7-13.4c-6.3-0.3-5.3,10.3-1.6,12.8c1,0.7,2.8,0.5,3.6-0.5c2.8-3.5,2.4-14.1-3.2-14.9c-1.4-0.2-2.5,0.2-3.4,1.4
				c-2.1,3.1-1.9,15.5,4.5,12.2c4.4-2.2,3.4-13.4-1.4-14.7c-7-1.8-7.8,10.2-7.1,14.3c1.6,9.2,9.5,10.2,17.7,9.7
				c-0.5-1.8-1-3.7-1.5-5.5c0.5-0.1,1-0.1,1.5-0.2c-0.3,1.9-0.5,3.9-0.8,5.8c1.6-0.1,3.1,0,4.7,0.4c2.9,0.6,4.9-2.7,2.9-5
				c-0.6-0.9-1.4-1.6-2.3-2.2c-1,1.7-1.9,3.3-2.9,5c0.4,0.1,0.7,0.3,1.1,0.4C91.8,128.2,93.4,122.4,89.8,121.1L89.8,121.1z"/>
		</g>
	</g>
	<g>
		<g>
			<path class="st0" d="M78.3,93c-0.3-0.4-0.6-0.7-1-1.1c-2-3.3-6.8-0.4-5.1,3c0,0.1,0,0.1,0.1,0.2c0.7-1.2,1.4-2.4,2.1-3.7
				c-0.2,0-0.3,0.1-0.5,0.1c1,0.3,1.9,0.5,2.9,0.8c-1.4-1.1-2.1-3.3-2.6-4.8c-1-2.7-4.9-3-5.7,0c-1,1.7-0.2,2.8,2.3,3.2
				c-0.2-0.7-0.4-1.4-0.6-2.1c-0.6-2.3-4.3-3.1-5.4-0.7c-0.3,0.7-0.7,1.4-1,2.2c1.8,0.5,3.7,1,5.5,1.5c0.8-8.4,3.9-16.8,4.2-25.2
				c0-1.5-1.4-3.1-3-3c-3.8,0.2-4.8,2.9-5.2,6.3c-0.4,3.6-2.2,9.1,0.6,12.1c0.7,0.8,1.9,1.1,2.9,0.8c3.1-0.9,3.6-4.4,4.3-7.2
				c-1.9,0-3.8,0-5.7,0c0.5,1.1,0.9,2.2,1.2,3.4c0.9,3.5,5.4,2.3,5.8-0.8c0.5-4.1-0.1-8.1,0.1-12.2c0.2-3.8-5.7-3.8-6,0
				c-0.3,4.1,0.4,8.1-0.1,12.2c1.9-0.3,3.9-0.5,5.8-0.8c-0.2-1.2-0.6-2.3-1.2-3.4c-1-2.5-4.9-3.1-5.7,0c-0.1,0.3-1.4,3.4-0.2,3
				c1,0.3,1.9,0.5,2.9,0.8c0.1,0.1,0.7-4,0.8-4.5c0.1-0.8,0.2-1.7,0.3-2.5c0.7-1.9,0.5-2.3-0.7-1.2c-1-1-2-2-3-3
				c-0.1,4.4-1.7,8.9-2.5,13.2c-0.7,4-1.3,8-1.7,12c-0.3,2.9,4.4,4.2,5.5,1.5c0.3-0.7,0.6-1.4,1-2.2c-1.8-0.2-3.6-0.5-5.4-0.7
				c0.7,2.5,1.4,5.6,4.7,5.6c3.6,0,4.3-3.9,5.1-6.7c-1.9,0-3.8,0-5.7,0c1.2,3.3,3,9.2,7.6,8.1c1.6-0.4,2.4-2.1,2.1-3.7
				c-0.1-0.6-0.4-1.1-0.7-1.6c-1.7,1-3.4,2-5.1,3c0.6,1,1,1.5,1.9,2.3C77,99.7,81.2,95.5,78.3,93L78.3,93z"/>
		</g>
	</g>
	<g>
		<g>
			<path class="st0" d="M97.8,40.8c0,1.2,0.1,2.3,0.5,3.4c0.7,2.2,4.4,3.2,5.4,0.7c0.6-1.4,0.8-0.8,2.2-0.4c0.6,0.1,1.1,0.2,1.7,0.3
				c0.6,0.2,0.9,0.5,1.6,0.8c3.4,1.7,6.4-3.4,3-5.1c-1.2-0.6-1.9-1.2-3.3-1.5c-1.3-0.2-2.5-0.7-3.8-0.9c-2.8-0.4-5.5,1.1-6.6,3.7
				c1.8,0.2,3.6,0.5,5.4,0.7c-0.2-0.7-0.3-1.1-0.3-1.8C103.9,37,97.9,37,97.8,40.8L97.8,40.8z"/>
		</g>
	</g>
	<g>
		<g>
			<path class="st0" d="M131.6,80.2c1.5-7.6,1.7-15.3,0.2-23c-0.7-3.4-1.6-6.9-3.1-10c-1.7-3.5-4.2-6.4-5.4-10.2
				c-1.8,0.8-3.6,1.5-5.4,2.3c1.5,2.4,3.8,4,5.1,6.5c1.5,3,2.1,6.4,2.7,9.6c0.6,3.3,5.9,2.5,5.8-0.8c0-1.8-0.3-3.3-0.8-5
				c-1-3.7-6.6-2.1-5.7,1.6c2.5,10.8,2,21.8,4.1,32.6c0.7,3.8,6.3,2.1,5.7-1.6c-0.4-2.8-0.8-5.6-1.2-8.3c-1.8,0.8-3.6,1.5-5.4,2.3
				c1,1.6,0.4,3.4,0.6,5.1c0.2,1.7,0.8,3.2,0.6,4.9c1.5-0.9,3-1.7,4.5-2.6c-0.3-0.2-0.6-0.4-0.9-0.6c-2.1-1.4-5.3,0.9-4.4,3.4
				c0.2,0.4,0.3,0.9,0.5,1.3c1-1.3,1.9-2.5,2.9-3.8c0.3,0,0.5,0.1,0.8,0.1c-0.7-3.8-6.3-2.1-5.7,1.6c-0.5-2.8,2-1.7-0.3-1
				c-0.2,0.1-1.2,1.3-0.8,1.1c1.2,0.2,2.4,0.3,3.6,0.5c0.8,0.8,1.9-3.8,2.2-4.6c1.6-3.5-3.6-6.5-5.1-3c-1.5,3.2-4.3,8.7-1.3,11.8
				c1,1,2.4,1.1,3.6,0.5c1.5-0.7,2.3-1.8,2.7-3.4c-0.7,0.7-1.4,1.4-2.1,2.1c2.7-1,3.6-2.8,3.2-5.5c-1.9,0.5-3.8,1.1-5.7,1.6
				c0.5,2.6,2.2,4.4,4.9,4.3c1.8-0.1,3.6-1.8,2.9-3.8c-0.2-0.4-0.3-0.9-0.5-1.3c-1.5,1.1-2.9,2.2-4.4,3.4c0.3,0.2,0.6,0.4,0.9,0.6
				c2,1.3,4.3-0.5,4.5-2.6c0.2-2.7-0.4-5.7-0.7-8.4c-0.2-1.8-0.4-3.2-1.4-4.7c-1.9-3.1-5.9-0.9-5.4,2.3c0.4,2.8,0.8,5.6,1.2,8.3
				c1.9-0.5,3.8-1.1,5.7-1.6c-2.1-10.8-1.6-21.8-4.1-32.6c-1.9,0.5-3.8,1.1-5.7,1.6c0.4,1.1,0.6,2.3,0.6,3.4
				c1.9-0.3,3.9-0.5,5.8-0.8c-0.6-3.3-1.3-6.6-2.7-9.8c-1.4-3.2-3.9-5-5.7-7.8c-1.7-2.8-6.5-1-5.4,2.3c1.8,6,6.1,10.6,7.7,16.7
				c2,7.7,2.1,15.6,0.6,23.3C125.2,82.4,130.9,84,131.6,80.2L131.6,80.2z"/>
		</g>
	</g>
	<g>
		<g>
			<path class="st0" d="M125.6,83.4c-3.1,3-6.4,5.6-10.1,7.7c-2.7,1.5-4.1,1.8-4.5,5c-1.1,8.1,1.6,17.3-1,25
				c1.9,0.3,3.9,0.5,5.8,0.8c0.3-2.4,0.5-4.8,0.8-7.2c0.4-3.3-5.3-4.1-5.8-0.8c-0.7,4.3-1.6,8.4-2.7,12.6c-0.6,2.2,1.5,4.2,3.7,3.7
				c1.6-0.4,3.3-0.8,4.9-1.1c-0.8-1.8-1.5-3.6-2.3-5.4c-0.3,0.2-0.7,0.3-1,0.5c-3.1,1.5-0.9,6.2,2.3,5.4c2-0.5,3.9-0.9,5.9-1.2
				c-0.5-1.9-1.1-3.8-1.6-5.7c-0.9,0.3-1.7,0.6-2.6,1c1.2,1.2,2.4,2.4,3.7,3.7c0.9-1.5,0.6-1.9-1-1.3c-0.5-0.9-1-1.7-1.5-2.6
				c-0.2,0.6-0.3,1.3-0.5,1.9c-0.5,2.3,2.1,5.1,4.4,3.4c1-0.9,2.2-1.5,3.5-1.7c-1.1-1.5-2.2-2.9-3.4-4.4c0.2-0.1,0.4-0.3,0.6-0.4
				c0.8,1.8,1.5,3.6,2.3,5.4c1-0.8,2-1.6,3.1-2.4c-1.5-1.1-2.9-2.2-4.4-3.4c-0.1,0.4-0.1,0.9-0.2,1.3c-0.5,3.2,3.5,5.4,5.4,2.3
				c1.3-2,2.2-4.1,3-6.4c-1.9-0.3-3.9-0.5-5.8-0.8c-0.2,0.7-0.4,1.4-0.6,2.1c-1.2,3.1,4.1,5.4,5.4,2.3c1.3-2.9,2.6-5.7,3.2-8.8
				c0.8-4,0.2-8.1,0.8-12.1c-1.9-0.3-3.9-0.5-5.8-0.8c0.2,1.6,0.3,3,0.2,4.6c2,0,4,0,6,0c-0.2-5.6-0.3-11.1-0.4-16.7
				c0-3.1-3.9-3.8-5.5-1.5c-3.7,5.2-6.5,10.7-8.8,16.7c1.9,0.3,3.9,0.5,5.8,0.8c0.2-3,1-5.5,2.4-8.1c-1.8-0.8-3.6-1.5-5.4-2.3
				c-0.8,4.4-2.2,8.3-4.4,12.3c1.8,0.5,3.7,1,5.5,1.5c-0.5-4.1,0.8-7.6,2.4-11.4c1.2-2.8-3.1-5-5-2.9c-1.7,1.8-2.5,4.4-4.4,6
				c1.7,0.7,3.4,1.4,5.1,2.1c0.1-2.7,0.9-4.5,2.6-6.5c-1.7-1-3.3-1.9-5-2.9c-0.7,2.5-1.9,4.4-3.8,6.3c1.7,1,3.3,1.9,5,2.9
				c0.4-2.4,1.7-3.9,3.4-5.6c-1.6-1.2-3.1-2.4-4.7-3.6c-0.9,1.6-1.9,2.8-3.3,3.9c1.7,1,3.3,1.9,5,2.9c0.2-1.3,0.8-2.2,1.8-2.8
				c-1.7-1-3.3-1.9-5-2.9c-0.5,0.7-1,1.5-1.5,2.2c1.4,1.4,2.7,2.7,4.1,4.1c1.4-2.8,3.1-4.6,5.8-6.2c-1.5-1.1-2.9-2.2-4.4-3.4
				c-0.2,1.7-1.1,3.1-2.6,4.1c1.5,1.1,2.9,2.2,4.4,3.4c0.1-1.4,0.6-2.5,1.7-3.4c-1.1-0.5-2.2-0.9-3.4-1.4c0.5,0.7-2.5,7.1-3,8.4
				c-1.3,3.2-2.5,6.4-3.8,9.6c1.9,0.3,3.9,0.5,5.8,0.8c0.3-3.7,1.2-7.1,2.4-10.6c-1.9-0.5-3.8-1.1-5.7-1.6
				c-1.4,4.4-2.4,8.9-3.2,13.5c1.9,0.3,3.9,0.5,5.8,0.8c-0.1-4.2,0.1-8.4,0.5-12.6c0.4-3.8-5.5-3.7-6,0c-0.5,4.3-1,8.5-1.6,12.8
				c1.9-0.3,3.9-0.5,5.8-0.8c-0.5-3.4-0.9-6.6-0.1-10c-1.9-0.3-3.9-0.5-5.8-0.8c0,3.1,0.1,6.1,0.1,9.2c0,2.8,0.5,6.4-0.2,9.1
				c0.7-0.7,1.4-1.4,2.1-2.1c-0.1,0-0.2,0.1-0.3,0.1c1,0.3,1.9,0.5,2.9,0.8c-0.1-0.1-0.2-0.1-0.3-0.2c-1,1.7-1.9,3.3-2.9,5
				c-0.5-0.8-1-1.6-1.4-2.4c1.9,0.3,3.9,0.5,5.8,0.8c0.2-1.4,1-6.8,2.8-7.5c-1.3-1-2.5-1.9-3.8-2.9c-0.1,3.1-0.6,5.9-1.6,8.8
				c1.9,0.3,3.9,0.5,5.8,0.8c0.6-5.8,2.5-11.2,5.5-16.2c-1.8-0.8-3.6-1.5-5.4-2.3c-1.2,5.1-2.3,10.3-3.5,15.4
				c1.9,0.5,3.8,1.1,5.7,1.6c0.5-3.8,1.1-7.4,3-10.8c-1.8-0.8-3.6-1.5-5.4-2.3c-0.7,3.2-1.3,6.4-1.8,9.6c-0.4,2.1,0.8,3.5,2.9,3.8
				c4.1,0.5,4.4-4.5,4.8-7.3c0.9-6.3,1.6-12.6,2.2-18.9c0.5-6,1.6-11.7,2.4-17.5c0.3-2.1,1.1-3.9,0.9-6c-0.3-2.6-1.3-5.4-1.9-7.9
				c-0.9-3.7-6.7-2.1-5.7,1.6c0.5,2,1.4,4.3,1.6,6.3c0.2,1.9-0.7,3.7-0.9,5.6c-0.4,3.9-1.5,7.6-1.8,11.5c-0.4,4.4-0.6,8.8-1.1,13.2
				c-0.3,2.6-0.6,5.1-0.9,7.6c-0.2,1.6-0.4,3.3-0.7,4.9c-0.8,2.2-0.4,2.5,1.2,1c1,1.3,1.9,2.5,2.9,3.8c0.6-3.2,1.2-6.4,1.8-9.6
				c0.7-3.2-3.7-5.4-5.4-2.3c-2.1,3.9-3,7.9-3.6,12.2c-0.5,3.7,4.9,5.4,5.7,1.6c1.2-5.1,2.3-10.3,3.5-15.4c0.7-3.2-3.7-5.3-5.4-2.3
				c-3.5,6-5.5,12.3-6.3,19.2c-0.4,3.5,4.8,3.8,5.8,0.8c1.2-3.4,1.7-6.8,1.8-10.4c0-1.8-2-3.6-3.8-2.9c-5,1.9-6.6,8.5-7.2,13.3
				c-0.4,3.6,4.7,3.7,5.8,0.8c0.9-2.3-0.5-4.3-2.7-4.9c-2.7-0.7-5.3,3.1-2.9,5c2.3,1.8,5,1,5.8-1.9c0.7-2.4,0.2-5.6,0.2-8.1
				c0-3.7,0-7.3,0-11c0-3.3-5.1-4.1-5.8-0.8c-1,4.5-0.6,8.7,0.1,13.2c0.6,3.6,5.5,2.2,5.8-0.8c0.5-4.3,1-8.5,1.6-12.8c-2,0-4,0-6,0
				c-0.4,4.2-0.6,8.4-0.5,12.6c0.1,3.2,5.3,4.2,5.8,0.8c0.7-4.6,1.8-9.1,3.2-13.5c1.2-3.7-4.5-5.2-5.7-1.6c-1.4,4-2.2,8-2.6,12.2
				c-0.3,3.6,4.7,3.6,5.8,0.8c1.8-4.5,3.8-9,5.3-13.6c0.8-2.4,2.7-6.6,0.9-9c-0.8-1.1-2-1.8-3.4-1.4c-3.4,0.9-5.1,4.3-5.8,7.5
				c-0.5,2.3,2.1,5,4.4,3.4c2.8-2.1,4.5-4.3,5.3-7.7c0.6-2.5-2.1-4.7-4.4-3.4c-3.5,2-6.1,4.7-7.9,8.3c-1.2,2.4,1.4,5.9,4.1,4.1
				c2.2-1.6,3.5-3.1,4.2-5.8c0.9-3.1-2.8-4.7-5-2.9c-1.8,1.5-2.8,3.2-3.3,5.4c-0.8,3.1,2.7,4.7,5,2.9c1.9-1.5,3.1-3.1,4.3-5.1
				c1.6-2.9-2.2-6.1-4.7-3.6c-2.4,2.4-4.4,4.8-4.9,8.2c-0.4,2.8,2.7,5.1,5,2.9c2.6-2.5,4.3-5.4,5.3-8.9c0.8-2.8-2.9-5.1-5-2.9
				c-2.8,3.1-4.2,6.5-4.4,10.7c-0.1,2.8,3.2,3.6,5.1,2.1c2.1-1.6,2.7-4,4.4-6c-1.7-1-3.3-1.9-5-2.9c-1.8,4.3-3.2,8.3-2.6,13
				c0.3,2.7,4,4.3,5.5,1.5c2.4-4.3,4-8.8,5-13.7c0.6-3.1-3.7-5.4-5.4-2.3c-1.9,3.5-2.9,7.1-3.2,11.1c-0.2,3.6,4.7,3.7,5.8,0.8
				c2.1-5.4,4.9-10.5,8.2-15.3c-1.8-0.5-3.7-1-5.5-1.5c0,5.6,0.2,11.1,0.4,16.7c0.1,3.8,5.8,3.8,6,0c0-1.6,0-3-0.2-4.6
				c-0.4-3-5.3-4.5-5.8-0.8c-0.5,3.1-0.3,6.2-0.5,9.3c-0.2,3.7-1.4,6.8-2.9,10.2c1.8,0.8,3.6,1.5,5.4,2.3c0.6-1.5,0.7-2.1,0.9-3.7
				c0.4-3.5-4.8-3.7-5.8-0.8c-0.7,1.8-1.4,3.3-2.4,5c1.8,0.8,3.6,1.5,5.4,2.3c0.1-0.4,0.1-0.9,0.2-1.3c0.3-2.2-2-5.1-4.4-3.4
				c-1,0.8-2,1.6-3.1,2.4c-2.5,1.9-1.2,6.4,2.3,5.4c1.5-0.4,2.2-1,3-2.3c1.3-2.3-0.8-5-3.4-4.4c-1.9,0.5-3.3,1.1-4.9,2.3
				c1.5,1.1,2.9,2.2,4.4,3.4c0.6-2.7,1.3-5.9-2.2-6.9c-3.8-1.1-5.5,2.9-6.4,5.7c-0.6,2,1.5,4.5,3.7,3.7c0.9-0.3,1.7-0.6,2.6-1
				c3.6-1.4,2.2-6.3-1.6-5.7c-2,0.3-4,0.7-5.9,1.2c0.8,1.8,1.5,3.6,2.3,5.4c0.3-0.2,0.7-0.3,1-0.5c3.2-1.5,0.8-6.1-2.3-5.4
				c-1.7,0.3-3.3,0.7-4.9,1.1c1.2,1.2,2.4,2.4,3.7,3.7c1.1-4.2,2-8.3,2.7-12.6c-1.9-0.3-3.9-0.5-5.8-0.8c-0.3,2.4-0.5,4.8-0.8,7.2
				c-0.4,3.5,4.8,3.8,5.8,0.8c1.5-4.4,1.1-8.6,0.9-13.1c-0.2-4.8,0.1-9.6,0.4-14.4c-0.5,0.9-1,1.7-1.5,2.6c5.3-2.6,10.1-6,14.3-10.1
				C132.6,85,128.4,80.8,125.6,83.4L125.6,83.4z"/>
		</g>
	</g>
	<g>
		<g>
			<path class="st0" d="M72.3,65.7c0.1-1.8,0.1-3.6,0.2-5.5c0.1-3.3-5.2-4.1-5.8-0.8c-0.4,1.9-0.7,3.7-0.9,5.6
				c1.9-0.3,3.9-0.5,5.8-0.8c-0.3-1.8-0.1-3.5,0.7-5.1c-1.9,0-3.8,0-5.7,0c0.5,2.7,0.9,5.4,1.4,8c0.5,2.8,5.3,2.8,5.7,0
				c0.7-4.4,1.5-8.8,2.8-13.1c0.7-2.4,1.8-4.7,2.7-7c1.1-2.5,1.1-2.2,3.8-1.9c0-2,0-4,0-6c-0.5,0-0.9-0.1-1.4-0.1
				c-2.3-0.2-3.6,2.7-2.6,4.5c2.7,4.7,10.7,1.7,15.1,1.8c0-2,0-4,0-6c-1.8,0.1-3.5,0.1-5.3,0.2c0.3,1.9,0.5,3.9,0.8,5.8
				c2.7-0.9,5.3-1.7,8-2.4c-1.3-1-2.5-1.9-3.8-2.9c-0.3,0.3-0.6,0.5-0.9,0.7c-2.3,1.8,0.2,6,2.9,5c0.9-0.4,1.8-0.7,2.7-0.9
				c2.3-0.1,2.7-0.3,1-0.8c0-1.4,0-2.8,0-4.2c1.3-1.5-0.7-0.8-1.7-0.5c-3.1,0.8-2.6,6.2,0.8,5.8c0.7-0.1,3.8-1,4.2-0.5
				c0.2-1.6,0.4-3.1,0.6-4.7c-0.1,0.1-0.2,0.1-0.2,0.2c1.2,0.2,2.4,0.3,3.6,0.5c-0.1-0.1-0.1-0.1-0.2-0.2c-0.4,1.7-0.9,3.3-1.3,5
				c0.9-0.3,11-0.9,10.8-1.5c1.2-1.2,2.4-2.4,3.7-3.7c-2-0.8-3.7,0-5.5-1.2c-1.7-1.1-2.7-2.3-4.8-2.9c-2-0.5-4-0.2-6,0
				c-1.8,0.2-10.5,0.1-10.5,2.1c-0.5,0.9-1,1.7-1.5,2.6c0.2,0.1,0.5,0.1,0.7,0.2c0-1.9,0-3.8,0-5.7c-1.5,0.5-3,1-4.6,1.3
				c-0.8,0.1-1.6,0.2-2.4,0.3c-1.8,0-2.1,0.1-0.9,0.2c0.5,0.9,1,1.7,1.5,2.6c-0.1,0.3-0.3,0.6-0.4,0.9c-0.7-1.7-1.4-3.4-2.1-5.1
				c-1.2,1.3-2.4,2-4.1,2.4c1.2,1.2,2.4,2.4,3.7,3.7c0.6-0.6,1.2-1.2,1.8-1.8c-1.4-1.4-2.7-2.7-4.1-4.1c-0.5,1.4-1.5,2.2-3,2.4
				c1.2,1.2,2.4,2.4,3.7,3.7c0.3-0.3,0.6-0.6,0.9-0.9c-1.4-1.4-2.7-2.7-4.1-4.1c-0.3,0.4-0.6,0.8-0.9,1.1c1,0.3,1.9,0.5,2.9,0.8
				c-0.1-0.2-0.3-0.3-0.4-0.5c0.3,1,0.5,1.9,0.8,2.9c-0.2,0.2-0.3,0.3-0.5,0.5c-1.1-1.5-2.2-2.9-3.4-4.4c-0.2,0.1-0.3,0.2-0.5,0.4
				c1.5,0.9,3,1.7,4.5,2.6c-0.2,0.4-0.5,0.7-0.7,1.1c-1.2-1.2-2.4-2.4-3.7-3.7c-0.5,0.5-1.1,1.1-1.6,1.6c1.5,1.1,2.9,2.2,4.4,3.4
				c0.2-0.3,0.3-0.5,0.5-0.8c-1.2-1.6-2.4-3.1-3.6-4.7c-0.8,1-1.7,1.8-2.7,2.5c1.4,1.4,2.7,2.7,4.1,4.1c0.2-0.2,0.5-0.4,0.7-0.6
				c-1.4-1.4-2.7-2.7-4.1-4.1c-0.5,0.6-0.9,1.2-1.4,1.8c1.6,1.2,3.1,2.4,4.7,3.6c0.3-0.5,0.6-0.9,0.9-1.4c-1.4-1.4-2.8-2.8-4.2-4.2
				c-0.6,0.7-1,1.3-1.2,2.2c1.2-0.7,2.4-1.4,3.7-2.1c-0.1,0-0.1,0-0.2-0.1c0.7,1.2,1.4,2.4,2.1,3.7c0-0.1,0-0.1,0-0.2
				c0.6-3.2-3.7-5.4-5.4-2.3c-0.7,1.2-1.4,2.3-2.3,3.4c1.8,0.8,3.6,1.5,5.4,2.3c0.2-0.6,0.4-1.1,0.7-1.7c1.7-3.4-3.2-6.3-5.1-3
				c-0.7,1.1-1.2,2.2-1.8,3.4c1.8,0.8,3.6,1.5,5.4,2.3c0.2-0.3,0.4-0.6,0.6-0.9c-1.8-0.8-3.6-1.5-5.4-2.3c-0.4,1.4-0.9,2.8-1.5,4.2
				c-1.3,3.1,3.8,5.2,5.4,2.3c0.2-0.4,0.4-0.8,0.7-1.2c-1.8-0.8-3.6-1.5-5.4-2.3c-0.5,1.4-1,2.8-1.6,4.2c1.9,0.5,3.8,1.1,5.7,1.6
				c0.3-0.7,0.5-1.4,0.8-2.2c-1.9-0.5-3.8-1.1-5.7-1.6c-0.4,2.1-1.1,3.9-2.3,5.7c1.8,0.8,3.6,1.5,5.4,2.3
				c2.1-6.3,6.8-10.7,11.5-15.1c2.1-1.9-0.1-6.1-2.9-5c-0.6,0.2-1.1,0.4-1.7,0.5c0.9,1.5,1.7,3,2.6,4.5c0.4-1.3,1.2-2.2,2.5-2.7
				c-1-1.7-2-3.4-3-5.1c-0.2,0.1-0.5,0.2-0.7,0.3c1,0.3,1.9,0.5,2.9,0.8c-0.2-0.2-0.4-0.4-0.5-0.6c0.2,1.2,0.3,2.4,0.5,3.6
				c0.1-0.2,0.2-0.4,0.3-0.6c1.1-2.4-1.4-6-4.1-4.1c-1,0.7-1.6,1.2-2.5,2.1c-2.1,2.4,0.8,6.8,3.6,4.7c3.4-2.6,7.1-4.5,11.3-5.4
				c1.9-0.4,4.4,0,6.2-0.6c1.5,0.6,2.1,0.1,1.8-1.5c-1.3,0-2.5-0.2-3.7-0.7c0,1.9,0,3.8,0,5.7c-0.3-0.1-0.6-0.3-0.9-0.4
				c-0.5-0.9-1-1.7-1.5-2.6c0,0.2,0,0.3,0,0.5c0.5-0.9,1-1.7,1.5-2.6c-1.9,1.4-6.7,0.1-9.2,1c0.5,1.9,1.1,3.8,1.6,5.7
				c4.7-1.8,8.9-3,13.9-1.6c1.6,0.4,3,1,4.6,0.9c1.8-0.1,3.2-1.1,5-0.9c2.9,0.3,4.1-4.3,1.5-5.5c-2.6-1.3-5.2-2.6-7.7-4.2
				c-0.8,1.8-1.5,3.6-2.3,5.4c2.3,0.4,4.6,0.8,6.8,1.4c1,0.3,2,0.6,3,1c0.6,0.2,1.1,0.4,1.6,0.7c1.3,0.9,2.7,0.8,4.3-0.2
				c-3.7-0.6-5.4,5.1-1.6,5.7c4.7,0.8,6.7-3.8,4.1-7.4c-3.6-4.9-11.2-6-16.7-7c-3.2-0.6-5.3,3.6-2.3,5.4c2.5,1.5,5.1,2.9,7.7,4.2
				c0.5-1.8,1-3.7,1.5-5.5c-1.8-0.2-2.9,0.6-4.5,0.7c-2.5,0.3-5.1-1.1-7.5-1.4c-4.5-0.5-8.9,0.8-13.1,2.4c-3.5,1.4-2,7.1,1.6,5.7
				c3.3-1.3,10,1.2,11.8-3c1.5-3.3-2.1-5.4-4.9-4.4c-2.8,1-2.9,4.7,0,5.7c3.2,1.1,8.9,1.8,11.5-1.2c2.2-2.6,0.6-6.1-2.2-7.4
				c-8-3.7-19.9,1.1-26.3,5.9c1.2,1.6,2.4,3.1,3.6,4.7c0.4-0.4,0.9-0.8,1.3-1.2c-1.4-1.4-2.7-2.7-4.1-4.1c-0.1,0.2-0.2,0.4-0.3,0.6
				c-0.6,1.3-0.5,2.6,0.5,3.6c1.6,1.7,3.7,1.8,5.6,0.4c3-2.2,0.4-7-3-5.1c-2.1,1.2-3.6,2.6-4.6,4.9c-0.9,1.8,0.1,4.8,2.6,4.5
				c1.3-0.2,2-0.2,3.3-0.7c-1-1.7-1.9-3.3-2.9-5C74,42.7,69,48,66.5,55.3c-1.1,3.3,3.7,5,5.4,2.3c1.5-2.2,2.4-4.5,2.9-7.2
				c0.7-3.8-4.4-5.2-5.7-1.6c-0.3,0.7-0.5,1.4-0.8,2.2c-1.3,3.7,4.3,5,5.7,1.6c0.6-1.4,1.1-2.8,1.6-4.2c1.1-3.2-3.8-5.2-5.4-2.3
				c-0.2,0.4-0.4,0.8-0.7,1.2c1.8,0.8,3.6,1.5,5.4,2.3c0.6-1.4,1-2.7,1.5-4.2c1-3.4-3.6-5-5.4-2.3c-0.5,0.8-0.8,1.5-1.2,2.4
				c-1.2,3.1,4,5.4,5.4,2.3c0.5-1.2,1.1-2.3,1.8-3.4c-1.7-1-3.4-2-5.1-3c-0.5,1.1-0.9,1.9-1.3,3.1c-1.1,3.5,3.5,4.8,5.4,2.3
				c0.8-1.1,1.6-2.2,2.3-3.4c-1.8-0.8-3.6-1.5-5.4-2.3c0,0.1,0,0.1,0,0.2c-0.3,1.6,0.4,3.2,2.1,3.7c0.1,0,0.1,0,0.2,0.1
				c1.5,0.4,3.3-0.5,3.7-2.1c-0.1,0.1-0.2,0.3-0.4,0.4c2.4-2.9-1.7-7.2-4.2-4.2c-0.8,0.9-1.2,1.5-1.8,2.6c-1.5,2.9,2.3,6.1,4.7,3.6
				c1-1,1.5-1.8,2.3-3c1.6-2.4-1.6-5.7-4.1-4.1c-1.3,0.9-1.9,1.5-2.9,2.8c-1.8,2.4,1.7,5.8,4.1,4.1c1.4-1.1,2.7-2.1,3.9-3.4
				c2.1-2.4-0.7-6.8-3.6-4.7c-1.7,1.2-2.6,2.4-3.3,4.4c-0.8,2.6,2.2,4.6,4.4,3.4c2.3-1.3,3.4-2.8,4.3-5.2c0.9-2.2-1.7-4.2-3.7-3.7
				c-2.5,0.6-3.5,2.2-3.7,4.6c-0.2,2.3,2.6,3.6,4.5,2.6c1.3-0.7,1.8-1.3,2.6-2.5c1.3-2.1-0.9-5.3-3.4-4.4c-3.3,1.2-4.8,4.1-2.5,7.1
				c0.7,0.8,1.9,1,2.9,0.8c2.1-0.4,3.5-2.1,4.5-3.9c1.4-2.7-1.4-5.4-4.1-4.1c-2,1-3,2.3-3.6,4.5c-0.7,2.2,1.5,4.2,3.7,3.7
				c3-0.7,5.1-2.4,6.6-5.1c1.5-2.8-1.4-5.2-4.1-4.1c-2.5,1.1-3.8,2.8-4.5,5.4c-0.7,2.3,1.5,4.1,3.7,3.7c2.7-0.6,4.8-1.8,6.7-3.9
				c1.5-1.7,0.7-5.4-2.1-5.1c-3.1,0.3-7.4,3.3-4.9,6.8c2.5,3.5,10.3,0.5,13.3-0.5c2.9-1,2.7-4.7,0-5.7c-6.8-2.7-9.5,6.8-1.9,7.6
				c2.7,0.3,5.5,0,8.1-0.3c2.3-0.2,5.2-1.2,7.5-0.7c2.6,0.5,3,2.6,5.1,3.7c1.8,0.9,3.9-0.3,5.6,0.4c2.2,0.9,4.2-1.7,3.7-3.7
				c-0.7-2.6-2.5-3.3-5.1-3.5c-4.2-0.3-9.1-0.3-13.1,0.9c-2.2,0.7-2.9,3.3-1.3,5c0.1,0.1,0.1,0.1,0.2,0.2c0.8,0.9,2.6,1.2,3.6,0.5
				c0.1-0.1,0.2-0.1,0.2-0.2c1.6-1.2,1.9-3.1,0.6-4.7c-2.5-2.8-5.3-1.6-8.5-1.2c0.3,1.9,0.5,3.9,0.8,5.8c1.7-0.5,2.6,1,4.3-1
				c1-1.2,1.2-3,0-4.2c-2.4-2.5-6.7-0.9-9.5,0.1c1,1.7,1.9,3.3,2.9,5c1.8-1.5,2.6-2.6,2.6-5c0-2-1.9-3.3-3.8-2.9
				c-2.7,0.7-5.4,1.5-8,2.4c-3.1,1-2.7,6,0.8,5.8c1.8-0.1,3.5-0.1,5.3-0.2c3.8-0.1,3.8-5.9,0-6c-0.4,0-10.4,0.4-10,1.1
				c-0.9,1.5-1.7,3-2.6,4.5c0.5,0,0.9,0.1,1.4,0.1c3.8,0.4,3.7-5.5,0-6c-2.2-0.3-4.1-0.7-6,0.6c-2.2,1.5-3.4,4.9-4.4,7.2
				C70.2,53.1,69,59.4,68,65.7c1.9,0,3.8,0,5.7,0c-0.5-2.7-0.9-5.4-1.4-8c-0.5-3.1-4.9-2.5-5.7,0c-1,2.9-1.1,5.3-0.7,8.2
				c0.5,3.6,5.5,2.3,5.8-0.8c0.1-1.4,0.3-2.7,0.6-4c-1.9-0.3-3.9-0.5-5.8-0.8c-0.1,1.8-0.1,3.6-0.2,5.5
				C66.2,69.5,72.2,69.5,72.3,65.7L72.3,65.7z"/>
		</g>
	</g>
	<g>
		<g>
			<g>
				<path class="st1" d="M129.5,125.2c-6.1,3.4-13.2,4.4-20.2,4c-0.8,0-0.8,1.1,0,1.2c7.2,0.4,14.4-0.6,20.8-4.1
					C130.8,125.9,130.2,124.8,129.5,125.2L129.5,125.2z"/>
			</g>
		</g>
		<g>
			<g>
				<path class="st1" d="M69.7,125.1c6.3,3.6,13.6,4.7,20.8,4.2c0.8,0,0.8-1.2,0-1.2c-7,0.4-14-0.6-20.2-4.1
					C69.7,123.7,69.1,124.7,69.7,125.1L69.7,125.1z"/>
			</g>
		</g>
		<g>
			<g>
				<g>
					<path class="st1" d="M70.4,124.2c-7.8-8.9-6.1-23.3-5.8-34.3C65,77,66.2,64.3,68.1,51.6c0.1-0.7-1-1.1-1.1-0.3
						c-2.2,14.1-3.4,28.2-3.6,42.4c-0.1,10.4-1.1,22.9,6.2,31.3C70.1,125.6,70.9,124.7,70.4,124.2L70.4,124.2z"/>
				</g>
			</g>
			<g>
				<g>
					<path class="st1" d="M68,52.9c2.9-15.5,16.6-25.6,32.2-24c0.8,0.1,0.8-1.1,0-1.2C84.1,26,69.8,36.7,66.9,52.6
						C66.7,53.4,67.9,53.7,68,52.9L68,52.9z"/>
				</g>
			</g>
			<g>
				<g>
					<path class="st1" d="M81,94.7c-4.5-7.3-5.6-18.3-5.8-26.8c-0.2-9.5,2.7-18.6,7.9-26.5c0.4-0.6-0.6-1.2-1-0.6
						c-5.4,8-8.3,17.4-8.1,27.1c0.2,8.8,1.3,19.8,5.9,27.4C80.4,96,81.4,95.4,81,94.7L81,94.7z"/>
				</g>
			</g>
			<g>
				<g>
					<path class="st1" d="M80.6,45.9c1.1,1.1,2.6,0.8,3.9,0.3c0.7-0.3,0.4-1.4-0.3-1.1c-0.9,0.3-2,0.8-2.8,0
						C80.9,44.5,80,45.4,80.6,45.9L80.6,45.9z"/>
				</g>
			</g>
			<g>
				<g>
					<path class="st1" d="M84.6,46.6c1.5,0.5,3,0.4,4.4-0.3c0.7-0.3,0.1-1.4-0.6-1c-1.1,0.6-2.3,0.6-3.5,0.2
						C84.2,45.2,83.9,46.3,84.6,46.6L84.6,46.6z"/>
				</g>
			</g>
			<g>
				<g>
					<path class="st1" d="M89.2,46.7c0.8-0.1,1.6,0.2,2.4,0.1c0.9-0.2,1.7-0.6,2.6-0.3c0.7,0.2,1.1-1,0.3-1.1
						c-0.9-0.2-1.7,0-2.5,0.2c-0.6,0.1-1.1,0.2-1.7,0.1c-0.5-0.1-0.9-0.1-1.4,0C88.2,45.7,88.5,46.8,89.2,46.7L89.2,46.7z"/>
				</g>
			</g>
			<g>
				<g>
					<path class="st1" d="M94.1,46.1c1.4,1.8,3.4-0.3,5-0.1c0.8,0.1,0.8-1.1,0-1.2c-0.8-0.1-1.4,0.2-2.1,0.4c-0.7,0.3-1.6,0.7-2.1,0
						C94.4,44.7,93.6,45.5,94.1,46.1L94.1,46.1z"/>
				</g>
			</g>
			<g>
				<g>
					<path class="st1" d="M98.7,45.9c1.6,0.7,3.5,1.4,5.1,0.2c0.6-0.4,0-1.5-0.6-1c-1.2,0.9-2.7,0.3-3.9-0.2
						C98.6,44.6,98,45.6,98.7,45.9L98.7,45.9z"/>
				</g>
			</g>
			<g>
				<g>
					<path class="st1" d="M103.3,45.7c0.5,0.7,1.2,1,2,1c1.1-0.1,2.4-1.3,3.5-0.7c0.7,0.4,1.3-0.6,0.6-1c-0.7-0.4-1.4-0.4-2.1-0.2
						c-0.8,0.2-2.3,1.3-2.9,0.3C103.9,44.5,102.9,45.1,103.3,45.7L103.3,45.7z"/>
				</g>
			</g>
			<g>
				<g>
					<path class="st1" d="M109.3,46.2c1.5,0.8,3.4,0.1,4-1.6c0.3-0.7-0.9-1-1.1-0.3c-0.3,0.9-1.5,1.3-2.3,0.8
						C109.2,44.9,108.6,45.9,109.3,46.2L109.3,46.2z"/>
				</g>
			</g>
			<g>
				<g>
					<path class="st1" d="M132.6,52.6c-3-16-17.2-26.6-33.4-24.8c-0.8,0.1-0.8,1.3,0,1.2c15.6-1.7,29.4,8.5,32.2,24
						C131.6,53.7,132.7,53.4,132.6,52.6L132.6,52.6z"/>
				</g>
			</g>
			<g>
				<g>
					<path class="st1" d="M130,126.3c7.3-8.4,6.4-20.8,6.2-31.3c-0.2-14.2-1.5-28.4-3.6-42.4c-0.1-0.8-1.3-0.4-1.1,0.3
						c2,12.7,3.2,25.4,3.5,38.3c0.3,11,1.9,25.4-5.8,34.3C128.6,126.1,129.5,126.9,130,126.3L130,126.3z"/>
				</g>
			</g>
			<g>
				<g>
					<path class="st1" d="M121.4,95.2c4.7-7.6,5.7-18.6,5.9-27.4c0.2-9.7-2.7-19-8.1-27.1c-0.4-0.6-1.5,0-1,0.6
						c5.3,7.9,8.2,16.9,7.9,26.5c-0.2,8.5-1.2,19.4-5.8,26.8C120,95.2,121,95.8,121.4,95.2L121.4,95.2z"/>
				</g>
			</g>
			<g>
				<g>
					<path class="st1" d="M112.8,45.9c0.8,0,0.8-1.2,0-1.2C112.1,44.7,112.1,45.9,112.8,45.9L112.8,45.9z"/>
				</g>
			</g>
			<g>
				<g>
					<path class="st1" d="M112.5,45.5c1.2,1.4,3.7,0.7,5.2,0.6c0.8-0.1,0.8-1.2,0-1.2c-0.8,0.1-1.7,0.1-2.5,0.2
						c-0.7,0-1.4,0.1-1.9-0.4C112.8,44.1,112,44.9,112.5,45.5L112.5,45.5z"/>
				</g>
			</g>
			<g>
				<g>
					<path class="st1" d="M117.4,44.4c-0.2,0.7,0.2,1.4,0.9,1.8c0.9,0.4,1.9-0.1,2.7,0.3c0.7,0.3,1.3-0.7,0.6-1
						c-0.5-0.2-0.9-0.3-1.5-0.3c-0.3,0-1.8,0.2-1.6-0.4C118.7,43.9,117.6,43.6,117.4,44.4L117.4,44.4z"/>
				</g>
			</g>
			<g>
				<g>
					<path class="st1" d="M75.8,84.7c2.3,1.8,4.4,3.8,6.8,5.5c2.2,1.6,5,2.4,7.5,3.4c0.7,0.3,1-0.9,0.3-1.1c-2.4-1-5.1-1.8-7.2-3.3
						c-2.3-1.6-4.4-3.6-6.6-5.3C76,83.4,75.2,84.2,75.8,84.7L75.8,84.7z"/>
				</g>
			</g>
			<g>
				<g>
					<path class="st1" d="M89.6,93.4c0.2,3.7,0.2,7.5,0.1,11.2c0,0.8,1.2,0.8,1.2,0c0.1-3.8,0.1-7.5-0.1-11.2
						C90.8,92.6,89.6,92.6,89.6,93.4L89.6,93.4z"/>
				</g>
			</g>
			<g>
				<g>
					<path class="st1" d="M111,103.7c-0.2-0.7,0.3-1.6,0.5-2.3c0.1-0.5,0.1-1.1,0.1-1.6c0-1.9-0.3-3.8,0-5.8c0.1-0.7-1-1.1-1.1-0.3
						c-0.3,2.1,0,4,0,6.1c0,1-0.2,1.7-0.5,2.7c-0.2,0.6-0.2,1,0,1.6C110.1,104.8,111.2,104.5,111,103.7L111,103.7z"/>
				</g>
			</g>
			<g>
				<g>
					<path class="st1" d="M124.6,83.1c-1.1,2.7-4.3,4.4-6.7,5.9c-2.4,1.5-5,2.8-7.6,3.9c-0.7,0.3-0.4,1.4,0.3,1.1
						c3.4-1.4,6.6-3.1,9.6-5.2c2.1-1.5,4.5-3,5.5-5.5C126,82.7,124.8,82.4,124.6,83.1L124.6,83.1z"/>
				</g>
			</g>
			<g>
				<g>
					<path class="st1" d="M109.7,129.3c-2.7-0.4-0.5-5-0.1-6.8c0.4-1.8,0.8-3.7,1-5.5c0.6-4.3,0.6-8.7,0.3-13
						c-0.1-0.8-1.2-0.8-1.2,0c0.3,4.9,0.2,9.8-0.6,14.6c-0.6,3.7-2.1,7.3-2.3,11.1c0,0.4,0.3,0.6,0.6,0.6c0.7,0.1,1.4,0.2,2.2,0.3
						C110.5,130.6,110.5,129.4,109.7,129.3L109.7,129.3z"/>
				</g>
			</g>
			<g>
				<g>
					<path class="st1" d="M91.1,129.5c0.7-0.1,1.4-0.2,2.2-0.3c0.3,0,0.6-0.2,0.6-0.6c-0.2-3.8-1.7-7.4-2.3-11.1
						c-0.8-4.9-0.9-9.7-0.6-14.6c0.1-0.8-1.1-0.8-1.2,0c-0.3,4.4-0.3,8.7,0.3,13c0.3,1.9,0.6,3.7,1,5.5c0.4,1.8,2.7,6.5-0.1,6.8
						C90.3,128.4,90.3,129.6,91.1,129.5L91.1,129.5z"/>
				</g>
			</g>
		</g>
	</g>
	<g>
		<g>
			<path class="st0" d="M113.7,39.9c3.8,0,3.8-6,0-6C109.9,33.9,109.8,39.9,113.7,39.9L113.7,39.9z"/>
		</g>
	</g>
	<g>
		<g>
			<path class="st2" d="M73.6,120.4c-4.8-5.5-5.9-12.2-6.7-19.2c-0.1-0.8-1.3-0.8-1.2,0c0.8,7.3,2,14.3,7,20
				C73.3,121.8,74.1,121,73.6,120.4L73.6,120.4z"/>
		</g>
	</g>
	<g>
		<g>
			<path class="st2" d="M88.3,125.1c-3.1-8.6-3.9-17.4-2.3-26.4c0.1-0.7-1-1.1-1.1-0.3c-1.6,9.2-0.8,18.3,2.3,27
				C87.4,126.1,88.5,125.8,88.3,125.1L88.3,125.1z"/>
		</g>
	</g>
	<g>
		<g>
			<path class="st2" d="M78.6,96.8c-4.4-7.3-6.9-15.2-7.4-23.8c0-0.8-1.2-0.8-1.2,0c0.5,8.7,3.1,16.9,7.6,24.4
				C78,98.1,79,97.5,78.6,96.8L78.6,96.8z"/>
		</g>
	</g>
	<g>
		<g>
			<path class="st2" d="M111.3,126.5c3.4-9.5,2.1-19.1,3-28.9c0.1-0.8-1.1-0.8-1.2,0c-0.9,9.8,0.4,19.2-3,28.6
				C109.9,126.9,111,127.2,111.3,126.5L111.3,126.5z"/>
		</g>
	</g>
	<g>
		<g>
			<path class="st2" d="M125.1,125.2c7.3-10.4,4.3-23.4,7-35.1c0.2-0.7-1-1.1-1.1-0.3c-2.7,11.6,0.3,24.5-6.9,34.8
				C123.6,125.3,124.7,125.9,125.1,125.2L125.1,125.2z"/>
		</g>
	</g>
	<g>
		<g>
			<path class="st2" d="M122.1,98.9c0.2-1.5,1.6-2.9,2.3-4.2c0.7-1.3,1.3-2.6,1.8-4c0.3-0.7-0.9-1-1.1-0.3c-0.6,1.6-1.4,3.2-2.2,4.7
				c-0.6,1.1-1.6,2.2-1.8,3.4C120.9,99.3,122,99.7,122.1,98.9L122.1,98.9z"/>
		</g>
	</g>
	<g>
		<g>
			<path class="st2" d="M130.2,58.2c0.4-2.8-1-5.1-2.1-7.6c-1.3-2.8-2.4-5.7-4.5-8c-0.5-0.6-1.4,0.3-0.8,0.8
				c1.6,1.7,2.5,3.7,3.4,5.8c1.2,2.6,3.3,5.9,2.9,8.7C129,58.6,130.1,59,130.2,58.2L130.2,58.2z"/>
		</g>
	</g>
	<g>
		<g>
			<path class="st2" d="M73.1,56.1c1.7-5.3,3.5-10.5,7.6-14.5c0.6-0.5-0.3-1.4-0.8-0.8c-4.2,4.1-6.1,9.5-7.9,15
				C71.8,56.5,72.9,56.8,73.1,56.1L73.1,56.1z"/>
		</g>
	</g>
	<g>
		<g>
			<path class="st2" d="M89.7,34.2c1.8-0.6,3.5-0.8,5.4-0.6c0.8,0.1,0.8-1.1,0-1.2c-1.9-0.2-3.8,0-5.7,0.6
				C88.6,33.3,88.9,34.5,89.7,34.2L89.7,34.2z"/>
		</g>
	</g>
	<g>
		<g>
			<path class="st2" d="M103.7,31.8c4,1.1,7.6,2.9,10.9,5.3c0.6,0.4,1.2-0.6,0.6-1c-3.4-2.4-7.2-4.2-11.2-5.4
				C103.3,30.5,102.9,31.6,103.7,31.8L103.7,31.8z"/>
		</g>
	</g>
</g>
</svg>
