<?xml version="1.0" encoding="utf-8"?>
<!-- Generator: Adobe Illustrator 21.0.2, SVG Export Plug-In . SVG Version: 6.00 Build 0)  -->
<svg version="1.1" id="Layer_1" xmlns="http://www.w3.org/2000/svg" xmlns:xlink="http://www.w3.org/1999/xlink" x="0px" y="0px"
	 viewBox="0 0 200 600" style="enable-background:new 0 0 200 600;" xml:space="preserve">
<style type="text/css">
	.st0{fill:#603016;}
	.st1{fill:#221F1F;}
	.st2{fill:#613719;}
</style>
<g>
	<g>
		<g>
			<path class="st0" d="M79.1,91.5c0.4,0.3,0.4,0.2,0.1-0.3c0-0.3,0-0.5,0-0.8c0-0.1,0.4-0.5,0.1-0.3c-0.1,0.1-0.3,0.3-0.4,0.5
				c-0.2,0.3-0.3,0.7-0.3,1.1c1-0.1,2-0.3,2.9-0.4c0-0.2-0.1-0.4-0.2-0.6c-0.4-1,0.2,0.4-0.7,0.6c1.1-0.4,1.6-2.2,0.4-2.7
				c-0.5-0.2-1-0.5-1.5-0.6c-1.3-0.3-2.7,1.5-1.5,2.5c1,0.8,1.8,1.7,2.8,2.4c1.4,1,3.1-1.2,1.8-2.4c-1.4-1.3-2.1-3.1-3.1-4.7
				c-1-1.7-3.6-0.1-2.6,1.5c1.1,1.9,2,3.8,3.6,5.3c0.6-0.8,1.2-1.6,1.8-2.4c-0.8-0.6-1.5-1.3-2.2-2c-0.5,0.8-1,1.7-1.5,2.5
				c0.3,0.1,0.5,0.1,0.8,0.3c0.1-0.9,0.2-1.8,0.4-2.7c-0.9,0.3-1.6,0.8-1.7,1.7c-0.1,0.7,0.3,1.3,0.4,1.9c0.3,1.8,2.8,1.2,2.9-0.4
				c0,0.2-0.4,0.6-0.1,0.5c0.1-0.1,0.3-0.3,0.3-0.4c0.2-0.4,0.3-0.7,0.3-1.2c-0.1-0.9-0.7-1.4-1.5-1.7
				C78.9,88.1,77.4,90.7,79.1,91.5L79.1,91.5z"/>
		</g>
	</g>
	<g>
		<g>
			<path class="st0" d="M79.3,93.1c1.9,0,1.9-3,0-3C77.4,90.1,77.4,93.1,79.3,93.1L79.3,93.1z"/>
		</g>
	</g>
	<g>
		<g>
			<path class="st0" d="M78.3,90.7C78.3,90.7,78.3,90.8,78.3,90.7c0.1-0.1,0.4-0.2,0.6-0.3c0.7,0.2,0.9,0.2,0.6,0
				c0.1,0.1,0.2,0.2,0.3,0.4c0,0.3,0,0.5,0,0.8c-0.1,0.1-0.1,0.3-0.2,0.4c-0.2,0.1-0.4,0.3-0.7,0.4c0,0,0.1,0,0.1,0
				c-0.3,0-0.5,0-0.8,0c-0.1,0-0.1-0.1-0.2-0.1c-0.2-0.4-0.5-0.9-0.7-1.3c0,0,0,0,0,0.1c0.1-0.3,0.1-0.5,0.2-0.8c0,0,0,0-0.1,0.1
				c0.2-0.2,0.4-0.4,0.5-0.5c0,0-0.1,0-0.1,0c0.4-0.1,0.8-0.1,1.1-0.2c0.3,0.3,0.5,0.7,0.8,1c-0.1,0.3-0.1,0.5-0.2,0.8
				c0,0-0.1,0.1-0.1,0.1c-0.2,0.1-0.4,0.3-0.7,0.4c-0.4-0.2-0.8-0.3-1.2-0.5c-0.1-0.3-0.1-0.5-0.2-0.8c0.6-0.1,1.2-0.3,1.8-0.4
				c0.1,0.3,0.1,0.5,0.2,0.8c0.1,0.5-0.6,1.1-1.1,0.9c-0.2-0.1-0.4-0.3-0.7-0.4c0,0-0.1-0.1-0.1-0.1c-0.1-0.3-0.1-0.5-0.2-0.8
				c0.6-0.6,0.7-0.9,0.4-0.7c-0.2,0.1-0.1,0.1,0.6,0c0.2,0.1,0.4,0.3,0.7,0.4c0,0,0-0.1-0.1-0.1c0.1,0.2,0.3,0.4,0.4,0.7
				c0.1,0.7,0,1-0.5,1.1c0.1,0,0.2-0.1,0.3-0.1c0.8-0.1,1.2-1.1,1-1.8c-0.2-0.8-1-1.2-1.8-1c-1.2,0.2-2.3,1.4-1.9,2.6
				c0.5,1.6,2.5,1.4,3.4,0.4c1.1-1.1,0.4-3.1-1.2-3.2c-1.3,0-2.5,1.1-2.1,2.4c0.4,1.5,2.3,1.8,3.3,0.8c1-1,0.6-2.8-0.8-3.1
				c-1.5-0.4-2.8,1.3-1.9,2.7c0.4,0.6,1.2,1,1.9,0.8c0.8-0.2,1.2-0.9,1.2-1.6c0.1-0.5-0.3-1-0.7-1.3c-1.5-1-3.2,0.9-2.4,2.4
				c0.3,0.5,0.7,0.8,1.1,1c0.8,0.4,1.6,0.3,2.2-0.3c0.6-0.5,0.5-1.6,0-2.1C79.8,90.1,78.9,90.2,78.3,90.7L78.3,90.7z"/>
		</g>
	</g>
	<g>
		<g>
			<path class="st0" d="M78.7,116.6c0.2,1,0.1,2.1-0.2,3.1c-0.6,1.8,2.3,2.6,2.9,0.8c0.5-1.5,0.5-3.1,0.2-4.6
				c-0.2-0.8-1.1-1.2-1.8-1C78.9,115,78.5,115.9,78.7,116.6L78.7,116.6z"/>
		</g>
	</g>
	<g>
		<g>
			<path class="st0" d="M78.7,115.2c0.2,0.9,0.3,1.9,0.2,2.8c-0.1,0.8-0.5,1.2-0.7,1.9c-0.4,1.7,1.8,2.6,2.7,1.1
				c0.1-0.2,0.2-0.4,0.3-0.5c1-1.6-1.5-3.1-2.6-1.5c-0.1,0.2-0.2,0.4-0.3,0.5c0.9,0.4,1.8,0.8,2.7,1.1c0.1-0.3,0.4-0.7,0.5-1
				c0.2-0.5,0.2-1.1,0.3-1.7c0.1-1.2,0-2.4-0.3-3.6C81.1,112.6,78.2,113.4,78.7,115.2L78.7,115.2z"/>
		</g>
	</g>
	<g>
		<g>
			<path class="st0" d="M79.8,40.1c-0.2,0.2-0.4,0.4-0.6,0.6c0.7,0.7,1.4,1.4,2.1,2.1c0.2-0.3,0.4-0.5,0.7-0.8
				c-0.8-0.6-1.6-1.2-2.3-1.8c-2.2,3.8-4.3,7.7-6.3,11.7c-0.9,1.7,1.7,3.2,2.6,1.5c2-3.9,4.1-7.8,6.3-11.7c0.8-1.4-1.2-3.1-2.3-1.8
				c-0.2,0.3-0.4,0.5-0.7,0.8c-1.2,1.5,0.7,3.4,2.1,2.1c0.2-0.2,0.4-0.4,0.6-0.6C83.4,40.9,81.3,38.8,79.8,40.1L79.8,40.1z"/>
		</g>
	</g>
	<g>
		<g>
			<path class="st0" d="M115,37c1.9,0,1.9-3,0-3C113.1,34,113.1,37,115,37L115,37z"/>
		</g>
	</g>
	<g>
		<g>
			<g>
				<path class="st0" d="M95.6,34.5c-1.4,2.2-2.9,4.3-4.5,6.4c-0.7,0.9-0.4,2.7,1.1,2.5c2.7-0.3,4.5-1.3,6-3.5c0.9-1.3-0.8-2.8-2-2
					c-7,4.1-11.9,11.2-18,16.4c-1.1,1,0.1,2.9,1.4,2.5c2.7-0.9,4.5-2.6,6.6-4.5c2.9-2.6,5.8-5.3,8.6-8c1.4-1.3-0.7-3.4-2.1-2.1
					c-2.1,2-4.2,4-6.3,5.9c-2.2,2.1-4.6,4.9-7.6,5.8c0.5,0.8,1,1.7,1.4,2.5c5.9-5.1,10.7-12,17.4-16c-0.7-0.7-1.4-1.4-2-2
					c-1.1,0.7-2.3,1.4-3.4,2c0.4,0.8,0.7,1.7,1.1,2.5c1.8-2.3,3.4-4.6,5-7C99.2,34.4,96.6,32.9,95.6,34.5L95.6,34.5z"/>
			</g>
		</g>
		<g>
			<g>
				<path class="st0" d="M120.2,91.3c0-0.4,0-0.7,0.1-1.1c0-0.5-0.5-0.7-0.9-0.5c-0.2,0.1-0.4,0.3-0.6,0.5c-0.4,0.5,0.5,1.2,0.9,0.7
					c0.5-0.5,0.7-1.2,0.7-1.9c0-0.8-1.2-0.8-1.2,0c0,0.2,0,0.3,0,0.5c0.4,0.1,0.8,0.1,1.2,0.2c0-0.1,0-0.3,0.1-0.4
					c0.1-0.7-1-0.8-1.2-0.2c0,0.1-0.1,0.2-0.1,0.2c0.4,0.1,0.8,0.2,1.1,0.3c0.1-0.4,0-0.7-0.3-0.9c-0.2-0.1-0.5-0.1-0.7,0.1
					c0,0,0,0,0,0.1c0.3,0.2,0.7,0.4,1,0.6c0.1-0.2,0.1-0.4,0-0.6c-0.2-0.6-1.2-0.5-1.2,0.2c0,0,0,0,0,0.1c0.3,0.1,0.7,0.3,1,0.4
					c0-0.2,0-0.3,0.1-0.5c-0.4,0-0.8,0-1.1,0c0.1,0.1,0.1,0.2,0,0.2c0.4,0.1,0.7,0.2,1.1,0.3c0-0.1,0-0.2,0-0.3
					c-0.1,0.1-0.2,0.2-0.4,0.3c0,0,0,0,0.1,0c-0.2-0.1-0.4-0.1-0.6-0.2c-0.1-0.1-0.1,0-0.1,0.1c-0.1,0.8,1.1,0.8,1.2,0
					c0-0.5-0.1-1.1-0.7-1.1c-0.6,0-0.7,0.7-0.8,1.2c0,0.6,0.9,0.8,1.1,0.3c0.2-0.4,0.2-0.8,0.1-1.2c-0.2-0.6-0.9-0.6-1.1,0
					c-0.1,0.3-0.1,0.5-0.1,0.8c0,0.5,0.6,0.8,1,0.4c0.2-0.3,0.3-0.5,0.3-0.9c-0.4,0.1-0.8,0.1-1.2,0.2c0,0,0,0,0-0.1
					c-0.1,0.5,0.6,1,1,0.6c0,0,0,0,0-0.1c-0.2,0-0.5,0.1-0.7,0.1c0,0,0,0,0.1,0c-0.1-0.1-0.2-0.2-0.3-0.4c0,0,0-0.1,0-0.1
					c-0.1,0.7,0.9,1.1,1.1,0.3c0-0.1,0.1-0.2,0.1-0.2c-0.4-0.1-0.8-0.1-1.2-0.2c0,0.1,0,0.3-0.1,0.4c-0.1,0.7,1,0.8,1.2,0.2
					c0-0.3,0.1-0.5,0.1-0.8c-0.4,0-0.8,0-1.2,0c0,0.4-0.1,0.8-0.4,1.1c0.3,0.2,0.6,0.5,0.9,0.7c0,0,0.1-0.1,0.1-0.1
					c-0.3-0.2-0.6-0.3-0.9-0.5c0,0.4,0,0.7-0.1,1.1C118.9,92.1,120.1,92.1,120.2,91.3L120.2,91.3z"/>
			</g>
		</g>
		<g>
			<g>
				<path class="st0" d="M121,109c0,0,0.1,0,0.1,0c-0.3,0-0.5,0-0.8,0c-0.1-0.1-0.2-0.1-0.4-0.2c-0.1-0.2-0.3-0.4-0.4-0.7
					c0-0.1,0-0.1,0-0.2c0.1-0.3,0.1-0.5,0.2-0.8c0.1-0.1,0.2-0.2,0.3-0.3c0.3-0.1,0.5-0.1,0.8-0.2c0,0-0.1,0-0.1,0
					c-0.8,0-1.5,0.7-1.5,1.5c0,0.8,0.7,1.5,1.5,1.5c1.1,0,2-0.9,1.9-2c-0.1-1.2-1.2-1.7-2.3-1.5c-0.8,0.1-1.2,1.1-1,1.8
					C119.4,108.8,120.2,109.1,121,109L121,109z"/>
			</g>
		</g>
		<g>
			<g>
				<path class="st0" d="M118.6,112.9c0.8,0.2,0.8,0.9,0.4,1.5c-0.5,0.7-0.1,1.7,0.5,2c0.7,0.4,1.6,0.1,2-0.5
					c1.5-2.2,0.3-5.1-2.2-5.9C117.6,109.5,116.8,112.3,118.6,112.9L118.6,112.9z"/>
			</g>
		</g>
		<g>
			<g>
				<path class="st0" d="M116.7,117.3c0,0.4,0.1,0.9,0.1,1.3c0,0.2,0,0.4,0,0.6c0,0.1,0,0.5,0.1,0.4c0.1-0.1,0.3-0.1,0.4-0.2
					c0,0-0.1,0-0.1,0c-0.8,0-0.8,1.2,0,1.2c0.6,0,0.8-0.5,0.8-1c0-0.8-0.1-1.6-0.2-2.4C117.8,116.6,116.6,116.6,116.7,117.3
					L116.7,117.3z"/>
			</g>
		</g>
		<g>
			<g>
				<path class="st0" d="M116.9,116.1c-0.3,0.6-0.4,1.1-0.5,1.8c-0.1,0.8,0.7,1.5,1.5,1.5c0.9,0,1.4-0.7,1.5-1.5
					c0,0.2,0.1-0.4,0.1-0.3c0.3-0.7,0.2-1.6-0.5-2C118.3,115.1,117.3,115.3,116.9,116.1L116.9,116.1z"/>
			</g>
		</g>
		<g>
			<g>
				<path class="st0" d="M116.1,101.3c0-0.1-0.1-0.2-0.1-0.2c0,0.2,0,0.2,0,0c0-0.2,0-0.2,0,0c0-0.1,0-0.2,0-0.1c0,0.1,0,0.1,0-0.1
					c0.1-0.1,0.1-0.1,0,0c0.1-0.1,0.1-0.1,0,0c0.1,0,0.1-0.1,0.2-0.1c0.7-0.3,0.9-1.4,0.5-2c-0.4-0.7-1.3-0.9-2-0.5
					c-1.3,0.6-2.1,2.4-1.5,3.8c0.3,0.8,1,1.3,1.8,1C115.8,102.9,116.4,102,116.1,101.3L116.1,101.3z"/>
			</g>
		</g>
		<g>
			<g>
				<path class="st0" d="M119.4,116.3c0.1-0.3,0.1-0.5,0.2-0.8c-1-0.3-1.9-0.5-2.9-0.8c-0.6,2.6,0,2.9,2,4.1c1.3,0.8,2.7-0.7,2-2
					c-0.5-1,0.6-1.5,0.6-2.4c0.1-1.3-0.2-1.5-0.5-2.7c-0.3-1.2-0.8-0.8-0.5-2.1c0.1-0.5,0.9-1,1.1-1.6c0.5-2.1-1.7-2.9-1.8-4.9
					c0-0.7,1.1-2.2,1.1-3c0.1-0.9-0.3-1.6-0.5-2.5c-0.3-1.3-0.4-2.4-0.2-3.6c0.1-0.9,0.6-1.1,0.4-2c-0.3-1.3-1.4-2-2.7-1.8
					c-1.3,0.2-3,1.8-3.4,2.9c-0.9,2,2.5,7.7,1.5,8.5c0.6-0.1,1.2-0.2,1.8-0.2c-0.1-0.5-0.2-1-0.3-1.5c0.4-1.6-1.8-2.6-2.7-1.1
					c-2,3.3,1.3,5.2,2,8.4c0.3-0.6,0.7-1.2,1-1.8c-1.7,0.3-3.7,0.1-3.9,2.5c-0.2,2.1,1.6,3.1,3.4,3.2c-0.5-0.4-1-0.7-1.4-1.1
					c0.6,1.9-4,5.1,0.4,6.5c2.6,0.9,4.1-1.7,3.2-3.8c-0.7-1.8-3.6-1-2.9,0.8c0.5,1.3,2.2-2,2.2-2c0.3-0.8,0.2-1.5,0-2.3
					c-0.2-0.7-0.8-1-1.4-1.1c0,0,0.8,0.3,1.3,0.2c0.8-0.1,1.2-1.1,1-1.8c-0.3-1.2-2.8-5.3-2.3-6.1c-0.9-0.4-1.8-0.8-2.7-1.1
					c-0.4,1.8-0.2,3.9,1.7,4.8c0.7,0.3,1.2,0.2,1.8-0.2c1.1-0.9,0.9-1.9,0.7-3.2c-0.2-1.5-0.7-2.9-1.2-4.4c-0.4-1.2,0-3.4-1.2-1.9
					c-1.3,1.7-0.1,2.5,0.4,4c1,2.8-1.1,4-0.6,6.4c0.2,1,1.8,2,1.6,3c-0.1,0.9-1.5,1.1-1.4,2.6c0.1,1.7,1.7,2.4,1.7,4.3
					c0,1.7-0.9,2,0.1,3.9c0.7-0.7,1.4-1.4,2-2c-1-0.6-0.8,0-0.6-0.7c0.4-1.9-2.4-2.6-2.9-0.8c-0.1,0.3-0.1,0.5-0.2,0.8
					C116,117.4,118.9,118.2,119.4,116.3L119.4,116.3z"/>
			</g>
		</g>
		<g>
			<g>
				<path class="st0" d="M119.2,44.9c0.1,0.1,0.2,0.1,0.3,0.2c1.4,0.7,3.1-1.1,1.8-2.3c-0.4-0.3-1.3-1.1-1.3-1.7
					c-0.4,0.5-0.7,1-1.1,1.4c-0.2,0.4-0.1,0.7,0.3,1c0.1-0.5,0.3-1,0.4-1.4c0-0.1,0-0.2,0-0.3c-0.5,0.4-1,0.7-1.4,1.1
					c0,0,1.7,1.7,1.9,1.9c1.2,1.1,3.2-0.3,2.3-1.8c-1.2-2.2-2.5-4.4-3.7-6.7c-0.8-1.7-0.8-3.7-2.6-4.7c-1.7-0.9-3.2,1.6-1.5,2.6
					c0.6,0.3,0.7,1.6,0.9,2.2c0.3,0.9,0.8,1.7,1.2,2.5c1,1.9,2.1,3.7,3.1,5.6c0.8-0.6,1.6-1.2,2.3-1.8c-1-0.9-2.5-2.9-4-2.7
					c-0.7,0.1-1.2,0.4-1.4,1.1c-0.9,2.4,3.1,4.9,5,3.2c0.4-0.4,0.5-0.9,0.4-1.4c-0.4-1.5-2.2-3.7-3.9-3.1c-0.6,0.2-1.1,0.7-1.1,1.4
					C117.1,42.5,118.2,43.9,119.2,44.9c0.6-0.8,1.2-1.6,1.8-2.4c-0.1-0.1-0.2-0.1-0.3-0.2C119,41.5,117.5,44,119.2,44.9L119.2,44.9z
					"/>
			</g>
		</g>
		<g>
			<g>
				<path class="st0" d="M104,36c0,0-0.1-0.1-0.1-0.1c-0.6-0.6-1.9-0.6-2.3,0.3c-0.5,1.1-0.2,1.5,0.2,2.8c0.4,1.3,2.6,1.5,2.9,0
					c-0.1-0.2-0.2-0.4-0.3-0.7c-0.1-0.6-0.2-1.2-0.2-1.8c-0.8,1.1-4-0.6-4.6,1.9c-0.5,2.1,2.4,3.1,3.8,3.7c4.1,1.8,8.8,2.4,13.1,3.3
					c3.3,0.7,6.6,2,9.5-0.2c-0.7-0.4-1.5-0.9-2.2-1.3c0-0.2,0.1,2.7,0.1,2.7c0.5-0.4,1-0.7,1.4-1.1c0.1,0.1,0.2,0.1,0.3,0.2
					c-1-1.6-3.5-0.2-2.6,1.5c2.1,3.8,3.6,7.1,7.1,9.8c1,0.7,2.2-0.3,2.2-1.3c0.3-4.6-3.3-9.7-6.1-13c-2-2.3-4.2-4.3-6.6-6.1
					c-2.7-2.1-6.1-3.6-8.3-6.2c-0.7,0.7-1.4,1.4-2.1,2.1c1.6,1.5,3.7,1.5,5.5,2.6c3.2,2,5.9,5.5,8.4,8.3c0.8,0.9,2.7,0.2,2.5-1.1
					c-0.3-3.4-3.3-7.5-6.7-8.4c-4.6-1.2-11.3,3.1-15.3,5c0.7,0.4,1.5,0.9,2.2,1.3c-0.1-0.2-0.1-0.4-0.2-0.6c0-0.7,0-1.4,0-2.1
					c1,0.2,2,0.4,2.9,0.7c-0.4-0.5-0.7-1-1.1-1.4c0.2,0.7,0.4,1.4,0.6,2.1c0.6,0.2,1.1,0.5,1.7,0.7c0.4,0,0.8,0,1.1,0
					c-0.4-0.5-0.7-1-1.1-1.4c-0.4,0.5-0.8,1-1.2,1.4c0.6,0.2,1.1,0.5,1.7,0.7c0.2,0.1,0.4,0.1,0.6,0.2c0.6,0.1,1.2,0.2,1.8,0.2
					c0.7-0.5,1.3-0.9,2-1.4c-0.4-0.5-0.7-1-1.1-1.4c-0.4,0.9-0.9,1.7-1.3,2.6c0.5,0.4,1,0.7,1.4,1.1c0.4-0.6,0.8-1.1,1.2-1.6
					c0.2,0.6,0.5,1.1,0.7,1.7c-0.2-0.2-0.3-0.5-0.5-0.7c0.6,0.1,1.2,0.2,1.8,0.2c0.1,0.2,0.2,0.3,0.4,0.5c1.9,0.1,1.9-2.8,0-3
					c-2.3-0.2-4.7,2.7-2.5,4.6c0.5,0.4,1.2,0.6,1.8,0.2c5.6-3.5-2.9-9-3.9-2.6c-0.1,0.6,0.1,1.4,0.7,1.7c2.8,1.4,5.2-2.5,3.8-4.9
					c-0.2-0.4-0.8-0.8-1.3-0.7c-2.5,0.2-6,2.5-5.2,5.4c0.2,0.7,0.8,1,1.4,1.1c2.7,0.2,4.4-3.3,4.3-5.6c0-0.7-0.5-1.2-1.1-1.4
					c-3.1-1.2-7.4,3.7-4.9,6.3c0.5,0.5,1.2,0.5,1.8,0.2c2.3-1.1,4.1-5.3,1-6.5c-2.7-1-7.3,2.2-5.7,5.2c0.3,0.6,1,0.8,1.7,0.7
					c2-0.4,3.4-2.3,3.4-4.3c0-0.7-0.5-1.2-1.1-1.4c-2.3-0.8-6.4,1.8-4.5,4.4c0.4,0.5,1,0.9,1.7,0.7c2.2-0.7,3-2.8,2.8-4.9
					c-0.1-0.5-0.2-1.1-0.7-1.3c-3.1-1.3-5.7,0.5-5.2,3.9c0.1,0.5,0.6,0.9,1,1c2.5,0.8,3.8-1.5,3.7-3.8c0-0.7-0.4-1.3-1.1-1.4
					c-2.6-0.7-5,1.1-5,3.8c0,0.5,0.3,1,0.7,1.3c3.5,1.9,5.7-4.8,1.7-4.8c-5.3-0.1-1.9,7.7,0.9,4c0.5-0.7,0.6-1.5,0-2.1
					c-2.3-2.5-4.6,0.3-4.9,2.8c-0.2,1.2,1.3,1.7,2.2,1.3c2.8-1.3,5.8-3.1,8.8-3.8c3.4-0.8,8.3,0.2,8.7,4.7c0.8-0.4,1.7-0.7,2.5-1.1
					c-2.4-2.6-4.7-5.6-7.5-7.7c-1.8-1.4-4.9-1.8-6.4-3.2c-1.4-1.3-3.4,0.7-2.1,2.1c3.2,3.6,8,5.6,11.6,8.9c3.6,3.2,9,9,8.6,14.3
					c0.7-0.4,1.5-0.9,2.2-1.3c-2.9-2.2-4.3-5.6-6-8.7c-0.9,0.5-1.7,1-2.6,1.5c0.1,0.2,0.3,0.4,0.4,0.6c0.3,0.4,0.8,0.8,1.3,0.7
					c0.2,0,0.4,0,0.6,0c0.6,0,1.3-0.4,1.4-1.1c0.3-1.2-0.1-2.3,0-3.5c0.1-1.1-1.4-2-2.2-1.3c-2.3,1.8-7.3-0.1-9.8-0.7
					c-2.5-0.5-5-1-7.4-1.7c-0.5-0.2-4.1-1.2-4-1.5c0,0.3,0.9,0.8,1.2,0.7c1.2-0.5,1.4-0.4,2.2-1.5c0.4-0.6,0.2-1.3-0.2-1.8
					c-1.9-2.3-4.2-0.5-4.7,2c1,0,1.9,0,2.9,0c-0.2-0.2-0.4-0.4-0.5-0.5c-0.8,0.1-1.6,0.2-2.3,0.3c0,0,0.1,0.1,0.1,0.1
					C103.2,39.4,105.3,37.3,104,36L104,36z"/>
			</g>
		</g>
		<g>
			<g>
				<path class="st0" d="M82.1,34.4C82.1,34.4,82,34.4,82.1,34.4c0.8-0.4,1.7-0.9,2.5-1.4c0,0-0.1,0-0.1,0c2.2,2.9,4.5,5.8,6.7,8.7
					c0.1-0.1,0.1-0.2,0.2-0.3c-0.3,0.4-0.6,0.8-0.9,1.2c0.2-0.3,0.5-0.5,0.7-0.7c-0.4,0.3-0.8,0.6-1.2,0.9c0.3-0.2,0.7-0.4,1-0.6
					c-0.5,0.2-0.9,0.4-1.4,0.6c0.3-0.1,0.5-0.2,0.8-0.3c-2.2-2.9-4.5-5.8-6.7-8.7c0,0.1-0.1,0.1-0.1,0.2c-0.8,1.3-1,3.1-0.6,4.6
					c0.4,1.4,1.4,2.9,2.7,3.6c1.4,0.7,3.1,1.1,4.6,0.6c1.5-0.5,2.8-1.4,3.6-2.7c0-0.1,0.1-0.1,0.1-0.2c1.2-2.1,1-4.7-0.5-6.6
					c-1.5-1.9-3.9-2.7-6.3-2.1c-2.7,0.6-4.8,2.4-6.3,4.6c-0.2,0.5-0.4,0.9-0.6,1.4c-0.1,0.5-0.1,1.1-0.2,1.6c0,1.3,0.5,2.6,1.3,3.6
					c0.6,0.8,1.4,1.4,2.4,1.8c1.2,0.5,2.7,0.7,3.9,0.3c1.2-0.5,1.8-0.8,2.8-1.7c1.1-1,1.7-2.8,1.7-4.2c0-1.5-0.6-3.2-1.7-4.2
					c-1.1-1-2.6-1.8-4.2-1.7C84.7,32.7,83.3,33.3,82.1,34.4L82.1,34.4z"/>
			</g>
		</g>
		<g>
			<g>
				<path class="st0" d="M68.8,62.8c-0.2,0.4-0.3,0.9-0.5,1.3c-0.5,1.4,1.5,2.4,2.5,1.4c7.7-7.7,15.7-15.1,23.9-22.2
					c1.3-1.1-0.4-3.2-1.8-2.3c-4.7,2.9-9,6.2-11.5,11.4c0.9,0.5,1.7,1,2.6,1.5c1.4-3,2.8-6,4.3-9c0.8-1.7-1.7-3.2-2.6-1.5
					c-1.4,2.7-3.1,4.9-5.4,7c0.8,0.6,1.6,1.2,2.3,1.8c1-2.1,2.2-3.9,3.8-5.6c-0.8-0.6-1.6-1.2-2.3-1.8c-1.4,2.2-2.8,4.1-4.9,5.8
					c0.8,0.4,1.7,0.7,2.5,1.1c0.4-3,1.6-4.8,3.8-6.6c-0.8-0.6-1.6-1.2-2.3-1.8c-1.1,1.9-2.2,3.5-3.5,5.3c0.8,0.6,1.6,1.2,2.3,1.8
					c1.2-2.2,2.4-4.4,3.6-6.7c0.9-1.7-1.6-3.1-2.6-1.5c-1.1,1.8-2.3,3.4-3.8,4.9c0.8,0.5,1.7,1,2.5,1.4c0.8-2.2,1.7-4.4,2.5-6.6
					c0.6-1.5-1.5-2.3-2.5-1.4c-1.7,1.4-3.1,2.8-4.5,4.5c0.8,0.6,1.6,1.2,2.3,1.8c1.1-2,2.3-3.9,3.4-5.9c0.7-1.2-0.8-2.9-2-2
					c-1.3,0.8-2.3,1.7-3.4,2.9c0.8,0.6,1.6,1.2,2.3,1.8c1.5-2,2.7-4,3.7-6.3c0.5-1.2-0.3-2.4-1.7-2.2c-3.6,0.7-6.8,7.3-8.6,10
					c0.9,0.3,1.8,0.5,2.8,0.8c0-1.8,2.9-4.5,4.1-5.9c-0.8-0.6-1.6-1.2-2.3-1.8c-2,3.4-3.7,6.7-4.4,10.6c-0.3,1.9,2.2,2.6,2.9,0.8
					c0.3-1.1,0.8-2.1,1.4-3c-0.9-0.4-1.8-0.8-2.7-1.1c-0.7,2.5-1.4,5-2.1,7.5c-0.5,1.7,1.8,2.5,2.7,1.1c1.3-1.8,2.5-3.7,3.8-5.5
					c-0.9-0.4-1.8-0.8-2.7-1.1c-0.9,2.3-1.8,4.7-2.6,7c-0.6,1.7,1.8,2.5,2.7,1.1c0.9-1.3,1.7-2.6,2.6-3.9c-0.9-0.3-1.8-0.5-2.8-0.8
					c-0.2,0.9-0.3,1.8-0.5,2.8c-0.4,1.6,1.9,2.6,2.7,1.1c0.5-0.7,1.1-1.5,1.6-2.2c-0.8-0.5-1.7-1-2.5-1.4c-1,4.6-6.7,7.9-9.5,11.5
					c0.8,0.4,1.7,0.7,2.5,1.1c-0.3-5.7,0.3-12.4,4.1-16.9c-0.8-0.6-1.6-1.2-2.3-1.8c-1.9,3.5-3.1,6.6-2.4,10.6
					c0.3,1.5,2.4,1.3,2.9,0c0.5-1.6,1-3.1,1.3-4.8c-1-0.1-1.9-0.3-2.9-0.4c-0.3,2.5-0.8,4.5-1.7,6.8c1,0.3,1.9,0.5,2.9,0.8
					c0.3-1.5,0.7-2.9,1.3-4.3c-1-0.1-1.9-0.3-2.9-0.4c-0.3,1.2-0.7,2.4-1,3.6c0.9,0.4,1.8,0.8,2.7,1.1c0.4-0.6,0.9-1.1,1.3-1.7
					c-0.6-0.6-1.2-1.2-1.8-1.8c-0.4,0.7-0.8,1.4-1.2,2.1c0.8,0.6,1.6,1.2,2.3,1.8c0.4-0.3,0.7-0.6,1.1-1c-0.7-0.7-1.4-1.4-2-2
					C72,56,71.3,57,70.5,58c0.7,0.6,1.5,1.1,2.2,1.7c2.2-5.7,6.8-9.9,11.4-13.8c4.8-4,10.7-4.9,16.6-6.2c1.1-0.3,1.4-1.7,0.7-2.5
					c-2.8-2.8-6.5-3.2-9.8-1.1c-1.6,1-0.2,3.4,1.5,2.6c2.5-1.2,4.6-1.4,7.3-1.2c-0.4-0.8-0.7-1.7-1.1-2.5c-1.6,1.3-3.4,1.9-5.4,2
					c0.3,0.9,0.5,1.8,0.8,2.8c1.1-0.2,2.2-0.4,3.3-0.7c-0.3-0.9-0.5-1.8-0.8-2.8c-2.9,0.7-3.2,1.1-1,1.1c-0.3-0.9-0.5-1.8-0.8-2.8
					c-3.3,1.5-3.6,1.6-0.8,0.3c1.7-0.7,1-3.6-0.8-2.9c-2.2,0-2.6-0.2-1.2-0.5c0.8-0.2,1.6-0.4,2.4-0.6c2-0.4,4.1-0.4,6.2-0.3
					c2.3,0.2,9.7,1,11,3.1c0.6,1-0.3,0.2-1.4,0c-1.2-0.3-2.4-0.7-3.7-0.9c-4-0.6-8.1-0.2-12.2-0.9c-0.1,1-0.3,1.9-0.4,2.9
					c0.9,0.2,1.6,0,2.1-0.7c0.7-1,1-0.7,0.7,0.8c-0.1-0.9-0.2-1.8-0.4-2.7c-1,0.4-1.9,0.7-2.9,1.1c-0.1,0.6-0.2,1.2-0.2,1.8
					c1.2-0.7,2.5-0.9,3.8-0.6c-0.1-1-0.3-1.9-0.4-2.9c-1.2,0.6-2.3,0.7-3.5,0.1c0.2,0.6,0.5,1.1,0.7,1.7c1.2-0.5,2.4-0.6,3.6-0.3
					c-0.3-0.9-0.5-1.8-0.8-2.8c-1.7,1.4-3.6,1.8-5.8,1.1c0.1,0.9,0.2,1.8,0.4,2.7c1.4-0.2,2.8-0.4,4.3-0.5c-0.2-0.6-0.5-1.1-0.7-1.7
					c0,0.1,0,0.1-0.1,0.2c0.5-0.4,1-0.7,1.4-1.1c-0.1,0-0.1,0-0.2,0c0.1,1,0.3,1.9,0.4,2.9c2.4-0.1,4.9-0.2,7.3-0.2
					c-0.4-0.5-0.7-1-1.1-1.4c-0.9,0-1.9,0-2.8,0c-0.2,0.6-0.5,1.1-0.7,1.7c0.8,0,1.6-0.1,2.4-0.1c0-1,0-1.9,0-2.9
					c0.2,0.2,0.3,0.4,0.5,0.6c-1.2,1,0.1,2.8,1.4,2.5c2.2-0.5,3.9-0.6,6.1-0.4c-0.4-0.7-0.9-1.5-1.3-2.2c-0.3,0.4-0.5,0.7-0.8,1.1
					c-1.1,1.6,1.5,3.1,2.6,1.5c0.3-0.4,0.5-0.7,0.8-1.1c0.7-1-0.3-2.2-1.3-2.2c-2.4-0.2-4.6,0-6.9,0.5c0.5,0.8,1,1.7,1.4,2.5
					c3.8-3.4-7.1-7.1-8.5-2.1c-0.1,0.5,0,1.1,0.4,1.4c1.9,1.6,4.1,1.4,6.4,0.7c1.4-0.4,1.4-2.4,0-2.9c-1.8-0.5-3.1-0.6-4.7,0.4
					c-0.5,0.4-0.9,1-0.7,1.7c1.2,3.9,8.6,3.5,8.6-0.8c0-0.7-0.5-1.2-1.1-1.4c-1.9-0.7-7.5-0.3-6.4,3c0.9,2.8,4.1,1.4,5.2-0.2
					c0.3-0.4,0.3-1.1,0-1.5c-1.6-2.3-5.2-1.6-7.6-1.1c-1.6,0.3-1.3,3,0.4,2.9c0.1,0,0.1,0,0.2,0c0.7,0,1.2-0.4,1.4-1.1
					c0-0.1,0-0.1,0.1-0.2c0.2-0.7-0.2-1.3-0.7-1.7c-2.1-1.6-5.2-0.6-7.3,0.5c-1.1,0.6-0.9,2.4,0.4,2.7c3,0.7,5.5,0.3,8.1-1.4
					c1.3-0.9,0.7-2.6-0.8-2.8c-2.1-0.3-5.9-0.2-6.5,2.5c-0.1,0.7,0.1,1.3,0.7,1.7c1.8,1.1,3.8,0.8,5.8,0.2c1.7-0.5,1.2-2.7-0.4-2.9
					c-2.2-0.3-4.3-0.1-5.9,1.5c-0.5,0.5-0.6,1.2-0.2,1.8c1.5,2.6,4.9,1.3,7,0c1.1-0.7,0.9-2.4-0.4-2.7c-1.9-0.5-3.8-0.6-5.3,0.9
					c-0.4,0.4-0.5,1-0.4,1.4c1,3,7.2,3.2,8.3,0.2c0.2-0.5,0-1.1-0.4-1.4c-1.6-1.3-3.7-1.4-5.8-1.3c-1.5,0.1-2.2,2.6-0.4,2.9
					c4.7,0.8,9.6,0.2,14.3,1.3c2.1,0.5,5.7,2.2,7.8,0.6c4.3-3.2-5.6-7-7.4-7.6c-3.8-1.2-7.9-1.8-11.8-1.5c-2.7,0.2-7.4,0.5-9.3,2.8
					c-3.4,4,4.3,5.3,6.8,4.4c-0.3-1-0.5-1.9-0.8-2.9c-1.8,0.8-6.1,2.8-4.9,5.6c1.3,3.1,6.3,0.6,8.1-0.4c1.3-0.7,0.7-2.8-0.8-2.8
					c-2.1,0-7.9,0.9-6.7,4.3c1.2,3.5,7.2,1.1,9.2,0.1c1.4-0.7,0.6-2.7-0.8-2.8c-1.9-0.1-3.1,0.2-4.8,1.1c-1.3,0.6-0.7,3,0.8,2.8
					c2.9-0.4,5.2-1,7.5-2.9c1.1-0.9,0.1-2.4-1.1-2.5c-3.3-0.3-5.9,0.2-8.8,1.6c0.5,0.9,1,1.7,1.5,2.6c2.2-1.5,4.2-1.3,6.2,0.6
					c0.2-0.8,0.4-1.7,0.7-2.5c-6.6,1.5-12.6,2.5-17.9,7c-5,4.3-9.8,8.8-12.2,15.1C69.4,60,71,61.3,72,60.6c1.5-1.2,2.5-2.2,3.3-4
					c0.6-1.3-0.7-2.8-2-2c-1.2,0.7-1.4,0.9-2.1,2c-0.9,1.5,1.1,2.9,2.3,1.8c1.1-1,1.7-1.9,2-3.4c0.2-1-0.7-2.3-1.8-1.8
					c-2,0.8-2.9,1.6-3.4,3.8c-0.3,1.7,1.8,2.6,2.7,1.1c1.2-1.7,1.5-3,1.4-5.1c-0.1-1.7-2.3-1.9-2.9-0.4c-0.6,1.5-1,2.8-1.3,4.3
					c-0.4,1.9,2.2,2.6,2.9,0.8c0.9-2.5,1.5-5,1.8-7.6c0.2-1.7-2.6-2-2.9-0.4c-0.4,1.6-0.8,3.2-1.3,4.8c1,0,1.9,0,2.9,0
					c-0.6-3.2,0.6-5.6,2.1-8.3c0.8-1.4-1.2-3.1-2.3-1.8c-4.4,5.1-5.3,12.4-5,19c0.1,1.1,1.7,2.1,2.5,1.1c3.3-4.2,9.1-7.4,10.3-12.9
					c0.3-1.4-1.4-2.6-2.5-1.4c-1.1,1.2-1.2,1.4-2.1,2.8c0.9,0.4,1.8,0.8,2.7,1.1c0.4-1.6,0.5-1.9,0.6-3.6c0.2-1.6-2-1.9-2.8-0.8
					c-0.9,1.3-1.7,2.6-2.6,3.9c0.9,0.4,1.8,0.8,2.7,1.1c0.9-2.3,1.8-4.7,2.6-7c0.6-1.7-1.8-2.5-2.7-1.1c-1.3,1.8-2.5,3.7-3.8,5.5
					c0.9,0.4,1.8,0.8,2.7,1.1c0.7-2.5,1.4-5,2.1-7.5c0.5-1.6-1.9-2.6-2.7-1.1c-0.7,1.2-1.2,2.4-1.7,3.7c1,0.3,1.9,0.5,2.9,0.8
					c0.6-3.7,2.2-6.8,4.1-9.9c0.8-1.4-1.2-3.1-2.3-1.8c-2.2,2.5-5,4.6-5,8c0,1.5,2,2,2.8,0.8c1.4-2.1,4.3-8.2,6.8-8.7
					c-0.6-0.7-1.1-1.5-1.7-2.2c-1,2.3-2.2,4.3-3.7,6.3c-1,1.3,1.2,3.1,2.3,1.8c0.7-1,1.7-1.8,2.8-2.4c-0.7-0.7-1.4-1.4-2-2
					c-1.1,2-2.3,3.9-3.4,5.9c-0.8,1.4,1.2,3.1,2.3,1.8c1.4-1.7,2.8-3.1,4.5-4.5c-0.8-0.5-1.7-1-2.5-1.4c-0.8,2.2-1.7,4.4-2.5,6.6
					C78.3,49,80.4,50,81.4,49c1.7-1.7,3-3.4,4.3-5.5c-0.9-0.5-1.7-1-2.6-1.5c-1.2,2.2-2.4,4.4-3.6,6.7c-0.8,1.4,1.3,3.2,2.3,1.8
					c1.5-1.9,2.8-3.8,3.9-5.9c0.9-1.6-1.1-2.8-2.3-1.8c-2.9,2.3-4.3,5.1-4.7,8.7c-0.2,1.4,1.7,1.7,2.5,1.1c2.3-1.8,3.8-3.9,5.3-6.4
					c0.9-1.4-1.2-3.1-2.3-1.8c-1.7,1.9-3.1,3.9-4.2,6.2c-0.8,1.5,1,2.9,2.3,1.8c2.5-2.2,4.4-4.6,5.9-7.6c-0.9-0.5-1.7-1-2.6-1.5
					c-1.4,3-2.8,6-4.3,9c-0.8,1.7,1.7,3.2,2.6,1.5c2.3-4.7,6.1-7.6,10.4-10.3c-0.6-0.8-1.2-1.6-1.8-2.3
					c-8.2,7.2-16.2,14.6-23.9,22.2c0.8,0.5,1.7,1,2.5,1.4c0.2-0.4,0.3-0.9,0.5-1.3C72.3,61.8,69.5,61,68.8,62.8L68.8,62.8z"/>
			</g>
		</g>
		<g>
			<g>
				<g>
					<path class="st1" d="M99,40.1c2.2,2.7,6.6,3.6,9.7,4.6c4.6,1.4,9.2,2.1,13.9,2.4c0.8,0,0.8-1.1,0-1.2c-4.1-0.3-8.1-0.9-12-1.9
						c-3.3-0.9-8.6-2-10.8-4.7C99.4,38.7,98.6,39.5,99,40.1L99,40.1z"/>
				</g>
			</g>
			<g>
				<g>
					<path class="st1" d="M70,52.2c3.7-11.5,12.7-21.1,24.9-23.4c12.4-2.3,28.7,4.7,32.1,17.7c0.2,0.7,1.3,0.4,1.1-0.3
						c-3.5-13-19.2-20.4-31.8-18.8c-13.4,1.7-23.5,12-27.5,24.5C68.6,52.6,69.8,52.9,70,52.2L70,52.2z"/>
				</g>
			</g>
			<g>
				<g>
					<path class="st1" d="M115.9,90.6c-3.8,1-3.6,6.6,0.4,7.1c0.7,0.1,1.1-1,0.3-1.1c-2.8-0.4-3.1-4.1-0.4-4.8
						C116.9,91.6,116.6,90.4,115.9,90.6L115.9,90.6z"/>
				</g>
			</g>
			<g>
				<g>
					<path class="st1" d="M115.8,97.1c-1.6,0.1-2.8,1.4-3,3c-0.2,2,1.3,3.5,3,4.3c0.7,0.3,1.3-0.7,0.6-1c-1-0.5-2.1-1.3-2.3-2.5
						c-0.3-1.2,0.5-2.5,1.8-2.6C116.5,98.3,116.5,97.1,115.8,97.1L115.8,97.1z"/>
				</g>
			</g>
			<g>
				<g>
					<path class="st1" d="M115.9,104.1c-3.9-0.3-4.5,7.2-0.2,6.7c0.8-0.1,0.8-1.3,0-1.2c-2.8,0.3-2.1-4.5,0.2-4.4
						C116.7,105.4,116.7,104.2,115.9,104.1L115.9,104.1z"/>
				</g>
			</g>
			<g>
				<g>
					<path class="st1" d="M115.7,110.3c-2.1-0.1-3.1,2-2.7,3.8c0.5,1.9,2.3,3,4.1,2.8c0.8-0.1,0.4-1.2-0.3-1.1
						c-1.1,0.1-2.1-0.6-2.6-1.6c-0.5-1.1-0.1-2.7,1.4-2.6C116.5,111.5,116.5,110.3,115.7,110.3L115.7,110.3z"/>
				</g>
			</g>
			<g>
				<g>
					<path class="st1" d="M118.9,90.4c2.3,0.7,0.8,3.4-0.3,4.4c-0.5,0.5,0.3,1.4,0.8,0.8c1-1,1.9-2.3,1.8-3.8
						c-0.1-1.2-0.9-2.2-2-2.6C118.5,89,118.2,90.2,118.9,90.4L118.9,90.4z"/>
				</g>
			</g>
			<g>
				<g>
					<path class="st1" d="M118.2,96.1c2.7,1.4,2.9,4.7,0.5,6.6c-0.6,0.5,0.2,1.3,0.8,0.8c2.9-2.3,2.5-6.7-0.8-8.5
						C118.2,94.7,117.6,95.7,118.2,96.1L118.2,96.1z"/>
				</g>
			</g>
			<g>
				<g>
					<path class="st1" d="M118.8,104.3c0.9,0.4,1.9,0.9,2.5,1.8c0.7,1.2,0.3,3-1.3,2.8c-0.8-0.1-0.8,1.1,0,1.2
						c1.7,0.2,3-1.3,2.9-2.9c-0.1-2-1.7-3.2-3.4-3.9C118.7,103,118.1,104,118.8,104.3L118.8,104.3z"/>
				</g>
			</g>
			<g>
				<g>
					<path class="st1" d="M119.1,110.8c2.3,0.6,3,3.1,1.7,5c-0.4,0.6,0.6,1.2,1,0.6c1.8-2.5,0.5-5.9-2.4-6.7
						C118.6,109.4,118.3,110.6,119.1,110.8L119.1,110.8z"/>
				</g>
			</g>
			<g>
				<g>
					<path class="st1" d="M116.4,117c-0.3,1.3-0.5,2.6-0.8,3.8c-0.1,0.3,0.1,0.6,0.4,0.7c1,0.3,1.7-0.4,2.2-1.2
						c0.5-0.7,0.8-0.9,1.4-0.2c0.3,0.3,0.6,0.7,1,0.9c0.7,0.3,1.3-0.7,0.6-1c-0.8-0.4-1.2-1.5-2.2-1.5c-0.5,0-0.9,0.2-1.2,0.5
						c-0.4,0.4-0.9,1.7-1.6,1.6c0.1,0.2,0.3,0.5,0.4,0.7c0.3-1.3,0.5-2.6,0.8-3.8C117.8,116.6,116.6,116.3,116.4,117L116.4,117z"/>
				</g>
			</g>
			<g>
				<g>
					<path class="st1" d="M119.4,116.2c0.2,1.7,0.7,3.2,1.6,4.6c0.4,0.6,1.4,0,1-0.6c-0.8-1.2-1.3-2.6-1.5-4
						C120.5,115.4,119.3,115.4,119.4,116.2L119.4,116.2z"/>
				</g>
			</g>
			<g>
				<g>
					<path class="st1" d="M70,66.4C80,58.1,90.7,50.2,99,39.9c0.5-0.6-0.4-1.4-0.8-0.8c-8.2,10.2-18.9,18.1-29,26.5
						C68.5,66,69.4,66.9,70,66.4L70,66.4z"/>
				</g>
			</g>
			<g>
				<g>
					<path class="st1" d="M69.8,66.2c-1.5-2.1-1.1-6.1-0.8-8.6c0.2-2.9,0.9-5.6,1.9-8.3c0.3-0.7-0.9-1-1.1-0.3
						c-1.2,3.2-1.9,6.5-2,9.9c-0.1,2.4-0.4,5.9,1.1,7.9C69.2,67.4,70.2,66.8,69.8,66.2L69.8,66.2z"/>
				</g>
			</g>
			<g>
				<g>
					<path class="st1" d="M79.1,87.7c-1.7,0-3.4,1.1-3.6,2.9c-0.2,1.7,1.1,3.2,2.8,3.3c0.8,0,0.8-1.1,0-1.2c-1-0.1-1.8-1.1-1.6-2.1
						c0.2-1.1,1.4-1.7,2.4-1.6C79.8,88.9,79.8,87.7,79.1,87.7L79.1,87.7z"/>
				</g>
			</g>
			<g>
				<g>
					<path class="st1" d="M77.9,93c-2.9,0.7-2.9,4.6-0.1,5.5c0.7,0.2,1-0.9,0.3-1.1c-1.7-0.5-1.5-2.8,0.1-3.2
						C79,94,78.6,92.8,77.9,93L77.9,93z"/>
				</g>
			</g>
			<g>
				<g>
					<path class="st1" d="M78,97.7c-1.3,0.6-2.6,1.6-2.7,3.1c-0.1,1.2,0.7,2.5,2,2.7c0.7,0.1,1.1-1,0.3-1.1c-0.9-0.1-1.3-1.1-1-2
						c0.3-0.9,1.2-1.4,2-1.7C79.3,98.4,78.7,97.4,78,97.7L78,97.7z"/>
				</g>
			</g>
			<g>
				<g>
					<path class="st1" d="M77.9,103c-1.4,0.2-2.6,1.2-2.7,2.6c-0.1,1.4,1,2.7,2.4,3c0.7,0.1,1.1-1,0.3-1.1c-1.9-0.4-2-3.1,0-3.3
						C78.7,104.1,78.7,102.9,77.9,103L77.9,103z"/>
				</g>
			</g>
			<g>
				<g>
					<path class="st1" d="M78.2,108.1c-1.6-0.1-3.4,1.7-3.4,3.3c-0.1,1.9,2.4,2.8,3.9,3.1c0.7,0.1,1.1-1,0.3-1.1
						c-0.9-0.2-2.2-0.5-2.8-1.3c-0.9-1.1,0.9-2.8,2-2.7C79,109.4,79,108.2,78.2,108.1L78.2,108.1z"/>
				</g>
			</g>
			<g>
				<g>
					<path class="st1" d="M78.9,114.1c-1.6-0.3-3.3,0.8-3.6,2.5c-0.2,1.8,1.3,3.2,3.1,3.2c0.8,0,0.8-1.2,0-1.2c-1,0-2.1-0.9-1.9-1.9
						c0.2-0.9,1.2-1.6,2.1-1.4C79.3,115.4,79.6,114.2,78.9,114.1L78.9,114.1z"/>
				</g>
			</g>
			<g>
				<g>
					<path class="st1" d="M81.9,119.7c1.3,0.2,3,0.1,3.2-1.6c0.1-1.7-1.2-3.2-2.6-4c-0.7-0.4-1.3,0.7-0.6,1c0.9,0.5,1.5,1.2,1.9,2.1
						c0.2,0.5,0.3,1.1-0.3,1.3c-0.4,0.1-0.9,0-1.3,0C81.5,118.4,81.2,119.5,81.9,119.7L81.9,119.7z"/>
				</g>
			</g>
			<g>
				<g>
					<path class="st1" d="M82.1,114.9c1.4-0.2,3.2-0.6,3.3-2.3c0.2-1.8-1.6-2.8-3.1-3.3c-0.7-0.3-1,0.9-0.3,1.1
						c0.9,0.3,2.2,0.9,2.2,2c0,1-1.3,1.2-2.1,1.3C81.3,113.8,81.3,115,82.1,114.9L82.1,114.9z"/>
				</g>
			</g>
			<g>
				<g>
					<path class="st1" d="M81.9,110.4c3.1-1,3.6-5,0.8-6.7c-0.7-0.4-1.2,0.6-0.6,1c1.9,1.2,1.6,3.9-0.5,4.6
						C80.8,109.5,81.1,110.6,81.9,110.4L81.9,110.4z"/>
				</g>
			</g>
			<g>
				<g>
					<path class="st1" d="M82.2,104.5c1.2-0.2,2-1.4,2-2.7c0-1.5-1.2-2.7-2.3-3.6c-0.6-0.5-1.4,0.4-0.8,0.8c0.7,0.5,1.4,1.1,1.8,1.9
						c0.4,0.9,0.2,2.1-0.9,2.3C81.1,103.5,81.4,104.6,82.2,104.5L82.2,104.5z"/>
				</g>
			</g>
			<g>
				<g>
					<path class="st1" d="M81.1,98.8c2.8-0.3,3.7-3.7,1.3-5.3c-0.6-0.4-1.2,0.6-0.6,1c1.3,0.9,0.9,2.9-0.7,3.1
						C80.3,97.6,80.3,98.8,81.1,98.8L81.1,98.8z"/>
				</g>
			</g>
			<g>
				<g>
					<path class="st1" d="M81.7,94.3c1-0.4,2.1-1,2.4-2.2c0.2-1-0.2-2.1-1.1-2.5c-0.7-0.3-1.3,0.7-0.6,1c0.5,0.2,0.7,0.8,0.5,1.4
						c-0.3,0.6-0.9,1-1.5,1.2C80.7,93.3,81,94.5,81.7,94.3L81.7,94.3z"/>
				</g>
			</g>
			<g>
				<g>
					<path class="st1" d="M79.4,88.8c1,0.3,1.8,0.8,2.5,1.5c0.5,0.5,1.4-0.3,0.8-0.8c-0.8-0.9-1.9-1.5-3-1.8
						C79,87.4,78.7,88.6,79.4,88.8L79.4,88.8z"/>
				</g>
			</g>
			<g>
				<g>
					<path class="st1" d="M115.6,91.8c1.1-0.8,2.2-1.4,3.4-2c0.7-0.3,0.1-1.4-0.6-1c-1.2,0.6-2.3,1.3-3.4,2
						C114.4,91.2,115,92.2,115.6,91.8L115.6,91.8z"/>
				</g>
			</g>
			<g>
				<g>
					<path class="st1" d="M78.7,121C78.7,121,78.8,121,78.7,121c0.3,0,0.5-0.2,0.6-0.4c0.1-0.2,0-0.4-0.1-0.6
						c-0.2-0.2-0.4-0.3-0.7-0.3c-1,0.2-1.1,1.9-1,2.7c0,0.3,0.5,0.5,0.7,0.4c1-0.3,1.9-0.8,2.7-1.6c0.5-0.6-0.3-1.4-0.8-0.8
						c-0.6,0.6-1.3,1.1-2.2,1.3c0.2,0.1,0.5,0.3,0.7,0.4c0-0.2,0-0.5,0-0.7c0-0.1,0.1-0.2,0.1-0.3c0-0.1,0.2-0.2,0.1-0.2
						c-0.2-0.1-0.4-0.2-0.7-0.3c0,0,0,0,0,0.1c0-0.2,0-0.3-0.1-0.5c0,0,0,0.1,0,0.1c0.2-0.1,0.4-0.3,0.6-0.4c0,0,0,0-0.1,0
						C78,119.8,78,121,78.7,121L78.7,121z"/>
				</g>
			</g>
			<g>
				<g>
					<path class="st1" d="M80.6,120.8c0.5,0.8,1.2,1.5,2,2c0.3,0.2,0.8,0,0.9-0.4c0.1-0.7-0.1-1.2-0.5-1.7c-0.3-0.5-0.9-0.9-0.8-1.6
						c0.1-0.8-1.1-0.8-1.2,0c-0.1,0.6,0.2,1.1,0.5,1.6c0.3,0.4,0.9,0.9,0.8,1.4c0.3-0.1,0.6-0.2,0.9-0.4c-0.7-0.4-1.2-0.9-1.6-1.6
						C81.2,119.5,80.2,120.1,80.6,120.8L80.6,120.8z"/>
				</g>
			</g>
			<g>
				<g>
					<path class="st1" d="M78.4,88c-1.1-0.1-1.8-1.3-1.3-2.3c0.3-0.7-0.7-1.3-1-0.6c-0.9,1.9,0.3,3.9,2.3,4.1
						C79.2,89.2,79.2,88,78.4,88L78.4,88z"/>
				</g>
			</g>
			<g>
				<g>
					<path class="st1" d="M120.4,90.3c0.3-0.5,0.5-1,0.6-1.6c0.1-0.8-1.1-0.8-1.2,0c0,0.4-0.2,0.7-0.4,1
						C119,90.3,120,90.9,120.4,90.3L120.4,90.3z"/>
				</g>
			</g>
			<g>
				<g>
					<path class="st1" d="M122.2,46.8c2.2,4.8,4.3,9,9.1,11.7c0.7,0.4,1.3-0.6,0.6-1c-4.6-2.6-6.5-6.7-8.6-11.3
						C122.9,45.5,121.9,46.1,122.2,46.8L122.2,46.8z"/>
				</g>
			</g>
			<g>
				<g>
					<path class="st1" d="M123.7,46.5c0-0.1,0-0.1,0-0.2c0-0.8-1.2-0.8-1.2,0c0,0.1,0,0.1,0,0.2C122.5,47.3,123.7,47.3,123.7,46.5
						L123.7,46.5z"/>
				</g>
			</g>
			<g>
				<g>
					<path class="st1" d="M132.3,57.7c0.3-4.5-2.1-9.8-4.7-13.4c-0.4-0.6-1.5,0-1,0.6c2.4,3.5,4.8,8.5,4.5,12.8
						C131.1,58.4,132.3,58.4,132.3,57.7L132.3,57.7z"/>
				</g>
			</g>
		</g>
		<g>
			<g>
				<path class="st0" d="M80.1,97.9c0-0.1,0.1-0.2,0.1-0.3c-0.6,0.3-1.2,0.7-1.8,1c0.1,0,0.2,0,0.3,0c1.3,0.2,2.3-0.9,1.7-2.2
					c0-0.2,0-0.5,0-0.7c0.3-1.4-1.5-2.6-2.5-1.4c-0.2,0.3-0.5,0.5-0.7,0.8c0.8,0.1,1.6,0.2,2.3,0.3c0.8,0.7,1.4,0.5,1.9-0.6
					c-0.8-0.4-1.7-0.7-2.5-1.1c0.1,1.7,0.2,2,1.4,3.2c0.7,0.8,2.3,0.5,2.5-0.7c0-0.2,0.1-0.4,0.1-0.6c0.3-1.7-1.7-2.5-2.7-1.1
					c-0.2,0.3-2.7,5.2-2,5.2c0.4,0.7,0.9,1.5,1.3,2.2c0.3-0.5,0.5-1,0.8-1.5c0.8-1.5-1.1-2.9-2.3-1.8c-1,0.9-1.4,1.4-1.3,2.8
					c0.1,0.7,2.5,4.9,2.2,4.9c-0.3-0.9-0.5-1.8-0.8-2.8c-4.3,2.5,0.6,7.7,4.1,5.9c2-1,1.6-2.9,1.3-4.6c-0.5-2.4,0.5-3.9-1.9-5.8
					c-1.1-0.8-2.4-0.3-2.5,1.1c-0.2,1.6-0.3,3.1-0.3,4.7c0,0.6-0.2,5.2-0.4,5c0.1,0.6,0.2,1.2,0.2,1.8c0.3-0.2,0.6-0.5,0.9-0.7
					c-0.7-0.4-1.5-0.9-2.2-1.3c0-0.5-0.6,1.1-0.5,1.5c0.1,0.8,0.5,1.4,1,2c1.3,1.3,5.1,2,6.2,0.1c1.1-1.8-0.8-3.6-2.6-3.5
					c-0.8,0-1.8,0.5-2.3,1.2c-1.6,2.4,1.2,2.7,1,5.1c-0.4,0.5-0.7,1-1.1,1.4c0.2,0,0.3-0.1,0.5-0.1c-0.3-1-0.5-1.9-0.8-2.9
					c-5.4,1.6,0.8,6.8,4.9,3.4c-0.7,0-1.4,0-2.1,0c0.2,0.2,0.4,0.4,0.7,0.6c1.4,1.3,3.4-0.7,2.1-2.1c-0.6-0.7-1.2-1.4-1.8-2
					c-1.3-1.4-3.4,0.7-2.1,2.1c0.6,0.7,1.2,1.4,1.8,2c0.7-0.7,1.4-1.4,2.1-2.1c-0.2-0.2-0.4-0.4-0.7-0.6c-0.6-0.6-1.5-0.5-2.1,0
					c-0.7,0.5-1.4,1.1-2,1.6c1.8-0.6,1.1-3.3-0.8-2.9c-0.2,0-0.3,0.1-0.5,0.1c-0.7,0.1-1,0.8-1.1,1.4c0,0.2,0,0.4-0.1,0.6
					c-0.1,0.5,0.3,1.1,0.7,1.3c1.6,0.7,3.2,0.3,4-1.5c0.3-0.7,0.3-1.7,0.1-2.5c-0.7-0.9-1.3-1.9-2-2.8c0.1-0.1,0.2-0.3,0.3-0.5
					c0-0.1,0.1-0.8,0.1-1c0-1.1-1.3-1.9-2.2-1.3c-0.8,0.6-1.5,0.9-1.9,1.8c-0.3,0.6-0.3,1.4,0.2,1.8c1.5,1.2,3.4,0.4,4.5-0.9
					c2.2-2.7,0.9-7.7,1.3-10.9c-0.8,0.4-1.7,0.7-2.5,1.1c1,0.8,0,1.6,0.1,2.6c0,0.4,0.3,0.7,0.3,1c0.2,0.3,0.2,0.7,0.2,1
					c0.2,0.8,0,0.9-0.4,0.2c1.2-0.7,0.8-2.9-0.8-2.8c-2.2,0.2-3.1,3.1-0.7,3.9c5.2,1.6,1.4-6.2,1.8-6.5c-0.8-0.6-1.6-1.2-2.3-1.8
					c-0.3,0.5-0.5,1-0.8,1.5c-0.5,1,0.1,2.2,1.3,2.2c3.2,0,3.1-4.8,4.5-6.7c-0.9-0.4-1.8-0.8-2.7-1.1c0,0.2-0.1,0.4-0.1,0.6
					c0.8-0.2,1.7-0.4,2.5-0.7c-0.2-0.4-0.3-0.7-0.5-1.1c-0.1-1.3-1.6-2-2.5-1.1c-1.1,1-3.4,2.4-2.4,4.2c0.5,0.8,1.7,1,2.3,0.3
					c0.2-0.3,0.5-0.5,0.7-0.8c-0.8-0.5-1.7-1-2.5-1.4c-0.3,1.4-0.3,1.7,0.3,3c0.6-0.7,1.1-1.5,1.7-2.2c-0.1,0-0.2,0-0.3,0
					c-0.8-0.1-1.5,0.2-1.8,1c0,0.1-0.1,0.2-0.1,0.3C76.6,98.9,79.5,99.7,80.1,97.9L80.1,97.9z"/>
			</g>
		</g>
		<g>
			<g>
				<path class="st0" d="M117.3,113.5c-0.1-0.1-0.2-0.1-0.2-0.2c0.1,0.1,0,0.1-0.1-0.1c0.1,0.2-0.1-0.3,0,0c0,0.1,0,0.1,0,0
					c0-0.1,0-0.1,0,0c-0.1,0.1-0.1,0.1,0,0c-0.1,0.1-0.1,0.1,0.1,0c0.7-0.3,0.9-1.4,0.5-2c-0.4-0.8-1.3-0.9-2-0.5
					c-2.1,0.9-1.9,3.7-0.4,5c0.6,0.5,1.5,0.6,2.1,0C117.9,115.1,117.9,114,117.3,113.5L117.3,113.5z"/>
			</g>
		</g>
		<g>
			<g>
				<path class="st0" d="M116.8,106.3c-1.1,1-1.3,1.5-0.7,1.5c0.1,0,0.1,0,0,0c0.8,0.1,1.6-0.2,1.8-1c0.2-0.7-0.2-1.7-1-1.8
					c-0.8-0.2-1.8-0.2-2.4,0.5c-0.6,0.6-0.8,1.6-0.3,2.4c0.4,0.7,1.3,0.9,2,0.5C117,107.9,117.2,107,116.8,106.3L116.8,106.3z"/>
			</g>
		</g>
		<g>
			<g>
				<path class="st0" d="M102.4,34.8c-1.3-0.3-2.7,0.1-3,1.5c-0.1,0.6,0,1.3,0.4,1.8c0.2,0.3,0.4,0.5,0.6,0.7
					c0.1,0.1,0.1,0.2,0.2,0.2c0.2,0.1,0,0,0-0.1c0-0.3,0-0.5,0-0.8c0,0,0-0.1,0.1-0.1c0.2-0.2,0.4-0.4,0.5-0.5c0.4,0,0.7,0,1.1,0
					c0.2,0.2,0.4,0.4,0.5,0.5c0,0,0,0,0-0.1c-0.3-0.7-1.4-0.9-2-0.5c-0.7,0.4-0.9,1.3-0.5,2c0.3,0.7,1.2,1,1.9,0.8
					c0.9-0.2,1.4-1,1.3-1.9c-0.1-0.7-0.5-1.2-1-1.7c-0.1-0.1-0.1-0.2-0.2-0.2c-0.1-0.1,0,0,0,0.1c0,0.1,0,0.3,0,0.4
					c-0.3,0.2-0.5,0.5-0.8,0.7c-0.1,0-0.2,0,0,0c0.1,0,0.1,0,0.2,0c0.8,0.2,1.6-0.3,1.8-1C103.6,35.9,103.1,35,102.4,34.8
					L102.4,34.8z"/>
			</g>
		</g>
		<g>
			<g>
				<path class="st0" d="M101.6,39.7c1.9,0,1.9-3,0-3C99.6,36.7,99.6,39.7,101.6,39.7L101.6,39.7z"/>
			</g>
		</g>
		<g>
			<g>
				<path class="st0" d="M120.5,45.2c1.9,0,1.9-3,0-3C118.6,42.2,118.6,45.2,120.5,45.2L120.5,45.2z"/>
			</g>
		</g>
		<g>
			<g>
				<path class="st0" d="M121.3,45.9c1.9,0,1.9-3,0-3C119.4,42.9,119.4,45.9,121.3,45.9L121.3,45.9z"/>
			</g>
		</g>
		<g>
			<g>
				<path class="st0" d="M121.8,45.9c1.9,0,1.9-3,0-3C119.9,42.9,119.9,45.9,121.8,45.9L121.8,45.9z"/>
			</g>
		</g>
	</g>
	<g>
		<g>
			<path class="st2" d="M72,59c8.2-6.4,16.1-13.2,23.8-20.3c0.6-0.5-0.3-1.4-0.8-0.8C87.3,45,79.4,51.7,71.2,58.2
				C70.6,58.6,71.5,59.5,72,59L72,59z"/>
		</g>
	</g>
	<g>
		<g>
			<path class="st2" d="M102.3,38.9c5.1,4.1,12.3,4.3,18.6,5.3c0.7,0.1,1.1-1,0.3-1.1c-5.9-1-13.2-1.1-18.1-5
				C102.6,37.6,101.7,38.4,102.3,38.9L102.3,38.9z"/>
		</g>
	</g>
	<g>
		<g>
			<path class="st2" d="M125.7,47.6c0.6,1.8,1.5,3.3,2.7,4.7c0.5,0.6,1.3-0.3,0.8-0.8c-1.1-1.2-1.9-2.7-2.4-4.2
				C126.6,46.6,125.4,46.9,125.7,47.6L125.7,47.6z"/>
		</g>
	</g>
	<g>
		<g>
			<path class="st2" d="M71.6,59.7c3.1-10,6.8-20.8,17.1-25.3c0.7-0.3,0.1-1.3-0.6-1c-10.6,4.7-14.5,15.7-17.6,26
				C70.2,60.1,71.3,60.4,71.6,59.7L71.6,59.7z"/>
		</g>
	</g>
	<g>
		<g>
			<path class="st2" d="M79.2,117.4c-0.3-0.1-0.4-0.3-0.5-0.5c-0.3-0.7-1.3-0.1-1,0.6c0.2,0.5,0.7,0.9,1.2,1.1
				C79.6,118.8,80,117.6,79.2,117.4L79.2,117.4z"/>
		</g>
	</g>
	<g>
		<g>
			<path class="st2" d="M81.7,113.2c0.1-0.4,0.1-0.8,0.2-1.2c0.1-0.7-1-1.1-1.1-0.3c-0.1,0.4-0.1,0.8-0.2,1.2
				C80.4,113.6,81.6,113.9,81.7,113.2L81.7,113.2z"/>
		</g>
	</g>
	<g>
		<g>
			<path class="st2" d="M78.7,107.1c-0.4-0.3-0.4-0.9-0.1-1.2c0.6-0.5-0.3-1.3-0.8-0.8c-1,0.8-0.8,2.4,0.3,3.1
				C78.8,108.5,79.4,107.5,78.7,107.1L78.7,107.1z"/>
		</g>
	</g>
	<g>
		<g>
			<path class="st2" d="M81.7,103.3c0.4-1.2,0-2.5-0.9-3.3c-0.6-0.5-1.4,0.3-0.8,0.8c0.6,0.5,0.8,1.3,0.6,2.1
				C80.4,103.7,81.5,104,81.7,103.3L81.7,103.3z"/>
		</g>
	</g>
	<g>
		<g>
			<path class="st2" d="M79.2,96.7c-0.3-0.2-0.5-0.4-0.7-0.7c0,0-0.2-0.3-0.2-0.2c-0.1,0-0.1,0,0,0c0.1,0,0.1,0,0.2,0
				c0.5-0.1,0.8-0.2,1.1-0.6c0.4-0.6-0.6-1.2-1-0.6c0,0.1-0.5,0.1-0.7,0.2c-0.3,0.1-0.6,0.4-0.7,0.7c-0.2,0.8,0.6,1.7,1.1,2.2
				C78.9,98.1,79.8,97.2,79.2,96.7L79.2,96.7z"/>
		</g>
	</g>
	<g>
		<g>
			<path class="st2" d="M79,91.5c0.6-0.2,1.2-0.2,1.7,0.1c0.7,0.3,1.3-0.7,0.6-1c-0.8-0.4-1.7-0.5-2.6-0.2
				C78,90.5,78.3,91.7,79,91.5L79,91.5z"/>
		</g>
	</g>
	<g>
		<g>
			<path class="st2" d="M118.1,114.1c-0.6-0.1-1.2-0.3-1.8-0.4c-0.1,0-0.4-0.2-0.4,0c0-0.2,0.6-0.1,0.7-0.1c0.8,0,0.8-1.2,0-1.2
				c-0.5,0-1.1,0-1.5,0.4c-0.4,0.3-0.5,0.8-0.4,1.3c0.2,0.4,0.6,0.6,1,0.8c0.7,0.2,1.3,0.3,2,0.5
				C118.5,115.4,118.8,114.3,118.1,114.1L118.1,114.1z"/>
		</g>
	</g>
	<g>
		<g>
			<path class="st2" d="M118.4,108.4c0.7-0.1,1.4-0.5,1.5-1.3c0.2-0.7-0.3-1.5-0.9-1.8c-0.7-0.3-1.3,0.7-0.6,1
				c0.4,0.2,0.5,0.8,0,0.8C117.6,107.2,117.6,108.4,118.4,108.4L118.4,108.4z"/>
		</g>
	</g>
	<g>
		<g>
			<path class="st2" d="M116.9,100.7c-0.4-0.1-0.5-0.4-0.4-0.8c0.3-0.7-0.9-1-1.1-0.3c-0.3,0.9,0.3,2,1.3,2.2
				C117.3,102.1,117.6,100.9,116.9,100.7L116.9,100.7z"/>
		</g>
	</g>
	<g>
		<g>
			<path class="st2" d="M117.4,94.7c0.3-0.2,0.7-0.4,1-0.7c0.6-0.4,0-1.5-0.6-1c-0.3,0.2-0.7,0.4-1,0.7
				C116.1,94.1,116.7,95.1,117.4,94.7L117.4,94.7z"/>
		</g>
	</g>
</g>
</svg>
