<svg id="Layer_1" data-name="Layer 1" xmlns="http://www.w3.org/2000/svg" viewBox="0 0 60.85 43.81"><defs><style>.cls-1{fill:#ee7a22;}.cls-2{fill:#ec8622;}</style></defs><title>Orange</title><path class="cls-1" d="M72,56.8V55.5H69a15.15,15.15,0,0,0,1,3.8,1.55,1.55,0,0,0,2.1.5,1.47,1.47,0,0,0,.5-2.1,8.65,8.65,0,0,1-.6-2.3,1.5,1.5,0,0,0-3,0v1.3a1.5,1.5,0,1,0,3,.1Z" transform="translate(-68.7 -20.62)"/><path class="cls-1" d="M71.3,62.8a1.5,1.5,0,0,0,0-3,1.5,1.5,0,0,0,0,3Z" transform="translate(-68.7 -20.62)"/><path class="cls-1" d="M72.4,59.4c-.1-.3-.1-.6-.2-.8a1.4,1.4,0,0,0-1.8-1,1.43,1.43,0,0,0-1,1.8c.1.3.1.6.2.8a1.46,1.46,0,0,0,2.8-.8Z" transform="translate(-68.7 -20.62)"/><path class="cls-1" d="M72.2,58.3V57a1.5,1.5,0,0,0-3,0v1.3a1.54,1.54,0,0,0,1.5,1.5,1.47,1.47,0,0,0,1.5-1.5Z" transform="translate(-68.7 -20.62)"/><path class="cls-1" d="M72.1,55.6a.45.45,0,0,1,0,.5c-.1.4-.1.4,0,.2a1.58,1.58,0,0,0-.5-2.1,1.69,1.69,0,0,0-2.1.5,2,2,0,0,0,0,2.3,1.47,1.47,0,0,0,2.1.5,1.26,1.26,0,0,0,.5-1.9Z" transform="translate(-68.7 -20.62)"/><path class="cls-1" d="M72.1,55.1c.1-.3.1-.6.2-.8a1.46,1.46,0,0,0-2.8-.8c-.1.3-.1.6-.2.8a1.39,1.39,0,0,0,1,1.8,1.47,1.47,0,0,0,1.8-1Z" transform="translate(-68.7 -20.62)"/><path class="cls-1" d="M71.9,54.3V54c0,.2.1-.2,0-.1a1.72,1.72,0,0,0-.5-2.1,1.58,1.58,0,0,0-2.1.5A4.16,4.16,0,0,0,69,55a1.4,1.4,0,0,0,1.8,1,1.29,1.29,0,0,0,1.1-1.7Z" transform="translate(-68.7 -20.62)"/><path class="cls-1" d="M72.3,53.2c.1-.3.1-.6.2-.8a1.46,1.46,0,0,0-2.8-.8c-.1.3-.1.6-.2.8a1.39,1.39,0,0,0,1,1.8,1.47,1.47,0,0,0,1.8-1Z" transform="translate(-68.7 -20.62)"/><path class="cls-1" d="M85.6,34.8a5.82,5.82,0,0,1,3.1-1.1c-.3-1-.5-1.9-.8-2.9-2.4.8-4.9,1.5-7.3,2.4s-4.9,3.2-7.7,3.1c.3.9.5,1.9.8,2.8a10.36,10.36,0,0,0,4-2.8l-2.1-2.1-.8.8c-1.1,1.2.4,3.4,1.8,2.4,1.8-1.2,3.6-2.5,5.4-3.7l-1.8-2.4A10.62,10.62,0,0,1,77.3,34l1.8,2.4A46.4,46.4,0,0,1,85.6,32c-.5-.9-1-1.7-1.5-2.6a8.7,8.7,0,0,1-3.8,2c.5.8,1,1.7,1.5,2.5A27.56,27.56,0,0,1,98,27.7c-.3-.9-.5-1.9-.8-2.8a65.88,65.88,0,0,1-12.8,5.5c.3,1,.5,1.9.8,2.9a44.77,44.77,0,0,1,11.4-3.1c1.9-.2,1.9-3.3,0-3a52.28,52.28,0,0,0-12.2,3.2c-1.7.7-1.1,3.5.8,2.9a73.26,73.26,0,0,0,13.5-5.8,1.52,1.52,0,0,0-.8-2.8,31.26,31.26,0,0,0-18.3,7.1c-1.1.9.1,3,1.5,2.5A19.12,19.12,0,0,0,85.6,32a1.5,1.5,0,0,0-1.5-2.6,43.54,43.54,0,0,0-7.2,4.9c-1.3,1.1.4,3.3,1.8,2.4a17.77,17.77,0,0,0,3.5-3.2c1-1.2-.3-3.4-1.8-2.4-1.8,1.2-3.6,2.5-5.4,3.7l1.8,2.4.8-.8c1.3-1.4-.7-3.5-2.1-2.1a7.92,7.92,0,0,1-3.4,2.3c-1.5.6-.6,2.7.8,2.8a9.08,9.08,0,0,0,5.5-1.6,53.61,53.61,0,0,1,10.3-4,1.5,1.5,0,0,0-.8-2.9,8.77,8.77,0,0,0-3.8,1.4c-1.7.9-.2,3.5,1.5,2.5Z" transform="translate(-68.7 -20.62)"/><path class="cls-1" d="M79.6,34c-.5.9-.5,1.2.1,1l-1.2-2.7c-.5.3-.9.5-1.4.8-1.6.9-.4,3,1.2,2.7a2.28,2.28,0,0,0,1.2-.6,2.18,2.18,0,0,0,.4-.5c.3-.5.4-.1-.3-.3-.3-.7-.6-1.5-.9-2.2.1-.1.2-.1.3-.2.6.7,1.1,1.5,1.7,2.2a1.12,1.12,0,0,1,.8-.7c-.6-.7-1.1-1.5-1.7-2.2.1-.1.1-.2.2-.2.6.7,1.1,1.5,1.7,2.2-.2.3-.7.3,0,.2a2.92,2.92,0,0,0,.9-.2,14.17,14.17,0,0,0,1.8-.8c-.7-.6-1.5-1.1-2.2-1.7a3.18,3.18,0,0,1-.3.9c-1,1.6,1.5,3.1,2.6,1.5a4.42,4.42,0,0,0,.6-1.6,1.51,1.51,0,0,0-2.2-1.7c-1.2.6-3.2.6-3.8,1.9A1.54,1.54,0,0,0,80.8,34a3.11,3.11,0,0,0,1.6-1.2,1.5,1.5,0,0,0-1.7-2.2,4.15,4.15,0,0,0-2.6,2.1c-.5,1.1.4,2.7,1.7,2.2a2.08,2.08,0,0,0,1.4-1.2c.4-.8.1-2.1-.9-2.2a2.52,2.52,0,0,0-1.9.3c-.3.2-.8,1-1,1l1.2,2.7c.5-.3.9-.5,1.4-.8,1.6-.9.5-3-1.2-2.7s-2.8,1.8-1.9,3.4A1.52,1.52,0,0,0,79.6,34Z" transform="translate(-68.7 -20.62)"/><path class="cls-1" d="M79.3,36.8c-.1.2-.3.3-.4.5-1.3,1.4.7,3.5,2.1,2.1l.8-.8c-.9-.6-1.7-1.2-2.5-1.8a25.9,25.9,0,0,0-2.6,6.7,1.5,1.5,0,0,0,2.7,1.2,22.2,22.2,0,0,1,7.2-7.1,1.52,1.52,0,0,0-.8-2.8,10.27,10.27,0,0,0-5.2,1.6A1.5,1.5,0,0,0,82.1,39c1.3-.7,2.7-1.4,4-2.2,1.5-.8.5-3.1-1.2-2.7a28.64,28.64,0,0,0-2.8.7c.5.8,1,1.7,1.5,2.5A8.66,8.66,0,0,1,88.4,35c-.4-1-.7-2-1.1-2.9-3.2,2.1-7,1.3-9.9,4.1-1.9,1.8-5.6,3.2-4.6,6.4a1.55,1.55,0,0,0,2.2.9,17.94,17.94,0,0,1,3.9-2l-1.8-1.8a10.37,10.37,0,0,0-.4,1c.8.5,1.7,1,2.5,1.5,0-.1.1-.2.1-.4l-1,1c.1,0,.2-.1.4-.1-.5-.8-1-1.7-1.5-2.5-1,1.2-2,2.4-2.9,3.6-1.2,1.5.7,3.5,2.1,2.1l.6-.6-2.1-2.1A6.55,6.55,0,0,0,73.4,45l2.4,1.8c.1-.1.3-.2.4-.3-.6-.7-1.1-1.5-1.7-2.2A37.75,37.75,0,0,0,71,50.9c1,.3,1.9.5,2.9.8a11.66,11.66,0,0,1,1-2.6c-.9-.3-1.9-.5-2.8-.8l-.9,1.2c.7.6,1.5,1.1,2.2,1.7A28.18,28.18,0,0,1,77,42.4a1.5,1.5,0,0,0-2.6-1.5,32.84,32.84,0,0,0-3.9,9.5,1.5,1.5,0,0,0,2.2,1.7,4.36,4.36,0,0,0,2.4-3.8c.2-1.5-2.2-2.1-2.8-.8-.5,1.1-.9,2.2-1.3,3.3-.6,1.9,2.2,2.5,2.9.8a29.63,29.63,0,0,1,3.2-5.8c.7-1-.5-2.7-1.7-2.2a3.8,3.8,0,0,0-2.2,1.7c-.9,1.4,1.3,3.2,2.4,1.8l1.5-1.8A1.48,1.48,0,1,0,75,43.2l-.6.6,2.1,2.1c1-1.2,2-2.4,2.9-3.6.8-1,.1-3.1-1.5-2.5a2.07,2.07,0,0,0-1.5,1.5c-.5,1.4,1.6,2.6,2.5,1.5a5.1,5.1,0,0,0,1.2-2.3c.2-1-.7-2.3-1.8-1.8A19.8,19.8,0,0,0,73.7,41c.7.3,1.5.6,2.2.9-.2-.5,6.2-4.9,6.2-4.9,2.4-.8,4.8-.7,7-2.2a1.49,1.49,0,0,0-1.2-2.7,11.18,11.18,0,0,0-6.1,3.1,1.53,1.53,0,0,0,1.5,2.5,28.64,28.64,0,0,0,2.8-.7l-1.2-2.7c-1.3.7-2.7,1.4-4,2.2.5.9,1,1.7,1.5,2.6a6.28,6.28,0,0,1,3.7-1.2c-.3-.9-.5-1.9-.8-2.8A26,26,0,0,0,77,43.3l2.7,1.2a18.43,18.43,0,0,1,2.4-6,1.51,1.51,0,0,0-2.4-1.8l-.8.8L81,39.6c.1-.2.3-.3.4-.5,1.3-1.6-.8-3.7-2.1-2.3Z" transform="translate(-68.7 -20.62)"/><path class="cls-1" d="M85.4,35.4a6.07,6.07,0,0,1-.7,1,1.69,1.69,0,0,0,.5,2.1,1.72,1.72,0,0,0,2.1-.5,6.07,6.07,0,0,1,.7-1,1.69,1.69,0,0,0-.5-2.1,1.55,1.55,0,0,0-2.1.5Z" transform="translate(-68.7 -20.62)"/><path class="cls-1" d="M85.8,40.4c.2-.4.3-.8.5-1.2a1.72,1.72,0,0,0-.5-2.1,1.6,1.6,0,0,0-2.1.5c-.2.4-.3.8-.5,1.2a1.72,1.72,0,0,0,.5,2.1,1.47,1.47,0,0,0,2.1-.5Z" transform="translate(-68.7 -20.62)"/><path class="cls-1" d="M86.1,40.4a30.88,30.88,0,0,1,4-4.8c1.4-1.3-.7-3.5-2.1-2.1a29.34,29.34,0,0,0-4.5,5.4c-1.1,1.6,1.5,3.1,2.6,1.5Z" transform="translate(-68.7 -20.62)"/><path class="cls-1" d="M87.9,37.6a32.45,32.45,0,0,1,8.4-6.3c-.8-.4-1.5-.9-2.3-1.3,0,.8-5.5,2.8-6.2,3.1L89,35.8A19.52,19.52,0,0,1,94.3,34c-.5-.8-1-1.7-1.5-2.5A24.27,24.27,0,0,1,87.9,35L90,37.1a1.76,1.76,0,0,1,.8-.9,17.1,17.1,0,0,1-1.4-1.1c0,.1.1.2.1.4.1-.5.3-1,.4-1.5a5.46,5.46,0,0,1-2.5,1.3c.5.8,1,1.7,1.5,2.5a14.31,14.31,0,0,1,2.4-1.9,23,23,0,0,0,2.3-1.2,11,11,0,0,1-.2-1.8A4.72,4.72,0,0,1,90.9,34c.4.2.9.5,1.3.7-.2-.3,3.6-1.8,4.3-1.9l-1.2-2.7a8.17,8.17,0,0,1-3.5.8c.3.9.5,1.9.8,2.8a8.45,8.45,0,0,1,4.6-1.3,23.07,23.07,0,0,1-1.4-1.9c-.1.4-2.3.8-2.6.6.2.4.5.9.7,1.3,0-.3,2.2-.7,2.3-.6-.2-.4-.5-.9-.7-1.3,0,1-4,1.6-4.7,1.3l1,1c.1.5,2.1-.4,2.3-.4-.5-.8-1-1.7-1.5-2.5a.92.92,0,0,0-.7,1.3v1.5c1.5-2.6,6.5-3.3,9.1-4.4,1.8-.8.2-3.4-1.5-2.6C96,27,91,27.5,89.1,31a1.36,1.36,0,0,0,0,1.5c1.3,2.1,4.1.7,5.4-.7A1.51,1.51,0,0,0,93,29.3c-1.9.5-4.8,1.7-4.4,4.1a1.44,1.44,0,0,0,1,1c2.3.9,7.2-.6,8.3-3,1.2-2.7-2-3.2-3.9-2.7s-5.1,2.8-2.8,4.7c1.9,1.5,6.4-.2,7-2.4a1.48,1.48,0,0,0-1.4-1.9,11,11,0,0,0-6.1,1.7,1.52,1.52,0,0,0,.8,2.8,12.25,12.25,0,0,0,5-1.2c1.6-.8.4-3-1.2-2.7-2.5.4-7.8,3.1-6.1,6.3a1.36,1.36,0,0,0,1.3.7,7.08,7.08,0,0,0,5.1-2.6,1.51,1.51,0,0,0-.2-1.8c-2.2-2.6-7.2,1.4-9,3.1a1.51,1.51,0,0,0,1.5,2.5c1.8-.6,4.7-1.5,4.1-3.9,0-.5-.7-1-1.3-1a4.43,4.43,0,0,0-3.4,2.4,1.57,1.57,0,0,0,2.1,2.1,30.41,30.41,0,0,0,5.5-3.9c1.2-1.1-.1-2.7-1.5-2.5a22.58,22.58,0,0,0-6,2.1c-1.5.7-.4,3.4,1.2,2.7,2.5-1,8.5-2.5,8.4-6a1.55,1.55,0,0,0-2.3-1.3,39.48,39.48,0,0,0-9,6.8,1.56,1.56,0,0,0,2.2,2.2Z" transform="translate(-68.7 -20.62)"/><path class="cls-1" d="M105.3,27.2c-.7-.2-1.5-.5-2.2-.7-.3.9-.5,1.9-.8,2.8a8.22,8.22,0,0,1,5.2,1.6c.3-.9.5-1.9.8-2.8-1.6.1-4,.2-5.3-.9a11,11,0,0,1,.2,1.8c.4-.7,4.5,1.4,4.6,1.4l1.2-2.7a8.72,8.72,0,0,1-4.2-2.3c-.5.8-1,1.7-1.5,2.5,1.8.7,3.5,1.4,5.2,2.2l1.2-2.7a7.16,7.16,0,0,1-3.6-2c-.5.8-1,1.7-1.5,2.5a48.72,48.72,0,0,1,5.7,2.4l1.2-2.7a5.69,5.69,0,0,1-2.9-1.9l-1.8,2.4c.9.4,1.8.8,2.8,1.2,1.4.6,3.2-1.1,1.8-2.4-5.6-5.4-13.3-3-20.2-3.4.1,1,.3,2,.4,2.9A20.84,20.84,0,0,1,99.8,25c3.6.1,5.8,2.2,8,4.8,1.3,1.5,3.4-.7,2.1-2.1-2.4-2.7-4.9-5-8.6-5.5a21.38,21.38,0,0,0-10.6,1.4,1.48,1.48,0,0,0,.4,2.9c5.9.3,13.3-2.1,18.1,2.5l1.8-2.4c-.9-.4-1.8-.8-2.8-1.2-1.5-.6-3.1,1-1.8,2.4a9.83,9.83,0,0,0,4.2,2.7c1.6.6,2.7-2,1.2-2.7-2.1-1-4.2-1.9-6.4-2.7a1.52,1.52,0,0,0-1.5,2.5,12.77,12.77,0,0,0,5,2.7c1.6.5,2.7-2,1.2-2.7-1.9-.9-3.9-1.7-5.9-2.5-1.4-.5-2.5,1.5-1.5,2.5a10.84,10.84,0,0,0,5.5,3.1c1.6.4,2.7-1.9,1.2-2.7-2.2-1.2-7.1-3.4-8.7-.3a1.51,1.51,0,0,0,.2,1.8c1.9,1.8,4.9,2,7.4,1.8a1.52,1.52,0,0,0,.8-2.8,9.08,9.08,0,0,0-6.7-2,1.54,1.54,0,0,0-.8,2.8,6,6,0,0,0,3.7,1.1c2-.2,2-3.2,0-3.2Z" transform="translate(-68.7 -20.62)"/><path class="cls-1" d="M101.8,28l-2.4-.9c-.3.9-.5,1.9-.8,2.8a10.26,10.26,0,0,1,6.4,1.4c.3-.9.5-1.9.8-2.8-1-.6-2-1.1-3.1-1.7-.3.7-.6,1.5-.9,2.2,1.5.6,3,1.3,4.5,1.9.4-.8.9-1.5,1.3-2.3a7.25,7.25,0,0,1-4.5-.8,2.55,2.55,0,0,0-2-1.6,23.07,23.07,0,0,0-1.4,1.9,1.23,1.23,0,0,1-1.3,1.2,25.82,25.82,0,0,1-2.6.8,1.48,1.48,0,0,0,.4,2.9c2,.1,4.1.3,6.1.4v-3a30.82,30.82,0,0,0-6.1.3c-1.9.2-2,3,0,3h4v-3c-2.6.1-4.9.4-7.1,1.9-1.6,1.1-.1,3.7,1.5,2.6,3.4-2.3,7-.8,10.4.7a1.5,1.5,0,0,0,1.5-2.6,26.2,26.2,0,0,0-8.8-3.7v2.9a13.48,13.48,0,0,1,4.9-.2c1.8.1,1.9-2.4.4-2.9a13.25,13.25,0,0,1-4.3-2.1L97.5,30a13.49,13.49,0,0,1,7.1,3.4c.5-.8,1-1.7,1.5-2.5a15.93,15.93,0,0,1-4.2-1.9l-1.2,2.7a27.18,27.18,0,0,1,6.6,3.3,1.52,1.52,0,0,0,1.8-2.4c-.6-.5-1.1-1-1.7-1.6-1-.9-3.1,0-2.5,1.5a7.25,7.25,0,0,0,3.3,4.2c1.6,1.1,3.1-1.5,1.5-2.6l-1.1-.8a25.12,25.12,0,0,1-.4,2.7l4.9-1.2c1.6-.4,1.3-3-.4-2.9a4.73,4.73,0,0,0-4.2,2.2c-.9,1.2.9,2.8,2.1,2.1a13.78,13.78,0,0,0,4.6-4.7,1.52,1.52,0,0,0-.9-2.2c-2.3-.7-5.1,0-7.2-1a1.5,1.5,0,0,0-1.5,2.6c1,.7,1.9,1.3,2.9,2l1.2-2.7c-.5-.1-1-.3-1.5-.4-1.6-.4-2.7,1.9-1.2,2.7h.6a23.35,23.35,0,0,1,2.5.7q3.9-.9,3.9,2.7l2.7-1.2c-.9-1.2-1.7-2.4-2.6-3.6-1.1-1.5-3.7-.1-2.6,1.5.8,1.2,1.7,2.4,2.5,3.6l2.1-2.1a20,20,0,0,1-2.1-1,1.56,1.56,0,0,0-2.1,2.1,13.5,13.5,0,0,0,2,2.7c1,1.2,2.8-.1,2.5-1.5a7.71,7.71,0,0,0-1-2.5c-.9.5-1.7,1-2.6,1.5a19.22,19.22,0,0,0,4.5,4.5c.5-.9,1-1.7,1.5-2.6-.6-.4-1.3-.8-1.9-1.2a1.52,1.52,0,0,0-1.8,2.4,22.54,22.54,0,0,0,3,2.4l1.2-2.7c-1.2-.5-2.5-1-3.7-1.5-1.7-.7-2.5,1.8-1.2,2.7s2.9,1.9,4.3,2.8c1.6.9,2.8-1.1,1.8-2.4l-.9-1.2L117.8,41c1.4,1,2.7,1.9,4.2,2.8,1.7,1,3.1-1.5,1.5-2.6-.3-.2-.7-.5-1-.7-.5.9-1,1.7-1.5,2.6.4.3.9.6,1.3.9.3-.9.5-1.9.8-2.8-.4,0-.8-.1-1.2-.1-1.7-.2-1.8,2-.8,2.8.7.6,1.5,1.2,2.2,1.8l2.1-2.1a7.28,7.28,0,0,1-2-1.9l-2.1,2.1c.7.6,1.3,1.2,2,1.8a1.52,1.52,0,0,0,2.5-1.5,11.42,11.42,0,0,0-.9-2.6c-.9.5-1.7,1-2.6,1.5a4.94,4.94,0,0,0,2,1.8,1.57,1.57,0,0,0,2.1-2.1,27.82,27.82,0,0,0-11.9-12.1,1.51,1.51,0,0,0-1.8,2.4,41.54,41.54,0,0,0,8.3,7.9c.5-.9,1-1.7,1.5-2.6a22.37,22.37,0,0,1-4.6-3.5l-1.8,2.4a20.6,20.6,0,0,1,4.3,3.5c1.2,1.3,3-.4,2.4-1.8a25.46,25.46,0,0,0-6.6-8.7l-2.1,2.1a40.93,40.93,0,0,1,8.4,9.2l2.4-1.8-7.7-9.8-1.8,2.4c3.9,2.8,5.3,8,8.6,11.4,1.3,1.4,3.5-.7,2.1-2.1-3.6-3.7-4.8-8.8-9.2-11.9-1.5-1.1-2.8,1.1-1.8,2.4l7.7,9.8c1.1,1.3,3.3-.4,2.4-1.8a43.47,43.47,0,0,0-8.8-9.8c-1.5-1.2-3.6.9-2.1,2.1a23.4,23.4,0,0,1,6.2,8.1l2.4-1.8a26.79,26.79,0,0,0-4.9-4,1.51,1.51,0,0,0-1.8,2.4,26.34,26.34,0,0,0,5.3,4c1.7,1,3-1.5,1.5-2.6a41.47,41.47,0,0,1-7.7-7.4l-1.8,2.4a25.49,25.49,0,0,1,10.8,11l2.1-2.1c-.3-.2-.6-.5-.9-.7a1.5,1.5,0,0,0-2.6,1.5c.2.6.4,1.3.6,1.9.8-.5,1.7-1,2.5-1.5-.7-.6-1.3-1.2-2-1.8a1.49,1.49,0,0,0-2.1,2.1,6.06,6.06,0,0,0,2,1.9c1.5,1.2,3.6-.8,2.1-2.1a31.12,31.12,0,0,0-2.8-2.3c-.3.9-.5,1.9-.8,2.8.4,0,.8.1,1.2.1,1.6.2,1.9-2,.8-2.8-.4-.3-.9-.6-1.3-.9-1.6-1.1-3.1,1.5-1.5,2.6.3.2.7.5,1,.7.5-.9,1-1.7,1.5-2.6-1.5-.9-2.8-1.8-4.2-2.8s-2.8,1.1-1.8,2.4l.9,1.2,1.8-2.4c-1.5-.9-2.9-1.8-4.3-2.8l-1.2,2.7c1.2.5,2.5,1,3.7,1.5,1.7.7,2.5-1.8,1.2-2.7-.8-.7-1.6-1.3-2.4-2L116,38.8c.6.4,1.3.8,1.9,1.2,1.7,1,3.1-1.5,1.5-2.6a11.36,11.36,0,0,1-3.5-3.4,1.5,1.5,0,0,0-2.6,1.5c.2.6.5,1.2.7,1.8.8-.5,1.7-1,2.5-1.5L115,33.7l-2.1,2.1a20,20,0,0,1,2.1,1c1.2.6,3-.7,2.1-2.1-.8-1.2-1.7-2.4-2.5-3.6-.9.5-1.7,1-2.6,1.5.9,1.2,1.7,2.4,2.6,3.6a1.49,1.49,0,0,0,2.7-1.2c-.5-2.5-2.1-6.2-5.2-5.9-2,.2-3.6,2.4-2.1,4.2,3.2,4,6.8-5.2,1.1-5s-1.2,8.3,1.9,4.4c1.3-1.7-.2-4.2-2.2-4.4-3-.2-3.9,3.3-3.2,5.5a1.55,1.55,0,0,0,2.5.7c1.7-1.8.8-3.6-1.2-4.7l-1.2,2.7c.5.1,1,.3,1.5.4a1.5,1.5,0,0,0,1.2-2.7c-1-.7-1.9-1.3-2.9-2-.5.9-1,1.7-1.5,2.6,2.7,1.3,5.2.4,7.9,1.3-.3-.7-.6-1.5-.9-2.2a8.34,8.34,0,0,1-3.5,3.7l2.1,2.1c.5-.3,1.1-.5,1.6-.8-.1-1-.3-2-.4-2.9l-4.9,1.2a1.5,1.5,0,0,0-.4,2.7l1.1.8c.5-.9,1-1.7,1.5-2.6-.6-.8-1.3-1.6-1.9-2.4-.8.5-1.7,1-2.5,1.5.6.5,1.1,1,1.7,1.6l1.8-2.4a38.11,38.11,0,0,0-7.3-3.6c-1.6-.6-2.6,1.9-1.2,2.7a27.11,27.11,0,0,0,4.9,2.2,1.52,1.52,0,0,0,1.5-2.5,16.62,16.62,0,0,0-8.4-4.1,1.51,1.51,0,0,0-1.2,2.7,19.8,19.8,0,0,0,5.1,2.4c.1-1,.3-2,.4-2.9a18.24,18.24,0,0,0-5.7.3c-1.5.2-1.4,2.6,0,2.9a27.37,27.37,0,0,1,8.1,3.4c.5-.9,1-1.7,1.5-2.6-4.4-2-9-3.7-13.4-.7.5.9,1,1.7,1.5,2.6,1.8-1.3,3.5-1.4,5.6-1.5,1.9-.1,1.9-3,0-3h-4v3c2.1-.2,4.1-.3,6.1-.3s1.9-2.9,0-3-4.1-.3-6.1-.4c.1,1,.3,2,.4,2.9,2.3-.8,7.8-1.3,7.7-4.8,0-2.6-2.5-3.4-4.6-3.2-1.3.3-2.1,1.1-1.8,2.1,1.1,3.3,6.5,3.8,6.2-.4-.2-3.6-5.9-4.2-5.8-.3.1,3.4,6.6,6.2,7.6,2s-5.7-4-6.9-.8a1.67,1.67,0,0,0,.4,1.5c1.9,2.2,5.1,2.8,7.9,2.6a1.53,1.53,0,0,0,1.3-2.3,7.27,7.27,0,0,0-7.9-3.3,1.49,1.49,0,0,0-.9,2.2,7.57,7.57,0,0,0,5.6,3.2c1.5.2,2-2.1.8-2.8a13.76,13.76,0,0,0-7.9-1.8,1.52,1.52,0,0,0-.8,2.8,7.92,7.92,0,0,0,4,1.3c1.8.3,1.8-2.7-.1-2.9Z" transform="translate(-68.7 -20.62)"/><path class="cls-1" d="M125.2,39.4c-.5-.8-1-1.6-1.4-2.3-.9-1.4-3.3-.5-2.7,1.2a10.09,10.09,0,0,0,.7,1.5c.9-.5,1.7-1,2.6-1.5a57.2,57.2,0,0,0-3.7-4.9c-1.1-1.3-3.3.4-2.4,1.8,1.4,2.1,2.9,4.3,4.3,6.4,1.1,1.6,3.7.1,2.6-1.5-1.4-2.1-2.9-4.3-4.3-6.4l-2.4,1.8c1.1,1.4,2.2,2.8,3.2,4.2,1.1,1.6,3.7.1,2.6-1.5a2,2,0,0,1-.4-.8l-2.7,1.2c.5.8,1,1.6,1.4,2.3,1,1.6,3.6.1,2.6-1.5Z" transform="translate(-68.7 -20.62)"/><path class="cls-1" d="M125.4,45.3a8.45,8.45,0,0,0-1.5-1.8c-1.2-1-3.4.3-2.4,1.8l1.8,2.7,2.4-1.8a3.81,3.81,0,0,1-.9-1.3l-2.7,1.2a17.68,17.68,0,0,0,2.1,3.2l2.1-2.1a9.51,9.51,0,0,0-2-1.5c-1.6-.9-2.8,1.1-1.8,2.4.9,1.1,3.7,3.7,3.3,5.2a1.44,1.44,0,0,0,.4,1.5l.8.8a1.53,1.53,0,0,0,2.4-1.8,31.72,31.72,0,0,0-3.6-5.4c-1.1-1.3-3.2.4-2.4,1.8.2.3.4.7.6,1a1.49,1.49,0,0,0,2.7-1.2c-.3-1.5-.6-3.1-.8-4.7-.8.5-1.7,1-2.5,1.5a5.25,5.25,0,0,1,1.9,2.5,1.51,1.51,0,0,0,2.9-.8c-.3-1-.5-2-.8-2.9l-2.7,1.2a16.13,16.13,0,0,1,1.5,5.3c.2,1.9,3.2,2,3,0a32.07,32.07,0,0,0-2.3-9.6c-1,.3-1.9.5-2.9.8a16.88,16.88,0,0,1,1.3,5.9,1.5,1.5,0,0,0,3,0,19.58,19.58,0,0,0-1.4-6.7c-.7-1.8-3.6-1-2.9.8a26.37,26.37,0,0,1,2.1,8.8h3a23,23,0,0,0-1.9-6.8c-.7-1.6-3.2-.4-2.7,1.2.3,1,.5,2,.8,2.9,1-.3,1.9-.5,2.9-.8a8.88,8.88,0,0,0-2.7-3.9,1.51,1.51,0,0,0-2.5,1.5c.2,1.6.5,3.1.8,4.7l2.7-1.2c-.2-.3-.4-.7-.6-1l-2.4,1.8a29.37,29.37,0,0,1,3.1,4.7l2.4-1.8-.8-.8c.1.5.3,1,.4,1.5,1-3.1-2.3-5.9-4-8.1l-1.8,2.4a4.86,4.86,0,0,1,1.4,1.1,1.49,1.49,0,0,0,2.1-2.1,11.67,11.67,0,0,1-1.7-2.6c-.7-1.5-3.4-.4-2.7,1.2a10.68,10.68,0,0,0,1.6,2.7c1.1,1.3,3.3-.4,2.4-1.8l-1.8-2.7L121.7,46a3.46,3.46,0,0,1,1,1.1c1.1,1.3,3.7-.2,2.7-1.8Z" transform="translate(-68.7 -20.62)"/><path class="cls-1" d="M115.3,30V28.5h-3v.7h2.9a1.66,1.66,0,0,0-2.1-1.2,2.1,2.1,0,0,0-1.1.8c-.1.1-.6,1.4-.2.8.3-.2.6-.5.9-.7-.1,0-.2,0-.2.1l1.8,1.8a7.22,7.22,0,0,1,.9-2c-.9-.5-1.7-1-2.6-1.5a3.9,3.9,0,0,0-.4,2.8c.3,1.7,2.9,1.2,2.9-.4a24,24,0,0,0-.7-6.5c-.8.5-1.7,1-2.5,1.5a13,13,0,0,1,2.5,6.2c.3,1.9,3.2,1.1,2.9-.8a15.9,15.9,0,0,0-3.3-7.5c-1-1.2-2.9.1-2.5,1.5a18.15,18.15,0,0,1,.6,5.7c1-.1,2-.3,2.9-.4,0-.2.1-.3.1-.5.8-1.7-1.6-3.2-2.6-1.5a16,16,0,0,0-1.2,2.7,1.49,1.49,0,0,0,1.8,1.8c1.1-.2,1.2-1,1.5-1.9-.2.3-.5.6-.7.9.1,0,.1-.1.2-.1-.4.1-.8.1-1.2.2h.2l-1-1a.1.1,0,0,0,.1.1c.5,1.3,2.6,1.6,2.9,0a7.72,7.72,0,0,0,.2-1.5,1.5,1.5,0,0,0-3,0v1.5c0,1.8,3,1.8,3-.1Z" transform="translate(-68.7 -20.62)"/><path class="cls-1" d="M115.4,31.6a14.19,14.19,0,0,1,2.2-.5v-3h-.5V31a4.84,4.84,0,0,1,2.4-.3,1.48,1.48,0,0,0,.4-2.9,3.22,3.22,0,0,0-1.7-.1c-1.3.2-1.4,2.2-.4,2.7,1.4.8,3.3.5,4.3,1.9l2.1-2.1c-.1-.1-.3-.1-.4-.2-1.7-.9-3.2,1.7-1.5,2.6.1.1.3.1.4.2,1.2.6,3-.7,2.1-2.1a5.59,5.59,0,0,0-2.3-2c-1-.5-2.2-.4-3.2-1a25.12,25.12,0,0,1-.4,2.7l.1.1c.1-1,.3-2,.4-2.9a10.55,10.55,0,0,0-3.1.4c-1.3.4-1.5,2.6,0,2.9a2.88,2.88,0,0,0,1.3.1c1.9-.2,1.9-3.2,0-3a15.94,15.94,0,0,0-3,.6,1.55,1.55,0,0,0,.8,3Z" transform="translate(-68.7 -20.62)"/><path d="M70.7,49.5c.2,1.3.5,2.6.7,4,.1.7,1.1,4,.6,4.4l1,.3a16.29,16.29,0,0,1,3.5-11.5c.5-.6-.3-1.4-.8-.8a17.19,17.19,0,0,0-3.8,12.7c.1.5.7.5,1,.3.8-.6.5-1.6.3-2.5-.4-2.4-.9-4.7-1.3-7.1a.61.61,0,1,0-1.2.2Z" transform="translate(-68.7 -20.62)"/><path d="M72.1,51.2c-1.6-2.4,1.1-6.8,2.5-8.8.4-.6-.6-1.2-1-.6-1.7,2.4-4.4,7.2-2.5,10,.3.6,1.4,0,1-.6Z" transform="translate(-68.7 -20.62)"/><path d="M73.7,38.3a7,7,0,0,0-2.1,5.3c0,.5.7.8,1,.4a14.21,14.21,0,0,1,4.9-3.5c.7-.3.1-1.3-.6-1a14.57,14.57,0,0,0-5.1,3.7c.3.1.7.3,1,.4a6,6,0,0,1,1.8-4.4c.5-.6-.4-1.4-.9-.9Z" transform="translate(-68.7 -20.62)"/><path d="M76.5,40.1a2.68,2.68,0,0,0-.7,2.4,33,33,0,0,0,1.3,5.2.62.62,0,0,0,1.2-.2,12.56,12.56,0,0,1,2.1-8c.4-.6-.6-1.3-1-.6a13.74,13.74,0,0,0-2.2,8.6c.4-.1.8-.1,1.2-.2-.3-1-.5-2.1-.8-3.1s-.9-2.5,0-3.4c.3-.4-.5-1.2-1.1-.7Z" transform="translate(-68.7 -20.62)"/><path d="M74,38.3a7.4,7.4,0,0,0-4,1.6l.8.8C76,32.2,85.7,28,95.1,26.5c.8-.1.4-1.3-.3-1.2-9.7,1.5-19.7,6-25,14.7-.3.5.3,1.2.8.8a5.68,5.68,0,0,1,3.7-1.4c.8-.1.5-1.2-.3-1.1Z" transform="translate(-68.7 -20.62)"/><path d="M94.5,25c-2.1,0-4.3.1-6.4.3.1.4.2.7.3,1.1,7.3-4.9,16.5-5,23.1,1.4.6.5,1.4-.3.8-.8-7-6.8-16.7-6.8-24.5-1.6-.5.3-.3,1.2.3,1.1,2.1-.2,4.2-.3,6.4-.3a.6.6,0,0,0,0-1.2Z" transform="translate(-68.7 -20.62)"/><path d="M78.6,48c-.3-1.3,1.6-3.7,2.3-4.7A18.14,18.14,0,0,1,85,39.1c.6-.5,0-1.5-.6-1A21.87,21.87,0,0,0,79.7,43c-.9,1.3-2.6,3.7-2.2,5.4.1.7,1.2.4,1.1-.4Z" transform="translate(-68.7 -20.62)"/><path d="M84.2,39.9h.2c.2-.1.5-.3.4-.6v-.2a.59.59,0,0,0-.9-.5c-.1.1-.2.1-.3.2a.55.55,0,0,0-.3.5,7.13,7.13,0,0,0,.2,2.9.64.64,0,0,0,1,.3c6.2-7.8,14.6-9.1,23.7-5.6.7.3,1-.9.3-1.2-5.1-2-9.5-2.9-14.9-1.2a22.05,22.05,0,0,0-5,2.1,9,9,0,0,0-1.9,1.5l-1.1,1.1c-.9,1.7-1.4,1.6-1.7-.5-.8.2-.4,1.4.3,1.2Z" transform="translate(-68.7 -20.62)"/><path d="M107.5,37a13.68,13.68,0,0,0,5.3-.8c.7-.3.4-1.4-.3-1.2a12.22,12.22,0,0,1-5,.8c-.8-.1-.8,1.1,0,1.2Z" transform="translate(-68.7 -20.62)"/><path d="M112.5,28.2a8.67,8.67,0,0,0-1.6-7.3l-.8.8c2.3,1.4,4.8,3.1,5.1,6,.1.8,1.3.8,1.2,0-.3-3.4-3-5.3-5.7-7-.5-.3-1.2.3-.8.8a7.78,7.78,0,0,1,1.5,6.4.57.57,0,0,0,1.1.3Z" transform="translate(-68.7 -20.62)"/><path d="M115.8,28.5a6.93,6.93,0,0,1,8.7,4.2l.7-.7c-3.3-.7-6.3-2.8-9.8-1.9-.7.2-.4,1.4.3,1.2,3.2-.8,6.1,1.2,9.2,1.9.4.1.9-.3.7-.7a8.17,8.17,0,0,0-10.2-5c-.6,0-.3,1.2.4,1Z" transform="translate(-68.7 -20.62)"/><path d="M112.2,35.5c1.6,5.1,7,7.6,11.2,10.4.6.4,1.2-.6.6-1-3.8-2.6-9.2-5-10.7-9.7-.1-.8-1.3-.5-1.1.3Z" transform="translate(-68.7 -20.62)"/><path d="M120.7,44.7c1.2,4.5,4.7,8.5,7.3,12.4.4.6,1.5,0,1-.6-2.4-3.7-6-7.8-7.2-12.1a.57.57,0,1,0-1.1.3Z" transform="translate(-68.7 -20.62)"/><path d="M129,58.4c1-11.6-2.2-21.9-12.3-28.6-.6-.4-1.2.6-.6,1,9.8,6.4,12.7,16.4,11.7,27.6-.1.7,1.1.7,1.2,0Z" transform="translate(-68.7 -20.62)"/><path d="M69.5,51.3c-1.8,4.4-.3,8.8,1.9,12.8a.58.58,0,0,0,1.1-.3l.6-8.1c.1-.8-1.1-.8-1.2,0l-.6,8.1,1.1-.3c-2.1-3.7-3.5-7.7-1.8-11.9.3-.7-.8-1-1.1-.3Z" transform="translate(-68.7 -20.62)"/><path class="cls-2" d="M95.9,24.6c1.5.3,2.8-.2,4.3-.3a10.34,10.34,0,0,1,6.2,1.4c.7.4,1.3-.7.6-1a10.45,10.45,0,0,0-4.5-1.5c-2.1-.2-4.3.7-6.3.4-.7-.3-1,.8-.3,1Z" transform="translate(-68.7 -20.62)"/><path class="cls-2" d="M76.5,37.2c3.9-3.1,7.9-6.3,13.1-6.9.8-.1.8-1.3,0-1.2-5.5.6-9.7,3.8-13.9,7.2a.6.6,0,1,0,.8.9Z" transform="translate(-68.7 -20.62)"/><path class="cls-2" d="M99.8,32.3c3.6-.9,7.6.5,11,1.8.7.3,1-.9.3-1.2-3.6-1.3-7.8-2.8-11.7-1.8a.64.64,0,0,0,.4,1.2Z" transform="translate(-68.7 -20.62)"/><path class="cls-2" d="M115.5,35.8a13.92,13.92,0,0,0,8,5.4c.7.2,1.1-1,.3-1.2a12.32,12.32,0,0,1-7.3-4.9c-.4-.6-1.4,0-1,.7Z" transform="translate(-68.7 -20.62)"/><path class="cls-2" d="M123.7,47.3c.7,1.1,1.5,2.2,2.2,3.3.4.6,1.5,0,1-.6-.7-1.1-1.5-2.2-2.2-3.3-.4-.7-1.5-.1-1,.6Z" transform="translate(-68.7 -20.62)"/></svg>