<?xml version="1.0" encoding="utf-8"?>
<!-- Generator: Adobe Illustrator 21.0.2, SVG Export Plug-In . SVG Version: 6.00 Build 0)  -->
<svg version="1.1" id="Layer_1" xmlns="http://www.w3.org/2000/svg" xmlns:xlink="http://www.w3.org/1999/xlink" x="0px" y="0px"
	 viewBox="0 0 200 600" style="enable-background:new 0 0 200 600;" xml:space="preserve">
<style type="text/css">
	.st0{fill:#FFE329;}
	.st1{fill:#F9EE53;}
	.st2{fill:#603017;}
	.st3{fill:#211E1F;}
</style>
<g>
	<g>
		<g>
			<path class="st0" d="M122.7,47.5c0.6,1.8,1.9,3.1,3.1,4.6c1.4,1.7,2.7,3.4,4.4,4.8c1.5,1.2,3.5-0.7,2.1-2.1
				c-1.2-1.3-1.2-3.2-1.8-4.8c-0.5-1.6-1.4-2.9-2.5-4.2c-1.3-1.4-3.4,0.7-2.1,2.1c2.3,2.6,1.8,6.4,4.3,8.9c0.7-0.7,1.4-1.4,2.1-2.1
				c-1.4-1.1-2.5-2.4-3.6-3.8c-1.1-1.3-2.5-2.6-3.1-4.2C124.9,44.9,122,45.7,122.7,47.5L122.7,47.5z"/>
		</g>
	</g>
	<g>
		<g>
			<path class="st0" d="M117.7,116.3c-0.3,1.2-0.7,2.4-1,3.6c0.4,0.2,0.7,0.3,1.1,0.5c0.1-1.9,0.7-2.2,1.6-1
				c0.6,0.5,1.4-0.3,0.8-0.8c-0.3-0.4-0.6-0.9-0.9-1.3c-0.3,0.2-0.6,0.4-0.9,0.7c0.5,0.4,0.9,0.8,1.4,1.2c0.5,0.5,1.3-0.1,0.9-0.7
				c-0.9-1.3-1.4-2.6-1.6-4.1c-0.3,0.2-0.7,0.4-1,0.6c0.4,0.5,0.8,1,1.1,1.5c0.3,0.6,1.2,0.2,1.1-0.5c-0.1-0.5-0.2-1-0.3-1.6
				c-0.4,0.2-0.7,0.3-1.1,0.5c0.2,0.3,0.4,0.7,0.6,1c0.2,0.4,1,0.4,1.1-0.1c0.1-0.3,0.1-0.6,0.2-0.9c-0.4,0-0.7,0.1-1.1,0.1
				c0.5,0.9,0.4,0.8,1.3,1.3c0.4,0.2,1-0.1,0.9-0.7c-0.7-2.3-1.6-3.7-3.4-5.3c-0.2,0.3-0.5,0.6-0.7,0.9c1,0.9,1.9,1.8,2.9,2.6
				c0.3-0.2,0.6-0.5,0.9-0.7c-1.2-1.4-0.8-1-2.3-2c-0.2-0.1-0.5-0.1-0.7,0.1c0.3-0.3-0.7,0.8-0.6,0.8c0,0.2-0.1,0.5-0.1,0.7
				c0.1,0.6-0.3,0.7-1.4,0.2c0.5-0.3,0.3-1.1-0.3-1.1c-3.2,0-1.9,3.8,0.3,4.7c1.6,0.6,5.2-0.3,3.1-2.3c-0.3-0.3-0.9-0.2-1,0.3
				c-0.1,0.5-0.3,1.1-0.4,1.6c0.4,0,0.7-0.1,1.1-0.1c-1-1.6-1.5-3.1-1.8-4.9c-0.3,0.2-0.7,0.4-1,0.6c0.9,0.9,1.7,1.9,2.2,3
				c0.3,0.5,1.2,0.3,1.1-0.3c0-0.4-0.1-0.7-0.1-1.1c-0.3,0.1-0.7,0.3-1,0.4c0.3,0.3,0.7,0.6,1,0.9c0.5,0.5,1.3-0.1,0.9-0.7
				c-0.3-0.4-0.5-0.9-0.8-1.3c-0.4-0.6-1.2-0.2-1.1,0.5c0.1,0.6,0.3,1.2,0.4,1.7c0.3-0.2,0.6-0.4,0.9-0.7c-0.7-0.6-1.4-1.3-2.2-1.9
				c-0.2-0.2-0.5-0.2-0.7-0.1c-0.2,0.1-0.5,0.1-0.7,0.2c0.5,0.3,1.1-0.3,0.8-0.8c0-0.4,0-0.7,0-1.1c0.1-0.3,0.1-0.6-0.2-0.8
				c-0.7-0.3-1.4-0.6-2.2-0.9c0.3,0.1,0.7,0.3,1,0.4c0.4,0.4,0.8,0.9,1.2,1.3c0.4,0,0.8,0,1.1,0c-0.1-0.1-0.1-0.2-0.2-0.3
				c0.4,0,0.8,0,1.1,0c0.4-0.6,0.9-1.1,1.3-1.7c0.4,0.2,0.7,0.3,1.1,0.5c0.7-2.8-1.6-4.2-4-4.9c-0.7-0.2-1,0.7-0.5,1.1
				c1.2,0.6,2.2,1.5,3,2.5c0.2-0.3,0.4-0.7,0.6-1c-0.8-1.1-1.6-2.2-2.4-3.2c-0.4-0.1-0.7-0.2-1.1-0.3c0.2,0.3,0.3,0.4,0.2,0.1
				c-0.8-1-1-2.3-0.7-3.8c0.4-0.4,0-1.1-0.6-1c-3.6,0.9-3.1,5.1,0.6,5.2c0.4,0,0.7-0.4,0.6-0.8c0-0.9-0.1-1.8-0.1-2.7
				c-0.4,0.1-0.8,0.1-1.2,0.2c0.2,0.9,0.4,1.9,0.6,2.8c0.4-0.1,0.8-0.1,1.2-0.2c0-1.4,0-2.8,0-4.2c-0.4,0-0.8,0-1.1,0
				c0,1.1,0,2.2,0,3.3c0.4,0.1,0.8,0.1,1.2,0.2c0.1-1.1,0.3-2.2,0.4-3.2c-0.4,0.1-0.8,0.1-1.2,0.2c0.4,1.2,0.5,2.4,0.2,3.6
				c-0.1,0.7,0.9,0.7,1.2,0.2c0.2-0.5,0.4-1,0.6-1.6c-0.4,0-0.8,0-1.1,0c0.1,0.8,0.1,1.7,0.2,2.5c0,0.6,0.9,0.8,1.1,0.3
				c1.6-3.6,3-5.8-1-8c-0.5-0.3-1.1,0.3-0.8,0.8c0.1,1,0.2,2,0.4,2.9c0.4,0,0.7-0.1,1.1-0.1c-0.3-1.2-0.7-2.3-1-3.5
				c-0.4,0.1-0.7,0.2-1.1,0.3c0.3,0.5,0.6,0.9,1,1.4c-0.4,0.1-0.7,0.2-1.1,0.3c0,0.3-0.1,0.6-0.1,0.9c0.4,0,0.7,0.1,1.1,0.1
				c-0.1-0.4-0.2-0.9-0.3-1.3c-0.1-0.5-0.8-0.6-1.1-0.1c-0.2,0.3-0.4,0.6-0.6,0.9c0.3,0.2,0.7,0.4,1,0.6c0.6-1.9,1.2-1.8,1.9,0.4
				c0.1,0.3,0.3,0.4,0.6,0.4c0.1,0.5,0.1,1.1,0.2,1.6c-0.3,0.6,0.5,1.3,0.9,0.7c3.4-4.1-1.4-4-3-7.6c-0.2-0.5-1-0.3-1.1,0.1
				c0.2-0.7,0.5-1.4,0.7-2.1c0.2,0.1,0.4,0,0.6-0.2c0.5-0.5,1.1-0.9,1.6-1.4c0.5-0.4,0-1.1-0.6-1c-0.8,0.1-1.5,0.4-2.2,0.7
				c0.2,0.3,0.4,0.7,0.6,1c0.2,0.9,0.4,1.9,0.6,2.8c0.3,0.3,0.5,0.5,0.8,0.8c0.7-1.3,1.3-2.5,1.8-3.8c-0.4-0.1-0.8-0.2-1.1-0.3
				c-0.2,0.5-0.5,1.1-0.7,1.6c0.4,0,0.7,0.1,1.1,0.1c-0.3-0.9,0.7-3.1,1.1-4.1c0.2-0.6-0.6-1-1-0.6c-0.4,0.4-0.8,0.8-1.2,1.3
				c-0.5,0.6,0.3,1.3,0.8,0.8c0.5-0.4,0.9-0.8,1.4-1.2c0.5-0.4-0.2-1.3-0.7-0.9c-1.7,1.1-4.1,2.1-3.6,4.5c0.2,0.8,1.3,0.4,1.1-0.3
				c0.8-1.3,1.8-2.4,3.1-3.1c-0.2-0.3-0.5-0.6-0.7-0.9c-0.5,0.4-0.9,0.8-1.4,1.2c0.3,0.3,0.6,0.6,0.8,0.8c0.4-0.4,0.8-0.8,1.2-1.3
				c-0.3-0.2-0.7-0.4-1-0.6c-0.8,2-1.9,2.7-1.1,4.8c0.2,0.5,0.8,0.6,1.1,0.1c0.6-1,0.5-0.8,0.8-1.9c0.2-0.7-0.9-1-1.1-0.3
				c-0.4,1.2-1,2.4-1.7,3.5c-0.3,0.5,0.3,1.2,0.8,0.8c1.6-1.1,3.8-3,2.1-5.1c-1.3-1.6-3-0.8-4.2,0.4c-0.4,0.4,0,1.2,0.6,1
				c0.7-0.3,1.5-0.6,2.2-0.7c-0.2-0.3-0.4-0.7-0.6-1c-2,1.7-4.9,1.5-2.3,4.8c0.2,0.3,0.5,0.4,0.8,0.2c1.1-0.7,2.4-2.8,0.2-3.1
				c-1.9-0.3-2.6,2.5-1.3,3.6c0.3,0.2,0.6,0.2,0.8,0c2.7-2.2-1.6-4.2-2.1-1.7c-0.5,2.4,3.6,2.5,2.8-0.5c-0.1-0.4-0.7-0.6-1-0.3
				c-1.1,1-1.1,1.9,0,2.9c0.3,0.3,0.9,0.2,1-0.3c0.1-0.3,0.2-0.6,0.2-0.9c-0.4,0-0.7,0.1-1.1,0.1c0.7,1.6,4.4,4.6,3.1,6.2
				c0.3,0.2,0.6,0.5,0.9,0.7c1.5-2.7-0.8-4-2.1-6.3c-0.2-0.4-0.8-0.4-1,0c-0.5,0.9-1,1.8-1.5,2.6c-0.4,0.7,0.6,1.2,1,0.6
				c0.2-0.3,0.4-0.6,0.6-0.9c-0.4,0-0.7-0.1-1.1-0.1c0.1,0.4,0.2,0.9,0.3,1.3c0.1,0.5,0.8,0.6,1.1,0.1c0.6-1,0.6-1,0.1-2.1
				c-0.3-0.6-1.1-0.2-1.1,0.3c-0.4,3.8,4.1,1.9,1.3-2c-0.4-0.5-1.1-0.3-1.1,0.3c-0.2,1.8,0.1,2.7,1.2,4.1c0.3,0.4,0.9,0.4,1.1-0.1
				c0.5-1.4,0.2-2.1-0.9-2.9c-0.4-0.3-0.9,0.1-0.9,0.5c0,1.4,0.1,3.6,1.9,3.8c0.3,0,0.5-0.2,0.6-0.4c0.7-1.6-0.3-3.4-1.1-4.8
				c-0.3,0.3-0.5,0.5-0.8,0.8c1.6,2.3,1.8,4.4,0.5,6.4c0.4,0.1,0.7,0.2,1.1,0.3c0.1-1.7,0.2-1.1-0.2-2.8c-0.1-0.6-1-0.5-1.1,0
				c-0.2,0.5-0.4,1-0.6,1.6c0.4,0.1,0.8,0.1,1.2,0.2c0.2-1.5,0.1-2.5-0.3-3.9c-0.2-0.7-1.1-0.5-1.2,0.2c-0.1,1.1-0.3,2.2-0.4,3.2
				c-0.1,0.7,1,0.8,1.2,0.2c0.3-1.4,0.3-2.5,0-4c-0.1-0.6-1-0.6-1.1,0c-0.4,1.8-0.4,3.1,0,4.9c0.1,0.7,1.2,0.5,1.2-0.2
				c-0.1-2,0.1-1.3-0.7-3.2c-0.3-0.6-1.1-0.5-1.2,0.2c-0.5,3.9,0-0.5,0.5-0.6c-0.2-0.3-0.4-0.7-0.6-1c-2.5,2.4-0.2,3.5,0.8,6
				c0.2,0.4,0.6,0.6,1,0.3c0.8-0.7,0.8-0.7,0.7-1.8c0-0.6-0.8-0.8-1.1-0.3c-0.9,1.4-1.4,2.4,0.2,3.3c0.2,0.1,0.5,0.1,0.7-0.1
				c0.2-0.2,0.4-0.3,0.6-0.5c0.2-0.1,0.2-0.4,0.2-0.6c-0.1-0.2-0.1-0.4-0.2-0.6c-0.1-0.2-0.3-0.5-0.6-0.4c-3.2,0.3,0.9,3.6,2.2,3.9
				c0.6,0.1,1-0.5,0.6-1c-1-1.2-2-1.9-3.3-2.7c-0.2,0.4-0.3,0.7-0.5,1.1c1.6,0.5,3.7,1.5,3.2,3.4c-0.2,0.7,0.7,1,1.1,0.5
				c0.7-0.9,0.7-0.9,0.3-1.9c-0.2-0.4-0.7-0.6-1-0.3c-0.9,1-0.9,0.9-0.9,2.2c0,0.4,0.5,0.8,0.9,0.5c1.1-0.8,1.2-1.6,0.4-2.6
				c-0.1-0.2-0.4-0.2-0.6-0.2c-1.3,0.2-1.7,1-1.3,2.2c0.1,0.4,0.5,0.6,0.9,0.4c1-0.6,1-0.5,1-1.8c0-0.2-0.1-0.4-0.3-0.5
				c-3.7-2.1-3.2,4.4-0.7,2.8c1-0.7,0.4-3.3-0.8-3.5c-2.4-0.3-1.6,3-1.2,4.2c0.2,0.5,1,0.6,1.1,0c0.4-1.5,0.3-2.2-0.4-3.5
				c-0.2-0.4-0.8-0.4-1,0c-1,1.4-1.1,2.2-0.7,3.9c0.1,0.6,0.9,0.5,1.1,0c0.8-2,0.7-3.4-0.2-5.4c-0.2-0.4-0.8-0.4-1,0
				c-0.9,1.6-1.5,3.4-0.2,4.9c0.1,0.2,0.4,0.2,0.6,0.2c3.9-1.1,0.4-8-2-4.3c-2.3,3.8,4.9,5,2.4-0.4c-0.1-0.2-0.3-0.3-0.5-0.3
				c-2.1,0.1-2.8,1.7-2.6,3.6c0.1,0.4,0.7,0.9,1,0.4c0.8-1,1.4-1.9,0.9-3.2c-0.1-0.3-0.3-0.4-0.6-0.4c-1.6-0.1-3.4,2.5-1.5,3.6
				c2.3,1.3,2-1.8,1.4-2.9c-0.2-0.4-0.8-0.4-1,0c-0.9,1.4-1.1,2.1,0.2,3.2c0.1,0.1,0.4,0.2,0.6,0.2c0.3-0.1,0.5-0.2,0.8-0.3
				c0.3-0.1,0.5-0.4,0.4-0.7c-0.1-1-0.1-0.8-0.8-1.6c-0.3-0.3-0.9-0.2-1,0.3c-0.3,1.6,0.5,3.2,1.2,4.5c0.3-0.3,0.5-0.5,0.8-0.8
				c-1.8-0.9-3.1,0.5-1.8,2.1c0.1,0.2,0.4,0.2,0.6,0.2c0.2-0.1,0.4-0.1,0.7-0.2c0.2-0.1,0.4-0.2,0.4-0.4c0-0.2,0.1-0.4,0.1-0.7
				c0-0.3,0-0.5-0.3-0.7c-0.8-0.4-0.8-0.4-1.6,0c-0.2,0.1-0.3,0.3-0.3,0.5c0,1,0.2,0.9,0.9,1.5c0.2,0.2,0.9-0.1,1.2,0
				c1.1,0.5,1.6,0.8,2.6,1.6c0.4,0.3,1-0.2,0.9-0.7c-0.1-0.6-0.3-1.2-0.4-1.7c-0.4,0.2-0.7,0.3-1.1,0.5c0.3,0.4,0.5,0.9,0.8,1.3
				c0.3-0.2,0.6-0.5,0.9-0.7c-0.3-0.3-0.7-0.6-1-0.9c-0.3-0.3-1.1-0.1-1,0.4c0,0.4,0.1,0.7,0.1,1.1c0.4-0.1,0.7-0.2,1.1-0.3
				c-0.7-1.3-1.3-2.2-2.3-3.3c-0.4-0.5-1.1,0-1,0.6c0.3,2,0.9,3.5,1.9,5.2c0.3,0.4,1,0.4,1.1-0.1c-1-1.1-2.1-2.3-3.1-3.4
				c-0.1-0.4-0.2-0.7-0.3-1.1c-1.8,0.9-1.5,2.7,0.4,3.1c0.3,0.1,0.7-0.1,0.7-0.4c0-0.2,0.1-0.5,0.1-0.7c0-0.3,0-0.5-0.3-0.7
				c-0.2-0.1-0.4-0.3-0.6-0.4c-0.2-0.1-0.5-0.1-0.7,0.1c-0.2,0.2-0.3,0.4-0.5,0.6c-0.1,0.1-0.2,0.4-0.2,0.6c0.1,0.2,0.2,0.5,0.3,0.7
				c0.1,0.3,0.4,0.5,0.7,0.4c0.3,0,0.5-0.1,0.8-0.1c0.2,0,0.4-0.2,0.4-0.4c0.1-0.2,0.2-0.5,0.3-0.7c0.1-0.3-0.1-0.5-0.3-0.7
				c-0.2-0.1-0.4-0.3-0.6-0.4c-0.2-0.1-0.4-0.1-0.6,0c-0.2,0.1-0.5,0.2-0.7,0.3c-0.2,0.1-0.3,0.3-0.3,0.5c-0.2,2,2.7,3.4,3.2,1
				c0.1-0.3,0-0.5-0.3-0.7c-0.2-0.1-0.3-0.2-0.5-0.3c-0.2-0.1-0.4-0.1-0.6,0c-0.2,0.1-0.3,0.2-0.5,0.3c-0.3,0.2-0.4,0.7-0.1,0.9
				c2.4,2.4,3.5-2.1,4.7-0.8c0.5,0.5,1.3-0.1,0.9-0.7c-0.9-1.5-1.7-2.3-3.3-3.1c-0.6-0.3-1.3,0.5-0.7,0.9c1.6,1.2,2.6,2.7,3.1,4.8
				c0.3-0.2,0.6-0.4,0.9-0.7c-0.3-0.3-0.6-0.6-0.9-0.9c-0.2-0.4-1-0.3-1.1,0.1c-0.1,0.3-0.1,0.6-0.2,0.9c0.4,0,0.7-0.1,1.1-0.1
				c-0.2-0.3-0.4-0.7-0.6-1c-0.3-0.6-1.2-0.2-1.1,0.5c0.1,0.5,0.2,1,0.3,1.6c0.4-0.2,0.7-0.3,1.1-0.5c-0.6-1.2-0.4-0.8-1.3-1.7
				c-0.4-0.4-1.1,0-1,0.6c0.4,1.7,0.9,2.9,1.7,4.4c0.3-0.2,0.6-0.5,0.9-0.7c-0.8-0.9-0.6-0.7-1.6-1.4c-0.4-0.3-1,0.2-0.9,0.7
				c0.4,1.2,0.2,1,1.2,1.8c0.3-0.3,0.6-0.6,0.8-0.8c-0.6-0.4-1.1-0.9-1.6-1.5c-0.3-0.3-0.8-0.2-0.9,0.1c-0.9,1.7-0.7,1-1,2.9
				c-0.1,0.6,0.8,1.1,1.1,0.5c0.6-1.4,1-2.7,1.1-4.2C119,115.5,117.8,115.5,117.7,116.3L117.7,116.3z"/>
		</g>
	</g>
	<g>
		<g>
			<path class="st1" d="M125.2,47.3c1,2.3,2.2,4.4,3.8,6.4c0.5,0.6,1.3-0.2,0.8-0.8c-1.4-1.8-2.6-3.8-3.5-5.9
				C126.1,46.3,124.9,46.6,125.2,47.3L125.2,47.3z"/>
		</g>
	</g>
	<g>
		<g>
			<g>
				<path class="st0" d="M76.9,86c-0.1,1,0.6,2,1.6,2.3c0.6,0.2,0.9-0.6,0.6-1c-0.4-0.5-0.8-1-1.2-1.4c-0.2,0.3-0.5,0.6-0.7,0.9
					c0.7,0.4,1.3,0.9,1.9,1.6c0.5,0.6,1.3-0.3,0.8-0.8c-0.6-0.7-1.3-1.3-2.1-1.7c-0.6-0.3-1.1,0.4-0.7,0.9c0.4,0.5,0.8,1,1.2,1.4
					c0.2-0.3,0.4-0.7,0.6-1C78.3,87,78,86.5,78.1,86C78.1,85.2,76.9,85.2,76.9,86L76.9,86z"/>
			</g>
		</g>
		<g>
			<g>
				<path class="st0" d="M79.5,91c0-0.1,0-0.1,0-0.2c-0.4,0.1-0.7,0.2-1.1,0.3c0.2,0.3,0.4,0.6,0.6,0.9c0.2-0.3,0.4-0.6,0.7-0.9
					c0.2-0.4,0.5-0.8,0.7-1.2c0.1-0.2,0-0.6-0.3-0.7c-2.7-1.3-4.5,1.9-2.4,3.9c1.8,1.7,4.9,0.4,3.4-2c-0.3,0.2-0.7,0.4-1,0.6
					c0.3,0.4,0.7,0.7,1,1.1c0.3-0.2,0.7-0.4,1-0.6c-0.3,0-0.5,0-0.8,0c-0.6,0.4-0.1,1.4,0.6,1c1.8-1,1.4-3.5-0.9-3.8
					c-3.1-0.3-2.1,4-1.6,5.8c0.3-0.2,0.7-0.4,1-0.6c-0.1-0.3-0.1-0.6-0.2-0.9c-0.4,0.1-0.8,0.1-1.2,0.2c0,0.4,0.1,0.8,0.1,1.2
					c0.5-0.2,0.3-1-0.1-1.1c-3.7-0.8-2.8,4.1,0.1,4.8c3.8,1,5.4-4.5,1.3-5.2c-0.3-0.1-0.8,0.2-0.8,0.6c0.1,1,0.2,2,0.3,3
					c0.3-0.1,0.7-0.3,1-0.4c-0.5-0.7-1.1-1.5-1.6-2.2c0.4,0,0.7,0.1,1.1,0.1c0.1-0.4,0.2-0.8,0.3-1.2c-0.3-0.1-0.7-0.3-1-0.4
					c-0.2,1.8,0,3.8-1.2,5.3c-0.5,0.7-1.4,0.6-1.9,1.5c-0.7,1.4-0.1,2.5,1.2,3.2c0.6,0.3,1.2-0.5,0.7-0.9c0.5-0.5,1-0.9,1.5-1.4
					c0.1,0.2,0.3,0.4,0.5,0.5c-0.5-0.1,2.7,1.6,1.5,1c0.5,0.3,1.2-0.3,0.8-0.8c-1-1.5-0.9-1.4-2.1-2.9c-0.3,0.3-0.6,0.6-0.8,0.8
					c0,0.3-0.1,0.5-0.1,0.8c-0.3,0.2-0.7,0.4-1,0.6c0.3-0.2,0.6-0.4,0.9-0.6c-0.4,0-0.7,0.1-1.1,0.1c0.3,0.1,0.5,0.2,0.8,0.3
					c-0.4,0.1-0.7,0.2-1.1,0.3c-0.1,0.5-0.1,1-0.2,1.5c0.4,0,0.7,0.1,1.1,0.1c-0.8-2-0.7,3.7-0.8,4.4c-0.1,0.7,1,0.8,1.2,0.2
					c0.4-1.6,0.8-3.2,1.2-4.9c-0.4,0-0.8,0-1.1,0c0.4,1.3,0.7,2.5,1,3.9c0.1,0.6,1.1,0.6,1.1,0c0.2-1.2,0.4-2.3,0.5-3.5
					c-0.4,0-0.8,0-1.1,0c0.1,0.7,0.1,1.3,0.2,2c0.4-0.1,0.8-0.1,1.2-0.2c-0.3-1.1-0.5-2.2-0.6-3.3c-0.4,0.2-0.7,0.3-1.1,0.5
					c0.5,0.7,0.4,0.3,0.5,1.1c0.1,0.5,0.8,0.9,1.1,0.3c0.6-1.4,0.6-2.1-0.3-3.3c-0.3,0.2-0.6,0.5-0.9,0.7c0.5,0.7,1,1.5,1.4,2.2
					c0.3,0.6,1.3,0.2,1.1-0.5c-0.5-1.4-0.4-1.3-1.7-2.2c-0.5-0.3-1,0.2-0.9,0.7c0.6,3.4-2.1,4.9,1.3,6.8c0.5,0.3,1.1-0.3,0.8-0.8
					c-0.4-0.6-0.7-1.2-0.9-1.8c-0.3,0.2-0.6,0.5-0.9,0.7c-1-0.3-2-0.7-3-1c0.4-0.5-0.5-1.2-0.9-0.7c-0.9,0.9-1.5,2-0.9,3.4
					c0.4,0.9,4.6,2.8,4.6,1.3c0.4-0.1,0.7-0.2,1.1-0.3c-0.1-0.7-0.2-1.4-0.2-2.1c-0.4,0-0.7,0.1-1.1,0.1c0.2,0.6,0.5,1.2,0.7,1.8
					c0.4-0.1,0.7-0.2,1.1-0.3c0-0.5-0.1-1.1-0.1-1.6c-0.4-0.1-0.8-0.1-1.2-0.2c-0.2-0.4-0.3-0.7-0.5-1.1c-0.4,0.1-0.8,0.1-1.2,0.2
					c-0.2,0.7-0.5,1.4-0.7,2.1c-0.4,0-0.7,0.4-0.6,0.8c0,0.4-0.1,0.8-0.1,1.3c0.4,0.1,0.8,0.2,1.1,0.3c0.3-1.3,0.9-2.5,1.6-3.6
					c-0.4,0-0.7-0.1-1.1-0.1c0.8,2.1-4.5,3.4-4,6.1c0.4,2.2,2.9,2.3,4.7,2.2c0.7,0,0.8-0.9,0.2-1.2c-1.1-0.3-2.3-0.5-3.4-0.8
					c-0.1,0.7,1,1.1,1.1,0.3c0.5,0.1,1,0.2,1.5,0.4c0.4,0,0.7-0.1,1.1-0.1c0.9,0,1.5-0.3,2-1c-0.4,0.1-0.8,0.2-1.1,0.3
					c-0.4,0.2-0.8,0.5-1.2,0.7c-0.4-0.1-0.9,0.3-0.7,0.7c0.2,0.8,0.3,1.6,0.5,2.5c0.4-0.1,0.7-0.2,1.1-0.3c-0.3-0.3-0.5-0.6-0.8-0.9
					c-0.4,0.1-0.8,0.1-1.2,0.2c-0.2,0.5-0.4,1-0.6,1.5c0.4,0,0.7,0.1,1.1,0.1c0.2,0.1,0.4,0.3,0.6,0.4c0.3-0.2,0.6-0.4,0.9-0.7
					c0.1,0.3,0.2,0.7,0.3,1c0.3-0.2,0.6-0.4,0.9-0.7c-0.2-0.2-0.4-0.5-0.6-0.7c-0.3,0.2-0.6,0.4-0.9,0.7c0.2,0.5,0.3,0.9,0.5,1.4
					c-0.6-0.5-1.2,0.6-0.6,1c0.2,0.2,0.5,0.3,0.7,0.5c0.2,0.1,0.4,0.1,0.6,0c2.2-1.1,1.1-2.9-0.6-3.9c-0.4-0.3-1,0.2-0.9,0.7
					c0.3,1,0.3,1,1.2,1.4c0.4,0.2,1.1-0.1,0.9-0.7c-0.6-1.5-1.1-2.1-2.8-2.4c-0.4-0.1-0.9,0.3-0.7,0.7c0.4,1.2,0.4,1.2,1.5,2
					c0.4,0.3,1-0.2,0.9-0.7c-0.4-1.4-0.8-2.8-2.4-3.1c-0.2-0.1-0.6,0-0.7,0.3c-0.5,1.1-0.2,2,0.2,3.1c0.2,0.4,0.9,0.7,1.1,0.1
					c0.7-1.6,0.4-2.8-1-3.8c-0.4-0.2-0.9,0.1-0.9,0.5c0.2,1.8,0.5,2.5,1.9,3.7c0.3,0.3,0.9,0.2,1-0.3c0.2-1.5,0.3-1.2-0.2-2.6
					c-0.2-0.6-1.2-0.5-1.2,0.2c0.2,1.6,0.5,2.4,1.7,3.6c0.2,0.2,0.8,0.2,0.9-0.1c0.6-1.3,0.5-2.5-0.7-3.4c-0.2-0.1-0.5-0.1-0.7,0.1
					c-0.1,0.1-0.2,0.2-0.4,0.3c-0.2,0.2-0.2,0.5-0.1,0.7c0.1,0.1,0.1,0.2,0.2,0.3c0.3,0.5,1.1,0.3,1.1-0.3c-0.2-4.3,0.2,0.4,1-2
					c0.4-1.3,1-0.8,0.4-2.3c-0.3-0.7-1.4-0.4-1.1,0.3c0.4,1.2,0.3,1.2,1.4,1.5c0.3,0.1,0.7-0.1,0.7-0.4c0.2-1.2-0.2-1.9-1.4-2.3
					c-0.2-0.1-0.4,0-0.6,0.2c-0.2,0.2-0.3,0.3-0.5,0.5c-0.1,0.1-0.2,0.4-0.2,0.6c0.4,1.2,1,1.4,2.2,1.5c0.5,0,0.7-0.5,0.5-0.9
					c-1.4-2.9-3.8-1.6-2,0.7c0.3,0.3,0.9,0.2,1-0.3c0.8-5.1-5.9,0.8-1.1,1.2c0.2,0,0.4-0.1,0.5-0.3c0.9-1.4-0.2-5.1-2.4-3.9
					c-1.5,0.9,0,3.3,1.4,3.3c0.3,0,0.5-0.2,0.6-0.4c0.5-1.3,0-2.8-0.9-3.8c-0.1-0.2-0.4-0.2-0.6-0.2c-2,0.5-1.4,3-0.6,4.3
					c0.3,0.4,0.9,0.3,1.1-0.1c1.1-3.2-3.1-4.3-3.7-1c0.4,0.1,0.8,0.2,1.1,0.3c0.3-1.6-0.3-2.9-2-2.2c-0.2,0.1-0.3,0.3-0.3,0.5
					c-0.1,3.9,5.1,0.8,2.1-0.6c-0.4-0.2-0.9,0-0.9,0.5c0,1.1,0.6,1.5,1.7,1.3c0.2,0,0.4-0.2,0.4-0.4c0.4-1.4-1-2.5-2-1.2
					c-1,1.3,1.5,3.3,2.6,2.4c1.2-1,0.3-3.1-1.2-2.8c-2.5,0.4-1.3,3.1,0.7,3.2c0.5,0,0.7-0.5,0.5-0.9c-0.2-0.3-0.4-0.7-0.6-1
					c-0.1-0.2-0.3-0.3-0.5-0.3c-0.2,0-0.4,0-0.6,0c-0.2,0-0.4,0.1-0.5,0.3c-0.1,0.2-0.1,0.3-0.2,0.5c-0.1,0.3-0.1,0.5,0.1,0.7
					c0.7,0.8,1.7,1.2,2.7,1.6c0.1-0.4,0.1-0.8,0.2-1.2c-1.5,0.4-2.4-0.4-2.6-2.5c0.4,0,0.9-0.1,1.3-0.3c0.5-0.6,1.1-0.5,1.6-1.3
					c0.7-1.1,0.6-2.2,0.2-3.4c-0.2-0.5-0.8-0.6-1.1-0.1c-0.8,1.3-1.3,2.4-1.8,3.9c-0.2,0.8,0.9,1,1.1,0.3c0.8-1.9,2.3-2.1,1.4-4.7
					c-0.2-0.6-1.2-0.5-1.2,0.2c0.1,2,2.6,3.9,2.9,1.1c0.1-0.7-1-0.7-1.2-0.2c-0.5,1.4-0.5,1.2,0.2,2.5c0.3,0.5,1.2,0.3,1.1-0.3
					c-0.2-1.5,0-1.1-0.9-2.4c-0.3-0.4-0.9-0.4-1.1,0.1c-0.4,1.2-0.4,1.9,0.4,3c0.3,0.5,1.1,0.3,1.1-0.3c0-1.4-0.1-2.7-1-3.8
					c-0.1-0.2-0.4-0.2-0.6-0.2c-2.3,0.4-1.5,3.4-0.6,4.6c0.2,0.3,0.8,0.4,1,0c0.1-0.1,0.1-0.3,0.2-0.4c0.1-0.2,0.1-0.4,0-0.6
					c-0.8-1-5.2-1.3-3.1-3.5c-0.3-0.2-0.6-0.5-0.9-0.7c-0.6,0.8-0.6,0.7-0.5,1.7c0,0.2,0.1,0.4,0.3,0.5c0.2,0.1,0.4,0.2,0.7,0.3
					c0.2,0.1,0.4,0.1,0.6,0c0.2-0.1,0.4-0.3,0.6-0.4c0.3-0.2,0.4-0.5,0.2-0.8c-0.1-0.2-0.2-0.4-0.3-0.6c-0.1-0.2-0.3-0.3-0.5-0.3
					c-0.2,0-0.5,0.1-0.7,0.1c-0.2,0-0.5,0.2-0.6,0.4c-0.5,3.2,4.4,1.6,1.9-1.2c-0.2-0.3-0.8-0.2-0.9,0.1c-0.9,1.9-0.2,3.2,1.9,3.4
					c0.5,0,0.7-0.5,0.5-0.9c-0.1-0.2-0.2-0.4-0.3-0.6c-0.1-0.2-0.3-0.3-0.5-0.3c-3.1-0.2-1.9,4,0.5,4.6c3.5,0.9,4.6-3.5,2.2-5.4
					c-0.5-0.4-1.2,0.1-0.9,0.7c0.3,0.6,0.6,1.3,0.9,1.8c0.3-0.3,0.5-0.5,0.8-0.8c-1.6-0.9-0.5-4.5-0.8-6.1c-0.3,0.2-0.6,0.4-0.9,0.7
					c0.4,0.5,0.7,1,1.1,1.5c0.4-0.2,0.7-0.3,1.1-0.5c-0.7-1.7-0.4-1.1-1.6-2.5c-0.5-0.5-1.3,0.2-0.9,0.7c0.1,0.7,0.2,1.4,0.3,2.1
					c0.4,0.1,0.7,0.2,1.1,0.3c0-0.4-0.1-0.7-0.1-1.1c0-0.3-0.2-0.6-0.6-0.6c0,0,0,0,0.1,0c-0.4-0.6-1.2-0.2-1.1,0.5
					c0.1,1.1,0.3,2.2,0.6,3.3c0.2,0.7,1.1,0.5,1.2-0.2c0.1-1.4,0.2-1-0.2-2.3c-0.2-0.5-1.1-0.6-1.1,0c-0.2,1.2-0.4,2.3-0.5,3.5
					c0.4,0,0.8,0,1.1,0c-0.2-1.4-0.5-2.6-1-3.9c-0.2-0.5-1-0.6-1.1,0c-0.4,1.6-0.8,3.2-1.2,4.9c0.4,0.1,0.8,0.1,1.2,0.2
					c0.2-2.3,1.1-6.5-0.8-8.2c-0.3-0.3-0.9-0.2-1,0.3c-0.4,1.5-0.3,2.5,0.3,3.9c0.2,0.4,0.9,0.7,1.1,0.1c0.7-1.5,0.7-2.2-0.1-3.6
					c-0.2-0.4-0.8-0.4-1,0c-0.7,1.5-0.7,2.3,0.5,3.5c0.3,0.3,0.9,0.2,1-0.3c0.4-1.2,0.3-1.1-0.2-2.3c-0.3-0.6-1.1-0.2-1.1,0.3
					c-0.1,1.4,0.3,2,1.4,2.8c0.4,0.3,0.9-0.1,0.9-0.5c-0.1-1.8,0-1.3-0.9-2.8c-0.2-0.4-0.8-0.4-1,0c-1,2.1-1,3.6,0,5.7
					c0.2,0.4,0.8,0.4,1,0c1.2-2.3,1.2-3.8,0.1-6.1c-0.2-0.5-1-0.3-1.1,0.1c-0.5,1.9,0,3.1,1.7,4.1c0.4,0.2,0.9-0.1,0.9-0.5
					c0-1.6-0.3-2.3-1.4-3.4c-0.4-0.4-1.2,0-1,0.6c0.6,1.6,1.2,2.4,2.6,3.4c0.3,0.2,0.7,0.1,0.8-0.2c1.1-2.2,0.4-3.5-1.3-5.1
					c-0.6-0.6-1.3,0.3-0.8,0.8c0.6,0.9,1.3,1.8,1.9,2.6c0.3-0.3,0.5-0.5,0.8-0.8c-1.8-1-3.2-4.8-5.6-2.5c-1.5,1.5-0.7,3.1,0.6,4.2
					c0.2-0.3,0.5-0.6,0.7-0.9c0.5-0.9,1-1.9,1.6-2.8c0.3-0.1,0.4-0.3,0.4-0.6c0.2-1.8,0.3-3.7,0.5-5.5c0-0.5-0.7-0.8-1-0.4
					c-1,1.1-0.9,0.9-0.6,2.4c0.1,0.5,0.8,0.6,1.1,0.1c0.8-1.2,0.7-1.1,0.1-2.4c-0.1-0.3-0.7-0.4-0.9-0.1c-3.3,4.3,2.6,8.5,2.5,3.7
					c-0.1-4.7-5.4,1-2,2.7c0.2,0.1,0.5,0.1,0.7-0.1c1.3-1.2,1.1-2.4,0.6-4c-0.1-0.4-0.7-0.6-1-0.3C79.2,96,78.8,97.8,81,98
					c0.2,0,0.4-0.1,0.5-0.3c2.5-3.8-4.7-2.8-1.7-0.4c0.3,0.2,0.6,0.2,0.8,0c1-0.9,1.2-1.5,0.8-2.8c-0.1-0.4-0.5-0.5-0.9-0.4
					c-1.6,0.9-1.8,2.2-0.4,3.5c0.3,0.3,1.1,0.1,1-0.4c0.3-1.7-0.5-2.4-2.5-2c0-0.4-0.1-0.7-0.1-1.1c-0.9,0.4-0.9,0.4-1.1,1.4
					c0,0.3,0,0.5,0.3,0.7c0.8,0.6,0.8,0.6,1.8,0.2c0.3-0.1,0.4-0.3,0.4-0.6c0.1-1,0.1-1-0.7-1.7c-0.2-0.1-0.4-0.2-0.6-0.2
					c-5.1,1.9,2.2,5.5,0.9,1.4c-0.1-0.2-0.2-0.4-0.4-0.4c-1.1-0.2-1-0.2-1.9,0.5c-0.2,0.1-0.2,0.4-0.2,0.6c0.7,3.2,4.3,0.2,2.1-1.9
					c-0.2-0.1-0.4-0.2-0.6-0.2c-1.6,0.5-1.3,2.1-0.5,3.3c0.2,0.3,0.7,0.4,0.9,0.1c1.1-1,1.1-2.3-0.1-3.3c-0.4-0.3-0.8-0.2-1,0.3
					c-0.4,1.3-0.5,2.3,0.8,3.1c0.2,0.1,0.4,0.1,0.6,0c1.5-0.9,1.5-2.6,0.9-4c-0.3-0.6-1.1-0.5-1.2,0.2c-0.1,1,0,1,0.6,1.8
					c0.4,0.5,1.2,0,1-0.6c0.2-0.9,0.5-1.9,0.7-2.8c0.2,0.3,0.4,0.7,0.6,1c1.9-1.4,0.8-4-1.6-3.5c-0.2,0-0.4,0.2-0.4,0.4
					c-0.3,1.3,0.5,2.1,1.4,3c0.5,0.4,1.1,0,1-0.6c-0.3-1.7-0.1-1.3-1.3-2.6c-0.3-0.3-0.8-0.2-0.9,0.1c-0.8,1.5-0.5,2.7,0.9,3.7
					c0.4,0.2,0.9-0.1,0.9-0.5c-0.1-1.2,0-1-0.7-2.1c-0.4-0.6-1.4-0.1-1,0.6c-1.7-2.8-1.2-0.2,0.1,0.7c0.3,0.2,0.8,0,0.9-0.4
					c1-3.4-3.4-4.5-3.1-1.3c0,0.3,0.2,0.5,0.4,0.6c0.2,0.1,0.4,0.1,0.6,0.2c0.2,0.1,0.4,0,0.6-0.2c0.1-0.1,0.2-0.2,0.4-0.3
					c0.1-0.1,0.2-0.4,0.2-0.6c-0.5-1.3-2.6-1.3-2.9,0.3c-0.3,1.8,2.2,2.3,3,0.9c0.8-1.3-0.5-2.9-1.9-2.4c-2.2,0.7-1,2.9,0.7,3.1
					c0.2,0,0.4-0.1,0.5-0.3c0.1-0.3,0.3-0.5,0.4-0.8c0.1-0.2,0.1-0.4,0-0.6c-0.2-0.2-0.3-0.5-0.5-0.7c-0.2-0.2-0.4-0.3-0.7-0.3
					c-2.8,0.4-1.3,4.2,0.7,2.2c0.1-0.1,0.2-0.4,0.2-0.6c-0.4-1.1-1.2-1.5-2.2-0.8c-0.3,0.2-0.4,0.5-0.2,0.8c0.8,1.1,0.6,1.1,2,1.1
					c0.3,0,0.5-0.2,0.6-0.4c0.4-1,0.1-1.7-1-1.9C78.3,90,78,90.3,78,90.8c0,0.2,0.1,0.5,0.1,0.7c0,0.2,0.2,0.3,0.4,0.4
					c0.2,0.1,0.5,0.2,0.7,0.3c0.5,0.2,0.9-0.5,0.7-0.9c-0.2-0.3-0.4-0.6-0.6-0.9c-0.3-0.5-1-0.3-1.1,0.3c0,0.1,0,0.3,0,0.4
					c0,0.2,0.1,0.4,0.3,0.5c0.1,0.1,0.3,0.2,0.4,0.2C79.5,92.4,80.1,91.4,79.5,91L79.5,91z"/>
			</g>
		</g>
		<g>
			<g>
				<path class="st0" d="M74.5,50.9c-0.2,2.4-2.3,5-3.5,7c-1.2,2-2.2,3.9-2.6,6.1c-0.3,1.4,1.4,2.5,2.5,1.4c1.7-1.7,3.5-3.3,5.3-5
					c-0.7-0.7-1.4-1.4-2.1-2.1c-0.8,0.7-1.8,1.4-2.8,1.8c-0.5,0.1-0.5,0.2,0,0.4c0.2-0.8,0.5-1.5,1-2.1c1.2-1.5-0.9-3.6-2.1-2.1
					c-1.2,1.6-3.1,5-1.2,6.7c2,1.8,5.7-1.3,7.2-2.6c1.4-1.3-0.7-3.4-2.1-2.1c-1.8,1.6-3.6,3.3-5.3,5c0.8,0.5,1.7,1,2.5,1.4
					c1-5,5.8-8.7,6.3-13.9C77.7,49,74.7,49,74.5,50.9L74.5,50.9z"/>
			</g>
		</g>
		<g>
			<g>
				<path class="st0" d="M122.2,40.4c-4.5-0.1-10.3-1.2-14.6-2.8c-4.4-1.7-8-5.7-11.3-8.9c-1.2,1.6-2.4,3.1-3.6,4.7
					c1.7,0.7,2.3,0.5,4.1,0.3c2.8-0.2,6,0.2,8.8,0.8c5.3,1.1,10.2,5.3,14.8,8c0.8-1.8,1.5-3.6,2.3-5.4c-5.9-1.5-11.9-3-17.7-4.8
					c-0.3,1.9-0.5,3.9-0.8,5.8c4.3-0.2,8.5,0,12.8,0.7c0-1.9,0-3.8,0-5.7c-1.5,0.4-2.1,1-3,2.1c-0.6,0.8-0.5,2.2,0,3
					c1,1.5,1.7,1.4,3.1,2.3c2.3,1.4,3.8,4.2,5.4,6.4c2.2,3.1,7.4,0.1,5.1-3c-1.6-2.2-3.1-4.6-5-6.6c-0.6-0.6-1.3-1.3-2.1-1.8
					c-0.6-0.3-2.4-1.7-1.4-0.3c0,1,0,2,0,3c-0.2,0.2-0.4,0.4-0.6,0.6c2.7-0.7,3-5.2,0-5.7c-4.8-0.8-9.5-1.1-14.3-0.9
					c-3.3,0.2-4.1,4.8-0.8,5.8c5.8,1.8,11.8,3.3,17.7,4.8c3.3,0.8,5.2-3.7,2.3-5.4c-4.6-2.8-9.5-6.8-14.8-8.3
					c-2.5-0.7-5.3-0.9-7.9-1.3c-1.1-0.2-2.3-0.4-3.4-0.3c-0.5,0-3,0.1-1.6,0.6c-2.9-1.2-6.3,2.1-3.6,4.7c3.7,3.5,7.6,7.8,12.4,9.8
					c5.1,2.2,12.1,3.6,17.7,3.6C126,46.4,126,40.5,122.2,40.4L122.2,40.4z"/>
			</g>
		</g>
		<g>
			<g>
				<path class="st0" d="M76.9,45c0,0,0,0.1-0.1,0.1c1.1-0.5,2.2-0.9,3.4-1.4c-0.1,0-0.1,0-0.2-0.1c0.6,1.5,1.2,2.9,1.8,4.4
					c0.8-1.4,4.4-2.9,5.8-3.7c-1.2-1.6-2.4-3.1-3.6-4.7c-1.8,1.6-3.7,3.1-5.6,4.6c-2.7,2.1,0.8,6.5,3.6,4.7c1.4-0.9,2.8-1.9,4.2-2.8
					c-1.4-1.4-2.7-2.7-4.1-4.1c-1.8,2.5-9,10.6-2.6,12.7c5.1,1.7,10.8-8.1,14.2-10.4c-1.2-1.6-2.4-3.1-3.6-4.7
					c-1.9,1.8-3.9,3.6-5.8,5.4c-2.9,2.7,1.3,6.5,4.2,4.2c4.5-3.5,8.4-7.8,12.5-11.9c1.4-1.4,1.1-3.7-0.6-4.7c-3-1.7-6.3-4.6-10-3.8
					c-3.9,0.9-8.2,3.8-11.1,6.6c-5.3,5-11,14.8-11,22.3c0,0.9,0.5,2.2,1.5,2.6c4.2,1.8,10.1-2.6,12.5-5.8c1.3-1.7-0.4-4.8-2.6-4.5
					c-1.7,0.2-3.1,0.5-4.6,1.1c1.2,1.2,2.4,2.4,3.7,3.7c0.7-3.3,4.5-6.4,6.8-8.7c2.5-2.5,5-5.3,8.3-6.6c-0.8-1.8-1.5-3.6-2.3-5.4
					c-0.8,0.4-1.6,0.8-2.4,1.3c1.2,1.6,2.4,3.1,3.6,4.7c0.5-0.4,1-0.7,1.5-1.1c3.5-1.4,2-7.1-1.6-5.7c-1.7,0.6-2.9,1.3-4.1,2.6
					c-2.4,2.5,0.6,6.3,3.6,4.7c0.8-0.4,1.6-0.8,2.4-1.3c2.9-1.5,0.9-6.8-2.3-5.4c-4.4,1.8-7.7,4.8-11,8.2c-3.1,3.2-7.4,6.8-8.4,11.3
					c-0.4,1.9,1.4,4.6,3.7,3.7c1-0.5,2-0.8,3-0.9c-0.9-1.5-1.7-3-2.6-4.5c-0.7,1-1.9,1.4-2.9,2c-0.5,0.3-3.2,1-1.5,1.7
					c0.5,0.9,1,1.7,1.5,2.6c-0.1-5.2,4-11.4,7-15.4c1.9-2.5,4.1-4.3,6.9-5.8c4-2.3,5.4-0.8,9.2,1.3c-0.2-1.6-0.4-3.1-0.6-4.7
					c-4.1,4.1-8,8.3-12.5,11.9c1.4,1.4,2.8,2.8,4.2,4.2c1.9-1.8,3.9-3.6,5.8-5.4c2.4-2.3-0.8-6.6-3.6-4.7c-1.9,1.3-3.7,2.8-5.3,4.5
					c-1,1-3.8,5.2-5.1,5.2c0.9,0.5,1.7,1,2.6,1.5c0.7,1.1,1.1-0.8,1.7-1.7c0.9-1.2,1.7-2.5,2.6-3.7c1.7-2.4-1.7-5.7-4.1-4.1
					C81.9,42,80.4,43,79,43.9c1.2,1.6,2.4,3.1,3.6,4.7c1.9-1.5,3.8-3,5.6-4.6c2.6-2.3-0.7-6.2-3.6-4.7c-2.5,1.4-6.6,3.2-8,5.8
					c-1,1.8-0.1,3.7,1.8,4.4c0.1,0,0.1,0,0.2,0.1c1.2,0.4,2.8-0.3,3.4-1.4c0,0,0-0.1,0.1-0.1C83.7,44.6,78.6,41.6,76.9,45L76.9,45z"
					/>
			</g>
		</g>
		<g>
			<g>
				<g>
					<g>
						<g>
							<path class="st2" d="M116.8,117.3c0,0.4,0.1,0.9,0.1,1.3c0,0.2,0,0.4,0,0.6c0,0.1,0,0.5,0.1,0.4c0.1-0.1,0.3-0.1,0.4-0.2
								c0,0-0.1,0-0.1,0c-0.8,0-0.8,1.2,0,1.2c0.6,0,0.8-0.5,0.8-1c0-0.8-0.1-1.6-0.2-2.4C117.9,116.6,116.7,116.6,116.8,117.3
								L116.8,117.3z"/>
						</g>
					</g>
					<g>
						<g>
							<g>
								<path class="st3" d="M99.1,40.1c2.2,2.7,6.6,3.6,9.7,4.6c4.6,1.4,9.2,2.1,13.9,2.4c0.8,0,0.8-1.1,0-1.2
									c-4.1-0.3-8.1-0.9-12-1.9c-3.3-0.9-8.6-2-10.8-4.7C99.5,38.7,98.7,39.5,99.1,40.1L99.1,40.1z"/>
							</g>
						</g>
						<g>
							<g>
								<path class="st3" d="M70.1,52.2C73.8,40.6,82.8,31.1,95,28.8c12.4-2.3,28.7,4.7,32.1,17.7c0.2,0.7,1.3,0.4,1.1-0.3
									c-3.5-13-19.2-20.4-31.8-18.8C83.1,29.1,73,39.3,69,51.8C68.7,52.6,69.9,52.9,70.1,52.2L70.1,52.2z"/>
							</g>
						</g>
						<g>
							<g>
								<path class="st3" d="M116,90.6c-3.8,1-3.6,6.6,0.4,7.1c0.7,0.1,1.1-1,0.3-1.1c-2.8-0.4-3.1-4.1-0.4-4.8
									C117,91.6,116.7,90.4,116,90.6L116,90.6z"/>
							</g>
						</g>
						<g>
							<g>
								<path class="st3" d="M115.9,97.1c-1.6,0.1-2.8,1.4-3,3c-0.2,2,1.3,3.5,3,4.3c0.7,0.3,1.3-0.7,0.6-1c-1-0.5-2.1-1.3-2.3-2.5
									c-0.3-1.2,0.5-2.5,1.8-2.6C116.6,98.3,116.6,97.1,115.9,97.1L115.9,97.1z"/>
							</g>
						</g>
						<g>
							<g>
								<path class="st3" d="M116,104.1c-3.9-0.3-4.5,7.2-0.2,6.7c0.8-0.1,0.8-1.3,0-1.2c-2.8,0.3-2.1-4.5,0.2-4.4
									C116.8,105.4,116.8,104.2,116,104.1L116,104.1z"/>
							</g>
						</g>
						<g>
							<g>
								<path class="st3" d="M115.8,110.3c-2.1-0.1-3.1,2-2.7,3.8c0.5,1.9,2.3,3,4.1,2.8c0.8-0.1,0.4-1.2-0.3-1.1
									c-1.1,0.1-2.1-0.6-2.6-1.6c-0.5-1.1-0.1-2.7,1.4-2.6C116.6,111.5,116.6,110.3,115.8,110.3L115.8,110.3z"/>
							</g>
						</g>
						<g>
							<g>
								<path class="st3" d="M119,90.4c2.3,0.7,0.8,3.4-0.3,4.4c-0.5,0.5,0.3,1.4,0.8,0.8c1-1,1.9-2.3,1.8-3.8
									c-0.1-1.2-0.9-2.2-2-2.6C118.6,89,118.3,90.2,119,90.4L119,90.4z"/>
							</g>
						</g>
						<g>
							<g>
								<path class="st3" d="M118.3,96.1c2.7,1.4,2.9,4.7,0.5,6.6c-0.6,0.5,0.2,1.3,0.8,0.8c2.9-2.3,2.5-6.7-0.8-8.5
									C118.3,94.7,117.7,95.7,118.3,96.1L118.3,96.1z"/>
							</g>
						</g>
						<g>
							<g>
								<path class="st3" d="M118.9,104.3c0.9,0.4,1.9,0.9,2.5,1.8c0.7,1.2,0.3,3-1.3,2.8c-0.8-0.1-0.8,1.1,0,1.2
									c1.7,0.2,3-1.3,2.9-2.9c-0.1-2-1.7-3.2-3.4-3.9C118.8,103,118.2,104,118.9,104.3L118.9,104.3z"/>
							</g>
						</g>
						<g>
							<g>
								<path class="st3" d="M119.2,110.8c2.3,0.6,3,3.1,1.7,5c-0.4,0.6,0.6,1.2,1,0.6c1.8-2.5,0.5-5.9-2.4-6.7
									C118.7,109.4,118.4,110.6,119.2,110.8L119.2,110.8z"/>
							</g>
						</g>
						<g>
							<g>
								<path class="st3" d="M116.5,117c-0.3,1.3-0.5,2.6-0.8,3.8c-0.1,0.3,0.1,0.6,0.4,0.7c1,0.3,1.7-0.4,2.2-1.2
									c0.5-0.7,0.8-0.9,1.4-0.2c0.3,0.3,0.6,0.7,1,0.9c0.7,0.3,1.3-0.7,0.6-1c-0.8-0.4-1.2-1.5-2.2-1.5c-0.5,0-0.9,0.2-1.2,0.5
									c-0.4,0.4-0.9,1.7-1.6,1.6c0.1,0.2,0.3,0.5,0.4,0.7c0.3-1.3,0.5-2.6,0.8-3.8C117.9,116.6,116.7,116.3,116.5,117L116.5,117z"
									/>
							</g>
						</g>
						<g>
							<g>
								<path class="st3" d="M119.5,116.2c0.2,1.7,0.7,3.2,1.6,4.6c0.4,0.6,1.4,0,1-0.6c-0.8-1.2-1.3-2.6-1.5-4
									C120.6,115.4,119.4,115.4,119.5,116.2L119.5,116.2z"/>
							</g>
						</g>
						<g>
							<g>
								<path class="st3" d="M70.1,66.4c10.1-8.3,20.8-16.2,29-26.5c0.5-0.6-0.4-1.4-0.8-0.8c-8.2,10.2-18.9,18.1-29,26.5
									C68.6,66,69.5,66.9,70.1,66.4L70.1,66.4z"/>
							</g>
						</g>
						<g>
							<g>
								<path class="st3" d="M69.9,66.2c-1.5-2.1-1.1-6.1-0.8-8.6c0.2-2.9,0.9-5.6,1.9-8.3c0.3-0.7-0.9-1-1.1-0.3
									c-1.2,3.2-1.9,6.5-2,9.9c-0.1,2.4-0.4,5.9,1.1,7.9C69.3,67.4,70.3,66.8,69.9,66.2L69.9,66.2z"/>
							</g>
						</g>
						<g>
							<g>
								<path class="st3" d="M79.2,87.7c-1.7,0-3.4,1.1-3.6,2.9c-0.2,1.7,1.1,3.2,2.8,3.3c0.8,0,0.8-1.1,0-1.2
									c-1-0.1-1.8-1.1-1.6-2.1c0.2-1.1,1.4-1.7,2.4-1.6C79.9,88.9,79.9,87.7,79.2,87.7L79.2,87.7z"/>
							</g>
						</g>
						<g>
							<g>
								<path class="st3" d="M78,93c-2.9,0.7-2.9,4.6-0.1,5.5c0.7,0.2,1-0.9,0.3-1.1c-1.7-0.5-1.5-2.8,0.1-3.2
									C79.1,94,78.7,92.8,78,93L78,93z"/>
							</g>
						</g>
						<g>
							<g>
								<path class="st3" d="M78.1,97.7c-1.3,0.6-2.6,1.6-2.7,3.1c-0.1,1.2,0.7,2.5,2,2.7c0.7,0.1,1.1-1,0.3-1.1
									c-0.9-0.1-1.3-1.1-1-2c0.3-0.9,1.2-1.4,2-1.7C79.4,98.4,78.8,97.4,78.1,97.7L78.1,97.7z"/>
							</g>
						</g>
						<g>
							<g>
								<path class="st3" d="M78,103c-1.4,0.2-2.6,1.2-2.7,2.6c-0.1,1.4,1,2.7,2.4,3c0.7,0.1,1.1-1,0.3-1.1c-1.9-0.4-2-3.1,0-3.3
									C78.8,104.1,78.8,102.9,78,103L78,103z"/>
							</g>
						</g>
						<g>
							<g>
								<path class="st3" d="M78.3,108.1c-1.6-0.1-3.4,1.7-3.4,3.3c-0.1,1.9,2.4,2.8,3.9,3.1c0.7,0.1,1.1-1,0.3-1.1
									c-0.9-0.2-2.2-0.5-2.8-1.3c-0.9-1.1,0.9-2.8,2-2.7C79.1,109.4,79.1,108.2,78.3,108.1L78.3,108.1z"/>
							</g>
						</g>
						<g>
							<g>
								<path class="st3" d="M79,114.1c-1.6-0.3-3.3,0.8-3.6,2.5c-0.2,1.8,1.3,3.2,3.1,3.2c0.8,0,0.8-1.2,0-1.2
									c-1,0-2.1-0.9-1.9-1.9c0.2-0.9,1.2-1.6,2.1-1.4C79.4,115.4,79.7,114.2,79,114.1L79,114.1z"/>
							</g>
						</g>
						<g>
							<g>
								<path class="st3" d="M82,119.7c1.3,0.2,3,0.1,3.2-1.6c0.1-1.7-1.2-3.2-2.6-4c-0.7-0.4-1.3,0.7-0.6,1
									c0.9,0.5,1.5,1.2,1.9,2.1c0.2,0.5,0.3,1.1-0.3,1.3c-0.4,0.1-0.9,0-1.3,0C81.6,118.4,81.3,119.5,82,119.7L82,119.7z"/>
							</g>
						</g>
						<g>
							<g>
								<path class="st3" d="M82.2,114.9c1.4-0.2,3.2-0.6,3.3-2.3c0.2-1.8-1.6-2.8-3.1-3.3c-0.7-0.3-1,0.9-0.3,1.1
									c0.9,0.3,2.2,0.9,2.2,2c0,1-1.3,1.2-2.1,1.3C81.4,113.8,81.4,115,82.2,114.9L82.2,114.9z"/>
							</g>
						</g>
						<g>
							<g>
								<path class="st3" d="M82,110.4c3.1-1,3.6-5,0.8-6.7c-0.7-0.4-1.2,0.6-0.6,1c1.9,1.2,1.6,3.9-0.5,4.6
									C80.9,109.5,81.2,110.6,82,110.4L82,110.4z"/>
							</g>
						</g>
						<g>
							<g>
								<path class="st3" d="M82.3,104.5c1.2-0.2,2-1.4,2-2.7c0-1.5-1.2-2.7-2.3-3.6c-0.6-0.5-1.4,0.4-0.8,0.8
									c0.7,0.5,1.4,1.1,1.8,1.9c0.4,0.9,0.2,2.1-0.9,2.3C81.2,103.5,81.5,104.6,82.3,104.5L82.3,104.5z"/>
							</g>
						</g>
						<g>
							<g>
								<path class="st3" d="M81.2,98.8c2.8-0.3,3.7-3.7,1.3-5.3c-0.6-0.4-1.2,0.6-0.6,1c1.3,0.9,0.9,2.9-0.7,3.1
									C80.4,97.6,80.4,98.8,81.2,98.8L81.2,98.8z"/>
							</g>
						</g>
						<g>
							<g>
								<path class="st3" d="M81.8,94.3c1-0.4,2.1-1,2.4-2.2c0.2-1-0.2-2.1-1.1-2.5c-0.7-0.3-1.3,0.7-0.6,1c0.5,0.2,0.7,0.8,0.5,1.4
									c-0.3,0.6-0.9,1-1.5,1.2C80.8,93.3,81.1,94.5,81.8,94.3L81.8,94.3z"/>
							</g>
						</g>
						<g>
							<g>
								<path class="st3" d="M79.5,88.8c1,0.3,1.8,0.8,2.5,1.5c0.5,0.5,1.4-0.3,0.8-0.8c-0.8-0.9-1.9-1.5-3-1.8
									C79.1,87.4,78.8,88.6,79.5,88.8L79.5,88.8z"/>
							</g>
						</g>
						<g>
							<g>
								<path class="st3" d="M115.7,91.8c1.1-0.8,2.2-1.4,3.4-2c0.7-0.3,0.1-1.4-0.6-1c-1.2,0.6-2.3,1.3-3.4,2
									C114.5,91.2,115.1,92.2,115.7,91.8L115.7,91.8z"/>
							</g>
						</g>
						<g>
							<g>
								<path class="st3" d="M78.8,121C78.8,121,78.9,121,78.8,121c0.3,0,0.5-0.2,0.6-0.4c0.1-0.2,0-0.4-0.1-0.6
									c-0.2-0.2-0.4-0.3-0.7-0.3c-1,0.2-1.1,1.9-1,2.7c0,0.3,0.5,0.5,0.7,0.4c1-0.3,1.9-0.8,2.7-1.6c0.5-0.6-0.3-1.4-0.8-0.8
									c-0.6,0.6-1.3,1.1-2.2,1.3c0.2,0.1,0.5,0.3,0.7,0.4c0-0.2,0-0.5,0-0.7c0-0.1,0.1-0.2,0.1-0.3c0-0.1,0.2-0.2,0.1-0.2
									c-0.2-0.1-0.4-0.2-0.7-0.3c0,0,0,0,0,0.1c0-0.2,0-0.3-0.1-0.5c0,0,0,0.1,0,0.1c0.2-0.1,0.4-0.3,0.6-0.4c0,0,0,0-0.1,0
									C78.1,119.8,78.1,121,78.8,121L78.8,121z"/>
							</g>
						</g>
						<g>
							<g>
								<path class="st3" d="M80.7,120.8c0.5,0.8,1.2,1.5,2,2c0.3,0.2,0.8,0,0.9-0.4c0.1-0.7-0.1-1.2-0.5-1.7
									c-0.3-0.5-0.9-0.9-0.8-1.6c0.1-0.8-1.1-0.8-1.2,0c-0.1,0.6,0.2,1.1,0.5,1.6c0.3,0.4,0.9,0.9,0.8,1.4
									c0.3-0.1,0.6-0.2,0.9-0.4c-0.7-0.4-1.2-0.9-1.6-1.6C81.3,119.5,80.3,120.1,80.7,120.8L80.7,120.8z"/>
							</g>
						</g>
						<g>
							<g>
								<path class="st3" d="M78.5,88c-1.1-0.1-1.8-1.3-1.3-2.3c0.3-0.7-0.7-1.3-1-0.6c-0.9,1.9,0.3,3.9,2.3,4.1
									C79.3,89.2,79.3,88,78.5,88L78.5,88z"/>
							</g>
						</g>
						<g>
							<g>
								<path class="st3" d="M120.5,90.3c0.3-0.5,0.5-1,0.6-1.6c0.1-0.8-1.1-0.8-1.2,0c0,0.4-0.2,0.7-0.4,1
									C119.1,90.3,120.1,90.9,120.5,90.3L120.5,90.3z"/>
							</g>
						</g>
						<g>
							<g>
								<path class="st3" d="M122.3,46.8c2.2,4.8,4.3,9,9.1,11.7c0.7,0.4,1.3-0.6,0.6-1c-4.6-2.6-6.5-6.7-8.6-11.3
									C123,45.5,122,46.1,122.3,46.8L122.3,46.8z"/>
							</g>
						</g>
						<g>
							<g>
								<path class="st3" d="M123.8,46.5c0-0.1,0-0.1,0-0.2c0-0.8-1.2-0.8-1.2,0c0,0.1,0,0.1,0,0.2
									C122.6,47.3,123.8,47.3,123.8,46.5L123.8,46.5z"/>
							</g>
						</g>
						<g>
							<g>
								<path class="st3" d="M132.4,57.7c0.3-4.5-2.1-9.8-4.7-13.4c-0.4-0.6-1.5,0-1,0.6c2.4,3.5,4.8,8.5,4.5,12.8
									C131.2,58.4,132.4,58.4,132.4,57.7L132.4,57.7z"/>
							</g>
						</g>
					</g>
				</g>
			</g>
		</g>
		<g>
			<g>
				<path class="st0" d="M84.5,46c3.8,0,3.8-6,0-6C80.6,40,80.6,46,84.5,46L84.5,46z"/>
			</g>
		</g>
		<g>
			<g>
				<path class="st1" d="M70.9,63c1.1-4.8,1.8-10.1,3.7-14.6c2.2-5,6-8.9,10.4-11.9c0.6-0.4,0-1.5-0.6-1c-4,2.8-7.6,6.1-9.9,10.4
					C71.7,51,71,57.1,69.7,62.7C69.6,63.4,70.7,63.8,70.9,63L70.9,63z"/>
			</g>
		</g>
		<g>
			<g>
				<path class="st1" d="M70.9,63.8c7.5-8,15.3-15.7,23.3-23.2c0.6-0.5-0.3-1.4-0.8-0.8C85.3,47.2,77.6,55,70,63
					C69.5,63.5,70.4,64.4,70.9,63.8L70.9,63.8z"/>
			</g>
		</g>
		<g>
			<g>
				<path class="st1" d="M102.6,38.1c4.9,3.5,11.8,4,17.6,4.7c0.8,0.1,0.8-1.1,0-1.2c-5.6-0.7-12.3-1.2-17-4.6
					C102.6,36.6,102,37.6,102.6,38.1L102.6,38.1z"/>
			</g>
		</g>
		<g>
			<g>
				<path class="st1" d="M79.2,90.4C79.2,90.4,79.2,90.4,79.2,90.4c0.4-0.7-0.6-1.3-1-0.6c-0.5,0.9,0.3,2,1.3,1.7
					C80.2,91.4,79.9,90.2,79.2,90.4L79.2,90.4z"/>
			</g>
		</g>
	</g>
	<g>
		<g>
			<path class="st1" d="M79.9,100.3c0.5,0.3,0.8,0.8,1,1.4c0.2,0.7,1.4,0.4,1.1-0.3c-0.3-0.9-0.8-1.6-1.6-2.1
				C79.9,98.8,79.3,99.9,79.9,100.3L79.9,100.3z"/>
		</g>
	</g>
	<g>
		<g>
			<path class="st1" d="M78.7,105.8c-0.1,0-0.2,0-0.3,0c-0.1,0.1-0.2,0.2-0.3,0.3c0.3,0,0.6-0.2,0.6-0.6c0-0.3-0.3-0.6-0.6-0.6
				c-0.6,0.1-1,0.6-0.9,1.2c0.2,0.7,0.9,0.9,1.5,0.9C79.5,107,79.5,105.8,78.7,105.8L78.7,105.8z"/>
		</g>
	</g>
	<g>
		<g>
			<path class="st1" d="M78.4,110c-0.7-0.2-1.3,0.3-1.4,1c0,0.7,0.6,1.2,1.3,1.4c0.7,0.2,1.1-0.9,0.3-1.1c-0.1,0-0.2-0.1-0.3-0.1
				c0,0-0.1,0-0.1-0.1c0-0.1-0.1-0.1-0.2,0.1C78.8,111.4,79.1,110.2,78.4,110L78.4,110z"/>
		</g>
	</g>
	<g>
		<g>
			<path class="st1" d="M117.3,114c-0.3,0-1.3-0.1-1.1-0.6c0.2-0.7-0.9-1.1-1.1-0.3c-0.4,1.3,0.9,2,2,2.1
				C117.7,115.3,118,114.1,117.3,114L117.3,114z"/>
		</g>
	</g>
	<g>
		<g>
			<path class="st1" d="M118.2,106.2c0.6,0.3,1.1,0.8,1.3,1.5c0.2,0.7,1.4,0.4,1.1-0.3c-0.3-0.9-0.9-1.7-1.8-2.2
				C118.1,104.8,117.5,105.8,118.2,106.2L118.2,106.2z"/>
		</g>
	</g>
	<g>
		<g>
			<path class="st1" d="M117,101.5c-0.2,0-0.4-0.2-0.3-0.4c0.2-0.7-0.9-1-1.1-0.3c-0.3,1,0.5,2,1.5,1.9
				C117.7,102.6,117.7,101.4,117,101.5L117,101.5z"/>
		</g>
	</g>
	<g>
		<g>
			<path class="st1" d="M117.8,95.2c0.7-0.8,1.2-1.6,1.5-2.6c0.2-0.7-0.9-1.1-1.1-0.3c-0.2,0.8-0.6,1.5-1.2,2.1
				C116.4,94.9,117.2,95.7,117.8,95.2L117.8,95.2z"/>
		</g>
	</g>
	<g>
		<g>
			<path class="st1" d="M117.7,116.5c-0.1,1-0.4,2-0.9,2.9c-0.4,0.7,0.7,1.3,1,0.6c0.6-1.1,0.9-2.3,1.1-3.5
				C119,115.7,117.8,115.8,117.7,116.5L117.7,116.5z"/>
		</g>
	</g>
	<g>
		<g>
			<path class="st0" d="M80.5,117.7c-0.3-0.1-0.6-0.2-0.9-0.3c-0.2,0.2-0.4,0.4-0.6,0.6c-0.1,0-0.2,0-0.4,0c0-0.2,0-0.4,0-0.6
				c0-0.3-0.1-0.5-0.3-0.7c-0.2,0.1-0.5,0.3-0.7,0.4c0.3-0.3,0.6-0.7,0.9-1c0.2,0,0.3,0,0.5,0c0.3-0.1,0.5-0.1,0.7-0.2
				c0.5-0.3,0.3-1.1-0.3-1.1c-1.1,0.1-1.6,1.1-1.1,2.1c0.2,0.3,0.5,0.6,0.7,0.9c0.3,0.6,0.2,1.3,0.2,1.9c0,0.3-0.1,1.2,0.5,1.1
				c0.2,0,0.7-1.6,0.8-1.8c-0.4,0-0.7,0.1-1.1,0.1c0.6,1.1,1.4,1.9,2.4,2.4c0.1-0.4,0.2-0.7,0.3-1.1c-0.3-0.2-0.5-0.5-0.6-0.8
				c0.2-0.5,0.5-0.6,0.9-0.4c0.3,0,0.6,0.2,0.9,0.1c0.5-0.1,0.9-0.5,1-1c0.4-1.6-1.8-2.7-2.8-3.4c-0.6-0.5-1.2,0.6-0.6,1
				c0.5,0.4,1.2,0.7,1.6,1.1c0.3,0.3,0.8,0.8,0,1c-0.1,0-0.4-0.1-0.6-0.1c-0.6-0.1-1.2,0.1-1.5,0.7c-0.6,1.2,0.3,3,1.6,3
				c0.6,0,0.8-0.8,0.3-1.1c-0.9-0.5-1.5-1.1-2-2c-0.3-0.5-0.9-0.3-1.1,0.1c-0.3,0.7-1.3,2.1-0.7,2.9c0.3,0.5,1,0.5,1.5,0.1
				c0.2-0.2,0.3-0.4,0.4-0.7c0.2-0.6,0.1-1.5,0.1-2.1c0-0.4,0-0.8-0.1-1.2c-0.1-0.2-1.2-1.7-1-1.7c-0.1-0.4-0.2-0.7-0.3-1.1
				c-0.7,0.3-1.4,0-1.9,0.6c-0.4,0.4-0.5,1.1-0.4,1.6c0.2,0.9,1.5,1.9,2.2,0.8c0.6-1-0.6-2.1-1.6-1.7c-1,0.4-1,2,0,2.4
				c1,0.4,2.1-0.6,1.8-1.7c-0.4-1-1.9-1.3-2.4-0.3c-0.5,0.9,0.5,2,1.4,1.6c1.1-0.4,0.7-1.8-0.2-2.1c-0.3-0.1-0.7,0.1-0.7,0.4
				c-0.2,1,1.1,3.1,2.3,2c0.9-0.9-0.6-2-1.3-1.1c-0.8,1,0.8,2.5,1.9,1.9c1.4-0.7,0.2-2.5-1-2.5c-0.3,0-0.6,0.3-0.6,0.6
				c0.1,2,3,1.9,2.7,0c-0.1-0.6-0.8-1.2-1.5-1c-1,0.2-0.6,1.4-0.2,1.9C79.8,119,80.9,118.4,80.5,117.7L80.5,117.7z"/>
		</g>
	</g>
</g>
</svg>
