<svg id="Layer_1" data-name="Layer 1" xmlns="http://www.w3.org/2000/svg" viewBox="0 0 72.55 69.42"><defs><style>.cls-1{fill:#ffe329;}.cls-2{fill:#f9ee53;}</style></defs><title>Blond</title><path class="cls-1" d="M119.4,90.7c-.7.2-.8.6-1.4.8-.1,0-.1.1-.1.2h0a1.42,1.42,0,0,0-.6-.2c-1.7.6-3.7.8-5.4,1.3a.68.68,0,0,0-.4.8.62.62,0,0,0,.6.4,17.23,17.23,0,0,0,2.1-.7.63.63,0,0,0,.4-.8.66.66,0,0,0-.5-.4h-.7l.3,1.1c3-1.3,5.9-2.8,8.7-4.3l-.6-1a19.24,19.24,0,0,1-3.1,1.8c-.6.3-.2,1.2.5,1.1,2.5-.4,4.8-2.7,6.8-4.1.6-.4,0-1.5-.6-1-1.9,1.3-4.2,3.5-6.5,3.9l.5,1.1c1.1-.6,2.1-1.2,3.1-1.8a.61.61,0,0,0,0-.8.73.73,0,0,0-.6-.2c-2.8,1.6-5.8,3-8.7,4.3-.6.3-.2,1.1.3,1.1h.7l-.2-1.2a17.23,17.23,0,0,1-2.1.7l.3,1.1c1.2-.4,2.4-.7,3.7-1a10.74,10.74,0,0,1,1.8,0c.8-.2,1.2-1,2-1.2a.55.55,0,0,0,.3-.8.85.85,0,0,0-.6-.2Z" transform="translate(-64.26 -26.12)"/><path class="cls-1" d="M80.7,50.2a11.41,11.41,0,0,1,1.1-1.1L73.6,41l-1.3,1.8c-4.1,5.6,4.7,11.9,9.4,7.3a63.74,63.74,0,0,1,5.9-5.7,41.13,41.13,0,0,1,8-4.3c2.9-1.3,3.6-5.6,2.1-8.1-1.8-3-5.2-3.5-8.2-2.1C83,32.8,78.2,36.7,73.2,41.7l9.3,7.2,1.3-1.8c3.4-4.7-3.5-11.7-8.2-8.2a26.62,26.62,0,0,0-5.3,5.3c-1.9,2.6-.4,6.7,2.1,8.2,3.2,1.7,6.4.4,8.3-2.2Z" transform="translate(-64.26 -26.12)"/><path class="cls-1" d="M95.4,32.9c-.2-.3,1.1-1.3,1.3-1.6a3.81,3.81,0,0,0,.8-1.7,2.83,2.83,0,0,0-1.3-2.9l-.8,2.8a24.56,24.56,0,0,1,7.1,1.7c1.6.5,2.3-1.4,1.4-2.5a6.45,6.45,0,0,0-2.8-1.8c-1.8-.7-2.6,2.2-.8,2.9a3.07,3.07,0,0,1,1.5,1l1.4-2.5a26.7,26.7,0,0,0-7.9-1.8A1.54,1.54,0,0,0,93.8,28a1.39,1.39,0,0,0,.7,1.2c-.4-.3-1.9,1.9-2.1,2.4a2.87,2.87,0,0,0,.2,2.7c1.1,1.8,3.7.3,2.8-1.4Z" transform="translate(-64.26 -26.12)"/><path class="cls-1" d="M73.4,86.2l2.7,2.9L78.2,87a32.46,32.46,0,0,1-3.5-3.9l-.9,2.2c-.6.1.7,1.2.9,1.5.6.7,1.2,1.3,1.8,1.9A36.49,36.49,0,0,0,81,91.9V89.3c-.6.4-2.3-.2-2.9-.3l-.8,2.9a25,25,0,0,1,2.6.7c1.8.6,2.6-2.3.8-2.9a19.73,19.73,0,0,0-2.6-.7c-1.9-.3-2.7,2.4-.8,2.9,1.4.4,3.9,1,5.2,0a1.58,1.58,0,0,0,.5-2.1,1.21,1.21,0,0,0-.5-.5A23.59,23.59,0,0,1,77,84.8c-1-1.1-2.3-2.8-4-2.4a1.54,1.54,0,0,0-1,1.9c0,.1.1.2.2.4a33.11,33.11,0,0,0,3.9,4.5,1.46,1.46,0,0,0,2.1-.2,1.39,1.39,0,0,0,0-1.9l-2.7-2.9c-1.3-1.5-3.4.6-2.1,2Z" transform="translate(-64.26 -26.12)"/><path class="cls-1" d="M73.3,89.3a35.42,35.42,0,0,0,3.5,4.2l1.8-2.3c-3.6-2.7-6.4-3.9-8-8.7A17.92,17.92,0,0,1,70.7,70l-2.9-.8c-.5,3-1,6.1,0,9.1,1.1,3.4,3.7,6.1,5,9.6l2.7-1.2a39.92,39.92,0,0,1-2.7-4.4c-.8-1.7-3.4-.2-2.6,1.5a14.27,14.27,0,0,0,3.3,4.7c1,1,3.1,0,2.5-1.4a61.92,61.92,0,0,1-3-10.4l-2.7,1.2a23,23,0,0,1,1.8,7.4l2.9-.4a54.74,54.74,0,0,1-2.4-18h-3l.5,6.5h3c-.8-7.6,1.7-14.4,4.5-21.3.6-1.6-2-2.6-2.7-1.2L71.3,58l2.8.8a14.63,14.63,0,0,1,1.2-7.1c.6-1.6-1.9-2.6-2.7-1.2L70,55.1l2.8.8a16.79,16.79,0,0,1,.7-5,1.49,1.49,0,0,0-1.1-1.8,1.66,1.66,0,0,0-1.6.6l-1.1,1.6,2.7,1.2a49.87,49.87,0,0,0,.7-5.4,1.54,1.54,0,0,0-1.5-1.5,1.45,1.45,0,0,0-.7.2c-3.5,2.4-4.3,8.2-4.7,12.1-.8,7.2.3,14.5.5,21.7l2.9-.4a27.05,27.05,0,0,1,2.6-24.7l-2.7-1.2L66.9,66.6l2.9.4a26.37,26.37,0,0,1,2-7.8l-2.9-.4a36.82,36.82,0,0,1-.8,5.8L71,65a6.8,6.8,0,0,1,1.5-4.7l-2.8-.8a36.73,36.73,0,0,1-1.1,7.4l2.9.4a20.53,20.53,0,0,1,1-4.8l-2.9-.8-1.9,8.4,2.9.4a19.68,19.68,0,0,0-1.3-6.3c-1-3.2-1.9-4.8.5-7.7C71,55,73.3,53,75.3,53l-1.5-1.5c.1,1.5-.5,1.8.1,3.1a1.6,1.6,0,0,0,1.4,1.1c2.4-.1,4.4-2.6,6.2-4.1l-2.1-2.1-1.9,2.1c-1.1,1.2.3,3.4,1.8,2.3,2.4-1.7,4.7-3.5,6.9-5.3L84,47l-2.1,2.3,1.8,2.3A61.33,61.33,0,0,1,90.5,46l-1.8-2.3-3.2,3.1c-1.2,1.1.4,3.3,1.8,2.4L96,43l-1.8-2.3A20.26,20.26,0,0,1,89.8,44l2.2.9c-.2-1,6.8-5.3,7.9-6.4l-2.1-2.1-4,4.2c-1.1,1.2.4,3.4,1.8,2.3a79.13,79.13,0,0,0,8.5-6.8c1.5-1.3-.6-3.3-2.1-2.1l-2.3-.3a1.51,1.51,0,0,0,.8,2.9c4.4-1.3,1.1-7-2.2-4.3a3,3,0,0,0-.3,4.1l.2.2c1.8,2,4.1.9,5.9-.5L102,34c-2.6,2.2-5.2,4.3-7.9,6.3l1.8,2.3,4-4.2a1.46,1.46,0,0,0-.2-2.1,1.39,1.39,0,0,0-1.9,0c-3,2.8-9.5,4.4-8.7,9.3a1.46,1.46,0,0,0,1.9,1c.1,0,.2-.1.3-.1a25.89,25.89,0,0,0,5-3.7c1.2-1.2-.4-3.3-1.8-2.3l-8.8,6.1,1.8,2.3,3.2-3.1c1.2-1.1-.4-3.3-1.8-2.3a85.53,85.53,0,0,0-7.4,6.1c-1.2,1.1.4,3.3,1.8,2.3a11.17,11.17,0,0,0,3.2-3.3c1-1.5-1.1-2.8-2.3-1.8a75.71,75.71,0,0,1-6.3,4.9L79.7,54l1.9-2.1a1.46,1.46,0,0,0-.2-2.1,1.39,1.39,0,0,0-1.9,0c-.6.5-3.3,3.2-4.1,3.2l1.4,1.1a17.65,17.65,0,0,1,0-2.3,1.54,1.54,0,0,0-1.5-1.5c-3.6-.1-7.4,3.4-9.1,6.4-3,5.2,1.3,8.8,1.3,14a1.42,1.42,0,0,0,1.6,1.4,1.38,1.38,0,0,0,1.3-1l1.9-8.4a1.49,1.49,0,0,0-1.1-1.8,1.4,1.4,0,0,0-1.7,1,34.67,34.67,0,0,0-1.1,5.6c-.2,1.7,2.5,2,2.9.4a37.76,37.76,0,0,0,1.2-8.2A1.54,1.54,0,0,0,71,58.2a1.39,1.39,0,0,0-1.2.7,12.21,12.21,0,0,0-1.9,6.2,1.54,1.54,0,0,0,1.5,1.5,1.39,1.39,0,0,0,1.4-1.1,37.39,37.39,0,0,0,.9-6.6c.1-1.8-2.3-1.8-2.9-.4a31,31,0,0,0-2.1,8.6c-.2,1.7,2.6,2,2.9.4l2.6-13.3a1.49,1.49,0,0,0-1.1-1.8,1.66,1.66,0,0,0-1.6.6,30,30,0,0,0-2.9,27c.6,1.5,3,1.4,2.9-.4-.2-5.2-.8-10.4-.8-15.6,0-4-.2-13.1,3.6-15.7L70,46.9a17.59,17.59,0,0,1-.6,4.6,1.45,1.45,0,0,0,.9,1.9,1.56,1.56,0,0,0,1.8-.7l1-1.6L70.4,50a36.82,36.82,0,0,0-.8,5.8,1.54,1.54,0,0,0,1.5,1.5,1.39,1.39,0,0,0,1.2-.7L74.8,52l-2.7-1.2a16.49,16.49,0,0,0-1.3,7.9,1.52,1.52,0,0,0,2.8.8l3.7-7.2-2.7-1.2c-2.9,7.2-5.4,14.3-4.6,22.1.2,1.9,3.1,1.9,3,0l-.5-6.5a1.5,1.5,0,0,0-3,0h0A59.67,59.67,0,0,0,72,85.5c.5,1.5,3.1,1.3,2.9-.4a26.49,26.49,0,0,0-2.2-8.8c-.7-1.6-3-.4-2.7,1.2a61.92,61.92,0,0,0,3,10.4l2.5-1.4a14.57,14.57,0,0,1-2.9-4.1L70,83.9a20,20,0,0,0,2.7,4.4c.9,1.3,3.3.6,2.7-1.2a30.22,30.22,0,0,0-3.2-6.5C70.2,77,70,74.2,70.7,70a1.49,1.49,0,0,0-1.1-1.8,1.4,1.4,0,0,0-1.7,1,21.3,21.3,0,0,0,.4,15.7,16.33,16.33,0,0,0,2.8,5.2c1.7,2,3.9,2.2,6,3.7,1.4,1,2.9-1.2,1.8-2.3a26,26,0,0,1-3-3.6c-1.1-1.6-3.7-.1-2.6,1.4Z" transform="translate(-64.26 -26.12)"/><path class="cls-1" d="M132,51.8a11.73,11.73,0,0,0-6.2-8,1.54,1.54,0,0,0-2.1.6.37.37,0,0,0-.1.3c-1,3.5,2.3,8.7,3.5,11.9.6,1.5,3,1.4,2.9-.4q-.15-4.35-.6-8.7l-2.8.8a38.64,38.64,0,0,1,1.9,5.4c.4,1.6,3.1,1.3,2.9-.4l-.7-7-2.8.8a14,14,0,0,1,1.3,3.4,1.58,1.58,0,0,0,1.9,1,1.45,1.45,0,0,0,1-1.7l-1.3-6.6-2.7,1.1a31.32,31.32,0,0,1,3.3,9.3c.3,1.7,3,1.3,2.9-.4-.2-3.2-.6-6.2-2.2-9a1.52,1.52,0,0,0-2.8.8,91,91,0,0,1-.4,20.2h3a38.26,38.26,0,0,0-1-5.9,1.45,1.45,0,0,0-1.9-.9,1.38,1.38,0,0,0-1,1.3v3.7h3a27.43,27.43,0,0,0-.9-7c-.5-1.9-3.2-1.1-2.9.8a26.85,26.85,0,0,0,1.7,5.7,1.45,1.45,0,0,0,1.9.9,1.38,1.38,0,0,0,1-1.3l.6-5.5-2.9.4,1.2,5.8a1.48,1.48,0,0,0,2.9-.4,58.46,58.46,0,0,1,.4-5.9h-2.9l.8,4.4c.3,1.6,3,1.3,2.9-.4-.1-2.2-.2-4.4-.2-6.6l-2.9.4c1.6,6.3,1,11.6-1.1,17.7-.8,2.3-1.6,4.5-2.4,6.8-.3.9-2.8,6.2-1,3.6.8-1.4,1.5-2.9,2.2-4.4a1.5,1.5,0,0,0-2.6-1.5l-1.6,2.8,2.6,1.5c3-5.6,3.3-11.6,3-17.8l-2.5,1.1c1.4,1.7,1.1,4.7,1,6.8s2.8,1.9,3,0a46.71,46.71,0,0,1,.8-5.2l-2.9-.4-.2,6.8c-.1,1.9,2.9,1.9,3,0l.4-6.9c.1-1.8-2.4-1.9-2.9-.4l-.1.1a1.53,1.53,0,0,0,.7,1.7l.2.1a1.55,1.55,0,0,0,2-.5,31.91,31.91,0,0,0,1.1-3.3l-2.9-.8c-.6,3.8.8,7.4.4,11.3-.1,1.7,2.6,2.1,2.9.4l.8-4.6c.3-1.8-2.4-2.7-2.9-.8-.4,1.6-.1,2.7-.2,4.3a16.8,16.8,0,0,1-2.1,6.9c-2.2,4.6-6.3,9.6-11.6,10.5l1.4,2.5a30.11,30.11,0,0,0,5.7-6.6c.9-1.4-1.2-3.1-2.3-1.8-.9,1-1.3,2.4-2.2,3.4s-2.6,1.9-3.8,3c-1.4,1.3.7,3.4,2.1,2.1,1.2-1.1,2.7-1.7,3.8-2.8s1.2-2.4,2.2-3.5L123.4,85a27.06,27.06,0,0,1-5.2,6c-1.2,1.1.1,2.7,1.4,2.5,5-.9,9.1-4.9,11.8-9.1a31.46,31.46,0,0,0,3.5-7.7c.7-2.4,0-4.7.6-7.1l-2.9-.8-.8,4.6,2.9.4c.3-3.5-1.1-7-.5-10.5a1.49,1.49,0,0,0-1.1-1.8,1.4,1.4,0,0,0-1.7,1,7.86,7.86,0,0,0-.8,2.6l2-.5-.2-.1.7,1.7.1-.1-2.9-.4-.3,6.8h3l.2-6.8c0-1.7-2.6-2.1-2.9-.4q-.6,3-.9,6h3c.2-3.2.2-6.3-1.9-8.9a1.45,1.45,0,0,0-2.1,0,1.28,1.28,0,0,0-.4,1c.3,5.7.2,11.2-2.6,16.3a1.49,1.49,0,0,0,.6,2,1.54,1.54,0,0,0,1.9-.5l1.6-2.8-2.6-1.5c-1,2-5.6,7.8-3.4,10.1,1.8,1.9,4.6-.8,5.6-2.3,2.9-4,4.3-10.4,5.6-15.1a28.3,28.3,0,0,0-.1-15.8,1.45,1.45,0,0,0-1.9-.9,1.38,1.38,0,0,0-1,1.3c0,2.2.1,4.4.2,6.6l2.9-.4-.9-4.4a1.53,1.53,0,0,0-2.9,0c-.3,2.2-.5,4.4-.6,6.7l2.9-.4-1.2-5.8c-.4-1.8-2.8-1.2-2.9.4l-.6,5.5,2.9-.4a26.85,26.85,0,0,1-1.7-5.7l-2.9.8a25.7,25.7,0,0,1,.8,6.2,1.5,1.5,0,1,0,3,0h0V59.6l-2.9.4a22.77,22.77,0,0,1,.9,5.1,1.5,1.5,0,0,0,3,0,98.3,98.3,0,0,0,.4-20.3l-2.8.8c1.4,2.4,1.6,4.8,1.8,7.5l2.9-.4a32.39,32.39,0,0,0-3.6-10c-.8-1.6-3-.4-2.7,1.2l1.3,6.7,2.9-.8a29,29,0,0,0-1.6-4.1c-.6-1.3-2.9-.7-2.8.8l.7,7,2.9-.4a45.69,45.69,0,0,0-2.2-6.2c-.6-1.3-2.9-.7-2.8.8q.45,4.35.6,8.7l2.9-.4c-.8-2.1-4.1-8.1-3.5-10.3l-2.2.9a9.05,9.05,0,0,1,4.9,6.2c.9,1.6,3.8.8,3.2-1Z" transform="translate(-64.26 -26.12)"/><path class="cls-1" d="M107.8,34.5l-.1.4,1.4-1.1a23.39,23.39,0,0,1-3.8-.9l-.8,2.9a10.52,10.52,0,0,1,5.5,2.9l1.1-2.5a17.49,17.49,0,0,1-6.8-1.7c-1.2-.5-2,.8-1.8,1.8l.2,1.2,1.8-1.8a12.74,12.74,0,0,0-2.8-.2,1.71,1.71,0,0,0-1.3.7c-1.2,2.4.2,4,2.6,4.6a1.49,1.49,0,0,0,1.8-1.1,1.4,1.4,0,0,0-1-1.7l-3.2-1c-1.8-.6-2.6,2.3-.8,2.9a28.46,28.46,0,0,1,5.1,2l1.1-2.7a27.27,27.27,0,0,1-4.1-1l-.8,2.8,8.4,2.7c1.8.5,2.6-2.3.8-2.9l-3.2-1a1.49,1.49,0,0,0-1.4,2.5c2.1,2.2,5.5,2.1,8.3,2.5l.4-2.9h-2.3a1.49,1.49,0,0,0-1.8,1.1,1.4,1.4,0,0,0,1,1.7c3.8,1.5,8,.1,11.6,1.9l1.5-2.6L111,38.3c-1.7-.7-3.3,1.8-1.5,2.6l3.3,1.6,1.2-2.7a29.24,29.24,0,0,1-7.5-3.2l-1.2,2.7c2.1.8,4.2,1.8,6.2,2.8l1.5-2.6a48,48,0,0,1-5.4-3.2L106.5,39a26.14,26.14,0,0,1,8.6,2.7,1.49,1.49,0,0,0,2-.6,1.54,1.54,0,0,0-.5-1.9,43.81,43.81,0,0,1-6.2-5.2l-1.8,2.3a33.47,33.47,0,0,0,10.9,5.3c1.6.4,2.7-1.9,1.2-2.7a33.58,33.58,0,0,1-6-4.1l-1.8,2.3c3.2,2.2,6.5,4.3,9.8,6.3,1.6,1,3.1-1.5,1.5-2.6a57.26,57.26,0,0,1-6.3-4.7l-1.8,2.3,8.5,6.1c1.4,1,3-1.2,1.8-2.3a37.59,37.59,0,0,0-6-4.5c-1.2-.7-2.9.8-2,2a22.8,22.8,0,0,1,2,3.8l2-2c-1.6-1-3.1-2-4.6-3.1s-3.1,1.3-1.8,2.3a28.3,28.3,0,0,0,5.1,3.4,1.53,1.53,0,0,0,2-.7,1.48,1.48,0,0,0,0-1.3,24.9,24.9,0,0,0-3.7-5.8l-1.8,2.3,9.2,6.8c1.4,1,3-1.2,1.8-2.3-1.9-1.8-3.7-3.6-5.5-5.5l-1.7,2.3a16.79,16.79,0,0,1,5.8,4.8l2.1-2.1a21.19,21.19,0,0,1-3.8-4.7l-2,2a21.59,21.59,0,0,1,4.1,3.9l2.1-2.1a7.56,7.56,0,0,1-2.3-2.4l-2.3,1.8,2.7,2.1c1.2.9,3.5-.3,2.3-1.8a26.23,26.23,0,0,0-7.4-6.7c-1.7-1-3.1,1.5-1.5,2.6l4.6,3.1c1.4,1,3.1-1.2,1.8-2.3L125,35.8l-1.5,2.5-.7-.7,1.4-1.9c-5.1-.6-10.1-1.4-15.1-2.5l-6.3-1.5-3.2-.9c-3.6-1.4-3.1-1.2,1.7.5l1.3-2.2a32.4,32.4,0,0,1-4.4-.2c-1.7-.1-2,2.6-.4,2.9l5.1,1,.8-2.9a10.18,10.18,0,0,1-4.1-1.2l-.8,2.8a28.16,28.16,0,0,1,7.7,2c1.6.6,2.7-2,1.2-2.7a21.22,21.22,0,0,1-3.6-2.1l-1.2,2.7,8.8,2.8c1.9.6,2.5-2.2.8-2.9l-9.1-3.8v2.9c3.5-.9,6.8.6,9.9,1.8s6.5,1.9,8.6,4.4l1.1-2.5a23,23,0,0,1-9.2-2.5l-1.2,2.7a46.87,46.87,0,0,1,7.2,3.3l1.1-2.7c-4.2-1-8-2.3-12.3-1.5-2.8.5-5.4.3-8.2.6-2.1.3-3.9,1.3-5.9,1.9-4.3,1.3-8.8,1.1-13.2,2.6a32.69,32.69,0,0,0-11.6,6.6l2.5,1.5C76,36.3,84.9,32.9,94.9,30l-1.2-2.7c-2.5,1.2-5.1,2.4-7.5,3.8-1.2.7-5,3.9-6.1,3.5l1.1,1.5a4.94,4.94,0,0,1,3.2-2.6c1.7-.8.2-3.4-1.5-2.6-2,1-4.9,2.6-4.7,5.2a1.5,1.5,0,0,0,1.1,1.4c2.1.8,3.8-1,5.5-2.1a93.51,93.51,0,0,1,10.4-5.5c1.6-.7.4-3.2-1.2-2.7C83,30.3,73.5,34.5,69.4,46c-.5,1.5,1.5,2.4,2.5,1.5a30.52,30.52,0,0,1,13.4-6.8c3.4-.9,6.8-.6,10.1-1.7,2.3-.7,4.2-1.8,6.6-1.9,1.6-.1,3.1.3,4.7,0,2.7-.4,4.7-1.1,7.5-.6,2,.4,4,.9,6,1.4,1.6.4,2.7-1.9,1.2-2.7a62,62,0,0,0-7.9-3.6c-1.6-.6-2.7,2-1.2,2.7A26.68,26.68,0,0,0,123,37.2c1.4.1,1.8-1.6,1.1-2.5-2.5-3-6.4-3.9-10-5.2-3.9-1.4-7.4-2.9-11.5-1.8-1.6.4-1.3,2.3,0,2.9l9.1,3.8.8-2.9-8.8-2.8a1.5,1.5,0,0,0-1.2,2.7,33.54,33.54,0,0,0,3.6,2.1l1.2-2.7a31.14,31.14,0,0,0-8.5-2.1,1.54,1.54,0,0,0-1.5,1.5,1.39,1.39,0,0,0,.7,1.2,20.56,20.56,0,0,0,4.8,1.5c1.8.3,2.7-2.5.8-2.9l-5.1-1-.4,2.9c1.5.1,2.9.2,4.4.2a1.54,1.54,0,0,0,1.5-1.5,1.45,1.45,0,0,0-.2-.7c-2.1-3.1-8.9-4.6-10.4-.1a1.67,1.67,0,0,0,.4,1.5c2.7,3.1,8.8,3.7,12.5,4.6a172,172,0,0,0,17.7,3,1.54,1.54,0,0,0,1.5-1.5.6.6,0,0,0-.1-.4,2,2,0,0,0-1.4-1.4c-1.4-.3-2.6,1.5-1.4,2.5l2.6,2.3,1.8-2.3L122.4,35l-1.5,2.6a22.53,22.53,0,0,1,6.4,5.5l2.3-1.8-2.7-2.1c-1.2-1-3.4.3-2.3,1.8a15.84,15.84,0,0,0,2.8,3,1.46,1.46,0,0,0,2.1-.2,1.39,1.39,0,0,0,0-1.9,28.15,28.15,0,0,0-4.7-4.4c-1.2-.9-2.8.8-2,2a27,27,0,0,0,4.3,5.3c1.4,1.4,3.3-.6,2.1-2.1a19.35,19.35,0,0,0-6.4-5.3,1.49,1.49,0,0,0-2,.6,1.51,1.51,0,0,0,.2,1.7c1.8,1.9,3.6,3.8,5.5,5.5l1.8-2.3-9.2-6.8c-1.4-1.1-2.8,1.1-1.8,2.3a28.5,28.5,0,0,1,3.3,5.2l2-2a22.05,22.05,0,0,1-4.5-3l-1.8,2.3c1.5,1.1,3,2.1,4.6,3.1,1.4.9,2.6-.8,2-2a27.54,27.54,0,0,0-2-3.8l-2,2a41.87,41.87,0,0,1,5.4,4l1.8-2.3-8.5-6.1c-1.4-1-3.1,1.3-1.8,2.3a55.78,55.78,0,0,0,6.9,5.1l1.5-2.6c-3.3-2-6.6-4.1-9.8-6.3-1.4-1-3.1,1.2-1.8,2.3a33.43,33.43,0,0,0,6.6,4.5l1.2-2.7a30.32,30.32,0,0,1-10.2-5c-1.4-1-3,1.2-1.8,2.3a46.68,46.68,0,0,0,6.8,5.7l1.5-2.6a30.69,30.69,0,0,0-9.3-3,1.54,1.54,0,0,0-2,.8,1.46,1.46,0,0,0,.8,2c1.8,1.2,3.6,2.2,5.4,3.2s3.2-1.7,1.5-2.6c-2.2-1.2-4.6-2.2-6.9-3.2-1.6-.6-2.6,1.9-1.2,2.7a34.93,34.93,0,0,0,8.2,3.5c1.6.4,2.7-2,1.2-2.7l-3.3-1.6-1.5,2.6,13.3,5.6c1.7.7,3.3-1.7,1.5-2.6-3.9-2-8.3-.6-12.3-2.2l-.8,2.9a8.1,8.1,0,0,0,3.1.1c1.5-.2,2.2-2.6.4-2.9s-5.6-.3-7-1.8l-1.4,2.5,3.2,1,.8-2.9c-2.8-.8-5.6-1.7-8.4-2.6-1.8-.6-2.6,2.3-.8,2.9a27.46,27.46,0,0,0,4.1,1.1c1.5.3,2.8-1.9,1.2-2.7a41.16,41.16,0,0,0-5.8-2.3l-.8,2.9,3.2,1,.8-2.9-.1.6a1.49,1.49,0,0,0,1.8-1.1.85.85,0,0,0,0-.7l-.2-1.2L103.6,37a24.81,24.81,0,0,0,7.6,1.8,1.54,1.54,0,0,0,1.5-1.5,1.78,1.78,0,0,0-.4-1,12.69,12.69,0,0,0-6.8-3.7,1.49,1.49,0,0,0-1.8,1.1,1.4,1.4,0,0,0,1,1.7c1.5.4,3.1,1.2,4.6,1a1.5,1.5,0,0,0,1.4-1.1l.1-.4c.6-1.3-2.3-2.1-3-.4Z" transform="translate(-64.26 -26.12)"/><path d="M71.5,89.3C63,79,64.8,60.6,68.8,48.8c2.3-6.8,5.3-12.7,11.6-16.3a36.54,36.54,0,0,1,21.2-5.1.6.6,0,1,0,0-1.2,37.27,37.27,0,0,0-21.8,5.3c-6.1,3.5-9.2,8.9-11.6,15.4-4.6,12.5-6.7,32.2,2.4,43.3C71.2,90.8,72,89.9,71.5,89.3Z" transform="translate(-64.26 -26.12)"/><path d="M69.3,88.8a22,22,0,0,0,10.2,6.7c.5.2.9-.4.7-.9-5.6-11-8.4-26.2-3.3-37.8.3-.7-.7-1.3-1-.6-5.3,12.1-2.5,27.6,3.3,39l.7-.9a21.75,21.75,0,0,1-9.7-6.4c-.5-.5-1.3.3-.9.9Z" transform="translate(-64.26 -26.12)"/><path d="M72.2,57c5.4-.4,10.6-4.6,15.2-7.3C93,46.5,98.2,43,102.4,38c.5-.6-.3-1.4-.8-.8A49,49,0,0,1,88.3,47.8c-4.5,2.7-10.7,7.5-16,8C71.5,55.9,71.5,57.1,72.2,57Z" transform="translate(-64.26 -26.12)"/><path d="M77.1,56.7a1.9,1.9,0,0,1,.7-1.1c.6-.5-.3-1.3-.8-.8a2.75,2.75,0,0,0-1,1.6.57.57,0,1,0,1.1.3Z" transform="translate(-64.26 -26.12)"/><path d="M78.9,93.4c3.6.8,6.7,1.8,10.4,1.9a.6.6,0,1,0,0-1.2c-3.6-.1-6.7-1.1-10.1-1.8a.57.57,0,0,0-.3,1.1Z" transform="translate(-64.26 -26.12)"/><path d="M101,27.5c7.2.7,14.7,2.1,20.8,6.3,6.8,4.7,11,10.5,12.8,18.5a63,63,0,0,1,.1,23.7c-1.3,8-8.7,16.1-17.2,16.6l.4,1c4.3-5.1,7.1-11.6,9.3-17.8,2.5-7.1,1.7-13.9.1-21.1-.2-.8-1.3-.4-1.2.3,1.5,7,2.3,13.6-.1,20.5-2.1,6-4.9,12.4-9,17.4-.3.4-.1,1.1.4,1,6.8-.4,14-6,17-12.1,1.6-3.4,1.8-8.1,2.1-11.8a58.67,58.67,0,0,0-.3-14.5c-1.4-9.5-5-15.9-12.6-21.7-6.5-5-14.8-6.7-22.8-7.5-.6-.1-.6,1.1.2,1.2Z" transform="translate(-64.26 -26.12)"/><path d="M111.4,94.2a11.74,11.74,0,0,0,5.8-1.3c.7-.3.1-1.4-.6-1a10.39,10.39,0,0,1-5.2,1.1c-.7.1-.7,1.3,0,1.2Z" transform="translate(-64.26 -26.12)"/><path d="M100,40.5a46.46,46.46,0,0,0,14.4,5.4c2,.4,4.1.2,6.1.7,4.1,1,4.3,5,5.5,8.5.2.7,1.4.4,1.2-.3-.9-2.9-1.3-7.9-4.1-9.3-1.1-.6-3.8-.1-5.1-.2a35.47,35.47,0,0,1-6.5-1.2,46.53,46.53,0,0,1-10.8-4.5.68.68,0,0,0-.8.4c-.1.1,0,.3.1.5Z" transform="translate(-64.26 -26.12)"/><path class="cls-1" d="M90.7,37.9l-.1-.3a6,6,0,1,0-11.5,3.1l.1.3a6,6,0,1,0,11.5-3.1Z" transform="translate(-64.26 -26.12)"/><path class="cls-2" d="M73.4,53.5A114.24,114.24,0,0,0,96,38.4c.6-.5-.3-1.3-.8-.8A114.85,114.85,0,0,1,72.8,52.5c-.7.3-.1,1.3.6,1Z" transform="translate(-64.26 -26.12)"/><path class="cls-2" d="M75.7,89.3C72,87,69.3,81.1,68.4,77a38.94,38.94,0,0,1,.1-16.3.62.62,0,1,0-1.2-.3A40.31,40.31,0,0,0,67.7,79c1.2,4.1,3.8,9.1,7.5,11.3.6.5,1.2-.6.5-1Z" transform="translate(-64.26 -26.12)"/><path class="cls-2" d="M104.4,39.1c1.9,1.4,4.6,1.9,6.8,2.5a24.84,24.84,0,0,0,7.7.6c.8-.1.8-1.3,0-1.2-4.1.5-10.5-.3-13.9-2.8-.6-.6-1.2.4-.6.9Z" transform="translate(-64.26 -26.12)"/><path class="cls-2" d="M73.1,45.8c2.1-6.6,10.6-11.7,16.6-14.1.7-.3.4-1.4-.3-1.1C83,33.2,74.2,38.4,72,45.5c-.3.7.9,1,1.1.3Z" transform="translate(-64.26 -26.12)"/><path class="cls-1" d="M80,89.9l1.8,1v-1c-1,.5-1.8.4-2.4,1.4a.52.52,0,0,0,.2.8.1.1,0,0,1,.1.1l1.1.2V91.3l-.9.2a.62.62,0,0,0-.2,1.2l1.5.3.2-1.2a3.81,3.81,0,0,1-1.5-.1l-.2,1.2,1.2.1.2-1.2-.8-.2-.2,1.2,3.1.4V92l-1.8-.1v1.2a9.42,9.42,0,0,1,2.9.1V92.1a16.2,16.2,0,0,1-2.2.1c-.7-.1-.8,1.1-.2,1.2l2.2.3.2-1.2a8.75,8.75,0,0,1-1.6-.2l-.2,1.2c1.7,0,3.3.2,4.9.3l-.2-1.2a6.13,6.13,0,0,1-3,.2c-.7-.1-1.1,1-.3,1.2a13.81,13.81,0,0,0,2,.3c.7,0,.8-1.1.2-1.2l-.3-.1-.2,1.1,3.6.3a.65.65,0,0,0,.6-.6.37.37,0,0,0-.1-.3,3.68,3.68,0,0,0-2.2-1.4,34.86,34.86,0,0,1-5.3-2.2l-.6,1A13.77,13.77,0,0,1,84,92.3l.4-1a7.11,7.11,0,0,1-2.1-.3L82,92.2l1.8.4c.7.2,1.1-1,.3-1.2a7.22,7.22,0,0,1-2-.9l-.5,1.1a4.07,4.07,0,0,1,1.8.5l.5-1.1-2.4-.8c-.7-.3-1,.9-.3,1.2l2.3.9V91.2a4.42,4.42,0,0,1-2,.2c-.7-.1-.8,1-.2,1.2l2,.4.2-1.2L81,91.7c-.7,0-.8,1.1-.2,1.2l2.2.4.2-1.2h-2a.65.65,0,0,0-.6.6.46.46,0,0,0,.4.5c.6.1,1.2.3,1.8.4s1.1-1,.3-1.2l-1.3-.3-.3,1.2,2.2.4a.62.62,0,0,0,.3-1.2l-2.2-.4c-.7-.2-1.1,1-.3,1.2l1.3.3.3-1.2a11.63,11.63,0,0,1-1.8-.4l-.2,1.2h2a.63.63,0,0,0,.2-1.2l-2.2-.4V93l2.5.1a.65.65,0,0,0,.6-.6.46.46,0,0,0-.4-.5l-2-.4-.2,1.2a4.45,4.45,0,0,0,2.3-.3.57.57,0,0,0,.4-.7.78.78,0,0,0-.4-.4l-2.3-.9-.3,1.2,2.4.8a.55.55,0,0,0,.8-.3.63.63,0,0,0-.3-.8,6.49,6.49,0,0,0-2.1-.7.57.57,0,0,0-.7.4.45.45,0,0,0,.3.6,6.25,6.25,0,0,0,2.2,1l.3-1.1-1.8-.5c-.3-.1-.6.2-.7.5a.67.67,0,0,0,.4.7,6.9,6.9,0,0,0,2.5.4c.5,0,.8-.7.4-1a9.19,9.19,0,0,0-2.7-1.6c-.7-.3-1.3.7-.6,1L85,92.6c1.1.5,3.1.7,3.7,1.6l.5-.9L85.6,93c-.7-.1-.8,1.1-.2,1.2l.3.1.2-1.2a5,5,0,0,1-1.7-.2l-.3,1.2a7.28,7.28,0,0,0,3.6-.2.63.63,0,0,0,.4-.8.66.66,0,0,0-.5-.4,40.28,40.28,0,0,0-4.9-.3.65.65,0,0,0-.6.6.46.46,0,0,0,.4.5l1.9.3c.7,0,.8-1.1.2-1.2l-2.1-.3-.2,1.2a11.33,11.33,0,0,0,2.6-.1.57.57,0,0,0,.4-.7.78.78,0,0,0-.4-.4,11.26,11.26,0,0,0-3.2-.2.54.54,0,0,0-.5.7.47.47,0,0,0,.5.5l1.8.1c.8,0,.7-1.1,0-1.2l-3.1-.4c-.7-.1-.8,1-.2,1.2a4.25,4.25,0,0,0,1.1.2c.7.1.8-1.1.2-1.2a7.57,7.57,0,0,0-1.5-.1.65.65,0,0,0-.6.6.46.46,0,0,0,.4.5,11,11,0,0,0,1.8.2.63.63,0,0,0,.2-1.2L80,91.4l-.2,1.2a5.85,5.85,0,0,0,1.3-.2.64.64,0,0,0,0-1.2L80,91.1l.4.9c.3-.6,1.4-.7,2-1a.55.55,0,0,0,.2-.8c0-.1-.1-.1-.2-.2l-1.8-1a.68.68,0,0,0-.8.4.76.76,0,0,0,.2.5Z" transform="translate(-64.26 -26.12)"/><path class="cls-2" d="M122.7,90.3c7.5-7.6,13.7-16.2,12.2-27.4-.1-.8-1.3-.8-1.2,0,1.4,10.8-4.7,19.3-11.9,26.6-.5.5.4,1.3.9.8Z" transform="translate(-64.26 -26.12)"/></svg>