<?xml version="1.0" encoding="utf-8"?>
<!-- Generator: Adobe Illustrator 22.1.0, SVG Export Plug-In . SVG Version: 6.00 Build 0)  -->
<svg version="1.1" id="Layer_1" xmlns="http://www.w3.org/2000/svg" xmlns:xlink="http://www.w3.org/1999/xlink" x="0px" y="0px"
	 viewBox="0 0 200 600" style="enable-background:new 0 0 200 600;" xml:space="preserve">
<style type="text/css">
	.st0{fill:none;stroke:#908FB2;stroke-miterlimit:10;}
	.st1{fill:#908FB2;}
	.st2{fill:#908FB2;stroke:#908FB2;stroke-miterlimit:10;}
	.st3{fill:#FFFFFF;}
	.st4{fill:#9076B2;}
</style>
<g>
	<line class="st0" x1="106.4" y1="109.3" x2="118.5" y2="106.9"/>
	<line class="st0" x1="108.6" y1="105.2" x2="117" y2="107.2"/>
	<line class="st0" x1="120.5" y1="110.3" x2="118.5" y2="106.2"/>
	<line class="st0" x1="111.5" y1="105.7" x2="123.6" y2="106.6"/>
	<line class="st0" x1="108.1" y1="109.3" x2="120.5" y2="106.5"/>
	<line class="st0" x1="72.9" y1="107.1" x2="89.1" y2="106"/>
	<ellipse class="st1" cx="76.4" cy="118.8" rx="18.8" ry="12.2"/>
	<rect x="148.3" y="271.7" class="st2" width="1.7" height="4.4"/>
	<rect x="156.2" y="272.9" class="st2" width="3.3" height="3.3"/>
	<rect x="155" y="271.1" class="st2" width="1.9" height="5.9"/>
	<rect x="148.9" y="273" class="st2" width="5.6" height="4"/>
	<rect x="147.7" y="266.3" class="st2" width="11.7" height="6.7"/>
	<g>
		<g>
			<g>
				<path class="st3" d="M109.5,131.1l-0.1-0.1c0.3,0.4,0.6,0.8,0.9,1.2c0,0,0-0.1-0.1-0.1c0.2,0.5,0.4,1,0.6,1.4
					c0-0.1-0.1-0.2-0.1-0.3c0.1,0.5,0.1,1.1,0.2,1.6c0-0.1,0-0.2,0-0.3c-0.1,0.5-0.1,1.1-0.2,1.6c0-0.1,0-0.2,0.1-0.3
					c-0.2,0.5-0.4,1-0.6,1.4c0-0.1,0.1-0.2,0.2-0.2c-0.3,0.4-0.6,0.8-0.9,1.2l0.1-0.1c-0.4,0.3-0.8,0.6-1.2,0.9
					c0.1-0.1,0.2-0.1,0.3-0.2c-0.5,0.2-1,0.4-1.4,0.6c0.1,0,0.2-0.1,0.3-0.1c-0.5,0.1-1.1,0.1-1.6,0.2c0.1,0,0.2,0,0.3,0
					c-0.5-0.1-1.1-0.1-1.6-0.2c0.2,0,0.3,0.1,0.5,0.1c-0.5-0.2-1-0.4-1.4-0.6c0.1,0,0.2,0.1,0.3,0.2c-0.4-0.3-0.8-0.6-1.2-0.9
					c0.1,0.1,0.3,0.2,0.4,0.4c-0.3-0.4-0.6-0.8-0.9-1.2c0.1,0.2,0.2,0.3,0.3,0.5c-0.2-0.5-0.4-1-0.6-1.4c0.1,0.2,0.1,0.3,0.1,0.5
					c-0.1-0.5-0.1-1.1-0.2-1.6c0,0.1,0,0.2,0,0.3c0.1-0.5,0.1-1.1,0.2-1.6c0,0.2-0.1,0.3-0.1,0.5c0.2-0.5,0.4-1,0.6-1.4
					c0,0.1-0.1,0.2-0.2,0.3c0.3-0.4,0.6-0.8,0.9-1.2c-0.1,0.1-0.2,0.2-0.3,0.3c-1.1,0.9-1.8,2.9-1.8,4.2c0,1.5,0.7,3.2,1.8,4.2
					c1.1,1,2.6,1.8,4.2,1.8c0.5-0.1,1.1-0.1,1.6-0.2c1-0.3,1.9-0.8,2.6-1.5c2.1-1.7,2.8-5,2.1-7.4c-0.8-2.7-2.7-4.6-5.4-5.6
					c-3.1-1.1-6.5,0.3-8.2,3c-1.8,2.7-1.2,6.2,0.9,8.5c1,1.1,2.8,1.8,4.2,1.8c1.5,0,3.2-0.7,4.2-1.8s1.8-2.6,1.8-4.2
					C111.2,133.7,110.7,132.3,109.5,131.1L109.5,131.1z"/>
			</g>
		</g>
		<g>
			<g>
				<path class="st3" d="M103.3,128.8c-0.1,0-0.1-0.1-0.2-0.1c0.5,0.2,1,0.4,1.4,0.6c-0.1,0-0.1-0.1-0.2-0.1
					c0.4,0.3,0.8,0.6,1.2,0.9c-0.1-0.1-0.1-0.1-0.2-0.2c0.3,0.4,0.6,0.8,0.9,1.2c-0.1-0.1-0.2-0.3-0.2-0.4c0.2,0.5,0.4,1,0.6,1.4
					c0-0.1,0-0.1-0.1-0.2c0.1,0.5,0.1,1.1,0.2,1.6c0-0.2,0-0.3,0-0.5c-0.1,0.5-0.1,1.1-0.2,1.6c0-0.2,0.1-0.3,0.1-0.5
					c-0.2,0.5-0.4,1-0.6,1.4c0.1-0.2,0.2-0.3,0.3-0.4c-0.3,0.4-0.6,0.8-0.9,1.2c0.1-0.1,0.2-0.2,0.4-0.4c-0.4,0.3-0.8,0.6-1.2,0.9
					c0.3-0.2,0.6-0.4,1-0.6c-0.5,0.2-1,0.4-1.4,0.6c0.2-0.1,0.4-0.1,0.6-0.2c-0.5,0.1-1.1,0.1-1.6,0.2c0.2,0,0.4,0,0.6,0
					c-0.5-0.1-1.1-0.1-1.6-0.2c0.1,0,0.2,0,0.2,0.1c-0.5-0.2-1-0.4-1.4-0.6c0.2,0.1,0.3,0.1,0.5,0.2c-0.4-0.3-0.8-0.6-1.2-0.9
					c0.2,0.2,0.4,0.3,0.5,0.6c-0.3-0.4-0.6-0.8-0.9-1.2c0.1,0.1,0.2,0.3,0.3,0.5c-0.2-0.5-0.4-1-0.6-1.4c0.1,0.2,0.1,0.3,0.1,0.5
					c-0.1-0.5-0.1-1.1-0.2-1.6c0,0.3,0,0.5,0,0.8c0.1-0.5,0.1-1.1,0.2-1.6c0,0.2-0.1,0.4-0.2,0.5c0.2-0.5,0.4-1,0.6-1.4
					c-0.2,0.4-0.3,0.7-0.6,1c0.3-0.4,0.6-0.8,0.9-1.2c-0.2,0.2-0.4,0.4-0.6,0.6c-2.3,2.1-2.3,6.4,0,8.5c2.5,2.3,6,2.3,8.5,0
					c2.4-2.2,3.7-5.6,2.9-8.8c-0.9-3.5-4-6.2-7.7-6.2c-3.6,0-7.2,2.5-8.4,5.9c-0.6,1.9-0.4,4,0.5,5.8c1,1.8,2.5,2.8,4.4,3.5
					c3,1.1,6.7-1.2,7.4-4.2C108.3,132.8,106.5,129.9,103.3,128.8L103.3,128.8z"/>
			</g>
		</g>
		<g>
			<g>
				<path class="st1" d="M99,147.4c-2.1-0.6-4.1-1.2-6.2-1.8c0.9-1.2,1.8-2.3,2.8-3.5c2.1,3.1,3.2,3.8,3.2,1.8
					c0.1-0.7,0.2-1.4,0.5-1.9c0.2-0.4,0.4-0.8,0.6-1.2c-3.6,0.4-3.3-0.2,0.7-1.8c0.2-0.5-0.3-1.8-0.3-2.5c0-1.2,0.2-2.5,0.6-3.7
					c0.1-0.3,0.8-2.4,1.7-2.3c0.9,0.1,1.7,2.1,1.7,2.8c-0.2,2.8-1.8,0.4-3.1,1.5c0.9,0.9,1.7,1,2.4,0.3c0.6-0.4,1.2-0.7,1.9-0.9
					c1.2-0.3,2.2-0.4,3.2,0.5c1.2,1,2.2,5.3,0.8,6.4c-0.8,0.7-3,0.4-4,0.1c-0.7-0.1-1.3-0.4-1.8-0.8c-0.5-0.5-0.9-0.4-1.4,0.3
					c-2.3-1.2-1-3.1-3-0.4c-0.8,1.2-1.8,2.1-3,2.9c-3.2,2.2-11.2,4.5-13.4-0.2c-0.2-0.4-0.2-2.3-0.3-2.4c-1.9-1.6-2.8,0.9-3.7,1.7
					c-1.2,1-6.3,1.6-6.5,1.5c2.5,0.4,0.6-0.5-0.8-0.7c-6.1-1-8.8,4.2-8.5,9.2c0.3,5.7,3.1,11,7.5,14.7c1.4-3.3,2.8-6.6,4.2-9.9
					c0.7,6.9,3,7.8,6.9,2.7c0.5-0.8,1.1-1.6,1.9-2.1c1.3-5.9-6.3-3.1-8.2-3c-1.6,0.2-11,0.2-10.3-2.8c1.5-6.4-7.3-10.2-11-4.5
					c-0.4,0.6-0.8,1.2-1.2,1.8c3.7,1,7.5,1.9,11.2,2.9c0.6-5.7,1.2-11.5,1.8-17.2c0.4-3.7,0.2-11.5,4.6-13.2
					c7.2-2.9,4.5-12.3-3.2-11.3c-0.6,0.1-1.2,0.2-1.7,0.2c1.5,3.6,3.1,7.1,4.6,10.7c3.3-2.2,6-2,9.8-1.8c1.9,0.1,7.3-1.5,8.8-0.3
					c-1-1.7-2-3.4-3-5.1c0.1,1.2-5.1,6.5-6.6,8c-2.7,2.6-5.8,4.9-9.1,6.6c-3.2,1.7-5.5,2.9-7.2,6.1c-1.9,3.5-4.1,8.1-4.1,12.1
					c-0.1,7.6,11.4,7.4,12,0c0.4-4.6,2.3-9,4.6-12.9c1.1-1.9,2.8-3,4-4.8c2.9-0.6,2.2-1.9-2.3-4.1c-1.7,0.6-2.1,0.7-1.2,0.2
					c1.2,0.9,2.4,1.8,3.6,2.7c-0.1-0.3-0.3-0.7-0.4-1c0.2,1.5,0.4,3,0.6,4.5c0.4-2.6,4.9-6.3,7.7-6.7c1.9-0.2,1.8-0.7,2.1,1.7
					c0.2,1.6-1.6,4.1-1.3,5.1c1.3,5.4,5.8-0.8,6.8-1.5c0.8-0.5,1.5-1,2.4-1.3c2.1-0.3,1.7-1.1-1.2-2.4c1.4,2.9,2.3,3.4,2.6,1.3
					c0.4-0.8,0.9-1.6,1.5-2.1c0.6-0.7,1.3-1.2,2.1-1.6c1.6-0.5,1.6-0.6-0.1-0.5c-1.2-0.9-2.4-1.8-3.6-2.7c-0.1-0.2-0.1-0.4-0.2-0.6
					c-1.7,1.4-1.2,2.1,1.5,2.3c1.1,1.2,2.2,1.4,3.3,0.7c0.6,0,0.9-0.1,0.8-0.4c-1.2-0.9-2.4-1.8-3.6-2.7c1,1.4,1.2,3.6,1.7,5.3
					c2.9-2.2,5.9-4.4,8.8-6.6c-1.7-1.1-3.5-2-5.2-3.1c-0.8-0.5-1.6-1.2-2.3-1.8c-1.3-2.2-3.5-1.8-6.6,1.2c-0.6-1.4-1.2-2.7-1.8-4.1
					c0,0.4-0.1,0.9-0.1,1.3c0.6-1.4,1.2-2.7,1.8-4.1c1.1,0,2.1,0,3.2,0c0.9,1.2,1.8,2.3,2.8,3.5c0-0.2-0.1-0.3-0.1-0.5
					c-0.2,1.5-0.4,3-0.6,4.5c-0.4,0.6-0.9,1.1-1.6,1.3c-0.1,3.8,3.9,6.6,7.6,5.6c1.8-0.5,3.6-1,5.4-1.6c4.1-1.2,6.1-6.7,2.6-9.7
					c-1.6-1.4-3.2-2.7-4.8-4.1c-1.9,3.2-3.9,6.5-5.8,9.7c4.2,1.5,8.4,2.1,12.9,2.3c4.2,0.2,8.5-0.4,11.3,3c4.3,5.3,12.7-1.5,9.4-7.1
					c-0.3-0.5-0.6-1-0.9-1.6c-3.1,2.3-6.3,4.7-9.4,7.1c1.2,1.4,2.1,2.8,2.7,4.5c1.7,4.2,8.5,6.3,11,1.4c0.2-0.5,0.5-1,0.7-1.4
					c-3.7-1-7.5-1.9-11.2-2.9c-0.2,4.4,0.2,8.7,1.1,12.9c1.5,6.8,11.2,4.6,11.8-1.6c0.2-1.8,0.2-3.3,0.1-5.1c-0.4-7.5-11.8-7.6-12,0
					c-0.1,2.5,1.1,9.3-1.1,11.3c-2.4,2.2-7-0.7-8.9-2c-1.8-1.3-6.7-4.9-6.4-7.3c0.3-1.9-0.2,1,0.8,0c0.9,0.8,1.9,0.2,2.8-1.7
					c-0.9-1.6-1.2-1.8-0.8-0.6c-0.6,1.4-1.2,2.7-1.8,4.1c2.3-2.8,4.5-3.1,5.3,0.8c0.2,1-0.6,3.7,0.8,2.6c1-0.8,0.2-2.1,0.2-3.6
					c0-0.6,0.3-1.2,0.7-1.7c-0.3-0.2-0.7-0.5-1-0.7c0.2,1.3,0.5,1.8,0.5,3.3c0.1,3.3-0.8,6.4-2.1,9.5c-2.9,7,8.7,10,11.6,3.1
					c3.1-7.4,5-20.4-3.3-25.6c-8.8-5.5-18,3.5-18.5,12c-0.5,8.4,7.2,18.9,16.7,14.3c8.9-4.3,7.7-17.4,2.2-23.9
					c-3-3.6-7.5-5.2-12.2-4.2c-4.2,0.9-9.8,4-11,8.3c-2.8,9.3,12,18.4,19.2,11.3c6.5-6.5,1.1-16.9-6.9-19.1
					c-10.3-2.7-17.7,6.8-14.4,16.1c3.2,9,14.6,17.4,24.4,17.3c4.7-0.1,9.7-2.3,12.3-6.2c3.4-5,2.6-11.8,2.8-17.4c-4,0-8,0-12,0
					c0.1,1.8,0,3.3-0.1,5.1c3.9-0.5,7.9-1.1,11.8-1.6c-0.7-3.3-0.9-6.4-0.7-9.8c0.3-5.6-8.6-8.2-11.2-2.9c-0.2,0.5-0.5,1-0.7,1.4
					c3.7,0.5,7.3,1,11,1.4c-1.5-3.7-3.2-6.6-5.8-9.6c-4.5-5.2-12.7,1.5-9.4,7.1c0.3,0.5,0.6,1,0.9,1.6c3.1-2.3,6.3-4.7,9.4-7.1
					c-7.2-8.8-19.9-5.1-29.5-8.4c-5.6-1.9-10.2,5.9-5.8,9.7c1.6,1.4,3.2,2.7,4.8,4.1c0.9-3.2,1.8-6.5,2.6-9.7
					c-1.8,0.5-3.6,1-5.4,1.6c2.5,1.8,5.1,3.8,7.6,5.6c0.3-9.3-11.1-16.1-18.8-9.3c-8.4,7.3,5,16.5,11.7,8.9
					c7.3-8.3-7.3-17.5-12.9-8.3c-5.8,9.4,5.7,16.7,12.6,20.9c4.5,2.7,10.1-1.8,8.8-6.6c-1.4-5.5-3-11.8-10.1-11.2
					c-6.2,0.5-13,5.1-13.7,11.4c-0.6,5.2,3.3,10.2,8.9,10.4c6.5,0.1,11.6-6.8,11.9-12.7c0.3-6.6-5.7-9.6-11.6-7.6
					c-5.4,1.8-10,6.4-11.8,11.8c-1.8,5.4-0.4,11.5,5.7,13.3c5.5,1.7,11.6-1.5,14.2-6.3c2.8-5.2,0.9-12.1-5-14.1
					c-5.7-1.9-12.4,1.6-16.5,5.4c-3.8,3.5-7,9.1-5.4,14.3c2.1,6.7,10.6,8,15.7,3.7c8.2-6.9,8.4-25.2-4.2-27.7
					c-9-1.8-27.7,9.4-22.8,20c6.7,14.3,32-7.8,16.4-15c-7-3.2-14.6,2-18.5,7.5c-4.4,6.2-7.3,13.8-7.9,21.4c4,0,8,0,12,0
					c0-2.9,2.1-6.6,4.7-7.8c3.2-1.4,6.2-3.7,8.8-5.8c5-4.1,10.3-9.6,12.8-15.6c3-7.3-4.1-10.8-10.6-10.3c-7.9,0.5-15.5-0.7-22.4,3.9
					c-5.9,3.9-2,11.6,4.6,10.7c0.6-0.1,1.2-0.2,1.7-0.2c-1.1-3.8-2.1-7.5-3.2-11.3c-7.3,2.9-11.2,8.7-12.4,16.3
					c-1.4,8.4-1.9,17-2.8,25.5c-0.6,6.1,8.3,7.4,11.2,2.9c0.4-0.6,0.8-1.2,1.2-1.8c-3.7-1.5-7.3-3-11-4.5
					c-3.7,16.1,19.7,21.8,31.2,15.3c5.9-3.3,8.3-11.9,2-16.2c-6.1-4.3-12.9,1.5-15.7,6.7c-3.2,5.7-1.3,14.1,6.3,14.7
					c7.2,0.7,11.8-7.6,8-13.3c-3.8-5.6-12.3-5.5-16.6-0.6c-4.6,5.3-1.6,13.9,6.1,13.5c4.8-0.2,8.4-6.5,4.2-9.9
					c-1.3-1.1-5.2-5.7-4.3-7c-1.7,1-3.5,1.9-5.2,2.9c-1.8,0.1,1.4,0.5,1.9,0.6c0.9,0.2,1.8,0.2,2.7,0.2c2.3-0.2,4.6-1.2,6.4-2.7
					c3.6-3.2,4.5-8.8,3-13.2s-6-7.9-11-6.7c-5.3,1.3-7.8,7.4-7,12.2c1.7,11.1,17,11.4,23.3,4c6.4-7.4,1.2-21.9-10.1-19.4
					c-11,2.5-9.9,17-3.2,23.1c7.5,6.7,19.5,5.5,27.3,0.2c6.7-4.7,14.9-16.9,4.5-22.5c-9.5-5.2-20.4,5.4-15.3,14.7
					c4.5,8.3,18.9,11.1,25.8,4.1c7.1-7,4.2-20.7-4.4-25.3c-8.6-4.7-22.5,1.3-23.7,11.1c-1.3,11.1,13.3,14.2,21.1,9.1
					c8.5-5.6,5.8-19.4-2.6-23.9c-10.7-5.6-19,4.6-20,14c-0.5,4.7,0.2,9.8,3.9,13.2c3.4,3.1,8.9,4,12.9,1.8c9.7-5.4,3.4-19.2-6.3-20
					c-11.3-0.9-16.7,18.2-8.2,24.3c4.3,3.1,10.8,2.1,13.7-2.4c3.2-5,0.3-11.8-5.7-12.8c-5.6-0.9-10.5,4.2-9.1,9.5
					c1.3,5,7.5,6.9,11.7,4.1c4.9-3.3,3.6-9.7-0.8-12.9c-4.9-3.5-12.4-1.1-13.4,5.1C86.2,151.7,97.8,154.9,99,147.4L99,147.4z"/>
			</g>
		</g>
		<g>
			<g>
				<g>
					<path class="st1" d="M46.7,272.3c-0.9-0.2-1.8-0.3-2.7,0c-0.8,0.2-1.8,1.5-2.5,1.5c0.4,0.5,0.8,1,1.2,1.5c0-0.1,0-0.1,0.1-0.2
						c-0.3,0.3-0.6,0.6-0.8,0.8c-0.4-0.2-0.7-0.4-1.1-0.6c0.4-0.5,0.8-1,1.2-1.5c-0.3,0-0.6-0.1-0.9-0.1c-1.3-0.1-1.5,1.6-0.6,2.2
						c1.1,0.8,2.2,0.5,3.5,0.5c1.8,0,3.5,0.9,5.2,1c3.9,0.4,3-3.8,3.1-6.5c0-1.5-2.4-1.5-2.4,0c0,1.1,0.2,2.5-0.1,3.6
						c-0.2,0.9,0.2,0.5-0.7,0.5c-0.6,0-1.1-0.3-1.7-0.4c-0.8-0.2-1.6-0.5-2.5-0.5c-0.9-0.1-2.4,0.3-3.2-0.2
						c-0.2,0.7-0.4,1.5-0.6,2.2c0.3,0,0.6,0.1,0.9,0.1c0.8,0.1,1.3-0.8,1.2-1.5c-0.3-1.6-2.3-1.4-2.8,0c-0.3,0.7,0.4,1.6,1.2,1.5
						c1.8-0.2,2.7-2.1,4.6-1.6C47.5,275,48.2,272.6,46.7,272.3L46.7,272.3z"/>
				</g>
			</g>
			<g>
				<g>
					<g>
						<path class="st1" d="M103.6,161.8c-0.3,0.1-0.6,0.2-0.9,0.4c1.5-0.2,3.1-0.4,4.6-0.6c0.8,0.1,1.1,0.6,1.8,0.6
							c0.8-0.1,2-1,2.7-1.4c2.4-1.1,4.9-1.9,7.4-2.6c1.6-0.4,5.7-0.4,6.8-1.3c1.4,0.1,1.3-0.4-0.4-1.6c-0.7-1.8-1.2-2-1.6-0.8
							c-0.6,0.3-2,2.7-2.5,3.2c-4,4.1-0.7,9.6,4.2,10.2c6.3,0.8,10.2-5.8,12.9-10.5c3-5.4,5-11.2,5.9-17.3c-3.3,0.9-6.7,1.8-10,2.6
							c0.2,0.3,0.4,0.7,0.6,1c3.9-0.5,7.9-1.1,11.8-1.6c-0.5-2.1-1-4.2-1.4-6.3c-1.6-7-11.2-4.7-11.8,1.6
							c-1.3,13.1-0.1,26.1,1.2,39.1c3.7-1,7.5-2,11.2-3c-1.6-2.9-3.1-5.8-4.3-9c-2.8-7.2-13-4.5-11.6,3.2c1,5.2,2.2,10.3,3.7,15.4
							c1.2,4.1,2.7,8.7,7.3,10c11.4,3.2,10.6-11.9,9.6-18.5c-3.9,1.1-7.7,2.1-11.6,3.2c0.4,1.1,0.7,2.2,0.8,3.3
							c3.9-0.5,7.9-1.1,11.8-1.6c-0.8-4.3-1.6-8.6-2.4-12.8c-3.7,1.5-7.3,3.1-11,4.6c0,0.3,0.1,0.7,0.1,1c3.9-0.5,7.9-1.1,11.8-1.6
							c-1.2-7.6-2.3-15.2-3.5-22.8c-3.7,1.5-7.3,3.1-11,4.6c0.6,1.4,0.8,2.7,0.8,4.2c3.9-0.5,7.9-1.1,11.8-1.6
							c-0.6-2.3-1.2-4.6-1.5-7c-3.7,1-7.5,2-11.2,3c2.1-2.5,2.2-3.6,0.3-3.3c-1,0-2.1-0.1-3.1-0.2c-1.6-0.1-3.1-0.4-4.7-0.4
							c-3.9,0-7.5,1-10.5,3.5c-6,5-9.4,14.3-12.5,21.2c3.7,1,7.5,2,11.2,3c0-5.2,3-10,2.9-15.2c0-4.8-4.6-7.9-9.1-6.7
							c-4,1.1-7.1,5-10.1,7.6c-0.5,0.4-2.4,1.5-2.8,2c-1,0.3-0.8,0.6,0.4,1c1.2,1.1,1.5,0.7,0.9-1.2c0.6-2.8,0.6-5.5,1.6-8.3
							c-3.9,0-7.7,0-11.6,0c0.3,1.2,0.4,2.2,0.2,3.4c-0.1,0.5-1.4,3-1.3,3.1c1.4,0.7,2.9,1.3,4.3,2c0-0.4,0-0.9,0-1.3
							c0.8-1.5,0.7-2.3,2-3.6c-3.3-0.9-6.7-1.8-10-2.6c-0.2,0.9-0.5,1.6-1.1,2.3c-1.4,1.4-1.2,1.7,0.7,0.9c-1.3,0-2.8-0.8-4.2-0.8
							c-3.4,0-6.2,1.4-8.8,3.5c-2.2,1.8-1.9,5-0.9,7.3c4.1,9.4,7.9,18.9,13.1,27.7c3,5,11.3,3,11.2-3c-0.1-5.8-1.3-12.9,0-18.5
							c-3.7,0.5-7.3,1-11,1.4c1.6,2.1,3.1,4.3,4.1,6.8c0.4,1,0.7,2,1,3s0.1,3.7,1.4,2.6c1.4-0.6,2.8-1.2,4.2-1.8
							c0.3,0-0.9-2.9-1-3.5c-0.1-0.8,0.3-1.7,0.1-2.4c0.1-0.4,0.2-0.7,0.3-1.1c-1.3-0.9-1.6-0.8-1,0.2c-0.2,1.5,1.7,5,2,6.7
							c0.5,2.7,0.6,5.4,0.5,8.1c2.5-1.9,5.1-3.9,7.6-5.8c0.9,0.4-0.2-2.1-0.1-3.4c0.1-1,0.3-2,0.6-2.9c-3-2.3-4.1-2.3-3.1-0.2
							c-0.5,1.7,0.5,4.7,0.3,6.6c-0.2,2.2-0.9,4.3-1.7,6.3c3.7-0.5,7.3-1,11-1.4c-1.7-4-1-9,1.7-12.4c-3.3-0.9-6.7-1.8-10-2.6
							c1.3,3.5-0.5,9.4-1,13c-1.1,7.4,9.8,10.9,11.6,3.2c1.2-5.3,2.9-10.2,5.3-15.1c-3.7-1.5-7.3-3.1-11-4.6
							c-1.2,6.2-2.2,12.4-2.3,18.8c0,6.7,10.1,8.2,11.8,1.6c1.9-7.3,4.4-14.3,7.8-21c-3.7-1-7.5-2-11.2-3c-0.2,3.1-0.8,6.1-1.6,9.1
							c3.9,1.1,7.7,2.1,11.6,3.2c1.2-5,2.9-9.7,5.4-14.2c-3.7-0.5-7.3-1-11-1.4c-0.1,0.5-0.1,1-0.2,1.5c-1.7,7.5,9.2,10.6,11.6,3.2
							c0.4-1.3,0.8-2.5,1.2-3.8c-3.9-1.1-7.7-2.1-11.6-3.2c-0.8,3.6-1.3,7.2-1.5,10.9c-0.5,6.7,10.6,8.3,11.8,1.6
							c0.4-2.6,0.9-5.2,1.3-7.8c1.3-7.5-9.3-10.7-11.6-3.2c-1.6,5.4-2.5,10.9-2.8,16.5c-0.3,6.7,10.6,8.3,11.8,1.6
							c0.3-1.9,0.7-3.8,1-5.7c-3.9-1.1-7.7-2.1-11.6-3.2c-0.8,5.3-1.5,10.7-2.3,16c-0.9,6.2,7.5,11.2,11,4.6c1-1.9,1.5-3.4,1.4-5.6
							c0-7.9-11.1-7.5-12,0c-0.4,3.1-0.8,6.1-1.1,9.2c-0.9,7.6,11.1,7.6,12,0c0.4-3.1,0.8-6.1,1.1-9.2c-4,0-8,0-12,0
							c0.1-0.2,0.1-0.3,0.2-0.5c3.7,1.5,7.3,3.1,11,4.6c0.8-5.3,1.5-10.7,2.3-16c1.1-7.5-10.2-10.9-11.6-3.2c-0.3,1.9-0.7,3.8-1,5.7
							c3.9,0.5,7.9,1.1,11.8,1.6c0.2-4.6,1-8.9,2.4-13.3c-3.9-1.1-7.7-2.1-11.6-3.2c-0.4,2.6-0.9,5.2-1.3,7.8
							c3.9,0.5,7.9,1.1,11.8,1.6c0.2-2.6,0.5-5.1,1.1-7.7c1.6-7.5-9.2-10.6-11.6-3.2c-0.4,1.3-0.8,2.5-1.2,3.8
							c3.9,1.1,7.7,2.1,11.6,3.2c0.6-2.8,0.6-5.1,0.2-7.9c-0.7-5.2-8.7-5.6-11-1.4c-2.9,5.4-5.2,11.1-6.6,17.1
							c-1.8,7.5,9.5,10.7,11.6,3.2c1.1-4,1.8-8.1,2-12.3c0.4-5.9-8.6-8.3-11.2-3c-3.8,7.6-6.9,15.6-9,23.9c3.9,0.5,7.9,1.1,11.8,1.6
							c0-5.3,0.9-10.4,1.9-15.6c1.2-6.2-7.7-11.1-11-4.6c-2.9,5.7-5.1,11.7-6.6,17.9c3.9,1.1,7.7,2.1,11.6,3.2
							c0.9-5.9,3.2-13.6,1-19.4c-1.4-3.7-6.9-6.6-10-2.6c-6.4,8.1-7.6,17.5-3.6,26.9c2.2,5.2,9.4,2.8,11-1.4c2.2-6,3-13,1.4-19.3
							c-1.5-5.9-6.5-10.7-12.9-8.3c-12,4.5-10.2,25.3,0.8,29.5c3.8,1.5,7.5-2.2,7.6-5.8c0.2-8.6-1.1-23.7-10.9-26.9
							c-10.1-3.3-15.9,8.3-14.9,16.8c0.9,7.2,8.9,19.2,17.1,12.4c7.4-6-0.2-21.2-4.6-27c-2.9-3.8-9.6-4.1-11,1.4
							c-1.7,6.9-0.6,14.7-0.5,21.7c3.7-1,7.5-2,11.2-3c-5.2-8.8-9.1-18.3-13.1-27.7c-0.3,2.4-0.6,4.8-0.9,7.3
							c0.2-0.2,4.5,0.9,5.6,0.8c2.8-0.3,4.5-1.7,6.3-3.8c3.7-4.4,5.5-9,4.6-14.6c-0.7-4.5-7.1-5.7-10-2.6
							c-5.3,5.6-9.8,21.8,1.9,23.4c11.1,1.4,14.9-13.4,13-21.6c-1.5-6.2-9.6-5.1-11.6,0c-2.7,7.1-4.6,21.5,5.3,23.9
							c3.9,1,8-0.8,11.1-3c1.6-1.1,3.1-2.4,4.5-3.7c0.9-0.8,1.8-1.7,2.7-2.4c0.3-0.3,0.7-0.6,1.1-0.9c1.6-1,0.5-1.1-3.1-0.4
							c-1-1.7-2-3.5-3-5.2c0.1,2.4-1.3,5.2-1.9,7.5c-0.7,2.7-1,5.4-1,8.2c0,5.6,8.7,8.7,11.2,3c2.1-4.8,4.5-9.6,7.1-14.2
							c1.1-1.8,1.9-3.9,4.1-4.5c2.1-0.5,4.9,0.2,6.9,0.4c3.9,0.3,8.3,0,11.3-3c3.1-3.1,3.7-8.1,1.1-11.7c-3-4.2-12.1-3.6-11.2,3
							c0.5,3.4,1,6.8,1.9,10.2c1.7,6.5,11.8,5.2,11.8-1.6c0-3.8-0.9-6.9-2.4-10.3c-3.1-6.7-11.9-1.5-11,4.6
							c1.2,7.6,2.3,15.2,3.5,22.8c1.1,6.8,11.7,5,11.8-1.6c0-2.7-0.6-4.7-1.8-7.1c-3.3-6.4-12.2-1.7-11,4.6
							c0.8,4.3,1.6,8.6,2.4,12.8c1.2,6.6,12.5,5.2,11.8-1.6c-0.2-2.3-0.5-4.4-1.3-6.5c-2.5-7.5-12.6-4.3-11.6,3.2
							c0.2,1.3,0.3,2.6,0.3,3.9c0,0.5,0,1.1,0,1.6c-0.1,1.1,0,1.1,0.3-0.2c1.4-0.6,2.8-1.2,4.2-1.8c2,1.8,2.6,1.9,1.9,0.4
							c-0.3-0.9-0.6-1.8-0.8-2.7c-0.4-1.5-0.9-3-1.2-4.5c-0.9-3.3-1.6-6.6-2.2-10c-3.9,1.1-7.7,2.1-11.6,3.2c1.6,4.1,3.4,8,5.5,11.8
							c2.8,4.9,11.8,3.1,11.2-3c-1.3-13-2.4-26.1-1.2-39.1c-3.9,0.5-7.9,1.1-11.8,1.6c0.5,2.1,1,4.2,1.4,6.3
							c1.5,6.5,12.5,5.2,11.8-1.6c-0.4-3.9-1.5-6.6-4.1-9.5c-2.8-3.1-9.4-1.8-10,2.6c-0.6,3.7-1.4,7.4-2.9,10.8
							c-0.6,1.5-1.4,2.9-2.2,4.3c-0.5,0.9-1.1,1.8-1.7,2.7c-1.2,1.1-1.4,1.5-0.4,1.2c1.4,3.4,2.8,6.8,4.2,10.2
							c4.7-4.8,10.5-14.7,3.1-19.9c-5.5-3.8-15.5-0.4-21.2,1.5c-6.5,2.3-14.3,5.3-15.1,13.1c-0.7,7.9,4.8,14.6,12.8,11.2
							c3-1.3,3.6-5.7,2.2-8.2C110.1,160.8,106.6,160.5,103.6,161.8L103.6,161.8z"/>
					</g>
				</g>
				<g>
					<g>
						<path class="st1" d="M90,179.3c-1.4-5.7-5.5-13.8-12.5-13c-3,0.3-5.7,2.3-6.5,5.3c-1,3.6,1.8,6.3,2.1,9.7
							c3.9-0.5,7.9-1.1,11.8-1.6c-0.1-0.6-0.3-1.1-0.4-1.7c-4,0-8,0-12,0c1.3,11.1,2.8,21.6,7.2,32c4.4,10.4,10,20.2,13.5,31
							c2.3,7.3,13.8,4.3,11.6-3.2c-1.7-5.8-2.8-11.7-2.9-17.8c-0.1-2.7,0-5.4,0.2-8c0.2-2.1,0.2-6.6,1.5-8.3
							c-1.2,0.9-2.4,1.8-3.6,2.8c-1.9,0.4-1.4-6.1-0.9-7c-3.7-0.5-7.3-1-11-1.4c0.6-0.5,1.1-1,1.7-1.4c1.5,0.2,3.1,0.4,4.6,0.6
							c-0.3-0.1-0.5-0.3-0.8-0.4c0.9,1.2,1.8,2.4,2.8,3.6c-1,1.4-0.8,2.4,0.5,2.8c0.6,0.7,1.1,1.4,1.5,2.3c0.7,1.4,1.1,3,1.5,4.5
							c1,3.9,1.3,8,1.5,12c0.5,8.9,0.3,17.7-0.3,26.6c4,0,8,0,12,0c-0.4-8.1-0.2-16.3,1.1-24.4c1.3-7.8,3.6-15.4,3.7-23.4
							c-3.9,0.5-7.9,1.1-11.8,1.6c1.5,3.7,2.7,7.3,3.7,11.2c1.5,5.9,9.9,5.5,11.6,0c0.7-2.4,1.4-4.9,2.2-7.3
							c-3.9-0.5-7.9-1.1-11.8-1.6c0,0.8,0,1.5,0,2.3c-0.1,7.9,11.2,7.5,12,0c0.1-1.3,0.3-2.7,0.4-4c0.7-6.7-10.8-8.3-11.8-1.6
							c-0.7,4.3-1,8.5-0.9,12.9c0.3,7.7,12.1,7.8,12,0c-0.1-1.3,0-2.6,0.4-3.8c-3.9-0.5-7.9-1.1-11.8-1.6c-0.1,3.5,0,7,0.4,10.5
							c0.8,7.5,12.1,7.9,12,0c0-1.2,0-2.4,0-3.6c-3.9,0.5-7.9,1.1-11.8,1.6c1.5,4.4,1.1,10.3,1.4,14.9c0.4,5,0.5,9.8-3.6,13.4
							c-3.8,3.3-8,3-12.6,2.3c-3-0.4-5.9-0.9-8.9-1.3c-2.7-0.4-6.9-0.2-9.3-1.3c1,1.7,2,3.5,3,5.2c-0.2-3.3,0.9-7,1.4-10.2
							c0.5-3.4,1-6.8,1.6-10.1c1-6.9,2.1-13.8,2-20.7c0-1.9-0.3-3.7-0.3-5.6c0-0.9,0.6-2.9,0.1-2.8c0.4,0,1,7.4,1,8.6
							c0,3.7-0.3,7.3-0.6,11c-0.2,1.7-0.3,3.3-0.5,5c-0.1,0.8-1.5,3.8,0.1,3.3c1.5,0.2,3.1,0.4,4.6,0.6c1,0.6,0.9,1.3-0.2,2
							c-1.5,0.2-3.1,0.4-4.6,0.6c-1.6-2-2.2-1.9-1.7,0.2c0,0.8-0.2,1.6-0.4,2.4c-0.9,2.2,0.8,2.5,5.1,0.8c0.5-1.2,0.6-1.4,0.3-0.8
							c-1.5,0.2-3.1,0.4-4.6,0.6c-3.3-0.7-0.8,3.6-2,6c-1.3,2.7-1,6.8,2.2,8.2c4.4,2,8.9,4.2,13.4,6c3.5,1.4,6.9,1.8,9.9-0.9
							c5.3-4.7,3.7-13.8,8.4-19.2c-3.4-1.4-6.8-2.8-10.2-4.2c-0.4,4,0.1,7.9,0.7,11.8c0.6,3.8,1.9,8.2,0.5,11.9
							c0.9-1.2,1.8-2.4,2.8-3.6c-2,1.2-8.6,0.1-10.9-0.1c-4.1-0.3-8.1-0.9-12.2-1.4c-5.5-0.7-15.1-4-18.3,2.6
							c-0.9,1.8-1.3,4.3,0,6.1c3.3,4.3,7.3,4.1,12.3,4.6c7.7,0.6,7.7-11.4,0-12c-1.6-0.1-3.3-0.1-4.9-0.5c1.2,0.9,2.4,1.8,3.6,2.8
							c-0.2-0.3-0.4-0.6-0.6-0.8c0,2,0,4,0,6.1c0.1-0.2,0.2-0.5,0.4-0.7c-1.2,0.9-2.4,1.8-3.6,2.8c2-0.7,6.3,0.7,8.5,1
							c3.4,0.5,6.8,0.9,10.2,1.3c6,0.7,13,1.6,19,0.1c11.8-3,3.8-23.4,4.6-31.6c0.5-5.1-6.9-8-10.2-4.2c-3.8,4.3-6,9.2-7.5,14.7
							c-0.3,1.1-1,2.6-0.9,3.7c-0.6,1.8,0.4,1.4,3-1c-0.6-0.2-1.1-0.5-1.7-0.7c-2.8-2-6.9-3.1-10-4.5c0.7,2.7,1.4,5.5,2.2,8.2
							c2.1-4.3,3.3-9.7-0.6-13.5c-3.8-3.7-9.9-2.7-13.4,0.8c-8.2,8.2,5.2,19,12.8,10.9c5.9-6.4,3.4-26.9-8.5-21.1
							c-8.8,4.3-8.4,21,2.3,22.1c10.3,1.1,13.4-15.5,8.9-22.3c-2.7-4.1-8.3-5-12-1.5c-3.4,3.3-3.7,9.2-1.6,13.2
							c2.5,4.7,8.2,6.4,12.4,2.7c3.8-3.4,4.5-9.8,5-14.5c1.1-9.7,3.6-25.1-5-32.2c-4.6-3.8-11.1-3.5-15.3,0.8
							c-4.5,4.7-3.7,10.9-3.6,16.8c0.1,6.8-0.9,13.6-2,20.3c-0.6,3.7-1.1,7.4-1.7,11.1c-0.5,3.1-1.5,6.6-1.3,9.7c0.1,2,1,4.2,3,5.2
							c3.7,1.8,8.1,1.9,12.2,2.5c4.4,0.7,8.8,1.5,13.2,2c7,0.8,13.4-0.6,18.9-5.1c5.1-4.2,8.1-10.3,8.4-16.9c0.2-4.3-0.5-8.7-0.8-13
							c-0.3-3.6-0.1-7.5-1.3-10.9c-2.1-6.2-11.9-5.4-11.8,1.6c0,1.2,0,2.4,0,3.6c4,0,8,0,12,0c-0.4-3.5-0.5-7-0.4-10.5
							c0.2-6.7-10.2-8.2-11.8-1.6c-0.6,2.3-0.8,4.6-0.8,7c4,0,8,0,12,0c-0.1-3.3,0-6.5,0.4-9.7c-3.9-0.5-7.9-1.1-11.8-1.6
							c-0.1,1.3-0.3,2.7-0.4,4c4,0,8,0,12,0c0-0.8,0-1.5,0-2.3c0.1-6.9-9.9-8-11.8-1.6c-0.7,2.4-1.4,4.9-2.2,7.3c3.9,0,7.7,0,11.6,0
							c-1-3.8-2.2-7.5-3.7-11.2c-2.4-5.9-11.6-5.7-11.8,1.6c-0.2,8.1-2.8,15.9-3.9,23.8c-1.1,7.9-1.4,15.9-1,23.9
							c0.4,7.7,11.5,7.7,12,0c0.7-11.1,1-22.4-0.3-33.5c-1-8.6-3.2-20.1-12.4-23.6c-7.6-2.9-19.2,3.6-15.3,12.8
							c1.8,4.4,7.3,5,10.9,2.5c3.9-2.7,5.1-7.7,3.7-12c-1.5-4.5-8.6-6.4-11-1.4c-3.4,7.1-2.9,20.1,7.4,20.9
							c8.9,0.6,16.6-11.2,8.8-17.7c-3.3-2.7-8.3-2.9-11.2,0.5c-2.7,3.2-2.9,8.3-3.4,12.3c-1.5,9.7-0.4,20.5,2.6,30.7
							c3.9-1.1,7.7-2.1,11.6-3.2c-3.2-10.1-8.3-19.5-12.6-29.2c-4.5-9.9-6.3-19.9-7.6-30.6c-0.9-7.5-12.4-7.9-12,0
							c0.1,1.8,0.2,3.1,0.8,4.8c2.1,6,12.3,5.6,11.8-1.6c-0.1-1.9-0.3-3.8-0.9-5.7c-0.2-0.8-1.8-5.8-1.4-2.4
							c-0.6,1.4-1.2,2.8-1.8,4.2c0.2-0.3,0.5-0.6,0.7-0.9c-1.4,0.6-2.8,1.2-4.2,1.8c-1.5-0.9-1.5-0.6-0.1,1c0.5,1,0.9,2.1,1.1,3.2
							C80.3,190,91.9,186.8,90,179.3L90,179.3z"/>
					</g>
				</g>
				<g>
					<g>
						<path class="st1" d="M124.9,252.7c-0.2,0.3-0.3,0.6-0.5,0.9c-1.7,1-3.5,2-5.2,3c0.3,0,0.7-0.1,1-0.1c-1.4-0.6-2.8-1.2-4.2-1.8
							c0.1-0.2,0.2-0.5,0.3-0.7c2.5-1.4,4.9-2.8,7.4-4.2c0.8,1.3,1.7,2.5,2.5,3.8c-2.9,1.2-5.9,2.4-8.8,3.6
							c-0.1-0.1-0.2-0.1-0.3-0.2c3.7,5.8,12.5,2.1,11-4.6c-0.7-3.1-0.1-6.5-0.4-9.7c-0.3-3.4-0.8-6.9-1.5-10.2
							c-3.7,1.5-7.3,3.1-11,4.6c0.2,0.5,0.4,1,0.6,1.5c2.1,7.4,13.4,4.3,11.6-3.2c-0.3-1-0.5-2-0.7-3c-4,0-8,0-12,0
							c1,7.6,2,15.2,3.1,22.9c3.9-0.5,7.9-1.1,11.8-1.6c0-0.6-0.1-1.2-0.1-1.8c-3.9,0.5-7.9,1.1-11.8,1.6c0.5,1.3,0.8,2.6,0.9,3.9
							c2.5-1.9,5.1-3.9,7.6-5.8c-4.8-1.7-10,0.7-15.1-0.5c-6-1.4-9.8,5.6-5.8,10c3,3.4,7.1,3.5,10.9,1.7c4-1.8,3.8-8.5,0-10.4
							c-5.3-2.6-11.8-3.9-17.7-4.4c-2.6-0.2-5.3-0.1-7.8,0.7c-1.2,0.4-2.4,0.8-3.5,1.5c-0.4,0.3-0.8,0.6-1.2,0.9
							c-2,1.2-1.6,1.4,1.3,0.5c-0.5,3.9-1.1,7.9-1.6,11.8c2.6-0.1,5.1,0.3,7.8,0.4c2.3,0.2,4.4-0.4,6.6-0.4c-1.7-1-3.5-2-5.2-3
							c0.1,0.1,0.1,0.3,0.2,0.4c1.3,2.5,4.2,3.2,6.8,2.8c0.7,0,1.3-0.2,1.9-0.5c7.2-2.6,4.1-14.2-3.2-11.6c-0.6,0.3-1.2,0.4-1.9,0.5
							c2.3,0.9,4.5,1.8,6.8,2.8c-0.1-0.1-0.1-0.3-0.2-0.4c-1-1.9-3.1-2.9-5.2-3c-2.2-0.1-4.4,0.5-6.6,0.4c-2.6-0.2-5.1-0.6-7.8-0.4
							c-6.8,0.3-8.2,9.7-1.6,11.8c5,1.5,6.4-2,10.6-3.1c2.2-0.6,4.7,0.1,6.8,0.5c2.8,0.6,6.1,0.9,8.7,2.2c0-3.5,0-6.9,0-10.4
							c1.2,0.1,2.4,0.1,3.6,0.2c-1.9,3.3-3.9,6.7-5.8,10c2.6,0.6,5.4,1.1,8.1,1.1c2.1,0,5.1-1.2,7-0.5c3.5,1.2,7.9-2,7.6-5.8
							c-0.2-2.5-0.6-4.8-1.3-7.1c-1.9-6.4-11.8-5.3-11.8,1.6c0,1.7,0.2,3.3,0.5,5c1.1,6.6,12.7,5.1,11.8-1.6c-1-7.6-2-15.2-3.1-22.9
							c-0.4-3.2-2.4-6-6-6c-2.9,0-6.4,2.8-6,6c0.3,2.1,0.6,4.2,1.1,6.2c3.9-1.1,7.7-2.1,11.6-3.2c-0.5-1.6-1-2.9-1.8-4.3
							c-3.5-6.2-12.2-1.8-11,4.6c1.3,6.6,0.4,13.4,1.9,19.9c3.7-1.5,7.3-3.1,11-4.6c-1.1-1.8-2.3-2.9-4-4.1c-2.9-2.2-8.2,0-8.8,3.6
							c-0.8,4.6,0.7,9.8,5.9,11c3.4,0.8,6.1-1,7.4-4.2c2.1-5.3-2.3-12.8-8.2-12.7c-7.9,0.2-7.7,9-5.2,14.2
							C117.8,265.7,128.2,259.6,124.9,252.7L124.9,252.7z"/>
					</g>
				</g>
				<g>
					<g>
						<path class="st1" d="M141.8,205.8c0,0.5,0,1,0,1.4c3.7-1,7.5-2,11.2-3c-2.6-5.9-4-12.6-5.8-18.9c-2.2-7.4-13.5-4.3-11.6,3.2
							c0.9,3.6,1.9,7.2,2.8,10.8c3.9-1.1,7.7-2.1,11.6-3.2c-0.8-2.1-1.3-4.1-1.7-6.3c-3.9,1.1-7.7,2.1-11.6,3.2c0.9,4,1.9,8,2.8,12
							c3.9-1.1,7.7-2.1,11.6-3.2c-0.6-2-1.2-4-1.8-6.1c-3.7,1.5-7.3,3.1-11,4.6c2.1,4,1.6,9.1,2.8,13.4c2,6.8,11.1,4.9,11.8-1.6
							c1-9.8,1.3-19-0.7-28.7c-1.3-6.7-11.9-5.1-11.8,1.6c0.2,10.8-0.6,22.1,0.9,32.8c0.8,5.2,2.5,10.2,2.6,15.6
							c0,5.3,0.6,10.3,1.5,15.5c1.2,6.6,12.4,5.2,11.8-1.6c-0.7-7.6-2.2-14.9-2.4-22.5c-0.2-7.4-0.3-14.8-0.4-22.2
							c-3.9,0.5-7.9,1.1-11.8,1.6c1.2,7.8-0.6,16,1.6,23.6c1.9,6.4,11.8,5.3,11.8-1.6c0-2.6-0.1-5.1-0.4-7.7c-0.7-7.6-12.6-7.8-12,0
							c0.9,12,1.7,24,2.6,36.1c3.9-0.5,7.9-1.1,11.8-1.6c-0.2-0.9-0.3-1.8-0.5-2.7c-3.9,1.1-7.7,2.1-11.6,3.2
							c0.7,3.4,0.8,6.7,0.6,10.2c-0.5,7.7,11.5,7.7,12,0c0.3-4.5-0.1-8.9-1.1-13.4c-1.6-7.6-12.9-4.3-11.6,3.2
							c0.2,0.9,0.3,1.8,0.5,2.7c1.2,6.6,12.3,5.2,11.8-1.6c-0.9-12-1.7-24-2.6-36.1c-4,0-8,0-12,0c0.2,2.6,0.4,5.1,0.4,7.7
							c3.9-0.5,7.9-1.1,11.8-1.6c-1.2-3.9-0.5-7.8-0.5-11.8s-0.6-7.9-1.2-11.8c-1-6.8-11.9-5-11.8,1.6c0.1,7.4,0.2,14.8,0.4,22.2
							c0.2,7.7,1.7,15,2.4,22.5c3.9-0.5,7.9-1.1,11.8-1.6c-0.9-4.7-0.9-9.2-1.1-14c-0.2-5.2-1.9-10.1-2.7-15.3
							c-1.6-10.2-0.6-21.2-0.8-31.5c-3.9,0.5-7.9,1.1-11.8,1.6c1.7,8.7,1.1,16.9,0.2,25.6c3.9-0.5,7.9-1.1,11.8-1.6
							c-1.6-5.5-1.3-11.1-4-16.3c-3.2-6-12.9-1.9-11,4.6c0.6,2,1.2,4,1.8,6.1c2.2,7.4,13.3,4.3,11.6-3.2c-0.9-4-1.9-8-2.8-12
							c-1.8-7.7-12.8-4.3-11.6,3.2c0.4,2.2,0.9,4.2,1.7,6.3c2.7,7.1,13.6,4.4,11.6-3.2c-0.9-3.6-1.9-7.2-2.8-10.8
							c-3.9,1.1-7.7,2.1-11.6,3.2c2.1,7.3,3.9,14.8,7,21.7c2.5,5.7,11.2,2.5,11.2-3c0-0.5,0-1,0-1.4
							C153.8,198,141.8,198,141.8,205.8L141.8,205.8z"/>
					</g>
				</g>
				<g>
					<g>
						<path class="st1" d="M63.4,179.3c-1-5.6,0.5-11.1-0.9-16.8c-1.8-6.9-11.3-4.9-11.8,1.6c-0.2,2,0.2,3.4,1.3,5
							c1.6,2.5,4,3.2,6.8,2.8c1.4-0.2,2.5-0.7,3.8-1.4c-1.5,0.2-3.1,0.4-4.6,0.6c4.1,0.7,6.8,2.3,10.4-1.1c-3.1-2.4-6.3-4.8-9.4-7.3
							c-0.8,1.7-1.6,3.5-2.3,5.2c-3.1,6.9,6.4,12.9,10.4,6.1c0.5-0.9,1.1-1.9,1.6-2.8c-3.7-1.5-7.3-3.1-11-4.6c-1,3-2.1,6-3.1,9
							c-2.3,6.5,7.6,10.4,11,4.6c1.2-2.1,2.2-4.3,2.9-6.7c2.3-7.4-9.2-10.5-11.6-3.2c-1,3-1.8,6-2.5,9.1c-1.7,7.5,9.3,10.6,11.6,3.2
							c0.5-1.8,1.1-3.6,1.6-5.3c2.3-7.5-9-10.4-11.6-3.2c-1.3,3.6-2.3,7.3-2.9,11.1c-1.3,7.6,8.9,10.5,11.6,3.2
							c0.6-1.6,1.2-3.1,1.7-4.7c-3.9-1.1-7.7-2.1-11.6-3.2c-1.1,5.3-2.5,10.4-4.2,15.5c-1.9,5.5,6.2,10.5,10,5.8
							c0.2-0.3,0.4-0.5,0.6-0.8c-3.3-1.9-6.7-3.9-10-5.8c-0.4,2.3-0.9,4.5-1.5,6.7c-0.3,1.1-0.7,4.6-1.5,5.3
							c1.4-0.6,2.8-1.2,4.2-1.8c-0.2,0-0.5,0-0.7,0c1.7,1,3.5,2,5.2,3c0.3,1.8,0.4,2,0.5,0.6c0.1-0.9,0.2-1.9,0.3-2.8
							c0.2-1.9,0.4-3.7,0.6-5.6c0.3-3.4,0.7-6.8,1-10.3c0.8-7.4,1.7-14.8,2.8-22.2c-3.9-0.5-7.9-1.1-11.8-1.6
							c-1,8.7-2.2,17.4-3.4,26.1c3.9,0.5,7.9,1.1,11.8,1.6c0-6.7,1.3-13.1,2.8-19.7c-3.9,0-7.7,0-11.6,0c1.6,4.9-1.1,10.9-0.3,16.2
							c0.9,6.3-2.1,13.2-3,19.6c3.9,0.5,7.9,1.1,11.8,1.6c-0.2-2.1-0.3-4.3-0.5-6.4c-0.6-7.8-11.3-7.7-12,0
							c-0.5,5.2-0.9,10.3-1.3,15.5c-0.5,7.3,9.5,7.4,11.8,1.6c0.9-2.3,1.7-4.6,2.3-7c-3.9-1.1-7.7-2.1-11.6-3.2
							c-1,5.9-2,11.7-3,17.6c3.9,0.5,7.9,1.1,11.8,1.6c-0.1-2.8-0.1-5.6,0.3-8.5c-3.9-0.5-7.9-1.1-11.8-1.6
							c0.4,8.3-2.1,16.3-1.9,24.6c0.1,6.5,10.6,8.5,11.8,1.6c1.5-8.6,2.6-17.3,3.2-26.1c0.6-7.8-11.1-7.5-12,0
							c-0.9,7.7-1.8,15.5-2.6,23.2c-0.9,7.7,11.1,7.6,12,0c0.9-7.7,1.8-15.5,2.6-23.2c-4,0-8,0-12,0c-0.6,7.7-1.5,15.3-2.8,22.9
							c3.9,0.5,7.9,1.1,11.8,1.6c-0.2-8.3,2.3-16.3,1.9-24.6c-0.3-6.4-10.7-8.6-11.8-1.6c-0.6,3.9-0.9,7.7-0.8,11.6
							c0.3,6.4,10.6,8.6,11.8,1.6c1-5.9,2-11.7,3-17.6c1.3-7.5-9.5-10.8-11.6-3.2c-0.6,2.4-1.4,4.7-2.3,7c3.9,0.5,7.9,1.1,11.8,1.6
							c0.3-5.2,0.8-10.3,1.3-15.5c-4,0-8,0-12,0c0.2,2.1,0.3,4.3,0.5,6.4c0.5,6.2,10.8,8.7,11.8,1.6c0.6-4,1.3-7.9,2.3-11.8
							c1-3.7,2.1-7,1.5-10.9c-0.5-3.4-0.7-5.7-0.2-9.1c0.6-3.6,0.8-6.9-0.4-10.4c-1.8-5.3-10.2-6.1-11.6,0
							c-1.7,7.5-3.2,15.1-3.2,22.9c0,6.5,10.8,8.5,11.8,1.6c1.4-9.8,2.7-19.5,3.8-29.3c0.7-6.7-10.8-8.3-11.8-1.6
							c-1.1,7.5-2.2,15-2.9,22.6c-0.8,7.3-2.3,15-2.2,22.4c0,6,6.5,10.1,11.4,5.8c4.2-3.7,5.1-12.2,6.1-17.4c1-5.3-5.9-10.9-10-5.8
							c-0.2,0.3-0.4,0.5-0.6,0.8c3.3,1.9,6.7,3.9,10,5.8c1.7-5.1,3.1-10.3,4.2-15.5c1.6-7.6-8.9-10.4-11.6-3.2
							c-0.6,1.6-1.2,3.1-1.7,4.7c3.9,1.1,7.7,2.1,11.6,3.2c0.7-3.8,1.6-7.5,2.9-11.1c-3.9-1.1-7.7-2.1-11.6-3.2
							c-0.5,1.8-1.1,3.6-1.6,5.3c3.9,1.1,7.7,2.1,11.6,3.2c0.7-3.1,1.5-6.1,2.5-9.1c-3.9-1.1-7.7-2.1-11.6-3.2
							c-0.4,1.4-0.9,2.5-1.7,3.8c3.7,1.5,7.3,3.1,11,4.6c1-3,2.1-6,3.1-9c2.3-6.5-7.6-10.4-11-4.6c-0.5,0.9-1.1,1.9-1.6,2.8
							c3.5,2,6.9,4,10.4,6.1c0.8-1.7,1.6-3.5,2.3-5.2c2.7-6-4.2-12.2-9.4-7.3c-0.2,0.2-0.4,0.3-0.5,0.5c1.4-0.6,2.8-1.2,4.2-1.8
							c0.4,0-2.5-0.8-3.2-0.9c-1.8-0.1-3,0.6-4.8,0.9c2.3,0.9,4.5,1.8,6.8,2.8c0.1,0.3,0.2,0.7,0.4,1c-3.9,0.5-7.9,1.1-11.8,1.6
							c1.4,5.4,0,11.2,0.9,16.8C53.1,190.1,64.7,186.9,63.4,179.3L63.4,179.3z"/>
					</g>
				</g>
				<g>
					<g>
						<path class="st1" d="M43.3,243.5c-0.5,3.5-0.9,7-0.9,10.6c3.9-0.5,7.9-1.1,11.8-1.6c-0.5-1.9-0.5-3.3-0.3-5.2
							c-3.9,0.5-7.9,1.1-11.8,1.6c0.8,3.2,0.3,6.3-0.3,9.5c3.9,0,7.7,0,11.6,0c-0.2-0.8-0.2-1.7-0.1-2.5c-3.9-0.5-7.9-1.1-11.8-1.6
							c0.1,4.5-0.1,8.9-0.4,13.4c3.7-1,7.5-2,11.2-3c0.1,0.5,0.3,1,0.4,1.5c-3.9-0.5-7.9-1.1-11.8-1.6c-0.2,2.2-0.4,4.4-0.7,6.6
							c-0.8,7.7,11.2,7.6,12,0c0.2-2.2,0.4-4.4,0.7-6.6c0.7-6.9-10-7.9-11.8-1.6c-0.8,2.9-0.4,5.1,0.8,7.8c2.6,5.9,10.8,2.3,11.2-3
							c0.3-4.5,0.5-8.9,0.4-13.4c-0.1-6.5-10.6-8.5-11.8-1.6c-0.5,3.1-0.6,5.8,0.1,8.9c1.1,5.7,10.5,5.8,11.6,0
							c1-5.4,1.6-10.5,0.3-15.9c-1.8-7-11.1-4.8-11.8,1.6c-0.3,2.9,0,5.6,0.8,8.4c1.8,6.6,11.7,5.2,11.8-1.6c0-2.5,0.1-4.9,0.5-7.4
							C56,239.2,44.4,235.9,43.3,243.5L43.3,243.5z"/>
					</g>
				</g>
				<g>
					<g>
						<path class="st1" d="M69.6,257.7c-1,1.5-1.1,2.5-0.9,4.2c0.1,0.7,0.9,0.9,1.5,0.8c2.6-0.4,4.8,1.1,7.3,0.9
							c1.3-0.1,1.7-2,0.3-2.4c-2-0.5-3.8-1.2-5.5-2.1c-0.2,0.7-0.4,1.5-0.6,2.2c10.1-0.1,20.2-0.2,30.3-0.9
							c4.7-0.3,9.4-0.8,14.2-0.4c4.5,0.3,8.7,2.3,13.1,2.5c0.4,0,0.8-0.2,1-0.6c0.5-1,0.4-1.6,0.4-2.7c-0.8,0.1-1.6,0.2-2.4,0.3
							c0.3,0.8,0.6,1.7,1,2.5c0.6,1.5,2.6,0.9,2.3-0.6c-0.1-0.5-0.2-1-0.3-1.6c-0.2-1.5-2.6-0.9-2.3,0.6c0.1,0.5,0.2,1,0.3,1.6
							c0.8-0.2,1.5-0.4,2.3-0.6c-0.3-0.8-0.6-1.7-1-2.5c-0.5-1.2-2.3-1.1-2.4,0.3c0,1.4-3.5-0.3-4.7-0.6c-1.8-0.4-3.7-0.7-5.6-0.9
							c-5-0.6-10-0.2-15.1,0.2c-10.4,0.8-20.8,0.9-31.2,1c-1.2,0-1.7,1.7-0.6,2.2c2,1.1,3.9,1.8,6.1,2.3c0.1-0.8,0.2-1.6,0.3-2.4
							c-2.8,0.2-5.1-1.2-7.9-0.8c0.5,0.3,1,0.6,1.5,0.8c0.2-0.8,0.4-1.6,0.6-2.4C72.6,257.6,70.5,256.4,69.6,257.7L69.6,257.7z"/>
					</g>
				</g>
			</g>
			<line class="st0" x1="75.1" y1="195.1" x2="76.5" y2="205.1"/>
			<line class="st0" x1="76.5" y1="213.1" x2="74.1" y2="230.6"/>
			<line class="st0" x1="70.8" y1="255.1" x2="73.3" y2="235.2"/>
			<line class="st0" x1="70.3" y1="258.8" x2="70.6" y2="252"/>
			<line class="st0" x1="128.4" y1="256.5" x2="130.6" y2="258.9"/>
			<line class="st0" x1="158.6" y1="267.9" x2="158.5" y2="258.1"/>
			<line class="st0" x1="129.9" y1="256.6" x2="131.2" y2="260.8"/>
			<line class="st0" x1="152.8" y1="195.4" x2="154.4" y2="202.6"/>
			<line class="st0" x1="154.5" y1="209.7" x2="155.5" y2="218.5"/>
			<line class="st0" x1="145.5" y1="135.8" x2="144.6" y2="130.7"/>
			<line class="st0" x1="91.2" y1="103.9" x2="90.5" y2="99.8"/>
			<line class="st0" x1="90.2" y1="98.1" x2="110.1" y2="98.6"/>
			<line class="st0" x1="46.1" y1="209.3" x2="45.3" y2="212.1"/>
			<line class="st0" x1="41.4" y1="272" x2="41.2" y2="276.1"/>
			<line class="st0" x1="44.1" y1="276.4" x2="41.2" y2="276.1"/>
			<line class="st0" x1="43.9" y1="273.2" x2="40.6" y2="275.9"/>
			<line class="st0" x1="73.3" y1="241.9" x2="74.2" y2="229.6"/>
			<line class="st0" x1="147.4" y1="152.1" x2="149.4" y2="163.3"/>
			<line class="st0" x1="150.8" y1="173.9" x2="149.3" y2="164.4"/>
			<line class="st0" x1="155" y1="228.6" x2="158" y2="253"/>
			<line class="st0" x1="156.2" y1="230.9" x2="157.6" y2="246.1"/>
			<line class="st0" x1="158" y1="253" x2="158.5" y2="258.1"/>
			<line class="st0" x1="86.1" y1="108.5" x2="92.9" y2="102.9"/>
			<line class="st0" x1="90.2" y1="98.1" x2="90.5" y2="108.6"/>
			<line class="st0" x1="86.1" y1="107.6" x2="90.9" y2="102.9"/>
			<line class="st0" x1="114.1" y1="108.5" x2="109" y2="101.7"/>
			<line class="st0" x1="110.1" y1="98.6" x2="110.1" y2="103.4"/>
			<line class="st0" x1="91.1" y1="105.7" x2="111.5" y2="105.7"/>
			<line class="st0" x1="91.1" y1="99.1" x2="109.3" y2="99.1"/>
			<line class="st0" x1="93.1" y1="99.2" x2="94.8" y2="105"/>
			<line class="st0" x1="88.5" y1="107.3" x2="94" y2="102.9"/>
			<line class="st0" x1="91.1" y1="101.5" x2="99.1" y2="109.5"/>
			<line class="st0" x1="90.6" y1="103.9" x2="89.2" y2="106.6"/>
			<line class="st0" x1="110.3" y1="105.3" x2="115.5" y2="106.7"/>
			<line class="st0" x1="110.1" y1="98.6" x2="108.6" y2="103.5"/>
			<line class="st0" x1="91.2" y1="100.4" x2="108.6" y2="99.4"/>
			<rect x="90.4" y="98.6" class="st2" width="20" height="10.7"/>
		</g>
		<g>
			<g>
				<path class="st1" d="M69.7,122.2c-0.1,0.3-0.3,0.7-0.4,1c-0.5,1.3,1.6,2.1,2.2,0.9c0.7-1.3,1.1-2.5,1.5-3.9
					c0.3-1.1-1.2-2.2-2-1.2c-1.1,1.4-2.3,2.7-3.5,3.9c0.7,0.4,1.3,0.8,2,1.2c0.4-1.7,1.1-3.2,2.2-4.5c-0.6-0.5-1.3-1-1.9-1.5
					c-1,2-2.1,3.9-3.1,5.9c-0.7,1.4,1.3,2.6,2.1,1.2c0.7-1.3,1.3-2.5,2-3.8c-0.7-0.4-1.4-0.8-2.1-1.2c-3.3,7.2-6.7,14.3-10.2,21.4
					c0.7,0.3,1.5,0.6,2.2,0.9c0.5-1.4,1-2.8,1.5-4.2c0.5-1.5-1.8-2.1-2.3-0.6c-1.9,5-3.6,10-5.3,15.1c0.8,0.1,1.6,0.2,2.4,0.3
					c0.2-1,0.3-1.9,0.5-2.9c0.3-1.5-1.8-2.1-2.3-0.6c-0.9,2.6-1.9,5.3-2.8,7.9c0.8,0.1,1.6,0.2,2.4,0.3c0.1-0.6,0.1-1.2,0.2-1.7
					c0.1-1.3-2.1-1.6-2.4-0.3c-0.4,1.8-0.9,3.5-1.5,5.3c0.8,0.2,1.5,0.4,2.3,0.6c0.4-1.9,0.8-3.8,1.2-5.8c0.3-1.5-2-2.2-2.3-0.6
					c-0.5,2.3-1,4.5-1.7,6.7c0.8,0.2,1.5,0.4,2.3,0.6c0.4-2.1,0.8-4.1,1.3-6.2c-0.8-0.1-1.6-0.2-2.4-0.3c0,0.8,0,1.5,0,2.3
					c0,1.6,2.3,1.5,2.4,0c0.1-1.8,0.3-3.5,0.8-5.2c-0.8-0.1-1.6-0.2-2.4-0.3c0,1.5-0.1,3-0.3,4.5c0.8-0.1,1.6-0.2,2.4-0.3
					c-0.1-1-0.1-2.1-0.2-3.1c-0.8,0-1.5,0-2.3,0c0.5,1.9,0.9,3.7,1.1,5.7c0.1,1.2,2.1,1.8,2.4,0.3c0.2-1.2,0.4-2.4,0.6-3.5
					c-0.8,0-1.5,0-2.3,0c0,0.6,0.1,1.3,0.1,1.9c0,1.6,2.3,1.5,2.4,0c0.2-0.7,0.4-1.5,0.6-2.2c-0.7-0.1-1.5-0.2-2.2-0.3
					c0.5,1.1,0.7,2.2,0.7,3.4c0.1,1.5,2.5,1.5,2.4,0c-0.1-1.4-0.3-2.6-0.8-4c-0.3-0.8-1.8-1.3-2.2-0.3c-0.7,1.6-0.7,1.7-0.9,3.4
					c0.8,0,1.6,0,2.4,0c0-1.1,0-1.5-0.2-2.6c-0.2-1.2-2.1-1.1-2.3,0c-0.2,1.2-0.4,2.4-0.6,3.5c0.8,0.1,1.6,0.2,2.4,0.3
					c-0.2-2.2-0.6-4.2-1.2-6.3c-0.3-1.1-2.1-1.2-2.3,0c-0.3,1.6-0.3,2.8,0.2,4.4c0.4,1.4,2.2,1,2.4-0.3c0.2-1.5,0.3-3,0.3-4.5
					c0-1.3-2.1-1.7-2.4-0.3c-0.4,2-0.7,3.9-0.8,5.9c0.8,0,1.6,0,2.4,0c0-0.8,0-1.5,0-2.3c0-1.3-2-1.7-2.4-0.3
					c-0.5,2-0.9,4.1-1.3,6.2c-0.3,1.5,1.9,2.1,2.3,0.6c0.7-2.2,1.2-4.4,1.7-6.7c-0.8-0.2-1.5-0.4-2.3-0.6c-0.4,1.9-0.8,3.8-1.2,5.8
					c-0.3,1.5,1.8,2.1,2.3,0.6c0.6-1.8,1.1-3.4,1.5-5.3c-0.8-0.1-1.6-0.2-2.4-0.3c-0.1,0.6-0.1,1.2-0.2,1.7
					c-0.1,1.4,1.9,1.5,2.4,0.3c0.9-2.6,1.9-5.3,2.8-7.9c-0.8-0.2-1.5-0.4-2.3-0.6c-0.3,1.6-0.4,1.9-0.5,3.5c-0.1,1.4,2,1.5,2.4,0.3
					c1.6-5.1,3.4-10.1,5.3-15.1c-0.8-0.2-1.5-0.4-2.3-0.6c-0.5,1.4-1,2.8-1.5,4.2c-0.4,1.3,1.6,2.1,2.2,0.9
					c3.5-7.1,6.9-14.2,10.2-21.4c0.6-1.4-1.3-2.6-2.1-1.2c-0.7,1.3-1.3,2.5-2,3.8c0.7,0.4,1.4,0.8,2.1,1.2c1-2,2.1-3.9,3.1-5.9
					c0.6-1.1-1-2.6-1.9-1.5c-1.4,1.7-2.3,3.4-2.9,5.6c-0.3,1.2,1.2,2,2,1.2c1.3-1.3,2.4-2.5,3.5-3.9c-0.7-0.4-1.3-0.8-2-1.2
					c-0.2,1.2-0.6,2.3-1.3,3.3c0.7,0.3,1.5,0.6,2.2,0.9c0.1-0.3,0.3-0.7,0.4-1C72.6,121.4,70.3,120.8,69.7,122.2L69.7,122.2z"/>
			</g>
		</g>
		<g>
			<g>
				<path class="st1" d="M102.1,100.2C102.3,100.3,102,100.2,102.1,100.2c-0.2-0.1-0.2-0.1-0.2-0.2c-0.1,0.5-0.3,1.1-0.4,1.6
					c-0.4,0.2-1-0.3-0.7-0.8c0.1-0.1,0.1-0.1,0.2-0.2c0.3,0,0.5,0.1,0.8,0.1c0.1,0.1,0.2,0.5,0.1,0.6c-0.7,0-1.4,0-2.1,0
					c0.2,0.3,0.1,0.1,0.1,0.1c-0.4,1.5,1.9,2.1,2.3,0.6c0.2-0.7,0.1-1.4-0.3-1.9c-0.5-0.8-1.5-0.8-2.1,0c-0.5,0.7-0.3,1.8,0.4,2.3
					c0.7,0.6,1.8,0.5,2.5-0.2c0.6-0.7,0.7-1.8,0-2.5c-0.6-0.7-1.6-0.8-2.4-0.4c-0.6,0.3-0.7,1.1-0.4,1.6c0.5,0.9,1.3,1.3,2.3,1.4
					c0.6,0.1,1.2-0.6,1.2-1.2C103.3,100.7,102.8,100.3,102.1,100.2L102.1,100.2z"/>
			</g>
		</g>
	</g>
	<g>
		<g>
			<path class="st4" d="M70.8,168.1c0.8,0,0.8-1.2,0-1.2C70,166.9,70,168.1,70.8,168.1L70.8,168.1z"/>
		</g>
	</g>
	<g>
		<g>
			<path class="st4" d="M70.2,168c7.2,3.7,17.4,3.8,20.4-5.3c0.2-0.7-0.9-1-1.2-0.3c-2.7,8.2-12.3,7.9-18.7,4.5
				C70.1,166.6,69.5,167.6,70.2,168L70.2,168z"/>
		</g>
	</g>
	<g>
		<g>
			<path class="st4" d="M128,168.2c-6.4,3.3-15.9,3.7-18.7-4.5c-0.2-0.7-1.4-0.4-1.2,0.3c3,9,13.3,9,20.4,5.3
				C129.3,168.9,128.7,167.8,128,168.2L128,168.2z"/>
		</g>
	</g>
	<ellipse class="st1" cx="123.6" cy="118.8" rx="18.8" ry="12.2"/>
	<g>
		<g>
			<g>
				<path d="M84.6,106.7c2.2-0.3,3.6-0.9,4.9-2.7c1.4-2,1-4.1,0.8-6.5c-0.1-0.8-1.3-0.8-1.2,0c0.1,1.6,0.6,3.5-0.1,5
					c-0.8,1.9-2.4,2.7-4.4,3C83.9,105.6,83.9,106.8,84.6,106.7L84.6,106.7z"/>
			</g>
		</g>
		<g>
			<g>
				<g>
					<path d="M89.7,97.9c6.9,0.1,13.8,1.3,20.7,0.2c0.8-0.1,0.4-1.3-0.3-1.2c-6.8,1.1-13.6-0.1-20.4-0.2C89,96.7,89,97.9,89.7,97.9
						L89.7,97.9z"/>
				</g>
			</g>
			<g>
				<g>
					<path d="M110.3,97.3c-0.3,2.1-0.5,4.7,0.5,6.7c0.8,1.6,2.4,2.1,4,2.6c0.7,0.2,1.1-1,0.3-1.2c-1.6-0.4-2.9-0.9-3.5-2.7
						c-0.5-1.6-0.4-3.5-0.1-5.1C111.6,96.8,110.4,96.5,110.3,97.3L110.3,97.3z"/>
				</g>
			</g>
			<g>
				<g>
					<g>
						<g>
							<g>
								<path d="M40,277.3c3.8,0.2,7.5,0.4,11.2,0.9c0.8,0.1,0.8-1.1,0-1.2c-3.7-0.4-7.5-0.7-11.2-0.9C39.2,276,39.2,277.2,40,277.3
									L40,277.3z"/>
							</g>
						</g>
						<g>
							<g>
								<path d="M40.5,276.8c1.3-21.6,3-43.1,4.8-64.6c0.1-0.8-1.1-0.8-1.2,0c-1.8,21.5-3.5,43.1-4.8,64.6
									C39.2,277.5,40.4,277.5,40.5,276.8L40.5,276.8z"/>
							</g>
						</g>
					</g>
					<g>
						<g>
							<g>
								<path d="M55,137.3c0.2-8.6,0.4-19,7.2-25.3c6.2-5.8,15.4-5.7,23.3-5.5c0.8,0,0.8-1.2,0-1.2c-8.3-0.2-17.7-0.2-24.2,5.8
									c-7,6.5-7.4,17.3-7.5,26.1C53.7,138,54.9,138,55,137.3L55,137.3z"/>
							</g>
						</g>
						<g>
							<g>
								<g>
									<path d="M52.4,277.2c2.4-21.8,4.5-43.7,7.3-65.5c0.1-0.8-1.1-0.8-1.2,0c-2.8,21.8-4.9,43.6-7.3,65.5
										C51.1,278,52.3,278,52.4,277.2L52.4,277.2z"/>
								</g>
							</g>
							<g>
								<g>
									<path d="M59.6,212.6c4-14.2,7.1-28.7,10.5-43.1c0.2-0.8-1-1.1-1.2-0.3c-3.3,14.4-6.4,28.9-10.5,43.1
										C58.2,213,59.4,213.3,59.6,212.6L59.6,212.6z"/>
								</g>
							</g>
							<g>
								<g>
									<path d="M62.7,156.2c2.1,5.2,4.1,11.3,9.9,13.3c0.7,0.2,1-0.9,0.3-1.2c-5.4-1.8-7.2-7.7-9.1-12.5
										C63.6,155.2,62.4,155.5,62.7,156.2L62.7,156.2z"/>
								</g>
							</g>
							<g>
								<g>
									<path d="M70.2,169.2c-0.1-0.2,0-0.4,0.1-0.5c0.4-0.6-0.6-1.2-1-0.6c-0.3,0.4-0.4,0.9-0.2,1.5
										C69.2,170.3,70.4,170,70.2,169.2L70.2,169.2z"/>
								</g>
							</g>
							<g>
								<g>
									<path d="M45.1,213c1.7-25.6,6.1-51,9.7-76.4c0.1-0.8-1-1.1-1.2-0.3c-3.6,25.5-8,51-9.7,76.7
										C43.9,213.8,45.1,213.8,45.1,213L45.1,213z"/>
								</g>
							</g>
							<g>
								<g>
									<path d="M68.7,262.5c3.1-16.2,5.6-32.4,7.4-48.8c0.1-0.8-1.1-0.8-1.2,0c-1.8,16.3-4.2,32.4-7.3,48.5
										C67.4,263,68.6,263.3,68.7,262.5L68.7,262.5z"/>
								</g>
							</g>
							<g>
								<g>
									<path d="M76.2,214.9c0.8-7.6-0.3-15-1.4-22.4c-1.1-7.9-2.3-15.9-3.4-23.8c-0.1-0.8-1.3-0.4-1.2,0.3
										c1,7.3,2.1,14.6,3.1,21.9c1.1,8,2.5,15.9,1.6,24C74.9,215.7,76.1,215.7,76.2,214.9L76.2,214.9z"/>
								</g>
							</g>
						</g>
					</g>
				</g>
				<g>
					<g>
						<g>
							<g>
								<g>
									<path d="M160.1,276.1c-3.8,0.2-7.5,0.4-11.2,0.9c-0.8,0.1-0.8,1.3,0,1.2c3.7-0.4,7.5-0.7,11.2-0.9
										C160.9,277.2,160.9,276,160.1,276.1L160.1,276.1z"/>
								</g>
							</g>
							<g>
								<g>
									<path d="M160.9,276.8c-1.3-21.6-3-43.1-4.8-64.6c-0.1-0.8-1.3-0.8-1.2,0c1.8,21.5,3.5,43.1,4.8,64.6
										C159.7,277.5,160.9,277.5,160.9,276.8L160.9,276.8z"/>
								</g>
							</g>
						</g>
						<g>
							<g>
								<g>
									<path d="M146.4,137.3c-0.2-8.9-0.5-19.6-7.5-26.1c-6.5-6-15.9-6-24.2-5.8c-0.8,0-0.8,1.2,0,1.2c8-0.2,17.1-0.4,23.3,5.5
										c6.7,6.3,7,16.7,7.2,25.3C145.2,138,146.4,138,146.4,137.3L146.4,137.3z"/>
								</g>
							</g>
							<g>
								<g>
									<g>
										<path d="M148.9,277.2c-2.4-21.8-4.5-43.7-7.3-65.5c-0.1-0.8-1.3-0.8-1.2,0c2.8,21.8,4.9,43.6,7.3,65.5
											C147.8,278,149,278,148.9,277.2L148.9,277.2z"/>
									</g>
								</g>
								<g>
									<g>
										<path d="M141.7,212.3c-4-14.2-7.1-28.7-10.5-43.1c-0.2-0.8-1.3-0.4-1.2,0.3c3.3,14.4,6.4,28.9,10.5,43.1
											C140.8,213.3,141.9,213,141.7,212.3L141.7,212.3z"/>
									</g>
								</g>
								<g>
									<g>
										<path d="M136.3,155.9c-1.9,4.8-3.7,10.6-9.1,12.5c-0.7,0.2-0.4,1.4,0.3,1.2c5.8-2,7.8-8.1,9.9-13.3
											C137.7,155.5,136.6,155.2,136.3,155.9L136.3,155.9z"/>
									</g>
								</g>
								<g>
									<g>
										<path d="M131.1,169.5c0.1-0.5,0.1-1-0.2-1.5c-0.4-0.6-1.5,0-1,0.6c0.1,0.2,0.2,0.3,0.1,0.5
											C129.8,170,130.9,170.3,131.1,169.5L131.1,169.5z"/>
									</g>
								</g>
								<g>
									<g>
										<path d="M156.2,213c-1.7-25.7-6.1-51.2-9.7-76.7c-0.1-0.8-1.3-0.4-1.2,0.3c3.6,25.4,7.9,50.8,9.7,76.4
											C155.1,213.8,156.3,213.8,156.2,213L156.2,213z"/>
									</g>
								</g>
								<g>
									<g>
										<path d="M132.6,262.2c-3.1-16-5.6-32.2-7.3-48.5c-0.1-0.8-1.3-0.8-1.2,0c1.8,16.4,4.2,32.6,7.4,48.8
											C131.6,263.3,132.7,263,132.6,262.2L132.6,262.2z"/>
									</g>
								</g>
								<g>
									<g>
										<path d="M125.2,214.9c-0.9-8.1,0.5-16,1.6-24c1-7.3,2.1-14.6,3.1-21.9c0.1-0.8-1-1.1-1.2-0.3c-1.1,7.9-2.3,15.9-3.4,23.8
											c-1.1,7.5-2.2,14.9-1.4,22.4C124,215.7,125.2,215.7,125.2,214.9L125.2,214.9z"/>
									</g>
								</g>
							</g>
						</g>
					</g>
					<g>
						<g>
							<path d="M68.3,263.3c20.9,1.5,42.3,2.2,63.2,0c0.8-0.1,0.8-1.3,0-1.2c-20.9,2.1-42.3,1.5-63.2,0
								C67.6,262,67.6,263.2,68.3,263.3L68.3,263.3z"/>
						</g>
					</g>
				</g>
			</g>
		</g>
	</g>
	<line class="st0" x1="75.3" y1="107.5" x2="89.2" y2="106.6"/>
	<line class="st0" x1="85.1" y1="113.1" x2="92.7" y2="103.9"/>
	<line class="st0" x1="144.2" y1="129.9" x2="143.3" y2="121.9"/>
</g>
</svg>
