<?xml version="1.0" encoding="utf-8"?>
<!-- Generator: Adobe Illustrator 21.0.2, SVG Export Plug-In . SVG Version: 6.00 Build 0)  -->
<svg version="1.1" id="Layer_1" xmlns="http://www.w3.org/2000/svg" xmlns:xlink="http://www.w3.org/1999/xlink" x="0px" y="0px"
	 viewBox="0 0 200 600" style="enable-background:new 0 0 200 600;" xml:space="preserve">
<style type="text/css">
	.st0{fill:#F9EE53;}
	.st1{fill:#603015;}
	.st2{fill:#FFE329;}
	.st3{fill:#100D0C;}
</style>
<g>
	<g>
		<g>
			<path class="st0" d="M73.9,87.5c-0.4-3.1-0.8-6.1-1.3-9.2c-0.1-0.8-1.3-0.4-1.1,0.3c0.4,3.1,0.8,6.1,1.3,9.2
				C72.9,88.6,74,88.2,73.9,87.5L73.9,87.5z"/>
		</g>
	</g>
	<g>
		<g>
			<path class="st0" d="M69.1,118.1c-2.1-1.8-0.9-6.9-1-9.4c-0.1-2.6-0.5-5.2-0.8-7.8c-0.1-0.7-1.3-0.8-1.2,0
				c0.5,3.9,1,7.8,0.9,11.8c-0.1,2.4-0.6,4.6,1.3,6.3C68.9,119.4,69.7,118.6,69.1,118.1L69.1,118.1z"/>
		</g>
	</g>
	<g>
		<g>
			<path class="st0" d="M76,112.8c-0.1-1.7,0.3-3.5,0.2-5.3c-0.1-1.7-0.4-3.3-0.9-4.9c-0.2-0.7-1.4-0.4-1.1,0.3
				c0.5,1.7,0.9,3.5,0.9,5.3c0,1.5-0.4,3-0.2,4.6C74.8,113.6,76,113.6,76,112.8L76,112.8z"/>
		</g>
	</g>
	<g>
		<g>
			<path class="st0" d="M86.4,118.8c-1.1-6.5-1.5-13.1,0.9-19.4c0.3-0.7-0.9-1-1.1-0.3c-2.5,6.5-2,13.3-0.9,20
				C85.4,119.9,86.6,119.6,86.4,118.8L86.4,118.8z"/>
		</g>
	</g>
	<g>
		<g>
			<path class="st0" d="M73.8,86c-1.8-4-1.6-8.3-1.4-12.5c0-0.8-1.2-0.8-1.2,0c-0.2,4.5-0.3,8.9,1.6,13.1
				C73.1,87.3,74.1,86.7,73.8,86L73.8,86z"/>
		</g>
	</g>
	<g>
		<g>
			<path class="st0" d="M127,86.2c-0.3,1.6-0.4,3.2-0.5,4.8c0,0.8,1.2,0.8,1.2,0c0-1.5,0.2-3,0.4-4.5
				C128.2,85.7,127.1,85.4,127,86.2L127,86.2z"/>
		</g>
	</g>
	<g>
		<g>
			<path class="st0" d="M121.6,90.8c0,1.6,0.1,3.2,0.1,4.8c0,0.8,1.2,0.8,1.2,0c0-1.6-0.1-3.2-0.1-4.8
				C122.7,90.1,121.6,90.1,121.6,90.8L121.6,90.8z"/>
		</g>
	</g>
	<g>
		<g>
			<path class="st0" d="M76.4,106.3c0.2-1.5,0.1-3-0.2-4.5c-0.2-0.7-1.3-0.4-1.1,0.3c0.3,1.4,0.3,2.8,0.2,4.2
				C75.1,107,76.3,107,76.4,106.3L76.4,106.3z"/>
		</g>
	</g>
	<g>
		<g>
			<path class="st0" d="M78.6,96c-0.1-1.5-0.2-3-0.3-4.5c-0.1-0.8-1.2-0.8-1.2,0c0.1,1.5,0.2,3,0.3,4.5C77.5,96.8,78.7,96.8,78.6,96
				L78.6,96z"/>
		</g>
	</g>
	<g>
		<g>
			<path class="st0" d="M127.2,41.9c2.1,2.4,4.3,4.9,4.5,8.3c0,0.8,1.2,0.8,1.2,0c-0.2-3.7-2.5-6.5-4.8-9.1
				C127.5,40.5,126.7,41.3,127.2,41.9L127.2,41.9z"/>
		</g>
	</g>
	<g>
		<g>
			<path class="st0" d="M78.9,36.7c2.9-4,7.4-6.2,12.3-5.9c0.8,0,0.8-1.2,0-1.2c-5.3-0.3-10.3,2.2-13.4,6.5
				C77.4,36.8,78.4,37.3,78.9,36.7L78.9,36.7z"/>
		</g>
	</g>
	<g>
		<g>
			<path class="st0" d="M131.1,72.6c0.8-3.8,1.1-7.6,0.7-11.5c-0.1-0.8-1.3-0.8-1.2,0c0.4,3.8,0.1,7.5-0.7,11.2
				C129.8,73.1,131,73.4,131.1,72.6L131.1,72.6z"/>
		</g>
	</g>
	<g>
		<g id="XMLID_2_">
			<g>
				<path class="st1" d="M84.6,121.8c-0.5-0.2-0.9-0.5-1.3-0.8c-0.1-0.1-0.1-0.1-0.2-0.2c0.7,0.5,1.6,0.9,2.5,1.1
					C85.3,121.9,84.9,121.9,84.6,121.8z"/>
				<path class="st2" d="M65.4,80.3c-0.2-5.8-0.4-11.7-0.6-17.5c-0.1-3.5-0.2-7,0.1-10.4c0.2-2.5,0.7-5,1.6-7.4
					c0.7-1.8,1.7-3.4,2.8-4.9c3.4-4.9,7.9-9.2,13.4-11.6c5.4-2.4,11.8-2.8,17.2-0.4c5.4-2.4,11.8-2,17.2,0.4
					c5.5,2.4,10,6.7,13.4,11.6c1.1,1.6,2.1,3.2,2.8,4.9c0.9,2.3,1.4,4.8,1.6,7.4c0.3,3.5,0.2,6.9,0.1,10.4
					c-0.2,6.4-0.4,12.9-0.6,19.3h-0.1c-0.2,4.5-0.2,9-0.2,13.5c0.1,8.8,0.1,17.7,0.1,26.5h-0.1c0,0.3-0.5,0.4-0.9,0.4
					c-0.8-0.1-1.5-0.2-2.2-0.6c-0.2-0.1-0.4-0.2-0.7-0.3c-0.4-0.1-0.9,0.2-1.3,0.4c-0.4,0.2-1,0.3-1.3-0.1l-1.8,0
					c-0.3,0.1-0.6,0.2-0.9,0.3c-0.7,0.2-1.4,0.2-2.1,0l-0.8,0.1c-1.4,0-2.8-0.1-4.2-0.2l-1.2,0c-0.3-0.1-0.8-0.1-1.2-0.1
					c-0.9,0-1.8-0.3-2.5-1l-0.6-0.1c-0.6-0.3-1-0.8-1.2-1.5l0.3-0.2c-0.2-0.3-0.1-0.8-0.1-1.2c0.5-4.8,0.4-9.7-0.3-14.4l0.1,0
					c-0.3-1.8-0.2-3.7-0.1-5.6c0.1-1.4,0.1-2.7,0.2-4.1l0.2,0c0.1-0.4,0.3-0.9,0.7-1.2c0.5-0.4,1.2-0.7,1.8-0.9c4.8-1.8,9-5,12-9.1
					l0.2,0c0.2-1.2,0.3-2.5,0.5-3.7c0.4-2.6,0.9-5.1,1.2-7.7c0.7-5.9,0.4-11.9-0.2-17.9c-0.2-1.9-0.4-3.8-1.1-5.5
					c-0.7-1.8-2-3.4-3.5-4.7c-3.1-2.7-7.2-4.2-11.2-4.1c-4.1,0.1-8.1,1.7-11.1,4.5h-0.3c-3-2.8-7-4.4-11.1-4.5
					c-4.1-0.1-8.2,1.4-11.2,4.1c-1.5,1.3-2.8,2.9-3.5,4.7c-0.7,1.7-0.9,3.6-1.1,5.5c-0.6,5.9-0.9,11.9-0.2,17.9
					c0.3,2.6,0.8,5.1,1.2,7.7c0.1,0.8,0.3,1.7,0.4,2.5c3.6,4.6,8.5,8.1,13.9,10.3c0.4,0.2,0.9,0.3,1.2,0.7c0.1,0.1,0.1,0.1,0.2,0.2
					l-0.1,0.1c0.5,3.4,0.5,7-0.2,10.4c-0.1,0.6-0.3,1.3-0.6,1.8c-0.3,0.5-0.9,0.9-1.6,0.9l-0.3,0.4c-0.3,3.4,0.4,6.9,0.1,10.3
					c-0.1,0.7-0.1,1.4-0.2,2c-0.1,0.7-0.2,1.4-0.3,2.1c0,0.1-0.1,0.3-0.2,0.4c-0.1,0.1-0.3,0-0.4,0.1c-0.2,0-0.4,0.2-0.5,0.4
					c-0.2,0.2-0.4,0.2-0.6,0.3c-0.9-0.2-1.8-0.6-2.5-1.1c0.1,0.1,0.1,0.1,0.2,0.2l0,0c-0.9-0.4-1.9-0.4-2.7,0l0,0.1
					c-1.3,0.7-2.8,1.3-4.2,1l0.1-0.3c-1.2-0.8-2.8-1-4.1-0.3c-0.6,0.3-1.3,0.8-1.8,0.4l0,0c-0.8-0.7-2-1-3.1-0.8
					c-0.4,0.1-0.8,0.3-1.3,0.3c-0.4,0-0.9-0.2-1-0.7l0-0.2c0-8.9-0.1-17.8-0.1-26.7c0-4.5,0-9,0.2-13.5H65.4z"/>
			</g>
			<g>
			</g>
		</g>
		<g>
			<g>
				<path class="st3" d="M66.4,120.4c-1.7-1.9-0.5-9.4-0.5-11.9c0-4.2,0-8.4,0-12.6c0-8.4,0.1-16.8,0.3-25.3c0-0.8-1.2-0.8-1.2,0
					c-0.1,9.7-0.2,19.4-0.3,29.2c0,4.5,0,9.1,0,13.6c0,2.5-0.9,5.8,0.9,7.9C66,121.8,66.9,121,66.4,120.4L66.4,120.4z"/>
			</g>
		</g>
		<g>
			<g>
				<path class="st3" d="M66.1,71.6c-0.6-7.5-1.7-16,0-23.5c1.6-7.2,8.5-14.4,15-17.7c0.7-0.3,0.1-1.4-0.6-1
					c-5.8,2.9-12,9-14.6,15.1c-3.3,8.1-1.7,18.6-1,27.1C65,72.4,66.2,72.4,66.1,71.6L66.1,71.6z"/>
			</g>
		</g>
		<g>
			<g>
				<path class="st3" d="M80.1,30.9c3-1.8,6.1-3,9.6-3.4c2.7-0.3,7.8-0.7,9.9,1.3c0.6,0.5,1.4-0.3,0.8-0.8c-2.2-2.1-6.8-2-9.5-1.8
					c-4.1,0.3-7.9,1.6-11.4,3.8C78.8,30.3,79.4,31.3,80.1,30.9L80.1,30.9z"/>
			</g>
		</g>
		<g>
			<g>
				<path class="st3" d="M100.1,28.8c8.2-3.3,18.4-1.7,24.3,5.1c0.5,0.6,1.3-0.3,0.8-0.8c-6.1-7.2-16.8-8.9-25.4-5.4
					C99.1,28,99.4,29.1,100.1,28.8L100.1,28.8z"/>
			</g>
		</g>
		<g>
			<g>
				<path class="st3" d="M66.3,122c1.5-0.4,3.2-0.9,4.4,0.4c0.5,0.6,1.3-0.3,0.8-0.8c-1.5-1.6-3.7-1.3-5.5-0.8
					C65.3,121.1,65.6,122.2,66.3,122L66.3,122z"/>
			</g>
		</g>
		<g>
			<g>
				<path class="st3" d="M71.6,122.7c0.6-0.6,1.6-1,2.4-1c0.8-0.1,1.4,0.5,1.9,1.1c0.5,0.6,1.4-0.3,0.8-0.8
					c-0.8-0.8-1.6-1.5-2.8-1.5c-1.1,0.1-2.4,0.6-3.2,1.4C70.2,122.4,71,123.2,71.6,122.7L71.6,122.7z"/>
			</g>
		</g>
		<g>
			<g>
				<path class="st3" d="M76.9,123c1.5-0.7,3-1.4,4.6-1.7c1.7-0.4,2.4,0.6,3.8,1.1c0.7,0.2,1-0.9,0.3-1.1c-1.5-0.5-2.1-1.5-3.9-1.2
					c-1.9,0.3-3.7,1.1-5.4,2C75.6,122.3,76.2,123.3,76.9,123L76.9,123z"/>
			</g>
		</g>
		<g>
			<g>
				<path class="st3" d="M85.5,122.6c3-0.9,2.5-3.5,2.4-6.1c0-2.4,0-5.1,0.4-7.5c0.4-2,1.5-3.6,1.7-5.7c0.1-0.8-1.1-0.8-1.2,0
					c0.1-0.7-1.6,3.6-1.6,4.1c-0.2,1.2-0.2,2.5-0.2,3.7c-0.1,2.1,0.8,9.5-1.8,10.3C84.5,121.7,84.8,122.8,85.5,122.6L85.5,122.6z"/>
			</g>
		</g>
		<g>
			<g>
				<path class="st3" d="M89.6,104.3c0.4-1.7,0.9-3.3,1.1-5.1c0.3-2.3,0.4-4.5,0.2-6.8c-0.1-0.8-1.3-0.8-1.2,0c0.2,2,0.1,4-0.1,6
					c-0.2,2-0.7,3.7-1.1,5.6C88.3,104.7,89.4,105,89.6,104.3L89.6,104.3z"/>
			</g>
		</g>
		<g>
			<g>
				<path class="st3" d="M90.5,91.6c-5.3-2-12.1-5.1-15.1-10.2c-0.4-0.7-1.4-0.1-1,0.6c3.2,5.4,10.2,8.5,15.8,10.7
					C90.9,93.1,91.2,91.9,90.5,91.6L90.5,91.6z"/>
			</g>
		</g>
		<g>
			<g>
				<path class="st3" d="M125.7,82.6c-2.3,2.8-5.1,5.1-8.3,6.9c-2.3,1.3-5.1,1.8-6.5,4.2c-0.4,0.7,0.6,1.3,1,0.6
					c1.5-2.6,5.9-3.5,8.4-5.2c2.3-1.6,4.4-3.5,6.2-5.6C127,82.8,126.2,82,125.7,82.6L125.7,82.6z"/>
			</g>
		</g>
		<g>
			<g>
				<path class="st3" d="M113.2,120.7c-1.8-1.6-1-5-0.9-7c0.1-2.5,0.1-5,0.1-7.4c0-4.1-0.3-8.2-0.3-12.3c0-0.8-1.2-0.8-1.2,0
					c0,5.4,0.3,10.7,0.3,16.1c0,3.4-1.7,8.9,1.2,11.5C112.9,122,113.8,121.2,113.2,120.7L113.2,120.7z"/>
			</g>
		</g>
		<g>
			<g>
				<path class="st3" d="M112.5,121.8c0.4,0.5,1,0.7,1.6,0.7c1.1,0,2-0.4,3,0.1c0.7,0.3,1.3-0.7,0.6-1c-0.6-0.3-1.3-0.5-2-0.4
					c-0.8,0-1.8,0.6-2.4-0.1C112.8,120.4,112,121.2,112.5,121.8L112.5,121.8z"/>
			</g>
		</g>
		<g>
			<g>
				<path class="st3" d="M117.5,122.9c1,0.2,1.5,0.4,2.5,0c1.2-0.4,2.4-0.5,3.7-0.4c0.8,0.1,0.8-1.1,0-1.2c-1-0.1-1.9-0.1-2.8,0.1
					c-0.5,0.1-0.9,0.3-1.4,0.4c-0.6,0.1-1,0.1-1.6-0.1C117.1,121.6,116.8,122.7,117.5,122.9L117.5,122.9z"/>
			</g>
		</g>
		<g>
			<g>
				<path class="st3" d="M123.7,122.5c0.7,0.4,1.3,0.3,2,0.1c0.3-0.1,0.7-0.5,1.1-0.4c0.3,0,0.6,0.4,0.9,0.6c0.6,0.4,1.2-0.6,0.6-1
					c-0.5-0.4-0.8-0.9-1.5-0.9c-0.9,0-1.6,1.1-2.5,0.6C123.6,121.1,123,122.2,123.7,122.5L123.7,122.5z"/>
			</g>
		</g>
		<g>
			<g>
				<path class="st3" d="M127.7,123.2c0.5,0.2,1,0.1,1.4-0.3c0.4-0.3,0.4-0.7,1.1-0.7c0.5,0,1,0.3,1.4,0.5c1,0.5,2.1,0.7,2.9-0.4
					c0.4-0.6-0.6-1.2-1-0.6c-0.4,0.6-2.4-0.7-3.1-0.7c-0.4,0-0.7,0-1.1,0.2c-0.3,0.2-0.9,1-1.3,0.9
					C127.3,121.8,127,122.9,127.7,123.2L127.7,123.2z"/>
			</g>
		</g>
		<g>
			<g>
				<path class="st3" d="M134.4,122.5c0.2-3.3,0.5-6.3,0.2-9.6c-0.3-3.3,0.4-6.5,0.1-9.8c-0.1-0.8-1.3-0.8-1.2,0
					c0.3,3.3-0.4,6.5-0.1,9.8c0.3,3.2,0.1,6.3-0.2,9.6C133.1,123.2,134.3,123.2,134.4,122.5L134.4,122.5z"/>
			</g>
		</g>
		<g>
			<g>
				<path class="st3" d="M134.8,103.7c-1.1-7.2-0.2-15.1,0-22.4c0-0.8-1.2-0.8-1.2,0c-0.1,7.4-1.1,15.3,0,22.7
					C133.7,104.8,134.9,104.4,134.8,103.7L134.8,103.7z"/>
			</g>
		</g>
		<g>
			<g>
				<path class="st3" d="M134.7,82.5c0.3-9.2,0.6-18.3,0.8-27.5c0-0.8-1.2-0.8-1.2,0c-0.3,9.2-0.6,18.3-0.8,27.5
					C133.5,83.2,134.7,83.2,134.7,82.5L134.7,82.5z"/>
			</g>
		</g>
		<g>
			<g>
				<path class="st3" d="M124.1,33.8c7,4.7,11,13.7,10.5,22c0,0.8,1.1,0.8,1.2,0c0.5-8.7-3.7-18.1-11.1-23
					C124,32.4,123.4,33.4,124.1,33.8L124.1,33.8z"/>
			</g>
		</g>
		<g>
			<g>
				<path class="st3" d="M75.5,82c-1.6-9.7-2.4-18.7-0.9-28.5c0.8-4.9,2.5-9,7.1-11.4c5.3-2.9,14.7-3,18.4,2.6c0.4,0.6,1.5,0,1-0.6
					c-5.3-7.9-19.2-6-24.6,0.8c-3.7,4.7-3.7,12.1-3.9,17.8c-0.2,6.9,0.6,12.8,1.7,19.6C74.5,83.1,75.7,82.8,75.5,82L75.5,82z"/>
			</g>
		</g>
		<g>
			<g>
				<path class="st3" d="M101,44.8c2.5-4.4,10.6-5.1,15.1-4.1c5.1,1.1,9.2,4.4,10.8,9.5c0.2,0.7,1.4,0.4,1.1-0.3
					c-1.9-6-6.9-9.7-13.1-10.6c-4.8-0.6-12.3,0.3-15,4.9C99.6,44.9,100.7,45.5,101,44.8L101,44.8z"/>
			</g>
		</g>
		<g>
			<g>
				<path class="st3" d="M126.5,83.4c2.6-10.9,3.1-22.9,1.4-33.9c-0.1-0.8-1.3-0.4-1.1,0.3c1.7,10.9,1.2,22.6-1.4,33.3
					C125.2,83.8,126.3,84.1,126.5,83.4L126.5,83.4z"/>
			</g>
		</g>
		<g>
			<g>
				<path class="st3" d="M74.2,81.1c0.3,5.5,0.7,11.1,1.3,16.6c0.1,0.8,1.3,0.8,1.2,0c-0.6-5.5-1.1-11-1.3-16.6
					C75.3,80.3,74.1,80.3,74.2,81.1L74.2,81.1z"/>
			</g>
		</g>
		<g>
			<g>
				<path class="st3" d="M126,81.1c-1.1,6.2-1.2,12.5-1.5,18.7c0,0.8,1.2,0.8,1.2,0c0.3-6.1,0.3-12.4,1.4-18.4
					C127.3,80.6,126.1,80.3,126,81.1L126,81.1z"/>
			</g>
		</g>
		<g>
			<g>
				<path class="st3" d="M129.3,117.2c-0.3-3.9-0.5-7.8-0.2-11.7c0.3-4,1.1-8,0.9-12c0-0.8-1.2-0.8-1.2,0c0.2,4.1-0.7,8-0.9,12
					c-0.2,3.9-0.1,7.8,0.2,11.7C128.2,117.9,129.4,117.9,129.3,117.2L129.3,117.2z"/>
			</g>
		</g>
		<g>
			<g>
				<path class="st3" d="M76.3,97.5c-1.4-3-2.6-6.2-3.5-9.4c-0.2-0.7-1.3-0.4-1.1,0.3c0.9,3.3,2.1,6.6,3.6,9.7
					C75.6,98.8,76.6,98.2,76.3,97.5L76.3,97.5z"/>
			</g>
		</g>
		<g>
			<g>
				<path class="st0" d="M101.4,39.3c-0.2-1.3-0.8-2.3-1.6-3.2c-0.2,0.3-0.5,0.6-0.7,0.9c0.5,0.3,0.5,0.3,1.1,0.5
					c0.5,0.2,0.9-0.4,0.7-0.9c-0.2-0.3-0.4-0.6-0.6-1c-0.2,0.3-0.3,0.6-0.5,0.9c0.3,0,0.5,0.1,0.8,0.1c0.5,0.1,0.7-0.5,0.5-0.9
					c-0.2-0.5-0.4-0.9-0.7-1.4c-0.2,0.3-0.4,0.6-0.7,0.9c0.2,0,0.4,0.1,0.7,0.1c0.4,0.1,0.8-0.1,0.8-0.6c0-0.9-0.2-1.7-0.7-2.4
					c-0.1,0.3-0.1,0.5-0.2,0.8c1.1-0.6,0.7-2.2,0.2-3.1c-0.3-0.5-1.1-0.3-1.1,0.3c0,0.2,0,0.5,0,0.7c0,0.4,0.4,0.7,0.8,0.6
					c0.2-0.1,0.4-0.2,0.6-0.2c-0.2-0.1-0.5-0.3-0.7-0.4c-0.1,0.6-0.1,1.1-0.2,1.7c-0.1,0.3-0.1,0.7,0.2,0.8c0.3,0.2,0.5,0.2,0.8,0.1
					c-0.2-0.2-0.5-0.5-0.7-0.7c-0.1,0.6-0.2,1.1-0.3,1.7c-0.1,0.4,0.2,0.8,0.6,0.8c0.2,0,0.3,0,0.5,0c-0.2-0.3-0.4-0.5-0.6-0.8
					c-0.1,0.6-0.2,1.2-0.1,1.8c0.1,0.5,0.8,1.9,0.4,2.3c0.3,0.1,0.7,0.2,1,0.3c-0.2-1.3,0.2-2.2,0.2-3.4c0-0.3,0-0.4-0.1-0.7
					c0-0.2-0.3-0.3-0.3-0.5c-0.1-0.6,0.1-1.4,0.1-2.1c0.1-0.8-1.1-0.8-1.2,0c-0.1,0.7-0.3,1.6-0.1,2.3c0.1,0.2,0.3,0.5,0.4,0.6
					c0.1,0.6-0.2,1.3-0.2,1.9c-0.1,0.7,0,1.4,0.2,2.1c0.1,0.4,0.7,0.6,1,0.3c1.3-1.3-0.2-3,0.1-4.6c0.1-0.4-0.2-0.8-0.6-0.8
					c-0.2,0-0.3,0-0.5,0c0.2,0.3,0.4,0.5,0.6,0.8c0.1-0.6,0.2-1.1,0.3-1.7c0.1-0.4-0.3-0.9-0.7-0.7c0,0,0,0,0.1,0
					c0.1,0.3,0.1,0.5,0.2,0.8c0.5-0.9,0.6-1.6,0.3-2.6c-0.1-0.3-0.4-0.5-0.7-0.4c-0.2,0.1-0.4,0.2-0.6,0.2c0.3,0.2,0.5,0.4,0.8,0.6
					c0-0.2,0-0.5,0-0.7c-0.4,0.1-0.7,0.2-1.1,0.3c0.1,0.2,0.2,1.4,0.2,1.4c-0.3,0.2-0.4,0.5-0.2,0.8c0.4,0.5,0.6,1.2,0.6,1.8
					c0.3-0.2,0.5-0.4,0.8-0.6c-0.2,0-0.4-0.1-0.7-0.1c-0.5-0.1-0.9,0.4-0.7,0.9c0.2,0.5,0.4,0.9,0.7,1.4c0.2-0.3,0.3-0.6,0.5-0.9
					c-0.3,0-0.5-0.1-0.8-0.1c-0.5-0.1-0.7,0.5-0.5,0.9c0.2,0.3,0.4,0.6,0.6,1c0.2-0.3,0.4-0.6,0.7-0.9c-0.3-0.1-0.5-0.2-0.8-0.4
					c-0.6-0.4-1.1,0.4-0.7,0.9c0.7,0.8,1.1,1.6,1.3,2.7C100.4,40.4,101.6,40,101.4,39.3L101.4,39.3z"/>
			</g>
		</g>
		<g>
			<g>
				<path class="st0" d="M71.5,109.9c0.2-4.3,0-8.7-0.5-13c-0.1-0.8-1.3-0.8-1.2,0c0.5,4.3,0.6,8.6,0.5,13
					C70.3,110.7,71.5,110.7,71.5,109.9L71.5,109.9z"/>
			</g>
		</g>
		<g>
			<g>
				<path class="st3" d="M125.5,100.5c1.7-2.5,3-5.1,4.2-7.8c0.3-0.7-0.9-1-1.1-0.3c-1.1,2.7-2.5,5.2-4.1,7.5
					C124,100.5,125.1,101.1,125.5,100.5L125.5,100.5z"/>
			</g>
		</g>
		<g>
			<g>
				<path class="st3" d="M71.6,89.1c0.5,4.1,0.8,8.3,0.8,12.5c0,0.8,1.2,0.8,1.2,0c0-4.2-0.3-8.3-0.8-12.5
					C72.7,88.4,71.5,88.4,71.6,89.1L71.6,89.1z"/>
			</g>
		</g>
		<g>
			<g>
				<path class="st0" d="M126.2,115.3c0-3.9,0.2-7.8,0.8-11.7c0.1-0.7-1-1.1-1.1-0.3c-0.6,4-0.9,8-0.8,12
					C125,116.1,126.2,116.1,126.2,115.3L126.2,115.3z"/>
			</g>
		</g>
		<g>
			<g>
				<path class="st0" d="M85.9,114.3c-0.3-5.6,0.6-11.4,0.9-17c0.1-0.8-1.1-0.8-1.2,0c-0.4,5.6-1.2,11.4-0.9,17
					C84.7,115.1,85.9,115.1,85.9,114.3L85.9,114.3z"/>
			</g>
		</g>
		<g>
			<g>
				<path class="st0" d="M113,97.3c0.1,2.3,0.5,4.3,0.9,6.5c0.5,2.9-0.2,5.7-1,8.5c-0.2,0.7,0.9,1.1,1.1,0.3
					c0.6-2.1,1.3-4.5,1.3-6.7c0-2.9-1.1-5.7-1.2-8.6C114.2,96.6,113,96.6,113,97.3L113,97.3z"/>
			</g>
		</g>
		<g>
			<g>
				<path class="st3" d="M74.2,110.8c-0.1-1.8-0.2-3.7-0.4-5.5c0-0.8-1.2-0.8-1.2,0c0.1,1.8,0.2,3.7,0.4,5.5
					C73,111.6,74.2,111.6,74.2,110.8L74.2,110.8z"/>
			</g>
		</g>
		<g>
			<g>
				<path class="st3" d="M73.7,105.6c0-1.2,0-2.4,0-3.7c0-0.8-1.2-0.8-1.2,0c0,1.2,0,2.4,0,3.7C72.5,106.4,73.7,106.4,73.7,105.6
					L73.7,105.6z"/>
			</g>
		</g>
	</g>
	<g>
		<g>
			<g>
				<path class="st0" d="M68.1,65.3c-0.6-4.4-0.7-8.9-0.3-13.3c0.1-0.8-1.1-0.8-1.2,0c-0.4,4.5-0.3,8.9,0.3,13.3
					C67,66.1,68.2,66.1,68.1,65.3L68.1,65.3z"/>
			</g>
		</g>
	</g>
</g>
</svg>
