<?xml version="1.0" encoding="utf-8"?>
<!-- Generator: Adobe Illustrator 21.0.2, SVG Export Plug-In . SVG Version: 6.00 Build 0)  -->
<svg version="1.1" id="Layer_1" xmlns="http://www.w3.org/2000/svg" xmlns:xlink="http://www.w3.org/1999/xlink" x="0px" y="0px"
	 viewBox="0 0 200 600" style="enable-background:new 0 0 200 600;" xml:space="preserve">
<style type="text/css">
	.st0{fill:#603015;}
	.st1{fill:#100D0C;}
	.st2{fill:#613617;}
</style>
<g>
	<g id="XMLID_6_">
		<g>
			<path class="st0" d="M82.5,120.3c0.7,0.5,1.6,0.9,2.5,1.1c-0.3,0.1-0.7,0-1.1-0.1c-0.5-0.2-0.9-0.5-1.3-0.8
				C82.7,120.5,82.6,120.4,82.5,120.3z"/>
			<path class="st0" d="M80,120.6c-1.3,0.7-2.8,1.3-4.2,1l0.1-0.3c-1.2-0.8-2.8-1-4.1-0.3c-0.6,0.3-1.3,0.8-1.8,0.4l0,0
				c-0.8-0.7-2-1-3.1-0.8c-0.4,0.1-0.8,0.3-1.3,0.3c-0.4,0-0.9-0.2-1-0.7l0-0.2c0-8.9-0.1-17.8-0.1-26.7c0-4.5,0-9,0.2-13.5h0.1
				c-0.2-5.8-0.4-11.7-0.6-17.5c-0.1-3.5-0.2-7,0.1-10.4c0.2-2.5,0.7-5,1.6-7.4c0.7-1.8,1.7-3.4,2.8-4.9c3.4-4.9,7.9-9.2,13.4-11.6
				c5.4-2.4,11.8-2.8,17.2-0.4c5.4-2.4,11.8-2,17.2,0.4c5.5,2.4,10,6.7,13.4,11.6c1.1,1.6,2.1,3.2,2.8,4.9c0.9,2.3,1.4,4.9,1.6,7.4
				c0.3,3.5,0.2,6.9,0.1,10.4c-0.2,6.4-0.4,12.9-0.6,19.3h-0.1c-0.2,4.5-0.2,9-0.2,13.5c0,8.8,0.1,17.7,0.1,26.5h-0.1
				c0,0.3-0.5,0.4-0.9,0.4c-0.8-0.1-1.5-0.2-2.2-0.6c-0.2-0.1-0.4-0.2-0.6-0.3c-0.5-0.1-0.9,0.2-1.3,0.4s-1,0.3-1.3-0.1l-1.8,0
				c-0.3,0.1-0.6,0.2-0.9,0.3c-0.7,0.2-1.4,0.2-2.1,0l-0.8,0.1c-1.4,0-2.8-0.1-4.2-0.2l-1.2,0c-0.3-0.1-0.8-0.1-1.2-0.1
				c-0.9,0-1.8-0.3-2.5-1l-0.6-0.1c-0.6-0.3-1-0.8-1.2-1.5l0.3-0.2c-0.2-0.3-0.1-0.8-0.1-1.2c0.5-4.8,0.4-9.7-0.3-14.4l0.1,0
				c-0.3-1.8-0.2-3.7-0.1-5.6c0.1-1.4,0.1-2.7,0.2-4.1l0.2,0c0.1-0.4,0.3-0.9,0.7-1.2c0.5-0.4,1.2-0.7,1.8-0.9c4.8-1.8,9-5,12-9.1
				l0.2,0c0.2-1.2,0.3-2.5,0.5-3.7c0.4-2.6,0.9-5.1,1.2-7.7c0.7-5.9,0.4-11.9-0.2-17.9c-0.2-1.9-0.4-3.8-1.1-5.5
				c-0.7-1.8-2-3.4-3.5-4.7c-3.1-2.7-7.2-4.2-11.2-4.1c-4.1,0.1-8.1,1.7-11.1,4.5H100c-3-2.8-7-4.4-11.1-4.5
				c-4.1-0.1-8.2,1.4-11.2,4.1c-1.5,1.3-2.8,2.9-3.5,4.7c-0.7,1.7-0.9,3.6-1.1,5.5C72.6,59.1,72.3,65.1,73,71
				c0.3,2.6,0.8,5.2,1.2,7.7c0.1,0.8,0.3,1.7,0.4,2.5c3.6,4.6,8.5,8.1,13.9,10.3c0.4,0.2,0.9,0.3,1.2,0.7c0.1,0.1,0.1,0.1,0.2,0.2
				l-0.1,0.1c0.5,3.4,0.5,7-0.2,10.4c-0.1,0.6-0.3,1.3-0.6,1.8c-0.3,0.5-0.9,0.9-1.6,0.9l-0.3,0.4c-0.3,3.4,0.4,6.9,0.1,10.4
				c-0.1,0.7-0.1,1.4-0.2,2c-0.1,0.7-0.2,1.4-0.3,2.1c0,0.1-0.1,0.3-0.2,0.4c-0.1,0.1-0.3,0-0.4,0.1c-0.2,0-0.4,0.2-0.5,0.4
				c-0.2,0.2-0.4,0.2-0.6,0.3c-0.9-0.2-1.8-0.6-2.5-1.1c0.1,0.1,0.1,0.1,0.2,0.2l0,0C81.9,120.2,80.9,120.2,80,120.6L80,120.6z"/>
		</g>
		<g>
		</g>
	</g>
	<g>
		<g>
			<path class="st1" d="M65.8,120c-1.7-1.9-0.5-9.4-0.5-11.9c0-4.2,0-8.4,0-12.6c0-8.4,0.1-16.8,0.3-25.3c0-0.8-1.2-0.8-1.2,0
				c-0.1,9.7-0.2,19.4-0.3,29.2c0,4.5,0,9.1,0,13.6c0,2.5-0.9,5.8,0.9,7.9C65.5,121.4,66.3,120.6,65.8,120L65.8,120z"/>
		</g>
	</g>
	<g>
		<g>
			<path class="st1" d="M65.6,71.2c-0.6-7.5-1.7-16,0-23.5c1.6-7.2,8.5-14.4,15-17.7c0.7-0.3,0.1-1.4-0.6-1c-5.8,2.9-12,9-14.6,15.1
				c-3.3,8.1-1.7,18.6-1,27.1C64.4,71.9,65.6,72,65.6,71.2L65.6,71.2z"/>
		</g>
	</g>
	<g>
		<g>
			<path class="st1" d="M79.5,30.5c3-1.8,6.1-3,9.6-3.4c2.7-0.3,7.8-0.7,9.9,1.3c0.6,0.5,1.4-0.3,0.8-0.8c-2.2-2.1-6.8-2-9.5-1.8
				c-4.1,0.3-7.9,1.6-11.4,3.8C78.3,29.9,78.9,30.9,79.5,30.5L79.5,30.5z"/>
		</g>
	</g>
	<g>
		<g>
			<path class="st1" d="M99.5,28.4c8.2-3.3,18.4-1.7,24.3,5.1c0.5,0.6,1.3-0.3,0.8-0.8c-6.1-7.2-16.8-8.9-25.4-5.4
				C98.5,27.5,98.8,28.7,99.5,28.4L99.5,28.4z"/>
		</g>
	</g>
	<g>
		<g>
			<path class="st1" d="M65.8,121.6c1.5-0.4,3.2-0.9,4.4,0.4c0.5,0.6,1.3-0.3,0.8-0.8c-1.5-1.6-3.7-1.3-5.5-0.8
				C64.7,120.7,65.1,121.8,65.8,121.6L65.8,121.6z"/>
		</g>
	</g>
	<g>
		<g>
			<path class="st1" d="M71,122.3c0.6-0.6,1.6-1,2.4-1c0.8-0.1,1.4,0.5,1.9,1.1c0.5,0.6,1.4-0.3,0.8-0.8c-0.8-0.8-1.6-1.5-2.8-1.5
				c-1.1,0.1-2.4,0.6-3.2,1.4C69.6,122,70.5,122.8,71,122.3L71,122.3z"/>
		</g>
	</g>
	<g>
		<g>
			<path class="st1" d="M76.4,122.5c1.5-0.7,3-1.4,4.6-1.7c1.7-0.4,2.4,0.6,3.8,1.1c0.7,0.2,1-0.9,0.3-1.1c-1.5-0.5-2.1-1.5-3.9-1.2
				c-1.9,0.3-3.7,1.1-5.4,2C75.1,121.9,75.7,122.9,76.4,122.5L76.4,122.5z"/>
		</g>
	</g>
	<g>
		<g>
			<path class="st1" d="M85,122.2c3-0.9,2.5-3.5,2.4-6.1c0-2.4,0-5.1,0.4-7.5c0.4-2,1.5-3.6,1.7-5.7c0.1-0.8-1.1-0.8-1.2,0
				c0.1-0.7-1.6,3.6-1.6,4.1c-0.2,1.2-0.2,2.5-0.2,3.7c-0.1,2.1,0.8,9.5-1.8,10.3C83.9,121.3,84.2,122.4,85,122.2L85,122.2z"/>
		</g>
	</g>
	<g>
		<g>
			<path class="st1" d="M89.1,103.9c0.4-1.7,0.9-3.3,1.1-5.1c0.3-2.3,0.4-4.5,0.2-6.8c-0.1-0.8-1.3-0.8-1.2,0c0.2,2,0.1,4-0.1,6
				c-0.2,2-0.7,3.7-1.1,5.6C87.7,104.3,88.9,104.6,89.1,103.9L89.1,103.9z"/>
		</g>
	</g>
	<g>
		<g>
			<path class="st1" d="M89.9,91.2c-5.3-2-12.1-5.1-15.1-10.2c-0.4-0.7-1.4-0.1-1,0.6C77,87.1,84,90.2,89.6,92.4
				C90.3,92.6,90.7,91.5,89.9,91.2L89.9,91.2z"/>
		</g>
	</g>
	<g>
		<g>
			<path class="st1" d="M125.1,82.1c-2.3,2.8-5.1,5.1-8.3,6.9c-2.3,1.3-5.1,1.8-6.5,4.2c-0.4,0.7,0.6,1.3,1,0.6
				c1.5-2.6,5.9-3.5,8.4-5.2c2.3-1.6,4.4-3.5,6.2-5.6C126.5,82.4,125.6,81.6,125.1,82.1L125.1,82.1z"/>
		</g>
	</g>
	<g>
		<g>
			<path class="st1" d="M112.6,120.3c-1.8-1.6-1-5-0.9-7c0.1-2.5,0.1-5,0.1-7.4c0-4.1-0.3-8.2-0.3-12.3c0-0.8-1.2-0.8-1.2,0
				c0,5.4,0.3,10.7,0.3,16.1c0,3.4-1.7,8.9,1.2,11.5C112.4,121.6,113.2,120.8,112.6,120.3L112.6,120.3z"/>
		</g>
	</g>
	<g>
		<g>
			<path class="st1" d="M111.9,121.4c0.4,0.5,1,0.7,1.6,0.7c1.1,0,2-0.4,3,0.1c0.7,0.3,1.3-0.7,0.6-1c-0.6-0.3-1.3-0.5-2-0.4
				c-0.8,0-1.8,0.6-2.4-0.1C112.3,119.9,111.5,120.8,111.9,121.4L111.9,121.4z"/>
		</g>
	</g>
	<g>
		<g>
			<path class="st1" d="M117,122.5c1,0.2,1.5,0.4,2.5,0c1.2-0.4,2.4-0.5,3.7-0.4c0.8,0.1,0.8-1.1,0-1.2c-1-0.1-1.9-0.1-2.8,0.1
				c-0.5,0.1-0.9,0.3-1.4,0.4c-0.6,0.1-1,0.1-1.6-0.1C116.6,121.2,116.2,122.3,117,122.5L117,122.5z"/>
		</g>
	</g>
	<g>
		<g>
			<path class="st1" d="M123.2,122.1c0.7,0.4,1.3,0.3,2,0.1c0.3-0.1,0.7-0.5,1.1-0.4c0.3,0,0.6,0.4,0.9,0.6c0.6,0.4,1.2-0.6,0.6-1
				c-0.5-0.4-0.8-0.9-1.5-0.9c-0.9,0-1.6,1.1-2.5,0.6C123.1,120.7,122.5,121.7,123.2,122.1L123.2,122.1z"/>
		</g>
	</g>
	<g>
		<g>
			<path class="st1" d="M127.2,122.8c0.5,0.2,1,0.1,1.4-0.3c0.4-0.3,0.4-0.7,1.1-0.7c0.5,0,1,0.3,1.4,0.5c1,0.5,2.1,0.7,2.9-0.4
				c0.4-0.6-0.6-1.2-1-0.6c-0.4,0.6-2.4-0.7-3.1-0.7c-0.4,0-0.7,0-1.1,0.2c-0.3,0.2-0.9,1-1.3,0.9
				C126.8,121.4,126.5,122.5,127.2,122.8L127.2,122.8z"/>
		</g>
	</g>
	<g>
		<g>
			<path class="st1" d="M133.8,122c0.2-3.3,0.5-6.3,0.2-9.6c-0.3-3.3,0.4-6.5,0.1-9.8c-0.1-0.8-1.3-0.8-1.2,0
				c0.3,3.3-0.4,6.5-0.1,9.8c0.3,3.2,0.1,6.3-0.2,9.6C132.6,122.8,133.8,122.8,133.8,122L133.8,122z"/>
		</g>
	</g>
	<g>
		<g>
			<path class="st1" d="M134.2,103.3c-1.1-7.2-0.2-15.1,0-22.4c0-0.8-1.2-0.8-1.2,0c-0.1,7.4-1.1,15.3,0,22.7
				C133.2,104.3,134.3,104,134.2,103.3L134.2,103.3z"/>
		</g>
	</g>
	<g>
		<g>
			<path class="st1" d="M134.2,82c0.3-9.2,0.6-18.3,0.8-27.5c0-0.8-1.2-0.8-1.2,0c-0.3,9.2-0.6,18.3-0.8,27.5
				C133,82.8,134.2,82.8,134.2,82L134.2,82z"/>
		</g>
	</g>
	<g>
		<g>
			<path class="st1" d="M123.5,33.4c7,4.7,11,13.7,10.5,22c0,0.8,1.1,0.8,1.2,0c0.5-8.7-3.7-18.1-11.1-23
				C123.5,31.9,122.9,33,123.5,33.4L123.5,33.4z"/>
		</g>
	</g>
	<g>
		<g>
			<path class="st1" d="M75,81.6c-1.6-9.7-2.4-18.7-0.9-28.5c0.8-4.9,2.5-9,7.1-11.4c5.3-2.9,14.7-3,18.4,2.6c0.4,0.6,1.5,0,1-0.6
				c-5.3-7.9-19.2-6-24.6,0.8c-3.7,4.7-3.7,12.1-3.9,17.8c-0.2,6.9,0.6,12.8,1.7,19.6C74,82.7,75.1,82.4,75,81.6L75,81.6z"/>
		</g>
	</g>
	<g>
		<g>
			<path class="st1" d="M100.5,44.4c2.5-4.4,10.6-5.1,15.1-4.1c5.1,1.1,9.2,4.4,10.8,9.5c0.2,0.7,1.4,0.4,1.1-0.3
				c-1.9-6-6.9-9.7-13.1-10.6c-4.8-0.6-12.3,0.3-15,4.9C99.1,44.5,100.1,45.1,100.5,44.4L100.5,44.4z"/>
		</g>
	</g>
	<g>
		<g>
			<path class="st1" d="M125.9,82.9c2.6-10.9,3.1-22.9,1.4-33.9c-0.1-0.8-1.3-0.4-1.1,0.3c1.7,10.9,1.2,22.6-1.4,33.3
				C124.6,83.4,125.8,83.7,125.9,82.9L125.9,82.9z"/>
		</g>
	</g>
	<g>
		<g>
			<path class="st1" d="M73.6,80.6c0.3,5.5,0.7,11.1,1.3,16.6c0.1,0.8,1.3,0.8,1.2,0c-0.6-5.5-1.1-11-1.3-16.6
				C74.8,79.9,73.6,79.9,73.6,80.6L73.6,80.6z"/>
		</g>
	</g>
	<g>
		<g>
			<path class="st1" d="M125.4,80.6c-1.1,6.2-1.2,12.5-1.5,18.7c0,0.8,1.2,0.8,1.2,0c0.3-6.1,0.3-12.4,1.4-18.4
				C126.7,80.2,125.6,79.9,125.4,80.6L125.4,80.6z"/>
		</g>
	</g>
	<g>
		<g>
			<path class="st1" d="M128.8,116.7c-0.3-3.9-0.5-7.8-0.2-11.7c0.3-4,1.1-8,0.9-12c0-0.8-1.2-0.8-1.2,0c0.2,4.1-0.7,8-0.9,12
				c-0.2,3.9-0.1,7.8,0.2,11.7C127.6,117.5,128.8,117.5,128.8,116.7L128.8,116.7z"/>
		</g>
	</g>
	<g>
		<g>
			<path class="st1" d="M75.7,97.1c-1.4-3-2.6-6.2-3.5-9.4C72,87,70.9,87.3,71.1,88c0.9,3.3,2.1,6.6,3.6,9.7
				C75,98.4,76.1,97.8,75.7,97.1L75.7,97.1z"/>
		</g>
	</g>
	<g>
		<g>
			<path class="st1" d="M124.9,100c1.7-2.5,3-5.1,4.2-7.8c0.3-0.7-0.9-1-1.1-0.3c-1.1,2.7-2.5,5.2-4.1,7.5
				C123.5,100.1,124.5,100.7,124.9,100L124.9,100z"/>
		</g>
	</g>
	<g>
		<g>
			<path class="st1" d="M71.1,88.7c0.5,4.1,0.8,8.3,0.8,12.5c0,0.8,1.2,0.8,1.2,0c0-4.2-0.3-8.3-0.8-12.5C72.2,88,71,88,71.1,88.7
				L71.1,88.7z"/>
		</g>
	</g>
	<g>
		<g>
			<path class="st1" d="M73.6,110.4c-0.1-1.8-0.2-3.7-0.4-5.5c0-0.8-1.2-0.8-1.2,0c0.1,1.8,0.2,3.7,0.4,5.5
				C72.5,111.1,73.7,111.2,73.6,110.4L73.6,110.4z"/>
		</g>
	</g>
	<g>
		<g>
			<path class="st1" d="M73.2,105.2c0-1.2,0-2.4,0-3.7c0-0.8-1.2-0.8-1.2,0c0,1.2,0,2.4,0,3.7C72,106,73.2,106,73.2,105.2
				L73.2,105.2z"/>
		</g>
	</g>
	<g>
		<g>
			<path class="st2" d="M76.9,113.3c-0.7-4-1.3-8-2-12c-0.2-1.1-1.9-0.7-1.7,0.5c0.7,4,1.3,8,2,12C75.3,114.9,77.1,114.4,76.9,113.3
				L76.9,113.3z"/>
		</g>
	</g>
	<g>
		<g>
			<path class="st2" d="M124.8,102.2c-0.1,1.8,0.2,3.4,0.4,5.2c0.3,2.4,0.1,4.6-0.4,6.9c-0.3,1.1,1.5,1.6,1.7,0.5
				c0.5-2,0.7-4.1,0.6-6.2c-0.1-2.2-0.7-4.3-0.5-6.4C126.6,101.1,124.9,101.1,124.8,102.2L124.8,102.2z"/>
		</g>
	</g>
	<g>
		<g>
			<path class="st2" d="M115.7,115.9c-0.7-5.9-1.3-11.9-1.7-17.8c-0.1-1.1-1.9-1.1-1.8,0c0.4,6,1,11.9,1.7,17.8
				C114,117,115.8,117,115.7,115.9L115.7,115.9z"/>
		</g>
	</g>
	<g>
		<g>
			<path class="st2" d="M83.9,114.3c0.6-4.3,1.2-8.7,1.8-13c0.2-1.1-1.6-1.6-1.7-0.5c-0.6,4.3-1.2,8.7-1.8,13
				C82.1,114.9,83.8,115.4,83.9,114.3L83.9,114.3z"/>
		</g>
	</g>
	<g>
		<g>
			<path class="st2" d="M73.5,85.1c-0.7-2.9-1.3-5.8-1.8-8.8c-0.2-1.1-1.9-0.7-1.7,0.5c0.4,3,1,5.9,1.8,8.8
				C72.1,86.7,73.8,86.2,73.5,85.1L73.5,85.1z"/>
		</g>
	</g>
	<g>
		<g>
			<path class="st2" d="M68.8,117.5c-0.2-2.6-0.2-5.2-0.1-7.8c0-1.1-1.7-1.1-1.8,0c-0.1,2.6,0,5.2,0.1,7.8
				C67.1,118.7,68.9,118.7,68.8,117.5L68.8,117.5z"/>
		</g>
	</g>
	<g>
		<g>
			<path class="st2" d="M132.2,118.4c-0.3-2.3-0.4-4.6-0.2-6.8c0.1-1.1-1.7-1.1-1.8,0c-0.2,2.3-0.1,4.6,0.2,6.8
				C130.5,119.5,132.3,119.5,132.2,118.4L132.2,118.4z"/>
		</g>
	</g>
	<g>
		<g>
			<path class="st2" d="M127.6,92c0-1.3,0.2-2.5,0.7-3.8c0.4-1.1-1.4-1.6-1.7-0.5c-0.5,1.4-0.7,2.8-0.7,4.2
				C125.8,93.2,127.6,93.2,127.6,92L127.6,92z"/>
		</g>
	</g>
	<g>
		<g>
			<path class="st2" d="M68,52.9c0-4.5,1.5-8.6,4.4-12c0.8-0.9-0.5-2.1-1.3-1.3c-3.2,3.7-5,8.3-4.9,13.3C66.2,54,68,54,68,52.9
				L68,52.9z"/>
		</g>
	</g>
	<g>
		<g>
			<path class="st2" d="M81.5,39c1.1-1.6,3.4-1.6,5.1-1.8c1.8-0.2,3.6-0.4,5.4-0.6c1.1-0.1,1.1-1.9,0-1.8c-2.6,0.3-5.2,0.4-7.8,0.8
				C82.5,36,81,36.6,80,38.1C79.3,39,80.9,39.9,81.5,39L81.5,39z"/>
		</g>
	</g>
	<g>
		<g>
			<path class="st2" d="M98.8,31.4c-1.2,1.3-0.2,3.7,1.7,2.9c2-0.8,0.9-3.1-0.8-3.3c-0.5-0.1-1.1,0.6-0.9,1.1
				c0.2,0.4,0.1,1.1,0.2,1.6c0.2,0.6,0.5,2.7,0.1,3.3c-0.2,0.4-0.1,1,0.3,1.2c0.4,0.2,0.6,0.2,1,0.3c-0.2-0.4-0.4-0.7-0.6-1.1
				c-0.3,1-0.5,2-0.8,3c-0.3,1.1,1.3,1.5,1.7,0.5c0.3-0.8,0.4-1.6,0.4-2.5c-0.1-1.1-1.9-1.1-1.8,0c0.1,0.7,0,1.3-0.3,2
				c0.6,0.2,1.1,0.3,1.7,0.5c0.3-1,0.5-2,0.8-3c0.1-0.4-0.1-1-0.6-1.1c-0.2,0-0.4-0.1-0.5-0.1c0.1,0.4,0.2,0.8,0.3,1.2
				c0.5-0.9,0.4-1.8,0.4-2.8c0-0.7-0.2-1.2-0.3-1.9c-0.1-0.6,0-1.1-0.2-1.6c-0.3,0.4-0.6,0.8-0.9,1.1c0.1,0,0.2-0.1,0.3-0.1
				C100.8,31.8,99.6,30.6,98.8,31.4L98.8,31.4z"/>
		</g>
	</g>
	<g>
		<g>
			<path class="st2" d="M100,33.5c0-1,0.2-1.8,0.7-2.6c0.6-1-0.9-1.9-1.5-0.9c-0.2,0.3-0.4,0.4-0.7,0.5c0.4,0.3,0.8,0.6,1.1,0.9
				c0.1-0.6,0.4-1,0.8-1.4c-0.5-0.2-1-0.4-1.5-0.6c0,0.3-0.1,0.4-0.3,0.5c0.4,0.2,0.9,0.4,1.3,0.5c0,0,0-0.1,0-0.1
				c-0.1,0.3-0.3,0.7-0.4,1c0,0,0.1,0,0.1-0.1c-0.2,0-0.5,0.1-0.7,0.1c0,0,0.1,0,0.1,0c-0.2-0.2-0.4-0.4-0.6-0.6
				c0.1-0.2,0.1-0.1-0.1,0.2c0,0.2-0.1,0.3-0.1,0.5c-0.1,0.4-0.2,0.8-0.3,1.1c-0.2,0.8,0.6,1.4,1.3,1c0.3-0.2,0.7-0.3,1-0.5
				c-0.4-0.3-0.9-0.7-1.3-1c-0.2,0.5-0.3,1.1-0.5,1.6c-0.4,1.1,1.4,1.6,1.7,0.5c0.2-0.5,0.3-1.1,0.5-1.6c0.3-0.8-0.7-1.3-1.3-1
				c-0.3,0.2-0.7,0.3-1,0.5c0.4,0.3,0.9,0.7,1.3,1c0.2-0.8,0.8-1.9,0.5-2.7c-0.2-0.7-1-1-1.6-0.6c-0.4,0.3-0.5,0.6-0.4,1
				c0,0,0,0.1,0,0.1c0.1,0.6,0.9,0.7,1.3,0.5c0.8-0.3,1.3-1.1,1.2-2c0-0.8-0.9-1.1-1.5-0.6c-0.8,0.7-1.2,1.6-1.3,2.6
				c-0.1,0.6,0.6,1,1.1,0.9c0.8-0.2,1.3-0.7,1.7-1.3c-0.5-0.3-1-0.6-1.5-0.9c-0.6,1.1-1,2.3-0.9,3.5C98.2,34.7,100,34.7,100,33.5
				L100,33.5z"/>
		</g>
	</g>
	<g>
		<g>
			<path class="st2" d="M98.6,36.2c0.2,0.3,0.3,0.6,0.2,0.9c-0.2,0.4-0.1,1,0.3,1.2c0.4,0.2,1,0.1,1.2-0.3c0.4-0.9,0.4-1.9-0.2-2.7
				c-0.3-0.4-0.8-0.6-1.2-0.3C98.5,35.2,98.3,35.8,98.6,36.2L98.6,36.2z"/>
		</g>
	</g>
	<g>
		<g>
			<path class="st2" d="M100.9,38.7c0,0.2,0.1,0,0.2-0.1c0.2-0.1,0.3-0.2,0.5-0.3c1-0.5,0.1-2.1-0.9-1.5c-1,0.5-1.7,1.3-1.6,2.5
				c0.1,0.5,0.7,0.7,1.1,0.6C100.8,39.6,101,39.1,100.9,38.7L100.9,38.7z"/>
		</g>
	</g>
	<g>
		<g>
			<path class="st2" d="M100.6,38.4c1.1,0,1.2-1.8,0-1.8C99.4,36.7,99.4,38.4,100.6,38.4L100.6,38.4z"/>
		</g>
	</g>
	<g>
		<g>
			<path class="st2" d="M101.4,35.6c1.1,0,1.2-1.8,0-1.8C100.3,33.8,100.3,35.6,101.4,35.6L101.4,35.6z"/>
		</g>
	</g>
	<g>
		<g>
			<path class="st2" d="M101.2,35.3c1.1,0,1.2-1.8,0-1.8C100.1,33.5,100.1,35.3,101.2,35.3L101.2,35.3z"/>
		</g>
	</g>
	<g>
		<g>
			<path class="st2" d="M100.9,35.4c1.1,0,1.2-1.8,0-1.8C99.8,33.7,99.8,35.4,100.9,35.4L100.9,35.4z"/>
		</g>
	</g>
	<g>
		<g>
			<path class="st2" d="M102,34.5c0.1-0.1,0.1-0.2,0.2-0.3c0.5-1-1-1.9-1.5-0.9c-0.1,0.1-0.1,0.2-0.2,0.3
				C100,34.6,101.5,35.5,102,34.5L102,34.5z"/>
		</g>
	</g>
	<g>
		<g>
			<path class="st2" d="M97.8,36.2c0.1,0.1,0.2,0.2,0.3,0.3c0.8,0.8,2.1-0.4,1.3-1.3c-0.1-0.1-0.2-0.2-0.3-0.3
				C98.2,34.1,97,35.4,97.8,36.2L97.8,36.2z"/>
		</g>
	</g>
	<g>
		<g>
			<path class="st2" d="M108.8,37.2c4-1,8.2-0.2,11.5,2.3c0.9,0.7,2.2-0.6,1.3-1.3c-3.8-3-8.5-4-13.2-2.8
				C107.2,35.7,107.7,37.5,108.8,37.2L108.8,37.2z"/>
		</g>
	</g>
	<g>
		<g>
			<path class="st2" d="M128.7,45.3c1.8,3.7,2.3,7.6,1.6,11.7c-0.2,1.1,1.5,1.6,1.7,0.5c0.8-4.5,0.2-8.9-1.8-13.1
				C129.7,43.4,128.2,44.3,128.7,45.3L128.7,45.3z"/>
		</g>
	</g>
	<g>
		<g>
			<path class="st2" d="M129.1,65.7c0.2,3.6-0.1,7.1-0.9,10.6c-0.3,1.1,1.5,1.6,1.7,0.5c0.9-3.7,1.2-7.3,1-11.1
				C130.9,64.6,129.1,64.6,129.1,65.7L129.1,65.7z"/>
		</g>
	</g>
	<g>
		<g>
			<path class="st2" d="M69,98c-0.1-1.4-0.1-2.8-0.2-4.2c-0.1-1.1-1.8-1.2-1.8,0c0.1,1.4,0.1,2.8,0.2,4.2C67.3,99.2,69,99.2,69,98
				L69,98z"/>
		</g>
	</g>
</g>
</svg>
