<?xml version="1.0" encoding="utf-8"?>
<!-- Generator: Adobe Illustrator 21.0.2, SVG Export Plug-In . SVG Version: 6.00 Build 0)  -->
<svg version="1.1" id="Layer_1" xmlns="http://www.w3.org/2000/svg" xmlns:xlink="http://www.w3.org/1999/xlink" x="0px" y="0px"
	 viewBox="0 0 283.5 283.5" style="enable-background:new 0 0 283.5 283.5;" xml:space="preserve">
<style type="text/css">
	.st0{fill:none;stroke:#C0E6F0;stroke-width:1.25;stroke-miterlimit:10;}
	.st1{fill:none;stroke:#C3E7EE;stroke-width:1.25;stroke-miterlimit:10;}
	.st2{fill:#ADBBD3;}
</style>
<g>
	<line class="st0" x1="96.8" y1="129.7" x2="96.8" y2="129.6"/>
	<line class="st0" x1="96.8" y1="129.7" x2="96.8" y2="129.8"/>
	<g>
		<line class="st0" x1="96.2" y1="129.1" x2="96.2" y2="130.3"/>
		<line class="st0" x1="96.6" y1="130.1" x2="95.8" y2="129.3"/>
		<line class="st0" x1="95.7" y1="129.7" x2="96.8" y2="129.7"/>
		<line class="st0" x1="95.9" y1="130.1" x2="96.6" y2="129.3"/>
		<line class="st0" x1="95.8" y1="129.3" x2="95.9" y2="129.2"/>
		<line class="st0" x1="95.8" y1="129.3" x2="95.7" y2="129.3"/>
		<line class="st0" x1="96" y1="129.5" x2="96.1" y2="129.4"/>
		<line class="st0" x1="96" y1="129.5" x2="95.9" y2="129.5"/>
		<line class="st0" x1="96.6" y1="130.1" x2="96.7" y2="130.1"/>
		<line class="st0" x1="96.6" y1="130.1" x2="96.6" y2="130.2"/>
		<line class="st0" x1="96.4" y1="129.9" x2="96.5" y2="129.9"/>
		<line class="st0" x1="96.6" y1="129.4" x2="96.6" y2="129.3"/>
		<line class="st0" x1="96.4" y1="129.9" x2="96.4" y2="130"/>
		<line class="st0" x1="96.6" y1="129.4" x2="96.7" y2="129.4"/>
		<line class="st0" x1="96.4" y1="129.5" x2="96.4" y2="129.4"/>
		<line class="st0" x1="95.7" y1="129.7" x2="95.6" y2="129.6"/>
		<line class="st0" x1="95.7" y1="129.7" x2="95.6" y2="129.7"/>
		<line class="st0" x1="95.9" y1="129.7" x2="95.9" y2="129.6"/>
		<line class="st0" x1="96.5" y1="129.7" x2="96.6" y2="129.6"/>
		<line class="st0" x1="95.9" y1="129.7" x2="95.9" y2="129.8"/>
		<line class="st0" x1="96.5" y1="129.7" x2="96.6" y2="129.8"/>
		<line class="st0" x1="96.2" y1="130.2" x2="96.2" y2="130.3"/>
		<line class="st0" x1="96.2" y1="130" x2="96.2" y2="130.1"/>
		<line class="st0" x1="96.2" y1="130.2" x2="96.3" y2="130.3"/>
		<line class="st0" x1="96.2" y1="130" x2="96.3" y2="130.1"/>
		<line class="st0" x1="95.9" y1="130.1" x2="95.9" y2="130.1"/>
		<line class="st0" x1="96" y1="129.9" x2="96" y2="130"/>
		<line class="st0" x1="95.9" y1="130.1" x2="95.8" y2="130.1"/>
		<line class="st0" x1="96" y1="129.9" x2="95.9" y2="129.9"/>
		<line class="st0" x1="96.2" y1="129.1" x2="96.2" y2="129.1"/>
		<line class="st0" x1="96.2" y1="129.4" x2="96.1" y2="129.3"/>
		<line class="st0" x1="96.2" y1="129.1" x2="96.3" y2="129.1"/>
		<line class="st0" x1="96.2" y1="129.4" x2="96.3" y2="129.3"/>
		<line class="st1" x1="96.4" y1="129.5" x2="96.5" y2="129.5"/>
		
			<animateMotion  accumulate="none" additive="replace" calcMode="paced" dur="1200ms" fill="remove" repeatCount="indefinite" restart="always" values="0,0; 0,12;">
			</animateMotion>
	</g>
</g>
<g>
	<line class="st0" x1="92.6" y1="130" x2="92.6" y2="131.1"/>
	<line class="st0" x1="92.9" y1="130.9" x2="92.2" y2="130.2"/>
	<line class="st0" x1="92.1" y1="130.6" x2="93.1" y2="130.6"/>
	<line class="st0" x1="92.2" y1="130.9" x2="92.9" y2="130.2"/>
	<line class="st0" x1="92.2" y1="130.2" x2="92.3" y2="130.1"/>
	<line class="st0" x1="92.2" y1="130.2" x2="92.1" y2="130.2"/>
	<line class="st0" x1="92.4" y1="130.4" x2="92.4" y2="130.3"/>
	<line class="st0" x1="92.4" y1="130.4" x2="92.3" y2="130.4"/>
	<line class="st0" x1="92.9" y1="130.9" x2="93" y2="130.9"/>
	<line class="st0" x1="92.9" y1="130.9" x2="92.9" y2="131"/>
	<line class="st0" x1="92.7" y1="130.7" x2="92.8" y2="130.7"/>
	<line class="st0" x1="92.9" y1="130.3" x2="92.9" y2="130.2"/>
	<line class="st0" x1="92.7" y1="130.7" x2="92.7" y2="130.8"/>
	<line class="st0" x1="92.9" y1="130.3" x2="93" y2="130.3"/>
	<line class="st0" x1="92.7" y1="130.4" x2="92.7" y2="130.3"/>
	<line class="st0" x1="92.1" y1="130.6" x2="92" y2="130.5"/>
	<line class="st0" x1="93.1" y1="130.6" x2="93.1" y2="130.5"/>
	<line class="st0" x1="92.1" y1="130.6" x2="92" y2="130.6"/>
	<line class="st0" x1="92.3" y1="130.6" x2="92.3" y2="130.5"/>
	<line class="st0" x1="92.8" y1="130.6" x2="92.9" y2="130.5"/>
	<line class="st0" x1="92.3" y1="130.6" x2="92.3" y2="130.6"/>
	<line class="st0" x1="92.8" y1="130.6" x2="92.9" y2="130.6"/>
	<line class="st0" x1="93" y1="130.6" x2="93.1" y2="130.6"/>
	<line class="st0" x1="92.6" y1="131.1" x2="92.5" y2="131.1"/>
	<line class="st0" x1="92.6" y1="130.9" x2="92.5" y2="130.9"/>
	<line class="st0" x1="92.6" y1="131.1" x2="92.6" y2="131.1"/>
	<line class="st0" x1="92.6" y1="130.9" x2="92.6" y2="130.9"/>
	<line class="st0" x1="92.3" y1="130.9" x2="92.3" y2="131"/>
	<line class="st0" x1="92.4" y1="130.8" x2="92.4" y2="130.9"/>
	<line class="st0" x1="92.3" y1="130.9" x2="92.2" y2="130.9"/>
	<line class="st0" x1="92.4" y1="130.7" x2="92.3" y2="130.7"/>
	<line class="st0" x1="92.6" y1="130.1" x2="92.5" y2="130"/>
	<line class="st0" x1="92.6" y1="130.3" x2="92.5" y2="130.2"/>
	<line class="st0" x1="92.6" y1="130.1" x2="92.6" y2="130"/>
	<line class="st0" x1="92.6" y1="130.3" x2="92.7" y2="130.2"/>
	<line class="st1" x1="92.7" y1="130.4" x2="92.8" y2="130.4"/>
	
		<animateMotion  accumulate="none" additive="replace" calcMode="paced" dur="1500ms" fill="remove" repeatCount="indefinite" restart="always" values="0,0; 0,12;">
		</animateMotion>
</g>
<g>
	<line class="st0" x1="98.9" y1="131" x2="98.9" y2="132.1"/>
	<line class="st0" x1="99.3" y1="131.9" x2="98.6" y2="131.2"/>
	<line class="st0" x1="98.4" y1="131.5" x2="99.5" y2="131.5"/>
	<line class="st0" x1="98.6" y1="131.9" x2="99.3" y2="131.2"/>
	<line class="st0" x1="98.6" y1="131.2" x2="98.6" y2="131.1"/>
	<line class="st0" x1="98.6" y1="131.2" x2="98.4" y2="131.2"/>
	<line class="st0" x1="98.7" y1="131.4" x2="98.8" y2="131.3"/>
	<line class="st0" x1="98.7" y1="131.4" x2="98.6" y2="131.4"/>
	<line class="st0" x1="99.3" y1="131.9" x2="99.4" y2="131.9"/>
	<line class="st0" x1="99.3" y1="131.9" x2="99.3" y2="132"/>
	<line class="st0" x1="99.1" y1="131.7" x2="99.2" y2="131.7"/>
	<line class="st0" x1="99.3" y1="131.2" x2="99.3" y2="131.1"/>
	<line class="st0" x1="99.1" y1="131.7" x2="99.1" y2="131.8"/>
	<line class="st0" x1="99.3" y1="131.2" x2="99.3" y2="131.2"/>
	<line class="st0" x1="99.1" y1="131.4" x2="99.1" y2="131.3"/>
	<line class="st0" x1="98.4" y1="131.5" x2="98.3" y2="131.5"/>
	<line class="st0" x1="99.5" y1="131.5" x2="99.5" y2="131.5"/>
	<line class="st0" x1="98.4" y1="131.5" x2="98.3" y2="131.6"/>
	<line class="st0" x1="98.6" y1="131.5" x2="98.6" y2="131.5"/>
	<line class="st0" x1="99.2" y1="131.5" x2="99.3" y2="131.5"/>
	<line class="st0" x1="98.6" y1="131.5" x2="98.6" y2="131.6"/>
	<line class="st0" x1="99.2" y1="131.5" x2="99.3" y2="131.6"/>
	<line class="st0" x1="99.4" y1="131.5" x2="99.5" y2="131.6"/>
	<line class="st0" x1="98.9" y1="132.1" x2="98.9" y2="132.2"/>
	<line class="st0" x1="98.9" y1="131.9" x2="98.9" y2="131.9"/>
	<line class="st0" x1="98.9" y1="132.1" x2="99" y2="132.2"/>
	<line class="st0" x1="98.9" y1="131.9" x2="99" y2="131.9"/>
	<line class="st0" x1="98.6" y1="131.9" x2="98.6" y2="132"/>
	<line class="st0" x1="98.8" y1="131.8" x2="98.8" y2="131.8"/>
	<line class="st0" x1="98.6" y1="131.9" x2="98.5" y2="131.9"/>
	<line class="st0" x1="98.8" y1="131.7" x2="98.6" y2="131.7"/>
	<line class="st0" x1="98.9" y1="131" x2="98.9" y2="130.9"/>
	<line class="st0" x1="98.9" y1="131.2" x2="98.8" y2="131.2"/>
	<line class="st0" x1="98.9" y1="131" x2="99" y2="130.9"/>
	<line class="st0" x1="98.9" y1="131.2" x2="99" y2="131.2"/>
	<line class="st1" x1="99.1" y1="131.4" x2="99.2" y2="131.4"/>
	
		<animateMotion  accumulate="none" additive="replace" calcMode="paced" dur="1400ms" fill="remove" repeatCount="indefinite" restart="always" values="0,0; 0,10;">
		</animateMotion>
</g>
<g>
	<line class="st0" x1="100.9" y1="127.1" x2="100.9" y2="127.1"/>
	<line class="st0" x1="100.8" y1="127.1" x2="100.9" y2="127.2"/>
	<g>
		<line class="st0" x1="100.4" y1="126.7" x2="100.4" y2="127.6"/>
		<line class="st0" x1="100.7" y1="127.5" x2="100.1" y2="126.9"/>
		<line class="st0" x1="100" y1="127.1" x2="100.9" y2="127.1"/>
		<line class="st0" x1="100.1" y1="127.5" x2="100.7" y2="126.9"/>
		<line class="st0" x1="100.1" y1="126.9" x2="100.2" y2="126.8"/>
		<line class="st0" x1="100.1" y1="126.9" x2="100" y2="126.9"/>
		<line class="st0" x1="100.3" y1="127" x2="100.3" y2="126.9"/>
		<line class="st0" x1="100.3" y1="127" x2="100.2" y2="127"/>
		<line class="st0" x1="100.7" y1="127.4" x2="100.8" y2="127.5"/>
		<line class="st0" x1="100.7" y1="127.4" x2="100.7" y2="127.5"/>
		<line class="st0" x1="100.6" y1="127.3" x2="100.6" y2="127.3"/>
		<line class="st0" x1="100.7" y1="126.9" x2="100.7" y2="126.8"/>
		<line class="st0" x1="100.6" y1="127.3" x2="100.6" y2="127.4"/>
		<line class="st0" x1="100.7" y1="126.9" x2="100.8" y2="126.9"/>
		<line class="st0" x1="100.6" y1="127" x2="100.6" y2="126.9"/>
		<line class="st0" x1="100" y1="127.1" x2="100" y2="127.1"/>
		<line class="st0" x1="100" y1="127.1" x2="100" y2="127.2"/>
		<line class="st0" x1="100.2" y1="127.1" x2="100.2" y2="127.1"/>
		<line class="st0" x1="100.7" y1="127.1" x2="100.7" y2="127.1"/>
		<line class="st0" x1="100.2" y1="127.1" x2="100.1" y2="127.2"/>
		<line class="st0" x1="100.7" y1="127.1" x2="100.7" y2="127.2"/>
		<line class="st0" x1="100.4" y1="127.6" x2="100.4" y2="127.6"/>
		<line class="st0" x1="100.4" y1="127.4" x2="100.4" y2="127.4"/>
		<line class="st0" x1="100.4" y1="127.6" x2="100.5" y2="127.6"/>
		<line class="st0" x1="100.4" y1="127.4" x2="100.5" y2="127.4"/>
		<line class="st0" x1="100.2" y1="127.4" x2="100.2" y2="127.5"/>
		<line class="st0" x1="100.3" y1="127.3" x2="100.3" y2="127.4"/>
		<line class="st0" x1="100.2" y1="127.4" x2="100.1" y2="127.4"/>
		<line class="st0" x1="100.3" y1="127.3" x2="100.2" y2="127.3"/>
		<line class="st0" x1="100.4" y1="126.7" x2="100.4" y2="126.7"/>
		<line class="st0" x1="100.4" y1="126.9" x2="100.4" y2="126.9"/>
		<line class="st0" x1="100.4" y1="126.7" x2="100.5" y2="126.7"/>
		<line class="st0" x1="100.4" y1="126.9" x2="100.5" y2="126.9"/>
		<line class="st1" x1="100.6" y1="127" x2="100.6" y2="127"/>
		
			<animateMotion  accumulate="none" additive="replace" calcMode="paced" dur="1600ms" fill="remove" repeatCount="indefinite" restart="always" values="0,0; 0,12;">
			</animateMotion>
	</g>
</g>
<g>
	<line class="st0" x1="107.7" y1="126.3" x2="107.7" y2="127.5"/>
	<line class="st0" x1="108.1" y1="127.3" x2="107.4" y2="126.6"/>
	<line class="st0" x1="107.2" y1="126.9" x2="108.3" y2="126.9"/>
	<line class="st0" x1="107.4" y1="127.3" x2="108.1" y2="126.6"/>
	<line class="st0" x1="107.4" y1="126.6" x2="107.4" y2="126.5"/>
	<line class="st0" x1="107.4" y1="126.6" x2="107.3" y2="126.5"/>
	<line class="st0" x1="107.5" y1="126.8" x2="107.6" y2="126.6"/>
	<line class="st0" x1="107.5" y1="126.8" x2="107.4" y2="126.8"/>
	<line class="st0" x1="108.1" y1="127.3" x2="108.2" y2="127.3"/>
	<line class="st0" x1="108.1" y1="127.3" x2="108.1" y2="127.4"/>
	<line class="st0" x1="107.9" y1="127.1" x2="108" y2="127.1"/>
	<line class="st0" x1="108.1" y1="126.6" x2="108.1" y2="126.5"/>
	<line class="st0" x1="107.9" y1="127.1" x2="107.9" y2="127.2"/>
	<line class="st0" x1="108.1" y1="126.6" x2="108.2" y2="126.6"/>
	<line class="st0" x1="107.9" y1="126.8" x2="107.9" y2="126.6"/>
	<line class="st0" x1="107.2" y1="126.9" x2="107.2" y2="126.9"/>
	<line class="st0" x1="108.3" y1="126.9" x2="108.3" y2="126.9"/>
	<line class="st0" x1="107.2" y1="126.9" x2="107.2" y2="127"/>
	<line class="st0" x1="107.4" y1="126.9" x2="107.4" y2="126.9"/>
	<line class="st0" x1="108" y1="126.9" x2="108.1" y2="126.9"/>
	<line class="st0" x1="107.4" y1="126.9" x2="107.4" y2="127"/>
	<line class="st0" x1="108" y1="126.9" x2="108.1" y2="127"/>
	<line class="st0" x1="108.3" y1="126.9" x2="108.3" y2="127"/>
	<line class="st0" x1="107.7" y1="127.4" x2="107.7" y2="127.5"/>
	<line class="st0" x1="107.7" y1="127.3" x2="107.7" y2="127.3"/>
	<line class="st0" x1="107.7" y1="127.4" x2="107.8" y2="127.5"/>
	<line class="st0" x1="107.7" y1="127.3" x2="107.8" y2="127.3"/>
	<line class="st0" x1="107.4" y1="127.3" x2="107.4" y2="127.4"/>
	<line class="st0" x1="107.6" y1="127.1" x2="107.6" y2="127.2"/>
	<line class="st0" x1="107.4" y1="127.3" x2="107.3" y2="127.3"/>
	<line class="st0" x1="107.6" y1="127.1" x2="107.4" y2="127.1"/>
	<line class="st0" x1="107.7" y1="126.4" x2="107.7" y2="126.3"/>
	<line class="st0" x1="107.7" y1="126.6" x2="107.7" y2="126.5"/>
	<line class="st0" x1="107.7" y1="126.4" x2="107.8" y2="126.3"/>
	<line class="st0" x1="107.8" y1="126.6" x2="107.8" y2="126.6"/>
	<line class="st1" x1="107.9" y1="126.8" x2="108" y2="126.7"/>
	
		<animateMotion  accumulate="none" additive="replace" calcMode="paced" dur="1200ms" fill="remove" repeatCount="indefinite" restart="always" values="0,0; 0,10;">
		</animateMotion>
</g>
<g>
	<line class="st0" x1="103.7" y1="130.6" x2="103.7" y2="131.8"/>
	<line class="st0" x1="104.1" y1="131.6" x2="103.4" y2="130.8"/>
	<line class="st0" x1="103.2" y1="131.2" x2="104.3" y2="131.2"/>
	<line class="st0" x1="103.4" y1="131.6" x2="104.1" y2="130.8"/>
	<line class="st0" x1="103.4" y1="130.8" x2="103.4" y2="130.7"/>
	<line class="st0" x1="103.4" y1="130.8" x2="103.3" y2="130.8"/>
	<line class="st0" x1="103.5" y1="131" x2="103.6" y2="130.9"/>
	<line class="st0" x1="103.5" y1="131" x2="103.4" y2="131.1"/>
	<line class="st0" x1="104.1" y1="131.6" x2="104.2" y2="131.6"/>
	<line class="st0" x1="104.1" y1="131.6" x2="104.1" y2="131.7"/>
	<line class="st0" x1="103.9" y1="131.4" x2="104" y2="131.4"/>
	<line class="st0" x1="104.1" y1="130.9" x2="104.1" y2="130.8"/>
	<line class="st0" x1="103.9" y1="131.4" x2="103.9" y2="131.5"/>
	<line class="st0" x1="104.1" y1="130.9" x2="104.1" y2="130.9"/>
	<line class="st0" x1="103.9" y1="131" x2="103.9" y2="130.9"/>
	<line class="st0" x1="103.2" y1="131.2" x2="103.1" y2="131.1"/>
	<line class="st0" x1="104.3" y1="131.2" x2="104.3" y2="131.1"/>
	<line class="st0" x1="103.2" y1="131.2" x2="103.1" y2="131.2"/>
	<line class="st0" x1="103.4" y1="131.2" x2="103.4" y2="131.1"/>
	<line class="st0" x1="104" y1="131.2" x2="104.1" y2="131.1"/>
	<line class="st0" x1="103.4" y1="131.2" x2="103.4" y2="131.3"/>
	<line class="st0" x1="104" y1="131.2" x2="104.1" y2="131.3"/>
	<line class="st0" x1="104.2" y1="131.2" x2="104.3" y2="131.2"/>
	<line class="st0" x1="103.7" y1="131.7" x2="103.7" y2="131.8"/>
	<line class="st0" x1="103.7" y1="131.5" x2="103.7" y2="131.6"/>
	<line class="st0" x1="103.7" y1="131.7" x2="103.8" y2="131.8"/>
	<line class="st0" x1="103.7" y1="131.5" x2="103.8" y2="131.6"/>
	<line class="st0" x1="103.4" y1="131.6" x2="103.4" y2="131.7"/>
	<line class="st0" x1="103.6" y1="131.4" x2="103.6" y2="131.5"/>
	<line class="st0" x1="103.4" y1="131.6" x2="103.3" y2="131.6"/>
	<line class="st0" x1="103.6" y1="131.4" x2="103.4" y2="131.4"/>
	<line class="st0" x1="103.7" y1="130.7" x2="103.7" y2="130.6"/>
	<line class="st0" x1="103.7" y1="130.9" x2="103.6" y2="130.8"/>
	<line class="st0" x1="103.7" y1="130.7" x2="103.8" y2="130.6"/>
	<line class="st0" x1="103.7" y1="130.9" x2="103.8" y2="130.8"/>
	<line class="st1" x1="103.9" y1="131" x2="104" y2="131"/>
	
		<animateMotion  accumulate="none" additive="replace" calcMode="paced" dur="1800ms" fill="remove" repeatCount="indefinite" restart="always" values="0,0; 0,10;">
		</animateMotion>
</g>
<g>
	<line class="st0" x1="104" y1="126.9" x2="104" y2="128.1"/>
	<line class="st0" x1="104.4" y1="127.9" x2="103.6" y2="127.1"/>
	<line class="st0" x1="103.5" y1="127.5" x2="104.6" y2="127.5"/>
	<line class="st0" x1="103.7" y1="127.9" x2="104.4" y2="127.1"/>
	<line class="st0" x1="103.6" y1="127.1" x2="103.7" y2="127"/>
	<line class="st0" x1="103.6" y1="127.1" x2="103.5" y2="127.1"/>
	<line class="st0" x1="103.8" y1="127.3" x2="103.9" y2="127.2"/>
	<line class="st0" x1="103.8" y1="127.4" x2="103.7" y2="127.4"/>
	<line class="st0" x1="104.4" y1="127.9" x2="104.5" y2="127.9"/>
	<line class="st0" x1="104.4" y1="127.9" x2="104.4" y2="128"/>
	<line class="st0" x1="104.2" y1="127.7" x2="104.3" y2="127.7"/>
	<line class="st0" x1="104.4" y1="127.2" x2="104.4" y2="127.1"/>
	<line class="st0" x1="104.2" y1="127.7" x2="104.2" y2="127.8"/>
	<line class="st0" x1="104.4" y1="127.2" x2="104.4" y2="127.2"/>
	<line class="st0" x1="104.2" y1="127.3" x2="104.2" y2="127.2"/>
	<line class="st0" x1="103.5" y1="127.5" x2="103.4" y2="127.5"/>
	<line class="st0" x1="104.6" y1="127.5" x2="104.6" y2="127.5"/>
	<line class="st0" x1="103.5" y1="127.5" x2="103.4" y2="127.6"/>
	<line class="st0" x1="103.7" y1="127.5" x2="103.7" y2="127.4"/>
	<line class="st0" x1="104.3" y1="127.5" x2="104.4" y2="127.4"/>
	<line class="st0" x1="103.7" y1="127.5" x2="103.7" y2="127.6"/>
	<line class="st0" x1="104.3" y1="127.5" x2="104.4" y2="127.6"/>
	<line class="st0" x1="104.5" y1="127.5" x2="104.6" y2="127.6"/>
	<line class="st0" x1="104" y1="128" x2="104" y2="128.1"/>
	<line class="st0" x1="104" y1="127.8" x2="104" y2="127.9"/>
	<line class="st0" x1="104" y1="128" x2="104.1" y2="128.1"/>
	<line class="st0" x1="104" y1="127.8" x2="104.1" y2="127.9"/>
	<line class="st0" x1="103.7" y1="127.9" x2="103.7" y2="128"/>
	<line class="st0" x1="103.9" y1="127.7" x2="103.9" y2="127.8"/>
	<line class="st0" x1="103.7" y1="127.9" x2="103.6" y2="127.9"/>
	<line class="st0" x1="103.9" y1="127.7" x2="103.7" y2="127.7"/>
	<line class="st0" x1="104" y1="127" x2="104" y2="126.9"/>
	<line class="st0" x1="104" y1="127.2" x2="103.9" y2="127.1"/>
	<line class="st0" x1="104" y1="127" x2="104.1" y2="126.9"/>
	<line class="st0" x1="104" y1="127.2" x2="104.1" y2="127.1"/>
	<line class="st1" x1="104.2" y1="127.3" x2="104.3" y2="127.3"/>
	
		<animateMotion  accumulate="none" additive="replace" calcMode="paced" dur="1300ms" fill="remove" repeatCount="indefinite" restart="always" values="0,0; 0,15;">
		</animateMotion>
</g>
<g>
	<line class="st0" x1="100.9" y1="129.3" x2="100.9" y2="130.4"/>
	<line class="st0" x1="101.2" y1="130.2" x2="100.5" y2="129.5"/>
	<line class="st0" x1="100.3" y1="129.9" x2="101.4" y2="129.9"/>
	<line class="st0" x1="100.5" y1="130.2" x2="101.2" y2="129.5"/>
	<line class="st0" x1="100.5" y1="129.5" x2="100.5" y2="129.4"/>
	<line class="st0" x1="100.5" y1="129.5" x2="100.4" y2="129.5"/>
	<line class="st0" x1="100.7" y1="129.7" x2="100.7" y2="129.6"/>
	<line class="st0" x1="100.7" y1="129.7" x2="100.6" y2="129.7"/>
	<line class="st0" x1="101.2" y1="130.2" x2="101.3" y2="130.2"/>
	<line class="st0" x1="101.2" y1="130.2" x2="101.2" y2="130.3"/>
	<line class="st0" x1="101" y1="130.1" x2="101.1" y2="130"/>
	<line class="st0" x1="101.2" y1="129.5" x2="101.2" y2="129.5"/>
	<line class="st0" x1="101" y1="130.1" x2="101" y2="130.1"/>
	<line class="st0" x1="101.2" y1="129.5" x2="101.3" y2="129.5"/>
	<line class="st0" x1="101.1" y1="129.7" x2="101.1" y2="129.6"/>
	<line class="st0" x1="100.3" y1="129.9" x2="100.3" y2="129.8"/>
	<line class="st0" x1="101.4" y1="129.9" x2="101.4" y2="129.8"/>
	<line class="st0" x1="100.3" y1="129.9" x2="100.3" y2="129.9"/>
	<line class="st0" x1="100.6" y1="129.9" x2="100.5" y2="129.8"/>
	<line class="st0" x1="101.2" y1="129.9" x2="101.2" y2="129.8"/>
	<line class="st0" x1="100.6" y1="129.9" x2="100.5" y2="129.9"/>
	<line class="st0" x1="101.2" y1="129.9" x2="101.2" y2="129.9"/>
	<line class="st0" x1="101.4" y1="129.9" x2="101.5" y2="129.9"/>
	<line class="st0" x1="100.9" y1="130.4" x2="100.8" y2="130.5"/>
	<line class="st0" x1="100.9" y1="130.2" x2="100.8" y2="130.2"/>
	<line class="st0" x1="100.9" y1="130.4" x2="100.9" y2="130.5"/>
	<line class="st0" x1="100.9" y1="130.2" x2="100.9" y2="130.2"/>
	<line class="st0" x1="100.5" y1="130.2" x2="100.5" y2="130.3"/>
	<line class="st0" x1="100.7" y1="130.1" x2="100.7" y2="130.2"/>
	<line class="st0" x1="100.5" y1="130.2" x2="100.4" y2="130.2"/>
	<line class="st0" x1="100.7" y1="130" x2="100.6" y2="130.1"/>
	<line class="st0" x1="100.9" y1="129.3" x2="100.8" y2="129.2"/>
	<line class="st0" x1="100.9" y1="129.5" x2="100.8" y2="129.5"/>
	<line class="st0" x1="100.9" y1="129.3" x2="100.9" y2="129.2"/>
	<line class="st0" x1="100.9" y1="129.5" x2="101" y2="129.5"/>
	<line class="st1" x1="101.1" y1="129.7" x2="101.1" y2="129.7"/>
	
		<animateMotion  accumulate="none" additive="replace" calcMode="paced" dur="1400ms" fill="remove" repeatCount="indefinite" restart="always" values="0,0; 0,13;">
		</animateMotion>
</g>
<g>
	<line class="st0" x1="98" y1="125.9" x2="98" y2="127"/>
	<line class="st0" x1="98.4" y1="126.8" x2="97.7" y2="126.1"/>
	<line class="st0" x1="97.5" y1="126.4" x2="98.6" y2="126.4"/>
	<line class="st0" x1="97.7" y1="126.8" x2="98.4" y2="126.1"/>
	<line class="st0" x1="97.7" y1="126.1" x2="97.7" y2="126"/>
	<line class="st0" x1="97.7" y1="126.1" x2="97.6" y2="126.1"/>
	<line class="st0" x1="97.9" y1="126.3" x2="97.9" y2="126.2"/>
	<line class="st0" x1="97.9" y1="126.3" x2="97.8" y2="126.3"/>
	<line class="st0" x1="98.4" y1="126.8" x2="98.5" y2="126.8"/>
	<line class="st0" x1="98.4" y1="126.8" x2="98.4" y2="126.9"/>
	<line class="st0" x1="98.2" y1="126.6" x2="98.3" y2="126.6"/>
	<line class="st0" x1="98.4" y1="126.1" x2="98.4" y2="126"/>
	<line class="st0" x1="98.2" y1="126.6" x2="98.2" y2="126.7"/>
	<line class="st0" x1="98.4" y1="126.1" x2="98.5" y2="126.1"/>
	<line class="st0" x1="98.2" y1="126.3" x2="98.2" y2="126.2"/>
	<line class="st0" x1="97.5" y1="126.4" x2="97.5" y2="126.4"/>
	<line class="st0" x1="98.6" y1="126.4" x2="98.6" y2="126.4"/>
	<line class="st0" x1="97.5" y1="126.4" x2="97.5" y2="126.5"/>
	<line class="st0" x1="97.7" y1="126.4" x2="97.7" y2="126.4"/>
	<line class="st0" x1="98.3" y1="126.4" x2="98.4" y2="126.4"/>
	<line class="st0" x1="97.7" y1="126.4" x2="97.7" y2="126.5"/>
	<line class="st0" x1="98.3" y1="126.4" x2="98.4" y2="126.5"/>
	<line class="st0" x1="98.6" y1="126.4" x2="98.6" y2="126.5"/>
	<line class="st0" x1="98" y1="127" x2="98" y2="127"/>
	<line class="st0" x1="98" y1="126.8" x2="98" y2="126.8"/>
	<line class="st0" x1="98" y1="127" x2="98.1" y2="127"/>
	<line class="st0" x1="98" y1="126.8" x2="98.1" y2="126.8"/>
	<line class="st0" x1="97.7" y1="126.8" x2="97.7" y2="126.9"/>
	<line class="st0" x1="97.9" y1="126.7" x2="97.9" y2="126.7"/>
	<line class="st0" x1="97.7" y1="126.8" x2="97.6" y2="126.8"/>
	<line class="st0" x1="97.9" y1="126.6" x2="97.8" y2="126.6"/>
	<line class="st0" x1="98" y1="125.9" x2="98" y2="125.8"/>
	<line class="st0" x1="98" y1="126.1" x2="98" y2="126.1"/>
	<line class="st0" x1="98" y1="125.9" x2="98.1" y2="125.8"/>
	<line class="st0" x1="98.1" y1="126.1" x2="98.1" y2="126.1"/>
	<line class="st1" x1="98.2" y1="126.3" x2="98.3" y2="126.3"/>
	
		<animateMotion  accumulate="none" additive="replace" calcMode="paced" dur="1700ms" fill="remove" repeatCount="indefinite" restart="always" values="0,0; 0,10;">
		</animateMotion>
</g>
<g>
	<line class="st0" x1="107.3" y1="129.6" x2="107.3" y2="130.8"/>
	<line class="st0" x1="107.7" y1="130.6" x2="107" y2="129.8"/>
	<line class="st0" x1="106.8" y1="130.2" x2="107.9" y2="130.2"/>
	<line class="st0" x1="107" y1="130.6" x2="107.7" y2="129.8"/>
	<line class="st0" x1="107" y1="129.8" x2="107" y2="129.7"/>
	<line class="st0" x1="107" y1="129.8" x2="106.9" y2="129.8"/>
	<line class="st0" x1="107.2" y1="130" x2="107.2" y2="129.9"/>
	<line class="st0" x1="107.2" y1="130" x2="107.1" y2="130.1"/>
	<line class="st0" x1="107.7" y1="130.6" x2="107.8" y2="130.6"/>
	<line class="st0" x1="107.7" y1="130.6" x2="107.7" y2="130.7"/>
	<line class="st0" x1="107.5" y1="130.4" x2="107.6" y2="130.4"/>
	<line class="st0" x1="107.7" y1="129.9" x2="107.7" y2="129.8"/>
	<line class="st0" x1="107.5" y1="130.4" x2="107.5" y2="130.5"/>
	<line class="st0" x1="107.7" y1="129.9" x2="107.8" y2="129.9"/>
	<line class="st0" x1="107.6" y1="130" x2="107.6" y2="129.9"/>
	<line class="st0" x1="106.8" y1="130.2" x2="106.8" y2="130.1"/>
	<line class="st0" x1="107.9" y1="130.2" x2="107.9" y2="130.1"/>
	<line class="st0" x1="106.8" y1="130.2" x2="106.8" y2="130.2"/>
	<line class="st0" x1="107" y1="130.2" x2="107" y2="130.1"/>
	<line class="st0" x1="107.7" y1="130.2" x2="107.7" y2="130.1"/>
	<line class="st0" x1="107" y1="130.2" x2="107" y2="130.3"/>
	<line class="st0" x1="107.7" y1="130.2" x2="107.7" y2="130.3"/>
	<line class="st0" x1="107.9" y1="130.2" x2="107.9" y2="130.2"/>
	<line class="st0" x1="107.3" y1="130.7" x2="107.3" y2="130.8"/>
	<line class="st0" x1="107.3" y1="130.5" x2="107.3" y2="130.6"/>
	<line class="st0" x1="107.3" y1="130.7" x2="107.4" y2="130.8"/>
	<line class="st0" x1="107.3" y1="130.5" x2="107.4" y2="130.6"/>
	<line class="st0" x1="107" y1="130.6" x2="107" y2="130.7"/>
	<line class="st0" x1="107.2" y1="130.4" x2="107.2" y2="130.5"/>
	<line class="st0" x1="107" y1="130.6" x2="106.9" y2="130.6"/>
	<line class="st0" x1="107.2" y1="130.4" x2="107.1" y2="130.4"/>
	<line class="st0" x1="107.3" y1="129.7" x2="107.3" y2="129.6"/>
	<line class="st0" x1="107.3" y1="129.9" x2="107.3" y2="129.8"/>
	<line class="st0" x1="107.3" y1="129.7" x2="107.4" y2="129.6"/>
	<line class="st0" x1="107.4" y1="129.9" x2="107.5" y2="129.8"/>
	<line class="st1" x1="107.6" y1="130" x2="107.6" y2="130"/>
	
		<animateMotion  accumulate="none" additive="replace" calcMode="paced" dur="1500ms" fill="remove" repeatCount="indefinite" restart="always" values="0,0; 0,12;">
		</animateMotion>
</g>
<g>
	<line class="st0" x1="95.2" y1="126.2" x2="95.2" y2="127.4"/>
	<line class="st0" x1="95.5" y1="127.2" x2="94.8" y2="126.4"/>
	<line class="st0" x1="94.6" y1="126.8" x2="95.7" y2="126.8"/>
	<line class="st0" x1="94.8" y1="127.2" x2="95.5" y2="126.4"/>
	<line class="st0" x1="94.8" y1="126.4" x2="94.8" y2="126.3"/>
	<line class="st0" x1="94.8" y1="126.4" x2="94.7" y2="126.4"/>
	<line class="st0" x1="95" y1="126.6" x2="95" y2="126.5"/>
	<line class="st0" x1="95" y1="126.6" x2="94.9" y2="126.7"/>
	<line class="st0" x1="95.5" y1="127.2" x2="95.6" y2="127.2"/>
	<line class="st0" x1="95.5" y1="127.2" x2="95.5" y2="127.3"/>
	<line class="st0" x1="95.4" y1="127" x2="95.4" y2="127"/>
	<line class="st0" x1="95.5" y1="126.5" x2="95.5" y2="126.4"/>
	<line class="st0" x1="95.4" y1="127" x2="95.3" y2="127.1"/>
	<line class="st0" x1="95.5" y1="126.5" x2="95.6" y2="126.5"/>
	<line class="st0" x1="95.4" y1="126.6" x2="95.4" y2="126.5"/>
	<line class="st0" x1="94.6" y1="126.8" x2="94.6" y2="126.7"/>
	<line class="st0" x1="95.7" y1="126.8" x2="95.7" y2="126.7"/>
	<line class="st0" x1="94.6" y1="126.8" x2="94.6" y2="126.8"/>
	<line class="st0" x1="94.9" y1="126.8" x2="94.8" y2="126.7"/>
	<line class="st0" x1="95.5" y1="126.8" x2="95.5" y2="126.7"/>
	<line class="st0" x1="94.9" y1="126.8" x2="94.8" y2="126.9"/>
	<line class="st0" x1="95.5" y1="126.8" x2="95.5" y2="126.9"/>
	<line class="st0" x1="95.7" y1="126.8" x2="95.8" y2="126.8"/>
	<line class="st0" x1="95.2" y1="127.3" x2="95.1" y2="127.4"/>
	<line class="st0" x1="95.2" y1="127.1" x2="95.1" y2="127.2"/>
	<line class="st0" x1="95.2" y1="127.3" x2="95.2" y2="127.4"/>
	<line class="st0" x1="95.2" y1="127.1" x2="95.2" y2="127.2"/>
	<line class="st0" x1="94.8" y1="127.2" x2="94.8" y2="127.3"/>
	<line class="st0" x1="95" y1="127" x2="95" y2="127.1"/>
	<line class="st0" x1="94.8" y1="127.2" x2="94.7" y2="127.2"/>
	<line class="st0" x1="95" y1="127" x2="94.9" y2="127"/>
	<line class="st0" x1="95.2" y1="126.3" x2="95.1" y2="126.2"/>
	<line class="st0" x1="95.2" y1="126.5" x2="95.1" y2="126.4"/>
	<line class="st0" x1="95.2" y1="126.3" x2="95.2" y2="126.2"/>
	<line class="st0" x1="95.2" y1="126.5" x2="95.3" y2="126.4"/>
	<line class="st1" x1="95.4" y1="126.6" x2="95.5" y2="126.6"/>
	
		<animateMotion  accumulate="none" additive="replace" calcMode="paced" dur="1200ms" fill="remove" repeatCount="indefinite" restart="always" values="0,0; 0,13;">
		</animateMotion>
</g>
<g>
	<g>
		<ellipse class="st2" cx="94.6" cy="129.3" rx="5.3" ry="5.5"/>
		<ellipse class="st2" cx="99.8" cy="129.3" rx="5.3" ry="5.5"/>
		<ellipse class="st2" cx="105.2" cy="129.3" rx="5.3" ry="5.5"/>
		<ellipse class="st2" cx="106.2" cy="130" rx="6.3" ry="3.6"/>
		<ellipse class="st2" cx="93.6" cy="130" rx="6.3" ry="3.6"/>
	</g>
	<path class="st2" d="M108.6,125.8c-0.1,0.2-0.8-0.4-2-0.9c-1.3-0.4-2.4-0.6-2.3-0.8s1.4-0.2,2.7,0.2
		C108.3,124.8,108.8,125.6,108.6,125.8z"/>
	<path class="st2" d="M87.5,129.8c0,0.9,0.5,1.6,0.9,1.6s-0.2-0.7-0.2-1.6s0.5-1.6,0.2-1.6C88.1,128.2,87.5,128.9,87.5,129.8z"/>
</g>
</svg>
