<?xml version="1.0" encoding="utf-8"?>
<!-- Generator: Adobe Illustrator 21.0.2, SVG Export Plug-In . SVG Version: 6.00 Build 0)  -->
<svg version="1.1" id="Layer_1" xmlns="http://www.w3.org/2000/svg" xmlns:xlink="http://www.w3.org/1999/xlink" x="0px" y="0px"
	 viewBox="0 0 200 600" style="enable-background:new 0 0 200 600;" xml:space="preserve">
<style type="text/css">
	.st0{fill:#141113;}
	.st1{fill:#231F20;}
	.st2{fill:#060706;}
	.st3{fill:#221F1F;}
</style>
<g>
	<g>
		<g>
			<g id="XMLID_2_">
				<g>
					<path class="st0" d="M106.4,8.1l0.4,0c2-0.4,4.1,0,5.8,1.2c1.7,1.2,2.8,3,3,5.1c0.2,1.8-0.3,3.6-0.7,5.4
						c-0.6,2.1-1.2,4.3-2.8,5.8l-0.1,0.3c-3.7-1.4-7.8-2-11.8-1.7c-3.8-0.2-7.6,0.3-11.2,1.5L89,25c-3.3-0.7-6.1-3.5-6.8-6.9
						c-0.7-3.3,0.8-7,3.5-9c1.4-1,3.1-1.5,4.7-1.6v0c0.3-0.7,1-1.3,1.6-1.7c1.3-0.9,2.9-1.3,4.5-1.6c2.2-0.4,4.6-0.3,6.7,0.7
						C104.7,5.5,105.8,6.7,106.4,8.1z"/>
					<path class="st0" d="M131.7,46.3c1.2,2.8,2.1,5.8,1.8,8.7h0c0.1,11.3-1.8,22.7-5.6,33.4l-0.1,0.5c-0.8,1.8-2.1,3.3-3.7,4.4
						c0.7-3.3,1.3-6.6,1.9-10c1-5.6,1.8-11.3,1.5-17.1c-0.2-4.2-1-8.4-1.7-12.5c-0.6-3.2-1.3-6.6-3.3-9.2l-0.9,0
						c-0.4,0.2-0.9,0.3-1.3,0.1c-0.2-0.1-0.4-0.3-0.6-0.4c-0.7-0.3-1.3,0.4-1.9,0.8c-0.9,0.5-2,0.5-2.8-0.2l-0.1,0
						c-0.3-0.6-1-0.8-1.6-0.6s-1.2,0.5-1.7,0.8c-0.5,0.3-1.2,0.5-1.8,0.3c-0.8-0.2-1.4-1.1-2.3-1c-0.2,0-0.4,0.1-0.6,0.2
						c-0.8,0.4-1.6,0.7-2.4,1l-0.1-0.2c-0.8,0.4-1.9,0.3-2.6-0.3c-0.2-0.2-0.4-0.4-0.7-0.5c-0.9-0.4-1.9,0.9-2.9,0.7
						c-0.4-0.1-0.7-0.3-1-0.4c-0.8-0.3-1.8-0.1-2.3,0.6l-0.3,0c-1-0.8-2.5-1-3.6-0.4c-0.3,0.1-0.6,0.3-0.9,0.3
						c-0.3,0-0.5-0.3-0.8-0.4c-0.5-0.3-1.2-0.3-1.8,0c-0.3,0.2-0.5,0.4-0.9,0.5c-0.3,0.1-0.8-0.1-0.7-0.5h0
						c-0.3-0.6-1.2-0.6-1.9-0.3c-0.5,0.2-1.1,0.5-1.6,0.6l-0.6-0.3c-0.2-0.5-0.9-0.6-1.4-0.4c-0.5,0.2-1,0.5-1.5,0.5
						c-0.5,0.1-1-0.3-1-0.7l-0.5,0c-2,2.6-2.7,5.9-3.3,9.2c-0.8,4.1-1.6,8.3-1.8,12.5C72.2,72,73,77.8,74,83.4
						c0.6,3.3,1.2,6.7,1.9,10c-1.3-0.9-2.3-2-3.1-3.3l0,0c-3.8-10.7-5.7-22.1-5.6-33.4l0.1,0c-0.8-3.4,0.3-7,1.6-10.2
						c3.4-8.2,9.3-15.8,17.3-19.6c1-0.5,2-0.9,3-1.2c3.6-1.2,7.4-1.8,11.2-1.5c4-0.3,8,0.4,11.8,1.7c0.8,0.3,1.6,0.6,2.4,1
						C122.5,30.6,128.3,38.1,131.7,46.3z"/>
				</g>
				<g>
				</g>
			</g>
			<g>
				<g>
					<path class="st0" d="M68.4,56.8c-0.2-0.7-0.8-1-1.5-0.9c-0.8,0.1-0.4,1.3,0.3,1.1c0,0,0,0,0,0.1C67.5,57.8,68.7,57.5,68.4,56.8
						L68.4,56.8z"/>
				</g>
			</g>
			<g>
				<g>
					<path class="st0" d="M73.7,48.9c-0.4,1.4-0.7,2.8-0.9,4.2c-0.1,0.6,0.8,1.1,1.1,0.5c0.9-1.9,1.6-3.9,1.9-6
						c0.1-0.7-0.9-1.1-1.1-0.3c-0.7,2.5-1.1,5-1.2,7.5c0,0.8,1.2,0.8,1.2,0c0.1-2.5,0.5-4.9,1.1-7.2c-0.4-0.1-0.8-0.2-1.1-0.3
						c-0.3,2-0.9,3.9-1.8,5.7c0.4,0.2,0.7,0.3,1.1,0.5c0.2-1.4,0.6-2.8,0.9-4.2C75.1,48.5,73.9,48.1,73.7,48.9L73.7,48.9z"/>
				</g>
			</g>
			<g>
				<g>
					<path class="st0" d="M90.8,46.4c0.8,0,0.8-1.2,0-1.2C90,45.2,90,46.4,90.8,46.4L90.8,46.4z"/>
				</g>
			</g>
			<g>
				<g>
					<path class="st0" d="M90.8,46.4c0.8,0,0.8-1.2,0-1.2C90,45.2,90,46.4,90.8,46.4L90.8,46.4z"/>
				</g>
			</g>
			<g>
				<g>
					<path class="st0" d="M103.4,46.1c0.6,0.7,1.7,0.3,2.4,0c1-0.4,2-1,2.8-1.7c0.6-0.5-0.3-1.3-0.8-0.8c-0.5,0.5-1.1,0.9-1.8,1.2
						c-0.3,0.2-1.5,0.8-1.8,0.5C103.7,44.7,102.9,45.5,103.4,46.1L103.4,46.1z"/>
				</g>
			</g>
		</g>
		<g>
			<g>
				<path class="st1" d="M76.1,92.9C70.5,85.3,69,76.2,68,67.1c-0.1-0.8-1.3-0.8-1.2,0c1,9.4,2.5,18.7,8.3,26.5
					C75.6,94.1,76.6,93.5,76.1,92.9L76.1,92.9z"/>
			</g>
		</g>
		<g>
			<g>
				<path class="st1" d="M68.1,67.5c-0.5-5.5-1.3-11.8,0-17.2c1.3-5.8,5.6-11.3,9.4-15.8c8.9-10.4,22.4-10.8,34.8-7.9
					c0.7,0.2,1.1-1,0.3-1.1c-12.1-2.9-25.8-2.8-34.9,6.9c-3.8,4-7.7,9.2-9.8,14.3c-2.6,6.4-1.7,14.1-1,20.8
					C67,68.3,68.2,68.3,68.1,67.5L68.1,67.5z"/>
			</g>
		</g>
		<g>
			<g>
				<path class="st1" d="M76.1,93c-1.8-8.1-3.4-16.2-2.9-24.5c0.5-8,2.4-15.8,4.5-23.6c0.2-0.7-0.9-1.1-1.1-0.3
					c-2.1,7.8-4.1,15.8-4.5,23.9c-0.5,8.5,1.1,16.6,2.9,24.9C75.1,94.1,76.2,93.7,76.1,93L76.1,93z"/>
			</g>
		</g>
		<g>
			<g>
				<path class="st1" d="M77.2,45c0.7,0.6,1.5,0.9,2.5,0.9c0.4,0,0.8-0.1,1.1-0.3c0.2-0.1,0.5-0.4,0.7-0.4c0.2,0,0.7,0.7,0.8,0.8
					c0.6,0.5,1.4-0.3,0.8-0.8c-0.6-0.5-1.3-1.5-2.1-1.1c-0.4,0.2-0.7,0.5-1.1,0.6c-0.7,0.2-1.4,0-1.9-0.5
					C77.4,43.7,76.6,44.5,77.2,45L77.2,45z"/>
			</g>
		</g>
		<g>
			<g>
				<path class="st1" d="M82.9,46.8c0.7-0.4,1.4-0.9,2.1-1.3c0.9-0.4,0.8,0,1.4,0.4c0.3,0.2,0.6,0.4,1,0.3c0.6,0,1.6-1,2-0.8
					c0.7,0.3,1.3-0.7,0.6-1c-0.6-0.3-1.1-0.3-1.7,0c-0.6,0.3-0.8,0.7-1.6,0.2c-0.2-0.1-0.3-0.4-0.5-0.5c-0.4-0.3-0.9-0.3-1.3-0.1
					c-1,0.5-1.8,1.3-2.8,1.8C81.7,46.1,82.3,47.2,82.9,46.8L82.9,46.8z"/>
			</g>
		</g>
		<g>
			<g>
				<path class="st1" d="M89.4,45.8c0.2,0.5,0.6,0.9,1.2,0.9c0.6,0,1.2-0.4,1.6-0.8c0.5-0.5-0.3-1.4-0.8-0.8
					c-0.1,0.1-0.7,0.7-0.8,0.4C90.4,44.8,89.2,45.1,89.4,45.8L89.4,45.8z"/>
			</g>
		</g>
		<g>
			<g>
				<path class="st1" d="M92,46.3c1.1-1.3,2.2,0.4,3.5,0.2c0.3,0,0.5-0.2,0.8-0.3c0.3-0.4,0.7-0.6,1.2-0.6c0.4,0.2,0.7,0.4,1,0.6
					c0.6,0.4,1.2-0.6,0.6-1c-0.6-0.4-1.3-0.9-2.1-0.8c-0.2,0-0.4,0.1-0.6,0.2c-0.6,0.3-0.4,0.5-1.2,0.5c-0.9,0-1.5-0.6-2.4-0.6
					c-0.7,0.1-1.2,0.4-1.6,0.9C90.6,46.1,91.5,46.9,92,46.3L92,46.3z"/>
			</g>
		</g>
		<g>
			<g>
				<path class="st1" d="M98.5,46.5c0.8,0.1,1-0.2,1.7-0.4c1.3-0.4,1.8,0.3,2.9,0.6c0.9,0.3,1.9,0.2,2.7-0.1c0.8-0.3,2-1.3,2.8-1.3
					c-0.2-0.1-0.4-0.3-0.6-0.4c0,0,0,0.1,0,0.1c0.2,0.7,1.3,0.4,1.1-0.3c0,0,0-0.1,0-0.1c-0.1-0.3-0.3-0.4-0.6-0.4
					c-0.6-0.1-1.1,0.3-1.6,0.6c-0.6,0.3-1.4,0.9-2.1,0.9c-0.9,0.1-1.9-0.5-2.7-0.9c-0.5-0.2-0.8-0.5-1.3-0.4c-0.7,0.1-1.5,1.1-2.1,1
					C98,45.2,97.7,46.4,98.5,46.5L98.5,46.5z"/>
			</g>
		</g>
		<g>
			<g>
				<path class="st2" d="M108.2,45.6c1.7,1,2.8,1.2,4.5,0.2c0.7-0.4,1.1-0.8,2-0.4c0.4,0.1,0.7,0.5,1.1,0.7c0.8,0.3,1.6,0.2,2.4-0.1
					c0.7-0.3,0.4-1.4-0.3-1.1c-1.8,0.7-2.6-1.1-4.2-1c-0.4,0-0.7,0.2-1.1,0.4c-0.6,0.4-0.8,0.6-1.6,0.8c-1,0.3-1.4,0.1-2.3-0.5
					C108.1,44.2,107.5,45.2,108.2,45.6L108.2,45.6z"/>
			</g>
		</g>
		<g>
			<g>
				<path class="st1" d="M118.3,46.2c0.4-0.2,0.8-0.4,1.2-0.7c0.3-0.2,0.6-0.8,1-0.9c0.3,0,0.8,0.3,1.1,0.3c0.5,0,1-0.1,1.4-0.3
					c0.7-0.3,0.1-1.3-0.6-1c-1,0.4-1.7-0.6-2.6-0.2c-0.2,0.1-0.4,0.3-0.5,0.4c-0.4,0.5-0.8,0.9-1.4,1.1
					C117.3,45.3,117.6,46.4,118.3,46.2L118.3,46.2z"/>
			</g>
		</g>
		<g>
			<g>
				<path class="st1" d="M90.1,24.8c-1.6-0.9-3.9-1.7-5.2-3.1c-1.9-2-1.8-5.7-1-8.2c1.9-5.2,6.8-5.4,11.5-4.1c0.7,0.2,1.1-1,0.3-1.1
					c-5.3-1.4-10.8-1.1-13,4.8c-0.9,2.3-0.9,5.3,0.1,7.6c1.2,2.7,4.2,3.8,6.6,5.1C90.2,26.2,90.8,25.2,90.1,24.8L90.1,24.8z"/>
			</g>
		</g>
		<g>
			<g>
				<path class="st1" d="M107,9c5.3-1.3,9.1,2.9,8.6,8c-0.3,3.4-2.2,6.2-4,9c-0.4,0.6,0.6,1.2,1,0.6c2.6-4.1,5.7-9.1,3.7-14.1
					c-1.5-3.9-5.7-5.5-9.6-4.6C105.9,8,106.2,9.2,107,9L107,9z"/>
			</g>
		</g>
		<g>
			<g>
				<path class="st1" d="M124.6,93.7c3-16.3,6.5-34-1.4-49.6c-0.3-0.7-1.4-0.1-1,0.6c7.8,15.3,4.2,32.7,1.3,48.7
					C123.3,94.2,124.5,94.5,124.6,93.7L124.6,93.7z"/>
			</g>
		</g>
		<g>
			<g>
				<path class="st1" d="M124.2,94.1c5.4-4.7,7-12.1,8.5-18.8c1.8-8.4,2.4-16.8,1.3-25.3c-0.1-0.8-1.3-0.4-1.1,0.3
					c1.1,8.3,0.5,16.5-1.3,24.7c-1.4,6.5-3,13.8-8.2,18.3C122.8,93.8,123.7,94.6,124.2,94.1L124.2,94.1z"/>
			</g>
		</g>
		<g>
			<g>
				<path class="st1" d="M134.1,50.4c-2.6-9.9-11-22.8-21.9-25c-0.7-0.2-1.1,1-0.3,1.1c10.4,2.1,18.6,14.7,21,24.2
					C133.2,51.5,134.3,51.2,134.1,50.4L134.1,50.4z"/>
			</g>
		</g>
		<g>
			<g>
				<path class="st1" d="M91.7,8.1c-0.8-2.3,6.1-3.4,7.4-3.5c3,0,5.5,1.2,7,3.8c0.4,0.7,1.4,0.1,1-0.6c-1.9-3.3-5.5-4.7-9.2-4.3
					c-2.2,0.2-8.6,1.5-7.4,4.9C90.8,9.1,92,8.8,91.7,8.1L91.7,8.1z"/>
			</g>
		</g>
	</g>
	<g>
		<g>
			<path class="st3" d="M72.1,79c-2.5-12-4.2-24.7,2.4-35.7c0.4-0.7-0.6-1.3-1-0.6C66.6,54,68.3,67,70.9,79.3
				C71.1,80.1,72.2,79.8,72.1,79L72.1,79z"/>
		</g>
	</g>
	<g>
		<g>
			<path class="st3" d="M127.4,86.1c4.3-7.3,5.3-15.6,4.6-24c-0.6-7.3-1.5-15.5-6.7-21c-0.5-0.6-1.4,0.3-0.8,0.8
				c5.3,5.5,6.1,14.5,6.5,21.8c0.4,7.7-0.6,15.1-4.5,21.8C126,86.1,127,86.7,127.4,86.1L127.4,86.1z"/>
		</g>
	</g>
	<g>
		<g>
			<path class="st3" d="M91.4,21.9c-1.3-1.3-3.4-2.7-4.3-4.4c-0.8-1.7,0.2-2.8,1.5-3.6c0.6-0.4,1.8-1.2,2.5-0.7
				c0.7,0.4,1.3-0.6,0.6-1c-1.8-1.1-5,1.1-5.8,2.8c-1.5,3.2,2.7,6,4.6,7.9C91.1,23.3,91.9,22.5,91.4,21.9L91.4,21.9z"/>
		</g>
	</g>
	<g>
		<g>
			<path class="st3" d="M96.2,7c3.1,0,6,1,8.5,2.9c0.6,0.5,1.2-0.6,0.6-1c-2.7-2-5.8-3-9.1-3C95.4,5.8,95.4,6.9,96.2,7L96.2,7z"/>
		</g>
	</g>
	<g>
		<g>
			<path class="st3" d="M111.1,23.6c1.5-2.8,3-6.1,1.8-9.2c-0.9-2.5-3.1-4-5.6-4.5c-0.7-0.1-1.1,1-0.3,1.1c2.6,0.5,4.5,2.1,5,4.8
				c0.5,2.6-0.7,5-1.9,7.2C109.7,23.6,110.7,24.2,111.1,23.6L111.1,23.6z"/>
		</g>
	</g>
</g>
</svg>
