<?xml version="1.0" encoding="utf-8"?>
<!-- Generator: Adobe Illustrator 21.0.2, SVG Export Plug-In . SVG Version: 6.00 Build 0)  -->
<svg version="1.1" id="Layer_1" xmlns="http://www.w3.org/2000/svg" xmlns:xlink="http://www.w3.org/1999/xlink" x="0px" y="0px"
	 viewBox="0 0 200 600" style="enable-background:new 0 0 200 600;" xml:space="preserve">
<style type="text/css">
	.st0{fill:#FFE329;}
	.st1{fill:#231F20;}
	.st2{fill:#060706;}
	.st3{fill:#F9EE53;}
</style>
<g>
	<g>
		<g>
			<g id="XMLID_2_">
				<g>
					<path class="st0" d="M121.6,46.1c-0.4,0.2-0.9,0.3-1.3,0.1c-0.2-0.1-0.4-0.3-0.6-0.4c-0.7-0.3-1.3,0.4-1.9,0.8
						c-0.8,0.5-2,0.5-2.8-0.2l-0.1,0c-0.3-0.6-1-0.8-1.6-0.6s-1.2,0.5-1.7,0.8c-0.6,0.3-1.2,0.5-1.8,0.3c-0.8-0.2-1.4-1.1-2.3-1
						c-0.2,0-0.4,0.1-0.6,0.2c-0.8,0.4-1.6,0.7-2.4,1l-0.1-0.2c-0.8,0.4-1.9,0.3-2.6-0.3c-0.2-0.2-0.4-0.4-0.6-0.5
						c-0.9-0.4-1.9,0.9-2.9,0.7c-0.4-0.1-0.7-0.3-1-0.4c-0.8-0.3-1.8-0.1-2.3,0.6l-0.3,0c-1-0.8-2.5-1-3.6-0.4
						c-0.3,0.1-0.6,0.3-0.9,0.3c-0.3,0-0.5-0.3-0.8-0.4c-0.5-0.3-1.2-0.3-1.8,0c-0.3,0.2-0.5,0.4-0.9,0.5c-0.3,0.1-0.8-0.1-0.7-0.5
						h0c-0.3-0.6-1.2-0.6-1.9-0.3c-0.5,0.2-1.1,0.5-1.6,0.6L82,46.7c-0.2-0.5-0.9-0.6-1.4-0.4c-0.5,0.2-1,0.5-1.5,0.5
						c-0.5,0.1-1.1-0.3-1.1-0.7l-0.5,0c-2,2.6-2.7,5.9-3.3,9.2c-0.8,4.1-1.6,8.3-1.8,12.5c-0.3,5.7,0.5,11.4,1.5,17.1
						c0.6,3.3,1.2,6.7,1.9,10c-1.3-0.9-2.3-2-3.1-3.3l0,0c-3.8-10.7-5.7-22.1-5.6-33.4l0.1,0c-0.8-3.4,0.3-7,1.6-10.2
						c3.4-8.2,9.3-15.8,17.3-19.6c1-0.5,2-0.9,3-1.2c3.6-1.2,7.4-1.8,11.2-1.5c4-0.3,8,0.4,11.8,1.7c0.8,0.3,1.6,0.6,2.4,1
						c8,3.9,13.9,11.4,17.3,19.6c1.2,2.8,2.1,5.8,1.8,8.7h0c0.1,11.3-1.8,22.7-5.6,33.4l-0.1,0.5c-0.8,1.8-2.1,3.3-3.7,4.4
						c0.7-3.3,1.3-6.6,1.9-10c1-5.6,1.8-11.3,1.5-17.1c-0.2-4.2-1-8.4-1.7-12.5c-0.6-3.2-1.3-6.6-3.3-9.2L121.6,46.1z"/>
					<path class="st0" d="M106.5,9.6l0.4,0c2-0.4,4.1,0,5.8,1.2c1.7,1.2,2.8,3,3,5.1c0.2,1.8-0.3,3.6-0.7,5.4
						c-0.5,2.1-1.2,4.3-2.8,5.8l-0.1,0.3c-3.7-1.4-7.8-2-11.8-1.7c-3.8-0.2-7.6,0.3-11.2,1.5L89,26.5c-3.3-0.7-6.1-3.5-6.8-6.9
						c-0.7-3.3,0.8-7,3.5-9c1.4-1,3.1-1.5,4.7-1.6v0c0.3-0.7,1-1.3,1.6-1.7c1.3-0.9,2.9-1.3,4.5-1.6c2.2-0.4,4.6-0.3,6.7,0.7
						C104.7,7,105.9,8.2,106.5,9.6z"/>
				</g>
				<g>
				</g>
			</g>
		</g>
		<g>
			<g>
				<path class="st1" d="M76.2,94.4c-5.7-7.6-7.2-16.7-8.1-25.9c-0.1-0.8-1.3-0.8-1.2,0c1,9.4,2.5,18.7,8.3,26.5
					C75.7,95.6,76.7,95,76.2,94.4L76.2,94.4z"/>
			</g>
		</g>
		<g>
			<g>
				<path class="st1" d="M68.2,69c-0.5-5.5-1.3-11.8,0-17.2c1.3-5.8,5.6-11.3,9.4-15.8c8.9-10.4,22.4-10.8,34.8-7.9
					c0.7,0.2,1.1-1,0.3-1.1c-12.1-2.9-25.8-2.8-34.9,6.9c-3.8,4-7.7,9.2-9.8,14.3c-2.6,6.4-1.7,14.1-1,20.8
					C67.1,69.8,68.3,69.8,68.2,69L68.2,69z"/>
			</g>
		</g>
		<g>
			<g>
				<path class="st1" d="M76.1,94.5c-1.8-8.1-3.4-16.2-2.9-24.5c0.5-8,2.4-15.8,4.5-23.6c0.2-0.7-0.9-1.1-1.1-0.3
					c-2.1,7.8-4.1,15.8-4.5,23.9c-0.5,8.5,1.1,16.6,2.9,24.9C75.2,95.6,76.3,95.2,76.1,94.5L76.1,94.5z"/>
			</g>
		</g>
		<g>
			<g>
				<path class="st1" d="M77.2,46.5c0.7,0.6,1.5,0.9,2.5,0.9c0.4,0,0.8-0.1,1.1-0.3c0.2-0.1,0.5-0.4,0.7-0.4c0.2,0,0.7,0.7,0.8,0.8
					c0.6,0.5,1.4-0.3,0.8-0.8c-0.6-0.5-1.3-1.5-2.1-1.1c-0.4,0.2-0.7,0.5-1.1,0.6c-0.7,0.2-1.4,0-1.9-0.5
					C77.5,45.2,76.7,46,77.2,46.5L77.2,46.5z"/>
			</g>
		</g>
		<g>
			<g>
				<path class="st1" d="M83,48.3c0.7-0.4,1.4-0.9,2.1-1.3c0.9-0.4,0.8,0,1.4,0.4c0.3,0.2,0.6,0.4,1,0.3c0.6,0,1.6-1,2-0.8
					c0.7,0.3,1.3-0.7,0.6-1c-0.6-0.3-1.1-0.3-1.7,0c-0.6,0.3-0.8,0.7-1.6,0.2c-0.2-0.1-0.3-0.4-0.5-0.5c-0.4-0.3-0.9-0.3-1.3-0.1
					c-1,0.5-1.8,1.3-2.8,1.8C81.7,47.6,82.3,48.7,83,48.3L83,48.3z"/>
			</g>
		</g>
		<g>
			<g>
				<path class="st1" d="M89.5,47.3c0.2,0.5,0.6,0.9,1.2,0.9c0.6,0,1.2-0.4,1.6-0.8c0.5-0.5-0.3-1.4-0.8-0.8
					c-0.1,0.1-0.7,0.7-0.8,0.4C90.5,46.3,89.3,46.6,89.5,47.3L89.5,47.3z"/>
			</g>
		</g>
		<g>
			<g>
				<path class="st1" d="M92.1,47.8c1.1-1.3,2.2,0.4,3.5,0.2c0.3,0,0.5-0.2,0.8-0.3c0.3-0.4,0.7-0.6,1.2-0.6c0.4,0.2,0.7,0.4,1,0.6
					c0.6,0.4,1.2-0.6,0.6-1c-0.6-0.4-1.3-0.9-2.1-0.8c-0.2,0-0.4,0.1-0.6,0.2c-0.6,0.3-0.4,0.5-1.2,0.5c-0.9,0-1.5-0.6-2.4-0.6
					c-0.7,0.1-1.2,0.4-1.6,0.9C90.7,47.6,91.6,48.4,92.1,47.8L92.1,47.8z"/>
			</g>
		</g>
		<g>
			<g>
				<path class="st1" d="M98.5,48c0.8,0.1,1-0.2,1.7-0.4c1.3-0.4,1.8,0.3,2.9,0.6c0.9,0.3,1.9,0.2,2.7-0.1c0.8-0.3,2-1.3,2.8-1.3
					c-0.2-0.1-0.4-0.3-0.6-0.4c0,0,0,0.1,0,0.1c0.2,0.7,1.3,0.4,1.1-0.3c0,0,0-0.1,0-0.1c-0.1-0.3-0.3-0.4-0.6-0.4
					c-0.6-0.1-1.1,0.3-1.6,0.6c-0.6,0.3-1.4,0.9-2.1,0.9c-0.9,0.1-1.9-0.5-2.7-0.9c-0.5-0.2-0.8-0.5-1.3-0.4c-0.7,0.1-1.5,1.1-2.1,1
					C98.1,46.7,97.8,47.9,98.5,48L98.5,48z"/>
			</g>
		</g>
		<g>
			<g>
				<path class="st2" d="M108.3,47.1c1.7,1,2.8,1.2,4.5,0.2c0.7-0.4,1.1-0.8,2-0.4c0.4,0.1,0.7,0.5,1.1,0.7c0.8,0.3,1.6,0.2,2.4-0.1
					c0.7-0.3,0.4-1.4-0.3-1.1c-1.8,0.7-2.6-1.1-4.2-1c-0.4,0-0.7,0.2-1.1,0.4c-0.6,0.4-0.8,0.6-1.6,0.8c-1,0.3-1.4,0.1-2.3-0.5
					C108.2,45.7,107.6,46.7,108.3,47.1L108.3,47.1z"/>
			</g>
		</g>
		<g>
			<g>
				<path class="st1" d="M118.3,47.7c0.4-0.2,0.8-0.4,1.2-0.7c0.3-0.2,0.6-0.8,1-0.9c0.3,0,0.8,0.3,1.1,0.3c0.5,0,1-0.1,1.4-0.3
					c0.7-0.3,0.1-1.3-0.6-1c-1,0.4-1.7-0.6-2.6-0.2c-0.2,0.1-0.4,0.3-0.5,0.4c-0.4,0.5-0.8,0.9-1.4,1.1
					C117.3,46.8,117.6,47.9,118.3,47.7L118.3,47.7z"/>
			</g>
		</g>
		<g>
			<g>
				<path class="st1" d="M90.2,26.3c-1.6-0.9-3.9-1.7-5.2-3.1c-1.9-2-1.8-5.7-1-8.2c1.9-5.2,6.8-5.4,11.5-4.1c0.7,0.2,1.1-1,0.3-1.1
					c-5.3-1.4-10.8-1.1-13,4.8c-0.9,2.3-0.9,5.3,0.1,7.6c1.2,2.7,4.2,3.8,6.6,5.1C90.3,27.7,90.9,26.7,90.2,26.3L90.2,26.3z"/>
			</g>
		</g>
		<g>
			<g>
				<path class="st1" d="M107.1,10.5c5.3-1.3,9.1,2.9,8.6,8c-0.3,3.4-2.2,6.2-4,9c-0.4,0.6,0.6,1.2,1,0.6c2.6-4.1,5.7-9.1,3.7-14.1
					c-1.5-3.9-5.7-5.5-9.6-4.6C106,9.5,106.3,10.7,107.1,10.5L107.1,10.5z"/>
			</g>
		</g>
		<g>
			<g>
				<path class="st1" d="M124.7,95.2c3-16.3,6.5-34-1.4-49.6c-0.3-0.7-1.4-0.1-1,0.6c7.8,15.3,4.2,32.7,1.3,48.7
					C123.4,95.7,124.5,96,124.7,95.2L124.7,95.2z"/>
			</g>
		</g>
		<g>
			<g>
				<path class="st1" d="M124.3,95.6c5.4-4.7,7-12.1,8.5-18.8c1.8-8.4,2.4-16.8,1.3-25.3c-0.1-0.8-1.3-0.4-1.1,0.3
					c1.1,8.3,0.5,16.5-1.3,24.7c-1.4,6.5-3,13.8-8.2,18.3C122.9,95.3,123.7,96.1,124.3,95.6L124.3,95.6z"/>
			</g>
		</g>
		<g>
			<g>
				<path class="st1" d="M134.2,51.9c-2.6-9.9-11-22.8-21.9-25c-0.7-0.2-1.1,1-0.3,1.1c10.4,2.1,18.6,14.7,21,24.2
					C133.3,53,134.4,52.7,134.2,51.9L134.2,51.9z"/>
			</g>
		</g>
		<g>
			<g>
				<path class="st1" d="M91.8,9.6c-0.8-2.3,6.1-3.4,7.4-3.5c3,0,5.5,1.2,7,3.8c0.4,0.7,1.4,0.1,1-0.6C105.3,6,101.7,4.6,98,5
					c-2.2,0.2-8.6,1.5-7.4,4.9C90.9,10.6,92,10.3,91.8,9.6L91.8,9.6z"/>
			</g>
		</g>
	</g>
	<g>
		<g>
			<path class="st3" d="M72.2,80.5c-2.5-12-4.2-24.7,2.4-35.7c0.4-0.7-0.6-1.3-1-0.6c-6.8,11.3-5.2,24.3-2.6,36.6
				C71.2,81.6,72.3,81.3,72.2,80.5L72.2,80.5z"/>
		</g>
	</g>
	<g>
		<g>
			<path class="st3" d="M127.5,87.6c4.3-7.3,5.3-15.6,4.6-24c-0.6-7.3-1.5-15.5-6.7-21c-0.5-0.6-1.4,0.3-0.8,0.8
				c5.3,5.5,6.1,14.5,6.5,21.8c0.4,7.7-0.6,15.1-4.5,21.8C126.1,87.6,127.1,88.2,127.5,87.6L127.5,87.6z"/>
		</g>
	</g>
	<g>
		<g>
			<path class="st3" d="M91.5,23.4c-1.3-1.3-3.4-2.7-4.3-4.4c-0.8-1.7,0.2-2.8,1.5-3.6c0.6-0.4,1.8-1.2,2.5-0.7
				c0.7,0.4,1.3-0.6,0.6-1c-1.8-1.1-5,1.1-5.8,2.8c-1.5,3.2,2.7,6,4.6,7.9C91.2,24.8,92,24,91.5,23.4L91.5,23.4z"/>
		</g>
	</g>
	<g>
		<g>
			<path class="st3" d="M96.2,8.5c3.1,0,6,1,8.5,2.9c0.6,0.5,1.2-0.6,0.6-1c-2.7-2-5.8-3-9.1-3C95.5,7.3,95.5,8.4,96.2,8.5L96.2,8.5
				z"/>
		</g>
	</g>
	<g>
		<g>
			<path class="st3" d="M111.2,25.1c1.5-2.8,3-6.1,1.8-9.2c-0.9-2.5-3.1-4-5.6-4.5c-0.7-0.1-1.1,1-0.3,1.1c2.6,0.5,4.5,2.1,5,4.8
				c0.5,2.6-0.7,5-1.9,7.2C109.8,25.1,110.8,25.7,111.2,25.1L111.2,25.1z"/>
		</g>
	</g>
</g>
</svg>
