<?xml version="1.0" encoding="utf-8"?>
<!-- Generator: Adobe Illustrator 21.0.2, SVG Export Plug-In . SVG Version: 6.00 Build 0)  -->
<svg version="1.1" id="Layer_1" xmlns="http://www.w3.org/2000/svg" xmlns:xlink="http://www.w3.org/1999/xlink" x="0px" y="0px"
	 viewBox="0 0 200 600" style="enable-background:new 0 0 200 600;" xml:space="preserve">
<style type="text/css">
	.st0{fill:#603016;}
	.st1{fill:#221F1F;}
	.st2{fill:#613719;}
</style>
<g>
	<g>
		<g id="XMLID_2_">
			<g>
				<path class="st0" d="M92.4,6.3c1.4-0.9,2.9-1.3,4.5-1.6c2.2-0.4,4.6-0.3,6.7,0.7c1.4,0.7,2.6,1.9,3.2,3.3l0.4,0
					c2-0.4,4.1,0,5.8,1.2c1.7,1.2,2.8,3,3,5.1c0.2,1.8-0.3,3.6-0.7,5.4c-0.6,2.1-1.2,4.3-2.8,5.8l-0.1,0.3c-3.7-1.4-7.8-2-11.8-1.7
					c-3.8-0.2-7.6,0.3-11.2,1.5l-0.2-0.5c-3.3-0.7-6.1-3.5-6.8-6.9c-0.7-3.3,0.8-7,3.5-9c1.4-1,3-1.5,4.7-1.6v0
					C91.1,7.3,91.8,6.8,92.4,6.3z"/>
				<path class="st0" d="M95,46.3c-1-0.8-2.5-1-3.6-0.4c-0.3,0.1-0.6,0.3-0.9,0.3c-0.3,0-0.5-0.3-0.8-0.4c-0.5-0.3-1.2-0.3-1.8,0
					c-0.3,0.2-0.5,0.4-0.9,0.5c-0.3,0.1-0.8-0.1-0.7-0.5h0c-0.3-0.6-1.2-0.6-1.9-0.3c-0.5,0.2-1,0.5-1.6,0.6l-0.6-0.3
					c-0.2-0.5-0.9-0.6-1.4-0.4c-0.5,0.2-1,0.5-1.5,0.5c-0.5,0.1-1-0.3-1-0.7l-0.5,0c-2,2.6-2.7,6-3.3,9.2c-0.8,4.1-1.6,8.3-1.8,12.5
					c-0.3,5.7,0.6,11.4,1.5,17.1c0.6,3.3,1.2,6.7,1.9,10c-1.3-0.9-2.3-2-3.1-3.3l0,0c-3.8-10.7-5.7-22.1-5.6-33.4l0.1,0
					c-0.8-3.4,0.3-7,1.6-10.2c3.4-8.2,9.3-15.8,17.3-19.6c1-0.5,2-0.9,3-1.2c3.6-1.2,7.4-1.8,11.2-1.5c4-0.3,8,0.4,11.8,1.7
					c0.8,0.3,1.6,0.6,2.4,1c8,3.9,13.9,11.4,17.3,19.6c1.2,2.8,2.1,5.8,1.8,8.7h0c0.1,11.4-1.8,22.7-5.6,33.4l-0.1,0.4
					c-0.8,1.8-2.1,3.3-3.7,4.4c0.7-3.3,1.3-6.6,1.9-10c1-5.6,1.8-11.3,1.5-17.1c-0.2-4.2-1-8.4-1.7-12.5c-0.6-3.2-1.3-6.6-3.3-9.2
					l-0.9,0c-0.4,0.2-0.9,0.3-1.3,0.1c-0.2-0.1-0.4-0.3-0.6-0.4c-0.7-0.3-1.3,0.4-1.9,0.8c-0.8,0.5-2,0.5-2.8-0.2l-0.1,0
					c-0.3-0.6-1-0.8-1.6-0.7c-0.6,0.1-1.2,0.5-1.7,0.8c-0.5,0.3-1.2,0.5-1.8,0.3c-0.8-0.2-1.4-1.1-2.3-1c-0.2,0-0.4,0.1-0.6,0.2
					c-0.8,0.3-1.6,0.7-2.4,1l-0.1-0.2c-0.8,0.4-1.9,0.3-2.6-0.3c-0.2-0.2-0.4-0.4-0.7-0.5c-0.9-0.4-1.9,0.9-2.9,0.7
					c-0.4,0-0.7-0.3-1-0.4c-0.8-0.3-1.8-0.1-2.3,0.6L95,46.3z"/>
			</g>
			<g>
			</g>
		</g>
	</g>
	<g>
		<g>
			<path class="st1" d="M76.2,93.5c-5.7-7.6-7.2-16.7-8.1-25.9c-0.1-0.8-1.3-0.8-1.2,0c1,9.4,2.5,18.7,8.3,26.5
				C75.6,94.7,76.7,94.1,76.2,93.5L76.2,93.5z"/>
		</g>
	</g>
	<g>
		<g>
			<path class="st1" d="M68.2,68.1c-0.5-5.5-1.3-11.8,0-17.2c1.3-5.8,5.6-11.3,9.4-15.8c8.9-10.4,22.4-10.8,34.8-7.9
				c0.7,0.2,1.1-1,0.3-1.1c-12.1-2.9-25.8-2.8-34.9,6.9c-3.8,4-7.7,9.2-9.8,14.3c-2.6,6.4-1.7,14.1-1,20.8
				C67.1,68.9,68.3,68.9,68.2,68.1L68.2,68.1z"/>
		</g>
	</g>
	<g>
		<g>
			<path class="st1" d="M76.3,93.6c-1.8-8.1-3.4-16.2-2.9-24.5c0.5-8,2.4-15.8,4.5-23.6c0.2-0.7-0.9-1.1-1.1-0.3
				c-2.1,7.8-4.1,15.8-4.5,23.9c-0.5,8.5,1.1,16.6,2.9,24.9C75.4,94.7,76.5,94.4,76.3,93.6L76.3,93.6z"/>
		</g>
	</g>
	<g>
		<g>
			<path class="st1" d="M77.2,45.6c0.7,0.6,1.5,0.9,2.5,0.9c0.4,0,0.8-0.1,1.1-0.3c0.2-0.1,0.5-0.4,0.7-0.4c0.2,0,0.7,0.7,0.8,0.8
				c0.6,0.5,1.4-0.3,0.8-0.8c-0.6-0.5-1.3-1.5-2.1-1.1c-0.4,0.2-0.7,0.5-1.1,0.6c-0.7,0.2-1.4,0-1.9-0.5
				C77.5,44.2,76.6,45.1,77.2,45.6L77.2,45.6z"/>
		</g>
	</g>
	<g>
		<g>
			<path class="st1" d="M83,47.4c0.7-0.4,1.4-0.9,2.1-1.3c0.9-0.4,0.8,0,1.4,0.4c0.3,0.2,0.6,0.4,1,0.3c0.6,0,1.6-1,2-0.8
				c0.7,0.3,1.3-0.7,0.6-1c-0.6-0.3-1.1-0.3-1.7,0c-0.6,0.3-0.8,0.7-1.6,0.2c-0.2-0.1-0.3-0.4-0.5-0.5c-0.4-0.3-0.9-0.3-1.3-0.1
				c-1,0.5-1.8,1.3-2.8,1.8C81.7,46.7,82.3,47.7,83,47.4L83,47.4z"/>
		</g>
	</g>
	<g>
		<g>
			<path class="st1" d="M89.5,46.4c0.2,0.5,0.6,0.9,1.2,0.9c0.6,0,1.2-0.4,1.6-0.8c0.5-0.5-0.3-1.4-0.8-0.8
				c-0.1,0.1-0.7,0.7-0.8,0.4C90.5,45.3,89.3,45.7,89.5,46.4L89.5,46.4z"/>
		</g>
	</g>
	<g>
		<g>
			<path class="st1" d="M92,46.9c1.1-1.3,2.2,0.4,3.5,0.2c0.3,0,0.5-0.2,0.8-0.3c0.3-0.4,0.7-0.6,1.2-0.6c0.4,0.2,0.7,0.4,1,0.6
				c0.6,0.4,1.2-0.6,0.6-1c-0.6-0.4-1.3-0.9-2.1-0.8c-0.2,0-0.4,0.1-0.6,0.2c-0.6,0.3-0.4,0.5-1.2,0.5c-0.9,0-1.5-0.6-2.4-0.6
				c-0.7,0.1-1.2,0.4-1.6,0.9C90.7,46.6,91.5,47.5,92,46.9L92,46.9z"/>
		</g>
	</g>
	<g>
		<g>
			<path class="st1" d="M98.5,47c0.8,0.1,1-0.2,1.7-0.4c1.3-0.4,1.8,0.3,2.9,0.6c0.9,0.3,1.9,0.2,2.7-0.1c0.8-0.3,2-1.3,2.8-1.3
				c-0.2-0.1-0.4-0.3-0.6-0.4c0,0,0,0.1,0,0.1c0.2,0.7,1.3,0.4,1.1-0.3c0,0,0-0.1,0-0.1c-0.1-0.3-0.3-0.4-0.6-0.4
				c-0.6-0.1-1.1,0.3-1.6,0.6c-0.6,0.3-1.4,0.9-2.1,0.9c-0.9,0.1-1.9-0.5-2.7-0.9c-0.5-0.2-0.8-0.5-1.3-0.4c-0.7,0.1-1.5,1.1-2.1,1
				C98.1,45.8,97.8,46.9,98.5,47L98.5,47z"/>
		</g>
	</g>
	<g>
		<g>
			<path class="st1" d="M108.3,46c1.5,0.9,2.9,1.4,4.4,0.3c0.9-0.7,0.8-0.9,2.2-0.3c0.4,0.2,0.6,0.5,1,0.6c0.8,0.3,1.6,0.2,2.4-0.1
				c0.7-0.3,0.4-1.4-0.3-1.1c-1.8,0.7-2.7-1.4-4.4-1.1c-0.4,0.1-0.7,0.3-1.1,0.5c-1.4,0.8-2.3,0.9-3.7,0.1
				C108.2,44.6,107.6,45.6,108.3,46L108.3,46z"/>
		</g>
	</g>
	<g>
		<g>
			<path class="st1" d="M118.3,46.9c0.4-0.2,0.8-0.4,1.2-0.7c0.3-0.2,0.6-0.8,1-0.9c0.3,0,0.8,0.3,1.1,0.3c0.5,0,1-0.1,1.4-0.3
				c0.7-0.3,0.1-1.3-0.6-1c-1,0.4-1.7-0.6-2.6-0.2c-0.2,0.1-0.4,0.3-0.5,0.4c-0.4,0.5-0.8,0.9-1.4,1.1
				C117.3,46,117.6,47.2,118.3,46.9L118.3,46.9z"/>
		</g>
	</g>
	<g>
		<g>
			<path class="st1" d="M90.2,25.3c-1.6-0.9-3.9-1.7-5.2-3.1c-1.9-2-1.8-5.7-1-8.2c1.9-5.2,6.8-5.4,11.5-4.1c0.7,0.2,1.1-1,0.3-1.1
				c-5.3-1.4-10.8-1.1-13,4.8C82,16,81.9,19,82.9,21.3c1.2,2.7,4.2,3.8,6.6,5.1C90.2,26.7,90.8,25.7,90.2,25.3L90.2,25.3z"/>
		</g>
	</g>
	<g>
		<g>
			<path class="st1" d="M107.1,9.5c5.3-1.3,9.1,2.9,8.6,8c-0.3,3.4-2.2,6.2-4,9c-0.4,0.6,0.6,1.2,1,0.6c2.6-4.1,5.7-9.1,3.7-14.1
				c-1.5-3.9-5.7-5.5-9.6-4.6C106,8.6,106.3,9.7,107.1,9.5L107.1,9.5z"/>
		</g>
	</g>
	<g>
		<g>
			<path class="st1" d="M124.7,94.3c3-16.3,6.5-34-1.4-49.6c-0.3-0.7-1.4-0.1-1,0.6c7.8,15.3,4.2,32.7,1.3,48.7
				C123.4,94.7,124.5,95,124.7,94.3L124.7,94.3z"/>
		</g>
	</g>
	<g>
		<g>
			<path class="st1" d="M124.3,94.7c5.4-4.7,7-12.1,8.5-18.8c1.8-8.4,2.4-16.8,1.3-25.3c-0.1-0.8-1.3-0.4-1.1,0.3
				c1.1,8.3,0.5,16.5-1.3,24.7c-1.4,6.5-3,13.8-8.2,18.3C122.9,94.3,123.7,95.2,124.3,94.7L124.3,94.7z"/>
		</g>
	</g>
	<g>
		<g>
			<path class="st1" d="M134.2,51c-2.6-9.9-11-22.8-21.9-25c-0.7-0.2-1.1,1-0.3,1.1c10.4,2.1,18.6,14.7,21,24.2
				C133.2,52,134.4,51.7,134.2,51L134.2,51z"/>
		</g>
	</g>
	<g>
		<g>
			<path class="st2" d="M72.3,81.4c-1.5-5.9-2.4-11.9-2.7-18.1c-0.2-5.8-0.5-12.4,3.5-17.1c0.7-0.9-0.5-2.1-1.3-1.3
				c-3.6,4.1-4.1,9.3-4.1,14.6c-0.1,7.5,1,14.9,2.8,22.2C70.9,83,72.6,82.5,72.3,81.4L72.3,81.4z"/>
		</g>
	</g>
	<g>
		<g>
			<path class="st2" d="M91.9,22.6c-2-1.4-6.2-7.1-2.7-9.1c1-0.6,0.1-2.1-0.9-1.5c-5,2.7-0.5,9.9,2.7,12.2
				C91.9,24.8,92.8,23.2,91.9,22.6L91.9,22.6z"/>
		</g>
	</g>
	<g>
		<g>
			<path class="st2" d="M111.8,24c0.9-2.2,2.1-4.6,2.2-7.1c0.1-2.2-0.9-4.1-2-5.9c-0.6-1-2.1-0.1-1.5,0.9c1.3,2.1,2.1,4,1.5,6.5
				c-0.4,1.8-1.2,3.4-1.9,5.1C109.7,24.6,111.4,25,111.8,24L111.8,24z"/>
		</g>
	</g>
	<g>
		<g>
			<path class="st2" d="M128.7,84.3c3.2-10.2,4.2-22.6,2.4-33.1c-0.2-1.1-1.9-0.7-1.7,0.5c1.7,10.2,0.7,22.3-2.4,32.2
				C126.6,84.9,128.4,85.4,128.7,84.3L128.7,84.3z"/>
		</g>
	</g>
</g>
</svg>
