<?xml version="1.0" encoding="utf-8"?>
<!-- Generator: Adobe Illustrator 21.0.2, SVG Export Plug-In . SVG Version: 6.00 Build 0)  -->
<svg version="1.1" id="Layer_1" xmlns="http://www.w3.org/2000/svg" xmlns:xlink="http://www.w3.org/1999/xlink" x="0px" y="0px"
	 viewBox="0 0 200 600" style="enable-background:new 0 0 200 600;" xml:space="preserve">
<style type="text/css">
	.st0{fill:#00535C;}
	.st1{fill:#00445C;}
</style>
<g>
	<g>
		<g>
			<g>
				<g>
					<path class="st0" d="M90.7,156.3c-1.6,1.5-3.2,3-4.8,4.6c0.5,1.1,0.9,2.3,1.4,3.4c-0.9-0.4-1.8-0.8-2.7-1.2
						c0.2,1.6,0.4,3.1,0.6,4.7c0.1-0.1,0.2-0.2,0.3-0.3c-1,0.3-1.9,0.5-2.9,0.8c0.2,0.1,0.3,0.1,0.5,0.2c-0.7-0.7-1.4-1.4-2.1-2.1
						c0.1,0.2,0.1,0.3,0.2,0.5c0.3-1,0.5-1.9,0.8-2.9c-0.5,0.6-4,0.8-4.2,0.7c-3.2-0.3-4.4-2.3-5.8-4.7c-1.9-3.1-3.6-7.1-2.6-10.8
						c2.1-7.6,11.1-9.5,17.9-10c7.1-0.5,14.3-0.3,21.3,0.1c7.3,0.4,15.7,1.3,20.5,7.7c1.8,2.4,6.8,1.2,5.5-2.3
						c-0.8-2-1.6-3.4-3.2-4.8c-2.4-2-6.8,0.7-4.7,3.6c2.6,3.6,3.7,7.2,3.3,11.7c-0.2,3.3,4,3.6,5.6,1.5c1.8-2.4,2.1-5.2,1-7.9
						c-1.2-2.8-6.4-2.9-5.9,0.8c0.5,3.7,0,6.8-1.9,10.1c-1.6,2.9,2.4,6.2,4.7,3.6c0.8-0.9,1.6-1.8,2.4-2.6c-1.7-1-3.3-1.9-5-2.9
						c-0.8,1.9-2,3.4-3.6,4.7c-2.1,1.6-1.8,4.5,0.7,5.5c1.2,0.5,1.9,0.5,3.1,0c-1-1.7-1.9-3.3-2.9-5c-3.2,3.3-9.9,1.7-13.9,1
						c-4-0.7-8-1.8-12-2.7c-7.8-1.9-15.8-3.8-23.9-2.9c-0.8,0.1-1.5,0.2-2.3,0.3c-1.1,0.4-1.9,0.1-2.4-0.9c0,0,3.8,4.7,3.5,5
						c-0.3-1.1-0.4-2.1-0.4-3.2c-0.4-1.6,0.1-2.9,1.4-4.1c1.2-1.9,2-1.6,2.2,1c0.4,1.3,0.5,2.5,0.4,3.8c-1.7,3.1-3.3-0.3-3.8-2.3
						c-0.3-1.5,0.5-2.6-0.7-3.4c1.4,2.4,1.4,2.6,0,0.7c0.6-2-0.3-3.1-2.5-3.2c-0.9-2.1,3.7-3.8,4.8-4c-1.1-1.5-2.3-2.9-3.4-4.4
						c-1.6,2.4-3.5,3.8-6.2,4.7c1.2,1.2,2.5,2.5,3.7,3.7c0.6-3.8,10-6.5,13.1-7.3c5-1.3,10.2-1.6,15.4-1.3c5,0.2,10.1,0.8,14.8,2.4
						c3.1,1.1,7.7,2.8,8.3,6.4c0.4,2.7-0.3,6.7-2,8.8c-2.3,3,1.7,7.2,4.2,4.2c6.4-7.4,6.1-17.8-1.4-24.4c-2.9-2.5-7.1,1.7-4.2,4.2
						c3.2,2.8,6.1,6,4.2,10.5c1.9,0,3.9,0,5.8,0c-1.3-4.5-0.4-9.7-3.4-13.6c-2.7-3.4-7-4.3-11.1-4.1c-13,0.5-26.1,4.8-38.5,8.4
						c-3,0.9-2.7,4.8,0,5.8c6.4,2.4,13.4,1.9,20.1,2.6c7.8,0.8,15.5,2.6,23,4.9c0-1.9,0-3.9,0-5.8c-11.8,2.4-23.8,1.8-35.6-0.3
						c-3.8-0.7-5.2,4.5-1.6,5.8c11.2,4.1,22.5,8.1,34.2,10.5c3.3,0.7,5.3-3.6,2.3-5.5c-6.2-3.8-12.5-7.7-18.7-11.5
						c-1,1.7-2,3.5-3,5.2c8.3,3.5,16.5,7,25.4,8.6c3.8,0.7,5.3-4.5,1.6-5.8c-5.4-1.9-10.8-3.8-15.4-7.4c-1,1.7-1.9,3.3-2.9,5
						c4.8,2,9.7,4.1,14.5,6.1c0.5-1.9,1.1-3.9,1.6-5.8c-8.5-2.8-17.1-5.6-25.6-8.4c-3.2-1-5.4,4-2.3,5.5c4.6,2.2,9.4,4.2,14.2,5.8
						c0.3-2,0.5-3.9,0.8-5.9c-7.3-0.1-14.2-1.2-21.1-3.4c-0.3,2-0.5,3.9-0.8,5.9c2.3-0.2,4.7-0.4,7-0.6c-0.3-2-0.5-3.9-0.8-5.9
						c-1,0-2,0-3-0.1c0.4,1.7,0.9,3.3,1.3,5c8.7-7.2,20.3-4,29.7-0.4c0.5-1.9,1.1-3.9,1.6-5.8c-11.2-3.1-24.8-8.8-36.2-4.1
						c-3.5,1.4-2.3,6.8,1.6,5.8c7.3-1.9,14.8-3.8,22.4-4.3c3.9-0.2,6.9,0.3,9.6,3.1c1.8,1.9,3.1,3.7,5.3,5.2
						c-0.2-1.6-0.4-3.1-0.6-4.7c-2.8,2.8-5.7,5.6-7.5,9.1c-1.9,3.8-2.6,8-3.5,12c-2.2,10.1-5.3,20-8,30c-2.7,9.9-5.3,19.9-8.2,29.7
						c-0.8,2.7-1.4,4.7-4.4,5.5c-4.3,1.1-7.2-0.6-8.9-4.4c-2.1-4.5-2.2-9.5-2.3-14.3c-0.1-3.9-6.1-3.9-6,0
						c0.2,8.1,0.9,21.7,10.4,24.7c3.9,1.2,9.8,0.4,12.9-2.3c3.7-3.1,4.4-8.8,5.6-13.2c3.5-12.6,7-25.3,10.5-37.9
						c1.7-6.2,3.4-12.4,4.7-18.6c0.6-2.7,1.1-5.6,2.4-8.2c1.5-3.1,4.2-5.5,6.6-7.9c1.4-1.4,1-3.6-0.6-4.7c-3-2.1-4.6-5.5-7.8-7.4
						c-2.6-1.5-5.7-1.9-8.6-1.8c-8.5,0.1-17.3,2.4-25.5,4.5c0.5,1.9,1.1,3.9,1.6,5.8c10.2-4.2,23,1.2,33,4.1
						c3.8,1.1,5.1-4.4,1.6-5.8c-11.9-4.5-25.1-6.7-35.6,2c-1.7,1.5-0.7,4.5,1.3,5c2.2,0.5,4,0.5,6.2,0.1c3.3-0.7,2.6-6.2-0.8-5.9
						c-2.3,0.2-4.7,0.4-7,0.6c-3.3,0.3-4.1,4.8-0.8,5.9c7.4,2.4,15,3.6,22.7,3.7c3.5,0,3.9-4.8,0.8-5.9c-4.4-1.5-8.6-3.2-12.8-5.2
						c-0.8,1.8-1.5,3.7-2.3,5.5c8.5,2.8,17.1,5.6,25.6,8.4c3.8,1.2,5-4.3,1.6-5.8c-4.8-2-9.7-4.1-14.5-6.1c-2.7-1.1-5.2,3.2-2.9,5
						c5.4,4.3,11.5,6.7,18,8.9c0.5-1.9,1.1-3.9,1.6-5.8c-8.4-1.5-16.2-4.6-24-8c-3.5-1.5-6.4,3.1-3,5.2c6.2,3.8,12.5,7.7,18.7,11.5
						c0.8-1.8,1.5-3.7,2.3-5.5c-11.7-2.4-23-6.4-34.2-10.5c-0.5,1.9-1.1,3.9-1.6,5.8c12.9,2.4,25.9,3,38.8,0.3
						c3.1-0.6,2.6-4.9,0-5.8c-7-2.2-14.2-3.8-21.5-4.8c-7.1-0.9-14.8-0.1-21.6-2.7c0,1.9,0,3.9,0,5.8c9.5-2.7,19.1-5.5,28.8-7.2
						c3.9-0.7,11.8-2.9,14.7,1.2c1.9,2.7,1.1,7.9,2.1,11.1c0.9,3.1,4.7,2.6,5.8,0c2.7-6.4-1-12.1-5.7-16.4c-1.4,1.4-2.8,2.8-4.2,4.2
						c4.9,4.3,5.7,10.9,1.4,15.9c1.4,1.4,2.8,2.8,4.2,4.2c3.5-4.5,5.7-13.2,2.2-18.3c-4.3-6.2-14.1-8.1-20.9-9c-7.8-1-15.9-1-23.6,1
						c-5.4,1.4-16.3,5-17.2,11.5c-0.3,2.1,1.3,4.5,3.7,3.7c4.2-1.4,7.3-3.7,9.8-7.4c1.6-2.4-1.1-4.7-3.4-4.4c-4.5,0.6-8.1,4-9,8.5
						c-0.9,4.9,2.4,8.3,7.3,7c3.8-1,7.8-4.4,5.8-8.7c-1.7-3.6-6.4-3.8-9-1c-6.6,6.9,4.4,21.3,10.1,12.7c5-7.5-7.5-18.5-11-7.5
						c-1.3,4,0.1,8.7,2.9,11.7c2.8,3,8.3,5.3,11.1,1.1c4.5-6.6-1.1-23.8-10.3-15.9c-3.6,3-5.8,8.2-3.9,12.7c1.5,3.6,5.9,6.8,9.9,5
						c5-2.2,1.7-7.9-0.5-11c-2.3-3.2-6.6-8.4-10.7-4.7c-3.2,2.9-2.8,9,0.8,11.4c2.6,1.7,5.7,0.9,8.6,0.7c4.3-0.3,8.6,0.1,12.9,0.9
						c8.1,1.5,15.9,4.1,24,5.2c5.6,0.7,12,1.3,16.3-3.1c1.9-2,0-6.1-2.9-5c0,0,0,0,0.1,0c0.2,1.8,0.5,3.7,0.7,5.5
						c3-2.3,4.9-4.8,6.4-8.3c1.2-2.8-3.1-5-5-2.9c-0.8,0.9-1.6,1.8-2.4,2.6c1.6,1.2,3.1,2.4,4.7,3.6c2.3-4.1,3.3-8.4,2.7-13.1
						c-2,0.3-3.9,0.5-5.9,0.8c0.8,1.2,0.7,2.3-0.4,3.3c1.9,0.5,3.7,1,5.6,1.5c0.4-5.4-1-10.3-4.1-14.7c-1.6,1.2-3.1,2.4-4.7,3.6
						c0.6,0.7,1.1,1.4,1.7,2.1c1.8-0.8,3.7-1.5,5.5-2.3c-6.7-8.9-17.2-10.3-27.7-10.8c-10.8-0.5-24.9-1.9-34.6,4
						c-8.4,5.1-10.8,14.1-6.7,22.9c1.8,3.9,4.3,8.3,8.6,9.9c3.4,1.3,9.9,1.2,12.4-1.8c0.7-0.8,1.1-1.9,0.8-2.9
						c-0.6-1.6-1.3-2.2-2.8-2.8c-1-0.4-2.2,0.1-2.9,0.8c-0.1,0.1-0.2,0.2-0.3,0.3c-1.3,1.2-1.1,3.9,0.6,4.7c4.2,2,11.1,0.1,9.3-5.9
						c-1.5-5-7.9-4-9.4,0.4c-0.4,1.3,0.3,2.7,1.4,3.4c6.9,4.3,11.8-7.6,4.6-10.1c-7.1-2.5-8.4,10-0.2,9.1c6.3-0.7,7.7-11.9,0.7-11.7
						c-2.8,0.1-4.6,3-4,5.6c0.9,3.9,5.1,4.3,8.3,3.1C95.9,160.8,94.3,155,90.7,156.3L90.7,156.3z"/>
				</g>
			</g>
			<g>
				<g>
					<path class="st0" d="M72.7,167.7c-0.1,0.6-0.1,1.3-0.2,1.9c1.7-0.7,3.4-1.4,5.1-2.1c-0.3-0.4-0.7-0.8-1-1.2
						c-2.4-2.8-6,0.8-4.7,3.6c0.3,1.2,0.6,2.4,0.8,3.6c2-0.3,3.9-0.5,5.9-0.8c-0.5-0.9-0.6-1.9-0.5-2.9c-2,0-4,0-6,0
						c0.8,7.9,2.1,15.8,3.8,23.6c1.8-0.8,3.7-1.5,5.5-2.3c-0.7-1.2-1.1-2.4-1.1-3.7c-0.5-3.3-6.3-2.6-5.9,0.8c0.7,6,1.4,12,2.1,18
						c2-0.3,3.9-0.5,5.9-0.8c-1.2-5.2-2-10.5-2.2-15.8c-1.9,0.5-3.7,1-5.6,1.5c2.6,3.7,1.2,10.5,1.5,14.8c0.4,4.8,1.1,9.6,2.1,14.4
						c0.7,3.1,4.9,2.6,5.8,0c2.2-6.5,4.5-13,6.7-19.5c-1.9,0-3.9,0-5.8,0c1.2,5.8,1.7,11.6,1.8,17.5c2-0.3,3.9-0.5,5.9-0.8
						c-2.6-8.3-0.6-16.4,2.2-24.3c2.7-7.8,5.6-15.5,8.5-23.2c-2-0.3-3.9-0.5-5.9-0.8c0.9,18.5,1.8,37.2-0.9,55.6c1.9,0,3.9,0,5.8,0
						c-1.8-9.9-0.4-19.8,2-29.5c1.1-4.3,2.4-8.6,3.2-13c0.9-4.3,1.2-8.7,2.2-12.9c-1.9,0-3.9,0-5.8,0c1.7,7.8,0.2,15.4-1.5,23
						c-1.6,7-2.9,14.1-4.1,21.2c1.8-0.2,3.7-0.5,5.5-0.7c-3.4-8.1-3.2-17.4-3.4-26.1c-0.2-8.4-0.7-17.1,0.8-25.4
						c-1.9-0.5-3.9-1.1-5.8-1.6c-1.8,9.6-4.5,18.8-8.3,27.8c2,0.3,3.9,0.5,5.9,0.8c-0.2-9.7,2.5-18.7,5.8-27.8
						c-2-0.3-3.9-0.5-5.9-0.8c-0.5,7.8-2.4,15.2-5.6,22.3c1.8,0.2,3.7,0.5,5.5,0.7c-1.5-6.6,0.7-13,2.9-19.2
						c-1.9-0.5-3.9-1.1-5.8-1.6c-0.8,4.2-1.7,8.3-2.7,12.4c-1,3.9-1.5,9.4-4.1,12.5c1.7,0.4,3.3,0.9,5,1.3c-1-5.6-1.4-11.1-1.3-16.8
						c-2,0-4,0-6,0c0.6,5.1,1,9.9-0.4,14.9c1.9,0,3.9,0,5.8,0c-2.1-5.2-2.9-10.5-2.1-16c-1.9,0-3.9,0-5.8,0
						c1.3,5.8,1.3,11.3,0.1,17.1c1.8-0.2,3.7-0.5,5.5-0.7c-3-4.5-1.2-8.1-1.6-12.8c-0.9-2.9-1.1-3.5-0.7-1.7
						c0.3,1.2,0.5,2.4,0.6,3.6c0.2,2.4,0,4.7-0.3,7.1c2-0.3,3.9-0.5,5.9-0.8c-1.5-5-1.4-9.6,0.2-14.6c-1.9,0-3.9,0-5.8,0
						c1.1,5,0.8,10.3,1,15.4c0.1,3.4,4.8,4,5.9,0.8c1.8-5.6,3.7-11.2,5.5-16.8c-2-0.3-3.9-0.5-5.9-0.8c0,6.5-0.1,13.1-0.1,19.6
						c0,3.3,5.2,4.2,5.9,0.8c0.7-3.2,1.4-6.4,2.3-9.6c0.4-1.4,0.8-2.9,1.3-4.3c0.2-0.6,0.4-1.1,0.6-1.7c1.7-2.2,1.9-3,0.5-2.4
						c-1-1-2-2-3-3c0.7,7.8,1,15.5,0.7,23.3c-0.1,3.9,5.7,3.8,6,0c0.6-7.2,1.7-14.2,5.8-20.3c-1.8-0.2-3.7-0.5-5.5-0.7
						c1,6.5,0.2,13-0.7,19.4c2,0.3,3.9,0.5,5.9,0.8c0-7.6,2.2-14.7,4.5-21.9c-1.9-0.5-3.9-1.1-5.8-1.6c-1.9,10.3-4.9,20.3-9.1,29.9
						c1.8,0.8,3.7,1.5,5.5,2.3c1.8-9.2,5.4-17.6,10.7-25.2c-1.8-0.2-3.7-0.5-5.5-0.7c1,4.1-0.2,9-0.8,13.1c-0.6,4-1.4,8.1-2.3,12
						c2,0.3,3.9,0.5,5.9,0.8c0.3-7.8,1.8-15.2,4.7-22.5c-1.9-0.5-3.9-1.1-5.8-1.6c-2.3,11.2-4.6,22.3-8.2,33.1
						c2,0.3,3.9,0.5,5.9,0.8c-0.2-3-0.2-5.9,0.3-8.8c0.3-1.5,0.9-6.3,2.4-7.1c-1.5-0.9-3-1.7-4.5-2.6c-0.3,8.2-2.2,16.1-4.3,24
						c-1.9,7.1-4.2,13.9-8.7,19.8c1.6-0.2,3.1-0.4,4.7-0.6c-2.5-3-3.9-6.3-4.5-10.1c-1.5,1.1-2.9,2.3-4.4,3.4
						c1.1,0.6,3.6,7.1,2.4,7.8c1.3-0.6-2.2-3-2.8-4.3c-0.6-1.2-0.8-2.4-0.8-3.7c-3.4,0-4.2,1.2-2.5,3.6c0.4,1.3,0.5,2.7,0.5,4.1
						c-0.6,2.5-0.6,3.2-0.1,2.1c1,0,2,0,3,0c-0.7-0.4-1.3-2.7-1.4-3.5c-0.1-0.8-0.2-1.6-0.2-2.4c-1.5-0.7-1.8-0.7-0.9,0.2
						c0.4,1.1,1.8,2.2,2.3,3.3c0.8,1.5,1.2,3,1.6,4.6c1.2-1.2,2.5-2.5,3.7-3.7c-0.8-1.1-1.5-2.1-2.3-3.2c-0.7,0.7-1.4,1.4-2.1,2.1
						c0.9-0.3,1.9,5.4,1.9,5.7c0.5-0.9,1-1.7,1.5-2.6c-2.7,2.1-2.6-4.4-2.8-6.2c-0.5-3.2-1.2-6.4-2-9.5c-1-4.1-5.6-17-0.2-19.7
						c-1,0-2,0-3,0c1.1,0.8,1.3,9.3,1.4,11.1c0.2,4.4,0,8.8-0.6,13.2c1.8-0.2,3.7-0.5,5.5-0.7c-4.8-7.9-4.1-19.8-4.6-28.8
						c-2,0.3-3.9,0.5-5.9,0.8c2.2,6.5,3.5,13,3.8,19.8c1.9-0.5,3.7-1,5.6-1.5c-3.5-7.2-4.7-14.9-3.8-22.8c-1.7,0.7-3.4,1.4-5.1,2.1
						c3.1,3.6,3.9,10.8,4.8,15.4c1.1,5.3,1.6,10.7,1.8,16.2c1.9-0.5,3.7-1,5.6-1.5c-4.1-8-6.1-20.7-3.5-29.4
						c-1.8,0.2-3.7,0.5-5.5,0.7c5.4,8,5.5,20.3,6.4,29.6c2-0.3,3.9-0.5,5.9-0.8c-2.3-9.8-3.9-19.7-1.9-29.7
						c-1.8,0.2-3.7,0.5-5.5,0.7c2.5,3.4,1.9,10,2.1,14.1c0.3,4.9,0.5,9.9,0.6,14.9c2,0,4,0,6,0c-0.6-8.2-1.1-16.4,0.8-24.5
						c-1.9,0-3.9,0-5.8,0c1.2,8.3,1.3,16.6,1.3,25c0,3.3,5.4,4.2,5.9,0.8c1.2-7.9,2.5-15.8,7.2-22.4c-1.9-0.5-3.7-1-5.6-1.5
						c-0.8,9.5-0.8,19.1,0,28.6c0.3,3.8,5.9,3.9,6,0c0.3-8,0.6-16.2,4-23.6c-1.8-0.2-3.7-0.5-5.5-0.7c1.3,7.9,0.5,16.5,0.6,24.5
						c2,0,4,0,6,0c-0.2-7.6-0.2-15,2.6-22.1c-2-0.3-3.9-0.5-5.9-0.8c-0.1,7.3-0.2,14.6-0.4,22c2,0,4,0,6,0c-0.1-6.5,0-13.1,2.6-19.2
						c-1.9-0.5-3.7-1-5.6-1.5c0.9,6.9-1.3,13.7-0.8,20.5c0.3,3.1,1.4,5.8,2.2,8.7c0.7,2.4,0.7,3.5,2.7,5c1.4,1.1,4.1,0,4.4-1.8
						c1.6-10.7,3.2-21.3,4.8-32c0.6-4.5,1.4-9,1.6-13.6c0.2-5.5-0.3-11,1.1-16.4c0.9-3.7-4.8-5.3-5.8-1.6c-1.1,4.5-1.2,9-1.2,13.7
						c0,5.5-0.7,10.9-1.5,16.3c-1.5,10.7-3.1,21.3-4.8,32c1.5-0.6,2.9-1.2,4.4-1.8c0.7,0.6,0-1.3,0-1.5c-0.2-1.3-0.9-2.6-1.3-3.8
						c-0.8-2.8-0.9-5.5-0.7-8.4c0.4-5.2,1.4-10.2,0.7-15.4c-0.3-2.5-4.3-4.6-5.6-1.5c-3.1,7.2-3.6,14.5-3.5,22.2
						c0.1,3.9,5.9,3.9,6,0c0.1-7.3,0.2-14.6,0.4-22c0.1-3.6-4.7-3.8-5.9-0.8c-3,7.6-3,15.6-2.8,23.7c0.1,3.9,6,3.9,6,0
						c-0.1-8.6,0.6-17.6-0.8-26.1c-0.4-2.5-4.5-3-5.5-0.7c-3.8,8.5-4.5,17.5-4.8,26.7c2,0,4,0,6,0c-0.8-9.5-0.8-19.1,0-28.6
						c0.3-3.3-4-3.7-5.6-1.5c-5.1,7-6.6,15.4-7.8,23.8c2,0.3,3.9,0.5,5.9,0.8c-0.1-8.9-0.3-17.7-1.5-26.6c-0.4-3-5.2-2.7-5.8,0
						c-2,8.7-1.6,17.3-1,26.1c0.3,3.8,6.1,3.9,6,0c-0.1-6.3-0.3-12.5-0.8-18.8c-0.3-4.3,0-9.6-2.7-13.2c-1.4-1.9-4.9-2.1-5.5,0.7
						c-2.2,11.1-0.7,22,1.9,32.9c0.8,3.2,6.2,2.6,5.9-0.8c-1-10.4-1.2-23.7-7.2-32.7c-1.4-2.1-4.7-1.8-5.5,0.7
						c-3.1,10.3-0.7,24.6,4.1,34.1c1.3,2.7,5.7,1.4,5.6-1.5c-0.3-6.6-1-13.2-2.4-19.6c-1.2-5.4-2.3-11.9-6-16.1
						c-1.9-2.2-4.9-0.2-5.1,2.1c-1,9,0.7,17.7,4.7,25.8c1.3,2.7,5.7,1.4,5.6-1.5c-0.3-7.3-1.7-14.5-4.1-21.4c-1-3-6.1-2.8-5.9,0.8
						c0.7,10.1,0,23,5.5,31.8c1.2,2,5.1,2,5.5-0.7c0.9-6.2,1.2-12.3,0.5-18.5c-0.4-4.2-0.3-9.9-4.1-12.5c-0.9-0.6-2.1-0.5-3,0
						c-6.1,3-5.6,11.4-4.6,17c0.7,4.1,1.8,8,2.8,12.1c1,4.3,0.9,9.3,2.7,13.4c1.7,3.8,6.9,7.8,10.2,3.4c2.7-3.7,1.3-11.3-4.1-11.6
						c-6.3-0.3-5.3,7.9-2.1,10.9c3.7,3.4,8.2,0.8,7.7-3.9c-0.4-3.9-5.6-14-10.7-8.8c-4.3,4.3,1.4,10.8,5.7,11.9
						c2.3,0.6,4.2-1.5,3.7-3.7c-1-4.4-4.3-12.9-9.9-13c-5.5-0.1-5.2,7-4.4,10.6c0.8,3.3,3.9,10.3,8.3,6.4c3.9-3.4,1.9-12.1-0.1-16
						c-1.6-3.2-5.5-5.2-7.5-1c-2.1,4.7,1.5,11.4,5.1,14.2c3.4,2.6,8.4,3.6,9.9-1.4c1.4-4.7-0.7-12.4-5.1-14.9
						c-2.4-1.4-4.9,0.9-4.4,3.4c0.9,4.9,2.9,9,6.1,12.8c1.4,1.7,3.7,0.8,4.7-0.6c4.8-6.3,7.3-13.7,9.3-21.2
						c2.2-8.4,4.1-16.9,4.5-25.6c0.1-2.3-2.6-3.6-4.5-2.6c-6,3.3-6.1,15.2-5.7,21.1c0.3,3.4,4.8,4.1,5.9,0.8
						c3.6-10.8,6-21.9,8.2-33.1c0.8-3.8-4.4-5.2-5.8-1.6c-3,7.8-4.6,15.8-4.9,24.1c-0.1,3.3,5.2,4.1,5.9,0.8
						c1.2-5.2,2.1-10.5,2.9-15.8c0.6-4.2,1.3-8.3,0.3-12.5c-0.7-2.7-4.1-2.7-5.5-0.7c-5.6,8.1-9.4,17-11.3,26.7
						c-0.6,3.1,4,5.6,5.5,2.3c4.4-10.1,7.6-20.5,9.7-31.3c0.7-3.8-4.6-5.3-5.8-1.6c-2.5,7.7-4.7,15.3-4.7,23.5
						c0,3.3,5.4,4.2,5.9,0.8c1-7.6,1.8-15,0.7-22.6c-0.4-2.8-4.2-2.6-5.5-0.7c-4.7,7-5.9,15.1-6.6,23.3c2,0,4,0,6,0
						c0.2-7.8,0-15.6-0.7-23.3c-0.2-1.7-1.2-2.9-3-3c-3.5-0.2-4.8,3.1-5.9,5.9c-2.1,5.3-3.4,10.8-4.6,16.4c2,0.3,3.9,0.5,5.9,0.8
						c0-6.5,0.1-13.1,0.1-19.6c0-3.5-4.9-4-5.9-0.8c-1.8,5.6-3.7,11.2-5.5,16.8c2,0.3,3.9,0.5,5.9,0.8c-0.2-5.6,0-11.4-1.2-17
						c-0.7-3-4.9-2.7-5.8,0c-1.9,5.9-2,11.8-0.2,17.8c1,3.5,5.5,2.4,5.9-0.8c0.5-3.9,0.8-21.7-8-16.1c-6.5,4.2-4.9,17.6-1.3,23
						c1.3,2,4.9,2,5.5-0.7c1.4-6.8,1.4-13.5-0.1-20.3c-0.6-2.8-5.3-3-5.8,0c-1,6.6-0.5,13,2.1,19.2c1,2.6,4.9,3.1,5.8,0
						c1.5-5.5,1.2-10.9,0.6-16.5c-0.4-3.7-5.9-4-6,0c-0.1,6.2,0.4,12.3,1.5,18.4c0.4,2.1,3.6,3,5,1.3c2.8-3.4,3.7-7.5,4.7-11.7
						c1.4-5.3,2.6-10.6,3.6-15.9c0.7-3.8-4.5-5.2-5.8-1.6c-2.6,7.4-4.7,14.6-2.9,22.4c0.5,2.4,4.4,3.1,5.5,0.7
						c3.7-8.1,5.9-16.5,6.5-25.3c0.2-3.6-4.8-3.8-5.9-0.8c-3.4,9.5-6.2,19.2-6,29.4c0.1,3.6,4.6,3.8,5.9,0.8
						c3.8-9,6.5-18.2,8.3-27.8c0.7-3.8-5.1-5.4-5.8-1.6c-1.8,9.5-1.2,19.3-1,28.9c0.2,9.3,0.5,18.6,4.2,27.2c1,2.3,5.1,1.7,5.5-0.7
						c1.4-8.3,3.1-16.5,4.9-24.7c1.6-7.6,2.5-15,0.8-22.7c-0.6-2.9-5.1-2.8-5.8,0c-1.1,4.6-1.4,9.3-2.4,13.9
						c-1.1,5.3-2.8,10.5-3.9,15.8c-2.1,9.6-2.9,19.3-1.1,29c0.5,2.8,5.4,2.9,5.8,0c2.7-19,2-38.1,1.1-57.2c-0.2-3.5-4.7-4-5.9-0.8
						c-5.6,15.5-15.9,34-10.7,50.8c1,3.2,5.9,2.7,5.9-0.8c0-6.4-0.7-12.8-2-19.1c-0.6-3.1-4.9-2.6-5.8,0c-2.2,6.5-4.5,13-6.7,19.5
						c1.9,0,3.9,0,5.8,0c-1.3-6-2.1-12.1-2.1-18.2c0-4.3,0.5-8.6-2.1-12.4c-1.6-2.2-5.7-1.7-5.6,1.5c0.3,5.9,1.1,11.7,2.4,17.4
						c0.8,3.2,6.3,2.6,5.9-0.8c-0.7-6-1.4-12-2.1-18c-2,0.3-3.9,0.5-5.9,0.8c0.3,1.9,0.8,3.4,1.7,5.2c1.6,3.1,6.2,0.9,5.5-2.3
						c-1.6-7.3-2.8-14.6-3.6-22c-0.4-3.8-5.8-3.9-6,0c-0.1,1.6,0.1,3,0.7,4.5c1.1,3,6.1,2.8,5.9-0.8c-0.2-2.5-0.7-4.4-1.6-6.6
						c-1.6,1.2-3.1,2.4-4.7,3.6c0.3,0.4,0.7,0.8,1,1.2c1.9,2.2,4.9,0.2,5.1-2.1c0.1-0.6,0.1-1.3,0.2-1.9
						C79.1,163.9,73.1,163.9,72.7,167.7L72.7,167.7z"/>
				</g>
			</g>
			<g>
				<g>
					<path class="st0" d="M113.7,201c-0.4,1.1-0.9,2.1-1.3,3.2c1.9,0.5,3.7,1,5.6,1.5c0-5.7,1-11.2,3.4-16.5
						c-1.8-0.8-3.7-1.5-5.5-2.3c-1.4,8.2-3.1,16.3-5,24.4c2,0.3,3.9,0.5,5.9,0.8c0.2-8,1.3-17.1,5.8-24c-1.9-0.5-3.7-1-5.6-1.5
						c-0.5,9.2-1.7,18.3-3.6,27.4c2,0.3,3.9,0.5,5.9,0.8c-0.3-5.3,0-10.4,1.2-15.6c-2-0.3-3.9-0.5-5.9-0.8
						c0.9,7.5-0.4,15.3-0.8,22.8c2,0,4,0,6,0c-0.7-5.9-0.9-11.7-0.7-17.6c0.2-3.9-5.8-3.8-6,0c-0.3,6.2-0.3,12.3,0.1,18.5
						c2,0,4,0,6,0c-1.2-12.9,0-25.6,2.5-38.2c-2-0.3-3.9-0.5-5.9-0.8c0,5-0.5,9.8-1.5,14.7c1.9,0,3.9,0,5.8,0
						c-1.2-7,0.3-13.9,2.1-20.7c-2-0.3-3.9-0.5-5.9-0.8c-0.2,5-0.5,10-1,14.9c2,0,4,0,6,0c0.5-5.4,1.4-10.6,2.6-15.9
						c-2-0.3-3.9-0.5-5.9-0.8c-0.3,3.5-0.5,7-0.4,10.5c0.1,3.9,5.7,3.8,6,0c0.3-3.7,0.8-7.3,1.4-10.9c-2-0.3-3.9-0.5-5.9-0.8
						c0,2.4-0.1,4.7-0.1,7.1c-0.1,4,5.5,3.7,6,0c0.3-2.7,0.9-5.4,1.5-8c-2-0.3-3.9-0.5-5.9-0.8c-0.2,1.7-0.3,3.3-0.2,5
						c0.1,3.3,5.1,4.2,5.9,0.8c0.5-2,1-3.9,1.4-5.9c-2-0.3-3.9-0.5-5.9-0.8c0.1,1.1,0.1,2.3,0.2,3.4c0.2,3.3,4.9,4.1,5.9,0.8
						c0.4-1.3,0.8-2.6,1.2-3.9c-2-0.3-3.9-0.5-5.9-0.8c0,0.9,0,1.8-0.2,2.8c-0.4,3.3,5.3,4.1,5.9,0.8c0.1-0.6,0.2-1.3,0.3-1.9
						c-2-0.3-3.9-0.5-5.9-0.8c0,0.5-0.1,1-0.1,1.4c-0.4,3.8,5.6,3.8,6,0c0-0.5,0.1-1,0.1-1.4c0.3-3.3-5.3-4.1-5.9-0.8
						c-0.1,0.6-0.2,1.3-0.3,1.9c2,0.3,3.9,0.5,5.9,0.8c0.2-0.9,0.2-1.8,0.2-2.8c0.1-3.4-4.9-4-5.9-0.8c-0.4,1.3-0.8,2.6-1.2,3.9
						c2,0.3,3.9,0.5,5.9,0.8c-0.1-1.1-0.1-2.3-0.2-3.4c-0.2-3.3-5.1-4.2-5.9-0.8c-0.5,2-1,3.9-1.4,5.9c2,0.3,3.9,0.5,5.9,0.8
						c-0.1-1.7,0-3.3,0.2-5c0.4-3.4-5.1-4-5.9-0.8c-0.8,3.2-1.3,6.4-1.7,9.6c2,0,4,0,6,0c0-2.4,0.1-4.7,0.1-7.1
						c0.1-3.3-5.3-4.2-5.9-0.8c-0.7,4.2-1.3,8.3-1.6,12.5c2,0,4,0,6,0c-0.1-3.5,0.1-7,0.4-10.5c0.3-3.4-5.1-4.1-5.9-0.8
						c-1.3,5.8-2.3,11.6-2.8,17.5c-0.4,3.9,5.6,3.8,6,0c0.5-5,0.8-9.9,1-14.9c0.1-3.4-5-4.1-5.9-0.8c-2.1,8-3.5,15.7-2.1,23.9
						c0.5,2.9,5.2,2.8,5.8,0c1.1-5.4,1.7-10.8,1.7-16.3c0-3.3-5.2-4.2-5.9-0.8c-2.7,13.1-4,26.4-2.7,39.8c0.3,3.8,6.2,3.9,6,0
						c-0.4-6.2-0.4-12.3-0.1-18.5c-2,0-4,0-6,0c-0.3,5.9,0,11.7,0.7,17.6c0.5,3.8,5.8,3.9,6,0c0.5-7.5,1.7-15.3,0.8-22.8
						c-0.4-3.1-5.1-4.4-5.9-0.8c-1.3,5.7-1.8,11.4-1.4,17.2c0.2,3.2,5.2,4.3,5.9,0.8c2-9.6,3.3-19.2,3.8-29c0.2-3.1-4.1-3.9-5.6-1.5
						c-5.1,7.7-6.3,17.9-6.6,27c-0.1,3.4,5.1,4.1,5.9,0.8c1.9-8.1,3.6-16.2,5-24.4c0.5-3.1-4-5.7-5.5-2.3
						c-2.8,6.3-4.2,12.6-4.2,19.5c0,2.7,4.4,4.4,5.6,1.5c0.4-1.1,0.9-2.1,1.3-3.2C120.4,200.5,115.2,197.4,113.7,201L113.7,201z"/>
				</g>
			</g>
			<g>
				<g>
					<path class="st0" d="M83.7,234.3c-0.2-0.5-0.5-1-0.7-1.6c1.7,0.4,3.3,0.9,5,1.3c-0.5-1.8-1-3.6-1.5-5.3
						c-0.6-2.3-4.4-3.2-5.5-0.7c-0.9,2.1-1.4,3.8-1.5,6.1c1.9-0.5,3.7-1,5.6-1.5c-0.1-0.5-0.2-1-0.2-1.5c0.5-3.3-3.5-5.3-5.5-2.3
						c-0.9,1.4-1.1,2.1-1.2,3.8c2,0,4,0,6,0c0.2-1.3,0.2-2.5-0.1-3.8c-2,0.3-3.9,0.5-5.9,0.8c2.3,9.8-7.4,18.8-10.7,27.4
						c-3.6,9.1-4.6,18.9-5.6,28.6c2-0.3,3.9-0.5,5.9-0.8c-1.8-8.3,3.4-15.4,8.2-21.6c4.6-6.1,9.3-12.1,13.9-18.1c-1.7-1-3.5-2-5.2-3
						c-3.7,7.5-8.3,14.4-14,20.6c1.6,1.2,3.1,2.4,4.7,3.6c3.8-8.7,8.4-17,13.8-24.8c1.9-2.8-2.5-6.2-4.7-3.6
						c-3.8,4.4-7.5,8.7-11.3,13.1c1.6,1.2,3.1,2.4,4.7,3.6c3.6-5.1,7.9-9.5,12.9-13.2c-1.5-1.1-2.9-2.3-4.4-3.4
						c-1.8,5.7-4.3,11.2-7.3,16.4c-1.9,3.3,3.2,6.3,5.2,3c5.1-8.6,11.4-16.1,18.9-22.6c-1.6-1.2-3.1-2.4-4.7-3.6
						c-3.7,6.7-7.9,13.2-12.5,19.3c1.7,1,3.5,2,5.2,3c4.4-7.2,9.5-13.7,15.3-19.8c-1.6-1.2-3.1-2.4-4.7-3.6
						c-3.2,6.2-6.4,12.4-9.6,18.6c1.7,1,3.5,2,5.2,3c3.3-7,7.6-13.2,12.9-18.8c-1.6-1.2-3.1-2.4-4.7-3.6c-2.2,5.1-4.6,10.1-7.4,15
						c1.7,1,3.5,2,5.2,3c2.3-4.7,5.1-9.1,8.2-13.3c-1.8-0.8-3.7-1.5-5.5-2.3c-1.5,3.7-3.1,7.3-5,10.8c1.8,0.8,3.7,1.5,5.5,2.3
						c1.6-4.2,4-7.5,7.3-10.5c-1.7-1-3.3-1.9-5-2.9c-1.7,5.2-3.4,10.3-5.1,15.5c-1.1,3.2,3.8,5.3,5.5,2.3c2.5-4.6,5.1-9.1,7.6-13.7
						c-1.8-0.8-3.7-1.5-5.5-2.3c-1.1,3.8-2.2,7.5-3.3,11.3c-1.1,3.7,4.5,5.2,5.8,1.6c1-3,2.4-5.7,4-8.5c-1.8-0.8-3.7-1.5-5.5-2.3
						c-1.6,6.2-3.5,12.2-5.7,18.1c1.9,0.5,3.9,1.1,5.8,1.6c1-4.8,2.1-9.4,4.6-13.8c-1.8-0.8-3.7-1.5-5.5-2.3
						c-3.3,15.2-9.9,29.8-15.2,44.4c2,0.3,3.9,0.5,5.9,0.8c1-10.8,4.2-21.2,7.4-31.5c1.2-3.8-4.4-5.1-5.8-1.6
						c-5.7,13.9-7.9,29-13.5,42.9c2,0.3,3.9,0.5,5.9,0.8c-0.7-13.6,2.3-26.8,8.8-38.8c-1.8-0.8-3.7-1.5-5.5-2.3
						c-4.3,13.3-9,26.4-14,39.5c2,0.3,3.9,0.5,5.9,0.8c-2-15.3,7.3-32.8,15.9-44.8c-1.8-0.8-3.7-1.5-5.5-2.3
						c-4,13.6-8.6,27-13.9,40.1c1.9,0,3.9,0,5.8,0c-1.5-6.4,2.5-15.3,4.7-21.3c2.5-6.8,5.5-13.3,9-19.6c-1.8-0.8-3.7-1.5-5.5-2.3
						c-2.7,7.7-5.5,15.4-8.4,23c-1.4,3.7-2.7,7.3-4.1,11c-1.5,3.9-2.6,8.5-5.4,11.7c1.7,0.7,3.4,1.4,5.1,2.1
						c-0.1-12.9,3-25.3,9-36.6c-1.8-0.8-3.7-1.5-5.5-2.3c-3.8,11.2-8.2,22.2-13.3,32.9c1.9,0.5,3.7,1,5.6,1.5
						c-1.4-11.4,5-24.3,10.8-33.8c-1.8-0.8-3.7-1.5-5.5-2.3c-3.1,7.6-6.4,15.2-9.8,22.7c1.8,0.8,3.7,1.5,5.5,2.3
						c3.7-10.7,9-20.5,15.7-29.5c-1.8-0.8-3.7-1.5-5.5-2.3c-5.8,16.1-16.7,29.7-22.9,45.6c1.9,0.5,3.9,1.1,5.8,1.6
						c1.9-12.9,4-26,11.6-36.9c-1.8-0.8-3.7-1.5-5.5-2.3c-4.3,12.4-8.5,24.9-12.8,37.3c1.9,0.5,3.9,1.1,5.8,1.6
						c2-13.9,6.6-26.9,14-38.8c-1.8-0.8-3.7-1.5-5.5-2.3c-2.9,10.5-7.7,20.2-12.7,29.9c1.9,0.5,3.7,1,5.6,1.5
						c0.3-6.5,1.6-12.7,3.8-18.8c-1.9-0.5-3.9-1.1-5.8-1.6c-2,8.5-4.7,16.8-8,24.9c2,0.3,3.9,0.5,5.9,0.8
						c-0.1-6.7,0.8-13.1,2.8-19.5c1.2-3.7-4.5-5.2-5.8-1.6c-2.1,6.1-4.2,12.1-6.3,18.2c2,0.3,3.9,0.5,5.9,0.8
						c-0.1-6,0.6-11.6,4-16.6c-1.8-0.8-3.7-1.5-5.5-2.3c-1.6,6.1-3.3,12.2-4.9,18.3c2,0.3,3.9,0.5,5.9,0.8c0.1-3.6,0.5-7.1,1.3-10.7
						c-2-0.3-3.9-0.5-5.9-0.8c-0.2,4.6-0.8,9.1-1.7,13.6c2,0.3,3.9,0.5,5.9,0.8c-0.1-1-0.1-2-0.2-3c-0.2-3.5-4.7-3.9-5.9-0.8
						c-0.8,2-1.6,4.1-2.3,6.1c1.9,0,3.9,0,5.8,0c-0.1-0.8-0.3-1.5-0.4-2.3c-0.1-3.9-5.6-3.8-6,0c-0.2,1.6-0.4,3.2-0.5,4.7
						c2-0.3,3.9-0.5,5.9-0.8c0.1-1.2,0.3-2.3,0.4-3.5c-2-0.3-3.9-0.5-5.9-0.8c-0.5,4.5-1.1,9-1.6,13.6c2,0,4,0,6,0
						c0-0.6,0-1.2,0-1.8c-2,0-4,0-6,0c0.6,8,1.1,15.9,1,23.9c2-0.3,3.9-0.5,5.9-0.8c-1.6-11.5,0.7-23,6.4-33.1
						c-1.9-0.5-3.7-1-5.6-1.5c-1.9,14.2-8.2,27.7-6.5,42.2c0.4,3.7,5.9,4,6,0c0.2-13.4,3.2-26.4,9-38.5c-1.8-0.8-3.7-1.5-5.5-2.3
						c-1.4,6.8-2.8,13.5-4.2,20.3c-1.3,6.5-3.1,13-3,19.7c0,3.9,5.9,3.9,6,0c0.4-11.5,2.9-22.7,7.4-33.2c-1.8-0.8-3.7-1.5-5.5-2.3
						c-1.9,12-3.7,23.9-5.6,35.9c2,0.3,3.9,0.5,5.9,0.8c0.8-16.1,5.6-31.5,14.1-45.2c-1.8-0.8-3.7-1.5-5.5-2.3
						c-4.5,15.3-7.8,30.8-11.1,46.4c2,0.3,3.9,0.5,5.9,0.8c0.4-14.5,4.7-28.4,12.4-40.7c-1.8-0.8-3.7-1.5-5.5-2.3
						c-4.4,16.3-7.3,33-8.8,49.8c2,0,4,0,6,0c0.5-15.4,4-30.4,11.7-43.8c-1.8-0.8-3.7-1.5-5.5-2.3c-4.1,14.7-7.3,29.7-9.7,44.8
						c2,0.3,3.9,0.5,5.9,0.8c-0.2-8.3,1.7-16.1,4-24c2.2-7.5,4.2-15.4,9.4-21.4c-1.7-1-3.3-1.9-5-2.9c-3.8,15.2-7.6,30.5-11.4,45.7
						c2,0.3,3.9,0.5,5.9,0.8c1.2-16,6.3-31.2,15-44.8c-1.8-0.8-3.7-1.5-5.5-2.3c-5,15.3-9.2,30.9-12.6,46.7c2,0.3,3.9,0.5,5.9,0.8
						c2.1-21.2,9.8-41.3,22.1-58.6c-1.8-0.8-3.7-1.5-5.5-2.3C96.9,292.5,90.5,312,85,331.8c-1,3.7,4.7,5.3,5.8,1.6
						c5.5-19.7,11.9-39.2,19.1-58.4c1.3-3.4-3.7-4.9-5.5-2.3c-12.9,18.3-20.7,39.4-22.9,61.6c-0.3,3.4,5.2,4.1,5.9,0.8
						c3.4-15.8,7.6-31.3,12.6-46.7c1.1-3.3-3.7-5.1-5.5-2.3c-9.2,14.4-14.6,30.7-15.8,47.8c-0.3,3.4,5.1,4,5.9,0.8
						c3.8-15.2,7.6-30.5,11.4-45.7c0.7-2.7-3-5.3-5-2.9c-5.5,6.5-8,14.3-10.4,22.4c-2.7,8.9-5,18-4.8,27.4c0.1,3.2,5.3,4.3,5.9,0.8
						c2.4-15.1,5.6-30,9.7-44.8c0.9-3.3-3.8-5.3-5.5-2.3c-8.2,14.4-12,30.4-12.5,46.9c-0.1,3.9,5.6,3.8,6,0
						c1.5-16.3,4.4-32.4,8.6-48.2c0.9-3.3-3.7-5.2-5.5-2.3c-8.3,13.2-12.8,28.1-13.2,43.7c-0.1,3.3,5.2,4.1,5.9,0.8
						c3.3-15.6,6.6-31.1,11.1-46.4c1-3.3-3.7-5.2-5.5-2.3c-9,14.6-14,31.1-14.9,48.2c-0.2,3.3,5.4,4.2,5.9,0.8
						c1.9-12,3.7-23.9,5.6-35.9c0.5-3-4-5.7-5.5-2.3c-5,11.6-7.8,23.7-8.2,36.3c2,0,4,0,6,0c-0.1-6.7,1.8-13.4,3.2-19.9
						c1.3-6.2,2.5-12.3,3.8-18.5c0.6-3.1-3.9-5.6-5.5-2.3c-6.2,13.1-9.6,27-9.8,41.5c2,0,4,0,6,0c-1.6-14.4,4.7-28.1,6.5-42.2
						c0.4-3.1-4.2-3.9-5.6-1.5c-6.5,11.6-8.8,24.5-7,37.7c0.5,3.4,5.9,2.5,5.9-0.8c0.1-8-0.4-15.9-1-23.9c-0.3-3.8-6.1-3.9-6,0
						c0,0.6,0,1.2,0,1.8c0.1,4,5.6,3.7,6,0c0.5-4.5,1.1-9,1.6-13.6c0.4-3.5-5-3.9-5.9-0.8c-0.7,2.4-0.7,4.2-0.4,6.6
						c0.5,3.6,5.6,2.3,5.9-0.8c0.2-1.6,0.4-3.2,0.5-4.7c-2,0-4,0-6,0c0,1.7,0.1,2.3,0.7,3.9c1,2.9,4.7,2.7,5.8,0
						c0.8-2,1.6-4.1,2.3-6.1c-2-0.3-3.9-0.5-5.9-0.8c0.1,1,0.1,2,0.2,3c0.2,3.2,5.2,4.3,5.9,0.8c1-5,1.7-10.1,1.9-15.2
						c0.2-3.4-5.2-4.1-5.9-0.8c-0.9,4.1-1.4,8.1-1.5,12.3c-0.1,3.4,5,4.1,5.9,0.8c1.6-6.1,3.3-12.2,4.9-18.3
						c0.9-3.4-3.6-5.1-5.5-2.3c-3.9,5.9-4.9,12.7-4.8,19.7c0,3.5,4.8,4,5.9,0.8c2.1-6.1,4.2-12.1,6.3-18.2c-1.9-0.5-3.9-1.1-5.8-1.6
						c-2.1,6.9-3.1,13.9-3,21.1c0.1,3.6,4.7,3.8,5.9,0.8c3.3-8.1,5.9-16.4,8-24.9c0.9-3.8-4.5-5.2-5.8-1.6c-2.4,6.6-3.7,13.4-4,20.4
						c-0.1,2.9,4.2,4.2,5.6,1.5c5.2-10.1,10.3-20.3,13.3-31.4c0.9-3.3-3.7-5.2-5.5-2.3c-7.6,12.3-12.6,25.9-14.7,40.3
						c-0.5,3.7,4.5,5.3,5.8,1.6c4.3-12.4,8.5-24.9,12.8-37.3c1.2-3.4-3.7-5-5.5-2.3c-7.9,11.4-10.2,25-12.2,38.3
						c-0.6,3.8,4.4,5.2,5.8,1.6c6.2-15.9,17-29.5,22.9-45.6c1.3-3.5-3.6-4.8-5.5-2.3c-7.1,9.4-12.5,19.8-16.3,31
						c-1.1,3.2,4.1,5.4,5.5,2.3c3.7-8,7.1-16,10.4-24.2c1.3-3.2-3.8-5.1-5.5-2.3c-6.3,10.3-13.1,24.4-11.6,36.9
						c0.3,2.6,4.2,4.5,5.6,1.5c5.3-11.2,9.9-22.6,13.9-34.3c1.1-3.2-3.9-5.3-5.5-2.3C86.3,264,83,277.5,83,291.4
						c0,2.4,3.4,4.2,5.1,2.1c5-5.9,7-14.6,9.7-21.7c3.3-8.9,6.6-17.8,9.7-26.7c1.1-3.2-3.9-5.3-5.5-2.3c-4,7.3-7.4,14.9-10.2,22.7
						c-2.4,6.9-5.9,15.4-4.1,22.8c0.7,3.2,4.8,2.5,5.8,0c5.3-13.1,9.9-26.5,13.9-40.1c1-3.5-3.6-4.9-5.5-2.3
						c-4.9,6.8-8.9,14.2-11.9,22c-3.1,8-5.9,17.2-4.8,25.8c0.4,3.4,4.6,4.1,5.9,0.8c5-13,9.7-26.2,14-39.5c1-3.2-3.9-5.3-5.5-2.3
						c-7,12.9-10.3,27.2-9.6,41.8c0.2,3.5,4.7,3.9,5.9,0.8c5.6-14,7.8-29,13.5-42.9c-1.9-0.5-3.9-1.1-5.8-1.6
						c-3.4,10.9-6.5,21.7-7.6,33.1c-0.3,3.6,4.8,3.8,5.9,0.8c5.3-14.6,11.9-29.2,15.2-44.4c0.7-3.2-3.8-5.4-5.5-2.3
						c-2.7,4.8-4,9.9-5.2,15.2c-0.8,3.8,4.4,5.2,5.8,1.6c2.2-5.9,4.1-12,5.7-18.1c0.8-3.3-3.7-5.3-5.5-2.3c-1.9,3.2-3.4,6.4-4.6,9.9
						c1.9,0.5,3.9,1.1,5.8,1.6c1.1-3.8,2.2-7.5,3.3-11.3c1-3.2-3.8-5.3-5.5-2.3c-2.5,4.6-5.1,9.1-7.6,13.7c1.8,0.8,3.7,1.5,5.5,2.3
						c1.7-5.2,3.4-10.3,5.1-15.5c1-3-2.9-4.8-5-2.9c-4.1,3.7-6.9,8-8.8,13.1c-1.2,3.2,3.9,5.3,5.5,2.3c2.1-4,3.9-8.1,5.6-12.2
						c1.4-3.4-3.6-4.8-5.5-2.3c-3.1,4.2-5.8,8.6-8.2,13.3c-1.7,3.4,3.3,6.4,5.2,3c2.7-4.9,5.2-9.9,7.4-15c1.2-2.9-2.1-6.3-4.7-3.6
						c-5.7,5.9-10.3,12.6-13.9,20c-1.6,3.4,3.4,6.5,5.2,3c3.2-6.2,6.4-12.4,9.6-18.6c1.5-2.9-2.3-6.2-4.7-3.6
						c-6.1,6.5-11.5,13.5-16.2,21.1c-2.1,3.4,2.9,6,5.2,3c4.6-6.2,8.8-12.6,12.5-19.3c1.7-3.1-2.2-5.8-4.7-3.6
						c-7.9,6.9-14.5,14.8-19.8,23.8c1.7,1,3.5,2,5.2,3c3.3-5.6,5.9-11.6,7.9-17.8c0.7-2.3-2.3-5-4.4-3.4
						c-5.9,4.4-10.8,9.4-15.1,15.4c-2,2.8,2.5,6.2,4.7,3.6c3.8-4.4,7.5-8.7,11.3-13.1c-1.6-1.2-3.1-2.4-4.7-3.6
						c-5.4,7.8-10,16.1-13.8,24.8c-1.2,2.9,2.2,6.4,4.7,3.6c5.9-6.6,10.9-13.9,14.9-21.8c1.8-3.5-2.9-6-5.2-3
						c-5.7,7.4-11.6,14.6-17,22.2c-4.6,6.7-7.5,14-5.7,22.1c0.8,3.5,5.6,2.3,5.9-0.8c1.1-11.1,2.5-22.5,8.1-32.4
						c4.6-8.1,10.4-15.3,8.1-25.2c-0.8-3.2-6.3-2.6-5.9,0.8c0.3,1.3,0.3,2.5,0.1,3.8c-0.2,3.9,5.7,3.8,6,0c0.1-0.2,0.2-0.5,0.4-0.7
						c-1.8-0.8-3.7-1.5-5.5-2.3c-0.4,2.3-0.2,3.9,0.8,6.1c1.4,2.9,5.4,1.2,5.6-1.5c0.2-1,0.5-2.1,0.7-3.1c-1.8-0.2-3.7-0.5-5.5-0.7
						c0.5,1.8,1,3.6,1.5,5.3c0.6,2,3.5,3.1,5,1.3c2.3-2.8,2.6-5.6-0.5-7.9C83.7,226.8,80.7,232,83.7,234.3L83.7,234.3z"/>
				</g>
			</g>
			<g>
				<g>
					<path class="st0" d="M63.3,345.5c-0.2,0.9-0.5,1.7-0.7,2.6c1.9,0.5,3.7,1,5.6,1.5c-0.4-3.3-0.7-6.5-0.9-9.8
						c-0.1-1.8-1.5-7.7-0.1-8.9c-1.6-0.2-3.1-0.4-4.7-0.6c2.8,3.6,3.9,7.2,3.7,11.8c1.5-0.9,3-1.7,4.5-2.6c-1.2-2.2-1.8-1.8-2,1
						c1.6-0.2,3.1-0.4,4.7-0.6c-0.5-1.4-1-2.7-1.6-4.1c0.1,1.4,0,2.7-0.5,4c-0.4,1.6,0.5,3.3,2.1,3.7c14.9,3.8,30.6,7.4,45.7,2.4
						c2.2-0.7,3.2-4.3,0.7-5.5c-12.9-5.9-27.4-8.7-41-3.5c-3.5,1.3-2.2,6.8,1.6,5.8c10.7-2.8,22.2,5.7,32.7,1.3
						c3.9-1.6,4-4.3,3.4-7.9c-0.6-3.5,0.8-7.2,1.7-10.6c0.9-3.5,1.7-7,2.5-10.5c3.1-13.3,6.2-26.6,8.4-40.1c1-6.2-0.3-11.3-2.2-17.2
						c-2.2-6.9-3.4-14-3.8-21.2c-0.2-3.9-5.6-3.8-6,0c-1,8.4-3.6,16.6-5.8,24.8c-2.3,8.3-4.7,16.6-7.2,24.9
						c-4.9,15.7-10.2,31.3-13.4,47.4c2,0.3,3.9,0.5,5.9,0.8c0.1-5.9,1-11.6,2.5-17.2c-1.9-0.5-3.9-1.1-5.8-1.6
						c-1.2,6.1-2.4,12.2-3.6,18.3c1.9,0.5,3.9,1.1,5.8,1.6c4.1-28,15.7-54.2,21.6-81.8c-2-0.3-3.9-0.5-5.9-0.8
						c0.1,3.1,0.1,6.1,0.2,9.2c2-0.3,3.9-0.5,5.9-0.8c-1.3-4.2-1.4-8-0.3-12.3c-1.8,0.2-3.7,0.5-5.5,0.7c4.3,5.6,3.8,13.3,6.6,19.5
						c1.7-1,3.5-2,5.2-3c-2.5-4.3-4-8.6-4.8-13.5c-1.8,0.8-3.7,1.5-5.5,2.3c3.2,5.7,8.6,15.9,5.7,22.5c-3,6.8-6.4,13.2-8.9,20.3
						c-5.1,14.4-8.6,29.3-14.2,43.6c2,0.3,3.9,0.5,5.9,0.8c-0.5-10.6,2.1-20.7,5.5-30.7c3.3-9.9,6.8-19.7,10.3-29.5
						c-1.9-0.5-3.9-1.1-5.8-1.6c-2.1,9.5-5,18.8-9.1,27.7c1.8,0.8,3.7,1.5,5.5,2.3c2.6-14.5,8.5-28.6,13.3-42.5c-1.9,0-3.9,0-5.8,0
						c0.8,4.1,0.4,7.7-1,11.6c1.8-0.2,3.7-0.5,5.5-0.7c-1.6-3.8-1.5-7.5-0.3-11.4c-1.9,0-3.9,0-5.8,0c4.8,11.6-0.5,26.1-3.4,37.7
						c-1.6,6.4-3.5,12.7-6.2,18.7c-1.8,4.1-4.4,8.7-2.6,13.3c1.2,3,4.4,5.1,7.5,3.3c4.5-2.7,1.6-9.2,2.5-13.3
						c1.4-6.5,4.4-12.8,6.7-19c2.4-6.6,4.8-13.2,7.3-19.8c-1.9-0.5-3.9-1.1-5.8-1.6c-3.1,9.8-6.3,19.6-9.4,29.4
						c-1,3.2-2.6,6.7-2,10.2c0.5,3.6,3.2,6.7,5.1,9.7c4,6.3,8.4,10.9,16.3,11.2c6.9,0.3,9.1-5.2,9-11.3c-2,0.3-3.9,0.5-5.9,0.8
						c0.5,2.4,0.4,4.2,0.1,6.6c2-0.3,3.9-0.5,5.9-0.8c-1-4.7-3.5-8.8-7.5-11.6c-3.9-2.7-9.7-3.7-11.9-8.3c-1.7,1-3.5,2-5.2,3
						c2.6,5,5.9,9.3,10.1,13.1c1.2-1.6,2.4-3.1,3.6-4.7c-3.7-2.7-6.6-5.8-9-9.7c-1.7,1-3.5,2-5.2,3c3.9,5,7.9,9.9,12.1,14.5
						c1.2-1.6,2.4-3.1,3.6-4.7c-3.8-2.2-6.4-5.1-8.2-9.1c-1.7,1-3.5,2-5.2,3c1.6,3,3.1,6.1,4.4,9.3c1.5-1.1,2.9-2.3,4.4-3.4
						c-1.9-1-4.3-6.4-2-2.6c1.3,2.1,2,4.6,2.3,7.1c1.9-0.5,3.7-1,5.6-1.5c-1.1-1.7-1.2-3.3-0.3-4.8c-1.9,0-3.9,0-5.8,0
						c0.7,2.9,1.5,5.7,2.2,8.6c0.9,3.5,5.5,2.4,5.9-0.8c0.4-3.4,0.8-6.8,1.1-10.2c-2,0-4,0-6,0c0.1,2.5,0.2,4.9,0.3,7.4c2,0,4,0,6,0
						c-1.6-12.5-0.1-24.8,1.7-37.2c-2-0.3-3.9-0.5-5.9-0.8c-1.1,9.9-4,19.5-8.4,28.5c1.8,0.2,3.7,0.5,5.5,0.7
						c-2.9-10.6,3.3-21.3,4.3-31.8c-2,0-4,0-6,0c-0.6,9.6-2.6,18.8-5.9,27.8c1.9,0,3.9,0,5.8,0c-1.8-8.3,2-18.1,4.6-25.9
						c1.2-3.7-4.6-5.3-5.8-1.6c-3,9.1-6.7,19.5-4.6,29.1c0.7,3.1,4.8,2.6,5.8,0c3.5-9.5,5.5-19.3,6.1-29.4c0.2-3.9-5.6-3.8-6,0
						c-1.1,11.4-7.3,21.7-4.1,33.4c0.6,2.4,4.3,3.1,5.5,0.7c4.9-10,8-20.5,9.3-31.5c0.4-3.3-5.4-4.1-5.9-0.8
						c-1.9,12.9-3.7,25.8-1.9,38.8c0.5,3.7,6.1,4,6,0c-0.1-2.5-0.2-4.9-0.3-7.4c-0.1-3.9-5.6-3.8-6,0c-0.4,3.4-0.8,6.8-1.1,10.2
						c2-0.3,3.9-0.5,5.9-0.8c-0.7-2.9-1.5-5.7-2.2-8.6c-0.8-3.1-4.8-2.6-5.8,0c-1.3,3.4-0.9,6.4,0.9,9.5c1.4,2.4,5.9,1.6,5.6-1.5
						c-0.6-5.1-4.1-17.6-11.7-14.7c-7.5,2.8-2.3,12.8,2.4,15.4c2.1,1.2,5.5-0.8,4.4-3.4c-1.5-3.7-3.1-7.2-5-10.7
						c-1.8-3.5-6.7-0.4-5.2,3c2.2,4.9,5.7,8.6,10.4,11.2c3,1.7,5.9-2.2,3.6-4.7c-3.9-4.3-7.6-8.7-11.2-13.3c-2.3-3-7.3-0.3-5.2,3
						c3,4.7,6.6,8.5,11.1,11.8c2.8,2,6.1-2.4,3.6-4.7c-3.8-3.5-6.8-7.3-9.1-11.9c-1.8-3.4-6.9-0.4-5.2,3c4.3,8.9,16.5,7.7,18.8,18.4
						c0.8,3.6,5.5,2.3,5.9-0.8c0.4-2.8,0.2-5.4-0.4-8.1c-0.6-3.3-6-2.6-5.9,0.8c0.1,3.1-0.5,5.3-4.2,5.1c-3.4-0.2-6.2-2.4-8.1-5.1
						c-1.6-2.3-3-4.7-4.4-7c-1.7-2.7-1.9-4.4-1.1-7.5c3.2-11.1,7.1-22.1,10.6-33.1c1.2-3.7-4.5-5.2-5.8-1.6
						c-3.9,10.5-7.7,21-11.6,31.5c-1.4,3.9-4,9.6-2.9,13.9c0.3,1.1-0.3,1.5,0.9,1.7c1.5,0.2,1.1-2.1,1.6-3.3c0.8-2.3,2-4.5,2.9-6.7
						c3.9-9.6,6.2-19.9,8.5-30c2.1-9.1,4.1-18.9,0.3-27.8c-1.1-2.7-4.8-3-5.8,0c-1.8,5.5-1.4,10.7,0.9,16c1.1,2.6,4.7,1.4,5.5-0.7
						c1.8-4.9,2.1-9.7,1-14.8c-0.6-3.1-4.9-2.6-5.8,0c-4.7,13.9-10.6,28-13.3,42.5c-0.6,3.1,4,5.6,5.5,2.3c4.2-9.4,7.5-19,9.7-29.1
						c0.8-3.8-4.5-5.2-5.8-1.6c-6.8,19.6-17,40.6-15.9,61.8c0.2,3.5,4.7,3.9,5.9,0.8c6.2-16,9.9-32.9,16.1-48.9
						c1.6-4.1,3.4-8.1,5.5-12c1.7-3.2,2.9-5.3,2.6-9c-0.7-7.4-3.7-14.7-7.4-21.2c-1.8-3.2-6-0.9-5.5,2.3c0.8,5.4,2.7,10.3,5.4,14.9
						c2,3.4,6.8,0.4,5.2-3c-2.9-6.4-2.2-13.8-6.6-19.5c-1.5-1.9-4.8-2-5.5,0.7c-1.3,5.2-1.2,10.3,0.3,15.5c1,3.2,6,2.7,5.9-0.8
						c-0.1-3.1-0.1-6.1-0.2-9.2c-0.1-3.3-5.2-4.2-5.9-0.8c-5.9,27.6-17.6,53.8-21.6,81.8c-0.5,3.7,5,5.5,5.8,1.6
						c1.2-6.1,2.4-12.2,3.6-18.3c0.7-3.7-4.7-5.4-5.8-1.6c-1.7,6.2-2.6,12.4-2.7,18.8c-0.1,3.3,5.2,4.2,5.9,0.8
						c3.3-16.8,8.9-32.9,13.9-49.2c5-16,10.8-32.8,12.7-49.5c-2,0-4,0-6,0c0.3,5.9,1.1,11.7,2.5,17.4c1.5,6,4.6,11.9,3.9,18.2
						c-1.5,12.5-4.9,25.2-7.7,37.5c-1.4,6.1-2.9,12.1-4.4,18.2c-0.6,2.3-1.2,4.6-1.1,7c0,0.8,0.5,2.3,0.4,3c-0.2,1.6,0.7,0.3-0.6,1
						c-4.5,2.3-12.7-1.1-17.3-1.9c-4.7-0.8-9.3-1.1-14,0.1c0.5,1.9,1.1,3.9,1.6,5.8c12.1-4.6,24.9-2.3,36.4,2.9
						c0.2-1.8,0.5-3.7,0.7-5.5c-14.1,4.7-28.6,1.2-42.5-2.4c0.7,1.2,1.4,2.5,2.1,3.7c1-4,1.1-14.8-6-12.1
						c-6.2,2.3-5.2,10.8-1.9,14.9c1.2,1.5,3.9,1,4.7-0.6c2.3-4.2,1.8-14.8-5.6-12.7c-6.7,1.9-4.9,10.7-0.7,13.9
						c2,1.4,4.4-0.5,4.5-2.6c0.3-5.5-1.2-10.5-4.5-14.8c-1.3-1.7-3.1-1.9-4.7-0.6c-2.6,2.1-2.2,5.2-2,8.2c0.3,4.9,0.7,9.8,1.3,14.7
						c0.3,3,3.8,4,5.6,1.5c1.7-2.3,1.9-4.5,1.3-7.2C68.3,340.2,62.5,341.8,63.3,345.5L63.3,345.5z"/>
				</g>
			</g>
			<g>
				<g>
					<path class="st0" d="M117.6,248.4c1.1,0.3,2,0.9,2.7,1.8c1.7,1.8,5.3,0.5,5.1-2.1c-0.2-2.5-0.6-4.8-1.3-7.2
						c-1.7,1-3.3,1.9-5,2.9c6.1,6.3,8.4,14.6,10.5,22.9c1.9-0.5,3.9-1.1,5.8-1.6c-0.9-2.3-1.9-4.4-3.3-6.4c-1.6,1.2-3.1,2.4-4.7,3.6
						c4.4,3.4,4.6,11.7,5.4,16.9c1.1,7.3,1.3,14.4-0.3,21.7c-1.3,6-1.2,12.3-1.9,18.4c-0.7,5.5-0.4,10.7,2.3,15.6
						c1.2,2.2,4.9,1.8,5.5-0.7c0.3-1.4,0.6-2.8,0.9-4.2c-2-0.3-3.9-0.5-5.9-0.8c-0.2,1.8-0.3,3.7-0.5,5.5c-0.3,3.8,5.6,3.8,6,0
						c1.2-12.4,1.1-24.7,0-37.1c-1.9,0.5-3.7,1-5.6,1.5c0.1,0.9,0.2,1.8,0.3,2.7c-0.5,3.1,3.8,5.6,5.5,2.3c3-5.9-3.6-11.2-7-15.4
						c-1.9-2.3-4.8-0.1-5.1,2.1c-0.4,3.4-0.9,6.8-1.3,10.1c1.9-0.5,3.7-1,5.6-1.5c-0.9-1.9-1.1-3.8-0.6-5.8c0.7-3.8-5-5.4-5.8-1.6
						c-0.4,2-0.7,4-2.1,5.7c1.7,1,3.3,1.9,5,2.9c3.5-11.2,4.9-22.8,4.3-34.5c-2,0.3-3.9,0.5-5.9,0.8c2.4,14.5,2.5,29.5,0,44
						c-0.6,3.3-1.3,6.6-2.7,9.7c-1.3,2.7-3.1,5.2-3.9,8.1c-0.7,2.6,0.3,4.3-2.6,4.6c-3.5,0.4-7.2,0-10.6-0.1
						c-11-0.5-25.2-2.5-35.1,3.6c-3,1.8-4.9,5.5-3.3,8.9c2.6,5.5,7.2,1.7,11.3,1.6c3.3,0,4.2-5.1,0.8-5.9c-1.6-0.4-3.2-0.6-4.9-0.6
						c-2.9,0-4.2,4.2-1.5,5.6c3.9,2.1,7.9,2.6,12.3,2.6c5.5,0,10.8,0.7,16.3,1c4.7,0.3,9.5-0.4,14.1-1.1c4.7-0.7,13.3-3.2,17.8-0.8
						c1.4,0.8,3.3,0.4,4.1-1.1c0.1-0.1,0.1-0.2,0.2-0.3c0.8-1.5,0.3-3.2-1.1-4.1c-0.1,0-0.1-0.1-0.2-0.1c-1.5-1-4.1-0.1-4.4,1.8
						c-0.1,0.8-0.3,1.6-0.4,2.5c1.2-0.7,2.5-1.4,3.7-2.1c-6.3-1.2-12.3-0.6-18.6,0c-6.5,0.6-12.8,0.5-19.3-0.1
						c-6.1-0.6-12.1-1.7-18.2-1.8c-4.8-0.1-10.1,0-13.7,3.7c-1.4,1.5-1,4.7,1.3,5c0.6,0.1,1.2,0.2,1.7,0.2c0.3-2,0.5-3.9,0.8-5.9
						c-0.6,0-1.3,0.1-1.9,0.1c-3.9,0.2-3.8,5.5,0,6c4.9,0.6,9.8,0.7,14.7,0.4c3.8-0.2,3.9-6,0-6c-1.9,0-2.3,0-4,0.7
						c-3,1.1-2.8,5.9,0.8,5.9c6.6,0,13.2,0,19.8,0c-0.5-1.9-1-3.7-1.5-5.6c-0.5,0-1,0-1.4,0.1c-0.3,2-0.5,3.9-0.8,5.9
						c3.9-0.5,7.8-0.7,11.7-0.6c0-2,0-4,0-6c-1.2,0.1-2.4,0.2-3.6,0.3c-3.3,0.3-4.1,4.8-0.8,5.9c4.9,1.6,10.5,0.5,15.6,0.1
						c6-0.4,12-0.9,18-1.3c3.8-0.3,3.9-6.3,0-6c-5.4,0.4-10.8,0.8-16.1,1.2c-4.9,0.4-11.1,1.9-15.9,0.3c-0.3,2-0.5,3.9-0.8,5.9
						c1.2-0.1,2.4-0.2,3.6-0.3c3.8-0.3,3.9-5.9,0-6c-3.9-0.1-7.8,0.1-11.7,0.6c-3.2,0.4-4.3,4.9-0.8,5.9c2.3,0.7,4,0.4,6.1-0.7
						c2.7-1.4,1.4-5.6-1.5-5.6c-6.6,0-13.2,0-19.8,0c0.3,2,0.5,3.9,0.8,5.9c0.8-0.2,1.6-0.3,2.4-0.5c0-2,0-4,0-6
						c-4.9,0.3-9.8,0.2-14.7-0.4c0,2,0,4,0,6c0.6,0,1.3-0.1,1.9-0.1c3.2-0.1,4.3-5.4,0.8-5.9c-0.6-0.1-1.2-0.2-1.7-0.2
						c0.4,1.7,0.9,3.3,1.3,5c3.4-3.5,11.5-1.9,15.8-1.5c5.1,0.5,10.3,1.3,15.4,1.7c10.8,0.8,22-2.4,32.7-0.4
						c1.5,0.3,3.4-0.4,3.7-2.1c0.1-0.8,0.3-1.6,0.4-2.5c-1.5,0.6-2.9,1.2-4.4,1.8c0.1,0,0.1,0.1,0.2,0.1c-0.4-1.4-0.7-2.7-1.1-4.1
						c-0.1,0.1-0.1,0.2-0.2,0.3c1.4-0.4,2.7-0.7,4.1-1.1c-7.7-4.2-19.6,0.1-27.8,0.9c-5.4,0.5-10.5-0.4-15.9-0.8
						c-5.6-0.4-11.7,1-16.8-1.8c-0.5,1.9-1,3.7-1.5,5.6c1.1-0.1,2.2,0.1,3.3,0.4c0.3-2,0.5-3.9,0.8-5.9c-0.7,0-6,0.7-5.9,1.5
						c-0.2-1.6,6.6-3,7.5-3.2c6-1.3,12.2-1.1,18.3-0.9c5.9,0.3,11.8,0.8,17.7,0.5c4.1-0.2,6.8-1.1,7.8-5.4c0.7-3,1.2-5.4,2.7-8.1
						c1.2-2.2,2.2-4.4,3-6.8c1.7-5.3,2.3-11,2.9-16.5c1.3-12.4,0.7-24.9-1.3-37.2c-0.5-3.3-6.1-2.6-5.9,0.8
						c0.6,11.2-0.8,22.1-4.1,32.9c-0.8,2.7,3.1,5.3,5,2.9c2.1-2.6,3-5,3.7-8.3c-1.9-0.5-3.9-1.1-5.8-1.6c-0.7,3.8-0.4,6.9,1.2,10.5
						c1.3,3.1,5.3,1,5.6-1.5c0.4-3.4,0.9-6.8,1.3-10.1c-1.7,0.7-3.4,1.4-5.1,2.1c0.9,1.1,6.7,7,6.1,8.2c1.8,0.8,3.7,1.5,5.5,2.3
						c0.5-2.8,0.2-4.8-0.9-7.3c-1.2-2.7-5.9-1.4-5.6,1.5c1.2,12.4,1.2,24.7,0,37.1c2,0,4,0,6,0c0.2-1.8,0.3-3.7,0.5-5.5
						c0.3-3.4-5.2-4.1-5.9-0.8c-0.3,1.4-0.6,2.8-0.9,4.2c1.8-0.2,3.7-0.5,5.5-0.7c-3.5-6.5-0.9-13.8-0.4-20.7
						c0.2-3.7,0.4-6.8,1.1-10.4c0.6-3.2,1-6.4,1-9.7c0.1-6.3-0.9-12.6-2.1-18.8c-0.9-5.1-1.6-10.7-6-14.1c-2.4-1.9-6.9,0.6-4.7,3.6
						c1.2,1.6,2,3,2.7,5c1.3,3.6,6.7,2.2,5.8-1.6c-2.3-9.3-5.2-18.5-12-25.5c-2.1-2.1-5.9,0-5,2.9c0.6,1.9,0.9,3.6,1.1,5.6
						c1.7-0.7,3.4-1.4,5.1-2.1c-1.2-1.3-2.3-2.1-3.9-2.8C117.1,241.7,114,246.9,117.6,248.4L117.6,248.4z"/>
				</g>
			</g>
		</g>
		<g>
			<g>
				<path class="st0" d="M117.9,237.6c1-1.2,1.7-2.1,2.5-3.4c-1.7,0-3.5,0-5.2,0c0.3,0.8,0.5,1.6,0.8,2.4c0.6,3.2,4.8,2.5,5.8,0
					c5.3-14.1-0.6-29.1-2.2-43.3c-0.9-7.5,0.1-14.5,0-21.9c0-3.6-1.1-6.9,0.1-10.4c0.2-0.7,7.5-12.8,8.8-9.1
					c1.1,2.9,6.2,2.8,5.9-0.8c-0.2-1.3-0.2-2.7,0.1-4c-1.7,0.4-3.3,0.9-5,1.3c2.4,3-0.3,6.1-2.2,8.1c-2.7,2.8,1.6,7,4.2,4.2
					c4.6-4.8,6.8-11,2.2-16.6c-1.4-1.7-4.6-0.8-5,1.3c-0.3,1.9-0.5,3.6-0.3,5.6c2-0.3,3.9-0.5,5.9-0.8c-2.4-6.6-9.9-5.4-14.1-1.2
					c-2.6,2.6-4.7,6.1-6,9.6c-1.8,4.8-0.5,8.6-0.6,13.5c-0.1,5.2-0.8,10.2-0.5,15.4c0.3,5.1,1,10.1,1.9,15.1c1.8,10.7,5,21.7,1,32.3
					c1.9,0,3.9,0,5.8,0c-0.3-1.8-0.5-2.2-1.4-3.8c-1.1-2-4-1.8-5.2,0c-0.5,0.7-1,1.5-1.6,2.2C111.2,236.3,115.4,240.6,117.9,237.6
					L117.9,237.6z"/>
			</g>
		</g>
	</g>
	<g>
		<g>
			<g>
			</g>
			<g>
				<g>
					<g>
						<path class="st1" d="M71.2,169.9c5.2,2.1,10.8,2.3,15.8-0.3c4.9-2.6,7.2-7.2,9-12.1c0.3-0.7-0.9-1-1.2-0.3
							c-3.8,10.4-12.3,16.1-23.4,11.6C70.8,168.5,70.5,169.6,71.2,169.9L71.2,169.9z"/>
					</g>
				</g>
				<g>
					<path d="M71.3,169.5c0.9,3.8,1.4,7.7,1.9,11.6c1.2,9.6,2.2,19.2,3.2,28.9c0.8,8.4,1.6,16.9,1.5,25.4"/>
					<g>
						<path d="M70.7,169.7c2.4,10.6,3.1,21.8,4.2,32.6c1.2,11,2.4,22,2.3,33.1c0,0.8,1.2,0.8,1.2,0c0.1-11.7-1.2-23.4-2.5-35
							c-1.1-10.3-1.8-20.9-4.1-31C71.7,168.6,70.5,169,70.7,169.7L70.7,169.7z"/>
					</g>
				</g>
				<g>
					<g>
						<path d="M77.1,235.6c-0.1,3.5-2.7,7.2-4.2,10.2c-1.3,2.6-2.7,5.2-4,7.7c-2.2,4.3-4.2,8.5-5.3,13.2c-2.4,9.8-2.8,20.1-3.7,30.1
							c-0.1,0.8,1.1,0.8,1.2,0c1.1-11,1.2-22.6,4.6-33.2c1.7-5.4,4.8-10.4,7.4-15.5c2-3.8,5.2-8.1,5.3-12.5
							C78.3,234.8,77.1,234.8,77.1,235.6L77.1,235.6z"/>
					</g>
				</g>
				<g>
					<g>
						<path class="st1" d="M131.3,168c-10.6,4-19.3-0.7-23.4-10.9c-0.3-0.7-1.4-0.4-1.2,0.3c2,5,4.5,9.4,9.6,11.7
							c4.9,2.2,10.3,1.9,15.2,0C132.4,168.9,132.1,167.7,131.3,168L131.3,168z"/>
					</g>
				</g>
			</g>
			<g>
				<g>
					<path d="M59.9,296.3c0.1,10.2,0.1,20.3,0.3,30.5c0.2,7.9,0.4,16.2,2.1,24c0.2,0.8,1.3,0.4,1.2-0.3c-1.8-8-2-17-2.1-25.3
						c-0.1-9.6-0.2-19.2-0.3-28.9C61.1,295.5,59.9,295.5,59.9,296.3L59.9,296.3z"/>
				</g>
			</g>
			<g>
				<g>
					<path d="M62.5,352.5c24.9,2.1,50.8,2.2,75.6-1.2c0.8-0.1,0.4-1.3-0.3-1.2c-24.7,3.4-50.5,3.3-75.3,1.2
						C61.7,351.2,61.7,352.4,62.5,352.5L62.5,352.5z"/>
				</g>
			</g>
			<g>
				<g>
					<path d="M128.6,169.9c-2.4,21.8-4.2,43.6-6.2,65.4c-0.1,0.8,1.1,0.8,1.2,0c2-21.8,3.8-43.6,6.2-65.4
						C129.9,169.1,128.7,169.1,128.6,169.9L128.6,169.9z"/>
				</g>
			</g>
			<g>
				<g>
					<path d="M122.8,234.6c-0.8,4.1,1.5,6.9,3.5,10.3c3.1,5.2,5.6,10.6,7.6,16.3c3.8,10.9,5.4,22.4,5,33.9c0,0.8,1.2,0.8,1.2,0
						c0.3-9.9-0.8-19.7-3.5-29.3c-1.2-4.2-2.7-8.3-4.5-12.3c-1.1-2.4-2.2-4.7-3.5-7c-1.8-3.3-5.5-7.6-4.7-11.7
						C124.1,234.1,122.9,233.8,122.8,234.6L122.8,234.6z"/>
				</g>
			</g>
			<g>
				<g>
					<path d="M138.9,294.9c-0.1,18.5-0.4,37-0.8,55.4c0,0.8,1.2,0.8,1.2,0c0.5-18.5,0.8-36.9,0.8-55.4
						C140.1,294.1,138.9,294.1,138.9,294.9L138.9,294.9z"/>
				</g>
			</g>
		</g>
		<g>
			<g>
				<path d="M71.9,168.5c-7.2-4.6-8.3-13-7.4-20.9c0.1-0.8-1.1-0.8-1.2,0c-0.9,8.3,0.5,17.1,8,21.9C72,169.9,72.6,168.9,71.9,168.5
					L71.9,168.5z"/>
			</g>
		</g>
		<g>
			<g>
				<path d="M64.1,147.8c0.7-8,10.3-11.4,17-12.7c6.1-1.2,12.3-1.2,18.4-1.2c0.8,0,0.8-1.2,0-1.2c-10.9,0-35.2-0.2-36.6,15.2
					C62.8,148.6,64,148.6,64.1,147.8L64.1,147.8z"/>
			</g>
		</g>
		<g>
			<g>
				<path d="M131,169.5c6.8-6.5,8.5-15.8,4.8-24.4c-0.3-0.7-1.3-0.1-1,0.6c3.6,8.2,1.8,16.8-4.6,23C129.6,169.2,130.4,170,131,169.5
					L131,169.5z"/>
			</g>
		</g>
		<g>
			<g>
				<path d="M136.4,147.8c-1.5-15.6-27.1-15.2-38.1-15.2c-0.8,0-0.8,1.2,0,1.2c6.4,0,12.8,0,19,1.2c6.8,1.3,17.1,4.6,17.9,12.8
					C135.3,148.6,136.5,148.6,136.4,147.8L136.4,147.8z"/>
			</g>
		</g>
	</g>
</g>
</svg>
