<svg id="Layer_1" data-name="Layer 1" xmlns="http://www.w3.org/2000/svg" viewBox="0 0 64.62 95.69"><defs><style>.cls-1{fill:#603016;}.cls-2{fill:#221f1f;}.cls-3{fill:#613719;}</style></defs><title>Brown</title><path class="cls-1" d="M79.1,91.5c.4.3.4.2.1-.3v-.8c0-.1.4-.5.1-.3a2.18,2.18,0,0,0-.4.5,2,2,0,0,0-.3,1.1c1-.1,2-.3,2.9-.4a1.42,1.42,0,0,0-.2-.6c-.4-1,.2.4-.7.6,1.1-.4,1.6-2.2.4-2.7a9.38,9.38,0,0,0-1.5-.6c-1.3-.3-2.7,1.5-1.5,2.5,1,.8,1.8,1.7,2.8,2.4,1.4,1,3.1-1.2,1.8-2.4s-2.1-3.1-3.1-4.7-3.6-.1-2.6,1.5a21.55,21.55,0,0,0,3.6,5.3l1.8-2.4a20.89,20.89,0,0,1-2.2-2c-.5.8-1,1.7-1.5,2.5a2.61,2.61,0,0,1,.8.3,25.12,25.12,0,0,1,.4-2.7c-.9.3-1.6.8-1.7,1.7a5.85,5.85,0,0,0,.4,1.9c.3,1.8,2.8,1.2,2.9-.4,0,.2-.4.6-.1.5.1-.1.3-.3.3-.4a2.38,2.38,0,0,0,.3-1.2,2,2,0,0,0-1.5-1.7c-1.5-.6-3,2-1.3,2.8Z" transform="translate(-67.71 -27.18)"/><path class="cls-1" d="M79.3,93.1a1.5,1.5,0,0,0,0-3,1.5,1.5,0,0,0,0,3Z" transform="translate(-67.71 -27.18)"/><path class="cls-1" d="M78.3,90.7h0a3.33,3.33,0,0,1,.6-.3q1,.3.6,0a1.38,1.38,0,0,1,.3.4v.8c-.1.1-.1.3-.2.4a4.35,4.35,0,0,1-.7.4h-.7c-.1,0-.1-.1-.2-.1-.2-.4-.5-.9-.7-1.3v.1c.1-.3.1-.5.2-.8l-.1.1.5-.5h-.1c.4-.1.8-.1,1.1-.2.3.3.5.7.8,1-.1.3-.1.5-.2.8l-.1.1a4.35,4.35,0,0,1-.7.4c-.4-.2-.8-.3-1.2-.5-.1-.3-.1-.5-.2-.8.6-.1,1.2-.3,1.8-.4.1.3.1.5.2.8a.9.9,0,0,1-1.1.9,4.35,4.35,0,0,0-.7-.4l-.1-.1c-.1-.3-.1-.5-.2-.8.6-.6.7-.9.4-.7s-.1.1.6,0a4.35,4.35,0,0,0,.7.4.1.1,0,0,0-.1-.1,4.35,4.35,0,0,1,.4.7c.1.7,0,1-.5,1.1.1,0,.2-.1.3-.1a1.46,1.46,0,1,0-.8-2.8,2.19,2.19,0,0,0-1.9,2.6c.5,1.6,2.5,1.4,3.4.4A1.89,1.89,0,0,0,78.5,89a1.93,1.93,0,1,0,1.2,3.2,1.84,1.84,0,0,0-.8-3.1A1.77,1.77,0,0,0,77,91.8a1.82,1.82,0,0,0,1.9.8A1.59,1.59,0,0,0,80.1,91a1.46,1.46,0,0,0-.7-1.3c-1.5-1-3.2.9-2.4,2.4a2.59,2.59,0,0,0,1.1,1,1.8,1.8,0,0,0,2.2-.3,1.54,1.54,0,0,0,0-2.1,1.42,1.42,0,0,0-2,0Z" transform="translate(-67.71 -27.18)"/><path class="cls-1" d="M78.7,116.6a6.54,6.54,0,0,1-.2,3.1c-.6,1.8,2.3,2.6,2.9.8a9,9,0,0,0,.2-4.6,1.47,1.47,0,0,0-1.8-1,1.33,1.33,0,0,0-1.1,1.7Z" transform="translate(-67.71 -27.18)"/><path class="cls-1" d="M78.7,115.2a8.83,8.83,0,0,1,.2,2.8,10.66,10.66,0,0,1-.7,1.9,1.47,1.47,0,0,0,2.7,1.1,2.19,2.19,0,0,1,.3-.5c1-1.6-1.5-3.1-2.6-1.5a2.19,2.19,0,0,1-.3.5c.9.4,1.8.8,2.7,1.1.1-.3.4-.7.5-1a8.59,8.59,0,0,0,.3-1.7,11,11,0,0,0-.3-3.6c-.4-1.7-3.3-.9-2.8.9Z" transform="translate(-67.71 -27.18)"/><path class="cls-1" d="M79.8,40.1l-.6.6,2.1,2.1A5,5,0,0,1,82,42c-.8-.6-1.6-1.2-2.3-1.8q-3.3,5.7-6.3,11.7c-.9,1.7,1.7,3.2,2.6,1.5q3-5.85,6.3-11.7c.8-1.4-1.2-3.1-2.3-1.8a5,5,0,0,1-.7.8,1.49,1.49,0,0,0,2.1,2.1l.6-.6c1.4-1.3-.7-3.4-2.2-2.1Z" transform="translate(-67.71 -27.18)"/><path class="cls-1" d="M115,37a1.5,1.5,0,0,0,0-3,1.5,1.5,0,0,0,0,3Z" transform="translate(-67.71 -27.18)"/><path class="cls-1" d="M95.6,34.5c-1.4,2.2-2.9,4.3-4.5,6.4-.7.9-.4,2.7,1.1,2.5a7.58,7.58,0,0,0,6-3.5,1.45,1.45,0,0,0-2-2c-7,4.1-11.9,11.2-18,16.4a1.51,1.51,0,0,0,1.4,2.5c2.7-.9,4.5-2.6,6.6-4.5,2.9-2.6,5.8-5.3,8.6-8,1.4-1.3-.7-3.4-2.1-2.1-2.1,2-4.2,4-6.3,5.9-2.2,2.1-4.6,4.9-7.6,5.8.5.8,1,1.7,1.4,2.5,5.9-5.1,10.7-12,17.4-16l-2-2c-1.1.7-2.3,1.4-3.4,2,.4.8.7,1.7,1.1,2.5,1.8-2.3,3.4-4.6,5-7,.9-1.5-1.7-3-2.7-1.4Z" transform="translate(-67.71 -27.18)"/><path class="cls-1" d="M120.2,91.3a4.1,4.1,0,0,1,.1-1.1.59.59,0,0,0-.9-.5,2.65,2.65,0,0,0-.6.5c-.4.5.5,1.2.9.7a2.64,2.64,0,0,0,.7-1.9.6.6,0,1,0-1.2,0v.5c.4.1.8.1,1.2.2a.6.6,0,0,1,.1-.4c.1-.7-1-.8-1.2-.2a.35.35,0,0,1-.1.2c.4.1.8.2,1.1.3a.76.76,0,0,0-.3-.9.62.62,0,0,0-.7.1v.1c.3.2.7.4,1,.6a.64.64,0,0,0,0-.6.62.62,0,0,0-1.2.2v.1c.3.1.7.3,1,.4a.9.9,0,0,1,.1-.5h-1.1c.1.1.1.2,0,.2l1.1.3v-.3a1.38,1.38,0,0,1-.4.3h.1c-.2-.1-.4-.1-.6-.2s-.1,0-.1.1c-.1.8,1.1.8,1.2,0,0-.5-.1-1.1-.7-1.1s-.7.7-.8,1.2.9.8,1.1.3a1.67,1.67,0,0,0,.1-1.2.56.56,0,0,0-1.1,0,2.2,2.2,0,0,0-.1.8.58.58,0,0,0,1,.4,1.4,1.4,0,0,0,.3-.9c-.4.1-.8.1-1.2.2v-.1c-.1.5.6,1,1,.6v-.1c-.2,0-.5.1-.7.1h.1a1.38,1.38,0,0,1-.3-.4v-.1c-.1.7.9,1.1,1.1.3a.35.35,0,0,1,.1-.2c-.4-.1-.8-.1-1.2-.2a.6.6,0,0,1-.1.4c-.1.7,1,.8,1.2.2,0-.3.1-.5.1-.8h-1.2a1.5,1.5,0,0,1-.4,1.1c.3.2.6.5.9.7l.1-.1c-.3-.2-.6-.3-.9-.5a4.1,4.1,0,0,1-.1,1.1c.2.9,1.4.9,1.5.1Z" transform="translate(-67.71 -27.18)"/><path class="cls-1" d="M121,109h-.7c-.1-.1-.2-.1-.4-.2a4.35,4.35,0,0,1-.4-.7v-.2c.1-.3.1-.5.2-.8l.3-.3c.3-.1.5-.1.8-.2h-.1a1.5,1.5,0,0,0,0,3,1.86,1.86,0,0,0,1.9-2,1.78,1.78,0,0,0-2.3-1.5,1.43,1.43,0,0,0-1,1.8c.1.9.9,1.2,1.7,1.1Z" transform="translate(-67.71 -27.18)"/><path class="cls-1" d="M118.6,112.9c.8.2.8.9.4,1.5a1.43,1.43,0,0,0,.5,2,1.55,1.55,0,0,0,2-.5,3.91,3.91,0,0,0-2.2-5.9c-1.7-.5-2.5,2.3-.7,2.9Z" transform="translate(-67.71 -27.18)"/><path class="cls-1" d="M116.7,117.3c0,.4.1.9.1,1.3v.6c0,.1,0,.5.1.4s.3-.1.4-.2h-.1a.6.6,0,1,0,0,1.2c.6,0,.8-.5.8-1a19.42,19.42,0,0,0-.2-2.4c0-.6-1.2-.6-1.1.1Z" transform="translate(-67.71 -27.18)"/><path class="cls-1" d="M116.9,116.1a5.34,5.34,0,0,0-.5,1.8,1.47,1.47,0,0,0,1.5,1.5,1.54,1.54,0,0,0,1.5-1.5c0,.2.1-.4.1-.3a1.55,1.55,0,0,0-.5-2,1.41,1.41,0,0,0-2.1.5Z" transform="translate(-67.71 -27.18)"/><path class="cls-1" d="M116.1,101.3a.35.35,0,0,0-.1-.2h0v-.2h0c.1,0,.1-.1.2-.1a1.46,1.46,0,0,0-1.5-2.5,3.09,3.09,0,0,0-1.5,3.8,1.4,1.4,0,0,0,1.8,1,1.46,1.46,0,0,0,1.1-1.8Z" transform="translate(-67.71 -27.18)"/><path class="cls-1" d="M119.4,116.3c.1-.3.1-.5.2-.8-1-.3-1.9-.5-2.9-.8-.6,2.6,0,2.9,2,4.1a1.46,1.46,0,0,0,2-2c-.5-1,.6-1.5.6-2.4a6.18,6.18,0,0,0-.5-2.7c-.3-1.2-.8-.8-.5-2.1.1-.5.9-1,1.1-1.6.5-2.1-1.7-2.9-1.8-4.9,0-.7,1.1-2.2,1.1-3a7.42,7.42,0,0,0-.5-2.5A8.86,8.86,0,0,1,120,94c.1-.9.6-1.1.4-2a2.29,2.29,0,0,0-2.7-1.8,5.48,5.48,0,0,0-3.4,2.9c-.9,2,2.5,7.7,1.5,8.5a11,11,0,0,1,1.8-.2l-.3-1.5a1.47,1.47,0,0,0-2.7-1.1c-2,3.3,1.3,5.2,2,8.4.3-.6.7-1.2,1-1.8-1.7.3-3.7.1-3.9,2.5-.2,2.1,1.6,3.1,3.4,3.2a17.1,17.1,0,0,1-1.4-1.1c.6,1.9-4,5.1.4,6.5,2.6.9,4.1-1.7,3.2-3.8-.7-1.8-3.6-1-2.9.8.5,1.3,2.2-2,2.2-2a3.62,3.62,0,0,0,0-2.3,1.6,1.6,0,0,0-1.4-1.1,3.09,3.09,0,0,0,1.3.2,1.43,1.43,0,0,0,1-1.8c-.3-1.2-2.8-5.3-2.3-6.1-.9-.4-1.8-.8-2.7-1.1-.4,1.8-.2,3.9,1.7,4.8a1.68,1.68,0,0,0,1.8-.2c1.1-.9.9-1.9.7-3.2a24,24,0,0,0-1.2-4.4c-.4-1.2,0-3.4-1.2-1.9-1.3,1.7-.1,2.5.4,4,1,2.8-1.1,4-.6,6.4.2,1,1.8,2,1.6,3s-1.5,1.1-1.4,2.6c.1,1.7,1.7,2.4,1.7,4.3,0,1.7-.9,2,.1,3.9l2-2c-1-.6-.8,0-.6-.7a1.51,1.51,0,0,0-2.9-.8c-.1.3-.1.5-.2.8-.4,1.5,2.5,2.3,3,.4Z" transform="translate(-67.71 -27.18)"/><path class="cls-1" d="M119.2,44.9c.1.1.2.1.3.2,1.4.7,3.1-1.1,1.8-2.3-.4-.3-1.3-1.1-1.3-1.7a17.1,17.1,0,0,1-1.1,1.4.71.71,0,0,0,.3,1c.1-.5.3-1,.4-1.4v-.3a17.1,17.1,0,0,0-1.4,1.1l1.9,1.9a1.48,1.48,0,0,0,2.3-1.8c-1.2-2.2-2.5-4.4-3.7-6.7-.8-1.7-.8-3.7-2.6-4.7a1.5,1.5,0,0,0-1.5,2.6c.6.3.7,1.6.9,2.2a19.23,19.23,0,0,0,1.2,2.5c1,1.9,2.1,3.7,3.1,5.6.8-.6,1.6-1.2,2.3-1.8-1-.9-2.5-2.9-4-2.7a1.5,1.5,0,0,0-1.4,1.1c-.9,2.4,3.1,4.9,5,3.2a1.49,1.49,0,0,0,.4-1.4c-.4-1.5-2.2-3.7-3.9-3.1a1.5,1.5,0,0,0-1.1,1.4c0,1.3,1.1,2.7,2.1,3.7l1.8-2.4c-.1-.1-.2-.1-.3-.2-1.7-.8-3.2,1.7-1.5,2.6Z" transform="translate(-67.71 -27.18)"/><path class="cls-1" d="M104,36l-.1-.1a1.47,1.47,0,0,0-2.3.3c-.5,1.1-.2,1.5.2,2.8s2.6,1.5,2.9,0a4.88,4.88,0,0,1-.3-.7,11,11,0,0,1-.2-1.8c-.8,1.1-4-.6-4.6,1.9-.5,2.1,2.4,3.1,3.8,3.7,4.1,1.8,8.8,2.4,13.1,3.3,3.3.7,6.6,2,9.5-.2-.7-.4-1.5-.9-2.2-1.3,0-.2.1,2.7.1,2.7a17.1,17.1,0,0,0,1.4-1.1c.1.1.2.1.3.2a1.5,1.5,0,0,0-2.6,1.5c2.1,3.8,3.6,7.1,7.1,9.8a1.47,1.47,0,0,0,2.2-1.3c.3-4.6-3.3-9.7-6.1-13a42.27,42.27,0,0,0-6.6-6.1c-2.7-2.1-6.1-3.6-8.3-6.2l-2.1,2.1c1.6,1.5,3.7,1.5,5.5,2.6,3.2,2,5.9,5.5,8.4,8.3.8.9,2.7.2,2.5-1.1-.3-3.4-3.3-7.5-6.7-8.4-4.6-1.2-11.3,3.1-15.3,5,.7.4,1.5.9,2.2,1.3-.1-.2-.1-.4-.2-.6V37.5a24.6,24.6,0,0,1,2.9.7,17.1,17.1,0,0,0-1.1-1.4l.6,2.1c.6.2,1.1.5,1.7.7h1.1a17.1,17.1,0,0,0-1.1-1.4,17.41,17.41,0,0,1-1.2,1.4c.6.2,1.1.5,1.7.7.2.1.4.1.6.2a11,11,0,0,0,1.8.2c.7-.5,1.3-.9,2-1.4a17.1,17.1,0,0,0-1.1-1.4c-.4.9-.9,1.7-1.3,2.6a17.1,17.1,0,0,1,1.4,1.1c.4-.6.8-1.1,1.2-1.6.2.6.5,1.1.7,1.7-.2-.2-.3-.5-.5-.7a11,11,0,0,0,1.8.2,1.76,1.76,0,0,0,.4.5c1.9.1,1.9-2.8,0-3-2.3-.2-4.7,2.7-2.5,4.6a1.51,1.51,0,0,0,1.8.2c5.6-3.5-2.9-9-3.9-2.6a1.62,1.62,0,0,0,.7,1.7c2.8,1.4,5.2-2.5,3.8-4.9a1.36,1.36,0,0,0-1.3-.7c-2.5.2-6,2.5-5.2,5.4a1.6,1.6,0,0,0,1.4,1.1c2.7.2,4.4-3.3,4.3-5.6a1.5,1.5,0,0,0-1.1-1.4c-3.1-1.2-7.4,3.7-4.9,6.3a1.51,1.51,0,0,0,1.8.2c2.3-1.1,4.1-5.3,1-6.5-2.7-1-7.3,2.2-5.7,5.2a1.56,1.56,0,0,0,1.7.7,4.39,4.39,0,0,0,3.4-4.3,1.5,1.5,0,0,0-1.1-1.4c-2.3-.8-6.4,1.8-4.5,4.4a1.62,1.62,0,0,0,1.7.7c2.2-.7,3-2.8,2.8-4.9-.1-.5-.2-1.1-.7-1.3-3.1-1.3-5.7.5-5.2,3.9a1.44,1.44,0,0,0,1,1c2.5.8,3.8-1.5,3.7-3.8a1.32,1.32,0,0,0-1.1-1.4,3.87,3.87,0,0,0-5,3.8,1.71,1.71,0,0,0,.7,1.3c3.5,1.9,5.7-4.8,1.7-4.8-5.3-.1-1.9,7.7.9,4a1.54,1.54,0,0,0,0-2.1c-2.3-2.5-4.6.3-4.9,2.8-.2,1.2,1.3,1.7,2.2,1.3,2.8-1.3,5.8-3.1,8.8-3.8,3.4-.8,8.3.2,8.7,4.7.8-.4,1.7-.7,2.5-1.1-2.4-2.6-4.7-5.6-7.5-7.7-1.8-1.4-4.9-1.8-6.4-3.2a1.49,1.49,0,0,0-2.1,2.1c3.2,3.6,8,5.6,11.6,8.9s9,9,8.6,14.3c.7-.4,1.5-.9,2.2-1.3-2.9-2.2-4.3-5.6-6-8.7-.9.5-1.7,1-2.6,1.5.1.2.3.4.4.6a1.46,1.46,0,0,0,1.3.7h.6a1.39,1.39,0,0,0,1.4-1.1c.3-1.2-.1-2.3,0-3.5s-1.4-2-2.2-1.3c-2.3,1.8-7.3-.1-9.8-.7s-5-1-7.4-1.7c-.5-.2-4.1-1.2-4-1.5,0,.3.9.8,1.2.7,1.2-.5,1.4-.4,2.2-1.5a1.51,1.51,0,0,0-.2-1.8c-1.9-2.3-4.2-.5-4.7,2h2.9l-.5-.5-2.3.3.1.1c1.7,1.3,3.8-.8,2.5-2.1Z" transform="translate(-67.71 -27.18)"/><path class="cls-1" d="M82.1,34.4h0c.8-.4,1.7-.9,2.5-1.4h-.1c2.2,2.9,4.5,5.8,6.7,8.7.1-.1.1-.2.2-.3l-.9,1.2a4.62,4.62,0,0,1,.7-.7l-1.2.9c.3-.2.7-.4,1-.6-.5.2-.9.4-1.4.6.3-.1.5-.2.8-.3-2.2-2.9-4.5-5.8-6.7-8.7,0,.1-.1.1-.1.2a6,6,0,0,0,6.7,8.8,6.57,6.57,0,0,0,3.6-2.7c0-.1.1-.1.1-.2a5.9,5.9,0,0,0-.5-6.6,6,6,0,0,0-6.3-2.1,10.52,10.52,0,0,0-6.3,4.6c-.2.5-.4.9-.6,1.4s-.1,1.1-.2,1.6a5.88,5.88,0,0,0,1.3,3.6,5.46,5.46,0,0,0,2.4,1.8,5.85,5.85,0,0,0,3.9.3,8.11,8.11,0,0,0,2.8-1.7,6.07,6.07,0,0,0,1.7-4.2,5.81,5.81,0,0,0-5.9-5.9,6.07,6.07,0,0,0-4.2,1.7Z" transform="translate(-67.71 -27.18)"/><path class="cls-1" d="M68.8,62.8c-.2.4-.3.9-.5,1.3-.5,1.4,1.5,2.4,2.5,1.4,7.7-7.7,15.7-15.1,23.9-22.2,1.3-1.1-.4-3.2-1.8-2.3-4.7,2.9-9,6.2-11.5,11.4.9.5,1.7,1,2.6,1.5,1.4-3,2.8-6,4.3-9,.8-1.7-1.7-3.2-2.6-1.5a24.35,24.35,0,0,1-5.4,7c.8.6,1.6,1.2,2.3,1.8a21.31,21.31,0,0,1,3.8-5.6c-.8-.6-1.6-1.2-2.3-1.8a22.57,22.57,0,0,1-4.9,5.8c.8.4,1.7.7,2.5,1.1a9.36,9.36,0,0,1,3.8-6.6c-.8-.6-1.6-1.2-2.3-1.8a60.61,60.61,0,0,1-3.5,5.3c.8.6,1.6,1.2,2.3,1.8,1.2-2.2,2.4-4.4,3.6-6.7A1.5,1.5,0,0,0,83,42.2a25.73,25.73,0,0,1-3.8,4.9c.8.5,1.7,1,2.5,1.4.8-2.2,1.7-4.4,2.5-6.6.6-1.5-1.5-2.3-2.5-1.4A31.9,31.9,0,0,0,77.2,45c.8.6,1.6,1.2,2.3,1.8,1.1-2,2.3-3.9,3.4-5.9.7-1.2-.8-2.9-2-2a15.41,15.41,0,0,0-3.4,2.9c.8.6,1.6,1.2,2.3,1.8a30.63,30.63,0,0,0,3.7-6.3,1.53,1.53,0,0,0-1.7-2.2c-3.6.7-6.8,7.3-8.6,10,.9.3,1.8.5,2.8.8,0-1.8,2.9-4.5,4.1-5.9-.8-.6-1.6-1.2-2.3-1.8a31.8,31.8,0,0,0-4.4,10.6,1.51,1.51,0,0,0,2.9.8,10.32,10.32,0,0,1,1.4-3c-.9-.4-1.8-.8-2.7-1.1L72.9,53a1.47,1.47,0,0,0,2.7,1.1c1.3-1.8,2.5-3.7,3.8-5.5-.9-.4-1.8-.8-2.7-1.1-.9,2.3-1.8,4.7-2.6,7-.6,1.7,1.8,2.5,2.7,1.1s1.7-2.6,2.6-3.9c-.9-.3-1.8-.5-2.8-.8-.2.9-.3,1.8-.5,2.8a1.48,1.48,0,0,0,2.7,1.1c.5-.7,1.1-1.5,1.6-2.2-.8-.5-1.7-1-2.5-1.4-1,4.6-6.7,7.9-9.5,11.5.8.4,1.7.7,2.5,1.1-.3-5.7.3-12.4,4.1-16.9-.8-.6-1.6-1.2-2.3-1.8-1.9,3.5-3.1,6.6-2.4,10.6.3,1.5,2.4,1.3,2.9,0a37.65,37.65,0,0,0,1.3-4.8c-1-.1-1.9-.3-2.9-.4a26.09,26.09,0,0,1-1.7,6.8c1,.3,1.9.5,2.9.8a21.34,21.34,0,0,1,1.3-4.3c-1-.1-1.9-.3-2.9-.4-.3,1.2-.7,2.4-1,3.6.9.4,1.8.8,2.7,1.1.4-.6.9-1.1,1.3-1.7l-1.8-1.8-1.2,2.1c.8.6,1.6,1.2,2.3,1.8a10,10,0,0,0,1.1-1l-2-2A20.84,20.84,0,0,0,70.5,58c.7.6,1.5,1.1,2.2,1.7,2.2-5.7,6.8-9.9,11.4-13.8,4.8-4,10.7-4.9,16.6-6.2a1.55,1.55,0,0,0,.7-2.5,7.51,7.51,0,0,0-9.8-1.1,1.5,1.5,0,0,0,1.5,2.6,13.17,13.17,0,0,1,7.3-1.2c-.4-.8-.7-1.7-1.1-2.5a9,9,0,0,1-5.4,2c.3.9.5,1.8.8,2.8,1.1-.2,2.2-.4,3.3-.7-.3-.9-.5-1.8-.8-2.8-2.9.7-3.2,1.1-1,1.1-.3-.9-.5-1.8-.8-2.8-3.3,1.5-3.6,1.6-.8.3,1.7-.7,1-3.6-.8-2.9-2.2,0-2.6-.2-1.2-.5l2.4-.6a25.56,25.56,0,0,1,6.2-.3c2.3.2,9.7,1,11,3.1.6,1-.3.2-1.4,0s-2.4-.7-3.7-.9c-4-.6-8.1-.2-12.2-.9-.1,1-.3,1.9-.4,2.9a1.85,1.85,0,0,0,2.1-.7c.7-1,1-.7.7.8a25.12,25.12,0,0,0-.4-2.7c-1,.4-1.9.7-2.9,1.1a11,11,0,0,0-.2,1.8,5.1,5.1,0,0,1,3.8-.6c-.1-1-.3-1.9-.4-2.9a3.63,3.63,0,0,1-3.5.1c.2.6.5,1.1.7,1.7a5.6,5.6,0,0,1,3.6-.3c-.3-.9-.5-1.8-.8-2.8a5.79,5.79,0,0,1-5.8,1.1,25.12,25.12,0,0,0,.4,2.7c1.4-.2,2.8-.4,4.3-.5-.2-.6-.5-1.1-.7-1.7,0,.1,0,.1-.1.2A17.1,17.1,0,0,0,96.7,31h-.2c.1,1,.3,1.9.4,2.9,2.4-.1,4.9-.2,7.3-.2a17.1,17.1,0,0,0-1.1-1.4h-2.8c-.2.6-.5,1.1-.7,1.7.8,0,1.6-.1,2.4-.1V31c.2.2.3.4.5.6-1.2,1,.1,2.8,1.4,2.5a18,18,0,0,1,6.1-.4c-.4-.7-.9-1.5-1.3-2.2-.3.4-.5.7-.8,1.1-1.1,1.6,1.5,3.1,2.6,1.5.3-.4.5-.7.8-1.1a1.47,1.47,0,0,0-1.3-2.2,22.75,22.75,0,0,0-6.9.5c.5.8,1,1.7,1.4,2.5,3.8-3.4-7.1-7.1-8.5-2.1a1.42,1.42,0,0,0,.4,1.4c1.9,1.6,4.1,1.4,6.4.7a1.53,1.53,0,0,0,0-2.9c-1.8-.5-3.1-.6-4.7.4a1.62,1.62,0,0,0-.7,1.7c1.2,3.9,8.6,3.5,8.6-.8a1.5,1.5,0,0,0-1.1-1.4c-1.9-.7-7.5-.3-6.4,3,.9,2.8,4.1,1.4,5.2-.2a1.36,1.36,0,0,0,0-1.5c-1.6-2.3-5.2-1.6-7.6-1.1-1.6.3-1.3,3,.4,2.9h.2a1.39,1.39,0,0,0,1.4-1.1c0-.1,0-.1.1-.2a1.62,1.62,0,0,0-.7-1.7c-2.1-1.6-5.2-.6-7.3.5a1.48,1.48,0,0,0,.4,2.7,9.71,9.71,0,0,0,8.1-1.4,1.52,1.52,0,0,0-.8-2.8c-2.1-.3-5.9-.2-6.5,2.5a1.62,1.62,0,0,0,.7,1.7c1.8,1.1,3.8.8,5.8.2a1.48,1.48,0,0,0-.4-2.9c-2.2-.3-4.3-.1-5.9,1.5a1.38,1.38,0,0,0-.2,1.8c1.5,2.6,4.9,1.3,7,0A1.48,1.48,0,0,0,98,32c-1.9-.5-3.8-.6-5.3.9a1.55,1.55,0,0,0-.4,1.4c1,3,7.2,3.2,8.3.2a1.24,1.24,0,0,0-.4-1.4c-1.6-1.3-3.7-1.4-5.8-1.3-1.5.1-2.2,2.6-.4,2.9,4.7.8,9.6.2,14.3,1.3,2.1.5,5.7,2.2,7.8.6,4.3-3.2-5.6-7-7.4-7.6a31.71,31.71,0,0,0-11.8-1.5c-2.7.2-7.4.5-9.3,2.8-3.4,4,4.3,5.3,6.8,4.4-.3-1-.5-1.9-.8-2.9-1.8.8-6.1,2.8-4.9,5.6,1.3,3.1,6.3.6,8.1-.4a1.52,1.52,0,0,0-.8-2.8c-2.1,0-7.9.9-6.7,4.3s7.2,1.1,9.2.1c1.4-.7.6-2.7-.8-2.8a8.12,8.12,0,0,0-4.8,1.1c-1.3.6-.7,3,.8,2.8,2.9-.4,5.2-1,7.5-2.9,1.1-.9.1-2.4-1.1-2.5a15.62,15.62,0,0,0-8.8,1.6c.5.9,1,1.7,1.5,2.6C95,37,97,37.2,99,39.1a23.35,23.35,0,0,1,.7-2.5c-6.6,1.5-12.6,2.5-17.9,7-5,4.3-9.8,8.8-12.2,15.1C69.4,60,71,61.3,72,60.6a9.9,9.9,0,0,0,3.3-4c.6-1.3-.7-2.8-2-2a4.54,4.54,0,0,0-2.1,2,1.48,1.48,0,0,0,2.3,1.8,5.68,5.68,0,0,0,2-3.4c.2-1-.7-2.3-1.8-1.8-2,.8-2.9,1.6-3.4,3.8A1.47,1.47,0,0,0,73,58.1,7.11,7.11,0,0,0,74.4,53a1.49,1.49,0,0,0-2.9-.4,23.47,23.47,0,0,0-1.3,4.3,1.51,1.51,0,0,0,2.9.8,33.62,33.62,0,0,0,1.8-7.6c.2-1.7-2.6-2-2.9-.4s-.8,3.2-1.3,4.8h2.9c-.6-3.2.6-5.6,2.1-8.3.8-1.4-1.2-3.1-2.3-1.8-4.4,5.1-5.3,12.4-5,19,.1,1.1,1.7,2.1,2.5,1.1,3.3-4.2,9.1-7.4,10.3-12.9a1.48,1.48,0,0,0-2.5-1.4A14.63,14.63,0,0,0,76.6,53c.9.4,1.8.8,2.7,1.1a14.27,14.27,0,0,0,.6-3.6c.2-1.6-2-1.9-2.8-.8-.9,1.3-1.7,2.6-2.6,3.9.9.4,1.8.8,2.7,1.1.9-2.3,1.8-4.7,2.6-7,.6-1.7-1.8-2.5-2.7-1.1-1.3,1.8-2.5,3.7-3.8,5.5.9.4,1.8.8,2.7,1.1l2.1-7.5a1.47,1.47,0,0,0-2.7-1.1,24.77,24.77,0,0,0-1.7,3.7c1,.3,1.9.5,2.9.8a27,27,0,0,1,4.1-9.9c.8-1.4-1.2-3.1-2.3-1.8-2.2,2.5-5,4.6-5,8a1.53,1.53,0,0,0,2.8.8c1.4-2.1,4.3-8.2,6.8-8.7-.6-.7-1.1-1.5-1.7-2.2a30.63,30.63,0,0,1-3.7,6.3c-1,1.3,1.2,3.1,2.3,1.8A8.14,8.14,0,0,1,82.7,41l-2-2c-1.1,2-2.3,3.9-3.4,5.9-.8,1.4,1.2,3.1,2.3,1.8a31.9,31.9,0,0,1,4.5-4.5c-.8-.5-1.7-1-2.5-1.4-.8,2.2-1.7,4.4-2.5,6.6C78.3,49,80.4,50,81.4,49a29,29,0,0,0,4.3-5.5c-.9-.5-1.7-1-2.6-1.5-1.2,2.2-2.4,4.4-3.6,6.7-.8,1.4,1.3,3.2,2.3,1.8a37.64,37.64,0,0,0,3.9-5.9,1.48,1.48,0,0,0-2.3-1.8,12.1,12.1,0,0,0-4.7,8.7c-.2,1.4,1.7,1.7,2.5,1.1a21.86,21.86,0,0,0,5.3-6.4c.9-1.4-1.2-3.1-2.3-1.8A26.06,26.06,0,0,0,80,50.6a1.48,1.48,0,0,0,2.3,1.8,24.34,24.34,0,0,0,5.9-7.6c-.9-.5-1.7-1-2.6-1.5-1.4,3-2.8,6-4.3,9-.8,1.7,1.7,3.2,2.6,1.5,2.3-4.7,6.1-7.6,10.4-10.3-.6-.8-1.2-1.6-1.8-2.3-8.2,7.2-16.2,14.6-23.9,22.2.8.5,1.7,1,2.5,1.4.2-.4.3-.9.5-1.3.7-1.7-2.1-2.5-2.8-.7Z" transform="translate(-67.71 -27.18)"/><path class="cls-2" d="M99,40.1c2.2,2.7,6.6,3.6,9.7,4.6a60.45,60.45,0,0,0,13.9,2.4.6.6,0,1,0,0-1.2,68.22,68.22,0,0,1-12-1.9c-3.3-.9-8.6-2-10.8-4.7-.4-.6-1.2.2-.8.8Z" transform="translate(-67.71 -27.18)"/><path class="cls-2" d="M70,52.2c3.7-11.5,12.7-21.1,24.9-23.4,12.4-2.3,28.7,4.7,32.1,17.7a.57.57,0,0,0,1.1-.3c-3.5-13-19.2-20.4-31.8-18.8-13.4,1.7-23.5,12-27.5,24.5-.2.7,1,1,1.2.3Z" transform="translate(-67.71 -27.18)"/><path class="cls-2" d="M115.9,90.6c-3.8,1-3.6,6.6.4,7.1.7.1,1.1-1,.3-1.1a2.44,2.44,0,0,1-.4-4.8c.7-.2.4-1.4-.3-1.2Z" transform="translate(-67.71 -27.18)"/><path class="cls-2" d="M115.8,97.1a3.31,3.31,0,0,0-3,3c-.2,2,1.3,3.5,3,4.3.7.3,1.3-.7.6-1a3.82,3.82,0,0,1-2.3-2.5,2.08,2.08,0,0,1,1.8-2.6c.6,0,.6-1.2-.1-1.2Z" transform="translate(-67.71 -27.18)"/><path class="cls-2" d="M115.9,104.1c-3.9-.3-4.5,7.2-.2,6.7.8-.1.8-1.3,0-1.2-2.8.3-2.1-4.5.2-4.4.8.2.8-1,0-1.1Z" transform="translate(-67.71 -27.18)"/><path class="cls-2" d="M115.7,110.3c-2.1-.1-3.1,2-2.7,3.8a3.79,3.79,0,0,0,4.1,2.8c.8-.1.4-1.2-.3-1.1a2.72,2.72,0,0,1-2.6-1.6c-.5-1.1-.1-2.7,1.4-2.6.9-.1.9-1.3.1-1.3Z" transform="translate(-67.71 -27.18)"/><path class="cls-2" d="M118.9,90.4c2.3.7.8,3.4-.3,4.4-.5.5.3,1.4.8.8a5.1,5.1,0,0,0,1.8-3.8,3,3,0,0,0-2-2.6c-.7-.2-1,1-.3,1.2Z" transform="translate(-67.71 -27.18)"/><path class="cls-2" d="M118.2,96.1a3.81,3.81,0,0,1,.5,6.6c-.6.5.2,1.3.8.8a5.07,5.07,0,0,0-.8-8.5c-.5-.3-1.1.7-.5,1.1Z" transform="translate(-67.71 -27.18)"/><path class="cls-2" d="M118.8,104.3a5.55,5.55,0,0,1,2.5,1.8c.7,1.2.3,3-1.3,2.8-.8-.1-.8,1.1,0,1.2a2.68,2.68,0,0,0,2.9-2.9c-.1-2-1.7-3.2-3.4-3.9-.8-.3-1.4.7-.7,1Z" transform="translate(-67.71 -27.18)"/><path class="cls-2" d="M119.1,110.8a3.15,3.15,0,0,1,1.7,5c-.4.6.6,1.2,1,.6a4.32,4.32,0,0,0-2.4-6.7.57.57,0,1,0-.3,1.1Z" transform="translate(-67.71 -27.18)"/><path class="cls-2" d="M116.4,117c-.3,1.3-.5,2.6-.8,3.8a.57.57,0,0,0,.4.7c1,.3,1.7-.4,2.2-1.2s.8-.9,1.4-.2a4.3,4.3,0,0,0,1,.9c.7.3,1.3-.7.6-1s-1.2-1.5-2.2-1.5a1.66,1.66,0,0,0-1.2.5c-.4.4-.9,1.7-1.6,1.6.1.2.3.5.4.7.3-1.3.5-2.6.8-3.8a.56.56,0,1,0-1-.5Z" transform="translate(-67.71 -27.18)"/><path class="cls-2" d="M119.4,116.2a10.55,10.55,0,0,0,1.6,4.6c.4.6,1.4,0,1-.6a9.74,9.74,0,0,1-1.5-4c0-.8-1.2-.8-1.1,0Z" transform="translate(-67.71 -27.18)"/><path class="cls-2" d="M70,66.4c10-8.3,20.7-16.2,29-26.5.5-.6-.4-1.4-.8-.8C90,49.3,79.3,57.2,69.2,65.6c-.7.4.2,1.3.8.8Z" transform="translate(-67.71 -27.18)"/><path class="cls-2" d="M69.8,66.2c-1.5-2.1-1.1-6.1-.8-8.6a29.47,29.47,0,0,1,1.9-8.3c.3-.7-.9-1-1.1-.3a30.63,30.63,0,0,0-2,9.9c-.1,2.4-.4,5.9,1.1,7.9.3.6,1.3,0,.9-.6Z" transform="translate(-67.71 -27.18)"/><path class="cls-2" d="M79.1,87.7a3.48,3.48,0,0,0-3.6,2.9,3,3,0,0,0,2.8,3.3.6.6,0,1,0,0-1.2,1.83,1.83,0,0,1-1.6-2.1A2.19,2.19,0,0,1,79.1,89c.7-.1.7-1.3,0-1.3Z" transform="translate(-67.71 -27.18)"/><path class="cls-2" d="M77.9,93a2.84,2.84,0,0,0-.1,5.5.57.57,0,0,0,.3-1.1,1.65,1.65,0,0,1,.1-3.2c.8-.2.4-1.4-.3-1.2Z" transform="translate(-67.71 -27.18)"/><path class="cls-2" d="M78,97.7c-1.3.6-2.6,1.6-2.7,3.1a2.51,2.51,0,0,0,2,2.7c.7.1,1.1-1,.3-1.1a1.43,1.43,0,0,1-1-2,3.09,3.09,0,0,1,2-1.7c.7-.3.1-1.3-.6-1Z" transform="translate(-67.71 -27.18)"/><path class="cls-2" d="M77.9,103a2.82,2.82,0,0,0-.3,5.6c.7.1,1.1-1,.3-1.1a1.66,1.66,0,0,1,0-3.3c.8-.1.8-1.3,0-1.2Z" transform="translate(-67.71 -27.18)"/><path class="cls-2" d="M78.2,108.1a3.64,3.64,0,0,0-3.4,3.3c-.1,1.9,2.4,2.8,3.9,3.1.7.1,1.1-1,.3-1.1a4.86,4.86,0,0,1-2.8-1.3c-.9-1.1.9-2.8,2-2.7.8,0,.8-1.2,0-1.3Z" transform="translate(-67.71 -27.18)"/><path class="cls-2" d="M78.9,114.1a3.13,3.13,0,0,0-3.6,2.5,3,3,0,0,0,3.1,3.2.6.6,0,1,0,0-1.2c-1,0-2.1-.9-1.9-1.9a1.87,1.87,0,0,1,2.1-1.4c.7.1,1-1.1.3-1.2Z" transform="translate(-67.71 -27.18)"/><path class="cls-2" d="M81.9,119.7c1.3.2,3,.1,3.2-1.6a4.67,4.67,0,0,0-2.6-4c-.7-.4-1.3.7-.6,1a4.3,4.3,0,0,1,1.9,2.1c.2.5.3,1.1-.3,1.3a5.65,5.65,0,0,1-1.3,0c-.7-.1-1,1-.3,1.2Z" transform="translate(-67.71 -27.18)"/><path class="cls-2" d="M82.1,114.9c1.4-.2,3.2-.6,3.3-2.3s-1.6-2.8-3.1-3.3c-.7-.3-1,.9-.3,1.1.9.3,2.2.9,2.2,2s-1.3,1.2-2.1,1.3-.8,1.3,0,1.2Z" transform="translate(-67.71 -27.18)"/><path class="cls-2" d="M81.9,110.4a3.67,3.67,0,0,0,.8-6.7.58.58,0,0,0-.6,1,2.53,2.53,0,0,1-.5,4.6.57.57,0,1,0,.3,1.1Z" transform="translate(-67.71 -27.18)"/><path class="cls-2" d="M82.2,104.5a2.63,2.63,0,0,0,2-2.7c0-1.5-1.2-2.7-2.3-3.6-.6-.5-1.4.4-.8.8a5.46,5.46,0,0,1,1.8,1.9c.4.9.2,2.1-.9,2.3a.66.66,0,0,0,.2,1.3Z" transform="translate(-67.71 -27.18)"/><path class="cls-2" d="M81.1,98.8a2.86,2.86,0,0,0,1.3-5.3c-.6-.4-1.2.6-.6,1a1.69,1.69,0,0,1-.7,3.1.6.6,0,0,0,0,1.2Z" transform="translate(-67.71 -27.18)"/><path class="cls-2" d="M81.7,94.3a3.52,3.52,0,0,0,2.4-2.2A2.22,2.22,0,0,0,83,89.6c-.7-.3-1.3.7-.6,1a1.07,1.07,0,0,1,.5,1.4,2.55,2.55,0,0,1-1.5,1.2c-.7.1-.4,1.3.3,1.1Z" transform="translate(-67.71 -27.18)"/><path class="cls-2" d="M79.4,88.8a5.79,5.79,0,0,1,2.5,1.5c.5.5,1.4-.3.8-.8a6.22,6.22,0,0,0-3-1.8c-.7-.3-1,.9-.3,1.1Z" transform="translate(-67.71 -27.18)"/><path class="cls-2" d="M115.6,91.8a23.29,23.29,0,0,1,3.4-2c.7-.3.1-1.4-.6-1a37.91,37.91,0,0,0-3.4,2c-.6.4,0,1.4.6,1Z" transform="translate(-67.71 -27.18)"/><path class="cls-2" d="M78.7,121h0a.68.68,0,0,0,.6-.4.66.66,0,0,0-.1-.6.91.91,0,0,0-.7-.3c-1,.2-1.1,1.9-1,2.7,0,.3.5.5.7.4a6.27,6.27,0,0,0,2.7-1.6c.5-.6-.3-1.4-.8-.8a4.47,4.47,0,0,1-2.2,1.3c.2.1.5.3.7.4v-.7c0-.1.1-.2.1-.3s.2-.2.1-.2a4.88,4.88,0,0,0-.7-.3v.1a.9.9,0,0,0-.1-.5v.1c.2-.1.4-.3.6-.4h-.1c-.5-.1-.5,1.1.2,1.1Z" transform="translate(-67.71 -27.18)"/><path class="cls-2" d="M80.6,120.8a6.36,6.36,0,0,0,2,2,.63.63,0,0,0,.9-.4,2.05,2.05,0,0,0-.5-1.7c-.3-.5-.9-.9-.8-1.6s-1.1-.8-1.2,0a2.35,2.35,0,0,0,.5,1.6c.3.4.9.9.8,1.4a3.55,3.55,0,0,0,.9-.4,4.1,4.1,0,0,1-1.6-1.6c-.4-.6-1.4,0-1,.7Z" transform="translate(-67.71 -27.18)"/><path class="cls-2" d="M78.4,88a1.61,1.61,0,0,1-1.3-2.3c.3-.7-.7-1.3-1-.6a2.82,2.82,0,0,0,2.3,4.1.6.6,0,0,0,0-1.2Z" transform="translate(-67.71 -27.18)"/><path class="cls-2" d="M120.4,90.3a4.42,4.42,0,0,0,.6-1.6c.1-.8-1.1-.8-1.2,0a1.78,1.78,0,0,1-.4,1c-.4.6.6,1.2,1,.6Z" transform="translate(-67.71 -27.18)"/><path class="cls-2" d="M122.2,46.8c2.2,4.8,4.3,9,9.1,11.7a.58.58,0,1,0,.6-1c-4.6-2.6-6.5-6.7-8.6-11.3-.4-.7-1.4-.1-1.1.6Z" transform="translate(-67.71 -27.18)"/><path class="cls-2" d="M123.7,46.5v-.2a.6.6,0,1,0-1.2,0v.2a.6.6,0,1,0,1.2,0Z" transform="translate(-67.71 -27.18)"/><path class="cls-2" d="M132.3,57.7c.3-4.5-2.1-9.8-4.7-13.4-.4-.6-1.5,0-1,.6,2.4,3.5,4.8,8.5,4.5,12.8,0,.7,1.2.7,1.2,0Z" transform="translate(-67.71 -27.18)"/><path class="cls-1" d="M80.1,97.9c0-.1.1-.2.1-.3-.6.3-1.2.7-1.8,1h.3a1.52,1.52,0,0,0,1.7-2.2v-.7c.3-1.4-1.5-2.6-2.5-1.4-.2.3-.5.5-.7.8l2.3.3c.8.7,1.4.5,1.9-.6-.8-.4-1.7-.7-2.5-1.1a3.59,3.59,0,0,0,1.4,3.2,1.48,1.48,0,0,0,2.5-.7c0-.2.1-.4.1-.6a1.47,1.47,0,0,0-2.7-1.1c-.2.3-2.7,5.2-2,5.2.4.7.9,1.5,1.3,2.2.3-.5.5-1,.8-1.5A1.48,1.48,0,0,0,78,98.6a2.86,2.86,0,0,0-1.3,2.8c.1.7,2.5,4.9,2.2,4.9-.3-.9-.5-1.8-.8-2.8-4.3,2.5.6,7.7,4.1,5.9,2-1,1.6-2.9,1.3-4.6-.5-2.4.5-3.9-1.9-5.8a1.48,1.48,0,0,0-2.5,1.1,37.08,37.08,0,0,0-.3,4.7c0,.6-.2,5.2-.4,5a11,11,0,0,1,.2,1.8c.3-.2.6-.5.9-.7-.7-.4-1.5-.9-2.2-1.3,0-.5-.6,1.1-.5,1.5a3.81,3.81,0,0,0,1,2c1.3,1.3,5.1,2,6.2.1s-.8-3.6-2.6-3.5a3.1,3.1,0,0,0-2.3,1.2c-1.6,2.4,1.2,2.7,1,5.1a17.1,17.1,0,0,1-1.1,1.4c.2,0,.3-.1.5-.1-.3-1-.5-1.9-.8-2.9-5.4,1.6.8,6.8,4.9,3.4H81.5a4.35,4.35,0,0,0,.7.6,1.49,1.49,0,0,0,2.1-2.1c-.6-.7-1.2-1.4-1.8-2-1.3-1.4-3.4.7-2.1,2.1.6.7,1.2,1.4,1.8,2l2.1-2.1a4.35,4.35,0,0,0-.7-.6,1.54,1.54,0,0,0-2.1,0c-.7.5-1.4,1.1-2,1.6a1.51,1.51,0,0,0-.8-2.9c-.2,0-.3.1-.5.1-.7.1-1,.8-1.1,1.4a1.27,1.27,0,0,1-.1.6,1.36,1.36,0,0,0,.7,1.3,2.81,2.81,0,0,0,4-1.5,4.24,4.24,0,0,0,.1-2.5c-.7-.9-1.3-1.9-2-2.8a2.19,2.19,0,0,0,.3-.5c0-.1.1-.8.1-1a1.49,1.49,0,0,0-2.2-1.3c-.8.6-1.5.9-1.9,1.8a1.49,1.49,0,0,0,.2,1.8c1.5,1.2,3.4.4,4.5-.9,2.2-2.7.9-7.7,1.3-10.9-.8.4-1.7.7-2.5,1.1,1,.8,0,1.6.1,2.6,0,.4.3.7.3,1a1.8,1.8,0,0,1,.2,1c.2.8,0,.9-.4.2a1.52,1.52,0,0,0-.8-2.8c-2.2.2-3.1,3.1-.7,3.9,5.2,1.6,1.4-6.2,1.8-6.5-.8-.6-1.6-1.2-2.3-1.8-.3.5-.5,1-.8,1.5a1.47,1.47,0,0,0,1.3,2.2c3.2,0,3.1-4.8,4.5-6.7-.9-.4-1.8-.8-2.7-1.1,0,.2-.1.4-.1.6a23.35,23.35,0,0,0,2.5-.7c-.2-.4-.3-.7-.5-1.1a1.5,1.5,0,0,0-2.5-1.1c-1.1,1-3.4,2.4-2.4,4.2a1.48,1.48,0,0,0,2.3.3c.2-.3.5-.5.7-.8-.8-.5-1.7-1-2.5-1.4a3.52,3.52,0,0,0,.3,3c.6-.7,1.1-1.5,1.7-2.2h-.3a1.57,1.57,0,0,0-1.8,1c0,.1-.1.2-.1.3a1.48,1.48,0,1,0,2.7,1.2Z" transform="translate(-67.71 -27.18)"/><path class="cls-1" d="M117.3,113.5c-.1-.1-.2-.1-.2-.2.1.1,0,.1-.1-.1.1.2-.1-.3,0,0h0c-.1.1-.1.1.1,0a1.46,1.46,0,0,0,.5-2,1.38,1.38,0,0,0-2-.5c-2.1.9-1.9,3.7-.4,5a1.54,1.54,0,0,0,2.1,0,1.57,1.57,0,0,0,0-2.2Z" transform="translate(-67.71 -27.18)"/><path class="cls-1" d="M116.8,106.3c-1.1,1-1.3,1.5-.7,1.5h0a1.51,1.51,0,0,0,1.8-1,1.43,1.43,0,0,0-1-1.8,2.35,2.35,0,0,0-2.4.5,2,2,0,0,0-.3,2.4,1.46,1.46,0,0,0,2,.5,1.54,1.54,0,0,0,.6-2.1Z" transform="translate(-67.71 -27.18)"/><path class="cls-1" d="M102.4,34.8c-1.3-.3-2.7.1-3,1.5a2.32,2.32,0,0,0,.4,1.8,4.35,4.35,0,0,0,.6.7c.1.1.1.2.2.2s0,0,0-.1v-.8a.1.1,0,0,1,.1-.1l.5-.5h1.1l.5.5v-.1a1.46,1.46,0,0,0-2.5,1.5,1.62,1.62,0,0,0,1.9.8,1.68,1.68,0,0,0,1.3-1.9,3,3,0,0,0-1-1.7c-.1-.1-.1-.2-.2-.2s0,0,0,.1v.4c-.3.2-.5.5-.8.7h.2a1.51,1.51,0,0,0,1.8-1,1.75,1.75,0,0,0-1.1-1.8Z" transform="translate(-67.71 -27.18)"/><path class="cls-1" d="M101.6,39.7a1.5,1.5,0,0,0,0-3,1.5,1.5,0,1,0,0,3Z" transform="translate(-67.71 -27.18)"/><path class="cls-1" d="M120.5,45.2a1.5,1.5,0,0,0,0-3,1.5,1.5,0,0,0,0,3Z" transform="translate(-67.71 -27.18)"/><path class="cls-1" d="M121.3,45.9a1.5,1.5,0,0,0,0-3,1.5,1.5,0,0,0,0,3Z" transform="translate(-67.71 -27.18)"/><path class="cls-1" d="M121.8,45.9a1.5,1.5,0,0,0,0-3,1.5,1.5,0,0,0,0,3Z" transform="translate(-67.71 -27.18)"/><path class="cls-3" d="M72,59c8.2-6.4,16.1-13.2,23.8-20.3.6-.5-.3-1.4-.8-.8C87.3,45,79.4,51.7,71.2,58.2c-.6.4.3,1.3.8.8Z" transform="translate(-67.71 -27.18)"/><path class="cls-3" d="M102.3,38.9c5.1,4.1,12.3,4.3,18.6,5.3.7.1,1.1-1,.3-1.1-5.9-1-13.2-1.1-18.1-5-.5-.5-1.4.3-.8.8Z" transform="translate(-67.71 -27.18)"/><path class="cls-3" d="M125.7,47.6a13.75,13.75,0,0,0,2.7,4.7c.5.6,1.3-.3.8-.8a11.77,11.77,0,0,1-2.4-4.2c-.2-.7-1.4-.4-1.1.3Z" transform="translate(-67.71 -27.18)"/><path class="cls-3" d="M71.6,59.7c3.1-10,6.8-20.8,17.1-25.3.7-.3.1-1.3-.6-1-10.6,4.7-14.5,15.7-17.6,26-.3.7.8,1,1.1.3Z" transform="translate(-67.71 -27.18)"/><path class="cls-3" d="M79.2,117.4a.82.82,0,0,1-.5-.5c-.3-.7-1.3-.1-1,.6a2.16,2.16,0,0,0,1.2,1.1c.7.2,1.1-1,.3-1.2Z" transform="translate(-67.71 -27.18)"/><path class="cls-3" d="M81.7,113.2c.1-.4.1-.8.2-1.2.1-.7-1-1.1-1.1-.3-.1.4-.1.8-.2,1.2-.2.7,1,1,1.1.3Z" transform="translate(-67.71 -27.18)"/><path class="cls-3" d="M78.7,107.1a.82.82,0,0,1-.1-1.2c.6-.5-.3-1.3-.8-.8a1.93,1.93,0,0,0,.3,3.1c.7.3,1.3-.7.6-1.1Z" transform="translate(-67.71 -27.18)"/><path class="cls-3" d="M81.7,103.3a3.12,3.12,0,0,0-.9-3.3c-.6-.5-1.4.3-.8.8a2,2,0,0,1,.6,2.1c-.2.8.9,1.1,1.1.4Z" transform="translate(-67.71 -27.18)"/><path class="cls-3" d="M79.2,96.7a2.34,2.34,0,0,1-.7-.7s-.2-.3-.2-.2h.2a1.52,1.52,0,0,0,1.1-.6c.4-.6-.6-1.2-1-.6,0,.1-.5.1-.7.2a1.21,1.21,0,0,0-.7.7c-.2.8.6,1.7,1.1,2.2s1.5-.5.9-1Z" transform="translate(-67.71 -27.18)"/><path class="cls-3" d="M79,91.5a2,2,0,0,1,1.7.1c.7.3,1.3-.7.6-1a3.34,3.34,0,0,0-2.6-.2c-.7.1-.4,1.3.3,1.1Z" transform="translate(-67.71 -27.18)"/><path class="cls-3" d="M118.1,114.1c-.6-.1-1.2-.3-1.8-.4-.1,0-.4-.2-.4,0,0-.2.6-.1.7-.1a.6.6,0,1,0,0-1.2,2,2,0,0,0-1.5.4,1.25,1.25,0,0,0-.4,1.3,2,2,0,0,0,1,.8c.7.2,1.3.3,2,.5.8,0,1.1-1.1.4-1.3Z" transform="translate(-67.71 -27.18)"/><path class="cls-3" d="M118.4,108.4a1.6,1.6,0,0,0,1.5-1.3,1.68,1.68,0,0,0-.9-1.8c-.7-.3-1.3.7-.6,1,.4.2.5.8,0,.8-.8.1-.8,1.3,0,1.3Z" transform="translate(-67.71 -27.18)"/><path class="cls-3" d="M116.9,100.7c-.4-.1-.5-.4-.4-.8.3-.7-.9-1-1.1-.3a1.75,1.75,0,0,0,1.3,2.2c.6.3.9-.9.2-1.1Z" transform="translate(-67.71 -27.18)"/><path class="cls-3" d="M117.4,94.7a6.07,6.07,0,0,0,1-.7c.6-.4,0-1.5-.6-1a6.07,6.07,0,0,0-1,.7.58.58,0,1,0,.6,1Z" transform="translate(-67.71 -27.18)"/></svg>