<svg id="Layer_1" data-name="Layer 1" xmlns="http://www.w3.org/2000/svg" viewBox="0 0 64.62 95.71"><defs><style>.cls-1{fill:#ed7a23;}.cls-2{fill:#603017;}.cls-3{fill:#211e1f;}.cls-4{fill:#eb8523;}</style></defs><title>Orange</title><path class="cls-1" d="M116.4,44.3a4.87,4.87,0,0,0,2.4,2.3c1.6.6,3.4-.4,4.9.4,1.7.9,3,3.4,4,5a33.33,33.33,0,0,1,2.5,5c.8,1.8,3.3.2,2.6-1.5a36.77,36.77,0,0,0-5.3-9,8.07,8.07,0,0,0-3.3-2.5c-1.5-.5-4.3.5-5.2-1.1a1.48,1.48,0,1,0-2.6,1.4Z" transform="translate(-68.31 -27.17)"/><path class="cls-1" d="M84.4,45.7a61.91,61.91,0,0,0-7,6.5c-1.2,1.2-3.6,3.3-4,5.1-.6,2.8,1.5,2.9,3.6,2-.2-.4-.3-.7-.5-1.1a7.72,7.72,0,0,0-1.9,1.7c-.4.5.1,1.4.7.9,1-.7,1.9-1.4,2.9-2.1-.2-.3-.5-.6-.7-.9,2.9-2.4,4.7-8.6,6.9-12.1,2-3.1,4.8-5.7,6.5-8.9,1.3-2.4.8-5.4-2.4-5.3.1.4.2.7.3,1.1a9,9,0,0,1,3-1.7c.5-.2.3-1.1-.3-1.1a5.87,5.87,0,0,0-2.3.4.62.62,0,0,0,.2,1.2c2.6.1,3.6.3,5.5,2.3a3.51,3.51,0,0,1,1.8,2c.2.4.3.8.5,1.2s.4.8.7,1c0,0,2.8,1.2,2.1.2l-.8.8a48.66,48.66,0,0,0,10.1,5.3c.7.3,1-.9.3-1.1a51.06,51.06,0,0,1-9.8-5.2c-.5-.3-1.2.3-.8.8l.1.1c.2.2.5.4.8.2l.2-.2a.57.57,0,0,0,0-1c-2.3-1.7-2.4-4.3-4.4-6-1.7-1.5-4.2-1.6-6.4-1.7.1.4.1.8.2,1.2l2-.3c-.1-.4-.2-.7-.3-1.1a9,9,0,0,0-3,1.7.59.59,0,0,0,.3,1.1c.1,1.7.1,3.4.2,5.1l-1.1,1.4a18.4,18.4,0,0,1-1.7,2.2A57.44,57.44,0,0,0,81.6,48c-1.7,2.9-4.4,6.9-4.8,10.4a.55.55,0,0,0,.3.5c.1,0,.2.1.3.1a.59.59,0,0,0,.7-.1l.2-.2c.5-.4-.2-1.3-.7-.9-1,.7-1.9,1.4-2.9,2.1.2.3.5.6.7.9.6-.5,1.1-1,1.7-1.5s.2-1.4-.5-1.1c-3.9,1.6,1.9-5.5,2.7-6.3,1.9-1.9,3.9-3.7,5.9-5.4.6-.4-.3-1.2-.8-.8Z" transform="translate(-68.31 -27.17)"/><path class="cls-1" d="M82,115a2.7,2.7,0,0,0,3.1-1,2.89,2.89,0,0,0-.3-3.2c-.5-.6-1.4.3-.8.8a1.43,1.43,0,0,1-1.5,2.3c-.9-.3-1.2.9-.5,1.1Z" transform="translate(-68.31 -27.17)"/><path class="cls-1" d="M79.3,116.6c-.2,1-.5,2-.7,3a1.43,1.43,0,0,0,1,1.8,1.51,1.51,0,0,0,1.8-1c.2-1,.5-2,.7-3a1.43,1.43,0,0,0-1-1.8,1.46,1.46,0,0,0-1.8,1Z" transform="translate(-68.31 -27.17)"/><path class="cls-1" d="M80.8,94.8c1.4-.2,2.9-.8,3.4-2.2a2.76,2.76,0,0,0-1.6-3.4,1.47,1.47,0,0,0-1.8,1,1.57,1.57,0,0,0,1,1.8c-.1-.1-.2-.1-.3-.2s-.1-.1-.1-.2v.1c0-.2.2-.2,0-.1.1-.1,0,0-.1,0,.2-.1-.1,0-.1.1h-.1c-.1,0-.5.1-.2.1a1.54,1.54,0,0,0-1.5,1.5,1.34,1.34,0,0,0,1.4,1.5Z" transform="translate(-68.31 -27.17)"/><path class="cls-1" d="M82.9,103.9a4.35,4.35,0,0,0-.6.7h.1a.37.37,0,0,0,.3-.1,3.55,3.55,0,0,0,.9-.4,2.06,2.06,0,0,0,.8-1.8,4.17,4.17,0,0,0-2.2-3.1c-1.6-1-3.1,1.6-1.5,2.6a2.65,2.65,0,0,1,.6.5s.2.2.1.3.3-.9.5-.8c-.2-.1-.9.3-1,.4a2.73,2.73,0,0,0-.9,1.2c-.5,1.6,2.4,2.4,2.9.5Z" transform="translate(-68.31 -27.17)"/><path class="cls-1" d="M80.5,105.2a4.25,4.25,0,0,0-.2,1.1,25.12,25.12,0,0,0,2.7-.4c-.2-.4-.4-.9-.6-1.3a1.51,1.51,0,0,0-2.9,0c-.1.4-.1.7-.2,1.1a25.12,25.12,0,0,0,2.7-.4c-.8-1.7-2.1-2.8-2-4.4a22.58,22.58,0,0,0,.4-2.9c-.1-2.8,1.7-5.8-1.5-7.4.1.8.2,1.6.3,2.3.8-.8,3.5-5.5.7-4.7-.6-.2-1.1-.5-1.7-.7,2.2,3.2,1.5,4.7,1.5,7.9,0,2.3-.8,4.6-.3,7,.4,1.8,2.7,1.1,2.9-.4.1-.5.1-.9.2-1.4-1,.1-1.9.3-2.9.4l.6,1.8c.9-.4,1.8-.8,2.7-1.1a13.74,13.74,0,0,1-1.5-5.6c-1,.1-1.9.3-2.9.4,1.1,3.5,2.7,8.2,2.1,11.3-.4,2.6-.9,4.6,2.5,5.4-.3-.7-.6-1.5-.9-2.2-.7,1.5-2.6,1.4-2.6,3.4s2.5,2,2.8,3.6a23.07,23.07,0,0,0,1.4-1.9c-1.2.1-2.6-.2-3.7.4a11,11,0,0,0-1.8-.2,5,5,0,0,0,.7.8c.9,1.1,2.5.1,2.5-1.1,0-.8-1.3-5.9-2.2-5.4a19.45,19.45,0,0,0-2-.5c.4.8.8,1.5,1.2,2.3.8,1.5,3.3.4,2.7-1.1-.4-1-.8-2.1-1.2-3.2-1.8-.8-2.1-.5-1.1,1,.4.9,1.7,1.6,2.5.7.2-.2.3-.4.5-.6,1.2-1.5-.9-3.6-2.1-2.1-.2.2-.3.4-.5.6a23.35,23.35,0,0,1,2.5.7,15.6,15.6,0,0,0-2-4.1,1.49,1.49,0,0,0-1.4-.4c-3.7,1-.8,6.1,0,8.2.9-.4,1.8-.8,2.7-1.1-.4-.8-.8-1.5-1.2-2.3a1.38,1.38,0,0,0-2-.5c-4.6,2.3.9,5.2.8,8,.8-.4,1.7-.7,2.5-1.1a5,5,0,0,0-.7-.8,1.51,1.51,0,0,0-1.8-.2c-1.5.8-3.1,2-2,3.9,1.2,2.1,5.4,1.3,7.2,1.3a1.48,1.48,0,0,0,1.4-1.9c-.2-1.2-1.5-1.5-1.7-2.4s.6-1,1.2-2.3a1.55,1.55,0,0,0-.9-2.2c-1.1-.3.5-2.4.5-2.8,0-1-.7-1.3-.9-2.4a20.83,20.83,0,0,1,0-2.5c-.2-2.3-1.5-4.8-2.2-7-.5-1.5-3.1-1.4-2.9.4a20.28,20.28,0,0,0,1.9,7.1c.7,1.5,3.2.4,2.7-1.1l-.6-1.8a1.48,1.48,0,0,0-2.9.4c-.1.5-.1.9-.2,1.4,1-.1,1.9-.3,2.9-.4-.3-1.3,1-3.6,1-5.2,0-.9-.1-2-.1-2.7a12.28,12.28,0,0,0-2.4-7.6,1.48,1.48,0,0,0-1.7-.7c-.2.1-.4.1-.6.2a1.28,1.28,0,0,0-1,1c-.3,1.1.3,3.6-.4,4.3a1.46,1.46,0,0,0,.3,2.3c.3.1-.7,3.7-.7,4.3s.7,1.2.7,1.6c0,.6-.5,1.1-.7,1.9-.7,3.3,1.6,3.3,2.8,5.8a1.48,1.48,0,0,0,2.7-.4c.1-.4.1-.7.2-1.1H79.4a3.08,3.08,0,0,0,.9,2c.7.9,2.4,1,2.7-.4a4.25,4.25,0,0,0,.2-1.1c.6-1.8-2.3-2.6-2.7-.8Z" transform="translate(-68.31 -27.17)"/><path class="cls-1" d="M78.7,51.8c7.7,0,7.7-11.9,0-11.9s-7.7,11.9,0,11.9Z" transform="translate(-68.31 -27.17)"/><path class="cls-1" d="M99.3,38.3A57.85,57.85,0,0,0,115,45.7c7.3,2.2,10.5-9.2,3.2-11.5A46.57,46.57,0,0,1,105.3,28c-2.7-1.8-6.6-.5-8.1,2.1a6.09,6.09,0,0,0,2.1,8.2Z" transform="translate(-68.31 -27.17)"/><path class="cls-1" d="M99.2,36.8c1,2.6,2.5,4.3,5.3,5a33.93,33.93,0,0,0,5.5.4c1.2,0,2.3,0,3.5.1h1.7a1.5,1.5,0,0,0,1.9-1,1.54,1.54,0,0,0-.8,2.8,10.87,10.87,0,0,0,3.4,1.3c2.8.5,2.9.1,4.4,2.7,1.8,3,2.9,5.4,5.6,7.7,1.2,1,3.4-.3,2.3-1.8a15.81,15.81,0,0,0-3.6-3.7c-1.1-.9-2.4.6-2.2,1.7a4.48,4.48,0,0,0,1.6,3,1.48,1.48,0,0,0,2.3-1.8c-1.5-2.5-3-4.9-4.6-7.4-1.1-1.7-3.6-4.3-3.5-6.3-.7.4-1.5.9-2.2,1.3a6,6,0,0,1,2.7,3.2c.8,1.7,3.4.2,2.6-1.5a7,7,0,0,0-1.5-2.3c-1.1-1.3-3.3.4-2.3,1.8A83.64,83.64,0,0,1,128,52.7c.9-.5,1.7-1,2.6-1.5-2.8-5.2-5.5-12-9.9-16-3.8-3.5-9.2-5.4-14.1-6.5-1.9-.4-2.7,2.5-.8,2.9,5.3,1.2,11.2,3.2,14.5,7.7,3,4,5.3,8.9,7.7,13.4.9,1.7,3.5.2,2.6-1.5a91.24,91.24,0,0,0-6.7-10.7c-.8.6-1.6,1.2-2.3,1.8.4.6.7,1.1,1.1,1.7.9-.5,1.7-1,2.6-1.5a9.46,9.46,0,0,0-3.7-4.2,1.44,1.44,0,0,0-2.2,1.3c-.1,2.5.5,3.3,2,5.1,2.5,3.1,4.4,6.7,6.5,10.1.8-.6,1.6-1.2,2.3-1.8a13,13,0,0,1-.8-1.7c-.7.6-1.5,1.1-2.2,1.7.8.9,1.7,1.8,2.5,2.7.8-.6,1.6-1.2,2.3-1.8a16.61,16.61,0,0,1-4.4-5.4c-.6-1.2-.8-3.2-1.8-4.3-1.8-2.2-5.5-1.1-7.8-2.4-.3.9-.5,1.8-.8,2.8a2.31,2.31,0,0,0,2.1-3.6c-.7-1.1-2-1.1-3.2-1.3-3.7-.6-12.1,1.6-14-3.3-.7-2.2-3.6-1.4-2.9.4Z" transform="translate(-68.31 -27.17)"/><path class="cls-1" d="M117,93.8c-.1,0-.2-.1-.3-.1s-.1,0,0,0c-.1,0-.1-.2,0,0s.2.3.2.5-.2.3.1.1l.1-.1c-.1.1.2-.1.2-.2a1.38,1.38,0,0,0,.5-2,1.39,1.39,0,0,0-2-.5,3.5,3.5,0,0,0-1.9,2.8,2.65,2.65,0,0,0,2.3,2.4,1.5,1.5,0,0,0,.8-2.9Z" transform="translate(-68.31 -27.17)"/><path class="cls-1" d="M118.2,113.8c-.2,2,1.1,3.7-.8,5.3.3.2.6.5.9.7a5.42,5.42,0,0,0,.6-2.5c-.4.1-.8.1-1.2.2a1.08,1.08,0,0,1,0,1.1c-.2.6.6.9,1,.6s.4-.7.7-.7c.6-.1,1.4,1,1.8,1.4.2-.3.4-.7.6-1a2.81,2.81,0,0,1-1.4-1c-.5-.6-1.4.3-.8.8a5,5,0,0,0,1.9,1.3c.6.2.9-.6.6-1-.6-.7-1.7-1.9-2.8-1.9-.9,0-.8.8-1.4,1.3.3.2.7.4,1,.6a2.48,2.48,0,0,0,0-1.7.62.62,0,0,0-1.2.2,4.06,4.06,0,0,1-.4,1.9.58.58,0,0,0,.9.7,4.07,4.07,0,0,0,1.5-2.5c.2-1.2-.4-2.4-.3-3.6a.61.61,0,0,0-1.2-.2Z" transform="translate(-68.31 -27.17)"/><path class="cls-1" d="M117,112.6c.5-1.1,1.9-1.5,1.9-2.9,0-.9-.8-1.2-1-1.9-.2-1.6,1.2-2.4,1.2-4,0-1.2-.9-2.1-1-3.3,0-.3,1.5-9.5-.8-8.2-.8.5-.9,2.2-.9,2.9s2.3,6.1,3.2,4.5c-.9-.4-1.8-.8-2.7-1.1-.4,2-.9,4.2-.1,6.2.6,1.4,3.8,3.9,2,.7a1.52,1.52,0,0,0-2.8.8c.1,3.6,1.6,6.3,3.7,9.2.9,1.3,3.2.6,2.7-1.1a3.51,3.51,0,0,0-2.8-2.9,1.52,1.52,0,0,0-1.9,1.4c.1,1.6.2,3.2.3,4.7.1,1.9,3.1,1.9,3,0-.1-1.6-.2-3.2-.3-4.7a23.07,23.07,0,0,1-1.9,1.4c.2.3.5.6.7.9.9-.4,1.8-.8,2.7-1.1-1.7-2.4-3.2-4.6-3.3-7.7-.9.3-1.8.5-2.8.8,1,1.9,3,5.8,5.7,2.7a3.56,3.56,0,0,0,.7-2.4c-.1-.6-.6-1-.9-1.5-1.3-2.4-2.6-3.3-1.9-6.3.4-1.6-1.9-2.7-2.7-1.1-.8,1.4-1.6,3.3-.3,4.7a2.49,2.49,0,0,0,3.7.2c1.9-1.8.3-3.8-.1-5.7-.5-2.3,1.4-4.7.3-6.9a1.36,1.36,0,0,0-1.3-.7c-3.8.5-4.3,2.5-4.1,5.8.2,2.4-1.3,3.6-.9,5.9.1.6.9,1,1,1.5.3,2-1,2.4-1,3.9a7.79,7.79,0,0,0,.4,2.1c.1.1.2.2.2.3.9.5,1,.7.2.7-.1,1.4-1.7,2.1-1.1,3.9a2.83,2.83,0,0,0,5.3.3c1.1-2.2-1.5-3.7-2.3-2Z" transform="translate(-68.31 -27.17)"/><path class="cls-1" d="M77.2,52.2l.6-1.8c-.9-.4-1.8-.8-2.7-1.1-.2.6-.5,1.2-.7,1.9,1,.1,1.9.3,2.9.4a6.15,6.15,0,0,0-.1-1.3,1.54,1.54,0,0,0-2.8-.8c-.9.8-1.7,1.6-2.6,2.4.7.6,1.5,1.1,2.2,1.7a54.1,54.1,0,0,1,2.1-7.9,1.47,1.47,0,0,0-2.7-1.1,22.69,22.69,0,0,0-3.3,9.1c-.4,2.6,1.1,7.5-.9,9.6.8.4,1.7.7,2.5,1.1-.2-3.8-.7-10.4,2.8-13-.7-.3-1.5-.6-2.2-.9,1.1,2.7-.8,8.2-1.3,11-.2,1.3,1.4,2.7,2.5,1.4a51.44,51.44,0,0,1,6.6-6.6c-.8-.6-1.6-1.2-2.3-1.8a9.22,9.22,0,0,1-2.2,2.6c-1.4,1.3.6,3.3,2.1,2.1a194.17,194.17,0,0,0,22-20.5,1.49,1.49,0,0,0-2.1-2.1c-6.2,6-12.3,13.1-20,17.2.7.6,1.5,1.1,2.2,1.7.4-.7.7-1.4,1.1-2,1-1.4-1.2-3.1-2.3-1.8-.7.7-1.4,1.3-2.1,2,.7.6,1.5,1.1,2.2,1.7.4-.7.8-1.3,1.2-2l-2-2a6.34,6.34,0,0,1-2.1,3c.8.4,1.7.7,2.5,1.1a1.42,1.42,0,0,0,.2-.6c-.8-.5-1.7-1-2.5-1.4-.4.7-.7,1.4-1.1,2.1.9.3,1.8.5,2.8.8V54.5a1.48,1.48,0,0,0-2.9-.4,8.23,8.23,0,0,0-.6,4.1c.1,1.3,2.1,2.2,2.8.8.2-.5.5-1,.7-1.6.6-1.4-1.1-3.2-2.3-1.8-.4.4-.7.8-1.1,1.2a23.35,23.35,0,0,1,2.5.7c-1.3-4.4,1.3-10.3,3-14.3a1.43,1.43,0,0,0-1-1.8c-.4-.1-.8-.2-1.1-.3a23.35,23.35,0,0,0,.7,2.5,53.24,53.24,0,0,1,4.7-4.8c1.2-1.1-.4-3.3-1.8-2.3-.9.6-1.8,1.3-2.7,1.9.5.9,1,1.7,1.5,2.6,2.3-1.7,4.7-3.4,7-5.1-.6-.8-1.2-1.6-1.8-2.3a14.23,14.23,0,0,1-4.7,3.1c.6.8,1.2,1.6,1.8,2.3A26.61,26.61,0,0,1,98,32.7c-.1-1-.3-1.9-.4-2.9a53.18,53.18,0,0,1-6.9,1.6l1.8,1.8c.4-1.5,7.9-1.6,8.9-1.6a1.5,1.5,0,0,0,0-3c-3.1,0-10.8,0-11.7,3.8a1.46,1.46,0,0,0,1.8,1.8,53.18,53.18,0,0,0,6.9-1.6c1.6-.5,1.3-3-.4-2.9a26.91,26.91,0,0,0-18.2,6.7c-1.4,1.2.4,3,1.8,2.3a17.75,17.75,0,0,0,5.3-3.6c1.2-1.1-.4-3.4-1.8-2.3-2.3,1.7-4.7,3.4-7,5.1-1.5,1.1-.1,3.7,1.5,2.6.9-.6,1.8-1.3,2.7-1.9-.6-.8-1.2-1.6-1.8-2.3-1.6,1.5-3.2,3.1-4.7,4.8a1.52,1.52,0,0,0,.7,2.5c.4.1.8.2,1.1.3-.3-.6-.7-1.2-1-1.8-1.8,4.4-4.4,11-3,15.9a1.55,1.55,0,0,0,2.5.7c.4-.4.7-.8,1.1-1.2-.8-.6-1.6-1.2-2.3-1.8-.2.5-.5,1-.7,1.6.9.3,1.8.5,2.8.8a5.28,5.28,0,0,1,.5-3.3c-1-.1-1.9-.3-2.9-.4v1.9a1.54,1.54,0,0,0,2.8.8,7.39,7.39,0,0,0,1.4-2.8,1.47,1.47,0,0,0-2.5-1.4,3.48,3.48,0,0,0-1.1,2.7,1.51,1.51,0,0,0,2.5,1.1,9,9,0,0,0,2.5-3.6c.5-1.2-.7-3-2-2a5.45,5.45,0,0,0-2.6,3.8c-.2,1.1,1.1,2.5,2.2,1.7a10.73,10.73,0,0,0,2.7-2.5c-.8-.6-1.6-1.2-2.3-1.8A7.76,7.76,0,0,0,76.8,55c-.5,1.3,1.1,2.3,2.2,1.7,8-4.2,14.2-11.5,20.6-17.6L97.5,37a194.17,194.17,0,0,1-22,20.5l2.1,2.1a16.38,16.38,0,0,0,2.7-3.2c1-1.5-1.1-2.8-2.3-1.8a51.44,51.44,0,0,0-6.6,6.6c.8.5,1.7,1,2.5,1.4.6-3.7,2.8-9,1.3-12.6a1.52,1.52,0,0,0-2.2-.9c-4.6,3.5-4.6,10.3-4.2,15.6a1.53,1.53,0,0,0,2.5,1.1c1.7-1.8,1.8-3.5,1.7-6-.2-4.9.4-8.9,2.9-13.2-.9-.4-1.8-.8-2.7-1.1a54.1,54.1,0,0,0-2.1,7.9,1.52,1.52,0,0,0,2.2,1.7A8.34,8.34,0,0,0,77,51.6c-.9-.3-1.8-.5-2.8-.8a6.15,6.15,0,0,0,.1,1.3,1.48,1.48,0,0,0,2.9.4c.2-.6.5-1.2.7-1.9.6-1.6-2-2.7-2.7-1.1a10.64,10.64,0,0,0-.9,2.5c-.5,1.3,2.4,2.1,2.9.2Z" transform="translate(-68.31 -27.17)"/><path class="cls-1" d="M86.1,49.3c.3-.3,1.5-1.2,2-1.6,1-.9,2-1.7,2.9-2.6l5.5-4.9c2.4-2.1,2.2-6.2,0-8.4a6.07,6.07,0,0,0-8.4,0C84,35.4,79,38.9,75.7,43.3c-1.9,2.6-.4,6.6,2.1,8.1,3.2,1.8,6.4.5,8.3-2.1Z" transform="translate(-68.31 -27.17)"/><path class="cls-2" d="M117.3,117.3c0,.4.1.9.1,1.3v.6c0,.1,0,.5.1.4s.3-.1.4-.2h-.1a.6.6,0,1,0,0,1.2c.6,0,.8-.5.8-1a19.42,19.42,0,0,0-.2-2.4c0-.6-1.2-.6-1.1.1Z" transform="translate(-68.31 -27.17)"/><path class="cls-3" d="M99.6,40.1c2.2,2.7,6.6,3.6,9.7,4.6a60.45,60.45,0,0,0,13.9,2.4.6.6,0,1,0,0-1.2,68.22,68.22,0,0,1-12-1.9c-3.3-.9-8.6-2-10.8-4.7-.4-.6-1.2.2-.8.8Z" transform="translate(-68.31 -27.17)"/><path class="cls-3" d="M70.6,52.2c3.7-11.5,12.7-21.1,24.9-23.4,12.4-2.3,28.7,4.7,32.1,17.7a.57.57,0,0,0,1.1-.3c-3.5-13-19.2-20.4-31.8-18.8-13.4,1.7-23.5,12-27.5,24.5-.2.7,1,1,1.2.3Z" transform="translate(-68.31 -27.17)"/><path class="cls-3" d="M116.5,90.6c-3.8,1-3.6,6.6.4,7.1.7.1,1.1-1,.3-1.1a2.44,2.44,0,0,1-.4-4.8c.7-.2.4-1.4-.3-1.2Z" transform="translate(-68.31 -27.17)"/><path class="cls-3" d="M116.4,97.1a3.31,3.31,0,0,0-3,3c-.2,2,1.3,3.5,3,4.3.7.3,1.3-.7.6-1a3.82,3.82,0,0,1-2.3-2.5,2.08,2.08,0,0,1,1.8-2.6c.6,0,.6-1.2-.1-1.2Z" transform="translate(-68.31 -27.17)"/><path class="cls-3" d="M116.5,104.1c-3.9-.3-4.5,7.2-.2,6.7.8-.1.8-1.3,0-1.2-2.8.3-2.1-4.5.2-4.4.8.2.8-1,0-1.1Z" transform="translate(-68.31 -27.17)"/><path class="cls-3" d="M116.3,110.3c-2.1-.1-3.1,2-2.7,3.8a3.79,3.79,0,0,0,4.1,2.8c.8-.1.4-1.2-.3-1.1a2.72,2.72,0,0,1-2.6-1.6c-.5-1.1-.1-2.7,1.4-2.6.9-.1.9-1.3.1-1.3Z" transform="translate(-68.31 -27.17)"/><path class="cls-3" d="M119.5,90.4c2.3.7.8,3.4-.3,4.4-.5.5.3,1.4.8.8a5.1,5.1,0,0,0,1.8-3.8,3,3,0,0,0-2-2.6c-.7-.2-1,1-.3,1.2Z" transform="translate(-68.31 -27.17)"/><path class="cls-3" d="M118.8,96.1a3.81,3.81,0,0,1,.5,6.6c-.6.5.2,1.3.8.8a5.07,5.07,0,0,0-.8-8.5c-.5-.3-1.1.7-.5,1.1Z" transform="translate(-68.31 -27.17)"/><path class="cls-3" d="M119.4,104.3a5.55,5.55,0,0,1,2.5,1.8c.7,1.2.3,3-1.3,2.8-.8-.1-.8,1.1,0,1.2a2.68,2.68,0,0,0,2.9-2.9c-.1-2-1.7-3.2-3.4-3.9-.8-.3-1.4.7-.7,1Z" transform="translate(-68.31 -27.17)"/><path class="cls-3" d="M119.7,110.8a3.15,3.15,0,0,1,1.7,5c-.4.6.6,1.2,1,.6a4.32,4.32,0,0,0-2.4-6.7.57.57,0,1,0-.3,1.1Z" transform="translate(-68.31 -27.17)"/><path class="cls-3" d="M117,117c-.3,1.3-.5,2.6-.8,3.8a.57.57,0,0,0,.4.7c1,.3,1.7-.4,2.2-1.2s.8-.9,1.4-.2a4.3,4.3,0,0,0,1,.9c.7.3,1.3-.7.6-1s-1.2-1.5-2.2-1.5a1.66,1.66,0,0,0-1.2.5c-.4.4-.9,1.7-1.6,1.6.1.2.3.5.4.7.3-1.3.5-2.6.8-3.8a.56.56,0,1,0-1-.5Z" transform="translate(-68.31 -27.17)"/><path class="cls-3" d="M120,116.2a10.55,10.55,0,0,0,1.6,4.6c.4.6,1.4,0,1-.6a9.74,9.74,0,0,1-1.5-4c0-.8-1.2-.8-1.1,0Z" transform="translate(-68.31 -27.17)"/><path class="cls-3" d="M70.6,66.4c10.1-8.3,20.8-16.2,29-26.5.5-.6-.4-1.4-.8-.8-8.2,10.2-18.9,18.1-29,26.5-.7.4.2,1.3.8.8Z" transform="translate(-68.31 -27.17)"/><path class="cls-3" d="M70.4,66.2c-1.5-2.1-1.1-6.1-.8-8.6a29.47,29.47,0,0,1,1.9-8.3c.3-.7-.9-1-1.1-.3a30.63,30.63,0,0,0-2,9.9c-.1,2.4-.4,5.9,1.1,7.9.3.6,1.3,0,.9-.6Z" transform="translate(-68.31 -27.17)"/><path class="cls-3" d="M79.7,87.7a3.48,3.48,0,0,0-3.6,2.9,3,3,0,0,0,2.8,3.3.6.6,0,1,0,0-1.2,1.83,1.83,0,0,1-1.6-2.1A2.19,2.19,0,0,1,79.7,89c.7-.1.7-1.3,0-1.3Z" transform="translate(-68.31 -27.17)"/><path class="cls-3" d="M78.5,93a2.84,2.84,0,0,0-.1,5.5.57.57,0,0,0,.3-1.1,1.65,1.65,0,0,1,.1-3.2c.8-.2.4-1.4-.3-1.2Z" transform="translate(-68.31 -27.17)"/><path class="cls-3" d="M78.6,97.7c-1.3.6-2.6,1.6-2.7,3.1a2.51,2.51,0,0,0,2,2.7c.7.1,1.1-1,.3-1.1a1.43,1.43,0,0,1-1-2,3.09,3.09,0,0,1,2-1.7c.7-.3.1-1.3-.6-1Z" transform="translate(-68.31 -27.17)"/><path class="cls-3" d="M78.5,103a2.82,2.82,0,0,0-.3,5.6c.7.1,1.1-1,.3-1.1a1.66,1.66,0,0,1,0-3.3c.8-.1.8-1.3,0-1.2Z" transform="translate(-68.31 -27.17)"/><path class="cls-3" d="M78.8,108.1a3.64,3.64,0,0,0-3.4,3.3c-.1,1.9,2.4,2.8,3.9,3.1.7.1,1.1-1,.3-1.1a4.86,4.86,0,0,1-2.8-1.3c-.9-1.1.9-2.8,2-2.7.8,0,.8-1.2,0-1.3Z" transform="translate(-68.31 -27.17)"/><path class="cls-3" d="M79.5,114.1a3.13,3.13,0,0,0-3.6,2.5,3,3,0,0,0,3.1,3.2.6.6,0,1,0,0-1.2c-1,0-2.1-.9-1.9-1.9a1.87,1.87,0,0,1,2.1-1.4c.7.1,1-1.1.3-1.2Z" transform="translate(-68.31 -27.17)"/><path class="cls-3" d="M82.5,119.7c1.3.2,3,.1,3.2-1.6a4.67,4.67,0,0,0-2.6-4c-.7-.4-1.3.7-.6,1a4.3,4.3,0,0,1,1.9,2.1c.2.5.3,1.1-.3,1.3a5.65,5.65,0,0,1-1.3,0c-.7-.1-1,1-.3,1.2Z" transform="translate(-68.31 -27.17)"/><path class="cls-3" d="M82.7,114.9c1.4-.2,3.2-.6,3.3-2.3s-1.6-2.8-3.1-3.3c-.7-.3-1,.9-.3,1.1.9.3,2.2.9,2.2,2s-1.3,1.2-2.1,1.3-.8,1.3,0,1.2Z" transform="translate(-68.31 -27.17)"/><path class="cls-3" d="M82.5,110.4a3.67,3.67,0,0,0,.8-6.7.58.58,0,0,0-.6,1,2.53,2.53,0,0,1-.5,4.6.57.57,0,1,0,.3,1.1Z" transform="translate(-68.31 -27.17)"/><path class="cls-3" d="M82.8,104.5a2.63,2.63,0,0,0,2-2.7c0-1.5-1.2-2.7-2.3-3.6-.6-.5-1.4.4-.8.8a5.46,5.46,0,0,1,1.8,1.9c.4.9.2,2.1-.9,2.3a.66.66,0,0,0,.2,1.3Z" transform="translate(-68.31 -27.17)"/><path class="cls-3" d="M81.7,98.8A2.86,2.86,0,0,0,83,93.5c-.6-.4-1.2.6-.6,1a1.69,1.69,0,0,1-.7,3.1.6.6,0,0,0,0,1.2Z" transform="translate(-68.31 -27.17)"/><path class="cls-3" d="M82.3,94.3a3.52,3.52,0,0,0,2.4-2.2,2.22,2.22,0,0,0-1.1-2.5c-.7-.3-1.3.7-.6,1a1.07,1.07,0,0,1,.5,1.4A2.55,2.55,0,0,1,82,93.2c-.7.1-.4,1.3.3,1.1Z" transform="translate(-68.31 -27.17)"/><path class="cls-3" d="M80,88.8a5.79,5.79,0,0,1,2.5,1.5c.5.5,1.4-.3.8-.8a6.22,6.22,0,0,0-3-1.8c-.7-.3-1,.9-.3,1.1Z" transform="translate(-68.31 -27.17)"/><path class="cls-3" d="M116.2,91.8a23.29,23.29,0,0,1,3.4-2c.7-.3.1-1.4-.6-1a37.91,37.91,0,0,0-3.4,2c-.6.4,0,1.4.6,1Z" transform="translate(-68.31 -27.17)"/><path class="cls-3" d="M79.3,121h0a.68.68,0,0,0,.6-.4.66.66,0,0,0-.1-.6.91.91,0,0,0-.7-.3c-1,.2-1.1,1.9-1,2.7,0,.3.5.5.7.4a6.27,6.27,0,0,0,2.7-1.6c.5-.6-.3-1.4-.8-.8a4.47,4.47,0,0,1-2.2,1.3c.2.1.5.3.7.4v-.7c0-.1.1-.2.1-.3s.2-.2.1-.2a4.88,4.88,0,0,0-.7-.3v.1a.9.9,0,0,0-.1-.5v.1c.2-.1.4-.3.6-.4h-.1c-.5-.1-.5,1.1.2,1.1Z" transform="translate(-68.31 -27.17)"/><path class="cls-3" d="M81.2,120.8a6.36,6.36,0,0,0,2,2,.63.63,0,0,0,.9-.4,2.05,2.05,0,0,0-.5-1.7c-.3-.5-.9-.9-.8-1.6s-1.1-.8-1.2,0a2.35,2.35,0,0,0,.5,1.6c.3.4.9.9.8,1.4a3.55,3.55,0,0,0,.9-.4,4.1,4.1,0,0,1-1.6-1.6c-.4-.6-1.4,0-1,.7Z" transform="translate(-68.31 -27.17)"/><path class="cls-3" d="M79,88a1.61,1.61,0,0,1-1.3-2.3c.3-.7-.7-1.3-1-.6A2.82,2.82,0,0,0,79,89.2.6.6,0,1,0,79,88Z" transform="translate(-68.31 -27.17)"/><path class="cls-3" d="M121,90.3a4.42,4.42,0,0,0,.6-1.6c.1-.8-1.1-.8-1.2,0a1.78,1.78,0,0,1-.4,1c-.4.6.6,1.2,1,.6Z" transform="translate(-68.31 -27.17)"/><path class="cls-3" d="M122.8,46.8c2.2,4.8,4.3,9,9.1,11.7a.58.58,0,1,0,.6-1c-4.6-2.6-6.5-6.7-8.6-11.3-.4-.7-1.4-.1-1.1.6Z" transform="translate(-68.31 -27.17)"/><path class="cls-3" d="M124.3,46.5v-.2a.6.6,0,1,0-1.2,0v.2a.6.6,0,1,0,1.2,0Z" transform="translate(-68.31 -27.17)"/><path class="cls-3" d="M132.9,57.7c.3-4.5-2.1-9.8-4.7-13.4-.4-.6-1.5,0-1,.6,2.4,3.5,4.8,8.5,4.5,12.8,0,.7,1.2.7,1.2,0Z" transform="translate(-68.31 -27.17)"/><path class="cls-4" d="M72.1,61.4c2.2-9.8,4.8-20.2,13.7-26.1.6-.4,0-1.5-.6-1-9.2,6.1-12,16.6-14.3,26.8-.1.7,1.1,1,1.2.3Z" transform="translate(-68.31 -27.17)"/><path class="cls-4" d="M72.4,61.8A153.51,153.51,0,0,0,92.7,41c.5-.6-.4-1.4-.8-.8A153.51,153.51,0,0,1,71.6,61c-.6.5.2,1.3.8.8Z" transform="translate(-68.31 -27.17)"/><path class="cls-4" d="M103.2,38.4a45.33,45.33,0,0,0,18.4,4.5.6.6,0,1,0,0-1.2,40.6,40.6,0,0,1-17.8-4.3c-.7-.3-1.3.7-.6,1Z" transform="translate(-68.31 -27.17)"/><path class="cls-4" d="M126.2,47.5c-.8,2.5,1.6,4.2,3,5.9.5.6,1.3-.3.8-.8-1.1-1.3-3.3-2.7-2.6-4.7.1-.8-1-1.1-1.2-.4Z" transform="translate(-68.31 -27.17)"/><path class="cls-4" d="M79.3,89.6a1.1,1.1,0,0,0-.8,1.5,1.17,1.17,0,0,0,1.5.5c.7-.3.1-1.3-.6-1,.1-.1.2,0,.2.2.8-.2.4-1.3-.3-1.2Z" transform="translate(-68.31 -27.17)"/><path class="cls-4" d="M80.3,111.9a2.34,2.34,0,0,1-1.2-.2c-.1-.1-.4-.4-.2-.5.6-.4,0-1.5-.6-1a1.45,1.45,0,0,0-.4,2,3,3,0,0,0,2.4,1c.8-.1.8-1.3,0-1.3Z" transform="translate(-68.31 -27.17)"/><path class="cls-4" d="M82.5,108a2.27,2.27,0,0,0-1.2-2.8c-.7-.3-1.3.7-.6,1a1.19,1.19,0,0,1,.7,1.5c-.3.7.9,1,1.1.3Z" transform="translate(-68.31 -27.17)"/><path class="cls-4" d="M79.8,101.3c-.3-.1-.4-.4,0-.5.7-.2.4-1.4-.3-1.1a1.45,1.45,0,0,0-.3,2.7c.7.2,1.3-.8.6-1.1Z" transform="translate(-68.31 -27.17)"/><path class="cls-4" d="M79.3,116.1a.9.9,0,0,0-.7,1,.92.92,0,0,0,1.1.7c.8-.1.8-1.3,0-1.2h-.1c.1.2.1.4.2.6l-.1.1c.7-.2.4-1.3-.4-1.2Z" transform="translate(-68.31 -27.17)"/><path class="cls-4" d="M118.1,114.2a.77.77,0,0,1-.8-.9c.2-.7-1-1.1-1.1-.3a2.05,2.05,0,0,0,2,2.4c.7,0,.7-1.2-.1-1.2Z" transform="translate(-68.31 -27.17)"/><path class="cls-4" d="M118.4,109.4a2.11,2.11,0,0,0,1.5-2.7c-.3-.7-1.4-.4-1.1.3a1,1,0,0,1-.7,1.3c-.7.1-.4,1.2.3,1.1Z" transform="translate(-68.31 -27.17)"/><path class="cls-4" d="M118.4,102.6a5.85,5.85,0,0,0,1.1-4.3c-.1-.8-1.3-.8-1.2,0a4.93,4.93,0,0,1-.9,3.7c-.5.6.6,1.2,1,.6Z" transform="translate(-68.31 -27.17)"/><path class="cls-4" d="M117.1,94.6c.2.1,0,.1,0,0s.1-.2.2-.2c.1-.2.4-.2.5-.3a2.19,2.19,0,0,0,1-.9.58.58,0,1,0-1-.6,2.41,2.41,0,0,1-.8.6,2.7,2.7,0,0,0-.8.7,1.29,1.29,0,0,0,.3,1.8c.7.4,1.2-.6.6-1.1Z" transform="translate(-68.31 -27.17)"/></svg>