<svg id="Layer_1" data-name="Layer 1" xmlns="http://www.w3.org/2000/svg" viewBox="0 0 14.03 22.34"><defs><style>.cls-1{fill:#ee8bba;}.cls-2{fill:none;stroke:#231f20;stroke-miterlimit:10;stroke-width:0.75px;}</style></defs><title>Woman_Symbol</title><path class="cls-1" d="M136.18,285.85a3.89,3.89,0,0,1,1.16-1.53,16.29,16.29,0,0,1,1.83-1.14c1.41-.78.15-2.94-1.26-2.16a16.5,16.5,0,0,0-2.28,1.47,5.92,5.92,0,0,0-1.61,2.08c-.72,1.43,1.43,2.7,2.16,1.26Z" transform="translate(-133.44 -279.94)"/><path class="cls-1" d="M145.22,285.47a1.25,1.25,0,0,0,0-2.5,1.25,1.25,0,0,0,0,2.5Z" transform="translate(-133.44 -279.94)"/><path class="cls-1" d="M146.45,283.88a4.77,4.77,0,0,0-3-3.07c-1.47-.57-3.32-1.06-4.78-.23a1.25,1.25,0,0,0,1.26,2.16c.63-.35,1.85.12,2.45.34a2.37,2.37,0,0,1,1.67,1.47,1.25,1.25,0,0,0,2.41-.66Z" transform="translate(-133.44 -279.94)"/><path class="cls-1" d="M144.52,285.55a13.28,13.28,0,0,1,0,3.06c-.07,1.61,2.43,1.61,2.5,0a15.63,15.63,0,0,0-.08-3.73c-.31-1.58-2.72-.91-2.41.66Z" transform="translate(-133.44 -279.94)"/><path class="cls-1" d="M143.84,289.7l.1-.09-.36.19a3.43,3.43,0,0,0-.71.52c-.28.28-.42.49-.84.49a1.25,1.25,0,0,0,0,2.5,3.54,3.54,0,0,0,2.5-1.11c.66-.62,1.51-.8,1.72-1.84a1.28,1.28,0,0,0-.87-1.54,1.26,1.26,0,0,0-1.54.87Z" transform="translate(-133.44 -279.94)"/><path class="cls-1" d="M133.59,285.76a6.34,6.34,0,0,0,3.06,6.78,1.25,1.25,0,0,0,1.26-2.16,3.75,3.75,0,0,1-1.91-4c.27-1.57-2.14-2.25-2.41-.66Z" transform="translate(-133.44 -279.94)"/><path class="cls-1" d="M136.82,292.83a10.12,10.12,0,0,0,2.7.94,6,6,0,0,0,2.75-.3l-1-.13.18.08c1.46.65,2.73-1.5,1.26-2.16-.9-.4-1.36,0-2.26.09a5.22,5.22,0,0,1-2.41-.67c-1.45-.67-2.72,1.48-1.26,2.16Z" transform="translate(-133.44 -279.94)"/><path class="cls-1" d="M145.48,283.49l-.1,0,.55.32.17.27a1.26,1.26,0,0,0-1.54-.87,1.28,1.28,0,0,0-.87,1.54,1.61,1.61,0,0,0,1.12,1.2,1.26,1.26,0,0,0,1.54-.87,1.28,1.28,0,0,0-.87-1.54Z" transform="translate(-133.44 -279.94)"/><path class="cls-1" d="M140.91,296.53l-.21-.95-1,.27a2,2,0,0,1,.23.86l1-.27a6.92,6.92,0,0,1-.42-1.56l-1,.27.16.7,1-.27-.2-.9-1,.13.11.35a.5.5,0,0,0,1-.27l-.15-.77-1,.27.13.33a.5.5,0,0,0,1-.27l-.08-.56-1,.13a3.18,3.18,0,0,1,.25.78c.13.53,1,.44,1-.13a3.5,3.5,0,0,1,0-.87l-1,.13.38,1.06c.18.5,1,.46,1-.13a4.4,4.4,0,0,1,0-1.23l-1,.13.09.84h1l-.13-1.12c-.07-.63-1.07-.64-1,0l.26,2.53,1-.13-.14-.91-1,.27a8.18,8.18,0,0,1,.15,1.85l1-.13-.21-1a.5.5,0,0,0-1,.13l0,1.93,1-.13a2.75,2.75,0,0,1-.2-1.06.5.5,0,0,0-1,0l-.09,1.44,1-.13a6.64,6.64,0,0,1-.17-1.61h-1l0,1,1-.13-.21-.9a.5.5,0,0,0-1,0v.4l1-.13a7.67,7.67,0,0,1-.18-1.34h-1c.14,1.41.51,2.79.63,4.2,0,.49.21,1.78.28.6.05-.9-.18-1.77-.07-2.68.08-.64-.92-.63-1,0-.12,1-.52,5.05,1.44,4.48a.5.5,0,0,0,.35-.35c.39-2-.43-4.25-.62-6.25-.06-.63-1-.65-1,0a14.33,14.33,0,0,0,.21,1.6c.11.57,1,.41,1-.13v-.4h-1a3.7,3.7,0,0,0,.25,1.17c.17.51,1,.46,1-.13l0-1c0-.64-1-.65-1,0a11.54,11.54,0,0,0,.21,1.87c.11.58,1,.4,1-.13l.09-1.44h-1a5,5,0,0,0,.23,1.32.5.5,0,0,0,1-.13l0-1.93-1,.13.21,1c.12.57,1,.42,1-.13a9.78,9.78,0,0,0-.19-2.11c-.12-.64-1.06-.36-1,.27l.14.91c.09.55,1,.43,1-.13l-.26-2.53h-1l.13,1.12c.07.63,1,.65,1,0,0-.4-.07-.71-.12-1.11-.08-.6-.93-.38-1,.13a4.4,4.4,0,0,0,0,1.23l1-.13-.38-1.06a.5.5,0,0,0-1,.13,3.5,3.5,0,0,0,0,.87l1-.13a3.18,3.18,0,0,0-.25-.78c-.19-.48-1-.48-1,.13,0,.29.06.53.11.82l1-.27-.13-.33a.5.5,0,0,0-1,.27l.15.77,1-.27-.11-.35c-.17-.51-1-.46-1,.13a3.2,3.2,0,0,0,.24,1.17.5.5,0,0,0,1-.27l-.16-.7c-.15-.64-1.06-.36-1,.27a6.92,6.92,0,0,0,.42,1.56.5.5,0,0,0,1-.27,2,2,0,0,0-.23-.86.5.5,0,0,0-1,.27l.21.95c.14.63,1.1.36,1-.27Z" transform="translate(-133.44 -279.94)"/><path class="cls-1" d="M141,299.55a.85.85,0,0,1,0-.53l-.3.23.08,0-.39-.05v.09l.48-.37h-.07l.35.15a.85.85,0,0,1-.13-.67l-.75.43c.08,0,.07.51.1.62a.67.67,0,0,0,.47.45,2.36,2.36,0,0,0,.83-.05,4.91,4.91,0,0,1,1.09-.07c.42,0,.56-.45.43-.75-.41-1-1.73-.29-2.45-.5a.5.5,0,0,0-.27,1,2.43,2.43,0,0,0,.94.07c.11,0,.85-.18.91,0l.43-.75a4.06,4.06,0,0,0-.9,0,3.05,3.05,0,0,1-.75.1l.23.3c-.18-.45-.05-1-.58-1.26a.51.51,0,0,0-.75.43c0,.56.14,1.51.85,1.52a.52.52,0,0,0,.48-.37c.2-.48-.19-1.35-.78-1.28s-.65,1.08-.51,1.57a.5.5,0,0,0,1-.27Z" transform="translate(-133.44 -279.94)"/><path class="cls-1" d="M141.75,298.57a.39.39,0,0,1-.31-.09l.05.39v-.06l-.35.35a2.13,2.13,0,0,1,.8.19v-1a.92.92,0,0,1-.45,0,.5.5,0,0,0-.39.91c.37.28.86.25,1.22.52l.25-.93a2.65,2.65,0,0,0-.54.06c-.46.09-.45.69-.12.91a.84.84,0,0,0,.59.15c.63-.07.65-1,0-1l-1,.06.13,1c.27,0,.54-.1.81-.11a1.59,1.59,0,0,0,.56,0c.4-.17.37-.57.31-.93s-.09-.74-.48-.89a1.7,1.7,0,0,0-1.33.2c-.57.29-.07,1.16.5.86a.76.76,0,0,1,.56-.1l-.3-.23a1.39,1.39,0,0,1,.09.57l.15-.35-.05.06.35-.15a5.5,5.5,0,0,0-1.44.13c-.56.08-.43,1,.13,1l1-.06v-1l-.09,0-.12.91a.86.86,0,0,1,.28,0,.5.5,0,0,0,.25-.93c-.37-.27-.86-.24-1.22-.52l-.39.91a2.44,2.44,0,0,0,1,0,.5.5,0,0,0,0-1,2.79,2.79,0,0,0-1.33-.19.49.49,0,0,0-.35.35c-.16.69.66,1,1.21,1a.5.5,0,0,0,0-1Z" transform="translate(-133.44 -279.94)"/><path class="cls-1" d="M139.45,299.14c-.44-.15-.94,0-1.37-.15l.3.23s-.27-.06-.08,0a1.47,1.47,0,0,0,.39,0,3.52,3.52,0,0,0,.83-.08l-.39-.91a2.57,2.57,0,0,1-1,.22v1a3.09,3.09,0,0,1,1.39,0c.6.24.86-.73.27-1a3.58,3.58,0,0,0-1.65,0c-.63.06-.66,1,0,1a3.85,3.85,0,0,0,1.5-.35c.54-.24.14-1-.39-.91s-.92-.1-1.34,0a.82.82,0,0,0-.57.84.87.87,0,0,0,.47.86c.44.18.92,0,1.37.15.61.21.87-.76.27-1Z" transform="translate(-133.44 -279.94)"/><ellipse class="cls-2" cx="7.02" cy="6.97" rx="6.64" ry="6.59"/><ellipse class="cls-2" cx="6.91" cy="7.06" rx="4.41" ry="4.38"/><line class="cls-2" x1="5.84" y1="13.75" x2="5.78" y2="18.38"/><line class="cls-2" x1="8" y1="13.81" x2="7.94" y2="18.44"/><line class="cls-2" x1="6.16" y1="18.22" x2="3.88" y2="18.19"/><line class="cls-2" x1="9.88" y1="18.31" x2="7.59" y2="18.28"/><line class="cls-2" x1="6.13" y1="19.94" x2="3.84" y2="19.91"/><line class="cls-2" x1="9.78" y1="20.03" x2="7.5" y2="20"/><line class="cls-2" x1="5.75" y1="20.13" x2="5.75" y2="22.06"/><line class="cls-2" x1="7.88" y1="20" x2="7.88" y2="22.09"/><line class="cls-2" x1="3.94" y1="17.84" x2="3.94" y2="20.25"/><line class="cls-2" x1="9.78" y1="17.97" x2="9.78" y2="20.38"/><line class="cls-2" x1="8.25" y1="21.97" x2="5.41" y2="21.97"/><path class="cls-1" d="M139.75,292.92l.19.67a.5.5,0,0,0,1-.27,1.8,1.8,0,0,0-.15-.38c-.27-.52-1-.15-.91.39a2.1,2.1,0,0,1,.06.5l.85-.35-.06-.07a.51.51,0,0,0-.91.12l0,.21c-.14.63.82.89,1,.27l0-.21-.91.12a.7.7,0,0,0,.22.27.51.51,0,0,0,.85-.35,3.34,3.34,0,0,0-.09-.77l-.91.39,0,.14,1-.27-.19-.67a.5.5,0,0,0-1,.27Z" transform="translate(-133.44 -279.94)"/><path class="cls-1" d="M140.76,293.44a2.39,2.39,0,0,0-.08-.55c-.18-.64-1.06-.35-1,.27l0,.31.91-.39-.1-.22c-.24-.56-1-.13-.91.39l.11.63c.1.55,1.06.43,1-.13l0-.29c-.08-.63-1.08-.64-1,0l0,.29,1-.13-.11-.63-.91.39.1.22c.24.57,1,.12.91-.39l0-.31-1,.27a.72.72,0,0,1,0,.29c0,.64,1,.64,1,0Z" transform="translate(-133.44 -279.94)"/><path class="cls-1" d="M140.38,292.57l-.11,0a.25.25,0,0,0-.32.24,3.28,3.28,0,0,1-.09.8l.42-.11v0a.25.25,0,0,0-.48,0l0,.14a.25.25,0,0,0,.37.28h0a.25.25,0,0,0,.09-.34v0a.25.25,0,0,0-.39-.05.79.79,0,0,0-.16.34l.49.07,0-1a.25.25,0,0,0-.5,0,5.91,5.91,0,0,0,0,.82l.49-.07v-.35c0-.31-.42-.45-.48-.13l0,.21.49.07,0-.14c0-.31-.5-.33-.5,0v.15a.25.25,0,0,0,.5,0v-.15a.25.25,0,0,0-.5,0v.17a.25.25,0,0,0,.5,0v-.17h-.5v.15h.5v-.15h-.5l0,.14c0,.25.43.37.49.07l0-.21-.48-.13a1.72,1.72,0,0,0,0,.62c.05.27.52.22.49-.07a5.91,5.91,0,0,1,0-.82h-.5l0,1a.25.25,0,0,0,.49.07.16.16,0,0,0,0-.12l-.39-.05v0l.09-.34h0l.37.28,0-.14h-.48a.45.45,0,0,0,.13.26.25.25,0,0,0,.42-.11,3.83,3.83,0,0,0,.11-.93l-.32.24.11,0a.25.25,0,0,0,.13-.48Z" transform="translate(-133.44 -279.94)"/><path class="cls-1" d="M140.66,293.31l0-.24-.49.07.14.52a.25.25,0,0,0,.49-.07l0-.54h-.5a5.27,5.27,0,0,0,.1.75.25.25,0,0,0,.49-.07l0-.64-.49.07a4.21,4.21,0,0,0,.19.66c.09.24.53.23.49-.07l-.08-.66-.49.07.11.7c0,.28.51.21.49-.07a7.41,7.41,0,0,0-.1-.87c-.06-.32-.53-.18-.48.13l.07.44c0,.29.47.2.49-.07l0-.44-.49.07a2.2,2.2,0,0,1,0,.42l.49-.07,0-.25-.49.07a.94.94,0,0,1,0,.32c0,.32.49.32.5,0a1.92,1.92,0,0,0,0-.45c-.05-.28-.49-.21-.49.07a1.63,1.63,0,0,0,0,.39c.05.28.49.21.49-.07a3.94,3.94,0,0,0,0-.56c0-.29-.47-.2-.49.07l0,.44.49-.07-.07-.44-.48.13a6.27,6.27,0,0,1,.08.73l.49-.07L141,293c0-.28-.52-.21-.49.07l.08.66.49-.07a4.21,4.21,0,0,1-.19-.66.25.25,0,0,0-.49.07l0,.64.49-.07a4.33,4.33,0,0,1-.08-.61.25.25,0,0,0-.5,0l0,.54.49-.07-.14-.52c-.07-.26-.52-.22-.49.07l0,.24c0,.32.53.32.5,0Z" transform="translate(-133.44 -279.94)"/></svg>