<?xml version="1.0" encoding="utf-8"?>
<!-- Generator: Adobe Illustrator 21.0.2, SVG Export Plug-In . SVG Version: 6.00 Build 0)  -->
<svg version="1.1" id="Layer_1" xmlns="http://www.w3.org/2000/svg" xmlns:xlink="http://www.w3.org/1999/xlink" x="0px" y="0px"
	 viewBox="0 0 200 600" style="enable-background:new 0 0 200 600;" xml:space="preserve">
<style type="text/css">
	.st0{fill:#1E1C1D;}
	.st1{fill:#231F20;}
</style>
<g>
	<g>
		<g>
			<g>
				<g>
					<path class="st0" d="M79.2,294.3c-0.5-1.1-0.9-2.2-1-3.4c-0.4-3-5.3-4.5-5.9-0.8c-1.2,7.1-3.2,14-6,20.7
						c-0.8,1.9,1.1,3.8,2.9,3.8c5,0,10,0,14.9-0.2c2.9-0.1,8.7,1,11.2-1c2.4-1.8,0.7-4.7,1.3-7.1c0.7-2.6,3.1-4.5,5.8-3.5
						c3.5,1.3,2.6,5.3,1.9,8.2c-0.6,2.3,1.4,4.2,3.7,3.7c8.5-1.9,8-11.6,7-18.5c-1.4-9.2-5.8-15.4-13.2-20.8
						c-2.4-1.8-5.7,1.7-4.1,4.1c4.2,6.4,6.3,13.6,8.4,20.8c1,3.7,6.7,2.2,5.8-1.6c-1.4-5.7-3.8-11.5-9.4-14.2
						c-5.4-2.6-11.5-1.2-16.6,1.2c-5.8,2.7-10.8,5.7-13.4,11.8c-1.3,3.1-2.1,6.2-4.6,8.7c-1.9,1.9-3.2,2.8-3.4,5.7
						c-0.3,3.9,5.6,3.8,6,0c0.2-2,0.3-4.1,0.2-6.1c-0.1-3.3-5-4.2-5.9-0.8c-0.1,0.5-0.3,1.1-0.4,1.6c2,0.3,3.9,0.5,5.9,0.8
						c-0.6-8.8-2-18.1-1.1-26.9c0.9-9,4.6-17.5,8-25.7c-1.4,0.4-2.7,0.7-4.1,1.1c9.1,6.1,23.7,5.4,34,4.3c2.7-0.3,5.4-0.7,8-1.2
						c2.2-0.4,6.8-2.6,8.9-2.2c-0.8-0.9-0.9-0.8-0.2,0.1c0.4,0.7,0.8,1.5,1.2,2.3c0.8,1.6,1.4,3.2,2.1,4.8c1.1,2.9,1.9,6,2.6,9
						c0.8,3.8,6.6,2.2,5.8-1.6c-1.3-5.8-3.2-11.6-6.1-16.8c-2.9-5.3-6.1-3.7-11.3-2.4c-6.9,1.7-13.9,2.5-21,2.5
						c-6.8-0.1-15.1-0.1-20.9-4c-1.2-0.8-3.5-0.4-4.1,1.1c-3.6,8.5-7.2,17-8.5,26.1c-1.4,9.7,0.1,19.7,0.8,29.5
						c0.2,3.2,5,4.2,5.9,0.8c0.1-0.5,0.3-1.1,0.4-1.6c-2-0.3-3.9-0.5-5.9-0.8c0.1,2.1,0,4.1-0.2,6.1c2,0,4,0,6,0
						c0-0.7,2.9-2.7,3.4-3.3c1-1.3,1.7-2.7,2.3-4.1c1.9-4.5,2.9-8,7.4-10.6c4.1-2.4,9.2-5.4,14.2-4.4c5.4,1.1,7.1,6.2,8.3,11
						c1.9-0.5,3.9-1.1,5.8-1.6c-2.2-7.8-4.5-15.5-9-22.3c-1.4,1.4-2.7,2.7-4.1,4.1c4.7,3.4,8.1,7.2,9.7,13c1,3.7,3.4,14.1-2,15.3
						c1.2,1.2,2.5,2.5,3.7,3.7c1.3-5.1,1.7-10.6-3-14.1c-3.6-2.6-8.6-2.8-12.2-0.2c-1.9,1.4-3.4,3.4-4.1,5.7
						c-0.3,0.9-1.4,6.1-0.2,6.7c1.4-2,1.4-2.9-0.2-2.6c-0.9,0-1.8,0-2.7,0.1c-1.9,0.1-3.7,0.1-5.6,0.1c-4.4,0.1-8.7,0.1-13.1,0.1
						c1,1.3,1.9,2.5,2.9,3.8c2.7-6.7,4.7-13.5,6-20.7c-2-0.3-3.9-0.5-5.9-0.8c0.2,1.8,0.5,3.3,1.2,5
						C74.8,299.5,80.6,297.9,79.2,294.3L79.2,294.3z"/>
				</g>
			</g>
			<g>
				<g>
					<path class="st0" d="M113,305.9c-0.3,0.4-0.5,0.8-0.8,1.3c-0.8,1.3-0.3,3.4,1.1,4.1c1.5,0.8,3.2,0.4,4.1-1.1
						c0.3-0.4,0.5-0.8,0.8-1.3c0.8-1.3,0.3-3.4-1.1-4.1C115.6,304.1,113.9,304.5,113,305.9L113,305.9z"/>
				</g>
			</g>
			<g>
				<g>
					<path class="st0" d="M111.6,307c-0.8,1.1-1.7,2.1-2.6,3c-1.7,1.8-0.6,5.2,2.1,5.1c2-0.1,4.8-0.7,6.7-0.3
						c-0.7-0.7-1.4-1.4-2.1-2.1c0,0.1,0,0.2,0.1,0.3c0.5-1.1,0.9-2.3,1.4-3.4c-0.1,0-0.1,0.1-0.2,0.1c-1.8,1.4-2.1,4.9,0.7,5.5
						c5.6,1.1,11.3,0.4,17,1c2.1,0.3,3.2-2.1,2.9-3.8c-1.1-6.7,0.2-13.6,0.2-20.3c0-3-0.2-6.1-0.5-9.1c-0.3-3.1-2.1-7.7-1-10.6
						c1.3-3.6-4.5-5.2-5.8-1.6c-1,2.9-0.2,5.5,0.3,8.5c0.7,4.3,1,8.6,1.1,12.9c0,7.4-1.1,14.6,0,21.9c1-1.3,1.9-2.5,2.9-3.8
						c-5.1-0.6-10.3,0.2-15.4-0.8c0.2,1.8,0.5,3.7,0.7,5.5c0.1,0,0.1-0.1,0.2-0.1c1.1-0.9,1.7-1.9,1.4-3.4c0-0.1,0-0.2-0.1-0.3
						c-0.2-1-1.1-1.9-2.1-2.1c-2.6-0.6-5.7,0-8.3,0.1c0.7,1.7,1.4,3.4,2.1,5.1c1.3-1.4,2.4-2.8,3.5-4.2
						C119.1,307,113.9,304,111.6,307L111.6,307z"/>
				</g>
			</g>
			<g>
				<g>
					<path class="st0" d="M79,284.9c-0.3,0.3-0.6,0.6-0.9,1c1.7,0.4,3.3,0.9,5,1.3c0.2-1.1,0.1-2.1-0.1-3.1c-1,0-2,0-3,0
						c-0.7,1.3-0.4,1.8,0.9,1.4c1,1.3,1.9,2.5,2.9,3.8c0.4-1.9,0.8-7.2,2.4-8.3c-1.5-0.6-2.9-1.2-4.4-1.8c0.6,2.7,0.4,4.9-0.8,7.4
						c1.6-0.2,3.1-0.4,4.7-0.6c-0.6-0.6,3.2-5.2,3.8-5.8c-1.7-0.7-3.4-1.4-5.1-2.1c0.3,2.8-0.1,5.1-1.6,7.6c1.8,0.8,3.7,1.5,5.5,2.3
						c0.4-2.7,1.3-4.7,3.5-6.3c-1.5-0.6-2.9-1.2-4.4-1.8c0.6,1.3,0.5,2.2-0.5,2.9c1.4,1.4,2.7,2.7,4.1,4.1c0.5-0.9,2.7-5,3.9-4.8
						c0.4,0.7,0.8,1.5,1.2,2.2c0.5-1.3,1.4-2.1,2.6-2.5c-1.5-0.6-2.9-1.2-4.4-1.8c-0.4,0.5-0.8,1.1-1.3,1.6c1.1,0.5,2.3,0.9,3.4,1.4
						c0.1-0.1,0.1-0.3,0.2-0.4c-1.3-1-2.5-1.9-3.8-2.9c-0.4,0.9-0.8,1.7-1.3,2.6c1.6,0.2,3.1,0.4,4.7,0.6c-0.1-0.4-0.2-0.7-0.3-1.1
						c-0.7-0.7-1.4-1.4-2.1-2.1c0.3,0.8-1.9,3.2-2.4,3.5c-1.9,1.5-3,0.7-4.9-0.3c-1.4-0.7-2.2-1.5-3.9-1.2c-4,0.7-6.2,8.2-7.8,11.2
						c1.6-0.2,3.1-0.4,4.7-0.6c-1.8-1.9-4.5-5-7.5-4c-3.6,1.3-3.6,7.6-4.3,10.6c1.9,0,3.9,0,5.8,0c-0.6-2-0.9-3.8-0.6-5.9
						c-2-0.3-3.9-0.5-5.9-0.8c-0.1,2.3-0.4,4.5-0.8,6.7c1.9,0,3.9,0,5.8,0c-0.3-1.3-0.2-2.6,0.3-3.8c-2-0.3-3.9-0.5-5.9-0.8
						c0.3,2.5,0.4,4.9,0.3,7.5c2,0,4,0,6,0c-1.1-10.7-0.7-21.5,1.7-32.1c0.7-3.3,1.4-6.3,4.8-7.5c2.9-1,5.8,0.3,8.6,1.2
						c5,1.6,9.9,2.1,15.2,1.6c5.2-0.4,10.5-2.2,15.7-2.1c3.1,0,2.7,1.3,3.2,4.2c0.5,3.1,0.9,6.2,1.3,9.4c1.3,11.1,2.1,22.3,3,33.4
						c0.3,3.9,5.5,3.8,6,0c1.5-11.5,1.4-23.4-2.7-34.3c-0.2-0.6-0.7-3.1-1.2-3.4c-3.1-0.6-4,0-2.8,1.8c0.4,0.6,0.6,1.3,0.8,2.1
						c0.9,3.3,0.5,6.7,0,10c-0.4,3-0.9,6-1.3,9c-0.2,1.1-1,11.8-4.8,7.6c-1,1.7-1.9,3.3-2.9,5c0.5,0.1,0.9,0.2,1.4,0.3
						c0.7-0.7,1.4-1.4,2.1-2.1c0.6,1.3,0.9,2.7,1,4.2c0.6-1.5,1.2-2.9,1.8-4.4c0.1,0,0.1,0,0.2,0c-0.4,1.7-0.9,3.3-1.3,5
						c0.2,0,0.3,0,0.5,0c1.2-1.2,2.5-2.5,3.7-3.7c-8.1-2.5-7.7-13.1-8.6-19.7c-0.5-3.6-1.1-7.2-1.8-10.7c-0.5-2.6-2.6-9.5,2.7-7.4
						c-0.7-0.7-1.4-1.4-2.1-2.1c2,4.9,2.1,11.5,3,16.7c0.5,2.9,0.9,5.8,1.4,8.8c0.2,1.2,0.1,2.9,0.6,4.1c-0.3,0.9,0,1.4,0.9,1.4
						c1,0.6,1.3,0.2,0.8-1.2c1-4-7.1-29.3-3.8-30.1c-0.5-1.9-1.1-3.9-1.6-5.8c-5.7,2-12.3,2-18.3,2.2c-3.1,0.1-6.3,0.1-9.4-0.2
						c-3.2-0.3-6.4-1.7-9.6-1.7c-4.4,0.1-5.8,3.4-6.4,7.2c-0.5,2.8-0.6,5.6-0.9,8.4c-0.2,1.4-0.8,9.5-2.1,10.2
						c1.5,0.9,3,1.7,4.5,2.6c0.5-4.2,1.3-8.5,2.3-12.6c0.8-3.4,1.8-6.1,5.6-6.4c2.2-0.2,4.6,0.8,6.7,1.2c3.7,0.7,7.5,1.3,11.3,1.6
						c1.5,0.1,4.1-0.3,5.3,0.3c1.7,0.2,2.4,1.2,2,3.1c0.1,1.3,0,2.6-0.2,3.9c1,0,2,0,3,0c-1.4-0.8-2.4-2.6-3.2-4
						c-2-3.4-6.7-0.4-5.2,3c1.4,3.3,4,8.4,7.9,9.4c3.2,0.8,5.9-1.7,5.6-4.8c-0.9-8.8-17-10.4-23.4-10.5c-2.3,0-6.8-0.6-8.4,1.2
						c-1.6,1.7,1.7,0.7,3.1,0.7c1.7-0.1,3.3-0.1,5-0.2c3.2-0.1,6.5-0.4,9.6,0.1c-0.1,0,4.2,1.2,3.2-0.3c-0.3-0.4-2.9-0.1-3.2-0.1
						c-3.4,0.3-6.4,2.4-6.5,6c-0.1,4.6,6.7,11.3,5.7,14.2c0.7-0.7,1.4-1.4,2.1-2.1c-4.1,1.1-7.8,0.8-11.3,3.6
						c-4,3.3-4.6,8.5-10.7,8.7c-1,0-2.1,0-3.1-0.1c-2.5-0.7-2.9-0.6-1.2,0.3c0.7,0.9,1.2,0.8,1.6-0.2c2.2-1.4,3.5-5.7,5.4-7.7
						c2.2-2.3,5-3.6,8-4.4c0.9-0.2,6.8-1.8,7.1-1.3c0-1,0-2,0-3c-0.5,1.2-3.2,2.4-4.4,3.2c-1.9,1.3-3.7,2.6-5.6,3.9
						c-1.6,1.1-3.2,2.2-4.8,3.3c-0.8,0.6-1.6,1.1-2.4,1.7c-2.2,0.9-2.1,1.4,0.1,1.5c0.3,1,0.5,1.9,0.8,2.9c1-3.6,7.2-7.4,9.9-9.6
						c1.9-1.6,3.5-3.1,2.4-5.7c-1.3-3-5.5-4.3-8.1-5.8c-2.3-1.3-3.8-2.4-4.5-4.9c-0.5-1.8-0.8-3.3-1.7-4.9c-0.8-1.4-2.7-1.9-4.1-1.1
						c-3.4,2.1-3.5,6.2-3.9,9.9c-0.8,5.9-1.2,11.8-3.9,17.3c-1.7,3.5,3.5,6.5,5.2,3c1.9-3.9,3-7.9,3.6-12.2c0.3-1.9,0.5-3.8,0.7-5.6
						c0.1-1.1,0.2-6.4,1.3-7.1c-1.4-0.4-2.7-0.7-4.1-1.1c1.2,2.1,1.1,4.7,2.4,6.8c1,1.7,2.6,3.1,4.3,4.2c1,0.7,2,1.2,3.1,1.7
						c0.5,0.2,0.9,0.5,1.4,0.7c0.8,1,1.5,1,2.2,0.2c0.3-0.2,0.5-0.4,0.8-0.6c-0.9,0.7-1.7,1.4-2.6,2.1c-1.3,1.1-2.5,2.2-3.8,3.3
						c-2.2,2.1-7.7,6.1-6.2,9.9c1.5,3.9,5.5,1.9,7.8,0.4c5.7-3.7,11.3-7.7,16.7-11.7c2.3-1.7,4.4-4.3,1.7-7c-3-2.9-8.7-1.1-12.2-0.3
						c-5,1.2-9.3,3.4-12.6,7.4c-1.9,2.4-3.5,5-5.2,7.5c-1,1.5-2.5,3.1-2.3,5c0.5,3.9,5.8,3.9,8.7,4c4.4,0.1,8.7-0.8,11.7-4.3
						c1.5-1.8,2.4-4.1,4.2-5.6c2.6-2.2,5.3-1.6,8.3-2.3c4.1-1,3.5-4.5,2.4-7.7c-0.9-2.6-2.2-4.8-3.3-7.3c-0.2-0.3-0.3-0.5-0.5-0.8
						c-1.3-2.1-1-3,1.1-2.5c1.2-0.4,3,0.2,4.3-0.3c2.9-1,4.6-4.1,3.1-7c-1.9-3.7-7.5-4.4-11.1-4.6c-3.5-0.2-7,0.1-10.5,0.2
						c-2.9,0.1-6.4-0.4-9.1,0.8c-3.6,1.6-4,6-1,8.4c2.2,1.8,4.9,1.3,7.6,1.1c3.3-0.2,6.7-0.4,10.1,0c1.4,0.1,2.8,0.4,4.1,0.7
						c2.4,0.5,4.7,2.2,7,2.6c0.9,0.2,3.2,3.3,3.7-0.4c0-0.4-3.5-5.3-3.9-6.3c-1.7,1-3.5,2-5.2,3c1.3,2.3,3.4,6.2,6.4,6.5
						c3.1,0.3,4.4-2.7,4.8-5.2c0.6-3.2,0.5-7.7-1.4-10.5c-2.1-3.1-5.7-2.8-9-3c-5.4-0.3-10.6-1.2-15.8-2.3
						c-3.7-0.8-7.3-1.5-10.7,0.8c-3.2,2.2-4.7,5.7-5.5,9.4c-1.1,4.7-2,9.5-2.5,14.2c-0.3,2.4,2.7,3.5,4.5,2.6
						c3.9-2.1,4.1-8.5,4.7-12.3c0.4-2.7,0.6-5.3,0.9-8c0.2-1.7,0.1-3.9,1.6-4.4c1-0.3,3.6,0.7,4.4,0.8c5.5,1,11.2,1,16.8,0.7
						c5.6-0.3,11.7-0.4,17.1-2.3c3.6-1.3,2.2-6.7-1.6-5.8c-6.8,1.6-5.5,9.3-4.5,14.5c0.7,4,1.9,7.9,2.8,11.9c1,4.4,0.4,8.9,1.2,13.2
						c0.9,4.3,5.5,6.8,8.5,2.9c2.1-2.8,1.7-6.3,1.3-9.5c-0.7-4.6-1.5-9.1-2.2-13.6c-0.7-4.4-0.9-9.4-2.2-13.6
						c-0.8-2.6-2.3-3.6-4.9-3.6c-2,0-5.5,0.2-7.1,1.7c-2,1.9-1.9,5.7-1.6,8.2c0.5,4.6,1.8,9.1,2.5,13.7c0.6,4.2,0.5,8.7,1.4,12.8
						c1.3,5.6,6.1,11.7,11.7,13.4c2.1,0.7,4.4-1.5,3.7-3.7c-1.1-3.5-4.2-5.4-7.8-4.2c-2,0.6-3.1,3.4-1.3,5c1.8,1.6,3.3,2,5.7,1.6
						c1.9-0.3,2.8-2.9,1.8-4.4c-1.9-3-5.9-5.7-9.6-4.1c-3.3,1.5-3.4,5.6-0.6,7.7c2.3,1.8,6.5,2,7.7-1.2c1.4-3.7-2.4-6.9-5.6-7.7
						c-3-0.7-4.9,2.8-2.9,5c2.1,2.4,5.2,3.6,8.4,2.6c3.9-1.2,5.2-4.7,5.8-8.4c1.4-9.2,4.9-20.9,0.8-29.8c-3-6.3-10.5-4.8-8.4,2.5
						c1.7,6.1,3.9,11.2,4.4,17.7c0.4,6.1,0.1,12.2-0.6,18.3c2,0,4,0,6,0c-1.2-14.2-2.1-28.5-4.3-42.5c-0.6-4.1-0.4-10.2-5.6-10.7
						c-6.9-0.7-14.3,2.1-21.2,2.5c-3.7,0.2-7.3-0.2-10.9-1.3c-2.9-0.9-5.6-2-8.7-2.1c-5.1-0.2-9.5,2.5-11.5,7.2
						c-2.2,5.1-2.8,11.3-3.4,16.8c-0.8,7.3-0.7,14.7,0,22c0.4,3.8,5.9,3.9,6,0c0.1-2.5,0-5-0.3-7.5c-0.4-3.2-4.9-4.3-5.9-0.8
						c-0.7,2.4-0.7,4.5-0.3,6.9c0.5,2.9,5.3,2.9,5.8,0c0.5-2.8,0.8-5.5,1-8.3c0.2-3.3-5.3-4.2-5.9-0.8c-0.5,3.2-0.4,6,0.6,9.1
						c0.9,2.7,5.1,3,5.8,0c0.6-2.4,0.8-5.6,1.9-7.8c-0.9,0.5-1.7,1-2.6,1.5c0.6-0.1,2.2,2.1,2.5,2.3c1.3,1.4,3.8,1,4.7-0.6
						c1.1-2,3.1-7.8,5-8.8c-1,0-2,0-3,0c3.8,1.7,5.6,4.5,10.3,2.7c3.4-1.3,7.9-6.2,7.9-10.1c0-3.8-4-4.9-6.9-3.3
						c-3.6,1.9-4,6.2-2.1,9.4c1,1.8,3.3,1.9,4.7,0.6c2.2-1.9,3-4,3-6.8c0-1.8-2-3.6-3.8-2.9c-4.1,1.6-5.5,5.2-3.8,9.2
						c0.5,1.2,2.2,1.7,3.4,1.4c4.2-1.4,6-4.7,5.4-9c-0.3-2.1-2.9-2.5-4.4-1.8c-3.5,1.6-6.6,5.7-5.5,9.8c1,3.8,5.5,4.8,7.9,1.6
						c2.2-3,2.8-9.6-1-11.6c-4.7-2.5-9.5,4.1-11.3,7.5c-1.3,2.4,1.5,6.1,4.1,4.1c3.1-2.4,4.6-5.8,3.2-9.6c-0.6-1.7-2.7-3-4.4-1.8
						c-3.5,2.5-5.7,5.6-6.3,9.9c-0.4,3.1,3.6,5.5,5.5,2.3c1.9-3.3,2.8-6.7,2.4-10.6c-0.2-2.5-3.1-4-5.1-2.1
						c-3.3,3.1-7.8,10.2-3.8,14.3c1.3,1.3,3.8,1.1,4.7-0.6c2-4,2.4-7.7,1.4-12c-0.4-1.8-2.8-2.9-4.4-1.8c-3.7,2.6-4.4,7.7-5.2,11.9
						c-0.4,1.8,0.8,3.9,2.9,3.8c5.7-0.2,6.9-10.3,2.1-12.6c-0.9-0.4-2.1-0.6-3,0c-3.2,2.2-3.2,6.4-2.6,9.9c0.3,2.2,3.6,2.9,5,1.3
						c0.3-0.3,0.6-0.6,0.9-1C85.8,286.3,81.6,282.1,79,284.9L79,284.9z"/>
				</g>
			</g>
			<g>
				<g>
					<path class="st0" d="M67.7,311c-0.6,0.6-1.2,1.1-1.8,1.7c-0.5,0.2-0.6,0.6-0.3,1c1.4,1.8,11.9-1.7,14-2.1c2.4-0.5,4.9-1,7.4-1
						c1.6-0.1,3.2,0,4.8,0.3c1.2,0.2,2.4,0.6,3.4,1.4c0.2,0.3,0.4,0.7,0.6,1c-1.3-1.8-1.9-3.9-1.8-6.1c0.1-0.9,0.2-1.9,0.3-2.8
						c0.3-2,1-4.3,2.5-5.7c3.2-3.1,10-3.6,14-2.9c5.5,0.9,10.2,4.6,5.7,10.1c-2.8,3.5-6.3,8.5-11.4,7.4c-0.1,0.4-0.1,0.8-0.2,1.2
						c2.1-0.2,4.2-0.5,6.3-0.7c0.9-0.1,1.8-0.2,2.7-0.3c2.2-0.3,2.4-0.3,0.6,0.1c-0.1,0.4-0.1,0.8-0.2,1.2c2.8,0.2,5.1-0.2,5.9-3.2
						c0.8-2.9,0.1-6.7,0.3-9.7c0.2-3.8,0.4-7.5,0.7-11.3c0.3-3.4,0.6-6.9,1.1-10.3c0.2-2,0.1-4.8,0.9-6.6c0.5-1.3,1.2-2.2,2.3-2.7
						c0.3-0.1,0.6-0.3,0.9-0.4c1.5-2.9,0.2-5.6-1.6-8.3c-0.3,0.2-0.6,0.5-0.9,0.7c1.2,1,2.1,2.2,2.6,3.8c0.2,0.6,1.2,0.6,1.2-0.2
						c0-0.5,0-0.9,0-1.4c-0.4,0.1-0.7,0.2-1.1,0.3c0.3,0.9,0.5,1.9,0.8,2.8c0.4-0.1,0.7-0.2,1.1-0.3c-1-1.9-1.1-4.1-1.9-6.1
						c-0.3-0.7-0.6-1.4-1-2.1c-0.3-0.5-2.1-3.1-0.6-1c0.3-0.2,0.6-0.5,0.9-0.7c-0.5-0.6-1-1.2-1.5-1.8c-0.3-0.4-0.9-0.1-1,0.3
						c0,0.2,0,0.4,0.1,0.5c-0.3,0.2-0.6,0.5-0.9,0.7c0.7,0.5,1.5,1,2.2,1.5c0.3,0.2,0.8,0,0.9-0.4c0.8-2.6,0.9-4.9,0.4-7.6
						c-0.4,0.2-0.7,0.3-1.1,0.5c2.2,4.1,3.8,8.3,4.9,12.9c0.2,0.8,1.3,0.4,1.2-0.3c-1.1-4.6-2.8-9-5-13.2c-0.3-0.6-1.2-0.2-1.1,0.5
						c0.4,1.7,1.6,7.2-1.7,5.1c-0.4-0.3-1.1,0.2-0.9,0.7c0.3,0.7,0.3,0.8,0.9,1.3c0.3,0.2,0.8,0,0.9-0.4c0.3-0.6,0.6-0.3,0.9,0.7
						c0.4,0.5,1.4-0.2,0.9-0.7c-0.9-1.2-1.5-1.6-3-1.8c-0.4-0.1-0.8,0.6-0.5,0.9c2.7,3.5,2.9,7.6,4.9,11.3c0.3,0.5,1.2,0.3,1.1-0.3
						c-0.2-2.1,0-1.5-1-3.4c-0.3-0.5-1.1-0.3-1.1,0.3c0,0.5,0,0.9,0,1.4c0.4-0.1,0.8-0.1,1.2-0.2c-0.7-1.8-1.5-3-2.9-4.3
						c-0.5-0.4-1.3,0.1-0.9,0.7c1.7,2.7,2.1,4.5,0.3,7.4c-0.5,0.8-1.2,0.9-1.7,1.9c-1.5,2.9-1.4,7.9-1.7,11c-0.6,5-1,10-1.2,15
						c-0.2,4.2,1.4,15.8-5.1,15.5c-0.7,0-0.8,1-0.2,1.2c2,0.6,3.2-0.2,3.9-2.1c0.1-0.3-0.2-0.8-0.6-0.8c-4.2,0.5-8.4,1-12.5,1.5
						c-0.6,0.1-0.9,1-0.2,1.2c3.4,0.7,6-0.7,8.4-3c1.7-1.6,3.2-3.6,4.7-5.4c0.8-1,2.6-2.4,2.8-3.8c0.6-6.1-9.7-8.1-13.8-7.9
						c-7.7,0.4-13.1,3.2-13.9,11.2c-0.2,1.9-0.5,6.3,1.4,7.7c0.7,0.5,1.5,1.1,2,0c0.1-0.3,0.1-0.6-0.2-0.8c-0.1-0.1-0.2-0.1-0.3-0.2
						c-0.2-0.1-0.5-0.1-0.7,0.1c-0.1,0.1-0.1,0.1-0.2,0.2c-0.4,0.4,0,1.1,0.6,1c0.2,0,0.4-0.1,0.5-0.1c0.2-0.1,0.4-0.2,0.4-0.4
						c1.9-7.4-29.1,0-31.2,0.4c-0.4,0.1-0.6,0.7-0.3,1c0.6,0.5,0.7,0.6,1.4,0.4c0.2,0,0.4-0.2,0.4-0.4c0.4-1.4,1.3-1.1,2.1-3
						C69.2,310.6,68,310.3,67.7,311L67.7,311z"/>
				</g>
			</g>
			<g>
				<g>
					<path class="st0" d="M116.1,273.7c1.6,5.5,1.7,11.2,0,16.7c-0.7,2.3-1.9,4.5-2.8,6.7c-0.4,1.1-0.8,2.2-1.1,3.3
						c-0.1,2.9-1.6,4-4.6,3.6c-0.1-0.5-1.1-0.6-1.2,0c-0.1,0.9-0.3,1.8-0.4,2.6c0.4,0.1,0.8,0.1,1.2,0.2c-0.1-0.9-0.3-1.7-1.4-1.4
						c-0.3,0.1-0.5,0.4-0.4,0.7c0,0.1,0,0.2,0.1,0.3c0,0.3,0.3,0.4,0.6,0.4c0.1,0,0.2,0,0.3,0c0.3,0,0.6-0.3,0.6-0.6
						c0.3-3.7-2.2-6.1-5.8-6.3c0.1,0.4,0.1,0.8,0.2,1.2c1.7-1.1,3.1-0.3,4,2.2c2.6,0.9,3.4,2.3,2.2,4.1c-0.2,1.4-1.2,3-1.7,4.3
						c0.4,0,0.7-0.1,1.1-0.1c0.8,1.1,4.7-2.7,5-3c2.4-3,3.9-6.9,5.5-10.3c1.9-4.2,11-27.8,16-15.6c0.3,0.6,1.1,0.6,1.2-0.2
						c0.2-3.1,0.2-6.2,0.1-9.3c-0.4,0.1-0.7,0.2-1.1,0.3c0.7,1.2,1.3,2.3,2,3.5c0.3,0.6,1.2,0.2,1.1-0.5c-0.1-0.6-0.3-1.2-0.4-1.8
						c-0.2-0.8-1.3-0.4-1.2,0.3c0.1,0.6,0.2,1.3,0.4,1.9c0.1,0.7,1.3,0.5,1.2-0.2c-0.1-0.9-0.2-1.8-0.3-2.7
						c-0.4,0.1-0.8,0.1-1.2,0.2c0.1,0.4,0.2,0.8,0.3,1.2c0.2,0.6,1.3,0.5,1.2-0.2c-0.1-0.5-0.1-0.9-0.2-1.4
						c-0.4,0.1-0.8,0.1-1.2,0.2c0.2,0.7,0.4,1.5,0.7,2.2c0.2,0.6,1.3,0.5,1.2-0.2c-0.1-0.7-0.2-1.3-0.3-2c-0.4,0.1-0.8,0.1-1.2,0.2
						c0.6,3.5,0.8,6.9,0.6,10.5c0,0.7,1,0.8,1.2,0.2c0.6-1.8,0.9-3.3,0.9-5.2c-0.4,0.1-0.8,0.1-1.2,0.2c0.4,3-1.5,0.3-2.5-0.3
						c-1.2-0.8-2.5-1.5-3.9-2c-2.6-1-5.3-1.5-8-1.6c-7.3-0.3-15.1,1.5-21.9,4c-6,2.2-12.3,5.5-16.8,10.2c-2.1,2.3-2.7,4.4-3.8,7.2
						c-1,2.7-2.8,3.9-4.5,6c-0.3,0.4-0.6,0.9-0.9,1.3c-0.9,2.8-2.9,2.6-6.2-0.8c-0.4-0.1-0.8-0.1-1.2-0.2c0.1,2.5-1,7.5,2,8.5
						c2.9,1,9.1-3.4,11-5c2-1.6,3.5-3.5,5.4-5.2c2.9-2.7,6.5-4.3,10.1-5.7c5-2,10-2.7,12.2,3.3c0.7,1.7,1.2,3.1,2.4,4.5
						c0.5,0.6,1.3-0.3,0.8-0.8c-2.4-2.8-2.2-7.5-5.8-9.2c-3.9-1.9-8.7,0.5-12.3,2.1c-4.2,1.8-7.3,4-10.5,7.2
						c-2.3,2.3-4.7,4.4-7.6,5.8c-2.1,1-4.6,2.7-6.4-0.5c-0.6-1-0.2-3.7-0.3-4.8c0-0.6-1.1-0.9-1.2-0.2c-0.6,3.7,1.3,9.3,5.9,5.7
						c1.1-0.8,1.2-1.6,1.8-2.7c1-1.5,2.2-2.9,3.4-4.3c2.8-3.3,2.9-7.4,5.7-10.8c5.5-6.8,15.6-10.7,23.9-12.7c10-2.4,21-3.4,29,4.2
						c0.3,0.3,0.9,0.2,1-0.3c0.4-2,0.4-1.5,0.1-3.4c-0.1-0.7-1.2-0.5-1.2,0.2c0.1,1.7-0.2,3.3-0.9,4.9c0.4,0.1,0.8,0.1,1.2,0.2
						c0.2-3.7,0-7.2-0.6-10.8c-0.1-0.7-1.3-0.5-1.2,0.2c0.1,0.7,0.2,1.3,0.3,2c0.4-0.1,0.8-0.1,1.2-0.2c-0.2-0.7-0.4-1.5-0.7-2.2
						c-0.2-0.6-1.3-0.5-1.2,0.2c0.1,0.5,0.1,0.9,0.2,1.4c0.4-0.1,0.8-0.1,1.2-0.2c-0.1-0.4-0.2-0.8-0.3-1.2
						c-0.2-0.6-1.3-0.5-1.2,0.2c0.1,0.9,0.2,1.8,0.3,2.7c0.4-0.1,0.8-0.1,1.2-0.2c-0.1-0.6-0.2-1.3-0.4-1.9
						c-0.4,0.1-0.8,0.2-1.2,0.3c0.1,0.6,0.3,1.2,0.4,1.8c0.4-0.2,0.7-0.3,1.1-0.5c-0.7-1.2-1.3-2.3-2-3.5c-0.3-0.5-1.1-0.3-1.1,0.3
						c0.1,3.1,0.1,6.2-0.1,9.3c0.4-0.1,0.8-0.1,1.2-0.2c-0.8-2.1-1.2-5.3-3.8-5.3c-3.2,0-6.4,4-7.9,6.4c-3.4,5.4-5.3,11.8-8.1,17.5
						c-1.2,2.5-2.5,6-4.6,7.9c-1.3,1.1-3.8,0.9-4.5,2.4c-0.1,0.2-0.1,0.4,0,0.6c0.1,0.1,0.2,0.2,0.3,0.4c0.3,0.4,0.9,0.4,1.1-0.1
						c1.2-2.9,4.1-7.5,2.1-10.7c-1.8-2.8-5.4-2.3-8.1-1.4c-0.6,0.2-0.5,1.2,0.2,1.2c1.6,1.9,3.3,3.7,4.9,5.6
						c0.1,0.6,1.1,0.9,1.2,0.2c0.1-0.9,0.3-1.8,0.4-2.6c-0.4,0-0.8,0-1.2,0c0.4,1.6,0.2,1.1,0.9,2.6c0.1,0.2,0.4,0.3,0.7,0.3
						c1.9-0.6,3.1-1.5,4.1-3.2c2-3.3,3.1-7.8,4.5-11.4c2.4-6.2,2.5-12.7,0.7-19.1C117,272.6,115.9,272.9,116.1,273.7L116.1,273.7z"
						/>
				</g>
			</g>
		</g>
		<g>
			<g>
				<path class="st0" d="M95,274.5c4.1,5.1,9,9.3,12.1,15.1c2.6,4.8,3.8,7.3,1.5,13.1c-0.1,0.2-1.8,3.8-1.7,3.9
					c0.2,0.1,0.2-1.5,0.2-1.4c0-0.6-0.8-0.8-1.1-0.3c-0.8,1.4-0.6,0.9-1,2.4c0.4,0,0.8,0,1.2,0c-0.1-0.5-0.2-1-0.4-1.5
					c-0.1-0.6-1-0.6-1.2,0c-0.1,0.6-0.2,1.1-0.3,1.7c0.4,0,0.8,0,1.2,0c-0.1-0.5-0.1-0.9-0.2-1.4c-0.1-0.7-1.1-0.5-1.2,0.2
					c0,0.4,0,0.7-0.1,1.1c0.4,0,0.8,0,1.2,0c0.3-4.5-1.6-6.4-6.1-6.2c0.1,0.4,0.1,0.8,0.2,1.2c3.5-1.2,8.2,0.3,7,5.8
					c-0.2,0.8-1.1,1.6-1.3,2.5c-0.9,3,0.5,0.8,1,2.1c-0.3-0.7-1.4-0.4-1.2,0.3c0,0,0,0.1,0,0.1c0.1,0.4,0.5,0.6,0.9,0.4
					c0,0,0.1-0.1,0.1-0.1c0.3-0.1,0.4-0.6,0.2-0.8c-1.5-2,3.8-6,1.6-9.2c-1.8-2.6-6-3.1-8.7-2.2c-0.6,0.2-0.6,1.2,0.2,1.2
					c2.1-0.1,5.1,2.8,4.9,5c0,0.8,1.2,0.8,1.2,0c0-0.4,0-0.7,0.1-1.1c-0.4,0.1-0.8,0.1-1.2,0.2c0.1,0.5,0.1,0.9,0.2,1.4
					c0.1,0.6,1.1,0.6,1.2,0c0.1-0.6,0.2-1.1,0.3-1.7c-0.4,0-0.8,0-1.2,0c0.1,0.5,0.2,1,0.4,1.5c0.1,0.6,1,0.6,1.2,0
					c0.3-0.7,0.6-1.4,0.9-2.1c-0.4-0.1-0.7-0.2-1.1-0.3c0,1.3-0.6,1.9,0.4,2.8c0.2,0.2,0.5,0.2,0.7,0.1c1.9-1,2.9-5.2,3.6-7.1
					c1-2.4,1.1-3.8,0.2-6.2c-3.3-8.7-9.4-14.1-15.1-21.2C95.3,273.1,94.5,273.9,95,274.5L95,274.5z"/>
			</g>
		</g>
		<g>
			<g>
				<path class="st0" d="M76.8,306.2c-2.2,2.2-4.1,4.1-7.6,4.1c-0.2,0-0.5,0.2-0.6,0.4c-0.8-0.2-1.6-0.4-2.4-0.6
					c-0.3-0.4-0.8-0.4-1,0c-0.3,0.5-0.6,0.9-0.9,1.4c0.4,0,0.7,0.1,1.1,0.1c-0.1-1.1-0.3-2.1-0.8-3c-0.3-0.7-1.3-0.4-1.2,0.3
					c0.5,2.3,1,4,1.9,6c0.2,0.3,0.7,0.4,0.9,0.1c6.6-7.9,12.7-18,23.2-21c5.5-1.6,13.2-2.4,16.1,3.4c1.2,2.5,1.9,5.5,2.1,8.3
					c0.1,1.9,0.6,4.4-1.1,5.6c-0.9,1.1-1.2,1-0.9-0.3c0-1,0-1.9,0-2.9c0-0.6-0.8-0.9-1.1-0.3c-0.5,1.1-0.5,1-0.2,2.2
					c0.2,0.7,1.4,0.4,1.2-0.3c0-0.4,0.1-0.8,0.1-1.3c-0.4-0.1-0.7-0.2-1.1-0.3c0,2,0,3.9-0.2,5.8c0,0.3,0.3,0.6,0.6,0.6
					c5.6-0.4,4.4-8.6,3.5-12.4c-0.6-2.5-1.5-7.4-3.4-9.2c-1.8-1.7-4.9-1.1-7.2-1.1c-7.7,0.1-14.1,2.6-19.8,7.7
					c-3.4,3.1-6.3,6.9-9.2,10.5c-0.3,0.4-2.9,3.7-2.7,3.7c-1.1-0.4-1.3-4.2-1.5-5.2c-0.4,0.1-0.8,0.2-1.2,0.3c0.5,0.9,0.7,2,0.8,3
					c0.1,0.5,0.8,0.5,1.1,0.1c0.6-1,1.5,0.7,2.1,0.7c1.3,0,0.9-0.3,2-0.7c3.2-1.2,5.6-2.5,8.1-5.1C78.2,306.5,77.4,305.6,76.8,306.2
					L76.8,306.2z"/>
			</g>
		</g>
	</g>
	<g>
		<g>
			<g>
				<g>
					<g>
						<path class="st1" d="M65.2,315.9c5.4-1,11-0.4,16.5-0.9c4.7-0.4,9.7-1.1,14.4-0.5c0.7,0.1,0.8-1.1,0.2-1.2
							c-0.2,0-0.4-0.1-0.5-0.1c-0.8-0.1-1.1,1-0.3,1.2c0.2,0,0.4,0.1,0.5,0.1c0.1-0.4,0.1-0.8,0.2-1.2c-5.3-0.6-10.9,0.2-16.1,0.7
							c-5,0.4-10.1-0.1-15.1,0.8C64.2,314.9,64.5,316.1,65.2,315.9L65.2,315.9z"/>
					</g>
				</g>
				<g>
					<g>
						<path class="st1" d="M65.5,315.2c-1.5-1.4-1-6.8-1.1-8.8c-0.1-2.8-0.3-5.5-0.4-8.3c-0.2-5.2-0.7-10.5-0.4-15.8
							c0.7-11.3,5-21.9,10.3-31.8c0.4-0.7-0.7-1.3-1-0.6c-5.6,10.3-10,21.5-10.5,33.3c-0.3,6.5,0.3,13,0.6,19.5
							c0.1,3.1,0.3,6.2,0.4,9.2c0.1,1.8-0.1,2.9,1.2,4.1C65.2,316.5,66.1,315.7,65.5,315.2L65.5,315.2z"/>
					</g>
				</g>
				<g>
					<g>
						<path class="st1" d="M97.8,313.6c-0.8-0.8-0.2-3.5-0.2-4.5c0-1.5,0.1-2.9,0.1-4.4c0-0.8-1.2-0.8-1.2,0
							c-0.1,2.1-0.1,4.2-0.2,6.2c0,1.3-0.3,2.6,0.6,3.6C97.5,315,98.4,314.2,97.8,313.6L97.8,313.6z"/>
					</g>
				</g>
			</g>
			<g>
				<g>
					<g>
						<path class="st1" d="M136.1,316c-5-0.9-10-0.3-15.1-0.8c-5.3-0.4-10.9-1.3-16.1-0.7c0.1,0.4,0.1,0.8,0.2,1.2
							c0.2,0,0.4-0.1,0.5-0.1c0.8-0.1,0.4-1.3-0.3-1.2c-0.2,0-0.4,0.1-0.5,0.1c-0.7,0.1-0.5,1.3,0.2,1.2c4.7-0.6,9.7,0.1,14.4,0.5
							c5.5,0.5,11.1-0.1,16.5,0.9C136.6,317.3,136.9,316.1,136.1,316L136.1,316z"/>
					</g>
				</g>
				<g>
					<g>
						<path class="st1" d="M136.4,317.2c1.1-1,1-1.7,1.2-3.1c0.3-3.4,0.3-6.8,0.5-10.2c0.3-6.5,0.9-13,0.6-19.5
							c-0.5-11.8-4.9-23-10.5-33.3c-0.4-0.7-1.4-0.1-1,0.6c5.3,9.9,9.6,20.5,10.3,31.8c0.3,4.9-0.1,9.9-0.3,14.9
							c-0.1,2.8-0.3,5.5-0.4,8.3c-0.1,2.2,0.4,8.2-1.1,9.7C135,316.9,135.8,317.7,136.4,317.2L136.4,317.2z"/>
					</g>
				</g>
				<g>
					<g>
						<path class="st1" d="M104.1,315.7c0.9-1,0.6-2.3,0.6-3.6c-0.1-2.1-0.1-4.2-0.2-6.2c0-0.8-1.2-0.8-1.2,0c0,1.5,0.1,2.9,0.1,4.4
							c0,1,0.5,3.8-0.2,4.5C102.7,315.4,103.5,316.2,104.1,315.7L104.1,315.7z"/>
					</g>
				</g>
			</g>
			<g>
				<g>
					<path class="st1" d="M97.8,306.1c-0.9-2.6,5.8-3.5,6.1,0.1c0.1,0.8,1.3,0.8,1.2,0c-0.2-2.6-2.3-3.5-4.6-3.5
						c-2,0-4.8,1.2-3.9,3.7C96.9,307.2,98,306.8,97.8,306.1L97.8,306.1z"/>
				</g>
			</g>
			<g>
				<g>
					<path class="st1" d="M72.6,250.4c8.5,3.4,17.4,5.2,26.5,5.3c4.1,0,8.2-0.3,12.3-1c2.3-0.4,4.6-0.9,6.8-1.5
						c0.6-0.2,8.1-2.7,7.8-1.2c-0.1,0.8,1,1.1,1.2,0.3c0.3-1.7-0.4-2.5-2.3-2.5c-1.8,0-4.4,1.5-6.2,2c-2.8,0.8-5.6,1.4-8.5,1.8
						c-12.6,1.9-25.5,0.3-37.3-4.4C72.2,249,71.9,250.1,72.6,250.4L72.6,250.4z"/>
				</g>
			</g>
		</g>
		<g>
			<g>
				<path class="st1" d="M68.7,268.8c7-0.6,14.4-3.8,15.6-11.5c0.1-0.8-1-1.1-1.2-0.3c-1.2,7.1-8,10.1-14.5,10.6
					C67.9,267.7,67.9,268.9,68.7,268.8L68.7,268.8z"/>
			</g>
		</g>
		<g>
			<g>
				<path class="st1" d="M98.7,259.7c0.7,2.9,1,5.9,1,8.9c0,2.4-0.5,4.7-0.4,7.1c0,0.8,1.2,0.8,1.2,0c-0.1-2.8,0.5-5.5,0.4-8.3
					c0-2.7-0.4-5.3-1-8C99.7,258.7,98.5,259,98.7,259.7L98.7,259.7z"/>
			</g>
		</g>
		<g>
			<g>
				<path class="st1" d="M132.7,267.6c-6.5-0.5-13.3-3.5-14.5-10.6c-0.1-0.8-1.3-0.4-1.2,0.3c1.3,7.7,8.6,10.9,15.6,11.5
					C133.5,268.9,133.5,267.7,132.7,267.6L132.7,267.6z"/>
			</g>
		</g>
		<g>
			<g>
				<path class="st1" d="M68.8,311.3c-0.6-1.1-0.4-2.8-0.6-4c-0.1-1.3-0.2-2.5-0.4-3.8c-0.1-0.8-1.3-0.8-1.2,0
					c0.2,1.7,0.3,3.4,0.5,5.1c0.1,1.1,0,2.4,0.6,3.4C68.1,312.6,69.2,312,68.8,311.3L68.8,311.3z"/>
			</g>
		</g>
		<g>
			<g>
				<path class="st1" d="M133.7,312.4c0.7-3.8,1.1-7.6,1.2-11.4c0-0.8-1.2-0.8-1.2,0c-0.1,3.7-0.4,7.4-1.1,11.1
					C132.4,312.8,133.6,313.1,133.7,312.4L133.7,312.4z"/>
			</g>
		</g>
		<g>
			<g>
				<path class="st1" d="M93.6,311.6c0.5-1.4,0.7-2.7,0.8-4.2c0.1-1.6-0.5-3.2-0.1-4.8c0.2-0.8-1-1.1-1.2-0.3
					c-0.3,1.3,0,2.5,0.1,3.9c0.1,1.8-0.2,3.5-0.8,5.1C92.2,312,93.4,312.4,93.6,311.6L93.6,311.6z"/>
			</g>
		</g>
		<g>
			<g>
				<path class="st1" d="M110.5,312.7c-2.2-3-2.4-6.7-2.6-10.3c0-0.8-1.2-0.8-1.2,0c0.1,3.8,0.4,7.7,2.7,10.9
					C109.9,313.9,111,313.3,110.5,312.7L110.5,312.7z"/>
			</g>
		</g>
		<g>
			<g>
				<path class="st1" d="M97.6,261.1c0.8,0,0.8-1.2,0-1.2C96.8,259.9,96.8,261.1,97.6,261.1L97.6,261.1z"/>
			</g>
		</g>
		<g>
			<g>
				<path class="st1" d="M98.2,261.2c0.1-0.5-0.1-0.9-0.5-1.1c0.1,0.2,0.2,0.5,0.3,0.7c-0.1-0.1-0.2-0.2-0.4-0.2
					c-0.7,0.4-0.1,1.4,0.6,1c0.6-0.3,0.8-1.2,0.2-1.7c-0.6-0.5-1.4-0.1-1.6,0.6c-0.1,0.3,0.1,0.5,0.3,0.7c0-0.1,0-0.1-0.1-0.2
					C96.8,261.6,98,261.9,98.2,261.2L98.2,261.2z"/>
			</g>
		</g>
	</g>
</g>
</svg>
