<?xml version="1.0" encoding="utf-8"?>
<!-- Generator: Adobe Illustrator 21.0.2, SVG Export Plug-In . SVG Version: 6.00 Build 0)  -->
<svg version="1.1" id="Layer_1" xmlns="http://www.w3.org/2000/svg" xmlns:xlink="http://www.w3.org/1999/xlink" x="0px" y="0px"
	 viewBox="0 0 200 600" style="enable-background:new 0 0 200 600;" xml:space="preserve">
<style type="text/css">
	.st0{fill:#9469AD;}
	.st1{fill:#8467AD;}
</style>
<g>
	<g>
		<g>
			<path class="st0" d="M75.7,154.8c-0.5-0.9-0.4-0.7,0.1-1.3c3.4-3.4,1.1-10.7-4.2-10.2c-2.5,0.2-4,0.8-5.8,2.5
				c-5.7,5.3,2.6,13.3,8.4,8.4c1.2-1,2.3-2,3.4-3.2c3.2-3.3,1.2-10.8-4.2-10.2c-3.4,0.4-6.2,1.5-7.6,4.8c-1.8,4.1,1.3,10.9,6.7,8.7
				c2.2-0.9,4.3-1.7,6.5-2.6c4.9-2,6.4-10.2,0-11.5c-1.7-0.3-3.1-0.4-4.7,0c-3.2,0.7-4.9,4.3-4.2,7.3c0.9,3.4,4.2,4.6,7.3,4.2
				c2.9-0.4,5.6,0.3,8.3,1.4c3.4,1.3,7.9-2.1,7.5-5.7c-0.5-4.8-3.4-7-8-7.2c-5-0.3-8.1,6.8-4.2,10.2c1.5,1.2,2.8,2.2,4.7,2.7
				c0.4,0.1,0.8,0.2,1.3,0.2c1.1,0.2,1.1,0.1-0.2-0.2c-0.9-0.6-1.1-0.5-0.8,0.1c0.2,0.6,0.3,1.1,0.4,1.7c1.6,7.5,13.1,4.3,11.5-3.2
				c-0.6-2.6-1.5-5.3-3.3-7.3c-1-1.1-1.9-1.9-3.4-2.4c-0.7-0.2-3.4-1.4-1.9-0.1c-1.4,3.4-2.8,6.8-4.2,10.2c0.5,0,1,0.1,1.5,0.1
				c-1.4-0.6-2.8-1.2-4.2-1.7c0.2,0.2,0.4,0.3,0.6,0.5c-0.6-1.4-1.2-2.8-1.7-4.2c0,0.2,0,0.5,0.1,0.7c2.5-1.9,5-3.8,7.5-5.7
				c-4.8-1.9-9.5-2.1-14.6-1.4c1.1,3.8,2.1,7.7,3.2,11.5c-0.5,0-1.1,0-1.6,0c0-3.8,0-7.7,0-11.5c-2.2,0.9-4.3,1.7-6.5,2.6
				c2.2,2.9,4.5,5.8,6.7,8.7c-0.9,0.4-1.8,0.7-2.6,1.1c-1.4-3.4-2.8-6.8-4.2-10.2c-1.1,1.1-2.2,2.1-3.4,3.2c2.8,2.8,5.6,5.6,8.4,8.4
				c0.2-0.2,0.5-0.4,0.7-0.6c-1.4,0.6-2.8,1.2-4.2,1.7c0.3,0,0.6-0.1,0.9-0.1c-1.4-3.4-2.8-6.8-4.2-10.2c-4.3,4.3-5.1,10.5-2,15.7
				C69.3,167.4,79.6,161.5,75.7,154.8L75.7,154.8z"/>
		</g>
	</g>
	<g>
		<g>
			<g id="XMLID_2_">
				<g>
					<path class="st0" d="M103.4,146.7c2.5-3.2,6.3-5.4,10.3-5.9c2.5-0.3,5-0.1,7.5,0.2c3.9,0.5,7.8,1.3,11.6,2.3
						c1.3,1.2,2.1,2.9,2.7,4.5c1.1,2.9,1.8,5.9,2.1,8.9l0,0c0.1,0.5,0.1,1.1,0,1.6c-0.4,5-3.6,9.8-8.2,11.9c0,0.2-0.1,0.4-0.1,0.6
						l-0.6-0.1c-2.2,14.1-3.6,28.3-4.2,42.6c-0.2,3.7-0.3,7.5,0.7,11.1l0.1,0c1.3,13.3,2.8,26.7,7.7,39.1l0,0.9
						c-3.7,2.6-8.3,3.3-12.8,4c-1.7,0.3-3.4,0.5-5.1,0.8c-2,0.3-3.9,0.6-5.9,0.7c-2,0.1-4.1,0-6.1-0.1c-2.7-0.1-5.4-0.3-8.1-0.4
						c-6-0.3-12.1-0.7-17.9-2.1c-3.4-0.8-6.6-2-9.8-3.6l0.1-0.2c4.8-12.4,6.4-25.8,7.7-39.1l0.1,0c1-3.6,0.9-7.4,0.7-11.1
						c-0.6-14.1-2-28.2-4.1-42.2l-0.6,0.1c-0.1-0.3-0.1-0.6-0.1-0.9c-4.6-2.1-7.8-6.9-8.2-11.9c0-0.5,0-1,0-1.4h0
						c0.3-3.1,1-6.1,2.1-9c0.6-1.7,1.4-3.3,2.7-4.5c3.8-1,7.7-1.8,11.6-2.3c2.5-0.3,5-0.6,7.5-0.2c4.3,0.6,8.3,3,10.7,6.6l0.1,0
						c1,1.1,1.8,2.3,2.4,3.7l0.2,0.1C101,149.5,102.1,148,103.4,146.7L103.4,146.7z"/>
				</g>
				<g>
				</g>
			</g>
			<g>
				<path class="st0" d="M80.2,162.8c-1.6-0.3-3-1.3-3.9-2.6c-1-1.3-1.7-2.7-2.3-4.2c-0.6-1.3-1.1-2.7-0.7-4c0.2-0.7,0.7-1.3,0.7-2
					c0-0.7-0.5-1.3-1-1.9s-0.7-1.4-0.3-2c1.8-0.4,3.7-0.4,5.6,0c1.1,0.2,2.2,0.6,3.2,0.1c-0.5-0.7-1.5-1-2.3-0.7"/>
			</g>
			<g>
				<path class="st0" d="M113.2,157c-0.2-1.5,0.6-3,1.7-4c2-2,4.8-2.9,7-4.6c0.7-0.5,1.3-1.1,2.1-1.5c0.3-0.1,0.6-0.3,0.9-0.1
					c0.3,0.1,0.3,0.6,0,0.7"/>
			</g>
			<g>
				<path class="st0" d="M85.4,256.6c-4.4,1.8-8.8,3.5-13.2,5.3c0.1,0.3,0.2,0.7,0.3,1c-0.9,0.2-1.7,0.3-2.6,0.5
					c1.1,0.9,2.4,1.5,3.8,1.7c-0.5,0.3-1.2,0.1-1.6-0.4c1.9,0.3,3.8,0.6,5.7,1c-0.9,0.3-2,0.5-3,0.4c2.4-0.4,4.8-0.2,7.1,0.7
					c-1,0.4-2.1,0.5-3.1,0.1c2.2-0.6,4.7-0.3,6.7,0.9c-1.2-0.1-2.4-0.2-3.6-0.3c2.7-0.8,5.7-0.7,8.3,0.3c-1.4-0.2-2.9-0.2-4.3-0.1
					c4.3,0.9,8.8,1.3,13.2,1.1c-1,0.4-2.2,0.6-3.2,0.4c2.6,0,5.2,0,7.9,0.1c-3.1-0.2-6.2,0-9.2,0.7c0.2-1.4,2.5-0.6,3.5-1.5
					c0.4-0.3,0.6-0.9,0.9-1.3c0.4-0.5,1-0.8,1.6-1c2.7-1,5.8-1,8.4,0.1c-1.5,1.4-3.5,2.2-5.5,2.3c1.7,0.7,3.7,0.8,5.4,0.1
					c-0.6,0.6-1.3,0.9-2.1,0.9c2.9-0.4,5.8-0.8,8.7-1.2c3.1-0.4,6.3-0.9,9.2-2c2.1-0.8,4.4-2,6.4-0.8c0.2-0.4-0.1-1-0.6-1
					c-0.1,0.5,0,1.1,0.2,1.6c0.9,0.1,1.1-1.5,0.2-1.7c-1.3,2-3.7,3.2-6,3.2s-4.7-1.2-6-3.2c-1-1.4-1.4-3.2-1.8-4.9
					c-2.1-10.4-1.4-21.2-2.3-31.8c-0.4-4.6-1-9.2-1.7-13.8c-0.8-5.4-1.5-10.9-2.3-16.3c1.9,10.8,3.8,21.9,9.2,31.5
					c0.2-2.5,0.5-5,0.7-7.4c0.7,1.4,1.3,2.8,1.7,4.3c0-0.7,0.1-1.4,0.1-2.1c0.2,0.6,0.3,1.2,0.5,1.8c-0.3-0.4-0.4-1-0.3-1.5
					c0.3-0.6,1.4-0.4,1.5,0.2c0.2,0.6-0.6,1.3-1.2,1c0.2,0.4,0.4,0.9,0.4,1.4c-0.2-0.7-0.4-1.5-0.6-2.2c1.2,2.6,0,6-2.5,7.3
					s-6,0.2-7.3-2.3c-1.3-2.5-0.3-6,2.1-7.4c2.5-1.4,6-0.5,7.5,1.9c0.3,0.5,0.5,1.1,0.4,1.7c-1-3.4-6.4-4.4-6.8-7.9"/>
			</g>
			<g>
				<path class="st0" d="M80.8,228.3c0-0.7,0.1-1.4,0.2-2c-0.5,0.2-0.8,0.7-1,1.2c-0.3-0.3-0.5-0.7-0.4-1.1
					c-0.1,0.3-0.4,0.6-0.8,0.7c0.1-0.7,0.1-1.5-0.2-2.1c-0.1,0.2-0.1,0.3-0.2,0.5c0.1-0.4-0.4-0.7-0.8-0.9c-0.4-0.2-0.8-0.6-0.6-0.9
					c0,0.4-0.2,0.9-0.5,1.2c0-0.4,0-0.8,0-1.1c-0.1,0.8-0.3,1.6-0.4,2.4c0.3-0.9,0.5-1.9,0.5-2.8c-0.3,0.6-0.5,1.2-0.5,1.8
					c0-0.2,0-0.5,0-0.7c0,0.1,0,0.3,0,0.4"/>
			</g>
			<g>
				<path class="st0" d="M122.5,229.7c-0.1-1.4-0.2-2.8-0.3-4.1c0.1,0.8,0.3,1.7,0.5,2.5c0.3-0.7,0.4-1.5,0.4-2.3
					c0,0.7,0.1,1.4,0.3,2.1c0.1-0.8,0.1-1.7-0.1-2.4c0,0.3,0,0.7,0,1c-0.2-0.6-0.2-1.2,0-1.8c0,0.4,0,0.8,0,1.3
					c0.2-0.3,0.3-0.6,0.1-1c0,0.5,0,1,0.1,1.5c0-0.3,0-0.6,0-0.9c0.1,0.6,0.1,1.3,0.2,1.9c0.2-0.6,0.2-1.2,0.1-1.7
					c0,0.4,0.1,0.7,0.1,1.1c-0.1-1.1-0.3-2.1-0.4-3.2c0.2,2.3,0.4,4.7,0.5,7.1"/>
			</g>
			<g>
				<path class="st0" d="M123.7,226.7c-0.1-0.4-0.1-0.9-0.2-1.3c0.2,0.7,0.3,1.4,0.3,2.1c0-0.7,0-1.4,0-2.1c0.2,0.3,0.2,0.7,0.1,1
					c-0.2-0.7-0.4-1.5-0.4-2.2"/>
			</g>
			<g>
				<g>
					<path class="st0" d="M72.2,152.9c1-1.5,1.9-3.1,2.9-4.6c0-0.8,0-1.5,0-2.3c0-0.3,0-0.6,0-0.9c0.1-0.8,0.2-1.6,0.3-2.3
						c-1-0.4-2-0.8-2.9-1.1c-0.2,0.7-0.4,1.5-0.6,2.2c0.5,0,1-0.1,1.5-0.1c-0.1-0.8-0.2-1.6-0.3-2.3c-0.9,0.1-1.9,0.1-2.8,0.2
						c0.1,0.8,0.2,1.6,0.3,2.3c1.7-0.5,3.5-0.7,5.2-0.6c1.1,0,1.7-1.7,0.6-2.2c-1.5-0.7-2.5-0.8-4.2-0.4c-1.3,0.3-1,2.4,0.3,2.3
						c2.3-0.1,4.6,0,6.9,0.3c1.5,0.2,1.4-1.9,0.3-2.3c-0.9-0.4-1.9-0.8-2.8-1.1c-0.1,0.8-0.2,1.6-0.3,2.3c2.2,0,4.1,0.3,6.2,1.1
						c0.8,0.3,1.8-0.6,1.5-1.5c-0.5-1.2-0.6-1.4-1.7-2.1c-0.4,0.7-0.8,1.4-1.2,2.1c3.5,2.2,5,8.2,7.3,11.6c1.8,2.7,3.8,5.4,6.2,7.5
						c6,5.3,10.3-1,15.4-4.7c3.6-2.6,7.4-5,11.7-6.2c2.4-0.7,5.4-0.7,7-3c3-4.5-2.9-6.5-6.4-6.2c-1.2,0.1-1.6,1.5-0.6,2.2
						c9.3,6.1-4.2,17-0.1,24.9c0.6-0.5,1.2-1,1.9-1.4c-3.7-3.3-8.5-4.9-13.5-4c-4.5,0.8-10.4,4.2-10.1,9.5c0.4,5.8,8,5.9,11.7,8.6
						c5.3,4,5.2,9.9,12.9,7.4c-0.5-0.4-1-0.8-1.5-1.1c0,1.7-0.1,3.4-0.1,5c0,0.8,0.8,1.4,1.5,1.1c2.2-0.7,2.2-2.4,2.5-4.5
						c0.8-5,1.5-10.1,2.2-15.1c0.2-1.2-1.5-2.2-2.2-0.9c-2.9,5.6-7.1,10.1-11.4,14.7c-2,2.1-4.1,4.2-6,6.4c-2.3,2.6-4.4,6.4-7.9,7.5
						c-3.1,1-9,0.6-11.4-1.7c-1.9-1.8-2.4-4.8-4-6.8c-0.9-1.2-2.1-2.4-3.5-2.9c-0.9-0.3-6.3,0.2-6.3,0.3c-0.3-0.9-1.6-1.2-2.2-0.3
						c-0.4,0.7-0.8,1.4-1.2,2c0.7,0.2,1.5,0.4,2.2,0.6c-0.3-5.3-0.7-10.5-1-15.8c-0.1-2.1,0.4-5.1-1.7-6.2c-0.8-0.4-1.8,0.1-1.8,1
						c0,1.8,0.2,3.4,0.5,5.2c0.2,1.5,2.5,0.9,2.3-0.6c-0.3-1.5-0.4-3-0.4-4.5c-0.6,0.3-1.2,0.7-1.8,1c1.1,0.5,0.9,8.6,1,10
						c0.2,3.3,0.4,6.6,0.6,9.9c0.1,1.1,1.6,1.7,2.2,0.6c0.4-0.7,0.8-1.4,1.2-2c-0.7-0.1-1.5-0.2-2.2-0.3c0.6,1.8,1.5,1.9,3.2,2.2
						c3.1,0.5,0.4-4.6,6.4,0.4c1.6,1.3,2.2,3.8,3.2,5.5c2.9,4.8,8.2,5.8,13.6,5c6.5-0.9,10.3-8.1,14.5-12.5
						c5.2-5.4,10.4-10.7,14-17.4c-0.7-0.3-1.5-0.6-2.2-0.9c-0.5,3.1-0.9,6.3-1.4,9.4c-0.2,1.4-0.3,8.1-1.7,8.5
						c0.5,0.4,1,0.8,1.5,1.1c0-1.7,0.1-3.4,0.1-5c0-0.7-0.8-1.4-1.5-1.1c-4.8,1.6-6.6-3.4-9.5-6c-1.8-1.6-3.9-2.8-6.1-3.7
						c-2.9-1.2-8.9-1.6-4.3-7.9c1.1-1.6,3.6-2.5,5.4-3c4.5-1.2,9.1,0.1,12.5,3.2c1,0.9,2.5-0.2,1.9-1.4c-2.1-4.1,1-7.4,2.4-10.8
						c0.8-2.1,1.1-4.2,1-6.5c-0.1-3.9-0.8-6.3-4.1-8.4c-0.2,0.7-0.4,1.5-0.6,2.2c2.5-0.2,3.1,2.8,1.2,4c-0.7,0.5-2.3,0.5-3.2,0.8
						c-1.9,0.6-3.7,1.4-5.4,2.3c-4.2,2.2-7.4,5.9-11.5,8.1c-1.7,0.9-6,1.4-7.6,0.3c-0.9-0.6-2-2.1-2.6-2.9c-1.8-2.2-3.3-4.5-4.7-6.9
						c-1.8-3.3-2.7-7-6.1-9.1c-1.3-0.8-2.5,1.2-1.2,2.1c0.2,0.2,0.4,0.4,0.6,0.7c0.5-0.5,1-1,1.5-1.5c-2.3-0.9-4.3-1.2-6.8-1.2
						c-1.4,0-1.5,1.9-0.3,2.3c0.9,0.4,1.9,0.8,2.8,1.1c0.1-0.8,0.2-1.6,0.3-2.3c-2.3-0.3-4.6-0.4-6.9-0.3c0.1,0.8,0.2,1.6,0.3,2.3
						c0.8,0.1,1.6,0.1,2.3,0.2c0.2-0.7,0.4-1.5,0.6-2.2c-2,0.1-3.9,0.3-5.9,0.7c-1.4,0.3-1,2.2,0.3,2.3c1.9,0.1,1.6,0.2,3.5-0.3
						c1.3-0.3,1-2.5-0.3-2.3c-0.5,0-1,0.1-1.5,0.1c-1.2,0.1-1.6,1.5-0.6,2.2c1.4,0.9,2.5,1.3,4.2,1.5c1.4,0.1,1.5-2,0.3-2.3
						c-5.6-1.8-5.8,7.2,0,5.5c1.2-0.3,1.1-1.9,0-2.3c-2.7-0.9-7.9,1.8-4.5,4.7c2,1.7,5.1-1,3.5-3.1c-2.1-2.7-6.1,1.2-5.3,3.7
						c1,3.1,5.6,1.9,4.4-1.2c-0.2-0.5-0.6-0.8-1.1-0.9c-2.8-0.3-3.4,2-2.6,4.3C70.3,155,72.6,154.4,72.2,152.9L72.2,152.9z"/>
				</g>
			</g>
			<g>
				<g>
					<path class="st0" d="M74.9,256.8c-3,0.9-6.4,4.6-4.6,7.8c0.5-0.5,1.1-1.1,1.6-1.6c-0.8-0.3-1.4-0.7-2.2-0.9
						c-0.5-0.1-1.1,0.1-1.3,0.5c-2.9,5.7,14.4,5.1,16.8,5.7c1.3,0.3,2.1-1.5,0.9-2.2c-0.3-0.1-0.6-0.3-0.8-0.4
						c-0.3,0.7-0.6,1.5-0.9,2.2c1.7,0.6,3.5,1.2,5.3,1.4c1.7,0.2,3.5-0.2,5.2,0.6c0.3-0.7,0.6-1.5,0.9-2.2c-0.4-0.1-0.8-0.2-1.2-0.4
						c-0.2,0.8-0.4,1.5-0.6,2.3c4.7,1,10.4,1.6,14.8-0.8c2.3-1.2,3.4-2.7,6.4-3.3c1.6-0.3,3.4-0.1,5-0.2c3.8-0.3,7.3-0.8,11,0.6
						c0-0.8,0-1.5,0-2.3c-5.9,1.7-12.3,3.2-18.4,3.7c-1.6,0.1-1.5,2.2,0,2.4c1.9,0.2,3.2,0.1,5-0.4c1.5-0.4,0.8-2.7-0.6-2.3
						c-1.5,0.6-2.9,0.7-4.4,0.3c0,0.8,0,1.6,0,2.4c6.4-0.5,12.8-2,19-3.8c1.2-0.3,1.1-1.9,0-2.3c-2.8-1-5.4-1.1-8.3-1
						c-3.2,0.2-6.9,0-10,0.7c-2.4,0.5-3.8,2.3-5.9,3.4c-3.8,1.9-9,1.4-13,0.5c-1.5-0.3-2.1,1.9-0.6,2.3c0.4,0.1,0.8,0.2,1.2,0.4
						c1.3,0.4,2.1-1.6,0.9-2.2c-3.3-1.7-7.4-1-11.1-2.3c-1.3-0.4-2.1,1.5-0.9,2.2c0.3,0.1,0.6,0.3,0.8,0.4c0.3-0.7,0.6-1.5,0.9-2.2
						c-2.3-0.5-4.5-0.5-6.8-0.9c-1.1-0.2-0.8-0.2-2.5-0.3c-0.5,0-1,0-1.5,0c-1.5-0.6-2.9-0.5-4.3,0.1c1,0.5,2.2-0.5,1.6-1.6
						c-0.2-2.1,0.9-3.5,3.2-4.3C77,258.6,76.4,256.4,74.9,256.8L74.9,256.8z"/>
				</g>
			</g>
		</g>
		<g>
			<g>
				<path class="st1" d="M71.2,170.8c6,4.7,15.8,2.1,21.8-1.4c0.7-0.4,0.1-1.4-0.6-1c-5.4,3.2-14.8,5.9-20.3,1.6
					C71.4,169.5,70.6,170.3,71.2,170.8L71.2,170.8z"/>
			</g>
		</g>
		<g>
			<g>
				<path class="st1" d="M128.8,170.4c-5.5,4.3-14.9,1.6-20.3-1.6c-0.7-0.4-1.3,0.6-0.6,1c5.9,3.5,15.8,6,21.8,1.4
					C130.3,170.7,129.4,169.9,128.8,170.4L128.8,170.4z"/>
			</g>
		</g>
		<g>
			<g>
				<g>
					<path d="M71.7,170.3c-4.1-4.1-8.4-7.6-8.2-13.9c0.1-4.8,1.3-9.6,4.8-13c0.5-0.5-0.3-1.4-0.8-0.8c-3.8,3.7-5,8.7-5.2,13.8
						c-0.3,6.7,4,10.4,8.5,14.8C71.4,171.7,72.2,170.9,71.7,170.3L71.7,170.3z"/>
				</g>
			</g>
			<g>
				<g>
					<path d="M67.5,144.2c5.2-4.7,13.3-4.2,19.8-2.9c6,1.2,9.6,5.3,12.1,10.7c0.3,0.7,1.3,0.1,1-0.6c-2.9-6.3-7.2-10.4-14.3-11.5
						c-6.8-1-14.1-1.5-19.6,3.4C66.1,143.8,66.9,144.7,67.5,144.2L67.5,144.2z"/>
				</g>
			</g>
			<g>
				<g>
					<path d="M75.5,225.5c1.4-18-1.5-36-3.8-53.8c-0.1-0.7-1.3-0.8-1.2,0c2.3,17.8,5.2,35.8,3.8,53.8
						C74.2,226.3,75.4,226.3,75.5,225.5L75.5,225.5z"/>
				</g>
			</g>
			<g>
				<g>
					<path d="M74.7,224.4c-1.7,6.4-1.4,13.1-2.9,19.5c-1.6,6.8-3.4,13.6-5.2,20.4c-0.2,0.7,1,1.1,1.1,0.3c1.7-6.8,3.6-13.6,5.2-20.4
						c1.5-6.4,1.2-13.1,2.9-19.5C76.1,224,74.9,223.6,74.7,224.4L74.7,224.4z"/>
				</g>
			</g>
			<g>
				<g>
					<path d="M133.5,144.1c-5.4-4.9-12.7-4.4-19.6-3.4c-7,1-11.3,5.2-14.3,11.5c-0.3,0.7,0.7,1.3,1,0.6c2.5-5.4,6.1-9.5,12.1-10.7
						c6.5-1.3,14.6-1.8,19.8,2.9C133.2,145.4,134,144.6,133.5,144.1L133.5,144.1z"/>
				</g>
			</g>
			<g>
				<g>
					<g>
						<path d="M129.3,171.9c4.5-4.4,8.8-8.1,8.5-14.8c-0.2-5.1-1.4-10.2-5.2-13.8c-0.5-0.5-1.4,0.3-0.8,0.8c3.5,3.4,4.7,8.2,4.8,13
							c0.2,6.3-4,9.9-8.2,13.9C127.9,171.6,128.8,172.5,129.3,171.9L129.3,171.9z"/>
					</g>
				</g>
				<g>
					<g>
						<path d="M125.8,226.3c-1.4-18,1.5-36,3.8-53.8c0.1-0.8-1.1-0.8-1.2,0c-2.3,17.8-5.2,35.8-3.8,53.8
							C124.7,227,125.9,227,125.8,226.3L125.8,226.3z"/>
					</g>
				</g>
			</g>
			<g>
				<g>
					<path d="M124.2,225.4c1.7,6.4,1.4,13.1,2.9,19.5c1.6,6.8,3.4,13.6,5.2,20.4c0.2,0.7,1.3,0.4,1.1-0.3
						c-1.7-6.8-3.6-13.6-5.2-20.4c-1.5-6.4-1.2-13.1-2.9-19.5C125.2,224.4,124,224.7,124.2,225.4L124.2,225.4z"/>
				</g>
			</g>
			<g>
				<g>
					<path d="M67.5,264.7c3.3,3,8,3.1,12.2,3.8c5.6,1,11.2,2,16.9,2.4c12.2,0.9,24.4-0.7,36.1-4.5c0.7-0.2,0.4-1.4-0.3-1.1
						c-10.4,3.3-21.2,5-32.1,4.6c-5.4-0.2-10.6-0.9-15.9-1.8c-4.7-0.8-12.3-0.8-16-4.2C67.8,263.4,66.9,264.2,67.5,264.7L67.5,264.7
						z"/>
				</g>
			</g>
		</g>
		<g>
			<g>
				<path class="st0" d="M78,227c0.3,0.4,0.5,0.5,0.4,0.3c0-0.1,0-0.3,0-0.4c0-0.3,0-0.6,0-1c0-0.6,0-1.3-0.1-1.9
					c0-1.2-1.6-1.6-2.2-0.6c-0.5,0.8-0.7,1.6-0.7,2.6c0.1,1.5,2.5,1.5,2.4,0c0-0.5,0-0.9,0.3-1.4c-0.7-0.2-1.5-0.4-2.2-0.6
					c0,1.2,0,2.4,0.1,3.6c0.1,1,0.8,1.9,1.9,1.8c0.6-0.1,1.2-0.5,1.2-1.2C79.2,227.6,78.7,226.9,78,227L78,227z"/>
			</g>
		</g>
		<g>
			<g>
				<path class="st0" d="M120.4,221.9c-0.1,2.7-0.5,6,0.4,8.6c0.3,1,1.6,1.1,2.2,0.3c1.4-1.9,1.4-4.2,1.2-6.5
					c-0.1-1.5-2.3-1.5-2.4,0c0,1.9,0,3.7,0.2,5.6c0.2,1.5,2.5,1.5,2.4,0c-0.2-1.9-0.3-3.7-0.2-5.6c-0.8,0-1.6,0-2.4,0
					c0.1,1.8,0.3,3.7-0.9,5.3c0.7,0.1,1.5,0.2,2.2,0.3c-0.8-2.4-0.4-5.5-0.3-8C122.9,220.3,120.5,220.3,120.4,221.9L120.4,221.9z"/>
			</g>
		</g>
	</g>
</g>
</svg>
