<?xml version="1.0" encoding="utf-8"?>
<!-- Generator: Adobe Illustrator 21.0.2, SVG Export Plug-In . SVG Version: 6.00 Build 0)  -->
<svg version="1.1" id="Layer_1" xmlns="http://www.w3.org/2000/svg" xmlns:xlink="http://www.w3.org/1999/xlink" x="0px" y="0px"
	 viewBox="0 0 200 600" style="enable-background:new 0 0 200 600;" xml:space="preserve">
<style type="text/css">
	.st0{fill:#B2A1A1;}
</style>
<g>
	<g>
		<g>
			<path class="st0" d="M52.2,205.8c0.8-1.2,2.6-1.3,3.7-0.4c1.1,0.9,1.6,2.3,1.7,3.8c0,0.2,0,0.5,0.2,0.7c0.3,0.3,0.8,0.3,1.1,0.1
				c0.7-0.4,1-1.2,1.2-2c0.1-0.8,0-1.6,0.1-2.4c0.1-1.7,0.9-3.2,1.6-4.7c0.4,0.7,0.1,1.7-0.1,2.5c-1.3,3.6-2.5,7.2-3.8,10.8
				c0.6-1.1,1.1-2.2,1.7-3.4c0,0.7-0.2,1.4-0.5,2.1c0.2-0.4,0.2-0.8,0.1-1.3c-1.6,2.6-2.6,5.4-3.2,8.4"/>
			<g>
				<path class="st0" d="M53.9,207.5c0,0,2,4.1,2.6,4.4c1,0.7,2.3,0.7,3.3,0.2c1.2-0.5,2-1.6,2.4-2.8c0.9-2.5,0.4-4.8,1.6-7.3
					c-1.5-0.2-3-0.4-4.6-0.6c0.3,1.7-1.3,4.4-1.8,5.9c-0.7,2-1.4,4.1-2.1,6.1c-0.9,2.7,3.3,4.5,4.6,1.9c0.6-1.1,1.1-2.2,1.7-3.4
					c-1.5-0.6-3-1.3-4.6-1.9c0,0.7-0.2,1.4-0.5,2.1c1.6,0.2,3.3,0.4,4.9,0.7c0-0.4,0.1-0.8,0.1-1.3c0.3-2.5-3.5-3.3-4.7-1.3
					c-1.6,2.8-2.7,5.8-3.4,9c-0.7,3.1,4.2,4.5,4.8,1.3c0.6-2.8,1.5-5.3,2.9-7.8c-1.6-0.4-3.1-0.8-4.7-1.3c0,0.4-0.1,0.8-0.1,1.3
					c-0.3,3,4,3.2,4.9,0.7c0.3-0.7,0.5-1.3,0.5-2.1c0.4-2.6-3.2-4.7-4.6-1.9c-0.6,1.1-1.1,2.2-1.7,3.4c1.5,0.6,3,1.3,4.6,1.9
					c1.5-4.4,4.6-9.9,3.9-14.6c-0.3-2.1-3.7-2.4-4.6-0.6c-0.8,1.7-2.1,4-2,6c-0.4,1.5,0.4,2.4,2.3,2.6c0-0.2-0.1-0.4-0.1-0.7
					c0-0.9-0.8-2.1-1.3-2.8c-2.1-2.7-5.8-3-8.2-0.6C48.1,206.3,51.7,209.8,53.9,207.5L53.9,207.5z"/>
			</g>
		</g>
		<g>
			<path class="st0" d="M47.9,274.3c1.2,0.9,2.5,1.8,3.7,2.7c-0.8,0.3-1.6,0.4-2.5,0.3c1,0.1,2.1,0.1,3.1,0.2c0.3,0,0.8,0,1-0.3
				c0.1-0.2,0.1-0.5,0.1-0.7c-0.4-4.8-0.3-9.6,0.4-14.4c-1,3.9-2.4,7.8-4.1,11.4c-0.6-4.5,2.1-8.7,2.7-13.2c0.2-2,0.1-4,0.8-5.8
				c0.1,2.3,0.1,4.7,0.2,7c0.1-3.1,0.7-6.1,1.6-9c-0.2,2.9-0.6,5.8-1,8.7"/>
			<g>
				<path class="st0" d="M46.6,276.5c1.2,0.9,2.5,1.8,3.7,2.7c0.2-1.5,0.4-3,0.6-4.6c-0.6,0.1-1.2,0.2-1.8,0.3c-3.2,0-3.2,4.8,0,5
					c2.7,0.1,5.5,0.7,6.5-2.3c0.6-1.9-0.1-4.4-0.1-6.4c0-3,0.2-6,0.6-9c0.3-2.8-4.2-3.3-4.9-0.7c-1,3.7-2.2,7.3-3.8,10.8
					c1.6,0.4,3.1,0.8,4.7,1.3c-0.2-3.6,1.2-6.7,2.1-10.1c0.7-2.7,0.6-5.6,1.3-8.3c-1.6-0.2-3.3-0.4-4.9-0.7c0.1,2.3,0.1,4.7,0.2,7
					c0.1,3.2,4.8,3.2,5,0c0.2-2.9,0.7-5.6,1.5-8.4c-1.6-0.2-3.3-0.4-4.9-0.7c-0.2,2.7-0.5,5.4-0.9,8c-0.4,3.1,4.4,4.5,4.8,1.3
					c0.4-3.1,0.8-6.2,1.1-9.4c0.3-2.9-4.2-3.3-4.9-0.7c-0.9,3.2-1.4,6.4-1.7,9.7c1.7,0,3.3,0,5,0c-0.1-2.3-0.1-4.7-0.2-7
					c-0.1-2.8-4.1-3.4-4.9-0.7c-0.9,3.3-0.8,6.7-1.8,10c-1,3.3-1.9,6.2-1.8,9.7c0.1,2.3,3.6,3.7,4.7,1.3c1.8-3.9,3.2-7.9,4.3-12
					c-1.6-0.2-3.3-0.4-4.9-0.7c-0.4,3-0.6,6-0.6,9c0,1-0.2,2.6,0.1,3.6c1.8,0.3,2.1,0.3,0.8,0.2c-0.8,0-1.5-0.1-2.3-0.1
					c0,1.7,0,3.3,0,5c1.3,0,1.9-0.1,3.1-0.4c2.2-0.6,2.3-3.4,0.6-4.6c-1.2-0.9-2.5-1.8-3.7-2.7C46.5,270.3,44,274.6,46.6,276.5
					L46.6,276.5z"/>
			</g>
		</g>
		<g>
			<path class="st0" d="M55.7,221.6c0.9,10.6-0.3,21.3-1.5,32c0.2-1.4,0.4-2.9,0.7-4.3"/>
			<g>
				<path class="st0" d="M53.2,221.6c0.8,10.7-0.3,21.3-1.5,32c-0.4,3.2,4.6,3.1,5,0c0.2-1.2,0.4-2.4,0.6-3.6
					c0.6-3.1-4.2-4.5-4.8-1.3c-0.3,1.6-0.6,3.3-0.8,4.9c1.7,0,3.3,0,5,0c1.2-10.6,2.3-21.3,1.5-32C58,218.4,52.9,218.4,53.2,221.6
					L53.2,221.6z"/>
			</g>
		</g>
		<g>
			<path class="st0" d="M57,213.6c0,0.3,0.1,0.7,0.1,1c0.4-0.1,0.8-0.4,0.9-0.8c0.6,0.5,0.7,1.5,0.6,2.3c-0.1,0.8-0.5,1.6-0.7,2.4
				c-0.3,1.1-0.2,2.3-0.2,3.4c0,2.6-0.5,5.1-0.9,7.6c-0.4,2.3-0.8,4.6-1.2,6.9"/>
			<g>
				<path class="st0" d="M54.6,214.3c0,0.3,0.1,0.7,0.1,1c0.3,2,2.9,2.2,4.2,1.1c0.3-0.3,0.6-0.6,0.9-0.8c-1.3-0.2-2.6-0.3-3.9-0.5
					c0.5,0.9-0.3,2.4-0.4,3.4c-0.3,1.9-0.2,3.8-0.4,5.7c-0.4,3.9-1.2,7.7-1.9,11.6c-0.5,3.1,4.3,4.5,4.8,1.3
					c0.8-4.5,1.8-9.1,2.1-13.7c0.3-3.6,1.9-7.6,0.1-10.8c-0.8-1.4-2.8-1.6-3.9-0.5c-0.3,0.3-0.6,0.6-0.9,0.8
					c1.4,0.4,2.8,0.7,4.2,1.1c0-0.3-0.1-0.7-0.1-1C58.9,209.8,54.1,211.1,54.6,214.3L54.6,214.3z"/>
			</g>
		</g>
		<g>
			<path class="st0" d="M67.2,263.1c-1.1,0-2.1,0-3.2,0c-0.1,0-0.2,0-0.3-0.1c-0.2-0.1-0.1-0.4-0.1-0.6c0.4-1.2,0.9-2.4,1.6-3.5
				c0.3-0.5,0.7-0.9,1.1-1.4c0.7-0.9,1.2-2,1.7-3c0.6-1.3,1.2-2.7,1.9-4"/>
			<g>
				<path class="st0" d="M67.2,260.6c-0.9,0-2,0.2-2.8,0c0.5,0.4,1,0.8,1.5,1.1c0-0.1-0.1-0.2-0.1-0.3c0.1,0.6,0.2,1.3,0.3,1.9
					c0.5-2.1,1.9-3.5,3-5.3c1.2-2,2.1-4.2,3-6.3c1.4-2.9-3-5.4-4.3-2.5c-1,2.1-1.8,4.3-3,6.3c-1.1,1.7-2.2,3.2-3,5.1
					c-0.5,1.4-0.9,3,0.3,4.2c1.3,1.3,3.6,0.8,5.3,0.8C70.5,265.6,70.5,260.6,67.2,260.6L67.2,260.6z"/>
			</g>
		</g>
		<g>
			<path class="st0" d="M67.6,257.9c-0.6,0.5-1.6,0.2-1.9-0.5c-0.4-0.7-0.3-1.5,0-2.2c0.3-0.7,0.8-1.3,1.2-2
				c1.5-2.5,1.4-5.6,2.1-8.4c0.6-2.4,1.6-4.7,2.5-7c2-5,3.5-10.3,3.5-15.7"/>
			<g>
				<path class="st0" d="M67,255.5c2-0.3,1.8-0.3,2.7-2.3c0.5-1.1,0.7-2.2,1-3.4c0.6-3,1.1-5.8,2.2-8.7c2.4-6.2,4.4-12.2,4.6-18.9
					c0.1-3.2-4.9-3.2-5,0c-0.1,5.3-1.5,10.1-3.4,15c-1.7,4.3-2.3,8.4-3.6,12.7c-0.8,2.7-3.5,5.2-2.2,8.2c0.9,2.2,2.9,2.6,5,2.2
					C71.5,259.8,70.1,254.9,67,255.5L67,255.5z"/>
			</g>
		</g>
		<g>
			<path class="st0" d="M69.7,237.4c1.2-4.2,2.3-8.4,3.5-12.6c1.6-5.8,3.2-11.5,5.9-16.9"/>
			<g>
				<path class="st0" d="M72.2,238.1c2.7-9.7,4.8-19.8,9.2-28.9c1.4-2.9-2.9-5.4-4.3-2.5c-4.6,9.5-6.9,20-9.7,30.1
					C66.5,239.9,71.3,241.2,72.2,238.1L72.2,238.1z"/>
			</g>
		</g>
		<g>
			<path class="st0" d="M73.5,171.6c0.7,1.5,1,3.2,1.3,4.8c1.3,8.7,2.2,17.4,2.6,26.1c0.1,3,0.2,5.9-0.2,8.9c-0.3,2.2-1,4.4-1.7,6.6
				c-0.9-2.6-0.2-5.5,0.2-8.2c0.5-3.9,0.3-7.8,0.1-11.7c-0.3-5.2-0.6-10.3-1-15.5c-0.1-1-0.1-1.9-0.4-2.9c-0.2-0.7-0.5-1.4-0.7-2.1
				c-0.3-1.4,0.2-3-0.3-4.3"/>
			<g>
				<path class="st0" d="M71.1,172.3c2.7,6.9,2.7,15.4,3.3,22.8c0.6,7.7,1,14.8-1.4,22.3c1.6,0,3.2,0,4.8,0
					c-0.8-3.9,0.5-8.4,0.6-12.4c0.1-4.2-0.3-8.4-0.5-12.6c-0.4-6.6-0.9-13.2-2.2-19.6c-0.6-3.2-5.4-1.8-4.8,1.3
					c1.4,7.2,1.8,14.7,2.2,22.1c0.2,3.9,0.5,7.8,0.2,11.7c-0.3,3.8-1.1,7-0.3,10.8c0.5,2.5,4.1,2.2,4.8,0c2.5-7.9,2.2-15.4,1.6-23.6
					c-0.6-7.7-0.6-16.9-3.5-24.1C74.8,168,70,169.3,71.1,172.3L71.1,172.3z"/>
			</g>
		</g>
		<g>
			<path class="st0" d="M80.7,170.7c0.3-0.2,0.7,0,1,0.3c1.6,1.8,1.7,4.4,1.7,6.8"/>
			<g>
				<path class="st0" d="M81.4,173.2c0.1,0,0.2-0.1,0.3-0.1c-0.4,0-0.9,0-1.3,0c0.1,0,0.2,0.1,0.3,0.1c-0.4-0.2-0.7-0.4-1.1-0.6
					c1.4,1.2,1.2,3.7,1.2,5.3c0,3.2,5,3.2,5,0c0-2-0.1-4-0.8-5.9c-0.8-2.1-2.5-4.4-5-3.6C77,169.2,78.3,174.1,81.4,173.2L81.4,173.2
					z"/>
			</g>
		</g>
		<g>
			<path class="st0" d="M83.3,170.3c0-0.1-0.1-0.2-0.1-0.3"/>
			<g>
				<path class="st0" d="M85.4,169c0-0.1-0.1-0.2-0.1-0.3c-0.6-1.2-2.3-1.6-3.4-0.9c-1.2,0.8-1.5,2.2-0.9,3.4c0,0.1,0.1,0.2,0.1,0.3
					c0.6,1.2,2.3,1.6,3.4,0.9C85.7,171.6,86,170.2,85.4,169L85.4,169z"/>
			</g>
		</g>
		<g>
			<path class="st0" d="M80.1,154.5c0.9,0,1.9,0,2.6-0.6c0.6-0.6,0.8-1.5,0.9-2.3c0.5-4,0.7-8.1,0.4-12.2"/>
			<g>
				<path class="st0" d="M80.1,157c3.5-0.1,5.4-1.7,5.9-5.1c0.7-4.1,0.7-8.4,0.4-12.5c-0.2-3.2-5.2-3.2-5,0c0.1,2.2,0.2,4.4,0.1,6.7
					c-0.1,1.3,0.2,5.9-1.5,6C76.9,152.1,76.9,157.1,80.1,157L80.1,157z"/>
			</g>
		</g>
		<g>
			<path class="st0" d="M67.5,168.1c-1.4,0.6-1.8,2.4-1.8,3.9c0,1.4,0.1,2.9,0.4,4.3c0.8-1.1,1.3-2.4,1.4-3.8
				c-1.5,1.9-2.1,4.5-1.6,6.9c0.4-0.5,0.6-1.2,0.5-1.8c-0.9,1.3-1.1,3-1.2,4.5c-0.7,6.1-1,12.2-2.7,18.1"/>
			<g>
				<path class="st0" d="M65.7,166.3c-3.2,2.5-2.7,7-2,10.6c0.4,2.2,3.5,2.3,4.6,0.6c0.9-1.4,1.4-2.7,1.6-4.4
					c0.4-2.7-2.9-4.5-4.6-1.9c-1.7,2.6-2.3,5.1-2,8.2c0.2,2.3,3.3,3.6,4.7,1.3c0.6-1.1,0.8-1.8,0.9-3.1c0.2-2.4-3.6-3.5-4.7-1.3
					c-3.2,7-2.3,15.8-4.2,23.2c-0.8,3.1,4,4.4,4.8,1.3c0.8-3.2,1.4-6.4,1.8-9.6c0.5-3.8,0.2-8.8,1.9-12.4c-1.6-0.4-3.1-0.8-4.7-1.3
					c-0.1,0.2-0.1,0.4-0.2,0.6c1.6,0.4,3.1,0.8,4.7,1.3c-0.2-2.2,0.1-3.7,1.3-5.6c-1.5-0.6-3-1.3-4.6-1.9c0,1.2-0.4,2.2-1.1,3.2
					c1.5,0.2,3,0.4,4.6,0.6c-0.3-1.6-0.9-4.5,0.8-5.8C71.8,167.9,68.2,164.3,65.7,166.3L65.7,166.3z"/>
			</g>
		</g>
		<g>
			<path class="st0" d="M65.1,179.7c0.5,0.2,0.6,0.9,0.5,1.4c-0.2,2-0.4,4.1-0.7,6.1"/>
			<g>
				<path class="st0" d="M63.9,181.9c0.1,0.1,0.2,0.1,0.3,0.2c-0.3-0.3-0.6-0.6-0.9-0.9c-0.1-0.4-0.1-0.5-0.1-0.2
					c0,0.2,0,0.5-0.1,0.7c0,0.6-0.1,1.1-0.2,1.7c-0.1,1.1-0.3,2.1-0.4,3.2c-0.2,1.3,0.3,2.7,1.7,3.1c1.2,0.3,2.9-0.4,3.1-1.7
					c0.3-2,0.6-3.9,0.8-5.9c0.2-1.8-0.1-3.3-1.7-4.4C63.7,175.8,61.2,180.1,63.9,181.9L63.9,181.9z"/>
			</g>
		</g>
		<g>
			<path class="st0" d="M56.6,175.5c-2.2,0.2-4.5-0.2-6.5-1.2c-0.2-0.1-0.4-0.2-0.6-0.4c-0.2-0.3-0.3-0.6-0.4-0.9
				c-0.5-3,0.1-6.2,1.5-8.8"/>
			<g>
				<path class="st0" d="M56.6,173c-1,0.1-2,0.1-3-0.1c-0.5-0.1-1-0.2-1.4-0.4c-0.9-0.3-0.5-0.1-0.6-0.6c-0.4-2.1,0.3-4.6,1.3-6.4
					c1.4-2.9-2.9-5.4-4.3-2.5c-1.6,3.3-2.8,7.6-1.6,11.3c1.1,3.5,6.6,4,9.7,3.9C59.8,177.9,59.8,172.9,56.6,173L56.6,173z"/>
			</g>
		</g>
		<g>
			<path class="st0" d="M52.3,185.1c-3.7,9.1-6.4,18.5-8,28.2c1.2-5.5,2.8-11,4.9-16.2c1.4-3.5,3-7,3.2-10.7c-0.7,5-1.4,10-2.1,15
				c-0.2,1.7-0.5,3.4-0.3,5.1"/>
			<g>
				<path class="st0" d="M49.9,184.4c-3.7,9.1-6.3,18.5-8,28.2c-0.5,3.1,4.1,4.5,4.8,1.3c1.2-5.2,2.6-10.3,4.6-15.3
					c1.6-4.1,3.2-7.9,3.6-12.3c0.3-2.8-4.5-3.5-4.9-0.7c-0.9,6.7-2.8,14-2.4,20.8c0.1,3.2,5.2,3.2,5,0c-0.3-6.4,1.4-13.2,2.3-19.5
					c-1.6-0.2-3.3-0.4-4.9-0.7c-0.4,4.5-2.6,8.5-4.1,12.7c-1.6,4.4-2.9,9-3.9,13.6c1.6,0.4,3.2,0.9,4.8,1.3c1.7-9.7,4.3-19.1,8-28.2
					C56,182.8,51.1,181.5,49.9,184.4L49.9,184.4z"/>
			</g>
		</g>
		<g>
			<path class="st0" d="M49.7,236c-0.5,2.2-1.2,4.3-2,6.3c0.1-6,0.7-12,1.6-17.9c0.7-4.9,1.7-10.1,0.1-14.8
				c-0.1-0.3-0.2-0.6-0.5-0.8c-0.4-0.3-1-0.3-1.5-0.2c-0.7,0.1-1.3,0.2-2,0.3c-0.4,0.1-0.7,0.1-1,0.3c-0.3,0.2-0.5,0.6-0.6,1
				c-0.8,2-1.6,4.1-1.5,6.3c0.1,1,0.3,2,0.5,3c0.9,5.5-1.2,11.2,0,16.7"/>
			<g>
				<path class="st0" d="M47.3,235.3c-0.6,2.2-1.2,4.3-2,6.3c1.6,0.2,3.3,0.4,4.9,0.7c0.3-8.3,1.9-16.3,2.5-24.5
					c0.3-3.9,0.5-11.5-4.9-11.7c-5.4-0.2-7.5,3.9-8,8.8c-0.3,3.8,0.8,7.5,0.5,11.3c-0.3,3.6-0.5,7,0.1,10.6c0.5,3.2,5.3,1.8,4.8-1.3
					c-0.8-4.8,0.6-9.5,0.3-14.3c-0.2-2.4-0.9-4.7-0.4-7.2c0.5-2.2,1.9-4.3,2.5-0.8c0.8,4.5-0.6,9.4-1.2,13.9
					c-0.7,5.1-1,10.1-1.2,15.2c-0.1,3,4,3.2,4.9,0.7c0.8-2.1,1.4-4.2,2-6.3C52.9,233.5,48.1,232.2,47.3,235.3L47.3,235.3z"/>
			</g>
		</g>
		<g>
			<path class="st0" d="M60.1,112.9"/>
			<g>
				<path class="st0" d="M60.1,115.4c3.2,0,3.2-5,0-5C56.9,110.4,56.9,115.4,60.1,115.4L60.1,115.4z"/>
			</g>
		</g>
		<g>
			<path class="st0" d="M79.9,117.2c-0.1-0.1,0.1-0.2,0.2-0.1c2.9,1.5,5,4.6,5.3,7.9c-0.4-2.1-0.8-4.2-1.3-6.3"/>
			<g>
				<path class="st0" d="M82.3,117.9c0,0,0-0.1,0-0.1c-0.8,0.6-1.6,1.2-2.4,1.8c0.1,0,0.1,0,0.2,0c-0.4-0.1-0.8-0.2-1.3-0.3
					c2.1,1.2,3.8,3.3,4,5.8c1.6-0.2,3.3-0.4,4.9-0.7c-0.4-2.1-0.8-4.2-1.3-6.3c-0.7-3.1-5.5-1.8-4.8,1.3c0.5,2.1,0.9,4.2,1.3,6.3
					c0.5,2.7,5.2,2.2,4.9-0.7c-0.3-2.4-1-4.5-2.4-6.5c-1.2-1.6-3.4-4-5.6-4c-1.1,0-2.1,0.8-2.4,1.8c0,0,0,0.1,0,0.1
					C76.5,119.6,81.3,120.9,82.3,117.9L82.3,117.9z"/>
			</g>
		</g>
		<g>
			<path class="st0" d="M41.1,231.9c0,0.2,0.1,0.3,0.1,0.5c0.4-1.5,0.3-3.1,0.2-4.6c-0.1-3.1,0.5-6.2,1.6-9.1"/>
			<g>
				<path class="st0" d="M38.7,232.5c0,0.2,0.1,0.3,0.1,0.5c0.4,2.4,4.3,2.3,4.8,0c0.5-2.1,0.3-4.2,0.3-6.3c0.1-2.5,0.6-5,1.5-7.4
					c1.1-3-3.7-4.3-4.8-1.3c-0.8,2.2-1.3,4.4-1.5,6.6c-0.2,2.3,0.2,4.8-0.3,7.1c1.6,0,3.2,0,4.8,0c0-0.2-0.1-0.3-0.1-0.5
					C43,228,38.1,229.4,38.7,232.5L38.7,232.5z"/>
			</g>
		</g>
		<g>
			<g>
				<g>
					<g>
						<g>
							<path class="st0" d="M69.8,145.9c-0.6,0.6-1,1.3-1.6,1.9c-0.6-0.9-1.1-1.7-1.7-2.6c1.6-1.1,2-2.3,1.2-3.6
								c-0.3-0.7-0.6-1.5-0.7-2.2c-0.3,1-0.6,1.9-0.9,2.9c-0.4,0.2-0.9,0.3-1.3,0.5c-1-1.5-1.9-3-2.9-4.5c0.9-0.2,1.7-0.4,2.6-0.6
								c0.2-2.7-3.7-3.8-5.7-2.1c-0.2,0.2-0.6,0.3-0.8,0.5c1.6,0.4,3,0.7,4.6,1.1c-0.2-0.3-0.3-0.5-0.6-0.8
								c-0.7-1.7-2.2-2.4-4.1-2.1c-0.2,0-0.4,0.1-0.7,0.1c1.1,0.3,2.1,0.5,3.2,0.8c-0.7-0.5,0.4-7,0.7-8c0.4-3.2,1.2-6.5,3.1-9.3
								c1.6-2.4,4-4.7,7-5.6c2.9-0.9,5.8-0.1,8.8-0.4c-1-0.5-1.9-1-2.9-1.5c3.1,6.6,4.2,13.1,0.1,19.5c-1.4,2.4-3.3,4.9-5.5,6.9
								c-1.2,1.1-2.2,2.8-4,1.7c-1.7-1.1-0.9-3-0.4-4.7c0.3-1.4,1.1-2.6,1.6-3.9c0.6-1.4,1.2-4.5,0.3,0.6c-0.4,2.8-2.3,5.4-4.2,7.6
								c-0.7,0.8-1.3,1.6-2.2,2.2c0.7-0.4,1.3-0.8,2-1.2c0.6-0.7,0.8-3,1.1-3.9c0.1-0.4,3.4-7.8,3.6-7.8c-1.1-0.7-2.1-1.5-3.2-2.2
								c0.4,1.6-2,3.7-1.8,5c-0.8,0.8-0.4,1,0.9,0.7c1.8,0.4,2.3-0.4,1.7-2.4c0.1-0.5,0.3-1.1,0.4-1.6c-0.9-0.9-1.8-1.8-2.6-2.6
								c-0.7,0.2-2.3,4.2-3.6,4.7c1.3,0.2,2.7,0.3,4,0.5c-1.9-1.3,4.2-8.2,5-8.9c-1.9-0.7-3.8-1.4-5.7-2.1c-0.1,3.1-1,5.4-2.9,7.9
								c2.1,0.5,4.1,1,6.2,1.5c-0.2-2.8,0.3-4.9,1.6-7.5c-1,2-0.9,2,0.1-0.1c0.9-2.2,1.4-2.4,1.8-0.7c0.4,1.7,0.7,1.4,0.8-1
								c1.8-2.1,1.1-2.7-2-1.9c0.2,1.3,0.3,2.7,0.2,4c-0.1,1.4-0.3,2.7-0.9,4c1.9-0.4,3.7-0.9,5.6-1.3c-1.7-1.2,0.7-6.1,1.1-6.3
								c-1.1,0-2.2,0-3.3,0c1.1,0.5,1.6,7,0.7,7.6c1.1-0.3,2.1-0.5,3.2-0.8c-0.4-0.1-0.2-4.6-0.2-4.6c0.3-1.7,1.3-3.1,2.4-4.4
								c-2-0.2-4.1-0.5-6.1-0.7c1.9,7.5-0.2,15-2.8,22.2c-1.3,3.6-3.1,6.9-6.8,8.8c-0.8,0.3-1.6,0.6-2.2,0.9c1.3,1.3,1.9,1,1.6-0.7
								c0.6-1.2,0.2-3.3,0.1-4.5c0-3.5-5.3-4-6.6-0.8c-0.4,1.3-0.9,2.5-1.4,3.8c2.2,0.3,4.3,0.5,6.6,0.8c-0.3-2.2-0.4-4.3-0.3-6.5
								c0.1-3.5-5.5-3.9-6.6-0.8c-0.4,1.3-0.8,2.4-1,3.7c2.2,0.3,4.3,0.5,6.6,0.8c0-0.4,0-0.8-0.1-1.2c0.8-3.8-5.7-5.4-6.5-1.6
								c-0.1,0.5-0.2,1.1-0.3,1.6c2.2,0.3,4.3,0.5,6.6,0.8c-0.1-1.1-0.1-2.2,0.1-3.3c-2.2,0.3-4.3,0.5-6.6,0.8
								c0.4,2.7-1.1,5.8-1.7,8.4c-0.6,2.7-0.9,5.4-1.3,8c-0.9,5.9-1.8,11.9-2.7,17.8c-0.6,3.7,5,5.4,6.5,1.6
								c2.7-7.1,5.2-14.3,7.9-21.4c-2.2-0.3-4.3-0.5-6.6-0.8c-1,7.2-2.6,14.3-4.5,21.4c2.1,0.5,4.3,1.1,6.5,1.6
								c1.6-9.7,4.5-19,9-27.8c-2.1-0.5-4.1-1-6.2-1.5c-0.2,9.7-4.3,19.9-6.9,29.2c2.2,0.3,4.3,0.5,6.6,0.8c0.8-8.8,3.3-17.1,7.7-25
								c-2-0.8-4.1-1.5-6.1-2.3c-2.4,9.6-4.8,19.2-7.2,28.9c2.1,0.5,4.3,1.1,6.5,1.6c1.3-7.4,3.7-14.5,7.3-21.3
								c-2.1-0.5-4.1-1-6.2-1.5c-1,7.4-2.8,14.7-4.6,21.9c2.1,0.5,4.3,1.1,6.5,1.6c1.1-5.8,2.8-11.4,5.5-16.8
								c-2-0.8-4.1-1.5-6.1-2.3c-0.9,5.7-2.2,11.3-4,16.8c2.2,0.3,4.3,0.5,6.6,0.8c0.3-3.5,1.2-6.7,2.4-10c-2.2-0.3-4.3-0.5-6.6-0.8
								c-0.2,5.6-2.9,10.7-2.6,16.3c0.1,3.3,5.6,4.2,6.6,0.8c3.9-12.9,8.2-25.7,12.9-38.3c-2.1-0.5-4.3-1.1-6.5-1.6
								c-1,4.5-3.1,7.9-6.8,11.1c1.9,0.7,3.8,1.4,5.7,2.1c-0.1-4.7,1.3-8.5,4.5-12.4c-1.8,0.2-3.4,0.4-5.2,0.6
								c0.7,0.6-0.3,6.1-0.1,7.3c0.2,1.6,0.8,3.1,1.1,4.7c0.2,1.1,0.4,2.3,0.6,3.4c-0.6,2.1,0.7,2.8,3.4,2.1
								c-1.2,1.5-2.6,2.9-3.8,4.4c1.9,0.6,2.7,1.8,2.4,3.6c2.1-0.5,4.1-1,6.2-1.5c-0.9-0.7-1.3-1.6-1.3-2.7
								c-2.1,0.5-4.3,1.1-6.5,1.6c1.1,4.6,2.1,9.2,3,13.9c2-0.8,4.1-1.5,6.1-2.3c-1.6-2.9-2-5.6-1.2-8.7c-2.1,0-4.3,0-6.5,0
								c1.4,3.1,2.4,6.2,3.2,9.5s6.6,2.5,6.6-0.8c0-2.6,0-5.2,0-7.7c-2.2,0.3-4.3,0.5-6.6,0.8c0.3,1.8,0.6,3.4,0.6,5.3
								c2.2,0,4.5,0,6.7,0c-0.3-2.8-0.3-5.5-0.1-8.2c-2.2,0.3-4.3,0.5-6.6,0.8c0.3,1.3,0.3,2.6,0.2,4c2.2,0,4.5,0,6.7,0
								C84,174,83.9,172,84,170c-2.2,0.3-4.3,0.5-6.6,0.8c0.3,1.9,0.4,3.5,0.4,5.4c2.2,0,4.5,0,6.7,0c-0.1-3.5-0.1-6.9,0.1-10.4
								c-2.2,0-4.5,0-6.7,0c0,2,0,4,0.1,6c0,3.9,6.5,3.8,6.7,0c0.2-4.3,0.6-8.7,0.8-13c0.2-3.8-0.4-7.6-0.1-11.4
								c0.8-8.1,2.7-15.3,0.7-23.5c-2.1,0.5-4.3,1.1-6.5,1.6c2.3,5.2,0.6,10-1.4,15c-1.4,3.6,5,5.2,6.5,1.6c2.3-6,4.2-12.1,1.4-18.2
								c-1.6-3.5-7.3-2.3-6.5,1.6c2,8.2-1,15.6-1,23.7c0,7.6,0,15-0.4,22.6c2.2,0,4.5,0,6.7,0c0-2,0-4-0.1-6c0-3.9-6.5-3.8-6.7,0
								c-0.2,3.5-0.2,6.9-0.1,10.4c0.1,3.9,6.6,3.9,6.7,0c0-2.4-0.2-4.7-0.7-7c-0.7-3.5-6.3-2.4-6.6,0.8c-0.1,2.1,0,4.1,0.2,6.1
								c0.4,3.8,6.3,3.9,6.7,0c0.1-1.9,0-3.7-0.4-5.6c-0.7-3.5-6.2-2.3-6.6,0.8c-0.2,2.8-0.2,5.5,0.1,8.2c0.4,3.8,6.7,4,6.7,0
								c0-2.3-0.2-4.6-0.8-6.9c-0.7-3.4-6.6-2.5-6.6,0.8c0,2.6,0,5.2,0,7.7c2.2-0.3,4.3-0.5,6.6-0.8c-0.8-3.3-1.9-6.4-3.2-9.5
								c-1.1-2.5-5.7-3.2-6.5,0c-1.1,4.8-0.6,9,1.9,13.3c1.8,3.3,6.7,0.8,6.1-2.3c-0.9-4.7-1.8-9.3-3-13.9c-0.9-3.8-7.1-2.1-6.5,1.6
								c0.3,1.6,0.9,2.8,2,4.1c1.7,2,6.7,1.8,6.2-1.5c-0.6-4.4-2-8.5-7.3-9.4c-2.8-0.4-5.3,2-3.8,4.4c1.3,1.9,3.4,2.8,5.9,1.9
								c2.9-1.1,3.2-3.7,3.1-6.2c-0.1-4-2.1-8.1-2-12c0.1-3.5,1.4-5.6-1.4-8.4c-1.6-1.5-4-0.9-5.2,0.6c-3.7,4.6-5.3,9.8-5.3,15.4
								c0,2.6,3.6,3.9,5.7,2.1c4.3-3.8,7.2-8.3,8.5-13.7c0.9-3.8-5.1-5.3-6.5-1.6c-4.7,12.7-9,25.4-12.9,38.3
								c2.2,0.3,4.3,0.5,6.6,0.8c-0.2-5.6,2.3-10.8,2.6-16.3c0.1-3.5-5.3-3.9-6.6-0.8c-1.4,3.8-2.2,7.6-2.7,11.6
								c-0.3,3.4,5.6,4,6.6,0.8c1.7-5.5,3-11.1,4-16.8c0.4-3-4.5-5.7-6.1-2.3c-2.8,5.9-4.9,11.9-6.1,18.2c-0.7,3.7,5.5,5.4,6.5,1.6
								c2-7.8,3.8-15.6,4.9-23.5c0.3-2.9-4.9-4.1-6.2-1.5c-3.9,7.3-6.6,14.8-8,22.8c-0.7,3.7,5.5,5.4,6.5,1.6
								c2.4-9.6,4.8-19.2,7.2-28.9c0.8-3.2-4.3-5.5-6.1-2.3c-4.9,8.8-7.8,18.1-8.6,28c-0.3,3.4,5.7,4.1,6.6,0.8
								c2.7-9.9,6.9-20.5,7.1-30.8c0.1-2.8-4.8-4.3-6.2-1.5c-4.8,9.3-8.1,19-9.8,29.2c-0.6,3.7,5.5,5.5,6.5,1.6
								c1.9-7.6,3.6-15.2,4.7-22.9c0.4-3.5-5.5-3.8-6.6-0.8c-2.7,7.1-5.2,14.3-7.9,21.4c2.1,0.5,4.3,1.1,6.5,1.6
								c1.1-7.3,2.2-14.5,3.3-21.8c0.8-5.2,3.2-10.5,2.3-15.7c-0.7-3.6-6.2-2.3-6.6,0.8c-0.2,1.1-0.2,2.2-0.1,3.3
								c0.1,3.2,5.8,4.3,6.6,0.8c0.1-0.5,0.2-1.1,0.3-1.6c-2.1-0.5-4.3-1.1-6.5-1.6c-0.2,1.1-0.3,1.7-0.2,2.8c0.4,3,6,4.5,6.6,0.8
								c0.2-1.3,0.4-2.5,1-3.7c-2.2-0.3-4.3-0.5-6.6-0.8c-0.1,2.2,0,4.3,0.3,6.5c0.4,3.3,5.3,4.2,6.6,0.8c0.4-1.3,0.9-2.5,1.4-3.8
								c-2.2-0.3-4.3-0.5-6.6-0.8c0,3.6-2.1,9.3,2.8,11c4.6,1.5,10.2-2.5,12.9-5.4c4-4.2,5.6-10.1,7-15.4c1.7-6.2,2.2-12.3,0.7-18.5
								c-0.7-2.8-4.6-2.6-6.1-0.7c-3.3,4-5.9,12.8-0.8,16.8c6.5,5.1,8.3-4.8,8-8.3c-0.3-3.2-3.2-12.4-8.9-7.7
								c-3.9,3.2-5.6,11.7-1.1,15c1.9,1.4,4.9,1,5.6-1.3c1.1-3.7,3.1-14.4-3-15.8c-5.7-1.2-8.3,7.6-7.9,11.1c0.8,5.7,7.3,6,10.6,1.6
								c2.9-4,3.3-10.9-3.9-10.5c-5.9,0.3-10.2,5.9-9.7,11c0.6,5.2,7,6.3,10.3,2.3c2.8-3.3,2.8-12.3-3.8-12.2
								c-6.3,0.1-7.7,10.1-7.5,14.1c0.2,3,4.3,4,6.2,1.5c2.6-3.4,3.7-6.9,3.9-10.9c0.1-2.6-3.7-3.9-5.7-2.1
								c-3.8,3.3-10.9,13.3-5,17.4c1.2,0.9,2.7,1.2,4,0.5c3.9-1.9,8.8-8.6,6.3-12.7c-1-1.7-3.4-2.9-5.7-2.2c-2.9,0.9-4,4.5-4.7,6.9
								c-0.9,3.3-1.9,12.7,5.1,11c5-1.2,7.7-9.5,6.8-13.4c-0.3-1.4-1.8-2.1-3.2-2.2c-6.2-0.5-9.6,10.4-10.8,14.5
								c-1,3.7-1.8,11.1,5,10.4c6.5-0.7,11.5-10.7,12-15.7c0.4-4.1-2.1-11.6-8.2-8.7c-9.3,4.3-11.8,29.8,3.7,22.6
								c6.1-2.8,11.1-9.8,13.7-15.4c3.2-7.3,1.1-14.9-2.2-21.8c-0.4-0.9-1.9-1.6-2.9-1.5c-5.1,0.5-9.5-0.5-14.2,2.1
								c-4.3,2.3-7.3,6.1-9.2,10.3c-1.9,4.4-7.1,23.2,3.1,21.8c-1.3-0.7-2.8-1.4-4.1-2.1c0.3,0.9,0.7,1.5,1.2,2.2
								c1,1.4,2.9,1.9,4.6,1.1c0.9-0.4,1.4-0.8,2.1-1.4c-1.9-0.7-3.8-1.4-5.7-2.1c-0.3,5.3,6.6,9.1,9.9,3.7c1.2-2-0.3-4.5-2.9-4.5
								c-11.5,0.1,2.6,20.5,7.9,10.7c2.1-3.8-2.8-7-6.7-5.4c-4.5,1.9-3.7,6.9,0.1,8.9C70.1,153.1,73.6,147.9,69.8,145.9L69.8,145.9z
								"/>
						</g>
					</g>
					<g>
						<g>
							<path class="st0" d="M77.1,148.4c4.3,0,4.3-6,0-6C72.8,142.4,72.8,148.4,77.1,148.4L77.1,148.4z"/>
						</g>
					</g>
					<g>
						<g>
							<path class="st0" d="M71.3,141.8c0.7,1.6,1.3,3.2,2,4.8c1.4,3.7,7.1,2.2,6.5-1.6c-0.6-3-0.8-5.9-1-8.9
								c-1.9,0.7-3.8,1.4-5.7,2.1c1.2,1,0.9,5.8,1,7.2c0.2,2.5,0.6,4.9,0.8,7.4c2.2,0,4.5,0,6.7,0c-0.3-2.7-0.6-5.2-0.2-7.8
								c-2.2,0-4.5,0-6.7,0c-0.6,5.3-0.2,10.5,0.8,15.7c1.9-1,3.7-1.9,5.6-2.9c-4.1-3.5-6.7-7.9-9.6-12.2c-2.8-4.3-5.8-8.5-8.1-13
								c-1.2,1.5-2.6,2.9-3.8,4.4c4.2,0.7,7.1,4.1,9.2,7.2c1.2,1.8,4.9,7.2,4.6,9.3c1.7-0.6,3.2-1.2,4.9-1.8c-0.1,0-0.1-0.1-0.2-0.1
								c0.4,1.4,0.8,2.7,1.2,4.1c0-0.1,0.1-0.1,0.1-0.2c2.3-3.3-3.4-6.3-5.8-3c0,0.1-0.1,0.1-0.1,0.2c-1,1.4-0.3,3.3,1.2,4.1
								c0.1,0,0.1,0.1,0.2,0.1c1.7,1,4.6,0.1,4.9-1.8c0.8-4.6-3-10.8-5.7-14.6c-2.9-4.1-7.2-8.4-12.8-9.3c-3-0.5-5,2-3.8,4.4
								c2.7,5.1,6.1,9.8,9.2,14.6c2.8,4.3,5.6,8.4,9.5,11.8c2.6,2.2,6.1-0.1,5.6-2.9c-0.9-4.7-1-9.3-0.6-14.1c0.4-3.9-6.1-3.8-6.7,0
								c-0.3,2.7-0.1,5.2,0.2,7.8c0.6,3.8,7.1,3.9,6.7,0c-0.4-4-0.9-8-1.3-11.9c-0.3-2.7-0.2-4.9-2.4-6.8c-2-1.6-5.9-0.6-5.7,2.1
								c0.2,3.5,0.6,7,1.2,10.5c2.1-0.5,4.3-1.1,6.5-1.6c-0.7-1.6-1.3-3.2-2-4.8C76.2,136.6,69.8,138.1,71.3,141.8L71.3,141.8z"/>
						</g>
					</g>
					<g>
						<g>
							<path class="st0" d="M56.5,185.1c-1.1-1.9-1.2-3.4-1-5.5c-2.2,0.3-4.3,0.5-6.6,0.8c0,0.8,0,1.6,0,2.4c2.1-0.5,4.1-1,6.2-1.5
								c-0.8-1.3-1-2.7-0.7-4.2c0.3-3.4-5.6-4-6.6-0.8c-0.3,1-0.6,1.9-0.9,2.9c2.2,0.3,4.3,0.5,6.6,0.8c0-0.8,0.1-1.7,0.1-2.5
								c-2.1-0.5-4.3-1.1-6.5-1.6c-0.1,1.1-0.3,2.1-0.9,3.1c2.2,0.3,4.3,0.5,6.6,0.8c0.1-0.9,0.3-1.9,0.4-2.8c-2.1,0-4.3,0-6.5,0
								c0.6,3.4,1,6.7,1.6,10.1c0.6,3.3,5.3,2.3,6.5,0c1.2-2.6,2.3-5.1,3.6-7.7c-2.1,0-4.3,0-6.5,0c0.7,3.3,0.9,6.5,0.7,9.8
								c-0.2,3.4,5.7,4.1,6.6,0.8c0.7-2.4,1.3-4.6,2.6-6.8c-2.1-0.5-4.1-1-6.2-1.5c0.2,3.4,0.2,6.6-0.3,10c-0.7,3.7,5.7,5.4,6.5,1.6
								c0.4-2.3,1.1-4.6,2-6.8c-2.2-0.3-4.3-0.5-6.6-0.8c0.2,2.4,0.3,4.5-0.1,6.9c-0.3,2.3,2.2,5.1,4.9,3.4c2.4-1.6,2.7-3.2,3.2-5.9
								c0.8-3.8,1.6-7.6,2.3-11.4c-2.1,0-4.3,0-6.5,0c0.9,2.2-1.2,5.1-2.1,7c-1.2,2.7-2.6,5.4-3.8,8.1c-2.3,5.1-4.8,10.2-7.1,15.3
								c2.2,0.3,4.3,0.5,6.6,0.8c0.2-5,1.4-9.6,3.6-14.1c-2.2-0.3-4.3-0.5-6.6-0.8c-0.2,5-1,10-2.2,14.9c-0.9,3.8,5.1,5.3,6.5,1.6
								c0.8-2,1.4-4,2.2-6c-2.2-0.3-4.3-0.5-6.6-0.8c0.1,3.3-0.1,6.5-0.6,9.8c-0.4,3.4,5.7,4,6.6,0.8c1.7-6.4,3.4-12.8,5.1-19.1
								c-2.1,0-4.3,0-6.5,0c0,0.7,0,1.4,0,2.1c-0.4,3.3,5.9,4.1,6.6,0.8c0.2-0.8,0.6-1.5,0.8-2.3c-2-0.8-4.1-1.5-6.1-2.3
								c-2.2,6.6-4.5,13.2-6.8,19.8c2.1,0,4.3,0,6.5,0c-1.6-3.9,0.1-8.1,0.3-12.1s-0.2-8-1-11.9c-0.7-3.1-5.5-2.6-6.5,0
								c-1.6,4.3-3.3,8.6-5.3,12.7c2.1,0.5,4.1,1,6.2,1.5c0-5,0.9-9.8,1.9-14.7c0.7-3.1-4.6-5.7-6.1-2.3c-0.8,1.7-1.6,3.4-2.4,5.1
								c2.1,0.5,4.1,1,6.2,1.5c0.3-4.2,0.9-8.3,1.8-12.4c-2.1,0-4.3,0-6.5,0c1,6.3-1.3,13.2-2.7,19.4c2.1,0,4.3,0,6.5,0
								c-0.4-1.5-0.4-3,0-4.4c-2.2-0.3-4.3-0.5-6.6-0.8c0.1,4.2-0.1,8.3-0.8,12.4c2.2,0.3,4.3,0.5,6.6,0.8c-0.1-1.3,0.1-2.5,0.6-3.7
								c-2.2-0.3-4.3-0.5-6.6-0.8c0.2,3.3,0.2,6.4-0.3,9.7c2.2,0.3,4.3,0.5,6.6,0.8c0.1-1.9,0.3-3.6,0.9-5.4c-2.1,0-4.3,0-6.5,0
								c0.7,4,0.8,8,0.4,12.1c2.2,0,4.5,0,6.7,0c0-2.4,0.1-4.8,0.6-7.1c-2.1,0-4.3,0-6.5,0c0.6,3.4,0.7,6.7,0.4,10.2
								c2.2,0,4.5,0,6.7,0c-0.1-2.7,0.2-5.1,1.1-7.8c-2.1,0-4.3,0-6.5,0c0.3,2,0.3,3.9-0.2,5.8c2.2,0.3,4.3,0.5,6.6,0.8
								c0-2.3,0.3-4.2,1.1-6.3c-2.2-0.3-4.3-0.5-6.6-0.8c0.3,2.7,0.4,5.3,0.1,8c-0.4,3.8,6.2,3.8,6.7,0c0.2-1.7,0.7-3.3,1.1-4.9
								c-2.2-0.3-4.3-0.5-6.6-0.8c0.1,2,0.2,3.8,0.1,5.8c-0.2,3.3,5.8,4.1,6.6,0.8c0.6-2.4,1.2-4.8,1.9-7.1
								c-2.2-0.3-4.3-0.5-6.6-0.8c-0.1,1.3-0.2,2.6-0.3,3.9c-0.3,3.9,6.3,3.8,6.7,0c0.1-0.8,0.1-1.7,0.2-2.5c0.3-3.3-6-4.2-6.6-0.8
								c-1.3,8.3-3.3,16.4-5.9,24.4c2.1,0,4.3,0,6.5,0c-1.3-3-1.9-5.8-1.4-9c0.6-3.7-5.5-5.5-6.5-1.6c-0.4,1.9-1,3.8-1.4,5.7
								c2.1,0,4.3,0,6.5,0c-0.3-1.4-0.3-2.9-0.1-4.3c0.4-3.4-5.6-4-6.6-0.8c-0.6,1.8-1.1,3.6-1.7,5.4c2-0.2,4.1-0.5,6.1-0.7
								c-1.3-2.6,0.4-7.2,0.8-10c0.6-4.1,1.2-8.1,1.8-12.2c-2.2-0.3-4.3-0.5-6.6-0.8c-0.1,1.8-0.2,3.5-0.3,5.3c2.2,0,4.5,0,6.7,0
								c0-3.1,0-6.2,0-9.2c-2.2,0.3-4.3,0.5-6.6,0.8c3.2,9.1,0.6,18.7,1.9,28.1c0.6,3.8,6.2,3.9,6.7,0c0.4-3.1,0.8-6.2,1.2-9.3
								c-2.2,0.3-4.3,0.5-6.6,0.8c1.9,12.1-3.4,24.1-2.4,36.2c2.2-0.3,4.3-0.5,6.6-0.8c-1.2-4.3-1.4-8.5-0.7-12.9
								c-2.2-0.3-4.3-0.5-6.6-0.8c-0.1,4.2-0.4,8.4-1.2,12.6c2.1,0,4.3,0,6.5,0c-0.8-5-0.9-9.9-0.2-14.8c0.4-3.8-6.2-3.8-6.7,0
								c-0.3,2.3-0.6,4.6-0.9,6.9c2.2,0,4.5,0,6.7,0c-0.6-3.8-0.4-7.5,0.3-11.3c-2.1-0.5-4.3-1.1-6.5-1.6c-0.3,1.8-0.7,3.6-1,5.5
								c2.2,0.3,4.3,0.5,6.6,0.8c-0.1-3.6-0.1-7.2-0.2-10.8c-2.2,0.3-4.3,0.5-6.6,0.8c0.8,3.4,3.1,22.1,11.8,17.3
								c3.2-1.8,2.9-6.1,3.1-9c0.4-6.3,0.9-12.6,1.3-18.9c0.2-3.3-6-4.2-6.6-0.8c-1.4,8-2.8,16.1-4.2,24.1
								c-1.2,7.1-1.6,15.3-5.5,21.7c-1.2,1.9,0.2,4.6,2.9,4.5c1.4-0.2,2.9,0,4.1,0.6c2,0.7,4.3-1.1,4.2-2.9c-0.2-6.5,0-13,0.8-19.4
								c-2.2,0-4.5,0-6.7,0c0,1.1,0.1,2.1,0.1,3.2c2.2,0,4.5,0,6.7,0c0.1-0.7,0.2-1.5,0.3-2.2c-2.1-0.5-4.1-1-6.2-1.5
								c-0.2,3.2-0.7,6.5-1.2,9.7c-0.7,3.8,5.8,5.4,6.5,1.6c0.7-3.7,1.1-7.5,1.4-11.3c0.2-2.9-4.9-4.2-6.2-1.5
								c-0.9,1.8-1.3,3.3-1.2,5.3c0.2,3.8,6.8,3.9,6.7,0c0-1.1-0.1-2.1-0.1-3.2c-0.1-3.9-6.2-3.8-6.7,0c-0.8,6.5-1.1,12.9-0.8,19.4
								c1.4-1,2.8-1.9,4.2-2.9c-2-0.7-3.8-0.9-5.9-0.8c1,1.5,1.9,3,2.9,4.5c4-6.5,4.6-14,5.8-21.2c1.6-8.7,3-17.3,4.6-26
								c-2.2-0.3-4.3-0.5-6.6-0.8c-0.3,4.1-0.6,8.2-0.9,12.3c-0.1,1.2-0.6,10.5-0.3,10.5c1.1,0.3,2.1,0.5,3.2,0.8
								c-3.9-2.9-4.1-10.2-5.1-14.5c-0.8-3.3-6.6-2.6-6.6,0.8c0.1,3.6,0.1,7.2,0.2,10.8c0,3.2,5.9,4.2,6.6,0.8
								c0.3-1.8,0.7-3.6,1-5.5c0.7-3.8-5.6-5.4-6.5-1.6c-1,4.3-1.2,8.5-0.7,12.9c0.6,3.8,6.2,3.9,6.7,0c0.3-2.3,0.6-4.6,0.9-6.9
								c-2.2,0-4.5,0-6.7,0c-0.7,5.5-0.4,10.9,0.6,16.4c0.4,2.9,5.9,2.8,6.5,0c0.9-4.7,1.3-9.4,1.4-14.2c0-3.3-5.9-4.2-6.6-0.8
								c-1.1,5.5-0.9,10.7,0.7,16.1c0.9,3.2,6.8,2.6,6.6-0.8c-1-12.8,4.2-25.1,2.2-37.8c-0.6-3.6-6.1-2.2-6.6,0.8
								c-0.4,3.1-0.8,6.2-1.2,9.3c2.2,0,4.5,0,6.7,0c-1.4-9.9,1.3-20-2.1-29.7c-1.1-3.2-6.6-2.7-6.6,0.8c0,3.1,0,6.2,0,9.2
								c0,3.9,6.5,3.8,6.7,0c0.1-1.8,0.2-3.5,0.3-5.3c0.2-3.3-6-4.2-6.6-0.8c-0.8,4.9-1.4,9.8-2.1,14.7c-0.6,4.2-1.8,8.2,0.2,12.1
								c1.2,2.4,5.3,1.6,6.1-0.7c0.6-1.8,1.1-3.6,1.7-5.4c-2.2-0.3-4.3-0.5-6.6-0.8c-0.2,2.1-0.1,3.8,0.3,5.9c0.6,3,5.7,2.8,6.5,0
								c0.4-1.9,1-3.8,1.4-5.7c-2.1-0.5-4.3-1.1-6.5-1.6c-0.7,4.3-0.3,8.2,1.4,12.2c1.1,2.6,5.5,3.1,6.5,0c2.6-8,4.6-16.1,5.9-24.4
								c-2.2-0.3-4.3-0.5-6.6-0.8c-0.1,0.8-0.1,1.7-0.2,2.5c2.2,0,4.5,0,6.7,0c0.1-1.3,0.2-2.6,0.3-3.9c0.2-3.4-5.6-4-6.6-0.8
								c-0.8,2.4-1.3,4.7-1.9,7.1c2.2,0.3,4.3,0.5,6.6,0.8c0.1-2,0.1-3.8-0.1-5.8c-0.2-3.3-5.5-4.2-6.6-0.8
								c-0.7,2.2-1.1,4.3-1.3,6.5c2.2,0,4.5,0,6.7,0c0.3-2.7,0.3-5.3-0.1-8c-0.4-3.3-5.3-4.2-6.6-0.8c-1,2.7-1.4,5.1-1.4,7.9
								c0,3.3,5.8,4.2,6.6,0.8c0.7-3.1,0.7-5.9,0.2-9s-5.6-2.6-6.5,0c-1,3.1-1.4,6.1-1.3,9.4c0.2,3.9,6.3,3.8,6.7,0
								c0.3-4,0-7.8-0.7-11.7c-0.6-2.9-5.9-2.9-6.5,0c-0.6,2.9-0.8,5.8-0.8,8.7c0,3.9,6.3,3.8,6.7,0c0.3-4.6,0.1-9.1-0.8-13.7
								c-0.6-3-5.7-2.7-6.5,0c-0.7,2.3-1.1,4.6-1.1,7c-0.1,3.3,6,4.2,6.6,0.8c0.6-3.8,0.8-7.4,0.6-11.3c-0.2-3.3-5.5-4.2-6.6-0.8
								c-0.6,1.8-0.9,3.5-0.9,5.3c0,3.3,6,4.2,6.6,0.8c0.8-4.7,1.2-9.3,1-14c-0.1-3.3-5.8-4.2-6.6-0.8c-0.6,2.6-0.6,5,0,7.6
								c0.6,2.9,5.9,2.9,6.5,0c1.6-7.5,3.8-15,2.7-22.6c-0.4-2.9-5.9-2.8-6.5,0c-1,4.6-1.7,9.3-2,14c-0.2,2.8,4.9,4.3,6.2,1.5
								c0.8-1.7,1.6-3.4,2.4-5.1c-2-0.8-4.1-1.5-6.1-2.3c-1.1,5.4-2.1,10.8-2.1,16.3c0,2.8,4.9,4.4,6.2,1.5c2.2-4.7,4.2-9.4,6-14.2
								c-2.1,0-4.3,0-6.5,0c1,5,0.9,9.8,0.1,14.8c-0.6,3.2-0.8,6.1,0.4,9.2c1.1,2.7,5.5,3,6.5,0c2.2-6.6,4.5-13.2,6.8-19.8
								c1.1-3.2-4.3-5.4-6.1-2.3c-0.9,1.6-1.1,2-1.4,3.8c2.2,0.3,4.3,0.5,6.6,0.8c0.2-1.6,0.1-2.1-0.2-3.7c-0.7-2.9-5.7-2.8-6.5,0
								c-1.7,6.4-3.4,12.8-5.1,19.1c2.2,0.3,4.3,0.5,6.6,0.8c0.4-3.3,0.7-6.5,0.6-9.8c-0.1-3.4-5.3-4-6.6-0.8c-0.8,2-1.4,4-2.2,6
								c2.1,0.5,4.3,1.1,6.5,1.6c1.3-5.4,2.1-10.9,2.4-16.5c0.2-3.7-5.2-3.7-6.6-0.8c-2.3,5.1-3.6,10.2-3.8,15.7
								c-0.1,3.7,5.2,3.7,6.6,0.8c3-6.3,5.9-12.6,8.9-18.9c2-4.4,6.2-9.8,4.2-14.7c-1-2.5-5.8-3.2-6.5,0c-0.6,2.6-1.1,5.3-1.7,7.9
								c-0.2,1.2-0.4,2.3-0.8,3.5c-0.1,0.6-1,2.9-0.2,2.3c1.7,1.1,3.2,2.3,4.9,3.4c0.4-2.9,0.7-5.6,0.3-8.5
								c-0.3-3.4-5.2-4.1-6.6-0.8c-0.9,2.2-1.6,4.5-2,6.8c2.1,0.5,4.3,1.1,6.5,1.6c0.7-3.9,0.9-7.6,0.6-11.6
								c-0.2-2.7-4.7-4.4-6.2-1.5c-1.4,2.7-2.4,5.4-3.2,8.3c2.2,0.3,4.3,0.5,6.6,0.8c0.2-3.9-0.1-7.6-0.9-11.4
								c-0.7-3.3-5.3-2.4-6.5,0c-1.2,2.6-2.3,5.1-3.6,7.7c2.1,0,4.3,0,6.5,0c-0.6-3.4-1-6.7-1.6-10.1c-0.4-3-5.7-2.7-6.5,0
								c-0.4,1.8-0.7,2.6-0.7,4.4c-0.1,3.5,5.3,3.9,6.6,0.8c0.4-1,0.8-2,0.9-3.1c0.7-3.7-5.3-5.4-6.5-1.6c-0.6,1.9-0.6,2.2-0.3,4.1
								c0.4,3.1,5.6,4.3,6.6,0.8c0.3-1,0.6-1.9,0.9-2.9c-2.2-0.3-4.3-0.5-6.6-0.8c-0.2,2.7,0.3,4.8,1.7,7.2c1.6,3,5.9,1.1,6.2-1.5
								c0.2-1.8,0.1-2.3-0.2-4c-0.8-3.6-6.1-2.3-6.6,0.8c-0.4,3.1,0.2,5.7,1.9,8.5C52.8,191.6,58.5,188.6,56.5,185.1L56.5,185.1z"/>
						</g>
					</g>
					<g>
						<g>
							<path class="st0" d="M46,268.5c0-0.2,0-0.5,0-0.7c-2.1,0-4.3,0-6.5,0c0.1-0.1,0.1-0.3,0.2-0.4c2,0.2,4.1,0.5,6.1,0.7
								c-1-6,0.4-13.3,1.3-19.3c-2.1,0-4.3,0-6.5,0c1.9,4.5,1.2,9,1.4,13.6c0.1,1.6,0.2,3.2,0.4,4.8c0.3,2.1,2.8,6.5-2,6.4
								c1.1,1,2.2,2,3.3,3c0.3-2.3,0.6-4.7,0.9-7c0.4-3.8-6.2-3.8-6.7,0c-0.3,2.3-0.6,4.7-0.9,7c-0.2,1.6,1.7,3,3.3,3
								c6.1,0.1,10.3-3.8,9.5-9.2c-0.7-4.2-1.3-8-1.3-12.3c0-3.8-0.1-7.4-1.7-10.9c-1-2.4-5.9-3.3-6.5,0c-1.1,7.2-2.7,15.2-1.3,22.5
								c0.4,2.6,4.8,2.9,6.1,0.7c1-1.6,1.2-2.5,0.4-4.2c-1-2.5-5.9-3.2-6.5,0c-0.2,1.5-0.2,2.5,0,3.9C40.2,274,46.6,272.4,46,268.5
								L46,268.5z"/>
						</g>
					</g>
					<g>
						<g>
							<path class="st0" d="M74.2,183.6c1.4,4.9,2.7,9.8,3.7,14.8c0.7,3.4,6.6,2.5,6.6-0.8c0-6,0.2-11.9,0.8-17.8
								c0.3-3.9-6.3-3.8-6.7,0c-0.9,9-1.6,18-0.3,27c0.6,3.7,6.5,4,6.7,0c0.1-2.6,0.1-5.1,0-7.7c-2.2,0.3-4.3,0.5-6.6,0.8
								c1,6.6-1.7,13-0.7,19.6c0.6,3.8,6.3,3.9,6.7,0c0.2-2,0.3-4.1,0.6-6.1c0.3-3.3-6-4.2-6.6-0.8c-1.4,8.4-1.3,17.4-3.2,25.7
								c-0.6,2.5-2.3,21.5-2.9,21.5c0.6,1.9,1.1,3.7,1.7,5.6c2.7-1.6,3.1-3.5,3.4-6.2c0.7-4.9,1.4-9.5,3.4-14.1
								c-2.2-0.3-4.3-0.5-6.6-0.8c0.7,6,0.3,11.8-1.3,17.6c-0.4,1.5,0.6,3.3,2.3,3.7c0.7,0.2,1.4,0.3,2.1,0.5
								c1.7,0.4,3.7-0.5,4.1-2.1c1.8-7.7,0.9-16.2,1.1-24c-2.2,0.3-4.3,0.5-6.6,0.8c0.7,3.1,0.7,6.1,0.3,9.2c-0.4,3.9,6.2,3.8,6.7,0
								c0.7-5.1-1-10.1-0.2-15.1c-2.2,0-4.5,0-6.7,0c0.1,2.3,0.2,4.5,0.3,6.8c0.2,3.8,6.7,3.9,6.7,0c-0.1-6.4,0.3-12.7,1.1-19.1
								c-2.2,0-4.5,0-6.7,0c0.4,3.7,0.3,7.2-0.2,10.9c-0.7,3.8,5.8,5.4,6.5,1.6c0.8-4.2,1-8.2,0.6-12.4c-0.4-3.9-6.2-3.8-6.7,0
								c-0.8,6.3-1.1,12.7-1.1,19.1c2.2,0,4.5,0,6.7,0c-0.1-2.3-0.2-4.5-0.3-6.8c-0.2-4-6.1-3.7-6.7,0C75.5,240,77,245,76.5,250
								c2.2,0,4.5,0,6.7,0c0.4-3.7,0.1-7.1-0.6-10.8c-0.7-3.4-6.5-2.5-6.6,0.8c-0.1,7.2,0.9,15.3-0.8,22.4c1.3-0.7,2.8-1.4,4.1-2.1
								c-0.7-0.2-1.4-0.3-2.1-0.5c0.8,1.2,1.6,2.5,2.3,3.7c1.8-6.3,2.4-12.7,1.7-19.2c-0.4-3.4-5.1-4-6.6-0.8
								c-1.2,2.8-2.1,5.6-2.7,8.6c-0.2,1.4-0.2,7.6-1.1,8.1c-2.7,1.6-1.8,5.7,1.7,5.6c3.8-0.1,5.5-2.1,6.2-5.2
								c1.2-4.6,2.3-9.9,2.3-14.7c0-4.2,1.1-8.2,1.6-12.4c0.6-6.5,1.4-13,2.6-19.4c-2.2-0.3-4.3-0.5-6.6-0.8c-0.2,2-0.3,4.1-0.6,6.1
								c2.2,0,4.5,0,6.7,0c-1-7.1,1.6-14.1,0.4-21.2c-0.6-3.4-6.7-2.5-6.6,0.8c0.1,2.6,0.1,5.1,0,7.7c2.2,0,4.5,0,6.7,0
								c-1.3-9-0.6-18,0.3-27c-2.2,0-4.5,0-6.7,0c-0.6,5.9-0.8,11.9-0.8,17.8c2.2-0.3,4.3-0.5,6.6-0.8c-1-5-2.2-9.9-3.7-14.8
								C79.6,178.3,73.1,179.9,74.2,183.6L74.2,183.6z"/>
						</g>
					</g>
					<g>
						<g>
							<path class="st0" d="M77.1,137.9c0.1,0.4,0.3,0.7,0.4,1.1c-2-0.2-4.1-0.5-6.1-0.7c0.4-1.1,0.8-2.3,1.2-3.4
								c-0.7-1.1-0.9-2.3-0.4-3.4c0.2-1.8,0.9-3.3,1.7-4.9c1.4-3.1-4.5-5.4-6.1-2.3c-0.1,0.6-0.3,1.2-0.4,1.8
								c-0.7-2.6-4.7-2.8-6.1-0.7c-0.8,0.5-1.6,0.9-2.4,1.4c1.4,1,2.8,1.9,4.2,2.9c0.1-0.6,0.2-1.3,0.2-1.9c0.3-2.3-3.1-3.7-5-2.6
								c-1.4,0.8-2,1.2-3.1,2.4c1.9,0.4,3.7,0.9,5.6,1.3c-0.1-0.4-0.3-0.8-0.4-1.3c-0.7-2-3.9-3.2-5.6-1.3c-0.4,0.4-0.9,0.7-1.3,1.1
								c1.6,1.4,3,2.7,4.6,4.1c1.1-1.9,2.2-3.9,3.2-5.8c1.7-3-2.4-6.1-5.2-3.6c-0.8,0.7-1.6,1.4-2.4,2.1c1.8,1.2,3.4,2.4,5.2,3.6
								c1.7-2.2,2.9-4.5,4.1-6.9c1.2-2.5-2.6-4.6-4.9-3.4c-1.8,0.9-3,2-4.1,3.6c1.9,1,3.9,2,5.8,3c1.4-2.5,3.1-4.8,5.1-6.9
								c2.6-2.6-0.6-6.3-4-4.7c-1.3,0.6-2.6,1.2-3.9,1.8c1.3,1.6,2.7,3.1,4,4.7c2.3-2,4.7-3.2,7.8-3.9c3.1-0.8,3.3-5.1,0-5.8
								c-1.7-0.3-3.3-0.5-5.1-0.6c0.3,2,0.6,3.9,0.9,5.9c1.7-0.5,3.4-0.8,5.2-0.9c2.7-0.2,4.7-3.3,2.3-5.1c-1.1-0.9-1.9-1.3-3.3-1.6
								c-4.2-0.8-6,5-1.8,5.8c0.1,0,0.2,0,0.4,0.1c0.8-1.7,1.6-3.4,2.3-5.1c-2.4,0.2-4.7,0.5-7,1.1c-3.7,0.9-2.9,5.8,0.9,5.9
								c1.1,0,2.2,0.1,3.3,0.4c0-1.9,0-3.9,0-5.8c-4.2,1-7.6,2.8-10.8,5.5c-2.9,2.4,0.8,6.2,4,4.7c1.3-0.6,2.6-1.2,3.9-1.8
								c-1.3-1.6-2.7-3.1-4-4.7c-2.4,2.5-4.5,5.1-6.2,8.1c-2,3.5,3.3,6.2,5.8,3c0.6-0.5,1.2-0.9,1.8-1.4c-1.7-1.1-3.2-2.3-4.9-3.4
								c-0.9,2-2.1,3.7-3.4,5.5c-2.2,2.9,2.6,5.9,5.2,3.6c0.8-0.7,1.6-1.4,2.4-2.1c-1.8-1.2-3.4-2.4-5.2-3.6
								c-1.1,1.9-2.2,3.9-3.2,5.8c-1.4,2.6,1.6,5.7,4.6,4.1c1.3-0.7,1.8-1,2.7-2c-1.9-0.4-3.7-0.9-5.6-1.3c0.1,0.4,0.3,0.8,0.4,1.3
								c0.8,2,3.9,3.1,5.6,1.3c0.6-0.5,1.2-1,1.8-1.4c-1.7-0.9-3.3-1.7-5-2.6c-0.1,0.6-0.2,1.3-0.2,1.9c-0.3,2.1,2.3,3.3,4.2,2.9
								c3-0.6,4.8-1.9,6.3-4.2c-2-0.2-4.1-0.5-6.1-0.7c1.8,6.6,10.1,4.5,12.7-0.4c-2-0.8-4.1-1.5-6.1-2.3
								c-2.3,5.1-3.6,12.2,2.4,15.8c3.6,2.1,10.1,0.7,8-4.1c-1-2.3-4.6-3.1-6.1-0.7c-1.8,2.7-0.9,5.4,1.9,7.1
								C77.3,145.3,80.7,140.1,77.1,137.9L77.1,137.9z"/>
						</g>
					</g>
					<g>
						<g>
							<path class="st0" d="M44.5,276c0,0,0-0.1,0.1-0.1c1-1.3,0.3-3.4-1.2-4.1c-0.1,0-0.1-0.1-0.2-0.1c-1.7-0.8-4.6-0.2-4.9,1.8
								c0.1-0.7,1-0.9-0.9-0.2c1.2,1.5,2.6,2.9,3.8,4.4c1.2-1.6,1.9-3,2.4-4.8c0.9-3.2-4.3-5.4-6.1-2.3c-0.3,0.7-0.7,1.3-1.2,1.9
								c1.8-0.2,3.4-0.4,5.2-0.6c1.4,1.2,1.8-2.9,2-3.9c0.4-1.7,0.6-3.4,0.6-5.2c-0.1-3.6-5.2-3.8-6.6-0.8c-0.4,1.1-1,2.2-1.4,3.3
								c2.1,0.5,4.3,1.1,6.5,1.6c1-4.6,2.8-9.4,2.1-14.1c-0.4-3.2-5.3-4.2-6.6-0.8c-0.8,2.1-1.4,4.2-2.2,6.3
								c-1.3,3.7,5.1,5.3,6.5,1.6c0.8-2.1,1.4-4.2,2.2-6.3c-2.2-0.3-4.3-0.5-6.6-0.8c0.6,4.2-1,8.5-1.9,12.5
								c-0.9,3.9,4.9,5.1,6.5,1.6c0.4-1.1,1-2.2,1.4-3.3c-2.2-0.3-4.3-0.5-6.6-0.8c0.1,3.8-4.2,10.2-0.7,13.3c1.7,1.4,4,1,5.2-0.6
								c0.4-0.6,0.9-1.2,1.2-1.9c-2-0.8-4.1-1.5-6.1-2.3c-0.2,1.3-0.8,2.4-1.8,3.4c-1.6,2.1,1.1,5.3,3.8,4.4
								c2.6-0.9,5.1-0.9,5.6-3.9c-1.7,0.6-3.2,1.2-4.9,1.8c0.1,0,0.1,0.1,0.2,0.1c-0.4-1.4-0.8-2.7-1.2-4.1c0,0,0,0.1-0.1,0.1
								C36.3,276.3,42.1,279.3,44.5,276L44.5,276z"/>
						</g>
					</g>
					<g>
						<g>
							<path class="st0" d="M44.6,252.9c0-0.2-0.1-0.3-0.1-0.5c0.6-3.1-4.2-5.6-6.1-2.3c-0.2,0.5-0.6,0.9-0.8,1.4c1.9,0,3.9,0,5.8,0
								c-0.1-0.1-0.2-0.3-0.2-0.4c0.1,0.8,0.2,1.5,0.3,2.3c0.6-3.2,1.9-6.3,2.4-9.5c0.6-3.7-5.1-5.4-6.5-1.6c-0.7,1.7-1.3,3.4-2.3,5
								c2,0.8,4.1,1.5,6.1,2.3c1.6-3.9,2.4-7.9,2.9-12c0.3-3.4-5.6-4-6.6-0.8c-0.4,1.3-0.8,2.6-1.2,3.9c2.1,0.5,4.3,1.1,6.5,1.6
								c0-0.9,0.3-1.7,0.8-2.5c1.6-3.7-4.8-5.1-6.5-1.6c-0.2,0.6-0.6,1.2-0.8,1.7c2.1,0.5,4.3,1.1,6.5,1.6c0.6-2.4,0-5.5,1.2-7.7
								c1.8-3.5-3.9-6.5-5.8-3c-1.6,3-1.1,5.9-1.9,9.1c-1,3.9,4.8,5.1,6.5,1.6c0.2-0.6,0.6-1.2,0.8-1.7c-2.1-0.5-4.3-1.1-6.5-1.6
								c-0.4,0.8-0.7,1.6-0.8,2.5c-0.7,3.7,5.2,5.4,6.5,1.6c0.4-1.3,0.8-2.6,1.2-3.9c-2.2-0.3-4.3-0.5-6.6-0.8
								c-0.4,3.6-1.3,7-2.7,10.4c-1.2,3.2,4.2,5.2,6.1,2.3c1.3-2.1,2.2-4.2,3-6.4c-2.1-0.5-4.3-1.1-6.5-1.6
								c-0.4,2.8-1.3,5.5-2.1,8.2c-0.4,1.5-0.7,2.6,0.2,4c1.2,1.8,4.7,2.1,5.8,0c0.2-0.5,0.6-0.9,0.8-1.4c-2-0.8-4.1-1.5-6.1-2.3
								c-0.2,1.4-0.2,2.3,0.1,3.7C39.3,258.3,45.7,256.8,44.6,252.9L44.6,252.9z"/>
						</g>
					</g>
					<g>
						<g>
							<path class="st0" d="M47.7,212.4h0.1c1.6-3.4-4.1-4.9-6.1-2.3c-0.3,0.4-0.6,0.7-0.9,1.1c2,0.8,4.1,1.5,6.1,2.3
								c1.7-3.8,3.3-7.5,5-11.3c1.3-3.2-4.5-5.3-6.1-2.3c-1.3,2.3-2.7,4.6-3.9,7c2.1,0.5,4.1,1,6.2,1.5c0-1.4,0.4-2.8,1.1-4.1
								c1.7-3.5-3.9-6.6-5.8-3c-0.6,1.2-1.2,2.3-1.8,3.5c2,0.8,4.1,1.5,6.1,2.3c1.4-4.6,3-9.1,4.6-13.7c1.1-3.3-4.2-5.2-6.1-2.3
								c-1.7,2.6-3,5.2-4,8c2.1,0.5,4.3,1.1,6.5,1.6c0.6-3.6,1.4-7.1,2.6-10.6c1.1-3.5-4-4.9-6.1-2.3c-0.9,1-1.4,2-2.1,3.1
								c2,0.8,4.1,1.5,6.1,2.3c1.6-4.6,3-9.3,4.5-13.9c1.2-3.7-5.2-5.3-6.5-1.6c-1.4,4.6-3,9.3-4.5,13.9c-1,3.2,4.5,5.5,6.1,2.3
								c0.6-1.2,1.2-2.1,2.1-3.1c-2-0.8-4.1-1.5-6.1-2.3c-1.1,3.5-2,7-2.6,10.6c-0.7,3.7,5.1,5.4,6.5,1.6c0.8-2.3,1.9-4.5,3.2-6.6
								c-2-0.8-4.1-1.5-6.1-2.3c-1.6,4.5-3,9.1-4.6,13.7c-1,3.2,4.5,5.5,6.1,2.3c0.6-1.2,1.2-2.3,1.8-3.5c-1.9-1-3.9-2-5.8-3
								c-1.1,2.4-1.8,4.5-2,7.1c-0.2,2.9,4.8,4.1,6.2,1.5c1.3-2.3,2.7-4.6,3.9-7c-2-0.8-4.1-1.5-6.1-2.3c-1.7,3.8-3.3,7.5-5,11.3
								c-1.4,3.4,4.1,4.9,6.1,2.3c0.3-0.4,0.6-0.7,0.9-1.1c-2-0.8-4.1-1.5-6.1-2.3c-0.6,1.2-0.4,2-0.1,3.2
								C42.2,217.9,48.5,216.3,47.7,212.4L47.7,212.4z"/>
						</g>
					</g>
					<g>
						<g>
							<path class="st0" d="M53.1,170.3c1.2,0.6,0.2,1.1,1.1-0.2c0.4-0.8,0.7-1.9,1-2.7c0.6-1.6,1.1-3.3,1.8-4.9
								c1.1-3.2-4.6-5.5-6.1-2.3c-0.9,1.9-1.9,3.9-2.8,5.8c2,0.8,4.1,1.5,6.1,2.3c0.7-2.3,1.3-4.5,2-6.8c0.6-1.8,1.2-3.4,0.9-5.3
								c-0.3-2.1-3.1-2.5-4.9-1.8c0,0-0.1,0-0.1,0.1c-1.2,0.5-2,2.3-1.6,3.4v0.1c1.7,3.5,8.1,2,6.5-1.6v-0.1c-0.6,1.1-1,2.3-1.6,3.4
								c0,0,0.1,0,0.1-0.1c-1.7-0.6-3.2-1.2-4.9-1.8c-0.1-0.7-0.6,0.9-0.6,1c-0.3,0.9-0.6,1.9-0.8,2.8c-0.4,1.7-1,3.4-1.4,5.1
								c-0.9,3.2,4.6,5.5,6.1,2.3c0.9-1.9,1.9-3.9,2.8-5.8c-2-0.8-4.1-1.5-6.1-2.3c-1.1,3-2.4,6-3.2,9.1c-0.6,2.3,0,4.4,2.4,5.5
								C53.5,177.1,56.9,172.1,53.1,170.3L53.1,170.3z"/>
						</g>
					</g>
					<g>
						<g>
							<path class="st0" d="M48.7,160.8c0.1-0.1,0.2-0.2,0.3-0.3c1.7,1.1,3.2,2.3,4.9,3.4c1.9-4.3,3.2-8.6,4.2-13.1
								c0.7-3.2-4.1-5.4-6.1-2.3c-1.7,2.6-3.6,6.1-3,9.2c0.2,1.2,1.9,2.3,3.2,2.2c0.1,0,0.1,0,0.2,0c2-0.2,3.1-1.2,3.3-3
								c0-0.1,0-0.1,0-0.2c0.4-3.8-6.2-3.8-6.7,0c0,0.1,0,0.1,0,0.2c1.1-1,2.2-2,3.3-3c-0.1,0-0.1,0-0.2,0c1.1,0.7,2.1,1.5,3.2,2.2
								c0.2,0.9,0.7-1.4,0.8-1.7c0.4-1,0.9-1.9,1.6-2.8c-2-0.8-4.1-1.5-6.1-2.3c-0.9,4.5-2.3,8.9-4.2,13.1c-1.1,2.6,2.6,4.5,4.9,3.4
								c1.4-0.7,2.4-1.8,2.8-3.3C56,158.6,49.6,156.9,48.7,160.8L48.7,160.8z"/>
						</g>
					</g>
					<g>
						<g>
							<path class="st0" d="M59,149.6c0-0.5,0-1-0.1-1.5c-0.1-2.8-4.7-4.3-6.2-1.5c-0.7,1.1-1.2,2.2-1.9,3.4c2,0.8,4.1,1.5,6.1,2.3
								c0.6-1.7,1-3.3,1.6-5c1-3.2-4.2-5.3-6.1-2.3c-0.3,0.6-0.7,1.1-1,1.7c2,0.8,4.1,1.5,6.1,2.3c0.7-2.1,1.1-4.1,1.3-6.3
								c0.4-3.4-5.8-4.1-6.6-0.8c-0.1,0.3-0.2,0.6-0.3,1c-1.3,2.4,0.9,5,3.8,4.4c5.6-1.1,4.1-10.3,3.7-13.8c-0.4-3.8-6.8-3.9-6.7,0
								c0.1,3.3-0.3,6.4-1.2,9.6c-1.1,3.7,5.3,5.3,6.5,1.6c1.1-3.7,1.7-7.4,1.6-11.2c-2.2,0-4.5,0-6.7,0c0.3,2.6,1.3,7-0.3,9.3
								c0.7-0.5,1.3-0.9,2-1.4c-0.1,0-0.2,0.1-0.3,0.1c1.2,1.5,2.6,2.9,3.8,4.4c0.4-0.8,0.8-1.5,1-2.4c-2.2-0.3-4.3-0.5-6.6-0.8
								c-0.2,1.6-0.7,3.1-1.1,4.7c-1,3.2,4.2,5.3,6.1,2.3c0.3-0.6,0.7-1.1,1-1.7c-2-0.8-4.1-1.5-6.1-2.3c-0.6,1.7-1,3.3-1.6,5
								c-1,3.2,4.3,5.4,6.1,2.3c0.7-1.1,1.2-2.2,1.9-3.4c-2.1-0.5-4.1-1-6.2-1.5c0,0.5,0,1,0.1,1.5C52.5,153.4,59.2,153.4,59,149.6
								L59,149.6z"/>
						</g>
					</g>
					<g>
						<g>
							<path class="st0" d="M73.1,257.8c-0.4,0-0.9,0.1-1.3,0.1c-1.8,0.1-3.3,1.3-3.3,3c0,0.3,0,0.6,0,0.9c1.7-0.9,3.3-1.7,5-2.6
								c-1.6-0.8-3.4-1.1-5.2-0.4c-1.1,0.4-2,1-2.3,2.1c-0.3,1,0,2.2,0.9,2.9c0.7,0.6,1.6,1.2,2.4,1.6c0.2-1.8,0.6-3.7,0.8-5.5
								c-0.7,0.1,0,0,0.2,0.1c-0.1,0-0.2,0-0.3-0.1c0.3,0.1,0.2,0.1-0.1,0c0,1.7,0,3.5,0,5.2c2.8-1.3,4.5-3.9,4.7-6.7
								c0.2-2.7-3.7-3.8-5.7-2.1c-0.7,0.6-1.4,1.2-2.1,1.8c-1.2,1.1-1.3,3.2,0,4.2c1.3,1.1,3.3,1.2,4.7,0c0.7-0.6,1.4-1.2,2.1-1.8
								c-1.9-0.7-3.8-1.4-5.7-2.1c0,0.4,0,0.3,0,0c0,0.2-0.1,0.3-0.1,0.5c0.2-0.6-0.2,0.3-0.3,0.4c0.3-0.5-0.2,0.2-0.4,0.4
								c0.6-0.4-0.3,0.2-0.6,0.2c-2.2,1-2.1,4.1,0,5.2c1.7,0.8,3.4,1,5.3,0.6c2.8-0.6,3.2-4.2,0.8-5.5c-0.2-0.1-0.6-0.3-0.8-0.4
								c0.4,0.3-0.2-0.2-0.2-0.3c-0.4,1.7-1,3.3-1.4,5c0.2-0.1,1-0.2,0.3-0.1c-0.1,0-0.2,0-0.3,0c0.3,0.1,0.3,0.1,0,0
								c2.1,1.1,5.1-0.3,5-2.6c0-0.3,0-0.6,0-0.9c-1.1,1-2.2,2-3.3,3c0.4,0,0.9-0.1,1.3-0.1c1.8-0.1,3.4-1.3,3.3-3
								C76.5,259.3,75,257.5,73.1,257.8L73.1,257.8z"/>
						</g>
					</g>
					<g>
						<g>
							<path class="st0" d="M73.1,260.8c0.1-1,0.4-1.9,0.9-2.8c-2-0.8-4.1-1.5-6.1-2.3c-0.1,0.3-0.1,0.6-0.2,0.9
								c-0.8,3.8,5.1,5.3,6.5,1.6c3.3-9.5,5.9-19.2,7.9-29c0.7-3.1-4.5-5.6-6.1-2.3c-2.7,5.2-4.5,10.4-5.5,16.1
								c-0.7,3.8,5.8,5.4,6.5,1.6c0.9-5.1,2.3-10,4.8-14.7c-2-0.8-4.1-1.5-6.1-2.3c-2,9.8-4.6,19.5-7.9,29c2.1,0.5,4.3,1.1,6.5,1.6
								c0.1-0.3,0.1-0.6,0.2-0.9c0.7-3.1-4.5-5.6-6.1-2.3c-0.7,1.4-1.2,2.7-1.6,4.2C65.9,263,72.3,264.5,73.1,260.8L73.1,260.8z"/>
						</g>
					</g>
					<g>
						<g>
							<path class="st0" d="M81.7,232.3c0.3-1.7,0.7-3.4,0.9-5.1c0.4-3-4.2-5.7-6.1-2.3c-0.7,1.3-1.4,2.6-2.1,4c1.9,1,3.9,2,5.8,3
								c1.9-4.1,3.7-8.1,4-12.5c0.2-2.9-4.8-4.2-6.2-1.5c-0.7,1.4-1.3,2.8-1.7,4.2c2.2,0.3,4.3,0.5,6.6,0.8c-0.1-1.1,0.1-1.9,0.4-3
								c-2.1-0.5-4.3-1.1-6.5-1.6c-0.3,1.7-0.9,3.4-1.4,5c2.1,0.5,4.3,1.1,6.5,1.6c0.4-1.2,0.7-2.4,0.9-3.6c0.7-3.7-5.1-5.4-6.5-1.6
								c-0.9,2.4-1.7,4.8-2.6,7.2c-1.1,3.2,4.5,5.4,6.1,2.3c2-3.9,3.2-7.9,3.6-12.2c0.3-3.9-6.3-3.8-6.7,0c-0.2,3.2-1.1,6.3-2.7,9.2
								c2,0.8,4.1,1.5,6.1,2.3c0.9-2.4,1.7-4.8,2.6-7.2c-2.1-0.5-4.3-1.1-6.5-1.6c-0.2,1.2-0.6,2.4-0.9,3.6
								c-1.2,3.7,5.2,5.3,6.5,1.6c0.6-1.7,1-3.3,1.4-5c0.9-3.8-5-5.3-6.5-1.6c-0.6,1.5-0.8,3-0.7,4.6c0.2,3.3,5.7,4.2,6.6,0.8
								c0.2-1,0.6-1.9,1-2.8c-2.1-0.5-4.1-1-6.2-1.5c-0.2,3.3-1.6,6.5-3,9.5c-1.7,3.5,3.8,6.6,5.8,3c0.7-1.3,1.4-2.6,2.1-4
								c-2-0.8-4.1-1.5-6.1-2.3c-0.2,1.7-0.6,3.4-0.9,5.1C74.6,234.4,80.9,236.1,81.7,232.3L81.7,232.3z"/>
						</g>
					</g>
					<g>
						<g>
							<path class="st0" d="M56,179.8c0.4-1.5,0.7-3.1,0.8-4.7c0.1-2.7-3.7-3.8-5.7-2.1c-0.6,0.5-1.1,0.9-1.8,1.4
								c1.9,0.7,3.8,1.4,5.7,2.1c0.1-1.2,0.4-2.3,0.8-3.5c0.9-2.7-3.4-5.3-5.6-2.9c-0.7,0.8-1.4,1.5-2.2,2.2
								c1.9,0.7,3.8,1.4,5.7,2.1c0-0.2,0.1-0.5,0.1-0.7c-1.9-1-3.9-2-5.8-3c-3.3,5.3-3.2,11.3-4.6,17.1c-0.9,3.8,5.6,5.4,6.5,1.6
								c1.2-5.2,1-10.9,3.9-15.7c2.1-3.4-3.7-6.4-5.8-3c-0.8,1.2-1.1,2.3-1,3.7c0.2,2.5,3.6,4,5.7,2.1c0.8-0.7,1.4-1.4,2.2-2.2
								c-1.9-1-3.7-1.9-5.6-2.9c-0.6,1.7-0.8,3.3-1,5.1c-0.3,2.8,3.8,3.7,5.7,2.1c0.6-0.5,1.1-0.9,1.8-1.4c-1.9-0.7-3.8-1.4-5.7-2.1
								c0,1.1-0.2,2-0.4,3.1C48.4,181.9,54.9,183.4,56,179.8L56,179.8z"/>
						</g>
					</g>
					<g>
						<g>
							<path class="st0" d="M42.5,200.9c0,0.1,0,0.1,0,0.2c0-0.3,0.1-0.5,0.1-0.8c0,0.3-0.1,0.5-0.2,0.8c0.1-0.2,0.2-0.5,0.3-0.7
								l-0.2,0.4c0,0,0.7-0.6,0.1-0.1c1.9,0.7,3.8,1.4,5.7,2.1c0-0.3,0-0.6,0-1c-0.1-1.6-1.4-3.1-3.3-3c-1.8,0.1-3.4,1.3-3.3,3
								c0,0.3,0,0.6,0,1c0,1.2,0.8,2.3,2,2.7c1.2,0.5,2.7,0.2,3.7-0.6c1.2-1.1,1.8-2.4,2-3.9c0.1-0.7-0.4-1.6-1-2.1S46.7,198,46,198
								C44,197.9,42.7,199.3,42.5,200.9L42.5,200.9z"/>
						</g>
					</g>
					<g>
						<g>
							<path class="st0" d="M78.1,236.3c1.1-1.7,1.9-3.3,2.4-5.2c1-3.3-4.1-5.1-6.1-2.3c-0.3,0.4-0.7,0.9-0.9,1.3
								c2.1,0.5,4.1,1,6.2,1.5c0.1-0.6,0.2-1.3,0.3-1.9c-2.1-0.5-4.3-1.1-6.5-1.6c-2,8.3-3.9,16.6-5.7,25c-0.8,3.8,5.6,5.4,6.5,1.6
								c1.8-8.3,3.7-16.7,5.7-25c0.9-3.8-5.2-5.3-6.5-1.6c-0.4,1.3-0.6,2.1-0.6,3.5c-0.1,3.1,4.6,3.9,6.2,1.5
								c0.3-0.4,0.7-0.9,0.9-1.3c-2-0.8-4.1-1.5-6.1-2.3c-0.3,1.4-0.9,2.7-1.8,3.8C70.2,236.6,76,239.6,78.1,236.3L78.1,236.3z"/>
						</g>
					</g>
					<g>
						<g>
							<path class="st0" d="M80,222.9c0.2-0.7,0.6-1.5,0.8-2.2c-2.1-0.5-4.3-1.1-6.5-1.6c-0.1,0.6-0.3,1.1-0.4,1.7
								c2.1,0.5,4.3,1.1,6.5,1.6c0.9-3.6,1.9-7.3,2.7-10.9c0.7-2.8-3.1-5.3-5.6-2.9c-1.6,1.5-1.9,2.5-1.3,4.5
								c0.9,3.3,6.6,2.6,6.6-0.8c0-5.3,0-10.6,0.1-15.9c0-3.9,0.6-7.4-2.3-10.5c-1.9-1.9-5.9-0.4-5.7,2.1c0.4,7,0.9,14,1.2,21.1
								c2.1-0.5,4.1-1,6.2-1.5c0.1-0.4,0.1-0.8,0.2-1.2c1.4-3.6-5-5.2-6.5-1.6c-0.9,2.2-0.6,3.8,0.4,5.8c1.3,2.7,6.3,1.3,6.2-1.5
								c-0.3-7-0.8-14-1.2-21.1c-1.9,0.7-3.8,1.4-5.7,2.1c1.8,1.9,0.3,8.5,0.3,11c0,3.7,0,7.5,0,11.2c2.2-0.3,4.3-0.5,6.6-0.8
								c-0.1-0.3-0.1-0.6-0.2-0.9c-0.3,1-0.6,1.9-0.9,2.9c0.2-0.2,0.4-0.5,0.7-0.7c-1.9-1-3.7-1.9-5.6-2.9
								c-0.9,3.7-1.8,7.3-2.7,10.9c-1,3.8,5.5,5.4,6.5,1.6c0.1-0.6,0.3-1.1,0.4-1.7c1-3.8-5.1-5.3-6.5-1.6c-0.2,0.7-0.6,1.5-0.8,2.2
								C72.2,224.9,78.7,226.6,80,222.9L80,222.9z"/>
						</g>
					</g>
					<g>
						<g>
							<path class="st0" d="M81,187.6c0-0.6,0-1.3,0-1.9c0-2.8-4.8-4.3-6.2-1.5c-0.2,0.4-0.4,0.8-0.6,1.2c2.1,0.5,4.1,1,6.2,1.5
								c0.3-3.2,0.3-6.4,0.3-9.7c-0.1-3.3-5.8-4.2-6.6-0.8c-0.3,1.6-0.3,3,0,4.6c0.7,3,5.7,2.8,6.5,0c1.1-4.1,0.4-7.9-0.7-12
								c-1-3.7-7.5-2.2-6.5,1.6c0.8,2.9,1.6,5.7,0.7,8.8c2.1,0,4.3,0,6.5,0c0-0.5,0-1,0-1.4c-2.2-0.3-4.3-0.5-6.6-0.8
								c0.1,3.2,0,6.5-0.3,9.7c-0.2,2.9,4.8,4.2,6.2,1.5c0.2-0.4,0.4-0.8,0.6-1.2c-2.1-0.5-4.1-1-6.2-1.5c0,0.6,0,1.3,0,1.9
								C74.5,191.4,81.1,191.4,81,187.6L81,187.6z"/>
						</g>
					</g>
					<g>
						<g>
							<path class="st0" d="M70.8,158.1c-0.1,0.7-0.3,1.5-0.3,2.2s0.1,1.6,0.4,2.3c0.6,1.5,1.3,2.6,2.6,3.8
								c-0.6-0.9-1.1-1.8-1.7-2.6v0.1c0.2-1.5,0.4-3.1,0.7-4.6c0,0,0,0,0,0.1c1.3-0.9,2.7-1.8,4-2.8c0,0,0,0-0.1,0
								c1.2,0,2.3,0,3.6,0c0,0,0,0-0.1,0c1.3,0.9,2.7,1.8,4,2.8c0,0,0,0,0-0.1c-0.7-1.3-2.4-2.4-4-2.8c-1.6-0.4-3.7-0.2-5.1,0.6
								c-1.4,0.8-2.7,2.1-3.1,3.6c-0.1,0.5-0.1,1.1-0.2,1.6c0,1.1,0.3,2.1,0.9,3c0.1,0.3,0.3,0.5,0.6,0.7c0.4,0.7,1.1,1.2,1.9,1.5
								c0.4,0.2,1.2,0.5,1.7,0.6c1.1,0.3,2.6,0.3,3.7,0c1.4-0.4,2.6-1.1,3.4-2.2c1.3-1.5,1.8-3.5,1.2-5.4c-0.3-1.3-1.2-2.1-2.1-3.1
								c0.3,0.4,0.7,0.8,1,1.2c-0.1-0.2-0.2-0.4-0.3-0.5c0.2,0.5,0.4,1,0.7,1.4c-0.1-0.3-0.2-0.5-0.2-0.8c0.1,0.5,0.1,1.1,0.2,1.6
								c0-0.2,0-0.4,0-0.6c-0.1,0.5-0.1,1.1-0.2,1.6c0-0.1,0-0.1,0-0.2c0.3-0.8,0.3-1.6,0.1-2.4c0-0.8-0.3-1.5-0.8-2.2
								c-0.8-1.2-2.4-2.4-4-2.8c-1.7-0.3-3.7-0.3-5.1,0.6C72.4,155.4,71,156.6,70.8,158.1L70.8,158.1z"/>
						</g>
					</g>
				</g>
				<g>
					<g>
						<g>
							<g>
								<g>
									<g>
										<g>
											<g>
												<path d="M35.8,279.8c5.7,0.2,11.4,0.4,17.1,0.9c1.2,0.1,1.2-1.1,0-1.2c-5.7-0.4-11.4-0.7-17.1-0.9
													C34.5,278.5,34.5,279.8,35.8,279.8L35.8,279.8z"/>
											</g>
										</g>
										<g>
											<g>
												<path d="M35.9,279.3c1.4-21.9,3.2-43.8,5.2-65.6c0.1-0.8-1.2-0.8-1.3,0c-2,21.9-3.8,43.7-5.2,65.6
													C34.6,280,35.9,280,35.9,279.3L35.9,279.3z"/>
											</g>
										</g>
									</g>
									<g>
										<g>
											<g>
												<path d="M53.1,137.6c0.1-7.6,0.1-16,4.2-22.9c4.7-7.9,13.8-8.6,22.7-8.4c0.9,0,0.9-1.2,0-1.2
													c-8.1-0.2-16.7,0.2-22.1,6.4c-6.1,7.1-6.1,17.5-6.2,26C51.7,138.4,53.1,138.4,53.1,137.6L53.1,137.6z"/>
											</g>
										</g>
										<g>
											<g>
												<g>
													<path d="M55.5,279.9c2.2-22.2,3.9-44.4,6.7-66.6c0.1-0.8-1.2-1.1-1.3-0.3c-2.7,22.2-4.6,44.6-6.7,66.9
														C54.1,280.6,55.4,280.6,55.5,279.9L55.5,279.9z"/>
												</g>
											</g>
											<g>
												<g>
													<path d="M62.5,214.4c3.7-15.1,6.3-30.4,9.1-45.7c0.2-0.7-1.2-1-1.4-0.2c-2.9,15.2-5.4,30.6-9.1,45.7
														C61.1,215,62.3,215.2,62.5,214.4L62.5,214.4z"/>
												</g>
											</g>
											<g>
												<g>
													<path d="M63.3,157.1c2.8,5.5,5.3,11.5,12.4,13.3c0.8,0.2,1.2-0.9,0.3-1.2c-6.6-1.8-9-7.7-11.6-12.8
														C64.2,155.8,63,156.4,63.3,157.1L63.3,157.1z"/>
												</g>
											</g>
											<g>
												<g>
													<path d="M72.6,170.1c-0.1-0.2,0-0.4,0.1-0.6c0.6-0.6-0.7-1.2-1.1-0.6c-0.3,0.4-0.4,1-0.2,1.5
														C71.4,171.1,72.8,170.9,72.6,170.1L72.6,170.1z"/>
												</g>
											</g>
											<g>
												<g>
													<path d="M41.1,214.6c2.1-26,7.7-51.8,12.1-77.5c0.1-0.8-1.1-1.1-1.3-0.3c-4.5,25.8-10,51.7-12.1,77.8
														C39.6,215.4,41,215.4,41.1,214.6L41.1,214.6z"/>
												</g>
											</g>
											<g>
												<g>
													<path d="M61.7,264.9c4.8-16.3,8.6-32.9,11.3-49.5c0.1-0.8-1.4-0.8-1.5,0c-2.8,16.5-6.5,32.9-11.3,49.2
														C60,265.3,61.6,265.5,61.7,264.9L61.7,264.9z"/>
												</g>
											</g>
											<g>
												<g>
													<path d="M72.8,215.9c2.2-14.9,0-30.4-0.8-45.5c-0.1-0.8-1.8-0.9-1.7-0.1c0.7,15.1,2.9,30.6,0.8,45.5
														C70.9,216.5,72.6,216.6,72.8,215.9L72.8,215.9z"/>
												</g>
											</g>
										</g>
									</g>
								</g>
							</g>
						</g>
					</g>
					<g>
						<g>
							<path d="M82.4,264.5c3.1-27.9,3.1-56,3.7-84c0.3-13.9,0.7-27.7,1.7-41.5c0.8-11.5,2-23.6-6.1-33.4c-0.6-0.6-1.7,0-1.1,0.6
								c9.1,10.9,6.5,25,5.7,37.7c-0.9,13.5-1.2,27-1.4,40.6C84.1,211.2,84,238,81,264.6C80.9,265.3,82.2,265.3,82.4,264.5
								L82.4,264.5z"/>
						</g>
					</g>
					<g>
						<g>
							<path d="M61.6,265.5c4.7,0.5,9.5,1.4,14.4,1.5c2.3,0,5.1-0.3,5.7-2.2c0.3-0.8-1.4-1.1-1.7-0.3c-0.8,2.8-15.3,0.2-17.9-0.1
								C61,264.1,60.6,265.4,61.6,265.5L61.6,265.5z"/>
						</g>
					</g>
					<g>
						<g>
							<path d="M74.6,170.6c2.8,0.7,8,2.2,10.5,0c0.6-0.6-0.3-1.4-0.9-0.8c-1.1,1-3.1,0.6-4.6,0.5c-1.6-0.2-3.1-0.5-4.6-0.8
								C74.1,169.1,73.7,170.4,74.6,170.6L74.6,170.6z"/>
						</g>
					</g>
				</g>
			</g>
		</g>
	</g>
	<g>
		<g>
			<path class="st0" d="M148.3,204.6c-0.8-1.2-2.6-1.3-3.7-0.4c-1.1,0.9-1.6,2.3-1.7,3.8c0,0.2,0,0.5-0.2,0.7
				c-0.3,0.3-0.8,0.3-1.1,0.1c-0.7-0.4-1-1.2-1.2-2c-0.1-0.8,0-1.6-0.1-2.4c-0.1-1.7-0.9-3.2-1.6-4.7c-0.4,0.7-0.1,1.7,0.1,2.5
				c1.3,3.6,2.5,7.2,3.8,10.8c-0.6-1.1-1.1-2.2-1.7-3.4c0,0.7,0.2,1.4,0.5,2.1c-0.2-0.4-0.2-0.8-0.1-1.3c1.6,2.6,2.6,5.4,3.2,8.4"/>
			<g>
				<path class="st0" d="M150,202.8c-2.4-2.4-6.1-2.1-8.2,0.6c-0.5,0.6-1,1.5-1.1,2.3c-0.3,2.4,1.7,0.7,2.1-0.8c0.5-1.9-1.2-5-2-6.6
					c-0.9-1.8-4.2-1.5-4.6,0.6c-0.8,4.7,2.3,10.2,3.9,14.6c1.5-0.6,3-1.3,4.6-1.9c-0.6-1.1-1.1-2.2-1.7-3.4c-1.4-2.7-5-0.7-4.6,1.9
					c0,0.7,0.2,1.4,0.5,2.1c0.9,2.5,5.2,2.3,4.9-0.7c0-0.4-0.1-0.8-0.1-1.3c-1.6,0.4-3.1,0.8-4.7,1.3c1.4,2.5,2.3,5,2.9,7.8
					c0.7,3.1,5.5,1.8,4.8-1.3c-0.7-3.2-1.8-6.1-3.4-9c-1.2-2-4.9-1.3-4.7,1.3c0,0.4,0.1,0.8,0.1,1.3c1.6-0.2,3.3-0.4,4.9-0.7
					c-0.3-0.7-0.5-1.3-0.5-2.1c-1.5,0.6-3,1.3-4.6,1.9c0.6,1.1,1.1,2.2,1.7,3.4c1.2,2.5,5.5,0.8,4.6-1.9c-0.7-2-1.4-4.1-2.1-6.1
					c-0.5-1.6-2-4.2-1.8-5.9c-1.5,0.2-3,0.4-4.6,0.6c1.2,2.4,0.8,4.9,1.6,7.3c0.4,1.2,1.2,2.3,2.4,2.8c1.1,0.5,2.4,0.5,3.3-0.2
					c0.5-0.4,2.6-4.4,2.6-4.4C148.8,208.7,152.3,205.1,150,202.8L150,202.8z"/>
			</g>
		</g>
		<g>
			<path class="st0" d="M152.6,273.2c-1.2,0.9-2.5,1.8-3.7,2.7c0.8,0.3,1.6,0.4,2.5,0.3c-1,0.1-2.1,0.1-3.1,0.2c-0.3,0-0.8,0-1-0.3
				c-0.1-0.2-0.1-0.5-0.1-0.7c0.4-4.8,0.3-9.6-0.4-14.4c1,3.9,2.4,7.8,4.1,11.4c0.6-4.5-2.1-8.7-2.7-13.2c-0.2-2-0.1-4-0.8-5.8
				c-0.1,2.3-0.1,4.7-0.2,7c-0.1-3.1-0.7-6.1-1.6-9c0.2,2.9,0.6,5.8,1,8.7"/>
			<g>
				<path class="st0" d="M151.3,271c-1.2,0.9-2.5,1.8-3.7,2.7c-1.7,1.2-1.6,4,0.6,4.6c1.3,0.3,1.8,0.4,3.1,0.4c0-1.7,0-3.3,0-5
					c-0.5,0-1,0.1-1.5,0.1c-1.8,0.2-2.1,0.1-0.8,0c0.8,0.1,1.1-0.2,0.8-1c0-0.9,0.1-1.8,0.1-2.7c0-3-0.2-6-0.6-9
					c-1.6,0.2-3.3,0.4-4.9,0.7c1.1,4.1,2.6,8.1,4.3,12c1.1,2.4,4.6,1,4.7-1.3c0.2-3.5-0.8-6.4-1.8-9.7c-1-3.3-0.9-6.7-1.8-10
					c-0.8-2.7-4.8-2.1-4.9,0.7c-0.1,2.3-0.1,4.7-0.2,7c1.7,0,3.3,0,5,0c-0.2-3.3-0.8-6.5-1.7-9.7c-0.7-2.6-5.2-2.2-4.9,0.7
					c0.3,3.1,0.6,6.2,1.1,9.4c0.4,3.2,5.2,1.8,4.8-1.3c-0.4-2.7-0.6-5.3-0.9-8c-1.6,0.2-3.3,0.4-4.9,0.7c0.8,2.8,1.3,5.5,1.5,8.4
					c0.2,3.2,4.9,3.2,5,0c0.1-2.3,0.1-4.7,0.2-7c-1.6,0.2-3.3,0.4-4.9,0.7c0.8,2.7,0.6,5.6,1.3,8.3c0.9,3.4,2.3,6.4,2.1,10.1
					c1.6-0.4,3.1-0.8,4.7-1.3c-1.6-3.5-2.8-7.1-3.8-10.8c-0.7-2.6-5.3-2.2-4.9,0.7c0.3,2.7,0.6,5.4,0.6,8.1c0,2.1-0.7,5.3-0.1,7.3
					c1,3,3.8,2.4,6.5,2.3c3.2-0.2,3.2-5,0-5c-0.6-0.1-1.2-0.2-1.8-0.3c0.2,1.5,0.4,3,0.6,4.6c1.2-0.9,2.5-1.8,3.7-2.7
					C156.4,273.4,153.9,269.1,151.3,271L151.3,271z"/>
			</g>
		</g>
		<g>
			<path class="st0" d="M144.8,220.5c-0.9,10.6,0.3,21.3,1.5,32c-0.2-1.4-0.4-2.9-0.7-4.3"/>
			<g>
				<path class="st0" d="M142.3,220.5c-0.8,10.7,0.3,21.3,1.5,32c1.7,0,3.3,0,5,0c-0.2-1.7-0.5-3.3-0.8-4.9
					c-0.6-3.2-5.5-1.8-4.8,1.3c0.3,1.2,0.5,2.4,0.6,3.6c0.4,3.1,5.4,3.2,5,0c-1.2-10.6-2.3-21.3-1.5-32
					C147.5,217.2,142.5,217.3,142.3,220.5L142.3,220.5z"/>
			</g>
		</g>
		<g>
			<path class="st0" d="M143.4,212.5c0,0.3-0.1,0.7-0.1,1c-0.4-0.1-0.8-0.4-0.9-0.8c-0.6,0.5-0.7,1.5-0.6,2.3
				c0.1,0.8,0.5,1.6,0.7,2.4c0.3,1.1,0.2,2.3,0.2,3.4c0,2.6,0.5,5.1,0.9,7.6c0.4,2.3,0.8,4.6,1.2,6.9"/>
			<g>
				<path class="st0" d="M141,211.8c0,0.3-0.1,0.7-0.1,1c1.4-0.4,2.8-0.7,4.2-1.1c-0.3-0.3-0.6-0.6-0.9-0.8
					c-1.2-1.1-3.1-0.9-3.9,0.5c-1.8,3.3-0.2,7.3,0.1,10.8c0.3,4.6,1.3,9.1,2.1,13.7c0.5,3.2,5.4,1.8,4.8-1.3
					c-0.7-3.8-1.5-7.7-1.9-11.6c-0.1-1.6-0.1-3.2-0.3-4.8c-0.1-1.1-1.1-3.3-0.5-4.2c-1.3,0.2-2.6,0.3-3.9,0.5
					c0.3,0.3,0.6,0.6,0.9,0.8c1.2,1.1,3.9,0.9,4.2-1.1c0-0.3,0.1-0.7,0.1-1C146.3,210,141.5,208.6,141,211.8L141,211.8z"/>
			</g>
		</g>
		<g>
			<path class="st0" d="M133.2,262c1.1,0,2.1,0,3.2,0c0.1,0,0.2,0,0.3-0.1c0.2-0.1,0.1-0.4,0.1-0.6c-0.4-1.2-0.9-2.4-1.6-3.5
				c-0.3-0.5-0.7-0.9-1.1-1.4c-0.7-0.9-1.2-2-1.7-3c-0.6-1.3-1.2-2.7-1.9-4"/>
			<g>
				<path class="st0" d="M133.2,264.5c1.6,0,4,0.5,5.3-0.8c1.2-1.2,0.8-2.8,0.3-4.2c-0.8-1.9-1.9-3.3-3-5.1c-1.2-2-2.1-4.2-3-6.3
					c-1.4-2.9-5.7-0.4-4.3,2.5c1,2.1,1.8,4.3,3,6.3c1.1,1.8,2.5,3.2,3,5.3c0.1-0.6,0.2-1.3,0.3-1.9c0,0.1-0.1,0.2-0.1,0.3
					c0.5-0.4,1-0.8,1.5-1.1c-0.8,0.2-2,0-2.8,0C130,259.5,130,264.5,133.2,264.5L133.2,264.5z"/>
			</g>
		</g>
		<g>
			<path class="st0" d="M132.8,256.7c0.6,0.5,1.6,0.2,1.9-0.5c0.4-0.7,0.3-1.5,0-2.2c-0.3-0.7-0.8-1.3-1.2-2
				c-1.5-2.5-1.4-5.6-2.1-8.4c-0.6-2.4-1.6-4.7-2.5-7c-2-5-3.5-10.3-3.5-15.7"/>
			<g>
				<path class="st0" d="M132.1,259.1c2.1,0.4,4.1,0,5-2.2c1.2-3-1.4-5.5-2.2-8.2c-1.3-4.3-1.9-8.5-3.6-12.7
					c-1.9-4.9-3.2-9.7-3.4-15c-0.1-3.2-5.1-3.2-5,0c0.2,6.8,2.2,12.7,4.6,18.9c1.1,2.9,1.6,5.7,2.2,8.7c0.2,1.2,0.5,2.3,1,3.4
					c0.7,1.7,0.8,2,2.7,2.3C130.3,253.8,129,258.6,132.1,259.1L132.1,259.1z"/>
			</g>
		</g>
		<g>
			<path class="st0" d="M130.7,236.3c-1.2-4.2-2.3-8.4-3.5-12.6c-1.6-5.8-3.2-11.5-5.9-16.9"/>
			<g>
				<path class="st0" d="M133.1,235.6c-2.8-10.1-5.1-20.6-9.7-30.1c-1.4-2.9-5.7-0.4-4.3,2.5c4.4,9.1,6.5,19.2,9.2,28.9
					C129.2,240,134,238.7,133.1,235.6L133.1,235.6z"/>
			</g>
		</g>
		<g>
			<path class="st0" d="M126.9,170.4c-0.7,1.5-1,3.2-1.3,4.8c-1.3,8.7-2.2,17.4-2.6,26.1c-0.1,3-0.2,5.9,0.2,8.9
				c0.3,2.2,1,4.4,1.7,6.6c0.9-2.6,0.2-5.5-0.2-8.2c-0.5-3.9-0.3-7.8-0.1-11.7c0.3-5.2,0.6-10.3,1-15.5c0.1-1,0.1-1.9,0.4-2.9
				c0.2-0.7,0.5-1.4,0.7-2.1c0.3-1.4-0.2-3,0.3-4.3"/>
			<g>
				<path class="st0" d="M124.5,169.8c-2.8,7.2-2.9,16.4-3.5,24.1c-0.6,8.2-0.9,15.7,1.6,23.6c0.7,2.2,4.3,2.5,4.8,0
					c0.7-3.3,0.2-6.1-0.1-9.3c-0.5-4.4-0.2-8.7,0-13.1c0.4-7.4,0.8-14.9,2.2-22.1c0.6-3.1-4.2-4.5-4.8-1.3c-1.3,6.4-1.8,13-2.2,19.6
					c-0.2,3.9-0.5,7.8-0.5,11.7c0,4.3,1.5,9.2,0.6,13.3c1.6,0,3.2,0,4.8,0c-2.4-7.4-2-14.6-1.4-22.3c0.6-7.3,0.6-15.9,3.3-22.8
					C130.5,168.1,125.7,166.8,124.5,169.8L124.5,169.8z"/>
			</g>
		</g>
		<g>
			<path class="st0" d="M119.7,169.6c-0.3-0.2-0.7,0-1,0.3c-1.6,1.8-1.7,4.4-1.7,6.8"/>
			<g>
				<path class="st0" d="M120.4,167.2c-5-1.5-5.8,6.4-5.8,9.5c0,3.2,5,3.2,5,0c0-1.7-0.1-4.1,1.2-5.3c-0.4,0.2-0.7,0.4-1.1,0.6
					c0.1,0,0.2-0.1,0.3-0.1c-0.4,0-0.9,0-1.3,0c0.1,0,0.2,0.1,0.3,0.1C122.1,172.9,123.5,168.1,120.4,167.2L120.4,167.2z"/>
			</g>
		</g>
		<g>
			<path class="st0" d="M117.2,169.1c0-0.1,0.1-0.2,0.1-0.3"/>
			<g>
				<path class="st0" d="M119.4,170.4c0-0.1,0.1-0.2,0.1-0.3c0.6-1.2,0.3-2.8-0.9-3.4c-1.1-0.6-2.8-0.4-3.4,0.9
					c0,0.1-0.1,0.2-0.1,0.3c-0.6,1.2-0.3,2.8,0.9,3.4C117.1,171.9,118.7,171.6,119.4,170.4L119.4,170.4z"/>
			</g>
		</g>
		<g>
			<path class="st0" d="M120.3,153.4c-0.9,0-1.9,0-2.6-0.6c-0.6-0.6-0.8-1.5-0.9-2.3c-0.5-4-0.7-8.1-0.4-12.2"/>
			<g>
				<path class="st0" d="M120.3,150.9c-1.8-0.1-1.4-4.5-1.5-6c-0.1-2.2,0-4.4,0.1-6.7c0.2-3.2-4.8-3.2-5,0
					c-0.2,4.1-0.2,8.4,0.4,12.5c0.6,3.4,2.5,5,5.9,5.1C123.5,156,123.5,151,120.3,150.9L120.3,150.9z"/>
			</g>
		</g>
		<g>
			<path class="st0" d="M133,166.9c1.4,0.6,1.8,2.4,1.8,3.9c0,1.4-0.1,2.9-0.4,4.3c-0.8-1.1-1.3-2.4-1.4-3.8
				c1.5,1.9,2.1,4.5,1.6,6.9c-0.4-0.5-0.6-1.2-0.5-1.8c0.9,1.3,1.1,3,1.2,4.5c0.7,6.1,1,12.2,2.7,18.1"/>
			<g>
				<path class="st0" d="M131.2,168.7c1.6,1.3,1,4.1,0.8,5.8c1.5-0.2,3-0.4,4.6-0.6c-0.7-0.9-1.1-2-1.1-3.2c-1.5,0.6-3,1.3-4.6,1.9
					c1.2,1.9,1.5,3.4,1.3,5.6c1.6-0.4,3.1-0.8,4.7-1.3c-0.1-0.2-0.1-0.4-0.2-0.6c-1.6,0.4-3.1,0.8-4.7,1.3c1.7,3.6,1.4,8.5,1.9,12.4
					c0.4,3.3,1,6.4,1.8,9.6c0.8,3.1,5.6,1.8,4.8-1.3c-2-7.4-1-16.2-4.2-23.2c-1-2.2-4.8-1.2-4.7,1.3c0.1,1.3,0.3,2,0.9,3.1
					c1.3,2.3,4.4,1,4.7-1.3c0.3-3.1-0.3-5.6-2-8.2c-1.6-2.5-4.9-0.8-4.6,1.9c0.2,1.7,0.7,2.9,1.6,4.4c1,1.7,4.2,1.6,4.6-0.6
					c0.6-3.6,1.2-8.1-2-10.6C132.2,163.2,128.7,166.7,131.2,168.7L131.2,168.7z"/>
			</g>
		</g>
		<g>
			<path class="st0" d="M135.3,178.6c-0.5,0.2-0.6,0.9-0.5,1.4c0.2,2,0.4,4.1,0.7,6.1"/>
			<g>
				<path class="st0" d="M134.1,176.4c-1.6,1.1-1.8,2.6-1.7,4.4c0.2,2,0.4,4,0.8,5.9c0.2,1.3,1.9,2.1,3.1,1.7c1.4-0.4,2-1.7,1.7-3.1
					c-0.2-1.1-0.3-2.1-0.4-3.2c-0.1-0.6-0.1-1.1-0.2-1.7c0-0.2,0-0.4,0-0.6c0-0.5,0-0.4-0.1,0c-0.3,0.3-0.6,0.6-0.9,0.9
					c0.1-0.1,0.2-0.1,0.3-0.2C139.2,179,136.7,174.6,134.1,176.4L134.1,176.4z"/>
			</g>
		</g>
		<g>
			<path class="st0" d="M143.8,174.4c2.2,0.2,4.5-0.2,6.5-1.2c0.2-0.1,0.4-0.2,0.6-0.4c0.2-0.3,0.3-0.6,0.4-0.9
				c0.5-3-0.1-6.2-1.5-8.8"/>
			<g>
				<path class="st0" d="M143.8,176.9c3.1,0.2,8.6-0.4,9.7-3.9c1.2-3.6,0-8-1.6-11.3c-1.4-2.9-5.8-0.3-4.3,2.5
					c0.9,1.9,1.7,4.3,1.3,6.4c-0.2,0.8,0.5-0.1-0.2,0.5c-0.4,0.3-1,0.4-1.4,0.5c-1.1,0.3-2.2,0.3-3.4,0.2
					C140.6,171.7,140.6,176.7,143.8,176.9L143.8,176.9z"/>
			</g>
		</g>
		<g>
			<path class="st0" d="M148.1,184c3.7,9.1,6.4,18.5,8,28.2c-1.2-5.5-2.8-11-4.9-16.2c-1.4-3.5-3-7-3.2-10.7c0.7,5,1.4,10,2.1,15
				c0.2,1.7,0.5,3.4,0.3,5.1"/>
			<g>
				<path class="st0" d="M145.7,184.6c3.7,9.1,6.3,18.5,8,28.2c1.6-0.4,3.2-0.9,4.8-1.3c-1-4.6-2.3-9.1-3.9-13.6
					c-1.5-4.2-3.7-8.2-4.1-12.7c-1.6,0.2-3.3,0.4-4.9,0.7c0.9,6.3,2.6,13.1,2.3,19.5c-0.1,3.2,4.9,3.2,5,0
					c0.3-6.8-1.5-14.1-2.4-20.8c-0.4-2.8-5.2-2.1-4.9,0.7c0.4,4.4,2,8.2,3.6,12.3c1.9,5,3.4,10.1,4.6,15.3c0.7,3.2,5.4,1.8,4.8-1.3
					c-1.7-9.7-4.3-19.1-8-28.2C149.3,180.3,144.5,181.6,145.7,184.6L145.7,184.6z"/>
			</g>
		</g>
		<g>
			<path class="st0" d="M150.7,234.8c0.5,2.2,1.2,4.3,2,6.3c-0.1-6-0.7-12-1.6-17.9c-0.7-4.9-1.7-10.1-0.1-14.8
				c0.1-0.3,0.2-0.6,0.5-0.8c0.4-0.3,1-0.3,1.5-0.2c0.7,0.1,1.3,0.2,2,0.3c0.4,0.1,0.7,0.1,1,0.3c0.3,0.2,0.5,0.6,0.6,1
				c0.8,2,1.6,4.1,1.5,6.3c-0.1,1-0.3,2-0.5,3c-0.9,5.5,1.2,11.2,0,16.7"/>
			<g>
				<path class="st0" d="M148.3,235.5c0.6,2.2,1.2,4.3,2,6.3c0.9,2.5,5,2.3,4.9-0.7c-0.1-4.8-0.5-9.6-1.1-14.3
					c-0.6-4.7-2.2-10-1.3-14.8c0.5-2.5,1.6-2.3,2.3,0.1c0.7,2.5,0.2,4.7,0,7.1c-0.5,5.1,1,10.1,0.2,15.2c-0.5,3.1,4.3,4.5,4.8,1.3
					c0.6-3.6,0.3-7,0.1-10.6c-0.3-3.8,0.8-7.5,0.5-11.3c-0.4-5-2.6-9-8-8.8c-5.4,0.2-5.2,7.7-4.9,11.7c0.6,8.2,2.2,16.3,2.5,24.5
					c1.6-0.2,3.3-0.4,4.9-0.7c-0.8-2.1-1.4-4.2-2-6.3C152.3,231.1,147.5,232.4,148.3,235.5L148.3,235.5z"/>
			</g>
		</g>
		<g>
			<path class="st0" d="M140.3,111.7"/>
			<g>
				<path class="st0" d="M140.3,114.2c3.2,0,3.2-5,0-5C137.1,109.2,137.1,114.2,140.3,114.2L140.3,114.2z"/>
			</g>
		</g>
		<g>
			<path class="st0" d="M120.6,116.1c0.1-0.1-0.1-0.2-0.2-0.1c-2.9,1.5-5,4.6-5.3,7.9c0.4-2.1,0.8-4.2,1.3-6.3"/>
			<g>
				<path class="st0" d="M123,115.4c0,0,0-0.1,0-0.1c-0.3-1.1-1.3-1.8-2.4-1.8c-2.2,0-4.4,2.3-5.6,4c-1.4,1.9-2.1,4.1-2.4,6.5
					c-0.3,2.8,4.4,3.4,4.9,0.7c0.4-2.1,0.8-4.2,1.3-6.3c0.7-3.1-4.1-4.5-4.8-1.3c-0.5,2.1-0.9,4.2-1.3,6.3c1.6,0.2,3.3,0.4,4.9,0.7
					c0.3-2.5,1.9-4.6,4-5.8c-0.4,0.1-0.8,0.2-1.3,0.3c0.1,0,0.1,0,0.2,0c-0.8-0.6-1.6-1.2-2.4-1.8c0,0,0,0.1,0,0.1
					C119.1,119.8,124,118.5,123,115.4L123,115.4z"/>
			</g>
		</g>
		<g>
			<path class="st0" d="M159.3,230.7c0,0.2-0.1,0.3-0.1,0.5c-0.4-1.5-0.3-3.1-0.2-4.6c0.1-3.1-0.5-6.2-1.6-9.1"/>
			<g>
				<path class="st0" d="M156.9,230.1c0,0.2-0.1,0.3-0.1,0.5c1.6,0,3.2,0,4.8,0c-0.5-2.3,0-4.7-0.3-7.1c-0.2-2.3-0.8-4.5-1.5-6.6
					c-1.1-3-5.9-1.7-4.8,1.3c0.9,2.4,1.4,4.8,1.5,7.4c0,2.2-0.1,4.2,0.3,6.3c0.5,2.3,4.4,2.4,4.8,0c0-0.2,0.1-0.3,0.1-0.5
					C162.3,228.2,157.5,226.9,156.9,230.1L156.9,230.1z"/>
			</g>
		</g>
		<g>
			<g>
				<g>
					<g>
						<g>
							<path class="st0" d="M130.7,144.8c-3.8,2-0.3,7.1,3.9,5.7c3.8-2,4.6-7,0.1-8.9c-3.9-1.6-8.8,1.6-6.7,5.4
								c5.3,9.8,19.4-10.6,7.9-10.7c-2.6,0-4.1,2.5-2.9,4.5c3.3,5.4,10.2,1.6,9.9-3.7c-1.9,0.7-3.8,1.4-5.7,2.1
								c0.7,0.6,1.2,1,2.1,1.4c1.7,0.8,3.6,0.3,4.6-1.1c0.6-0.7,0.9-1.3,1.2-2.2c-1.3,0.7-2.8,1.4-4.1,2.1c10.2,1.4,5-17.4,3.1-21.8
								c-1.9-4.2-4.9-8-9.2-10.3c-4.8-2.6-9.1-1.6-14.2-2.1c-1-0.1-2.4,0.6-2.9,1.5c-3.3,6.9-5.5,14.5-2.2,21.8
								c2.6,5.6,7.6,12.6,13.7,15.4c15.5,7.2,13-18.3,3.7-22.6c-6.1-2.9-8.7,4.6-8.2,8.7c0.6,5,5.6,15,12,15.7c6.8,0.7,6-6.7,5-10.4
								c-1.2-4.1-4.6-15-10.8-14.5c-1.4,0.1-2.9,0.8-3.2,2.2c-0.9,3.9,1.8,12.2,6.8,13.4c7,1.7,6-7.7,5.1-11c-0.7-2.4-1.8-6-4.7-6.9
								c-2.2-0.7-4.7,0.5-5.7,2.2c-2.4,4.1,2.4,10.8,6.3,12.7c1.3,0.7,2.8,0.4,4-0.5c5.9-4.1-1.2-14.1-5-17.4
								c-2-1.8-5.8-0.5-5.7,2.1c0.2,4,1.3,7.5,3.9,10.9c1.9,2.5,6,1.5,6.2-1.5c0.2-4-1.1-14-7.5-14.1c-6.6-0.1-6.6,8.9-3.8,12.2
								c3.3,4,9.8,2.9,10.3-2.3c0.6-5.1-3.8-10.7-9.7-11c-7.2-0.4-6.8,6.5-3.9,10.5c3.2,4.4,9.8,4.1,10.6-1.6
								c0.4-3.5-2.2-12.3-7.9-11.1c-6.1,1.4-4.1,12.1-3,15.8c0.7,2.3,3.7,2.7,5.6,1.3c4.5-3.3,2.8-11.8-1.1-15
								c-5.7-4.7-8.6,4.5-8.9,7.7c-0.3,3.5,1.6,13.4,8,8.3c5.1-4,2.6-12.8-0.8-16.8c-1.6-1.9-5.5-2.1-6.1,0.7
								c-1.6,6.2-1,12.3,0.7,18.5c1.4,5.3,3,11.2,7,15.4c2.7,2.9,8.3,6.9,12.9,5.4c4.9-1.7,2.8-7.4,2.8-11c-2.2,0.3-4.3,0.5-6.6,0.8
								c0.6,1.3,1,2.5,1.4,3.8c1.2,3.4,6.1,2.5,6.6-0.8c0.3-2.2,0.4-4.3,0.3-6.5c-2.2,0.3-4.3,0.5-6.6,0.8c0.6,1.2,0.8,2.4,1,3.7
								c0.6,3.7,6.1,2.2,6.6-0.8c0.1-1.1,0-1.7-0.2-2.8c-2.1,0.5-4.3,1.1-6.5,1.6c0.1,0.5,0.2,1.1,0.3,1.6c0.8,3.5,6.5,2.4,6.6-0.8
								c0.1-1.1,0.1-2.2-0.1-3.3c-0.3-3.1-5.9-4.4-6.6-0.8c-0.9,5.2,1.6,10.5,2.3,15.7c1.1,7.3,2.2,14.5,3.3,21.8
								c2.1-0.5,4.3-1.1,6.5-1.6c-2.7-7.1-5.2-14.3-7.9-21.4c-1.1-3-7-2.7-6.6,0.8c1.1,7.7,2.8,15.3,4.7,22.9c1,3.9,7,2.1,6.5-1.6
								c-1.7-10.2-5-19.9-9.8-29.2c-1.4-2.8-6.3-1.3-6.2,1.5c0.2,10.3,4.5,20.9,7.1,30.8c0.9,3.3,6.9,2.6,6.6-0.8
								c-0.8-9.9-3.7-19.2-8.6-28c-1.8-3.2-6.9-0.9-6.1,2.3c2.4,9.7,4.8,19.3,7.2,28.9c1,3.8,7.1,2.1,6.5-1.6
								c-1.4-8-4.1-15.5-8-22.8c-1.3-2.6-6.6-1.4-6.2,1.5c1.1,7.9,2.9,15.7,4.9,23.5c1,3.8,7.1,2.1,6.5-1.6
								c-1.2-6.3-3.3-12.3-6.1-18.2c-1.7-3.4-6.6-0.7-6.1,2.3c1,5.7,2.3,11.3,4,16.8c1,3.2,6.9,2.6,6.6-0.8c-0.4-4-1.2-7.8-2.7-11.6
								c-1.2-3.1-6.7-2.7-6.6,0.8c0.2,5.5,2.8,10.7,2.6,16.3c2.2-0.3,4.3-0.5,6.6-0.8c-3.9-12.9-8.2-25.6-12.9-38.3
								c-1.3-3.7-7.3-2.2-6.5,1.6c1.2,5.4,4.1,9.9,8.5,13.7c2.1,1.8,5.7,0.5,5.7-2.1c0-5.6-1.7-10.8-5.3-15.4
								c-1.2-1.5-3.7-2.1-5.2-0.6c-2.9,2.8-1.6,4.9-1.4,8.4c0.1,3.9-1.9,8-2,12c-0.1,2.5,0.2,5.1,3.1,6.2c2.4,0.9,4.6,0,5.9-1.9
								c1.6-2.4-1-4.8-3.8-4.4c-5.3,0.9-6.8,5-7.3,9.4c-0.4,3.3,4.6,3.5,6.2,1.5c1.1-1.3,1.7-2.5,2-4.1c0.7-3.7-5.6-5.4-6.5-1.6
								c-1.2,4.6-2.1,9.2-3,13.9c-0.6,3.1,4.3,5.6,6.1,2.3c2.4-4.3,3-8.5,1.9-13.3c-0.8-3.2-5.3-2.5-6.5,0c-1.3,3.1-2.4,6.2-3.2,9.5
								c2.2,0.3,4.3,0.5,6.6,0.8c0-2.5,0-5.1,0-7.7c0-3.3-5.9-4.2-6.6-0.8c-0.6,2.3-0.8,4.6-0.8,6.9c0,4,6.2,3.8,6.7,0
								c0.3-2.7,0.3-5.4,0.1-8.2c-0.3-3.1-5.9-4.3-6.6-0.8c-0.4,1.9-0.6,3.7-0.4,5.6c0.3,3.9,6.2,3.8,6.7,0c0.2-2,0.3-4,0.2-6.1
								c-0.2-3.2-5.9-4.3-6.6-0.8c-0.4,2.3-0.7,4.6-0.7,7c0.1,3.9,6.6,3.9,6.7,0c0.1-3.5,0.1-6.9-0.1-10.4c-0.2-3.8-6.7-3.9-6.7,0
								c-0.1,2-0.1,4-0.1,6c2.2,0,4.5,0,6.7,0c-0.4-7.6-0.4-15-0.4-22.6c0-8.1-3-15.5-1-23.7c0.9-3.9-4.9-5.1-6.5-1.6
								c-2.8,6.1-0.9,12.2,1.4,18.2c1.4,3.6,7.9,2,6.5-1.6c-2-5-3.8-9.8-1.4-15c-2.1-0.5-4.3-1.1-6.5-1.6c-2,8.2-0.1,15.4,0.7,23.5
								c0.3,3.8-0.3,7.6-0.1,11.4c0.2,4.3,0.6,8.7,0.8,13c0.2,3.8,6.7,3.9,6.7,0c0.1-2,0.1-4,0.1-6c-2.2,0-4.5,0-6.7,0
								c0.2,3.5,0.2,6.9,0.1,10.4c2.2,0,4.5,0,6.7,0c0-1.9,0.1-3.5,0.4-5.4c-2.2-0.3-4.3-0.5-6.6-0.8c0.1,2,0,4-0.2,6.1
								c2.2,0,4.5,0,6.7,0c-0.1-1.4-0.1-2.7,0.2-4c-2.2-0.3-4.3-0.5-6.6-0.8c0.2,2.7,0.2,5.4-0.1,8.2c2.2,0,4.5,0,6.7,0
								c0-1.9,0.2-3.5,0.6-5.3c-2.2-0.3-4.3-0.5-6.6-0.8c0,2.5,0,5.1,0,7.7c0,3.3,5.8,4.1,6.6,0.8s1.8-6.4,3.2-9.5
								c-2.1,0-4.3,0-6.5,0c0.8,3.1,0.3,5.8-1.2,8.7c2,0.8,4.1,1.5,6.1,2.3c0.9-4.7,1.9-9.3,3-13.9c-2.1-0.5-4.3-1.1-6.5-1.6
								c0,1.1-0.4,2-1.3,2.7c2.1,0.5,4.1,1,6.2,1.5c-0.2-1.8,0.6-3,2.4-3.6c-1.2-1.5-2.6-2.9-3.8-4.4c2.8,0.7,4,0,3.4-2.1
								c0.1-1.1,0.3-2.3,0.6-3.4c0.3-1.6,0.9-3.1,1.1-4.7c0.2-1.2-0.8-6.7-0.1-7.3c-1.8-0.2-3.4-0.4-5.2-0.6
								c3.1,3.9,4.6,7.7,4.5,12.4c1.9-0.7,3.8-1.4,5.7-2.1c-3.7-3.2-5.8-6.6-6.8-11.1c-2.1,0.5-4.3,1.1-6.5,1.6
								c4.7,12.6,9,25.4,12.9,38.3c1,3.4,6.5,2.5,6.6-0.8c0.3-5.6-2.3-10.7-2.6-16.3c-2.2,0.3-4.3,0.5-6.6,0.8
								c1.2,3.3,2.1,6.5,2.4,10c2.2-0.3,4.3-0.5,6.6-0.8c-1.8-5.5-3.1-11.1-4-16.8c-2,0.8-4.1,1.5-6.1,2.3c2.7,5.4,4.3,11,5.5,16.8
								c2.1-0.5,4.3-1.1,6.5-1.6c-1.8-7.2-3.6-14.5-4.6-21.9c-2.1,0.5-4.1,1-6.2,1.5c3.7,6.8,6,13.9,7.3,21.3
								c2.1-0.5,4.3-1.1,6.5-1.6c-2.4-9.7-4.8-19.3-7.2-28.9c-2,0.8-4.1,1.5-6.1,2.3c4.3,7.9,6.9,16.2,7.7,25
								c2.2-0.3,4.3-0.5,6.6-0.8c-2.6-9.3-6.7-19.5-6.9-29.2c-2.1,0.5-4.1,1-6.2,1.5c4.6,8.8,7.5,18.1,9,27.8
								c2.1-0.5,4.3-1.1,6.5-1.6c-1.9-7.1-3.4-14.2-4.5-21.4c-2.2,0.3-4.3,0.5-6.6,0.8c2.7,7.1,5.2,14.3,7.9,21.4
								c1.4,3.8,7,2.1,6.5-1.6c-0.9-5.9-1.8-11.9-2.7-17.8c-0.4-2.6-0.8-5.3-1.3-8c-0.6-2.6-2.1-5.7-1.7-8.4
								c-2.2-0.3-4.3-0.5-6.6-0.8c0.2,1.1,0.2,2.2,0.1,3.3c2.2-0.3,4.3-0.5,6.6-0.8c-0.1-0.5-0.2-1.1-0.3-1.6
								c-0.8-3.8-7.2-2.2-6.5,1.6c-0.1,0.4-0.1,0.8-0.1,1.2c2.2-0.3,4.3-0.5,6.6-0.8c-0.2-1.3-0.6-2.4-1-3.7
								c-1.1-3.1-6.7-2.7-6.6,0.8c0.1,2.2,0,4.3-0.3,6.5c2.2-0.3,4.3-0.5,6.6-0.8c-0.6-1.3-1-2.5-1.4-3.8c-1.2-3.2-6.6-2.7-6.6,0.8
								c-0.1,1.2-0.4,3.3,0.1,4.5c-0.3,1.7,0.2,2,1.6,0.7c-0.7-0.3-1.4-0.6-2.2-0.9c-3.7-1.9-5.5-5.2-6.8-8.8
								c-2.6-7.2-4.7-14.7-2.8-22.2c-2,0.2-4.1,0.5-6.1,0.7c1.1,1.3,2.1,2.7,2.4,4.4c0,0,0.2,4.5-0.2,4.6c1.1,0.3,2.1,0.5,3.2,0.8
								c-0.9-0.6-0.4-7.1,0.7-7.6c-1.1,0-2.2,0-3.3,0c0.4,0.2,2.8,5.1,1.1,6.3c1.9,0.4,3.7,0.9,5.6,1.3c-0.6-1.3-0.8-2.6-0.9-4
								c-0.1-1.3,0-2.7,0.2-4c-3.1-0.8-3.8-0.2-2,1.9c0.1,2.4,0.3,2.7,0.8,1c0.3-1.7,0.9-1.5,1.8,0.7c1,2.1,1.1,2.1,0.1,0.1
								c1.2,2.6,1.8,4.7,1.6,7.5c2.1-0.5,4.1-1,6.2-1.5c-1.9-2.5-2.8-4.8-2.9-7.9c-1.9,0.7-3.8,1.4-5.7,2.1c0.8,0.7,6.9,7.6,5,8.9
								c1.3-0.2,2.7-0.3,4-0.5c-1.2-0.5-2.9-4.5-3.6-4.7c-0.8,0.8-1.7,1.7-2.6,2.6c0.1,0.5,0.3,1.1,0.4,1.6c-0.7,2-0.1,2.8,1.7,2.4
								c1.3,0.3,1.7,0.1,0.9-0.7c0.2-1.3-2.2-3.4-1.8-5c-1.1,0.7-2.1,1.5-3.2,2.2c0.1,0,3.4,7.4,3.6,7.8c0.3,0.9,0.6,3.2,1.1,3.9
								c0.7,0.4,1.3,0.8,2,1.2c-0.9-0.6-1.6-1.4-2.2-2.2c-1.9-2.2-3.8-4.8-4.2-7.6c-0.9-5.1-0.2-2,0.3-0.6c0.4,1.3,1.2,2.5,1.6,3.9
								c0.4,1.7,1.2,3.6-0.4,4.7c-1.8,1.1-2.8-0.6-4-1.7c-2.1-2-4-4.5-5.5-6.9c-4.1-6.4-3-12.9,0.1-19.5c-1,0.5-1.9,1-2.9,1.5
								c3,0.3,5.9-0.5,8.8,0.4c3,0.9,5.5,3.2,7,5.6c1.9,2.8,2.7,6.1,3.1,9.3c0.2,1,1.3,7.5,0.7,8c1.1-0.3,2.1-0.5,3.2-0.8
								c-0.2,0-0.4-0.1-0.7-0.1c-1.9-0.3-3.4,0.4-4.1,2.1c-0.2,0.3-0.3,0.5-0.6,0.8c1.6-0.4,3-0.7,4.6-1.1c-0.2-0.2-0.6-0.3-0.8-0.5
								c-2-1.7-5.9-0.6-5.7,2.1c0.9,0.2,1.7,0.4,2.6,0.6c-1,1.5-1.9,3-2.9,4.5c-0.4-0.2-0.9-0.3-1.3-0.5c-0.3-1-0.6-1.9-0.9-2.9
								c-0.1,0.7-0.3,1.5-0.7,2.2c-0.8,1.3-0.3,2.5,1.2,3.6c-0.6,0.9-1.1,1.7-1.7,2.6C131.7,146.1,131.2,145.4,130.7,144.8
								L130.7,144.8z"/>
						</g>
					</g>
					<g>
						<g>
							<path class="st0" d="M123.3,147.2c4.3,0,4.3-6,0-6S119,147.2,123.3,147.2L123.3,147.2z"/>
						</g>
					</g>
					<g>
						<g>
							<path class="st0" d="M129.1,140.6c1.6-3.6-4.9-5.2-6.3-1.5c-0.7,1.6-1.3,3.2-2,4.8c2.1,0.5,4.3,1.1,6.5,1.6
								c0.7-3.5,1-7,1.2-10.5c0.2-2.7-3.7-3.7-5.7-2.1c-2.2,1.9-2.1,4.1-2.4,6.8c-0.4,3.9-0.9,7.9-1.3,11.9c-0.4,3.9,6.1,3.8,6.7,0
								c0.3-2.6,0.6-5.1,0.2-7.8c-0.6-3.8-7.1-3.9-6.7,0c0.4,4.8,0.3,9.4-0.6,14.1c-0.6,2.8,3,5.1,5.6,2.9c3.9-3.4,6.7-7.5,9.5-11.8
								c3.1-4.8,6.6-9.5,9.2-14.6c1.2-2.4-0.8-4.9-3.8-4.4c-5.6,0.9-9.9,5.2-12.8,9.3c-2.7,3.8-6.5,10-5.7,14.6
								c0.3,1.9,3.2,2.8,4.9,1.8c0.1,0,0.1-0.1,0.2-0.1c1.6-0.8,2.2-2.7,1.2-4.1c0-0.1-0.1-0.1-0.1-0.2c-2.3-3.3-8.1-0.3-5.8,3
								c0,0.1,0.1,0.1,0.1,0.2c0.4-1.4,0.8-2.7,1.2-4.1c-0.1,0-0.1,0.1-0.2,0.1c1.7,0.6,3.2,1.2,4.9,1.8c-0.3-2.1,3.3-7.5,4.6-9.3
								c2.1-3.1,5-6.5,9.2-7.2c-1.2-1.5-2.6-2.9-3.8-4.4c-2.3,4.5-5.3,8.7-8.1,13c-2.9,4.3-5.5,8.7-9.6,12.2c1.9,1,3.7,1.9,5.6,2.9
								c1-5.2,1.3-10.4,0.8-15.7c-2.2,0-4.5,0-6.7,0c0.3,2.6,0.1,5.1-0.2,7.8c2.2,0,4.5,0,6.7,0c0.2-2.5,0.6-4.9,0.8-7.4
								c0.1-1.4-0.2-6.2,1-7.2c-1.9-0.7-3.8-1.4-5.7-2.1c-0.2,3-0.4,5.9-1,8.9c-0.7,3.8,5,5.3,6.5,1.6
								C127.8,143.8,128.4,142.2,129.1,140.6L129.1,140.6z"/>
						</g>
					</g>
					<g>
						<g>
							<path class="st0" d="M143.9,184c-2,3.4,3.8,6.4,6.2,3.4c1.7-2.8,2.3-5.4,1.9-8.5s-5.8-4.4-6.6-0.8c-0.3,1.7-0.4,2.2-0.2,4
								c0.3,2.6,4.7,4.5,6.2,1.5c1.3-2.4,1.9-4.5,1.7-7.2c-2.2,0.3-4.3,0.5-6.6,0.8c0.3,1,0.6,1.9,0.9,2.9c1,3.5,6.1,2.3,6.6-0.8
								c0.2-1.9,0.2-2.2-0.3-4.1c-1.1-3.8-7.1-2.1-6.5,1.6c0.1,1.1,0.4,2.1,0.9,3.1c1.2,3.1,6.7,2.7,6.6-0.8c0-1.8-0.2-2.6-0.7-4.4
								c-0.8-2.7-6-3-6.5,0c-0.6,3.4-1,6.7-1.6,10.1c2.1,0,4.3,0,6.5,0c-1.2-2.6-2.3-5.1-3.6-7.7c-1.1-2.4-5.8-3.3-6.5,0
								c-0.8,3.8-1.1,7.5-0.9,11.4c2.2-0.3,4.3-0.5,6.6-0.8c-0.8-2.9-1.8-5.6-3.2-8.3c-1.6-2.9-6-1.2-6.2,1.5
								c-0.3,4-0.1,7.7,0.6,11.6c2.1-0.5,4.3-1.1,6.5-1.6c-0.4-2.3-1.1-4.6-2-6.8c-1.3-3.3-6.2-2.6-6.6,0.8
								c-0.3,2.9-0.1,5.6,0.3,8.5c1.7-1.1,3.2-2.3,4.9-3.4c0.8,0.6-0.1-1.7-0.2-2.3c-0.3-1.2-0.6-2.3-0.8-3.5
								c-0.6-2.6-1.1-5.3-1.7-7.9c-0.7-3.2-5.5-2.5-6.5,0c-2,4.9,2.2,10.3,4.2,14.7c3,6.3,5.9,12.6,8.9,18.9
								c1.3,2.9,6.7,2.9,6.6-0.8c-0.2-5.5-1.4-10.6-3.8-15.7c-1.3-2.9-6.8-2.9-6.6,0.8c0.3,5.6,1.1,11.1,2.4,16.5
								c2.1-0.5,4.3-1.1,6.5-1.6c-0.8-2-1.4-4-2.2-6c-1.2-3.2-6.5-2.6-6.6,0.8c-0.1,3.3,0.1,6.5,0.6,9.8c2.2-0.3,4.3-0.5,6.6-0.8
								c-1.7-6.3-3.4-12.7-5.1-19.1c-0.8-2.8-5.8-2.9-6.5,0c-0.3,1.6-0.4,2.1-0.2,3.7c2.2-0.3,4.3-0.5,6.6-0.8
								c-0.3-1.8-0.6-2.2-1.4-3.8c-1.8-3.1-7.2-0.9-6.1,2.3c2.3,6.6,4.6,13.2,6.8,19.8c1,3,5.3,2.7,6.5,0c1.2-3.1,1-6,0.4-9.2
								c-0.8-5-0.9-9.8,0.1-14.8c-2.1,0-4.3,0-6.5,0c1.8,4.8,3.8,9.5,6,14.2c1.3,2.9,6.2,1.3,6.2-1.5c0-5.5-1-10.9-2.1-16.3
								c-2,0.8-4.1,1.5-6.1,2.3c0.9,1.7,1.7,3.4,2.4,5.1c1.3,2.8,6.5,1.3,6.2-1.5c-0.3-4.7-1-9.4-2-14c-0.6-2.8-6-2.9-6.5,0
								c-1.1,7.6,1.1,15.1,2.7,22.6c0.6,2.9,5.9,2.9,6.5,0c0.6-2.6,0.6-5,0-7.6c-0.8-3.4-6.5-2.5-6.6,0.8c-0.2,4.7,0.2,9.3,1,14
								c0.6,3.4,6.6,2.5,6.6-0.8c0-1.8-0.3-3.5-0.9-5.3c-1.1-3.4-6.3-2.5-6.6,0.8c-0.2,3.9,0,7.5,0.6,11.3c0.6,3.4,6.7,2.5,6.6-0.8
								c0-2.4-0.4-4.7-1.1-7c-0.8-2.7-5.9-3-6.5,0c-0.9,4.6-1.1,9.1-0.8,13.7c0.3,3.8,6.7,3.9,6.7,0c0-2.9-0.2-5.8-0.8-8.7
								c-0.6-2.9-5.9-2.9-6.5,0c-0.7,3.9-1,7.7-0.7,11.7c0.3,3.8,6.5,3.9,6.7,0c0.1-3.3-0.3-6.3-1.3-9.4c-0.9-2.6-6-3.1-6.5,0
								s-0.4,5.9,0.2,9c0.8,3.4,6.6,2.5,6.6-0.8c0-2.8-0.4-5.2-1.4-7.9c-1.2-3.4-6.1-2.5-6.6,0.8c-0.4,2.7-0.4,5.3-0.1,8
								c2.2,0,4.5,0,6.7,0c-0.2-2.2-0.7-4.3-1.3-6.5c-1.1-3.4-6.3-2.5-6.6,0.8c-0.2,2-0.2,3.8-0.1,5.8c2.2-0.3,4.3-0.5,6.6-0.8
								c-0.6-2.4-1.1-4.7-1.9-7.1c-1-3.2-6.8-2.6-6.6,0.8c0.1,1.3,0.2,2.6,0.3,3.9c2.2,0,4.5,0,6.7,0c-0.1-0.8-0.1-1.7-0.2-2.5
								c-2.2,0.3-4.3,0.5-6.6,0.8c1.3,8.3,3.3,16.4,5.9,24.4c1,3.1,5.3,2.6,6.5,0c1.8-4,2.1-7.9,1.4-12.2c-2.1,0.5-4.3,1.1-6.5,1.6
								c0.4,1.9,1,3.8,1.4,5.7c0.8,2.8,5.9,3,6.5,0c0.4-2.1,0.6-3.8,0.3-5.9c-2.2,0.3-4.3,0.5-6.6,0.8c0.6,1.8,1.1,3.6,1.7,5.4
								c0.8,2.3,4.9,3.1,6.1,0.7c2-3.9,0.8-7.9,0.2-12.1c-0.7-4.9-1.3-9.8-2.1-14.7c-0.6-3.4-6.8-2.5-6.6,0.8
								c0.1,1.8,0.2,3.5,0.3,5.3c0.2,3.8,6.7,3.9,6.7,0c0-3,0-6.1,0-9.2c0-3.5-5.5-4-6.6-0.8c-3.4,9.7-0.7,19.8-2.1,29.7
								c2.2,0,4.5,0,6.7,0c-0.4-3.1-0.8-6.2-1.2-9.3c-0.4-3-6-4.4-6.6-0.8c-2,12.7,3.2,25,2.2,37.8c-0.2,3.4,5.7,4,6.6,0.8
								c1.6-5.4,1.8-10.6,0.7-16.1c-0.7-3.4-6.6-2.5-6.6,0.8c0.1,4.8,0.6,9.5,1.4,14.2c0.6,2.8,6,2.9,6.5,0c1-5.5,1.2-10.9,0.6-16.4
								c-2.2,0-4.5,0-6.7,0c0.3,2.3,0.6,4.6,0.9,6.9c0.4,3.9,6.1,3.8,6.7,0c0.6-4.4,0.3-8.6-0.7-12.9c-0.9-3.8-7.1-2.2-6.5,1.6
								c0.3,1.9,0.7,3.7,1,5.5c0.7,3.4,6.6,2.4,6.6-0.8c0.1-3.6,0.1-7.2,0.2-10.8c0-3.4-5.8-4.1-6.6-0.8c-1,4.3-1.2,11.6-5.1,14.5
								c1.1-0.3,2.1-0.5,3.2-0.8c0.2,0-0.2-9.3-0.3-10.5c-0.3-4.1-0.6-8.2-0.9-12.3c-2.2,0.3-4.3,0.5-6.6,0.8c1.6,8.7,3,17.3,4.6,26
								c1.2,7.2,1.8,14.7,5.8,21.2c1-1.5,1.9-3,2.9-4.5c-2.1-0.1-3.9,0.1-5.9,0.8c1.4,1,2.8,1.9,4.2,2.9c0.3-6.5,0-12.9-0.8-19.4
								c-0.4-3.8-6.6-3.9-6.7,0c0,1.1-0.1,2.1-0.1,3.2c-0.1,3.9,6.5,3.8,6.7,0c0.1-2-0.3-3.5-1.2-5.3c-1.3-2.7-6.5-1.4-6.2,1.5
								c0.3,3.8,0.8,7.6,1.4,11.3c0.7,3.8,7.1,2.2,6.5-1.6c-0.6-3.2-1-6.5-1.2-9.7c-2.1,0.5-4.1,1-6.2,1.5c0.1,0.7,0.2,1.5,0.3,2.2
								c2.2,0,4.5,0,6.7,0c0-1.1,0.1-2.1,0.1-3.2c-2.2,0-4.5,0-6.7,0c0.8,6.4,1,12.9,0.8,19.4c-0.1,1.8,2.2,3.6,4.2,2.9
								c1.2-0.6,2.7-0.8,4.1-0.6c2.7,0.1,4.1-2.6,2.9-4.5c-3.9-6.4-4.2-14.6-5.5-21.7c-1.4-8-2.8-16.1-4.2-24.1
								c-0.6-3.4-6.8-2.5-6.6,0.8c0.4,6.3,0.9,12.6,1.3,18.9c0.2,2.9-0.1,7.2,3.1,9c8.7,4.8,11-13.9,11.8-17.3
								c-2.2-0.3-4.3-0.5-6.6-0.8c-0.1,3.6-0.1,7.2-0.2,10.8c2.2-0.3,4.3-0.5,6.6-0.8c-0.3-1.9-0.7-3.7-1-5.5
								c-2.1,0.5-4.3,1.1-6.5,1.6c0.8,3.8,0.9,7.5,0.3,11.3c2.2,0,4.5,0,6.7,0c-0.3-2.3-0.6-4.6-0.9-6.9c-0.4-3.8-7.1-3.8-6.7,0
								c0.7,4.9,0.6,9.8-0.2,14.8c2.1,0,4.3,0,6.5,0c-0.8-4.2-1.1-8.4-1.2-12.6c-2.2,0.3-4.3,0.5-6.6,0.8c0.8,4.4,0.6,8.6-0.7,12.9
								c2.2,0.3,4.3,0.5,6.6,0.8c1-12.1-4.3-24.1-2.4-36.2c-2.2-0.3-4.3-0.5-6.6-0.8c0.4,3.1,0.8,6.2,1.2,9.3c0.4,3.9,6.1,3.8,6.7,0
								c1.3-9.4-1.3-19,1.9-28.1c-2.2-0.3-4.3-0.5-6.6-0.8c0,3,0,6.1,0,9.2c2.2,0,4.5,0,6.7,0c-0.1-1.8-0.2-3.5-0.3-5.3
								c-2.2,0.3-4.3,0.5-6.6,0.8c0.6,4.1,1.2,8.1,1.8,12.2c0.3,2.8,2.1,7.4,0.8,10c2,0.2,4.1,0.5,6.1,0.7c-0.6-1.8-1.1-3.6-1.7-5.4
								c-1-3.2-7-2.6-6.6,0.8c0.2,1.4,0.2,2.9-0.1,4.3c2.1,0,4.3,0,6.5,0c-0.4-1.9-1-3.8-1.4-5.7c-1-3.9-7-2.1-6.5,1.6
								c0.4,3.2-0.1,6-1.4,9c2.1,0,4.3,0,6.5,0c-2.6-8-4.6-16.1-5.9-24.4c-0.6-3.4-6.9-2.5-6.6,0.8c0.1,0.8,0.1,1.7,0.2,2.5
								c0.3,3.8,7,3.9,6.7,0c-0.1-1.3-0.2-2.6-0.3-3.9c-2.2,0.3-4.3,0.5-6.6,0.8c0.7,2.3,1.3,4.7,1.9,7.1c0.8,3.3,6.8,2.5,6.6-0.8
								c-0.1-2,0-3.8,0.1-5.8c-2.2,0.3-4.3,0.5-6.6,0.8c0.4,1.6,0.9,3.2,1.1,4.9c0.4,3.8,7.1,3.8,6.7,0c-0.3-2.7-0.2-5.3,0.1-8
								c-2.2,0.3-4.3,0.5-6.6,0.8c0.8,2.1,1.1,4,1.1,6.3c2.2-0.3,4.3-0.5,6.6-0.8c-0.6-1.9-0.6-3.8-0.2-5.8c-2.1,0-4.3,0-6.5,0
								c0.9,2.7,1.2,5.1,1.1,7.8c2.2,0,4.5,0,6.7,0c-0.2-3.5-0.1-6.8,0.4-10.2c-2.1,0-4.3,0-6.5,0c0.4,2.3,0.6,4.7,0.6,7.1
								c2.2,0,4.5,0,6.7,0c-0.3-4.1-0.2-8.1,0.4-12.1c-2.1,0-4.3,0-6.5,0c0.6,1.8,0.8,3.5,0.9,5.4c2.2-0.3,4.3-0.5,6.6-0.8
								c-0.6-3.3-0.6-6.4-0.3-9.7c-2.2,0.3-4.3,0.5-6.6,0.8c0.4,1.2,0.7,2.4,0.6,3.7c2.2-0.3,4.3-0.5,6.6-0.8
								c-0.7-4.1-0.9-8.2-0.8-12.4c-2.2,0.3-4.3,0.5-6.6,0.8c0.4,1.4,0.4,2.9,0,4.4c2.1,0,4.3,0,6.5,0c-1.3-6.2-3.7-13.1-2.7-19.4
								c-2.1,0-4.3,0-6.5,0c0.9,4.1,1.4,8.2,1.8,12.4c2.1-0.5,4.1-1,6.2-1.5c-0.9-1.7-1.7-3.4-2.4-5.1c-1.6-3.4-6.8-0.8-6.1,2.3
								c1,4.9,1.9,9.7,1.9,14.7c2.1-0.5,4.1-1,6.2-1.5c-2-4.1-3.8-8.4-5.3-12.7c-1-2.6-5.8-3.1-6.5,0c-0.8,3.9-1.2,7.9-1,11.9
								s1.9,8.2,0.3,12.1c2.1,0,4.3,0,6.5,0c-2.3-6.6-4.6-13.2-6.8-19.8c-2,0.8-4.1,1.5-6.1,2.3c0.2,0.8,0.6,1.5,0.8,2.3
								c0.7,3.3,7,2.5,6.6-0.8c0-0.7,0-1.4,0-2.1c-2.1,0-4.3,0-6.5,0c1.7,6.3,3.4,12.7,5.1,19.1c0.9,3.2,7,2.6,6.6-0.8
								c-0.4-3.3-0.7-6.5-0.6-9.8c-2.2,0.3-4.3,0.5-6.6,0.8c0.8,2,1.4,4,2.2,6c1.3,3.7,7.3,2.2,6.5-1.6c-1.2-4.9-2-9.9-2.2-14.9
								c-2.2,0.3-4.3,0.5-6.6,0.8c2.1,4.5,3.3,9.1,3.6,14.1c2.2-0.3,4.3-0.5,6.6-0.8c-2.3-5.1-4.8-10.2-7.1-15.3
								c-1.2-2.7-2.6-5.4-3.8-8.1c-0.9-1.9-3-4.8-2.1-7c-2.1,0-4.3,0-6.5,0c0.8,3.8,1.6,7.6,2.3,11.4c0.6,2.7,0.8,4.3,3.2,5.9
								c2.7,1.7,5.2-1.1,4.9-3.4c-0.4-2.4-0.3-4.5-0.1-6.9c-2.2,0.3-4.3,0.5-6.6,0.8c0.9,2.2,1.6,4.5,2,6.8c0.8,3.8,7.1,2.1,6.5-1.6
								c-0.6-3.4-0.6-6.6-0.3-10c-2.1,0.5-4.1,1-6.2,1.5c1.2,2.2,1.9,4.4,2.6,6.8c0.9,3.3,6.8,2.6,6.6-0.8c-0.2-3.3,0-6.5,0.7-9.8
								c-2.1,0-4.3,0-6.5,0c1.2,2.6,2.3,5.1,3.6,7.7c1.1,2.3,5.9,3.3,6.5,0c0.6-3.4,1-6.7,1.6-10.1c-2.1,0-4.3,0-6.5,0
								c0.1,0.9,0.3,1.9,0.4,2.8c2.2-0.3,4.3-0.5,6.6-0.8c-0.6-1-0.8-2-0.9-3.1c-2.1,0.5-4.3,1.1-6.5,1.6c0,0.8,0.1,1.7,0.1,2.5
								c2.2-0.3,4.3-0.5,6.6-0.8c-0.3-1-0.6-1.9-0.9-2.9c-1-3.2-6.9-2.6-6.6,0.8c0.3,1.5,0.1,2.9-0.7,4.2c2.1,0.5,4.1,1,6.2,1.5
								c0-0.8,0-1.6,0-2.4c-2.2-0.3-4.3-0.5-6.6-0.8C145.1,180.6,145,182.1,143.9,184L143.9,184z"/>
						</g>
					</g>
					<g>
						<g>
							<path class="st0" d="M154.5,267.4c-0.7,3.8,5.8,5.4,6.6,1.6c0.2-1.4,0.2-2.4,0-3.9c-0.6-3.2-5.5-2.5-6.5,0
								c-0.8,1.7-0.6,2.6,0.4,4.2c1.3,2.2,5.7,1.9,6.1-0.7c1.3-7.3-0.2-15.3-1.3-22.5c-0.6-3.3-5.5-2.4-6.5,0
								c-1.6,3.5-1.7,7.1-1.7,10.9c0,4.3-0.7,8.1-1.3,12.3c-0.9,5.4,3.3,9.3,9.5,9.2c1.7,0,3.6-1.4,3.3-3c-0.3-2.3-0.6-4.7-0.9-7
								c-0.4-3.8-7.1-3.8-6.7,0c0.3,2.3,0.6,4.7,0.9,7c1.1-1,2.2-2,3.3-3c-4.8,0.1-2.3-4.3-2-6.4c0.2-1.6,0.3-3.2,0.4-4.8
								c0.2-4.6-0.4-9.1,1.4-13.6c-2.1,0-4.3,0-6.5,0c0.9,6,2.3,13.3,1.3,19.3c2-0.2,4.1-0.5,6.1-0.7c0.1,0.1,0.1,0.3,0.2,0.4
								c-2.1,0-4.3,0-6.5,0C154.5,266.9,154.5,267.2,154.5,267.4L154.5,267.4z"/>
						</g>
					</g>
					<g>
						<g>
							<path class="st0" d="M126.2,182.4c1.1-3.7-5.3-5.3-6.9-1.6c-1.4,4.9-2.7,9.8-3.7,14.8c2.2,0.3,4.3,0.5,6.6,0.8
								c0-5.9-0.2-11.9-0.8-17.8c-2.2,0-4.5,0-6.7,0c0.9,9,1.7,18,0.3,27c2.2,0,4.5,0,6.7,0c-0.1-2.6-0.1-5.1,0-7.7
								c0.1-3.3-6-4.2-6.6-0.8c-1.1,7.1,1.4,14.1,0.4,21.2c2.2,0,4.5,0,6.7,0c-0.2-2-0.3-4.1-0.6-6.1c-2.2,0.3-4.3,0.5-6.6,0.8
								c1.1,6.4,2,12.9,2.6,19.4c0.4,4.2,1.6,8.2,1.6,12.4c0,4.8,1.1,10.1,2.3,14.7c0.8,3.1,2.4,5.1,6.2,5.2c3.4,0.1,4.3-4,1.7-5.6
								c-0.9-0.5-0.9-6.7-1.1-8.1c-0.6-3-1.4-5.8-2.7-8.6c-1.4-3.2-6.1-2.6-6.6,0.8c-0.8,6.5-0.1,12.9,1.7,19.2
								c0.8-1.2,1.6-2.5,2.3-3.7c-0.7,0.2-1.4,0.3-2.1,0.5c1.3,0.7,2.8,1.4,4.1,2.1c-1.7-7.1-0.7-15.2-0.8-22.4
								c-0.1-3.3-5.9-4.2-6.6-0.8c-0.7,3.7-1,7.1-0.6,10.8c2.2,0,4.5,0,6.7,0c-0.6-5,1-10,0.2-15.1c-0.6-3.7-6.5-4-6.7,0
								c-0.1,2.3-0.2,4.5-0.3,6.8c2.2,0,4.5,0,6.7,0c0-6.4-0.3-12.8-1.1-19.1c-0.4-3.8-6.2-3.9-6.7,0c-0.4,4.2-0.2,8.2,0.6,12.4
								c0.7,3.8,7.1,2.2,6.5-1.6c-0.6-3.7-0.7-7.2-0.2-10.9c-2.2,0-4.5,0-6.7,0c0.8,6.4,1.2,12.7,1.1,19.1c0,3.9,6.5,3.8,6.7,0
								c0.1-2.3,0.2-4.5,0.3-6.8c-2.2,0-4.5,0-6.7,0c0.8,5-0.9,10-0.2,15.1c0.4,3.8,7.1,3.9,6.7,0c-0.3-3.1-0.3-6.1,0.3-9.2
								c-2.2-0.3-4.3-0.5-6.6-0.8c0.2,7.8-0.7,16.3,1.1,24c0.4,1.6,2.4,2.5,4.1,2.1c0.7-0.2,1.4-0.3,2.1-0.5
								c1.8-0.4,2.8-2.2,2.3-3.7c-1.7-5.8-2-11.6-1.3-17.6c-2.2,0.3-4.3,0.5-6.6,0.8c2,4.6,2.8,9.2,3.4,14.1
								c0.3,2.7,0.8,4.6,3.4,6.2c0.6-1.9,1.1-3.7,1.7-5.6c-0.6,0-2.3-19-2.9-21.5c-1.9-8.3-1.8-17.3-3.2-25.7
								c-0.6-3.4-6.9-2.5-6.6,0.8c0.2,2,0.3,4.1,0.6,6.1c0.3,3.9,6.1,3.8,6.7,0c1-6.6-1.7-13-0.7-19.6c-2.2-0.3-4.3-0.5-6.6-0.8
								c-0.1,2.6-0.1,5.1,0,7.7c0.2,4,6.1,3.7,6.7,0c1.2-9,0.6-18-0.3-27c-0.3-3.8-7-3.9-6.7,0c0.6,5.9,0.8,11.8,0.8,17.8
								c0,3.3,5.9,4.2,6.6,0.8C123.5,192.2,124.8,187.3,126.2,182.4L126.2,182.4z"/>
						</g>
					</g>
					<g>
						<g>
							<path class="st0" d="M123.3,136.7c-3.6,2.2-0.2,7.4,3.6,5.4c2.8-1.7,3.7-4.4,1.9-7.1c-1.6-2.4-5.1-1.6-6.1,0.7
								c-2.1,4.8,4.5,6.2,8,4.1c6-3.6,4.8-10.7,2.4-15.8c-2,0.8-4.1,1.5-6.1,2.3c2.6,4.9,10.9,7,12.7,0.4c-2,0.2-4.1,0.5-6.1,0.7
								c1.6,2.3,3.3,3.6,6.3,4.2c1.9,0.4,4.6-0.8,4.2-2.9c0-0.6-0.1-1.3-0.2-1.9c-1.7,0.9-3.3,1.7-5,2.6c0.6,0.4,1.2,0.9,1.8,1.4
								c1.7,1.8,4.8,0.7,5.6-1.3c0.1-0.5,0.3-0.9,0.4-1.3c-1.9,0.4-3.7,0.9-5.6,1.3c0.9,1,1.3,1.3,2.7,2c3,1.6,6-1.5,4.6-4.1
								c-1-1.9-2.1-3.9-3.2-5.8c-1.8,1.2-3.4,2.4-5.2,3.6c0.9,0.7,1.7,1.4,2.4,2.1c2.7,2.3,7.5-0.7,5.2-3.6
								c-1.3-1.8-2.6-3.5-3.4-5.5c-1.7,1.1-3.2,2.3-4.9,3.4c0.6,0.5,1.2,0.9,1.8,1.4c2.4,3.2,7.8,0.5,5.8-3c-1.8-3-3.8-5.6-6.2-8.1
								c-1.3,1.6-2.7,3.1-4,4.7c1.3,0.6,2.6,1.2,3.9,1.8c3.2,1.5,6.9-2.3,4-4.7c-3.2-2.7-6.6-4.5-10.8-5.5c0,1.9,0,3.9,0,5.8
								c1.1-0.3,2.2-0.4,3.3-0.4c3.8-0.1,4.6-5,0.9-5.9c-2.3-0.6-4.6-0.9-7-1.1c0.8,1.7,1.6,3.4,2.3,5.1c0.2-0.1,0.3-0.1,0.4-0.1
								c4.2-0.8,2.4-6.6-1.8-5.8c-1.4,0.3-2.2,0.7-3.3,1.6c-2.3,1.8-0.3,4.9,2.3,5.1c1.8,0.1,3.6,0.4,5.2,0.9c0.3-2,0.6-3.9,0.9-5.9
								c-1.8,0.1-3.4,0.3-5.1,0.6c-3.3,0.7-3.1,5,0,5.8c3.1,0.7,5.5,1.9,7.8,3.9c1.3-1.6,2.7-3.1,4-4.7c-1.3-0.6-2.6-1.2-3.9-1.8
								c-3.4-1.6-6.6,2.1-4,4.7c2,2.1,3.7,4.4,5.1,6.9c1.9-1,3.9-2,5.8-3c-1.1-1.6-2.3-2.7-4.1-3.6c-2.3-1.2-6.1,0.9-4.9,3.4
								c1.2,2.4,2.4,4.7,4.1,6.9c1.8-1.2,3.4-2.4,5.2-3.6c-0.9-0.7-1.7-1.4-2.4-2.1c-2.8-2.5-6.9,0.6-5.2,3.6c1,1.9,2.1,3.9,3.2,5.8
								c1.6-1.4,3-2.7,4.6-4.1c-0.4-0.4-0.9-0.7-1.3-1.1c-1.7-1.9-4.9-0.7-5.6,1.3c-0.1,0.5-0.3,0.9-0.4,1.3
								c1.9-0.4,3.7-0.9,5.6-1.3c-1.1-1.2-1.7-1.6-3.1-2.4c-1.9-1.1-5.3,0.3-5,2.6c0,0.6,0.1,1.3,0.2,1.9c1.4-1,2.8-1.9,4.2-2.9
								c-0.9-0.5-1.7-0.9-2.4-1.4c-1.4-2.1-5.5-1.9-6.1,0.7c-0.1-0.6-0.3-1.2-0.4-1.8c-1.7-3.1-7.6-0.8-6.1,2.3
								c0.8,1.6,1.4,3.1,1.7,4.9c0.4,1.1,0.2,2.3-0.4,3.4c0.4,1.1,0.8,2.3,1.2,3.4c-2,0.2-4.1,0.5-6.1,0.7
								C123,137.4,123.2,137.1,123.3,136.7L123.3,136.7z"/>
						</g>
					</g>
					<g>
						<g>
							<path class="st0" d="M155.9,274.9c2.4,3.2,8.2,0.2,5.9-2.9c-0.1,0-0.1-0.1-0.1-0.1c-0.4,1.4-0.8,2.7-1.2,4.1
								c0.1,0,0.1-0.1,0.2-0.1c-1.7-0.6-3.2-1.2-4.9-1.8c0.4,3,3,3,5.6,3.9c2.7,0.9,5.3-2.3,3.8-4.4c-1-1-1.6-2.1-1.8-3.4
								c-2,0.8-4.1,1.5-6.1,2.3c0.3,0.7,0.8,1.3,1.2,1.9c1.2,1.6,3.6,2,5.2,0.6c3.6-3.1-0.8-9.5-0.7-13.3c-2.2,0.3-4.3,0.5-6.6,0.8
								c0.4,1.1,1,2.2,1.4,3.3c1.6,3.5,7.3,2.3,6.5-1.6c-0.9-4-2.4-8.3-1.9-12.5c-2.2,0.3-4.3,0.5-6.6,0.8c0.8,2.1,1.4,4.2,2.2,6.3
								c1.3,3.7,7.8,2.1,6.5-1.6c-0.8-2.1-1.4-4.2-2.2-6.3c-1.2-3.4-6.1-2.4-6.6,0.8c-0.7,4.7,1.1,9.5,2.1,14.1
								c2.1-0.5,4.3-1.1,6.5-1.6c-0.4-1.1-1-2.2-1.4-3.3c-1.3-3-6.5-2.8-6.6,0.8c0,1.8,0.1,3.5,0.6,5.2c0.2,1,0.6,5.1,2,3.9
								c1.8,0.2,3.4,0.4,5.2,0.6c-0.6-0.6-0.9-1.2-1.2-1.9c-1.8-3.1-7-0.9-6.1,2.3c0.6,1.8,1.2,3.2,2.4,4.8c1.2-1.5,2.6-2.9,3.8-4.4
								c-1.9-0.7-1-0.5-0.9,0.2c-0.3-2-3.2-2.6-4.9-1.8c-0.1,0-0.1,0.1-0.2,0.1c-1.6,0.7-2.2,2.8-1.2,4.1
								C155.9,274.8,155.9,274.9,155.9,274.9L155.9,274.9z"/>
						</g>
					</g>
					<g>
						<g>
							<path class="st0" d="M155.8,251.8c-1.1,3.8,5.3,5.3,6.5,1.6c0.3-1.4,0.3-2.3,0.1-3.7c-2,0.8-4.1,1.5-6.1,2.3
								c0.2,0.5,0.6,0.9,0.8,1.4c1.1,2.1,4.6,1.8,5.8,0c0.9-1.4,0.7-2.5,0.2-4c-0.8-2.7-1.7-5.4-2.1-8.2c-2.1,0.5-4.3,1.1-6.5,1.6
								c0.8,2.2,1.7,4.3,3,6.4c1.9,2.9,7.3,0.9,6.1-2.3c-1.3-3.4-2.2-6.8-2.7-10.4c-2.2,0.3-4.3,0.5-6.6,0.8
								c0.4,1.3,0.8,2.6,1.2,3.9c1.2,3.8,7.1,2.1,6.5-1.6c-0.1-0.9-0.3-1.7-0.8-2.5c-2.1,0.5-4.3,1.1-6.5,1.6
								c0.2,0.5,0.6,1.1,0.8,1.7c1.7,3.5,7.5,2.3,6.5-1.6c-0.8-3.2-0.3-6.1-1.9-9.1c-1.9-3.5-7.6-0.5-5.8,3c1.2,2.2,0.7,5.3,1.2,7.7
								c2.1-0.5,4.3-1.1,6.5-1.6c-0.2-0.5-0.6-1.1-0.8-1.7c-1.7-3.5-8-2.1-6.5,1.6c0.4,0.8,0.8,1.6,0.8,2.5c2.1-0.5,4.3-1.1,6.5-1.6
								c-0.4-1.3-0.8-2.6-1.2-3.9c-1-3.2-6.9-2.6-6.6,0.8c0.4,4.1,1.3,8.1,2.9,12c2-0.8,4.1-1.5,6.1-2.3c-1-1.6-1.7-3.3-2.3-5
								c-1.3-3.8-7-2.1-6.5,1.6c0.6,3.2,1.9,6.3,2.4,9.5c0.1-0.8,0.2-1.5,0.3-2.3c0,0.1-0.1,0.3-0.2,0.4c1.9,0,3.9,0,5.8,0
								c-0.2-0.5-0.6-0.9-0.8-1.4c-1.9-3.3-6.7-0.8-6.1,2.3C155.9,251.5,155.8,251.6,155.8,251.8L155.8,251.8z"/>
						</g>
					</g>
					<g>
						<g>
							<path class="st0" d="M152.7,211.3c-0.8,3.8,5.6,5.4,6.6,1.6c0.3-1.2,0.4-2-0.1-3.2c-2,0.8-4.1,1.5-6.1,2.3
								c0.3,0.4,0.6,0.7,0.9,1.1c2,2.6,7.6,1.1,6.1-2.3c-1.7-3.8-3.3-7.5-5-11.3c-2,0.8-4.1,1.5-6.1,2.3c1.2,2.4,2.6,4.7,3.9,7
								c1.4,2.6,6.5,1.4,6.2-1.5c-0.2-2.6-0.9-4.7-2-7.1c-1.9,1-3.9,2-5.8,3c0.6,1.2,1.2,2.3,1.8,3.5c1.7,3.2,7.1,0.9,6.1-2.3
								c-1.6-4.6-3-9.2-4.6-13.7c-2,0.8-4.1,1.5-6.1,2.3c1.3,2.1,2.4,4.3,3.2,6.6c1.3,3.8,7.1,2.1,6.5-1.6
								c-0.6-3.6-1.4-7.1-2.6-10.6c-2,0.8-4.1,1.5-6.1,2.3c0.9,1,1.6,1.9,2.1,3.1c1.7,3.2,7.1,0.9,6.1-2.3c-1.4-4.6-3-9.3-4.5-13.9
								c-1.2-3.7-7.7-2.1-6.5,1.6c1.4,4.6,2.9,9.3,4.5,13.9c2-0.8,4.1-1.5,6.1-2.3c-0.7-1.1-1.2-2.1-2.1-3.1
								c-2.1-2.6-7.2-1.2-6.1,2.3c1.1,3.5,2,7,2.6,10.6c2.1-0.5,4.3-1.1,6.5-1.6c-1-2.8-2.3-5.4-4-8c-1.9-2.9-7.2-1-6.1,2.3
								c1.6,4.6,3.1,9.1,4.6,13.7c2-0.8,4.1-1.5,6.1-2.3c-0.6-1.2-1.2-2.3-1.8-3.5c-1.9-3.6-7.5-0.5-5.8,3c0.7,1.3,1.1,2.7,1.1,4.1
								c2.1-0.5,4.1-1,6.2-1.5c-1.2-2.4-2.6-4.7-3.9-7c-1.7-3-7.5-0.9-6.1,2.3c1.7,3.8,3.3,7.5,5,11.3c2-0.8,4.1-1.5,6.1-2.3
								c-0.3-0.4-0.6-0.7-0.9-1.1c-2-2.6-7.7-1.1-6.1,2.3H152.7L152.7,211.3z"/>
						</g>
					</g>
					<g>
						<g>
							<path class="st0" d="M147.4,169.1c-3.8,1.8-0.4,6.9,3.2,5.2c2.4-1.1,3-3.2,2.4-5.5c-0.8-3.1-2.1-6.1-3.2-9.1
								c-2,0.8-4.1,1.5-6.1,2.3c0.9,1.9,1.9,3.9,2.8,5.8c1.6,3.2,7,0.9,6.1-2.3c-0.4-1.7-1-3.4-1.4-5.1c-0.2-0.9-0.4-1.9-0.8-2.8
								c0-0.1-0.4-1.7-0.6-1c-1.7,0.6-3.2,1.2-4.9,1.8c0,0.1,0.1,0.1,0.1,0.1c-0.6-1.1-1-2.3-1.6-3.4v0.1c-1.7,3.6,4.8,5.1,6.5,1.6
								v-0.1c0.4-1.1-0.3-2.9-1.6-3.4c0-0.1-0.1-0.1-0.1-0.1c-1.8-0.7-4.6-0.3-4.9,1.8c-0.3,1.9,0.3,3.5,0.9,5.3
								c0.7,2.3,1.3,4.5,2,6.8c2-0.8,4.1-1.5,6.1-2.3c-0.9-1.9-1.9-3.9-2.8-5.8c-1.6-3.2-7.2-0.9-6.1,2.3c0.7,1.6,1.2,3.3,1.8,4.9
								c0.3,0.8,0.6,1.9,1,2.7C147.1,170.2,146.1,169.7,147.4,169.1L147.4,169.1z"/>
						</g>
					</g>
					<g>
						<g>
							<path class="st0" d="M151.7,159.6c-0.9-3.8-7.2-2.2-6.5,1.7c0.3,1.5,1.3,2.6,2.8,3.3c2.3,1.1,6-0.8,4.9-3.4
								c-1.9-4.2-3.3-8.6-4.2-13.1c-2,0.8-4.1,1.5-6.1,2.3c0.7,0.9,1.1,1.8,1.6,2.8c0.1,0.3,0.6,2.6,0.8,1.7
								c1.1-0.7,2.1-1.5,3.2-2.2c-0.1,0-0.1,0-0.2,0c1.1,1,2.2,2,3.3,3c0-0.1,0-0.1,0-0.2c-0.4-3.8-7.1-3.8-6.7,0c0,0.1,0,0.1,0,0.2
								c0.2,1.8,1.3,2.8,3.3,3c0.1,0,0.1,0,0.2,0c1.3,0.1,3-1,3.2-2.2c0.6-3.1-1.3-6.6-3-9.2c-2-3.1-6.8-0.9-6.1,2.3
								c1,4.5,2.3,8.8,4.2,13.1c1.7-1.1,3.2-2.3,4.9-3.4C151.5,159.4,151.6,159.5,151.7,159.6L151.7,159.6z"/>
						</g>
					</g>
					<g>
						<g>
							<path class="st0" d="M141.5,148.4c-0.2,3.8,6.5,3.8,6.5,0c0.1-0.5,0.1-1,0.1-1.5c-2.1,0.5-4.1,1-6.2,1.5
								c0.7,1.2,1.2,2.3,1.9,3.4c1.8,3.1,7.1,0.9,6.1-2.3c-0.6-1.7-1-3.3-1.6-5c-2,0.8-4.1,1.5-6.1,2.3c0.3,0.6,0.7,1.1,1,1.7
								c1.9,3,7.1,0.9,6.1-2.3c-0.4-1.6-0.9-3.1-1.1-4.7c-2.2,0.3-4.3,0.5-6.6,0.8c0.2,0.9,0.6,1.6,1,2.4c1.2-1.5,2.6-2.9,3.8-4.4
								c-0.1,0-0.2-0.1-0.3-0.1c0.7,0.5,1.3,0.9,2,1.4c-1.7-2.3-0.7-6.7-0.3-9.3c-2.2,0-4.5,0-6.7,0c-0.1,3.8,0.4,7.5,1.6,11.2
								s7.6,2.1,6.5-1.6c-0.9-3.2-1.3-6.3-1.2-9.6c0.1-3.9-6.2-3.8-6.7,0c-0.4,3.5-1.9,12.7,3.7,13.8c2.9,0.6,5.1-2,3.8-4.4
								c-0.1-0.4-0.2-0.7-0.3-1c-0.8-3.3-7-2.6-6.6,0.8c0.2,2.2,0.7,4.2,1.3,6.3c2-0.8,4.1-1.5,6.1-2.3c-0.3-0.6-0.7-1.1-1-1.7
								c-1.9-3-7.1-0.9-6.1,2.3c0.6,1.7,1,3.3,1.6,5c2-0.8,4.1-1.5,6.1-2.3c-0.7-1.2-1.2-2.3-1.9-3.4c-1.6-2.8-6.1-1.3-6.2,1.5
								C141.5,147.4,141.5,147.9,141.5,148.4L141.5,148.4z"/>
						</g>
					</g>
					<g>
						<g>
							<path class="st0" d="M127.3,256.6c-1.9-0.2-3.3,1.5-3.2,3c-0.1,1.7,1.6,2.9,3.3,3c0.4,0,0.9,0.1,1.3,0.1c-1.1-1-2.2-2-3.3-3
								c0,0.3,0,0.6,0,0.9c-0.1,2.3,2.9,3.7,5,2.6c-0.3,0.1-0.3,0.1,0,0c-0.1,0-0.2,0-0.3,0c-0.7-0.1,0.1,0,0.3,0.1
								c-0.4-1.7-1-3.3-1.4-5c0,0.1-0.7,0.6-0.2,0.3c-0.2,0.1-0.6,0.3-0.8,0.4c-2.4,1.3-2,4.9,0.8,5.5c1.9,0.4,3.7,0.2,5.3-0.6
								c2.1-1.1,2.2-4.2,0-5.2c-0.2,0-1.1-0.6-0.6-0.2c-0.2-0.2-0.8-0.9-0.4-0.4c-0.1-0.1-0.6-1-0.3-0.4c0-0.2-0.1-0.3-0.1-0.5
								c0,0.3,0,0.4,0,0c-1.9,0.7-3.8,1.4-5.7,2.1c0.7,0.6,1.4,1.2,2.1,1.8c1.3,1.2,3.3,1.1,4.7,0c1.3-1,1.2-3.1,0-4.2
								c-0.7-0.6-1.4-1.2-2.1-1.8c-2-1.7-5.9-0.6-5.7,2.1c0.2,2.8,1.9,5.4,4.7,6.7c0-1.7,0-3.5,0-5.2c-0.3,0.1-0.4,0.1-0.1,0
								c-0.1,0.1-0.2,0.1-0.3,0.1c0.2-0.1,0.9,0,0.2-0.1c0.2,1.8,0.6,3.7,0.8,5.5c0.9-0.4,1.8-1,2.4-1.6c0.9-0.7,1.2-1.9,0.9-2.9
								c-0.3-1.1-1.2-1.7-2.3-2.1c-1.8-0.7-3.7-0.4-5.2,0.4c1.7,0.9,3.3,1.7,5,2.6c0-0.3,0-0.6,0-0.9c0-1.7-1.6-2.9-3.3-3
								C128.2,256.7,127.8,256.6,127.3,256.6L127.3,256.6z"/>
						</g>
					</g>
					<g>
						<g>
							<path class="st0" d="M127.3,259.6c0.8,3.8,7.2,2.2,6.5-1.6c-0.3-1.5-0.9-2.8-1.6-4.2c-1.7-3.3-6.8-0.8-6.1,2.3
								c0.1,0.3,0.1,0.6,0.2,0.9c2.1-0.5,4.3-1.1,6.5-1.6c-3.3-9.5-5.9-19.2-7.9-29c-2,0.8-4.1,1.5-6.1,2.3
								c2.4,4.7,3.9,9.6,4.8,14.7c0.7,3.8,7.1,2.2,6.5-1.6c-1-5.7-2.8-10.9-5.5-16.1c-1.7-3.3-6.8-0.8-6.1,2.3
								c2,9.8,4.6,19.5,7.9,29c1.3,3.7,7.2,2.2,6.5-1.6c-0.1-0.3-0.1-0.6-0.2-0.9c-2,0.8-4.1,1.5-6.1,2.3
								C126.9,257.7,127.2,258.6,127.3,259.6L127.3,259.6z"/>
						</g>
					</g>
					<g>
						<g>
							<path class="st0" d="M118.8,231.1c0.8,3.9,7.1,2.2,6.3-1.6c-0.3-1.7-0.7-3.4-0.9-5.1c-2,0.8-4.1,1.5-6.1,2.3
								c0.7,1.4,1.4,2.7,2.1,4c2,3.6,7.5,0.5,5.8-3c-1.4-3-2.8-6.2-3-9.5c-2.1,0.5-4.1,1-6.2,1.5c0.4,0.9,0.8,1.8,1,2.8
								c0.9,3.4,6.3,2.5,6.6-0.8c0.1-1.6-0.1-3.1-0.7-4.6c-1.4-3.7-7.3-2.2-6.5,1.6c0.4,1.7,0.9,3.3,1.4,5c1.2,3.7,7.7,2.1,6.5-1.6
								c-0.3-1.2-0.7-2.4-0.9-3.6c-2.1,0.5-4.3,1.1-6.5,1.6c0.9,2.4,1.7,4.8,2.6,7.2c2-0.8,4.1-1.5,6.1-2.3c-1.6-2.9-2.4-6-2.7-9.2
								c-0.3-3.8-7-3.9-6.7,0c0.3,4.3,1.6,8.3,3.6,12.2c1.7,3.1,7.2,0.9,6.1-2.3c-0.9-2.4-1.7-4.8-2.6-7.2c-1.3-3.8-7.1-2.1-6.5,1.6
								c0.2,1.2,0.4,2.4,0.9,3.6c2.1-0.5,4.3-1.1,6.5-1.6c-0.6-1.6-1.1-3.3-1.4-5c-2.1,0.5-4.3,1.1-6.5,1.6c0.3,1.1,0.6,1.9,0.4,3
								c2.2-0.3,4.3-0.5,6.6-0.8c-0.3-1.4-1-2.8-1.7-4.2c-1.4-2.7-6.5-1.4-6.2,1.5c0.3,4.4,2.1,8.4,4,12.5c1.9-1,3.9-2,5.8-3
								c-0.7-1.4-1.4-2.7-2.1-4c-1.9-3.4-6.6-0.7-6.1,2.3C118.1,227.7,118.4,229.4,118.8,231.1L118.8,231.1z"/>
						</g>
					</g>
					<g>
						<g>
							<path class="st0" d="M144.5,178.6c1.1,3.7,7.6,2.2,6.3-1.6c-0.2-1.1-0.4-2-0.4-3.1c-1.9,0.7-3.8,1.4-5.7,2.1
								c0.7,0.5,1.2,0.9,1.8,1.4c1.9,1.6,6,0.7,5.7-2.1c-0.2-1.8-0.4-3.4-1-5.1c-1.9,1-3.7,1.9-5.6,2.9c0.8,0.8,1.4,1.5,2.2,2.2
								c2.1,1.9,5.5,0.4,5.7-2.1c0.1-1.4-0.2-2.5-1-3.7c-2.1-3.4-7.9-0.4-5.8,3c2.9,4.8,2.7,10.5,3.9,15.7c0.9,3.8,7.3,2.2,6.5-1.6
								c-1.3-5.8-1.2-11.8-4.6-17.1c-1.9,1-3.9,2-5.8,3c0,0.2,0.1,0.5,0.1,0.7c1.9-0.7,3.8-1.4,5.7-2.1c-0.8-0.7-1.6-1.4-2.2-2.2
								c-2.1-2.4-6.5,0.2-5.6,2.9c0.3,1.2,0.7,2.3,0.8,3.5c1.9-0.7,3.8-1.4,5.7-2.1c-0.7-0.5-1.2-0.9-1.8-1.4
								c-2-1.7-5.8-0.6-5.7,2.1C143.8,175.5,144,177.1,144.5,178.6L144.5,178.6z"/>
						</g>
					</g>
					<g>
						<g>
							<path class="st0" d="M157.9,199.8c-0.2-1.7-1.4-3-3.4-2.9c-0.8,0-1.8,0.4-2.3,0.9c-0.6,0.5-1.1,1.4-1,2.1
								c0.2,1.5,0.8,2.8,2,3.9c1,0.8,2.4,1.1,3.7,0.6c1.2-0.4,2-1.5,2-2.7c0-0.4,0-0.7,0-1c0.1-1.7-1.6-2.9-3.3-3
								c-1.9-0.1-3.2,1.4-3.3,3c0,0.4,0,0.7,0,1c1.9-0.7,3.8-1.4,5.7-2.1c-0.6-0.5,0.1,0.1,0.1,0.1l-0.2-0.4
								c0.1,0.2,0.2,0.5,0.3,0.7c-0.1-0.3-0.2-0.5-0.2-0.8c0,0.3,0.1,0.5,0.1,0.8C157.9,199.9,157.9,199.9,157.9,199.8L157.9,199.8z
								"/>
						</g>
					</g>
					<g>
						<g>
							<path class="st0" d="M122.3,235.1c2.1,3.3,7.9,0.3,5.8-3c-0.9-1.1-1.4-2.4-1.8-3.8c-2,0.8-4.1,1.5-6.1,2.3
								c0.2,0.4,0.6,0.9,0.9,1.3c1.7,2.4,6.3,1.6,6.2-1.5c0-1.4-0.1-2.2-0.6-3.5c-1.2-3.7-7.3-2.2-6.5,1.6c2,8.3,3.9,16.7,5.7,25
								c0.9,3.8,7.2,2.2,6.5-1.6c-1.8-8.4-3.7-16.7-5.7-25c-2.1,0.5-4.3,1.1-6.5,1.6c0.1,0.6,0.2,1.3,0.3,1.9c2.1-0.5,4.1-1,6.2-1.5
								c-0.2-0.4-0.6-0.9-0.9-1.3c-2-2.8-7.1-1-6.1,2.3C120.4,231.8,121.2,233.4,122.3,235.1L122.3,235.1z"/>
						</g>
					</g>
					<g>
						<g>
							<path class="st0" d="M120.4,221.7c1.3,3.7,7.8,2.1,6.3-1.6c-0.2-0.7-0.6-1.5-0.8-2.2c-1.3-3.7-7.5-2.2-6.5,1.6
								c0.1,0.6,0.3,1.1,0.4,1.7c1,3.8,7.5,2.2,6.5-1.6c-0.9-3.6-1.8-7.2-2.7-10.9c-1.9,1-3.7,1.9-5.6,2.9c0.2,0.2,0.4,0.5,0.7,0.7
								c-0.3-1-0.6-1.9-0.9-2.9c-0.1,0.3-0.1,0.6-0.2,0.9c2.2,0.3,4.3,0.5,6.6,0.8c0-3.7,0-7.5,0-11.2c0-2.5-1.4-9.1,0.3-11
								c-1.9-0.7-3.8-1.4-5.7-2.1c-0.4,7.1-0.9,14.1-1.2,21.1c-0.1,2.8,4.9,4.2,6.2,1.5c1-2,1.3-3.6,0.4-5.8c-1.4-3.6-7.9-2-6.5,1.6
								c0.1,0.4,0.1,0.8,0.2,1.2c2.1,0.5,4.1,1,6.2,1.5c0.3-7.1,0.8-14.1,1.2-21.1c0.2-2.5-3.8-4-5.7-2.1c-2.9,3.1-2.3,6.6-2.3,10.5
								c0.1,5.3,0.1,10.6,0.1,15.9c0,3.4,5.7,4.1,6.6,0.8c0.6-2,0.2-3-1.3-4.5c-2.4-2.4-6.2,0.1-5.6,2.9c0.8,3.6,1.8,7.3,2.7,10.9
								c2.1-0.5,4.3-1.1,6.5-1.6c-0.1-0.6-0.3-1.1-0.4-1.7c-2.1,0.5-4.3,1.1-6.5,1.6C119.9,220.2,120.2,221,120.4,221.7L120.4,221.7
								z"/>
						</g>
					</g>
					<g>
						<g>
							<path class="st0" d="M119.4,186.4c-0.1,3.9,6.6,3.9,6.7,0c0-0.6,0-1.3,0-1.9c-2.1,0.5-4.1,1-6.2,1.5c0.1,0.4,0.3,0.8,0.6,1.2
								c1.4,2.7,6.5,1.4,6.2-1.5c-0.3-3.2-0.4-6.5-0.3-9.7c-2.2,0.3-4.3,0.5-6.6,0.8c0,0.4,0,0.9,0,1.4c2.1,0,4.3,0,6.5,0
								c-0.9-3.1-0.1-5.9,0.7-8.8c1-3.8-5.5-5.3-6.5-1.6c-1.1,4.1-1.8,7.9-0.7,12c0.8,2.8,5.8,3,6.5,0c0.3-1.6,0.3-3,0-4.6
								c-0.8-3.4-6.5-2.5-6.6,0.8c0,3.3,0,6.5,0.3,9.7c2.1-0.5,4.1-1,6.2-1.5c-0.1-0.4-0.3-0.8-0.6-1.2c-1.4-2.8-6.2-1.3-6.2,1.5
								C119.4,185.1,119.4,185.8,119.4,186.4L119.4,186.4z"/>
						</g>
					</g>
					<g>
						<g>
							<path class="st0" d="M129.7,157c-0.2-1.5-1.7-2.8-3.1-3.8c-1.4-0.9-3.4-0.9-5.1-0.6c-1.6,0.4-3.2,1.6-4,2.8
								c-0.4,0.7-0.8,1.4-0.8,2.2c-0.2,0.8-0.2,1.6,0.1,2.4c0,0.1,0,0.1,0,0.2c-0.1-0.5-0.1-1.1-0.2-1.6c0,0.2,0,0.4,0,0.6
								c0.1-0.5,0.1-1.1,0.2-1.6c0,0.3-0.1,0.5-0.2,0.8c0.2-0.4,0.4-0.9,0.7-1.4c-0.1,0.1-0.2,0.3-0.3,0.5c0.3-0.4,0.7-0.8,1-1.2
								c-0.9,1-1.8,1.8-2.1,3.1c-0.6,1.9-0.1,3.9,1.2,5.4c0.9,1.1,2,1.8,3.4,2.2c1.1,0.3,2.6,0.3,3.7,0c0.4-0.1,1.2-0.4,1.7-0.6
								c0.8-0.3,1.4-0.8,1.9-1.5c0.2-0.2,0.4-0.4,0.6-0.7c0.6-0.9,0.9-1.9,0.9-3c-0.1-0.5-0.1-1.1-0.2-1.6c-0.4-1.5-1.7-2.8-3.1-3.6
								c-1.4-0.8-3.6-1-5.1-0.6c-1.6,0.4-3.3,1.5-4,2.8c0,0.1,0,0.1,0,0.1c1.3-1,2.7-1.9,4-2.8c-0.1,0-0.1,0-0.1,0
								c1.2,0,2.3,0,3.6,0c-0.1,0-0.1,0-0.1,0c1.3,1,2.7,1.9,4,2.8c0-0.1,0-0.1,0-0.1c0.2,1.5,0.4,3.1,0.7,4.6v-0.1
								c-0.6,0.8-1.1,1.7-1.7,2.6c1.2-1.2,2-2.3,2.6-3.8c0.3-0.7,0.4-1.6,0.4-2.3S129.8,157.7,129.7,157L129.7,157z"/>
						</g>
					</g>
				</g>
				<g>
					<g>
						<g>
							<g>
								<g>
									<g>
										<g>
											<g>
												<path d="M164.7,278.6c1.2,0,1.2-1.2,0-1.2c-5.7,0.2-11.4,0.5-17.1,0.9c-1.2,0.1-1.2,1.3,0,1.2
													C153.3,279,159,278.8,164.7,278.6L164.7,278.6z"/>
											</g>
										</g>
										<g>
											<g>
												<path d="M164.5,278.1c0,0.8,1.3,0.8,1.3,0c-1.4-21.9-3.2-43.7-5.2-65.6c-0.1-0.8-1.4-0.8-1.3,0
													C161.3,234.3,163.1,256.2,164.5,278.1L164.5,278.1z"/>
											</g>
										</g>
									</g>
									<g>
										<g>
											<g>
												<path d="M147.4,136.5c0,0.8,1.3,0.8,1.4-0.1c-0.1-8.5-0.1-18.9-6.2-26c-5.5-6.2-14-6.6-22.1-6.4c-0.9,0-0.9,1.2,0,1.2
													c8.9-0.2,18,0.5,22.7,8.4C147.2,120.5,147.2,128.9,147.4,136.5L147.4,136.5z"/>
											</g>
										</g>
										<g>
											<g>
												<g>
													<path d="M144.9,278.7c0.1,0.7,1.4,0.8,1.3,0c-2.1-22.3-3.9-44.7-6.7-66.9c-0.2-0.8-1.4-0.6-1.3,0.3
														C141,234.3,142.7,256.5,144.9,278.7L144.9,278.7z"/>
												</g>
											</g>
											<g>
												<g>
													<path d="M138,213.3c0.2,0.7,1.4,0.5,1.4-0.2c-3.7-15.1-6.2-30.4-9.1-45.7c-0.1-0.8-1.5-0.6-1.4,0.2
														C131.7,182.8,134.3,198.2,138,213.3L138,213.3z"/>
												</g>
											</g>
											<g>
												<g>
													<path d="M137.1,155.9c0.3-0.7-0.9-1.3-1.1-0.7c-2.6,5.1-5,11-11.6,12.8c-0.9,0.3-0.4,1.4,0.3,1.2
														C131.8,167.4,134.3,161.4,137.1,155.9L137.1,155.9z"/>
												</g>
											</g>
											<g>
												<g>
													<path d="M127.9,169c-0.2,0.7,1.1,1,1.2,0.3c0.2-0.5,0.1-1.1-0.2-1.5c-0.4-0.6-1.7,0-1.1,0.6
														C127.9,168.6,128,168.8,127.9,169L127.9,169z"/>
												</g>
											</g>
											<g>
												<g>
													<path d="M159.4,213.4c0.1,0.8,1.4,0.8,1.3,0c-2.1-26.1-7.7-52-12.1-77.8c-0.2-0.8-1.4-0.5-1.3,0.3
														C151.7,161.6,157.3,187.4,159.4,213.4L159.4,213.4z"/>
												</g>
											</g>
											<g>
												<g>
													<path d="M138.8,263.7c0.1,0.7,1.6,0.4,1.5-0.3c-4.8-16.3-8.6-32.7-11.3-49.2c-0.1-0.8-1.6-0.8-1.5,0
														C130.2,230.8,134,247.4,138.8,263.7L138.8,263.7z"/>
												</g>
											</g>
											<g>
												<g>
													<path d="M127.7,214.7c0.2,0.8,1.9,0.7,1.7-0.1c-2.1-14.9,0-30.4,0.8-45.5c0.1-0.8-1.6-0.7-1.7,0.1
														C127.7,184.3,125.4,199.8,127.7,214.7L127.7,214.7z"/>
												</g>
											</g>
										</g>
									</g>
								</g>
							</g>
						</g>
					</g>
					<g>
						<g>
							<path d="M118.1,263.3c0.1,0.8,1.4,0.8,1.3,0.1c-3-26.6-3.1-53.4-3.7-80.1c-0.2-13.6-0.6-27.1-1.4-40.6
								c-0.8-12.7-3.4-26.8,5.7-37.7c0.6-0.6-0.6-1.2-1.1-0.6c-8.1,9.8-6.9,21.9-6.1,33.4c1,13.8,1.3,27.6,1.7,41.5
								C115,207.3,115,235.4,118.1,263.3L118.1,263.3z"/>
						</g>
					</g>
					<g>
						<g>
							<path d="M138.9,264.3c1-0.1,0.6-1.3-0.4-1.1c-2.6,0.3-17.1,2.9-17.9,0.1c-0.3-0.8-1.9-0.5-1.7,0.3c0.6,1.9,3.3,2.2,5.7,2.2
								C129.4,265.7,134.2,264.8,138.9,264.3L138.9,264.3z"/>
						</g>
					</g>
					<g>
						<g>
							<path d="M125.9,169.4c0.9-0.2,0.4-1.4-0.4-1.1c-1.4,0.3-3,0.6-4.6,0.8c-1.4,0.1-3.4,0.5-4.6-0.5c-0.6-0.6-1.4,0.2-0.9,0.8
								C117.9,171.6,123.1,170.1,125.9,169.4L125.9,169.4z"/>
						</g>
					</g>
				</g>
			</g>
		</g>
	</g>
</g>
</svg>
