<svg id="Layer_1" data-name="Layer 1" xmlns="http://www.w3.org/2000/svg" viewBox="0 0 76.61 74.58"><defs><style>.cls-1{fill:#ef7a22;}.cls-2{fill:#ed8622;}.cls-3{fill:#010101;}</style></defs><title>Orange</title><path class="cls-1" d="M112.8,94.3c0,.2-.1.3-.1.5a.61.61,0,0,0-.5-1.1h-.9a3.55,3.55,0,0,0,.4.9c0-.2-.1-.5-.1-.7a.59.59,0,0,0-.5.9c.1.2.2.3.3.5a.78.78,0,0,0,.7.3c1.2-.2,2.5-.5,3.7-.7.8-.2.4-1.3-.3-1.2-.3.1-.7.1-1,.2l.3,1.2a6.1,6.1,0,0,1,3.3-.6.6.6,0,1,0,0-1.2h-1.7v1.2a8.22,8.22,0,0,1,2.7.2.62.62,0,0,0,.3-1.2c-.3-.1-.7-.1-1-.2a.62.62,0,1,0-.3,1.2,6.87,6.87,0,0,0,2.4.5.65.65,0,0,0,.6-.6v-.2a.58.58,0,0,0-.6-.6h-.1c-.7-.1-.8,1-.2,1.2a6.89,6.89,0,0,1,.8.3c.4.2.8-.3.7-.7-.1.2-.1.3-.2.5a.61.61,0,0,0,.9-.4c.1-.4.3-.8.4-1.3a3.55,3.55,0,0,0-.9.4c-.1-.1-.2-.3-.3-.4-.2.6.8,1.1,1.1.5.2-.3.4-.7.6-1a.61.61,0,0,0-.6-1,33.84,33.84,0,0,1-9.5,1.1c.1.4.1.8.2,1.2l1.6-.3c-.2-.4-.3-.7-.5-1.1-.5.2-.9.3-1.4.5.2.4.3.7.5,1.1.3,0,.6-.1.9-.1-.1-.4-.1-.8-.2-1.2a14.92,14.92,0,0,0-2.1-.2v1.2l2.5-.6c-.2-.4-.3-.7-.5-1.1-.5.2-.9.4-1.4.6-.7.2-.4,1.4.3,1.2a18.54,18.54,0,0,0,3.3-1.2c.7-.3.1-1.4-.6-1-.6.2-1.1.4-1.7.6l.3,1.2a28.8,28.8,0,0,0,3.1-1.3c-.2-.3-.5-.6-.7-.9l-.4.4c-.4.5.1,1.3.7.9l2.7-1.8-.8-.8a7.22,7.22,0,0,1-2.3,2.3c.2.3.4.7.6,1a15.5,15.5,0,0,1,3.2-2c-.2-.3-.5-.6-.7-.9a5.46,5.46,0,0,1-2.4,1.8c.2.3.5.6.7.9.8-.5,1.5-1,2.3-1.5-.2-.3-.5-.6-.7-.9-.5.5-1.1,1-1.6,1.5l.8.8c.6-.6,1.3-1.2,1.9-1.8-.3-.2-.6-.3-.9-.5-.2.5-.3,1-.5,1.5.4.2.7.3,1.1.5.5-.6,1-1.2,1.6-1.8-.3-.2-.6-.5-.9-.7a10.93,10.93,0,0,0-.5,1.7c-.3.7.7,1.3,1,.6.3-.5.7-1,1-1.5-.3-.1-.7-.3-1-.4-.1.7-.3,1.3-.4,2l1.1.3c.1-.4.3-.8.4-1.2-.4-.2-.7-.3-1.1-.5,0,.5.1.9.1,1.4l-.7-.7c.7-.1,1.4-.3,2.1-.4-.3-.2-.5-.4-.8-.6l-.9,1.5c.3.2.7.4,1,.6a5.28,5.28,0,0,1,2.5-3.5c-.3-.2-.6-.5-.9-.7a9.16,9.16,0,0,1-1.8,3.2c.3.2.7.4,1,.6a3.5,3.5,0,0,1,1.4-2.8c-.3-.2-.6-.5-.9-.7a14.43,14.43,0,0,1-2.7,3.3c.3.2.7.4,1,.6a3.38,3.38,0,0,1,1.5-2.3c-.3-.2-.6-.5-.9-.7a7,7,0,0,1-2,2.2c.3.2.6.5.9.7a9.42,9.42,0,0,1,2.6-3l-.8-.8a11,11,0,0,1-5.8,3.3c.2.3.4.7.6,1a6.33,6.33,0,0,1,2.4-1.6c.7-.3.1-1.3-.6-1-.9.4-1.7.8-2.6,1.1.2.3.5.6.7.9.8-.7,1.6-1.5,2.5-2.2.5-.4-.2-1.3-.7-.9a9.06,9.06,0,0,1-1.6,1.1c.2.3.5.6.7.9a5.72,5.72,0,0,0,.8-.7l-.8-.8a12.13,12.13,0,0,0-1.4,1c.2.3.4.7.6,1,.6-.5,1.2-.9,1.8-1.4-.2-.3-.5-.6-.7-.9-.7.4-1.3.8-2,1.2.2.3.4.7.6,1a8.9,8.9,0,0,1,3.5-2.3c-.2-.3-.5-.6-.7-.9a9,9,0,0,1-2,1.4c.2.3.5.6.7.9.8-.5,1.5-1,2.3-1.6-.2-.3-.4-.7-.6-1-.2.3-.5.5-.7.8-.5.6.3,1.4.8.8s1.2-1.2,1.7-1.8c-.3-.2-.6-.5-.9-.7-.4.7-.9,1.4-1.3,2.1a.58.58,0,0,0,1,.6,5.3,5.3,0,0,1,2.1-2.1c-.3-.2-.6-.5-.9-.7a10.6,10.6,0,0,1-1.1,2.1.58.58,0,0,0,1,.6,8,8,0,0,1,2.2-2.3c-.3-.2-.6-.5-.9-.7a7.39,7.39,0,0,1-1.4,2.8c.3.2.6.5.9.7a13.29,13.29,0,0,1,2.1-2.6c-.3-.2-.7-.4-1-.6-.4.7-.7,1.4-1.1,2,.3.2.7.4,1,.6a8.81,8.81,0,0,1,1.1-2.4.58.58,0,0,0-1-.6,12.94,12.94,0,0,1-2.5,2.7c.3.1.7.3,1,.4.4-.7.8-1.4,1.2-2.2-.3-.2-.6-.5-.9-.7l-1.7,1.4c.2.3.5.6.7.9a19,19,0,0,1,2.4-2.5c.5-.4-.2-1.3-.7-.9-.7.5-1.4.9-2.1,1.4l.8.8a14.31,14.31,0,0,0,1.1-1.5c-.3-.2-.7-.4-1-.6-.2.3-.3.6-.5.9a.57.57,0,0,0,.9.7,31.53,31.53,0,0,0,3.5-3.8c-.3-.2-.6-.5-.9-.7a15.82,15.82,0,0,1-2.9,3.4c.3.2.7.4,1,.6a9.33,9.33,0,0,1,2.5-3.6c-.3-.2-.6-.5-.9-.7-.4.8-.8,1.7-1.3,2.5-.3.7.7,1.3,1,.6a17,17,0,0,1,2.7-3.9c-.3-.2-.6-.5-.9-.7-.6,1.3-1.2,2.6-1.9,3.9.3.2.7.4,1,.6a5.56,5.56,0,0,1,.9-1.7c-.4-.2-.7-.3-1.1-.5a34.54,34.54,0,0,1-1.4,3.4c.4.2.7.3,1.1.5a13.44,13.44,0,0,1,1.2-2.4c-.3-.2-.7-.4-1-.6a6.34,6.34,0,0,1-1.6,2.3c.3.2.7.4,1,.6a5.67,5.67,0,0,1,1.3-2.7c-.4-.2-.7-.3-1.1-.5a5.64,5.64,0,0,1-.4,1.2.62.62,0,0,0,1.2.3,5.64,5.64,0,0,1,.4-1.2.61.61,0,0,0-1.1-.5,8.64,8.64,0,0,0-1.4,2.9.61.61,0,0,0,1,.6,12,12,0,0,0,1.8-2.6c.3-.7-.6-1.3-1-.6a13.43,13.43,0,0,0-1.3,2.7c-.3.6.8,1.1,1.1.5.6-1.2,1.1-2.4,1.6-3.7a.61.61,0,0,0-1.1-.5,5.56,5.56,0,0,0-.9,1.7c-.3.7.7,1.3,1,.6.6-1.3,1.2-2.6,1.9-3.9a.57.57,0,0,0-.9-.7,19.1,19.1,0,0,0-2.9,4.1c.3.2.7.4,1,.6.4-.8.8-1.7,1.3-2.5a.57.57,0,0,0-.9-.7,11.08,11.08,0,0,0-2.8,4.2c-.3.6.6.9,1,.6a17.86,17.86,0,0,0,3.1-3.6c.4-.6-.5-1.3-.9-.7a31.53,31.53,0,0,1-3.5,3.8c.3.2.6.5.9.7.2-.3.3-.6.5-.9a.58.58,0,0,0-1-.6,14.31,14.31,0,0,0-1.1,1.5c-.4.5.3,1.1.8.8.7-.5,1.4-.9,2.1-1.4-.2-.3-.5-.6-.7-.9a16.61,16.61,0,0,0-2.6,2.7.62.62,0,0,0,.7.9,5,5,0,0,0,2.4-1.9c.4-.6-.5-1.1-.9-.7a4,4,0,0,0-1.5,3,.59.59,0,0,0,1,.4,14.75,14.75,0,0,0,2.6-3c-.3-.2-.7-.4-1-.6-.5.9-.8,1.8-1.2,2.7a.61.61,0,0,0,1,.6,5.1,5.1,0,0,0,1.4-2.6.62.62,0,0,0-1-.6,15.6,15.6,0,0,0-2.3,2.8c-.3.6.5,1.3.9.7a10.36,10.36,0,0,0,1.7-3.3c.1-.5-.5-1-.9-.7a11.53,11.53,0,0,0-2.7,2.7c.3.2.7.4,1,.6a12.68,12.68,0,0,0,1.2-2.3.62.62,0,0,0-.9-.7,9.9,9.9,0,0,0-2.5,2.5c.3.2.7.4,1,.6.4-.7.9-1.4,1.3-2.1a.57.57,0,0,0-.9-.7c-.6.6-1.2,1.2-1.7,1.8l.8.8c.2-.3.5-.5.7-.8a.61.61,0,0,0-.6-1,7,7,0,0,0-2.8,1.9.57.57,0,0,0,.7.9,17.68,17.68,0,0,0,2.2-1.6c.6-.5-.2-1.2-.7-.9a10.53,10.53,0,0,0-3.7,2.5.61.61,0,0,0,.6,1,5.43,5.43,0,0,0,2.5-1.5c.5-.5-.2-1.4-.7-.9s-1.2.9-1.8,1.4-.1,1.4.6,1a4.57,4.57,0,0,0,1.6-1.1c.6-.5-.3-1.3-.8-.8a5.72,5.72,0,0,0-.8.7c-.5.4.2,1.3.7.9a9.06,9.06,0,0,1,1.6-1.1c-.2-.3-.5-.6-.7-.9-.8.7-1.6,1.5-2.5,2.2a.57.57,0,0,0,.7.9c.9-.4,1.7-.8,2.6-1.1-.2-.3-.4-.7-.6-1a9.8,9.8,0,0,0-2.7,1.8c-.5.4,0,1.1.6,1a12.45,12.45,0,0,0,6.4-3.6.57.57,0,0,0-.8-.8,12.6,12.6,0,0,0-2.8,3.3c-.4.6.4,1.1.9.7a10.41,10.41,0,0,0,2.2-2.5c.4-.6-.5-1.1-.9-.7a4.74,4.74,0,0,0-1.8,2.8.62.62,0,0,0,1,.6,15.89,15.89,0,0,0,2.9-3.5.57.57,0,0,0-.9-.7,5.44,5.44,0,0,0-1.8,3.3c-.1.5.6,1.1,1,.6a13.59,13.59,0,0,0,2.1-3.7.62.62,0,0,0-.9-.7,7.67,7.67,0,0,0-3.1,4.2c-.2.6.6.9,1,.6a2.8,2.8,0,0,0,1.2-2.3.64.64,0,0,0-.8-.6c-1.3.5-4.1,2.1-2.8,3.7.2.2.4.4.7.3,1-.4,1.3-1.1,1.5-2.2.1-.4-.3-.9-.7-.7-.9.2-2.7,1.4-1.4,2.4s2.3-1.5,2.7-2.3-.7-1-1.1-.5c-.7.9-.6.7-.6,1.8a.58.58,0,0,0,1.1.3,4.75,4.75,0,0,0,.6-2.6c0-.5-.7-.8-1-.4a17.68,17.68,0,0,0-1.2,1.7c.3.2.7.4,1,.6a3.72,3.72,0,0,0,.7-2,.64.64,0,0,0-.9-.7,3.75,3.75,0,0,0-2.1,2.5c-.2.7.8,1,1.1.5a2.63,2.63,0,0,0,.6-2.1.59.59,0,0,0-.9-.5,5.44,5.44,0,0,0-2.3,2.2c-.4.6.3,1,.8.8a3.72,3.72,0,0,0,2-1.9c.2-.4-.2-1.1-.7-.9a6.45,6.45,0,0,0-2.8,1.8.57.57,0,0,0,.7.9,10.52,10.52,0,0,0,2.7-2,.57.57,0,0,0-.7-.9,24.9,24.9,0,0,0-3.2,2c-.6.5,0,1.5.6,1a9,9,0,0,0,2.7-2.8c.3-.5-.3-1.2-.8-.8l-2.7,1.8c.2.3.5.6.7.9l.4-.4a.57.57,0,0,0-.7-.9,13.9,13.9,0,0,1-2.8,1.2c-.7.3-.4,1.4.3,1.2a11.77,11.77,0,0,0,2-.7c-.2-.3-.4-.7-.6-1a12.13,12.13,0,0,1-3,1.1l.3,1.2a6.12,6.12,0,0,0,1.7-.7c.6-.3.2-1.2-.5-1.1l-2.5.6c-.6.1-.5,1,0,1.2a3.86,3.86,0,0,0,2.8.2c.7-.1.5-1.1-.2-1.2a2,2,0,0,0-1.5.3c-.7.3-.2,1.2.5,1.1a3.49,3.49,0,0,0,1.7-.6c.6-.4.2-1.2-.5-1.1l-1.6.3c-.7.1-.5,1.2.2,1.2a35.58,35.58,0,0,0,9.8-1.2c-.2-.3-.4-.7-.6-1a2.33,2.33,0,0,0-.8,1.2c.4.2.7.3,1.1.5,0-.1,0-.1.1-.2a.55.55,0,0,0-.3-.7h-.1a.61.61,0,0,0-.9.4c-.1.4-.3.8-.4,1.3a3.55,3.55,0,0,0,.9-.4,1.69,1.69,0,0,0-.5-.2.59.59,0,0,0-.7.1l-.2.2c-.2.1-.2.4-.2.6s0,.2.1.2l.7-.7a6.89,6.89,0,0,1-.8-.3c-.1.4-.1.8-.2,1.2a2.27,2.27,0,0,0-2-1.5l-.3,1.2c.3.1.7.1,1,.2l.3-1.2a15.53,15.53,0,0,0-3.1-.3.6.6,0,1,0,0,1.2h1.7V93.8a9.22,9.22,0,0,0-3.6.7.62.62,0,0,0,.3,1.2c.3-.1.7-.1,1-.2l-.3-1.2c-.2,0-3.1.8-3.3.5-.2.3-.3.6-.5.9.7,0,.8-.1,1.1-.7.1-.2.1-.6-.1-.7a1.15,1.15,0,0,0-2,.3.63.63,0,0,0,.4.9,2,2,0,0,0,1.5,0c-.2-.4-.3-.7-.5-1.1-.1,0-.1.1-.2.1a.54.54,0,0,0-.2.8c0,.1.1.1.1.2.6.1,1.6-.5,1.3-1.2Z" transform="translate(-62.32 -23.07)"/><path class="cls-1" d="M73,81.3a5.36,5.36,0,0,1-.5-1.1c-.3.2-.6.5-.9.7.5.6,1,1.1,1.5,1.7s1.3-.2.9-.7-.7-1-1-1.5l-.8.8a5.24,5.24,0,0,1,1.1,1l.8-.8a11,11,0,0,0-1-1.1.57.57,0,0,0-.9.7l.6.9c.3-.2.7-.4,1-.6a4.12,4.12,0,0,0-1-1.3c-.4-.5-1.1,0-1,.6,0,.2.1.5.1.7.3-.2.7-.4,1-.6a10,10,0,0,0-1-1.1c-.5-.6-1.4.3-.8.8,1,1.2,2.1,2.3,3.1,3.5l.8-.8c-.5-.5-1-1.1-1.6-1.6l-.8.8c.7.7,1.5,1.4,2.2,2.1l.8-.8-1.5-1.2c-.6-.5-1.4.3-.8.8.4.5.8.9,1.2,1.4l.8-.8a5.73,5.73,0,0,1-1.1-1.1l-.8.8c.6.6,1.2,1.2,1.9,1.8s1.4-.3.8-.8-1.1-1.2-1.6-1.8l-.8.8a21.83,21.83,0,0,1,2.1,2.2c.5.6,1.3-.3.8-.8a5.24,5.24,0,0,0-1-1.1c-.6-.5-1.4.3-.8.8s.9,1.1,1.4,1.6l.8-.8c-.4-.4-.7-.8-1.1-1.2l-.8.8c.6.6,1.3,1.1,1.9,1.7s1.4-.3.8-.8a4.62,4.62,0,0,0-.7-.7c-.5-.6-1.4.3-.8.8.6.7,1.2,1.3,1.9,2l.8-.8c-.4-.3-.7-.7-1.1-1-.6-.5-1.4.3-.8.8s1.1,1.2,1.7,1.8l.8-.8-.9-.9c-.2.3-.5.6-.7.9l2.4,1.8c.5.4,1.3-.5.7-.9a12.14,12.14,0,0,0-2-1.4c-.6-.3-1.3.5-.7.9a26.93,26.93,0,0,0,2.7,2c.6.4,1.2-.6.6-1-.3-.2-.7-.5-1-.7-.2.3-.4.7-.6,1,1,.5,1.9.9,2.9,1.4.7.3,1.3-.6.6-1a5.58,5.58,0,0,1-.8-.5c-.6-.3-1.2.5-.7.9a7,7,0,0,0,2.4,1.7c.2-.4.3-.7.5-1.1-.3,0-.6-.1-.8-.1-.6-.1-1.1.8-.5,1.1s1.2.5,1.8.8,1.3-.7.6-1L84.3,91c-.2.4-.3.7-.5,1.1l2.1.9c.2-.4.3-.7.5-1.1l-1.2-.3c-.7-.2-1.1.8-.5,1.1a5,5,0,0,0,2.3.9.59.59,0,0,0,.5-.9c0-.1,0-.1-.1-.2a.67.67,0,0,0-.7-.3h-.1c-.4.2-.7.9-.1,1.1.3.1.7.3,1,.4.2-.4.3-.7.5-1.1l-.9-.3-.3,1.2,1.3,1.3c.4-.1.8-.1,1.2-.2v-.4c-.4,0-.7.1-1.1.1a7.74,7.74,0,0,1,.7,1.6c.3-.2.7-.4,1-.6-1-1.6-2.1-1.8-4-1.7a.58.58,0,0,0-.3,1.1c.7.3,1.3.7,2,1s1.3-.6.6-1c-.4-.3-.9-.5-1.3-.8-.2.4-.3.7-.5,1.1a4.71,4.71,0,0,1,1.7.4l.3-1.2a9.83,9.83,0,0,0-1.6-.5c-.2.4-.3.7-.5,1.1.3.1.6.1.9.2.8.2,1-.9.3-1.2s-1.2-.7-1.8-1c-.2.4-.3.7-.5,1.1.6.2,1.1.3,1.7.5s1.1-.8.5-1.1c-.4-.3-.9-.5-1.3-.8-.2.3-.4.7-.6,1,.3.2.7.3,1,.5.2-.4.3-.7.5-1.1a18,18,0,0,1-4.4-1.2c-.6-.3-1.1.8-.5,1.1s1.3.6,2,.9c.2-.4.3-.7.5-1.1-.6-.3-1.3-.5-1.9-.8-.2.3-.4.7-.6,1a5.07,5.07,0,0,1,1.6.9c.2-.4.3-.7.5-1.1-.3,0-.6-.1-.9-.1a.62.62,0,0,0-.5,1.1,5.67,5.67,0,0,0,1.3.8c.2-.4.3-.7.5-1.1a25.44,25.44,0,0,1-3.8-1.6c-.2.4-.3.7-.5,1.1a1.45,1.45,0,0,0,.7.2c.6.2,1-.8.5-1.1a8.79,8.79,0,0,0-1-.6.57.57,0,0,0-.7.9c.3.5.7.9,1,1.4.3-.2.6-.5.9-.7-1-1.2-2.1-2.4-3.1-3.6l-.8.8c1.1.9,2.2,1.7,3.2,2.6.6.5,1.5-.4.8-.8a27.44,27.44,0,0,1-3.6-3.2l-.8.8a9.09,9.09,0,0,1,1.8,2.1,3.55,3.55,0,0,1,.4-.9c-.5-.1-.9-.1-1.4-.2-.5-.4-1.3.5-.7.9.3.3.7.5,1,.8.6.5,1.4-.3.8-.8l-1.8-1.8c-.2.3-.5.6-.7.9.7.5,1.4,1,2,1.4a.57.57,0,0,0,.7-.9,30.7,30.7,0,0,1-2.6-2.5c-.2.3-.5.6-.7.9l4.2,2.7a.58.58,0,0,0,.6-1c-1.5-1.1-3.1-2.2-4.6-3.4-.2.3-.4.7-.6,1a40.93,40.93,0,0,1,4.6,2.5.58.58,0,0,0,.6-1c-1.9-1.3-3.9-2.6-5.8-3.9-.2.4-.3.7-.5,1.1a35.08,35.08,0,0,1,5.5,2.7c.2-.3.4-.7.6-1-1.7-1-3.4-2-5-3.1-.2.3-.4.7-.6,1,2.2,1.4,4.4,2.8,6.6,4.3.2-.3.4-.7.6-1a55,55,0,0,1-5.6-3.8c-.2.3-.5.6-.7.9,1.9,1.1,3.8,2.4,5.6,3.7.2-.3.4-.7.6-1-1.5-.8-3-1.7-4.5-2.5a.58.58,0,1,0-.6,1c1.6,1,3.2,2.1,4.8,3.1.1-.4.2-.7.3-1.1-.4-.1-.8-.2-1.3-.3l-.3,1.2a5,5,0,0,1,2.4.9c.2-.4.3-.7.5-1.1-.5-.2-.9-.4-1.4-.6-.2.4-.3.7-.5,1.1a12.32,12.32,0,0,1,3.1,1.4c.2-.4.3-.7.5-1.1a9.41,9.41,0,0,1-2.2-1.2c-.2.3-.4.7-.6,1a15.39,15.39,0,0,0,1.9.8.56.56,0,0,0,.1.9,4.45,4.45,0,0,0,4.7.4.59.59,0,0,0-.1-1.1,18.83,18.83,0,0,1-12.8-8.2l-.8.8c.8.6,1.5,1.2,2.3,1.9.6.5,1.4-.3.8-.8a50.7,50.7,0,0,0-4.4-3.7.57.57,0,0,0-.7.9c1,1,1.9,2.1,2.9,3.1l.8-.8a15.16,15.16,0,0,1-4.3-5.4c-.3.2-.6.5-.9.7a25,25,0,0,1,2.7,2.9c.3-.2.6-.5.9-.7-.5-.6-1-1.2-1.5-1.9s-1.2.2-.9.7c.6,1.4,1.3,2.8,1.9,4.3.2-.3.5-.6.7-.9a3.29,3.29,0,0,0-1.7-.4.59.59,0,0,0-.5.9c1.4,2.2,2.4,4.6,3.8,6.9l.8-.8a3,3,0,0,0-.7-.5c-.6-.4-1.1.5-.7.9.2.3.5.6.7.9.2-.3.4-.7.6-1a6.37,6.37,0,0,0-.7-.2.61.61,0,0,0-.6,1,4.81,4.81,0,0,0,1.1.9c.6.3,1.2-.5.7-.9l-.7-.7-.8.8c.3.3.6.5.9.8a.57.57,0,0,0,.8-.8,5,5,0,0,0-1.5-1.4c-.2.3-.4.7-.6,1,.2.2.5.3.7.5.6.4,1.1-.5.7-.9l-3.6-4.2c-.2.3-.5.6-.7.9a14.93,14.93,0,0,1,2.7,2.3l.8-.8a9.21,9.21,0,0,1-3.2-4.1c-.3.2-.6.5-.9.7a36.43,36.43,0,0,1,4.5,4.3c.5.6,1.3-.3.8-.8a26.7,26.7,0,0,0-4.8-4.7c-.6-.5-1.4.3-.8.8,1,1.1,1.9,2.1,2.8,3.3.2-.3.5-.6.7-.9l-.9-.3c-.6-.2-.9.6-.6,1a9.35,9.35,0,0,0,1.6,1.8c.2-.3.5-.6.7-.9a8,8,0,0,0-1.6-.8c-.2.3-.4.7-.6,1,.4.3.8.6,1.1.8.2-.3.5-.6.7-.9-.6-.4-1.2-.7-1.8-1.1a.58.58,0,0,0-.6,1l1.2.9c.2-.4.3-.7.5-1.1-.3-.1-.6-.3-.9-.4-.5-.2-1,.6-.6,1,.6.4,1.1.9,1.7,1.3.2-.3.5-.6.7-.9l-1.5-.9a.58.58,0,0,0-.6,1,7.63,7.63,0,0,0,1.1.8c.2-.3.4-.7.6-1l-2.1-1.5c-.2.3-.4.7-.6,1,.5.3,1,.7,1.5,1s1.2-.6.6-1-1.5-1-2.2-1.5c-.1.4-.2.7-.3,1.1h.6a.59.59,0,0,0,.3-1.1l-1.5-1.2c-.2.3-.4.7-.6,1a7.19,7.19,0,0,1,2.1,1.2.57.57,0,0,0,.7-.9c-.6-.6-1.3-1.2-1.9-1.8l-.8.8a7.64,7.64,0,0,1,.9.9c.5.6,1.3-.3.8-.8-.2-.2-.3-.4-.5-.6-.5-.6-1.3.2-.8.8.2.2.3.4.5.6l.8-.8a2,2,0,0,0-.9-.9c-.6-.5-1.4.3-.8.8s1.3,1.2,1.9,1.8c.2-.3.5-.6.7-.9a11.15,11.15,0,0,0-2.4-1.3.61.61,0,0,0-.6,1A6.23,6.23,0,0,0,73.8,91c.1-.4.2-.7.3-1.1h-.6a.59.59,0,0,0-.3,1.1c.7.5,1.5,1,2.2,1.5.2-.3.4-.7.6-1-.5-.3-1-.7-1.5-1s-1.2.6-.6,1L76,93c.6.5,1.2-.6.6-1a7.63,7.63,0,0,0-1.1-.8c-.2.3-.4.7-.6,1l1.5.9c.6.4,1.3-.5.7-.9s-1.1-.9-1.7-1.3c-.2.3-.4.7-.6,1,.3.1.6.3.9.4.7.3,1-.7.5-1.1L75,90.3c-.2.3-.4.7-.6,1,.6.4,1.2.7,1.8,1.1s1.2-.5.7-.9a2.81,2.81,0,0,0-1.4-1c-.7-.4-1.3.7-.6,1a8,8,0,0,0,1.6.8.57.57,0,0,0,.7-.9c-.6-.6-1.1-1.2-1.6-1.8-.2.3-.4.7-.6,1l.9.3a.62.62,0,0,0,.7-.9c-1-1.2-1.9-2.4-3-3.5l-.8.8A26.7,26.7,0,0,1,77.6,92l.8-.8a30.52,30.52,0,0,0-4.5-4.3.58.58,0,0,0-.9.7A11.15,11.15,0,0,0,76.4,92c.6.5,1.4-.3.8-.8a13.72,13.72,0,0,0-2.9-2.5c-.6-.4-1.1.5-.7.9l3.6,4.2c.2-.3.5-.6.7-.9-.2-.2-.5-.3-.7-.5a.58.58,0,0,0-.6,1,15.38,15.38,0,0,0,1.3,1.2l.8-.8c-.3-.3-.6-.5-.9-.8-.6-.5-1.4.3-.8.8l.7.7c.2-.3.5-.6.7-.9-.3-.2-.6-.5-.9-.7-.2.3-.4.7-.6,1a6.37,6.37,0,0,0,.7.2c.6.2.9-.6.6-1s-.5-.6-.7-.9c-.2.3-.5.6-.7.9a3,3,0,0,0,.7.5c.5.4,1.1-.3.8-.8-1.4-2.2-2.3-4.7-3.8-6.9-.2.3-.3.6-.5.9l1.4.3c.5.2.9-.5.7-.9-.6-1.4-1.3-2.8-1.9-4.3-.3.2-.6.5-.9.7.5.6,1,1.2,1.5,1.9.4.5,1.4-.2.9-.7a28,28,0,0,0-2.8-3.1.57.57,0,0,0-.9.7A15.26,15.26,0,0,0,76.4,87c.6.5,1.4-.3.8-.8-1-1-1.9-2.1-2.9-3.1-.2.3-.5.6-.7.9,1.5,1.1,2.8,2.3,4.2,3.5l.8-.8c-.8-.7-1.6-1.4-2.5-2.1-.5-.4-1.1.3-.8.8a20,20,0,0,0,13.6,8.7c0-.4-.1-.7-.1-1.1-1.2-.1-2.3-.2-3.5-.4,0,.3.1.6.1.9l.2-.2c.2-.1.2-.4.2-.6-.4-1.1-1.4-1.5-2.5-2-.7-.3-1.3.6-.6,1A8.53,8.53,0,0,0,85.2,93c.6.3,1-.8.5-1.1a20.65,20.65,0,0,0-3.4-1.5c-.7-.2-1,.8-.5,1.1a5.09,5.09,0,0,0,1.7.7c.6.2,1.1-.8.5-1.1a8.8,8.8,0,0,0-2.7-1c-.8-.2-1,.9-.3,1.2a2.88,2.88,0,0,0,1.6.3c.6.1.8-.8.3-1.1-1.6-1-3.2-2.1-4.8-3.1-.2.3-.4.7-.6,1,1.5.8,3,1.7,4.5,2.5a.58.58,0,0,0,.6-1c-1.8-1.3-3.7-2.5-5.6-3.7-.6-.3-1.3.5-.7.9a47,47,0,0,0,5.9,4,.58.58,0,0,0,.6-1c-2.2-1.5-4.4-2.9-6.6-4.3a.58.58,0,0,0-.6,1,41.94,41.94,0,0,0,5,3.1.58.58,0,1,0,.6-1,34.32,34.32,0,0,0-5.8-2.8c-.7-.3-1,.7-.5,1.1,1.9,1.3,3.9,2.6,5.8,3.9.2-.3.4-.7.6-1a29.4,29.4,0,0,0-4.6-2.5.58.58,0,0,0-.6,1c1.5,1.1,3.1,2.2,4.6,3.4.2-.3.4-.7.6-1l-4.2-2.7a.57.57,0,0,0-.7.9c.9.9,1.7,1.7,2.6,2.5.2-.3.5-.6.7-.9-.7-.5-1.4-1-2-1.4a.57.57,0,0,0-.7.9l1.8,1.8.8-.8c-.3-.3-.7-.5-1-.8-.2.3-.5.6-.7.9a2,2,0,0,0,2.3.3.67.67,0,0,0,.4-.9,15,15,0,0,0-2-2.4c-.6-.5-1.4.3-.8.8,1.2,1.1,2.4,2.2,3.6,3.2l.8-.8C81.1,90.7,80,89.9,79,89c-.6-.5-1.4.3-.8.8,1,1.2,2.1,2.4,3.1,3.6.4.5,1.3-.2.9-.7A9.55,9.55,0,0,0,81,91.1c-.2.3-.5.6-.7.9a8.79,8.79,0,0,0,1,.6c.2-.4.3-.7.5-1.1a1.45,1.45,0,0,0-.7-.2c-.6-.2-1.1.8-.5,1.1a29.48,29.48,0,0,0,4.1,1.7c.6.2,1.1-.8.5-1.1a3.53,3.53,0,0,1-1.3-.8c-.2.4-.3.7-.5,1.1.3,0,.6.1.9.1.7.1,1.1-.7.5-1.1a5.07,5.07,0,0,0-1.6-.9c-.7-.3-1.3.7-.6,1a10.2,10.2,0,0,0,2.2.9c.6.2,1.1-.8.5-1.1s-1.3-.6-2-.9c-.2.4-.3.7-.5,1.1a15.89,15.89,0,0,0,4.4,1.2c.6.1,1.1-.8.5-1.1-.3-.2-.7-.3-1-.5-.7-.3-1.3.6-.6,1,.4.3.9.5,1.3.8.2-.4.3-.7.5-1.1-.6-.2-1.1-.3-1.7-.5a.61.61,0,0,0-.5,1.1,6.06,6.06,0,0,0,2.1,1.1l.3-1.2c-.3-.1-.6-.1-.9-.2-.6-.2-1.1.8-.5,1.1a6.19,6.19,0,0,0,1.9.7.62.62,0,0,0,.3-1.2,5.26,5.26,0,0,0-1.7-.4c-.6-.1-1.1.7-.5,1.1.4.3.9.5,1.3.8.2-.3.4-.7.6-1-.7-.3-1.3-.7-2-1-.1.4-.2.7-.3,1.1a2.87,2.87,0,0,1,3,1.1c.4.7,1.3.1,1-.6-.2-.5-.5-1.1-.7-1.6a.62.62,0,0,0-1.1.1c-.2.4-.2.5,0,1a.62.62,0,0,0,1.2-.2c.2-1.6-.8-2.1-2.2-2.5a.62.62,0,1,0-.3,1.2l.9.3c.6.2,1.1-.8.5-1.1-.3-.1-.7-.3-1-.4,0,.4-.1.7-.1,1.1-.2-.1-.3-.1-.5-.2.2-.3.3-.6.5-.9a3.63,3.63,0,0,1-1.7-.7c-.2.4-.3.7-.5,1.1l1.2.3c.6.2,1.1-.8.5-1.1a10.14,10.14,0,0,0-2.4-1c-.6-.2-1.1.8-.5,1.1l1.8.9c.2-.3.4-.7.6-1-.6-.3-1.2-.5-1.8-.8-.2.4-.3.7-.5,1.1.3,0,.6.1.8.1.6.1,1.1-.8.5-1.1a5.11,5.11,0,0,1-2.1-1.5c-.2.3-.5.6-.7.9a5.58,5.58,0,0,1,.8.5c.2-.3.4-.7.6-1-1-.5-1.9-.9-2.9-1.4-.7-.3-1.3.6-.6,1,.3.2.7.5,1,.7.2-.3.4-.7.6-1a13.68,13.68,0,0,1-2.4-1.8c-.2.3-.5.6-.7.9l1.8,1.2c.2-.3.5-.6.7-.9l-2.4-1.8a.57.57,0,0,0-.7.9l.9.9c.5.6,1.4-.3.8-.8s-1.1-1.2-1.7-1.8l-.8.8c.4.3.7.7,1.1,1,.6.5,1.4-.3.8-.8-.6-.7-1.2-1.3-1.9-2l-.8.8a4.62,4.62,0,0,0,.7.7l.8-.8c-.6-.6-1.3-1.1-1.9-1.7s-1.4.3-.8.8c.4.4.7.8,1.1,1.2.5.6,1.4-.3.8-.8s-.9-1.1-1.4-1.6l-.8.8a5.24,5.24,0,0,1,1,1.1l.8-.8a21.83,21.83,0,0,0-2.1-2.2c-.6-.5-1.4.3-.8.8s1.1,1.2,1.6,1.8l.8-.8c-.6-.6-1.2-1.2-1.9-1.8s-1.4.3-.8.8a5.73,5.73,0,0,0,1.1,1.1c.6.5,1.4-.3.8-.8-.4-.5-.8-.9-1.2-1.4l-.8.8,1.5,1.2c.6.5,1.4-.3.8-.8-.7-.7-1.5-1.4-2.2-2.1-.6-.5-1.4.3-.8.8s1,1.1,1.6,1.6,1.4-.3.8-.8c-1-1.2-2.1-2.3-3.1-3.5l-.8.8a10,10,0,0,0,1,1.1c.4.5,1.1,0,1-.6,0-.2-.1-.5-.1-.7-.3.2-.7.4-1,.6.3.3.5.7.8,1a.58.58,0,1,0,1-.6l-.6-.9c-.3.2-.6.5-.9.7a11,11,0,0,0,1,1.1c.5.6,1.4-.3.8-.8a4.07,4.07,0,0,0-1.4-1.2c-.5-.3-1.2.3-.8.8s.7,1,1,1.5c.3-.2.6-.5.9-.7-.5-.6-1-1.1-1.5-1.7a.57.57,0,0,0-.9.7,5.36,5.36,0,0,1,.5,1.1c-.2,1.6.9,1,.5.3Z" transform="translate(-62.32 -23.07)"/><path class="cls-1" d="M120.9,92.9c-.2,0-.4-.1-.6-.1a.64.64,0,0,0-.7.9.1.1,0,0,0,.1.1c0-.2.1-.5.1-.7a.35.35,0,0,0,.2-.1v1c.1,0,.2-.1.3-.1.5-.2.3-1-.1-1.1-2.6-.5-5.4-.7-7.7.8-.7.4,0,1.5.6,1,2.1-1.3,4.5-1.2,6.8-.7,0-.4-.1-.7-.1-1.1-.1,0-.2.1-.3.1-.5.2-.3.8,0,1a.82.82,0,0,0,1.2-.1.62.62,0,0,0,.1-.7.1.1,0,0,0-.1-.1c-.2.3-.5.6-.7.9.2,0,.4.1.6.1a.57.57,0,1,0,.3-1.1Z" transform="translate(-62.32 -23.07)"/><path class="cls-1" d="M66.8,55.4c0,.2-.1.4-.1.6a.73.73,0,0,0,1.1.8c.8-.3,1-1.2,1.3-1.9a18.2,18.2,0,0,1,1.7-4.4c-.5-.1-.9-.3-1.4-.4a43.83,43.83,0,0,1-1.7,8c.5.1,1,.1,1.5.2,0-.6.1-5.3.6-5.4-.3-.2-.6-.5-.9-.7a58.28,58.28,0,0,1-.3,5.9h1.5a20.24,20.24,0,0,1,.4-4.3c-.5-.1-1-.1-1.5-.2q-.3,3-.9,6c.5.1,1,.1,1.5.2v-.6c-.1-1-1.6-1-1.5,0v.6c.1.8,1.3,1.1,1.5.2a44.91,44.91,0,0,0,1-6.4c.1-.8-1.3-1-1.5-.2a25,25,0,0,0-.5,4.7c0,1,1.4.9,1.5,0a58.28,58.28,0,0,0,.3-5.9.74.74,0,0,0-.9-.7c-1.9.5-1.7,5.4-1.7,6.9a.77.77,0,0,0,1.5.2A50,50,0,0,0,71,50.2c.1-.8-1-1-1.4-.4a13.07,13.07,0,0,0-1.2,2.7c-.2.7-.6,2.8-1.2,3.1a7.63,7.63,0,0,0,1.1.8c0-.2.1-.4.1-.6,0-.9-1.4-1.3-1.6-.4Z" transform="translate(-62.32 -23.07)"/><path class="cls-1" d="M70.2,71.5c-.4-1.1-.7-2.3-1.1-3.4a1.5,1.5,0,0,0-2.9.8,27.81,27.81,0,0,1,.8,4.9c.9-.3,1.9-.5,2.8-.8a5.55,5.55,0,0,0-.6-.8,1.49,1.49,0,0,0-2.7,1.2,44.8,44.8,0,0,1,1.1,6.2c.9-.3,1.9-.5,2.8-.8-.3-.5-.6-.9-.9-1.4a1.5,1.5,0,0,0-2.6,1.5c2.1,3.8,4.1,7.6,6.2,11.4.6-.7,1.1-1.5,1.7-2.2a7.49,7.49,0,0,0-1.6-.5c-1-.6-2.7.4-2.2,1.7a5,5,0,0,0,3.3,3.3c1.7.7,2.5-1.8,1.2-2.7a11.84,11.84,0,0,1-3.3-3l-1.8,2.4A9.66,9.66,0,0,1,73,91.2c1.2,1,3.4-.3,2.4-1.8s-1.9-2.7-2.8-4.1l-2.1,2.1c.7.5,1.4,1.1,2.1,1.6,1.2.9,2.8-.8,2.1-2.1s-1.4-2.4-2.2-3.5l-2.4,1.8a16,16,0,0,1,2.6,2.6l2.1-2.1a27.22,27.22,0,0,1-2.9-3.8l-2.4,1.8c.5.7,1.1,1.4,1.6,2.2l2.4-1.8a10.91,10.91,0,0,1-2.4-4.5l-2.7,1.2c.8,1.2,1.4,2.4,2.1,3.7.9-.5,1.7-1,2.6-1.5a15.31,15.31,0,0,1-1.9-4.1l-2.7,1.2c.5.9,1.1,1.9,1.6,2.8,1,1.7,3.4.2,2.6-1.5-.4-1-.7-2-1.1-3l-2.7,1.2a11,11,0,0,1,1.5,2.6c.9-.5,1.7-1,2.6-1.5-.3-.6-.6-1.1-.9-1.7l-2.7,1.2c.4.8.9,1.6,1.3,2.3.8,1.4,3.4.4,2.7-1.2l-.9-2.1-2.7,1.2a23.39,23.39,0,0,0,3.4,5.4l2.1-2.1a15.82,15.82,0,0,1-4.2-10.3c-1,.1-2,.3-2.9.4a31.28,31.28,0,0,1,2.2,8.1c1-.3,1.9-.5,2.9-.8A48.15,48.15,0,0,1,72,74.5H69c.2,1.5.4,3,.5,4.5,1-.1,2-.3,2.9-.4a22.61,22.61,0,0,1-.7-9.3c-1,.1-2,.3-2.9.4.3,2.2.6,4.5.9,6.7,1-.3,1.9-.5,2.9-.8A38.71,38.71,0,0,1,71.1,70c-1,.3-1.9.5-2.9.8l.6,3.3c.3,1.6,3.2,1.3,2.9-.4a38.61,38.61,0,0,1-.2-9h-3c.2,2.3.2,4.5.2,6.8,1-.1,2-.3,2.9-.4a17,17,0,0,1,.4-7.8c-1-.1-2-.3-2.9-.4a21,21,0,0,1-.3,5c1,.1,2,.3,2.9.4a24.18,24.18,0,0,1,.4-4.7c-1-.1-2-.3-2.9-.4-.1,2.5-.2,4.9-.2,7.4h3a21.75,21.75,0,0,1,0-5.1H69c-.1,1.6-.1,3.2-.2,4.8h3c0-2,.1-4,.2-6-1,.1-2,.3-2.9.4a15.06,15.06,0,0,1-.1,7.6c1,.1,2,.3,2.9.4a45.56,45.56,0,0,1,2.5-15.1c-1-.3-1.9-.5-2.9-.8a67.69,67.69,0,0,1-2.1,8.9c1,.1,2,.3,2.9.4A37.47,37.47,0,0,1,77,49.7l-2.7-1.2a46.63,46.63,0,0,1-2.7,7.4l2.7,1.2a64.18,64.18,0,0,1,8.2-15.8c-.9-.5-1.7-1-2.6-1.5-.8,1.5-1.6,2.9-2.4,4.4s1.2,3.2,2.4,1.8a47.92,47.92,0,0,1,4.3-4.7,23.35,23.35,0,0,1-2.5-.7c.1.4.1.8.2,1.2a1.51,1.51,0,0,0,2.7.4,4.05,4.05,0,0,0,.5-.9,25.12,25.12,0,0,1-2.7-.4,14.19,14.19,0,0,1,.5,2.2,1.55,1.55,0,0,0,2.3,1.3c.3-.1.7-.1,1-.2a1.51,1.51,0,0,0,1.8.2c.5-.3,5.2-.2,5.7.4a1.54,1.54,0,0,0,2.1,0h1.6a1.57,1.57,0,0,0,2.4.3c1.2-1.2,4.3-.3,5.9-1.4-.8-.4-1.5-.9-2.3-1.3,0,.2-.1.4-.1.7a1.5,1.5,0,0,0,2.6,1.5c1.3-1.8,4,0,5.7-.2,2.5-.3,3.1-1.5,6.3-1.1.8.1,1.5-.8,1.5-1.5.2-8.3-11.6-6.4-15.6-2.5l2.4,1.8c1-1.4,2.1-2.8,3.1-4.2s-.9-2.6-2.1-2.1c-5.4,2.4-12,5.1-17,.5a1.54,1.54,0,0,0-2.1,0,33.62,33.62,0,0,1-6.8,4.2l2.1,2.1a12.15,12.15,0,0,1,3.9-4.5L85.2,35a59.1,59.1,0,0,1-7.6,8.2c.8.5,1.7,1,2.5,1.5a17.51,17.51,0,0,1,2-4.4c-.9-.5-1.7-1-2.6-1.5A55.11,55.11,0,0,1,75,46.1l2.7,1.2A11.41,11.41,0,0,1,79,43.8c-.9-.5-1.7-1-2.6-1.5a42.37,42.37,0,0,1-4.2,7.5h2.6c-.1-.8-.1-1.7-.2-2.5.3-1.6-1.8-2.7-2.7-1.2-3.9,6.5-4.6,14.2-5,21.7-.4,7.2-1.2,14.3,2.7,20.6L72,86.6a9.15,9.15,0,0,1-2.3-2.5,1.5,1.5,0,0,0-2.6,1.5,14.76,14.76,0,0,0,2.6,3.9c1.3,1.5,3.3-.6,2.1-2.1a32.51,32.51,0,0,1-3.6-5.5c-.9.5-1.7,1-2.6,1.5.9,1.5,1.7,3,2.6,4.5a1.5,1.5,0,0,0,2.6-1.5,39.48,39.48,0,0,1-3.4-8.6c-.4-1.6-3.2-1.3-2.9.4a13.56,13.56,0,0,0,.6,2.9,1.51,1.51,0,0,0,2.9-.8c-2.7-9.8-.9-19.7,3.1-28.9-.9-.3-1.9-.5-2.8-.8-.5,5.9-3.7,11-2.6,17.1.3,1.9,3.2,1.1,2.9-.8-.2-1.1-.4-2.1-.6-3.2-.3-1.4-2.7-1.5-2.9,0a25.37,25.37,0,0,1-1.7,6.7h2.9a37.71,37.71,0,0,1,12.2-33l-2.4-1.8a112.59,112.59,0,0,1-7.2,10.8c-1.2,1.5,1.4,3,2.6,1.5a112.59,112.59,0,0,0,7.2-10.8c.9-1.5-1.1-2.9-2.4-1.8a40.68,40.68,0,0,0-13,35.9c.2,1.6,2.4,1.2,2.9,0a31.37,31.37,0,0,0,1.7-6.7H65c.2,1.1.4,2.1.6,3.2,1-.3,1.9-.5,2.9-.8-1-5.5,2.3-10.8,2.7-16.3.1-1.4-2.2-2.1-2.8-.8C64.2,59.8,62.1,70.4,65,81c1-.3,1.9-.5,2.9-.8a16,16,0,0,1-.5-2.1c-1,.1-2,.3-2.9.4a44,44,0,0,0,3.7,9.3c.9-.5,1.7-1,2.6-1.5-.9-1.5-1.7-3-2.6-4.5a1.5,1.5,0,0,0-2.6,1.5,42.77,42.77,0,0,0,4,6.1l2.1-2.1A9.73,9.73,0,0,1,69.6,84c-.9.5-1.7,1-2.6,1.5a11.77,11.77,0,0,0,2.8,3.1c1.2,1,3.3-.3,2.4-1.8-3.5-5.6-2.6-12.7-2.3-19.1.4-6.9,1-14.1,4.6-20.2l-2.7-1.2a7.53,7.53,0,0,0,.5,4.9c.5,1.1,2,.8,2.6,0a55.22,55.22,0,0,0,4.2-7.5c.8-1.7-1.7-3.3-2.6-1.5a21.37,21.37,0,0,0-1.6,4.2,1.5,1.5,0,0,0,2.7,1.2,59.46,59.46,0,0,0,4.5-7.3c.9-1.7-1.7-3.2-2.6-1.5a46.74,46.74,0,0,0-2.3,5.1c-.5,1.5,1.5,2.4,2.5,1.5a67.74,67.74,0,0,0,8-8.9c.9-1.2-.9-2.9-2.1-2.1a15.83,15.83,0,0,0-5,5.6,1.56,1.56,0,0,0,2.1,2.1,40.36,40.36,0,0,0,7.4-4.7H88c6.2,5.6,13.9,3,20.7,0l-2.1-2.1c-1,1.4-2.1,2.8-3.1,4.2s1.2,3,2.4,1.8c1.5-1.5,10.6-5.4,10.4.4l1.5-1.5a46,46,0,0,0-10.5.6c-1.9.3-2.9.6-4.1,2.2.9.5,1.7,1,2.6,1.5a2.91,2.91,0,0,0,.5-2.2c-.1-1-1.3-2-2.3-1.3s-2.3-.3-3.5-.1a6.14,6.14,0,0,0-3,2l2.4.3c-1.7-2.3-4.2-2.7-6.3-.6h2.1c-2.1-2.3-6.7-2.2-9.3-.9a11,11,0,0,0,1.8.2c-1.4-1.8-2.9-1.2-4.7-.3.8.4,1.5.9,2.3,1.3a6.3,6.3,0,0,0-.7-3,1.51,1.51,0,0,0-2.7-.4,4.05,4.05,0,0,0-.5.9,25.12,25.12,0,0,1,2.7.4c-.1-.4-.1-.8-.2-1.2a1.5,1.5,0,0,0-2.5-.7,47.92,47.92,0,0,0-4.3,4.7L80,45.4c.8-1.5,1.6-2.9,2.4-4.4a1.5,1.5,0,0,0-2.6-1.5A67.87,67.87,0,0,0,71.3,56c-.6,1.6,2,2.7,2.7,1.2a56,56,0,0,0,3-8.1c.4-1.6-1.9-2.7-2.7-1.2a41.66,41.66,0,0,0-5.2,17.9c-.1,1.7,2.4,2,2.9.4a64.12,64.12,0,0,0,2.1-8.9,1.5,1.5,0,0,0-2.9-.8,47.76,47.76,0,0,0-2.6,15.9c0,1.7,2.6,2.1,2.9.4a22,22,0,0,0,.1-9.2c-.4-1.8-2.8-1.2-2.9.4-.2,2-.2,4-.2,6s2.9,1.9,3,0c.1-1.6.1-3.2.2-4.8.1-1.9-2.8-1.9-3,0a29,29,0,0,0,0,5.1,1.5,1.5,0,0,0,3,0c.1-2.5.2-4.9.2-7.4.1-1.7-2.7-2.1-2.9-.4a34.08,34.08,0,0,0-.5,5.5c0,1.6,2.7,2.1,2.9.4a37.7,37.7,0,0,0,.4-5.8,1.48,1.48,0,0,0-2.9-.4,20,20,0,0,0-.4,9.4c.3,1.7,2.9,1.2,2.9-.4,0-2.3,0-4.5-.2-6.8a1.5,1.5,0,0,0-3,0,38.73,38.73,0,0,0,.2,9c1-.1,2-.3,2.9-.4l-.6-3.3c-.3-1.9-3.2-1.1-2.9.8a27.25,27.25,0,0,0,1.5,5.6c.7,1.9,3.1,1.1,2.9-.8-.3-2.2-.6-4.5-.9-6.7-.2-1.8-2.8-1.1-2.9.4a23,23,0,0,0,.8,10.1c.5,1.5,3.2,1.3,2.9-.4-.2-1.5-.4-3-.5-4.5-.2-1.9-3.2-1.9-3,0A48.18,48.18,0,0,0,70,81.6c.5,1.9,3.1,1.1,2.9-.8a33.59,33.59,0,0,0-2.2-8.1c-.6-1.4-3-1.4-2.9.4a18.65,18.65,0,0,0,5.1,12.4c1.3,1.5,3.3-.7,2.1-2.1a19.83,19.83,0,0,1-2.9-4.8c-.7-1.5-3.4-.4-2.7,1.2l.9,2.1L73,80.7c-.4-.8-.9-1.6-1.3-2.3-.8-1.4-3.4-.5-2.7,1.2A10.78,10.78,0,0,0,70.2,82a1.5,1.5,0,0,0,2.6-1.5,13.5,13.5,0,0,0-1.5-2.6,1.49,1.49,0,0,0-2.7,1.2A18.64,18.64,0,0,0,70,82.8c.9-.5,1.7-1,2.6-1.5-.5-.9-1.1-1.9-1.6-2.8-.8-1.4-3.3-.5-2.7,1.2a29.62,29.62,0,0,0,2.2,4.8A1.5,1.5,0,0,0,73.1,83,27.06,27.06,0,0,0,71,79.3c-.9-1.4-3.3-.5-2.7,1.2a18,18,0,0,0,3.1,5.8c1.1,1.3,3.3-.4,2.4-1.8a28.32,28.32,0,0,0-2-2.8c-1.1-1.3-3.3.4-2.4,1.8a36.06,36.06,0,0,0,3.3,4.4c1.3,1.5,3.3-.6,2.1-2.1a16,16,0,0,0-2.6-2.6c-1.2-1-3.3.3-2.4,1.8.7,1.2,1.4,2.4,2.2,3.5l2.1-2.1c-.7-.5-1.4-1.1-2.1-1.6-1.2-.9-2.9.9-2.1,2.1.9,1.4,1.9,2.7,2.8,4.1l2.4-1.8a24.28,24.28,0,0,0-3.2-2.4c-1.5-.9-2.9,1.1-1.8,2.4A21.69,21.69,0,0,0,74,92.7L75.2,90A15.38,15.38,0,0,1,74,88.7c-.7.6-1.5,1.1-2.2,1.7a4,4,0,0,0,2.3.8A1.51,1.51,0,0,0,75.8,89c-2.1-3.8-4.1-7.6-6.2-11.4-.9.5-1.7,1-2.6,1.5.3.5.6.9.9,1.4.7,1.1,3,.8,2.8-.8-.3-2.4-.7-4.7-1.2-7l-2.7,1.2a5.55,5.55,0,0,0,.6.8,1.52,1.52,0,0,0,2.8-.8,28.17,28.17,0,0,0-.9-5.7c-1,.3-1.9.5-2.9.8.4,1.1.7,2.3,1.1,3.4.4,1.7,3.3.9,2.7-.9Z" transform="translate(-62.32 -23.07)"/><path class="cls-1" d="M128,87l.9-1.5-2.4-1.8c-1.8,3.3-3.5,6.6-5.3,9.9a1.56,1.56,0,0,0,2.1,2.1c5.1-3.1,8.9-9.4,11.6-14.6,2.8-5.5,3.9-11.4,1.7-17.3a1.53,1.53,0,0,0-2.9,0c-1.7,6.4-3.1,13.2-7.5,18.4l2.4,1.8,3.6-8.4c-.9-.3-1.9-.5-2.8-.8a18.68,18.68,0,0,1-1.1,6.6c-.6,1.7,1.8,2.5,2.7,1.2s1.8-2.5,2.6-3.8c-.9-.5-1.7-1-2.6-1.5a63.32,63.32,0,0,1-3.6,6.8c.9.5,1.7,1,2.6,1.5a15.49,15.49,0,0,1,2.1-3.5c-.9-.5-1.7-1-2.6-1.5a27.54,27.54,0,0,1-2,3.8l2.7,1.2c.9-2.3,2.7-4.1,3.5-6.4.7-2,.3-3.7.1-5.6-.3-2.6.2-5,0-7.5a45.73,45.73,0,0,1-.3-9.8c.6-7.1-4.6-17.9-12.6-18.4a1.53,1.53,0,0,0-1.3,2.3c.8,1.2,1.6,2.3,2.4,3.5l2.1-2.1a13.88,13.88,0,0,1-3.5-2.9l-2.1,2.1c5.4,5.5,10.2,14,11.3,21.6l2.7-1.2c-1-2.3-1.9-4.7-2.7-7.1l-2.7,1.2a31.69,31.69,0,0,1,2,19.9c1,.1,2,.3,2.9.4.2-5,.3-9.9.2-14.9-.9.3-1.9.5-2.8.8a27.36,27.36,0,0,1,2.7,7.9,1.51,1.51,0,0,0,2.9,0c.4-1,.7-2,1.1-3-.9-.3-1.9-.5-2.8-.8a37.39,37.39,0,0,1-.9,6.6c1,.3,1.9.5,2.9.8a11.9,11.9,0,0,1,1.1-4.1l-2.7-1.2a27.2,27.2,0,0,1-1.3,4.9c-.6,1.6,1.9,2.6,2.7,1.2a27.09,27.09,0,0,0,2.9-7.6c-1-.1-2-.3-2.9-.4a7.22,7.22,0,0,1-.6,3.6c1,.1,2,.3,2.9.4a42.67,42.67,0,0,0-2.5-18.7c-.6-1.5-3-1.4-2.9.4l.3,11.7a1.5,1.5,0,0,0,3,0,30,30,0,0,1,.9-6.7h-2.9a28.29,28.29,0,0,1,2,10c1-.1,2-.3,2.9-.4-.6-4.4-1.2-8.8-1.8-13.1l-2.7,1.2a6,6,0,0,1,1.5,5.1c1-.1,2-.3,2.9-.4A84.88,84.88,0,0,0,133.8,46l-2.7,1.2a21.11,21.11,0,0,1,3.1,6.4l2.7-1.2c-3.5-6.7-7.5-13.4-14.6-16.7a1.56,1.56,0,0,0-2.1,2.1c2.9,4.7,5.8,9.3,8.7,14,.9-.5,1.7-1,2.6-1.5l-5.1-8.1c-1-1.6-3.6-.1-2.6,1.5A66.92,66.92,0,0,1,129.6,55c.6,1.4,3.1,1.4,2.9-.4-.6-6.6-5.3-11.1-7.7-17-.8.5-1.7,1-2.5,1.5a48.48,48.48,0,0,1,8.1,9.4,1.49,1.49,0,0,0,2.7-1.2c-.6-4.2-4.1-6.9-5.3-10.9l-2.7,1.2c2.4,3.5,4.8,7,7.1,10.5,1.1,1.6,3.6.1,2.6-1.5-3-4.8-4.7-10.1-10.7-11.1-7.1-1.1-14.9-.3-22,.1-7.4.4-15.3.8-22.4,2.8C74,40,71.1,44.1,68.4,49.2l2.7,1.2c2.2-5.3,5.9-9.6,9.7-13.9l-2.4-1.8a38.22,38.22,0,0,1-6,8.3l2.4,1.8c2.1-3,4.2-6,6.2-9,1.1-1.6-1.5-3.1-2.6-1.5-2.1,3-4.2,6-6.2,9-1,1.4,1.2,3,2.4,1.8a39,39,0,0,0,6.5-9c.8-1.4-1.2-3.1-2.4-1.8-4.2,4.7-8.1,9.3-10.5,15.2-.6,1.6,2,2.6,2.7,1.2,3.2-6,6.1-8.8,12.9-10.1A138.62,138.62,0,0,1,102,38.7c5.2-.3,10.5-.4,15.7-.4,3.2,0,7.2-.3,9.6,2.2,1.9,2,3.3,5.4,4.8,7.7.9-.5,1.7-1,2.6-1.5-2.3-3.5-4.7-7-7.1-10.5-.9-1.3-3.3-.6-2.7,1.2,1.2,4,4.7,6.8,5.3,10.9l2.7-1.2a54.75,54.75,0,0,0-8.6-10c-1-.9-3.1,0-2.5,1.5,2.2,5.5,7.1,10.1,7.6,16.2,1-.1,2-.3,2.9-.4a75.16,75.16,0,0,0-6.1-12c-.9.5-1.7,1-2.6,1.5l5.1,8.1c1,1.6,3.6.1,2.6-1.5-2.9-4.7-5.8-9.3-8.7-14l-2.1,2.1c6.7,3,10.2,9.3,13.5,15.6a1.49,1.49,0,0,0,2.7-1.2,24.43,24.43,0,0,0-3.4-7.1c-.9-1.3-3.4-.5-2.7,1.2A81.35,81.35,0,0,1,134.9,60a1.48,1.48,0,0,0,2.9-.4,10.25,10.25,0,0,0-1.9-6.6,1.49,1.49,0,0,0-2.7,1.2c.6,4.4,1.2,8.8,1.8,13.1.2,1.7,3,1.3,2.9-.4a31,31,0,0,0-2.1-10.8c-.5-1.3-2.5-1.6-2.9,0a37.6,37.6,0,0,0-1,7.5h3l-.3-11.7c-1,.1-2,.3-2.9.4a41.83,41.83,0,0,1,2.4,17.9c-.2,1.7,2.5,1.9,2.9.4a13.08,13.08,0,0,0,.7-4.4c0-1.7-2.6-2.1-2.9-.4a21.37,21.37,0,0,1-2.6,6.9l2.7,1.2a29.59,29.59,0,0,0,1.3-4.9c.2-1.5-2-2.9-2.7-1.2a16.5,16.5,0,0,0-1.4,4.8c-.3,1.9,2.5,2.7,2.9.8a37.6,37.6,0,0,0,1-7.4c.1-1.4-2.2-2.1-2.8-.8a23.49,23.49,0,0,0-1.4,3.7h2.9a32.53,32.53,0,0,0-3-8.6,1.51,1.51,0,0,0-2.8.8c0,5,0,9.9-.2,14.9-.1,1.7,2.6,2.1,2.9.4a34.63,34.63,0,0,0-2.3-22.2c-.7-1.6-3.3-.4-2.7,1.2q1.35,3.9,3,7.8c.7,1.7,3,.4,2.7-1.2-1.1-8.2-6.3-17.1-12.1-22.9a1.48,1.48,0,1,0-2.1,2.1,33.63,33.63,0,0,0,4.1,3.4,1.56,1.56,0,0,0,2.1-2.1c-.8-1.2-1.6-2.3-2.4-3.5-.4.8-.9,1.5-1.3,2.3,4.6.2,8.6,7.5,9.5,11.5.8,3.6-.4,7.6-.1,11.3.2,3,.1,5.9.3,9,.2,2.8.2,5.4-1.1,8-.7,1.5-1.6,2.7-2.2,4.2s1.9,2.6,2.7,1.2,1.4-2.5,2-3.8a1.5,1.5,0,0,0-2.6-1.5,25,25,0,0,0-2.1,3.5c-.8,1.7,1.6,3.2,2.6,1.5a73,73,0,0,0,3.6-6.8,1.5,1.5,0,0,0-2.6-1.5c-.9,1.3-1.8,2.5-2.6,3.8l2.7,1.2a20.88,20.88,0,0,0,1.2-7.4c0-1.4-2.2-2.2-2.8-.8l-3.6,8.4c-.6,1.4,1.1,3.2,2.4,1.8,4.8-5.7,6.4-12.7,8.3-19.7h-2.9c2.1,5.8.7,11.2-2.2,16.4-2.4,4.3-5.4,9.5-9.7,12.1l2.1,2.1c1.8-3.3,3.5-6.6,5.3-9.9a1.52,1.52,0,0,0-2.4-1.8,3.67,3.67,0,0,0-1.7,2.8c0,1.2,2.9,2,3.3.1Z" transform="translate(-62.32 -23.07)"/><path class="cls-1" d="M94.6,34.5c-2.9-1.3-5.2.2-6.8,4.4-.4-.8-.9-1.5-1.3-2.3-.5.5-1,1-1.6,1.5a1.52,1.52,0,0,0,.8,2.8c3.5.1,6.9.1,10.3.1V38a35,35,0,0,1-5.6.2v3c6.1-.2,13,2.1,18.9.3a1.5,1.5,0,0,0-.8-2.9,7.23,7.23,0,0,1-5.4-.6c-.3,1-.5,1.9-.8,2.9,5.5,1.5,11.6-1.9,17.3-2.1-.3-.9-.5-1.9-.8-2.8a27.52,27.52,0,0,1-5.6,1.6c-1.6.3-1.2,2.4,0,2.9a12.81,12.81,0,0,0,6.1.9,1.5,1.5,0,0,0,0-3l-5.3-.6-2.4-.3c3.2-2.3,5.5-2.1,6.9.7l2.1-2.1a24,24,0,0,1-5.3-5.7c-.6.7-1.1,1.5-1.7,2.2,3.1,1,5.3,3.5,8,5.3,1.6,1.1,3-1.5,1.5-2.6a28.51,28.51,0,0,1-5.8-5.7c-.6.7-1.1,1.5-1.7,2.2,2.6.7,5.5,3.9,7.6,5.6,1.5,1.2,3.6-.9,2.1-2.1a24.59,24.59,0,0,1-4.1-4.4L119.1,33a58.07,58.07,0,0,1,5.7,4c1.3,1,3.1-1.3,1.8-2.4-6.3-5.3-11-9-19.6-6.6-10,2.8-19.2,8.1-29.8,8.8a23.07,23.07,0,0,1,1.4,1.9c.7-1,1.3-2.1,2-3.1,1.1-1.2-.3-3.4-1.8-2.4S76.1,35,74.7,36l2.1,2.1c4.8-7.4,14.5-11.7,23.1-12.2a34.07,34.07,0,0,1,12.3,1.9c2.7.9,2.5,1.5-.1,3.3a13.5,13.5,0,0,1-2.6,1.5c-5.1,2-5.2,1.6-.2-1.3-.6-.7-1.1-1.5-1.7-2.2a29,29,0,0,1-4,4.8c-5.5,4.2-1.8-1.8,1.3-1.8a17.1,17.1,0,0,1-1.4-1.1c.5,1.4-4.3,4.4-5.2,4.5-4.7.5,1.4-3.4,1.2-3.6-.2-.6-.5-1.1-.7-1.7A6.43,6.43,0,0,1,96.2,33q-2,1.05-.3.6c-.5-.8-1-1.7-1.5-2.5-1.2,1.3-2.6,3-4.5,3.3-2.3.4-2.1-.8.2-2.2l-1.8-2.4a12.51,12.51,0,0,1-6.9,4.6c.6.7,1.1,1.5,1.7,2.2a9.35,9.35,0,0,1,4.4-4.8l-1.8-2.4a63.23,63.23,0,0,1-6.8,6.9l2.4,1.8a13.62,13.62,0,0,1,4.6-5.5l-1.8-2.4c-1.2,1.4-2.5,2.8-3.7,4.2l2.1,2.1a45.26,45.26,0,0,1,5.6-6L86,28.4a56.19,56.19,0,0,1-6.4,6.5L81.7,37a53.72,53.72,0,0,1,9.5-7.6l-2.1-2.1a9.41,9.41,0,0,1-4,3.9l2.1,2.1c2.8-4.6,8.3-3.5,12.7-2.4.1-1,.3-2,.4-2.9a50.93,50.93,0,0,0-9.5.9c-1.7.3-1.3,3.1.4,2.9a57.52,57.52,0,0,1,15.5.4c.1-1,.3-2,.4-2.9-3.2-.4-6.3-.9-9.4-1.6v2.9c3.1-1,12.1,2.1,14.2,4.4l1.8-2.4a30.46,30.46,0,0,1-5.8-3.8c-.5.8-1,1.7-1.5,2.5a18.07,18.07,0,0,1,6.9,4.7c.4-.9.7-1.7,1.1-2.6l-1.6.3a1.54,1.54,0,0,0,1.5-1.5c0-.7.1-1.5.1-2.2a1.51,1.51,0,0,0-1-1.8,35.79,35.79,0,0,0-15.6-1.6,1.54,1.54,0,0,0-.8,2.8c2.8,2.2,7.6,1.2,10.9.8,1.5-.2,2.2-2.7.4-2.9-4-.5-7.9-1.1-11.9-1.7-1.5-.2-2.8,1.9-1.2,2.7,4.1,2,8.2,1.5,12.5.7,1.8-.3,1.2-2.8-.4-2.9l-10-.9c-1.7-.1-2,2.5-.4,2.9a20.31,20.31,0,0,0,11.2-.1c1.9-.5,1.1-3.3-.8-2.9-5,1.2-10.1.4-14.9,2.3.5.8,1,1.7,1.5,2.5,2.1-1.9,10-4.2,12.5-1.3.4-.9.7-1.7,1.1-2.6-1.6,0-3.3,0-4.9-.1-1.9-.1-1.9,2.9,0,3,1.6.1,3.3.1,4.9.1a1.55,1.55,0,0,0,1.1-2.6c-3.7-4.3-13-1.9-16.7,1.3-1.1,1,.1,3.1,1.5,2.5,4.8-1.9,10-1.1,14.9-2.3-.3-1-.5-1.9-.8-2.9a18.39,18.39,0,0,1-9.6.1c-.1,1-.3,2-.4,2.9l10,.9c-.1-1-.3-2-.4-2.9-3.5.7-6.9,1.3-10.2-.4l-1.2,2.7c4,.6,7.9,1.1,11.9,1.7.1-1,.3-2,.4-2.9-2.4.3-7.2,1.2-9.4-.4-.3.9-.5,1.9-.8,2.8A33.81,33.81,0,0,1,112.6,31c-.3-.6-.7-1.2-1-1.8a10.12,10.12,0,0,0-.2,3l1.5-1.5c-1.7-.1-3.6.5-3.6,2.5,0,2.5,3.2,3.1,5.1,3.2,1.4.1,1.9-1.7,1.1-2.6a22.8,22.8,0,0,0-8.2-5.5,1.52,1.52,0,0,0-1.5,2.5,31.17,31.17,0,0,0,6.4,4.3,1.52,1.52,0,0,0,1.8-2.4c-2-2.1-4.6-2.7-7.3-3.5-3.1-.9-6.6-2.7-9.8-1.6-1.3.4-1.5,2.6,0,2.9a90.41,90.41,0,0,0,10.2,1.7c1.7.2,2.1-2.6.4-2.9-5.4-1.1-10.8-.9-16.3-.5.1,1,.3,2,.4,2.9a50.27,50.27,0,0,1,8.7-.8,1.48,1.48,0,0,0,.4-2.9c-5.7-1-12.3-1.7-15.9,4.2-.8,1.3.8,2.7,2.1,2.1A12.06,12.06,0,0,0,92,29.4a1.56,1.56,0,0,0-2.1-2.1,65.21,65.21,0,0,0-10.1,8.1c-1.4,1.4.7,3.4,2.1,2.1A65.46,65.46,0,0,0,88.3,31a1.49,1.49,0,0,0-2.1-2.1,64,64,0,0,0-5.6,6c-1.2,1.5.8,3.6,2.1,2.1s2.5-2.8,3.7-4.2c1.1-1.2-.3-3.4-1.8-2.4A17.34,17.34,0,0,0,78.9,37a1.52,1.52,0,0,0,2.4,1.8,88.68,88.68,0,0,0,6.8-6.9,1.52,1.52,0,0,0-1.8-2.4,11.71,11.71,0,0,0-5.5,5.9c-.5,1.2.3,2.6,1.7,2.2a15.15,15.15,0,0,0,8.3-5.3c1-1.2-.3-3.4-1.8-2.4-2,1.3-7,5.2-3.9,7.9,3.4,3,9.7-1.9,11.8-4.3.9-1,0-3.1-1.5-2.5-2,.8-7.5,4.8-3.4,6.7,3.3,1.6,9.2-3.6,9.9-6.5a1.48,1.48,0,0,0-.7-1.7c-3.5-2.2-10.5,5.9-7.5,9.1,3.5,3.5,14.4-3.7,12.9-8.2a1.6,1.6,0,0,0-1.4-1.1c-3.6-.1-9.2,4.3-8.5,8.2a1.44,1.44,0,0,0,1,1c3.7,1.3,8.9-1.5,10.3-5.1,1.3-3.4-2-5.3-4.9-3.7-2.3,1.2-5.3,5-2.3,7.1,3.5,2.6,8.3-3.6,9.8-6a1.5,1.5,0,0,0-1.7-2.2c-3.1,1-9.7,7.1-3.2,8.2,3.4.5,15.1-4.7,12.2-9.2-1.6-2.5-6.2-3.1-8.7-3.6a32,32,0,0,0-12.7-.5C88,25,79.5,29.2,74.7,36.7a1.56,1.56,0,0,0,2.1,2.1c1.4-.9,2.7-1.8,4.1-2.8l-1.8-2.4A15.66,15.66,0,0,0,76.3,38a1.48,1.48,0,0,0,1.4,1.9c7.7-.5,14.8-3.3,22-5.9,3.4-1.2,6.8-2.8,10.3-3.5,6.6-1.4,10.3,2.3,14.9,6.3l1.8-2.4c-1.9-1.4-3.7-2.8-5.7-4-1.2-.7-3,.8-2.1,2.1a27.33,27.33,0,0,0,4.6,5l2.1-2.1c-2.7-2.2-5.5-5.5-8.9-6.4-1.1-.3-2.5,1.1-1.7,2.2a37,37,0,0,0,6.9,6.8c.5-.9,1-1.7,1.5-2.6-3-2-5.3-4.4-8.7-5.6A1.52,1.52,0,0,0,113,32a25.92,25.92,0,0,0,6.4,6.8c1.2.9,2.9-.9,2.1-2.1-2.7-3.7-8.8-7.4-12.3-2.2-4.5,6.6,7.2,6.6,10.4,7v-3a11.82,11.82,0,0,1-5.3-.8v2.9a28.53,28.53,0,0,0,6.3-1.9c1.4-.6.7-2.8-.8-2.8a52.25,52.25,0,0,0-6.8.7c-3.2.6-6.4,2.3-9.7,1.5-1.9-.5-2.5,2.2-.8,2.9a11.17,11.17,0,0,0,7,.6c-.3-1-.5-1.9-.8-2.9-5.4,1.6-12.5-.6-18.1-.5-1.9.1-1.9,3,0,3a52.4,52.4,0,0,0,5.6-.2c1.9-.2,2-3,0-3-3.4,0-6.9-.1-10.3-.1.3.9.5,1.9.8,2.8a5.73,5.73,0,0,0,2.6-2.5A1.57,1.57,0,0,0,88,35.9c-1.9-.2-2.5,1.9-1.5,3.3,1.7,2.3,5.3,1.2,6.5-1,3.5-6.5-7.7-8.9-6.9-1.9s11.6,1.3,9-4.9c-.8-1.8-2.9-2.7-4.4-1-2.1,2.4.2,7,2.3,8.5a1.59,1.59,0,0,0,1.5,0c3.2-1.6,4.6-10-.5-9.2-4,.6-2.6,8.7,1.5,7.7,1.8-.5,1-3.4-.9-2.9Z" transform="translate(-62.32 -23.07)"/><path class="cls-1" d="M92.5,30.7l2.3-.6a1.51,1.51,0,0,0,1.1-1.6,1.43,1.43,0,0,0-1.5-1.3,2.09,2.09,0,0,1-1.7-.4,25.12,25.12,0,0,1-.4,2.7,3.19,3.19,0,0,1,1.9.3,1.72,1.72,0,0,0,2.1-.5,1.58,1.58,0,0,0-.5-2.1,7.47,7.47,0,0,0-4.2-.6,1.5,1.5,0,0,0-1.1,1.2,1.57,1.57,0,0,0,.7,1.5,4.11,4.11,0,0,0,3.2.8c-.1-1-.3-2-.4-2.9l-2.3.6a1.51,1.51,0,0,0,.8,2.9Z" transform="translate(-62.32 -23.07)"/><path class="cls-1" d="M111.1,27.1a2.09,2.09,0,0,1-.6-.4c-.5.8-1,1.7-1.5,2.5a11.08,11.08,0,0,1,1.9.9c.4-.9.7-1.7,1.1-2.6h-.4c-.2,0,.2.1-.1,0,0,0-.2-.1-.1,0-.3-.1,0,0-.2-.1a1.54,1.54,0,0,0-2.1,0,1.45,1.45,0,0,0,0,2.1,3.91,3.91,0,0,0,2.9,1.1,1.69,1.69,0,0,0,1.4-.9c.2-.5.2-1.3-.3-1.6a9.87,9.87,0,0,0-3.2-1.7,1.53,1.53,0,0,0-1.5,2.5,5,5,0,0,0,1.2.8,1.6,1.6,0,0,0,2.1-.5,1.58,1.58,0,0,0-.6-2.1Z" transform="translate(-62.32 -23.07)"/><path class="cls-2" d="M74.9,89.1c-7-3-8.2-11.3-8.8-18-.6-5.9,1.2-11.4,3.1-16.9.3-.7-.9-1-1.2-.3-3.7,10.5-6.7,30.8,6.5,36.4.7.3,1.1-.9.4-1.2Z" transform="translate(-62.32 -23.07)"/><path class="cls-2" d="M129,87.2c7.1-6.7,7.6-21.5,5.2-30.3-.2-.7-1.4-.4-1.2.3,2.3,8.3,1.8,22.8-4.9,29.1-.5.6.3,1.5.9.9Z" transform="translate(-62.32 -23.07)"/><path class="cls-2" d="M119.8,39.4a20.24,20.24,0,0,1,7,9.3c.3.7,1.4.4,1.2-.3a20.82,20.82,0,0,0-7.5-10c-.7-.5-1.3.5-.7,1Z" transform="translate(-62.32 -23.07)"/><path class="cls-2" d="M74.1,50.3a26.25,26.25,0,0,1,3.3-5.9c.8-1.1,3.4-5.4,5.1-5.3a.6.6,0,1,0,0-1.2c-2.2-.1-4.1,3.3-5.3,4.8A28.88,28.88,0,0,0,73,49.9a.59.59,0,1,0,1.1.4Z" transform="translate(-62.32 -23.07)"/><path class="cls-3" d="M77.1,93.9c-3.2-1.8-6.6-3.6-8.7-6.7s-2.9-7.4-3.7-11.1a44.71,44.71,0,0,1,.4-22.4A41.44,41.44,0,0,1,76.3,35.1c4.9-4.7,14.1-11.5,21.4-10a.62.62,0,0,0,.3-1.2c-6.8-1.3-14.6,3.7-19.6,7.8a43.05,43.05,0,0,0-14,20.1,47.35,47.35,0,0,0-.9,24.5c.9,4.3,1.8,9.1,4.7,12.5,2.2,2.7,5.3,4.4,8.3,6,.7.5,1.3-.6.6-.9Z" transform="translate(-62.32 -23.07)"/><path class="cls-3" d="M75.4,94.3a14.87,14.87,0,0,0,4.5,1.9.62.62,0,0,0,.6-1c-2.5-2.6-3.7-6.1-4.8-9.5-.2-.7-1.4-.4-1.2.3,1.2,3.6,2.4,7.2,5.1,10,.2-.3.4-.7.6-1A15.67,15.67,0,0,1,76,93.2c-.6-.4-1.2.7-.6,1.1Z" transform="translate(-62.32 -23.07)"/><path class="cls-3" d="M83.6,40.8c-10.1,10-12.8,24-11.3,37.7.1.8,1.3.8,1.2,0-1.5-13.4,1.1-27.1,11-36.9.5-.5-.4-1.4-.9-.8Z" transform="translate(-62.32 -23.07)"/><path class="cls-3" d="M77.7,92.7a16.83,16.83,0,0,1,2.9,2.4.6.6,0,0,0,1-.3c0-.3.1-.5.1-.8a3.55,3.55,0,0,0-.9.4c.5.2,1,.5,1.5.7s1,0,.9-.5a1.27,1.27,0,0,0-.1-.6c-.3.2-.6.3-.9.5a7.61,7.61,0,0,1,1.9,1.2.52.52,0,0,0,.8-.2c-.1.3,3.7,1.3,3.8,1.3.7.2,1.1-1,.3-1.2a12.37,12.37,0,0,1-2.9-1c-.4-.2-.5-.4-1-.4a1.21,1.21,0,0,0-1.2.7c.3-.1.5-.1.8-.2a12.23,12.23,0,0,0-1.9-1.2c-.4-.2-1,0-.9.5a1.27,1.27,0,0,0,.1.6c.3-.2.6-.3.9-.5-.5-.2-1-.5-1.5-.7-.3-.1-.8-.1-.9.4,0,.3-.1.5-.1.8.3-.1.7-.2,1-.3a15.85,15.85,0,0,0-3.2-2.6c-.6-.5-1.2.6-.5,1Z" transform="translate(-62.32 -23.07)"/><path class="cls-3" d="M94.5,24.9c8.3-1.6,18.5,0,25.7,4.7,6.6,4.3,13.4,13.4,15.8,20.8s3,19.7-.4,26.5-7.3,15.9-14.2,19.6c.3.2.6.5.9.7a103.38,103.38,0,0,1,4.9-10.7c.4-.7-.7-1.3-1-.6a109,109,0,0,0-5,11c-.2.5.5.9.9.7,7.5-4,12.1-14.1,15.4-21.5,1.9-4.3,1.4-8.9,1.3-13.5s-.4-9.5-2.1-14c-2.8-7.1-9.3-15.8-15.8-20-7.5-4.8-18-6.5-26.6-4.8-.8.1-.5,1.3.2,1.1Z" transform="translate(-62.32 -23.07)"/><path class="cls-3" d="M116.5,40.2c11.1,10.6,14.3,23.6,11.1,38.5a.62.62,0,0,0,1.2.3c3.3-15.4,0-28.8-11.4-39.7-.6-.5-1.5.3-.9.9Z" transform="translate(-62.32 -23.07)"/><path class="cls-3" d="M82.5,42.5a3.36,3.36,0,0,0,.4,2.2.58.58,0,1,0,1-.6,2.77,2.77,0,0,1-.3-1.3c.2-.8-1-1.1-1.1-.3Z" transform="translate(-62.32 -23.07)"/><path class="cls-3" d="M84,45.1c.8-.2,1.5-.5,2.3-.7s.4-1.4-.3-1.2-1.5.5-2.3.7-.4,1.4.3,1.2Z" transform="translate(-62.32 -23.07)"/><path class="cls-3" d="M86.2,44.6a2.42,2.42,0,0,0,2.8-.5c.6-.5-.3-1.4-.8-.8a1.44,1.44,0,0,1-1.4.3.63.63,0,0,0-.8.2.52.52,0,0,0,.2.8Z" transform="translate(-62.32 -23.07)"/><path class="cls-3" d="M88.6,44a3.21,3.21,0,0,0,2,1,1.8,1.8,0,0,0,1.6-.9c.4-.7-.7-1.3-1-.6s-1.3-.1-1.6-.4c-.7-.5-1.6.4-1,.9Z" transform="translate(-62.32 -23.07)"/><path class="cls-3" d="M92.3,44.5a1,1,0,0,1,1.2.7c.3.7,1.4.1,1-.6a2.36,2.36,0,0,0-2.3-1.3c-.7.1-.7,1.3.1,1.2Z" transform="translate(-62.32 -23.07)"/><path class="cls-3" d="M94.8,45.6a6.1,6.1,0,0,0,1.6-1.2c.6-.5-.3-1.4-.8-.8a7.1,7.1,0,0,1-1.4,1,.58.58,0,1,0,.6,1Z" transform="translate(-62.32 -23.07)"/><path class="cls-3" d="M96.3,44.6c.8.2,1.5.5,2.3.7a.62.62,0,0,0,.3-1.2c-.8-.2-1.5-.5-2.3-.7s-1,.9-.3,1.2Z" transform="translate(-62.32 -23.07)"/><path class="cls-3" d="M99.7,45.2c.6-.3,1.2-.6,1.7-.9a.58.58,0,1,0-.6-1c-.6.3-1.2.6-1.7.9-.7.3-.1,1.3.6,1Z" transform="translate(-62.32 -23.07)"/><path class="cls-3" d="M101.5,44.3a1.7,1.7,0,0,1,.7.1.62.62,0,0,0,.3-1.2,5.7,5.7,0,0,0-1.3-.1c-.8.1-.4,1.3.3,1.2Z" transform="translate(-62.32 -23.07)"/><path class="cls-3" d="M102.6,44.4a2.59,2.59,0,0,0,1.1.7.62.62,0,0,0,.3-1.2,3.33,3.33,0,0,1-.6-.3c-.5-.6-1.4.3-.8.8Z" transform="translate(-62.32 -23.07)"/><path class="cls-3" d="M104.7,45.2a3,3,0,0,0,.8-.4c.7-.3.1-1.4-.6-1a3,3,0,0,0-.8.4c-.7.3-.1,1.4.6,1Z" transform="translate(-62.32 -23.07)"/><path class="cls-3" d="M106.2,44.4c.3-.2.7-.3,1-.5.7-.3.1-1.4-.6-1-.3.2-.7.3-1,.5-.7.3-.1,1.4.6,1Z" transform="translate(-62.32 -23.07)"/><path class="cls-3" d="M106.8,44c.7.2,1.3.4,2,.6a.62.62,0,0,0,.3-1.2c-.7-.2-1.3-.4-2-.6s-1,.9-.3,1.2Z" transform="translate(-62.32 -23.07)"/><path class="cls-3" d="M109.3,44.7h1a.6.6,0,1,0,0-1.2h-1a.6.6,0,1,0,0,1.2Z" transform="translate(-62.32 -23.07)"/><path class="cls-3" d="M110.9,44.6a4,4,0,0,1,1.5-.3.6.6,0,1,0,0-1.2,5.66,5.66,0,0,0-1.8.3c-.7.2-.4,1.4.3,1.2Z" transform="translate(-62.32 -23.07)"/><path class="cls-3" d="M113.2,44c.3-.2.5-.4.8-.6.6-.5-.2-1.3-.8-.8-.3.2-.5.4-.8.6-.7.5.2,1.3.8.8Z" transform="translate(-62.32 -23.07)"/><path class="cls-3" d="M113.7,43.4c.3-.2.7-.3,1-.5.7-.3.1-1.4-.6-1-.3.2-.7.3-1,.5-.7.3-.1,1.4.6,1Z" transform="translate(-62.32 -23.07)"/><path class="cls-3" d="M114.5,43.1a1,1,0,0,1,.9.2.58.58,0,1,0,.6-1,2.89,2.89,0,0,0-1.8-.3c-.7,0-.4,1.2.3,1.1Z" transform="translate(-62.32 -23.07)"/><path class="cls-3" d="M115.9,43.4a2.09,2.09,0,0,1,.6.4.58.58,0,1,0,.6-1,2.09,2.09,0,0,1-.6-.4c-.6-.4-1.2.6-.6,1Z" transform="translate(-62.32 -23.07)"/><path class="cls-3" d="M117.4,44.1l1-.3c.7-.2.4-1.3-.3-1.2l-1,.3c-.8.2-.4,1.4.3,1.2Z" transform="translate(-62.32 -23.07)"/><path class="cls-3" d="M118.8,43.8a.35.35,0,0,0,.2-.1c.7-.3.1-1.4-.6-1a.35.35,0,0,0-.2.1c-.7.3-.1,1.3.6,1Z" transform="translate(-62.32 -23.07)"/><path class="cls-3" d="M120.2,96.1c.2-.4.7-.6,1-.3.6.5,1.4-.4.8-.8a1.87,1.87,0,0,0-2.9.6c-.3.6.8,1.2,1.1.5Z" transform="translate(-62.32 -23.07)"/><path class="cls-3" d="M111.7,96.7c.4-1,1.3-.7,2.1-.7.1-.1.3-.2.4-.3a.86.86,0,0,1,.6.3c.2,0,.5.2.7.2.7-.1.9-.8,1.4-.9a11.27,11.27,0,0,0,1.8.3.56.56,0,0,0,.9-.1c.4.1.8.1,1.3.2.7.4,1.3-.7.6-1-1.1-.6-2.1-.9-2.9.3.3,0,.6-.1.9-.1a1.39,1.39,0,0,0-1-.5c-.5-.1-.7,0-1.1-.1-1.1-.2-.9-.1-1.8.4-.4.2-.1.2-.6.2-.1,0-.5-.3-.6-.3-.4,0-.7.2-1.1.2-1.5.1-2-.1-2.7,1.5-.2.5.8,1.1,1.1.4Z" transform="translate(-62.32 -23.07)"/></svg>