<?xml version="1.0" encoding="utf-8"?>
<!-- Generator: Adobe Illustrator 21.0.2, SVG Export Plug-In . SVG Version: 6.00 Build 0)  -->
<svg version="1.1" id="Layer_1" xmlns="http://www.w3.org/2000/svg" xmlns:xlink="http://www.w3.org/1999/xlink" x="0px" y="0px"
	 viewBox="0 0 200 600" style="enable-background:new 0 0 200 600;" xml:space="preserve">
<style type="text/css">
	.st0{fill:#110C16;}
	.st1{fill:none;stroke:#000005;stroke-width:0.1;stroke-miterlimit:10;}
	.st2{fill:#000005;}
</style>
<g>
	<g>
		<g id="XMLID_6_">
			<g>
				<path class="st0" d="M64.1,314.4c-0.1-4.4-0.2-8.7-0.2-13.1c0-3.3,0-6.5,0-9.8c0-1.3,0-2.7,0-4c0-1,0-2.1,0-3.1
					c0.2-7.2,1.5-14.4,3.9-21.3l0.1,0c14.4,4.7,29.9,6.3,44.9,4.5c6.5-0.8,12.9-2.2,19.2-3.7l0.4-0.1c2.4,6.9,3.7,14.1,3.9,21.4
					c0,1.1,0,2.1,0.1,3.1c0,1.3,0,2.7,0,4c0,3.3,0.1,6.5,0.1,9.8c0,4.4-0.1,8.7-0.2,13.1l0.2,0c-0.2,8.2-0.5,16.5-0.9,24.7
					c-0.1,1.6-0.1,3.1-0.2,4.7l-0.4,0c-1.3-0.6-2.7-1.2-4.1-1.4c-1.1-0.2-2.2-0.2-3.4-0.3c-20.9-0.6-41.8-1.1-62.5,2l-0.2-0.5
					c-0.1-1.8-0.2-3.6-0.2-5.3c-0.3-8.2-0.7-16.4-0.9-24.7L64.1,314.4z"/>
			</g>
			<g>
				<path class="st1" d="M68,263.1c14.4,4.7,29.9,6.3,44.9,4.5c6.5-0.8,12.9-2.2,19.2-3.7"/>
				<path class="st1" d="M68,262.7c0,0.1-0.1,0.2-0.1,0.4c-2.4,6.8-3.7,14-3.9,21.3c0,1,0,2.1,0,3.1c0,1.3,0,2.7,0,4
					c0,3.3,0,6.5,0,9.8c0,4.4,0.1,8.7,0.2,13.1c0,0.5,0,1,0.1,1.5"/>
				<path class="st1" d="M63.9,314.4c0.2,8.2,0.5,16.5,0.9,24.7c0.1,1.8,0.1,3.6,0.2,5.3"/>
				<path class="st1" d="M132.4,263.5c0,0.1,0.1,0.2,0.1,0.2c2.4,6.9,3.7,14.1,3.9,21.4c0,1.1,0,2.1,0.1,3.1c0,1.3,0,2.7,0,4
					c0,3.3,0.1,6.5,0.1,9.8c0,4.4-0.1,8.7-0.2,13.1c0,0.5,0,1-0.1,1.5"/>
				<path class="st1" d="M136.5,315.2c-0.2,8.2-0.5,16.5-0.9,24.7c-0.1,1.6-0.1,3.1-0.2,4.7c0,0.2,0,0.4,0,0.6"/>
				<path class="st1" d="M65.2,344.8c20.6-3.1,41.6-2.6,62.5-2c1.1,0,2.3,0.1,3.4,0.3c1.4,0.3,2.8,0.8,4.1,1.4"/>
			</g>
		</g>
	</g>
	<g>
		<g>
			<path class="st2" d="M65.7,345.2c4.9-0.9,9.8-1.5,14.8-1.7c2.4-0.1,6.1,0.6,8.1-0.4c0.3-0.2,0.4-0.7,0.1-0.9c0,0-0.1-0.1-0.1-0.1
				c-0.3-0.3-0.7-0.2-0.9,0.1c0,0,0,0.1-0.1,0.1c-0.3,0.4,0.1,0.9,0.5,0.9c7.6-0.3,15.3-0.5,22.9-0.5c7.8,0,16.8-1,24,2.5
				c0.7,0.3,1.3-0.7,0.6-1c-9.5-4.6-22-2.7-32.3-2.6c-12.7,0.2-25.5,0.3-38,2.5C64.6,344.2,64.9,345.3,65.7,345.2L65.7,345.2z"/>
		</g>
	</g>
	<g>
		<g>
			<path class="st2" d="M65.8,344.6c-0.7-9.6-1.7-19.5-1-29.2c0.1-0.8-1.1-0.8-1.2,0c-0.6,9.6,0.3,19.5,1,29.2
				C64.7,345.3,65.9,345.3,65.8,344.6L65.8,344.6z"/>
		</g>
	</g>
	<g>
		<g>
			<path class="st2" d="M64.7,315.6c-0.4-9.6-0.5-19.1-0.2-28.7c0-0.8-1.2-0.8-1.2,0c-0.3,9.6-0.3,19.1,0.2,28.7
				C63.6,316.3,64.8,316.3,64.7,315.6L64.7,315.6z"/>
		</g>
	</g>
	<g>
		<g>
			<path class="st2" d="M64.5,287.5c0.3-8.4,1.7-16.6,4.3-24.7c0.2-0.7-0.9-1.1-1.2-0.3c-2.7,8.1-4.1,16.4-4.4,25
				C63.2,288.3,64.4,288.3,64.5,287.5L64.5,287.5z"/>
		</g>
	</g>
	<g>
		<g>
			<path class="st2" d="M68.3,263.4c4.2,2,8.9,2.3,13.3,3.4c4.8,1.3,9.8,1.2,14.7,1.5c12.4,0.6,23.6-1.6,35.7-4
				c0.8-0.2,0.4-1.3-0.3-1.2c-11.3,2.3-22.1,4.5-33.7,4c-4.8-0.2-9.8-0.1-14.4-1.1c-4.7-1-10.3-1.7-14.6-3.7
				C68.2,262.1,67.6,263.1,68.3,263.4L68.3,263.4z"/>
		</g>
	</g>
	<g>
		<g>
			<path class="st2" d="M132,263.2c1.6,5,2.9,10.1,3.7,15.3c0.8,5.3,1.5,12.1,0.5,17.4c-0.1,0.8,1,1.1,1.2,0.3
				c0.9-5,0.4-11.1-0.2-16.1c-0.8-5.9-2.1-11.6-3.9-17.2C132.9,262.1,131.7,262.4,132,263.2L132,263.2z"/>
		</g>
	</g>
	<g>
		<g>
			<path class="st2" d="M136.6,345.2c0-0.1,0-0.1,0-0.2c0-0.8-1.2-0.8-1.2,0c0,0.1,0,0.1,0,0.2C135.4,346,136.6,346,136.6,345.2
				L136.6,345.2z"/>
		</g>
	</g>
	<g>
		<g>
			<path class="st2" d="M136.4,344.9c-0.4-11.1,0.8-22.4,1.3-33.5c0-0.8-1.2-0.8-1.2,0c-0.5,11.1-1.6,22.4-1.3,33.5
				C135.2,345.7,136.4,345.7,136.4,344.9L136.4,344.9z"/>
		</g>
	</g>
	<g>
		<g>
			<path class="st2" d="M137.5,311.6c0.3-4.8,0.5-9.5,0.1-14.3c-0.1-0.8-1.3-0.8-1.2,0c0.3,4.8,0.2,9.5-0.1,14.3
				C136.3,312.4,137.5,312.4,137.5,311.6L137.5,311.6z"/>
		</g>
	</g>
	<g>
		<g>
			<path class="st2" d="M137.8,297.7c0-1.1,0-2.2,0-3.3c0-0.8-1.2-0.8-1.2,0c0,1.1,0,2.2,0,3.3C136.6,298.5,137.8,298.5,137.8,297.7
				L137.8,297.7z"/>
		</g>
	</g>
	<g>
		<path class="st0" d="M122,300.4c0.3-1.1,0.7-2.1,1.4-3c0.5-0.7,1.3-1.4,2-1c0.4,0.2,0.6,0.5,0.8,0.9c0.3,0.5,0.7,1,1,1.5
			c0.1,0.1,0.2,0.3,0.3,0.3c0.3,0.2,0.7-0.1,1-0.3c0.6-0.4,1.1-0.8,1.7-1.2c0.4-0.3,0.7-0.6,0.8-1c0-0.3-0.1-0.5-0.1-0.8
			c0-0.3,0.3-0.6,0.5-0.5c0.1,0.1,0.2,0.2,0.2,0.3c0.1,0.3,0.2,0.7,0.3,1c-0.1-0.5-0.1-1-0.2-1.5"/>
	</g>
	<g>
		<g>
			<path class="st2" d="M69.6,281.5c-0.4-4.5,0.4-8.8,2.4-12.9c0.4-0.7-0.7-1.3-1-0.6c-2.2,4.2-3.1,8.7-2.6,13.5
				C68.5,282.3,69.7,282.3,69.6,281.5L69.6,281.5z"/>
		</g>
	</g>
	<g>
		<g>
			<path class="st2" d="M68.8,328.8c-0.2,3.5,0.7,6.9,2.7,9.8c0.4,0.6,1.5,0,1-0.6c-1.9-2.8-2.7-5.9-2.5-9.2
				C70.1,328,68.9,328,68.8,328.8L68.8,328.8z"/>
		</g>
	</g>
	<g>
		<g>
			<path class="st2" d="M131.7,339.2c0.9-3,1.2-6,0.8-9c-0.1-0.8-1.3-0.8-1.2,0c0.4,3,0.1,5.9-0.8,8.7
				C130.3,339.6,131.5,339.9,131.7,339.2L131.7,339.2z"/>
		</g>
	</g>
	<g>
		<g>
			<path class="st2" d="M127.2,268.4c2.8,2.3,2.8,7.9,3.4,11.2c0.1,0.8,1.3,0.4,1.2-0.3c-0.7-3.7-0.6-9.2-3.7-11.8
				C127.5,267.1,126.6,267.9,127.2,268.4L127.2,268.4z"/>
		</g>
	</g>
	<g>
		<g>
			<path class="st2" d="M98.7,270.5c0.1,0.8,0.2,1.7,0.3,2.5c0,0.3,0.2,0.6,0.6,0.6c0.3,0,0.6-0.3,0.6-0.6c-0.1-0.8-0.2-1.7-0.3-2.5
				c0-0.3-0.2-0.6-0.6-0.6C99,269.9,98.7,270.2,98.7,270.5L98.7,270.5z"/>
		</g>
	</g>
	<g>
		<g>
			<path class="st2" d="M99.1,278c0.1,0.9,0.2,1.8,0.3,2.7c0,0.8,1.2,0.8,1.2,0c0-1-0.1-2-0.3-3C100.2,276.9,99,277.2,99.1,278
				L99.1,278z"/>
		</g>
	</g>
	<g>
		<g>
			<path class="st2" d="M99.5,285.1c0,1.3,0.1,2.7,0.3,4c0.1,0.8,1.3,0.4,1.2-0.3c-0.2-1.2-0.3-2.4-0.3-3.7
				C100.7,284.4,99.5,284.4,99.5,285.1L99.5,285.1z"/>
		</g>
	</g>
	<g>
		<g>
			<path class="st2" d="M100,293.2c0.1,0.8,0.2,1.7,0.3,2.5c0.1,0.8,1.3,0.8,1.2,0c-0.1-0.8-0.2-1.7-0.3-2.5
				C101.1,292.4,99.9,292.4,100,293.2L100,293.2z"/>
		</g>
	</g>
	<g>
		<g>
			<path class="st2" d="M100.7,300.6c0,1.1,0.1,2.1,0.4,3.1c0.2,0.7,1.4,0.4,1.2-0.3c-0.2-0.9-0.4-1.9-0.4-2.8
				C101.9,299.9,100.7,299.9,100.7,300.6L100.7,300.6z"/>
		</g>
	</g>
	<g>
		<g>
			<path class="st2" d="M102.3,307.8c-0.1-0.1-0.2-0.3-0.2-0.4c-0.2-0.4-1-0.4-1.1,0.1c-0.2,1.1-0.1,2.1,0.1,3.2
				c0.2,0.7,1.4,0.4,1.2-0.3c-0.2-0.8-0.3-1.7-0.1-2.6c-0.4,0-0.7,0.1-1.1,0.1c0.1,0.1,0.2,0.3,0.2,0.4
				C101.7,309.1,102.7,308.5,102.3,307.8L102.3,307.8z"/>
		</g>
	</g>
	<g>
		<g>
			<path class="st2" d="M101.4,315.3c0,1.2,0,2.3,0,3.5c0,0.8,1.2,0.8,1.2,0c0-1.2,0-2.3,0-3.5C102.6,314.5,101.4,314.5,101.4,315.3
				L101.4,315.3z"/>
		</g>
	</g>
	<g>
		<g>
			<path class="st2" d="M101.7,322c0.1,1.1,0.3,2.1,0.4,3.2c0.1,0.8,1.3,0.8,1.2,0c-0.1-1.1-0.3-2.1-0.4-3.2
				C102.8,321.2,101.6,321.2,101.7,322L101.7,322z"/>
		</g>
	</g>
	<g>
		<g>
			<path class="st2" d="M102.1,328.5c0.1,0.8,0.1,1.7,0.1,2.5c-0.1,0.8,1.1,0.8,1.2,0c0.1-1,0-1.9-0.1-2.8
				C103.2,327.4,102,327.7,102.1,328.5L102.1,328.5z"/>
		</g>
	</g>
	<g>
		<g>
			<path class="st2" d="M102.4,334.5c-0.1,1.2,0.1,2.3,0.4,3.5c0.2,0.7,1.3,0.4,1.2-0.3c-0.3-1-0.4-2.1-0.3-3.2
				C103.6,333.7,102.4,333.7,102.4,334.5L102.4,334.5z"/>
		</g>
	</g>
</g>
</svg>
