<?xml version="1.0" encoding="utf-8"?>
<!-- Generator: Adobe Illustrator 21.0.2, SVG Export Plug-In . SVG Version: 6.00 Build 0)  -->
<svg version="1.1" id="Layer_1" xmlns="http://www.w3.org/2000/svg" xmlns:xlink="http://www.w3.org/1999/xlink" x="0px" y="0px"
	 viewBox="0 0 200 600" style="enable-background:new 0 0 200 600;" xml:space="preserve">
<style type="text/css">
	.st0{fill:#2E407D;}
	.st1{fill:none;stroke:#000005;stroke-width:0.1;stroke-miterlimit:10;}
	.st2{fill:#000005;}
	.st3{fill:#283870;}
</style>
<g>
	<g>
		<g id="XMLID_6_">
			<g>
				<path class="st0" d="M63.8,313.7c-0.1-4.4-0.2-8.7-0.2-13c0-3.3,0-6.5,0.1-9.8c0-1.3,0-2.6,0-4c0-1,0-2.1,0-3.1
					c0.2-7.2,1.5-14.3,3.9-21.1l0.1,0c14.4,4.7,29.8,6.2,44.9,4.5c6.5-0.8,12.9-2.1,19.2-3.7l0.4-0.1c2.4,6.8,3.7,14,3.9,21.3
					c0,1,0,2.1,0.1,3.1c0,1.3,0,2.6,0,4c0,3.3,0.1,6.5,0.1,9.8c0,4.4-0.1,8.7-0.2,13l0.2,0c-0.2,8.2-0.5,16.4-0.9,24.5
					c-0.1,1.5-0.1,3.1-0.2,4.7l-0.4,0c-1.3-0.6-2.7-1.2-4.1-1.4c-1.1-0.2-2.2-0.2-3.3-0.3c-20.9-0.6-41.8-1.1-62.5,2l-0.2-0.5
					c-0.1-1.8-0.2-3.5-0.2-5.3c-0.3-8.2-0.7-16.4-0.9-24.5L63.8,313.7z"/>
			</g>
			<g>
				<path class="st1" d="M67.7,262.7c14.4,4.7,29.8,6.2,44.9,4.5c6.5-0.8,12.9-2.1,19.2-3.7"/>
				<path class="st1" d="M67.7,262.3c0,0.1-0.1,0.2-0.1,0.4c-2.4,6.8-3.7,14-3.9,21.1c0,1,0,2.1,0,3.1c0,1.3,0,2.6,0,4
					c0,3.3-0.1,6.5-0.1,9.8c0,4.3,0.1,8.7,0.2,13c0,0.5,0,1,0,1.5"/>
				<path class="st1" d="M63.6,313.7c0.2,8.2,0.5,16.4,0.9,24.5c0.1,1.8,0.1,3.5,0.2,5.3"/>
				<path class="st1" d="M132.1,263.2c0,0.1,0.1,0.1,0.1,0.2c2.4,6.8,3.7,14,3.9,21.3c0,1,0,2.1,0.1,3.1c0,1.3,0,2.6,0,4
					c0,3.3,0.1,6.5,0.1,9.8c0,4.4-0.1,8.7-0.2,13c0,0.5,0,1,0,1.5"/>
				<path class="st1" d="M136.2,314.6c-0.2,8.2-0.5,16.4-0.9,24.5c-0.1,1.5-0.1,3.1-0.2,4.7c0,0.2,0,0.4,0,0.6"/>
				<path class="st1" d="M64.9,344c20.6-3.1,41.6-2.6,62.5-2c1.1,0,2.3,0.1,3.3,0.3c1.4,0.3,2.8,0.8,4.1,1.4"/>
			</g>
		</g>
	</g>
	<g>
		<g>
			<path class="st2" d="M65,345.1c4.9-0.9,9.8-1.5,14.8-1.7c2.4-0.1,6.1,0.6,8.1-0.4c0.3-0.2,0.4-0.7,0.1-0.9c0,0-0.1-0.1-0.1-0.1
				c-0.3-0.3-0.7-0.2-0.9,0.1c0,0,0,0.1-0.1,0.1c-0.3,0.4,0.1,0.9,0.5,0.9c7.6-0.3,15.3-0.5,22.9-0.5c7.8,0,16.8-1,24,2.5
				c0.7,0.3,1.3-0.7,0.6-1c-9.5-4.6-22-2.7-32.3-2.6c-12.7,0.2-25.5,0.3-38,2.5C63.9,344,64.3,345.2,65,345.1L65,345.1z"/>
		</g>
	</g>
	<g>
		<g>
			<path class="st2" d="M65.2,344.4c-0.7-9.6-1.7-19.5-1-29.2c0.1-0.8-1.1-0.8-1.2,0c-0.6,9.6,0.3,19.5,1,29.2
				C64,345.2,65.2,345.2,65.2,344.4L65.2,344.4z"/>
		</g>
	</g>
	<g>
		<g>
			<path class="st2" d="M64.1,315.4c-0.4-9.6-0.5-19.1-0.2-28.7c0-0.8-1.2-0.8-1.2,0c-0.3,9.6-0.3,19.1,0.2,28.7
				C62.9,316.2,64.1,316.2,64.1,315.4L64.1,315.4z"/>
		</g>
	</g>
	<g>
		<g>
			<path class="st2" d="M63.8,287.3c0.3-8.4,1.7-16.6,4.3-24.7c0.2-0.7-0.9-1.1-1.2-0.3c-2.7,8.1-4.1,16.4-4.4,25
				C62.6,288.1,63.8,288.1,63.8,287.3L63.8,287.3z"/>
		</g>
	</g>
	<g>
		<g>
			<path class="st2" d="M67.6,263.3c4.2,2,8.9,2.3,13.3,3.4c4.8,1.3,9.8,1.2,14.7,1.5c12.4,0.6,23.6-1.6,35.7-4
				c0.8-0.2,0.4-1.3-0.3-1.2c-11.3,2.3-22.1,4.5-33.7,4c-4.8-0.2-9.8-0.1-14.4-1.1c-4.7-1-10.3-1.7-14.6-3.7
				C67.5,261.9,66.9,262.9,67.6,263.3L67.6,263.3z"/>
		</g>
	</g>
	<g>
		<g>
			<path class="st2" d="M131.3,263c1.6,5,2.9,10.1,3.7,15.3c0.8,5.3,1.5,12.1,0.5,17.4c-0.1,0.8,1,1.1,1.2,0.3
				c0.9-5,0.4-11.1-0.2-16.1c-0.8-5.9-2.1-11.6-3.9-17.2C132.2,262,131.1,262.3,131.3,263L131.3,263z"/>
		</g>
	</g>
	<g>
		<g>
			<path class="st2" d="M135.9,345.1c0-0.1,0-0.1,0-0.2c0-0.8-1.2-0.8-1.2,0c0,0.1,0,0.1,0,0.2C134.7,345.9,135.9,345.9,135.9,345.1
				L135.9,345.1z"/>
		</g>
	</g>
	<g>
		<g>
			<path class="st2" d="M135.7,344.8c-0.4-11.1,0.8-22.4,1.3-33.5c0-0.8-1.2-0.8-1.2,0c-0.5,11.1-1.6,22.4-1.3,33.5
				C134.6,345.5,135.8,345.5,135.7,344.8L135.7,344.8z"/>
		</g>
	</g>
	<g>
		<g>
			<path class="st2" d="M136.9,311.5c0.3-4.8,0.5-9.5,0.1-14.3c-0.1-0.8-1.3-0.8-1.2,0c0.3,4.8,0.2,9.5-0.1,14.3
				C135.6,312.3,136.8,312.3,136.9,311.5L136.9,311.5z"/>
		</g>
	</g>
	<g>
		<g>
			<path class="st2" d="M137.2,297.6c0-1.1,0-2.2,0-3.3c0-0.8-1.2-0.8-1.2,0c0,1.1,0,2.2,0,3.3C136,298.4,137.2,298.4,137.2,297.6
				L137.2,297.6z"/>
		</g>
	</g>
	<g>
		<g>
			<path class="st0" d="M126.2,301.8c0.2-0.6,0.3-0.4,0.2-0.7c0.2-0.3,0.2-0.4,0-0.2c-0.4,0.4-0.9,0.7-1.5,0.9c-1.1,0-2.1,0-3.2,0
				c-0.2-0.1-0.3-0.1-0.5-0.2c-0.7-0.7-1.4-1.4-2.2-2.2c1,1.4,1.8,3,3.2,4.1c2.2,1.7,5.3,1.7,7.6,0.2c1.2-0.8,2.5-1.7,3.5-2.8
				c1.9-2.1,2-4.4,1.6-7c0,1.1,0,2.1,0,3.2c0.1-0.1,0.1-0.2,0.2-0.4c-1.4,1.4-2.8,2.8-4.2,4.2c0.1,0,0.2-0.1,0.3-0.1
				c-2.3-0.9-4.5-1.8-6.8-2.8c-0.2-0.8-0.3-0.9-0.1-0.1c0.6,3.2,4.5,5,7.4,4.2c3.4-0.9,4.7-4.2,4.2-7.4c-0.1-0.5-0.1-1-0.2-1.5
				c-0.5-3.2-4.5-5-7.4-4.2c-3.4,0.9-4.7,4.2-4.2,7.4c0.1,0.5,0.1,1,0.2,1.5c3.9-1.1,7.7-2.1,11.6-3.2c-0.2-1-0.5-2-1.1-2.7
				c-1.7-2.2-4-3.5-6.8-2.8c-2.2,0.6-3.9,2.1-4.5,4.3c-0.5,1.5-0.2,2.8,0,4.4c0-1.1,0-2.1,0-3.2c0,0.1-0.1,0.3-0.1,0.4
				c0.5-0.9,1-1.8,1.5-2.6c-0.6,0.8,0.4-0.3-0.3,0.3c-0.4,0.3-0.9,0.6-1.3,0.9c1-0.3,2-0.5,3-0.8c-0.2,0-0.3,0-0.5,0
				c1.4,0.6,2.8,1.2,4.2,1.8c0.8,0.9-0.2-0.5-0.4-0.7c-0.7-1-1.4-1.9-2.5-2.6c-1.8-1.2-3.9-1.5-6-0.9c-3.7,1-5.7,4.8-6.7,8.2
				c-0.9,3,1.1,6.7,4.2,7.4C122,306.7,125.3,305,126.2,301.8L126.2,301.8z"/>
		</g>
	</g>
	<g>
		<g>
			<path class="st3" d="M97.9,269.8c0.1,0.8,0.2,1.7,0.3,2.5c0,0.3,0.2,0.6,0.6,0.6c0.3,0,0.6-0.3,0.6-0.6c-0.1-0.8-0.2-1.7-0.3-2.5
				c0-0.3-0.2-0.6-0.6-0.6C98.2,269.2,97.8,269.4,97.9,269.8L97.9,269.8z"/>
		</g>
	</g>
	<g>
		<g>
			<path class="st3" d="M98.7,275.8c0.1,0.6,0.1,1.2,0.2,1.7c0.1,0.8,1.3,0.8,1.2,0c-0.1-0.6-0.1-1.2-0.2-1.7
				C99.8,275,98.6,275,98.7,275.8L98.7,275.8z"/>
		</g>
	</g>
	<g>
		<g>
			<path class="st3" d="M99.1,281.1c-0.2,0.9-0.2,1.8,0,2.7c0.2,0.8,1.3,0.4,1.2-0.3c-0.1-0.7-0.2-1.4,0-2.1
				C100.4,280.6,99.3,280.3,99.1,281.1L99.1,281.1z"/>
		</g>
	</g>
	<g>
		<g>
			<path class="st3" d="M98.9,287.7c0,0.7,0.1,1.3,0.1,2c0.1,0.8,1.3,0.8,1.2,0c0-0.7-0.1-1.3-0.1-2C100,287,98.8,287,98.9,287.7
				L98.9,287.7z"/>
		</g>
	</g>
	<g>
		<g>
			<path class="st3" d="M99.4,294.6c-0.1,0.8,0,1.5,0.1,2.3c0.1,0.8,1.3,0.4,1.2-0.3c-0.1-0.7-0.1-1.3-0.1-2
				C100.7,293.9,99.5,293.9,99.4,294.6L99.4,294.6z"/>
		</g>
	</g>
	<g>
		<g>
			<path class="st3" d="M99.7,299.9c0,0.9,0.1,1.7,0.3,2.5c0.2,0.7,1.4,0.4,1.2-0.3c-0.2-0.7-0.3-1.5-0.3-2.2
				C100.9,299.1,99.7,299.1,99.7,299.9L99.7,299.9z"/>
		</g>
	</g>
	<g>
		<g>
			<path class="st3" d="M99.8,306.6c0,0.8,0,1.7,0,2.5c0,0.8,1.2,0.8,1.2,0c0-0.8,0-1.7,0-2.5C101,305.9,99.8,305.9,99.8,306.6
				L99.8,306.6z"/>
		</g>
	</g>
	<g>
		<g>
			<path class="st3" d="M100.2,312.8c0.1,0.7,0.3,1.3,0.4,2c0.2,0.8,1.3,0.4,1.2-0.3c-0.1-0.7-0.3-1.3-0.4-2
				C101.2,311.7,100,312,100.2,312.8L100.2,312.8z"/>
		</g>
	</g>
	<g>
		<g>
			<path class="st3" d="M100.4,317.3c0.1,1,0.3,2.1,0.4,3.1c0.1,0.8,1.3,0.4,1.2-0.3c-0.1-1-0.3-2.1-0.4-3.1
				C101.5,316.2,100.3,316.5,100.4,317.3L100.4,317.3z"/>
		</g>
	</g>
	<g>
		<g>
			<path class="st3" d="M100.8,325.2c0.2,0.8,0.3,1.5,0.5,2.3c0.2,0.8,1.3,0.4,1.2-0.3c-0.2-0.8-0.3-1.5-0.5-2.3
				C101.8,324.1,100.7,324.4,100.8,325.2L100.8,325.2z"/>
		</g>
	</g>
	<g>
		<g>
			<path class="st3" d="M101.1,330.5c0.1,0.7,0.2,1.3,0.2,2c0.1,0.8,1.3,0.8,1.2,0c-0.1-0.7-0.2-1.3-0.2-2
				C102.2,329.7,101,329.7,101.1,330.5L101.1,330.5z"/>
		</g>
	</g>
	<g>
		<g>
			<path class="st3" d="M101.6,335.4c0.2,0.7,0.4,1.4,0.4,2.1c0,0.8,1.2,0.8,1.2,0c0-0.8-0.2-1.6-0.5-2.4
				C102.5,334.4,101.4,334.7,101.6,335.4L101.6,335.4z"/>
		</g>
	</g>
	<g>
		<g>
			<path class="st3" d="M101.9,339.6c-0.1,0.5-0.1,0.9,0.1,1.3c0.3,0.7,1.4,0.4,1.2-0.3c-0.1-0.2-0.1-0.4-0.1-0.7
				C103.2,339.2,102,338.8,101.9,339.6L101.9,339.6z"/>
		</g>
	</g>
	<g>
		<g>
			<path class="st3" d="M70.7,266.3c-2.4,3.2-3.3,7-4.1,10.8c-0.1,0.8,1,1.1,1.2,0.3c0.7-3.7,1.6-7.5,3.9-10.5
				C72.2,266.3,71.2,265.7,70.7,266.3L70.7,266.3z"/>
		</g>
	</g>
	<g>
		<g>
			<path class="st3" d="M127.8,266.7c0.1,0.5,0.3,0.7,0.6,1.1c0.7,1.3,1,2,1.3,3.4c0.5,2.1,0.9,4.2,1.3,6.4c0.2,0.8,1.3,0.4,1.2-0.3
				c-0.4-2.1-0.9-4.2-1.3-6.4c-0.2-0.9-0.3-1.9-0.7-2.7c-0.3-0.5-1-1.3-1.1-1.8C128.8,265.6,127.6,265.9,127.8,266.7L127.8,266.7z"
				/>
		</g>
	</g>
	<g>
		<g>
			<path class="st3" d="M68.8,339.8c-0.4,0-1.1-2.3-1.3-2.7c-0.3-0.9-0.5-1.9-0.7-2.9c-0.1-0.8-1.3-0.4-1.2,0.3
				c0.2,1.4,0.6,2.9,1.2,4.2c0.4,0.9,0.8,2.2,1.9,2.3C69.6,341.1,69.6,339.9,68.8,339.8L68.8,339.8z"/>
		</g>
	</g>
	<g>
		<g>
			<path class="st3" d="M131.2,340.3c0.7-1.9,1.1-3.8,1.3-5.8c0.1-0.8-1.1-0.8-1.2,0c-0.1,1.9-0.6,3.7-1.2,5.5
				C129.7,340.7,130.9,341,131.2,340.3L131.2,340.3z"/>
		</g>
	</g>
</g>
</svg>
