<svg id="Layer_1" data-name="Layer 1" xmlns="http://www.w3.org/2000/svg" viewBox="0 0 79.87 109.41"><defs><style>.cls-1{fill:#231f20;}.cls-2{fill:#130f11;}</style></defs><title>Black</title><g id="_Group_" data-name="&lt;Group&gt;"><path class="cls-1" d="M99.2,23.8a2.49,2.49,0,0,1,1.4-1.1,16.83,16.83,0,0,1,11.7.1c3.8,1.3,7.1,3.6,10.4,6a16.13,16.13,0,0,1,4.5,4.4,23.59,23.59,0,0,1,3.3,7.4,55.62,55.62,0,0,1,2,10.8l2.4,8.7a18.69,18.69,0,0,1,1,7.4c-.2,1.8-1,3.6-1.3,5.4-.8,4.3.7,8.6,2.7,12.6,1.3,1.6,2.5,3.5,2.1,5.5s-2.6,3.3-3.3,5.3c-.6,1.6-.1,3.4.2,5.1s.4,3.7-.7,5a11.22,11.22,0,0,1-2.2,1.6c-2.3,1.9-2.4,5.5-1.9,8.5a52.32,52.32,0,0,0,2.2,9.5l-.5.1a12.31,12.31,0,0,1-4.5-6,22.29,22.29,0,0,1-1.4-6.2h-.1a10,10,0,0,1-1.7,5.1c-.9,1.2-2,2-2.9,3.1-1.2,1.4-2.1,3-3.3,4.3s-3,2.3-4.6,1.7c-.1,0-.3-.1-.3-.2a.66.66,0,0,1,.1-.6c1-1.5,2.1-2.9,3-4.4a10.33,10.33,0,0,0,1.7-5.1,4.94,4.94,0,0,0-2.4-4.5l-1.2.1a13.66,13.66,0,0,1-1.5-3.7,14.44,14.44,0,0,0-2.1-4.1,2.92,2.92,0,0,1-.7-1.2,4.78,4.78,0,0,1,0-2.9,36,36,0,0,0,.3-8h.2a1.44,1.44,0,0,1,1.1-.9c.5-.1,1,0,1.4-.1a5.12,5.12,0,0,0,2.1-1,57.86,57.86,0,0,0,8.8-7.6l.3.1a13.89,13.89,0,0,0,.6-1.9c.5-2.2,0-4.4-.2-6.6a18.86,18.86,0,0,1,2.1-9.9l.2-.1a27.63,27.63,0,0,1-.4-9.5c.4-2.8,1.1-5.9-.2-8.4-1.6-2.8-4-4.3-6.5-6.1-1.8-1.3-3.3-3.4-5.1-4.7a15.16,15.16,0,0,0-9.5-2.3c-3,.3-5.9,2.7-8.7,3.7l-.1.1A8.3,8.3,0,0,0,94.3,37,22.16,22.16,0,0,0,88,37a17.88,17.88,0,0,0-6.9,1.6c-2.6,1.3-4.6,3.6-6.4,5.9a13.09,13.09,0,0,0-1.9,2.7c-1.3,2.9-.5,6.3-.7,9.5a12.85,12.85,0,0,1-.7,3.4,13.23,13.23,0,0,1-3.3,5.3l-2.9.5a11,11,0,0,1-.2-1.8c-.5-5,.4-10,1.4-15,1.2-6.5,2.7-13.3,7.1-17.9A31.5,31.5,0,0,1,79.1,27a34.05,34.05,0,0,1,6.5-3.5,20.51,20.51,0,0,1,6-1.1C94.2,22.3,96.9,22.4,99.2,23.8Z" transform="translate(-59.61 -21.69)"/><path class="cls-1" d="M62.8,89.5A9.18,9.18,0,0,1,61.3,84a13.12,13.12,0,0,1,.9-3.4,16.88,16.88,0,0,1,2.5-4.8,5.72,5.72,0,0,1,.7-.8l-.2-.2c1-2.8.4-5.9,0-8.9l2.9-.5a14,14,0,0,0,3.3-5.3l.4.1a13.66,13.66,0,0,0-.3,5.7c.6,3.1,2.4,5.8,2.8,8.9a14.7,14.7,0,0,1-.6,5.9l.6.1c3.1,3.6,6.2,7.3,10.2,9.7a54,54,0,0,0,4.9,2.3h.2c.1,3.1.2,6.1.2,9.2.1,1.8,0,3.8-1.1,5-.4,1.2-.6,2.5-1,3.7-.6,1.6-2.4,3.2-3.8,2.2-.4-.3-.8-.8-1.2-.9-.9-.3-1.8.6-2.2,1.6-1.2,2.9-.6,6.8-2.8,9a12.46,12.46,0,0,1-3.4,1.9c-1.2.6-2.4,1.5-2.6,2.8-.8-1.5-1.6-3.3-1.1-4.9a10.23,10.23,0,0,1,1.4-2.2,6.2,6.2,0,0,0,1.4-3.2,3.06,3.06,0,0,0-1.4-3c-.2,2-2.4,3-3.8,4.4a8.46,8.46,0,0,0-2,6.2,20.67,20.67,0,0,0,1.6,6.5,17.05,17.05,0,0,1-6.9-7.4l-.2.1a11.77,11.77,0,0,1-1-6.1c.4-2.7,2.2-4.9,3.2-7.4a13,13,0,0,0,.5-8.5c-.5-2.1-1.5-3.9-2-6s-.3-4.6,1.2-5.9Z" transform="translate(-59.61 -21.69)"/></g><path class="cls-2" d="M67.3,90.8a9.37,9.37,0,0,1-3.6-9.1c.1-.7-1-1.1-1.1-.3a10.71,10.71,0,0,0,3.9,10.2c.6.5,1.4-.3.8-.8Z" transform="translate(-59.61 -21.69)"/><path class="cls-2" d="M69.4,87a23.43,23.43,0,0,0,2.3-5.1.57.57,0,0,0-1.1-.3,20.57,20.57,0,0,1-2.1,4.8.55.55,0,1,0,.9.6Z" transform="translate(-59.61 -21.69)"/><path class="cls-2" d="M76.6,102.7c-.5-1.4,1.5-2.7,2.3-3.7a13.45,13.45,0,0,0,1.7-3.1c.3-.7-.9-1-1.1-.3a14.65,14.65,0,0,1-3.2,4.6,2.86,2.86,0,0,0-.8,2.9.59.59,0,1,0,1.1-.4Z" transform="translate(-59.61 -21.69)"/><path class="cls-2" d="M64.7,125.7c-1.8-1.3-3.5-5.9-2.4-7.8a8.86,8.86,0,0,0,1.6-3.4c.1-.8-1.1-.8-1.2,0-.3,2.5-2.6,3.4-1.9,6.2.5,2.1,1.5,4.7,3.3,6,.6.5,1.2-.5.6-1Z" transform="translate(-59.61 -21.69)"/><path class="cls-2" d="M72.5,124.3c.1-1.3,1.9-1.8,2.8-2.4a7.28,7.28,0,0,0,1.7-1.8,16.25,16.25,0,0,0,2-6.1c.1-.7-1-1.1-1.1-.3-.5,2.6-1,5.6-3.4,7.3-1.5,1-3,1.3-3.2,3.3-.1.8,1.1.8,1.2,0Z" transform="translate(-59.61 -21.69)"/><path class="cls-2" d="M66.9,105.2a16.27,16.27,0,0,0-2.5-8.6c-.4-.6-1.4,0-1,.6a15,15,0,0,1,2.4,8c-.1.8,1.1.8,1.1,0Z" transform="translate(-59.61 -21.69)"/><path class="cls-2" d="M67.4,63.2c2.4-3,2.1-7.5,2.4-11.1.1-.8-1.1-.8-1.2,0-.3,3.2.1,7.6-2,10.3-.6.5.3,1.4.8.8Z" transform="translate(-59.61 -21.69)"/><path class="cls-2" d="M78.6,31.2A15.38,15.38,0,0,1,87,26.5c2.8-.6,6.8-1.6,9.5-.8a.57.57,0,0,0,.3-1.1c-3.1-.9-7.1.2-10.1.8a15.65,15.65,0,0,0-8.9,5c-.6.5.3,1.4.8.8Z" transform="translate(-59.61 -21.69)"/><path class="cls-2" d="M99.2,35.8c3.9-1.8,9.6-5.4,13.9-2.4.6.4,1.2-.6.6-1-4.7-3.3-10.7.4-15.1,2.4-.7.3-.1,1.4.6,1Z" transform="translate(-59.61 -21.69)"/><path class="cls-2" d="M132.2,68.4a16.69,16.69,0,0,1-1-12.6.57.57,0,0,0-1.1-.3A18.07,18.07,0,0,0,131.2,69a.58.58,0,1,0,1-.6Z" transform="translate(-59.61 -21.69)"/><path class="cls-2" d="M128.5,90.2c-1.1-2.1-.5-3.7.2-5.8a12.21,12.21,0,0,0,.6-4.2.6.6,0,1,0-1.2,0c-.1,3.8-2.6,6.9-.7,10.6.4.7,1.5.1,1.1-.6Z" transform="translate(-59.61 -21.69)"/><path class="cls-2" d="M117.3,96.1a12.74,12.74,0,0,1,4.8,5.7c.3.7,1.4.4,1.1-.3a14.35,14.35,0,0,0-5.3-6.4c-.6-.4-1.2.6-.6,1Z" transform="translate(-59.61 -21.69)"/><path class="cls-2" d="M117.2,126.9c.9-2.3,3.3-4,4.6-6.1a19.92,19.92,0,0,0,2.4-6.7c.1-.7-1-1.1-1.1-.3a17.87,17.87,0,0,1-3.4,8c-1.2,1.6-2.8,2.8-3.6,4.8-.3.6.8,1,1.1.3Z" transform="translate(-59.61 -21.69)"/><path class="cls-2" d="M116.8,111.3c-1.3-2.5-1.4-5.5-3.2-7.9-.5-.6-1.5,0-1,.6,1.7,2.3,1.9,5.3,3.2,7.9a.58.58,0,1,0,1-.6Z" transform="translate(-59.61 -21.69)"/><path class="cls-2" d="M131.5,121.9c-1.3-3.6-2.5-7.4-1.8-11.3.1-.7-1-1.1-1.1-.3-.8,4.1.4,8,1.8,11.9a.57.57,0,0,0,1.1-.3Z" transform="translate(-59.61 -21.69)"/><path class="cls-2" d="M137.5,89.1c-2.2-1.6-2.8-4.9-3.6-7.4-.2-.7-1.4-.4-1.1.3,1,2.8,1.6,6.2,4.2,8.1.5.4,1.1-.6.5-1Z" transform="translate(-59.61 -21.69)"/><path class="cls-2" d="M71.2,42.9A10.66,10.66,0,0,1,72.9,38c.4-.6-.6-1.2-1-.6A12.08,12.08,0,0,0,70,42.9c-.1.7,1.1.7,1.2,0Z" transform="translate(-59.61 -21.69)"/><path class="cls-2" d="M121.3,31.8a20.64,20.64,0,0,1,3.1,2.8,24.29,24.29,0,0,1,1.8,4c.3.7,1.4.4,1.1-.3a25.4,25.4,0,0,0-1.8-4.1,14.46,14.46,0,0,0-3.4-3.1.54.54,0,1,0-.8.7Z" transform="translate(-59.61 -21.69)"/><path class="cls-2" d="M85.1,111.6a9.13,9.13,0,0,0,2.9-5c.1-.7-1-1.1-1.1-.3a7.42,7.42,0,0,1-2.6,4.5c-.6.4.2,1.3.8.8Z" transform="translate(-59.61 -21.69)"/></svg>