<svg id="Layer_1" data-name="Layer 1" xmlns="http://www.w3.org/2000/svg" viewBox="0 0 71.85 97.36"><defs><style>.cls-1{fill:#603015;}.cls-2{fill:#ef7a22;}.cls-3{fill:#100d0c;}.cls-4{fill:#ed8622;}</style></defs><title>Orange</title><g id="_Group_" data-name="&lt;Group&gt;"><path class="cls-1" d="M82.8,120.8a7.07,7.07,0,0,0,2.5,1.1,2.16,2.16,0,0,1-1.1-.1,5.67,5.67,0,0,1-1.3-.8A.35.35,0,0,0,82.8,120.8Z" transform="translate(-63.59 -25.94)"/><path class="cls-2" d="M76.2,121.8a4,4,0,0,0-4.1-.3c-.6.3-1.3.8-1.8.4h0a3.79,3.79,0,0,0-3.1-.8,5,5,0,0,1-1.3.3,1,1,0,0,1-1-.7v-.2c0-8.9-.1-17.8-.1-26.7,0-4.5,0-9,.2-13.5h.1c-.2-5.8-.4-11.7-.6-17.5a90,90,0,0,1,.1-10.4A27.22,27.22,0,0,1,66.2,45,21.49,21.49,0,0,1,69,40.1,32.69,32.69,0,0,1,82.4,28.5a21.46,21.46,0,0,1,17.2-.4,21.46,21.46,0,0,1,17.2.4,32.69,32.69,0,0,1,13.4,11.6A26.82,26.82,0,0,1,133,45a25.69,25.69,0,0,1,1.6,7.4,90.22,90.22,0,0,1,.1,10.4c-.2,6.4-.4,12.9-.6,19.3H134c-.2,4.5-.2,9-.2,13.5,0,8.8.1,17.7.1,26.5h-.1c0,.3-.5.4-.9.4a5.55,5.55,0,0,1-2.2-.6l-.6-.3c-.4-.1-.9.2-1.3.4s-1,.3-1.3-.1h-1.8l-.9.3a3.75,3.75,0,0,1-2.1,0l-.8.1c-1.4,0-2.8-.1-4.2-.2h-1.2a4.48,4.48,0,0,0-1.2-.1,3.47,3.47,0,0,1-2.5-1l-.6-.1a2.29,2.29,0,0,1-1.2-1.5l.3-.2c-.2-.3-.1-.8-.1-1.2a57.76,57.76,0,0,0-.3-14.4h.1a26.1,26.1,0,0,1-.1-5.6c.1-1.4.1-2.7.2-4.1h.2a2.13,2.13,0,0,1,.7-1.2,6.08,6.08,0,0,1,1.8-.9,26.44,26.44,0,0,0,12-9.1h.2c.2-1.2.3-2.5.5-3.7.4-2.6.9-5.1,1.2-7.7a82.48,82.48,0,0,0-.2-17.9,19.9,19.9,0,0,0-1.1-5.5,12.35,12.35,0,0,0-3.5-4.7,17.2,17.2,0,0,0-11.2-4.1,17,17,0,0,0-11.1,4.5h-.3a17,17,0,0,0-11.1-4.5A16.33,16.33,0,0,0,78,43.2a12.35,12.35,0,0,0-3.5,4.7,19.9,19.9,0,0,0-1.1,5.5,82.34,82.34,0,0,0-.2,17.9c.3,2.6.8,5.1,1.2,7.7.1.8.3,1.7.4,2.5A33.82,33.82,0,0,0,88.7,91.8a2.92,2.92,0,0,1,1.2.7l.2.2-.1.1a30.24,30.24,0,0,1-.2,10.4,5.46,5.46,0,0,1-.6,1.8,1.89,1.89,0,0,1-1.6.9l-.3.4c-.3,3.4.4,6.9.1,10.3-.1.7-.1,1.4-.2,2l-.3,2.1a.4.4,0,0,1-.2.4c-.1.1-.3,0-.4.1a.66.66,0,0,0-.5.4c-.2.2-.4.2-.6.3a7.07,7.07,0,0,1-2.5-1.1l.2.2h0a3.19,3.19,0,0,0-2.7,0v.1a6.42,6.42,0,0,1-4.2,1Z" transform="translate(-63.59 -25.94)"/></g><path class="cls-3" d="M66,120.4c-1.7-1.9-.5-9.4-.5-11.9V95.9c0-8.4.1-16.8.3-25.3a.6.6,0,1,0-1.2,0c-.1,9.7-.2,19.4-.3,29.2v13.6c0,2.5-.9,5.8.9,7.9.5.6,1.3-.3.8-.9Z" transform="translate(-63.59 -25.94)"/><path class="cls-3" d="M65.8,71.6c-.6-7.5-1.7-16,0-23.5,1.6-7.2,8.5-14.4,15-17.7.7-.3.1-1.4-.6-1-5.8,2.9-12,9-14.6,15.1-3.3,8.1-1.7,18.6-1,27.1a.6.6,0,1,0,1.2,0Z" transform="translate(-63.59 -25.94)"/><path class="cls-3" d="M79.7,31a23.54,23.54,0,0,1,9.6-3.4c2.7-.3,7.8-.7,9.9,1.3.6.5,1.4-.3.8-.8-2.2-2.1-6.8-2-9.5-1.8a24.53,24.53,0,0,0-11.4,3.8c-.6.2,0,1.3.6.9Z" transform="translate(-63.59 -25.94)"/><path class="cls-3" d="M99.8,28.8c8.2-3.3,18.4-1.7,24.3,5.1.5.6,1.3-.3.8-.8-6.1-7.2-16.8-8.9-25.4-5.4-.8.3-.5,1.4.3,1.1Z" transform="translate(-63.59 -25.94)"/><path class="cls-3" d="M66,122c1.5-.4,3.2-.9,4.4.4.5.6,1.3-.3.8-.8-1.5-1.6-3.7-1.3-5.5-.8-.7.3-.4,1.4.3,1.2Z" transform="translate(-63.59 -25.94)"/><path class="cls-3" d="M71.2,122.7a3.69,3.69,0,0,1,2.4-1,2.26,2.26,0,0,1,1.9,1.1c.5.6,1.4-.3.8-.8a3.93,3.93,0,0,0-2.8-1.5,5.48,5.48,0,0,0-3.2,1.4c-.4.5.4,1.3.9.8Z" transform="translate(-63.59 -25.94)"/><path class="cls-3" d="M76.6,123a19.64,19.64,0,0,1,4.6-1.7c1.7-.4,2.4.6,3.8,1.1a.57.57,0,0,0,.3-1.1c-1.5-.5-2.1-1.5-3.9-1.2a17.6,17.6,0,0,0-5.4,2c-.7.2-.1,1.2.6.9Z" transform="translate(-63.59 -25.94)"/><path class="cls-3" d="M85.2,122.6c3-.9,2.5-3.5,2.4-6.1A47.15,47.15,0,0,1,88,109c.4-2,1.5-3.6,1.7-5.7.1-.8-1.1-.8-1.2,0,.1-.7-1.6,3.6-1.6,4.1a23,23,0,0,0-.2,3.7c-.1,2.1.8,9.5-1.8,10.3-.7.3-.4,1.4.3,1.2Z" transform="translate(-63.59 -25.94)"/><path class="cls-3" d="M89.3,104.3a41.93,41.93,0,0,0,1.1-5.1,31,31,0,0,0,.2-6.8c-.1-.8-1.3-.8-1.2,0a30.09,30.09,0,0,1-.1,6,50.41,50.41,0,0,1-1.1,5.6c-.3.7.9,1.1,1.1.3Z" transform="translate(-63.59 -25.94)"/><path class="cls-3" d="M90.2,91.6c-5.3-2-12.1-5.1-15.1-10.2a.58.58,0,1,0-1,.6c3.2,5.4,10.2,8.5,15.8,10.7.7.4,1-.8.3-1.1Z" transform="translate(-63.59 -25.94)"/><path class="cls-3" d="M125.4,82.6a29.14,29.14,0,0,1-8.3,6.9c-2.3,1.3-5.1,1.8-6.5,4.2a.58.58,0,1,0,1,.6c1.5-2.6,5.9-3.5,8.4-5.2a33.08,33.08,0,0,0,6.2-5.6c.5-.7-.4-1.5-.8-.9Z" transform="translate(-63.59 -25.94)"/><path class="cls-3" d="M112.9,120.7c-1.8-1.6-1-5-.9-7,.1-2.5.1-5,.1-7.4,0-4.1-.3-8.2-.3-12.3a.6.6,0,1,0-1.2,0c0,5.4.3,10.7.3,16.1,0,3.4-1.7,8.9,1.2,11.5.5.4,1.3-.4.8-.9Z" transform="translate(-63.59 -25.94)"/><path class="cls-3" d="M112.2,121.8a2,2,0,0,0,1.6.7c1.1,0,2-.4,3,.1.7.3,1.3-.7.6-1a3.44,3.44,0,0,0-2-.4c-.8,0-1.8.6-2.4-.1s-1.3.1-.8.7Z" transform="translate(-63.59 -25.94)"/><path class="cls-3" d="M117.2,122.9a3.58,3.58,0,0,0,2.5,0,9.19,9.19,0,0,1,3.7-.4c.8.1.8-1.1,0-1.2a8.68,8.68,0,0,0-2.8.1c-.5.1-.9.3-1.4.4a2.92,2.92,0,0,1-1.6-.1c-.8-.1-1.1,1-.4,1.2Z" transform="translate(-63.59 -25.94)"/><path class="cls-3" d="M123.4,122.5a2.34,2.34,0,0,0,2,.1c.3-.1.7-.5,1.1-.4s.6.4.9.6c.6.4,1.2-.6.6-1s-.8-.9-1.5-.9c-.9,0-1.6,1.1-2.5.6-.7-.4-1.3.7-.6,1Z" transform="translate(-63.59 -25.94)"/><path class="cls-3" d="M127.4,123.2a1.24,1.24,0,0,0,1.4-.3c.4-.3.4-.7,1.1-.7a3.36,3.36,0,0,1,1.4.5c1,.5,2.1.7,2.9-.4.4-.6-.6-1.2-1-.6s-2.4-.7-3.1-.7a2.15,2.15,0,0,0-1.1.2c-.3.2-.9,1-1.3.9-.7-.3-1,.8-.3,1.1Z" transform="translate(-63.59 -25.94)"/><path class="cls-3" d="M134.1,122.5a61.57,61.57,0,0,0,.2-9.6c-.3-3.3.4-6.5.1-9.8-.1-.8-1.3-.8-1.2,0,.3,3.3-.4,6.5-.1,9.8a51.52,51.52,0,0,1-.2,9.6c-.1.7,1.1.7,1.2,0Z" transform="translate(-63.59 -25.94)"/><path class="cls-3" d="M134.4,103.7c-1.1-7.2-.2-15.1,0-22.4a.6.6,0,1,0-1.2,0c-.1,7.4-1.1,15.3,0,22.7.2.8,1.4.4,1.2-.3Z" transform="translate(-63.59 -25.94)"/><path class="cls-3" d="M134.4,82.5c.3-9.2.6-18.3.8-27.5a.6.6,0,1,0-1.2,0c-.3,9.2-.6,18.3-.8,27.5,0,.7,1.2.7,1.2,0Z" transform="translate(-63.59 -25.94)"/><path class="cls-3" d="M123.7,33.8c7,4.7,11,13.7,10.5,22a.6.6,0,1,0,1.2,0c.5-8.7-3.7-18.1-11.1-23-.6-.4-1.2.6-.6,1Z" transform="translate(-63.59 -25.94)"/><path class="cls-3" d="M75.2,82.1c-1.6-9.7-2.4-18.7-.9-28.5.8-4.9,2.5-9,7.1-11.4,5.3-2.9,14.7-3,18.4,2.6.4.6,1.5,0,1-.6-5.3-7.9-19.2-6-24.6.8-3.7,4.7-3.7,12.1-3.9,17.8A99.2,99.2,0,0,0,74,82.4c.2.7,1.3.4,1.2-.3Z" transform="translate(-63.59 -25.94)"/><path class="cls-3" d="M100.7,44.8c2.5-4.4,10.6-5.1,15.1-4.1a14,14,0,0,1,10.8,9.5c.2.7,1.4.4,1.1-.3-1.9-6-6.9-9.7-13.1-10.6-4.8-.6-12.3.3-15,4.9-.3.7.7,1.3,1.1.6Z" transform="translate(-63.59 -25.94)"/><path class="cls-3" d="M126.1,83.4a90,90,0,0,0,1.4-33.9c-.1-.8-1.3-.4-1.1.3A86.83,86.83,0,0,1,125,83.1c-.2.7,1,1,1.1.3Z" transform="translate(-63.59 -25.94)"/><path class="cls-3" d="M73.8,81.1c.3,5.5.7,11.1,1.3,16.6.1.8,1.3.8,1.2,0-.6-5.5-1.1-11-1.3-16.6a.6.6,0,0,0-1.2,0Z" transform="translate(-63.59 -25.94)"/><path class="cls-3" d="M125.6,81.1c-1.1,6.2-1.2,12.5-1.5,18.7a.6.6,0,1,0,1.2,0c.3-6.1.3-12.4,1.4-18.4a.57.57,0,1,0-1.1-.3Z" transform="translate(-63.59 -25.94)"/><path class="cls-3" d="M129,117.2a76.19,76.19,0,0,1-.2-11.7c.3-4,1.1-8,.9-12a.6.6,0,1,0-1.2,0c.2,4.1-.7,8-.9,12a91.4,91.4,0,0,0,.2,11.7c.1.7,1.2.7,1.2,0Z" transform="translate(-63.59 -25.94)"/><path class="cls-3" d="M75.9,97.5a62.39,62.39,0,0,1-3.5-9.4.57.57,0,0,0-1.1.3,56.57,56.57,0,0,0,3.6,9.7c.3.7,1.4.1,1-.6Z" transform="translate(-63.59 -25.94)"/><path class="cls-3" d="M125.2,100.5a49,49,0,0,0,4.2-7.8c.3-.7-.9-1-1.1-.3a38.73,38.73,0,0,1-4.1,7.5c-.5.6.5,1.2,1,.6Z" transform="translate(-63.59 -25.94)"/><path class="cls-3" d="M71.3,89.2a103.58,103.58,0,0,1,.8,12.5.6.6,0,1,0,1.2,0,104.9,104.9,0,0,0-.8-12.5c-.1-.8-1.3-.8-1.2,0Z" transform="translate(-63.59 -25.94)"/><path class="cls-3" d="M73.8,110.8c-.1-1.8-.2-3.7-.4-5.5a.6.6,0,1,0-1.2,0c.1,1.8.2,3.7.4,5.5.1.8,1.3.8,1.2,0Z" transform="translate(-63.59 -25.94)"/><path class="cls-3" d="M73.4,105.6v-3.7a.6.6,0,1,0-1.2,0v3.7a.6.6,0,1,0,1.2,0Z" transform="translate(-63.59 -25.94)"/><path class="cls-4" d="M73.9,87.7c-.7-3.2-1.3-6.4-1.7-9.7-.1-.7-1.3-.8-1.2,0a83.73,83.73,0,0,0,1.8,10c.1.8,1.3.5,1.1-.3Z" transform="translate(-63.59 -25.94)"/><path class="cls-4" d="M67.7,64.4c-.8-2-.5-4.4-.5-6.6s0-4.2.1-6.2a.6.6,0,1,0-1.2,0c0,2.4-.1,4.8-.1,7.2,0,2-.2,4,.5,6,.3.6,1.5.3,1.2-.4Z" transform="translate(-63.59 -25.94)"/><path class="cls-4" d="M73.8,46.2a21.73,21.73,0,0,1,10.5-8.9c.7-.3.4-1.4-.3-1.1a23,23,0,0,0-11.2,9.4c-.5.6.6,1.2,1,.6Z" transform="translate(-63.59 -25.94)"/><path class="cls-4" d="M99.2,33.8a.52.52,0,0,1,.4-.2c-.1-.4-.1-.8-.2-1.2-.2,0-.4.1-.6.1a.64.64,0,0,0-.3,1,7.05,7.05,0,0,1,.9.7,4.81,4.81,0,0,0,1.1.9c.6.2,1.1-.8.5-1.1a4.87,4.87,0,0,0-1.1-.4.64.64,0,0,0-.7.9,3.18,3.18,0,0,0,1.1,1.2c0-.4.1-.7.1-1.1a1.7,1.7,0,0,1-.7-.1.54.54,0,0,0-.7.7,4.62,4.62,0,0,0,.9,1.5c.1-.3.2-.7.3-1-.2.1-.3.1-.5.2a.64.64,0,0,0-.3,1c.3.4.6.7.9,1.1.1-.3.3-.7.4-1-.6-.1-1.2-.1-1.8-.2a.59.59,0,0,0-.5.9,12.29,12.29,0,0,1,1.4,2.5,5.5,5.5,0,0,1,.7-.9c-.7-.3-1.9-.9-2.2.2s.9,1.5,1.7,1.4a.58.58,0,0,0,.4-1c-.6-.7-1.2-1.9-.1-2.6a.55.55,0,0,0,.3-.5c0-.2.1-.4.1-.6a.58.58,0,1,0-1-.6,2.38,2.38,0,0,0-.3,1.2c.1-.2.2-.3.3-.5-1.8,1.1-1.3,3.1-.1,4.5.1-.3.3-.7.4-1-1.6.1.1.6.2.7.5.2.8-.5.7-.9a12.29,12.29,0,0,0-1.4-2.5c-.2.3-.3.6-.5.9.6.1,1.2.1,1.8.2s.7-.7.4-1-.6-.7-.9-1.1c-.1.3-.2.7-.3,1,.2-.1.3-.1.5-.2a.64.64,0,0,0,.3-1,1.46,1.46,0,0,1-.6-.9l-.7.7a2,2,0,0,0,1.3.1c.5-.1.5-.8.1-1.1a1.39,1.39,0,0,1-.7-.8,5.5,5.5,0,0,1-.7.9,6.89,6.89,0,0,1,.8.3c.2-.4.3-.7.5-1.1-.6-.2-.3-.5-.6-.7s-.6-.3-.9-.5c-.1.3-.2.7-.3,1,.2,0,.4-.1.6-.1.7-.1.5-1.2-.2-1.2a1.22,1.22,0,0,0-1.2.6c-.3.5.5,1.3,1,.7Z" transform="translate(-63.59 -25.94)"/><path class="cls-4" d="M100.6,35.9a5.64,5.64,0,0,1,.4-1.2.57.57,0,0,0-1.1-.3,5.64,5.64,0,0,1-.4,1.2.57.57,0,0,0,1.1.3Z" transform="translate(-63.59 -25.94)"/><path class="cls-4" d="M100.8,33.3a.35.35,0,0,0,.1.2c.2-.7-1-1.1-1.1-.3a1,1,0,0,0,.7,1.2c.7.3,1-.9.3-1.1Z" transform="translate(-63.59 -25.94)"/><path class="cls-4" d="M100,31.2c-.4.2-.8.3-1.2.5.3.2.5.4.8.6a.66.66,0,0,1,.7-.6,4.88,4.88,0,0,0-.7-.3c.1,0,.1,0,0,.1.3.2.7.4,1,.6h-.1l-.4-.4h0l1.1.3v-.1c-.1.1-.1.3-.2.4h-.6c-.1-.1-.1-.3-.2-.4s0,0-.1,0a.37.37,0,0,1-.3-.1c-.1,0-.1-.1-.2-.2v-.2c0-.2-.1-.1-.2.2-.2-.1-.4-.1-.6-.2h0c-.1-.2-.1-.4-.2-.6s.1-.1.1-.2h.8c-.5-.6-1.4.3-.8.8h0a.52.52,0,0,0,.8,0,.67.67,0,0,0,0-1c-.1-.2-.4-.2-.6-.2-.8.1-.8,1.2-.5,1.8a1.61,1.61,0,0,0,1.7.8c.6-.1,1.4-.8,1-1.5a.76.76,0,0,0-1.4.4c0,.5.8.9,1.1.3a1,1,0,0,0,.1-.9c-.1-.2-.2-.4-.4-.4a1.23,1.23,0,0,0-1.4.8.61.61,0,0,0,1,.6,1.21,1.21,0,0,0,.2-1.5.91.91,0,0,0-.7-.3A2.14,2.14,0,0,0,98,32.1a.64.64,0,0,0,.8.6c.4-.2.8-.3,1.2-.5,1.1-.2.8-1.3,0-1Z" transform="translate(-63.59 -25.94)"/><path class="cls-4" d="M98.4,32.9a7,7,0,0,1,.8,1c.5.6,1.3-.3.8-.8a7,7,0,0,1-.8-1c-.5-.6-1.3.3-.8.8Z" transform="translate(-63.59 -25.94)"/><path class="cls-4" d="M97.7,34a4.23,4.23,0,0,1,.5.7c.4.6,1.5,0,1-.6a4.23,4.23,0,0,1-.5-.7c-.4-.6-1.4,0-1,.6Z" transform="translate(-63.59 -25.94)"/><path class="cls-4" d="M98.1,35.9c.1.1.2.1.3.2.7.3,1.3-.7.6-1-.1-.1-.2-.1-.3-.2a.58.58,0,1,0-.6,1Z" transform="translate(-63.59 -25.94)"/><path class="cls-4" d="M97.9,36.2a1.48,1.48,0,0,0,1.2.8c.8.1.8-1.1,0-1.2-.1,0-.1-.1-.2-.2-.3-.7-1.4-.1-1,.6Z" transform="translate(-63.59 -25.94)"/><path class="cls-4" d="M99.6,31a2.72,2.72,0,0,0-.6-1.7,5.5,5.5,0,0,1-.7.9c.4.2.8.3,1.3.5.7.3,1-.9.3-1.1-.4-.2-.8-.3-1.3-.5a.62.62,0,0,0-.7.9,2.46,2.46,0,0,1,.4,1.1c.2.7,1.3.7,1.3-.1Z" transform="translate(-63.59 -25.94)"/><path class="cls-4" d="M100.9,31.4h0l-.9-.6a1.72,1.72,0,0,0,.2,1.2c.3.7,1.3.1,1-.6a1.27,1.27,0,0,1-.1-.6c.1-.4-.6-.8-.9-.5a1.25,1.25,0,0,0-.6,1.1c0,.7,1.2.7,1.3,0Z" transform="translate(-63.59 -25.94)"/><path class="cls-4" d="M100.5,35.6c.1-.1.2-.3.3-.4-.3-.1-.7-.3-1-.4v.7a.6.6,0,1,0,1.2,0v-.7c0-.5-.7-.8-1-.4-.1.1-.2.3-.3.4-.5.6.3,1.4.8.8Z" transform="translate(-63.59 -25.94)"/><path class="cls-4" d="M86.1,31.2c2.4-.3,6.4-.9,8.2,1.2.5.6,1.3-.3.8-.8-2.1-2.4-6.3-1.8-9.1-1.5a.55.55,0,1,0,.1,1.1Z" transform="translate(-63.59 -25.94)"/></svg>