<svg id="Layer_1" data-name="Layer 1" xmlns="http://www.w3.org/2000/svg" viewBox="0 0 75.91 200.53"><defs><style>.cls-1{fill:#910a95;}</style></defs><title>Bikini</title><path class="cls-1" d="M75.6,141c.1-1.4.1-2.7.3-4.1s-1.9-1.5-2.4-.3c-.2.5-.4,1.1-.6,1.6l2.3.6c.3-1.6.7-3.2,1-4.8a1.19,1.19,0,0,0-2.3-.6c-.4,1.3-.7,2.5-1.1,3.8a1.19,1.19,0,0,0,2.3.6,17.26,17.26,0,0,0,1-4.5c.1-1.4-2-1.6-2.4-.3-.2.6-.3,1.2-.5,1.7l2.4.3a248.86,248.86,0,0,0,.7-27.3l-1.5,1.2c1.8.7,2.8.8,4.4-.1a1.2,1.2,0,0,0-.9-2.2,2.76,2.76,0,0,0-2.3,2.3,5.83,5.83,0,0,0,.2,2.3,31.4,31.4,0,0,1,.2,8.1h2.4a40.94,40.94,0,0,0-.2-10.5c-.2-1.1-2.2-1.1-2.3,0-.7,5.1-1.2,10.3-1.4,15.4-.1,1.4,2,1.6,2.4.3.4-1.6.8-3.3,1.3-4.9l-2.4-.3c0,1.9,0,3.7-.1,5.6-.1,1.5,2.3,1.5,2.4,0l.3-3.9c.1-1.6-2.2-1.5-2.4,0-.5,4.4-1,8.7-1.7,13.1-.2,1.5,2,2.2,2.3.6a55.78,55.78,0,0,0,1.2-10.1l-2.4.3a19.42,19.42,0,0,1,0,6.8c-.2,1.5,1.9,2.2,2.3.6a27.28,27.28,0,0,0,.8-8.5,1.2,1.2,0,0,0-2.4,0,77.7,77.7,0,0,1-2.1,18l2.4.3a41.93,41.93,0,0,1,.3-5l-2.2.6c1.7,3.9.6,7.8.1,11.8a20.35,20.35,0,0,0-.2,4.3c.1,1.5,1.8,5.9-1.7,1.4-.5.6-.9,1.2-1.4,1.8a6.89,6.89,0,0,1-.8-.3l-2.2.6c-1.1-1-2.3-2-3.4-3a8.27,8.27,0,0,1,1-3.8,23.78,23.78,0,0,1,2.3-4.1,40.38,40.38,0,0,1,6.4-7.3c-.7-.4-1.3-.8-2-1.2-1.2,8.2-5.8,15.4-6.3,23.7l2.2-.6c-1.6-3-1.3-8.5,1.1-11.2a14.62,14.62,0,0,0-2-.5c-1.5,4.9-1,5.4,1.4,1.5a14.62,14.62,0,0,0-2-.5c-.7,1.1-1.5,2.2-2.2,3.4l1.5,1.5a37,37,0,0,1,6.5-10.8c-.7-.4-1.3-.8-2-1.2-.6.9-1.2,1.7-1.8,2.6.7.4,1.3.8,2,1.2a5.35,5.35,0,0,1,2-3.9c-.6-.5-1.3-1-1.9-1.5a45.08,45.08,0,0,1-4.8,8.2l2.1,1.2,2.4-4.5a1.21,1.21,0,0,0-2.1-1.2,8.48,8.48,0,0,1-2.4,2.6c.6.5,1.3,1,1.9,1.5a65.06,65.06,0,0,1,4.9-6.8c-.6-.5-1.3-1-1.9-1.5a7.93,7.93,0,0,1-2.9,3.4c.6.3,1.2.7,1.8,1,0-.6-.1-1.2-.1-1.7a1.2,1.2,0,0,0-1.5-1.2c-2.8.8-2,3.9.4,4.5,5.2,1.4,9.7-4.4,10.4-8.8l-2.2.3a4.79,4.79,0,0,0,4.9,3,1.23,1.23,0,0,0,.3-2.4c-1-.3-2-.6-2.9-.9l-.3,2.4c5.8.5,9.2,4.9,12.1,9.4l2.1-1.2a18.85,18.85,0,0,0-2.5-3.1c-.9-.9-2.7.3-1.9,1.5,3.5,4.7,5.1,8.9,2,14.4-2.8,4.8-7.4,8.4-13.2,7a1.21,1.21,0,0,0-.9,2.2,6.07,6.07,0,0,1,1,.7c.3-.7.6-1.5.9-2.2-2.3-1-4.7-1.9-7-2.9-1.3-.5-2.1,1.5-.9,2.2s2.5,1.5,3.8,2.2,2.4-1.2,1.2-2.1c-1.8-1.4-3.7-2.8-5.5-4.2-1-.7-2.3.7-1.6,1.6a6.69,6.69,0,0,0,2,2.1c1.1.8,2.5-1,1.5-1.9-1.5-1.3-3.2-2.4-4.7-3.7-4-3.8-1.3-8.5,2.4-11,.6,1.9,1,1.4,1.4-1.2a3.67,3.67,0,0,0,3.4-3.5c1.1,2.4.8,3.7-1,4.1a5.1,5.1,0,0,1,.7-4.6,12.25,12.25,0,0,0-1.9-.2c1.2-.7,2.5-1.3,3.7-2a14.62,14.62,0,0,1,2-.5,37.13,37.13,0,0,1,2.8,4.1c.5-.6.9-1.2,1.4-1.8q1.35-.3,1.5,2.1c.5-.6.9-1.2,1.4-1.8a9.75,9.75,0,0,1-5.5-4.7c-.3.6-.7,1.2-1,1.8a7.37,7.37,0,0,1,6.8,4.2c.3-.6.7-1.2,1-1.8a7.65,7.65,0,0,1-6-3.3c-.3.7-.6,1.4-.8,2,2.6.1,6.6,1.9,7.2,4.7.6-.5,1.2-.9,1.8-1.4-2.4-1.4-2.5-1.1-.4,1a7.25,7.25,0,0,1,.8,4.5c.7-.3,1.4-.6,2-.8-2.2-1.9-.5,2.6-1.8,4.3.5-.1,1.1-.3,1.6-.4-.6.8-1.1,1.6-1.7,2.4.5.1,1.1.3,1.6.4-.2-.3-.3-.5-.5-.8-.8-1.3-2.9-.1-2.1,1.2.2.3.3.5.5.8a1.16,1.16,0,0,0,1.6.4c1.7-1.2,4.6-5.4.7-6.3-2.7-.6-3.4,2.6-1.4,3.9a1.14,1.14,0,0,0,1.6-.4c1.5-1.9,1.2-8.3-2.4-6-2.3,1.5-.4,6.8,2.4,5.2,3-1.7,0-9.4-2.7-10.2a2,2,0,0,0-2.7,1.4c-.8,2.3,2,4.7,3.4,5.9a1.18,1.18,0,0,0,2-.8c.2-3.3-2.1-11-6.7-9.3a1.29,1.29,0,0,0-.9,1.2c.1,2.4,1.5,3.7,3.7,4.7a1.26,1.26,0,0,0,1.8-1.4c-.5-2.4-4.9-9.7-7.5-4.8-1.5,2.8,2.5,8.1,5.6,6.9a1.44,1.44,0,0,0,.9-1.2c.3-4.5-4.6-7.2-8.5-7.4a1.16,1.16,0,0,0-.8,2,9.86,9.86,0,0,0,7.7,4c1,.1,1.4-1.1,1-1.8a9.61,9.61,0,0,0-9-5.5,1.18,1.18,0,0,0-1,1.8,12,12,0,0,0,6.9,5.8c1.1.4,1.8-.9,1.4-1.8-1.1-2.3-5.3-6.9-8-3.8-2.2,2.6,1.5,4.9,3.8,5.2a1.28,1.28,0,0,0,1.4-1.8c-1.2-2.2-5.6-6.8-7.3-2.7a1.1,1.1,0,0,0,.3,1.2l.4.4a1.25,1.25,0,0,0,2-.5c.9-4.5-5.5-5.4-5.5-1.2s6.5,2.7,4.6-.7c-2.2-4-8.1,2.9-6.5,6.1,1.9,3.9,5.9-.8,3.5-4.2a1.17,1.17,0,0,0-1.9-.2c-1.7,2.1-3,7.9.3,9.4,3.8,1.8,4.6-4.9,4.1-7.1-2-8.9-12.2,6.7-4,8a1.31,1.31,0,0,0,1.2-.3c1.6-2.1,3.4-10.9-1.5-9-3.3,1.2-7.5,9.6-3.4,11.7a1.23,1.23,0,0,0,1.5-.2c3.6-3,1.8-10.7-3.5-6.7-2.5,1.9-5.1,4.6-4.9,8.1.4,4.5,4.9,6.8,7.9,9.5.5-.6,1-1.3,1.5-1.9l-1.2-1.2-1.6,1.6c1.8,1.4,3.7,2.8,5.5,4.2l1.2-2.1c-1.3-.7-2.5-1.5-3.8-2.2-.3.7-.6,1.5-.9,2.2,2.3,1,4.7,1.9,7,2.9,1.3.5,2-1.5.9-2.2a6.07,6.07,0,0,1-1-.7c-.3.7-.6,1.5-.9,2.2,6.3,1.5,11.7-1.7,15.2-6.9,4.4-6.6,3.4-11.8-1.3-18-.6.5-1.3,1-1.9,1.5a9.22,9.22,0,0,1,2.2,2.6c.8,1.3,2.9.1,2.1-1.2-3.5-5.4-7.4-10.1-14.2-10.6-1.4-.1-1.6,2-.3,2.4,1,.3,2,.6,2.9.9l.3-2.4c-1-.6-1.9-1.2-2.9-1.8a1.22,1.22,0,0,0-2.2.3c-.7,4.9-3.7,6.1-7.8,7.2l-1.5-1.2c0,.6.1,1.2.1,1.7.1.8,1,1.6,1.8,1a11.29,11.29,0,0,0,3.8-4.3c.6-1.1-1-2.5-1.9-1.5a54.35,54.35,0,0,0-5.3,7.3c-.8,1.2.9,2.3,1.9,1.5a11.77,11.77,0,0,0,2.8-3.1L69.2,145l-2.4,4.5c-.8,1.4,1.2,2.4,2.1,1.2a41.94,41.94,0,0,0,4.8-8.2c.5-1.2-.9-2.5-1.9-1.5a8.42,8.42,0,0,0-2.6,4.9,1.22,1.22,0,0,0,2,1.2,8.5,8.5,0,0,0,2.4-3.7,1.21,1.21,0,0,0-2-1.2,40,40,0,0,0-7.1,11.9c-.4.9.7,1.6,1.5,1.5a5,5,0,0,0,3.9-6.3,1.2,1.2,0,0,0-2-.5c-1.9,1.6-4,5.5-1.3,7.3a1.27,1.27,0,0,0,1.2,0c2.7-1.6,3.1-5,2.7-7.8-.1-.9-1.4-1.1-2-.5-1.5,1.6-5.1,9-.2,8.8,3.2-.1,3.7-5.1,1.4-6.5a1.39,1.39,0,0,0-1.5.2c-3.5,2.7-3,8.1-1.2,11.6a1.19,1.19,0,0,0,2.2-.6c.5-8.1,5-15.1,6.2-23a1.22,1.22,0,0,0-2-1.2c-4.7,4.3-13.4,13.4-9.5,20.5,2.3,4.2,9.9,3.1,7-1.6a1.19,1.19,0,0,0-2.2.6c0,2.8,2.4,5.9,5.4,4s1.4-5.4-1.6-5.9c-.9-.2-2.1.8-1.4,1.8,1.4,1.8,2.8,3.2,5.1,3.4a1.33,1.33,0,0,0,1-.6c.8-1.3.6-1.4.5-2.9a36.31,36.31,0,0,1,.2-9.3c.5-3.7.7-7-.8-10.4-.5-1.2-2.1-.4-2.2.6a41.93,41.93,0,0,0-.3,5,1.23,1.23,0,0,0,2.4.3A90,90,0,0,0,79.2,124H76.8a26.55,26.55,0,0,1-.8,7.9l2.3.6a27.49,27.49,0,0,0,0-8.1c-.2-1.4-2.3-1-2.4.3a49.26,49.26,0,0,1-1.1,9.4l2.3.6c.7-4.6,1.3-9.1,1.8-13.7H76.5l-.3,3.9h2.4c.1-1.9.1-3.7.1-5.6a1.23,1.23,0,0,0-2.4-.3c-.4,1.6-.8,3.3-1.3,4.9l2.4.3a145.26,145.26,0,0,1,1.3-14.8H76.4a36.47,36.47,0,0,1,.1,9.9c-.2,1.5,2.2,1.5,2.4,0,.1-.6-.3-10.2.1-10.3-.3-.7-.6-1.5-.9-2.2-.9,0-1.7-.1-2.6-.1-.7-.3-1.5.4-1.5,1.2a226.27,226.27,0,0,1-.7,27.3c-.1,1.4,2,1.6,2.4.3.2-.6.3-1.2.5-1.7l-2.4-.3a13,13,0,0,1-.9,3.9l2.3.6c.4-1.3.7-2.5,1.1-3.8l-2.3-.6c-.3,1.6-.7,3.2-1,4.8a1.19,1.19,0,0,0,2.3.6c.2-.5.4-1.1.6-1.6l-2.4-.3c-.1,1.4-.2,2.7-.3,4.1s2.3,1.3,2.4-.2Z" transform="translate(-61.99 -105.58)"/><path class="cls-1" d="M126.9,144.4c-.7-5.6-3.3-10.6-3.6-16.3-.3-6.8-.3-13.6-.5-20.5-.6.3-1.2.7-1.8,1a6.52,6.52,0,0,0,2.6.8,1.23,1.23,0,0,0,1.5-1.5c-.1-.3-.1-.5-.2-.8a1.19,1.19,0,0,0-2.3.6,33.62,33.62,0,0,1,.2,9.5h2.4a31.68,31.68,0,0,0-.7-6.9c-.3-1.3-2.5-1-2.4.3a49.84,49.84,0,0,0,1.3,6.5,1.2,1.2,0,0,0,2.3,0,6.94,6.94,0,0,0,0-4.5,1.24,1.24,0,0,0-2.4.3c-.8,9.4-1.2,18.8-1.2,28.3,0,1.5,1.9,1.5,2.4.3a9.38,9.38,0,0,0,.8-5.2l-2.2.6c.5,1.1,1.1,2.3,1.6,3.4.6,1.3,2.5.3,2.2-.9a26.3,26.3,0,0,1-.7-4.9l-2.2.6c.3,1.2.6,2.3,1,3.5l2.4-.3a142.09,142.09,0,0,1-2.3-19.5l-2.4.3a50.24,50.24,0,0,1,.7,8.7c0,1.6,2.2,1.5,2.4,0a46.81,46.81,0,0,0,.1-9.9c-.2-1.5-2.4-1.6-2.4,0-.3,10.9,1.5,22.1,1.7,33.1l2.2-.6a9.56,9.56,0,0,1-.8-6.2c.2-1.5-2.1-2.2-2.3-.6a15.07,15.07,0,0,0,1,8.1c.5,1.1,2.3.5,2.2-.6-.3-11-2-22.1-1.7-33.1h-2.4a41,41,0,0,1-.1,9.9h2.4a48,48,0,0,0-.8-9.3c-.2-1.3-2.4-1-2.4.3a137.46,137.46,0,0,0,2.4,20.2c.3,1.3,2.5,1,2.4-.3a15.68,15.68,0,0,0-1.3-4.7,1.17,1.17,0,0,0-2.2.6,48.53,48.53,0,0,0,.8,5.5c.7-.3,1.5-.6,2.2-.9-.5-1.1-1.1-2.3-1.6-3.4s-2.4-.6-2.2.6a5.91,5.91,0,0,1-.7,4.5l2.4.3c0-9.4.4-18.9,1.2-28.3l-2.4.3v3.2h2.3a38.55,38.55,0,0,1-1.2-5.9l-2.4.3a22.11,22.11,0,0,1,.6,6.3c0,1.6,2.2,1.5,2.4,0a42.71,42.71,0,0,0-.3-10.1l-2.3.6c.1.3.1.5.2.8l1.5-1.5-2.1-.6a1.18,1.18,0,0,0-1.8,1c.2,6.8.2,13.7.5,20.5.3,5.8,2.9,10.7,3.6,16.3.1,1.7,2.5,1.7,2.4.2Z" transform="translate(-61.99 -105.58)"/><path class="cls-1" d="M104.7,159.6a12.14,12.14,0,0,0-3.4.9,1.19,1.19,0,0,0,.3,2.2l3.8.9.3-2.4c-.7-.1-1.4-.1-2.1-.2v2.4a13.33,13.33,0,0,1,2.8.3l.3-2.4a7.57,7.57,0,0,1-1.5-.1v2.4h1.1c1.5.1,1.5-2.3,0-2.4a6.15,6.15,0,0,1-1.4-.1c-1.4-.1-1.6,2-.3,2.4,1,.3,2,.6,3.1.9l.3-2.4c-2.5-.2-5-.9-7.5-1.1s-5.1.9-7.7.7c.2.7.4,1.5.6,2.2a10.77,10.77,0,0,1,7.3-.3c-.1-.7-.2-1.5-.3-2.2-1.4.8-2.5-.1-3.5-.9-.2.7-.4,1.5-.6,2.2a16.17,16.17,0,0,1,3.8.2c1.5.3,2.2-2,.6-2.3s-3.2-.7-4.8-1l-.3,2.4h4.7a1.2,1.2,0,0,0,0-2.4c-2-.2-4-.3-6-.5v2.4a17.57,17.57,0,0,0,4.6-.2,1.2,1.2,0,0,0,0-2.3c-1.2-.3-2.5-.5-3.7-.8l-.3,2.4a6.1,6.1,0,0,1,3,.1l.3-2.4h-1c-1.5-.2-2.2,2.1-.6,2.3a29.66,29.66,0,0,0,4.2.3,1.2,1.2,0,0,0,0-2.4H99.2v2.4c1.3-.1,2.7-.2,4-.2,1.1-.1,1.7-1.7.6-2.2a3.06,3.06,0,0,0-1.7-.4v2.4l2.2-.3a1.23,1.23,0,0,0,.3-2.4,2.92,2.92,0,0,0-.9-.2l-.3,2.4h2.3a1.2,1.2,0,0,0,0-2.4h-2.3a1.23,1.23,0,0,0-.3,2.4,2.92,2.92,0,0,0,.9.2l.3-2.4-2.2.3c-1.5.2-1.6,2.5,0,2.4a.9.9,0,0,1,.5.1c.2-.7.4-1.5.6-2.2-1.3.1-2.7.2-4,.2a1.2,1.2,0,0,0,0,2.4h1.6v-2.4a22.34,22.34,0,0,1-3.6-.2c-.2.8-.4,1.5-.6,2.3a8.6,8.6,0,0,0,1.6.1,1.23,1.23,0,0,0,.3-2.4,8.77,8.77,0,0,0-3.6-.2c-1.2.2-1.8,2.1-.3,2.4,1.2.3,2.5.5,3.7.8V159a17.85,17.85,0,0,1-4,.1c-1.5-.1-1.5,2.3,0,2.4,2,.2,4,.3,6,.5v-2.4H95.6c-1.3,0-1.7,2.1-.3,2.4,1.6.3,3.2.7,4.8,1,.2-.8.4-1.5.6-2.3a16.32,16.32,0,0,0-4.4-.3,1.19,1.19,0,0,0-.6,2.2c1.9,1.4,3.8,2.1,5.9.9a1.22,1.22,0,0,0-.3-2.2,13,13,0,0,0-9.1.5c-1.2.5-.5,2.2.6,2.2,2.7.2,5.3-.9,8-.6,2.4.3,4.7.9,7.2,1.1,1.4.1,1.6-2,.3-2.4-1-.3-2-.6-3.1-.9l-.3,2.4a6.15,6.15,0,0,1,1.4.1v-2.4h-1.1c-1.5-.1-1.5,2.3,0,2.4a7.57,7.57,0,0,1,1.5.1c1.3.1,1.6-2.1.3-2.4a12.67,12.67,0,0,0-3.4-.4,1.2,1.2,0,0,0,0,2.4c.7.1,1.4.1,2.1.2,1.4.1,1.6-2,.3-2.4l-3.8-.9c.1.7.2,1.5.3,2.2l2.2-.6c1.5-.1,1.5-2.5,0-2.3Z" transform="translate(-61.99 -105.58)"/><path class="cls-1" d="M108.5,160.7c-.1-.8-.3-1.5-.4-2.3l-2.3.6c.2,1,.5,2.1.7,3.1.7-.3,1.4-.6,2-.8-1.8-1.6.1-5.5-3.2-5.5l1.2,1.5c1.6-4.9,2.8-10.5,7.3-13.5l-1.2-2.1c-.8.5-1.6,1.1-2.3,1.6.5.6,1,1.3,1.5,1.9.6-.6,1.2-1.2,1.8-1.7.9-.8-.1-2.3-1.2-2-.5.1-1,.3-1.5.4.3.7.6,1.5.9,2.2a25.91,25.91,0,0,0,2.9-1.4,1.22,1.22,0,0,0-.3-2.2c-.4-.1-.7-.1-1.1-.2v2.3c2.7-1,8-1.7,10.1-3.8,1.3-1.3.5-2.6.4-4.2l-2.4.3a43.28,43.28,0,0,1,.6,11.9c-.1,1.5.5,5-1.7,4.8.7.1-2.7-2.1-2.1-1.8-4.2-2.1-8.3,1.9-11.9,3.3a10.93,10.93,0,0,0,1.5.8c.3-1.2.7-2.4,1-3.5-.7-.3-1.5-.6-2.2-.9l-1.2,2.1c.7.3,1.4.6,2,.8,0-1.4.9-.5,1.5-.9,1.3-.9,3.2-3,3.9-1.1.2.4-1,3-1.4,3.2-.8.4.9-4.1,1.4-4.9,3.3-5.9-.3,2.2-1.5,3.7.7.4,1.3.8,2,1.2a6.65,6.65,0,0,1,2-4.3l2.9-.3c1.3,2.2.8,3.8-1.4,4.6-.9,1.6-2,1.9-3.3,1-1.8.2-2.2-.1-3.4,1.4-2.6,3.1-1.6,7.8.4,10.8.9,1.3,2.9.1,2.1-1.2s-1.7-2.5-2.5-3.7c-.6.5-1.3,1-1.9,1.5,1.3,1.7,2.7,5,4.3,6.4,1,.9,4.9,1.7,6.3,1.8,4.9.5,9.3-2.3,12.6-5.7s6.7-7.7,6.2-12.7c-.6-6.4-6.5-10.7-9.7-15.7a1.21,1.21,0,0,0-2.1,1.2,47.14,47.14,0,0,0,4.5,6.5c.8.9,2.3-.1,2-1.2a10.61,10.61,0,0,0-1.8-3.7c-.6.5-1.3,1-1.9,1.5,2.9,2.7,4.4,5.6,2.4,9.5a38,38,0,0,1-3.6,5.3,37.85,37.85,0,0,0-3.1,3.9c-.8,1.4-1.2,4.7-2.9,5.3-1,.3-1.3,2.1,0,2.3.6.4,1.1.9,1.7,1.3a1.2,1.2,0,0,0,2,.5c.2-.2.5-.4.7-.6-.7-.4-1.3-.8-2-1.2-.1.3-.2.5-.3.8h2.3a45.55,45.55,0,0,1-2.6-13.7l-1.5,1.2c1.7,1.9,1.7,1.9,0,.1-.2.9-.3,1.9-.5,2.8-.5,2-1.6,6.3-2.2,2-.6-4,1.3-8.5,3.4-11.8-.7-.3-1.5-.6-2.2-.9a20.48,20.48,0,0,1-.5,2.4c-4,1.6-4.7.5-2.3-3.4,1.3-.2,1,.5-1,2.2-1.1-1.8-.8-3.2.7-4.2-.7-.4-1.3-.8-2-1.2a9,9,0,0,1-1.9,4.2c-.8,1.3,1.2,2.5,2.1,1.2a17.1,17.1,0,0,0,2.1-4.8,1.22,1.22,0,0,0-2-1.2c-1.7,1.7-6.7,8.7-1.3,9.6,3.9.7,7.3-6.1,7-9.1a1.26,1.26,0,0,0-.9-1.2c-4.4-1.2-7.9,7.3-5.9,10.6a3.65,3.65,0,0,0,4.6,1.3c2.4-1,3.1-3.7,3.5-6a1.2,1.2,0,0,0-2.2-.9,23,23,0,0,0-3.7,12.2c0,1.7-.1,5.7,2.5,5.9,3.8.3,7.4-11.4,3.5-12.7-4.8-1.6-6.2,9.2-1.3,10.5,5.5,1.5,5.9-9,1.1-10.1a1.19,1.19,0,0,0-1.5,1.2,46.33,46.33,0,0,0,2.6,14.3,1.21,1.21,0,0,0,2.3,0c.1-.3.2-.5.3-.8.5-1.2-1.2-1.8-2-1.2-.2.2-.5.4-.7.6a14.62,14.62,0,0,0,2,.5c-.6-1.9-1.4-2.7-3.4-3v2.3c2.3-.7,2.6-1.7,3.4-3.8,1.7-4.1,5-7.2,7.2-11,3.1-5.3,1.9-9-2.4-13.1-.9-.9-2.7.3-1.9,1.5a7.08,7.08,0,0,1,1.6,3.1c.7-.4,1.3-.8,2-1.2a49.67,49.67,0,0,1-4.2-6l-2.1,1.2c2.1,3.3,5.1,6,7.2,9.3,4,6.2,1.4,11.5-3.3,16.2-3.8,3.9-9.4,7.1-14.7,3.6-2.2-1.4-3.4-4-5.1-6.1-.8-1.1-2.6.3-1.9,1.5s1.7,2.5,2.5,3.7l2.1-1.2c-1.7-2.5-2.2-4.1,0-6.4,3.5-3.7.7-.4,3.4-1.2,1.4-.5,1.7.1,3.1-1,2.5-2,2.4-5.8,1.5-8.6-2.2-6.7-8.8.6-9.5,4.6-.2,1,1.2,2.2,2,1.2,1.1-1.3,7.8-12.5,1.7-10.9-3.2.9-9.2,13.1-3.8,13.6,3.4.3,6.8-9.5,3.2-11.2-2.4-1.1-4.6,2.6-6,3.3-1,.5-1.2-.2-2.2.6s-.9,1.8-1,2.9a1.16,1.16,0,0,0,2,.8,4.37,4.37,0,0,0,1.8-3.2,1.2,1.2,0,0,0-2.2-.9,6.5,6.5,0,0,0-1.2,5.4,1.13,1.13,0,0,0,1.5.8c1.7-.7,3.1-1.6,4.7-2.4,3.4-1.8,4.7.1,7.8,1,1.4.4,1.9.8,3.1-.2,1.8-1.5,1.6-5,1.8-7.1a48.54,48.54,0,0,0-.7-12.6c-.2-1.3-2.4-1-2.4.3.2,3.9-5.8,4.6-8.7,5.7-1,.4-1.3,2.1,0,2.3.4.1.7.1,1.1.2-.1-.7-.2-1.5-.3-2.2a25.91,25.91,0,0,1-2.9,1.4c-1.3.5-.4,2.6.9,2.2.5-.1,1-.3,1.5-.4-.4-.7-.8-1.3-1.2-2a9.76,9.76,0,0,0-1.8,1.7c-1,.9.3,2.7,1.5,1.9.8-.5,1.6-1.1,2.3-1.6,1.3-.9.1-2.9-1.2-2.1-5.2,3.5-6.6,9.3-8.4,14.9a1.24,1.24,0,0,0,1.2,1.5c-2,0,1.3,4.6,1.5,4.8.7.6,2.2.3,2-.8a9.46,9.46,0,0,0-.8-3.7,1.19,1.19,0,0,0-2.3.6c.1.8.3,1.5.4,2.3.8,1.8,3.1,1.2,2.8-.3Z" transform="translate(-61.99 -105.58)"/><path class="cls-1" d="M125.6,114c.1-2.2.2-4.4.3-6.7.1-1.5-2.3-1.5-2.4,0-.1,2.2-.2,4.4-.3,6.7-.1,1.5,2.3,1.5,2.4,0Z" transform="translate(-61.99 -105.58)"/><path class="cls-1" d="M80.1,155c-2.6-1.2-4.3-.3-5.3,2.7-1.5,1.1-2.9,2.3-4.4,3.4-.1-.1-.1-.2-.2-.3,1-1.3,1.9-2.5,2.9-3.8a7.08,7.08,0,0,1-2.9,0,3.09,3.09,0,0,0-2.9,2.2c-1.6,5.1,4.1,10.3,8.7,11.9,5.5,1.9,9.2-2.2,11-6.8l-2.1,2.1c-.7-.9-1.3-1.8-2-2.7,1.8.8,3.7,1.5,5.5,2.3.2-.2.4-.3.6-.5-1.5-.6-2.9-1.2-4.4-1.8,1.4.1,2.8.3,4.2.4-.9-.5-1.7-1-2.6-1.5.1.2.2.3.3.5.6-1.5,1.2-2.9,1.8-4.4.6,0,1.2.1,1.9.1-1,.3-1.9.5-2.9.8-.5-1.2-1-2.4-1.6-3.6h-3c-.3.7-.6,1.4-.9,2-.9.5-1.7,1-2.6,1.5.5,1.1.9,2.1,1.4,3.2-1-.3-1.9-.5-2.9-.8-.3.3-.7.6-1,.9,1-.3,1.9-.5,2.9-.8.2.1.5.1.7.2a24.94,24.94,0,0,1,1.7-8.1c2.9-4,2.7-5.7-.4-5.1-2.3-.5-2.4.2-.5,2,.7-1,1.5-1.9,2.2-2.9,1-.2.9-.4-.3-.7,2.2-.8,3.3-4.4.7-5.5-.8-.6-1.6-1.1-2.4-1.7-.9,1.5-1.7,3-2.6,4.5.8.4,1.6.9,2.4,1.3,1.6-1.2,3.1-2.4,4.7-3.6-.8-.7-1.6-1.3-2.4-2-1.2,1.6-2.4,3.1-3.6,4.7a13.23,13.23,0,0,1,4.3,5.1c1.8,3.4,7,.4,5.2-3a20.69,20.69,0,0,0-6.5-7.3c-2.7-2-6.3,2.5-3.6,4.7.8.7,1.6,1.3,2.4,2,2.5,2.1,6.5-.5,4.7-3.6a7.87,7.87,0,0,0-7.5-4.3c-2,.1-4,2.6-2.6,4.5a10.36,10.36,0,0,0,4.5,3.8c.2-1.8.5-3.7.7-5.5-7.3,2.5-2.9,14.5,3.5,12.2a3.09,3.09,0,0,0,2.2-2.9c0-3.7-4.3-9.7-8.4-7.9-5.4,2.3-1.1,9.4,2.1,11.5,3.6,2.3,9.5.1,8-4.9s-8.1-3.9-10.7-.8c-3,3.5-2.4,9.9,2.1,12a4.56,4.56,0,0,0,6-6.2c-2.5-4.7-8.6-2.2-10.7,1.4-1.9,3.4-2,10.3,2.6,11.6a2.86,2.86,0,0,0,2.9-.8c1.7-2,2.6-4.7,1.2-7.1a4.46,4.46,0,0,0-6.9-1.4c-4.4,3.9,1.7,10.1,6.2,6.9,4.8-3.5.3-11.7-4.7-7.5-4.6,3.8.8,9.9,5.3,5.7,2.1-1.9,3.5-5,2.1-7.7a4.55,4.55,0,0,0-6.9-1.6c-5.1,4.3,2.2,10.7,7.1,9s6.6-12.9,0-12.9c-6.9-.1-4.3,9.7-.1,11.8,7.2,3.5,11.7-7.3,4.7-8.3-7.3-1-7.2,13.6,1.1,10.7a3,3,0,0,0,1.8-4.4c-2.7-4.6-10.1-.6-8.7,4.2,1.5,5.2,9.3,2.8,7.5-2.3a3,3,0,0,0-4.4-1.8,6.76,6.76,0,0,0-3.3,4.1c-1.1,3.3,3.7,5.1,5.5,2.3,1.6-2.6.4-6.6-3.2-6.6a4.45,4.45,0,0,0-3.4,1.8c-1.5,2,.4,4.4-5,2.4-.9-.3-3.6-2.8-3.3-3.6-1,.7-1.9,1.5-2.9,2.2a7.08,7.08,0,0,0,2.9,0c1.8-.2,3.6-1.8,2.9-3.8a5.12,5.12,0,0,0-2.6-3.3c-2.4-1.5-4.8.9-4.4,3.4.9,5,8,6.2,10.1,1.3,1.7-4-2.5-10.2-6.9-7.1s-.6,8.5,3.7,8.6c4.9.2,9.4-4.4,6.5-9.2-2.7-4.3-10.2-4.3-11,1.4-.7,4.9,6.1,8.2,10.1,6.1,4.6-2.4,2.5-9.7-2.6-9.2-5.8.7-5.3,8.1-.2,9.5,3.1,1.6,4.7-4.2.9-5.3Z" transform="translate(-61.99 -105.58)"/><path class="cls-1" d="M89.4,163.7a4,4,0,0,0,4.6-2.2,3.89,3.89,0,0,0-1.7-4.8,3.06,3.06,0,0,0-2.3-.3,2.83,2.83,0,0,0-1.8,1.4,3,3,0,0,0,1.1,4.1c.4.2.9.5,1.3.7a3,3,0,0,0,3-5.2c-.4-.2-.9-.5-1.3-.7-1,1.7-2,3.5-3,5.2.3.2.2,0-.3-.4s-.5-.6-.3-.3c-.1-.2-.2-.5-.3-.7a.35.35,0,0,0,.1.2c0-.3-.1-.5-.1-.8v.2c0-.3.1-.5.1-.8v.1c.1-.2.2-.5.3-.7-.1.2-.1.2.1-.1a1,1,0,0,1,.6-.5c.2-.1.5-.2.7-.3a.35.35,0,0,0-.2.1c.3,0,.5-.1.8-.1h-.2c.3,0,.5.1.8.1h-.1a3.07,3.07,0,0,0-3.7,2.1,2.69,2.69,0,0,0,1.8,3.7Z" transform="translate(-61.99 -105.58)"/><path class="cls-1" d="M88.5,158a6.8,6.8,0,0,1,.2-2l.3-1.2c0-.1.1-.3.1-.4a1.34,1.34,0,0,1-.7.8c-.5.1-1,.3-1.5.4h-.3c-.4-.3-.9-.5-1.3-.8a2.35,2.35,0,0,1,.6,1.7l5.6-1.5a4.22,4.22,0,0,1-.8-2l-3.8,2.9a2,2,0,0,1-1.1-2.2,3.16,3.16,0,0,0,2.1,3.7,3,3,0,0,0,3.7-2.1,4.22,4.22,0,0,0-3.1-5.2c-1.7-.3-4.1.8-3.8,2.9a12.76,12.76,0,0,0,1.6,5c1.5,2.4,5.7,1.6,5.6-1.5s-1.9-7.9-5.8-6.8c-3.2.9-3.5,5.5-3.6,8.2a3.08,3.08,0,0,0,3,3,2.86,2.86,0,0,0,3-2.9Z" transform="translate(-61.99 -105.58)"/><path class="cls-1" d="M117.9,156.8c3-.7.3-2.7-1.6-1.9l-3.8-2.9a11,11,0,0,0,.2-1.8,3,3,0,0,0-4.7.6c-.2.1-.3.3-.5.4,1.5,1.1,2.9,2.3,4.4,3.4.6-2.6,1.3-5.3,1.9-7.9s-3.1-5.4-5-2.9a12.69,12.69,0,0,0-2.7,4.8c-.2.8-.5,4.1-.5,4.1,1.5.6,2.9,1.2,4.4,1.8-.1-.4-.2-.8-.3-1.1-1,1.3-1.9,2.5-2.9,3.8a2.92,2.92,0,0,0-.9-.2c1.4,1.8,4.6.7,5-1.3a12.44,12.44,0,0,1,.4-1.6c-1.8.2-3.7.5-5.5.7.2,1.2.5,2.4.7,3.6-.6,3.7,5,5.4,5.8,1.6.1-.3.3-.6.4-.9-.9.5-1.7,1-2.6,1.5l-.6-.6,2.1-2.1h-.1l2.1,2.1a2.35,2.35,0,0,1-.2-.8c-.3,1-.5,1.9-.8,2.9.1.6.2,1.2.3,1.9.3-1,.5-1.9.8-2.9a4.05,4.05,0,0,0,.5-.9c-.2,1.6-.4,3.1-.6,4.7-.2-.4-.5-.8-.7-1.2.9-.5,1.7-1,2.6-1.5l-.9,2.7,2.1-2.1c-.3.1-.5.2-.8.3,1,.3,1.9.5,2.9.8l-.6-.6c.2,1.2.3,2.4.5,3.6a3,3,0,0,0,.5-.7c-.9.5-1.7,1-2.6,1.5l2.1-3.3c-.2,1.8-.5,3.7-.7,5.5a3,3,0,0,0-.7-.5,3.05,3.05,0,0,0,5.5-.7c.1-.3.2-.5.3-.8L121,170c-.2.1-1.3-.2,0,.1a4.57,4.57,0,0,0,2-.2c1.9-.5,4.1-2.2,5.9-3-1.5-1.1-2.9-2.3-4.4-3.4-.2.8-3.4,2.2-4,3.5a3.07,3.07,0,0,0,1.8,4.4c7.2,2.1,10.5-10.6,12.5-15.4-2-.3-3.9-.5-5.9-.8-.5,1-.9,1.9-1.4,2.9,1.8.8,3.7,1.5,5.5,2.3,1.4-4.4,2.6-6.9-.2-10.8a17.32,17.32,0,0,0-9.6-7c-2.7-.7-4.4,2.1-3.4,4.4.2.4,2.7,5.5,2.3,6.1.9-.5,1.7-1,2.6-1.5a2.6,2.6,0,0,0-3.4.2,9.7,9.7,0,0,0,0,3.4h3c-2.1-1.3-2.8-1.2-1.9.2.2,1.5,1.3,1.7,3.2.7-.3-1-.5-1.9-.8-2.9-.1.4-.1.7-.2,1.1h5.8c-.8-2,.2-4.4-.2-6.5a11.08,11.08,0,0,0-2.5-4.8l-4.2,4.2a46.09,46.09,0,0,1,5.4,6.3,3,3,0,0,0,5.2-3,48.86,48.86,0,0,0-5.9-9.1c-1,1.7-1.9,3.3-2.9,5a3.73,3.73,0,0,1,3.2,3.6c1.5-1.1,2.9-2.3,4.4-3.4-3.9-2.7-5.7-7.7-11-7.4a26.89,26.89,0,0,0-8,1.4c-1,.4-3.4,2.9-2.7,2.6,1.1,1.5,2.3,2.9,3.4,4.4a7.16,7.16,0,0,1,6.6-4.1c3.9-.1,3.9-6.1,0-6a12.88,12.88,0,0,0-11.7,7.1c-1.2,2.1.8,5.3,3.4,4.4a7.82,7.82,0,0,0,2.6-1.7,9.24,9.24,0,0,1,5.8-2c3.4-.1,5.9,4.4,8.8,6.4,2.3,1.6,4.9-1,4.4-3.4a9.87,9.87,0,0,0-7.4-7.8c-3.1-.9-4.7,2.8-2.9,5a49.52,49.52,0,0,1,4.9,7.9c1.7-1,3.5-2,5.2-3a50.75,50.75,0,0,0-6.4-7.5c-2.8-2.7-6.6,1.3-4.2,4.2,1.9,2.3,0,5.9,1.1,8.7,1,2.4,5.2,3.3,5.8,0,.8-4.8-4-7.7-7.8-4.2-3.1,2.8-3.2,9.7,1.8,10.3,5.9.8,4.7-7.2,2.9-10.4-2.3-4.1-8.2-6.1-10.3-.6-1.5,3.7,2.1,10.9,6.7,9.8,4.8-1.1,4.2-9.5,2.7-12.7-2-4-8.3-6-10.1-.6-1.7,5,4.2,9.7,8.5,10.2a3.11,3.11,0,0,0,2.6-1.5c2.3-3.4-.9-8.9-2.3-12.1-1.1,1.5-2.3,2.9-3.4,4.4a10.22,10.22,0,0,1,6.5,4.8c.8,1.6-.1,3.2-.9,5.5-1.1,3.5,3.6,4.8,5.5,2.3a11.51,11.51,0,0,0,2.2-5.9c.5-3.7-4.7-3.6-5.9-.8-.3.6-5.1,11.2-5.1,11.2.6,1.5,1.2,2.9,1.8,4.4.5-1,2-1.2,2.8-1.9a5.8,5.8,0,0,0,1.8-3,3.07,3.07,0,0,0-4.4-3.4,56.83,56.83,0,0,0-5.5,2.8h3c-2.8-1.5-5.3-.4-6.2,2.5,1.8-.2,3.7-.5,5.5-.7-1.6-2.2-3.4-3.2-6.1-2.2-2.3.8-3.2,4.2-.7,5.5,3.2,1.6,7-.7,6-4.4-1.1-4.1-5.9-4.3-8.1-1.2a2.89,2.89,0,0,0,.5,3.6l.6.6a3.16,3.16,0,0,0,2.9.8c3.9-1.2,4.2-5.9.5-7.9-3.2-1.7-8.8.1-7.1,4.6,1.6,4.2,7.4,3.1,8.2-.9,1.1-5-5-7.2-8.5-5a3,3,0,0,0-.6,4.7c3.3,3.1,10.9,2.8,8.3-3.3-1.7-4-11.2-7.7-10.8-.7.3,5.3,8.3,4.3,8.2-.9-.1-5.6-8-6.8-9.2-1.1,1.9.5,3.9,1.1,5.8,1.6a11.28,11.28,0,0,0-1.4-8.2,3.05,3.05,0,0,0-5.5.7,12.44,12.44,0,0,1-.4,1.6c1.7-.4,3.3-.9,5-1.3a3.85,3.85,0,0,0-3.3-1.5c-2-.2-3.4,2-2.9,3.8.1.4.2.8.3,1.1a3,3,0,0,0,4.4,1.8c4.2-2.1,1.8-6.6,4.4-9.9-1.7-1-3.3-1.9-5-2.9-.6,2.6-1.3,5.3-1.9,7.9-.6,2.4,2.1,4.9,4.4,3.4a9.53,9.53,0,0,0,2.7-2.6l-4.7.6c3.6,3.4,9.4,3.6,10-2.4a3,3,0,0,0-3.8-2.9c-5,2.1-7,8.8-1.6,11.9,4.9,2.9,10.9-1,11.2-6.4.3-6-6-7-9.3-2.8-3.5,4.3-2.4,12.3,4.5,10.8,3.3-1,1.7-6.8-2.1-5.9Z" transform="translate(-61.99 -105.58)"/><path class="cls-1" d="M131,155.6c0-.1.6-.6.2-.3-1.5-.6-2.9-1.2-4.4-1.8a15.46,15.46,0,0,1,.7,2.3c.4,2.2,3.6,2.9,5,1.3.3-.3.2-.3-.2,0a.91.91,0,0,1-.7.3c-.4,0-1.3-.8-.9-.2a3,3,0,0,0,5.1-2.1v.3l-1.1,1.1c-.5.1-1,.1-1.5.2-.4-.3-.9-.5-1.3-.8l.1.1c-.3-.4-.5-.9-.8-1.3,0,.1,0,.1.1.2,1.8-.8,3.7-1.5,5.5-2.3a3.63,3.63,0,0,0-.3-.7,3.11,3.11,0,0,0-3.7-2.1,3.07,3.07,0,0,0-2.1,3.7l.9,2.1a2.81,2.81,0,0,0,3.7,1.2,2.84,2.84,0,0,0,1.7-3.5c-.7-1.8-2.4-3.1-4.4-2.5s-2.7,2.3-2.9,4.2l5.1-2.1a4.6,4.6,0,0,0-6.8,0c1.7.4,3.3.9,5,1.3a20.15,20.15,0,0,0-.7-2.3c-.7-1.6-2.7-3-4.4-1.8a15.76,15.76,0,0,0-1.5,1.2,3.09,3.09,0,0,0,0,4.2c1.4,1.2,3.5,1.4,4.6.1Z" transform="translate(-61.99 -105.58)"/><path d="M92.8,165c4.6-.6,9.7.1,14.4.2a.6.6,0,1,0,0-1.2c-4.7-.1-9.7-.8-14.4-.2-.8.1-.8,1.3,0,1.2Z" transform="translate(-61.99 -105.58)"/><path d="M62.4,154.4c-.2,4.5.6,7.4,3.7,10.7s6.8,6.5,11.5,7.1c9.7,1.2,16.5-6.9,18.7-15.5.2-.7-1-1.1-1.2-.3-2.1,8-8.3,15.7-17.4,14.5-4-.5-7-2.8-9.8-5.6-3.3-3.3-4.6-6.4-4.3-10.9a.6.6,0,0,0-1.2,0Z" transform="translate(-61.99 -105.58)"/><path d="M73.1,137.4a108.94,108.94,0,0,0,1.5-14c.2-5.3-.6-10.8.2-16.1a.62.62,0,0,0-1.2-.3c-.7,4.2-.2,8.4-.2,12.7a100.55,100.55,0,0,1-1.6,17.4c0,.8,1.2,1.1,1.3.3Z" transform="translate(-61.99 -105.58)"/><path d="M78.8,137.4c1.8-10.3.5-20.5,1.4-30.8.1-.8-1.1-.8-1.2,0-.9,10.2.4,20.3-1.4,30.4-.1.9,1,1.2,1.2.4Z" transform="translate(-61.99 -105.58)"/><path d="M79.2,138.4c1-1,7.3,2.4,8.1,2.9a20,20,0,0,1,5.8,7.1.58.58,0,1,0,1-.6c-1.9-3.6-4.2-6.7-7.9-8.5a22,22,0,0,0-5.6-2c-.9-.2-1.6-.6-2.3.2-.5.6.3,1.5.9.9Z" transform="translate(-61.99 -105.58)"/><path d="M63.2,155.7a24.59,24.59,0,0,1,3.5-10.8c1.7-2.7,4.2-4.5,6.1-6.9.5-.6-.6-1.2-1-.6-2.4,3.2-5.3,5.2-7.2,8.9a25.87,25.87,0,0,0-2.6,9.4c-.1.7,1.1.7,1.2,0Z" transform="translate(-61.99 -105.58)"/><path d="M95.9,158.4a12,12,0,0,0,9.1.1c.7-.3.4-1.4-.3-1.2a10.9,10.9,0,0,1-8.5-.1c-.7-.3-1,.9-.3,1.2Z" transform="translate(-61.99 -105.58)"/><path d="M136.4,154.2a13.57,13.57,0,0,1-4.3,10.9c-2.7,2.8-5.9,5-9.8,5.6-9.1,1.2-15.3-6.5-17.4-14.5-.2-.7-1.4-.4-1.2.3,2.2,8.5,9,16.8,18.7,15.5,4.4-.6,8-3.4,11-6.5,3.4-3.5,4.4-6.4,4.2-11.3-.1-.8-1.3-.8-1.2,0Z" transform="translate(-61.99 -105.58)"/><path d="M127.9,136.9a102.39,102.39,0,0,1-1.6-17.4c0-4.2.5-8.5-.2-12.7-.1-.8-1.3-.4-1.2.3.8,5.3,0,10.8.2,16.1a108.94,108.94,0,0,0,1.5,14c.3.8,1.5.5,1.3-.3Z" transform="translate(-61.99 -105.58)"/><path d="M122.3,136.9c-1.8-10.2-.5-20.2-1.4-30.4-.1-.8-1.3-.8-1.2,0,.9,10.3-.4,20.5,1.4,30.8.2.7,1.3.4,1.2-.4Z" transform="translate(-61.99 -105.58)"/><path d="M121.6,137.4c-.7-.8-1.4-.4-2.3-.2a23.46,23.46,0,0,0-5.6,2c-3.7,1.8-6,4.9-7.9,8.5-.4.7.7,1.3,1,.6a16.77,16.77,0,0,1,5.8-7.1c.8-.5,7.1-4,8.1-2.9.6.5,1.4-.4.9-.9Z" transform="translate(-61.99 -105.58)"/><path d="M137.9,155.4a25.87,25.87,0,0,0-2.6-9.4c-1.8-3.7-4.7-5.7-7.2-8.9-.5-.6-1.5,0-1,.6,1.9,2.5,4.4,4.2,6.1,6.9a23,23,0,0,1,3.5,10.8c.1.8,1.3.8,1.2,0Z" transform="translate(-61.99 -105.58)"/><path d="M74.6,107.2c.1-.2,1.9,0,2.1,0,.8,0,1.6.1,2.5.1a.6.6,0,1,0,0-1.2c-1.3,0-2.6-.1-4-.1-.8,0-1.4.1-1.7.9s.8,1,1.1.3Z" transform="translate(-61.99 -105.58)"/><path d="M120.7,108c.1-.3-.1-.7,0-1-.1-.2,0-.2.2,0,.1,0,.3.1.4.1a2,2,0,0,0,.8.1,13.55,13.55,0,0,0,3.5-.1c.8-.1.4-1.3-.3-1.2a11.33,11.33,0,0,1-2.6.1,9.26,9.26,0,0,0-2.3-.4c-1.2.2-.6,1.3-.8,2a.59.59,0,1,0,1.1.4Z" transform="translate(-61.99 -105.58)"/><path d="M95.8,158c1.5-3-.4-7-1.7-9.8-.3-.7-1.4-.1-1,.6,1.1,2.3,2.9,6.1,1.7,8.5-.4.7.7,1.3,1,.7Z" transform="translate(-61.99 -105.58)"/><path d="M104.8,156.9c-.6-1.2.1-2.8.4-4a23.88,23.88,0,0,1,1.5-3.7c.4-.7-.7-1.3-1-.6-1.2,2.4-3.2,6.2-1.9,8.9.3.7,1.3.1,1-.6Z" transform="translate(-61.99 -105.58)"/><path class="cls-1" d="M64.5,283.7c0,.1-.1.2-.2.3a1.2,1.2,0,0,0,1.7,1.7,3.67,3.67,0,0,0,.9-2c.1-.6-.6-1.2-1.2-1.2a1.16,1.16,0,0,0-1.2,1.2Z" transform="translate(-61.99 -105.58)"/><path class="cls-1" d="M101.8,282.3h-.1l-1.2,2.1c-.1.5-.2.9-.3,1.4.3.6.7,1.2,1,1.8a9.91,9.91,0,0,1-3.5,2.9,10.93,10.93,0,0,0,1.5.8c.3,1.6-3.5,3.6-4,5.3-.6,2,0,4.6.2,6.6.1.8,1,1.6,1.8,1,1.6-1.5,3.4-1.5,5.4-.2a1.28,1.28,0,0,0,1.8-.7c.8-5.1,4.5-7.9,8.6-10.5-.5-.6-1-1.3-1.5-1.9-1,.9-2.1,1.8-3.1,2.7-.3.3-7.8,5.6-6.3,1.9a10.93,10.93,0,0,1-1.5.8c-.5.1-.9.3-1.4.4a12.25,12.25,0,0,0-.2,1.9,10.93,10.93,0,0,0-1.7-.5c.1.5.3,1.1.4,1.6.2-.5.4-1,.6-1.6.1.7.2,1.5.3,2.2.6.1,1.3.1,1.9.2a12.25,12.25,0,0,0,.2-1.9c.2.1.4.3.6.4a12.25,12.25,0,0,0,1.9.2c-1.4-2.9.2-5.6,2.3-7.5a14.62,14.62,0,0,0-2-.5c-1.1.2-1-.3.4-1.6a5.56,5.56,0,0,1,2.1-2.7c-.7-.4-1.3-.8-2-1.2a12.25,12.25,0,0,1-4.5,7.4c.7.4,1.3.8,2,1.2,1.2-4,3.6-7.2,6.2-10.5-.6-.5-1.3-1-1.9-1.5-1.7,2.8-3.6,5.4-5.5,8l2.1,1.2a32.9,32.9,0,0,1,6.8-8.9c-.6-.5-1.3-1-1.9-1.5a57,57,0,0,1-5.1,9.4l2.1,1.2a28.89,28.89,0,0,1,5.6-7.4c-.6-.5-1.3-1-1.9-1.5-1.5,3-3.1,6-4.8,8.8-.8,1.4,1.2,2.4,2.1,1.2a72.24,72.24,0,0,1,5-6c-.6-.5-1.3-1-1.9-1.5a87.21,87.21,0,0,1-5.5,8l2.1,1.2a33.37,33.37,0,0,1,5-5.6c-.6-.5-1.3-1-1.9-1.5-2.2,3.2-4.4,6.3-6.8,9.3.6.5,1.3,1,1.9,1.5a48.23,48.23,0,0,1,7.7-9.2c-.6-.5-1.3-1-1.9-1.5-1.4,2.3-2.9,4.5-4.4,6.6-.8,1.1,1,2.4,1.9,1.5,1.6-1.7,3.2-3.4,4.9-5.1-.6-.5-1.3-1-1.9-1.5a39.66,39.66,0,0,1-4.9,6.7l1.7,1.7c1.5-1.9,3.1-3.8,4.6-5.7-.6-.5-1.3-1-1.9-1.5a30.22,30.22,0,0,1-3.1,5.1c-.8,1.1,1,2.5,1.9,1.5a27.81,27.81,0,0,1,12.2-8.6c-.3-.7-.6-1.5-.9-2.2-2.3,1.1-4.6,2.3-6.9,3.4a1.2,1.2,0,0,0,.9,2.2,21.37,21.37,0,0,0,4.2-1.6l-1.2-2.1a28,28,0,0,1-4.1,2.5c-1.4.7-.2,2.7,1.2,2.1,3.9-1.7,7.9-3.4,11.8-5.1l-1.2-2.1a21.2,21.2,0,0,1-4.8,2.3c.3.7.6,1.5.9,2.2a37.13,37.13,0,0,1,8.5-3.5c-.2-.8-.4-1.5-.6-2.3l-4.5,1.8c-1.4.6-.9,2.7.6,2.3,3.5-.9,6.9-1.8,10.4-2.8a1.24,1.24,0,0,0,.8-1.5,25.25,25.25,0,0,1-1-4.6l-2.3.6a9.61,9.61,0,0,1,.8,2.9,1.24,1.24,0,0,0,2.4-.3v-2.1l-2.4.3c.1.6.2,1.1.3,1.7l2.3-.6-3.6-12.9c-.7.4-1.3.8-2,1.2,2.3,2.4,4.2,9.3.3,11.3-2.2,1.2-7.4.1-10,.3-6.7.6-12.8,1.1-19.5,0A133.93,133.93,0,0,1,82.8,277c-2.4-.8-5.1-1.2-7.5-2-3.2-1.1-4.6-3.4-6.4-6a1.22,1.22,0,0,0-2.2.3c-1.5,4-5.7,14.5.1,16.4,4.6,1.5,9.6,2,14.3,3.6,4.4,1.6,12,5.5,13.2,10.6.7-.3,1.5-.6,2.2-.9-2.8-4.3-6.9-10.3-12.2-11.3a1.24,1.24,0,0,0-1.2,2,7.19,7.19,0,0,0,2.4,2.2l1.2-2.1a10.91,10.91,0,0,1-1.1-.6c-.3.7-.6,1.5-.9,2.2.3.1.5.2.8.3,1.1.4,1.8-.9,1.4-1.8-2.1-4.3-.8-8.1-4.5-11.6A77.86,77.86,0,0,0,70,269.4l-1.2,2.1c9.7,4.8,20.1,3.8,30.6,3.3,5.3-.3,10.9.4,16.2-.4,4.9-.7,9.5-2.4,14.4-3.1,1.5-.2.9-2.5-.6-2.3-4.3.6-8.3,1.9-12.5,2.8-5.1,1-10.4.3-15.5.5-10.6.4-21.4,2.1-31.3-2.8a1.21,1.21,0,0,0-1.2,2.1c4,2.4,8.6,5.1,11.9,8.5s2.3,7.3,4.1,11.2c.5-.6.9-1.2,1.4-1.8-.3-.1-.5-.2-.8-.3-1.3-.5-2.1,1.6-.9,2.2a10.91,10.91,0,0,1,1.1.6,1.21,1.21,0,0,0,1.2-2.1c-.7-.6-1.3-1.2-2-1.8-.4.7-.8,1.3-1.2,2,4.6.9,8.5,6.6,10.8,10.2a1.21,1.21,0,0,0,2.2-.9c-1.4-5.5-8.5-9.8-13.5-11.7-2.2-.8-4.5-1.5-6.7-2.2s-5.2-.7-7.2-1.7c-5-2.4-1.8-9.6-.3-13.7l-2.2.3c1.5,2.2,2.9,5.4,5.5,6.6,1.5.7,3.5.6,5.1,1,2.2.5,4.3,1.3,6.5,2,8.9,2.7,18,5.2,27.4,4.9,4.7-.1,9.2-1,13.9-1,2.4,0,6.1.5,8-1.5,3.3-3.3.8-11.2-2-14.1a1.21,1.21,0,0,0-2,1.2l3.6,12.9a1.19,1.19,0,0,0,2.3-.6c-.1-.6-.2-1.1-.3-1.7a1.24,1.24,0,0,0-2.4.3v2.1l2.4-.3a15.68,15.68,0,0,0-.8-2.9,1.19,1.19,0,0,0-2.3.6,34.13,34.13,0,0,0,1,4.6,10.93,10.93,0,0,0,.8-1.5c-3.5.9-6.9,1.8-10.4,2.8.2.8.4,1.5.6,2.3l4.5-1.8c1.4-.6.9-2.7-.6-2.3a42.39,42.39,0,0,0-9.1,3.7c-1.2.6-.4,2.7.9,2.2a32.16,32.16,0,0,0,5.3-2.5c1.4-.8.2-2.7-1.2-2.1-3.9,1.7-7.9,3.4-11.8,5.1l1.2,2.1A21.4,21.4,0,0,0,117,290a1.21,1.21,0,0,0-1.2-2.1,14.19,14.19,0,0,1-3.6,1.4c.3.7.6,1.5.9,2.2,2.3-1.1,4.6-2.3,6.9-3.4,1.2-.6.4-2.7-.9-2.2a30.93,30.93,0,0,0-13.2,9.3c.6.5,1.3,1,1.9,1.5a28.88,28.88,0,0,0,3.1-5.1c.5-1.1-1-2.6-1.9-1.5-1.5,1.9-3.1,3.8-4.6,5.7-1,1.2.7,2.9,1.7,1.7a53.38,53.38,0,0,0,5.3-7.2,1.23,1.23,0,0,0-1.9-1.5c-1.6,1.7-3.2,3.4-4.9,5.1.6.5,1.3,1,1.9,1.5a58.24,58.24,0,0,0,4.4-6.6,1.23,1.23,0,0,0-1.9-1.5,54.17,54.17,0,0,0-8.1,9.7c-.7,1.1,1,2.5,1.9,1.5,2.5-3.2,4.9-6.4,7.2-9.8.8-1.2-.9-2.3-1.9-1.5a44.48,44.48,0,0,0-5.4,6.1c-.9,1.3,1.2,2.4,2.1,1.2,1.9-2.6,3.8-5.3,5.5-8,.7-1.1-1-2.5-1.9-1.5-1.9,2.1-3.6,4.3-5.3,6.5l2.1,1.2a84,84,0,0,0,4.8-8.8c.6-1.2-.9-2.5-1.9-1.5a32.59,32.59,0,0,0-5.9,7.9,1.21,1.21,0,0,0,2.1,1.2,57,57,0,0,0,5.1-9.4,1.23,1.23,0,0,0-1.9-1.5,33.16,33.16,0,0,0-7.2,9.4,1.21,1.21,0,0,0,2.1,1.2c2-2.6,3.8-5.3,5.5-8,.7-1.1-1-2.5-1.9-1.5-2.9,3.6-5.5,7.1-6.8,11.6-.4,1.2,1.1,1.9,2,1.2a13.77,13.77,0,0,0,5.1-8.4,1.22,1.22,0,0,0-2-1.2c-2.2,2-6.8,9.2-2.6,11.7,3.7,2.2,4.8-4,4.1-6.3a1.2,1.2,0,0,0-2-.5c-3.1,2.8-4.6,6.5-2.7,10.4a1.23,1.23,0,0,0,1.9.2c2.7-2.3-.6-6-2.7-3.5-1.6,1.9,1,4.7,2.9,3,2.3-2.1-1.1-4.6-3.3-3.2a2.11,2.11,0,1,0,2,3.7,1.17,1.17,0,0,0,.2-1.9,3.21,3.21,0,0,0-4.8-.6,1.22,1.22,0,0,0,.3,2.2,1.85,1.85,0,0,0,.7.2,1.31,1.31,0,0,0,1.2-.3,2.65,2.65,0,0,0,.5-.6,1.21,1.21,0,0,0,.2-1.5c-1.2-2.3-3.3-1.6-4.6.2a1.14,1.14,0,0,0,.4,1.6c1.9,1.3,5.2,1.8,5.7-1.3.4-2.5-2.2-3.5-4-2.3a1.23,1.23,0,0,0-.2,1.9c4.3,3.9,7.8-3.6,3.7-4.4a1.35,1.35,0,0,0-1.5.8c-.9,2.2,1.4,4.2,3.6,4.5,3.6.5,7.5-4.7,9.8-6.7,1-.9-.3-2.6-1.5-1.9-4.6,3-8.7,6.3-9.7,12,.6-.2,1.2-.5,1.8-.7a6.6,6.6,0,0,0-7.8.2c.6.3,1.2.7,1.8,1-.2-2.3-.7-4.3.3-6.4.3-.6,1.6-1.7,1.9-2.3.6-1.2,1.2-3.2.1-4.3-1.5-1.5-3.5-.1-3.1,1.8a1.13,1.13,0,0,0,1.5.8c2.2-.8,6-3.4,4.9-6.3-.8-2.2-3.2-1.9-4.1-.1a1.21,1.21,0,0,0,1,1.8c3.8.2,5-4.3,1.5-5.9-1.4-.6-2.6,1.3-1.2,2.1a2.06,2.06,0,0,0,2,.3c1.4-.1.8-2.4-.7-2Z" transform="translate(-61.99 -105.58)"/><path class="cls-1" d="M96.8,301c.1-.2.1-.3.2-.5.6.3,1.2.7,1.8,1a25.57,25.57,0,0,0,1.1-2.4,14.62,14.62,0,0,0-2-.5,4.06,4.06,0,0,0,1.8-3.8c-.7-.3-1.5-.6-2.2-.9-.4.7-.7,1.5-1.1,2.2.7.3,1.5.6,2.2.9a13.94,13.94,0,0,1,2-5.7c-.7-.3-1.5-.6-2.2-.9a25.24,25.24,0,0,1-1.4,5.4l2.3.6a27.36,27.36,0,0,1,3.9-9.9l-2.2-.6a30.27,30.27,0,0,1-.5,6.7l2.3.6a26,26,0,0,1,3.1-9l-2.2-.3a12.77,12.77,0,0,1,.6,5.1c0,1.3,2.2,1.7,2.4.3a21.4,21.4,0,0,1,2.2-6.9l-2.2-.3a7.05,7.05,0,0,1,.3,5.7l2.4.3a5.13,5.13,0,0,1,2.1-5.3,14.62,14.62,0,0,0-2-.5c.5,3.2-1.2,5.6-3.9,6.9.6.5,1.2.9,1.8,1.4.4-1.2,4.1-5,3.1-3.8a10.88,10.88,0,0,1-3.7,3,1.45,1.45,0,0,0-.6,1.4c.9,2.3-2.9,3.7-.4,5.8a1.2,1.2,0,0,0,2-.5,27,27,0,0,1,10.9-15.3l-1.6-1.6a42.77,42.77,0,0,1-7,7.1l1.7,1.7a17.68,17.68,0,0,1,4.3-2.8c-.6-.5-1.2-.9-1.8-1.4a6.67,6.67,0,0,1-4.2,4.3c.5.6,1,1.3,1.5,1.9a29.34,29.34,0,0,1,5.2-4.1c-.5-.6-1-1.3-1.5-1.9-1.6,1.3-3.1,2.6-4.7,3.9l1.7,1.7a50.19,50.19,0,0,1,8.2-5.7c-.5-.1-1.1-.3-1.6-.4-.2-.3-4.2,2.1-4.5,2.2l1.2,2.1c1.7-1,6.8-3,7.8-4.7,1.4-2.4-1.8-.5-2.6-.2-1.5.6-3.1,1.2-4.7,1.7-1.2.4-1.1,2.5.3,2.4a31.75,31.75,0,0,0,6.1-1.4c-.3-.7-.6-1.5-.9-2.2a38.07,38.07,0,0,0-5.6,3.1l1.2,2.1a44.29,44.29,0,0,1,8.1-4.8l-1.2-2.1L120,285c-1.2.9-.1,2.9,1.2,2.1a30,30,0,0,1,5-2.7c-.3-.7-.6-1.5-.9-2.2-1.3.8-2.5,1.7-3.8,2.5l1.2,2.1a11.71,11.71,0,0,1,7.7-2.3l-1.2-1.5c-.4.3-.8.5-1.2.8.2.7.4,1.5.6,2.2a12.21,12.21,0,0,1,3.8-1.3,1.26,1.26,0,0,0,.7-1.8,39.18,39.18,0,0,1-5-11c-.7.3-1.5.6-2.2.9a18.53,18.53,0,0,1,3.1,5.9,1.19,1.19,0,0,0,2.3-.6c-.5-1.7-.9-3.4-1.4-5.2l-2.3.6a28.58,28.58,0,0,1,1.6,6.4l2.4-.3c-.7-2.2-1.4-4.4-2-6.7l-2.3.6c.5,1.5,1.1,3,1.6,4.5a1.19,1.19,0,0,0,2.3-.6c-.4-1.7-.7-3.4-1.1-5l-2.3.6a17.07,17.07,0,0,1,1.4,6.4c.1,1.5,2.5,1.6,2.4,0V278c-.7.3-1.4.6-2,.8.3.6.6,1.1.9,1.7.7-.4,1.3-.8,2-1.2a6.05,6.05,0,0,1-1.9-4.1c-.7.4-1.3.8-2,1.2.5,1,.9,2,1.4,3.1.3,1.5,2.6.9,2.3-.6a9.84,9.84,0,0,0-2-4.1c-.8-1-2.2.1-2,1.2a9.83,9.83,0,0,0,2.5,5.1c.8.9,2.3-.1,2-1.2a4,4,0,0,0-1.6-2.8c-.7-.7-2.1-.2-2,.8v1.4h2.4a20.88,20.88,0,0,0-1.5-7c-.6-1.4-2.7-.9-2.3.6.4,1.7.7,3.4,1.1,5l2.3-.6c-.5-1.5-1.1-3-1.6-4.5s-2.7-.9-2.3.6c.6,2.3,1.2,4.5,2,6.7.4,1.2,2.5,1.1,2.4-.3a28.63,28.63,0,0,0-1.7-7c-.5-1.4-2.7-.9-2.3.6.5,1.7.9,3.4,1.4,5.2l2.3-.6a23.45,23.45,0,0,0-3.3-6.5c-.8-1-2.6-.5-2.2.9a42.73,42.73,0,0,0,5.2,11.5c.2-.6.5-1.2.7-1.8a20.06,20.06,0,0,0-4.3,1.6c-1.1.5-.5,2.2.6,2.2,2,0,2.8-.7,3.5-2.5a1.16,1.16,0,0,0-1.2-1.5,14.2,14.2,0,0,0-8.9,2.7c-1.3.9-.1,2.9,1.2,2.1s2.5-1.7,3.8-2.5c1.1-.7.4-2.7-.9-2.2a29.73,29.73,0,0,0-5.6,2.9l1.2,2.1,4.1-2.9a1.21,1.21,0,0,0-1.2-2.1,41.17,41.17,0,0,0-8.1,4.8c-1.2.9-.1,3,1.2,2.1a38.07,38.07,0,0,1,5.6-3.1,1.2,1.2,0,0,0-.9-2.2,33.86,33.86,0,0,1-5.5,1.3l.3,2.4c3.3-1.1,7.5-2.2,10.3-4.4a1.31,1.31,0,0,0,.3-1.2c-.9-5.1-11.3,3.5-12.9,4.5a1.21,1.21,0,0,0,1.2,2.1c1.6-.9,7.2-2.7,5.3-5.5a1.18,1.18,0,0,0-1.6-.4,58.09,58.09,0,0,0-8.6,6.1c-1.2,1,.5,2.7,1.7,1.7,1.6-1.3,3.1-2.6,4.7-3.9,1.1-.9-.3-2.6-1.5-1.9a30.91,30.91,0,0,0-5.7,4.4c-1,1,.3,2.5,1.5,1.9a9.79,9.79,0,0,0,5.3-5.8c.4-1.1-.9-1.8-1.8-1.4a22.31,22.31,0,0,0-4.8,3.2c-1.2,1,.5,2.6,1.7,1.7a44.36,44.36,0,0,0,7.4-7.6c.7-1-.7-2.3-1.6-1.6a29,29,0,0,0-12,16.7,14.62,14.62,0,0,1,2-.5c.5.4,1.8-4.1,1.9-4.1,1.2-1.9,5.4-3.1,4.5-6.2-1.6-5.4-8,3.1-8.7,5.1-.4,1.1.9,1.7,1.8,1.4,3.9-1.8,5.6-5.4,5-9.6-.1-.9-1.4-1.1-2-.5a8.13,8.13,0,0,0-2.8,7,1.23,1.23,0,0,0,2.4.3,10,10,0,0,0-.3-7,1.22,1.22,0,0,0-2.2-.3,24.38,24.38,0,0,0-2.4,7.5l2.4.3a22.47,22.47,0,0,0-.7-5.8,1.22,1.22,0,0,0-2.2-.3,29.76,29.76,0,0,0-3.4,9.6c-.2,1.5,2,2.2,2.3.6a30,30,0,0,0,.6-7.3,1.19,1.19,0,0,0-2.2-.6A28.11,28.11,0,0,0,97.5,296a1.19,1.19,0,0,0,2.3.6,25.24,25.24,0,0,0,1.4-5.4c.2-1.3-1.5-2.2-2.2-.9a19.12,19.12,0,0,0-2.2,6.2,1.2,1.2,0,0,0,2.2.9,4.32,4.32,0,0,0,1.3-2.8,1.2,1.2,0,0,0-2.2-.9c-.8,1.5-1.9,4.7-.3,6.2a1.8,1.8,0,0,0,2.8-.2,1.1,1.1,0,0,0,.3-1.2c-.1-.1-.1-.3-.2-.4a1.17,1.17,0,0,0-2-.5,4.67,4.67,0,0,0-1.8,4.1,1.18,1.18,0,0,0,1.8,1c.2-.1.3-.2.5-.3a1.28,1.28,0,0,0,.6-1.4c0-.2-.1-.4-.1-.6-1-1.6-3.3-.9-2.9.6Z" transform="translate(-61.99 -105.58)"/><path class="cls-1" d="M102.7,283.4a3,3,0,0,1-2.9,2.1c-1.5-.1-1.5.6.1,2.1-2.3-.7-5,2.3-3.4,4.4,1.1,0,2.2.1,3.3.1l-2.1,2.1c.2,0,.5-.1.7-.1-1.1-.5-2.3-.9-3.4-1.4,0,.3-.1.5-.1.8,1.7-.4,3.3-.9,5-1.3-.4.3-.8.6-1.1.8-1.2.2-2.4.3-3.6.5-.3-.2-.5-.4-.8-.6h4.2c-2.6-2.2-3-5.9-5.9-8.1s-6.6-3.3-9.9-4.6c-5.1-2.1-12.5-6.9-15.5.2l2.1-2.1c-.3.1-.5.1-.8.2,1,.3,1.9.5,2.9.8.1.8.2.7.3-.2a20,20,0,0,1,1-2.6c-1.2.2-2.4.3-3.6.5.1,0,.2.1.3.1-.5-.9-1-1.7-1.5-2.6v.3c.7-1,1.5-1.9,2.2-2.9.5.3,1,.5,1.6.8l-4.1,4.1a62.9,62.9,0,0,1,8.7,6.7c.4-1.7.9-3.3,1.3-5-2.4.5-4.3-.5-6.5-.1-.6.1-1.4.8-1.7.8-3.8.4-3.9,6.1,0,6s7.6,2.2,11.2,3.4a58.9,58.9,0,0,1,12,6.1c2.8,1.7,5.2-1.6,4.1-4.1-3.7-8.2-11.2-13.1-18.7-17.5-.8,1.8-1.5,3.7-2.3,5.5,5.1,1,10.2,2.3,15.3,3,4.7.6,10.1-1,14.5,1,.2-1.8.5-3.7.7-5.5-2.9.4-6.1-.5-9.1-.4a46.51,46.51,0,0,0-7.4.8c-2,.4-2.6,2.8-1.8,4.4s1.8,3.3,2.8,4.9c.9-1.5,1.7-3,2.6-4.5l.9,3.6c1-1.3,1.9-2.5,2.9-3.8-.1-1.1-.3-2.2-.4-3.3,2.8-2.4-.8-5.9-3.6-4.7h.1c-.5,1.9-1,3.7-1.5,5.6,9.3-.2,18.1.1,27.1-2.3,1.5-.4,5.3-1.8,5.9-.7.9,1.7-4.3-.2-5-.4-4.2-1-8.2-1.1-12.2.6a3,3,0,0,0-.7,5.5c3.5,2.7,8.5,1.9,12.5,1.6,3.8-.3,3.9-6.3,0-6a40.47,40.47,0,0,0-10.9,2.1,3,3,0,0,0,1.6,5.8c5-1,9.4-3.6,14.4-4.5-.8-1.8-1.5-3.7-2.3-5.5-.3.3-.6.7-.9,1v3l.6-3.3c.5-.9,1-1.7,1.5-2.6l-.6.3h3a2.18,2.18,0,0,1-.5-.4c.5,1.1.9,2.3,1.4,3.4.1-.2.1-.4.2-.5l-2.1,2.1c-.8-.4-1.7-.9-2.5-1.3-2.8,2.6,1.4,6.9,4.2,4.2,5.7-5.4-2.8-12.9-5.6-6.1a3.09,3.09,0,0,0,1.4,3.4,2.18,2.18,0,0,1,.5.4,2.93,2.93,0,0,0,3,0l.6-.3a3.11,3.11,0,0,0,1.5-2.6c.1-6.6-8.8-4.6-11.3-.7-3.7,5.8,4.6,8.2,8.6,5.2a3,3,0,0,0-2.3-5.5c-5,.9-9.4,3.5-14.4,4.5.5,1.9,1.1,3.9,1.6,5.8a32.75,32.75,0,0,1,9.3-1.9v-6c-2.9.2-7.1,1.1-9.5-.7-.2,1.8-.5,3.7-.7,5.5,4.3-1.8,8.1-1,12.3.4,2.3.7,4.7,1.6,7,.3,3.8-2,3.2-8.3,1.3-11.4-2.7-4.3-11.3-.6-15,.4-7.3,2-15.4,1.2-23,1.3-2.8,0-4.3,4.3-1.5,5.6,2.3,1.1,3.7,1,6,0-1.2-1.6-2.4-3.1-3.6-4.7-5.7,4.9-2.3,12.7,4.7,13.5,2.1.2,3.3-2.1,2.9-3.8-.9-4.3-5.7-8.2-9.9-4.8-4,3.3-1.3,8.3,3.2,8.8,2.3.3,3.7-2.7,2.6-4.5-1-1.6-1.9-3.2-2.8-4.9-.6,1.5-1.2,2.9-1.8,4.4,5.6-1,11,.4,16.5-.4,2.5-.4,3-4.5.7-5.5-4.5-2.1-8.7-1.6-13.6-1.6-5.9,0-11.9-1.8-17.7-3-3.2-.7-5.4,3.7-2.3,5.5,6.7,3.9,13.3,8,16.5,15.3l4.1-4.1a67.13,67.13,0,0,0-13.4-6.7c-4.2-1.4-8.3-3.7-12.8-3.6v6a6.56,6.56,0,0,0,4.2-1.7c-1,.3-1.9.5-2.9.8a18.79,18.79,0,0,0,8.5.1,3,3,0,0,0,1.3-5,65.15,65.15,0,0,0-9.9-7.6c-2.5-1.6-5.8,1.6-4.1,4.1,1.2,1.9,3,2.8,5.2,2a3.23,3.23,0,0,0,2.2-2.9v-.3a3,3,0,0,0-1.5-2.6c-.1,0-.2-.1-.3-.1a2.88,2.88,0,0,0-3.6.5c-1.9,2-3.9,6.6-2.8,9.4s3.9,3.3,6.2,2a9.25,9.25,0,0,0,1.1-1.6c-.7.1,1.9,1.5,1.9,1.5,2.8,1.4,5.9,2.3,8.8,3.5,3.4,1.4,5.7,2.3,7.4,5.6.9,1.7,1.5,3.2,3.1,4.4a3.08,3.08,0,0,0,4.2,0c2.5-2.4,3-6.8-.4-8.8a3,3,0,0,0-3.6.5c-2.6,2.1-.9,5.9,1.1,7.6,1.5,1.3,4.6,1.1,5-1.3.3-1.9.5-3.6-.5-5.4a3.09,3.09,0,0,0-3.4-1.4c-.2,0-.5.1-.7.1-1.1.1-1.8,1.2-2.1,2.1-3.2,8.6,13.7,6.6,7.7-1.5-1.1,1.5-2.3,2.9-3.4,4.4,8.5,2.7,9.1-13.9,2-14.1-7.5-.2-7.4,12.6.3,12.7,8.2.1,8-13.1,0-11.7-3.3.6-5.4,4.8-3.3,7.7,2.6,3.7,6.9,1.8,9.7-.4,2.9-2.7-1.3-6.9-4.3-4.5Z" transform="translate(-61.99 -105.58)"/><path class="cls-1" d="M115.4,291.2a5.08,5.08,0,0,1,3.2-.5c-.2-.7-.4-1.5-.6-2.2-.6.2-1.3.3-1.9.5v2.3c5.5-1.3,11-2.6,16.5-4,2.3-.6,4.9-1.2,4.1-4.1a1.19,1.19,0,0,0-2.3.6c.1.4.2.9.3,1.3l2.3-.6c-.5-1.5-3.7-12.9-4.9-12.8a1.19,1.19,0,0,0,.6-2.2,7.46,7.46,0,0,1-1.2-.7c-.1.7-.2,1.5-.3,2.2,2.7-.7,3.1,11.2,3.1,12.7a1.2,1.2,0,0,0,2.4,0c0-3.6.1-16.6-6.1-15a1.22,1.22,0,0,0-.3,2.2,7.46,7.46,0,0,1,1.2.7c.2-.7.4-1.5.6-2.2-1.7.1-2,1.1-2,2.6.1,2,1.4,4.3,2.1,6.2.8,2.4,1.7,4.7,2.5,7.1.5,1.4,2.7.9,2.3-.6-.1-.4-.2-.9-.3-1.3l-2.3.6c.2.8-17.1,4.7-18.8,5.2-1.1.3-1.2,2.1,0,2.3a5.16,5.16,0,0,0,3.8-.7,1.19,1.19,0,0,0-.6-2.2,8.77,8.77,0,0,0-3.9.5c-1.5.3-.9,2.7.5,2.1Z" transform="translate(-61.99 -105.58)"/><path class="cls-1" d="M131.7,272.3a2.88,2.88,0,0,0,2.2-1.8,2.52,2.52,0,0,0-.1-1.5.9.9,0,0,0-.6-.6c-.1-.1-.1-.1-.2-.1s-.2-.1.1.2c.1.2.1.4.2.6V269c-.2.3-.4.7-.6,1h-.1a1.35,1.35,0,0,0,1.5-.8,1.2,1.2,0,0,0-.8-1.5,2.78,2.78,0,0,0-1.8.3,1.1,1.1,0,0,0-.6,1,1.16,1.16,0,0,0,.4,1c.1.1.3.2.4.3s.3.3.1-.1c-.1-.1-.1-.1-.1-.2v-.2l-.5.2a1.18,1.18,0,1,0,.5,2.3Z" transform="translate(-61.99 -105.58)"/><path d="M96.6,305.3c.1-2,3.1-2.2,4.4-1.8a4.9,4.9,0,0,1,2.6,2.3.58.58,0,1,0,1-.6,5.56,5.56,0,0,0-5-3.1c-1.9,0-4.2,1-4.3,3.2.1.8,1.3.8,1.3,0Z" transform="translate(-61.99 -105.58)"/><path d="M64,286.2a126.53,126.53,0,0,1,18.2,5.3c7,2.5,11.4,6.2,13.2,13.6.2.8,1.3.4,1.2-.3-1.3-5.6-4.3-10.2-9.6-12.7a94.78,94.78,0,0,0-22.7-7c-.7-.2-1,1-.3,1.1Z" transform="translate(-61.99 -105.58)"/><path d="M64.8,285.9c-.6-5.3,1.2-10.7,2.2-15.9a.62.62,0,1,0-1.2-.3c-1,5.2-2.8,10.8-2.2,16.2.1.7,1.3.7,1.2,0Z" transform="translate(-61.99 -105.58)"/><path d="M67.1,268.7c7.7,6.3,22.2,4.4,31.4,4.3,6-.1,12.2.3,18.2-.3,5.5-.6,11-2.8,16.3-4.3.7-.2.4-1.4-.3-1.2-5.7,1.6-11.6,4-17.5,4.4s-11.8.2-17.6.2c-5.2.1-10.5.2-15.7-.2a46.79,46.79,0,0,1-9.8-1.7c-1.8-.6-3.6-1.6-5.5-1.9a.68.68,0,0,0-.6.4c0,.1-.1.2-.1.3a.48.48,0,0,0,.2.6l.2.2c.5.5,1.4-.3.8-.8Z" transform="translate(-61.99 -105.58)"/><path d="M137.1,285.4c-7.8,1.5-16.4,3.6-23.6,7-5.5,2.5-8.6,7-10.1,12.8-.2.7,1,1.1,1.2.3,2-7.9,7.2-11.4,14.6-13.9a129.13,129.13,0,0,1,18.2-5,.62.62,0,0,0-.3-1.2Z" transform="translate(-61.99 -105.58)"/><path d="M137.7,286.3c.9-6.3-1.9-12.7-3.6-18.7-.2-.7-1.4-.4-1.2.3,1.6,5.6,4.4,12.2,3.6,18.1-.1.8,1.1,1.1,1.2.3Z" transform="translate(-61.99 -105.58)"/></svg>