<svg id="Layer_1" data-name="Layer 1" xmlns="http://www.w3.org/2000/svg" viewBox="0 0 88.22 41.99"><defs><style>.cls-1{fill:#002ce3;}.cls-2{fill:#0052e3;}.cls-3{fill:#0087e3;}</style></defs><title>Boots</title><path class="cls-1" d="M82.6,562.5c-.2-1-.5-2-.7-3-.3-1.3-1.9-1-2.3,0a9.35,9.35,0,0,0-.7,2.2l2.4.3c.1-.6.1-1.2.2-1.8.2-1.3-2.1-1.6-2.4-.3-.1.3-.1.5-.2.8l2.2-.3c-.2-.4-.3-.8-.5-1.3-.3-1.4-2.3-1-2.4.3v.8h2.4c.1-2.9,0-5.7-.1-8.6-.1-1.3-2.1-1.7-2.4-.3l-.6,3.6,2.4.3c-.3-5.4-.6-10.8-1-16.3-.6.3-1.2.7-1.8,1,4,2,9.1-.1,13.2,1.1a1.2,1.2,0,0,0,1.5-1.2v-.6c-.1-1.5-2.5-1.5-2.4,0v.6l1.5-1.2c-2.5-.7-4.8.1-7.3-.4-.9-.2-4.7-.2-5.3-.4-.8-.4-1.9.1-1.8,1,.3,5.4.6,10.8,1,16.3.1,1.3,2.1,1.7,2.4.3l.6-3.6-2.4-.3c.1,2.9.2,5.7.1,8.6a1.2,1.2,0,0,0,2.4,0v-.8l-2.4.3a4,4,0,0,0,.7,1.8,1.22,1.22,0,0,0,2.2-.3c.1-.3.1-.5.2-.8l-2.4-.3c-.1.6-.1,1.2-.2,1.8-.2,1.3,2.1,1.6,2.4.3a8.08,8.08,0,0,1,.7-2.2H79.5c.2,1,.5,2,.7,3a1.22,1.22,0,1,0,2.4-.4Z" transform="translate(-55.74 -532.79)"/><path class="cls-1" d="M89.5,538.6a.35.35,0,0,0-.1-.2,1.17,1.17,0,1,0-2,1.2.35.35,0,0,0,.1.2,1.16,1.16,0,0,0,1.6.4,1.14,1.14,0,0,0,.4-1.6Z" transform="translate(-55.74 -532.79)"/><path class="cls-1" d="M82.8,539.3c-.1-.4-.2-.7-.3-1.1a1.2,1.2,0,0,0-2.3.7c.1.4.2.7.3,1.1a1.2,1.2,0,0,0,1.5.8,1.35,1.35,0,0,0,.8-1.5Z" transform="translate(-55.74 -532.79)"/><path class="cls-1" d="M83.7,560.8a55.88,55.88,0,0,1-.8-5.9l-2.4.3a44.42,44.42,0,0,1,.4,6.3h2.4c-.4-3.2-.7-6.4-1.1-9.6l-2.4.3a24.26,24.26,0,0,1,.2,7.1h2.4a31.93,31.93,0,0,1,.1-6.9l-2.4-.3a6.7,6.7,0,0,1,0,2l2.4-.3A111.89,111.89,0,0,1,80.9,541l-1.5,1.2a77.39,77.39,0,0,0,10.8.9,1.23,1.23,0,0,0,.3-2.4c-2-.6-4-1.1-6-1.7a1.19,1.19,0,0,0-.6,2.3c3.5,1,1.5,4.1.5,6.7s-2,5.2-3,7.9l2.3.6c1-4.4,2.3-8.7,1.9-13.3a1.23,1.23,0,0,0-2.4-.3c-.9,2.5-1.8,4.9-2.7,7.4h2.3a16.27,16.27,0,0,1,.5-7.3l-2.4-.3a21.68,21.68,0,0,1-.5,6.2l2.2-.3a6.26,6.26,0,0,1-.2-6.2H80.1a18.29,18.29,0,0,1,.5,6.6c-.2,1.3,2.1,1.7,2.4.3a15.06,15.06,0,0,1,3.2-7.3c-.7-.3-1.4-.6-2-.8a16.49,16.49,0,0,1-1,8.2l2.3.6a25.82,25.82,0,0,1,1.8-5.8l-2.2-.6a38.44,38.44,0,0,1-.8,7.6,1.19,1.19,0,0,0,2.3.6q1.2-4.2,2.7-8.4l-2.4-.3a39.59,39.59,0,0,1-1.2,8.3l2.3.6c.6-2.8,1.4-5.5,2.2-8.3l-2.4-.3c-.2,1.4-.3,2.8-.5,4.2s2.1,1.6,2.4.3.6-2.8.9-4.3l-2.3-.6c-.3,1.7-.6,3.4-.8,5.2-.2,1.5,1.9,2.2,2.3.6.6-2.5,1.2-5.1,1.8-7.6l-2.4-.3c-.4,3.8-.8,7.7-1.3,11.5-.1,1.3,2.1,1.6,2.4.3a56.22,56.22,0,0,0,.9-5.7H88.8a25.28,25.28,0,0,1,0,5.5h2.4c0-3,0-6.1.2-9.1H89c-.1,6.9,0,13.7.5,20.6l2.4-.3a39.67,39.67,0,0,1-1.8-9.6,1.23,1.23,0,0,0-2.4-.3l-1.8,6.6a14.61,14.61,0,0,1,2-.5c-.8-.8-.6-4.8-.6-6s-2.1-1.7-2.4-.3c-.5,2.5-1.1,5.1-1.6,7.6a14.61,14.61,0,0,1,2-.5c-.8-.7.6-4.9.9-6l-2.3-.6a23.77,23.77,0,0,1-1.5,5.2l2.4.3a7.87,7.87,0,0,1,.4-4.3l-2.3-.6c-.4,1.5-.8,2.9-1.3,4.4l2.3.6a49.14,49.14,0,0,1,1.7-6.6l-2.4-.3a25.89,25.89,0,0,1-2.1,7.2c1.1.3,1.9.6,2.6.8a22.55,22.55,0,0,1,3.7-8.2l-2.2-.6a50,50,0,0,1-.8,8.6l2.3.6a45.35,45.35,0,0,1,2.2-8.8l-2.4-.3a71.43,71.43,0,0,1-.4,8h2.4a19.91,19.91,0,0,1,1-6.4l-2.4-.3a34.09,34.09,0,0,1-.2,7.8l2.4-.3a9.93,9.93,0,0,1-.2-5.4l-2.4-.3a59.89,59.89,0,0,1,.2,11.2c-.1,1.5,2.3,1.5,2.4,0a59.89,59.89,0,0,0-.2-11.2c-.1-1.2-2.1-1.8-2.4-.3a15.17,15.17,0,0,0,.2,6.7c.4,1.4,2.2.9,2.4-.3a40.48,40.48,0,0,0,.2-7.8,1.23,1.23,0,0,0-2.4-.3,20.92,20.92,0,0,0-1.1,7,1.2,1.2,0,0,0,2.4,0c.2-2.7.4-5.3.4-8,0-1.4-1.9-1.5-2.4-.3a45.35,45.35,0,0,0-2.2,8.8c-.2,1.5,2,2.2,2.3.6a47.81,47.81,0,0,0,.9-9.2,1.19,1.19,0,0,0-2.2-.6,23.93,23.93,0,0,0-4,8.9c-.3,1.3,1.6,2.2,2.2.9a27,27,0,0,0,2.4-8.4c.2-1.4-1.9-1.5-2.4-.3a49.14,49.14,0,0,0-1.7,6.6,1.19,1.19,0,0,0,2.3.6,36.62,36.62,0,0,0,1.3-4.4,1.19,1.19,0,0,0-2.3-.6,11.58,11.58,0,0,0-.5,4.9,1.23,1.23,0,0,0,2.4.3,23.77,23.77,0,0,0,1.5-5.2c.2-1.5-1.9-2.2-2.3-.6-.5,2-2.3,6.7-.2,8.4.6.5,1.8.4,2-.5.5-2.5,1.1-5.1,1.6-7.6l-2.4-.3c.1,2.5-.6,5.8,1.3,7.7a1.25,1.25,0,0,0,2-.5l1.8-6.6-2.4-.3a50.92,50.92,0,0,0,1.9,10.2c.4,1.2,2.4,1.1,2.4-.3-.4-6.9-.6-13.7-.5-20.6a1.2,1.2,0,0,0-2.4,0c-.1,3-.2,6.1-.2,9.1a1.2,1.2,0,0,0,2.4,0,50.45,50.45,0,0,0,0-5.5,1.2,1.2,0,0,0-2.4,0,30,30,0,0,1-.8,5.1l2.4.3c.4-3.8.8-7.7,1.3-11.5.1-1.4-2-1.6-2.4-.3-.6,2.5-1.2,5.1-1.8,7.6l2.3.6c.3-1.7.6-3.4.8-5.2.2-1.5-2-2.2-2.3-.6-.3,1.4-.6,2.8-.9,4.3l2.4.3c.2-1.4.3-2.8.5-4.2s-2-1.6-2.4-.3c-.8,2.7-1.5,5.5-2.2,8.3-.3,1.5,2,2.1,2.3.6a54.6,54.6,0,0,0,1.3-8.9c.1-1.4-1.9-1.5-2.4-.3-1,2.8-1.9,5.5-2.7,8.4l2.3.6a38.14,38.14,0,0,0,.9-8.2c0-1.1-1.8-1.7-2.2-.6a35.47,35.47,0,0,0-2,6.3,1.19,1.19,0,0,0,2.3.6,19.22,19.22,0,0,0,1.1-8.9c-.1-.9-1.3-1.8-2-.8A16.55,16.55,0,0,0,81,549l2.4.3a20,20,0,0,0-.5-7.3c-.3-1.2-1.9-1-2.3,0a8.69,8.69,0,0,0,.4,8,1.22,1.22,0,0,0,2.2-.3,26.48,26.48,0,0,0,.6-6.9,1.23,1.23,0,0,0-2.4-.3,19.3,19.3,0,0,0-.5,8.6c.2,1.3,2,1,2.3,0,.9-2.5,1.8-4.9,2.7-7.4l-2.4-.3c.3,4.3-.9,8.5-1.8,12.6a1.19,1.19,0,0,0,2.3.6c1.8-4.6,5.1-10.2,5.5-15.1a1.33,1.33,0,0,0-.6-1,14.2,14.2,0,0,0-4.1-1.4c-.2.8-.4,1.5-.6,2.3,2,.6,4,1.1,6,1.7l.3-2.4a57.32,57.32,0,0,1-10.1-.8c-.7-.1-1.6.3-1.5,1.2a103.5,103.5,0,0,0,1.6,13.5c.3,1.4,2.2.9,2.4-.3a4.5,4.5,0,0,0,0-2c-.1-1.2-2.1-1.8-2.4-.3a26.84,26.84,0,0,0-.2,7.5,1.2,1.2,0,0,0,2.4,0,29.17,29.17,0,0,0-.3-7.8c-.2-1.3-2.5-1-2.4.3.4,3.2.7,6.4,1.1,9.6.2,1.5,2.4,1.6,2.4,0a40,40,0,0,0-.4-6.9c-.2-1.3-2.5-1-2.4.3.2,2.2.4,4.3.8,6.5.2,1.5,2.5.8,2.2-.7Z" transform="translate(-55.74 -532.79)"/><path class="cls-1" d="M57.3,565.1c-2.7,1.7.2,4.6,1.9,5.9,4.5,3.5,10.4,3.4,15.6,1.9-.3-.7-.6-1.5-.9-2.2-.7.3-1.3.6-2,.9-1.5.2-1.5,2.6,0,2.4a53,53,0,0,0,15.2-3.8c3-1.3,4.4-2.4,3-5.7a1.19,1.19,0,0,0-2.3.6c.2.9.3,1.9.5,2.8a1.2,1.2,0,0,0,2.3,0c.1-.7.3-1.5.4-2.2H88.7l.6,2.7c.3,1.4,2.3,1,2.4-.3,0-.9.1-1.7.1-2.6l-2.2.6c.2.6.4,1.2.6,1.9l2.3-.6a9.36,9.36,0,0,0-.4-1.6,1.19,1.19,0,0,0-2.3.6c.1.9.9,3.4.2,4.3l-2.3.4,1.5,1.2c.1-1.2.1-2.3.2-3.5-.7.3-1.4.6-2,.8l.6,1.2c.3,1,2.1,1.2,2.3,0,.1-.5.2-1,.3-1.4H88.3a8.8,8.8,0,0,1,.5,1.5c.5,1.4,2.7.9,2.3-.6a41.78,41.78,0,0,0-3.6-8.8,1.2,1.2,0,0,0-2.2.9c.4,1.6,1.1,4.4-1.6,4-2-.3-1.5-2.1-1.5-3.6L80.7,564c-.1,0,3.3.7,3.1.4,1.4,1.3-.4,1-1.2,1l1.2,1.5c-1.3-1.9-2.5-2.4-3.6-1.4a7.45,7.45,0,0,0,1.1-4.8,1.29,1.29,0,0,0-1.5-1.2c-5,1-3.4,9.2-1.1,12.1l1.7-1.7a5.06,5.06,0,0,1-1.2-6.5c.5-1-.3-1.9-1.4-1.8-5.5.8-11.1,1.6-16.6,2.5-2,.3-4.2.4-3.9,2.9.2,2,3.6,3.4,5.2,4.1,4.4,1.8,9.4,1.6,14.1,1.4a1.25,1.25,0,0,0,1.2-1.5c-.7-2.2.1-5.9-2.4-6.9-4.2-1.8-9.9,2.4-14.2,1.7a1.2,1.2,0,0,0-.9,2.2,16.93,16.93,0,0,0,9.5,3.2c1.8.1,4.5.7,5.6-1.1a3.5,3.5,0,0,0-.9-4.1c-2.2-1.5-7.4.3-10,.3-1.4,0-1.5,1.9-.3,2.4,2.9,1.2,5.7.6,8.7,1.3l.3-2.4c-1-.1-2.1-.3-3.1-.4v2.4c2-.1,4.1-.1,6.1,0a1.2,1.2,0,0,0,0-2.4H70.1a1.2,1.2,0,0,0,0,2.4c1,.1,2.1.3,3.1.4,1.3.2,1.6-2,.3-2.4-2.9-.7-6-.1-8.7-1.3l-.3,2.4c.9,0,7.8-.2,7.5.2-.5.6-5.5-.6-5.6-.6a14.92,14.92,0,0,1-4.9-2.4c-.3.7-.6,1.5-.9,2.2,3.1.6,5.2-.3,8.2-1,.8-.2,5.1-1.4,5.8-.6.4.4.7,4.6.9,5.2l1.2-1.5a43,43,0,0,1-8.8-.2,17.42,17.42,0,0,1-5.5-1.6c-.8-.5-1.5-1-2.3-1.5a1.8,1.8,0,0,1,1-.2c1.7-1.1,6.3-.9,8.3-1.2,3.1-.5,6.1-.9,9.2-1.4-.5-.6-.9-1.2-1.4-1.8-1.6,3.4-1.2,6.7,1.6,9.4,1.1,1.1,2.6-.5,1.7-1.7-.4-.6-2.9-7.5,0-8.1L79,560.7c0,1.8-.5,4.7,1.5,5.7a1.39,1.39,0,0,0,1.5-.2c1.3-1.2,1.7-4.1-.5-4.7-2.6-.7-3.6,2.8-3.5,4.6.4,7.1,8.6,1,4.3-2.8a1.1,1.1,0,0,0-1.2-.3c-2.5.9-4.7,5.5-1.2,6.7,3,1.1,5.1-3.4,2.8-5.3a1.34,1.34,0,0,0-1.5-.2c-2.6,1.3-2.8,7.1.9,6.9,3.2-.2,4-6.3.4-6.7s-4.2,4.6-.9,5.4c3.1.7,5.2-3.8,2.7-5.7a1.27,1.27,0,0,0-1.2,0c-2.6,2,1.1,5.1,3,2.5a1.23,1.23,0,0,0-.2-1.5,2.51,2.51,0,0,0-4.3,1.2,1.2,1.2,0,0,0,1.2,1.5c3.6.2,5.9-.6,4.1-5.1a1.29,1.29,0,0,0-1.2-.9,14.87,14.87,0,0,1-4.2-.1,1.2,1.2,0,0,0-1.5,1.2c-.2,7,1.5,6.3,7.9,5.5a1.29,1.29,0,0,0,.9-1.2,33,33,0,0,0-1-5.3c-.7.3-1.5.6-2.2.9a39.07,39.07,0,0,1,3.3,8.2l2.3-.6a8.8,8.8,0,0,1-.5-1.5c-.4-1-2.1-1.3-2.3,0-.1.5-.2,1-.3,1.4h2.3a5.29,5.29,0,0,0-1.3-2.3c-.7-.9-2-.1-2,.8-.1,1.2-.1,2.3-.2,3.5a1.29,1.29,0,0,0,1.5,1.2c1.6-.6,3.3.1,4.4-1.5.9-1.4-.3-4.7-.5-6.1l-2.3.6a9.36,9.36,0,0,0,.4,1.6,1.19,1.19,0,0,0,2.3-.6,9.68,9.68,0,0,0-.8-2.4c-.5-1.2-2.2-.5-2.2.6,0,.9-.1,1.7-.1,2.6L92,568l-.6-2.7c-.3-1.1-2.1-1.2-2.3,0-.1.7-.3,1.5-.4,2.2H91c-.2-.9-.3-1.9-.5-2.8l-2.3.6c1.7,4.1-13.1,6.1-15.9,6.5v2.4c1.8-.2,1.7-.1,3.2-1.2a1.2,1.2,0,0,0-.9-2.2,17.11,17.11,0,0,1-8.4.6,8.37,8.37,0,0,1-4-1.4,20.79,20.79,0,0,1-3.2-2.7c.8-.9-.4-3-1.7-2.2Z" transform="translate(-55.74 -532.79)"/><path class="cls-1" d="M77.2,565.2a4.28,4.28,0,0,1-1.6-1.4c-.4.7-.8,1.3-1.2,2,2.2.9,2.7,3.5.4,4.7-1,.5-.6,1.8.3,2.2,1.4.5,3.3-.6,4.6-1.2,2.4-1.1,4.7-2.3,7.3-2.6,1.5-.2,1.5-2.6,0-2.4a16.13,16.13,0,0,0-5.3,1.5c-1.2.5-4.7,2.9-5.9,2.4.1.7.2,1.5.3,2.2,2-1.1,3.3-2.5,2.8-4.9a5.76,5.76,0,0,0-3.8-4.2c-1.2-.5-1.8,1.2-1.2,2a7.41,7.41,0,0,0,2.1,1.8c1.3.8,2.5-1.3,1.2-2.1Z" transform="translate(-55.74 -532.79)"/><path class="cls-1" d="M59.8,565.3a3.89,3.89,0,0,1,2.3-1.5,10.43,10.43,0,0,1,2.5-.8,23.25,23.25,0,0,1,5.3-.5,79.28,79.28,0,0,1,8.4.7c-.2-.7-.4-1.5-.6-2.2-1.9,1.1-5.9.6-8.1.8-2.5.2-5,.3-7.5.5-1.5.1-1.5,2.5,0,2.4,3.5-.2,7-.5,10.5-.7,2-.1,4.5.1,6.4-.9a1.19,1.19,0,0,0-.6-2.2c-6-.7-12.2-1.4-17.9,1.1-2.5,1.1-5.5,4.6-1.2,5.7,1.4.4,2-2,.5-2.4Z" transform="translate(-55.74 -532.79)"/><path class="cls-2" d="M82.2,534.4a10.75,10.75,0,0,1-3.1-.1v2.4l4.9.3c1.5.1,1.5-2.3,0-2.4l-4.9-.3c-1.6-.1-1.5,2.2,0,2.4,1,.1,2.1.1,3.1.1,1.6-.1,1.6-2.5,0-2.4Z" transform="translate(-55.74 -532.79)"/><path class="cls-3" d="M80.6,534.7c-.8,0-1.5-.1-2.3-.1a1.19,1.19,0,0,0-.6,2.3,5.73,5.73,0,0,0,1.4.4l.3-2.4c-.2,1,.1,1.4,1.1,1.2a15.71,15.71,0,0,1,2.3.4l2.6.3a19.82,19.82,0,0,0,6.4-.9l-1.5-1.2a4.06,4.06,0,0,1-.4,1.9,10.93,10.93,0,0,1,1.5-.8,8.21,8.21,0,0,0-3.8-.3c-1.5.1-3-.3-4.5-.2a1.19,1.19,0,0,0-.6,2.2,3.89,3.89,0,0,0,3.3.5,1.19,1.19,0,0,0-.6-2.3l-1.5-.3c-.2.7-.4,1.5-.6,2.2,1.3,0,2.5.4,3.7.3a9,9,0,0,1,4,.1,1.35,1.35,0,0,0,1.5-.8,7.83,7.83,0,0,0,.4-2.6,1.24,1.24,0,0,0-1.5-1.2,19.22,19.22,0,0,1-8.6.5c-1.3-.2-3.5-.8-4.7-.1-1.9,1.2-.4,3.6,1.5,3.5,1.3-.1,1.7-2.1.3-2.4a3.26,3.26,0,0,1-1.4-.4c-.2.8-.4,1.5-.6,2.3a8.74,8.74,0,0,0,3.6.1c1.4-.1.8-2.4-.7-2.2Z" transform="translate(-55.74 -532.79)"/><path class="cls-3" d="M77.1,535.2a1.57,1.57,0,0,0,.8,2.6,3.81,3.81,0,0,0,1.8-.3c.6-.1,1.2-.3,1.8-.4a1.19,1.19,0,0,0-.6-2.3l-1.4.3c-.2.1-.4.1-.6.2a.37.37,0,0,0-.3.1c-.3,0-.3.1-.1.1l.4.4v.6a2.18,2.18,0,0,1-.3.5.1.1,0,0,1,.1-.1,1.24,1.24,0,0,0,0-1.7,1,1,0,0,0-1.6,0Z" transform="translate(-55.74 -532.79)"/><path class="cls-1" d="M90.7,564.1c0-.2-.1-.4-.1-.6l-2.4.3c.1.4.3.8.4,1.2.7-.3,1.5-.6,2.2-.9a6.89,6.89,0,0,1-.3-.8l-2.2.6a1.88,1.88,0,0,1,.2.8c.7-.3,1.5-.6,2.2-.9,0,.2.1.2.1,0,.1-.6-.6-1.2-1.2-1.2a1.29,1.29,0,0,0-1.2,1.2,2.66,2.66,0,0,0,.3,1.2,1.24,1.24,0,0,0,1.5.5,1.22,1.22,0,0,0,.7-1.4c-.1-.5-.3-.9-.4-1.3-.5-1.1-2.4-.6-2.2.6a4.66,4.66,0,0,0,.6,2,1.2,1.2,0,0,0,2.2-.9c-.1-.4-.3-.8-.4-1.2a1.19,1.19,0,0,0-1.3-.9c-.5.1-1.1.6-1,1.2,0,.2.1.4.1.6a1.29,1.29,0,0,0,1.2,1.2,1.31,1.31,0,0,0,1-1.3Z" transform="translate(-55.74 -532.79)"/><path class="cls-1" d="M89.8,540.4c-.1,1.4-.3,2.8-.4,4.3s1.9,1.5,2.4.3a22.27,22.27,0,0,0,1.2-5.1c.2-1.5-2.2-1.5-2.4,0a21.81,21.81,0,0,1-1.1,4.4l2.4.3c.1-1.4.3-2.8.4-4.3s-2.3-1.5-2.5.1Z" transform="translate(-55.74 -532.79)"/><path d="M57.6,571.1c7.7,6.2,21,2.5,29.4.2.7-.2.4-1.4-.3-1.2-8,2.1-20.9,6-28.2.1-.7-.4-1.5.4-.9.9Z" transform="translate(-55.74 -532.79)"/><path d="M86.1,571c.1.9-.2,2.7.9,3.1a2.56,2.56,0,0,0,1.5,0l2.1-.3c.8-.1.8-1.3,0-1.2l-2.6.3c-.5.1-.6.1-.7-.4a7.57,7.57,0,0,1-.1-1.5c.1-.8-1.1-.8-1.1,0Z" transform="translate(-55.74 -532.79)"/><path d="M58.8,570.5c-3.2-2.6-1.5-6.8,1.6-8.5,2.5-1.3,5.4-1.3,8.1-1.3,3.4-.1,6.8.1,10.1.3a.6.6,0,0,0,0-1.2c-5.9-.4-14.9-1.9-20,2-3.2,2.4-4.1,6.9-.7,9.6.6.4,1.5-.4.9-.9Z" transform="translate(-55.74 -532.79)"/><path d="M78.6,560.1q-1.2-13.2-1.5-26.4a.6.6,0,0,0-1.2,0q.15,13.2,1.5,26.4c.1.8,1.3.8,1.2,0Z" transform="translate(-55.74 -532.79)"/><path d="M91.1,572.3H91a.6.6,0,0,0,0,1.2h.1a.6.6,0,0,0,0-1.2Z" transform="translate(-55.74 -532.79)"/><path d="M90.8,574c1-.3,1.9-.1,2.5-1s-.2-3.7-.2-4.7c-.2-2.2-.3-4.5-.3-6.7-.3-9.3.3-18.5.9-27.8a.6.6,0,0,0-1.2,0c-.4,7.3-.9,14.7-.9,22q0,5.25.3,10.5c.2,2.6,1.6,5.6-1.3,6.5a.61.61,0,1,0,.2,1.2Z" transform="translate(-55.74 -532.79)"/><path d="M76.9,534.7c2.9-.7,5.7-.3,8.6-.2,2.6.1,5.1-.6,7.7-.5a.6.6,0,0,0,0-1.2c-3-.1-5.9.6-8.9.4a24.91,24.91,0,0,0-7.7.3c-.7.2-.4,1.4.3,1.2Z" transform="translate(-55.74 -532.79)"/><path d="M76.4,537.2a2,2,0,0,0,3,1c.6-.4,0-1.5-.6-1a.77.77,0,0,1-1.2-.3.62.62,0,1,0-1.2.3Z" transform="translate(-55.74 -532.79)"/><path d="M79.2,537.9a2.72,2.72,0,0,0,3,.1.58.58,0,1,0-.6-1,1.68,1.68,0,0,1-1.8-.1c-.6-.5-1.2.5-.6,1Z" transform="translate(-55.74 -532.79)"/><path d="M82.1,538.3a2.51,2.51,0,0,0,3.5.3c.6-.5-.3-1.3-.8-.8a1.4,1.4,0,0,1-1.8-.3c-.6-.7-1.4.2-.9.8Z" transform="translate(-55.74 -532.79)"/><path d="M85.5,538.9a4,4,0,0,0,3-.6c.6-.4,0-1.5-.6-1a2.88,2.88,0,0,1-2,.5c-.9-.2-1.2.9-.4,1.1Z" transform="translate(-55.74 -532.79)"/><path d="M88.2,538.2a3.9,3.9,0,0,0,3,.5c.8-.2.4-1.3-.3-1.2a3.19,3.19,0,0,1-2.1-.4c-.7-.4-1.3.7-.6,1.1Z" transform="translate(-55.74 -532.79)"/><path d="M91.4,538.9a1.28,1.28,0,0,0,1-.4c.6-.5-.3-1.4-.8-.8,0,.1-.1.1-.2.1-.8-.1-.8,1.1,0,1.1Z" transform="translate(-55.74 -532.79)"/><path d="M79.1,546a.6.6,0,0,0,0-1.2c-.7,0-.7,1.2,0,1.2Z" transform="translate(-55.74 -532.79)"/><path d="M78.7,549.2c.1.1.2.2.3.2.5.5,1.4-.3.8-.8-.1-.1-.2-.2-.3-.2a.57.57,0,1,0-.8.8Z" transform="translate(-55.74 -532.79)"/><path d="M79.8,553.9h-.5c-.1-.1-.1-.3-.2-.4v.1c.1.8,1.3.8,1.2,0a.8.8,0,0,0-1.4-.5c-.4.6.4,1.4.9.8Z" transform="translate(-55.74 -532.79)"/><path d="M67.1,561a3.41,3.41,0,0,0,1.3,2.8c.6.5,1.4-.4.8-.8a2.46,2.46,0,0,1-.9-1.9.6.6,0,1,0-1.2-.1Z" transform="translate(-55.74 -532.79)"/><path d="M70.4,560.8a4.16,4.16,0,0,0,1.8,3c.6.4,1.2-.6.6-1a2.65,2.65,0,0,1-1.2-2c-.1-.8-1.3-.8-1.2,0Z" transform="translate(-55.74 -532.79)"/><path d="M74,560.9a3,3,0,0,0,1.6,2.9c.7.4,1.3-.7.6-1a1.83,1.83,0,0,1-1-1.8.6.6,0,1,0-1.2-.1Z" transform="translate(-55.74 -532.79)"/><path class="cls-1" d="M119.5,563.3c.2-1,.5-2,.7-3h-2.3a9.35,9.35,0,0,1,.7,2.2c.3,1.3,2.5,1,2.4-.3-.1-.6-.1-1.2-.2-1.8l-2.4.3c.1.3.1.5.2.8a1.24,1.24,0,0,0,2.2.3,4,4,0,0,0,.7-1.8l-2.4-.3v.8a1.2,1.2,0,0,0,2.4,0c-.1-2.9,0-5.7.1-8.6l-2.4.3.6,3.6c.2,1.4,2.3,1,2.4-.3.3-5.4.6-10.8,1-16.3.1-1-1-1.4-1.8-1s-4.4.3-5.3.4c-2.5.5-4.8-.3-7.3.4l1.5,1.2v-.6c.1-1.5-2.3-1.5-2.4,0v.6a1.2,1.2,0,0,0,1.5,1.2c4.1-1.2,9.2.9,13.2-1.1-.6-.3-1.2-.7-1.8-1-.3,5.4-.6,10.8-1,16.3l2.4-.3-.6-3.6c-.2-1.4-2.3-1-2.4.3-.1,2.9-.2,5.7-.1,8.6h2.4v-.8c-.1-1.3-2.1-1.7-2.4-.3-.2.4-.3.8-.5,1.3l2.2.3c-.1-.3-.1-.5-.2-.8-.3-1.3-2.5-1-2.4.3.1.6.1,1.2.2,1.8l2.4-.3a8.08,8.08,0,0,0-.7-2.2c-.4-1-2-1.3-2.3,0-.2,1-.5,2-.7,3-.2,1.3,2.1,1.9,2.4.4Z" transform="translate(-55.74 -532.79)"/><path class="cls-1" d="M112.3,540.1a.35.35,0,0,1,.1-.2,1.14,1.14,0,0,0-.4-1.6,1.25,1.25,0,0,0-1.6.4.35.35,0,0,1-.1.2,1.14,1.14,0,0,0,.4,1.6,1.25,1.25,0,0,0,1.6-.4Z" transform="translate(-55.74 -532.79)"/><path class="cls-1" d="M119.3,540.1c.1-.4.2-.7.3-1.1a1.35,1.35,0,0,0-.8-1.5,1.24,1.24,0,0,0-1.5.8c-.1.4-.2.7-.3,1.1a1.35,1.35,0,0,0,.8,1.5,1.07,1.07,0,0,0,1.5-.8Z" transform="translate(-55.74 -532.79)"/><path class="cls-1" d="M118.4,561.7a48.07,48.07,0,0,0,.8-6.5c.1-1.3-2.2-1.7-2.4-.3a40,40,0,0,0-.4,6.9c0,1.6,2.2,1.5,2.4,0,.4-3.2.7-6.4,1.1-9.6a1.23,1.23,0,0,0-2.4-.3,29,29,0,0,0-.3,7.8,1.2,1.2,0,0,0,2.4,0,26.84,26.84,0,0,0-.2-7.5c-.2-1.4-2.2-.9-2.4.3a6.7,6.7,0,0,0,0,2c.1,1.2,2.1,1.8,2.4.3a87.28,87.28,0,0,0,1.6-13.5,1.24,1.24,0,0,0-1.5-1.2,68.74,68.74,0,0,1-10.1.8l.3,2.4c2-.6,4-1.1,6-1.7-.2-.8-.4-1.5-.6-2.3a19.85,19.85,0,0,0-4.1,1.4,1.33,1.33,0,0,0-.6,1c.4,4.9,3.7,10.5,5.5,15.1.5,1.4,2.7.9,2.3-.6-.9-4.2-2.2-8.3-1.8-12.6l-2.4.3c.9,2.5,1.8,4.9,2.7,7.4.4,1,2.1,1.3,2.3,0a19.3,19.3,0,0,0-.5-8.6,1.24,1.24,0,0,0-2.4.3,22.78,22.78,0,0,0,.6,6.9,1.22,1.22,0,0,0,2.2.3,8.71,8.71,0,0,0,.4-8c-.4-1-2-1.2-2.3,0a16.37,16.37,0,0,0-.5,7.3l2.4-.3a17.43,17.43,0,0,0-3.8-8.4c-.7-.9-1.9-.1-2,.8a16.93,16.93,0,0,0,1.1,8.9,1.19,1.19,0,0,0,2.3-.6,33,33,0,0,0-2-6.3c-.5-1.1-2.2-.5-2.2.6a37.46,37.46,0,0,0,.9,8.2l2.3-.6q-1.2-4.2-2.7-8.4c-.4-1.2-2.4-1.1-2.4.3a44.46,44.46,0,0,0,1.3,8.9,1.19,1.19,0,0,0,2.3-.6c-.6-2.8-1.4-5.5-2.2-8.3-.4-1.2-2.5-1.1-2.4.3s.3,2.8.5,4.2l2.4-.3c-.3-1.4-.6-2.8-.9-4.3s-2.6-.9-2.3.6c.3,1.7.6,3.4.8,5.2l2.3-.6c-.6-2.5-1.2-5.1-1.8-7.6-.3-1.3-2.5-1-2.4.3.4,3.8.8,7.7,1.3,11.5l2.4-.3a30,30,0,0,1-.8-5.1,1.2,1.2,0,0,0-2.4,0,25.28,25.28,0,0,0,0,5.5,1.2,1.2,0,0,0,2.4,0c0-3,0-6.1-.2-9.1a1.2,1.2,0,0,0-2.4,0c.1,6.9,0,13.7-.5,20.6-.1,1.4,2,1.6,2.4.3a50.92,50.92,0,0,0,1.9-10.2l-2.4.3,1.8,6.6a1.17,1.17,0,0,0,2,.5c1.9-1.9,1.2-5.2,1.3-7.7l-2.4.3c.5,2.5,1.1,5.1,1.6,7.6a1.17,1.17,0,0,0,2,.5c2-1.7.3-6.3-.2-8.4a1.19,1.19,0,0,0-2.3.6,23.77,23.77,0,0,0,1.5,5.2,1.23,1.23,0,0,0,2.4-.3,11.41,11.41,0,0,0-.5-4.9,1.19,1.19,0,0,0-2.3.6c.4,1.5.8,2.9,1.3,4.4a1.19,1.19,0,0,0,2.3-.6,49.14,49.14,0,0,0-1.7-6.6c-.4-1.2-2.5-1.1-2.4.3a30,30,0,0,0,2.4,8.4c.6,1.3,2.5.3,2.2-.9a22.44,22.44,0,0,0-4-8.9,1.18,1.18,0,0,0-2.2.6,47.81,47.81,0,0,0,.9,9.2c.3,1.5,2.6.9,2.3-.6a45.35,45.35,0,0,0-2.2-8.8c-.5-1.2-2.4-1.1-2.4.3a71.43,71.43,0,0,0,.4,8,1.2,1.2,0,0,0,2.4,0,20.53,20.53,0,0,0-1.1-7,1.24,1.24,0,0,0-2.4.3,34.09,34.09,0,0,0,.2,7.8c.2,1.2,2,1.7,2.4.3a15.17,15.17,0,0,0,.2-6.7c-.2-1.4-2.2-.9-2.4.3a59.89,59.89,0,0,0-.2,11.2c.1,1.5,2.5,1.5,2.4,0a59.89,59.89,0,0,1,.2-11.2l-2.4.3a9.93,9.93,0,0,1-.2,5.4l2.4.3a40.48,40.48,0,0,1-.2-7.8l-2.4.3a19.91,19.91,0,0,1,1,6.4h2.4c-.2-2.7-.4-5.3-.4-8l-2.4.3a45.35,45.35,0,0,1,2.2,8.8l2.3-.6a41.73,41.73,0,0,1-.8-8.6l-2.2.6a20,20,0,0,1,3.7,8.3c.7-.3,1.5-.6,2.2-.9a20.55,20.55,0,0,1-2.1-7.2l-2.4.3a49.14,49.14,0,0,1,1.7,6.6l2.3-.6a36.62,36.62,0,0,1-1.3-4.4l-2.3.6a7,7,0,0,1,.4,4.3l2.4-.3a23.77,23.77,0,0,1-1.5-5.2l-2.3.6c.3,1.1,1.6,5.4.9,6a14.61,14.61,0,0,0,2,.5c-.5-2.5-1.1-5.1-1.6-7.6-.3-1.4-2.3-1-2.4.3s.2,5.2-.6,6a14.61,14.61,0,0,0,2,.5l-1.8-6.6a1.23,1.23,0,0,0-2.4.3,52.4,52.4,0,0,1-1.8,9.6l2.4.3c.4-6.9.6-13.7.5-20.6h-2.4c.1,3,.2,6.1.2,9.1h2.4a50.45,50.45,0,0,1,0-5.5h-2.4a52.11,52.11,0,0,0,.9,5.7c.3,1.3,2.5,1,2.4-.3-.4-3.8-.8-7.7-1.3-11.5l-2.4.3c.6,2.5,1.2,5.1,1.8,7.6a1.19,1.19,0,0,0,2.3-.6c-.3-1.7-.6-3.4-.8-5.2l-2.3.6c.3,1.4.6,2.8.9,4.3.3,1.3,2.5,1,2.4-.3s-.3-2.8-.5-4.2l-2.4.3c.8,2.7,1.5,5.5,2.2,8.3l2.3-.6a46.14,46.14,0,0,1-1.2-8.3l-2.4.3c1,2.8,1.9,5.5,2.7,8.4a1.19,1.19,0,0,0,2.3-.6,38.44,38.44,0,0,1-.8-7.6l-2.2.6a38.94,38.94,0,0,1,1.8,5.8l2.3-.6a17.71,17.71,0,0,1-1-8.2c-.7.3-1.4.6-2,.8a14.19,14.19,0,0,1,3.2,7.3c.2,1.3,2.5,1,2.4-.3a14.72,14.72,0,0,1,.5-6.6h-2.3a6,6,0,0,1-.2,6.2l2.2.3a22,22,0,0,1-.5-6.2l-2.4.3a16.37,16.37,0,0,1,.5,7.3H119c-.9-2.5-1.8-4.9-2.7-7.4a1.23,1.23,0,0,0-2.4.3c-.3,4.5,1,8.9,1.9,13.3l2.3-.6c-1-2.6-2-5.2-3-7.9-1-2.5-3.1-5.7.5-6.7a1.19,1.19,0,0,0-.6-2.3c-2,.6-4,1.1-6,1.7a1.23,1.23,0,0,0,.3,2.4,65.58,65.58,0,0,0,10.8-.9l-1.5-1.2A78.59,78.59,0,0,1,117,554l2.4.3a4.5,4.5,0,0,1,0-2l-2.4.3a22.81,22.81,0,0,1,.1,6.9h2.4a28.28,28.28,0,0,1,.2-7.1l-2.4-.3c-.4,3.2-.7,6.4-1.1,9.6h2.4a26.71,26.71,0,0,1,.4-6.3l-2.4-.3a39.8,39.8,0,0,1-.8,5.9c0,1.5,2.3,2.2,2.6.7Z" transform="translate(-55.74 -532.79)"/><path class="cls-1" d="M141.3,567.4a26.92,26.92,0,0,1-3.2,2.7,9.59,9.59,0,0,1-4,1.4,18.38,18.38,0,0,1-8.4-.6,1.2,1.2,0,0,0-.9,2.2c1.5,1.1,1.4,1,3.2,1.2v-2.4c-2.9-.3-17.6-2.4-15.9-6.5l-2.3-.6c-.2.9-.3,1.9-.5,2.8h2.3c-.1-.7-.3-1.5-.4-2.2a1.2,1.2,0,0,0-2.3,0l-.6,2.7,2.4.3c0-.9-.1-1.7-.1-2.6-.1-1.1-1.7-1.8-2.2-.6a6.81,6.81,0,0,0-.8,2.4c-.3,1.5,2,2.1,2.3.6a9.36,9.36,0,0,1,.4-1.6L108,566c-.2,1.4-1.5,4.6-.5,6.1s2.8,1,4.4,1.5a1.16,1.16,0,0,0,1.5-1.2c-.1-1.2-.1-2.3-.2-3.5,0-.9-1.3-1.7-2-.8a4.78,4.78,0,0,0-1.3,2.3h2.3c-.1-.5-.2-1-.3-1.4-.2-1.3-2-1-2.3,0a8.8,8.8,0,0,0-.5,1.5l2.3.6a39.08,39.08,0,0,1,3.3-8.2c-.7-.3-1.5-.6-2.2-.9-.4,1.8-.7,3.5-1,5.3a1.18,1.18,0,0,0,.9,1.2c6.4.9,8.1,1.6,7.9-5.5a1.2,1.2,0,0,0-1.5-1.2,14.87,14.87,0,0,1-4.2.1,1.29,1.29,0,0,0-1.2.9c-1.7,4.5.5,5.3,4.1,5.1a1.2,1.2,0,0,0,1.2-1.5,2.52,2.52,0,0,0-4.3-1.2,1.19,1.19,0,0,0-.2,1.5c1.9,2.7,5.7-.4,3-2.5a1.27,1.27,0,0,0-1.2,0c-2.3,1.7-.8,5.9,2.1,5.8,3.8-.1,3.5-5.9-.4-5.5-3.5.4-2.9,6.3.2,6.7,3.7.5,3.8-5.5,1.1-6.8a1.23,1.23,0,0,0-1.5.2c-2.3,1.9-.2,6.4,2.8,5.3,3.5-1.3,1.4-5.8-1.2-6.7a1.1,1.1,0,0,0-1.2.3c-4.3,3.8,3.9,9.9,4.3,2.8.1-1.8-.8-5.3-3.5-4.6-2.2.6-1.8,3.5-.5,4.7a1.37,1.37,0,0,0,1.5.2c2-.9,1.5-3.9,1.5-5.7l-1.5,1.2c2.9.6.5,7.5,0,8.1-.9,1.2.6,2.8,1.7,1.7a7.77,7.77,0,0,0,1.6-9.4c-.5.6-.9,1.2-1.4,1.8l8.3,1.2c2,.3,7.5.2,9.2,1.4,1.3.9,1.4-1-.1,1-1.1,1.4-3.5,1.8-5.2,2.2-3.4.8-6.9.5-10.4.4l1.2,1.5c.3-.9.5-4.6.9-5.2.6-.9,4.8.4,5.8.6,2.9.7,5.2,1.5,8.2,1-.3-.7-.6-1.5-.9-2.2-2.1,1.5-7.9,4.5-10.5,3-1.1-.6,4.5-.4,2.6-.4,1.6,0,3.3.2,4.9.2l-.3-2.4c-2.8,1.2-5.8.6-8.7,1.3-1.3.3-1,2.5.3,2.4,1-.1,2.1-.3,3.1-.4a1.2,1.2,0,0,0,0-2.4c-2-.1-4.1-.1-6.1,0a1.2,1.2,0,0,0,0,2.4H130v-2.4c-1,.1-2.1.3-3.1.4l.3,2.4c3-.7,5.9-.1,8.7-1.3a1.23,1.23,0,0,0-.3-2.4c-2.6,0-7.6-1.7-9.9-.4a3.4,3.4,0,0,0-1,4.2c1,1.6,3.2,1.2,4.9,1.1a18.23,18.23,0,0,0,10.2-3.3,1.21,1.21,0,0,0-.9-2.2c-4.3.8-10-3.4-14.2-1.7-2.5,1-1.6,4.8-2.4,6.9a1.16,1.16,0,0,0,1.2,1.5c4.6.2,9.5.4,13.9-1.4,1.7-.7,5-2.1,5.3-4.1s-1.3-2.4-3-2.7c-5.8-1.2-11.7-1.8-17.5-2.6a1.26,1.26,0,0,0-1.4,1.8,5.06,5.06,0,0,1-1.2,6.5l1.7,1.7c2.3-2.9,3.9-11.1-1.1-12.1a1.16,1.16,0,0,0-1.5,1.2,6.88,6.88,0,0,0,1.1,4.8c-1.1-1-2.4-.5-3.6,1.4l1.2-1.5c-.8,0-2.5.4-1.2-1-.3.3,3.2-.4,3.1-.4l-1.5-1.2c0,1.6.6,3.1-1.5,3.6-2.6.6-1.9-2.5-1.6-4a1.2,1.2,0,0,0-2.2-.9,39.72,39.72,0,0,0-3.6,8.8,1.19,1.19,0,0,0,2.3.6,8.8,8.8,0,0,0,.5-1.5h-2.3c.1.5.2,1,.3,1.4.2,1.2,2,1,2.3,0l.6-1.2c-.7-.3-1.4-.6-2-.8.1,1.2.1,2.3.2,3.5l1.5-1.2c.4.1-2.8-.9-2.3-.4-.8-.8,0-3.4.2-4.3.2-1.5-2-2.2-2.3-.6a9.36,9.36,0,0,1-.4,1.6l2.3.6c.2-.6.4-1.2.6-1.9l-2.2-.6c0,.9.1,1.7.1,2.6a1.23,1.23,0,0,0,2.4.3l.6-2.7H109c.1.7.3,1.5.4,2.2a1.2,1.2,0,0,0,2.3,0c.2-.9.3-1.9.5-2.8a1.19,1.19,0,0,0-2.3-.6c-3.2,7.6,13.7,9,18.2,9.5,1.5.2,1.5-2.2,0-2.4-.7-.3-1.3-.6-2-.9-.3.7-.6,1.5-.9,2.2,5.3,1.4,11.1,1.6,15.6-1.9,1.6-1.3,4.6-4.2,1.9-5.9a1.22,1.22,0,1,0-1.4,2Z" transform="translate(-55.74 -532.79)"/><path class="cls-1" d="M123.8,567.5a8.75,8.75,0,0,0,2.1-1.8c.7-.8.1-2.5-1.2-2a6.15,6.15,0,0,0-3.8,4.2c-.5,2.3.8,3.8,2.8,4.9.1-.7.2-1.5.3-2.2-1.1.4-4.7-1.9-5.9-2.4a16.84,16.84,0,0,0-5.3-1.5c-1.5-.2-1.5,2.2,0,2.4,2.6.3,4.9,1.5,7.3,2.6,1.3.6,3.1,1.8,4.6,1.2a1.22,1.22,0,0,0,.3-2.2c-2.4-1.3-1.7-3.8.4-4.7-.4-.7-.8-1.3-1.2-2a3.64,3.64,0,0,1-1.6,1.4c-1.3.8-.1,2.9,1.2,2.1Z" transform="translate(-55.74 -532.79)"/><path class="cls-1" d="M140.6,567.9c4.2-1.1,1.3-4.6-1.2-5.7-5.6-2.5-11.9-1.9-17.9-1.1-1.1.1-1.8,1.6-.6,2.2,1.8,1,4.4.7,6.4.9,3.5.2,7,.5,10.5.7,1.5.1,1.5-2.3,0-2.4-2.5-.2-5-.3-7.5-.5-2.2-.2-6.2.3-8.1-.8-.2.7-.4,1.5-.6,2.2a79.28,79.28,0,0,1,8.4-.7,23.79,23.79,0,0,1,5.3.5,7.36,7.36,0,0,1,1.4.4,5.79,5.79,0,0,1,3.5,1.9c-1.7.4-1.1,2.8.4,2.4Z" transform="translate(-55.74 -532.79)"/><path class="cls-2" d="M117.6,537a10.75,10.75,0,0,0,3.1-.1c1.5-.2,1.6-2.5,0-2.4l-4.9.3c-1.5.1-1.5,2.5,0,2.4l4.9-.3v-2.4c-1,.1-2.1.1-3.1.1-1.6-.1-1.6,2.3,0,2.4Z" transform="translate(-55.74 -532.79)"/><path class="cls-3" d="M118.6,537.2a8.74,8.74,0,0,0,3.6-.1c-.2-.8-.4-1.5-.6-2.3a5.73,5.73,0,0,1-1.4.4c-1.4.2-1,2.3.3,2.4,1.9.1,3.5-2.3,1.5-3.5-1.2-.7-3.4-.1-4.7.1a19.22,19.22,0,0,1-8.6-.5,1.2,1.2,0,0,0-1.5,1.2,11.7,11.7,0,0,0,.4,2.6,1.13,1.13,0,0,0,1.5.8,9,9,0,0,1,4-.1c1.3.1,2.5-.4,3.7-.3-.2-.7-.4-1.5-.6-2.2l-1.5.3a1.19,1.19,0,0,0-.6,2.3,3.84,3.84,0,0,0,3.3-.5,1.19,1.19,0,0,0-.6-2.2,33.89,33.89,0,0,1-4.5.2,8.11,8.11,0,0,0-3.8.3,10.93,10.93,0,0,0,1.5.8,4.33,4.33,0,0,1-.4-1.9l-1.5,1.2a19.82,19.82,0,0,0,6.4.9,11.53,11.53,0,0,0,2.6-.3c.8-.1,1.6-.3,2.3-.4.9.2,1.3-.1,1.1-1.2l.3,2.4a3.26,3.26,0,0,0,1.4-.4,1.19,1.19,0,0,0-.6-2.3c-.8,0-1.5.1-2.3.1-1.6-.3-2.2,2-.7,2.2Z" transform="translate(-55.74 -532.79)"/><path class="cls-3" d="M121,537.1h0a.76.76,0,0,0-.2-.4v-.6l.4-.4c.2,0,.2-.1.1-.1s-.3-.1-.4-.1-.4-.1-.6-.2l-1.4-.3a1.19,1.19,0,0,0-.6,2.3c.6.1,1.2.3,1.8.4a5.66,5.66,0,0,0,1.8.3,1.53,1.53,0,0,0,.8-2.6,1.2,1.2,0,0,0-1.7,1.7Z" transform="translate(-55.74 -532.79)"/><path class="cls-1" d="M111.5,564.3c0-.2.1-.4.1-.6.1-.6-.5-1.1-1-1.2a1.19,1.19,0,0,0-1.3.9c-.1.4-.3.8-.4,1.2a1.2,1.2,0,0,0,2.2.9,6.64,6.64,0,0,0,.6-2c.1-1.2-1.8-1.7-2.2-.6a3.26,3.26,0,0,0-.4,1.3,1.17,1.17,0,0,0,.7,1.4,1.14,1.14,0,0,0,1.5-.5,2.66,2.66,0,0,0,.3-1.2,1.29,1.29,0,0,0-1.2-1.2c-.6,0-1.3.6-1.2,1.2,0,.2,0,.2.1,0,.7.3,1.5.6,2.2.9a2.35,2.35,0,0,1,.2-.8l-2.2-.6a1.14,1.14,0,0,1-.3.8c.7.3,1.5.6,2.2.9.1-.4.3-.8.4-1.2l-2.4-.3c0,.2-.1.4-.1.6-.1.6.6,1.2,1.2,1.2s.9-.4,1-1.1Z" transform="translate(-55.74 -532.79)"/><path class="cls-1" d="M107.6,540.6c.1,1.4.3,2.8.4,4.3l2.4-.3a21.81,21.81,0,0,1-1.1-4.4c-.2-1.5-2.6-1.5-2.4,0a23.57,23.57,0,0,0,1.2,5.1c.4,1.2,2.5,1.1,2.4-.3s-.3-2.8-.4-4.3c-.3-1.6-2.7-1.7-2.5-.1Z" transform="translate(-55.74 -532.79)"/><path d="M141.4,570.5c-7.3,5.9-20.3,2-28.2-.1-.7-.2-1.1,1-.3,1.2,8.5,2.2,21.7,6,29.4-.2a.64.64,0,0,0-.9-.9Z" transform="translate(-55.74 -532.79)"/><path d="M112.5,571.2c0,.5-.1.9-.1,1.4s-.1.7-.7.6l-2.6-.3c-.8-.1-.8,1.1,0,1.2a13.56,13.56,0,0,0,2,.2,3.27,3.27,0,0,0,1.7,0c1.1-.4.8-2.2.9-3.1a.6.6,0,1,0-1.2,0Z" transform="translate(-55.74 -532.79)"/><path d="M141.8,571.5c3.4-2.7,2.5-7.2-.7-9.6-5.1-3.8-14.1-2.3-20-2a.6.6,0,0,0,0,1.2c3.4-.2,6.8-.3,10.1-.3a17.49,17.49,0,0,1,6.8.9c3.5,1.4,6.9,5.7,2.9,8.9a.64.64,0,0,0,.9.9Z" transform="translate(-55.74 -532.79)"/><path d="M122.4,560.3q1.2-13.2,1.5-26.4a.6.6,0,0,0-1.2,0q-.15,13.2-1.5,26.4c-.1.8,1.1.8,1.2,0Z" transform="translate(-55.74 -532.79)"/><path d="M108.7,573.7h.1a.6.6,0,0,0,0-1.2h-.1a.6.6,0,0,0,0,1.2Z" transform="translate(-55.74 -532.79)"/><path d="M109.3,573c-2.7-.9-1.4-4-1.3-6.5q.3-5.25.3-10.5c0-7.4-.5-14.7-.9-22a.6.6,0,0,0-1.2,0c.6,9.2,1.1,18.5.9,27.8-.1,2.2-.2,4.5-.3,6.7-.1,1.1-.8,3.7-.3,4.6s1.5.8,2.5,1.1c.7.2,1.1-1,.3-1.2Z" transform="translate(-55.74 -532.79)"/><path d="M123.2,533.7a24.91,24.91,0,0,0-7.7-.3c-3,.2-5.9-.6-8.9-.4a.6.6,0,0,0,0,1.2c2.6-.1,5.1.6,7.7.5,2.9-.1,5.7-.5,8.6.2.7.2,1-1,.3-1.2Z" transform="translate(-55.74 -532.79)"/><path d="M122.2,537a.79.79,0,0,1-1.2.3c-.6-.4-1.2.6-.6,1a2,2,0,0,0,3-1c.2-.7-.9-1-1.2-.3Z" transform="translate(-55.74 -532.79)"/><path d="M120,537a1.5,1.5,0,0,1-1.8.1.58.58,0,1,0-.6,1,2.94,2.94,0,0,0,3-.1c.6-.4,0-1.4-.6-1Z" transform="translate(-55.74 -532.79)"/><path d="M116.9,537.6a1.38,1.38,0,0,1-1.8.3c-.6-.5-1.4.4-.8.8a2.52,2.52,0,0,0,3.5-.3c.4-.5-.5-1.4-.9-.8Z" transform="translate(-55.74 -532.79)"/><path d="M114,537.9a2.88,2.88,0,0,1-2-.5c-.6-.4-1.2.6-.6,1a3.94,3.94,0,0,0,3,.6c.7-.1.4-1.2-.4-1.1Z" transform="translate(-55.74 -532.79)"/><path d="M111,537.4a3,3,0,0,1-2.1.4.62.62,0,0,0-.3,1.2,4,4,0,0,0,3-.5c.7-.5.1-1.6-.6-1.1Z" transform="translate(-55.74 -532.79)"/><path d="M108.4,537.9c-.1,0-.2,0-.2-.1-.6-.5-1.4.3-.8.8a1.28,1.28,0,0,0,1,.4c.8.1.8-1.1,0-1.1Z" transform="translate(-55.74 -532.79)"/><path d="M120.7,546.2a.6.6,0,0,0,0-1.2.6.6,0,0,0,0,1.2Z" transform="translate(-55.74 -532.79)"/><path d="M120.3,548.5c-.1.1-.2.2-.3.2-.5.5.3,1.4.8.8.1-.1.2-.2.3-.2.5-.5-.3-1.3-.8-.8Z" transform="translate(-55.74 -532.79)"/><path d="M120.8,553.3c-.5-.6-1.3-.1-1.4.5-.1.8,1.1.8,1.2,0v-.1c-.1.1-.1.3-.2.4h-.5a.6.6,0,1,0,.9-.8Z" transform="translate(-55.74 -532.79)"/><path d="M131.5,561.2a2.32,2.32,0,0,1-.9,1.9c-.6.5.3,1.3.8.8a3.72,3.72,0,0,0,1.3-2.8c0-.7-1.2-.7-1.2.1Z" transform="translate(-55.74 -532.79)"/><path d="M128.2,561a3.22,3.22,0,0,1-1.2,2c-.6.4,0,1.5.6,1a3.87,3.87,0,0,0,1.8-3c.1-.8-1.1-.8-1.2,0Z" transform="translate(-55.74 -532.79)"/><path d="M124.6,561.1a1.68,1.68,0,0,1-1,1.8.58.58,0,1,0,.6,1,3.15,3.15,0,0,0,1.6-2.9c-.1-.7-1.3-.7-1.2.1Z" transform="translate(-55.74 -532.79)"/></svg>