<svg id="Layer_1" data-name="Layer 1" xmlns="http://www.w3.org/2000/svg" viewBox="0 0 87.81 11.91"><title>Flat</title><path d="M60.1,573a162.28,162.28,0,0,0,27-.1c.8-.1.8-1.3,0-1.2a173.83,173.83,0,0,1-27,.1c-.7,0-.7,1.2,0,1.2Z" transform="translate(-56.65 -561.6)"/><path d="M87.7,572.5l.6-.9c.4-.6-.6-1.2-1-.6l-.6.9a.58.58,0,1,0,1,.6Z" transform="translate(-56.65 -561.6)"/><path d="M87.8,571.8a17.4,17.4,0,0,1,1.8,1.1c.6.5,1.4-.3.8-.8a8.58,8.58,0,0,0-2-1.3c-.7-.4-1.3.7-.6,1Z" transform="translate(-56.65 -561.6)"/><path d="M89.7,572.2h0a.63.63,0,0,0,.3.8h.1c.3.1.7.1.8-.2a9.16,9.16,0,0,0,.3-3.7v-5a.6.6,0,0,0-1.2,0v4.1c0,1.1.2,3.1-.2,4,.3-.1.5-.1.8-.2h-.1c.1.2.2.5.3.7v-.1c.2-.8-.9-1.1-1.1-.4Z" transform="translate(-56.65 -561.6)"/><path d="M60.2,571.7c-1.5,0-2-.9-2.2-2.3a7.93,7.93,0,0,1,.2-3.4.62.62,0,0,0-1.2-.3,8,8,0,0,0,.2,5.3,2.84,2.84,0,0,0,3,1.9.6.6,0,0,0,0-1.2Z" transform="translate(-56.65 -561.6)"/><path d="M58.1,566.6a4.21,4.21,0,0,1,4-2.7.6.6,0,0,0,0-1.2,5.76,5.76,0,0,0-5.2,3.6c-.2.7.9,1,1.2.3Z" transform="translate(-56.65 -561.6)"/><path d="M61.5,563.3a6.28,6.28,0,0,0,1.1,5c.5.6,1.5,0,1-.6a5,5,0,0,1-1-4.1.57.57,0,0,0-1.1-.3Z" transform="translate(-56.65 -561.6)"/><path d="M62.8,568.5c4.8,3.5,12,2.8,17.6,1.9,4-.7,8.3-2,9.8-6.1.3-.7-.9-1-1.2-.3-2.7,7.4-20.3,7.3-25.6,3.5-.7-.5-1.3.5-.6,1Z" transform="translate(-56.65 -561.6)"/><path d="M87.4,569.6l.9,1.2c.2-.3.5-.6.7-.9-.2-.1-.4-.1-.5-.2-.7-.3-1,.7-.5,1.1a4.05,4.05,0,0,0,.9.5.62.62,0,0,0,.9-.7.37.37,0,0,0-.1-.3l-.7.7c.1.1.2.1.3.2.2-.3.4-.7.6-1-.1-.1-.2-.1-.3-.2-.6-.4-1.1.5-.7.9a4.81,4.81,0,0,0,1.1.9.63.63,0,0,0,.9-.5c0-1.7-.1-3.4-.1-5.2a.6.6,0,0,0-1.2,0c0,1.2,0,2.3-.1,3.5.1-.2.2-.3.3-.5.5-.2.3-1.1.4-1.6H89a1.72,1.72,0,0,1-.1,1.4c.4,0,.7.1,1.1.1a6.08,6.08,0,0,1,.1-1.9.61.61,0,0,0-1.1-.5,11.51,11.51,0,0,1-1.4,1.7c.3.2.6.5.9.7a7.49,7.49,0,0,1,1.3-1.8.57.57,0,0,0-.7-.9,3.59,3.59,0,0,0-1,.7c.3.2.6.5.9.7a2.7,2.7,0,0,1,.7-.8l-.8-.8a4.35,4.35,0,0,0-.6.7c.3.2.6.5.9.7a3.45,3.45,0,0,1,.9-1.2l-.8-.8a18.78,18.78,0,0,1-2.5,2.4c-.5.4.2,1.3.7.9.4-.2.8-.5,1.3-.7a.58.58,0,1,0-.6-1c-.8.5-1.7,1-2.5,1.4.2.3.4.7.6,1a15.25,15.25,0,0,1,1.6-1.1c-.2-.3-.5-.6-.7-.9-.4.3-.7.6-1.1.9s.2,1.3.7.9c0,0,.9-.5.7-.6s-.2-.5-.3-.7a11.11,11.11,0,0,1-.7,1.6l1.1.3a.76.76,0,0,1,.1-.4c-.4-.1-.8-.1-1.2-.2v.8l1.1-.3h-.8a4.35,4.35,0,0,0,.7.6c.6.5,1.4-.3.8-.8-.8-.6-2.1-1-2.4.3-.1.7.7,1.1,1.1.5l.3-.6-1.1-.3a1.74,1.74,0,0,1-.5,1.4c.3.2.6.5.9.7a8.34,8.34,0,0,1,.8-1.2c-.3-.2-.7-.4-1-.6a.55.55,0,0,1-.4.6c-.5.5-.9.3-1.4-.7h1.2c-.2,0-.5.1-.7.1h.6v-.3c-.6-.5-1.4.4-.8.8,1,.8,2.7-.2,1.7-1.4s-2.5.3-1.9,1.5c.7,1.4,2-.2,1.8-1.2a.91.91,0,0,0-1.2-.8c-.8.2-.8,1-.6,1.6s1.1.6,1.2,0c.3-2.1-2.8-1.6-2.3.4.6,2.2,3.6,1.6,4.1-.3a.62.62,0,0,0-1-.6,7.1,7.1,0,0,0-1,1.4c-.3.6.5,1.3.9.7a3.16,3.16,0,0,0,.8-2.2.59.59,0,0,0-1.1-.3l-.3.6c.4.2.7.3,1.1.5.1.1.2.1.4.2l.8-.8a4.35,4.35,0,0,0-.7-.6.52.52,0,0,0-.8,0,1.21,1.21,0,0,0-.2,1.5.58.58,0,0,0,1.1-.3v-.8a.62.62,0,0,0-1.2-.2,1.7,1.7,0,0,0-.1.7c0,.6.9.9,1.1.3a7.71,7.71,0,0,0,.8-1.9c0-.2,0-.6-.3-.7-.7-.3-1.3.2-1.9.6.2.3.5.6.7.9.4-.3.7-.6,1.1-.9s-.2-1.3-.7-.9a15.25,15.25,0,0,1-1.6,1.1.58.58,0,0,0,.6,1c.8-.5,1.7-1,2.5-1.4-.2-.3-.4-.7-.6-1-.4.2-.8.5-1.3.7.2.3.5.6.7.9a18.78,18.78,0,0,0,2.5-2.4c.5-.6-.3-1.4-.8-.8a4.86,4.86,0,0,0-1.1,1.4c-.3.6.5,1.3.9.7a4.35,4.35,0,0,0,.6-.7c.5-.6-.3-1.4-.8-.8a4.81,4.81,0,0,0-.9,1.1.57.57,0,0,0,.9.7,2.41,2.41,0,0,1,.8-.6c-.2-.3-.5-.6-.7-.9a9,9,0,0,0-1.4,2c-.3.6.5,1.2.9.7a14.62,14.62,0,0,0,1.6-1.9c-.4-.2-.7-.3-1.1-.5a4.24,4.24,0,0,0-.1,2.5.59.59,0,0,0,1.1.1,2.68,2.68,0,0,0,.2-2.3.64.64,0,0,0-1.2,0c-.2.9-.4,3.8,1.3,3a.55.55,0,0,0,.3-.5c0-1.2,0-2.3.1-3.5H89.4c0,1.7.1,3.4.1,5.2.3-.2.6-.3.9-.5a5.5,5.5,0,0,1-.9-.7c-.2.3-.5.6-.7.9a1.14,1.14,0,0,0,.6.3.61.61,0,0,0,.6-1,1.37,1.37,0,0,0-.8-.5.57.57,0,0,0-.7.7.37.37,0,0,0,.1.3c.3-.2.6-.5.9-.7a7.26,7.26,0,0,1-.9-.5c-.2.4-.3.7-.5,1.1.2.1.4.1.5.2a.62.62,0,0,0,.7-.9l-.9-1.2c-.4-.2-1.4.4-1,1Z" transform="translate(-56.65 -561.6)"/><path d="M88.2,570h-.7a.6.6,0,0,0,0,1.2h.7a.6.6,0,0,0,0-1.2Z" transform="translate(-56.65 -561.6)"/><path d="M59.7,570.8c-.1.1-.1.3-.2.4a.64.64,0,0,0,.6-.8c0-.2-.1-.4-.1-.6-.3.2-.6.5-.9.7v-.1c.2-.3.4-.5.6-.8a.76.76,0,0,1-.2-.4c-.2,0-.5-.1-.7-.1v1c.2-.1.4-.3.6-.4s.1-.1.2-.1H58.4v.3c.4,0,.7.1,1.1.1a5.07,5.07,0,0,0,.2-1.3h-1c.6-.5,1.2-1.1,1.9-1.6a3.55,3.55,0,0,1-.9-.4h.4c-.4-.1-.8-.1-1.2-.2h0c.3,0,.6.1.9.1a2.66,2.66,0,0,1,1.1-1c-.3-.2-.6-.3-.9-.5a5.92,5.92,0,0,1-.5,1.9c.4.2.7.3,1.1.5a12.27,12.27,0,0,1,1.2-2.6c-.4,0-.7-.1-1.1-.1a21.72,21.72,0,0,0,1.2,3.6c.3-.2.7-.4,1-.6a4.07,4.07,0,0,0-1.2-1.7c-.5-.5-1.3.2-.9.7s.8,1.1,1.2,1.7c.3-.2.7-.4,1-.6a4.63,4.63,0,0,1-.8-3.8c.1-.6-.8-1.1-1.1-.5-.9,2.1-1.6,5.4,1.4,6.1.5.1,1.1-.6.6-1a10.38,10.38,0,0,0-2.5-1.5l-.3,1.2a7.66,7.66,0,0,1,2.3,1c.1-.4.2-.7.3-1.1a6.45,6.45,0,0,1-2-.3.61.61,0,0,0-.5,1.1,10.54,10.54,0,0,1,1.1.7c0-.4.1-.7.1-1.1-.3-.1-.6-.1-1-.2,0,.4-.1.7-.1,1.1a6.6,6.6,0,0,1,1.4.1l.3-1.2a2.53,2.53,0,0,1-1.5-.6c-.2.4-.3.7-.5,1.1a24.42,24.42,0,0,1,2.4,1c.1-.4.1-.8.2-1.2-.3-.1-.5-.2-.8-.3-.2.3-.4.7-.6,1a5.77,5.77,0,0,1,1.7.6c.6.3,1.3-.5.7-.9-.4-.3-.7-.6-1.1-.9-.6-.5-1.4.3-.8.8a14.3,14.3,0,0,0,1.5,1.1c.6.3,1.2-.5.7-.9-.3-.3-.7-.6-1-.9-.2.3-.5.6-.7.9a20,20,0,0,0,2.1,1c.6.3,1-.8.5-1.1-.7-.4-1.3-.7-2-1.1-.2.4-.3.7-.5,1.1l2.4.9.3-1.2-2.3-.6c-.5-.1-1.1.6-.6,1a8.27,8.27,0,0,0,2.9,1.6l.3-1.2a15.88,15.88,0,0,1-2-.7l-.3,1.2c1.1.3,2.2.5,3.3.8.8.2,1-.9.3-1.2s-1.5-.5-2.2-.8l-.3,1.2c1,.2,2.1.5,3.1.8l.3-1.2a20.16,20.16,0,0,1-2.3-.7l-.3,1.2a22.89,22.89,0,0,1,2.8.8c.1-.4.1-.8.2-1.2a24.11,24.11,0,0,1-3.8,0c-.7-.1-.8,1-.2,1.2a3.59,3.59,0,0,0,1.8.2c.6-.1.9-1,.2-1.2-1.3-.3-2.6-.5-3.8-.8-.1.4-.1.8-.2,1.2a12.59,12.59,0,0,1,2.7.4c.1-.4.1-.8.2-1.2a15.54,15.54,0,0,1-3.1-.7l-.3,1.2c.8.2,1.7.5,2.5.7v-1.2a7.1,7.1,0,0,1-2.9.1V571c.4.1.7.1,1.1.2.1-.4.2-.7.3-1.1-1,0-2.9-.5-3.5.5a.63.63,0,0,0,.4.9c1.1.2,2.2.3,3.3.5.7.1,1.1-1,.3-1.2a2.44,2.44,0,0,0-1.2,0c-.7.1-.5,1.2.2,1.2,1.2,0,2.4,0,3.6.1a.6.6,0,0,0,0-1.2c-1.2,0-2.4,0-3.6-.1.1.4.1.8.2,1.2h.5l.3-1.2a9.7,9.7,0,0,1-3.4,0,5.89,5.89,0,0,0,.4.8,10.87,10.87,0,0,1,2.5.1c.6,0,.9-.9.3-1.1a3.53,3.53,0,0,0-1.7-.4c-.8,0-.7,1.1,0,1.2a8.66,8.66,0,0,0,3.2-.2c.6-.1.5-1,0-1.2a18.25,18.25,0,0,0-2.5-.7c-.8-.2-1,.9-.3,1.2a12.85,12.85,0,0,0,3.4.7c.7.1.8-1,.2-1.2a15.66,15.66,0,0,0-3-.5.62.62,0,0,0-.2,1.2c1.3.3,2.6.5,3.8.8.1-.4.1-.8.2-1.2a2.57,2.57,0,0,1-1.5-.1c-.1.4-.1.8-.2,1.2a24.11,24.11,0,0,0,3.8,0,.62.62,0,0,0,.2-1.2,12.9,12.9,0,0,0-2.8-.8.62.62,0,0,0-.3,1.2,20.16,20.16,0,0,0,2.3.7.62.62,0,0,0,.3-1.2c-1-.3-2-.5-3.1-.8a.62.62,0,1,0-.3,1.2c.7.3,1.5.5,2.2.8l.3-1.2c-1.1-.3-2.2-.5-3.3-.8-.8-.2-1,.9-.3,1.2a15.88,15.88,0,0,0,2,.7.62.62,0,0,0,.3-1.2,7,7,0,0,1-2.4-1.3c-.2.3-.4.7-.6,1l2.3.6c.8.2,1-.9.3-1.2l-2.4-.9c-.6-.2-1,.8-.5,1.1.7.4,1.3.7,2,1.1.2-.4.3-.7.5-1.1a7.57,7.57,0,0,1-1.8-.9c-.6-.3-1.3.5-.7.9.3.3.7.6,1,.9.2-.3.5-.6.7-.9a3.81,3.81,0,0,1-1.3-.9l-.8.8c.4.3.7.6,1.1.9.2-.3.5-.6.7-.9a14.58,14.58,0,0,0-1.9-.7.62.62,0,0,0-.6,1,2.36,2.36,0,0,0,1.6.7c.7,0,.7-.9.2-1.2a24.42,24.42,0,0,1-2.4-1c-.7-.3-1,.7-.5,1.1a5.83,5.83,0,0,0,1.8.8c.8.2,1-.9.3-1.2a3,3,0,0,0-2.1-.1.59.59,0,0,0-.1,1.1,3.08,3.08,0,0,0,1.9.3c.5-.1.5-.9.1-1.1a10.54,10.54,0,0,1-1.1-.7c-.2.4-.3.7-.5,1.1a18.46,18.46,0,0,0,2.3.4.59.59,0,0,0,.3-1.1,10.18,10.18,0,0,0-2.6-1.1c-.8-.2-1,.9-.3,1.2a4.66,4.66,0,0,1,2,1.2c.2-.3.4-.7.6-1-2.3-.6-1.2-3.1-.6-4.3-.4-.2-.7-.3-1.1-.5a5.6,5.6,0,0,0,.9,4.7c.4.6,1.5,0,1-.6s-.8-1.1-1.2-1.7c-.3.2-.6.5-.9.7a4.51,4.51,0,0,1,1,1.4c.3.7,1.3.1,1-.6a21.29,21.29,0,0,1-1.1-3.3.59.59,0,0,0-1.1-.1,10.76,10.76,0,0,0-1.3,2.9c-.2.6.8,1.1,1.1.5a7.17,7.17,0,0,0,.7-2.5c.1-.5-.5-.7-.9-.5-1,.6-2.1,1.4-1.5,2.6a.52.52,0,0,0,.9.1,1.09,1.09,0,0,0,.4-.9c.1-.7-1-.8-1.2-.2-.3,1,.6,2.4,1.7,1.5a1,1,0,0,0-.6-1.8,1,1,0,0,0-.5,1.8c1.1.7,1.7-.6,1.4-1.5a.61.61,0,0,0-.9-.4c-.7.4-1.5,1.6-.6,2.3a.89.89,0,0,0,1.4-.5c.4-2.1-3.7-1.2-1.8.9.1.2.4.2.6.2,2.1-.5-.5-3.4-1.4-1.1s2.9,2.2,1.7.2a.57.57,0,0,0-1,0,3.36,3.36,0,0,0-.4,2.2c.1.5.8.5,1.1.1a1,1,0,0,0,.1-1.3.63.63,0,0,0-1.2,0c-.3.8,0,1.8,1,1.7a.68.68,0,0,0,.6-.4c.2-.7.3-1.7-.3-2.2a.62.62,0,0,0-.7-.1c-1.2.7-.5,2.7.9,2.1a.55.55,0,0,0,.3-.5.89.89,0,0,0-1.5-.7c-1.1.9.1,1.8,1,1.7a.48.48,0,0,0,.5-.7,1,1,0,0,0-.6-.7.62.62,0,0,0-.9.7c0,.2.1.4.1.6.2-.3.4-.5.6-.8-1,0-1.4,1-.6,1.6.6.6,1.5-.2.9-.7Z" transform="translate(-56.65 -561.6)"/><path d="M68.9,571.2h-.6a.6.6,0,1,0,0,1.2c.4,0,.8.1,1.3.1v-1.2a7.49,7.49,0,0,0-2.1.2.63.63,0,0,0,0,1.2,7.57,7.57,0,0,0,1.5.1c-.1-.4-.1-.8-.2-1.2H67.2v1.2a18.19,18.19,0,0,1,3.3,0,.62.62,0,0,0,.2-1.2c-.7-.2-1.5-.3-2.2-.5-.1.4-.1.8-.2,1.2,1,.1,2,.2,2.9.2.7.1.8-1.1.2-1.2s-1.5-.3-2.2-.4c-.1.4-.1.8-.2,1.2a9.74,9.74,0,0,1,2.4.2c.7.1.8-1,.2-1.2s-1.5-.3-2.2-.5c-.1.4-.1.8-.2,1.2,1.1.1,2.1.3,3.2.4V571a13.13,13.13,0,0,1-2.8.1.6.6,0,1,0,0,1.2,22,22,0,0,1,3.7.5c.1-.4.1-.8.2-1.2H71.2v1.2c1.2-.1,2.3-.1,3.5-.2.6,0,.9-1,.2-1.2a7.14,7.14,0,0,0-2.1-.2v1.2a15,15,0,0,1,2.2-.2c.6,0,.9-1.1.2-1.2s-1.2-.2-1.9-.3c-.1.4-.1.8-.2,1.2.9,0,1.9.1,2.8.1v-1.2a13.11,13.11,0,0,1-2.8,0c.1.4.1.8.2,1.2a13.41,13.41,0,0,1,4,0v-1.2a4.1,4.1,0,0,1-1.1-.1v1.2a24.32,24.32,0,0,0,2.7,0,.6.6,0,1,0,0-1.2c-.5,0-.9-.1-1.4-.1v1.2h3.1a.6.6,0,0,0,0-1.2H78.5v1.2a20.86,20.86,0,0,1,4.3.4c.1-.4.1-.8.2-1.2H81.8a.6.6,0,0,0,0,1.2c.9.1,1.8.1,2.7.2a.62.62,0,0,0,.2-1.2c-1.7-.4-3.4-.7-5.1-1-.1.4-.1.8-.2,1.2a27,27,0,0,0,2.8-.4c.7-.1.8-1.2,0-1.2a6.09,6.09,0,0,0-2.7.2c-.7.1-.5,1.2.2,1.2,1.7,0,3.6.4,4.7-1,.4-.6-.5-1.1-.9-.7-.3.1-.6.3-.9.4.1.3.3.7.4,1,.3-.1.6-.3.9-.4l-.3-1.2a3.55,3.55,0,0,0-.9.4c-.7.3-.4,1.4.3,1.2.2,0,.4-.1.6-.1.7-.2.4-1.3-.3-1.2-.2,0-.4.1-.6.1l.3,1.2a3.55,3.55,0,0,0,.9-.4.62.62,0,0,0-.3-1.2,2.24,2.24,0,0,0-1.5.8c-.4.3-.1,1.1.4,1a2.19,2.19,0,0,0,1.7-.7c-.3-.2-.6-.5-.9-.7-.5.8-2.9.4-3.6.4.1.4.1.8.2,1.2.8-.1,1.6-.1,2.4-.2v-1.2a27,27,0,0,0-2.8.4c-.6.1-.9,1.1-.2,1.2,1.7.3,3.4.6,5.1,1,.1-.4.1-.8.2-1.2-.9-.1-1.8-.1-2.7-.2v1.2h1.2c.6,0,.9-1,.2-1.2a34.08,34.08,0,0,0-4.6-.5.6.6,0,0,0,0,1.2h2.1v-1.2H77.7a.6.6,0,1,0,0,1.2c.5,0,.9.1,1.4.1v-1.2H76.4a.6.6,0,0,0,0,1.2,4.1,4.1,0,0,1,1.1.1.6.6,0,1,0,0-1.2,15.4,15.4,0,0,0-4.3.1c-.7.1-.5,1.1.2,1.2a13.11,13.11,0,0,0,2.8,0,.6.6,0,0,0,0-1.2c-.9,0-1.9-.1-2.8-.1-.7,0-.8,1.1-.2,1.2s1.2.2,1.9.3c.1-.4.1-.8.2-1.2a18,18,0,0,0-2.2.2c-.7.1-.8,1.2,0,1.2.6.1,1.2.1,1.7.2.1-.4.1-.8.2-1.2-1.2.1-2.3.1-3.5.2a.6.6,0,0,0,0,1.2h2.3a.62.62,0,0,0,.2-1.2c-1.3-.3-2.7-.4-4-.6v1.2a13.13,13.13,0,0,0,2.8-.1.6.6,0,0,0,0-1.2c-1.1-.1-2.1-.3-3.2-.4-.7-.1-.8,1-.2,1.2s1.5.3,2.2.5c.1-.4.1-.8.2-1.2a19.42,19.42,0,0,0-2.4-.2c-.7,0-.8,1.1-.2,1.2s1.5.3,2.2.4c.1-.4.1-.8.2-1.2-1-.1-2-.2-2.9-.2-.7-.1-.8,1-.2,1.2s1.5.3,2.2.5c.1-.4.1-.8.2-1.2H67.6a.6.6,0,1,0,0,1.2,4.08,4.08,0,0,0,1.9-.1c.7-.1.5-1.2-.2-1.2a4.87,4.87,0,0,1-1.2-.1v1.2c.6,0,1.2-.1,1.8-.1a.6.6,0,1,0,0-1.2c-.4,0-.8-.1-1.3-.1v1.2h.6c.4,0,.4-1.2-.3-1.2Z" transform="translate(-56.65 -561.6)"/><path d="M79.7,570.5a2.77,2.77,0,0,1-.9-.1v1.2a5.07,5.07,0,0,1,1.3-.2c.7-.1.5-1.3-.2-1.2-1.1.1-2.1.1-3.2.1v1.2h.6a.6.6,0,0,0,0-1.2h-.6a.6.6,0,1,0,0,1.2,11.45,11.45,0,0,0,3.2-.1c-.1-.4-.1-.8-.2-1.2a5.07,5.07,0,0,1-1.3.2c-.6.1-.5,1,0,1.2a5,5,0,0,0,1.2.2c.9-.1.9-1.3.1-1.3Z" transform="translate(-56.65 -561.6)"/><path d="M87.8,572.1a3.4,3.4,0,0,0,1,.1c-.1-.4-.1-.8-.2-1.2a3.6,3.6,0,0,1-1.1.2c-.5.1-.9.8-.3,1.1a1.42,1.42,0,0,0,1.1.1c.7-.2.5-1.1-.2-1.2a1.55,1.55,0,0,0-1.4.5c-.4.3-.1,1,.4,1h2.5c-.1-.4-.1-.8-.2-1.2a8.63,8.63,0,0,1-2.8.2c-.8-.1-.8,1.1,0,1.2a10.57,10.57,0,0,0,3.1-.2.61.61,0,0,0-.2-1.2H87c.1.3.3.7.4,1a.9.9,0,0,1,.5-.1c-.1-.4-.1-.8-.2-1.2h-.2c-.1.4-.2.7-.3,1.1a3.53,3.53,0,0,0,1.4-.3.62.62,0,0,0-.2-1.2,1.7,1.7,0,0,1-.7-.1c-.3.1-.6,1.3.1,1.4Z" transform="translate(-56.65 -561.6)"/><path d="M61.1,569.3c0,.1.1.1.1.2,0,.3-.1.6-.1.9,0-.1.1-.1.1-.2-.2.2-.5.4-.7.6a7.72,7.72,0,0,0,.2-1.5c.2.2.4.5.6.7,0,.2-.1.4-.1.6a2,2,0,0,0-.8.4c-.1,0-.2-.1-.3-.1-.2-.2-.4-.5-.6-.7.1-.3.2-.5.3-.8.3,0,.6-.1.9-.1.3.2.3.1,0-.2-.1-.2-.3-.5-.4-.7s-.4-.9-.4-.6a2.29,2.29,0,0,1,.7-1,11.4,11.4,0,0,1,1.1-1.1c1.2-1-.5-2.7-1.7-1.7-.9.8-2.2,2.1-2.4,3.4a3.2,3.2,0,0,0,.5,1.9,6.7,6.7,0,0,0,1.1,1.8,1.54,1.54,0,1,0,.9-2.5,1.59,1.59,0,0,0-.9,2.6,1.7,1.7,0,0,0,2.8-.7,1.75,1.75,0,0,0-2-2.1,1.5,1.5,0,0,0-.6,2.6,1.2,1.2,0,0,0,1.7-1.7Z" transform="translate(-56.65 -561.6)"/><path d="M64.4,572.4a5.14,5.14,0,0,0,3,.2,1.2,1.2,0,1,0-.7-2.3,3.21,3.21,0,0,1-1.7-.2,1.24,1.24,0,0,0-1.5.8,1.35,1.35,0,0,0,.9,1.5Z" transform="translate(-56.65 -561.6)"/><path d="M75.1,572.9a27.15,27.15,0,0,0,9.4-.6c2.1-.4,4.3-.7,4.9-3.1.4-1.5-2-2.1-2.3-.6s-3.6,1.5-4.7,1.7a18.8,18.8,0,0,1-6.7.3c-1.5-.3-2.2,2-.6,2.3Z" transform="translate(-56.65 -561.6)"/><path d="M90.3,566c.2,0,.1.2.2.1v-.3a1.27,1.27,0,0,0-.1-.6.87.87,0,0,0-.9-.4c-.7.2-.5,1.1.2,1.2s.9-.7.8-1.3-1.4-.4-1.2.3c0,.2.2.1.4-.2.1.4.1.8.2,1.2-.3-.3-.4-.3-.5-.1v.7a.9.9,0,0,0,.6.6c.7.1,1-1,.3-1.2Z" transform="translate(-56.65 -561.6)"/><path d="M141,570.7a162.28,162.28,0,0,1-27-.1c-.8-.1-.8,1.1,0,1.2a173.83,173.83,0,0,0,27,.1.6.6,0,0,0,0-1.2Z" transform="translate(-56.65 -561.6)"/><path d="M114.4,570.9l-.6-.9c-.4-.6-1.5,0-1,.6l.6.9c.5.6,1.5,0,1-.6Z" transform="translate(-56.65 -561.6)"/><path d="M112.7,569.7a8.58,8.58,0,0,0-2,1.3c-.6.5.3,1.4.8.8a5.44,5.44,0,0,1,1.8-1.1c.7-.3.1-1.3-.6-1Z" transform="translate(-56.65 -561.6)"/><path d="M110.3,571.5h0a3.33,3.33,0,0,0,.3-.6h-.1c.3.1.5.1.8.2-.4-1-.2-3-.2-4V563a.6.6,0,0,0-1.2,0v5a9.16,9.16,0,0,0,.3,3.7c.1.3.6.3.8.2h.1c.3-.1.3-.4.3-.7v-.1c-.1-.7-1.3-.4-1.1.4Z" transform="translate(-56.65 -561.6)"/><path d="M140.9,571.8a2.77,2.77,0,0,0,3-1.9,8,8,0,0,0,.2-5.3c-.2-.7-1.4-.4-1.2.3a7.75,7.75,0,0,1,.2,3.4c-.3,1.3-.7,2.3-2.2,2.3-.8.1-.8,1.3,0,1.2Z" transform="translate(-56.65 -561.6)"/><path d="M144.2,565.2a5.41,5.41,0,0,0-5.2-3.6.6.6,0,0,0,0,1.2,4.26,4.26,0,0,1,4,2.7c.3.8,1.5.5,1.2-.3Z" transform="translate(-56.65 -561.6)"/><path d="M138.5,562.6a5,5,0,0,1-1,4.1c-.5.6.6,1.2,1,.6a6,6,0,0,0,1.1-5c-.1-.8-1.3-.5-1.1.3Z" transform="translate(-56.65 -561.6)"/><path d="M137.8,566.4c-5.3,3.8-22.9,4-25.6-3.5-.3-.7-1.4-.4-1.2.3,1.5,4.1,5.7,5.4,9.8,6.1,5.5.9,12.8,1.6,17.6-1.9.6-.5,0-1.5-.6-1Z" transform="translate(-56.65 -561.6)"/><path d="M112.7,567.9l-.9,1.2a.62.62,0,0,0,.7.9c.2-.1.4-.1.5-.2-.2-.4-.3-.7-.5-1.1a4.05,4.05,0,0,1-.9.5c.3.2.6.5.9.7a.37.37,0,0,1,.1-.3c.1-.4-.3-.9-.7-.7a1.37,1.37,0,0,0-.8.5.61.61,0,0,0,.6,1,1.14,1.14,0,0,0,.6-.3c-.2-.3-.5-.6-.7-.9a3.11,3.11,0,0,1-.9.7c.3.2.6.3.9.5,0-1.7.1-3.4.1-5.2h-1.2c0,1.2,0,2.3.1,3.5a.55.55,0,0,0,.3.5c1.7.8,1.5-2.1,1.3-3-.1-.6-1-.5-1.2,0a2.65,2.65,0,0,0,.2,2.3c.2.4,1,.4,1.1-.1a6.92,6.92,0,0,0-.1-2.5c-.4.2-.7.3-1.1.5a14.62,14.62,0,0,0,1.6,1.9.57.57,0,0,0,.9-.7,14.29,14.29,0,0,0-1.4-2c-.2.3-.5.6-.7.9a1.56,1.56,0,0,1,.8.6.57.57,0,0,0,.9-.7,4.81,4.81,0,0,0-.9-1.1.57.57,0,0,0-.8.8,4.35,4.35,0,0,1,.6.7.57.57,0,0,0,.9-.7,3.82,3.82,0,0,0-1.1-1.4c-.6-.5-1.4.3-.8.8a18.78,18.78,0,0,0,2.5,2.4c.2-.3.5-.6.7-.9-.4-.2-.8-.5-1.3-.7-.2.3-.4.7-.6,1,.8.5,1.7,1,2.5,1.4a.58.58,0,0,0,.6-1,15.25,15.25,0,0,0-1.6-1.1c-.5-.4-1.3.5-.7.9.4.3.7.6,1.1.9.2-.3.5-.6.7-.9-.6-.4-1.2-.9-1.9-.6-.3.1-.3.4-.3.7a10.84,10.84,0,0,0,.8,1.9.58.58,0,0,0,1.1-.3,1.7,1.7,0,0,0-.1-.7.62.62,0,0,0-1.2.2v.8c0,.6.9.9,1.1.3a1.21,1.21,0,0,0-.2-1.5.52.52,0,0,0-.8,0,4.35,4.35,0,0,1-.7.6l.8.8c.1-.1.2-.1.4-.2.4-.2.7-.3,1.1-.5l-.3-.6a.59.59,0,0,0-1.1.3,3.29,3.29,0,0,0,.8,2.2.57.57,0,0,0,.9-.7,7.1,7.1,0,0,0-1-1.4.62.62,0,0,0-1,.6c.5,1.9,3.5,2.5,4.1.3.5-2-2.5-2.4-2.3-.4.1.6,1,.5,1.2,0s.1-1.3-.6-1.6a.93.93,0,0,0-1.2.6c-.4,1.1,1.1,2.8,1.8,1.4.6-1.2-.9-2.7-1.9-1.6s.6,2.4,1.7,1.5c.6-.5-.3-1.3-.8-.8v.3h.6c-.2,0-.5-.1-.7-.1h1.2c-.5.9-.9,1.2-1.4.7a.55.55,0,0,1-.4-.6c-.3.2-.7.4-1,.6a5,5,0,0,1,.8,1.2c.3-.2.6-.5.9-.7a1.74,1.74,0,0,1-.5-1.4l-1.1.3.3.6c.4.6,1.2.2,1.1-.5-.2-1.3-1.6-1-2.4-.3-.6.5.3,1.3.8.8a4.35,4.35,0,0,1,.7-.6h-.8l1.1.3v-.8c-.4.1-.8.1-1.2.2a.76.76,0,0,0,.1.4l1.1-.3a11.11,11.11,0,0,1-.7-1.6c-.1.2-.2.5-.3.7s.7.6.7.6c.6.3,1.3-.5.7-.9-.4-.3-.7-.6-1.1-.9-.2.3-.5.6-.7.9a15.25,15.25,0,0,0,1.6,1.1c.2-.3.4-.7.6-1-.8-.5-1.7-1-2.5-1.4a.58.58,0,1,0-.6,1c.4.2.8.5,1.3.7s1.3-.5.7-.9a18.78,18.78,0,0,1-2.5-2.4l-.8.8a3.45,3.45,0,0,1,.9,1.2c.3-.2.6-.5.9-.7a4.35,4.35,0,0,1-.6-.7l-.8.8a5,5,0,0,1,.7.8c.3-.2.6-.5.9-.7a3.59,3.59,0,0,0-1-.7.57.57,0,0,0-.7.9,8.32,8.32,0,0,1,1.3,1.8c.3-.2.6-.5.9-.7a11.51,11.51,0,0,1-1.4-1.7.61.61,0,0,0-1.1.5,4,4,0,0,1,.1,1.9c.4,0,.7-.1,1.1-.1a1.72,1.72,0,0,1-.1-1.4h-1.2c.1.5-.1,1.4.4,1.6.1.2.2.3.3.5,0-1.2,0-2.3-.1-3.5a.6.6,0,0,0-1.2,0c0,1.7-.1,3.4-.1,5.2a.59.59,0,0,0,.9.5,3.13,3.13,0,0,0,1.1-.9c.4-.5-.1-1.4-.7-.9-.1.1-.2.1-.3.2.2.3.4.7.6,1,.1-.1.2-.1.3-.2l-.7-.7a.37.37,0,0,1-.1.3.64.64,0,0,0,.9.7,7.26,7.26,0,0,0,.9-.5c.5-.4.2-1.4-.5-1.1-.2.1-.4.1-.5.2.2.3.5.6.7.9l.9-1.2c.5-1-.6-1.6-1-1Z" transform="translate(-56.65 -561.6)"/><path d="M112.9,570.1h.7a.6.6,0,0,0,0-1.2h-.7a.6.6,0,0,0,0,1.2Z" transform="translate(-56.65 -561.6)"/><path d="M142.3,570.6a.87.87,0,0,0-.6-1.6c.2.3.4.5.6.8,0-.2.1-.4.1-.6a.64.64,0,0,0-.9-.7,1.41,1.41,0,0,0-.6.7.64.64,0,0,0,.6.8c.8-.1,2.1-.9,1.1-1.8a.89.89,0,0,0-1.5.7.55.55,0,0,0,.3.5c1.4.7,2.1-1.4.9-2.1a.62.62,0,0,0-.7.1c-.6.5-.5,1.4-.3,2.2a.55.55,0,0,0,.6.4c1,.1,1.3-.8,1-1.7a.63.63,0,0,0-1.2,0,1.23,1.23,0,0,0,.1,1.3c.2.4,1,.4,1.1-.1a2.85,2.85,0,0,0-.4-2.2.57.57,0,0,0-1,0c-1.2,2,2.7,2.2,1.7-.2s-3.5.6-1.4,1.1a.73.73,0,0,0,.6-.2c1.9-2.1-2.2-3-1.8-.9a.81.81,0,0,0,1.4.5c.9-.7.1-1.9-.6-2.3a.63.63,0,0,0-.9.4c-.3.9.3,2.2,1.4,1.5a1,1,0,0,0-.5-1.8,1,1,0,0,0-.6,1.8c1.1.9,2-.5,1.7-1.5a.62.62,0,0,0-1.2.2,1.09,1.09,0,0,0,.4.9c.3.2.8.2.9-.1.6-1.2-.5-2-1.5-2.6-.4-.2-1,.1-.9.5a7.17,7.17,0,0,0,.7,2.5c.3.6,1.3.2,1.1-.5a15.11,15.11,0,0,0-1.3-2.9c-.2-.4-1-.4-1.1.1a16,16,0,0,1-1.1,3.3c-.3.7.7,1.3,1,.6a2.81,2.81,0,0,1,1-1.4c-.3-.2-.6-.5-.9-.7-.4.6-.8,1.1-1.2,1.7s.6,1.2,1,.6a5.6,5.6,0,0,0,.9-4.7c-.4.2-.7.3-1.1.5.6,1.3,1.6,3.8-.6,4.3.2.3.4.7.6,1a6.66,6.66,0,0,1,2-1.2c.7-.3.4-1.4-.3-1.2a9.66,9.66,0,0,0-2.6,1.1.59.59,0,0,0,.3,1.1,6.2,6.2,0,0,0,2.3-.4c-.2-.4-.3-.7-.5-1.1a10.54,10.54,0,0,0-1.1.7c-.4.2-.4,1,.1,1.1a2.59,2.59,0,0,0,1.9-.3c.5-.2.3-1-.1-1.1a3,3,0,0,0-2.1.1.62.62,0,0,0,.3,1.2,4.17,4.17,0,0,0,1.8-.8c.5-.4.2-1.4-.5-1.1a24.41,24.41,0,0,0-2.4,1,.61.61,0,0,0,.2,1.2,2,2,0,0,0,1.6-.7c.5-.4,0-1.1-.6-1a10.66,10.66,0,0,0-1.9.7c.2.3.5.6.7.9.4-.3.7-.6,1.1-.9l-.8-.8a3.81,3.81,0,0,1-1.3.9c.2.3.5.6.7.9.3-.3.7-.6,1-.9a.57.57,0,0,0-.7-.9l-1.8.9c.2.4.3.7.5,1.1.7-.4,1.3-.7,2-1.1s.2-1.3-.5-1.1l-2.4.9c-.7.3-.4,1.4.3,1.2l2.3-.6c-.2-.3-.4-.7-.6-1a5.64,5.64,0,0,1-2.4,1.3c-.7.2-.4,1.4.3,1.2a15.88,15.88,0,0,0,2-.7.62.62,0,0,0-.3-1.2c-1.1.3-2.2.5-3.3.8l.3,1.2c.7-.3,1.5-.5,2.2-.8s.4-1.3-.3-1.2c-1,.2-2.1.5-3.1.8-.7.2-.4,1.3.3,1.2a20.16,20.16,0,0,0,2.3-.7.62.62,0,0,0-.3-1.2,22.89,22.89,0,0,0-2.8.8.62.62,0,0,0,.2,1.2,24.11,24.11,0,0,0,3.8,0c-.1-.4-.1-.8-.2-1.2a2,2,0,0,1-1.5.1c.1.4.1.8.2,1.2,1.3-.3,2.6-.5,3.8-.8.7-.1.5-1.2-.2-1.2a9.93,9.93,0,0,0-3,.5c-.6.2-.5,1.3.2,1.2a18.63,18.63,0,0,0,3.4-.7c.7-.2.4-1.3-.3-1.2s-1.7.5-2.5.7a.64.64,0,0,0,0,1.2,11.5,11.5,0,0,0,3.2.2c.7-.1.8-1.2,0-1.2a3.29,3.29,0,0,0-1.7.4.58.58,0,0,0,.3,1.1,22.62,22.62,0,0,1,2.5-.1,3.55,3.55,0,0,1,.4-.9c-1.1.2-2.2.3-3.3.5l.3,1.2h.5c.1-.4.1-.8.2-1.2-1.2,0-2.4,0-3.6.1a.6.6,0,0,0,0,1.2c1.2,0,2.4,0,3.6-.1.7,0,.8-1.1.2-1.2a2.44,2.44,0,0,0-1.2,0c-.8.2-.4,1.3.3,1.2,1.1-.2,2.2-.3,3.3-.5a.7.7,0,0,0,.4-.9c-.6-1.1-2.5-.6-3.5-.5.1.4.2.7.3,1.1.4-.1.7-.1,1.1-.2v-1.2a9.42,9.42,0,0,1-2.9-.1v1.2a18.25,18.25,0,0,1,2.5-.7l-.3-1.2a15.55,15.55,0,0,1-3.1.7c.1.4.1.8.2,1.2a8.42,8.42,0,0,1,2.7-.4c-.1-.4-.1-.8-.2-1.2-1.3.3-2.6.5-3.8.8-.7.1-.5,1.1.2,1.2a3.59,3.59,0,0,0,1.8-.2.61.61,0,0,0-.2-1.2,24.11,24.11,0,0,1-3.8,0c.1.4.1.8.2,1.2a12.9,12.9,0,0,1,2.8-.8l-.3-1.2a20.16,20.16,0,0,1-2.3.7l.3,1.2c1-.3,2-.5,3.1-.8l-.3-1.2c-.7.3-1.5.5-2.2.8s-.4,1.3.3,1.2c1.1-.3,2.2-.5,3.3-.8l-.3-1.2a15.88,15.88,0,0,1-2,.7l.3,1.2a10.25,10.25,0,0,0,2.9-1.6c.5-.4,0-1.1-.6-1l-2.3.6.3,1.2,2.4-.9c-.2-.4-.3-.7-.5-1.1-.7.4-1.3.7-2,1.1s-.2,1.4.5,1.1a20,20,0,0,0,2.1-1c-.2-.3-.5-.6-.7-.9-.3.3-.7.6-1,.9a.57.57,0,0,0,.7.9,8.28,8.28,0,0,0,1.5-1.1c.6-.5-.3-1.4-.8-.8-.4.3-.7.6-1.1.9-.6.5.2,1.2.7.9a8.51,8.51,0,0,1,1.7-.6c-.2-.3-.4-.7-.6-1-.3.1-.5.2-.8.3.1.4.1.8.2,1.2a24.41,24.41,0,0,0,2.4-1c-.2-.4-.3-.7-.5-1.1a2.4,2.4,0,0,1-1.5.6l.3,1.2a6.6,6.6,0,0,0,1.4-.1c0-.4-.1-.7-.1-1.1-.3.1-.6.1-1,.2,0,.4.1.7.1,1.1a10.54,10.54,0,0,0,1.1-.7.61.61,0,0,0-.5-1.1,6.45,6.45,0,0,1-2,.3c.1.4.2.7.3,1.1a16,16,0,0,1,2.3-1l-.3-1.2a9.23,9.23,0,0,0-2.5,1.5c-.5.4,0,1.1.6,1,3-.7,2.3-4,1.4-6.1-.3-.6-1.2-.2-1.1.5a4.71,4.71,0,0,1-.8,3.8c.3.2.7.4,1,.6.4-.6.8-1.1,1.2-1.7a.57.57,0,0,0-.9-.7,7.35,7.35,0,0,0-1.2,1.7c.3.2.7.4,1,.6a25.33,25.33,0,0,0,1.2-3.6c-.4,0-.7.1-1.1.1a12.27,12.27,0,0,1,1.2,2.6c.4-.2.7-.3,1.1-.5a4.14,4.14,0,0,1-.5-1.9c-.3.2-.6.3-.9.5a2.13,2.13,0,0,1,1.1,1c.3,0,.6-.1.9-.1h0c-.4.1-.8.1-1.2.2h.4a3.55,3.55,0,0,0-.9.4c.6.5,1.2,1.1,1.9,1.6h-1a5.07,5.07,0,0,1,.2,1.3c.4,0,.7-.1,1.1-.1v-.3h-1.2c.1,0,.1.1.2.1s.4.3.6.4v-1c-.2,0-.5.1-.7.1a.76.76,0,0,0-.2.4c.2.3.4.5.6.8v.1c-.3-.2-.6-.5-.9-.7,0,.2-.1.4-.1.6a.64.64,0,0,0,.6.8c-.1-.1-.1-.3-.2-.4-.8-.1,0,.8.6.3Z" transform="translate(-56.65 -561.6)"/><path d="M132.3,571.3h.6v-1.2c-.4,0-.8.1-1.3.1a.6.6,0,1,0,0,1.2c.6,0,1.2.1,1.8.1v-1.2a4.87,4.87,0,0,0-1.2.1c-.7,0-.8,1.1-.2,1.2a4.08,4.08,0,0,0,1.9.1.6.6,0,1,0,0-1.2,18.19,18.19,0,0,0-3.3,0c.1.4.1.8.2,1.2.7-.2,1.5-.3,2.2-.5s.5-1.2-.2-1.2c-1,.1-2,.2-2.9.2.1.4.1.8.2,1.2.7-.1,1.5-.3,2.2-.4s.5-1.2-.2-1.2a9.74,9.74,0,0,0-2.4.2c.1.4.1.8.2,1.2.7-.2,1.5-.3,2.2-.5s.5-1.3-.2-1.2c-1.1.1-2.1.3-3.2.4a.6.6,0,0,0,0,1.2,13.13,13.13,0,0,0,2.8.1V570a25.68,25.68,0,0,0-4,.6c-.7.1-.5,1.2.2,1.2H130a.6.6,0,0,0,0-1.2c-1.2-.1-2.3-.1-3.5-.2.1.4.1.8.2,1.2.6-.1,1.2-.1,1.7-.2.8,0,.7-1.1,0-1.2a15,15,0,0,0-2.2-.2c.1.4.1.8.2,1.2.6-.1,1.2-.2,1.9-.3s.5-1.2-.2-1.2c-.9,0-1.9.1-2.8.1a.6.6,0,1,0,0,1.2,13.11,13.11,0,0,0,2.8,0c.6,0,.9-1.1.2-1.2a20.77,20.77,0,0,0-4.3-.1c-.7.1-.8,1.2,0,1.2a4.1,4.1,0,0,0,1.1-.1.6.6,0,0,0,0-1.2,24.32,24.32,0,0,1-2.7,0v1.2c.5,0,.9-.1,1.4-.1a.6.6,0,1,0,0-1.2h-3.1v1.2h2.1a.6.6,0,0,0,0-1.2,23.15,23.15,0,0,0-4.6.5c-.7.1-.5,1.2.2,1.2h1.2V570c-.9.1-1.8.1-2.7.2.1.4.1.8.2,1.2,1.7-.4,3.4-.7,5.1-1,.7-.1.4-1.1-.2-1.2a27,27,0,0,1-2.8-.4V570c.8.1,1.6.1,2.4.2.1-.4.1-.8.2-1.2-.7,0-3.1.3-3.6-.4-.3.2-.6.5-.9.7a2.19,2.19,0,0,0,1.7.7c.5.1.8-.7.4-1a2.24,2.24,0,0,0-1.5-.8c-.8-.2-1,.9-.3,1.2a3.55,3.55,0,0,1,.9.4l.3-1.2c-.2,0-.4-.1-.6-.1-.7-.2-1.1,1-.3,1.2.2,0,.4.1.6.1.8.2,1-.9.3-1.2a3.55,3.55,0,0,1-.9-.4l-.3,1.2c.3.1.6.3.9.4.1-.3.3-.7.4-1-.3-.1-.6-.3-.9-.4-.5-.4-1.4.1-.9.7,1.1,1.5,3,1,4.7,1,.7,0,.8-1.1.2-1.2a6.09,6.09,0,0,0-2.7-.2c-.8,0-.7,1.1,0,1.2a27,27,0,0,1,2.8.4c-.1-.4-.1-.8-.2-1.2-1.7.3-3.4.6-5.1,1a.62.62,0,0,0,.2,1.2c.9-.1,1.8-.1,2.7-.2a.6.6,0,0,0,0-1.2h-1.2c.1.4.1.8.2,1.2a20.87,20.87,0,0,1,4.3-.4v-1.2h-2.1a.6.6,0,0,0,0,1.2H124v-1.2c-.5,0-.9.1-1.4.1a.6.6,0,1,0,0,1.2h2.7v-1.2a4.1,4.1,0,0,0-1.1.1v1.2a13.41,13.41,0,0,1,4,0c.1-.4.1-.8.2-1.2a13.11,13.11,0,0,1-2.8,0v1.2c.9,0,1.9-.1,2.8-.1-.1-.4-.1-.8-.2-1.2-.6.1-1.2.2-1.9.3s-.5,1.2.2,1.2a18,18,0,0,1,2.2.2v-1.2a7.49,7.49,0,0,0-2.1.2c-.7.1-.5,1.1.2,1.2,1.2.1,2.3.1,3.5.2v-1.2H128c.1.4.1.8.2,1.2a23.48,23.48,0,0,1,3.7-.5.6.6,0,1,0,0-1.2,13.13,13.13,0,0,1-2.8-.1v1.2c1.1-.1,2.1-.3,3.2-.4-.1-.4-.1-.8-.2-1.2-.7.2-1.5.3-2.2.5s-.5,1.2.2,1.2a19.42,19.42,0,0,1,2.4-.2c-.1-.4-.1-.8-.2-1.2-.7.1-1.5.3-2.2.4s-.5,1.2.2,1.2c1-.1,2-.2,2.9-.2-.1-.4-.1-.8-.2-1.2-.7.2-1.5.3-2.2.5s-.5,1.2.2,1.2h3.3v-1.2h-1.6c-.1.4-.1.8-.2,1.2a7.57,7.57,0,0,0,1.5-.1.63.63,0,0,0,0-1.2,7.49,7.49,0,0,0-2.1-.2v1.2c.4,0,.8-.1,1.3-.1a.6.6,0,1,0,0-1.2h-.6c-1.1,0-1.1,1.2-.3,1.2Z" transform="translate(-56.65 -561.6)"/><path d="M121.4,570.7a2.54,2.54,0,0,0,1.2-.2.64.64,0,0,0,0-1.2,5.07,5.07,0,0,0-1.3-.2c-.1.4-.1.8-.2,1.2,1.1.1,2.1.1,3.2.1a.6.6,0,1,0,0-1.2h-.6a.6.6,0,0,0,0,1.2h.6v-1.2a11.45,11.45,0,0,1-3.2-.1c-.7-.1-.8,1.1-.2,1.2a5.07,5.07,0,0,0,1.3.2v-1.2a1.41,1.41,0,0,1-.9.1c-.7,0-.7,1.2.1,1.3Z" transform="translate(-56.65 -561.6)"/><path d="M113,569.9a1.48,1.48,0,0,1-.7.1.62.62,0,0,0-.2,1.2,7,7,0,0,0,1.4.3c-.1-.4-.2-.7-.3-1.1H113c-.1.4-.1.8-.2,1.2a.75.75,0,0,1,.5.1c.1-.3.3-.7.4-1h-2.5a.62.62,0,0,0-.2,1.2,6.54,6.54,0,0,0,3.1.2c.8-.1.8-1.3,0-1.2a6.54,6.54,0,0,1-2.8-.2c-.1.4-.1.8-.2,1.2h2.5c.5,0,.9-.7.4-1a2.17,2.17,0,0,0-1.4-.5.62.62,0,0,0-.2,1.2,1.42,1.42,0,0,0,1.1-.1c.6-.3.2-1.1-.3-1.1a4.25,4.25,0,0,1-1.1-.2c-.1.4-.1.8-.2,1.2a3.4,3.4,0,0,0,1-.1c1.2-.4.9-1.6.1-1.4Z" transform="translate(-56.65 -561.6)"/><path d="M141.7,569.9a1.5,1.5,0,0,0-.6-2.6,1.75,1.75,0,0,0-2,2.1,1.67,1.67,0,0,0,2.6.8,1.56,1.56,0,0,0-.8-2.7,1.49,1.49,0,1,0,.9,2.4,6.7,6.7,0,0,0,1.1-1.8,3.2,3.2,0,0,0,.5-1.9c-.2-1.3-1.5-2.5-2.4-3.4-1.2-1-2.9.7-1.7,1.7.4.3,1.8,1.4,1.7,2.1,0-.2-.4.6-.4.6-.1.2-.3.5-.4.7-.3.4-.3.4,0,.2.3,0,.6.1.9.1.1.3.2.5.3.8-.2.2-.4.5-.6.7-.1,0-.2.1-.3.1a2,2,0,0,1-.8-.4c0-.2-.1-.4-.1-.6.2-.2.4-.5.6-.7a7.72,7.72,0,0,1,.2,1.5c-.2-.2-.5-.4-.7-.6,0,.1.1.1.1.2,0-.3-.1-.6-.1-.9,0-.1.1-.1.1-.2-.8,1.2.9,2.9,1.9,1.8Z" transform="translate(-56.65 -561.6)"/><path d="M136.1,569a3.33,3.33,0,0,1-1.7.2,1.35,1.35,0,0,0-1.5.8,1.2,1.2,0,0,0,.8,1.5,6.13,6.13,0,0,0,3-.2,1.2,1.2,0,0,0,.8-1.5,1.17,1.17,0,0,0-1.4-.8Z" transform="translate(-56.65 -561.6)"/><path d="M125.5,569.5a21.71,21.71,0,0,1-6.7-.3c-1.1-.2-4.3-.4-4.7-1.7a1.19,1.19,0,0,0-2.3.6c.6,2.4,2.8,2.7,4.9,3.1a27.15,27.15,0,0,0,9.4.6c1.5-.2.9-2.5-.6-2.3Z" transform="translate(-56.65 -561.6)"/><path d="M111.2,566.1a.9.9,0,0,0,.6-.6v-.7c0-.2-.2-.2-.5.1.1-.4.1-.8.2-1.2.2.3.3.4.4.2a.62.62,0,0,0-1.2-.3c-.2.6,0,1.4.8,1.3a.62.62,0,0,0,.2-1.2.7.7,0,0,0-.9.4.9.9,0,0,0-.1.5v.2c.1.3-.1.1.3,0-.9.3-.6,1.5.2,1.3Z" transform="translate(-56.65 -561.6)"/></svg>