<svg id="Layer_1" data-name="Layer 1" xmlns="http://www.w3.org/2000/svg" viewBox="0 0 125.21 178.91"><defs><style>.cls-1{fill:#b5005c;}.cls-2{fill:none;stroke:#000;stroke-miterlimit:10;stroke-width:0.1px;}.cls-3{fill:#b50087;}</style></defs><title>Pullover</title><g id="_Group_" data-name="&lt;Group&gt;"><path class="cls-1" d="M50.1,164h0a145.74,145.74,0,0,1,2.8-21.9,18.37,18.37,0,0,0,.5-5.2h-.1a83.28,83.28,0,0,1,2.5-16.5,26.82,26.82,0,0,1,2.4-6.7,11.63,11.63,0,0,1,4.3-4.5l.1.2a35.08,35.08,0,0,1,9-2.9,58.78,58.78,0,0,1,10.3-.6c1.7,0,3.3,0,5-.1v.4a76.76,76.76,0,0,1,8.5,7.7,27.59,27.59,0,0,1,4.3,5.4l.4.2a32.59,32.59,0,0,1,4.3-5.5,77.71,77.71,0,0,1,8.5-7.7v-.4c1.7,0,3.3,0,5,.1a71.18,71.18,0,0,1,10.3.6,31.59,31.59,0,0,1,9,2.9l.1-.2a11.36,11.36,0,0,1,4.3,4.4,26.82,26.82,0,0,1,2.4,6.7,91.19,91.19,0,0,1,2.4,16.5h-.1a15.43,15.43,0,0,0,.6,5.2,162.14,162.14,0,0,1,2.9,21.9h-.1c1,7.2,2,14.4,3,21.5.3,2.2.6,4.3.8,6.5.2,2,.2,4.1.4,6.1a72.88,72.88,0,0,0,2,12.4h-.1c.6,13.2,1.6,26.5,3,39.7h.1c.4,10.3,1.3,20.6,2.5,30.8h0c-2.6.3-5.2.5-7.9.8a15.81,15.81,0,0,0-4.8,1l-.5-.1c-.1-1.3-.3-2.5-.4-3.8l-.3-3c-.1-.9-.2-1.9-.3-2.9-.3-2.6-.6-5.1-.9-7.7h0c-.1-1.4-.2-2.7-.3-4.1a27.33,27.33,0,0,0-.5-4c-.2-1-.5-2-.6-3a30.88,30.88,0,0,1-.1-4.3,66.43,66.43,0,0,0-1-9.9c-.2-1.2-.4-2.5-.6-3.7-.1-.8-.3-1.7-.4-2.5-.2-1-.4-1.9-.6-2.9-.3-1.8-.6-3.7-.8-5.5-.8-5.6-1.5-11.3-2.3-16.9l.6-.1a184.61,184.61,0,0,0-7.7-30.1,23,23,0,0,1-1-3.5c-.2-.9-.2-1.9-.4-2.8h-.7c-.2,3.9-.4,7.7-.6,11.6-.2,2.9-.3,5.8-.5,8.7-.3,5.9-.7,11.8-.8,17.7-.1,5.5,0,11,.1,16.5,0,2.5.1,5,.1,7.5.1,4.8.2,9.7,1.6,14.2l.1.7c1.6,6.8,3.3,13.7,4.9,20.5a.45.45,0,0,0,.3.4h0l-9.4,2.7a43.91,43.91,0,0,1-5.2,1.3c-1.3.2-2.7.3-4,.4-4.9.3-9.8.7-14.8,1.1a42.84,42.84,0,0,1-6.2.2c-4.2-.2-8.3-1.5-12.4-1.6-1.8-.1-3.7,0-5.5,0-4.8-.1-9.5-1.4-14.1-2.6v-.8c.1,0,.3-.2.4-.4,2.1-7.3,4.3-14.6,6.4-21.9h-.2c1.4-4.6,1.5-9.4,1.6-14.2,0-2.5.1-5,.1-7.5.1-5.5.2-11,.1-16.5-.1-5.9-.4-11.8-.8-17.7-.2-2.9-.3-5.8-.5-8.6-.2-3.9-.4-7.7-.6-11.6h-.7a27,27,0,0,0-.4,2.8,20.14,20.14,0,0,1-1,3.5,184.6,184.6,0,0,0-7.7,30.1l.6.1c-.8,5.6-1.5,11.3-2.3,16.9-.3,1.8-.5,3.7-.8,5.5-.2,1-.4,1.9-.6,2.9a21.66,21.66,0,0,0-.4,2.5c-.2,1.2-.4,2.5-.6,3.7A83.27,83.27,0,0,0,55,250a30.88,30.88,0,0,1-.1,4.3c-.1,1-.4,2-.6,3a25.72,25.72,0,0,0-.5,4c-.1,1.4-.2,2.7-.3,4.1h0c-.3,2.6-.6,5.1-.8,7.7-.1,1-.2,1.9-.3,2.9l-.3,3c-.1,1.3-.3,2.5-.4,3.8l-.5.2a12.87,12.87,0,0,0-4.8-1c-2.6-.3-5.2-.5-7.8-.8h0c1.2-10.2,2.1-20.5,2.5-30.8h.1c1.4-13.2,2.3-26.4,3-39.7h-.1a74.51,74.51,0,0,0,2-12.4c.1-2,.2-4.1.4-6.1.2-2.2.5-4.4.8-6.5C48.2,178.4,49.1,171.2,50.1,164Z" transform="translate(-37.59 -104.8)"/><path class="cls-2" d="M63.4,270.4l.1.1c.1,0,.3-.2.4-.4,2.1-7.3,4.3-14.6,6.4-21.9h0" transform="translate(-37.59 -104.8)"/><path class="cls-2" d="M54,264.3c0-.2-.3,0-.3.2s-.1.6-.1.9h0c-.3,2.6-.6,5.1-.8,7.7-.1,1-.2,1.9-.3,2.9l-.3,3c-.1,1.3-.3,2.5-.4,3.8" transform="translate(-37.59 -104.8)"/><path class="cls-2" d="M51.1,282.9a12.87,12.87,0,0,0-4.8-1c-2.6-.3-5.2-.5-7.8-.8" transform="translate(-37.59 -104.8)"/><path class="cls-2" d="M38.5,281.3v-.2c1.2-10.2,2.1-20.5,2.5-30.8v-.9" transform="translate(-37.59 -104.8)"/><path class="cls-2" d="M70.1,171.4v.5c.2,3.9.4,7.7.6,11.6.2,2.9.3,5.8.5,8.6.3,5.9.6,11.8.8,17.7.1,5.5,0,11-.1,16.5,0,2.5-.1,5-.1,7.5-.1,4.8-.2,9.7-1.6,14.2" transform="translate(-37.59 -104.8)"/><path class="cls-2" d="M69.4,171.9a27,27,0,0,0-.4,2.8,20.14,20.14,0,0,1-1,3.5,184.6,184.6,0,0,0-7.7,30.1c0,.2-.1.5-.1.7" transform="translate(-37.59 -104.8)"/><path class="cls-2" d="M60.8,208.5c-.8,5.6-1.5,11.3-2.3,16.9-.3,1.8-.5,3.7-.8,5.5-.2,1-.4,1.9-.6,2.9a21.66,21.66,0,0,0-.4,2.5c-.2,1.2-.4,2.5-.6,3.7a83.27,83.27,0,0,0-1.1,9.9,30.88,30.88,0,0,1-.1,4.3c-.1,1-.4,2-.6,3a25.72,25.72,0,0,0-.5,4c-.1,1.4-.2,2.7-.3,4.1" transform="translate(-37.59 -104.8)"/><path class="cls-2" d="M41.1,250.3c1.4-13.2,2.3-26.4,3-39.7" transform="translate(-37.59 -104.8)"/><path class="cls-2" d="M43.7,211.8c.1-.4.2-.8.3-1.1a74.51,74.51,0,0,0,2-12.4c.1-2,.2-4.1.4-6.1.2-2.2.5-4.4.8-6.5,1-7.2,2-14.4,3-21.5,0-.2.1-.4.1-.6" transform="translate(-37.59 -104.8)"/><path class="cls-2" d="M50.1,164A145.88,145.88,0,0,1,53,142.1a18.37,18.37,0,0,0,.5-5.2" transform="translate(-37.59 -104.8)"/><path class="cls-2" d="M53.4,137.9v-1a83.28,83.28,0,0,1,2.5-16.5,26.82,26.82,0,0,1,2.4-6.7,11.63,11.63,0,0,1,4.3-4.5c.2-.1.5-.3.7-.4" transform="translate(-37.59 -104.8)"/><path class="cls-2" d="M62.7,109.5a35.08,35.08,0,0,1,9-2.9A58.78,58.78,0,0,1,82,106c1.7,0,3.3,0,5-.1h.9" transform="translate(-37.59 -104.8)"/><path class="cls-2" d="M86.9,106.3a76.76,76.76,0,0,1,8.5,7.7,27.59,27.59,0,0,1,4.3,5.4" transform="translate(-37.59 -104.8)"/><path class="cls-2" d="M145.8,264.5c0-.2.3,0,.3.2s.1.6.1.9c.3,2.6.6,5.1.9,7.7.1,1,.2,1.9.3,2.9l.3,3c.1,1.3.3,2.5.4,3.8" transform="translate(-37.59 -104.8)"/><path class="cls-2" d="M148.7,283.1a12.87,12.87,0,0,1,4.8-1c2.6-.3,5.2-.5,7.9-.8" transform="translate(-37.59 -104.8)"/><path class="cls-2" d="M161.3,281.5v-.2c-1.2-10.2-2.1-20.5-2.5-30.8v-.9" transform="translate(-37.59 -104.8)"/><path class="cls-2" d="M129.7,171.6v.5c-.2,3.9-.4,7.7-.6,11.6-.2,2.9-.3,5.8-.5,8.7-.3,5.9-.7,11.8-.8,17.7-.1,5.5,0,11,.1,16.5,0,2.5.1,5,.1,7.5.1,4.8.2,9.7,1.6,14.2" transform="translate(-37.59 -104.8)"/><path class="cls-2" d="M130.4,172.2a27,27,0,0,1,.4,2.8,20.14,20.14,0,0,0,1,3.5,184.6,184.6,0,0,1,7.7,30.1,1.7,1.7,0,0,1,.1.7" transform="translate(-37.59 -104.8)"/><path class="cls-2" d="M139,208.7c.8,5.6,1.5,11.3,2.3,16.9.3,1.8.5,3.7.8,5.5.2,1,.4,1.9.6,2.9a21.66,21.66,0,0,1,.4,2.5c.2,1.2.4,2.5.6,3.7a66.43,66.43,0,0,1,1,9.9,30.88,30.88,0,0,0,.1,4.3c.1,1,.4,2,.6,3a25.72,25.72,0,0,1,.5,4c.1,1.4.2,2.7.3,4.1" transform="translate(-37.59 -104.8)"/><path class="cls-2" d="M158.7,250.5c-1.3-13.2-2.3-26.4-3-39.7" transform="translate(-37.59 -104.8)"/><path class="cls-2" d="M156.1,212c-.1-.4-.2-.8-.3-1.1a74.51,74.51,0,0,1-2-12.4c-.1-2-.2-4.1-.4-6.1-.2-2.2-.5-4.4-.8-6.5-1-7.2-2-14.3-3-21.5,0-.2-.1-.4-.1-.6" transform="translate(-37.59 -104.8)"/><path class="cls-2" d="M149.7,164.2a145.88,145.88,0,0,0-2.9-21.9,18.48,18.48,0,0,1-.6-5.2" transform="translate(-37.59 -104.8)"/><path class="cls-2" d="M146.4,138.1a3.4,3.4,0,0,0-.1-1,91.19,91.19,0,0,0-2.4-16.5,26.82,26.82,0,0,0-2.4-6.7,10.73,10.73,0,0,0-4.3-4.4c-.2-.1-.5-.3-.7-.4" transform="translate(-37.59 -104.8)"/><path class="cls-2" d="M137.1,109.7a36.38,36.38,0,0,0-9-2.9,58.78,58.78,0,0,0-10.3-.6c-1.7,0-3.3,0-5-.1h-.9" transform="translate(-37.59 -104.8)"/><path class="cls-2" d="M112.9,106.5a76.76,76.76,0,0,0-8.5,7.7,29,29,0,0,0-4.3,5.5" transform="translate(-37.59 -104.8)"/><path class="cls-2" d="M135,269.9h0c-.2.1-.3-.1-.4-.3-1.6-6.8-3.3-13.7-4.9-20.5" transform="translate(-37.59 -104.8)"/><path class="cls-2" d="M63.5,271.3a56.56,56.56,0,0,0,14.1,2.6c1.8,0,3.7-.1,5.5,0,4.2.2,8.3,1.4,12.4,1.6a42.83,42.83,0,0,0,6.2-.2c4.9-.4,9.8-.7,14.8-1.1,1.3-.1,2.7-.2,4-.4,1.7-.3,3.4-.8,5.2-1.3l9.4-2.7h0" transform="translate(-37.59 -104.8)"/></g><path class="cls-1" d="M73.7,137.6c-.4.1-1.2,0-1.5.1s-.9-.7-.5.1c.3,1,.5,2,.8,3v-.6c-.3,1-.5,2-.8,3,.1-.2.2-.3.3-.5-3.7-.5-7.3-1-11-1.4.1.3.1.6.2.8v-3.2l-.3.9c.5-.9,1-1.8,1.5-2.6.2-.1.5-.3.7-.4,1,.3,2,.5,3,.8.7.3.6,1.4,0-.3a12.27,12.27,0,0,0-1.2-2.6c-1.7-3.1-5.3-3.4-8.2-2.2-3.1,1.4-3.6,5.5-4.4,8.4-2,7.5,9.5,10.6,11.6,3.2.6-2.2,1.3-4.5,1.9-6.7,2.1-7.5-9.1-10.4-11.6-3.2-.5,1.3-.9,2.6-1.3,4,3.9,1.1,7.7,2.1,11.6,3.2a25.85,25.85,0,0,1,.9-4c2-6.4-8.1-10.9-11-4.6a15.36,15.36,0,0,0-1.2,3.4c-.5,3.2.8,6.5,4.2,7.4a6.14,6.14,0,0,0,7.4-4.2,22.39,22.39,0,0,0,.7-4.4c.4-5.9-8.5-8.3-11.2-3a20.25,20.25,0,0,0-1.4,3.4c-2.4,7.4,9.2,10.5,11.6,3.2.1-.2.1-.3.2-.5l-11.2-3a3.08,3.08,0,0,1-.3,1.3c3.9,1.1,7.7,2.1,11.6,3.2V139c-3.7-1.5-7.3-3.1-11-4.6a25.85,25.85,0,0,0-.9,4c-.4,3.2.8,6.4,4.2,7.4a6.14,6.14,0,0,0,7.4-4.2c.4-1.3.9-2.6,1.3-4-3.9-1.1-7.7-2.1-11.6-3.2-.6,2.2-1.3,4.5-1.9,6.7,3.9,1.1,7.7,2.1,11.6,3.2.2-.8.5-2.8.7-3.2l-2.2,2.2c.1,0,.2-.1.3-.1-2.7-.7-5.5-1.4-8.2-2.2.9,1.7,1.2,3.6,2.6,5.1a9.37,9.37,0,0,0,6.9,3,8.59,8.59,0,0,0,8.4-10.7c-1.4-5.3-8.1-5.5-11-1.4-2.8,3.9-.2,8.5,3.3,10.8a15.06,15.06,0,0,0,11.9,1.7c7.7-2.4,4.6-13.9-2.9-11.9Z" transform="translate(-37.59 -104.8)"/><path class="cls-1" d="M147.2,141.2v-.3c.1.5.1,1.1.2,1.6v-1.4c-.1.5-.1,1.1-.2,1.6a7.37,7.37,0,0,1,.4-1.4c-.2.5-.4,1-.6,1.4.1-.3.3-.5.4-.8l-11.2-3a17.71,17.71,0,0,1,0,4.6c3-1.7,6-3.5,9-5.2-.1,0-.1-.1-.2-.1l2.2,2.2c0-.1-.1-.1-.1-.2.2.5.4,1,.6,1.4,0-.1,0-.2-.1-.2a6.1,6.1,0,0,0-7.4-4.2,6.18,6.18,0,0,0-4.2,7.4,6.61,6.61,0,0,0,3.2,4.1,6,6,0,0,0,6.1,0c2-1.2,2.7-3,3-5.2a17.71,17.71,0,0,0,0-4.6,6.57,6.57,0,0,0-1.3-3.6,6.15,6.15,0,0,0-3.1-2.2,6.24,6.24,0,0,0-6.8,2.8,10.19,10.19,0,0,0-1.4,3.4,12.52,12.52,0,0,0,0,5.1,5.92,5.92,0,0,0,2.8,3.6,5.75,5.75,0,0,0,4.6.6,6,6,0,0,0,3.6-2.8c.2-.5.4-1,.6-1.4a7,7,0,0,0-.1-3.2Z" transform="translate(-37.59 -104.8)"/><path class="cls-1" d="M154.7,275.4a5,5,0,0,0,5.3,4.3,17.09,17.09,0,0,1-1.4-1.1,4.55,4.55,0,0,0,.8,1.9c.8,1.1,2.9.8,2.8-.8a68.48,68.48,0,0,0-.7-7.8c-.6-4-2.1-7.8-1.3-11.8-1-.1-2-.3-2.9-.4.1,2.2.2,4.5.3,6.7.1,1.9,3,1.9,3,0A66.35,66.35,0,0,0,159,253c-.4-1.9-3.3-1.1-2.9.8a66.72,66.72,0,0,1,1.5,12.6h3c-.1-2.2-.2-4.5-.3-6.7-.1-1.6-2.6-2.1-2.9-.4-1.3,6.6,1.5,13.8,1.9,20.5.9-.3,1.9-.5,2.8-.8a11.73,11.73,0,0,0-.5-1.1,1.6,1.6,0,0,0-1.4-1.1l-2.4-2.1a1.59,1.59,0,0,0-3.1.7Z" transform="translate(-37.59 -104.8)"/><path class="cls-3" d="M38.7,274.9c4.3.7,8.7,1.3,13,2a.62.62,0,0,0,.3-1.2c-4.3-.7-8.7-1.3-13-2-.7-.1-1.1,1.1-.3,1.2Z" transform="translate(-37.59 -104.8)"/><path class="cls-3" d="M38.9,281.1h.5c-.1-.3-.3-.7-.4-1a4.33,4.33,0,0,1,.5.1c-.1.2-.3.5-.4.7h.4c0-.4-.1-.7-.1-1.1-.1-.2-.3-.4-.4-.6.4,0,.7-.1,1.1-.1,0-.2.1-.3.1-.5-.3-.2-.6-.3-.9-.5v.4l1.1-.3a.6.6,0,0,1,.1-.4c-.3,0-.6-.1-.9-.1a2.35,2.35,0,0,1,.8-.2c-.3-.2-.6-.5-.9-.7a.1.1,0,0,1-.1.1c.3.2.5.4.8.6.1-.2.1-.4.2-.6-.1-.3-.3-.7-.4-1-.3.4,2.8,1.4,3.2,1.5.1-.4.1-.8.2-1.2a10.08,10.08,0,0,1-2.5-.3c-.1.4-.1.8-.2,1.2a15.67,15.67,0,0,1,5.6,1.6c.2-.4.3-.7.5-1.1a9.53,9.53,0,0,1-2.7-.9c-.2.4-.3.7-.5,1.1,2,.4,3.9.8,5.9,1.3v-1.2c-2,.5-4.2-.1-6.2-.5a.62.62,0,0,0-.3,1.2c1.3.4,2.4.9,3.7,1.4v-1c-1.3.9-3.4,0-4.7-.4l-.3,1.2a22.89,22.89,0,0,1,2.8.8v-1.2a4,4,0,0,1-3.2.1l-.3,1.2c.8.2,1.5.3,2.3.5V280c-.7-.1-1.4-.1-2.1-.2l-.3,1.2c.6.1,1.2.3,1.8.4.1-.4.1-.8.2-1.2a16.05,16.05,0,0,1-3.1,0c-.7-.1-.7,1-.2,1.2a7.62,7.62,0,0,0,2,.6.62.62,0,1,0,.3-1.2c.2.1.5.1.7.2v-1.2a7.46,7.46,0,0,0,1.2-.7c.1-.4.3-.4.7-.2,1.3-.3,2.1-.7,3.8.2,0-.3-.1-.6-.1-.9-.7.6-3.4-1.4-3.7-1.7,0,.3-.1.6-.1.9,1.4-.8,4.1.4,5.6.9a3.55,3.55,0,0,0-.4-.9c-.2.4-3.7-.8-4.1-1-.1.4-.1.8-.2,1.2,1.3.1,2.7.4,3.9.4a12.49,12.49,0,0,1-2.9-.6c-.1.4-.1.8-.2,1.2.3,0,4.1.6,3.8,1.1s-3.4-.8-3.8-.9l-.3,1.2a7.17,7.17,0,0,1,2.1.5c1,.5-2.5-.7-2.5-.7-.2.4-.3.7-.5,1.1,1,.3,2,.7,3,1,.1-.4.1-.8.2-1.2a8.75,8.75,0,0,1-3.6-.5c-.1.4-.1.8-.2,1.2a6.45,6.45,0,0,1,2,.3c.1-.4.1-.8.2-1.2a11.53,11.53,0,0,1-2.6-.3,5.2,5.2,0,0,0-1.5-3.8c-.2.3-.3.6-.5.9,1.5,0,2.9.1,4.4.1.7,0,.8-1.1.2-1.2-1.4-.3-2.7-.6-4.1-1-.1.4-.1.8-.2,1.2a14.58,14.58,0,0,1,5.1.6c.1-.4.1-.8.2-1.2-.4-.1-.9-.1-1.3-.2l-.3,1.2c2.1.6,4.1,1.3,6.2,2v-1.2c-.2,0-.4-.1-.7-.1-.1.3-.3.7-.4,1a5.16,5.16,0,0,0,1.1.2c.6.3,1.3-.5.7-.9a4,4,0,0,0-2.6-1c.1.4.2.7.3,1.1.5-.1.9-.1,1.4-.2v-1.2a17,17,0,0,1-2.2-.4c-.1.4-.2.7-.3,1.1,1.3,0,1.7,1.7,1.5,2.8.4.1.8.1,1.2.2.2-.3.3-.7.5-1-.3-.2-.7-.4-1-.6-.3,1.1-.6,2.3-1.7,2.5a7.84,7.84,0,0,1-2.2-.2c-.8-.1-.8,1.1,0,1.2l2.8.3c.7.1.8-1.1.2-1.2a56.17,56.17,0,0,1-8.9-1.8c-.1.4-.1.8-.2,1.2a9.08,9.08,0,0,1,4,.6V280a3.21,3.21,0,0,1-3.8-2c.2-.3.4-.7.6-1-.2-.2-.3-.4-.5-.6s-.7-.4-1-.6c0,.3.6,0,.1-.4-.1-.1-.4-.4-.4-.5a.6.6,0,0,0-1,.3c-1,3.3,8.5,6.6,10.9,6.3a.59.59,0,0,0,.5-.9,4.87,4.87,0,0,0-.4-1.1c-.3.2-.7.4-1,.6a4.88,4.88,0,0,1,.3.7c.4-.2.7-.3,1.1-.5-.1-2,.5-2.9,1.8-2.6v-1.2c-.2-.1-.3-.2-.5-.2,0,.3-.1.6-.1.9.2-.1.5-.2.7-.3.7-.1.5-1.1-.2-1.2a70.38,70.38,0,0,1-10.4-1.4c-.9-.2-1.8-.3-2.2.8-1.2,3.1,5.1,5.3,7.1,5.7a.62.62,0,0,0,.3-1.2,11.14,11.14,0,0,1-4.5-1.9c-.5-.3-2.1-1.5-.7-2.1.2-.1.8.3,1,.3,3,.7,6.3.6,9.3.8-.1-.4-.1-.8-.2-1.2a2.11,2.11,0,0,0-1,.4c-.3.2-.4.7-.1.9a1.2,1.2,0,0,0,1.3.6.6.6,0,0,0,0-1.2c-3.1-.2-4.1,1.6-2.9,4.4.3.6,1.3.2,1.1-.5a2.28,2.28,0,0,0-.6-1.2c-.4-.5-1.1,0-1,.6a2.39,2.39,0,0,0,.5,1.4c.2-.3.3-.6.5-.9-1.5.1-10.3-2.8-9.7-4.8-.3.1-.7.2-1,.3.4.4.3,1.1.7,1.5.1.2.4.2.6.2.7-.2.9-.6,1-1.3a.61.61,0,0,0-1-.6c-1.2.9-.4,2,.7,2.5.7.3,1.3-.7.6-1-1.4-.7-2.1.5-1.7,1.8.7,2.1,3.3,2.8,5.2,2.5.6-.1.5-1,0-1.2a12.91,12.91,0,0,0-4.3-.7.62.62,0,0,0-.2,1.2,52,52,0,0,0,8.9,1.8c.1-.4.1-.8.2-1.2l-2.8-.3v1.2c.9.1,2.8.6,3.6,0s1.2-2.4,1.5-3.2a.61.61,0,0,0-1-.6,2.24,2.24,0,0,0-.8,1.9c0,.7,1.1.8,1.2.2.5-2.6.5-4.4-2.7-4.3a.58.58,0,0,0-.3,1.1,4.23,4.23,0,0,0,3.1.5c.6-.1.5-1,0-1.2a2.67,2.67,0,0,0-2.3.3.59.59,0,0,0,.3,1.1c.6.2,1.2.4,1.7.6.2-.3.5-.6.7-.9-.9-.5-.8-.5-1.7-.4a.58.58,0,0,0-.4,1,1.43,1.43,0,0,0,1.8.4.63.63,0,0,0,0-1.2c-2-.7-4.1-1.4-6.2-2a.62.62,0,0,0-.3,1.2,3,3,0,0,0,1.6.2.62.62,0,0,0,.2-1.2,16.37,16.37,0,0,0-5.4-.7.62.62,0,0,0-.2,1.2,30.59,30.59,0,0,0,4.1,1c.1-.4.1-.8.2-1.2-1.5-.1-2.9-.1-4.4-.1a.59.59,0,0,0-.5.9c.6.9,1.4,2.1,2.6,2.2a.55.55,0,0,0,.5-.3c1.2-2.3-3.3-2.4-3.3-.3s4,2.8,3.3.4c-.1-.2-.2-.4-.4-.4-1-.2-2.5,0-2.4,1.4,0,1.9,3.7,1.7,4.9,1.8a.62.62,0,0,0,.2-1.2,18.46,18.46,0,0,0-2.3-.4c-.7-.1-.8,1-.2,1.2a9,9,0,0,0,4,.5.62.62,0,0,0,.2-1.2c-1-.3-2-.7-3-1-.6-.2-1.1.8-.5,1.1,1.3.6,4.4,1.9,5.4.3a.62.62,0,0,0-.1-.7c-.9-1-2.7-1.4-4-1.6a.62.62,0,0,0-.3,1.2c.9.3,5.1,2.1,5.4,0s-3.8-2.6-5.1-2.5a.62.62,0,0,0-.2,1.2c1.3.5,4.6,1.5,5.1-.4.1-.3,0-.5-.3-.7-1.5-.9-3.8-.9-5.5-1a.62.62,0,0,0-.2,1.2c1,.4,4.8,2,5.5.4.2-.4,0-.7-.4-.9-1.8-.6-4.6-1.8-6.5-.8-.3.2-.4.7-.1.9,1.3,1,3.8,3,5.4,1.7a.56.56,0,0,0-.1-.9c-1.2-.6-5.1-1.8-5.5.4-.3,1.3,2.1,2.7,3.2,2.5a.43.43,0,0,0,.4-.4c.5-2.1-2.6-3.4-4.2-2.9-.2.1-.4.2-.4.4-.2,1.2,1.1,3.1,2.5,2.5a.55.55,0,0,0,.4-.6,2.92,2.92,0,0,0-2.8-2.7.55.55,0,0,0-.5.3c-1.8,3.4,4.3,2.9,1.9.5s-4.7,3.8-.8,2.8c.5-.1.6-1.1,0-1.2-.8-.1-2-.3-2.3.8-.2.8.3,1.2.9,1.4l.3-1.2a15.19,15.19,0,0,1-2-.6c-.1.4-.1.8-.2,1.2a16.05,16.05,0,0,0,3.1,0c.6-.1.9-1,.2-1.2s-1.2-.3-1.8-.4c-.8-.2-1,.9-.3,1.2a4.45,4.45,0,0,0,2.8.2c.6-.1.6-1,0-1.2-.8-.2-1.5-.3-2.3-.5a.62.62,0,1,0-.3,1.2,5.81,5.81,0,0,0,3.9-.1c.6-.2.6-.9,0-1.2a12.9,12.9,0,0,0-2.8-.8.62.62,0,0,0-.3,1.2c1.6.4,4.1,1.3,5.7.2a.61.61,0,0,0,0-1,31.21,31.21,0,0,0-3.9-1.5l-.3,1.2c2.2.4,4.6,1.1,6.8.5.6-.1.6-1,0-1.2-1.9-.5-3.9-.9-5.9-1.3-.6-.1-1.1.8-.5,1.1a11.11,11.11,0,0,0,2.9,1c.6.1,1.1-.8.5-1.1a19.06,19.06,0,0,0-6.2-1.7c-.7-.1-.8,1-.2,1.2,1,.2,1.9.3,2.8.4a.62.62,0,0,0,.2-1.2c-1.1-.4-3.9-1.9-4.2.2a.68.68,0,0,0,.4.6c.1,0,.2.1.3.1a.48.48,0,0,0,.6-.2l.2-.2c.3-.3.1-1.1-.4-1-1.2.1-1.3.7-1.4,1.8a.64.64,0,0,0,.8.6c.6-.2.7-.3.9-.9a.62.62,0,0,0-.9-.7c-1,.6-1,1.7.1,2.1a.48.48,0,0,0,.6-.2c.1-.1.1-.2.2-.3a.62.62,0,0,0,.1-.7c-.1-.1-.1-.2-.2-.3-.2-.3-.7-.4-.9-.1a1.51,1.51,0,0,0-.3,1.9.58.58,0,0,0,1.1-.3v-.4a.59.59,0,0,0-.9-.5,1.53,1.53,0,0,0-.6,2.2c.2.5.9.3,1.1-.1,0-.1.1-.1.1-.2a.48.48,0,0,0-.2-.6l-.2-.2a.62.62,0,0,0-.7-.1c-1.4.7-1.4,2.1-.5,2.7.3.1.5.2.7,0s.2-.1.4-.2a.62.62,0,0,0-.1-1.1,1.08,1.08,0,0,0-1.1,0,.57.57,0,0,0-.4.7.87.87,0,0,0,1.5.4.58.58,0,0,0-.4-1H39a.6.6,0,1,0-.1,1.2Z" transform="translate(-37.59 -104.8)"/><path class="cls-3" d="M147.8,278c2.5-.4,5-.5,7.5-.7a17.21,17.21,0,0,1,3.2-.2c1.8.2,1.5,1,1.2,2.7.4.1.8.1,1.2.2a8.85,8.85,0,0,0,0-2.3c-.4.1-.8.1-1.2.2.2.6.5,1.1.7,1.7a.62.62,0,0,0,1.2-.3c-.1-.5-.3-1-.4-1.6s-1.1-.5-1.2.2c-.1,1.1.1,1.9-1.4,2.6-.6.3-2-.1-2.7-.1a22.68,22.68,0,0,0-3.5-.5c-1.1.1-2.8,1.4-3.2-.6.2-.3.4-.5.6-.8-.1,0-.2-.1-.4-.1-.2.3-.5.6-.7.9a5.75,5.75,0,0,0,3.2.6l-.6-.6c0,.1,0,.2-.1.2h1a7.57,7.57,0,0,0,1.5-.1c0-.4.1-.7.1-1.1l-2.9-.6c-.1.3-.2.7-.3,1,.8-.2,3.1.1,3.3-.2.6.1.5,0-.5-.2a5,5,0,0,1-2.4-.9c-.1.4-.2.7-.3,1.1,1.3-.1,4.6-.2,5.1,1.4.2-.3.4-.5.6-.8-3.5-.1.7-.3,1.1,1l.7-.7c.8-.5,1.7-1.1,2.5-1.6.2.3.4.5.6.8.1-.4.3-.8.4-1.2l-1.1-.3c0,1.7.5,3.1-1.7,3.7-.9.2-2.1-.3-3-.2-2,.1-3.8.9-5.8.9-.8,0-.7,1.1,0,1.2,1.4.2,2.9.1,4.3.3a3.36,3.36,0,0,0,2.6-.5c.6-.3.2-1-.3-1.1-1.4-.2-7.7-2.2-7.2.6.3-.2.7-.4,1-.6-.2-.4-.5-.8-.7-1.2l-.8.8c.1-.1.1-.2.2-.3-.2.3-.4.5-.6.8.1,0,.2.1.3.1a.61.61,0,0,0,.5,1.1c2.4-.6,4.4-2.3,6.8-2.6,2.2-.3,3.3-.3,4.9-2.1.3-.3.1-1.1-.4-1a33.91,33.91,0,0,1-7.8,0c-.7-.1-.7.9-.2,1.2,1.6.7,3.2,0,4.8.6,0-.4-.1-.7-.1-1.1-1.8,1.3-4.7.8-6.7.5-.1.4-.1.8-.2,1.2l4.7.6c.8.1.8-1.1,0-1.2l-4.7-.6c-.7-.1-.8,1.1-.2,1.2,2.4.3,5.6.9,7.7-.6a.62.62,0,0,0-.1-1.1c-1.6-.6-3.2.1-4.8-.6-.1.4-.1.8-.2,1.2a33.91,33.91,0,0,0,7.8,0c-.1-.3-.3-.7-.4-1-1.6,1.9-3.9,1.4-6,2.2-1.8.6-3.3,1.8-5.2,2.3.2.4.3.7.5,1.1.7-.5.8-.6.8-1.5a.55.55,0,0,0-.3-.5c-1.7-1-2.9,1.2-1.3,1.6s1.6-1.9-.1-2a.64.64,0,0,0-.6.8c.7,2.3,3.5.3,1.6-1-.6-.4-1,.3-.8.8.8,1.9,3.4.7,2.4-.7s-3,.6-1.5,2.1c.5.5,1.1,0,1-.6,0,.3,5.6.8,6.1.9-.1-.4-.2-.7-.3-1.1-1.1.6-2.4,0-3.5,0a13.09,13.09,0,0,1-2.8,0v1.2a21.42,21.42,0,0,0,4.3-.7c1.9-.4,3.9.4,5.7-.1,2.3-.6,1.8-2.9,1.8-4.8a.59.59,0,0,0-1.1-.3,4,4,0,0,0-.6,1.5c-.1.4.2.7.6.8h.2a.55.55,0,0,0,.5-.3c0-.1.1-.1.1-.2a.64.64,0,0,0,0-.6c-.7-1.1-2.7-1.4-3,.2a1.11,1.11,0,0,0,2,.9c.7-1.2-1.1-2.2-2.2-1.5a1.38,1.38,0,0,0,.6,2.6.68.68,0,0,0,.6-.4c.6-1.6-1.9-3-3.2-2.2-2,1.1.2,2.8,1.5,3.1.4.1.9-.3.7-.7-.6-1.8-5.3-3.3-6.1-1.2a.48.48,0,0,0,.2.6,6.07,6.07,0,0,0,3.7,1.2.64.64,0,0,0,.6-.8c-.7-2.3-4.3-2.5-6.3-2.3-.6.1-.9.8-.3,1.1,1.3.7,3.8,2.1,5.1.7a1.07,1.07,0,0,0,.2-.6c-.8-1.9-3.7-1.5-5.3-1a.64.64,0,0,0-.3,1,4.13,4.13,0,0,0,4,.9.59.59,0,0,0,.1-1.1,3.78,3.78,0,0,0-3.1-.6.55.55,0,0,0-.4.6c-.2,1.9,3.7,3.1,4.1.9.5-2.4-3.8-2.3-3,.4.6,2.1,3.5,1.2,2.5-.6-.8-1.6-4.4-1-3.3,1.1a.61.61,0,0,0,1,0c.2-.3.3-.4.2-.8a.58.58,0,0,0-.6-.6,4.29,4.29,0,0,1-2.5-.4.57.57,0,0,0-.7.9,1.22,1.22,0,0,0,1.2.5c.4,0,.6-.3.6-.8-.5-2.8-4.2-.5-2.3,1.4s3.7-1.9,1.4-2.3a1.53,1.53,0,0,0-1.7,1.5c.1,1.3,2.3,2.2,3.4,2.1,2.6-.2,1.1-3.9-.5-2.7a.91.91,0,0,0-.3.7c.4,2.2,6.1,2,7.6,2,.9,0,2,.1,2.7-.6.9-.9.3-2,.4-3.2-.4.1-.8.1-1.2.2.1.5.3,1,.4,1.6l1.2-.3c-.2-.6-.5-1.1-.7-1.7s-1.3-.6-1.2.2a8.85,8.85,0,0,1,0,2.3c-.1.7,1.1.8,1.2.2.2-1.4.8-3.7-.8-4.3a11.5,11.5,0,0,0-3.2.2c-1,.1-2.1.1-3.1.2q-3.15.15-6.3.6c-.7-.4-.4.8.4.6Z" transform="translate(-37.59 -104.8)"/><path class="cls-3" d="M65.2,266.5c4.1,1.9,8.9,2.1,13.4,2.7,6.5.8,13,1.2,19.6,1.4a89,89,0,0,0,15.5-.5c6.3-.9,12.2-3.2,18.5-4.1.8-.1.4-1.3-.3-1.2-5.2.7-9.9,2.3-15,3.5-5.5,1.3-11.1,1.2-16.7,1.1-5.2-.1-10.5-.4-15.7-.9-6-.5-13.1-.5-18.6-3.1-.8-.2-1.4.8-.7,1.1Z" transform="translate(-37.59 -104.8)"/><path class="cls-3" d="M68.4,270.7c1.5-.3,1.9-1.5,1.3-2.9a1.22,1.22,0,0,0-1-.6,2.27,2.27,0,0,0-1.6.6c-1.6,1.4,1,1.4,1,1.3-.6.3-1.2.7-1.8,1-.6-.4-.2-.9-1.1-1.5a4.48,4.48,0,0,0-1.2.1c.5.6.9,1.2,1.4,1.8,1.5-2.6,4.7-.4,7,.1a35.14,35.14,0,0,0,7.2.7l-.3-2.4a34.5,34.5,0,0,1-12.4-.4c-1.1-.2-2.1,1.1-1.2,2,1.8,1.6,3.6,1.8,5.9,1.9q7.2.3,14.4.3c1.1,0,1.7-1.7.6-2.2a32.38,32.38,0,0,0-5.2-1.9c-.2.8-.4,1.5-.6,2.3,3.2.7,6.5,1.5,9.7,2.2.2-.8.4-1.5.6-2.3a27.69,27.69,0,0,1-4.1-1.2c-.2.8-.4,1.5-.6,2.3a19.52,19.52,0,0,1,4,1l.3-2.4c-1.4,0-2.8,0-4.2-.1s-1.6,1.9-.3,2.4a39,39,0,0,0,4.6,1.2,1.19,1.19,0,1,0,.6-2.3,28.06,28.06,0,0,0-3.1-.8,1.19,1.19,0,0,0-.6,2.3c3.6,1.1,6.8,1.9,10.6,1.6,1.1-.1,1.8-1.7.6-2.2a34.12,34.12,0,0,0-7.6-2.6l-.3,2.4a13.66,13.66,0,0,1,4.9.5v-2.3l-1.1.3c-1.1.3-1.2,2.1,0,2.3,2.1.4,4.2.7,6.3,1.1V272c-1.1.2-2.2.4-3.2.5-1.3.2-1,2.4.3,2.4,9-.1,17.6-.7,26.3-3,1.9-.5,11.4-1.8,7.6-5.8-.9-1-2.5.3-1.9,1.5a10.93,10.93,0,0,1,.8,1.5,1.22,1.22,0,0,0,2.2-.3,5.85,5.85,0,0,0,.2-1.3c-.6.2-1.2.5-1.8.7a4.18,4.18,0,0,0-.4-1l2.4.3v-1l-2.4.3c.6,2.8-10.5,3.9-12.3,4.3-1.2.2-1.1,2,0,2.3,4.7,1.2,8.6-1.9,12-4.7.8-.6.2-2.2-.8-2-10.6,1.3-21.5,5.7-32.4,3.5-1.5-.3-2.2,2-.6,2.3l10.1,2.1c.2-.8.4-1.5.6-2.3l-7.6-1.5-.3,2.4c6.8-.2,13.8.2,20.5-.9,3.7-.6,11.3-2,13.5-5.5a1.28,1.28,0,0,0-.7-1.8c-.1,0-.1,0-.2-.1a1.2,1.2,0,0,0-1.4.6c-.3.6-.1,1-.1,1.8-.1,1.7,1,1.3-1.6,1.9-1.5.3-.9,2.6.6,2.3,1.1-.2,3.1-.3,3.7-1.4,1.1-2-.3-2.2-1.7-2.7-.2-.6-.5-1.2-.7-1.8-1.1,1.8-5.3,2.8-7.1,3.3a44.93,44.93,0,0,1-8.9,1.6c-5.3.4-10.6.2-15.9.4-1.3,0-1.7,2.1-.3,2.4l7.6,1.5c1.5.3,2.2-2,.6-2.3l-10.1-2.1c-.2.8-.4,1.5-.6,2.3,11.2,2.2,22.1-2.1,33-3.4-.3-.7-.6-1.4-.8-2-2.6,2.2-5.9,5.1-9.7,4.1v2.3c4.4-.9,8.8-1.8,13.2-2.6a1.27,1.27,0,0,0,.8-.8,4.75,4.75,0,0,0,0-3.7,1.24,1.24,0,0,0-2.4.3v1c0,1.4,1.9,1.5,2.4.3,0-.1,0-.1.1-.2a1.2,1.2,0,0,0-.6-1.4c-.1,0-.2-.1-.3-.1a1.28,1.28,0,0,0-1.8.7,5.85,5.85,0,0,0-.2,1.3l2.2-.3a10.93,10.93,0,0,1-.8-1.5c-.6.5-1.3,1-1.9,1.5-.6-.6-12.7,3.2-14.4,3.5a118.32,118.32,0,0,1-17.8,1.2l.3,2.4c1.1-.2,2.2-.4,3.2-.5a1.21,1.21,0,0,0,0-2.3c-2.1-.4-4.2-.7-6.3-1.1v2.3l1.1-.3a1.2,1.2,0,0,0,0-2.3,25.73,25.73,0,0,0-5.5-.6c-1.3,0-1.7,2.1-.3,2.4a33.77,33.77,0,0,1,7,2.3c.2-.7.4-1.5.6-2.2-3.5.3-6.6-.5-9.9-1.5-.2.8-.4,1.5-.6,2.3a28.06,28.06,0,0,0,3.1.8c.2-.8.4-1.5.6-2.3a34.47,34.47,0,0,1-4.6-1.2l-.3,2.4c1.4.1,2.8.1,4.2.1a1.23,1.23,0,0,0,.3-2.4,18,18,0,0,0-4-1,1.19,1.19,0,0,0-.6,2.3,19.31,19.31,0,0,0,4.1,1.2c1.5.3,2.2-2,.6-2.3-3.2-.7-6.5-1.5-9.7-2.2a1.19,1.19,0,0,0-.6,2.3,25.42,25.42,0,0,1,4.6,1.7c.2-.7.4-1.5.6-2.2-2.9,0-5.8,0-8.7-.1-2.6-.1-7.9.6-10-1.3-.4.7-.8,1.3-1.2,2a37.1,37.1,0,0,0,13.7.4c1.4-.2,1-2.3-.3-2.4a28.45,28.45,0,0,1-8.2-1.1c-1.4-.4-3.2-1.5-4.6-1.5-2.2.1-2.4,1.2-3.5,2.9-.6,1,.4,1.9,1.4,1.8s1.8.3,2.8.1a1.27,1.27,0,0,0,.8-.8c.1-.2.1-.4.2-.6.2-.6-.1-1-.6-1.4-.1-.1-.3-.2-.4-.3-.7-.6-1.8.2-1.8,1,.2,5.5,5.6-1.5,2.1-.8-1.5-.2-.8,2.1.7,1.8Z" transform="translate(-37.59 -104.8)"/><path d="M63.3,271.7a86.5,86.5,0,0,0,17.6,2.2c6.4.3,12.5,1.8,18.9,1.7,11.9-.1,24.3-.7,35.3-5.6.7-.3.1-1.3-.6-1-11.2,4.9-24.3,5.6-36.4,5.4-5.2-.1-10.2-1.4-15.4-1.6a101.64,101.64,0,0,1-19.1-2.2c-.7-.2-1.1,1-.3,1.1Z" transform="translate(-37.59 -104.8)"/><path d="M64.1,271.1c1.9-6,4.1-12.1,5.5-18.3a131.08,131.08,0,0,0,2.2-15.3c.1-.8-1.1-.8-1.2,0-1.4,11.6-4.2,22.1-7.7,33.3-.2.7.9,1,1.2.3Z" transform="translate(-37.59 -104.8)"/><path d="M71.9,238.3c0-11.5,0-23.1.2-34.6a.6.6,0,1,0-1.2,0c-.2,11.5-.1,23.1-.2,34.6a.6.6,0,0,0,1.2,0Z" transform="translate(-37.59 -104.8)"/><path d="M71.9,204.4c-.7-10.6-1.3-21.1-1.8-31.7a.6.6,0,1,0-1.2,0c.5,10.6,1.1,21.1,1.8,31.7a.6.6,0,1,0,1.2,0Z" transform="translate(-37.59 -104.8)"/><path d="M69.8,173.4l.3-.9-1.2-.3c-2.1,9.4-5.8,18.4-7.7,27.9-1.8,9.1-2.3,18.4-3.3,27.6-.1.8,1.1.8,1.2,0,1-9.7,1.5-19.6,3.6-29.1,2-8.8,5.3-17.3,7.3-26.1a.62.62,0,1,0-1.2-.3l-.3.9c-.1.7,1.1,1,1.3.3Z" transform="translate(-37.59 -104.8)"/><path d="M58.2,226.8c-3.2,18.5-4.7,37.2-6.5,55.8-.1.8,1.1.8,1.2,0,1.8-18.6,3.3-37.1,6.5-55.5,0-.8-1.1-1.1-1.2-.3Z" transform="translate(-37.59 -104.8)"/><path d="M38.8,281.9,52,283.7c.8.1.8-1.1,0-1.2l-13.2-1.8c-.8-.1-.8,1.1,0,1.2Z" transform="translate(-37.59 -104.8)"/><path d="M43.5,231.8c-.1-12.8,2.6-25.1,3.4-37.8.1-.8-1.1-.8-1.2,0-.9,12.7-3.5,25-3.4,37.8a.6.6,0,1,0,1.2,0Z" transform="translate(-37.59 -104.8)"/><path d="M47.2,194.7c1.7-16.3,3.3-32.5,5.3-48.8.1-.8-1.1-.8-1.2,0-2,16.2-3.5,32.5-5.3,48.8-.1.7,1.1.7,1.2,0Z" transform="translate(-37.59 -104.8)"/><path d="M141.4,114.4c3.6,7.9,4.1,16.7,5.2,25.2,1,7.8,2.1,15.6,3.1,23.4.1.8,1.3.8,1.2,0l-3.6-26.7c-1-7.6-1.7-15.4-5-22.5-.2-.7-1.2-.1-.9.6Z" transform="translate(-37.59 -104.8)"/><path d="M149.5,162c.5,8.6,2,17.2,2.8,25.7a203.26,203.26,0,0,0,3.4,24.5c.2.8,1.3.4,1.2-.3-1.9-8.6-2.7-17.3-3.5-26-.7-8-2.2-15.9-2.7-23.9-.1-.8-1.3-.8-1.2,0Z" transform="translate(-37.59 -104.8)"/><path d="M155.5,211.3c.2,12.9,1.6,25.8,3,38.7.1.8,1.3.8,1.2,0-1.4-12.8-2.8-25.8-3-38.7a.6.6,0,1,0-1.2,0Z" transform="translate(-37.59 -104.8)"/><path d="M158.7,249.4c1,10.6,1.9,21.2,2.9,31.9.1.8,1.3.8,1.2,0-1-10.6-1.9-21.2-2.9-31.9-.1-.8-1.3-.8-1.2,0Z" transform="translate(-37.59 -104.8)"/><path d="M161.4,281.5c-.7-1-4.9.1-5.8.2-2.2.2-4.3.4-6.5.5a.6.6,0,0,0,0,1.2,95.71,95.71,0,0,0,11.9-1.1c.9-.2,2.1-.6,1.2-1.7-.5-.5-1.3.3-.8.9Z" transform="translate(-37.59 -104.8)"/><path d="M148.7,282.7a1.27,1.27,0,0,0-.1-.6c-.4.1-.8.1-1.2.2,0,.3.1.6.1.9.1.7,1.2.5,1.2-.2-.5-6.2-1-12.4-1.5-18.7-.5-5.4-2.2-11-1.8-16.4.1-.8-1.1-.8-1.2,0-.4,5.5,1.3,10.9,1.8,16.4.5,6.2,1,12.4,1.5,18.7.4-.1.8-.1,1.2-.2,0-.3-.1-.6-.1-.9-.1-.7-1.3-.5-1.2.2a1.27,1.27,0,0,0,.1.6c.1.7,1.3.7,1.2,0Z" transform="translate(-37.59 -104.8)"/><path d="M145.5,248.5c-2.6-12.6-5.2-25.7-5.5-38.6a.6.6,0,1,0-1.2,0c.3,13,2.9,26.2,5.5,38.9a.62.62,0,1,0,1.2-.3Z" transform="translate(-37.59 -104.8)"/><path d="M139.8,211.8a129.58,129.58,0,0,0-3.4-19.6c-1.9-6.7-2.9-13.5-5.1-20-.2-.7-1.4-.4-1.2.3,2,6.1,2.9,12.4,4.7,18.5a133.73,133.73,0,0,1,3.9,20.8c0,.8,1.2.8,1.1,0Z" transform="translate(-37.59 -104.8)"/><path d="M129.4,171.6c-2.2,14.5-2.4,29.4-2.9,44.1a.6.6,0,1,0,1.2,0c.5-14.5.7-29.4,2.9-43.8.1-.7-1-1-1.2-.3Z" transform="translate(-37.59 -104.8)"/><path d="M126.9,215.4c.1,9.4-.6,19.3.8,28.6,1.3,8.4,4.1,16.8,6.2,25,.2.7,1.4.4,1.2-.3-2.2-8.7-5.3-17.7-6.4-26.6s-.5-17.9-.6-26.7a.6.6,0,0,0-1.2,0Z" transform="translate(-37.59 -104.8)"/><path d="M38.8,281.2c.7-8.9,1.4-17.7,2.1-26.6.6-7.6,2.3-15.1,2.4-22.8a.6.6,0,1,0-1.2,0c-.1,7.6-1.8,15.2-2.4,22.8-.7,8.9-1.4,17.7-2.1,26.6-.1.7,1.1.7,1.2,0Z" transform="translate(-37.59 -104.8)"/><path d="M52.2,146.5c1.1-9.4,1.4-20.4,4.8-29.4,4.6-11.9,18.8-10.5,29.2-11.1a.6.6,0,1,0,0-1.2c-9.1.5-22-.8-28.1,7.5-3.3,4.5-3.9,10.5-4.7,15.9-1,6.1-1.8,12.2-2.5,18.3.1.8,1.3.8,1.3,0Z" transform="translate(-37.59 -104.8)"/><path d="M86.8,106.2c-.1.1,6.2,5.4,6.7,5.9a54.55,54.55,0,0,1,6.1,7.4c.5.6,1.5,0,1-.6a63.78,63.78,0,0,0-6.6-8c-1.4-1.3-2.9-2.5-4.4-3.7-.9-.7-1.8-1.8-2.9-2.1-.2-.1-.4,0-.6.2l-.1.1c-.5.5.3,1.3.8.8Z" transform="translate(-37.59 -104.8)"/><path d="M100.6,119.6a97.57,97.57,0,0,1,12.6-13.1c.6-.5-.3-1.3-.8-.8a97.57,97.57,0,0,0-12.6,13.1c-.5.6.3,1.4.8.8Z" transform="translate(-37.59 -104.8)"/><path d="M113,106.9c4-1.1,10.9-.3,14.9.4,5.2.9,10.9,2.7,13.4,7.6a.58.58,0,1,0,1-.6c-2.4-4.7-7.4-6.7-12.3-7.8a38.31,38.31,0,0,0-8.9-.8c-2.8,0-5.7-.7-8.4.1-.7.1-.4,1.3.3,1.1Z" transform="translate(-37.59 -104.8)"/></svg>