<svg id="Layer_1" data-name="Layer 1" xmlns="http://www.w3.org/2000/svg" viewBox="0 0 90.27 47.76"><defs><style>.cls-1{fill:#fbff05;}</style></defs><title>Rain</title><path class="cls-1" d="M61.6,568.3a1.38,1.38,0,0,0-.4-.3l-1.8,1.8-.3-.3a16,16,0,0,0,.5-2.1,24.26,24.26,0,0,1,2-1.4c1.3-.6.7-2.9-.8-2.8-.5,0-.9.1-1.4.1.1,1,.3,2,.4,2.9a25.84,25.84,0,0,1,12.3-2.1v-3H66.6c.1,1,.3,2,.4,2.9,4.9-2,16.7,3.4,14.9-5.1-1.1-5.6-1.3-11.5-1.7-17.2-.2-3.7,1.2-9.6-1-12.8L77.1,531c5,2.6,11.7,1,17.2.7a23.06,23.06,0,0,1-1.4-1.9A39.4,39.4,0,0,0,90.1,542c-.1,1.7,2.6,2.1,2.9.4.4-2.3.7-4.6.9-7,.1-1.9-2.8-1.9-3,0-.3,2.8-.5,5.5-.8,8.3-.2,1.7,2.7,2.1,2.9.4.5-3,1.1-6,1.6-9-1-.3-1.9-.5-2.9-.8-1,6.6-2.7,13.5-2.4,20.2.1,1.6,2.5,2.1,2.9.4a45.1,45.1,0,0,0,.9-11.6h-3a23.65,23.65,0,0,1-.1,6.5c-.3,1.9,2.4,2.7,2.9.8a24,24,0,0,0,.8-8,1.5,1.5,0,0,0-3,0c-.5,6.3-1,12.6-1.5,19a30.56,30.56,0,0,1-1.7,8.5c-.6,1.4-.9,1.9-.4,3.3a1.4,1.4,0,0,0,1.8,1c2.1-.6,3.8-.6,4.3-2.9.4-2-.5-4.9-.5-7.1a47.66,47.66,0,0,1,.8-10c-1-.1-2-.3-2.9-.4,0,1.3,1.5,12.7.3,13.2-1.8.8-4.9-11.6-5.4-13.1-1.4-4.4-3.6-8-3.2-12.8.2-3,1.2-6.7-.6-9.4a1.46,1.46,0,0,0-1.3-.7H80a1.5,1.5,0,0,0-1.4,1.1c0,.1-.1.2-.1.3-.4.9.6,1.9,1.4,1.9l11.4.3a23.06,23.06,0,0,1-1.4-1.9c-2.5,10.2-3.4,20.6-4.1,31.1h3c-.7-5.6-1.9-11.5-1.8-17.2a25.42,25.42,0,0,1,1.6-8.2c1-2.8,2.7-3.9,4.1-6.2a1.5,1.5,0,0,0-1.7-2.2c-4.1,1.3-10.5,2.1-11.8,7.1-.8,2.8-.2,9.3,2.3,11.1a1.49,1.49,0,0,0,2.2-.9,121.84,121.84,0,0,0,3-11.9c-1-.1-2-.3-2.9-.4-.7,5.3-1.2,10.7-1.5,16.1,1-.1,2-.3,2.9-.4a59.73,59.73,0,0,1-.3-15.8c.2-1.7-2.6-2-2.9-.4a64.11,64.11,0,0,0-1.5,10.7c1-.1,2-.3,2.9-.4a46.31,46.31,0,0,1-1.2-9.1c-1,.1-2,.3-2.9.4a41.41,41.41,0,0,1,2.5,12.1c.1,1.6,2.6,2.2,2.9.4a71.3,71.3,0,0,1,2.3-9.1H84.1c.8,4.5-.8,8.9.2,13.4.4,1.8,2.8,1.2,2.9-.4.4-3.3.8-6.7,1.2-10h-3c-.1,3.9-.1,7.7-.2,11.6,0,2,2.8,1.9,3,0,.1-1.2.2-2.5.3-3.7-.7-.3-1.5-.6-2.2-.9,1.2,4.4-1.1,8.7,1.3,12.8a1.57,1.57,0,0,0,2.4.3c.3-.4.7-.7,1-1.1-.9-.4-1.7-.7-2.6-1.1a7.62,7.62,0,0,1-.9,4.2,25.11,25.11,0,0,0,2.7-.4c-.8-1.1-.5-3.5-1-4.8a14.28,14.28,0,0,0-1.5-2.7,57.78,57.78,0,0,0-5.5-8.4c-.8-1-2.1-.3-2.5.7-1.8,4.4,2,12.2,3.6,16.3l2.7-1.2a20.21,20.21,0,0,1-1.4-7.7c-1,.1-2,.3-2.9.4.6,3.1.8,6.6,1.9,9.6.3.9,1.3,2,1.5,2.7.3.4.3.4,0-.1a1.67,1.67,0,0,0-1.9-1c-3-1-6.3-.6-9.3-.5a22.63,22.63,0,0,1-12.2-2.8,25.12,25.12,0,0,1-.4,2.7,49.55,49.55,0,0,1,12.5-3,47,47,0,0,1,5.3-.2c2.9-.1,2.4.1,2.1,2.8-.2,1.9,2.8,1.9,3,0,.5-4.3.2-5.6-4.2-5.8a49.75,49.75,0,0,0-19.5,3.3c-1.1.4-1.6,2.1-.4,2.7,4,2,7.3,3.4,11.8,3.3,3-.1,5.9-.6,8.9,0,1.6.3,3.9,1.6,5.5,1.2a2.49,2.49,0,0,0,2-3c-.4-1.6-1.9-2.9-2.4-4.6-.7-2.7-1-5.5-1.5-8.2-.3-1.7-3-1.3-2.9.4a24.82,24.82,0,0,0,1.8,9.3c.7,1.5,3.4.4,2.7-1.2-1.3-3.4-5.1-11-3.6-14.7a23.35,23.35,0,0,0-2.5.7,40.69,40.69,0,0,1,5.8,9c.9,2.1.4,4.4,1.7,6.3a1.48,1.48,0,0,0,2.7-.4,12.08,12.08,0,0,0,1-5,1.56,1.56,0,0,0-2.6-1.1c-.3.4-.7.7-1,1.1l2.4.3c-2.1-3.6.1-8.2-1-12.1a1.47,1.47,0,0,0-2.2-.9c-2,1.4-1.6,4-1.8,6.3h3c.1-3.9.1-7.7.2-11.6,0-2-2.8-1.9-3,0-.4,3.3-.8,6.7-1.2,10,1-.1,2-.3,2.9-.4-1-4.5.6-8.9-.2-13.4-.3-1.6-2.5-1.3-2.9,0a71.3,71.3,0,0,0-2.3,9.1c1,.1,2,.3,2.9.4-.4-4.4-.9-8.7-2.6-12.9-.6-1.4-3-1.4-2.9.4a47.13,47.13,0,0,0,1.3,9.9c.4,1.7,2.9,1.2,2.9-.4a47.26,47.26,0,0,1,1.4-9.9c-1-.1-2-.3-2.9-.4a61.47,61.47,0,0,0,.4,16.6c.3,1.7,2.9,1.2,2.9-.4.3-5.4.8-10.7,1.5-16.1.2-1.7-2.6-2.1-2.9-.4a79.72,79.72,0,0,1-3,11.9c.7-.3,1.5-.6,2.2-.9-.6-.4-1.2-6.3-1-6.8,1.2-4,6.5-4.8,9.8-5.9-.6-.7-1.1-1.5-1.7-2.2-1.1,1.8-2.8,2.9-3.7,4.9a30.93,30.93,0,0,0-2.2,7.9c-1,6.6.8,13.8,1.6,20.4a1.5,1.5,0,0,0,3,0c.7-10.2,1.6-20.4,4-30.3a1.53,1.53,0,0,0-1.4-1.9l-11.4-.3a23.06,23.06,0,0,1,1.4,1.9c0-.1.1-.2.1-.3a17.11,17.11,0,0,0-1.4,1.1c-.4.1-.9,9.3-.9,10.3.1,2.5,1.2,4.7,2.2,7,2.3,5.3,2.6,11.8,6.3,16.5,1.3,1.7,3.9,4.4,6,2.3,1.1-1.2.8-3.3.7-4.7a111.08,111.08,0,0,1-.8-11.5c0-1.6-2.7-2.1-2.9-.4a66.24,66.24,0,0,0-.9,9.9c0,1.8.6,4,.3,5.7-.3,2.2.7,1.6-1.9,2.3.6.3,1.2.7,1.8,1-.3-.8,1.3-3,1.5-3.9.7-2.5.5-5.5.8-8.1.5-6,1-12,1.4-18h-3a19.43,19.43,0,0,1-.7,7.2c1,.3,1.9.5,2.9.8a25.54,25.54,0,0,0,.2-7.3c-.2-1.9-3-2-3,0a43.37,43.37,0,0,1-.8,10.8c1,.1,2,.3,2.9.4-.3-6.5,1.3-13,2.3-19.4.3-1.9-2.6-2.7-2.9-.8-.5,3-1.1,6-1.6,9,1,.1,2,.3,2.9.4.3-2.8.5-5.5.8-8.3h-3c-.1,2.1-.4,4.1-.7,6.2,1,.1,2,.3,2.9.4a37.22,37.22,0,0,1,2.7-11.4,1.47,1.47,0,0,0-1.4-1.9c-4.5.2-11.5,1.8-15.6-.3-1.2-.6-3,.7-2.1,2.1,1.5,2.2.5,9.5.7,12.2.3,4,.5,8,.9,12,.1,1.2.5,3,.6,4.1,1.1,1.6.8,2.2-.8,1.8H75.7c-3.2,0-7-.7-10,.5a1.48,1.48,0,0,0,.4,2.9h5.5c1.9,0,1.9-2.9,0-3a27.92,27.92,0,0,0-13.1,2.2c-1.4.6-1.5,3.1.4,2.9.5,0,.9-.1,1.4-.1-.3-.9-.5-1.9-.8-2.8-2,1-4.4,3-3.2,5.5a2.91,2.91,0,0,0,4.2,1.1,1.58,1.58,0,0,0,.5-2.1,1.74,1.74,0,0,0-1.5-1.1c-1-.2-2.3.7-1.8,1.8.6,1.6.8,1.8,2.5,2.4,2.5,1.1,3.3-1.8,1.4-2.4Z" transform="translate(-55.4 -527.3)"/><path class="cls-1" d="M62.3,566.9a10.07,10.07,0,0,0-3.8.9,1.62,1.62,0,0,0-.7,1.7,4.54,4.54,0,0,0,2,2.7c1.5,1.2,3.5-.7,2.1-2.1a17,17,0,0,0-2.4-2.2c-1-.8-3.1-.1-2.5,1.5,1.6,4.1,7.7,4.1,11.6,4.5a64.2,64.2,0,0,0,19.5-1.7l-1.2-2.7a4.35,4.35,0,0,0-.7-.6c-.7-.6-1.5-1.1-2.2-1.7-.5,1.3-18.3,3.4-19.5,1.9-.3.7-.6,1.5-.9,2.2,4.6-1.5,9.2-2.9,13.8-4,1.6-.4,1.3-3-.4-2.9a28.66,28.66,0,0,0-11.1,2.3,23.08,23.08,0,0,0,1.9,1.4,8.17,8.17,0,0,0,3.8-.2c-.1-1-.3-2-.4-2.9-2.2.8-4.5.3-6.7.9-1.6.4-1.3,3.1.4,2.9,2.3-.2,4.6-.4,6.9-.8,1.2-.2,2.4-.4,3.7-.6,2.3-.4,3.7.3.7-1.5.2.6.5,1.1.7,1.7-.1-.3-.3-.6-.4-.9a25.12,25.12,0,0,0,.4,2.7c1-.7,2-1.4,3-2.2.4.9.7,1.7,1.1,2.6,2.1-2.6,4.9-2.6,6.3-6.1,1.5-3.9,1.2-8.6.7-12.7-.9.3-1.9.5-2.8.8a38.19,38.19,0,0,1,3,9.4c.4,1.8,2.8,1.2,2.9-.4.5-4.8-1-9.5-1.1-14.3-.1-3.4,1.6-8.9-.2-11.9-1.6-2.9-10.3-5.5-12.9-2.9-1.6,1.6-.4,4.9-.1,6.7.5,2.7.7,6,3.2,7.7,5.6,3.9,8-4.3,9.4-8H86.5a36.42,36.42,0,0,1,2.6,10.7,1.52,1.52,0,0,0,2.8.8c2.8-4.4,2.9-9.2,2.8-14.3-.1-1.9-3.1-1.9-3,0,.1,4.5.1,8.8-2.4,12.8.9.3,1.9.5,2.8.8a37.84,37.84,0,0,0-2.7-11.5,1.53,1.53,0,0,0-2.9,0c-.3.9-.8,3.4-1.6,4.1-4.4,3.6-5.1-1.9-5.2-3.8-.1-2.8.2-4.5,3.8-3.1,2.7,1,3.3,2.3,3.6,4.9.4,3.5-.3,7.2,0,10.8s1.3,7.1.9,10.7c1-.1,2-.3,2.9-.4a45.9,45.9,0,0,0-3.3-10.1c-.6-1.3-3-.7-2.8.8.4,3.4,1,8.3-.5,11.5-1.3,2.5-3.9,3.1-5.6,5.2a1.55,1.55,0,0,0,1.1,2.6c2,0,4.3-1.4,3.1-3.7-1.4-2.7-5.7-.9-7.6.3-1,.6-1,2.6.4,2.7,2.5.3,7.8-1.4,5.5-4.9-1.8-2.8-6.3-.3-7.2,2.1a1.48,1.48,0,0,0,.7,1.7c2.4,1.5,6.1.2,7.6-2.1a1.36,1.36,0,0,0,0-1.5c-1-1.3-1.5-1.4-3.1-1.3-4.7.2-9.5,1.7-14.3,2.2.1,1,.3,2,.4,2.9,2.3-.6,4.5-.1,6.7-.9,1.5-.6,1.4-3.1-.4-2.9-2.3.2-6.8,0-6.8,3.2a1.47,1.47,0,0,0,1.9,1.4A28,28,0,0,1,77,567.6c-.1-1-.3-2-.4-2.9a128.5,128.5,0,0,0-13.8,4c-.8.3-1.5,1.4-.9,2.2,2.6,3.5,9.3,1.6,12.9,1.2s10.5.1,12-3.8c.5-1.3-1.1-2.2-2.2-1.7-5.9,3.1-.8,8.6,3.7,5.8a1.49,1.49,0,0,0-1.2-2.7,67.4,67.4,0,0,1-13.5,1.7,45.2,45.2,0,0,1-5.2-.2c-1.3-.1-8-.5-8.7-2.3-.8.5-1.7,1-2.5,1.5a10,10,0,0,1,2.4,2.2l2.1-2.1c-.4-.5-.8-.9-1.2-1.4-.2.6-.5,1.1-.7,1.7a15.94,15.94,0,0,1,3-.6,1.67,1.67,0,0,0-.5-3.3Z" transform="translate(-55.4 -527.3)"/><path class="cls-1" d="M79,571.9c1.8,2,4.1,1.1,6.4,1-.1-1-.3-2-.4-2.9-1.9.4-4.6,1.3-6.5.7s-2.6,2.3-.8,2.9c2.5.7,5.7-.1,8.1-.7,1.6-.4,1.3-3-.4-2.9-1.2.1-3.4,1-4.3-.1-1.2-1.6-3.3.5-2.1,2Z" transform="translate(-55.4 -527.3)"/><path d="M76.9,560.7c-5-1.1-11.9-1-16.7,1.1-2.6,1.1-5.8,4.9-4.5,8,1.6,3.7,8.4,4.2,11.6,4.7a56,56,0,0,0,20-.8c.8-.2.4-1.3-.3-1.2a51.18,51.18,0,0,1-24.6-.3c-2.9-.8-6.1-1.2-5-5.8C58,564,61,563,63,562.3a28.86,28.86,0,0,1,13.7-.5c.6.2.9-1,.2-1.1Z" transform="translate(-55.4 -527.3)"/><path d="M86.3,572.9c-.3,2.6,3.9,1.5,5.2,1.4,3.3-.3,2.9-.9,2.9-4.4a354,354,0,0,1,1.9-41.2c.1-.8-1.1-.8-1.2,0-.8,8.3-1.4,16.6-1.7,24.9-.1,3.8-.2,7.7-.2,11.5,0,1.5.6,4.3,0,5.8q-.75,2.85-3.3,2.4a2.11,2.11,0,0,1-2.4-.3.6.6,0,1,0-1.2-.1Z" transform="translate(-55.4 -527.3)"/><path d="M76.7,561.6c1.2.1,2.4.1,3.7.2a.6.6,0,0,0,0-1.2c-1.2-.1-2.4-.1-3.7-.2a.6.6,0,0,0,0,1.2Z" transform="translate(-55.4 -527.3)"/><path d="M79.8,561a188.09,188.09,0,0,1-2.5-32.7.6.6,0,0,0-1.2,0,191.53,191.53,0,0,0,2.5,33c.1.8,1.3.5,1.2-.3Z" transform="translate(-55.4 -527.3)"/><path d="M76.3,529.3c3.1-.2,6.1.3,9.2.4a77.19,77.19,0,0,0,9.6-.5c.8-.1.8-1.3,0-1.2a77.19,77.19,0,0,1-9.6.5c-3.1-.1-6.1-.7-9.2-.4-.8.1-.8,1.3,0,1.2Z" transform="translate(-55.4 -527.3)"/><path class="cls-1" d="M140.2,570.8c1.6-.5,1.8-.8,2.5-2.4a1.46,1.46,0,0,0-1.8-1.8,1.74,1.74,0,0,0-1.5,1.1,1.58,1.58,0,0,0,.5,2.1c1.5.8,3.4.7,4.2-1.1,1.2-2.5-1.3-4.6-3.2-5.5-.3.9-.5,1.9-.8,2.8.5,0,.9.1,1.4.1,1.8.2,1.8-2.4.4-2.9a28.13,28.13,0,0,0-13.1-2.2c-1.9.1-1.9,3,0,3h5.5a1.48,1.48,0,0,0,.4-2.9c-2.8-1.1-6.2-.6-9.1-.5h-2.7c-1.6.4-1.8-.2-.8-1.8,0-1.3.5-2.8.6-4.1.4-3.7.6-7.3.8-11,.1-2,.3-4,.3-5.9s-.8-5.6.4-7.3c.9-1.3-.8-2.7-2.1-2.1-4.2,2.1-11.1.5-15.6.3a1.47,1.47,0,0,0-1.4,1.9,37.22,37.22,0,0,1,2.7,11.4c1-.1,2-.3,2.9-.4a43.58,43.58,0,0,1-.7-6.2h-3c.3,2.8.5,5.5.8,8.3,1-.1,2-.3,2.9-.4-.5-3-1.1-6-1.6-9-.3-1.9-3.2-1.1-2.9.8,1,6.4,2.5,13,2.3,19.4,1-.1,2-.3,2.9-.4a39.39,39.39,0,0,1-.8-10.8c0-2-2.8-1.9-3,0a25.54,25.54,0,0,0,.2,7.3c1-.3,1.9-.5,2.9-.8a19.43,19.43,0,0,1-.7-7.2h-3c.4,6,.9,12,1.4,18a68.2,68.2,0,0,0,.7,7.9c.2.9,1.8,3.4,1.5,4.1.6-.3,1.2-.7,1.8-1-2.4-.6-1.9.3-1.9-2.3,0-1.9.3-3.8.3-5.7a66.25,66.25,0,0,0-.9-9.9c-.3-1.7-3-1.3-2.9.4,0,3.9-.5,7.6-.8,11.5-.1,1.4-.4,3.6.7,4.7,2.1,2.1,4.7-.6,6-2.3,3.7-4.7,4-11.1,6.3-16.5a22,22,0,0,0,2.2-7c.1-1.1-.4-10.2-.9-10.3a17.11,17.11,0,0,1-1.4-1.1c0,.1.1.2.1.3a23.06,23.06,0,0,0,1.4-1.9l-11.4.3a1.44,1.44,0,0,0-1.4,1.9c2.5,9.9,3.3,20.1,4,30.3a1.5,1.5,0,0,0,3,0c.8-6.5,2.6-13.8,1.6-20.4a30.93,30.93,0,0,0-2.2-7.9c-.9-2-2.6-3.1-3.7-4.9-.6.7-1.1,1.5-1.7,2.2,3,1,9.1,1.9,9.8,5.9.2.9-.3,6.3-1,6.8.7.3,1.5.6,2.2.9a121.84,121.84,0,0,1-3-11.9c-.3-1.6-3.2-1.3-2.9.4.7,5.3,1.2,10.7,1.5,16.1.1,1.6,2.7,2.2,2.9.4a57.76,57.76,0,0,0,.4-16.6c-1,.1-2,.3-2.9.4a54.91,54.91,0,0,1,1.4,9.9c.1,1.6,2.6,2.1,2.9.4a47.13,47.13,0,0,0,1.3-9.9c.1-1.8-2.3-1.8-2.9-.4-1.7,4.1-2.2,8.5-2.6,12.9,1-.1,2-.3,2.9-.4a71.3,71.3,0,0,0-2.3-9.1c-.4-1.3-2.6-1.6-2.9,0-.8,4.5.8,8.9-.2,13.4,1,.1,2,.3,2.9.4-.4-3.3-.8-6.7-1.2-10-.2-1.9-3-2-3,0,.1,3.9.1,7.7.2,11.6h3c-.2-2.3.3-4.8-1.8-6.3a1.47,1.47,0,0,0-2.2.9c-1.1,3.9,1.1,8.5-1,12.1l2.4-.3c-.3-.4-.7-.7-1-1.1a1.54,1.54,0,0,0-2.6,1.1,12.41,12.41,0,0,0,1,5,1.51,1.51,0,0,0,2.7.4c1.3-1.9.8-4.1,1.7-6.3a35.54,35.54,0,0,1,5.8-9,23.35,23.35,0,0,1-2.5-.7c1.5,3.6-2.3,11.3-3.6,14.7-.6,1.6,2.1,2.7,2.7,1.2a24.45,24.45,0,0,0,1.8-9.3c.1-1.7-2.6-2.1-2.9-.4-.5,2.5-.8,5.1-1.4,7.5-.5,1.9-2,3.4-2.4,5.1a2.51,2.51,0,0,0,2,3.2c1.3.3,2.8-.7,4-1,3.2-.8,6.2-.5,9.5-.3,5,.3,8.4-1.1,12.8-3.3,1.3-.6.8-2.3-.4-2.7a50.37,50.37,0,0,0-19.5-3.3c-4.5.2-4.7,1.5-4.2,5.8.2,1.9,3.2,1.9,3,0-.1-1-.2-2-.3-2.9.5,0,1,.1,1.5.1,1.6-.6,4.5,0,6.2.2a48.55,48.55,0,0,1,12.5,3,25.12,25.12,0,0,0-.4-2.7c-4.1,2-7.6,3.1-12.2,2.8-3-.2-6.4-.6-9.3.5-.5.2-1.1.4-1.6.6-.6.9-.7,1.1-.2.5-.1-.3,1.4-2.4,1.5-2.7,1.1-3,1.3-6.5,1.9-9.6-1-.1-2-.3-2.9-.4a20.21,20.21,0,0,1-1.4,7.7l2.7,1.2c1.6-4,5.4-11.9,3.6-16.3-.4-.9-1.7-1.6-2.5-.7a52.83,52.83,0,0,0-5.5,8.4,23.41,23.41,0,0,0-1.5,2.7c-.5,1.4-.2,3.7-1,4.8a25.11,25.11,0,0,1,2.7.4,7.62,7.62,0,0,1-.9-4.2c-.9.4-1.7.7-2.6,1.1.3.4.7.7,1,1.1a1.57,1.57,0,0,0,2.4-.3c2.4-4.2.1-8.4,1.3-12.8-.7.3-1.5.6-2.2.9.1,1.2.2,2.5.3,3.7.2,1.9,3,2,3,0-.1-3.9-.1-7.7-.2-11.6h-3c.4,3.3.8,6.7,1.2,10,.2,1.5,2.6,2.2,2.9.4,1-4.5-.6-8.9.2-13.4h-2.9a71.3,71.3,0,0,1,2.3,9.1c.3,1.8,2.8,1.2,2.9-.4a41.41,41.41,0,0,1,2.5-12.1c-1-.1-2-.3-2.9-.4a46.31,46.31,0,0,1-1.2,9.1c1,.1,2,.3,2.9.4a56.26,56.26,0,0,0-1.5-10.7c-.4-1.6-3.1-1.3-2.9.4a59.73,59.73,0,0,1-.3,15.8c1,.1,2,.3,2.9.4-.3-5.4-.8-10.7-1.5-16.1-1,.1-2,.3-2.9.4a79.72,79.72,0,0,0,3,11.9,1.49,1.49,0,0,0,2.2.9c2.6-1.8,3.1-8.2,2.3-11.1-1.3-4.9-7.8-5.8-11.8-7.1a1.5,1.5,0,0,0-1.7,2.2c1.2,2,3,3.3,3.9,5.5a24.8,24.8,0,0,1,1.8,8.9c.1,5.7-1.2,11.6-1.8,17.2h3c-.7-10.5-1.6-20.9-4.1-31.1a23.06,23.06,0,0,0-1.4,1.9l11.4-.3a1.47,1.47,0,0,0,1.4-1.9c0-.1-.1-.2-.1-.3a1.6,1.6,0,0,0-1.4-1.1h-.4a1.46,1.46,0,0,0-1.3.7c-1.8,2.7-.8,6.4-.6,9.4.4,4.8-1.8,8.4-3.2,12.8-.5,1.5-3.6,13.9-5.4,13.1-1.1-.5.4-11.9.3-13.2-1,.1-2,.3-2.9.4a55,55,0,0,1,.8,9.1c0,2.4-1,5.8-.5,8s2.2,2.3,4.3,2.9a1.51,1.51,0,0,0,1.8-1c.5-1.3.3-1.6-.1-2.9s-1.3-2.6-1.6-4.2a37.25,37.25,0,0,1-.4-4.7c-.5-6.3-1-12.6-1.5-19a1.5,1.5,0,0,0-3,0,24,24,0,0,0,.8,8c.5,1.9,3.2,1.1,2.9-.8a20.26,20.26,0,0,1-.1-6.5h-3a45.1,45.1,0,0,0,.9,11.6,1.48,1.48,0,0,0,2.9-.4c.3-6.7-1.4-13.6-2.4-20.2-1,.3-1.9.5-2.9.8.5,3,1.1,6,1.6,9,.3,1.6,3.1,1.3,2.9-.4-.3-2.8-.5-5.5-.8-8.3-.2-1.9-3.1-1.9-3,0a53.56,53.56,0,0,0,.9,7c.3,1.6,3.1,1.3,2.9-.4a43.24,43.24,0,0,0-2.8-12.2,23.06,23.06,0,0,0-1.4,1.9c5.4.3,12.2,1.8,17.2-.7l-2.1-2.1c-2,2.9-.8,8.3-1,11.8-.3,6-.5,12.3-1.7,18.2-1.7,8.6,10,3.1,14.9,5.1.1-1,.3-2,.4-2.9h-5.5v3a25.84,25.84,0,0,1,12.3,2.1c.1-1,.3-2,.4-2.9-.5,0-.9-.1-1.4-.1a1.52,1.52,0,0,0-.8,2.8,24.26,24.26,0,0,0,2,1.4,16,16,0,0,1,.5,2.1l-.3.3-1.8-1.8a1.38,1.38,0,0,1-.4.3c-1.3.2-.5,3.1,1.3,2.5Z" transform="translate(-55.4 -527.3)"/><path class="cls-1" d="M138,569.3a15.94,15.94,0,0,1,3,.6c-.2-.6-.5-1.1-.7-1.7-.4.5-.8.9-1.2,1.4l2.1,2.1a17,17,0,0,1,2.4-2.2c-.8-.5-1.7-1-2.5-1.5-1.2,2.9-11.2,2.5-13.9,2.4a76.69,76.69,0,0,1-13.5-1.7c-1.6-.3-2.7,1.8-1.2,2.7,4.5,2.7,9.6-2.7,3.7-5.8-1-.5-2.7.4-2.2,1.7,1.5,3.9,8.5,3.4,12,3.8s10.3,2.3,12.9-1.2c.6-.8-.1-1.9-.9-2.2-4.6-1.5-9.2-2.9-13.8-4-.1,1-.3,2-.4,2.9a28,28,0,0,1,10.3,2.2c.9.4,1.9-.6,1.9-1.4,0-3.2-4.5-3-6.8-3.2-1.8-.1-1.9,2.4-.4,2.9,2.2.9,4.4.3,6.7.9.1-1,.3-2,.4-2.9-4.7-.4-9.6-2.1-14.3-2.2-1.5,0-2.1,0-3.1,1.3a1.36,1.36,0,0,0,0,1.5c1.5,2.3,5.2,3.5,7.6,2.1a1.62,1.62,0,0,0,.7-1.7c-.8-2.4-5.4-4.9-7.2-2.1-2.3,3.5,3,5.2,5.5,4.9,1.3-.2,1.4-2.1.4-2.7-1.9-1.1-6.2-3-7.6-.3-1.1,2.3,1.1,3.7,3.1,3.7a1.58,1.58,0,0,0,1.1-2.6c-1.7-2.1-4.4-2.5-5.6-5.2-1.4-3.4-1-7.9-.5-11.5.2-1.5-2.1-2-2.8-.8a38.59,38.59,0,0,0-3.3,10.1c1,.1,2,.3,2.9.4-.4-3.7.5-7.1.9-10.7s-.2-7.2,0-10.8c.2-2.6.8-4,3.6-4.9,3.2-1.2,3.8.2,3.8,3.1,0,2.5-.3,3.1-2.9,3.5-1.8,1-2.7.7-2.9-1-.3-.9-.7-1.8-1-2.7a1.53,1.53,0,0,0-2.9,0,41.86,41.86,0,0,0-2.7,11.5c.9-.3,1.9-.5,2.8-.8-2.5-4-2.5-8.3-2.4-12.8.1-1.9-2.9-1.9-3,0-.2,5.1,0,9.9,2.8,14.3a1.52,1.52,0,0,0,2.8-.8,35.68,35.68,0,0,1,2.6-10.7h-2.9c1.4,3.7,3.8,11.9,9.4,8,2.5-1.7,2.7-5,3.2-7.7.3-1.8,1.5-5.1-.1-6.7-2.6-2.6-11.3.1-12.9,2.9-1.7,3-.1,8.6-.2,11.9-.1,4.8-1.6,9.5-1.1,14.3.2,1.6,2.6,2.2,2.9.4a39.59,39.59,0,0,1,3-9.4c-.9-.3-1.9-.5-2.8-.8-.5,4.1-.8,8.8.7,12.7,1.3,3.5,4.1,3.5,6.3,6.1.4-.9.7-1.7,1.1-2.6,1,.7,2,1.4,3,2.2a25.12,25.12,0,0,1,.4-2.7c-.1.3-.3.6-.4.9.2-.6.5-1.1.7-1.7-2,1.2-2.3.5-.2,1.3a36.91,36.91,0,0,0,4.6.8c2.3.3,4.6.6,6.9.8,1.7.2,2-2.5.4-2.9-2.2-.6-4.5-.1-6.7-.9-.1,1-.3,2-.4,2.9a9.76,9.76,0,0,0,3.8.2,23.08,23.08,0,0,1,1.9-1.4,30.18,30.18,0,0,0-11.1-2.3c-1.7,0-2.1,2.6-.4,2.9a128.5,128.5,0,0,1,13.8,4c-.3-.7-.6-1.5-.9-2.2-1.2,1.6-19-.6-19.5-1.9-.7.6-1.5,1.1-2.2,1.7a4.35,4.35,0,0,1-.7.6l-1.2,2.7a67.22,67.22,0,0,0,19.5,1.7c3.9-.3,9.9-.4,11.6-4.5.6-1.6-1.5-2.2-2.5-1.5a10,10,0,0,0-2.4,2.2c-1.4,1.4.7,3.3,2.1,2.1a4.54,4.54,0,0,0,2-2.7,1.62,1.62,0,0,0-.7-1.7,9.64,9.64,0,0,0-3.8-.9c-1.6.1-2.4,3-.5,3.3Z" transform="translate(-55.4 -527.3)"/><path class="cls-1" d="M119.9,569.3c-.9,1.1-3.1.1-4.3.1-1.7-.1-2,2.6-.4,2.9,2.5.6,5.7,1.4,8.1.7a1.51,1.51,0,0,0-.8-2.9c-1.9.6-4.6-.3-6.5-.7-.1,1-.3,2-.4,2.9,2.3.1,4.6,1.1,6.4-1,1.3-1.3-.8-3.5-2.1-2Z" transform="translate(-55.4 -527.3)"/><path d="M124.5,561.4a26.57,26.57,0,0,1,13.7.5c1.9.6,4.9,2,5.6,4.1,1.5,4.4-2.4,5.1-5,5.8-8,2.3-16.6,2-24.6.3a.62.62,0,0,0-.3,1.2,55.49,55.49,0,0,0,19.9.8c3.1-.5,10.2-1,11.6-4.7,1.2-3-1.8-6.8-4.4-7.9-4.8-2.1-11.8-2.2-16.8-1.1-.7,0-.4,1.1.3,1Z" transform="translate(-55.4 -527.3)"/><path d="M113.6,572.5a2.11,2.11,0,0,1-2.4.3,1.88,1.88,0,0,1-2.5-1.3c-1.4-1.7-.8-3.9-.8-5.9,0-4.2-.1-8.3-.2-12.5-.3-8.3-.9-16.6-1.7-24.9-.1-.8-1.3-.8-1.2,0a377.54,377.54,0,0,1,1.9,41.2c0,3.5-.5,4.1,2.9,4.4,1.4.1,5.5,1.2,5.2-1.4-.1-.7-1.3-.7-1.2.1Z" transform="translate(-55.4 -527.3)"/><path d="M124.4,560c-1.2.1-2.4.1-3.7.2a.6.6,0,0,0,0,1.2c1.2-.1,2.4-.1,3.7-.2.8-.1.8-1.3,0-1.2Z" transform="translate(-55.4 -527.3)"/><path d="M122.5,560.9a182.07,182.07,0,0,0,2.5-33,.6.6,0,0,0-1.2,0,188.84,188.84,0,0,1-2.5,32.7c-.1.7,1,1,1.2.3Z" transform="translate(-55.4 -527.3)"/><path d="M124.8,527.7c-3.1-.2-6.1.3-9.2.4a77.19,77.19,0,0,1-9.6-.5c-.8-.1-.8,1.1,0,1.2a77.19,77.19,0,0,0,9.6.5c3.1-.1,6.1-.7,9.2-.4.7.1.7-1.1,0-1.2Z" transform="translate(-55.4 -527.3)"/></svg>