<svg id="Layer_1" data-name="Layer 1" xmlns="http://www.w3.org/2000/svg" viewBox="0 0 131.2 176.74"><defs><style>.cls-1{fill:#b2a1a1;}</style></defs><title>SpringAutumn</title><path class="cls-1" d="M52.2,205.8a2.57,2.57,0,0,1,3.7-.4,5.2,5.2,0,0,1,1.7,3.8,1,1,0,0,0,.2.7.91.91,0,0,0,1.1.1,3,3,0,0,0,1.2-2c.1-.8,0-1.6.1-2.4a13.11,13.11,0,0,1,1.6-4.7,3.61,3.61,0,0,1-.1,2.5c-1.3,3.6-2.5,7.2-3.8,10.8.6-1.1,1.1-2.2,1.7-3.4a5.37,5.37,0,0,1-.5,2.1,1.9,1.9,0,0,0,.1-1.3A25.21,25.21,0,0,0,56,220" transform="translate(-34.6 -103.96)"/><path class="cls-1" d="M53.9,207.5s2,4.1,2.6,4.4a3.27,3.27,0,0,0,3.3.2,4.46,4.46,0,0,0,2.4-2.8c.9-2.5.4-4.8,1.6-7.3l-4.6-.6c.3,1.7-1.3,4.4-1.8,5.9-.7,2-1.4,4.1-2.1,6.1-.9,2.7,3.3,4.5,4.6,1.9.6-1.1,1.1-2.2,1.7-3.4-1.5-.6-3-1.3-4.6-1.9a5.37,5.37,0,0,1-.5,2.1c1.6.2,3.3.4,4.9.7,0-.4.1-.8.1-1.3.3-2.5-3.5-3.3-4.7-1.3a31.56,31.56,0,0,0-3.4,9c-.7,3.1,4.2,4.5,4.8,1.3a27.18,27.18,0,0,1,2.9-7.8c-1.6-.4-3.1-.8-4.7-1.3,0,.4-.1.8-.1,1.3-.3,3,4,3.2,4.9.7a5,5,0,0,0,.5-2.1c.4-2.6-3.2-4.7-4.6-1.9-.6,1.1-1.1,2.2-1.7,3.4,1.5.6,3,1.3,4.6,1.9,1.5-4.4,4.6-9.9,3.9-14.6-.3-2.1-3.7-2.4-4.6-.6s-2.1,4-2,6c-.4,1.5.4,2.4,2.3,2.6,0-.2-.1-.4-.1-.7a6,6,0,0,0-1.3-2.8A5.37,5.37,0,0,0,50,204c-1.9,2.3,1.7,5.8,3.9,3.5Z" transform="translate(-34.6 -103.96)"/><path class="cls-1" d="M47.9,274.3c1.2.9,2.5,1.8,3.7,2.7a5.24,5.24,0,0,1-2.5.3c1,.1,2.1.1,3.1.2.3,0,.8,0,1-.3a1.7,1.7,0,0,0,.1-.7,63.11,63.11,0,0,1,.4-14.4,64.5,64.5,0,0,1-4.1,11.4c-.6-4.5,2.1-8.7,2.7-13.2.2-2,.1-4,.8-5.8.1,2.3.1,4.7.2,7a34,34,0,0,1,1.6-9c-.2,2.9-.6,5.8-1,8.7" transform="translate(-34.6 -103.96)"/><path class="cls-1" d="M46.6,276.5c1.2.9,2.5,1.8,3.7,2.7.2-1.5.4-3,.6-4.6l-1.8.3c-3.2,0-3.2,4.8,0,5,2.7.1,5.5.7,6.5-2.3.6-1.9-.1-4.4-.1-6.4a68,68,0,0,1,.6-9c.3-2.8-4.2-3.3-4.9-.7a69.21,69.21,0,0,1-3.8,10.8c1.6.4,3.1.8,4.7,1.3-.2-3.6,1.2-6.7,2.1-10.1.7-2.7.6-5.6,1.3-8.3-1.6-.2-3.3-.4-4.9-.7.1,2.3.1,4.7.2,7,.1,3.2,4.8,3.2,5,0a40,40,0,0,1,1.5-8.4c-1.6-.2-3.3-.4-4.9-.7-.2,2.7-.5,5.4-.9,8-.4,3.1,4.4,4.5,4.8,1.3s.8-6.2,1.1-9.4c.3-2.9-4.2-3.3-4.9-.7a53.26,53.26,0,0,0-1.7,9.7h5c-.1-2.3-.1-4.7-.2-7a2.51,2.51,0,0,0-4.9-.7c-.9,3.3-.8,6.7-1.8,10s-1.9,6.2-1.8,9.7c.1,2.3,3.6,3.7,4.7,1.3a74.7,74.7,0,0,0,4.3-12c-1.6-.2-3.3-.4-4.9-.7a68,68,0,0,0-.6,9,14.47,14.47,0,0,0,.1,3.6c1.8.3,2.1.3.8.2-.8,0-1.5-.1-2.3-.1v5a10.55,10.55,0,0,0,3.1-.4,2.56,2.56,0,0,0,.6-4.6c-1.2-.9-2.5-1.8-3.7-2.7-2.7-1.6-5.2,2.7-2.6,4.6Z" transform="translate(-34.6 -103.96)"/><path class="cls-1" d="M55.7,221.6c.9,10.6-.3,21.3-1.5,32,.2-1.4.4-2.9.7-4.3" transform="translate(-34.6 -103.96)"/><path class="cls-1" d="M53.2,221.6c.8,10.7-.3,21.3-1.5,32-.4,3.2,4.6,3.1,5,0l.6-3.6c.6-3.1-4.2-4.5-4.8-1.3-.3,1.6-.6,3.3-.8,4.9h5c1.2-10.6,2.3-21.3,1.5-32-.2-3.2-5.3-3.2-5,0Z" transform="translate(-34.6 -103.96)"/><path class="cls-1" d="M57,213.6c0,.3.1.7.1,1a1.22,1.22,0,0,0,.9-.8,2.64,2.64,0,0,1,.6,2.3,21.72,21.72,0,0,1-.7,2.4,13,13,0,0,0-.2,3.4,47.81,47.81,0,0,1-.9,7.6l-1.2,6.9" transform="translate(-34.6 -103.96)"/><path class="cls-1" d="M54.6,214.3c0,.3.1.7.1,1,.3,2,2.9,2.2,4.2,1.1a6.47,6.47,0,0,1,.9-.8c-1.3-.2-2.6-.3-3.9-.5.5.9-.3,2.4-.4,3.4-.3,1.9-.2,3.8-.4,5.7-.4,3.9-1.2,7.7-1.9,11.6-.5,3.1,4.3,4.5,4.8,1.3a125.8,125.8,0,0,0,2.1-13.7c.3-3.6,1.9-7.6.1-10.8a2.52,2.52,0,0,0-3.9-.5,6.47,6.47,0,0,1-.9.8c1.4.4,2.8.7,4.2,1.1,0-.3-.1-.7-.1-1-.6-3.2-5.4-1.9-4.9,1.3Z" transform="translate(-34.6 -103.96)"/><path class="cls-1" d="M67.2,263.1H64a.37.37,0,0,1-.3-.1c-.2-.1-.1-.4-.1-.6a15.76,15.76,0,0,1,1.6-3.5,13.44,13.44,0,0,1,1.1-1.4,17.79,17.79,0,0,0,1.7-3c.6-1.3,1.2-2.7,1.9-4" transform="translate(-34.6 -103.96)"/><path class="cls-1" d="M67.2,260.6a13.09,13.09,0,0,1-2.8,0,14.31,14.31,0,0,0,1.5,1.1c0-.1-.1-.2-.1-.3.1.6.2,1.3.3,1.9.5-2.1,1.9-3.5,3-5.3a51.77,51.77,0,0,0,3-6.3c1.4-2.9-3-5.4-4.3-2.5-1,2.1-1.8,4.3-3,6.3a32.49,32.49,0,0,0-3,5.1c-.5,1.4-.9,3,.3,4.2s3.6.8,5.3.8c3.1,0,3.1-5-.2-5Z" transform="translate(-34.6 -103.96)"/><path class="cls-1" d="M67.6,257.9a1.27,1.27,0,0,1-1.9-.5,2.44,2.44,0,0,1,0-2.2,21.16,21.16,0,0,1,1.2-2c1.5-2.5,1.4-5.6,2.1-8.4a58.31,58.31,0,0,1,2.5-7A42.68,42.68,0,0,0,75,222.1" transform="translate(-34.6 -103.96)"/><path class="cls-1" d="M67,255.5c2-.3,1.8-.3,2.7-2.3a19.06,19.06,0,0,0,1-3.4,52.81,52.81,0,0,1,2.2-8.7c2.4-6.2,4.4-12.2,4.6-18.9.1-3.2-4.9-3.2-5,0a43.11,43.11,0,0,1-3.4,15c-1.7,4.3-2.3,8.4-3.6,12.7-.8,2.7-3.5,5.2-2.2,8.2.9,2.2,2.9,2.6,5,2.2,3.2-.5,1.8-5.4-1.3-4.8Z" transform="translate(-34.6 -103.96)"/><path class="cls-1" d="M69.7,237.4c1.2-4.2,2.3-8.4,3.5-12.6,1.6-5.8,3.2-11.5,5.9-16.9" transform="translate(-34.6 -103.96)"/><path class="cls-1" d="M72.2,238.1c2.7-9.7,4.8-19.8,9.2-28.9,1.4-2.9-2.9-5.4-4.3-2.5-4.6,9.5-6.9,20-9.7,30.1-.9,3.1,3.9,4.4,4.8,1.3Z" transform="translate(-34.6 -103.96)"/><path class="cls-1" d="M73.5,171.6a20.07,20.07,0,0,1,1.3,4.8,256.23,256.23,0,0,1,2.6,26.1,52.94,52.94,0,0,1-.2,8.9,40,40,0,0,1-1.7,6.6c-.9-2.6-.2-5.5.2-8.2a65.32,65.32,0,0,0,.1-11.7c-.3-5.2-.6-10.3-1-15.5a14.45,14.45,0,0,0-.4-2.9c-.2-.7-.5-1.4-.7-2.1-.3-1.4.2-3-.3-4.3" transform="translate(-34.6 -103.96)"/><path class="cls-1" d="M71.1,172.3c2.7,6.9,2.7,15.4,3.3,22.8.6,7.7,1,14.8-1.4,22.3h4.8c-.8-3.9.5-8.4.6-12.4.1-4.2-.3-8.4-.5-12.6a141.62,141.62,0,0,0-2.2-19.6c-.6-3.2-5.4-1.8-4.8,1.3,1.4,7.2,1.8,14.7,2.2,22.1a91.39,91.39,0,0,1,.2,11.7c-.3,3.8-1.1,7-.3,10.8.5,2.5,4.1,2.2,4.8,0,2.5-7.9,2.2-15.4,1.6-23.6-.6-7.7-.6-16.9-3.5-24.1-1.1-3-5.9-1.7-4.8,1.3Z" transform="translate(-34.6 -103.96)"/><path class="cls-1" d="M80.7,170.7c.3-.2.7,0,1,.3,1.6,1.8,1.7,4.4,1.7,6.8" transform="translate(-34.6 -103.96)"/><path class="cls-1" d="M81.4,173.2c.1,0,.2-.1.3-.1H80.4c.1,0,.2.1.3.1-.4-.2-.7-.4-1.1-.6,1.4,1.2,1.2,3.7,1.2,5.3,0,3.2,5,3.2,5,0A16.84,16.84,0,0,0,85,172c-.8-2.1-2.5-4.4-5-3.6-3,.8-1.7,5.7,1.4,4.8Z" transform="translate(-34.6 -103.96)"/><path class="cls-1" d="M83.3,170.3c0-.1-.1-.2-.1-.3" transform="translate(-34.6 -103.96)"/><path class="cls-1" d="M85.4,169c0-.1-.1-.2-.1-.3a2.47,2.47,0,0,0-3.4-.9,2.58,2.58,0,0,0-.9,3.4c0,.1.1.2.1.3a2.47,2.47,0,0,0,3.4.9,2.58,2.58,0,0,0,.9-3.4Z" transform="translate(-34.6 -103.96)"/><path class="cls-1" d="M80.1,154.5a3.89,3.89,0,0,0,2.6-.6,3.88,3.88,0,0,0,.9-2.3,62,62,0,0,0,.4-12.2" transform="translate(-34.6 -103.96)"/><path class="cls-1" d="M80.1,157c3.5-.1,5.4-1.7,5.9-5.1a52.35,52.35,0,0,0,.4-12.5c-.2-3.2-5.2-3.2-5,0,.1,2.2.2,4.4.1,6.7-.1,1.3.2,5.9-1.5,6-3.1,0-3.1,5,.1,4.9Z" transform="translate(-34.6 -103.96)"/><path class="cls-1" d="M67.5,168.1c-1.4.6-1.8,2.4-1.8,3.9a20.87,20.87,0,0,0,.4,4.3,7.33,7.33,0,0,0,1.4-3.8,8.5,8.5,0,0,0-1.6,6.9,2.38,2.38,0,0,0,.5-1.8,8.92,8.92,0,0,0-1.2,4.5c-.7,6.1-1,12.2-2.7,18.1" transform="translate(-34.6 -103.96)"/><path class="cls-1" d="M65.7,166.3c-3.2,2.5-2.7,7-2,10.6.4,2.2,3.5,2.3,4.6.6a9.75,9.75,0,0,0,1.6-4.4c.4-2.7-2.9-4.5-4.6-1.9a11.91,11.91,0,0,0-2,8.2c.2,2.3,3.3,3.6,4.7,1.3a6.58,6.58,0,0,0,.9-3.1c.2-2.4-3.6-3.5-4.7-1.3-3.2,7-2.3,15.8-4.2,23.2-.8,3.1,4,4.4,4.8,1.3a81,81,0,0,0,1.8-9.6c.5-3.8.2-8.8,1.9-12.4-1.6-.4-3.1-.8-4.7-1.3-.1.2-.1.4-.2.6,1.6.4,3.1.8,4.7,1.3a8,8,0,0,1,1.3-5.6c-1.5-.6-3-1.3-4.6-1.9a5.39,5.39,0,0,1-1.1,3.2l4.6.6c-.3-1.6-.9-4.5.8-5.8,2.5-2-1.1-5.6-3.6-3.6Z" transform="translate(-34.6 -103.96)"/><path class="cls-1" d="M65.1,179.7c.5.2.6.9.5,1.4-.2,2-.4,4.1-.7,6.1" transform="translate(-34.6 -103.96)"/><path class="cls-1" d="M63.9,181.9c.1.1.2.1.3.2l-.9-.9c-.1-.4-.1-.5-.1-.2a1.7,1.7,0,0,1-.1.7,9.85,9.85,0,0,1-.2,1.7c-.1,1.1-.3,2.1-.4,3.2a2.61,2.61,0,0,0,1.7,3.1c1.2.3,2.9-.4,3.1-1.7.3-2,.6-3.9.8-5.9.2-1.8-.1-3.3-1.7-4.4-2.7-1.9-5.2,2.4-2.5,4.2Z" transform="translate(-34.6 -103.96)"/><path class="cls-1" d="M56.6,175.5a12.2,12.2,0,0,1-6.5-1.2,2.09,2.09,0,0,1-.6-.4,3.55,3.55,0,0,1-.4-.9,14.05,14.05,0,0,1,1.5-8.8" transform="translate(-34.6 -103.96)"/><path class="cls-1" d="M56.6,173a10.07,10.07,0,0,1-3-.1,5.73,5.73,0,0,1-1.4-.4c-.9-.3-.5-.1-.6-.6a10.2,10.2,0,0,1,1.3-6.4c1.4-2.9-2.9-5.4-4.3-2.5-1.6,3.3-2.8,7.6-1.6,11.3,1.1,3.5,6.6,4,9.7,3.9,3.1-.3,3.1-5.3-.1-5.2Z" transform="translate(-34.6 -103.96)"/><path class="cls-1" d="M52.3,185.1a131.55,131.55,0,0,0-8,28.2,100.87,100.87,0,0,1,4.9-16.2c1.4-3.5,3-7,3.2-10.7l-2.1,15a21.86,21.86,0,0,0-.3,5.1" transform="translate(-34.6 -103.96)"/><path class="cls-1" d="M49.9,184.4a137.57,137.57,0,0,0-8,28.2c-.5,3.1,4.1,4.5,4.8,1.3a103.45,103.45,0,0,1,4.6-15.3c1.6-4.1,3.2-7.9,3.6-12.3.3-2.8-4.5-3.5-4.9-.7-.9,6.7-2.8,14-2.4,20.8.1,3.2,5.2,3.2,5,0-.3-6.4,1.4-13.2,2.3-19.5-1.6-.2-3.3-.4-4.9-.7-.4,4.5-2.6,8.5-4.1,12.7A105.71,105.71,0,0,0,42,212.5c1.6.4,3.2.9,4.8,1.3a137.57,137.57,0,0,1,8-28.2c1.2-2.8-3.7-4.1-4.9-1.2Z" transform="translate(-34.6 -103.96)"/><path class="cls-1" d="M49.7,236a42.1,42.1,0,0,1-2,6.3,133.77,133.77,0,0,1,1.6-17.9c.7-4.9,1.7-10.1.1-14.8a1.37,1.37,0,0,0-.5-.8,1.94,1.94,0,0,0-1.5-.2l-2,.3a2.93,2.93,0,0,0-1,.3,1.7,1.7,0,0,0-.6,1,15.34,15.34,0,0,0-1.5,6.3c.1,1,.3,2,.5,3,.9,5.5-1.2,11.2,0,16.7" transform="translate(-34.6 -103.96)"/><path class="cls-1" d="M47.3,235.3a58,58,0,0,1-2,6.3c1.6.2,3.3.4,4.9.7.3-8.3,1.9-16.3,2.5-24.5.3-3.9.5-11.5-4.9-11.7s-7.5,3.9-8,8.8c-.3,3.8.8,7.5.5,11.3a41.79,41.79,0,0,0,.1,10.6c.5,3.2,5.3,1.8,4.8-1.3-.8-4.8.6-9.5.3-14.3-.2-2.4-.9-4.7-.4-7.2.5-2.2,1.9-4.3,2.5-.8.8,4.5-.6,9.4-1.2,13.9-.7,5.1-1,10.1-1.2,15.2-.1,3,4,3.2,4.9.7.8-2.1,1.4-4.2,2-6.3.8-3.2-4-4.5-4.8-1.4Z" transform="translate(-34.6 -103.96)"/><path class="cls-1" d="M60.1,112.9" transform="translate(-34.6 -103.96)"/><path class="cls-1" d="M60.1,115.4c3.2,0,3.2-5,0-5s-3.2,5,0,5Z" transform="translate(-34.6 -103.96)"/><path class="cls-1" d="M79.9,117.2c-.1-.1.1-.2.2-.1a10.13,10.13,0,0,1,5.3,7.9c-.4-2.1-.8-4.2-1.3-6.3" transform="translate(-34.6 -103.96)"/><path class="cls-1" d="M82.3,117.9v-.1l-2.4,1.8h.2c-.4-.1-.8-.2-1.3-.3a7.62,7.62,0,0,1,4,5.8c1.6-.2,3.3-.4,4.9-.7-.4-2.1-.8-4.2-1.3-6.3-.7-3.1-5.5-1.8-4.8,1.3.5,2.1.9,4.2,1.3,6.3.5,2.7,5.2,2.2,4.9-.7a13.89,13.89,0,0,0-2.4-6.5c-1.2-1.6-3.4-4-5.6-4a2.58,2.58,0,0,0-2.4,1.8v.1c-.9,3.2,3.9,4.5,4.9,1.5Z" transform="translate(-34.6 -103.96)"/><path class="cls-1" d="M41.1,231.9c0,.2.1.3.1.5a14.24,14.24,0,0,0,.2-4.6,23.62,23.62,0,0,1,1.6-9.1" transform="translate(-34.6 -103.96)"/><path class="cls-1" d="M38.7,232.5c0,.2.1.3.1.5.4,2.4,4.3,2.3,4.8,0a26.64,26.64,0,0,0,.3-6.3,23.79,23.79,0,0,1,1.5-7.4c1.1-3-3.7-4.3-4.8-1.3a26.2,26.2,0,0,0-1.5,6.6c-.2,2.3.2,4.8-.3,7.1h4.8c0-.2-.1-.3-.1-.5-.5-3.2-5.4-1.8-4.8,1.3Z" transform="translate(-34.6 -103.96)"/><path class="cls-1" d="M69.8,145.9c-.6.6-1,1.3-1.6,1.9-.6-.9-1.1-1.7-1.7-2.6q2.4-1.65,1.2-3.6a9.35,9.35,0,0,1-.7-2.2c-.3,1-.6,1.9-.9,2.9-.4.2-.9.3-1.3.5-1-1.5-1.9-3-2.9-4.5l2.6-.6c.2-2.7-3.7-3.8-5.7-2.1-.2.2-.6.3-.8.5,1.6.4,3,.7,4.6,1.1a4.17,4.17,0,0,0-.6-.8,3.47,3.47,0,0,0-4.1-2.1c-.2,0-.4.1-.7.1,1.1.3,2.1.5,3.2.8-.7-.5.4-7,.7-8a21,21,0,0,1,3.1-9.3,13.47,13.47,0,0,1,7-5.6c2.9-.9,5.8-.1,8.8-.4-1-.5-1.9-1-2.9-1.5,3.1,6.6,4.2,13.1.1,19.5a29.82,29.82,0,0,1-5.5,6.9c-1.2,1.1-2.2,2.8-4,1.7s-.9-3-.4-4.7a26.6,26.6,0,0,1,1.6-3.9c.6-1.4,1.2-4.5.3.6-.4,2.8-2.3,5.4-4.2,7.6a11.46,11.46,0,0,1-2.2,2.2c.7-.4,1.3-.8,2-1.2.6-.7.8-3,1.1-3.9.1-.4,3.4-7.8,3.6-7.8-1.1-.7-2.1-1.5-3.2-2.2.4,1.6-2,3.7-1.8,5-.8.8-.4,1,.9.7,1.8.4,2.3-.4,1.7-2.4.1-.5.3-1.1.4-1.6l-2.6-2.6c-.7.2-2.3,4.2-3.6,4.7,1.3.2,2.7.3,4,.5-1.9-1.3,4.2-8.2,5-8.9l-5.7-2.1a12.8,12.8,0,0,1-2.9,7.9l6.2,1.5a13.27,13.27,0,0,1,1.6-7.5c-1,2-.9,2,.1-.1s1.4-2.4,1.8-.7.7,1.4.8-1c1.8-2.1,1.1-2.7-2-1.9a17.9,17.9,0,0,1,.2,4,11.09,11.09,0,0,1-.9,4c1.9-.4,3.7-.9,5.6-1.3-1.7-1.2.7-6.1,1.1-6.3H72.9c1.1.5,1.6,7,.7,7.6,1.1-.3,2.1-.5,3.2-.8-.4-.1-.2-4.6-.2-4.6a9.54,9.54,0,0,1,2.4-4.4c-2-.2-4.1-.5-6.1-.7,1.9,7.5-.2,15-2.8,22.2-1.3,3.6-3.1,6.9-6.8,8.8-.8.3-1.6.6-2.2.9,1.3,1.3,1.9,1,1.6-.7.6-1.2.2-3.3.1-4.5,0-3.5-5.3-4-6.6-.8-.4,1.3-.9,2.5-1.4,3.8,2.2.3,4.3.5,6.6.8a35.4,35.4,0,0,1-.3-6.5c.1-3.5-5.5-3.9-6.6-.8a25.4,25.4,0,0,0-1,3.7c2.2.3,4.3.5,6.6.8a4.87,4.87,0,0,0-.1-1.2c.8-3.8-5.7-5.4-6.5-1.6-.1.5-.2,1.1-.3,1.6,2.2.3,4.3.5,6.6.8a12.17,12.17,0,0,1,.1-3.3c-2.2.3-4.3.5-6.6.8.4,2.7-1.1,5.8-1.7,8.4s-.9,5.4-1.3,8c-.9,5.9-1.8,11.9-2.7,17.8-.6,3.7,5,5.4,6.5,1.6,2.7-7.1,5.2-14.3,7.9-21.4-2.2-.3-4.3-.5-6.6-.8A177,177,0,0,1,50.9,174c2.1.5,4.3,1.1,6.5,1.6a94.31,94.31,0,0,1,9-27.8l-6.2-1.5c-.2,9.7-4.3,19.9-6.9,29.2,2.2.3,4.3.5,6.6.8a62.25,62.25,0,0,1,7.7-25c-2-.8-4.1-1.5-6.1-2.3-2.4,9.6-4.8,19.2-7.2,28.9,2.1.5,4.3,1.1,6.5,1.6a71.74,71.74,0,0,1,7.3-21.3l-6.2-1.5a202.72,202.72,0,0,1-4.6,21.9c2.1.5,4.3,1.1,6.5,1.6a63.63,63.63,0,0,1,5.5-16.8c-2-.8-4.1-1.5-6.1-2.3a108,108,0,0,1-4,16.8c2.2.3,4.3.5,6.6.8a38.42,38.42,0,0,1,2.4-10c-2.2-.3-4.3-.5-6.6-.8-.2,5.6-2.9,10.7-2.6,16.3.1,3.3,5.6,4.2,6.6.8,3.9-12.9,8.2-25.7,12.9-38.3-2.1-.5-4.3-1.1-6.5-1.6a19.5,19.5,0,0,1-6.8,11.1l5.7,2.1a17.81,17.81,0,0,1,4.5-12.4l-5.2.6c.7.6-.3,6.1-.1,7.3.2,1.6.8,3.1,1.1,4.7.2,1.1.4,2.3.6,3.4-.6,2.1.7,2.8,3.4,2.1-1.2,1.5-2.6,2.9-3.8,4.4q2.85.9,2.4,3.6l6.2-1.5a3.23,3.23,0,0,1-1.3-2.7c-2.1.5-4.3,1.1-6.5,1.6,1.1,4.6,2.1,9.2,3,13.9,2-.8,4.1-1.5,6.1-2.3a11.14,11.14,0,0,1-1.2-8.7H73.6a53.08,53.08,0,0,1,3.2,9.5c.8,3.3,6.6,2.5,6.6-.8v-7.7c-2.2.3-4.3.5-6.6.8a30.71,30.71,0,0,1,.6,5.3h6.7a45,45,0,0,1-.1-8.2c-2.2.3-4.3.5-6.6.8a13.29,13.29,0,0,1,.2,4h6.7a30.19,30.19,0,0,1-.3-6c-2.2.3-4.3.5-6.6.8a32.72,32.72,0,0,1,.4,5.4h6.7c-.1-3.5-.1-6.9.1-10.4H77.9c0,2,0,4,.1,6,0,3.9,6.5,3.8,6.7,0,.2-4.3.6-8.7.8-13,.2-3.8-.4-7.6-.1-11.4.8-8.1,2.7-15.3.7-23.5-2.1.5-4.3,1.1-6.5,1.6,2.3,5.2.6,10-1.4,15-1.4,3.6,5,5.2,6.5,1.6,2.3-6,4.2-12.1,1.4-18.2-1.6-3.5-7.3-2.3-6.5,1.6,2,8.2-1,15.6-1,23.7,0,7.6,0,15-.4,22.6h6.7c0-2,0-4-.1-6,0-3.9-6.5-3.8-6.7,0-.2,3.5-.2,6.9-.1,10.4.1,3.9,6.6,3.9,6.7,0a32.6,32.6,0,0,0-.7-7c-.7-3.5-6.3-2.4-6.6.8a41,41,0,0,0,.2,6.1c.4,3.8,6.3,3.9,6.7,0a21.16,21.16,0,0,0-.4-5.6c-.7-3.5-6.2-2.3-6.6.8a44.82,44.82,0,0,0,.1,8.2c.4,3.8,6.7,4,6.7,0a27.09,27.09,0,0,0-.8-6.9c-.7-3.4-6.6-2.5-6.6.8v7.7c2.2-.3,4.3-.5,6.6-.8a62.4,62.4,0,0,0-3.2-9.5c-1.1-2.5-5.7-3.2-6.5,0a17.24,17.24,0,0,0,1.9,13.3c1.8,3.3,6.7.8,6.1-2.3-.9-4.7-1.8-9.3-3-13.9-.9-3.8-7.1-2.1-6.5,1.6a8.31,8.31,0,0,0,2,4.1c1.7,2,6.7,1.8,6.2-1.5-.6-4.4-2-8.5-7.3-9.4-2.8-.4-5.3,2-3.8,4.4a4.79,4.79,0,0,0,5.9,1.9c2.9-1.1,3.2-3.7,3.1-6.2-.1-4-2.1-8.1-2-12,.1-3.5,1.4-5.6-1.4-8.4a3.59,3.59,0,0,0-5.2.6,23.84,23.84,0,0,0-5.3,15.4c0,2.6,3.6,3.9,5.7,2.1a26.17,26.17,0,0,0,8.5-13.7c.9-3.8-5.1-5.3-6.5-1.6-4.7,12.7-9,25.4-12.9,38.3,2.2.3,4.3.5,6.6.8-.2-5.6,2.3-10.8,2.6-16.3.1-3.5-5.3-3.9-6.6-.8A51.46,51.46,0,0,0,59,178.8c-.3,3.4,5.6,4,6.6.8a136.83,136.83,0,0,0,4-16.8c.4-3-4.5-5.7-6.1-2.3a75,75,0,0,0-6.1,18.2c-.7,3.7,5.5,5.4,6.5,1.6a213.25,213.25,0,0,0,4.9-23.5c.3-2.9-4.9-4.1-6.2-1.5a75.6,75.6,0,0,0-8,22.8c-.7,3.7,5.5,5.4,6.5,1.6,2.4-9.6,4.8-19.2,7.2-28.9.8-3.2-4.3-5.5-6.1-2.3a68.21,68.21,0,0,0-8.6,28c-.3,3.4,5.7,4.1,6.6.8,2.7-9.9,6.9-20.5,7.1-30.8.1-2.8-4.8-4.3-6.2-1.5a98.65,98.65,0,0,0-9.8,29.2c-.6,3.7,5.5,5.5,6.5,1.6a226.79,226.79,0,0,0,4.7-22.9c.4-3.5-5.5-3.8-6.6-.8-2.7,7.1-5.2,14.3-7.9,21.4,2.1.5,4.3,1.1,6.5,1.6,1.1-7.3,2.2-14.5,3.3-21.8.8-5.2,3.2-10.5,2.3-15.7-.7-3.6-6.2-2.3-6.6.8a12.17,12.17,0,0,0-.1,3.3c.1,3.2,5.8,4.3,6.6.8.1-.5.2-1.1.3-1.6-2.1-.5-4.3-1.1-6.5-1.6a8.83,8.83,0,0,0-.2,2.8c.4,3,6,4.5,6.6.8a12,12,0,0,1,1-3.7c-2.2-.3-4.3-.5-6.6-.8a35.4,35.4,0,0,0,.3,6.5c.4,3.3,5.3,4.2,6.6.8.4-1.3.9-2.5,1.4-3.8-2.2-.3-4.3-.5-6.6-.8,0,3.6-2.1,9.3,2.8,11,4.6,1.5,10.2-2.5,12.9-5.4,4-4.2,5.6-10.1,7-15.4a36.33,36.33,0,0,0,.7-18.5c-.7-2.8-4.6-2.6-6.1-.7-3.3,4-5.9,12.8-.8,16.8,6.5,5.1,8.3-4.8,8-8.3-.3-3.2-3.2-12.4-8.9-7.7-3.9,3.2-5.6,11.7-1.1,15,1.9,1.4,4.9,1,5.6-1.3,1.1-3.7,3.1-14.4-3-15.8-5.7-1.2-8.3,7.6-7.9,11.1.8,5.7,7.3,6,10.6,1.6,2.9-4,3.3-10.9-3.9-10.5a10.48,10.48,0,0,0-9.7,11c.6,5.2,7,6.3,10.3,2.3,2.8-3.3,2.8-12.3-3.8-12.2-6.3.1-7.7,10.1-7.5,14.1.2,3,4.3,4,6.2,1.5a18.6,18.6,0,0,0,3.9-10.9c.1-2.6-3.7-3.9-5.7-2.1-3.8,3.3-10.9,13.3-5,17.4a3.68,3.68,0,0,0,4,.5c3.9-1.9,8.8-8.6,6.3-12.7a5.1,5.1,0,0,0-5.7-2.2c-2.9.9-4,4.5-4.7,6.9-.9,3.3-1.9,12.7,5.1,11,5-1.2,7.7-9.5,6.8-13.4-.3-1.4-1.8-2.1-3.2-2.2-6.2-.5-9.6,10.4-10.8,14.5-1,3.7-1.8,11.1,5,10.4,6.5-.7,11.5-10.7,12-15.7.4-4.1-2.1-11.6-8.2-8.7-9.3,4.3-11.8,29.8,3.7,22.6,6.1-2.8,11.1-9.8,13.7-15.4,3.2-7.3,1.1-14.9-2.2-21.8a3.27,3.27,0,0,0-2.9-1.5c-5.1.5-9.5-.5-14.2,2.1a21.38,21.38,0,0,0-9.2,10.3c-1.9,4.4-7.1,23.2,3.1,21.8-1.3-.7-2.8-1.4-4.1-2.1a7.76,7.76,0,0,0,1.2,2.2,3.67,3.67,0,0,0,4.6,1.1,7.71,7.71,0,0,0,2.1-1.4l-5.7-2.1c-.3,5.3,6.6,9.1,9.9,3.7,1.2-2-.3-4.5-2.9-4.5-11.5.1,2.6,20.5,7.9,10.7,2.1-3.8-2.8-7-6.7-5.4-4.5,1.9-3.7,6.9.1,8.9,4.2,1.4,7.7-3.8,3.9-5.8Z" transform="translate(-34.6 -103.96)"/><path class="cls-1" d="M77.1,148.4a3,3,0,1,0,0-6,3,3,0,1,0,0,6Z" transform="translate(-34.6 -103.96)"/><path class="cls-1" d="M71.3,141.8c.7,1.6,1.3,3.2,2,4.8,1.4,3.7,7.1,2.2,6.5-1.6a67.34,67.34,0,0,1-1-8.9l-5.7,2.1c1.2,1,.9,5.8,1,7.2.2,2.5.6,4.9.8,7.4h6.7a29.23,29.23,0,0,1-.2-7.8H74.7a51.69,51.69,0,0,0,.8,15.7c1.9-1,3.7-1.9,5.6-2.9-4.1-3.5-6.7-7.9-9.6-12.2a147.61,147.61,0,0,1-8.1-13c-1.2,1.5-2.6,2.9-3.8,4.4,4.2.7,7.1,4.1,9.2,7.2,1.2,1.8,4.9,7.2,4.6,9.3,1.7-.6,3.2-1.2,4.9-1.8-.1,0-.1-.1-.2-.1.4,1.4.8,2.7,1.2,4.1,0-.1.1-.1.1-.2,2.3-3.3-3.4-6.3-5.8-3,0,.1-.1.1-.1.2a2.85,2.85,0,0,0,1.2,4.1c.1,0,.1.1.2.1,1.7,1,4.6.1,4.9-1.8.8-4.6-3-10.8-5.7-14.6-2.9-4.1-7.2-8.4-12.8-9.3-3-.5-5,2-3.8,4.4,2.7,5.1,6.1,9.8,9.2,14.6,2.8,4.3,5.6,8.4,9.5,11.8a3.36,3.36,0,0,0,5.6-2.9,51.19,51.19,0,0,1-.6-14.1c.4-3.9-6.1-3.8-6.7,0a33.8,33.8,0,0,0,.2,7.8c.6,3.8,7.1,3.9,6.7,0s-.9-8-1.3-11.9c-.3-2.7-.2-4.9-2.4-6.8-2-1.6-5.9-.6-5.7,2.1a93.75,93.75,0,0,0,1.2,10.5c2.1-.5,4.3-1.1,6.5-1.6-.7-1.6-1.3-3.2-2-4.8-1.5-3.7-7.9-2.2-6.4,1.5Z" transform="translate(-34.6 -103.96)"/><path class="cls-1" d="M56.5,185.1a8.17,8.17,0,0,1-1-5.5c-2.2.3-4.3.5-6.6.8v2.4l6.2-1.5a5.62,5.62,0,0,1-.7-4.2c.3-3.4-5.6-4-6.6-.8-.3,1-.6,1.9-.9,2.9,2.2.3,4.3.5,6.6.8,0-.8.1-1.7.1-2.5-2.1-.5-4.3-1.1-6.5-1.6a6.93,6.93,0,0,1-.9,3.1c2.2.3,4.3.5,6.6.8.1-.9.3-1.9.4-2.8H46.7c.6,3.4,1,6.7,1.6,10.1s5.3,2.3,6.5,0c1.2-2.6,2.3-5.1,3.6-7.7H51.9a36,36,0,0,1,.7,9.8c-.2,3.4,5.7,4.1,6.6.8a28.08,28.08,0,0,1,2.6-6.8l-6.2-1.5a47.81,47.81,0,0,1-.3,10c-.7,3.7,5.7,5.4,6.5,1.6a33.07,33.07,0,0,1,2-6.8c-2.2-.3-4.3-.5-6.6-.8a26.57,26.57,0,0,1-.1,6.9c-.3,2.3,2.2,5.1,4.9,3.4,2.4-1.6,2.7-3.2,3.2-5.9.8-3.8,1.6-7.6,2.3-11.4H61c.9,2.2-1.2,5.1-2.1,7-1.2,2.7-2.6,5.4-3.8,8.1-2.3,5.1-4.8,10.2-7.1,15.3,2.2.3,4.3.5,6.6.8a34.63,34.63,0,0,1,3.6-14.1c-2.2-.3-4.3-.5-6.6-.8a75.51,75.51,0,0,1-2.2,14.9c-.9,3.8,5.1,5.3,6.5,1.6.8-2,1.4-4,2.2-6-2.2-.3-4.3-.5-6.6-.8a53.77,53.77,0,0,1-.6,9.8c-.4,3.4,5.7,4,6.6.8,1.7-6.4,3.4-12.8,5.1-19.1H56.1v2.1c-.4,3.3,5.9,4.1,6.6.8.2-.8.6-1.5.8-2.3-2-.8-4.1-1.5-6.1-2.3-2.2,6.6-4.5,13.2-6.8,19.8h6.5c-1.6-3.9.1-8.1.3-12.1a47.49,47.49,0,0,0-1-11.9c-.7-3.1-5.5-2.6-6.5,0-1.6,4.3-3.3,8.6-5.3,12.7l6.2,1.5a73.09,73.09,0,0,1,1.9-14.7c.7-3.1-4.6-5.7-6.1-2.3l-2.4,5.1,6.2,1.5a86.17,86.17,0,0,1,1.8-12.4H45.7c1,6.3-1.3,13.2-2.7,19.4h6.5a8.21,8.21,0,0,1,0-4.4c-2.2-.3-4.3-.5-6.6-.8a64.1,64.1,0,0,1-.8,12.4c2.2.3,4.3.5,6.6.8a7.81,7.81,0,0,1,.6-3.7c-2.2-.3-4.3-.5-6.6-.8a45,45,0,0,1-.3,9.7c2.2.3,4.3.5,6.6.8a19.7,19.7,0,0,1,.9-5.4H43.4a44.51,44.51,0,0,1,.4,12.1h6.7a33.5,33.5,0,0,1,.6-7.1H44.6a38.62,38.62,0,0,1,.4,10.2h6.7a21.07,21.07,0,0,1,1.1-7.8H46.3a14.13,14.13,0,0,1-.2,5.8c2.2.3,4.3.5,6.6.8a16.73,16.73,0,0,1,1.1-6.3c-2.2-.3-4.3-.5-6.6-.8a35.68,35.68,0,0,1,.1,8c-.4,3.8,6.2,3.8,6.7,0a38.77,38.77,0,0,1,1.1-4.9c-2.2-.3-4.3-.5-6.6-.8a56.13,56.13,0,0,1,.1,5.8c-.2,3.3,5.8,4.1,6.6.8.6-2.4,1.2-4.8,1.9-7.1-2.2-.3-4.3-.5-6.6-.8l-.3,3.9c-.3,3.9,6.3,3.8,6.7,0,.1-.8.1-1.7.2-2.5.3-3.3-6-4.2-6.6-.8a157.7,157.7,0,0,1-5.9,24.4h6.5a15.62,15.62,0,0,1-1.4-9c.6-3.7-5.5-5.5-6.5-1.6-.4,1.9-1,3.8-1.4,5.7h6.5a12.43,12.43,0,0,1-.1-4.3c.4-3.4-5.6-4-6.6-.8-.6,1.8-1.1,3.6-1.7,5.4,2-.2,4.1-.5,6.1-.7-1.3-2.6.4-7.2.8-10,.6-4.1,1.2-8.1,1.8-12.2-2.2-.3-4.3-.5-6.6-.8-.1,1.8-.2,3.5-.3,5.3h6.7v-9.2c-2.2.3-4.3.5-6.6.8,3.2,9.1.6,18.7,1.9,28.1.6,3.8,6.2,3.9,6.7,0l1.2-9.3c-2.2.3-4.3.5-6.6.8,1.9,12.1-3.4,24.1-2.4,36.2,2.2-.3,4.3-.5,6.6-.8a29.6,29.6,0,0,1-.7-12.9c-2.2-.3-4.3-.5-6.6-.8a76.76,76.76,0,0,1-1.2,12.6h6.5a49,49,0,0,1-.2-14.8c.4-3.8-6.2-3.8-6.7,0l-.9,6.9h6.7a33,33,0,0,1,.3-11.3c-2.1-.5-4.3-1.1-6.5-1.6-.3,1.8-.7,3.6-1,5.5,2.2.3,4.3.5,6.6.8-.1-3.6-.1-7.2-.2-10.8-2.2.3-4.3.5-6.6.8.8,3.4,3.1,22.1,11.8,17.3,3.2-1.8,2.9-6.1,3.1-9,.4-6.3.9-12.6,1.3-18.9.2-3.3-6-4.2-6.6-.8-1.4,8-2.8,16.1-4.2,24.1-1.2,7.1-1.6,15.3-5.5,21.7a3,3,0,0,0,2.9,4.5,7.13,7.13,0,0,1,4.1.6c2,.7,4.3-1.1,4.2-2.9a125.44,125.44,0,0,1,.8-19.4H43.9c0,1.1.1,2.1.1,3.2h6.7c.1-.7.2-1.5.3-2.2l-6.2-1.5c-.2,3.2-.7,6.5-1.2,9.7-.7,3.8,5.8,5.4,6.5,1.6a105.67,105.67,0,0,0,1.4-11.3c.2-2.9-4.9-4.2-6.2-1.5a9.85,9.85,0,0,0-1.2,5.3c.2,3.8,6.8,3.9,6.7,0,0-1.1-.1-2.1-.1-3.2-.1-3.9-6.2-3.8-6.7,0a114.55,114.55,0,0,0-.8,19.4c1.4-1,2.8-1.9,4.2-2.9a14.81,14.81,0,0,0-5.9-.8c1,1.5,1.9,3,2.9,4.5,4-6.5,4.6-14,5.8-21.2,1.6-8.7,3-17.3,4.6-26-2.2-.3-4.3-.5-6.6-.8l-.9,12.3c-.1,1.2-.6,10.5-.3,10.5,1.1.3,2.1.5,3.2.8-3.9-2.9-4.1-10.2-5.1-14.5-.8-3.3-6.6-2.6-6.6.8.1,3.6.1,7.2.2,10.8,0,3.2,5.9,4.2,6.6.8.3-1.8.7-3.6,1-5.5.7-3.8-5.6-5.4-6.5-1.6a37.29,37.29,0,0,0-.7,12.9c.6,3.8,6.2,3.9,6.7,0l.9-6.9H40a53.16,53.16,0,0,0,.6,16.4c.4,2.9,5.9,2.8,6.5,0a84.36,84.36,0,0,0,1.4-14.2c0-3.3-5.9-4.2-6.6-.8a32.55,32.55,0,0,0,.7,16.1c.9,3.2,6.8,2.6,6.6-.8-1-12.8,4.2-25.1,2.2-37.8-.6-3.6-6.1-2.2-6.6.8l-1.2,9.3h6.7c-1.4-9.9,1.3-20-2.1-29.7-1.1-3.2-6.6-2.7-6.6.8v9.2c0,3.9,6.5,3.8,6.7,0,.1-1.8.2-3.5.3-5.3.2-3.3-6-4.2-6.6-.8-.8,4.9-1.4,9.8-2.1,14.7-.6,4.2-1.8,8.2.2,12.1,1.2,2.4,5.3,1.6,6.1-.7.6-1.8,1.1-3.6,1.7-5.4-2.2-.3-4.3-.5-6.6-.8a19.53,19.53,0,0,0,.3,5.9c.6,3,5.7,2.8,6.5,0,.4-1.9,1-3.8,1.4-5.7-2.1-.5-4.3-1.1-6.5-1.6a21.24,21.24,0,0,0,1.4,12.2c1.1,2.6,5.5,3.1,6.5,0A157.7,157.7,0,0,0,56.8,220c-2.2-.3-4.3-.5-6.6-.8-.1.8-.1,1.7-.2,2.5h6.7l.3-3.9c.2-3.4-5.6-4-6.6-.8-.8,2.4-1.3,4.7-1.9,7.1,2.2.3,4.3.5,6.6.8a37.45,37.45,0,0,0-.1-5.8c-.2-3.3-5.5-4.2-6.6-.8a30,30,0,0,0-1.3,6.5h6.7a30.61,30.61,0,0,0-.1-8c-.4-3.3-5.3-4.2-6.6-.8a21.6,21.6,0,0,0-1.4,7.9c0,3.3,5.8,4.2,6.6.8a22.74,22.74,0,0,0,.2-9c-.5-3.1-5.6-2.6-6.5,0a27.08,27.08,0,0,0-1.3,9.4c.2,3.9,6.3,3.8,6.7,0a45.79,45.79,0,0,0-.7-11.7c-.6-2.9-5.9-2.9-6.5,0a42.7,42.7,0,0,0-.8,8.7c0,3.9,6.3,3.8,6.7,0a52.63,52.63,0,0,0-.8-13.7c-.6-3-5.7-2.7-6.5,0a23.8,23.8,0,0,0-1.1,7c-.1,3.3,6,4.2,6.6.8a53.23,53.23,0,0,0,.6-11.3c-.2-3.3-5.5-4.2-6.6-.8a16.39,16.39,0,0,0-.9,5.3c0,3.3,6,4.2,6.6.8a66,66,0,0,0,1-14c-.1-3.3-5.8-4.2-6.6-.8a16.27,16.27,0,0,0,0,7.6c.6,2.9,5.9,2.9,6.5,0,1.6-7.5,3.8-15,2.7-22.6-.4-2.9-5.9-2.8-6.5,0a94.41,94.41,0,0,0-2,14c-.2,2.8,4.9,4.3,6.2,1.5l2.4-5.1c-2-.8-4.1-1.5-6.1-2.3a81.78,81.78,0,0,0-2.1,16.3c0,2.8,4.9,4.4,6.2,1.5,2.2-4.7,4.2-9.4,6-14.2H49.2a40.9,40.9,0,0,1,.1,14.8c-.6,3.2-.8,6.1.4,9.2,1.1,2.7,5.5,3,6.5,0,2.2-6.6,4.5-13.2,6.8-19.8,1.1-3.2-4.3-5.4-6.1-2.3a8.77,8.77,0,0,0-1.4,3.8c2.2.3,4.3.5,6.6.8a9.26,9.26,0,0,0-.2-3.7c-.7-2.9-5.7-2.8-6.5,0-1.7,6.4-3.4,12.8-5.1,19.1,2.2.3,4.3.5,6.6.8a64.48,64.48,0,0,0,.6-9.8c-.1-3.4-5.3-4-6.6-.8-.8,2-1.4,4-2.2,6,2.1.5,4.3,1.1,6.5,1.6a91.19,91.19,0,0,0,2.4-16.5c.2-3.7-5.2-3.7-6.6-.8a41.13,41.13,0,0,0-3.8,15.7c-.1,3.7,5.2,3.7,6.6.8,3-6.3,5.9-12.6,8.9-18.9,2-4.4,6.2-9.8,4.2-14.7-1-2.5-5.8-3.2-6.5,0-.6,2.6-1.1,5.3-1.7,7.9a22.07,22.07,0,0,1-.8,3.5c-.1.6-1,2.9-.2,2.3,1.7,1.1,3.2,2.3,4.9,3.4a30.31,30.31,0,0,0,.3-8.5c-.3-3.4-5.2-4.1-6.6-.8a33.07,33.07,0,0,0-2,6.8c2.1.5,4.3,1.1,6.5,1.6a45,45,0,0,0,.6-11.6c-.2-2.7-4.7-4.4-6.2-1.5a41.87,41.87,0,0,0-3.2,8.3c2.2.3,4.3.5,6.6.8a43.57,43.57,0,0,0-.9-11.4c-.7-3.3-5.3-2.4-6.5,0-1.2,2.6-2.3,5.1-3.6,7.7h6.5c-.6-3.4-1-6.7-1.6-10.1-.4-3-5.7-2.7-6.5,0a16.82,16.82,0,0,0-.7,4.4c-.1,3.5,5.3,3.9,6.6.8a11.05,11.05,0,0,0,.9-3.1c.7-3.7-5.3-5.4-6.5-1.6a6.44,6.44,0,0,0-.3,4.1c.4,3.1,5.6,4.3,6.6.8.3-1,.6-1.9.9-2.9-2.2-.3-4.3-.5-6.6-.8a11.52,11.52,0,0,0,1.7,7.2c1.6,3,5.9,1.1,6.2-1.5a10.69,10.69,0,0,0-.2-4c-.8-3.6-6.1-2.3-6.6.8a12.35,12.35,0,0,0,1.9,8.5c2.9,3.1,8.6.1,6.6-3.4Z" transform="translate(-34.6 -103.96)"/><path class="cls-1" d="M46,268.5v-.7H39.5c.1-.1.1-.3.2-.4,2,.2,4.1.5,6.1.7-1-6,.4-13.3,1.3-19.3H40.6c1.9,4.5,1.2,9,1.4,13.6.1,1.6.2,3.2.4,4.8.3,2.1,2.8,6.5-2,6.4l3.3,3c.3-2.3.6-4.7.9-7,.4-3.8-6.2-3.8-6.7,0-.3,2.3-.6,4.7-.9,7-.2,1.6,1.7,3,3.3,3,6.1.1,10.3-3.8,9.5-9.2a72.3,72.3,0,0,1-1.3-12.3c0-3.8-.1-7.4-1.7-10.9-1-2.4-5.9-3.3-6.5,0-1.1,7.2-2.7,15.2-1.3,22.5.4,2.6,4.8,2.9,6.1.7,1-1.6,1.2-2.5.4-4.2-1-2.5-5.9-3.2-6.5,0a12.75,12.75,0,0,0,0,3.9c1.2,3.9,7.6,2.3,7-1.6Z" transform="translate(-34.6 -103.96)"/><path class="cls-1" d="M74.2,183.6c1.4,4.9,2.7,9.8,3.7,14.8.7,3.4,6.6,2.5,6.6-.8a175.35,175.35,0,0,1,.8-17.8c.3-3.9-6.3-3.8-6.7,0-.9,9-1.6,18-.3,27,.6,3.7,6.5,4,6.7,0,.1-2.6.1-5.1,0-7.7-2.2.3-4.3.5-6.6.8,1,6.6-1.7,13-.7,19.6.6,3.8,6.3,3.9,6.7,0,.2-2,.3-4.1.6-6.1.3-3.3-6-4.2-6.6-.8C77,221,77.1,230,75.2,238.3c-.6,2.5-2.3,21.5-2.9,21.5.6,1.9,1.1,3.7,1.7,5.6,2.7-1.6,3.1-3.5,3.4-6.2.7-4.9,1.4-9.5,3.4-14.1-2.2-.3-4.3-.5-6.6-.8a45.4,45.4,0,0,1-1.3,17.6,3.12,3.12,0,0,0,2.3,3.7c.7.2,1.4.3,2.1.5,1.7.4,3.7-.5,4.1-2.1,1.8-7.7.9-16.2,1.1-24-2.2.3-4.3.5-6.6.8a25.9,25.9,0,0,1,.3,9.2c-.4,3.9,6.2,3.8,6.7,0,.7-5.1-1-10.1-.2-15.1H76c.1,2.3.2,4.5.3,6.8.2,3.8,6.7,3.9,6.7,0a136,136,0,0,1,1.1-19.1H77.4a44.19,44.19,0,0,1-.2,10.9c-.7,3.8,5.8,5.4,6.5,1.6a43.09,43.09,0,0,0,.6-12.4c-.4-3.9-6.2-3.8-6.7,0a151.82,151.82,0,0,0-1.1,19.1h6.7c-.1-2.3-.2-4.5-.3-6.8-.2-4-6.1-3.7-6.7,0-.7,5,.8,10,.3,15h6.7a35.71,35.71,0,0,0-.6-10.8c-.7-3.4-6.5-2.5-6.6.8-.1,7.2.9,15.3-.8,22.4,1.3-.7,2.8-1.4,4.1-2.1-.7-.2-1.4-.3-2.1-.5.8,1.2,1.6,2.5,2.3,3.7a49.85,49.85,0,0,0,1.7-19.2c-.4-3.4-5.1-4-6.6-.8a43,43,0,0,0-2.7,8.6c-.2,1.4-.2,7.6-1.1,8.1a3,3,0,0,0,1.7,5.6c3.8-.1,5.5-2.1,6.2-5.2A60.89,60.89,0,0,0,81,245.9c0-4.2,1.1-8.2,1.6-12.4.6-6.5,1.4-13,2.6-19.4-2.2-.3-4.3-.5-6.6-.8-.2,2-.3,4.1-.6,6.1h6.7c-1-7.1,1.6-14.1.4-21.2-.6-3.4-6.7-2.5-6.6.8.1,2.6.1,5.1,0,7.7h6.7c-1.3-9-.6-18,.3-27H78.8a176.67,176.67,0,0,0-.8,17.8c2.2-.3,4.3-.5,6.6-.8a152.41,152.41,0,0,0-3.7-14.8c-1.3-3.6-7.8-2-6.7,1.7Z" transform="translate(-34.6 -103.96)"/><path class="cls-1" d="M77.1,137.9c.1.4.3.7.4,1.1-2-.2-4.1-.5-6.1-.7.4-1.1.8-2.3,1.2-3.4a3.5,3.5,0,0,1-.4-3.4,14.3,14.3,0,0,1,1.7-4.9c1.4-3.1-4.5-5.4-6.1-2.3-.1.6-.3,1.2-.4,1.8-.7-2.6-4.7-2.8-6.1-.7-.8.5-1.6.9-2.4,1.4,1.4,1,2.8,1.9,4.2,2.9a12.25,12.25,0,0,0,.2-1.9c.3-2.3-3.1-3.7-5-2.6a10.34,10.34,0,0,0-3.1,2.4c1.9.4,3.7.9,5.6,1.3-.1-.4-.3-.8-.4-1.3-.7-2-3.9-3.2-5.6-1.3-.4.4-.9.7-1.3,1.1,1.6,1.4,3,2.7,4.6,4.1,1.1-1.9,2.2-3.9,3.2-5.8,1.7-3-2.4-6.1-5.2-3.6l-2.4,2.1c1.8,1.2,3.4,2.4,5.2,3.6a40.46,40.46,0,0,0,4.1-6.9c1.2-2.5-2.6-4.6-4.9-3.4a10.23,10.23,0,0,0-4.1,3.6c1.9,1,3.9,2,5.8,3a34.21,34.21,0,0,1,5.1-6.9c2.6-2.6-.6-6.3-4-4.7L57,114.3c1.3,1.6,2.7,3.1,4,4.7a17,17,0,0,1,7.8-3.9,3,3,0,0,0,0-5.8,41.83,41.83,0,0,0-5.1-.6c.3,2,.6,3.9.9,5.9a22.65,22.65,0,0,1,5.2-.9c2.7-.2,4.7-3.3,2.3-5.1a6.81,6.81,0,0,0-3.3-1.6c-4.2-.8-6,5-1.8,5.8a.76.76,0,0,1,.4.1c.8-1.7,1.6-3.4,2.3-5.1a40.83,40.83,0,0,0-7,1.1c-3.7.9-2.9,5.8.9,5.9a12.42,12.42,0,0,1,3.3.4v-5.8a25.24,25.24,0,0,0-10.8,5.5c-2.9,2.4.8,6.2,4,4.7l3.9-1.8c-1.3-1.6-2.7-3.1-4-4.7a40.5,40.5,0,0,0-6.2,8.1c-2,3.5,3.3,6.2,5.8,3,.6-.5,1.2-.9,1.8-1.4-1.7-1.1-3.2-2.3-4.9-3.4a31.37,31.37,0,0,1-3.4,5.5c-2.2,2.9,2.6,5.9,5.2,3.6l2.4-2.1c-1.8-1.2-3.4-2.4-5.2-3.6-1.1,1.9-2.2,3.9-3.2,5.8-1.4,2.6,1.6,5.7,4.6,4.1a7.94,7.94,0,0,0,2.7-2c-1.9-.4-3.7-.9-5.6-1.3.1.4.3.8.4,1.3.8,2,3.9,3.1,5.6,1.3a22,22,0,0,1,1.8-1.4c-1.7-.9-3.3-1.7-5-2.6a12.25,12.25,0,0,0-.2,1.9c-.3,2.1,2.3,3.3,4.2,2.9a8.92,8.92,0,0,0,6.3-4.2c-2-.2-4.1-.5-6.1-.7,1.8,6.6,10.1,4.5,12.7-.4-2-.8-4.1-1.5-6.1-2.3C65.3,130.3,64,137.4,70,141c3.6,2.1,10.1.7,8-4.1-1-2.3-4.6-3.1-6.1-.7-1.8,2.7-.9,5.4,1.9,7.1,3.5,2,6.9-3.2,3.3-5.4Z" transform="translate(-34.6 -103.96)"/><path class="cls-1" d="M44.5,276a.1.1,0,0,1,.1-.1,2.85,2.85,0,0,0-1.2-4.1c-.1,0-.1-.1-.2-.1-1.7-.8-4.6-.2-4.9,1.8.1-.7,1-.9-.9-.2,1.2,1.5,2.6,2.9,3.8,4.4a13.55,13.55,0,0,0,2.4-4.8c.9-3.2-4.3-5.4-6.1-2.3a7.61,7.61,0,0,1-1.2,1.9l5.2-.6c1.4,1.2,1.8-2.9,2-3.9a22.42,22.42,0,0,0,.6-5.2c-.1-3.6-5.2-3.8-6.6-.8-.4,1.1-1,2.2-1.4,3.3,2.1.5,4.3,1.1,6.5,1.6,1-4.6,2.8-9.4,2.1-14.1-.4-3.2-5.3-4.2-6.6-.8-.8,2.1-1.4,4.2-2.2,6.3-1.3,3.7,5.1,5.3,6.5,1.6.8-2.1,1.4-4.2,2.2-6.3-2.2-.3-4.3-.5-6.6-.8.6,4.2-1,8.5-1.9,12.5s4.9,5.1,6.5,1.6c.4-1.1,1-2.2,1.4-3.3-2.2-.3-4.3-.5-6.6-.8.1,3.8-4.2,10.2-.7,13.3a3.58,3.58,0,0,0,5.2-.6,12.23,12.23,0,0,0,1.2-1.9c-2-.8-4.1-1.5-6.1-2.3a6,6,0,0,1-1.8,3.4c-1.6,2.1,1.1,5.3,3.8,4.4s5.1-.9,5.6-3.9c-1.7.6-3.2,1.2-4.9,1.8.1,0,.1.1.2.1-.4-1.4-.8-2.7-1.2-4.1a.1.1,0,0,1-.1.1c-2.3,3.2,3.5,6.2,5.9,2.9Z" transform="translate(-34.6 -103.96)"/><path class="cls-1" d="M44.6,252.9c0-.2-.1-.3-.1-.5.6-3.1-4.2-5.6-6.1-2.3-.2.5-.6.9-.8,1.4h5.8a.76.76,0,0,1-.2-.4c.1.8.2,1.5.3,2.3.6-3.2,1.9-6.3,2.4-9.5.6-3.7-5.1-5.4-6.5-1.6a32.18,32.18,0,0,1-2.3,5c2,.8,4.1,1.5,6.1,2.3a45.72,45.72,0,0,0,2.9-12c.3-3.4-5.6-4-6.6-.8l-1.2,3.9c2.1.5,4.3,1.1,6.5,1.6a4.63,4.63,0,0,1,.8-2.5c1.6-3.7-4.8-5.1-6.5-1.6-.2.6-.6,1.2-.8,1.7,2.1.5,4.3,1.1,6.5,1.6.6-2.4,0-5.5,1.2-7.7,1.8-3.5-3.9-6.5-5.8-3-1.6,3-1.1,5.9-1.9,9.1-1,3.9,4.8,5.1,6.5,1.6.2-.6.6-1.2.8-1.7-2.1-.5-4.3-1.1-6.5-1.6a7.32,7.32,0,0,0-.8,2.5c-.7,3.7,5.2,5.4,6.5,1.6l1.2-3.9c-2.2-.3-4.3-.5-6.6-.8A38,38,0,0,1,36.7,248c-1.2,3.2,4.2,5.2,6.1,2.3a33.72,33.72,0,0,0,3-6.4c-2.1-.5-4.3-1.1-6.5-1.6a58,58,0,0,1-2.1,8.2c-.4,1.5-.7,2.6.2,4,1.2,1.8,4.7,2.1,5.8,0,.2-.5.6-.9.8-1.4-2-.8-4.1-1.5-6.1-2.3a9.23,9.23,0,0,0,.1,3.7c1.3,3.8,7.7,2.3,6.6-1.6Z" transform="translate(-34.6 -103.96)"/><path class="cls-1" d="M47.7,212.4h.1c1.6-3.4-4.1-4.9-6.1-2.3-.3.4-.6.7-.9,1.1,2,.8,4.1,1.5,6.1,2.3,1.7-3.8,3.3-7.5,5-11.3,1.3-3.2-4.5-5.3-6.1-2.3-1.3,2.3-2.7,4.6-3.9,7l6.2,1.5a8.69,8.69,0,0,1,1.1-4.1c1.7-3.5-3.9-6.6-5.8-3-.6,1.2-1.2,2.3-1.8,3.5,2,.8,4.1,1.5,6.1,2.3,1.4-4.6,3-9.1,4.6-13.7,1.1-3.3-4.2-5.2-6.1-2.3a37.4,37.4,0,0,0-4,8c2.1.5,4.3,1.1,6.5,1.6a65.58,65.58,0,0,1,2.6-10.6c1.1-3.5-4-4.9-6.1-2.3a21.12,21.12,0,0,0-2.1,3.1c2,.8,4.1,1.5,6.1,2.3,1.6-4.6,3-9.3,4.5-13.9,1.2-3.7-5.2-5.3-6.5-1.6-1.4,4.6-3,9.3-4.5,13.9-1,3.2,4.5,5.5,6.1,2.3a13,13,0,0,1,2.1-3.1c-2-.8-4.1-1.5-6.1-2.3a78,78,0,0,0-2.6,10.6c-.7,3.7,5.1,5.4,6.5,1.6a33.49,33.49,0,0,1,3.2-6.6c-2-.8-4.1-1.5-6.1-2.3-1.6,4.5-3,9.1-4.6,13.7-1,3.2,4.5,5.5,6.1,2.3.6-1.2,1.2-2.3,1.8-3.5-1.9-1-3.9-2-5.8-3a19.87,19.87,0,0,0-2,7.1c-.2,2.9,4.8,4.1,6.2,1.5,1.3-2.3,2.7-4.6,3.9-7-2-.8-4.1-1.5-6.1-2.3-1.7,3.8-3.3,7.5-5,11.3-1.4,3.4,4.1,4.9,6.1,2.3.3-.4.6-.7.9-1.1-2-.8-4.1-1.5-6.1-2.3a4,4,0,0,0-.1,3.2c1.1,3.9,7.4,2.3,6.6-1.6Z" transform="translate(-34.6 -103.96)"/><path class="cls-1" d="M53.1,170.3c1.2.6.2,1.1,1.1-.2.4-.8.7-1.9,1-2.7.6-1.6,1.1-3.3,1.8-4.9,1.1-3.2-4.6-5.5-6.1-2.3-.9,1.9-1.9,3.9-2.8,5.8,2,.8,4.1,1.5,6.1,2.3.7-2.3,1.3-4.5,2-6.8.6-1.8,1.2-3.4.9-5.3-.3-2.1-3.1-2.5-4.9-1.8a.1.1,0,0,0-.1.1,3.08,3.08,0,0,0-1.6,3.4v.1c1.7,3.5,8.1,2,6.5-1.6v-.1c-.6,1.1-1,2.3-1.6,3.4a.1.1,0,0,0,.1-.1c-1.7-.6-3.2-1.2-4.9-1.8-.1-.7-.6.9-.6,1-.3.9-.6,1.9-.8,2.8-.4,1.7-1,3.4-1.4,5.1-.9,3.2,4.6,5.5,6.1,2.3.9-1.9,1.9-3.9,2.8-5.8-2-.8-4.1-1.5-6.1-2.3-1.1,3-2.4,6-3.2,9.1-.6,2.3,0,4.4,2.4,5.5,3.7,1.6,7.1-3.4,3.3-5.2Z" transform="translate(-34.6 -103.96)"/><path class="cls-1" d="M48.7,160.8l.3-.3c1.7,1.1,3.2,2.3,4.9,3.4a68.88,68.88,0,0,0,4.2-13.1c.7-3.2-4.1-5.4-6.1-2.3-1.7,2.6-3.6,6.1-3,9.2a3.28,3.28,0,0,0,3.2,2.2h.2q3-.3,3.3-3v-.2c.4-3.8-6.2-3.8-6.7,0v.2l3.3-3h-.2c1.1.7,2.1,1.5,3.2,2.2.2.9.7-1.4.8-1.7a11.24,11.24,0,0,1,1.6-2.8c-2-.8-4.1-1.5-6.1-2.3a60.63,60.63,0,0,1-4.2,13.1c-1.1,2.6,2.6,4.5,4.9,3.4a5.12,5.12,0,0,0,2.8-3.3c.9-3.9-5.5-5.6-6.4-1.7Z" transform="translate(-34.6 -103.96)"/><path class="cls-1" d="M59,149.6a7.57,7.57,0,0,0-.1-1.5c-.1-2.8-4.7-4.3-6.2-1.5-.7,1.1-1.2,2.2-1.9,3.4,2,.8,4.1,1.5,6.1,2.3.6-1.7,1-3.3,1.6-5,1-3.2-4.2-5.3-6.1-2.3-.3.6-.7,1.1-1,1.7,2,.8,4.1,1.5,6.1,2.3a27.15,27.15,0,0,0,1.3-6.3c.4-3.4-5.8-4.1-6.6-.8-.1.3-.2.6-.3,1-1.3,2.4.9,5,3.8,4.4,5.6-1.1,4.1-10.3,3.7-13.8-.4-3.8-6.8-3.9-6.7,0a31.24,31.24,0,0,1-1.2,9.6c-1.1,3.7,5.3,5.3,6.5,1.6a35.72,35.72,0,0,0,1.6-11.2H52.9c.3,2.6,1.3,7-.3,9.3.7-.5,1.3-.9,2-1.4-.1,0-.2.1-.3.1,1.2,1.5,2.6,2.9,3.8,4.4a10.14,10.14,0,0,0,1-2.4c-2.2-.3-4.3-.5-6.6-.8a39.92,39.92,0,0,1-1.1,4.7c-1,3.2,4.2,5.3,6.1,2.3.3-.6.7-1.1,1-1.7-2-.8-4.1-1.5-6.1-2.3-.6,1.7-1,3.3-1.6,5-1,3.2,4.3,5.4,6.1,2.3.7-1.1,1.2-2.2,1.9-3.4l-6.2-1.5a7.57,7.57,0,0,0,.1,1.5c-.2,3.8,6.5,3.8,6.3,0Z" transform="translate(-34.6 -103.96)"/><path class="cls-1" d="M73.1,257.8c-.4,0-.9.1-1.3.1a3.21,3.21,0,0,0-3.3,3v.9c1.7-.9,3.3-1.7,5-2.6a6.28,6.28,0,0,0-5.2-.4,3.26,3.26,0,0,0-2.3,2.1,2.72,2.72,0,0,0,.9,2.9,12.54,12.54,0,0,0,2.4,1.6c.2-1.8.6-3.7.8-5.5-.7.1,0,0,.2.1a.37.37,0,0,1-.3-.1c.3.1.2.1-.1,0v5.2a8,8,0,0,0,4.7-6.7c.2-2.7-3.7-3.8-5.7-2.1l-2.1,1.8a2.82,2.82,0,0,0,0,4.2,3.63,3.63,0,0,0,4.7,0l2.1-1.8-5.7-2.1h0c0,.2-.1.3-.1.5.2-.6-.2.3-.3.4.3-.5-.2.2-.4.4.6-.4-.3.2-.6.2a2.9,2.9,0,0,0,0,5.2,8,8,0,0,0,5.3.6,3,3,0,0,0,.8-5.5l-.8-.4c.4.3-.2-.2-.2-.3-.4,1.7-1,3.3-1.4,5,.2-.1,1-.2.3-.1h-.3c2.1,1.1,5.1-.3,5-2.6v-.9l-3.3,3c.4,0,.9-.1,1.3-.1,1.8-.1,3.4-1.3,3.3-3a3.12,3.12,0,0,0-3.4-3Z" transform="translate(-34.6 -103.96)"/><path class="cls-1" d="M73.1,260.8A7.09,7.09,0,0,1,74,258c-2-.8-4.1-1.5-6.1-2.3-.1.3-.1.6-.2.9-.8,3.8,5.1,5.3,6.5,1.6a226.13,226.13,0,0,0,7.9-29c.7-3.1-4.5-5.6-6.1-2.3A54.83,54.83,0,0,0,70.5,243c-.7,3.8,5.8,5.4,6.5,1.6a48.76,48.76,0,0,1,4.8-14.7c-2-.8-4.1-1.5-6.1-2.3a226.13,226.13,0,0,1-7.9,29c2.1.5,4.3,1.1,6.5,1.6.1-.3.1-.6.2-.9.7-3.1-4.5-5.6-6.1-2.3a21.37,21.37,0,0,0-1.6,4.2c-.9,3.8,5.5,5.3,6.3,1.6Z" transform="translate(-34.6 -103.96)"/><path class="cls-1" d="M81.7,232.3c.3-1.7.7-3.4.9-5.1.4-3-4.2-5.7-6.1-2.3-.7,1.3-1.4,2.6-2.1,4,1.9,1,3.9,2,5.8,3,1.9-4.1,3.7-8.1,4-12.5.2-2.9-4.8-4.2-6.2-1.5a24.65,24.65,0,0,0-1.7,4.2c2.2.3,4.3.5,6.6.8a7.77,7.77,0,0,1,.4-3c-2.1-.5-4.3-1.1-6.5-1.6a41,41,0,0,1-1.4,5c2.1.5,4.3,1.1,6.5,1.6a23.69,23.69,0,0,0,.9-3.6c.7-3.7-5.1-5.4-6.5-1.6-.9,2.4-1.7,4.8-2.6,7.2-1.1,3.2,4.5,5.4,6.1,2.3A33,33,0,0,0,83.4,217c.3-3.9-6.3-3.8-6.7,0a21.73,21.73,0,0,1-2.7,9.2c2,.8,4.1,1.5,6.1,2.3.9-2.4,1.7-4.8,2.6-7.2-2.1-.5-4.3-1.1-6.5-1.6-.2,1.2-.6,2.4-.9,3.6-1.2,3.7,5.2,5.3,6.5,1.6a46.7,46.7,0,0,0,1.4-5c.9-3.8-5-5.3-6.5-1.6a10.34,10.34,0,0,0-.7,4.6c.2,3.3,5.7,4.2,6.6.8a13.32,13.32,0,0,1,1-2.8l-6.2-1.5c-.2,3.3-1.6,6.5-3,9.5-1.7,3.5,3.8,6.6,5.8,3,.7-1.3,1.4-2.6,2.1-4-2-.8-4.1-1.5-6.1-2.3-.2,1.7-.6,3.4-.9,5.1-.7,3.7,5.6,5.4,6.4,1.6Z" transform="translate(-34.6 -103.96)"/><path class="cls-1" d="M56,179.8a24.3,24.3,0,0,0,.8-4.7c.1-2.7-3.7-3.8-5.7-2.1-.6.5-1.1.9-1.8,1.4l5.7,2.1a14.74,14.74,0,0,1,.8-3.5c.9-2.7-3.4-5.3-5.6-2.9a22.84,22.84,0,0,1-2.2,2.2l5.7,2.1c0-.2.1-.5.1-.7-1.9-1-3.9-2-5.8-3-3.3,5.3-3.2,11.3-4.6,17.1-.9,3.8,5.6,5.4,6.5,1.6,1.2-5.2,1-10.9,3.9-15.7,2.1-3.4-3.7-6.4-5.8-3a5.49,5.49,0,0,0-1,3.7,3.47,3.47,0,0,0,5.7,2.1c.8-.7,1.4-1.4,2.2-2.2-1.9-1-3.7-1.9-5.6-2.9a21.94,21.94,0,0,0-1,5.1c-.3,2.8,3.8,3.7,5.7,2.1.6-.5,1.1-.9,1.8-1.4l-5.7-2.1a16.45,16.45,0,0,1-.4,3.1c-1.3,3.7,5.2,5.2,6.3,1.6Z" transform="translate(-34.6 -103.96)"/><path class="cls-1" d="M42.5,200.9v.2c0-.3.1-.5.1-.8a2.35,2.35,0,0,1-.2.8c.1-.2.2-.5.3-.7l-.2.4s.7-.6.1-.1l5.7,2.1v-1a3.15,3.15,0,0,0-3.3-3c-1.8.1-3.4,1.3-3.3,3v1a2.88,2.88,0,0,0,2,2.7,3.81,3.81,0,0,0,3.7-.6,6.17,6.17,0,0,0,2-3.9,2.64,2.64,0,0,0-1-2.1A4.44,4.44,0,0,0,46,198a3.26,3.26,0,0,0-3.5,2.9Z" transform="translate(-34.6 -103.96)"/><path class="cls-1" d="M78.1,236.3a17.51,17.51,0,0,0,2.4-5.2c1-3.3-4.1-5.1-6.1-2.3a10.14,10.14,0,0,0-.9,1.3l6.2,1.5c.1-.6.2-1.3.3-1.9-2.1-.5-4.3-1.1-6.5-1.6-2,8.3-3.9,16.6-5.7,25-.8,3.8,5.6,5.4,6.5,1.6,1.8-8.3,3.7-16.7,5.7-25,.9-3.8-5.2-5.3-6.5-1.6a10.3,10.3,0,0,0-.6,3.5c-.1,3.1,4.6,3.9,6.2,1.5a10.14,10.14,0,0,0,.9-1.3c-2-.8-4.1-1.5-6.1-2.3a8.91,8.91,0,0,1-1.8,3.8c-1.9,3.3,3.9,6.3,6,3Z" transform="translate(-34.6 -103.96)"/><path class="cls-1" d="M80,222.9c.2-.7.6-1.5.8-2.2-2.1-.5-4.3-1.1-6.5-1.6-.1.6-.3,1.1-.4,1.7,2.1.5,4.3,1.1,6.5,1.6.9-3.6,1.9-7.3,2.7-10.9.7-2.8-3.1-5.3-5.6-2.9-1.6,1.5-1.9,2.5-1.3,4.5.9,3.3,6.6,2.6,6.6-.8,0-5.3,0-10.6.1-15.9,0-3.9.6-7.4-2.3-10.5-1.9-1.9-5.9-.4-5.7,2.1.4,7,.9,14,1.2,21.1l6.2-1.5c.1-.4.1-.8.2-1.2,1.4-3.6-5-5.2-6.5-1.6a6.26,6.26,0,0,0,.4,5.8c1.3,2.7,6.3,1.3,6.2-1.5-.3-7-.8-14-1.2-21.1l-5.7,2.1c1.8,1.9.3,8.5.3,11v11.2c2.2-.3,4.3-.5,6.6-.8-.1-.3-.1-.6-.2-.9-.3,1-.6,1.9-.9,2.9a4.62,4.62,0,0,1,.7-.7c-1.9-1-3.7-1.9-5.6-2.9-.9,3.7-1.8,7.3-2.7,10.9-1,3.8,5.5,5.4,6.5,1.6.1-.6.3-1.1.4-1.7,1-3.8-5.1-5.3-6.5-1.6-.2.7-.6,1.5-.8,2.2-1.3,3.6,5.2,5.3,6.5,1.6Z" transform="translate(-34.6 -103.96)"/><path class="cls-1" d="M81,187.6v-1.9c0-2.8-4.8-4.3-6.2-1.5l-.6,1.2,6.2,1.5c.3-3.2.3-6.4.3-9.7s-5.8-4.2-6.6-.8a11.87,11.87,0,0,0,0,4.6c.7,3,5.7,2.8,6.5,0,1.1-4.1.4-7.9-.7-12-1-3.7-7.5-2.2-6.5,1.6.8,2.9,1.6,5.7.7,8.8h6.5V178c-2.2-.3-4.3-.5-6.6-.8a78.6,78.6,0,0,1-.3,9.7c-.2,2.9,4.8,4.2,6.2,1.5l.6-1.2-6.2-1.5v1.9c.2,3.8,6.8,3.8,6.7,0Z" transform="translate(-34.6 -103.96)"/><path class="cls-1" d="M70.8,158.1a16.6,16.6,0,0,0-.3,2.2,6.2,6.2,0,0,0,.4,2.3,9.59,9.59,0,0,0,2.6,3.8c-.6-.9-1.1-1.8-1.7-2.6v.1c.2-1.5.4-3.1.7-4.6v.1c1.3-.9,2.7-1.8,4-2.8h3.4c1.3.9,2.7,1.8,4,2.8v-.1a6.57,6.57,0,0,0-4-2.8,7.46,7.46,0,0,0-5.1.6,6.42,6.42,0,0,0-3.1,3.6c-.1.5-.1,1.1-.2,1.6a5.29,5.29,0,0,0,.9,3,1.34,1.34,0,0,0,.6.7,3.58,3.58,0,0,0,1.9,1.5,8.51,8.51,0,0,0,1.7.6,7.72,7.72,0,0,0,3.7,0,6.15,6.15,0,0,0,3.4-2.2,5.62,5.62,0,0,0,1.2-5.4,7.15,7.15,0,0,0-2.1-3.1c.3.4.7.8,1,1.2a2.19,2.19,0,0,0-.3-.5,6.11,6.11,0,0,0,.7,1.4,2.35,2.35,0,0,1-.2-.8c.1.5.1,1.1.2,1.6v-.6c-.1.5-.1,1.1-.2,1.6v-.2a3.94,3.94,0,0,0,.1-2.4,3.72,3.72,0,0,0-.8-2.2,7,7,0,0,0-9.1-2.2c-1.8,1.1-3.2,2.3-3.4,3.8Z" transform="translate(-34.6 -103.96)"/><path d="M35.8,279.8c5.7.2,11.4.4,17.1.9,1.2.1,1.2-1.1,0-1.2q-8.55-.6-17.1-.9c-1.3-.1-1.3,1.2,0,1.2Z" transform="translate(-34.6 -103.96)"/><path d="M35.9,279.3c1.4-21.9,3.2-43.8,5.2-65.6.1-.8-1.2-.8-1.3,0-2,21.9-3.8,43.7-5.2,65.6,0,.7,1.3.7,1.3,0Z" transform="translate(-34.6 -103.96)"/><path d="M53.1,137.6c.1-7.6.1-16,4.2-22.9,4.7-7.9,13.8-8.6,22.7-8.4a.6.6,0,1,0,0-1.2c-8.1-.2-16.7.2-22.1,6.4-6.1,7.1-6.1,17.5-6.2,26,0,.9,1.4.9,1.4.1Z" transform="translate(-34.6 -103.96)"/><path d="M55.5,279.9c2.2-22.2,3.9-44.4,6.7-66.6.1-.8-1.2-1.1-1.3-.3-2.7,22.2-4.6,44.6-6.7,66.9-.1.7,1.2.7,1.3,0Z" transform="translate(-34.6 -103.96)"/><path d="M62.5,214.4c3.7-15.1,6.3-30.4,9.1-45.7.2-.7-1.2-1-1.4-.2-2.9,15.2-5.4,30.6-9.1,45.7a.72.72,0,0,0,1.4.2Z" transform="translate(-34.6 -103.96)"/><path d="M63.3,157.1c2.8,5.5,5.3,11.5,12.4,13.3a.62.62,0,1,0,.3-1.2c-6.6-1.8-9-7.7-11.6-12.8-.2-.6-1.4,0-1.1.7Z" transform="translate(-34.6 -103.96)"/><path d="M72.6,170.1a.66.66,0,0,1,.1-.6c.6-.6-.7-1.2-1.1-.6a1.6,1.6,0,0,0-.2,1.5c0,.7,1.4.5,1.2-.3Z" transform="translate(-34.6 -103.96)"/><path d="M41.1,214.6c2.1-26,7.7-51.8,12.1-77.5.1-.8-1.1-1.1-1.3-.3-4.5,25.8-10,51.7-12.1,77.8-.2.8,1.2.8,1.3,0Z" transform="translate(-34.6 -103.96)"/><path d="M61.7,264.9A406.86,406.86,0,0,0,73,215.4c.1-.8-1.4-.8-1.5,0a426.37,426.37,0,0,1-11.3,49.2c-.2.7,1.4.9,1.5.3Z" transform="translate(-34.6 -103.96)"/><path d="M72.8,215.9c2.2-14.9,0-30.4-.8-45.5-.1-.8-1.8-.9-1.7-.1.7,15.1,2.9,30.6.8,45.5-.2.7,1.5.8,1.7.1Z" transform="translate(-34.6 -103.96)"/><path d="M82.4,264.5c3.1-27.9,3.1-56,3.7-84,.3-13.9.7-27.7,1.7-41.5.8-11.5,2-23.6-6.1-33.4-.6-.6-1.7,0-1.1.6,9.1,10.9,6.5,25,5.7,37.7-.9,13.5-1.2,27-1.4,40.6-.8,26.7-.9,53.5-3.9,80.1-.1.7,1.2.7,1.4-.1Z" transform="translate(-34.6 -103.96)"/><path d="M61.6,265.5c4.7.5,9.5,1.4,14.4,1.5,2.3,0,5.1-.3,5.7-2.2.3-.8-1.4-1.1-1.7-.3-.8,2.8-15.3.2-17.9-.1-1.1-.3-1.5,1-.5,1.1Z" transform="translate(-34.6 -103.96)"/><path d="M74.6,170.6c2.8.7,8,2.2,10.5,0,.6-.6-.3-1.4-.9-.8-1.1,1-3.1.6-4.6.5s-3.1-.5-4.6-.8a.6.6,0,1,0-.4,1.1Z" transform="translate(-34.6 -103.96)"/><path class="cls-1" d="M148.3,204.6a2.57,2.57,0,0,0-3.7-.4,5.2,5.2,0,0,0-1.7,3.8,1,1,0,0,1-.2.7.91.91,0,0,1-1.1.1,3,3,0,0,1-1.2-2c-.1-.8,0-1.6-.1-2.4a13.11,13.11,0,0,0-1.6-4.7,3.61,3.61,0,0,0,.1,2.5c1.3,3.6,2.5,7.2,3.8,10.8-.6-1.1-1.1-2.2-1.7-3.4a5.37,5.37,0,0,0,.5,2.1,1.9,1.9,0,0,1-.1-1.3,25.21,25.21,0,0,1,3.2,8.4" transform="translate(-34.6 -103.96)"/><path class="cls-1" d="M150,202.8a5.37,5.37,0,0,0-8.2.6,4.93,4.93,0,0,0-1.1,2.3c-.3,2.4,1.7.7,2.1-.8.5-1.9-1.2-5-2-6.6-.9-1.8-4.2-1.5-4.6.6-.8,4.7,2.3,10.2,3.9,14.6,1.5-.6,3-1.3,4.6-1.9-.6-1.1-1.1-2.2-1.7-3.4-1.4-2.7-5-.7-4.6,1.9a5.37,5.37,0,0,0,.5,2.1c.9,2.5,5.2,2.3,4.9-.7,0-.4-.1-.8-.1-1.3-1.6.4-3.1.8-4.7,1.3a27.18,27.18,0,0,1,2.9,7.8c.7,3.1,5.5,1.8,4.8-1.3a32.73,32.73,0,0,0-3.4-9c-1.2-2-4.9-1.3-4.7,1.3,0,.4.1.8.1,1.3,1.6-.2,3.3-.4,4.9-.7a5,5,0,0,1-.5-2.1c-1.5.6-3,1.3-4.6,1.9.6,1.1,1.1,2.2,1.7,3.4,1.2,2.5,5.5.8,4.6-1.9-.7-2-1.4-4.1-2.1-6.1-.5-1.6-2-4.2-1.8-5.9l-4.6.6c1.2,2.4.8,4.9,1.6,7.3a4.46,4.46,0,0,0,2.4,2.8,3.24,3.24,0,0,0,3.3-.2,38.11,38.11,0,0,0,2.6-4.4c2.6,2.4,6.1-1.2,3.8-3.5Z" transform="translate(-34.6 -103.96)"/><path class="cls-1" d="M152.6,273.2c-1.2.9-2.5,1.8-3.7,2.7a5.24,5.24,0,0,0,2.5.3c-1,.1-2.1.1-3.1.2-.3,0-.8,0-1-.3a1.7,1.7,0,0,1-.1-.7,63.12,63.12,0,0,0-.4-14.4,64.5,64.5,0,0,0,4.1,11.4c.6-4.5-2.1-8.7-2.7-13.2-.2-2-.1-4-.8-5.8-.1,2.3-.1,4.7-.2,7a34,34,0,0,0-1.6-9c.2,2.9.6,5.8,1,8.7" transform="translate(-34.6 -103.96)"/><path class="cls-1" d="M151.3,271c-1.2.9-2.5,1.8-3.7,2.7a2.56,2.56,0,0,0,.6,4.6,11,11,0,0,0,3.1.4v-5c-.5,0-1,.1-1.5.1-1.8.2-2.1.1-.8,0,.8.1,1.1-.2.8-1,0-.9.1-1.8.1-2.7a68,68,0,0,0-.6-9c-1.6.2-3.3.4-4.9.7a85.78,85.78,0,0,0,4.3,12c1.1,2.4,4.6,1,4.7-1.3.2-3.5-.8-6.4-1.8-9.7s-.9-6.7-1.8-10a2.51,2.51,0,0,0-4.9.7c-.1,2.3-.1,4.7-.2,7h5a45.87,45.87,0,0,0-1.7-9.7c-.7-2.6-5.2-2.2-4.9.7.3,3.1.6,6.2,1.1,9.4s5.2,1.8,4.8-1.3c-.4-2.7-.6-5.3-.9-8-1.6.2-3.3.4-4.9.7a40,40,0,0,1,1.5,8.4c.2,3.2,4.9,3.2,5,0,.1-2.3.1-4.7.2-7-1.6.2-3.3.4-4.9.7.8,2.7.6,5.6,1.3,8.3.9,3.4,2.3,6.4,2.1,10.1,1.6-.4,3.1-.8,4.7-1.3a69.21,69.21,0,0,1-3.8-10.8c-.7-2.6-5.3-2.2-4.9.7a73.56,73.56,0,0,1,.6,8.1c0,2.1-.7,5.3-.1,7.3,1,3,3.8,2.4,6.5,2.3,3.2-.2,3.2-5,0-5l-1.8-.3c.2,1.5.4,3,.6,4.6,1.2-.9,2.5-1.8,3.7-2.7,2.5-2.3,0-6.6-2.6-4.7Z" transform="translate(-34.6 -103.96)"/><path class="cls-1" d="M144.8,220.5c-.9,10.6.3,21.3,1.5,32-.2-1.4-.4-2.9-.7-4.3" transform="translate(-34.6 -103.96)"/><path class="cls-1" d="M142.3,220.5c-.8,10.7.3,21.3,1.5,32h5c-.2-1.7-.5-3.3-.8-4.9-.6-3.2-5.5-1.8-4.8,1.3a22.54,22.54,0,0,1,.6,3.6c.4,3.1,5.4,3.2,5,0-1.2-10.6-2.3-21.3-1.5-32,.2-3.3-4.8-3.2-5,0Z" transform="translate(-34.6 -103.96)"/><path class="cls-1" d="M143.4,212.5c0,.3-.1.7-.1,1a1.22,1.22,0,0,1-.9-.8,2.64,2.64,0,0,0-.6,2.3,21.72,21.72,0,0,0,.7,2.4,13,13,0,0,1,.2,3.4,47.81,47.81,0,0,0,.9,7.6l1.2,6.9" transform="translate(-34.6 -103.96)"/><path class="cls-1" d="M141,211.8c0,.3-.1.7-.1,1,1.4-.4,2.8-.7,4.2-1.1a6.47,6.47,0,0,0-.9-.8,2.51,2.51,0,0,0-3.9.5c-1.8,3.3-.2,7.3.1,10.8a129.65,129.65,0,0,0,2.1,13.7c.5,3.2,5.4,1.8,4.8-1.3-.7-3.8-1.5-7.7-1.9-11.6-.1-1.6-.1-3.2-.3-4.8-.1-1.1-1.1-3.3-.5-4.2-1.3.2-2.6.3-3.9.5a6.47,6.47,0,0,0,.9.8c1.2,1.1,3.9.9,4.2-1.1,0-.3.1-.7.1-1,.4-3.2-4.4-4.6-4.9-1.4Z" transform="translate(-34.6 -103.96)"/><path class="cls-1" d="M133.2,262h3.2a.37.37,0,0,0,.3-.1c.2-.1.1-.4.1-.6a15.76,15.76,0,0,0-1.6-3.5,13.44,13.44,0,0,0-1.1-1.4,17.79,17.79,0,0,1-1.7-3c-.6-1.3-1.2-2.7-1.9-4" transform="translate(-34.6 -103.96)"/><path class="cls-1" d="M133.2,264.5c1.6,0,4,.5,5.3-.8s.8-2.8.3-4.2a37.79,37.79,0,0,0-3-5.1,51.77,51.77,0,0,1-3-6.3c-1.4-2.9-5.7-.4-4.3,2.5,1,2.1,1.8,4.3,3,6.3,1.1,1.8,2.5,3.2,3,5.3.1-.6.2-1.3.3-1.9,0,.1-.1.2-.1.3a14.31,14.31,0,0,1,1.5-1.1,13.1,13.1,0,0,1-2.8,0c-3.4,0-3.4,5-.2,5Z" transform="translate(-34.6 -103.96)"/><path class="cls-1" d="M132.8,256.7a1.27,1.27,0,0,0,1.9-.5,2.44,2.44,0,0,0,0-2.2,21.16,21.16,0,0,0-1.2-2c-1.5-2.5-1.4-5.6-2.1-8.4a58.31,58.31,0,0,0-2.5-7,42.68,42.68,0,0,1-3.5-15.7" transform="translate(-34.6 -103.96)"/><path class="cls-1" d="M132.1,259.1c2.1.4,4.1,0,5-2.2,1.2-3-1.4-5.5-2.2-8.2-1.3-4.3-1.9-8.5-3.6-12.7a45.48,45.48,0,0,1-3.4-15c-.1-3.2-5.1-3.2-5,0,.2,6.8,2.2,12.7,4.6,18.9a52.8,52.8,0,0,1,2.2,8.7,13.31,13.31,0,0,0,1,3.4c.7,1.7.8,2,2.7,2.3-3.1-.5-4.4,4.3-1.3,4.8Z" transform="translate(-34.6 -103.96)"/><path class="cls-1" d="M130.7,236.3c-1.2-4.2-2.3-8.4-3.5-12.6-1.6-5.8-3.2-11.5-5.9-16.9" transform="translate(-34.6 -103.96)"/><path class="cls-1" d="M133.1,235.6c-2.8-10.1-5.1-20.6-9.7-30.1-1.4-2.9-5.7-.4-4.3,2.5,4.4,9.1,6.5,19.2,9.2,28.9.9,3.1,5.7,1.8,4.8-1.3Z" transform="translate(-34.6 -103.96)"/><path class="cls-1" d="M126.9,170.4a20.07,20.07,0,0,0-1.3,4.8,256.23,256.23,0,0,0-2.6,26.1,52.94,52.94,0,0,0,.2,8.9,40,40,0,0,0,1.7,6.6c.9-2.6.2-5.5-.2-8.2a65.32,65.32,0,0,1-.1-11.7c.3-5.2.6-10.3,1-15.5a14.45,14.45,0,0,1,.4-2.9c.2-.7.5-1.4.7-2.1.3-1.4-.2-3,.3-4.3" transform="translate(-34.6 -103.96)"/><path class="cls-1" d="M124.5,169.8c-2.8,7.2-2.9,16.4-3.5,24.1-.6,8.2-.9,15.7,1.6,23.6.7,2.2,4.3,2.5,4.8,0,.7-3.3.2-6.1-.1-9.3a81.85,81.85,0,0,1,0-13.1c.4-7.4.8-14.9,2.2-22.1.6-3.1-4.2-4.5-4.8-1.3a141.62,141.62,0,0,0-2.2,19.6c-.2,3.9-.5,7.8-.5,11.7,0,4.3,1.5,9.2.6,13.3h4.8c-2.4-7.4-2-14.6-1.4-22.3.6-7.3.6-15.9,3.3-22.8,1.2-3.1-3.6-4.4-4.8-1.4Z" transform="translate(-34.6 -103.96)"/><path class="cls-1" d="M119.7,169.6c-.3-.2-.7,0-1,.3-1.6,1.8-1.7,4.4-1.7,6.8" transform="translate(-34.6 -103.96)"/><path class="cls-1" d="M120.4,167.2c-5-1.5-5.8,6.4-5.8,9.5s5,3.2,5,0c0-1.7-.1-4.1,1.2-5.3-.4.2-.7.4-1.1.6.1,0,.2-.1.3-.1h-1.3c.1,0,.2.1.3.1,3.1.9,4.5-3.9,1.4-4.8Z" transform="translate(-34.6 -103.96)"/><path class="cls-1" d="M117.2,169.1c0-.1.1-.2.1-.3" transform="translate(-34.6 -103.96)"/><path class="cls-1" d="M119.4,170.4c0-.1.1-.2.1-.3a2.53,2.53,0,0,0-.9-3.4,2.47,2.47,0,0,0-3.4.9c0,.1-.1.2-.1.3a2.53,2.53,0,0,0,.9,3.4,2.58,2.58,0,0,0,3.4-.9Z" transform="translate(-34.6 -103.96)"/><path class="cls-1" d="M120.3,153.4a2.75,2.75,0,0,1-3.5-2.9,62,62,0,0,1-.4-12.2" transform="translate(-34.6 -103.96)"/><path class="cls-1" d="M120.3,150.9c-1.8-.1-1.4-4.5-1.5-6-.1-2.2,0-4.4.1-6.7.2-3.2-4.8-3.2-5,0a65.35,65.35,0,0,0,.4,12.5c.6,3.4,2.5,5,5.9,5.1s3.3-4.8.1-4.9Z" transform="translate(-34.6 -103.96)"/><path class="cls-1" d="M133,166.9c1.4.6,1.8,2.4,1.8,3.9a20.87,20.87,0,0,1-.4,4.3,7.33,7.33,0,0,1-1.4-3.8,8.5,8.5,0,0,1,1.6,6.9,2.38,2.38,0,0,1-.5-1.8,8.92,8.92,0,0,1,1.2,4.5c.7,6.1,1,12.2,2.7,18.1" transform="translate(-34.6 -103.96)"/><path class="cls-1" d="M131.2,168.7c1.6,1.3,1,4.1.8,5.8l4.6-.6a5.17,5.17,0,0,1-1.1-3.2c-1.5.6-3,1.3-4.6,1.9a8,8,0,0,1,1.3,5.6c1.6-.4,3.1-.8,4.7-1.3-.1-.2-.1-.4-.2-.6-1.6.4-3.1.8-4.7,1.3,1.7,3.6,1.4,8.5,1.9,12.4a77.34,77.34,0,0,0,1.8,9.6c.8,3.1,5.6,1.8,4.8-1.3-2-7.4-1-16.2-4.2-23.2-1-2.2-4.8-1.2-4.7,1.3a6.58,6.58,0,0,0,.9,3.1c1.3,2.3,4.4,1,4.7-1.3a11.91,11.91,0,0,0-2-8.2c-1.6-2.5-4.9-.8-4.6,1.9a10.2,10.2,0,0,0,1.6,4.4c1,1.7,4.2,1.6,4.6-.6.6-3.6,1.2-8.1-2-10.6-2.6-1.9-6.1,1.6-3.6,3.6Z" transform="translate(-34.6 -103.96)"/><path class="cls-1" d="M135.3,178.6c-.5.2-.6.9-.5,1.4.2,2,.4,4.1.7,6.1" transform="translate(-34.6 -103.96)"/><path class="cls-1" d="M134.1,176.4c-1.6,1.1-1.8,2.6-1.7,4.4a55.87,55.87,0,0,0,.8,5.9,2.5,2.5,0,0,0,4.8-1.4c-.2-1.1-.3-2.1-.4-3.2-.1-.6-.1-1.1-.2-1.7v-.6c0-.5,0-.4-.1,0l-.9.9c.1-.1.2-.1.3-.2,2.5-1.5,0-5.9-2.6-4.1Z" transform="translate(-34.6 -103.96)"/><path class="cls-1" d="M143.8,174.4a12.2,12.2,0,0,0,6.5-1.2,2.09,2.09,0,0,0,.6-.4,3.55,3.55,0,0,0,.4-.9,14.05,14.05,0,0,0-1.5-8.8" transform="translate(-34.6 -103.96)"/><path class="cls-1" d="M143.8,176.9c3.1.2,8.6-.4,9.7-3.9s0-8-1.6-11.3c-1.4-2.9-5.8-.3-4.3,2.5.9,1.9,1.7,4.3,1.3,6.4-.2.8.5-.1-.2.5a3.94,3.94,0,0,1-1.4.5,9.62,9.62,0,0,1-3.4.2c-3.3-.1-3.3,4.9-.1,5.1Z" transform="translate(-34.6 -103.96)"/><path class="cls-1" d="M148.1,184a131.55,131.55,0,0,1,8,28.2,100.87,100.87,0,0,0-4.9-16.2c-1.4-3.5-3-7-3.2-10.7l2.1,15a21.86,21.86,0,0,1,.3,5.1" transform="translate(-34.6 -103.96)"/><path class="cls-1" d="M145.7,184.6a137.57,137.57,0,0,1,8,28.2c1.6-.4,3.2-.9,4.8-1.3a110.52,110.52,0,0,0-3.9-13.6c-1.5-4.2-3.7-8.2-4.1-12.7-1.6.2-3.3.4-4.9.7.9,6.3,2.6,13.1,2.3,19.5-.1,3.2,4.9,3.2,5,0,.3-6.8-1.5-14.1-2.4-20.8-.4-2.8-5.2-2.1-4.9.7.4,4.4,2,8.2,3.6,12.3a117,117,0,0,1,4.6,15.3c.7,3.2,5.4,1.8,4.8-1.3a137.57,137.57,0,0,0-8-28.2c-1.3-3.1-6.1-1.8-4.9,1.2Z" transform="translate(-34.6 -103.96)"/><path class="cls-1" d="M150.7,234.8a42.09,42.09,0,0,0,2,6.3,133.76,133.76,0,0,0-1.6-17.9c-.7-4.9-1.7-10.1-.1-14.8a1.37,1.37,0,0,1,.5-.8,1.94,1.94,0,0,1,1.5-.2l2,.3a2.93,2.93,0,0,1,1,.3,1.7,1.7,0,0,1,.6,1,15.34,15.34,0,0,1,1.5,6.3c-.1,1-.3,2-.5,3-.9,5.5,1.2,11.2,0,16.7" transform="translate(-34.6 -103.96)"/><path class="cls-1" d="M148.3,235.5a58,58,0,0,0,2,6.3c.9,2.5,5,2.3,4.9-.7a135.55,135.55,0,0,0-1.1-14.3c-.6-4.7-2.2-10-1.3-14.8.5-2.5,1.6-2.3,2.3.1s.2,4.7,0,7.1c-.5,5.1,1,10.1.2,15.2-.5,3.1,4.3,4.5,4.8,1.3a47,47,0,0,0,.1-10.6c-.3-3.8.8-7.5.5-11.3-.4-5-2.6-9-8-8.8s-5.2,7.7-4.9,11.7c.6,8.2,2.2,16.3,2.5,24.5,1.6-.2,3.3-.4,4.9-.7-.8-2.1-1.4-4.2-2-6.3-.9-3.1-5.7-1.8-4.9,1.3Z" transform="translate(-34.6 -103.96)"/><path class="cls-1" d="M140.3,111.7" transform="translate(-34.6 -103.96)"/><path class="cls-1" d="M140.3,114.2c3.2,0,3.2-5,0-5s-3.2,5,0,5Z" transform="translate(-34.6 -103.96)"/><path class="cls-1" d="M120.6,116.1c.1-.1-.1-.2-.2-.1a10.13,10.13,0,0,0-5.3,7.9c.4-2.1.8-4.2,1.3-6.3" transform="translate(-34.6 -103.96)"/><path class="cls-1" d="M123,115.4v-.1a2.46,2.46,0,0,0-2.4-1.8c-2.2,0-4.4,2.3-5.6,4a13.5,13.5,0,0,0-2.4,6.5c-.3,2.8,4.4,3.4,4.9.7.4-2.1.8-4.2,1.3-6.3.7-3.1-4.1-4.5-4.8-1.3-.5,2.1-.9,4.2-1.3,6.3,1.6.2,3.3.4,4.9.7a7.87,7.87,0,0,1,4-5.8c-.4.1-.8.2-1.3.3h.2l-2.4-1.8v.1c1,2.9,5.9,1.6,4.9-1.5Z" transform="translate(-34.6 -103.96)"/><path class="cls-1" d="M159.3,230.7c0,.2-.1.3-.1.5a14.24,14.24,0,0,1-.2-4.6,23.62,23.62,0,0,0-1.6-9.1" transform="translate(-34.6 -103.96)"/><path class="cls-1" d="M156.9,230.1c0,.2-.1.3-.1.5h4.8c-.5-2.3,0-4.7-.3-7.1a28.81,28.81,0,0,0-1.5-6.6c-1.1-3-5.9-1.7-4.8,1.3a23.22,23.22,0,0,1,1.5,7.4,32.87,32.87,0,0,0,.3,6.3c.5,2.3,4.4,2.4,4.8,0,0-.2.1-.3.1-.5.6-3.2-4.2-4.5-4.8-1.3Z" transform="translate(-34.6 -103.96)"/><path class="cls-1" d="M130.7,144.8c-3.8,2-.3,7.1,3.9,5.7,3.8-2,4.6-7,.1-8.9-3.9-1.6-8.8,1.6-6.7,5.4,5.3,9.8,19.4-10.6,7.9-10.7-2.6,0-4.1,2.5-2.9,4.5,3.3,5.4,10.2,1.6,9.9-3.7l-5.7,2.1a7.71,7.71,0,0,0,2.1,1.4,3.67,3.67,0,0,0,4.6-1.1,5.9,5.9,0,0,0,1.2-2.2c-1.3.7-2.8,1.4-4.1,2.1,10.2,1.4,5-17.4,3.1-21.8a21.38,21.38,0,0,0-9.2-10.3c-4.8-2.6-9.1-1.6-14.2-2.1a3.39,3.39,0,0,0-2.9,1.5c-3.3,6.9-5.5,14.5-2.2,21.8,2.6,5.6,7.6,12.6,13.7,15.4,15.5,7.2,13-18.3,3.7-22.6-6.1-2.9-8.7,4.6-8.2,8.7.6,5,5.6,15,12,15.7,6.8.7,6-6.7,5-10.4-1.2-4.1-4.6-15-10.8-14.5-1.4.1-2.9.8-3.2,2.2-.9,3.9,1.8,12.2,6.8,13.4,7,1.7,6-7.7,5.1-11-.7-2.4-1.8-6-4.7-6.9a5.16,5.16,0,0,0-5.7,2.2c-2.4,4.1,2.4,10.8,6.3,12.7a3.68,3.68,0,0,0,4-.5c5.9-4.1-1.2-14.1-5-17.4-2-1.8-5.8-.5-5.7,2.1a18.6,18.6,0,0,0,3.9,10.9c1.9,2.5,6,1.5,6.2-1.5.2-4-1.1-14-7.5-14.1-6.6-.1-6.6,8.9-3.8,12.2,3.3,4,9.8,2.9,10.3-2.3s-3.8-10.7-9.7-11c-7.2-.4-6.8,6.5-3.9,10.5,3.2,4.4,9.8,4.1,10.6-1.6.4-3.5-2.2-12.3-7.9-11.1-6.1,1.4-4.1,12.1-3,15.8.7,2.3,3.7,2.7,5.6,1.3,4.5-3.3,2.8-11.8-1.1-15-5.7-4.7-8.6,4.5-8.9,7.7-.3,3.5,1.6,13.4,8,8.3,5.1-4,2.6-12.8-.8-16.8-1.6-1.9-5.5-2.1-6.1.7-1.6,6.2-1,12.3.7,18.5,1.4,5.3,3,11.2,7,15.4,2.7,2.9,8.3,6.9,12.9,5.4,4.9-1.7,2.8-7.4,2.8-11-2.2.3-4.3.5-6.6.8a29.16,29.16,0,0,1,1.4,3.8c1.2,3.4,6.1,2.5,6.6-.8a35.4,35.4,0,0,0,.3-6.5c-2.2.3-4.3.5-6.6.8a12,12,0,0,1,1,3.7c.6,3.7,6.1,2.2,6.6-.8a8.83,8.83,0,0,0-.2-2.8c-2.1.5-4.3,1.1-6.5,1.6.1.5.2,1.1.3,1.6.8,3.5,6.5,2.4,6.6-.8a12.17,12.17,0,0,0-.1-3.3c-.3-3.1-5.9-4.4-6.6-.8-.9,5.2,1.6,10.5,2.3,15.7,1.1,7.3,2.2,14.5,3.3,21.8,2.1-.5,4.3-1.1,6.5-1.6-2.7-7.1-5.2-14.3-7.9-21.4-1.1-3-7-2.7-6.6.8a226.79,226.79,0,0,0,4.7,22.9c1,3.9,7,2.1,6.5-1.6a98.65,98.65,0,0,0-9.8-29.2c-1.4-2.8-6.3-1.3-6.2,1.5.2,10.3,4.5,20.9,7.1,30.8.9,3.3,6.9,2.6,6.6-.8a68.21,68.21,0,0,0-8.6-28c-1.8-3.2-6.9-.9-6.1,2.3,2.4,9.7,4.8,19.3,7.2,28.9,1,3.8,7.1,2.1,6.5-1.6a75.6,75.6,0,0,0-8-22.8c-1.3-2.6-6.6-1.4-6.2,1.5a213.25,213.25,0,0,0,4.9,23.5c1,3.8,7.1,2.1,6.5-1.6a75,75,0,0,0-6.1-18.2c-1.7-3.4-6.6-.7-6.1,2.3a136.83,136.83,0,0,0,4,16.8c1,3.2,6.9,2.6,6.6-.8a42.55,42.55,0,0,0-2.7-11.6c-1.2-3.1-6.7-2.7-6.6.8.2,5.5,2.8,10.7,2.6,16.3,2.2-.3,4.3-.5,6.6-.8-3.9-12.9-8.2-25.6-12.9-38.3-1.3-3.7-7.3-2.2-6.5,1.6a25,25,0,0,0,8.5,13.7c2.1,1.8,5.7.5,5.7-2.1a24.4,24.4,0,0,0-5.3-15.4c-1.2-1.5-3.7-2.1-5.2-.6-2.9,2.8-1.6,4.9-1.4,8.4.1,3.9-1.9,8-2,12-.1,2.5.2,5.1,3.1,6.2a4.83,4.83,0,0,0,5.9-1.9c1.6-2.4-1-4.8-3.8-4.4-5.3.9-6.8,5-7.3,9.4-.4,3.3,4.6,3.5,6.2,1.5a8.31,8.31,0,0,0,2-4.1c.7-3.7-5.6-5.4-6.5-1.6-1.2,4.6-2.1,9.2-3,13.9-.6,3.1,4.3,5.6,6.1,2.3a17.68,17.68,0,0,0,1.9-13.3c-.8-3.2-5.3-2.5-6.5,0a62.4,62.4,0,0,0-3.2,9.5c2.2.3,4.3.5,6.6.8v-7.7c0-3.3-5.9-4.2-6.6-.8a27.1,27.1,0,0,0-.8,6.9c0,4,6.2,3.8,6.7,0a44.82,44.82,0,0,0,.1-8.2c-.3-3.1-5.9-4.3-6.6-.8a17.67,17.67,0,0,0-.4,5.6c.3,3.9,6.2,3.8,6.7,0a41,41,0,0,0,.2-6.1c-.2-3.2-5.9-4.3-6.6-.8a40.51,40.51,0,0,0-.7,7c.1,3.9,6.6,3.9,6.7,0,.1-3.5.1-6.9-.1-10.4-.2-3.8-6.7-3.9-6.7,0-.1,2-.1,4-.1,6h6.7c-.4-7.6-.4-15-.4-22.6,0-8.1-3-15.5-1-23.7.9-3.9-4.9-5.1-6.5-1.6-2.8,6.1-.9,12.2,1.4,18.2,1.4,3.6,7.9,2,6.5-1.6-2-5-3.8-9.8-1.4-15-2.1-.5-4.3-1.1-6.5-1.6-2,8.2-.1,15.4.7,23.5.3,3.8-.3,7.6-.1,11.4.2,4.3.6,8.7.8,13,.2,3.8,6.7,3.9,6.7,0,.1-2,.1-4,.1-6h-6.7c.2,3.5.2,6.9.1,10.4h6.7a32.72,32.72,0,0,1,.4-5.4c-2.2-.3-4.3-.5-6.6-.8a41.92,41.92,0,0,1-.2,6.1H123a13.29,13.29,0,0,1,.2-4c-2.2-.3-4.3-.5-6.6-.8a45,45,0,0,1-.1,8.2h6.7a23.28,23.28,0,0,1,.6-5.3c-2.2-.3-4.3-.5-6.6-.8v7.7c0,3.3,5.8,4.1,6.6.8a53.08,53.08,0,0,1,3.2-9.5h-6.5a11.58,11.58,0,0,1-1.2,8.7c2,.8,4.1,1.5,6.1,2.3.9-4.7,1.9-9.3,3-13.9-2.1-.5-4.3-1.1-6.5-1.6a3.23,3.23,0,0,1-1.3,2.7l6.2,1.5a3.11,3.11,0,0,1,2.4-3.6c-1.2-1.5-2.6-2.9-3.8-4.4,2.8.7,4,0,3.4-2.1a20.21,20.21,0,0,1,.6-3.4c.3-1.6.9-3.1,1.1-4.7.2-1.2-.8-6.7-.1-7.3l-5.2-.6c3.1,3.9,4.6,7.7,4.5,12.4l5.7-2.1a19.5,19.5,0,0,1-6.8-11.1c-2.1.5-4.3,1.1-6.5,1.6,4.7,12.6,9,25.4,12.9,38.3,1,3.4,6.5,2.5,6.6-.8.3-5.6-2.3-10.7-2.6-16.3-2.2.3-4.3.5-6.6.8a38.42,38.42,0,0,1,2.4,10c2.2-.3,4.3-.5,6.6-.8a108,108,0,0,1-4-16.8c-2,.8-4.1,1.5-6.1,2.3a67.49,67.49,0,0,1,5.5,16.8c2.1-.5,4.3-1.1,6.5-1.6a202.72,202.72,0,0,1-4.6-21.9l-6.2,1.5a69,69,0,0,1,7.3,21.3c2.1-.5,4.3-1.1,6.5-1.6-2.4-9.7-4.8-19.3-7.2-28.9-2,.8-4.1,1.5-6.1,2.3a63.86,63.86,0,0,1,7.7,25c2.2-.3,4.3-.5,6.6-.8-2.6-9.3-6.7-19.5-6.9-29.2l-6.2,1.5a88.82,88.82,0,0,1,9,27.8c2.1-.5,4.3-1.1,6.5-1.6a198.55,198.55,0,0,1-4.5-21.4c-2.2.3-4.3.5-6.6.8,2.7,7.1,5.2,14.3,7.9,21.4,1.4,3.8,7,2.1,6.5-1.6-.9-5.9-1.8-11.9-2.7-17.8-.4-2.6-.8-5.3-1.3-8s-2.1-5.7-1.7-8.4c-2.2-.3-4.3-.5-6.6-.8a12.17,12.17,0,0,1,.1,3.3c2.2-.3,4.3-.5,6.6-.8-.1-.5-.2-1.1-.3-1.6-.8-3.8-7.2-2.2-6.5,1.6a4.87,4.87,0,0,0-.1,1.2c2.2-.3,4.3-.5,6.6-.8a25.4,25.4,0,0,0-1-3.7c-1.1-3.1-6.7-2.7-6.6.8a35.39,35.39,0,0,1-.3,6.5c2.2-.3,4.3-.5,6.6-.8a29.16,29.16,0,0,1-1.4-3.8c-1.2-3.2-6.6-2.7-6.6.8-.1,1.2-.4,3.3.1,4.5-.3,1.7.2,2,1.6.7-.7-.3-1.4-.6-2.2-.9-3.7-1.9-5.5-5.2-6.8-8.8-2.6-7.2-4.7-14.7-2.8-22.2-2,.2-4.1.5-6.1.7a9.54,9.54,0,0,1,2.4,4.4s.2,4.5-.2,4.6c1.1.3,2.1.5,3.2.8-.9-.6-.4-7.1.7-7.6h-3.3c.4.2,2.8,5.1,1.1,6.3,1.9.4,3.7.9,5.6,1.3a11.09,11.09,0,0,1-.9-4,17.9,17.9,0,0,1,.2-4c-3.1-.8-3.8-.2-2,1.9.1,2.4.3,2.7.8,1,.3-1.7.9-1.5,1.8.7s1.1,2.1.1.1a14.16,14.16,0,0,1,1.6,7.5l6.2-1.5a12.8,12.8,0,0,1-2.9-7.9l-5.7,2.1c.8.7,6.9,7.6,5,8.9,1.3-.2,2.7-.3,4-.5-1.2-.5-2.9-4.5-3.6-4.7l-2.6,2.6c.1.5.3,1.1.4,1.6-.7,2-.1,2.8,1.7,2.4,1.3.3,1.7.1.9-.7.2-1.3-2.2-3.4-1.8-5-1.1.7-2.1,1.5-3.2,2.2.1,0,3.4,7.4,3.6,7.8.3.9.6,3.2,1.1,3.9.7.4,1.3.8,2,1.2a9.19,9.19,0,0,1-2.2-2.2c-1.9-2.2-3.8-4.8-4.2-7.6-.9-5.1-.2-2,.3-.6s1.2,2.5,1.6,3.9c.4,1.7,1.2,3.6-.4,4.7-1.8,1.1-2.8-.6-4-1.7a36.26,36.26,0,0,1-5.5-6.9c-4.1-6.4-3-12.9.1-19.5-1,.5-1.9,1-2.9,1.5,3,.3,5.9-.5,8.8.4a13.1,13.1,0,0,1,7,5.6,21,21,0,0,1,3.1,9.3c.2,1,1.3,7.5.7,8,1.1-.3,2.1-.5,3.2-.8-.2,0-.4-.1-.7-.1a3.47,3.47,0,0,0-4.1,2.1,4.17,4.17,0,0,1-.6.8c1.6-.4,3-.7,4.6-1.1-.2-.2-.6-.3-.8-.5-2-1.7-5.9-.6-5.7,2.1l2.6.6c-1,1.5-1.9,3-2.9,4.5-.4-.2-.9-.3-1.3-.5-.3-1-.6-1.9-.9-2.9a6.26,6.26,0,0,1-.7,2.2c-.8,1.3-.3,2.5,1.2,3.6-.6.9-1.1,1.7-1.7,2.6a14.54,14.54,0,0,1-1.7-1.9Z" transform="translate(-34.6 -103.96)"/><path class="cls-1" d="M123.3,147.2a3,3,0,1,0,0-6,3,3,0,1,0,0,6Z" transform="translate(-34.6 -103.96)"/><path class="cls-1" d="M129.1,140.6c1.6-3.6-4.9-5.2-6.3-1.5-.7,1.6-1.3,3.2-2,4.8,2.1.5,4.3,1.1,6.5,1.6a75,75,0,0,0,1.2-10.5c.2-2.7-3.7-3.7-5.7-2.1-2.2,1.9-2.1,4.1-2.4,6.8-.4,3.9-.9,7.9-1.3,11.9s6.1,3.8,6.7,0a29,29,0,0,0,.2-7.8c-.6-3.8-7.1-3.9-6.7,0a51.19,51.19,0,0,1-.6,14.1c-.6,2.8,3,5.1,5.6,2.9,3.9-3.4,6.7-7.5,9.5-11.8,3.1-4.8,6.6-9.5,9.2-14.6,1.2-2.4-.8-4.9-3.8-4.4-5.6.9-9.9,5.2-12.8,9.3-2.7,3.8-6.5,10-5.7,14.6.3,1.9,3.2,2.8,4.9,1.8.1,0,.1-.1.2-.1a2.78,2.78,0,0,0,1.2-4.1c0-.1-.1-.1-.1-.2-2.3-3.3-8.1-.3-5.8,3,0,.1.1.1.1.2.4-1.4.8-2.7,1.2-4.1-.1,0-.1.1-.2.1,1.7.6,3.2,1.2,4.9,1.8-.3-2.1,3.3-7.5,4.6-9.3,2.1-3.1,5-6.5,9.2-7.2-1.2-1.5-2.6-2.9-3.8-4.4a147.61,147.61,0,0,1-8.1,13c-2.9,4.3-5.5,8.7-9.6,12.2,1.9,1,3.7,1.9,5.6,2.9a55.08,55.08,0,0,0,.8-15.7h-6.7a34.09,34.09,0,0,1-.2,7.8h6.7c.2-2.5.6-4.9.8-7.4.1-1.4-.2-6.2,1-7.2l-5.7-2.1a67.34,67.34,0,0,1-1,8.9c-.7,3.8,5,5.3,6.5,1.6.6-1.6,1.2-3.2,1.9-4.8Z" transform="translate(-34.6 -103.96)"/><path class="cls-1" d="M143.9,184c-2,3.4,3.8,6.4,6.2,3.4a12.35,12.35,0,0,0,1.9-8.5c-.4-3.1-5.8-4.4-6.6-.8a10.69,10.69,0,0,0-.2,4c.3,2.6,4.7,4.5,6.2,1.5a12.22,12.22,0,0,0,1.7-7.2c-2.2.3-4.3.5-6.6.8.3,1,.6,1.9.9,2.9,1,3.5,6.1,2.3,6.6-.8a8.2,8.2,0,0,0-.3-4.1c-1.1-3.8-7.1-2.1-6.5,1.6a8.51,8.51,0,0,0,.9,3.1c1.2,3.1,6.7,2.7,6.6-.8a13.49,13.49,0,0,0-.7-4.4c-.8-2.7-6-3-6.5,0-.6,3.4-1,6.7-1.6,10.1h6.5c-1.2-2.6-2.3-5.1-3.6-7.7-1.1-2.4-5.8-3.3-6.5,0a43.57,43.57,0,0,0-.9,11.4c2.2-.3,4.3-.5,6.6-.8a41.87,41.87,0,0,0-3.2-8.3c-1.6-2.9-6-1.2-6.2,1.5a45,45,0,0,0,.6,11.6c2.1-.5,4.3-1.1,6.5-1.6a33.07,33.07,0,0,0-2-6.8,3.45,3.45,0,0,0-6.6.8,34.6,34.6,0,0,0,.3,8.5c1.7-1.1,3.2-2.3,4.9-3.4.8.6-.1-1.7-.2-2.3-.3-1.2-.6-2.3-.8-3.5-.6-2.6-1.1-5.3-1.7-7.9-.7-3.2-5.5-2.5-6.5,0-2,4.9,2.2,10.3,4.2,14.7,3,6.3,5.9,12.6,8.9,18.9,1.3,2.9,6.7,2.9,6.6-.8a39.38,39.38,0,0,0-3.8-15.7c-1.3-2.9-6.8-2.9-6.6.8a91.19,91.19,0,0,0,2.4,16.5c2.1-.5,4.3-1.1,6.5-1.6-.8-2-1.4-4-2.2-6-1.2-3.2-6.5-2.6-6.6.8a53.77,53.77,0,0,0,.6,9.8c2.2-.3,4.3-.5,6.6-.8-1.7-6.3-3.4-12.7-5.1-19.1-.8-2.8-5.8-2.9-6.5,0a9.26,9.26,0,0,0-.2,3.7c2.2-.3,4.3-.5,6.6-.8a10.26,10.26,0,0,0-1.4-3.8c-1.8-3.1-7.2-.9-6.1,2.3,2.3,6.6,4.6,13.2,6.8,19.8,1,3,5.3,2.7,6.5,0,1.2-3.1,1-6,.4-9.2a40.9,40.9,0,0,1,.1-14.8h-6.5c1.8,4.8,3.8,9.5,6,14.2,1.3,2.9,6.2,1.3,6.2-1.5a81.78,81.78,0,0,0-2.1-16.3c-2,.8-4.1,1.5-6.1,2.3q1.35,2.55,2.4,5.1c1.3,2.8,6.5,1.3,6.2-1.5a94.41,94.41,0,0,0-2-14c-.6-2.8-6-2.9-6.5,0-1.1,7.6,1.1,15.1,2.7,22.6.6,2.9,5.9,2.9,6.5,0a16.27,16.27,0,0,0,0-7.6c-.8-3.4-6.5-2.5-6.6.8a66,66,0,0,0,1,14c.6,3.4,6.6,2.5,6.6-.8a16.39,16.39,0,0,0-.9-5.3c-1.1-3.4-6.3-2.5-6.6.8a53.23,53.23,0,0,0,.6,11.3c.6,3.4,6.7,2.5,6.6-.8a23.8,23.8,0,0,0-1.1-7c-.8-2.7-5.9-3-6.5,0a52.63,52.63,0,0,0-.8,13.7c.3,3.8,6.7,3.9,6.7,0a42.7,42.7,0,0,0-.8-8.7c-.6-2.9-5.9-2.9-6.5,0a45.79,45.79,0,0,0-.7,11.7c.3,3.8,6.5,3.9,6.7,0a27.08,27.08,0,0,0-1.3-9.4c-.9-2.6-6-3.1-6.5,0a24.77,24.77,0,0,0,.2,9c.8,3.4,6.6,2.5,6.6-.8a21.6,21.6,0,0,0-1.4-7.9c-1.2-3.4-6.1-2.5-6.6.8a30.62,30.62,0,0,0-.1,8h6.7a37.41,37.41,0,0,0-1.3-6.5c-1.1-3.4-6.3-2.5-6.6.8a37.45,37.45,0,0,0-.1,5.8c2.2-.3,4.3-.5,6.6-.8-.6-2.4-1.1-4.7-1.9-7.1-1-3.2-6.8-2.6-6.6.8l.3,3.9H150c-.1-.8-.1-1.7-.2-2.5-2.2.3-4.3.5-6.6.8a157.7,157.7,0,0,0,5.9,24.4c1,3.1,5.3,2.6,6.5,0a20.44,20.44,0,0,0,1.4-12.2c-2.1.5-4.3,1.1-6.5,1.6.4,1.9,1,3.8,1.4,5.7.8,2.8,5.9,3,6.5,0a16.77,16.77,0,0,0,.3-5.9c-2.2.3-4.3.5-6.6.8.6,1.8,1.1,3.6,1.7,5.4.8,2.3,4.9,3.1,6.1.7,2-3.9.8-7.9.2-12.1-.7-4.9-1.3-9.8-2.1-14.7-.6-3.4-6.8-2.5-6.6.8.1,1.8.2,3.5.3,5.3.2,3.8,6.7,3.9,6.7,0v-9.2c0-3.5-5.5-4-6.6-.8-3.4,9.7-.7,19.8-2.1,29.7h6.7l-1.2-9.3c-.4-3-6-4.4-6.6-.8-2,12.7,3.2,25,2.2,37.8-.2,3.4,5.7,4,6.6.8a32.55,32.55,0,0,0,.7-16.1c-.7-3.4-6.6-2.5-6.6.8a96.2,96.2,0,0,0,1.4,14.2c.6,2.8,6,2.9,6.5,0a56.45,56.45,0,0,0,.6-16.4h-6.7l.9,6.9c.4,3.9,6.1,3.8,6.7,0a35,35,0,0,0-.7-12.9c-.9-3.8-7.1-2.2-6.5,1.6.3,1.9.7,3.7,1,5.5.7,3.4,6.6,2.4,6.6-.8.1-3.6.1-7.2.2-10.8,0-3.4-5.8-4.1-6.6-.8-1,4.3-1.2,11.6-5.1,14.5,1.1-.3,2.1-.5,3.2-.8.2,0-.2-9.3-.3-10.5l-.9-12.3c-2.2.3-4.3.5-6.6.8,1.6,8.7,3,17.3,4.6,26,1.2,7.2,1.8,14.7,5.8,21.2,1-1.5,1.9-3,2.9-4.5a14.81,14.81,0,0,0-5.9.8c1.4,1,2.8,1.9,4.2,2.9a114.54,114.54,0,0,0-.8-19.4c-.4-3.8-6.6-3.9-6.7,0,0,1.1-.1,2.1-.1,3.2-.1,3.9,6.5,3.8,6.7,0a9.85,9.85,0,0,0-1.2-5.3c-1.3-2.7-6.5-1.4-6.2,1.5.3,3.8.8,7.6,1.4,11.3s7.1,2.2,6.5-1.6a80.29,80.29,0,0,1-1.2-9.7l-6.2,1.5c.1.7.2,1.5.3,2.2H156c0-1.1.1-2.1.1-3.2h-6.7a125.44,125.44,0,0,1,.8,19.4c-.1,1.8,2.2,3.6,4.2,2.9a7.13,7.13,0,0,1,4.1-.6,3,3,0,0,0,2.9-4.5c-3.9-6.4-4.2-14.6-5.5-21.7-1.4-8-2.8-16.1-4.2-24.1-.6-3.4-6.8-2.5-6.6.8.4,6.3.9,12.6,1.3,18.9.2,2.9-.1,7.2,3.1,9,8.7,4.8,11-13.9,11.8-17.3-2.2-.3-4.3-.5-6.6-.8-.1,3.6-.1,7.2-.2,10.8,2.2-.3,4.3-.5,6.6-.8-.3-1.9-.7-3.7-1-5.5-2.1.5-4.3,1.1-6.5,1.6a30.7,30.7,0,0,1,.3,11.3h6.7l-.9-6.9c-.4-3.8-7.1-3.8-6.7,0a49,49,0,0,1-.2,14.8h6.5a76.76,76.76,0,0,1-1.2-12.6c-2.2.3-4.3.5-6.6.8a26.86,26.86,0,0,1-.7,12.9c2.2.3,4.3.5,6.6.8,1-12.1-4.3-24.1-2.4-36.2-2.2-.3-4.3-.5-6.6-.8l1.2,9.3c.4,3.9,6.1,3.8,6.7,0,1.3-9.4-1.3-19,1.9-28.1-2.2-.3-4.3-.5-6.6-.8v9.2h6.7c-.1-1.8-.2-3.5-.3-5.3-2.2.3-4.3.5-6.6.8.6,4.1,1.2,8.1,1.8,12.2.3,2.8,2.1,7.4.8,10,2,.2,4.1.5,6.1.7-.6-1.8-1.1-3.6-1.7-5.4-1-3.2-7-2.6-6.6.8a12.43,12.43,0,0,1-.1,4.3h6.5c-.4-1.9-1-3.8-1.4-5.7-1-3.9-7-2.1-6.5,1.6a16.49,16.49,0,0,1-1.4,9h6.5a157.7,157.7,0,0,1-5.9-24.4c-.6-3.4-6.9-2.5-6.6.8.1.8.1,1.7.2,2.5.3,3.8,7,3.9,6.7,0l-.3-3.9c-2.2.3-4.3.5-6.6.8.7,2.3,1.3,4.7,1.9,7.1.8,3.3,6.8,2.5,6.6-.8a56.13,56.13,0,0,1,.1-5.8c-2.2.3-4.3.5-6.6.8a38.77,38.77,0,0,1,1.1,4.9c.4,3.8,7.1,3.8,6.7,0a35.68,35.68,0,0,1,.1-8c-2.2.3-4.3.5-6.6.8a16.73,16.73,0,0,1,1.1,6.3c2.2-.3,4.3-.5,6.6-.8a11.38,11.38,0,0,1-.2-5.8h-6.5a21.07,21.07,0,0,1,1.1,7.8H155a49.51,49.51,0,0,1,.4-10.2h-6.5a41.66,41.66,0,0,1,.6,7.1h6.7a54.28,54.28,0,0,1,.4-12.1h-6.5a19.7,19.7,0,0,1,.9,5.4c2.2-.3,4.3-.5,6.6-.8a35.07,35.07,0,0,1-.3-9.7c-2.2.3-4.3.5-6.6.8a9.29,9.29,0,0,1,.6,3.7c2.2-.3,4.3-.5,6.6-.8a64.1,64.1,0,0,1-.8-12.4c-2.2.3-4.3.5-6.6.8a8.21,8.21,0,0,1,0,4.4H157c-1.3-6.2-3.7-13.1-2.7-19.4h-6.5a102.88,102.88,0,0,1,1.8,12.4l6.2-1.5q-1.35-2.55-2.4-5.1c-1.6-3.4-6.8-.8-6.1,2.3a73.09,73.09,0,0,1,1.9,14.7l6.2-1.5a117.34,117.34,0,0,1-5.3-12.7c-1-2.6-5.8-3.1-6.5,0a47.49,47.49,0,0,0-1,11.9c.2,4,1.9,8.2.3,12.1h6.5c-2.3-6.6-4.6-13.2-6.8-19.8-2,.8-4.1,1.5-6.1,2.3.2.8.6,1.5.8,2.3.7,3.3,7,2.5,6.6-.8v-2.1h-6.5c1.7,6.3,3.4,12.7,5.1,19.1.9,3.2,7,2.6,6.6-.8a64.48,64.48,0,0,1-.6-9.8c-2.2.3-4.3.5-6.6.8.8,2,1.4,4,2.2,6,1.3,3.7,7.3,2.2,6.5-1.6a75.51,75.51,0,0,1-2.2-14.9c-2.2.3-4.3.5-6.6.8a38.14,38.14,0,0,1,3.6,14.1c2.2-.3,4.3-.5,6.6-.8-2.3-5.1-4.8-10.2-7.1-15.3-1.2-2.7-2.6-5.4-3.8-8.1-.9-1.9-3-4.8-2.1-7h-6.5c.8,3.8,1.6,7.6,2.3,11.4.6,2.7.8,4.3,3.2,5.9,2.7,1.7,5.2-1.1,4.9-3.4a26.57,26.57,0,0,1-.1-6.9c-2.2.3-4.3.5-6.6.8a33.07,33.07,0,0,1,2,6.8c.8,3.8,7.1,2.1,6.5-1.6a37.26,37.26,0,0,1-.3-10l-6.2,1.5a32.91,32.91,0,0,1,2.6,6.8c.9,3.3,6.8,2.6,6.6-.8a36,36,0,0,1,.7-9.8h-6.5c1.2,2.6,2.3,5.1,3.6,7.7,1.1,2.3,5.9,3.3,6.5,0s1-6.7,1.6-10.1h-6.5c.1.9.3,1.9.4,2.8,2.2-.3,4.3-.5,6.6-.8a6.93,6.93,0,0,1-.9-3.1c-2.1.5-4.3,1.1-6.5,1.6,0,.8.1,1.7.1,2.5,2.2-.3,4.3-.5,6.6-.8-.3-1-.6-1.9-.9-2.9-1-3.2-6.9-2.6-6.6.8a5.62,5.62,0,0,1-.7,4.2l6.2,1.5v-2.4c-2.2-.3-4.3-.5-6.6-.8a6.28,6.28,0,0,1-.6,5.5Z" transform="translate(-34.6 -103.96)"/><path class="cls-1" d="M154.5,267.4c-.7,3.8,5.8,5.4,6.6,1.6a12.75,12.75,0,0,0,0-3.9c-.6-3.2-5.5-2.5-6.5,0-.8,1.7-.6,2.6.4,4.2,1.3,2.2,5.7,1.9,6.1-.7,1.3-7.3-.2-15.3-1.3-22.5-.6-3.3-5.5-2.4-6.5,0-1.6,3.5-1.7,7.1-1.7,10.9a84.1,84.1,0,0,1-1.3,12.3c-.9,5.4,3.3,9.3,9.5,9.2,1.7,0,3.6-1.4,3.3-3-.3-2.3-.6-4.7-.9-7-.4-3.8-7.1-3.8-6.7,0,.3,2.3.6,4.7.9,7l3.3-3c-4.8.1-2.3-4.3-2-6.4.2-1.6.3-3.2.4-4.8.2-4.6-.4-9.1,1.4-13.6H153c.9,6,2.3,13.3,1.3,19.3,2-.2,4.1-.5,6.1-.7.1.1.1.3.2.4h-6.5a.67.67,0,0,1,.4.7Z" transform="translate(-34.6 -103.96)"/><path class="cls-1" d="M126.2,182.4c1.1-3.7-5.3-5.3-6.9-1.6-1.4,4.9-2.7,9.8-3.7,14.8,2.2.3,4.3.5,6.6.8a176.67,176.67,0,0,0-.8-17.8h-6.7c.9,9,1.7,18,.3,27h6.7c-.1-2.6-.1-5.1,0-7.7.1-3.3-6-4.2-6.6-.8-1.1,7.1,1.4,14.1.4,21.2h6.7c-.2-2-.3-4.1-.6-6.1-2.2.3-4.3.5-6.6.8,1.1,6.4,2,12.9,2.6,19.4.4,4.2,1.6,8.2,1.6,12.4a60.89,60.89,0,0,0,2.3,14.7c.8,3.1,2.4,5.1,6.2,5.2a3,3,0,0,0,1.7-5.6c-.9-.5-.9-6.7-1.1-8.1a37.35,37.35,0,0,0-2.7-8.6,3.46,3.46,0,0,0-6.6.8,48,48,0,0,0,1.7,19.2c.8-1.2,1.6-2.5,2.3-3.7-.7.2-1.4.3-2.1.5,1.3.7,2.8,1.4,4.1,2.1-1.7-7.1-.7-15.2-.8-22.4-.1-3.3-5.9-4.2-6.6-.8a35.71,35.71,0,0,0-.6,10.8h6.7c-.6-5,1-10,.2-15.1-.6-3.7-6.5-4-6.7,0-.1,2.3-.2,4.5-.3,6.8h6.7a151.82,151.82,0,0,0-1.1-19.1c-.4-3.8-6.2-3.9-6.7,0a43.09,43.09,0,0,0,.6,12.4c.7,3.8,7.1,2.2,6.5-1.6a36.23,36.23,0,0,1-.2-10.9H116a136,136,0,0,1,1.1,19.1c0,3.9,6.5,3.8,6.7,0,.1-2.3.2-4.5.3-6.8h-6.7c.8,5-.9,10-.2,15.1.4,3.8,7.1,3.9,6.7,0a31.57,31.57,0,0,1,.3-9.2c-2.2-.3-4.3-.5-6.6-.8.2,7.8-.7,16.3,1.1,24,.4,1.6,2.4,2.5,4.1,2.1.7-.2,1.4-.3,2.1-.5a3,3,0,0,0,2.3-3.7,43.56,43.56,0,0,1-1.3-17.6c-2.2.3-4.3.5-6.6.8a49.26,49.26,0,0,1,3.4,14.1c.3,2.7.8,4.6,3.4,6.2.6-1.9,1.1-3.7,1.7-5.6-.6,0-2.3-19-2.9-21.5-1.9-8.3-1.8-17.3-3.2-25.7-.6-3.4-6.9-2.5-6.6.8.2,2,.3,4.1.6,6.1.3,3.9,6.1,3.8,6.7,0,1-6.6-1.7-13-.7-19.6-2.2-.3-4.3-.5-6.6-.8-.1,2.6-.1,5.1,0,7.7.2,4,6.1,3.7,6.7,0,1.2-9,.6-18-.3-27-.3-3.8-7-3.9-6.7,0a175.36,175.36,0,0,1,.8,17.8c0,3.3,5.9,4.2,6.6.8,1.3-5,2.6-9.9,4-14.8Z" transform="translate(-34.6 -103.96)"/><path class="cls-1" d="M123.3,136.7c-3.6,2.2-.2,7.4,3.6,5.4,2.8-1.7,3.7-4.4,1.9-7.1-1.6-2.4-5.1-1.6-6.1.7-2.1,4.8,4.5,6.2,8,4.1,6-3.6,4.8-10.7,2.4-15.8-2,.8-4.1,1.5-6.1,2.3,2.6,4.9,10.9,7,12.7.4-2,.2-4.1.5-6.1.7a9.13,9.13,0,0,0,6.3,4.2c1.9.4,4.6-.8,4.2-2.9a12.25,12.25,0,0,0-.2-1.9c-1.7.9-3.3,1.7-5,2.6a22,22,0,0,1,1.8,1.4c1.7,1.8,4.8.7,5.6-1.3.1-.5.3-.9.4-1.3-1.9.4-3.7.9-5.6,1.3a7.07,7.07,0,0,0,2.7,2c3,1.6,6-1.5,4.6-4.1-1-1.9-2.1-3.9-3.2-5.8-1.8,1.2-3.4,2.4-5.2,3.6a25.73,25.73,0,0,1,2.4,2.1c2.7,2.3,7.5-.7,5.2-3.6a26.37,26.37,0,0,1-3.4-5.5c-1.7,1.1-3.2,2.3-4.9,3.4.6.5,1.2.9,1.8,1.4,2.4,3.2,7.8.5,5.8-3a44.59,44.59,0,0,0-6.2-8.1c-1.3,1.6-2.7,3.1-4,4.7l3.9,1.8c3.2,1.5,6.9-2.3,4-4.7a25.24,25.24,0,0,0-10.8-5.5V114a12.42,12.42,0,0,1,3.3-.4c3.8-.1,4.6-5,.9-5.9a40.83,40.83,0,0,0-7-1.1c.8,1.7,1.6,3.4,2.3,5.1a.76.76,0,0,1,.4-.1c4.2-.8,2.4-6.6-1.8-5.8a6.81,6.81,0,0,0-3.3,1.6c-2.3,1.8-.3,4.9,2.3,5.1a21.75,21.75,0,0,1,5.2.9c.3-2,.6-3.9.9-5.9a41.83,41.83,0,0,0-5.1.6,3,3,0,0,0,0,5.8,17,17,0,0,1,7.8,3.9c1.3-1.6,2.7-3.1,4-4.7l-3.9-1.8c-3.4-1.6-6.6,2.1-4,4.7a34.21,34.21,0,0,1,5.1,6.9c1.9-1,3.9-2,5.8-3a10.23,10.23,0,0,0-4.1-3.6c-2.3-1.2-6.1.9-4.9,3.4a40.46,40.46,0,0,0,4.1,6.9c1.8-1.2,3.4-2.4,5.2-3.6a25.73,25.73,0,0,1-2.4-2.1c-2.8-2.5-6.9.6-5.2,3.6,1,1.9,2.1,3.9,3.2,5.8,1.6-1.4,3-2.7,4.6-4.1-.4-.4-.9-.7-1.3-1.1-1.7-1.9-4.9-.7-5.6,1.3-.1.5-.3.9-.4,1.3,1.9-.4,3.7-.9,5.6-1.3a10.34,10.34,0,0,0-3.1-2.4c-1.9-1.1-5.3.3-5,2.6a12.25,12.25,0,0,0,.2,1.9c1.4-1,2.8-1.9,4.2-2.9a25.5,25.5,0,0,1-2.4-1.4c-1.4-2.1-5.5-1.9-6.1.7-.1-.6-.3-1.2-.4-1.8-1.7-3.1-7.6-.8-6.1,2.3a16.77,16.77,0,0,1,1.7,4.9,4.12,4.12,0,0,1-.4,3.4c.4,1.1.8,2.3,1.2,3.4-2,.2-4.1.5-6.1.7-.2-.4,0-.7.1-1.1Z" transform="translate(-34.6 -103.96)"/><path class="cls-1" d="M155.9,274.9c2.4,3.2,8.2.2,5.9-2.9a.1.1,0,0,1-.1-.1c-.4,1.4-.8,2.7-1.2,4.1.1,0,.1-.1.2-.1-1.7-.6-3.2-1.2-4.9-1.8.4,3,3,3,5.6,3.9s5.3-2.3,3.8-4.4a6,6,0,0,1-1.8-3.4c-2,.8-4.1,1.5-6.1,2.3a12.23,12.23,0,0,0,1.2,1.9,3.59,3.59,0,0,0,5.2.6c3.6-3.1-.8-9.5-.7-13.3-2.2.3-4.3.5-6.6.8.4,1.1,1,2.2,1.4,3.3,1.6,3.5,7.3,2.3,6.5-1.6s-2.4-8.3-1.9-12.5c-2.2.3-4.3.5-6.6.8.8,2.1,1.4,4.2,2.2,6.3,1.3,3.7,7.8,2.1,6.5-1.6-.8-2.1-1.4-4.2-2.2-6.3-1.2-3.4-6.1-2.4-6.6.8-.7,4.7,1.1,9.5,2.1,14.1,2.1-.5,4.3-1.1,6.5-1.6-.4-1.1-1-2.2-1.4-3.3-1.3-3-6.5-2.8-6.6.8a18.07,18.07,0,0,0,.6,5.2c.2,1,.6,5.1,2,3.9l5.2.6a5.54,5.54,0,0,1-1.2-1.9c-1.8-3.1-7-.9-6.1,2.3a15.45,15.45,0,0,0,2.4,4.8c1.2-1.5,2.6-2.9,3.8-4.4-1.9-.7-1-.5-.9.2-.3-2-3.2-2.6-4.9-1.8-.1,0-.1.1-.2.1a2.78,2.78,0,0,0-1.2,4.1.1.1,0,0,1,.1.1Z" transform="translate(-34.6 -103.96)"/><path class="cls-1" d="M155.8,251.8c-1.1,3.8,5.3,5.3,6.5,1.6a9.23,9.23,0,0,0,.1-3.7c-2,.8-4.1,1.5-6.1,2.3.2.5.6.9.8,1.4,1.1,2.1,4.6,1.8,5.8,0,.9-1.4.7-2.5.2-4a58,58,0,0,1-2.1-8.2c-2.1.5-4.3,1.1-6.5,1.6a33.72,33.72,0,0,0,3,6.4c1.9,2.9,7.3.9,6.1-2.3a46.82,46.82,0,0,1-2.7-10.4c-2.2.3-4.3.5-6.6.8l1.2,3.9c1.2,3.8,7.1,2.1,6.5-1.6a5.66,5.66,0,0,0-.8-2.5c-2.1.5-4.3,1.1-6.5,1.6.2.5.6,1.1.8,1.7,1.7,3.5,7.5,2.3,6.5-1.6-.8-3.2-.3-6.1-1.9-9.1-1.9-3.5-7.6-.5-5.8,3,1.2,2.2.7,5.3,1.2,7.7,2.1-.5,4.3-1.1,6.5-1.6-.2-.5-.6-1.1-.8-1.7-1.7-3.5-8-2.1-6.5,1.6a5.66,5.66,0,0,1,.8,2.5c2.1-.5,4.3-1.1,6.5-1.6l-1.2-3.9c-1-3.2-6.9-2.6-6.6.8a42.09,42.09,0,0,0,2.9,12c2-.8,4.1-1.5,6.1-2.3a25,25,0,0,1-2.3-5c-1.3-3.8-7-2.1-6.5,1.6.6,3.2,1.9,6.3,2.4,9.5.1-.8.2-1.5.3-2.3a.76.76,0,0,1-.2.4h5.8c-.2-.5-.6-.9-.8-1.4-1.9-3.3-6.7-.8-6.1,2.3.1.2,0,.3,0,.5Z" transform="translate(-34.6 -103.96)"/><path class="cls-1" d="M152.7,211.3c-.8,3.8,5.6,5.4,6.6,1.6a4.42,4.42,0,0,0-.1-3.2c-2,.8-4.1,1.5-6.1,2.3.3.4.6.7.9,1.1,2,2.6,7.6,1.1,6.1-2.3-1.7-3.8-3.3-7.5-5-11.3-2,.8-4.1,1.5-6.1,2.3,1.2,2.4,2.6,4.7,3.9,7,1.4,2.6,6.5,1.4,6.2-1.5a19.87,19.87,0,0,0-2-7.1c-1.9,1-3.9,2-5.8,3,.6,1.2,1.2,2.3,1.8,3.5,1.7,3.2,7.1.9,6.1-2.3-1.6-4.6-3-9.2-4.6-13.7-2,.8-4.1,1.5-6.1,2.3a33.49,33.49,0,0,1,3.2,6.6c1.3,3.8,7.1,2.1,6.5-1.6a65.58,65.58,0,0,0-2.6-10.6c-2,.8-4.1,1.5-6.1,2.3a10.62,10.62,0,0,1,2.1,3.1c1.7,3.2,7.1.9,6.1-2.3-1.4-4.6-3-9.3-4.5-13.9-1.2-3.7-7.7-2.1-6.5,1.6,1.4,4.6,2.9,9.3,4.5,13.9,2-.8,4.1-1.5,6.1-2.3a21.12,21.12,0,0,0-2.1-3.1c-2.1-2.6-7.2-1.2-6.1,2.3a78,78,0,0,1,2.6,10.6c2.1-.5,4.3-1.1,6.5-1.6a37.4,37.4,0,0,0-4-8c-1.9-2.9-7.2-1-6.1,2.3,1.6,4.6,3.1,9.1,4.6,13.7,2-.8,4.1-1.5,6.1-2.3-.6-1.2-1.2-2.3-1.8-3.5-1.9-3.6-7.5-.5-5.8,3a8.69,8.69,0,0,1,1.1,4.1l6.2-1.5c-1.2-2.4-2.6-4.7-3.9-7-1.7-3-7.5-.9-6.1,2.3,1.7,3.8,3.3,7.5,5,11.3,2-.8,4.1-1.5,6.1-2.3-.3-.4-.6-.7-.9-1.1-2-2.6-7.7-1.1-6.1,2.3h.1Z" transform="translate(-34.6 -103.96)"/><path class="cls-1" d="M147.4,169.1c-3.8,1.8-.4,6.9,3.2,5.2,2.4-1.1,3-3.2,2.4-5.5-.8-3.1-2.1-6.1-3.2-9.1-2,.8-4.1,1.5-6.1,2.3.9,1.9,1.9,3.9,2.8,5.8,1.6,3.2,7,.9,6.1-2.3-.4-1.7-1-3.4-1.4-5.1a14.73,14.73,0,0,0-.8-2.8c0-.1-.4-1.7-.6-1-1.7.6-3.2,1.2-4.9,1.8a.1.1,0,0,0,.1.1c-.6-1.1-1-2.3-1.6-3.4v.1c-1.7,3.6,4.8,5.1,6.5,1.6v-.1a3,3,0,0,0-1.6-3.4.1.1,0,0,0-.1-.1c-1.8-.7-4.6-.3-4.9,1.8-.3,1.9.3,3.5.9,5.3.7,2.3,1.3,4.5,2,6.8,2-.8,4.1-1.5,6.1-2.3-.9-1.9-1.9-3.9-2.8-5.8-1.6-3.2-7.2-.9-6.1,2.3.7,1.6,1.2,3.3,1.8,4.9.3.8.6,1.9,1,2.7.9,1.3-.1.8,1.2.2Z" transform="translate(-34.6 -103.96)"/><path class="cls-1" d="M151.7,159.6c-.9-3.8-7.2-2.2-6.5,1.7a4.62,4.62,0,0,0,2.8,3.3c2.3,1.1,6-.8,4.9-3.4a60.63,60.63,0,0,1-4.2-13.1c-2,.8-4.1,1.5-6.1,2.3a15.57,15.57,0,0,1,1.6,2.8c.1.3.6,2.6.8,1.7,1.1-.7,2.1-1.5,3.2-2.2H148l3.3,3v-.2c-.4-3.8-7.1-3.8-6.7,0v.2q.3,2.7,3.3,3h.2a3.28,3.28,0,0,0,3.2-2.2c.6-3.1-1.3-6.6-3-9.2-2-3.1-6.8-.9-6.1,2.3a68.88,68.88,0,0,0,4.2,13.1c1.7-1.1,3.2-2.3,4.9-3.4a1.38,1.38,0,0,1,.4.3Z" transform="translate(-34.6 -103.96)"/><path class="cls-1" d="M141.5,148.4c-.2,3.8,6.5,3.8,6.5,0a7.57,7.57,0,0,0,.1-1.5l-6.2,1.5c.7,1.2,1.2,2.3,1.9,3.4,1.8,3.1,7.1.9,6.1-2.3-.6-1.7-1-3.3-1.6-5-2,.8-4.1,1.5-6.1,2.3.3.6.7,1.1,1,1.7,1.9,3,7.1.9,6.1-2.3a39.92,39.92,0,0,1-1.1-4.7c-2.2.3-4.3.5-6.6.8a10.14,10.14,0,0,0,1,2.4c1.2-1.5,2.6-2.9,3.8-4.4-.1,0-.2-.1-.3-.1.7.5,1.3.9,2,1.4-1.7-2.3-.7-6.7-.3-9.3h-6.7a33,33,0,0,0,1.6,11.2c1.2,3.7,7.6,2.1,6.5-1.6a31.24,31.24,0,0,1-1.2-9.6c.1-3.9-6.2-3.8-6.7,0-.4,3.5-1.9,12.7,3.7,13.8,2.9.6,5.1-2,3.8-4.4-.1-.4-.2-.7-.3-1-.8-3.3-7-2.6-6.6.8a33.56,33.56,0,0,0,1.3,6.3c2-.8,4.1-1.5,6.1-2.3-.3-.6-.7-1.1-1-1.7-1.9-3-7.1-.9-6.1,2.3.6,1.7,1,3.3,1.6,5,2-.8,4.1-1.5,6.1-2.3-.7-1.2-1.2-2.3-1.9-3.4-1.6-2.8-6.1-1.3-6.2,1.5a2.7,2.7,0,0,0-.3,1.5Z" transform="translate(-34.6 -103.96)"/><path class="cls-1" d="M127.3,256.6a2.94,2.94,0,0,0-3.2,3c-.1,1.7,1.6,2.9,3.3,3,.4,0,.9.1,1.3.1l-3.3-3v.9c-.1,2.3,2.9,3.7,5,2.6h-.3c-.7-.1.1,0,.3.1-.4-1.7-1-3.3-1.4-5,0,.1-.7.6-.2.3l-.8.4a3,3,0,0,0,.8,5.5,8,8,0,0,0,5.3-.6,2.9,2.9,0,0,0,0-5.2c-.2,0-1.1-.6-.6-.2-.2-.2-.8-.9-.4-.4-.1-.1-.6-1-.3-.4,0-.2-.1-.3-.1-.5h0l-5.7,2.1,2.1,1.8a3.63,3.63,0,0,0,4.7,0,2.82,2.82,0,0,0,0-4.2l-2.1-1.8c-2-1.7-5.9-.6-5.7,2.1a8,8,0,0,0,4.7,6.7v-5.2c-.3.1-.4.1-.1,0a.37.37,0,0,1-.3.1c.2-.1.9,0,.2-.1.2,1.8.6,3.7.8,5.5a8.38,8.38,0,0,0,2.4-1.6,2.72,2.72,0,0,0,.9-2.9,3.26,3.26,0,0,0-2.3-2.1,6.25,6.25,0,0,0-5.2.4c1.7.9,3.3,1.7,5,2.6v-.9a3.28,3.28,0,0,0-3.3-3c-.6,0-1-.1-1.5-.1Z" transform="translate(-34.6 -103.96)"/><path class="cls-1" d="M127.3,259.6c.8,3.8,7.2,2.2,6.5-1.6a16.52,16.52,0,0,0-1.6-4.2c-1.7-3.3-6.8-.8-6.1,2.3.1.3.1.6.2.9,2.1-.5,4.3-1.1,6.5-1.6a226.13,226.13,0,0,1-7.9-29c-2,.8-4.1,1.5-6.1,2.3a51.71,51.71,0,0,1,4.8,14.7c.7,3.8,7.1,2.2,6.5-1.6a54.83,54.83,0,0,0-5.5-16.1c-1.7-3.3-6.8-.8-6.1,2.3a226.13,226.13,0,0,0,7.9,29c1.3,3.7,7.2,2.2,6.5-1.6-.1-.3-.1-.6-.2-.9-2,.8-4.1,1.5-6.1,2.3a12.76,12.76,0,0,1,.7,2.8Z" transform="translate(-34.6 -103.96)"/><path class="cls-1" d="M118.8,231.1c.8,3.9,7.1,2.2,6.3-1.6-.3-1.7-.7-3.4-.9-5.1-2,.8-4.1,1.5-6.1,2.3.7,1.4,1.4,2.7,2.1,4,2,3.6,7.5.5,5.8-3-1.4-3-2.8-6.2-3-9.5l-6.2,1.5a13.32,13.32,0,0,1,1,2.8c.9,3.4,6.3,2.5,6.6-.8a10.34,10.34,0,0,0-.7-4.6c-1.4-3.7-7.3-2.2-6.5,1.6.4,1.7.9,3.3,1.4,5,1.2,3.7,7.7,2.1,6.5-1.6-.3-1.2-.7-2.4-.9-3.6-2.1.5-4.3,1.1-6.5,1.6.9,2.4,1.7,4.8,2.6,7.2,2-.8,4.1-1.5,6.1-2.3a23.26,23.26,0,0,1-2.7-9.2c-.3-3.8-7-3.9-6.7,0a31.26,31.26,0,0,0,3.6,12.2c1.7,3.1,7.2.9,6.1-2.3-.9-2.4-1.7-4.8-2.6-7.2-1.3-3.8-7.1-2.1-6.5,1.6a15.82,15.82,0,0,0,.9,3.6c2.1-.5,4.3-1.1,6.5-1.6a28.51,28.51,0,0,1-1.4-5c-2.1.5-4.3,1.1-6.5,1.6a6.25,6.25,0,0,1,.4,3c2.2-.3,4.3-.5,6.6-.8a18.52,18.52,0,0,0-1.7-4.2c-1.4-2.7-6.5-1.4-6.2,1.5.3,4.4,2.1,8.4,4,12.5,1.9-1,3.9-2,5.8-3-.7-1.4-1.4-2.7-2.1-4-1.9-3.4-6.6-.7-6.1,2.3.3,1.7.6,3.4,1,5.1Z" transform="translate(-34.6 -103.96)"/><path class="cls-1" d="M144.5,178.6c1.1,3.7,7.6,2.2,6.3-1.6a16.46,16.46,0,0,1-.4-3.1l-5.7,2.1c.7.5,1.2.9,1.8,1.4,1.9,1.6,6,.7,5.7-2.1a21.94,21.94,0,0,0-1-5.1c-1.9,1-3.7,1.9-5.6,2.9.8.8,1.4,1.5,2.2,2.2a3.47,3.47,0,0,0,5.7-2.1,5.49,5.49,0,0,0-1-3.7c-2.1-3.4-7.9-.4-5.8,3,2.9,4.8,2.7,10.5,3.9,15.7.9,3.8,7.3,2.2,6.5-1.6-1.3-5.8-1.2-11.8-4.6-17.1-1.9,1-3.9,2-5.8,3,0,.2.1.5.1.7l5.7-2.1a15.25,15.25,0,0,1-2.2-2.2c-2.1-2.4-6.5.2-5.6,2.9a22.07,22.07,0,0,1,.8,3.5l5.7-2.1c-.7-.5-1.2-.9-1.8-1.4-2-1.7-5.8-.6-5.7,2.1a18.51,18.51,0,0,0,.8,4.7Z" transform="translate(-34.6 -103.96)"/><path class="cls-1" d="M157.9,199.8a3.1,3.1,0,0,0-3.4-2.9,3.64,3.64,0,0,0-2.3.9,2.64,2.64,0,0,0-1,2.1,6.17,6.17,0,0,0,2,3.9,3.77,3.77,0,0,0,3.7.6,2.88,2.88,0,0,0,2-2.7v-1c.1-1.7-1.6-2.9-3.3-3a3.15,3.15,0,0,0-3.3,3v1l5.7-2.1c-.6-.5.1.1.1.1l-.2-.4c.1.2.2.5.3.7a2.35,2.35,0,0,1-.2-.8c0,.3.1.5.1.8-.2-.1-.2-.1-.2-.2Z" transform="translate(-34.6 -103.96)"/><path class="cls-1" d="M122.3,235.1c2.1,3.3,7.9.3,5.8-3a10.26,10.26,0,0,1-1.8-3.8c-2,.8-4.1,1.5-6.1,2.3a10.14,10.14,0,0,0,.9,1.3c1.7,2.4,6.3,1.6,6.2-1.5a8.34,8.34,0,0,0-.6-3.5c-1.2-3.7-7.3-2.2-6.5,1.6,2,8.3,3.9,16.7,5.7,25,.9,3.8,7.2,2.2,6.5-1.6-1.8-8.4-3.7-16.7-5.7-25-2.1.5-4.3,1.1-6.5,1.6.1.6.2,1.3.3,1.9l6.2-1.5a10.14,10.14,0,0,0-.9-1.3c-2-2.8-7.1-1-6.1,2.3a25.28,25.28,0,0,0,2.6,5.2Z" transform="translate(-34.6 -103.96)"/><path class="cls-1" d="M120.4,221.7c1.3,3.7,7.8,2.1,6.3-1.6-.2-.7-.6-1.5-.8-2.2-1.3-3.7-7.5-2.2-6.5,1.6.1.6.3,1.1.4,1.7,1,3.8,7.5,2.2,6.5-1.6-.9-3.6-1.8-7.2-2.7-10.9-1.9,1-3.7,1.9-5.6,2.9a4.62,4.62,0,0,0,.7.7c-.3-1-.6-1.9-.9-2.9-.1.3-.1.6-.2.9,2.2.3,4.3.5,6.6.8V199.9c0-2.5-1.4-9.1.3-11l-5.7-2.1c-.4,7.1-.9,14.1-1.2,21.1-.1,2.8,4.9,4.2,6.2,1.5a6.26,6.26,0,0,0,.4-5.8c-1.4-3.6-7.9-2-6.5,1.6.1.4.1.8.2,1.2l6.2,1.5c.3-7.1.8-14.1,1.2-21.1.2-2.5-3.8-4-5.7-2.1-2.9,3.1-2.3,6.6-2.3,10.5.1,5.3.1,10.6.1,15.9,0,3.4,5.7,4.1,6.6.8.6-2,.2-3-1.3-4.5a3.33,3.33,0,0,0-5.6,2.9c.8,3.6,1.8,7.3,2.7,10.9,2.1-.5,4.3-1.1,6.5-1.6-.1-.6-.3-1.1-.4-1.7-2.1.5-4.3,1.1-6.5,1.6a7.17,7.17,0,0,1,1,2.2Z" transform="translate(-34.6 -103.96)"/><path class="cls-1" d="M119.4,186.4c-.1,3.9,6.6,3.9,6.7,0v-1.9l-6.2,1.5a3.38,3.38,0,0,0,.6,1.2c1.4,2.7,6.5,1.4,6.2-1.5a78.6,78.6,0,0,1-.3-9.7c-2.2.3-4.3.5-6.6.8v1.4h6.5c-.9-3.1-.1-5.9.7-8.8,1-3.8-5.5-5.3-6.5-1.6-1.1,4.1-1.8,7.9-.7,12,.8,2.8,5.8,3,6.5,0a11.87,11.87,0,0,0,0-4.6c-.8-3.4-6.5-2.5-6.6.8s0,6.5.3,9.7l6.2-1.5a3.38,3.38,0,0,0-.6-1.2c-1.4-2.8-6.2-1.3-6.2,1.5v1.9Z" transform="translate(-34.6 -103.96)"/><path class="cls-1" d="M129.7,157c-.2-1.5-1.7-2.8-3.1-3.8a7,7,0,0,0-9.1,2.2,4.53,4.53,0,0,0-.8,2.2,3.94,3.94,0,0,0,.1,2.4v.2c-.1-.5-.1-1.1-.2-1.6v.6c.1-.5.1-1.1.2-1.6a2.35,2.35,0,0,1-.2.8c.2-.4.4-.9.7-1.4a2.19,2.19,0,0,0-.3.5c.3-.4.7-.8,1-1.2a7.15,7.15,0,0,0-2.1,3.1,5.62,5.62,0,0,0,1.2,5.4,6.52,6.52,0,0,0,3.4,2.2,7.72,7.72,0,0,0,3.7,0,17.71,17.71,0,0,0,1.7-.6,4,4,0,0,0,1.9-1.5,4.35,4.35,0,0,0,.6-.7,5.29,5.29,0,0,0,.9-3c-.1-.5-.1-1.1-.2-1.6A6.42,6.42,0,0,0,126,156a7.53,7.53,0,0,0-5.1-.6,6.57,6.57,0,0,0-4,2.8v.1c1.3-1,2.7-1.9,4-2.8h3.4c1.3,1,2.7,1.9,4,2.8v-.1c.2,1.5.4,3.1.7,4.6v-.1c-.6.8-1.1,1.7-1.7,2.6a10.76,10.76,0,0,0,2.6-3.8,6.2,6.2,0,0,0,.4-2.3,18,18,0,0,0-.6-2.2Z" transform="translate(-34.6 -103.96)"/><path d="M164.7,278.6c1.2,0,1.2-1.2,0-1.2q-8.55.3-17.1.9c-1.2.1-1.2,1.3,0,1.2,5.7-.5,11.4-.7,17.1-.9Z" transform="translate(-34.6 -103.96)"/><path d="M164.5,278.1a.65.65,0,0,0,1.3,0c-1.4-21.9-3.2-43.7-5.2-65.6-.1-.8-1.4-.8-1.3,0,2,21.8,3.8,43.7,5.2,65.6Z" transform="translate(-34.6 -103.96)"/><path d="M147.4,136.5c0,.8,1.3.8,1.4-.1-.1-8.5-.1-18.9-6.2-26-5.5-6.2-14-6.6-22.1-6.4a.6.6,0,1,0,0,1.2c8.9-.2,18,.5,22.7,8.4,4,6.9,4,15.3,4.2,22.9Z" transform="translate(-34.6 -103.96)"/><path d="M144.9,278.7c.1.7,1.4.8,1.3,0-2.1-22.3-3.9-44.7-6.7-66.9a.67.67,0,0,0-1.3.3c2.8,22.2,4.5,44.4,6.7,66.6Z" transform="translate(-34.6 -103.96)"/><path d="M138,213.3c.2.7,1.4.5,1.4-.2-3.7-15.1-6.2-30.4-9.1-45.7-.1-.8-1.5-.6-1.4.2,2.8,15.2,5.4,30.6,9.1,45.7Z" transform="translate(-34.6 -103.96)"/><path d="M137.1,155.9c.3-.7-.9-1.3-1.1-.7-2.6,5.1-5,11-11.6,12.8a.62.62,0,1,0,.3,1.2c7.1-1.8,9.6-7.8,12.4-13.3Z" transform="translate(-34.6 -103.96)"/><path d="M127.9,169c-.2.7,1.1,1,1.2.3a1.6,1.6,0,0,0-.2-1.5c-.4-.6-1.7,0-1.1.6a.66.66,0,0,1,.1.6Z" transform="translate(-34.6 -103.96)"/><path d="M159.4,213.4c.1.8,1.4.8,1.3,0-2.1-26.1-7.7-52-12.1-77.8-.2-.8-1.4-.5-1.3.3,4.4,25.7,10,51.5,12.1,77.5Z" transform="translate(-34.6 -103.96)"/><path d="M138.8,263.7c.1.7,1.6.4,1.5-.3A406.53,406.53,0,0,1,129,214.2c-.1-.8-1.6-.8-1.5,0a406.86,406.86,0,0,0,11.3,49.5Z" transform="translate(-34.6 -103.96)"/><path d="M127.7,214.7c.2.8,1.9.7,1.7-.1-2.1-14.9,0-30.4.8-45.5.1-.8-1.6-.7-1.7.1-.8,15.1-3.1,30.6-.8,45.5Z" transform="translate(-34.6 -103.96)"/><path d="M118.1,263.3c.1.8,1.4.8,1.3.1-3-26.6-3.1-53.4-3.7-80.1-.2-13.6-.6-27.1-1.4-40.6-.8-12.7-3.4-26.8,5.7-37.7.6-.6-.6-1.2-1.1-.6-8.1,9.8-6.9,21.9-6.1,33.4,1,13.8,1.3,27.6,1.7,41.5.5,28,.5,56.1,3.6,84Z" transform="translate(-34.6 -103.96)"/><path d="M138.9,264.3c1-.1.6-1.3-.4-1.1-2.6.3-17.1,2.9-17.9.1-.3-.8-1.9-.5-1.7.3.6,1.9,3.3,2.2,5.7,2.2,4.8-.1,9.6-1,14.3-1.5Z" transform="translate(-34.6 -103.96)"/><path d="M125.9,169.4c.9-.2.4-1.4-.4-1.1-1.4.3-3,.6-4.6.8-1.4.1-3.4.5-4.6-.5a.6.6,0,1,0-.9.8c2.5,2.2,7.7.7,10.5,0Z" transform="translate(-34.6 -103.96)"/></svg>