<svg id="Layer_1" data-name="Layer 1" xmlns="http://www.w3.org/2000/svg" viewBox="0 0 80.25 221.49"><defs><style>.cls-1{fill:#ad2c00;}.cls-2{fill:#ad1800;}</style></defs><title>Strapless</title><path class="cls-1" d="M90.7,156.3c-1.6,1.5-3.2,3-4.8,4.6.5,1.1.9,2.3,1.4,3.4l-2.7-1.2c.2,1.6.4,3.1.6,4.7l.3-.3c-1,.3-1.9.5-2.9.8.2.1.3.1.5.2L81,166.4c.1.2.1.3.2.5.3-1,.5-1.9.8-2.9-.5.6-4,.8-4.2.7-3.2-.3-4.4-2.3-5.8-4.7-1.9-3.1-3.6-7.1-2.6-10.8,2.1-7.6,11.1-9.5,17.9-10a168.12,168.12,0,0,1,21.3.1c7.3.4,15.7,1.3,20.5,7.7,1.8,2.4,6.8,1.2,5.5-2.3a11.3,11.3,0,0,0-3.2-4.8c-2.4-2-6.8.7-4.7,3.6a16.32,16.32,0,0,1,3.3,11.7c-.2,3.3,4,3.6,5.6,1.5a7.8,7.8,0,0,0,1-7.9c-1.2-2.8-6.4-2.9-5.9.8a14.93,14.93,0,0,1-1.9,10.1c-1.6,2.9,2.4,6.2,4.7,3.6.8-.9,1.6-1.8,2.4-2.6-1.7-1-3.3-1.9-5-2.9a11.87,11.87,0,0,1-3.6,4.7,3.08,3.08,0,0,0,.7,5.5,3.39,3.39,0,0,0,3.1,0c-1-1.7-1.9-3.3-2.9-5-3.2,3.3-9.9,1.7-13.9,1s-8-1.8-12-2.7c-7.8-1.9-15.8-3.8-23.9-2.9l-2.3.3a1.72,1.72,0,0,1-2.4-.9s3.8,4.7,3.5,5a11.7,11.7,0,0,1-.4-3.2,3.92,3.92,0,0,1,1.4-4.1c1.2-1.9,2-1.6,2.2,1a9.88,9.88,0,0,1,.4,3.8c-1.7,3.1-3.3-.3-3.8-2.3-.3-1.5.5-2.6-.7-3.4,1.4,2.4,1.4,2.6,0,.7.6-2-.3-3.1-2.5-3.2-.9-2.1,3.7-3.8,4.8-4-1.1-1.5-2.3-2.9-3.4-4.4a11.2,11.2,0,0,1-6.2,4.7l3.7,3.7c.6-3.8,10-6.5,13.1-7.3a49.72,49.72,0,0,1,15.4-1.3,52.67,52.67,0,0,1,14.8,2.4c3.1,1.1,7.7,2.8,8.3,6.4.4,2.7-.3,6.7-2,8.8-2.3,3,1.7,7.2,4.2,4.2,6.4-7.4,6.1-17.8-1.4-24.4-2.9-2.5-7.1,1.7-4.2,4.2,3.2,2.8,6.1,6,4.2,10.5h5.8c-1.3-4.5-.4-9.7-3.4-13.6-2.7-3.4-7-4.3-11.1-4.1-13,.5-26.1,4.8-38.5,8.4-3,.9-2.7,4.8,0,5.8,6.4,2.4,13.4,1.9,20.1,2.6a120.8,120.8,0,0,1,23,4.9v-5.8c-11.8,2.4-23.8,1.8-35.6-.3a3,3,0,0,0-1.6,5.8c11.2,4.1,22.5,8.1,34.2,10.5a3,3,0,0,0,2.3-5.5c-6.2-3.8-12.5-7.7-18.7-11.5-1,1.7-2,3.5-3,5.2,8.3,3.5,16.5,7,25.4,8.6a3,3,0,0,0,1.6-5.8c-5.4-1.9-10.8-3.8-15.4-7.4-1,1.7-1.9,3.3-2.9,5,4.8,2,9.7,4.1,14.5,6.1.5-1.9,1.1-3.9,1.6-5.8-8.5-2.8-17.1-5.6-25.6-8.4-3.2-1-5.4,4-2.3,5.5a124.39,124.39,0,0,0,14.2,5.8c.3-2,.5-3.9.8-5.9a71.65,71.65,0,0,1-21.1-3.4c-.3,2-.5,3.9-.8,5.9l7-.6c-.3-2-.5-3.9-.8-5.9-1,0-2,0-3-.1.4,1.7.9,3.3,1.3,5,8.7-7.2,20.3-4,29.7-.4.5-1.9,1.1-3.9,1.6-5.8-11.2-3.1-24.8-8.8-36.2-4.1-3.5,1.4-2.3,6.8,1.6,5.8,7.3-1.9,14.8-3.8,22.4-4.3,3.9-.2,6.9.3,9.6,3.1,1.8,1.9,3.1,3.7,5.3,5.2-.2-1.6-.4-3.1-.6-4.7-2.8,2.8-5.7,5.6-7.5,9.1-1.9,3.8-2.6,8-3.5,12-2.2,10.1-5.3,20-8,30s-5.3,19.9-8.2,29.7c-.8,2.7-1.4,4.7-4.4,5.5-4.3,1.1-7.2-.6-8.9-4.4-2.1-4.5-2.2-9.5-2.3-14.3-.1-3.9-6.1-3.9-6,0,.2,8.1.9,21.7,10.4,24.7,3.9,1.2,9.8.4,12.9-2.3,3.7-3.1,4.4-8.8,5.6-13.2,3.5-12.6,7-25.3,10.5-37.9,1.7-6.2,3.4-12.4,4.7-18.6a34.89,34.89,0,0,1,2.4-8.2c1.5-3.1,4.2-5.5,6.6-7.9a3,3,0,0,0-.6-4.7c-3-2.1-4.6-5.5-7.8-7.4a16.12,16.12,0,0,0-8.6-1.8c-8.5.1-17.3,2.4-25.5,4.5.5,1.9,1.1,3.9,1.6,5.8,10.2-4.2,23,1.2,33,4.1,3.8,1.1,5.1-4.4,1.6-5.8-11.9-4.5-25.1-6.7-35.6,2-1.7,1.5-.7,4.5,1.3,5a14.41,14.41,0,0,0,6.2.1c3.3-.7,2.6-6.2-.8-5.9l-7,.6a3,3,0,0,0-.8,5.9,76.49,76.49,0,0,0,22.7,3.7c3.5,0,3.9-4.8.8-5.9a118.25,118.25,0,0,1-12.8-5.2c-.8,1.8-1.5,3.7-2.3,5.5,8.5,2.8,17.1,5.6,25.6,8.4,3.8,1.2,5-4.3,1.6-5.8-4.8-2-9.7-4.1-14.5-6.1-2.7-1.1-5.2,3.2-2.9,5,5.4,4.3,11.5,6.7,18,8.9.5-1.9,1.1-3.9,1.6-5.8-8.4-1.5-16.2-4.6-24-8-3.5-1.5-6.4,3.1-3,5.2,6.2,3.8,12.5,7.7,18.7,11.5.8-1.8,1.5-3.7,2.3-5.5-11.7-2.4-23-6.4-34.2-10.5-.5,1.9-1.1,3.9-1.6,5.8,12.9,2.4,25.9,3,38.8.3,3.1-.6,2.6-4.9,0-5.8a131.05,131.05,0,0,0-21.5-4.8c-7.1-.9-14.8-.1-21.6-2.7V152c9.5-2.7,19.1-5.5,28.8-7.2,3.9-.7,11.8-2.9,14.7,1.2,1.9,2.7,1.1,7.9,2.1,11.1s4.7,2.6,5.8,0c2.7-6.4-1-12.1-5.7-16.4l-4.2,4.2c4.9,4.3,5.7,10.9,1.4,15.9l4.2,4.2c3.5-4.5,5.7-13.2,2.2-18.3-4.3-6.2-14.1-8.1-20.9-9a62.53,62.53,0,0,0-23.6,1c-5.4,1.4-16.3,5-17.2,11.5-.3,2.1,1.3,4.5,3.7,3.7a18.11,18.11,0,0,0,9.8-7.4c1.6-2.4-1.1-4.7-3.4-4.4a10.62,10.62,0,0,0-9,8.5c-.9,4.9,2.4,8.3,7.3,7,3.8-1,7.8-4.4,5.8-8.7-1.7-3.6-6.4-3.8-9-1-6.6,6.9,4.4,21.3,10.1,12.7,5-7.5-7.5-18.5-11-7.5a12.27,12.27,0,0,0,2.9,11.7c2.8,3,8.3,5.3,11.1,1.1,4.5-6.6-1.1-23.8-10.3-15.9-3.6,3-5.8,8.2-3.9,12.7,1.5,3.6,5.9,6.8,9.9,5,5-2.2,1.7-7.9-.5-11S74,148.3,69.9,152c-3.2,2.9-2.8,9,.8,11.4,2.6,1.7,5.7.9,8.6.7a51,51,0,0,1,12.9.9c8.1,1.5,15.9,4.1,24,5.2,5.6.7,12,1.3,16.3-3.1,1.9-2,0-6.1-2.9-5h.1c.2,1.8.5,3.7.7,5.5a19.42,19.42,0,0,0,6.4-8.3c1.2-2.8-3.1-5-5-2.9-.8.9-1.6,1.8-2.4,2.6,1.6,1.2,3.1,2.4,4.7,3.6a20.69,20.69,0,0,0,2.7-13.1c-2,.3-3.9.5-5.9.8a2.29,2.29,0,0,1-.4,3.3l5.6,1.5a22,22,0,0,0-4.1-14.7c-1.6,1.2-3.1,2.4-4.7,3.6.6.7,1.1,1.4,1.7,2.1,1.8-.8,3.7-1.5,5.5-2.3-6.7-8.9-17.2-10.3-27.7-10.8-10.8-.5-24.9-1.9-34.6,4-8.4,5.1-10.8,14.1-6.7,22.9,1.8,3.9,4.3,8.3,8.6,9.9,3.4,1.3,9.9,1.2,12.4-1.8a3.16,3.16,0,0,0,.8-2.9,4.14,4.14,0,0,0-2.8-2.8,2.86,2.86,0,0,0-2.9.8l-.3.3c-1.3,1.2-1.1,3.9.6,4.7,4.2,2,11.1.1,9.3-5.9-1.5-5-7.9-4-9.4.4a3.09,3.09,0,0,0,1.4,3.4c6.9,4.3,11.8-7.6,4.6-10.1s-8.4,10-.2,9.1c6.3-.7,7.7-11.9.7-11.7a4.53,4.53,0,0,0-4,5.6c.9,3.9,5.1,4.3,8.3,3.1s1.7-7-1.9-5.7Z" transform="translate(-59.89 -132.49)"/><path class="cls-1" d="M72.7,167.7c-.1.6-.1,1.3-.2,1.9l5.1-2.1c-.3-.4-.7-.8-1-1.2-2.4-2.8-6,.8-4.7,3.6.3,1.2.6,2.4.8,3.6,2-.3,3.9-.5,5.9-.8a4.86,4.86,0,0,1-.5-2.9h-6a210.76,210.76,0,0,0,3.8,23.6c1.8-.8,3.7-1.5,5.5-2.3a7.23,7.23,0,0,1-1.1-3.7c-.5-3.3-6.3-2.6-5.9.8l2.1,18c2-.3,3.9-.5,5.9-.8a84.66,84.66,0,0,1-2.2-15.8l-5.6,1.5c2.6,3.7,1.2,10.5,1.5,14.8a119,119,0,0,0,2.1,14.4c.7,3.1,4.9,2.6,5.8,0,2.2-6.5,4.5-13,6.7-19.5H84.9a93.61,93.61,0,0,1,1.8,17.5c2-.3,3.9-.5,5.9-.8-2.6-8.3-.6-16.4,2.2-24.3s5.6-15.5,8.5-23.2c-2-.3-3.9-.5-5.9-.8.9,18.5,1.8,37.2-.9,55.6h5.8c-1.8-9.9-.4-19.8,2-29.5,1.1-4.3,2.4-8.6,3.2-13s1.2-8.7,2.2-12.9h-5.8c1.7,7.8.2,15.4-1.5,23-1.6,7-2.9,14.1-4.1,21.2,1.8-.2,3.7-.5,5.5-.7-3.4-8.1-3.2-17.4-3.4-26.1-.2-8.4-.7-17.1.8-25.4-1.9-.5-3.9-1.1-5.8-1.6a134.76,134.76,0,0,1-8.3,27.8c2,.3,3.9.5,5.9.8-.2-9.7,2.5-18.7,5.8-27.8-2-.3-3.9-.5-5.9-.8a63.7,63.7,0,0,1-5.6,22.3c1.8.2,3.7.5,5.5.7-1.5-6.6.7-13,2.9-19.2-1.9-.5-3.9-1.1-5.8-1.6-.8,4.2-1.7,8.3-2.7,12.4-1,3.9-1.5,9.4-4.1,12.5,1.7.4,3.3.9,5,1.3a85.9,85.9,0,0,1-1.3-16.8h-6c.6,5.1,1,9.9-.4,14.9h5.8a30.33,30.33,0,0,1-2.1-16H78.3a39.46,39.46,0,0,1,.1,17.1c1.8-.2,3.7-.5,5.5-.7-3-4.5-1.2-8.1-1.6-12.8-.9-2.9-1.1-3.5-.7-1.7a22.54,22.54,0,0,1,.6,3.6,33.79,33.79,0,0,1-.3,7.1c2-.3,3.9-.5,5.9-.8a23.51,23.51,0,0,1,.2-14.6H82.2c1.1,5,.8,10.3,1,15.4a3,3,0,0,0,5.9.8c1.8-5.6,3.7-11.2,5.5-16.8-2-.3-3.9-.5-5.9-.8,0,6.5-.1,13.1-.1,19.6,0,3.3,5.2,4.2,5.9.8.7-3.2,1.4-6.4,2.3-9.6.4-1.4.8-2.9,1.3-4.3.2-.6.4-1.1.6-1.7,1.7-2.2,1.9-3,.5-2.4l-3-3a181.4,181.4,0,0,1,.7,23.3c-.1,3.9,5.7,3.8,6,0,.6-7.2,1.7-14.2,5.8-20.3-1.8-.2-3.7-.5-5.5-.7,1,6.5.2,13-.7,19.4,2,.3,3.9.5,5.9.8,0-7.6,2.2-14.7,4.5-21.9-1.9-.5-3.9-1.1-5.8-1.6A135.89,135.89,0,0,1,98,194.4c1.8.8,3.7,1.5,5.5,2.3a65.67,65.67,0,0,1,10.7-25.2c-1.8-.2-3.7-.5-5.5-.7,1,4.1-.2,9-.8,13.1s-1.4,8.1-2.3,12c2,.3,3.9.5,5.9.8a67,67,0,0,1,4.7-22.5c-1.9-.5-3.9-1.1-5.8-1.6-2.3,11.2-4.6,22.3-8.2,33.1,2,.3,3.9.5,5.9.8a36.89,36.89,0,0,1,.3-8.8c.3-1.5.9-6.3,2.4-7.1-1.5-.9-3-1.7-4.5-2.6-.3,8.2-2.2,16.1-4.3,24-1.9,7.1-4.2,13.9-8.7,19.8l4.7-.6a20.16,20.16,0,0,1-4.5-10.1c-1.5,1.1-2.9,2.3-4.4,3.4,1.1.6,3.6,7.1,2.4,7.8,1.3-.6-2.2-3-2.8-4.3a8,8,0,0,1-.8-3.7c-3.4,0-4.2,1.2-2.5,3.6a14,14,0,0,1,.5,4.1c-.6,2.5-.6,3.2-.1,2.1h3c-.7-.4-1.3-2.7-1.4-3.5a19.42,19.42,0,0,1-.2-2.4c-1.5-.7-1.8-.7-.9.2.4,1.1,1.8,2.2,2.3,3.3a19.33,19.33,0,0,1,1.6,4.6l3.7-3.7c-.8-1.1-1.5-2.1-2.3-3.2l-2.1,2.1c.9-.3,1.9,5.4,1.9,5.7.5-.9,1-1.7,1.5-2.6-2.7,2.1-2.6-4.4-2.8-6.2-.5-3.2-1.2-6.4-2-9.5-1-4.1-5.6-17-.2-19.7h-3c1.1.8,1.3,9.3,1.4,11.1a73,73,0,0,1-.6,13.2c1.8-.2,3.7-.5,5.5-.7-4.8-7.9-4.1-19.8-4.6-28.8-2,.3-3.9.5-5.9.8a70.84,70.84,0,0,1,3.8,19.8l5.6-1.5a40.81,40.81,0,0,1-3.8-22.8l-5.1,2.1c3.1,3.6,3.9,10.8,4.8,15.4A96.79,96.79,0,0,1,87.8,224l5.6-1.5c-4.1-8-6.1-20.7-3.5-29.4-1.8.2-3.7.5-5.5.7,5.4,8,5.5,20.3,6.4,29.6,2-.3,3.9-.5,5.9-.8-2.3-9.8-3.9-19.7-1.9-29.7-1.8.2-3.7.5-5.5.7,2.5,3.4,1.9,10,2.1,14.1.3,4.9.5,9.9.6,14.9h6c-.6-8.2-1.1-16.4.8-24.5H93a173.79,173.79,0,0,1,1.3,25c0,3.3,5.4,4.2,5.9.8,1.2-7.9,2.5-15.8,7.2-22.4l-5.6-1.5a170.71,170.71,0,0,0,0,28.6c.3,3.8,5.9,3.9,6,0,.3-8,.6-16.2,4-23.6-1.8-.2-3.7-.5-5.5-.7,1.3,7.9.5,16.5.6,24.5h6c-.2-7.6-.2-15,2.6-22.1-2-.3-3.9-.5-5.9-.8-.1,7.3-.2,14.6-.4,22h6c-.1-6.5,0-13.1,2.6-19.2l-5.6-1.5c.9,6.9-1.3,13.7-.8,20.5.3,3.1,1.4,5.8,2.2,8.7.7,2.4.7,3.5,2.7,5,1.4,1.1,4.1,0,4.4-1.8,1.6-10.7,3.2-21.3,4.8-32,.6-4.5,1.4-9,1.6-13.6.2-5.5-.3-11,1.1-16.4.9-3.7-4.8-5.3-5.8-1.6a56.84,56.84,0,0,0-1.2,13.7,111,111,0,0,1-1.5,16.3c-1.5,10.7-3.1,21.3-4.8,32,1.5-.6,2.9-1.2,4.4-1.8.7.6,0-1.3,0-1.5a24.3,24.3,0,0,0-1.3-3.8,23.76,23.76,0,0,1-.7-8.4c.4-5.2,1.4-10.2.7-15.4-.3-2.5-4.3-4.6-5.6-1.5-3.1,7.2-3.6,14.5-3.5,22.2a3,3,0,0,0,6,0c.1-7.3.2-14.6.4-22,.1-3.6-4.7-3.8-5.9-.8-3,7.6-3,15.6-2.8,23.7.1,3.9,6,3.9,6,0-.1-8.6.6-17.6-.8-26.1-.4-2.5-4.5-3-5.5-.7-3.8,8.5-4.5,17.5-4.8,26.7h6a170.71,170.71,0,0,1,0-28.6c.3-3.3-4-3.7-5.6-1.5-5.1,7-6.6,15.4-7.8,23.8,2,.3,3.9.5,5.9.8a215.64,215.64,0,0,0-1.5-26.6c-.4-3-5.2-2.7-5.8,0-2,8.7-1.6,17.3-1,26.1.3,3.8,6.1,3.9,6,0-.1-6.3-.3-12.5-.8-18.8-.3-4.3,0-9.6-2.7-13.2-1.4-1.9-4.9-2.1-5.5.7-2.2,11.1-.7,22,1.9,32.9.8,3.2,6.2,2.6,5.9-.8-1-10.4-1.2-23.7-7.2-32.7a3.08,3.08,0,0,0-5.5.7c-3.1,10.3-.7,24.6,4.1,34.1,1.3,2.7,5.7,1.4,5.6-1.5a116.66,116.66,0,0,0-2.4-19.6c-1.2-5.4-2.3-11.9-6-16.1-1.9-2.2-4.9-.2-5.1,2.1a46.08,46.08,0,0,0,4.7,25.8c1.3,2.7,5.7,1.4,5.6-1.5a74.43,74.43,0,0,0-4.1-21.4c-1-3-6.1-2.8-5.9.8.7,10.1,0,23,5.5,31.8,1.2,2,5.1,2,5.5-.7a71.68,71.68,0,0,0,.5-18.5c-.4-4.2-.3-9.9-4.1-12.5a2.93,2.93,0,0,0-3,0c-6.1,3-5.6,11.4-4.6,17,.7,4.1,1.8,8,2.8,12.1,1,4.3.9,9.3,2.7,13.4,1.7,3.8,6.9,7.8,10.2,3.4,2.7-3.7,1.3-11.3-4.1-11.6-6.3-.3-5.3,7.9-2.1,10.9,3.7,3.4,8.2.8,7.7-3.9-.4-3.9-5.6-14-10.7-8.8-4.3,4.3,1.4,10.8,5.7,11.9a3,3,0,0,0,3.7-3.7c-1-4.4-4.3-12.9-9.9-13s-5.2,7-4.4,10.6c.8,3.3,3.9,10.3,8.3,6.4,3.9-3.4,1.9-12.1-.1-16-1.6-3.2-5.5-5.2-7.5-1-2.1,4.7,1.5,11.4,5.1,14.2,3.4,2.6,8.4,3.6,9.9-1.4,1.4-4.7-.7-12.4-5.1-14.9a3,3,0,0,0-4.4,3.4A26.76,26.76,0,0,0,94,236c1.4,1.7,3.7.8,4.7-.6,4.8-6.3,7.3-13.7,9.3-21.2,2.2-8.4,4.1-16.9,4.5-25.6.1-2.3-2.6-3.6-4.5-2.6-6,3.3-6.1,15.2-5.7,21.1a3,3,0,0,0,5.9.8,266.66,266.66,0,0,0,8.2-33.1,3,3,0,0,0-5.8-1.6,74,74,0,0,0-4.9,24.1c-.1,3.3,5.2,4.1,5.9.8,1.2-5.2,2.1-10.5,2.9-15.8.6-4.2,1.3-8.3.3-12.5-.7-2.7-4.1-2.7-5.5-.7A70.27,70.27,0,0,0,98,195.8c-.6,3.1,4,5.6,5.5,2.3a149.33,149.33,0,0,0,9.7-31.3c.7-3.8-4.6-5.3-5.8-1.6-2.5,7.7-4.7,15.3-4.7,23.5,0,3.3,5.4,4.2,5.9.8,1-7.6,1.8-15,.7-22.6-.4-2.8-4.2-2.6-5.5-.7-4.7,7-5.9,15.1-6.6,23.3h6a200.84,200.84,0,0,0-.7-23.3,3.08,3.08,0,0,0-3-3c-3.5-.2-4.8,3.1-5.9,5.9A102.23,102.23,0,0,0,89,185.5c2,.3,3.9.5,5.9.8,0-6.5.1-13.1.1-19.6,0-3.5-4.9-4-5.9-.8-1.8,5.6-3.7,11.2-5.5,16.8,2,.3,3.9.5,5.9.8-.2-5.6,0-11.4-1.2-17-.7-3-4.9-2.7-5.8,0a29.23,29.23,0,0,0-.2,17.8c1,3.5,5.5,2.4,5.9-.8.5-3.9.8-21.7-8-16.1-6.5,4.2-4.9,17.6-1.3,23,1.3,2,4.9,2,5.5-.7a47.91,47.91,0,0,0-.1-20.3c-.6-2.8-5.3-3-5.8,0a35,35,0,0,0,2.1,19.2c1,2.6,4.9,3.1,5.8,0,1.5-5.5,1.2-10.9.6-16.5-.4-3.7-5.9-4-6,0a94.57,94.57,0,0,0,1.5,18.4c.4,2.1,3.6,3,5,1.3,2.8-3.4,3.7-7.5,4.7-11.7q2.1-8,3.6-15.9a3,3,0,0,0-5.8-1.6c-2.6,7.4-4.7,14.6-2.9,22.4.5,2.4,4.4,3.1,5.5.7a72.19,72.19,0,0,0,6.5-25.3c.2-3.6-4.8-3.8-5.9-.8-3.4,9.5-6.2,19.2-6,29.4.1,3.6,4.6,3.8,5.9.8a134.76,134.76,0,0,0,8.3-27.8c.7-3.8-5.1-5.4-5.8-1.6-1.8,9.5-1.2,19.3-1,28.9.2,9.3.5,18.6,4.2,27.2,1,2.3,5.1,1.7,5.5-.7,1.4-8.3,3.1-16.5,4.9-24.7,1.6-7.6,2.5-15,.8-22.7-.6-2.9-5.1-2.8-5.8,0-1.1,4.6-1.4,9.3-2.4,13.9-1.1,5.3-2.8,10.5-3.9,15.8-2.1,9.6-2.9,19.3-1.1,29,.5,2.8,5.4,2.9,5.8,0,2.7-19,2-38.1,1.1-57.2a3,3,0,0,0-5.9-.8c-5.6,15.5-15.9,34-10.7,50.8,1,3.2,5.9,2.7,5.9-.8A94.57,94.57,0,0,0,91,200c-.6-3.1-4.9-2.6-5.8,0-2.2,6.5-4.5,13-6.7,19.5h5.8a86.12,86.12,0,0,1-2.1-18.2c0-4.3.5-8.6-2.1-12.4-1.6-2.2-5.7-1.7-5.6,1.5a101.22,101.22,0,0,0,2.4,17.4c.8,3.2,6.3,2.6,5.9-.8l-2.1-18c-2,.3-3.9.5-5.9.8a16.7,16.7,0,0,0,1.7,5.2c1.6,3.1,6.2.9,5.5-2.3a205.77,205.77,0,0,1-3.6-22c-.4-3.8-5.8-3.9-6,0a9.91,9.91,0,0,0,.7,4.5c1.1,3,6.1,2.8,5.9-.8a20.61,20.61,0,0,0-1.6-6.6c-1.6,1.2-3.1,2.4-4.7,3.6.3.4.7.8,1,1.2,1.9,2.2,4.9.2,5.1-2.1.1-.6.1-1.3.2-1.9.1-4.7-5.9-4.7-6.3-.9Z" transform="translate(-59.89 -132.49)"/><path class="cls-1" d="M113.7,201c-.4,1.1-.9,2.1-1.3,3.2l5.6,1.5a39.37,39.37,0,0,1,3.4-16.5c-1.8-.8-3.7-1.5-5.5-2.3-1.4,8.2-3.1,16.3-5,24.4,2,.3,3.9.5,5.9.8.2-8,1.3-17.1,5.8-24l-5.6-1.5a182,182,0,0,1-3.6,27.4c2,.3,3.9.5,5.9.8a54.56,54.56,0,0,1,1.2-15.6c-2-.3-3.9-.5-5.9-.8.9,7.5-.4,15.3-.8,22.8h6a115.17,115.17,0,0,1-.7-17.6c.2-3.9-5.8-3.8-6,0a163.11,163.11,0,0,0,.1,18.5h6c-1.2-12.9,0-25.6,2.5-38.2-2-.3-3.9-.5-5.9-.8a72.61,72.61,0,0,1-1.5,14.7h5.8c-1.2-7,.3-13.9,2.1-20.7-2-.3-3.9-.5-5.9-.8-.2,5-.5,10-1,14.9h6a122.52,122.52,0,0,1,2.6-15.9c-2-.3-3.9-.5-5.9-.8a92.15,92.15,0,0,0-.4,10.5c.1,3.9,5.7,3.8,6,0s.8-7.3,1.4-10.9c-2-.3-3.9-.5-5.9-.8,0,2.4-.1,4.7-.1,7.1-.1,4,5.5,3.7,6,0a70.55,70.55,0,0,1,1.5-8c-2-.3-3.9-.5-5.9-.8a27.9,27.9,0,0,0-.2,5c.1,3.3,5.1,4.2,5.9.8.5-2,1-3.9,1.4-5.9-2-.3-3.9-.5-5.9-.8.1,1.1.1,2.3.2,3.4.2,3.3,4.9,4.1,5.9.8l1.2-3.9c-2-.3-3.9-.5-5.9-.8a13.68,13.68,0,0,1-.2,2.8c-.4,3.3,5.3,4.1,5.9.8.1-.6.2-1.3.3-1.9-2-.3-3.9-.5-5.9-.8,0,.5-.1,1-.1,1.4-.4,3.8,5.6,3.8,6,0,0-.5.1-1,.1-1.4.3-3.3-5.3-4.1-5.9-.8-.1.6-.2,1.3-.3,1.9,2,.3,3.9.5,5.9.8a12.75,12.75,0,0,0,.2-2.8c.1-3.4-4.9-4-5.9-.8l-1.2,3.9c2,.3,3.9.5,5.9.8-.1-1.1-.1-2.3-.2-3.4-.2-3.3-5.1-4.2-5.9-.8-.5,2-1,3.9-1.4,5.9,2,.3,3.9.5,5.9.8a27.9,27.9,0,0,1,.2-5c.4-3.4-5.1-4-5.9-.8a80.51,80.51,0,0,0-1.7,9.6h6c0-2.4.1-4.7.1-7.1.1-3.3-5.3-4.2-5.9-.8-.7,4.2-1.3,8.3-1.6,12.5h6a92.15,92.15,0,0,1,.4-10.5c.3-3.4-5.1-4.1-5.9-.8a130.09,130.09,0,0,0-2.8,17.5c-.4,3.9,5.6,3.8,6,0,.5-5,.8-9.9,1-14.9.1-3.4-5-4.1-5.9-.8-2.1,8-3.5,15.7-2.1,23.9.5,2.9,5.2,2.8,5.8,0a81.27,81.27,0,0,0,1.7-16.3c0-3.3-5.2-4.2-5.9-.8-2.7,13.1-4,26.4-2.7,39.8.3,3.8,6.2,3.9,6,0a163.11,163.11,0,0,1-.1-18.5h-6a103.69,103.69,0,0,0,.7,17.6c.5,3.8,5.8,3.9,6,0,.5-7.5,1.7-15.3.8-22.8-.4-3.1-5.1-4.4-5.9-.8a58.62,58.62,0,0,0-1.4,17.2c.2,3.2,5.2,4.3,5.9.8a188.71,188.71,0,0,0,3.8-29c.2-3.1-4.1-3.9-5.6-1.5-5.1,7.7-6.3,17.9-6.6,27-.1,3.4,5.1,4.1,5.9.8,1.9-8.1,3.6-16.2,5-24.4.5-3.1-4-5.7-5.5-2.3a46.85,46.85,0,0,0-4.2,19.5c0,2.7,4.4,4.4,5.6,1.5.4-1.1.9-2.1,1.3-3.2,1.5-3.5-3.7-6.6-5.2-3Z" transform="translate(-59.89 -132.49)"/><path class="cls-1" d="M83.7,234.3c-.2-.5-.5-1-.7-1.6,1.7.4,3.3.9,5,1.3-.5-1.8-1-3.6-1.5-5.3-.6-2.3-4.4-3.2-5.5-.7a16.11,16.11,0,0,0-1.5,6.1l5.6-1.5a7.72,7.72,0,0,1-.2-1.5c.5-3.3-3.5-5.3-5.5-2.3a6.36,6.36,0,0,0-1.2,3.8h6a9.73,9.73,0,0,0-.1-3.8c-2,.3-3.9.5-5.9.8,2.3,9.8-7.4,18.8-10.7,27.4-3.6,9.1-4.6,18.9-5.6,28.6,2-.3,3.9-.5,5.9-.8-1.8-8.3,3.4-15.4,8.2-21.6,4.6-6.1,9.3-12.1,13.9-18.1-1.7-1-3.5-2-5.2-3a87.16,87.16,0,0,1-14,20.6c1.6,1.2,3.1,2.4,4.7,3.6a146.6,146.6,0,0,1,13.8-24.8c1.9-2.8-2.5-6.2-4.7-3.6L73.2,251c1.6,1.2,3.1,2.4,4.7,3.6a57.73,57.73,0,0,1,12.9-13.2c-1.5-1.1-2.9-2.3-4.4-3.4a82.9,82.9,0,0,1-7.3,16.4c-1.9,3.3,3.2,6.3,5.2,3a91.34,91.34,0,0,1,18.9-22.6c-1.6-1.2-3.1-2.4-4.7-3.6A163.16,163.16,0,0,1,86,250.5c1.7,1,3.5,2,5.2,3a117.56,117.56,0,0,1,15.3-19.8c-1.6-1.2-3.1-2.4-4.7-3.6l-9.6,18.6c1.7,1,3.5,2,5.2,3a71.44,71.44,0,0,1,12.9-18.8c-1.6-1.2-3.1-2.4-4.7-3.6a148.94,148.94,0,0,1-7.4,15c1.7,1,3.5,2,5.2,3a86.44,86.44,0,0,1,8.2-13.3c-1.8-.8-3.7-1.5-5.5-2.3a105.7,105.7,0,0,1-5,10.8c1.8.8,3.7,1.5,5.5,2.3a26.59,26.59,0,0,1,7.3-10.5c-1.7-1-3.3-1.9-5-2.9-1.7,5.2-3.4,10.3-5.1,15.5-1.1,3.2,3.8,5.3,5.5,2.3,2.5-4.6,5.1-9.1,7.6-13.7-1.8-.8-3.7-1.5-5.5-2.3-1.1,3.8-2.2,7.5-3.3,11.3s4.5,5.2,5.8,1.6a47,47,0,0,1,4-8.5c-1.8-.8-3.7-1.5-5.5-2.3a181.33,181.33,0,0,1-5.7,18.1c1.9.5,3.9,1.1,5.8,1.6,1-4.8,2.1-9.4,4.6-13.8-1.8-.8-3.7-1.5-5.5-2.3-3.3,15.2-9.9,29.8-15.2,44.4,2,.3,3.9.5,5.9.8,1-10.8,4.2-21.2,7.4-31.5,1.2-3.8-4.4-5.1-5.8-1.6-5.7,13.9-7.9,29-13.5,42.9,2,.3,3.9.5,5.9.8a72.92,72.92,0,0,1,8.8-38.8c-1.8-.8-3.7-1.5-5.5-2.3-4.3,13.3-9,26.4-14,39.5,2,.3,3.9.5,5.9.8-2-15.3,7.3-32.8,15.9-44.8-1.8-.8-3.7-1.5-5.5-2.3-4,13.6-8.6,27-13.9,40.1h5.8c-1.5-6.4,2.5-15.3,4.7-21.3a139,139,0,0,1,9-19.6c-1.8-.8-3.7-1.5-5.5-2.3-2.7,7.7-5.5,15.4-8.4,23-1.4,3.7-2.7,7.3-4.1,11-1.5,3.9-2.6,8.5-5.4,11.7l5.1,2.1a76.28,76.28,0,0,1,9-36.6c-1.8-.8-3.7-1.5-5.5-2.3a301.68,301.68,0,0,1-13.3,32.9L85,287c-1.4-11.4,5-24.3,10.8-33.8-1.8-.8-3.7-1.5-5.5-2.3-3.1,7.6-6.4,15.2-9.8,22.7,1.8.8,3.7,1.5,5.5,2.3a108.64,108.64,0,0,1,15.7-29.5c-1.8-.8-3.7-1.5-5.5-2.3-5.8,16.1-16.7,29.7-22.9,45.6,1.9.5,3.9,1.1,5.8,1.6,1.9-12.9,4-26,11.6-36.9-1.8-.8-3.7-1.5-5.5-2.3-4.3,12.4-8.5,24.9-12.8,37.3,1.9.5,3.9,1.1,5.8,1.6a99.57,99.57,0,0,1,14-38.8c-1.8-.8-3.7-1.5-5.5-2.3C83.8,260.4,79,270.1,74,279.8l5.6,1.5a63.52,63.52,0,0,1,3.8-18.8c-1.9-.5-3.9-1.1-5.8-1.6a167.9,167.9,0,0,1-8,24.9c2,.3,3.9.5,5.9.8a61.38,61.38,0,0,1,2.8-19.5c1.2-3.7-4.5-5.2-5.8-1.6-2.1,6.1-4.2,12.1-6.3,18.2,2,.3,3.9.5,5.9.8-.1-6,.6-11.6,4-16.6-1.8-.8-3.7-1.5-5.5-2.3-1.6,6.1-3.3,12.2-4.9,18.3,2,.3,3.9.5,5.9.8A55.86,55.86,0,0,1,72.9,274c-2-.3-3.9-.5-5.9-.8a88.7,88.7,0,0,1-1.7,13.6c2,.3,3.9.5,5.9.8-.1-1-.1-2-.2-3a3,3,0,0,0-5.9-.8c-.8,2-1.6,4.1-2.3,6.1h5.8c-.1-.8-.3-1.5-.4-2.3-.1-3.9-5.6-3.8-6,0-.2,1.6-.4,3.2-.5,4.7,2-.3,3.9-.5,5.9-.8.1-1.2.3-2.3.4-3.5-2-.3-3.9-.5-5.9-.8-.5,4.5-1.1,9-1.6,13.6h6V299h-6c.6,8,1.1,15.9,1,23.9,2-.3,3.9-.5,5.9-.8A52.36,52.36,0,0,1,73.8,289l-5.6-1.5c-1.9,14.2-8.2,27.7-6.5,42.2.4,3.7,5.9,4,6,0a91.72,91.72,0,0,1,9-38.5c-1.8-.8-3.7-1.5-5.5-2.3-1.4,6.8-2.8,13.5-4.2,20.3-1.3,6.5-3.1,13-3,19.7,0,3.9,5.9,3.9,6,0a92.2,92.2,0,0,1,7.4-33.2c-1.8-.8-3.7-1.5-5.5-2.3-1.9,12-3.7,23.9-5.6,35.9,2,.3,3.9.5,5.9.8a94.17,94.17,0,0,1,14.1-45.2c-1.8-.8-3.7-1.5-5.5-2.3C76.3,297.9,73,313.4,69.7,329c2,.3,3.9.5,5.9.8A80.57,80.57,0,0,1,88,289.1c-1.8-.8-3.7-1.5-5.5-2.3a290.24,290.24,0,0,0-8.8,49.8h6c.5-15.4,4-30.4,11.7-43.8-1.8-.8-3.7-1.5-5.5-2.3a401.43,401.43,0,0,0-9.7,44.8c2,.3,3.9.5,5.9.8-.2-8.3,1.7-16.1,4-24,2.2-7.5,4.2-15.4,9.4-21.4-1.7-1-3.3-1.9-5-2.9-3.8,15.2-7.6,30.5-11.4,45.7,2,.3,3.9.5,5.9.8a96,96,0,0,1,15-44.8c-1.8-.8-3.7-1.5-5.5-2.3a465.91,465.91,0,0,0-12.6,46.7c2,.3,3.9.5,5.9.8a121.78,121.78,0,0,1,22.1-58.6c-1.8-.8-3.7-1.5-5.5-2.3a555.6,555.6,0,0,0-19.4,58c-1,3.7,4.7,5.3,5.8,1.6q8.25-29.55,19.1-58.4c1.3-3.4-3.7-4.9-5.5-2.3a128.55,128.55,0,0,0-22.9,61.6c-.3,3.4,5.2,4.1,5.9.8A473.27,473.27,0,0,1,100,288.4c1.1-3.3-3.7-5.1-5.5-2.3a101.64,101.64,0,0,0-15.8,47.8c-.3,3.4,5.1,4,5.9.8,3.8-15.2,7.6-30.5,11.4-45.7.7-2.7-3-5.3-5-2.9-5.5,6.5-8,14.3-10.4,22.4-2.7,8.9-5,18-4.8,27.4.1,3.2,5.3,4.3,5.9.8a406.34,406.34,0,0,1,9.7-44.8c.9-3.3-3.8-5.3-5.5-2.3-8.2,14.4-12,30.4-12.5,46.9-.1,3.9,5.6,3.8,6,0A291.52,291.52,0,0,1,88,288.3c.9-3.3-3.7-5.2-5.5-2.3a85.68,85.68,0,0,0-13.2,43.7c-.1,3.3,5.2,4.1,5.9.8,3.3-15.6,6.6-31.1,11.1-46.4,1-3.3-3.7-5.2-5.5-2.3A101.67,101.67,0,0,0,65.9,330c-.2,3.3,5.4,4.2,5.9.8,1.9-12,3.7-23.9,5.6-35.9.5-3-4-5.7-5.5-2.3a99,99,0,0,0-8.2,36.3h6c-.1-6.7,1.8-13.4,3.2-19.9,1.3-6.2,2.5-12.3,3.8-18.5.6-3.1-3.9-5.6-5.5-2.3a99.53,99.53,0,0,0-9.8,41.5h6c-1.6-14.4,4.7-28.1,6.5-42.2.4-3.1-4.2-3.9-5.6-1.5a59.57,59.57,0,0,0-7,37.7c.5,3.4,5.9,2.5,5.9-.8.1-8-.4-15.9-1-23.9-.3-3.8-6.1-3.9-6,0v1.8c.1,4,5.6,3.7,6,0,.5-4.5,1.1-9,1.6-13.6.4-3.5-5-3.9-5.9-.8a14.79,14.79,0,0,0-.4,6.6c.5,3.6,5.6,2.3,5.9-.8.2-1.6.4-3.2.5-4.7h-6a8.72,8.72,0,0,0,.7,3.9,3.05,3.05,0,0,0,5.8,0c.8-2,1.6-4.1,2.3-6.1-2-.3-3.9-.5-5.9-.8.1,1,.1,2,.2,3,.2,3.2,5.2,4.3,5.9.8a97.17,97.17,0,0,0,1.9-15.2c.2-3.4-5.2-4.1-5.9-.8a63.63,63.63,0,0,0-1.5,12.3c-.1,3.4,5,4.1,5.9.8,1.6-6.1,3.3-12.2,4.9-18.3.9-3.4-3.6-5.1-5.5-2.3-3.9,5.9-4.9,12.7-4.8,19.7,0,3.5,4.8,4,5.9.8,2.1-6.1,4.2-12.1,6.3-18.2-1.9-.5-3.9-1.1-5.8-1.6a68.61,68.61,0,0,0-3,21.1c.1,3.6,4.7,3.8,5.9.8a180.5,180.5,0,0,0,8-24.9c.9-3.8-4.5-5.2-5.8-1.6a67.79,67.79,0,0,0-4,20.4c-.1,2.9,4.2,4.2,5.6,1.5,5.2-10.1,10.3-20.3,13.3-31.4.9-3.3-3.7-5.2-5.5-2.3a105.3,105.3,0,0,0-14.7,40.3c-.5,3.7,4.5,5.3,5.8,1.6,4.3-12.4,8.5-24.9,12.8-37.3,1.2-3.4-3.7-5-5.5-2.3-7.9,11.4-10.2,25-12.2,38.3a3,3,0,0,0,5.8,1.6c6.2-15.9,17-29.5,22.9-45.6,1.3-3.5-3.6-4.8-5.5-2.3a109.5,109.5,0,0,0-16.3,31c-1.1,3.2,4.1,5.4,5.5,2.3,3.7-8,7.1-16,10.4-24.2,1.3-3.2-3.8-5.1-5.5-2.3-6.3,10.3-13.1,24.4-11.6,36.9.3,2.6,4.2,4.5,5.6,1.5a328.11,328.11,0,0,0,13.9-34.3c1.1-3.2-3.9-5.3-5.5-2.3A83.55,83.55,0,0,0,83,291.4c0,2.4,3.4,4.2,5.1,2.1,5-5.9,7-14.6,9.7-21.7,3.3-8.9,6.6-17.8,9.7-26.7,1.1-3.2-3.9-5.3-5.5-2.3a159.11,159.11,0,0,0-10.2,22.7c-2.4,6.9-5.9,15.4-4.1,22.8.7,3.2,4.8,2.5,5.8,0,5.3-13.1,9.9-26.5,13.9-40.1,1-3.5-3.6-4.9-5.5-2.3a97.53,97.53,0,0,0-11.9,22c-3.1,8-5.9,17.2-4.8,25.8a3,3,0,0,0,5.9.8c5-13,9.7-26.2,14-39.5,1-3.2-3.9-5.3-5.5-2.3A79.24,79.24,0,0,0,90,294.5a3,3,0,0,0,5.9.8c5.6-14,7.8-29,13.5-42.9-1.9-.5-3.9-1.1-5.8-1.6-3.4,10.9-6.5,21.7-7.6,33.1-.3,3.6,4.8,3.8,5.9.8,5.3-14.6,11.9-29.2,15.2-44.4.7-3.2-3.8-5.4-5.5-2.3-2.7,4.8-4,9.9-5.2,15.2a3,3,0,0,0,5.8,1.6c2.2-5.9,4.1-12,5.7-18.1a3,3,0,0,0-5.5-2.3,52.33,52.33,0,0,0-4.6,9.9c1.9.5,3.9,1.1,5.8,1.6,1.1-3.8,2.2-7.5,3.3-11.3,1-3.2-3.8-5.3-5.5-2.3-2.5,4.6-5.1,9.1-7.6,13.7,1.8.8,3.7,1.5,5.5,2.3,1.7-5.2,3.4-10.3,5.1-15.5,1-3-2.9-4.8-5-2.9a32.33,32.33,0,0,0-8.8,13.1c-1.2,3.2,3.9,5.3,5.5,2.3,2.1-4,3.9-8.1,5.6-12.2,1.4-3.4-3.6-4.8-5.5-2.3A95,95,0,0,0,98,244.1c-1.7,3.4,3.3,6.4,5.2,3,2.7-4.9,5.2-9.9,7.4-15,1.2-2.9-2.1-6.3-4.7-3.6a77.11,77.11,0,0,0-13.9,20c-1.6,3.4,3.4,6.5,5.2,3l9.6-18.6c1.5-2.9-2.3-6.2-4.7-3.6a132.83,132.83,0,0,0-16.2,21.1c-2.1,3.4,2.9,6,5.2,3a171.77,171.77,0,0,0,12.5-19.3c1.7-3.1-2.2-5.8-4.7-3.6a96.23,96.23,0,0,0-19.8,23.8c1.7,1,3.5,2,5.2,3a88.57,88.57,0,0,0,7.9-17.8c.7-2.3-2.3-5-4.4-3.4a69,69,0,0,0-15.1,15.4c-2,2.8,2.5,6.2,4.7,3.6L88.7,242c-1.6-1.2-3.1-2.4-4.7-3.6a146.6,146.6,0,0,0-13.8,24.8c-1.2,2.9,2.2,6.4,4.7,3.6A101.39,101.39,0,0,0,89.8,245c1.8-3.5-2.9-6-5.2-3-5.7,7.4-11.6,14.6-17,22.2-4.6,6.7-7.5,14-5.7,22.1.8,3.5,5.6,2.3,5.9-.8,1.1-11.1,2.5-22.5,8.1-32.4,4.6-8.1,10.4-15.3,8.1-25.2-.8-3.2-6.3-2.6-5.9.8a9.73,9.73,0,0,1,.1,3.8c-.2,3.9,5.7,3.8,6,0a2.51,2.51,0,0,1,.4-.7c-1.8-.8-3.7-1.5-5.5-2.3a9.27,9.27,0,0,0,.8,6.1c1.4,2.9,5.4,1.2,5.6-1.5.2-1,.5-2.1.7-3.1-1.8-.2-3.7-.5-5.5-.7.5,1.8,1,3.6,1.5,5.3.6,2,3.5,3.1,5,1.3,2.3-2.8,2.6-5.6-.5-7.9s-6,3-3,5.3Z" transform="translate(-59.89 -132.49)"/><path class="cls-1" d="M63.3,345.5c-.2.9-.5,1.7-.7,2.6l5.6,1.5c-.4-3.3-.7-6.5-.9-9.8-.1-1.8-1.5-7.7-.1-8.9l-4.7-.6a16.72,16.72,0,0,1,3.7,11.8c1.5-.9,3-1.7,4.5-2.6-1.2-2.2-1.8-1.8-2,1l4.7-.6c-.5-1.4-1-2.7-1.6-4.1a9,9,0,0,1-.5,4,3,3,0,0,0,2.1,3.7c14.9,3.8,30.6,7.4,45.7,2.4,2.2-.7,3.2-4.3.7-5.5-12.9-5.9-27.4-8.7-41-3.5-3.5,1.3-2.2,6.8,1.6,5.8,10.7-2.8,22.2,5.7,32.7,1.3,3.9-1.6,4-4.3,3.4-7.9s.8-7.2,1.7-10.6,1.7-7,2.5-10.5c3.1-13.3,6.2-26.6,8.4-40.1,1-6.2-.3-11.3-2.2-17.2a85.08,85.08,0,0,1-3.8-21.2c-.2-3.9-5.6-3.8-6,0-1,8.4-3.6,16.6-5.8,24.8s-4.7,16.6-7.2,24.9c-4.9,15.7-10.2,31.3-13.4,47.4,2,.3,3.9.5,5.9.8a70.75,70.75,0,0,1,2.5-17.2c-1.9-.5-3.9-1.1-5.8-1.6l-3.6,18.3c1.9.5,3.9,1.1,5.8,1.6,4.1-28,15.7-54.2,21.6-81.8-2-.3-3.9-.5-5.9-.8.1,3.1.1,6.1.2,9.2,2-.3,3.9-.5,5.9-.8A21.46,21.46,0,0,1,117,249c-1.8.2-3.7.5-5.5.7,4.3,5.6,3.8,13.3,6.6,19.5,1.7-1,3.5-2,5.2-3a38.3,38.3,0,0,1-4.8-13.5c-1.8.8-3.7,1.5-5.5,2.3,3.2,5.7,8.6,15.9,5.7,22.5-3,6.8-6.4,13.2-8.9,20.3-5.1,14.4-8.6,29.3-14.2,43.6,2,.3,3.9.5,5.9.8-.5-10.6,2.1-20.7,5.5-30.7s6.8-19.7,10.3-29.5c-1.9-.5-3.9-1.1-5.8-1.6a136.15,136.15,0,0,1-9.1,27.7c1.8.8,3.7,1.5,5.5,2.3,2.6-14.5,8.5-28.6,13.3-42.5h-5.8a20.87,20.87,0,0,1-1,11.6c1.8-.2,3.7-.5,5.5-.7a16,16,0,0,1-.3-11.4h-5.8c4.8,11.6-.5,26.1-3.4,37.7a110.8,110.8,0,0,1-6.2,18.7c-1.8,4.1-4.4,8.7-2.6,13.3,1.2,3,4.4,5.1,7.5,3.3,4.5-2.7,1.6-9.2,2.5-13.3,1.4-6.5,4.4-12.8,6.7-19,2.4-6.6,4.8-13.2,7.3-19.8-1.9-.5-3.9-1.1-5.8-1.6-3.1,9.8-6.3,19.6-9.4,29.4-1,3.2-2.6,6.7-2,10.2s3.2,6.7,5.1,9.7c4,6.3,8.4,10.9,16.3,11.2,6.9.3,9.1-5.2,9-11.3-2,.3-3.9.5-5.9.8a18.31,18.31,0,0,1,.1,6.6c2-.3,3.9-.5,5.9-.8a18.58,18.58,0,0,0-7.5-11.6c-3.9-2.7-9.7-3.7-11.9-8.3-1.7,1-3.5,2-5.2,3a46,46,0,0,0,10.1,13.1c1.2-1.6,2.4-3.1,3.6-4.7a33.32,33.32,0,0,1-9-9.7c-1.7,1-3.5,2-5.2,3,3.9,5,7.9,9.9,12.1,14.5,1.2-1.6,2.4-3.1,3.6-4.7a19.09,19.09,0,0,1-8.2-9.1c-1.7,1-3.5,2-5.2,3a99,99,0,0,1,4.4,9.3c1.5-1.1,2.9-2.3,4.4-3.4-1.9-1-4.3-6.4-2-2.6a17.48,17.48,0,0,1,2.3,7.1l5.6-1.5a4.25,4.25,0,0,1-.3-4.8h-5.8c.7,2.9,1.5,5.7,2.2,8.6.9,3.5,5.5,2.4,5.9-.8.4-3.4.8-6.8,1.1-10.2h-6c.1,2.5.2,4.9.3,7.4h6c-1.6-12.5-.1-24.8,1.7-37.2-2-.3-3.9-.5-5.9-.8a86.69,86.69,0,0,1-8.4,28.5c1.8.2,3.7.5,5.5.7-2.9-10.6,3.3-21.3,4.3-31.8h-6a97.86,97.86,0,0,1-5.9,27.8h5.8c-1.8-8.3,2-18.1,4.6-25.9,1.2-3.7-4.6-5.3-5.8-1.6-3,9.1-6.7,19.5-4.6,29.1.7,3.1,4.8,2.6,5.8,0a102,102,0,0,0,6.1-29.4c.2-3.9-5.6-3.8-6,0-1.1,11.4-7.3,21.7-4.1,33.4.6,2.4,4.3,3.1,5.5.7a97,97,0,0,0,9.3-31.5c.4-3.3-5.4-4.1-5.9-.8-1.9,12.9-3.7,25.8-1.9,38.8.5,3.7,6.1,4,6,0-.1-2.5-.2-4.9-.3-7.4-.1-3.9-5.6-3.8-6,0-.4,3.4-.8,6.8-1.1,10.2,2-.3,3.9-.5,5.9-.8-.7-2.9-1.5-5.7-2.2-8.6-.8-3.1-4.8-2.6-5.8,0a10.33,10.33,0,0,0,.9,9.5c1.4,2.4,5.9,1.6,5.6-1.5-.6-5.1-4.1-17.6-11.7-14.7s-2.3,12.8,2.4,15.4c2.1,1.2,5.5-.8,4.4-3.4a104.09,104.09,0,0,0-5-10.7c-1.8-3.5-6.7-.4-5.2,3a23.56,23.56,0,0,0,10.4,11.2c3,1.7,5.9-2.2,3.6-4.7-3.9-4.3-7.6-8.7-11.2-13.3-2.3-3-7.3-.3-5.2,3a43,43,0,0,0,11.1,11.8c2.8,2,6.1-2.4,3.6-4.7a40.57,40.57,0,0,1-9.1-11.9c-1.8-3.4-6.9-.4-5.2,3,4.3,8.9,16.5,7.7,18.8,18.4.8,3.6,5.5,2.3,5.9-.8a22,22,0,0,0-.4-8.1c-.6-3.3-6-2.6-5.9.8.1,3.1-.5,5.3-4.2,5.1-3.4-.2-6.2-2.4-8.1-5.1-1.6-2.3-3-4.7-4.4-7-1.7-2.7-1.9-4.4-1.1-7.5,3.2-11.1,7.1-22.1,10.6-33.1,1.2-3.7-4.5-5.2-5.8-1.6-3.9,10.5-7.7,21-11.6,31.5-1.4,3.9-4,9.6-2.9,13.9.3,1.1-.3,1.5.9,1.7,1.5.2,1.1-2.1,1.6-3.3.8-2.3,2-4.5,2.9-6.7,3.9-9.6,6.2-19.9,8.5-30,2.1-9.1,4.1-18.9.3-27.8-1.1-2.7-4.8-3-5.8,0a21.62,21.62,0,0,0,.9,16c1.1,2.6,4.7,1.4,5.5-.7a25.78,25.78,0,0,0,1-14.8c-.6-3.1-4.9-2.6-5.8,0-4.7,13.9-10.6,28-13.3,42.5-.6,3.1,4,5.6,5.5,2.3a148.43,148.43,0,0,0,9.7-29.1,3,3,0,0,0-5.8-1.6c-6.8,19.6-17,40.6-15.9,61.8a3,3,0,0,0,5.9.8c6.2-16,9.9-32.9,16.1-48.9a108.09,108.09,0,0,1,5.5-12c1.7-3.2,2.9-5.3,2.6-9-.7-7.4-3.7-14.7-7.4-21.2-1.8-3.2-6-.9-5.5,2.3a41,41,0,0,0,5.4,14.9c2,3.4,6.8.4,5.2-3-2.9-6.4-2.2-13.8-6.6-19.5-1.5-1.9-4.8-2-5.5.7a29.14,29.14,0,0,0,.3,15.5c1,3.2,6,2.7,5.9-.8-.1-3.1-.1-6.1-.2-9.2-.1-3.3-5.2-4.2-5.9-.8-5.9,27.6-17.6,53.8-21.6,81.8-.5,3.7,5,5.5,5.8,1.6l3.6-18.3c.7-3.7-4.7-5.4-5.8-1.6a74.89,74.89,0,0,0-2.7,18.8c-.1,3.3,5.2,4.2,5.9.8,3.3-16.8,8.9-32.9,13.9-49.2,5-16,10.8-32.8,12.7-49.5h-6a92.4,92.4,0,0,0,2.5,17.4c1.5,6,4.6,11.9,3.9,18.2-1.5,12.5-4.9,25.2-7.7,37.5-1.4,6.1-2.9,12.1-4.4,18.2a23.8,23.8,0,0,0-1.1,7c0,.8.5,2.3.4,3-.2,1.6.7.3-.6,1-4.5,2.3-12.7-1.1-17.3-1.9s-9.3-1.1-14,.1c.5,1.9,1.1,3.9,1.6,5.8,12.1-4.6,24.9-2.3,36.4,2.9.2-1.8.5-3.7.7-5.5-14.1,4.7-28.6,1.2-42.5-2.4.7,1.2,1.4,2.5,2.1,3.7,1-4,1.1-14.8-6-12.1-6.2,2.3-5.2,10.8-1.9,14.9a3,3,0,0,0,4.7-.6c2.3-4.2,1.8-14.8-5.6-12.7-6.7,1.9-4.9,10.7-.7,13.9,2,1.4,4.4-.5,4.5-2.6a21.74,21.74,0,0,0-4.5-14.8,3,3,0,0,0-4.7-.6c-2.6,2.1-2.2,5.2-2,8.2.3,4.9.7,9.8,1.3,14.7a3,3,0,0,0,5.6,1.5,8.08,8.08,0,0,0,1.3-7.2c-.6-3.9-6.4-2.3-5.6,1.4Z" transform="translate(-59.89 -132.49)"/><path class="cls-1" d="M117.6,248.4a5,5,0,0,1,2.7,1.8c1.7,1.8,5.3.5,5.1-2.1a35.09,35.09,0,0,0-1.3-7.2c-1.7,1-3.3,1.9-5,2.9,6.1,6.3,8.4,14.6,10.5,22.9,1.9-.5,3.9-1.1,5.8-1.6a29.81,29.81,0,0,0-3.3-6.4c-1.6,1.2-3.1,2.4-4.7,3.6,4.4,3.4,4.6,11.7,5.4,16.9a58.66,58.66,0,0,1-.3,21.7c-1.3,6-1.2,12.3-1.9,18.4-.7,5.5-.4,10.7,2.3,15.6a3.05,3.05,0,0,0,5.5-.7l.9-4.2c-2-.3-3.9-.5-5.9-.8-.2,1.8-.3,3.7-.5,5.5-.3,3.8,5.6,3.8,6,0a199.91,199.91,0,0,0,0-37.1l-5.6,1.5.3,2.7c-.5,3.1,3.8,5.6,5.5,2.3,3-5.9-3.6-11.2-7-15.4-1.9-2.3-4.8-.1-5.1,2.1-.4,3.4-.9,6.8-1.3,10.1l5.6-1.5a8.34,8.34,0,0,1-.6-5.8c.7-3.8-5-5.4-5.8-1.6-.4,2-.7,4-2.1,5.7,1.7,1,3.3,1.9,5,2.9a98.32,98.32,0,0,0,4.3-34.5c-2,.3-3.9.5-5.9.8a132.62,132.62,0,0,1,0,44,41.15,41.15,0,0,1-2.7,9.7c-1.3,2.7-3.1,5.2-3.9,8.1-.7,2.6.3,4.3-2.6,4.6-3.5.4-7.2,0-10.6-.1-11-.5-25.2-2.5-35.1,3.6-3,1.8-4.9,5.5-3.3,8.9,2.6,5.5,7.2,1.7,11.3,1.6,3.3,0,4.2-5.1.8-5.9a19.93,19.93,0,0,0-4.9-.6c-2.9,0-4.2,4.2-1.5,5.6,3.9,2.1,7.9,2.6,12.3,2.6,5.5,0,10.8.7,16.3,1a66.55,66.55,0,0,0,14.1-1.1c4.7-.7,13.3-3.2,17.8-.8a3,3,0,0,0,4.1-1.1c.1-.1.1-.2.2-.3a3.06,3.06,0,0,0-1.1-4.1c-.1,0-.1-.1-.2-.1-1.5-1-4.1-.1-4.4,1.8-.1.8-.3,1.6-.4,2.5,1.2-.7,2.5-1.4,3.7-2.1-6.3-1.2-12.3-.6-18.6,0a103.7,103.7,0,0,1-19.3-.1c-6.1-.6-12.1-1.7-18.2-1.8-4.8-.1-10.1,0-13.7,3.7-1.4,1.5-1,4.7,1.3,5a11.13,11.13,0,0,0,1.7.2c.3-2,.5-3.9.8-5.9-.6,0-1.3.1-1.9.1-3.9.2-3.8,5.5,0,6a80.29,80.29,0,0,0,14.7.4c3.8-.2,3.9-6,0-6a7.73,7.73,0,0,0-4,.7c-3,1.1-2.8,5.9.8,5.9H99.5c-.5-1.9-1-3.7-1.5-5.6a6.15,6.15,0,0,0-1.4.1c-.3,2-.5,3.9-.8,5.9a76.46,76.46,0,0,1,11.7-.6v-6l-3.6.3a3,3,0,0,0-.8,5.9c4.9,1.6,10.5.5,15.6.1,6-.4,12-.9,18-1.3,3.8-.3,3.9-6.3,0-6l-16.1,1.2c-4.9.4-11.1,1.9-15.9.3-.3,2-.5,3.9-.8,5.9l3.6-.3c3.8-.3,3.9-5.9,0-6a76.46,76.46,0,0,0-11.7.6c-3.2.4-4.3,4.9-.8,5.9a7.28,7.28,0,0,0,6.1-.7c2.7-1.4,1.4-5.6-1.5-5.6H79.8c.3,2,.5,3.9.8,5.9.8-.2,1.6-.3,2.4-.5v-6a80.29,80.29,0,0,1-14.7-.4v6c.6,0,1.3-.1,1.9-.1,3.2-.1,4.3-5.4.8-5.9a11.13,11.13,0,0,0-1.7-.2c.4,1.7.9,3.3,1.3,5,3.4-3.5,11.5-1.9,15.8-1.5,5.1.5,10.3,1.3,15.4,1.7,10.8.8,22-2.4,32.7-.4,1.5.3,3.4-.4,3.7-2.1.1-.8.3-1.6.4-2.5-1.5.6-2.9,1.2-4.4,1.8.1,0,.1.1.2.1-.4-1.4-.7-2.7-1.1-4.1-.1.1-.1.2-.2.3,1.4-.4,2.7-.7,4.1-1.1-7.7-4.2-19.6.1-27.8.9-5.4.5-10.5-.4-15.9-.8-5.6-.4-11.7,1-16.8-1.8-.5,1.9-1,3.7-1.5,5.6a9.35,9.35,0,0,1,3.3.4c.3-2,.5-3.9.8-5.9-.7,0-6,.7-5.9,1.5-.2-1.6,6.6-3,7.5-3.2,6-1.3,12.2-1.1,18.3-.9a174.38,174.38,0,0,0,17.7.5c4.1-.2,6.8-1.1,7.8-5.4a28.62,28.62,0,0,1,2.7-8.1,41.31,41.31,0,0,0,3-6.8c1.7-5.3,2.3-11,2.9-16.5a140.51,140.51,0,0,0-1.3-37.2c-.5-3.3-6.1-2.6-5.9.8A94.22,94.22,0,0,1,122,299c-.8,2.7,3.1,5.3,5,2.9a17.9,17.9,0,0,0,3.7-8.3c-1.9-.5-3.9-1.1-5.8-1.6a16.56,16.56,0,0,0,1.2,10.5c1.3,3.1,5.3,1,5.6-1.5.4-3.4.9-6.8,1.3-10.1l-5.1,2.1c.9,1.1,6.7,7,6.1,8.2,1.8.8,3.7,1.5,5.5,2.3a11.4,11.4,0,0,0-.9-7.3c-1.2-2.7-5.9-1.4-5.6,1.5a191.62,191.62,0,0,1,0,37.1h6c.2-1.8.3-3.7.5-5.5.3-3.4-5.2-4.1-5.9-.8l-.9,4.2c1.8-.2,3.7-.5,5.5-.7-3.5-6.5-.9-13.8-.4-20.7a71.89,71.89,0,0,1,1.1-10.4,52.32,52.32,0,0,0,1-9.7,91.78,91.78,0,0,0-2.1-18.8c-.9-5.1-1.6-10.7-6-14.1-2.4-1.9-6.9.6-4.7,3.6a17.2,17.2,0,0,1,2.7,5c1.3,3.6,6.7,2.2,5.8-1.6-2.3-9.3-5.2-18.5-12-25.5-2.1-2.1-5.9,0-5,2.9a26.44,26.44,0,0,1,1.1,5.6l5.1-2.1a10.8,10.8,0,0,0-3.9-2.8c-3.8-1.7-6.9,3.5-3.3,5Z" transform="translate(-59.89 -132.49)"/><path class="cls-1" d="M117.9,237.6a27,27,0,0,0,2.5-3.4h-5.2c.3.8.5,1.6.8,2.4.6,3.2,4.8,2.5,5.8,0,5.3-14.1-.6-29.1-2.2-43.3-.9-7.5.1-14.5,0-21.9,0-3.6-1.1-6.9.1-10.4.2-.7,7.5-12.8,8.8-9.1,1.1,2.9,6.2,2.8,5.9-.8a10.77,10.77,0,0,1,.1-4c-1.7.4-3.3.9-5,1.3,2.4,3-.3,6.1-2.2,8.1-2.7,2.8,1.6,7,4.2,4.2,4.6-4.8,6.8-11,2.2-16.6-1.4-1.7-4.6-.8-5,1.3a20.87,20.87,0,0,0-.3,5.6c2-.3,3.9-.5,5.9-.8-2.4-6.6-9.9-5.4-14.1-1.2a27.34,27.34,0,0,0-6,9.6c-1.8,4.8-.5,8.6-.6,13.5-.1,5.2-.8,10.2-.5,15.4a127.14,127.14,0,0,0,1.9,15.1c1.8,10.7,5,21.7,1,32.3h5.8a8.77,8.77,0,0,0-1.4-3.8c-1.1-2-4-1.8-5.2,0-.5.7-1,1.5-1.6,2.2-2.4,3,1.8,7.3,4.3,4.3Z" transform="translate(-59.89 -132.49)"/><path class="cls-2" d="M71.2,169.9c5.2,2.1,10.8,2.3,15.8-.3s7.2-7.2,9-12.1c.3-.7-.9-1-1.2-.3-3.8,10.4-12.3,16.1-23.4,11.6-.6-.3-.9.8-.2,1.1Z" transform="translate(-59.89 -132.49)"/><path d="M71.3,169.5a112.16,112.16,0,0,1,1.9,11.6c1.2,9.6,2.2,19.2,3.2,28.9a238.8,238.8,0,0,1,1.5,25.4" transform="translate(-59.89 -132.49)"/><path d="M70.7,169.7c2.4,10.6,3.1,21.8,4.2,32.6,1.2,11,2.4,22,2.3,33.1a.6.6,0,1,0,1.2,0c.1-11.7-1.2-23.4-2.5-35-1.1-10.3-1.8-20.9-4.1-31-.1-.8-1.3-.4-1.1.3Z" transform="translate(-59.89 -132.49)"/><path d="M77.1,235.6c-.1,3.5-2.7,7.2-4.2,10.2-1.3,2.6-2.7,5.2-4,7.7a57.87,57.87,0,0,0-5.3,13.2c-2.4,9.8-2.8,20.1-3.7,30.1-.1.8,1.1.8,1.2,0,1.1-11,1.2-22.6,4.6-33.2,1.7-5.4,4.8-10.4,7.4-15.5,2-3.8,5.2-8.1,5.3-12.5-.1-.8-1.3-.8-1.3,0Z" transform="translate(-59.89 -132.49)"/><path class="cls-2" d="M131.3,168c-10.6,4-19.3-.7-23.4-10.9-.3-.7-1.4-.4-1.2.3,2,5,4.5,9.4,9.6,11.7a19.55,19.55,0,0,0,15.2,0c.9-.2.6-1.4-.2-1.1Z" transform="translate(-59.89 -132.49)"/><path d="M59.9,296.3c.1,10.2.1,20.3.3,30.5.2,7.9.4,16.2,2.1,24,.2.8,1.3.4,1.2-.3-1.8-8-2-17-2.1-25.3-.1-9.6-.2-19.2-.3-28.9a.6.6,0,1,0-1.2,0Z" transform="translate(-59.89 -132.49)"/><path d="M62.5,352.5c24.9,2.1,50.8,2.2,75.6-1.2.8-.1.4-1.3-.3-1.2-24.7,3.4-50.5,3.3-75.3,1.2-.8-.1-.8,1.1,0,1.2Z" transform="translate(-59.89 -132.49)"/><path d="M128.6,169.9c-2.4,21.8-4.2,43.6-6.2,65.4-.1.8,1.1.8,1.2,0,2-21.8,3.8-43.6,6.2-65.4.1-.8-1.1-.8-1.2,0Z" transform="translate(-59.89 -132.49)"/><path d="M122.8,234.6c-.8,4.1,1.5,6.9,3.5,10.3a89.46,89.46,0,0,1,7.6,16.3,93.05,93.05,0,0,1,5,33.9.6.6,0,0,0,1.2,0,96.85,96.85,0,0,0-3.5-29.3,90.57,90.57,0,0,0-4.5-12.3c-1.1-2.4-2.2-4.7-3.5-7-1.8-3.3-5.5-7.6-4.7-11.7.2-.7-1-1-1.1-.2Z" transform="translate(-59.89 -132.49)"/><path d="M138.9,294.9c-.1,18.5-.4,37-.8,55.4a.6.6,0,0,0,1.2,0c.5-18.5.8-36.9.8-55.4a.6.6,0,0,0-1.2,0Z" transform="translate(-59.89 -132.49)"/><path d="M71.9,168.5c-7.2-4.6-8.3-13-7.4-20.9.1-.8-1.1-.8-1.2,0-.9,8.3.5,17.1,8,21.9a.58.58,0,1,0,.6-1Z" transform="translate(-59.89 -132.49)"/><path d="M64.1,147.8c.7-8,10.3-11.4,17-12.7,6.1-1.2,12.3-1.2,18.4-1.2a.6.6,0,1,0,0-1.2c-10.9,0-35.2-.2-36.6,15.2-.1.7,1.1.7,1.2-.1Z" transform="translate(-59.89 -132.49)"/><path d="M131,169.5a21.26,21.26,0,0,0,4.8-24.4c-.3-.7-1.3-.1-1,.6a19.89,19.89,0,0,1-4.6,23c-.6.5.2,1.3.8.8Z" transform="translate(-59.89 -132.49)"/><path d="M136.4,147.8c-1.5-15.6-27.1-15.2-38.1-15.2a.6.6,0,1,0,0,1.2c6.4,0,12.8,0,19,1.2,6.8,1.3,17.1,4.6,17.9,12.8.1.8,1.3.8,1.2,0Z" transform="translate(-59.89 -132.49)"/></svg>