<svg id="Layer_1" data-name="Layer 1" xmlns="http://www.w3.org/2000/svg" viewBox="0 0 76.31 138.82"><defs><style>.cls-1{fill:#f05239;}.cls-2{fill:#c4432e;}</style></defs><title>Straptop</title><g id="_Group_" data-name="&lt;Group&gt;"><path class="cls-1" d="M78.5,131.5a3.52,3.52,0,0,0,1,1.9,8.19,8.19,0,0,0,3.3,1.8,57.62,57.62,0,0,0,35.1.6c2.2-.7,4.3-1.4,6.5-2l.1-.1a239.73,239.73,0,0,0-.5-26.8l.3-.6a34,34,0,0,1,4.5.3l.3.8c.1,2,0,4.1,0,6.1-.1,2.4-.1,4.9-.1,7.3-.1,4.2-.2,8.3-.7,12.4h.1a19.15,19.15,0,0,1,7,8.4,25.38,25.38,0,0,1,2.2,9.7h.1a4.16,4.16,0,0,1-.2,2.2c-.1.2-.2.5-.3.7a2.72,2.72,0,0,0,0,.9,10.27,10.27,0,0,1-1.5,7.1c-.5.7-1,1.4-1.6,2.1-1.2,1.4-2.4,2.7-3.6,4.1l-.6-.4c-.2.4-.4.7-.6,1.1l-.9,15c-1.2,19.5-2.4,39.1-6.2,58.3l-.1.2c-2.2-.6-4.5-.5-6.7-.8s-4.6-.9-6.9-1.1a38.6,38.6,0,0,0-7.6,0,192.7,192.7,0,0,0-24.1,2.2h-.5c-1.1-16-2.3-31.9-3.4-47.9h-.1c-1.5-8.9-.7-18.1-2.3-26.9h0c-1.1-1.1-2.4-1.9-3.5-3A14.55,14.55,0,0,1,63.6,150l.3.1c1.2-6,3.6-12.1,8.5-15.8v-.8c2.3-8.6.7-17.8,1.8-26.7l.6.1c.3.1.6.1.8.2a6.93,6.93,0,0,1,3.2-.1h0a1.84,1.84,0,0,1,.4,1.3,149.43,149.43,0,0,1-.4,17.7c-.1,1.5-.2,2.9-.2,4.4A1.38,1.38,0,0,0,78.5,131.5Z" transform="translate(-62.52 -105.3)"/></g><path class="cls-1" d="M88.1,226.5c-1,1.3-2.9,1.5-4.5,1.3a2.66,2.66,0,0,1-1.2-.3,1.76,1.76,0,0,1-.7-1.9,9.08,9.08,0,0,1-1.2,3.1c-1.1-.9.2-3-.7-4.1" transform="translate(-62.52 -105.3)"/><path class="cls-1" d="M120.3,158.1a21.94,21.94,0,0,0,8.7-4.5,8.11,8.11,0,0,1-1.3,5.7,14.94,14.94,0,0,0,4.4-5.8c.8,1.9-.3,4.2-2,5.3a13.14,13.14,0,0,1-5.8,1.8,22.9,22.9,0,0,1-6.4.2,2.44,2.44,0,0,0-1.2,0c-.4.2-.6.6-.9.9a58.62,58.62,0,0,0-3.2,6.7,3.32,3.32,0,0,1,.3-2.4,32.38,32.38,0,0,1,1.9,5.2c.5-1,.9-2.1,1.4-3.1a8.79,8.79,0,0,1,1.2,2.8,27.14,27.14,0,0,0,2.4-3.5,10.89,10.89,0,0,1,.8,3.1,3.12,3.12,0,0,0,1.6-1.6v1c.5-1,1.1-1.9,1.6-2.9.1.5.2.9.3,1.4.3-.3,0-.9-.5-.9a5.07,5.07,0,0,0-1.3.2,12.1,12.1,0,0,1-1.9-.1c-1.9-.1-3.6,1-5.2,2a100.47,100.47,0,0,1-13.4,7,1.53,1.53,0,0,1-1.3.2,1.64,1.64,0,0,1-.7-1.2c-.3-1.2-.6-2.3-.9-3.5a3.35,3.35,0,0,1-4,.8,4.88,4.88,0,0,1-2.5-3.4,8.78,8.78,0,0,0-.7-2.3,1.43,1.43,0,0,0-2.1-.5c-.1-.2-.2-.3-.3-.5a21,21,0,0,1-10,3.1,4,4,0,0,0-4.1-2.2" transform="translate(-62.52 -105.3)"/><path class="cls-1" d="M71.5,168.6c1.1.3,2.1.7,3.2,1a25,25,0,0,0,2.6.7,12.35,12.35,0,0,0,6-.8,34.48,34.48,0,0,0,5.4-2.8" transform="translate(-62.52 -105.3)"/><path class="cls-1" d="M128.3,168c-1.1.3-2.1.7-3.2,1a25,25,0,0,1-2.6.7,12.35,12.35,0,0,1-6-.8,34.48,34.48,0,0,1-5.4-2.8" transform="translate(-62.52 -105.3)"/><path class="cls-1" d="M112,166.2c2.8,1.5,5.8,3.1,9,3.3a19.2,19.2,0,0,0,6.6-1.2" transform="translate(-62.52 -105.3)"/><path class="cls-1" d="M124,150.7c.2-.3.7-.4.9-.1a.56.56,0,0,1,0,.9c-.3.2-.8-.1-.7-.4a.56.56,0,0,1,.6-.5,1.8,1.8,0,0,1,2,2,.89.89,0,0,1,1-.6,1.59,1.59,0,0,1,1,.8.88.88,0,0,1,.1.7c-.1.2-.6.2-.5-.1a.7.7,0,0,1,1-.4.71.71,0,0,1,.3,1c.1-.2.3-.5.5-.5s.6.1.6.3-.2.5-.5.4a1.28,1.28,0,0,1,1.2-.2.38.38,0,0,1-.3.5c-.2-.3.1-.7.5-.7s.6.3.9.5a1.09,1.09,0,0,0-.8.8" transform="translate(-62.52 -105.3)"/><path class="cls-1" d="M87.1,230.7a3.51,3.51,0,0,1-3.3.1,3.45,3.45,0,0,1-1.8-2.7c-.1.8-.2,1.6-.3,2.3a35.74,35.74,0,0,0-1-3.5,14.52,14.52,0,0,0,.2,3.6,33.1,33.1,0,0,1-1-6.3c-.9-8.9-1.5-17.8-2.1-26.7-.2-2.3-.3-4.6-.5-6.9,0-.6-.1-1.3-.1-1.9-.2-3.8-.4-7.6-.4-11.4" transform="translate(-62.52 -105.3)"/><path class="cls-1" d="M87.3,166.2c-2.8,1.5-5.8,3.1-9,3.3a19.2,19.2,0,0,1-6.6-1.2" transform="translate(-62.52 -105.3)"/><path class="cls-1" d="M92.2,189.4a15.93,15.93,0,0,1-5.7-1c-1.9-.9-2.5-2.5-3.8-4-2.2-2.6-5.1-3.3-8.1-1.7h3c.9.5-.7-3.6-.9-4.1-1.2-3.7-6.5-2.2-5.8,1.6a44.29,44.29,0,0,1,.6,5.1c.2,3.8,6,3.9,6,0,0-1.8.1-3.7,0-5.5,0-.4-.6-3-.5-3.2,2.2-3.2-3-6.2-5.2-3-1.2,1.7-.9,3-.6,4.9a37.53,37.53,0,0,1,.2,6.7h6a49.05,49.05,0,0,0-.8-6.7c-1.9.5-3.9,1.1-5.8,1.6.7,2.2,1.2,6.1,3.3,7.5.9.6,1.6.3,2.6.4.3-.3.6-.4.9-.2l1.2,1.8c3.2,4.5,7.9,5.4,13.1,5.7,4.1.3,4.1-5.7.3-5.9Z" transform="translate(-62.52 -105.3)"/><path class="cls-1" d="M88.7,207.2c-.4-.8-.8-1.5-1.2-2.3-1.1-2.1-5.1-1.9-5.5.7-.6,3.5-1.1,7-1.7,10.5-.3,1.6-.5,3.2-.8,4.8-.1.6-.2,1.3-.3,1.9-.8,1.9-.6,2.4.4,1.4,1,.3,1.9.5,2.9.8a4.07,4.07,0,0,1-.8-2.4c-.6-2.9-5.2-2.9-5.8,0-.4,1.8-.8,3.6-1.1,5.4,2,.3,3.9.5,5.9.8-1.2-13.4-2.3-26.9-3.3-40.3-2,.3-3.9.5-5.9.8,3.7,14.3,6.1,28.8,5.2,43.7-.2,3.3,5.3,4.1,5.9.8,1.8-9.9,3.2-20,6.3-29.6,3.2-9.8,6.5-19.4,9.3-29.4,2.3-8.4,6.1-18.2,14.6-22,2.8-1.3,6.6-1.6,8.5,1.3,1,1.4.9,2.9,2.6,3.9,3.7,2.1,5.9-2.5,9.3-2.4-.9-.5-1.7-1-2.6-1.5a6.28,6.28,0,0,1,1.2,3.7c.4,2.5,4.4,2.9,5.5.7a9.58,9.58,0,0,0,.8-7.6,3.16,3.16,0,0,0-2.1-2.1c-.8-.1-1.5-.3-2.3-.4-3.8-.6-5.4,5.1-1.6,5.8.8.1,1.5.3,2.3.4l-2.1-2.1c-.1,1-.1,2-.2,3,1.8.2,3.7.5,5.5.7-.4-2.5-1.1-6-4-6.6s-5.9,2.4-8.6,3.1c1,.3,1.9.5,2.9.8-1.1-.9-1.4-2.7-2.3-3.8a10.49,10.49,0,0,0-3.9-3c-3.6-1.6-7.7-.9-11.1.6-7.9,3.5-12.8,11.1-15.8,18.9a146.32,146.32,0,0,0-4.6,16c-1.5,5.5-3.5,10.7-5.4,16-4,11-5.7,22.6-7.8,34,2,.3,3.9.5,5.9.8,1-15.3-1.6-30.5-5.4-45.3-.8-3.2-6.2-2.6-5.9.8,1,13.5,2.1,26.9,3.3,40.3.3,3.1,5.1,4.3,5.9.8.4-1.8.8-3.6,1.1-5.4H76.1c.7,3.5,4.2,8.7,7.8,4.3,1.7-2.1,1.5-5.4,1.9-7.9.7-4.4,1.4-8.9,2.1-13.3-1.8.2-3.7.5-5.5.7.4.8.8,1.5,1.2,2.3,1.8,3.3,7,.3,5.1-3.1Z" transform="translate(-62.52 -105.3)"/><path class="cls-1" d="M71.7,168.9a19.93,19.93,0,0,0,7.3.6,10.89,10.89,0,0,0,3.1-.8,8.88,8.88,0,0,0,3.8-2.1" transform="translate(-62.52 -105.3)"/><path class="cls-2" d="M71.5,169.4c5.1,1,10.6,1.2,14.8-2.4.6-.5-.3-1.4-.8-.8-3.8,3.3-9,3-13.6,2.1-.8-.2-1.2,1-.4,1.1Z" transform="translate(-62.52 -105.3)"/><path class="cls-1" d="M128.3,168.6a19.93,19.93,0,0,1-7.3.6,10.89,10.89,0,0,1-3.1-.8,8.88,8.88,0,0,1-3.8-2.1" transform="translate(-62.52 -105.3)"/><path class="cls-2" d="M128.1,168c-4.6.9-9.8,1.2-13.6-2.1-.6-.5-1.4.3-.8.8,4.2,3.6,9.7,3.4,14.8,2.4.7-.1.4-1.3-.4-1.1Z" transform="translate(-62.52 -105.3)"/><path d="M122.9,242.8a617.69,617.69,0,0,0,6.8-74.4.6.6,0,1,0-1.2,0c-.9,24.9-2.8,49.4-6.8,74,0,.9,1.1,1.2,1.2.4Z" transform="translate(-62.52 -105.3)"/><path d="M76.8,242.5a710.13,710.13,0,0,1-5.7-74.4.6.6,0,1,0-1.2,0,720.21,720.21,0,0,0,5.8,74.7c0,.8,1.2.5,1.1-.3Z" transform="translate(-62.52 -105.3)"/><path d="M72.1,133.7c-10.5,8-14,26.4-2.1,34.8.6.4,1.2-.6.6-1-11.1-7.9-7.6-25.2,2.1-32.7.6-.5,0-1.6-.6-1.1Z" transform="translate(-62.52 -105.3)"/><path d="M130.3,168.8c13.9-6.7,8.9-28.3-1.4-35.9-.6-.5-1.2.6-.6,1,9.6,7.1,14.4,27.5,1.4,33.8-.7.4-.1,1.5.6,1.1Z" transform="translate(-62.52 -105.3)"/><path d="M72.7,134.3c1.1-4,.9-8.4,1.1-12.6.2-4.9.4-9.8.5-14.8a.6.6,0,1,0-1.2,0c-.1,4.3-.3,8.6-.4,12.9-.2,4.6.1,9.7-1.1,14.1a.59.59,0,1,0,1.1.4Z" transform="translate(-62.52 -105.3)"/><path d="M79.8,132.9c-1.2-4,.3-9.3.5-13.5q.3-6.6,0-13.2a.6.6,0,1,0-1.2,0c.2,5,.2,10-.1,15-.2,3.9-1.5,8.2-.3,11.9.2.9,1.4.6,1.1-.2Z" transform="translate(-62.52 -105.3)"/><path d="M129.2,133.5a198.4,198.4,0,0,0,.6-26.7.6.6,0,1,0-1.2,0,198.4,198.4,0,0,1-.6,26.7c-.1.8,1.1.7,1.2,0Z" transform="translate(-62.52 -105.3)"/><path d="M124.6,133.9c2.3-8.4.2-18.7-.3-27.3a.6.6,0,1,0-1.2,0c.5,8.5,2.5,18.7.3,27a.62.62,0,0,0,1.2.3Z" transform="translate(-62.52 -105.3)"/><path d="M74.3,107.3c1.5,0,3.1,0,4.6-.1.8-.1.8-1.3,0-1.2a35.33,35.33,0,0,1-4.6.1.6.6,0,1,0,0,1.2Z" transform="translate(-62.52 -105.3)"/><path d="M124.1,106.7c1.6,0,3.2-.1,4.7-.2a.6.6,0,1,0,0-1.2c-1.6.1-3.2.1-4.7.2-.7,0-.7,1.2,0,1.2Z" transform="translate(-62.52 -105.3)"/><path d="M76.9,243.4a107.19,107.19,0,0,1,45.8.7.62.62,0,1,0,.3-1.2,106.8,106.8,0,0,0-46.4-.7.62.62,0,0,0,.3,1.2Z" transform="translate(-62.52 -105.3)"/><path d="M79.2,134.2c5.8,3.9,14.3,4.7,21.1,4.6a76.56,76.56,0,0,0,24.2-4.3c.2-.1.5-.3.4-.6a2,2,0,0,0-.1-.7c-.1-.8-1.3-.8-1.2,0,.2,2.4-20,4.2-21.6,4.3-7.2.2-16.2-.3-22.3-4.4-.5-.3-1.1.7-.5,1.1Z" transform="translate(-62.52 -105.3)"/><path d="M112.9,137.5a41.21,41.21,0,0,0,11-2.7c.7-.3.4-1.4-.3-1.2a40,40,0,0,1-10.7,2.7c-.8.1-.8,1.3,0,1.2Z" transform="translate(-62.52 -105.3)"/></svg>