<svg id="Layer_1" data-name="Layer 1" xmlns="http://www.w3.org/2000/svg" viewBox="0 0 81.25 248.48"><defs><style>.cls-1{fill:#ff5458;}.cls-2{fill:#ff4358;}</style></defs><title>Strapshort</title><g id="_Group_" data-name="&lt;Group&gt;"><path class="cls-1" d="M126,244.2a96.05,96.05,0,0,1,12.7,48.5l-.4.1a327,327,0,0,1-.9,57.7v.1c-25.2,1.8-50.6,3.7-75.8.7l.1-.8a327.16,327.16,0,0,1-.9-57.7l-.4-.1a95.79,95.79,0,0,1,12.7-48.5c1.9-3.3,4.1-6.9,3.7-10.7v-.4c-1.4-21.1-3.6-42.1-6.3-63l.3-.1c-.1-.3-.1-.5-.2-.8l.2-.3a3,3,0,0,0-.7-.5,21.25,21.25,0,0,1-7.4-13.3h-.3a95.72,95.72,0,0,1,1.3-12,16.82,16.82,0,0,1,1.1-4,12.17,12.17,0,0,1,5.1-5.2,31.7,31.7,0,0,1,6.9-2.6l.1-.3c.4-8.1.4-16.1,0-24.2v-.3a24.62,24.62,0,0,0,2.6.2l2.2.1c.3,7.8.4,15.7.2,23.5H82c0,.4.6.6,1,.7,11.4,1.9,23-1.1,34.5-.4l2.6-.2c-.2-7.9-.1-15.8.2-23.7V106l4.6.3.2.4a195.4,195.4,0,0,0,0,24.2l.1.3a33.76,33.76,0,0,1,6.9,2.6,12.19,12.19,0,0,1,5.1,5.2,14.94,14.94,0,0,1,1.1,4,97.79,97.79,0,0,1,1.3,12h-.3a19.91,19.91,0,0,1-7.4,13.3,11.1,11.1,0,0,1-2.7,1.7l-.6.3q-4.2,31.2-6.3,62.6v.4C121.8,237.3,124.1,240.8,126,244.2Z" transform="translate(-59.29 -105.4)"/></g><path class="cls-2" d="M70.6,169.8c5.2,2.1,10.8,2.3,15.8-.3s7.2-7.2,9-12.1c.3-.7-.9-1-1.2-.3-3.8,10.4-12.3,16.1-23.4,11.6-.6-.3-1,.8-.2,1.1Z" transform="translate(-59.29 -105.4)"/><path d="M77.2,131.2c1.5-8.2-.5-16.4-.5-24.6a.6.6,0,1,0-1.2,0c-.1,8.1,1.9,16.2.5,24.3-.1.7,1.1,1.1,1.2.3Z" transform="translate(-59.29 -105.4)"/><path d="M82.6,130.5c-.3-7.8-.6-15.7-.9-23.5a.6.6,0,1,0-1.2,0c.3,7.8.6,15.7.9,23.5a.6.6,0,1,0,1.2,0Z" transform="translate(-59.29 -105.4)"/><path d="M76.5,106.9c.4-.4,1.7-.2,2.1-.2.7,0,1.4-.1,2.1-.1a.6.6,0,1,0,0-1.2c-1.1,0-2.1.1-3.2.1a2.51,2.51,0,0,0-1.9.5c-.5.6.4,1.4.9.9Z" transform="translate(-59.29 -105.4)"/><path d="M63.3,155.7c-.2-4.6-.7-10.3.6-14.8,1.5-4.8,7.4-7.9,12.1-8.8.8-.1.4-1.3-.3-1.2-4.1.8-9.8,3.3-12,7.1-2.8,4.7-1.9,12.5-1.6,17.6.1.9,1.3.9,1.2.1Z" transform="translate(-59.29 -105.4)"/><path d="M62.1,155.2a23.94,23.94,0,0,0,9.3,14.3c.6.5,1.2-.6.6-1a23.26,23.26,0,0,1-8.8-13.6c-.1-.8-1.3-.5-1.1.3Z" transform="translate(-59.29 -105.4)"/><path d="M70.1,169.6c2.4,10.6,3.1,21.8,4.2,32.6,1.2,11,2.4,22,2.3,33.1a.6.6,0,1,0,1.2,0c.1-11.7-1.2-23.4-2.5-35-1.1-10.3-1.8-20.9-4.1-31-.1-.8-1.3-.4-1.1.3Z" transform="translate(-59.29 -105.4)"/><path d="M76.5,235.5c-.1,3.5-2.7,7.2-4.2,10.2-1.3,2.6-2.7,5.2-4,7.7A57.87,57.87,0,0,0,63,266.6c-2.4,9.8-2.8,20.1-3.7,30.1-.1.8,1.1.8,1.2,0,1.1-11,1.2-22.6,4.6-33.2,1.7-5.4,4.8-10.4,7.4-15.5,2-3.8,5.2-8.1,5.3-12.5-.1-.8-1.3-.8-1.3,0Z" transform="translate(-59.29 -105.4)"/><path class="cls-2" d="M130.7,167.9c-10.6,4-19.3-.7-23.4-10.9-.3-.7-1.4-.4-1.2.3,2,5,4.5,9.4,9.6,11.7a19.55,19.55,0,0,0,15.2,0c.9-.2.5-1.4-.2-1.1Z" transform="translate(-59.29 -105.4)"/><path d="M59.3,296.2c.1,10.2.1,20.3.3,30.5.2,7.9.4,16.2,2.1,24,.2.8,1.3.4,1.2-.3-1.8-8-2-17-2.1-25.3-.1-9.6-.2-19.2-.3-28.9a.6.6,0,1,0-1.2,0Z" transform="translate(-59.29 -105.4)"/><path d="M61.8,352.4c24.9,2.1,50.8,2.2,75.6-1.2.8-.1.4-1.3-.3-1.2-24.7,3.4-50.5,3.3-75.3,1.2-.7-.1-.7,1.1,0,1.2Z" transform="translate(-59.29 -105.4)"/><path d="M120.6,130a235.85,235.85,0,0,1,.3-23.8.6.6,0,1,0-1.2,0,236.22,236.22,0,0,0-.3,23.8c.1.8,1.3.8,1.2,0Z" transform="translate(-59.29 -105.4)"/><path d="M121.1,106.7c.2-.4,1.6-.1,1.9,0,.7.1,1.3.1,2,.2s.8-1.1,0-1.2l-3.3-.3a1.64,1.64,0,0,0-1.6.7c-.3.6.7,1.3,1,.6Z" transform="translate(-59.29 -105.4)"/><path d="M125.8,131.2c-.1-8.2-.1-16.4-.2-24.7a.6.6,0,1,0-1.2,0c.1,8.2.1,16.4.2,24.7,0,.7,1.2.7,1.2,0Z" transform="translate(-59.29 -105.4)"/><path d="M82.1,131.6c1.9-.2,4.2.7,6.2.6,3.5-.1,6.9-.5,10.4-.7,6.9-.4,13.9-.6,20.8-.7a.6.6,0,1,0,0-1.2c-6.9.1-13.9.3-20.8.7-3.2.2-6.4.5-9.6.6-2.4.1-4.7-.8-6.9-.6-.8.2-.8,1.4-.1,1.3Z" transform="translate(-59.29 -105.4)"/><path d="M125.6,132c9.6.4,13.2,10.8,13.5,18.7.3,7.7-2.7,15.9-10.8,18-.7.2-.4,1.4.3,1.2,17.1-4.5,15.6-38.2-3-39.1-.8-.1-.8,1.1,0,1.2Z" transform="translate(-59.29 -105.4)"/><path d="M128,169.8c-2.4,21.8-4.2,43.6-6.2,65.4-.1.8,1.1.8,1.2,0,2-21.8,3.8-43.6,6.2-65.4.1-.8-1.1-.8-1.2,0Z" transform="translate(-59.29 -105.4)"/><path d="M122.1,234.5c-.8,4.1,1.5,6.9,3.5,10.3a89.46,89.46,0,0,1,7.6,16.3,93.05,93.05,0,0,1,5,33.9.6.6,0,0,0,1.2,0,96.85,96.85,0,0,0-3.5-29.3,90.57,90.57,0,0,0-4.5-12.3c-1.1-2.4-2.2-4.7-3.5-7-1.8-3.3-5.5-7.6-4.7-11.7.3-.7-.9-1-1.1-.2Z" transform="translate(-59.29 -105.4)"/><path d="M138.3,294.8c-.1,18.5-.4,37-.8,55.4a.6.6,0,0,0,1.2,0c.5-18.5.8-36.9.8-55.4a.6.6,0,0,0-1.2,0Z" transform="translate(-59.29 -105.4)"/></svg>