<svg id="Layer_1" data-name="Layer 1" xmlns="http://www.w3.org/2000/svg" viewBox="0 0 74.73 83.84"><defs><style>.cls-1{fill:#624018;}.cls-2{fill:none;stroke:#000005;stroke-miterlimit:10;stroke-width:0.1px;}.cls-3{fill:#000005;}.cls-4{fill:#4f330c;}</style></defs><title>Thightskirt</title><g id="_Group_" data-name="&lt;Group&gt;"><path class="cls-1" d="M135.7,315.1h.2c-.2,8.2-.5,16.5-.9,24.7-.1,1.6-.1,3.1-.2,4.7h-.4a15.3,15.3,0,0,0-4.1-1.4c-1.1-.2-2.2-.2-3.4-.3-20.9-.6-41.8-1.1-62.5,2l-.2-.5c-.1-1.8-.2-3.6-.2-5.3-.3-8.2-.7-16.4-.9-24.7h.2c-.1-4.4-.2-8.7-.2-13.1V284.3A70.88,70.88,0,0,1,67,263h.1a105.05,105.05,0,0,0,44.9,4.5,175.87,175.87,0,0,0,19.2-3.7l.4-.1a71,71,0,0,1,3.9,21.4c0,1.1,0,2.1.1,3.1V302C135.9,306.3,135.8,310.7,135.7,315.1Z" transform="translate(-62.5 -261.86)"/><path class="cls-2" d="M67.3,262.9a105.05,105.05,0,0,0,44.9,4.5,175.87,175.87,0,0,0,19.2-3.7" transform="translate(-62.5 -261.86)"/><path class="cls-2" d="M67.4,262.5c0,.1-.1.2-.1.4a69.76,69.76,0,0,0-3.9,21.3v16.9c0,4.4.1,8.7.2,13.1a7.57,7.57,0,0,0,.1,1.5" transform="translate(-62.5 -261.86)"/><path class="cls-2" d="M63.2,314.2c.2,8.2.5,16.5.9,24.7.1,1.8.1,3.6.2,5.3" transform="translate(-62.5 -261.86)"/><path class="cls-2" d="M131.7,263.4a.35.35,0,0,0,.1.2,71,71,0,0,1,3.9,21.4c0,1.1,0,2.1.1,3.1v13.8c0,4.4-.1,8.7-.2,13.1a7.57,7.57,0,0,1-.1,1.5" transform="translate(-62.5 -261.86)"/><path class="cls-2" d="M135.9,315.1c-.2,8.2-.5,16.5-.9,24.7-.1,1.6-.1,3.1-.2,4.7v.6" transform="translate(-62.5 -261.86)"/><path class="cls-2" d="M64.5,344.7c20.6-3.1,41.6-2.6,62.5-2a19.53,19.53,0,0,1,3.4.3,19.84,19.84,0,0,1,4.1,1.4" transform="translate(-62.5 -261.86)"/></g><path class="cls-3" d="M65,345.1a104.79,104.79,0,0,1,14.8-1.7c2.4-.1,6.1.6,8.1-.4.3-.2.4-.7.1-.9l-.1-.1a.56.56,0,0,0-.9.1.1.1,0,0,1-.1.1.59.59,0,0,0,.5.9c7.6-.3,15.3-.5,22.9-.5,7.8,0,16.8-1,24,2.5.7.3,1.3-.7.6-1-9.5-4.6-22-2.7-32.3-2.6-12.7.2-25.5.3-38,2.5-.7,0-.3,1.2.4,1.1Z" transform="translate(-62.5 -261.86)"/><path class="cls-3" d="M65.2,344.4c-.7-9.6-1.7-19.5-1-29.2.1-.8-1.1-.8-1.2,0-.6,9.6.3,19.5,1,29.2a.6.6,0,1,0,1.2,0Z" transform="translate(-62.5 -261.86)"/><path class="cls-3" d="M64.1,315.4c-.4-9.6-.5-19.1-.2-28.7a.6.6,0,0,0-1.2,0c-.3,9.6-.3,19.1.2,28.7a.6.6,0,1,0,1.2,0Z" transform="translate(-62.5 -261.86)"/><path class="cls-3" d="M63.8,287.3a90.85,90.85,0,0,1,4.3-24.7.62.62,0,0,0-1.2-.3,88.12,88.12,0,0,0-4.4,25c.1.8,1.3.8,1.3,0Z" transform="translate(-62.5 -261.86)"/><path class="cls-3" d="M67.6,263.3c4.2,2,8.9,2.3,13.3,3.4,4.8,1.3,9.8,1.2,14.7,1.5,12.4.6,23.6-1.6,35.7-4,.8-.2.4-1.3-.3-1.2-11.3,2.3-22.1,4.5-33.7,4-4.8-.2-9.8-.1-14.4-1.1s-10.3-1.7-14.6-3.7c-.8-.3-1.4.7-.7,1.1Z" transform="translate(-62.5 -261.86)"/><path class="cls-3" d="M131.3,263a100.32,100.32,0,0,1,3.7,15.3c.8,5.3,1.5,12.1.5,17.4a.62.62,0,0,0,1.2.3c.9-5,.4-11.1-.2-16.1a99.74,99.74,0,0,0-3.9-17.2c-.4-.7-1.5-.4-1.3.3Z" transform="translate(-62.5 -261.86)"/><path class="cls-3" d="M135.9,345.1v-.2a.6.6,0,0,0-1.2,0v.2a.6.6,0,0,0,1.2,0Z" transform="translate(-62.5 -261.86)"/><path class="cls-3" d="M135.7,344.8c-.4-11.1.8-22.4,1.3-33.5a.6.6,0,0,0-1.2,0c-.5,11.1-1.6,22.4-1.3,33.5.1.7,1.3.7,1.2,0Z" transform="translate(-62.5 -261.86)"/><path class="cls-3" d="M136.9,311.5a97.51,97.51,0,0,0,.1-14.3c-.1-.8-1.3-.8-1.2,0a113.73,113.73,0,0,1-.1,14.3c-.1.8,1.1.8,1.2,0Z" transform="translate(-62.5 -261.86)"/><path class="cls-3" d="M137.2,297.6v-3.3a.6.6,0,0,0-1.2,0v3.3a.6.6,0,0,0,1.2,0Z" transform="translate(-62.5 -261.86)"/><path class="cls-1" d="M121.4,300.2a8.26,8.26,0,0,1,1.4-3c.5-.7,1.3-1.4,2-1a1.76,1.76,0,0,1,.8.9c.3.5.7,1,1,1.5.1.1.2.3.3.3.3.2.7-.1,1-.3.6-.4,1.1-.8,1.7-1.2a1.89,1.89,0,0,0,.8-1c0-.3-.1-.5-.1-.8s.3-.6.5-.5.2.2.2.3c.1.3.2.7.3,1-.1-.5-.1-1-.2-1.5" transform="translate(-62.5 -261.86)"/><path class="cls-4" d="M69,281.4a24,24,0,0,1,2.4-12.9c.4-.7-.7-1.3-1-.6a23.31,23.31,0,0,0-2.6,13.5c0,.7,1.2.7,1.2,0Z" transform="translate(-62.5 -261.86)"/><path class="cls-4" d="M68.2,328.7a15.53,15.53,0,0,0,2.7,9.8c.4.6,1.5,0,1-.6a14.45,14.45,0,0,1-2.5-9.2.6.6,0,1,0-1.2,0Z" transform="translate(-62.5 -261.86)"/><path class="cls-4" d="M131,339a21.26,21.26,0,0,0,.8-9c-.1-.8-1.3-.8-1.2,0a19.63,19.63,0,0,1-.8,8.7.62.62,0,0,0,1.2.3Z" transform="translate(-62.5 -261.86)"/><path class="cls-4" d="M127.5,268.4c2.8,2.3,2.8,7.9,3.4,11.2.1.8,1.3.4,1.2-.3-.7-3.7-.6-9.2-3.7-11.8-.6-.5-1.5.4-.9.9Z" transform="translate(-62.5 -261.86)"/><path class="cls-4" d="M98.1,270.3c.1.8.2,1.7.3,2.5a.58.58,0,0,0,.6.6.65.65,0,0,0,.6-.6c-.1-.8-.2-1.7-.3-2.5a.58.58,0,0,0-.6-.6c-.3,0-.7.3-.6.6Z" transform="translate(-62.5 -261.86)"/><path class="cls-4" d="M98.5,277.8l.3,2.7a.6.6,0,0,0,1.2,0,15.26,15.26,0,0,0-.3-3c-.2-.8-1.4-.4-1.2.3Z" transform="translate(-62.5 -261.86)"/><path class="cls-4" d="M98.8,285a26.93,26.93,0,0,0,.3,4c.1.8,1.3.4,1.2-.3a22.18,22.18,0,0,1-.3-3.7.6.6,0,0,0-1.2,0Z" transform="translate(-62.5 -261.86)"/><path class="cls-4" d="M99.4,293c.1.8.2,1.7.3,2.5s1.3.8,1.2,0-.2-1.7-.3-2.5-1.3-.8-1.2,0Z" transform="translate(-62.5 -261.86)"/><path class="cls-4" d="M100.1,300.5a10.55,10.55,0,0,0,.4,3.1c.2.7,1.4.4,1.2-.3a13.51,13.51,0,0,1-.4-2.8c-.1-.8-1.3-.8-1.2,0Z" transform="translate(-62.5 -261.86)"/><path class="cls-4" d="M101.7,307.7a.76.76,0,0,1-.2-.4c-.2-.4-1-.4-1.1.1a8.62,8.62,0,0,0,.1,3.2c.2.7,1.4.4,1.2-.3a5.66,5.66,0,0,1-.1-2.6c-.4,0-.7.1-1.1.1a.76.76,0,0,1,.2.4.56.56,0,1,0,1-.5Z" transform="translate(-62.5 -261.86)"/><path class="cls-4" d="M100.7,315.2v3.5a.6.6,0,0,0,1.2,0v-3.5a.6.6,0,1,0-1.2,0Z" transform="translate(-62.5 -261.86)"/><path class="cls-4" d="M101,321.8c.1,1.1.3,2.1.4,3.2.1.8,1.3.8,1.2,0-.1-1.1-.3-2.1-.4-3.2,0-.7-1.2-.7-1.2,0Z" transform="translate(-62.5 -261.86)"/><path class="cls-4" d="M101.5,328.3a20.9,20.9,0,0,1,.1,2.5c-.1.8,1.1.8,1.2,0a12.89,12.89,0,0,0-.1-2.8c-.2-.8-1.3-.4-1.2.3Z" transform="translate(-62.5 -261.86)"/><path class="cls-4" d="M101.7,334.3a10.48,10.48,0,0,0,.4,3.5c.2.7,1.3.4,1.2-.3a8.52,8.52,0,0,1-.3-3.2c0-.7-1.2-.7-1.3,0Z" transform="translate(-62.5 -261.86)"/></svg>