<svg id="Layer_1" data-name="Layer 1" xmlns="http://www.w3.org/2000/svg" viewBox="0 0 124.01 173.02"><defs><style>.cls-1{fill:#cf68a8;}.cls-2{fill:#99d09c;}.cls-3{fill:#ac568d;}</style></defs><title>Top</title><path class="cls-1" d="M108.6,187.8a3.25,3.25,0,0,1-2.2-4.4l-2.7,3.6c.3-.2.7-.4,1-.6h-6c-1.8-1-1.1-9.6-1.1-11.4a78.69,78.69,0,0,1,2.6-17.4c-3.3.9-6.6,1.8-9.9,2.6,1.7,2.1,3.1,1,4.2-3.1a10.77,10.77,0,0,1-2.4-1.8,24.34,24.34,0,0,1-4.1-4.4c-3.9-4.9-11.3.5-9.9,5.8q2.7-2.55.6-3.6l-1.8-1.2c-2.3-1.6-5.3-.7-7.2.9a8.54,8.54,0,0,0-2.7,8.5c.8,3.5,3.4,4.9,5.3,7.6l8.1-8.1c-1.3-.7-.6-2-.2-3.1a9,9,0,0,1,1.2-2.4c1.5-1.8.9-2-1.9-.6L75.9,152a9.29,9.29,0,0,1,.5,1c-.2-1.5-.4-3.1-.6-4.6a3.07,3.07,0,0,1,1.5-1c1.7,1,3.4,2,5.1,2.9,0,1.4.2,1.5.7.1a2.17,2.17,0,0,1,1.9-1l-4.6-.6c.3.1.6.3.9.4l-2.7-3.6c.1-.7.3-1.4.4-2.1a1.61,1.61,0,0,1-1.1.5c-.8-.1-1.3.3-2.2.1l3.6,2.7c-.1-.3-.3-.5-.4-.8.2,1.5.4,3.1.6,4.6.2-1.5,4-4.1,5.6-3.5l-3.6-2.7c.2.3.3.6.5.9-.2-1.5-.4-3.1-.6-4.6-.4,2.7-8.3,3.9-10.3,4.2,2.2,2.9,4.5,5.8,6.7,8.7a13.53,13.53,0,0,1,4.9-4.3c.6-.3,2.3-.6,1.6-.9s1.3,2.3,1.5,2.6a11.75,11.75,0,0,1,1.5,6.1,15.1,15.1,0,0,1-1.1,4.3,5.78,5.78,0,0,1-.5,1.4c-1,1.8-.3,3.6,2.1,5.3,3.2-5-3.2-11.3-8.1-8.1-3.2,2-6.3,4.4-7.6,8-1.4,3.9.2,6.7,1,10.5.9,4.7.9,9.5,2,14.2,1.1,4.9,2.6,9.7,4,14.5,1.8,5.9,9.5,5.4,11.5,0a100.09,100.09,0,0,0,5.8-33c-3.9.5-7.8,1.1-11.7,1.6,2.1,5.4-4.3,12.1,1.9,16.6,6.5,4.6,10.8-3.9,13.8-8.2,4.2-6,8.3-12,12.2-18.2,3.4-5.5,7.1-15,14.8-15.2l-4.2-10.2a63,63,0,0,1-9.4,9.9,51.67,51.67,0,0,1-5.3,3.9c-.9.6-1.8,1.1-2.8,1.7-.5.3-.9.5-1.4.8-.8.5-.9.5-.3.1l3.6,2.7c.8,1.2-.6,1.3.7.1a24,24,0,0,0,1.8-2.6c1.6-1.9,3.6-3,5.4-4.5,1.4-1.2,2.6.2.3-2.2-1.9-2-1.2-1.3-2.8.1a15.1,15.1,0,0,1-2.6,1.8,4,4,0,0,1-1.5.6c-2.3.4-1.7,2,1.7,4.8,1.3-.5,2.9-3.5,4.2-4.5,1-.8,4.9-2,5.4-2.9-.5-.3-.9-.7-1.4-1-.1.4-.1.9-.2,1.3-.5,1-.6,2.3-1.1,3.4a12.85,12.85,0,0,1-4.1,4.9l8.1,2.1a9.29,9.29,0,0,1-.5-1c.2,1.5.4,3.1.6,4.6.7-2.5,7.1-6.4,9.2-7.8l-9-5.1a39.52,39.52,0,0,1-.5,8.4c-1.1,6.8,6.8,10.1,10.9,4.6a89.25,89.25,0,0,1,7.4-8.7c-3.3-1.9-6.6-3.9-9.9-5.8-1.3,3.2-2.9,4.4-5.6,6.3-2.5,1.7-4.3,3.6-5,6.7-1,4.5,4.3,10.1,8.7,6.7l8.1-6c5.5-4.1,2.2-12-4.6-10.9-8.2,1.3-15.8,9.6-21.5,15.2S94.9,182.2,95.9,191c.5,4.8,6.3,8.3,10.2,4.2,3.2-3.4,5.5-7.5,8.3-11.3a72.85,72.85,0,0,1,10.9-11.3l-9.3-7.2c-5.9,9.5-11.3,19.9-10.3,31.4.4,4.6,6.5,8.5,10.2,4.2A59,59,0,0,0,126,183.9a58.1,58.1,0,0,0,2.4-9.1c.3-1.9.4-4.9,2.3-5.8-2.9-2.2-5.8-4.5-8.7-6.7a6.07,6.07,0,0,1,.7-1l9.3,1.2c-5.7-8.6-16-5.1-20.9,2.2-5.9,8.8-10.6,19.1-14.4,29-4.1,10.5-6,21.3-7.9,32.3-1.7,9.2-3,24.6-13.7,27.8l7.3,7.3c3.3-10,6.2-20.2,8.6-30.5,2.1-9.3,4-18.7,1.1-28-1.6-5.3-10.3-6-11.5,0-2,10-3.6,20-4.9,30.1-.8,6.1,8.3,7.7,11.1,3,5.1-8.8,3.8-18.3,3.2-28.1-.2-2.9.5-4.9.9-7.6l.9-.9c-1-.4-2-.9-2.9-1.3-.3.2.5,3.7.6,4.2a57.29,57.29,0,0,1-1.3,17.5H99.7a26.92,26.92,0,0,1,.6-9.8A26.4,26.4,0,0,1,102,205c.3-.5.5-1,.8-1.4q2.4-2.85-2.1-.9L97.1,200c1.5,2.3,1.2,6.6,1.4,9.4.2,3.4.2,6.8.2,10.2a156.27,156.27,0,0,0,.9,20.5c.9,7.4,12.3,7.8,11.9,0a78.24,78.24,0,0,1,3.6-28c-3.8-1.1-7.7-2.1-11.5-3.2a84.74,84.74,0,0,0-2.2,18.8h11.9a130.11,130.11,0,0,1,1.6-25.7H103.4a50,50,0,0,1,.7,18.9c-1.2,7.4,9.3,10.7,11.5,3.2,2.3-7.8,4.5-15.6,6.8-23.4-3.9-.5-7.8-1.1-11.7-1.6-.6,4.9-1.2,9.7-1.9,14.6-.9,7,9.7,7.6,11.7,1.6a155.39,155.39,0,0,0,7.1-33c.7-6.6-10.4-8.2-11.7-1.6-3.1,16.2-10.9,31.7-9.1,48.5.6,5.2,8.3,8.9,11.1,3,4.3-9,2.4-18.8,5.9-27.9-3.9-.5-7.8-1.1-11.7-1.6-.3,14.3-2.1,30.1,2,44,1.8,6.1,12.4,5.3,11.7-1.6a220.27,220.27,0,0,1-1.2-24.4c-3.9.5-7.8,1.1-11.7,1.6a146.47,146.47,0,0,1,3,22.9c.3,7.6,12.3,7.7,11.9,0a150.45,150.45,0,0,0-3.4-26c-1.4-6.7-11.6-5-11.7,1.6a198.39,198.39,0,0,0,1.2,24.4c3.9-.5,7.8-1.1,11.7-1.6-2-6.7-1.9-13.5-1.9-20.4s.1-13.6.2-20.4c.2-7.1-9.4-7.5-11.7-1.6-3.1,8-1,17.3-4.7,25.1l11.1,3c-1.7-15.7,5.8-30.2,8.7-45.3-3.9-.5-7.8-1.1-11.7-1.6a138.26,138.26,0,0,1-6.7,29.8c3.9.5,7.8,1.1,11.7,1.6.6-4.9,1.2-9.7,1.9-14.6.9-6.8-9.9-7.8-11.7-1.6-2.3,7.8-4.5,15.6-6.8,23.4,3.8,1.1,7.7,2.1,11.5,3.2a62.92,62.92,0,0,0-.7-25.2c-1.3-5.5-10.5-5.9-11.5,0a146.39,146.39,0,0,0-2,28.8c.2,7.6,11.9,7.7,11.9,0a68.52,68.52,0,0,1,1.8-15.6c1.7-7.5-9.1-10.5-11.5-3.2a88.86,88.86,0,0,0-4.1,31.1h11.9c-1-8.7-.7-17.3-.9-26-.2-6.1.7-17.5-4.7-21.7-6.8-5.2-12.3,2.7-14.8,8.3-3.3,7.1-3.9,14.5-2.9,22.2.8,5.9,10.3,5.4,11.5,0,1.9-8.5,5.7-43.6-13-34.2-16.2,8.1-2.8,28.7-10,41.1l11.1,3c1.2-9,2.7-18,4.5-26.9H80.6c2.6,8.4,0,17.2-2,25.4-2.2,9-4.8,17.9-7.7,26.8-1.4,4.3,3.1,8.6,7.3,7.3,19.2-5.7,20.6-29,23.7-45.4a124.65,124.65,0,0,1,8.4-28.1c1.9-4.3,4.1-8.6,6.4-12.8,1.1-2.1,2.3-4.2,3.5-6.2a24.63,24.63,0,0,1,1.7-2.7c1.1-.6,1.1-1.1-.1-1.5a6,6,0,0,0,9.3,1.2,7.2,7.2,0,0,0,2.4-4.2,6,6,0,0,0-8.7-6.7c-5.7,2.7-6.9,8.7-8,14.3a43.62,43.62,0,0,1-9.1,19.6l10.2,4.2c-.9-9.5,3.8-17.5,8.6-25.4,3.7-6-4.4-11.4-9.3-7.2a94.39,94.39,0,0,0-10.8,11.1c-2.9,3.7-5.2,8-8.4,11.4l10.2,4.2c-.4-3.4,3.2-6.3,5.3-8.7s4.2-4.6,6.4-6.7c4-3.9,9.4-10.1,15-11-1.5-3.6-3.1-7.3-4.6-10.9l-8.1,6c2.9,2.2,5.8,4.5,8.7,6.7a9.67,9.67,0,0,0,2.1-1.2,20.54,20.54,0,0,0,3.8-3.4,33,33,0,0,0,4.7-8.4c2.4-5.6-6.1-9.9-9.9-5.8a125.52,125.52,0,0,0-9.3,11.2c3.6,1.5,7.3,3.1,10.9,4.6a64.78,64.78,0,0,0,.9-11.6c-.1-4.2-5.1-7.9-9-5.1-6.3,4.4-18.1,11.5-13.5,20.5,1.3,2.7,5.7,4,8.1,2.1,5.4-4,9.5-9.3,10.8-16.1,1.2-6.5-.6-14.4-8.5-14.9-9.4-.6-33.3,18.1-18.8,26,10.4,5.7,31.4-11.3,20.9-21.6-9.8-9.6-28.2,8.1-27.9,18.5a8.3,8.3,0,0,0,6.4,7.8c3.9.9,7.8-1.5,11-3.4A67.38,67.38,0,0,0,132,149.3c2.9-3.8,1.5-10.3-4.2-10.2-11,.2-17.4,8.4-22.7,17.2-2.8,4.7-5.8,9.3-8.8,13.8-1.5,2.3-3.1,4.5-4.7,6.8l-2.1,3c-1,1.5-3.6,3.5-.4,2.3l5.8,1.5c1.7,1.4.8,1.7,1.7-.1a12.9,12.9,0,0,0,.8-3.9,14.18,14.18,0,0,0-.7-6.8c-2.3-6-11.7-5.6-11.7,1.6a91.2,91.2,0,0,1-5.3,29.8H91.2c-2-6.6-4.1-13.2-5.1-20-.4-2.8-.3-5.7-.9-8.5A33,33,0,0,1,84,172a20.3,20.3,0,0,0,2.3-1.4l-8.1-8.1c-4.6,7.2,2.5,15.7,10.5,13.7,7.8-2,11.2-12.3,11.2-19.5,0-6.9-4.3-17.4-11.6-19.5-7.8-2.2-16,5-20,10.8-3.4,4.8,2.2,9.4,6.7,8.7,6.2-.9,14.3-3.9,17.6-9.6,4.1-7-2.5-12.7-9.4-11.4-5.9,1.1-13.3,5.7-14.4,12-1.4,7.9,7.3,9.8,13.2,8,5.3-1.6,11-7,8.9-13-2.8-7.9-12.5-4.3-16.3.6-3.7,4.7-5.2,14.6,2.7,16.1,6.4,1.2,13.1-5.9,10.2-12.2a7.28,7.28,0,0,0-8.7-3.9c-3.7,1.1-6,4.5-7.7,7.8-3.6,7-3.4,16,4.2,20.3,4.9,2.8,11.6-3,8.1-8.1a20.93,20.93,0,0,0-2.2-2.8l-1-1c-.9-1.1-1.4-.4-1.3,2.1l-7.2.9c3.9,2.8,8.8,4.8,13.5,2.5a9.55,9.55,0,0,0,5.2-11.2c-3.3,1.9-6.6,3.9-9.9,5.8,4,5,11.3,12,18.4,9.5,8.3-2.9,6.1-12.5.8-17-3.3-2.8-8.8-2-9.9,2.6-2.6,10.1-5.1,23.1-2,33.4,2.8,9.4,15.5,14,21.7,4.7a12,12,0,0,0,0-13c-2.6-4.2-8.3-5.6-11.9-1.8-7.2,7.5,1.3,19.2,9,21.7,6.2,1.9,9.3-9.6,2-11.9Z" transform="translate(-38.09 -105.48)"/><path class="cls-1" d="M103,235.2c-3.9-.2-5.6,3.2-7.9,5.9-.8,1-2.1,2.7-3.4,1.9-2.7-1.6-6.7-.7-8.1,2.1a49.8,49.8,0,0,1-6.3,9.4c-2.2,2.6-2.6,7.7,1.2,9.3,10.8,4.7,23.4,4.7,35,3,4.6-.7,11.3-1.2,14.7-4.6,4-4,1.5-9.5.2-14.1-1.2-4.3-2.5-10.2-8.2-10.3-5-.1-7.9,4.7-10.7,8.1a44.76,44.76,0,0,1-4.7,5c-.4.3-5.1,2.7-5,2a18.48,18.48,0,0,0,1.4,1.4,11,11,0,0,1,1-1.1c1-.6,1.8-1.9,2.8-2.6a34.57,34.57,0,0,1,3.1-2.2c.8-.5,3.2-1,2.1-1.4l-3.6-2.7c-1.1-2.3-.2-.6-1.3.9-.9,1.2-2.5,1.1-1.2,1.9l2.7,3.6c.4,1.6.3,0,1-1,1-1.5,2.1-1.3,0-2.1l-3.6-2.7c1.1-3.5.9-4.5-.6-2.9l9.3,1.2c-.1,1.4,0,1.4.5,0q1.2-1.5-.3-.3l-4.6-.6c-.6-1.1-1.3-2.3-1.9-3.4,1-1.7,2-3.4,2.9-5.1a2.18,2.18,0,0,0-.5.4c-6.2,4.4-.2,14.8,6,10.3,6.4-4.6,2.6-15.1-5.6-12.9-6.9,1.9-10.2,11.7-6.8,17.6,2.1,3.6,6.4,3.5,9.3,1.2,5.5-4.3,4.8-14.8-3.5-14.8-6.5-.1-13.8,9.6-13.7,15.7,0,9.3,10.9,8.7,16.4,4.7,4.8-3.5,9.2-11.4,5.9-17.2-6.8-12-34.1,8.9-27,21,3.8,6.5,12.8,6.1,18.6,2.9a30.88,30.88,0,0,0,7.4-6.1c1.3-1.4,2.4-2.9,3.6-4.3l1.8-2.1c1.1-1.2,1.2-1.4.3-.5l-5.8-1.5c-.4-1.4-.4-1.1.2.8l.9,3.3c.2.7.9,4.6,1.4,5q5.1-5.55.6-3.6c-.9.2-1.8.5-2.6.7-2.1.5-4.3.9-6.5,1.2-8,1-18.1,1.4-25.6-1.8l1.2,9.3a60.67,60.67,0,0,0,8.2-11.8l-8.1,2.1c12,7.2,30.5-11.1,19.8-22-4.5-4.6-12.8-3.2-15,3.1-2.9,8.2,5.9,12.5,12.5,12.7,7.8.2,7.7-11.7.1-12Z" transform="translate(-38.09 -105.48)"/><path class="cls-1" d="M85.2,198.5c-.3-1.9-.1-1.4-1.2-3a1.26,1.26,0,0,0-2.1,0,24.45,24.45,0,0,0-2.8,5.6l2.3.3c-.1-1.3-.2-2.7-.3-4-.1-1.1-1.7-1.8-2.2-.6a12,12,0,0,0-1.2,7c.1,1.5,2.5,1.5,2.4,0a24.65,24.65,0,0,0-1.1-5.4,1.17,1.17,0,0,0-2.3.3c-.1,4.8-.3,9.7-.4,14.5a1.2,1.2,0,0,0,2.4,0,72.19,72.19,0,0,0-1.4-18l-2.3.6a53.43,53.43,0,0,1,2,12.6c0,3.5-1,6.9-1.3,10.3-.8,7.2,1.5,14.8-1.9,21.6l2.2.6a71.11,71.11,0,0,1,1.6-13.7l-2.3-.3a65.34,65.34,0,0,1-5.7,28.2c.7.3,1.5.6,2.2.9,2.7-9.1,5-17.3,10.7-25.1,5.3-7.4,10.7-14.7,15.9-22.2a72.08,72.08,0,0,0,6.8-11.3c1.8-3.9,4.4-6.9,7.3-10.1,3-3.4,5.9-6.8,8.9-10.2,1.1-1.2,3.6-5.9,4.9-3.2.5,1-2,6.2-2.4,7.4a1.2,1.2,0,0,0,2.2.9,41.89,41.89,0,0,0,4.3-12.3,1.21,1.21,0,0,0-2.2-.9c-3.4,5.9-5,12.3-6.5,18.9a1.19,1.19,0,0,0,2.3.6c1.2-3.1,2.4-6.2,3.5-9.3l-2.3-.6a41.32,41.32,0,0,1-1.3,6.1,1.2,1.2,0,0,0,2.2.9,27.43,27.43,0,0,0,2.5-7.3,1.19,1.19,0,0,0-2.3-.6,108.63,108.63,0,0,0-3.1,12.5,1.2,1.2,0,0,0,2.2.9,9.42,9.42,0,0,0,2-7.2c-.1-1.2-2.1-1.8-2.3-.3-1.4,9.3-2.4,18.8-4.5,28-1.8,8-1.5,13.9,1.8,21.5.5,1.2,2.1.4,2.2-.6a54.11,54.11,0,0,0-.2-14.5l-2.3.6a15.16,15.16,0,0,1,1,6.3h2.4c-.4-4.3-.8-8.7-1.3-13l-2.3.3a46.38,46.38,0,0,1,.7,6.4,1.17,1.17,0,0,0,2.3.3c.9-4.2.4-8.4.4-12.7a145.34,145.34,0,0,1,1.4-14.8c.2-1.4-2-1.6-2.3-.3-1.2,4.5-.6,8.8-.9,13.3-.3,4.9-2.4,9.4-3.1,14.3-1.4,10.1,2.5,20,6.2,29.2.7-.4,1.3-.8,2-1.2a9.14,9.14,0,0,1-3-5.5c-.7.3-1.5.6-2.2.9a9.07,9.07,0,0,1,2,3.9c.5,1.4,2.7.9,2.3-.6-.4-1.3-.7-2.7-1.1-4-.7.3-1.5.6-2.2.9a4.82,4.82,0,0,0,1.5,2.2,1.19,1.19,0,0,0,2-.8c.2-1.5.1-1.5-.6-2.8s-2.5-.4-2.2.9c1.6,5.6,3.1,11.3,4.7,16.9a1.19,1.19,0,0,0,2.3-.6c-1.6-5.6-3.1-11.3-4.7-16.9-.7.3-1.5.6-2.2.9a7.77,7.77,0,0,1,.2,1.6c.7-.3,1.4-.6,2-.8a16.29,16.29,0,0,1-1.1-1.7c-.5-1.3-2.5-.3-2.2.9s.7,2.7,1.1,4l2.3-.6a14.22,14.22,0,0,0-2.3-4.4,1.21,1.21,0,0,0-2.2.9,11.4,11.4,0,0,0,3.6,6.6c.8.8,2.5,0,2-1.2-3.8-9.5-7.9-19.7-5.8-30.1.7-3.4,2.1-6.7,2.6-10.2.7-5.1-.4-10.2,1-15.3l-2.3-.3c-.6,4.3-1.1,8.6-1.3,13-.2,4.6.6,9.4-.4,13.9l2.3.3a56.89,56.89,0,0,0-.7-7.1c-.2-1.3-2.5-1-2.3.3.4,4.3.8,8.7,1.3,13a1.2,1.2,0,0,0,2.4,0,16.62,16.62,0,0,0-1.1-7,1.19,1.19,0,0,0-2.3.6,49.79,49.79,0,0,1,.1,13.9l2.2-.6c-1.7-4-3.2-8.1-2.9-12.6.3-4.2,1.7-8.4,2.4-12.5,1.3-7.5,2.3-15.1,3.4-22.7l-2.3-.3a8.64,8.64,0,0,1-1.7,6c.7.3,1.5.6,2.2.9a76.12,76.12,0,0,1,3.1-12.5l-2.3-.6a20.51,20.51,0,0,1-2.3,6.7c.7.3,1.5.6,2.2.9a41.32,41.32,0,0,0,1.3-6.1,1.19,1.19,0,0,0-2.3-.6c-1.2,3.1-2.4,6.2-3.5,9.3l2.3.6c1.4-6.4,2.9-12.6,6.2-18.3-.7-.3-1.5-.6-2.2-.9a41.36,41.36,0,0,1-4.1,11.8c.7.3,1.5.6,2.2.9.8-2.6,4.3-8.6,2.2-11.4-1.3-1.7-3-1-4.4,0-2.1,1.6-3.8,4.3-5.6,6.3l-6.4,7.3c-3.4,3.9-6.7,7.4-8.9,12.1C98,206.5,90.2,215.7,83.5,225c-3.1,4.3-6.7,8.5-8.9,13.4-2.4,5.3-3.7,11.3-5.4,16.9-.4,1.3,1.6,2.2,2.2.9a68,68,0,0,0,6-29.4c0-1.3-2.1-1.7-2.3-.3a76.51,76.51,0,0,0-1.7,14.3c0,1.1,1.7,1.7,2.2.6,3.4-6.8,1.6-13.8,2-21.1.3-4.4,1.6-8.6,1.5-13A56.53,56.53,0,0,0,77,195a1.19,1.19,0,0,0-2.3.6A72.63,72.63,0,0,1,76.1,213h2.4c.1-4.8.3-9.7.4-14.5l-2.3.3a15.21,15.21,0,0,1,1,4.8H80a8.47,8.47,0,0,1,.9-5.8l-2.2-.6c.1,1.3.2,2.7.3,4a1.17,1.17,0,0,0,2.3.3,23.76,23.76,0,0,1,2.6-5H81.8c.3.8.7,1.6,1,2.4a1.22,1.22,0,1,0,2.4-.4Z" transform="translate(-38.09 -105.48)"/><path class="cls-1" d="M124.3,187.6c-.4,0,.7-1.7.8-1.8.5-.5,1.1-.7,1.5-1.1.8-.7.9-2,1.2-3h-2.3a1.28,1.28,0,0,1,0,1.2c-.8,1.3,1.3,2.5,2.1,1.2a3.55,3.55,0,0,0,.3-3,1.2,1.2,0,0,0-2.3,0,5.34,5.34,0,0,1-.5,1.8c-.3.4-.9.6-1.3,1a5.67,5.67,0,0,0-1.6,2.2c-.7,1.8,0,3.9,2.2,3.9a1.2,1.2,0,0,0-.1-2.4Z" transform="translate(-38.09 -105.48)"/><path class="cls-1" d="M76,257.7c-.1,0-2.5-1-2.5-.8.2-1.3-1.6-1.4-2.2-.6-.8,1.1-1.7,2.3-2.5,3.4-.9,1.3,1.1,2.4,2.1,1.2a12,12,0,0,0,2-3.9c.4-1.5-1.7-2-2.3-.6-1,2.4-3.5,5.6-.9,7.6,2.8,2.1,8.4,2.1,11.7,2.3,1.5.1,1.5-2.2,0-2.4l-5.5-.6c-1.3-.2-1.6,2.1-.3,2.3a139.69,139.69,0,0,0,34.1,3v-2.4a53.06,53.06,0,0,1-8.9.4c.1.8.2,1.6.3,2.3,5.4-1.5,11.3-3.9,16.9-4.2a17.22,17.22,0,0,0,3.9-.4c2.2-.7,6.3-4.2,8.1-1.1a1.19,1.19,0,0,0,2.2-.6,5.46,5.46,0,0,0-1.7-4.4,1.21,1.21,0,0,0-2,1.2c1.7,5.7-5.7,5.3-9.6,5.7a66.09,66.09,0,0,0-9.8,1.4,1.18,1.18,0,0,0,.3,2.3,52.24,52.24,0,0,0,11.1-1.1c2.3-.5,7-1,8.5-3,1.5-1.8-.1-4.9-2.3-3.2-.5.4-.9,1.1-.4,1.6,1,1.4,2.9,2,3.8.3-.4.9.3,2.1,1.3,1.7.3-.1.7-.2,1-.3,1.5-.5.8-2.8-.6-2.3-.3.1-.7.2-1,.3.4.6.9,1.2,1.3,1.7a2,2,0,0,0-.2-2.4c-.9-.9-3.3.1-3.6-.3-.1.5-.3,1.1-.4,1.6-.7.6-3.5.7-4.6,1-1.5.4-2.9.8-4.4,1.1a50.78,50.78,0,0,1-9.5.8c.1.8.2,1.6.3,2.3,6.4-1.5,13.5-.7,19.6-3.3,3.5-1.5,2.4-3.3,1.4-6.7-.7.4-1.3.8-2,1.2.3.9.7,1.8,1,2.7l2.2-.6c-2-3.4-5.4-2.4-8.4-1.2-3.2,1.3-6.3,1.4-9.7,2.2-4.5,1-9,2.5-13.5,3.7a1.17,1.17,0,0,0,.3,2.3,53.06,53.06,0,0,0,8.9-.4c1.5-.2,1.6-2.4,0-2.4A139.28,139.28,0,0,1,76,263.2c-.1.8-.2,1.6-.3,2.3l5.5.6v-2.4a39.71,39.71,0,0,1-8.4-1.3c-1.6-.5-1.6-.2-1.8-1.5-.1-.9,1.4-3.4,1.6-4.2l-2.3-.6a6.54,6.54,0,0,1-1.7,3.3l2.1,1.2c.8-1.1,1.7-2.3,2.5-3.4l-2.2-.6c-.3,2.7,2.5,2.4,4.3,3.1,1.4.9,2.1-1.4.7-2Z" transform="translate(-38.09 -105.48)"/><path class="cls-1" d="M125,263.5a2.2,2.2,0,0,1,1.4.1c.2.1.4.3.6.3a.1.1,0,0,1,.1.1c.1-.2.1-.4.2-.6l.1-.1c.2-.1.4-.1.6-.2a1.85,1.85,0,0,1-.7-.2c-.3-.1-.5-.1-.8-.2a5.44,5.44,0,0,0-1.8,0c-1.2.2-1.1,2,0,2.3a3,3,0,0,0,2.6-.4,1.21,1.21,0,0,0-1.2-2.1.78.78,0,0,1-.8.1v2.3c1-.2,1.8.5,2.7.5a1.73,1.73,0,0,0,1.5-2.2c-.6-2-3.3-2.5-5.1-2.1a1.24,1.24,0,0,0,.6,2.4Z" transform="translate(-38.09 -105.48)"/><path class="cls-2" d="M75.4,127.5c7.7,0,7.7-11.9,0-11.9s-7.7,11.9,0,11.9Z" transform="translate(-38.09 -105.48)"/><path class="cls-1" d="M49.2,191.6a17.09,17.09,0,0,1-2.5,9.1c1.8.2,3.6.5,5.4.7-1.2-6.8,1.3-14.9,2.3-21.6s2-13.3,3-20c.6-3.7-4.7-5.4-5.7-1.6-.2.7-.4,1.4-.6,2.2,1.9.5,3.8,1.1,5.7,1.6.4-2.9.9-5.8,1.3-8.7.6-3.7-4.5-5.3-5.7-1.6l-1.5,4.5c1.9.5,3.8,1.1,5.7,1.6a78.47,78.47,0,0,0,3-13.4c.4-3-3.8-5.6-5.4-2.3a11.9,11.9,0,0,0-1.4,6.1c.1,2.4,3.3,4.1,5.1,2.1a37.28,37.28,0,0,0,8.2-14.8c-1.9-.5-3.8-1.1-5.7-1.6a7,7,0,0,1-4.5,5.8c1.5.9,3,1.7,4.5,2.6a40.41,40.41,0,0,0-1-5.9c-.8-3.8-6.5-2.2-5.7,1.6a17.57,17.57,0,0,1,.2,5.6c-.3,3.3,5.3,4.1,5.8.8a36.52,36.52,0,0,0,.3-9.9c-.3-3-5.3-4.4-5.8-.8-.1.7-.2,1.3-.3,2,1.9.3,3.9.5,5.8.8.3-6.3,1-17.7,7.8-20.7,3.1-1.3.8-6.7-2.3-5.4a24.43,24.43,0,0,0-2.4,1c1,1.7,1.9,3.3,2.9,5,2.1-2.2,4.2-4.2,7.7-3.1,1.4.4,3,1.7,4.3,2.3a38.83,38.83,0,0,0,10.1,2.8c7,1.1,14.8,1.7,21.8.6a42.28,42.28,0,0,0,10.9-3.6c.9-.4,3.8-2.4,4.8-2.4,3.1,0,.2,3.3-.6,4.9-1.9,3.7-4,7.4-6.1,11-.9,1.5-1.9,3.1-2.9,4.6-.1.2-4.8,7-1.7,6l-3.7-3.7a15.77,15.77,0,0,1-2.4,3.9c-.2.2-3.9,3.3-1,3.1-.9-.5-1.7-1-2.6-1.5.8,1.5-4,5.7-4.8,6.3,1.5.6,2.9,1.2,4.4,1.8.6-1,1.2-1.9,1.7-2.9l-3.8-2.9a11,11,0,0,0-.7,6.2,5.28,5.28,0,0,1,2-3.7c-1.6-1.2-3.1-2.4-4.7-3.6-.7,1-2-2-2.2-2.4a9.15,9.15,0,0,0-3.9-3.1c-3.9-1.8-8.3-1-12.5-1.8-2.3-.4-4.9,2-3.4,4.4a10.81,10.81,0,0,0,5.9,4.6c.3-1.9.5-3.9.8-5.8-4.3.4-8.5.9-12.8,1.3l3,3c0,1.8.8.6,1.4-.6a5.24,5.24,0,0,0,.2-3.5,5.3,5.3,0,0,0-5.5-3.2c-6.7.4-9.7,10.9-11.1,16.1,1.9.3,3.9.5,5.8.8a15.37,15.37,0,0,1,3.1-7.7c-1.8-.8-3.6-1.5-5.4-2.3a79.65,79.65,0,0,0-5.4,22h6a24.91,24.91,0,0,1,.1-6.1c.4-3.3-5.1-4-5.8-.8-.6,2.4-1.1,4.7-1.7,7.1,1.9.3,3.9.5,5.8.8a164.94,164.94,0,0,1,3.6-24.1c-1.9-.5-3.8-1.1-5.7-1.6a27.35,27.35,0,0,1-1.8,6.8h5.7c-.6-4.6,2-9.7,3.7-13.8,1.9-4.7,4.1-9.3,6.3-13.9a3,3,0,0,0-5.1-3c-3.3,4.9-6.5,9.9-9.8,14.8l5.1,3a54.47,54.47,0,0,1,11.4-16.7c2.3-2.3-.7-6.5-3.6-4.7-3.6,2.4-6.6,4.8-8.1,9-1.1,3.2,3.8,5.2,5.4,2.3,4.9-8.4,15.2-3.3,22.5-1.2.3-1.9.5-3.9.8-5.8-5.7.5-14.5.7-19,4.8a8.76,8.76,0,0,0-2.5,5.7c-.1,1.5.1,2.9.1,4.4a28.28,28.28,0,0,1-.3,4.1c.6-4-.1-4.5-2.1-1.4.9.5,1.7,1,2.6,1.5-.3-.6.8-2.9,1-3.4,1.5-3.5-4.3-5.1-5.7-1.6-1.1,2.6-2.4,7.2.7,9.1,3.6,2.1,6.9-1.8,8.5-4.5,4.3-7-3.7-11.2-8.4-5.2-3.5,4.4.6,15.9,6.9,11.8,3.3-2.1,2.8-8.6,2.8-11.9,0-.9-.4-2.5,0-3.3.8-1.5,2.8-1.8,4.2-2.2a60.8,60.8,0,0,1,11.2-1.8c3.2-.3,4.2-4.9.8-5.8-10.4-3-22.4-7.7-29.2,3.9,1.8.8,3.6,1.5,5.4,2.3.9-2.7,3.1-4,5.3-5.4-1.2-1.6-2.4-3.1-3.6-4.7a58.33,58.33,0,0,0-12.3,17.9c-1.5,3.5,3,6.3,5.1,3,3.3-4.9,6.5-9.9,9.8-14.8l-5.1-3c-2.7,5.6-5.4,11.3-7.6,17.1-2,5.1-3.7,9.8-3,15.3.4,3.3,4.8,2.4,5.7,0a31,31,0,0,0,1.8-6.8c.5-3.7-4.9-5.4-5.7-1.6a186,186,0,0,0-3.8,25.6c-.3,3.4,5.1,4,5.8.8.6-2.4,1.1-4.7,1.7-7.1-1.9-.3-3.9-.5-5.8-.8a24.91,24.91,0,0,0-.1,6.1,3,3,0,0,0,6,0,75.56,75.56,0,0,1,5.2-20.4c1.3-3.3-3.6-4.8-5.4-2.3a20.8,20.8,0,0,0-3.9,10.7c-.4,3.4,5,3.9,5.8.8,1.2-4.2,3.6-7.9,4.8-12,1.2-4.3-1.5,0-1.4,1.6a3,3,0,0,0,3,3c4.3-.4,8.5-.9,12.8-1.3a3,3,0,0,0,.8-5.8L81.7,137c-1.1,1.5-2.2,2.9-3.4,4.4,3.3.6,6.8.1,9.9.9,4,1,3,3.9,5.5,6.3,3.5,3.3,7.7.4,9.9-2.6,2-2.8-2.3-5.9-4.7-3.6-2.7,2.6-6.5,10-1.2,12.2,5.8,2.4,9.6-6.2,10-10.5.2-1.9-2-3.4-3.8-2.9A8.39,8.39,0,0,0,98,151.4a3,3,0,0,0,4.4,1.8c3.9-2.8,9.9-9.2,7-14.4a3.11,3.11,0,0,0-2.6-1.5c-4.8.3-9.1,7.7-3.8,10.6,5.5,3.1,11.3-6.1,13-10.1.9-2.1-1.7-4.3-3.7-3.7-9,3-1.8,16.2,4.4,8.7,4.9-5.9,8.6-13.2,12.2-20,2-3.8,5.8-9.3,2.9-13.5-3.2-4.8-9-1.3-12.8.5-7.7,3.7-14.6,4.2-23,3.8a48.26,48.26,0,0,1-20.8-5.7c-5-2.6-10.4,1.1-13.8,4.7-1.9,2,0,6.2,2.9,5a24.43,24.43,0,0,0,2.4-1c-.8-1.8-1.5-3.6-2.3-5.4-9.1,3.9-10.3,17.3-10.8,25.8-.2,3.3,5.3,4.1,5.8.8.1-.7.2-1.3.3-2-1.9-.3-3.9-.5-5.8-.8a33.79,33.79,0,0,1-.1,8.4c1.9.3,3.9.5,5.8.8a24.75,24.75,0,0,0-.5-7.2c-1.9.5-3.8,1.1-5.7,1.6.3,1.4.6,2.8.8,4.3a3.08,3.08,0,0,0,4.5,2.6,11.76,11.76,0,0,0,7.2-9.3c.6-3.7-4.7-5.4-5.7-1.6a30.27,30.27,0,0,1-6.6,12.2l5.1,2.1c.2-1,.4-2.1.6-3.1-1.8-.8-3.6-1.5-5.4-2.3a100,100,0,0,1-3,13.4c-1.1,3.7,4.6,5.2,5.7,1.6l1.5-4.5c-1.9-.5-3.8-1.1-5.7-1.6-.4,2.9-.9,5.8-1.3,8.7-.6,3.7,4.7,5.4,5.7,1.6.2-.7.4-1.4.6-2.2-1.9-.5-3.8-1.1-5.7-1.6-1.2,7.9-2.4,15.8-3.6,23.8-1,6.9-3,14.1-1.7,21,.5,2.6,4.2,2.8,5.4.7a23.42,23.42,0,0,0,3.3-12.1c.1-4.5-5.9-4.5-5.9-.7Z" transform="translate(-38.09 -105.48)"/><path class="cls-1" d="M53.9,169.2l.1.1c-.1-.2-.1-.1.1.2-.1-.3-.1-.3-.1-.1s.1.3.1.4l.3,1.5c.4,1.6,1.2,3.2,3,3.7,3.4.9,5.7-3.9,6.2-6.5a3.16,3.16,0,0,0-2.1-3.7,3.07,3.07,0,0,0-3.7,2.1,4.44,4.44,0,0,1-1.6,3c.4-.3.9-.5,1.3-.8a.35.35,0,0,0-.2.1h1.6c-.1,0-.1,0-.2-.1.4.3.9.5,1.3.8.1.1.3.6.2.3a1.85,1.85,0,0,0-.2-.7c-.1-.5-.2-.9-.3-1.4a6.83,6.83,0,0,0-1.8-3.2,3.09,3.09,0,0,0-4.2,0,3.21,3.21,0,0,0,.2,4.3Z" transform="translate(-38.09 -105.48)"/><path class="cls-1" d="M61.9,167.7c0,.1-.1.3-.1.4,1-.7,1.9-1.5,2.9-2.2h-.5c.9.5,1.7,1,2.6,1.5.2,1.1.3.6.2-1.4.1-1.2.1-2.5.2-3.7.1-2.8-4.4-4.3-5.5-1.5a12,12,0,0,1-1.8,3.1c1.8.2,3.6.5,5.4.7a7.47,7.47,0,0,1-.2-4.9c.7-3.7-4.9-5.3-5.7-1.6-.2,1.1-.5,2.2-.7,3.3a3,3,0,0,0,5,2.9c.4-.3.8-.7,1.2-1l-5.1-2.1a30,30,0,0,1-1.1,7.3c-.9,3.3,3.6,5.1,5.4,2.3.9-1.5,1.8-2.9,2.8-4.4l-5.5-1.5c-.1,1.4-.3,2.8-.4,4.2-.2,2.6,3.4,4,5.1,2.1l3.1-3.4c-1.7-1-3.3-1.9-5-2.9a126,126,0,0,1-11.3,21.9l5.5,1.5a52.62,52.62,0,0,1,1.9-9.6c1.1-3.7-4.4-5.1-5.7-1.6-1,2.5-1.9,5-2.9,7.5,1.9.5,3.8,1.1,5.7,1.6a40.9,40.9,0,0,1,3.1-10.7c-1.8-.8-3.6-1.5-5.4-2.3-.3,1.3-.7,2.5-1,3.8h5.7a6.1,6.1,0,0,1-.6-3.3c-1.9.3-3.9.5-5.8.8a9.8,9.8,0,0,1,.9,5.6c-.5,3.7,4.9,5.4,5.7,1.6a13.55,13.55,0,0,1,1.7-4.5l-5.5-1.5c-.1,3.1-1.7,12,4.3,11,5.1-.9,6.6-11.6,7.5-15.4-1.9-.3-3.9-.5-5.8-.8,0,.7-.1,1.4-.1,2.1-.1,2.8,4.3,4.2,5.5,1.5a10.59,10.59,0,0,0,1.1-4.4c.2-3.4-5-4-5.8-.8a201.23,201.23,0,0,1-11.2,31c-1.1,2.5,1.3,5.7,4.1,4.1.2-.1.3-.2.5-.3h-3c3.7,1.6,6.7,1.3,8.1-3.2,2.2-7.2,3.1-14.5,5.9-21.5-1.9-.5-3.8-1.1-5.7-1.6-2.1,6.5-5.2,13.3-5.3,20.2,0,2.9,4.1,4.1,5.5,1.5,1.8-3.4,3.4-7.5,2.5-11.4-.7-3.1-1.9-5.2-1.3-8.6a67.84,67.84,0,0,1,3-9.7,95.47,95.47,0,0,0,4.4-16.7c.9-5.9,1.9-11.8,4.9-17.1-1.8-.8-3.6-1.5-5.4-2.3a70.61,70.61,0,0,1-5,9.9l5.5,1.5a36.15,36.15,0,0,1,5.1-19.2c1.5-2.5-1.5-5.7-4.1-4.1-.6.4-1.2.8-1.7,1.1,1.5.6,2.9,1.2,4.4,1.8a9.86,9.86,0,0,1-.7-3.8c-.1-2.4-2.4-3.5-4.5-2.6a22.19,22.19,0,0,0-5.7,3.9l4.7.6c-1.3-2.3-2.9-3.3-5.5-2.8,1,1.7,1.9,3.3,2.9,5,1.6-1.8,5.7-5.5,7.4-2.5.9,1.6.8,7-1.2,8h3a2.15,2.15,0,0,0,2.8-.4,8.57,8.57,0,0,1-.5,4.2c-1.6,4.5.1,1.6,1.5.1,1.3-2,2.5-1.8,3.5.7-1.8,1.1-1.9.6-.5-1.5.8-1.5,2.7-4.4,4.4-4.7,3.8-.7,2.2,2.7,1,4.5a15.46,15.46,0,0,1-2.4,2.7c-1.9.7-2.3,1.3-1,1.8,1,.9,1.3.3.9-1.6a9.19,9.19,0,0,1,1.4-3.2,10.37,10.37,0,0,1,3-2.9c-1.4.7-2.3-.1-2.5-2.1a3,3,0,0,0-1.3-5c-1.1-.3-2.2-.6-3.4-.9.2,1.8.5,3.6.7,5.4,12.6-5.9,27-3.4,40.5-3.9-.3-1.9-.5-3.9-.8-5.8-6,1.5-12,3.1-18.2,2.5-2.6-.2-5.1-.8-7.7-.9-2.8-.1-5.9.9-8.6,0-.5,1.9-1.1,3.8-1.6,5.7,7.7,1.3,14.1,0,21.3-3.1,3.8-1.7,7.5-1.5,11.5-2.3a47.85,47.85,0,0,0,11.6-4.4c-1.2-1.6-2.4-3.1-3.6-4.7l-19.2,21.9c-2.6,3-5.2,6-7.9,8.8-1.5,1.5-3,3-4.6,4.4-.5.4-4.5,4-5.3,3.7l2.1,2.1c-1.1-2.7,4.9-8.7,6.4-10.1a69.28,69.28,0,0,1,9.3-6.8c-1.5-1.1-2.9-2.2-4.4-3.4-.7,3.5-5.7,7.2-8.1,9.7-2.6,2.7-5.2,5.2-7.9,7.8,1.6,1.2,3.1,2.4,4.7,3.6a75.34,75.34,0,0,1,14.2-21.4c2.6-2.8-1.6-7-4.2-4.2a51.45,51.45,0,0,1-11.3,9c1.5,1.1,2.9,2.2,4.4,3.4a12,12,0,0,1,5.1-8c-1.5-1.1-2.9-2.2-4.4-3.4a8.68,8.68,0,0,1-1.6,4c-.2.3-2.5,2.8-2.5,2.9.3,1.2,3.7-2.1,3.9-2.3a12.45,12.45,0,0,1,4.7-3.1c-1.1-1.5-2.2-2.9-3.4-4.4-.7.7-1.5,1.4-2.2,2.1.8,1.8,1.5,3.6,2.3,5.4,4.1-2.5,11.7-4.9,16.1-1.5-.5-1.1-.9-2.2-1.4-3.4a39.68,39.68,0,0,1-3.5,4.9c2.6-2.4,2.8-3.1.5-2,1.4,1,2.6.7,3.3-.9,1.2-.9,3.6-2.1,5.2-2,3.6.2,2.9,4.2,2.1,6.6-1.2,3.6,4.6,5.2,5.7,1.6,1.4-4.3,1-11-3.6-13.5-3.7-2-9.3.1-12.5,2.2-3,1.9-6.5,6.4-4.4,10.1,2.3,4.1,7.4,1.5,9.8-1.2s2.6-7.5-1-9.3c-4.1-2-8.9,2-10.4,5.6s-.6,8.6,4.1,8.9c4.5.2,9.4-5.4,10.4-9.4.4-1.4-.3-2.5-1.4-3.4-6-4.6-16.3-2-22.1,1.5-2.8,1.7-1,6.6,2.3,5.4a9.14,9.14,0,0,0,5.8-4.9c1.1-2.1-.8-5.4-3.4-4.4-4.6,1.8-15.3,9.6-9.9,15.6,5.2,5.9,12.1-5.4,12.8-9.8.3-2.3-2-5-4.4-3.4a18.1,18.1,0,0,0-7.8,11.6,3.05,3.05,0,0,0,4.4,3.4,52.4,52.4,0,0,0,12.5-10l-4.2-4.2a82.36,82.36,0,0,0-15.2,22.6c-1.3,3,2.1,6.1,4.7,3.6q5.4-5.1,10.5-10.5c2.7-2.8,6.3-5.7,7.1-9.6.5-2.4-2.1-4.9-4.4-3.4C97,134,90,138.8,86.6,146.5c-1.9,4.4-1.7,11.2,4.9,8.4,7.4-3.1,13.2-10.8,18.4-16.6,6.8-7.8,13.7-15.6,20.5-23.4a3,3,0,0,0-3.6-4.7c-3.8,1.8-7.6,3.5-11.8,4-2.6.3-5.1.3-7.7,1.1-7.1,2.3-12.4,5.4-20.3,4a3,3,0,0,0-1.6,5.7c2.9,1.1,5.5.3,8.5.2s6.2.7,9.4,1c6.7.6,13.3-1,19.8-2.7,3.2-.8,2.6-6-.8-5.8-14.8.5-29.7-1.8-43.5,4.7-2.4,1.1-1.6,4.8.7,5.4,1.1.3,2.2.6,3.4.9-.4-1.7-.9-3.3-1.3-5-7.3,6.6,2.8,17.6,10.1,10.6,2.6-2.5,3.6-7.2.4-9.7-3.7-2.9-8.6,1.1-10.9,3.9-2.4,3-4.8,8.5-2.9,12.3,2.3,4.8,7.1,2.2,10-.6,3.3-3.1,6.8-8.3,5.9-13-.9-4.9-5.5-6.4-9.8-4.6a17.89,17.89,0,0,0-9.5,9.8c-1.4,3.7-1.7,9.7,3.5,10.4,10.1,1.4,14.1-18.2,2.3-16.6-4.3.6-8,4.1-9.6,8-1.4,3.6-.3,9.3,4.7,8.7,8.2-.9,11-20.3.2-19-3.8.5-9,5.1-7.1,9.2,2.4,5.4,7.3,1.2,8.8-2.3,1.8-4.3,1.9-11.6-2.2-14.8-4.6-3.6-11.5.9-14.7,4.5a3,3,0,0,0,2.9,5c.3,0,.6-.1.8-.1-1-.3-1.9-.5-2.9-.8.3.3.6.7.9,1a3,3,0,0,0,4.7.6,15.4,15.4,0,0,1,4.5-3c-1.5-.9-3-1.7-4.5-2.6a24.38,24.38,0,0,0,.9,5.4,3,3,0,0,0,4.4,1.8c.6-.4,1.2-.8,1.7-1.1l-4.1-4.1a41.18,41.18,0,0,0-6,22.2,3,3,0,0,0,5.5,1.5A66,66,0,0,0,75.2,135c1.3-3.2-3.8-5.1-5.4-2.3-5.7,9.7-5,21.3-8.6,31.7-1.8,5.3-4.4,10.7-4.7,16.4-.2,2.5.4,4.3,1.1,6.7,1,3.3.4,5.6-1.2,8.6l5.5,1.5c.1-6.2,3.2-12.8,5.1-18.6,1.2-3.7-4.4-5.1-5.7-1.6a97.43,97.43,0,0,0-4.9,16.5c-.2.9-.9,2.7-.7,3.6-.5.9-.1,1.4,1.1,1.3-.2-.1-.5-.2-.7-.3-1.4-.1-2.1-.6-3.5.3l4.1,4.1a232.27,232.27,0,0,0,11.8-32.4c-1.9-.3-3.9-.5-5.8-.8-.1.4-.2.9-.3,1.3l5.5,1.5c0-.7.1-1.4.1-2.1.1-3.4-5-4-5.8-.8-.2.8-3.2,11-2.9,11,.9.5,1.7,1,2.6,1.5-.4-.7.2-5.1.2-6.5.1-2.9-4.1-4.1-5.5-1.5a20.74,20.74,0,0,0-2.3,6c1.9.5,3.8,1.1,5.7,1.6a16.48,16.48,0,0,0-.9-8.8c-1.2-2.9-5.9-2.8-5.8.8a15.58,15.58,0,0,0,.8,4.8c.9,2.7,5,3,5.7,0,.3-1.3.7-2.5,1-3.8.8-3.1-4-5.5-5.4-2.3a51.31,51.31,0,0,0-3.7,12.1,3,3,0,0,0,5.7,1.6c1-2.5,1.9-5,2.9-7.5-1.9-.5-3.8-1.1-5.7-1.6a59.85,59.85,0,0,0-2.1,11.2c-.3,3.1,4.1,3.8,5.5,1.5a131.21,131.21,0,0,0,11.9-23.3c1.1-2.8-3.1-5-5-2.9l-3.1,3.4,5.1,2.1c.1-1.4.3-2.8.4-4.2.3-3.1-4.1-3.8-5.5-1.5-.9,1.5-1.8,2.9-2.8,4.4,1.8.8,3.6,1.5,5.4,2.3a39.06,39.06,0,0,0,1.3-8.9c.1-2.8-3.2-3.7-5.1-2.1-.4.3-.8.7-1.2,1,1.7,1,3.3,1.9,5,2.9.2-1.1.5-2.2.7-3.3-1.9-.5-3.8-1.1-5.7-1.6a16.64,16.64,0,0,0,.2,8c.7,2.7,4,2.7,5.4.7a19.23,19.23,0,0,0,1.8-3.1l-5.5-1.5c-.1,2.6-.9,5.8.4,8.2a3.11,3.11,0,0,0,2.6,1.5h.5a3,3,0,0,0,2.9-2.2c0-.1.1-.3.1-.4.6-3.7-5.1-5.3-5.9-1.5Z" transform="translate(-38.09 -105.48)"/><path class="cls-1" d="M119,132a8.7,8.7,0,0,1-1.7,2.1c1.2-.2,2.4-.3,3.6-.5,0,0-.9-3.5-.8-3.5-1.1-3.7-6.5-2.2-5.7,1.6a68.77,68.77,0,0,1,1.3,7.7l5.5-1.5a31.77,31.77,0,0,1-2.3-7.4c-1.8.8-3.6,1.5-5.4,2.3a11.49,11.49,0,0,1,.9,6.6c1.5-.9,3-1.7,4.5-2.6a14.06,14.06,0,0,1-4.3-5.6l-5.1,3a56.87,56.87,0,0,0,5.2,8.5,3,3,0,0,0,5.5-1.5c.5-4.3.9-8.5,1.4-12.8l-5.5,1.5c2.8,4.7,4,10.6,5.7,15.8,1,3,6.1,2.7,5.8-.8-.2-4.1-.5-8.3-.7-12.4-1.9.3-3.9.5-5.8.8a31,31,0,0,1,2.4,12c1.9-.3,3.9-.5,5.8-.8-1.3-3.7-2.9-9.2-1.3-13-1,.7-1.9,1.5-2.9,2.2-.4,0,4.4,15,5.3,16.5,1.9,3.1,5.9.9,5.4-2.3-.6-3.9-1.2-7.7-1.7-11.6-1.9.5-3.8,1.1-5.7,1.6,1.6,4.2,3.2,8.4,4.7,12.5,1.3,3.5,6.8,2.2,5.7-1.6l-4.8-18c-.8-3-4.8-2.6-5.7,0-.5,1.3-.9,2.6-1.4,3.9,1.8-.2,3.6-.5,5.4-.7-2.9-6.7,1-10.8,2.6-16.9a9.25,9.25,0,0,0-2.1-9l-2.1,5.1c5.8.3,6.6,7.4,7.3,11.8.5,3.5,5.6,2.3,5.8-.8a16.26,16.26,0,0,0-.4-4.9c-1.9.5-3.8,1.1-5.7,1.6a72.12,72.12,0,0,1,2,15.3c.1,3.2,5.3,4.2,5.8.8a30.27,30.27,0,0,0,0-9.5c-.6-3.4-5.8-2.4-5.8.8l-.3,13.2c-.1,2.8,4.3,4.3,5.5,1.5,4.7-10.6-7.2-13.2-12.3-19.6-1.4-1.7-4.6-.8-5,1.3a8.14,8.14,0,0,0,.1,4.1c.5,2,3.5,3.1,5,1.3,3.2-4,2.4-8.5,4.5-13-1.8-.2-3.6-.5-5.4-.7,2.4,6.2.5,13,3.8,19,1.3,2.4,5.9,1.5,5.5-1.5a10.07,10.07,0,0,1-.1-3c.6-3.7-4.5-5.3-5.7-1.6a21.26,21.26,0,0,0,1.2,16.4c1.4,3,6.6.9,5.4-2.3-.7-1.9-1.5-3.9-2.2-5.8-1.3-3.5-6.6-2.2-5.7,1.6,1.5,6.6,2.9,13.2,4,19.8.5,3,5,2.6,5.7,0a33.66,33.66,0,0,0,.8-14.8c-1.9.5-3.8,1.1-5.7,1.6.4,1.9.9,3.8,1.3,5.8.8,3.4,5.6,2.4,5.8-.8.2-2.5.3-5.1.3-7.6-1.9.3-3.9.5-5.8.8a44,44,0,0,1,1,14c-.3,3.3,5.3,4.1,5.8.8a22.09,22.09,0,0,0,.2-6.8c-1.9.3-3.9.5-5.8.8.3,1.7.6,3.3.9,5,.6,3.3,6,2.6,5.8-.8a76.42,76.42,0,0,0-1.5-11.7c-.8-3.8-6.2-2.1-5.7,1.6.7,5.3-.2,10.8.1,16.2.3,4.7,1,9.4.4,14.1-.6,4.3-2.2,8.1-1.7,12.5s2.4,8.4.8,12.8c1.7-.4,3.3-.9,5-1.3-1.8-2.2-2-5.5-2.5-8.1-.6-3.1-1.3-6.2-1.9-9.3-1.3-5.9-2.8-11.7-4.4-17.6-1.9.5-3.8,1.1-5.7,1.6a29.26,29.26,0,0,0,5.7,9c2,2.1,6-.1,5-2.9a24.64,24.64,0,0,1-1.3-11.1c-1.9.3-3.9.5-5.8.8,1.7,5.4,3.3,10.9,4.7,16.4,1.9-.5,3.8-1.1,5.7-1.6-2.1-5.5-3.7-10.9-3.1-16.8-1.9.3-3.9.5-5.8.8a62.51,62.51,0,0,1,2.3,14.9h6c-.4-4.7-.8-9.3-1.2-14-.3-3.8-6-3.9-6,0l.3,17.4c1.5-.9,3-1.7,4.5-2.6-3.7-2.3-2.7-9-6.6-12-2.9-2.3-7,1.4-4.2,4.2,2.6,2.6,2.9,6,3.8,9.3.6,2.3,3.4,6.2,3.3,8.4.5-.9,1-1.7,1.5-2.6l-.6.3h3c-.9-.4-1.9-2.9-2.4-3.7-1.7-3-6.2-.9-5.4,2.3a3.55,3.55,0,0,1,.2,1c1.9-.5,3.8-1.1,5.7-1.6-.6-2.7-1.3-5.4-1.9-8.2-.9-3.7-6.6-2.1-5.7,1.6.6,2.7,1.3,5.4,1.9,8.2.9,3.7,6.6,2.1,5.7-1.6a3.55,3.55,0,0,1-.2-1c-1.8.8-3.6,1.5-5.4,2.3,1.8,3.2,3.8,7.8,8.1,5.6a3.36,3.36,0,0,0,1.5-2.6c.1-3.9-3-7.7-3.9-11.4-1-4-2-7.6-5-10.6l-4.2,4.2c4.2,3.3,2.7,9.8,7.8,12.9a3,3,0,0,0,4.5-2.6l-.3-17.4h-6c.4,4.7.8,9.3,1.2,14,.3,3.8,6.1,3.9,6,0a70.83,70.83,0,0,0-2.5-16.5c-1-3.4-5.5-2.4-5.8.8-.7,6.4,1,12.4,3.3,18.4,1.3,3.5,6.7,2.2,5.7-1.6-1.4-5.5-3-11-4.7-16.4-1.1-3.4-5.5-2.4-5.8.8a27.5,27.5,0,0,0,1.5,12.7c1.7-1,3.3-1.9,5-2.9a20.14,20.14,0,0,1-4.1-6.3c-1.4-3.4-6.8-2.2-5.7,1.6,1.9,7.1,3.7,14.2,5.2,21.3,1.2,5.6,1.4,11.8,5.2,16.3,1.6,1.9,4.3.6,5-1.3,1.4-3.8.8-7.4,0-11.2a19.58,19.58,0,0,1-.3-9,55.71,55.71,0,0,0,1.4-7.1c.5-5.2-.4-10.3-.6-15.4-.2-5.4.5-10.6-.2-15.9-1.9.5-3.8,1.1-5.7,1.6a69.79,69.79,0,0,1,1.3,10.1c1.9-.3,3.9-.5,5.8-.8-.3-1.7-.6-3.3-.9-5-.6-3.3-6.2-2.6-5.8.8a18.12,18.12,0,0,1,0,5.2c1.9.3,3.9.5,5.8.8a48.3,48.3,0,0,0-1.3-15.6c-.8-3.3-5.8-2.5-5.8.8,0,2.5-.1,5.1-.3,7.6,1.9-.3,3.9-.5,5.8-.8-.4-1.9-.9-3.8-1.3-5.8-.9-3.8-6.3-2.1-5.7,1.6a26.68,26.68,0,0,1-.8,11.6H144c-1.1-6.6-2.5-13.2-4-19.8-1.9.5-3.8,1.1-5.7,1.6.7,1.9,1.5,3.9,2.2,5.8,1.8-.8,3.6-1.5,5.4-2.3a15.56,15.56,0,0,1-.6-11.8c-1.9-.5-3.8-1.1-5.7-1.6a17.76,17.76,0,0,0-.2,4.6l5.5-1.5c-2.9-5.3-1-11.9-3.2-17.6-.8-2.1-4.3-3.3-5.4-.7-1.6,3.6-1.1,8.7-3.5,11.8,1.7.4,3.3.9,5,1.3,0-.3-.1-.6-.1-1-1.7.4-3.3.9-5,1.3,2.5,3.1,13.4,7.9,11.4,12.4l5.5,1.5.3-13.2c-1.9.3-3.9.5-5.8.8a17.22,17.22,0,0,1,0,6.4c1.9.3,3.9.5,5.8.8a87.93,87.93,0,0,0-2.2-16.9c-.9-3.7-6.6-2.1-5.7,1.6a7.39,7.39,0,0,1,.2,3.3c1.9-.3,3.9-.5,5.8-.8-1.2-7.7-4.2-15.7-13-16.2-2.7-.2-3.7,3.3-2.1,5.1,2.4,2.7-2.7,10.1-3.2,13.3a20.28,20.28,0,0,0,1.8,11.4c1.1,2.6,4.7,1.4,5.4-.7.5-1.3.9-2.6,1.4-3.9h-5.7l4.8,18c1.9-.5,3.8-1.1,5.7-1.6-1.6-4.2-3.2-8.4-4.7-12.5a3,3,0,0,0-5.7,1.6c.6,3.9,1.2,7.7,1.7,11.6,1.8-.8,3.6-1.5,5.4-2.3-2.9-4.8-3.1-19.3-10.4-19.5a3.23,3.23,0,0,0-2.9,2.2c-1.9,4.7-.3,11.6,1.3,16.2,1.1,3.1,5.8,2.7,5.8-.8a35.37,35.37,0,0,0-2.6-13.6c-1.1-2.8-6.1-2.9-5.8.8.2,4.1.5,8.3.7,12.4,1.9-.3,3.9-.5,5.8-.8-1.9-5.7-3.3-12-6.3-17.2-1.6-2.7-5.2-1.3-5.5,1.5-.5,4.3-.9,8.5-1.4,12.8l5.5-1.5a56.87,56.87,0,0,1-5.2-8.5c-1.7-3.4-6.8-.4-5.1,3a19.94,19.94,0,0,0,6.4,7.7c2,1.5,4.3-.6,4.5-2.6a17.71,17.71,0,0,0-1.7-9.6c-1.5-3.2-6.1-.8-5.4,2.3a53.34,53.34,0,0,0,2.9,8.8c1.2,2.7,5.9,1.4,5.5-1.5q-.6-4.65-1.5-9.3c-1.9.5-3.8,1.1-5.7,1.6.7,2.4,1,5.8,3.6,7a3,3,0,0,0,3.6-.5,16.44,16.44,0,0,0,2.6-3.3c1.9-3.1-3.3-6-5.5-2.9Z" transform="translate(-38.09 -105.48)"/><path class="cls-1" d="M150.1,209.7c-.8-1.7-1.6-3.4-2.5-5.2-1.2-2.6-5.8-1.4-5.5,1.5a23.76,23.76,0,0,0,.6,3.7c1.8-.8,3.6-1.5,5.4-2.3a36.86,36.86,0,0,0-3.3-6.2,3,3,0,0,0-5.4,2.3q1.35,5.4,3,10.5c1.8-.8,3.6-1.5,5.4-2.3-.5-1.1-1-2.3-1.4-3.4-1.4-3.2-6.2-.9-5.4,2.3l.3,1.2c.8,3.3,5.9,2.6,5.8-.8,0-2.5-.1-5-.1-7.5l-5.5,1.5c1.2,2.8,2.4,5.5,3.6,8.3,1.4,3.3,6.1.8,5.4-2.3a42.05,42.05,0,0,1-.8-8.7c-1.9.3-3.9.5-5.8.8,1.6,3.8,2.7,9.3,6.6,11.4a3,3,0,0,0,4.5-2.6c.3-4.1-1.1-8.3-1.4-12.4-.4-4.8-.7-9.5-1.3-14.2-1.2-9.2-3-18.4-3.5-27.6-.2-3.2-5.2-4.3-5.8-.8-1.3,6.7-.7,13.2-.4,20,.3,7.2.1,14.3-.3,21.5,1.9-.3,3.9-.5,5.8-.8a86.35,86.35,0,0,1-1-13.4c-1.9.3-3.9.5-5.8.8.9,5,1.2,10.5,3.3,15.2,1.2,2.6,5.9,1.4,5.5-1.5-.3-2.4-.6-4.7-.8-7.1l-5.5,1.5c.6,1.4,1.8,2.4,2.1,4s-.3,3.7-.3,5.4c0,4.7.3,9.4.5,14.2,1.9-.3,3.9-.5,5.8-.8-.7-2.2-1.5-4.4-2.2-6.6-1-3-6.1-2.7-5.8.8.2,2.5.3,5.1.5,7.6,1.9-.3,3.9-.5,5.8-.8-.8-2.2-1.8-4.3-2.8-6.5-1.3-2.6-5.8-1.4-5.5,1.5.2,1.8.4,3.5.7,5.3,1.9-.5,3.8-1.1,5.7-1.6-.6-1.5-1.2-2.9-1.8-4.4-1.1-2.8-6.3-2.8-5.8.8a17.94,17.94,0,0,0,1.3,6c.7,1.7,2.6,3.5,2.8,5.3l5.5-1.5a5.55,5.55,0,0,0-.6-.8c-1.6-2.4-5.5-1.6-5.5,1.5v2.4c1.9-.3,3.9-.5,5.8-.8-.4-1-.8-2-1.2-3.1-1.2-2.9-6-2.9-5.8.8a34.08,34.08,0,0,0,.5,4.6c1.9-.5,3.8-1.1,5.7-1.6l-.6-2.7c-1.9.3-3.9.5-5.8.8.1.9.3,1.9.4,2.8.5,3.8,6.3,2.2,5.7-1.6-.3-2.2-.6-4.3-.9-6.5-1.9.5-3.8,1.1-5.7,1.6a26.5,26.5,0,0,0,4.8,8.7c2.2,2.5,5.4-.3,5-2.9a31.37,31.37,0,0,1,0-8.1c-1.9.3-3.9.5-5.8.8l3,8.7a3,3,0,0,0,5.7-1.6,33.58,33.58,0,0,1-.8-7.7c-1.9.3-3.9.5-5.8.8a73,73,0,0,1,2.6,7.9c1.9-.5,3.8-1.1,5.7-1.6a31.29,31.29,0,0,1-1.2-11.8c-1.9.3-3.9.5-5.8.8.5,2.6.9,5.3,1.3,7.9.1,1.2.3,2.3.4,3.5-.3,2,.1,2.3,1.1.8-2-3.3-7.1-.3-5.1,3,1.9,3.1,7.2,4.3,9.5.8,1.2-1.8.5-4.4.3-6.4-.4-3.8-1-7.5-1.7-11.3-.7-3.5-5.6-2.3-5.8.8a35.89,35.89,0,0,0,1.4,13.4c1.1,3.7,6.7,2.1,5.7-1.6a73,73,0,0,0-2.6-7.9c-1.2-3-5.8-2.8-5.8.8a41.4,41.4,0,0,0,1,9.3c1.9-.5,3.8-1.1,5.7-1.6l-3-8.7c-1.1-3.4-5.4-2.5-5.8.8a35,35,0,0,0,.2,9.7c1.7-1,3.3-1.9,5-2.9a20.76,20.76,0,0,1-3.3-6,3,3,0,0,0-5.7,1.6c.3,2.2.6,4.3.9,6.5,1.9-.5,3.8-1.1,5.7-1.6-.1-.9-.3-1.9-.4-2.8-.5-3.3-6.2-2.5-5.8.8a19.5,19.5,0,0,0,.8,4.2c1.3,3.7,6.3,2.1,5.7-1.6-.1-1-.2-2-.2-3-1.9.3-3.9.5-5.8.8.4,1,.8,2,1.2,3.1,1.2,2.9,5.8,2.8,5.8-.8v-2.4l-5.5,1.5a5.55,5.55,0,0,0,.6.8c1.5,2.2,5.9,1.7,5.5-1.5-.4-4.2-3.6-7-4.1-11.3-1.9.3-3.9.5-5.8.8.6,1.5,1.2,2.9,1.8,4.4a3,3,0,0,0,5.7-1.6,15,15,0,0,1-.5-3.7l-5.5,1.5c.8,1.7,1.5,3.3,2.2,5,1.1,2.9,6.1,2.8,5.8-.8-.2-2.5-.3-5.1-.5-7.6-1.9.3-3.9.5-5.8.8.7,2.2,1.5,4.4,2.2,6.6,1,3.1,6,2.7,5.8-.8-.2-5.4-.7-11-.5-16.4.1-1.7.6-3.5.2-5.2-.5-1.9-2.1-3.2-2.8-4.9-1.1-2.7-5.9-1.4-5.5,1.5.3,2.4.6,4.7.8,7.1l5.5-1.5c-1.8-4-2-9.5-2.7-13.8-.6-3.4-5.9-2.5-5.8.8a95,95,0,0,0,1.3,15c.5,3.5,5.6,2.4,5.8-.8.4-6.5.6-13.1.4-19.6-.2-6.7-1.2-13.6.2-20.3-1.9-.3-3.9-.5-5.8-.8.5,9.1,2.3,18.1,3.4,27.1.6,4.6.9,9.2,1.3,13.8.3,4.3,1.7,9,1.5,13.3,1.5-.9,3-1.7,4.5-2.6-1.9-1-3-5.8-3.8-7.8-1.2-2.9-5.8-2.8-5.8.8a51.36,51.36,0,0,0,1,10.3c1.8-.8,3.6-1.5,5.4-2.3-1.2-2.8-2.4-5.5-3.6-8.3s-5.6-1.3-5.5,1.5c0,2.5.1,5,.1,7.5,1.9-.3,3.9-.5,5.8-.8l-.3-1.2c-1.8.8-3.6,1.5-5.4,2.3.5,1.1,1,2.3,1.4,3.4,1.3,3.1,6.5.9,5.4-2.3a103.42,103.42,0,0,1-3-10.5c-1.8.8-3.6,1.5-5.4,2.3a45.9,45.9,0,0,1,3.3,6.2c1.4,3.1,6.3.9,5.4-2.3-.1-.7-.3-1.4-.4-2.1l-5.5,1.5c.8,1.7,1.6,3.4,2.5,5.2.9,3.6,6.1.6,4.4-2.9Z" transform="translate(-38.09 -105.48)"/><path class="cls-1" d="M56.1,214.1c-.6-1.7-1.2-3.5-1.8-5.2-1-2.9-4.6-2.7-5.7,0a28.28,28.28,0,0,0-1.4,4.1h5.7a10.43,10.43,0,0,1-.9-4.9c.1-3.3-5.4-4.2-5.8-.8a22.54,22.54,0,0,1-.6,3.6c1.9.3,3.9.5,5.8.8-.4-3.5-.7-6.7.7-10-1.9-.3-3.9-.5-5.8-.8.5,4.3-.1,11.8,3.4,15,1.6,1.4,4.5,1,5-1.3.6-2.9,1.2-5.8,1.9-8.7-1.9-.3-3.9-.5-5.8-.8,0,2.8.1,5.7.1,8.5,0,3.9,5.5,3.7,6,0,.3-2.5.6-4.9.9-7.4h-6v7.1c0,3.5,4.8,3.9,5.8.8a101.71,101.71,0,0,0,3.8-14.4c.7-3.7-4.9-5.4-5.7-1.6-.6,3-1.3,6-1.9,9-.8,3.7,4.7,5.3,5.7,1.6.6-2.3,1.2-4.5,1.8-6.8-1.9-.3-3.9-.5-5.8-.8l-.3,2.7c-.3,3.3,5.4,4.1,5.8.8a31.55,31.55,0,0,1,1.3-5.3c1.1-3.3-3.7-5.1-5.4-2.3-3.5,5.7-4.6,12.1-5.4,18.7-.5,3.6,4.7,3.6,5.8.8a54,54,0,0,0,1.8-5.7c-1.9-.3-3.9-.5-5.8-.8a17,17,0,0,1-.2,3.9c-.3,3.3,5.2,4.1,5.8.8.3-1.7.7-3.3,1-5a3,3,0,0,0-5.7-1.6,62.43,62.43,0,0,0-3.1,16.6c-.2,3.3,5.4,4.1,5.8.8.3-2,.6-4.1.8-6.1-1.9-.3-3.9-.5-5.8-.8a64.65,64.65,0,0,0-.5,7.6c-.1,3.8,5.8,3.8,6,0a92.82,92.82,0,0,1,1.1-10.6c-1.9-.3-3.9-.5-5.8-.8a43.74,43.74,0,0,1-.9,5c1.9.3,3.9.5,5.8.8a28.82,28.82,0,0,1,1.3-6.5c.9-2.8-3-5-5-2.9-3.2,3.4-3.8,7.9-6.3,11.7,1.8.2,3.6.5,5.4.7a17.7,17.7,0,0,1,0-4.6c.5-3.1-3.6-5.4-5.4-2.3a24.77,24.77,0,0,0-1.7,3.7h5.7a22.66,22.66,0,0,1-.2-5.2c.1-3.3-5.2-4.1-5.8-.8a12.86,12.86,0,0,1-.4,1.9c1.9.3,3.9.5,5.8.8.2-1.5.3-3.1.5-4.6h-6a82.34,82.34,0,0,1-2.3,13c1.9.3,3.9.5,5.8.8a56.35,56.35,0,0,1,3.1-13.5c-1.9-.3-3.9-.5-5.8-.8-.3,4.3-.6,8.6-1,12.8-.2,2.2,2.7,3.8,4.5,2.6.3-.2.5-.3.8-.5-1.5-.6-2.9-1.2-4.4-1.8a8.8,8.8,0,0,1,.5,1.5c1.3,3.6,7,2,5.7-1.6a8.8,8.8,0,0,1-.5-1.5c-.6-1.7-2.7-2.9-4.4-1.8-.3.2-.5.3-.8.5,1.5.9,3,1.7,4.5,2.6.3-4.3.6-8.6,1-12.8.3-3.5-4.8-3.8-5.8-.8a64.64,64.64,0,0,0-3.3,15.1c-.3,3.4,5,4,5.8.8a79.6,79.6,0,0,0,2.5-14.6c.3-3.8-5.6-3.8-6,0-.2,1.5-.3,3.1-.5,4.6-.4,3.3,5.2,4.1,5.8.8a12.86,12.86,0,0,1,.4-1.9c-1.9-.3-3.9-.5-5.8-.8a37.13,37.13,0,0,0,.4,6.7c.5,3.2,4.9,2.5,5.7,0,.4-.8.7-1.5,1.1-2.3-1.8-.8-3.6-1.5-5.4-2.3a24.85,24.85,0,0,0,0,7.7c.4,2.7,4.2,2.6,5.4.7,2.2-3.3,2.7-7.5,5.4-10.4-1.7-1-3.3-1.9-5-2.9a32.22,32.22,0,0,0-1.5,8c-.2,3.4,5,4,5.8.8a49,49,0,0,0,1.1-6.5c.3-3.3-5.3-4.1-5.8-.8a101,101,0,0,0-1.3,12.2h6c.1-2.6.2-5.1.5-7.6.4-3.3-5.4-4.1-5.8-.8-.3,2-.6,4.1-.8,6.1,1.9.3,3.9.5,5.8.8a54.62,54.62,0,0,1,2.9-15c-1.9-.5-3.8-1.1-5.7-1.6-.3,1.7-.7,3.3-1,5,1.9.3,3.9.5,5.8.8a17,17,0,0,0,.2-3.9c0-3.3-5.1-4.1-5.8-.8a29,29,0,0,1-1.8,5.7c1.9.3,3.9.5,5.8.8.7-5.5,1.6-10.9,4.6-15.7-1.8-.8-3.6-1.5-5.4-2.3a31.55,31.55,0,0,0-1.3,5.3c1.9.3,3.9.5,5.8.8l.3-2.7c.3-3.4-5-4-5.8-.8-.6,2.3-1.2,4.5-1.8,6.8,1.9.5,3.8,1.1,5.7,1.6.6-3,1.3-6,1.9-9-1.9-.5-3.8-1.1-5.7-1.6a89.82,89.82,0,0,1-3.8,14.4c1.9.3,3.9.5,5.8.8v-7.1c0-3.9-5.5-3.7-6,0-.3,2.5-.6,4.9-.9,7.4h6c0-2.8-.1-5.7-.1-8.5,0-3.3-5.1-4.2-5.8-.8-.6,2.9-1.2,5.8-1.9,8.7,1.7-.4,3.3-.9,5-1.3-1.5-1.4-1.4-8.8-1.7-10.8a3,3,0,0,0-5.8-.8c-1.6,3.8-1.4,7.6-.9,11.6.4,3,5.1,4.4,5.8.8a22.54,22.54,0,0,0,.6-3.6c-1.9-.3-3.9-.5-5.8-.8a16.29,16.29,0,0,0,1.2,6.5c1,2.5,5,3.1,5.7,0a33.09,33.09,0,0,1,1.4-4.1H48.7c.6,1.7,1.2,3.5,1.8,5.2,1.1,3.6,6.9,2.1,5.6-1.5Z" transform="translate(-38.09 -105.48)"/><path class="cls-1" d="M40.1,269.1a4.83,4.83,0,0,1-.8,3.5c-1.9,3.3,3.2,6.3,5.1,3-.4.9-.1,1.3,1.1,1v-5.7a4.33,4.33,0,0,0-.5.1c-.3,1.9-.5,3.9-.8,5.8l4.8.3c1.7.1,2.8-1.5,3-3,.5-4.4-.1-8.8.6-13.2.5-3.4,1.2-6.7,1.6-10.2.9-7.7,2.1-15.4,2.9-23.1.2-2.1-2.1-3.1-3.8-2.9a17.1,17.1,0,0,0-4.1,2c-1.9,0-2.9-1.8-5-.2-3.9,2.9-2.2,11.3-1.1,15.1.7,2.4,4.2,3,5.4.7a19.43,19.43,0,0,0,2.5-8.8c.3-3.9-5.5-3.7-6,0-.9,6.4-1.7,12.9-2.6,19.3-.8,6-1,12.4-3.3,18.1,1.9.3,3.9.5,5.8.8.7-10.7,1.7-21.4,2.9-32.1.3-3-4.2-3.9-5.5-1.5-2,3.5-2.1,7.1-1.3,11a141.3,141.3,0,0,1,3.1,16c.3,2.7,4.1,4.4,5.5,1.5a16.79,16.79,0,0,0,1.9-7.2c.2-3.9-5.5-3.7-6,0a56.29,56.29,0,0,1-2.1,9.9c-1.1,3.7,4.6,5.2,5.7,1.6a56.23,56.23,0,0,0,2.3-11.4h-6a7,7,0,0,1-1.1,4.2l5.5,1.5a95,95,0,0,0-1.5-10.7c-1-4.3-3.5-9-1.1-13.3l-5.5-1.5c-1.2,10.7-2.2,21.4-2.9,32.1-.2,3.6,4.7,3.7,5.8.8,2.2-5.6,2.5-11.9,3.3-17.8.9-7.1,1.9-14.2,2.8-21.3h-6a13,13,0,0,1-1.7,5.8c1.8.2,3.6.5,5.4.7-.8-2.7-1.8-7-.3-9.7-.9.5-1.7,1-2.6,1.5,1.2-.1,2.4,1.2,3.9,1,1.9-.3,3.1-2.1,4.9-2.4l-3.8-2.9c-.8,7.7-1.9,15.4-2.9,23.1-.5,3.6-1.3,7.2-1.7,10.9-.5,4.2,0,8.3-.5,12.5l3-3-4.8-.3c-3.3-.2-4.1,5.3-.8,5.8a7.73,7.73,0,0,0,3.7-.1c2.6-.7,3-5.3,0-5.7s-5.9-1.5-7.8,1.7l5.1,3a11.45,11.45,0,0,0,1.6-6.5c.5-3.6-5.4-3.6-5.3.2Z" transform="translate(-38.09 -105.48)"/><path class="cls-1" d="M145.7,228.2c0,.1,0,.2-.1.2,1.7-.4,3.3-.9,5-1.3.4.1.4-.3-.2-1.1-1.9.5-3.8,1.1-5.7,1.6.1.4.1.8.2,1.2,1.8-.2,3.6-.5,5.4-.7-.3-.9-.6-1.7-.9-2.6a3,3,0,0,0-5.8.8c-.1,5.9,1.5,12,2.5,17.8.6,3.6,5.5,2.2,5.8-.8l1.5-13.2c-1.9.3-3.9.5-5.8.8.7,4.2,1.4,8.3,2.2,12.5.6,3.4,5.8,2.5,5.8-.8.1-4.1.2-8.1.3-12.2-1.9.3-3.9.5-5.8.8.6,3.2,1.1,6.4,1.7,9.6s6,2.5,5.8-.8a81.75,81.75,0,0,1,0-9.9h-6c.1,2.6.2,5.1.3,7.7.1,1.2.7,4.6.2,5.7-.3.8-1.4,1.6-1.9,2.4a9.25,9.25,0,0,0-1,3.6c-.3,3.9.6,8,.7,11.9a102.4,102.4,0,0,1-.7,13.6l5.5-1.5c-1.6-2.3-1-7.5-1.2-10.2-.2-3.6-.5-7.1-.8-10.7-.5-5.4-1.1-10.6-3.4-15.6l-5.1,3c1.9,2.7,1.3,7.2,1.7,10.4.3,2.7.5,5.8,1.6,8.3a5.36,5.36,0,0,0,2.8,3.1c2,.9,2.9-.4,4.8-.3,1.7.1,2.8-1.5,3-3,.3-3.4.7-6.9,1-10.3h-6a24.1,24.1,0,0,0,.1,6c.4,3.8,5.8,3.9,6,0a100.7,100.7,0,0,0-1.4-19c-1.9.5-3.8,1.1-5.7,1.6,1.2,3.4.4,7.5.2,11-.3,3.7-.7,7.3-.7,11a65.92,65.92,0,0,0,.7,9.9c.2,2.1-.5,4.9,1.1,6.6,2.3,2.5,6.8,1.3,7.8-1.8.8-2.6-.1-6.1-.3-8.7-.4-4-.7-8-1.1-12-.3-3.8-6.3-3.8-6,0,.5,4.9.9,9.9,1.4,14.8.1.7-.1,3.2.3,3.7,1,.2,2,.4,2.9.5,0-.4.1-.9.1-1.3.4-1.9-.7-5.4-.8-7.1a101.3,101.3,0,0,1,.6-14.6c.4-4.4,1.2-9.2-.3-13.5-1.3-3.7-6.3-2.2-5.7,1.6a92,92,0,0,1,1.2,17.4h6a40.07,40.07,0,0,1-.1-6c.3-3.8-5.6-3.8-6,0-.3,3.4-.7,6.9-1,10.3l3-3c-.4,0-2.5.1-2.3.3-1.2-.8-1.2-7-1.3-8.2-.4-3.7,0-7.5-2.2-10.7a3,3,0,0,0-5.1,3c2.8,6.2,2.8,13.7,3.2,20.4.3,4.8-.6,12,2.2,16.1,1.8,2.6,5.2,1.4,5.5-1.5a87.91,87.91,0,0,0,.7-13.6c-.1-3.2-1.9-9.3-.6-12.4.9-2.3,2.5-2.7,2.7-5.5.4-4.3-.4-9.1-.6-13.4a3,3,0,0,0-6,0q-.15,5,0,9.9c1.9-.3,3.9-.5,5.8-.8-.6-3.2-1.1-6.4-1.7-9.6-.6-3.4-5.8-2.5-5.8.8-.1,4.1-.2,8.1-.3,12.2,1.9-.3,3.9-.5,5.8-.8-.7-4.2-1.4-8.3-2.2-12.5-.6-3.6-5.5-2.3-5.8.8l-1.5,13.2c1.9-.3,3.9-.5,5.8-.8-.9-5.3-2.3-10.8-2.3-16.2-1.9.3-3.9.5-5.8.8.5,1.5.9,2.6,1.5,4,1,2.3,5,1.7,5.4-.7a7.36,7.36,0,0,0-.2-4.4c-1.2-3.6-6.8-2.1-5.7,1.6a7.56,7.56,0,0,0,1.8,3.7,3.05,3.05,0,0,0,5-1.3c0-.1,0-.2.1-.2,1.1-3.7-4.7-5.3-5.8-1.6Z" transform="translate(-38.09 -105.48)"/><path class="cls-1" d="M42.6,271.7c-.6,1.2-1.1,2.6-2.8,2.6v2.4a30,30,0,0,1,8.4.8c1.5.4,2.9.6,3.5-1.1.5-1.5-1.8-2.1-2.3-.6.4-1.2-8.8-1.5-9.5-1.4a1.2,1.2,0,0,0,0,2.4c2.5,0,3.8-1.7,4.8-3.8.7-1.5-1.4-2.7-2.1-1.3Z" transform="translate(-38.09 -105.48)"/><path class="cls-1" d="M151.4,274.1a5.3,5.3,0,0,1-1.5.8,10.93,10.93,0,0,0,1.5.8h.1a14.62,14.62,0,0,1-2,.5h0a1.27,1.27,0,0,0,1.1.9,53.74,53.74,0,0,0,9-.6,1.5,1.5,0,0,0,1.4-1c.3-.8-.2-1.1-.3-1.8l-2.3.3a3.17,3.17,0,0,1,.4,1.6l1.2-1.2a34.43,34.43,0,0,0-5.5.3c-.4.1-1.2,0-1.6.1-.7.2-.4.3-.4,0a9.18,9.18,0,0,1,.9-2.8c.5-1.5-1.8-2.1-2.3-.6-.5,1.7-2.1,4.4.1,5.5a6.68,6.68,0,0,0,3.7.2,41.93,41.93,0,0,1,5-.3,1.29,1.29,0,0,0,1.2-1.2,9.48,9.48,0,0,0-.5-2.3c-.5-1.1-2.5-1.1-2.3.3a1.7,1.7,0,0,0,.1.7c.1.5.2.4.4-.2a11.4,11.4,0,0,0-2.6.2l-5.7.3a10.63,10.63,0,0,1,1.1.9,1.33,1.33,0,0,0-.6-1,1.26,1.26,0,0,0-2,.5,2,2,0,0,0-.1,1.3,1.2,1.2,0,0,0,1.5.8,12.44,12.44,0,0,0,2-1,1.12,1.12,0,1,0-1-2Z" transform="translate(-38.09 -105.48)"/><path class="cls-1" d="M134.7,132.4a56.92,56.92,0,0,1,5.1,11.9c.9,3,1.4,6,2.8,8.8.5,1.1,2.2.5,2.2-.6a111.77,111.77,0,0,0-1.2-14.2c-.2-1.3-2.5-1-2.3.3a37.57,37.57,0,0,0,1.6,7.4,1.17,1.17,0,0,0,2.3-.3c.1-2.1.1-4.2.2-6.3l-2.3.3a10.3,10.3,0,0,1,1,4.6c.1,1.5,2.5,1.5,2.4,0a22.39,22.39,0,0,0-.7-4.4c-.4-1.3-2.4-1.1-2.3.3a95.15,95.15,0,0,0,2.8,18.4,1.19,1.19,0,0,0,2.3-.6c-1.2-6.5-3.3-13.6-3.2-20.2.1-4.1,1.7-8.5-.7-12.2-.8-1.3-2.9-.1-2.1,1.2,2.5,3.8,0,10.1.6,14.5.8,5.8,2,11.5,3.1,17.3l2.3-.6a98.2,98.2,0,0,1-2.7-17.8l-2.3.3a11.48,11.48,0,0,1,.6,3.7h2.4a15.61,15.61,0,0,0-1.1-5.2,1.17,1.17,0,0,0-2.3.3c-.1,2.1-.1,4.2-.2,6.3l2.3-.3a30.52,30.52,0,0,1-1.5-6.8l-2.3.3a122.63,122.63,0,0,1,1.1,13.6l2.2-.6c-1.8-3.6-2.3-7.8-3.6-11.6a57.87,57.87,0,0,0-4.2-9.1c-1-1.3-3.1-.1-2.3,1.3Z" transform="translate(-38.09 -105.48)"/><path d="M39,277.7a20.27,20.27,0,0,1,5.5-.1c1.6.1,4.7-.3,6.1.5.7.4,1.3-.7.6-1-1.6-.9-4-.6-5.8-.7-2.2-.1-4.6-.4-6.7.1a.62.62,0,0,0,.3,1.2Z" transform="translate(-38.09 -105.48)"/><path d="M51.8,277.9q3.6-33.3,8.1-66.4c.1-.7-1-1.1-1.1-.3q-4.5,33.3-8.1,66.7c-.2.8,1,.8,1.1,0Z" transform="translate(-38.09 -105.48)"/><path d="M60,211.4c3.1-14.5,6.5-28.8,9.9-43.2.2-.7-1-1.1-1.1-.3-3.3,14.4-6.8,28.8-9.9,43.2a.57.57,0,1,0,1.1.3Z" transform="translate(-38.09 -105.48)"/><path d="M39.2,276.6c1.6-21.9,2.5-44.1,6.5-65.8.1-.7-1-1.1-1.1-.3-4,21.8-4.9,44-6.5,66.1-.1.8,1.1.8,1.1,0Z" transform="translate(-38.09 -105.48)"/><path d="M45.7,210.3c.7-12.2,2.6-24.3,4.3-36.4,1.5-10.7,2.3-21.8,4.4-32.4.2-.7-1-1.1-1.1-.3-2.3,11.2-3.1,23-4.7,34.3-1.6,11.6-3.4,23.1-4,34.8-.1.7,1,.7,1.1,0Z" transform="translate(-38.09 -105.48)"/><path d="M54.4,141.9c.1-9.4.2-21.3,6.5-28.7.5-.6-.3-1.4-.8-.8-6.7,7.8-6.7,19.7-6.9,29.6,0,.7,1.2.7,1.2-.1Z" transform="translate(-38.09 -105.48)"/><path d="M60.4,114.3c1.7-4.9,9.1-6.6,13.5-7.7a.57.57,0,0,0-.3-1.1c-5,1.2-12.5,3-14.4,8.5-.2.7,1,1,1.2.3Z" transform="translate(-38.09 -105.48)"/><path d="M73.7,107a39.52,39.52,0,0,0,26.5,7.1c.8-.1.8-1.3,0-1.2A39.16,39.16,0,0,1,74.3,106c-.6-.5-1.2.5-.6,1Z" transform="translate(-38.09 -105.48)"/><path d="M161.5,276.6c-2.1-.5-4.5-.2-6.7-.1-1.8.1-4.2-.2-5.8.7a.58.58,0,1,0,.6,1c1.5-.8,4.4-.5,6.1-.5a20.27,20.27,0,0,1,5.5.1c.7.1,1-1.1.3-1.2Z" transform="translate(-38.09 -105.48)"/><path d="M149.5,277.9q-3.6-33.45-8.1-66.7c-.1-.8-1.2-.4-1.1.3q4.5,33.15,8.1,66.4c0,.8,1.2.8,1.1,0Z" transform="translate(-38.09 -105.48)"/><path d="M141.3,211.1c-3.1-14.2-6.5-28.2-9.9-42.3a.57.57,0,0,0-1.1.3c3.3,14.1,6.8,28.2,9.9,42.3.1.8,1.2.4,1.1-.3Z" transform="translate(-38.09 -105.48)"/><path d="M162.1,276.6c-1.6-22.1-2.5-44.3-6.5-66.1-.1-.8-1.3-.4-1.1.3,4,21.6,4.9,43.8,6.5,65.8-.1.8,1.1.8,1.1,0Z" transform="translate(-38.09 -105.48)"/><path d="M155.6,210.3c-.6-11.7-2.4-23.2-4-34.8-1.6-11.4-2.4-23.1-4.7-34.3a.57.57,0,1,0-1.1.3c2.1,10.6,2.9,21.7,4.4,32.4,1.7,12.1,3.6,24.2,4.3,36.4,0,.7,1.2.7,1.1,0Z" transform="translate(-38.09 -105.48)"/><path d="M146.9,141.9c-.1-9.8-.1-21.7-6.9-29.6-.5-.6-1.3.3-.8.8,6.4,7.4,6.4,19.3,6.5,28.7a.6.6,0,1,0,1.2.1Z" transform="translate(-38.09 -105.48)"/><path d="M140.8,114c-1.9-5.5-9.3-7.3-14.4-8.5-.7-.2-1.1,1-.3,1.1,4.4,1,11.9,2.8,13.5,7.7.3.7,1.5.4,1.2-.3Z" transform="translate(-38.09 -105.48)"/><path d="M125.8,105.9a38.46,38.46,0,0,1-25.9,6.9c-.8-.1-.8,1.1,0,1.2a39.82,39.82,0,0,0,26.5-7.1c.6-.4,0-1.4-.6-1Z" transform="translate(-38.09 -105.48)"/><path d="M72.2,169c-4.1-4.1-8.4-7.6-8.2-13.9.1-4.8,1.3-9.6,4.8-13,.5-.5-.3-1.4-.8-.8-3.8,3.7-5,8.7-5.2,13.8-.3,6.7,4,10.4,8.5,14.8a.64.64,0,0,0,.9-.9Z" transform="translate(-38.09 -105.48)"/><path d="M76,224.2c1.4-18-1.5-36-3.8-53.8-.1-.7-1.3-.8-1.2,0,2.3,17.8,5.2,35.8,3.8,53.8a.6.6,0,1,0,1.2,0Z" transform="translate(-38.09 -105.48)"/><path d="M75.3,223.1c-1.7,6.4-1.4,13.1-2.9,19.5-1.6,6.8-3.4,13.6-5.2,20.4-.2.7,1,1.1,1.1.3,1.7-6.8,3.6-13.6,5.2-20.4,1.5-6.4,1.2-13.1,2.9-19.5a.57.57,0,1,0-1.1-.3Z" transform="translate(-38.09 -105.48)"/><path d="M129.8,170.6c4.5-4.4,8.8-8.1,8.5-14.8-.2-5.1-1.4-10.2-5.2-13.8-.5-.5-1.4.3-.8.8,3.5,3.4,4.7,8.2,4.8,13,.2,6.3-4,9.9-8.2,13.9-.5.6.4,1.5.9.9Z" transform="translate(-38.09 -105.48)"/><path d="M126.3,225c-1.4-18,1.5-36,3.8-53.8.1-.8-1.1-.8-1.2,0-2.3,17.8-5.2,35.8-3.8,53.8.1.7,1.3.7,1.2,0Z" transform="translate(-38.09 -105.48)"/><path d="M124.8,224.1c1.7,6.4,1.4,13.1,2.9,19.5,1.6,6.8,3.4,13.6,5.2,20.4a.57.57,0,0,0,1.1-.3c-1.7-6.8-3.6-13.6-5.2-20.4-1.5-6.4-1.2-13.1-2.9-19.5a.57.57,0,0,0-1.1.3Z" transform="translate(-38.09 -105.48)"/><path d="M68,263.4c3.3,3,8,3.1,12.2,3.8a159.83,159.83,0,0,0,16.9,2.4,94.24,94.24,0,0,0,36.1-4.5c.7-.2.4-1.4-.3-1.1a94.59,94.59,0,0,1-32.1,4.6,120.89,120.89,0,0,1-15.9-1.8c-4.7-.8-12.3-.8-16-4.2-.6-.5-1.4.3-.9.8Z" transform="translate(-38.09 -105.48)"/><path class="cls-3" d="M71.7,169.5c6,4.7,15.8,2.1,21.8-1.4a.58.58,0,1,0-.6-1c-5.4,3.2-14.8,5.9-20.3,1.6-.6-.5-1.5.3-.9.8Z" transform="translate(-38.09 -105.48)"/><path class="cls-3" d="M129.3,169.1c-5.5,4.3-14.9,1.6-20.3-1.6a.58.58,0,1,0-.6,1c5.9,3.5,15.8,6,21.8,1.4.6-.5-.3-1.3-.9-.8Z" transform="translate(-38.09 -105.48)"/></svg>