<svg id="Layer_1" data-name="Layer 1" xmlns="http://www.w3.org/2000/svg" viewBox="0 0 76.46 68.18"><defs><style>.cls-1{fill:#bdb9dd;}.cls-2{fill:#231f20;}.cls-3{fill:#090011;}.cls-4{fill:#a9a6c6;}</style></defs><title>Trousersshort</title><path class="cls-1" d="M79.2,294.3a10.24,10.24,0,0,1-1-3.4c-.4-3-5.3-4.5-5.9-.8a94.25,94.25,0,0,1-6,20.7c-.8,1.9,1.1,3.8,2.9,3.8,5,0,10,0,14.9-.2,2.9-.1,8.7,1,11.2-1,2.4-1.8.7-4.7,1.3-7.1.7-2.6,3.1-4.5,5.8-3.5,3.5,1.3,2.6,5.3,1.9,8.2a3,3,0,0,0,3.7,3.7c8.5-1.9,8-11.6,7-18.5-1.4-9.2-5.8-15.4-13.2-20.8-2.4-1.8-5.7,1.7-4.1,4.1,4.2,6.4,6.3,13.6,8.4,20.8,1,3.7,6.7,2.2,5.8-1.6-1.4-5.7-3.8-11.5-9.4-14.2-5.4-2.6-11.5-1.2-16.6,1.2-5.8,2.7-10.8,5.7-13.4,11.8-1.3,3.1-2.1,6.2-4.6,8.7-1.9,1.9-3.2,2.8-3.4,5.7-.3,3.9,5.6,3.8,6,0a41.47,41.47,0,0,0,.2-6.1c-.1-3.3-5-4.2-5.9-.8-.1.5-.3,1.1-.4,1.6,2,.3,3.9.5,5.9.8-.6-8.8-2-18.1-1.1-26.9.9-9,4.6-17.5,8-25.7-1.4.4-2.7.7-4.1,1.1,9.1,6.1,23.7,5.4,34,4.3,2.7-.3,5.4-.7,8-1.2,2.2-.4,6.8-2.6,8.9-2.2-.8-.9-.9-.8-.2.1.4.7.8,1.5,1.2,2.3.8,1.6,1.4,3.2,2.1,4.8a71.07,71.07,0,0,1,2.6,9c.8,3.8,6.6,2.2,5.8-1.6a62.64,62.64,0,0,0-6.1-16.8c-2.9-5.3-6.1-3.7-11.3-2.4a87.42,87.42,0,0,1-21,2.5c-6.8-.1-15.1-.1-20.9-4-1.2-.8-3.5-.4-4.1,1.1-3.6,8.5-7.2,17-8.5,26.1-1.4,9.7.1,19.7.8,29.5.2,3.2,5,4.2,5.9.8.1-.5.3-1.1.4-1.6-2-.3-3.9-.5-5.9-.8a41,41,0,0,1-.2,6.1h6c0-.7,2.9-2.7,3.4-3.3a18.59,18.59,0,0,0,2.3-4.1c1.9-4.5,2.9-8,7.4-10.6,4.1-2.4,9.2-5.4,14.2-4.4,5.4,1.1,7.1,6.2,8.3,11,1.9-.5,3.9-1.1,5.8-1.6-2.2-7.8-4.5-15.5-9-22.3l-4.1,4.1c4.7,3.4,8.1,7.2,9.7,13,1,3.7,3.4,14.1-2,15.3l3.7,3.7c1.3-5.1,1.7-10.6-3-14.1a10.52,10.52,0,0,0-12.2-.2,11.24,11.24,0,0,0-4.1,5.7c-.3.9-1.4,6.1-.2,6.7,1.4-2,1.4-2.9-.2-2.6a24.37,24.37,0,0,0-2.7.1c-1.9.1-3.7.1-5.6.1-4.4.1-8.7.1-13.1.1,1,1.3,1.9,2.5,2.9,3.8a104.62,104.62,0,0,0,6-20.7c-2-.3-3.9-.5-5.9-.8a17.39,17.39,0,0,0,1.2,5c1.4,3.7,7.2,2.1,5.8-1.5Z" transform="translate(-62.32 -249.18)"/><path class="cls-1" d="M113,305.9a14.8,14.8,0,0,0-.8,1.3,3.06,3.06,0,0,0,1.1,4.1,3,3,0,0,0,4.1-1.1,14.8,14.8,0,0,0,.8-1.3,3.06,3.06,0,0,0-1.1-4.1,3.16,3.16,0,0,0-4.1,1.1Z" transform="translate(-62.32 -249.18)"/><path class="cls-1" d="M111.6,307a25.46,25.46,0,0,1-2.6,3c-1.7,1.8-.6,5.2,2.1,5.1,2-.1,4.8-.7,6.7-.3l-2.1-2.1a.37.37,0,0,0,.1.3c.5-1.1.9-2.3,1.4-3.4-.1,0-.1.1-.2.1-1.8,1.4-2.1,4.9.7,5.5,5.6,1.1,11.3.4,17,1,2.1.3,3.2-2.1,2.9-3.8-1.1-6.7.2-13.6.2-20.3,0-3-.2-6.1-.5-9.1s-2.1-7.7-1-10.6c1.3-3.6-4.5-5.2-5.8-1.6-1,2.9-.2,5.5.3,8.5a93.57,93.57,0,0,1,1.1,12.9c0,7.4-1.1,14.6,0,21.9,1-1.3,1.9-2.5,2.9-3.8-5.1-.6-10.3.2-15.4-.8.2,1.8.5,3.7.7,5.5.1,0,.1-.1.2-.1a3.24,3.24,0,0,0,1.4-3.4.37.37,0,0,0-.1-.3,2.81,2.81,0,0,0-2.1-2.1c-2.6-.6-5.7,0-8.3.1l2.1,5.1c1.3-1.4,2.4-2.8,3.5-4.2,2.3-3.1-2.9-6.1-5.2-3.1Z" transform="translate(-62.32 -249.18)"/><path class="cls-1" d="M79,284.9a9,9,0,0,0-.9,1c1.7.4,3.3.9,5,1.3a8,8,0,0,0-.1-3.1H80c-.7,1.3-.4,1.8.9,1.4,1,1.3,1.9,2.5,2.9,3.8.4-1.9.8-7.2,2.4-8.3-1.5-.6-2.9-1.2-4.4-1.8a10.54,10.54,0,0,1-.8,7.4l4.7-.6c-.6-.6,3.2-5.2,3.8-5.8l-5.1-2.1a11.37,11.37,0,0,1-1.6,7.6c1.8.8,3.7,1.5,5.5,2.3a8.61,8.61,0,0,1,3.5-6.3c-1.5-.6-2.9-1.2-4.4-1.8.6,1.3.5,2.2-.5,2.9l4.1,4.1c.5-.9,2.7-5,3.9-4.8.4.7.8,1.5,1.2,2.2a4,4,0,0,1,2.6-2.5c-1.5-.6-2.9-1.2-4.4-1.8a18.26,18.26,0,0,1-1.3,1.6c1.1.5,2.3.9,3.4,1.4.1-.1.1-.3.2-.4l-3.8-2.9c-.4.9-.8,1.7-1.3,2.6l4.7.6c-.1-.4-.2-.7-.3-1.1l-2.1-2.1c.3.8-1.9,3.2-2.4,3.5-1.9,1.5-3,.7-4.9-.3-1.4-.7-2.2-1.5-3.9-1.2-4,.7-6.2,8.2-7.8,11.2l4.7-.6c-1.8-1.9-4.5-5-7.5-4-3.6,1.3-3.6,7.6-4.3,10.6h5.8a13.12,13.12,0,0,1-.6-5.9c-2-.3-3.9-.5-5.9-.8a49.05,49.05,0,0,1-.8,6.7H72a6.16,6.16,0,0,1,.3-3.8c-2-.3-3.9-.5-5.9-.8a46.59,46.59,0,0,1,.3,7.5h6a99.05,99.05,0,0,1,1.7-32.1c.7-3.3,1.4-6.3,4.8-7.5,2.9-1,5.8.3,8.6,1.2A37.13,37.13,0,0,0,103,265c5.2-.4,10.5-2.2,15.7-2.1,3.1,0,2.7,1.3,3.2,4.2.5,3.1.9,6.2,1.3,9.4,1.3,11.1,2.1,22.3,3,33.4.3,3.9,5.5,3.8,6,0,1.5-11.5,1.4-23.4-2.7-34.3-.2-.6-.7-3.1-1.2-3.4-3.1-.6-4,0-2.8,1.8a6.56,6.56,0,0,1,.8,2.1c.9,3.3.5,6.7,0,10-.4,3-.9,6-1.3,9-.2,1.1-1,11.8-4.8,7.6-1,1.7-1.9,3.3-2.9,5l1.4.3,2.1-2.1a11.76,11.76,0,0,1,1,4.2c.6-1.5,1.2-2.9,1.8-4.4h.2c-.4,1.7-.9,3.3-1.3,5h.5l3.7-3.7c-8.1-2.5-7.7-13.1-8.6-19.7-.5-3.6-1.1-7.2-1.8-10.7-.5-2.6-2.6-9.5,2.7-7.4l-2.1-2.1c2,4.9,2.1,11.5,3,16.7.5,2.9.9,5.8,1.4,8.8.2,1.2.1,2.9.6,4.1-.3.9,0,1.4.9,1.4,1,.6,1.3.2.8-1.2,1-4-7.1-29.3-3.8-30.1-.5-1.9-1.1-3.9-1.6-5.8-5.7,2-12.3,2-18.3,2.2a73.75,73.75,0,0,1-9.4-.2c-3.2-.3-6.4-1.7-9.6-1.7-4.4.1-5.8,3.4-6.4,7.2-.5,2.8-.6,5.6-.9,8.4-.2,1.4-.8,9.5-2.1,10.2,1.5.9,3,1.7,4.5,2.6a107.35,107.35,0,0,1,2.3-12.6c.8-3.4,1.8-6.1,5.6-6.4,2.2-.2,4.6.8,6.7,1.2a106,106,0,0,0,11.3,1.6c1.5.1,4.1-.3,5.3.3,1.7.2,2.4,1.2,2,3.1a17,17,0,0,1-.2,3.9h3c-1.4-.8-2.4-2.6-3.2-4-2-3.4-6.7-.4-5.2,3s4,8.4,7.9,9.4a4.44,4.44,0,0,0,5.6-4.8c-.9-8.8-17-10.4-23.4-10.5-2.3,0-6.8-.6-8.4,1.2s1.7.7,3.1.7c1.7-.1,3.3-.1,5-.2,3.2-.1,6.5-.4,9.6.1-.1,0,4.2,1.2,3.2-.3-.3-.4-2.9-.1-3.2-.1-3.4.3-6.4,2.4-6.5,6-.1,4.6,6.7,11.3,5.7,14.2l2.1-2.1c-4.1,1.1-7.8.8-11.3,3.6-4,3.3-4.6,8.5-10.7,8.7-1,0-2.1,0-3.1-.1q-3.75-1.05-1.2.3c.7.9,1.2.8,1.6-.2,2.2-1.4,3.5-5.7,5.4-7.7a16.67,16.67,0,0,1,8-4.4c.9-.2,6.8-1.8,7.1-1.3v-3c-.5,1.2-3.2,2.4-4.4,3.2-1.9,1.3-3.7,2.6-5.6,3.9l-4.8,3.3c-.8.6-1.6,1.1-2.4,1.7-2.2.9-2.1,1.4.1,1.5.3,1,.5,1.9.8,2.9,1-3.6,7.2-7.4,9.9-9.6,1.9-1.6,3.5-3.1,2.4-5.7-1.3-3-5.5-4.3-8.1-5.8-2.3-1.3-3.8-2.4-4.5-4.9a20.3,20.3,0,0,0-1.7-4.9,3.06,3.06,0,0,0-4.1-1.1c-3.4,2.1-3.5,6.2-3.9,9.9-.8,5.9-1.2,11.8-3.9,17.3-1.7,3.5,3.5,6.5,5.2,3a39.91,39.91,0,0,0,3.6-12.2c.3-1.9.5-3.8.7-5.6.1-1.1.2-6.4,1.3-7.1-1.4-.4-2.7-.7-4.1-1.1,1.2,2.1,1.1,4.7,2.4,6.8a13.29,13.29,0,0,0,4.3,4.2,18.69,18.69,0,0,0,3.1,1.7c.5.2.9.5,1.4.7.8,1,1.5,1,2.2.2.3-.2.5-.4.8-.6-.9.7-1.7,1.4-2.6,2.1-1.3,1.1-2.5,2.2-3.8,3.3-2.2,2.1-7.7,6.1-6.2,9.9s5.5,1.9,7.8.4c5.7-3.7,11.3-7.7,16.7-11.7,2.3-1.7,4.4-4.3,1.7-7-3-2.9-8.7-1.1-12.2-.3-5,1.2-9.3,3.4-12.6,7.4-1.9,2.4-3.5,5-5.2,7.5-1,1.5-2.5,3.1-2.3,5,.5,3.9,5.8,3.9,8.7,4,4.4.1,8.7-.8,11.7-4.3,1.5-1.8,2.4-4.1,4.2-5.6,2.6-2.2,5.3-1.6,8.3-2.3,4.1-1,3.5-4.5,2.4-7.7-.9-2.6-2.2-4.8-3.3-7.3-.2-.3-.3-.5-.5-.8-1.3-2.1-1-3,1.1-2.5,1.2-.4,3,.2,4.3-.3,2.9-1,4.6-4.1,3.1-7-1.9-3.7-7.5-4.4-11.1-4.6s-7,.1-10.5.2c-2.9.1-6.4-.4-9.1.8a4.83,4.83,0,0,0-1,8.4c2.2,1.8,4.9,1.3,7.6,1.1a56.78,56.78,0,0,1,10.1,0,27,27,0,0,1,4.1.7c2.4.5,4.7,2.2,7,2.6.9.2,3.2,3.3,3.7-.4,0-.4-3.5-5.3-3.9-6.3-1.7,1-3.5,2-5.2,3,1.3,2.3,3.4,6.2,6.4,6.5s4.4-2.7,4.8-5.2c.6-3.2.5-7.7-1.4-10.5-2.1-3.1-5.7-2.8-9-3a103.73,103.73,0,0,1-15.8-2.3c-3.7-.8-7.3-1.5-10.7.8-3.2,2.2-4.7,5.7-5.5,9.4a117.38,117.38,0,0,0-2.5,14.2c-.3,2.4,2.7,3.5,4.5,2.6,3.9-2.1,4.1-8.5,4.7-12.3.4-2.7.6-5.3.9-8,.2-1.7.1-3.9,1.6-4.4,1-.3,3.6.7,4.4.8a72.57,72.57,0,0,0,16.8.7c5.6-.3,11.7-.4,17.1-2.3,3.6-1.3,2.2-6.7-1.6-5.8-6.8,1.6-5.5,9.3-4.5,14.5.7,4,1.9,7.9,2.8,11.9,1,4.4.4,8.9,1.2,13.2s5.5,6.8,8.5,2.9c2.1-2.8,1.7-6.3,1.3-9.5-.7-4.6-1.5-9.1-2.2-13.6s-.9-9.4-2.2-13.6c-.8-2.6-2.3-3.6-4.9-3.6-2,0-5.5.2-7.1,1.7-2,1.9-1.9,5.7-1.6,8.2.5,4.6,1.8,9.1,2.5,13.7.6,4.2.5,8.7,1.4,12.8,1.3,5.6,6.1,11.7,11.7,13.4a3,3,0,0,0,3.7-3.7c-1.1-3.5-4.2-5.4-7.8-4.2-2,.6-3.1,3.4-1.3,5a6,6,0,0,0,5.7,1.6c1.9-.3,2.8-2.9,1.8-4.4-1.9-3-5.9-5.7-9.6-4.1-3.3,1.5-3.4,5.6-.6,7.7,2.3,1.8,6.5,2,7.7-1.2,1.4-3.7-2.4-6.9-5.6-7.7a3,3,0,0,0-2.9,5,7.88,7.88,0,0,0,8.4,2.6c3.9-1.2,5.2-4.7,5.8-8.4,1.4-9.2,4.9-20.9.8-29.8-3-6.3-10.5-4.8-8.4,2.5,1.7,6.1,3.9,11.2,4.4,17.7a101.85,101.85,0,0,1-.6,18.3h6c-1.2-14.2-2.1-28.5-4.3-42.5-.6-4.1-.4-10.2-5.6-10.7-6.9-.7-14.3,2.1-21.2,2.5a31.08,31.08,0,0,1-10.9-1.3c-2.9-.9-5.6-2-8.7-2.1a11.67,11.67,0,0,0-11.5,7.2c-2.2,5.1-2.8,11.3-3.4,16.8a107.84,107.84,0,0,0,0,22c.4,3.8,5.9,3.9,6,0a47.06,47.06,0,0,0-.3-7.5c-.4-3.2-4.9-4.3-5.9-.8a14.67,14.67,0,0,0-.3,6.9c.5,2.9,5.3,2.9,5.8,0a78.27,78.27,0,0,0,1-8.3c.2-3.3-5.3-4.2-5.9-.8a18.72,18.72,0,0,0,.6,9.1c.9,2.7,5.1,3,5.8,0,.6-2.4.8-5.6,1.9-7.8-.9.5-1.7,1-2.6,1.5.6-.1,2.2,2.1,2.5,2.3a3,3,0,0,0,4.7-.6c1.1-2,3.1-7.8,5-8.8h-3c3.8,1.7,5.6,4.5,10.3,2.7,3.4-1.3,7.9-6.2,7.9-10.1s-4-4.9-6.9-3.3c-3.6,1.9-4,6.2-2.1,9.4a3,3,0,0,0,4.7.6,8.19,8.19,0,0,0,3-6.8c0-1.8-2-3.6-3.8-2.9-4.1,1.6-5.5,5.2-3.8,9.2a3,3,0,0,0,3.4,1.4c4.2-1.4,6-4.7,5.4-9-.3-2.1-2.9-2.5-4.4-1.8-3.5,1.6-6.6,5.7-5.5,9.8a4.37,4.37,0,0,0,7.9,1.6c2.2-3,2.8-9.6-1-11.6-4.7-2.5-9.5,4.1-11.3,7.5-1.3,2.4,1.5,6.1,4.1,4.1,3.1-2.4,4.6-5.8,3.2-9.6-.6-1.7-2.7-3-4.4-1.8a14.09,14.09,0,0,0-6.3,9.9c-.4,3.1,3.6,5.5,5.5,2.3a17,17,0,0,0,2.4-10.6,3,3,0,0,0-5.1-2.1c-3.3,3.1-7.8,10.2-3.8,14.3a3,3,0,0,0,4.7-.6,16.7,16.7,0,0,0,1.4-12,3,3,0,0,0-4.4-1.8c-3.7,2.6-4.4,7.7-5.2,11.9a3,3,0,0,0,2.9,3.8c5.7-.2,6.9-10.3,2.1-12.6a3.19,3.19,0,0,0-3,0c-3.2,2.2-3.2,6.4-2.6,9.9.3,2.2,3.6,2.9,5,1.3a9,9,0,0,0,.9-1c2-2.3-2.2-6.5-4.8-3.7Z" transform="translate(-62.32 -249.18)"/><path class="cls-1" d="M67.7,311c-.6.6-1.2,1.1-1.8,1.7a.6.6,0,0,0-.3,1c1.4,1.8,11.9-1.7,14-2.1a36.62,36.62,0,0,1,7.4-1,19.39,19.39,0,0,1,4.8.3,7.26,7.26,0,0,1,3.4,1.4c.2.3.4.7.6,1a9.53,9.53,0,0,1-1.8-6.1c.1-.9.2-1.9.3-2.8a9.89,9.89,0,0,1,2.5-5.7c3.2-3.1,10-3.6,14-2.9,5.5.9,10.2,4.6,5.7,10.1-2.8,3.5-6.3,8.5-11.4,7.4-.1.4-.1.8-.2,1.2,2.1-.2,4.2-.5,6.3-.7l2.7-.3c2.2-.3,2.4-.3.6.1-.1.4-.1.8-.2,1.2,2.8.2,5.1-.2,5.9-3.2s.1-6.7.3-9.7c.2-3.8.4-7.5.7-11.3.3-3.4.6-6.9,1.1-10.3.2-2,.1-4.8.9-6.6a4.47,4.47,0,0,1,2.3-2.7c.3-.1.6-.3.9-.4,1.5-2.9.2-5.6-1.6-8.3-.3.2-.6.5-.9.7a7.88,7.88,0,0,1,2.6,3.8.61.61,0,0,0,1.2-.2v-1.4l-1.1.3c.3.9.5,1.9.8,2.8l1.1-.3c-1-1.9-1.1-4.1-1.9-6.1a20,20,0,0,0-1-2.1c-.3-.5-2.1-3.1-.6-1,.3-.2.6-.5.9-.7l-1.5-1.8c-.3-.4-.9-.1-1,.3a.75.75,0,0,0,.1.5c-.3.2-.6.5-.9.7.7.5,1.5,1,2.2,1.5a.63.63,0,0,0,.9-.4,15.06,15.06,0,0,0,.4-7.6c-.4.2-.7.3-1.1.5a52.86,52.86,0,0,1,4.9,12.9c.2.8,1.3.4,1.2-.3a57,57,0,0,0-5-13.2c-.3-.6-1.2-.2-1.1.5.4,1.7,1.6,7.2-1.7,5.1a.62.62,0,0,0-.9.7,2.38,2.38,0,0,0,.9,1.3.63.63,0,0,0,.9-.4c.3-.6.6-.3.9.7.4.5,1.4-.2.9-.7a3.72,3.72,0,0,0-3-1.8c-.4-.1-.8.6-.5.9,2.7,3.5,2.9,7.6,4.9,11.3.3.5,1.2.3,1.1-.3-.2-2.1,0-1.5-1-3.4a.59.59,0,0,0-1.1.3v1.4c.4-.1.8-.1,1.2-.2a10.59,10.59,0,0,0-2.9-4.3c-.5-.4-1.3.1-.9.7,1.7,2.7,2.1,4.5.3,7.4-.5.8-1.2.9-1.7,1.9-1.5,2.9-1.4,7.9-1.7,11q-.9,7.5-1.2,15c-.2,4.2,1.4,15.8-5.1,15.5a.62.62,0,0,0-.2,1.2c2,.6,3.2-.2,3.9-2.1a.68.68,0,0,0-.6-.8L105,313.6c-.6.1-.9,1-.2,1.2,3.4.7,6-.7,8.4-3a60.6,60.6,0,0,0,4.7-5.4c.8-1,2.6-2.4,2.8-3.8.6-6.1-9.7-8.1-13.8-7.9-7.7.4-13.1,3.2-13.9,11.2-.2,1.9-.5,6.3,1.4,7.7.7.5,1.5,1.1,2,0a.63.63,0,0,0-.2-.8c-.1-.1-.2-.1-.3-.2a.62.62,0,0,0-.7.1l-.2.2a.62.62,0,0,0,.6,1,4.33,4.33,0,0,0,.5-.1c.2-.1.4-.2.4-.4,1.9-7.4-29.1,0-31.2.4a.64.64,0,0,0-.3,1c.6.5.7.6,1.4.4a.43.43,0,0,0,.4-.4c.4-1.4,1.3-1.1,2.1-3,.3-1.2-.9-1.5-1.2-.8Z" transform="translate(-62.32 -249.18)"/><path class="cls-1" d="M116.1,273.7a28.79,28.79,0,0,1,0,16.7c-.7,2.3-1.9,4.5-2.8,6.7-.4,1.1-.8,2.2-1.1,3.3-.1,2.9-1.6,4-4.6,3.6-.1-.5-1.1-.6-1.2,0-.1.9-.3,1.8-.4,2.6.4.1.8.1,1.2.2-.1-.9-.3-1.7-1.4-1.4a.57.57,0,0,0-.4.7.37.37,0,0,0,.1.3c0,.3.3.4.6.4h.3a.65.65,0,0,0,.6-.6c.3-3.7-2.2-6.1-5.8-6.3.1.4.1.8.2,1.2,1.7-1.1,3.1-.3,4,2.2,2.6.9,3.4,2.3,2.2,4.1-.2,1.4-1.2,3-1.7,4.3.4,0,.7-.1,1.1-.1.8,1.1,4.7-2.7,5-3,2.4-3,3.9-6.9,5.5-10.3,1.9-4.2,11-27.8,16-15.6.3.6,1.1.6,1.2-.2.2-3.1.2-6.2.1-9.3l-1.1.3c.7,1.2,1.3,2.3,2,3.5.3.6,1.2.2,1.1-.5s-.3-1.2-.4-1.8c-.2-.8-1.3-.4-1.2.3a12.86,12.86,0,0,0,.4,1.9c.1.7,1.3.5,1.2-.2l-.3-2.7c-.4.1-.8.1-1.2.2l.3,1.2c.2.6,1.3.5,1.2-.2-.1-.5-.1-.9-.2-1.4-.4.1-.8.1-1.2.2a18.66,18.66,0,0,0,.7,2.2c.2.6,1.3.5,1.2-.2s-.2-1.3-.3-2c-.4.1-.8.1-1.2.2a46,46,0,0,1,.6,10.5.62.62,0,0,0,1.2.2,15.38,15.38,0,0,0,.9-5.2c-.4.1-.8.1-1.2.2.4,3-1.5.3-2.5-.3a17.94,17.94,0,0,0-3.9-2,24.76,24.76,0,0,0-8-1.6c-7.3-.3-15.1,1.5-21.9,4-6,2.2-12.3,5.5-16.8,10.2-2.1,2.3-2.7,4.4-3.8,7.2s-2.8,3.9-4.5,6c-.3.4-.6.9-.9,1.3-.9,2.8-2.9,2.6-6.2-.8-.4-.1-.8-.1-1.2-.2.1,2.5-1,7.5,2,8.5s9.1-3.4,11-5,3.5-3.5,5.4-5.2c2.9-2.7,6.5-4.3,10.1-5.7,5-2,10-2.7,12.2,3.3a15,15,0,0,0,2.4,4.5c.5.6,1.3-.3.8-.8-2.4-2.8-2.2-7.5-5.8-9.2-3.9-1.9-8.7.5-12.3,2.1a31.73,31.73,0,0,0-10.5,7.2,28.43,28.43,0,0,1-7.6,5.8c-2.1,1-4.6,2.7-6.4-.5-.6-1-.2-3.7-.3-4.8,0-.6-1.1-.9-1.2-.2-.6,3.7,1.3,9.3,5.9,5.7,1.1-.8,1.2-1.6,1.8-2.7a45.8,45.8,0,0,1,3.4-4.3c2.8-3.3,2.9-7.4,5.7-10.8,5.5-6.8,15.6-10.7,23.9-12.7,10-2.4,21-3.4,29,4.2a.6.6,0,0,0,1-.3,5.66,5.66,0,0,0,.1-3.4c-.1-.7-1.2-.5-1.2.2a10.43,10.43,0,0,1-.9,4.9c.4.1.8.1,1.2.2a48.64,48.64,0,0,0-.6-10.8c-.1-.7-1.3-.5-1.2.2s.2,1.3.3,2c.4-.1.8-.1,1.2-.2a18.66,18.66,0,0,0-.7-2.2c-.2-.6-1.3-.5-1.2.2.1.5.1.9.2,1.4.4-.1.8-.1,1.2-.2l-.3-1.2c-.2-.6-1.3-.5-1.2.2l.3,2.7c.4-.1.8-.1,1.2-.2a12.86,12.86,0,0,0-.4-1.9l-1.2.3c.1.6.3,1.2.4,1.8.4-.2.7-.3,1.1-.5-.7-1.2-1.3-2.3-2-3.5a.59.59,0,0,0-1.1.3c.1,3.1.1,6.2-.1,9.3.4-.1.8-.1,1.2-.2-.8-2.1-1.2-5.3-3.8-5.3-3.2,0-6.4,4-7.9,6.4-3.4,5.4-5.3,11.8-8.1,17.5-1.2,2.5-2.5,6-4.6,7.9-1.3,1.1-3.8.9-4.5,2.4a.64.64,0,0,0,0,.6,1.38,1.38,0,0,1,.3.4.62.62,0,0,0,1.1-.1c1.2-2.9,4.1-7.5,2.1-10.7-1.8-2.8-5.4-2.3-8.1-1.4a.62.62,0,0,0,.2,1.2c1.6,1.9,3.3,3.7,4.9,5.6.1.6,1.1.9,1.2.2.1-.9.3-1.8.4-2.6h-1.2a8,8,0,0,0,.9,2.6.78.78,0,0,0,.7.3,6.61,6.61,0,0,0,4.1-3.2c2-3.3,3.1-7.8,4.5-11.4a29.75,29.75,0,0,0,.7-19.1c-.3-.9-1.4-.6-1.2.2Z" transform="translate(-62.32 -249.18)"/><path class="cls-1" d="M95,274.5c4.1,5.1,9,9.3,12.1,15.1,2.6,4.8,3.8,7.3,1.5,13.1a42.07,42.07,0,0,0-1.7,3.9c.2.1.2-1.5.2-1.4a.59.59,0,0,0-1.1-.3,5.6,5.6,0,0,0-1,2.4h1.2a8.33,8.33,0,0,0-.4-1.5c-.1-.6-1-.6-1.2,0s-.2,1.1-.3,1.7h1.2c-.1-.5-.1-.9-.2-1.4-.1-.7-1.1-.5-1.2.2a4.1,4.1,0,0,1-.1,1.1h1.2c.3-4.5-1.6-6.4-6.1-6.2.1.4.1.8.2,1.2,3.5-1.2,8.2.3,7,5.8-.2.8-1.1,1.6-1.3,2.5-.9,3,.5.8,1,2.1-.3-.7-1.4-.4-1.2.3v.1a.61.61,0,0,0,.9.4l.1-.1a.54.54,0,0,0,.2-.8c-1.5-2,3.8-6,1.6-9.2-1.8-2.6-6-3.1-8.7-2.2a.61.61,0,0,0,.2,1.2c2.1-.1,5.1,2.8,4.9,5a.6.6,0,0,0,1.2,0,4.1,4.1,0,0,1,.1-1.1c-.4.1-.8.1-1.2.2.1.5.1.9.2,1.4a.62.62,0,0,0,1.2,0c.1-.6.2-1.1.3-1.7h-1.2a8.33,8.33,0,0,0,.4,1.5c.1.6,1,.6,1.2,0l.9-2.1-1.1-.3c0,1.3-.6,1.9.4,2.8a.62.62,0,0,0,.7.1c1.9-1,2.9-5.2,3.6-7.1a7.11,7.11,0,0,0,.2-6.2c-3.3-8.7-9.4-14.1-15.1-21.2-.5-.7-1.3.1-.8.7Z" transform="translate(-62.32 -249.18)"/><path class="cls-1" d="M76.8,306.2c-2.2,2.2-4.1,4.1-7.6,4.1a.82.82,0,0,0-.6.4l-2.4-.6a.57.57,0,0,0-1,0c-.3.5-.6.9-.9,1.4.4,0,.7.1,1.1.1a7.41,7.41,0,0,0-.8-3,.62.62,0,0,0-1.2.3,28.06,28.06,0,0,0,1.9,6c.2.3.7.4.9.1,6.6-7.9,12.7-18,23.2-21,5.5-1.6,13.2-2.4,16.1,3.4a23.62,23.62,0,0,1,2.1,8.3c.1,1.9.6,4.4-1.1,5.6q-1.35,1.65-.9-.3v-2.9a.58.58,0,0,0-1.1-.3,2.17,2.17,0,0,0-.2,2.2c.2.7,1.4.4,1.2-.3,0-.4.1-.8.1-1.3l-1.1-.3a55.25,55.25,0,0,1-.2,5.8.65.65,0,0,0,.6.6c5.6-.4,4.4-8.6,3.5-12.4-.6-2.5-1.5-7.4-3.4-9.2s-4.9-1.1-7.2-1.1A29,29,0,0,0,78,299.5,92.2,92.2,0,0,0,68.8,310a41.2,41.2,0,0,0-2.7,3.7c-1.1-.4-1.3-4.2-1.5-5.2l-1.2.3a7.87,7.87,0,0,1,.8,3c.1.5.8.5,1.1.1.6-1,1.5.7,2.1.7,1.3,0,.9-.3,2-.7a19.9,19.9,0,0,0,8.1-5.1c.7-.3-.1-1.2-.7-.6Z" transform="translate(-62.32 -249.18)"/><path class="cls-2" d="M65.2,315.9c5.4-1,11-.4,16.5-.9,4.7-.4,9.7-1.1,14.4-.5.7.1.8-1.1.2-1.2a4.33,4.33,0,0,1-.5-.1.62.62,0,0,0-.3,1.2,4.33,4.33,0,0,1,.5.1c.1-.4.1-.8.2-1.2-5.3-.6-10.9.2-16.1.7-5,.4-10.1-.1-15.1.8-.8.1-.5,1.3.2,1.1Z" transform="translate(-62.32 -249.18)"/><path class="cls-2" d="M65.5,315.2c-1.5-1.4-1-6.8-1.1-8.8-.1-2.8-.3-5.5-.4-8.3-.2-5.2-.7-10.5-.4-15.8.7-11.3,5-21.9,10.3-31.8.4-.7-.7-1.3-1-.6-5.6,10.3-10,21.5-10.5,33.3-.3,6.5.3,13,.6,19.5.1,3.1.3,6.2.4,9.2.1,1.8-.1,2.9,1.2,4.1.6.5,1.5-.3.9-.8Z" transform="translate(-62.32 -249.18)"/><path class="cls-2" d="M97.8,313.6c-.8-.8-.2-3.5-.2-4.5,0-1.5.1-2.9.1-4.4a.6.6,0,0,0-1.2,0c-.1,2.1-.1,4.2-.2,6.2,0,1.3-.3,2.6.6,3.6.6.5,1.5-.3.9-.9Z" transform="translate(-62.32 -249.18)"/><path class="cls-3" d="M136.1,316c-5-.9-10-.3-15.1-.8-5.3-.4-10.9-1.3-16.1-.7.1.4.1.8.2,1.2a4.33,4.33,0,0,0,.5-.1c.8-.1.4-1.3-.3-1.2a4.33,4.33,0,0,0-.5.1c-.7.1-.5,1.3.2,1.2,4.7-.6,9.7.1,14.4.5,5.5.5,11.1-.1,16.5.9.7.2,1-1,.2-1.1Z" transform="translate(-62.32 -249.18)"/><path class="cls-3" d="M136.4,317.2c1.1-1,1-1.7,1.2-3.1.3-3.4.3-6.8.5-10.2.3-6.5.9-13,.6-19.5-.5-11.8-4.9-23-10.5-33.3a.58.58,0,1,0-1,.6c5.3,9.9,9.6,20.5,10.3,31.8a148.78,148.78,0,0,1-.3,14.9c-.1,2.8-.3,5.5-.4,8.3-.1,2.2.4,8.2-1.1,9.7-.7.5.1,1.3.7.8Z" transform="translate(-62.32 -249.18)"/><path class="cls-3" d="M104.1,315.7c.9-1,.6-2.3.6-3.6-.1-2.1-.1-4.2-.2-6.2a.6.6,0,0,0-1.2,0c0,1.5.1,2.9.1,4.4,0,1,.5,3.8-.2,4.5a.64.64,0,0,0,.9.9Z" transform="translate(-62.32 -249.18)"/><path class="cls-3" d="M97.8,306.1c-.9-2.6,5.8-3.5,6.1.1.1.8,1.3.8,1.2,0-.2-2.6-2.3-3.5-4.6-3.5-2,0-4.8,1.2-3.9,3.7a.62.62,0,0,0,1.2-.3Z" transform="translate(-62.32 -249.18)"/><path class="cls-2" d="M72.6,250.4a71,71,0,0,0,38.8,4.3c2.3-.4,4.6-.9,6.8-1.5.6-.2,8.1-2.7,7.8-1.2a.62.62,0,0,0,1.2.3c.3-1.7-.4-2.5-2.3-2.5s-4.4,1.5-6.2,2a61.15,61.15,0,0,1-8.5,1.8,72,72,0,0,1-37.3-4.4c-.7-.2-1,.9-.3,1.2Z" transform="translate(-62.32 -249.18)"/><path class="cls-4" d="M68.7,268.8c7-.6,14.4-3.8,15.6-11.5a.62.62,0,0,0-1.2-.3c-1.2,7.1-8,10.1-14.5,10.6-.7.1-.7,1.3.1,1.2Z" transform="translate(-62.32 -249.18)"/><path class="cls-4" d="M98.7,259.7a38,38,0,0,1,1,8.9c0,2.4-.5,4.7-.4,7.1a.6.6,0,0,0,1.2,0c-.1-2.8.5-5.5.4-8.3a36.5,36.5,0,0,0-1-8c-.2-.7-1.4-.4-1.2.3Z" transform="translate(-62.32 -249.18)"/><path class="cls-4" d="M132.7,267.6c-6.5-.5-13.3-3.5-14.5-10.6-.1-.8-1.3-.4-1.2.3,1.3,7.7,8.6,10.9,15.6,11.5a.6.6,0,1,0,.1-1.2Z" transform="translate(-62.32 -249.18)"/><path class="cls-4" d="M68.8,311.3c-.6-1.1-.4-2.8-.6-4s-.2-2.5-.4-3.8c-.1-.8-1.3-.8-1.2,0,.2,1.7.3,3.4.5,5.1a7.89,7.89,0,0,0,.6,3.4c.4.6,1.5,0,1.1-.7Z" transform="translate(-62.32 -249.18)"/><path class="cls-4" d="M133.7,312.4a73.51,73.51,0,0,0,1.2-11.4.6.6,0,0,0-1.2,0,69.57,69.57,0,0,1-1.1,11.1c-.2.7,1,1,1.1.3Z" transform="translate(-62.32 -249.18)"/><path class="cls-4" d="M93.6,311.6a14.88,14.88,0,0,0,.8-4.2c.1-1.6-.5-3.2-.1-4.8a.62.62,0,1,0-1.2-.3,12.84,12.84,0,0,0,.1,3.9,12.43,12.43,0,0,1-.8,5.1c-.2.7,1,1.1,1.2.3Z" transform="translate(-62.32 -249.18)"/><path class="cls-4" d="M110.5,312.7c-2.2-3-2.4-6.7-2.6-10.3a.6.6,0,0,0-1.2,0c.1,3.8.4,7.7,2.7,10.9.5.6,1.6,0,1.1-.6Z" transform="translate(-62.32 -249.18)"/><path class="cls-4" d="M97.6,261.1a.6.6,0,0,0,0-1.2.6.6,0,0,0,0,1.2Z" transform="translate(-62.32 -249.18)"/><path class="cls-3" d="M98.2,261.2a1,1,0,0,0-.5-1.1c.1.2.2.5.3.7a.52.52,0,0,0-.4-.2.58.58,0,1,0,.6,1,1,1,0,0,0,.2-1.7,1,1,0,0,0-1.6.6c-.1.3.1.5.3.7,0-.1,0-.1-.1-.2-.2.6,1,.9,1.2.2Z" transform="translate(-62.32 -249.18)"/></svg>