<svg id="Layer_1" data-name="Layer 1" xmlns="http://www.w3.org/2000/svg" viewBox="0 0 76.63 282.2"><defs><style>.cls-1{fill:#f8fbf0;}.cls-2{fill:#ef7a22;}.cls-3{fill:#ed8622;}.cls-4{fill:#010101;}</style></defs><title>Underwear</title><path class="cls-1" d="M93.86,278l-.06-.1.6,1.43,0-.12.21,1.6v-.12l-.21,1.6,0-.12-.6,1.43.06-.11-.94,1.21.08-.09-1.21.94.12-.08-1.43.6a.72.72,0,0,1,.28-.07l-1.6.21h.15l-1.6-.21a1,1,0,0,1,.28.08l-1.43-.6a2.72,2.72,0,0,1,.38.23l-1.21-.94.12.09a6.68,6.68,0,0,0,4.24,1.76,6.11,6.11,0,0,0,4.24-1.76,6,6,0,0,0,1.76-4.24l-.21-1.6a6,6,0,0,0-1.54-2.65,8.2,8.2,0,0,0-3.28-1.91,9.67,9.67,0,0,0-1.89-.25,5.36,5.36,0,0,0-2.59.59,6.43,6.43,0,0,0-3.07,9.25,6.3,6.3,0,0,0,3.59,2.76,6.13,6.13,0,0,0,4.62-.6A6,6,0,0,0,93.86,278Z" transform="translate(-62.28 -23.05)"/><path class="cls-1" d="M97.47,284.07l-.2,0,.85.35-.15-.16.35.85q-.19.44.19.13l.67-.23.51-.14q.58-.06-.14-.74c-.09,0-.55.43-.4-.09s.62-.34.85-.61q.6,0-.26-.54l-.16.25c-.34.2-.52.53-.93.67l-.29.08q-.48.08-.1,0a2.28,2.28,0,0,1,.43-.48q.51-.21-.06-.29l-.55-.72q.07-.49-.13,0a1.25,1.25,0,0,1-.42.35,1,1,0,0,1-.48.11q0,.27.26,0-.45-.9-.86-.3.11.84.47.27a1.28,1.28,0,0,1,.58-.3q-.48-.87-.48-.14c-.61,1.4,1.46,2.63,2.07,1.21.47-1.08.67-2.71-.65-3.29A3.26,3.26,0,0,0,95,281.3c-.88.95-1.17,2.49,0,3.32a2.61,2.61,0,0,0,3.36-.65c.87-.88,1.26-2.39.09-3.22a2.59,2.59,0,0,0-3.32.71,2.2,2.2,0,0,0,.38,3.27,3.11,3.11,0,0,0,3.47-.1c.9-.61,1.86-1.9,1.36-3-.61-1.37-2.22-.8-3.1-.1A3.07,3.07,0,0,0,96,285a2.53,2.53,0,0,0,3.15,1.14,4.35,4.35,0,0,0,2.78-2.32,1.92,1.92,0,0,0-1.32-2.81c-2.48-.46-5.26,2.77-3.21,4.87a2.64,2.64,0,0,0,3.74,0c1-1,1.18-2.73-.26-3.37-1.17-.52-3.24.2-4.18,1s-1,3.11.77,2.9c1.52-.17,1.53-2.58,0-2.4Z" transform="translate(-62.28 -23.05)"/><path class="cls-1" d="M67,281.41a2.46,2.46,0,0,0-2.34.45l1.76,1.36a7,7,0,0,0,.37-2.16c.06-1.13-1.76-1.71-2.24-.61l-.38.88,2.19.92c.52-3.79,1-7.58,1.55-11.38L66.4,272c3.89,1,7.78,2,11.7,2.87,2.69.58,5.63,1.58,8.36.92,1.08-.26,1.21-2.15,0-2.31-1.85-.26-4.12-.85-5.92-.18a17.47,17.47,0,0,0-3.32,2.12l-2.4,1.63q-2.14.57-.48,1.74l-1.45-.19.24.28-.19-1.45-.14.28c-.67,1.38,1.39,2.6,2.07,1.21l.14-.28a1.26,1.26,0,0,0-.19-1.45l-.24-.28a1.23,1.23,0,0,0-1.45-.19c-1.73.77-2.61,2.48-1.3,4A1.16,1.16,0,0,0,73,281a28.57,28.57,0,0,0,4.84-3.1c3-2,4.23-2.62,8-2.1V273.5c-2.9.7-7.37-1-10.22-1.63s-5.72-1.42-8.57-2.16a1.22,1.22,0,0,0-1.52,1.16c-.48,3.58-1,7.16-1.46,10.74-.16,1.19,1.6,2.31,2.19.92l.38-.88-2.24-.61-.28,1.52a1.21,1.21,0,0,0,1.76,1.36l.49-.21c1.51.22,2.16-2.09.64-2.31Z" transform="translate(-62.28 -23.05)"/><path class="cls-1" d="M65.63,284.78c5.1.7,10.34,1.17,15.26,2.77,5.61,1.83,14.35,5.83,15,12.52l2.36-.32a8.43,8.43,0,0,0-2.11-4.38c-.9-1.08-2.52.3-1.88,1.45s1.92,3,1.47,4.34,1.16,1.82,2,1.17l4.82.22a1.21,1.21,0,0,0,2-.85c-.46-7.83,10-12.29,15.9-14.6,1.42-.56.8-2.88-.64-2.31-7,2.74-18.19,7.87-17.67,16.92l2-.85a6,6,0,0,0-8.21-.22l2,1.17c.72-2.1-.73-4.39-1.71-6.19l-1.88,1.45L96,300.39c.24,1.32,2.5,1,2.36-.32-1.41-13.66-21.72-16.18-32.05-17.61-1.51-.21-2.16,2.1-.64,2.31Z" transform="translate(-62.28 -23.05)"/><path class="cls-1" d="M91.87,282.56l-.2-.3v1.21q-.85.3.47.28a11.15,11.15,0,0,0,1.11.11,17.9,17.9,0,0,0,2.79-.11c1.85-.19,3.69-.49,5.53-.74,1.52-.21.87-2.53-.64-2.31a39.65,39.65,0,0,1-7.68.77c-1.4-.08-2.85-.72-3.65.8a1.21,1.21,0,0,0,0,1.21l.2.3c.85,1.28,2.93.08,2.07-1.21Z" transform="translate(-62.28 -23.05)"/><path class="cls-1" d="M108,282.71a8,8,0,0,1,5-1l-.61-2.24c-4.32,2.49-6.39.48-10.66,0-5-.55-11.61,0-15.26-4.3l-.24,1.88a9,9,0,0,1,1.81-1.29c2-.61,5.08,0,7.16,0,5.64,0,11.29-.06,16.93-.28a109.87,109.87,0,0,0,13.69-1.26c2.41-.4,7.09-.45,8.51-2.79l-2.24-.61a32.29,32.29,0,0,0,.63,6.08c.28,1.45,2.2.9,2.36-.32a5.78,5.78,0,0,0-.14-3c-.28-1.4-2.26-1-2.36.32a19.41,19.41,0,0,0,.47,6.08,1.21,1.21,0,0,0,2.31,0,3.48,3.48,0,0,0,.29-2.6,1.2,1.2,0,0,0-2.4,0,14.73,14.73,0,0,0,.36,6.29l1.16-1.52a57.44,57.44,0,0,0-15.32,3.45c-1.42.56-.8,2.88.64,2.31a54.93,54.93,0,0,1,14.69-3.36,1.22,1.22,0,0,0,1.16-1.52,13.08,13.08,0,0,1-.28-5.65h-2.4l-.2,2h2.31a16.17,16.17,0,0,1-.39-5.44l-2.36.32.05,2.36,2.36-.32a19.7,19.7,0,0,1-.55-5.44,1.21,1.21,0,0,0-2.24-.61c-1.13,1.85-10.22,2.15-12.08,2.34-3.57.37-7.16.51-10.74.62-7.62.22-15.24.23-22.85.13a1.21,1.21,0,0,0-1.16.88l-.4.79a1.22,1.22,0,0,0-.24,1.88c3.32,3.91,9.74,4.7,14.54,4.89,2.8.11,5.26,1.9,7.81,2,2.27.05,4.57-1.09,6.47-2.19a1.21,1.21,0,0,0-.61-2.24,12.15,12.15,0,0,0-6.25,1.32c-1.39.67-.18,2.74,1.21,2.07Z" transform="translate(-62.28 -23.05)"/><path class="cls-1" d="M100.63,289.47l.57-.09-3.14-3.14.2.7.45-3.47-.41.67,2.69-2.07-1.52.38,5.7,4.34-.06-.68-1.32,3.18a4.54,4.54,0,0,1,3.49-1.54l-3.18-1.32.42.35-1.32-3.18-.07.5,1.32-3.18a20.52,20.52,0,0,1-3.31,2.93c-3.67,2.87.34,8.68,4.38,7.52s8.15-2.38,12.2-3.65c3.62-1.13,8.69-3.78,12.5-3.46,2.23.19,4.77-2.22,4.5-4.5a19.19,19.19,0,0,1-.26-4.12l-1.32,3.18.67-.54c3.74-3-.38-8.45-4.38-7.52-19.45,4.5-38.28,3.33-57.84.21-2.55-.41-6.05,1.14-5.7,4.34l-.11,1.58a4.56,4.56,0,0,0,2.69,6.61c2.2.64,4.52.6,6.76,1.14,2.89.7,5.75,1.67,8.59,2.57,4.89,1.56,12.18,2.76,12,9.22l8.39-2.27a21.1,21.1,0,0,0-3.87-4.8L97.14,297c-2.08-.11,1.46.59,1.54.6a6.72,6.72,0,0,0,2.5-.36c2.53-.77,5-2.61,7.3-3.87,5.07-2.8.54-10.57-4.54-7.77-.57.32-5.7,3.56-6,3.31q3.81.11,1.13-.71a11.89,11.89,0,0,0-1.91-.2c-3.86-.2-6,5.09-3.18,7.68a8.27,8.27,0,0,1,2.47,3,4.54,4.54,0,0,0,8.39-2.27c.22-7.16-4.22-12.52-10.62-15.16-3.69-1.52-7.58-2.65-11.4-3.81s-8.08-1.52-11.92-2.64l2.69,6.61a10,10,0,0,0,1.34-6.13l-5.7,4.34c21.17,3.39,41.55,4.67,62.62-.21l-4.38-7.52c-2.57,2.06-2.08,4.9-1.73,7.84l4.5-4.5c-4.43-.37-8.86,1.88-13,3.2q-7,2.21-14.07,4.23l4.38,7.52c2.07-1.62,4.46-3.27,4.63-6.11a5,5,0,0,0-3.66-5.18c-4.51-1.36-12.78,2.62-12.3,7.88.26,2.92,2.66,5.1,5.7,4.34,8.79-2.21,4.79-12.88-3.63-10.35-5.53,1.67-3.17,10.36,2.39,8.68Z" transform="translate(-62.28 -23.05)"/><path d="M66.06,269.9c10.51,4.21,21.76,3.7,32.87,4.06.77,0,.77-1.18,0-1.2-11-.35-22.14.15-32.55-4-.72-.29-1,.87-.32,1.16Z" transform="translate(-62.28 -23.05)"/><path d="M133.59,268.74c-11,4.19-22.74,3.66-34.29,4-.77,0-.77,1.22,0,1.2,11.67-.36,23.52.18,34.61-4.06.71-.27.4-1.43-.32-1.16Z" transform="translate(-62.28 -23.05)"/><path d="M94.44,295.83c-6.59-8.9-20-9.81-30-12.24-.75-.18-1.07,1-.32,1.16,9.47,2.3,23,3.27,29.23,11.69.45.61,1.5,0,1-.61Z" transform="translate(-62.28 -23.05)"/><path d="M106.92,296.44c6.22-8.41,19.77-9.38,29.23-11.69.75-.18.43-1.34-.32-1.16-10,2.42-23.36,3.33-30,12.24-.46.62.58,1.22,1,.61Z" transform="translate(-62.28 -23.05)"/><path d="M93.2,296c1.78,2.27,2.27,5.84,2.42,8.62,0,.77,1.24.77,1.2,0-.17-3.19-.75-6.9-2.77-9.47-.48-.61-1.32.25-.85.85Z" transform="translate(-62.28 -23.05)"/><path d="M106.27,295.2c-2,2.58-2.6,6.28-2.77,9.47,0,.77,1.16.77,1.2,0,.15-2.78.64-6.36,2.42-8.62.47-.6-.37-1.46-.85-.85Z" transform="translate(-62.28 -23.05)"/><path d="M65.76,269.12A38.76,38.76,0,0,0,63.29,284a.6.6,0,0,0,1.2,0,38,38,0,0,1,2.42-14.55c.29-.72-.87-1-1.16-.32Z" transform="translate(-62.28 -23.05)"/><path d="M133.34,269.74c2.44,3.77,2.27,9.67,2.31,14a.6.6,0,0,0,1.2,0c0-4.52.07-10.67-2.48-14.61-.42-.65-1.46,0-1,.61Z" transform="translate(-62.28 -23.05)"/><path d="M96.73,304.45c1-1.15,1.89-1.91,3.54-1.71a4.6,4.6,0,0,1,3.11,1.88c.32.7,1.36.09,1-.61a5.32,5.32,0,0,0-3.74-2.44,4.8,4.8,0,0,0-4.79,2c-.49.59.36,1.44.85.85Z" transform="translate(-62.28 -23.05)"/><path class="cls-2" d="M112.76,94.3l-.13.5c.54-.36.22-1.33-.46-1.1l-.85,0,.36.88-.11-.72a.61.61,0,0,0-.52.9l.29.51a.62.62,0,0,0,.68.28l3.68-.73c.76-.15.43-1.29-.32-1.16l-1,.18.32,1.16a6.56,6.56,0,0,1,3.3-.63.6.6,0,0,0,0-1.2l-1.68,0v1.2a9.38,9.38,0,0,1,2.75.24c.75.14,1.08-1,.32-1.16l-1-.21a.6.6,0,0,0-.32,1.16,7,7,0,0,0,2.45.5.61.61,0,0,0,.6-.6v-.17a.62.62,0,0,0-.6-.6l-.13,0c-.71-.08-.75,1-.16,1.18l.83.3a.6.6,0,0,0,.74-.74l-.19.49a.61.61,0,0,0,.88-.36l.39-1.27-.88.36-.28-.44c-.23.63.82,1.09,1.1.46l.64-1a.6.6,0,0,0-.58-1,35.68,35.68,0,0,1-9.52,1.14l.16,1.18,1.59-.25-.46-1.1-1.42.5.46,1.1.86-.1-.16-1.18-2.13-.25v1.16l2.49-.56-.46-1.1-1.4.6a.6.6,0,0,0,.32,1.16,21.32,21.32,0,0,0,3.29-1.22c.7-.32.09-1.35-.61-1l-1.69.6.32,1.16a24,24,0,0,0,3.09-1.35L116.8,91l-.41.45c-.44.48.13,1.34.73.94l2.74-1.84-.82-.82a7,7,0,0,1-2.31,2.34l.61,1a21.59,21.59,0,0,1,3.24-2l-.73-.94a5.41,5.41,0,0,1-2.41,1.82l.73.94,2.26-1.46-.68-.88L118.15,92l.82.82L120.85,91l-.9-.52L119.5,92l1.1.46,1.57-1.81-.88-.68-.53,1.69c-.35.68.66,1.29,1,.61l1-1.48-1-.42-.43,2,1.12.3.4-1.24-1.1-.46.15,1.36-.74-.74,2.1-.39-.76-.58-.87,1.49,1,.58a5.16,5.16,0,0,1,2.53-3.53l-.88-.68a8.45,8.45,0,0,1-1.82,3.21l1,.58a3.64,3.64,0,0,1,1.44-2.82l-.94-.73a13.88,13.88,0,0,1-2.74,3.3l1,.58a3.25,3.25,0,0,1,1.45-2.29l-.94-.73a7,7,0,0,1-2,2.22l.94.73a11,11,0,0,1,2.59-3l-.85-.85a10.61,10.61,0,0,1-5.85,3.3l.58,1a6.22,6.22,0,0,1,2.43-1.63c.71-.33.09-1.34-.61-1l-2.62,1.14.73.94,2.47-2.23c.5-.45-.17-1.35-.73-.94l-1.56,1.13.73.94.83-.68-.85-.85-1.4,1,.61,1,1.81-1.38-.73-.94-2,1.19.58,1a9.89,9.89,0,0,1,3.48-2.33l-.73-.94a7.85,7.85,0,0,1-2,1.38l.73.94,2.31-1.56-.58-1-.74.81c-.52.57.31,1.41.85.85l1.74-1.82L122,87.2l-1.33,2.14c-.41.66.61,1.24,1,.61a6,6,0,0,1,2.06-2.08l-.88-.68a8.17,8.17,0,0,1-1.09,2.06c-.43.66.59,1.22,1,.61A8.1,8.1,0,0,1,125,87.57l-.88-.68a6.55,6.55,0,0,1-1.43,2.78l.94.73a12,12,0,0,1,2.12-2.58l-1-.58-1.1,2,1,.58a10.67,10.67,0,0,1,1.05-2.41.6.6,0,0,0-1-.61,14,14,0,0,1-2.45,2.73l1,.42,1.15-2.17-.94-.73-1.7,1.38.68.88a13.37,13.37,0,0,1,2.43-2.48c.53-.43-.16-1.32-.73-.94l-2.09,1.4.82.82L124,86.63,123,86l-.52.93a.6.6,0,0,0,.94.73,32.8,32.8,0,0,0,3.51-3.79l-.94-.73A16.39,16.39,0,0,1,123,86.54l1,.58a10.36,10.36,0,0,1,2.53-3.64l-.94-.73-1.25,2.49c-.35.69.68,1.3,1,.61A16.07,16.07,0,0,1,128.16,82l-.94-.73-1.87,3.9,1,.61a7.14,7.14,0,0,1,.94-1.67l-1.1-.46A23.27,23.27,0,0,1,124.77,87l1.1.46a11.23,11.23,0,0,1,1.21-2.4l-1-.61a7.24,7.24,0,0,1-1.58,2.33l1,.58a6.21,6.21,0,0,1,1.29-2.65l-1.1-.46-.36,1.2a.6.6,0,0,0,1.16.32l.36-1.2c.2-.68-.72-1-1.1-.46a9.57,9.57,0,0,0-1.41,2.94.6.6,0,0,0,1,.58,11.37,11.37,0,0,0,1.77-2.57.6.6,0,0,0-1-.61,18,18,0,0,0-1.33,2.68c-.25.63.78,1.06,1.1.46a25,25,0,0,0,1.57-3.66c.23-.67-.74-1-1.1-.46a7.14,7.14,0,0,0-.94,1.67c-.33.69.7,1.3,1,.61l1.87-3.9c.28-.58-.44-1.25-.94-.73a16.92,16.92,0,0,0-2.93,4.12l1,.61,1.25-2.49a.6.6,0,0,0-.94-.73,11.68,11.68,0,0,0-2.84,4.17c-.25.6.6.94,1,.58A17.38,17.38,0,0,0,127,83.77c.37-.56-.52-1.27-.94-.73a32.8,32.8,0,0,1-3.51,3.79l.94.73.52-.93c.39-.69-.59-1.21-1-.61l-1.13,1.53c-.36.48.34,1.14.82.82l2.09-1.4L124,86a15.16,15.16,0,0,0-2.62,2.73.61.61,0,0,0,.68.88,4.52,4.52,0,0,0,2.42-1.93c.41-.6-.45-1.14-.94-.73a3.84,3.84,0,0,0-1.5,3c0,.56.67.74,1,.42a16,16,0,0,0,2.64-3l-1-.61a17.87,17.87,0,0,0-1.17,2.7.6.6,0,0,0,1,.58,5.19,5.19,0,0,0,1.41-2.57.6.6,0,0,0-1-.58,12.85,12.85,0,0,0-2.31,2.82c-.35.57.52,1.27.94.73a9.88,9.88,0,0,0,1.73-3.31c.14-.47-.45-1-.88-.68a12.08,12.08,0,0,0-2.66,2.71l1,.61A13.07,13.07,0,0,0,124,87.5c.19-.48-.47-1-.88-.68a9.09,9.09,0,0,0-2.49,2.51l1,.61L123,87.8a.6.6,0,0,0-.94-.73l-1.74,1.82.85.85.74-.81c.37-.4,0-1.24-.58-1a7.63,7.63,0,0,0-2.84,1.86.6.6,0,0,0,.73.94,12.74,12.74,0,0,0,2.25-1.57c.56-.48-.16-1.19-.73-.94A11.56,11.56,0,0,0,117,90.75a.6.6,0,0,0,.58,1,5.61,5.61,0,0,0,2.48-1.5c.47-.46-.17-1.36-.73-.94l-1.81,1.38a.6.6,0,0,0,.61,1,5.86,5.86,0,0,0,1.64-1.14c.59-.5-.26-1.33-.85-.85l-.83.68c-.52.43.17,1.34.73.94l1.56-1.13-.73-.94-2.47,2.23c-.55.49.15,1.19.73.94l2.62-1.14-.61-1a9.54,9.54,0,0,0-2.67,1.82.6.6,0,0,0,.58,1,11.78,11.78,0,0,0,6.38-3.61.6.6,0,0,0-.85-.85,11.48,11.48,0,0,0-2.78,3.29c-.36.62.44,1.14.94.73a10.7,10.7,0,0,0,2.24-2.47c.41-.6-.45-1.13-.94-.73a4.82,4.82,0,0,0-1.76,2.82.6.6,0,0,0,1,.58A14.47,14.47,0,0,0,125,89.34a.6.6,0,0,0-.94-.73A5.12,5.12,0,0,0,122.3,92c-.07.51.58,1.11,1,.58a12.42,12.42,0,0,0,2.13-3.74.61.61,0,0,0-.88-.68,7.15,7.15,0,0,0-3.08,4.24.61.61,0,0,0,1,.58,3,3,0,0,0,1.22-2.33.6.6,0,0,0-.76-.58c-1.31.48-4.1,2.07-2.81,3.75a.62.62,0,0,0,.68.28,2.34,2.34,0,0,0,1.51-2.16.61.61,0,0,0-.74-.74c-.89.22-2.67,1.36-1.36,2.43s2.35-1.48,2.69-2.32c.28-.68-.73-1-1.1-.46-.68.9-.61.72-.57,1.84,0,.56.84.86,1.12.3a5,5,0,0,0,.6-2.62c0-.48-.68-.85-1-.42a7.4,7.4,0,0,0-1.19,1.73l1,.61a3.91,3.91,0,0,0,.66-2,.61.61,0,0,0-.88-.68,3.94,3.94,0,0,0-2.12,2.53c-.22.65.76,1,1.1.46a2.79,2.79,0,0,0,.62-2.07.61.61,0,0,0-.9-.52,6,6,0,0,0-2.31,2.19c-.36.55.32,1,.82.82a3.66,3.66,0,0,0,2-1.89.61.61,0,0,0-.68-.88A6,6,0,0,0,117.3,92a.6.6,0,0,0,.73.94,8.25,8.25,0,0,0,2.66-2A.6.6,0,0,0,120,90a21.59,21.59,0,0,0-3.24,2c-.6.46,0,1.49.61,1a10.47,10.47,0,0,0,2.74-2.77.6.6,0,0,0-.82-.82l-2.74,1.84.73.94.41-.45a.6.6,0,0,0-.73-.94,14.54,14.54,0,0,1-2.8,1.22.6.6,0,0,0,.32,1.16,8.48,8.48,0,0,0,2-.72l-.61-1a13.35,13.35,0,0,1-3,1.1l.32,1.16a5.5,5.5,0,0,0,1.69-.72.6.6,0,0,0-.46-1.1l-2.49.56c-.64.14-.49,1,0,1.16a4.19,4.19,0,0,0,2.77.25c.72-.14.46-1.11-.16-1.18A1.91,1.91,0,0,0,113,93c-.66.3-.16,1.21.46,1.1a3.33,3.33,0,0,0,1.71-.62c.64-.35.17-1.2-.46-1.1l-1.59.25c-.68.11-.5,1.17.16,1.18a36.87,36.87,0,0,0,9.83-1.18l-.58-1a2.77,2.77,0,0,0-.82,1.24l1.1.46.07-.2a.6.6,0,0,0-.28-.68l-.07,0a.61.61,0,0,0-.88.36l-.39,1.27.88-.36-.53-.25a.63.63,0,0,0-.73.09l-.22.19a.6.6,0,0,0-.15.58l.06.24.74-.74-.83-.3-.16,1.18a2.16,2.16,0,0,0-2-1.47L118,94.38l1,.21.32-1.16a15.21,15.21,0,0,0-3.07-.29.6.6,0,0,0,0,1.2l1.68,0v-1.2a9.9,9.9,0,0,0-3.62.67.6.6,0,0,0,.32,1.16l1-.18-.32-1.16c-.16,0-3.11.81-3.29.49l-.52.9c.67,0,.8-.07,1.14-.65a.61.61,0,0,0-.09-.73,1.14,1.14,0,0,0-2,.3.61.61,0,0,0,.36.88,1.63,1.63,0,0,0,1.49,0l-.46-1.1-.18.12a.62.62,0,0,0-.22.82l.1.2c.35.69,1.39.08,1-.61Z" transform="translate(-62.28 -23.05)"/><path class="cls-2" d="M73,81.32l-.54-1.1-.94.73,1.5,1.7c.45.5,1.34-.17.94-.73l-1-1.47-.82.82,1.13,1,.85-.85-1-1.14a.6.6,0,0,0-.94.73l.56.89,1-.61a5.42,5.42,0,0,0-1-1.25c-.44-.47-1.11,0-1,.58l.13.68,1-.58-1-1.07c-.52-.57-1.36.28-.85.85L74.21,84l.85-.85-1.57-1.64-.85.85,2.25,2.13.85-.85-1.5-1.21a.6.6,0,0,0-.85.85l1.24,1.42.85-.85a4.58,4.58,0,0,1-1.14-1.08l-.85.85,1.87,1.83a.6.6,0,0,0,.85-.85l-1.62-1.76-.85.85a23.82,23.82,0,0,1,2.09,2.21c.5.6,1.33-.26.85-.85a5.41,5.41,0,0,0-1-1.1.6.6,0,0,0-.85.85l1.38,1.59L77,85.5l-1.11-1.24-.85.85,1.88,1.71a.6.6,0,0,0,.85-.85l-.65-.68c-.54-.56-1.38.29-.85.85l1.87,2,.85-.85-1.09-1a.6.6,0,0,0-.85.85L78.76,89l.85-.85-.9-.92-.73.94,2.36,1.75c.54.4,1.26-.52.73-.94a14.3,14.3,0,0,0-2-1.41c-.57-.35-1.26.5-.73.94.86.71,1.73,1.36,2.66,2,.64.43,1.24-.61.61-1l-1-.68-.61,1,2.89,1.35c.69.32,1.28-.64.61-1l-.83-.48a.6.6,0,0,0-.73.94,7.24,7.24,0,0,0,2.36,1.66l.46-1.1L83.92,91c-.61-.1-1.14.81-.46,1.1l1.81.78c.69.3,1.31-.69.61-1L84,90.94,83.56,92l2.08.88.46-1.1-1.23-.34a.6.6,0,0,0-.46,1.1,4.27,4.27,0,0,0,2.33.88.61.61,0,0,0,.52-.9l-.07-.16a.6.6,0,0,0-.68-.28l-.12,0c-.41.16-.67.87-.14,1.1l1,.44.46-1.1-.88-.29-.32,1.16,1.33,1.3L89,94.61v-.36l-1.1.14A14.3,14.3,0,0,1,88.67,96l1-.61c-1-1.63-2.1-1.81-4-1.71-.55,0-.87.83-.3,1.12l2,1a.6.6,0,0,0,.61-1l-1.29-.77L86.25,95a6,6,0,0,1,1.75.4l.32-1.16-1.6-.55-.46,1.1.88.21a.6.6,0,0,0,.32-1.16l-1.85-1L85.14,94l1.68.51a.6.6,0,0,0,.46-1.1L86,92.62l-.61,1,1,.46.46-1.1a18.58,18.58,0,0,1-4.36-1.23c-.62-.26-1.08.82-.46,1.1l2,.87.46-1.1-1.94-.8-.61,1a5.59,5.59,0,0,1,1.57.86l.46-1.1L83,92.52a.6.6,0,0,0-.46,1.1,4.17,4.17,0,0,0,1.34.76l.46-1.1a26.4,26.4,0,0,1-3.83-1.58l-.46,1.1.66.24c.65.24,1-.76.46-1.1l-1-.56a.6.6,0,0,0-.73.94l1,1.39.94-.73-3.13-3.63-.85.85,3.24,2.56c.6.47,1.45-.37.85-.85-1.27-1-2.47-2-3.64-3.16l-.85.85a7,7,0,0,1,1.8,2.12l.36-.88-1.41-.21c-.54-.41-1.26.52-.73.94l1,.8c.59.46,1.4-.28.85-.85l-1.76-1.8-.73.94,2,1.44c.55.39,1.24-.49.73-.94-.91-.8-1.78-1.61-2.63-2.47l-.73.94,4.19,2.73c.66.43,1.22-.59.61-1L76.08,88l-.61,1A36.43,36.43,0,0,1,80,91.51c.65.42,1.24-.61.61-1l-5.82-3.93-.46,1.1a34.22,34.22,0,0,1,5.53,2.72l.61-1c-1.71-1-3.35-2-5-3.13l-.61,1q3.33,2.1,6.57,4.33l.61-1a56.22,56.22,0,0,1-5.62-3.82l-.73.94c1.92,1.14,3.78,2.35,5.59,3.65l.61-1-4.53-2.49a.6.6,0,0,0-.61,1l4.83,3.08.3-1.12-1.26-.3-.32,1.16a6.24,6.24,0,0,1,2.44.93l.46-1.1-1.39-.58L81.42,92a14.82,14.82,0,0,1,3.08,1.4l.46-1.1a7.64,7.64,0,0,1-2.2-1.2l-.61,1q1,.44,1.94.81a.61.61,0,0,0,.12.94,4.39,4.39,0,0,0,4.73.36.61.61,0,0,0-.14-1.1A19.09,19.09,0,0,1,76,84.92l-.82.82a23.94,23.94,0,0,1,2.26,1.92c.57.52,1.41-.31.85-.85a48,48,0,0,0-4.4-3.71c-.56-.42-1.17.47-.73.94l2.9,3.1.85-.85a14.25,14.25,0,0,1-4.25-5.37l-.94.73a19.65,19.65,0,0,1,2.66,2.88l.94-.73-1.52-1.87c-.46-.57-1.2.16-.94.73l1.9,4.26.68-.88a3.09,3.09,0,0,0-1.74-.38.6.6,0,0,0-.52.9c1.45,2.17,2.37,4.63,3.77,6.87l.82-.82L77,92.07c-.58-.43-1.13.46-.73.94l.73.87.58-1-.66-.21a.6.6,0,0,0-.58,1,3.06,3.06,0,0,0,1.1.86.6.6,0,0,0,.73-.94l-.7-.69-.85.85.91.8a.6.6,0,0,0,.85-.85,5.52,5.52,0,0,0-1.5-1.38l-.61,1,.74.5c.6.4,1.15-.45.73-.94l-3.56-4.15-.73.94A12.58,12.58,0,0,1,76.16,92l.85-.85A10.53,10.53,0,0,1,73.76,87l-.94.73a32.77,32.77,0,0,1,4.47,4.3c.51.59,1.33-.26.85-.85a30,30,0,0,0-4.81-4.71c-.59-.46-1.39.27-.85.85a43.1,43.1,0,0,1,2.83,3.31l.68-.88-.92-.32c-.63-.22-.91.58-.58,1a12,12,0,0,0,1.57,1.83l.73-.94-1.55-.83-.61,1,1.15.83.73-.94-1.76-1.05c-.67-.4-1.23.6-.61,1l1.24.87.46-1.1-.93-.38c-.54-.22-1,.64-.58,1L76,93.15l.73-.94-1.5-.93c-.68-.42-1.2.58-.61,1l1.1.84.61-1-2.06-1.5-.61,1,1.51,1c.64.44,1.24-.6.61-1l-2.2-1.53-.3,1.12.63,0a.61.61,0,0,0,.3-1.12l-1.53-1.17-.58,1a6.5,6.5,0,0,1,2.09,1.18c.55.41,1.21-.48.73-.94L73,88.35l-.85.85a3.59,3.59,0,0,1,.89.92c.49.6,1.32-.25.85-.85l-.46-.58c-.48-.61-1.32.25-.85.85l.46.58.85-.85a3.59,3.59,0,0,0-.89-.92c-.58-.5-1.41.31-.85.85L74,91l.73-.94a10.12,10.12,0,0,0-2.37-1.3c-.57-.23-1,.61-.58,1a6.65,6.65,0,0,0,1.77,1.36l.3-1.12-.63,0a.61.61,0,0,0-.3,1.12l2.2,1.53.61-1-1.51-1c-.64-.44-1.22.59-.61,1l2.06,1.5c.63.46,1.2-.58.61-1l-1.1-.84-.61,1,1.5.93c.57.35,1.27-.51.73-.94L75.16,91l-.58,1,.93.38c.67.27,1-.73.46-1.1l-1.24-.87-.61,1,1.76,1.05a.6.6,0,0,0,.73-.94,3.61,3.61,0,0,0-1.39-1c-.68-.36-1.29.67-.61,1l1.55.83a.6.6,0,0,0,.73-.94,12,12,0,0,1-1.57-1.83l-.58,1,.92.32c.46.16,1-.46.68-.88-1-1.24-1.95-2.41-3-3.55l-.85.85a30,30,0,0,1,4.81,4.71l.85-.85a32.77,32.77,0,0,0-4.47-4.3.6.6,0,0,0-.94.73A11,11,0,0,0,76.16,92a.6.6,0,0,0,.85-.85,14.5,14.5,0,0,0-2.94-2.5c-.6-.39-1.15.45-.73.94l3.56,4.15.73-.94-.74-.5c-.65-.44-1.21.58-.61,1l1.26,1.2.85-.85-.91-.8c-.57-.51-1.4.3-.85.85l.7.69.73-.94-.86-.68-.58,1,.66.21c.62.19.94-.58.58-1l-.73-.87-.73.94.72.54c.49.37,1.12-.34.82-.82-1.39-2.23-2.32-4.69-3.77-6.87l-.52.9,1.42.34c.54.23.86-.47.68-.88l-1.9-4.26-.94.73,1.52,1.87c.43.52,1.35-.18.94-.73a21.83,21.83,0,0,0-2.84-3.12.6.6,0,0,0-.94.73A14.79,14.79,0,0,0,76,87.15c.59.47,1.39-.27.85-.85L74,83.2l-.73.94a45.25,45.25,0,0,1,4.15,3.52l.85-.85c-.81-.74-1.64-1.43-2.51-2.1-.48-.37-1.15.35-.82.82a20.28,20.28,0,0,0,13.56,8.74l-.14-1.1-3.52-.36.12.94.19-.16a.58.58,0,0,0,.15-.58c-.42-1.13-1.41-1.46-2.53-2a.6.6,0,0,0-.61,1,12,12,0,0,0,2.49,1.32c.64.25,1-.78.46-1.1a23.91,23.91,0,0,0-3.36-1.52c-.65-.24-1,.76-.46,1.1a4.15,4.15,0,0,0,1.67.7.6.6,0,0,0,.46-1.1,10,10,0,0,0-2.72-1,.6.6,0,0,0-.32,1.16A4.66,4.66,0,0,0,82,92c.63.07.76-.83.3-1.12l-4.83-3.08-.61,1,4.53,2.49a.6.6,0,0,0,.61-1c-1.82-1.3-3.67-2.51-5.59-3.65-.57-.34-1.28.52-.73.94a58.82,58.82,0,0,0,5.86,4c.67.4,1.23-.6.61-1q-3.24-2.23-6.57-4.33c-.66-.42-1.23.6-.61,1,1.61,1.13,3.25,2.17,5,3.13a.6.6,0,0,0,.61-1,36.27,36.27,0,0,0-5.82-2.84c-.67-.26-1,.74-.46,1.1L80,91.51l.61-1A36.43,36.43,0,0,0,76.08,88a.6.6,0,0,0-.61,1l4.61,3.36.61-1L76.5,88.6c-.58-.38-1.2.47-.73.94.85.86,1.72,1.67,2.63,2.47l.73-.94-2-1.44c-.57-.4-1.19.47-.73.94l1.76,1.8.85-.85-1-.8-.73.94a2,2,0,0,0,2.33.33.61.61,0,0,0,.36-.88,11,11,0,0,0-2-2.36c-.57-.52-1.41.31-.85.85,1.17,1.11,2.38,2.16,3.64,3.16l.85-.85-3.24-2.56a.6.6,0,0,0-.85.85l3.13,3.63c.45.52,1.3-.15.94-.73a7.45,7.45,0,0,0-1.22-1.64l-.73.94,1,.56.46-1.1-.66-.24c-.64-.23-1.07.79-.46,1.1a28.12,28.12,0,0,0,4.12,1.7c.64.21,1.09-.81.46-1.1a4.17,4.17,0,0,1-1.34-.76l-.46,1.1.91.14a.6.6,0,0,0,.46-1.1,5.59,5.59,0,0,0-1.57-.86c-.69-.31-1.3.67-.61,1a8.13,8.13,0,0,0,2.23.93c.64.2,1.09-.82.46-1.1l-2-.87-.46,1.1a18.58,18.58,0,0,0,4.36,1.23c.61.1,1.14-.79.46-1.1l-1-.46c-.69-.31-1.29.65-.61,1l1.32.75.46-1.1-1.68-.51c-.68-.2-1,.73-.46,1.1A7.27,7.27,0,0,0,87.13,95l.32-1.16-.88-.21c-.64-.15-1.09.77-.46,1.1a4.08,4.08,0,0,0,1.89.67.6.6,0,0,0,.32-1.16,6,6,0,0,0-1.75-.4.6.6,0,0,0-.46,1.1l1.29.77.61-1-2-1-.3,1.12a2.81,2.81,0,0,1,3,1.12c.41.68,1.34.09,1-.61A14.3,14.3,0,0,0,89,93.79c-.26-.51-.92-.29-1.1.14a1,1,0,0,0,0,1A.6.6,0,0,0,89,94.77c.18-1.57-.8-2.13-2.21-2.46a.6.6,0,0,0-.32,1.16l.88.29c.63.21,1.09-.82.46-1.1l-1-.44-.14,1.1-.49-.16.52-.9A4.07,4.07,0,0,1,85,91.54l-.46,1.1,1.23.34c.64.18,1.09-.79.46-1.1a16,16,0,0,0-2.36-1,.6.6,0,0,0-.46,1.1l1.85.9.61-1-1.81-.78-.46,1.1.84.14c.61.1,1.13-.79.46-1.1a4.71,4.71,0,0,1-2.12-1.48l-.73.94.83.48.61-1L80.6,88.77a.6.6,0,0,0-.61,1l1,.68.61-1a20.33,20.33,0,0,1-2.42-1.79l-.73.94,1.76,1.22.73-.94-2.36-1.75c-.56-.42-1.19.47-.73.94l.9.92c.54.55,1.37-.28.85-.85L77.93,86.3l-.85.85,1.09,1a.6.6,0,0,0,.85-.85l-1.87-2-.85.85.65.68.85-.85-1.88-1.71a.6.6,0,0,0-.85.85l1.11,1.24c.52.58,1.35-.27.85-.85l-1.38-1.59-.85.85a5.41,5.41,0,0,1,1,1.1l.85-.85a23.82,23.82,0,0,0-2.09-2.21.6.6,0,0,0-.85.85l1.62,1.76.85-.85-1.87-1.83c-.56-.54-1.36.27-.85.85a4.58,4.58,0,0,0,1.14,1.08.6.6,0,0,0,.85-.85l-1.24-1.42-.85.85,1.5,1.21c.59.47,1.42-.31.85-.85l-2.25-2.13a.6.6,0,0,0-.85.85L74.21,84c.54.56,1.36-.28.85-.85l-3.14-3.48-.85.85,1,1.07c.43.48,1.11,0,1-.58l-.13-.68-1,.58.78,1c.41.65,1.45.05,1-.61l-.56-.89-.94.73,1,1.14c.52.58,1.36-.27.85-.85a3.81,3.81,0,0,0-1.37-1.15c-.49-.31-1.17.32-.82.82l1,1.47.94-.73-1.5-1.7c-.47-.54-1.23.15-.94.73l.54,1.1c.34.69,1.38.09,1-.61Z" transform="translate(-62.28 -23.05)"/><path class="cls-2" d="M120.91,92.92l-.56-.12a.61.61,0,0,0-.68.88l.07.14.09-.73.25-.12v1l.26-.12a.61.61,0,0,0-.14-1.1c-2.64-.55-5.37-.67-7.73.82-.65.41,0,1.45.61,1,2.08-1.32,4.48-1.18,6.81-.7l-.14-1.1-.26.12c-.46.21-.31.8,0,1a.82.82,0,0,0,1.21-.07.62.62,0,0,0,.09-.73l-.07-.14L120,94l.56.12c.75.16,1.08-1,.32-1.16Z" transform="translate(-62.28 -23.05)"/><path class="cls-2" d="M66.77,55.42l-.12.61a.76.76,0,0,0,1.1.85c.75-.33,1-1.22,1.26-1.95a23.42,23.42,0,0,1,1.66-4.35l-1.4-.38a47.33,47.33,0,0,1-1.68,8l1.47.2c0-.56.08-5.3.6-5.43l-.95-.72a49.58,49.58,0,0,1-.3,5.91h1.5a19.18,19.18,0,0,1,.43-4.32l-1.47-.2a40.53,40.53,0,0,1-.94,6l1.47.2,0-.61c-.06-1-1.56-1-1.5,0l0,.61c.05.8,1.27,1.07,1.47.2a43.26,43.26,0,0,0,1-6.4.75.75,0,0,0-1.47-.2,21,21,0,0,0-.49,4.72.75.75,0,0,0,1.5,0,49.58,49.58,0,0,0,.3-5.91.76.76,0,0,0-.95-.72c-1.93.49-1.68,5.39-1.7,6.88a.75.75,0,0,0,1.47.2,49.64,49.64,0,0,0,1.73-8.43c.09-.78-1-1-1.4-.38a12.22,12.22,0,0,0-1.17,2.67c-.22.7-.55,2.8-1.22,3.1l1.1.85.12-.61c.19-.94-1.26-1.35-1.45-.4Z" transform="translate(-62.28 -23.05)"/><path class="cls-2" d="M70.18,71.48l-1.06-3.43a1.5,1.5,0,0,0-2.89.8A28.88,28.88,0,0,1,67,73.72l2.8-.76-.56-.83a1.51,1.51,0,0,0-2.74,1.16,59.39,59.39,0,0,1,1.12,6.17l2.8-.76-.89-1.39a1.5,1.5,0,0,0-2.59,1.51l6.2,11.41L74.79,88l-1.57-.54c-1-.61-2.71.43-2.2,1.69a5.12,5.12,0,0,0,3.31,3.35c1.66.7,2.46-1.84,1.16-2.74a12,12,0,0,1-3.33-3l-1.82,2.36A12.24,12.24,0,0,1,72.95,91c1.2,1,3.39-.33,2.36-1.82l-2.82-4.07L70.43,87.2l2.14,1.58c1.24.91,2.8-.84,2.05-2.05L72.46,83.2,70.1,85a17.42,17.42,0,0,1,2.63,2.64l2.12-2.12A23.37,23.37,0,0,1,72,81.73l-2.36,1.82,1.58,2.16,2.36-1.82a10.37,10.37,0,0,1-2.35-4.5l-2.74,1.16a39,39,0,0,1,2.09,3.65l2.59-1.51a15.69,15.69,0,0,1-1.93-4.08l-2.74,1.16,1.58,2.8c1,1.71,3.38.21,2.59-1.51l-1.08-3-2.74,1.16a11.49,11.49,0,0,1,1.51,2.56l2.59-1.51L72,78.61l-2.74,1.16,1.33,2.34c.81,1.43,3.41.45,2.74-1.16l-.88-2.11L69.72,80a22.43,22.43,0,0,0,3.37,5.4l2.12-2.12A15.58,15.58,0,0,1,71,73l-2.95.4a31.89,31.89,0,0,1,2.19,8.05l2.89-.8a41.2,41.2,0,0,1-1.25-6.58h-3l.54,4.49,2.95-.4a21.69,21.69,0,0,1-.73-9.34l-2.95.4L69.65,76l2.89-.8a34.39,34.39,0,0,1-1.48-5.64l-2.89.8.6,3.33c.3,1.64,3.17,1.28,2.95-.4a40.49,40.49,0,0,1-.2-9h-3c.18,2.27.25,4.52.21,6.8l2.95-.4a17.87,17.87,0,0,1,.41-7.84l-2.95-.4a23.31,23.31,0,0,1-.28,5l2.95.4a22.82,22.82,0,0,1,.4-4.73l-2.95-.4L69,70h3a25.54,25.54,0,0,1,0-5.09H69l-.22,4.76h3c0-2,.07-4,.24-6l-2.95.4A16.09,16.09,0,0,1,69,71.71l2.95.4A46.26,46.26,0,0,1,74.4,57l-2.89-.8a58.4,58.4,0,0,1-2.14,8.88l2.95.4a36.76,36.76,0,0,1,4.75-16.4l-2.74-1.16a44.34,44.34,0,0,1-2.71,7.38l2.74,1.16a65.69,65.69,0,0,1,8.16-15.75l-2.59-1.51L77.5,43.6c-.78,1.43,1.24,3.19,2.36,1.82a50.31,50.31,0,0,1,4.31-4.67l-2.51-.66.22,1.16a1.52,1.52,0,0,0,2.74.36l.54-.87-2.74-.36L83,42.55a1.52,1.52,0,0,0,2.26,1.3l1-.2a1.52,1.52,0,0,0,1.82.23c.53-.26,5.15-.21,5.71.4a1.52,1.52,0,0,0,2.12,0h1.62a1.52,1.52,0,0,0,2.36.3c1.2-1.25,4.28-.32,5.89-1.45l-2.26-1.3-.1.67A1.5,1.5,0,0,0,106,44c1.27-1.77,4,0,5.67-.19,2.54-.29,3.06-1.48,6.29-1.13a1.52,1.52,0,0,0,1.5-1.5c.18-8.29-11.61-6.44-15.56-2.53l2.36,1.82,3.08-4.16c1-1.35-.86-2.58-2.05-2.05-5.39,2.4-12,5.05-17,.46a1.55,1.55,0,0,0-2.12,0A36.62,36.62,0,0,1,81.31,39l2.05,2.05a12.35,12.35,0,0,1,3.95-4.52l-2.05-2.05a67.52,67.52,0,0,1-7.57,8.24l2.51,1.46a20.91,20.91,0,0,1,2-4.42l-2.59-1.51a59.75,59.75,0,0,1-4.48,7.28l2.74,1.16a11.62,11.62,0,0,1,1.3-3.5l-2.59-1.51a46,46,0,0,1-4.18,7.53h2.59l-.22-2.54A1.51,1.51,0,0,0,72,45.5c-3.9,6.5-4.59,14.25-5,21.68-.39,7.15-1.21,14.29,2.68,20.57L72,85.92a7.7,7.7,0,0,1-2.28-2.51,1.5,1.5,0,0,0-2.59,1.51,16.24,16.24,0,0,0,2.61,3.94c1.28,1.47,3.32-.65,2.12-2.12a30.82,30.82,0,0,1-3.58-5.47l-2.59,1.51,2.62,4.49a1.5,1.5,0,0,0,2.59-1.51,39.56,39.56,0,0,1-3.39-8.61c-.42-1.58-3.17-1.32-2.95.4a11.41,11.41,0,0,0,.65,2.95c.61,1.81,3.42,1.08,2.89-.8-2.74-9.83-.86-19.67,3.05-28.9L68.39,50c-.46,5.93-3.7,11-2.62,17.07.34,1.9,3.23,1.09,2.89-.8l-.57-3.19c-.25-1.41-2.68-1.45-2.89,0a29.61,29.61,0,0,1-1.65,6.73h2.89a37.56,37.56,0,0,1,12.23-33L76.32,35a107.28,107.28,0,0,1-7.18,10.79c-1.16,1.54,1.44,3,2.59,1.51a107.28,107.28,0,0,0,7.18-10.79,1.51,1.51,0,0,0-2.36-1.82,40.62,40.62,0,0,0-13,35.9c.22,1.64,2.43,1.18,2.89,0a29.61,29.61,0,0,0,1.65-6.73H65.21l.57,3.19,2.89-.8c-1-5.5,2.3-10.81,2.73-16.27.11-1.43-2.21-2.13-2.8-.76-4.23,10-6.32,20.58-3.36,31.21l2.89-.8-.54-2.15-2.95.4a43,43,0,0,0,3.69,9.33l2.59-1.51-2.62-4.49a1.5,1.5,0,0,0-2.59,1.51,35.61,35.61,0,0,0,4,6.08l2.12-2.12a9.73,9.73,0,0,1-2.14-3.33l-2.59,1.51A13.27,13.27,0,0,0,69.9,88c1.23,1,3.31-.27,2.36-1.82-3.47-5.6-2.62-12.69-2.27-19.05.38-6.91,1-14.11,4.59-20.16l-2.74-1.16a7.11,7.11,0,0,0,.52,4.85c.48,1.12,2,.82,2.59,0a46,46,0,0,0,4.18-7.53c.76-1.73-1.71-3.27-2.59-1.51a20.54,20.54,0,0,0-1.6,4.22A1.51,1.51,0,0,0,77.67,47a59.75,59.75,0,0,0,4.48-7.28c.89-1.71-1.68-3.22-2.59-1.51a36.55,36.55,0,0,0-2.26,5.14c-.53,1.49,1.48,2.41,2.51,1.46a72.14,72.14,0,0,0,8-8.85c.92-1.18-.87-2.89-2.05-2.05a15.49,15.49,0,0,0-5,5.6,1.51,1.51,0,0,0,2.05,2.05,40.42,40.42,0,0,0,7.4-4.71H88.1c6.19,5.62,13.86,3,20.67,0l-2.05-2.05L103.64,39c-1,1.4,1.18,3,2.36,1.82,1.5-1.48,10.57-5.44,10.44.41l1.5-1.5a43.25,43.25,0,0,0-10.49.58c-1.88.3-2.89.6-4.05,2.22L106,44a3.12,3.12,0,0,0,.51-2.19c-.08-1-1.25-2-2.26-1.3s-2.34-.27-3.5-.12a5.63,5.63,0,0,0-3,2l2.36.3c-1.68-2.26-4.24-2.66-6.33-.62H95.9c-2.09-2.3-6.7-2.16-9.34-.87l1.82.23c-1.44-1.77-2.87-1.15-4.67-.27L86,42.55a7.31,7.31,0,0,0-.65-3,1.52,1.52,0,0,0-2.74-.36l-.54.87,2.74.36-.22-1.16A1.51,1.51,0,0,0,82,38.63a50.31,50.31,0,0,0-4.31,4.67l2.36,1.82,2.43-4.42a1.5,1.5,0,0,0-2.59-1.51,68.61,68.61,0,0,0-8.46,16.47c-.56,1.59,2,2.7,2.74,1.16a49.09,49.09,0,0,0,3-8.09,1.51,1.51,0,0,0-2.74-1.16,40.25,40.25,0,0,0-5.16,17.92c-.09,1.75,2.44,2,2.95.4A58.4,58.4,0,0,0,74.4,57a1.5,1.5,0,0,0-2.89-.8,48.68,48.68,0,0,0-2.57,15.92c0,1.65,2.57,2.09,2.95.4a21,21,0,0,0,.05-9.18c-.36-1.75-2.82-1.19-2.95.4-.16,2-.24,4-.24,6a1.5,1.5,0,0,0,3,0L72,64.94c.09-1.95-2.83-1.9-3,0A25.54,25.54,0,0,0,69,70a1.5,1.5,0,0,0,3,0l.24-7.35c.05-1.65-2.68-2.09-2.95-.4a38.73,38.73,0,0,0-.5,5.53c0,1.64,2.71,2.11,2.95.4a38.16,38.16,0,0,0,.39-5.78,1.51,1.51,0,0,0-2.95-.4,21.36,21.36,0,0,0-.41,9.43c.28,1.71,2.92,1.24,2.95-.4,0-2.28,0-4.53-.21-6.8a1.5,1.5,0,0,0-3,0,40.49,40.49,0,0,0,.2,9l2.95-.4-.6-3.33c-.34-1.9-3.22-1.09-2.89.8A34.39,34.39,0,0,0,69.65,76a1.5,1.5,0,0,0,2.89-.8l-.91-6.72c-.25-1.83-2.75-1.1-2.95.4A23.66,23.66,0,0,0,69.53,79c.46,1.55,3.16,1.34,2.95-.4l-.54-4.49c-.23-1.88-3.21-1.93-3,0a47.23,47.23,0,0,0,1.36,7.37c.52,1.92,3.15,1.06,2.89-.8A31.89,31.89,0,0,0,71,72.61c-.6-1.43-3-1.45-2.95.4a18.78,18.78,0,0,0,5.05,12.38c1.31,1.45,3.33-.66,2.12-2.12a18.82,18.82,0,0,1-2.9-4.79c-.68-1.54-3.4-.42-2.74,1.16l.88,2.11,2.74-1.16-1.33-2.34c-.81-1.43-3.4-.46-2.74,1.16a11.14,11.14,0,0,0,1.2,2.38,1.5,1.5,0,0,0,2.59-1.51,11.49,11.49,0,0,0-1.51-2.56c-.92-1.35-3.24-.56-2.74,1.16a19.55,19.55,0,0,0,1.39,3.69L72.64,81l-1.58-2.8c-.82-1.44-3.33-.48-2.74,1.16a26.89,26.89,0,0,0,2.24,4.79,1.5,1.5,0,0,0,2.59-1.51A39,39,0,0,0,71.05,79c-.89-1.38-3.27-.53-2.74,1.16A17,17,0,0,0,71.44,86c1.07,1.33,3.26-.39,2.36-1.82a19.33,19.33,0,0,0-2-2.77c-1.1-1.3-3.29.4-2.36,1.82a41.2,41.2,0,0,0,3.34,4.41C74,89.13,76,87,74.85,85.53a17.42,17.42,0,0,0-2.63-2.64c-1.24-1-3.31.26-2.36,1.82L72,88.24l2.05-2.05-2.14-1.58c-1.2-.89-2.88.85-2.05,2.05l2.82,4.07,2.36-1.82a22.67,22.67,0,0,0-3.23-2.37c-1.52-.92-2.9,1.11-1.82,2.36A19.79,19.79,0,0,0,74,92.39l1.16-2.74-1.21-1.25-2.2,1.69a4.4,4.4,0,0,0,2.29.84,1.52,1.52,0,0,0,1.69-2.2l-6.2-11.41L66.9,78.83l.89,1.39c.72,1.14,3,.82,2.8-.76a67.67,67.67,0,0,0-1.22-7l-2.74,1.16.56.83a1.51,1.51,0,0,0,2.8-.76,33.61,33.61,0,0,0-.86-5.67l-2.89.8,1.06,3.43c.57,1.84,3.47,1.05,2.89-.8Z" transform="translate(-62.28 -23.05)"/><path class="cls-2" d="M128,87l.9-1.48-2.36-1.82-5.31,9.88a1.51,1.51,0,0,0,2.05,2.05c5.12-3.08,8.92-9.39,11.55-14.6,2.77-5.48,3.87-11.37,1.75-17.25a1.51,1.51,0,0,0-2.89,0C132,70.21,130.62,77,126.2,82.21L128.56,84l3.62-8.45-2.8-.76a19.53,19.53,0,0,1-1.09,6.64c-.58,1.7,1.83,2.48,2.74,1.16l2.63-3.79-2.59-1.51a60.18,60.18,0,0,1-3.59,6.78l2.59,1.51a20.78,20.78,0,0,1,2.08-3.52l-2.59-1.51a38.92,38.92,0,0,1-2,3.84l2.74,1.16c.88-2.29,2.68-4.11,3.47-6.42.68-2,.32-3.66.11-5.65-.28-2.62.24-5,0-7.54a51.4,51.4,0,0,1-.28-9.77c.55-7.05-4.59-17.93-12.55-18.36a1.51,1.51,0,0,0-1.3,2.26l2.42,3.5,2.05-2.05a14,14,0,0,1-3.5-2.88l-2.12,2.12c5.38,5.45,10.25,14,11.3,21.62l2.74-1.16c-1-2.32-1.89-4.65-2.68-7.05l-2.74,1.16a31.77,31.77,0,0,1,2,19.9l2.95.4q.29-7.44.24-14.88l-2.8.76a30.92,30.92,0,0,1,2.73,7.89c.31,1.5,2.5,1.36,2.89,0l1.05-3-2.8-.76a41.37,41.37,0,0,1-.94,6.58l2.89.8a11.73,11.73,0,0,1,1.12-4.13l-2.74-1.16a25.15,25.15,0,0,1-1.27,4.92c-.59,1.61,1.92,2.62,2.74,1.16a25.77,25.77,0,0,0,2.87-7.63l-2.95-.4a8.27,8.27,0,0,1-.61,3.63l2.95.4a42.4,42.4,0,0,0-2.48-18.67c-.55-1.5-3-1.4-2.95.4l.3,11.69a1.5,1.5,0,0,0,3,0,31.58,31.58,0,0,1,.86-6.68h-2.89a28.58,28.58,0,0,1,2,10l2.95-.4L136.53,53l-2.74,1.16a6.28,6.28,0,0,1,1.53,5.13l2.95-.4A87.13,87.13,0,0,0,134,46.07l-2.74,1.16a22.2,22.2,0,0,1,3.08,6.37l2.74-1.16c-3.53-6.68-7.47-13.41-14.61-16.66-1.27-.58-2.91.67-2.05,2.05l8.72,14,2.59-1.51-5.12-8.09c-1-1.63-3.63-.12-2.59,1.51a66.85,66.85,0,0,1,5.79,11.33c.57,1.43,3.1,1.43,2.95-.4-.56-6.62-5.31-11.07-7.71-17l-2.51,1.46a50.61,50.61,0,0,1,8.1,9.41,1.51,1.51,0,0,0,2.74-1.16c-.64-4.24-4.14-6.9-5.33-10.92l-2.74,1.16q3.64,5.21,7.14,10.51c1.06,1.6,3.62.14,2.59-1.51-3-4.77-4.67-10.14-10.65-11.09-7.12-1.13-14.86-.3-22,.05-7.39.37-15.26.78-22.43,2.76-5.74,1.59-8.61,5.73-11.28,10.78l2.74,1.16c2.19-5.33,5.91-9.63,9.71-13.87l-2.36-1.82a38.28,38.28,0,0,1-6,8.35L75,44.75l6.23-9c1.1-1.59-1.5-3.09-2.59-1.51l-6.23,9c-1,1.41,1.19,3,2.36,1.82a41.07,41.07,0,0,0,6.52-9c.78-1.44-1.18-3.13-2.36-1.82C74.79,39,70.9,43.62,68.49,49.48c-.65,1.58,2,2.64,2.74,1.16,3.16-6,6.13-8.84,12.95-10.12a134.7,134.7,0,0,1,18.18-1.93c5.21-.26,10.45-.43,15.67-.43,3.22,0,7.18-.26,9.61,2.24,1.93,2,3.33,5.37,4.8,7.74L135,46.61q-3.51-5.3-7.14-10.51c-.93-1.33-3.25-.57-2.74,1.16,1.18,4,4.71,6.79,5.33,10.92L133.23,47a53.93,53.93,0,0,0-8.57-10c-1-.91-3.11,0-2.51,1.46,2.22,5.48,7.08,10.15,7.6,16.21l2.95-.4a71.13,71.13,0,0,0-6.09-12L124,43.74l5.12,8.09c1,1.63,3.62.13,2.59-1.51l-8.72-14L121,38.37c6.7,3,10.23,9.34,13.53,15.58a1.51,1.51,0,0,0,2.74-1.16,24.48,24.48,0,0,0-3.39-7.08c-.89-1.29-3.44-.52-2.74,1.16a87.13,87.13,0,0,1,4.26,12.86,1.51,1.51,0,0,0,2.95-.4,10.36,10.36,0,0,0-1.94-6.64,1.51,1.51,0,0,0-2.74,1.16L135.45,67c.23,1.69,3,1.26,2.95-.4a30.78,30.78,0,0,0-2.12-10.76c-.5-1.28-2.52-1.57-2.89,0a35,35,0,0,0-1,7.48h3l-.3-11.69-2.95.4a40.52,40.52,0,0,1,2.38,17.87c-.15,1.75,2.45,1.94,2.95.4a14.69,14.69,0,0,0,.72-4.43c0-1.66-2.6-2.08-2.95-.4a23.46,23.46,0,0,1-2.56,6.91l2.74,1.16a25.15,25.15,0,0,0,1.27-4.92c.24-1.51-2-2.86-2.74-1.16a18.68,18.68,0,0,0-1.42,4.85c-.28,1.86,2.46,2.72,2.89.8a46.08,46.08,0,0,0,1-7.38c.09-1.43-2.19-2.12-2.8-.76a20.59,20.59,0,0,0-1.36,3.67h2.89a33.59,33.59,0,0,0-3-8.61,1.51,1.51,0,0,0-2.8.76q.05,7.45-.24,14.88a1.51,1.51,0,0,0,2.95.4,35.22,35.22,0,0,0-2.3-22.22c-.69-1.55-3.27-.45-2.74,1.16.88,2.64,1.88,5.22,3,7.77.74,1.71,3,.35,2.74-1.16-1.14-8.22-6.29-17.08-12.07-22.94-1.36-1.38-3.48.74-2.12,2.12a24,24,0,0,0,4.11,3.35c1.23.8,2.91-.82,2.05-2.05l-2.42-3.5L121,40.83c4.57.25,8.61,7.46,9.46,11.52.75,3.59-.35,7.59-.08,11.26.23,3,.12,5.94.29,9,.16,2.84.21,5.38-1.08,8-.73,1.47-1.61,2.68-2.21,4.23s1.9,2.58,2.74,1.16a38.92,38.92,0,0,0,2-3.84,1.5,1.5,0,0,0-2.59-1.51,20.78,20.78,0,0,0-2.08,3.52,1.5,1.5,0,0,0,2.59,1.51,60.18,60.18,0,0,0,3.59-6.78,1.5,1.5,0,0,0-2.59-1.51l-2.63,3.79,2.74,1.16a21.41,21.41,0,0,0,1.2-7.44c0-1.37-2.18-2.19-2.8-.76L126,82.51c-.61,1.41,1.15,3.24,2.36,1.82,4.81-5.66,6.39-12.73,8.26-19.75h-2.89c2.08,5.76.66,11.22-2.24,16.41C129.08,85.26,126,90.5,121.77,93l2.05,2.05,5.31-9.88a1.51,1.51,0,0,0-2.36-1.82,3.58,3.58,0,0,0-1.67,2.8c-.43,1.88,2.46,2.68,2.89.8Z" transform="translate(-62.28 -23.05)"/><path class="cls-2" d="M94.61,34.52q-4.36-1.92-6.77,4.41l-1.3-2.26L85,38.14a1.51,1.51,0,0,0,.76,2.8L96,41V38a40,40,0,0,1-5.6.24v3c6.12-.18,13,2.1,18.9.35a1.5,1.5,0,0,0-.8-2.89,7,7,0,0,1-5.36-.61l-.8,2.89c5.54,1.46,11.6-1.87,17.26-2.08l-.76-2.8a22,22,0,0,1-5.57,1.56c-1.63.26-1.21,2.42,0,2.89a13.41,13.41,0,0,0,6.14.94,1.5,1.5,0,0,0,0-3c-1.75-.21-3.51-.39-5.26-.62l-2.39-.33q4.81-3.46,6.95.7l2.05-2.05a23,23,0,0,1-5.33-5.75l-1.69,2.2c3.09,1,5.34,3.53,8,5.3,1.64,1.09,3-1.47,1.51-2.59a28.61,28.61,0,0,1-5.84-5.74l-1.69,2.2c2.64.68,5.47,3.9,7.59,5.62,1.48,1.2,3.61-.86,2.12-2.12A23.32,23.32,0,0,1,121.4,31L119.35,33a62.19,62.19,0,0,1,5.74,4c1.34,1,3.11-1.26,1.82-2.36-6.29-5.35-11-9-19.6-6.61-10,2.83-19.24,8.1-29.76,8.84L79,38.81l2-3.11c1.08-1.2-.33-3.35-1.82-2.36l-4.09,2.75,2.05,2.05C81.89,30.76,91.64,26.41,100.22,26a34.35,34.35,0,0,1,12.3,1.9c2.7.94,2.52,1.51-.13,3.34a20.17,20.17,0,0,1-2.58,1.5q-7.71,3.06-.18-1.28l-1.69-2.2a21.51,21.51,0,0,1-4,4.76c-5.48,4.19-1.76-1.81,1.3-1.75l-1.45-1.1c.47,1.36-4.29,4.43-5.21,4.52-4.73.47,1.38-3.45,1.19-3.57L99,30.4a6.47,6.47,0,0,1-2.61,2.84q-2,1.08-.27.61L94.7,31.35c-1.19,1.34-2.6,3-4.45,3.35-2.3.39-2.06-.76.19-2.2l-1.82-2.36a12.25,12.25,0,0,1-6.94,4.56l1.69,2.2a9.3,9.3,0,0,1,4.43-4.8L86,29.76a74.49,74.49,0,0,1-6.75,6.9l2.36,1.82A13.83,13.83,0,0,1,86.2,33l-1.82-2.36L80.7,34.84,82.82,37a50.89,50.89,0,0,1,5.55-6l-2.12-2.12a63.76,63.76,0,0,1-6.41,6.55L82,37.52a61.05,61.05,0,0,1,9.46-7.64l-2.05-2.05a9,9,0,0,1-4,3.86l2.05,2.05c2.82-4.61,8.34-3.46,12.73-2.42l.4-2.95a57.44,57.44,0,0,0-9.47.9c-1.66.29-1.29,3.06.4,2.95,5.22-.35,10.35-.61,15.52.41l.4-2.95a89.48,89.48,0,0,1-9.43-1.59V31c3.12-1,12.06,2.09,14.22,4.42L114,33.06a25.47,25.47,0,0,1-5.76-3.82l-1.46,2.51a17.73,17.73,0,0,1,6.86,4.68l1.06-2.56-1.58.3a1.51,1.51,0,0,0,1.5-1.5l.09-2.21a1.55,1.55,0,0,0-1-1.85A35.39,35.39,0,0,0,98.07,27a1.52,1.52,0,0,0-.76,2.8c2.83,2.16,7.59,1.23,10.88.8,1.48-.19,2.25-2.69.4-2.95q-5.95-.82-11.89-1.69c-1.52-.22-2.83,1.92-1.16,2.74,4.12,2,8.15,1.52,12.53.66,1.76-.35,1.18-2.81-.4-2.95l-10-.86c-1.71-.15-2,2.53-.4,2.95a20.47,20.47,0,0,0,11.19-.08,1.5,1.5,0,0,0-.8-2.89c-5,1.19-10.07.38-14.88,2.27L94.3,30.3c2.11-1.85,10-4.18,12.47-1.29l1.06-2.56c-1.65,0-3.28,0-4.92-.07-1.93-.07-1.93,2.93,0,3,1.64.06,3.28.08,4.92.07a1.52,1.52,0,0,0,1.06-2.56c-3.68-4.35-13-1.94-16.71,1.29-1.08,1,.06,3.06,1.46,2.51,4.75-1.88,10-1.1,14.88-2.27l-.8-2.89a17.54,17.54,0,0,1-9.6.08l-.4,2.95,10,.86-.4-2.95c-3.5.69-6.89,1.27-10.22-.35l-1.16,2.74q5.94.87,11.89,1.69l.4-2.95c-2.43.32-7.23,1.24-9.36-.39L98.07,30a33.55,33.55,0,0,1,14.78,1.51l-1-1.85a9.83,9.83,0,0,0-.2,3l1.5-1.5c-1.66-.09-3.58.46-3.55,2.47,0,2.53,3.24,3.12,5.14,3.23a1.52,1.52,0,0,0,1.06-2.56,21.3,21.3,0,0,0-8.19-5.45c-1.4-.54-2.55,1.55-1.46,2.51a28.71,28.71,0,0,0,6.36,4.28,1.51,1.51,0,0,0,1.82-2.36c-2-2.13-4.63-2.74-7.34-3.55-3.08-.92-6.62-2.71-9.8-1.65-1.32.44-1.53,2.55,0,2.89a96.94,96.94,0,0,0,10.23,1.69c1.67.19,2.05-2.62.4-2.95-5.44-1.07-10.81-.89-16.32-.52l.4,2.95a52.74,52.74,0,0,1,8.67-.8c1.66,0,2.08-2.55.4-2.95C95,27,88.41,26.33,84.81,32.23a1.51,1.51,0,0,0,2.05,2.05A11.68,11.68,0,0,0,92,29.34c.71-1.25-.76-2.9-2.05-2.05a64.81,64.81,0,0,0-10.07,8.1c-1.39,1.37.69,3.39,2.12,2.12A63.76,63.76,0,0,0,88.37,31a1.5,1.5,0,0,0-2.12-2.12,50.89,50.89,0,0,0-5.55,6c-1.17,1.48.82,3.6,2.12,2.12l3.69-4.19c1.05-1.2-.34-3.4-1.82-2.36A17.1,17.1,0,0,0,79,37a1.51,1.51,0,0,0,2.36,1.82,74.49,74.49,0,0,0,6.75-6.9,1.51,1.51,0,0,0-1.82-2.36,11.74,11.74,0,0,0-5.5,5.88,1.52,1.52,0,0,0,1.69,2.2,14.69,14.69,0,0,0,8.26-5.33c1-1.23-.26-3.35-1.82-2.36-2,1.29-7,5.24-3.89,7.9,3.44,3,9.66-1.94,11.79-4.34.89-1,0-3.11-1.46-2.51-2,.82-7.48,4.76-3.37,6.72,3.33,1.59,9.19-3.57,9.94-6.48a1.54,1.54,0,0,0-.69-1.69c-3.46-2.16-10.54,5.95-7.46,9.05,3.49,3.51,14.42-3.73,12.86-8.22a1.55,1.55,0,0,0-1.45-1.1c-3.6-.07-9.17,4.3-8.53,8.22a1.5,1.5,0,0,0,1,1c3.68,1.34,8.89-1.47,10.27-5.1,1.3-3.4-2-5.26-4.93-3.74-2.25,1.19-5.26,5-2.32,7.11,3.49,2.56,8.34-3.6,9.78-6a1.52,1.52,0,0,0-1.69-2.2c-3.07,1-9.74,7.13-3.25,8.16,3.39.54,15.11-4.69,12.17-9.16-1.62-2.46-6.19-3.06-8.74-3.59a32.49,32.49,0,0,0-12.66-.49c-8.45,1.55-17,5.73-21.81,13.16a1.51,1.51,0,0,0,2.05,2.05l4.09-2.75-1.82-2.36A14.26,14.26,0,0,0,76.1,38a1.51,1.51,0,0,0,1.45,1.9c7.68-.54,14.83-3.31,22-5.91,3.38-1.22,6.76-2.77,10.28-3.5,6.59-1.38,10.29,2.35,14.94,6.3l1.82-2.36a62.19,62.19,0,0,0-5.74-4c-1.22-.73-3,.8-2.05,2.05a27.38,27.38,0,0,0,4.56,5l2.12-2.12c-2.68-2.18-5.5-5.5-8.92-6.39-1.14-.3-2.53,1.11-1.69,2.2A34.15,34.15,0,0,0,121.79,38l1.51-2.59c-3-2-5.29-4.44-8.73-5.6a1.51,1.51,0,0,0-1.69,2.2,27.5,27.5,0,0,0,6.4,6.83c1.18.9,2.92-.87,2.05-2.05-2.74-3.74-8.79-7.37-12.3-2.24-4.5,6.57,7.16,6.62,10.41,7v-3a11.91,11.91,0,0,1-5.34-.84v2.89a25.89,25.89,0,0,0,6.29-1.87c1.4-.6.65-2.85-.76-2.8a42.82,42.82,0,0,0-6.78.73c-3.18.63-6.36,2.34-9.68,1.46-1.93-.51-2.52,2.17-.8,2.89a10.71,10.71,0,0,0,7,.61l-.8-2.89c-5.38,1.6-12.47-.62-18.11-.45a1.5,1.5,0,0,0,0,3A40,40,0,0,0,96,41c1.86-.22,2-3,0-3l-10.28-.09.76,2.8a5.25,5.25,0,0,0,2.64-2.54,1.52,1.52,0,0,0-1.3-2.26c-1.93-.19-2.47,1.95-1.5,3.31,1.67,2.34,5.33,1.24,6.5-1,3.48-6.53-7.71-8.9-6.88-1.95s11.58,1.33,9-4.9c-.75-1.84-2.85-2.7-4.35-1-2.12,2.42.18,7,2.32,8.53a1.51,1.51,0,0,0,1.51,0c3.23-1.6,4.59-10-.55-9.24-4,.6-2.58,8.71,1.48,7.67,1.87-.48,1.08-3.37-.8-2.89Z" transform="translate(-62.28 -23.05)"/><path class="cls-2" d="M92.52,30.66l2.31-.6a1.5,1.5,0,0,0,1.07-1.65,1.48,1.48,0,0,0-1.47-1.3,2.1,2.1,0,0,1-1.69-.43l-.36,2.74a3.23,3.23,0,0,1,1.85.28,1.54,1.54,0,0,0,2.05-.54,1.51,1.51,0,0,0-.54-2.05,6.77,6.77,0,0,0-4.16-.58,1.48,1.48,0,0,0-1.07,1.25,1.54,1.54,0,0,0,.72,1.49,4.71,4.71,0,0,0,3.21.84L94,27.17l-2.31.6a1.5,1.5,0,0,0,.8,2.89Z" transform="translate(-62.28 -23.05)"/><path class="cls-2" d="M111.14,27.07a3.07,3.07,0,0,1-.55-.37l-1.46,2.51a6.58,6.58,0,0,1,1.87.95l1.06-2.56a2.47,2.47,0,0,1-.39,0c-.18,0,.17.1-.15,0l-.08,0c-.25-.1,0,0-.2-.14a1.5,1.5,0,0,0-2.12,2.12,3.85,3.85,0,0,0,2.95,1.08,1.52,1.52,0,0,0,1.37-.92,1.48,1.48,0,0,0-.31-1.64,10.14,10.14,0,0,0-3.19-1.72,1.51,1.51,0,0,0-1.46,2.51,6.65,6.65,0,0,0,1.16.84,1.5,1.5,0,0,0,1.51-2.59Z" transform="translate(-62.28 -23.05)"/><path class="cls-3" d="M74.85,89.09c-7-3-8.17-11.31-8.8-18-.56-5.95,1.16-11.37,3.11-16.9.26-.73-.9-1-1.16-.32-3.7,10.5-6.73,30.82,6.53,36.38.71.3,1-.86.32-1.16Z" transform="translate(-62.28 -23.05)"/><path class="cls-3" d="M129,87.24c7.09-6.69,7.64-21.54,5.19-30.26a.6.6,0,0,0-1.16.32c2.32,8.26,1.83,22.76-4.88,29.09-.56.53.29,1.38.85.85Z" transform="translate(-62.28 -23.05)"/><path class="cls-3" d="M119.84,39.36a19.75,19.75,0,0,1,7,9.29c.26.72,1.42.41,1.16-.32a21.14,21.14,0,0,0-7.52-10c-.62-.46-1.22.58-.61,1Z" transform="translate(-62.28 -23.05)"/><path class="cls-3" d="M74.14,50.27a26,26,0,0,1,3.31-5.91c.83-1.14,3.41-5.38,5.05-5.28.77,0,.77-1.15,0-1.2-2.25-.14-4.1,3.28-5.29,4.82A29,29,0,0,0,73,49.95c-.28.72.88,1,1.16.32Z" transform="translate(-62.28 -23.05)"/><path class="cls-4" d="M77.11,93.86c-3.19-1.77-6.65-3.63-8.74-6.74S65.51,79.73,64.68,76a44.84,44.84,0,0,1,.38-22.26A41.81,41.81,0,0,1,76.29,35.11c4.93-4.74,14.09-11.47,21.37-10,.75.15,1.08-1,.32-1.16-6.78-1.34-14.57,3.73-19.62,7.79a43.22,43.22,0,0,0-14,20.13,46,46,0,0,0-.86,24.47c.94,4.28,1.78,9.08,4.67,12.55,2.22,2.66,5.32,4.38,8.3,6,.68.37,1.28-.66.61-1Z" transform="translate(-62.28 -23.05)"/><path class="cls-4" d="M75.43,94.29a15.52,15.52,0,0,0,4.49,1.93.6.6,0,0,0,.58-1c-2.54-2.65-3.71-6.07-4.82-9.49-.24-.73-1.4-.42-1.16.32,1.18,3.62,2.45,7.22,5.13,10l.58-1A14.56,14.56,0,0,1,76,93.26c-.66-.41-1.26.63-.61,1Z" transform="translate(-62.28 -23.05)"/><path class="cls-4" d="M83.58,40.79c-10.1,10-12.82,24-11.33,37.75.08.76,1.28.77,1.2,0-1.46-13.44,1.09-27.09,11-36.9a.6.6,0,0,0-.85-.85Z" transform="translate(-62.28 -23.05)"/><path class="cls-4" d="M77.66,92.7a16.32,16.32,0,0,1,2.93,2.43.6.6,0,0,0,1-.26l.14-.8-.88.36,1.54.73c.37.17,1,0,.9-.52L83.23,94l-.9.52a13.3,13.3,0,0,1,1.95,1.17.6.6,0,0,0,.82-.22c-.13.26,3.67,1.27,3.76,1.29a.6.6,0,0,0,.32-1.16,14.07,14.07,0,0,1-2.95-1c-.4-.19-.51-.42-1-.44a1.13,1.13,0,0,0-1.17.71l.82-.22a13.3,13.3,0,0,0-1.95-1.17c-.37-.18-1,0-.9.52l.06.62.9-.52-1.54-.73a.61.61,0,0,0-.88.36l-.14.8,1-.26a17.65,17.65,0,0,0-3.18-2.62c-.65-.42-1.25.62-.61,1Z" transform="translate(-62.28 -23.05)"/><path class="cls-4" d="M94.54,24.91c8.26-1.58,18.54,0,25.7,4.7C126.8,33.88,133.65,43,136,50.41s3,19.73-.38,26.51-7.28,15.86-14.2,19.55l.88.68a111.56,111.56,0,0,1,4.9-10.67c.36-.68-.68-1.29-1-.61a114.52,114.52,0,0,0-5,11c-.21.52.46.9.88.68,7.5-4,12.08-14.12,15.41-21.53,1.92-4.26,1.43-8.91,1.28-13.48-.16-4.73-.35-9.51-2.12-14-2.81-7.06-9.33-15.84-15.78-20-7.52-4.8-18-6.48-26.62-4.82-.76.14-.44,1.3.32,1.16Z" transform="translate(-62.28 -23.05)"/><path class="cls-4" d="M116.46,40.16c11.06,10.61,14.27,23.62,11.1,38.53-.16.75,1,1.08,1.16.32,3.27-15.37,0-28.78-11.41-39.7-.56-.53-1.41.31-.85.85Z" transform="translate(-62.28 -23.05)"/><path class="cls-4" d="M82.49,42.46a3.34,3.34,0,0,0,.38,2.21.6.6,0,0,0,1-.61,2,2,0,0,1-.26-1.28c.11-.76-1-1.08-1.16-.32Z" transform="translate(-62.28 -23.05)"/><path class="cls-4" d="M84,45.06l2.26-.73c.73-.24.42-1.4-.32-1.16l-2.26.73c-.73.24-.42,1.4.32,1.16Z" transform="translate(-62.28 -23.05)"/><path class="cls-4" d="M86.2,44.64A2.57,2.57,0,0,0,89,44.17c.56-.53-.29-1.38-.85-.85a1.32,1.32,0,0,1-1.39.28.62.62,0,0,0-.82.22.6.6,0,0,0,.22.82Z" transform="translate(-62.28 -23.05)"/><path class="cls-4" d="M88.6,44a3.27,3.27,0,0,0,2,1,1.67,1.67,0,0,0,1.57-.86c.35-.69-.68-1.29-1-.61s-1.31-.11-1.65-.41c-.58-.51-1.43.34-.85.85Z" transform="translate(-62.28 -23.05)"/><path class="cls-4" d="M92.25,44.49a1.16,1.16,0,0,1,1.24.68c.34.69,1.37.09,1-.61a2.3,2.3,0,0,0-2.28-1.27c-.76.08-.77,1.28,0,1.2Z" transform="translate(-62.28 -23.05)"/><path class="cls-4" d="M94.8,45.64a8.16,8.16,0,0,0,1.63-1.21c.56-.54-.29-1.38-.85-.85a6.86,6.86,0,0,1-1.38,1,.6.6,0,0,0,.61,1Z" transform="translate(-62.28 -23.05)"/><path class="cls-4" d="M96.34,44.58l2.25.74c.74.24,1.05-.92.32-1.16l-2.25-.74c-.74-.24-1.05.92-.32,1.16Z" transform="translate(-62.28 -23.05)"/><path class="cls-4" d="M99.69,45.17l1.74-.9c.69-.36.08-1.39-.61-1l-1.74.9c-.69.36-.08,1.39.61,1Z" transform="translate(-62.28 -23.05)"/><path class="cls-4" d="M101.53,44.28a1.51,1.51,0,0,1,.68.07.6.6,0,0,0,.32-1.16,2.91,2.91,0,0,0-1.32-.07c-.76.11-.44,1.27.32,1.16Z" transform="translate(-62.28 -23.05)"/><path class="cls-4" d="M102.58,44.42a2.22,2.22,0,0,0,1.14.65c.75.17,1.07-1,.32-1.16a1.1,1.1,0,0,1-.61-.35c-.53-.56-1.38.29-.85.85Z" transform="translate(-62.28 -23.05)"/><path class="cls-4" d="M104.67,45.25l.76-.36c.7-.33.09-1.37-.61-1l-.76.36c-.7.33-.09,1.37.61,1Z" transform="translate(-62.28 -23.05)"/><path class="cls-4" d="M106.18,44.4l1-.5c.69-.35.08-1.38-.61-1l-1,.5c-.69.35-.08,1.38.61,1Z" transform="translate(-62.28 -23.05)"/><path class="cls-4" d="M106.83,44l2,.61c.74.23,1.06-.93.32-1.16l-2-.61c-.74-.23-1.06.93-.32,1.16Z" transform="translate(-62.28 -23.05)"/><path class="cls-4" d="M109.25,44.73h1a.6.6,0,0,0,0-1.2h-1a.6.6,0,0,0,0,1.2Z" transform="translate(-62.28 -23.05)"/><path class="cls-4" d="M110.9,44.55a5.82,5.82,0,0,1,1.48-.29c.77,0,.77-1.25,0-1.2a7.1,7.1,0,0,0-1.79.33c-.73.24-.42,1.4.32,1.16Z" transform="translate(-62.28 -23.05)"/><path class="cls-4" d="M113.17,44l.77-.6c.61-.47-.25-1.32-.85-.85l-.77.6c-.61.47.25,1.32.85.85Z" transform="translate(-62.28 -23.05)"/><path class="cls-4" d="M113.69,43.42l1-.5c.69-.35.08-1.38-.61-1l-1,.5c-.69.35-.08,1.38.61,1Z" transform="translate(-62.28 -23.05)"/><path class="cls-4" d="M114.53,43.07a1.3,1.3,0,0,1,.92.2.6.6,0,0,0,.61-1,2.58,2.58,0,0,0-1.84-.32c-.76.13-.44,1.29.32,1.16Z" transform="translate(-62.28 -23.05)"/><path class="cls-4" d="M115.94,43.4l.63.37a.6.6,0,0,0,.61-1l-.63-.37a.6.6,0,0,0-.61,1Z" transform="translate(-62.28 -23.05)"/><path class="cls-4" d="M117.41,44.07l1-.25a.6.6,0,0,0-.32-1.16l-1,.25a.6.6,0,0,0,.32,1.16Z" transform="translate(-62.28 -23.05)"/><path class="cls-4" d="M118.8,43.76l.25-.13c.69-.35.08-1.38-.61-1l-.25.13c-.69.35-.08,1.38.61,1Z" transform="translate(-62.28 -23.05)"/><path class="cls-4" d="M120.2,96.07a.72.72,0,0,1,1-.32c.59.48,1.45-.36.85-.85a1.92,1.92,0,0,0-2.93.56c-.34.69.7,1.3,1,.61Z" transform="translate(-62.28 -23.05)"/><path class="cls-4" d="M111.71,96.69c.44-1,1.3-.68,2.14-.68l.42-.31a1,1,0,0,1,.56.29c.24,0,.48.19.74.15.66-.11.88-.83,1.41-.85a7.84,7.84,0,0,0,1.76.31.61.61,0,0,0,.94-.12l1.25.16a.6.6,0,0,0,.61-1c-1.08-.62-2.12-.85-2.89.27l.94-.12a1.58,1.58,0,0,0-1-.53,7.72,7.72,0,0,1-1.12-.13c-1.06-.25-.88-.13-1.76.39-.38.22-.06.23-.56.24-.09,0-.45-.27-.63-.28a6.48,6.48,0,0,0-1.06.18c-1.46.09-2-.13-2.74,1.47-.31.7.72,1.31,1,.61Z" transform="translate(-62.28 -23.05)"/></svg>