<svg id="Layer_1" data-name="Layer 1" xmlns="http://www.w3.org/2000/svg" viewBox="0 0 73.58 36.57"><defs><style>.cls-1{fill:#f8fbf0;}</style></defs><title>Underwear</title><path class="cls-1" d="M31.58,255l-.06-.1.6,1.43v-.12l.21,1.6v-.12l-.21,1.6v-.12l-.6,1.43.06-.11-.94,1.21.08-.09-1.21.94.12-.08-1.43.6a.72.72,0,0,1,.28-.07l-1.6.21H27l-1.6-.21a1,1,0,0,1,.28.08l-1.43-.6a2.72,2.72,0,0,1,.38.23l-1.21-.94.12.09a6.68,6.68,0,0,0,4.24,1.76,6.11,6.11,0,0,0,4.24-1.76,6,6,0,0,0,1.76-4.24L33.6,256a6,6,0,0,0-1.54-2.65,8.2,8.2,0,0,0-3.28-1.91,9.67,9.67,0,0,0-1.89-.25,5.36,5.36,0,0,0-2.59.59A6.43,6.43,0,0,0,21.23,261a6.3,6.3,0,0,0,3.59,2.76,6.13,6.13,0,0,0,4.62-.6A6,6,0,0,0,31.58,255Z" transform="translate(-0.99 -245.63)"/><path class="cls-1" d="M35.19,261H35l.85.35-.15-.16.35.85q-.19.44.19.13l.67-.23.51-.14q.58-.06-.14-.74c-.09,0-.55.43-.4-.09s.62-.34.85-.61q.6,0-.26-.54l-.16.25c-.34.2-.52.53-.93.67l-.29.08q-.48.08-.1,0a2.28,2.28,0,0,1,.43-.48q.51-.21-.06-.29l-.55-.72q.07-.49-.13,0a1.25,1.25,0,0,1-.42.35,1,1,0,0,1-.48.11q0,.27.26,0-.45-.9-.86-.3.11.84.47.27a1.28,1.28,0,0,1,.58-.3q-.48-.87-.48-.14c-.61,1.4,1.46,2.63,2.07,1.21.47-1.08.67-2.71-.65-3.29a3.26,3.26,0,0,0-3.44,1c-.88,1-1.17,2.49,0,3.32a2.61,2.61,0,0,0,3.36-.65c.87-.88,1.26-2.39.09-3.22a2.59,2.59,0,0,0-3.32.71,2.2,2.2,0,0,0,.17,3.11l.21.16a3.11,3.11,0,0,0,3.47-.1c.9-.61,1.86-1.9,1.36-3-.61-1.37-2.22-.8-3.1-.1A3.07,3.07,0,0,0,33.72,262a2.53,2.53,0,0,0,3.15,1.14,4.35,4.35,0,0,0,2.78-2.32A1.92,1.92,0,0,0,38.33,258c-2.48-.46-5.26,2.77-3.21,4.87a2.64,2.64,0,0,0,3.73,0h0c1-1,1.18-2.73-.26-3.37-1.17-.52-3.24.2-4.18,1s-1,3.11.77,2.9c1.52-.17,1.53-2.58,0-2.4Z" transform="translate(-0.99 -245.63)"/><path class="cls-1" d="M4.72,258.36a2.46,2.46,0,0,0-2.34.45l1.76,1.36A7,7,0,0,0,4.51,258c.06-1.13-1.76-1.71-2.24-.61l-.38.88,2.19.92c.52-3.79,1-7.58,1.55-11.38L4.12,249c3.89,1,7.78,2,11.7,2.87,2.69.58,5.63,1.58,8.36.92,1.08-.26,1.21-2.15,0-2.31-1.85-.26-4.12-.85-5.92-.18a17.47,17.47,0,0,0-3.32,2.12L12.54,254q-2.14.57-.48,1.74l-1.45-.19.24.28-.19-1.45-.14.28c-.67,1.38,1.39,2.6,2.07,1.21l.14-.28a1.26,1.26,0,0,0-.19-1.45l-.24-.28a1.23,1.23,0,0,0-1.45-.19c-1.73.77-2.61,2.48-1.3,4a1.16,1.16,0,0,0,1.17.28,28.57,28.57,0,0,0,4.84-3.1c3-2,4.23-2.62,8-2.1v-2.3c-2.9.7-7.37-1-10.22-1.63s-5.72-1.42-8.57-2.16a1.22,1.22,0,0,0-1.52,1.16c-.48,3.58-1,7.16-1.46,10.74-.16,1.19,1.6,2.31,2.19.92l.38-.88L2.12,258l-.28,1.52a1.21,1.21,0,0,0,1.76,1.36l.49-.21c1.51.22,2.16-2.09.64-2.31Z" transform="translate(-0.99 -245.63)"/><path class="cls-1" d="M3.35,261.73c5.1.7,10.34,1.17,15.26,2.77,5.61,1.83,14.35,5.83,15,12.52L36,276.7a8.43,8.43,0,0,0-2.11-4.38c-.9-1.08-2.52.3-1.88,1.45s1.92,3,1.47,4.34,1.16,1.82,2,1.17l4.82.22a1.21,1.21,0,0,0,2-.85c-.46-7.83,10-12.29,15.9-14.6,1.42-.56.8-2.88-.64-2.31-7,2.74-18.19,7.87-17.67,16.92l2-.85a6,6,0,0,0-8.21-.22l2,1.17c.72-2.1-.73-4.39-1.71-6.19L32.06,274l1.66,3.32c.24,1.32,2.5,1,2.36-.32C34.67,263.36,14.36,260.84,4,259.41c-1.51-.21-2.16,2.1-.64,2.31Z" transform="translate(-0.99 -245.63)"/><path class="cls-1" d="M29.59,259.51l-.2-.3v1.21q-.85.3.47.28.55.08,1.11.11a17.9,17.9,0,0,0,2.79-.11c1.85-.19,3.69-.49,5.53-.74,1.52-.21.87-2.53-.64-2.31a39.65,39.65,0,0,1-7.68.77c-1.4-.08-2.85-.72-3.65.8a1.21,1.21,0,0,0,0,1.21l.2.3c.85,1.28,2.93.08,2.07-1.21Z" transform="translate(-0.99 -245.63)"/><path class="cls-1" d="M45.72,259.66a8,8,0,0,1,5-1l-.61-2.24c-4.32,2.49-6.39.48-10.66,0-5-.55-11.61,0-15.26-4.3L23.95,254a9,9,0,0,1,1.81-1.29c2-.61,5.08,0,7.16,0,5.64,0,11.29-.06,16.93-.28a109.87,109.87,0,0,0,13.69-1.26c2.41-.4,7.09-.45,8.51-2.79l-2.24-.61a32.29,32.29,0,0,0,.63,6.08c.28,1.45,2.2.9,2.36-.32a5.78,5.78,0,0,0-.14-3c-.28-1.4-2.26-1-2.36.32a19.41,19.41,0,0,0,.47,6.08,1.21,1.21,0,0,0,2.31,0,3.48,3.48,0,0,0,.29-2.6,1.2,1.2,0,0,0-2.4,0,14.73,14.73,0,0,0,.36,6.29l1.16-1.52a57.44,57.44,0,0,0-15.32,3.45c-1.42.56-.8,2.88.64,2.31A54.93,54.93,0,0,1,72.5,261.5,1.22,1.22,0,0,0,73.66,260a13.08,13.08,0,0,1-.28-5.65H71l-.2,2h2.31a16.17,16.17,0,0,1-.39-5.44l-2.36.32.05,2.36,2.36-.32a19.7,19.7,0,0,1-.55-5.44A1.21,1.21,0,0,0,70,247.2c-1.13,1.85-10.22,2.15-12.08,2.34-3.57.37-7.16.51-10.74.62-7.62.22-15.24.23-22.85.13a1.21,1.21,0,0,0-1.16.88l-.4.79a1.22,1.22,0,0,0-.24,1.88c3.32,3.91,9.74,4.7,14.54,4.89,2.8.11,5.26,1.9,7.81,2,2.27,0,4.57-1.09,6.47-2.19a1.21,1.21,0,0,0-.61-2.24,12.15,12.15,0,0,0-6.25,1.32c-1.39.67-.18,2.74,1.21,2.07Z" transform="translate(-0.99 -245.63)"/><path class="cls-1" d="M38.35,266.42l.57-.09-3.14-3.14.2.7.45-3.47-.41.67L38.71,259l-1.52.38,5.7,4.34-.06-.68-1.32,3.18A4.54,4.54,0,0,1,45,264.7l-3.18-1.32.42.35-1.32-3.18-.07.5,1.32-3.18a20.52,20.52,0,0,1-3.31,2.93c-3.67,2.87.34,8.68,4.38,7.52s8.15-2.38,12.2-3.65c3.62-1.13,8.69-3.78,12.5-3.46,2.23.19,4.77-2.22,4.5-4.5a19.19,19.19,0,0,1-.26-4.12l-1.32,3.18.67-.54c3.74-3-.38-8.45-4.38-7.52-19.45,4.5-38.28,3.33-57.84.21-2.55-.41-6.05,1.14-5.7,4.34l-.11,1.58a4.56,4.56,0,0,0,2.69,6.61c2.2.64,4.52.6,6.76,1.14,2.89.7,5.75,1.67,8.59,2.57,4.89,1.56,12.18,2.76,12,9.22l8.39-2.27a21.1,21.1,0,0,0-3.87-4.8L34.86,274c-2.08-.11,1.46.59,1.54.6a6.72,6.72,0,0,0,2.5-.36c2.53-.77,5-2.61,7.3-3.87,5.07-2.8.54-10.57-4.54-7.77-.57.32-5.7,3.56-6,3.31q3.81.11,1.13-.71a11.89,11.89,0,0,0-1.91-.2c-3.86-.2-6,5.09-3.18,7.68a8.27,8.27,0,0,1,2.47,3,4.54,4.54,0,0,0,8.39-2.27c.22-7.16-4.22-12.52-10.62-15.16-3.69-1.52-7.58-2.65-11.4-3.81s-8.08-1.52-11.92-2.64l2.69,6.61a10,10,0,0,0,1.34-6.13l-5.7,4.34c21.17,3.39,41.55,4.67,62.62-.21l-4.38-7.52c-2.57,2.06-2.08,4.9-1.73,7.84l4.5-4.5c-4.43-.37-8.86,1.88-13,3.2q-7,2.21-14.07,4.23l4.38,7.52c2.07-1.62,4.46-3.27,4.63-6.11a5,5,0,0,0-3.66-5.18c-4.51-1.36-12.78,2.62-12.3,7.88.26,2.92,2.66,5.1,5.7,4.34,8.79-2.21,4.79-12.88-3.63-10.35-5.53,1.67-3.17,10.36,2.39,8.68Z" transform="translate(-0.99 -245.63)"/><path d="M3.78,246.85c10.51,4.21,21.76,3.7,32.87,4.06a.6.6,0,0,0,0-1.2c-11-.35-22.14.15-32.55-4-.72-.29-1,.87-.32,1.16Z" transform="translate(-0.99 -245.63)"/><path d="M71.31,245.69c-11,4.19-22.74,3.66-34.29,4a.6.6,0,0,0,0,1.2c11.67-.36,23.52.18,34.61-4.06.71-.27.4-1.43-.32-1.16Z" transform="translate(-0.99 -245.63)"/><path d="M32.16,272.78c-6.59-8.9-20-9.81-30-12.24-.75-.18-1.07,1-.32,1.16,9.47,2.3,23,3.27,29.23,11.69.45.61,1.5,0,1-.61Z" transform="translate(-0.99 -245.63)"/><path d="M44.64,273.39C50.86,265,64.41,264,73.87,261.7c.75-.18.43-1.34-.32-1.16-10,2.42-23.36,3.33-30,12.24-.46.62.58,1.22,1,.61Z" transform="translate(-0.99 -245.63)"/><path d="M30.92,273c1.78,2.27,2.27,5.84,2.42,8.62,0,.77,1.24.77,1.2,0-.17-3.19-.75-6.9-2.77-9.47C31.29,271.49,30.45,272.35,30.92,273Z" transform="translate(-0.99 -245.63)"/><path d="M44,272.15c-2,2.58-2.6,6.28-2.77,9.47a.6.6,0,0,0,1.2,0c.15-2.78.64-6.36,2.42-8.62C45.31,272.4,44.47,271.54,44,272.15Z" transform="translate(-0.99 -245.63)"/><path d="M3.48,246.07A38.76,38.76,0,0,0,1,261a.6.6,0,0,0,1.2,0A38,38,0,0,1,4.63,246.4c.29-.72-.87-1-1.16-.32Z" transform="translate(-0.99 -245.63)"/><path d="M71.06,246.69c2.44,3.77,2.27,9.67,2.31,14a.6.6,0,0,0,1.2,0c0-4.52.07-10.67-2.48-14.61-.42-.65-1.46,0-1,.61Z" transform="translate(-0.99 -245.63)"/><path d="M34.45,281.4c1-1.15,1.89-1.91,3.54-1.71a4.6,4.6,0,0,1,3.11,1.88c.32.7,1.36.09,1-.61a5.32,5.32,0,0,0-3.74-2.44,4.8,4.8,0,0,0-4.79,2c-.49.59.36,1.44.85.85Z" transform="translate(-0.99 -245.63)"/></svg>