<svg id="Layer_1" data-name="Layer 1" xmlns="http://www.w3.org/2000/svg" viewBox="0 0 127.34 183.11"><defs><style>.cls-1{fill:#b2a1a1;}.cls-2{fill:#fdffee;}.cls-3{fill:#060a00;}.cls-4{fill:#e1ffd7;}.cls-5{fill:#fff;}.cls-6{fill:#000b18;}.cls-7,.cls-8{fill:none;stroke-miterlimit:10;}.cls-7{stroke:#060d00;stroke-width:0.1px;}.cls-8{stroke:#000;stroke-width:0.5px;}</style></defs><title>Winter</title><path class="cls-1" d="M105.3,136.3a.9.9,0,0,1,.2-1.4,1.8,1.8,0,0,1,2.4,1.6,1.54,1.54,0,0,1-.6,1.4" transform="translate(-36.23 -97.3)"/><path class="cls-2" d="M109.5,132.1l-.1-.1.9,1.2a.1.1,0,0,0-.1-.1c.2.5.4,1,.6,1.4,0-.1-.1-.2-.1-.3.1.5.1,1.1.2,1.6v-.3c-.1.5-.1,1.1-.2,1.6a.37.37,0,0,1,.1-.3c-.2.5-.4,1-.6,1.4a.22.22,0,0,1,.2-.2l-.9,1.2.1-.1-1.2.9c.1-.1.2-.1.3-.2-.5.2-1,.4-1.4.6.1,0,.2-.1.3-.1-.5.1-1.1.1-1.6.2h.3c-.5-.1-1.1-.1-1.6-.2.2,0,.3.1.5.1-.5-.2-1-.4-1.4-.6.1,0,.2.1.3.2l-1.2-.9c.1.1.3.2.4.4l-.9-1.2c.1.2.2.3.3.5-.2-.5-.4-1-.6-1.4a.9.9,0,0,1,.1.5c-.1-.5-.1-1.1-.2-1.6v.3c.1-.5.1-1.1.2-1.6,0,.2-.1.3-.1.5.2-.5.4-1,.6-1.4,0,.1-.1.2-.2.3l.9-1.2-.3.3a6.17,6.17,0,0,0-1.8,4.2,6,6,0,0,0,1.8,4.2,6.44,6.44,0,0,0,4.2,1.8c.5-.1,1.1-.1,1.6-.2a6.14,6.14,0,0,0,2.6-1.5,7.38,7.38,0,0,0,2.1-7.4,8.4,8.4,0,0,0-5.4-5.6,7,7,0,0,0-8.2,3,7,7,0,0,0,.9,8.5,6.17,6.17,0,0,0,4.2,1.8,6,6,0,0,0,4.2-1.8,6.44,6.44,0,0,0,1.8-4.2,5.21,5.21,0,0,0-1.6-4.2Z" transform="translate(-36.23 -97.3)"/><path class="cls-1" d="M101.7,135.6a1.34,1.34,0,0,1-.8-1.7,2.42,2.42,0,0,1,1.4-1.4,1.8,1.8,0,0,1,1.2-.3,2.16,2.16,0,0,1,1.9,2.1A3.79,3.79,0,0,1,104,137" transform="translate(-36.23 -97.3)"/><path class="cls-2" d="M103.3,129.8c-.1,0-.1-.1-.2-.1.5.2,1,.4,1.4.6-.1,0-.1-.1-.2-.1l1.2.9-.2-.2.9,1.2a.76.76,0,0,1-.2-.4c.2.5.4,1,.6,1.4,0-.1,0-.1-.1-.2.1.5.1,1.1.2,1.6V134c-.1.5-.1,1.1-.2,1.6,0-.2.1-.3.1-.5-.2.5-.4,1-.6,1.4a1.38,1.38,0,0,1,.3-.4l-.9,1.2.4-.4-1.2.9a8.8,8.8,0,0,1,1-.6c-.5.2-1,.4-1.4.6.2-.1.4-.1.6-.2-.5.1-1.1.1-1.6.2h.6c-.5-.1-1.1-.1-1.6-.2.1,0,.2,0,.2.1-.5-.2-1-.4-1.4-.6.2.1.3.1.5.2l-1.2-.9c.2.2.4.3.5.6l-.9-1.2a2.19,2.19,0,0,1,.3.5c-.2-.5-.4-1-.6-1.4a.9.9,0,0,1,.1.5c-.1-.5-.1-1.1-.2-1.6v.8c.1-.5.1-1.1.2-1.6a.76.76,0,0,1-.2.5c.2-.5.4-1,.6-1.4a3.33,3.33,0,0,1-.6,1l.9-1.2-.6.6a6,6,0,1,0,8.5,8.5,9.17,9.17,0,0,0,2.9-8.8,8.11,8.11,0,0,0-7.7-6.2,9.22,9.22,0,0,0-8.4,5.9,7.8,7.8,0,0,0,.5,5.8,7.68,7.68,0,0,0,4.4,3.5c3,1.1,6.7-1.2,7.4-4.2.9-3.2-.9-6.1-4.1-7.2Z" transform="translate(-36.23 -97.3)"/><path class="cls-1" d="M93.2,146.2a2.31,2.31,0,0,1,2.3-2.5,3.72,3.72,0,0,1,3.1,2,1.93,1.93,0,0,1,.3,1,1.71,1.71,0,0,1-2.8,1.1,2,2,0,0,1,.8-3.1,2.42,2.42,0,0,1,3,1.7,3.16,3.16,0,0,1-1.4,3.3,3.76,3.76,0,0,1-4.6-.5,5.67,5.67,0,0,1-1.2-4.2,14.65,14.65,0,0,1,2.8-8.1,3.64,3.64,0,0,1,1.6-1.4,3.82,3.82,0,0,1,3.4.5,7.3,7.3,0,0,1,3.3,3.2,4.3,4.3,0,0,1-.3,4.5c-1.7,2.4-5.9,1.7-7.7-.7s-1.8-5.6-1.4-8.6a16.11,16.11,0,0,1,1.9-6.1,8,8,0,0,1,5-3.8,6.91,6.91,0,0,1,6.3,2.4,11.58,11.58,0,0,1,2.5,6.5,7.69,7.69,0,0,1-.6,4c-1.3,2.7-4.6,3.8-7.6,3.7-2.3-.1-4.8-.9-5.8-2.9a5.11,5.11,0,0,1,.3-4.5,10.4,10.4,0,0,1,3.3-3.3c2.8-1.9,6.4-3,9.6-2a9.24,9.24,0,0,1,5.6,5.5,13.61,13.61,0,0,1,.5,8,8.37,8.37,0,0,1-1.7,3.7,7.62,7.62,0,0,1-3.8,1.9,14.43,14.43,0,0,1-7.7-.6c-2.9-1.1-5.6-3.7-5.5-6.8a5.52,5.52,0,0,1,2.6-4.3,5.22,5.22,0,0,1,5-.1,3.89,3.89,0,0,1,2.1,3,6.46,6.46,0,0,1-.4,1.9,19,19,0,0,1-17,11.7,13.56,13.56,0,0,1-10.3-4c-2.6-2.8-3.4-7.3-1.3-10.5a4.88,4.88,0,0,1,2.9-2.2,4.61,4.61,0,0,1,3.5,1.1,6.81,6.81,0,0,1,1.2,8.2,8.68,8.68,0,0,1-7.5,4.1c-2.2,0-4.6-.9-5.6-2.9a6.06,6.06,0,0,1-.2-4.2,3.71,3.71,0,0,1,2.5-3.1c2-.4,3.6,1.9,3.9,4a7.72,7.72,0,0,1-1,5.6,4.29,4.29,0,0,1-5.2,1.6c-.8-.4-1.7-1-2.4-.5a1.54,1.54,0,0,0-.5,1.3,15.06,15.06,0,0,0,5.8,13.1c-1,.5-2.3-.5-2.4-1.6a3.18,3.18,0,0,1,1.4-2.9,4.7,4.7,0,0,1,4.5-1.1,3.52,3.52,0,0,1,2.6,3.6,2.94,2.94,0,0,1-3.4,2.5,3.17,3.17,0,0,1-2-3,7.07,7.07,0,0,1,1.2-3.7,15.39,15.39,0,0,1,2.8-3.4c.9-.9,2.1-1.7,3.4-1.3s1.9,1.8,1.8,3.1c-.2,3-3.6,4.7-6.6,5.2a30.26,30.26,0,0,1-8.5.1,15.46,15.46,0,0,1-7.7-2.9c-2.1-1.8-3.4-4.8-2.5-7.4l-1.2,1.8c.7-6.8,1.4-13.7,2.1-20.5a31.63,31.63,0,0,1,2-9.7c1.3-3.1,3.6-5.9,6.8-6.9a11.14,11.14,0,0,1-1.7.2,15.22,15.22,0,0,1,9.2-3.1c1.8,0,3.7.4,5.5.4,3.1-.1,6.3-1.2,9.2-.2a1.17,1.17,0,0,1,.7,2,45.65,45.65,0,0,1-20.5,19.8,5.18,5.18,0,0,0-2.1,1.4,5.56,5.56,0,0,0-.9,1.7c-1,2.4-1.9,4.7-2.9,7.1a3.66,3.66,0,0,0-.4,2.3c.2-5.2,2.3-10.2,4.7-14.9a25.7,25.7,0,0,1,4.4-6.5,11,11,0,0,1,7-3.3,3,3,0,0,1,2.4.8,2.2,2.2,0,0,1,.6,1.5,4.92,4.92,0,0,1-2.1,4.3,12.65,12.65,0,0,1-4.6,2c-.9.2-2.1.4-2.7-.3-.9-.9-.3-2.3.3-3.3A21.2,21.2,0,0,1,86.3,119a7.75,7.75,0,0,1,5.4-.2c2,.8,3.2,2.8,3.8,4.9a13.59,13.59,0,0,1-1.7,11.1,7,7,0,0,1-3.1,2.8,3.16,3.16,0,0,1-4.6-3.1,8.77,8.77,0,0,1,2.1-5.5,17.77,17.77,0,0,1,7.9-5.9c1.9-.7,4.2-.9,5.6.5a4.06,4.06,0,0,1,.9,3.8,6.61,6.61,0,0,1-6.4,5.1,3.84,3.84,0,0,1-2.5-.9,4.38,4.38,0,0,1-.7-4.3,13.59,13.59,0,0,1,9.3-9.7,2.5,2.5,0,0,1,1.9,0,2.36,2.36,0,0,1,.8,2.4,9.26,9.26,0,0,1-2.9,5.6,4.45,4.45,0,0,1-3,1.4,3.55,3.55,0,0,1-3.1-3.4,5.65,5.65,0,0,1,2.3-4.3,14.74,14.74,0,0,1,4.5-2.3,3.61,3.61,0,0,1,3.2-.1,3.2,3.2,0,0,1,1,1.9c.4,1.6.8,3.3,1.3,4.9-1.3-.8-2.6-1.6-3.9-2.5-3.3-2-7-4.7-7-8.6a3.67,3.67,0,0,1,1.3-3,2.09,2.09,0,0,1,2.9.7,2,2,0,0,1-1.2,2.3,4.48,4.48,0,0,1-2.8.1c-.1,0-.2-.1-.3-.1-.3-.3,0-.8.2-1a5.61,5.61,0,0,1,6.4-.9,5.51,5.51,0,0,1,2.8,5.8c1.8-.5,3.6-1,5.4-1.6l-4.8-4.2a30.52,30.52,0,0,0,9.4,2.1c3.1.2,6.3,0,9.4.5s6.3,1.8,8,4.4c-.3-.5-.6-1-.9-1.6a20.32,20.32,0,0,1,4.3,7.2c.2-.5.5-1,.7-1.4a38.59,38.59,0,0,0,.9,11.7,30.12,30.12,0,0,0,.1-5.2c-.1,2.6-.1,5.2-.2,7.8-.1,2-.1,4.1-1,5.9-1.6,3.3-5.6,4.9-9.2,4.6s-6.9-2.3-9.8-4.5a25,25,0,0,1-6.9-7.6c-1.5-2.7-2-6.4,0-8.7a5.68,5.68,0,0,1,3.8-1.8,7.56,7.56,0,0,1,7.4,4.2c1,2.1.6,5.1-1.5,6.2a4.57,4.57,0,0,1-4.5-.5,10.8,10.8,0,0,1-3.1-3.6,3,3,0,0,1-.7-2.4,2.94,2.94,0,0,1,1-1.2c2.6-2.2,6.2-4.1,9.4-2.7a8.07,8.07,0,0,1,4,4.5,16,16,0,0,1,1.4,6.1,10.23,10.23,0,0,1-.9,4.6,4.76,4.76,0,0,1-3.7,2.6c-2.1.2-4-1.5-5.1-3.3a10.89,10.89,0,0,1,.3-11.4c1.5-2.1,4.3-3.7,6.7-2.8,2.6,1,3.6,4.2,3.8,7a28.81,28.81,0,0,1-2.2,13" transform="translate(-36.23 -97.3)"/><path class="cls-2" d="M99,147.8c-2.1-.6-4.1-1.2-6.2-1.9.9-1.2,1.8-2.4,2.8-3.6,2.1,3.2,3.2,3.9,3.2,1.9a6.53,6.53,0,0,1,.5-2l.6-1.2c-3.6.4-3.3-.2.7-1.9.2-.5-.3-1.9-.3-2.6a12.56,12.56,0,0,1,.6-3.8c.1-.3.8-2.5,1.7-2.4s1.7,2.2,1.7,2.9c-.2,2.9-1.8.4-3.1,1.5q1.35,1.35,2.4.3a6.63,6.63,0,0,1,1.9-.9,3.1,3.1,0,0,1,3.2.5c1.2,1,2.2,5.4.8,6.6-.8.7-3,.4-4,.1a3.7,3.7,0,0,1-1.8-.8c-.5-.5-.9-.4-1.4.3-2.3-1.2-1-3.2-3-.4a10.71,10.71,0,0,1-3,3c-3.2,2.3-11.2,4.6-13.4-.2-.2-.4-.2-2.4-.3-2.5-1.9-1.6-2.8.9-3.7,1.7-1.2,1-6.3,1.6-6.5,1.5,2.5.4.6-.5-.8-.7-6.1-1-8.8,4.3-8.5,9.5a21.43,21.43,0,0,0,7.5,15.1l4.2-10.2c.7,7.1,3,8,6.9,2.8a7.94,7.94,0,0,1,1.9-2.2c1.3-6.1-6.3-3.2-8.2-3.1-1.6.2-11,.2-10.3-2.9,1.5-6.6-7.3-10.5-11-4.6l-1.2,1.8,11.2,3,1.8-17.7c.4-3.8.2-11.8,4.6-13.6,7.2-3,4.5-12.6-3.2-11.6a11.14,11.14,0,0,1-1.7.2c1.5,3.7,3.1,7.3,4.6,11,3.3-2.3,6-2.1,9.8-1.9,1.9.1,7.3-1.5,8.8-.3-1-1.7-2-3.5-3-5.2.1,1.2-5.1,6.7-6.6,8.2a40,40,0,0,1-9.1,6.8c-3.2,1.7-5.5,3-7.2,6.3-1.9,3.6-4.1,8.3-4.1,12.4-.1,7.8,11.4,7.6,12,0a33.52,33.52,0,0,1,4.6-13.3c1.1-2,2.8-3.1,4-4.9,2.9-.6,2.2-2-2.3-4.2-1.7.6-2.1.7-1.2.2,1.2.9,2.4,1.8,3.6,2.8-.1-.3-.3-.7-.4-1,.2,1.5.4,3.1.6,4.6.4-2.7,4.9-6.5,7.7-6.9,1.9-.2,1.8-.7,2.1,1.7.2,1.6-1.6,4.2-1.3,5.2,1.3,5.5,5.8-.8,6.8-1.5a11.15,11.15,0,0,1,2.4-1.3c2.1-.3,1.7-1.1-1.2-2.5,1.4,3,2.3,3.5,2.6,1.3a8.55,8.55,0,0,1,1.5-2.2,6.52,6.52,0,0,1,2.1-1.6c1.6-.5,1.6-.6-.1-.5-1.2-.9-2.4-1.8-3.6-2.8-.1-.2-.1-.4-.2-.6q-2.55,2.1,1.5,2.4c1.1,1.2,2.2,1.4,3.3.7.6,0,.9-.1.8-.4-1.2-.9-2.4-1.8-3.6-2.8,1,1.4,1.2,3.7,1.7,5.4,2.9-2.3,5.9-4.5,8.8-6.8-1.7-1.1-3.5-2.1-5.2-3.2a13.65,13.65,0,0,1-2.3-1.9q-2-3.45-6.6,1.2l-1.8-4.2c0,.4-.1.9-.1,1.3l1.8-4.2H100c.9,1.2,1.8,2.4,2.8,3.6,0-.2-.1-.3-.1-.5-.2,1.5-.4,3.1-.6,4.6a2.93,2.93,0,0,1-1.6,1.3,6.08,6.08,0,0,0,7.6,5.8c1.8-.5,3.6-1,5.4-1.6,4.1-1.2,6.1-6.9,2.6-10l-4.8-4.2c-1.9,3.3-3.9,6.7-5.8,10a43.3,43.3,0,0,0,12.9,2.4c4.2.2,8.5-.4,11.3,3.1,4.3,5.4,12.7-1.5,9.4-7.3-.3-.5-.6-1-.9-1.6-3.1,2.4-6.3,4.8-9.4,7.3a14.29,14.29,0,0,1,2.7,4.6c1.7,4.3,8.5,6.5,11,1.4.2-.5.5-1,.7-1.4l-11.2-3a54,54,0,0,0,1.1,13.3c1.5,7,11.2,4.7,11.8-1.6a30.12,30.12,0,0,0,.1-5.2c-.4-7.7-11.8-7.8-12,0-.1,2.6,1.1,9.6-1.1,11.6-2.4,2.3-7-.7-8.9-2.1s-6.7-5-6.4-7.5c.3-2-.2,1,.8,0,.9.8,1.9.2,2.8-1.7-.9-1.6-1.2-1.8-.8-.6l-1.8,4.2c2.3-2.9,4.5-3.2,5.3.8.2,1-.6,3.8.8,2.7,1-.8.2-2.2.2-3.7a2.84,2.84,0,0,1,.7-1.7c-.3-.2-.7-.5-1-.7a17.36,17.36,0,0,1,.5,3.4,24,24,0,0,1-2.1,9.8c-2.9,7.2,8.7,10.3,11.6,3.2,3.1-7.6,5-21-3.3-26.3-8.8-5.6-18,3.6-18.5,12.3s7.2,19.4,16.7,14.7c8.9-4.4,7.7-17.9,2.2-24.5a12.1,12.1,0,0,0-12.2-4.3c-4.2.9-9.8,4.1-11,8.5-2.8,9.6,12,18.9,19.2,11.6,6.5-6.7,1.1-17.4-6.9-19.6-10.3-2.8-17.7,7-14.4,16.5,3.2,9.2,14.6,17.9,24.4,17.8,4.7-.1,9.7-2.4,12.3-6.4,3.4-5.1,2.6-12.1,2.8-17.9h-12a45.13,45.13,0,0,1-.1,5.2c3.9-.5,7.9-1.1,11.8-1.6a37.93,37.93,0,0,1-.7-10.1c.3-5.8-8.6-8.4-11.2-3-.2.5-.5,1-.7,1.4,3.7.5,7.3,1,11,1.4a33.92,33.92,0,0,0-5.8-9.9c-4.5-5.3-12.7,1.5-9.4,7.3.3.5.6,1,.9,1.6,3.1-2.4,6.3-4.8,9.4-7.3-7.2-9-19.9-5.2-29.5-8.6-5.6-2-10.2,6.1-5.8,10l4.8,4.2c.9-3.3,1.8-6.7,2.6-10-1.8.5-3.6,1-5.4,1.6l7.6,5.8c.3-9.6-11.1-16.5-18.8-9.6-8.4,7.5,5,16.9,11.7,9.1,7.3-8.5-7.3-18-12.9-8.5-5.8,9.7,5.7,17.2,12.6,21.5,4.5,2.8,10.1-1.8,8.8-6.8-1.4-5.6-3-12.1-10.1-11.5-6.2.5-13,5.2-13.7,11.7a9.55,9.55,0,0,0,8.9,10.7c6.5.1,11.6-7,11.9-13,.3-6.8-5.7-9.9-11.6-7.8A19.66,19.66,0,0,0,87.4,124c-1.8,5.5-.4,11.8,5.7,13.7,5.5,1.7,11.6-1.5,14.2-6.5,2.8-5.3.9-12.4-5-14.5-5.7-2-12.4,1.6-16.5,5.5-3.8,3.6-7,9.3-5.4,14.7,2.1,6.9,10.6,8.2,15.7,3.8,8.2-7.1,8.4-25.9-4.2-28.5-9-1.9-27.7,9.7-22.8,20.5,6.7,14.7,32-8,16.4-15.4-7-3.3-14.6,2.1-18.5,7.7a45.74,45.74,0,0,0-7.9,22h12c0-3,2.1-6.8,4.7-8a38,38,0,0,0,8.8-6c5-4.2,10.3-9.9,12.8-16,3-7.5-4.1-11.1-10.6-10.6-7.9.5-15.5-.7-22.4,4-5.9,4-2,11.9,4.6,11a11.14,11.14,0,0,1,1.7-.2c-1.1-3.9-2.1-7.7-3.2-11.6-7.3,3-11.2,8.9-12.4,16.7-1.4,8.6-1.9,17.5-2.8,26.2-.6,6.3,8.3,7.6,11.2,3l1.2-1.8c-3.7-1.5-7.3-3.1-11-4.6-3.7,16.5,19.7,22.4,31.2,15.7,5.9-3.4,8.3-12.2,2-16.6-6.1-4.4-12.9,1.5-15.7,6.9-3.2,5.9-1.3,14.5,6.3,15.1,7.2.7,11.8-7.8,8-13.7s-12.3-5.7-16.6-.6c-4.6,5.4-1.6,14.3,6.1,13.9,4.8-.2,8.4-6.7,4.2-10.2-1.3-1.1-5.2-5.9-4.3-7.2-1.7,1-3.5,2-5.2,3-1.8.1,1.4.5,1.9.6a12.29,12.29,0,0,0,2.7.2,11.25,11.25,0,0,0,6.4-2.8c3.6-3.3,4.5-9,3-13.6s-6-8.1-11-6.9c-5.3,1.3-7.8,7.6-7,12.5,1.7,11.4,17,11.7,23.3,4.1s1.2-22.5-10.1-19.9c-11,2.6-9.9,17.5-3.2,23.7,7.5,6.9,19.5,5.7,27.3.2,6.7-4.8,14.9-17.4,4.5-23.1-9.5-5.3-20.4,5.5-15.3,15.1,4.5,8.5,18.9,11.4,25.8,4.2,7.1-7.2,4.2-21.3-4.4-26S91.1,125,89.9,135.1c-1.3,11.4,13.3,14.6,21.1,9.3,8.5-5.8,5.8-19.9-2.6-24.5-10.7-5.8-19,4.7-20,14.4-.5,4.8.2,10.1,3.9,13.6,3.4,3.2,8.9,4.1,12.9,1.8,9.7-5.5,3.4-19.7-6.3-20.5-11.3-.9-16.7,18.7-8.2,25a9.56,9.56,0,0,0,13.7-2.5,8.64,8.64,0,0,0-5.7-13.1,8.06,8.06,0,0,0-9.1,9.8,7.65,7.65,0,0,0,11.7,4.2c4.9-3.4,3.6-10-.8-13.3-4.9-3.6-12.4-1.1-13.4,5.2-.9,7.7,10.7,11,11.9,3.3Z" transform="translate(-36.23 -97.3)"/><path class="cls-1" d="M46.3,274.4a3.47,3.47,0,0,0-3.5.8c-.4.4-.9.9-1.5.8a.32.32,0,0,1,.3-.3c.1,0,.2.2.2.3-.3,0-.6-.1-.9-.1.7.7,1.9.4,2.9.3,2.1-.1,4.1,1.2,6.2,1.1a.73.73,0,0,0,.6-.2,1.22,1.22,0,0,0,.3-.9c0-1.4.1-2.9.1-4.3" transform="translate(-36.23 -97.3)"/><path class="cls-2" d="M46.7,273.3a5,5,0,0,0-2.7,0c-.8.2-1.8,1.5-2.5,1.5l1.2,1.5c0-.1,0-.1.1-.2l-.8.8c-.4-.2-.7-.4-1.1-.6l1.2-1.5c-.3,0-.6-.1-.9-.1-1.3-.1-1.5,1.6-.6,2.2,1.1.8,2.2.5,3.5.5,1.8,0,3.5.9,5.2,1,3.9.4,3-3.8,3.1-6.5a1.2,1.2,0,0,0-2.4,0,14.47,14.47,0,0,1-.1,3.6c-.2.9.2.5-.7.5a10.46,10.46,0,0,1-1.7-.4,10.08,10.08,0,0,0-2.5-.5c-.9-.1-2.4.3-3.2-.2-.2.7-.4,1.5-.6,2.2.3,0,.6.1.9.1.8.1,1.3-.8,1.2-1.5-.3-1.6-2.3-1.4-2.8,0a1.16,1.16,0,0,0,1.2,1.5c1.8-.2,2.7-2.1,4.6-1.6,1.2.4,1.9-2,.4-2.3Z" transform="translate(-36.23 -97.3)"/><path class="cls-1" d="M106.7,167.9a2,2,0,0,1-2.7-.4,4.55,4.55,0,0,1-1-2.8,6.72,6.72,0,0,1,.4-4.2c.8-1.6,2.4-2.5,3.9-3.3a53.65,53.65,0,0,1,19.7-5.5,4,4,0,0,1,3.2.7c.9,1,.7,2.6.2,3.8a17.66,17.66,0,0,1-4.5,6.6c1.3.8,2.8-.5,3.7-1.6a44.81,44.81,0,0,0,9.3-21.8,6.7,6.7,0,0,1,2.3,5.3c-.5-2.1-1-4.2-1.4-6.3-1.4,13-.1,26.1,1.2,39.1a65.82,65.82,0,0,1-4.9-10.4,139.31,139.31,0,0,0,4.5,18,6.77,6.77,0,0,0,1.2,2.4,2.3,2.3,0,0,0,2.4.8c1.2-.5,1.5-2,1.5-3.2a42,42,0,0,0-.5-7.9,13.83,13.83,0,0,1,1,4.9c-.8-4.3-1.6-8.6-2.4-12.8a5.75,5.75,0,0,1,1,4c-1.2-7.6-2.3-15.2-3.5-22.8a13.84,13.84,0,0,1,1.6,7.2,62.28,62.28,0,0,1-1.7-8.6c1.3,1,1,3.3-.2,4.4a6.38,6.38,0,0,1-4.7,1.3c-4.6-.1-9.7-1.7-13.6.8-2,1.2-3.3,3.3-4.5,5.4a150.48,150.48,0,0,0-7.6,15c-.3-5,2-9.8,2.9-14.7a1.7,1.7,0,0,0,0-1c-.4-.8-1.6-.5-2.4,0-4.4,2.9-7.6,7.6-12.5,9.5-1.4.5-3.2.7-4.3-.3a4.33,4.33,0,0,1-1.1-2.6,23.84,23.84,0,0,1,1.5-13.2A13.11,13.11,0,0,1,92,166c-1.2,1.4-3.4,2.5-4.8,1.3a3.12,3.12,0,0,1-.9-2.1,11.91,11.91,0,0,1,3.6-10.7c1,3.3-1.3,6.7-3.5,9.4a3.64,3.64,0,0,1-1.6,1.4c-1.3.5-2.7-.3-4-.6a6.24,6.24,0,0,0-5.8,1.6c1.1,2.6,2.3,5.3,3.4,7.9A157.79,157.79,0,0,0,88.1,194l-.3-15.3a12.9,12.9,0,0,1,.5-4.8,30.51,30.51,0,0,1,6.6,17.6,3,3,0,0,1-.3,1.6c-.8,1.3-2.8.6-3.9-.5a13.09,13.09,0,0,1-2.6-15c.8-1.6,2.1-3.2,3.9-3.4a5,5,0,0,1,4.2,1.7,10.19,10.19,0,0,1,2.2,4.1,40,40,0,0,1,2.3,15.7c-2.1-.4-3.4-2.5-4-4.6a15.16,15.16,0,0,1,.8-10.5c.8-1.8,2.5-3.6,4.4-3.3s3,2.6,3.4,4.5a28.61,28.61,0,0,1-1.4,16.1,18.41,18.41,0,0,1,2.6-19.6c.9,1.3.7,3.1.5,4.6-.5,3.8-1,7.7-1.6,11.5a69.13,69.13,0,0,1,5.9-16.5,90.86,90.86,0,0,0-2.1,17.2,99.15,99.15,0,0,1,8.4-22.4,48.87,48.87,0,0,1-1.8,10.7,55.43,55.43,0,0,1,6-15.7,9.38,9.38,0,0,1-.2,4.7c.4-1.3.8-2.5,1.2-3.8a59.45,59.45,0,0,0-1.3,9.3c.4-2.6.9-5.2,1.3-7.8a54.21,54.21,0,0,0-2.6,14.9c.3-1.9.7-3.8,1-5.7-.8,5.3-1.5,10.7-2.3,16a2.62,2.62,0,0,0,.6-2.5c-.4,3.1-.8,6.1-1.1,9.2" transform="translate(-36.23 -97.3)"/><path class="cls-2" d="M103.6,162.8a3.55,3.55,0,0,0-.9.4l4.6-.6c.8.1,1.1.6,1.8.6a9.93,9.93,0,0,0,2.7-1.4,50,50,0,0,1,7.4-2.6c1.6-.4,5.7-.4,6.8-1.3,1.4.1,1.3-.4-.4-1.6-.7-1.8-1.2-2-1.6-.8-.6.3-2,2.7-2.5,3.2-4,4.1-.7,9.6,4.2,10.2,6.3.8,10.2-5.8,12.9-10.5a50.73,50.73,0,0,0,5.9-17.3c-3.3.9-6.7,1.8-10,2.6.2.3.4.7.6,1,3.9-.5,7.9-1.1,11.8-1.6-.5-2.1-1-4.2-1.4-6.3-1.6-7-11.2-4.7-11.8,1.6-1.3,13.1-.1,26.1,1.2,39.1l11.2-3a67.73,67.73,0,0,1-4.3-9c-2.8-7.2-13-4.5-11.6,3.2,1,5.2,2.2,10.3,3.7,15.4,1.2,4.1,2.7,8.7,7.3,10,11.4,3.2,10.6-11.9,9.6-18.5-3.9,1.1-7.7,2.1-11.6,3.2a13.23,13.23,0,0,1,.8,3.3c3.9-.5,7.9-1.1,11.8-1.6-.8-4.3-1.6-8.6-2.4-12.8-3.7,1.5-7.3,3.1-11,4.6,0,.3.1.7.1,1,3.9-.5,7.9-1.1,11.8-1.6-1.2-7.6-2.3-15.2-3.5-22.8-3.7,1.5-7.3,3.1-11,4.6a10.13,10.13,0,0,1,.8,4.2c3.9-.5,7.9-1.1,11.8-1.6a54.41,54.41,0,0,1-1.5-7l-11.2,3q3.15-3.75.3-3.3c-1,0-2.1-.1-3.1-.2-1.6-.1-3.1-.4-4.7-.4a15.87,15.87,0,0,0-10.5,3.5c-6,5-9.4,14.3-12.5,21.2l11.2,3c0-5.2,3-10,2.9-15.2a7.08,7.08,0,0,0-9.1-6.7c-4,1.1-7.1,5-10.1,7.6a28.32,28.32,0,0,0-2.8,2c-1,.3-.8.6.4,1q1.8,1.65.9-1.2c.6-2.8.6-5.5,1.6-8.3H88.6a7.84,7.84,0,0,1,.2,3.4c-.1.5-1.4,3-1.3,3.1,1.4.7,2.9,1.3,4.3,2v-1.3c.8-1.5.7-2.3,2-3.6-3.3-.9-6.7-1.8-10-2.6a4.93,4.93,0,0,1-1.1,2.3c-1.4,1.4-1.2,1.7.7.9-1.3,0-2.8-.8-4.2-.8a13.73,13.73,0,0,0-8.8,3.5c-2.2,1.8-1.9,5-.9,7.3,4.1,9.4,7.9,18.9,13.1,27.7,3,5,11.3,3,11.2-3-.1-5.8-1.3-12.9,0-18.5-3.7.5-7.3,1-11,1.4a29.31,29.31,0,0,1,4.1,6.8c.4,1,.7,2,1,3s.1,3.7,1.4,2.6l4.2-1.8c.3,0-.9-2.9-1-3.5-.1-.8.3-1.7.1-2.4.1-.4.2-.7.3-1.1-1.3-.9-1.6-.8-1,.2-.2,1.5,1.7,5,2,6.7a36.77,36.77,0,0,1,.5,8.1l7.6-5.8c.9.4-.2-2.1-.1-3.4a13.56,13.56,0,0,1,.6-2.9c-3-2.3-4.1-2.3-3.1-.2-.5,1.7.5,4.7.3,6.6a22.6,22.6,0,0,1-1.7,6.3c3.7-.5,7.3-1,11-1.4a12.59,12.59,0,0,1,1.7-12.4c-3.3-.9-6.7-1.8-10-2.6,1.3,3.5-.5,9.4-1,13-1.1,7.4,9.8,10.9,11.6,3.2a67.73,67.73,0,0,1,5.3-15.1c-3.7-1.5-7.3-3.1-11-4.6a107.34,107.34,0,0,0-2.3,18.8c0,6.7,10.1,8.2,11.8,1.6a103.88,103.88,0,0,1,7.8-21l-11.2-3a46.9,46.9,0,0,1-1.6,9.1c3.9,1.1,7.7,2.1,11.6,3.2a55.5,55.5,0,0,1,5.4-14.2c-3.7-.5-7.3-1-11-1.4-.1.5-.1,1-.2,1.5-1.7,7.5,9.2,10.6,11.6,3.2.4-1.3.8-2.5,1.2-3.8-3.9-1.1-7.7-2.1-11.6-3.2a66.48,66.48,0,0,0-1.5,10.9c-.5,6.7,10.6,8.3,11.8,1.6.4-2.6.9-5.2,1.3-7.8,1.3-7.5-9.3-10.7-11.6-3.2a71.24,71.24,0,0,0-2.8,16.5c-.3,6.7,10.6,8.3,11.8,1.6.3-1.9.7-3.8,1-5.7-3.9-1.1-7.7-2.1-11.6-3.2-.8,5.3-1.5,10.7-2.3,16-.9,6.2,7.5,11.2,11,4.6a10,10,0,0,0,1.4-5.6c0-7.9-11.1-7.5-12,0-.4,3.1-.8,6.1-1.1,9.2-.9,7.6,11.1,7.6,12,0,.4-3.1.8-6.1,1.1-9.2h-12c.1-.2.1-.3.2-.5,3.7,1.5,7.3,3.1,11,4.6.8-5.3,1.5-10.7,2.3-16,1.1-7.5-10.2-10.9-11.6-3.2-.3,1.9-.7,3.8-1,5.7,3.9.5,7.9,1.1,11.8,1.6a50.28,50.28,0,0,1,2.4-13.3c-3.9-1.1-7.7-2.1-11.6-3.2-.4,2.6-.9,5.2-1.3,7.8,3.9.5,7.9,1.1,11.8,1.6a51,51,0,0,1,1.1-7.7c1.6-7.5-9.2-10.6-11.6-3.2-.4,1.3-.8,2.5-1.2,3.8,3.9,1.1,7.7,2.1,11.6,3.2a21,21,0,0,0,.2-7.9c-.7-5.2-8.7-5.6-11-1.4a69.63,69.63,0,0,0-6.6,17.1c-1.8,7.5,9.5,10.7,11.6,3.2a56.41,56.41,0,0,0,2-12.3c.4-5.9-8.6-8.3-11.2-3a118.65,118.65,0,0,0-9,23.9c3.9.5,7.9,1.1,11.8,1.6a82.12,82.12,0,0,1,1.9-15.6c1.2-6.2-7.7-11.1-11-4.6a81.89,81.89,0,0,0-6.6,17.9c3.9,1.1,7.7,2.1,11.6,3.2.9-5.9,3.2-13.6,1-19.4-1.4-3.7-6.9-6.6-10-2.6-6.4,8.1-7.6,17.5-3.6,26.9,2.2,5.2,9.4,2.8,11-1.4a33.46,33.46,0,0,0,1.4-19.3c-1.5-5.9-6.5-10.7-12.9-8.3-12,4.5-10.2,25.3.8,29.5,3.8,1.5,7.5-2.2,7.6-5.8.2-8.6-1.1-23.7-10.9-26.9-10.1-3.3-15.9,8.3-14.9,16.8.9,7.2,8.9,19.2,17.1,12.4,7.4-6-.2-21.2-4.6-27-2.9-3.8-9.6-4.1-11,1.4-1.7,6.9-.6,14.7-.5,21.7l11.2-3c-5.2-8.8-9.1-18.3-13.1-27.7-.3,2.4-.6,4.8-.9,7.3.2-.2,4.5.9,5.6.8,2.8-.3,4.5-1.7,6.3-3.8,3.7-4.4,5.5-9,4.6-14.6-.7-4.5-7.1-5.7-10-2.6-5.3,5.6-9.8,21.8,1.9,23.4,11.1,1.4,14.9-13.4,13-21.6-1.5-6.2-9.6-5.1-11.6,0-2.7,7.1-4.6,21.5,5.3,23.9,3.9,1,8-.8,11.1-3a40.24,40.24,0,0,0,4.5-3.7c.9-.8,1.8-1.7,2.7-2.4a10.63,10.63,0,0,1,1.1-.9c1.6-1,.5-1.1-3.1-.4-1-1.7-2-3.5-3-5.2.1,2.4-1.3,5.2-1.9,7.5a32.31,32.31,0,0,0-1,8.2c0,5.6,8.7,8.7,11.2,3a156.65,156.65,0,0,1,7.1-14.2c1.1-1.8,1.9-3.9,4.1-4.5s4.9.2,6.9.4c3.9.3,8.3,0,11.3-3a9.12,9.12,0,0,0,1.1-11.7c-3-4.2-12.1-3.6-11.2,3a91.32,91.32,0,0,0,1.9,10.2c1.7,6.5,11.8,5.2,11.8-1.6a24.32,24.32,0,0,0-2.4-10.3c-3.1-6.7-11.9-1.5-11,4.6,1.2,7.6,2.3,15.2,3.5,22.8,1.1,6.8,11.7,5,11.8-1.6a14.69,14.69,0,0,0-1.8-7.1c-3.3-6.4-12.2-1.7-11,4.6.8,4.3,1.6,8.6,2.4,12.8,1.2,6.6,12.5,5.2,11.8-1.6a23.45,23.45,0,0,0-1.3-6.5c-2.5-7.5-12.6-4.3-11.6,3.2a25.61,25.61,0,0,1,.3,3.9v1.6c-.1,1.1,0,1.1.3-.2l4.2-1.8c2,1.8,2.6,1.9,1.9.4a27.58,27.58,0,0,1-.8-2.7c-.4-1.5-.9-3-1.2-4.5-.9-3.3-1.6-6.6-2.2-10-3.9,1.1-7.7,2.1-11.6,3.2a97.53,97.53,0,0,0,5.5,11.8c2.8,4.9,11.8,3.1,11.2-3-1.3-13-2.4-26.1-1.2-39.1-3.9.5-7.9,1.1-11.8,1.6.5,2.1,1,4.2,1.4,6.3,1.5,6.5,12.5,5.2,11.8-1.6a15.22,15.22,0,0,0-4.1-9.5c-2.8-3.1-9.4-1.8-10,2.6a44.19,44.19,0,0,1-2.9,10.8,34.82,34.82,0,0,1-2.2,4.3c-.5.9-1.1,1.8-1.7,2.7-1.2,1.1-1.4,1.5-.4,1.2l4.2,10.2c4.7-4.8,10.5-14.7,3.1-19.9-5.5-3.8-15.5-.4-21.2,1.5-6.5,2.3-14.3,5.3-15.1,13.1s4.8,14.6,12.8,11.2c3-1.3,3.6-5.7,2.2-8.2-1.4-2.8-4.9-3.1-7.9-1.8Z" transform="translate(-36.23 -97.3)"/><path class="cls-1" d="M84.2,181.9a15.7,15.7,0,0,0-3.6-7.3,4.07,4.07,0,0,0-2-1.4,1.49,1.49,0,0,0-1.9,1,2.61,2.61,0,0,0,.6,1.8,12.66,12.66,0,0,1,1.7,6.3,6.1,6.1,0,0,1-.6-3.3c.2,1.4.3,2.7.5,4.1.5,4.2,1,8.4,1.9,12.5,3.5,15.7,13.3,29.4,18.1,44.8a71.87,71.87,0,0,1-1.4-37.1,2.72,2.72,0,0,1,.8-1.7,2.38,2.38,0,0,1,1.2-.3,3.16,3.16,0,0,1,2.5,3.3,5.1,5.1,0,0,1-2.3,3.7,4.41,4.41,0,0,1-4.4.6,5,5,0,0,1-2.5-3.3,10.93,10.93,0,0,1,.9-8.3,4.55,4.55,0,0,1-1.5,5.7c-.6.4-1.4.5-1.7-.1a.6.6,0,0,1-.1-.4c-.2-2.4,1.9-4.5,4.2-4.9a7.67,7.67,0,0,1,6.4,2.3,16.79,16.79,0,0,1,3.5,6.1c1.9,5.4,2.4,11.2,2.7,16.9a196.81,196.81,0,0,1-.3,26.6,117.46,117.46,0,0,1,2-29.6c1.2-6,2.9-12,2.8-18.1a70,70,0,0,1,3.7,11.2c.7-2.4,1.4-4.9,2.2-7.3V208c.1-1.3.3-2.7.4-4a53.25,53.25,0,0,0-.7,11.3,16.31,16.31,0,0,1,.6-5.4,61.5,61.5,0,0,0,.4,10.5v-3.6a7.17,7.17,0,0,1,.5,2.1l1.2,14.4a33,33,0,0,1,0,7.7,17.43,17.43,0,0,1-15.8,14.4,33.5,33.5,0,0,1-7.1-.6c-6.6-1-13.2-2-19.7-3-.3-.1-.7-.1-.9-.4a2,2,0,0,1-.1-.8c1-6.8,2.1-13.5,3.1-20.3,1.1-7.2,2.2-14.5,1.8-21.9-.1-2.5-.4-5,.2-7.4s2.4-4.7,4.8-5.1a6.16,6.16,0,0,1,5.6,2.8,14.63,14.63,0,0,1,2,6.2c.8,6.1.2,12.2-.4,18.3-.4,3.7-.7,7.4-2.5,10.7-.4.8-1.2,1.7-2.1,1.5a2.1,2.1,0,0,1-1.1-.8,5.8,5.8,0,0,1-.6-6.2c.3-.6.8-1.3,1.5-1.4,1.4-.2,2.3,1.4,2.5,2.8a16.76,16.76,0,0,1-1.2,9.4,5.6,5.6,0,0,1-1,1.5,2.87,2.87,0,0,1-3.3-.2,4.82,4.82,0,0,1-1.5-3.2,8.1,8.1,0,0,1,2.1-6.3,2.84,2.84,0,0,1,1.1-.8c1.2-.2,2,1.1,2.4,2.3A14.25,14.25,0,0,1,90,239c-.4,1.7-1.2,3.5-2.8,4.2s-3.9-.6-3.6-2.3a3.5,3.5,0,0,1,2.1-2.2,4,4,0,0,1,2.6-.5,3,3,0,0,1,2,3.1,8.9,8.9,0,0,1-1.2,3.8c4.5,2,8.9,4,13.4,6a3.66,3.66,0,0,0,1.8.4c1.3-.2,1.9-1.7,2.2-3,1.4-5.9,2.8-12.2,7.1-16.5-1.1,7.9,2.6,15.9,1.5,23.8a2.92,2.92,0,0,1-.5,1.4,2.83,2.83,0,0,1-1.6.6c-7.5.9-15.1-.1-22.7-1.1-4.2-.6-8.4-1.1-12.6-1.7-1-.1-2.4.1-2.3,1.1,0,.8,1.1,1.1,1.8,1.1,1.8.1,3.5.3,5.3.4" transform="translate(-36.23 -97.3)"/><path class="cls-2" d="M90,180.3c-1.4-5.7-5.5-13.8-12.5-13a7.39,7.39,0,0,0-6.5,5.3c-1,3.6,1.8,6.3,2.1,9.7,3.9-.5,7.9-1.1,11.8-1.6-.1-.6-.3-1.1-.4-1.7h-12c1.3,11.1,2.8,21.6,7.2,32s10,20.2,13.5,31c2.3,7.3,13.8,4.3,11.6-3.2a66.92,66.92,0,0,1-2.9-17.8,70.64,70.64,0,0,1,.2-8c.2-2.1.2-6.6,1.5-8.3-1.2.9-2.4,1.8-3.6,2.8-1.9.4-1.4-6.1-.9-7-3.7-.5-7.3-1-11-1.4a21,21,0,0,1,1.7-1.4l4.6.6c-.3-.1-.5-.3-.8-.4.9,1.2,1.8,2.4,2.8,3.6-1,1.4-.8,2.4.5,2.8a9.13,9.13,0,0,1,1.5,2.3,23.78,23.78,0,0,1,1.5,4.5,60.62,60.62,0,0,1,1.5,12,214.66,214.66,0,0,1-.3,26.6h12a117.41,117.41,0,0,1,1.1-24.4c1.3-7.8,3.6-15.4,3.7-23.4-3.9.5-7.9,1.1-11.8,1.6a86.38,86.38,0,0,1,3.7,11.2c1.5,5.9,9.9,5.5,11.6,0,.7-2.4,1.4-4.9,2.2-7.3-3.9-.5-7.9-1.1-11.8-1.6v2.3c-.1,7.9,11.2,7.5,12,0,.1-1.3.3-2.7.4-4,.7-6.7-10.8-8.3-11.8-1.6a69.39,69.39,0,0,0-.9,12.9c.3,7.7,12.1,7.8,12,0a9.68,9.68,0,0,1,.4-3.8c-3.9-.5-7.9-1.1-11.8-1.6a73.75,73.75,0,0,0,.4,10.5c.8,7.5,12.1,7.9,12,0v-3.6c-3.9.5-7.9,1.1-11.8,1.6,1.5,4.4,1.1,10.3,1.4,14.9.4,5,.5,9.8-3.6,13.4-3.8,3.3-8,3-12.6,2.3-3-.4-5.9-.9-8.9-1.3-2.7-.4-6.9-.2-9.3-1.3,1,1.7,2,3.5,3,5.2-.2-3.3.9-7,1.4-10.2.5-3.4,1-6.8,1.6-10.1,1-6.9,2.1-13.8,2-20.7,0-1.9-.3-3.7-.3-5.6,0-.9.6-2.9.1-2.8.4,0,1,7.4,1,8.6,0,3.7-.3,7.3-.6,11-.2,1.7-.3,3.3-.5,5-.1.8-1.5,3.8.1,3.3l4.6.6c1,.6.9,1.3-.2,2l-4.6.6c-1.6-2-2.2-1.9-1.7.2a10,10,0,0,1-.4,2.4c-.9,2.2.8,2.5,5.1.8.5-1.2.6-1.4.3-.8l-4.6.6c-3.3-.7-.8,3.6-2,6-1.3,2.7-1,6.8,2.2,8.2,4.4,2,8.9,4.2,13.4,6,3.5,1.4,6.9,1.8,9.9-.9,5.3-4.7,3.7-13.8,8.4-19.2l-10.2-4.2a46.57,46.57,0,0,0,.7,11.8c.6,3.8,1.9,8.2.5,11.9.9-1.2,1.8-2.4,2.8-3.6-2,1.2-8.6.1-10.9-.1-4.1-.3-8.1-.9-12.2-1.4-5.5-.7-15.1-4-18.3,2.6-.9,1.8-1.3,4.3,0,6.1,3.3,4.3,7.3,4.1,12.3,4.6,7.7.6,7.7-11.4,0-12a27.15,27.15,0,0,1-4.9-.5c1.2.9,2.4,1.8,3.6,2.8a5.55,5.55,0,0,0-.6-.8V260a2.51,2.51,0,0,1,.4-.7c-1.2.9-2.4,1.8-3.6,2.8,2-.7,6.3.7,8.5,1,3.4.5,6.8.9,10.2,1.3,6,.7,13,1.6,19,.1,11.8-3,3.8-23.4,4.6-31.6.5-5.1-6.9-8-10.2-4.2a35.48,35.48,0,0,0-7.5,14.7c-.3,1.1-1,2.6-.9,3.7-.6,1.8.4,1.4,3-1-.6-.2-1.1-.5-1.7-.7-2.8-2-6.9-3.1-10-4.5.7,2.7,1.4,5.5,2.2,8.2,2.1-4.3,3.3-9.7-.6-13.5s-9.9-2.7-13.4.8c-8.2,8.2,5.2,19,12.8,10.9,5.9-6.4,3.4-26.9-8.5-21.1-8.8,4.3-8.4,21,2.3,22.1,10.3,1.1,13.4-15.5,8.9-22.3a7.8,7.8,0,0,0-12-1.5c-3.4,3.3-3.7,9.2-1.6,13.2,2.5,4.7,8.2,6.4,12.4,2.7,3.8-3.4,4.5-9.8,5-14.5,1.1-9.7,3.6-25.1-5-32.2a11.17,11.17,0,0,0-15.3.8c-4.5,4.7-3.7,10.9-3.6,16.8a115.42,115.42,0,0,1-2,20.3c-.6,3.7-1.1,7.4-1.7,11.1-.5,3.1-1.5,6.6-1.3,9.7a6,6,0,0,0,3,5.2c3.7,1.8,8.1,1.9,12.2,2.5,4.4.7,8.8,1.5,13.2,2,7,.8,13.4-.6,18.9-5.1a23.13,23.13,0,0,0,8.4-16.9c.2-4.3-.5-8.7-.8-13-.3-3.6-.1-7.5-1.3-10.9-2.1-6.2-11.9-5.4-11.8,1.6v3.6h12a73.75,73.75,0,0,1-.4-10.5c.2-6.7-10.2-8.2-11.8-1.6a27.35,27.35,0,0,0-.8,7h12a62.46,62.46,0,0,1,.4-9.7c-3.9-.5-7.9-1.1-11.8-1.6-.1,1.3-.3,2.7-.4,4h12v-2.3c.1-6.9-9.9-8-11.8-1.6-.7,2.4-1.4,4.9-2.2,7.3h11.6a91.72,91.72,0,0,0-3.7-11.2c-2.4-5.9-11.6-5.7-11.8,1.6-.2,8.1-2.8,15.9-3.9,23.8a127.2,127.2,0,0,0-1,23.9c.4,7.7,11.5,7.7,12,0,.7-11.1,1-22.4-.3-33.5-1-8.6-3.2-20.1-12.4-23.6-7.6-2.9-19.2,3.6-15.3,12.8,1.8,4.4,7.3,5,10.9,2.5a10.53,10.53,0,0,0,3.7-12c-1.5-4.5-8.6-6.4-11-1.4-3.4,7.1-2.9,20.1,7.4,20.9,8.9.6,16.6-11.2,8.8-17.7-3.3-2.7-8.3-2.9-11.2.5-2.7,3.2-2.9,8.3-3.4,12.3-1.5,9.7-.4,20.5,2.6,30.7,3.9-1.1,7.7-2.1,11.6-3.2-3.2-10.1-8.3-19.5-12.6-29.2-4.5-9.9-6.3-19.9-7.6-30.6-.9-7.5-12.4-7.9-12,0a15.58,15.58,0,0,0,.8,4.8c2.1,6,12.3,5.6,11.8-1.6a22.57,22.57,0,0,0-.9-5.7c-.2-.8-1.8-5.8-1.4-2.4L81,178.3c.2-.3.5-.6.7-.9l-4.2,1.8c-1.5-.9-1.5-.6-.1,1a12.13,12.13,0,0,1,1.1,3.2c1.8,7.6,13.4,4.4,11.5-3.1Z" transform="translate(-36.23 -97.3)"/><path class="cls-1" d="M119.8,256.7a6,6,0,0,1-.8-4.3c.1-.3.1-.6.4-.8.6-.5,1.5,0,2,.6a5.78,5.78,0,0,1,1.2,3.6c0,.3,0,.7-.3.8a.88.88,0,0,1-.8-.2,2.91,2.91,0,0,1-.9-3.4,3.55,3.55,0,0,1,1.8,2,12.35,12.35,0,0,1-.4-4.3,68.22,68.22,0,0,0-1.5-15.6,8.13,8.13,0,0,1,1.2,2.9,37.35,37.35,0,0,1-.9-4.6c1,7.6,2,15.2,3.1,22.9a9.61,9.61,0,0,1-.3-3.4,20.66,20.66,0,0,1,1.1,5.5c-1.1-.7-2.5-.4-3.7-.1a25.35,25.35,0,0,1-11.3-.4,2.43,2.43,0,0,0,3.6.8c-2-1.2-4.3-1.5-6.5-2a68,68,0,0,0-9-1.7c-3-.2-6.3.4-8.6,2.3a8.78,8.78,0,0,1-1.5,1.2,1.67,1.67,0,0,1-1.8,0c4.6-.5,9.3,1.4,13.7.1.4-.1,1.2.1,1,.4a4.49,4.49,0,0,0,1.9-.5" transform="translate(-36.23 -97.3)"/><path class="cls-2" d="M124.9,253.7c-.2.3-.3.6-.5.9-1.7,1-3.5,2-5.2,3,.3,0,.7-.1,1-.1l-4.2-1.8c.1-.2.2-.5.3-.7,2.5-1.4,4.9-2.8,7.4-4.2.8,1.3,1.7,2.5,2.5,3.8-2.9,1.2-5.9,2.4-8.8,3.6-.1-.1-.2-.1-.3-.2a6,6,0,0,0,11-4.6c-.7-3.1-.1-6.5-.4-9.7a86.43,86.43,0,0,0-1.5-10.2c-3.7,1.5-7.3,3.1-11,4.6l.6,1.5c2.1,7.4,13.4,4.3,11.6-3.2-.3-1-.5-2-.7-3h-12c1,7.6,2,15.2,3.1,22.9,3.9-.5,7.9-1.1,11.8-1.6,0-.6-.1-1.2-.1-1.8-3.9.5-7.9,1.1-11.8,1.6a13.77,13.77,0,0,1,.9,3.9l7.6-5.8c-4.8-1.7-10,.7-15.1-.5a6,6,0,0,0-5.8,10c3,3.4,7.1,3.5,10.9,1.7,4-1.8,3.8-8.5,0-10.4-5.3-2.6-11.8-3.9-17.7-4.4a20.53,20.53,0,0,0-7.8.7,15.4,15.4,0,0,0-3.5,1.5l-1.2.9c-2,1.2-1.6,1.4,1.3.5-.5,3.9-1.1,7.9-1.6,11.8,2.6-.1,5.1.3,7.8.4,2.3.2,4.4-.4,6.6-.4-1.7-1-3.5-2-5.2-3,.1.1.1.3.2.4,1.3,2.5,4.2,3.2,6.8,2.8a4.14,4.14,0,0,0,1.9-.5c7.2-2.6,4.1-14.2-3.2-11.6a5.92,5.92,0,0,1-1.9.5c2.3.9,4.5,1.8,6.8,2.8-.1-.1-.1-.3-.2-.4a6.09,6.09,0,0,0-5.2-3c-2.2-.1-4.4.5-6.6.4a50.33,50.33,0,0,0-7.8-.4,6,6,0,0,0-1.6,11.8c5,1.5,6.4-2,10.6-3.1,2.2-.6,4.7.1,6.8.5,2.8.6,6.1.9,8.7,2.2V253.4c1.2.1,2.4.1,3.6.2-1.9,3.3-3.9,6.7-5.8,10a36.75,36.75,0,0,0,8.1,1.1c2.1,0,5.1-1.2,7-.5,3.5,1.2,7.9-2,7.6-5.8a33,33,0,0,0-1.3-7.1c-1.9-6.4-11.8-5.3-11.8,1.6a28.25,28.25,0,0,0,.5,5c1.1,6.6,12.7,5.1,11.8-1.6-1-7.6-2-15.2-3.1-22.9-.4-3.2-2.4-6-6-6-2.9,0-6.4,2.8-6,6a61.68,61.68,0,0,0,1.1,6.2c3.9-1.1,7.7-2.1,11.6-3.2a20.53,20.53,0,0,0-1.8-4.3c-3.5-6.2-12.2-1.8-11,4.6,1.3,6.6.4,13.4,1.9,19.9,3.7-1.5,7.3-3.1,11-4.6a13,13,0,0,0-4-4.1c-2.9-2.2-8.2,0-8.8,3.6-.8,4.6.7,9.8,5.9,11,3.4.8,6.1-1,7.4-4.2,2.1-5.3-2.3-12.8-8.2-12.7-7.9.2-7.7,9-5.2,14.2,3.1,6.9,13.5.8,10.2-6.1Z" transform="translate(-36.23 -97.3)"/><path class="cls-1" d="M147.8,206.8v1.4a54.06,54.06,0,0,1-2.8-8c-.3-1-.6-2.1-.9-3.1-.9-3.1-1.8-6.2-2.7-9.2.9,3.6,1.9,7.2,2.8,10.8a22.6,22.6,0,0,1-1.7-6.3c.9,4,1.9,8,2.8,12-.6-2-1.2-4-1.8-6.1,2.7,4.3,1.8,10,3.4,14.8.2-2.4.5-4.7.7-7.1a52.7,52.7,0,0,0,.4-5.6c0-2-.2-4-.4-6a82.36,82.36,0,0,0-1.1-8.5c.1,8,.2,16.1.4,24.1a55.3,55.3,0,0,0,.4,7.1c.6,5,2.4,9.7,2.7,14.7.1,2.2,0,4.3.1,6.5a67.13,67.13,0,0,0,1.3,9.9c-.2-3.2-.9-6.2-1.4-9.4a108.4,108.4,0,0,1-1-15.1c-.1-6.8-.3-13.6-.4-20.3a58.76,58.76,0,0,1,1,9.3c0,4.8-1,9.8.7,14.3a66.2,66.2,0,0,0-.4-7.7c.9,12,1.7,24,2.6,36.1-.2-.9-.3-1.8-.5-2.7a35.82,35.82,0,0,1,.8,11.8" transform="translate(-36.23 -97.3)"/><path class="cls-2" d="M141.8,206.8v1.4l11.2-3c-2.6-5.9-4-12.6-5.8-18.9-2.2-7.4-13.5-4.3-11.6,3.2.9,3.6,1.9,7.2,2.8,10.8,3.9-1.1,7.7-2.1,11.6-3.2a34.51,34.51,0,0,1-1.7-6.3c-3.9,1.1-7.7,2.1-11.6,3.2.9,4,1.9,8,2.8,12,3.9-1.1,7.7-2.1,11.6-3.2-.6-2-1.2-4-1.8-6.1-3.7,1.5-7.3,3.1-11,4.6,2.1,4,1.6,9.1,2.8,13.4,2,6.8,11.1,4.9,11.8-1.6,1-9.8,1.3-19-.7-28.7-1.3-6.7-11.9-5.1-11.8,1.6.2,10.8-.6,22.1.9,32.8.8,5.2,2.5,10.2,2.6,15.6a89.44,89.44,0,0,0,1.5,15.5c1.2,6.6,12.4,5.2,11.8-1.6-.7-7.6-2.2-14.9-2.4-22.5-.2-7.4-.3-14.8-.4-22.2-3.9.5-7.9,1.1-11.8,1.6,1.2,7.8-.6,16,1.6,23.6,1.9,6.4,11.8,5.3,11.8-1.6a66.2,66.2,0,0,0-.4-7.7c-.7-7.6-12.6-7.8-12,0,.9,12,1.7,24,2.6,36.1,3.9-.5,7.9-1.1,11.8-1.6-.2-.9-.3-1.8-.5-2.7-3.9,1.1-7.7,2.1-11.6,3.2a38.65,38.65,0,0,1,.6,10.2c-.5,7.7,11.5,7.7,12,0a46.75,46.75,0,0,0-1.1-13.4c-1.6-7.6-12.9-4.3-11.6,3.2.2.9.3,1.8.5,2.7,1.2,6.6,12.3,5.2,11.8-1.6-.9-12-1.7-24-2.6-36.1h-12c.2,2.6.4,5.1.4,7.7,3.9-.5,7.9-1.1,11.8-1.6-1.2-3.9-.5-7.8-.5-11.8A77.36,77.36,0,0,0,154,202c-1-6.8-11.9-5-11.8,1.6.1,7.4.2,14.8.4,22.2.2,7.7,1.7,15,2.4,22.5,3.9-.5,7.9-1.1,11.8-1.6-.9-4.7-.9-9.2-1.1-14-.2-5.2-1.9-10.1-2.7-15.3-1.6-10.2-.6-21.2-.8-31.5-3.9.5-7.9,1.1-11.8,1.6,1.7,8.7,1.1,16.9.2,25.6,3.9-.5,7.9-1.1,11.8-1.6-1.6-5.5-1.3-11.1-4-16.3-3.2-6-12.9-1.9-11,4.6.6,2,1.2,4,1.8,6.1,2.2,7.4,13.3,4.3,11.6-3.2-.9-4-1.9-8-2.8-12-1.8-7.7-12.8-4.3-11.6,3.2a34.51,34.51,0,0,0,1.7,6.3c2.7,7.1,13.6,4.4,11.6-3.2-.9-3.6-1.9-7.2-2.8-10.8-3.9,1.1-7.7,2.1-11.6,3.2,2.1,7.3,3.9,14.8,7,21.7,2.5,5.7,11.2,2.5,11.2-3v-1.4c.3-7.7-11.7-7.7-11.7.1Z" transform="translate(-36.23 -97.3)"/><path class="cls-1" d="M57.6,181.9c-1.3-5.5.8-11.4-.9-16.8-.2.7-.2,1.7.4,2,.8.4,1.5-.6,2.4-.8s1.6.4,2.3.8,1.9.4,2.2-.3c-.8,1.7-1.6,3.5-2.3,5.2.5-.9,1.1-1.9,1.6-2.8-1,3-2.1,6-3.1,9a20.13,20.13,0,0,0,2.3-5.2,94.07,94.07,0,0,0-2.5,9.1c.5-1.8,1.1-3.6,1.6-5.3a53.36,53.36,0,0,0-2.9,11.1c.6-1.6,1.2-3.1,1.7-4.7a114.13,114.13,0,0,1-4.2,15.5c.2-.3.4-.5.6-.8a86.76,86.76,0,0,1-3.5,13.3c-.3.8-1,1.8-1.7,1.4-.5-.3-.5-1-.4-1.5.6-5.6,1.1-11.2,1.7-16.7s1.1-11.2,1.9-16.8c.4-3.3.9-6.5,1.4-9.8-1,9.3-2.3,18.5-3.6,27.7-.2-7.2,1.4-14.3,3-21.3,2.2,5-1.4,10.8-.3,16.2a33.83,33.83,0,0,1,.8,3.4,12.22,12.22,0,0,1-.8,5,87.68,87.68,0,0,0-3,14.4c-.2-2.1-.3-4.3-.5-6.4-.5,5.1-.9,10.3-1.3,15.5a35.84,35.84,0,0,0,2.3-7c-1,5.9-2,11.7-3,17.6a48.89,48.89,0,0,1,.5-10.1c.6,8.2-2.3,16.4-1.9,24.6a224.45,224.45,0,0,0,3-24.5c-.9,7.7-1.8,15.5-2.6,23.2" transform="translate(-36.23 -97.3)"/><path class="cls-2" d="M63.4,180.3c-1-5.6.5-11.1-.9-16.8-1.8-6.9-11.3-4.9-11.8,1.6a6.8,6.8,0,0,0,1.3,5c1.6,2.5,4,3.2,6.8,2.8a10.94,10.94,0,0,0,3.8-1.4l-4.6.6c4.1.7,6.8,2.3,10.4-1.1-3.1-2.4-6.3-4.8-9.4-7.3-.8,1.7-1.6,3.5-2.3,5.2-3.1,6.9,6.4,12.9,10.4,6.1.5-.9,1.1-1.9,1.6-2.8-3.7-1.5-7.3-3.1-11-4.6-1,3-2.1,6-3.1,9-2.3,6.5,7.6,10.4,11,4.6a30.84,30.84,0,0,0,2.9-6.7c2.3-7.4-9.2-10.5-11.6-3.2a94.07,94.07,0,0,0-2.5,9.1c-1.7,7.5,9.3,10.6,11.6,3.2.5-1.8,1.1-3.6,1.6-5.3,2.3-7.5-9-10.4-11.6-3.2a60.42,60.42,0,0,0-2.9,11.1,6,6,0,0,0,11.6,3.2c.6-1.6,1.2-3.1,1.7-4.7-3.9-1.1-7.7-2.1-11.6-3.2A136.26,136.26,0,0,1,50.6,197c-1.9,5.5,6.2,10.5,10,5.8.2-.3.4-.5.6-.8-3.3-1.9-6.7-3.9-10-5.8-.4,2.3-.9,4.5-1.5,6.7-.3,1.1-.7,4.6-1.5,5.3l4.2-1.8h-.7c1.7,1,3.5,2,5.2,3,.3,1.8.4,2,.5.6.1-.9.2-1.9.3-2.8.2-1.9.4-3.7.6-5.6.3-3.4.7-6.8,1-10.3.8-7.4,1.7-14.8,2.8-22.2-3.9-.5-7.9-1.1-11.8-1.6-1,8.7-2.2,17.4-3.4,26.1,3.9.5,7.9,1.1,11.8,1.6,0-6.7,1.3-13.1,2.8-19.7H49.9c1.6,4.9-1.1,10.9-.3,16.2.9,6.3-2.1,13.2-3,19.6,3.9.5,7.9,1.1,11.8,1.6-.2-2.1-.3-4.3-.5-6.4a6,6,0,0,0-12,0c-.5,5.2-.9,10.3-1.3,15.5-.5,7.3,9.5,7.4,11.8,1.6a57.29,57.29,0,0,0,2.3-7c-3.9-1.1-7.7-2.1-11.6-3.2-1,5.9-2,11.7-3,17.6,3.9.5,7.9,1.1,11.8,1.6a48.69,48.69,0,0,1,.3-8.5c-3.9-.5-7.9-1.1-11.8-1.6.4,8.3-2.1,16.3-1.9,24.6.1,6.5,10.6,8.5,11.8,1.6a251.34,251.34,0,0,0,3.2-26.1c.6-7.8-11.1-7.5-12,0-.9,7.7-1.8,15.5-2.6,23.2s11.1,7.6,12,0,1.8-15.5,2.6-23.2h-12c-.6,7.7-1.5,15.3-2.8,22.9,3.9.5,7.9,1.1,11.8,1.6-.2-8.3,2.3-16.3,1.9-24.6-.3-6.4-10.7-8.6-11.8-1.6a64.66,64.66,0,0,0-.8,11.6c.3,6.4,10.6,8.6,11.8,1.6,1-5.9,2-11.7,3-17.6,1.3-7.5-9.5-10.8-11.6-3.2a57.29,57.29,0,0,1-2.3,7c3.9.5,7.9,1.1,11.8,1.6.3-5.2.8-10.3,1.3-15.5h-12c.2,2.1.3,4.3.5,6.4.5,6.2,10.8,8.7,11.8,1.6a117.08,117.08,0,0,1,2.3-11.8c1-3.7,2.1-7,1.5-10.9a27.81,27.81,0,0,1-.2-9.1c.6-3.6.8-6.9-.4-10.4-1.8-5.3-10.2-6.1-11.6,0-1.7,7.5-3.2,15.1-3.2,22.9,0,6.5,10.8,8.5,11.8,1.6,1.4-9.8,2.7-19.5,3.8-29.3.7-6.7-10.8-8.3-11.8-1.6-1.1,7.5-2.2,15-2.9,22.6-.8,7.3-2.3,15-2.2,22.4,0,6,6.5,10.1,11.4,5.8,4.2-3.7,5.1-12.2,6.1-17.4s-5.9-10.9-10-5.8c-.2.3-.4.5-.6.8,3.3,1.9,6.7,3.9,10,5.8a142.14,142.14,0,0,0,4.2-15.5c1.6-7.6-8.9-10.4-11.6-3.2-.6,1.6-1.2,3.1-1.7,4.7,3.9,1.1,7.7,2.1,11.6,3.2a69.64,69.64,0,0,1,2.9-11.1c-3.9-1.1-7.7-2.1-11.6-3.2-.5,1.8-1.1,3.6-1.6,5.3,3.9,1.1,7.7,2.1,11.6,3.2a94.07,94.07,0,0,1,2.5-9.1c-3.9-1.1-7.7-2.1-11.6-3.2a14.3,14.3,0,0,1-1.7,3.8c3.7,1.5,7.3,3.1,11,4.6,1-3,2.1-6,3.1-9,2.3-6.5-7.6-10.4-11-4.6-.5.9-1.1,1.9-1.6,2.8,3.5,2,6.9,4,10.4,6.1.8-1.7,1.6-3.5,2.3-5.2,2.7-6-4.2-12.2-9.4-7.3-.2.2-.4.3-.5.5l4.2-1.8a17.22,17.22,0,0,0-3.2-.9c-1.8-.1-3,.6-4.8.9,2.3.9,4.5,1.8,6.8,2.8a4.18,4.18,0,0,0,.4,1c-3.9.5-7.9,1.1-11.8,1.6,1.4,5.4,0,11.2.9,16.8,1.2,7.9,12.8,4.7,11.5-2.9Z" transform="translate(-36.23 -97.3)"/><path class="cls-1" d="M49.1,246.1a45.52,45.52,0,0,0-.7,9,14.24,14.24,0,0,1-.5-6.8c1.3,4.1.5,8.5-.3,12.7a12.21,12.21,0,0,1-.1-5.7,120,120,0,0,1-.4,13.4,3.14,3.14,0,0,1-.2-3.1c-.2,2.2-.4,4.4-.7,6.6" transform="translate(-36.23 -97.3)"/><path class="cls-2" d="M43.3,244.5a74.55,74.55,0,0,0-.9,10.6c3.9-.5,7.9-1.1,11.8-1.6a13.07,13.07,0,0,1-.3-5.2c-3.9.5-7.9,1.1-11.8,1.6.8,3.2.3,6.3-.3,9.5H53.4a7,7,0,0,1-.1-2.5c-3.9-.5-7.9-1.1-11.8-1.6.1,4.5-.1,8.9-.4,13.4l11.2-3c.1.5.3,1,.4,1.5-3.9-.5-7.9-1.1-11.8-1.6-.2,2.2-.4,4.4-.7,6.6-.8,7.7,11.2,7.6,12,0,.2-2.2.4-4.4.7-6.6.7-6.9-10-7.9-11.8-1.6a10.57,10.57,0,0,0,.8,7.8c2.6,5.9,10.8,2.3,11.2-3,.3-4.5.5-8.9.4-13.4-.1-6.5-10.6-8.5-11.8-1.6a22.23,22.23,0,0,0,.1,8.9c1.1,5.7,10.5,5.8,11.6,0,1-5.4,1.6-10.5.3-15.9-1.8-7-11.1-4.8-11.8,1.6a21.69,21.69,0,0,0,.8,8.4c1.8,6.6,11.7,5.2,11.8-1.6a46,46,0,0,1,.5-7.4c1-7.6-10.6-10.9-11.7-3.3Z" transform="translate(-36.23 -97.3)"/><path class="cls-1" d="M70.7,259.3a3.13,3.13,0,0,0-.8,3.3,7.73,7.73,0,0,1,3.7.1c1.3.4,2.6,1.1,3.9.7a19.34,19.34,0,0,1-5.8-2.2c10.1-.1,20.2-.2,30.3-.9,3.5-.3,7-.6,10.6-.6a49.84,49.84,0,0,1,15.8,2.6c.3.1.6.2.8,0,.7-.4,0-1.4.2-2.1a26,26,0,0,0,1,2.5c-.1-.5-.2-1-.3-1.6" transform="translate(-36.23 -97.3)"/><path class="cls-2" d="M69.6,258.7a5.29,5.29,0,0,0-.9,4.2c.1.7.9.9,1.5.8,2.6-.4,4.8,1.1,7.3.9a1.23,1.23,0,0,0,.3-2.4,24.12,24.12,0,0,1-5.5-2.1c-.2.7-.4,1.5-.6,2.2,10.1-.1,20.2-.2,30.3-.9,4.7-.3,9.4-.8,14.2-.4,4.5.3,8.7,2.3,13.1,2.5a1.1,1.1,0,0,0,1-.6,5,5,0,0,0,.4-2.7l-2.4.3a26,26,0,0,0,1,2.5,1.19,1.19,0,0,0,2.3-.6c-.1-.5-.2-1-.3-1.6-.2-1.5-2.6-.9-2.3.6.1.5.2,1,.3,1.6l2.3-.6a26,26,0,0,0-1-2.5,1.23,1.23,0,0,0-2.4.3c0,1.4-3.5-.3-4.7-.6a50.3,50.3,0,0,0-5.6-.9c-5-.6-10-.2-15.1.2-10.4.8-20.8.9-31.2,1a1.18,1.18,0,0,0-.6,2.2,22.53,22.53,0,0,0,6.1,2.3l.3-2.4c-2.8.2-5.1-1.2-7.9-.8a10.93,10.93,0,0,0,1.5.8l.6-2.4c1-1-1.1-2.2-2-.9Z" transform="translate(-36.23 -97.3)"/><path class="cls-1" d="M150.6,271.6a7.71,7.71,0,0,0-.7-2.6,10.45,10.45,0,0,0,0,2.5,5,5,0,0,1-1.2-3.3,4.28,4.28,0,0,1,.6,3.1,28.68,28.68,0,0,1-.5-3.1c.9,2.9-.3,6.2,1,8.9-.2-.1.1-.4.3-.4,2.7,0,5.4.6,8.1.5a.6.6,0,0,0,.4-.1.76.76,0,0,0,.2-.5,57.72,57.72,0,0,0-1-11,15.86,15.86,0,0,1-1.5,7.4,2.09,2.09,0,0,1-.4.6,1.08,1.08,0,0,1-.8.2,2.67,2.67,0,0,1-2.5-2.1,1.6,1.6,0,0,1,.5-1.6,1.38,1.38,0,0,1,1.7.3,2.32,2.32,0,0,1,.4,1.8,2.56,2.56,0,0,1-2,2.2,1.72,1.72,0,0,1-1.9-2,2.17,2.17,0,0,1,1-1.1,1.41,1.41,0,0,1,.9-.1,1,1,0,0,1,.5,1.1,2.59,2.59,0,0,1-.7,1.1,5.71,5.71,0,0,1-2.1,1.3,1.27,1.27,0,0,1-.6.1c-.6-.1-.6-1.1-.3-1.6a3.75,3.75,0,0,1,1.9-1.6,1.13,1.13,0,0,1,.8-.1,1.21,1.21,0,0,1,.6,1.7,3.44,3.44,0,0,1-1.6,1.3c-.2.1-.5.2-.7,0s0-.5.1-.7a2.56,2.56,0,0,1,2.9-.9,1.75,1.75,0,0,1,.7,2.7.86.86,0,0,1-.6.3c-.6,0-.9-.8-.9-1.4a3.78,3.78,0,0,1,2-3,1,1,0,0,1,1.2.1.9.9,0,0,1,.1.5,4.28,4.28,0,0,1-.6,2.2c-.2.5-.9,1-1.3.6a.84.84,0,0,1-.2-.7,3.82,3.82,0,0,1,1.4-2.8.66.66,0,0,1,.7-.2c.3.1.4.4.5.6a3.59,3.59,0,0,1-.1,2.5c-.1.3-.5.7-.8.5l-.3-.3a4.07,4.07,0,0,1,0-4c1.2,1,1.2,2.9,1,4.5a5.37,5.37,0,0,1-.6-3.5c.2-1.1.7-2.3.2-3.3-.1-.3-.4-.5-.5-.8a5.79,5.79,0,0,1-.3-3.7,9.69,9.69,0,0,1,.3,2.3" transform="translate(-36.23 -97.3)"/><path class="cls-2" d="M151.7,271.3a25,25,0,0,0-.7-2.6,1.23,1.23,0,0,0-2.4.3,10.45,10.45,0,0,0,0,2.5l2.2-.6a5.36,5.36,0,0,1-1.1-2.7l-2.2.6a3.15,3.15,0,0,1,.4,2.5l2.4-.3a25.12,25.12,0,0,1-.4-2.7l-2.4.3c.7,3-.1,6,1,8.9a1.23,1.23,0,0,0,2.4-.3V277c-.2.3-.4.7-.6,1,2.3-1,7.8,2.5,9.4-.5.8-1.5.1-4.3,0-5.9q-.3-3.15-.9-6.3c-.2-1.3-2.4-1-2.4.3a14.64,14.64,0,0,1-.7,5.1,3,3,0,0,1-.4,1c-.4,1.4-1.5,1.7-3.4,1-.2.1-.3,1-.8.9l.8.8c.4.2.9.4,1.3.6h1.2a.71.71,0,0,1,.1-1.1c.3-.5.4-.5.2.1l.8.8c-.3-.5-.2-.8.1-.9l1.2.3a2.8,2.8,0,0,1,0-2.8,12.25,12.25,0,0,1-1.9.2c1,1.1.8,2.4.6,3.7l2.2-.6c-.9-2.2.2-3.7-.1-5.8-.3-1.8-1.3-2.5-1-4.6h-2.3a6.93,6.93,0,0,1,.3,2,1.2,1.2,0,0,0,2.4,0,12.41,12.41,0,0,0-.3-2.7c-.3-1.1-2.2-1.2-2.3,0a12.29,12.29,0,0,0-.2,2.7,14.27,14.27,0,0,0,.8,2.2c.4,1.3-.1,2.7-.1,4a8.39,8.39,0,0,0,.8,3.2c.5,1.2,2.1.4,2.2-.6.2-2,.1-3.8-1.3-5.4a1.3,1.3,0,0,0-1.9.2c-.8,1.6-1.3,6.3,1.6,6,2.4-.2,2.7-4.9.6-5.8-2.4-1.1-4.7,3.2-3.7,5.1,1.4,2.8,3.8-.6,4.1-2.2.5-3.2-2.5-3.6-4.4-1.5-1.3,1.4-2,5.9,1.2,5.4,2.7-.4,2.1-4.2.2-5.2s-5.2.6-4.7,3a1.27,1.27,0,0,0,.8.8c1.9.5,4.2-1.7,3.9-3.6-.4-2.4-3.1-2.1-4.6-.8-1.2,1.1-2.3,3.9,0,4.5,2,.5,5.3-2.1,4.8-4.2s-3-2.1-4.2-.6c-1.5,1.9.2,4.5,2.5,4.4s3.8-2.9,3.1-5c-.6-1.9-3.4-2.7-4.5-.7-1.3,2.4,1.3,5.3,3.7,5,3.3-.4,3.7-6.8,3.6-9.3l-2.4.3c.3,1.9.6,3.8.8,5.7.1,1.6.6,3.7.1,5.2l.8-.8c-2.9.8-6.3-1.3-9.1-.1a1.1,1.1,0,0,0-.6,1v.2l2.4-.3c-1.1-2.8-.3-6-1-8.9-.3-1.3-2.5-1.1-2.4.3.1,1.1.3,2.3.5,3.4.3,1.4,2.2.9,2.4-.3a6,6,0,0,0-.8-3.7,1.19,1.19,0,0,0-2.2.6,6.86,6.86,0,0,0,1.4,3.9c.6.8,2.4.7,2.2-.6a10.45,10.45,0,0,1,0-2.5l-2.4.3a7.71,7.71,0,0,1,.7,2.6c.6,2,2.9,1.3,2.6-.2Z" transform="translate(-36.23 -97.3)"/><path class="cls-3" d="M70.9,123.5a1.28,1.28,0,0,0-.4,1,11.25,11.25,0,0,0,1.4-3.6,32.46,32.46,0,0,1-3.5,3.9,10.48,10.48,0,0,1,2.6-5c-1,2-2.1,3.9-3.1,5.9.7-1.3,1.3-2.5,2-3.8-3.3,7.2-6.7,14.3-10.2,21.4l1.5-4.2c-1.9,5-3.6,10-5.3,15.1a11.27,11.27,0,0,1,.5-3.2c-.9,2.6-1.9,5.3-2.8,7.9.1-.6.1-1.2.2-1.7a24.62,24.62,0,0,1-1.5,5.3c.4-1.9.8-3.8,1.2-5.8a50.56,50.56,0,0,1-1.7,6.7c.3-2.1.8-4.1,1.3-6.2v2.3a33.14,33.14,0,0,1,.8-5.5,34,34,0,0,1-.3,4.5,5.26,5.26,0,0,1-.2-3.7,25.31,25.31,0,0,1,1.1,6c.2-1.2.4-2.4.6-3.5a5.45,5.45,0,0,1,.1,2.2,4.52,4.52,0,0,1,.7-2.8,7.66,7.66,0,0,1,.7,3.7" transform="translate(-36.23 -97.3)"/><path class="cls-2" d="M65.1,121.9c-.1.3-.3.7-.4,1-2.6,6.3,7.9,10.6,11,4.6a22.54,22.54,0,0,0,2-5.1c1.3-5.4-6-10.8-10-5.8a44,44,0,0,1-3.5,3.9c3.3,1.9,6.7,3.9,10,5.8a5.13,5.13,0,0,1,1-2.4c-3.1-2.4-6.3-4.8-9.4-7.3-1,2-2.1,3.9-3.1,5.9-3.6,6.8,6.7,12.9,10.4,6.1.7-1.3,1.3-2.5,2-3.8-3.5-2-6.9-4-10.4-6.1-3.3,7.2-6.7,14.3-10.2,21.4,3.7,1.5,7.3,3.1,11,4.6l1.5-4.2c2.6-7.3-8.9-10.4-11.6-3.2-1.9,5-3.6,10-5.3,15.1,3.9.5,7.9,1.1,11.8,1.6.1-.5.2-1.1.3-1.6,1.7-7.6-9-10.4-11.6-3.2-.9,2.6-1.9,5.3-2.8,7.9,3.9.5,7.9,1.1,11.8,1.6.1-.6.1-1.2.2-1.7.6-6.7-10.4-8.2-11.8-1.6a52.59,52.59,0,0,1-1.5,5.3c3.9,1.1,7.7,2.1,11.6,3.2.4-1.9.8-3.8,1.2-5.8,1.6-7.5-10-10.8-11.6-3.2-.5,2.3-1,4.5-1.7,6.7,3.9,1.1,7.7,2.1,11.6,3.2.4-2.1.8-4.1,1.3-6.2-3.9-.5-7.9-1.1-11.8-1.6v2.3c0,7.8,11.4,7.6,12,0a12.72,12.72,0,0,1,.6-3.9c-3.9-.5-7.9-1.1-11.8-1.6a34,34,0,0,1-.3,4.5c3.9-.5,7.9-1.1,11.8-1.6-.1-.2-.1-.4-.2-.5H47.6a22.93,22.93,0,0,1,.9,4.4c.6,6.2,10.6,8.8,11.8,1.6.2-1.2.4-2.4.6-3.5H49.3a1.27,1.27,0,0,1-.1.6c-.2,7.9,11.3,7.5,12,0,0,.1-.1.1-.1.2-3.7-.5-7.3-1-11-1.4a3.84,3.84,0,0,1,.5,2.1c.3,7.7,12.3,7.7,12,0a19.63,19.63,0,0,0-.9-5.3c-1.5-4.2-8.8-6.7-11-1.4a17.11,17.11,0,0,0-1.5,5.9h12a24.5,24.5,0,0,0-.4-3.8c-.8-5.8-10.6-5.7-11.6,0-.2,1.2-.4,2.4-.6,3.5,3.9.5,7.9,1.1,11.8,1.6a39,39,0,0,0-1.3-7.6c-1.5-5.4-10.5-6.1-11.6,0a14.61,14.61,0,0,0,.2,6.9c2,6.9,11,4.8,11.8-1.6a34,34,0,0,0,.3-4.5c.1-6.6-10.4-8.3-11.8-1.6a57.74,57.74,0,0,0-1,7.1H59v-2.3c0-6.7-10.2-8.3-11.8-1.6-.5,2-.9,4.1-1.3,6.2-1.3,7.5,9.3,10.7,11.6,3.2.7-2.2,1.2-4.4,1.7-6.7-3.9-1.1-7.7-2.1-11.6-3.2-.4,1.9-.8,3.8-1.2,5.8-1.6,7.6,9,10.5,11.6,3.2a46.08,46.08,0,0,0,1.5-5.3c-3.9-.5-7.9-1.1-11.8-1.6-.1.6-.1,1.2-.2,1.7-.6,7.1,9.6,7.6,11.8,1.6.9-2.6,1.9-5.3,2.8-7.9-3.9-1.1-7.7-2.1-11.6-3.2a26.48,26.48,0,0,0-.7,4.8c-.6,7,9.8,7.7,11.8,1.6,1.6-5.1,3.4-10.1,5.3-15.1-3.9-1.1-7.7-2.1-11.6-3.2l-1.5,4.2c-2.2,6.4,8,10.7,11,4.6,3.5-7.1,6.9-14.2,10.2-21.4,3.2-6.9-6.7-13-10.4-6.1-.7,1.3-1.3,2.5-2,3.8,3.5,2,6.9,4,10.4,6.1,1-2,2.1-3.9,3.1-5.9,3-5.7-5-12.9-9.4-7.3a22,22,0,0,0-4.1,7.7c-1.7,5.8,5.8,10,10,5.8a42.48,42.48,0,0,0,3.5-3.9c-3.3-1.9-6.7-3.9-10-5.8a5.84,5.84,0,0,1-.8,2.2c3.7,1.5,7.3,3.1,11,4.6.1-.3.3-.7.4-1,2.9-7-8.7-10.1-11.6-3.1Z" transform="translate(-36.23 -97.3)"/><path class="cls-1" d="M88.3,108.3c1-.6,2-1.1,3-1.7a14.34,14.34,0,0,1-3.4,1.4,9.13,9.13,0,0,1,3-2.5,4.1,4.1,0,0,0-2.3,1.3,6.42,6.42,0,0,0,2.7-8.1,29.77,29.77,0,0,1,.8,6.6l1.2-3a5.58,5.58,0,0,1-.4,4.2,5.82,5.82,0,0,1,.7-3.4c.1-.2.4-.5.6-.3.1,0,.2.2.2.3a1.86,1.86,0,0,1-.6,2.1,2.84,2.84,0,0,1,.4-4.2c-.5-.4-.9-.8-1.4-1.2a28.16,28.16,0,0,0,6.4,1.4,14.81,14.81,0,0,1-4.5-1.1,5.16,5.16,0,0,1,4.1,2.2c.6.8.7,2.2-.3,2.4a1.06,1.06,0,0,1-.8-.1,3.92,3.92,0,0,1-2.1-1.7,1.31,1.31,0,0,1-.3-1,1.15,1.15,0,0,1,.6-.9,1.85,1.85,0,0,1,2.6,1.1,1.77,1.77,0,0,1-1.9,2,1.82,1.82,0,0,1-1.3-2.5,1.89,1.89,0,0,1,2.8-.5.85.85,0,0,1,.3.5c0,.6-.9.6-1.4.3a9.22,9.22,0,0,1-3.5-3c2.1-.1,4.1.6,6.1,1a21.6,21.6,0,0,0,10.1-.4c.1,2,.2,4.1.4,6.1a26.9,26.9,0,0,1-8.1-4.1c1.3.8,2.6,1.7,3.9,2.5a4.36,4.36,0,0,1-4.7-1.2,3.68,3.68,0,0,1,3.7,1.1,3.17,3.17,0,0,1-3-.3c-.2-.2-.5-.5-.3-.8s.3-.2.5-.3a3.49,3.49,0,0,1,3.7,1.8c-.8-.1-1-1.3-.4-1.8a1.57,1.57,0,0,1,2.1.3,2.81,2.81,0,0,1,.5,2.2,5,5,0,0,1-.4-3.2,2.87,2.87,0,0,1,.4,2.7,7.78,7.78,0,0,1-.8-4c.1.6.3,1.3.4,1.9a.76.76,0,0,1-.2.9c-.2.1-.4,0-.6,0-1.2-.4-2.4-.9-3.6-1.3,1.2-.2,2.4-.3,3.6-.5.3,0,.8-.1,1,.2a.73.73,0,0,1,.2.6,8.18,8.18,0,0,0,4,5.6,14.09,14.09,0,0,0-1.7-3.2l1.8,2.4a17.48,17.48,0,0,1-6.7-4.6c-.3-.3-.6-.8-.4-1.2a1.07,1.07,0,0,1,1.1-.3c.4,0,1,.2.9.6a.56.56,0,0,1-.6.5,4.16,4.16,0,0,1-2.7,0" transform="translate(-36.23 -97.3)"/><path class="cls-2" d="M88.9,109.4c1-.6,2-1.1,3-1.7a1.21,1.21,0,0,0-1.2-2.1,12,12,0,0,1-3.1,1.3c.4.7.8,1.3,1.2,2a8.5,8.5,0,0,1,2.7-2.3c1.1-.7.4-2.7-.9-2.2a6.94,6.94,0,0,0-2.9,1.6c-1,.9.3,2.6,1.5,1.9a7.86,7.86,0,0,0,3.3-9.4,1.19,1.19,0,0,0-2.3.6,43.84,43.84,0,0,1,.8,6.2,1.23,1.23,0,0,0,2.4.3l1.2-3H92.3c-.1,1.2-.2,2.4-.4,3.5l2.4.3c-.5-.6-.9-1.3-1.4-1.9H95c.1-.9.1-1.9.2-2.8a1.24,1.24,0,0,0,0-1.7c-.5-.4-.9-.8-1.4-1.2-.4.7-.8,1.3-1.2,2a37.35,37.35,0,0,0,6.8,1.5c1.3.2,1.7-2.2.3-2.4a24.6,24.6,0,0,1-4.5-1.1c-.2.8-.4,1.5-.6,2.3,2.4.3.7-2-.2-3.1-.3.7-.6,1.4-.8,2,5.9.2,10.5,2,16.5.6l-1.5-1.2c.1,2,.2,4.1.4,6.1l1.5-1.2a34.53,34.53,0,0,1-7.9-4l-1.2,2.1c1.3.8,2.6,1.7,3.9,2.5.1-.7.2-1.5.3-2.2l-3.5-.9c-.3.7-.6,1.4-.8,2,1,.3,1.9.5,2.9.8a14.62,14.62,0,0,0,.5-2c0,.7.1,1.5.1,2.2l1.6-1.6c.1.6.2,1.2.3,1.7l2.4-.3c-.1-1-.3-1.9-.4-2.9l-2.4.3a15.72,15.72,0,0,0,.4,2.3l2.4-.3a7.32,7.32,0,0,1-.8-3.6l-2.4.3c.4,1.7-1.2.5-2.5,0l-.3,2.4a35.8,35.8,0,0,1,3.7-.6c.2.1.6,2,.8,2.3a11.2,11.2,0,0,0,3.7,4.1,1.24,1.24,0,0,0,1.8-1.4,14.13,14.13,0,0,0-1.9-3.4l-2.1,1.2,1.8,2.4,1.6-1.6c-2.7-1.2-5.9-4.6-8.6-5-1.5-.2-2.2,2.1-.6,2.3,1.8.3,3.1.4,4.4-.9a1.19,1.19,0,0,0,.2-1.5c-.9-1.4-3.5-1.9-4.2,0-1.2,3.1,5.9,6.4,7.7,7.1.9.4,2.5-.6,1.6-1.6l-1.8-2.4c-.9-1.2-3-.1-2.1,1.2a10.24,10.24,0,0,1,1.6,2.9c.6-.5,1.2-.9,1.8-1.4-3.3-2.3-1.9-3.1-3.7-5.5-.2-.3-.2-.5-.6-.7-1.3-1-3.8,0-5.2.1a1.23,1.23,0,0,0-.3,2.4c1.5.5,2.9,1.3,4.5,1.4a1.1,1.1,0,0,0,1-.6c.7-1.2.2-2.4-.1-3.7a1.24,1.24,0,0,0-2.4.3,9.25,9.25,0,0,0,.9,4.3,1.24,1.24,0,0,0,2.4-.3c.2-1.8.2-1.3-.5-3a1.23,1.23,0,0,0-2.4.3,6,6,0,0,0,.5,3.5,1.23,1.23,0,0,0,2.4-.3c-.2-7-8.1-2.4-4,.3,1,.6,2.4-.7,1.6-1.6-1.4-1.8-3.6-3.3-5.8-2a1.1,1.1,0,0,0-.6,1c.1,2.4,3,2.7,4.9,2.3a1.17,1.17,0,0,0,.5-2,6,6,0,0,0-4.6-1.5c-.9.1-1.7,1.3-.8,2a6.07,6.07,0,0,0,5.9,1.5,1.22,1.22,0,0,0,.3-2.2c-1.3-.8-2.6-1.7-3.9-2.5s-2.5,1.2-1.2,2.1a34.76,34.76,0,0,0,8.4,4.2,1.2,1.2,0,0,0,1.5-1.2c-.1-2-.2-4.1-.4-6.1a1.25,1.25,0,0,0-1.5-1.2c-5.6,1.3-10.4-.5-15.8-.7a1.16,1.16,0,0,0-.8,2c1.5,1.8,4.3,4.9,6.7,2.7a1.37,1.37,0,0,0,.2-1.5c-2-3.7-7.7.3-4.6,3.4s7.4-3.4,2.8-4.7-4,5.3,0,6a2.19,2.19,0,0,0,2.8-2.6c-.2-2.6-3.2-4-5.4-4.3a1.19,1.19,0,0,0-.6,2.3,16.48,16.48,0,0,0,4.5,1.1l.3-2.4A30.12,30.12,0,0,1,93.3,98a1.21,1.21,0,0,0-1.2,2c.5.4.9.8,1.4,1.2V99.5a4.2,4.2,0,0,0-.6,5.7,1.26,1.26,0,0,0,2.1,0c.9-1.2,1.3-2.5.3-3.8a1.1,1.1,0,0,0-1.2-.3c-2,.3-2.2,3.3-2.2,4.9,0,1.4,1.9,1.5,2.4.3a8.71,8.71,0,0,0,.4-4.8c-.2-1.3-1.9-1-2.3,0l-1.2,3,2.4.3a54,54,0,0,0-.8-6.9l-2.3.6a5.45,5.45,0,0,1-2.2,6.7c.5.6,1,1.3,1.5,1.9.6-.3,1.2-.7,1.8-1-.3-.7-.6-1.5-.9-2.2a13.9,13.9,0,0,0-3.2,2.7,1.21,1.21,0,0,0,1.2,2,17.25,17.25,0,0,0,3.7-1.6l-1.2-2.1c-1,.6-2,1.1-3,1.7-1.8,1.5-.6,3.5.7,2.8Z" transform="translate(-36.23 -97.3)"/><path class="cls-1" d="M101,104.8c.1,0,.2-.1.3-.2-.1-.1-.2,0-.2.1a.35.35,0,0,0,.1.2c.1,0,.1-.2.1-.2s-.1.2,0,.3" transform="translate(-36.23 -97.3)"/><path class="cls-2" d="M102.6,110.6a6.34,6.34,0,0,0,3.8-3,6,6,0,0,0-3.6-8.8,6.13,6.13,0,0,0-6.9,2.8,6,6,0,0,0-.9,3.2,6.16,6.16,0,0,0,1.3,3.7,6,6,0,0,0,3.2,2.2,6.38,6.38,0,0,0,4.7-.6,6.13,6.13,0,0,0,2.8-7c-.2-.5-.4-1-.6-1.4a5,5,0,0,0-1.5-1.7,5.88,5.88,0,0,0-3.6-1.3,6.11,6.11,0,0,0-3,.8,6.73,6.73,0,0,0-2.8,3.6,2.92,2.92,0,0,0-.2.9,2.77,2.77,0,0,0-.1.9,6,6,0,0,0,1.8,4.2,6.44,6.44,0,0,0,4.2,1.8,5.81,5.81,0,0,0,4.2-1.8,6.44,6.44,0,0,0,1.8-4.2v-.1c-.1.5-.1,1.1-.2,1.6v-.1H95.4v-3c.9-1.2,1.8-2.4,2.8-3.6l-.1.1,4.6-.6h-.1c1.2.9,2.4,1.8,3.6,2.8a.1.1,0,0,0-.1-.1c.3,1,.5,2,.8,3v-.1c-.3,1-.5,2-.8,3v-.1l-2.2,2.2h.1l-4.6.6h.1c-1.2-2.9-2.4-5.9-3.6-8.8a.1.1,0,0,1-.1.1l.9-1.2a.1.1,0,0,0-.1.1c.9-.5,1.8-1,2.6-1.5h-.1a5.92,5.92,0,0,0-3.6,2.8,5.75,5.75,0,0,0-.6,4.6,6,6,0,0,0,2.8,3.6,9.22,9.22,0,0,0,4.9.4Z" transform="translate(-36.23 -97.3)"/><path class="cls-1" d="M98.4,251.1c-2.8,2.6-5.8,5.4-9.6,5.9-.9.1-1.9.1-2.8.2s-2,.5-3,.7a13.39,13.39,0,0,1-6.6-.2,87.83,87.83,0,0,1,25-3,33.54,33.54,0,0,1-15.6,3.4c.2-.1.4-.3.6-.4" transform="translate(-36.23 -97.3)"/><path class="cls-2" d="M94.2,246.8c-2.1,2-3.9,3.7-6.8,4.2s-6.5,1.5-9.5.8v11.6a87.69,87.69,0,0,1,23.4-2.8c-1-3.7-2-7.5-3-11.2A30.27,30.27,0,0,1,85.7,252c1,3.7,2,7.5,3,11.2.2-.1.4-.3.6-.4,6.3-4.4.3-14.8-6.1-10.4-.2.1-.4.3-.6.4-4.7,3.2-3.3,11.2,3,11.2a44.44,44.44,0,0,0,18.6-4.3c5.7-2.6,2.5-11.1-3-11.2a103.59,103.59,0,0,0-26.6,3.2c-5.6,1.4-5.9,10.3,0,11.6a31.06,31.06,0,0,0,27.9-8.1c5.8-5.2-2.7-13.7-8.3-8.4Z" transform="translate(-36.23 -97.3)"/><path class="cls-1" d="M156.3,268.3a1.76,1.76,0,0,1-.9-1.3,5.85,5.85,0,0,1,1.2,2.8,1.25,1.25,0,0,1-1.6-.3c.4.4-.1,1.2-.6,1.2a1.42,1.42,0,0,1-1.4-.8,1.49,1.49,0,0,1-.3-1.4,1.12,1.12,0,0,1,1.5-.3,1.6,1.6,0,0,1,.5,1.6,1.85,1.85,0,0,1-1.9-1.5c-.1-.9.7-1.8,1.5-1.6a1.16,1.16,0,0,1,.4,2c-.3,0-.6-.1-.8-.1" transform="translate(-36.23 -97.3)"/><path class="cls-2" d="M156.9,267.3a.55.55,0,0,1-.3-.5c-.7.3-1.5.6-2.2.9a6.19,6.19,0,0,1,1.1,2.5c.2-.5.4-.9.6-1.4,0,0-.2-.1-.1-.1a1.23,1.23,0,0,0-1.9,1.5.45.45,0,0,1,.2-.6c-.1-.1-.2-.1-.3-.2l-.2-.4-.2.3c-.1-.1-.1-.1,0,.1v.3l1.2-.9a1.07,1.07,0,0,1-.6-.2c-.2-.2,0-.2-.1-.4l.1-.1-.2-.1c.1.3,0,0,.2-.1s.6-.1.9-.1c-.3,0-.6-.1-.8-.1a1.35,1.35,0,0,0-1.5.8,1.2,1.2,0,0,0,.8,1.5c.8.1,1.5.3,2.2-.3a2.27,2.27,0,0,0,.6-1.6,2.35,2.35,0,0,0-2.4-2.3,2.7,2.7,0,0,0-2.3,3,3.13,3.13,0,0,0,3.1,2.5,1.29,1.29,0,0,0,1.2-.9c.2-1.4-.3-3-1.8-3.3a2.12,2.12,0,0,0-2.6,2.3,3.11,3.11,0,0,0,2.9,2.8,2,2,0,0,0,1.8-3c-.6.5-1.3,1-1.9,1.5a2.79,2.79,0,0,0,3,.5c.5-.2.6-.9.6-1.4a7.27,7.27,0,0,0-1.4-3.1,1.21,1.21,0,0,0-2.2.9,3.23,3.23,0,0,0,1.4,2c1.2.6,2.4-1.5,1.1-2.3Z" transform="translate(-36.23 -97.3)"/><path class="cls-4" d="M70.2,169c7.2,3.7,17.4,3.8,20.4-5.3.2-.7-.9-1-1.2-.3-2.7,8.2-12.3,7.9-18.7,4.5-.6-.3-1.2.7-.5,1.1Z" transform="translate(-36.23 -97.3)"/><path class="cls-4" d="M128,169.2c-6.4,3.3-15.9,3.7-18.7-4.5-.2-.7-1.4-.4-1.2.3,3,9,13.3,9,20.4,5.3a.61.61,0,1,0-.5-1.1Z" transform="translate(-36.23 -97.3)"/><path class="cls-5" d="M55.2,158.9l.3.3v1.2c.1-.2.2-.3.2-.5l-2.2-.6a2.15,2.15,0,0,1-.4,1.5l2.2.3c-.1-.3-.1-.6-.2-.9l-2.4-.3a3,3,0,0,1-.2,1.3,14.62,14.62,0,0,1,2-.5h0a1.24,1.24,0,0,0-2.4.3,3,3,0,0,1-.4,1.8l2.2.3c0-.2-.1-.4-.1-.6a1.23,1.23,0,0,0-2.4-.3,1.85,1.85,0,0,0-.2.7l2.2.3c0-.2-.1-.5-.1-.7.1-1.5-1.9-1.5-2.4-.3h0c.7.3,1.4.6,2,.8v-.6l-2.4-.3c-.1.4-.1.8-.2,1.3.7.3,1.5.6,2.2.9.5-2.9,1-5.8,1.5-8.6l-2.4-.3c.1,1.4.1,2.8.1,4.2a1.2,1.2,0,0,0,2.4,0,13.57,13.57,0,0,1,1.2-4.8l-2.2-.6a8.89,8.89,0,0,1-.4,3.6l2.4.3a7.27,7.27,0,0,1,.4-2.5H53.2c.1.5.2,1.1.3,1.6a1.2,1.2,0,0,0,2.3,0c.1-.4.2-.8.3-1.1a14.62,14.62,0,0,1-2,.5c.1.1.2.3.3.4,1,1.2,2.6-.5,1.7-1.7-.1-.1-.2-.3-.3-.4-.6-.8-1.7-.2-2,.5a2.28,2.28,0,0,0-.3,1.1h2.3c-.1-.5-.2-1.1-.3-1.6-.2-1.2-2-1-2.3,0a8.4,8.4,0,0,0-.5,3.1,1.23,1.23,0,0,0,2.4.3,11.83,11.83,0,0,0,.5-4.2c-.1-1.1-1.7-1.8-2.2-.6a15.62,15.62,0,0,0-1.5,6h2.4c0-1.4,0-2.8-.1-4.2s-2.1-1.7-2.4-.3c-.5,2.9-1,5.8-1.5,8.6-.2,1.2,1.5,2.2,2.2.9A4.19,4.19,0,0,0,53,162a1.23,1.23,0,0,0-2.4-.3,2.46,2.46,0,0,0-.1,1.2c.1.9,1.3,1.7,2,.8a3,3,0,0,0,.6-1.1l-2.4-.3a3.4,3.4,0,0,0,.2,1.4,1.25,1.25,0,0,0,2.2.3,3,3,0,0,0,.5-1.3l-2.4-.3a2.54,2.54,0,0,0,.2,1.2,1.22,1.22,0,0,0,2.2.3,6.3,6.3,0,0,0,.7-3l-2.4.3a2.38,2.38,0,0,0,.6,1.1,1.2,1.2,0,0,0,2-.5,4.27,4.27,0,0,0,.2-1.9c0-1.3-2.1-1.7-2.4-.3a4.16,4.16,0,0,0,.2,2.2,1.22,1.22,0,0,0,2.2.3,5.19,5.19,0,0,0,.7-2.7c0-1.1-1.7-1.7-2.2-.6s-.6,2.4.9,2.6c2,0,2.6-2.3,1.1-2.5Z" transform="translate(-36.23 -97.3)"/><path class="cls-5" d="M79,199.7a3,3,0,0,0-.4-1,1.22,1.22,0,0,0-1.2-.6,1.3,1.3,0,0,0-1,.9.6.6,0,0,1-.1.4l2.2-.3c-.1-.1-.1-.3-.2-.4a1.28,1.28,0,0,0-1.5-.5,1.22,1.22,0,0,0-.7,1.4.6.6,0,0,0,.1.4c.7-.3,1.5-.6,2.2-.9,0,0,.1-.4,0-.2H76a.9.9,0,0,1-.1.5,10.93,10.93,0,0,1,1.5-.8h-.1a2.19,2.19,0,0,1,.5.3c0,.1,0,.1.1.1v.5l-2.2.3c0-.1,0-.1-.1-.2l2.2-.6a.66.66,0,0,1-.1.6,1.2,1.2,0,0,0-1.7-1.7,2,2,0,0,0-.2,2.3,1.19,1.19,0,0,0,2.2-.6,1.69,1.69,0,0,0-.3-1,1.22,1.22,0,0,0-2.2.3,1.79,1.79,0,0,0,1.2,2.1,1.35,1.35,0,0,0,1.5-.8,4.25,4.25,0,0,0,.2-1.1,1.22,1.22,0,0,0-1.2-1.2,1.29,1.29,0,0,0-1.2,1.2,2.23,2.23,0,0,0,.3,1.4,1.28,1.28,0,0,0,1.5.5,1.22,1.22,0,0,0,.7-1.4.6.6,0,0,0-.1-.4c-.7.3-1.5.6-2.2.9.1.1.1.3.2.4a1.22,1.22,0,0,0,2.2-.3.6.6,0,0,1,.1-.4l-2.2.3.2.4a1.2,1.2,0,0,0,1.5.8,1.55,1.55,0,0,0,.8-1.6Z" transform="translate(-36.23 -97.3)"/><path class="cls-5" d="M153.3,199.3h0a2.65,2.65,0,0,0,.6.5v-.1c.1.2.1.4.2.6-.1.3-.1.4,0,.2a.35.35,0,0,1,.1-.2c.1-.2,0-.4,0-.6a1.45,1.45,0,0,0-.7-1,1.05,1.05,0,0,0-1.2,0,1.14,1.14,0,0,0-.6,1.5c.7-.3,1.5-.6,2.2-.9h0l-2.2.3c.1.2.2.3.3.5a1.18,1.18,0,0,0,2.2-.6V199c-.6.3-1.2.7-1.8,1a.52.52,0,0,1-.2-.4,1.2,1.2,0,0,0,2.4,0,2.06,2.06,0,0,0-1-1.7,1.18,1.18,0,0,0-1.8,1v.5l2.2-.6c-.1-.2-.2-.3-.3-.5a1.24,1.24,0,0,0-2.2.3,3.13,3.13,0,0,0,.2,1.9,1.24,1.24,0,0,0,1.5.5,1.17,1.17,0,0,0,.7-1.4v.4c-.2.2-.4.5-.6.7h-1c-.2-.2-.4-.5-.6-.7.1-.6.2-.7,0-.4,0,.1-.1.2-.1.3a.85.85,0,0,0,0,.7,1.18,1.18,0,0,0,.9.9,1.35,1.35,0,0,0,1.5-.8,1,1,0,0,0-.7-1.4Z" transform="translate(-36.23 -97.3)"/><path class="cls-5" d="M127.6,260.5a4.35,4.35,0,0,0,.7.4c1,.7,2.3-.7,1.6-1.6v-.1c0,.3.1.6.1.9V260a2.19,2.19,0,0,1-.3.5c-.7.6-.9,0-.5.3.1.1.3.1.5.2a1.23,1.23,0,0,0,1.6-.4,1.25,1.25,0,0,0-.4-1.6c-.6-.3-1.4-.8-2.1-.6a1.34,1.34,0,0,0-.9,2l1.6-1.6a4.35,4.35,0,0,0-.7-.4,1.21,1.21,0,0,0-1.2,2.1Z" transform="translate(-36.23 -97.3)"/><path d="M84.6,107.7a6.3,6.3,0,0,0,4.9-2.7c1.4-2,1-4.1.8-6.5-.1-.8-1.3-.8-1.2,0,.1,1.6.6,3.5-.1,5-.8,1.9-2.4,2.7-4.4,3-.7.1-.7,1.3,0,1.2Z" transform="translate(-36.23 -97.3)"/><path d="M89.7,98.9c6.9.1,13.8,1.3,20.7.2.8-.1.4-1.3-.3-1.2-6.8,1.1-13.6-.1-20.4-.2-.7,0-.7,1.2,0,1.2Z" transform="translate(-36.23 -97.3)"/><path d="M110.3,98.3c-.3,2.1-.5,4.7.5,6.7.8,1.6,2.4,2.1,4,2.6.7.2,1.1-1,.3-1.2-1.6-.4-2.9-.9-3.5-2.7a11,11,0,0,1-.1-5.1c.1-.8-1.1-1.1-1.2-.3Z" transform="translate(-36.23 -97.3)"/><path d="M40,278.3c3.8.2,7.5.4,11.2.9.8.1.8-1.1,0-1.2-3.7-.4-7.5-.7-11.2-.9-.8-.1-.8,1.1,0,1.2Z" transform="translate(-36.23 -97.3)"/><path d="M40.5,277.8c1.3-21.6,3-43.1,4.8-64.6.1-.8-1.1-.8-1.2,0-1.8,21.5-3.5,43.1-4.8,64.6-.1.7,1.1.7,1.2,0Z" transform="translate(-36.23 -97.3)"/><path d="M55,138.3c.2-8.6.4-19,7.2-25.3,6.2-5.8,15.4-5.7,23.3-5.5a.6.6,0,1,0,0-1.2c-8.3-.2-17.7-.2-24.2,5.8-7,6.5-7.4,17.3-7.5,26.1-.1.8,1.1.8,1.2.1Z" transform="translate(-36.23 -97.3)"/><path d="M52.4,278.2c2.4-21.8,4.5-43.7,7.3-65.5.1-.8-1.1-.8-1.2,0-2.8,21.8-4.9,43.6-7.3,65.5-.1.8,1.1.8,1.2,0Z" transform="translate(-36.23 -97.3)"/><path d="M59.6,213.6c4-14.2,7.1-28.7,10.5-43.1a.62.62,0,1,0-1.2-.3c-3.3,14.4-6.4,28.9-10.5,43.1-.2.7,1,1,1.2.3Z" transform="translate(-36.23 -97.3)"/><path d="M62.7,157.2c2.1,5.2,4.1,11.3,9.9,13.3.7.2,1-.9.3-1.2-5.4-1.8-7.2-7.7-9.1-12.5-.2-.6-1.4-.3-1.1.4Z" transform="translate(-36.23 -97.3)"/><path d="M70.2,170.2a.44.44,0,0,1,.1-.5c.4-.6-.6-1.2-1-.6a1.55,1.55,0,0,0-.2,1.5c.1.7,1.3.4,1.1-.4Z" transform="translate(-36.23 -97.3)"/><path d="M45.1,214c1.7-25.6,6.1-51,9.7-76.4a.62.62,0,0,0-1.2-.3c-3.6,25.5-8,51-9.7,76.7a.6.6,0,1,0,1.2,0Z" transform="translate(-36.23 -97.3)"/><path d="M68.7,263.5c3.1-16.2,5.6-32.4,7.4-48.8.1-.8-1.1-.8-1.2,0-1.8,16.3-4.2,32.4-7.3,48.5-.2.8,1,1.1,1.1.3Z" transform="translate(-36.23 -97.3)"/><path d="M76.2,215.9c.8-7.6-.3-15-1.4-22.4-1.1-7.9-2.3-15.9-3.4-23.8-.1-.8-1.3-.4-1.2.3,1,7.3,2.1,14.6,3.1,21.9,1.1,8,2.5,15.9,1.6,24,0,.8,1.2.8,1.3,0Z" transform="translate(-36.23 -97.3)"/><path d="M160.1,277.1c-3.8.2-7.5.4-11.2.9-.8.1-.8,1.3,0,1.2,3.7-.4,7.5-.7,11.2-.9.8-.1.8-1.3,0-1.2Z" transform="translate(-36.23 -97.3)"/><path d="M160.9,277.8c-1.3-21.6-3-43.1-4.8-64.6-.1-.8-1.3-.8-1.2,0,1.8,21.5,3.5,43.1,4.8,64.6,0,.7,1.2.7,1.2,0Z" transform="translate(-36.23 -97.3)"/><path d="M146.4,138.3c-.2-8.9-.5-19.6-7.5-26.1-6.5-6-15.9-6-24.2-5.8a.6.6,0,1,0,0,1.2c8-.2,17.1-.4,23.3,5.5,6.7,6.3,7,16.7,7.2,25.3,0,.6,1.2.6,1.2-.1Z" transform="translate(-36.23 -97.3)"/><path d="M148.9,278.2c-2.4-21.8-4.5-43.7-7.3-65.5-.1-.8-1.3-.8-1.2,0,2.8,21.8,4.9,43.6,7.3,65.5.1.8,1.3.8,1.2,0Z" transform="translate(-36.23 -97.3)"/><path d="M141.7,213.3c-4-14.2-7.1-28.7-10.5-43.1-.2-.8-1.3-.4-1.2.3,3.3,14.4,6.4,28.9,10.5,43.1.3.7,1.4.4,1.2-.3Z" transform="translate(-36.23 -97.3)"/><path d="M136.3,156.9c-1.9,4.8-3.7,10.6-9.1,12.5-.7.2-.4,1.4.3,1.2,5.8-2,7.8-8.1,9.9-13.3a.59.59,0,1,0-1.1-.4Z" transform="translate(-36.23 -97.3)"/><path d="M131.1,170.5a2,2,0,0,0-.2-1.5c-.4-.6-1.5,0-1,.6.1.2.2.3.1.5-.2.9.9,1.2,1.1.4Z" transform="translate(-36.23 -97.3)"/><path d="M156.2,214c-1.7-25.7-6.1-51.2-9.7-76.7-.1-.8-1.3-.4-1.2.3,3.6,25.4,7.9,50.8,9.7,76.4.1.8,1.3.8,1.2,0Z" transform="translate(-36.23 -97.3)"/><path d="M132.6,263.2c-3.1-16-5.6-32.2-7.3-48.5-.1-.8-1.3-.8-1.2,0,1.8,16.4,4.2,32.6,7.4,48.8.1.8,1.2.5,1.1-.3Z" transform="translate(-36.23 -97.3)"/><path d="M125.2,215.9c-.9-8.1.5-16,1.6-24,1-7.3,2.1-14.6,3.1-21.9a.62.62,0,0,0-1.2-.3c-1.1,7.9-2.3,15.9-3.4,23.8-1.1,7.5-2.2,14.9-1.4,22.4.1.8,1.3.8,1.3,0Z" transform="translate(-36.23 -97.3)"/><path d="M68.3,264.3c20.9,1.5,42.3,2.2,63.2,0,.8-.1.8-1.3,0-1.2-20.9,2.1-42.3,1.5-63.2,0-.7-.1-.7,1.1,0,1.2Z" transform="translate(-36.23 -97.3)"/><g id="_Group_" data-name="&lt;Group&gt;"><path class="cls-6" d="M163.5,277.6c0,.6-.2,1.3-.7,1.2h0a6.08,6.08,0,0,0-1.9-.1c-5,.3-10.1.7-15.1,1l-.3-.3c-1.5-16.3-3-32.5-5.3-48.7-1.8-12.5-4-24.9-6.5-37.2-.3-1.4-.6-2.7-.8-4.1-.8-4-1.6-7.9-2.4-11.9-2.6,4.5-2.7,10-2.8,15.3,0,2.1,0,4.2-.1,6.2v7.2a282.5,282.5,0,0,0,6.8,60.1,221.46,221.46,0,0,1-28.2.9c-2.3-.1-4.6-.2-6.8-.1s-4.6.4-6.8.5a85.13,85.13,0,0,1-27.1-2.3l-.1-.3a270.9,270.9,0,0,0,6.9-59.5v-7.1c0-2,0-4.1-.1-6.1-.1-5.2-.2-10.6-2.8-15-.8,4-1.6,7.9-2.4,11.9-.3,1.3-.5,2.7-.8,4.1-2.5,12.4-4.8,24.8-6.5,37.2-2.3,16.2-3.8,32.4-5.3,48.7l-.3.3c-5-.3-10.1-.7-15.1-1a6.08,6.08,0,0,0-1.9.1h0c-.5.1-.8-.7-.7-1.2,1.5-21.9,3-43.9,4.5-65.8h-.2a43.29,43.29,0,0,1,.1-7.2c1.9-25,5.1-49.9,9.4-74.6a54.79,54.79,0,0,1,2.1-8.9h.1c1.8-6.3,7-11.4,13.1-14.1,6.3-2.8,13.3-3.3,20.2-3h0c.8-.1,1.6-.3,2.5-.4a.91.91,0,0,0,.7-.3,1.6,1.6,0,0,0,.4-1.5c-.1-1.1-.1-2.2-.2-3.3v-.2c7.4,0,14.8-.3,22.2-.8v.4a4.89,4.89,0,0,1,.1,2.4,3.93,3.93,0,0,0,.3,2.4,1.68,1.68,0,0,0,1.8.9l.1.3c7-.4,14.3.1,20.7,3,6,2.7,11.3,7.8,13.1,14.1h.1a46,46,0,0,1,2.1,8.9c4.3,24.7,7.5,49.6,9.4,74.6a34.66,34.66,0,0,1,.1,7.2H159C160.5,233.8,162,255.7,163.5,277.6Z" transform="translate(-36.23 -97.3)"/><path class="cls-7" d="M36.8,279c.1,0,.1,0,.2-.1a5.92,5.92,0,0,1,1.9-.1c5,.3,10.1.7,15.1,1" transform="translate(-36.23 -97.3)"/><path class="cls-7" d="M37,278.9c-.5.1-.8-.7-.7-1.2,1.5-21.9,3-43.9,4.5-65.8a2.77,2.77,0,0,1,.1-.9" transform="translate(-36.23 -97.3)"/><path class="cls-7" d="M40.6,211.8a43.29,43.29,0,0,1,.1-7.2c1.9-25,5.1-49.9,9.4-74.6a54.79,54.79,0,0,1,2.1-8.9" transform="translate(-36.23 -97.3)"/><path class="cls-7" d="M85.7,104.1h.5" transform="translate(-36.23 -97.3)"/><path class="cls-7" d="M52.1,122.4c.1-.4.2-.8.3-1.3,1.8-6.3,7-11.4,13.1-14.1,6.3-2.8,13.3-3.3,20.2-3" transform="translate(-36.23 -97.3)"/><path class="cls-7" d="M54.3,279.5c1.5-16.3,3-32.5,5.3-48.7,1.8-12.5,4-24.9,6.5-37.2.3-1.4.5-2.7.8-4.1.8-4,1.6-7.9,2.4-11.9.1-.4.2-.8.3-1.3" transform="translate(-36.23 -97.3)"/><path class="cls-7" d="M69,177.1l.3.6c2.6,4.4,2.7,9.9,2.8,15,0,2,0,4.1.1,6.1v7.1a270.9,270.9,0,0,1-6.9,59.5" transform="translate(-36.23 -97.3)"/><path class="cls-7" d="M65.4,265.6a85.13,85.13,0,0,0,27.1,2.3c2.3-.2,4.5-.5,6.8-.5s4.6,0,6.8.1a220.88,220.88,0,0,0,28.2-.9h.1" transform="translate(-36.23 -97.3)"/><path class="cls-7" d="M163,279c-.1,0-.1,0-.2-.1a6.08,6.08,0,0,0-1.9-.1c-5,.3-10.1.7-15.1,1" transform="translate(-36.23 -97.3)"/><path class="cls-7" d="M162.8,278.9c.5.1.8-.7.7-1.2-1.5-21.9-3-43.9-4.5-65.8a2.77,2.77,0,0,0-.1-.9" transform="translate(-36.23 -97.3)"/><path class="cls-7" d="M159.2,211.8a43.29,43.29,0,0,0-.1-7.2q-3-37.5-9.4-74.6a54.79,54.79,0,0,0-2.1-8.9" transform="translate(-36.23 -97.3)"/><path class="cls-7" d="M147.7,122.4c-.1-.4-.2-.8-.3-1.3-1.8-6.3-7-11.4-13.1-14.1-6.4-2.9-13.7-3.4-20.7-3" transform="translate(-36.23 -97.3)"/><path class="cls-7" d="M145.5,279.5c-1.5-16.3-3-32.5-5.3-48.7-1.8-12.5-4-24.9-6.5-37.2-.3-1.4-.6-2.7-.8-4.1-.8-4-1.6-7.9-2.4-11.9-.1-.4-.2-.9-.3-1.3" transform="translate(-36.23 -97.3)"/><path class="cls-7" d="M130.8,177.1l-.3.6c-2.6,4.5-2.7,10-2.8,15.3,0,2.1,0,4.2-.1,6.2v7.2a282.5,282.5,0,0,0,6.8,60.1c0,.1.1.3.1.4" transform="translate(-36.23 -97.3)"/><path class="cls-7" d="M85.7,104.1h0c.8-.1,1.6-.3,2.5-.4a.91.91,0,0,0,.7-.3,1.6,1.6,0,0,0,.4-1.5c-.1-1.1-.1-2.2-.2-3.3" transform="translate(-36.23 -97.3)"/><path class="cls-7" d="M113.8,103.7a.37.37,0,0,1-.3.1,1.75,1.75,0,0,1-1.8-.9,3.93,3.93,0,0,1-.3-2.4,4.89,4.89,0,0,0-.1-2.4" transform="translate(-36.23 -97.3)"/><path class="cls-7" d="M89.2,98.5c7.4,0,14.8-.3,22.2-.8h.3" transform="translate(-36.23 -97.3)"/></g><path d="M89.6,97.9h.7c-.1.3-.2.7-.3,1,1.3-.5,3.6.1,5,.2,1.9.1,3.7.1,5.6.1,3.5,0,6.9-.1,10.4-.4.8-.1.8-1.3,0-1.2-4,.3-8,.4-12,.4-2.6,0-6.9-1.1-9.4-.1a.57.57,0,0,0-.2.9l.1.1a.61.61,0,0,0,.8,0l.1-.1a.6.6,0,1,0-.8-.9Z" transform="translate(-36.23 -97.3)"/><path d="M109.9,98.2c.2,2.1-1.2,4.4.9,5.9,2.4,1.7,8.1.8,10.8,1,6.2.5,13,.9,17.9,5.2,4.1,3.6,6.4,8.8,8.3,13.8.3.7,1.4.4,1.2-.3-2.7-7.2-6.4-14.7-14-17.7-3.6-1.4-7.7-1.8-11.5-2.1-2.7-.3-5.7-.1-8.4-.6-2.2-.4-3.4-.4-4-3.3.1.7-.2-3.5,0-2-.1-.7-1.3-.7-1.2.1Z" transform="translate(-36.23 -97.3)"/><path d="M147.4,123.6c1.6,8.4,2.1,17,4.2,25.2,2.4,9.4,3.3,18.7,3.8,28.3a.6.6,0,1,0,1.2,0c-.5-9.1-1.2-18.1-3.5-26.9s-2.8-18-4.6-26.9c-.1-.8-1.3-.5-1.1.3Z" transform="translate(-36.23 -97.3)"/><path d="M155,175.4c1.9,23.9,4.4,47.7,4.9,71.7a.6.6,0,1,0,1.2,0c-.5-24-3-47.8-4.9-71.7a.6.6,0,0,0-1.2,0Z" transform="translate(-36.23 -97.3)"/><path d="M159.6,244.7c1.2,11.6,2.1,23.2,2.7,34.9a.6.6,0,0,0,1.2,0c-.5-11.7-1.4-23.3-2.7-34.9-.1-.8-1.3-.8-1.2,0Z" transform="translate(-36.23 -97.3)"/><path d="M162.6,278.3c-2.6.3-5.3,0-7.9.3a79.08,79.08,0,0,1-8.5.6.6.6,0,0,0,0,1.2,62.83,62.83,0,0,0,7.5-.4c3-.4,5.9-.1,8.9-.5.7-.1.7-1.3,0-1.2Z" transform="translate(-36.23 -97.3)"/><path d="M146.3,279.8a428.75,428.75,0,0,0-5.3-48.1l-3.9-24c-1.3-7.5-2.1-15.3-4.2-22.7-.2-.7-1.4-.4-1.2.3,2,6.8,2.8,13.9,3.9,20.9,1.3,8,2.7,15.9,3.9,23.9,2.6,16.5,4.8,33.1,5.5,49.8a.66.66,0,0,0,1.3-.1Z" transform="translate(-36.23 -97.3)"/><path d="M133.1,185.2c-.6-2.7-1.2-5.3-1.8-8-.2-.8-1.3-.4-1.2.3.6,2.7,1.2,5.3,1.8,8a.62.62,0,1,0,1.2-.3Z" transform="translate(-36.23 -97.3)"/><path d="M135.1,265.8a410.33,410.33,0,0,1-4.9-54.4c0-.8-.9-.8-.9,0a414.85,414.85,0,0,0,4.9,54.7c.2.7,1.1.4.9-.3Z" transform="translate(-36.23 -97.3)"/><path d="M130.1,212.1c0-10.9-1-24.1,1-33.8.1-.7-.2-1.3-.3-.6-2.1,10.1-1.1,23.2-1.1,34.4,0,.8.4.8.4,0Z" transform="translate(-36.23 -97.3)"/><path d="M134,265.1c-10.8,3.4-22.4,1.3-33.5,1.6-5.5.1-10.9.2-16.4,0-2.9-.1-5.8-.3-8.7-.5-2.1-.2-7.6.3-9.4-.9-.6-.4-1.2.6-.6,1,1,.7,3,.4,4.2.6,3.2.3,6.4.6,9.6.8,6.8.4,13.5.4,20.3.2,11.5-.3,23.6,1.8,34.8-1.7.7-.1.4-1.3-.3-1.1Z" transform="translate(-36.23 -97.3)"/><line class="cls-8" x1="64.97" y1="1.4" x2="64.27" y2="170.4"/><path d="M104.8,226.2a1.2,1.2,0,0,0,0-2.4,1.2,1.2,0,1,0,0,2.4Z" transform="translate(-36.23 -97.3)"/><path d="M106,182.4a1.2,1.2,0,0,0,0-2.4,1.2,1.2,0,0,0,0,2.4Z" transform="translate(-36.23 -97.3)"/><path d="M106.5,141.4a1.2,1.2,0,0,0,0-2.4,1.2,1.2,0,0,0,0,2.4Z" transform="translate(-36.23 -97.3)"/><path d="M88.7,98a5.7,5.7,0,0,0-.1,1.3,3.94,3.94,0,0,1-3,3.9c-2.4.7-5.9.3-8.4.5-4.1.4-8.5.7-12.4,2.2-7.5,3-11.3,10.5-14,17.7-.3.7.9,1,1.2.3,1.8-4.8,4-9.7,7.8-13.3,5-4.7,11.9-5.2,18.4-5.8,2.8-.2,8.3.7,10.7-.9,2.2-1.5.8-3.8,1-5.9.1-.8-1.1-.7-1.2,0Z" transform="translate(-36.23 -97.3)"/><path d="M51.3,123.1c-1.8,9-2.3,18.1-4.6,26.9s-2.9,17.8-3.5,26.9a.6.6,0,1,0,1.2,0,150.44,150.44,0,0,1,3.8-28.3c2.1-8.3,2.5-16.9,4.2-25.2.2-.7-1-1-1.1-.3Z" transform="translate(-36.23 -97.3)"/><path d="M43.6,175.3c-1.9,23.9-4.4,47.7-4.9,71.7a.6.6,0,1,0,1.2,0c.5-24,3-47.8,4.9-71.7a.6.6,0,1,0-1.2,0Z" transform="translate(-36.23 -97.3)"/><path d="M39,244.5c-1.2,11.6-2.1,23.2-2.7,34.9a.6.6,0,0,0,1.2,0c.5-11.7,1.4-23.3,2.7-34.9a.6.6,0,1,0-1.2,0Z" transform="translate(-36.23 -97.3)"/><path d="M37.2,279.4c3,.4,5.9.1,8.9.5a47.15,47.15,0,0,0,7.5.4.6.6,0,0,0,0-1.2,60.73,60.73,0,0,1-8.5-.6c-2.6-.3-5.3,0-7.9-.3-.7-.1-.7,1.1,0,1.2Z" transform="translate(-36.23 -97.3)"/><path d="M54.7,279.6a462.36,462.36,0,0,1,5.5-49.8c1.2-7.7,2.5-15.3,3.8-23,1.2-7.2,2-14.7,4.1-21.8a.62.62,0,0,0-1.2-.3c-2.1,7.3-3,15.1-4.2,22.7-1.3,8-2.7,16-3.9,24a459.28,459.28,0,0,0-5.3,48.1.6.6,0,1,0,1.2.1Z" transform="translate(-36.23 -97.3)"/><path d="M67.8,185.4c.6-2.7,1.2-5.3,1.8-8a.62.62,0,1,0-1.2-.3c-.6,2.7-1.2,5.3-1.8,8-.1.7,1,1.1,1.2.3Z" transform="translate(-36.23 -97.3)"/><path d="M65.4,265.9A451.68,451.68,0,0,0,70,211.2c0-.8-.8-.8-.8,0a427.65,427.65,0,0,1-4.6,54.4c0,.8.8,1.1.8.3Z" transform="translate(-36.23 -97.3)"/><path d="M70.2,212c.1-11.3,1.7-24.3-1.7-34.4-.2-.7-.8-.1-.5.6,3.2,9.8,1.6,22.9,1.6,33.8-.1.8.6.8.6,0Z" transform="translate(-36.23 -97.3)"/><path d="M65.5,266.1c11.2,3.5,23.3,1.4,34.8,1.7,6.4.2,12.9.2,19.3-.2,3.2-.2,6.4-.4,9.6-.7,1.4-.1,4,.1,5.2-.7.6-.4,0-1.5-.6-1-1.8,1.2-6.3.7-8.4.9-2.9.2-5.8.4-8.7.5-5.8.2-11.6.1-17.4,0-11.1-.3-22.7,1.8-33.5-1.6-.7-.3-1,.9-.3,1.1Z" transform="translate(-36.23 -97.3)"/><path d="M63.5,169c2.8,5.7,5.9,8.2,12.2,9,5.6.8,11.5-.7,14-6.3.3-.7-.7-1.3-1-.6-2.6,5.8-8.8,6.5-14.3,5.4-4.9-1-7.6-3.8-9.8-8.2-.4-.6-1.4,0-1.1.7Z" transform="translate(-36.23 -97.3)"/><path d="M135.3,168.3c-2.2,4.5-4.8,7.2-9.8,8.2-5.6,1.1-11.8.4-14.3-5.4-.3-.7-1.3-.1-1,.6,2.5,5.6,8.3,7,14,6.3,6.3-.8,9.5-3.3,12.2-9,.3-.7-.7-1.3-1.1-.7Z" transform="translate(-36.23 -97.3)"/><path class="cls-6" d="M76.4,191.1c-.1-.1-.1-.3-.2-.4l-1.5,1.5a4.18,4.18,0,0,0-1,.4c-.5-.2-.9-.4-1.4-.6-.6.2-1.1.4-1.7.6.6.3,1.2.7,1.8,1a2.85,2.85,0,0,1,0-1.3l-2.2.6a.1.1,0,0,0,.1.1,1.33,1.33,0,0,0,1,.6h.2a1.18,1.18,0,0,0,1.2-.9,14.65,14.65,0,0,0,.2-4.2,1.2,1.2,0,0,0-2.4,0,8.85,8.85,0,0,0,0,2.3,1.2,1.2,0,0,0,2.4,0,13.53,13.53,0,0,0-.3-4.9c-.3-1.4-2.3-1-2.4.3a13.1,13.1,0,0,0,0,2.8c.1,1.3,2.1,1.7,2.4.3a17.22,17.22,0,0,0,.2-6c-.1-1.2-2.1-1.8-2.4-.3a10.88,10.88,0,0,0,0,3.6l2.3-.6c-.1-.6-.2-1.1-.3-1.7A1.23,1.23,0,0,0,70,184a2.44,2.44,0,0,0,.2,2.2c.6,1.3,2.5.3,2.2-.9a56.58,56.58,0,0,0-1.5-5.9,1.19,1.19,0,0,0-2.3.6l.3,1.8c.7-.3,1.5-.6,2.2-.9a18.26,18.26,0,0,1-1.4-3.5c-.7.4-1.3.8-2,1.2a8,8,0,0,1,1.5,2.1c.8,1.3,2.9.1,2.1-1.2-.6-.9-1.2-1.7-1.9-2.6a1.21,1.21,0,0,0-2,1.2,19.66,19.66,0,0,0,1.6,4c.7,1.3,2.4.3,2.2-.9l-.3-1.8-2.3.6c.6,2,1.1,3.9,1.5,5.9.7-.3,1.5-.6,2.2-.9v-.3l-2.4-.3a4.49,4.49,0,0,0,.4,2.3,1.19,1.19,0,0,0,2.3-.6v-2.3l-2.4-.3a18.83,18.83,0,0,1-.1,5.3l2.4.3a13.1,13.1,0,0,1,0-2.8l-2.4.3a15.53,15.53,0,0,1,.2,4.3h2.4a8.85,8.85,0,0,1,0-2.3H70.3a13.55,13.55,0,0,1-.1,3.5l1.2-.9c.3.2.5.3.8.5a1.19,1.19,0,0,0-2.2.6,2.85,2.85,0,0,0,0,1.3,1.18,1.18,0,0,0,1.8,1c2.1-1,2.2-4.4-.6-3.7-.4.1-.8.5-.8.8-.6,4.3,6.1,2.1,4-1a1.28,1.28,0,0,0-1.4-.6c-2.3.5-1.2,3.7.8,3.9,2.3.2,4.1-3.3,1.5-4.2a1.2,1.2,0,0,0-1.5,1.5,4.35,4.35,0,0,0,.8,1.5c1,1.3,2.7-.5,1.8-1.7Z" transform="translate(-36.23 -97.3)"/><path class="cls-6" d="M73.4,196.7V196l-2.4.3a3.05,3.05,0,0,1-.1,1.9l2.4.3a10.87,10.87,0,0,1,.1-1.8c.5-1.4-1.8-2-2.2-.5-.2.6-.3,1.2-.5,1.8l2.4.3c.1-.9.1-1.7.2-2.6.1-1.3-2.1-1.6-2.4-.3a8.58,8.58,0,0,0-.2,2.3,1.2,1.2,0,0,0,2.4,0,5.27,5.27,0,0,1,.3-1.2l-2.4-.3v.9a1.2,1.2,0,0,0,2.4,0v-.9a1.23,1.23,0,0,0-2.4-.3,10.62,10.62,0,0,0-.4,1.9H73a8.6,8.6,0,0,1,.1-1.6l-2.4-.3c-.1.9-.1,1.7-.2,2.6-.1,1.4,2,1.6,2.4.3a20.94,20.94,0,0,0,.5-2.1,17.42,17.42,0,0,1-2.2-.5,9.08,9.08,0,0,0-.3,2.3,1.23,1.23,0,0,0,2.4.3,5,5,0,0,0,.1-3.2c-.3-1.4-2.3-1-2.4.3v.7a1.29,1.29,0,0,0,1.2,1.2c.7.1,1.1-.5,1.2-1.1Z" transform="translate(-36.23 -97.3)"/><path class="cls-6" d="M68.4,259a14.48,14.48,0,0,0-1.7,1.8,14.62,14.62,0,0,0,2,.5V259l-2.4-.3a8.17,8.17,0,0,1-.1,2.7l2.2-.3c-.1-.1-.2-.3-.3-.4-.1-1.2-2-1.7-2.4-.3a3.55,3.55,0,0,0-.2,1l2.4.3c.4-6.3.5-12.6,1.9-18.7.3-1.5-2-2.1-2.3-.6-1.5,6.4-1.7,12.9-2,19.4-.1,1.3,2.1,1.6,2.4.3a3.55,3.55,0,0,0,.2-1l-2.4-.3a2.27,2.27,0,0,0,.6,1.6c.5.7,2,.9,2.2-.3a18.29,18.29,0,0,0,.2-3.3c-.1-1.3-2.1-1.7-2.4-.3a6.91,6.91,0,0,0,0,3.5,1.2,1.2,0,0,0,2,.5c.6-.6,1.1-1.2,1.7-1.8,1.2-1-.5-2.7-1.6-1.7Z" transform="translate(-36.23 -97.3)"/><path class="cls-6" d="M69.2,238.8a10.88,10.88,0,0,0-.7,2.4h2.4v-1.3c0-1.3-2.2-1.7-2.4-.3a9.85,9.85,0,0,0-.2,1.7,1.31,1.31,0,0,0,1.8,1.4c.2-.1.3-.2.5-.2a1.1,1.1,0,0,0,.6-1V241a1.22,1.22,0,0,0-1.2-1.2.9.9,0,0,1-.5-.1c-.4-.1-.8.3-1,.6-.1.1-.2.3-.3.4l2.2.6c1.7-13,3.2-26,4.6-39,.2-1.5-2.2-1.5-2.4,0-1.4,13-2.9,26-4.6,39-.2,1.3,1.7,1.5,2.2.6-.1.1-.2.1-.2.2l-1.2-1.2c0-.1.1-.2.1-.3.6.5,1.2.9,1.8,1.4a9.85,9.85,0,0,0,.2-1.7l-2.4-.3v1.3a1.2,1.2,0,0,0,2.4,0l.3-1.2c.7-1.5-1.4-2.7-2-1.3Z" transform="translate(-36.23 -97.3)"/><path class="cls-6" d="M73,191.6a21.42,21.42,0,0,0-.7,4.3l2.4-.3c-.1-.6-.3-1.2-.4-1.9-.2-1.2-2.2-1.8-2.4-.3-.1.8-.2,1.7-.3,2.5l2.4.3c-.1-.7-.1-1.5-.2-2.2a1.2,1.2,0,0,0-2.4,0c0,.4-.1.9-.1,1.3l2.4-.3c-.1-.4-.2-.7-.3-1.1-.3-1.1-2.1-1.2-2.3,0-.2.9-.3,1.8-.5,2.7a1.35,1.35,0,0,0,.8,1.5s-.3,7.5-.3,8.2h2.4c-.1-2.7-.1-5.4-.2-8.1a1.2,1.2,0,0,0-2.4,0l-.6,15c-.1,2.3-.2,4.7-.3,7-.1,1.3.5,7.7-.6,8.5.6.3,1.2.7,1.8,1a266.49,266.49,0,0,1,2.3-32.1c.2-1.2-1.7-1.6-2.2-.6a5.31,5.31,0,0,0-.4,4.3,1.2,1.2,0,0,0,2.3,0c.3-1.7.5-4-2-3.5a1.13,1.13,0,0,0-.8,1.5c0,.1.1.2.1.4a1.29,1.29,0,0,0,1.2.9H72c1.5-.1,1.5-2.5,0-2.4a3.51,3.51,0,0,0,.8.5,10.93,10.93,0,0,0-.8,1.5,9.29,9.29,0,0,1-1,.5h2.3c.1-.8.1-1.6.2-2.4l-2.2-.6A288.66,288.66,0,0,0,69,229.8c0,.8,1.1,1.6,1.8,1,3-2.2,1.7-8.3,1.9-11.5.3-7,.5-14,.8-21H71.1c.1,2.7.1,5.4.2,8.1a1.2,1.2,0,0,0,2.4,0c0-2.4,1.8-9.6-1.4-10.5a10.93,10.93,0,0,1,.8,1.5c.2-.9.3-1.8.5-2.7H71.3c.1.4.2.7.3,1.1a1.23,1.23,0,0,0,2.4-.3c0-.4.1-.9.1-1.3H71.7c.1.7.1,1.5.2,2.2.1,1.2,2.2,1.8,2.4.3.1-.8.2-1.7.3-2.5l-2.4-.3a11.08,11.08,0,0,0,.5,2.5,1.24,1.24,0,0,0,2.4-.3,11.48,11.48,0,0,1,.6-3.7c-.1-1.6-2.4-2.3-2.7-.8Z" transform="translate(-36.23 -97.3)"/><path class="cls-6" d="M128,210.7a56.22,56.22,0,0,0-.9-5.7c-.3-1.5-2.6-.9-2.3.6.3,1.8.6,3.7.9,5.5.2,1.4,2.4,1,2.4-.3a31.68,31.68,0,0,0-.5-5.3l-2.3.6c.4,1.2.8,2.4,1.2,3.7a1.23,1.23,0,0,0,2.4-.3v-5.4h-2.4c.1,1.2.2,2.4.3,3.7h2.4l-.3-2.4a1.2,1.2,0,0,0-2.4,0,8.43,8.43,0,0,0,.6,3.8,1.19,1.19,0,0,0,2.3-.6c-.7-4.2-1.5-8.4-2.2-12.6l-2.3.6c.7,2.1,1.4,4.1,2.1,6.2a1.23,1.23,0,0,0,2.4-.3,19.69,19.69,0,0,0-.4-5.4c-.3-1.5-2.5-.9-2.3.6s.4,3.1.6,4.6c.2,1.3,2.5,1,2.4-.3-.3-2.5-.5-5.1-.6-7.6l-2.4.3c.4,2,.7,4.1,1.1,6.1.3,1.5,2.5.9,2.3-.6a65.94,65.94,0,0,1,.2-20.8l-2.4-.3c-.1,3.8-.4,7.5-.8,11.3-.1,1.3,2.2,1.7,2.4.3.6-4.1,1.1-8.1,1.7-12.2.2-1.5-2-2.2-2.3-.6a96.28,96.28,0,0,0-2,18.6,1.2,1.2,0,0,0,2.4,0,82.45,82.45,0,0,1,1.9-17.9l-2.3-.6c-.6,4.1-1.1,8.1-1.7,12.2l2.4.3c.4-3.8.7-7.5.8-11.3,0-1.3-2.1-1.7-2.4-.3a71.22,71.22,0,0,0-.2,22.1l2.3-.6c-.4-2-.7-4.1-1.1-6.1-.2-1.3-2.4-1-2.4.3.1,2.5.4,5.1.6,7.6l2.4-.3c-.2-1.5-.4-3.1-.6-4.6l-2.3.6a12.46,12.46,0,0,1,.3,4.7l2.4-.3c-.7-2.1-1.4-4.1-2.1-6.2a1.19,1.19,0,0,0-2.3.6c.7,4.2,1.5,8.4,2.2,12.6l2.3-.6a5.58,5.58,0,0,1-.6-3.1h-2.4l.3,2.4c.2,1.5,2.5,1.6,2.4,0-.1-1.2-.2-2.4-.3-3.7a1.2,1.2,0,0,0-2.4,0v5.4l2.4-.3c-.4-1.2-.8-2.4-1.2-3.7a1.19,1.19,0,0,0-2.3.6,24.87,24.87,0,0,1,.4,4.7l2.4-.3c-.3-1.8-.6-3.7-.9-5.5l-2.3.6a45.43,45.43,0,0,1,.9,5.1c-.1,1.3,2.3,1.3,2.1-.2Z" transform="translate(-36.23 -97.3)"/><path class="cls-6" d="M130.3,222.4c-.6-2.8-1.3-5.6-1.9-8.3-.3-1.3-2.5-1-2.4.3.3,2.1.6,4.2.8,6.3.2,1.5,2.4,1.6,2.4,0q-.15-4.2-.6-8.4c-.2-1.5-2.5-1.6-2.4,0q.3,3.45.9,6.9a1.24,1.24,0,0,0,2.4-.3,64.4,64.4,0,0,0-1-8.7c-.3-1.3-2.5-1-2.4.3a42.3,42.3,0,0,0,1.1,6.2,1.24,1.24,0,0,0,2.4-.3v-4.6h-2.4a27.3,27.3,0,0,0,.7,6.4c.3,1.3,2.5,1,2.4-.3-.5-4.7-1-9.5-1.5-14.2l-2.4.3a37.15,37.15,0,0,1,1.2,6.8,1.2,1.2,0,0,0,2.4,0,30.61,30.61,0,0,0-.3-7.4c-.2-1.3-2.5-1-2.4.3.1,1.6.2,3.2.4,4.7a1.2,1.2,0,0,0,2.4,0,22.06,22.06,0,0,0-.4-6.3c-.3-1.5-2.6-.9-2.3.6a21.91,21.91,0,0,1,.4,5.7h2.4c-.1-1.6-.2-3.2-.4-4.7l-2.4.3a21.54,21.54,0,0,1,.2,6.7H130a38.3,38.3,0,0,0-1.3-7.4c-.4-1.3-2.5-1.1-2.4.3.5,4.7,1,9.5,1.5,14.2l2.4-.3a38,38,0,0,1-.6-5.8,1.2,1.2,0,0,0-2.4,0v4.6l2.4-.3a34.53,34.53,0,0,1-1-5.6l-2.4.3a55.76,55.76,0,0,1,.9,8.1l2.4-.3q-.6-3.15-.9-6.3h-2.4q.45,4.2.6,8.4h2.4c-.3-2.1-.6-4.2-.8-6.3l-2.4.3c.6,2.8,1.3,5.6,1.9,8.3a1.23,1.23,0,0,0,2.4-.5Z" transform="translate(-36.23 -97.3)"/><path class="cls-6" d="M128.3,230.2c-.3.3-.5.7-.8,1,.7.3,1.4.6,2,.8.1-2.1.1-4.3.2-6.4l-2.4.3a42,42,0,0,1,.6,6.1h2.4c-.3-2.5-.6-5.1-.9-7.6-.2-1.5-2.5-1.6-2.4,0,.1,1.2.2,2.5.3,3.7l2.4-.3c-.2-1.4-.4-2.7-.6-4.1l-2.3.6a13.31,13.31,0,0,1,1,3.4c.3,1.3,2.3,1,2.4-.3a15.89,15.89,0,0,0-.2-3.8l-2.4.3a8.65,8.65,0,0,1,.6,2.3c.2,1.3,2.5,1,2.4-.3-.2-2.4-.5-4.8-.7-7.2-.1-1.5-2.5-1.6-2.4,0,.5,9.4.9,18.8,1.3,28.2.1,1.5,2.5,1.5,2.4,0-.1-2.1-.2-4.3-.3-6.4l-2.4.3a18,18,0,0,1,1,4l2.4-.3a46.73,46.73,0,0,1-1.3-6.5l-2.4.3a10.89,10.89,0,0,0,.8,3.1,1.24,1.24,0,0,0,2.4-.3v-2.3l-2.4.3a5.64,5.64,0,0,0,.4,1.2,1.19,1.19,0,0,0,2.3-.6c-.2-.6-.3-1.3-.5-1.9a1.19,1.19,0,0,0-2.3.6c.2.6.3,1.3.5,1.9l2.3-.6a5.64,5.64,0,0,0-.4-1.2,1.23,1.23,0,0,0-2.4.3v2.3l2.4-.3a10.89,10.89,0,0,1-.8-3.1c-.3-1.3-2.5-1-2.4.3a58.9,58.9,0,0,0,1.3,7.1c.3,1.3,2.5,1.1,2.4-.3a25.25,25.25,0,0,0-1-4.6c-.4-1.2-2.4-1.1-2.4.3.1,2.1.2,4.3.3,6.4h2.4c-.4-9.4-.9-18.8-1.3-28.2h-2.4c.2,2.4.5,4.8.7,7.2l2.4-.3a4.93,4.93,0,0,0-.6-2.3c-.4-1.2-2.5-1.1-2.4.3a12.31,12.31,0,0,1,.2,3.8l2.4-.3a13.31,13.31,0,0,0-1-3.4,1.19,1.19,0,0,0-2.3.6c.2,1.4.4,2.7.6,4.1s2.5,1,2.4-.3-.2-2.5-.3-3.7h-2.4c.3,2.5.6,5.1.9,7.6.2,1.5,2.5,1.6,2.4,0a49,49,0,0,0-.7-6.7c-.2-1.4-2.3-1-2.4.3-.1,2.1-.1,4.3-.2,6.4,0,1,1.4,1.7,2,.8.3-.3.5-.7.8-1,1.1-1.2-.6-2.9-1.6-1.6Z" transform="translate(-36.23 -97.3)"/><path class="cls-6" d="M132,250.8c0-1.1,0-2,.1-3.1h-2.4a14.72,14.72,0,0,0,.4,3.6c.3,1.5,2.5.9,2.3-.6s-.4-2.7-.6-4.1l-2.3.6c0,.3.1.5.1.8.3,1.5,2.6.9,2.3-.6-.2-1.1-.4-2.2-.5-3.4s-2.5-1-2.4.3c.8,6.5,1.6,12.9,2.5,19.4.2,1.2,2.1,1.8,2.4.3a2.33,2.33,0,0,0-.2-2c-.5-1.4-2.9-.8-2.3.6.1.3.1.5.2.8l2.4.3c-.8-6.5-1.6-12.9-2.5-19.4l-2.4.3c.2,1.1.4,2.2.5,3.4l2.3-.6c0-.3-.1-.5-.1-.8-.3-1.5-2.5-.9-2.3.6s.4,2.7.6,4.1l2.3-.6a15.26,15.26,0,0,1-.3-3c0-1.6-2.2-1.5-2.4,0a16.08,16.08,0,0,0-.1,3.1c.1,1.6,2.5,1.6,2.4,0Z" transform="translate(-36.23 -97.3)"/><path class="cls-6" d="M118,251.6c-.1-.3-.2-.7-.3-1v-.4q0-.45-.3,0c-.3,0-.6.1-.9.1.3.1.6,1.5.7,1.8a7.41,7.41,0,0,1,.1,2.1c.7-.3,1.4-.6,2-.8-.6-.6-1.5-1.8-1.2-2.7-.2.2-.4.5-.6.7-.7-.5-.9-.5-.7,0a.9.9,0,0,0,.1.5,8.08,8.08,0,0,0-.1,1.5c-.1.4.1.4.7.1-.1-.1-.3-.2-.4-.3a1.28,1.28,0,0,1-.4-1c-.3-1.5-2.6-.9-2.3.6s1.8,3.5,3.5,2.9,1.6-3.7,1.3-5.2a2,2,0,0,0-1.5-1.6,1.76,1.76,0,0,0-1.9,1.2c-.4,1.7.7,3.7,1.9,4.8a1.16,1.16,0,0,0,2-.8c.2-1.8-.2-5.3-2.2-6.2a1.49,1.49,0,0,0-2.1,1.1,5.66,5.66,0,0,0,.6,3.6c.5,1.6,2.6.4,2-1Z" transform="translate(-36.23 -97.3)"/><path class="cls-6" d="M129.9,192.1a1.45,1.45,0,0,1-.2-.7l-2.4.3a5.92,5.92,0,0,1,.1,1.9h2.4a6.15,6.15,0,0,1,.1-1.3,1.35,1.35,0,0,0-.8-1.5,1.2,1.2,0,0,0-1.5.8,6.08,6.08,0,0,0-.1,1.9,1.2,1.2,0,0,0,2.4,0,7.07,7.07,0,0,0-.2-2.5c-.3-1.4-2.3-1-2.4.3a4.14,4.14,0,0,0,.5,1.9c.8,1.4,2.9.2,2.1-1.1Z" transform="translate(-36.23 -97.3)"/></svg>