<?xml version="1.0" encoding="utf-8"?>
<!-- Generator: Adobe Illustrator 21.0.2, SVG Export Plug-In . SVG Version: 6.00 Build 0)  -->
<svg version="1.1" id="Layer_1" xmlns="http://www.w3.org/2000/svg" xmlns:xlink="http://www.w3.org/1999/xlink" x="0px" y="0px"
	 viewBox="0 0 200 600" style="enable-background:new 0 0 200 600;" xml:space="preserve">
<style type="text/css">
	.st0{fill:#140C47;}
	.st1{fill:#201C52;}
</style>
<g>
	<g>
		<g>
			<g>
				<path class="st0" d="M116.7,32.1c-0.7-0.2-1.4-0.3-2.1-0.5c-0.3,1.2-0.6,2.3-1,3.5c-0.2,0.1-0.4,0.3-0.6,0.4
					c-0.5,0.9-1,1.8-1.6,2.7c0.6-0.1,1.2-0.1,1.8-0.2c-0.8,0.8-1.7,1.7-2.5,2.5c0.5,0.6,1,1.1,1.5,1.7c0.5-0.9,1-1.8,1.6-2.7
					c-0.6-0.2-1.1-0.3-1.7-0.5c-1.7-0.9-3.8,1.5-2.2,2.8c0.7,0.6,1.5,1.2,2.2,1.8c0.6-1,1.2-2,1.8-3c-0.6-0.2-1.2-0.4-1.8-0.5
					c-2.1-0.9-3.9,2.1-1.8,3.1c8.2,3.8,17.6,13.3,17.2,22.9c-0.1,1.5,2,2.4,3.1,1.3c5.7-6.4,3.8-14.4,1.1-21.7
					c-1.1,0.5-2.2,0.9-3.3,1.4c0.3,0.9,0.6,1.8,0.8,2.7c1.2-0.2,2.4-0.3,3.5-0.5c-0.1-0.3-0.2-0.5-0.3-0.8c-0.8-2.2-4.3-1.2-3.5,1
					c0.1,0.3,0.2,0.5,0.3,0.8c0.6,1.8,3.8,1.7,3.5-0.5c-0.2-1.7-0.5-3-1.3-4.5c-0.9-1.8-4-0.6-3.3,1.4c2.1,5.9,4.6,12.9-0.2,18.2
					c1,0.4,2,0.8,3.1,1.3c0.4-10.9-9.7-21.7-19-26c-0.6,1-1.2,2.1-1.8,3.1c1.1,0.5,1.5,0.7,2.6,0.9c1.6,0.4,3.2-1.8,1.8-3
					c-0.7-0.6-1.5-1.2-2.2-1.8c-0.7,0.9-1.5,1.9-2.2,2.8c1.5,0.8,1.9,0.9,3.5,1c1.3,0.1,2.3-1.6,1.6-2.7c-0.8-1.2-1-1.5-2.1-2.4
					c-1.7-1.6-4.1,0.9-2.5,2.5c1.9,2,5.4,2.9,6.4-0.5c1.1-3.7-2.7-5.2-5.6-5.5c-1.4-0.1-2.1,1.6-1.6,2.7c1.5,2.9,6.3,5.3,8.1,1.1
					c1.3-3.1-1.9-8.4-5.3-5.7c-2.6,2.1-0.7,6.2,2.5,5.7c4.4-0.6,3.2-6.2-0.5-6.8c-2.3-0.4-3.1,2.6-1,3.5c1.4,0.6,1.5,0.6,3.1,0.6
					C119,35.8,119,32.2,116.7,32.1L116.7,32.1z"/>
			</g>
		</g>
		<g>
			<g>
				<path class="st0" d="M131.9,54.6c-0.1-0.3-0.3-0.6-0.4-0.8c-0.8-1.5-3.5-0.9-3.4,0.9c0.1,1.1,0.2,2.3,0.2,3.4
					c1.1-0.3,2.2-0.6,3.4-0.9c0-0.6-0.1-1.2-0.1-1.8c-1.2-0.2-2.4-0.3-3.5-0.5c0,1.6,0.1,3.2,0.1,4.8c0,2.3,3.5,2.3,3.6,0
					c0.2-4.7-0.8-9-2.9-13.3c-1-1.9-3.6-0.5-3.3,1.4c0.5,2.7,1.3,5.3,2.3,7.9c1.2-0.3,2.3-0.6,3.5-1c-2.1-5.2-3.8-11.5-8.4-14.9
					c-1.5-1.1-3.3,1-2.5,2.5c1.8,3.1,3.6,6.2,5.4,9.3c0.9-0.7,1.9-1.5,2.8-2.2c-2.4-2.4-4.6-4.9-6.5-7.7c-0.9,0.7-1.9,1.5-2.8,2.2
					c1.9,2.2,3.2,4.4,4.5,7c0.9-0.7,1.9-1.5,2.8-2.2c-2.9-3.5-5.7-7.1-8.6-10.6c-0.8,0.8-1.7,1.7-2.5,2.5c3.2,3.3,6,6.7,8.7,10.4
					c0.9-0.7,1.9-1.5,2.8-2.2c-3.7-3.6-7.4-7.1-11.2-10.7c-0.7,0.9-1.5,1.9-2.2,2.8c3.8,2.6,7,5.5,9.8,9.2c0.8-0.8,1.6-1.6,2.5-2.5
					c-2.5-1.8-4.6-3.8-6.5-6.2c-0.7,0.9-1.5,1.9-2.2,2.8c3.8,2.4,6.2,6,8.6,9.7c1-0.6,2.1-1.2,3.1-1.8c-1.6-2.2-2.7-4.3-3.5-6.9
					c-1.1,0.5-2.2,0.9-3.3,1.4c1.4,1.9,2.7,3.8,4.1,5.7c1.4,1.9,4.1,0.3,3.1-1.8c-2.5-5.5-5.6-10.6-9.1-15.5
					c-0.9,0.7-1.9,1.5-2.8,2.2c2.8,3.2,5.5,6.4,8.3,9.6c0.8-0.8,1.7-1.7,2.5-2.5c-3.6-3.4-7.1-6.9-10.4-10.6
					c-0.7,0.9-1.5,1.9-2.2,2.8c4.7,2.4,8.2,5.8,10.9,10.3c0.9-0.7,1.9-1.5,2.8-2.2c-2.2-2.5-3.9-5.2-5.2-8.3c-1,0.6-2,1.2-3,1.8
					c2.8,2.2,4.2,5.1,5.4,8.3c1.1-0.5,2.2-0.9,3.3-1.4c-1.4-2.3-2.4-4.6-3.2-7.1c-1.1,0.5-2.2,0.9-3.3,1.4c1.3,1.9,2.2,3.7,3.1,5.8
					c1.1-0.5,2.2-0.9,3.3-1.4c-1.1-1.5-1.7-2.6-2.2-4.4c-1.1,0.5-2.2,0.9-3.3,1.4c0.9,1.3,1.5,2.5,2.1,4c0.8,2,3.7,0.5,3.3-1.4
					c-0.1-0.5-0.2-1-0.3-1.5c-1.1,0.5-2.2,0.9-3.3,1.4c0.5,1,0.9,2.1,1.4,3.1c0.7,1.6,3.6,0.8,3.4-0.9c-0.2-1.3-0.2-1.9-0.6-3.2
					c-1.1,0.5-2.2,0.9-3.3,1.4c0.4,0.9,0.9,1.7,1.3,2.6c0.9,1.8,3.9,0.6,3.3-1.4c-2-6.6-5.7-11.9-11.3-16c-0.6,1-1.2,2.1-1.8,3.1
					c1.3,0.9,2.4,2,3.2,3.4c0.8-0.8,1.6-1.6,2.5-2.5c-3-1.5-5.9-3.1-8.8-4.8c-1.8-1-3.7,1.4-2.2,2.8c2.4,2.3,4.8,4.3,7.6,6.1
					c1.7,1.1,3.6-1.4,2.2-2.8c-1.8-1.8-3.7-3.6-5.7-5.3c-0.6,1-1.2,2-1.8,3c1.9,0.7,3.7,1.4,5.5,2.2c2.1,1,3.7-1.8,1.8-3.1
					c-2.4-1.7-4.8-3.1-7.4-4.4c-1.7-0.8-3.9,1.5-2.2,2.8c1,0.8,1.5,1.1,2.6,1.7c0.6-1,1.2-2.1,1.8-3.1c-0.8-0.4-1.6-0.7-2.4-1.1
					c-2.1-0.9-3.9,2.2-1.8,3.1c0.8,0.4,1.6,0.7,2.4,1.1c2.1,0.9,3.9-2,1.8-3.1c-0.6-0.4-1.2-0.8-1.8-1.2c-0.7,0.9-1.5,1.9-2.2,2.8
					c2.6,1.3,5.1,2.7,7.4,4.4c0.6-1,1.2-2.1,1.8-3.1c-2.1-1-4.2-1.8-6.4-2.6c-1.7-0.6-3.1,1.8-1.8,3c2,1.7,3.9,3.5,5.7,5.3
					c0.7-0.9,1.5-1.9,2.2-2.8c-2.5-1.6-4.8-3.4-6.9-5.5c-0.7,0.9-1.5,1.9-2.2,2.8c2.9,1.7,5.8,3.3,8.8,4.8c1.5,0.8,3.5-0.9,2.5-2.5
					c-1.2-1.9-2.6-3.3-4.4-4.7c-1.9-1.4-3.7,1.7-1.8,3.1c4.7,3.5,7.9,8.2,9.6,13.8c1.1-0.5,2.2-0.9,3.3-1.4
					c-0.4-0.9-0.9-1.7-1.3-2.6c-0.9-1.8-3.9-0.6-3.3,1.4c0.2,0.7,0.3,1.5,0.5,2.2c1.1-0.3,2.2-0.6,3.4-0.9c-0.5-1-0.9-2.1-1.4-3.1
					c-0.9-1.9-3.7-0.5-3.3,1.4c0.1,0.5,0.2,1,0.3,1.5c1.1-0.5,2.2-0.9,3.3-1.4c-0.6-1.4-1.3-2.7-2.1-4c-1.1-1.6-3.9-0.7-3.3,1.4
					c0.6,1.9,1.4,3.6,2.6,5.2c1.1,1.5,4.1,0.7,3.3-1.4c-1-2.4-2-4.5-3.5-6.7c-1.1-1.6-3.9-0.6-3.3,1.4c0.9,2.8,2,5.4,3.6,8
					c1,1.7,4.1,0.6,3.3-1.4c-1.5-3.8-3.1-7.4-6.4-9.9c-1.2-0.9-3.8-0.1-3,1.8c1.5,3.7,3.5,6.9,6.1,9.9c1.4,1.6,3.8-0.4,2.8-2.2
					c-2.9-5.1-7-8.9-12.2-11.6c-1.8-0.9-3.6,1.3-2.2,2.8c3.3,3.7,6.8,7.2,10.4,10.6c1.7,1.6,4.1-0.8,2.5-2.5
					c-2.8-3.2-5.5-6.4-8.3-9.6c-1.3-1.5-4,0.5-2.8,2.2c3.6,4.9,6.6,10,9.1,15.5c1-0.6,2.1-1.2,3.1-1.8c-1.4-1.9-2.7-3.8-4.1-5.7
					c-1.1-1.6-4-0.7-3.3,1.4c0.9,2.9,2.1,5.3,3.9,7.7c1.3,1.8,4.4,0.2,3.1-1.8c-2.7-4.3-5.5-8.3-9.9-11c-1.9-1.2-3.4,1.3-2.2,2.8
					c2.1,2.7,4.5,4.8,7.2,6.7c1.4,1,3.6-1,2.5-2.5c-3.2-4.1-6.8-7.6-11.1-10.5c-1.7-1.1-3.6,1.4-2.2,2.8c3.7,3.6,7.4,7.1,11.2,10.7
					c1.4,1.4,4.1-0.5,2.8-2.2c-2.8-3.9-5.9-7.6-9.3-11.1c-1.6-1.7-4,0.8-2.5,2.5c2.9,3.5,5.7,7.1,8.6,10.6c1.3,1.7,3.7-0.5,2.8-2.2
					c-1.4-2.8-3.1-5.3-5.1-7.7c-1.3-1.5-4,0.5-2.8,2.2c2.1,3.1,4.4,5.8,7.1,8.4c1.5,1.4,3.9-0.4,2.8-2.2c-1.8-3.1-3.6-6.2-5.4-9.3
					c-0.8,0.8-1.6,1.6-2.5,2.5c3.4,2.6,5.2,9,6.7,12.8c0.9,2.1,4.3,1.2,3.5-1c-1.1-2.6-1.8-5.1-2.3-7.9c-1.1,0.5-2.2,0.9-3.3,1.4
					c1.9,3.7,2.6,7.3,2.4,11.4c1.2,0,2.4,0,3.6,0c0-1.6-0.1-3.2-0.1-4.8c0-2-2.9-2.4-3.5-0.5c-0.5,1.8-0.4,2.9,0.4,4.5
					c0.8,1.6,3.5,0.8,3.4-0.9c-0.1-1.1-0.2-2.3-0.2-3.4c-1.1,0.3-2.2,0.6-3.4,0.9c0.1,0.3,0.3,0.6,0.4,0.8
					C129.9,58.5,133,56.6,131.9,54.6L131.9,54.6z"/>
			</g>
		</g>
		<g>
			<g>
				<path class="st0" d="M70.3,52.7c-1.1,4.4-1.1,8.6,0.2,13c0.5,1.6,3.2,1.9,3.5,0c0.8-5.3,2.6-10.1,5.5-14.6
					c-1-0.6-2.1-1.2-3.1-1.8c-0.6,1-1.2,1.9-1.8,2.9c-1.3,2,1.7,3.6,3.1,1.8c3.1-4.1,6.9-7.3,11.4-9.8c-0.7-0.9-1.5-1.9-2.2-2.8
					c-0.9,0.8-2,1.4-3.1,1.8c-2.1,0.9-0.3,4,1.8,3.1c7.8-3.3,17-9.7,25.2-4.2c0.3-1.1,0.6-2.2,0.9-3.4c-1.2-0.4-2.3-0.8-3.5-1.2
					c-0.6,1-1.2,2-1.8,3c0.7,0.3,1.4,0.6,2.2,0.9c1.9,0.8,3.2-2.4,1.4-3.3c-3.8-1.8-7.5-2.5-11.7-2c-1.8,0.2-2.7,3.2-0.5,3.5
					c2.6,0.4,5.2,0.6,7.9,0.6c2.3-0.1,2.3-3.4,0-3.6c-1.7-0.1-3.5-0.3-5.2-0.4c-2-0.1-2.4,3-0.5,3.5c0.8,0.2,1.5,0.4,2.3,0.6
					c0.2-1.2,0.3-2.4,0.5-3.5c-1.9,0.1-3.6-0.1-5.5-0.7c-2.2-0.7-3.2,2.8-1,3.5c2.2,0.7,4.1,0.9,6.4,0.8c2-0.1,2.5-3,0.5-3.5
					c-0.8-0.2-1.5-0.4-2.3-0.6c-0.2,1.2-0.3,2.4-0.5,3.5c1.7,0.1,3.5,0.3,5.2,0.4c0-1.2,0-2.4,0-3.6c-2.4,0.1-4.5,0-6.9-0.4
					c-0.2,1.2-0.3,2.4-0.5,3.5c3.5-0.4,6.7,0,9.9,1.5c0.5-1.1,0.9-2.2,1.4-3.3c-0.7-0.3-1.4-0.6-2.2-0.9c-1.7-0.7-3,1.8-1.8,3
					c1.8,1.8,3.5,2.5,6.1,2.3c1.8-0.1,2.4-2.3,0.9-3.4c-9.6-6.3-19.8,0.3-28.9,4.2c0.6,1,1.2,2.1,1.8,3.1c1.5-0.6,2.6-1.4,3.8-2.4
					c1.6-1.3-0.5-3.8-2.2-2.8c-5,2.9-9.1,6.5-12.7,11.1c1,0.6,2.1,1.2,3.1,1.8c0.6-1,1.2-1.9,1.8-2.9c1.2-2-1.9-3.8-3.1-1.8
					c-3.1,4.8-5,9.9-5.9,15.5c1.2,0,2.3,0,3.5,0c-1.1-3.8-1.2-7.2-0.2-11.1C74.3,51.4,70.9,50.4,70.3,52.7L70.3,52.7z"/>
			</g>
		</g>
		<g>
			<g>
				<path class="st0" d="M108.4,40.1c-0.6-0.9-1.3-1.8-2.2-2.6c-0.6,1-1.2,2-1.8,3c0.5,0.1,1.1,0.2,1.6,0.3c0.9,0.2,2-0.2,2.2-1.3
					c0.3-1.4-0.4-2.4-1.6-3c-0.9-0.4-2,0.4-2.2,1.3c-0.2,1,0.3,1.8,1.3,2.2c-0.3-0.5-0.6-1-0.9-1.5c0.7-0.4,1.5-0.8,2.2-1.3
					c-0.5-0.1-1.1-0.2-1.6-0.3c-0.8-0.1-1.6,0.1-2,0.8c-0.4,0.7-0.3,1.6,0.3,2.2c0.3,0.3,0.7,0.6,1,1c0,0,0.4,0.5,0.2,0.3
					c0.1,0.2,0.3,0.4,0.4,0.6c0.5,0.8,1.6,1.2,2.5,0.6C108.5,42.1,108.9,40.9,108.4,40.1L108.4,40.1z"/>
			</g>
		</g>
		<g>
			<g>
				<path class="st0" d="M109.5,32.6c-0.8,0.3-2.2-0.1-2.8-0.6c-0.4,0-0.4,0-0.1-0.1c0.2-0.1,0.3-0.1,0.5-0.1c0.3,0,1.1-0.1,1.4,0.1
					c1,0.8-0.4,1.9-0.4,1.1c0-0.5,0.5-0.7,0.8-1c0.2-0.2,0.6-0.8,0,0c-0.5,0.6-0.8,1.2-1.3,1.7c-0.6,0.1-0.6,0.2-0.3,0.3
					c0.2,0.2,0.3,0.1,0.5-0.1c0.2-0.1,1.1-0.6,1.3-0.8c0.6-0.1,0.6-0.4,0-1c-0.1,0.1-0.2,0.2-0.3,0.3c-0.3,0.1-0.7,0.6-0.9,0.8
					c-0.3,0.2-2,1.2-2.2,1.2c0.3,0.4,0.6,0.7,0.8,1.1c-0.5-1.1,2.3-3.4,2.4-1.3c0,0.4-0.2,0.8-0.4,1.1c-0.7,0.1-0.8,0.2-0.3,0.3
					c0.5-0.1,1.7-1.1,2.2-0.8c-1-0.6-1,1.7-1.7,0.2c-0.3-0.6,0.1-1.6,0.4-2.1c0.9-1.3,2.7-1.5,3.9-0.5c0.6-1,1.2-2,1.8-3
					c-2-0.5-3.8-1.4-5.5-2.5c-0.5,1.1-0.9,2.2-1.4,3.3c1.9,0.4,3.7,1,5.4,1.9c2,1.1,3.8-2,1.8-3.1c-1.6-0.9-3.2-1.8-4.8-2.7
					c-1.7-0.9-3.9,1.5-2.2,2.8c1.2,0.9,2.3,1.7,3.6,2.3c2.1,1,3.9-2.1,1.8-3.1c-1-0.5-2-1.1-2.9-1.8c-0.7,0.9-1.5,1.9-2.2,2.8
					c1.6,0.9,3.2,1.8,4.8,2.7c0.6-1,1.2-2.1,1.8-3.1c-2-1.1-4.1-1.8-6.3-2.2c-2-0.4-3.1,2.1-1.4,3.3c1.9,1.3,4.1,2.3,6.3,2.9
					c1.6,0.4,3.2-1.8,1.8-3c-2.1-1.7-5-2.3-7.4-0.8c-2.3,1.4-3.5,4.3-2.9,6.9c2.1,8,12.6-1.1,7-4.3c-2.2-1.3-6,0.3-7.4,2.2
					c-1.9,2.6,1,5.4,3.7,5.2c2.8-0.2,4.5-3.2,4-5.8c-0.5-2.8-3.3-4.2-5.9-3.1c-2.2,0.9-4.3,3.8-3.5,6.3c1,3.1,5.2,1.1,6.9-0.1
					c1.9-1.3,4.2-4.2,1.8-6.2c-2.2-1.8-5.8,0.3-7.1,2.2c-1.5,2.1-0.8,5.2,2.1,5.4c2.7,0.2,4.9-2.2,5.8-4.6c0.9-2.5-0.5-5.5-3.6-4.8
					c-2.7,0.6-5,3.2-4.3,6.1c0.9,3.3,4.7,3.6,6.8,1.2c2-2.4,1.2-6.2-1.9-7.1c-2.4-0.7-6.5,0-6.5,3.2c0,3.3,4.7,5.3,7.5,4.4
					C112.7,35.4,111.7,31.9,109.5,32.6L109.5,32.6z"/>
			</g>
		</g>
		<g>
			<g>
				<path class="st0" d="M73.3,52.1c0.2-0.5,0.5-1,0.7-1.5c-1.1-0.5-2.2-0.9-3.3-1.4c-0.6,1.7-1.3,3-2.2,4.5
					c1.1,0.5,2.2,0.9,3.3,1.4c0.1-0.3,0.3-0.5,0.4-0.8c-1-0.6-2-1.2-3-1.8c-0.3,1.6-0.6,3.2-0.8,4.9c-0.4,2.3,3,3.2,3.5,1
					c1-5.2,2.7-9.9,5.4-14.4c-1-0.6-2.1-1.2-3.1-1.8c-1.1,2.5-2.4,4.7-4,6.9c1.1,0.3,2.2,0.6,3.4,0.9c0.1-0.4,0.1-0.9,0.2-1.3
					c-1.1-0.5-2.2-0.9-3.3-1.4c-0.3,1.4-0.8,2.7-1.7,3.9c1.1,0.5,2.2,0.9,3.3,1.4c0.8-2.1,1.6-3.8,2.7-5.7c-1.1-0.5-2.2-0.9-3.3-1.4
					c-0.5,1.8-1.1,3.5-2,5.2c1.1,0.5,2.2,0.9,3.3,1.4c1.1-3.4,2.5-6.6,4.3-9.7c-1.1-0.5-2.2-0.9-3.3-1.4c-0.4,1-0.9,2.1-1.3,3.1
					c1,0.6,2,1.2,3,1.8c0.4-2.1,1.1-3.6,2.7-5.1c-1-0.6-2-1.2-3-1.8c-0.5,1.8-1.4,3.3-2.7,4.6c1,0.6,2,1.2,3,1.8
					c0.4-0.9,0.8-1.9,1.1-2.8c-1-0.6-2-1.2-3-1.8c-0.2,1.5-0.9,2.7-2.1,3.4c1,0.6,2,1.2,3,1.8c0.7-1.8,1.5-3.2,2.6-4.8
					c-1-0.6-2.1-1.2-3.1-1.8c-0.4,1-0.9,2-1.5,2.8c1.1,0.5,2.2,0.9,3.3,1.4c1.6-4.7,5.5-7.5,9.5-10.2c1.9-1.3,0.2-4.2-1.8-3.1
					c-1.8,0.9-3.5,2-5.2,3.1c0.7,0.9,1.5,1.9,2.2,2.8c1.5-1.2,2.8-1.9,4.5-2.6c1.9-0.8,0.5-3.7-1.4-3.3c-1.6,0.4-1.7,0.4-3.1,1.2
					c0.6,1,1.2,2.1,1.8,3.1c2.1-1.3,4-2.6,6.4-3.2c1.6-0.5,2.8-0.7,4.2-1.7c1.7-1.1,0.6-3.7-1.4-3.3c-1.2,0.3-2.3,0.5-3.5,0.8
					c0.5,1.1,0.9,2.2,1.4,3.3c8.1-4,17.1-3.8,25,0.5c2,1.1,3.9-2,1.8-3.1c-9.1-4.9-19.4-5.1-28.7-0.5c-1.9,0.9-0.5,3.7,1.4,3.3
					c1.2-0.3,2.3-0.5,3.5-0.8c-0.5-1.1-0.9-2.2-1.4-3.3c-1.7,1.1-3.1,0.8-4.8,1.5c-2,0.7-4,2.4-5.8,3.4c-2,1.2-0.2,4.2,1.8,3.1
					c0.7-0.3,1.5-0.6,2.2-0.9c-0.5-1.1-0.9-2.2-1.4-3.3c-2,0.8-3.6,1.9-5.2,3.2c-1.6,1.3,0.5,4,2.2,2.8c1.7-1.2,3.4-2.2,5.2-3.1
					c-0.6-1-1.2-2.1-1.8-3.1c-4.8,3.2-9.2,6.6-11.1,12.3c-0.7,2,2.2,3,3.3,1.4c0.7-0.9,1.2-1.8,1.5-2.8c0.9-2.1-1.8-3.8-3.1-1.8
					c-1.2,1.8-2.1,3.6-2.9,5.6c-0.7,1.9,1.8,2.7,3,1.8c1.7-1.4,2.6-2.9,3.1-5c0.3-1.6-1.8-3.3-3-1.8c-1.1,1.4-1.8,2.6-2.1,4.4
					c-0.3,1.7,1.6,3,3,1.8c1.9-1.8,3-3.6,3.7-6.2c0.4-1.7-1.7-3-3-1.8c-2,1.9-3.1,3.9-3.6,6.7c-0.3,1.6,1.7,3.3,3,1.8
					c1.2-1.5,1.9-2.8,2.3-4.7c0.4-1.9-2.2-3.3-3.3-1.4c-1.9,3.4-3.4,6.9-4.6,10.6c-0.6,1.9,2.3,3.2,3.3,1.4c1-2,1.8-3.9,2.3-6.1
					c0.5-2-2.2-3.1-3.3-1.4c-1.3,2.1-2.3,4.2-3.1,6.5c-0.7,2,2.2,3,3.3,1.4c1-1.6,1.6-2.9,2.1-4.7c0.5-1.9-2.3-3.3-3.3-1.4
					c-0.7,1.3-0.8,1.6-0.7,3.1c0.1,1.9,2.3,2.3,3.4,0.9c1.6-2.2,2.9-4.4,4-6.9c0.9-2.1-1.9-3.9-3.1-1.8c-2.8,4.8-4.7,9.8-5.7,15.3
					c1.2,0.3,2.3,0.6,3.5,1c0.3-1.6,0.6-3.2,0.8-4.9c0.3-1.7-1.7-3.1-3-1.8c-0.8,0.9-1.1,1.2-1.3,2.4c-0.5,2,2.2,3.1,3.3,1.4
					c1.1-1.7,1.9-3.4,2.6-5.3c0.7-1.9-2.4-3.2-3.3-1.4c-0.2,0.5-0.5,1-0.7,1.5C69.1,52.3,72.2,54.2,73.3,52.1L73.3,52.1z"/>
			</g>
		</g>
		<g>
			<g>
				<path class="st0" d="M76.1,45.8c0.5-1.2,1.3-2.2,2.4-2.9c-1-0.6-2-1.2-3-1.8c-0.9,2.5-2.1,4.8-3.5,7c-1.1,1.9,1.3,3.4,2.8,2.2
					c1.1-0.9,2-1.7,2.9-2.8c-1-0.6-2-1.2-3-1.8c-0.8,2.2-1.6,3.6-3,5.4c1,0.6,2.1,1.2,3.1,1.8c0.5-1.3,1.4-2.3,2.5-3
					c-0.9-0.7-1.8-1.4-2.6-2c-0.4,2-1.4,3.7-3,5.1c0.9,0.7,1.9,1.5,2.8,2.2c2.2-5.1,5-9.6,8.6-13.7c-1-0.6-2-1.2-3-1.8
					c-0.3,2-0.7,3.8-1.6,5.6c-0.4,0.8-3.6,5.4-1.7,2.9c2.1-2.7,3.4-6.6,5.7-9.5c-1-0.6-2-1.2-3-1.8c-0.6,0.6-1.3,1.2-1.9,1.7
					c0.7,0.3,1.4,0.6,2,0.8c0.1-0.6,0.1-1.3,0.2-1.9c0.9-1.5-0.9-3.5-2.5-2.5c-0.5,0.4-1.1,0.7-1.6,1.1c0.9,0.7,1.8,1.4,2.6,2
					c0.3-0.4,0.6-0.9,0.9-1.3c-0.9-0.7-1.9-1.5-2.8-2.2c-0.2,0.3-0.5,0.6-0.7,0.9c0.7,0.9,1.5,1.9,2.2,2.8c2.6-2.9,5.5-4.9,9.2-6.2
					c-0.7-0.9-1.4-1.8-2-2.6c-1.3,2.7-3.3,4.5-5.6,6.3c0.9,0.7,1.9,1.5,2.8,2.2c2.2-2.9,4.9-5.1,8.1-6.8c-0.8-0.8-1.6-1.6-2.5-2.5
					c-2.3,4.3-5.3,7.7-9.3,10.3c0.8,0.8,1.6,1.6,2.5,2.5c2.3-4.3,5.6-7.3,10.1-9.2c-0.7-0.7-1.5-1.5-2.2-2.2
					c-0.8,3.4-2.7,5.7-5.8,7.1c0.7,0.9,1.5,1.9,2.2,2.8c2.1-2.3,4.3-3.9,7.2-5c-0.7-0.9-1.4-1.8-2-2.6c-2.2,3.4-4.9,5.8-8.6,7.5
					c0.8,0.8,1.6,1.6,2.5,2.5c2-3.5,4.4-4.9,7.5-7.3c3-2.3-2.9,1.5-2.8,1.3c-1.6,1.2-3.4,2.1-5.2,2.8c0.7,0.9,1.4,1.8,2,2.6
					c1.3-2.2,4.5-5.7,7.5-5c-0.4-0.6-0.9-1.2-1.3-1.7c0.1,0.9-4.2,2-4.8,2c0.6,1,1.2,2,1.8,3c2.2-2.2,4.5-3.1,7.6-3.1
					c-0.4-1-0.8-2-1.3-3.1c-1.4,1.6-3,2.1-4.8,1.7c0.3,1.1,0.6,2.2,0.9,3.4c2.3-1.8,4.6-2.5,7.5-2.4c-0.4-1-0.8-2-1.3-3.1
					c-0.8,1.1-1.8,1.7-3.1,1.9c0.6,0.4,1.2,0.9,1.7,1.3c-0.1-0.2,5.1-1.1,5.7-1.1c-0.4-1-0.8-2-1.3-3.1c-0.6,1.3-1.1,1.2-1.2-0.3
					c0.1,1.8,0.5,1,1-2.4c-1.3-0.2-0.6-0.1,2,0.2c1.3,0.4,2.5,1,3.6,1.8c0.5-1.1,0.9-2.2,1.4-3.3c-2.3-0.5-4.2-1.3-6.2-2.5
					c-0.3,1.1-0.6,2.2-0.9,3.4c3.1,0.4,6.2,0.8,9.2,1.2c0-1.2,0-2.4,0-3.6c-4.4-0.2-9.5-1.2-13.9-0.7c-2.2,0.3-3.3,1.1-4,3.2
					c-0.5,1.6,1.3,2.6,2.6,2c3-1.4,5.8-2.6,9.1-1.4c0.2-1.2,0.3-2.4,0.5-3.5c-3.4-0.1-9.5-1.9-11.8,1.4c-1.3,1.9,1.8,3.7,3.1,1.8
					c0.4-0.5,7.7,0.4,8.7,0.4c2.1,0.1,2.3-2.9,0.5-3.5c-4.2-1.5-8,0-11.9,1.8c0.9,0.7,1.8,1.4,2.6,2c0.5-1.6,12.8,0.1,14.4,0.2
					c2.4,0.1,2.2-3.3,0-3.6c-3.1-0.4-6.2-0.8-9.2-1.2c-1.9-0.2-2.3,2.5-0.9,3.4c2.3,1.4,4.5,2.3,7.1,2.8c2,0.5,3.1-2.1,1.4-3.3
					c-2.8-2-10.6-4.9-12.9-0.5c-2.3,4.5,4.2,6.1,7.2,4.7c3.3-1.6,2.8-5.4-0.8-6.2c-3.3-0.8-7.7,1.7-5.6,5.4c1.8,3.1,8.4,3.5,8.1-1.1
					c-0.3-4.2-7.8-3.8-9.8-1.3c-3.3,4.1,2.6,7,6,6.7c3.5-0.3,7.8-3.7,4-6.9c-3.3-2.9-11.1-0.1-11.3,4.5c-0.4,6.4,7.9,4,10.3,1.1
					c1-1.2,0.4-3-1.3-3.1c-3.1-0.1-10.2,1.1-9.1,5.6c0.2,0.8,1,1.3,1.7,1.3c2.3,0,4.1-1.5,5.6-3c1.2-1.1,0.2-3-1.3-3.1
					c-3.5-0.1-6.5,0.7-9.3,2.9c-1.5,1.1-0.9,3.1,0.9,3.4c3,0.3,5.3-0.6,7.3-2.7c1.1-1.1,0.3-3-1.3-3.1c-4-0.1-7.3,1.3-10.1,4.1
					c-1.4,1.4,0.1,3.2,1.8,3c2.6-0.4,7.6-2.2,7.4-5.5c-0.1-0.8-0.5-1.6-1.3-1.7c-4.7-1.1-9.4,2.9-11.6,6.7c-0.7,1.2,0.5,3.3,2,2.6
					c3.9-1.6,11.7-5.1,11-10.3c-0.1-0.6-0.7-1.1-1.3-1.3c-5.1-1.9-11.2,5.6-13.3,9.4c-0.9,1.7,0.9,3.2,2.5,2.5
					c4.2-2,7.4-4.9,9.9-8.8c0.8-1.2-0.5-3.3-2-2.6c-3.4,1.4-6.2,3.3-8.8,6c-1.4,1.5,0.4,3.7,2.2,2.8c4-1.9,6.5-5,7.5-9.3
					c0.3-1.2-0.9-2.8-2.2-2.2c-5.4,2.2-9.5,5.7-12.3,10.8c-0.8,1.5,0.9,3.5,2.5,2.5c4.6-3,8.1-6.8,10.6-11.6
					c0.9-1.6-0.9-3.3-2.5-2.5c-3.8,2-6.8,4.7-9.4,8.1c-1.3,1.8,1.4,3.3,2.8,2.2c2.6-2,4.8-4,6.2-7c0.6-1.3-0.4-3.2-2-2.6
					c-4.2,1.5-7.7,3.8-10.8,7.1c-1.3,1.4,0.4,4,2.2,2.8c1.2-0.8,1.4-1,2-2.2c0.8-1.8-1.3-3.7-2.8-2.2c-1.1,1.1-1.3,1.4-1.8,2.9
					c-0.5,1.4,1.4,2.9,2.6,2c0.5-0.4,1.1-0.7,1.6-1.1c-0.8-0.8-1.6-1.6-2.5-2.5c-1.2,2.1-1.2,3.4-0.2,5.6c0.3,0.7,1.3,1,2,0.8
					c2.4-0.6,3.7-1.9,4.4-4.2c0.5-1.6-1.9-3.2-3-1.8c-2,2.5-9.7,13-4.9,15.7c4.7,2.8,8.1-8.5,8.5-11.3c0.2-1.6-1.7-3.3-3-1.8
					c-3.8,4.4-6.9,9.1-9.2,14.4c-0.8,1.9,1.2,3.5,2.8,2.2c2.2-1.8,3.4-3.8,3.9-6.6c0.3-1.4-1.3-3-2.6-2c-1.7,1.2-2.8,2.5-3.8,4.3
					c-1.1,2.1,1.7,3.6,3.1,1.8c1.5-2,2.5-4,3.4-6.3c0.6-1.7-1.9-3.1-3-1.8c-0.9,1.1-1.8,1.9-2.9,2.8c0.9,0.7,1.9,1.5,2.8,2.2
					c1.5-2.5,2.8-5.1,3.8-7.9c0.7-1.9-1.8-2.8-3-1.8c-1.3,1.1-2.2,2.1-3,3.6C71.9,46,75,47.8,76.1,45.8L76.1,45.8z"/>
			</g>
		</g>
		<g>
			<g>
				<g>
					<path d="M73.6,67.4c-7.3-6.3-3.8-21.6,0.4-28.8c5.2-8.9,18.1-14.2,28.2-14.2c0.8,0,0.8-1.2,0-1.2c-11.1,0.1-24.7,5.9-30,16.2
						c-3.9,7.6-7,22.5,0.5,29C73.3,68.7,74.1,67.9,73.6,67.4L73.6,67.4z"/>
				</g>
			</g>
			<g>
				<g>
					<path d="M129.6,68.8c7.7-6.7,4.3-22.2,0.2-30c-5.3-9.8-18.8-15.7-29.6-15.7c-0.8,0-0.8,1.2,0,1.2c9.8,0,22.6,5.3,27.8,13.8
						c4.5,7.3,8.3,23.3,0.8,29.9C128.2,68.4,129.1,69.3,129.6,68.8L129.6,68.8z"/>
				</g>
			</g>
			<g>
				<g>
					<path d="M74.1,67.2c0.3-13.8,13.4-24.4,26.6-25.6c0.8-0.1,0.8-1.3,0-1.2c-13.9,1.2-27.5,12.2-27.8,26.8
						C72.9,68,74.1,68,74.1,67.2L74.1,67.2z"/>
				</g>
			</g>
			<g>
				<g>
					<path d="M129.1,68.5c-0.3-15-14.2-27.1-28.8-28.3c-0.8-0.1-0.8,1.1,0,1.2c13.9,1.1,27.3,12.7,27.6,27.1
						C127.9,69.3,129.1,69.3,129.1,68.5L129.1,68.5z"/>
				</g>
			</g>
		</g>
		<g>
			<g>
				<path class="st0" d="M85,41.6c0.6,0.9,0.5,1.6-0.2,2.1c-0.5-0.1-1.1-0.1-1.6-0.2c-0.4-0.3-0.4-0.9-0.2-1.3
					c0.1-0.3,0.3-0.4,0.6-0.5c0.2,0,0.3,0,0.2,0c-0.1,0-0.1,0,0.1,0c-0.1,0-0.2-0.1-0.3-0.1c0.1,1.1,0.3,2.2,0.4,3.3
					c0.4-0.2,0.8-0.4,1.2-0.5c0.9-0.4,1.1-1.7,0.6-2.5c-0.6-0.9-1.5-1.1-2.5-0.6c-0.4,0.2-0.8,0.4-1.2,0.5c-0.6,0.3-0.9,1.2-0.9,1.8
					c0.1,0.8,0.6,1.2,1.3,1.5c1,0.4,2.3,0.2,3-0.6c0.9-0.9,1-2.3,0.3-3.3c-0.8-1-2.2-1.2-3.2-0.4c-1.1,0.8-1.2,2.4-0.3,3.3
					c0.6,0.7,1.9,0.7,2.5,0C85.7,43.4,85.7,42.3,85,41.6L85,41.6z"/>
			</g>
		</g>
		<g>
			<g>
				<path class="st0" d="M106,36.2c-1.2,0.1-2.4,0.2-3.5,0.3c-2.1,0.2-2.4,2.8-0.5,3.5c1,0.4,2.1,0.7,3.2,0.9
					c0.2-1.2,0.3-2.4,0.5-3.5c-0.6,0-1.2,0-1.8,0c0.3,1.1,0.6,2.2,0.9,3.4c0,0-0.1,0.1-0.1,0.1c-0.4-0.2-0.8-0.4-1.3-0.5
					c0.1,0.1,0.2,0.2,0.3,0.2c0.6-1,1.2-2,1.8-3c-2.3-0.9-4.7-1-7.1-0.5c0.3,1.2,0.6,2.3,1,3.5c3.6-0.9,7.3-1.7,10.6,0.6
					c-0.3-0.4-0.6-0.7-0.8-1.1c0,0.1,0,0.3,0.1,0.4c0.3-0.7,0.6-1.4,0.8-2c-0.3,0-0.6-0.1-0.8-0.1c-2.2-0.3-3.2,2.8-1,3.5
					c0.3,0.1,0.6,0.3,0.8,0.4c0.1-1.1,0.3-2.2,0.4-3.3c-0.1,0-0.2,0.1-0.3,0.1c-1.1,0.3-1.6,1.6-1.1,2.6c0,0,0,0.1,0.1,0.1
					c0.4,0.7,1.3,1.1,2,0.8c0,0,0.1,0,0.1,0c2.2-0.7,1.3-4.2-1-3.5c0,0-0.1,0-0.1,0c0.7,0.3,1.4,0.6,2,0.8c0,0,0-0.1-0.1-0.1
					c-0.4,0.9-0.7,1.8-1.1,2.6c0.1,0,0.2-0.1,0.3-0.1c1.6-0.4,1.7-2.5,0.4-3.3c-0.6-0.4-1-0.6-1.7-0.8c-0.3,1.2-0.6,2.3-1,3.5
					c1.3,0.2,2.4,0.3,3.6-0.3c0.8-0.4,1-1.3,0.8-2c-0.4-2.2-4.2-3-6-3.3c-2.9-0.5-5.5,0.3-8.3,0.9c-2.3,0.6-1.3,3.9,1,3.5
					c1.8-0.4,3.5-0.2,5.2,0.5c1.6,0.6,3.2-1.9,1.8-3c-1.1-0.9-2-1-3.3-0.4c-1.7,0.8-0.8,3.4,0.9,3.4c0.6,0,1.2,0,1.8,0
					c2,0,2.5-3.1,0.5-3.5c-1.1-0.2-2.1-0.5-3.2-0.9c-0.2,1.2-0.3,2.4-0.5,3.5c1.2-0.1,2.4-0.2,3.5-0.3C108.3,39.6,108.3,36,106,36.2
					L106,36.2z"/>
			</g>
		</g>
	</g>
	<g>
		<g>
			<g>
				<path class="st1" d="M72.6,58.9c-1.3-7.5,0.3-14.8,4.5-21.1c0.4-0.6-0.6-1.2-1-0.6c-4.4,6.6-6,14.2-4.6,22
					C71.6,59.9,72.7,59.6,72.6,58.9L72.6,58.9z"/>
			</g>
		</g>
		<g>
			<g>
				<path class="st1" d="M113,29.1c8.1,0.7,14.6,10.9,16.9,17.8c0.2,0.7,1.4,0.4,1.2-0.3c-2.5-7.5-9.3-17.9-18-18.7
					C112.2,27.8,112.2,29,113,29.1L113,29.1z"/>
			</g>
		</g>
		<g>
			<g>
				<path class="st1" d="M73.3,58.8c2.3-6.8,6.6-12.5,12.5-16.6c0.6-0.4,0-1.5-0.6-1C79,45.4,74.6,51.4,72.1,58.5
					C71.9,59.2,73.1,59.5,73.3,58.8L73.3,58.8z"/>
			</g>
		</g>
	</g>
</g>
</svg>
