<?xml version="1.0" encoding="utf-8"?>
<!-- Generator: Adobe Illustrator 21.0.2, SVG Export Plug-In . SVG Version: 6.00 Build 0)  -->
<svg version="1.1" id="Layer_1" xmlns="http://www.w3.org/2000/svg" xmlns:xlink="http://www.w3.org/1999/xlink" x="0px" y="0px"
	 viewBox="0 0 200 600" style="enable-background:new 0 0 200 600;" xml:space="preserve">
<style type="text/css">
	.st0{fill:#FF513B;}
	.st1{fill:#15EAFF;}
	.st2{fill:#74FFD7;}
	.st3{fill:#DF513B;}
</style>
<g>
	<g>
		<g>
			<g>
				<path class="st0" d="M69.9,267.8c2.9-0.1,5.7,0.3,8.5,1.2c2.3,0.7,4.6,1.7,7,2.2c3.8,0.7,7.6-0.3,11.4-0.3
					c1.9,0,3.9,0.2,5.8,0.4c4.9,0.5,9.8,1.1,14.7,1.6"/>
				<g>
					<path class="st1" d="M69.9,269c4.6,0.1,8.2,1.3,12.6,2.6c3.6,1.1,6.8,0.9,10.5,0.7c8.1-0.6,16.2,0.9,24.3,1.7
						c1.5,0.2,1.5-2.2,0-2.4c-8-0.9-16.2-2.3-24.3-1.7c-4.5,0.3-8.2-0.1-12.5-1.5c-3.5-1.1-6.9-1.8-10.6-1.8
						C68.3,266.6,68.3,269,69.9,269L69.9,269z"/>
				</g>
			</g>
			<g>
				<path class="st0" d="M92.5,270.9c-1.8,0-3.5-0.2-5.2-0.8c7.4,1.4,15.2,2.9,22.5,0.9c-1.8,0.1-3.5,0.1-5.3,0.2
					c2.6-0.1,5.1-0.2,7.7-0.3c-2-0.6-4-1-6.1-1.2c2.1,0.3,4.3,0.7,6.4,1c-0.2,0-0.4,0-0.6,0"/>
				<g>
					<path class="st1" d="M92.5,269.7c-1.7,0-3.3-0.2-4.9-0.7c-0.2,0.8-0.4,1.5-0.6,2.3c7.7,1.5,15.3,2.7,23.1,0.9
						c1.3-0.3,1-2.4-0.3-2.4c-1.8,0.1-3.5,0.1-5.3,0.2c-1.5,0.1-1.5,2.5,0,2.4c2.6-0.1,5.1-0.2,7.7-0.3c1.3,0,1.7-2,0.3-2.4
						c-2.1-0.6-4.2-1-6.4-1.2c-1.3-0.2-1.7,2.1-0.3,2.4c2.1,0.3,4.3,0.7,6.4,1c0.1-0.8,0.2-1.6,0.3-2.4c-0.2,0-0.4,0-0.6,0
						c-1.5,0-1.5,2.4,0,2.4c0.2,0,0.4,0,0.6,0c1.3,0,1.7-2.1,0.3-2.4c-2.1-0.3-4.3-0.7-6.4-1c-0.1,0.8-0.2,1.6-0.3,2.4
						c2,0.2,3.8,0.6,5.7,1.2c0.1-0.8,0.2-1.6,0.3-2.4c-2.6,0.1-5.1,0.2-7.7,0.3c0,0.8,0,1.6,0,2.4c1.8-0.1,3.5-0.1,5.3-0.2
						c-0.1-0.8-0.2-1.6-0.3-2.4c-7.4,1.7-14.5,0.5-21.8-0.9c-1.5-0.3-2.1,1.9-0.6,2.3c1.9,0.5,3.6,0.7,5.5,0.8
						C94.1,272.2,94.1,269.8,92.5,269.7L92.5,269.7z"/>
				</g>
			</g>
			<g>
				<path class="st0" d="M158,270.7c-0.2-0.3-0.3-0.6-0.3-0.9c0.5,1.3,1.2,2.5,2.1,3.5c-0.6-4.3-1.2-8.6-1.9-12.9
					c0.4,1.8,0.9,3.5,1.3,5.3c-1-2.5-1.5-5.2-1.5-7.8c0.2,1.6,0.4,3.1,0.6,4.7"/>
				<g>
					<path class="st2" d="M159.2,270.4c-0.1-0.3-0.2-0.6-0.3-0.9c-0.7,0.3-1.5,0.6-2.2,0.9c0.6,1.3,1.2,2.4,2.1,3.5
						c0.8,1.1,2.4,0.4,2.2-0.9c-0.6-4.3-1.2-8.6-1.9-12.9c-0.8,0.2-1.5,0.4-2.3,0.6c0.4,1.8,0.9,3.5,1.3,5.3
						c0.8-0.2,1.5-0.4,2.3-0.6c-0.9-2.5-1.4-4.9-1.5-7.5c-0.8,0-1.6,0-2.4,0c0.2,1.6,0.4,3.1,0.6,4.7c0.2,1.5,2.6,1.5,2.4,0
						c-0.2-1.6-0.4-3.1-0.6-4.7c-0.2-1.5-2.4-1.6-2.4,0c0.1,2.8,0.6,5.5,1.6,8.2c0.5,1.4,2.7,0.9,2.3-0.6c-0.4-1.8-0.9-3.5-1.3-5.3
						c-0.4-1.5-2.5-0.8-2.3,0.6c0.6,4.3,1.2,8.6,1.9,12.9c0.7-0.3,1.5-0.6,2.2-0.9c-0.8-1.1-1.5-2.3-2.1-3.5
						c-0.6-1.3-2.5-0.4-2.2,0.9c0.1,0.3,0.2,0.6,0.3,0.9C157.3,272.5,159.6,271.9,159.2,270.4L159.2,270.4z"/>
				</g>
			</g>
			<g>
				<path class="st0" d="M51.4,261.7c0-1.4,0.2-2.7,0.7-4c0.2,1.2,0.4,2.5,0.6,3.7c-0.1-2.4-0.2-4.7-0.3-7.1
					c0.4,1.4,0.8,2.8,1.2,4.2c-0.1-0.6-0.2-1.1-0.2-1.7c0.4,5.9-0.2,11.8-1.7,17.4"/>
				<g>
					<path class="st2" d="M52.6,261.7c0-1.3,0.2-2.5,0.6-3.7c-0.8,0-1.5,0-2.3,0c0.2,1.2,0.4,2.5,0.6,3.7c0.2,1.3,2.4,1,2.4-0.3
						c-0.1-2.4-0.2-4.7-0.3-7.1c-0.8,0.1-1.6,0.2-2.4,0.3c0.4,1.4,0.8,2.8,1.2,4.2c0.4,1.5,2.5,0.8,2.3-0.6
						c-0.1-0.6-0.2-1.1-0.2-1.7c-0.2-1.3-2.4-1-2.4,0.3c0.3,5.8-0.2,11.5-1.7,17.1c-0.4,1.5,1.9,2.1,2.3,0.6
						c1.5-5.8,2.1-11.7,1.8-17.7c-0.8,0.1-1.6,0.2-2.4,0.3c0.1,0.6,0.2,1.1,0.2,1.7c0.8-0.2,1.5-0.4,2.3-0.6
						c-0.4-1.4-0.8-2.8-1.2-4.2c-0.4-1.3-2.4-1.1-2.4,0.3c0.1,2.4,0.2,4.7,0.3,7.1c0.8-0.1,1.6-0.2,2.4-0.3
						c-0.2-1.2-0.4-2.5-0.6-3.7c-0.2-1.2-2-1.1-2.3,0c-0.5,1.5-0.7,2.8-0.7,4.3C50.1,263.3,52.5,263.3,52.6,261.7L52.6,261.7z"/>
				</g>
			</g>
			<g>
				<g>
					<g id="XMLID_7_">
						<g>
							<path class="st0" d="M50.3,164.6L50.3,164.6c0.4-7.4,1.3-14.7,2.8-21.9c0.4-1.7,0.7-3.5,0.5-5.2h-0.1
								c0.3-5.6,1.1-11.1,2.5-16.5c0.6-2.3,1.2-4.6,2.4-6.7c1-1.8,2.5-3.5,4.3-4.5l0.1,0.2c2.8-1.4,5.9-2.4,9-2.9
								c3.4-0.6,6.8-0.6,10.3-0.6c1.7,0,3.3,0,5-0.1v0.4c3,2.3,5.8,4.9,8.5,7.7c1.6,1.7,3.2,3.4,4.3,5.4l0.4,0.2
								c1.2-2,2.7-3.8,4.3-5.4c2.6-2.8,5.5-5.3,8.5-7.7v-0.4c1.7,0,3.3,0,5,0.1c3.4,0,6.9,0.1,10.3,0.6c3.1,0.5,6.2,1.5,9,2.9
								l0.1-0.2c1.8,1,3.3,2.6,4.3,4.4c1.2,2.1,1.8,4.4,2.4,6.7c1.3,5.4,2.2,11,2.5,16.5h-0.1c-0.2,1.7,0.2,3.5,0.6,5.2
								c1.5,7.2,2.4,14.5,2.9,21.9l-0.1,0c1,7.2,2,14.4,3,21.5c0.3,2.2,0.6,4.3,0.8,6.5c0.2,2,0.2,4.1,0.4,6.1c0.3,4.2,1,8.4,2,12.4
								l-0.1,0c0.6,13.2,1.6,26.5,3,39.6h0.1c0.4,10.3,1.3,20.6,2.5,30.8h0c-2.6,0.3-5.2,0.5-7.9,0.8c-1.6,0.2-3.3,0.3-4.8,1
								l-0.5-0.1c-0.1-1.3-0.3-2.5-0.4-3.8c-0.1-1-0.2-2-0.3-3c-0.1-1-0.2-1.9-0.3-2.9c-0.3-2.6-0.6-5.1-0.9-7.7h0
								c-0.1-1.4-0.2-2.7-0.3-4.1c-0.1-1.3-0.2-2.7-0.5-4c-0.2-1-0.5-2-0.6-3c-0.2-1.4-0.1-2.9-0.1-4.3c0-3.3-0.5-6.6-1-9.9
								c-0.2-1.2-0.4-2.5-0.6-3.7c-0.1-0.8-0.3-1.7-0.4-2.5c-0.2-1-0.4-1.9-0.6-2.9c-0.4-1.8-0.6-3.7-0.9-5.5
								c-0.8-5.7-1.5-11.3-2.3-16.9l0.6-0.1c-1.7-10.2-4.3-20.3-7.7-30.1c-0.4-1.2-0.8-2.3-1-3.5c-0.2-0.9-0.2-1.9-0.4-2.8l-0.7,0
								c-0.2,3.9-0.4,7.7-0.6,11.6c-0.2,2.9-0.3,5.8-0.5,8.6c-0.3,5.9-0.7,11.8-0.8,17.7c-0.1,5.5,0,11,0.1,16.5
								c0,2.5,0.1,5,0.1,7.5c0.1,4.8,0.2,9.7,1.6,14.2l0.1,0.7c1.6,6.8,3.3,13.7,4.9,20.5c0,0.2,0.2,0.5,0.3,0.4v0
								c-3.1,0.7-6.3,1.4-9.4,2.2c-1.7,0.4-3.4,0.8-5.2,1c-1.3,0.2-2.7,0.3-4,0.3c-4.9,0.3-9.8,0.6-14.8,0.9c-2,0.1-4.1,0.2-6.1,0.2
								c-4.2-0.2-8.3-1.2-12.5-1.3c-1.8-0.1-3.7,0-5.5,0c-4.8-0.1-9.4-1.1-14.1-2.1l0-0.6c0.2,0,0.3-0.2,0.4-0.4
								c2.1-7.3,4.3-14.6,6.4-21.9l-0.2-0.1c1.4-4.6,1.5-9.4,1.6-14.2c0-2.5,0.1-5,0.1-7.5c0.1-5.5,0.2-11,0.1-16.5
								c-0.1-5.9-0.4-11.8-0.8-17.7c-0.2-2.9-0.3-5.8-0.5-8.6c-0.2-3.9-0.4-7.7-0.6-11.6l-0.7,0c-0.2,0.9-0.3,1.9-0.4,2.8
								c-0.2,1.2-0.6,2.4-1,3.5c-3.4,9.8-6,19.9-7.7,30.1l0.6,0.1c-0.8,5.6-1.5,11.3-2.3,16.9c-0.3,1.8-0.5,3.7-0.8,5.5
								c-0.2,1-0.4,1.9-0.6,2.9c-0.2,0.8-0.3,1.7-0.4,2.5c-0.2,1.2-0.4,2.5-0.6,3.7c-0.5,3.3-1,6.6-1,9.9c0,1.4,0.1,2.9-0.1,4.3
								c-0.1,1-0.4,2-0.6,3c-0.3,1.3-0.4,2.6-0.5,4c-0.1,1.4-0.2,2.7-0.3,4.1l0,0c-0.3,2.6-0.6,5.1-0.9,7.7
								c-0.1,0.9-0.2,1.9-0.3,2.8c-0.1,1-0.2,2-0.3,3c-0.1,1.3-0.3,2.5-0.4,3.8l-0.5,0.1c-1.5-0.7-3.1-0.9-4.8-1
								c-2.6-0.3-5.2-0.5-7.8-0.8h0c1.2-10.2,2.1-20.5,2.5-30.8h0.1c1.4-13.2,2.3-26.4,3-39.6l-0.1,0c1-4.1,1.7-8.2,2-12.4
								c0.1-2,0.2-4.1,0.4-6.1c0.2-2.2,0.5-4.3,0.8-6.5C48.3,179,49.3,171.8,50.3,164.6z"/>
						</g>
						<g>
						</g>
					</g>
					<g>
						<path class="st0" d="M75.4,144c-2.7,0.9-5.9,0.3-8.1-1.6c-0.3-0.3-0.6-0.6-0.7-0.9c-0.1-0.4,0-0.8,0.3-1
							c0.4,0.5,0.2,1.2-0.1,1.7c-0.5,0.9-1.5,1.4-2.5,1.5c-1,0-2-0.5-2.6-1.3c-0.8-1.1-0.8-2.8-1.7-3.9c-0.2-0.1-0.4,0.2-0.4,0.5
							c-0.4,1.4-0.8,2.9-1.2,4.3c0.6-2.2,1.3-4.5,1.9-6.7c-0.5,1.3-0.9,2.6-1.3,4c0.1-1.4,0.4-2.7,0.9-4c-0.4,0.6-0.6,1.3-0.6,2
							c0.3-0.9,0.5-1.9,0.5-2.9c-0.4,0.6-0.6,1.3-0.8,1.9"/>
					</g>
					<g>
						<path class="st0" d="M141.6,143.4c-0.2-1.3,0.1-2.8,0.8-3.9c0.2,1.5,0.2,3.1,0,4.6c-0.2-0.1-0.4-0.3-0.4-0.5"/>
					</g>
					<g>
						<path class="st0" d="M156.3,275.6c-0.1,1.9,2,3.6,3.8,3.2c0,0.6,0.3,1.1,0.7,1.5c-0.2-3.3-0.4-6.6-1.1-9.9
							c-0.7-3.4-1.9-6.9-0.9-10.2c0.1,2.2,0.2,4.5,0.3,6.7c0-4.4-0.5-8.8-1.5-13"/>
					</g>
				</g>
				<g>
					<path class="st2" d="M50.9,232.6c0.6,2.5,0.7,5.1,0.3,7.6c-0.5,3.2-1.6,6.2-1.9,9.4"/>
					<g>
						<path class="st0" d="M45.2,234.2c1,5.1-1.2,10.3-1.8,15.3c-0.4,3.2,3,6,6,6c3.6,0,5.6-2.8,6-6c0.4-2.9,1.4-5.7,1.8-8.6
							c0.5-3.4,0.2-6.6-0.4-10C55.2,223.4,43.6,226.6,45.2,234.2L45.2,234.2z"/>
					</g>
				</g>
				<g>
					<path class="st2" d="M92.7,127.7c-2.5-1.4-5-2.9-7.2-4.8c-1.7-1.5-3.2-3.4-3.7-5.6c-0.4-2.2,0.5-4.8,2.5-5.8
						c1.6,2.3,3.6,4.3,5.9,5.8c-1.3-0.8-2.6-1.7-3.7-2.8c1.1-0.2,2.1,0.7,2.9,1.5c2.4,2.5,4.5,5.2,6.4,8"/>
					<g>
						<path class="st0" d="M95.8,122.5c-2.2-1.3-4.5-2.5-6.3-4.2c-0.6-0.5-1-1.2-1.5-1.7c-0.5-0.5,0.3-0.5-0.5,0
							c-2.7-0.7-5.5-1.4-8.2-2.2c2.3,3.2,4.8,5.7,8,7.9c2-3.5,4-6.9,6.1-10.4c-1-0.6-1.7-1.1-2.5-1.8c-1.4,3.4-2.8,6.8-4.2,10.2
							c0.3,0,0.5,0,0.8,0c-1-0.3-2-0.5-3-0.8c2.6,1.1,4.8,5,6.4,7.3c4.3,6.3,14.7,0.3,10.4-6.1c-3.4-5-7.8-12.2-14.5-12.5
							c-5-0.2-8.2,6.8-4.2,10.2c1.6,1.4,3.2,2.6,5,3.7c6.7,4.1,12.3-6,6.1-10.4c-1.4-1-2.7-2.2-3.7-3.6c-1.9-2.6-5.2-4-8.2-2.2
							c-5.2,3.3-6.9,9.6-4.3,15.2c2.4,5.4,7.7,8.6,12.7,11.5C96.4,136.7,102.5,126.3,95.8,122.5L95.8,122.5z"/>
					</g>
				</g>
				<g>
					<g>
						<path class="st0" d="M148.6,175.5c-0.6-2-1.1-3.9-1.7-5.9c-0.4-1.5-2.7-0.9-2.3,0.6c0.4,1.5,0.8,2.9,1.4,4.3
							c0.4,1,2,1.3,2.3,0c0.5-2,0.5-3.6,0.1-5.6c-0.8,0.2-1.5,0.4-2.3,0.6c0.3,0.8,0.5,1.6,0.8,2.3c0.4,1.2,2.4,1.1,2.4-0.3
							c-0.1-1.5-0.3-3-0.5-4.5c-0.2-1.5-2.5-0.9-2.3,0.6c0.1,0.7,0.2,1.5,0.3,2.2c0.2,1.3,2.5,1,2.4-0.3c-0.1-0.9-0.2-1.9-0.4-2.8
							c-0.8,0.1-1.6,0.2-2.4,0.3c0.3,1.1,0.7,2.3,1,3.4c0.5,1.5,2.5,0.9,2.3-0.6c-0.1-0.9-0.3-1.9-0.4-2.8c-0.8,0.2-1.5,0.4-2.3,0.6
							c0.1,0.7,0.2,1.3,0.4,2c0.3,1.3,2.4,1,2.4-0.3c0-1.2-0.1-1.7-0.3-2.9c-0.8,0.2-1.5,0.4-2.3,0.6c0.1,1,0.4,2,0.8,3
							c0.4,1.2,2.5,1.1,2.4-0.3c-0.4-3.1-0.7-6.1-1.1-9.2c-0.8,0.1-1.6,0.2-2.4,0.3c0.3,1.1,0.6,2.3,0.9,3.4
							c0.3,1.3,2.5,1.1,2.4-0.3c-1-9.6-2.6-19.1-4.5-28.5c-0.3-1.5-2.5-0.9-2.3,0.6c0.4,2.8,0.9,5.6,1.3,8.3c0.2,1.2,2,1.1,2.3,0
							c1.4-5.3-0.9-11.5-1.9-16.7c-0.3-1.4-2.3-1-2.4,0.3c-0.2,8.1,1,15.6,2.7,23.4c1,4.8,1.8,9.5,1.6,14.5c-0.1,3.7-0.4,7,1,10.6
							c0.5,1.2,2.3,1.1,2.4-0.3c0.1-1.6,0.1-3.3,0.2-4.9c-0.8,0.1-1.6,0.2-2.4,0.3c2.3,8,2.5,16.1,3.4,24.3c0.8,7.3,3.3,14,2.5,21.4
							c-0.2,1.5,2.2,1.5,2.4,0c0.9-8-1.8-15.3-2.7-23.2c-0.8-7.8-1.2-15.6-3.3-23.2c-0.4-1.3-2.3-1-2.4,0.3
							c-0.1,1.6-0.1,3.3-0.2,4.9c0.8-0.1,1.6-0.2,2.4-0.3c-1.6-4.2-0.8-8.3-0.8-12.6c-0.1-3.6-0.7-7.1-1.4-10.6
							c-1.7-8.3-3.2-16.2-3-24.7c-0.8,0.1-1.6,0.2-2.4,0.3c0.9,4.7,3.2,10.8,1.9,15.4c0.8,0,1.5,0,2.3,0c-0.4-2.8-0.9-5.6-1.3-8.3
							c-0.8,0.2-1.5,0.4-2.3,0.6c1.9,9.2,3.4,18.5,4.5,27.9c0.8-0.1,1.6-0.2,2.4-0.3c-0.3-1.1-0.6-2.3-0.9-3.4
							c-0.3-1.3-2.5-1.1-2.4,0.3c0.4,3.1,0.7,6.1,1.1,9.2c0.8-0.1,1.6-0.2,2.4-0.3c-0.4-1-0.7-2-0.8-3c-0.3-1.5-2.5-0.9-2.3,0.6
							c0.1,0.8,0.1,1.5,0.2,2.3c0.8-0.1,1.6-0.2,2.4-0.3c-0.1-0.7-0.2-1.3-0.4-2c-0.3-1.5-2.5-0.9-2.3,0.6c0.1,0.9,0.3,1.9,0.4,2.8
							c0.8-0.2,1.5-0.4,2.3-0.6c-0.3-1.1-0.7-2.3-1-3.4c-0.4-1.2-2.5-1.1-2.4,0.3c0.1,0.9,0.2,1.9,0.4,2.8c0.8-0.1,1.6-0.2,2.4-0.3
							c-0.1-0.7-0.2-1.5-0.3-2.2c-0.8,0.2-1.5,0.4-2.3,0.6c0.2,1.3,0.4,2.6,0.4,3.9c0.8-0.1,1.6-0.2,2.4-0.3
							c-0.3-0.8-0.5-1.6-0.8-2.3c-0.5-1.5-2.6-0.9-2.3,0.6c0,1.4-0.1,2.9-0.1,4.3c0.8,0,1.5,0,2.3,0c-0.5-1.4-1-2.8-1.4-4.3
							c-0.8,0.2-1.5,0.4-2.3,0.6c0.6,2,1.1,3.9,1.7,5.9C146.7,177.6,149,176.9,148.6,175.5L148.6,175.5z"/>
					</g>
				</g>
				<g>
					<g>
						<path class="st0" d="M157.8,265.3c0.7-2.5,0.7-4.8,0.2-7.4c-0.7,0.3-1.5,0.6-2.2,0.9c0.8,1.7,1.1,3.2,1.5,5
							c0.3,1.4,2.3,1,2.4-0.3c0.3-4.4-1.2-8.4-1.3-12.8c-0.8,0.1-1.6,0.2-2.4,0.3c0.5,1.8,0.9,3.5,1.2,5.3c0.8-0.2,1.5-0.4,2.3-0.6
							c-0.7-2.9-1-5.7-1-8.6c-0.8,0.1-1.6,0.2-2.4,0.3c0.4,1.5,0.9,2.9,1.3,4.4c0.8-0.2,1.5-0.4,2.3-0.6c-2-6.3-2.4-13.3-3.4-19.9
							c-0.2-1.3-2.4-1-2.4,0.3c0.1,2.7,0.5,5.1,1.3,7.7c0.4,1.3,2.5,1.1,2.4-0.3c-0.3-3.9-0.4-7.8-0.8-11.8c-0.3-3.4-1.2-6.6-1.2-10
							c-0.8,0.1-1.6,0.2-2.4,0.3c0.3,1.8,0.6,3.6,0.9,5.3c0.2,1.2,2,1,2.3,0c0.4-1.2,0.4-1.3,0.5-2.6c0.1-1.5-2.3-1.5-2.4,0
							c-0.1,0.6-0.3,1.3-0.4,1.9c0.8,0,1.5,0,2.3,0c-0.3-1.8-0.6-3.6-0.9-5.3c-0.2-1.4-2.3-1-2.4,0.3c0,3.5,0.8,6.6,1.2,10
							c0.4,3.9,0.5,7.8,0.8,11.8c0.8-0.1,1.6-0.2,2.4-0.3c-0.7-2.3-1.1-4.6-1.2-7.1c-0.8,0.1-1.6,0.2-2.4,0.3
							c0.9,6.6,1.3,13.5,3.4,19.9c0.5,1.5,2.8,0.9,2.3-0.6c-0.4-1.5-0.9-2.9-1.3-4.4c-0.4-1.3-2.4-1.1-2.4,0.3
							c0,3.2,0.4,6.2,1.1,9.3c0.4,1.5,2.6,0.9,2.3-0.6c-0.3-1.8-0.7-3.5-1.2-5.3c-0.4-1.3-2.4-1.1-2.4,0.3c0.1,4.3,1.6,8.4,1.3,12.8
							c0.8-0.1,1.6-0.2,2.4-0.3c-0.4-2-0.9-3.8-1.7-5.6c-0.6-1.3-2.4-0.3-2.2,0.9c0.5,2,0.5,4.1-0.2,6.1
							C155.1,266.2,157.4,266.8,157.8,265.3L157.8,265.3z"/>
					</g>
				</g>
				<g>
					<path class="st2" d="M55,233.4c-0.1-1.7,0-3.4,0.5-5c0.2,1.3,0.4,2.6,0.5,3.9c0.1-1,0.1-2,0.2-3c0.2,0.5,0.4,1.1,0.6,1.6
						c0.3-4.8,0.6-9.6,0.8-14.4c0.2-3.9,0.5-7.8,1.6-11.5c-0.3,2.1-0.2,4.2,0.2,6.2c0.2-3.1,0.7-6.1,1.3-9.1"/>
					<g>
						<path class="st0" d="M56.2,233.4c-0.1-1.6,0-3.1,0.4-4.7c-0.8,0-1.5,0-2.3,0c0.2,1.3,0.4,2.6,0.5,3.9c0.2,1.4,2.3,1,2.4-0.3
							c0.1-1,0.1-2,0.2-3c-0.8,0.1-1.6,0.2-2.4,0.3c0.2,0.5,0.4,1.1,0.6,1.6c0.5,1.3,2.3,1.1,2.4-0.3c0.5-8.4,0.2-17.4,2.4-25.6
							c-0.8-0.1-1.6-0.2-2.4-0.3c-0.2,2.2-0.1,4.3,0.2,6.5c0.2,1.4,2.2,0.9,2.4-0.3c0.3-3,0.7-5.9,1.3-8.8c0.3-1.5-2-2.2-2.3-0.6
							c-0.6,3.1-1.1,6.3-1.4,9.4c0.8-0.1,1.6-0.2,2.4-0.3c-0.3-2.1-0.3-3.8-0.1-5.9c0.1-1.4-2-1.6-2.4-0.3
							c-2.2,8.4-1.9,17.5-2.4,26.2c0.8-0.1,1.6-0.2,2.4-0.3c-0.2-0.5-0.4-1.1-0.6-1.6c-0.5-1.3-2.3-1.1-2.4,0.3c-0.1,1-0.1,2-0.2,3
							c0.8-0.1,1.6-0.2,2.4-0.3c-0.2-1.3-0.4-2.6-0.5-3.9c-0.2-1.2-2.1-1.1-2.3,0c-0.4,1.8-0.6,3.4-0.5,5.3
							C53.8,234.9,56.2,234.9,56.2,233.4L56.2,233.4z"/>
					</g>
				</g>
				<g>
					<g>
						<path class="st0" d="M138.4,132.4c0.1,0,0.2,0.1,0.3,0.1c0.4,0.1,0.9,0,1.2-0.3c0.9-1,1-2.3,1.3-3.6c-0.7,0.1-1.5,0.2-2.2,0.3
							c0.7,0.9,1.4,1.9,2,2.8c0.5,0.6,1.7,0.9,2.1,0c1.1-2.6,1.2-4.8,1.1-7.6c-0.7,0.2-1.5,0.4-2.2,0.6c0.4,1.3,0.7,2.7,1.1,4
							c0.1,1.5,2.4,1.6,2.4,0c0-6.3-2.1-11.8-6.2-16.6c-0.5,0.6-1,1.3-1.5,1.9c0.7,0.2,1.3,0.6,1.9,1.1c0.3-0.7,0.6-1.5,0.9-2.2
							c-1.9-0.8-3.8-1.6-5.6-2.4c0,0.7,0,1.4,0,2.1c0.5,0,0.9-0.1,1.4-0.1c1.1,0.2,2.1-1.1,1.2-2c-2.7-2.6-7.2-2.8-10.7-3.3
							c-4.5-0.6-8.8,0-13.2-0.5c0.2,0.7,0.4,1.5,0.6,2.2c3.8-2.7,14.2-0.8,17.4,2.2c1.1,1.1,2.8-0.6,1.7-1.7
							c-2.6-2.5-6.3-2.9-9.7-3.4c-3.4-0.5-7.6-1.3-10.6,0.8c-1,0.7-0.6,2.1,0.6,2.2c3.1,0.3,6.1-0.3,9.3-0.1
							c3.5,0.3,10.3,0.6,13,3.1c0.4-0.7,0.8-1.3,1.2-2c-1.6-0.3-1.8-0.3-3.2,0.3c-0.8,0.3-0.8,1.7,0,2.1c2.1,0.9,4.1,1.8,6.2,2.7
							c1.3,0.5,1.9-1.5,0.9-2.2c-0.6-0.5-1.2-0.8-1.9-1.1c-1.2-0.5-2.4,0.8-1.5,1.9c3.6,4.3,5.4,9.3,5.5,14.9c0.8,0,1.6,0,2.4,0
							c-0.1-2-0.5-3.4-1.4-5.2c-0.5-1-2.3-0.6-2.2,0.6c0.1,2.3,0.3,4.1-0.8,6.4c0.7,0,1.4,0,2.1,0c-0.7-0.9-1.4-1.9-2-2.8
							c-0.6-0.8-1.9-0.8-2.2,0.3c-0.6,0.8-0.5,1.6,0.2,2.2C137.6,129.5,136.9,131.9,138.4,132.4L138.4,132.4z"/>
					</g>
				</g>
				<g>
					<g>
						<path class="st0" d="M69.1,116.2c0.5-3.6,1.8-6.6,5.6-7.3c1.4-0.2,1-2.3-0.3-2.4c-1.5,0-2.8,0.2-4.2,0.6
							c0.4,0.7,0.8,1.3,1.2,2c1.4-1.5,5-1.4,6.8-1.4c2.2-0.1,4.4,0.1,6.6,0.4c1.5,0.2,2.2-2.1,0.6-2.3c-3.3-0.5-6.5-0.7-9.8-0.3
							c-2.1,0.2-4.4,0.4-6,2c-0.8,0.8,0,2.4,1.2,2c1.2-0.4,2.3-0.5,3.5-0.5c-0.1-0.8-0.2-1.6-0.3-2.4c-4.7,0.9-6.7,4.3-7.3,8.9
							C66.6,117.1,68.9,117.7,69.1,116.2L69.1,116.2z"/>
					</g>
				</g>
			</g>
		</g>
		<g>
			<g>
				<g>
					<g>
						<path class="st3" d="M64.9,267c4.2,2,9.1,2.2,13.7,2.7c6.5,0.8,13,1.2,19.6,1.4c5.2,0.2,10.5,0.2,15.7-0.5
							c6.3-0.9,12.2-3.2,18.5-4.1c1.5-0.2,0.9-2.5-0.6-2.3c-5.2,0.7-9.9,2.3-15,3.5c-5.4,1.2-11,1.2-16.5,1.1
							c-5.2-0.1-10.5-0.4-15.7-0.9c-5.8-0.5-12.9-0.5-18.3-3C64.7,264.3,63.5,266.4,64.9,267L64.9,267z"/>
					</g>
				</g>
				<g>
					<g>
						<path class="st3" d="M68.4,271.3c1.4-0.3,1.9-1.5,1.4-2.7c-0.2-0.5-0.6-0.9-1.2-0.9c-0.8,0.1-1,0.1-1.6,0.6
							c-1.6,1.5,1,1.4,1,1.4c-0.7,0.3-1.4,0.6-2,0.8c0,0,0.1-2-0.8-1.2c0,0-1.5,0.2-1.2,0.2c0.5,0.6,0.9,1.2,1.4,1.8
							c1.5-2.3,4.1-0.8,6.2-0.2c2.6,0.8,5.3,1,8,1.1c-0.1-0.8-0.2-1.6-0.3-2.4c-4.3,0.7-8.2,0.6-12.4-0.5c-1.2-0.3-2,1.1-1.2,2
							c1.7,1.8,3.5,2,5.9,2.1c4.8,0.3,9.6,0.3,14.4,0.3c1.2,0,1.7-1.7,0.6-2.2c-1.7-0.9-3.4-1.6-5.2-2.2c-0.2,0.8-0.4,1.5-0.6,2.3
							c3.2,0.8,6.5,1.7,9.7,2.5c0.2-0.8,0.4-1.5,0.6-2.3c-1.3-0.2-2.6-0.6-3.8-1.3c-0.3,0.7-0.6,1.5-0.9,2.2c1.4,0.3,2.6,0.6,4,1.1
							c0.1-0.8,0.2-1.6,0.3-2.4c-1.4,0-2.8,0-4.2-0.1c-1.4-0.1-1.5,1.9-0.3,2.4c1.6,0.6,3,1,4.6,1.4c1.5,0.3,2.1-1.8,0.6-2.3
							c-1-0.3-2-0.6-3.1-1c-1.5-0.5-2.1,1.8-0.6,2.3c3.6,1.3,6.8,2.2,10.6,1.8c1.1-0.1,1.7-1.6,0.6-2.2c-2.5-1.3-4.9-2.3-7.6-3
							c-0.1,0.8-0.2,1.6-0.3,2.4c1.7-0.2,3.3,0,4.9,0.6c0-0.8,0-1.5,0-2.3c-0.4,0.1-0.7,0.2-1.1,0.4c-1,0.3-1.2,2.1,0,2.3
							c2.1,0.4,4.2,0.8,6.3,1.2c0-0.8,0-1.5,0-2.3c-1.1,0.2-2.2,0.4-3.2,0.6c-1.3,0.3-1,2.4,0.3,2.4c9-0.1,17.6-0.9,26.3-3.4
							c2.4-0.7,11.1-2,7.6-6.3c-0.9-1.1-2.4,0.3-1.9,1.5c0.3,0.6,0.6,1.1,0.8,1.7c0.4,0.9,2,0.7,2.2-0.3c0.1-0.5,0.2-1,0.2-1.5
							c-0.6,0.2-1.2,0.5-1.8,0.7c-0.1-0.3-0.2-0.7-0.4-1c0.8,0.1,1.6,0.2,2.4,0.3c0-0.4,0-0.7,0-1.1c-0.8,0.1-1.6,0.2-2.4,0.3
							c0.9,3.4-10.2,4.6-12.3,5.1c-1.2,0.3-1.1,2,0,2.3c4.8,1.4,8.8-2.3,12-5.4c1-0.9-0.1-2.2-1.2-2c-10.5,1.4-21.2,6.5-32,4
							c-1.5-0.3-2.1,2-0.6,2.3c3.4,0.8,6.7,1.6,10.1,2.4c0.2-0.8,0.4-1.5,0.6-2.3c-2.5-0.6-5.1-1.1-7.6-1.7
							c-0.1,0.8-0.2,1.6-0.3,2.4c7-0.2,14.1,0.2,21-1.1c3.7-0.7,11-2.5,13-6.2c0.4-0.7,0-1.5-0.7-1.8c-0.1,0-0.1,0-0.2-0.1
							c-0.6-0.3-1.3,0.3-1.5,0.8c-0.8,2.1,1.6,3.2-1.6,4c-1.5,0.4-0.9,2.7,0.6,2.3c1.1-0.3,2.9-0.4,3.7-1.4c1.2-1.6-0.9-2.7-0.4-4.2
							c-0.5,0.3-1,0.6-1.5,0.8c0.1,0,0.1,0,0.2,0.1c-0.2-0.6-0.5-1.2-0.7-1.8c-2.1,3.9-11.2,5.2-15.1,5.6
							c-5.6,0.6-11.2,0.3-16.9,0.5c-1.3,0-1.7,2-0.3,2.4c2.5,0.6,5.1,1.1,7.6,1.7c1.5,0.3,2.1-2,0.6-2.3c-3.4-0.8-6.7-1.6-10.1-2.4
							c-0.2,0.8-0.4,1.5-0.6,2.3c11.3,2.6,22.3-2.5,33.3-4c-0.4-0.7-0.8-1.3-1.2-2c-2.5,2.3-5.9,5.9-9.7,4.8c0,0.8,0,1.5,0,2.3
							c4.4-1,8.8-2,13.2-3c0.4-0.1,0.7-0.4,0.8-0.8c0.4-1.5,0.4-2.7,0-4.2c-0.3-1.3-2.4-1-2.4,0.3c0,0.4,0,0.7,0,1.1
							c0,1.4,1.9,1.6,2.4,0.3c0-0.1,0-0.1,0.1-0.2c0.2-0.5-0.1-1.1-0.6-1.4c-0.1,0-0.2-0.1-0.3-0.1c-0.6-0.3-1.6-0.1-1.8,0.7
							c-0.1,0.5-0.2,1-0.2,1.5c0.7-0.1,1.5-0.2,2.2-0.3c-0.3-0.6-0.6-1.1-0.8-1.7c-0.6,0.5-1.3,1-1.9,1.5c0,0-13,4-14.4,4.3
							c-5.9,1.1-11.9,1.2-17.8,1.3c0.1,0.8,0.2,1.6,0.3,2.4c1.1-0.2,2.2-0.4,3.2-0.6c1.1-0.2,1.1-2.1,0-2.3
							c-2.1-0.4-4.2-0.8-6.3-1.2c0,0.8,0,1.5,0,2.3c0.4-0.1,0.7-0.2,1.1-0.4c1.1-0.4,1.2-2,0-2.3c-1.9-0.5-3.5-0.7-5.5-0.6
							c-1.3,0-1.7,2-0.3,2.4c2.5,0.6,4.8,1.5,7,2.7c0.2-0.7,0.4-1.5,0.6-2.2c-3.6,0.3-6.6-0.6-9.9-1.7c-0.2,0.8-0.4,1.5-0.6,2.3
							c1,0.3,2,0.6,3.1,1c0.2-0.8,0.4-1.5,0.6-2.3c-1.6-0.3-3.1-0.8-4.6-1.4c-0.1,0.8-0.2,1.6-0.3,2.4c1.4,0.1,2.8,0.1,4.2,0.1
							c1.4,0,1.5-1.9,0.3-2.4c-1.3-0.5-2.5-0.9-4-1.1c-1.2-0.2-2.3,1.6-0.9,2.2c1.5,0.7,2.8,1.2,4.4,1.5c1.5,0.3,2.1-1.9,0.6-2.3
							c-3.2-0.8-6.5-1.7-9.7-2.5c-1.5-0.4-2.1,1.8-0.6,2.3c1.6,0.5,3.1,1.1,4.6,1.9c0.2-0.7,0.4-1.5,0.6-2.2c-2.9,0-5.8,0-8.7-0.1
							c-2.7-0.1-8,0.6-10-1.6c-0.4,0.7-0.8,1.3-1.2,2c4.6,1.1,9,1.3,13.7,0.5c1.4-0.2,1-2.3-0.3-2.4c-2.8,0-5.6-0.4-8.2-1.2
							c0,0-3.9-1.8-4.8-1.7c-2.4,0.2-2.2,1.6-3.3,3.3c-0.6,0.9,0.4,2,1.4,1.8c0.9-0.2,1.8,0.4,2.8,0.1c0.4-0.1,0.7-0.4,0.8-0.8
							c0.1-0.2,0.1-0.5,0.2-0.7c0.1-0.4,0-0.9-0.3-1.2c-0.1-0.1-0.3-0.3-0.4-0.4c-0.7-0.7-2.1-0.2-2,0.8c0,1.1,0.6,2.2,1.9,2.1
							c1.6-0.2,2.3-3.3,0.2-2.8C66.2,269.3,66.9,271.6,68.4,271.3L68.4,271.3z"/>
					</g>
				</g>
			</g>
			<g>
				<g>
					<path class="st3" d="M42.1,278.4c-0.2,0-1.3,0.4-1.4,0.3c0.2,0.2,0.3-0.3,0.4-0.6c0.4-1.2,0-1.4,1.6-1.3c1.2,0,2.5,0.3,3.7,0.4
						c1.4,0.2,3.3,0.1,4.7,0.7c-0.3-0.3-0.6-0.6-0.8-0.8c0.1,0.7,0,2.6-0.3,3.2c0.2,0,0.3,0,0.5,0.1c-0.6,0-1.2,0-1.8-0.1
						c-1.1-0.1-2.2-0.2-3.3-0.4c-0.6-0.1-1.2-0.2-1.8-0.3c-1.2,0.1-1.3-0.4-0.1-1.3c0.2,0.3,0.4,0.7,0.6,1c0.4,0.4,0.5,0.4,0.4,0
						c0.3-0.3,0.6-0.6,0.8-0.8c0.2,0,0.3,0.1,0.5,0.1c0,0.4,0,0.8,0,1.2c0.1,0,0.2,0,0.4,0.1c-0.1-0.4-0.2-0.8-0.3-1.2
						c0,0.1,0,0.2-0.1,0.4c0.4-0.3,0.8-0.6,1.2-0.9c-0.2-0.1-0.5-0.2-0.7-0.3c0.1,0.4,0.2,0.8,0.3,1.2c0.6,0.1,1.1,0.2,1.7,0.3
						c0.8,0,1.5,0,2.3,0c-0.4,0-0.9,0-1.3,0c0.5-0.5,1-1,1.5-1.5c0,0,0,0,0,0c0.1,0.5,0.1,1,0.2,1.5c0-0.1,0.1-0.2,0.1-0.3
						c-0.5,0.2-0.9,0.4-1.4,0.6c0.1,0,0.1,0,0.2,0.1c1.5,0.4,2.1-1.9,0.6-2.3c-0.1,0-0.1,0-0.2-0.1c-0.5-0.1-1.1,0.1-1.4,0.6
						c0,0.1-0.1,0.2-0.1,0.3c-0.3,0.5-0.2,1.1,0.2,1.5c0.3,0.3,0.6,0.5,1.1,0.6c0.9,0.3,1.7-0.6,1.5-1.5c-0.6-2.6-4.3-1.3-3.3,1.2
						c0.4,1.1,2,1.2,2.3,0c0.5-2-1.6-3.6-3.5-2.5c-1.6,1-1.3,3.7,0.7,3.9c2,0.2,2.7-2.4,1.4-3.7c-1.3-1.3-4.3-1.1-5,0.7
						c-0.2,0.4,0,0.9,0.3,1.2c0.6,0.7,1.6,1.1,2.4,1c0.5,0,1.1-0.4,1.2-0.9c0.5-3.5-5.6-2.9-4.4,0.1c1.1,2.8,5.1-0.5,2.1-2.3
						c-1.2-0.7-3-0.8-3.8,0.3c-0.8,1-0.4,2.5,0.9,2.9c3.4,0.9,3.1-5.2-0.4-5.1c-3.4,0-2.4,5.1,0.9,4.3c2.9-0.7,0.3-4.7-2.3-3.1
						c-1.1,0.7-1.9,2.3-1.2,3.5c1,1.9,4.9,1.8,6.6,2.1c1.3,0.2,3.8,0.9,5.1,0c0.5-0.4,0.5-0.8,0.7-1.4c0.3-1.1,0.6-3.1,0.4-4.2
						c-0.4-2.1-3.7-1.7-5.3-1.8c-1.8-0.2-3.7-0.6-5.6-0.7c-0.9,0-1.8,0-2.4,0.7c-0.6,0.7-0.4,1.5-0.6,2.3c-0.2,0.8-0.8,1.4-0.6,2.3
						c0.4,2.4,3,1.4,4.6,1.1C44.2,280.4,43.6,278.1,42.1,278.4L42.1,278.4z"/>
				</g>
			</g>
			<g>
				<g>
					<path class="st3" d="M149.7,281.9c-0.1-1.3-0.5-2.9-0.3-4.2c0.1-0.6,0,0,0.7,0.2c0.5,0.2,1.9-0.1,2.4-0.2
						c2.5-0.2,5.5-1.1,8-0.9c-0.3-0.2-0.7-0.4-1-0.6c0.4,0.8,0.5,2.4,0.4,3.3c0.2-0.3,0.4-0.7,0.6-1c-1.7,1-4.9,0.6-6.9,0.8
						c-0.5,0.1-2.7,0.1-2.6,0.9c0-0.1,2-0.4,2.1-0.4c1-0.2,2-0.3,3-0.5c0.2,0,3.3-0.7,1.9-0.1c-1.7,0.8-4.5,0.8-6.4,1.2
						c-1.5,0.3-0.9,2.6,0.6,2.3c1.8-0.3,11.4-0.9,8.6-5.1c-1-1.5-2.9-1-4.4-0.8c-1.9,0.3-5.5,0.2-7.1,1.5c-0.9,0.8-0.9,2.1,0,3
						c1.5,1.5,4.8,0.2,6.7,0.1c1.5-0.1,5.2,0.2,6.2-1.4c0.7-1.2-0.1-4-0.6-5.1c-0.2-0.4-0.6-0.6-1-0.6c-1.9-0.2-4.2,0.5-6.1,0.7
						c-1.9,0.2-4.1,0-5.9,0.5c-2.6,0.6-1.3,4.4-1.1,6.2C147.4,283.4,149.8,283.4,149.7,281.9L149.7,281.9z"/>
				</g>
			</g>
		</g>
		<g>
			<path d="M101.4,271.2c-3.2,0.1-6.4,0.3-9.5,0.5c1.3-0.3,2.6-0.3,3.9-0.3c-2.4-0.2-4.8-0.3-7.2-0.2c1.4-0.2,2.8-0.2,4.2-0.2
				c-2.1,0-4.3,0-6.4,0c3.9-1,8.1-0.6,12.1-0.5c5.8,0.2,11.6,0,17.4-0.6"/>
			<g>
				<path class="st3" d="M101.4,270c-3.2,0.1-6.4,0.3-9.5,0.5c0,0.8,0,1.6,0,2.4c1.3-0.3,2.6-0.3,3.9-0.3c1.6,0,1.5-2.3,0-2.4
					c-2.4-0.2-4.8-0.2-7.2-0.2c0,0.8,0,1.6,0,2.4c1.4-0.1,2.8-0.2,4.2-0.2c0-0.8,0-1.6,0-2.4c-2.1,0-4.3,0-6.4,0
					c0.1,0.8,0.2,1.6,0.3,2.4c4.9-1,9.8-0.4,14.7-0.4c4.8,0.1,9.7-0.2,14.5-0.7c1.5-0.2,1.5-2.6,0-2.4c-5.5,0.6-10.9,0.8-16.4,0.7
					c-4.5-0.1-8.9-0.4-13.4,0.5c-1.3,0.3-1,2.3,0.3,2.4c2.1,0,4.3,0,6.4,0c1.5,0,1.5-2.4,0-2.4c-1.4,0-2.8,0-4.2,0.2
					c-1.5,0.1-1.6,2.5,0,2.4c2.4-0.1,4.8,0,7.2,0.2c0-0.8,0-1.6,0-2.4c-1.3-0.1-2.6,0-3.9,0.3c-1.5,0.2-1.6,2.5,0,2.4
					c3.2-0.2,6.4-0.4,9.5-0.5C102.9,272.4,102.9,270,101.4,270L101.4,270z"/>
			</g>
		</g>
		<g>
			<g>
				<path class="st3" d="M111.5,274.9c2.1-0.2,4-0.6,6-1.3c-0.5-0.6-0.9-1.2-1.4-1.8c-0.1,0-0.2,0.1-0.3,0.1
					c0.1,0.8,0.2,1.6,0.3,2.4c0.6-0.2,1.1-0.2,1.7-0.2c-0.2-0.7-0.4-1.5-0.6-2.2c-0.5,0.2-0.9,0.3-1.4,0.4c0.2,0.8,0.4,1.5,0.6,2.3
					c0.6-0.1,1.2-0.3,1.8-0.5c1.4-0.5,0.9-2.7-0.6-2.3c-1.4,0.3-2.7,0.5-4.1,0.6c-1.5,0.1-1.5,2.5,0,2.4c1.6-0.1,3.2-0.3,4.8-0.7
					c-0.2-0.8-0.4-1.5-0.6-2.3c-0.6,0.2-1.2,0.4-1.8,0.5c-1.5,0.3-0.9,2.6,0.6,2.3c0.7-0.1,1.3-0.4,1.9-0.7c1.1-0.6,0.5-2.2-0.6-2.2
					c-0.8,0-1.6,0-2.3,0.2c-1.4,0.4-0.9,2.2,0.3,2.4c1,0.1,1.9-0.4,2.4-1.3c0.4-0.9-0.3-2.1-1.4-1.8c-1.7,0.6-3.5,1-5.4,1.2
					C110,272.6,110,275,111.5,274.9L111.5,274.9z"/>
			</g>
		</g>
		<g>
			<g>
				<path class="st0" d="M67.9,139.7c-1.2,1.1-2.8,1.9-3.9,3c-0.5,0.3-0.9,0.5-1.4,0.8c2.1,2.9,2.8,3.5,2.2,1.7
					c-0.7-5.3-8.2-8.9-11.2-3c-0.2,0.4-0.4,0.8-0.6,1.3c3.5,0,6.9,0,10.4,0c0.7,1.6,0.6-0.4,0.7-1.1c0.3-1.2,0.3-2.5,0.5-3.8
					c0.4-2.8,0.7-5.6,1.2-8.4c0.5-3.1,2-10.9,6-11.1c7.7-0.3,7.7-12.3,0-12c-8.8,0.4-14.4,7.4-16.8,15.5c-1.4,4.7-1.6,9.8-2.3,14.6
					c-0.6,4.3-1.7,8.1,0.2,12.3c1.9,4,8.4,3.8,10.4,0c0.2-0.4,0.4-0.8,0.6-1.3c-3.7-1-7.5-2-11.2-3c0.6,5,2.6,10.1,8.4,10.6
					c5.6,0.6,11.3-4.1,15.2-7.7C82.1,143,73.6,134.5,67.9,139.7L67.9,139.7z"/>
			</g>
		</g>
		<g>
			<g>
				<path class="st0" d="M116.4,122.6c-0.4-1.1-0.3-1.7,0.2-3.1c0.1-0.1,1.1-2.4,1.2-2.4c-1,0.8-1,0.9,0,0.4
					c0.3-0.2,0.6-0.4,0.9-0.5c-1,0.3-2,0.5-3,0.8c0.2,0,0.4,0,0.5-0.1c-1-0.3-2-0.5-3-0.8c0.2,0.1,0.3,0.2,0.5,0.2
					c2.9,1.5,6.5,0.7,8.2-2.2c1.6-2.7,0.7-6.7-2.2-8.2c-4.9-2.5-10.3,0.5-12.7,5c-2.3,4.3-3.8,9.1-2.2,13.9c1,3.1,4.1,5.1,7.4,4.2
					C115.3,129.1,117.5,125.7,116.4,122.6L116.4,122.6z"/>
			</g>
		</g>
		<g>
			<g>
				<path class="st0" d="M83.4,154.6c-1.3,5.5-4.4,8-9.1,10.5c-2,1.1-3.7,2.4-4.5,4.7c-1.1,3.2,1.3,5.1,1.1,8c3.7-1,7.5-2,11.2-3
					c-0.1-0.4-0.2-0.7-0.3-1.1c-1-6.6-12.6-5.1-11.8,1.6c0.2,1.8,0.4,3.6,0.7,5.4c3.7-1,7.5-2,11.2-3c-0.1,0-0.2-0.1-0.3-0.1
					c-1.2-2.8-3.4-4.7-6.6-4.3c-2.7,0.4-5.5,2.9-5.2,5.9c0.7,6.9,1.3,13.8,1.8,20.8c3.9-0.5,7.9-1.1,11.8-1.6
					c-0.4-1.2-1-2.4-0.6-3.7c-1.4,1.4-2.8,2.8-4.2,4.2c-3,1.1-1.6-1-1.1,1.3c0.3,1.2,0.8,2.5,1.1,3.7c0.7,3,1.1,6.1,1.3,9.2
					c0.1,1.1-0.1,2.6,0.2,3.7c-0.6,1.9,0.2,2.6,2.2,2.1c1.8,0.9,2.5,0.8,2-0.2c0.2-0.7-0.9-2.6-1.2-3.5c-0.4-1.6-0.5-3-0.3-4.7
					c-3.9,0.5-7.9,1.1-11.8,1.6c1,3.2,1.4,6.2,0.8,9.5c3.9,0,7.7,0,11.6,0c-0.2-0.9-0.3-1.9-0.5-2.8c-1.2-6.6-12.3-5.1-11.8,1.6
					c0.5,7.2,3.1,17.6-0.1,24.3c3.7,1,7.5,2,11.2,3c-0.2-2.7,0-5.1,1.8-7.2c4.9-5.9-3.5-14.4-8.5-8.5c-3.8,4.6-5.9,9.7-5.3,15.7
					c0.5,5.3,8.4,8.9,11.2,3c4.5-9.5,2.5-20.2,1.7-30.4c-3.9,0.5-7.9,1.1-11.8,1.6c0.2,0.9,0.3,1.9,0.5,2.8c1,5.7,10.5,5.7,11.6,0
					c1-5.4,0.9-10.6-0.8-15.8c-2.2-6.7-11.1-5-11.8,1.6c-0.7,7,2.4,18.4,10.3,19.9c11.3,2.2,11.3-11.9,10.7-19.2
					c-0.6-7.7-1.6-18.6-9.1-23c-3.3-1.9-7.9-2.1-10.4,1.1c-2.6,3.4-1.9,8.4-0.5,12.1c2.2,5.9,12.3,5.6,11.8-1.6
					c-0.5-6.9-1.1-13.8-1.8-20.8c-3.9,0.5-7.9,1.1-11.8,1.6c0.4,1.1,0.8,2.1,1.5,3c3,4.3,12,3.5,11.2-3c-0.2-1.8-0.4-3.6-0.7-5.4
					c-3.9,0.5-7.9,1.1-11.8,1.6c0.2,1.6,0.7,2.6,1.5,4c3.1,5.4,10.8,2.7,11.2-3c0.2-3.2-0.7-5.7-2.3-8.5c0.2,1.5,0.4,3.1,0.6,4.6
					c-0.3,1.5-1.6,1.7,0.4,1.1c1-0.3,2.1-1.1,2.9-1.8c1.7-1.2,3.4-2.6,4.7-4.2c2.8-3.3,4.7-7,5.7-11.2
					C96.8,150.3,85.2,147.1,83.4,154.6L83.4,154.6z"/>
			</g>
		</g>
		<g>
			<g>
				<path class="st0" d="M157.3,271.1c0.9,0.9,1.7,1.8,2.4,2.9c0.8,1.3,2.9,0.1,2.1-1.2c-0.7-1.3-1.1-2.4-1.1-3.9
					c-0.7,0.2-1.5,0.4-2.2,0.6c0.2,0.5,0.3,1,0.5,1.5c0.8-0.2,1.5-0.4,2.3-0.6c-0.6-1.9-1.1-3.9-1.7-5.8c-0.7,0.3-1.5,0.6-2.2,0.9
					c0.4,0.9,0.8,1.8,1.1,2.7c0.5,1.1,2.3,0.5,2.2-0.6c-0.1-1.2-0.1-1.5-0.3-2.7c-0.3-1.3-2.5-1-2.4,0.3c0.1,0.9,0.2,1.2,0.6,1.9
					c0.7,1.2,2.5,0.4,2.2-0.9c-0.6-3-1.2-5.9-1.8-8.9c-0.7,0.3-1.5,0.6-2.2,0.9c0.7,1.1,1,2.1,1.2,3.3c0.2,1.4,2.4,1,2.4-0.3
					c0-1.5-0.2-2.9-0.7-4.3c-0.5-1.5-2.8-0.8-2.3,0.6c0.4,1.2,0.6,2.4,0.6,3.7c0.8-0.1,1.6-0.2,2.4-0.3c-0.2-1.5-0.7-2.6-1.4-3.9
					c-0.7-1.2-2.5-0.4-2.2,0.9c0.6,3,1.2,5.9,1.8,8.9c0.7-0.3,1.5-0.6,2.2-0.9c-0.1-0.2-0.2-0.5-0.3-0.7c-0.8,0.1-1.6,0.2-2.4,0.3
					c0.1,0.7,0.2,1.4,0.2,2.1c0.7-0.2,1.5-0.4,2.2-0.6c-0.4-0.9-0.8-1.8-1.1-2.7c-0.5-1.3-2.6-0.4-2.2,0.9c0.6,1.9,1.1,3.9,1.7,5.8
					c0.4,1.5,2.6,0.9,2.3-0.6c-0.2-1-0.3-1.1-0.7-2.1c-0.5-1.1-2.3-0.5-2.2,0.6c0,1.9,0.5,3.5,1.4,5.1c0.7-0.4,1.4-0.8,2.1-1.2
					c-0.8-1.2-1.7-2.3-2.7-3.3C157.9,268.3,156.2,270,157.3,271.1L157.3,271.1z"/>
			</g>
		</g>
		<g>
			<g>
				<path class="st0" d="M144.6,210c-0.6-0.5-1.2-0.9-1.8-1.4c-0.6-0.5-1.9-0.5-2,0.5c-0.1,0.6-0.2,1.3-0.2,1.9
					c0.7-0.3,1.4-0.6,2-0.8c-0.4-0.3-0.6-0.7-0.7-1.2c-0.3-1.3-2.5-1-2.4,0.3c0,0.3,0.1,0.6,0.1,0.9c0.8-0.1,1.6-0.2,2.4-0.3
					c-0.3-1.3-0.1-2.6-0.9-3.8c-0.6,0.5-1.3,1-1.9,1.5c0.1,0.1,0.1,0.4,0.2,0.5c0.3,1.5,2.6,0.9,2.3-0.6c-0.1-0.6-0.4-1.1-0.8-1.6
					c-0.8-1.1-2.6,0.3-1.9,1.5c0.6,0.9,0.4,2.2,0.6,3.2c0.3,1.3,2.5,1.1,2.4-0.3c0-0.3-0.1-0.6-0.1-0.9c-0.8,0.1-1.6,0.2-2.4,0.3
					c0.2,0.9,0.7,1.6,1.3,2.2c0.8,0.7,2,0.2,2-0.8c0-0.4,0-0.8,0.1-1.3c-0.7,0.2-1.3,0.4-2,0.5c0.6,0.5,1.2,0.9,1.8,1.4
					c0.5,0.4,1.2,0.5,1.7,0C145,211.3,145.1,210.4,144.6,210L144.6,210z"/>
			</g>
		</g>
		<g>
			<g>
				<path class="st0" d="M63.8,112.6c1.5,0,1.5-2.4,0-2.4C62.2,110.2,62.2,112.6,63.8,112.6L63.8,112.6z"/>
			</g>
		</g>
		<g>
			<g>
				<path class="st0" d="M64.8,111.6c0-0.2,0-0.6,0.3-0.7c-0.5-0.4-1-0.8-1.5-1.2c0,0.1,0,0.1,0,0.2c0.1-0.2,0.1-0.4,0.2-0.6
					c0,0,0,0,0,0c0.2-0.1,0.4-0.1,0.6-0.2c-0.1,0-0.1,0-0.2,0c0.4,0.5,0.8,1,1.2,1.5c0.1-0.4,0.9-0.5,1.2-0.6
					c0.7-0.2,1.3-0.5,1.8-1.1c1-1.1-0.7-2.9-1.7-1.7c-0.5,0.6-1.4,0.6-2.1,0.9c-0.8,0.4-1.3,1-1.6,1.8c-0.2,0.7,0.4,1.5,1.2,1.5
					c1.1,0,1.8-0.8,1.8-1.8c0-0.7-0.8-1.5-1.5-1.2c-1.3,0.5-2.1,1.6-2.1,3C62.5,113.2,64.9,113.2,64.8,111.6L64.8,111.6z"/>
			</g>
		</g>
		<g>
			<g>
				<path class="st0" d="M75.2,228.4c-0.2,0-0.4-0.1-0.4-0.2c0-0.6-0.4-1.1-1-1.2c-0.5-0.1-1.2,0.3-1.3,0.9c0,0.2-0.1,0.4-0.1,0.6
					c0.7-0.1,1.5-0.2,2.2-0.3c-0.1-0.3-0.2-0.7-0.3-1c-0.7,0.3-1.5,0.6-2.2,0.9c0.1,0.2,0.1,0.4,0.1,0.5c0.7-0.3,1.5-0.6,2.2-0.9
					c-0.2-0.4-0.3-0.8-0.4-1.2c-0.4-1.5-2.7-0.9-2.3,0.6c0.1,0.5,0.2,1.1,0.4,1.6c0.7-0.3,1.5-0.6,2.2-0.9c-0.1-0.2-0.2-0.4-0.3-0.5
					c-0.6-1.2-2.7-0.4-2.2,0.9c0.1,0.4,0.3,0.7,0.4,1.1c0.7-0.4,1.3-0.8,2-1.2c-0.1-0.1-0.2-0.2-0.1,0c-0.7,0.3-1.5,0.6-2.2,0.9
					c0,0,0,0,0-0.1c0.8,0,1.6,0,2.4,0c-0.1-0.6-0.1-1.2-0.2-1.8c-0.8,0.1-1.6,0.2-2.4,0.3c0.1,0.6,0.2,1.2,0.3,1.9
					c0.7-0.3,1.5-0.6,2.2-0.9c-0.1,0-0.1-0.1-0.1-0.2c-0.7,0.3-1.5,0.6-2.2,0.9c0.1,0.2,0.1,0.3,0.1,0.5c0.1,0.6,0.5,1.2,1.2,1.2
					c0.6,0,1.3-0.6,1.2-1.2c0-0.2,0-0.2,0-0.1c0.3-0.6,0.2-1.3-0.4-1.6c-0.5-0.3-1.4-0.2-1.6,0.4c-0.2,0.4-0.3,0.8-0.3,1.3
					c0.8,0,1.6,0,2.4,0c-0.1-0.6-0.2-1.1-0.5-1.7c-0.2-0.5-1-0.7-1.5-0.5c-0.6,0.3-0.8,0.8-0.7,1.4c0,0.3,0.2,0.5,0.3,0.8
					c0.3,0.5,1,0.7,1.5,0.5c0.6-0.3,0.8-0.8,0.7-1.4c-0.1-0.6-0.2-1.2-0.3-1.9c-0.2-1.3-2.5-1-2.4,0.3c0.1,0.6,0.1,1.2,0.2,1.8
					c0.1,0.6,0.5,1.2,1.2,1.2c0.6,0,1.2-0.5,1.2-1.2c0-0.4-0.1-0.8-0.3-1.1c-0.6-1.2-2.6-0.4-2.2,0.9c0.1,0.4,0.3,0.8,0.7,1.1
					c0.4,0.3,1,0.5,1.5,0.2c0.4-0.3,0.7-0.9,0.6-1.4c-0.1-0.4-0.3-0.7-0.4-1.1c-0.7,0.3-1.5,0.6-2.2,0.9c0.1,0.2,0.2,0.4,0.3,0.5
					c0.6,1.3,2.5,0.4,2.2-0.9c-0.1-0.5-0.2-1.1-0.4-1.6c-0.8,0.2-1.5,0.4-2.3,0.6c0.2,0.6,0.4,1.2,0.7,1.8c0.3,0.5,1,0.7,1.5,0.5
					c0.6-0.3,0.8-0.8,0.7-1.4c-0.1-0.4-0.2-0.7-0.4-1.1c-0.2-0.5-1-0.7-1.5-0.5c-0.5,0.2-0.8,0.8-0.7,1.4c0.1,0.5,0.3,1.1,0.6,1.6
					c0.4,0.9,2,0.7,2.2-0.3c0-0.2,0.1-0.4,0.1-0.6c-0.8-0.1-1.6-0.2-2.4-0.3c0.1,1.5,1.3,2.7,2.8,2.6
					C76.8,230.7,76.8,228.3,75.2,228.4L75.2,228.4z"/>
			</g>
		</g>
		<g>
			<g>
				<path class="st3" d="M116.5,271.5c-0.3,0.4-0.5,0.7-0.9,1c-0.8,0.6-0.1,2.2,0.8,2c0.7-0.1,1.3-0.1,2-0.1c-0.3-0.6-0.7-1.2-1-1.8
					c-0.5,0.7-1.7,0.7-2.5,0.8c-1.1,0.1-2.2,0.3-3.3,0.4c-1.5,0.2-1.5,2.6,0,2.4c2.5-0.3,6.3-0.1,7.8-2.5c0.5-0.8-0.2-1.8-1-1.8
					c-0.7,0-1.3,0.1-2,0.1c0.3,0.7,0.6,1.4,0.8,2c0.5-0.4,0.9-0.9,1.3-1.5C119.4,271.5,117.4,270.3,116.5,271.5L116.5,271.5z"/>
			</g>
		</g>
	</g>
	<g>
		<g>
			<g>
				<path d="M63.3,272.1c5.8,1.7,11.6,2.4,17.6,2.7c6.7,0.4,13,2.3,19.8,2.1c11.8-0.3,23.9-1.1,34.5-6.8c0.7-0.4,0.1-1.4-0.6-1
					c-10.8,5.8-23.5,6.7-35.6,6.7c-5.5,0-10.8-1.7-16.2-2c-6.5-0.4-12.8-0.9-19.1-2.7C62.9,270.7,62.6,271.9,63.3,272.1L63.3,272.1z
					"/>
			</g>
		</g>
		<g>
			<g>
				<path d="M64.1,271.1c1.9-6,4.1-12.1,5.5-18.3c1.2-5,1.6-10.2,2.2-15.3c0.1-0.8-1.1-0.8-1.2,0c-1.4,11.6-4.2,22.1-7.7,33.3
					C62.7,271.5,63.8,271.8,64.1,271.1L64.1,271.1z"/>
			</g>
		</g>
		<g>
			<g>
				<path d="M71.9,238.3c0-11.5,0-23.1,0.2-34.6c0-0.8-1.2-0.8-1.2,0c-0.2,11.5-0.1,23.1-0.2,34.6C70.7,239.1,71.9,239.1,71.9,238.3
					L71.9,238.3z"/>
			</g>
		</g>
		<g>
			<g>
				<path d="M71.9,204.4c-0.7-10.6-1.3-21.1-1.8-31.7c0-0.8-1.2-0.8-1.2,0c0.5,10.6,1.1,21.1,1.8,31.7
					C70.7,205.2,71.9,205.2,71.9,204.4L71.9,204.4z"/>
			</g>
		</g>
		<g>
			<g>
				<path d="M69.8,173.4c0.1-0.3,0.2-0.6,0.3-0.9c-0.4-0.1-0.8-0.2-1.2-0.3c-2.1,9.4-5.8,18.4-7.7,27.9c-1.8,9.1-2.3,18.4-3.3,27.6
					c-0.1,0.8,1.1,0.8,1.2,0c1-9.7,1.5-19.6,3.6-29.1c2-8.8,5.3-17.3,7.3-26.1c0.2-0.8-0.9-1.1-1.2-0.3c-0.1,0.3-0.2,0.6-0.3,0.9
					C68.4,173.8,69.6,174.1,69.8,173.4L69.8,173.4z"/>
			</g>
		</g>
		<g>
			<g>
				<path d="M58.2,226.8c-3.2,18.5-4.7,37.2-6.5,55.8c-0.1,0.8,1.1,0.8,1.2,0c1.8-18.6,3.3-37.1,6.5-55.5
					C59.4,226.3,58.3,226,58.2,226.8L58.2,226.8z"/>
			</g>
		</g>
		<g>
			<g>
				<path d="M38.8,281.9c4.4,0.6,8.8,1.2,13.2,1.8c0.8,0.1,0.8-1.1,0-1.2c-4.4-0.6-8.8-1.2-13.2-1.8C38,280.6,38,281.8,38.8,281.9
					L38.8,281.9z"/>
			</g>
		</g>
		<g>
			<g>
				<path d="M43.5,231.8c-0.1-12.8,2.6-25.1,3.4-37.8c0.1-0.8-1.1-0.8-1.2,0c-0.9,12.7-3.5,25-3.4,37.8
					C42.3,232.6,43.5,232.6,43.5,231.8L43.5,231.8z"/>
			</g>
		</g>
		<g>
			<g>
				<path d="M47.2,194.7c1.7-16.3,3.3-32.5,5.3-48.8c0.1-0.8-1.1-0.8-1.2,0c-2,16.2-3.5,32.5-5.3,48.8
					C45.9,195.4,47.1,195.4,47.2,194.7L47.2,194.7z"/>
			</g>
		</g>
		<g>
			<g>
				<path d="M141.4,114.4c3.6,7.9,4.1,16.7,5.2,25.2c1,7.8,2.1,15.6,3.1,23.4c0.1,0.8,1.3,0.8,1.2,0c-1.2-8.9-2.4-17.8-3.6-26.7
					c-1-7.6-1.7-15.4-5-22.5C142.1,113.1,141.1,113.7,141.4,114.4L141.4,114.4z"/>
			</g>
		</g>
		<g>
			<g>
				<path d="M149.5,162c0.5,8.6,2,17.2,2.8,25.7c0.8,8.2,1.6,16.4,3.4,24.5c0.2,0.8,1.3,0.4,1.2-0.3c-1.9-8.6-2.7-17.3-3.5-26
					c-0.7-8-2.2-15.9-2.7-23.9C150.6,161.2,149.4,161.2,149.5,162L149.5,162z"/>
			</g>
		</g>
		<g>
			<g>
				<path d="M155.5,211.3c0.2,12.9,1.6,25.8,3,38.7c0.1,0.8,1.3,0.8,1.2,0c-1.4-12.8-2.8-25.8-3-38.7
					C156.7,210.5,155.5,210.5,155.5,211.3L155.5,211.3z"/>
			</g>
		</g>
		<g>
			<g>
				<path d="M158.7,249.4c1,10.6,1.9,21.2,2.9,31.9c0.1,0.8,1.3,0.8,1.2,0c-1-10.6-1.9-21.2-2.9-31.9
					C159.8,248.6,158.6,248.6,158.7,249.4L158.7,249.4z"/>
			</g>
		</g>
		<g>
			<g>
				<path d="M161.4,281.5c-0.7-1-4.9,0.1-5.8,0.2c-2.2,0.2-4.3,0.4-6.5,0.5c-0.8,0-0.8,1.2,0,1.2c3.9-0.2,8-0.4,11.9-1.1
					c0.9-0.2,2.1-0.6,1.2-1.7C161.7,280.1,160.9,280.9,161.4,281.5L161.4,281.5z"/>
			</g>
		</g>
		<g>
			<g>
				<path d="M148.7,282.7c0-0.2,0-0.4-0.1-0.6c-0.4,0.1-0.8,0.1-1.2,0.2c0,0.3,0.1,0.6,0.1,0.9c0.1,0.7,1.2,0.5,1.2-0.2
					c-0.5-6.2-1-12.4-1.5-18.7c-0.5-5.4-2.2-11-1.8-16.4c0.1-0.8-1.1-0.8-1.2,0c-0.4,5.5,1.3,10.9,1.8,16.4c0.5,6.2,1,12.4,1.5,18.7
					c0.4-0.1,0.8-0.1,1.2-0.2c0-0.3-0.1-0.6-0.1-0.9c-0.1-0.7-1.3-0.5-1.2,0.2c0,0.2,0,0.4,0.1,0.6
					C147.6,283.4,148.8,283.4,148.7,282.7L148.7,282.7z"/>
			</g>
		</g>
		<g>
			<g>
				<path d="M145.5,248.5c-2.6-12.6-5.2-25.7-5.5-38.6c0-0.8-1.2-0.8-1.2,0c0.3,13,2.9,26.2,5.5,38.9
					C144.5,249.6,145.7,249.3,145.5,248.5L145.5,248.5z"/>
			</g>
		</g>
		<g>
			<g>
				<path d="M139.8,211.8c-0.7-6.5-1.7-13.3-3.4-19.6c-1.9-6.7-2.9-13.5-5.1-20c-0.2-0.7-1.4-0.4-1.2,0.3c2,6.1,2.9,12.4,4.7,18.5
					c1.9,6.8,3.1,13.8,3.9,20.8C138.7,212.6,139.9,212.6,139.8,211.8L139.8,211.8z"/>
			</g>
		</g>
		<g>
			<g>
				<path d="M129.4,171.6c-2.2,14.5-2.4,29.4-2.9,44.1c0,0.8,1.2,0.8,1.2,0c0.5-14.5,0.7-29.4,2.9-43.8
					C130.7,171.2,129.6,170.9,129.4,171.6L129.4,171.6z"/>
			</g>
		</g>
		<g>
			<g>
				<path d="M126.9,215.4c0.1,9.4-0.6,19.3,0.8,28.6c1.3,8.4,4.1,16.8,6.2,25c0.2,0.7,1.4,0.4,1.2-0.3c-2.2-8.7-5.3-17.7-6.4-26.6
					c-1-8.8-0.5-17.9-0.6-26.7C128.1,214.6,126.9,214.6,126.9,215.4L126.9,215.4z"/>
			</g>
		</g>
		<g>
			<g>
				<path d="M38.8,281.2c0.7-8.9,1.4-17.7,2.1-26.6c0.6-7.6,2.3-15.1,2.4-22.8c0-0.8-1.2-0.8-1.2,0c-0.1,7.6-1.8,15.2-2.4,22.8
					c-0.7,8.9-1.4,17.7-2.1,26.6C37.5,281.9,38.7,281.9,38.8,281.2L38.8,281.2z"/>
			</g>
		</g>
		<g>
			<g>
				<path d="M52.2,146.5c1.1-9.4,1.4-20.4,4.8-29.4c4.6-11.9,18.8-10.5,29.2-11.1c0.8,0,0.8-1.2,0-1.2c-9.1,0.5-22-0.8-28.1,7.5
					c-3.3,4.5-3.9,10.5-4.7,15.9c-1,6.1-1.8,12.2-2.5,18.3C51,147.3,52.2,147.3,52.2,146.5L52.2,146.5z"/>
			</g>
		</g>
		<g>
			<g>
				<path d="M86.8,106.2c-0.1,0.1,6.2,5.4,6.7,5.9c2.3,2.2,4.2,4.8,6.1,7.4c0.5,0.6,1.5,0,1-0.6c-2.1-2.8-4.1-5.6-6.6-8
					c-1.4-1.3-2.9-2.5-4.4-3.7c-0.9-0.7-1.8-1.8-2.9-2.1c-0.2-0.1-0.4,0-0.6,0.2c0,0-0.1,0.1-0.1,0.1
					C85.5,105.9,86.3,106.7,86.8,106.2L86.8,106.2z"/>
			</g>
		</g>
		<g>
			<g>
				<path d="M100.6,119.6c3.8-4.8,8-9.1,12.6-13.1c0.6-0.5-0.3-1.3-0.8-0.8c-4.6,4-8.8,8.3-12.6,13.1
					C99.3,119.4,100.1,120.2,100.6,119.6L100.6,119.6z"/>
			</g>
		</g>
		<g>
			<g>
				<path d="M113,106.9c4-1.1,10.9-0.3,14.9,0.4c5.2,0.9,10.9,2.7,13.4,7.6c0.4,0.7,1.4,0.1,1-0.6c-2.4-4.7-7.4-6.7-12.3-7.8
					c-3-0.7-5.9-0.8-8.9-0.8c-2.8,0-5.7-0.7-8.4,0.1C112,105.9,112.3,107.1,113,106.9L113,106.9z"/>
			</g>
		</g>
	</g>
</g>
</svg>
