<?xml version="1.0" encoding="utf-8"?>
<!-- Generator: Adobe Illustrator 21.0.2, SVG Export Plug-In . SVG Version: 6.00 Build 0)  -->
<svg version="1.1" id="Layer_1" xmlns="http://www.w3.org/2000/svg" xmlns:xlink="http://www.w3.org/1999/xlink" x="0px" y="0px"
	 viewBox="0 0 200 600" style="enable-background:new 0 0 200 600;" xml:space="preserve">
<style type="text/css">
	.st0{fill:#FFE329;}
	.st1{fill:#F9EE53;}
</style>
<g>
	<path class="st0" d="M106.3,29.9h0.7c0.7,0,1.2-0.5,1.2-1.2c0-0.1,0-0.2,0-0.3c-0.2-0.5-0.4-0.9-0.7-1.3c-0.1-0.2-0.3-0.3-0.4-0.5
		l-0.2-0.2c-0.3-0.3-0.3-0.2-0.1,0.3l-1.5,1.1c1.4,0,2.7,0.5,3.8,1.3l1.4-1.9l-2.1-1.1l-0.9,2.2c0.6,0.1,1.1,0.4,1.4,0.8
		c1.2,1,2.8-0.7,1.7-1.7c-0.7-0.7-1.5-1.2-2.5-1.4c-0.6-0.1-1.2,0.2-1.4,0.7c-0.2,0.5,0,1.2,0.5,1.5l2.1,1.1
		c1.2,0.6,2.4-0.9,1.4-1.9c-1.4-1.1-3.1-1.8-4.8-1.9c-0.6-0.2-1.3,0.2-1.5,0.9c0,0.1,0,0.2,0,0.3c0,1.1,1.1,1.4,1.5,2.3l1.2-1.5
		h-0.7C104.8,27.7,104.8,30.1,106.3,29.9L106.3,29.9z"/>
	<path class="st0" d="M118.5,29.4c-2-0.9-4-1.6-6.1-2.2c-4.4-1.3-8.4,3-7.3,7.3s3.9,4.8,7.2,6.8l6-10.3c-0.6-0.2-1.1-0.5-1.6-0.9
		l-3,11.1c2.1,0,4.2-0.2,6.3-0.6c4.9-0.9,5.9-8.8,1.4-10.9l-1.5-0.7l-1.4,10.9c1.5-0.4,3-0.6,4.5-0.8c6.2-1.4,5.1-9.6,0-11.5
		l-0.9-0.3l-1.6,11.7c1.6-0.1,3.2-0.1,4.8,0c7.1,0.4,7.6-9.5,1.6-11.7c-1.2-0.5-2.6-0.6-3.9-0.5c-7.5,0.9-7.8,11.3,0,11.9
		c2,0.1,4,0,5.9-0.4c5.7-1,5.7-10.5,0-11.5l-1.7-0.3c-7.7-1.4-10.2,8.6-3.2,11.5c1.6,0.5,3.2,0.9,4.8,1.2c6.9,1.8,9.8-7,4.6-10.9
		l-0.9-0.7l-4.6,10.9c2.3,0.9,0.7,0.7,0.4-0.7l9.9-5.8l-0.6-0.6c-5.4-5.4-13.8,3-8.4,8.4c0.6,0.8,1.1,1.8,1.4,2.7
		c3.4,6.9,13.7,0.8,10.3-6c-0.8-1.9-1.9-3.7-3.2-5.2l-8.4,8.4l0.6,0.6c4.3,4.3,11.3-0.1,9.9-5.8c-1.1-4.6-4.8-6-8.7-7.6
		c-6.7-2.8-9.5,7.2-4.6,10.9l0.9,0.7l4.6-10.9c-1.6-0.3-3.2-0.7-4.8-1.1l-3.2,11.5l1.7,0.3V26.7c-0.9,0.1-1.8,0.1-2.7,0v11.9h0.7
		l1.6-11.7c-1.6-0.1-3.2-0.1-4.8,0c-3.3,0.2-5.9,3-5.7,6.3c0.1,2.5,1.8,4.6,4.1,5.4l0.9,0.3V27.5c-1.5,0.2-3,0.4-4.5,0.8
		c-4.3,1.6-6.5,8.5-1.4,10.9l1.5,0.7l1.4-10.9c-1,0.2-2.1,0.3-3.1,0.2c-6.2,0-7.7,7.9-3,11.1c0.5,0.4,1,0.7,1.6,0.9
		c6.8,3.2,12.8-6.4,6-10.3c-0.6-0.4-1.3-0.7-2-1c-1.2-0.7-1.1-0.2,0.2,1.4l-7.3,7.3c1.1,0.3,2.2,0.6,3.2,1
		C119.5,42.7,125.5,32.5,118.5,29.4L118.5,29.4z"/>
	<path class="st0" d="M108.3,39.2c2.3,3.7,7.4,2.5,10.8,4.3l0.9-2.2l-2.8-1.1c-0.6-0.2-1.3,0.2-1.5,0.9c-0.1,0.3,0,0.6,0.1,0.9
		c1.4,1.9,3.9,1.8,6,2.6c1.7,0.7,2.8,2.1,4.3,2.9c0.7,0.4,2,0.5,2.5,1.1s2.1,0.3,2-0.8c-0.3-1.9-0.8-3.8-1.5-5.6
		c-0.4-1.3-0.7-3.6-1.8-4.6c-1.7-1.4-4.1,0.5-5.7,1.4c-0.6,0.3-0.8,1.1-0.4,1.6c0.3,0.6,1.1,0.8,1.6,0.4l1.7-0.8l-1.5-0.8l-2,0.2
		l1.2,0.9l0.7,0.4l-0.8-2l0.1,2.3l-0.8-2l-0.6,2.3l-0.9-1.2l-0.6,0.7c-0.7,0-1.2,0.6-1.1,1.3c0,0.2,0.1,0.4,0.1,0.5
		c0.9,2,2.8,1.7,4.7,2.6c1.3,0.6,2.2,1.5,3.7,0.9c0.4-0.2,0.6-0.6,0.6-1c0-1.8-1.5-3.5-2.6-4.8c-0.5-0.5-1.2-0.5-1.7,0
		c-0.3,0.3-0.4,0.7-0.3,1.1c0.2,0.8,0.5,1.5,0.9,2.3l1.9-1.4l-1.2-1.4l-2.1,1.2l0.4,0.9l2.2-0.9l-1-2.4c-0.6-1.3-2.4-0.3-2.2,0.9
		c0,0.6,0.2,1.1,0.4,1.6c0.3,0.8,1.7,1.3,2.2,0.3c0.2-0.7,0.5-1.3,0.9-1.9l-1.3,0.5c0.3,1,0.6,2,1,2.9c0.6,1.4,2.8,0.9,2.3-0.6
		c-0.4-1.1-0.6-2.3-0.8-3.5l-2.2,0.9c0.7,1.2,1.2,2.5,1.5,3.8c0.2,0.6,0.8,1,1.5,0.8c0.6-0.2,1-0.8,0.8-1.5l-0.8-3.9l-2.2,0.9
		c0.9,1.1,1.4,2.6,1.3,4c0.1,1.5,2.4,1.5,2.4,0c0-1.8-0.6-3.7-1.6-5.2c-0.4-0.6-1.1-0.7-1.7-0.4c-0.4,0.3-0.6,0.8-0.5,1.3l0.8,3.9
		l2.3-0.6c-0.4-1.5-1-3-1.8-4.4c-0.4-0.6-1.1-0.7-1.7-0.4c-0.4,0.3-0.6,0.8-0.5,1.3c0.2,1.2,0.5,2.3,0.8,3.5l2.3-0.6
		c-0.5-1.3-0.9-4.3-2.6-4.6c-0.5-0.1-1.1,0.1-1.3,0.5c-0.4,0.6-0.7,1.2-0.9,1.9l2.2,0.3c-0.3-0.5-0.4-1.1-0.4-1.6l-2.2,0.9l1,2.4
		c0.5,1.3,2.5,0.3,2.2-0.9c-0.1-0.5-0.3-1.1-0.6-1.5c-0.3-0.6-1.1-0.8-1.6-0.4c-0.6,0.3-0.8,1.1-0.4,1.6l0,0
		c0.4,0.7,0.9,1.4,1.5,1.9c0.5,0.4,1.3,0.4,1.7-0.1c0.4-0.4,0.4-1,0.1-1.5l-0.6-1.7l-2,1.2c2.1,2.5,1.5,1.3-0.3,0.4
		c-0.7-0.3-1.9,0-2.4-1l-1,1.8c1.5,0.1,2.9-1,3-2.6c0-0.2,0-0.4,0-0.6c0-0.5-0.4-1-0.9-1.2c-1.3-0.5-2.9,0-3.6,1.2
		c-0.2,0.4-0.2,0.8,0,1.2c1.3,2,4,0.5,5.3-0.7c0.8-0.7,0.1-2-0.8-2c-1.2-0.2-2.4,0.3-3.1,1.3c-0.2,0.4-0.2,0.8,0,1.2
		c1.1,1.9,3.7,0.6,4.7-0.7c0.4-0.5,0.4-1.3-0.1-1.7c-0.2-0.2-0.5-0.3-0.7-0.3c-1.5-0.1-3.7,0.7-2.9,2.6c0.2,0.5,0.6,0.9,1.2,0.9
		c1.6-0.1,4.8-1.2,4.3-3.2c-0.2-0.6-0.8-1-1.5-0.8c-0.8,0.3-1.5,0.6-2.2,1l1.2,2.1c2.2-1.3,2.9-1.3,3.7,1.1c0.7,1.8,1.3,3.7,1.6,5.6
		l2-0.8c-0.7-0.7-1-0.5-1.8-1s-1.5-1.6-2.4-2.1c-2-1.3-7-1.2-8.3-2.9l-1.3,1.8l2.8,1c1.3,0.5,2.1-1.6,0.9-2.2
		c-1.1-0.5-2.3-0.8-3.5-1c-1-0.2-5.9-1.6-6.4-2.5C109.5,36.7,107.5,37.9,108.3,39.2L108.3,39.2z"/>
	<path class="st0" d="M114.6,42.8c0.7,0.3,1.5,0.7,2.2,0.9c0.6,0.2,1.3-0.2,1.5-0.8c0.2-0.6-0.2-1.3-0.8-1.5
		c-0.6-0.2-1.1-0.4-1.6-0.7c-0.6-0.3-1.3-0.1-1.6,0.4C113.8,41.7,114,42.4,114.6,42.8L114.6,42.8z"/>
	<path class="st0" d="M133.1,43.3c1,6.7,5.8,12.5,6.8,19.2c0.2,1.3,2.4,1,2.3-0.3c0-1.4-0.3-2.8-0.8-4.1c-0.2-0.6-0.9-1-1.5-0.8
		c-0.5,0.2-0.8,0.6-0.8,1.1c-0.3,2,0.5,3.6,1,5.5c0.9,3.2,1.5,6.6,1.7,9.9c0,0.7,0.5,1.2,1.2,1.2s1.2-0.5,1.2-1.2
		c0.3-5.9,1.3-12.1-0.3-17.9c-0.2-0.6-0.9-1-1.5-0.8c-0.5,0.2-0.8,0.6-0.8,1.1c0,1.3,0,2.7-0.1,4l2.3-0.3
		c-1.3-5.4-0.6-10.9-1.8-16.3c-0.2-0.6-0.9-1-1.5-0.8c-0.5,0.2-0.8,0.6-0.8,1.1c0.1,1.9,0,3.8-0.3,5.6h2.3l-1.9-5.8
		c-0.4-1.2-2.5-1.1-2.3,0.3c0.2,1.6,0.3,3.1,0.4,4.7l2.2-0.6c-0.8-1.4-1.5-2.9-2-4.4c-0.5-1.4-2.8-0.8-2.3,0.6
		c0.7,2.1,1.2,4.3,1.6,6.5l2.3-0.6c-0.5-1.4-0.8-2.9-1-4.4l-2.3,0.6c0.6,1.7,1.2,3.5,1.6,5.3c0.2,0.6,0.9,1,1.5,0.8
		c0.5-0.2,0.8-0.6,0.8-1.1l-0.1-3.2l-2.3,0.3c0.5,2.2,0.7,4.5,0.7,6.7h2.4l-0.1-4.1h-2.4l0.7,5.3c0.2,1.5,2.5,1.6,2.4,0l-0.2-4.9
		L139,52c0.4,1.7,0.4,5.1,2.2,6c0.6,0.3,1.3,0.2,1.6-0.4c0.7-1.1,0.6-1.6,0.8-3l-2.3,0.3l0.3,1.5c0.2,0.6,0.9,1,1.5,0.8
		c0.5-0.2,0.8-0.6,0.8-1.1c-0.4-5.4-1.1-10.8-2.1-16.1c-0.3-1.5-2.6-0.9-2.3,0.6c1,5.1,1.6,10.3,2,15.4l2.3-0.3l-0.3-1.5
		c-0.3-1.5-2.2-0.9-2.3,0.3l-0.4,1.9l1.6-0.4c-0.4-0.2-1-4.2-1.1-4.6c-0.2-0.6-0.9-1-1.5-0.8c-0.5,0.2-0.8,0.6-0.8,1.1l0.2,4.9h2.4
		l-0.7-5.3c-0.2-1.5-2.4-1.6-2.4,0l0.1,4.1c0,0.7,0.5,1.2,1.2,1.2s1.2-0.5,1.2-1.2l0,0c0-2.5-0.3-4.9-0.8-7.4
		c-0.2-0.6-0.9-1-1.5-0.8c-0.5,0.2-0.8,0.6-0.8,1.1l0.1,3.2l2.3-0.3c-0.4-1.8-1-3.6-1.6-5.3c-0.2-0.6-0.8-1-1.5-0.8
		c-0.6,0.2-1,0.8-0.8,1.5c0.2,1.5,0.5,3,1,4.4c0.2,0.6,0.8,1,1.5,0.8c0.6-0.2,1-0.8,0.8-1.5c-0.4-2.2-0.9-4.4-1.6-6.5l-2.3,0.6
		c0.6,1.7,1.3,3.4,2.2,5c0.3,0.6,1.1,0.7,1.7,0.4c0.3-0.2,0.6-0.6,0.6-1c-0.1-1.6-0.2-3.1-0.4-4.7l-2.3,0.3l1.9,5.8
		c0.3,1,2.1,1.2,2.3,0c0.3-2.1,0.5-4.2,0.4-6.3l-2.3,0.3c1.2,5.4,0.5,10.9,1.8,16.3c0.3,1.4,2.3,1,2.3-0.3s0.1-2.7,0.1-4l-2.3,0.3
		c1.5,5.5,0.5,11.6,0.2,17.2h2.4c-0.1-2.3-0.4-4.6-0.9-6.9c-0.5-2.7-2.1-5.9-1.8-8.6l-2.3,0.3c0.6,1.1,0.8,2.3,0.7,3.5l2.3-0.3
		c-1-6.7-5.9-12.6-6.8-19.2C135.2,41.2,132.9,41.8,133.1,43.3L133.1,43.3z"/>
	<path class="st0" d="M144,79.6c1.9-7.4-0.9-14.8,0.8-22.2c0.4-1.5-1.9-2.1-2.3-0.6c-1.8,7.4,1.1,14.9-0.8,22.2
		c-0.2,0.6,0.2,1.3,0.8,1.5C143.2,80.6,143.8,80.2,144,79.6z"/>
	<path class="st0" d="M81,32.3c-1,1.4-3.1,2.4-4.3,3.8c-1.5,1.8-2.8,3.6-4,5.5c-3.8,5.8,4.6,11.8,9.3,7.2c5.9-5.7,13-8.9,20.4-12.3
		c6.7-3.1,1.4-11.7-4.6-10.9c-2.2,0.2-4.3,0.5-6.5,0.9c-0.9,0.3-1.8,0.6-2.6,1c-1.6,0.7-1.3,1,0.9,0.8l1.4,10.9l1.2-0.9
		c6-4.6,1-13.7-6-10.3c-1.7,0.8-3.3,1.7-4.9,2.6l7.2,9.4c0.8-0.7,2.3-1.2,3.2-1.8c6.3-4.5,1-13.3-6-10.3c-1.1,0.4-2.1,0.9-3.2,1.5
		l6,10.3c1.4-0.8,2.9-1.5,4.5-2c7.3-2.4,4.3-13.1-3.2-11.5c-1.2,0.3-2.3,0.7-3.3,1.2c-6.1,2.7-1.8,13.1,4.6,10.9
		c2-0.8,4.1-1.2,6.3-1.4c6.4-0.4,8.5-10.2,1.6-11.7c-12.7-2.8-24.4,8.6-28.3,19.6c-1.7,4.8,4.6,9.6,8.8,6.7
		c7.7-5.2,15.9-11.6,24.7-14.7c5.2-1.8,6.1-10,0-11.5c-1.5-0.4-3.1-0.6-4.6-0.9c-3-0.4-5.8,0.5-7,3.5c-1,2.5-0.3,6.2,2.4,7.4
		c1.6,0.8,3.3,1.2,5.1,1.3c7.7-0.1,7.7-12,0-11.9l0.9,0.4L96.3,36c1.6,0.2,3.1,0.5,4.6,0.9V25.4C91,28.9,82,35.5,73.4,41.3l8.8,6.7
		c1.6-4.5,8-12.5,13.7-11.3l1.6-11.7c-3.2,0.2-6.4,0.8-9.4,1.8l4.6,10.9h0.5L90,26.2c-2.6,0.8-5,1.9-7.3,3.2c-6.6,4-0.8,13.7,6,10.3
		c1-0.6,2.1-1,3.2-1.5l-6-10.3c-1.9,1.3-3.8,2.2-5.6,3.7c-5.2,4.5,1.5,12.7,7.2,9.4c1.6-0.9,3.2-1.8,4.9-2.6l-6-10.3L85.1,29
		c-4.1,3.2-3.7,9,1.4,10.9c2.4,0.9,4.5-0.1,6.7-1c2.5-1.1,5-1.3,7.8-1.7l-4.6-10.9c-8.2,3.8-16.2,7.8-22.8,14.1l9.4,7.2
		c2.4-3.6,5.8-5.9,8.3-9.3C95.9,32.1,85.5,26.2,81,32.3z"/>
	<path class="st0" d="M73.4,51.1c0.6-0.9,0.9-2,0.8-3.1c-0.1-0.4-0.4-0.7-0.8-0.8c-1.2-0.2-1.8,0.7-2.5,1.5l2,1.2l0.3-1.4
		c0.2-0.6-0.2-1.3-0.9-1.5c-0.3-0.1-0.6,0-0.9,0.1c-0.6,0.4-1.1,0.9-1.4,1.5l2.2,0.9l0.4-1.4c0.2-0.6-0.2-1.3-0.9-1.4
		c-0.5-0.1-1,0.1-1.3,0.5c-0.8,1.2-1.3,2.6-1.4,4c-0.1,0.7-0.2,1.4-0.2,2.1c0.1,1.1,0.1,2.1-0.1,3.2c-0.2,0.8,0.6,1.8,1.5,1.5
		c2.7-1,5.1-2.9,7.4-4.5c0.6-0.3,0.7-1.1,0.4-1.7c-0.2-0.3-0.6-0.6-1-0.6c-1.3,0-2.7,0.3-3.8,1l-0.5,0.3c-0.7,0.3-0.5,0.5,0.5,0.6
		l-1.4-0.2c0.6,0.1,1.3-0.1,1.8-0.4l-0.9-0.1l-0.2-0.1c-0.9,0.9,0.3,2.7,1.4,1.9c1-0.8,2.2-1.3,3.5-1.5c1.5-0.3,0.9-2.5-0.6-2.3
		c-1.5,0.2-2.9,0.8-4.1,1.7l1.4,1.9c1-1,1.3-2.9-0.3-3.6s-3.5,0.9-3.9,2.5c-0.3,0.9,0.3,1.9,1.2,2.1c0.4,0.1,0.9,0.1,1.3-0.1
		C73.6,54.1,74.6,52.1,73.4,51.1c-0.4-0.3-1-0.4-1.5-0.2c-1.4,0.6-2.4,2.7-1,3.8c0.6,0.4,1.4,0.5,2.1,0.2c1.4-0.5,2.3-1.3,3.9-1.4
		l-0.6-2.2c-2.2,1.4-4.4,3.3-6.8,4.2l1.5,1.5c0.4-1.4,0-2.9,0.2-4.4c0-1.5,0.5-3,1.3-4.3l-2.2-0.9l-0.3,1.4
		c-0.2,0.6,0.2,1.3,0.9,1.4c0.5,0.1,1-0.1,1.3-0.5l0.6-0.6l-1.8-1.3l-0.3,1.4c-0.3,1.1,1.2,2.1,2,1.2c0.3-0.4,0.6-0.7,1-1l-0.9,0.1
		h0.2l-0.9-0.8c-0.1,0.5-0.3,0.9-0.5,1.3c-0.3,0.6-0.1,1.3,0.4,1.6C72.3,51.9,73.1,51.7,73.4,51.1L73.4,51.1z"/>
	<path d="M69.3,57.9c-0.5-11.1,5-22.7,14.5-28.7c9.8-6.2,20.6-4.4,30.8-0.5c0.7,0.3,1-0.9,0.3-1.1c-11.1-4.2-22.7-5.7-33,1.5
		c-9.1,6.4-14.3,17.9-13.8,28.9C68.1,58.6,69.3,58.6,69.3,57.9z"/>
	<path d="M69.4,58.6c12.4-6.7,23.2-16,35.9-22c0.7-0.3,0.1-1.4-0.6-1c-12.8,6-23.6,15.3-35.9,22C68.2,58,68.8,59,69.4,58.6
		L69.4,58.6z"/>
	<path d="M104.7,36.3c1.2,3.1,3.8,4.2,6.8,5.4s5.8,2.3,8.7,3.4c2.3,0.9,9.2,2.9,10.2,5.7c0.3,0.7,1.4,0.4,1.1-0.3
		c-0.8-2.2-4.8-3.9-6.7-4.8c-4.8-2.1-16.9-4.4-18.9-9.8C105.6,35.2,104.4,35.6,104.7,36.3L104.7,36.3z"/>
	<path d="M115.7,28.9c4.5-1.6,9.2-2.3,14-2c6.4,0.6,9.9,4.2,11.4,10.3c0.1,0.3,0.5,0.5,0.8,0.3c0.3-0.1,0.4-0.4,0.4-0.7
		c-1.2-4.7-3-8.5-7.9-10.2c-6-2.2-13.1-0.9-19,1C114.6,27.9,114.9,29.1,115.7,28.9L115.7,28.9z"/>
	<path d="M127.1,38.6c6,4.8,8.5,12,10.7,19.1c2.3,7.4,4.4,16.1,3.9,23.9c0,0.8,1.1,0.8,1.2,0c0.5-8.5-1.9-17.8-4.5-25.8
		c-2.2-6.8-4.9-13.4-10.6-18C127.3,37.3,126.5,38.2,127.1,38.6L127.1,38.6z"/>
	<path d="M143.3,83.3c3.8-15.1,1.7-31.8-1.1-46.8c-0.1-0.8-1.3-0.4-1.1,0.3c2.8,14.8,4.9,31.4,1.1,46.2c-0.1,0.3,0.2,0.6,0.5,0.7
		C142.9,83.7,143.2,83.6,143.3,83.3L143.3,83.3z"/>
	<path d="M141.8,80.7c-0.2,0.8-0.2,1.7,0,2.6c0.1,0.3,0.5,0.5,0.8,0.3c0.3-0.1,0.4-0.4,0.4-0.7c-0.2-0.6-0.2-1.3,0-1.9
		C143.1,80.3,141.9,79.9,141.8,80.7L141.8,80.7z"/>
	<path d="M128.1,38.1c-1-2.2-2.7-4.1-4.8-5.3c-0.3-0.1-0.7,0.1-0.8,0.4c-0.1,0.2,0,0.4,0.2,0.6c1.9,1.2,3.4,2.9,4.3,4.9
		C127.4,39.3,128.4,38.7,128.1,38.1L128.1,38.1z"/>
	<path d="M131.3,50.9c-1-4.5-0.8-9.2-3.2-13.3c-0.2-0.2-0.6-0.2-0.8,0c-0.2,0.2-0.2,0.4-0.2,0.6c2.3,4,2.1,8.6,3,13
		C130.3,51.9,131.5,51.6,131.3,50.9L131.3,50.9z"/>
	<path d="M114.4,28.7c3,1.3,5.7,2.9,8.3,4.9c0.6,0.5,1.2-0.6,0.6-1c-2.6-2-5.4-3.6-8.3-4.9C114.4,27.4,113.7,28.4,114.4,28.7
		L114.4,28.7z"/>
	<path class="st0" d="M138.6,41.3L138.6,41.3c-0.6-0.5-1.3-0.4-1.7,0.2c-0.3,0.4-0.3,1,0,1.5l0.1,0.1c0.5,0.4,1.2,0.4,1.7-0.1
		C139,42.5,139,41.8,138.6,41.3L138.6,41.3z"/>
	<path class="st0" d="M122.9,42.6l0.1-0.2l-0.6,0.2h0.1l-0.6-0.2l0.1,0.1l-0.4-0.4l0.1-0.8l0.5-0.3h0.3l0.5,0.3l-0.1-0.1l0.3,0.5
		v0.1l-0.2,0.6l0.1-0.1c0.3-0.6,0.1-1.3-0.4-1.6c-0.6-0.3-1.3-0.1-1.6,0.4c-0.4,0.7-0.2,1.6,0.5,2c0.1,0.1,0.2,0.1,0.4,0.2
		c0.9,0.2,1.7-0.4,1.9-1.2c0-0.1,0-0.1,0-0.2c0.1-0.8-0.4-1.6-1.2-1.7c-0.1,0-0.1,0-0.2,0c-0.9,0-1.5,1-1.8,1.8
		c-0.2,0.6,0.2,1.3,0.8,1.5C122,43.6,122.7,43.2,122.9,42.6z"/>
	<path class="st0" d="M135.3,45.3l1,2.6l2-1.2c-0.6-0.6-1.1-1.3-1.2-2.2l-2.2,0.9l1.9,3.1c0.8,1.3,2.9,0.1,2.1-1.2l-2-3.1
		c-0.4-0.6-1.1-0.7-1.7-0.4c-0.4,0.3-0.6,0.8-0.5,1.3c0.2,1.2,0.9,2.4,1.8,3.2c0.8,0.8,2.4,0,2-1.2l-1-2.6c-0.2-0.6-0.8-1-1.5-0.8
		C135.5,44,135.1,44.6,135.3,45.3L135.3,45.3z"/>
	<path class="st1" d="M71.5,54.8c0.9-8.2,6.3-16.2,13.2-20.6c0.7-0.4,0.1-1.4-0.6-1C76.6,38,71.5,45.9,70.3,54.8
		C70.3,55.6,71.5,55.6,71.5,54.8L71.5,54.8z"/>
	<path class="st1" d="M71.6,55.1c6.7-4.4,13.2-9,19.7-13.6c0.6-0.4,0-1.5-0.6-1c-6.5,4.7-13,9.2-19.7,13.6
		C70.4,54.6,71,55.6,71.6,55.1z"/>
	<path class="st1" d="M107.5,35.1c0.8,2,2.6,3.5,4.7,4.1c4.4,1.5,8.3,2.3,12.2,5.3c0.6,0.5,1.4-0.4,0.8-0.8c-1.8-1.5-3.8-2.7-6-3.7
		c-3.4-1.4-8.9-1.3-10.5-5.2C108.3,34.1,107.2,34.4,107.5,35.1L107.5,35.1z"/>
	<path class="st1" d="M123.1,30c6.7-0.4,14.2,1.7,14.2,9.6c0,0.3,0.3,0.6,0.7,0.5c0.3,0,0.5-0.2,0.5-0.5c0-8.6-8-11.3-15.4-10.8
		C122.3,28.8,122.3,30,123.1,30z"/>
	<path class="st1" d="M137.4,48.5c2.3,3.2,2.6,7.8,3.4,11.5c0.2,0.7,1.3,0.4,1.1-0.3c-0.8-3.9-1.1-8.5-3.6-11.8
		C137.9,47.2,136.9,47.9,137.4,48.5L137.4,48.5z"/>
</g>
</svg>
