<?xml version="1.0" encoding="utf-8"?>
<!-- Generator: Adobe Illustrator 21.0.2, SVG Export Plug-In . SVG Version: 6.00 Build 0)  -->
<svg version="1.1" id="Layer_1" xmlns="http://www.w3.org/2000/svg" xmlns:xlink="http://www.w3.org/1999/xlink" x="0px" y="0px"
	 viewBox="0 0 200 600" style="enable-background:new 0 0 200 600;" xml:space="preserve">
<style type="text/css">
	.st0{fill:#EF7A22;}
	.st1{fill:#ED8622;}
</style>
<g>
	<path class="st0" d="M143.4,78.4c0.4-0.7,0.5-1.5,0.3-2.3c-0.1-0.3-0.4-0.5-0.7-0.4c-0.2,0.1-0.3,0.2-0.4,0.4l-0.3,1.8h1.1
		l-0.2-1.4c-0.1-0.7-1.2-0.5-1.2,0.2c0.1,1,0.1,2.1,0.2,3.1c0,0.8,1.2,0.8,1.2,0c0-1-0.1-2.1-0.2-3.1l-1.2,0.2l0.2,1.4
		c0.1,0.6,1,0.6,1.1,0l0.3-1.8h-1.1c0.1,0.5,0,1-0.2,1.4C142.1,78.5,143.1,79.1,143.4,78.4L143.4,78.4z"/>
	<path class="st0" d="M73,49c-1.2,0.8-2.2,1.9-2.8,3.2c-0.3,0.6-0.8,1.1-1.2,1.7c-0.2,0.5-0.4,1-0.5,1.5c-0.3,1-0.1,2.1,1.1,2.2
		s2.6-1.1,3.6-1.8c1.2-0.9,0.2-2.8-1.2-2.1c-0.8,0.5-0.6,0.2-0.6-0.2s0-0.8,0-1.2c0.1-1.1,0.6-2.1,1.5-2.7c1.1-1.1-0.6-2.8-1.7-1.7
		c-0.9,0.8-1.6,1.7-2,2.8C69,51.3,69,51.8,69,52.4c0,0.6-0.2,1.2-0.2,1.8c0,2.2,2.8,2.5,4.3,1.7l-1.2-2.1c-0.5,0.3-1.8,1.5-2.3,1.5
		l1,0.6l-0.1-0.3l0.1,0.9c0.1-0.3,0.3-0.8,0.4-1.2c0.2-0.4,0.5-0.7,0.7-1c0.8-1.2,1.1-2.5,2.4-3.2c0.6-0.3,0.8-1.1,0.4-1.6
		C74.2,48.9,73.5,48.7,73,49L73,49L73,49z"/>
	<path class="st0" d="M126.3,40.2c3.8,0,3.8-6,0-6S122.4,40.2,126.3,40.2z"/>
	<path class="st0" d="M125.3,39.3c0,1,0.1,2,0.4,3c0.2,0.6,0.9,1,1.5,0.8c0.5-0.2,0.8-0.6,0.8-1.1l0.3-2.1h-2.4c0,1.1,0,2.2,0.1,3.2
		c0.1,0.9,0.4,1.7,0.5,2.6l0.6-1l-0.2-0.4l-1.7,1.7c1,0.9,2,1.8,3.1,2.5c0.9,0.6,1.9-0.4,1.8-1.3l-0.8-4.1c-0.3-1.5-2.6-0.9-2.3,0.6
		l0.8,4.1l1.8-1.3c-0.9-0.6-1.8-1.4-2.7-2.2c-1.1-1-2.8,0.6-1.7,1.7c0.8,0.7,2.1,1.5,3.1,0.8c0.4-0.2,0.6-0.6,0.6-1
		c-0.1-0.9-0.4-1.7-0.5-2.6c-0.1-1.1-0.1-2.2-0.1-3.2c0-0.7-0.5-1.2-1.2-1.2c-0.7,0-1.2,0.5-1.2,1.2l-0.3,2.1l2.3-0.3
		c-0.2-0.8-0.3-1.6-0.3-2.4c0-0.7-0.5-1.2-1.2-1.2C125.8,38.1,125.3,38.6,125.3,39.3L125.3,39.3z"/>
	<path class="st0" d="M138.9,60.4c0.4,2.9,2.1,5.3,2.7,8.1c0.3,1.3,2.4,1,2.3-0.3l-0.4-4.9l-2.3,0.3l0.1,1.3l2.3-0.3l-0.5-3.1
		c-0.3-1.5-2.6-0.9-2.3,0.6l0.4,2.3c0.2,1.2,2,1,2.3,0c0.3-0.6,0.4-1.3,0.6-2h-2.4l0.2,1c0,0.7,0.6,1.2,1.2,1.2c0.4,0,0.8-0.2,1-0.6
		c0.3-0.4,0.4-1,0.2-1.6c-0.2-0.6-0.9-1-1.5-0.8c-0.5,0.2-0.8,0.6-0.8,1.1c-0.1,2.2-0.2,4.3-0.3,6.5c-0.1,1.7,0.6,4,0.3,5.7l2.3,0.3
		c0.1-2.7,0.1-5.4-0.1-8c-0.1-1.5-2.4-1.5-2.4,0c0.1,2.7,0.1,5.3,0.1,8c0,1.3,2.1,1.7,2.3,0.3c0.4-1.9-0.2-3.3-0.3-5.2
		c0-2.5,0.2-5.1,0.4-7.6l-2.3,0.3l0.1-0.3l2.2,0.6c0-0.5-0.1-1.1-0.3-1.6c-0.2-0.6-0.9-1-1.5-0.8c-0.4,0.1-0.7,0.4-0.8,0.8
		c-0.1,0.7-0.3,1.4-0.6,2h2.3l-0.4-2.3l-2.3,0.6l0.5,3.1c0.2,1.4,2.3,1,2.3-0.3c0.1-0.7,0-1.3-0.2-2c-0.2-0.6-0.9-1-1.5-0.8
		c-0.5,0.2-0.8,0.6-0.8,1.1l0.4,4.9l2.3-0.3c-0.6-2.8-2.3-5.3-2.7-8.1C140.9,58.3,138.6,58.9,138.9,60.4L138.9,60.4z"/>
	<path class="st0" d="M124,39.4l0.2-1l-2.6-1.5l2.5-1.8l1.5,2.6l-0.8,0.4l-2.2-2.9c0.4,0.3,0.9,0.5,1.3,0.7l-2.2-2.9l-0.1,0.7
		l1.5-2.6h-0.9l1.5,2.6l-1.1,0.6l-2.2-2.9l1.6-0.2c0.7-2-1.1-3.6-2.9-3.8l-1.9-0.2v6c3.9-0.5,8.5-1.6,12.4-0.8
		c2.3,0.5,4.1,1.4,5.1,3.8c1.3,0.8,1.1,0.7-0.6-0.4c-1-0.3-1.9-1.1-2.3-2.2l-2.9,3.8l3.1,1.2l3.6-4.8l-1-0.7
		c-2.4-1.7-4.7,1.1-4.4,3.4c0.6,3.7,2.6,6.4,5,9.2c2.1,2.6,6.5-0.8,4.7-3.6c-1.2-1.9-2.8-2.9-4.3-4.5c-2.6-2.9-6.7,1.3-4.2,4.2
		c1.5,1.5,2.6,3.3,3.2,5.4c1,3.8,6.4,2.1,5.7-1.6c-0.4-2.3-1.8-4.4-3.9-5.6c-2.9-1.9-5.9,2.3-3.6,4.7c1.3,1.3,4.4,3.7,4.6,5.6
		c0.5,3.8,6.4,3.8,6,0c-0.6-4.4-1.4-8.8-2.5-13.1c-0.8-3.4-5.6-2.4-5.9,0.8c-0.3,3.4-0.3,6.9,0.1,10.3c0.3,2.5,1.8,4.8,2.4,7.3
		c0.6,2.8,5.1,2.8,5.7,0c0.3-1.1,0.4-2.2,0.4-3.3h-6c0.2,2.4,0.6,4.9,0.8,7.3c0.3,3.8,6.2,3.8,6,0c-0.2-2.4-0.6-4.8-0.8-7.3
		c-0.4-3.7-5.9-3.9-6,0l-0.2,1.7h5.7c-0.5-2.3-2-4.7-2.2-7.1c-0.3-2.9-0.3-5.9,0-8.9l-5.9,0.8c1,3.8,1.8,7.6,2.3,11.5h6
		c-0.5-4.3-3.5-6.8-6.4-9.8l-3.6,4.7l1.1,2l5.7-1.6c-0.9-3.2-2.6-5.5-4.7-8l-4.2,4.2c0.9,1,2.7,2.3,3.3,3.3l4.6-3.6
		c-1.7-2.1-3-3.9-3.4-6.6l-4.4,3.4l1,0.7c2.8,2,6.1-2.4,3.6-4.7c-2.2-2-4.2-3.3-7.3-2.9c-1.8,0.2-3.5,1.7-2.9,3.8
		c2,6.8,15.3,11.7,14.7,1.2c-0.8-11.9-15.6-10-23.6-9.1c-1.7,0-3,1.3-3,3s1.3,3,3,3l1.9,0.2l-2.9-3.8c-2,6.1,9.6,8.7,10.1,1.8
		c0-1.3-0.9-2.5-2.2-2.9c-3.7-1.1-8.3,3.4-5.8,6.9s8.9,1.8,9.3-2.4c0-1.3-0.9-2.5-2.2-2.9c-4.3-1.1-8.9,2.5-6.2,6.9
		c2.4,3.9,9.5,3.4,9.3-1.8c0-1.3-0.9-2.5-2.2-2.9c-3.8-0.6-9.7,4-5.6,7.7c3.8,3.4,8.2-2.5,6-6.1c-0.5-0.9-1.5-1.5-2.6-1.5
		c-2.4,0.2-4.5,1.7-5.3,4c-1.5,3.5,3.6,6.5,5.1,3L124,39.4z"/>
	<path class="st0" d="M87.6,39.1l2.3-1l-2.9-5c-2.7,2.2-6.5,1.6-9.5,3.2c-2.5,1.2-4.5,3.1-5.9,5.5l5.1,3c2.9-5.4,7.4-9.7,13-12.2
		c3.2-1.5,0.8-6.1-2.3-5.4c-1.9,0.4-3.7,1.2-5.3,2.2c-3.3,2-0.3,7.1,3,5.1c4.2-2.5,9.6-4.6,14.6-3.9c1.3,0.7,1.8,0.7,1.7,0
		c-1.1,0.5-2.2,0.9-3.4,1.2c-2.4,0.6-4.8,0.8-7.2,0.7l2.1,5l3.3-1.2l-0.8-5.8c-2.3,1-4.8,1.6-7.3,1.8l1.5,5.5c1.2-0.8,2.5-1.5,3.9-2
		c0.7-0.2,2.4-0.2,1.8-1L95,31.2c0.1-0.1-4.8,0.7-4.2,0.6l2.1,5.1c1.4-1.2,3.1-2,4.9-2.2l-2.1-2.1l0.1,0.5l0.8-2.9
		c-1.1,1.1-2.6,1.6-4.1,1.5l2.1,5.1c1.8-1.4,3.9-2.4,6.1-3l-2.3-5.4c-6.2,4-12.8,7.4-19,11.3c-3.1,2-10.3,6.3-6.9,11
		c3.2,4.4,9-0.6,11.9-2.6c6.3-4.3,13.1-7.9,19.7-11.8c2.5-1.5,1.5-5.6-1.5-5.6c-7.8,0.2-15.3,5.8-20.6,11.1
		c-1.2,1.2-1.2,3.9,0.6,4.7c2.2,1,4,1.2,6.1-0.3c1.4-0.9,1.9-2.7,1-4.1c-0.4-0.6-1-1.1-1.7-1.3c-7.9-2.7-9.4,6.3-15.7,8.3l2.9,0.8
		c0.4,1.1,0.5,0.9,0.5-0.4c0.1-1.3,0.5-2.6,1.3-3.6c1.1-1,2.4-1.8,3.7-2.3c3.2-1.7,6.6-3.1,10-4.4c3.3-1.2,6.9-2.4,10.4-2.5
		s5.4,2,8.4,2.8c1,0.3,2.1,0,2.9-0.8c1.6-1.6,1.9-4,0.8-5.9c-1.4-2.6-3.4-4.9-5.8-6.7l-2.3,5.4c1.8,0.7,3.4,1.6,5.1,2.4
		c3.4,1.8,6.1-3,3-5.1l-3-2.1l-3,5.1l3.2,1.6c2.4,1.2,6-1.5,4.1-4.1l-0.7-0.9c-1.7-2.3-5.4-1.7-5.6,1.5c-0.3,2.8,1.3,5.4,3.8,6.5
		c2.2,1.2,5.2-0.8,4.4-3.4c-0.3-1.2-0.7-2.4-1.3-3.6l-4.4,3.3c0.3,0.1,5,2.9,4.9,2.9c1.2-1.7,0.8-2.6-1.2-2.6
		c-0.7-0.1-1.4-0.2-2.2-0.3c-1.9-0.2-3.7,0.9-4.5,2.7c-0.6,1.2-0.4,2.6,0.5,3.6c1.3,1.4,2.8,1.1,4.1,2.1l3-5.1l-0.6-0.3l-3,5.1
		c2.5,1.1,5.1,2.1,7.8,2.8c3.7,1,5.3-4.7,1.6-5.7l-1.8-0.5l-1.6,5.7c1.4,0.2,2.8,0.6,4.1,1.3v-5.1c0.5-0.3,3.9,0.3,1.4-0.7
		c-0.5-0.2-1-0.3-1.5-0.3c-1.1,0-2,0.6-2.6,1.5l-0.2,0.3c-0.8,1.4-0.3,3.3,1.1,4.1c0.4,0.2,0.9,0.4,1.4,0.4l2,0.6l2.1-5.1h-0.3
		l2.9,2.2l-0.1-0.2c-1.4-3.5-7.1-2-5.7,1.6l0.1,0.2c0.4,1.3,1.5,2.2,2.9,2.2h0.3c2.4-0.2,4.1-3.2,2.1-5.1c-1.6-1.7-3.9-2.5-6.2-2.3
		l2.6,4.5l0.2-0.3l-2.6,1.5c-2.7-0.2-0.1,0.6,0.5,0.7c0.9,0.2,1.8,0,2.6-0.5c1.7-1.2,2.2-4.1,0-5.1c-1.7-0.9-3.6-1.5-5.5-1.9
		c-3.7-0.7-5.3,4.7-1.6,5.7l1.8,0.5l1.6-5.7c-2.2-0.6-4.3-1.3-6.4-2.2c-3.4-1.5-6.5,3.3-3,5.1l0.6,0.3c3.5,1.8,6-2.9,3-5.1
		c-0.7-0.5-2.5-0.7-2.9-1.1l0.5,3.6c-0.1,0.3,8,2.7,9-1.9s-5.2-7.6-8.2-8.9c-2.1-0.9-5.4,0.6-4.4,3.4c0.5,1.2,0.9,2.4,1.3,3.6
		l4.4-3.4l-0.8-1.4l-5.6,1.5l0.7,0.9l4.1-4.1l-3.2-1.6c-1.5-0.6-3.3,0.1-3.9,1.6c-0.5,1.3-0.1,2.7,0.9,3.5l3,2.1l3-5.1
		c-2.1-1.1-4.3-2.1-6.5-3c-3.3-1.4-4.9,3.7-2.3,5.4c1.4,1,2.2,5.2,3.8,3.3l2.9-0.8c-2.2-0.6-3.4-2.5-5.7-3c-2.3-0.3-4.6-0.2-6.8,0.2
		c-5.8,1-11.5,2.8-16.8,5.5c-3.9,1.8-8.4,3.5-10.6,7.5c-1.6,2.9-2.6,7.5-0.2,10.2c0.8,0.8,1.9,1.1,2.9,0.8c1.8-0.7,3.5-1.7,5-3
		c1.8-1.5,4.8-6.2,7.5-5.3l-0.7-5.4l-0.1,0.3l0.6,4.7c4-4,10.5-9.2,16.4-9.4l-1.5-5.6c-4.5,2.6-9,5.1-13.4,7.8
		c-1.1,0.6-10.9,7.7-11.4,7.3l1.5,2.6c-0.2-2.7,9.7-7.1,11.7-8.3c4-2.3,8-4.6,11.9-7.1c2.8-1.8,1.1-6.4-2.3-5.4
		c-3.2,0.9-6.2,2.5-8.7,4.6c-2,1.6-0.3,5.2,2.1,5.1c3.9-0.2,9.8-1.7,9-6.7c-0.3-1-1.1-1.8-2.1-2.1c-3.9-0.8-7.7,1.4-10.6,3.8
		c-1.9,1.6-0.4,5.3,2.1,5.1c3-0.3,7.7-0.6,9.3-3.5c0.6-1.2,0.4-2.6-0.5-3.6c-2.9-3.7-10,0.1-13,2c-2.3,1.5-1.6,5.8,1.5,5.5
		c3-0.2,6-0.9,8.8-2c2.8-1.2,2.9-6-0.8-5.9c-2.8,0.1-5.4,1.1-7.5,2.9c-2.1,1.7-0.2,5,2.1,5.1c4.9,0.2,21.8-2.2,16.7-11.1
		c-1.8-3.1-7.3-2.8-10.3-2.6c-5.3,0.3-10.5,1.9-15.1,4.7l3,5.1c1.1-0.8,2.4-1.4,3.8-1.6l-2.3-5.4c-6.5,3-11.8,8-15.1,14.3
		c-1.8,3.4,3.3,6.4,5.1,3c1.6-3,4.7-3.8,7.7-4.2c2.5-0.4,4.9-1.5,6.8-3.2c2.5-2-0.3-5.6-2.9-5c-1.8,0.4-3.5,1.3-4.9,2.6
		C80.4,37.3,84.7,41.5,87.6,39.1L87.6,39.1z"/>
	<path d="M69.2,57.8C68.7,46.6,74.2,35,83.7,29c9.8-6.2,20.6-4.4,30.8-0.5c0.7,0.3,1-0.9,0.3-1.1c-11.1-4.2-22.7-5.7-33,1.5
		C72.7,35.2,67.5,46.8,68,57.8C68,58.5,69.2,58.5,69.2,57.8z"/>
	<path d="M69.3,58.5c12.4-6.7,23.2-16,35.9-22c0.7-0.3,0.1-1.4-0.6-1c-12.8,6-23.6,15.3-35.9,22C68.1,57.9,68.7,58.9,69.3,58.5
		L69.3,58.5z"/>
	<path d="M104.6,36.2c1.2,3.1,3.8,4.2,6.8,5.4s5.8,2.3,8.7,3.4c2.3,0.9,9.2,2.9,10.2,5.7c0.3,0.7,1.4,0.4,1.1-0.3
		c-0.8-2.2-4.8-3.9-6.7-4.8c-4.8-2.1-16.9-4.4-18.9-9.8C105.5,35.1,104.3,35.5,104.6,36.2L104.6,36.2z"/>
	<path d="M115.6,28.8c4.5-1.6,9.2-2.3,14-2c6.4,0.6,9.9,4.2,11.4,10.3c0.1,0.3,0.5,0.5,0.8,0.3c0.3-0.1,0.4-0.4,0.4-0.7
		c-1.2-4.7-3-8.5-7.9-10.2c-6-2.2-13.1-0.9-19,1C114.5,27.8,114.8,29,115.6,28.8L115.6,28.8z"/>
	<path d="M127,38.5c6,4.8,8.5,12,10.7,19.1c2.3,7.4,4.4,16.1,3.9,23.9c0,0.8,1.1,0.8,1.2,0c0.5-8.5-1.9-17.8-4.5-25.8
		c-2.2-6.8-4.9-13.4-10.6-18C127.2,37.2,126.4,38.1,127,38.5L127,38.5z"/>
	<path d="M143.2,83.2c3.8-15.1,1.7-31.8-1.1-46.8c-0.1-0.8-1.3-0.4-1.1,0.3c2.8,14.8,4.9,31.4,1.1,46.2c-0.1,0.3,0.2,0.6,0.5,0.7
		C142.8,83.6,143.1,83.5,143.2,83.2L143.2,83.2z"/>
	<path d="M141.7,80.6c-0.2,0.8-0.2,1.7,0,2.6c0.1,0.3,0.5,0.5,0.8,0.3c0.3-0.1,0.4-0.4,0.4-0.7c-0.2-0.6-0.2-1.3,0-1.9
		C143,80.2,141.8,79.8,141.7,80.6L141.7,80.6z"/>
	<path d="M128,38c-1-2.2-2.7-4.1-4.8-5.3c-0.3-0.1-0.7,0.1-0.8,0.4c-0.1,0.2,0,0.4,0.2,0.6c1.9,1.2,3.4,2.9,4.3,4.9
		C127.3,39.2,128.3,38.6,128,38L128,38z"/>
	<path d="M131.2,50.8c-1-4.5-0.8-9.2-3.2-13.3c-0.2-0.2-0.6-0.2-0.8,0c-0.2,0.2-0.2,0.4-0.2,0.6c2.3,4,2.1,8.6,3,13
		C130.2,51.8,131.4,51.5,131.2,50.8L131.2,50.8z"/>
	<path d="M114.3,28.6c3,1.3,5.7,2.9,8.3,4.9c0.6,0.5,1.2-0.6,0.6-1c-2.6-2-5.4-3.6-8.3-4.9C114.3,27.3,113.6,28.3,114.3,28.6
		L114.3,28.6z"/>
	<path class="st1" d="M72,54.4c1.4-9.9,7.6-17.4,15.6-23.1c0.6-0.4,0-1.5-0.6-1c-8.2,5.8-14.7,13.5-16.2,23.8
		C70.7,54.8,71.8,55.1,72,54.4L72,54.4z"/>
	<path class="st1" d="M72.2,54.8c7.3-6.9,15.5-12.6,24.5-17.1c0.7-0.3,0.1-1.4-0.6-1C87.1,41.2,78.7,47,71.4,54
		C70.8,54.5,71.7,55.3,72.2,54.8L72.2,54.8z"/>
	<path class="st1" d="M108.4,35.2c1,2.2,2.9,3.8,5.2,4.5c4.2,1.5,8.3,2.2,12.2,4.4c0.7,0.4,1.3-0.7,0.6-1c-2.6-1.4-5.4-2.5-8.2-3.3
		c-3.4-0.9-7.2-1.5-8.8-5.1C109.2,33.9,108.1,34.5,108.4,35.2L108.4,35.2z"/>
	<path class="st1" d="M123.3,29.7c5.1,0,9.7,0.8,12.7,5.3c2.1,3.3,2.2,8.5,3.1,12.3c0.2,0.8,1.3,0.4,1.1-0.3
		c-1.1-4.8-1-10.8-4.6-14.5s-7.5-4-12.3-4.1c-0.3,0-0.6,0.3-0.5,0.7C122.8,29.5,123,29.7,123.3,29.7z"/>
	<path class="st1" d="M138.4,52.7c1.3,3.6,2.6,7.2,2.6,11.1c0,0.3,0.3,0.6,0.7,0.5c0.3,0,0.5-0.2,0.5-0.5c-0.1-4-1.3-7.7-2.7-11.4
		C139.3,51.7,138.1,52,138.4,52.7L138.4,52.7z"/>
</g>
</svg>
