<?xml version="1.0" encoding="utf-8"?>
<!-- Generator: Adobe Illustrator 21.0.2, SVG Export Plug-In . SVG Version: 6.00 Build 0)  -->
<svg version="1.1" id="Layer_1" xmlns="http://www.w3.org/2000/svg" xmlns:xlink="http://www.w3.org/1999/xlink" x="0px" y="0px"
	 viewBox="0 0 200 600" style="enable-background:new 0 0 200 600;" xml:space="preserve">
<style type="text/css">
	.st0{fill:#002CE3;}
	.st1{fill:#0052E3;}
	.st2{fill:#0087E3;}
</style>
<g>
	<g>
		<g>
			<g>
				<g>
					<path class="st0" d="M82.6,562.5c-0.2-1-0.5-2-0.7-3c-0.3-1.3-1.9-1-2.3,0c-0.3,0.7-0.6,1.5-0.7,2.2c0.8,0.1,1.6,0.2,2.4,0.3
						c0.1-0.6,0.1-1.2,0.2-1.8c0.2-1.3-2.1-1.6-2.4-0.3c-0.1,0.3-0.1,0.5-0.2,0.8c0.7-0.1,1.5-0.2,2.2-0.3c-0.2-0.4-0.3-0.8-0.5-1.3
						c-0.3-1.4-2.3-1-2.4,0.3c0,0.3,0,0.5,0,0.8c0.8,0,1.6,0,2.4,0c0.1-2.9,0-5.7-0.1-8.6c-0.1-1.3-2.1-1.7-2.4-0.3
						c-0.2,1.2-0.4,2.4-0.6,3.6c0.8,0.1,1.6,0.2,2.4,0.3c-0.3-5.4-0.6-10.8-1-16.3c-0.6,0.3-1.2,0.7-1.8,1c4,2,9.1-0.1,13.2,1.1
						c0.7,0.2,1.6-0.4,1.5-1.2c0-0.2,0-0.4,0-0.6c-0.1-1.5-2.5-1.5-2.4,0c0,0.2,0,0.4,0,0.6c0.5-0.4,1-0.8,1.5-1.2
						c-2.5-0.7-4.8,0.1-7.3-0.4c-0.9-0.2-4.7-0.2-5.3-0.4c-0.8-0.4-1.9,0.1-1.8,1c0.3,5.4,0.6,10.8,1,16.3c0.1,1.3,2.1,1.7,2.4,0.3
						c0.2-1.2,0.4-2.4,0.6-3.6c-0.8-0.1-1.6-0.2-2.4-0.3c0.1,2.9,0.2,5.7,0.1,8.6c0,1.6,2.3,1.5,2.4,0c0-0.3,0-0.5,0-0.8
						c-0.8,0.1-1.6,0.2-2.4,0.3c0.2,0.9,0.2,1,0.7,1.8c0.5,0.8,2,0.8,2.2-0.3c0.1-0.3,0.1-0.5,0.2-0.8c-0.8-0.1-1.6-0.2-2.4-0.3
						c-0.1,0.6-0.1,1.2-0.2,1.8c-0.2,1.3,2.1,1.6,2.4,0.3c0.1-0.8,0.4-1.5,0.7-2.2c-0.8,0-1.5,0-2.3,0c0.2,1,0.5,2,0.7,3
						C80.6,564.6,82.9,564,82.6,562.5L82.6,562.5z"/>
				</g>
			</g>
			<g>
				<g>
					<path class="st0" d="M89.5,538.6c0-0.1-0.1-0.2-0.1-0.2c-0.3-0.6-1.1-0.7-1.6-0.4c-0.6,0.3-0.7,1.1-0.4,1.6
						c0,0.1,0.1,0.2,0.1,0.2c0.3,0.6,1.1,0.7,1.6,0.4C89.7,539.9,89.8,539.2,89.5,538.6L89.5,538.6z"/>
				</g>
			</g>
			<g>
				<g>
					<path class="st0" d="M82.8,539.3c-0.1-0.4-0.2-0.7-0.3-1.1c-0.1-0.6-0.9-1-1.5-0.8c-0.6,0.2-1,0.8-0.8,1.5
						c0.1,0.4,0.2,0.7,0.3,1.1c0.1,0.6,0.9,1,1.5,0.8C82.6,540.6,82.9,539.9,82.8,539.3L82.8,539.3z"/>
				</g>
			</g>
			<g>
				<g>
					<path class="st0" d="M83.7,560.8c-0.4-1.9-0.6-3.9-0.8-5.9c-0.8,0.1-1.6,0.2-2.4,0.3c0.3,2.2,0.4,4.1,0.4,6.3
						c0.8,0,1.6,0,2.4,0c-0.4-3.2-0.7-6.4-1.1-9.6c-0.8,0.1-1.6,0.2-2.4,0.3c0.4,2.6,0.5,4.6,0.2,7.1c0.8,0,1.6,0,2.4,0
						c-0.2-2.4-0.2-4.4,0.1-6.9c-0.8-0.1-1.6-0.2-2.4-0.3c0.1,0.7,0.1,1.3,0,2c0.8-0.1,1.6-0.2,2.4-0.3c-0.8-4.3-1.3-8.5-1.6-12.8
						c-0.5,0.4-1,0.8-1.5,1.2c3.6,0.6,7.1,0.8,10.8,0.9c1.4,0,1.6-2,0.3-2.4c-2-0.6-4-1.1-6-1.7c-1.5-0.4-2.1,1.9-0.6,2.3
						c3.5,1,1.5,4.1,0.5,6.7c-1,2.6-2,5.2-3,7.9c0.8,0.2,1.5,0.4,2.3,0.6c1-4.4,2.3-8.7,1.9-13.3c-0.1-1.4-1.9-1.6-2.4-0.3
						c-0.9,2.5-1.8,4.9-2.7,7.4c0.8,0,1.5,0,2.3,0c-0.4-2.6-0.2-4.9,0.5-7.3c-0.8-0.1-1.6-0.2-2.4-0.3c0.1,2.3,0,3.9-0.5,6.2
						c0.7-0.1,1.5-0.2,2.2-0.3c-1.2-2.2-1.2-4.2-0.2-6.2c-0.8,0-1.5,0-2.3,0c0.6,2.2,0.7,4.3,0.5,6.6c-0.2,1.3,2.1,1.7,2.4,0.3
						c0.5-2.8,1.4-5.1,3.2-7.3c-0.7-0.3-1.4-0.6-2-0.8c0.3,2.9,0.1,5.4-1,8.2c0.8,0.2,1.5,0.4,2.3,0.6c0.4-2,0.9-3.8,1.8-5.8
						c-0.7-0.2-1.5-0.4-2.2-0.6c0,2.6-0.3,5.1-0.8,7.6c-0.3,1.5,1.9,2.1,2.3,0.6c0.8-2.8,1.7-5.6,2.7-8.4c-0.8-0.1-1.6-0.2-2.4-0.3
						c-0.1,2.8-0.5,5.5-1.2,8.3c0.8,0.2,1.5,0.4,2.3,0.6c0.6-2.8,1.4-5.5,2.2-8.3c-0.8-0.1-1.6-0.2-2.4-0.3
						c-0.2,1.4-0.3,2.8-0.5,4.2c-0.2,1.3,2.1,1.6,2.4,0.3c0.3-1.4,0.6-2.8,0.9-4.3c-0.8-0.2-1.5-0.4-2.3-0.6
						c-0.3,1.7-0.6,3.4-0.8,5.2c-0.2,1.5,1.9,2.2,2.3,0.6c0.6-2.5,1.2-5.1,1.8-7.6c-0.8-0.1-1.6-0.2-2.4-0.3
						c-0.4,3.8-0.8,7.7-1.3,11.5c-0.1,1.3,2.1,1.6,2.4,0.3c0.4-1.9,0.7-3.8,0.9-5.7c-0.8,0-1.6,0-2.4,0c0.2,1.9,0.2,3.6,0,5.5
						c0.8,0,1.6,0,2.4,0c0-3,0-6.1,0.2-9.1c-0.8,0-1.6,0-2.4,0c-0.1,6.9,0,13.7,0.5,20.6c0.8-0.1,1.6-0.2,2.4-0.3
						c-1-3.2-1.6-6.3-1.8-9.6c-0.1-1.3-2-1.7-2.4-0.3c-0.6,2.2-1.2,4.4-1.8,6.6c0.7-0.2,1.3-0.4,2-0.5c-0.8-0.8-0.6-4.8-0.6-6
						c0-1.3-2.1-1.7-2.4-0.3c-0.5,2.5-1.1,5.1-1.6,7.6c0.7-0.2,1.3-0.4,2-0.5c-0.8-0.7,0.6-4.9,0.9-6c-0.8-0.2-1.5-0.4-2.3-0.6
						c-0.3,1.9-0.8,3.4-1.5,5.2c0.8,0.1,1.6,0.2,2.4,0.3c-0.3-1.5-0.1-2.9,0.4-4.3c-0.8-0.2-1.5-0.4-2.3-0.6
						c-0.4,1.5-0.8,2.9-1.3,4.4c0.8,0.2,1.5,0.4,2.3,0.6c0.4-2.3,1-4.4,1.7-6.6c-0.8-0.1-1.6-0.2-2.4-0.3c-0.4,2.7-1,4.7-2.1,7.2
						C82.2,560.3,83,560.6,83.7,560.8c0.7-3,1.9-5.7,3.7-8.2c-0.7-0.2-1.5-0.4-2.2-0.6c0,2.9-0.3,5.7-0.8,8.6
						c0.8,0.2,1.5,0.4,2.3,0.6c0.5-3,1.1-5.9,2.2-8.8c-0.8-0.1-1.6-0.2-2.4-0.3c0,2.7-0.1,5.3-0.4,8c0.8,0,1.6,0,2.4,0
						c0-2.2,0.3-4.3,1-6.4c-0.8-0.1-1.6-0.2-2.4-0.3c0.2,2.6,0.2,5.1-0.2,7.8c0.8-0.1,1.6-0.2,2.4-0.3c-0.6-1.8-0.6-3.6-0.2-5.4
						c-0.8-0.1-1.6-0.2-2.4-0.3c0.4,3.8,0.5,7.4,0.2,11.2c-0.1,1.5,2.3,1.5,2.4,0c0.3-3.8,0.2-7.4-0.2-11.2
						c-0.1-1.2-2.1-1.8-2.4-0.3c-0.4,2.3-0.4,4.4,0.2,6.7c0.4,1.4,2.2,0.9,2.4-0.3c0.3-2.6,0.4-5.1,0.2-7.8
						c-0.1-1.3-1.9-1.7-2.4-0.3c-0.8,2.4-1.1,4.5-1.1,7c0,1.6,2.3,1.5,2.4,0c0.2-2.7,0.4-5.3,0.4-8c0-1.4-1.9-1.5-2.4-0.3
						c-1.1,2.9-1.7,5.8-2.2,8.8c-0.2,1.5,2,2.2,2.3,0.6c0.6-3.1,0.9-6.1,0.9-9.2c0-1.3-1.6-1.5-2.2-0.6c-2,2.8-3.2,5.5-4,8.9
						c-0.3,1.3,1.6,2.2,2.2,0.9c1.3-2.7,2-5.4,2.4-8.4c0.2-1.4-1.9-1.5-2.4-0.3c-0.7,2.2-1.3,4.3-1.7,6.6c-0.3,1.5,1.8,2.1,2.3,0.6
						c0.5-1.5,1-2.9,1.3-4.4c0.4-1.5-1.9-2.1-2.3-0.6c-0.5,1.7-0.7,3.1-0.5,4.9c0.1,1.4,1.8,1.6,2.4,0.3c0.7-1.8,1.2-3.3,1.5-5.2
						c0.2-1.5-1.9-2.2-2.3-0.6c-0.5,2-2.3,6.7-0.2,8.4c0.6,0.5,1.8,0.4,2-0.5c0.5-2.5,1.1-5.1,1.6-7.6c-0.8-0.1-1.6-0.2-2.4-0.3
						c0.1,2.5-0.6,5.8,1.3,7.7c0.6,0.6,1.8,0.3,2-0.5c0.6-2.2,1.2-4.4,1.8-6.6c-0.8-0.1-1.6-0.2-2.4-0.3c0.3,3.5,0.9,6.8,1.9,10.2
						c0.4,1.2,2.4,1.1,2.4-0.3c-0.4-6.9-0.6-13.7-0.5-20.6c0-1.6-2.3-1.5-2.4,0c-0.1,3-0.2,6.1-0.2,9.1c0,1.6,2.3,1.5,2.4,0
						c0.1-1.9,0.1-3.6,0-5.5c-0.1-1.5-2.3-1.5-2.4,0c-0.1,1.7-0.4,3.4-0.8,5.1c0.8,0.1,1.6,0.2,2.4,0.3c0.4-3.8,0.8-7.7,1.3-11.5
						c0.1-1.4-2-1.6-2.4-0.3c-0.6,2.5-1.2,5.1-1.8,7.6c0.8,0.2,1.5,0.4,2.3,0.6c0.3-1.7,0.6-3.4,0.8-5.2c0.2-1.5-2-2.2-2.3-0.6
						c-0.3,1.4-0.6,2.8-0.9,4.3c0.8,0.1,1.6,0.2,2.4,0.3c0.2-1.4,0.3-2.8,0.5-4.2c0.2-1.4-2-1.6-2.4-0.3c-0.8,2.7-1.5,5.5-2.2,8.3
						c-0.3,1.5,2,2.1,2.3,0.6c0.7-3,1.1-5.9,1.3-8.9c0.1-1.4-1.9-1.5-2.4-0.3c-1,2.8-1.9,5.5-2.7,8.4c0.8,0.2,1.5,0.4,2.3,0.6
						c0.6-2.8,0.9-5.4,0.9-8.2c0-1.1-1.8-1.7-2.2-0.6c-0.9,2.1-1.5,4.1-2,6.3c-0.3,1.5,1.8,2.1,2.3,0.6c1.1-3,1.4-5.7,1.1-8.9
						c-0.1-0.9-1.3-1.8-2-0.8c-2.1,2.6-3.3,5.1-3.8,8.4c0.8,0.1,1.6,0.2,2.4,0.3c0.3-2.6,0.1-4.7-0.5-7.3c-0.3-1.2-1.9-1-2.3,0
						c-1.2,2.9-1,5.3,0.4,8c0.5,0.9,2,0.7,2.2-0.3c0.5-2.3,0.7-4.5,0.6-6.9c-0.1-1.3-2-1.7-2.4-0.3c-0.8,3-1,5.6-0.5,8.6
						c0.2,1.3,2,1,2.3,0c0.9-2.5,1.8-4.9,2.7-7.4c-0.8-0.1-1.6-0.2-2.4-0.3c0.3,4.3-0.9,8.5-1.8,12.6c-0.3,1.5,1.8,2.1,2.3,0.6
						c1.8-4.6,5.1-10.2,5.5-15.1c0-0.4-0.3-0.8-0.6-1c-1.2-0.8-2.7-1-4.1-1.4c-0.2,0.8-0.4,1.5-0.6,2.3c2,0.6,4,1.1,6,1.7
						c0.1-0.8,0.2-1.6,0.3-2.4c-3.4,0-6.7-0.2-10.1-0.8c-0.7-0.1-1.6,0.3-1.5,1.2c0.2,4.5,0.8,9,1.6,13.5c0.3,1.4,2.2,0.9,2.4-0.3
						c0.1-0.7,0.2-1.3,0-2c-0.1-1.2-2.1-1.8-2.4-0.3c-0.4,2.5-0.5,4.9-0.2,7.5c0.2,1.5,2.3,1.5,2.4,0c0.3-2.7,0.1-5.1-0.3-7.8
						c-0.2-1.3-2.5-1-2.4,0.3c0.4,3.2,0.7,6.4,1.1,9.6c0.2,1.5,2.4,1.6,2.4,0c0.1-2.3-0.1-4.6-0.4-6.9c-0.2-1.3-2.5-1-2.4,0.3
						c0.2,2.2,0.4,4.3,0.8,6.5C81.7,563,84,562.3,83.7,560.8L83.7,560.8z"/>
				</g>
			</g>
			<g>
				<g>
					<path class="st0" d="M57.3,565.1c-2.7,1.7,0.2,4.6,1.9,5.9c4.5,3.5,10.4,3.4,15.6,1.9c-0.3-0.7-0.6-1.5-0.9-2.2
						c-0.7,0.3-1.3,0.6-2,0.9c-1.5,0.2-1.5,2.6,0,2.4c5.2-0.6,10.4-1.7,15.2-3.8c3-1.3,4.4-2.4,3-5.7c-0.6-1.4-2.6-0.9-2.3,0.6
						c0.2,0.9,0.3,1.9,0.5,2.8c0.2,1.2,2.1,1.1,2.3,0c0.1-0.7,0.3-1.5,0.4-2.2c-0.8,0-1.5,0-2.3,0c0.2,0.9,0.4,1.8,0.6,2.7
						c0.3,1.4,2.3,1,2.4-0.3c0-0.9,0.1-1.7,0.1-2.6c-0.7,0.2-1.5,0.4-2.2,0.6c0.2,0.6,0.4,1.2,0.6,1.9c0.8-0.2,1.5-0.4,2.3-0.6
						c-0.1-0.5-0.2-1.1-0.4-1.6c-0.4-1.5-2.6-0.9-2.3,0.6c0.1,0.9,0.9,3.4,0.2,4.3c0,0-2.3,0.4-2.3,0.4c0.5,0.4,1,0.8,1.5,1.2
						c0.1-1.2,0.1-2.3,0.2-3.5c-0.7,0.3-1.4,0.6-2,0.8c0.2,0.4,0.4,0.8,0.6,1.2c0.3,1,2.1,1.2,2.3,0c0.1-0.5,0.2-1,0.3-1.4
						c-0.8,0-1.5,0-2.3,0c0.2,0.5,0.4,1,0.5,1.5c0.5,1.4,2.7,0.9,2.3-0.6c-0.9-3.1-2-5.9-3.6-8.8c-0.7-1.2-2.5-0.4-2.2,0.9
						c0.4,1.6,1.1,4.4-1.6,4c-2-0.3-1.5-2.1-1.5-3.6c-0.5,0.4-1,0.8-1.5,1.2c-0.1,0,3.3,0.7,3.1,0.4c1.4,1.3-0.4,1-1.2,1
						c0.4,0.5,0.8,1,1.2,1.5c-1.3-1.9-2.5-2.4-3.6-1.4c0.9-1.5,1.3-3.1,1.1-4.8c0-0.8-0.8-1.3-1.5-1.2c-5,1-3.4,9.2-1.1,12.1
						c0.6-0.6,1.1-1.1,1.7-1.7c-2-1.8-2.4-4-1.2-6.5c0.5-1-0.3-1.9-1.4-1.8c-5.5,0.8-11.1,1.6-16.6,2.5c-2,0.3-4.2,0.4-3.9,2.9
						c0.2,2,3.6,3.4,5.2,4.1c4.4,1.8,9.4,1.6,14.1,1.4c0.7,0,1.4-0.7,1.2-1.5c-0.7-2.2,0.1-5.9-2.4-6.9c-4.2-1.8-9.9,2.4-14.2,1.7
						c-1.4-0.2-2,1.4-0.9,2.2c2.8,2.1,6,3,9.5,3.2c1.8,0.1,4.5,0.7,5.6-1.1c0.7-1.2,0.2-3.4-0.9-4.1c-2.2-1.5-7.4,0.3-10,0.3
						c-1.4,0-1.5,1.9-0.3,2.4c2.9,1.2,5.7,0.6,8.7,1.3c0.1-0.8,0.2-1.6,0.3-2.4c-1-0.1-2.1-0.3-3.1-0.4c0,0.8,0,1.6,0,2.4
						c2-0.1,4.1-0.1,6.1,0c1.5,0,1.5-2.4,0-2.4c-2,0-4.1,0-6.1,0c-1.6,0.1-1.5,2.2,0,2.4c1,0.1,2.1,0.3,3.1,0.4
						c1.3,0.2,1.6-2,0.3-2.4c-2.9-0.7-6-0.1-8.7-1.3c-0.1,0.8-0.2,1.6-0.3,2.4c0.9,0,7.8-0.2,7.5,0.2c-0.5,0.6-5.5-0.6-5.6-0.6
						c-1.8-0.5-3.4-1.3-4.9-2.4c-0.3,0.7-0.6,1.5-0.9,2.2c3.1,0.6,5.2-0.3,8.2-1c0.8-0.2,5.1-1.4,5.8-0.6c0.4,0.4,0.7,4.6,0.9,5.2
						c0.4-0.5,0.8-1,1.2-1.5c-3,0.1-5.9,0.3-8.8-0.2c-1.9-0.3-3.8-0.7-5.5-1.6c-0.8-0.5-1.5-1-2.3-1.5c0.3-0.2,0.7-0.2,1-0.2
						c1.7-1.1,6.3-0.9,8.3-1.2c3.1-0.5,6.1-0.9,9.2-1.4c-0.5-0.6-0.9-1.2-1.4-1.8c-1.6,3.4-1.2,6.7,1.6,9.4c1.1,1.1,2.6-0.5,1.7-1.7
						c-0.4-0.6-2.9-7.5,0-8.1c-0.5-0.4-1-0.8-1.5-1.2c0,1.8-0.5,4.7,1.5,5.7c0.5,0.2,1,0.2,1.5-0.2c1.3-1.2,1.7-4.1-0.5-4.7
						c-2.6-0.7-3.6,2.8-3.5,4.6c0.4,7.1,8.6,1,4.3-2.8c-0.3-0.3-0.8-0.5-1.2-0.3c-2.5,0.9-4.7,5.5-1.2,6.7c3,1.1,5.1-3.4,2.8-5.3
						c-0.4-0.4-0.9-0.4-1.5-0.2c-2.6,1.3-2.8,7.1,0.9,6.9c3.2-0.2,4-6.3,0.4-6.7c-3.5-0.4-4.2,4.6-0.9,5.4c3.1,0.7,5.2-3.8,2.7-5.7
						c-0.3-0.2-0.9-0.2-1.2,0c-2.6,2,1.1,5.1,3,2.5c0.3-0.4,0.2-1.1-0.2-1.5c-1.5-1.4-3.8-0.9-4.3,1.2c-0.2,0.8,0.4,1.5,1.2,1.5
						c3.6,0.2,5.9-0.6,4.1-5.1c-0.2-0.5-0.6-0.9-1.2-0.9c-1.4,0-2.7,0.3-4.2-0.1c-0.8-0.2-1.5,0.4-1.5,1.2c-0.2,7,1.5,6.3,7.9,5.5
						c0.5-0.1,0.9-0.7,0.9-1.2c-0.2-1.8-0.5-3.5-1-5.3c-0.7,0.3-1.5,0.6-2.2,0.9c1.4,2.6,2.5,5.3,3.3,8.2c0.8-0.2,1.5-0.4,2.3-0.6
						c-0.2-0.5-0.4-1-0.5-1.5c-0.4-1-2.1-1.3-2.3,0c-0.1,0.5-0.2,1-0.3,1.4c0.8,0,1.5,0,2.3,0c-0.4-1.1-0.5-1.4-1.3-2.3
						c-0.7-0.9-2-0.1-2,0.8c-0.1,1.2-0.1,2.3-0.2,3.5c0,0.7,0.8,1.4,1.5,1.2c1.6-0.6,3.3,0.1,4.4-1.5c0.9-1.4-0.3-4.7-0.5-6.1
						c-0.8,0.2-1.5,0.4-2.3,0.6c0.1,0.5,0.2,1.1,0.4,1.6c0.4,1.5,2.6,0.9,2.3-0.6c-0.3-1.2-0.3-1.3-0.8-2.4
						c-0.5-1.2-2.2-0.5-2.2,0.6c0,0.9-0.1,1.7-0.1,2.6c0.8-0.1,1.6-0.2,2.4-0.3c-0.2-0.9-0.4-1.8-0.6-2.7c-0.3-1.1-2.1-1.2-2.3,0
						c-0.1,0.7-0.3,1.5-0.4,2.2c0.8,0,1.5,0,2.3,0c-0.2-0.9-0.3-1.9-0.5-2.8c-0.8,0.2-1.5,0.4-2.3,0.6c1.7,4.1-13.1,6.1-15.9,6.5
						c0,0.8,0,1.6,0,2.4c1.8-0.2,1.7-0.1,3.2-1.2c1.1-0.8,0.5-2.6-0.9-2.2c-2.8,0.8-5.5,1.2-8.4,0.6c-1.4-0.1-2.8-0.6-4-1.4
						c-1.2-0.8-2.2-1.7-3.2-2.7C59.8,566.4,58.6,564.3,57.3,565.1L57.3,565.1z"/>
				</g>
			</g>
			<g>
				<g>
					<path class="st0" d="M77.2,565.2c-0.6-0.3-1.2-0.8-1.6-1.4c-0.4,0.7-0.8,1.3-1.2,2c2.2,0.9,2.7,3.5,0.4,4.7
						c-1,0.5-0.6,1.8,0.3,2.2c1.4,0.5,3.3-0.6,4.6-1.2c2.4-1.1,4.7-2.3,7.3-2.6c1.5-0.2,1.5-2.6,0-2.4c-1.9,0.2-3.6,0.7-5.3,1.5
						c-1.2,0.5-4.7,2.9-5.9,2.4c0.1,0.7,0.2,1.5,0.3,2.2c2-1.1,3.3-2.5,2.8-4.9c-0.4-2.1-1.9-3.4-3.8-4.2c-1.2-0.5-1.8,1.2-1.2,2
						c0.6,0.7,1.2,1.3,2.1,1.8C77.3,568.1,78.5,566,77.2,565.2L77.2,565.2z"/>
				</g>
			</g>
			<g>
				<g>
					<path class="st0" d="M59.8,565.3c0.6-0.8,1.4-1.3,2.3-1.5c0.8-0.4,1.6-0.6,2.5-0.8c1.7-0.4,3.5-0.5,5.3-0.5
						c2.8,0,5.6,0.4,8.4,0.7c-0.2-0.7-0.4-1.5-0.6-2.2c-1.9,1.1-5.9,0.6-8.1,0.8c-2.5,0.2-5,0.3-7.5,0.5c-1.5,0.1-1.5,2.5,0,2.4
						c3.5-0.2,7-0.5,10.5-0.7c2-0.1,4.5,0.1,6.4-0.9c1.1-0.6,0.5-2.1-0.6-2.2c-6-0.7-12.2-1.4-17.9,1.1c-2.5,1.1-5.5,4.6-1.2,5.7
						C60.7,568.1,61.3,565.7,59.8,565.3L59.8,565.3z"/>
				</g>
			</g>
			<g>
				<g>
					<path class="st1" d="M82.2,534.4c-1,0.1-2.1,0.1-3.1-0.1c0,0.8,0,1.6,0,2.4c1.6,0.1,3.2,0.2,4.9,0.3c1.5,0.1,1.5-2.3,0-2.4
						c-1.6-0.1-3.2-0.2-4.9-0.3c-1.6-0.1-1.5,2.2,0,2.4c1,0.1,2.1,0.1,3.1,0.1C83.8,536.7,83.8,534.3,82.2,534.4L82.2,534.4z"/>
				</g>
			</g>
			<g>
				<g>
					<path class="st2" d="M80.6,534.7c-0.8,0-1.5-0.1-2.3-0.1c-1.5-0.3-2.1,1.8-0.6,2.3c0.4,0.2,0.9,0.3,1.4,0.4
						c0.1-0.8,0.2-1.6,0.3-2.4c-0.2,1,0.1,1.4,1.1,1.2c0.8,0.1,1.6,0.2,2.3,0.4c0.9,0.1,1.7,0.2,2.6,0.3c2.2,0.1,4.3-0.3,6.4-0.9
						c-0.5-0.4-1-0.8-1.5-1.2c0,0.7-0.1,1.3-0.4,1.9c0.5-0.3,1-0.6,1.5-0.8c-1.3-0.5-2.5-0.4-3.8-0.3c-1.5,0.1-3-0.3-4.5-0.2
						c-1.2,0-1.6,1.6-0.6,2.2c1.1,0.7,2.1,0.8,3.3,0.5c1.5-0.4,0.9-2.7-0.6-2.3c-0.5-0.1-1-0.2-1.5-0.3c-0.2,0.7-0.4,1.5-0.6,2.2
						c1.3,0,2.5,0.4,3.7,0.3c1.4-0.1,2.6-0.4,4,0.1c0.6,0.2,1.3-0.3,1.5-0.8c0.3-0.9,0.4-1.7,0.4-2.6c0-0.8-0.8-1.4-1.5-1.2
						c-2.9,0.9-5.6,0.9-8.6,0.5c-1.3-0.2-3.5-0.8-4.7-0.1c-1.9,1.2-0.4,3.6,1.5,3.5c1.3-0.1,1.7-2.1,0.3-2.4c-0.5,0-1-0.2-1.4-0.4
						c-0.2,0.8-0.4,1.5-0.6,2.3c1.3,0.3,2.3,0.3,3.6,0.1C82.7,536.8,82.1,534.5,80.6,534.7L80.6,534.7z"/>
				</g>
			</g>
			<g>
				<g>
					<path class="st2" d="M77.1,535.2c-0.8,0.9-0.4,2.3,0.8,2.6c0.6,0.1,1.2-0.1,1.8-0.3c0.6-0.1,1.2-0.3,1.8-0.4
						c1.5-0.4,0.9-2.7-0.6-2.3c-0.5,0.1-0.9,0.2-1.4,0.3c-0.2,0.1-0.4,0.1-0.6,0.2c-0.1,0-0.2,0-0.3,0.1c-0.3,0-0.3,0.1-0.1,0.1
						c0.1,0.1,0.3,0.3,0.4,0.4c0,0,0,0,0,0.1c0,0.2,0,0.4,0,0.6c0,0,0-0.1,0-0.1c-0.1,0.2-0.2,0.4-0.3,0.5c0,0,0-0.1,0.1-0.1
						c0.4-0.5,0.5-1.2,0-1.7C78.4,534.7,77.5,534.6,77.1,535.2L77.1,535.2z"/>
				</g>
			</g>
			<g>
				<g>
					<path class="st0" d="M90.7,564.1c0-0.2-0.1-0.4-0.1-0.6c-0.8,0.1-1.6,0.2-2.4,0.3c0.1,0.4,0.3,0.8,0.4,1.2
						c0.7-0.3,1.5-0.6,2.2-0.9c-0.1-0.2-0.2-0.5-0.3-0.8c-0.7,0.2-1.5,0.4-2.2,0.6c0.1,0.2,0.2,0.5,0.2,0.8c0.7-0.3,1.5-0.6,2.2-0.9
						c0,0.2,0.1,0.2,0.1,0c0.1-0.6-0.6-1.2-1.2-1.2c-0.7,0-1.1,0.6-1.2,1.2c0,0.4,0.1,0.8,0.3,1.2c0.2,0.5,1,0.7,1.5,0.5
						c0.6-0.3,0.8-0.8,0.7-1.4c-0.1-0.5-0.3-0.9-0.4-1.3c-0.5-1.1-2.4-0.6-2.2,0.6c0.1,0.7,0.2,1.4,0.6,2c0.6,1.2,2.6,0.4,2.2-0.9
						c-0.1-0.4-0.3-0.8-0.4-1.2c-0.2-0.6-0.7-1-1.3-0.9c-0.5,0.1-1.1,0.6-1,1.2c0,0.2,0.1,0.4,0.1,0.6c0.1,0.6,0.5,1.2,1.2,1.2
						C90.1,565.3,90.8,564.8,90.7,564.1L90.7,564.1z"/>
				</g>
			</g>
			<g>
				<g>
					<path class="st0" d="M89.8,540.4c-0.1,1.4-0.3,2.8-0.4,4.3c-0.1,1.4,1.9,1.5,2.4,0.3c0.6-1.7,1-3.3,1.2-5.1
						c0.2-1.5-2.2-1.5-2.4,0c-0.2,1.5-0.6,3-1.1,4.4c0.8,0.1,1.6,0.2,2.4,0.3c0.1-1.4,0.3-2.8,0.4-4.3
						C92.4,538.8,90,538.8,89.8,540.4L89.8,540.4z"/>
				</g>
			</g>
		</g>
		<g>
			<g>
				<g>
					<path d="M57.6,571.1c7.7,6.2,21,2.5,29.4,0.2c0.7-0.2,0.4-1.4-0.3-1.2c-8,2.1-20.9,6-28.2,0.1C57.8,569.8,57,570.6,57.6,571.1
						L57.6,571.1z"/>
				</g>
			</g>
			<g>
				<g>
					<path d="M86.1,571c0.1,0.9-0.2,2.7,0.9,3.1c0.5,0.2,1,0.1,1.5,0c0.7-0.1,1.4-0.2,2.1-0.3c0.8-0.1,0.8-1.3,0-1.2
						c-0.9,0.1-1.7,0.2-2.6,0.3c-0.5,0.1-0.6,0.1-0.7-0.4c-0.1-0.5-0.1-1-0.1-1.5C87.3,570.2,86.1,570.2,86.1,571L86.1,571z"/>
				</g>
			</g>
			<g>
				<g>
					<path d="M58.8,570.5c-3.2-2.6-1.5-6.8,1.6-8.5c2.5-1.3,5.4-1.3,8.1-1.3c3.4-0.1,6.8,0.1,10.1,0.3c0.8,0,0.8-1.2,0-1.2
						c-5.9-0.4-14.9-1.9-20,2c-3.2,2.4-4.1,6.9-0.7,9.6C58.5,571.8,59.4,571,58.8,570.5L58.8,570.5z"/>
				</g>
			</g>
			<g>
				<g>
					<path d="M78.6,560.1c-0.8-8.8-1.3-17.6-1.5-26.4c0-0.8-1.2-0.8-1.2,0c0.1,8.8,0.6,17.6,1.5,26.4
						C77.5,560.9,78.7,560.9,78.6,560.1L78.6,560.1z"/>
				</g>
			</g>
			<g>
				<g>
					<path d="M91.1,572.3c0,0-0.1,0-0.1,0c-0.8,0-0.8,1.2,0,1.2c0,0,0.1,0,0.1,0C91.9,573.5,91.9,572.3,91.1,572.3L91.1,572.3z"/>
				</g>
			</g>
			<g>
				<g>
					<path d="M90.8,574c1-0.3,1.9-0.1,2.5-1c0.6-1-0.2-3.7-0.2-4.7c-0.2-2.2-0.3-4.5-0.3-6.7c-0.3-9.3,0.3-18.5,0.9-27.8
						c0-0.8-1.2-0.8-1.2,0c-0.4,7.3-0.9,14.7-0.9,22c0,3.5,0.1,7,0.3,10.5c0.2,2.6,1.6,5.6-1.3,6.5C89.7,573,90.1,574.2,90.8,574
						L90.8,574z"/>
				</g>
			</g>
			<g>
				<g>
					<path d="M76.9,534.7c2.9-0.7,5.7-0.3,8.6-0.2c2.6,0.1,5.1-0.6,7.7-0.5c0.8,0,0.8-1.2,0-1.2c-3-0.1-5.9,0.6-8.9,0.4
						c-2.6-0.2-5.1-0.3-7.7,0.3C75.9,533.7,76.2,534.9,76.9,534.7L76.9,534.7z"/>
				</g>
			</g>
			<g>
				<g>
					<path d="M76.4,537.2c0.5,1.2,1.9,1.8,3,1c0.6-0.4,0-1.5-0.6-1c-0.4,0.3-1,0.2-1.2-0.3C77.3,536.1,76.2,536.4,76.4,537.2
						L76.4,537.2z"/>
				</g>
			</g>
			<g>
				<g>
					<path d="M79.2,537.9c0.9,0.6,2,0.7,3,0.1c0.7-0.4,0.1-1.4-0.6-1c-0.6,0.3-1.2,0.3-1.8-0.1C79.2,536.4,78.6,537.4,79.2,537.9
						L79.2,537.9z"/>
				</g>
			</g>
			<g>
				<g>
					<path d="M82.1,538.3c0.9,1.1,2.4,1.1,3.5,0.3c0.6-0.5-0.3-1.3-0.8-0.8c-0.6,0.4-1.3,0.2-1.8-0.3
						C82.4,536.8,81.6,537.7,82.1,538.3L82.1,538.3z"/>
				</g>
			</g>
			<g>
				<g>
					<path d="M85.5,538.9c1,0.2,2.1,0,3-0.6c0.6-0.4,0-1.5-0.6-1c-0.6,0.4-1.3,0.6-2,0.5C85,537.6,84.7,538.7,85.5,538.9L85.5,538.9
						z"/>
				</g>
			</g>
			<g>
				<g>
					<path d="M88.2,538.2c0.9,0.6,1.9,0.7,3,0.5c0.8-0.2,0.4-1.3-0.3-1.2c-0.7,0.1-1.4,0-2.1-0.4C88.1,536.7,87.5,537.8,88.2,538.2
						L88.2,538.2z"/>
				</g>
			</g>
			<g>
				<g>
					<path d="M91.4,538.9c0.4,0,0.7-0.1,1-0.4c0.6-0.5-0.3-1.4-0.8-0.8c0,0.1-0.1,0.1-0.2,0.1C90.6,537.7,90.6,538.9,91.4,538.9
						L91.4,538.9z"/>
				</g>
			</g>
			<g>
				<g>
					<path d="M79.1,546c0.8,0,0.8-1.2,0-1.2C78.4,544.8,78.4,546,79.1,546L79.1,546z"/>
				</g>
			</g>
			<g>
				<g>
					<path d="M78.7,549.2c0.1,0.1,0.2,0.2,0.3,0.2c0.5,0.5,1.4-0.3,0.8-0.8c-0.1-0.1-0.2-0.2-0.3-0.2
						C79,547.8,78.1,548.6,78.7,549.2L78.7,549.2z"/>
				</g>
			</g>
			<g>
				<g>
					<path d="M79.8,553.9c-0.2,0-0.3,0-0.5,0c-0.1-0.1-0.1-0.3-0.2-0.4c0,0,0,0.1,0,0.1c0.1,0.8,1.3,0.8,1.2,0
						c-0.1-0.7-0.9-1.1-1.4-0.5C78.5,553.7,79.3,554.5,79.8,553.9L79.8,553.9z"/>
				</g>
			</g>
			<g>
				<g>
					<path d="M67.1,561c0,1.1,0.4,2.1,1.3,2.8c0.6,0.5,1.4-0.4,0.8-0.8c-0.6-0.5-0.9-1.2-0.9-1.9C68.3,560.2,67.1,560.2,67.1,561
						L67.1,561z"/>
				</g>
			</g>
			<g>
				<g>
					<path d="M70.4,560.8c0.1,1.2,0.8,2.3,1.8,3c0.6,0.4,1.2-0.6,0.6-1c-0.7-0.4-1.1-1.2-1.2-2C71.5,560,70.3,560,70.4,560.8
						L70.4,560.8z"/>
				</g>
			</g>
			<g>
				<g>
					<path d="M74,560.9c-0.1,1.2,0.5,2.3,1.6,2.9c0.7,0.4,1.3-0.7,0.6-1c-0.7-0.4-1.1-1.1-1-1.8C75.3,560.1,74.1,560.1,74,560.9
						L74,560.9z"/>
				</g>
			</g>
		</g>
	</g>
	<g>
		<g>
			<g>
				<g>
					<path class="st0" d="M119.5,563.3c0.2-1,0.5-2,0.7-3c-0.8,0-1.5,0-2.3,0c0.3,0.7,0.6,1.5,0.7,2.2c0.3,1.3,2.5,1,2.4-0.3
						c-0.1-0.6-0.1-1.2-0.2-1.8c-0.8,0.1-1.6,0.2-2.4,0.3c0.1,0.3,0.1,0.5,0.2,0.8c0.2,1,1.7,1.1,2.2,0.3c0.5-0.8,0.5-0.9,0.7-1.8
						c-0.8-0.1-1.6-0.2-2.4-0.3c0,0.3,0,0.5,0,0.8c0.1,1.5,2.4,1.6,2.4,0c-0.1-2.9,0-5.7,0.1-8.6c-0.8,0.1-1.6,0.2-2.4,0.3
						c0.2,1.2,0.4,2.4,0.6,3.6c0.2,1.4,2.3,1,2.4-0.3c0.3-5.4,0.6-10.8,1-16.3c0.1-1-1-1.4-1.8-1c-0.7,0.3-4.4,0.3-5.3,0.4
						c-2.5,0.5-4.8-0.3-7.3,0.4c0.5,0.4,1,0.8,1.5,1.2c0-0.2,0-0.4,0-0.6c0.1-1.5-2.3-1.5-2.4,0c0,0.2,0,0.4,0,0.6
						c-0.1,0.8,0.8,1.4,1.5,1.2c4.1-1.2,9.2,0.9,13.2-1.1c-0.6-0.3-1.2-0.7-1.8-1c-0.3,5.4-0.6,10.8-1,16.3c0.8-0.1,1.6-0.2,2.4-0.3
						c-0.2-1.2-0.4-2.4-0.6-3.6c-0.2-1.4-2.3-1-2.4,0.3c-0.1,2.9-0.2,5.7-0.1,8.6c0.8,0,1.6,0,2.4,0c0-0.3,0-0.5,0-0.8
						c-0.1-1.3-2.1-1.7-2.4-0.3c-0.2,0.4-0.3,0.8-0.5,1.3c0.7,0.1,1.5,0.2,2.2,0.3c-0.1-0.3-0.1-0.5-0.2-0.8c-0.3-1.3-2.5-1-2.4,0.3
						c0.1,0.6,0.1,1.2,0.2,1.8c0.8-0.1,1.6-0.2,2.4-0.3c-0.1-0.8-0.4-1.5-0.7-2.2c-0.4-1-2-1.3-2.3,0c-0.2,1-0.5,2-0.7,3
						C116.9,564.2,119.2,564.8,119.5,563.3L119.5,563.3z"/>
				</g>
			</g>
			<g>
				<g>
					<path class="st0" d="M112.3,540.1c0-0.1,0.1-0.2,0.1-0.2c0.3-0.6,0.2-1.3-0.4-1.6c-0.5-0.3-1.3-0.1-1.6,0.4
						c0,0.1-0.1,0.2-0.1,0.2c-0.3,0.6-0.2,1.3,0.4,1.6C111.2,540.8,112,540.6,112.3,540.1L112.3,540.1z"/>
				</g>
			</g>
			<g>
				<g>
					<path class="st0" d="M119.3,540.1c0.1-0.4,0.2-0.7,0.3-1.1c0.1-0.6-0.2-1.3-0.8-1.5c-0.6-0.2-1.3,0.2-1.5,0.8
						c-0.1,0.4-0.2,0.7-0.3,1.1c-0.1,0.6,0.2,1.3,0.8,1.5C118.4,541.2,119.2,540.8,119.3,540.1L119.3,540.1z"/>
				</g>
			</g>
			<g>
				<g>
					<path class="st0" d="M118.4,561.7c0.4-2.2,0.7-4.3,0.8-6.5c0.1-1.3-2.2-1.7-2.4-0.3c-0.3,2.3-0.5,4.6-0.4,6.9
						c0,1.6,2.2,1.5,2.4,0c0.4-3.2,0.7-6.4,1.1-9.6c0.1-1.3-2.1-1.7-2.4-0.3c-0.4,2.6-0.6,5.1-0.3,7.8c0.1,1.5,2.2,1.5,2.4,0
						c0.3-2.6,0.2-5-0.2-7.5c-0.2-1.4-2.2-0.9-2.4,0.3c-0.1,0.7-0.1,1.3,0,2c0.1,1.2,2.1,1.8,2.4,0.3c0.9-4.5,1.4-8.9,1.6-13.5
						c0-0.9-0.8-1.3-1.5-1.2c-3.4,0.5-6.7,0.8-10.1,0.8c0.1,0.8,0.2,1.6,0.3,2.4c2-0.6,4-1.1,6-1.7c-0.2-0.8-0.4-1.5-0.6-2.3
						c-1.4,0.4-2.8,0.7-4.1,1.4c-0.3,0.2-0.6,0.6-0.6,1c0.4,4.9,3.7,10.5,5.5,15.1c0.5,1.4,2.7,0.9,2.3-0.6
						c-0.9-4.2-2.2-8.3-1.8-12.6c-0.8,0.1-1.6,0.2-2.4,0.3c0.9,2.5,1.8,4.9,2.7,7.4c0.4,1,2.1,1.3,2.3,0c0.5-3,0.3-5.6-0.5-8.6
						c-0.4-1.3-2.3-1-2.4,0.3c-0.1,2.4,0,4.6,0.6,6.9c0.2,1,1.7,1.2,2.2,0.3c1.4-2.8,1.6-5.1,0.4-8c-0.4-1-2-1.2-2.3,0
						c-0.7,2.5-0.9,4.7-0.5,7.3c0.8-0.1,1.6-0.2,2.4-0.3c-0.5-3.3-1.8-5.8-3.8-8.4c-0.7-0.9-1.9-0.1-2,0.8c-0.4,3.2-0.1,5.9,1.1,8.9
						c0.5,1.4,2.6,0.9,2.3-0.6c-0.5-2.2-1.1-4.3-2-6.3c-0.5-1.1-2.2-0.5-2.2,0.6c0,2.8,0.3,5.5,0.9,8.2c0.8-0.2,1.5-0.4,2.3-0.6
						c-0.8-2.8-1.7-5.6-2.7-8.4c-0.4-1.2-2.4-1.1-2.4,0.3c0.1,3,0.6,6,1.3,8.9c0.4,1.5,2.7,0.9,2.3-0.6c-0.6-2.8-1.4-5.5-2.2-8.3
						c-0.4-1.2-2.5-1.1-2.4,0.3c0.2,1.4,0.3,2.8,0.5,4.2c0.8-0.1,1.6-0.2,2.4-0.3c-0.3-1.4-0.6-2.8-0.9-4.3
						c-0.3-1.5-2.6-0.9-2.3,0.6c0.3,1.7,0.6,3.4,0.8,5.2c0.8-0.2,1.5-0.4,2.3-0.6c-0.6-2.5-1.2-5.1-1.8-7.6c-0.3-1.3-2.5-1-2.4,0.3
						c0.4,3.8,0.8,7.7,1.3,11.5c0.8-0.1,1.6-0.2,2.4-0.3c-0.4-1.7-0.7-3.4-0.8-5.1c-0.1-1.5-2.3-1.5-2.4,0c-0.2,1.9-0.2,3.6,0,5.5
						c0.1,1.5,2.4,1.6,2.4,0c0-3,0-6.1-0.2-9.1c-0.1-1.5-2.4-1.6-2.4,0c0.1,6.9,0,13.7-0.5,20.6c-0.1,1.4,2,1.6,2.4,0.3
						c1-3.4,1.6-6.7,1.9-10.2c-0.8,0.1-1.6,0.2-2.4,0.3c0.6,2.2,1.2,4.4,1.8,6.6c0.2,0.9,1.4,1.2,2,0.5c1.9-1.9,1.2-5.2,1.3-7.7
						c-0.8,0.1-1.6,0.2-2.4,0.3c0.5,2.5,1.1,5.1,1.6,7.6c0.2,1,1.4,1.1,2,0.5c2-1.7,0.3-6.3-0.2-8.4c-0.4-1.5-2.6-0.9-2.3,0.6
						c0.3,1.9,0.8,3.4,1.5,5.2c0.5,1.3,2.2,1.1,2.4-0.3c0.2-1.9,0-3.2-0.5-4.9c-0.5-1.5-2.7-0.9-2.3,0.6c0.4,1.5,0.8,2.9,1.3,4.4
						c0.5,1.5,2.6,0.9,2.3-0.6c-0.4-2.3-1-4.4-1.7-6.6c-0.4-1.2-2.5-1.1-2.4,0.3c0.4,3,1.2,5.7,2.4,8.4c0.6,1.3,2.5,0.3,2.2-0.9
						c-0.7-3.4-2-6.1-4-8.9c-0.7-0.9-2.2-0.7-2.2,0.6c0,3.1,0.3,6.1,0.9,9.2c0.3,1.5,2.6,0.9,2.3-0.6c-0.5-3-1.1-5.9-2.2-8.8
						c-0.5-1.2-2.4-1.1-2.4,0.3c0,2.7,0.1,5.3,0.4,8c0.1,1.5,2.4,1.6,2.4,0c0-2.5-0.3-4.7-1.1-7c-0.4-1.3-2.2-1-2.4,0.3
						c-0.2,2.6-0.2,5.1,0.2,7.8c0.2,1.2,2,1.7,2.4,0.3c0.6-2.3,0.6-4.4,0.2-6.7c-0.2-1.4-2.2-0.9-2.4,0.3c-0.4,3.8-0.5,7.4-0.2,11.2
						c0.1,1.5,2.5,1.5,2.4,0c-0.3-3.8-0.2-7.4,0.2-11.2c-0.8,0.1-1.6,0.2-2.4,0.3c0.4,1.8,0.4,3.6-0.2,5.4c0.8,0.1,1.6,0.2,2.4,0.3
						c-0.3-2.6-0.4-5.1-0.2-7.8c-0.8,0.1-1.6,0.2-2.4,0.3c0.7,2.1,1,4.2,1,6.4c0.8,0,1.6,0,2.4,0c-0.2-2.7-0.4-5.3-0.4-8
						c-0.8,0.1-1.6,0.2-2.4,0.3c1.1,2.9,1.7,5.8,2.2,8.8c0.8-0.2,1.5-0.4,2.3-0.6c-0.6-2.9-0.8-5.7-0.8-8.6
						c-0.7,0.2-1.5,0.4-2.2,0.6c1.9,2.6,3.1,5.2,3.7,8.3c0.7-0.3,1.5-0.6,2.2-0.9c-1.2-2.5-1.8-4.5-2.1-7.2
						c-0.8,0.1-1.6,0.2-2.4,0.3c0.7,2.2,1.3,4.3,1.7,6.6c0.8-0.2,1.5-0.4,2.3-0.6c-0.5-1.5-1-2.9-1.3-4.4c-0.8,0.2-1.5,0.4-2.3,0.6
						c0.6,1.4,0.7,2.8,0.4,4.3c0.8-0.1,1.6-0.2,2.4-0.3c-0.7-1.8-1.2-3.3-1.5-5.2c-0.8,0.2-1.5,0.4-2.3,0.6c0.3,1.1,1.6,5.4,0.9,6
						c0.7,0.2,1.3,0.4,2,0.5c-0.5-2.5-1.1-5.1-1.6-7.6c-0.3-1.4-2.3-1-2.4,0.3c0,1.2,0.2,5.2-0.6,6c0.7,0.2,1.3,0.4,2,0.5
						c-0.6-2.2-1.2-4.4-1.8-6.6c-0.4-1.4-2.3-1-2.4,0.3c-0.3,3.3-0.9,6.4-1.8,9.6c0.8,0.1,1.6,0.2,2.4,0.3
						c0.4-6.9,0.6-13.7,0.5-20.6c-0.8,0-1.6,0-2.4,0c0.1,3,0.2,6.1,0.2,9.1c0.8,0,1.6,0,2.4,0c-0.1-1.9-0.1-3.6,0-5.5
						c-0.8,0-1.6,0-2.4,0c0.2,2,0.5,3.8,0.9,5.7c0.3,1.3,2.5,1,2.4-0.3c-0.4-3.8-0.8-7.7-1.3-11.5c-0.8,0.1-1.6,0.2-2.4,0.3
						c0.6,2.5,1.2,5.1,1.8,7.6c0.4,1.5,2.6,0.9,2.3-0.6c-0.3-1.7-0.6-3.4-0.8-5.2c-0.8,0.2-1.5,0.4-2.3,0.6c0.3,1.4,0.6,2.8,0.9,4.3
						c0.3,1.3,2.5,1,2.4-0.3c-0.2-1.4-0.3-2.8-0.5-4.2c-0.8,0.1-1.6,0.2-2.4,0.3c0.8,2.7,1.5,5.5,2.2,8.3c0.8-0.2,1.5-0.4,2.3-0.6
						c-0.7-2.7-1-5.5-1.2-8.3c-0.8,0.1-1.6,0.2-2.4,0.3c1,2.8,1.9,5.5,2.7,8.4c0.4,1.5,2.6,0.9,2.3-0.6c-0.5-2.5-0.8-5-0.8-7.6
						c-0.7,0.2-1.5,0.4-2.2,0.6c0.8,2,1.3,3.7,1.8,5.8c0.8-0.2,1.5-0.4,2.3-0.6c-1-2.8-1.3-5.3-1-8.2c-0.7,0.3-1.4,0.6-2,0.8
						c1.8,2.2,2.8,4.5,3.2,7.3c0.2,1.3,2.5,1,2.4-0.3c-0.3-2.3-0.2-4.4,0.5-6.6c-0.8,0-1.5,0-2.3,0c1.1,1.9,1,4-0.2,6.2
						c0.7,0.1,1.5,0.2,2.2,0.3c-0.5-2.3-0.6-4-0.5-6.2c-0.8,0.1-1.6,0.2-2.4,0.3c0.7,2.5,0.9,4.7,0.5,7.3c0.8,0,1.5,0,2.3,0
						c-0.9-2.5-1.8-4.9-2.7-7.4c-0.5-1.3-2.3-1.1-2.4,0.3c-0.3,4.5,1,8.9,1.9,13.3c0.8-0.2,1.5-0.4,2.3-0.6c-1-2.6-2-5.2-3-7.9
						c-1-2.5-3.1-5.7,0.5-6.7c1.5-0.4,0.9-2.7-0.6-2.3c-2,0.6-4,1.1-6,1.7c-1.3,0.4-1,2.4,0.3,2.4c3.6,0,7.2-0.3,10.8-0.9
						c-0.5-0.4-1-0.8-1.5-1.2c-0.2,4.3-0.7,8.6-1.6,12.8c0.8,0.1,1.6,0.2,2.4,0.3c-0.1-0.7-0.2-1.3,0-2c-0.8,0.1-1.6,0.2-2.4,0.3
						c0.4,2.5,0.4,4.4,0.1,6.9c0.8,0,1.6,0,2.4,0c-0.2-2.5-0.2-4.5,0.2-7.1c-0.8-0.1-1.6-0.2-2.4-0.3c-0.4,3.2-0.7,6.4-1.1,9.6
						c0.8,0,1.6,0,2.4,0c-0.1-2.2,0-4.1,0.4-6.3c-0.8-0.1-1.6-0.2-2.4-0.3c-0.1,2-0.4,3.9-0.8,5.9
						C115.8,562.5,118.1,563.2,118.4,561.7L118.4,561.7z"/>
				</g>
			</g>
			<g>
				<g>
					<path class="st0" d="M141.3,567.4c-1,1-2.1,1.9-3.2,2.7c-1.2,0.8-2.6,1.2-4,1.4c-2.9,0.6-5.6,0.1-8.4-0.6
						c-1.4-0.4-2,1.4-0.9,2.2c1.5,1.1,1.4,1,3.2,1.2c0-0.8,0-1.6,0-2.4c-2.9-0.3-17.6-2.4-15.9-6.5c-0.8-0.2-1.5-0.4-2.3-0.6
						c-0.2,0.9-0.3,1.9-0.5,2.8c0.8,0,1.5,0,2.3,0c-0.1-0.7-0.3-1.5-0.4-2.2c-0.2-1.2-2.1-1.1-2.3,0c-0.2,0.9-0.4,1.8-0.6,2.7
						c0.8,0.1,1.6,0.2,2.4,0.3c0-0.9-0.1-1.7-0.1-2.6c-0.1-1.1-1.7-1.8-2.2-0.6c-0.5,1.1-0.6,1.2-0.8,2.4c-0.3,1.5,2,2.1,2.3,0.6
						c0.1-0.5,0.2-1.1,0.4-1.6c-0.8-0.2-1.5-0.4-2.3-0.6c-0.2,1.4-1.5,4.6-0.5,6.1c1,1.6,2.8,1,4.4,1.5c0.7,0.3,1.6-0.4,1.5-1.2
						c-0.1-1.2-0.1-2.3-0.2-3.5c0-0.9-1.3-1.7-2-0.8c-0.8,0.9-0.9,1.1-1.3,2.3c0.8,0,1.5,0,2.3,0c-0.1-0.5-0.2-1-0.3-1.4
						c-0.2-1.3-2-1-2.3,0c-0.2,0.5-0.4,1-0.5,1.5c0.8,0.2,1.5,0.4,2.3,0.6c0.8-2.9,1.9-5.6,3.3-8.2c-0.7-0.3-1.5-0.6-2.2-0.9
						c-0.4,1.8-0.7,3.5-1,5.3c-0.1,0.5,0.4,1.1,0.9,1.2c6.4,0.9,8.1,1.6,7.9-5.5c0-0.8-0.7-1.4-1.5-1.2c-1.5,0.4-2.8,0.1-4.2,0.1
						c-0.6,0-1,0.4-1.2,0.9c-1.7,4.5,0.5,5.3,4.1,5.1c0.8,0,1.4-0.7,1.2-1.5c-0.6-2.1-2.8-2.6-4.3-1.2c-0.4,0.3-0.5,1-0.2,1.5
						c1.9,2.7,5.7-0.4,3-2.5c-0.3-0.2-0.9-0.2-1.2,0c-2.3,1.7-0.8,5.9,2.1,5.8c3.8-0.1,3.5-5.9-0.4-5.5c-3.5,0.4-2.9,6.3,0.2,6.7
						c3.7,0.5,3.8-5.5,1.1-6.8c-0.5-0.3-1-0.2-1.5,0.2c-2.3,1.9-0.2,6.4,2.8,5.3c3.5-1.3,1.4-5.8-1.2-6.7c-0.4-0.2-0.9,0-1.2,0.3
						c-4.3,3.8,3.9,9.9,4.3,2.8c0.1-1.8-0.8-5.3-3.5-4.6c-2.2,0.6-1.8,3.5-0.5,4.7c0.4,0.4,1,0.4,1.5,0.2c2-0.9,1.5-3.9,1.5-5.7
						c-0.5,0.4-1,0.8-1.5,1.2c2.9,0.6,0.5,7.5,0,8.1c-0.9,1.2,0.6,2.8,1.7,1.7c2.7-2.7,3.2-6,1.6-9.4c-0.5,0.6-0.9,1.2-1.4,1.8
						c2.8,0.4,5.5,0.8,8.3,1.2c2,0.3,7.5,0.2,9.2,1.4c1.3,0.9,1.4-1-0.1,1c-1.1,1.4-3.5,1.8-5.2,2.2c-3.4,0.8-6.9,0.5-10.4,0.4
						c0.4,0.5,0.8,1,1.2,1.5c0.3-0.9,0.5-4.6,0.9-5.2c0.6-0.9,4.8,0.4,5.8,0.6c2.9,0.7,5.2,1.5,8.2,1c-0.3-0.7-0.6-1.5-0.9-2.2
						c-2.1,1.5-7.9,4.5-10.5,3c-1.1-0.6,4.5-0.4,2.6-0.4c1.6,0,3.3,0.2,4.9,0.2c-0.1-0.8-0.2-1.6-0.3-2.4c-2.8,1.2-5.8,0.6-8.7,1.3
						c-1.3,0.3-1,2.5,0.3,2.4c1-0.1,2.1-0.3,3.1-0.4c1.5-0.2,1.6-2.3,0-2.4c-2-0.1-4.1-0.1-6.1,0c-1.5,0-1.5,2.4,0,2.4
						c2,0,4.1,0,6.1,0c0-0.8,0-1.6,0-2.4c-1,0.1-2.1,0.3-3.1,0.4c0.1,0.8,0.2,1.6,0.3,2.4c3-0.7,5.9-0.1,8.7-1.3
						c1.2-0.5,1.1-2.3-0.3-2.4c-2.6,0-7.6-1.7-9.9-0.4c-1.2,0.7-1.8,3-1,4.2c1,1.6,3.2,1.2,4.9,1.1c3.8-0.2,7.2-1.1,10.2-3.3
						c1.1-0.8,0.4-2.4-0.9-2.2c-4.3,0.8-10-3.4-14.2-1.7c-2.5,1-1.6,4.8-2.4,6.9c-0.3,0.8,0.4,1.5,1.2,1.5c4.6,0.2,9.5,0.4,13.9-1.4
						c1.7-0.7,5-2.1,5.3-4.1c0.3-2-1.3-2.4-3-2.7c-5.8-1.2-11.7-1.8-17.5-2.6c-1.1-0.2-1.8,0.8-1.4,1.8c1.2,2.5,0.8,4.7-1.2,6.5
						c0.6,0.6,1.1,1.1,1.7,1.7c2.3-2.9,3.9-11.1-1.1-12.1c-0.8-0.2-1.5,0.3-1.5,1.2c-0.2,1.7,0.1,3.3,1.1,4.8
						c-1.1-1-2.4-0.5-3.6,1.4c0.4-0.5,0.8-1,1.2-1.5c-0.8,0-2.5,0.4-1.2-1c-0.3,0.3,3.2-0.4,3.1-0.4c-0.5-0.4-1-0.8-1.5-1.2
						c0,1.6,0.6,3.1-1.5,3.6c-2.6,0.6-1.9-2.5-1.6-4c0.3-1.3-1.5-2.2-2.2-0.9c-1.6,2.8-2.7,5.7-3.6,8.8c-0.4,1.5,1.8,2.1,2.3,0.6
						c0.2-0.5,0.4-1,0.5-1.5c-0.8,0-1.5,0-2.3,0c0.1,0.5,0.2,1,0.3,1.4c0.2,1.2,2,1,2.3,0c0.2-0.4,0.4-0.8,0.6-1.2
						c-0.7-0.3-1.4-0.6-2-0.8c0.1,1.2,0.1,2.3,0.2,3.5c0.5-0.4,1-0.8,1.5-1.2c0.4,0.1-2.8-0.9-2.3-0.4c-0.8-0.8,0-3.4,0.2-4.3
						c0.2-1.5-2-2.2-2.3-0.6c-0.1,0.5-0.2,1.1-0.4,1.6c0.8,0.2,1.5,0.4,2.3,0.6c0.2-0.6,0.4-1.2,0.6-1.9c-0.7-0.2-1.5-0.4-2.2-0.6
						c0,0.9,0.1,1.7,0.1,2.6c0.1,1.3,2,1.7,2.4,0.3c0.2-0.9,0.4-1.8,0.6-2.7c-0.8,0-1.5,0-2.3,0c0.1,0.7,0.3,1.5,0.4,2.2
						c0.2,1.1,2.1,1.2,2.3,0c0.2-0.9,0.3-1.9,0.5-2.8c0.3-1.5-1.7-2.1-2.3-0.6c-3.2,7.6,13.7,9,18.2,9.5c1.5,0.2,1.5-2.2,0-2.4
						c-0.7-0.3-1.3-0.6-2-0.9c-0.3,0.7-0.6,1.5-0.9,2.2c5.3,1.4,11.1,1.6,15.6-1.9c1.6-1.3,4.6-4.2,1.9-5.9
						C141.2,564.5,140,566.6,141.3,567.4L141.3,567.4z"/>
				</g>
			</g>
			<g>
				<g>
					<path class="st0" d="M123.8,567.5c0.8-0.5,1.4-1,2.1-1.8c0.7-0.8,0.1-2.5-1.2-2c-1.9,0.8-3.3,2.2-3.8,4.2
						c-0.5,2.3,0.8,3.8,2.8,4.9c0.1-0.7,0.2-1.5,0.3-2.2c-1.1,0.4-4.7-1.9-5.9-2.4c-1.7-0.8-3.5-1.3-5.3-1.5c-1.5-0.2-1.5,2.2,0,2.4
						c2.6,0.3,4.9,1.5,7.3,2.6c1.3,0.6,3.1,1.8,4.6,1.2c0.9-0.3,1.3-1.7,0.3-2.2c-2.4-1.3-1.7-3.8,0.4-4.7c-0.4-0.7-0.8-1.3-1.2-2
						c-0.4,0.6-0.9,1.1-1.6,1.4C121.3,566.2,122.5,568.3,123.8,567.5L123.8,567.5z"/>
				</g>
			</g>
			<g>
				<g>
					<path class="st0" d="M140.6,567.9c4.2-1.1,1.3-4.6-1.2-5.7c-5.6-2.5-11.9-1.9-17.9-1.1c-1.1,0.1-1.8,1.6-0.6,2.2
						c1.8,1,4.4,0.7,6.4,0.9c3.5,0.2,7,0.5,10.5,0.7c1.5,0.1,1.5-2.3,0-2.4c-2.5-0.2-5-0.3-7.5-0.5c-2.2-0.2-6.2,0.3-8.1-0.8
						c-0.2,0.7-0.4,1.5-0.6,2.2c2.8-0.3,5.6-0.7,8.4-0.7c1.8,0,3.5,0.1,5.3,0.5c0.5,0.1,0.9,0.2,1.4,0.4c1.4,0.2,2.6,0.9,3.5,1.9
						C138.5,565.9,139.1,568.3,140.6,567.9L140.6,567.9z"/>
				</g>
			</g>
			<g>
				<g>
					<path class="st1" d="M117.6,537c1,0.1,2.1,0.1,3.1-0.1c1.5-0.2,1.6-2.5,0-2.4c-1.6,0.1-3.2,0.2-4.9,0.3c-1.5,0.1-1.5,2.5,0,2.4
						c1.6-0.1,3.2-0.2,4.9-0.3c0-0.8,0-1.6,0-2.4c-1,0.1-2.1,0.1-3.1,0.1C116,534.5,116,536.9,117.6,537L117.6,537z"/>
				</g>
			</g>
			<g>
				<g>
					<path class="st2" d="M118.6,537.2c1.3,0.2,2.3,0.2,3.6-0.1c-0.2-0.8-0.4-1.5-0.6-2.3c-0.4,0.2-0.9,0.3-1.4,0.4
						c-1.4,0.2-1,2.3,0.3,2.4c1.9,0.1,3.5-2.3,1.5-3.5c-1.2-0.7-3.4-0.1-4.7,0.1c-3,0.4-5.7,0.4-8.6-0.5c-0.7-0.2-1.6,0.4-1.5,1.2
						c0,0.9,0.2,1.7,0.4,2.6c0.2,0.6,0.8,1.1,1.5,0.8c1.4-0.5,2.6-0.2,4-0.1c1.3,0.1,2.5-0.4,3.7-0.3c-0.2-0.7-0.4-1.5-0.6-2.2
						c-0.5,0.1-1,0.2-1.5,0.3c-1.5-0.4-2.1,1.9-0.6,2.3c1.3,0.3,2.2,0.2,3.3-0.5c1-0.6,0.6-2.2-0.6-2.2c-1.5,0-3,0.4-4.5,0.2
						c-1.4-0.1-2.5-0.2-3.8,0.3c0.5,0.3,1,0.6,1.5,0.8c-0.3-0.6-0.4-1.3-0.4-1.9c-0.5,0.4-1,0.8-1.5,1.2c2.1,0.6,4.2,1,6.4,0.9
						c0.9,0,1.7-0.1,2.6-0.3c0.8-0.1,1.6-0.3,2.3-0.4c0.9,0.2,1.3-0.1,1.1-1.2c0.1,0.8,0.2,1.6,0.3,2.4c0.5,0,1-0.2,1.4-0.4
						c1.4-0.5,0.9-2.6-0.6-2.3c-0.8,0-1.5,0.1-2.3,0.1C117.7,534.7,117.1,537,118.6,537.2L118.6,537.2z"/>
				</g>
			</g>
			<g>
				<g>
					<path class="st2" d="M121,537.1C121,537.1,121,537.1,121,537.1c0-0.1-0.1-0.3-0.2-0.4c0,0,0,0.1,0,0.1c0-0.2,0-0.4,0-0.6
						c0,0,0,0,0-0.1c0.1-0.1,0.3-0.3,0.4-0.4c0.2,0,0.2-0.1,0.1-0.1c-0.1,0-0.3-0.1-0.4-0.1c-0.2-0.1-0.4-0.1-0.6-0.2
						c-0.5-0.1-0.9-0.2-1.4-0.3c-1.5-0.4-2.1,1.9-0.6,2.3c0.6,0.1,1.2,0.3,1.8,0.4c0.6,0.1,1.2,0.4,1.8,0.3c1.3-0.3,1.6-1.6,0.8-2.6
						c-0.4-0.5-1.3-0.4-1.7,0C120.5,535.9,120.6,536.5,121,537.1L121,537.1z"/>
				</g>
			</g>
			<g>
				<g>
					<path class="st0" d="M111.5,564.3c0-0.2,0.1-0.4,0.1-0.6c0.1-0.6-0.5-1.1-1-1.2c-0.6-0.1-1.1,0.3-1.3,0.9
						c-0.1,0.4-0.3,0.8-0.4,1.2c-0.4,1.3,1.6,2.1,2.2,0.9c0.3-0.6,0.5-1.3,0.6-2c0.1-1.2-1.8-1.7-2.2-0.6c-0.2,0.4-0.4,0.9-0.4,1.3
						c-0.1,0.6,0.1,1.2,0.7,1.4c0.5,0.2,1.3,0.1,1.5-0.5c0.2-0.4,0.3-0.8,0.3-1.2c-0.1-0.6-0.5-1.2-1.2-1.2c-0.6,0-1.3,0.6-1.2,1.2
						c0,0.2,0,0.2,0.1,0c0.7,0.3,1.5,0.6,2.2,0.9c0-0.3,0.1-0.5,0.2-0.8c-0.7-0.2-1.5-0.4-2.2-0.6c0,0.3-0.1,0.6-0.3,0.8
						c0.7,0.3,1.5,0.6,2.2,0.9c0.1-0.4,0.3-0.8,0.4-1.2c-0.8-0.1-1.6-0.2-2.4-0.3c0,0.2-0.1,0.4-0.1,0.6c-0.1,0.6,0.6,1.2,1.2,1.2
						C111,565.5,111.4,565,111.5,564.3L111.5,564.3z"/>
				</g>
			</g>
			<g>
				<g>
					<path class="st0" d="M107.6,540.6c0.1,1.4,0.3,2.8,0.4,4.3c0.8-0.1,1.6-0.2,2.4-0.3c-0.5-1.4-0.9-2.9-1.1-4.4
						c-0.2-1.5-2.6-1.5-2.4,0c0.2,1.7,0.6,3.4,1.2,5.1c0.4,1.2,2.5,1.1,2.4-0.3c-0.1-1.4-0.3-2.8-0.4-4.3
						C109.8,539.1,107.4,539,107.6,540.6L107.6,540.6z"/>
				</g>
			</g>
		</g>
		<g>
			<g>
				<g>
					<path d="M141.4,570.5c-7.3,5.9-20.3,2-28.2-0.1c-0.7-0.2-1.1,1-0.3,1.2c8.5,2.2,21.7,6,29.4-0.2
						C142.8,570.8,142,570,141.4,570.5L141.4,570.5z"/>
				</g>
			</g>
			<g>
				<g>
					<path d="M112.5,571.2c0,0.5-0.1,0.9-0.1,1.4c0,0.6-0.1,0.7-0.7,0.6c-0.9-0.1-1.7-0.2-2.6-0.3c-0.8-0.1-0.8,1.1,0,1.2
						c0.7,0.1,1.3,0.2,2,0.2c0.5,0.1,1.2,0.2,1.7,0c1.1-0.4,0.8-2.2,0.9-3.1C113.7,570.4,112.5,570.4,112.5,571.2L112.5,571.2z"/>
				</g>
			</g>
			<g>
				<g>
					<path d="M141.8,571.5c3.4-2.7,2.5-7.2-0.7-9.6c-5.1-3.8-14.1-2.3-20-2c-0.8,0-0.8,1.2,0,1.2c3.4-0.2,6.8-0.3,10.1-0.3
						c2.3,0,4.6,0,6.8,0.9c3.5,1.4,6.9,5.7,2.9,8.9C140.4,571.2,141.2,572,141.8,571.5L141.8,571.5z"/>
				</g>
			</g>
			<g>
				<g>
					<path d="M122.4,560.3c0.8-8.8,1.3-17.6,1.5-26.4c0-0.8-1.2-0.8-1.2,0c-0.1,8.8-0.6,17.6-1.5,26.4
						C121.1,561.1,122.3,561.1,122.4,560.3L122.4,560.3z"/>
				</g>
			</g>
			<g>
				<g>
					<path d="M108.7,573.7c0,0,0.1,0,0.1,0c0.8,0,0.8-1.2,0-1.2c0,0-0.1,0-0.1,0C107.9,572.5,107.9,573.7,108.7,573.7L108.7,573.7z"
						/>
				</g>
			</g>
			<g>
				<g>
					<path d="M109.3,573c-2.7-0.9-1.4-4-1.3-6.5c0.2-3.5,0.3-7,0.3-10.5c0-7.4-0.5-14.7-0.9-22c0-0.8-1.2-0.8-1.2,0
						c0.6,9.2,1.1,18.5,0.9,27.8c-0.1,2.2-0.2,4.5-0.3,6.7c-0.1,1.1-0.8,3.7-0.3,4.6c0.6,1,1.5,0.8,2.5,1.1
						C109.7,574.4,110.1,573.2,109.3,573L109.3,573z"/>
				</g>
			</g>
			<g>
				<g>
					<path d="M123.2,533.7c-2.6-0.6-5.1-0.5-7.7-0.3c-3,0.2-5.9-0.6-8.9-0.4c-0.8,0-0.8,1.2,0,1.2c2.6-0.1,5.1,0.6,7.7,0.5
						c2.9-0.1,5.7-0.5,8.6,0.2C123.6,535.1,123.9,533.9,123.2,533.7L123.2,533.7z"/>
				</g>
			</g>
			<g>
				<g>
					<path d="M122.2,537c-0.2,0.5-0.9,0.6-1.2,0.3c-0.6-0.4-1.2,0.6-0.6,1c1.1,0.8,2.5,0.2,3-1C123.6,536.6,122.5,536.3,122.2,537
						L122.2,537z"/>
				</g>
			</g>
			<g>
				<g>
					<path d="M120,537c-0.5,0.4-1.2,0.5-1.8,0.1c-0.7-0.4-1.3,0.6-0.6,1c0.9,0.5,2.1,0.5,3-0.1C121.2,537.6,120.6,536.6,120,537
						L120,537z"/>
				</g>
			</g>
			<g>
				<g>
					<path d="M116.9,537.6c-0.4,0.5-1.2,0.7-1.8,0.3c-0.6-0.5-1.4,0.4-0.8,0.8c1,0.8,2.6,0.8,3.5-0.3
						C118.2,537.9,117.3,537,116.9,537.6L116.9,537.6z"/>
				</g>
			</g>
			<g>
				<g>
					<path d="M114,537.9c-0.7,0.1-1.4-0.1-2-0.5c-0.6-0.4-1.2,0.6-0.6,1c0.9,0.6,1.9,0.8,3,0.6C115.1,538.9,114.8,537.8,114,537.9
						L114,537.9z"/>
				</g>
			</g>
			<g>
				<g>
					<path d="M111,537.4c-0.6,0.4-1.3,0.5-2.1,0.4c-0.8-0.2-1.1,1-0.3,1.2c1,0.2,2.1,0.1,3-0.5C112.3,538,111.7,536.9,111,537.4
						L111,537.4z"/>
				</g>
			</g>
			<g>
				<g>
					<path d="M108.4,537.9c-0.1,0-0.2,0-0.2-0.1c-0.6-0.5-1.4,0.3-0.8,0.8c0.3,0.3,0.6,0.4,1,0.4
						C109.2,539.1,109.2,537.9,108.4,537.9L108.4,537.9z"/>
				</g>
			</g>
			<g>
				<g>
					<path d="M120.7,546.2c0.8,0,0.8-1.2,0-1.2C119.9,545,119.9,546.2,120.7,546.2L120.7,546.2z"/>
				</g>
			</g>
			<g>
				<g>
					<path d="M120.3,548.5c-0.1,0.1-0.2,0.2-0.3,0.2c-0.5,0.5,0.3,1.4,0.8,0.8c0.1-0.1,0.2-0.2,0.3-0.2
						C121.6,548.8,120.8,548,120.3,548.5L120.3,548.5z"/>
				</g>
			</g>
			<g>
				<g>
					<path d="M120.8,553.3c-0.5-0.6-1.3-0.1-1.4,0.5c-0.1,0.8,1.1,0.8,1.2,0c0,0,0-0.1,0-0.1c-0.1,0.1-0.1,0.3-0.2,0.4
						c-0.2,0-0.3,0-0.5,0C120.5,554.7,121.3,553.9,120.8,553.3L120.8,553.3z"/>
				</g>
			</g>
			<g>
				<g>
					<path d="M131.5,561.2c0,0.8-0.3,1.4-0.9,1.9c-0.6,0.5,0.3,1.3,0.8,0.8c0.8-0.7,1.3-1.7,1.3-2.8
						C132.7,560.4,131.5,560.4,131.5,561.2L131.5,561.2z"/>
				</g>
			</g>
			<g>
				<g>
					<path d="M128.2,561c-0.1,0.8-0.6,1.5-1.2,2c-0.6,0.4,0,1.5,0.6,1c1.1-0.7,1.7-1.8,1.8-3C129.5,560.2,128.3,560.2,128.2,561
						L128.2,561z"/>
				</g>
			</g>
			<g>
				<g>
					<path d="M124.6,561.1c0.1,0.8-0.3,1.5-1,1.8c-0.7,0.4-0.1,1.4,0.6,1c1-0.6,1.7-1.7,1.6-2.9
						C125.7,560.3,124.5,560.3,124.6,561.1L124.6,561.1z"/>
				</g>
			</g>
		</g>
	</g>
</g>
</svg>
