<?xml version="1.0" encoding="utf-8"?>
<!-- Generator: Adobe Illustrator 21.0.2, SVG Export Plug-In . SVG Version: 6.00 Build 0)  -->
<svg version="1.1" id="Layer_1" xmlns="http://www.w3.org/2000/svg" xmlns:xlink="http://www.w3.org/1999/xlink" x="0px" y="0px"
	 viewBox="0 0 200 600" style="enable-background:new 0 0 200 600;" xml:space="preserve">
<style type="text/css">
	.st0{fill:#602F13;}
	.st1{fill:#141113;}
	.st2{fill:#221F1F;}
</style>
<g>
	<g>
		<g>
			<g>
				<path class="st0" d="M79.7,91c0.8-0.1,1.6-0.1,2.4-0.2c-0.2-0.3-0.3-0.6-0.5-0.9c-0.3,0.5-1.6,0.3-2.1,0.5
					c-0.8,0.2-0.4,1.3,0.3,1.1c0.5-0.1,0.8-0.3,1.2-0.6c0.4-0.4,0.5-1.3,1.3-0.9c0-0.4,0.1-0.7,0.1-1.1c-0.5,0.2-0.9,0.2-1.4,0.1
					c-0.8-0.1-1,0.9-0.3,1.1c1.5,0.5,3,1.3,4.4,2.2c0.6,0.4,1.2-0.6,0.6-1c-1.5-1-3-1.7-4.6-2.3c-0.1,0.4-0.2,0.8-0.3,1.1
					c0.7,0.1,1.3,0.1,2-0.1c0.5-0.1,0.6-0.8,0.1-1.1c-0.5-0.3-1.2-0.6-1.8-0.3c-0.8,0.3-0.7,1.5-1.5,1.7c0.1,0.4,0.2,0.8,0.3,1.1
					c1.1-0.3,2.2,0.1,2.9-1c0.2-0.4-0.1-0.9-0.5-0.9c-0.8,0.1-1.6,0.1-2.4,0.2C79,89.9,79,91,79.7,91L79.7,91z"/>
			</g>
		</g>
		<g>
			<g>
				<path class="st1" d="M74.7,84.2c-0.9-0.9-1.6-1.8-2.2-2.9c-0.9,0.5-1.7,1-2.6,1.5c0.7,1,1.4,1.9,2,2.9c0.7-0.7,1.4-1.4,2-2
					c-0.4-0.4-0.7-0.8-1.1-1.1c-0.8,0.6-1.6,1.2-2.3,1.8c0.7,0.8,1.4,1.6,2.1,2.4c1.2,1.3,3.1-0.4,2.3-1.8c-0.6-1.2-1.3-2.5-1.9-3.7
					c-0.9,0.5-1.7,1-2.6,1.5c0.5,0.7,1,1.5,1.6,2.2c1.1,1.5,3.6,0.1,2.6-1.5c-0.7-1.1-1.2-2-1.6-3.3c-0.9,0.4-1.8,0.8-2.7,1.1
					c0.5,0.9,1,1.7,1.5,2.6c1,1.7,3.4,0.2,2.6-1.5c-0.6-1.1-1.1-2.3-1.7-3.4c-0.9,0.5-1.7,1-2.6,1.5c0.6,0.8,1.2,1.6,1.8,2.4
					c0.9-0.5,1.7-1,2.6-1.5c-0.7-0.9-1.1-1.6-1.5-2.7c-0.9,0.4-1.8,0.8-2.7,1.1c0.6,1,1.2,1.9,2,2.7c1.2,1.3,3-0.4,2.3-1.8
					c-1-2.1-1.9-4.2-2.7-6.4c-0.9,0.4-1.8,0.8-2.7,1.1c0.5,1,1.1,2.1,1.6,3.1c0.9-0.5,1.7-1,2.6-1.5c-0.6-0.8-1-1.7-1.3-2.7
					c-0.5-1.5-3.1-1.4-2.9,0.4c0.2,1.7,0.6,3.2,1.4,4.8c0.8,1.6,3,0.4,2.7-1.1c-0.2-1.4-0.6-2.7-1.2-3.9c-0.9,0.5-1.7,1-2.6,1.5
					c0.2,0.2,0.3,0.4,0.5,0.7c0.8,1,3,0.9,2.8-0.8c-0.1-1-0.2-1.4-0.5-2.3c-0.6-1.8-3.3-1.1-2.9,0.8c0.5,2,1.1,4,1.8,5.9
					c0.7,1.7,3.4,1.1,2.9-0.8c-0.2-0.6-0.4-1.3-0.5-1.9c-0.9,0.4-1.8,0.8-2.7,1.1c0.3,0.5,0.6,1,0.9,1.5c0.9-0.4,1.8-0.8,2.7-1.1
					c-0.3-0.4-0.6-0.8-0.8-1.3c-0.9,0.5-1.7,1-2.6,1.5c0.3,0.4,0.5,0.8,0.7,1.2c0.6,1.2,2.4,0.8,2.7-0.4c0,0,0-0.1,0-0.1
					c0.2-0.8-0.3-1.6-1-1.8c-0.1,0-0.1,0-0.2-0.1c-0.8-0.2-1.6,0.3-1.8,1c-0.5,1.6,1.3,4,1.9,5.4c0.8-0.6,1.6-1.2,2.3-1.8
					c-0.3-0.3-0.6-0.7-0.9-1c-0.8,0.6-1.6,1.2-2.3,1.8c0.7,0.7,1.2,1.4,1.6,2.2c0.9-0.5,1.7-1,2.6-1.5c-0.7-0.9-1.3-1.8-1.7-2.9
					c-0.8,0.5-1.7,1-2.5,1.4c0.6,0.6,1.2,1.3,1.7,2c1.1,1.5,3.5,0.2,2.6-1.5c-0.5-1-1-1.9-1.5-2.9c-0.8,0.6-1.6,1.2-2.3,1.8
					c0.3,0.4,0.6,0.9,1,1.3c0.8-0.6,1.6-1.2,2.3-1.8c-1-0.8-1.6-1.5-2.3-2.6c-1-1.6-3.6-0.1-2.6,1.5c1.5,2.4,2.9,4.8,4.1,7.4
					c0.9-0.5,1.7-1,2.6-1.5c-1.2-2-2.3-4.1-3.3-6.2c-0.8,0.6-1.6,1.2-2.3,1.8c0.2,0.2,0.3,0.3,0.5,0.5c0.7-0.7,1.4-1.4,2.1-2.1
					c-0.3-0.3-0.6-0.5-1-0.8c-1-0.9-3-0.1-2.5,1.4c0.4,1.3,0.9,2.6,1.3,3.8c0.6-0.6,1.2-1.2,1.8-1.8c0,0,0.1,0.1,0.1,0.1
					c-0.8,0.6-1.6,1.2-2.3,1.8c0.2,0.4,0.4,0.8,0.7,1.3c0.1-0.5,0.3-1,0.4-1.4c0.3-0.3,0.1-0.5-0.4-0.5c-1-0.5-2.7,0.3-2.2,1.7
					c0,0.3,0.1,0.6,0.1,0.9c0.2-0.4,0.5-0.9,0.7-1.3c0.1,0,0.2,0,0.3,0c0.3,0.3,0.7,0.7,1,1c0-0.1-0.1-0.2-0.1-0.3
					c-0.6,0.6-1.2,1.2-1.8,1.8c0-0.2,0.1-0.4,0.1-0.6c0.3-0.3,0.7-0.7,1-1c0.1,0,0.2-0.1,0.3-0.1c-0.6,0.7-1.1,1.5-1.7,2.2
					c0.4,0.3,0.8,0.6,1.1,0.9c1,1.2,2.9-0.1,2.5-1.4c-0.3-1-0.6-1.9-0.8-2.9c-0.8,0.5-1.7,1-2.5,1.4c0.9,0.8,1.8,1.6,2.8,2.4
					c1.3,1.1,3-0.3,2.3-1.8c-0.7-1.7-1.4-3.4-2-5.2c-0.8,0.5-1.7,1-2.5,1.4c0.9,1,1.8,1.9,2.7,2.9c1,1.1,3,0,2.5-1.4
					c-0.5-1.4-1.1-2.7-1.7-4.1c-0.7,0.7-1.4,1.4-2,2c0.2,0.2,0.4,0.4,0.6,0.6c0.6-0.8,1.2-1.6,1.8-2.3c-0.9-0.5-1.6-1.3-1.9-2.2
					c-0.9,0.5-1.7,1-2.6,1.5c0.4,0.5,0.8,1,1.2,1.6c0.9,1.2,3.4,0.6,2.7-1.1c-0.2-0.4-0.3-0.8-0.5-1.2c-0.8,0.5-1.7,1-2.5,1.4
					c0.1,0.2,0.3,0.4,0.4,0.6c0.9-0.5,1.7-1,2.6-1.5c-0.2-0.2-0.3-0.4-0.5-0.7c-1.1-1.5-3.6-0.2-2.6,1.5c0.9,1.6,1.8,3.2,2.7,4.8
					c0.6-0.7,1.1-1.5,1.7-2.2c-0.1-0.1-0.3-0.1-0.4-0.2c-1.2-1-3.3,0.3-2.3,1.8c0.5,0.8,1,1.6,1.5,2.4c0.8,1.4,3.4,0.5,2.7-1.1
					c-0.4-1.1-0.9-2.2-1.3-3.3c-0.8,0.5-1.7,1-2.5,1.4c0.6,0.7,1.2,1.5,1.6,2.4c0.9-0.5,1.7-1,2.6-1.5c-0.5-0.8-0.9-1.7-1.3-2.6
					c-0.9,0.5-1.7,1-2.6,1.5c0.5,0.8,0.9,1.5,1.3,2.3c0.9-0.5,1.7-1,2.6-1.5c-0.3-0.4-0.6-0.9-0.8-1.4c-0.8,0.6-1.6,1.2-2.3,1.8
					c0.3,0.4,0.7,0.8,1,1.3c0.7-0.7,1.4-1.4,2.1-2.1c-0.3-0.3-0.6-0.5-0.9-0.8c-1-0.9-3.1-0.1-2.5,1.4c0.5,1.2,1,2.4,1.8,3.5
					c0.8-0.6,1.6-1.2,2.3-1.8c-0.2-0.1-0.4-0.3-0.5-0.4c-1.5-1.2-3.4,0.6-2.1,2.1c0.4,0.5,0.9,1,1.3,1.5c1.1,1.3,3.3-0.4,2.3-1.8
					c-0.7-1.1-1.4-2.1-2.1-3.2c-0.9,0.5-1.7,1-2.6,1.5c0.6,0.8,1.2,1.6,1.7,2.4c0.6-0.7,1.1-1.5,1.7-2.2c-1.9-0.7-3.8-1.7-5.8-2.2
					c-0.8-0.2-1.1-0.3-2-0.3c-0.2,0-1.8,0.3-1.5,0c-0.7-0.7-1.4-1.4-2.1-2.1c-0.8,1-1.4,1.9-1.7,3.2c1,0.3,1.9,0.5,2.9,0.8
					c0.3-1.1,0.7-2,1.3-3c0.9-1.5-1.1-2.9-2.3-1.8c-1.4,1.3-2.5,3.3-0.7,4.7c0.7,0.6,1.9,0.9,2.8,0.8c1.1-0.1,1.8-1.1,2.1-1.3
					c-0.5,0-1,0-1.5,0c2,1.1,3.3,4.7,5.9,4.8c1.4,0,2.2-1.1,2.3-2.4c-0.8,0.4-1.7,0.7-2.5,1.1c0.6,0.6,1.1,1.2,1.8,1.7
					c1.2,1.1,3.2-0.3,2.3-1.8c-0.8-1.3-1.6-2.6-2.3-3.9c-0.7,0.7-1.4,1.4-2,2c0.8,0.3,1.5,0.8,2.1,1.5c0.7-0.7,1.4-1.4,2.1-2.1
					c-0.9-0.7-1.7-1.5-2.5-2.4c-0.6,0.8-1.2,1.6-1.8,2.3c1.2,0.7,2.2,1.3,3.2,2.3c1.4,1.3,3.5-0.8,2.1-2.1c-1-0.9-2-1.8-2.9-2.8
					c-0.6,0.8-1.2,1.6-1.8,2.3c0.4,0.3,0.8,0.7,1.2,1c0.6-0.8,1.2-1.6,1.8-2.3c-0.6-0.4-1.1-0.9-1.5-1.4c-0.7,0.7-1.4,1.4-2.1,2.1
					c1.1,1.3,2.1,2.7,3.1,4.2c0.8-0.6,1.6-1.2,2.3-1.8c-0.3-0.3-0.6-0.5-0.9-0.8c-0.6,0.8-1.2,1.6-1.8,2.3c0.1,0.1,0.1,0.1,0.2,0.2
					c-0.2-0.4-0.5-0.9-0.7-1.3c0,0.1,0,0.2,0,0.3c0.2-0.4,0.5-0.9,0.7-1.3c-0.1,0-0.2,0.1-0.2,0.1c-1.4,0.8-0.6,2.6,0.8,2.8
					c-0.1,0-0.3-0.1-0.4-0.1c0.8-0.5,1.7-1,2.5-1.4c-0.3-0.3-0.5-0.6-0.8-1c-0.6,0.8-1.2,1.6-1.8,2.3c0.2,0.2,0.3,0.4,0.5,0.5
					c0.7-0.7,1.4-1.4,2-2c-0.1-0.1-0.3-0.3-0.4-0.4c-1-1.6-3.6-0.1-2.6,1.5c0.5,0.7,0.7,1,1.5,1.5c1.3,0.8,2.8-0.8,2-2
					c-0.5-0.8-0.8-1.1-1.6-1.6c-1.5-1-2.8,1.1-1.8,2.3c0.3,0.3,0.5,0.6,0.8,1c1.1,1.3,2.7-0.2,2.5-1.4c-0.2-1.4-1.1-1.9-2.4-2.1
					c0.3,0.9,0.5,1.8,0.8,2.8c1.4-0.7,1.2-2.3,0-3.2c-1.4-1-3.1,1.3-1.8,2.3c0.3,0.3,0.6,0.5,0.9,0.8c1.2,1,3.3-0.3,2.3-1.8
					c-1.1-1.7-2.3-3.2-3.5-4.8c-1.2-1.5-3.3,0.6-2.1,2.1c0.6,0.8,1.3,1.3,2.1,1.9c1.4,1,3-1.2,1.8-2.3c-0.7-0.7-1-0.9-1.8-1.4
					c-1.4-1-2.9,1.1-1.8,2.3c0.9,1,1.9,1.9,2.9,2.8c0.7-0.7,1.4-1.4,2.1-2.1c-1.2-1.1-2.4-2-3.8-2.7c-1.5-0.8-2.9,1.1-1.8,2.3
					c0.8,0.9,1.6,1.6,2.5,2.4c1.5,1.1,3.5-0.8,2.1-2.1c-0.9-0.8-1.7-1.4-2.7-2c-1.3-0.7-2.8,0.7-2,2c0.8,1.3,1.6,2.6,2.3,3.9
					c0.8-0.6,1.6-1.2,2.3-1.8c-0.6-0.6-1.2-1.1-1.8-1.7c-0.9-1-2.5-0.2-2.5,1.1c0.8-0.7,0.7-1.4-0.4-1.8c-0.4-0.5-0.9-0.9-1.3-1.4
					c-0.6-0.6-1.2-1.3-2-1.8c-0.4-0.2-1.1-0.3-1.5,0c-0.4,0.3-2.3,2-0.6,0.5c-0.8-0.6-1.6-1.2-2.3-1.8c-0.7,1.2-1.2,2.4-1.6,3.7
					c-0.5,1.9,2.3,2.6,2.9,0.8c0.3-0.6,0.7-1.3,1-1.9c1.2-1.5-0.8-3.6-2.1-2.1c-1.3,1.5-1.5,3.8,0.4,5c1.1,0.7,1.7,0.3,2.9,0.3
					c2.5,0,5,1.4,7.4,2.3c1.2,0.5,2.4-1.2,1.7-2.2c-0.6-0.8-1.2-1.6-1.7-2.4c-1.1-1.5-3.6-0.1-2.6,1.5c0.7,1.1,1.4,2.1,2.1,3.2
					c0.8-0.6,1.6-1.2,2.3-1.8c-0.4-0.5-0.9-1-1.3-1.5c-0.7,0.7-1.4,1.4-2.1,2.1c0.2,0.1,0.4,0.3,0.5,0.4c1.2,1,3.3-0.3,2.3-1.8
					c-0.6-0.9-1.1-1.8-1.5-2.8c-0.8,0.5-1.7,1-2.5,1.4c0.3,0.3,0.6,0.5,0.9,0.8c1.5,1.3,3.3-0.6,2.1-2.1c-0.3-0.4-0.7-0.8-1-1.3
					c-1.1-1.4-3,0.4-2.3,1.8c0.2,0.5,0.4,1,0.8,1.4c1.1,1.6,3.4,0.2,2.6-1.5c-0.4-0.8-0.8-1.5-1.3-2.3c-1.1-1.7-3.3-0.2-2.6,1.5
					c0.4,0.9,0.8,1.7,1.3,2.6c1,1.7,3.5,0.2,2.6-1.5c-0.6-1.1-1.3-2-2.1-3c-0.9-1.1-3,0.1-2.5,1.4c0.4,1.1,0.9,2.2,1.3,3.3
					c0.9-0.4,1.8-0.8,2.7-1.1c-0.5-0.8-1-1.6-1.5-2.4c-0.8,0.6-1.6,1.2-2.3,1.8c0.6,0.5,1,0.7,1.7,0.9c1.3,0.3,2.3-1,1.7-2.2
					c-0.9-1.6-1.8-3.2-2.7-4.8c-0.9,0.5-1.7,1-2.6,1.5c0.2,0.2,0.3,0.4,0.5,0.7c1.1,1.5,3.6,0.2,2.6-1.5c-0.3-0.5-0.5-0.8-0.9-1.2
					c-1-1-3.1,0-2.5,1.4c0.2,0.4,0.3,0.8,0.5,1.2c0.9-0.4,1.8-0.8,2.7-1.1c-0.4-0.5-0.8-1-1.2-1.6c-1.1-1.5-3.4-0.3-2.6,1.5
					c0.7,1.5,1.6,2.4,2.9,3.3c1.5,1,2.8-1.1,1.8-2.3c-0.4-0.6-0.6-0.7-1.2-1.1c-1.4-0.8-2.7,0.8-2,2c0.5,1.1,1,2.2,1.4,3.3
					c0.8-0.5,1.7-1,2.5-1.4c-0.9-1-1.8-1.9-2.7-2.9c-1-1.1-3,0-2.5,1.4c0.7,2,1.5,3.9,2.3,5.9c0.8-0.6,1.6-1.2,2.3-1.8
					c-0.9-0.8-1.8-1.6-2.8-2.4c-1.1-0.9-2.9-0.1-2.5,1.4c0.3,1,0.6,1.9,0.8,2.9c0.8-0.5,1.7-1,2.5-1.4c-0.7-0.8-1.4-1.3-2.5-1.7
					c-1.2-0.5-2.3,1.2-1.7,2.2c2.5,4.1,6.6-1.1,1.9-2.6c-1.1-0.3-2.2,0.8-1.8,1.8c1,3,4.7,1,3.6-1.9c-0.7,0.6-1.5,1.1-2.2,1.7
					c1.6,0.7,2.6,1.2,4.1,0c0.4-0.4,0.5-1,0.4-1.4c-0.2-1.1-0.7-1.8-1.4-2.6c-1.2-1.3-3.2,0.4-2.3,1.8c0.4,0.8,0.8,1.1,1.7,1.3
					c1,0.2,2.2-0.7,1.8-1.8c-0.4-1.3-0.9-2.6-1.3-3.8c-0.8,0.5-1.7,1-2.5,1.4c0.3,0.3,0.6,0.5,1,0.8c1.4,1.2,3.5-0.8,2.1-2.1
					c-0.2-0.2-0.3-0.3-0.5-0.5c-1.3-1.2-3,0.3-2.3,1.8c1,2.2,2,4.2,3.3,6.2c1,1.7,3.4,0.2,2.6-1.5c-1.2-2.6-2.5-5-4.1-7.4
					c-0.9,0.5-1.7,1-2.6,1.5c0.8,1.2,1.7,2.3,2.8,3.2c1.2,1.1,3.2-0.3,2.3-1.8c-0.5-0.9-0.7-1.2-1.4-1.9c-1.2-1.3-3.1,0.4-2.3,1.8
					c0.5,1,1,1.9,1.5,2.9c0.9-0.5,1.7-1,2.6-1.5c-0.7-0.9-1.4-1.8-2.2-2.6c-1-1-3.1,0-2.5,1.4c0.6,1.3,1.2,2.5,2,3.6
					c1.1,1.5,3.6,0.2,2.6-1.5c-0.6-1-1.3-1.9-2.1-2.8c-1.1-1.2-3.3,0.4-2.3,1.8c0.5,0.7,0.7,1,1.4,1.6c1.3,1.2,3.1-0.3,2.3-1.8
					c-0.2-0.4-1.7-2.9-1.6-3.1c-0.6,0.3-1.2,0.7-1.8,1c0.1,0,0.1,0,0.2,0.1c-0.3-0.6-0.7-1.2-1-1.8c0,0,0,0.1,0,0.1
					c0.9-0.1,1.8-0.2,2.7-0.4c-0.2-0.4-0.4-0.8-0.7-1.2c-1.1-1.6-3.4-0.2-2.6,1.5c0.2,0.5,0.4,0.9,0.8,1.3c0.9,1.2,3.4,0.6,2.7-1.1
					c-0.4-1-0.6-1.4-1.2-2.3c-0.9-1.4-3.2-0.5-2.7,1.1c0.2,0.6,0.4,1.3,0.5,1.9c1-0.3,1.9-0.5,2.9-0.8c-0.8-1.9-1.4-3.9-1.8-5.9
					c-1,0.3-1.9,0.5-2.9,0.8c0.1,0.5,0.2,1,0.4,1.5c0.9-0.3,1.8-0.5,2.8-0.8c-0.2-0.2-0.3-0.4-0.5-0.7c-1.1-1.5-3.4-0.3-2.6,1.5
					c0.5,1.1,0.8,2.1,0.9,3.2c0.9-0.4,1.8-0.8,2.7-1.1c-0.6-1-0.9-2.1-1-3.3c-1,0.1-1.9,0.3-2.9,0.4c0.4,1.2,0.9,2.3,1.6,3.4
					c1,1.6,3.4,0.2,2.6-1.5c-0.5-1-1.1-2.1-1.6-3.1c-0.8-1.5-3.3-0.4-2.7,1.1c0.9,2.4,1.9,4.8,3,7.1c0.8-0.6,1.6-1.2,2.3-1.8
					c-0.6-0.6-1.1-1.3-1.5-2.1c-0.8-1.5-3.3-0.5-2.7,1.1c0.5,1.3,1,2.3,1.8,3.4c1.1,1.5,3.7,0,2.6-1.5c-0.6-0.8-1.2-1.6-1.8-2.4
					c-1.1-1.5-3.4-0.2-2.6,1.5c0.6,1.1,1.1,2.3,1.7,3.4c0.9-0.5,1.7-1,2.6-1.5c-0.5-0.9-1-1.7-1.5-2.6c-0.8-1.4-3.3-0.5-2.7,1.1
					c0.5,1.4,1.1,2.7,1.9,4c0.9-0.5,1.7-1,2.6-1.5c-0.5-0.7-1-1.5-1.6-2.2c-1.1-1.6-3.4-0.2-2.6,1.5c0.6,1.2,1.3,2.5,1.9,3.7
					c0.8-0.6,1.6-1.2,2.3-1.8c-0.7-0.8-1.4-1.6-2.1-2.4c-1.1-1.3-3.3,0.4-2.3,1.8c0.6,0.9,1.2,1.5,2.1,2.2c1.2,0.9,2.8-0.8,2-2
					c-0.6-1-1.3-2-2-2.9c-1.1-1.5-3.5-0.2-2.6,1.5c0.8,1.3,1.6,2.4,2.7,3.5C74,87.7,76.1,85.6,74.7,84.2L74.7,84.2z"/>
			</g>
		</g>
		<g>
			<g>
				<path class="st1" d="M129.7,86.5c0.4-1.1,0.8-2.2,1.2-3.3c-0.3-0.1-0.7-0.3-1-0.4c-0.1,0.6-0.2,1.2-0.3,1.9
					c0.4,0.1,0.7,0.2,1.1,0.3c-0.2-1.4,0-2.6,0.6-3.8c-0.4-0.1-0.8-0.1-1.2-0.2c0,1.1-0.1,2.3-0.1,3.4c0.4,0,0.8,0,1.1,0
					c-0.4-1.2-0.6-2.4-0.5-3.7c-0.4,0.1-0.7,0.2-1.1,0.3c0.4,1.2,0.7,2.4,1.1,3.7c0.4-0.1,0.8-0.1,1.2-0.2c-0.5-1.6-1-3.2-1.3-4.9
					c-0.4,0.2-0.7,0.3-1.1,0.5c0.9,1.6,1.6,3.1,1.9,4.9c0.2,0.7,1.3,0.4,1.1-0.3c-0.3-1.3-0.5-2.6-0.8-3.9c-0.4,0.1-0.8,0.2-1.1,0.3
					c0.5,1.4,0.9,2.8,1.2,4.3c0.3-0.2,0.7-0.4,1-0.6c-0.7-0.6-1.5-1.2-2.2-1.9c-0.3-0.2-0.8-0.3-0.9,0.1c-1.3,2.9-1,5.3,1,7.8
					c0.1-0.3,0.3-0.7,0.4-1c-0.6-0.1-1.2-0.2-1.8-0.3c-0.5-0.2-0.9,0.5-0.7,0.9c0.3,0.5,0.5,0.9,0.8,1.4c0.4,0.6,1.2,0.2,1.1-0.5
					c0-0.2-0.1-0.5-0.1-0.7c-0.4,0.2-0.7,0.3-1.1,0.5c0.2,0.3,0.5,0.6,0.7,0.9c0.5,0.6,1.4,0.1,1-0.6c-0.1-0.3-0.3-0.6-0.4-0.8
					c-0.2,0.3-0.4,0.6-0.7,0.9c0.2,0.1,0.4,0.2,0.5,0.3c0.3-0.2,0.6-0.5,0.9-0.7c-0.1,0.3-0.1,0.6-0.2,0.9c0.4,0,0.7-0.1,1.1-0.1
					c-0.2-0.1-0.3-0.3-0.5-0.4c0.3-0.2,0.6-0.5,0.9-0.7c-0.3-0.3-0.7-0.6-1-0.8c-0.6-0.5-1.4,0.3-0.8,0.8c0.4,0.5,0.8,0.9,1.2,1.4
					c0.3-0.2,0.6-0.5,0.9-0.7c-0.3-0.2-0.6-0.5-0.9-0.7c-0.5-0.4-1.2,0.1-0.9,0.7c0.5,1.1,0.3,0.8,1.2,1.6c0.4,0.3,1.2,0,1-0.6
					c-0.2-0.6-0.5-1.2-0.7-1.8c-0.3,0.2-0.6,0.4-0.9,0.7c0.4,0.4,0.9,0.7,1.3,1.1c0.6,0.5,1.4-0.3,0.8-0.8c-0.5-0.5-1-1-1.5-1.5
					c-0.5-0.5-1.2,0.1-0.9,0.7c0.5,1,0.3,0.8,1.1,1.5c0.6,0.6,1.3-0.3,0.8-0.8c-0.6-0.7-1.1-1.5-1.7-2.2c-0.4-0.5-1.3,0.2-0.9,0.7
					c0.2,0.3,0.3,0.6,0.5,0.9c0.4,0.7,1.3,0.1,1-0.6c-0.6-1.4-0.5-1.9-1.7-2.6c-0.4-0.2-8.2,2.3-5.4,0.8c0.3,0.2,0.6,0.4,0.9,0.7
					c0.9-1.2,1.8-2.4,2.7-3.6c-0.3-0.3-0.5-0.5-0.8-0.8c-0.7,0.7-1.4,1.3-2.1,2c0.2,0.3,0.4,0.6,0.7,0.9c0.9-1.5,2.1-2.8,3.5-3.8
					c-0.3-0.3-0.5-0.5-0.8-0.8c-1,1.6-2.3,2.9-3.9,3.8c0.3,0.3,0.5,0.5,0.8,0.8c0.5-1.5,1.5-2.8,2.9-3.7c-0.2-0.3-0.5-0.6-0.7-0.9
					c-1.3,1.6-2.7,2.9-4.5,3.9c0.3,0.3,0.5,0.5,0.8,0.8c1.4-2.2,2.5-3.3,4.7-4.7c-0.2-0.3-0.5-0.6-0.7-0.9c-1.5,1.9-3.1,3.4-5.1,4.8
					c0.2,0.3,0.5,0.6,0.7,0.9c0.7-0.5,1.3-0.9,2-1.4c-0.2-0.3-0.4-0.6-0.7-0.9c-2.4,3.9-7.4,5-11.4,6.5c-0.4,0.2-0.6,0.8-0.1,1.1
					c1,0.5,0.7,0.4,1.9,0.6c0.7,0.1,1.1-1,0.3-1.1c-0.7-0.2-1.3-0.3-2-0.5c-0.4-0.1-0.7,0.2-0.8,0.6c-0.2,0-0.5,0-0.7,0.1
					c-0.7,0.1-0.8,1.2,0,1.2c1.8-0.1,1.6-0.1,3.3-0.3c-0.1-0.4-0.2-0.8-0.3-1.1c-0.3,0.1-0.6,0.2-0.9,0.2c0.2,0.4,0.3,0.7,0.5,1.1
					c1.4-0.9,2.6-1.8,3.8-3c-0.3-0.3-0.6-0.6-0.8-0.8c-0.4,0.4-0.9,0.8-1.3,1.3c-0.6,0.4-0.1,1.4,0.6,1c0.7-0.3,1.4-0.6,2.1-0.9
					c-0.2-0.3-0.4-0.7-0.6-1c-0.4,0.2-0.8,0.5-1.2,0.7c-0.6,0.2-0.6,1.3,0.2,1.2c1.4,0.1,2.8,0.2,4.2,0.2c0.8,0,0.8-1.1,0-1.2
					c-0.9-0.1-1.7-0.3-2.6-0.4c-0.1,0.4-0.2,0.8-0.3,1.1c1.7,0.3,1.6,0.3,3.3,0.4c-0.1-0.4-0.1-0.8-0.2-1.2
					c-0.3,0.1-0.5,0.2-0.8,0.3c0.1,0.4,0.2,0.8,0.3,1.1c0.9-0.4,1.9-0.8,2.9-1c-0.2-0.4-0.3-0.7-0.5-1.1c-0.8,0.5-1.5,1-2.3,1.5
					c-0.6,0.4-0.1,1.4,0.6,1c1-0.5,1.9-1,2.9-1.5c-0.2-0.3-0.5-0.6-0.7-0.9c-0.4,0.3-0.7,0.6-1.1,1c0.3,0.3,0.6,0.6,0.8,0.8
					c0.9-0.3,1.8-0.7,2.7-1c0.8,0,0.8-1.2,0-1.2c-0.7,0-1.4,0-2.1,0c0.1,0.4,0.1,0.8,0.2,1.2c1.2,0.1,2.3,0.2,3.5,0.3
					c0.1-0.4,0.1-0.8,0.2-1.2c-0.6-0.2-1.2-0.4-1.8-0.5c-0.7-0.3-1.2,0.6-0.6,1c1.1,0.7,0.7,0.6,2,1c0.6,0.2,1-0.6,0.6-1
					c-0.5-0.4-1.1-0.7-1.6-1.1c0.1,0.6,1,0.5,1.1,0c0.3-0.8,0.5-1.5,0.8-2.3c-0.4-0.2-0.7-0.3-1.1-0.5c-0.2,0.6-0.4,1.1-0.6,1.7
					c-0.3,0.7,0.6,1.3,1,0.6c0-0.6,0-1.2,0-1.8c0.3-0.7-0.6-1.3-1-0.6c-2,2.3-2.2,2.1-0.7-0.6c0.3-0.5-0.3-1.2-0.8-0.8
					c-1.2,0.8-2.5,1.5-3.8,2.2c0.3,0.3,0.5,0.5,0.8,0.8c0.5-0.6,1.1-1.2,1.6-1.8c-0.3-0.3-0.5-0.5-0.8-0.8c-0.9,1.5-2.2,2.6-3.7,3.4
					c0.3,0.3,0.5,0.5,0.8,0.8c0.8-0.9,1.6-1.7,2.4-2.6c-0.3-0.3-0.5-0.5-0.8-0.8c-0.8,1.4-2,2.5-3.4,3.4c0.3,0.3,0.5,0.5,0.8,0.8
					c1.2-0.9,2.3-1.8,3.5-2.8c-0.2-0.3-0.4-0.7-0.6-1c-1.1,1.2-2.3,2.2-3.8,3c0.2,0.3,0.5,0.6,0.7,0.9c0.6-0.5,1.1-1,1.7-1.5
					c-0.2-0.3-0.5-0.6-0.7-0.9c-0.3,0.4-0.7,0.7-1,1.1c-0.5,0.6,0.3,1.4,0.8,0.8c0.8-0.7,1.6-1.5,2.4-2.2c0.6-0.5-0.3-1.3-0.8-0.8
					c-1.2,0.6-2.4,1.2-3.6,1.9c0.2,0.4,0.3,0.7,0.5,1.1c2.4-1.7,4.8-3.3,7.2-4.8c-0.2-0.3-0.5-0.6-0.7-0.9c-1.3,1.5-2.7,2.6-4.4,3.6
					c0.2,0.3,0.5,0.6,0.7,0.9c1.5-1.6,3.1-3.1,4.8-4.6c-0.3-0.2-0.6-0.5-0.9-0.7c-0.4,1-1,1.8-1.9,2.5c0.3,0.2,0.6,0.5,0.9,0.7
					c0.9-1.4,1.8-2.8,2.7-4.2c0.4-0.6-0.5-1.3-0.9-0.7c-0.4,0.5-0.7,0.9-1.1,1.4c0.3,0.2,0.6,0.5,0.9,0.7c0.4-0.9,0.9-1.7,1.6-2.4
					c0.4-0.5-0.5-1.2-0.9-0.7c-1.3,1.5-2.5,3-3.8,4.5c0.3,0.2,0.6,0.5,0.9,0.7c0.6-0.7,1.3-1.5,1.9-2.2c-0.3-0.3-0.6-0.6-0.8-0.8
					c-1.5,1.8-3,3.6-4.4,5.4c-0.5,0.6,0.3,1.4,0.8,0.8c0.7-0.6,1.4-1.2,2-1.9c-0.3-0.3-0.5-0.5-0.8-0.8c-0.6,1.2-1.5,2.2-2.7,2.9
					c0.3,0.2,0.6,0.5,0.9,0.7c0.6-0.6,1.3-1.2,1.9-1.7c-0.3-0.2-0.6-0.4-0.9-0.7c-0.2,0.5-0.5,0.9-0.7,1.4c-0.3,0.5,0.3,1.2,0.8,0.8
					c0.9-0.2,1.7-0.5,2.6-0.7c-0.1-0.4-0.1-0.8-0.2-1.2c-1.3,0.5-2.5,1-3.7,1.8c-0.7,0.4-0.1,1.4,0.6,1c1.1-0.4,2.1-1,2.9-1.8
					c-0.3-0.3-0.5-0.5-0.8-0.8c-0.6,0.7-1.2,1.3-1.8,2c0.3,0.2,0.6,0.5,0.9,0.7c0.3-0.6,0.6-1.2,0.9-1.8c0.2,0.3,0.4,0.6,0.7,0.9
					c-0.1-0.1-0.2-0.2-0.4-0.3c0.3,0.1,0.7,0.3,1,0.4c0.3-0.5,0.6-1,0.8-1.5c-0.3-0.2-0.6-0.5-0.9-0.7c-0.1,0-0.2,0-0.2-0.1
					c0.3,0.3,0.6,0.6,0.8,0.8c0.6-0.9,1.4-1.6,2.2-2.4c-0.3-0.3-0.6-0.6-0.8-0.8c-0.7,0.7-1.3,1.4-2,2.1c-0.5,0.6,0.3,1.4,0.8,0.8
					c3.4-3.3,4.7-5.9,5.1-10.7c0.1-1.7,0.7-4,0.1-5.6c-0.6-1.6-4.4-3.4-4.2-4.4c0.1-0.7-0.9-1.1-1.1-0.3c-0.7,2.2,0,3.9,2.1,4.9
					c0.7,0.3,1.3-0.7,0.6-1c-0.5-1.2-1.1-2.4-1.6-3.5c-0.4-0.1-0.8-0.2-1.1-0.3c-0.3,2,0.7,2.1,2,3.3c4.8,4.6,1.4,13-2.7,16.9
					c0.3,0.3,0.6,0.6,0.8,0.8c0.7-0.7,1.3-1.4,2-2.1c0.5-0.6-0.3-1.4-0.8-0.8c-0.8,0.7-1.5,1.5-2.2,2.4c-0.5,0.6,0.3,1.3,0.8,0.8
					c1-0.9,1.8-1.6,1.7-3c0-0.3-0.3-0.6-0.6-0.6c-2.2,0.2-5.6,3.4-4,5.6c0.2,0.2,0.4,0.3,0.7,0.3c1.4-0.3,2.1-1.3,2.6-2.5
					c0.3-0.6-0.4-1.2-0.9-0.7c-1.2,1-1.1,0.8-1.2,2.4c0,0.5,0.7,0.8,1,0.4c0.5-0.6,0.6-0.7,0.5-1.5c0-0.4-0.4-0.7-0.8-0.6
					c-0.8,0.2-0.8,0.3-1.3,1c-0.3,0.4,0.2,1,0.7,0.9c1.2-0.4,1.6-1,1.2-2.2c-0.1-0.4-0.5-0.5-0.9-0.4c-1.4,0.6-2,1.2-2.6,2.6
					c-0.3,0.6,0.4,1.2,0.9,0.7c1-0.9,2-1.8,1.9-3.3c0-0.3-0.2-0.6-0.6-0.6c-1.7,0-2.4,1.5-2.8,3c-0.1,0.4,0.3,0.9,0.7,0.7
					c1.3-0.5,1.9-1,2.7-2.1c0.3-0.5-0.3-1.2-0.8-0.8c-0.9,0.8-1.9,1.3-2.9,1.8c0.2,0.3,0.4,0.7,0.6,1c1-0.7,2.2-1.3,3.4-1.6
					c0.7-0.2,0.5-1.1-0.2-1.2c-1.4-0.2-2.1,0-3.2,0.8c0.3,0.3,0.5,0.5,0.8,0.8c0.6-0.9,0.5-0.7,0.8-1.7c0.2-0.5-0.4-0.9-0.9-0.7
					c-1.6,1-1.2,0.7-2.3,2.2c-0.4,0.6,0.5,1.1,0.9,0.7c1.2-1,2-1.8,2.8-3.1c0.3-0.5-0.3-1.2-0.8-0.8c-1.5,1.1-1.1,0.7-2.3,2
					c0.3,0.3,0.6,0.6,0.8,0.8c1.5-1.8,3-3.6,4.4-5.4c0.5-0.6-0.3-1.3-0.8-0.8c-1.5,1.3-1,0.7-2.1,2.5c-0.3,0.6,0.5,1.3,0.9,0.7
					c1.3-1.5,2.5-3,3.8-4.5c-0.3-0.2-0.6-0.5-0.9-0.7c-0.6,0.7-1.2,1.5-1.6,2.4c-0.3,0.6,0.5,1.3,0.9,0.7c0.4-0.5,0.7-0.9,1.1-1.4
					c-0.3-0.2-0.6-0.5-0.9-0.7c-0.9,1.4-1.8,2.8-2.7,4.2c-0.4,0.6,0.4,1.2,0.9,0.7c1-0.8,1.5-1.6,2.1-2.7c0.3-0.6-0.4-1.2-0.9-0.7
					c-1.6,1.5-3.2,3-4.8,4.6c-0.5,0.5,0.1,1.3,0.7,0.9c1.9-1,3.2-2.1,4.6-3.8c0.4-0.5-0.1-1.3-0.7-0.9c-2.5,1.5-4.9,3.1-7.2,4.8
					c-0.5,0.4-0.2,1.3,0.5,1.1c1.7-0.4,2.8-1,4.1-2.2c-0.3-0.3-0.6-0.6-0.8-0.8c-0.8,0.7-1.6,1.5-2.4,2.2c0.3,0.3,0.6,0.6,0.8,0.8
					c0.3-0.4,0.7-0.7,1-1.1c0.4-0.5-0.1-1.3-0.7-0.9c-1.3,0.8-0.9,0.5-1.9,1.7c-0.4,0.5,0.1,1.3,0.7,0.9c1.5-0.9,2.7-1.9,4-3.2
					c0.4-0.4,0-1.2-0.6-1c-1.9,0.7-3,1.6-4.2,3.3c-0.3,0.5,0.3,1.1,0.8,0.8c1.6-1,2.8-2.2,3.8-3.8c0.3-0.5-0.3-1.1-0.8-0.8
					c-1.3,0.9-2.1,1.6-2.8,3c-0.3,0.5,0.3,1.1,0.8,0.8c1.7-1,3-2.2,4.2-3.9c0.3-0.5-0.3-1.2-0.8-0.8c-1.4,1.1-1.1,0.7-2.1,2.3
					c-0.3,0.5,0.3,1.1,0.8,0.8c1.3-0.7,2.6-1.4,3.8-2.2c-0.3-0.3-0.5-0.5-0.8-0.8c-0.6,1.3-1,2.4-1.4,3.8c-0.1,0.4,0.3,0.9,0.7,0.7
					c1.7-0.5,2.4-1,3.4-2.6c-0.3-0.2-0.7-0.4-1-0.6c-0.6,1.2-1,2.2,0.4,2.9c0.2,0.1,0.5,0.1,0.7-0.1c0.1-0.1,0.3-0.3,0.4-0.4
					c0.2-0.2,0.2-0.5,0.1-0.7c-0.1-0.2-0.2-0.3-0.2-0.5c-0.2-0.4-0.8-0.4-1,0c-0.1,0.2-0.3,0.5-0.4,0.7c0.3,0.2,0.7,0.4,1,0.6
					c0.6-1.1,0.5-0.8,0.7-2c0.1-0.6-0.8-1.1-1.1-0.5c-0.7,1.5-0.6,1-0.9,2.6c0.4,0,0.8,0,1.1,0c-0.4-2.6-3.8-1.1-0.4,2.3
					c0.2-0.3,0.4-0.7,0.6-1c-0.6-0.3-1.1-0.6-1.7-0.9c-0.2,0.3-0.4,0.7-0.6,1c1.2,0.6,1,0.5,2.4,0.7c0.7,0.1,0.8-1,0.2-1.2
					c-1.5-0.5-2.6-0.6-4.1-0.3c-0.7,0.1-0.5,1.2,0.2,1.2c0.7,0,1.4,0,2.1,0c0-0.4,0-0.8,0-1.2c-1.6,0-2.4,0.3-3.6,1.4
					c-0.6,0.5,0.3,1.3,0.8,0.8c0.4-0.3,0.7-0.6,1.1-1c0.5-0.5-0.1-1.2-0.7-0.9c-1,0.5-1.9,1-2.9,1.5c0.2,0.3,0.4,0.7,0.6,1
					c0.8-0.5,1.5-1,2.3-1.5c0.5-0.4,0.2-1.3-0.5-1.1c-1,0.2-2,0.5-2.9,1c-0.7,0.3-0.4,1.4,0.3,1.1c0.3-0.1,0.5-0.2,0.8-0.3
					c0.7-0.2,0.5-1.1-0.2-1.2c-1-0.1-2-0.2-3-0.3c-0.7-0.1-1.1,0.9-0.3,1.1c1.6,0.4,1.2,0.4,2.9,0.5c0-0.4,0-0.8,0-1.2
					c-1.1-0.1-2.1-0.1-3.1,0.1c-0.5,0-0.7,0.5-0.5,0.9c0,0.1,0.1,0.2,0.1,0.2c0.1,0.2,0.4,0.4,0.7,0.3c0.1,0,0.2-0.1,0.3-0.1
					c0.3-0.1,0.5-0.4,0.4-0.7c-0.3-1.1-1.1-1-2.1-0.9c0.1,0.4,0.1,0.8,0.2,1.2c1-0.4,0.9-0.4,1.7-1c0.4-0.4,0-1.2-0.6-1
					c-1.4,0.5-1.1,0.3-2.3,1c0.2,0.3,0.4,0.7,0.6,1c1.1-0.7,0.8-0.5,1.6-1.5c0.5-0.6-0.3-1.4-0.8-0.8c-1,1.1-2.2,2.1-3.6,2.8
					c-0.6,0.4-0.2,1.3,0.5,1.1c0.3-0.1,0.6-0.2,0.9-0.2c0.8-0.2,0.4-1.3-0.3-1.1c-1,0.1-2,0.2-3,0.3c0,0.4,0,0.8,0,1.2
					c0.4,0,0.9-0.1,1.3-0.1c0.3,0,0.6-0.2,0.6-0.6c0.2,0.4,0.7,0.6,1.2,0.6c0.1-0.4,0.2-0.8,0.3-1.1c-0.5-0.2-1.1-0.3-1.6-0.5
					c0,0.4-0.1,0.7-0.1,1.1c4.4-1.6,9.5-2.8,12.1-7c0.3-0.4-0.2-1.1-0.7-0.9c-1.7,0.7-1.3,0.4-2.5,1.7c-0.5,0.5,0.2,1.3,0.7,0.9
					c2.1-1.4,3.8-3,5.4-5c0.4-0.5-0.1-1.3-0.7-0.9c-2.1,1.4-3.7,3-5.1,5.2c-0.3,0.5,0.3,1.1,0.8,0.8c2-1.1,3.3-2.3,4.8-4.1
					c0.4-0.5-0.1-1.4-0.7-0.9c-1.6,1.2-2.5,2.3-3.3,4.2c-0.2,0.5,0.3,1.2,0.8,0.8c1.8-1.2,3.1-2.5,4.3-4.3c0.3-0.5-0.3-1.2-0.8-0.8
					c-1.6,1.2-2.8,2.5-4,4.2c-0.3,0.4,0.2,1.1,0.7,0.9c1.5-0.6,2.1-1.1,2.8-2.6c0.3-0.5-0.3-1.1-0.8-0.8c-1.9,1.1-2.7,2.2-3.2,4.3
					c-0.1,0.5,0.4,0.9,0.9,0.7c1.6-0.9,2.9-2.1,2.6-4.1c0-0.3-0.3-0.4-0.6-0.4c-2-0.1-2.7,2.7-1.6,4.1c1.7,2.2,3.9-1.1,5.1,1.8
					c0.3-0.2,0.7-0.4,1-0.6c-0.2-0.3-0.3-0.6-0.5-0.9c-0.3,0.2-0.6,0.5-0.9,0.7c0.6,0.7,1.1,1.5,1.7,2.2c0.3-0.3,0.6-0.6,0.8-0.8
					c-0.3-0.4-0.6-0.9-0.9-1.3c-0.3,0.2-0.6,0.5-0.9,0.7c0.5,0.5,1,1,1.5,1.5c0.3-0.3,0.6-0.6,0.8-0.8c-0.7-0.7-0.8-0.7-1.6-1.3
					c-0.4-0.3-1.1,0.2-0.9,0.7c0.2,0.6,0.5,1.2,0.7,1.8c0.3-0.2,0.7-0.4,1-0.6c-0.3-0.4-0.7-0.9-1-1.3c-0.3,0.2-0.6,0.5-0.9,0.7
					c0.3,0.2,0.6,0.5,0.9,0.7c0.5,0.4,1.3-0.1,0.9-0.7c-0.7-1-0.5-0.8-1.4-1.6c-0.3,0.3-0.6,0.6-0.8,0.8c0.3,0.3,0.7,0.6,1,0.8
					c0.5,0.4,1.3-0.1,0.9-0.7c-0.4-0.7-0.4-0.7-1-1.1c-0.3-0.2-0.8,0-0.9,0.4c-0.4,1.3-0.4,1.2,0.4,2.4c0.3,0.4,1,0.4,1.1-0.1
					c0.9-3.5-3.9-2.1-2.5-0.1c1.4,2,4.2-1.8,0.7-2.2c-0.3,0-0.6,0.3-0.6,0.6c0,0.7,0,0.8,0.5,1.3c0.5,0.5,1.3-0.2,0.9-0.7
					c-0.4-0.6-0.5-0.7-1.3-0.9c-0.5-0.1-0.9,0.4-0.7,0.9c0.1,0.3,0.3,0.6,0.4,0.8c0.3-0.2,0.7-0.4,1-0.6c-0.2-0.3-0.5-0.6-0.7-0.9
					c-0.4-0.5-1.2-0.2-1.1,0.5c0,0.2,0.1,0.5,0.1,0.7c0.4-0.2,0.7-0.3,1.1-0.5c-0.3-0.5-0.5-0.9-0.8-1.4c-0.2,0.3-0.4,0.6-0.7,0.9
					c1.2,0.5,0.8,0.4,2.1,0.4c0.6,0,0.7-0.6,0.4-1c-1.8-5.1-1.7-6.6,0.5-4.3c0.5,0.4,1.1,0,1-0.6c-0.3-1.5-0.7-2.8-1.2-4.3
					c-0.2-0.7-1.3-0.4-1.1,0.3c0.3,1.3,0.5,2.6,0.8,3.9c0.4-0.1,0.8-0.2,1.1-0.3c-0.4-1.9-1-3.5-2.1-5.2c-0.4-0.6-1.2-0.2-1.1,0.5
					c0.4,1.7,0.8,3.3,1.3,4.9c0.2,0.6,1.3,0.5,1.2-0.2c-0.2-1.6-0.6-2.8-1.3-4.3c-0.3-0.5-1.1-0.3-1.1,0.3c0,1.4,0.2,2.6,0.6,4
					c0.1,0.5,1.1,0.6,1.1,0c0.3-2.2,0.3-1.5,0.2-3.7c0-0.7-0.9-0.8-1.2-0.2c-0.6,1.5-0.7,2.6-0.7,4.2c0,0.6,0.8,0.8,1.1,0.3
					c0.7-1.3,0.6-1,0.5-2.5c0-0.5-0.6-0.8-1-0.4c-1.2,1.4-1.6,2.2-1.6,4.1C128.5,87.2,129.7,87.2,129.7,86.5L129.7,86.5z"/>
			</g>
		</g>
		<g>
			<g>
				<path class="st1" d="M68.3,73.3c-2.2-4.4,0.3-7.2,0.5-11.4c0.2-3.1-1.1-6.1-1.1-9.2c0-4.4,3.3-6.8,6-9.8
					c1.9-2.1,3.5-4.5,4.7-7.1c0.7-1.5-1-3-2.3-1.8c-1.2,1.1-1.8,2.1-2.4,3.6c-0.6,1.6,2,2.6,2.7,1.1c1.6-3.2,3.1-5.9,7-6.6
					c2.2-0.4,3.9-0.1,6.1-1.1c1.1-0.5,0.9-2.5-0.4-2.7c-1.4-0.2-1.7-0.2-3,0.1c0.4,0.9,0.8,1.8,1.1,2.7c2.8-1.3,4.9-1.8,8-1.7
					c1.1,0,2,0.4,3.1,0.2c1-0.2,1.9-0.9,2.8-1.1c2.4-0.4,4.1,0.9,6.2,1.6c2.3,0.8,4.6,0,6.8,0.5c4.7,1.1,4.7,6,6.6,9.4
					c0.5,0.9,2.1,1,2.6,0c1.1-2.4,1.1-4.2-0.3-6.5c-0.9,0.5-1.7,1-2.6,1.5c1.7,2.5,3.5,4.3,6,5.9c0.9,0.6,2.3-0.2,2.2-1.3
					c0-1.2-0.3-1.6-1.3-2.3c-0.4,0.9-0.8,1.8-1.1,2.7c4.3,1.1,3.8,10,5,13.6c0.6,2,0.8,1.5,0.9,4.4c0.2,3.4-0.3,2.1-0.7,4.3
					c-0.2,1.1-0.3,1.9,0,3c0.3,1.2,1.4,2.3,1.6,3.4c0.5,3.2-1.4,3.8-2.7,6c-0.7,1.1-0.9,2.2-0.6,3.5c0.3,1.4,3.1,4.2,1.9,5.6
					c-1.1,1.3,0.3,3.1,1.8,2.3c1.1-0.5,1.3-0.7,1.9-1.8c0.7-1.2-0.8-2.9-2-2c-2.2,1.5-3.4,3.2-3.9,5.9c1,0,1.9,0,2.9,0
					c-1.2-3.3-2.8-6.9-2-10.5c0.8-3.3,2-6.4,2.5-9.8c-1-0.1-1.9-0.3-2.9-0.4c0-2.3,1.8-4.2,1.2-6.6c-0.3-1.2-1.3-2-1.7-3.1
					c-1.1-2.6,0-5.7,0.4-8.4c-1,0-1.9,0-2.9,0c1,2.9,1.6,5.5,1.8,8.5c0.1,1.9,3,1.9,3,0c0-1.2,0-2.5,0-3.7c-1,0.1-1.9,0.3-2.9,0.4
					c0.4,2.5,0.7,4.9,1.1,7.4c0.3,1.7,2.9,1.2,2.9-0.4c0-1,0.1-2.1,0.1-3.1c-1,0.1-1.9,0.3-2.9,0.4c0.1,1,0.3,2,0.4,3
					c0,1.4,2.1,2.2,2.8,0.8c1.1-2.5,1-4.7-0.6-6.8c-0.8-1.1-2.8-0.9-2.8,0.8c0,3.9-0.7,7.6-0.7,11.5c0,2.1,0.4,3.8,1.9,5.3
					c0.7,0.7,1.9,0.5,2.3-0.3c0.3-0.5,0.6-1.1,0.9-1.6c-0.9-0.1-1.8-0.2-2.7-0.4c0.1,0.3,0.2,0.6,0.3,0.9c0.6,1.8,3.4,1.1,2.9-0.8
					c-1.9-6.3-3.8-12.6-5.7-18.9c-0.5-1.5-0.7-3.5-1.8-4.8c-1.8-2.2-4.3-2.8-5.3-6c-0.5-1.5-2.4-1.4-2.9,0c-0.6,1.5-0.2,2.6,0.9,3.7
					c1.3,1.3,3-0.4,2.3-1.8c-0.7-1.6-1.7-2.3-3.2-3.1c-1.5-0.7-3.2-1-4.7-1.8c-0.7-0.5-1.4-0.9-2-1.4c0.2-2.9,1.8-2.7,4.9,0.5
					c0.6,0.5,1.3,1,1.9,1.4c-0.3,0.7-0.6,1.4-0.8,2.1c0.9,0,1.7,0,2.6,0c-0.4,0.1-0.7,0.3-1.1,0.4c0.6-0.1,1.2-0.2,1.8-0.2
					c0.3,0.6,0.6,1.1,1,1.7c0.7,0.4,1.5,0.9,2.2,1.3c-0.4,0.4-0.8,0.8-1.3,1.2c0.8-0.1,1.6-0.2,2.3-0.3c-0.6,0.1-1.1,0.1-1.7,0.2
					c0.7-0.3,1.5-0.6,2.2-0.9c-0.7,0-1.4,0.1-2.2,0.1c0.9-0.3,1.8-0.5,2.8-0.8c-1.2-1.9-2.4-3.8-3.7-5.7c-0.4,0.7-0.9,1.5-1.3,2.2
					c3.2,0,4.5,5.6,4.6,7.8c1,0,2,0,3,0c-0.3-1.7-0.2-3.4,0.2-5.1c-1,0-1.9,0-2.9,0c0.5,1.5,1,3,1.5,4.5c0.9-0.4,1.8-0.8,2.7-1.1
					c-1.6-2.5-3.1-5-4.3-7.7c-0.7,0.7-1.4,1.4-2,2c0.8,1,1.6,2,2.4,3.1c0.3-0.6,0.7-1.2,1-1.8c-1,0.1-1.9,0.2-2.9,0.4
					c-1.9-0.1-1.9,2.9,0,3c2,0.1,1.7,0.1,3.7-0.5c0.8-0.2,1.2-1,1-1.8c-0.6-2.4-1.6-3.7-3.8-4.8c-1.4-0.7-2.6,0.7-2,2
					c1.2,2.7,2.6,5.3,4.3,7.7c0.9,1.3,3.3,0.5,2.7-1.1c-0.5-1.5-1-3-1.5-4.5c-0.4-1.3-2.6-1.5-2.9,0c-0.4,2.1-0.5,3.8-0.3,5.9
					c0.2,1.9,3.1,1.9,3,0c-0.4-4.1-2.6-10.9-7.6-10.8c-1.1,0-1.9,1.3-1.3,2.2c1.3,1.9,2.5,3.8,3.7,5.7c0.8,1.4,2.6,0.7,2.8-0.8
					c0.3-2.3-1.5-5.3-4-3.5c-2.6,1.9-0.1,4.8,1.7,5.9c0.9,0.5,1.9,0,2.2-0.9c0.9-2.4,0.4-7.9-3.7-6c-3,1.4-1.2,5.4,0.4,7.1
					c0.7,0.7,1.8,0.5,2.3-0.3c4.7-6.4-4.5-9.5-4.3-2.7c0,1.2,1.2,1.8,2.2,1.3c3.4-1.6,1.9-5.9-1.6-6.1c-2.6-0.2-5.5,2.8-2.4,4.4
					c0.6,0.3,1.3,0.2,1.8-0.2c5.8-5.6-7.2-7.1-3.6-1c0.5,0.9,2.1,1.1,2.6,0c0.9-2,1.7-5.4-1.2-6.3c-2-0.7-3.3,0.9-3.5,2.7
					c-0.1,0.9,1,1.8,1.9,1.4c7-2.7-0.8-10.5-3.6-5.4c-3.5,6.4,9.8,4.5,4-0.5c-0.4-0.3-0.9-0.6-1.4-0.4c-2,0.7-2.8,2.2-1.7,4.1
					c0.2,0.5,0.8,0.7,1.3,0.7c2.3,0,3.9-3,1.6-4.4c-2.5-1.6-6.4,1.5-5.7,4.3c0.9,3.4,5,2.4,6.1-0.3c1.2-2.9-1.3-6.6-4.5-5
					c-2.3,1.1-2.6,4.8,0.4,5c3.1,0.2,5.5-4.2,3.2-6.4c-2.6-2.6-7.4,0.2-8.4,3.1c-2.3,6.1,8.9,5.9,10.5,9.6c0.8-0.6,1.6-1.2,2.3-1.8
					c0-0.3-0.1-0.5-0.1-0.8c-1,0-1.9,0-2.9,0c1.5,4.6,5.7,6.3,7.1,10.8c1.9,6.3,3.8,12.6,5.7,18.9c1-0.3,1.9-0.5,2.9-0.8
					c-0.1-0.3-0.2-0.6-0.3-0.9c-0.4-1.2-2-1.5-2.7-0.4c-0.3,0.5-0.6,1.1-0.9,1.6c0.8-0.1,1.6-0.2,2.3-0.3c-1.9-1.9-0.7-5.2-0.5-7.5
					c0.2-2.4,0.2-4.8,0.2-7.2c-0.9,0.3-1.8,0.5-2.8,0.8c0.2,1.3,0.4,2.6,0.6,3.8c0.9,0.3,1.8,0.5,2.8,0.8c0-1.9,0-1.9-0.5-3.8
					c-0.4-1.7-2.9-1.3-2.9,0.4c0,1-0.1,2.1-0.1,3.1c1-0.1,1.9-0.3,2.9-0.4c-0.4-2.5-0.7-4.9-1.1-7.4c-0.3-1.7-2.9-1.2-2.9,0.4
					c0,1.2,0,2.5,0,3.7c1,0,2,0,3,0c-0.2-3.3-0.8-6.3-1.9-9.3c-0.4-1.2-2.6-1.6-2.9,0c-0.4,2.7-1.6,6.4-0.8,9.2
					c0.3,1,1.2,1.7,1.4,2.5c1.1,3.2-0.3,3-1,5.4c-0.9,3.1,0.8,6.6,4.1,7c0.5,0.1,1-0.3,1.3-0.7c1-1.3,1-2.9,1-4.5
					c0-1.6-2.6-2.1-2.9-0.4c-0.4,2.2-0.8,4.4-1.5,6.6c-0.4,1.5-1.6,3.5-1.7,5c-0.2,3.3,1.5,7.3,2.6,10.3c0.5,1.2,2.6,1.6,2.9,0
					c0.1-1.7,1-3.1,2.6-4.1c-0.7-0.7-1.4-1.4-2-2c-0.3,0.2-0.5,0.5-0.8,0.7c0.6,0.8,1.2,1.6,1.8,2.3c1.1-1.3,1.4-2.3,1.1-3.9
					c-0.3-1.3-1.4-2.2-1.7-3.3c-0.5-2.4,1-3,2.2-4.6c3.3-4-1.4-6.6-0.8-10.6c0.4-2.6,1.9-3.6,1.3-6.5c-0.7-3.5-2.7-6.1-3-9.8
					c-0.4-4.3-1-8.7-5.8-9.9c-1.6-0.4-2.6,1.8-1.1,2.7c-0.1-0.1-0.1-0.2-0.2-0.3c0.7-0.4,1.5-0.9,2.2-1.3c-2.2-1.4-3.5-2.7-4.9-4.9
					c-1.1-1.6-3.6-0.1-2.6,1.5c0.1,1.2,0.2,2.3,0.3,3.5c0.9,0,1.7,0,2.6,0c-1.6-2.8-1.9-6.7-4.3-9c-3.2-3-8.4-1.3-12.2-2.9
					c-1.4-0.6-2.6-1.5-4.1-1.6c-1.7-0.1-3.3,0.9-4.9,1.2c-1.9,0.3-3.7-0.1-5.6,0.1c-2.2,0.3-4.3,1.3-6.3,2.2
					c-1.6,0.7-0.4,3.2,1.1,2.7c0.5,0,1-0.1,1.5-0.1c-0.1-0.9-0.2-1.8-0.4-2.7c-3.1,1.4-6.4,0.1-9.3,2.2c-2.3,1.6-3.6,4.2-4.8,6.6
					c0.9,0.4,1.8,0.8,2.7,1.1c0.6-0.8,1.1-1.5,1.7-2.3c-0.8-0.6-1.6-1.2-2.3-1.8C72.7,40.8,64.7,45,64.7,52.7c0,1.7,0.5,3.4,0.7,5
					c0.6,3.5-0.2,5.4-0.9,8.6c-0.7,3.1-0.2,5.7,1.2,8.5C66.6,76.6,69.2,75.1,68.3,73.3L68.3,73.3z"/>
			</g>
		</g>
		<g>
			<g>
				<path class="st1" d="M72.9,47c0.3-0.2,0.6-0.4,0.9-0.7c-0.5-0.8-1-1.7-1.4-2.5c-0.5,0.4-1.1,0.9-1.6,1.3
					c-1.3,1.1,0.4,3.2,1.8,2.3c2.6-1.6,5.8-1.2,8.3-3.1c0.6-0.4,1-1,1.5-1.5c2.7-2.6,4.5-3.6,8.1-2.9c2.4,0.4,5,1.4,7.3,0.4
					c0.7-0.3,1.2-0.7,1.8-1.2c3.2-2.3,5.6-2.4,9.4-1.3c0.6,0.2,1.3-0.1,1.7-0.7c0.8-1.5,1.8-2.7,3.2-3.6c-0.7-0.7-1.4-1.4-2-2
					c-0.9,0.5-1.8,1-2.6,1.4c0.5,0.6,1,1.3,1.4,1.9c0.7-0.6,1.3-1.2,2-1.7c-0.4-0.8-0.7-1.7-1.1-2.5c-0.5,0.9-1.3,1.5-2.3,1.8
					c0.7,0.7,1.4,1.4,2,2c1.2,0.3,2.5,0.5,3.7,0.8c0.3,0.7,0.7,1.4,1,2.1c0.4,0.8,0.7,1.5,1,2.3c0.3,0.5,3.5,5.2,3.3,5.3
					c0.8,0.1,1.6,0.2,2.3,0.3c-0.6-1.3,0.1-3.1-0.7-4.7c-1-1.9-2.9-4-4.4-5.5c-1.4-1.3-2.9-2.5-4.8-3.1c-0.9-0.3-2.2-0.7-3.1-0.6
					c0,0-5.2,0.6-3.2,1.9c0.2,0.6,0.5,1.1,0.7,1.7c0.8-0.9,1.6-1.8,2.4-2.7c-0.7-0.4-1.5-0.9-2.2-1.3c-0.5,0.7-1,1.5-1.5,2.2
					c-0.5-0.6-1-1.3-1.4-1.9c0.6-1.6,2.8-0.4,0.8-2.1c-0.6-0.5-1.8-0.7-2.6-0.7c-3.4-0.2-7.4,1.7-10.5,2.8
					c-8,2.8-15.3,6.9-21.8,12.4c-1.4,1.2,0.4,3,1.8,2.3c3-1.4,5.6-3.2,8.1-5.4c-0.8-0.6-1.6-1.2-2.3-1.8c-0.4,0.7-0.8,1.4-1.2,2.2
					c-0.9,1.7,1.5,3.1,2.6,1.5c1.3-2.1,2.2-4,2.8-6.4c-1-0.1-1.9-0.3-2.9-0.4c-0.6,1.3-1.3,2.5-1.9,3.8c0.8,0.4,1.7,0.7,2.5,1.1
					c-0.4-1.8,0-3.5,1.2-5c-0.9-0.5-1.7-1-2.6-1.5c-0.5,1-1.2,1.8-2.1,2.4c0.8,0.6,1.6,1.2,2.3,1.8c1-2,2.5-3.5,4.5-4.5
					c-0.7-0.6-1.5-1.1-2.2-1.7c-0.3,0.4-0.5,0.9-0.8,1.3c0.7,0.7,1.4,1.4,2.1,2.1c1.5-1.5,3-2.5,4.9-3.3c-0.6-0.6-1.2-1.2-1.8-1.8
					c-0.5,1.7-1.5,3.1-3.1,4.1c0.6,0.8,1.2,1.6,1.8,2.3c1.6-2.1,3.4-3.6,5.8-4.9c-0.6-0.8-1.2-1.6-1.8-2.3c-1.2,1.3-2.5,2.4-4,3.4
					c0.6,0.8,1.2,1.6,1.8,2.3c2-1.8,3.5-2.6,6-3.4c-0.6-0.7-1.1-1.5-1.7-2.2c-1.2,2-2.1,3-3.9,4.4c0.7,0.7,1.4,1.4,2.1,2.1
					c1.8-2.2,3.8-3.7,6.5-4.6c-0.5-0.8-1-1.7-1.4-2.5c-2.1,2.7-4.5,4.8-7.3,6.7c0.6,0.8,1.2,1.6,1.8,2.3c2.2-2,4.6-3.6,7.2-5
					c-0.7-0.7-1.4-1.4-2-2c-1.1,1.9-2.4,3.4-4.2,4.8c0.7,0.7,1.4,1.4,2.1,2.1c1.5-1.7,2.9-2.7,5.1-3.3c-0.6-0.7-1.1-1.5-1.7-2.2
					c-1.1,1.7-2.3,2.9-4,3.9c0.5,0.9,1,1.7,1.5,2.6c0-0.2-0.1-0.4-0.1-0.6c0.6,0.7,1.1,1.5,1.7,2.2c0.6-1.8,1.9-3,3.9-3.6
					c-0.6-0.6-1.2-1.2-1.8-1.8c-0.6,0.7-1.1,1.4-1.7,2.1c0.7,0.7,1.4,1.4,2,2c1.4-0.9,2.7-1.7,4.1-2.6c-0.4-0.7-0.9-1.5-1.3-2.2
					c-1.1,0.9-2.2,1.8-3.3,2.6c0.6,0.7,1.1,1.5,1.7,2.2c1.3-1.8,2.7-3,4.7-4c-0.7-0.7-1.4-1.4-2-2c-0.5,0.4-1,0.8-1.5,1.2
					c0.6,0.6,1.2,1.2,1.8,1.8c0.3-0.2,0.6-0.5,0.8-0.7c-0.4-0.8-0.7-1.7-1.1-2.5c0.2,0.5,0.3,0.9,0.5,1.4c-0.4-0.8-0.7-1.7-1.1-2.5
					c-0.3,0.1-0.6,0.2-1,0.4c0.4,0.8,0.7,1.7,1.1,2.5c0.9-0.6,1.8-1.1,2.8-1.7c-0.4-0.9-0.8-1.8-1.1-2.7c-0.9,0.4-3.4-1.4-4.7-1.4
					c-1.8,0-3.3,0.8-4.9,1.5c-4.5,2.1-9,4.3-13.1,7.3c-2.5,1.8-13.5,11-9,14.5c0.9,0.7,2.1,0.5,2.5-0.7c0.5-1.2,0.9-2.4,1.4-3.6
					c-1-0.1-1.9-0.3-2.9-0.4c0,1.8,0.5,3.2,0.6,5c0,2.7-1.1,4.2-2.6,6.3c0.9,0.1,1.8,0.2,2.7,0.4c-0.1-0.7-1.6-7-0.9-7.2
					c-0.6-0.5-1.3-1-1.9-1.4c0.1,1,0.1,2.1-0.1,3.1c-0.2,1.2,1.4,1.7,2.2,1.3c0.4-0.2,0.7-0.3,1.1-0.5c-0.7-0.7-1.4-1.4-2-2
					c-1.8,3.9-2.4,7.7-1.2,11.9c0.5,1.7,0.8,1,1.1,3.5c0.3,2.7-0.1,1.9-0.4,3.9c-0.3,2.4-0.6,4.3-0.1,6.7c0.8-0.5,1.7-1,2.5-1.4
					c-3.4-3.5-1.3-9-1.2-13.3c-1,0.1-1.9,0.3-2.9,0.4c0.2,1.3,0.7,9.1,4.1,5.8c-0.8-0.6-1.6-1.2-2.3-1.8c-1.2,2.4-1.5,4.4-0.6,7
					c0.9,2.9,1.3,4.5,0.9,7.7c-0.1,0.7-0.4,5.5-1,5.8c0.6,0.3,1.2,0.7,1.8,1c-0.7-4.5,2-8.2,0.1-12.6c-0.9,0.5-1.7,1-2.6,1.5
					c1.7,3.4,2.3,6.9,2,10.7c0,0.7,0.5,1.3,1.1,1.4c3,0.9,5.9,2.4,9,1.8c1-0.2,1.5-1.8,0.7-2.5c-2.1-1.7-4.3-3.3-6.5-4.9
					c-1.5-1.1-3,1.4-1.5,2.6c2,1.5,3.9,3,5.9,4.5c0.2-0.8,0.4-1.7,0.7-2.5c-2.3,0.5-5.3-1.1-7.4-1.8c0.4,0.5,0.7,1,1.1,1.4
					c0.3-4.4-0.5-8.3-2.4-12.2c-0.9-1.8-3.3-0.2-2.6,1.5c1.5,3.5-1,8.1-0.4,11.9c0.1,0.7,1.1,1.3,1.8,1c3.3-1.3,2.8-5.7,3.2-8.8
					c0.2-1.4,0.5-2.8,0.4-4.2c-0.3-3.2-2.9-5.1-1.1-8.8c0.7-1.5-1.1-3-2.3-1.8c1.6,0.5,2,0.1,1.3-1.5c-0.1-1-0.3-2-0.4-3
					c-0.2-1.7-2.9-1.2-2.9,0.4c-0.1,5.4-2.1,11,2.1,15.4c1.1,1.1,2.7-0.1,2.5-1.4c-0.6-3.3,0.5-4.9,1.3-7.9c0.4-1.4,0.7-2,0.3-3.4
					c-0.2-0.7-0.8-1.2-1.2-1.9c-2.2-3.7-1.8-6.7,0-10.5c0.6-1.4-0.7-2.7-2-2c-0.4,0.2-0.7,0.3-1.1,0.5c0.7,0.4,1.5,0.9,2.2,1.3
					c0.2-1,0.3-2.1,0.1-3.1c0-1-0.9-1.7-1.9-1.4c-4.5,1.3-1.7,7.7-1.1,10.8c0.3,1.4,2,1.3,2.7,0.4c1.4-1.8,2.7-3.7,3.2-6
					c0.5-2.4-0.8-4.3-0.7-6.8c0-1.8-2.4-1.9-2.9-0.4c-0.5,1.2-0.9,2.4-1.4,3.6c0.8-0.2,1.7-0.4,2.5-0.7c-0.9-0.7,5.2-7.2,5.7-7.7
					c2.7-2.5,5.9-4.5,9.2-6.3c3.5-1.9,7.8-4.6,11.7-3.6c2.2,0.5,2.3,1.2,4.4,0.2c1.6-0.7,0.4-3.1-1.1-2.7c-1.8,0.4-2.9,1.1-4.1,2.4
					c-0.8,0.9-0.3,2.7,1.1,2.5c2.2-0.2,6.1-3.1,2.7-5.1c-3-1.7-6.7,2-6.1,4.8c0.1,0.5,0.6,0.9,1,1c2.3,0.5,3.9-0.4,5.5-2.1
					c0.8-0.9,0.3-2.6-1.1-2.5c-7.4,0.2-3,9.3,1.6,3.7c0.7-0.9,0.4-2.7-1.1-2.5c-2.1,0.2-3,0.9-3.7,2.9c-0.4,1,0.8,2.2,1.8,1.8
					c1.5-0.6,2.3-1.2,3.2-2.6c0.9-1.3-0.8-2.7-2-2c-2.4,1.3-4.1,2.9-5.7,5.1c-0.7,1,0.5,2.6,1.7,2.2c2.3-0.9,3.7-1.9,5-4
					c0.6-0.9-0.2-2.4-1.3-2.2c-3,0.4-5,1.6-6.6,4.1c-0.8,1.2,0.8,2.9,2,2c1.6-1.1,2.4-2.1,3-3.9c0.4-1-0.8-2.2-1.8-1.8
					c-2.7,0.9-4.4,2.4-5.7,5c-0.5,1.1,0.3,2.7,1.7,2.2c6.3-2.2,3.9-9.3-2.1-4.8c-1.5,1.1-0.2,3.6,1.5,2.6c2.2-1.3,3.7-2.8,5.1-4.9
					c0.7-1.1-0.5-2.6-1.7-2.2c-2.6,0.8-4.6,2-6.4,4.1c-1.3,1.5,0.6,3.3,2.1,2.1c2-1.5,3.4-3.2,4.6-5.4c0.8-1.3-0.7-2.7-2-2
					c-2.8,1.5-5.4,3.3-7.8,5.5c-1.3,1.1,0.4,3.3,1.8,2.3c3.1-2,5.7-4.3,7.9-7.2c0.8-1,0.1-3-1.4-2.5c-3.2,1.1-5.7,2.8-7.8,5.4
					c-1.2,1.5,0.6,3.3,2.1,2.1c1.8-1.4,3.2-3,4.4-5c0.6-1.1-0.4-2.6-1.7-2.2c-2.9,0.9-5.1,2.2-7.3,4.2c-1.2,1.1,0.4,3.2,1.8,2.3
					c1.8-1.1,3.2-2.3,4.7-3.9c1.1-1.2-0.3-3.1-1.8-2.3c-2.6,1.4-4.5,3-6.4,5.3c-0.9,1.2,0.3,3.4,1.8,2.3c2.2-1.5,3.6-3.3,4.5-5.8
					c0.4-1-0.8-2.2-1.8-1.8c-2.5,1-4.4,2.2-6.2,4c-1.4,1.4,0.6,3.3,2.1,2.1c1.2-1,1.3-1.1,1.6-2.6c0.3-1.3-1-2.3-2.2-1.7
					c-2.6,1.4-4.2,3-5.6,5.6c-0.8,1.6,1,2.9,2.3,1.8c1.1-0.9,1.8-1.8,2.6-3c1-1.6-1.6-3.1-2.6-1.5c-1.3,2.1-1.8,4-1.6,6.5
					c0.1,1.3,1.6,2,2.5,1.1c1.8-1.8,2.5-3.4,2.8-5.9c0.2-1.7-2.5-2-2.9-0.4c-0.5,2.1-1.3,3.9-2.5,5.7c0.9,0.5,1.7,1,2.6,1.5
					c0.4-0.7,0.8-1.4,1.2-2.2c0.8-1.5-1.1-2.9-2.3-1.8c-2.3,2-4.7,3.6-7.5,4.9c0.6,0.8,1.2,1.6,1.8,2.3c6.4-5.4,13.5-9.3,21.3-12
					c2.9-1,7.1-3.2,9.9-1.9c0.9,0.4,0.6,1.4,2,1.3c1.8-0.2,2.4-2.5,1.2-3.7c-1.6-1.6-4.8-0.4-4.9,1.8c0,1.9,2.1,3.1,3.7,2
					c2.1-1.4,0.9-4.8-1.6-4.8c-6.3,0,0.1,11,3.1,3.4c0.4-1-0.6-1.8-1.4-1.9c-2.9-0.2-4.3,3.3-1.7,5c3.1,2,6.1-1.3,6.2-4.2
					c0-1.1-1.3-1.8-2.2-1.3c-1.8,1-3.4,2.3-3.8,4.4c-0.1,0.7,0.1,1.3,0.7,1.7c6.4,4.3,5.7-9.7,0.9-5.3c-1.8,1.7-0.3,3.7,1.6,4
					c2.6,0.4,2.2-1,5.5,0.7c1.3,0.7,2.5,1.8,3.5,2.9c2.4,2.6,2.4,5.6,3.7,8.5c0.4,0.9,1.7,0.9,2.3,0.3c1.5-1.4,1.1-2.7,0.2-4.4
					c-0.8-1.4-1.9-2.5-2.6-3.9c-0.9-1.6-1.3-3.5-2.4-5.1c-2.2-3.2-6.6-4.9-8.9-0.8c-0.8,1.4,0.7,2.7,2,2c1.2-0.6,2-1.2,2.9-2.3
					c0.8-1,0.3-2.5-1.1-2.5c-2.7,0-4.4,1.3-4.9,3.9c-0.2,0.9,0.4,1.9,1.4,1.9c2.4,0,3.9-0.8,5.2-2.9c0.7-1.2-0.8-3-2-2
					c-1.8,1.4-3.1,2.8-4.3,4.7c0.6-0.2,1.1-0.5,1.7-0.7c-2.7-0.7-5.7-1.5-8.5-0.5c-2.8,1-4.5,2.9-7.9,3c-1.7,0-3.5-0.8-5.2-0.9
					c-2.9-0.2-4.6,0.5-6.6,2.4c-2,1.8-3.3,3.4-5.9,4.3c-1.6,0.6-3,0.8-4.5,1.7c0.6,0.8,1.2,1.6,1.8,2.3c0.5-0.4,1.1-0.9,1.6-1.3
					c1.2-1-0.1-2.8-1.4-2.5c-1.7,0.4-2.4,1.1-3,2.7C69.4,48,72.2,48.8,72.9,47L72.9,47z"/>
			</g>
		</g>
		<g>
			<g>
				<path d="M99.2,26.2c-3.2-1-6.1-1-9.2,0.1c-2.7,0.9-5.1,2-7.9,2.5c-1.5,0.3-2.9,0.6-4.1,1.4c-3.1,1.9-3.7,5.4-5.7,8.2
					c-2.5,3.5-6.7,5.8-8.2,10c-1.2,3.4,0.4,6.3,0.8,9.7c0.5,4.4-2.1,7.9-1,12.3c1.1,4.6,3.6,8,2.2,12.9c-1,3.5-1,5.3,1.3,8.3
					c0.5,0.6,1.5,0,1-0.6c-3.1-4.2-0.5-6.7-0.4-10.7c0.1-2.5-1-4.8-1.9-7.1c-0.5-1.2-1-2.5-1.2-3.8c-0.5-3.4,0.6-3.9,1.3-6.8
					c0.6-2.5-0.1-4.7-0.7-7.2c-1.5-6.7,1.5-9.5,5.7-13.8c2-2.1,2.8-4,4.3-6.5c1.3-2.3,2.9-4.1,5.5-4.9c1.5-0.5,3.2-0.3,4.7-0.8
					c4.7-1.4,8.1-3.7,13.3-2.1C99.6,27.6,99.9,26.5,99.2,26.2L99.2,26.2z"/>
			</g>
		</g>
		<g>
			<g>
				<path d="M68.4,92.4c2-2.1,4.8-1.2,6.9,0.2c0.7,0.4,1.3-0.6,0.6-1c-2.6-1.7-6-2.5-8.3,0C67,92.1,67.8,92.9,68.4,92.4L68.4,92.4z"
					/>
			</g>
		</g>
		<g>
			<g>
				<path d="M75.2,92.7c2.1,1.5,4.4,0.4,6.3-0.8c0.7-0.4,0.1-1.4-0.6-1c-1.5,0.9-3.4,2-5.1,0.8C75.2,91.2,74.6,92.2,75.2,92.7
					L75.2,92.7z"/>
			</g>
		</g>
		<g>
			<g>
				<path d="M81.6,91.9c2.3-1.3,3.5,1.9,5.7,1.9c0.8,0,0.8-1.2,0-1.2c-1.4,0-2.1-1.5-3.3-2c-1-0.5-2.1-0.3-3.1,0.2
					C80.4,91.3,81,92.3,81.6,91.9L81.6,91.9z"/>
			</g>
		</g>
		<g>
			<g>
				<path d="M87.2,93.8c0.9,0.2,1.6,0,2.3-0.6c0.6-0.5-0.2-1.3-0.8-0.8c-0.3,0.3-0.8,0.4-1.2,0.3C86.8,92.5,86.4,93.7,87.2,93.8
					L87.2,93.8z"/>
			</g>
		</g>
		<g>
			<g>
				<path d="M99,38.5c-1.2,2.4-3.2,2-5.3,1.6c-1.5-0.3-3-0.4-4.6-0.5c-0.8,0-0.8,1.2,0,1.2c3.6,0.2,8.8,2.6,10.9-1.7
					C100.4,38.4,99.3,37.8,99,38.5L99,38.5z"/>
			</g>
		</g>
		<g>
			<g>
				<path d="M99,27c4.9-2.9,6.9,1,11,1.8c1.2,0.3,2.4,0,3.6,0.1c2.2-0.3,4.3,0.3,6.2,1.7c0.7,1.1,1.3,2.2,1.7,3.3c1,1.7,1.3,2,3,3
					c1.9,1.1,3.9,1.5,5.4,3.3c2.1,2.5,2.5,5.6,2.4,8.8c0,0.8,1.2,0.8,1.2,0c0.1-3.9-0.5-7.9-3.5-10.7c-1.2-1.1-2.5-1.3-3.8-2.1
					c-3.6-2.3-3.3-4.6-6-6.8c-0.9-0.8-1.9-1.3-3.2-1.6c-3.6-0.9-5.8,0.3-9.6-1.5c-3.3-1.5-5.5-2.4-9-0.4C97.7,26.3,98.3,27.4,99,27
					L99,27z"/>
			</g>
		</g>
		<g>
			<g>
				<path d="M132.1,48.7c-0.3,1.7,0,3.1,0.8,4.7c1.2,2.5,3.9,5.8,1.1,8.2c-0.6,0.5,0.3,1.4,0.8,0.8c4.6-4-2.4-9-1.6-13.4
					C133.4,48.3,132.2,47.9,132.1,48.7L132.1,48.7z"/>
			</g>
		</g>
		<g>
			<g>
				<path d="M134.7,61.4c-1.7,0.4-2.4,1.8-2.1,3.4c0.2,1.3,1.1,2.3,1.8,3.3c1.5,2.4,1.6,4.4-0.1,6.8c-0.5,0.6,0.6,1.2,1,0.6
					c1.1-1.6,2.1-3.1,1.5-5.1c-0.4-1.5-5.2-7.2-1.9-7.9C135.8,62.4,135.5,61.2,134.7,61.4L134.7,61.4z"/>
			</g>
		</g>
		<g>
			<g>
				<path d="M134.1,74.9c-1.5,0.5-2.2,1.5-2,3.1c0.2,1.5,1.1,2.7,2.3,3.6c0.6,0.4,1.2-0.6,0.6-1c-1.4-1-2.8-3.7-0.6-4.5
					C135.1,75.8,134.8,74.6,134.1,74.9L134.1,74.9z"/>
			</g>
		</g>
		<g>
			<g>
				<path d="M134,81.4c0.5,0.7,1.2,1.5,1.1,2.4c-0.1,1.5-0.9,1.4-1.7,2c-0.5,0.4-0.9,0.9-1.1,1.6c-0.6,1.8,0.3,3.4,1.5,4.7
					c0.5,0.6,1.4-0.3,0.8-0.8c-1.7-1.8-1.7-3.3,0.3-5c0.4-0.4,0.8-0.6,1.1-1.1c0.7-1.5-0.1-3.1-1-4.3
					C134.6,80.1,133.5,80.7,134,81.4L134,81.4z"/>
			</g>
		</g>
		<g>
			<g>
				<path d="M134,91.9c-1.1,0.6-2.3,0.7-3.5,0.2c-0.9-0.3-1.4-1.2-2.3-1.6c-1.3-0.5-2.8,0.5-4,1.1c-0.7,0.3-0.1,1.4,0.6,1
					c1.5-0.7,2.4-1,4.1-0.1c0.6,0.3,1,0.6,1.7,0.8c1.4,0.4,2.7,0.2,4-0.5C135.2,92.6,134.6,91.6,134,91.9L134,91.9z"/>
			</g>
		</g>
		<g>
			<g>
				<path d="M123.8,91.8c-0.8-0.1-1.6,0.2-2.4,0.1c-0.7-0.1-1.3-0.5-2-0.6c-1.2-0.2-2,0.3-2.8,1.2c-0.5,0.6,0.3,1.4,0.8,0.8
					c1.1-1.3,2-0.8,3.4-0.4c1,0.3,1.9-0.1,2.9,0C124.6,93.1,124.5,91.9,123.8,91.8L123.8,91.8z"/>
			</g>
		</g>
		<g>
			<g>
				<path d="M116.5,92.7c-0.6,0.1-1.1,0.5-1.7,0.5c-0.7,0-1.2-0.4-1.9-0.6c-0.8-0.2-1.7-0.1-2.2,0.5c-0.5,0.6,0.3,1.4,0.8,0.8
					c0.7-0.8,2.1,0.3,2.8,0.4c0.9,0.1,1.6-0.3,2.4-0.5C117.5,93.7,117.2,92.5,116.5,92.7L116.5,92.7z"/>
			</g>
		</g>
		<g>
			<g>
				<path d="M127.7,71.2c-3.7-2.5,0.3-5.5,0.6-8.5c0.2-1.7-0.5-3.3-1.8-4.5c-0.6-0.5-1.4,0.3-0.8,0.8c3.3,3.1-0.3,5.5-0.8,8.7
					c-0.3,1.9,0.7,3.4,2.2,4.4C127.8,72.6,128.4,71.6,127.7,71.2L127.7,71.2z"/>
			</g>
		</g>
		<g>
			<g>
				<path d="M126.5,58.5c-1.2-2.6,0.4-5.2-0.7-7.7c-0.8-1.7-2.6-2.6-4-3.6c-0.6-0.5-1.2,0.6-0.6,1c0.8,0.6,1.6,1.1,2.4,1.7
					c1.4,1.2,1.4,2.6,1.2,4.4c-0.2,1.8-0.1,3.1,0.7,4.7C125.8,59.8,126.9,59.2,126.5,58.5L126.5,58.5z"/>
			</g>
		</g>
		<g>
			<g>
				<path d="M121.8,47.2c-1.4-1-1.9-1.9-2.7-3.4c-0.4-0.7-0.7-1.1-1.4-1.5c-0.6-0.3-1.3-0.5-1.9-0.6c-2.1-0.4-3.5-0.4-4.9-2.3
					c-0.5-0.6-1.5,0-1,0.6c1.4,1.9,2.9,2.5,5.1,2.8c1.7,0.2,2.2,0.5,3.2,2.1c0.3,0.5,0.4,0.9,0.7,1.3c0.6,0.8,1.5,1.4,2.3,2
					C121.9,48.7,122.5,47.7,121.8,47.2L121.8,47.2z"/>
			</g>
		</g>
		<g>
			<g>
				<path d="M110.6,39.8c-0.1-1.1-0.7-1.8-1.8-2.2c-1.8-0.7-4.1,0.2-4.9-2.1c-0.3-0.7-1.4-0.4-1.2,0.3c0.4,1,1,1.9,2.1,2.4
					c1.1,0.5,4.4-0.1,4.6,1.6C109.5,40.6,110.7,40.6,110.6,39.8L110.6,39.8z"/>
			</g>
		</g>
		<g>
			<g>
				<path d="M100,39.1c0.5-1,1.5-1.7,2.6-1.7c0.8,0,0.8-1.2,0-1.2c-1.6,0.1-3,0.9-3.7,2.3C98.6,39.2,99.6,39.8,100,39.1L100,39.1z"
					/>
			</g>
		</g>
		<g>
			<g>
				<path d="M104.3,36.6c0,0-0.1-0.1-0.1-0.1c-0.5-0.5-1.4,0.3-0.8,0.8c0,0,0.1,0.1,0.1,0.1C104,38,104.8,37.2,104.3,36.6
					L104.3,36.6z"/>
			</g>
		</g>
		<g>
			<g>
				<path d="M127.1,72.6c1.2,0.4,2.7,1.3,2.3,2.7c-0.2,0.7,1,1.1,1.2,0.3c0.5-2.2-1.3-3.6-3.2-4.2C126.7,71.2,126.4,72.3,127.1,72.6
					L127.1,72.6z"/>
			</g>
		</g>
		<g>
			<g>
				<path d="M89.7,39.6c-2.2-0.7-4.4-0.6-6.3,0.8c-0.9,0.7-1.4,1.5-2,2.4c-0.8,1-1.5,1.8-2.7,2.2c-0.9,0.3-1.9,0.3-2.8,0.6
					c-0.7,0.2-0.4,1.4,0.3,1.2c1.9-0.5,4.2-0.4,5.6-2c0.5-0.6,0.6-1.3,1.1-1.9c1.5-2.2,4.2-2.7,6.6-1.9C90.1,41,90.4,39.8,89.7,39.6
					L89.7,39.6z"/>
			</g>
		</g>
		<g>
			<g>
				<path d="M76.5,45.3c-1.9,0.2-4.1,1.2-3.9,3.5c0.1,0.7,0.3,0.9,0.5,1.5c0.7,1.7,0.8,3.3-0.2,5c-0.9,1.4-2,2.4-2.6,4
					c-0.3,0.7,0.9,1,1.2,0.3c0.8-2.1,2.9-3.4,3.3-5.7c0.1-0.7,0.2-1.4,0-2.1c-0.1-0.5-0.3-0.9-0.4-1.3c-0.1-0.1-0.1-0.3-0.2-0.4
					c-0.8-1.3,0-2.5,2.2-3.5C77.3,46.5,77.3,45.3,76.5,45.3L76.5,45.3z"/>
			</g>
		</g>
		<g>
			<g>
				<path d="M70.1,59.1c-0.4,1.2-0.9,2.6-0.5,3.9c0.4,1.3,1.7,1.7,2.4,2.8c1.9,3-1.6,5-2.1,7.6c-0.2,1.4,0.2,2.7,0.9,3.9
					c0.4,0.7,1.4,0.1,1-0.6c-2.7-4.3,3-6.2,1.9-10.1c-0.2-0.6-0.6-1.1-1-1.6c-1.5-1.8-2.3-3.2-1.6-5.6
					C71.5,58.7,70.3,58.4,70.1,59.1L70.1,59.1z"/>
			</g>
		</g>
		<g>
			<g>
				<path class="st1" d="M85.7,36.6c0.1-2.3-2.3-3.6-4.3-3.1c-1,0.3-2,1.1-2.7,1.9c-0.5,0.6-0.9,1.3-0.9,2.1c0,0.7,0.3,1.6,0.9,2.1
					c1.1,1,3.2,1.3,4.2,0c0.2-0.2,0.4-0.4,0.6-0.6c0.2-0.2-0.6,0.4-0.2,0.1c0.1-0.1,0.2-0.2,0.4-0.2c-0.2,0.1-0.5,0.2-0.7,0.3
					c0,0,0.1,0,0.1,0c-0.3,0-0.5,0.1-0.8,0.1c0.1,0,0.1,0,0.2,0c-0.3,0-0.5-0.1-0.8-0.1c0,0,0.1,0,0.1,0c-0.2-0.1-0.5-0.2-0.7-0.3
					c0,0,0,0,0.1,0c-0.4-0.4-0.7-0.7-1.1-1.1c0,0,0,0,0,0.1c-0.1-0.5-0.3-1-0.4-1.5c0,0,0,0.1,0,0.1c-0.1,1.6,1.4,3,3,3
					C84.4,39.5,85.6,38.3,85.7,36.6L85.7,36.6z"/>
			</g>
		</g>
		<g>
			<g>
				<path class="st1" d="M78.5,88.7c0.6,0.2,1.1,0.5,1.7,0.7c0.6,0.3,1-0.8,0.5-1.1c-0.6-0.4-1.1-0.8-1.6-1.4
					c-0.2,0.3-0.5,0.6-0.7,0.9c0.8,0.4,1.5,0.9,2.2,1.5c0.2-0.3,0.5-0.6,0.7-0.9c-0.7-0.4-1.2-0.8-1.7-1.3c-0.2,0.3-0.5,0.6-0.7,0.9
					c0.5,0.3,1,0.5,1.5,0.9c0.2-0.3,0.4-0.7,0.6-1c-0.9-0.4-1.6-1-2.3-1.7c-0.3,0.3-0.6,0.6-0.8,0.8c1.4,1.1,2.8,2.1,4.3,3.1
					c0.2-0.3,0.4-0.7,0.6-1c-0.8-0.5-1.5-0.9-2.3-1.4c-0.2,0.3-0.4,0.7-0.6,1c1.3,0.7,2.6,1.4,3.9,2c0.2-0.4,0.3-0.7,0.5-1.1
					c-0.6-0.1-1.2-0.3-1.8-0.6c-0.1,0.4-0.2,0.7-0.3,1.1c1.2,0.1,2.2,0.4,3.3,0.8c0-0.4-0.1-0.7-0.1-1.1c-0.1,0-0.2,0-0.3,0
					c-0.6-0.1-0.8,0.9-0.3,1.1c0.8,0.4,1.5,0.7,2.3,1.1c0.2-0.4,0.3-0.7,0.5-1.1c-0.6-0.2-1.2-0.5-1.8-0.7c-0.6-0.3-1,0.7-0.5,1.1
					c0.6,0.4,1.3,0.8,1.9,1.1c0.2-0.4,0.3-0.7,0.5-1.1c-0.5-0.1-1-0.1-1.4-0.2c-0.6-0.1-1.1,0.8-0.5,1.1c1,0.5,1.8,0.7,2.9,0.6
					c0.4,0,0.9-0.7,0.4-1c-0.7-0.6-1.3-0.9-2.3-1c-0.7-0.1-1.1,1-0.3,1.1c0.7,0,1.2,0.3,1.8,0.7c0.1-0.3,0.3-0.7,0.4-1
					c-0.8,0.2-1.6,0-2.3-0.4c-0.2,0.4-0.3,0.7-0.5,1.1c0.5,0.1,1,0.1,1.4,0.2c0.6,0.1,1.1-0.7,0.5-1.1c-0.7-0.4-1.3-0.7-1.9-1.1
					c-0.2,0.4-0.3,0.7-0.5,1.1c0.6,0.2,1.2,0.5,1.8,0.7c0.6,0.3,1.1-0.8,0.5-1.1c-0.8-0.4-1.5-0.7-2.3-1.1c-0.1,0.4-0.2,0.7-0.3,1.1
					c0.4,0,0.5,0,0.9-0.2c0.5-0.2,0.3-0.9-0.1-1.1c-1.2-0.4-2.4-0.7-3.6-0.8c-0.6-0.1-0.8,0.8-0.3,1.1c0.7,0.4,1.3,0.6,2.1,0.8
					c0.6,0.1,1.1-0.8,0.5-1.1c-1.3-0.6-2.6-1.3-3.9-2c-0.7-0.4-1.3,0.6-0.6,1c0.8,0.5,1.5,0.9,2.3,1.4c0.7,0.4,1.3-0.6,0.6-1
					c-1.4-0.9-2.8-1.8-4.1-2.9c-0.6-0.5-1.4,0.3-0.8,0.8c0.7,0.8,1.5,1.4,2.5,1.9c0.7,0.3,1.2-0.6,0.6-1c-0.5-0.4-0.9-0.6-1.5-0.9
					c-0.6-0.3-1.2,0.4-0.7,0.9c0.6,0.6,1.2,1.1,1.9,1.5c0.6,0.3,1.2-0.5,0.7-0.9c-0.8-0.7-1.5-1.2-2.4-1.7c-0.6-0.3-1.2,0.4-0.7,0.9
					c0.6,0.6,1.1,1.1,1.9,1.5c0.2-0.4,0.3-0.7,0.5-1.1c-0.6-0.2-1.1-0.5-1.7-0.7C78.1,87.2,77.8,88.4,78.5,88.7L78.5,88.7z"/>
			</g>
		</g>
		<g>
			<g>
				<path class="st1" d="M108.6,31.9c-1.1-1.5-2-3.1-4.2-2.8c-0.9,0.1-1.7,0.7-2.3,1.4c-0.2,0.1-0.1,0.1,0.1-0.1
					c-0.3,0.1-0.3,0.2-0.1,0.1c0.2-0.1,0.2-0.1-0.1,0c0.4,0,0.4-0.1,0-0.1c0.5,1.8,1,3.7,1.5,5.5c0.3-0.2,0.3-0.2,0.2-0.1
					c-0.5,0.4-1.1,0.2-1.8-0.5c-0.3-0.4-0.5-0.9-0.8-1.3c0-0.4,0-0.7,0-1.1c0.3-0.9,0.7-1.3,1.4-1.4c0.2,0,0.2,0,0,0
					c-0.7,0-0.2,0.2,1.4,0.6c0.3,0.7,0.6,1.4,0.9,2.1c0-0.1,0-0.1,0-0.2c-0.1,0.5-0.3,1-0.4,1.5c0-0.1,0.1-0.1,0.1-0.2
					c-0.4,0.4-0.7,0.7-1.1,1.1c-1.5,0-2,0.1-1.3,0.2c0.3,0.1,0.6,0.1,0.9,0.1c0.4,0,0.8,0,1.3-0.1c1.1-0.2,2-1.4,2.1-2.5
					c0.2-1.2-0.4-2.3-1.4-3c0,0-0.1-0.1-0.1-0.1c0.5,0.6,0.9,1.2,1.4,1.8c0-0.1,0-0.1-0.1-0.2c0,0.5,0,1.1,0,1.6c0-0.1,0-0.1,0-0.2
					c-0.3,0.4-0.5,0.9-0.8,1.3c0,0,0.1-0.1,0.1-0.1c-0.4,0.3-0.9,0.5-1.3,0.8c0.1,0,0.1,0,0.2,0c-0.5,0-1.1,0-1.6,0
					c0.1,0,0.1,0,0.2,0c-0.4-0.3-0.9-0.5-1.3-0.8c-0.1-0.1-0.2-0.2-0.3-0.3c-0.1-0.5-0.3-1-0.4-1.5c0,0.1,0,0.1,0,0.2
					c0.1-0.5,0.3-1,0.4-1.5c0.1-0.1,0.1-0.2,0.2-0.3c0.4-0.3,0.9-0.5,1.3-0.8c-0.1,0-0.2,0-0.2,0.1c0.5,0,1.1,0,1.6,0
					c-0.1,0-0.1,0-0.2-0.1c0.6,0.5,1.2,0.9,1.8,1.4c0,0-0.1-0.1-0.1-0.1c0.1,0.5,0.3,1,0.4,1.5c0-0.1,0-0.1,0-0.2
					c-0.1,0.5-0.3,1-0.4,1.5c0,0,0-0.1,0.1-0.1c-0.4,0.4-0.7,0.7-1.1,1.1c0,0,0.1,0,0.1-0.1c-0.5,0.1-1,0.3-1.5,0.4
					c0.4,0-0.3-0.2,0.1,0c0.2,0.1,0.4,0.1,0.7,0.2c1.5,0.6,3.3-0.6,3.7-2.1c0.4-1.7-0.5-3.1-2.1-3.7c-0.8-0.3-1.8-0.5-2.7-0.3
					c-1.5,0.2-2.8,1.5-2.8,3.1c0.1,3,3.7,4.4,5.8,2.3c2-2.1,0.6-5.8-2.4-5.8c-1.5,0-2.7,1-3.1,2.3c-0.5,1.5,0.3,2.9,1.5,3.8
					c0.2-1.8,0.5-3.6,0.7-5.4c0.9,0,1.1,0,0.6-0.1c-0.3-0.1-0.7-0.1-1-0.1c-0.6,0-1.2,0.2-1.7,0.5c-1.1,0.6-1.8,1.8-1.7,3
					c0.1,2.8,3,3.6,5.3,3c2.3-0.6,3.5-3.1,2.6-5.2c-1-2.4-4.2-2.6-6.2-1.3c-2.5,1.6-1.5,5.4,1.5,5.5c1,0,1.9-0.2,2.8-0.6
					c0.4-0.2,0.8-0.5,1.1-0.8c0.1-0.1,1-0.8,0.3-0.3c-0.5,0.1-1,0.3-1.5,0.4c0.1,0,0.1,0,0.2,0c-0.5-0.1-1-0.3-1.5-0.4
					c-0.3-0.2-1-1.1-0.4-0.3c0.1,0.2,0.3,0.4,0.4,0.6c0.9,1.3,2.6,2,4.1,1.1C108.8,35.2,109.5,33.3,108.6,31.9L108.6,31.9z"/>
			</g>
		</g>
		<g>
			<g>
				<path class="st1" d="M132.9,48.8c-0.2-0.3-0.3-0.7-0.4-1.1c-0.3-1.7-3-1.3-2.9,0.4c0,1.3,0.1,2.6,0.1,3.9
					c0.8-0.4,1.7-0.7,2.5-1.1c-0.7-0.7-1-1.4-1.1-2.3c-1,0.3-1.9,0.5-2.9,0.8c0.5,1.1,0.8,2.3,1,3.5c0.2,1.2,1.7,1.3,2.5,0.7
					c0.7-0.7,0.7-1.6,0.7-2.5c0-1,0-2,0-3c-1,0-2,0-3,0c0.1,0.9,0.1,1.8,0.1,2.6c-0.1,1.9,2.9,1.9,3,0c0.1-0.9,0-1.8-0.1-2.6
					c-0.1-0.8-0.6-1.5-1.5-1.5c-0.8,0-1.5,0.7-1.5,1.5c0,0.7,0,1.4,0,2.1c0,0.5,0.1,1.3-0.1,1.8c0.1-0.2,0.3-0.4,0.4-0.7
					c-0.1,0-0.1,0.1-0.2,0.1c0.8,0.2,1.7,0.4,2.5,0.7c-0.2-1.2-0.5-2.4-1-3.5c-0.7-1.8-3.2-1.1-2.9,0.8c0.2,1.4,0.9,2.6,1.9,3.6
					c0.9,0.9,2.6,0.3,2.5-1.1c0-1.3-0.1-2.6-0.1-3.9c-1,0.1-1.9,0.3-2.9,0.4c0.1,0.6,0.3,1.2,0.7,1.8
					C131.3,51.9,133.9,50.4,132.9,48.8L132.9,48.8z"/>
			</g>
		</g>
		<g>
			<g>
				<path class="st1" d="M113.1,91.5c-1,0-0.8,0-1.8,0.3c-0.8,0.2-0.4,1.3,0.3,1.1c1.3-0.2,2.5-0.5,3.8-0.8c0.5-0.1,0.6-1,0-1.1
					c-0.8-0.2-0.8-0.2-1.6,0c0.1,0.4,0.2,0.8,0.3,1.1c1-0.3,1.8-0.7,2.7-1.1c0.7-0.3,0.1-1.3-0.6-1c-0.4,0.2-0.9,0.4-1.3,0.6
					c-0.6,0.3-0.2,1.3,0.5,1.1c1.2-0.5,2.3-1,3.3-1.7c0.7-0.4,0.1-1.3-0.6-1c-0.2,0.1-0.5,0.2-0.7,0.3c0.2,0.3,0.4,0.7,0.6,1
					c1-0.5,1.9-1,2.8-1.6c-0.2-0.3-0.5-0.6-0.7-0.9c-0.2,0.2-0.4,0.4-0.6,0.6c0.3,0.2,0.6,0.5,0.9,0.7c1.5-2,4-3.8,5.7-5.6
					c-0.3-0.3-0.6-0.6-0.8-0.8c-0.4,0.5-0.8,0.9-1.3,1.4c0.3,0.2,0.6,0.5,0.9,0.7c0.7-1.3,1.5-2.5,2.5-3.7c-0.3-0.2-0.6-0.5-0.9-0.7
					c-0.5,0.9-0.9,1.9-1.4,2.8c-0.3,0.7,0.7,1.3,1,0.6c0.5-0.9,0.9-1.9,1.4-2.8c0.3-0.6-0.5-1.3-0.9-0.7c-1,1.2-1.9,2.5-2.7,3.9
					c-0.3,0.6,0.5,1.2,0.9,0.7c0.4-0.5,0.8-0.9,1.3-1.4c0.5-0.6-0.3-1.4-0.8-0.8c-1.9,2-4.3,3.6-5.9,5.8c-0.4,0.6,0.5,1.2,0.9,0.7
					c0.2-0.2,0.4-0.4,0.6-0.6c0.5-0.5-0.1-1.3-0.7-0.9c-0.9,0.6-1.8,1.1-2.8,1.6c-0.7,0.3-0.1,1.3,0.6,1c0.2-0.1,0.5-0.2,0.7-0.3
					c-0.2-0.3-0.4-0.7-0.6-1c-1,0.7-1.9,1.1-3,1.6c0.2,0.4,0.3,0.7,0.5,1.1c0.4-0.2,0.9-0.4,1.3-0.6c-0.2-0.3-0.4-0.7-0.6-1
					c-0.8,0.4-1.6,0.7-2.4,1c-0.7,0.2-0.4,1.3,0.3,1.1c0.3,0,0.7,0,1,0c0-0.4,0-0.8,0-1.1c-1.2,0.3-2.5,0.6-3.8,0.8
					c0.1,0.4,0.2,0.8,0.3,1.1c0.5-0.1,1-0.2,1.5-0.2C113.9,92.7,113.9,91.5,113.1,91.5L113.1,91.5z"/>
			</g>
		</g>
		<g>
			<g>
				<path class="st1" d="M124.5,90c-0.5-0.3-1-0.6-1.5-0.6c-0.7,0-1.3,0.5-2,0.5c-0.8,0-0.8,1.1,0,1.2c0.2,0.1,0.4,0.2,0.6,0.3
					c0-0.3,0.1-0.6,0.1-0.9c-0.3,0-0.6,0-0.9-0.1c-0.1,0.3-0.2,0.7-0.3,1c1.1-0.2,2.2-0.4,3.2-0.7c0.5-0.1,1-0.3,1.6-0.5
					c0.2-0.1,1.6-0.4,0.8-0.1c0.2,0.3,0.4,0.6,0.7,0.9c0.3-0.2,0.6-0.3,0.9-0.5c0.7,0.1,1.1-1,0.3-1.1c-2.3-0.4-1.4,2.6-0.1,1.7
					c0.5-0.3,0.5-1.1,0.1-1.5c-0.8-0.6-1.8,0.1-2.3,0.7c-0.3,0.4,0.2,1,0.7,0.9c1-0.3,1.9-2,0.5-2.6c-0.7-0.3-1.8,0.4-2.4,0.6
					c-1.4,0.5-2.8,0.8-4.3,1c-0.4,0.1-0.6,0.7-0.3,1c0.7,0.6,1.5,0.7,2.3,0.2c0.3-0.2,0.4-0.7,0.1-0.9c-0.5-0.4-0.8-0.6-1.4-0.6
					c0,0.4,0,0.8,0,1.2c1.1,0,1.8-0.8,2.9-0.1C124.6,91.4,125.2,90.4,124.5,90L124.5,90z"/>
			</g>
		</g>
		<g>
			<g>
				<path class="st1" d="M119.9,35.2c-0.8-1.3-1.5-2.8-1.7-4.3c0,0.5,0,1.1,0,1.6c0-0.1,0-0.1,0-0.2c-0.5,0.6-0.9,1.2-1.4,1.8
					c0.1,0,0.1-0.1,0.2-0.1c-0.8,0.1-1.5,0.2-2.3,0.3c0.1,0,0.2,0.1,0.3,0.1c-0.6-0.5-1.2-0.9-1.8-1.4c0-0.3-0.1-0.5-0.1-0.8
					c0.3-0.7,0.6-1.4,0.9-2.1c0,0-0.1,0.1-0.1,0.1c0.4-0.3,0.9-0.5,1.3-0.8c1-0.3,1.6,0.5,1-0.1c-0.4,1.7-0.9,3.3-1.3,5
					c-0.1,0-0.2,0-0.3,0.1c-0.5-0.1-1-0.3-1.5-0.4c-0.1-0.1-0.1-0.1-0.2-0.2c1-1.7,1.9-3.3,2.9-5c-0.8-0.2-0.5,0.1,0.7,0.9
					c-1.2,1.2-2.4,2.4-3.7,3.7c-0.5-0.2-0.6-0.6-0.4-0.1c1.1-1.5,2.2-2.9,3.4-4.4c-0.1,0-0.2,0-0.3-0.1c0.4,0.3,0.9,0.5,1.3,0.8
					c0,0,0.1,0.1,0.1,0.1c0.1,0.5,0.3,1,0.4,1.5c0-0.1,0-0.2,0-0.3c-1.5,0.9-3,1.7-4.5,2.6c0.5,0.3,1,0.6,1.4,1
					c2.8,2.6,7-1.6,4.2-4.2c-0.8-0.7-1.7-1.4-2.6-2c-1.9-1.2-4.5,0.3-4.5,2.6c0,1.8,1.1,3.3,2.9,3.7c2.6,0.6,4.5-2,3.4-4.4
					c-0.7-1.4-1.8-2.1-3.2-2.7c-2.1-0.8-4.4,1.7-3.7,3.7c0.6,1.6,1.7,2.9,3.4,3.2c2.8,0.5,5.1-2.7,2.9-5c-1-1.1-2.5-1.4-3.9-1
					c-2.3,0.6-2.7,3.3-1.3,5c1.4,1.6,4,2.5,5.8,1.1c2.1-1.7,1.4-5.3-1.2-6.1c-2.6-0.8-4.7,1.5-4.1,4c0.4,1.9,1.3,3.8,2.3,5.5
					C116.7,41.5,121.8,38.6,119.9,35.2L119.9,35.2z"/>
			</g>
		</g>
	</g>
	<g>
		<g>
			<path class="st2" d="M99.9,29.1c0.2-0.2,0.3-0.3,0.5-0.5c-0.3-0.3-0.5-0.5-0.8-0.8c-0.1,0.1-0.2,0.3-0.3,0.4c-0.4,0.4,0,1,0.4,1
				c0.2,0,0.4,0,0.6,0.1c-0.2-0.3-0.4-0.5-0.6-0.8c-0.1,0.3-0.2,0.6-0.3,1c-0.2,0.5,0.4,0.9,0.9,0.7c0.2-0.1,0.4-0.2,0.5-0.3
				C100.5,29.6,100.3,29.4,99.9,29.1c-0.2,0.5-0.6,0.9-0.9,1.4c-0.3,0.4,0.1,0.9,0.5,0.9c-0.1,0,1,0,0.9-0.2
				c-0.1-0.2-0.1-0.4-0.2-0.6c-0.1,0.3-0.2,0.6-0.4,0.9c-0.2,0.4,0,1,0.5,0.9c0.2,0,0.4,0,0.6-0.1c-0.2-0.2-0.4-0.4-0.6-0.6
				c0,0.4-0.1,0.7-0.3,1c-0.2,0.4,0.3,0.9,0.7,0.7c0.3-0.1,0.6-0.2,0.8-0.3c-0.2-0.2-0.5-0.5-0.7-0.7c-0.1,0.3-0.2,0.6-0.4,0.9
				c-0.2,0.4,0.3,0.9,0.7,0.7c0.3-0.1,0.5-0.2,0.8-0.3c-0.2-0.3-0.4-0.6-0.7-0.9c-0.2,0.3-0.3,0.7-0.5,1c-0.3,0.6,0.4,1.2,0.9,0.7
				c0.2-0.1,0.4-0.3,0.6-0.4c-0.3-0.2-0.6-0.4-0.9-0.7c-0.1,0.3-0.2,0.6-0.4,0.9c-0.4,0.7,0.6,1.2,1,0.6c0.4-0.6,0.6-1.2,0.8-1.9
				c0.1-0.6-0.5-1-1-0.6c-0.3,0.3-0.7,0.5-1.2,0.6c0.2,0.2,0.5,0.5,0.7,0.7c0.2-1.1,0.5-2.2,0.8-3.3c0.1-0.4-0.2-0.8-0.6-0.8
				c-0.6,0-1,0.1-1.6,0.3c0.2,0.2,0.5,0.5,0.7,0.7c0.2-0.7,0.5-1.3,0.7-2c0.2-0.5-0.3-0.8-0.7-0.7c-0.4,0.1-0.7,0.2-1.1,0.2
				c0.3,0.2,0.5,0.4,0.8,0.6c0.1-0.3,0.1-0.6,0.2-0.9c0.3-0.6-0.3-1-0.8-0.8c-0.3,0.1-0.6,0.2-0.9,0.4c-0.7,0.3-0.1,1.3,0.6,1
				c0.3-0.1,0.6-0.2,0.9-0.4c-0.3-0.3-0.5-0.5-0.8-0.8c-0.3,0.5-0.4,0.9-0.4,1.5c0,0.4,0.4,0.7,0.8,0.6c0.4-0.1,0.7-0.2,1.1-0.2
				c-0.2-0.2-0.5-0.5-0.7-0.7c-0.2,0.7-0.5,1.3-0.7,2c-0.1,0.4,0.3,0.9,0.7,0.7c0.4-0.2,0.8-0.3,1.3-0.2c-0.2-0.3-0.4-0.5-0.6-0.8
				c-0.3,1.1-0.6,2.2-0.8,3.3c-0.1,0.4,0.3,0.9,0.7,0.7c0.7-0.2,1.2-0.5,1.7-0.9c-0.3-0.2-0.7-0.4-1-0.6c-0.1,0.6-0.3,1.1-0.6,1.6
				c0.3,0.2,0.7,0.4,1,0.6c0.2-0.4,0.4-0.7,0.5-1.2c0.2-0.5-0.5-0.9-0.9-0.7c-0.4,0.2-0.5,0.3-0.9,0.6c0.3,0.2,0.6,0.5,0.9,0.7
				c0.2-0.3,0.3-0.7,0.5-1c0.2-0.4-0.1-1.1-0.7-0.9c-0.3,0.1-0.5,0.2-0.8,0.3c0.2,0.2,0.5,0.5,0.7,0.7c0.1-0.3,0.2-0.6,0.4-0.9
				c0.2-0.4-0.3-0.9-0.7-0.7c-0.3,0.1-0.6,0.2-0.8,0.3c0.2,0.2,0.5,0.5,0.7,0.7c0.2-0.5,0.3-0.9,0.3-1.4c0-0.3-0.3-0.6-0.6-0.6
				c-0.2,0-0.4,0-0.6,0.1c0.2,0.3,0.3,0.6,0.5,0.9c0.3-0.5,0.8-1.3,0.3-1.8c-0.5-0.6-1,0-1.6,0c0.2,0.3,0.3,0.6,0.5,0.9
				c0.3-0.5,0.6-1,1-1.4c0.3-0.5-0.3-1.1-0.8-0.8c-0.2,0.1-0.4,0.2-0.5,0.3c0.3,0.2,0.6,0.4,0.9,0.7c0.1-0.3,0.2-0.6,0.3-1
				c0.1-0.4-0.2-0.7-0.6-0.8c-0.2,0-0.4,0-0.6-0.1c0.1,0.3,0.3,0.7,0.4,1c0.3-0.3,0.3-0.3,0.5-0.7c0.3-0.5-0.3-1.2-0.8-0.8
				c-0.4,0.3-0.4,0.3-0.8,0.7C98.6,28.9,99.4,29.7,99.9,29.1L99.9,29.1z"/>
		</g>
	</g>
	<g>
		<g>
			<path class="st2" d="M75.5,44.3c1.3-0.5,2.7-0.2,3.6-1.3c1.4-1.6,2.6-5.4,5.5-4.6c0.7,0.2,1.1-0.9,0.3-1.1
				c-1.9-0.5-3.3,0.6-4.6,1.8c-0.7,0.7-1.2,1.5-1.7,2.3c-0.9,1.4-2.1,1.2-3.5,1.8C74.5,43.4,74.8,44.6,75.5,44.3L75.5,44.3z"/>
		</g>
	</g>
	<g>
		<g>
			<path class="st2" d="M70.2,87.8c-1-2.6,0.6-5.6-0.3-8.3c-1.3-4.2-3.4-7.2-2.6-11.9c0.1-0.7-1-1.1-1.1-0.3
				c-0.6,3.3-0.2,6.1,1.1,9.1c1.4,3.1,1.7,4.8,1.5,8.3c-0.1,1.3-0.2,2.1,0.3,3.4C69.3,88.8,70.4,88.5,70.2,87.8L70.2,87.8z"/>
		</g>
	</g>
	<g>
		<g>
			<path class="st2" d="M68.8,60.2c-0.3-2.8,2-4.1,2.7-6.5c0.6-2.2-1.6-6.2,1.1-7.6c0.7-0.3,0.1-1.4-0.6-1c-1.8,0.9-2,2.7-1.8,4.6
				c0.2,1.6,0.5,3-0.2,4.6c-0.3,0.7-0.9,1.3-1.3,2c-0.8,1.3-1.2,2.4-1.1,3.9C67.7,61,68.9,61,68.8,60.2L68.8,60.2z"/>
		</g>
	</g>
	<g>
		<g>
			<path class="st2" d="M131.2,89.9c-0.7-0.7-1.2-1.7-1.1-2.7c0.2-1.5,1.2-1.1,1.8-1.8c0.4-0.5,0.7-0.7,0.9-1.4
				c0.5-1.8-1.1-3.5-1.3-5.2c-0.1-0.8-1.3-0.4-1.1,0.3c0.3,1.9,2.2,3.7,0.5,5.6c-0.5,0.6-1.1,0.7-1.5,1.5c-0.9,1.6-0.1,3.3,1.1,4.5
				C130.9,91.2,131.7,90.4,131.2,89.9L131.2,89.9z"/>
		</g>
	</g>
	<g>
		<g>
			<path class="st2" d="M132.3,71.8c-1.4-1.9-2.7-2.6-2-6c0.3-1.4,1.2-2.4,1.4-3.7c0.7-3.7-3.4-5.3-2.6-9.2c0.2-0.7-1-1.1-1.1-0.3
				c-0.3,1.3-0.4,2.4,0.1,3.6c0.1,0.4,0.5,0.8,0.6,1.2c1.1,1,1.3,2.3,0.9,3.9c0.5,1.1,0.6,2.2,0.1,3.1c-0.2,1.4-1.1,2.4-0.9,4
				c0.2,1.8,1.6,2.7,2.6,4.1C131.8,73,132.8,72.4,132.3,71.8L132.3,71.8z"/>
		</g>
	</g>
	<g>
		<g>
			<path class="st2" d="M118.6,34.7c-0.2,2.4,1.2,4,3.1,5.1c1.2,0.7,2.9,0.9,3.9,1.7c1.7,1.2,2.5,3.4,2.8,5.4
				c0.1,0.8,1.3,0.4,1.1-0.3c-0.3-2-1.1-4.3-2.7-5.7c-2.4-2.1-7.6-1.7-7.2-6.2C119.9,33.9,118.7,33.9,118.6,34.7L118.6,34.7z"/>
		</g>
	</g>
</g>
</svg>
