<?xml version="1.0" encoding="utf-8"?>
<!-- Generator: Adobe Illustrator 21.0.2, SVG Export Plug-In . SVG Version: 6.00 Build 0)  -->
<svg version="1.1" id="Layer_1" xmlns="http://www.w3.org/2000/svg" xmlns:xlink="http://www.w3.org/1999/xlink" x="0px" y="0px"
	 viewBox="0 0 200 600" style="enable-background:new 0 0 200 600;" xml:space="preserve">
<style type="text/css">
	.st0{fill:#EF7A22;}
	.st1{fill:#ED8622;}
</style>
<g>
	<path class="st0" d="M76.7,87.3L75,85.1L74.3,86l1.1,0.7c0.3,0.2,0.6,0.2,0.8-0.1c0.2-0.2,0.2-0.4,0.1-0.7L76,85.2L75.2,86l0.6,0.3
		c0.3,0.1,0.7,0,0.8-0.3c0.1-0.2,0.1-0.5-0.1-0.7l-0.8-1c-0.4-0.5-1.3,0.2-0.9,0.7c0.2,0.4,0.5,0.7,0.9,1c0.4,0.4,1.2,0,1-0.6
		c-0.1-0.5-0.3-1-0.7-1.4l-0.9,0.7l0.6,0.8l0.7-0.9l-0.4-0.3c-0.6-0.4-1.2,0.5-0.7,0.9l2.8,2.5l0.7-0.9c-1.1-0.6-2.2-1.4-3.1-2.3
		L75,85.5c2.7,1.9,5.3,4,7.7,6.2l0.3-1l-1.4,0.3c-0.6,0.1-0.5,1,0,1.2c1.2,0.4,2.5,0.7,3.8,0.8l-0.2-1.2c-1.1,0.3-2.2,0.2-3.2-0.2
		l-0.2,1.2l3.2,0.3c0.6,0.1,0.8-0.8,0.3-1.1c-0.9-0.6-1.7-1.1-2.7-1.6l-0.5,1.1c0.8,0.1,1.5,0.3,2.3,0.6c0.6,0.2,1.1-0.8,0.5-1.1
		s-1.3-0.6-2-1l-0.5,1.1c0.6,0.1,1.1,0.2,1.6,0.5l0.3-1.2l-1.8-0.5c-0.3-0.1-0.6,0.2-0.7,0.5c0,0.3,0.1,0.6,0.4,0.7l4.9,1.8v-1.1
		l-1.9,0.4c-0.5,0.1-0.6,1.1,0,1.2l3.1,0.4c0.4,0.1,1-0.4,0.7-0.9c-1-1.4-3.2-1.6-4.6-2.4c-2.3-1.3-4.2-3.1-6.4-4.6
		c-0.6-0.4-1.2,0.6-0.6,1c1.8,1.3,3.5,2.7,5.3,3.9c0.8,0.6,1.7,1.1,2.6,1.5c0.7,0.3,2.2,0.5,2.6,1.2l0.7-0.9l-3.1-0.4v1.2l1.9-0.4
		c0.3-0.1,0.5-0.4,0.4-0.7c-0.1-0.2-0.2-0.3-0.4-0.4L82.6,90l-0.3,1.2l1.8,0.5c0.3,0.1,0.6-0.2,0.7-0.5c0-0.3-0.1-0.6-0.4-0.7
		c-0.5-0.2-1.1-0.4-1.6-0.4c-0.6-0.1-1.1,0.8-0.5,1.1s1.3,0.7,2,1l0.5-1.1c-0.7-0.2-1.5-0.4-2.3-0.6c-0.6-0.1-1.1,0.8-0.5,1.1
		c0.9,0.5,1.8,1,2.7,1.6l0.3-1.1l-3.2-0.3c-0.7-0.1-0.8,1-0.2,1.2c1.2,0.5,2.6,0.6,3.8,0.2c0.7-0.2,0.5-1.1-0.2-1.2
		c-1.2-0.1-2.3-0.4-3.4-0.8v1.2l1.4-0.3c0.3-0.1,0.5-0.4,0.4-0.7c0-0.1-0.1-0.2-0.2-0.3c-2.5-2.3-5.1-4.4-7.9-6.4
		c-0.6-0.4-1.2,0.5-0.7,0.9c1,1,2.1,1.8,3.3,2.5c0.6,0.3,1.2-0.5,0.7-0.9l-2.8-2.5l-0.7,0.9l0.4,0.3c0.6,0.4,1.1-0.4,0.7-0.9
		L75.9,84c-0.4-0.5-1.3,0.2-0.9,0.7l0.6,1.2l1-0.6l-0.7-0.8l-0.9,0.7l0.8,1l0.7-0.9l-0.6-0.3c-0.3-0.2-0.7,0-0.8,0.3
		c-0.1,0.2-0.1,0.4,0,0.6l0.4,0.8l0.9-0.7c-0.4-0.4-0.9-0.7-1.4-0.9c-0.3-0.1-0.7,0-0.8,0.3c-0.1,0.2-0.1,0.5,0.1,0.7l1.7,2.2
		C76.4,88.8,77.2,87.9,76.7,87.3L76.7,87.3z"/>
	<path class="st0" d="M73.5,84.1l-1.8-1.6c-1.2-1.1-3.3,0.3-2.3,1.8l2.3,3.7l2-2l-2-0.9c-1.3-0.6-2.9,0.7-2,2c1.7,2.8,4.5,4.2,7.1,6
		c1.4,1,2.9-1.1,1.8-2.3c-1.1-1-2-2.3-2.6-3.8c-0.7-1.5-3.3-0.4-2.7,1.2l0.3,0.6l2.5-1.4c-0.8-0.8-1.6-1.8-2.1-2.8l-2.3,1.8
		c2.7,3.1,6.1,5.3,10,6.5c1.7,0.5,2.5-1.8,1.2-2.7c-2.5-1.6-4.8-3.4-7.1-5.3l-2.1,2.1l1.1,0.9l1-2.5l-3.4-1.5
		c-1.1-0.9-3-0.1-2.5,1.4l0.5,1.6l2.2-1.7l-2-2l-2.3,1.8c0.8,0.7,1.4,1.5,1.8,2.4l2-2c-1.7-0.8-1.5-3.8-1.6-5.3l-2.8,0.8
		c1,1.4,1.8,2.9,2.7,4.4c0.7,1.2,2.9,0.8,2.8-0.8c-0.2-1.2-0.3-2.4-0.3-3.5l-2.9,0.4l1.3,3.4c0.3,0.8,1.1,1.2,1.9,1
		c0.7-0.2,1.2-1,1-1.7l-0.5-2L70.8,83l1.2,2.4c0.7,1.7,3.6,1,2.9-0.8c-0.6-1.4-1-2.9-1.2-4.4L70.8,81c0.5,1.2,0.9,2.4,1.1,3.7
		l2.9-0.8c-0.9-2.9-1.6-5.8-2-8.8l-2.9,0.4l0.5,1.7l2.9-0.4c-0.7-2.3-0.9-4.8-0.6-7.2h-3v4.4h3c-0.6-5.3,0.5-10.2,1.8-15.3
		c0.4-1.6-1.9-2.7-2.7-1.2c-0.7,1.3-1.2,2.7-1.5,4.1l2.9,0.4c0.4-4.8,3.6-9.7,5.8-14l-2.6-1.5l-6.7,13.2l2.7,1.2
		c1.9-5.1,4.5-10,7.7-14.4L77.6,45l-7.3,11.5l2.7,1.2c1.6-3.9,3.5-7.7,5.8-11.3l-2.6-1.5c-1.3,2.2-2.3,4.4-3.2,6.7
		c-0.6,1.6,1.9,2.5,2.7,1.2c0.9-1.5,1.7-3.1,2.5-4.7L75.5,47c-0.9,2.2-2,4.4-3.2,6.5L75,55c1.6-3.7,3.7-7.1,6.2-10.2l-2.3-1.8
		c-1.3,2.8-2.9,5.5-4.6,8.1l2.6,1.4c1.2-2.1,2.7-4.1,4.4-5.9l-2.3-1.8c-1.2,2.5-3,4.6-5.2,6.3l2.5,1.5c0.6-3.1,1.9-6.1,3.6-8.7
		l-2.6-1.5c-1.1,2.1-2.5,4-4.1,5.8l2.5,1.5c0.4-2.1,1.1-4.2,2.2-6.1L75.2,42c-1.3,3-2.9,5.8-4.7,8.5l2.7,1.2c0.4-1.7,1-3.4,1.7-5
		c0.8-1.7-1.7-3.2-2.6-1.5l-2.7,5.2l2.7,1.2l1-4.9c0.2-0.8-0.3-1.6-1.1-1.8c-0.8-0.2-1.5,0.3-1.7,1c-0.5,1.3-1.1,2.5-2,3.5l2.8,0.8
		c-0.3-2.6,1.5-5.3,2.5-7.7l-2.9-0.8c-0.4,1.2-1.1,2.3-1.9,3.3l2.6,1.5l1.1-2.1l-2.7-1.2c-0.3,1.1-0.8,2.2-1.4,3.1l2.6,1.5
		c1.8-3.2,3.9-6.1,6.4-8.8l-2.3-1.8c-1.3,2.7-2.7,5.3-4.3,7.8l2.6,1.5c1.5-2.6,3.4-4.9,5.6-7l-2.3-1.8c-1.5,2.5-3.1,4.9-4.7,7.3
		c-1.1,1.6,1.5,3.1,2.6,1.5c1.7-2.4,3.6-4.7,5.7-6.8l-2.3-1.8c-1.2,2.1-2.5,4.1-3.9,6l2.6,1.5l0.4-0.9c0.8-1.7-1.7-3.3-2.6-1.5
		c-2.6,5.5-4.9,11.1-6.8,16.9c-0.6,1.8,2.3,2.6,2.9,0.8c0.8-2.2,1.2-4.6,1.3-6.9c0-0.8-0.7-1.5-1.5-1.5c-0.7,0-1.2,0.4-1.4,1.1
		c-0.4,1.8-0.9,3.6-1.7,5.3l2.8,0.7c-0.1-2.3,0.2-4.7,0.7-6.9c0.2-0.8-0.4-1.6-1.2-1.7c-0.7-0.1-1.4,0.3-1.7,1l-1.7,4.3l2.9,0.4
		c0.2-1.7,0.7-3.4,1.3-5l-2.9-0.8l-0.5,1.4l2.9,0.8c0-1.3,0.5-2.5,1.4-3.5l-2.7-1.2c-0.2,1.1-0.5,2.2-1.1,3.2l2.8,0.8l0.6-2.2
		l-2.8-0.8c0,2.9-0.3,5.9-1.1,8.7l2.9,0.4v-1.7c0.3-1.8-2.4-2.7-2.9-0.8l-0.5,1.8l2.9,0.4l-0.2-1.9c0-0.8-0.7-1.5-1.6-1.4
		c-0.6,0-1.1,0.4-1.3,1c-1.6,5.3-0.5,10.9-0.1,16.3c0,0.8,0.7,1.5,1.5,1.5s1.5-0.7,1.5-1.5c0.3-3.2,0.7-6.4,1.2-9.6l-2.9-0.4
		c0.1,2.4,0.2,4.8,0.2,7.2h3c-0.1-2.7,0.1-5.5,0.4-8.2h-3c-0.2,3.2-0.3,6.5-0.3,9.7c0,0.8,0.7,1.5,1.5,1.5s1.5-0.7,1.5-1.5l0.1-6.1
		h-3c-0.1,3.3-0.1,6.5,0.1,9.8c0.1,1.3,2.3,7,0.8,7.6l1.7,0.7c-3.6-6.8-4.4-14.8-2.4-22.2L65,59.7c0.4,5,1.1,9.9,2,14.8l2.7-1.2
		l-0.6-1.7l-2.9,0.8c0.3,1.3,0.6,2.6,0.9,4l2.9-0.8l-0.2-0.7L67,75.7c0.5,1.1,0.7,2.3,0.8,3.5l2.8-0.8l-0.7-1.3
		c-0.8-1.7-3.4-0.2-2.6,1.5l0.7,1.3c0.4,0.7,1.3,1,2,0.6c0.5-0.3,0.8-0.8,0.8-1.3c-0.1-1.5-0.4-2.9-0.8-4.3
		c-0.6-1.8-3.4-1.1-2.9,0.8l0.2,0.7c0.3,0.8,1.1,1.2,1.9,1c0.7-0.2,1.2-1,1-1.7c-0.3-1.3-0.5-2.6-0.9-4c-0.5-1.9-3.3-1.1-2.9,0.8
		c0.2,0.8,0.5,1.6,0.9,2.4c0.8,1.6,3,0.4,2.7-1.2c-0.9-4.6-1.5-9.3-1.9-14c-0.1-1.6-2.5-2.1-2.9-0.4c-2.2,8.2-1.3,17,2.7,24.5
		c0.3,0.6,1,0.9,1.7,0.7c2.4-0.9,3.3-2.6,2.9-5.2C72,77,71,75.1,70.9,72.7c-0.2-2.8-0.1-5.6-0.1-8.4c0-0.8-0.7-1.5-1.5-1.5
		s-1.5,0.7-1.5,1.5l-0.2,6.1h3c0-3.2,0.1-6.5,0.3-9.7c0.1-2-2.8-1.8-3,0c-0.3,2.7-0.5,5.4-0.4,8.2c0,0.8,0.7,1.5,1.5,1.5
		s1.5-0.7,1.5-1.5c0-2.4,0-4.8-0.2-7.2c-0.1-1.6-2.6-2.1-2.9-0.4c-0.6,3.4-1,6.9-1.3,10.4h3c-0.5-5.1-1.6-10.5-0.1-15.5l-2.9-0.4
		l0.2,1.9c0,0.8,0.7,1.5,1.6,1.4c0.6,0,1.1-0.4,1.3-1l0.5-1.8l-3-0.8c-0.2,0.8-0.2,1.7-0.1,2.5c0.2,1.5,2.5,2.2,2.9,0.4
		c0.8-3.1,1.2-6.3,1.2-9.5c0-1.4-2.1-2.2-2.8-0.8c-0.6,1.1-1,2.4-1,3.7c0,0.8,0.7,1.5,1.5,1.5c0.5,0,1-0.3,1.2-0.7
		c0.6-1.2,1.1-2.5,1.4-3.9c0.2-0.8-0.2-1.6-1-1.9c-0.7-0.2-1.3,0.1-1.7,0.7c-0.9,1.3-1.5,2.7-1.7,4.2c-0.2,0.8,0.3,1.6,1.1,1.8
		c0.8,0.2,1.5-0.3,1.7-1l0.5-1.4c0.6-1.8-2.2-2.5-2.9-0.8c-0.7,1.9-1.2,3.8-1.4,5.8c-0.2,1.8,2.4,1.8,2.9,0.4l1.7-4.3l-2.9-0.7
		c-0.6,2.5-0.9,5.1-0.8,7.7c0,1.3,2.2,2.2,2.8,0.8c0.8-1.9,1.5-3.9,2-5.9l-2.9-0.4c-0.1,2.1-0.4,4.2-1.2,6.1l2.9,0.8
		c1.8-5.5,4-10.9,6.5-16.1L74.2,43l-0.4,0.9c-0.4,0.7-0.1,1.6,0.6,2c0.7,0.3,1.5,0.1,1.9-0.5c1.5-1.9,2.8-3.9,3.9-6
		c0.5-0.6,0.4-1.6-0.2-2.1c-0.6-0.5-1.6-0.4-2.1,0.2c-2.3,2.3-4.3,4.7-6.2,7.4l2.6,1.5c1.7-2.4,3.2-4.8,4.7-7.3
		c0.4-0.7,0.2-1.6-0.6-2c-0.6-0.3-1.3-0.2-1.8,0.2c-2.3,2.3-4.3,4.9-6,7.7c-1,1.7,1.6,3.1,2.6,1.5c1.6-2.5,3-5.1,4.3-7.8
		c0.7-1.4-1.1-3.1-2.3-1.8c-2.7,2.8-5,6-6.9,9.4c-0.4,0.7-0.1,1.6,0.6,2c0.7,0.3,1.5,0.1,1.9-0.5c0.8-1.2,1.3-2.5,1.8-3.8
		c0.2-0.8-0.3-1.6-1-1.8c-0.6-0.2-1.3,0.1-1.7,0.7L69,44.9c-0.4,0.7-0.1,1.6,0.6,2c0.7,0.3,1.5,0.1,1.9-0.5c0.9-1.2,1.6-2.6,2.2-4
		c0.7-1.8-2.1-2.5-2.9-0.8c-1.2,2.8-2.9,5.5-2.7,8.5c0,0.8,0.7,1.5,1.5,1.5c0.5,0,1-0.3,1.2-0.7c1-1.3,1.7-2.7,2.3-4.2l-2.9-0.8
		l-1,4.9c-0.3,1.6,1.9,2.7,2.7,1.2l2.7-5.2l-2.6-1.5c-0.9,1.8-1.5,3.7-2,5.7c-0.2,0.8,0.3,1.6,1.1,1.8c0.6,0.1,1.2-0.1,1.6-0.6
		c1.8-2.7,3.4-5.6,4.8-8.5c0.8-1.7-1.6-3.2-2.6-1.5c-1.3,2.1-2.1,4.4-2.6,6.8c-0.2,0.8,0.3,1.6,1.1,1.8c0.5,0.1,1,0,1.4-0.4
		c1.8-1.9,3.4-4.1,4.6-6.4c0.4-0.7,0.1-1.6-0.6-2c-0.7-0.3-1.5-0.1-1.9,0.5c-1.9,2.9-3.2,6.1-3.9,9.5c-0.2,0.8,0.3,1.6,1.1,1.8
		c0.5,0.1,1,0,1.3-0.4c2.4-1.8,4.4-4.2,5.7-6.9c0.7-1.5-1.1-3.1-2.3-1.8c-1.9,2-3.5,4.2-4.9,6.5c-0.3,0.8,0.1,1.6,0.8,1.9
		c0.6,0.2,1.3,0,1.7-0.5c1.7-2.6,3.3-5.2,4.6-8c0.7-1.4-1.2-3.2-2.3-1.8c-2.7,3.3-5,6.9-6.7,10.8C71.6,55.2,74,56.7,75,55
		c1.3-2.3,2.5-4.7,3.5-7.2c0.6-1.5-2-2.7-2.7-1.2c-0.7,1.6-1.6,3.2-2.5,4.7l2.7,1.2c0.8-2.1,1.8-4.1,2.9-6c0.4-0.7,0.1-1.6-0.6-2
		c-0.7-0.3-1.5-0.1-1.9,0.5c-2.4,3.8-4.5,7.8-6.1,12c-0.7,1.6,1.8,2.5,2.7,1.2l7.3-11.6c1-1.7-1.5-3-2.6-1.5
		c-3.4,4.6-6.1,9.7-8.1,15.1c-0.6,1.6,2,2.6,2.7,1.2L79,48.1c0.9-1.7-1.7-3.2-2.6-1.5c-2.5,4.8-5.7,9.9-6.2,15.5
		c-0.2,1.7,2.6,2,2.9,0.4c0.2-1.2,0.6-2.3,1.2-3.3L71.6,58c-1.4,5.4-2.5,10.5-1.9,16.1c0.2,1.9,3,2,3,0v-4.4c0-2-2.8-1.9-3,0
		c-0.3,2.7-0.1,5.4,0.7,8c0.4,1.6,3.1,1.3,2.9-0.4c0-0.9-0.2-1.7-0.6-2.5c-0.6-1.4-3.2-1.4-2.9,0.4c0.4,3.2,1.1,6.4,2.1,9.5
		c0.3,0.8,1.1,1.2,1.9,1c0.7-0.2,1.2-1,1-1.7c-0.3-1.3-0.6-2.6-1.1-3.8c-0.3-0.8-1.1-1.2-1.9-1c-0.7,0.2-1.2,1-1,1.7
		c0.3,1.5,0.7,3,1.2,4.4l2.9-0.8c-0.4-1.1-0.9-2.1-1.5-3.1c-0.5-0.7-1.4-0.9-2.1-0.4c-0.5,0.3-0.8,1-0.6,1.6l0.5,2l2.9-0.8l-1.3-3.4
		c-0.6-1.5-3-1.4-2.9,0.4c0,1.2,0.1,2.4,0.3,3.5l2.8-0.8c-0.8-1.5-1.7-2.9-2.7-4.4c-0.8-1.1-2.9-0.8-2.8,0.8
		c0.2,2.9,0.2,6.4,3.1,7.9c0.7,0.4,1.6,0,2-0.7c0.2-0.4,0.2-0.9,0-1.3c-0.6-1.1-1.3-2.1-2.3-3c-1.2-1.2-3.3,0.4-2.3,1.8
		c0.8,1.2,1.9,2.2,3.1,3.1c0.7,0.4,1.6,0.2,2-0.6c0.2-0.3,0.2-0.7,0.1-1.1l-0.5-1.6l-2.5,1.4c1.5,1.3,3.5,2.2,5.5,2.4
		c0.8,0,1.5-0.7,1.5-1.5c0-0.4-0.2-0.7-0.4-1l-1.1-0.9c-1.4-1.2-3.6,0.8-2.1,2.1c2.4,2.1,5,4.1,7.7,5.8l1.2-2.7
		c-3.4-1-6.4-3-8.7-5.7c-1.1-1.3-3.2,0.4-2.3,1.8c0.7,1.2,1.6,2.4,2.5,3.5c1,1.1,3-0.1,2.5-1.4l-0.3-0.6l-2.7,1.1
		c0.8,1.6,1.8,3.1,3,4.4l1.8-2.4c-2.1-1.4-4.7-2.8-6-4.9l-2,2l2,0.9c1.3,0.6,2.9-0.7,2-2L72,82.8l-2.3,1.8l1.7,1.6
		C72.8,87.5,74.9,85.4,73.5,84.1L73.5,84.1z"/>
	<path class="st0" d="M119.2,91c-1.3,0.3-2.1-0.7-3.3-0.6s-2.1,1-3.2,1.3l0.3,1.2c1-0.4,2.1-0.4,3.1-0.9c1.3-0.7,2.5-1.6,3.7-2.4
		l-0.7-0.9l-0.6,0.6c-0.2,0.3-0.2,0.6,0.1,0.8c0.2,0.2,0.4,0.2,0.7,0.1c1.4-0.8,2.6-1.8,3.7-3l-1-0.6c-0.2,0.8-0.5,1.6-1,2.3
		c-0.2,0.3-0.1,0.7,0.2,0.8c0.1,0.1,0.2,0.1,0.3,0.1c0.3,0,0.6-0.1,0.8-0.3c0.6-0.5-0.3-1.3-0.8-0.8h0.1l0.5,0.9
		c0.5-0.8,0.9-1.7,1.1-2.6c0.1-0.5-0.6-1-1-0.6c-1,1.1-2.2,2-3.4,2.8l0.7,0.9l0.6-0.6c0.4-0.5-0.1-1.3-0.7-0.9
		c-1.1,0.7-2.1,1.5-3.2,2.2s-2.2,0.6-3.3,1.1c-0.7,0.3-0.4,1.4,0.3,1.2c0.5-0.1,1-0.3,1.4-0.5c0.6-0.4,1.4-0.6,2.1-0.6
		c0.2,0.1,0.3,0.2,0.5,0.3c0.8,0.2,1.6,0.2,2.4,0.1c0.3-0.1,0.5-0.5,0.3-0.8C119.7,91.1,119.4,91,119.2,91L119.2,91z"/>
	<path class="st0" d="M122.2,86.9l-1.8,2.3l1.5,2.6l6.8-5.1l-2-2l-0.8,1.1c-1,1.4,1.1,2.9,2.3,1.8c5.1-4.7,10-15,5.9-21.7
		c-0.4-0.6-1-0.8-1.7-0.7c-2.9,0.6-3.9,5.6-4.9,7.9c-1.2,2.8-2.3,5.5-3.5,8.2c-1,2.1-3.3,8.1-5.8,8.6l1.2,2.7c5.7-3,9-9.6,12.5-14.7
		l-2.6-1.5l-3,6.8l2.7,1.2c1.2-3.1,2.5-6.2,3.9-9.2l-2.7-1.2c-0.6,2.1-1.3,4.1-2.2,6.1l2.8,0.8c0.4-3.6,1.1-7.1,1.8-10.6l-2.9-0.9
		c-0.6,2.7-1,5.4-3.5,7.2l2.2,1.7c2.6-6.4,3.6-13.3,2.9-20.2l-2.9,0.4c0.8,3.2,1.3,6.4,1.6,9.7c0,0.8,0.7,1.5,1.5,1.5
		s1.5-0.7,1.5-1.5c0-2.5,0.2-5,0.5-7.5h-3l0.8,6.4c0,0.8,0.7,1.5,1.5,1.5s1.5-0.7,1.5-1.5l0.6-5.5h-3l0.6,5.3
		c0.2,1.6,2.5,2.2,2.9,0.4c0.3-1,0.4-2.1,0.3-3.1c0-0.8-0.7-1.5-1.5-1.5s-1.5,0.7-1.5,1.5c0.1,1.3-0.1,2.7-0.6,3.9l2.9,0.4
		c-0.1-4.7-2.4-8.8-2.4-13.7c0-3.8,0.1-7.1-1.9-10.4c-0.7-1.2-2.9-0.8-2.8,0.8c0.4,3.8,1.2,7.6,2.4,11.2c0.3,0.8,1.1,1.2,1.9,1
		c0.7-0.2,1.2-1,1-1.7l-0.8-5l-2.9,0.8c0.6,3.1,1.4,6.1,2.4,9.1c0.6,1.8,3.4,1.1,2.9-0.8c-0.5-1.6-0.9-3.3-1.1-5l-2.9,0.4l1.5,6.2
		c0.4,1.6,3.1,1.3,2.9-0.4l-0.1-1c-0.2-1.9-3-2-3,0c0,1.2,0.2,2.5,0.4,3.7c0.3,1.6,3,1.3,2.9-0.4c-0.3-6.2-1.7-12.4-4.2-18.1
		l-2.6,1.5c1.6,2.8,2.6,5.8,3.1,9c0.3,1.9,3.1,1.1,2.9-0.8c-0.2-1.8-0.8-3.5-1.6-5.1c-0.7-1.4-2.7-0.6-2.8,0.8
		c-0.4,5.5-0.3,11.2-2.9,16.1l2.8,0.8c-0.5-7.5-1.6-14.9-3.2-22.2l-2.4,1.4c0.4,0.6,5.4,7.6,4.4,8.3l2.5,1
		c-0.3-5.5-4.1-9.6-7.8-13.4c-3.7-4.1-8.4-7.2-13.7-9c-1.6-0.5-2.3,1.4-1.4,2.5l3.2,4.2l1.4-2.5c-1-0.1-2-0.5-2.9-1.1
		c-0.7-0.4-1.6-0.1-2,0.6c-0.3,0.7-0.1,1.5,0.5,1.9l2,1.8l2.3-1.8c-1.3-0.8-2.3-1.9-3.1-3.2l-1.8,2.2c1.8,0.7,3.5,1.6,5,2.8l1.2-2.7
		c-1.6-0.3-3.2-0.9-4.6-1.8c-0.7-0.4-1.6-0.1-2,0.6c-0.3,0.7-0.1,1.5,0.5,1.9c2.4,1.6,5.2,2.5,8.1,2.6c1.6,0.1,1.9-2,0.8-2.8l-8-5.5
		c-1.4-0.9-3.1,1.3-1.8,2.3c2.2,1.8,0.9-0.7,0.8-2.7l-2.2,1.3c1.5,0.9,2.7,2.3,3.4,3.9l1.7-2.2c-2.1-1.9-2.4-2.3-0.8-1
		c0.8,0.5,1.5,1.1,2,1.9l1.8-2.3c-1.9-0.9-3.5-2.4-4.4-4.2l-1.4,2.3c6.4,0.8,12,9.3,16.2,13.8c1.3,1.4,3.3-0.6,2.1-2.1l-3.4-4.4
		c-1.2-1.5-3.3,0.6-2.1,2.1l3.4,4.4l2.1-2.1c-5.1-5.5-10.3-13.7-18.3-14.7c-1.2-0.1-1.8,1.4-1.3,2.2c1.2,2.3,3.2,4.2,5.5,5.3
		c0.7,0.4,1.6,0.1,2-0.6c0.3-0.6,0.2-1.2-0.2-1.7c-2-2.3-5.2-5.2-8.4-3.5c-0.5,0.3-0.7,0.8-0.7,1.3c0.1,3.2,2.2,5,5,6.2
		c1.3,0.5,2.2-1.2,1.7-2.2c-1.1-2-2.6-3.7-4.5-5c-0.7-0.4-1.6-0.2-2,0.6c-0.1,0.2-0.2,0.5-0.2,0.7c0.1,2.8,1.6,8.5,5.8,6.9
		c3.9-1.5,0.1-5-1.6-6.3l-1.8,2.3l8,5.5l0.8-2.8c-2.3-0.1-4.6-0.8-6.6-2.2l-1.5,2.6c1.6,0.9,3.4,1.6,5.3,2.1
		c0.8,0.2,1.6-0.3,1.8-1.1c0.1-0.6-0.1-1.2-0.6-1.6c-1.7-1.3-3.6-2.4-5.7-3.1c-0.8-0.2-1.6,0.3-1.8,1.1c-0.1,0.4,0,0.8,0.1,1.1
		c1,1.5,2.1,2.8,3.5,3.8c1.2,0.9,3.4-0.3,2.3-1.8c-0.8-1.2-1.8-2.2-3-2.8l-1.5,2.6c1.1,0.7,2.4,1.1,3.7,1.4c0.8,0.2,1.6-0.3,1.8-1.1
		c0.1-0.5,0-1-0.4-1.4l-3.2-4.2l-1.4,2.5c7.3,2.3,18.7,11.3,19.2,19.5c0,0.8,0.7,1.5,1.6,1.5c0.4,0,0.7-0.2,1-0.4l0.6-0.5
		c0.4-0.4,0.5-0.9,0.4-1.5c-1.1-3.9-2.9-7.5-5.4-10.6c-1-1.3-2.8,0.1-2.5,1.5c1.6,7.1,2.6,14.2,3.1,21.4c0.1,1.4,2.1,2.2,2.8,0.8
		c2.8-5.5,2.8-11.6,3.3-17.6l-2.8,0.8c0.8,1.3,1.2,2.8,1.3,4.4l2.9-0.8c-0.6-3.4-1.7-6.7-3.4-9.7c-1-1.7-3.3-0.2-2.6,1.5
		c2.3,5.3,3.5,10.9,3.8,16.6l2.9-0.4l-0.3-2.9h-3l0.1,1l2.9-0.4l-1.5-6.2c-0.4-1.6-3.1-1.3-2.9,0.4c0.2,2,0.6,3.9,1.2,5.8l2.9-0.8
		c-1-3-1.8-6-2.4-9.1c-0.4-1.9-3.1-1.1-2.9,0.8l0.8,5l2.9-0.8c-1.2-3.4-1.9-6.8-2.3-10.4l-2.8,0.8c2.4,4,1.2,8.1,1.5,12.4
		c0.3,3.6,2.3,6.6,2.4,10.2c0,0.8,0.7,1.5,1.6,1.4c0.6,0,1.1-0.4,1.3-1c0.4-1.5,0.6-3.1,0.7-4.7h-3l-0.2,2.3l2.9,0.4l-0.6-5.3
		c0-0.8-0.7-1.5-1.5-1.5s-1.5,0.7-1.5,1.5l0,0l-0.6,5.5h3l-0.8-6.4c0-0.8-0.7-1.5-1.5-1.5s-1.5,0.7-1.5,1.5c-0.3,2.5-0.4,5-0.5,7.5
		h3c-0.3-3.5-0.9-7-1.7-10.4c-0.4-1.6-3.1-1.3-2.9,0.4c0.6,6.6-0.4,13.3-2.8,19.4c-0.2,0.8,0.3,1.6,1.1,1.8c0.4,0.1,0.8,0,1.1-0.1
		c3.1-2.2,4.2-5.3,4.9-9c0.4-1.9-2.5-2.7-2.9-0.8c-0.8,3.8-1.5,7.5-1.9,11.3c-0.2,1.4,2.2,2.1,2.8,0.8c1-2.2,1.8-4.5,2.5-6.8
		c0.4-1.6-2-2.7-2.7-1.2c-1.5,3.3-2.9,6.6-4.2,9.9c-0.6,1.6,2.1,2.7,2.7,1.2l3-6.8c0.4-0.7,0.1-1.6-0.6-2c-0.7-0.3-1.5-0.1-1.9,0.5
		c-3.2,4.7-6.3,10.9-11.5,13.6c-1.6,0.8-0.4,3,1.2,2.7c4.1-0.7,6.1-6.7,7.6-10c1-2.2,1.9-4.4,2.8-6.6c0.2-0.5,2.8-8,3.8-8.2
		l-1.7-0.7c3.4,5.6-1.5,14.4-5.5,18.1l2.3,1.8l0.8-1.1c0.8-1.2-0.9-2.9-2-2l-6.7,5.2c-1.5,1.1-0.1,3.7,1.5,2.6c1.5-1,2.6-2.4,3.1-4
		C125.8,86,122.9,85.2,122.2,86.9L122.2,86.9z"/>
	<path class="st0" d="M74.3,59.4c1.2-2.8,1.8-4.3,4.4-6c1.9-1.3,3.7-2.8,5.3-4.4l-2.3-1.8c-0.5,1-1.3,1.8-2.2,2.5
		c-1.5,1.3,0.6,3.3,2.1,2.1c3.9-3.3,8-6.2,12.3-8.8l-1.8-2.3c-1.6,1.6-3.3,3-5.2,4.2l1.5,2.6c4.5-3.4,8.9-7,13-10.9l-2.1-2.1
		c-2.3,2.5-4.4,5.2-7.3,6.8s-6.5,3-9.7,4.5l2.2,1.7l2.2-2.8l-1.8-2.3c-1.1,1.5-2.5,2.8-4,3.8l-0.2,1.1c0.1-1.4,0.5-2.8,0.9-4.1
		c0.2-0.8-0.3-1.6-1.1-1.8c-0.5-0.1-1,0-1.4,0.4c-0.8,1-1.8,1.7-2.9,2.3c-1.9,1.5-2.7,1.2-2.4-0.9l-2.5-1l0.1,1.1l1.9-1.4
		c0.5,0.1,6.5-6.5,7.5-7.3c1.3-1.1-0.4-3.1-1.8-2.3c-1.8,1-3.4,2.4-4.7,4c-1.1,1.5,0.7,3.5,2.1,2.1c5.5-5.2,12.5-8.6,20-9.5
		l-1.1-2.5c-5.4,4.4-12.2,6.3-17.2,11.1c-1.4,1.3,0.7,3.3,2.1,2.1l3.6-3.1c1.3-1.1-0.4-3.3-1.8-2.3c-1.8,1.3-3.7,2.4-5.7,3.4
		l1.8,2.3c0.9-1.2,2-2.2,3.2-3l-1.8-2.3l-2.2,1.5l1.8,2.3c2.5-2.6,5.3-4.8,8.5-6.4l-2.2-1.7c-0.3,2-7.1,6-8.7,7.2l2.1,2.1
		c2.9-3.1,6.2-5.7,9.8-7.8L86.6,30c-1.5,4.1-6,8.2-8.7,11.6c-1.2,1.5,0.8,3.5,2.1,2.1c3.3-3.4,6.9-6.6,10.7-9.4L88.9,32
		c-3.3,4-6.8,7.9-10.3,11.8l2.1,2.1c3-3.8,6.7-7.2,10.7-9.9l-2-2c-2.3,4-5.9,7.3-8.9,10.7c-1.3,1.4,0.7,3.5,2.1,2.1
		c2.9-2.9,5.9-5.5,9.2-8L90,36.4c-2.8,3.3-6,6.3-9.3,9.1l2.1,2.1c2.2-2.5,4.6-4.9,7.2-7l-2.3-1.8c-0.4,0.9-0.9,1.8-1.5,2.7
		c-0.4,0.7-0.2,1.6,0.6,2c0.6,0.3,1.3,0.2,1.8-0.2c2.2-2.2,4.6-4.1,7.3-5.8l-2-2c-1.3,1.8-2.9,3.4-4.6,4.7l2.1,2.1
		c1.7-1.8,3.6-3.4,5.7-4.8l-1.8-2.3c-1.4,1.2-2.8,2.3-4.3,3.3l1.8,2.3c2.7-2.9,6.1-5,9.9-6.3L101,32c-2,2.1-4.5,3.6-7.3,4.2l1.7,2.2
		c0.9-2.2,2.6-3.9,4.7-4.8l-1.8-2.3c-1.8,2.3-4.2,4-6.9,5.2l1.7,2.2c1.8-3,4.3-5.4,7.4-7.1l-2-2c-1.5,2.3-3.7,4.1-6.3,4.9l1.8,1.8
		c0.5-2.2,3.7-3.4,5.5-4.2l-2-2c-1.2,1.8-3,3-5,3.6l1.7,2.2c0.6-1.9,2.1-3.4,4-4l-1.5-2.6c-1.1,1.5-2.7,2.6-4.5,3.1l1.7,2.2
		c1.1-2,2.9-3.6,5.2-4.3l-1.7-2.2c-0.5,0.7-3.9,5-5.4,4.6l0.7,2.5c1.4-1.7,3.7-4.9,5.8-5.6c1.4-0.5,1.4-0.3,2.4,1.3
		c2,3.1,4.3,6.1,6.8,8.9l1.1-2.5c-3.1,0-5.9-1.2-9-1.1c-0.8,0-1.5,0.7-1.4,1.6c0,0.6,0.4,1.1,1,1.3c1.9,0.6,3.8,1.3,5.6,2.2l1.1-2.7
		l-2.5-1.1L102,40c2.6,1.5,5.4,2.6,8.4,3.2l0.4-2.9l-2.2-0.2c-1.9-0.2-1.9,2.8,0,3c1.8,0.2,3.6,0.6,5.4,1.3l0.4-2.9
		c-1.4-0.1-2.8-0.5-4.1-1l-0.8,2.9c1.9,0.5,4.6,0,6.2,1.2l0.4-2.7l-1.5,0.4c-1.6,0.4-1.3,3.1,0.4,2.9c2.4-0.2,4.8-0.3,7.3-0.2
		c0.8,0,1.5-0.7,1.5-1.5c0-0.4-0.2-0.7-0.4-1c-6-5.5-14-5-21.3-7.4l0.4,2.7c1.6-0.7,3.1-1.8,4.3-3.1l-1.8,0.2l-0.1-3l0.5-2l-0.9,0.4
		c0.7-0.4,0.9-1.3,0.5-2.1c-0.1-0.2-0.3-0.4-0.5-0.5l-1.8-0.9c-1.7-0.9-3.2,1.7-1.5,2.6l1.8,0.9v-2.6l-0.3,0.1
		c-0.5,0.3-0.7,0.8-0.7,1.3c0.2,7,9.3,1.8,4.3-1.5c-5.7-3.7-4.6,8.7,0.7,4.8c0.7-0.4,0.9-1.3,0.5-2c-1.3-2.7-5.9-1.8-6.6,1
		c-0.4,1.5,0.6,3,2.1,3.4c0.8,0.2,1.6,0,2.3-0.4c1.3-1.1,1.4-3,0.4-4.2c-0.5-0.6-1.3-1-2.2-1.1c-3.3,0-3.9,4.2-1.5,5.9
		c2,1.4,5,0.1,4.8-2.5c-0.4-3.5-5.1-3.4-6.1-0.3c-2.6,7.8,13.2,5.1,6,0.2c-0.6-0.3-1.3-0.2-1.8,0.2c-1,1.1-2.3,2-3.7,2.6
		c-1.3,0.5-0.7,2.4,0.4,2.7c6.7,2.1,14.5,1.7,20,6.6l1.1-2.5c-2.4-0.1-4.9-0.1-7.3,0.2l0.4,2.9l1.5-0.4c0.8-0.2,1.2-1.1,1-1.9
		c-0.1-0.3-0.3-0.6-0.6-0.8c-2.2-1.6-4.4-0.8-6.9-1.5c-1.8-0.5-2.6,2.3-0.8,2.9c1.6,0.5,3.2,0.9,4.9,1c1.8,0.2,1.8-2.4,0.4-2.9
		c-2-0.8-4-1.3-6.2-1.5v3l2.2,0.2c1.7,0.1,2-2.6,0.4-2.9c-2.7-0.5-5.3-1.5-7.7-2.9c-1.7-1-3.1,1.5-1.5,2.6c0.9,0.8,2,1.3,3.2,1.4
		c1.6,0.4,2.7-2,1.2-2.7c-2-1-4.1-1.8-6.3-2.5l-0.4,2.9c3.1-0.1,5.9,1.1,9,1.1c0.8-0.1,1.5-0.8,1.4-1.6c0-0.4-0.2-0.7-0.4-0.9
		c-2.4-2.8-4.1-5.6-6.2-8.5c-0.6-0.9-1.5-2.5-2.5-3c-3.6-1.9-8.7,4.7-10.5,7c-0.5,0.6-0.5,1.6,0.2,2.1c0.1,0.1,0.3,0.2,0.5,0.3
		c3.4,1,7-3.6,8.7-6c0.4-0.7,0.2-1.6-0.6-2c-0.3-0.2-0.7-0.2-1.1-0.1c-2.9,0.9-5.4,2.9-6.9,5.6c-0.4,0.7-0.2,1.6,0.6,2
		c0.3,0.2,0.7,0.2,1.1,0.1c2.3-0.6,4.4-1.9,5.8-3.8c0.8-1,0.1-3.1-1.4-2.5c-2.6,0.9-4.7,2.8-5.8,5.4c-0.5,1.1,0.3,2.7,1.7,2.2
		c2.7-0.9,5.1-2.7,6.8-5c1-1.3-0.9-2.5-2-2c-2.9,1.2-6.1,2.7-6.9,6c-0.2,0.8,0.3,1.6,1.1,1.8c0.2,0.1,0.5,0.1,0.8,0
		c3.4-1.1,6.2-3.3,8.1-6.3c0.4-0.7,0-1.6-0.7-2c-0.4-0.2-0.9-0.2-1.3,0c-3.5,1.9-6.4,4.8-8.5,8.2c-0.6,1,0.4,2.7,1.7,2.2
		c3.2-1.3,6-3.3,8.2-5.9c0.6-0.6,0.5-1.6-0.1-2.1c-0.5-0.4-1.1-0.5-1.7-0.2c-2.6,1.1-4.7,3.2-5.8,5.9c-0.4,0.7-0.1,1.6,0.6,2
		c0.3,0.2,0.7,0.2,1.1,0.1c3.3-0.8,6.3-2.5,8.7-5c1-1,0-3-1.4-2.5c-4.2,1.5-8.1,3.9-11.2,7.1c-1.2,1.2,0.3,3.3,1.8,2.3
		c1.7-1.1,3.4-2.4,4.9-3.8c1.2-1.1-0.4-3.3-1.8-2.3c-2.3,1.5-4.4,3.3-6.3,5.3c-1.4,1.4,0.6,3.3,2.1,2.1c1.9-1.5,3.7-3.3,5.1-5.3
		c0.9-1.2-0.8-2.8-2-2c-2.8,1.8-5.5,3.8-7.9,6.2l2.3,1.8c0.6-0.8,1.1-1.7,1.5-2.7c0.3-0.8-0.1-1.6-0.8-2c-0.5-0.2-1.1-0.1-1.5,0.2
		c-2.6,2.1-5,4.5-7.2,7c-0.5,0.6-0.5,1.6,0.2,2.1c0.6,0.5,1.4,0.5,1.9,0c3.4-2.7,6.5-5.7,9.3-9c1-1.2-0.4-3.4-1.8-2.3
		c-3.4,2.6-6.7,5.4-9.8,8.4l2.1,2.1c3.2-3.6,6.9-7.1,9.4-11.3c0.7-1.2-0.8-2.9-2-2c-4.3,2.8-8.1,6.3-11.3,10.3
		c-1.2,1.5,0.8,3.5,2.1,2.1c3.5-3.9,6.9-7.8,10.3-11.8c1-1.2-0.3-3.4-1.8-2.3c-4.1,3-7.9,6.3-11.4,9.9l2.1,2.1
		c3.2-4,7.6-8.1,9.4-12.9c0.5-1.3-1.1-2.3-2.2-1.7c-3.8,2.3-7.3,5.1-10.4,8.3c-1.3,1.4,0.6,3.3,2.1,2.1c2.6-2,8.9-5.1,9.4-8.5
		c0.2-0.8-0.3-1.6-1.1-1.8c-0.4-0.1-0.7,0-1.1,0.1c-3.4,1.8-6.5,4.1-9.1,6.9c-0.6,0.6-0.6,1.5,0,2.1c0.5,0.5,1.2,0.6,1.8,0.2
		c1-0.5,2-1.2,2.8-2c1.2-1.1-0.4-3.3-1.8-2.3c-1.4,1-2.7,2.1-3.8,3.4c-0.6,0.6-0.5,1.6,0.1,2.1c0.5,0.4,1.1,0.5,1.7,0.2
		c2-1,3.8-2.2,5.7-3.4l-1.8-2.3l-3.6,3.1l2.1,2.1c5-4.8,11.9-6.8,17.2-11.1c0.6-0.6,0.6-1.5,0-2.1c-0.3-0.3-0.6-0.4-1-0.4
		c-8.3,1-16,4.6-22,10.3l2.1,2.1c1.1-1.5,2.5-2.7,4.1-3.6l-1.8-2.3c-1.3,1.1-12.8,10.9-6.1,12.2c0.8,0.2,1.6-0.3,1.8-1.1
		c0-0.1,0-0.2,0-0.3L74.4,42c0-0.8-0.7-1.5-1.6-1.5c-0.4,0-0.7,0.2-1,0.4c-1.8,1.8-2.8,5.2,0.2,6.6s7.3-1.8,9.2-3.8l-2.5-1.5
		c-0.6,1.8-2.3,6.2,0.3,7.3s6.6-3.7,7.8-5.2c1-1.2-0.3-3.4-1.8-2.3c-1.7,1.1-2.9,2.7-3.5,4.6c-0.5,1.3,1.1,2.2,2.2,1.7
		c3.6-1.7,7.7-3,11-5.2c2.6-1.7,4.6-4.3,6.7-6.6c0.5-0.6,0.5-1.6-0.2-2.1c-0.6-0.5-1.4-0.5-1.9,0c-4,3.7-8.1,7.2-12.5,10.5
		c-1.5,1.1-0.2,3.6,1.5,2.6c2.1-1.3,4.1-2.8,5.8-4.6c0.6-0.6,0.6-1.5,0-2.1c-0.5-0.5-1.2-0.6-1.8-0.2c-4.5,2.7-8.9,5.8-12.9,9.2
		l2.1,2.1c1-0.9,1.9-1.9,2.6-3.1c0.9-1.5-1.1-2.9-2.3-1.8c-2.3,2.1-5.3,3.5-7.4,5.5c-1.4,1.3-2,3.8-2.7,5.5S73.6,61.2,74.3,59.4
		L74.3,59.4z"/>
	<path class="st0" d="M105.8,30.4c-1.1-0.2-2-0.7-2.9-1.3l-0.2,1.8c1.2-1.5,2.7-1.7,2.2-3.8c-0.2-0.6-0.8-1.1-1.4-1.1h-0.5
		c-0.7,0-1.3,0.4-1.4,1.1l-0.2,0.4c-0.2,0.8,0.2,1.6,1,1.8c2.7,0.5,5.2,1.5,7.4,3l1.2-2.8l-1.8-1.3l-1.3,2.3
		c9.1,0.4,14.2,11.9,20,17.5c0.6,0.6,1.6,0.5,2.1-0.1c0.2-0.3,0.4-0.6,0.4-1c-0.1-3.3-1.7-5.2-4.2-7.2c-3.7-3-7.4-5.9-10.8-9.1
		l-1.1,2.5h1.7c0.8,0,1.5-0.7,1.5-1.5c0-0.5-0.3-1-0.7-1.2l-0.5-0.4l-1.2,2.7c3.9,1.2,6,4.3,8.6,7.3s4.8,5.5,6.4,9.1
		c0.6,1.5,2.7,0.6,2.8-0.8c0.2-4.2-2.5-8-5.6-10.7c-4-3.5-9.4-4.1-13.1-8l-0.3,2.3c0.4-0.2,4.1,6.2,4.7,6.9c2.3,3.1,4.4,5.2,5.7,9
		l2.7-1.2c-0.9-1.7-2.3-3.1-4-3.9l-1.1,2.7c12.1,3.8,9.3,20.3,8.8,30c-0.1,1.9,2.9,1.9,3,0c0.6-11.3,3-28.5-10.9-32.9
		c-0.8-0.2-1.6,0.3-1.8,1c-0.2,0.6,0.1,1.3,0.7,1.7c1.3,0.5,2.4,1.5,2.9,2.9c0.8,1.5,3.3,0.5,2.7-1.2c-1.8-5.3-5.4-8.7-8.4-13.4
		c-1.5-2.3-3.3-5.9-6.4-4.3c-0.7,0.4-0.9,1.3-0.5,2.1c0.1,0.1,0.1,0.2,0.2,0.3c5.3,5.5,18.2,6.7,17.8,16.5l2.8-0.8
		c-1.9-4.5-4.8-7.4-7.9-11.1c-2.5-3-4.9-5.5-8.8-6.7c-0.8-0.3-1.6,0-2,0.8c-0.3,0.8,0,1.6,0.8,2l0.5,0.3l0.8-2.8h-1.7
		c-0.8,0-1.5,0.7-1.5,1.6c0,0.4,0.2,0.7,0.4,1c2.3,2.1,4.6,4.2,7,6.1s7,4.4,7.2,8.1l2.5-1c-6.7-6.3-11.6-17.8-22.1-18.3
		c-0.8,0-1.5,0.7-1.5,1.5c0,0.3,0.1,0.5,0.2,0.7c0.9,1.2,2.1,2.2,3.6,2.6c1.7,0.6,2.5-1.8,1.2-2.7c-2.5-1.6-5.2-2.7-8.1-3.3l1,1.8
		l0.2-0.4l-1.4,1.1h0.5l-1.4-1.1c-0.2-0.9-1.7,1.4-1.4,0.9c-0.5,0.5-0.5,1.2-0.2,1.8c0.9,1.8,2.9,2.1,4.7,2.7S107.6,31,105.8,30.4
		L105.8,30.4z"/>
	<path d="M71,88.8c-8.5-10.3-6.7-28.7-2.7-40.4c2.3-6.8,5.3-12.7,11.6-16.3c6.4-3.8,13.7-5.6,21.2-5.1c0.8,0,0.8-1.1,0-1.2
		C93.4,25.2,85.8,27,79.3,31c-6.1,3.5-9.2,8.9-11.6,15.4c-4.6,12.5-6.7,32.2,2.4,43.3C70.7,90.2,71.5,89.4,71,88.8z"/>
	<path d="M68.8,88.2c2.7,3.1,6.2,5.5,10.2,6.7c0.5,0.2,0.9-0.4,0.7-0.9c-5.6-11-8.4-26.2-3.3-37.8c0.3-0.7-0.7-1.3-1-0.6
		c-5.3,12.1-2.5,27.6,3.3,39l0.7-0.9c-3.7-1.2-7.1-3.4-9.7-6.4C69.2,86.8,68.4,87.7,68.8,88.2L68.8,88.2z"/>
	<path d="M71.7,56.5c5.4-0.4,10.6-4.6,15.2-7.3c5.6-3.2,10.8-6.7,15-11.7c0.5-0.6-0.3-1.4-0.8-0.8c-3.7,4.4-8.3,7.7-13.3,10.6
		c-4.5,2.7-10.7,7.5-16,8C71,55.3,71,56.5,71.7,56.5z"/>
	<path d="M76.6,56.1c0.1-0.4,0.3-0.8,0.7-1.1c0.6-0.5-0.3-1.3-0.8-0.8c-0.5,0.4-0.9,1-1,1.6C75.3,56.6,76.4,56.9,76.6,56.1
		L76.6,56.1z"/>
	<path d="M78.4,92.8c3.6,0.8,6.7,1.8,10.4,1.9c0.3,0,0.6-0.3,0.6-0.6c0-0.3-0.3-0.6-0.6-0.6c-3.6-0.1-6.7-1.1-10.1-1.8
		C78,91.5,77.7,92.7,78.4,92.8L78.4,92.8z"/>
	<path d="M100.5,27c7.2,0.7,14.7,2.1,20.8,6.3c6.8,4.7,11,10.5,12.8,18.5c1.7,7.8,1.4,15.9,0.1,23.7c-1.3,8-8.7,16.1-17.2,16.6
		l0.4,1c4.3-5.1,7.1-11.6,9.3-17.8c2.5-7.1,1.7-13.9,0.1-21.1c-0.2-0.8-1.3-0.4-1.2,0.3c1.5,7,2.3,13.6-0.1,20.5
		c-2.1,6-4.9,12.4-9,17.4c-0.3,0.4-0.1,1.1,0.4,1c6.8-0.4,14-6,17-12.1c1.6-3.4,1.8-8.1,2.1-11.8c0.5-4.8,0.4-9.7-0.3-14.4
		c-1.4-9.5-5-15.9-12.6-21.7c-6.5-5-14.8-6.7-22.8-7.5C99.7,25.7,99.7,26.9,100.5,27L100.5,27z"/>
	<path d="M110.9,93.7c2,0.1,4-0.4,5.8-1.3c0.7-0.3,0.1-1.4-0.6-1c-1.6,0.8-3.4,1.2-5.2,1.1C110.2,92.5,110.2,93.7,110.9,93.7
		L110.9,93.7z"/>
	<path d="M99.5,40c4.5,2.6,9.3,4.4,14.4,5.4c2,0.4,4.1,0.2,6.1,0.7c4.1,1,4.3,5,5.5,8.5c0.2,0.7,1.4,0.4,1.2-0.3
		c-0.9-2.9-1.3-7.9-4.1-9.3c-1.1-0.6-3.8-0.1-5.1-0.2c-2.2-0.2-4.4-0.6-6.5-1.2c-3.8-1-7.4-2.6-10.8-4.5c-0.3-0.1-0.7,0.1-0.8,0.4
		C99.3,39.5,99.4,39.8,99.5,40L99.5,40z"/>
	<path class="st0" d="M88.4,44L88.4,44c1.2-1.2,1.8-2.7,1.8-4.3c0-1.6-0.6-3.1-1.7-4.2c-1.1-1.1-2.6-1.7-4.2-1.7
		c-1.6,0-3.1,0.6-4.2,1.7L80,35.6c-1.1,1.1-1.7,2.6-1.7,4.2c0,1.6,0.6,3.1,1.7,4.2c1.1,1.1,2.6,1.7,4.2,1.7
		C85.8,45.7,87.3,45.1,88.4,44z"/>
	<path class="st0" d="M126.3,39.7c-1-1.9-2.6-3.5-3.5-5.4l-0.8,0.8c0.9,0.6,1.8,1.4,2.5,2.2l0.8-0.8c-0.7-0.7-1.4-1.3-2.2-1.8
		c-0.6-0.4-1.2,0.6-0.6,1c0.7,0.5,1.3,1,1.9,1.7c0.5,0.6,1.3-0.3,0.8-0.8c-0.8-0.9-1.7-1.7-2.8-2.4c-0.5-0.4-1.1,0.3-0.8,0.8
		c1,2,2.6,3.5,3.5,5.4C125.6,40.9,126.6,40.3,126.3,39.7L126.3,39.7z"/>
	<path class="st1" d="M73.2,53.3C82.1,49.2,89,43.7,96,37c0.6-0.5-0.3-1.4-0.8-0.8c-6.9,6.6-13.8,12.1-22.6,16.1
		C71.9,52.5,72.5,53.6,73.2,53.3L73.2,53.3z"/>
	<path class="st1" d="M75.2,88.7c-7.6-7.6-7.7-16.9-6.3-26.9c0.1-0.8-1-1.1-1.2-0.3c-1.4,10.5-1.3,20.2,6.6,28.1
		c0.3,0.2,0.6,0.1,0.8-0.1C75.4,89.2,75.4,88.9,75.2,88.7L75.2,88.7z"/>
	<path class="st1" d="M73.3,44.3c-0.2-0.8,2.3-3.1,2.9-3.7c1.2-1.2,2.4-2.4,3.6-3.5c2.6-2.3,5.5-4.3,8.6-6c0.7-0.4,0.1-1.4-0.6-1
		c-3.8,2.1-7.2,4.6-10.3,7.5c-1.3,1.3-6,4.9-5.3,7C72.4,45.3,73.5,45,73.3,44.3L73.3,44.3z"/>
	<path class="st1" d="M104,39.1c4.7,2.5,10,3.9,15.3,4c0.3,0,0.6-0.3,0.5-0.7c0-0.3-0.2-0.5-0.5-0.5c-5.2-0.1-10.2-1.4-14.7-3.9
		C103.9,37.6,103.3,38.7,104,39.1L104,39.1z"/>
	<path class="st1" d="M121.7,90.6c3.6-2.8,6.6-6.3,8.6-10.4c2.5-4.8,2.6-9.7,4.5-14.6c0.3-0.7-0.9-1-1.1-0.3
		c-1.7,4.3-1.7,8.7-3.8,13c-2,4.4-5,8.3-8.9,11.3C120.5,90.1,121.1,91.1,121.7,90.6L121.7,90.6z"/>
</g>
</svg>
