<?xml version="1.0" encoding="utf-8"?>
<!-- Generator: Adobe Illustrator 21.0.2, SVG Export Plug-In . SVG Version: 6.00 Build 0)  -->
<svg version="1.1" id="Layer_1" xmlns="http://www.w3.org/2000/svg" xmlns:xlink="http://www.w3.org/1999/xlink" x="0px" y="0px"
	 viewBox="0 0 200 600" style="enable-background:new 0 0 200 600;" xml:space="preserve">
<style type="text/css">
	.st0{fill:#9A53A0;}
	.st1{fill:#090003;}
	.st2{fill:#86478C;}
</style>
<g>
	<g>
		<g>
			<g>
				<path class="st0" d="M65.4,327.1c2.4,0.2,1.5,1.6,2.8-0.4c0.6-0.9,0.9-2.5,1.2-3.5c0.7-2.2,1.1-4.5,1.2-6.8
					c0.1-4.3-2.4-9.6,0.7-13.4c3.9-4.8-1.2-13.7-7.3-9.4c-0.4,0.3-0.8,0.6-1.2,0.8c3,1.7,6,3.5,9,5.2c-0.1-2.1-1.3-6.9-0.1-8.5
					c2-2.6,0.4-6.7-2.2-8.2c-0.2-0.1-0.5-0.3-0.7-0.4c0.9,1.2,1.8,2.4,2.8,3.6c0.4,2.4,1-1.5,1.2-2.2c0.5-1.7,0.8-3.4,1.1-5.1
					c0.5-3.4,0.7-6.8,0.4-10.3c-2.5,1.9-5.1,3.9-7.6,5.8c10.5,2.8,21.3,5.5,32.2,5.7c11.4,0.2,22.8-2.3,33.9-4.8
					c-2.5-2.5-4.9-4.9-7.4-7.4c-1.2,3.6-0.9,6.9-2.6,10.3c-1.5,3.1-2.6,6.2-3.6,9.5c-1.9,6.7-4.7,12.9-9.2,18.3
					c-4.6,5.6-10.3,9.2-16.4,12.9c-3.3,2-6.2,4.3-9.3,6.4c-1.2,0.9-2.6,1.9-3.9,2.5c-0.8,0.4-1.7,0.7-2.6,0.8
					c1.1,0.8,1.5,0.7,1.3-0.3c0.8-1,0.3-5.1,0.4-6.4c0.1-1.9,0.2-3.8,0.3-5.7c0.2-4.1,0.4-8.2,0.6-12.4c0.2-4.1,0.3-8.3,0.5-12.4
					c0.1-1.9,0.2-3.9,0.1-5.8c-0.1-1.2-0.2-2.4-0.4-3.5c-2.5,2.1-2.8,3-0.9,2.7c1.4,0.6,4.5,0,6.1,0.2c1.9,0.2,3.8,0.5,5.6,0.9
					c3.9,0.7,7.7,1.5,11.6,1.9c7.9,0.7,15.5-1.1,22.6-4.3c-2.9-2.3-5.9-4.5-8.8-6.8c-1.4,4.3-6,7.3-8.5,10.9
					c-3.1,4.5-5.3,9.3-8.9,13.5c-7.3,8.4-14.7,17.1-24.2,22.9c2.9,2.3,5.9,4.5,8.8,6.8c1.7-10.1,3.1-20.3,4-30.5
					c0.2-2.4,0.9-5.4,0.6-7.7c0.5-2.2,0.3-2.5-0.7-1c1.3-0.1,2.5-0.1,3.8-0.2c5.2-0.2,10.4-0.3,15.5,0.5c-1.2-2.9-2.4-5.9-3.6-8.8
					c-2.7,4.9-8.5,8.6-12.2,12.8c-4.1,4.7-7.9,9.7-11.3,14.9c3.7,1.5,7.3,3.1,11,4.6c0.5-1.8,2.8-15.4,4.3-15.5c-2-2-4-4-6-6
					c-0.4,3.6-4.4,6.9-6.4,9.7c-2.2,3-4,6.2-5.8,9.4c-1.8,3.2-3.5,6.5-5.4,9.6c-1.1,1.8-2.2,3.5-3.6,5.1c-0.7,0.8-1.4,1.6-2.1,2.3
					c-1.8,1.1-1.4,1.9,1.1,2.5c-3.1-6-12.9-1.9-11,4.6c-0.6-2.1-0.2,1.3-0.1,2c0.2,1.9,0.8,3.3,2.1,4.7c2.3,2.4,6.2,3.2,9.2,4.3
					c0.5-3.9,1.1-7.9,1.6-11.8c-1.1-0.1-2.1-0.2-3.2-0.4c-6.7-0.8-8.3,10.7-1.6,11.8c14.7,2.5,29.2-4.3,43-8.5
					c3.1-1,5.1-4.2,4.2-7.4c-1.4-4.9-6.5-6.6-10.9-4.5c-4.9,2.4-6.7,7.9-12.8,7.4c-6.1-0.5-7.9,8.3-3,11.2
					c7.4,4.4,15.8,6.8,23.7,2.1c6.6-3.9,0.6-14.3-6.1-10.4c-4,2.4-8.1,0-11.6-2.1c-1,3.7-2,7.5-3,11.2c3.7,0.3,7.6-0.4,10.8-2.3
					c1.3-0.8,2.6-1.8,3.7-2.8c0.7-0.7,1.4-1.4,2.1-2.1c1.6-1.1,1.4-1.4-0.5-0.9c-1.4-1.4-2.8-2.8-4.2-4.2c0.1,0.2,0.1,0.5,0.2,0.7
					c1.4-2.5,2.8-4.9,4.2-7.4c-6.3,1.9-12.5,3.9-18.8,5.8c-5.9,1.8-11.5,3.8-17.8,2.7c-0.5,3.9-1.1,7.9-1.6,11.8
					c1.1,0.1,2.1,0.2,3.2,0.4c7.1,0.8,7.5-9.7,1.6-11.8c-0.8-0.3-3.6-0.9-4.3-1.7c0.6,1.4,1.2,2.8,1.8,4.2c0-1.9,0.2-3.3-0.3-5.2
					c-3.7,1.5-7.3,3.1-11,4.6c2.8,5.5,9.4,6.1,14.3,2.9c5.2-3.4,9.1-9.6,12.2-14.9c3.2-5.4,5.9-11.2,9.6-16.3
					c3.9-5.4,7.7-9.5,8.5-16.4c0.3-3.1-3-6.2-6-6c-12.7,0.8-13.4,14.4-15.9,24.3c-1.7,6.7,7.3,10.3,11,4.6c3.5-5.3,7.3-10.3,11.7-15
					c3.9-4.2,8.9-7.7,11.8-12.7c1.7-3.1,0.4-8.2-3.6-8.8c-6.9-1.1-13.7-1.2-20.6-0.9c-5.6,0.3-11,1.4-12.6,7.6
					c-1.6,6-1.1,12.9-1.8,19c-0.8,7.2-1.8,14.3-3,21.5c-0.8,4.8,4,9.7,8.8,6.8c10.9-6.7,19.5-16.3,27.7-26c3.8-4.6,6.1-9.9,9.7-14.6
					c3.6-4.7,8-7.9,9.8-13.9c1.7-5.5-4.4-8.8-8.8-6.8c-7.6,3.4-15.2,3.1-23.2,1.5c-6.8-1.3-14.8-3.1-21.7-1.3
					c-8.1,2.2-5.6,10.9-5.7,17.1c-0.2,8.3-0.6,16.5-1,24.8c-0.3,6.3-2.7,15.4,1.2,21c4.1,5.9,11.8,4.9,17.4,2
					c6.1-3.1,11.7-7.9,17.6-11.5c5.6-3.5,10.7-7.7,14.9-12.8c4.8-5.9,8.5-12.5,10.9-19.8c1.4-4.2,2.5-8,4.5-12
					c1.8-3.6,1.4-7.3,2.6-11c1.5-4.6-3.2-8.3-7.4-7.4c-10.1,2.3-20.3,4.6-30.7,4.4c-9.9-0.2-19.5-2.7-29-5.2
					c-3.5-0.9-7.9,1.8-7.6,5.8c0.4,5.2-0.4,9.6-1.9,14.6c-1.2,4-0.8,7.9,3.1,10.2c-0.7-2.7-1.4-5.5-2.2-8.2
					c-3.1,4.1-1.8,9.8-1.5,14.6c0.3,4.1,5,8,9,5.2c0.4-0.3,0.8-0.6,1.2-0.8c-2.4-3.1-4.8-6.3-7.3-9.4c-2.7,3.4-4.6,6.9-4.9,11.3
					c-0.4,4.9,1.4,9.4,0,14.2c-1.2,4-3.1,7.9-1.7,12.2c1.4,4.3,4.9,6.5,9.2,6.9C73.1,339.9,73,327.9,65.4,327.1L65.4,327.1z"/>
			</g>
		</g>
		<g>
			<g>
				<path class="st0" d="M110.8,323.7c0.7-0.5,1.4-1,2.1-1.6c1.4,0.6,2.8,1.2,4.2,1.8c0.2,1,0.4,1.9,0.6,2.9
					c-0.9,1.2-1.8,2.4-2.8,3.6c0.2-0.1,0.5-0.3,0.7-0.4c-1.5,0.2-3.1,0.4-4.6,0.6c-0.4-0.3-0.7-0.5-1.1-0.8
					c-0.6-1.4-1.2-2.8-1.8-4.2c0,0.4,0,0.9,0,1.3c0.6-1.4,1.2-2.8,1.8-4.2c1.6,1.4,3.2,2.8,4.8,4.2c-0.9,1.2-1.8,2.4-2.8,3.6
					c0.3-0.2,0.6-0.3,0.9-0.5c-1.5,0.2-3.1,0.4-4.6,0.6c0.3,0.1,0.6,0.2,0.9,0.3c-1.4-1.4-2.8-2.8-4.2-4.2c2.9-2.8,3.1-4.3,0.6-4.4
					c-0.8-0.2-1.6-0.5-2.4-0.8c-0.6-0.2-1.1-0.6-1.6-1.1c-0.8-0.9-0.9-0.4-0.5,1.7c0.2,0.2,11-3.6,11.9-3.9
					c1.3-0.3,12.5-1.7,12.5-1.5c-0.8-0.8-1.6-1.6-2.4-2.3c-0.3,1.1-0.8,2.1-1.2,3.2c-0.8,1.8-1.8,3.8-3.3,5.2
					c1.4-0.6,2.8-1.2,4.2-1.8c-0.3,0-0.6,0.1-0.9,0.1c1.4,0.6,2.8,1.2,4.2,1.8c0.5,0.6-0.4-2.3-0.3-2.8c-0.9,1.2-1.8,2.4-2.8,3.6
					c0.3-0.1,0.5-0.3,0.8-0.4c-2.9-1.2-5.9-2.4-8.8-3.6c0.3,1.7,0,3.4-1,4.7c1.2-0.9,2.4-1.8,3.6-2.8c-0.3,0.1-0.6,0.1-0.9,0.2
					c1.9,0.5,3.9,1,5.8,1.5c0-0.3-0.1-0.7-0.1-1c-3.7-0.5-7.3-1-11-1.4c1.4,3.6-0.2,6.4-2.1,9.6c-0.9,1.5-1.9,3-2.7,4.6
					c-0.3,0.6-0.7,1.3-1,1.9c-0.7,1-0.6,1.1,0.2,0.3c1.1,3.9,2.1,7.7,3.2,11.6c4.6-1.6,8.8,0.1,13.3,1.2c4.5,1,8.6,1.4,13.2,0.6
					c6.6-1.1,5.1-12.5-1.6-11.8c-1.9,0.2-3.8,0.5-5.7,1c2.5,1.4,4.9,2.8,7.4,4.2c-2-5-3.6-10.1-4.7-15.3c-1-4.8-8.9-6.2-11-1.4
					c-0.8,1.9-1.8,3.5-3,5.1c3.7,0.5,7.3,1,11,1.4c-0.1,0.4-0.3,0.9-0.4,1.3c-3.7-0.5-7.3-1-11-1.4c0.3,1.9,0.8,3.8,1.4,5.6
					c1.9,5.5,9.8,5.9,11.6,0c1.4-4.8,2.9-9.4,5.7-13.7c-3.7-1-7.5-2-11.2-3c0,4.6,0.5,9,1.4,13.5c1.3,6.6,12.3,5.2,11.8-1.6
					c-0.2-2.5-0.5-5.1-0.1-7.6c-3.9,0-7.7,0-11.6,0c0.6,3.8,1.2,7.6,1.8,11.4c0.5,2.9,3.9,4.7,6.6,4.3c3.2-0.4,4.8-2.9,5.2-5.9
					c0.7-5.6-0.5-11.1-1.3-16.6c-0.8-6-1.4-12-2-18c-0.5-5.2-1.8-10.9-0.3-15.9c0.7-2.3,0.6-4.1,0.9-6.4c0.2-2.4,1.3-4.4,1.1-6.9
					c-0.6-6.3-10.2-8.7-11.8-1.6c-0.7,3.2-1.1,6.5-1.1,9.8c0,6.7,10.1,8.2,11.8,1.6c0.4-1.5,0.7-2.9,1.1-4.4
					c-3.9-0.5-7.9-1.1-11.8-1.6c-0.3,2.8-0.4,5.5-0.3,8.4c4,0,8,0,12,0c-0.1-1.5-0.1-2.9-0.2-4.4c-3.9,0.5-7.9,1.1-11.8,1.6
					c0.8,2,2.6,5.6,2.5,7.3c-0.1,1.3-1.8,4.2-1.9,6.3c-0.3,4.9,7,8.3,10.2,4.2c1.7-2.2,2.9-4.1,3.8-6.7c2.4-7.4-8.9-10.3-11.6-3.2
					c-1,2.7-1.8,5.3-2.3,8.1c-1.4,7.6,9.1,10.6,11.6,3.2c0.6-1.7,1.2-3.5,1.8-5.2c2.5-7.4-8.7-10.2-11.6-3.2
					c-2.6,6.4-2.7,13.3-0.4,19.8c2.2,6.5,11.3,5.2,11.8-1.6c0.3-4.7,0.6-9.4,1-14.1c0.5-6.6-10.8-8.3-11.8-1.6
					c-0.6,4.2-0.6,7.7,0.4,11.8c1.6,6.4,12.3,5.3,11.8-1.6c-0.1-1.4-0.2-2.8-0.3-4.2c-3.9,0.5-7.9,1.1-11.8,1.6
					c0.7,1.8,0.9,3.1,0.9,5c-0.2,6.8,10,8.1,11.8,1.6c0.4-1.6,0.6-2.9,0.6-4.6c0-7.8-11.3-7.6-12,0c-0.2,2.2-0.4,4.4-0.8,6.6
					c-1,6.2,7.6,11.2,11,4.6c1.1-2.2,1.9-4.3,2.4-6.7c1.3-6.5-7.3-10.7-11-4.6c-2.3,3.8-2.8,7.5-2.2,11.8c0.6,4-0.5,7.4,2,11.2
					c3,4.7,11.6,3.2,11.2-3c-0.1-0.9-0.1-1.8-0.2-2.7c-3.7,1-7.5,2-11.2,3c1.1,2,1,3.4,0.3,5.5c-2.3,6.7,7.4,10.1,11,4.6
					c1-1.5,1.6-3,2-4.8c1.6-7.5-9.9-10.8-11.6-3.2c-1.1,5-4.3,11-3.1,16.1c1.1,4.7,6.2,8,10.7,5.3c4.2-2.5,4-8.6,4.5-12.9
					c0.6-6-1.2-10.5-6.9-12.8c-7.2-2.8-10.3,8.8-3.2,11.6c-1.3-2-1.8-2.2-1.7-0.6c-0.1,0.9-0.1,1.8-0.3,2.7c-0.1,1.1,0,3-0.6,3.8
					c1.2-0.9,2.4-1.8,3.6-2.8c-0.2,0.1-0.5,0.1-0.7,0.2c1.9,0.5,3.9,1,5.8,1.5c0.6,1.5,0.9,1.4,1.1-0.4c0.3-0.8,0.6-1.7,0.8-2.6
					c0.6-2,1.1-4,1.5-6.1c-3.9-1.1-7.7-2.1-11.6-3.2c0,0.8-0.2,1.4-0.8,1.9c3.7,1.5,7.3,3.1,11,4.6c1.7-5.1,1.1-10.1-1.5-14.7
					c-2.8-5.1-11.5-3-11.2,3c0.1,0.9,0.1,1.8,0.2,2.7c3.7-1,7.5-2,11.2-3c-0.9-1.3,0-4.5-0.2-6.1c-0.4-2-0.7-2.9,0.4-4.8
					c-3.7-1.5-7.3-3.1-11-4.6c-0.3,1.4-0.6,2.6-1.2,3.8c3.7,1.5,7.3,3.1,11,4.6c0.5-3.2,1-6.5,1.2-9.8c-4,0-8,0-12,0
					c-0.1,0.5-0.1,0.9-0.2,1.4c3.9,0.5,7.9,1.1,11.8,1.6c0.1-2.9-0.3-5.5-1.3-8.2c-2.2-5.9-12.3-5.7-11.8,1.6
					c0.1,1.4,0.2,2.8,0.3,4.2c3.9-0.5,7.9-1.1,11.8-1.6c-0.5-1.8-0.7-3.6-0.4-5.5c-3.9-0.5-7.9-1.1-11.8-1.6
					c-0.3,4.7-0.6,9.4-1,14.1c3.9-0.5,7.9-1.1,11.8-1.6c-1.6-4.7-1.4-8.8,0.4-13.4c-3.9-1.1-7.7-2.1-11.6-3.2
					c-0.6,1.7-1.2,3.5-1.8,5.2c3.9,1.1,7.7,2.1,11.6,3.2c0.5-2.8,1.3-5.4,2.3-8.1c-3.9-1.1-7.7-2.1-11.6-3.2c-0.2,0.5-0.4,1-0.7,1.4
					c3.4,1.4,6.8,2.8,10.2,4.2c0-0.8,1.1-2.1,1.4-2.9c0.5-1.6,0.5-3,0.4-4.6c-0.3-3.1-1.6-6.3-2.8-9.2c-2.4-5.7-12.1-5.8-11.8,1.6
					c0.1,1.5,0.1,2.9,0.2,4.4c0.3,7.7,12.3,7.7,12,0c-0.1-2.8,0-5.6,0.3-8.4c0.8-6.8-10.2-8-11.8-1.6c-0.4,1.5-0.7,2.9-1.1,4.4
					c3.9,0.5,7.9,1.1,11.8,1.6c0-2.3,0.2-4.4,0.7-6.6c-3.9-0.5-7.9-1.1-11.8-1.6c0.3,3.8-1.3,8.6-2.1,12.3c-1.3,5.4,0,11.5,0.5,17
					c0.5,5.7,1.1,11.3,1.9,17c0.8,5.9,2.1,11.8,1.4,17.7c3.9-0.5,7.9-1.1,11.8-1.6c-0.6-3.8-1.2-7.6-1.8-11.4
					c-0.9-5.7-10.7-5.7-11.6,0c-0.6,3.7-0.6,7.1-0.3,10.7c3.9-0.5,7.9-1.1,11.8-1.6c-0.7-3.4-0.9-6.8-0.9-10.3c0-6.1-8-7.9-11.2-3
					c-3.3,5.1-5.2,10.8-6.9,16.5c3.9,0,7.7,0,11.6,0c-0.6-1.9-1.1-3.7-1.4-5.6c-0.8-4.9-8.9-6-11-1.4c-1.2,2.7-1.8,5-0.8,7.9
					c1.8,5.2,7.8,5.5,11,1.4c1.2-1.6,2.2-3.2,3-5.1c-3.7-0.5-7.3-1-11-1.4c1.1,5.3,2.7,10.3,4.7,15.3c1.2,3,3.9,5.1,7.4,4.2
					c0.8-0.3,1.7-0.5,2.5-0.6c-0.5-3.9-1.1-7.9-1.6-11.8c-4.5,0.8-9-1.4-13.4-2.2c-4.4-0.9-8.8-1-13.1,0.4
					c-7.3,2.4-4.3,13.8,3.2,11.6c6-1.8,8.2-8.1,11.1-13.1c3.2-5.5,5.3-11.8,2.8-18.1c-1.8-4.6-8.1-6.2-11-1.4
					c-3.1,5.1-1.6,11.2,2,15.6c1.4,1.7,3.9,2,5.8,1.5c7.2-1.5,7.5-11.1,6.6-16.9c-0.6-4.1-5.7-5.1-8.8-3.6c-7,3.5-4.6,19,3.2,20.1
					c7.8,1.1,13.1-11.1,14-17.4c1.5-10.5-8.8-11.5-16.6-10.6c-4.7,0.6-9.3,1.6-13.7,3.1c-3.9,1.3-8.8,2.4-12,5.2
					c-16.1,13.9,22.5,32.1,24.3,13.4c0.9-9.9-14.2-10.1-14.2-0.4c0,8.5,13,11.1,16.8,3.7c5-9.8-11.3-15.8-13.5-5.5
					c-0.9,4.3,1.8,8.8,6.1,9.7c5.3,1.1,8.5-2.7,10.3-7.1c1.3-3-1.4-6.6-4.2-7.4C114.8,318.6,112.1,320.8,110.8,323.7L110.8,323.7z"
					/>
			</g>
		</g>
		<g>
			<g>
				<path class="st0" d="M59.4,340.9C59.4,340.9,59.4,340.9,59.4,340.9c0.3,0.1,0.6,0.2,0.9,0.3c-0.1-0.1-0.1-0.1-0.2-0.2
					c0.1,0.4,0.2,0.8,0.3,1.2c0-0.1,0-0.2,0-0.3c-0.5,0.3-1,0.6-1.5,0.8c0.1,0,0.2,0.1,0.3,0.1c-0.2-0.2-0.5-0.4-0.7-0.6
					c0.2-0.1,0.4-0.3,0.6-0.4c0,0.3,0.1,0.6,0.1,0.9c0-0.1,0-0.1,0.1-0.2c-0.2,0.2-0.4,0.5-0.6,0.7c0.1,0,0.2-0.1,0.2-0.1
					c-0.3,0-0.6,0.1-0.9,0.1c0.1,0,0.2,0,0.2,0.1c-0.2-0.2-0.5-0.4-0.7-0.6c0.1,0.1,0.1,0.2,0.2,0.3c0-0.3-0.1-0.6-0.1-0.9
					c0.3,0,0.3,0,0,0c-0.2,0-0.3,0-0.5,0c-0.3,0.1-0.6,0.2-0.8,0.4c-0.9,0.6-1.7,1.6-2.4,2.4c0.7,0.4,1.3,0.8,2,1.2
					c0.2-1.1,0.3-2.2,0.5-3.2c0.1-1,0.1-2.3,0.8-3.1c-0.7-0.3-1.4-0.6-2-0.8c0.1,1.3-0.1,2.5-0.3,3.7c-0.2,0.9-0.2,1.8,0.4,2.6
					c1.2,1.8,3.4,1.8,5.2,1.4c1-0.2,1.1-1.4,0.5-2c-0.3-0.4-0.6-0.6-1-0.8c-0.2,0.7-0.4,1.5-0.6,2.2c1,0.1,1.8,0.3,2.7,0.6
					c1.5,0.5,2.1-1.8,0.6-2.3c-1.1-0.4-2.2-0.6-3.4-0.7c-1.2-0.1-1.6,1.7-0.6,2.2c0.2,0.1,0.4,0.3,0.5,0.5c0.2-0.7,0.4-1.3,0.5-2
					c-0.7,0.1-1.9,0.4-2.4-0.2c-0.4-0.5-0.1-1.3,0-1.8c0.2-1.1,0.3-2.2,0.2-3.4c0-1-1.3-1.7-2-0.8c-1.7,1.9-1.6,5-1.9,7.4
					c-0.2,1.1,1.1,2.1,2,1.2c0.6-0.6,1.2-1.1,1.7-1.7c0.6-0.7,0.1-0.3,0.9-0.4c0.8-0.1,1.4-0.6,1.6-1.4c0.6-1.6-1.5-3.2-2.7-1.7
					c-1.2,1.5,1,2.8,2.4,2.4c1.8-0.6,1.7-2.9,0-3.5c-0.6-0.2-1.4,0.2-1.5,0.8c-0.3,1.6,1.1,2.3,2.5,1.7
					C62,342.3,60.7,340.3,59.4,340.9L59.4,340.9z"/>
			</g>
		</g>
		<g>
			<g>
				<path class="st0" d="M137.7,348.6c-0.1,0.1-0.3,0.2-0.4,0.2c0.3,0,0.6-0.1,0.9-0.1c-0.1,0-0.2,0-0.3,0c-0.1,0.8-0.2,1.6-0.3,2.4
					c1.4-0.2,2.8-0.4,4.1-0.9c0.9-0.3,2-0.6,2.6-1.3c0.6-0.7,0.7-2.1,0.7-3c0.1-1.4-0.1-2.9-0.5-4.3c-0.8,0.2-1.5,0.4-2.3,0.6
					c0.4,1.5,0.5,3,0.5,4.6c0,0.3,0,0.6,0,0.9c-0.1,0.7-0.1,0.8,0.1,0.3c-0.3-0.2-0.6-0.2-0.9,0c0.2-0.1,0.4-0.2,0.6-0.1
					c-0.1-0.3-0.2-0.6-0.4-0.8c0,0.1,0,0.2,0,0.3c0.2,1.5,2.6,1.5,2.4,0c-0.5-4.2-7.7-0.4-4,2.4c1.3,1,3.8,1.3,4.4-0.7
					c0.6-2.2,0.2-5.3-0.4-7.4c-0.4-1.5-2.7-0.9-2.3,0.6c0.3,1.1,1,4.2,0,5.1c-1,0.9-3.5,1.1-4.7,1.3c-1.2,0.2-1.8,2.1-0.3,2.4
					c0.9,0.1,1.4-0.1,2.1-0.7C140.6,349.3,138.9,347.6,137.7,348.6L137.7,348.6z"/>
			</g>
		</g>
		<g>
			<g>
				<path class="st0" d="M58.9,339.7c-0.3-0.7-0.6-1.5-0.9-2.2c-0.3-0.9-1.7-1.3-2.2-0.3c-0.2,0.5-0.4,0.9-0.6,1.4
					c0.7,0.2,1.5,0.4,2.2,0.6c0.3-3.5-0.4-7-0.4-10.5c0-4.2,1.6-6.8,3.4-10.3c3.1-5.9-1.4-10.3,0-16.3c0.4-1.9,1.5-3.5,1.7-5.6
					c0.2-3.6-1.1-6.7,0.1-10.4c0.8-2.3,2.2-3.8,2.6-6.4c0.4-3.1-0.4-6.2,0-9.3c0.2-1.3-1.6-1.5-2.2-0.6c-1.2,1.8-1.4,3.2-0.9,5.3
					c0.2,0.9,1.8,1.3,2.2,0.3c1.4-3.2,3.1-6.5,4.1-9.9c0.4-1.5,0.8-2.4-0.4-3.4c-1.2-1-2.9,0.7-1.7,1.7c0.8,0.7-3.6,9.6-4,10.4
					c0.7,0.1,1.5,0.2,2.2,0.3c0.2-1.2,0.4-2.3,0.6-3.5c-0.7-0.2-1.5-0.4-2.2-0.6c-0.5,3.4,0.7,7.1-0.2,10.5
					c-0.7,2.6-2.8,4.6-3.2,7.3c-0.3,2.5,0.8,5,0.8,7.5c0,3.2-2.4,5.6-2.6,8.7c-0.2,2.4,1.4,4.3,1.9,6.5c1.1,4.6-1.3,6.7-3.1,10.5
					c-2.6,5.5-0.4,11.9-0.9,17.7c-0.1,1.2,1.7,1.7,2.2,0.6c0.2-0.5,0.4-0.9,0.6-1.4c-0.7-0.1-1.5-0.2-2.2-0.3
					c0.4,1.5,0.4,1.4,1.1,2.8C57.6,342.2,59.6,341,58.9,339.7L58.9,339.7z"/>
			</g>
		</g>
	</g>
	<g>
		<g>
			<g>
				<path class="st1" d="M54.6,347.2c-1.4-4.1,1.5-8.5,1.2-12.7c-0.2-4.5-1.1-7.9,0.8-12.3c1.1-2.6,2.2-4.8,2.1-7.7
					c-0.1-4.2-2-7.7-0.7-11.9c0.9-2.9,2.2-5,1.9-8.2c-0.4-3.7-0.8-6.7,0.5-10.3c1.1-3,1.6-5.4,1.7-8.6c0.1-5.4,1.3-8.9,4.6-13.3
					c0.5-0.6-0.6-1.2-1-0.6c-2,2.7-4,5.4-4.7,8.7c-0.8,4.4,0,8.4-1.5,12.8c-0.9,2.5-1.8,4.8-1.6,7.4c0.2,3,1.3,5,0.4,8.1
					c-0.5,1.8-1.5,3.3-1.9,5.1c-0.8,3.8,1,7,1.1,10.8c0.1,4.3-2.9,7.5-3.5,11.6c-0.6,3.4,0.9,6.6,0.7,10c-0.2,4.1-2.7,7.3-1.3,11.4
					C53.7,348.2,54.9,347.9,54.6,347.2L54.6,347.2z"/>
			</g>
		</g>
		<g>
			<g>
				<path class="st1" d="M66.2,262.5c21.4,8.3,45.4,7.6,67.1,0.9c0.7-0.2,0.4-1.4-0.3-1.2c-21.5,6.6-45.3,7.3-66.4-0.9
					C65.8,261.1,65.5,262.2,66.2,262.5L66.2,262.5z"/>
			</g>
		</g>
		<g>
			<g>
				<path class="st1" d="M146,348.4c1.4-4.1-1.1-7.2-1.3-11.4c-0.1-3.4,1.3-6.6,0.7-10c-0.7-4.1-3.6-7.3-3.5-11.6
					c0.1-3.7,1.9-7,1.1-10.8c-0.4-1.8-1.4-3.4-1.9-5.1c-0.9-3.1,0.2-5.2,0.4-8.1c0.2-2.6-0.8-5-1.6-7.4c-1.5-4.4-0.7-8.4-1.5-12.8
					c-0.6-3.4-2.6-6.1-4.7-8.7c-0.5-0.6-1.5,0-1,0.6c3.3,4.4,4.6,7.8,4.6,13.3c0,2.9,0.5,5.2,1.4,7.9c1.4,3.9,1.3,7,0.8,11
					c-0.4,3.1,1,5.3,1.9,8.2c1.3,4.3-0.5,7.8-0.7,11.9c-0.1,2.6,0.8,4.7,1.8,7c2.1,4.9,1.4,8.1,1.1,13c-0.2,4.3,2.7,8.6,1.2,12.7
					C144.6,348.8,145.7,349.1,146,348.4L146,348.4z"/>
			</g>
		</g>
		<g>
			<g>
				<path class="st1" d="M55,348c3.5-2.8,9.6,1.1,13.7,1.4c4.2,0.3,7.9-0.9,12-1.6c5.8-1,9,2.2,14.2,3.5c3.5,0.8,6.9,0.5,10.2-0.5
					c5.8-1.7,9.9-3.5,16-0.9c3.2,1.3,6.1,2.4,9.6,2.3c1.7-0.1,3.3-0.5,5-0.9c2.6-0.7,4.7-0.4,7.4-0.9c1.7-0.3,2.4-0.1,2.8-2
					c0.2-0.8-1-1.1-1.2-0.3c-0.3,1.5-3.7,0.7-4.6,0.9c-2.2,0.4-4.3,1.1-6.5,1.6c-5.9,1.2-9.7-1.4-15.1-3c-8.1-2.3-15.2,4.5-23.5,2.6
					c-3.5-0.8-6.3-3.4-10-3.8c-3.3-0.4-6.5,0.8-9.6,1.4c-3.5,0.7-6.9,0.8-10.4-0.1c-2.1-0.5-4.1-1.7-6.2-1.9
					c-1.9-0.2-3.4,0.2-4.9,1.4C53.6,347.6,54.4,348.5,55,348L55,348z"/>
			</g>
		</g>
	</g>
	<g>
		<g>
			<path class="st2" d="M64,342c0.7-2.5,0.2-4.2-0.4-6.8c-1.1-4.7-1.1-8.4,0.5-13c0.9-2.7,2.3-5.3,2.8-8.1c0.4-2.8-0.4-4.8-1.1-7.4
				c-1.7-6.7,3.5-12.6,2.7-19.3c-0.5-4.5-1.2-7.3,0.8-11.5c0.9-1.8,1.3-2.9,1-4.9c-0.1-0.8-1.3-0.4-1.2,0.3c0.5,3.3-2.4,5.8-2.8,8.9
				c-0.2,1.9,0.4,3.7,0.7,5.5c0.8,4.7-0.3,7.8-1.7,12.1c-0.7,2.2-1.3,4.5-1.1,6.8c0.2,2.7,1.7,5,1.6,7.8c-0.1,3.5-2.1,6.9-3.2,10.2
				c-0.8,2.5-1.5,5-1.3,7.7c0.2,3.9,2.6,7.2,1.5,11.3C62.7,342.4,63.8,342.8,64,342L64,342z"/>
		</g>
	</g>
	<g>
		<g>
			<path class="st2" d="M138.8,342.2c-1.9-3.6-1-7.2-1.1-11.1c-0.1-2.6-0.9-4.8-1.8-7.3c-1.5-3.9-1.8-7.4-0.8-11.5
				c0.6-2.4,1.4-4.7,1.7-7.2c0.6-5.9-3.5-8.7-5.1-14c-1.5-4.9,0.6-9.9-2.2-14.5c-0.4-0.7-1.4-0.1-1,0.6c3,4.8,0.4,10.7,2.7,15.7
				c1.4,3.2,3.9,5.5,4.4,9.2c0.5,3.7-0.9,7.1-1.7,10.6c-1.3,5.7,0.7,9,2.2,14.5c1.4,5.2-0.7,10.6,1.9,15.5
				C138.1,343.5,139.1,342.9,138.8,342.2L138.8,342.2z"/>
		</g>
	</g>
	<g>
		<g>
			<path class="st2" d="M75.1,328.4c-3.2-4.6,1.1-9.5,0.7-14.4c-0.3-4.2-3-7.8-2.7-12.1c0.2-4.9,3.1-9.2,3.7-14.1
				c0.5-3.6,0-7.1-0.9-10.6c-0.2-0.7-1.4-0.4-1.2,0.3c1.7,6,1,11.4-1,17.2c-1.2,3.4-2.2,6.8-1.5,10.4c0.4,2.1,1.4,4,1.9,6
				c0.8,3.3,0.4,6.1-0.5,9.2c-0.9,3.1-1.3,5.9,0.6,8.6C74.5,329.6,75.5,329,75.1,328.4L75.1,328.4z"/>
		</g>
	</g>
	<g>
		<g>
			<path class="st2" d="M128.6,330.8c-5-4.6-2.6-11.2-1.9-17c0.5-4.3-0.5-7.8-1.6-11.9c-2.2-8,1.3-16.1-5.8-22.3
				c-0.6-0.5-1.4,0.3-0.8,0.8c5.5,4.7,3.9,9.7,4.4,16c0.3,4.6,2.7,8.9,2.9,13.6c0.3,7.3-4.4,15.7,2,21.6
				C128.3,332.2,129.2,331.4,128.6,330.8L128.6,330.8z"/>
		</g>
	</g>
</g>
</svg>
