<svg id="Layer_1" data-name="Layer 1" xmlns="http://www.w3.org/2000/svg" viewBox="0 0 76.61 74.65"><defs><style>.cls-1{fill:#613515;}.cls-2{fill:#602f13;}.cls-3{fill:#010101;}</style></defs><title>Brown</title><path class="cls-1" d="M75.2,88.4C67,83.1,64,68.9,65.4,59.7a.62.62,0,0,0-1.2-.3c-1.5,9.9,1.5,24.2,10.3,30a.61.61,0,1,0,.7-1Z" transform="translate(-62.32 -23)"/><path class="cls-1" d="M71.5,71.3a35.54,35.54,0,0,1,2.7-25.2c.3-.7-.7-1.3-1-.6a36.65,36.65,0,0,0-2.9,26.2c.2.7,1.3.4,1.2-.4Z" transform="translate(-62.32 -23)"/><path class="cls-2" d="M86.6,41.2a10.37,10.37,0,0,1-.4-1c-.3-.7-1.2-.2-1.1.5l.3.3c-.5-.4-1.1.3-.8.8.2-.1.5-.1.7-.2a.59.59,0,0,0-.9.5c.2.4.5.7.7,1.1.7-.3.2-1.2-.5-1.1v.8c.2-.3.5-.6.7-.9l-.3.6a.6.6,0,1,0,1.2,0v.1c.3-.1.7-.3,1-.4-.2-.2-.3-.4-.5-.6-.1.3-.3.7-.4,1,.2.2.3.4.5.6.3-.2.6-.5.9-.7h-.9c.3.2.7.4,1,.6v.1a.61.61,0,0,0,1.2-.2h-.3c.4-.1.8-.1,1.2-.2v.8a.6.6,0,0,0,1-.3,2,2,0,0,1,.8.4V42.6c-.1.3-.1.7-.2,1a.57.57,0,0,0,1,0c0-.1.1-.2.1-.3.4-.1.8-.1,1.2-.2-.2.1-.5.2-.7.3.3.2.7.4,1,.6a4.33,4.33,0,0,0-.5.1.6.6,0,0,0,1.1.3,2.7,2.7,0,0,0,.8-.7l-.8-.8c-.2.3-.3.5-.5.8a.58.58,0,0,0,1,.6c.3-.2.5-.3.8-.5a.61.61,0,0,0,.4-.9.6.6,0,0,1-.4-.1.59.59,0,0,0,1.1-.3,4.62,4.62,0,0,1-.7-.7c-.2.3-.5.6-.7.9.3-.2.5-.3.8-.5-.2.3-.4.7-.6,1,.5.1,1,.3,1.5.4.8.2,1-.9.3-1.2.2.5.5,1,.7,1.5a.57.57,0,0,0,.7-.9c-.1-.2-.3-.3-.4-.5-.5-.6-1.3.3-.8.8.1.1.1.2.2.2.1.2.4.2.6.2s.2-.1.3-.1a.55.55,0,0,0,.4-.6v-.7l-1.1.3a5.55,5.55,0,0,0,.6.8c.2.2.5.4.8.2l1-.3c0-.4-.1-.7-.1-1.1H98.4c0,.4-.1.7-.1,1.1a8.45,8.45,0,0,0,3.8-1.5.61.61,0,0,0-.5,1.1c.4.2.7.5,1.1.7.5.4,1.1-.3.8-.8l-.3-.6c-.2.3-.5.6-.7.9,1.7.4,1.2.4,2.9,0-.2-.3-.4-.7-.6-1-.3.2-.5.3-.8.5.2.3.5.6.7.9a2.09,2.09,0,0,0,.6-.4c-.1-.3-.3-.7-.4-1l-1.1.3c0,.4.1.7.1,1.1,1.6-1.3,3.1-1.5,4.5-.7.1-.4.1-.8.2-1.2-.7-.2-1.4-.4-2-.6-.1.4-.2.7-.3,1.1,1.1.1,2.2.1,3.2.2-.1-.4-.1-.8-.2-1.2-.4.1-.8.1-1.2.2-.6.1-.5.8-.1,1.1s.6.5.9.7c.2-.4.3-.7.5-1.1a7.33,7.33,0,0,1-3.5-1.2c-.1.4-.2.7-.3,1.1a21.74,21.74,0,0,1,3.6.2c1.3.2,1.6.7,3,.9.7.1,1.1-1,.3-1.2a2.66,2.66,0,0,0-2.3.1c.2.4.3.7.5,1.1l1.4-.3c-.1-.3-.3-.7-.4-1a5,5,0,0,1-1.2.2c-.6.3-.2,1.3.5,1.1.4-.1.7-.3,1.1-.4-.2-.3-.4-.7-.6-1,.2-.2.7.6,1,.3.5-.4,3.7-1.7,2.2-1.3-.2-.3-.5-.6-.7-.9.1.3.3.6.4.9-.2-.3-.4-.7-.6-1L112,41.1c.3.2.6.5.9.7.3-.1.6-.3.9-.4s.7-.3,1.1-.5L116,42c.3-.1.7-.3,1-.4v.3c.4-.2.7-.3,1.1-.5a1.76,1.76,0,0,1-.4.5c.2-.3.5-.6.7-.9l-3.3-1.5c-.6-.5-1.4.4-.8.8a7.48,7.48,0,0,0,3.8,1.8.62.62,0,0,0,.7-.9,2.09,2.09,0,0,0-.4-.6.91.91,0,0,0-.7-.3c-.2,0-.4.1-.6.1a.57.57,0,0,0-.4.7c0,.2.1.4.1.7a.43.43,0,0,0,.4.4c.2,0,.4.1.7.1a.64.64,0,0,0,.8-.6c0-.9,0-1-.7-1.6a.6.6,0,0,0-1,.3,1.21,1.21,0,0,0,.2,1.4c.4.6,1.2.2,1.1-.5-.3-1.4-.8-2.4-2.3-2.2a.55.55,0,0,0-.5.3c-.6,1.3-.3,1.8.8,2.8.3.3,1.1.1,1-.4-.2-1.5-.6-2.6-2.2-1.8-.3.1-.3.4-.3.7s.1.4.1.6a.43.43,0,0,0,.4.4,4.33,4.33,0,0,1,.5.1.57.57,0,0,0,.7-.7c-.2-1.1-.2-1-1.1-1.6a.64.64,0,0,0-.6,0c-.9.7-1,.6-.9,1.8a.68.68,0,0,0,.4.6c.3.1.5.1.8.2a.73.73,0,0,0,.6-.2c.2-.2.3-.4.5-.6a.6.6,0,0,0,0-.8c-.6-.7-.5-.7-1.4-1-.2-.1-.4,0-.6.2l-.5.5a.62.62,0,0,0-.1.7c.1.2.2.3.2.5.3.6,1.2.2,1.1-.5-.5-2.3-2.6-1.2-3.2.4-.2.5.5.9.9.7,1.4-.8,1-.4,2-1.7a.61.61,0,0,0-.6-1c-.9.2-.9.3-1.2,1.2a.57.57,0,0,0,.7.7c.9-.1.9-.1,1.4-1a.62.62,0,0,0-.7-.9c-1.2.3-2.1.5-1.9,1.9.1.4.5.8.9.5a2,2,0,0,0,1.1-1.1.63.63,0,0,0-.5-.9,8.75,8.75,0,0,0-5.4,2.5.6.6,0,0,0,.3,1,3.57,3.57,0,0,0,3.4-.9.6.6,0,0,0-.6-1c-.4.1-.7.3-1.1.4.2.4.3.7.5,1.1.1,0,.2-.1.3-.1a.55.55,0,0,0,.3-.5v-.3a.64.64,0,0,0-.8-.6c-.2,0-.4.1-.6.1a.43.43,0,0,0-.4.4c-.1.2-.1.5-.2.7-.1.4.2.7.6.8,1.4.1,1.3.2,2.3-.9a.58.58,0,0,0-.4-1,2.88,2.88,0,0,0-2,.5c-.6.3-.2,1.3.5,1.1a9.7,9.7,0,0,0,1.7-.1l.3-1.2c-.9-.1-2.4-1.4-3.5-1.6s-2.3.5-3.4.4a.59.59,0,0,0-.3,1.1,12.38,12.38,0,0,0,3.8,1.4.62.62,0,0,0,.5-1.1c-.3-.2-.6-.5-.9-.7,0,.4-.1.7-.1,1.1.4-.1.8-.1,1.2-.2.7-.1.5-1.1-.2-1.2-1.1-.1-2.2-.1-3.2-.2-.6,0-.9.9-.3,1.1a6.32,6.32,0,0,0,2.6.7c.7.1.7-.9.2-1.2-.9-.4-3.3-1-2.6.9a.57.57,0,0,0,.7.4c.7-.1.7-.3,1-.9.2-.4-.2-.8-.6-.8a6.4,6.4,0,0,0-4,1.1c-.4.3-.4,1,.1,1.1,1.4.3,1.2.4,2.2-.6a.58.58,0,0,0-.4-1h-.8a.55.55,0,0,0-.5.3c-.1.2-.2.5-.3.7a.62.62,0,0,0,.7.9,1.65,1.65,0,0,0,1.3-.8.61.61,0,0,0-.6-1h-2.2a.64.64,0,0,0-.7.9l.3.6.8-.8c-.4-.2-.7-.5-1.1-.7-.2.4-.3.7-.5,1.1.1,0,.2.1.3.1a.57.57,0,0,0,.7-.4c.1-.1.1-.3.2-.4a.67.67,0,0,0-.3-.7c-1.4-.8-3.3.2-4.8.6-.5.1-.5.8-.1,1.1a2.48,2.48,0,0,0,3.4,0c.4-.3.4-1-.1-1.1,0,0-1.7-.2-1.8-.2-.3-.4-1.1-.3-1.1.3.2.1.3.1.5.2l-.8.8c.1.2.3.3.4.5.2-.3.5-.6.7-.9-.4-.2-.9-.4-1.3-.6s-.7-.1-.8.2a.1.1,0,0,1-.1.1c-.2.4,0,.7.4.9.1,0,.1,0,.2.1l.3-1.2c-.5-.1-1-.3-1.5-.4a.62.62,0,0,0-.6,1c.7.7.7.7,1.7.5a.64.64,0,0,0,.3-1,2.47,2.47,0,0,0-1.6-1,.62.62,0,0,0-.7.9c.6.8.6.9,1.6,1.1a.57.57,0,0,0,.7-.4,1.51,1.51,0,0,0-.1-1.7.78.78,0,0,0-.7-.3c-.2.1-.4.1-.6.2a.55.55,0,0,0-.4.6v.5l1.1-.3c-.1-.1-.2-.3-.3-.4a.91.91,0,0,0-.7-.3c-.2,0-.3.1-.5.1a.43.43,0,0,0-.4.4c-.3,1.3,0,.4-.9,1.6.3.2.7.4,1,.6.2-.3.3-.5.5-.8a.59.59,0,0,0-.8-.8c-.8.4-.7.4-1.3,1.1l1.1.3c0-.3-.1-.5-.1-.8a.64.64,0,0,0-.8-.6c-.6.2-.7.3-1,.9s.6,1,1,.6c.2-.2.4-.5.6-.7a.52.52,0,0,0,0-.8,4.35,4.35,0,0,0-.7-.6.61.61,0,0,0-.8,0,1.38,1.38,0,0,1-.4.3,1.07,1.07,0,0,0-.2.6c.1.2.1.3.2.5.2.7,1.1.5,1.2-.2v-.5a.55.55,0,0,0-.3-.5c-1-.5-1.6-.2-1.3.3a.78.78,0,0,0-.7-.3c-.2,0-.3.1-.5.1a.7.7,0,0,0-.4.9c.1.1.1.2.2.3a.78.78,0,0,0,.7.3c.1,0,.2-.1.4-.1a.63.63,0,0,0,0-1.2,3,3,0,0,0-1.8-.2.43.43,0,0,0-.4.4c.1-.2.2-.5.3-.7a.62.62,0,0,0-.7-.1,1,1,0,0,0,.3,2c.4.1.9-.3.7-.7a2.35,2.35,0,0,1-.2-.8.57.57,0,0,0-.7-.4c-.1,0-.2.1-.3.1a.57.57,0,0,0-.4.7v.3c.1.7,1.2.5,1.2-.2s0-.9-.7-1.4a.64.64,0,0,0-.6,0c-.7.4-.7.5-.8,1.3.4-.1.8-.1,1.2-.2-.4-1.5-1.8-1.4-2.4-.1-.2.6.6.9,1,.6.2-.2.4-.3.6-.5.4-.3.1-.9-.3-1-.8-.3-.8-.3-1.5.2a.57.57,0,0,0,0,1c.2.1.5.3.7.4a.67.67,0,0,0,.9-.7c-.3-1.1-.3-1.1-1.4-1.3-.4-.1-.9.3-.7.7.3.8.3.9,1.1,1.2.3.1.7-.1.7-.4.2-1-.3-1.7-1.4-1.6a.58.58,0,0,0-.4,1c.2.2.3.4.5.6a.58.58,0,0,0,1-.4c.3-.1.3-.1-.5-.7a.85.85,0,0,0-.7,0c-.9.5-.9.5-1,1.5h1.2v-.8a.55.55,0,0,0-.3-.5c-.2-.1-.5-.2-.7-.3s-.6-.1-.7.1c-.7.9-.6,1.7.5,2.1.5.2.9-.5.7-.9a2.19,2.19,0,0,0-.3-.5.55.55,0,0,0-.5-.3h-.6a.82.82,0,0,0-.6.4c-.2.9.3,1.5,1.3,1.3-.2-.4-.3-.7-.5-1.1-.1.1-.3.1-.4.2a.55.55,0,0,0-.3.5v.5a.59.59,0,0,0,.9.5c1.2-.9.9-.5.2-1.1a.63.63,0,0,0,.6,0c.1-.1.2-.1.3-.2a.54.54,0,0,0,.2-.8l-.3-.6-.8.8a1.38,1.38,0,0,0,.4.3.64.64,0,0,0,.6,0c.1-.1.3-.2.4-.3a.78.78,0,0,0,.3-.7c-.1-.3-.1-.7-.2-1-.4.2-.7.3-1.1.5a10.37,10.37,0,0,1,.4,1c.3.7,1.4.1,1-.6Z" transform="translate(-62.32 -23)"/><path class="cls-2" d="M106.4,42.8a3.59,3.59,0,0,0,1-.7c-.3-.1-.7-.3-1-.4,0-.2-.3.1-.3.1s-.3.2-.4.3a1.62,1.62,0,0,0-.5.9.62.62,0,0,0,1.2.3.52.52,0,0,1,.2-.4c.6-.5,0-1.5-.6-1a1.78,1.78,0,0,0-.8,1.1l1.2.3c.1-.4.4-.5.7-.7a1.05,1.05,0,0,0,.5-.9c.1-.6-.7-.7-1-.4a2.18,2.18,0,0,1-.8.5c-.7.3-.1,1.3.6,1Z" transform="translate(-62.32 -23)"/><path class="cls-2" d="M80,37.1a1.45,1.45,0,0,1-.7.2l1.8,1.8a4.87,4.87,0,0,1,2.3-2.4,16,16,0,0,0-2.1-.5c.3-1,.2-1.3-.2-.7l-.3.3-1,1c-.7.6-1.3,1.2-2,1.8l2.4.3c0-.1-.1-.1-.1-.2.1.4.1.8.2,1.2.1-.4.9-1,1.2-1.2.5-.4,1-.8,1.6-1.2-.7-.3-1.5-.6-2.2-.9-.1-.5-.4.2-.5.4a6.47,6.47,0,0,1-.8.9,12.88,12.88,0,0,1-1.7,1.6l2.4,1.8a8.83,8.83,0,0,1,2.1-2.2L80,37.3a10.65,10.65,0,0,1-1.9,2.8c-1.3,1.4.8,3.6,2.1,2.1a16.09,16.09,0,0,0,2.4-3.4A1.51,1.51,0,0,0,80.2,37a13.94,13.94,0,0,0-2.6,2.8c-1,1.5,1.1,2.8,2.4,1.8,1.7-1.3,4.2-3.4,3.8-5.7a1.47,1.47,0,0,0-2.2-.9c-1.4.9-5.4,3.5-3.8,5.5a1.57,1.57,0,0,0,2.4.3c1.1-.9,2.2-1.9,3.2-2.9.8-.8,1.6-1.9.9-3.1a1.58,1.58,0,0,0-2.1-.5,7.43,7.43,0,0,0-3.7,4.1c-.5,1.1.8,2.1,1.8,1.8a7.84,7.84,0,0,0,1.4-.5c1.5-.9,0-3.5-1.7-2.6Z" transform="translate(-62.32 -23)"/><path class="cls-2" d="M70.2,64.6V60.7a3,3,0,0,0-3-3,3.08,3.08,0,0,0-3,3v3.9a3,3,0,0,0,6,0Z" transform="translate(-62.32 -23)"/><path class="cls-2" d="M78.9,89.4l.6.3a.58.58,0,0,0,.6-1A3.84,3.84,0,0,1,79,87.6l-.8.8.7.7.8-.8c-.3-.3-.7-.6-1-.9-.2.3-.5.6-.7.9.2.2.4.3.6.5.6.5,1.2-.6.6-1-.4-.4-.7-.8-1.1-1.2-.3.2-.6.5-.9.7a2.65,2.65,0,0,0,.6.5c.2-.3.5-.6.7-.9-.7-.5-1.4-1-2.1-1.6-.6-.4-1.1.5-.7.9a9.27,9.27,0,0,0,1.4,1.4c.6.5,1.4-.3.8-.8-.7-.7-1.3-1.4-1.9-2.1l-.8.8a18.48,18.48,0,0,1,1.4,1.4c.4.5,1.3-.2.9-.7l-1.8-2.4c-.3.2-.6.5-.9.7a16.61,16.61,0,0,0,1.3,1.4l.8-.8c-.5-.5-1-.9-1.5-1.4a.57.57,0,0,0-.8.8c.9,1,1.8,2.1,2.6,3.1l.8-.8c-.5-.5-1-1-1.5-1.6-.2.3-.5.6-.7.9a2.94,2.94,0,0,1,1.2,1l.8-.8-.8-.8-.8.8c.2.2.4.3.6.5.6.5,1.4-.3.8-.8-1.2-1.1-2.4-2.2-3.6-3.4-.2.3-.5.6-.7.9.2.3.5.5.7.8.3-.2.6-.5.9-.7a11.22,11.22,0,0,1-1.6-2.2c-.3.2-.7.4-1,.6a11.8,11.8,0,0,0,1.3,1.8.57.57,0,0,0,.9-.7L73,80.7a.58.58,0,0,0-1,.6l1.5,2.4c.3-.2.7-.4,1-.6-.5-.8-1-1.6-1.4-2.4-.3.2-.7.4-1,.6.6.8,1.1,1.6,1.7,2.4l.8-.8-.3-.3c-.3.2-.6.5-.9.7a9,9,0,0,1,.9,1c.4.5,1.4-.2.9-.7-.3-.5-.7-.9-1-1.4l-.8.8c.2.3.5.5.7.8.4-.2.7-.3,1.1-.5a32.89,32.89,0,0,1-2.8-4.4c-.3.2-.7.4-1,.6.6.9,1.2,1.7,1.8,2.6.4.6,1.5.1,1-.6s-.8-1.3-1.2-1.9c-.3.2-.6.5-.9.7,0,.1.1.1.1.2.4-.2.7-.3,1.1-.5-.3-.5-.6-1-.9-1.4a.58.58,0,0,0-1,.6c.5.9,1.1,1.8,1.6,2.7.3-.2.7-.4,1-.6a11.51,11.51,0,0,1-1.2-2.5c-.4.2-.7.3-1.1.5.1.3.2.5.3.8.1.8,1.3.4,1.2-.3a1.82,1.82,0,0,0-.4-1.1.61.61,0,0,0-1.1.5A14.25,14.25,0,0,0,73,82a.58.58,0,1,0,1-.6c-.5-.9-1.1-1.8-1.6-2.7-.3.2-.7.4-1,.6.3.5.6,1,.9,1.4a.61.61,0,0,0,1.1-.5,1.61,1.61,0,0,0-.4-.7.57.57,0,0,0-.9.7c.4.6.8,1.3,1.2,1.9.3-.2.7-.4,1-.6-.6-.9-1.2-1.7-1.8-2.6a.58.58,0,0,0-1,.6,40.81,40.81,0,0,0,2.8,4.4.61.61,0,0,0,1.1-.5,1.83,1.83,0,0,0-1.3-1.5c-.5-.2-1.2.3-.8.8s.7.9,1,1.4c.3-.2.6-.5.9-.7a9,9,0,0,0-.9-1c-.5-.5-1.3.2-.9.7a2.7,2.7,0,0,0,.7.8.57.57,0,0,0,.8-.8c-.6-.8-1.1-1.6-1.7-2.4a.58.58,0,0,0-1,.6c.4.8.9,1.6,1.4,2.4a.58.58,0,0,0,1-.6l-1.5-2.4c-.3.2-.7.4-1,.6l1.5,2.4c.3-.2.6-.5.9-.7a9.06,9.06,0,0,1-1.1-1.6.58.58,0,1,0-1,.6,14.37,14.37,0,0,0,1.8,2.5.57.57,0,0,0,.9-.7A2.58,2.58,0,0,0,74,82.6a.57.57,0,0,0-.7.9c1.2,1.1,2.4,2.3,3.6,3.4l.8-.8c-.2-.2-.4-.3-.6-.5-.6-.5-1.4.3-.8.8l.8.8c.5.5,1.4-.3.8-.8a14.93,14.93,0,0,0-1.4-1.2.57.57,0,0,0-.7.9c.5.5,1,1,1.5,1.6s1.3-.3.8-.8c-.9-1-1.8-2.1-2.6-3.1l-.8.8c.5.5,1,.9,1.5,1.4s1.4-.3.8-.8a16.61,16.61,0,0,0-1.3-1.4c-.5-.5-1.4.2-.9.7l1.8,2.4c.3-.2.6-.5.9-.7a9.27,9.27,0,0,0-1.4-1.4.57.57,0,0,0-.8.8c.6.7,1.2,1.4,1.9,2.1l.8-.8-1.4-1.4c-.2.3-.5.6-.7.9.7.5,1.4,1,2.1,1.6.5.4,1.2-.5.7-.9a2.65,2.65,0,0,0-.6-.5c-.5-.4-1.4.1-.9.7a6.09,6.09,0,0,0,1.6,1.6c.2-.3.4-.7.6-1-.2-.2-.4-.3-.6-.5-.5-.4-1.2.5-.7.9.3.3.7.6,1,.9.6.5,1.4-.3.8-.8l-.7-.7c-.6-.6-1.3.3-.8.8a4.89,4.89,0,0,0,1.3,1.2c.2-.3.4-.7.6-1l-.6-.3c-.8-.4-1.4.6-.8,1Z" transform="translate(-62.32 -23)"/><path class="cls-2" d="M77.1,84.9A24.43,24.43,0,0,1,74.4,82c-.2.3-.5.6-.7.9A5.73,5.73,0,0,1,74.8,84c.2-.3.5-.6.7-.9a7.27,7.27,0,0,1-.9-.8c-.5-.6-1.3.3-.8.8a34.49,34.49,0,0,0,5,5.1c.6.5,1.4-.3.8-.8a48.06,48.06,0,0,1-5-5.1l-.8.8a5.8,5.8,0,0,0,1.2,1,.57.57,0,0,0,.7-.9,8.64,8.64,0,0,0-1.4-1.3c-.6-.4-1.1.5-.7.9.9,1,1.8,2,2.7,2.9.5.6,1.3-.2.8-.8Z" transform="translate(-62.32 -23)"/><path class="cls-2" d="M81.8,90.1c-.5-.2-1.1-.4-1.6-.6-.2.3-.4.7-.6,1,.5.2,1,.5,1.6.7a.58.58,0,0,0,.6-1c-.5-.3-1-.7-1.5-1-.2.4-.3.7-.5,1.1l1.8.6c.7.3,1-.7.5-1.1a16.44,16.44,0,0,0-2.2-1.4c-.2.3-.4.7-.6,1,.6.3,1.3.7,1.9,1,.2-.3.4-.7.6-1-.9-.4-1.8-.9-2.7-1.3-.1.4-.2.7-.3,1.1l1.1.3a.61.61,0,0,0,.6-1,15.38,15.38,0,0,0-1.3-1.2l-.8.8a21.39,21.39,0,0,0,3.9,2.8c.2-.4.3-.7.5-1.1-.4-.1-.7-.1-1.1-.2-.7-.1-1.1.7-.5,1.1a12.68,12.68,0,0,0,2.3,1.2c.6.2,1.1-.8.5-1.1-.4-.2-.7-.3-1.1-.5-.2.4-.3.7-.5,1.1a33.82,33.82,0,0,1,3.4,1.1l.3-1.2a4.07,4.07,0,0,1-1.8-.5L84,92l1.8.6c.1-.4.1-.8.2-1.2-.3-.1-.5-.1-.8-.2-.1.4-.1.8-.2,1.2a5.29,5.29,0,0,1,3.5,2.8l.7-.7a11.72,11.72,0,0,1-2.4-.9c-.7-.3-1.3.7-.6,1,.3.1.5.3.8.4.2-.3.4-.7.6-1-.7-.3-1.4-.7-2.1-1-.2.4-.3.7-.5,1.1.6.2,1.2.4,1.9.6l.3-1.2a4.87,4.87,0,0,1-1.1-.4c-.1.4-.1.8-.2,1.2.3,0,.7.1,1,.1.7.1.8-1,.2-1.2a2.66,2.66,0,0,0-1.2-.3l-.3,1.2c.3,0,.6.1.9.1a.62.62,0,0,0,.3-1.2c-.3-.1-.7-.2-1-.3l-.3,1.2c.5.2,1.1.3,1.6.5a.61.61,0,0,0,.5-1.1c-.2-.1-.3-.2-.5-.3-.2.4-.3.7-.5,1.1.2,0,.3.1.5.1l.3-1.2a20,20,0,0,1-3.5-.9l-.3,1.2c.3.1.7.1,1,.2a.62.62,0,1,0,.3-1.2,11.42,11.42,0,0,1-2.6-.9c-.2.4-.3.7-.5,1.1a2.72,2.72,0,0,1,1.7.8c.1-.4.2-.7.3-1.1-.4,0-.7-.1-1.1-.1-.8-.2-1,.9-.3,1.2.4.2.9.5,1.3.7.5.4,1.1-.3.8-.8a8.2,8.2,0,0,0-1.7-2c-.2.3-.5.6-.7.9,1,.4,2,.8,3,1.3.7.3,1.3-.7.6-1-.5-.3-1-.5-1.5-.8-.2.4-.3.7-.5,1.1a13.69,13.69,0,0,1,3.6,1.9c.2-.3.4-.7.6-1-1.9-1.2-3.9-2.4-5.8-3.7a.58.58,0,0,0-.6,1c.5.3,1,.7,1.5,1,.2-.4.3-.7.5-1.1a7.09,7.09,0,0,1-2.8-.9c-.7-.3-1.3.7-.6,1a6.47,6.47,0,0,0,.9.8c.2-.3.5-.6.7-.9-.2-.1-.5-.1-.7-.2a.62.62,0,0,0-.6,1l.9.9c.1-.3.3-.7.4-1l-1.4-.3c-.1.4-.1.8-.2,1.2.2.1.3.1.5.2v-1h-.2c-.2.4-.3.7-.5,1.1.4.2.9.3,1.3.5,0-.3-.1-.6-.1-.9-.1.1-.2.1-.4.2.1.4.2.7.3,1.1h.4a.58.58,0,0,0,.6-1c-1.2-.8-2.3-1.7-3.4-2.6-.2.3-.5.6-.7.9.5.3,1.1.7,1.6,1,.2-.3.4-.7.6-1a14.29,14.29,0,0,1-2-1.4c-.2.3-.4.7-.6,1a5.24,5.24,0,0,1,1.8,1c.2-.3.4-.7.6-1-.9-.5-1.8-.9-2.7-1.4a.57.57,0,0,0-.7.9,15.37,15.37,0,0,0,1.9,1.7c.2-.3.4-.7.6-1l-1.8-1.2c-.6-.4-1.3.5-.7.9a10.38,10.38,0,0,0,1.7,1.2.57.57,0,0,0,.7-.9c-.7-.8-1.5-1.5-2.2-2.3-.2.3-.5.6-.7.9.8.6,1.7,1.2,2.5,1.8.5.4,1.3-.5.7-.9l-2.9-2.3c-.6-.5-1.4.3-.8.8a34.68,34.68,0,0,0,3.7,3c.2-.3.4-.7.6-1-.3-.1-.5-.2-.8-.3-.6-.2-1.3.5-.7.9.2.2.5.4.7.6.1-.3.3-.7.4-1a.6.6,0,0,1-.4-.1c-.6-.1-.8.8-.3,1.1V92c.3-.2.7-.4,1-.6l-2.9-2.6c-.2.3-.5.6-.7.9a9.5,9.5,0,0,1,1.7,1c.6.3,1.3-.5.7-.9a26.82,26.82,0,0,1-3-2.8c-.2.3-.5.6-.7.9.8.5,1.7,1,2.5,1.6a.57.57,0,0,0,.7-.9L75.1,86c-.2.3-.5.6-.7.9a19.23,19.23,0,0,1,3.1,1.8.57.57,0,0,0,.7-.9,15.67,15.67,0,0,0-2.5-2c-.6-.4-1.3.5-.7.9l3,2.4c.6.5,1.4-.3.8-.8a5.6,5.6,0,0,0-2.1-1.6.57.57,0,0,0-.7.9c.9,1.1,1.9,2.1,2.9,3.1l.8-.8-1.5-1.2c-.2.3-.5.6-.7.9a2.62,2.62,0,0,0,.9.5c.5.2,1.2-.3.8-.8-.1-.1-.2-.3-.3-.4l-.8.8a3.75,3.75,0,0,0,1.2.7c.5.2,1.2-.3.8-.8s-.7-1-1-1.5c-.3.2-.6.5-.9.7a5.73,5.73,0,0,1,1.1,1.1c.5.6,1.3-.3.8-.8A5.73,5.73,0,0,0,79,88c-.5-.4-1.3.1-.9.7s.7,1,1,1.5l.8-.8a3.46,3.46,0,0,1-1.2-.7c-.5-.3-1.2.3-.8.8.1.1.2.3.3.4l.8-.8a4.05,4.05,0,0,1-.9-.5c-.5-.4-1.3.5-.7.9l1.5,1.2c.6.5,1.4-.3.8-.8-1-1-2-2-2.9-3.1-.2.3-.5.6-.7.9a2.83,2.83,0,0,1,1.8,1.4l.8-.8-3-2.4c-.2.3-.5.6-.7.9a9.62,9.62,0,0,1,2.2,1.8c.2-.3.5-.6.7-.9a19.24,19.24,0,0,0-3.1-1.8c-.6-.3-1.3.5-.7.9L77,89.4c.2-.3.5-.6.7-.9-.8-.5-1.7-1-2.5-1.6a.57.57,0,0,0-.7.9,39.74,39.74,0,0,0,3,2.8c.2-.3.5-.6.7-.9a9.5,9.5,0,0,1-1.7-1c-.6-.3-1.2.5-.7.9,1,.9,1.9,1.8,2.9,2.6a.61.61,0,0,0,1-.6.87.87,0,0,0-.6-.8c-.1.4-.2.7-.3,1.1a.6.6,0,0,1,.4.1c.5.1.8-.7.4-1-.2-.2-.5-.4-.7-.6-.2.3-.5.6-.7.9.3.1.5.2.8.3a.58.58,0,0,0,.6-1c-1.2-.9-2.3-1.8-3.4-2.8l-.8.8,2.9,2.3c.2-.3.5-.6.7-.9-.8-.6-1.7-1.2-2.5-1.8a.57.57,0,0,0-.7.9c.7.8,1.5,1.5,2.2,2.3.2-.3.5-.6.7-.9-.5-.3-.9-.7-1.4-1-.2.3-.5.6-.7.9l1.8,1.2a.58.58,0,0,0,.6-1,5.72,5.72,0,0,1-1.6-1.5c-.2.3-.5.6-.7.9.9.5,1.8.9,2.7,1.4a.58.58,0,0,0,.6-1,14.32,14.32,0,0,0-2.1-1.2c-.5-.2-1,.6-.6,1a17.68,17.68,0,0,0,2.2,1.6.58.58,0,1,0,.6-1c-.5-.3-1.1-.7-1.6-1s-1.3.5-.7.9a42.2,42.2,0,0,0,3.6,2.7c.2-.3.4-.7.6-1-.7-.4-.8-.4-1.6,0a.59.59,0,0,0,.3,1.1,1.35,1.35,0,0,0,1.2-.5c.2-.3.2-.8-.1-.9a7.58,7.58,0,0,0-1.6-.6.61.61,0,0,0-.5,1.1,1,1,0,0,0,1.4,0,.61.61,0,0,0,0-1,2.1,2.1,0,0,0-1.1-.4.62.62,0,0,0-.2,1.2,10.11,10.11,0,0,0,1.7.3c.5.1.8-.7.4-1l-.9-.9c-.2.3-.4.7-.6,1,.2.1.5.1.7.2a.64.64,0,0,0,.7-.9c-.5-.9-.4-.8-1.3-1.3-.2.3-.4.7-.6,1a10.25,10.25,0,0,0,3.1,1,.62.62,0,0,0,.5-1.1c-.5-.3-1-.7-1.5-1-.2.3-.4.7-.6,1,1.9,1.2,3.9,2.4,5.8,3.7a.58.58,0,0,0,.6-1,12,12,0,0,0-3.9-2c-.6-.2-1.1.8-.5,1.1s1,.5,1.5.8c.2-.3.4-.7.6-1-1-.4-2-.8-3-1.3-.6-.2-1.3.4-.7.9a9.34,9.34,0,0,1,1.6,1.8l.8-.8a5.07,5.07,0,0,0-1.6-.9l-.3,1.2a2.25,2.25,0,0,0,1.4.1.6.6,0,0,0,.3-1.1,5.15,5.15,0,0,0-2-.9c-.6-.1-1.1.8-.5,1.1a16.62,16.62,0,0,0,2.9,1l.3-1.2c-.3-.1-.7-.1-1-.2a.62.62,0,1,0-.3,1.2,22.51,22.51,0,0,0,3.5.9.62.62,0,0,0,.3-1.2c-.2,0-.3-.1-.5-.1a.61.61,0,0,0-.5,1.1c.2.1.3.2.5.3.2-.4.3-.7.5-1.1-.2.2-.7,0-1.2-.1-.7-.2-1,.9-.3,1.2.3.1.7.2,1,.3l.3-1.2c-.3,0-.6-.1-.9-.1-.7-.1-1.1,1-.3,1.2l1.2.3c.1-.4.1-.8.2-1.2-.3,0-.7-.1-1-.1-.7-.1-.8,1-.2,1.2a4.87,4.87,0,0,1,1.1.4.62.62,0,0,0,.3-1.2c-.6-.2-1.2-.4-1.9-.6s-1.1.8-.5,1.1,1.4.7,2.1,1,1.3-.7.6-1c-.3-.1-.5-.3-.8-.4-.2.3-.4.7-.6,1A21.76,21.76,0,0,0,89,96c.4.1.9-.3.7-.7-.6-2.3-2.3-3.4-4.6-3.7-.7-.1-.7,1-.2,1.2A2,2,0,0,0,86,93a.62.62,0,0,0,.2-1.2l-1.8-.6c-.7-.2-1,.9-.3,1.2a6.07,6.07,0,0,0,1.8.5.62.62,0,0,0,.3-1.2c-1.1-.4-2.3-.8-3.4-1.1-.6-.2-1.1.8-.5,1.1.4.2.7.3,1.1.5.2-.4.3-.7.5-1.1a7.5,7.5,0,0,1-2-1c-.2.4-.3.7-.5,1.1.4.1.7.1,1.1.2.6.1,1.1-.7.5-1.1a31.76,31.76,0,0,1-3.7-2.7c-.6-.5-1.4.3-.8.8a15.38,15.38,0,0,0,1.3,1.2c.2-.3.4-.7.6-1a2.23,2.23,0,0,0-1.4-.3c-.6-.1-.8.9-.3,1.1.9.4,1.8.9,2.7,1.3.7.3,1.3-.7.6-1s-1.3-.7-1.9-1-1.3.7-.6,1a16.44,16.44,0,0,1,2.2,1.4c.2-.4.3-.7.5-1.1a6.36,6.36,0,0,0-1.8-.6.61.61,0,0,0-.5,1.1c.5.3,1,.7,1.5,1,.2-.3.4-.7.6-1-.5-.2-1-.5-1.6-.7s-1.3.7-.6,1a6.19,6.19,0,0,0,1.9.7c.5-.1.8-1.2.1-1.4Z" transform="translate(-62.32 -23)"/><path class="cls-2" d="M122,90.5A46.23,46.23,0,0,0,111.1,94c.3.2.6.3.9.5,0-.5,4.8-2.1,5.5-2.6s.2-1.2-.5-1.1-.8.1-1.3.7a.61.61,0,0,0,.6,1,8.21,8.21,0,0,0,3.5-2,.57.57,0,0,0-.7-.9,11.4,11.4,0,0,1-1.9,1c.2.3.4.7.6,1a25.43,25.43,0,0,0,2.8-1.6.61.61,0,0,0-.5-1.1,3,3,0,0,0-1.7,1c-.5.5.2,1.4.7.9a32.7,32.7,0,0,0,9.7-11.2c.4-.7-.7-1.3-1-.6a30.88,30.88,0,0,1-9.2,10.8c.2.3.5.6.7.9.4-.2.8-.5,1.2-.7-.2-.4-.3-.7-.5-1.1a11.24,11.24,0,0,1-2.8,1.6c-.7.3-.1,1.4.6,1a11.4,11.4,0,0,0,1.9-1c-.2-.3-.5-.6-.7-.9a6.57,6.57,0,0,1-2.9,1.7c.2.3.4.7.6,1,.3-.1.5-.3.8-.4-.2-.4-.3-.7-.5-1.1-1.4,1-2.4,1-4.1,1.4a4.51,4.51,0,0,0-1.1.3c-.9.6-.9.9-.9,1.9a.59.59,0,0,0,.9.5,43.49,43.49,0,0,1,10.6-3.3c.7-.1.3-1.2-.4-1.1Z" transform="translate(-62.32 -23)"/><path class="cls-2" d="M120.9,92.7c.3-.5.7-.9,1-1.4-.3-.1-.7-.3-1-.4a9.29,9.29,0,0,1-.4,1.3l1.1.3c.2-.6.5-1.2.7-1.8-.3-.2-.6-.5-.9-.7l-1.6,1.9a3.55,3.55,0,0,1,.9.4c-.8-.2-1.6-.3-2.4-.5a.56.56,0,0,0-.9-.1,4.94,4.94,0,0,1-3.2,1.8l.3,1.2c0-.7-.3-1.1-1-1,.1.3.2.7.3,1-.4.5,4.8-.1,4.1-.2.6.1.8-.9.3-1.1-.2-.1-.5-.2-.7-.3-.2.4-.3.7-.5,1.1l2.4.3c.6.1,1.1-.8.5-1.1l-.6-.3c-.2.4-.3.7-.5,1.1.5.2,1.1.4,1.6.6-.1-.3-.2-.7-.3-1,.6-.1,1.2-.3,1.8-.4-.3-.1-.7-.2-1-.3.1.3.1.7.2,1,.1.7,1.2.5,1.2-.2.1-.2.1-.4.2-.6-.3-.2-.7-.4-1-.6a9.29,9.29,0,0,0-.5,1c.4.2.7.3,1.1.5-.3.1-.6.2-1,.3.3.1.7.3,1,.4.4-1,.9-2.1,1.3-3.1-.3-.2-.7-.4-1-.6-.2.6-.5,1.2-.7,1.8.4,0,.7.1,1.1.1a6.66,6.66,0,0,1-.2-2.8.59.59,0,0,0-.9-.5,12.78,12.78,0,0,1-2.1,1.4c.3.2.6.3.9.5.1-.3.3-.6.4-.9-.3-.1-.7-.2-1-.3h.1c0,.3-.1.6-.1.9.2,0,.3-.1.5-.1-.1-.3-.3-.7-.4-1-.3.2-.5.5-.8.7.3.1.7.3,1,.4.7-.5,1.4-1.1,2-1.6-.2-.3-.4-.5-.6-.8-.2.4-.5.8-.7,1.2.3.1.7.3,1,.4.6-.8,1.1-1.7,1.7-2.5l-.8-.8a8.45,8.45,0,0,1-2.4,3.2c.3.2.7.4,1,.6a3.9,3.9,0,0,1,2.5-3.2l-.8-.8a6.6,6.6,0,0,1-1.7,2.4c.3.2.7.4,1,.6.7-.9,1.3-1.8,2-2.6-.3-.2-.6-.5-.9-.7a8.58,8.58,0,0,1-1.8,3.4c.3.2.7.4,1,.6a8.69,8.69,0,0,1,3.1-4.4c-.3-.2-.7-.4-1-.6a9,9,0,0,1-2.4,4.5c.3.2.7.4,1,.6a13,13,0,0,1,2.8-5c-.3-.2-.7-.4-1-.6a8.77,8.77,0,0,1-1.4,3.8c.4.2.7.3,1.1.5a15.76,15.76,0,0,1,1.6-3.5c-.4-.2-.7-.3-1.1-.5a14.82,14.82,0,0,1-2.1,3.7c.4.2.7.3,1.1.5a22.53,22.53,0,0,1,2.5-4.6c-.4-.2-.7-.3-1.1-.5a15,15,0,0,1-2.2,3.9c.3.2.7.4,1,.6.3-.3.6-.7.9-1-.3-.1-.7-.3-1-.4.2,2.6-.8,4.4-2.2,6.5-.3.4.2,1,.7.9a6.38,6.38,0,0,0,2.8-1.5l-.8-.8-1.5,1.2c.2.3.5.6.7.9.8-1,1.6-2,2.5-3,.5-.6-.3-1.4-.8-.8a16.61,16.61,0,0,1-1.3,1.4c.3.2.6.5.9.7l1.6-1.9c-.2-.3-.5-.6-.7-.9a31.67,31.67,0,0,0-4.6,5.1c.3.2.7.4,1,.6,1.1-1.7,2.2-3.3,3.4-5-.4-.2-.7-.3-1.1-.5a8.24,8.24,0,0,1-1.5,3.3c.3.2.7.4,1,.6.4-.7.8-1.5,1.2-2.2a.58.58,0,1,0-1-.6c-.3.3-.6.7-.9,1,.3.2.7.4,1,.6a33.19,33.19,0,0,1,2.9-6l-1.1-.3-.9,3c.4.2.7.3,1.1.5.2-1.1.5-2.3.7-3.4.1-.6-.8-1.1-1.1-.5-.8,1.6-1.6,3.2-2.5,4.7l1.1.3a9.63,9.63,0,0,1,1.7-4.9c-.4-.2-.7-.3-1.1-.5a11,11,0,0,1-2,3.5c.4.2.7.3,1.1.5a15,15,0,0,1,2.8-5.3c-.4-.2-.7-.3-1.1-.5a8.67,8.67,0,0,1-1.4,2.7c.4.2.7.3,1.1.5a6.36,6.36,0,0,1,1.4-3.4c-.3-.2-.7-.4-1-.6a5,5,0,0,1-1.8,2.7c.3.2.7.4,1,.6a12.76,12.76,0,0,1,1.9-4.1c-.4-.2-.7-.3-1.1-.5a7.25,7.25,0,0,1-1.5,2.5c.3.2.7.4,1,.6a11.55,11.55,0,0,1,2.1-3.3c-.3-.2-.6-.5-.9-.7a30,30,0,0,1-2.2,3.9l1.1.3a6.75,6.75,0,0,0,.2-1.4l-1.2-.3c-.4.8-.8,1.5-1.2,2.3.3.2.7.4,1,.6.4-.7.7-1.3,1.1-2-.3-.2-.6-.5-.9-.7-.6.6-1.1,1.2-1.7,1.8.2.3.5.6.7.9a5,5,0,0,1,2.4-1.9c-.3-.2-.6-.3-.9-.5a18.41,18.41,0,0,1-.3,3.3.62.62,0,0,0,1.2.3,8.72,8.72,0,0,1,1.8-3.1c-.3-.2-.7-.4-1-.6a22.72,22.72,0,0,1-2.5,5.5c.3.2.7.4,1,.6a20,20,0,0,1,2.7-4.4c-.3-.2-.7-.4-1-.6a6.57,6.57,0,0,1-1.4,3.2.57.57,0,0,0,.9.7l1.5-1.5c-.3-.2-.6-.5-.9-.7a14.52,14.52,0,0,1-1.9,2.9c.3.2.6.5.9.7a6.23,6.23,0,0,1,1.5-2.1c-.3-.2-.6-.5-.9-.7a13.44,13.44,0,0,1-1.2,2.4.58.58,0,0,0,1,.6c.2-.3.5-.7.7-1-.4-.2-.7-.3-1.1-.5l-.6,1.5c.3.2.7.4,1,.6a9.51,9.51,0,0,1,2-2.8c-.3-.2-.7-.4-1-.6-.3.6-.7,1.3-1,1.9.3.2.7.4,1,.6a48.76,48.76,0,0,1,3.4-5.8c-.3-.2-.7-.4-1-.6-.4.5-.7,1.1-1.1,1.6s.4,1.4.8.8a7.49,7.49,0,0,0,1.3-1.8.58.58,0,0,0-1-.6,36.77,36.77,0,0,0-3.4,5.8.58.58,0,0,0,1,.6,4.59,4.59,0,0,0,1.1-2.2.61.61,0,0,0-1-.6A13.43,13.43,0,0,0,126,91a.58.58,0,0,0,1,.6c.7-.9.5-.6.7-1.7a.62.62,0,0,0-1.1-.5c-.2.3-.5.7-.7,1,.3.2.7.4,1,.6a10.78,10.78,0,0,0,1.2-2.4.57.57,0,0,0-.9-.7,8.62,8.62,0,0,0-1.7,2.4c-.3.6.5,1.3.9.7a17.68,17.68,0,0,0,2.1-3.2.57.57,0,0,0-.9-.7,5.36,5.36,0,0,0-1.5,1.5c.3.2.6.5.9.7a7.34,7.34,0,0,0,1.5-3.5c.1-.5-.6-1.1-1-.6a22.91,22.91,0,0,0-2.9,4.7c-.3.7.6,1.3,1,.6a25.13,25.13,0,0,0,2.6-5.8c.2-.5-.6-1.1-1-.6a12.26,12.26,0,0,0-2.1,3.7l1.2.3a21.86,21.86,0,0,0,.3-3.6.59.59,0,0,0-.9-.5,8.9,8.9,0,0,0-2.6,2.1c-.4.5.1,1.3.7.9a4.7,4.7,0,0,0,2.2-2.2c.3-.6-.5-1.3-.9-.7a10.1,10.1,0,0,0-1.4,2.5.61.61,0,0,0,1,.6,5.88,5.88,0,0,0,1.5-2.8.62.62,0,1,0-1.2-.3,3.23,3.23,0,0,0-.3,1.7.59.59,0,0,0,1.1.3,24.58,24.58,0,0,0,2.2-3.9c.3-.6-.5-1.3-.9-.7a13.25,13.25,0,0,0-2.3,3.5.58.58,0,0,0,1,.6,12.75,12.75,0,0,0,1.6-2.8c.3-.7-.7-1-1.1-.5a11.74,11.74,0,0,0-2,4.4.61.61,0,0,0,1,.6,8.49,8.49,0,0,0,2.1-3.2c.2-.5-.6-1.1-1-.6a7.81,7.81,0,0,0-1.8,3.9c-.1.7.7,1.1,1.1.5a16.81,16.81,0,0,0,1.5-3c.3-.7-.7-1-1.1-.5a19.89,19.89,0,0,0-2.9,5.6.61.61,0,0,0,1.1.5,14.15,14.15,0,0,0,2.1-3.8c.2-.7-.8-1-1.1-.5a11,11,0,0,0-1.9,5.5.59.59,0,0,0,1.1.3,42.3,42.3,0,0,0,2.5-4.7c-.4-.2-.7-.3-1.1-.5-.2,1.1-.5,2.3-.7,3.4-.1.6.8,1.1,1.1.5a10.79,10.79,0,0,0,1.1-3.6c.1-.6-.8-.8-1.1-.3a36.38,36.38,0,0,0-3,6.3c-.2.6.6.9,1,.6a3.48,3.48,0,0,0,1.1-1.3c-.3-.2-.7-.4-1-.6-.4.7-.8,1.5-1.2,2.2a.58.58,0,0,0,1,.6,9.71,9.71,0,0,0,1.6-3.6.62.62,0,0,0-1.1-.5c-1.1,1.7-2.2,3.3-3.4,5-.4.6.6,1.2,1,.6a29.13,29.13,0,0,1,4.5-4.8c.5-.5-.2-1.3-.7-.9a5,5,0,0,0-2,2.3c-.3.6.5,1.3.9.7a16.61,16.61,0,0,1,1.3-1.4l-.8-.8c-.8,1-1.6,2-2.5,3-.4.5.1,1.3.7.9a5.79,5.79,0,0,0,1.7-1.4c.6-.5-.3-1.3-.8-.8-.8.4-1.5.8-2.3,1.2.2.3.5.6.7.9,1.6-2.3,2.6-4.3,2.3-7.1a.58.58,0,0,0-1-.4c-.7.6-.6.4-1,1.3a.58.58,0,0,0,1,.6,17.19,17.19,0,0,0,2.3-4.2c.3-.7-.7-1-1.1-.5a32.94,32.94,0,0,0-2.6,4.9c-.3.7.7,1,1.1.5a19.4,19.4,0,0,0,2.2-4c.3-.6-.8-1-1.1-.5a17.64,17.64,0,0,0-1.7,3.7.61.61,0,0,0,1.1.5,9.66,9.66,0,0,0,1.5-4.1c.1-.5-.6-1.1-1-.6a14.89,14.89,0,0,0-3.2,5.6.61.61,0,0,0,1,.6,10.65,10.65,0,0,0,2.7-5c.1-.6-.5-.9-1-.6a9.94,9.94,0,0,0-3.4,4.9c-.2.5.6,1.1,1,.6a11.34,11.34,0,0,0,2.1-3.9c.2-.5-.4-.9-.9-.7a4.24,4.24,0,0,0-2.5,3.3.62.62,0,0,0,1,.6,10.86,10.86,0,0,0,1.9-2.7.59.59,0,0,0-.8-.8,5.66,5.66,0,0,0-3,3.9.61.61,0,0,0,1,.6,9.66,9.66,0,0,0,2.6-3.4c.2-.5-.3-1.1-.8-.8a3.67,3.67,0,0,0-2.3,3.5.59.59,0,0,0,1,.4c.9-.8.8-.6,1-1.8.1-.4-.2-.7-.6-.8a2.79,2.79,0,0,0-3.2,2.8c-.1.5.7.7,1,.4s.5-.5.8-.7a.58.58,0,0,0-.4-1c-.6-.1-.6,0-1.1.3-.3.2-.4.7-.1.9,1,1.1,2.5.3,1.9-1.2-.2-.4-.7-.6-1-.3a1.88,1.88,0,0,0-.8,1.7.59.59,0,0,0,.9.5,7.71,7.71,0,0,0,2.1-1.4c-.3-.2-.6-.3-.9-.5a10.8,10.8,0,0,0,.2,3.1.59.59,0,0,0,1.1.1c.8-1.2.6-.7.8-2.1a.61.61,0,0,0-1-.6,4.35,4.35,0,0,0-1.6,4,.58.58,0,0,0,1,.4,1.6,1.6,0,0,0,.4-2.2.54.54,0,0,0-.8-.2,1.15,1.15,0,0,0-.6.9c-.1.6.8,1.1,1.1.5a9.29,9.29,0,0,0,.5-1,.58.58,0,0,0-1-.6,1.37,1.37,0,0,0-.4,1.2c.4-.1.8-.1,1.2-.2-.1-.3-.1-.7-.2-1-.1-.5-.7-.5-1-.3-.9.8-.9.7-1.3,1.4a.54.54,0,0,0,.2.8c.1,0,.1.1.2.1a.62.62,0,0,0,.7-.1l.1-.1c.3-.3.1-.8-.3-1s-1.1-.4-1.6-.6-1.1.8-.5,1.1l.6.3c.2-.4.3-.7.5-1.1l-2.4-.3c-.6-.1-1.1.8-.5,1.1.2.1.5.2.7.3.1-.4.2-.7.3-1.1a20.18,20.18,0,0,0-3.5.1c-.9.1-.8-.2-1.5.5a.6.6,0,0,0,.3,1,2.77,2.77,0,0,0,1.8,0,.61.61,0,0,0,.3-.7c0-.1-.1-.2-.1-.3a.57.57,0,0,0-.7-.4c-.1,0-.1,0-.2.1-.7.2-.4,1.3.3,1.2a7.09,7.09,0,0,0,3.7-2.2c-.3,0-.6-.1-.9-.1,2.1,2.7,6.1-.9,4-2.6a.62.62,0,0,0-.7-.1c-1.1.6-1.2,1.7-1,2.9a.63.63,0,0,0,.9.4,5.5,5.5,0,0,0,2-2.3c.3-.6-.5-1.3-.9-.7a3.48,3.48,0,0,0-1.1,2.7.59.59,0,0,0,1.1.3,2.51,2.51,0,0,0,.5-1.9c0-.5-.7-.8-1-.4a4.81,4.81,0,0,0-1.2,1.6c0,.7,1,1.4,1.4.7Z" transform="translate(-62.32 -23)"/><path class="cls-2" d="M74.7,88.3a1.68,1.68,0,0,0-1.2-.3c-.5,0-.8.7-.4,1a18.78,18.78,0,0,1,2.4,2.5c.1-.3.3-.7.4-1-.4-.2-.8-.3-1.2-.5-.5-.4-1.3.5-.7.9a20,20,0,0,1,2.2,1.9c.2-.3.4-.7.6-1-.3-.1-.5-.2-.8-.3a.58.58,0,0,0-.6,1,3.51,3.51,0,0,0,.8.5c.2-.3.4-.7.6-1l-.6-.3a.58.58,0,0,0-.6,1A5.85,5.85,0,0,1,77,94a.6.6,0,0,0,1-.6c-.1-.4-.2-.7-.3-1.1-.3.2-.7.4-1,.6a9.43,9.43,0,0,0,1,1c.4.3,1.2,0,1-.6a5.07,5.07,0,0,0-.9-1.6l-.8.8c.1.2.3.4.4.6l.8-.8c-1.5-1-2.9-2-4.4-3a.57.57,0,0,0-.7.9l2.7,2.7c.2-.3.5-.6.7-.9-1.2-.8-2.5-1.5-3.7-2.3a.58.58,0,1,0-.6,1c.9.5,1.7,1.1,2.6,1.6a.58.58,0,0,0,.6-1c-.6-.5-1.2-.9-1.9-1.4-.2.4-.3.7-.5,1.1a15.11,15.11,0,0,1,1.8.9c.6.4,1.1-.4.7-.9-1-1.2-2-2.5-2.9-3.7l-.8.8L75,91c.5.4,1.4-.2.9-.7L73.5,87c-.3.2-.6.5-.9.7a20.47,20.47,0,0,1,3.1,3.5c.3-.2.6-.5.9-.7-1-1.1-2-2.3-3-3.4-.2.3-.5.6-.7.9a18.78,18.78,0,0,1,2.5,2.4l.8-.8a14,14,0,0,1-2.1-2.7c-.3.2-.6.5-.9.7a24.28,24.28,0,0,1,2.4,3.2c.3-.2.7-.4,1-.6-.9-1.3-1.8-2.6-2.6-3.9-.2.3-.5.6-.7.9.9.3,1.6,1.7,2.2,2.4.3-.2.6-.5.9-.7a16.42,16.42,0,0,1-2.6-4.2c-.3.2-.6.5-.9.7a5.46,5.46,0,0,1,1.9,1.8.58.58,0,1,0,1-.6,5.41,5.41,0,0,0-2.3-2.2c-.4-.2-1.1.2-.9.7a17.55,17.55,0,0,0,2.9,4.7c.4.5,1.3-.2.9-.7-.8-1.1-1.5-2.5-2.9-3a.62.62,0,0,0-.7.9c.9,1.3,1.8,2.6,2.6,3.9a.58.58,0,0,0,1-.6,28.82,28.82,0,0,0-2.6-3.5.57.57,0,0,0-.9.7,16.55,16.55,0,0,0,2.2,3c.5.6,1.3-.3.8-.8a16.61,16.61,0,0,0-2.7-2.6c-.6-.4-1.1.5-.7.9,1,1.1,2,2.3,3,3.4.4.5,1.3-.2.9-.7a19.57,19.57,0,0,0-3.3-3.8c-.5-.4-1.4.1-.9.7l2.4,3.3c.3-.2.6-.5.9-.7l-3.2-2.9a.57.57,0,0,0-.8.8c1,1.2,2,2.5,2.9,3.7.2-.3.5-.6.7-.9a18.65,18.65,0,0,0-2-1c-.7-.3-1,.7-.5,1.1s1.2.9,1.9,1.4c.2-.3.4-.7.6-1-.9-.5-1.7-1.1-2.6-1.6-.2.3-.4.7-.6,1,1.2.8,2.5,1.5,3.7,2.3a.57.57,0,0,0,.7-.9l-2.7-2.7c-.2.3-.5.6-.7.9,1.5,1,2.9,2,4.4,3,.5.4,1-.3.8-.8a1.24,1.24,0,0,0-.6-.8.57.57,0,0,0-.8.8c.2.4.4.7.6,1.1.3-.2.7-.4,1-.6a4.74,4.74,0,0,1-1-1,.6.6,0,0,0-1,.6c.1.4.2.7.3,1.1.3-.2.7-.4,1-.6A7.52,7.52,0,0,0,76,91.7c-.2.3-.4.7-.6,1l.6.3a.58.58,0,0,0,.6-1,3.51,3.51,0,0,0-.8-.5c-.2.3-.4.7-.6,1a2.1,2.1,0,0,0,1.1.4.62.62,0,0,0,.6-1A20,20,0,0,0,74.7,90c-.2.3-.5.6-.7.9a4,4,0,0,0,1.8.7c.6.1.7-.7.4-1a18.78,18.78,0,0,0-2.4-2.5c-.1.3-.3.7-.4,1a1.42,1.42,0,0,0,.6.2c.7.5,1.3-.5.7-1Z" transform="translate(-62.32 -23)"/><path class="cls-2" d="M89.2,33c-.5.2-1,.3-1.6.5,1.1,1.5,2.3,2.9,3.4,4.4l1.4-.3c-1-.3-1.9-.5-2.9-.8l2.6-2.3c-.2,1.2-.3,2.4-.5,3.6-1.2-.4-2.4-.8-3.6-1.1.5-.9,1-1.7,1.5-2.6.8.9,1.5,1.8,2.3,2.7-1,.7-1.9,1.5-2.9,2.2h.8c-.9-.5-1.7-1-2.6-1.5h3.6l-2.1,2.1h-.4c-.5-.9-1-1.7-1.5-2.6V37c1-.3,1.9-.5,2.9-.8.1.1.3.2.4.3-.2,1.2-.3,2.4-.5,3.6-.9,0-1.9-.1-2.8-.1-.3-1-.5-1.9-.8-2.9a1.42,1.42,0,0,0-.2.6l2.1-2.1c.5.3,1.1.7,1.6,1-1,1.3-1.9,2.5-2.9,3.8h.3l-3-3v.2l3.8-2.9c-7-1.6-11,3.8-15.2,8.7a3,3,0,0,0,4.2,4.2,37.75,37.75,0,0,0,4-4c-1.6-1.2-3.1-2.4-4.7-3.6l-1.8,2.4c-2,2.7,2.5,6.2,4.7,3.6A30.78,30.78,0,0,1,84,41l-4.1-4.1h.2c-2.7,2-1.2,6.3,2.3,5.5.7-.1,1.3-.3,2-.4,3.3-.7,2.6-5.9-.8-5.9C73.9,36.2,70.1,50.7,68,58c-2.8,10.2-1.3,22.1,2.8,31.8,1.6-1.2,3.1-2.4,4.7-3.6-5.7-4.6-6.9-14-6.4-20.8.5-8.3,3.6-15.8,10.6-20.5,3.2-2.2.2-7.4-3-5.2-8.3,5.7-12.4,14.1-13.4,24.1-.9,8.7.7,20.9,8.1,26.7a3,3,0,0,0,4.7-3.6c-3.1-7.3-4.4-16.7-2.9-24.5C74,58,77.8,42.3,83.6,42.2c-.3-2-.5-3.9-.8-5.9-.7.1-1.3.3-2,.4.8,1.8,1.5,3.7,2.3,5.5a6,6,0,0,0,2-2.2c1.2-2.4-1.5-6.1-4.1-4.1a36.43,36.43,0,0,0-6.4,6c1.6,1.2,3.1,2.4,4.7,3.6l1.8-2.4c2-2.7-2.5-6.2-4.7-3.6a50.32,50.32,0,0,1-4,4l4.2,4.2c2-2.3,5.8-7.9,9.3-7.1a3.06,3.06,0,0,0,3.8-2.9v-.2a3.08,3.08,0,0,0-3-3h-.3a3,3,0,0,0-2.9,3.8,4.2,4.2,0,0,0,8.1.5,2.86,2.86,0,0,0-.8-2.9,3.75,3.75,0,0,0-5.7.1,3.19,3.19,0,0,0-.5,3.6c2,4.2,8.5,2.6,7.9-2.2-.5-4-6.3-4.9-7.8-1.1s2.8,6.8,6,4.8c3.6-2.2,2.5-7.9-2-7.6a3.23,3.23,0,0,0-2.9,2.2c-1.8,4.7,5.3,7,7.6,3s-3.2-8.3-6.2-4.6a3.19,3.19,0,0,0-.5,3.6c2.1,4.7,10.1,2,8.3-3-1.6-4.6-8.6-2.8-7.4,2s8.1,2.4,8-2.1c-.2-6.6-8-2.8-9.9.4-1.3,2.2.9,5.2,3.4,4.4.5-.2,1-.3,1.6-.5,3.8-1.3,2.2-7.1-1.5-5.9Z" transform="translate(-62.32 -23)"/><path class="cls-2" d="M69.4,61.5c-.5-3.6,1.6-6.9,3-10.1,1.5-3.5-3.1-6.4-5.2-3a24.21,24.21,0,0,0-2.3,4.9c1.9.5,3.9,1.1,5.8,1.6.9-3.1,2.6-5.5,4.5-8.1,2.2-2.9-2.3-5.7-4.7-3.6a22.7,22.7,0,0,0-3.1,3.1c1.6,1.2,3.1,2.4,4.7,3.6A44,44,0,0,1,86.8,34.6c-1.2-1.6-2.4-3.1-3.6-4.7-4,4.1-11.6,10.6-12.4,16.6-.4,2.7,2.8,5.4,5,2.9a40.56,40.56,0,0,0,3.6-4.6c-1.7-1-3.5-2-5.2-3a46.74,46.74,0,0,1-2.7,4.9c-2.1,3.4,2.9,6,5.2,3,1.9-2.5,3.7-4.9,5.6-7.4,2.1-2.8-2.4-6-4.7-3.6a38.8,38.8,0,0,0-6.2,8.4c1.8.8,3.7,1.5,5.5,2.3a27.25,27.25,0,0,1,6.2-9.8c2.3-2.4-.7-6.6-3.6-4.7-1.1.7-2.1,1.4-3.2,2.1l4.1,4.1a9.75,9.75,0,0,1,3.8-4.7c-1.2-1.6-2.4-3.1-3.6-4.7A16.27,16.27,0,0,1,77,35l4.1,4.1c3.3-6.2,11.3-9.6,18-9.7,1.3,0,9.4-.2,9.6,1.8-.1-1-8.8,2-9.1,1.7.2,1.2.3,2.4.5,3.6-.1,0-.1.1-.2.1-.5-.9-1-1.7-1.5-2.6.1-1-6.2,2.5-1.3,2L95,30.9a8.81,8.81,0,0,1-2.5,2.2c1,2.4,2.3,2.7,4,1.1-1-1.7-1.9-3.3-2.9-5a5.31,5.31,0,0,1-4.7,2c1,1.3,1.9,2.5,2.9,3.8,0-.1,11.5-1.8,12.3-1.6.3-2,.5-3.9.8-5.9a8.16,8.16,0,0,0-5.5,1.4,3,3,0,0,0,1.5,5.6,19.62,19.62,0,0,0,7.6-.9c-1.1-1.5-2.3-2.9-3.4-4.4-1.4,2.5-8.9,2.9-11.4,3.6a20,20,0,0,0-8.6,4.6c-1.6,1.4-.9,4.6,1.3,5,7.9,1.4,15.4-.1,23.2-1.3-.8-1.8-1.5-3.7-2.3-5.5a4.76,4.76,0,0,1-4,.9c.3,2,.5,3.9.8,5.9l11-2.1c-.8-1.8-1.5-3.7-2.3-5.5a8.45,8.45,0,0,1-4.6,1.8c.5,1.9,1.1,3.9,1.6,5.8a62.63,62.63,0,0,0,8.2-3.1c2.3-1.1,1.6-4,0-5.2-3-2.2-1.7-6.6-5.3-8.5-.8,1.8-1.5,3.7-2.3,5.5a23.8,23.8,0,0,1,10.3,7.7l4.2-4.2c-2.1-2.1-4.2-4.3-6.3-6.4-1,1.7-1.9,3.3-2.9,5,5.7,1.1,8.1,6.6,9.9,11.3,1,2.8,2.4,7.1,4.5,9.1,2.8,2.7,6.8-1.4,4.2-4.2-3.9-4.5-8-8.7-12.3-12.8-1,1.7-1.9,3.3-2.9,5,1,.4,2.3,3.2,2.8,3.9,1,1.6,2,3.1,3,4.7a30.53,30.53,0,0,1,4.5,10.3c1.8-.8,3.7-1.5,5.5-2.3-1.5-2.8-1.2-6.2-1.6-9.3a33.14,33.14,0,0,0-2.2-8.2c-1.8.8-3.7,1.5-5.5,2.3l3.9,7.2c1.6,2.9,6.8.9,5.5-2.3a46,46,0,0,0-3.1-6.3c-1.7,1-3.5,2-5.2,3a19.64,19.64,0,0,1,3.5,9.6c.3,3.8,5.9,3.9,6,0,0-1.5.1-3,.1-4.5-2,.3-3.9.5-5.9.8L131,52c1.4,3.5,7.2,2,5.8-1.6l-.6-1.5c-1.2-3-5.8-2.8-5.9.8,0,1.5-.1,3-.1,4.5h6a25.68,25.68,0,0,0-4.3-12.6c-2.1-3.2-7.2-.3-5.2,3a37.53,37.53,0,0,1,2.5,4.9c1.8-.8,3.7-1.5,5.5-2.3L130.8,40c-1.6-2.9-6.8-.9-5.5,2.3,2.4,6.1,1.3,13.2,4.4,18.9,1.7,3.1,6.1.9,5.5-2.3-1-5.2-3.7-9.6-6.5-14-2.2-3.4-3.9-7.6-7.9-9.1-2.9-1-5,3-2.9,5,4.3,4.1,8.3,8.4,12.3,12.8l4.2-4.2c-1-.9-1.9-4.3-2.6-5.7-1.3-2.7-1.6-5.6-3.3-8.1-2.4-3.4-7-7.4-11.2-8.2-2.8-.5-5.1,2.8-2.9,5s4.2,4.3,6.3,6.4c2.8,2.8,6.6-1.3,4.2-4.2a30.32,30.32,0,0,0-13-9.3c-3.2-1.2-5.3,3.9-2.3,5.5.6.3,1,4.1,1.5,4.9a13.05,13.05,0,0,0,3.8,3.6V34.1a41.68,41.68,0,0,1-6.7,2.5c-3.8,1.1-2.1,6.3,1.6,5.8a12.26,12.26,0,0,0,6-2.5,3,3,0,0,0-2.3-5.5l-11,2.1c-3.5.7-2.4,5.7.8,5.9a11.44,11.44,0,0,0,7-1.7c3.1-1.9.9-6-2.3-5.5-6.7,1-13.3,2.5-20,1.3.4,1.7.9,3.3,1.3,5,5.5-4.9,17.2-2.6,21-9.4,1.2-2.2-.8-5.2-3.4-4.4a17.06,17.06,0,0,1-6,.7c.5,1.9,1,3.7,1.5,5.6l2.5-.6c3.3.3,4.2-5.4.8-5.9-4.8-.7-8.7,1.1-13.5,1.7-3,.4-5.4.8-6.2,4.2a3.05,3.05,0,0,0,2.9,3.8,10.19,10.19,0,0,0,8.9-3.7c1.7-2,.2-6.2-2.9-5-3.4,1.3-9.9,5.1-7.1,9.7s9.2-.4,11.4-3c1.6-1.7.6-5.4-2.1-5.1s-5.6.8-7,3.4A5.18,5.18,0,0,0,91.2,40c4.2,3.4,12.9-.8,13.2-5.9a2.9,2.9,0,0,0-1.5-2.6c-2.8-1.5-6.4-1-8,2.1a3,3,0,0,0,.5,3.6c3.3,3.3,12.1.6,15.6-1.2,5-2.7,4.6-7.9-.2-10.6-10.9-6-29-.1-34.8,10.7-1.3,2.5,1.5,5.8,4.1,4.1A21.32,21.32,0,0,0,84.9,36c2-2.4-.6-6.8-3.6-4.7a15.78,15.78,0,0,0-5.9,6.9c-1.1,2.5,1.4,5.9,4.1,4.1,1.1-.7,2.1-1.4,3.2-2.1-1.2-1.6-2.4-3.1-3.6-4.7A34.45,34.45,0,0,0,71.4,48c-1.2,3.2,3.9,5.3,5.5,2.3a34.32,34.32,0,0,1,5.3-7.2c-1.6-1.2-3.1-2.4-4.7-3.6-1.9,2.5-3.7,4.9-5.6,7.4,1.7,1,3.5,2,5.2,3A46.74,46.74,0,0,0,79.8,45a3,3,0,0,0-5.2-3A21,21,0,0,1,72,45.3c1.7,1,3.3,1.9,5,2.9.7-4.9,7.5-10.5,10.8-13.9,2.3-2.4-.7-6.6-3.6-4.7A51.15,51.15,0,0,0,67.3,47c-1.7,2.9,2.5,6.3,4.7,3.6a22.7,22.7,0,0,1,3.1-3.1c-1.6-1.2-3.1-2.4-4.7-3.6a26.52,26.52,0,0,0-5.1,9.5c-1.1,3.8,4.4,5.1,5.8,1.6a16.15,16.15,0,0,1,1.7-3.5c-1.7-1-3.5-2-5.2-3-1.8,4.2-4.5,8.4-3.9,13.1.2,3.7,6.2,3.7,5.7-.1Z" transform="translate(-62.32 -23)"/><path class="cls-2" d="M126.1,92.4c3.9,0,3.9-6,0-6s-3.8,6,0,6Z" transform="translate(-62.32 -23)"/><path class="cls-2" d="M123.3,86.8a4,4,0,0,1-3.5,1.9c-2.9.4-2.8,5.3,0,5.8,8.9,1.5,13.5-9.2,16.4-16.1,3.8-9.2,2.8-17.8,0-27.1a3,3,0,0,0-5-1.3c-3,2.5-3.8,6.2-3.3,10,.4,2.9,1.3,5.6,1.1,8.6-.2,3.4-.9,6.8-1.4,10.1-.4,2.7,2.7,5.3,5,2.9,4.3-4.5,4.4-12.4,5.1-18.2.8-6.1.9-11.7-3.1-16.7-2.4-3-6.6,1.2-4.2,4.2,2.7,3.5,1.8,8.4,1.3,12.5-.5,3.9-.5,11-3.3,14,1.7,1,3.3,1.9,5,2.9.7-4.3,1.9-8.9,1.8-13.3-.1-4-3.4-9.7.3-12.8-1.7-.4-3.3-.9-5-1.3,2,6.5,3.1,12.4,1.5,19.1-.7,3.1-5.9,17.5-10.5,16.7v5.8a9.67,9.67,0,0,0,7-4.7c2.2-3.2-3-6.2-5.2-3Z" transform="translate(-62.32 -23)"/><path class="cls-1" d="M123.4,91.8c7-6.5,9.7-16.6,13.2-25.2.3-.7-.9-1-1.2-.3-3.4,8.4-6.1,18.4-12.9,24.7-.5.5.3,1.3.9.8Z" transform="translate(-62.32 -23)"/><path class="cls-1" d="M114.3,31.6c7.6,4.4,12.3,11.6,16,19.3.3.7,1.4.1,1-.6-3.8-7.9-8.7-15.3-16.4-19.7a.58.58,0,1,0-.6,1Z" transform="translate(-62.32 -23)"/><path class="cls-3" d="M77.1,93.9c-3.2-1.8-6.6-3.6-8.7-6.7s-2.9-7.4-3.7-11.1a44.71,44.71,0,0,1,.4-22.4A41.44,41.44,0,0,1,76.3,35.1c4.9-4.7,14.1-11.5,21.4-10a.62.62,0,0,0,.3-1.2c-6.8-1.3-14.6,3.7-19.6,7.8a43.05,43.05,0,0,0-14,20.1,47.35,47.35,0,0,0-.9,24.5c.9,4.3,1.8,9.1,4.7,12.5,2.2,2.7,5.3,4.4,8.3,6,.7.5,1.3-.6.6-.9Z" transform="translate(-62.32 -23)"/><path class="cls-3" d="M75.4,94.3a14.87,14.87,0,0,0,4.5,1.9.62.62,0,0,0,.6-1c-2.5-2.6-3.7-6.1-4.8-9.5-.2-.7-1.4-.4-1.2.3,1.2,3.6,2.4,7.2,5.1,10,.2-.3.4-.7.6-1A15.67,15.67,0,0,1,76,93.2c-.6-.4-1.2.7-.6,1.1Z" transform="translate(-62.32 -23)"/><path class="cls-3" d="M83.6,40.8c-10.1,10-12.8,24-11.3,37.7.1.8,1.3.8,1.2,0-1.5-13.4,1.1-27.1,11-36.9.5-.5-.4-1.4-.9-.8Z" transform="translate(-62.32 -23)"/><path class="cls-3" d="M77.7,92.7a16.83,16.83,0,0,1,2.9,2.4.6.6,0,0,0,1-.3c0-.3.1-.5.1-.8a3.55,3.55,0,0,0-.9.4c.5.2,1,.5,1.5.7s1,0,.9-.5a1.27,1.27,0,0,0-.1-.6c-.3.2-.6.3-.9.5a7.61,7.61,0,0,1,1.9,1.2.52.52,0,0,0,.8-.2c-.1.3,3.7,1.3,3.8,1.3.7.2,1.1-1,.3-1.2a12.37,12.37,0,0,1-2.9-1c-.4-.2-.5-.4-1-.4a1.21,1.21,0,0,0-1.2.7c.3-.1.5-.1.8-.2a12.23,12.23,0,0,0-1.9-1.2c-.4-.2-1,0-.9.5a1.27,1.27,0,0,0,.1.6c.3-.2.6-.3.9-.5-.5-.2-1-.5-1.5-.7-.3-.1-.8-.1-.9.4,0,.3-.1.5-.1.8.3-.1.7-.2,1-.3a15.85,15.85,0,0,0-3.2-2.6c-.6-.5-1.2.6-.5,1Z" transform="translate(-62.32 -23)"/><path class="cls-3" d="M94.5,24.9c8.3-1.6,18.5,0,25.7,4.7,6.6,4.3,13.4,13.4,15.8,20.8s3,19.7-.4,26.5-7.3,15.9-14.2,19.6c.3.2.6.5.9.7a103.38,103.38,0,0,1,4.9-10.7c.4-.7-.7-1.3-1-.6a109,109,0,0,0-5,11c-.2.5.5.9.9.7,7.5-4,12.1-14.1,15.4-21.5,1.9-4.3,1.4-8.9,1.3-13.5s-.4-9.5-2.1-14c-2.8-7.1-9.3-15.8-15.8-20-7.5-4.8-18-6.5-26.6-4.8-.8.1-.5,1.3.2,1.1Z" transform="translate(-62.32 -23)"/><path class="cls-3" d="M116.5,40.2c11.1,10.6,14.3,23.6,11.1,38.5a.62.62,0,0,0,1.2.3c3.3-15.4,0-28.8-11.4-39.7-.6-.5-1.5.3-.9.9Z" transform="translate(-62.32 -23)"/><path class="cls-3" d="M82.5,42.5a3.36,3.36,0,0,0,.4,2.2.58.58,0,1,0,1-.6,2.77,2.77,0,0,1-.3-1.3c.2-.8-1-1.1-1.1-.3Z" transform="translate(-62.32 -23)"/><path class="cls-3" d="M84,45.1c.8-.2,1.5-.5,2.3-.7s.4-1.4-.3-1.2-1.5.5-2.3.7-.4,1.4.3,1.2Z" transform="translate(-62.32 -23)"/><path class="cls-3" d="M86.2,44.6a2.42,2.42,0,0,0,2.8-.5c.6-.5-.3-1.4-.8-.8a1.44,1.44,0,0,1-1.4.3.63.63,0,0,0-.8.2.52.52,0,0,0,.2.8Z" transform="translate(-62.32 -23)"/><path class="cls-3" d="M88.6,44a3.21,3.21,0,0,0,2,1,1.8,1.8,0,0,0,1.6-.9c.4-.7-.7-1.3-1-.6s-1.3-.1-1.6-.4c-.7-.5-1.6.4-1,.9Z" transform="translate(-62.32 -23)"/><path class="cls-3" d="M92.3,44.5a1,1,0,0,1,1.2.7c.3.7,1.4.1,1-.6a2.36,2.36,0,0,0-2.3-1.3c-.7.1-.7,1.3.1,1.2Z" transform="translate(-62.32 -23)"/><path class="cls-3" d="M94.8,45.6a6.1,6.1,0,0,0,1.6-1.2c.6-.5-.3-1.4-.8-.8a7.1,7.1,0,0,1-1.4,1,.58.58,0,1,0,.6,1Z" transform="translate(-62.32 -23)"/><path class="cls-3" d="M96.3,44.6c.8.2,1.5.5,2.3.7a.62.62,0,0,0,.3-1.2c-.8-.2-1.5-.5-2.3-.7s-1,.9-.3,1.2Z" transform="translate(-62.32 -23)"/><path class="cls-3" d="M99.7,45.2c.6-.3,1.2-.6,1.7-.9a.58.58,0,1,0-.6-1c-.6.3-1.2.6-1.7.9-.7.3-.1,1.3.6,1Z" transform="translate(-62.32 -23)"/><path class="cls-3" d="M101.5,44.3a1.7,1.7,0,0,1,.7.1.62.62,0,0,0,.3-1.2,5.7,5.7,0,0,0-1.3-.1c-.8.1-.4,1.3.3,1.2Z" transform="translate(-62.32 -23)"/><path class="cls-3" d="M102.6,44.4a2.59,2.59,0,0,0,1.1.7.62.62,0,0,0,.3-1.2,3.33,3.33,0,0,1-.6-.3c-.5-.6-1.4.3-.8.8Z" transform="translate(-62.32 -23)"/><path class="cls-3" d="M104.7,45.2a3,3,0,0,0,.8-.4c.7-.3.1-1.4-.6-1a3,3,0,0,0-.8.4c-.7.3-.1,1.4.6,1Z" transform="translate(-62.32 -23)"/><path class="cls-3" d="M106.2,44.4c.3-.2.7-.3,1-.5.7-.3.1-1.4-.6-1-.3.2-.7.3-1,.5-.7.3-.1,1.4.6,1Z" transform="translate(-62.32 -23)"/><path class="cls-3" d="M106.8,44c.7.2,1.3.4,2,.6a.62.62,0,0,0,.3-1.2c-.7-.2-1.3-.4-2-.6s-1,.9-.3,1.2Z" transform="translate(-62.32 -23)"/><path class="cls-3" d="M109.3,44.7h1a.6.6,0,1,0,0-1.2h-1a.6.6,0,1,0,0,1.2Z" transform="translate(-62.32 -23)"/><path class="cls-3" d="M110.9,44.6a4,4,0,0,1,1.5-.3.6.6,0,1,0,0-1.2,5.66,5.66,0,0,0-1.8.3c-.7.2-.4,1.4.3,1.2Z" transform="translate(-62.32 -23)"/><path class="cls-3" d="M113.2,44c.3-.2.5-.4.8-.6.6-.5-.2-1.3-.8-.8-.3.2-.5.4-.8.6-.7.5.2,1.3.8.8Z" transform="translate(-62.32 -23)"/><path class="cls-3" d="M113.7,43.4c.3-.2.7-.3,1-.5.7-.3.1-1.4-.6-1-.3.2-.7.3-1,.5-.7.3-.1,1.4.6,1Z" transform="translate(-62.32 -23)"/><path class="cls-3" d="M114.5,43.1a1,1,0,0,1,.9.2.58.58,0,1,0,.6-1,2.89,2.89,0,0,0-1.8-.3c-.7,0-.4,1.2.3,1.1Z" transform="translate(-62.32 -23)"/><path class="cls-3" d="M115.9,43.4a2.09,2.09,0,0,1,.6.4.58.58,0,1,0,.6-1,2.09,2.09,0,0,1-.6-.4c-.6-.4-1.2.6-.6,1Z" transform="translate(-62.32 -23)"/><path class="cls-3" d="M117.4,44.1l1-.3c.7-.2.4-1.3-.3-1.2l-1,.3c-.8.2-.4,1.4.3,1.2Z" transform="translate(-62.32 -23)"/><path class="cls-3" d="M118.8,43.8a.35.35,0,0,0,.2-.1c.7-.3.1-1.4-.6-1a.35.35,0,0,0-.2.1c-.7.3-.1,1.3.6,1Z" transform="translate(-62.32 -23)"/><path class="cls-3" d="M120.2,96.1c.2-.4.7-.6,1-.3.6.5,1.4-.4.8-.8a1.87,1.87,0,0,0-2.9.6c-.3.6.8,1.2,1.1.5Z" transform="translate(-62.32 -23)"/><path class="cls-3" d="M111.7,96.7c.4-1,1.3-.7,2.1-.7.1-.1.3-.2.4-.3a.86.86,0,0,1,.6.3c.2,0,.5.2.7.2.7-.1.9-.8,1.4-.9a11.27,11.27,0,0,0,1.8.3.56.56,0,0,0,.9-.1c.4.1.8.1,1.3.2.7.4,1.3-.7.6-1-1.1-.6-2.1-.9-2.9.3.3,0,.6-.1.9-.1a1.39,1.39,0,0,0-1-.5c-.5-.1-.7,0-1.1-.1-1.1-.2-.9-.1-1.8.4-.4.2-.1.2-.6.2-.1,0-.5-.3-.6-.3-.4,0-.7.2-1.1.2-1.5.1-2-.1-2.7,1.5-.2.5.8,1.1,1.1.4Z" transform="translate(-62.32 -23)"/></svg>