<svg id="Layer_1" data-name="Layer 1" xmlns="http://www.w3.org/2000/svg" viewBox="0 0 72.55 69.42"><defs><style>.cls-1{fill:#141113;}.cls-2{fill:#292728;}</style></defs><title>Black</title><path class="cls-1" d="M76.8,87.4c-.6-.7-1.1-1.4-1.7-2.2-.2.3-.5.6-.7.9a10.54,10.54,0,0,1,1.1.7.58.58,0,0,0,.9-.7c-.1-.3-.3-.5-.4-.8l-.8.8.6.3a.58.58,0,0,0,.7-.9,8.65,8.65,0,0,1-.7-1c-.4-.5-1.3.2-.9.7a2.93,2.93,0,0,0,.9,1,.61.61,0,0,0,1-.6,5.07,5.07,0,0,0-.7-1.5c-.3.2-.6.5-.9.7.2.3.4.5.6.8.2-.3.5-.6.7-.9a1.38,1.38,0,0,0-.4-.3.57.57,0,0,0-.7.9l2.8,2.5c.2-.3.5-.6.7-.9a14.69,14.69,0,0,1-3.1-2.3c-.2.3-.5.6-.7.9a90.79,90.79,0,0,1,7.7,6.2c.1-.3.2-.7.3-1l-1.4.3c-.6.1-.5,1,0,1.1a17.18,17.18,0,0,0,3.8.8c-.1-.4-.1-.8-.2-1.2a5,5,0,0,1-3.2-.2c-.1.4-.1.8-.2,1.2l3.2.3c.6.1.7-.8.3-1.1a14.28,14.28,0,0,0-2.7-1.5c-.2.4-.3.7-.5,1.1a9.77,9.77,0,0,1,2.3.6c.6.2,1.1-.8.5-1.1a18.65,18.65,0,0,1-2-1c-.2.4-.3.7-.5,1.1a4.28,4.28,0,0,1,1.6.5c.1-.4.2-.8.3-1.1-.6-.2-1.2-.3-1.8-.5a.57.57,0,1,0-.3,1.1c1.6.6,3.3,1.2,4.9,1.8V91.8c-.6.1-1.3.3-1.9.4s-.6,1.1,0,1.1c1,.1,2.1.3,3.1.4.4.1,1-.4.7-.9-1-1.4-3.2-1.6-4.6-2.4-2.3-1.3-4.2-3.1-6.4-4.6-.6-.4-1.2.6-.6,1,1.8,1.3,3.5,2.7,5.3,3.9a13.5,13.5,0,0,0,2.6,1.5c.7.3,2.2.5,2.6,1.2a5.5,5.5,0,0,1,.7-.9c-1-.1-2.1-.3-3.1-.4v1.1c.6-.1,1.3-.3,1.9-.4s.5-1,0-1.1c-1.6-.6-3.3-1.2-4.9-1.8-.1.4-.2.8-.3,1.1.6.2,1.2.3,1.8.5a.57.57,0,1,0,.3-1.1,7.49,7.49,0,0,0-1.6-.5c-.6-.1-1.1.7-.5,1.1a18.65,18.65,0,0,0,2,1c.2-.4.3-.7.5-1.1a19.48,19.48,0,0,0-2.3-.6c-.6-.1-1.1.8-.5,1.1l2.7,1.5c.1-.4.2-.7.3-1.1l-3.2-.3c-.7-.1-.7,1-.2,1.2a6.19,6.19,0,0,0,3.8.2c.9.1.6-.9,0-.9a13.71,13.71,0,0,1-3.5-.8v1.1l1.4-.3a.64.64,0,0,0,.3-1,81.74,81.74,0,0,0-7.9-6.4.57.57,0,0,0-.7.9A14.23,14.23,0,0,0,78.4,88c.6.3,1.2-.5.7-.9l-2.8-2.5c-.2.3-.5.6-.7.9a1.38,1.38,0,0,0,.4.3c.6.4,1.1-.4.7-.9-.2-.3-.4-.5-.6-.8-.4-.5-1.3.2-.9.7l.6,1.2c.3-.2.7-.4,1-.6-.2-.3-.5-.5-.7-.8-.3.2-.6.5-.9.7a8.65,8.65,0,0,1,.7,1c.2-.3.5-.6.7-.9l-.6-.3c-.5-.2-1.1.2-.8.8.1.3.3.5.4.8.3-.2.6-.5.9-.7a6.71,6.71,0,0,0-1.4-.9.58.58,0,0,0-.7.9c.6.7,1.1,1.4,1.7,2.2.3.6,1.2-.2.7-.8Z" transform="translate(-63.82 -25.72)"/><path class="cls-1" d="M73.5,84.2c-.6-.5-1.1-1-1.7-1.5-1.2-1.1-3.3.3-2.3,1.8.8,1.2,1.5,2.4,2.3,3.7l2-2c-.7-.3-1.3-.6-2-.9-1.3-.6-2.9.7-2,2,1.7,2.8,4.5,4.2,7.1,6,1.4,1,2.9-1.1,1.8-2.3a11.19,11.19,0,0,1-2.6-3.8c-.7-1.5-3.3-.4-2.7,1.1a1.42,1.42,0,0,1,.2.6c.8-.5,1.7-1,2.5-1.4A14.63,14.63,0,0,1,74,84.7c-.8.6-1.6,1.2-2.3,1.8a22.33,22.33,0,0,0,10,6.5,1.47,1.47,0,0,0,1.1-2.7,60.43,60.43,0,0,1-7.1-5.4L73.6,87c.4.3.7.6,1.1.9.4-.8.7-1.7,1.1-2.5-1.1-.5-2.3-1-3.4-1.5-1.1-.9-3-.1-2.5,1.4.2.5.3,1,.5,1.6.7-.6,1.5-1.1,2.2-1.7-.7-.7-1.4-1.3-2-2-.8.6-1.6,1.2-2.3,1.8a6.9,6.9,0,0,1,1.8,2.4l2-2c-1.6-.8-1.5-3.8-1.6-5.3-.9.3-1.8.5-2.8.8,1,1.4,1.8,2.9,2.7,4.4a1.52,1.52,0,0,0,2.8-.8A14,14,0,0,1,73,81c-1,.1-1.9.3-2.9.4.4,1.2.9,2.3,1.3,3.5a1.5,1.5,0,0,0,2.9-.8c-.2-.7-.3-1.4-.5-2-.9.4-1.8.8-2.7,1.1l1.2,2.4c.7,1.7,3.6,1,2.9-.8A24,24,0,0,1,74,80.4c-1,.3-1.9.5-2.9.8A16.57,16.57,0,0,1,72.2,85c1-.3,1.9-.5,2.9-.8a51.14,51.14,0,0,1-2-8.8c-1,.1-1.9.3-2.9.4.2.6.3,1.1.5,1.7,1-.1,1.9-.3,2.9-.4a19.39,19.39,0,0,1-.6-7.2H70v4.4h3c-.8-5.3.3-10.3,1.6-15.4.4-1.6-1.9-2.7-2.7-1.1a18.19,18.19,0,0,0-1.5,4.1c1,.1,1.9.3,2.9.4.4-4.8,3.6-9.7,5.8-14-.9-.5-1.7-1-2.6-1.5C74.2,51.2,72,55.6,69.7,60c.9.4,1.8.8,2.7,1.1a57.44,57.44,0,0,1,7.8-14.4c-.9-.5-1.7-1-2.6-1.5-2.4,3.8-4.9,7.7-7.3,11.5.9.4,1.8.8,2.7,1.1a62.43,62.43,0,0,1,5.8-11.2c-.9-.5-1.7-1-2.6-1.5A45.55,45.55,0,0,0,73,51.8c-.6,1.6,1.9,2.6,2.7,1.1s1.7-3.1,2.5-4.7c-.9-.4-1.8-.8-2.7-1.1a55.9,55.9,0,0,1-3.2,6.5c.9.5,1.7,1,2.6,1.5a42.83,42.83,0,0,1,6.2-10.2c-.8-.6-1.6-1.2-2.3-1.8a80.49,80.49,0,0,1-4.6,8.1c.9.5,1.7,1,2.6,1.5a32.36,32.36,0,0,1,4.4-5.9c-.8-.6-1.6-1.2-2.3-1.8a18.71,18.71,0,0,1-5.2,6.3c.8.5,1.7,1,2.5,1.4A24.7,24.7,0,0,1,79.8,44c-.9-.5-1.7-1-2.6-1.5a29,29,0,0,1-4.1,5.8c.8.5,1.7,1,2.5,1.4a17.45,17.45,0,0,1,2.3-6.1c-.9-.5-1.7-1-2.6-1.5a54.6,54.6,0,0,1-4.8,8.5c.9.4,1.8.8,2.7,1.1a22.7,22.7,0,0,1,1.7-5c.8-1.7-1.7-3.2-2.6-1.5s-1.8,3.5-2.7,5.2c.9.4,1.8.8,2.7,1.1.3-1.6.6-3.3,1-4.9a1.51,1.51,0,0,0-2.9-.8,13.3,13.3,0,0,1-2,3.5c.9.3,1.8.5,2.8.8-.2-2.6,1.6-5.4,2.5-7.7-1-.3-1.9-.5-2.9-.8a13.5,13.5,0,0,1-1.9,3.3c.9.5,1.7,1,2.6,1.5a21.16,21.16,0,0,0,1.1-2.1c-.9-.4-1.8-.8-2.7-1.1a10.91,10.91,0,0,1-1.4,3.1c.9.5,1.7,1,2.6,1.5A46,46,0,0,1,77.5,39c-.8-.6-1.6-1.2-2.3-1.8A73.67,73.67,0,0,1,70.9,45c.9.5,1.7,1,2.6,1.5a38.05,38.05,0,0,1,5.6-7.1c-.8-.6-1.6-1.2-2.3-1.8-1.5,2.5-3.1,4.9-4.7,7.3-1.1,1.6,1.5,3.1,2.6,1.5a46.68,46.68,0,0,1,5.7-6.8c-.8-.6-1.6-1.2-2.3-1.8a61.74,61.74,0,0,1-3.9,6c.9.5,1.7,1,2.6,1.5.1-.3.3-.6.4-.9.8-1.7-1.7-3.3-2.6-1.5a151.39,151.39,0,0,0-6.8,16.8c-.6,1.8,2.3,2.6,2.9.8A23.4,23.4,0,0,0,72,53.6c.1-1.7-2.5-2-2.9-.4a26.3,26.3,0,0,1-1.7,5.2c.9.3,1.8.5,2.8.8a26.53,26.53,0,0,1,.7-6.9,1.51,1.51,0,0,0-2.9-.8c-.6,1.4-1.1,2.9-1.7,4.3,1,.1,1.9.3,2.9.4a21.66,21.66,0,0,1,1.3-5c-1-.3-1.9-.5-2.9-.8-.2.5-.3.9-.5,1.4,1,.3,1.9.5,2.9.8a5.71,5.71,0,0,1,1.4-3.5c-.9-.4-1.8-.8-2.7-1.1a9.37,9.37,0,0,1-1.1,3.2c.9.3,1.8.5,2.8.8.2-.7.4-1.5.6-2.2-.9-.3-1.8-.5-2.8-.8a32,32,0,0,1-1.1,8.7c1,.1,1.9.3,2.9.4V56.4c.3-1.8-2.4-2.7-2.9-.8-.2.6-.3,1.2-.5,1.8,1,.1,1.9.3,2.9.4-.1-.6-.1-1.3-.2-1.9a1.48,1.48,0,0,0-2.9-.4c-1.6,5.3-.5,10.9-.1,16.3a1.5,1.5,0,0,0,3,0q.45-4.8,1.2-9.6c-1-.1-1.9-.3-2.9-.4.1,2.4.2,4.8.2,7.2h3a56.31,56.31,0,0,1,.4-8.2h-3c-.2,3.2-.2,6.5-.3,9.7,0,1.9,2.9,1.9,3,0s.1-4,.2-6.1h-3c0,3.2-.2,6.5.1,9.8.1,1.3,2.3,7,.8,7.5.6.2,1.1.5,1.7.7a30.57,30.57,0,0,1-2.4-22.2c-1-.1-1.9-.3-2.9-.4a122.4,122.4,0,0,0,2,14.8c.9-.4,1.8-.8,2.7-1.1-.2-.6-.4-1.1-.6-1.7-1,.3-1.9.5-2.9.8.3,1.3.6,2.6.9,4,1-.3,1.9-.5,2.9-.8-.1-.2-.1-.5-.2-.7-1,.3-1.9.5-2.9.8a8.42,8.42,0,0,1,.7,3.5c.9-.3,1.8-.5,2.8-.8a8.27,8.27,0,0,0-.7-1.3c-.8-1.7-3.4-.2-2.6,1.5a8.27,8.27,0,0,0,.7,1.3c.6,1.3,2.9.7,2.8-.8a15.57,15.57,0,0,0-.8-4.3,1.51,1.51,0,0,0-2.9.8c.1.2.1.5.2.7a1.5,1.5,0,0,0,2.9-.8,32.37,32.37,0,0,0-.9-4c-.5-1.9-3.3-1.1-2.9.8a11.73,11.73,0,0,0,.9,2.4c.8,1.6,3,.4,2.7-1.1a130.84,130.84,0,0,1-1.9-14c-.1-1.6-2.5-2.1-2.9-.4A32.91,32.91,0,0,0,67.9,84a1.62,1.62,0,0,0,1.7.7c2.4-.9,3.3-2.6,2.9-5.2-.4-2.2-1.4-4.1-1.6-6.5-.2-2.8-.1-5.6-.1-8.4,0-1.9-2.9-1.9-3,0s-.1,4-.2,6.1h3c0-3.2.1-6.5.3-9.7.1-2-2.8-1.9-3,0a55.63,55.63,0,0,0-.4,8.2,1.5,1.5,0,0,0,3,0c0-2.4,0-4.8-.2-7.2-.1-1.6-2.6-2.1-2.9-.4-.5,3.4-1,6.9-1.3,10.4h3c-.5-5.1-1.6-10.5-.1-15.5-1-.1-1.9-.3-2.9-.4.1.6.1,1.3.2,1.9.1,1.6,2.5,2.1,2.9.4.2-.6.3-1.2.5-1.8-1-.3-1.9-.5-2.9-.8a6.47,6.47,0,0,0-.1,2.4c.2,1.5,2.5,2.2,2.9.4a38.06,38.06,0,0,0,1.2-9.5c0-1.4-2.1-2.1-2.8-.8A8.2,8.2,0,0,0,67,52a1.53,1.53,0,0,0,2.8.8,14,14,0,0,0,1.4-3.9,1.47,1.47,0,0,0-2.7-1.1A10.36,10.36,0,0,0,66.8,52a1.51,1.51,0,0,0,2.9.8c.2-.5.3-.9.5-1.4.6-1.8-2.2-2.5-2.9-.8a19.67,19.67,0,0,0-1.4,5.8c-.2,1.8,2.4,1.8,2.9.4s1.1-2.9,1.7-4.3c-1-.3-1.9-.5-2.9-.8a28.4,28.4,0,0,0-.8,7.7c0,1.3,2.2,2.2,2.8.8a37.2,37.2,0,0,0,2-5.9c-1-.1-1.9-.3-2.9-.4A17.43,17.43,0,0,1,67.5,60c1,.3,1.9.5,2.9.8a132.12,132.12,0,0,1,6.5-16.1c-.9-.5-1.7-1-2.6-1.5-.1.3-.3.6-.4.9a1.5,1.5,0,0,0,2.6,1.5,38.5,38.5,0,0,0,3.9-6,1.48,1.48,0,0,0-2.3-1.8,55.24,55.24,0,0,0-6.2,7.4c.9.5,1.7,1,2.6,1.5,1.7-2.4,3.2-4.8,4.7-7.3a1.47,1.47,0,0,0-2.3-1.8,34.66,34.66,0,0,0-6,7.7c-1,1.6,1.6,3.1,2.6,1.5A73.67,73.67,0,0,0,77.8,39c.7-1.4-1.1-3.1-2.3-1.8a45.51,45.51,0,0,0-6.9,9.4,1.5,1.5,0,0,0,2.6,1.5,13,13,0,0,0,1.7-3.8,1.47,1.47,0,0,0-2.7-1.1,21.16,21.16,0,0,0-1.1,2.1,1.5,1.5,0,0,0,2.6,1.5,19.4,19.4,0,0,0,2.2-4c.7-1.8-2.1-2.5-2.9-.8-1.2,2.8-2.9,5.5-2.6,8.5a1.55,1.55,0,0,0,2.8.8,19.23,19.23,0,0,0,2.3-4.2c-1-.3-1.9-.5-2.9-.8-.3,1.6-.6,3.3-1,4.9s1.9,2.7,2.7,1.1,1.8-3.5,2.7-5.2c-.9-.5-1.7-1-2.6-1.5a29.7,29.7,0,0,0-2,5.7,1.47,1.47,0,0,0,2.7,1.1,54.6,54.6,0,0,0,4.8-8.5c.8-1.7-1.6-3.2-2.6-1.5a20.84,20.84,0,0,0-2.6,6.8,1.48,1.48,0,0,0,2.5,1.4,35.74,35.74,0,0,0,4.6-6.4c1-1.7-1.5-3.1-2.6-1.5a26.8,26.8,0,0,0-3.9,9.4,1.5,1.5,0,0,0,2.5,1.4,19.05,19.05,0,0,0,5.7-6.9c.7-1.4-1.1-3.1-2.3-1.8a34.63,34.63,0,0,0-4.9,6.5c-1,1.7,1.5,3.1,2.6,1.5a64.85,64.85,0,0,0,4.6-8.1c.7-1.4-1.2-3.2-2.3-1.8a47.7,47.7,0,0,0-6.7,10.8c-.8,1.7,1.6,3.2,2.6,1.5A59.86,59.86,0,0,0,78.6,48c.6-1.6-2-2.7-2.7-1.1s-1.6,3.1-2.5,4.7c.9.4,1.8.8,2.7,1.1a41.52,41.52,0,0,1,2.9-6c1-1.7-1.5-3.1-2.6-1.5a75.16,75.16,0,0,0-6.1,12c-.7,1.6,1.9,2.5,2.7,1.1,2.4-3.8,4.9-7.7,7.3-11.5,1-1.6-1.5-3-2.6-1.5a61,61,0,0,0-8.1,15.1c-.6,1.6,2,2.6,2.7,1.1,2.3-4.4,4.5-8.8,6.8-13.2.9-1.7-1.7-3.2-2.6-1.5-2.5,4.8-5.7,10-6.2,15.5-.1,1.7,2.6,2,2.9.4a9.33,9.33,0,0,1,1.2-3.3c-.9-.4-1.8-.8-2.7-1.1-1.4,5.4-2.5,10.6-1.9,16.1.2,1.9,3,2,3,0V70c0-2-2.8-1.9-3,0a19.67,19.67,0,0,0,.7,8c.4,1.6,3.1,1.3,2.9-.4a5.42,5.42,0,0,0-.6-2.5c-.6-1.4-3.2-1.4-2.9.4A53.1,53.1,0,0,0,72,85.1a1.51,1.51,0,0,0,2.9-.8,27.19,27.19,0,0,0-1.1-3.8,1.51,1.51,0,0,0-2.9.8,31.66,31.66,0,0,0,1.2,4.4c1-.3,1.9-.5,2.9-.8a29.62,29.62,0,0,0-1.5-3.1,1.48,1.48,0,0,0-2.7,1.1c.2.7.3,1.4.5,2,1-.3,1.9-.5,2.9-.8-.4-1.2-.9-2.3-1.3-3.5-.6-1.5-3-1.4-2.9.4,0,1.2.1,2.4.2,3.5.9-.3,1.8-.5,2.8-.8-.8-1.5-1.7-2.9-2.7-4.4-.8-1.1-2.9-.8-2.8.8.2,2.9.2,6.4,3.1,7.9a1.46,1.46,0,0,0,2-2,9.62,9.62,0,0,0-2.3-3c-1.2-1.2-3.4.4-2.3,1.8a11.43,11.43,0,0,0,3.1,3.1,1.52,1.52,0,0,0,2.2-1.7c-.2-.5-.3-1-.5-1.6-.8.5-1.7,1-2.5,1.4a10.16,10.16,0,0,0,5.5,2.4c1.3.2,2-1.8,1.1-2.5-.4-.3-.7-.6-1.1-.9-1.5-1.2-3.6.8-2.1,2.1a62,62,0,0,0,7.7,5.8c.4-.9.8-1.8,1.1-2.7a18.94,18.94,0,0,1-8.7-5.7c-1.1-1.3-3.2.4-2.3,1.8.8,1.2,1.6,2.3,2.5,3.4s3-.1,2.5-1.4a1.42,1.42,0,0,1-.2-.6c-.9.4-1.8.8-2.7,1.1a16.35,16.35,0,0,0,3,4.4c.6-.8,1.2-1.6,1.8-2.3-2.1-1.4-4.7-2.8-6-4.9l-2,2c.7.3,1.3.6,2,.9,1.3.6,2.9-.7,2-2s-1.5-2.4-2.3-3.7c-.8.6-1.6,1.2-2.3,1.8.6.5,1.1,1,1.7,1.5,1.3,1.1,3.5-1,2-2.3Z" transform="translate(-63.82 -25.72)"/><path class="cls-1" d="M119.2,91.1c-1.3.4-2.1-.7-3.3-.6s-2.1,1-3.2,1.3c.1.4.2.8.3,1.1,1-.4,2.1-.4,3.1-.9a32.66,32.66,0,0,0,3.6-2.5c-.2-.3-.5-.6-.7-.9l-.6.6a.57.57,0,0,0,.7.9,15.23,15.23,0,0,0,3.7-3c-.3-.2-.7-.4-1-.6a6,6,0,0,1-1,2.3.63.63,0,0,0,.5.9,1.14,1.14,0,0,0,.8-.3c.6-.5-.3-1.3-.8-.8h.1c.2.3.3.6.5.9a8.49,8.49,0,0,0,1.1-2.6c.1-.5-.6-1-1-.6a15.39,15.39,0,0,1-3.4,2.8c.2.3.5.6.7.9l.6-.6c.4-.5-.1-1.3-.7-.9-1.1.7-2.1,1.5-3.2,2.2s-2.2.6-3.3,1.1c-.7.3-.4,1.4.3,1.1a5.78,5.78,0,0,0,1.4-.5,3.7,3.7,0,0,1,2.1-.6c.2.1.3.2.5.3a4.89,4.89,0,0,0,2.4.1.57.57,0,1,0-.2-1.1Z" transform="translate(-63.82 -25.72)"/><path class="cls-1" d="M122.3,87.1c-.6.8-1.2,1.5-1.8,2.3.5.9,1,1.7,1.5,2.6,2.2-1.7,4.5-3.4,6.7-5.2l-2-2a10.47,10.47,0,0,1-.8,1.1c-1,1.4,1.1,2.9,2.3,1.8,5.1-4.7,10-15,5.9-21.7a1.62,1.62,0,0,0-1.7-.7c-2.9.6-3.9,5.5-4.9,7.9-1.2,2.8-2.3,5.5-3.5,8.2-1,2.1-3.3,8.1-5.8,8.6.4.9.8,1.8,1.1,2.7,5.7-3,9-9.6,12.5-14.7-.9-.5-1.7-1-2.6-1.5l-3,6.9c.9.4,1.8.8,2.7,1.1,1.2-3.1,2.5-6.2,3.9-9.2-.9-.4-1.8-.8-2.7-1.1a44.4,44.4,0,0,1-2.2,6.1c.9.3,1.8.5,2.8.8.5-3.6,1.1-7.1,1.8-10.6-1-.3-1.9-.5-2.9-.8-.6,2.7-1,5.4-3.5,7.2.7.6,1.5,1.1,2.2,1.7a43.47,43.47,0,0,0,2.9-20.2c-1,.1-1.9.3-2.9.4a63.31,63.31,0,0,1,1.6,9.7,1.5,1.5,0,0,0,3,0,63,63,0,0,1,.5-7.5h-3c.3,2.1.6,4.3.8,6.4a1.5,1.5,0,0,0,3,0c.2-1.8.4-3.7.5-5.5h-3c.2,1.8.4,3.5.5,5.3.2,1.5,2.5,2.2,2.9.4a8.2,8.2,0,0,0,.3-3.1c0-1.9-2.9-1.9-3,0a8.44,8.44,0,0,1-.6,3.9c1,.1,1.9.3,2.9.4-.1-4.8-2.4-8.8-2.4-13.7,0-3.8.1-7.1-1.9-10.4a1.52,1.52,0,0,0-2.8.8A47.61,47.61,0,0,0,130,56.7a1.51,1.51,0,0,0,2.9-.8c-.3-1.7-.5-3.3-.8-5-1,.3-1.9.5-2.9.8a58.46,58.46,0,0,0,2.5,9.1,1.51,1.51,0,0,0,2.9-.8,27.84,27.84,0,0,1-1.1-5c-1,.1-1.9.3-2.9.4.5,2.1,1,4.1,1.5,6.2.4,1.6,3.1,1.3,2.9-.4,0-.4-.1-.7-.1-1.1-.2-1.9-3-2-3,0a23.26,23.26,0,0,0,.4,3.7c.3,1.7,3,1.3,2.9-.4A51.94,51.94,0,0,0,131,45.3c-.9.5-1.7,1-2.6,1.5a26,26,0,0,1,3.1,9c.3,1.9,3.1,1.1,2.9-.8a17.84,17.84,0,0,0-1.6-5.1c-.7-1.4-2.7-.6-2.8.8-.4,5.5-.3,11.2-2.9,16.1.9.3,1.8.5,2.8.8a150.3,150.3,0,0,0-3.2-22.2c-.8.5-1.7,1-2.5,1.4.5.6,5.4,7.6,4.4,8.3.8.4,1.7.7,2.5,1.1-.3-5.5-4.1-9.6-7.8-13.4a32.18,32.18,0,0,0-13.7-9c-1.6-.5-2.3,1.4-1.4,2.5,1.1,1.4,2.2,2.8,3.2,4.1.5-.8,1-1.7,1.4-2.5a6.47,6.47,0,0,1-2.9-1.1,1.5,1.5,0,0,0-1.5,2.6c.7.6,1.3,1.2,2,1.8.8-.6,1.6-1.2,2.3-1.8a9.49,9.49,0,0,1-3.1-3.2c-.6.7-1.1,1.5-1.7,2.2a18.89,18.89,0,0,1,5,2.8c.4-.9.8-1.8,1.1-2.7a13.77,13.77,0,0,1-4.6-1.8,1.5,1.5,0,0,0-1.5,2.6,15.55,15.55,0,0,0,8.1,2.6c1.6.1,1.9-2,.8-2.8-2.7-1.8-5.4-3.6-8-5.5-1.4-.9-3.1,1.3-1.8,2.3,2.2,1.8.9-.7.8-2.7-.7.4-1.5.9-2.2,1.3a8.52,8.52,0,0,1,3.4,3.9c.6-.7,1.1-1.5,1.7-2.2-2.1-1.9-2.4-2.3-.8-1a7.21,7.21,0,0,1,2,1.9c.6-.8,1.2-1.6,1.8-2.3a9.42,9.42,0,0,1-4.4-4.2c-.4.7-.9,1.5-1.3,2.2,6.4.8,12,9.3,16.2,13.7,1.4,1.4,3.3-.6,2.1-2.1s-2.3-2.9-3.4-4.4-3.3.6-2.1,2.1,2.3,2.9,3.4,4.4l2.1-2.1C121.1,38.9,116,30.8,108,29.8a1.49,1.49,0,0,0-1.3,2.2,12.79,12.79,0,0,0,5.5,5.3A1.48,1.48,0,0,0,114,35c-2-2.3-5.2-5.2-8.4-3.4a1.36,1.36,0,0,0-.7,1.3c.1,3.2,2.2,5.1,5,6.2,1.3.5,2.2-1.2,1.7-2.2a13.56,13.56,0,0,0-4.5-5,1.44,1.44,0,0,0-2.2,1.3c.1,2.8,1.5,8.5,5.8,6.9,3.9-1.5.1-5-1.6-6.3-.6.8-1.2,1.6-1.8,2.3,2.7,1.8,5.4,3.6,8,5.5.3-.9.5-1.8.8-2.8a12.88,12.88,0,0,1-6.6-2.1c-.5.9-1,1.7-1.5,2.6a18.93,18.93,0,0,0,5.3,2.1,1.48,1.48,0,0,0,1.1-2.7,21.06,21.06,0,0,0-5.7-3.1c-1.2-.5-2.4,1.1-1.7,2.2a12.72,12.72,0,0,0,3.5,3.8c1.2.9,3.4-.3,2.3-1.8a8,8,0,0,0-3-2.8c-.5.9-1,1.7-1.5,2.6a12.23,12.23,0,0,0,3.6,1.4,1.5,1.5,0,0,0,1.4-2.5c-1.1-1.4-2.2-2.8-3.2-4.1-.5.8-1,1.7-1.4,2.5,7.3,2.3,18.7,11.3,19.2,19.6a1.52,1.52,0,0,0,2.5,1.1c.2-.2.4-.3.6-.5a1.49,1.49,0,0,0,.4-1.4A29.59,29.59,0,0,0,126,45.1c-1-1.3-2.8.1-2.5,1.4A129.55,129.55,0,0,1,126.6,68c.1,1.4,2.1,2.2,2.8.8,2.8-5.5,2.8-11.6,3.3-17.7-.9.3-1.8.5-2.8.8a9.78,9.78,0,0,1,1.3,4.4c1-.3,1.9-.5,2.9-.8a30.31,30.31,0,0,0-3.4-9.7c-1-1.7-3.3-.2-2.6,1.5a47.29,47.29,0,0,1,3.8,16.6c1-.1,1.9-.3,2.9-.4-.1-1-.2-1.9-.3-2.9h-3c0,.4.1.7.1,1.1,1-.1,1.9-.3,2.9-.4-.5-2.1-1-4.1-1.5-6.2-.4-1.6-3.1-1.3-2.9.4a37.29,37.29,0,0,0,1.2,5.8c1-.3,1.9-.5,2.9-.8a94.07,94.07,0,0,1-2.5-9.1c-.4-1.9-3.2-1.1-2.9.8.3,1.7.5,3.3.8,5,1-.3,1.9-.5,2.9-.8A46,46,0,0,1,130.2,46c-.9.3-1.8.5-2.8.8,2.4,4,1.2,8.1,1.5,12.4.3,3.6,2.3,6.6,2.4,10.2a1.48,1.48,0,0,0,2.9.4,25.42,25.42,0,0,0,.7-4.7h-3a19.42,19.42,0,0,0-.2,2.4c1,.1,1.9.3,2.9.4-.2-1.8-.4-3.5-.5-5.3a1.5,1.5,0,0,0-3,0c-.2,1.8-.4,3.7-.5,5.5h3c-.3-2.1-.6-4.3-.8-6.4a1.5,1.5,0,0,0-3,0c-.3,2.5-.4,5-.5,7.5h3a72.74,72.74,0,0,0-1.7-10.4c-.4-1.6-3.1-1.3-2.9.4a42.88,42.88,0,0,1-2.8,19.4c-.5,1.2,1.2,2.4,2.2,1.7,3.1-2.2,4.2-5.3,4.9-9,.4-1.9-2.5-2.7-2.9-.8a111,111,0,0,0-1.9,11.3c-.2,1.4,2.2,2.1,2.8.8a55.41,55.41,0,0,0,2.5-6.8c.5-1.6-2-2.7-2.7-1.1q-2.25,5-4.2,9.9c-.6,1.6,2.1,2.7,2.7,1.1l3-6.9a1.5,1.5,0,0,0-2.6-1.5c-3.2,4.7-6.3,10.9-11.5,13.6-1.6.8-.4,3,1.1,2.7,4.1-.7,6.1-6.7,7.6-10,1-2.2,1.9-4.4,2.8-6.6.2-.5,2.8-8,3.8-8.2-.6-.2-1.1-.5-1.7-.7,3.4,5.6-1.5,14.4-5.5,18.1.8.6,1.6,1.2,2.3,1.8a10.47,10.47,0,0,1,.8-1.1c.8-1.2-.8-2.9-2-2-2.2,1.7-4.5,3.4-6.7,5.2-1.5,1.1-.1,3.7,1.5,2.6a8.11,8.11,0,0,0,3.1-4c1.5-2.6-1.3-3.4-2-1.6Z" transform="translate(-63.82 -25.72)"/><path class="cls-1" d="M74.4,59.6c1.2-2.9,1.8-4.3,4.4-6.1a44.18,44.18,0,0,0,5.3-4.4c-.8-.6-1.6-1.2-2.3-1.8a7.51,7.51,0,0,1-2.2,2.5c-1.5,1.2.6,3.3,2.1,2.1A98,98,0,0,1,94,43.1c-.6-.8-1.2-1.6-1.8-2.3A25.38,25.38,0,0,1,87,44.9c.5.9,1,1.7,1.5,2.6a150,150,0,0,0,13-10.9l-2.1-2.1c-2.3,2.5-4.4,5.2-7.3,6.9-3.1,1.7-6.5,3-9.7,4.5.7.6,1.5,1.1,2.2,1.7.7-.9,1.4-1.9,2.2-2.8-.6-.8-1.2-1.6-1.8-2.3a18,18,0,0,1-4,3.8c0,.4-.1.7-.1,1.1a14.33,14.33,0,0,1,.9-4.1,1.49,1.49,0,0,0-2.5-1.4,9.23,9.23,0,0,1-2.9,2.3q-2.85,2.25-2.4-.9c-.8-.4-1.7-.7-2.5-1.1a4.1,4.1,0,0,0,.1,1.1,23.07,23.07,0,0,1,1.9-1.4c.5.1,6.5-6.5,7.5-7.2,1.3-1.1-.4-3.2-1.8-2.3a16.4,16.4,0,0,0-4.7,4c-1.1,1.5.7,3.5,2.1,2.1a35,35,0,0,1,20-9.5c-.4-.8-.7-1.7-1.1-2.5-5.4,4.4-12.2,6.2-17.2,11.1-1.4,1.4.7,3.3,2.1,2.1,1.2-1,2.4-2.1,3.6-3.1s-.4-3.3-1.8-2.3a40.84,40.84,0,0,1-5.7,3.4c.6.8,1.2,1.6,1.8,2.3a11.45,11.45,0,0,1,3.2-3c-.6-.8-1.2-1.6-1.8-2.3-.7.5-1.4,1-2.2,1.5.6.8,1.2,1.6,1.8,2.3a33.32,33.32,0,0,1,8.5-6.4c-.7-.6-1.5-1.1-2.2-1.7-.4,2-7.1,6-8.7,7.2L79,39.7a44.14,44.14,0,0,1,9.8-7.9c-.7-.6-1.5-1.1-2.2-1.7-1.5,4.1-6,8.2-8.7,11.6-1.2,1.5.7,3.5,2.1,2.1a87.57,87.57,0,0,1,10.7-9.5c-.6-.8-1.2-1.6-1.8-2.3-3.3,4-6.8,7.9-10.3,11.8l2.1,2.1A47.93,47.93,0,0,1,91.4,36l-2-2c-2.3,4-5.9,7.3-8.9,10.7-1.3,1.4.7,3.5,2.1,2.1a101.44,101.44,0,0,1,9.2-8c-.6-.8-1.2-1.6-1.8-2.3a78.84,78.84,0,0,1-9.3,9l2.1,2.1a52.86,52.86,0,0,1,7.2-7c-.8-.6-1.6-1.2-2.3-1.8a18.21,18.21,0,0,1-1.5,2.7,1.47,1.47,0,0,0,2.3,1.8,36.77,36.77,0,0,1,7.3-5.7l-2-2a22.8,22.8,0,0,1-4.6,4.7l2.1,2.1A33,33,0,0,1,97,37.6c-.6-.8-1.2-1.6-1.8-2.3a44.65,44.65,0,0,1-4.3,3.3c.6.8,1.2,1.6,1.8,2.3a26,26,0,0,1,9.9-6.4c-.5-.8-1-1.7-1.4-2.5a14.23,14.23,0,0,1-7.3,4.2c.6.7,1.1,1.5,1.7,2.2a8.84,8.84,0,0,1,4.7-4.8c-.6-.8-1.2-1.6-1.8-2.3a17.79,17.79,0,0,1-6.9,5.2c.6.7,1.1,1.5,1.7,2.2,1.8-3.2,4.3-5.2,7.4-7.1l-2-2a11.64,11.64,0,0,1-6.4,4.9l1.8,1.8c.5-2.2,3.7-3.4,5.5-4.2l-2-2a9,9,0,0,1-5,3.6c.6.7,1.1,1.5,1.7,2.2a6.36,6.36,0,0,1,4-4c-.5-.8-1-1.7-1.4-2.5a8.38,8.38,0,0,1-4.5,3.1c.6.7,1.1,1.5,1.7,2.2a8.8,8.8,0,0,1,5.1-4.2c-.6-.7-1.1-1.5-1.7-2.2-.5.7-3.9,5-5.4,4.6a23.35,23.35,0,0,0,.7,2.5c1.4-1.7,3.6-4.9,5.8-5.6,1.5-.5,1.4-.3,2.4,1.3a72.27,72.27,0,0,0,6.8,8.9c.4-.8.7-1.7,1.1-2.5-3.1,0-5.9-1.2-9-1.1a1.48,1.48,0,0,0-.4,2.9,43.26,43.26,0,0,1,5.6,2.2c.4-.9.8-1.8,1.1-2.7-.8-.4-1.6-.7-2.5-1.1-.5.9-1,1.7-1.5,2.6a25.21,25.21,0,0,0,8.4,3.2c.1-1,.3-1.9.4-2.9-.7-.1-1.4-.1-2.2-.2-1.9-.2-1.9,2.8,0,3a20.28,20.28,0,0,1,5.4,1.3c.1-1,.3-1.9.4-2.9a14.33,14.33,0,0,1-4.1-.9c-.3,1-.5,1.9-.8,2.9,1.9.5,4.6,0,6.2,1.2a25.12,25.12,0,0,1,.4-2.7,8.33,8.33,0,0,0-1.5.4c-1.6.4-1.3,3.1.4,2.9a58.79,58.79,0,0,1,7.3-.2,1.49,1.49,0,0,0,1.1-2.5c-6-5.4-14-5-21.3-7.4a25.12,25.12,0,0,0,.4,2.7,13.13,13.13,0,0,0,4.3-3.1,11,11,0,0,1-1.8.2c0-1-.1-2-.1-3a19.45,19.45,0,0,0,.5-2c-.3.1-.6.3-.9.4a1.54,1.54,0,0,0,0-2.6l-1.8-.9c-1.7-.9-3.2,1.7-1.5,2.6l1.8.9V28.1c-.1,0-.2.1-.3.1a1.36,1.36,0,0,0-.7,1.3c.2,7,9.3,1.8,4.3-1.5-5.7-3.7-4.6,8.7.7,4.8a1.46,1.46,0,0,0,.5-2c-1.3-2.7-5.9-1.8-6.6,1a2.79,2.79,0,0,0,4.3,3c2.3-1.6,1-5.3-1.8-5.3-3.2,0-3.9,4.2-1.5,5.9a3,3,0,0,0,4.8-2.5c-.4-3.5-5.1-3.4-6.1-.3-2.6,7.8,13.2,5.1,6,.2a1.51,1.51,0,0,0-1.8.2,9.59,9.59,0,0,1-3.7,2.6c-1.3.5-.7,2.4.4,2.7,6.7,2.1,14.5,1.7,20,6.6.4-.8.7-1.7,1.1-2.5a44.83,44.83,0,0,0-7.3.2c.1,1,.3,1.9.4,2.9a8.33,8.33,0,0,0,1.5-.4,1.53,1.53,0,0,0,.4-2.7c-2.2-1.6-4.4-.8-6.9-1.5a1.51,1.51,0,0,0-.8,2.9,43.11,43.11,0,0,0,4.9,1.1c1.8.2,1.8-2.4.4-2.9a25.54,25.54,0,0,0-6.2-1.5v3c.7.1,1.4.1,2.2.2,1.7.1,2-2.6.4-2.9a21.86,21.86,0,0,1-7.7-2.9c-1.7-1-3.1,1.5-1.5,2.6a5.48,5.48,0,0,0,3.2,1.4c1.6.4,2.7-2,1.1-2.7a48.56,48.56,0,0,0-6.3-2.5c-.1,1-.3,1.9-.4,2.9,3.1-.1,5.9,1.1,9,1.1a1.49,1.49,0,0,0,1.1-2.5c-2.4-2.8-4.1-5.6-6.2-8.5-.6-.9-1.5-2.5-2.5-3-3.6-1.9-8.7,4.7-10.5,7a1.51,1.51,0,0,0,.7,2.5c3.4,1,7-3.6,8.7-5.9.8-1-.5-2.6-1.7-2.2a12,12,0,0,0-6.9,5.6,1.51,1.51,0,0,0,1.7,2.2,11,11,0,0,0,5.9-3.8c.8-1,.1-3.1-1.4-2.5A9.4,9.4,0,0,0,92.3,35c-.5,1.1.3,2.7,1.7,2.2a13.52,13.52,0,0,0,6.8-5c1-1.3-.9-2.5-2-2-2.9,1.2-6.1,2.7-6.9,6-.2,1,.7,2.2,1.8,1.8a15,15,0,0,0,8.1-6.3,1.46,1.46,0,0,0-2-2,23.86,23.86,0,0,0-8.5,8.2c-.6,1,.4,2.7,1.7,2.2a21.06,21.06,0,0,0,8.2-5.9,1.47,1.47,0,0,0-1.8-2.3,11.15,11.15,0,0,0-5.8,5.9A1.52,1.52,0,0,0,95.3,40a16.69,16.69,0,0,0,8.7-5c1-1,0-3-1.4-2.5a28.19,28.19,0,0,0-11.2,7.1c-1.1,1.2.4,3.3,1.8,2.3a37.54,37.54,0,0,0,4.9-3.8c1.2-1.1-.4-3.3-1.8-2.3A40.19,40.19,0,0,0,90,41.1c-1.4,1.4.6,3.3,2.1,2.1a28.4,28.4,0,0,0,5.1-5.3c.9-1.2-.8-2.8-2-2a46.89,46.89,0,0,0-7.9,6.2c.8.6,1.6,1.2,2.3,1.8a11.74,11.74,0,0,0,1.5-2.7,1.48,1.48,0,0,0-2.3-1.8,52.86,52.86,0,0,0-7.2,7,1.49,1.49,0,0,0,2.1,2.1,72,72,0,0,0,9.3-9c1-1.2-.4-3.4-1.8-2.3a111.4,111.4,0,0,0-9.8,8.4l2.1,2.1c3.2-3.6,6.9-7.1,9.4-11.3.7-1.2-.8-2.9-2-2A48.6,48.6,0,0,0,79.6,44.8c-1.2,1.5.8,3.6,2.1,2.1C85.2,43,88.6,39.1,92,35.1c1-1.2-.3-3.4-1.8-2.3a82.61,82.61,0,0,0-11.3,9.9L81,44.8c3.2-4,7.6-8.1,9.4-12.9.5-1.2-1.1-2.3-2.2-1.7a46.32,46.32,0,0,0-10.4,8.3,1.49,1.49,0,0,0,2.1,2.1c2.5-2,8.9-5.1,9.5-8.5a1.53,1.53,0,0,0-2.2-1.7,32.22,32.22,0,0,0-9.1,6.9,1.47,1.47,0,0,0,1.8,2.3,11,11,0,0,0,2.8-2c1.2-1.1-.4-3.3-1.8-2.3a17.49,17.49,0,0,0-3.8,3.4A1.47,1.47,0,0,0,78.9,41a65.89,65.89,0,0,0,5.7-3.4c-.6-.8-1.2-1.6-1.8-2.3-1.2,1-2.4,2.1-3.6,3.1l2.1,2.1c5-4.8,11.9-6.8,17.2-11.1a1.46,1.46,0,0,0-1.1-2.5A38.23,38.23,0,0,0,75.3,37.2l2.1,2.1a14.2,14.2,0,0,1,4.1-3.6c-.6-.8-1.2-1.6-1.8-2.3-1.4,1.1-12.9,10.9-6.2,12.2a1.52,1.52,0,0,0,1.9-1.4,4.1,4.1,0,0,0-.1-1.1A1.5,1.5,0,0,0,72.8,42c-1.9,1.8-2.8,5.2.2,6.6s7.3-1.8,9.2-3.8c-.8-.5-1.7-1-2.5-1.4-.6,1.8-2.3,6.2.3,7.3s6.6-3.6,7.8-5.2c1-1.2-.3-3.4-1.8-2.3a8.44,8.44,0,0,0-3.5,4.6c-.5,1.3,1.1,2.2,2.2,1.7,3.6-1.6,7.7-3,11-5.2,2.6-1.7,4.6-4.3,6.6-6.6a1.49,1.49,0,0,0-2.1-2.1A151.71,151.71,0,0,1,87.8,46c-1.5,1.1-.2,3.6,1.5,2.6A28.65,28.65,0,0,0,95.1,44a1.47,1.47,0,0,0-1.8-2.3,107.59,107.59,0,0,0-12.9,9.2L82.5,53a11,11,0,0,0,2.6-3.1,1.48,1.48,0,0,0-2.3-1.8c-2.3,2.1-5.3,3.4-7.4,5.5-1.4,1.3-2,3.8-2.7,5.5-1.6.7.9,2.2,1.7.5Z" transform="translate(-63.82 -25.72)"/><path class="cls-1" d="M105.9,30.5a7.62,7.62,0,0,1-2.9-1.3,11,11,0,0,0-.2,1.8c1.1-1.4,2.7-1.7,2.1-3.8a1.6,1.6,0,0,0-1.4-1.1H103a1.5,1.5,0,0,0-1.4,1.1c0,.1-.1.3-.1.4a1.43,1.43,0,0,0,1,1.8,18.39,18.39,0,0,1,7.4,3c.4-.9.8-1.8,1.1-2.7l-1.8-1.2c-.4.7-.9,1.5-1.3,2.2,9.1.4,14.2,11.9,20,17.4a1.46,1.46,0,0,0,2.5-1.1c-.1-3.3-1.7-5.2-4.2-7.2-3.7-3-7.4-5.9-10.8-9.1-.4.8-.7,1.7-1.1,2.5H116a1.53,1.53,0,0,0,.8-2.8,1,1,0,0,1-.5-.4c-.4.9-.8,1.8-1.1,2.7,3.9,1.2,6,4.3,8.6,7.3s4.8,5.5,6.4,9.1c.6,1.5,2.7.6,2.8-.8.2-4.2-2.5-8-5.6-10.7-4-3.5-9.4-4.1-13.1-8-.1.8-.2,1.6-.3,2.3.4-.2,4.1,6.2,4.7,6.9,2.3,3.1,4.4,5.2,5.7,9,.9-.4,1.8-.8,2.7-1.1a8.87,8.87,0,0,0-4-3.9c-.4.9-.8,1.8-1.1,2.7,12.1,3.8,9.3,20.3,8.7,30-.1,1.9,2.9,1.9,3,0,.6-11.3,3-28.5-10.9-32.9a1.47,1.47,0,0,0-1.1,2.7,4.89,4.89,0,0,1,2.9,2.9c.8,1.5,3.3.5,2.7-1.1-1.9-5.3-5.4-8.7-8.4-13.4-1.5-2.3-3.3-5.9-6.4-4.3a1.47,1.47,0,0,0-.3,2.3c5.3,5.5,18.2,6.7,17.7,16.5.9-.3,1.8-.5,2.8-.8-1.9-4.6-4.8-7.4-7.9-11.1-2.5-3-4.9-5.5-8.8-6.7a1.47,1.47,0,0,0-1.1,2.7,1,1,0,0,1,.5.4c.3-.9.5-1.8.8-2.8h-1.7a1.52,1.52,0,0,0-1.1,2.5c2.3,2.1,4.6,4.1,7,6.1s7,4.4,7.2,8.1c.8-.4,1.7-.7,2.5-1.1-6.7-6.4-11.6-17.8-22.1-18.3-1,0-2,1.3-1.3,2.2a6.52,6.52,0,0,0,3.5,2.6c1.7.6,2.5-1.8,1.1-2.7a22,22,0,0,0-8.1-3.3c.3.6.7,1.2,1,1.8,0-.1.1-.3.1-.4a17.1,17.1,0,0,0-1.4,1.1h.5a17.1,17.1,0,0,1-1.4-1.1c-.2-.9-1.7,1.4-1.4.9a1.52,1.52,0,0,0-.2,1.8c.9,1.8,2.9,2.1,4.7,2.7,1.8,1.2,2.6-1.7.8-2.3Z" transform="translate(-63.82 -25.72)"/><path d="M71.1,88.9c-8.5-10.3-6.6-28.7-2.7-40.5,2.2-6.8,5.3-12.7,11.6-16.3A36,36,0,0,1,101.2,27a.6.6,0,1,0,0-1.2,37.09,37.09,0,0,0-21.8,5.3c-6.1,3.5-9.2,8.9-11.6,15.4C63.2,59,61,78.7,70.2,89.8c.5.6,1.4-.3.9-.9Z" transform="translate(-63.82 -25.72)"/><path d="M68.9,88.4a22,22,0,0,0,10.2,6.7c.5.2.9-.4.7-.9-5.6-11-8.4-26.2-3.3-37.8.3-.7-.7-1.3-1-.6-5.3,12.1-2.5,27.6,3.3,39,.2-.3.5-.6.7-.9a21.72,21.72,0,0,1-9.6-6.4.67.67,0,0,0-1,.9Z" transform="translate(-63.82 -25.72)"/><path d="M71.8,56.6c5.4-.4,10.6-4.6,15.2-7.3,5.6-3.2,10.8-6.7,15-11.7.5-.6-.4-1.4-.8-.8-3.7,4.4-8.4,7.7-13.3,10.7-4.5,2.7-10.7,7.5-16,7.9-.9.1-.9,1.3-.1,1.2Z" transform="translate(-63.82 -25.72)"/><path d="M76.7,56.3a1.64,1.64,0,0,1,.7-1.1c.6-.5-.3-1.3-.8-.8a3.36,3.36,0,0,0-1,1.6.57.57,0,0,0,1.1.3Z" transform="translate(-63.82 -25.72)"/><path d="M78.5,93c3.6.8,6.7,1.8,10.4,1.9a.6.6,0,1,0,0-1.2c-3.6-.1-6.7-1.1-10.1-1.8a.57.57,0,1,0-.3,1.1Z" transform="translate(-63.82 -25.72)"/><path d="M100.5,27.1c7.2.7,14.7,2.1,20.8,6.3a29,29,0,0,1,12.8,18.5,63,63,0,0,1,.1,23.7c-1.3,8-8.7,16.1-17.2,16.6.1.3.3.7.4,1,4.3-5.1,7.1-11.6,9.3-17.9,2.5-7.1,1.7-13.9.1-21.1-.2-.8-1.3-.4-1.2.3,1.5,7,2.3,13.6-.1,20.5-2.1,6-4.9,12.4-9,17.4-.3.4-.1,1.1.4,1,6.8-.4,14-6,17-12.1,1.7-3.4,1.8-8.1,2.2-11.8a64,64,0,0,0-.3-14.5c-1.4-9.5-5-15.9-12.6-21.7-6.5-5-14.8-6.7-22.8-7.5-.6,0-.6,1.2.1,1.3Z" transform="translate(-63.82 -25.72)"/><path d="M111,93.8a11.74,11.74,0,0,0,5.8-1.3.58.58,0,1,0-.6-1,10,10,0,0,1-5.1,1.1.6.6,0,1,0-.1,1.2Z" transform="translate(-63.82 -25.72)"/><path d="M99.6,40.1A46.46,46.46,0,0,0,114,45.5c2,.4,4.1.2,6.1.7,4.1,1,4.3,5,5.5,8.5.2.7,1.4.4,1.2-.3-.9-2.9-1.3-7.9-4.1-9.3-1.1-.6-3.8-.1-5.1-.2a35.47,35.47,0,0,1-6.5-1.2,46.53,46.53,0,0,1-10.8-4.5c-.8-.5-1.4.5-.7.9Z" transform="translate(-63.82 -25.72)"/><path class="cls-1" d="M86.4,42h0a3,3,0,0,0,.1-4.3,3,3,0,0,0-4.2,0l-.1.1A3,3,0,1,0,86.4,42Z" transform="translate(-63.82 -25.72)"/><path class="cls-1" d="M126.3,39.8c-1-1.9-2.6-3.5-3.5-5.4l-.8.8a13.15,13.15,0,0,1,2.5,2.2l.8-.8a12.39,12.39,0,0,0-2.2-1.8c-.6-.4-1.2.6-.6,1a10.08,10.08,0,0,1,1.9,1.7c.5.6,1.4-.3.8-.8a13.12,13.12,0,0,0-2.8-2.4c-.5-.4-1.1.3-.8.8,1,2,2.5,3.5,3.5,5.4.6.6,1.6,0,1.2-.7Z" transform="translate(-63.82 -25.72)"/><path class="cls-2" d="M73.3,53.4c8.9-4.1,15.8-9.6,22.8-16.2.6-.5-.3-1.4-.8-.8C88.4,43,81.4,48.5,72.7,52.5c-.7.2-.1,1.2.6.9Z" transform="translate(-63.82 -25.72)"/><path class="cls-2" d="M75.3,88.9C67.7,81.3,67.6,72,69,62c.1-.7-1-1.1-1.1-.3-1.4,10.5-1.3,20.2,6.6,28.1.5.4,1.3-.4.8-.9Z" transform="translate(-63.82 -25.72)"/><path class="cls-2" d="M73.3,44.4c-.2-.8,2.3-3.1,2.9-3.7,1.2-1.2,2.4-2.4,3.6-3.5a47.25,47.25,0,0,1,8.6-6,.58.58,0,1,0-.6-1,51.31,51.31,0,0,0-10.3,7.5c-1.3,1.3-6,4.9-5.3,7a.57.57,0,1,0,1.1-.3Z" transform="translate(-63.82 -25.72)"/><path class="cls-2" d="M104,39.2a32.91,32.91,0,0,0,15.3,4,.6.6,0,1,0,0-1.2,31.63,31.63,0,0,1-14.7-3.9c-.6-.3-1.3.7-.6,1.1Z" transform="translate(-63.82 -25.72)"/><path class="cls-2" d="M121.8,90.8a29.83,29.83,0,0,0,8.6-10.4c2.5-4.8,2.6-9.7,4.5-14.6.3-.7-.9-1-1.1-.3-1.7,4.3-1.7,8.7-3.7,13a29.68,29.68,0,0,1-8.9,11.3c-.6.4,0,1.4.6,1Z" transform="translate(-63.82 -25.72)"/></svg>