<svg id="Layer_1" data-name="Layer 1" xmlns="http://www.w3.org/2000/svg" viewBox="0 0 72.49 69.42"><defs><style>.cls-1{fill:#602f13;}.cls-2{fill:#613515;}</style></defs><title>Brown</title><path class="cls-1" d="M70.9,87.3c.7.8,1.4,1.6,2.2,2.4l.6-1-1.6-1c-.5-.4-1.4.2-.9.7l.7.9.9-.7-1.3-1.2a.61.61,0,0,0-1,.6,3.92,3.92,0,0,0,.8,1.4l.8-.8-.7-.8-.8.8a23.81,23.81,0,0,0,7.7,5.2.63.63,0,0,0,.8-.3.62.62,0,0,0-.1-.7L77.6,91,77,92a48,48,0,0,0,6.6,1.2.65.65,0,0,0,.6-.6.55.55,0,0,0-.3-.5c-1.1-.5-2.3-1-3.4-1.5-.6-.3-1,.8-.5,1.1a8.08,8.08,0,0,0,3.1,1,.65.65,0,0,0,.6-.6.76.76,0,0,0-.2-.4c-1.2-1-2.5-1.8-3.8-2.7l-.6,1,3.6,1.5a.68.68,0,0,0,.8-.4c.1-.2,0-.4-.2-.6a44.46,44.46,0,0,1-7.8-7.2c-.5-.6-1.3.3-.8.8a41.79,41.79,0,0,0,9.1,7.7l.5-1.1a6.4,6.4,0,0,1-2.6-1l-.6,1,3.6,2,.3-1.1-2.4-.2c-.7-.2-1.1,1-.3,1.2a12.82,12.82,0,0,0,2.7.5l.2-1.2H83.4c-.7,0-.7.9-.2,1.2a4.28,4.28,0,0,0,1.6.5l.2-1.2a2.62,2.62,0,0,0-1.5.2c-.6.2-.5,1.3.2,1.2a9.71,9.71,0,0,1,3.4,0l.2-1.2-3.1.3V94a26.8,26.8,0,0,1,4-.2V92.5H85.6a.61.61,0,0,0-.2,1.2,12,12,0,0,0,3.8.3.65.65,0,0,0,.6-.6.55.55,0,0,0-.3-.5A40.37,40.37,0,0,0,83.6,90c-.6-.2-1.1.8-.5,1.1a50.54,50.54,0,0,1,5.3,2.4c.2.1.2.6.4.7a.62.62,0,0,0,.7.1l.1-.1c.7-.3.1-1.4-.6-1,.6-.3.9.2.2-.7-.8-1.1-4.4-2-5.6-2.5L83,91.2a32,32,0,0,1,5.6,2.7l.3-1.1a8.21,8.21,0,0,1-3.5-.2l-.1,1.2h2.6a.54.54,0,0,0,.5-.7.47.47,0,0,0-.5-.5,26.8,26.8,0,0,0-4,.2c-.8.1-.8,1.3,0,1.2l3.1-.3c.6-.1.9-1.1.2-1.2a11.48,11.48,0,0,0-3.7,0l.2,1.1,1.2-.1a.65.65,0,0,0,.6-.6.46.46,0,0,0-.4-.5,4.28,4.28,0,0,1-1.6-.5L83.2,93H85c.7,0,.8-1.1.2-1.2a10.89,10.89,0,0,1-2.6-.5l-.3,1.2a12.41,12.41,0,0,0,2.7.3.65.65,0,0,0,.6-.6.55.55,0,0,0-.3-.5l-3.6-2a.68.68,0,0,0-.8.4c-.1.2,0,.4.2.6a9.61,9.61,0,0,0,2.8,1.1.58.58,0,0,0,.6-.6.76.76,0,0,0-.2-.5,43.15,43.15,0,0,1-8.9-7.6l-.7.9a43.14,43.14,0,0,0,8,7.4l.6-1-3.6-1.5a.68.68,0,0,0-.8.4c-.1.2,0,.4.2.6,1.2.8,2.4,1.6,3.5,2.5l.4-1-2.5-.8L80,91.7a29.17,29.17,0,0,1,3.1,1.4l.3-1.1a42.3,42.3,0,0,1-6.2-1.1.57.57,0,0,0-.7.4c-.1.2,0,.4.2.6l1.4,1.8.7-.9a25.24,25.24,0,0,1-7.5-5c-.6-.6-1.3.3-.8.8l.7.8c.5.6,1.3-.3.8-.8l-.5-.9-1,.6,1.3,1.2c.5.4,1.4-.2.9-.7l-.7-.9-.9.7a4.47,4.47,0,0,0,2.2,1.3.61.61,0,0,0,.6-1,17,17,0,0,1-2.2-2.4c-.4-.7-1.3.2-.8.8Z" transform="translate(-64.43 -26.12)"/><path class="cls-1" d="M86.1,36.7l-1.5.2,1.5,5.5,1.1-.6-2.3-5.4L80,38.5l4.1,4.1.5-1c1.1-2.5-1.3-5.8-4.1-4.1A55.59,55.59,0,0,0,70,45.8l5,2.9A16.07,16.07,0,0,1,79.6,40l-4.7-3.6-.5.6c-2.2,2.9,2.3,5.5,4.7,3.6a9.38,9.38,0,0,1,3.2-1.9L80,33.3a4.78,4.78,0,0,1-1.7,1l3,5.1,1-.7c1.8-1.3,2.1-5-.7-5.4l-1.1-.2.7,5.4c2.6-1.3,5.2-2.6,7.8-3.8,3.1-1.4.9-6.3-2.3-5.4a6.71,6.71,0,0,0-2.3,1,3,3,0,0,0,2.3,5.5c1.7-.4,3.3-.8,5-1.3,3.8-1.1,2.1-6.4-1.6-5.7l-2,.2,1.5,5.8c2.8-1.1,5.3-2,8.4-1.8l-2.9-3.8c-.2,1-7.1,2.9-8.2,3.4a20.17,20.17,0,0,0-7,4.9,3,3,0,0,0,0,4.2,3.36,3.36,0,0,0,2.9.8A51.94,51.94,0,0,0,93.4,38l-3.6-4.7c-2.1,2.1-4.8,4.2-6.2,6.8a3.19,3.19,0,0,0,.5,3.6c2.3,2.7,6.3,1.2,8.7-.5l-3.6-4.7a8.39,8.39,0,0,0-2.3,2.3c-1.6,1.8-.7,5.3,2.1,5.1a6.84,6.84,0,0,0,4.8-2.1c2.7-2.8-1.3-6.5-4.2-4.2l-2.1,1.7c-2.2,1.8-.2,4.9,2.1,5.1,3.8.3,6.9-3.8,9.4-6.2l-4.7-3.6L93,38.1c-2.2,2.8,2.3,5.8,4.7,3.6l4.4-4-4.2-4.2L96,35.4l5,2.9c.4-1.8.2-3.4-1.5-4.5-1.9-1.2-3.2-.2-5.1-.2l2.1,5.1a3.59,3.59,0,0,1,2.1-1.5L95,32.5a5.07,5.07,0,0,1-3,1.7l2.9,5,1.1-1-2.9-5c-3,2.4-6.1,4.6-9.3,6.7L87.9,44l1-.8-3.6-4.7A28.51,28.51,0,0,1,79.8,42l4.1,4.1.8-.6-2.9-5a21.66,21.66,0,0,1-4.4,3.6L81,48.8l1.2-1.1-2.9-5a33.9,33.9,0,0,1-4.5,4l4.1,4,.9-.8-4.1-4.1c-2.1,2.8-4.8,3.3-5,7.1-.1,1.8,2,3.6,3.8,2.9a53.81,53.81,0,0,0,15.7-10l-4.7-3.6-1.4,1.5,3.6,4.7A9.46,9.46,0,0,1,90.1,47l-3.6-4.7c-5.2,4.4-12.8.2-16.9,6.9L75,51.5l.4-2.5c.5-3.1-3.9-5.6-5.4-2.3a22.87,22.87,0,0,0-2.4,10.9c.1,3.1,3.8,3.8,5.6,1.5a14.71,14.71,0,0,0,2.1-3.9l-5.7-1.6L68.7,57c-.6,3.2,3.6,5.3,5.4,2.3a17.72,17.72,0,0,0,1.5-3.1l-5.7-1.6a21.69,21.69,0,0,0-.7,3.5c-.3,2.9,4.3,4.1,5.6,1.5.5-1.1.9-2.2,1.3-3.3A3.07,3.07,0,0,0,74,52.6a2.92,2.92,0,0,0-2.9.8c-3,3-1.9,6.8-2.9,10.6-1.1,4.1-2.3,7.4-1.7,11.7l1.4-3.4-.9.6L71.1,74c-2.7-4.5.5-12.8,1.9-17.4l-5.8-.8a73.26,73.26,0,0,0,.6,18.7c.5,3.3,6.1,2.6,5.8-.8l-.5-6.1a3,3,0,0,0-6,0,45.86,45.86,0,0,0,1,12.8L74,78.8a14.87,14.87,0,0,1-.5-3.6l-5.9.8,2.2,10.1,2.9-3.8c1.4-.1-1.3-4.8-1.3-4.7L66,79.9c2.4,3.8,4.5,8.3,8.6,10.5,2.9,1.6,6.1-2.2,3.6-4.7L76,83.5l-4.2,4.2L76.2,92c2.8,2.7,7-1.6,4.2-4.2L76,83.5c-2.8-2.7-6.9,1.5-4.2,4.2L74,89.9l3.6-4.7c-3-1.6-4.7-5.6-6.5-8.3s-6.8-1-5.4,2.3c1.2,2.9,2.9,9.5,7.1,9.1a3,3,0,0,0,3-3,1.48,1.48,0,0,0-.1-.7L73.5,74.5c-.7-3.3-6-2.6-5.8.8a30.92,30.92,0,0,0,.7,5.2c.8,3.7,6.6,2.2,5.7-1.6a38.94,38.94,0,0,1-.8-11.3h-6l.5,6.1,5.9-.8a65.31,65.31,0,0,1-.4-17.1c.3-3.4-4.9-3.9-5.8-.8-1.9,6.5-5.1,15.7-1.3,22a3,3,0,0,0,4.1,1.1l.9-.4a3.24,3.24,0,0,0,1.4-3.4C72.1,71,73.7,68,74.5,65c.4-1.7,0-6.2,1.1-7.3l-5-2.9-.7,1.8,5.6,1.5.5-2c1.1-3.7-4.4-5.1-5.7-1.6L69,56.1l5.4,2.3.6-3.2a3,3,0,0,0-5.7-1.6,10.37,10.37,0,0,1-1.5,2.5l5.6,1.5A16.09,16.09,0,0,1,75,49.8l-5.4-2.3L69.2,50c-.6,3.2,3.6,5.3,5.4,2.3,1.7-2.8,6.5-1.5,9.2-2.1a15,15,0,0,0,6.8-3.6c2.7-2.3-.7-6-3.6-4.7a16.94,16.94,0,0,0-3.6,2.3c-2.6,2.1.8,6.5,3.6,4.7a9.06,9.06,0,0,0,3.5-3.5,3,3,0,0,0-1.4-4,3.08,3.08,0,0,0-3.2.4,43.14,43.14,0,0,1-13.1,8.4l3.8,2.9c0-.1,3.8-3.5,4.2-4.1,1.8-2.4-1.7-5.6-4.1-4.1a9.22,9.22,0,0,0-3,2.9c-1.7,2.4,1.7,5.8,4.1,4.1a65.73,65.73,0,0,0,5.7-4.8c1.9-1.9,0-6.2-2.9-5a8.58,8.58,0,0,0-3.8,2.7c-2,2.5.5,6.6,3.6,4.7A31.4,31.4,0,0,0,86.1,45c1.9-2,0-6-2.9-5a9.06,9.06,0,0,0-4.4,3.3c-1.9,2.6,1.7,5.3,4.1,4.1A36.87,36.87,0,0,0,89.6,43c2.6-2.2-.8-6.4-3.6-4.7a8.63,8.63,0,0,0-3.1,2.9c-1.8,2.4,1.7,5.7,4.1,4.1,3.7-2.4,7.1-4.9,10.5-7.6,2.3-1.8-.2-5.9-2.9-5a6.84,6.84,0,0,0-3.7,2.5c-1.7,2.2-.2,5.9,2.9,5A13.66,13.66,0,0,0,99.4,37c2.7-2.5-.7-5.9-3.6-4.7a7.84,7.84,0,0,0-3.3,2.4,2.95,2.95,0,0,0,2.1,5c1.1,0,2.7.3,1.8-.7l-.8-2.9-.2.7c-.6,2.8,2.8,5.1,5,2.9l1.9-2c2.7-2.8-1.4-6.8-4.2-4.2l-4.4,4,4.7,3.6,1.1-1.5c2.1-2.7-2.3-5.9-4.7-3.6-.9.8-3.8,4.5-5.2,4.4l2.1,5.1,2.1-1.7-4.2-4.3-.7.5L91,45.1a10,10,0,0,1,2.3-2.3c2.6-2.2-.9-6.7-3.6-4.7-1.8.3-2.3.8-1.5,1.4l.5,3.6c1.1-2.1,3.6-3.9,5.3-5.6a3,3,0,0,0-3.6-4.7,42.71,42.71,0,0,1-9.1,3.8l2.9,5c2.9-3.2,6.7-4.3,10.5-5.9,2.5-1.1,5.5-2.1,6.2-5A3.07,3.07,0,0,0,98.8,27a1.7,1.7,0,0,0-.7-.1c-3.6-.3-6.6.7-9.9,2a3,3,0,0,0,1.6,5.7l2.1-.3-1.6-5.8c-1.6.5-3.3.9-5,1.3l2.3,5.4.9-.4L86,29.5c-2.7,1.2-5.3,2.5-7.8,3.8-2.1,1.1-1.9,5,.7,5.4L80,39l-.7-5.4-1,.7a2.92,2.92,0,0,0-.5,4.2,2.82,2.82,0,0,0,3.5.9,5.85,5.85,0,0,0,1.7-1c2.4-1.8,1.1-6.8-2.3-5.4a21.06,21.06,0,0,0-5.8,3.4L79.7,40l.5-.7c2.1-2.8-2.3-5.9-4.7-3.6A20.8,20.8,0,0,0,69.3,47c-.6,2.8,2.8,5.1,5,2.9a51.28,51.28,0,0,1,9.3-7.4l-4.1-4.1-.5,1a3,3,0,0,0,4.1,4.1L88,41.4c3.1-1.3.8-6.7-2.3-5.4a15.08,15.08,0,0,0-2.6,1.2c-2.4,1.4-1.5,6,1.5,5.6l1.5-.2c3.7-.5,3.8-6.4,0-5.9Z" transform="translate(-64.43 -26.12)"/><path class="cls-1" d="M129.6,40.7c-.3,0-.6-.7-.8-.9l-.6-.8-1.3-1.7-.9.7,1.3,1.5c.5.6,1.3-.3.8-.8l-1.3-1.5c-.4-.5-1.3.2-.9.7l1.9,2.5c.5.6.9,1.3,1.8,1.4a.55.55,0,0,0,0-1.1Z" transform="translate(-64.43 -26.12)"/><path class="cls-1" d="M104.7,37.4c.2,1.5,1.2,2.3,2.3,3.2s1.6,2.2,3.1,2.5V42c-1.1.3-2.3-.9-3.5-.9a.65.65,0,0,0-.6.6.55.55,0,0,0,.3.5c1.3.7,3,2.3,4.6,1.8a.55.55,0,0,0,.3-.8.67.67,0,0,0-.7-.4c-1.1.3-2.8-1.2-3.7-1.7l-.3,1.1c1.4,0,2.3,1.3,3.8.8a.64.64,0,0,0,0-1.2c-1.2-.2-1.5-1.2-2.3-1.9s-2.1-1.4-2.3-2.6c.1-.6-1-.6-1,.1Z" transform="translate(-64.43 -26.12)"/><path class="cls-1" d="M119,90.2c-.6.3-1.3.6-2,.9a.55.55,0,0,0-.3.8.67.67,0,0,0,.7.4l1.3-.3c.7-.1.5-1.3-.2-1.2a20.51,20.51,0,0,0-5.8,1.8c-.6.3-.2,1.3.5,1.1a44.73,44.73,0,0,0,7-3.3c.5-.3.3-1.2-.3-1.1a2.59,2.59,0,0,0-1.7.9.61.61,0,0,0,0,.8c.1.1.2.1.4.2h.7l-.5-.9a2.47,2.47,0,0,1-1.6,1,.57.57,0,0,0-.4.7.1.1,0,0,0,.1.1,1.56,1.56,0,0,0,.8.6l.3-1.2a3.4,3.4,0,0,0-1-.1.54.54,0,0,0-.5.7.47.47,0,0,0,.5.5l.7.1c.3.1.6-.2.7-.5a.67.67,0,0,0-.4-.7h-.1l-.4.9a4.06,4.06,0,0,0,2.3-1.6.59.59,0,0,0-.5-.9h-.7l.4,1a1.56,1.56,0,0,1,.8-.6l-.3-1.1a51.55,51.55,0,0,1-6.7,3.2l.5,1.1a18.48,18.48,0,0,1,5.2-1.6l-.2-1.2L117,91l.3,1.2a22.88,22.88,0,0,0,2.3-1,.58.58,0,1,0-.6-1Z" transform="translate(-64.43 -26.12)"/><path class="cls-1" d="M135.6,64.4l-.5-3.5-1.1.3.6,2a.63.63,0,0,0,.8.4.66.66,0,0,0,.4-.5,30.34,30.34,0,0,0-.6-4.2.62.62,0,0,0-1.2.2l.3,2.1a.63.63,0,0,0,.8.4.66.66,0,0,0,.4-.5,6.21,6.21,0,0,0-.6-3,.55.55,0,0,0-.8-.3.67.67,0,0,0-.4.7l.3,2.8a.54.54,0,0,0,.7.5.47.47,0,0,0,.5-.5l.2-2.4-1.1.3.5,1.9a.54.54,0,0,0,.7.5.47.47,0,0,0,.5-.5,11.3,11.3,0,0,0,0-2.6l-1.2.2.3,1.1,1.1-.3a6.63,6.63,0,0,0-.9-1.9.54.54,0,0,0-.8-.2.71.71,0,0,0-.3.6l.2,2h1.2l-.1-1.4-1.2.2a9.57,9.57,0,0,1,.8,4.4l1.2-.2-.1-.9a.57.57,0,0,0-.7-.4.78.78,0,0,0-.4.4l-.5,2.3h1.1a3.48,3.48,0,0,0-1,2.8l1.2-.2-.2-1.7c-.1-.6-1.1-.6-1.1,0l-.6,3.5c-.1.3.2.6.5.7a.67.67,0,0,0,.7-.4l.8-2-1.2-.2a9,9,0,0,1-.1,4l1.2.2.2-2.3c.1-.8-1.1-.8-1.2,0l-.3,2.3c-.1.7,1.1.8,1.2.2l.3-2.4c.1-.7-1-1.1-1.1-.3a65.62,65.62,0,0,0-.9,8.8.54.54,0,0,0,.7.5.47.47,0,0,0,.5-.5,6.92,6.92,0,0,0-.1-2.5.54.54,0,0,0-.7-.5.47.47,0,0,0-.5.5,26.07,26.07,0,0,1-.5,4.8c-.1.8,1,1.1,1.1.3a44.29,44.29,0,0,0,.6-5.1H134a7,7,0,0,1,.1,2.5h1.2a48,48,0,0,1,.8-8.5l-1.1-.3-.3,2.4,1.2.2.3-2.3H135l-.3,2.3c-.1.7,1.1.8,1.2.2a12.43,12.43,0,0,0,.1-4.3.65.65,0,0,0-.6-.6.46.46,0,0,0-.5.4l-.8,2,1.1.3.6-3.5h-1.1l.2,1.7c.1.7,1.1.5,1.2-.2a7.58,7.58,0,0,0,0-3,.57.57,0,0,0-.7-.4l-.2.1a.57.57,0,0,0-.4.7v.2a.57.57,0,0,0,.7.4.78.78,0,0,0,.4-.4l.5-2.3h-1.1l.1.9c.1.7,1.1.5,1.2-.2a10,10,0,0,0-.9-4.8c-.2-.5-1.2-.6-1.2.2l.1,1.4a.6.6,0,1,0,1.2,0,9.08,9.08,0,0,0-.3-2.3l-1.1.5.8,1.6a.55.55,0,0,0,.8.3.67.67,0,0,0,.4-.7l-.3-1.1a.63.63,0,0,0-.8-.4.66.66,0,0,0-.4.5,11.3,11.3,0,0,1,0,2.6h1.2a5.53,5.53,0,0,0-.7-2.5c-.3-.6-1.1-.2-1.1.3l-.2,2.4h1.2a8,8,0,0,0-.4-3.1l-1.1.3.5,2.7,1.2-.2-.3-1.8-1.2.2a13.2,13.2,0,0,1,.6,3.9l1.2-.2-.6-2a.57.57,0,1,0-1.1.3l.5,3.5c-.1.7,1,.4,1-.4Z" transform="translate(-64.43 -26.12)"/><path class="cls-1" d="M113.5,35.8c-3.6-1-5.5-4.1-9.4-3.5-2.3.4-2.7,3.5-1.3,5l2.9,3,2.9-5a22.48,22.48,0,0,0-5.7-1.9,3.11,3.11,0,0,0-2.6,1.5c-4.3,6.3,8.4,7.2,11,9l-.6-4.7-.1.1h4.2l-.1-.1-2.9,5a34.28,34.28,0,0,0,5.6.6c3.5.1,3.8-4.8.8-5.8a4.69,4.69,0,0,0-3.3,0,3,3,0,0,0,.8,5.8c3.6.4,6.1,2.4,9.7,1.6,2.8-.6,2.6-4,.7-5.4-4.2-3.2-8.4-6.4-13.2-8.5-4.1-1.8-8.6-2.6-12.2-5.3l-2.3,5.4c3.2.7,6.3,1.4,9.4,2.2,3.7,1,5.2-4.5,1.6-5.7a23.55,23.55,0,0,0-3.8-1c-3.1-.5-5.6,3.9-2.3,5.4a25.72,25.72,0,0,0,9,2.5c2.9.3,4.1-4.3,1.5-5.5-2.3-1.1-4.7-2.2-7-3.2l-2.4,5.5A44.17,44.17,0,0,1,115.9,38c2.9,1.9,5.8-2.3,3.6-4.7a10.71,10.71,0,0,0-4.2-2.8c-3.1-1.3-5.4,4-2.3,5.4a13.32,13.32,0,0,0,2.8,1,3.07,3.07,0,0,0,3.7-2.1,2.92,2.92,0,0,0-.8-2.9,14.42,14.42,0,0,0-2.7-2.2l-3,5.1c2.7,1.5,5,2.3,7.2,4.5a22.86,22.86,0,0,1,5.3,7.3c1.2,2.8,6.1,2.9,5.8-.8a10.78,10.78,0,0,0-1.7-5.5c-2-3.3-7-.3-5.1,3,1.2,2.2,2.1,4.2,1.8,6.7l5.6-1.5-2.3-5.1-5.1,3a18.15,18.15,0,0,1,2.4,8.2l5.9-.8c-.9-3.1-2.1-6.4-1.7-9.7L127.3,47c2,.7,2.1,7.6,2.3,9.1.3,3.8,6.3,3.8,6,0-.4-5.3-.7-12.9-6.6-14.9-2-.7-3.6,1.1-3.8,2.9-.5,3.8,1,7.6,1.9,11.3.8,3.2,6.1,2.6,5.8-.8a24.68,24.68,0,0,0-3.3-11.2c-1.9-3.4-6.7-.4-5.1,3l2.3,5.1c1.3,3.1,5.2,1,5.6-1.5.5-3.7-.8-6.5-2.6-9.7l-5.1,3,.9,2.5,5.9-.8a28.65,28.65,0,0,0-5.8-8.8c-3-3.2-5.7-4.5-9.4-6.6-3.4-1.8-6.2,3.1-3,5.1l1.4,1.2,2.9-5-1.4-.4-2.3,5.4,1.6,1.3,3.6-4.7a46.84,46.84,0,0,0-12.9-5.8c-3.1-.9-5.5,4.1-2.3,5.4,2.4,1,4.7,2.1,7,3.2l1.5-5.5a17.94,17.94,0,0,1-6-1.7l-2.3,5.4a26.64,26.64,0,0,1,3.8,1l1.6-5.7c-3.1-.9-6.3-1.6-9.4-2.2A3,3,0,0,0,97.8,32c3.4,2.6,7.4,3.4,11.3,4.9,5.2,2,9.7,5.5,14.1,8.9l.7-5.4c-2.1.5-5.8-1.5-8.1-1.8l.8,5.8h.1l.8-5.8a18.1,18.1,0,0,1-4-.4c-2.8-.5-5.1,2.7-2.9,5l.1.1a3.09,3.09,0,0,0,4.2,0l.1-.1c1.6-1.3.8-3.7-.6-4.7-1.2-.8-2.7-.9-4.1-1.3-1-.3-2-.6-3-1q-3.45-2.55-1.8,1.5l-2.6,1.5c1.2.1,3,1.2,4.1,1.7,2.9,1.2,4.7-3,2.9-5l-2.9-3-1.3,5a63.71,63.71,0,0,0,6.3,3.5c3.6,1.2,5.2-4.5,1.5-5.6Z" transform="translate(-64.43 -26.12)"/><path class="cls-1" d="M130.2,81c-.8-1.3,1.4-5.2,1.8-6.5a23.3,23.3,0,0,0,.8-4.6c0-.7-.9-.7-1.2-.2l-2.8,6.9,1.2.2a39.75,39.75,0,0,1,1.1-9.1l-1.2-.2-.7,7.1h1.2a53.23,53.23,0,0,0-.3-11.3c-.1-.7-1.1-.5-1.2.2a17.82,17.82,0,0,0,.3,4.6c.1.7,1.2.5,1.2-.2q0-3.75-.3-7.5h-1.2l.3,3a.54.54,0,0,0,.7.5.47.47,0,0,0,.5-.5l.1-5.4a.65.65,0,0,0-.6-.6.46.46,0,0,0-.5.4,13.32,13.32,0,0,0-.5,3.4l1.2-.2a18.7,18.7,0,0,1-1.3-4.2c-.1-.7-1.3-.5-1.2.2l.9,7.8c.1.6,1,.9,1.2.2a16.78,16.78,0,0,0,.3-7.4l-1.1.3a17.74,17.74,0,0,1,.9,5.6H131a48.63,48.63,0,0,1,0-5.4l-1.2.2a38,38,0,0,1,1.1,8.9.54.54,0,0,0,.7.5.47.47,0,0,0,.5-.5l.3-7.3H131l.3,7.8,1.2-.2-1.4-6.1c-.1-.5-1.1-.6-1.1,0l-1,7,1.2.2.8-7.7h-1.2a22.24,22.24,0,0,1-.3,6.3c-.1.7,1,1.1,1.1.3.6-2.4,1-4.8,1.5-7.2H131a25.5,25.5,0,0,1,0,7.8h1.2q.3-4.65.3-9.3h-1.2l.2,6.8,1.2-.2.5-5.7-1.1-.1c.1.7-.3,9.5-.4,9.4a.61.61,0,0,0-.8,0c-.1.1-.1.2-.2.3-.8,4.1-3.3,7.1-4.8,10.8-.8,1.9-.8,3.9-1.4,5.8-1,3.1-3.2,4.7-5.8,6.3a.54.54,0,0,0-.2.8.71.71,0,0,0,.6.3c1.7-.5,2.4-3.2,3.2-4.5l-1.1-.5-1,2.3c-.3.7.7,1,1.1.5a9.08,9.08,0,0,0,1.5-3.5c.1-.3-.2-.6-.5-.7a.67.67,0,0,0-.7.4l-.5,1.3c-.3.6.8,1,1.1.5a106.15,106.15,0,0,0,9.6-21.5.57.57,0,0,0-.4-.7.45.45,0,0,0-.6.3,44,44,0,0,0-2.1,5l1.2.2.3-4.6a.6.6,0,1,0-1.2,0l-.1,1.7h1.2a11.29,11.29,0,0,0,0-2.6.54.54,0,0,0-.7-.5.47.47,0,0,0-.5.5,77.55,77.55,0,0,1-7.7,24.9.55.55,0,0,0,.3.8.64.64,0,0,0,.6,0,7.76,7.76,0,0,0,2.4-1.6c.6-.4-.2-1.2-.7-.9l-3.3,1.6c-.7.3-.1,1.3.6,1a27.33,27.33,0,0,0,5.4-3.4l-.9-.7-1.3,1.1c-.6.3-.2,1.3.5,1.1,2.4-1,3.3-3.2,5.4-4.6l-.7-.9a29.29,29.29,0,0,1-6.5,5.1l.8.8a7.68,7.68,0,0,1,1.4-2.5l-1-.6-.7.6c.1-.3-.2-.6-.5-.7a.67.67,0,0,0-.7.4l-.3.8c-.3.7.7,1,1.1.5l1.6-2-1-.6-.8,1.7,1,.6a27.34,27.34,0,0,1,3.9-6.6l-1-.6a30.35,30.35,0,0,1-2.5,4.7l1.1.5a22.26,22.26,0,0,1,5.1-8.1l-.9-.7c-1.5,2.7-2.9,5.4-4.2,8.2l1.1.5a27.6,27.6,0,0,1,4-6.8l-.9-.7c-1.3,2.6-2.6,5.2-4.1,7.7l1.1.5a10.52,10.52,0,0,1,3-4.5l-.9-.7a19.83,19.83,0,0,1-3.2,4.4l.9.7,2.4-2.4-.8-.8a18,18,0,0,1-3.3,4l.8.8a13.84,13.84,0,0,1,3.4-3l-.8-.8a16.13,16.13,0,0,1-2.4,2.8l.9.7a9.42,9.42,0,0,1,2.7-3.2l-.8-.8a13.73,13.73,0,0,1-2,2.2l.9.7a6.06,6.06,0,0,1,1.9-2.6l-1-.6-.5,1.7c-.2.5.6,1.1,1,.6a8,8,0,0,1,2-2.1l-1-.6-.9,1.8a.58.58,0,0,0,1,.6c1.2-1.8,2.3-3.6,3.5-5.4l-1-.6-2.7,4.4a.57.57,0,0,0,.9.7,16.67,16.67,0,0,0,4.2-9.9c.1-.7-1-.8-1.2-.2a34.85,34.85,0,0,1-3.9,8l1.1.5a19.58,19.58,0,0,1,2.1-5.7l-1-.6-3.3,5.8,1.1.5a56.58,56.58,0,0,1,1.5-5.9c.2-.6-.8-1.1-1.1-.5l-2.4,4.9,1,.6,2.7-6.1c.3-.7-.6-1.3-1-.6L128,81h1l.7-2.5-1.1-.5-1.2,3.2,1.2.3,1-2.7-1-.5-1,2.1,1.1.5a16.57,16.57,0,0,1,1.4-3.7.68.68,0,0,0-.4-.8c-.2-.1-.4,0-.6.2a7.27,7.27,0,0,0-1.4,3.1.57.57,0,0,0,.4.7.45.45,0,0,0,.6-.3l1.8-2.4-.9-.7a13.25,13.25,0,0,1-2.9,3.8l.9.7a7.39,7.39,0,0,1,2.9-3.4l-1-.6-1.7,2.8,1,.6a27.66,27.66,0,0,1,2.8-5.4l-1.1-.3a17.09,17.09,0,0,1-1,5,.57.57,0,0,0,1.1.3l2.4-7-1.1-.3L130.8,78c-.1.3.2.6.5.7a.67.67,0,0,0,.7-.4l1.5-4.2-1.1-.3-.5,3.5c-.1.8,1,1.1,1.1.3a10.76,10.76,0,0,1,.7-3.1l-1.2-.2a6.61,6.61,0,0,1,0,2.8c-.1.7,1.1.8,1.2.2a8.28,8.28,0,0,1,.7-2.7l-1.2-.2L133,77c0,.7,1.1.8,1.2.2a11.08,11.08,0,0,1,.5-2.5l-1.2-.2-.1,1.8,1.1.3a8.87,8.87,0,0,1,.7-2.8l-1.1-.2-.4,2.2,1.2.2.4-3.9h-1.2l-.4,3.3,1.2.2-.8-6.5a.54.54,0,0,0-.7-.5.47.47,0,0,0-.5.5l-.6,4.8h1.2a40.25,40.25,0,0,0,0-8.5.6.6,0,1,0-1.2,0,60.33,60.33,0,0,1-.2,8.5h1.2L133,61.2l-1.2.2a49.79,49.79,0,0,1,.4,10.2h1.2c-.4-4.1-.7-8.2-.7-12.3l-1.2.2a27.37,27.37,0,0,1,.2,7h1.2c-.1-2.7-.1-5.4-.1-8.1h-1.2a25.28,25.28,0,0,1,0,5.5l1.2-.2a17.74,17.74,0,0,1-.5-6.5H131l.1,2.6h1.2L132,56l-1.2.2,1.4,9.2a.57.57,0,0,0,.7.4.78.78,0,0,0,.4-.4,30.39,30.39,0,0,0,.4-7.4h-1.2c.3,3.7.4,7.3.4,11a.54.54,0,0,0,.7.5.47.47,0,0,0,.5-.5l.3-9.5h-1.2a62.7,62.7,0,0,1,.1,9.7c-.1.8,1.1.8,1.2,0a41.73,41.73,0,0,0,.1-5l-1.2.2a21.37,21.37,0,0,1,.3,6.2l1.2-.2-.1-1.6-1.2-.1-.1,2.5c-.1.4.4,1,.9.7-.6.5-1,.5-.3,1.3.3.4,1,0,1-.4l.1-3.7a.54.54,0,0,0-.7-.5.47.47,0,0,0-.5.5l-.1,3.7,1-.4a1.14,1.14,0,0,1,.3-.8c.1-.3,0-.5-.3-.7l-.3-.2a.64.64,0,0,0-.6,0l-.2.2.9.7a5.33,5.33,0,0,0,.1-2.8c-.1-.6-1.1-.9-1.2-.2a3.33,3.33,0,0,0,.1,2.2.63.63,0,0,0,.8.4.66.66,0,0,0,.4-.5,21,21,0,0,0-.4-6.6.63.63,0,0,0-.8-.4.66.66,0,0,0-.4.5,27.85,27.85,0,0,1-.1,5h1.2a62.83,62.83,0,0,0-.1-9.7.54.54,0,0,0-.7-.5.47.47,0,0,0-.5.5l-.3,9.5H134c0-3.7-.1-7.3-.4-11a.6.6,0,1,0-1.2,0,28.25,28.25,0,0,1-.4,7.1h1.1L132,56c-.1-.7-1.2-.5-1.2.2l.3,3.9a.6.6,0,1,0,1.2,0l-.1-2.6a.54.54,0,0,0-.7-.5.47.47,0,0,0-.5.5,22.1,22.1,0,0,0,.5,6.8c.2.7,1.1.5,1.2-.2a25.28,25.28,0,0,0,0-5.5.54.54,0,0,0-.7-.5.47.47,0,0,0-.5.5c0,2.7,0,5.4.1,8.1a.54.54,0,0,0,.7.5.47.47,0,0,0,.5-.5,30.57,30.57,0,0,0-.2-7.4c-.1-.7-1.2-.5-1.2.2.1,4.1.3,8.2.7,12.2a.54.54,0,0,0,.7.5.47.47,0,0,0,.5-.5,52.46,52.46,0,0,0-.4-10.5c-.1-.7-1.2-.5-1.2.2l.4,12.7a.54.54,0,0,0,.7.5.47.47,0,0,0,.5-.5,60.33,60.33,0,0,0,.2-8.5h-1.2a40.25,40.25,0,0,1,0,8.5c-.1.8,1.1.8,1.2,0l.6-4.8h-1.2l.8,6.5c.1.6,1,.9,1.2.2a7.31,7.31,0,0,0,.4-3.6.54.54,0,0,0-.7-.5.47.47,0,0,0-.5.5l-.4,3.9c-.1.7,1,.8,1.2.2a10.05,10.05,0,0,0,.4-2.5c.1-.7-1-.7-1.2-.2a6.81,6.81,0,0,0-.7,2.8c-.1.7,1,1.1,1.1.3a3.76,3.76,0,0,0,.1-2.1.65.65,0,0,0-.6-.6.46.46,0,0,0-.5.4,11.36,11.36,0,0,0-.6,2.5l1.2.2.2-2.6c.1-.7-1-.8-1.2-.2a9,9,0,0,0-.7,2.7l1.2.2a6.61,6.61,0,0,0,0-2.8.65.65,0,0,0-.6-.6.46.46,0,0,0-.5.4,11.56,11.56,0,0,0-.7,3.1l1.1.3.5-3.5c.1-.3-.2-.6-.5-.7a.67.67,0,0,0-.7.4l-1.5,4.2,1.1.3,1.1-4.8c.1-.3-.2-.6-.5-.7a.67.67,0,0,0-.7.4l-2.4,7,1.1.3a23.64,23.64,0,0,0,1-5.3c.1-.6-.8-.8-1.1-.3a31,31,0,0,0-3,5.7.61.61,0,0,0,1,.6,7,7,0,0,0,2-3.3c.2-.6-.6-.9-1-.6a12.25,12.25,0,0,0-3.1,3.7.63.63,0,0,0,.3.8.62.62,0,0,0,.7-.1,20.36,20.36,0,0,0,3.1-4,.63.63,0,0,0-.3-.8.62.62,0,0,0-.7.1,5.84,5.84,0,0,0-1.8,2.6l1.1.5,1.3-2.8-1-.6a27.4,27.4,0,0,0-1.5,4,.57.57,0,0,0,.4.7.45.45,0,0,0,.6-.3,12.81,12.81,0,0,0,1.1-2.4c.2-.6-.8-1.1-1.1-.5a10.21,10.21,0,0,0-1.1,2.9c-.1.3.2.6.5.7a.67.67,0,0,0,.7-.4l1.1-3.2c.2-.6-.8-1.1-1.1-.5a6.5,6.5,0,0,0-.8,3.1c-.1.6.8.8,1.1.3l2.4-4.2-1-.6-2.8,6.1c-.3.7.7,1.3,1,.6l2.4-4.9-1-.5a30,30,0,0,0-1.5,5.9c-.1.6.7,1.1,1.1.5l3.3-5.8a.68.68,0,0,0-.4-.8c-.2-.1-.4,0-.6.2a18,18,0,0,0-2.2,6,.57.57,0,0,0,.4.7.45.45,0,0,0,.6-.3,34.64,34.64,0,0,0,4-8.2l-1.2-.2a14.73,14.73,0,0,1-3.9,9.1l.9.7,2.7-4.4a.58.58,0,1,0-1-.6c-1.1,1.8-2.3,3.6-3.5,5.4l1,.6a5.12,5.12,0,0,0,1-2.1c.2-.6-.6-.9-1-.6a8,8,0,0,0-2,2.1l1,.6.5-1.7a.57.57,0,0,0-.4-.7c-.2-.1-.4,0-.6.2a8.26,8.26,0,0,0-2.1,2.8.63.63,0,0,0,.3.8.62.62,0,0,0,.7-.1,10.48,10.48,0,0,0,2-2.2.61.61,0,0,0-.1-.8.48.48,0,0,0-.7,0,13.88,13.88,0,0,0-2.9,3.5.57.57,0,0,0,.9.7,14.75,14.75,0,0,0,2.6-3c.3-.5-.3-1.2-.8-.8a22.36,22.36,0,0,0-3.7,3.2c-.5.6.3,1.4.8.8a27.94,27.94,0,0,0,3.4-4.3c.4-.5-.3-1-.8-.8a4.83,4.83,0,0,0-2.8,2.8c-.3.6.4,1.3.9.7a22.53,22.53,0,0,0,3.4-4.7.57.57,0,0,0-.9-.7,15.56,15.56,0,0,0-3.3,5c-.3.6.8,1,1.1.5a81.41,81.41,0,0,0,4.1-7.7c.3-.6-.5-1.3-.9-.7a29.83,29.83,0,0,0-4.3,7.3c-.3.6.8,1.1,1.1.5,1.3-2.8,2.7-5.5,4.2-8.2.3-.6-.5-1.2-.9-.7a25,25,0,0,0-5.4,8.6c-.3.7.7,1,1.1.5a31,31,0,0,0,2.6-4.7.68.68,0,0,0-.4-.8c-.2-.1-.4,0-.6.2a29.4,29.4,0,0,0-3.9,6.6.68.68,0,0,0,.4.8c.2.1.4,0,.6-.2a3.81,3.81,0,0,0,1-2,.57.57,0,0,0-.4-.7c-.2-.1-.4,0-.6.2a7.87,7.87,0,0,0-1.8,2.2l1.1.5.3-.8-1.2-.3c-.5,3.2,1.6,2.4,2.9.3a.58.58,0,0,0-1-.6,6.21,6.21,0,0,0-1.4,2.5c-.2.5.3,1.2.8.8a28.47,28.47,0,0,0,6.7-5.3.57.57,0,0,0-.7-.9c-1.9,1.3-3,3.6-5.2,4.5l.5,1.1c1.2-.7.9-.5,1.7-1.6.4-.6-.4-1.1-.9-.7a25.46,25.46,0,0,1-5.2,3.3l.6,1,3.3-1.6-.7-.9-2.2,1.4.8.8A81.33,81.33,0,0,0,130,67h-1.2a11.29,11.29,0,0,1,0,2.6.6.6,0,1,0,1.2,0l.1-1.7h-1.2l-.3,4.6a.62.62,0,0,0,1.2.2,21.06,21.06,0,0,1,1.9-4.7l-1.1-.5a109,109,0,0,1-9.5,21.2l1.1.5.5-1.3-1.2-.3a7.14,7.14,0,0,1-1.4,3.2l1.1.5,1-2.3c.3-.6-.8-1-1.1-.5s-1.8,3.8-2.5,4l.5,1.1c3.6-2.3,5.7-4.4,6.6-8.5a30.65,30.65,0,0,1,3.3-8.2c.5-.9,3.2-5,2.3-6.1a.61.61,0,0,0,.8,0c.1-.1.1-.2.2-.3a21.59,21.59,0,0,0,.8-11,.57.57,0,0,0-.7-.4.32.32,0,0,0-.3.3,10.06,10.06,0,0,0-.7,6.6c.1.7,1.2.5,1.2-.2l-.2-6.8a.54.54,0,0,0-.7-.5.47.47,0,0,0-.5.5c0,3.1,0,6.2-.3,9.3-.1.8,1.1.7,1.2,0a27.49,27.49,0,0,0,0-8.1.57.57,0,0,0-.7-.4.78.78,0,0,0-.4.4q-.6,3.6-1.5,7.2l1.1.3A29.82,29.82,0,0,0,131,61a.54.54,0,0,0-.7-.5.47.47,0,0,0-.5.5l-.8,7.7c-.1.7,1.1.8,1.2.2l1-7h-1.1l1.4,6.1a.63.63,0,0,0,.8.4.66.66,0,0,0,.4-.5q0-3.9-.3-7.8a.54.54,0,0,0-.7-.5.47.47,0,0,0-.5.5l-.3,7.3h1.2a42.18,42.18,0,0,0-1.1-9.3c-.2-.7-1.1-.5-1.2.2a48.63,48.63,0,0,0,0,5.4.54.54,0,0,0,.7.5.47.47,0,0,0,.5-.5,19.64,19.64,0,0,0-.9-5.9.55.55,0,0,0-.8-.3.67.67,0,0,0-.4.7,13.11,13.11,0,0,1-.3,6.8l1.2.2-1.2-7.7-1.2.2a33.11,33.11,0,0,0,1.2,4.2.63.63,0,0,0,.8.4.66.66,0,0,0,.4-.5l.5-3.1-1.2-.2-.1,5.4h1.2l-.3-3c-.1-.8-1.3-.8-1.2,0q.3,3.75.3,7.5l1.2-.2a15.53,15.53,0,0,1-.2-4.3l-1.2.2a50.45,50.45,0,0,1,.3,11c-.1.8,1.1.8,1.2,0L131,68c.1-.7-1-.8-1.2-.2a43.07,43.07,0,0,0-1.1,9.4.62.62,0,0,0,1.2.2l2.8-6.9-1.1-.1c-.2,3.4-1.9,6-2.5,9.3-.2,1-.5,1.4.1,2.4a.61.61,0,0,0,.8,0c.2-.6.3-.9.2-1.1Z" transform="translate(-64.43 -26.12)"/><path d="M71.7,89.3C63.2,79,65,60.6,69,48.8c2.3-6.8,5.3-12.7,11.7-16.3a36.54,36.54,0,0,1,21.2-5.1.6.6,0,1,0,0-1.2,37.27,37.27,0,0,0-21.8,5.3C74,35,70.9,40.4,68.5,46.9c-4.6,12.5-6.8,32.2,2.4,43.3C71.3,90.8,72.2,89.9,71.7,89.3Z" transform="translate(-64.43 -26.12)"/><path d="M69.5,88.8a22,22,0,0,0,10.2,6.7c.5.2.9-.4.7-.9-5.6-11-8.4-26.2-3.3-37.8.3-.7-.7-1.3-1-.6-5.3,12.1-2.5,27.6,3.3,39l.7-.9a20.92,20.92,0,0,1-9.6-6.4c-.6-.6-1.5.3-1,.9Z" transform="translate(-64.43 -26.12)"/><path d="M72.4,57c5.4-.4,10.6-4.6,15.2-7.3,5.6-3.2,10.8-6.7,15-11.7.5-.6-.3-1.4-.8-.8-3.7,4.5-8.3,7.7-13.3,10.7-4.5,2.7-10.7,7.5-16,8-.9,0-.9,1.2-.1,1.1Z" transform="translate(-64.43 -26.12)"/><path d="M77.2,56.7a1.9,1.9,0,0,1,.7-1.1c.6-.5-.3-1.3-.8-.8a2.75,2.75,0,0,0-1,1.6c-.2.7,1,1,1.1.3Z" transform="translate(-64.43 -26.12)"/><path d="M79.1,93.4c3.6.8,6.7,1.8,10.4,1.9a.6.6,0,0,0,0-1.2c-3.6-.1-6.7-1.1-10.1-1.8a.57.57,0,1,0-.3,1.1Z" transform="translate(-64.43 -26.12)"/><path d="M101.1,27.5c7.2.7,14.7,2.1,20.8,6.3,6.8,4.7,11,10.5,12.8,18.5a63,63,0,0,1,.1,23.7c-1.3,8-8.7,16.1-17.2,16.6l.4,1c4.3-5.1,7.1-11.6,9.3-17.9,2.5-7.1,1.7-13.9.1-21.1-.2-.8-1.3-.4-1.2.3,1.5,7,2.3,13.6-.1,20.5-2.1,6-4.9,12.4-9,17.4-.3.4-.1,1.1.4,1,6.8-.4,14-6,17-12.1,1.6-3.4,1.8-8.1,2.1-11.8a58.67,58.67,0,0,0-.3-14.5c-1.4-9.5-5-15.9-12.6-21.7-6.5-5-14.8-6.7-22.8-7.5-.6,0-.6,1.2.2,1.3Z" transform="translate(-64.43 -26.12)"/><path d="M111.6,94.2a11.74,11.74,0,0,0,5.8-1.3c.7-.3.1-1.4-.6-1a10.24,10.24,0,0,1-5.1,1.1A.6.6,0,1,0,111.6,94.2Z" transform="translate(-64.43 -26.12)"/><path d="M100.2,40.5a46.46,46.46,0,0,0,14.4,5.4c2,.4,4.1.2,6.1.7,4.1,1,4.3,5,5.5,8.5.2.7,1.4.4,1.2-.3-.9-2.9-1.3-7.9-4.1-9.3-1.1-.6-3.8-.1-5.1-.2a35.47,35.47,0,0,1-6.5-1.2,46.53,46.53,0,0,1-10.8-4.5.68.68,0,0,0-.8.4c-.1.1-.1.3.1.5Z" transform="translate(-64.43 -26.12)"/><path class="cls-1" d="M124,89.7a9.5,9.5,0,0,1,1.6-1.9l-1-.4a.71.71,0,0,1-.3.6c-.6.5.3,1.3.8.8a6.47,6.47,0,0,0,.8-.9l-1.1-.1.1-.2a.55.55,0,0,0-.3.8.67.67,0,0,0,.7.4,1.07,1.07,0,0,0,.8-1.3h0a.57.57,0,0,0-.7-.4.32.32,0,0,0-.3.3,4.35,4.35,0,0,1-.6.7l.8.8a2,2,0,0,0,.6-1.5.65.65,0,0,0-.6-.6.76.76,0,0,0-.4.2,9.09,9.09,0,0,0-1.8,2.1.55.55,0,1,0,.9.6Z" transform="translate(-64.43 -26.12)"/><path class="cls-1" d="M87.7,94a4.4,4.4,0,0,1,1.6.2.57.57,0,0,0,.7-.4v-.3c-.1-.2-.2-.5-.3-.7-.4-.6-1.5,0-1,.6a.76.76,0,0,1,.2.4l.7-.7a4.13,4.13,0,0,0-1.9-.2c-.7-.1-.7,1.1,0,1.1Z" transform="translate(-64.43 -26.12)"/><path class="cls-2" d="M73.4,53A87.28,87.28,0,0,0,96.5,37.1c.6-.5-.3-1.4-.8-.8A86.29,86.29,0,0,1,72.8,52c-.7.3-.1,1.3.6,1Z" transform="translate(-64.43 -26.12)"/><path class="cls-2" d="M104.5,39.6c2.5.8,4.8,2.2,7.4,2.6,3.1.5,6.2.1,9.2.8a.62.62,0,0,0,.3-1.2c-2.6-.6-5.1-.4-7.7-.6-3.3-.2-5.9-1.8-9-2.7-.7-.3-1,.9-.2,1.1Z" transform="translate(-64.43 -26.12)"/><path class="cls-2" d="M122.4,91.5c4.6-6.8,9-15.5,8.9-23.9a.54.54,0,0,0-.7-.5.47.47,0,0,0-.5.5c.1,8.2-4.2,16.6-8.7,23.3a.58.58,0,0,0,1,.6Z" transform="translate(-64.43 -26.12)"/><path class="cls-2" d="M75.7,88.2a36.07,36.07,0,0,1-6.8-22.5.54.54,0,0,0-.7-.5.47.47,0,0,0-.5.5,37.34,37.34,0,0,0,7,23.1c.4.6,1.4,0,1-.6Z" transform="translate(-64.43 -26.12)"/><path class="cls-2" d="M72.7,47c2.5-10.6,13.1-14.5,22.5-17.3a.55.55,0,0,0,.3-.8.67.67,0,0,0-.7-.4c-9.8,3-20.7,7.1-23.3,18.1-.1.8,1.1,1.1,1.2.4Z" transform="translate(-64.43 -26.12)"/></svg>