<?xml version="1.0" encoding="utf-8"?>
<!-- Generator: Adobe Illustrator 21.0.2, SVG Export Plug-In . SVG Version: 6.00 Build 0)  -->
<svg version="1.1" id="Layer_1" xmlns="http://www.w3.org/2000/svg" xmlns:xlink="http://www.w3.org/1999/xlink" x="0px" y="0px"
	 viewBox="0 0 200 600" style="enable-background:new 0 0 200 600;" xml:space="preserve">
<style type="text/css">
	.st0{fill:#FFE429;}
	.st1{fill:#F07A22;}
	.st2{fill:#FAEF53;}
</style>
<g>
	<g>
		<g>
			<g>
				<path class="st0" d="M101.6,37c1.1-2.3-0.9-3.1-2.6-4c-0.2,0.7-0.4,1.5-0.6,2.2c3.9,0.1,7.9,0.1,11.8,0.2c1.5,0,1.5-2.4,0-2.4
					c-3.9-0.1-7.9-0.1-11.8-0.2c-1.2,0-1.6,1.7-0.6,2.2c0.2,0.1,1.6,0.9,1.7,0.7C98.8,37.2,100.9,38.4,101.6,37L101.6,37z"/>
			</g>
		</g>
		<g>
			<g>
				<path class="st0" d="M83.1,40.4c-2.8,0.6-5,2.3-6.8,4.3c-1.8,2.1-3.9,4.4-4.6,7.1c-0.4,1.5,2,2.1,2.3,0.6
					c0.6-2.3,2.4-4.3,3.9-6.1c1.6-1.8,3.4-3.2,5.8-3.7C85.3,42.4,84.6,40,83.1,40.4L83.1,40.4z"/>
			</g>
		</g>
		<g>
			<g>
				<path class="st0" d="M88.9,36.3c-1.2-0.3-2.3-0.4-3.5-0.6c-1.4-0.1-1.6,2-0.3,2.4c0.2,0.1,0.4,0.1,0.6,0.2
					c-0.3-0.5-0.6-1-0.8-1.5c-0.1,0.5-0.2,1.1-0.2,1.6c0.8,0,1.5,0,2.3,0c-0.4-1.8-0.7-3.1,0.4-4.7c0.8-1.1,2.4-2.5,3.6-3.1
					c1.9-0.8,5.8-2.8,7.7-1.8c1.4,0.7,2.6-1.4,1.2-2.1c-1.8-0.9-3.4-0.8-5.3-0.1c-2,0.8-4.6,1.3-6.2,2.6c-1.3,1-3.1,2.6-3.9,4
					c-1,1.7-0.3,4,0.1,5.7c0.3,1.1,2.1,1.2,2.3,0c0.1-0.5,0.2-1.1,0.2-1.6c0.1-0.6-0.1-1.3-0.8-1.5c-0.2-0.1-0.4-0.1-0.6-0.2
					c-0.1,0.8-0.2,1.6-0.3,2.4c1,0.1,1.9,0.2,2.9,0.5C89.7,38.9,90.4,36.6,88.9,36.3L88.9,36.3z"/>
			</g>
		</g>
		<g>
			<g>
				<path class="st0" d="M90.8,34c-0.5,0-0.9,0-1.4,0c-1.5,0-1.5,2.4,0,2.4c1.4-0.1,2.7,0,4.1,0.4c-0.1-0.7-0.2-1.5-0.3-2.2
					c-1.3,1-2.7,1.3-4.4,1c-0.1,0.8-0.2,1.6-0.3,2.4c1.2-0.2,2.4,0.1,3.3,0.9c0-0.7,0-1.4,0-2.1c-1.1,0.8-3.7,0.9-5.1,1.1
					c-1.3,0.2-1.6,1.9-0.3,2.4c0.6,0.3,1.1,0.4,1.7,0.5c0.1-0.8,0.2-1.6,0.3-2.4c-1.7,0-3.5,0.5-4.2-1.2c-0.2-0.5-0.6-0.9-1.2-0.9
					c-1.4,0.1-2.6-0.8-3.9-0.6c-1,0.2-2.6,1.2-3.4,1.8c-2.5,2.1-2.4,6.9-3,9.8c-0.3,1.5,2,2.2,2.3,0.6c0.5-2.7,0.4-7.4,3.1-9
					c1.7-1,3-0.2,4.9-0.3c-0.4-0.3-0.8-0.6-1.2-0.9c0.4,1.1,0,1.8,1.2,2.6c1.3,0.8,3.9,0.3,5.2,0.4c1.3,0,1.7-2.1,0.3-2.4
					c-0.6,0-1.2-0.2-1.7-0.5c-0.1,0.8-0.2,1.6-0.3,2.4c2-0.3,4.6-0.1,6.3-1.4c0.7-0.5,0.8-1.5,0-2.1c-1.5-0.9-2.8-1.3-4.6-1.2
					c-1.3,0.1-1.7,2.2-0.3,2.4c2.3,0.3,4.2,0,6.2-1.3c0.8-0.5,0.8-2-0.3-2.2c-1.6-0.4-3-0.5-4.7-0.5c0,0.8,0,1.6,0,2.4
					c0.5,0,0.9,0,1.4,0C92.3,36.4,92.3,34,90.8,34L90.8,34z"/>
			</g>
		</g>
		<g>
			<g>
				<path class="st0" d="M86.1,44.1c0.3-1.1,0.7-1.7,1.5-2.5c-0.6-0.6-1.1-1.1-1.7-1.7c-2.3,2.9-6,4.8-8.9,7
					c-1.5,1.2-5.3,3.7-2.8,5.8c1.2,1,2.9-0.7,1.7-1.7c-0.1-0.1,6.1-5,6.6-5.4c1.8-1.3,3.6-2.4,5-4.1c0.9-1.2-0.6-2.8-1.7-1.7
					c-1,1.1-1.6,2.2-2.1,3.5C83.3,44.9,85.6,45.5,86.1,44.1L86.1,44.1z"/>
			</g>
		</g>
		<g>
			<g>
				<path class="st0" d="M73.6,53c1.9,3.2,5.6-2.7,7.2-3.5c-0.5-0.6-1-1.3-1.5-1.9c-0.7,0.7-1.4,1.4-2.1,2.1c-0.7,0.7-0.2,2.2,0.8,2
					c1.5-0.1,2.3-0.9,3-2.1c0.4-0.7,0.7-1.3,1.1-2c0.4-0.6,1.1-2.1,1.7-2.3c1.4-0.6,0.8-2.9-0.6-2.3c-1.2,0.5-1.8,1.4-2.5,2.5
					c-0.6,0.8-1.6,3.8-2.7,3.9c0.3,0.7,0.6,1.4,0.8,2c0.7-0.7,1.4-1.4,2.1-2.1c1-1-0.3-2.5-1.5-1.9c-0.9,0.4-1.5,1.1-2.2,1.8
					c-0.4,0.4-0.8,0.9-1.2,1.3c-0.1,0.1-0.3,0.3-0.4,0.4c-0.9,0.4-0.9,0.7-0.1,0.9C74.9,50.5,72.8,51.7,73.6,53L73.6,53z"/>
			</g>
		</g>
		<g>
			<g>
				<path class="st0" d="M87.9,42c1.5,0,1.5-2.4,0-2.4S86.4,42,87.9,42L87.9,42z"/>
			</g>
		</g>
		<g>
			<g>
				<path class="st0" d="M82.3,46.1c0.1,0.1,0.1,0.1,0.2,0.2c1.1,1.1,2.8-0.6,1.7-1.7c-0.1-0.1-0.1-0.1-0.2-0.2
					C82.9,43.3,81.2,45,82.3,46.1L82.3,46.1z"/>
			</g>
		</g>
		<g>
			<g>
				<path class="st0" d="M87.2,40.2c-1.4,1.9,1.6,2.2,2.7,2.2c4.6-0.2,9.3-0.4,13.9-0.7c1.5-0.1,1.5-2.5,0-2.4
					c-2.7,0.1-5.4,0.3-8,0.4c-1.1,0.1-2.3,0.1-3.4,0.2c-0.7,0-1.3,0.1-2,0.1c-1-0.2-1.4,0.2-1.1,1.5C90.2,40.1,88.1,38.9,87.2,40.2
					L87.2,40.2z"/>
			</g>
		</g>
		<g>
			<g>
				<path class="st0" d="M101.2,42.5c4.4,0.8,8.5-0.4,12.8-1.3c1.5-0.3,0.9-2.6-0.6-2.3c-3.8,0.8-7.6,2-11.5,1.3
					C100.4,39.9,99.7,42.2,101.2,42.5L101.2,42.5z"/>
			</g>
		</g>
		<g>
			<g>
				<path class="st0" d="M94.8,42.7c1.5,0,1.5-2.4,0-2.4C93.2,40.3,93.2,42.7,94.8,42.7L94.8,42.7z"/>
			</g>
		</g>
		<g>
			<g>
				<path class="st0" d="M115.8,36c0.2,1.4,0.7,2.7,1.3,4c0.5-0.6,0.9-1.2,1.4-1.8c-0.7-0.3-1.4-0.6-2-0.9c-0.7-0.3-1.2-1.1-1.1,0.2
					c0.1,1,0.4,0.9,1.2,1.3c0.6,0.3,1.1,0.7,1.6,1c1.5,1.1,2.9,3.4,4.9,3.8c1.3,0.3,2.2-0.8,1.9-2.1c-0.4-1.8-1.8-3.3-3.3-4.3
					c-1.3-0.8-2.5,1.3-1.2,2.1c0.2,0.1,2.6,2,2.2,2.5c0.3-0.2,0.7-0.4,1-0.6c-0.8-0.1-2-1.6-2.5-2.1c-0.7-0.6-1.5-1.2-2.3-1.8
					c-1.1-0.7-3.1-2.1-4.5-1.7c-1.1,0.3-1.6,1.5-1.1,2.4c0.8,1.3,3.2,1.9,4.5,2.4c1.1,0.4,1.8-0.9,1.4-1.8c-0.5-1.1-0.8-2.2-1.1-3.5
					C117.9,33.8,115.6,34.5,115.8,36L115.8,36z"/>
			</g>
		</g>
		<g>
			<g>
				<path class="st0" d="M119.4,40.7c-0.8,0.2-1.3,1-1.1,1.8c0.1,0.4,0.3,0.6,0.6,0.9c0.1,0.1,0.2,0.2,0.3,0.2
					c0.2,0.1,0-0.1,0.2,0.1c0.4,0.5,1.3,0.4,1.7,0c0.5-0.5,0.4-1.2,0-1.7c-0.1-0.2-0.3-0.3-0.5-0.4c-0.1,0-0.1-0.1-0.2-0.1
					c-0.2-0.1-0.2-0.1,0.2,0.3c0,0.2,0,0.4,0,0.6c-0.1,0.1-0.1,0.2-0.2,0.3c-0.2,0.1-0.4,0.2-0.5,0.3h0.1c0.6-0.1,1-0.9,0.8-1.5
					C120.7,40.8,120.1,40.5,119.4,40.7L119.4,40.7z"/>
			</g>
		</g>
		<g>
			<g>
				<path class="st0" d="M116.1,34.4c0.6,0.6,1.2,1.3,1.8,2c0.6-0.5,1.3-1,1.9-1.5c-0.5-0.6-1-1.2-1.5-1.8c-0.6,0.5-1.3,1-1.9,1.5
					c1,1.1,1.8,2.3,2.6,3.5c0.8,1.1,2.5,0.4,2.2-0.9c-0.1-0.3-0.1-0.5-0.2-0.8c0-0.5-0.1-0.5-0.2-0.1c-0.3,0.2-0.7,0.4-1,0.6
					c0.4,0,1,0.3,1.4,0.4c0.5,0.1,1,0.2,1.5,0.1c1.5-0.1,1.5-2.5,0-2.4c-1.1,0.1-2.7-1-3.7-0.2c-0.9,0.7-0.3,2.1-0.1,3
					c0.7-0.3,1.5-0.6,2.2-0.9c-0.9-1.4-1.9-2.7-3-4c-0.9-1-2.7,0.3-1.9,1.5c0.6,0.8,1.2,1.6,1.8,2.3c0.9,1,2.7-0.4,1.9-1.5
					c-0.7-0.9-1.4-1.7-2.2-2.5C116.7,31.6,115,33.3,116.1,34.4L116.1,34.4z"/>
			</g>
		</g>
		<g>
			<g>
				<path class="st0" d="M118.4,31.3c-0.6-0.4-1.2-0.7-2-0.8c-0.9-0.2-1.8,0.5-1.5,1.5c0.7,2.4,4.5,1.1,5.9,3c0.9,1.2,3,0,2.1-1.2
					c-0.7-0.9-1.5-1.5-2.6-1.9s-2.5-0.3-3.5-1c0.2,0.2,0.4,0.5,0.6,0.7c0-0.1,0-0.1-0.1-0.2c-0.5,0.5-1,1-1.5,1.5
					c0.5,0.1,0.9,0.3,1.4,0.6C118.4,34.2,119.6,32.2,118.4,31.3L118.4,31.3z"/>
			</g>
		</g>
		<g>
			<g>
				<path class="st0" d="M120.6,29.9c-0.4,0-0.8,0-1.2,0c-1.2,0-1.6,1.7-0.6,2.2c1,0.6,1.8,1.4,2.7,2.2c0.4,0.4,0.8,0.7,1.2,1
					c0.4,0.3,1,0.5,1.3,0.9c0.8,1.3,2.9,0.1,2.1-1.2c-0.7-1.1-2-1.6-2.9-2.4c-1-0.9-1.9-1.9-3.1-2.6c-0.2,0.7-0.4,1.5-0.6,2.2
					c0.4,0,0.8,0,1.2,0C122.1,32.4,122.1,30,120.6,29.9L120.6,29.9z"/>
			</g>
		</g>
		<g>
			<g>
				<path class="st0" d="M125.3,34.8c-0.1-0.7-0.6-1.2-1.1-1.6c-0.5-0.4-0.8-0.9-1.2-1.5c-0.7-1.4-2.8-0.1-2.1,1.2
					c0.3,0.6,0.7,1.1,1.2,1.6c0.3,0.3,0.8,0.6,0.9,0.9c0.1,0.6,0.9,1,1.5,0.8C125.2,36.1,125.5,35.4,125.3,34.8L125.3,34.8z"/>
			</g>
		</g>
		<g>
			<g>
				<path class="st0" d="M99.8,33c1.5,0,1.5-2.4,0-2.4C98.3,30.5,98.3,33,99.8,33L99.8,33z"/>
			</g>
		</g>
		<g>
			<g>
				<path class="st0" d="M113.6,38.2c-0.1,0-0.1,0.1-0.2,0.1c-0.6,0.3-0.7,1.1-0.4,1.6c0.3,0.6,1.1,0.7,1.6,0.4
					c0.1,0,0.1-0.1,0.2-0.1c0.6-0.3,0.7-1.1,0.4-1.6C114.9,38.1,114.2,37.9,113.6,38.2L113.6,38.2z"/>
			</g>
		</g>
		<g>
			<g>
				<path class="st0" d="M95.8,36.3c-0.9,0.7-2,1.3-3.1,1.7c0.6,0.5,1.2,0.9,1.8,1.4c0.5-1.5,1-4.1,2.3-5.1s4.2-1.3,6-1.4
					c3-0.2,15.1,1.1,9.9,6.5c-0.8,0.8-0.2,1.9,0.8,2c1.6,0.1,3.3,0.4,4.8,0.9c0-0.8,0-1.5,0-2.3c-0.3,0.1-0.7,0.2-1,0.3
					c-1.5,0.4-0.9,2.7,0.6,2.3c0.3-0.1,0.7-0.2,1-0.3c1.2-0.3,1.1-1.9,0-2.3c-1.8-0.6-3.6-0.7-5.5-1c0.3,0.7,0.6,1.4,0.8,2
					c1.2-1.3,3.5-3.9,2.8-5.9c-0.7-2.3-6.2-3.8-8.3-4.4c-3.4-0.9-8.8-1-12,0.3c-2.7,1.1-3.9,5.2-4.7,7.7c-0.4,1.1,0.9,1.8,1.8,1.4
					c1.1-0.4,2.1-1,3.1-1.7C98.3,37.5,97.1,35.4,95.8,36.3L95.8,36.3z"/>
			</g>
		</g>
		<g>
			<g>
				<path class="st0" d="M117.2,42.5c1.1,0.6,2,1.7,3.1,2.3c1.3,0.8,2.1,1.8,3,3.1c0.8,1.3,2.9,0.1,2.1-1.2
					c-0.1-0.1-0.1-0.2-0.2-0.3c-0.8-1.3-2.9-0.1-2.1,1.2c0.1,0.1,0.1,0.2,0.2,0.3c0.7-0.4,1.4-0.8,2.1-1.2c-0.9-1.4-1.8-2.7-3.2-3.6
					c-0.7-0.4-1.4-0.7-2-1.3c-0.6-0.5-1.1-1-1.8-1.4C117.1,39.7,115.9,41.7,117.2,42.5L117.2,42.5z"/>
			</g>
		</g>
		<g>
			<g>
				<path class="st0" d="M122.9,44.1c-0.5-0.2-0.9-0.4-1.4-0.6c-1.3-0.8-2.5,1.3-1.2,2.1c0.6,0.4,1.3,0.7,2,0.9
					C123.7,46.9,124.4,44.6,122.9,44.1L122.9,44.1z"/>
			</g>
		</g>
		<g>
			<g>
				<path class="st0" d="M122,40.9c1.5,0.9,2.9,2.9,3.5,4.6c0.3,0.8,0.2,1.7,0.5,2.5c0.3,1,0.7,1.8,0.6,2.9c0.8-0.1,1.6-0.2,2.4-0.3
					c-0.6-2.7-3.4-4-3.9-6.7c-0.3-1.5-2.6-0.9-2.3,0.6c0.5,2.7,3.3,4.1,3.9,6.7c0.3,1.4,2.3,1,2.4-0.3c0.1-1.3-0.4-2.3-0.7-3.5
					s-0.3-2.3-0.8-3.4c-0.9-2-2.3-4-4.2-5.2C121.9,38.1,120.7,40.1,122,40.9L122,40.9z"/>
			</g>
		</g>
		<g>
			<g>
				<path class="st0" d="M125.3,47.9c0.8,0.9,1,1.8,1.2,2.9c0.1,1.1,0.5,2,0.8,3.1c0.4,1.5,2.8,0.8,2.3-0.6c-0.7-2.5-0.8-5-2.6-7
					C126,45,124.3,46.7,125.3,47.9L125.3,47.9z"/>
			</g>
		</g>
		<g>
			<g>
				<path class="st0" d="M123.5,36.1c0.5,0.2,0.9,0.5,1.2,0.9c1.1,1.1,2.8-0.6,1.7-1.7c-0.7-0.7-1.4-1.2-2.3-1.5
					c-0.6-0.2-1.3,0.3-1.5,0.8C122.5,35.3,122.9,35.9,123.5,36.1L123.5,36.1z"/>
			</g>
		</g>
		<g>
			<g>
				<path class="st0" d="M118.6,29.7c-0.3-0.3-0.5-0.6-0.8-1c-0.7,0.4-1.3,0.8-2,1.2c0.3,0.3,0.6,0.6,0.9,0.9c0.5-0.6,1-1.3,1.5-1.9
					c-2.5-1.7-5.8-2.5-8.7-3.1c-1.6-0.3-4.7-1.1-5.9,0.3c-0.3,0.3-0.5,0.8-0.3,1.2c0.7,2,3.6,1.5,5.2,2c2.7,1,4.7,3.1,7.8,2.7
					c1.5-0.2,1.6-2.4,0-2.4c-0.4-0.3-0.9-0.5-1.3-0.8c-0.7-1.4-2.8-0.2-2.1,1.2c0.7,1.4,1.8,2,3.4,2c0-0.8,0-1.6,0-2.4
					c-2.5,0.3-4.2-1.4-6.3-2.3c-0.3-0.1-4.6-1.3-4.4-0.7c-0.1,0.4-0.2,0.8-0.3,1.2c0.1-0.2,3.4,0.3,3.1,0.2c1,0.1,2,0.4,2.9,0.7
					c2,0.5,4,1.1,5.7,2.2c1.1,0.8,2.4-0.9,1.5-1.9c-0.3-0.3-0.6-0.6-0.9-0.9c-0.8-0.8-2.4,0-2,1.2c0.3,1.2,0.8,1.8,1.9,2.4
					C118.7,32.5,120,30.4,118.6,29.7L118.6,29.7z"/>
			</g>
		</g>
		<g>
			<g>
				<path class="st0" d="M98.4,28.4c1.3-2.1,6.6-1.6,8.7-1.4c2.8,0.3,5.4,1.5,8.2,1.9c1.5,0.2,2.2-2.1,0.6-2.3c-4.3-0.6-8-2-12.4-2
					c-3,0-5.4-0.2-7.2,2.6C95.5,28.6,97.6,29.8,98.4,28.4L98.4,28.4z"/>
			</g>
		</g>
	</g>
	<g>
		<path class="st1" d="M73.9,54c-0.4,0.1-0.6,0.5-0.5,0.9"/>
		<g>
			<path class="st1" d="M73.5,52.6c-1,0.4-1.8,1.2-1.6,2.3c0.1,0.8,0.6,1.5,1.5,1.5c0.7,0,1.6-0.7,1.5-1.5c0-0.2,0-0.2,0,0
				c-0.1,0.3-0.3,0.5-0.5,0.5c0.8-0.3,1.3-1,1-1.8C75.2,52.9,74.3,52.3,73.5,52.6L73.5,52.6z"/>
		</g>
	</g>
	<g>
		<g>
			<path class="st0" d="M97.8,28.9c-2.1,0.1-4.3,0.1-6.4,0c-7.8-0.2-7.6,11.4,0,12c4,0.3,6.5-1.3,10.1-2.8c2.6-1,4.8,0.5,7.1,1.8
				c0-3.5,0-6.9,0-10.4c0.2-0.1-2.9,0-2.9,0c-1.4,0.2-2.9,0.4-4.3,0.7c-2.5,0.5-4,0.8-6.6,0.2c-7.5-1.8-10.7,9.8-3.2,11.6
				c4.1,1,7.6,1,11.7,0.1c3.7-0.8,7.8-0.5,11.2-2.3c4-2.1,3.8-8.3,0-10.4c-3.6-2-7.3-3.8-11.5-3.8c-2.1,0-4.1,0.4-6,1.2
				c-2.1,0.9-3.4,2.2-5.8,2c0,4,0,8,0,12c2.1,0,4.3,0,6.4,0C105.5,40.7,105.6,28.7,97.8,28.9L97.8,28.9z"/>
		</g>
	</g>
	<g>
		<g>
			<path class="st0" d="M95,41.7c2-0.6,3.4-2,4.8-3.4c1-0.9,2-1.9,3-2.8c2.3-2.2,2.3-6.3,0-8.5c-2.5-2.2-6-2.3-8.5,0
				c-0.8,0.8-1.6,1.5-2.4,2.3c-0.4,0.4-0.8,0.7-1.1,1.1c-0.2,0.2-0.4,0.4-0.6,0.5c-1,0.9-0.4-0.2,1.6-0.8c-3,0.8-5.2,4.3-4.2,7.4
				C88.6,40.6,91.8,42.6,95,41.7L95,41.7z"/>
		</g>
	</g>
	<g>
		<g>
			<path class="st0" d="M109.1,40.9c2,0.2,4,0.3,6,0.5c1.4,0.2,3.3-0.8,4.2-1.8c1-1,1.8-2.7,1.8-4.2c-0.1-1.6-0.6-3.2-1.8-4.2
				c-1.3-1.1-2.6-1.6-4.2-1.8c-2-0.2-4-0.3-6-0.5c-3.1-0.2-6.1,2.9-6,6C103.2,38.3,105.7,40.6,109.1,40.9L109.1,40.9z"/>
		</g>
	</g>
	<g>
		<g>
			<path class="st0" d="M77.7,40.5c-0.4,0.3-0.7,0.5-0.9,1c-0.1,0.2-0.3,1.3-0.5,1.3c0.5,0.4,1,0.8,1.5,1.2c0-0.9,0.2-1.7,0.4-2.5
				c0.1-1,0.7-1.6,1.8-1.6c0.7-0.6,0.7-0.7,0.1-0.2c-1.4,0.8-2.7,1.8-4.2,2.5c0.5,0.6,1,1.3,1.5,1.9c1.1-1.1,2.4-2,3.7-2.8
				c1.2-0.7,0.4-2.4-0.9-2.2c-0.7,0.1-1.3,0.3-2,0.5c0.4,0.7,0.8,1.3,1.2,2c0.6-0.6,4.6-3.8,3.9-1.3c-0.4,1.6-2.7,3.2-4,4.1
				c0.4,0.7,0.8,1.4,1.2,2.1c0.6-0.4,1.1-0.8,1.7-1.1c-0.6-0.3-1.2-0.7-1.8-1c0,1.2-0.1,2.3-0.1,3.5c0,1.3,2.1,1.7,2.4,0.3
				c0.3-1.9,1.6-2.4,3-3.4c1.1-0.8,2-1.7,3-2.6c1.1-1.1-0.6-2.8-1.7-1.7c-2.4,2.2-6,3.6-6.6,7.1c0.8,0.1,1.6,0.2,2.4,0.3
				c0-1.2,0.1-2.3,0.1-3.5c0-1-1-1.4-1.8-1c-0.7,0.3-1.2,0.6-1.7,1.1c-1.2,0.9-0.1,2.9,1.2,2.1c2.2-1.5,6.8-5.2,5.2-8.3
				c-1.7-3.4-6.4,0.1-8,1.8c-0.8,0.8,0,2.4,1.2,2c0.7-0.2,1.3-0.4,2-0.5c-0.3-0.7-0.6-1.5-0.9-2.2c-1.6,0.9-3,1.9-4.2,3.2
				c-1,1,0.3,2.5,1.5,1.9c1.8-0.9,8.8-4.4,4.2-6.5c-4.3-1.9-5.8,2.8-6,6.2c0,0.8,0.8,1.4,1.5,1.2c0.5-0.2,0.8-0.3,1.2-0.7
				c0.4-0.4,0.4-1.6,0.8-1.8C80.1,41.7,78.9,39.6,77.7,40.5L77.7,40.5z"/>
		</g>
	</g>
	<g>
		<g>
			<path class="st0" d="M88.2,39.3c-1.1-1.8-3.6-1.1-5.2-0.6c-1.7,0.6-3.9,1.7-3.1,3.9c0.5,1.4,2.8,0.8,2.3-0.6
				c-0.2-0.6,1.6-1,2-1.1s0.8-0.2,1.2-0.3c0.2,0,0.7,0,0.7-0.1C86.9,41.8,89,40.6,88.2,39.3L88.2,39.3z"/>
		</g>
	</g>
	<g>
		<g>
			<path class="st0" d="M72.5,52.7c-0.3,0.4-0.4,0.8-0.4,1.3c0,0.1-0.1,0.3,0,0.5c0-0.1,0,0,0,0.1c0.1-0.2,0.1-0.2,0-0.1
				c0.6,0.6,1.1,1.1,1.7,1.7c1.2-1,2.2-2.2,3-3.6c0.8-1.3-1.3-2.6-2.1-1.2c-0.7,1.2-1.5,2.2-2.6,3.1c-0.5,0.4-0.4,1.3,0,1.7
				c0.5,0.5,1.2,0.4,1.7,0c0.4-0.3,0.6-0.8,0.7-1.3c0.1-0.3,0-0.8,0.2-1.1c0.4-0.5,0.1-1.3-0.4-1.6C73.5,51.9,72.8,52.2,72.5,52.7
				L72.5,52.7z"/>
		</g>
	</g>
	<g>
		<g>
			<path class="st0" d="M74.4,45.9c-0.9,0.2-1.6,0.9-1.9,1.8c-0.3,1-0.1,2-0.1,3c-0.1,1.5,2.3,1.5,2.4,0c0-0.6-0.1-1.2-0.1-1.8
				c0-0.2,0-0.3,0.1-0.4c0.1-0.3,0.1-0.2,0.3-0.2C76.5,47.9,75.9,45.6,74.4,45.9L74.4,45.9z"/>
		</g>
	</g>
	<g>
		<g>
			<path class="st0" d="M120.1,38.8c1.2-0.9,2.4-1.8,4-1.6c-0.2-0.7-0.4-1.5-0.6-2.2c-1,0.5-2.3,0.4-3.3,0.8c-0.9,0.4-0.7,1.6,0,2.1
				c1.1,0.7,2,1.7,2.8,2.7c0.9,1.2,3,0,2.1-1.2c-1-1.4-2.2-2.6-3.7-3.6c0,0.7,0,1.4,0,2.1c1.1-0.5,2.2-0.3,3.3-0.8
				c1.2-0.6,0.4-2.1-0.6-2.2c-2.2-0.3-4.1,1-5.7,2.3c-0.5,0.4-0.4,1.3,0,1.7C118.9,39.3,119.6,39.2,120.1,38.8L120.1,38.8z"/>
		</g>
	</g>
	<g>
		<g>
			<g>
				<path class="st2" d="M89.8,36.1c-3.9-2.9,3.7-6,5.4-6.6c0.9-0.4,7.5-1.9,7.6-2.2c-0.2,0.7,1,1.1,1.2,0.3c0-0.1,0-0.1,0-0.2
					c0.1-0.3,0-0.5-0.3-0.7c-1.3-0.8-4,0.1-5.4,0.4c-2.6,0.7-5.4,1.8-7.7,3.2c-2.5,1.5-4.2,4.7-1.4,6.8
					C89.8,37.6,90.4,36.6,89.8,36.1L89.8,36.1z"/>
			</g>
		</g>
		<g>
			<g>
				<path class="st2" d="M117.8,31.7c2.2,0.1,4.1,1,5.6,2.6c0.5,0.6,1.4-0.3,0.8-0.8c-1.7-1.9-3.9-2.9-6.4-3
					C117,30.5,117,31.7,117.8,31.7L117.8,31.7z"/>
			</g>
		</g>
		<g>
			<g>
				<path class="st2" d="M118,41.1c2.5,2.6,6.7,3.2,8.8,6.2c0.4,0.6,1.5,0,1-0.6c-2.2-3.2-6.4-3.7-9-6.5
					C118.3,39.7,117.4,40.6,118,41.1L118,41.1z"/>
			</g>
		</g>
		<g>
			<g>
				<path class="st2" d="M93.6,40.7c6-0.8,12.1-0.2,18.1-1.8c0.7-0.2,0.4-1.4-0.3-1.2c-5.9,1.7-12,1-18.1,1.8
					C92.5,39.7,92.8,40.8,93.6,40.7L93.6,40.7z"/>
			</g>
		</g>
		<g>
			<g>
				<path class="st2" d="M75.3,52.5c0.2-2.3,0.1-10.9,3.3-11.6c0.8-0.2,0.4-1.3-0.3-1.2c-2,0.4-2.6,2.1-3,4c-0.6,2.9-1,5.8-1.2,8.8
					C74.1,53.3,75.3,53.3,75.3,52.5L75.3,52.5z"/>
			</g>
		</g>
	</g>
	<g>
		<g>
			<g>
				<path d="M72.5,59.2c-0.1-4.8-0.1-27.1,9.6-22.4c0.7,0.3,1.3-0.7,0.6-1c-11.4-5.6-11.5,17.8-11.4,23.4
					C71.4,59.9,72.6,60,72.5,59.2L72.5,59.2z"/>
			</g>
		</g>
		<g>
			<g>
				<path d="M73.1,60.3c-1.6-4.6,5.7-6.6,7.9-9c0.9-1.1,1.5-2.4,2.4-3.5c0.3-0.4,4.6-5.1,4.9-4.9c0.6,0.4,1.2-0.6,0.6-1
					c-1-0.7-2,0.7-2.6,1.3c-2.4,2.1-3.9,4.3-5.8,6.7c-2.4,3.2-10.4,5.4-8.6,10.8C72.2,61.3,73.4,61,73.1,60.3L73.1,60.3z"/>
			</g>
		</g>
		<g>
			<g>
				<path d="M88.5,43.3c5.1,0,10.1,0.1,15.2,0.1c4.4,0,8.6-0.9,13-1.1c0.8,0,0.8-1.2,0-1.2c-4.4,0.2-8.6,1.1-13,1.1
					c-5.1,0-10.1-0.1-15.2-0.1C87.7,42.1,87.7,43.3,88.5,43.3L88.5,43.3z"/>
			</g>
		</g>
		<g>
			<g>
				<path d="M116.1,42.6c2.2,2.8,5.1,3.7,7.6,6.1c2.7,2.6,4.2,6.2,4.8,9.9c0.1,0.8,1.3,0.4,1.2-0.3c-0.6-3.2-1.8-6.2-3.8-8.9
					c-2.5-3.2-6.4-4.4-8.9-7.6C116.4,41.2,115.6,42,116.1,42.6L116.1,42.6z"/>
			</g>
		</g>
		<g>
			<g>
				<path d="M129.7,59c0.6-7.4-0.6-17.6-7-22.5c-0.6-0.5-1.2,0.6-0.6,1c6,4.6,7,14.5,6.4,21.4C128.5,59.8,129.7,59.8,129.7,59
					L129.7,59z"/>
			</g>
		</g>
		<g>
			<g>
				<path d="M116,30c4.4-1.3,8.7,3.2,10.3,6.8c0.3,0.7,1.3,0.1,1-0.6c-1.8-4.2-6.7-8.8-11.6-7.4C114.9,29,115.2,30.2,116,30L116,30z
					"/>
			</g>
		</g>
		<g>
			<g>
				<path d="M126.8,37.2c-2-0.4-4.1-0.7-6.1-0.7c-0.8,0-0.8,1.2,0,1.2c2,0,3.9,0.2,5.8,0.7C127.2,38.5,127.5,37.4,126.8,37.2
					L126.8,37.2z"/>
			</g>
		</g>
		<g>
			<g>
				<path d="M125.9,37.2c0,0.1,0,0.2,0,0.3c0,0.8,1.2,0.8,1.2,0c0-0.1,0-0.2,0-0.3C127.1,36.4,125.9,36.4,125.9,37.2L125.9,37.2z"/>
			</g>
		</g>
		<g>
			<g>
				<path d="M83.9,36.3c0.4-6,10.4-9.9,15.3-10.8c6.6-1.3,13.1,0,18.9,3.2c0.7,0.4,1.3-0.7,0.6-1c-6.8-3.7-14.7-5-22.2-2.7
					c-5.1,1.5-13.4,5.4-13.8,11.4C82.6,37,83.8,37,83.9,36.3L83.9,36.3z"/>
			</g>
		</g>
		<g>
			<g>
				<path d="M86.1,38.8c-1.1-0.5-1.8-1.6-1.8-2.8c0-0.8-1.2-0.8-1.2,0c0,1.6,0.9,3.1,2.3,3.8C86.2,40.2,86.8,39.1,86.1,38.8
					L86.1,38.8z"/>
			</g>
		</g>
	</g>
</g>
</svg>
