<?xml version="1.0" encoding="utf-8"?>
<!-- Generator: Adobe Illustrator 21.0.2, SVG Export Plug-In . SVG Version: 6.00 Build 0)  -->
<svg version="1.1" id="Layer_1" xmlns="http://www.w3.org/2000/svg" xmlns:xlink="http://www.w3.org/1999/xlink" x="0px" y="0px"
	 viewBox="0 0 200 600" style="enable-background:new 0 0 200 600;" xml:space="preserve">
<style type="text/css">
	.st0{fill:#F07A22;}
	.st1{fill:#EE8722;}
</style>
<g>
	<g>
		<g>
			<path class="st0" d="M100.5,36.4c0.4-0.4,0.1-1.2-0.5-1.6c-0.5-0.3-1.2-0.4-1.7-0.8c3.9,0.1,7.9,0.1,11.8,0.2"/>
			<g>
				<path class="st0" d="M105.7,39.5c1.1-2.3,1.4-4.7,0-7.1c-0.5-0.9-1.2-1.6-2-2.2c-0.3-0.2-3.2-1.8-2.3-1.3c-1,3.7-2,7.5-3,11.2
					c3.9,0.1,7.9,0.1,11.8,0.2c7.7,0.1,7.7-11.9,0-12c-3.9-0.1-7.9-0.1-11.8-0.2c-5.9-0.1-8.2,8.3-3,11.2c0.4,0.2,0.8,0.4,1.3,0.6
					c1.4,0.7,1,0.3-1.1-1.2c-0.3-1-0.5-2-0.8-3c0,0.1,0,0.3,0.1,0.4c0.3-1,0.5-2,0.8-3c-0.1,0.1-0.1,0.3-0.2,0.4
					c-1.4,2.9-0.8,6.5,2.2,8.2C100.1,43.2,104.3,42.4,105.7,39.5L105.7,39.5z"/>
			</g>
		</g>
		<g>
			<path class="st0" d="M83.4,41.5c-1.8,0.3-3.4,1.2-4.7,2.4c-1.3,1.2-2.4,2.6-3.5,4c-1,1.3-2,2.6-2.3,4.2"/>
			<g>
				<path class="st0" d="M83,40.1c-2.8,0.6-5.1,2.3-7,4.4c-1.9,2.1-4,4.5-4.6,7.3c-0.5,1.9,2.4,2.7,2.9,0.8c0.5-2.3,2.3-4.2,3.9-6
					s3.3-3.1,5.6-3.6C85.7,42.6,84.9,39.7,83,40.1L83,40.1z"/>
			</g>
		</g>
		<g>
			<path class="st0" d="M88.5,37.4c-1-0.3-2.1-0.4-3.2-0.5c0.2,0,0.4,0,0.6,0.2c-0.1,0.5-0.2,1.1-0.2,1.6c-0.3-1-0.5-2.1-0.6-3.2
				c0-0.4-0.1-0.8,0.1-1.1c0.1-0.3,0.4-0.6,0.7-0.9c0.8-0.8,1.6-1.7,2.4-2.5c0.4-0.5,0.9-0.9,1.5-1.2c0.5-0.3,1.1-0.3,1.7-0.5
				c1.3-0.4,2.5-1.1,3.8-1.6s2.8-0.6,4,0.1"/>
			<g>
				<path class="st0" d="M88.9,36c-1.2-0.3-2.4-0.5-3.6-0.6c-1.7-0.2-2,2.5-0.4,2.9c0.2,0.1,0.4,0.1,0.6,0.2c-0.3-0.6-0.7-1.2-1-1.8
					c-0.1,0.5-0.2,1.1-0.2,1.6c1,0,1.9,0,2.9,0c-0.4-1.7-0.7-2.9,0.3-4.4c0.8-1.1,2.3-2.5,3.5-3c1.8-0.8,5.7-2.7,7.5-1.8
					c1.7,0.9,3.2-1.7,1.5-2.6c-1.8-0.9-3.6-0.9-5.5-0.1c-2,0.8-4.6,1.3-6.3,2.6c-1.4,1-3.2,2.7-4,4.1c-1.1,1.8-0.3,4.1,0.1,6
					c0.3,1.4,2.7,1.5,2.9,0c0.1-0.5,0.2-1.1,0.2-1.6c0.1-0.8-0.2-1.6-1-1.8c-0.2-0.1-0.4-0.1-0.6-0.2c-0.1,1-0.3,2-0.4,2.9
					c0.9,0.1,1.9,0.2,2.8,0.5C90,39.3,90.8,36.4,88.9,36L88.9,36z"/>
			</g>
		</g>
		<g>
			<path class="st0" d="M90.8,35.2c-0.5,0-0.9,0-1.4,0c1.5-0.1,3,0,4.4,0.4c-1.5,1.1-3.5,1.6-5.3,1.1c1.4-0.2,2.9,0.2,3.9,1.1
				c-0.3,0.5-0.9,0.6-1.5,0.7c-1.4,0.2-2.8,0.4-4.1,0.6c0.5,0.3,1.1,0.4,1.7,0.5c-1.3,0-2.5,0-3.8-0.1c-0.5,0-1.2-0.1-1.3-0.7
				c-0.1-0.5,0.3-1.1-0.2-1.3c-0.2-0.1-0.3,0-0.5,0c-0.6,0.2-1.3,0.1-1.8-0.3c-0.3-0.1-0.5-0.3-0.8-0.4c-0.9-0.2-1.6,0.7-2.4,1.1
				c-0.4,0.2-0.7,0.3-1.1,0.5c-0.9,0.6-1.2,1.7-1.3,2.8c-0.4,2.1-0.8,4.3-1.2,6.4"/>
			<g>
				<path class="st0" d="M90.8,33.7c-0.5,0-0.9,0-1.4,0c-1.9,0.1-1.9,3.1,0,3c1.4-0.1,2.7,0,4,0.4c-0.1-0.9-0.2-1.8-0.4-2.7
					c-1.2,0.9-2.6,1.3-4.1,1c-0.1,1-0.3,2-0.4,2.9c1.2-0.2,2.3,0.1,3.2,0.9c0-0.9,0-1.7,0-2.6c-1,0.8-3.6,0.9-4.9,1
					c-1.7,0.2-2.1,2.3-0.4,2.9c0.6,0.3,1.1,0.4,1.7,0.5c0.1-1,0.3-2,0.4-2.9c-1.7,0-3.3,0.6-3.9-0.9c-0.2-0.6-0.8-1.1-1.4-1.1
					c-1.4,0.1-2.5-0.8-3.9-0.6c-1.1,0.2-2.7,1.2-3.6,1.9c-2.6,2.1-2.5,7-3.1,10c-0.4,1.9,2.5,2.7,2.9,0.8c0.5-2.7,0.4-7.3,2.9-8.8
					c1.7-1,2.8-0.2,4.7-0.3c-0.5-0.4-1-0.7-1.4-1.1c0.4,1.1,0.1,2,1.4,2.7c1.4,0.8,3.9,0.4,5.4,0.4c1.6,0,2.1-2.6,0.4-2.9
					c-0.6,0-1.2-0.2-1.7-0.5c-0.1,1-0.3,2-0.4,2.9c2-0.3,4.7-0.1,6.4-1.5c0.9-0.7,1-1.9,0-2.6c-1.5-1-2.9-1.3-4.7-1.3
					c-1.6,0.1-2.2,2.7-0.4,2.9c2.4,0.3,4.4,0,6.4-1.3c1-0.7,0.9-2.4-0.4-2.7c-1.6-0.4-3.1-0.5-4.8-0.5c0,1,0,2,0,3
					c0.5,0,0.9,0,1.4,0C92.7,36.7,92.7,33.7,90.8,33.7L90.8,33.7z"/>
			</g>
		</g>
		<g>
			<path class="st0" d="M85,43.8c0.3-1.1,0.9-2.2,1.8-3c-1,1.3-2.4,2.3-3.7,3.2c-2.6,1.8-5.1,3.7-7.5,5.8c-0.3,0.3-0.7,0.6-0.9,1.1
				c-0.2,0.4,0,1,0.4,1.2"/>
			<g>
				<path class="st0" d="M86.4,44.2c0.3-1,0.7-1.6,1.4-2.3c-0.7-0.7-1.4-1.4-2.1-2.1c-2.3,2.9-6,4.8-8.9,7c-1.7,1.3-5.5,4-2.8,6.3
					c1.5,1.2,3.6-0.9,2.1-2.1c0.3,0.3,5.9-4.4,6.6-4.9c1.8-1.3,3.7-2.4,5.1-4.2c1.2-1.5-0.8-3.6-2.1-2.1c-1,1.1-1.7,2.2-2.1,3.7
					C82.9,45.2,85.8,46,86.4,44.2L86.4,44.2z"/>
			</g>
		</g>
		<g>
			<path class="st0" d="M74.6,52.4c0,0.2,0.2,0.3,0.4,0.3c0.2,0,0.4-0.1,0.6-0.2c0.8-0.6,1.6-1.2,2.2-2c0.7-0.8,1.3-1.7,2.3-2
				c-0.7,0.7-1.4,1.4-2.1,2.1c0.5,0.1,1.1-0.2,1.4-0.6c0.4-0.4,0.6-0.9,0.8-1.4c0.7-1.4,1.6-2.7,2.5-3.9c0.2-0.2,0.4-0.5,0.8-0.5"/>
			<g>
				<path class="st0" d="M73.3,53.2c2.2,3.6,5.8-2.5,7.6-3.4c-0.6-0.8-1.2-1.6-1.8-2.4c-0.7,0.7-1.4,1.4-2.1,2.1
					c-0.9,0.8-0.3,2.7,1.1,2.6c1.6-0.2,2.5-0.9,3.3-2.3c0.4-0.7,0.7-1.3,1.1-2c0.3-0.5,1-2,1.5-2.2c1.8-0.7,1-3.6-0.8-2.9
					c-1.3,0.5-1.9,1.5-2.7,2.6C80,46,78.9,49,78,49.1c0.4,0.9,0.7,1.7,1.1,2.6c0.7-0.7,1.4-1.4,2.1-2.1c1.3-1.2-0.3-3.1-1.8-2.4
					c-0.9,0.4-1.6,1.1-2.3,1.9c-0.4,0.4-0.8,0.9-1.2,1.3c-0.3,0.3-1.5,0.7-0.8,0.9c0.3,0.2,0.6,0.5,0.9,0.7
					c-0.1-0.1-0.1-0.2-0.2-0.2C74.9,50,72.3,51.5,73.3,53.2L73.3,53.2z"/>
			</g>
		</g>
		<g>
			<path class="st0" d="M87.9,40.8"/>
			<g>
				<path class="st0" d="M87.9,42.3c1.9,0,1.9-3,0-3S86,42.3,87.9,42.3L87.9,42.3z"/>
			</g>
		</g>
		<g>
			<path class="st0" d="M83.2,45.3c0.1,0.1,0.1,0.1,0.2,0.2"/>
			<g>
				<path class="st0" d="M82.1,46.3c0.1,0.1,0.1,0.1,0.2,0.2c0.6,0.6,1.5,0.6,2.1,0s0.6-1.5,0-2.1c-0.1-0.1-0.1-0.1-0.2-0.2
					c-0.6-0.6-1.5-0.6-2.1,0S81.5,45.7,82.1,46.3L82.1,46.3z"/>
			</g>
		</g>
		<g>
			<path class="st0" d="M88.2,40.8c-0.1,0-0.1,0.3,0,0.3c0.1,0.1,0.3,0.1,0.4,0.1c0.9,0,1.7-0.1,2.6-0.1c4.2-0.2,8.4-0.4,12.6-0.6"
				/>
			<g>
				<path class="st0" d="M86.9,40c-1.5,2.2,1.6,2.7,3,2.6c4.6-0.2,9.3-0.4,13.9-0.7c1.9-0.1,1.9-3.1,0-3c-2.7,0.1-5.4,0.3-8,0.4
					c-2.2,0.1-5,0.7-7.2,0.3c0.3,0.3,0.7,0.7,1,1c0,0.3-0.1,0.5-0.1,0.8C90.6,40,88,38.5,86.9,40L86.9,40z"/>
			</g>
		</g>
		<g>
			<path class="st0" d="M101.6,41.4c4,0.9,8.1-0.5,12.2-1.3"/>
			<g>
				<path class="st0" d="M101.2,42.8c4.5,0.8,8.6-0.4,13-1.3c1.9-0.4,1.1-3.3-0.8-2.9c-3.7,0.8-7.5,2-11.4,1.3
					C100.1,39.6,99.3,42.5,101.2,42.8L101.2,42.8z"/>
			</g>
		</g>
		<g>
			<path class="st0" d="M94.8,41.5"/>
			<g>
				<path class="st0" d="M94.8,43c1.9,0,1.9-3,0-3C92.8,40,92.8,43,94.8,43L94.8,43z"/>
			</g>
		</g>
		<g>
			<path class="st0" d="M117,35.7c0.2,1.3,0.6,2.6,1.2,3.7c-1.2-0.4-2.3-1-3.4-1.5c-0.2-0.1-0.4-0.2-0.4-0.4s0.2-0.5,0.4-0.5
				s0.5,0,0.7,0.1c2,0.8,3.8,2,5.3,3.5c0.8,0.8,1.6,1.7,2.6,2c0.1,0,0.2,0.1,0.3,0c0.2-0.1,0.2-0.4,0.2-0.6
				c-0.4-1.5-1.4-2.8-2.8-3.5"/>
			<g>
				<path class="st0" d="M115.6,36.1c0.2,1.5,0.7,2.8,1.3,4.1c0.6-0.7,1.1-1.5,1.7-2.2c-0.7-0.3-1.3-0.5-1.9-0.8
					c-0.2-0.1-1.2-0.8-1-0.5c0.1,0.4,0.1,0.8,0.2,1.2c0-0.1,0.1-0.2,0.1-0.3c-0.2,0.3-0.5,0.6-0.7,0.9c0.1-0.1,2.2,1.3,2.4,1.4
					c1,0.6,1.8,1.4,2.6,2.2c0.9,0.9,2.3,2.3,3.8,2.1c1.5-0.3,1.6-1.8,1.2-3c-0.6-1.7-1.8-3-3.3-3.9c-1.7-1-3.2,1.6-1.5,2.6
					c0.2,0.1,2.3,1.8,2.1,2.1c0.4-0.2,0.9-0.5,1.3-0.7c-0.7,0-1.8-1.6-2.3-2.1c-0.7-0.7-1.5-1.3-2.3-1.8c-1.2-0.8-3.2-2.2-4.7-1.8
					c-1.2,0.3-1.9,1.8-1.2,2.9c0.8,1.4,3.3,2,4.7,2.5c1.3,0.5,2.2-1.2,1.7-2.2c-0.5-1.1-0.8-2.2-1-3.4
					C118.1,33.4,115.2,34.2,115.6,36.1L115.6,36.1z"/>
			</g>
		</g>
		<g>
			<path class="st0" d="M119.8,41.8c-0.2,0-0.3,0.2-0.2,0.4c0.1,0.2,0.2,0.3,0.4,0.3s0.3,0.2,0.4,0.3"/>
			<g>
				<path class="st0" d="M119.4,40.4c-0.9,0.2-1.5,1.3-1.3,2.2c0.1,0.4,0.4,0.8,0.7,1c0.1,0.1,0.2,0.2,0.4,0.3
					c0.3,0.1-0.1-0.2,0.1,0.1c0.5,0.6,1.6,0.5,2.1,0c0.6-0.6,0.5-1.5,0-2.1c-0.1-0.2-0.3-0.3-0.5-0.5c-0.1,0-0.1-0.1-0.2-0.1
					c-0.3-0.2-0.2,0,0.3,0.5c0,0.3,0,0.5,0,0.8c-0.1,0.1-0.2,0.3-0.2,0.4c-0.2,0.1-0.4,0.3-0.7,0.4h0.1c0.8-0.2,1.3-1.1,1-1.8
					C121,40.6,120.2,40.2,119.4,40.4L119.4,40.4z"/>
			</g>
		</g>
		<g>
			<path class="st0" d="M117,33.5c0.7,0.7,1.4,1.4,2,2.2c-0.6-0.6-1.2-1.3-1.7-2c1,1.2,1.9,2.4,2.8,3.7c-0.1-0.5-0.2-1-0.3-1.6
				c0-0.1,0-0.2,0-0.2h0.1c0.9,0.2,1.9,0.7,2.8,0.5"/>
			<g>
				<path class="st0" d="M115.9,34.6c0.6,0.6,1.2,1.2,1.7,1.9c0.8-0.6,1.6-1.2,2.4-1.8c-0.5-0.5-1-1.1-1.4-1.7
					c-0.8,0.6-1.6,1.2-2.4,1.8c0.9,1.1,1.8,2.2,2.6,3.4c1,1.4,3.1,0.5,2.7-1.2c-0.1-0.3-0.1-0.5-0.2-0.8c-0.1-0.6-0.1-0.5-0.3,0.2
					c-0.4,0.2-0.9,0.5-1.3,0.7c0.4,0,1,0.3,1.4,0.4c0.5,0.1,1.1,0.2,1.6,0.1c1.9-0.2,1.9-3.2,0-3c-1.2,0.1-2.8-1.1-3.9-0.2
					c-1.1,0.8-0.5,2.3-0.3,3.3c0.9-0.4,1.8-0.8,2.7-1.2c-1-1.4-1.9-2.7-3-4s-3.3,0.4-2.4,1.8c0.6,0.8,1.2,1.6,1.9,2.3
					c1.1,1.2,3.4-0.4,2.4-1.8c-0.7-0.9-1.4-1.7-2.2-2.5C116.6,31.1,114.5,33.3,115.9,34.6L115.9,34.6z"/>
			</g>
		</g>
		<g>
			<path class="st0" d="M117.8,32.3c-0.5-0.4-1.1-0.6-1.7-0.7c0,0.2,0.1,0.3,0.3,0.3c0.9,0.4,2,0.5,2.9,0.8s2,0.7,2.5,1.6"/>
			<g>
				<path class="st0" d="M118.5,31c-0.6-0.4-1.3-0.7-2-0.9c-1.1-0.2-2.2,0.7-1.8,1.8c0.8,2.6,4.5,1.2,5.9,3.1
					c1.1,1.6,3.7,0.1,2.6-1.5c-0.7-1-1.6-1.6-2.8-2.1c-1.1-0.4-2.5-0.3-3.4-1c0.2,0.3,0.5,0.6,0.7,0.9c0-0.1,0-0.1-0.1-0.2
					c-0.6,0.6-1.2,1.2-1.8,1.8c0.5,0.1,0.9,0.2,1.3,0.5C118.6,34.7,120.1,32.1,118.5,31L118.5,31z"/>
			</g>
		</g>
		<g>
			<path class="st0" d="M120.6,31.1c-0.4,0-0.8,0-1.2,0c1.7,0.8,2.7,2.6,4.3,3.5c0.5,0.3,1,0.6,1.3,1.1"/>
			<g>
				<path class="st0" d="M120.6,29.6c-0.4,0-0.8,0-1.2,0c-1.5-0.1-2.1,2.1-0.8,2.8c1,0.5,1.8,1.4,2.6,2.2c0.4,0.4,0.8,0.8,1.3,1.1
					c0.3,0.2,0.9,0.5,1.1,0.8c1,1.6,3.6,0.1,2.6-1.5c-0.7-1.1-2-1.6-2.9-2.5c-1-1-2-2-3.2-2.6c-0.3,0.9-0.5,1.9-0.8,2.8
					c0.4,0,0.8,0,1.2,0C122.5,32.7,122.5,29.7,120.6,29.6L120.6,29.6z"/>
			</g>
		</g>
		<g>
			<path class="st0" d="M124.2,35.1c-0.1-0.5-0.5-0.8-0.9-1.2c-0.5-0.5-0.9-1-1.2-1.6"/>
			<g>
				<path class="st0" d="M125.6,34.7c-0.2-0.7-0.6-1.3-1.2-1.7c-0.5-0.4-0.8-0.8-1.1-1.4c-0.4-0.7-1.4-0.9-2.1-0.5s-0.9,1.3-0.5,2.1
					c0.3,0.6,0.7,1.2,1.2,1.6c0.2,0.2,0.4,0.3,0.6,0.5c0.1,0.1,0.2,0.2,0.3,0.3c-0.1-0.1-0.1-0.3-0.1,0c0.2,0.8,1.1,1.3,1.8,1
					C125.4,36.3,125.8,35.5,125.6,34.7L125.6,34.7z"/>
			</g>
		</g>
		<g>
			<path class="st0" d="M99.8,31.8"/>
			<g>
				<path class="st0" d="M99.8,37.8c7.7,0,7.7-12,0-12S92.1,37.8,99.8,37.8L99.8,37.8z"/>
			</g>
		</g>
		<g>
			<path class="st0" d="M114.3,39.3c-0.1,0-0.1,0.1-0.2,0.1"/>
			<g>
				<path class="st0" d="M113.6,38.2c-0.1,0-0.1,0.1-0.2,0.1c-0.6,0.3-0.7,1.1-0.4,1.6c0.3,0.6,1.1,0.7,1.6,0.4
					c0.1,0,0.1-0.1,0.2-0.1c0.6-0.3,0.7-1.1,0.4-1.6C114.9,38.1,114.2,37.9,113.6,38.2L113.6,38.2z"/>
			</g>
		</g>
		<g>
			<path class="st0" d="M96.4,37.3c-0.9,0.7-2,1.3-3.1,1.7c0.5-1.9,1.4-3.7,2.4-5.4c0.4-0.6,0.9-1.3,1.6-1.5c0.6-0.2,1.2,0,1.8,0
				c1.2,0,2.3-0.4,3.4-0.6c2.3-0.4,4.7-0.1,6.9,0.6c2.2,0.7,4.3,1.8,6.3,3c0.1,0.1,0.3,0.2,0.3,0.3c0.1,0.2,0,0.3,0,0.5
				c-0.4,1.6-1.3,3.1-2.5,4.2c1.3,0.1,2.6,0.3,3.9,0.4c0.5,0.1,1,0.1,1.3,0.5c-0.3,0.2-0.7,0.3-1,0.3"/>
			<g>
				<path class="st0" d="M95.8,36.3c-0.9,0.7-2,1.3-3.1,1.7c0.6,0.5,1.2,0.9,1.8,1.4c0.5-1.5,1-4.1,2.3-5.1s4.2-1.3,6-1.4
					c3-0.2,15.1,1.1,9.9,6.5c-0.8,0.8-0.2,1.9,0.8,2c1.6,0.1,3.3,0.4,4.8,0.9c0-0.8,0-1.5,0-2.3c-0.3,0.1-0.7,0.2-1,0.3
					c-1.5,0.4-0.9,2.7,0.6,2.3c0.3-0.1,0.7-0.2,1-0.3c1.2-0.3,1.1-1.9,0-2.3c-1.8-0.6-3.6-0.7-5.5-1c0.3,0.7,0.6,1.4,0.8,2
					c1.2-1.3,3.5-3.9,2.8-5.9c-0.7-2.3-6.2-3.8-8.3-4.4c-3.4-0.9-8.8-1-12,0.3c-2.7,1.1-3.9,5.2-4.7,7.7c-0.4,1.1,0.9,1.8,1.8,1.4
					c1.1-0.4,2.1-1,3.1-1.7C98.3,37.5,97.1,35.4,95.8,36.3L95.8,36.3z"/>
			</g>
		</g>
		<g>
			<path class="st0" d="M117.9,41.5c0.8,0.4,1.4,1.2,2.1,1.7c0.5,0.4,1.1,0.6,1.6,1c1.2,0.8,2,2,2.7,3.2c-0.1-0.1-0.1-0.2-0.2-0.3"
				/>
			<g>
				<path class="st0" d="M117.2,42.5c1.1,0.6,2,1.7,3.1,2.3c1.3,0.8,2.1,1.8,3,3.1c0.8,1.3,2.9,0.1,2.1-1.2
					c-0.1-0.1-0.1-0.2-0.2-0.3c-0.8-1.3-2.9-0.1-2.1,1.2c0.1,0.1,0.1,0.2,0.2,0.3c0.7-0.4,1.4-0.8,2.1-1.2c-0.9-1.4-1.8-2.7-3.2-3.6
					c-0.7-0.4-1.4-0.7-2-1.3c-0.6-0.5-1.1-1-1.8-1.4C117.1,39.7,115.9,41.7,117.2,42.5L117.2,42.5z"/>
			</g>
		</g>
		<g>
			<path class="st0" d="M122.6,45.3c-0.6-0.2-1.1-0.4-1.7-0.7"/>
			<g>
				<path class="st0" d="M122.9,44.1c-0.5-0.2-0.9-0.4-1.4-0.6c-1.3-0.8-2.5,1.3-1.2,2.1c0.6,0.4,1.3,0.7,2,0.9
					C123.7,46.9,124.4,44.6,122.9,44.1L122.9,44.1z"/>
			</g>
		</g>
		<g>
			<path class="st0" d="M122.6,39.9c1.5,0.7,2.4,2.2,3.2,3.6c0.4,0.7,0.8,1.5,1,2.3c0.1,0.4,0.1,0.8,0.1,1.3
				c0.2,1.3,1.1,2.5,0.8,3.8c-0.4-2.6-3.6-4.1-3.9-6.7"/>
			<g>
				<path class="st0" d="M122,40.9c1.5,0.9,2.9,2.9,3.5,4.6c0.3,0.8,0.2,1.7,0.5,2.5c0.3,1,0.7,1.8,0.6,2.9c0.8-0.1,1.6-0.2,2.4-0.3
					c-0.6-2.7-3.4-4-3.9-6.7c-0.3-1.5-2.6-0.9-2.3,0.6c0.5,2.7,3.3,4.1,3.9,6.7c0.3,1.4,2.3,1,2.4-0.3c0.1-1.3-0.4-2.3-0.7-3.5
					s-0.3-2.3-0.8-3.4c-0.9-2-2.3-4-4.2-5.2C121.9,38.1,120.7,40.1,122,40.9L122,40.9z"/>
			</g>
		</g>
		<g>
			<path class="st0" d="M126.2,47.1c0.8,0.8,1.3,1.9,1.4,3.1c0,0.3,0,0.6,0.1,0.9c0,0.3,0.1,0.6,0.2,0.8c0.2,0.6,0.3,1.1,0.5,1.7"/>
			<g>
				<path class="st0" d="M125.3,47.9c0.8,0.9,1,1.8,1.2,2.9c0.1,1.1,0.5,2,0.8,3.1c0.4,1.5,2.8,0.8,2.3-0.6c-0.7-2.5-0.8-5-2.6-7
					C126,45,124.3,46.7,125.3,47.9L125.3,47.9z"/>
			</g>
		</g>
		<g>
			<path class="st0" d="M123.8,34.9c0.7,0.3,1.3,0.7,1.8,1.2"/>
			<g>
				<path class="st0" d="M123.5,36.1c0.5,0.2,0.9,0.5,1.2,0.9c1.1,1.1,2.8-0.6,1.7-1.7c-0.7-0.7-1.4-1.2-2.3-1.5
					c-0.6-0.2-1.3,0.3-1.5,0.8C122.5,35.3,122.9,35.9,123.5,36.1L123.5,36.1z"/>
			</g>
		</g>
		<g>
			<path class="st0" d="M118,30.7c-0.7-0.2-1.3-0.9-1.4-1.7c0.3,0.3,0.6,0.6,0.9,0.9c-1.2-0.9-2.7-1.4-4.1-1.8
				c-2.8-0.8-5.8-1.7-8.7-1.3c-0.2,0-0.3,0.1-0.4,0.2c0,0.2,0.1,0.3,0.3,0.3c1.1,0.5,2.3,0.4,3.4,0.6c1.4,0.3,2.7,1.2,3.9,2
				c1.3,0.7,2.8,1.3,4.2,1c-1,0.2-2-0.5-2.3-1.4"/>
			<g>
				<path class="st0" d="M118.6,29.7c-0.3-0.3-0.5-0.6-0.8-1c-0.7,0.4-1.3,0.8-2,1.2c0.3,0.3,0.6,0.6,0.9,0.9c0.5-0.6,1-1.3,1.5-1.9
					c-2.5-1.7-5.8-2.5-8.7-3.1c-1.6-0.3-4.7-1.1-5.9,0.3c-0.3,0.3-0.5,0.8-0.3,1.2c0.7,2,3.6,1.5,5.2,2c2.7,1,4.7,3.1,7.8,2.7
					c1.5-0.2,1.6-2.4,0-2.4c-0.4-0.3-0.9-0.5-1.3-0.8c-0.7-1.4-2.8-0.2-2.1,1.2c0.7,1.4,1.8,2,3.4,2c0-0.8,0-1.6,0-2.4
					c-2.5,0.3-4.2-1.4-6.3-2.3c-0.3-0.1-4.6-1.3-4.4-0.7c-0.1,0.4-0.2,0.8-0.3,1.2c0.1-0.2,3.4,0.3,3.1,0.2c1,0.1,2,0.4,2.9,0.7
					c2,0.5,4,1.1,5.7,2.2c1.1,0.8,2.4-0.9,1.5-1.9c-0.3-0.3-0.6-0.6-0.9-0.9c-0.8-0.8-2.4,0-2,1.2c0.3,1.2,0.8,1.8,1.9,2.4
					C118.7,32.5,120,30.4,118.6,29.7L118.6,29.7z"/>
			</g>
		</g>
		<g>
			<path class="st0" d="M97.3,27.8c0.4-0.9,1.2-1.6,2.1-1.8c0.6-0.2,1.2-0.2,1.7-0.2c1.5,0,3.1,0,4.6,0c0.8,0,1.7,0,2.5,0.2
				s1.5,0.5,2.3,0.8c1.6,0.6,3.3,0.8,5,1"/>
			<g>
				<path class="st0" d="M98.4,28.4c1.3-2.1,6.6-1.6,8.7-1.4c2.8,0.3,5.4,1.5,8.2,1.9c1.5,0.2,2.2-2.1,0.6-2.3c-4.3-0.6-8-2-12.4-2
					c-3,0-5.4-0.2-7.2,2.6C95.5,28.6,97.6,29.8,98.4,28.4L98.4,28.4z"/>
			</g>
		</g>
	</g>
	<g>
		<g>
			<g>
				<path class="st1" d="M89.8,36.1c-3.9-2.9,3.7-6,5.4-6.6c0.9-0.4,7.5-1.9,7.6-2.2c-0.2,0.7,1,1.1,1.2,0.3c0-0.1,0-0.1,0-0.2
					c0.1-0.3,0-0.5-0.3-0.7c-1.3-0.8-4,0.1-5.4,0.4c-2.6,0.7-5.4,1.8-7.7,3.2c-2.5,1.5-4.2,4.7-1.4,6.8
					C89.8,37.6,90.4,36.6,89.8,36.1L89.8,36.1z"/>
			</g>
		</g>
		<g>
			<g>
				<path class="st1" d="M117.8,31.7c2.2,0.1,4.1,1,5.6,2.6c0.5,0.6,1.4-0.3,0.8-0.8c-1.7-1.9-3.9-2.9-6.4-3
					C117,30.5,117,31.7,117.8,31.7L117.8,31.7z"/>
			</g>
		</g>
		<g>
			<g>
				<path class="st1" d="M118,41.1c2.5,2.6,6.7,3.2,8.8,6.2c0.4,0.6,1.5,0,1-0.6c-2.2-3.2-6.4-3.7-9-6.5
					C118.3,39.7,117.4,40.6,118,41.1L118,41.1z"/>
			</g>
		</g>
		<g>
			<g>
				<path class="st1" d="M93.6,40.7c6-0.8,12.1-0.2,18.1-1.8c0.7-0.2,0.4-1.4-0.3-1.2c-5.9,1.7-12,1-18.1,1.8
					C92.5,39.7,92.8,40.8,93.6,40.7L93.6,40.7z"/>
			</g>
		</g>
		<g>
			<g>
				<path class="st1" d="M75.3,52.5c0.2-2.3,0.1-10.9,3.3-11.6c0.8-0.2,0.4-1.3-0.3-1.2c-2,0.4-2.6,2.1-3,4c-0.6,2.9-1,5.8-1.2,8.8
					C74.1,53.3,75.3,53.3,75.3,52.5L75.3,52.5z"/>
			</g>
		</g>
		<g>
			<g>
				<path class="st1" d="M71.9,56.3c0.1,0.2,0.2,0.4,0.3,0.7c0.3,0.7,1.4,0.1,1-0.6c-0.1-0.2-0.2-0.4-0.3-0.7
					C72.6,55,71.6,55.7,71.9,56.3L71.9,56.3z"/>
			</g>
		</g>
	</g>
	<g>
		<path class="st0" d="M73.9,54c-0.4,0.1-0.6,0.5-0.5,0.9"/>
		<g>
			<path class="st0" d="M73.5,52.6c-1,0.4-1.8,1.2-1.6,2.3c0.1,0.8,0.6,1.5,1.5,1.5c0.7,0,1.6-0.7,1.5-1.5c0-0.2,0-0.2,0,0
				c-0.1,0.3-0.3,0.5-0.5,0.5c0.8-0.3,1.3-1,1-1.8C75.2,52.9,74.3,52.3,73.5,52.6L73.5,52.6z"/>
		</g>
	</g>
	<g>
		<g>
			<g>
				<path d="M72.5,59.2c-0.1-4.8-0.1-27.1,9.6-22.4c0.7,0.3,1.3-0.7,0.6-1c-11.4-5.6-11.5,17.8-11.4,23.4
					C71.4,59.9,72.6,60,72.5,59.2L72.5,59.2z"/>
			</g>
		</g>
		<g>
			<g>
				<path d="M73.1,60.3c-1.6-4.6,5.7-6.6,7.9-9c0.9-1.1,1.5-2.4,2.4-3.5c0.3-0.4,4.6-5.1,4.9-4.9c0.6,0.4,1.2-0.6,0.6-1
					c-1-0.7-2,0.7-2.6,1.3c-2.4,2.1-3.9,4.3-5.8,6.7c-2.4,3.2-10.4,5.4-8.6,10.8C72.2,61.3,73.4,61,73.1,60.3L73.1,60.3z"/>
			</g>
		</g>
		<g>
			<g>
				<path d="M88.5,43.3c5.1,0,10.1,0.1,15.2,0.1c4.4,0,8.6-0.9,13-1.1c0.8,0,0.8-1.2,0-1.2c-4.4,0.2-8.6,1.1-13,1.1
					c-5.1,0-10.1-0.1-15.2-0.1C87.7,42.1,87.7,43.3,88.5,43.3L88.5,43.3z"/>
			</g>
		</g>
		<g>
			<g>
				<path d="M116.1,42.6c2.2,2.8,5.1,3.7,7.6,6.1c2.7,2.6,4.2,6.2,4.8,9.9c0.1,0.8,1.3,0.4,1.2-0.3c-0.6-3.2-1.8-6.2-3.8-8.9
					c-2.5-3.2-6.4-4.4-8.9-7.6C116.4,41.2,115.6,42,116.1,42.6L116.1,42.6z"/>
			</g>
		</g>
		<g>
			<g>
				<path d="M129.7,59c0.6-7.4-0.6-17.6-7-22.5c-0.6-0.5-1.2,0.6-0.6,1c6,4.6,7,14.5,6.4,21.4C128.5,59.8,129.7,59.8,129.7,59
					L129.7,59z"/>
			</g>
		</g>
		<g>
			<g>
				<path d="M116,30c4.4-1.3,8.7,3.2,10.3,6.8c0.3,0.7,1.3,0.1,1-0.6c-1.8-4.2-6.7-8.8-11.6-7.4C114.9,29,115.2,30.2,116,30L116,30z
					"/>
			</g>
		</g>
		<g>
			<g>
				<path d="M126.8,37.2c-2-0.4-4.1-0.7-6.1-0.7c-0.8,0-0.8,1.2,0,1.2c2,0,3.9,0.2,5.8,0.7C127.2,38.5,127.5,37.4,126.8,37.2
					L126.8,37.2z"/>
			</g>
		</g>
		<g>
			<g>
				<path d="M125.9,37.2c0,0.1,0,0.2,0,0.3c0,0.8,1.2,0.8,1.2,0c0-0.1,0-0.2,0-0.3C127.1,36.4,125.9,36.4,125.9,37.2L125.9,37.2z"/>
			</g>
		</g>
		<g>
			<g>
				<path d="M83.9,36.3c0.4-6,10.4-9.9,15.3-10.8c6.6-1.3,13.1,0,18.9,3.2c0.7,0.4,1.3-0.7,0.6-1c-6.8-3.7-14.7-5-22.2-2.7
					c-5.1,1.5-13.4,5.4-13.8,11.4C82.6,37,83.8,37,83.9,36.3L83.9,36.3z"/>
			</g>
		</g>
		<g>
			<g>
				<path d="M86.1,38.8c-1.1-0.5-1.8-1.6-1.8-2.8c0-0.8-1.2-0.8-1.2,0c0,1.6,0.9,3.1,2.3,3.8C86.2,40.2,86.8,39.1,86.1,38.8
					L86.1,38.8z"/>
			</g>
		</g>
	</g>
</g>
</svg>
