<?xml version="1.0" encoding="utf-8"?>
<!-- Generator: Adobe Illustrator 21.0.2, SVG Export Plug-In . SVG Version: 6.00 Build 0)  -->
<svg version="1.1" id="Layer_1" xmlns="http://www.w3.org/2000/svg" xmlns:xlink="http://www.w3.org/1999/xlink" x="0px" y="0px"
	 viewBox="0 0 200 600" style="enable-background:new 0 0 200 600;" xml:space="preserve">
<style type="text/css">
	.st0{fill:#4F6229;}
	.st1{fill:none;stroke:#000000;stroke-width:0.1;stroke-miterlimit:10;}
</style>
<g>
	<g>
		<g id="XMLID_1_">
			<g>
				<path class="st0" d="M131.5,312.2l0.2,0c-0.2,4-0.4,8-0.6,11.9c-0.2,4.3-0.4,8.6-0.7,12.9c-0.6,9.7-1.6,19.3-2.5,28.9
					c-0.5,4.9-0.9,9.8-1.4,14.6h0c-8.3,0-16.7,0.2-25,0.4c-0.1,0-0.2,0-0.3-0.1c0-0.1,0-0.1,0.1-0.1l0-0.3c-0.1-3-0.3-6.1-0.3-9.1
					c0-1.8-0.1-3.7-0.1-5.5c0-5.4,0.1-10.8,0.5-16.1h-0.1c0-5.4,0.1-10.9,0.1-16.4c0-4.8,0.1-9.7,0.1-14.5h-0.2
					c-0.2-4.4,0-8.8,0.3-13.1c-0.2-0.4-0.5-0.7-0.8-0.9c-0.7-0.3-1.7,0-2.1,0.6c-0.4,0.6-0.3,1.3-0.3,2h0c0.3,4.1,0.4,8.2,0.3,12.2
					h-0.2c0,4.8,0.1,9.7,0.1,14.5c0,5.5,0.1,10.9,0.1,16.4h-0.1c0.3,5.1,0.5,10.2,0.5,15.3c0,2.1,0,4.2-0.1,6.4
					c-0.1,3-0.2,6.1-0.3,9.1l-0.8,0.1c-8,0-16.1,0.2-24.1,0.3c-0.1,0-0.2,0-0.2-0.1c0,0,0-0.1,0-0.1l0,0c-0.5-4.9-1-9.9-1.4-14.8
					c-0.9-9.6-1.9-19.3-2.5-28.9c-0.3-4.3-0.5-8.6-0.7-12.9c-0.2-4-0.4-7.9-0.6-11.9l0.2,0c-0.8-11.6-1-23.2-0.4-34.8
					c0.2-3.8,0.5-7.8,2.7-11l0.2,0c9.7-0.5,19.4-0.5,29.2-0.1c2.3,0.1,4.7,0.2,7,0.3c7.3,0.2,14.5-0.1,21.7-0.9l0.2-0.1
					c2.1,3.1,2.5,7.1,2.6,10.9C132.5,289.1,132.4,300.7,131.5,312.2z"/>
			</g>
			<g>
				<path class="st1" d="M71.2,267.4c9.7-0.5,19.4-0.5,29.2-0.1c2.3,0.1,4.7,0.2,7,0.3c7.3,0.2,14.5-0.1,21.7-0.9"/>
				<path class="st1" d="M73.8,381.7C73.8,381.6,73.8,381.6,73.8,381.7c-0.1,0-0.1,0-0.1,0c0,0.1,0.1,0.1,0.2,0.1
					c8-0.2,16-0.3,24.1-0.3"/>
				<path class="st1" d="M73.7,381.6c-0.5-4.9-1-9.9-1.4-14.8c-0.9-9.6-1.9-19.3-2.5-28.9c-0.3-4.3-0.5-8.6-0.7-12.9
					c-0.2-4-0.4-7.9-0.6-11.9"/>
				<path class="st1" d="M68.7,313.7c0-0.2,0-0.4,0-0.6c-0.8-11.6-1-23.2-0.4-34.8c0.2-3.8,0.5-7.8,2.7-11"/>
				<path class="st1" d="M98.8,381.4c0.1-3,0.2-6.1,0.3-9.1c0-2.1,0.1-4.2,0.1-6.4c0-5.1-0.2-10.2-0.5-15.3c0-0.6-0.1-1.1-0.1-1.7"
					/>
				<path class="st1" d="M98.9,350.6c0-5.4-0.1-10.9-0.1-16.4c0-4.8-0.1-9.7-0.1-14.5c0-0.1,0-0.2,0-0.3"/>
				<path class="st1" d="M98.8,319.8c0.2-4.1,0.1-8.2-0.3-12.2c0-0.5-0.1-1-0.1-1.5"/>
				<path class="st1" d="M126.5,380.7c0-0.1,0-0.1,0-0.2c0.5-4.9,1-9.8,1.4-14.6c0.9-9.6,1.9-19.3,2.5-28.9
					c0.3-4.3,0.5-8.6,0.7-12.9c0.2-4,0.4-8,0.6-11.9"/>
				<path class="st1" d="M131.5,312.9c0-0.2,0-0.4,0-0.6c0.9-11.6,1-23.2,0.4-34.8c-0.2-3.8-0.5-7.8-2.6-10.9c0,0,0,0,0,0"/>
				<path class="st1" d="M101.4,380.5c-0.1-3-0.3-6.1-0.3-9.1c0-1.8-0.1-3.7-0.1-5.5c0-5.4,0.1-10.8,0.5-16.1c0-0.6,0.1-1.1,0.1-1.7
					"/>
				<path class="st1" d="M101.4,349.7c0-5.4,0.1-10.9,0.1-16.4c0-4.8,0.1-9.7,0.1-14.5c0-0.1,0-0.2,0-0.3"/>
				<path class="st1" d="M101.4,318.9c-0.2-4.4,0-8.8,0.3-13.1c0-0.2,0-0.4,0-0.6"/>
				<path class="st1" d="M101.4,380.8C101.5,380.8,101.4,380.8,101.4,380.8c-0.1-0.1-0.1,0-0.1,0c0,0.1,0.2,0.1,0.3,0.1
					c8.3-0.2,16.7-0.3,25-0.4"/>
				<path class="st1" d="M98.6,307.5c0-0.7-0.1-1.4,0.3-2c0.4-0.7,1.4-1,2.1-0.6c0.4,0.2,0.7,0.5,0.8,0.9c0.2,0.4,0.2,0.8,0.1,1.1"
					/>
			</g>
		</g>
	</g>
	<g>
		<g>
			<g>
				<path d="M71,267.8c19.4,0.6,38.6,1.2,58-0.5c0.8-0.1,0.8-1.3,0-1.2c-19.3,1.7-38.6,1.2-58,0.5C70.2,266.6,70.2,267.8,71,267.8
					L71,267.8z"/>
			</g>
		</g>
		<g>
			<g>
				<path d="M74.1,382.3c8.2-0.7,16.4,0.6,24.6-0.8c0.8-0.1,0.4-1.3-0.3-1.2c-8,1.3-16.2,0-24.3,0.7
					C73.3,381.2,73.3,382.4,74.1,382.3L74.1,382.3z"/>
			</g>
		</g>
		<g>
			<g>
				<path d="M102.8,380.7c-0.2-0.2-0.4-0.3-0.5-0.5c-0.1,0.3-0.3,0.7-0.4,1c8.1,0,16.1,0,24.2-0.1c0.8,0,0.8-1.2,0-1.2
					c-8.1,0-16.1,0-24.2,0.1c-0.5,0-0.8,0.7-0.4,1c0.2,0.2,0.4,0.3,0.5,0.5C102.5,382,103.4,381.2,102.8,380.7L102.8,380.7z"/>
			</g>
		</g>
		<g>
			<g>
				<path d="M99,306.8c-0.6-1.6,1.6-1.3,2.4-0.9c0.7,0.3,1.3-0.7,0.6-1c-1-0.4-2.3-0.8-3.3-0.2c-0.8,0.5-1.2,1.6-0.8,2.5
					C98.2,307.8,99.3,307.5,99,306.8L99,306.8z"/>
			</g>
		</g>
		<g>
			<g>
				<path d="M74.5,381.9c-1.2-13.6-2.4-27.2-3.6-40.8c-0.1-0.8-1.3-0.8-1.2,0c1.2,13.6,2.4,27.2,3.6,40.8
					C73.4,382.6,74.6,382.7,74.5,381.9L74.5,381.9z"/>
			</g>
		</g>
		<g>
			<g>
				<g>
					<path d="M99.5,380.6c0.8-15.2,0.5-30.3-0.1-45.5c0-0.8-1.2-0.8-1.2,0c0.6,15.2,0.9,30.3,0.1,45.5
						C98.3,381.4,99.5,381.4,99.5,380.6L99.5,380.6z"/>
				</g>
			</g>
			<g>
				<g>
					<path d="M99.4,335.2c-0.3-5.5-0.3-11.1-0.1-16.6c0.2-4.1,1.1-8.6-0.3-12.6c-0.3-0.7-1.4-0.4-1.2,0.3c1.6,4.3,0.4,9.7,0.2,14.2
						c-0.2,4.9-0.1,9.8,0.2,14.6C98.2,336,99.4,336,99.4,335.2L99.4,335.2z"/>
				</g>
			</g>
			<g>
				<g>
					<path d="M71,341.5c-1.4-11.1-1.1-22.2-2.2-33.3c-0.1-0.8-1.3-0.8-1.2,0c1.1,11.1,0.8,22.3,2.2,33.3
						C69.9,342.3,71.1,342.3,71,341.5L71,341.5z"/>
				</g>
			</g>
		</g>
		<g>
			<g>
				<path d="M68.9,308.6c-0.1-6.6,0-13.2,0.1-19.8c0.1-6.7-1-15.1,2.6-21c0.4-0.7-0.6-1.3-1-0.6c-3.3,5.4-2.6,11.8-2.7,17.9
					c-0.2,7.8-0.3,15.7-0.2,23.5C67.7,309.4,68.9,309.4,68.9,308.6L68.9,308.6z"/>
			</g>
		</g>
		<g>
			<g>
				<g>
					<path d="M102.7,380.2c-0.8-15.2-0.5-30.3,0.1-45.5c0-0.8-1.2-0.8-1.2,0c-0.6,15.2-0.9,30.3-0.1,45.5
						C101.5,381,102.7,381,102.7,380.2L102.7,380.2z"/>
				</g>
			</g>
			<g>
				<g>
					<path d="M102.8,334.9c0.3-4.9,0.3-9.8,0.2-14.6c-0.1-4.5-1.4-9.9,0.2-14.2c0.3-0.7-0.9-1-1.2-0.3c-1.5,3.9-0.5,8.5-0.3,12.6
						c0.2,5.5,0.2,11.1-0.1,16.6C101.5,335.6,102.7,335.6,102.8,334.9L102.8,334.9z"/>
				</g>
			</g>
			<g>
				<g>
					<path d="M130.7,339.9c1.6-11.1,1.3-22.4,2.6-33.5c0.1-0.8-1.1-0.8-1.2,0c-1.3,11-0.9,22.2-2.5,33.2
						C129.4,340.4,130.5,340.7,130.7,339.9L130.7,339.9z"/>
				</g>
			</g>
		</g>
		<g>
			<g>
				<path d="M126.3,381.1c1.4-13.6,2.9-27.2,4.3-40.8c0.1-0.8-1.1-0.8-1.2,0c-1.4,13.6-2.9,27.2-4.3,40.8
					C125.1,381.9,126.3,381.9,126.3,381.1L126.3,381.1z"/>
			</g>
		</g>
		<g>
			<g>
				<path d="M133.1,307.6c0.1-7.8,0-15.7-0.2-23.5c-0.1-6.1,0.6-12.5-2.7-17.9c-0.4-0.7-1.4-0.1-1,0.6c3.6,5.9,2.5,14.4,2.6,21
					c0.1,6.6,0.2,13.2,0.1,19.8C131.9,308.4,133.1,308.4,133.1,307.6L133.1,307.6z"/>
			</g>
		</g>
	</g>
	<g>
		<g>
			<path d="M100.3,268.4c-1.1-0.1-1,1.4-1.1,2.1c-0.2,2.1-0.4,4.1-0.5,6.2c-0.1,0.8,1.1,0.8,1.2,0c0-0.7,0.7-7,0.4-7.1
				C101.1,269.7,101.1,268.5,100.3,268.4L100.3,268.4z"/>
		</g>
	</g>
	<g>
		<g>
			<path d="M103.5,270.3c0,0.1,0.1,0.2,0.1,0.3c0.2-0.8-1-1.1-1.2-0.3c-0.1,0.4,0,0.8,0.4,1C103.5,271.7,104.2,270.7,103.5,270.3
				L103.5,270.3z"/>
		</g>
	</g>
	<g>
		<g>
			<path d="M73,279.9c5,0.1,9.6-1.6,10.9-6.9c0.2-0.8-1-1.1-1.2-0.3c-1.2,4.8-5.3,6.1-9.8,6.1C72.2,278.7,72.2,279.9,73,279.9
				L73,279.9z"/>
		</g>
	</g>
	<g>
		<g>
			<path d="M126.9,278.2c-4.5,0.1-8.6-1.2-9.8-6.1c-0.2-0.8-1.3-0.4-1.2,0.3c1.3,5.4,5.9,7,10.9,6.9
				C127.6,279.4,127.6,278.2,126.9,278.2L126.9,278.2z"/>
		</g>
	</g>
</g>
</svg>
