<?xml version="1.0" encoding="utf-8"?>
<!-- Generator: Adobe Illustrator 21.0.2, SVG Export Plug-In . SVG Version: 6.00 Build 0)  -->
<svg version="1.1" id="Layer_1" xmlns="http://www.w3.org/2000/svg" xmlns:xlink="http://www.w3.org/1999/xlink" x="0px" y="0px"
	 viewBox="0 0 200 600" style="enable-background:new 0 0 200 600;" xml:space="preserve">
<style type="text/css">
	.st0{fill:#231F20;}
	.st1{fill:#100D0C;}
	.st2{fill:#130F11;}
</style>
<g>
	<g>
		<g id="XMLID_6_">
			<g>
				<path class="st0" d="M82.9,120.8c0.7,0.6,1.6,0.9,2.5,1.1c-0.3,0.1-0.7,0-1.1-0.1c-0.5-0.2-0.9-0.5-1.3-0.8
					C83,120.9,82.9,120.9,82.9,120.8z"/>
				<path class="st0" d="M74.9,81.7c3.6,4.6,8.5,8.1,13.9,10.3c0.4,0.2,0.9,0.3,1.2,0.7c0.1,0,0.1,0.1,0.2,0.2l-0.1,0.1
					c0.5,3.4,0.4,7-0.2,10.4c-0.1,0.6-0.3,1.3-0.6,1.8c-0.3,0.5-0.9,0.9-1.6,0.9l-0.3,0.4c-0.3,3.4,0.4,6.9,0.1,10.3
					c-0.1,0.7-0.1,1.4-0.2,2c-0.1,0.7-0.2,1.4-0.3,2.1c0,0.1-0.1,0.3-0.2,0.4c-0.1,0.1-0.3,0-0.4,0.1c-0.2,0-0.4,0.2-0.5,0.4
					c-0.2,0.1-0.4,0.2-0.6,0.3c-0.9-0.2-1.8-0.6-2.5-1.1c0.1,0.1,0.1,0.1,0.2,0.2l0,0c-0.9-0.4-1.9-0.4-2.7,0l0,0.1
					c-1.3,0.7-2.8,1.3-4.1,1l0.1-0.3c-1.2-0.8-2.8-1-4.1-0.3c-0.6,0.3-1.3,0.8-1.8,0.4l0,0c-0.8-0.7-2-1-3.1-0.8
					c-0.4,0.1-0.8,0.3-1.3,0.3c-0.4,0-0.9-0.2-1-0.7l0-0.2c0-8.9-0.1-17.8-0.1-26.7c0-4.5,0-9,0.2-13.5h0.1
					c-0.2-5.8-0.4-11.7-0.6-17.5c-0.1-3.5-0.2-7,0.1-10.4c0.2-2.5,0.7-5,1.6-7.4c0.7-1.8,1.7-3.4,2.8-4.9c3.4-4.9,7.9-9.2,13.4-11.6
					c5.4-2.4,11.8-2.8,17.2-0.4c5.4-2.4,11.8-2,17.2,0.4c5.5,2.4,10,6.7,13.4,11.6c1.1,1.6,2,3.2,2.8,4.9c0.9,2.3,1.4,4.8,1.6,7.4
					c0.3,3.5,0.2,6.9,0.1,10.4c-0.2,6.4-0.4,12.9-0.6,19.3H134c-0.2,4.5-0.2,9-0.2,13.5c0.1,8.8,0.1,17.7,0.1,26.5h-0.1
					c0,0.3-0.5,0.4-0.9,0.4c-0.8-0.1-1.5-0.2-2.2-0.6c-0.2-0.1-0.4-0.2-0.6-0.3c-0.4-0.1-0.9,0.2-1.3,0.4s-1,0.3-1.3-0.1l-1.8,0
					c-0.3,0.1-0.6,0.2-0.9,0.3c-0.7,0.2-1.4,0.2-2.1,0l-0.8,0.1c-1.4,0-2.8-0.1-4.2-0.2l-1.2,0c-0.4-0.1-0.8-0.1-1.2-0.1
					c-0.9,0-1.8-0.4-2.5-1l-0.6,0c-0.6-0.3-1-0.8-1.2-1.5l0.3-0.2c-0.2-0.3-0.1-0.8-0.1-1.2c0.5-4.8,0.4-9.7-0.3-14.4l0.1,0
					c-0.3-1.8-0.2-3.7-0.1-5.6c0.1-1.4,0.1-2.7,0.2-4.1l0.2,0c0.1-0.5,0.3-0.9,0.7-1.2c0.5-0.4,1.2-0.7,1.8-0.9c4.8-1.8,9-5,12-9.1
					l0.2,0c0.1-1.2,0.3-2.5,0.5-3.7c0.4-2.6,0.9-5.1,1.2-7.7c0.7-5.9,0.4-11.9-0.2-17.9c-0.2-1.9-0.4-3.8-1.1-5.5
					c-0.7-1.8-2-3.4-3.5-4.7c-3.1-2.7-7.2-4.2-11.2-4.1c-4.1,0.1-8.1,1.7-11.1,4.5h-0.3c-3-2.8-7-4.4-11.1-4.5
					c-4.1-0.1-8.2,1.4-11.2,4.1c-1.5,1.3-2.8,2.9-3.5,4.7c-0.7,1.7-0.9,3.6-1.1,5.5c-0.6,5.9-0.9,11.9-0.2,17.9
					c0.3,2.6,0.8,5.2,1.2,7.7C74.6,80.1,74.7,80.9,74.9,81.7z"/>
			</g>
			<g>
			</g>
		</g>
		<g>
			<g>
				<path class="st1" d="M66.1,120.5c-1.7-1.9-0.5-9.4-0.5-11.9c0-4.2,0-8.4,0-12.6c0-8.4,0.1-16.8,0.3-25.3c0-0.8-1.2-0.8-1.2,0
					c-0.1,9.7-0.2,19.4-0.3,29.2c0,4.5,0,9.1,0,13.6c0,2.5-0.9,5.8,0.9,7.9C65.8,121.9,66.6,121.1,66.1,120.5L66.1,120.5z"/>
			</g>
		</g>
		<g>
			<g>
				<path class="st1" d="M65.9,71.7c-0.6-7.5-1.7-16,0-23.5c1.6-7.2,8.5-14.4,15-17.7c0.7-0.3,0.1-1.4-0.6-1
					c-5.8,2.9-12,9-14.6,15.1c-3.3,8.1-1.7,18.6-1,27.1C64.8,72.4,65.9,72.4,65.9,71.7L65.9,71.7z"/>
			</g>
		</g>
		<g>
			<g>
				<path class="st1" d="M79.9,31c3-1.8,6.1-3,9.6-3.4c2.7-0.3,7.8-0.7,9.9,1.3c0.6,0.5,1.4-0.3,0.8-0.8c-2.2-2.1-6.8-2-9.5-1.8
					c-4.1,0.3-7.9,1.6-11.4,3.8C78.6,30.4,79.2,31.4,79.9,31L79.9,31z"/>
			</g>
		</g>
		<g>
			<g>
				<path class="st1" d="M99.9,28.9c8.2-3.3,18.4-1.7,24.3,5.1c0.5,0.6,1.3-0.3,0.8-0.8c-6.1-7.2-16.8-8.9-25.4-5.4
					C98.8,28,99.1,29.2,99.9,28.9L99.9,28.9z"/>
			</g>
		</g>
		<g>
			<g>
				<path class="st1" d="M66.1,122.1c1.5-0.4,3.2-0.9,4.4,0.4c0.5,0.6,1.3-0.3,0.8-0.8c-1.5-1.6-3.7-1.3-5.5-0.8
					C65.1,121.2,65.4,122.3,66.1,122.1L66.1,122.1z"/>
			</g>
		</g>
		<g>
			<g>
				<path class="st1" d="M71.4,122.8c0.6-0.6,1.6-1,2.4-1c0.8-0.1,1.4,0.5,1.9,1.1c0.5,0.6,1.4-0.3,0.8-0.8
					c-0.8-0.8-1.6-1.5-2.8-1.5c-1.1,0.1-2.4,0.6-3.2,1.4C70,122.5,70.8,123.3,71.4,122.8L71.4,122.8z"/>
			</g>
		</g>
		<g>
			<g>
				<path class="st1" d="M76.7,123c1.5-0.7,3-1.4,4.6-1.7c1.7-0.4,2.4,0.6,3.8,1.1c0.7,0.2,1-0.9,0.3-1.1c-1.5-0.5-2.1-1.5-3.9-1.2
					c-1.9,0.3-3.7,1.1-5.4,2C75.4,122.4,76,123.4,76.7,123L76.7,123z"/>
			</g>
		</g>
		<g>
			<g>
				<path class="st1" d="M85.3,122.7c3-0.9,2.5-3.5,2.4-6.1c0-2.4,0-5.1,0.4-7.5c0.4-2,1.5-3.6,1.7-5.7c0.1-0.8-1.1-0.8-1.2,0
					c0.1-0.7-1.6,3.6-1.6,4.1c-0.2,1.2-0.2,2.5-0.2,3.7c-0.1,2.1,0.8,9.5-1.8,10.3C84.3,121.8,84.6,122.9,85.3,122.7L85.3,122.7z"/>
			</g>
		</g>
		<g>
			<g>
				<path class="st1" d="M89.4,104.4c0.4-1.7,0.9-3.3,1.1-5.1c0.3-2.3,0.4-4.5,0.2-6.8c-0.1-0.8-1.3-0.8-1.2,0c0.2,2,0.1,4-0.1,6
					c-0.2,2-0.7,3.7-1.1,5.6C88,104.8,89.2,105.1,89.4,104.4L89.4,104.4z"/>
			</g>
		</g>
		<g>
			<g>
				<path class="st1" d="M90.3,91.7c-5.3-2-12.1-5.1-15.1-10.2c-0.4-0.7-1.4-0.1-1,0.6c3.2,5.4,10.2,8.5,15.8,10.7
					C90.7,93.1,91,92,90.3,91.7L90.3,91.7z"/>
			</g>
		</g>
		<g>
			<g>
				<path class="st1" d="M125.5,82.6c-2.3,2.8-5.1,5.1-8.3,6.9c-2.3,1.3-5.1,1.8-6.5,4.2c-0.4,0.7,0.6,1.3,1,0.6
					c1.5-2.6,5.9-3.5,8.4-5.2c2.3-1.6,4.4-3.5,6.2-5.6C126.8,82.9,126,82,125.5,82.6L125.5,82.6z"/>
			</g>
		</g>
		<g>
			<g>
				<path class="st1" d="M113,120.7c-1.8-1.6-1-5-0.9-7c0.1-2.5,0.1-5,0.1-7.4c0-4.1-0.3-8.2-0.3-12.3c0-0.8-1.2-0.8-1.2,0
					c0,5.4,0.3,10.7,0.3,16.1c0,3.4-1.7,8.9,1.2,11.5C112.7,122.1,113.5,121.3,113,120.7L113,120.7z"/>
			</g>
		</g>
		<g>
			<g>
				<path class="st1" d="M112.3,121.8c0.4,0.5,1,0.7,1.6,0.7c1.1,0,2-0.4,3,0.1c0.7,0.3,1.3-0.7,0.6-1c-0.6-0.3-1.3-0.5-2-0.4
					c-0.8,0-1.8,0.6-2.4-0.1C112.6,120.4,111.8,121.3,112.3,121.8L112.3,121.8z"/>
			</g>
		</g>
		<g>
			<g>
				<path class="st1" d="M117.3,123c1,0.2,1.5,0.4,2.5,0c1.2-0.4,2.4-0.5,3.7-0.4c0.8,0.1,0.8-1.1,0-1.2c-1-0.1-1.9-0.1-2.8,0.1
					c-0.5,0.1-0.9,0.3-1.4,0.4c-0.6,0.1-1,0.1-1.6-0.1C116.9,121.6,116.6,122.8,117.3,123L117.3,123z"/>
			</g>
		</g>
		<g>
			<g>
				<path class="st1" d="M123.5,122.6c0.7,0.4,1.3,0.3,2,0.1c0.3-0.1,0.7-0.5,1.1-0.4c0.3,0,0.6,0.4,0.9,0.6c0.6,0.4,1.2-0.6,0.6-1
					c-0.5-0.4-0.8-0.9-1.5-0.9c-0.9,0-1.6,1.1-2.5,0.6C123.4,121.2,122.8,122.2,123.5,122.6L123.5,122.6z"/>
			</g>
		</g>
		<g>
			<g>
				<path class="st1" d="M127.5,123.3c0.5,0.2,1,0.1,1.4-0.3c0.4-0.3,0.4-0.7,1.1-0.7c0.5,0,1,0.3,1.4,0.5c1,0.5,2.1,0.7,2.9-0.4
					c0.4-0.6-0.6-1.2-1-0.6c-0.4,0.6-2.4-0.7-3.1-0.7c-0.4,0-0.7,0-1.1,0.2c-0.3,0.2-0.9,1-1.3,0.9
					C127.1,121.9,126.8,123,127.5,123.3L127.5,123.3z"/>
			</g>
		</g>
		<g>
			<g>
				<path class="st1" d="M134.2,122.5c0.2-3.3,0.5-6.3,0.2-9.6c-0.3-3.3,0.4-6.5,0.1-9.8c-0.1-0.8-1.3-0.8-1.2,0
					c0.3,3.3-0.4,6.5-0.1,9.8c0.3,3.2,0.1,6.3-0.2,9.6C132.9,123.3,134.1,123.3,134.2,122.5L134.2,122.5z"/>
			</g>
		</g>
		<g>
			<g>
				<path class="st1" d="M134.5,103.8c-1.1-7.2-0.2-15.1,0-22.4c0-0.8-1.2-0.8-1.2,0c-0.1,7.4-1.1,15.3,0,22.7
					C133.5,104.8,134.7,104.5,134.5,103.8L134.5,103.8z"/>
			</g>
		</g>
		<g>
			<g>
				<path class="st1" d="M134.5,82.5c0.3-9.2,0.6-18.3,0.8-27.5c0-0.8-1.2-0.8-1.2,0c-0.3,9.2-0.6,18.3-0.8,27.5
					C133.3,83.3,134.5,83.3,134.5,82.5L134.5,82.5z"/>
			</g>
		</g>
		<g>
			<g>
				<path class="st1" d="M123.8,33.9c7,4.7,11,13.7,10.5,22c0,0.8,1.1,0.8,1.2,0c0.5-8.7-3.7-18.1-11.1-23
					C123.8,32.4,123.2,33.5,123.8,33.9L123.8,33.9z"/>
			</g>
		</g>
		<g>
			<g>
				<path class="st1" d="M75.3,82.1c-1.6-9.7-2.4-18.7-0.9-28.5c0.8-4.9,2.5-9,7.1-11.4c5.3-2.9,14.7-3,18.4,2.6
					c0.4,0.6,1.5,0,1-0.6c-5.3-7.9-19.2-6-24.6,0.8c-3.7,4.7-3.7,12.1-3.9,17.8c-0.2,6.9,0.6,12.8,1.7,19.6
					C74.3,83.2,75.4,82.9,75.3,82.1L75.3,82.1z"/>
			</g>
		</g>
		<g>
			<g>
				<path class="st1" d="M100.8,44.9c2.5-4.4,10.6-5.1,15.1-4.1c5.1,1.1,9.2,4.4,10.8,9.5c0.2,0.7,1.4,0.4,1.1-0.3
					c-1.9-6-6.9-9.7-13.1-10.6c-4.8-0.6-12.3,0.3-15,4.9C99.4,45,100.4,45.6,100.8,44.9L100.8,44.9z"/>
			</g>
		</g>
		<g>
			<g>
				<path class="st1" d="M126.3,83.4c2.6-10.9,3.1-22.9,1.4-33.9c-0.1-0.8-1.3-0.4-1.1,0.3c1.7,10.9,1.2,22.6-1.4,33.3
					C124.9,83.9,126.1,84.2,126.3,83.4L126.3,83.4z"/>
			</g>
		</g>
		<g>
			<g>
				<path class="st1" d="M73.9,81.1c0.3,5.5,0.7,11.1,1.3,16.6c0.1,0.8,1.3,0.8,1.2,0c-0.6-5.5-1.1-11-1.3-16.6
					C75.1,80.4,73.9,80.4,73.9,81.1L73.9,81.1z"/>
			</g>
		</g>
		<g>
			<g>
				<path class="st1" d="M125.7,81.1c-1.1,6.2-1.2,12.5-1.5,18.7c0,0.8,1.2,0.8,1.2,0c0.3-6.1,0.3-12.4,1.4-18.4
					C127,80.7,125.9,80.4,125.7,81.1L125.7,81.1z"/>
			</g>
		</g>
		<g>
			<g>
				<path class="st1" d="M129.1,117.2c-0.3-3.9-0.5-7.8-0.2-11.7c0.3-4,1.1-8,0.9-12c0-0.8-1.2-0.8-1.2,0c0.2,4.1-0.7,8-0.9,12
					c-0.2,3.9-0.1,7.8,0.2,11.7C128,118,129.1,118,129.1,117.2L129.1,117.2z"/>
			</g>
		</g>
		<g>
			<g>
				<path class="st1" d="M76,97.6c-1.4-3-2.6-6.2-3.5-9.4c-0.2-0.7-1.3-0.4-1.1,0.3c0.9,3.3,2.1,6.6,3.6,9.7
					C75.3,98.9,76.4,98.3,76,97.6L76,97.6z"/>
			</g>
		</g>
		<g>
			<g>
				<path class="st1" d="M125.3,100.5c1.7-2.5,3-5.1,4.2-7.8c0.3-0.7-0.9-1-1.1-0.3c-1.1,2.7-2.5,5.2-4.1,7.5
					C123.8,100.6,124.8,101.2,125.3,100.5L125.3,100.5z"/>
			</g>
		</g>
		<g>
			<g>
				<path class="st1" d="M71.4,89.2c0.5,4.1,0.8,8.3,0.8,12.5c0,0.8,1.2,0.8,1.2,0c0-4.2-0.3-8.3-0.8-12.5
					C72.5,88.5,71.3,88.5,71.4,89.2L71.4,89.2z"/>
			</g>
		</g>
		<g>
			<g>
				<path class="st1" d="M73.9,110.9c-0.1-1.8-0.2-3.7-0.4-5.5c0-0.8-1.2-0.8-1.2,0c0.1,1.8,0.2,3.7,0.4,5.5
					C72.8,111.6,74,111.6,73.9,110.9L73.9,110.9z"/>
			</g>
		</g>
		<g>
			<g>
				<path class="st1" d="M73.5,105.7c0-1.2,0-2.4,0-3.7c0-0.8-1.2-0.8-1.2,0c0,1.2,0,2.4,0,3.7C72.3,106.5,73.5,106.5,73.5,105.7
					L73.5,105.7z"/>
			</g>
		</g>
	</g>
	<g>
		<g>
			<path class="st2" d="M99.3,33.9c0.1-0.1,0.2-0.2,0.4-0.2c-0.1-0.4-0.1-0.8-0.2-1.2c-0.2,0-0.4,0.1-0.6,0.1
				c-0.4,0.1-0.6,0.7-0.3,1c0.3,0.2,0.7,0.5,0.9,0.7c0.4,0.4,0.6,0.6,1.1,0.9c0.6,0.2,1.1-0.8,0.5-1.1c-0.5-0.2-0.6-0.3-1.1-0.4
				c-0.5-0.1-0.9,0.4-0.7,0.9c0.3,0.5,0.6,0.9,1.1,1.2c0-0.4,0.1-0.7,0.1-1.1c-0.2,0-0.5,0-0.7-0.1c-0.4-0.2-0.9,0.3-0.7,0.7
				c0.2,0.6,0.5,1,0.9,1.5c0.1-0.3,0.2-0.7,0.3-1c-0.2,0.1-0.3,0.1-0.5,0.2c-0.4,0.2-0.6,0.6-0.3,1c0.3,0.4,0.6,0.7,0.9,1.1
				c0.1-0.3,0.3-0.7,0.4-1c-0.6-0.1-1.2-0.1-1.8-0.2c-0.4,0-0.8,0.5-0.5,0.9c0.6,0.8,1,1.6,1.4,2.5c0.2-0.3,0.4-0.6,0.7-0.9
				c-0.7-0.3-1.9-0.9-2.2,0.2c-0.3,1.1,0.9,1.5,1.7,1.4c0.5,0,0.8-0.6,0.4-1c-0.6-0.7-1.2-1.9-0.1-2.6c0.2-0.1,0.3-0.3,0.3-0.5
				c0-0.2,0.1-0.4,0.1-0.6c0.4-0.7-0.6-1.3-1-0.6c-0.2,0.4-0.3,0.7-0.3,1.2c0.1-0.2,0.2-0.3,0.3-0.5c-1.8,1.1-1.3,3.1-0.1,4.5
				c0.1-0.3,0.3-0.7,0.4-1c-1.6,0.1,0.1,0.6,0.2,0.7c0.5,0.2,0.8-0.5,0.7-0.9c-0.4-0.9-0.8-1.7-1.4-2.5c-0.2,0.3-0.3,0.6-0.5,0.9
				c0.6,0.1,1.2,0.1,1.8,0.2c0.6,0.1,0.7-0.7,0.4-1c-0.3-0.4-0.6-0.7-0.9-1.1c-0.1,0.3-0.2,0.7-0.3,1c0.2-0.1,0.3-0.1,0.5-0.2
				c0.4-0.1,0.6-0.7,0.3-1c-0.3-0.2-0.5-0.5-0.6-0.9c-0.2,0.2-0.5,0.5-0.7,0.7c0.5,0.2,0.8,0.2,1.3,0.1c0.5-0.1,0.5-0.8,0.1-1.1
				c-0.3-0.2-0.6-0.4-0.7-0.8c-0.2,0.3-0.4,0.6-0.7,0.9c0.3,0.1,0.6,0.2,0.8,0.3c0.2-0.4,0.3-0.7,0.5-1.1c-0.6-0.2-0.3-0.5-0.6-0.7
				c-0.3-0.2-0.6-0.3-0.9-0.5c-0.1,0.3-0.2,0.7-0.3,1c0.2,0,0.4-0.1,0.6-0.1c0.7-0.1,0.5-1.2-0.2-1.2c-0.5,0-0.9,0.1-1.2,0.6
				C98,33.6,98.8,34.5,99.3,33.9L99.3,33.9z"/>
		</g>
	</g>
	<g>
		<g>
			<path class="st2" d="M100.7,35.9c0.1-0.4,0.2-0.8,0.4-1.2c0.2-0.7-0.9-1-1.1-0.3c-0.1,0.4-0.2,0.8-0.4,1.2
				C99.4,36.3,100.5,36.6,100.7,35.9L100.7,35.9z"/>
		</g>
	</g>
	<g>
		<g>
			<path class="st2" d="M100.9,33.4c0,0.1,0.1,0.2,0.1,0.2c0.2-0.7-1-1.1-1.1-0.3c-0.1,0.6,0.2,1.1,0.7,1.2
				C101.3,34.7,101.6,33.6,100.9,33.4L100.9,33.4z"/>
		</g>
	</g>
	<g>
		<g>
			<path class="st2" d="M100.2,31.2c-0.4,0.2-0.8,0.3-1.2,0.5c0.3,0.2,0.5,0.4,0.8,0.6c0-0.4,0.4-0.6,0.7-0.6
				c-0.2-0.1-0.4-0.2-0.7-0.3c0.1,0,0.1,0,0,0.1c0.3,0.2,0.7,0.4,1,0.6c0,0-0.1,0-0.1,0c-0.1-0.1-0.3-0.3-0.4-0.4c0,0,0,0,0,0
				c0.4,0.1,0.7,0.2,1.1,0.3c0,0,0,0,0-0.1c-0.1,0.1-0.1,0.3-0.2,0.4c-0.2,0-0.4,0-0.6,0c-0.1-0.1-0.1-0.3-0.2-0.4c0-0.1,0,0-0.1,0
				c-0.1,0-0.2,0-0.3-0.1c-0.1,0-0.1-0.1-0.2-0.2c0-0.1,0-0.1,0-0.2c0-0.2-0.1-0.1-0.2,0.2c-0.2-0.1-0.4-0.1-0.6-0.2c0,0,0,0,0,0
				c-0.1-0.2-0.1-0.4-0.2-0.6c0-0.1,0.1-0.1,0.1-0.2c0.3,0,0.6,0,0.8,0c0,0,0,0,0,0c-0.5-0.6-1.4,0.3-0.8,0.8c0,0,0,0,0,0
				c0.2,0.3,0.6,0.2,0.8,0c0.3-0.3,0.3-0.7,0-1c-0.1-0.2-0.4-0.2-0.6-0.2c-0.8,0.1-0.8,1.2-0.5,1.8c0.3,0.6,1,0.9,1.7,0.8
				c0.6-0.1,1.4-0.8,1-1.5c-0.4-0.6-1.4-0.4-1.4,0.4c0,0.5,0.8,0.9,1.1,0.3c0.2-0.3,0.2-0.6,0.1-0.9c-0.1-0.2-0.2-0.4-0.4-0.4
				c-0.6-0.1-1.2,0.2-1.4,0.8c-0.2,0.6,0.6,1,1,0.6c0.4-0.4,0.5-1,0.2-1.5c-0.2-0.2-0.4-0.3-0.7-0.3c-0.9,0.2-1.4,0.9-1.6,1.8
				c0,0.4,0.4,0.7,0.8,0.6c0.4-0.2,0.8-0.3,1.2-0.5C101.2,32.1,100.9,30.9,100.2,31.2L100.2,31.2z"/>
		</g>
	</g>
	<g>
		<g>
			<path class="st2" d="M98.5,33c0.3,0.3,0.6,0.7,0.8,1c0.5,0.6,1.3-0.3,0.8-0.8c-0.3-0.3-0.6-0.7-0.8-1C98.8,31.6,98,32.4,98.5,33
				L98.5,33z"/>
		</g>
	</g>
	<g>
		<g>
			<path class="st2" d="M97.8,34.1c0.2,0.2,0.3,0.4,0.5,0.7c0.4,0.6,1.5,0,1-0.6c-0.2-0.2-0.3-0.4-0.5-0.7
				C98.4,32.9,97.4,33.5,97.8,34.1L97.8,34.1z"/>
		</g>
	</g>
	<g>
		<g>
			<path class="st2" d="M98.2,35.9c0.1,0.1,0.2,0.1,0.3,0.2c0.7,0.3,1.3-0.7,0.6-1c-0.1-0.1-0.2-0.1-0.3-0.2
				C98.2,34.6,97.5,35.6,98.2,35.9L98.2,35.9z"/>
		</g>
	</g>
	<g>
		<g>
			<path class="st2" d="M98,36.2c0.2,0.5,0.7,0.7,1.2,0.8c0.8,0.1,0.8-1.1,0-1.2c-0.1,0-0.1-0.1-0.2-0.2C98.7,35,97.6,35.6,98,36.2
				L98,36.2z"/>
		</g>
	</g>
	<g>
		<g>
			<path class="st2" d="M99.7,31.1c0-0.6-0.2-1.2-0.6-1.7c-0.2,0.3-0.4,0.6-0.7,0.9c0.4,0.2,0.8,0.3,1.3,0.5c0.7,0.3,1-0.9,0.3-1.1
				c-0.4-0.2-0.8-0.3-1.3-0.5c-0.5-0.2-1,0.5-0.7,0.9c0.2,0.4,0.4,0.7,0.4,1.1C98.6,31.9,99.8,31.9,99.7,31.1L99.7,31.1z"/>
		</g>
	</g>
	<g>
		<g>
			<path class="st2" d="M101,31.4C101,31.4,101,31.4,101,31.4c-0.3-0.2-0.6-0.4-0.9-0.6c-0.1,0.4,0,0.8,0.2,1.2
				c0.3,0.7,1.3,0.1,1-0.6c-0.1-0.2-0.1-0.4-0.1-0.6c0.1-0.4-0.6-0.8-0.9-0.5c-0.4,0.3-0.6,0.6-0.6,1.1
				C99.7,32.2,100.9,32.2,101,31.4L101,31.4z"/>
		</g>
	</g>
	<g>
		<g>
			<path class="st2" d="M100.6,35.7c0.1-0.1,0.2-0.3,0.3-0.4c-0.3-0.1-0.7-0.3-1-0.4c0,0.2,0,0.5,0,0.7c0,0.8,1.2,0.8,1.2,0
				c0-0.2,0-0.5,0-0.7c0-0.5-0.7-0.8-1-0.4c-0.1,0.1-0.2,0.3-0.3,0.4C99.3,35.4,100.1,36.3,100.6,35.7L100.6,35.7z"/>
		</g>
	</g>
</g>
</svg>
