<svg id="Layer_1" data-name="Layer 1" xmlns="http://www.w3.org/2000/svg" viewBox="0 0 58.62 32.62"><defs><style>.cls-1{fill:#141113;}.cls-2{fill:#292728;}</style></defs><title>Black</title><path class="cls-1" d="M77.9,45.6a19,19,0,0,0,.9-2.1c.3-1-1.2-1.6-1.6-.7a7.84,7.84,0,0,0-.5,1.4c-.2.8.9,1.6,1.5.9l1.1-1.4-1.5-.9a6.7,6.7,0,0,1-.7,1.8.92.92,0,0,0,1.6.9c.7-1,1.3-2,2-3-.5-.3-1-.6-1.6-.9-.3.6-.5,1.2-.8,1.8-.4.9.6,1.9,1.4,1.1.5-.5,1-1.1,1.5-1.6l-1.3-1.3a12.67,12.67,0,0,0-1.1,1.3c-.7.9.5,2.1,1.3,1.3.5-.5,1-1.1,1.6-1.6l-1.3-1.3c-1.9,2.1-3.7,4.3-5.4,6.4-.9,1.1-3.1,2.9-2.7,4.5.3,1.1,2.1.6,1.7-.5-.1-.2,1.5-1.9,1.7-2.1.6-.8,1.3-1.6,1.9-2.4,1.3-1.6,2.6-3.1,4-4.7a.92.92,0,0,0-1.3-1.3c-.5.5-1,1.1-1.6,1.6L80,44.1a12.67,12.67,0,0,0,1.1-1.3c.7-.9-.5-2.1-1.3-1.3-.5.5-1,1.1-1.5,1.6l1.4,1.1c.3-.6.5-1.2.8-1.8a.92.92,0,0,0-1.6-.9c-.7,1-1.3,2-2,3,.5.3,1,.6,1.6.9a8.49,8.49,0,0,0,.9-2.2c.2-.8-.9-1.6-1.5-.9l-1.1,1.4,1.5.9a4.18,4.18,0,0,1,.4-1c-.5-.2-1.1-.5-1.6-.7a8.65,8.65,0,0,1-.7,1.7c-.5,1.1,1,2.1,1.5,1Z" transform="translate(-70.9 -25.78)"/><path class="cls-1" d="M73.4,51.7c-.2.1-.3.2-.5.3-1,.6-.1,2.2.9,1.6.2-.1.3-.2.5-.3,1-.7.1-2.2-.9-1.6Z" transform="translate(-70.9 -25.78)"/><path class="cls-1" d="M74,51.3a5.9,5.9,0,0,0,2.6-2.8c-.5-.2-1.1-.5-1.6-.7l-1.2,2.7c.5.2,1.1.5,1.6.7a9.73,9.73,0,0,1,1.1-2.3c-.5-.3-1-.6-1.6-.9-.6,1.2-1.3,2.5-1.9,3.7.5.2,1.1.5,1.6.7.2-.4.4-.7.6-1.1-.5-.2-1.1-.5-1.6-.7-.3.7-.5,1.3-.8,2-.4,1,1.2,1.6,1.6.7.6-1,1.2-2.1,1.8-3.1-.5-.2-1.1-.5-1.6-.7-.2.5-.4,1.1-.6,1.6-.4,1,1.2,1.6,1.6.7.7-1.4,1.4-2.8,2.2-4.2-.5-.2-1.1-.5-1.6-.7a21.3,21.3,0,0,1-1.4,3.5c.5.2,1.1.5,1.6.7.5-1.3,1.1-2.7,1.7-3.9-.5-.2-1.1-.5-1.6-.7l-.6,2.1c-.3,1.1,1.3,1.5,1.7.5a31,31,0,0,1,2.1-4.5c-.5-.2-1.1-.5-1.6-.7a12.55,12.55,0,0,1-.7,2.6c.5.2,1.1.5,1.6.7a12.62,12.62,0,0,1,1.6-3.3c-.5-.2-1.1-.5-1.6-.7a7.5,7.5,0,0,1-1,2c.5.3,1,.6,1.6.9.2-.4.4-.7.6-1.1.5-.9-.7-1.9-1.4-1.1-1.4,1.6-2.1,3.5-3.1,5.4A26.1,26.1,0,0,1,73.8,52c-.3.4-.8,2.4-1.1,2.5l1.3,1a60.7,60.7,0,0,1,2.4-5.9c.5-1-1.1-2-1.6-.9-.9,2.1-1.8,4.2-2.6,6.3-.3.8.7,1.3,1.3,1a2.13,2.13,0,0,0,1-1.1,15.19,15.19,0,0,1,1.8-3.3c1.5-2,1.9-4.6,3.6-6.5L78.5,44c-.2.4-.4.7-.6,1.1-.6,1,.9,1.9,1.6.9a17.91,17.91,0,0,0,1.2-2.4c.4-1-1.1-1.5-1.6-.7a13.26,13.26,0,0,0-1.8,3.8c-.3,1,1.2,1.6,1.6.7a14.88,14.88,0,0,0,.9-3c.2-.9-1.1-1.7-1.6-.7a45.22,45.22,0,0,0-2.3,5c.6.2,1.2.3,1.7.5l.6-2.1c.3-1-1.2-1.6-1.6-.7-.7,1.4-1.3,2.9-1.9,4.4-.4,1,1.2,1.6,1.6.7a21.38,21.38,0,0,0,1.6-3.9c.3-1-1.2-1.6-1.6-.7-.7,1.4-1.4,2.8-2.2,4.2.5.2,1.1.5,1.6.7.2-.5.4-1.1.6-1.6.4-1-1.2-1.6-1.6-.7-.6,1-1.2,2.1-1.8,3.1.5.2,1.1.5,1.6.7.3-.7.5-1.3.8-2,.4-1-1.1-1.5-1.6-.7a7.14,7.14,0,0,0-.8,1.5c-.4.9,1.2,1.6,1.6.7.6-1.2,1.3-2.5,1.9-3.7a.92.92,0,0,0-1.6-.9,9.6,9.6,0,0,0-1.3,2.7c-.3,1,1.2,1.6,1.6.7a30.9,30.9,0,0,0,1.4-3.2c.4-.9-1.2-1.6-1.6-.7a4.51,4.51,0,0,1-2,2.1c-.8.5.1,2,1.1,1.5Z" transform="translate(-70.9 -25.78)"/><path class="cls-1" d="M74.4,50.1a27.49,27.49,0,0,1,1.5-3.6c-.5-.2-1.1-.5-1.6-.7a8.54,8.54,0,0,1-1.5,3.7,10.41,10.41,0,0,1,1.6.6c.3-1.1.7-2.2,1-3.2-.6-.2-1.1-.3-1.7-.5,0,.6-.1,1.3-.1,1.9,0,.9,1.3,1.3,1.7.5.8-1.9,1.6-3.7,2.5-5.6-.5-.2-1.1-.5-1.6-.7a9.31,9.31,0,0,1-1.2,4c.5.2,1.1.5,1.6.7A12.62,12.62,0,0,1,79,42.8l-1.5-.9a18.2,18.2,0,0,1-1.7,4.4c.5.2,1.1.5,1.6.7a28.1,28.1,0,0,1,2.9-5.4c-.5-.2-1.1-.5-1.6-.7a39,39,0,0,1-2,4.7c.5.3,1,.6,1.6.9a30.46,30.46,0,0,1,4.4-6.8l-1.4-1.1c-1,1.4-1.9,2.8-2.9,4.2.5.3,1,.6,1.6.9a26.57,26.57,0,0,1,2.9-4.5l-1.4-1.1a19.83,19.83,0,0,1-2.8,4.3l1.4,1.1A19.1,19.1,0,0,1,83,39.4l-1.4-1.1c-.9,1.5-1.9,2.9-2.8,4.4.5.3,1,.6,1.6.9a22.77,22.77,0,0,1,4.3-5l-1.4-1.1A12.7,12.7,0,0,1,80,41.8l1.4,1.1a14.83,14.83,0,0,1,2.9-3.7l-1.4-1.1c-.5.7-1.1,1.5-1.6,2.2s.5,1.8,1.2,1.2l3.6-2.7L85,37.4l-3.7,3.1,1.3,1.3a20.83,20.83,0,0,1,4.7-4.2l-1.1-1.4a9,9,0,0,1-2,1.9l1.3,1.3c1.1-.5,2.2-1.1,3.2-1.6-.2-.6-.3-1.2-.5-1.7a7,7,0,0,1-1.9.6c-.8.2-.9,1.6,0,1.7,2,.3,4.1.6,6.1.8V37.4a19.61,19.61,0,0,1-5.4-.1V39a13,13,0,0,1,6.5.2c.2-.6.3-1.2.5-1.7-.8-.1-1.6-.3-2.5-.4a.89.89,0,0,0-.5,1.7,29.06,29.06,0,0,0,5.6,1.5c1.1.2,1.6-1.4.5-1.7S95,38,94,37.6s-1.5,1.3-.5,1.7c1.2.5,2.3,1,3.5,1.5a11,11,0,0,0,.2-1.8c-1.1-.1-2.2-.3-3.4-.4-1-.1-1.2,1.5-.2,1.8s2.1.5,3.2.8,1.6-1.2.7-1.6c-1.4-.7-2.8-1.5-4.2-2.2a.88.88,0,0,0-1.2,1.2c.5,1,.6,1.1,1.7,1.5.2-.6.3-1.2.5-1.7-1-.3-2-.6-3.1-.9a.89.89,0,0,0-.5,1.7,7.51,7.51,0,0,0,2.6.5.91.91,0,0,0,.8-1.4,2.3,2.3,0,0,0-1.3-1.1c-1-.5-2,1.1-.9,1.6a4.23,4.23,0,0,0,.7.5c.3-.5.5-.9.8-1.4-.7-.2-1.4-.3-2.1-.5-.2.6-.3,1.2-.5,1.7,1,.3,2,.6,3.1.9s1.5-1.3.5-1.7a4.35,4.35,0,0,1-.6-.7l-1.2,1.2c1.4.7,2.8,1.5,4.2,2.2.2-.5.5-1.1.7-1.6-1.1-.3-2.1-.5-3.2-.8a11,11,0,0,0-.2,1.8c1.1.1,2.2.3,3.4.4s1.1-1.4.2-1.8c-1.2-.5-2.3-1-3.5-1.5-.2.6-.3,1.2-.5,1.7,1,.3,2.1.6,3.1,1,.2-.6.3-1.2.5-1.7A51.18,51.18,0,0,1,91.7,37c-.2.6-.3,1.2-.5,1.7.8.1,1.6.3,2.5.4,1.1.2,1.6-1.5.5-1.7a18.46,18.46,0,0,0-7.4-.2.87.87,0,0,0,0,1.7,23.34,23.34,0,0,0,5.9.2.9.9,0,0,0,0-1.8,55.79,55.79,0,0,1-5.7-.8v1.7a6,6,0,0,0,1.9-.6.89.89,0,1,0-.5-1.7,7.11,7.11,0,0,0-4,2.1c-.9.8.4,2,1.3,1.3a9,9,0,0,0,2-1.9c.7-.7-.2-2-1.1-1.4a22,22,0,0,0-5.1,4.5.92.92,0,0,0,1.3,1.3l3.7-3.1c.8-.6-.3-2-1.1-1.4L81.8,40,83,41.2c.5-.7,1.1-1.5,1.6-2.2.6-.9-.7-1.7-1.4-1.1a13.78,13.78,0,0,0-3.2,4A.9.9,0,0,0,81.4,43,13.75,13.75,0,0,0,85,38.3a.9.9,0,0,0-1.4-1.1,25.85,25.85,0,0,0-4.5,5.4c-.6,1,.9,1.9,1.6.9.9-1.5,1.9-2.9,2.8-4.4.6-.9-.7-1.8-1.4-1.1a17.1,17.1,0,0,0-3.2,4.4c-.4.9.7,1.9,1.4,1.1a23.38,23.38,0,0,0,3-4.7c.4-.9-.7-1.9-1.4-1.1a30.83,30.83,0,0,0-3.2,4.8.92.92,0,0,0,1.6.9c1-1.4,1.9-2.8,2.9-4.2.6-.8-.7-1.9-1.4-1.1a31.91,31.91,0,0,0-4.7,7.2.92.92,0,0,0,1.6.9A33.77,33.77,0,0,0,80.9,41a.89.89,0,0,0-1.6-.7,35.5,35.5,0,0,0-3,5.8c-.4.9,1.2,1.6,1.6.7a26.22,26.22,0,0,0,1.9-4.9c.2-.8-.9-1.6-1.5-.9a17.76,17.76,0,0,0-2.9,5.2c-.3,1,1.2,1.6,1.6.7a17.35,17.35,0,0,0,1.4-4.4c.1-.9-1.2-1.7-1.6-.7-.8,1.9-1.6,3.7-2.5,5.6.6.2,1.1.3,1.7.5,0-.6.1-1.3.1-1.9,0-1-1.2-1.1-1.7-.5a5.31,5.31,0,0,0-1.2,4,.92.92,0,0,0,1.7.5,16.18,16.18,0,0,0,1.7-4.1c.2-.9-1.2-1.7-1.6-.7a27.81,27.81,0,0,0-1.6,4c-1.1,1.5.6,2,1,.9Z" transform="translate(-70.9 -25.78)"/><path class="cls-1" d="M81.2,42.2a10.15,10.15,0,0,1,4.7-5.1l-1.1-1.4c-1.8,1.4-3.5,2.9-5.3,4.3l1.5.9a5.1,5.1,0,0,1,1.6-2.4l-1.3-1.3a71.92,71.92,0,0,1-5.1,5.9.92.92,0,0,0,1.3,1.3,8.62,8.62,0,0,0,2.2-2.5c-.5-.3-1-.6-1.6-.9a27.73,27.73,0,0,1-2.6,4.8c.5.2,1.1.5,1.6.7a15.36,15.36,0,0,1,1.1-3c.5-1-1-2-1.6-.9a4.89,4.89,0,0,1-1.8,2.2l1.5.9c.2-.6.5-1.3.7-1.9-.5-.3-1-.6-1.6-.9a9,9,0,0,1-1.7,2.6l1.5.6c.1-.4.2-.9.3-1.3-.5-.2-1.1-.5-1.6-.7-.2.7-.4,1.4-.6,2.2-.3,1.1,1.3,1.5,1.7.5a19.45,19.45,0,0,1,1.3-3c-.5-.3-1-.6-1.6-.9A8.78,8.78,0,0,1,73.5,45c.5.3,1,.6,1.6.9a41.61,41.61,0,0,1,2.3-4.2c-.6-.2-1.1-.3-1.7-.5-.2.6-.4,1.1-.6,1.7.5.3,1,.6,1.6.9a14.13,14.13,0,0,1,2.4-3.9L77.6,39a5.85,5.85,0,0,1-1.4,2.7c.5.2,1.1.5,1.6.7a9.62,9.62,0,0,1,1.6-3.2c-.5-.2-1.1-.5-1.6-.7a4.45,4.45,0,0,1-1.4,2.7l1.5.9a2.41,2.41,0,0,1,.7-1.8c.6-.9-.7-1.8-1.4-1.1l-1.5,1.5,1.5.9c.4-.6.7-1.3,1.1-1.9l-1.4-1.1c-.3.6-.7,1.2-1,1.8.5.3,1,.6,1.6.9a6.37,6.37,0,0,1,1-1.8l-1.3-1.3c-.2.2-.5.4-.7.6L77.7,40a5.46,5.46,0,0,1,2.8-2.6L79.4,36A19.2,19.2,0,0,0,78,37.5a.92.92,0,0,0,1.3,1.3c1-.9,1.9-1.9,2.9-2.8l-1.3-1.3c-.9,1.1-1.8,2.1-2.6,3.2L79.7,39a5.09,5.09,0,0,1,2.1-2.5l-1.1-1.4a11.83,11.83,0,0,1-2.8,2.2l1.2,1.2a12.47,12.47,0,0,1,4.6-3.9c-.3-.5-.6-1-.9-1.6-.6.4-1.2.8-1.7,1.2l1.1,1.4A24.74,24.74,0,0,1,87.1,32c.9-.5.3-2-.7-1.6A13.93,13.93,0,0,0,82.9,32c.3.5.6,1,.9,1.6a26.19,26.19,0,0,1,5.5-2.9c-.2-.5-.5-1.1-.7-1.6A19.1,19.1,0,0,0,84.5,32c-.8.7.2,1.9,1.1,1.4l3.9-2.1-1.1-1.4c-3.3,2.7-6.5,5.5-9.5,8.5l1.4,1.1a25.06,25.06,0,0,1,4.5-4.7l-1.4-1.1c-1.1,1.5-2.3,3-3.5,4.5l1.4,1.1a18.67,18.67,0,0,1,4.7-5L84.7,33c-2.1,2.3-4.2,4.7-6.3,7l1.4,1.1a13.23,13.23,0,0,1,4.3-4.5L83,35.2a17.57,17.57,0,0,1-4.9,4.1l1.2,1.2c.5-.7,4.9-6.6,5.9-6.2a6.94,6.94,0,0,1-.5-1.3,18,18,0,0,1-3.3,4l1.3,1.3a29.24,29.24,0,0,1,3.8-3.2l-1.3-1c-.4.7-.7,1.3-1.1,2l1.4,1.1a9.22,9.22,0,0,1,2.8-3.1l-1.3-1a7.1,7.1,0,0,1-2.5,3.8l1.5.6c.3-.9.7-1.8,1-2.7a.92.92,0,0,0-1.3-1.3,5.76,5.76,0,0,0-1.6,4,.86.86,0,0,0,1.5.6,7.66,7.66,0,0,0,3-4.6c.2-.7-.7-1.5-1.3-1a10.35,10.35,0,0,0-3.5,3.7.9.9,0,0,0,1.4,1.1,6.27,6.27,0,0,0,1.6-2.7c.2-.7-.7-1.5-1.3-1a35.42,35.42,0,0,0-4.2,3.5.92.92,0,0,0,1.3,1.3A19.24,19.24,0,0,0,86.2,34a.92.92,0,0,0-.5-1.3c-2.6-1-6.8,5.4-7.9,7A.87.87,0,0,0,79,40.9a18.88,18.88,0,0,0,5.3-4.4c.6-.7-.2-2-1.1-1.4a15.55,15.55,0,0,0-5,5.2c-.5.9.7,1.9,1.4,1.1,2.1-2.3,4.2-4.7,6.3-7a.92.92,0,0,0-1.3-1.3,22.86,22.86,0,0,0-4.9,5.4c-.6.8.8,1.9,1.4,1.1,1.3-1.6,2.6-3.2,3.8-4.9.7-.9-.7-1.7-1.4-1.1a25.22,25.22,0,0,0-4.7,5.1c-.6.8.7,1.8,1.4,1.1,3-3,6.2-5.8,9.5-8.5.8-.7-.2-1.9-1.1-1.4L84.7,32l1.1,1.4a14.24,14.24,0,0,1,3.8-2.6c.9-.5.3-2-.7-1.6a25.91,25.91,0,0,0-6,3c-.9.7-.1,2.2.9,1.6a17.72,17.72,0,0,1,3.1-1.5c-.2-.5-.5-1.1-.7-1.6a32.83,32.83,0,0,0-5.3,3.9c-.7.7.2,2,1.1,1.4.6-.4,1.2-.8,1.7-1.2a.92.92,0,0,0-.9-1.6,15,15,0,0,0-5.2,4.5c-.5.7.5,1.7,1.2,1.2a12.61,12.61,0,0,0,3.1-2.5c.7-.7-.2-2-1.1-1.4a7.36,7.36,0,0,0-2.7,3.1c-.4.9.7,1.9,1.4,1.1.9-1.1,1.8-2.1,2.6-3.2a.92.92,0,0,0-1.3-1.3,38.33,38.33,0,0,1-2.9,2.8l1.3,1.3a19.2,19.2,0,0,0,1.4-1.5.9.9,0,0,0-1.1-1.4,6.83,6.83,0,0,0-3.4,3.3.87.87,0,0,0,1.2,1.2,4.81,4.81,0,0,0,1.1-.9c.7-.9-.5-2.2-1.3-1.3a6.66,6.66,0,0,0-1.3,2.1.92.92,0,0,0,1.6.9c.3-.6.7-1.2,1-1.8.5-.9-.7-1.9-1.4-1.1A7.44,7.44,0,0,0,75.4,41a.91.91,0,0,0,1.5.9l1.5-1.5L77,39.3a6.5,6.5,0,0,0-.9,2.3c-.1.8.8,1.6,1.5.9A6.56,6.56,0,0,0,79.4,39a.89.89,0,0,0-1.6-.7A15.16,15.16,0,0,0,76,41.9a.89.89,0,0,0,1.6.7,12,12,0,0,0,1.6-3.2c.3-.8-.9-1.6-1.5-.9A18.77,18.77,0,0,0,75,42.7a.92.92,0,0,0,1.6.9,4.2,4.2,0,0,0,.8-2.6.94.94,0,0,0-1.7-.5,43.6,43.6,0,0,0-2.3,4.2.92.92,0,0,0,1.6.9,11.25,11.25,0,0,0,1.2-2.1.92.92,0,0,0-1.6-.9A25.18,25.18,0,0,0,73.1,46c.6.2,1.2.3,1.7.5.2-.7.4-1.4.6-2.2.3-1-1.2-1.6-1.6-.7a2.81,2.81,0,0,0-.5,2.2.86.86,0,0,0,1.5.6,8.77,8.77,0,0,0,2-3c.4-1-1.1-2-1.6-.9a21.85,21.85,0,0,0-.9,2.3c-.3.9.8,1.4,1.5.9a8.9,8.9,0,0,0,2.1-2.6c-.5-.3-1-.6-1.6-.9A36.16,36.16,0,0,0,75,45.7a.89.89,0,0,0,1.6.7,22.31,22.31,0,0,0,2.6-4.8c.4-1-1-1.9-1.6-.9a4.52,4.52,0,0,1-1.9,2.2L77,44.2c1.8-1.9,3.5-3.9,5.1-5.9A.92.92,0,0,0,80.8,37a8.49,8.49,0,0,0-2.1,3.2c-.3.9.9,1.4,1.5.9,1.8-1.4,3.5-2.9,5.3-4.3.8-.7-.2-1.9-1.1-1.4a11.7,11.7,0,0,0-5.5,6.1c.1,1.3,1.8,1.7,2.3.7Z" transform="translate(-70.9 -25.78)"/><path class="cls-1" d="M88.4,36v-.5a2.18,2.18,0,0,1,.5-.8,2.7,2.7,0,0,1,.7-.8c1.6-1,1.5.6,1.2,1.5-.2.6-.3.9-.9,1.1-.4.3-.6.2-.5-.3a1.23,1.23,0,0,1,.2-1,5.09,5.09,0,0,1,1.3-1.6l.9-.6a1.69,1.69,0,0,1,.5-.2l-.1.1c.2.6-.9,1.4-1.4,1.6a1.93,1.93,0,0,1-1.3,0s-.3.4,0-.1,1.7-2,2.4-1.2c1.1,1.3-2.5,4.1-3,2.7-.2-.5.6-1.5.9-1.8a3,3,0,0,1,1.8-.8c.9,0,1.8.7,1,1.6a2.63,2.63,0,0,1-2.1.6,1.23,1.23,0,0,1-.9-1.9,3,3,0,0,1,2-1.5c-.3-.1-.7-.3-1-.4.1-.3,0-.3-.3.2a5.55,5.55,0,0,1-.8.6,5.07,5.07,0,0,1-1.5.7,2.92,2.92,0,0,1,.2.9c.2-.6,2.3-1.1,2.8-1.3a15.44,15.44,0,0,1,3.1-.5c1.2-.1,1.2-1.9,0-1.8a14.78,14.78,0,0,0-5.5,1.3c-.9.4-3.1,1.6-1.7,2.9,1.6,1.4,6.5-1.7,5.2-3.8a1,1,0,0,0-1-.4,4.73,4.73,0,0,0-3.4,3.3,2.85,2.85,0,0,0,1.8,3.5c2.5.9,7.2-1.8,4.7-4.6-2.2-2.4-6.1-.2-6.9,2.5a2.49,2.49,0,0,0,1.6,3.3c1.5.2,3.2-1,4-2.1s1.3-2.9.2-4.1-2.7-.8-3.8.1c-1,.7-2.5,2.4-1.5,3.6s2.9,1,4,.4a3.77,3.77,0,0,0,2-3.8c-.3-1.8-2.4-1.2-3.5-.5A6,6,0,0,0,87.4,36c-.2,1.4.5,3,2,3,3.5.2,4.7-7.2.8-7-1.8.1-3.5,2.1-3.8,3.8s1.2,3.1,2.7,2.1c1.2-1,.3-2.6-.7-1.9Z" transform="translate(-70.9 -25.78)"/><path class="cls-1" d="M122.6,39.8a10.21,10.21,0,0,0-2.9-1.1.91.91,0,0,0-.9,1.5c.9,1,1.9,2,2.8,3l1.1-1.4c-1.1-.8-2.2-1.7-3.4-2.5-.9-.7-1.7.7-1.1,1.4a20.57,20.57,0,0,0,2.9,3l1.1-1.4a5.41,5.41,0,0,1-2.2-1.5l-.9,1.5a7.81,7.81,0,0,1,3.7,2.2l1.1-1.4c-.3-.3-.7-.5-1-.8l-1.1,1.4a24.33,24.33,0,0,1,2.5,2,.92.92,0,0,0,1.3-1.3l-1-1c-.8-.8-1.8.2-1.4,1.1s.7,1.6,1.1,2.4l1.2-1.2a8.76,8.76,0,0,1-2.4-1.9L122,45.2a18.48,18.48,0,0,1,2.7,1.9.92.92,0,0,0,1.3-1.3c-.4-.5-.9-1-1.3-1.5-.7-.8-1.9.2-1.4,1.1a8.18,8.18,0,0,0,1.2,2,.93.93,0,0,0,1.7-.5,1.27,1.27,0,0,1,.1-.6l-1.5.6.6.9a.93.93,0,0,0,1.8-.2c0-.2.1-.4.1-.7-.6.2-1.1.3-1.7.5.2.6.5,1.2.7,1.8.4,1.1,2.1.6,1.7-.5-.1-.3-.2-.6-.3-1-.5.2-1.1.5-1.6.7.3.4.5.9.8,1.3l1.4-1.1a21.1,21.1,0,0,1-1.9-2.3L125,47.4a5.67,5.67,0,0,1,1.2,1.8c.4.8,1.7.4,1.7-.5a18.25,18.25,0,0,0-.5-4c-.6.2-1.2.3-1.7.5a13.55,13.55,0,0,1,.2,2,11,11,0,0,1,1.8-.2c-.2-.7-.4-1.5-.6-2.2-.6.2-1.2.3-1.7.5.1.3.3.7.4,1,.5-.2,1.1-.5,1.6-.7a31.88,31.88,0,0,0-3-4.2l-1.3,1.3a15.05,15.05,0,0,0,1,1.7l1.3-1a28.15,28.15,0,0,1-4.7-4.4l-1.3,1.3,3.9,3.6,1.1-1.4a8.22,8.22,0,0,1-3.6-3.3l-1.2,1.2a14,14,0,0,1,3.9,3c.8.9,2-.4,1.3-1.3-1.1-1.2-2.1-2.4-3.2-3.6l-1.1,1.4a13.32,13.32,0,0,1,3.8,3.3c.7.9,2.2.1,1.6-.9a30.13,30.13,0,0,0-2.2-2.8l-1.1,1.4a7.22,7.22,0,0,1,2.8,4.6c.6-.2,1.2-.3,1.7-.5-.2-.6-.3-1.1-.5-1.7-.5.2-1.1.5-1.6.7.1.4.3.8.4,1.2l1.5-.9c-2.2-2.2-3.4-4.9-5.8-7L120,38.7a9,9,0,0,1,2.8,2l1.1-1.4a21.42,21.42,0,0,1-4.2-3.7L118.6,37a13.43,13.43,0,0,1,3.4,2.9l1.1-1.4a8.32,8.32,0,0,1-2.9-2.7L119,37c1,.8,1.9,1.6,2.9,2.4L123,38a4.59,4.59,0,0,1-1.9-2l-1.2,1.2a8.13,8.13,0,0,1,1.9,1.8l1.3-1.3c-.6-.7-1.2-1.3-1.8-2s-2,.3-1.4,1.1,1.2,1.5,1.8,2.2l1.1-1.4a22,22,0,0,1-4.5-4.1L117,34.8c.6.6,1.2,1.1,1.7,1.7a.92.92,0,0,0,1.3-1.3c-.8-.8-1.5-1.6-2.3-2.4l-1.3,1.3a18.11,18.11,0,0,1,1.8,2.1l1.3-1.3a24,24,0,0,1-1.9-2.9l-1.4,1.1a15.33,15.33,0,0,1,2.9,2.8c.7.8,2-.3,1.4-1.1a32.18,32.18,0,0,0-2.4-2.8L117,33.4a5.19,5.19,0,0,1,1.9,1.7l1.3-1.3a5.66,5.66,0,0,0-1.5-1.2.87.87,0,0,0-1.2,1.2,34.57,34.57,0,0,0,2.2,3.1l1.1-1.4c-.3-.1-.6-.3-.9-.4a.92.92,0,0,0-.9,1.6l1.3,1a.92.92,0,0,0,1.3-1.3l-.7-.7-1.1,1.4a10.92,10.92,0,0,1,1.7,1.3c.8.8,2.1-.5,1.3-1.3a16.6,16.6,0,0,0-2.1-1.6.9.9,0,0,0-1.1,1.4l.7.7,1.3-1.3A18.26,18.26,0,0,0,120,35c-.3.5-.6,1-.9,1.6.3.1.6.3.9.4a.9.9,0,0,0,1.1-1.4c-.7-.9-1.4-1.8-2-2.7l-1.2,1.2c.4.3.7.6,1.1.9.8.9,2-.4,1.3-1.3a13.73,13.73,0,0,0-2.2-2c-.9-.6-1.8.7-1.1,1.4a16.38,16.38,0,0,1,2.1,2.5l1.4-1.1a25.72,25.72,0,0,0-2.9-2.8c-.8-.6-1.9.1-1.4,1.1a37.84,37.84,0,0,0,2.2,3.3c.7.9,2-.4,1.3-1.3l-1.8-2.1a.92.92,0,0,0-1.3,1.3c.8.8,1.5,1.6,2.3,2.4l1.3-1.3c-.6-.6-1.2-1.1-1.7-1.7-.8-.8-2,.4-1.3,1.3a23,23,0,0,0,4.9,4.4c.9.6,1.7-.7,1.1-1.4s-1-1.2-1.5-1.9l-1.4,1.1a17.11,17.11,0,0,0,1.8,2c.8.9,2-.4,1.3-1.3a15.53,15.53,0,0,0-2.3-2.1.87.87,0,0,0-1.2,1.2,7.77,7.77,0,0,0,2.5,2.6c.9.6,1.8-.7,1.1-1.4a26.92,26.92,0,0,0-3.2-2.7c-.7-.5-1.7.5-1.2,1.2a11.39,11.39,0,0,0,3.6,3.3c.9.6,1.7-.7,1.1-1.4a13.59,13.59,0,0,0-3.7-3.1c-.9-.6-1.7.7-1.1,1.4a21.68,21.68,0,0,0,4.6,4c.9.6,1.7-.7,1.1-1.4a7.88,7.88,0,0,0-3.1-2.3c-.9-.4-1.9.7-1.1,1.4,2.4,2,3.7,4.8,5.8,7a.9.9,0,0,0,1.5-.9,4.92,4.92,0,0,0-.6-1.7.88.88,0,0,0-1.6.7c.2.6.3,1.1.5,1.7a.89.89,0,0,0,1.7-.5,9.13,9.13,0,0,0-3.7-5.7c-.8-.6-1.8.7-1.1,1.4a10,10,0,0,1,2,2.5c.5-.3,1-.6,1.6-.9a13.63,13.63,0,0,0-4.4-3.9.91.91,0,0,0-1.1,1.4c1.1,1.2,2.1,2.4,3.2,3.6l1.3-1.3a15.42,15.42,0,0,0-4.3-3.3.87.87,0,0,0-1.2,1.2,9.55,9.55,0,0,0,4.3,3.9c.9.4,1.9-.7,1.1-1.4l-3.9-3.6a.92.92,0,0,0-1.3,1.3,28.47,28.47,0,0,0,5.1,4.7c.6.5,1.5-.3,1.3-1a6.21,6.21,0,0,0-1.4-2.5c-.8-.9-2,.4-1.3,1.3a27,27,0,0,1,2.7,3.9c.5.9,2,.3,1.6-.7-.1-.3-.3-.7-.4-1a.89.89,0,1,0-1.7.5c.2.8.4,1.5.6,2.2a.92.92,0,0,0,1.8-.2,7.15,7.15,0,0,0-.3-2.5c-.2-1.1-2-.7-1.7.5a13.93,13.93,0,0,1,.4,3.5c.6-.2,1.1-.3,1.7-.5a5.38,5.38,0,0,0-1.5-2.1c-.7-.7-2,.3-1.4,1.1s1.4,1.8,2.2,2.7,1.9-.2,1.4-1.1c-.3-.4-.5-.9-.8-1.3-.5-.9-2-.3-1.6.7.1.3.2.6.3,1,.6-.2,1.2-.3,1.7-.5a10.2,10.2,0,0,0-.9-2.2c-.4-.9-1.6-.3-1.7.5,0,.2-.1.4-.1.7a11,11,0,0,1,1.8-.2,3.67,3.67,0,0,0-1-1.7.88.88,0,0,0-1.5.6,1.27,1.27,0,0,1-.1.6c.6-.2,1.1-.3,1.7-.5a8.17,8.17,0,0,1-1.2-2l-1.4,1.1c.4.5.9,1,1.3,1.5l1.3-1.3a34.57,34.57,0,0,0-3.1-2.2c-.9-.6-1.8.7-1.1,1.4a11.83,11.83,0,0,0,2.8,2.2c.8.5,1.6-.5,1.2-1.2s-.7-1.6-1.1-2.4l-1.4,1.1,1,1,1.3-1.3-2.9-2.3c-.9-.7-1.7.7-1.1,1.4a2.59,2.59,0,0,0,1.4,1.1.9.9,0,0,0,1.1-1.4,8.94,8.94,0,0,0-4.5-2.6.92.92,0,0,0-.9,1.5,8.85,8.85,0,0,0,2.5,1.8c.9.4,1.9-.7,1.1-1.4a20.57,20.57,0,0,1-2.9-3l-1.1,1.4c1.1.8,2.2,1.7,3.4,2.5.8.6,1.8-.7,1.1-1.4-1-1-1.9-2-2.8-3l-.9,1.5a5.81,5.81,0,0,1,2.5.9c-.1.7.8-.9-.2-1.4Z" transform="translate(-70.9 -25.78)"/><path class="cls-1" d="M123.4,38.7a21.67,21.67,0,0,1-4.7-3.2.92.92,0,0,0-1.3,1.3,20.36,20.36,0,0,0,4,3.1c.9.6,1.8-.7,1.1-1.4-1-1.1-2-2.3-2.9-3.5l-1.4,1.1A28,28,0,0,1,122,40c.4-.4.8-.8,1.4-1.3-1-1.1-2-2.1-3.1-3.1L119,36.9c1.4,1.3,2.9,2.6,4.3,3.9l1.3-1.3c-1.6-1.3-3.1-2.7-4.7-4l-1.1,1.4a34.27,34.27,0,0,1,4.3,3.2c.9.7,2.1-.5,1.3-1.3-1.4-1.2-2.8-2.5-4.2-3.7l-1.3,1.3c1.6,1.3,3.1,2.6,4.7,3.8.9.7,2.2-.5,1.3-1.3-1.6-1.3-3.1-2.6-4.7-3.8-.9-.7-2.2.5-1.3,1.3,1.4,1.2,2.8,2.5,4.2,3.7l1.3-1.3a52,52,0,0,0-4.7-3.5c-.8-.5-1.9.7-1.1,1.4,1.6,1.3,3.1,2.7,4.7,4,.9.7,2.1-.5,1.3-1.3-1.4-1.3-2.9-2.6-4.3-3.9a.92.92,0,0,0-1.3,1.3c1,1,2,2,3,3.1.8.9,2-.4,1.4-1.2a29.57,29.57,0,0,0-3.9-4c-.7-.6-2,.2-1.4,1.1a30.19,30.19,0,0,0,3.2,3.9l1.1-1.4a24.76,24.76,0,0,1-3.6-2.8l-1.3,1.3a28.87,28.87,0,0,0,5.1,3.5c.9.4,1.8-1.1.8-1.6Z" transform="translate(-70.9 -25.78)"/><path class="cls-1" d="M101.3,32.8a10.44,10.44,0,0,1-4.9-1.2c-.1.5-.1,1.1-.2,1.6a5.69,5.69,0,0,1,2.6-.4c1,1.5.7,2.1-.9,1.9-2.4-1.3,1.5-2.2,2-1.9.8,1.1.2,1.8-1.5,2.2a3.08,3.08,0,0,1-1.9,0c-3.6-1,.7-2.3,1.5-1.6,1.1,1-2.4,2.5-3,2.3-2-.7,1.3-1.6,1.1-1.5-.6.5-3.2,1.8-3.8,1,.7-1.3.7-1.6.1-1,0,.6.4.7,1.3.3L93.1,33c-.6.7-.3.9.9.5-.2-.6-.3-1.1-.5-1.7-.5.4-2.9,1.7-3.5,1-.6,0-.4-.1.6-.4a2,2,0,0,1,1.8-.6c-.1-.3-.3-.7-.4-1-.8.3-1,.7-.5,1.1.1.5.5.6,1,.3l-.9-1.5c-2.1,1.1-2.4,1.3-1.1.6a4,4,0,0,1,2.8-.5c-.2-.6-.3-1.1-.5-1.7-.6.1-1.1.3-1.7.4.2.6.3,1.1.5,1.7a5.58,5.58,0,0,1,3.1-.6,11,11,0,0,1-.2-1.8,15.3,15.3,0,0,1-5.6.9l.6,1.5a8.31,8.31,0,0,1,4.2-1.8c-.2-.5-.5-1.1-.7-1.6A20.82,20.82,0,0,1,89.8,29a.89.89,0,0,0,.5,1.7c1.3-.2,2.6-.4,3.8-.6l-.9-1.5c-.3.1-.5.2-.8.3v1.7a22.14,22.14,0,0,1,3.4-.6c1.1-.1,1.2-1.8,0-1.8H93.3V30l4.3-.3a11,11,0,0,1-.2-1.8.9.9,0,0,0-.5.1,1.11,1.11,0,0,0-.7.9.9.9,0,0,1-.1.5c-.1,1.1,1.7,1.1,1.8,0a.9.9,0,0,1,.1-.5,5.5,5.5,0,0,1-.7.9.9.9,0,0,0,.5-.1c1-.1.8-1.8-.2-1.8l-4.3.3c-1.1.1-1.2,1.8,0,1.8h2.5V28.2c-1.3.2-2.6.4-3.9.7-.8.2-.9,1.6,0,1.7a2.55,2.55,0,0,0,2.5-.7c.7-.7-.1-1.6-.9-1.5-1.3.2-2.6.4-3.8.6.2.6.3,1.2.5,1.7,1.2-.4,2.4-.9,3.6-1.4,1-.4.2-1.8-.7-1.6a10.44,10.44,0,0,0-5,2.3c-.7.5-.1,1.5.6,1.5a18.15,18.15,0,0,0,6.1-1,.92.92,0,0,0-.2-1.8,7.85,7.85,0,0,0-4,.9c-.9.4-.4,1.7.5,1.7a5.83,5.83,0,0,0,2.6-.6.93.93,0,0,0-.5-1.7,7.57,7.57,0,0,0-5.7,2,1,1,0,0,0-.2.9c.6,2.5,4.1,1.2,5.4.2.8-.6-.1-1.6-.9-1.5S87,32.1,89,33.7c1.2,1.1,4.4-1,4.6-2.3a.82.82,0,0,0-.4-1c-1.7-.9-4.5.7-5.7,1.8a1,1,0,0,0-.2.9c.8,2.9,5.4,1.5,7.1.4a.93.93,0,0,0-.5-1.7c-1.6-.2-4.8.9-4.2,3,.7,2.4,3.6.6,4.6-.5a.88.88,0,0,0-.6-1.5c-1.2-.1-3.6.3-3.9,1.8-.2,1.2.8,1.7,1.8,1.7,1.7,0,6.3-3.3,3-4.2-2.7-.8-7.5,2.7-3.7,4.6,2.2,1.1,8.3-.2,7.3-3.6-.1-.3-.3-.6-.6-.6-1.7-.3-5.2.7-5.6,2.7-.5,2.6,3.4,2.6,4.9,2.1,1.7-.6,4.7-3,2.8-4.8-1.4-1.4-5.4-.8-6.4.9-2.3,3.6,8.9,6,9.1-.2.2-4.8-10.8-.6-6.8,2.7,1.8,1.5,6.3.8,7-1.6,1.2-3.7-5-3.1-6.8-2.6a.88.88,0,0,0-.2,1.6,13,13,0,0,0,5.8,1.4,1,1,0,0,0-.1-1.9Z" transform="translate(-70.9 -25.78)"/><path class="cls-1" d="M99.7,33.4c-.8-.4-1.5-.8-2.3-1.2-.2.6-.3,1.1-.5,1.7.8-.1,6.4,0,4.6.6-1.6.5,2.6-1.8,1.1-1.4l1,1.3c.5-.3.9-.6,1.4-.9l-1-1.3a15,15,0,0,0-1.1,1.3l1.1,1.4a5.5,5.5,0,0,0,.9-.7l-1-1.3c-.1.4-.3.8-.4,1.2l-1.1-1.4c-1.4,1.7-2.9,2.3-4.5,1.7-.9-.4-1-.2-.3.5l-1-1.3c1.4-2.9.5-3.4,4.3-2.2-.1-.5-.1-1.1-.2-1.6-1.6.2-3.1.5-4.7.7v1.7a5.58,5.58,0,0,1,3.8-.5l-.6-1.5-3.5.6c.1.5.1,1.1.2,1.6a6.78,6.78,0,0,1,5.3-1.3,11,11,0,0,1-.2-1.8,20.29,20.29,0,0,1-6,.9c.2.6.3,1.1.5,1.7,1.4-.1,2.8-.2,4.1-.4-.1-.5-.3-1-.4-1.5-1.9,2-4,2.4-6.2,1.3V33a19.94,19.94,0,0,1,6.4-1.5c2.3-.2-3.2.3-4.2.2.2.6.3,1.1.5,1.7a15.19,15.19,0,0,1,9.6-1.2c-.1-.5-.1-1.1-.2-1.6-1.5.1-3,.1-4.5.2-.1.5-.1,1.1-.2,1.6a14.62,14.62,0,0,1,10.5,0V30.7a7.67,7.67,0,0,1-6.6-.4c-.2.6-.3,1.1-.5,1.7,1.5.1,4.2-.3,5.2.6,1,.1,1,.2.1.3a2.83,2.83,0,0,1-2.9-.9c-.2.6-.3,1.1-.5,1.7a13,13,0,0,1,8.4,1.8c.2-.6.3-1.1.5-1.7a24.06,24.06,0,0,1-8.8-1.6v1.7a10.2,10.2,0,0,1,8.9,2.1c.2-.5.5-1.1.7-1.6-1.1-.7-2.3-1.4-3.4-2.1l-.9,1.5a10.93,10.93,0,0,1,5.8,4.1l1.2-1.2c-.8-.5-1.7-1-2.5-1.5a.9.9,0,0,0-1.1,1.4,18.71,18.71,0,0,0,3.5,2.8c.7.5,1.8-.5,1.2-1.2a23.21,23.21,0,0,0-2.1-2.5L115.8,37a12.06,12.06,0,0,1,2.4,2.1l1.3-1.3a9,9,0,0,0-2-1.4c-.9-.5-1.9.7-1.1,1.4.5.5,1.1,1,1.6,1.5l.9-1.5c-.8-.4-1.7-.9-2.5-1.3-1-.6-1.9.9-.9,1.6l2.1,1.5c.2-.5.5-1.1.7-1.6-.9-.4-1.8-.7-2.7-1.1-.2.5-.5,1.1-.7,1.6,1.2.4,2.3.7,3.5,1.1.2-.6.3-1.2.5-1.7-.8-.3-1.5-.5-2.3-.8-.9-.5-1.9.7-1.1,1.4,1,.8,1.9,1.6,2.9,2.4l1.3-1.3a7,7,0,0,0-1-.8l-1.1,1.4c.3.1.7.3,1,.4.6.3,1.6-.2,1.3-1-.2-.4-.3-.8-.5-1.3l-1.1,1.1c.4.1.9.3,1.3.4a.93.93,0,0,0,1.1-1.1l-.6-2.1-1.3,1,1.2.9c.6.4,1.6-.3,1.3-1-.1-.4-.3-.8-.4-1.1l-1.3,1a4.35,4.35,0,0,0,.7.4c.3-.5.6-1,.9-1.6a63,63,0,0,0-16.7-6.5,11,11,0,0,0-.2,1.8l7.2.9c1,.1,1.1-1.2.5-1.7-.3-.2-.5-.3-.8-.5-1-.6-1.9.9-.9,1.6.3.2.5.3.8.5.2-.6.3-1.1.5-1.7l-7.2-.9c-1-.1-1.2,1.5-.2,1.8a59.51,59.51,0,0,1,16.2,6.4c1,.6,1.9-1,.9-1.6a4.35,4.35,0,0,0-.7-.4c-.6-.4-1.6.3-1.3,1,.1.4.3.8.4,1.1l1.3-1-1.2-.9c-.6-.5-1.5.3-1.3,1l.6,2.1,1.1-1.1c-.4-.1-.9-.3-1.3-.4-.6-.2-1.4.5-1.1,1.1.2.4.3.8.5,1.3l1.3-1c-.3-.1-.7-.3-1-.4-.8-.4-2,.7-1.1,1.4a7,7,0,0,0,1,.8c.9.7,2.2-.5,1.3-1.3s-1.9-1.6-2.9-2.4l-1.1,1.4a5.58,5.58,0,0,0,2.7,1c1.1.2,1.6-1.4.5-1.7s-2.3-.7-3.5-1.1a.88.88,0,0,0-.7,1.6,7.1,7.1,0,0,0,3.1,1.3.89.89,0,0,0,.7-1.6l-2.1-1.5c-.3.5-.6,1-.9,1.6a10.55,10.55,0,0,0,3,1.5c.8.3,1.5-.9.9-1.5s-1.1-1-1.6-1.5l-1.1,1.4c.6.4,1.1.7,1.7,1.1.9.7,2.1-.5,1.3-1.3a16.41,16.41,0,0,0-2.4-2.1.92.92,0,0,0-1.3,1.3l1.8,2.1,1.2-1.2a15.43,15.43,0,0,1-3.1-2.5l-1.1,1.4c.8.5,1.7,1,2.5,1.5s1.8-.5,1.2-1.2a13,13,0,0,0-6.9-5,.91.91,0,0,0-.9,1.5,7.93,7.93,0,0,0,4.2,2.5.88.88,0,0,0,.7-1.6,12,12,0,0,0-10.3-2.3.89.89,0,0,0,0,1.7,26.76,26.76,0,0,0,9.3,1.6.94.94,0,0,0,.5-1.7,15.17,15.17,0,0,0-9.3-2c-.8.1-1.3,1.2-.5,1.7a10,10,0,0,0,7.2,1.1.91.91,0,0,0,.6-1.1c-1.3-3.5-6.2-3.2-9.4-3.4-.9,0-1.3,1.3-.5,1.7a10.55,10.55,0,0,0,8,.5.89.89,0,0,0,0-1.7,17.15,17.15,0,0,0-11.4,0,.88.88,0,0,0-.2,1.6,5.41,5.41,0,0,0,6.3-.2c.6-.4.6-1.5-.2-1.6a17.4,17.4,0,0,0-11,1.4c-.9.4-.3,1.6.5,1.7,2.3.3,7.4.8,8.2-2.2a1,1,0,0,0-.4-1c-3.1-1.5-7.3-.2-10.4,1a.89.89,0,0,0,0,1.7,6.77,6.77,0,0,0,7.9-1.8.88.88,0,0,0-.4-1.5,6.61,6.61,0,0,0-5.5.5A.88.88,0,0,0,95,32a19.91,19.91,0,0,0,6.4-1,.92.92,0,0,0-.2-1.8A9.09,9.09,0,0,0,95,30.8a.88.88,0,0,0,.2,1.6c2.1.9,3.6.5,5.3-1.1a.88.88,0,0,0-.6-1.5,9.19,9.19,0,0,0-4.3.6c-.7.3-1,1.6,0,1.7a9.32,9.32,0,0,0,6.1-.9.88.88,0,0,0-.2-1.6c-1.8-.5-9.7-1-6.3,3.2,1.7,2,6.8.6,5.6-2.4-1.1-2.8-7.2-.5-7.6,1.8-.8,4.1,4.6,2.6,6.1.6a.75.75,0,0,0,0-.9c-1.5-2.2-5.4-.8-5.1,2a2.11,2.11,0,0,0,4.1.7c.4-.7-.2-1.4-1-1.3-6.1,1-.1,6.7,3,3,2.9-3.4-4.5-5.5-6-2.7-.1.3-.2.7,0,.9,2.4,3.2,7.2,2,9.6-.5.7-.7-.2-2-1.1-1.4-2.5,1.6.6,4.6,2.9,1.3.4-.6-.3-1.6-1-1.3a2.45,2.45,0,0,0-1.7,1.1.9.9,0,0,0,1.1,1.4c1.3-.7,1.2-.6,1.8-1.9a.9.9,0,0,0-1-1.3c-1.5.4-1.5.4-2.4,1.7-.5.7.3,1.5,1,1.3,1.9-.5,2.8-.8,3-2.7.1-.5-.5-.9-.9-.9-1.8.2-6.7,2.5-3.3,4.7,2.6,1.6,5-2.6,4.8-4.7a1,1,0,0,0-.7-.9c-2-.4-7.1.9-6.2,3.7s6.4,1.2,7.2-.9c1.7-4.4-4.7-3.3-6.7-1.7-2.5,2-1,5.1,2.1,4.7,2.8-.3,5.4-4.1,2.5-6.1-2.3-1.6-8.8.8-8,4.2.6,2.4,6.7,4,8,1.6,2.1-3.9-6.3-3.9-8.1-3.7a.94.94,0,0,0-.5,1.7,6.78,6.78,0,0,0,2.7,1.3c1,.4,1.4-1.4.3-1.8Z" transform="translate(-70.9 -25.78)"/><path class="cls-1" d="M115.9,33.1a9.5,9.5,0,0,1-1.7-1c-1-.7-1.8.9-.9,1.6a38.37,38.37,0,0,0,5,3.2c.3-.5.6-1,.9-1.6a31,31,0,0,1-4.7-2.6c-.8-.6-1.9.7-1.1,1.4a34.57,34.57,0,0,0,4.4,3.4c.3-.5.6-1,.9-1.6a34.52,34.52,0,0,1-5.6-4.5L112,32.8q2.85,1.35,5.7,2.4a.89.89,0,0,0,.7-1.6c-1.6-1-3.1-2-4.7-3-.2.5-.5,1.1-.7,1.6,1.3.4,2.6.7,3.9,1.1a.89.89,0,0,0,.7-1.6c-1.1-.8-2.3-1.5-3.4-2.3-.3.5-.6,1-.9,1.6.9.5,1.8.9,2.7,1.4.2-.5.5-1.1.7-1.6-1.5-.5-3-1.1-4.5-1.6-.2.6-.3,1.2-.5,1.7,1.3.5,2.5.9,3.8,1.4a11,11,0,0,0,.2-1.8,15.47,15.47,0,0,1-3.1-.6.91.91,0,0,0-.9,1.5,29.24,29.24,0,0,0,3.8,3.2c.2-.5.5-1.1.7-1.6a13,13,0,0,1-6.2-2.8l-.9,1.5a54.19,54.19,0,0,1,7,1.4,11,11,0,0,0,.2-1.8c-2.3-.3-4.3-1.9-6.5-1.8a.9.9,0,0,0,0,1.8c1.2,0,2.3.8,3.5,1.2a15.54,15.54,0,0,0,3.1.7c1,.1,1.2-1.5.2-1.8-2.3-.6-4.6-1-7-1.4-.8-.1-1.7.9-.9,1.5a16.57,16.57,0,0,0,7,3.2.89.89,0,0,0,.7-1.6,23.66,23.66,0,0,1-3.4-2.9l-.9,1.5a15.28,15.28,0,0,0,3.6.7c1.1.1,1.1-1.4.2-1.8-1.3-.5-2.5-.9-3.8-1.4-1.1-.4-1.6,1.3-.5,1.7,1.5.5,3,1.1,4.5,1.6,1,.3,1.6-1.2.7-1.6s-1.8-.9-2.7-1.4a.92.92,0,0,0-.9,1.6c1.1.8,2.3,1.5,3.4,2.3.2-.5.5-1.1.7-1.6-1.3-.4-2.6-.7-3.9-1.1a.89.89,0,0,0-.7,1.6c1.6,1,3.1,2,4.7,3,.2-.5.5-1.1.7-1.6a34.86,34.86,0,0,1-5.3-2.2c-.9-.4-1.8.7-1.1,1.4a30.36,30.36,0,0,0,6,4.7c1,.6,1.9-.9.9-1.6a31.49,31.49,0,0,1-4.1-3.1l-1.1,1.4a26.83,26.83,0,0,0,4.7,2.6.92.92,0,0,0,.9-1.6c-1.7-1-3.4-2.1-5-3.2-.3.5-.6,1-.9,1.6a15.05,15.05,0,0,0,1.7,1c1.2.4,2.1-1.1,1.1-1.6Z" transform="translate(-70.9 -25.78)"/><path class="cls-1" d="M96.9,30.1c.2.1.3.1.5.2a6.94,6.94,0,0,0-.5,1.3,8.79,8.79,0,0,1,4.8-.4,11,11,0,0,1-.2-1.8,16.74,16.74,0,0,1-7.7.6c.1.5.3,1,.4,1.5.7-.3,1.4-.7,2.2-1L95.8,29c-.9.4-1.7.7-2.6,1.1.3.5.5.9.8,1.4a35.83,35.83,0,0,0-4.5.9c.2.6.3,1.1.5,1.7l3-.3c-.1-.5-.1-1.1-.2-1.6-1.2.4-2.5.8-3.7,1.2-1.1.1-1.2,1.9,0,1.8a2.7,2.7,0,0,0,.8-.7c-.1.5-.1,1.1-.2,1.6q7,.75,3.3-.3c-.1.5-.1,1.1-.2,1.6a11.58,11.58,0,0,1,8.2-.3c-.1-.5-.1-1.1-.2-1.6a5.41,5.41,0,0,1-5.6.5c.1.5.1,1.1.2,1.6,1-.3,2-.5,2.9-.8-.2-.6-.3-1.1-.5-1.7l-3.8.3a.89.89,0,0,0-.5,1.7c.7.4,1.3.8,2,1.2l.6-1.5-3.7-.6c-.2.5-.5,1.1-.7,1.6A21.9,21.9,0,0,1,95,39c.2-.6.3-1.2.5-1.7a5.72,5.72,0,0,1-3.3-1.6c-.2.6-.3,1.1-.5,1.7A5.73,5.73,0,0,1,96.1,39c.3-.5.6-1,.9-1.6-.7-.3-1.4-.7-2.1-1-.2.5-.5,1.1-.7,1.6a41.1,41.1,0,0,0,8.6.8c1,0,1.3-1.6.2-1.8-1.9-.3-3.8-.5-5.7-.8v1.7a16.1,16.1,0,0,1,6.5-1,11,11,0,0,1-.2-1.8l-4.3.3c.1.5.1,1.1.2,1.6a11.44,11.44,0,0,1,5.5-1.3l-.6-1.5a6.57,6.57,0,0,1-4.3,2.5l.9,1.5c1.4-.5,2.7-1,4.1-1.5-.3-.5-.5-.9-.8-1.4l-2.3,2,1,1.3c1.2-.8,2.4-1.7,3.6-2.5l-1-1.3a10.87,10.87,0,0,1,1.8.1l-1.1-1.1c2.1.9,4.1,1.8,6.2,2.7l.6-1.5a10,10,0,0,1-4.8-1.1c-.2.6-.3,1.1-.5,1.7,1.6.5,3.3,1,4.9,1.6l.6-1.5c-.9-.3-1.9-.5-2.8-.8-.2.5-.5,1.1-.7,1.6,1.4.3,2.8.7,4.2,1.1,1,.3,1.6-1.2.7-1.6l-1.5-.6c-1-.4-2,1-.9,1.6a7.84,7.84,0,0,1,1.8,1.1c.2-.5.5-1.1.7-1.6a20,20,0,0,1-2.1-1c-.3.5-.6,1-.9,1.6.9.5,1.8.9,2.7,1.4.3-.5.6-1,.9-1.6-.6-.3-1.1-.5-1.7-.8-.2.5-.5,1.1-.7,1.6a6,6,0,0,0,1.9.6c.8.2,1.6-.9.9-1.5-.5-.5-1.1-1-1.6-1.5-.8-.8-2.1.5-1.3,1.3a4.17,4.17,0,0,0,2.2,1.5c1.1.5,1.8-.8.9-1.6-.7-.6-1.5-1.1-2.2-1.7-.3.5-.6,1-.9,1.6a6.6,6.6,0,0,0,2.8.9.89.89,0,0,0,.7-1.6,9.48,9.48,0,0,0-2.7-1.7c-.2.5-.5,1.1-.7,1.6.9.3,1.8.5,2.7.8a.88.88,0,0,0,.7-1.6c-.9-.5-1.8-1.1-2.7-1.6-.2.5-.5,1.1-.7,1.6.9.2,1.7.5,2.6.7a.89.89,0,0,0,.5-1.7c-.9-.2-1.7-.5-2.6-.7a.88.88,0,0,0-.7,1.6c.9.5,1.8,1.1,2.7,1.6.2-.5.5-1.1.7-1.6-.9-.3-1.8-.5-2.7-.8s-1.6,1.2-.7,1.6a7.71,7.71,0,0,1,2.7,1.7c.2-.5.5-1.1.7-1.6-.8-.2-1.6-.5-2.3-.7a.92.92,0,0,0-.9,1.6c.7.6,1.5,1.1,2.2,1.7.3-.5.6-1,.9-1.6-.6-.4-1.2-.8-1.9-1.2l-1.3,1.3c.5.5,1.1,1,1.6,1.5l.9-1.5a6,6,0,0,1-1.9-.6c-.9-.4-1.6,1.2-.7,1.6.6.3,1.1.5,1.7.8,1,.5,2-1,.9-1.6-.9-.5-1.8-.9-2.7-1.4a.92.92,0,0,0-.9,1.6,8.49,8.49,0,0,0,2.6,1.1.89.89,0,0,0,.7-1.6,17.39,17.39,0,0,0-1.8-1.1c-.3.5-.6,1-.9,1.6l1.5.6c.2-.5.5-1.1.7-1.6-1.4-.4-2.8-.8-4.2-1.1-.9-.2-1.7,1.2-.7,1.6a6.86,6.86,0,0,0,3.7,1c.7.1,1.2-1.1.6-1.5a8.26,8.26,0,0,0-6.2-2.1c-.8,0-1.3,1.3-.5,1.7A14,14,0,0,0,113,37a.86.86,0,0,0,.6-1.5c-1.7-1.7-5.8-4-7.7-1.1-.9,1.3,0,4.2,2,3.6,3.9-1.1-2.2-8.3-4.3-1.6-.2.5.2.9.6,1.1,2,.8,3.4-1.1,3.7-3a.93.93,0,0,0-1.1-1.1c-2.1.3-5.3,2.4-3.3,4.7a1,1,0,0,0,.9.2,5.1,5.1,0,0,0,3.5-3.2,1,1,0,0,0-.2-.9c-2.7-2.4-6.2,1.1-5.7,4.1a.83.83,0,0,0,1.1.6,6.75,6.75,0,0,0,4-3c.5-.7-.3-1.4-1-1.3a5.5,5.5,0,0,0-4.6,3.4c-.3.6.2,1.6,1,1.3a5.82,5.82,0,0,0,3.4-2.8.94.94,0,0,0-.8-1.4,7.15,7.15,0,0,0-5.4,2c-.7.6,0,1.7.9,1.5a10.06,10.06,0,0,0,5.1-2.9c.5-.5.2-1.6-.6-1.5a15.91,15.91,0,0,0-6.4,1.6.88.88,0,0,0,.2,1.6,10.56,10.56,0,0,0,5.3-.3.92.92,0,0,0-.2-1.8,18.58,18.58,0,0,0-7,1c-.7.3-1,1.6,0,1.7,1.9.3,3.8.5,5.7.8a11,11,0,0,0,.2-1.8,37.1,37.1,0,0,1-8.1-.8c-.9-.2-1.7,1.2-.7,1.6.7.3,1.4.7,2.1,1a.92.92,0,0,0,.9-1.6,8,8,0,0,0-5.4-1.8c-1,0-1.1,1.2-.5,1.7A9.5,9.5,0,0,0,95,38.9a.89.89,0,0,0,.5-1.7A18.54,18.54,0,0,0,92.2,36c-1-.3-1.6,1.2-.7,1.6a8.06,8.06,0,0,0,4.6.8c.7-.1,1.3-1,.6-1.5a7.28,7.28,0,0,0-2.8-1.7c-.2.6-.3,1.2-.5,1.7a7.22,7.22,0,0,0,5.2-.5c.8-.4.4-1.7-.5-1.7a7.21,7.21,0,0,0-3.8,1,.88.88,0,0,0,.2,1.6,8.18,8.18,0,0,0,7-.7.88.88,0,0,0-.2-1.6,12.21,12.21,0,0,0-9.2.3.88.88,0,0,0-.2,1.6c1.2.8,5.3,2.1,5.6-.6.3-3.3-6.8-2.7-8.4-2.4-.8.1-.8,1.3-.2,1.6,1.7.9,4,1.1,4.7-1.1a1,1,0,0,0-.4-1c-1.2-.8-2.8-.7-4.3-.5v1.8a11.15,11.15,0,0,0,4.7-1.4.88.88,0,0,0-.2-1.6,4.89,4.89,0,0,0-4.4.5c-.8.4-.4,1.7.5,1.7,1.8,0,7.4-1.2,6.8-4.1-.5-2.4-3-.8-3.9.5a.94.94,0,0,0,.8,1.4A6.31,6.31,0,0,0,97.1,30a.88.88,0,0,0-.6-1.5A5.32,5.32,0,0,0,93.1,30a.88.88,0,0,0,.4,1.5,19.69,19.69,0,0,0,8.7-.6.93.93,0,0,0-.2-1.8,13.48,13.48,0,0,0-5.3.4.86.86,0,0,0-.5,1.3c.1.1.1.2.2.3a.82.82,0,0,0,1,.4h.3c.8.2.3-1.5-.8-1.4Z" transform="translate(-70.9 -25.78)"/><path class="cls-1" d="M102.9,37.3c2.1-.5,4.2-.9,6.4-1.2a10.63,10.63,0,0,0-.9-1.1c-.1.8-1.7.6-1.8,1.5-.2,1.4,1.3-.8,1.8-.4-.1-.3-.3-.7-.4-1a2.44,2.44,0,0,1-1.8,1.6c.2.5.5,1.1.7,1.6a18.25,18.25,0,0,1,3.2-1.4l-1-1.3a2.17,2.17,0,0,1-2.4,1.4c.2.6.3,1.1.5,1.7a13.31,13.31,0,0,1,3.5-1.3l-.9-1.5a4.18,4.18,0,0,1-2.4,1.4c.2.5.5,1.1.7,1.6a13.81,13.81,0,0,1,2.9-1.7l-1.3-1c-.1.3-.1.5-.2.8-.1.6.4,1.4,1.1,1.1a12,12,0,0,0,2.3-1.1l-1.1-1.4a10.77,10.77,0,0,1-2.4,1.8c-1,.6-.1,2,.9,1.6a10.78,10.78,0,0,1,2.9-.9l-.9-1.5c-.5.3-1,.5-1.4.8.2.6.3,1.2.5,1.7a16.89,16.89,0,0,1,3.9-.8c1.1-.1,1.2-1.9,0-1.8a34.35,34.35,0,0,0-4.4.9c-1.1.3-.6,2.1.5,1.7a5.9,5.9,0,0,0,2.2-1.2c.7-.6-.1-1.7-.9-1.5a13.52,13.52,0,0,0-3.4,1.1c.3.5.6,1,.9,1.6a10.91,10.91,0,0,0,2.7-2.1.9.9,0,0,0-1.1-1.4,6.63,6.63,0,0,1-1.9.9l1.1,1.1c.1-.3.1-.5.2-.8a.9.9,0,0,0-1.3-1,13.81,13.81,0,0,0-2.9,1.7c-.8.6-.4,1.9.7,1.6a5.88,5.88,0,0,0,3.2-1.9.91.91,0,0,0-.9-1.5,14.3,14.3,0,0,0-3.9,1.5c-.8.4-.4,1.7.5,1.7a4.39,4.39,0,0,0,4-2.3.87.87,0,0,0-1-1.3,14.62,14.62,0,0,0-3.6,1.6c-.9.5-.3,2,.7,1.6a4.37,4.37,0,0,0,3-2.9,1,1,0,0,0-.4-1c-1.4-1.1-6.4,1.4-5.1,3.5a.74.74,0,0,0,.8.4c1.6-.1,4.9-1.2,5.2-3a.86.86,0,0,0-.9-1.1q-3.45.45-6.9,1.2a.89.89,0,0,0,.5,1.7Z" transform="translate(-70.9 -25.78)"/><path class="cls-1" d="M98.8,37.9a2.2,2.2,0,0,0-.8.1c-1.1-.2-1.6,1.5-.5,1.7l1.4.3a11,11,0,0,0,.2-1.8,4.14,4.14,0,0,1-1.9-.5c-.2.6-.3,1.2-.5,1.7,1.2.4,2.4.7,3.6,1.1V38.8l-2.4-.3c-1-.5-1.7.6-1.1,1.4s.5.6,1.3,1.1c.2-.5.5-1.1.7-1.6-.6-.1-1.2-.3-1.8-.4-.8-.2-1.6.9-.9,1.5a5.6,5.6,0,0,0,1.5,1c.2-.6.3-1.1.5-1.7h-.6c-.9.1-1.3,1.6-.2,1.8a23.36,23.36,0,0,1,2.6.4,11,11,0,0,0,.2-1.8,4.1,4.1,0,0,1-1.1-.1c-1-.1-1.2,1.6-.2,1.8a12.85,12.85,0,0,0,4.8.3c1.6-.4,2.7-1.6,4.4-1.8-.2-.6-.3-1.2-.5-1.7l-2.3.6c.2.5.5,1.1.7,1.6a33.5,33.5,0,0,1,4.5-2.7L109.2,37c-.3.3-.7.5-1,.8.3.5.6,1,.9,1.6a5,5,0,0,1,1.3-.5l-1-1.3c-.2.2-.4.5-.6.7l1.1,1.4c.1,0,.2-.1.3-.1l-.9-1.5a10.63,10.63,0,0,1-5.1,2.2c.2.5.5,1.1.7,1.6,1.5-.8,3-1.5,4.5-2.2,1-.4.3-1.8-.7-1.6a19.15,19.15,0,0,1-7.9.6v1.7a8.13,8.13,0,0,1,3.8,0V38.7a12.46,12.46,0,0,1-4.3.2c-1.1-.1-1.1,1.5-.2,1.8s2,.7,3,1a11,11,0,0,0,.2-1.8c-.6,0-1.2.1-1.8.1a.92.92,0,0,0-.2,1.8l1,.3c1.1.3,1.5-1.3.5-1.7a6.36,6.36,0,0,0-1.8-.6,11,11,0,0,0-.2,1.8c1.5,0,3,0,4.5-.1a.92.92,0,0,0,.2-1.8c-.5-.1-.9-.3-1.4-.4a11,11,0,0,0-.2,1.8,7,7,0,0,0,2.5-.1c.7-.1.8-1.1.4-1.5a6.89,6.89,0,0,0-1.3-1.1c-.2.6-.3,1.1-.5,1.7.6-.1,1.1-.1,1.7-.2.8-.1,1.3-1.2.5-1.7a18.65,18.65,0,0,0-2-1c-.2.6-.3,1.2-.5,1.7a6.15,6.15,0,0,0,2.7,0c.9-.1.8-1.5,0-1.7a6.35,6.35,0,0,0-2.3-.5,1.23,1.23,0,0,0-.8.4.35.35,0,0,1-.1.2,1,1,0,0,0,0,.9c0,.1.1.1.1.2l1.2-1.2a6.7,6.7,0,0,0-1.8-.7.89.89,0,0,0-.5,1.7c.5.2.9.3,1.4.5.7.4,1.8-.4,1.2-1.2-.1.9.2,1.4,1,1.4V37.2H105a.89.89,0,0,0-.5,1.7,8,8,0,0,1,1.6.8c.2-.6.3-1.1.5-1.7-.6.1-1.1.1-1.7.2a.93.93,0,0,0-.5,1.7c.3.3.6.5.9.8.1-.5.3-1,.4-1.5a6.69,6.69,0,0,1-2,0c-1-.1-1.2,1.5-.2,1.8.5.1.9.3,1.4.4a11,11,0,0,0,.2-1.8c-1.5,0-3,0-4.5.1a.92.92,0,0,0-.2,1.8l1.8.6c.2-.6.3-1.2.5-1.7l-1-.3a11,11,0,0,0-.2,1.8c.6,0,1.2-.1,1.8-.1a.92.92,0,0,0,.2-1.8c-1-.3-2-.7-3-1a11,11,0,0,0-.2,1.8,15.49,15.49,0,0,0,4.8-.2c.9-.2.9-1.6,0-1.7a12.91,12.91,0,0,0-4.8,0c-.8.2-.9,1.6,0,1.7a24.37,24.37,0,0,0,8.9-.6c-.2-.5-.5-1.1-.7-1.6-1.5.7-3,1.4-4.5,2.2a.88.88,0,0,0,.7,1.6,13.25,13.25,0,0,0,5.9-2.7c.8-.6-.1-1.6-.9-1.5a2.22,2.22,0,0,0-1.1.5c-.8.6.3,2,1.1,1.4a3.53,3.53,0,0,0,1.3-1.4c.4-.7-.3-1.6-1-1.3a8.65,8.65,0,0,0-1.7.7.92.92,0,0,0,.9,1.6,4.39,4.39,0,0,0,1.6-1.4c.6-.8-.5-1.6-1.2-1.2a41.22,41.22,0,0,0-4.5,2.7.88.88,0,0,0,.7,1.6l2.3-.6c1.2-.3.6-1.9-.5-1.7a8.08,8.08,0,0,0-2.7,1.1,8,8,0,0,1-5.5.5,11,11,0,0,0-.2,1.8,4.1,4.1,0,0,1,1.1.1.91.91,0,0,0,.2-1.8,23.36,23.36,0,0,1-2.6-.4,11,11,0,0,0-.2,1.8h.6a.94.94,0,0,0,.5-1.7,6.73,6.73,0,0,1-1.1-.7l-.9,1.5c.6.1,1.2.3,1.8.4a.88.88,0,0,0,.7-1.6c-.3-.3-.6-.5-.9-.8l-1.1,1.4a4.61,4.61,0,0,0,3.8.4.89.89,0,0,0,0-1.7c-1.2-.4-2.4-.7-3.6-1.1S96,39.4,97,39.8a6.44,6.44,0,0,0,2.4.5c1,.1,1.2-1.5.2-1.8l-1.4-.3c-.2.6-.3,1.2-.5,1.7a2.79,2.79,0,0,0,1.8-.1c.8-.4.4-2.2-.7-1.9Z" transform="translate(-70.9 -25.78)"/><path class="cls-1" d="M96.9,30.6c.7-.2.9-.4,1.5.1a2.92,2.92,0,0,1,.7,1.2,15.05,15.05,0,0,0,1.1,2.2c.6.9,2.1,3.3,3.5,3.2l.9.9v.1c-.3.1-.7.3-1,.4a3,3,0,0,0,.7.5l.3-1.2c-.1-.1-.2-.1-.3-.2,0,.4-.1.7-.1,1.1-.1,0-.1.1-.2.1-.3-.1-.5-.3-.8-.4v-.2a6.94,6.94,0,0,1,1.3-.5,5.1,5.1,0,0,1-2.6-2.8c-.4-1.1-2.2-.6-1.7.5a7.06,7.06,0,0,0,3.5,3.9A.84.84,0,0,0,105,39c.3-1.4-1-2.1-2.1-1.2a.91.91,0,0,0-.1,1.1,2,2,0,0,0,2.8.8.86.86,0,0,0,.3-1.2,4.2,4.2,0,0,0-1.8-1.4.82.82,0,0,0-1,.4,2.61,2.61,0,0,0-.3.8.9.9,0,0,0,.9.9,1.54,1.54,0,0,0,1.6-1.8c-.2-1.7-2.2-2.3-3-3.4a10.85,10.85,0,0,1-1.5-2.8,7.71,7.71,0,0,0-.8-1.9c-.9-1-2.3-.8-3.5-.4s-.7,2.1.4,1.7Z" transform="translate(-70.9 -25.78)"/><path class="cls-1" d="M102.3,30.8a6.19,6.19,0,0,1-2.8-1.4l-.6,1.5a19.86,19.86,0,0,1,5.9,1.1V30.3a6.1,6.1,0,0,1-5.1-1.2c-.1.5-.1,1.1-.2,1.6a16.1,16.1,0,0,1,6.9.3V29.3a6.93,6.93,0,0,1-5.4-1c-.1.5-.1,1.1-.2,1.6a11.35,11.35,0,0,1,7,1.1c.1-.5.1-1.1.2-1.6a5.12,5.12,0,0,1-4.3-1c-.1.5-.1,1.1-.2,1.6a9,9,0,0,1,5.6.4c.2-.6.3-1.2.5-1.7a16.8,16.8,0,0,1-3.8-1.2c-.2.5-.5,1.1-.7,1.6a31.17,31.17,0,0,1,4.4.9,11,11,0,0,0,.2-1.8c-.4,0-.8-.1-1.1-.1-.9-.1-1.2,1.3-.5,1.7,1,.5,2.1,1.1,3.1,1.6.2-.5.5-1.1.7-1.6l-3.8-.9c-.9-.2-1.6,1.2-.7,1.6s2.1,1,3.1,1.5c.2-.6.3-1.1.5-1.7a11,11,0,0,1-5.1-.5c.1.5.1,1.1.2,1.6a4.78,4.78,0,0,1,4.9,0c.2-.6.3-1.1.5-1.7l-2.7-.9c-.2.6-.3,1.1-.5,1.7,1.1.3,2.2.5,3.2.8.3-.5.6-1,.9-1.6-.6-.3-1.2-.5-1.8-.8-.2.5-.5,1.1-.7,1.6a11.8,11.8,0,0,1,2,.4.88.88,0,0,0,.7-1.6,9.78,9.78,0,0,0-4.7-1.6c-1.1-.1-1.1,1.4-.2,1.8a13.36,13.36,0,0,1,1.8.7c.2-.6.3-1.2.5-1.7a43.6,43.6,0,0,0-8.1-.3,11,11,0,0,1,.2,1.8,23.08,23.08,0,0,1,6.4-.5,11,11,0,0,1-.2-1.8c-2.5.7-4.8-.1-7.3-.1-2.3,0-4.5.9-6.8,1.1.2.6.3,1.1.5,1.7a7.19,7.19,0,0,1,3.4-1.1c-.2-.6-.3-1.2-.5-1.7a12.6,12.6,0,0,1-4.3.8c.2.6.3,1.1.5,1.7a8,8,0,0,1,4-.8,11,11,0,0,1-.2-1.8c-.3.1-.5.1-.8.2.2.6.3,1.2.5,1.7,1.6-.5,4.6.7,6.3.8,1.1.1,1.1-1.4.2-1.8a16.81,16.81,0,0,0-6.3-1.2c.2.6.3,1.1.5,1.7,2.2-1,4.2-.3,6.2.5,1.1.4,1.5-1.3.5-1.7-.4-.2-.9-.3-1.3-.5a11,11,0,0,0-.2,1.8c1.3.1,2.6.3,3.8.4,1,.1,1.2-1.6.2-1.8a26.35,26.35,0,0,1-3-.7c-.2.6-.3,1.2-.5,1.7.4.1.9.3,1.3.4a.89.89,0,0,0,.5-1.7c-.4-.1-.9-.3-1.3-.4a.89.89,0,0,0-.5,1.7,16.28,16.28,0,0,0,3,.7,11,11,0,0,0,.2-1.8c-1.3-.1-2.6-.3-3.8-.4s-1.1,1.4-.2,1.8c.4.2.9.3,1.3.5.2-.6.3-1.2.5-1.7-2.7-1-5-1.5-7.6-.3-.9.4-.4,1.7.5,1.7a16.24,16.24,0,0,1,5.8,1.2,11,11,0,0,0,.2-1.8c-2.2-.1-4.6-1.4-6.8-.7a.89.89,0,1,0,.5,1.7c.3-.1.5-.1.8-.2a.92.92,0,0,0-.2-1.8,11.94,11.94,0,0,0-4.9,1c-.8.4-.4,1.7.5,1.7a13.19,13.19,0,0,0,4.8-.9.89.89,0,1,0-.5-1.7,10.58,10.58,0,0,0-3.9,1.3c-.8.4-.4,1.7.5,1.7,2.7-.2,5.2-1.2,7.9-1,2.4.1,4.3.6,6.6,0a.93.93,0,0,0-.2-1.8,23,23,0,0,0-6.9.5.92.92,0,0,0,.2,1.8,38.69,38.69,0,0,1,7.6.3.89.89,0,0,0,.5-1.7,13.36,13.36,0,0,1-1.8-.7,11,11,0,0,0-.2,1.8,5.66,5.66,0,0,1,3.8,1.3c.2-.5.5-1.1.7-1.6a11.8,11.8,0,0,1-2-.4c-.9-.2-1.7,1.2-.7,1.6.6.3,1.2.5,1.8.8,1,.5,2-1.1.9-1.6a9.9,9.9,0,0,0-4.1-1,.94.94,0,0,0-.5,1.7,9,9,0,0,0,3.6,1.2.92.92,0,0,0,.5-1.7,7.42,7.42,0,0,0-6.8,0,.88.88,0,0,0,.2,1.6,11.4,11.4,0,0,0,5.5.5c.8-.1,1.4-1.3.5-1.7s-2.1-1-3.1-1.5c-.2.5-.5,1.1-.7,1.6l3.8.9c1,.2,1.6-1.2.7-1.6s-2.1-1.1-3.1-1.6c-.2.6-.3,1.1-.5,1.7.4,0,.8.1,1.1.1,1,.1,1.2-1.5.2-1.8l-4.4-.9c-.9-.2-1.7,1.2-.7,1.6a16,16,0,0,0,4.2,1.4.89.89,0,0,0,.5-1.7,11.42,11.42,0,0,0-6.6-.4.88.88,0,0,0-.2,1.6,7.13,7.13,0,0,0,5.7,1.1.88.88,0,0,0,.2-1.6,14.28,14.28,0,0,0-8.4-1.3c-.8.1-.8,1.3-.2,1.6a8.88,8.88,0,0,0,6.7,1.2.89.89,0,0,0,0-1.7,17.6,17.6,0,0,0-7.9-.3.88.88,0,0,0-.2,1.6,7.61,7.61,0,0,0,6.5,1.4.89.89,0,0,0,0-1.7,19.56,19.56,0,0,0-6.4-1.1.86.86,0,0,0-.6,1.5,7,7,0,0,0,3.6,1.9.9.9,0,1,0,.6-1.7Z" transform="translate(-70.9 -25.78)"/><path class="cls-1" d="M104.2,30.3c-2-1-2.4-1.1-1.1-.4.3-.6.8-.6,1.2,0,.2-.6.3-1.1.5-1.7v.5a8.6,8.6,0,0,1,1.6.1,10.55,10.55,0,0,1,2.4.6c.2-.6.3-1.2.5-1.7-1.8-.6-3.6-1.2-5.5-1.8-.2.6-.3,1.2-.5,1.7,2.7.4,7.5.8,9.3,3.1.7.9,2-.4,1.3-1.3-2.1-2.6-7-3.1-10.1-3.6-1.1-.2-1.6,1.4-.5,1.7,1.8.6,3.6,1.2,5.5,1.8,1.1.4,1.6-1.3.5-1.7-1.5-.6-5.5-1.8-6.8,0-1.1,1.6,1.2,2.3,2.3,2.3a.94.94,0,0,0,.5-1.7c-.9-.5-2-1-2.9-.3a1.53,1.53,0,0,0-.3,2.3c.8,1.1,3.3,1.7,3.5-.1s-3.5-3-4.7-1.8c-1.7,1.8,2.1,3.7,3.5,3.7.9.1.9-1.7-.2-1.7Z" transform="translate(-70.9 -25.78)"/><path class="cls-1" d="M111.4,36.9a7.48,7.48,0,0,1,5.1.9c1,.6,1.9-1,.9-1.6a9.29,9.29,0,0,0-6.5-1.1c-1.1.3-.6,2,.5,1.8Z" transform="translate(-70.9 -25.78)"/><path class="cls-1" d="M122.1,38.8a2.76,2.76,0,0,1-1.3-1.1c-.6-1-2.2-.1-1.6.9a5,5,0,0,0,2.4,1.9.86.86,0,0,0,1.1-.6,1,1,0,0,0-.6-1.1Z" transform="translate(-70.9 -25.78)"/><path class="cls-1" d="M73.2,54.4a1.82,1.82,0,0,0,.6-1.4c-.1-1.1-1.8-1.2-1.8,0a1.13,1.13,0,0,1-.3,1.1c.5.1,1.1.1,1.6.2a3.79,3.79,0,0,1,0-1.5H71.5a8.92,8.92,0,0,1-.3,2.2c.6.2,1.2.3,1.7.5,0-.2.1-.4.1-.6a11,11,0,0,0-1.8-.2v1.4H73v-.6H71.2v.8a.91.91,0,0,0,1.8.2,56,56,0,0,0,1.2-5.9,11,11,0,0,0-1.8-.2,7.89,7.89,0,0,1-.6,3.4c.5.1,1.1.1,1.6.2a3.74,3.74,0,0,1,.6-2.5c-.6-.2-1.1-.3-1.7-.5a17.74,17.74,0,0,1-.9,5.6h1.7a.75.75,0,0,1,0-.9c.4-1.1-1.4-1.6-1.7-.5a2.78,2.78,0,0,0,0,1.8.89.89,0,0,0,1.7,0,21,21,0,0,0,.9-6.1.94.94,0,0,0-1.7-.5,5.37,5.37,0,0,0-.8,3.9c.1.7,1.4.9,1.6.2a9.16,9.16,0,0,0,.8-4.3c0-1-1.6-1.3-1.8-.2-.4,2-.8,3.9-1.2,5.9a11,11,0,0,0,1.8.2v-.8a.9.9,0,0,0-1.8,0v.6a.9.9,0,0,0,1.8,0,3,3,0,0,0,.5-1.5c-.1-.9-1.7-1.2-1.9-.2,0,.2-.1.4-.1.6-.2,1.1,1.5,1.6,1.7.5a11.53,11.53,0,0,0,.3-2.6c0-1.2-1.7-1.1-1.8,0a13.4,13.4,0,0,0,.1,2c.1.8,1.3.8,1.6.2a3.32,3.32,0,0,0,.5-2H71.8V53c-.8.9.5,2.1,1.4,1.4Z" transform="translate(-70.9 -25.78)"/><path class="cls-1" d="M125.3,48.6c.4.7.7,1.5,1.1,2.2l1-1.3c.1.1.2.2.3.2-.3.5-.5.9-.8,1.4h.2c-.3-.1-.5-.3-.8-.4a4.42,4.42,0,0,1,.5,1.5.93.93,0,0,0,1.8-.2,12.21,12.21,0,0,0-.5-5c-.3-.9-1.8-.8-1.8.2a37.76,37.76,0,0,0,.6,4.7c.5-.2,1.1-.5,1.6-.7-.7-1.7-.5-3.6-1.2-5.3a12.48,12.48,0,0,0-2.3-3.8c-.7-.9-2,.4-1.3,1.3a10.73,10.73,0,0,1,2.3,4.8,17.87,17.87,0,0,0,.9,4c.4,1,1.8.2,1.6-.7a30.06,30.06,0,0,1-.5-4.2,11,11,0,0,1-1.8.2,11.57,11.57,0,0,1,.5,4.5,11,11,0,0,1,1.8-.2,6.19,6.19,0,0,0-.7-1.9c-.2-.2-.4-.5-.8-.4h-.2a1,1,0,0,0-.8,1.4,1,1,0,0,0,.8.6.88.88,0,0,0,1-1.3c-.4-.7-.7-1.5-1.1-2.2a.78.78,0,1,0-1.4.6Z" transform="translate(-70.9 -25.78)"/><path d="M72.3,57.2c-.1-7,2.7-16,7.4-21.2,5.3-5.9,13.1-8.4,20.9-8.7,8.3-.3,14.4,1.9,19.7,8.2,2.5,2.9,5.6,6.2,6.5,10s.7,8.3,1,12.3c.1.8,1.3.8,1.2,0-.3-4.3,0-9.2-1.2-13.3-1-3.5-3.8-6.4-6-9.2-5.9-7-11.9-9.6-21.1-9.3-17.2.6-29.8,13.6-29.5,31.1a.55.55,0,1,0,1.1.1Z" transform="translate(-70.9 -25.78)"/><path d="M72.7,58c3-5.3,6.2-11.9,10.6-16.1,4.6-4.4,11.4.3,16.9.6a17.37,17.37,0,0,0,6.8-.7c2.8-1.1,3.3-2.2,6.5-2.1,7,.3,12.3,9.8,14.5,15.7.3.7,1.4.4,1.2-.3-2.2-5.9-5.8-11.6-11-15.3-6.5-4.6-9.9,1.7-17,1.6a18.79,18.79,0,0,1-7.8-1.6,29.54,29.54,0,0,0-3.7-1.6,6.65,6.65,0,0,0-4.9,1.1c-2.3,1.5-4,4.2-5.5,6.4-2.7,3.8-5.1,7.8-7.4,11.8-.6.6.4,1.2.8.5Z" transform="translate(-70.9 -25.78)"/><path class="cls-2" d="M93.2,36a16.17,16.17,0,0,0,9,3,.6.6,0,1,0,0-1.2,14.94,14.94,0,0,1-8.4-2.9c-.6-.4-1.2.7-.6,1.1Z" transform="translate(-70.9 -25.78)"/><path class="cls-2" d="M74.6,52c2.4-6.4,4.7-13.2,10.8-16.9a.58.58,0,1,0-.6-1,16.18,16.18,0,0,0-6.7,7c-1.7,3.4-3.2,7-4.6,10.6-.3.7.8,1,1.1.3Z" transform="translate(-70.9 -25.78)"/><path class="cls-2" d="M111.8,31.4a45.71,45.71,0,0,1,7.6,6.2c2.1,2.2,3.3,5.1,5.6,7,.6.5,1.4-.3.8-.8-2.5-2.1-3.9-5.3-6.2-7.7a51.66,51.66,0,0,0-7.3-5.8c-.6-.3-1.2.7-.5,1.1Z" transform="translate(-70.9 -25.78)"/><path class="cls-2" d="M97.7,31.8a27.79,27.79,0,0,0,7.9,2.9.62.62,0,0,0,.3-1.2,25.54,25.54,0,0,1-7.6-2.7c-.6-.4-1.2.6-.6,1Z" transform="translate(-70.9 -25.78)"/></svg>