<?xml version="1.0" encoding="utf-8"?>
<!-- Generator: Adobe Illustrator 21.0.2, SVG Export Plug-In . SVG Version: 6.00 Build 0)  -->
<svg version="1.1" id="Layer_1" xmlns="http://www.w3.org/2000/svg" xmlns:xlink="http://www.w3.org/1999/xlink" x="0px" y="0px"
	 viewBox="0 0 200 600" style="enable-background:new 0 0 200 600;" xml:space="preserve">
<style type="text/css">
	.st0{fill:#EF7A22;}
	.st1{fill:#130F11;}
	.st2{fill:#231F20;}
</style>
<g>
	<g>
		<g>
			<path class="st0" d="M143,80.3c0.4-0.8,0.5-1.5,0.3-2.3c-0.1-0.6-1-0.6-1.1,0c-0.1,0.6-0.2,1.2-0.3,1.8c0.4,0,0.8,0,1.1,0
				c-0.1-0.5-0.1-0.9-0.2-1.4c-0.1-0.7-1.2-0.5-1.2,0.2c0.1,1,0.1,2.1,0.2,3.1c0,0.8,1.2,0.8,1.2,0c0-1-0.1-2.1-0.2-3.1
				c-0.4,0.1-0.8,0.1-1.2,0.2c0.1,0.5,0.1,0.9,0.2,1.4c0.1,0.6,1,0.6,1.1,0c0.1-0.6,0.2-1.2,0.3-1.8c-0.4,0-0.8,0-1.1,0
				c0.1,0.5,0,1-0.2,1.4C141.7,80.4,142.7,81,143,80.3L143,80.3z"/>
		</g>
	</g>
	<g>
		<g>
			<path class="st1" d="M72.6,51c-1.3,0.8-2.1,1.9-2.8,3.2c-0.3,0.6-0.8,1.1-1.2,1.6c-0.3,0.4-0.4,1-0.5,1.5c-0.3,1-0.1,2.1,1.1,2.2
				c1.2,0.1,2.6-1.1,3.6-1.8c1.2-0.9,0.2-2.8-1.2-2.1c-0.8,0.5-0.6,0.2-0.5-0.2c0-0.4,0-0.8,0-1.2c0-1.2,0.7-1.9,1.5-2.7
				c1.1-1.1-0.6-2.8-1.7-1.7c-0.8,0.8-1.6,1.7-2,2.8c-0.2,0.6-0.2,1.1-0.2,1.6c0,0.6-0.2,1.2-0.2,1.8c0,2.2,2.8,2.5,4.3,1.7
				c-0.4-0.7-0.8-1.4-1.2-2.1c-0.5,0.3-1.8,1.5-2.4,1.5c0.3,0.2,0.7,0.4,1,0.6c0-0.1-0.1-0.2-0.1-0.3c0,0.3,0.1,0.6,0.1,0.9
				c0.1-0.4,0.3-0.8,0.4-1.2c0.1-0.3,0.5-0.6,0.7-1c0.8-1.2,1.1-2.5,2.4-3.2C75.1,52.3,73.9,50.2,72.6,51L72.6,51z"/>
		</g>
	</g>
	<g>
		<g>
			<path class="st0" d="M125.9,42.1c3.8,0,3.8-6,0-6C122,36.1,122,42.1,125.9,42.1L125.9,42.1z"/>
		</g>
	</g>
	<g>
		<g>
			<path class="st1" d="M124.9,41.2c0,1,0.1,2,0.4,3c0.4,1.4,2.2,1,2.3-0.3c0.1-0.7,0.2-1.4,0.3-2.1c-0.8,0-1.6,0-2.4,0
				c0,1.1,0,2.2,0.1,3.2c0.1,0.9,0.4,1.7,0.5,2.6c0.2-0.3,0.4-0.7,0.6-1c-0.1-0.1-0.1-0.3-0.2-0.4c-0.6,0.6-1.1,1.1-1.7,1.7
				c1,0.9,2,1.8,3.2,2.5c0.9,0.6,1.9-0.4,1.7-1.3c-0.3-1.4-0.5-2.7-0.8-4.1c-0.3-1.5-2.6-0.9-2.3,0.6c0.3,1.4,0.5,2.7,0.8,4.1
				c0.6-0.4,1.2-0.9,1.7-1.3c-1-0.6-1.8-1.4-2.7-2.2c-1.1-1.1-2.8,0.6-1.7,1.7c0.7,0.7,2.1,1.5,3.1,0.8c0.3-0.2,0.6-0.6,0.6-1
				c-0.1-0.9-0.4-1.7-0.5-2.6c-0.1-1.1-0.1-2.2-0.1-3.2c0-1.6-2.2-1.5-2.4,0c-0.1,0.7-0.2,1.4-0.3,2.1c0.8-0.1,1.6-0.2,2.3-0.3
				c-0.2-0.8-0.3-1.6-0.3-2.4C127.3,39.7,124.9,39.7,124.9,41.2L124.9,41.2z"/>
		</g>
	</g>
	<g>
		<g>
			<path class="st1" d="M138.5,62.3c0.4,2.9,2.1,5.3,2.7,8.1c0.3,1.3,2.4,1,2.3-0.3c-0.1-1.6-0.3-3.3-0.4-4.9
				c-0.8,0.1-1.6,0.2-2.3,0.3c0,0.4,0.1,0.9,0.1,1.3c0.8-0.1,1.6-0.2,2.3-0.3c-0.2-1-0.4-2.1-0.5-3.1c-0.3-1.5-2.6-0.9-2.3,0.6
				c0.1,0.8,0.3,1.5,0.4,2.3c0.2,1.2,2,1,2.3,0c0.3-0.7,0.4-1.3,0.5-2c-0.8,0-1.5,0-2.3,0c0.1,0.3,0.1,0.7,0.2,1
				c0.1,1.1,1.6,1.7,2.2,0.6c0.3-0.6,0.4-0.9,0.2-1.6c-0.5-1.2-2.3-1.1-2.3,0.3c-0.1,2.2-0.2,4.3-0.3,6.5c-0.1,1.7,0.6,4,0.3,5.6
				c0.8,0.1,1.6,0.2,2.3,0.3c0.1-2.7,0.1-5.4-0.1-8c-0.1-1.5-2.5-1.5-2.4,0c0.1,2.7,0.1,5.4,0.1,8c0,1.3,2.1,1.7,2.3,0.3
				c0.4-1.9-0.2-3.3-0.2-5.2c0-2.5,0.2-5.1,0.4-7.6c-0.8,0.1-1.6,0.2-2.3,0.3c0-0.1,0-0.2,0.1-0.3c0.7,0.2,1.5,0.4,2.2,0.6
				c-0.1-0.6-0.1-1-0.3-1.6c-0.3-1.1-2-1.2-2.3,0c-0.1,0.7-0.3,1.4-0.5,2c0.8,0,1.5,0,2.3,0c-0.1-0.8-0.3-1.5-0.4-2.3
				c-0.8,0.2-1.5,0.4-2.3,0.6c0.2,1,0.4,2.1,0.5,3.1c0.2,1.4,2.3,1,2.3-0.3c0-0.9,0-1.1-0.2-2c-0.3-1.3-2.4-1-2.3,0.3
				c0.1,1.6,0.3,3.3,0.4,4.9c0.8-0.1,1.6-0.2,2.3-0.3c-0.7-2.8-2.3-5.3-2.7-8.1C140.6,60.2,138.3,60.8,138.5,62.3L138.5,62.3z"/>
		</g>
	</g>
	<g>
		<g>
			<path class="st1" d="M123.6,41.4c0.1-0.3,0.1-0.7,0.2-1c-0.9-0.5-1.7-1-2.6-1.5c0.8-0.6,1.7-1.2,2.5-1.8c0.5,0.9,1,1.7,1.5,2.6
				c-0.2,0.1-0.5,0.3-0.7,0.4c-0.7-1-1.5-1.9-2.2-2.9c0.4,0.3,0.9,0.5,1.3,0.7c-0.7-1-1.5-1.9-2.2-2.9c0,0.2,0,0.4-0.1,0.7
				c0.5-0.9,1-1.7,1.5-2.6c-0.3,0-0.6,0-0.9,0c0.5,0.9,1,1.7,1.5,2.6c-0.4,0.2-0.8,0.4-1.1,0.6c-0.7-1-1.5-1.9-2.2-2.9
				c0.5-0.1,1.1-0.1,1.6-0.2c0.7-2-1.1-3.6-2.9-3.8c-0.6-0.1-1.2-0.1-1.9-0.2c0,2,0,4,0,6c3.9-0.5,8.5-1.6,12.4-0.8
				c2.3,0.5,4.1,1.4,5.1,3.8c1.3,0.8,1.1,0.7-0.6-0.4c-1.1-0.4-1.9-1.1-2.3-2.2c-1,1.3-1.9,2.5-2.9,3.8c1,0.4,2,0.8,3.1,1.2
				c1.2-1.6,2.4-3.1,3.6-4.7c-0.3-0.2-0.7-0.5-1-0.7c-2.4-1.7-4.7,1.1-4.4,3.4c0.6,3.7,2.6,6.4,5,9.2c2.1,2.6,6.5-0.8,4.7-3.6
				c-1.2-1.9-2.8-2.9-4.3-4.5c-2.6-2.9-6.7,1.3-4.2,4.2c1.5,1.7,2.6,3.1,3.2,5.4c1,3.8,6.4,2.1,5.7-1.6c-0.5-2.6-1.7-4.1-3.9-5.6
				c-2.9-1.9-5.9,2.3-3.6,4.7c1.3,1.3,4.4,3.7,4.6,5.6c0.5,3.7,6.4,3.8,6,0c-0.5-4.4-1.5-8.7-2.5-13.1c-0.8-3.4-5.6-2.4-5.8,0.8
				c-0.3,3.2-0.3,7,0.1,10.3c0.3,2.5,1.8,4.8,2.4,7.3c0.7,2.8,5.1,2.8,5.7,0c0.3-1.2,0.4-2,0.4-3.3c-2,0-4,0-6,0
				c0.2,2.4,0.6,4.9,0.8,7.3c0.3,3.8,6.2,3.8,6,0c-0.2-2.4-0.5-4.8-0.8-7.3c-0.4-3.7-5.9-3.9-6,0c-0.1,0.6-0.1,1.2-0.2,1.7
				c1.9,0,3.8,0,5.7,0c-0.5-2.4-2-4.7-2.2-7.1c-0.3-2.8-0.2-6.1,0-8.9c-1.9,0.3-3.9,0.5-5.8,0.8c0.9,3.8,1.9,7.6,2.3,11.5
				c2,0,4,0,6,0c-0.5-4.3-3.5-6.8-6.4-9.8c-1.2,1.6-2.4,3.1-3.6,4.7c0.4,0.7,0.8,1.3,1.1,2c1.9-0.5,3.8-1.1,5.7-1.6
				c-0.9-3.2-2.6-5.5-4.7-8c-1.4,1.4-2.8,2.8-4.2,4.2c0.9,1,2.7,2.3,3.3,3.3c1.6-1.2,3.1-2.4,4.7-3.6c-1.7-2.1-3-3.9-3.4-6.6
				c-1.5,1.1-2.9,2.2-4.4,3.4c0.3,0.2,0.7,0.5,1,0.7c2.8,2,6.1-2.4,3.6-4.7c-2.2-2-4.2-3.3-7.3-2.9c-1.9,0.2-3.5,1.7-2.9,3.8
				c2,6.8,15.3,11.7,14.7,1.2c-0.8-11.9-15.6-10-23.6-9.1c-3.8,0.4-3.9,5.6,0,6c0.6,0.1,1.2,0.1,1.9,0.2c-1-1.3-1.9-2.5-2.9-3.8
				c-2,6.1,9.6,8.7,10.1,1.8c0.1-1.3-1-2.5-2.2-2.9c-3.7-1.1-8.3,3.4-5.8,6.9c2.6,3.7,8.9,1.8,9.2-2.4c0.1-1.3-1-2.6-2.2-2.9
				c-4.2-1.1-8.9,2.5-6.2,6.9c2.4,3.9,9.6,3.4,9.3-1.8c-0.1-1.2-0.9-2.7-2.2-2.9c-3.8-0.6-9.7,4-5.6,7.7c3.7,3.4,8.2-2.5,6-6.1
				c-0.5-0.8-1.5-1.6-2.6-1.5c-2.5,0.2-4.3,1.6-5.3,4C117,41.8,122.1,44.9,123.6,41.4L123.6,41.4z"/>
		</g>
	</g>
	<g>
		<g>
			<path class="st1" d="M87.2,41.1c0.8-0.3,1.5-0.7,2.3-1c-1-1.7-1.9-3.3-2.9-5c-2.7,2.1-6.5,1.6-9.5,3.2c-2.5,1.3-4.5,3-5.9,5.5
				c1.7,1,3.4,2,5.1,3c3-5.5,7.3-9.5,13-12.2c3.2-1.5,0.9-6.1-2.3-5.4c-2,0.4-3.5,1.2-5.3,2.2c-3.3,2-0.3,7.1,3,5.1
				c4.2-2.5,9.6-4.6,14.6-3.9c1.3,0.6,1.8,0.6,1.7,0c-1.1,0.5-2.2,0.9-3.4,1.2c-2.4,0.6-4.8,0.8-7.2,0.7c0.7,1.7,1.4,3.4,2.1,5.1
				c1.1-0.4,2.2-0.8,3.3-1.2c-0.3-1.9-0.5-3.9-0.8-5.8c-2.4,1-4.6,1.6-7.3,1.8c0.5,1.8,1,3.7,1.5,5.5c1.2-0.8,2.5-1.5,3.9-2
				c0.7-0.2,2.4-0.2,1.8-1c-0.2-1.2-0.3-2.4-0.5-3.6c0.1-0.1-4.8,0.6-4.2,0.6c0.7,1.7,1.4,3.4,2.1,5.1c1.4-1.2,3-2,4.8-2.3
				c-0.7-0.7-1.4-1.4-2.1-2.1c0,0.2,0.1,0.4,0.1,0.5c0.3-1,0.5-1.9,0.8-2.9c-1.2,1.1-2.5,1.6-4.1,1.5c0.7,1.7,1.4,3.4,2.1,5.1
				c1.9-1.5,3.8-2.4,6.1-3.1c-0.8-1.8-1.5-3.6-2.3-5.4c-6.2,4-12.8,7.4-19,11.3c-3.1,2-10.3,6.3-6.9,11c3.2,4.4,9-0.6,11.9-2.6
				c6.3-4.3,13.1-7.9,19.7-11.7c2.5-1.4,1.5-5.6-1.5-5.5c-7.8,0.2-15.3,5.8-20.6,11.1c-1.2,1.2-1.2,3.9,0.6,4.7c2.2,1,4,1.2,6.1-0.3
				c2.1-1.5,1.9-4.6-0.7-5.4C79.6,40,78.1,49,71.9,51c1,0.3,1.9,0.5,2.9,0.8c0.4,1.1,0.5,0.9,0.5-0.4c0.1-1.3,0.5-2.5,1.3-3.6
				c0.9-1,2.5-1.7,3.7-2.3c3.2-1.6,6.6-3.2,10-4.4c3.3-1.2,6.9-2.4,10.4-2.5c3.4-0.1,5.4,2,8.4,2.8c1,0.3,2.2,0,2.9-0.8
				c1.5-1.8,2-3.8,0.7-5.9c-1.3-2.3-3.5-5.2-5.8-6.7c-0.8,1.8-1.5,3.6-2.3,5.4c1.8,0.7,3.4,1.5,5.1,2.4c3.4,1.8,6.1-3,3-5.1
				c-1-0.7-2-1.4-3-2.1c-1,1.7-2,3.4-3,5.1c1.1,0.5,2.1,1.1,3.2,1.6c2.4,1.2,6-1.5,4.1-4.1c-0.2-0.3-0.5-0.6-0.7-0.9
				c-1.7-2.3-5.4-1.7-5.5,1.5c-0.1,3,1.1,5.1,3.8,6.5c2.2,1.2,5.2-0.8,4.4-3.4c-0.3-1.2-0.7-2.4-1.3-3.6c-1.5,1.1-2.9,2.2-4.4,3.4
				c0.3,0.1,5,2.9,4.9,2.9c1.2-1.7,0.8-2.6-1.2-2.6c-0.7-0.1-1.4-0.2-2.2-0.3c-2.1,0-3.6,0.8-4.5,2.7c-0.6,1.3-0.5,2.6,0.5,3.6
				c1.3,1.4,2.8,1.1,4.1,2.1c1-1.7,2-3.4,3-5.1c-0.2-0.1-0.4-0.2-0.6-0.3c-1,1.7-2,3.4-3,5.1c2.6,1.1,5.1,2.1,7.8,2.8
				c3.7,1,5.3-4.7,1.6-5.7c-0.6-0.2-1.2-0.3-1.8-0.5c-0.5,1.9-1.1,3.8-1.6,5.7c1.4,0.2,2.8,0.6,4.1,1.3c0-1.7,0-3.4,0-5.1
				c0.5-0.3,3.9,0.3,1.4-0.7c-0.5-0.2-1-0.2-1.5-0.3c-1.1-0.1-2,0.6-2.6,1.5c-0.1,0.1-0.1,0.2-0.2,0.3c-1.1,1.8,0.3,4.6,2.6,4.5
				c0.7,0.2,1.3,0.4,2,0.6c0.7-1.7,1.4-3.4,2.1-5.1c-0.1,0-0.2,0-0.3,0c1,0.7,1.9,1.5,2.9,2.2c0-0.1-0.1-0.2-0.1-0.2
				c-1.4-3.5-7.1-2-5.7,1.6c0,0.1,0.1,0.2,0.1,0.2c0.4,1.2,1.5,2.3,2.9,2.2c0.1,0,0.2,0,0.3,0c2.4-0.2,4.1-3.2,2.1-5.1
				c-1.8-1.7-3.6-2.5-6.2-2.3c0.9,1.5,1.7,3,2.6,4.5c0.1-0.1,0.1-0.2,0.2-0.3c-0.9,0.5-1.7,1-2.6,1.5c-2.7-0.2-0.1,0.6,0.5,0.7
				c1,0.1,1.7,0.1,2.6-0.5c1.7-1.2,2.2-4.1,0-5.1c-1.8-0.9-3.5-1.5-5.5-1.9c-3.7-0.7-5.3,4.7-1.6,5.7c0.6,0.2,1.2,0.3,1.8,0.5
				c0.5-1.9,1.1-3.8,1.6-5.7c-2.2-0.6-4.2-1.3-6.4-2.2c-3.4-1.5-6.5,3.3-3,5.1c0.2,0.1,0.4,0.2,0.6,0.3c3.5,1.8,6-2.9,3-5.1
				c-0.7-0.5-2.5-0.7-2.9-1.1c0.2,1.2,0.3,2.4,0.5,3.6c-0.1,0.3,8,2.7,9-1.9c1.1-4.5-5.2-7.6-8.2-8.9c-2.1-0.9-5.5,0.6-4.4,3.4
				c0.5,1.2,0.9,2.4,1.3,3.6c1.5-1.1,2.9-2.2,4.4-3.4c-0.3-0.5-0.5-0.9-0.8-1.4c-1.8,0.5-3.7,1-5.5,1.5c0.2,0.3,0.5,0.6,0.7,0.9
				c1.4-1.4,2.7-2.7,4.1-4.1c-1.1-0.5-2.1-1.1-3.2-1.6c-3.5-1.8-6.1,2.9-3,5.1c1,0.7,2,1.4,3,2.1c1-1.7,2-3.4,3-5.1
				c-2.1-1.1-4.3-2.1-6.5-3c-3.3-1.4-4.9,3.7-2.3,5.4c1.4,0.9,2.2,5.2,3.8,3.3c1-0.3,1.9-0.5,2.9-0.8c-2.2-0.6-3.4-2.5-5.7-3
				c-2.2-0.4-4.6-0.1-6.8,0.2c-5.9,0.8-11.4,3-16.8,5.5c-3.9,1.8-8.4,3.5-10.6,7.5c-1.6,2.9-2.6,7.5-0.2,10.2
				c0.7,0.8,1.9,1.1,2.9,0.8c1.9-0.6,3.5-1.8,5-3c1.8-1.4,4.8-6.2,7.5-5.3c-0.2-1.8-0.5-3.6-0.7-5.4c0,0.1,0,0.2-0.1,0.3
				c0.2,1.6,0.4,3.1,0.6,4.7c4-4,10.5-9.2,16.4-9.4c-0.5-1.8-1-3.7-1.5-5.5c-4.5,2.6-9,5.1-13.4,7.8c-1.2,0.7-10.9,7.8-11.4,7.4
				c0.5,0.9,1,1.7,1.5,2.6c-0.2-2.7,9.7-7.1,11.7-8.2c4-2.3,8-4.6,11.9-7.1c2.8-1.8,1.1-6.4-2.3-5.4c-3.3,1-6,2.4-8.7,4.6
				c-2,1.6-0.3,5.2,2.1,5.1c3.9-0.2,9.8-1.7,9-6.7c-0.2-0.9-1.2-1.9-2.1-2.1c-3.9-0.8-7.7,1.4-10.6,3.8c-1.9,1.6-0.4,5.3,2.1,5.1
				c3-0.3,7.7-0.6,9.3-3.5c0.7-1.3,0.4-2.5-0.5-3.6c-2.9-3.7-10,0.1-13,2c-2.3,1.5-1.6,5.8,1.5,5.5c3.1-0.2,5.9-0.8,8.8-2
				c2.9-1.2,2.9-6-0.8-5.8c-3.1,0.1-5.1,1-7.5,2.9c-2.1,1.7-0.2,5,2.1,5.1c4.9,0.2,21.8-2.2,16.7-11.1c-1.8-3.1-7.3-2.8-10.2-2.6
				c-5.4,0.3-10.5,2-15.1,4.7c1,1.7,2,3.4,3,5.1c1.1-0.8,2.4-1.4,3.8-1.6c-0.8-1.8-1.5-3.6-2.3-5.4c-6.6,3.1-11.7,7.9-15.1,14.3
				c-1.8,3.4,3.3,6.4,5.1,3c1.6-3,4.6-3.7,7.7-4.2c2.7-0.4,4.7-1.6,6.8-3.2c2.5-2-0.3-5.6-2.9-5c-2,0.5-3.4,1.3-4.9,2.6
				C80.1,39.3,84.3,43.5,87.2,41.1L87.2,41.1z"/>
		</g>
	</g>
	<g>
		<g>
			<g>
				<g>
					<path d="M68.8,59.7C68.3,48.6,73.8,37,83.3,31c9.8-6.2,20.6-4.4,30.8-0.5c0.7,0.3,1-0.9,0.3-1.1c-11.1-4.2-22.7-5.7-33,1.5
						c-9.1,6.4-14.3,17.9-13.8,28.9C67.7,60.5,68.8,60.5,68.8,59.7L68.8,59.7z"/>
				</g>
			</g>
			<g>
				<g>
					<path d="M69,60.5c12.4-6.7,23.2-16,35.9-22.1c0.7-0.3,0.1-1.4-0.6-1c-12.7,6.1-23.6,15.3-35.9,22.1
						C67.7,59.8,68.3,60.8,69,60.5L69,60.5z"/>
				</g>
			</g>
			<g>
				<g>
					<path d="M104.2,38.1c1.2,3.1,3.8,4.2,6.8,5.4c2.9,1.2,5.8,2.3,8.6,3.4c2.3,0.9,9.2,2.9,10.2,5.6c0.3,0.7,1.4,0.4,1.1-0.3
						c-0.8-2.2-4.9-3.9-6.7-4.8c-4.8-2.1-16.9-4.4-18.9-9.8C105.1,37.1,103.9,37.4,104.2,38.1L104.2,38.1z"/>
				</g>
			</g>
			<g>
				<g>
					<path d="M115.2,30.7c4.5-1.4,9.3-2.4,14-1.9c6.5,0.6,9.9,4.2,11.4,10.3c0.2,0.7,1.3,0.4,1.1-0.3c-1.2-4.7-3-8.5-7.9-10.2
						c-6-2.2-13.1-0.9-19,1C114.1,29.8,114.4,30.9,115.2,30.7L115.2,30.7z"/>
				</g>
			</g>
			<g>
				<g>
					<path d="M126.6,40.5c6,4.8,8.5,12,10.7,19.1c2.3,7.4,4.4,16.1,3.9,23.9c0,0.8,1.1,0.8,1.2,0c0.5-8.5-1.9-17.8-4.5-25.8
						c-2.2-6.8-4.9-13.4-10.5-18C126.8,39.2,126,40,126.6,40.5L126.6,40.5z"/>
				</g>
			</g>
			<g>
				<g>
					<path d="M142.8,85.1c3.8-15.1,1.7-31.8-1.1-46.8c-0.1-0.8-1.3-0.4-1.1,0.3c2.8,14.8,4.9,31.4,1.1,46.2
						C141.4,85.6,142.6,85.9,142.8,85.1L142.8,85.1z"/>
				</g>
			</g>
			<g>
				<g>
					<path d="M141.3,82.5c-0.2,0.9-0.2,1.7,0,2.6c0.2,0.7,1.3,0.4,1.1-0.3c-0.2-0.6-0.2-1.3,0-1.9C142.6,82.1,141.4,81.8,141.3,82.5
						L141.3,82.5z"/>
				</g>
			</g>
			<g>
				<g>
					<path d="M127.6,39.9c-1-2.2-2.7-4.1-4.8-5.3c-0.7-0.4-1.3,0.6-0.6,1c1.9,1.2,3.4,2.8,4.3,4.9C126.9,41.2,127.9,40.6,127.6,39.9
						L127.6,39.9z"/>
				</g>
			</g>
			<g>
				<g>
					<path d="M130.8,52.7c-1-4.5-0.8-9.2-3.2-13.3c-0.4-0.7-1.4-0.1-1,0.6c2.3,4,2.1,8.6,3,13C129.8,53.8,131,53.5,130.8,52.7
						L130.8,52.7z"/>
				</g>
			</g>
		</g>
		<g>
			<g>
				<path d="M114,30.6c3,1.3,5.7,3,8.3,4.9c0.6,0.5,1.2-0.6,0.6-1c-2.6-2-5.3-3.6-8.3-4.9C113.9,29.2,113.3,30.2,114,30.6L114,30.6z
					"/>
			</g>
		</g>
	</g>
	<g>
		<g>
			<path class="st2" d="M71.6,56.3c1.4-9.9,7.6-17.4,15.6-23.1c0.6-0.4,0-1.5-0.6-1C78.3,38,71.9,45.8,70.4,56
				C70.3,56.8,71.5,57.1,71.6,56.3L71.6,56.3z"/>
		</g>
	</g>
	<g>
		<g>
			<path class="st2" d="M71.8,56.8c7.3-6.9,15.5-12.6,24.5-17.1c0.7-0.3,0.1-1.4-0.6-1C86.6,43.2,78.4,49,71,55.9
				C70.4,56.4,71.3,57.3,71.8,56.8L71.8,56.8z"/>
		</g>
	</g>
	<g>
		<g>
			<path class="st2" d="M108.1,37.1c1,2.3,2.9,3.6,5.2,4.5c4.2,1.5,8.2,2.2,12.2,4.4c0.7,0.4,1.3-0.7,0.6-1
				c-2.6-1.4-5.3-2.5-8.2-3.3c-3.4-0.9-7.2-1.4-8.8-5.1C108.8,35.8,107.7,36.4,108.1,37.1L108.1,37.1z"/>
		</g>
	</g>
	<g>
		<g>
			<path class="st2" d="M122.9,31.7c5.1,0,9.7,0.8,12.7,5.3c2.1,3.3,2.2,8.5,3.1,12.3c0.2,0.7,1.3,0.4,1.1-0.3
				c-1.1-4.7-1-10.8-4.6-14.5c-3.5-3.5-7.5-4-12.3-4.1C122.1,30.5,122.1,31.7,122.9,31.7L122.9,31.7z"/>
		</g>
	</g>
	<g>
		<g>
			<path class="st2" d="M138,54.7c1.3,3.6,2.6,7.2,2.6,11.1c0,0.8,1.2,0.8,1.2,0c-0.1-4-1.3-7.7-2.7-11.4
				C138.9,53.6,137.7,54,138,54.7L138,54.7z"/>
		</g>
	</g>
	<g>
		<g>
			<path class="st1" d="M111,42.8c0.4,0,0.7,0,1.1,0c-0.1-0.4-0.2-0.7-0.3-1.1c-0.2,0.1-0.3,0.2-0.5,0.2c-0.7,0.3-0.1,1.4,0.6,1
				c0.2-0.1,0.3-0.2,0.5-0.2c0.6-0.3,0.3-1.1-0.3-1.1c-0.4,0-0.7,0-1.1,0C110.3,41.6,110.3,42.8,111,42.8L111,42.8z"/>
		</g>
	</g>
	<g>
		<g>
			<path class="st1" d="M112.7,43.6c0.9,0.7,2.1,0.7,3.1,1.1c1.1,0.5,2.1,0.5,3.2,0.8c0.7,0.2,1.1-0.9,0.3-1.1
				c-0.4-0.1-0.9-0.2-1.3-0.2c-0.7-0.1-1.3-0.3-1.9-0.6c-0.9-0.4-2-0.4-2.8-1C112.7,42.1,112.1,43.1,112.7,43.6L112.7,43.6z"/>
		</g>
	</g>
	<g>
		<g>
			<path class="st1" d="M119.2,45c-0.2,0.1-0.7-0.2-0.9-0.2c-0.4-0.1-0.7-0.2-1.1-0.3c-0.7-0.2-1.1,1-0.3,1.1
				c0.5,0.1,1.1,0.3,1.6,0.4c0.5,0.1,0.9,0.2,1.3,0C120.5,45.7,119.9,44.6,119.2,45L119.2,45z"/>
		</g>
	</g>
	<g>
		<g>
			<path class="st1" d="M127.4,44.1c0.2,0.2,0.4,0.4,0.6,0.6c0.4,0.5,1.1,0,1-0.6c0-0.2-0.1-0.4-0.1-0.6c-0.2-0.7-1.3-0.4-1.1,0.3
				c0,0.2,0.1,0.4,0.1,0.6c0.3-0.2,0.7-0.4,1-0.6c-0.2-0.2-0.4-0.4-0.6-0.6C127.7,42.7,126.9,43.6,127.4,44.1L127.4,44.1z"/>
		</g>
	</g>
	<g>
		<g>
			<path class="st1" d="M143.2,78.8c0.1-0.2,0.1-0.4,0.1-0.6c-0.4,0.1-0.8,0.1-1.2,0.2c0.1,0.3,0.2,0.6,0.3,0.9
				c0,0.2,0.2,0.6,0.1,0.8c0.1-0.1,0.2-0.2,0.3-0.4c0,0-0.1,0-0.1,0c0.2,0,0.3,0,0.5-0.1c0.2,0.1,0-0.4,0-0.5c0-0.2,0-0.5,0-0.7
				c0-0.8-1.2-0.8-1.2,0c0,0.7,0.1,2.8,1.3,2.3c0.5-0.2,0.5-0.7,0.4-1.1c-0.1-0.6-0.2-1.2-0.4-1.7c-0.2-0.6-1.2-0.5-1.2,0.2
				c0,0.1,0,0.2-0.1,0.3C141.8,79.2,143,79.5,143.2,78.8L143.2,78.8z"/>
		</g>
	</g>
	<g>
		<g>
			<path class="st1" d="M143.3,78.9c-0.1-0.9-0.3-1.9-0.4-2.8c-0.4,0.2-0.7,0.3-1.1,0.5c0.2,0.4,0.4,0.8,0.7,1.3
				c0.4,0.7,1.4,0.1,1-0.6c-0.2-0.4-0.4-0.8-0.7-1.3c-0.3-0.6-1.2-0.2-1.1,0.5c0.1,0.9,0.3,1.9,0.4,2.8
				C142.3,79.9,143.5,79.6,143.3,78.9L143.3,78.9z"/>
		</g>
	</g>
</g>
</svg>
