<svg id="Layer_1" data-name="Layer 1" xmlns="http://www.w3.org/2000/svg" viewBox="0 0 64.97 95.69"><defs><style>.cls-1{fill:#ffe329;}.cls-2{fill:#f9ee53;}.cls-3{fill:#603017;}.cls-4{fill:#211e1f;}</style></defs><title>Blond</title><path class="cls-1" d="M122.7,47.5c.6,1.8,1.9,3.1,3.1,4.6a33.42,33.42,0,0,0,4.4,4.8c1.5,1.2,3.5-.7,2.1-2.1-1.2-1.3-1.2-3.2-1.8-4.8a12,12,0,0,0-2.5-4.2c-1.3-1.4-3.4.7-2.1,2.1,2.3,2.6,1.8,6.4,4.3,8.9l2.1-2.1a21.62,21.62,0,0,1-3.6-3.8c-1.1-1.3-2.5-2.6-3.1-4.2-.7-1.8-3.6-1-2.9.8Z" transform="translate(-67.81 -27.18)"/><path class="cls-1" d="M117.7,116.3c-.3,1.2-.7,2.4-1,3.6.4.2.7.3,1.1.5.1-1.9.7-2.2,1.6-1,.6.5,1.4-.3.8-.8-.3-.4-.6-.9-.9-1.3a5.5,5.5,0,0,0-.9.7c.5.4.9.8,1.4,1.2a.57.57,0,0,0,.9-.7,9,9,0,0,1-1.6-4.1c-.3.2-.7.4-1,.6a14.31,14.31,0,0,1,1.1,1.5c.3.6,1.2.2,1.1-.5-.1-.5-.2-1-.3-1.6-.4.2-.7.3-1.1.5.2.3.4.7.6,1s1,.4,1.1-.1c.1-.3.1-.6.2-.9-.4,0-.7.1-1.1.1.5.9.4.8,1.3,1.3a.64.64,0,0,0,.9-.7,10.38,10.38,0,0,0-3.4-5.3c-.2.3-.5.6-.7.9,1,.9,1.9,1.8,2.9,2.6.3-.2.6-.5.9-.7a6.3,6.3,0,0,0-2.3-2,.62.62,0,0,0-.7.1c.3-.3-.7.8-.6.8,0,.2-.1.5-.1.7.1.6-.3.7-1.4.2a.59.59,0,0,0-.3-1.1c-3.2,0-1.9,3.8.3,4.7,1.6.6,5.2-.3,3.1-2.3a.6.6,0,0,0-1,.3c-.1.5-.3,1.1-.4,1.6.4,0,.7-.1,1.1-.1a12.65,12.65,0,0,1-1.8-4.9c-.3.2-.7.4-1,.6a10.55,10.55,0,0,1,2.2,3c.3.5,1.2.3,1.1-.3,0-.4-.1-.7-.1-1.1-.3.1-.7.3-1,.4.3.3.7.6,1,.9a.57.57,0,0,0,.9-.7c-.3-.4-.5-.9-.8-1.3-.4-.6-1.2-.2-1.1.5s.3,1.2.4,1.7a5.5,5.5,0,0,0,.9-.7c-.7-.6-1.4-1.3-2.2-1.9a.62.62,0,0,0-.7-.1c-.2.1-.5.1-.7.2a.59.59,0,0,0,.8-.8v-1.1a.63.63,0,0,0-.2-.8c-.7-.3-1.4-.6-2.2-.9.3.1.7.3,1,.4.4.4.8.9,1.2,1.3h1.1c-.1-.1-.1-.2-.2-.3H119c.4-.6.9-1.1,1.3-1.7.4.2.7.3,1.1.5.7-2.8-1.6-4.2-4-4.9a.61.61,0,0,0-.5,1.1,9.13,9.13,0,0,1,3,2.5c.2-.3.4-.7.6-1-.8-1.1-1.6-2.2-2.4-3.2l-1.1-.3c.2.3.3.4.2.1a4.45,4.45,0,0,1-.7-3.8.62.62,0,0,0-.6-1c-3.6.9-3.1,5.1.6,5.2a.64.64,0,0,0,.6-.8c0-.9-.1-1.8-.1-2.7-.4.1-.8.1-1.2.2.2.9.4,1.9.6,2.8.4-.1.8-.1,1.2-.2V98.7h-1.1V102c.4.1.8.1,1.2.2.1-1.1.3-2.2.4-3.2-.4.1-.8.1-1.2.2a6.33,6.33,0,0,1,.2,3.6c-.1.7.9.7,1.2.2s.4-1,.6-1.6h-1.1c.1.8.1,1.7.2,2.5,0,.6.9.8,1.1.3,1.6-3.6,3-5.8-1-8a.59.59,0,0,0-.8.8,25.35,25.35,0,0,0,.4,2.9c.4,0,.7-.1,1.1-.1-.3-1.2-.7-2.3-1-3.5l-1.1.3a12.13,12.13,0,0,0,1,1.4l-1.1.3c0,.3-.1.6-.1.9.4,0,.7.1,1.1.1-.1-.4-.2-.9-.3-1.3a.59.59,0,0,0-1.1-.1l-.6.9c.3.2.7.4,1,.6.6-1.9,1.2-1.8,1.9.4a.55.55,0,0,0,.6.4c.1.5.1,1.1.2,1.6-.3.6.5,1.3.9.7,3.4-4.1-1.4-4-3-7.6-.2-.5-1-.3-1.1.1.2-.7.5-1.4.7-2.1.2.1.4,0,.6-.2.5-.5,1.1-.9,1.6-1.4s0-1.1-.6-1a8.08,8.08,0,0,0-2.2.7c.2.3.4.7.6,1,.2.9.4,1.9.6,2.8l.8.8a32.63,32.63,0,0,0,1.8-3.8c-.4-.1-.8-.2-1.1-.3-.2.5-.5,1.1-.7,1.6.4,0,.7.1,1.1.1-.3-.9.7-3.1,1.1-4.1a.61.61,0,0,0-1-.6,15.38,15.38,0,0,0-1.2,1.3.57.57,0,0,0,.8.8c.5-.4.9-.8,1.4-1.2s-.2-1.3-.7-.9c-1.7,1.1-4.1,2.1-3.6,4.5a.57.57,0,1,0,1.1-.3,8.38,8.38,0,0,1,3.1-3.1c-.2-.3-.5-.6-.7-.9-.5.4-.9.8-1.4,1.2l.8.8a15.38,15.38,0,0,0,1.2-1.3c-.3-.2-.7-.4-1-.6-.8,2-1.9,2.7-1.1,4.8a.59.59,0,0,0,1.1.1,4.55,4.55,0,0,0,.8-1.9.57.57,0,0,0-1.1-.3,16.15,16.15,0,0,1-1.7,3.5c-.3.5.3,1.2.8.8,1.6-1.1,3.8-3,2.1-5.1-1.3-1.6-3-.8-4.2.4a.61.61,0,0,0,.6,1,9.35,9.35,0,0,1,2.2-.7c-.2-.3-.4-.7-.6-1-2,1.7-4.9,1.5-2.3,4.8a.54.54,0,0,0,.8.2c1.1-.7,2.4-2.8.2-3.1-1.9-.3-2.6,2.5-1.3,3.6a.6.6,0,0,0,.8,0c2.7-2.2-1.6-4.2-2.1-1.7s3.6,2.5,2.8-.5a.64.64,0,0,0-1-.3c-1.1,1-1.1,1.9,0,2.9a.6.6,0,0,0,1-.3,2.92,2.92,0,0,0,.2-.9c-.4,0-.7.1-1.1.1.7,1.6,4.4,4.6,3.1,6.2.3.2.6.5.9.7,1.5-2.7-.8-4-2.1-6.3a.57.57,0,0,0-1,0c-.5.9-1,1.8-1.5,2.6a.58.58,0,0,0,1,.6l.6-.9c-.4,0-.7-.1-1.1-.1.1.4.2.9.3,1.3a.59.59,0,0,0,1.1.1c.6-1,.6-1,.1-2.1-.3-.6-1.1-.2-1.1.3-.4,3.8,4.1,1.9,1.3-2a.59.59,0,0,0-1.1.3,4.73,4.73,0,0,0,1.2,4.1.62.62,0,0,0,1.1-.1A2.12,2.12,0,0,0,118,97a.59.59,0,0,0-.9.5c0,1.4.1,3.6,1.9,3.8a.68.68,0,0,0,.6-.4c.7-1.6-.3-3.4-1.1-4.8l-.8.8c1.6,2.3,1.8,4.4.5,6.4l1.1.3a5.36,5.36,0,0,0-.2-2.8c-.1-.6-1-.5-1.1,0s-.4,1-.6,1.6c.4.1.8.1,1.2.2a8.53,8.53,0,0,0-.3-3.9c-.2-.7-1.1-.5-1.2.2-.1,1.1-.3,2.2-.4,3.2-.1.7,1,.8,1.2.2a9,9,0,0,0,0-4,.56.56,0,0,0-1.1,0,10.15,10.15,0,0,0,0,4.9c.1.7,1.2.5,1.2-.2-.1-2,.1-1.3-.7-3.2a.62.62,0,0,0-1.2.2c-.5,3.9,0-.5.5-.6-.2-.3-.4-.7-.6-1-2.5,2.4-.2,3.5.8,6a.64.64,0,0,0,1,.3c.8-.7.8-.7.7-1.8a.59.59,0,0,0-1.1-.3c-.9,1.4-1.4,2.4.2,3.3a.62.62,0,0,0,.7-.1c.2-.2.4-.3.6-.5s.2-.4.2-.6-.1-.4-.2-.6-.3-.5-.6-.4c-3.2.3.9,3.6,2.2,3.9a.61.61,0,0,0,.6-1,12.22,12.22,0,0,0-3.3-2.7c-.2.4-.3.7-.5,1.1,1.6.5,3.7,1.5,3.2,3.4a.61.61,0,0,0,1.1.5c.7-.9.7-.9.3-1.9-.2-.4-.7-.6-1-.3-.9,1-.9.9-.9,2.2a.59.59,0,0,0,.9.5c1.1-.8,1.2-1.6.4-2.6-.1-.2-.4-.2-.6-.2-1.3.2-1.7,1-1.3,2.2a.61.61,0,0,0,.9.4c1-.6,1-.5,1-1.8a.55.55,0,0,0-.3-.5c-3.7-2.1-3.2,4.4-.7,2.8,1-.7.4-3.3-.8-3.5-2.4-.3-1.6,3-1.2,4.2.2.5,1,.6,1.1,0a3.92,3.92,0,0,0-.4-3.5.57.57,0,0,0-1,0,3.93,3.93,0,0,0-.7,3.9c.1.6.9.5,1.1,0a6,6,0,0,0-.2-5.4.57.57,0,0,0-1,0c-.9,1.6-1.5,3.4-.2,4.9.1.2.4.2.6.2,3.9-1.1.4-8-2-4.3s4.9,5,2.4-.4a.55.55,0,0,0-.5-.3c-2.1.1-2.8,1.7-2.6,3.6.1.4.7.9,1,.4.8-1,1.4-1.9.9-3.2a.55.55,0,0,0-.6-.4c-1.6-.1-3.4,2.5-1.5,3.6,2.3,1.3,2-1.8,1.4-2.9a.57.57,0,0,0-1,0c-.9,1.4-1.1,2.1.2,3.2a1.07,1.07,0,0,0,.6.2c.3-.1.5-.2.8-.3a.57.57,0,0,0,.4-.7c-.1-1-.1-.8-.8-1.6a.6.6,0,0,0-1,.3c-.3,1.6.5,3.2,1.2,4.5l.8-.8c-1.8-.9-3.1.5-1.8,2.1.1.2.4.2.6.2a6.37,6.37,0,0,1,.7-.2c.2-.1.4-.2.4-.4s.1-.4.1-.7,0-.5-.3-.7c-.8-.4-.8-.4-1.6,0a.55.55,0,0,0-.3.5c0,1,.2.9.9,1.5.2.2.9-.1,1.2,0a10.14,10.14,0,0,1,2.6,1.6c.4.3,1-.2.9-.7s-.3-1.2-.4-1.7c-.4.2-.7.3-1.1.5.3.4.5.9.8,1.3.3-.2.6-.5.9-.7-.3-.3-.7-.6-1-.9s-1.1-.1-1,.4.1.7.1,1.1l1.1-.3a15,15,0,0,0-2.3-3.3c-.4-.5-1.1,0-1,.6a13.58,13.58,0,0,0,1.9,5.2c.3.4,1,.4,1.1-.1l-3.1-3.4c-.1-.4-.2-.7-.3-1.1-1.8.9-1.5,2.7.4,3.1.3.1.7-.1.7-.4s.1-.5.1-.7,0-.5-.3-.7-.4-.3-.6-.4a.62.62,0,0,0-.7.1c-.2.2-.3.4-.5.6a1.07,1.07,0,0,0-.2.6c.1.2.2.5.3.7a.57.57,0,0,0,.7.4c.3,0,.5-.1.8-.1a.43.43,0,0,0,.4-.4c.1-.2.2-.5.3-.7s-.1-.5-.3-.7-.4-.3-.6-.4a.64.64,0,0,0-.6,0c-.2.1-.5.2-.7.3a.55.55,0,0,0-.3.5c-.2,2,2.7,3.4,3.2,1,.1-.3,0-.5-.3-.7s-.3-.2-.5-.3a.64.64,0,0,0-.6,0c-.2.1-.3.2-.5.3s-.4.7-.1.9c2.4,2.4,3.5-2.1,4.7-.8a.57.57,0,0,0,.9-.7,7.09,7.09,0,0,0-3.3-3.1c-.6-.3-1.3.5-.7.9a8,8,0,0,1,3.1,4.8,5.5,5.5,0,0,0,.9-.7l-.9-.9a.66.66,0,0,0-1.1.1c-.1.3-.1.6-.2.9.4,0,.7-.1,1.1-.1-.2-.3-.4-.7-.6-1-.3-.6-1.2-.2-1.1.5.1.5.2,1,.3,1.6.4-.2.7-.3,1.1-.5-.6-1.2-.4-.8-1.3-1.7a.62.62,0,0,0-1,.6,16.74,16.74,0,0,0,1.7,4.4c.3-.2.6-.5.9-.7a5.39,5.39,0,0,0-1.6-1.4c-.4-.3-1,.2-.9.7.4,1.2.2,1,1.2,1.8l.8-.8a7.52,7.52,0,0,1-1.6-1.5.55.55,0,0,0-.9.1,5.08,5.08,0,0,0-1,2.9c-.1.6.8,1.1,1.1.5a12.44,12.44,0,0,0,1.1-4.2c-.2-1.4-1.4-1.4-1.5-.6Z" transform="translate(-67.81 -27.18)"/><path class="cls-2" d="M125.2,47.3a27.72,27.72,0,0,0,3.8,6.4c.5.6,1.3-.2.8-.8a27,27,0,0,1-3.5-5.9c-.2-.7-1.4-.4-1.1.3Z" transform="translate(-67.81 -27.18)"/><path class="cls-1" d="M76.9,86a2.25,2.25,0,0,0,1.6,2.3c.6.2.9-.6.6-1a17.41,17.41,0,0,0-1.2-1.4c-.2.3-.5.6-.7.9a7,7,0,0,1,1.9,1.6c.5.6,1.3-.3.8-.8a6.84,6.84,0,0,0-2.1-1.7.58.58,0,0,0-.7.9,17.41,17.41,0,0,0,1.2,1.4c.2-.3.4-.7.6-1a1.06,1.06,0,0,1-.8-1.2.6.6,0,1,0-1.2,0Z" transform="translate(-67.81 -27.18)"/><path class="cls-1" d="M79.5,91v-.2l-1.1.3.6.9a5.5,5.5,0,0,1,.7-.9c.2-.4.5-.8.7-1.2a.55.55,0,0,0-.3-.7c-2.7-1.3-4.5,1.9-2.4,3.9,1.8,1.7,4.9.4,3.4-2-.3.2-.7.4-1,.6.3.4.7.7,1,1.1.3-.2.7-.4,1-.6h-.8a.58.58,0,0,0,.6,1c1.8-1,1.4-3.5-.9-3.8-3.1-.3-2.1,4-1.6,5.8.3-.2.7-.4,1-.6-.1-.3-.1-.6-.2-.9-.4.1-.8.1-1.2.2,0,.4.1.8.1,1.2.5-.2.3-1-.1-1.1-3.7-.8-2.8,4.1.1,4.8,3.8,1,5.4-4.5,1.3-5.2a.68.68,0,0,0-.8.6l.3,3c.3-.1.7-.3,1-.4-.5-.7-1.1-1.5-1.6-2.2.4,0,.7.1,1.1.1l.3-1.2c-.3-.1-.7-.3-1-.4-.2,1.8,0,3.8-1.2,5.3-.5.7-1.4.6-1.9,1.5-.7,1.4-.1,2.5,1.2,3.2.6.3,1.2-.5.7-.9.5-.5,1-.9,1.5-1.4a1.21,1.21,0,0,0,.5.5c-.5-.1,2.7,1.6,1.5,1,.5.3,1.2-.3.8-.8a26.4,26.4,0,0,0-2.1-2.9l-.8.8c0,.3-.1.5-.1.8-.3.2-.7.4-1,.6l.9-.6c-.4,0-.7.1-1.1.1.3.1.5.2.8.3l-1.1.3c-.1.5-.1,1-.2,1.5.4,0,.7.1,1.1.1-.8-2-.7,3.7-.8,4.4s1,.8,1.2.2c.4-1.6.8-3.2,1.2-4.9H79.7c.4,1.3.7,2.5,1,3.9.1.6,1.1.6,1.1,0,.2-1.2.4-2.3.5-3.5H81.2c.1.7.1,1.3.2,2,.4-.1.8-.1,1.2-.2a19.09,19.09,0,0,1-.6-3.3c-.4.2-.7.3-1.1.5.5.7.4.3.5,1.1.1.5.8.9,1.1.3a2.7,2.7,0,0,0-.3-3.3c-.3.2-.6.5-.9.7.5.7,1,1.5,1.4,2.2s1.3.2,1.1-.5c-.5-1.4-.4-1.3-1.7-2.2a.62.62,0,0,0-.9.7c.6,3.4-2.1,4.9,1.3,6.8a.59.59,0,0,0,.8-.8,7.57,7.57,0,0,1-.9-1.8c-.3.2-.6.5-.9.7-1-.3-2-.7-3-1,.4-.5-.5-1.2-.9-.7a2.91,2.91,0,0,0-.9,3.4c.4.9,4.6,2.8,4.6,1.3l1.1-.3a14.92,14.92,0,0,1-.2-2.1c-.4,0-.7.1-1.1.1.2.6.5,1.2.7,1.8l1.1-.3c0-.5-.1-1.1-.1-1.6-.4-.1-.8-.1-1.2-.2-.2-.4-.3-.7-.5-1.1-.4.1-.8.1-1.2.2-.2.7-.5,1.4-.7,2.1a.64.64,0,0,0-.6.8c0,.4-.1.8-.1,1.3.4.1.8.2,1.1.3a11.66,11.66,0,0,1,1.6-3.6c-.4,0-.7-.1-1.1-.1.8,2.1-4.5,3.4-4,6.1.4,2.2,2.9,2.3,4.7,2.2a.62.62,0,0,0,.2-1.2c-1.1-.3-2.3-.5-3.4-.8-.1.7,1,1.1,1.1.3a8.33,8.33,0,0,1,1.5.4c.4,0,.7-.1,1.1-.1a2.22,2.22,0,0,0,2-1c-.4.1-.8.2-1.1.3s-.8.5-1.2.7c-.4-.1-.9.3-.7.7.2.8.3,1.6.5,2.5l1.1-.3c-.3-.3-.5-.6-.8-.9-.4.1-.8.1-1.2.2l-.6,1.5c.4,0,.7.1,1.1.1.2.1.4.3.6.4a5.5,5.5,0,0,0,.9-.7c.1.3.2.7.3,1a5.5,5.5,0,0,0,.9-.7c-.2-.2-.4-.5-.6-.7a5.5,5.5,0,0,0-.9.7c.2.5.3.9.5,1.4-.6-.5-1.2.6-.6,1,.2.2.5.3.7.5a.64.64,0,0,0,.6,0c2.2-1.1,1.1-2.9-.6-3.9-.4-.3-1,.2-.9.7.3,1,.3,1,1.2,1.4.4.2,1.1-.1.9-.7-.6-1.5-1.1-2.1-2.8-2.4-.4-.1-.9.3-.7.7a2.75,2.75,0,0,0,1.5,2c.4.3,1-.2.9-.7-.4-1.4-.8-2.8-2.4-3.1a.55.55,0,0,0-.7.3,3.75,3.75,0,0,0,.2,3.1c.2.4.9.7,1.1.1a2.77,2.77,0,0,0-1-3.8.63.63,0,0,0-.9.5,4.55,4.55,0,0,0,1.9,3.7.6.6,0,0,0,1-.3c.2-1.5.3-1.2-.2-2.6a.62.62,0,0,0-1.2.2,5.12,5.12,0,0,0,1.7,3.6c.2.2.8.2.9-.1a2.52,2.52,0,0,0-.7-3.4.62.62,0,0,0-.7.1,1.38,1.38,0,0,1-.4.3.62.62,0,0,0-.1.7c.1.1.1.2.2.3a.59.59,0,0,0,1.1-.3c-.2-4.3.2.4,1-2,.4-1.3,1-.8.4-2.3-.3-.7-1.4-.4-1.1.3.4,1.2.3,1.2,1.4,1.5.3.1.7-.1.7-.4a1.8,1.8,0,0,0-1.4-2.3c-.2-.1-.4,0-.6.2l-.5.5a1.07,1.07,0,0,0-.2.6c.4,1.2,1,1.4,2.2,1.5a.59.59,0,0,0,.5-.9c-1.4-2.9-3.8-1.6-2,.7a.6.6,0,0,0,1-.3c.8-5.1-5.9.8-1.1,1.2a.55.55,0,0,0,.5-.3c.9-1.4-.2-5.1-2.4-3.9-1.5.9,0,3.3,1.4,3.3a.68.68,0,0,0,.6-.4,3.82,3.82,0,0,0-.9-3.8c-.1-.2-.4-.2-.6-.2-2,.5-1.4,3-.6,4.3a.66.66,0,0,0,1.1-.1c1.1-3.2-3.1-4.3-3.7-1,.4.1.8.2,1.1.3.3-1.6-.3-2.9-2-2.2a.55.55,0,0,0-.3.5c-.1,3.9,5.1.8,2.1-.6a.59.59,0,0,0-.9.5c0,1.1.6,1.5,1.7,1.3a.43.43,0,0,0,.4-.4c.4-1.4-1-2.5-2-1.2s1.5,3.3,2.6,2.4a1.59,1.59,0,0,0-1.2-2.8c-2.5.4-1.3,3.1.7,3.2a.59.59,0,0,0,.5-.9c-.2-.3-.4-.7-.6-1a.55.55,0,0,0-.5-.3h-.6a.55.55,0,0,0-.5.3c-.1.2-.1.3-.2.5a.59.59,0,0,0,.1.7,6.7,6.7,0,0,0,2.7,1.6c.1-.4.1-.8.2-1.2-1.5.4-2.4-.4-2.6-2.5a3.08,3.08,0,0,0,1.3-.3c.5-.6,1.1-.5,1.6-1.3a3.71,3.71,0,0,0,.2-3.4.59.59,0,0,0-1.1-.1,17.33,17.33,0,0,0-1.8,3.9.57.57,0,1,0,1.1.3c.8-1.9,2.3-2.1,1.4-4.7a.62.62,0,0,0-1.2.2c.1,2,2.6,3.9,2.9,1.1.1-.7-1-.7-1.2-.2-.5,1.4-.5,1.2.2,2.5.3.5,1.2.3,1.1-.3-.2-1.5,0-1.1-.9-2.4a.62.62,0,0,0-1.1.1,2.76,2.76,0,0,0,.4,3,.59.59,0,0,0,1.1-.3,5.61,5.61,0,0,0-1-3.8c-.1-.2-.4-.2-.6-.2-2.3.4-1.5,3.4-.6,4.6a.61.61,0,0,0,1,0c.1-.1.1-.3.2-.4a.64.64,0,0,0,0-.6c-.8-1-5.2-1.3-3.1-3.5-.3-.2-.6-.5-.9-.7-.6.8-.6.7-.5,1.7a.55.55,0,0,0,.3.5,4.88,4.88,0,0,0,.7.3.64.64,0,0,0,.6,0c.2-.1.4-.3.6-.4a.54.54,0,0,0,.2-.8l-.3-.6a.55.55,0,0,0-.5-.3c-.2,0-.5.1-.7.1a.82.82,0,0,0-.6.4c-.5,3.2,4.4,1.6,1.9-1.2a.56.56,0,0,0-.9.1c-.9,1.9-.2,3.2,1.9,3.4a.59.59,0,0,0,.5-.9l-.3-.6a.55.55,0,0,0-.5-.3c-3.1-.2-1.9,4,.5,4.6,3.5.9,4.6-3.5,2.2-5.4a.58.58,0,0,0-.9.7c.3.6.6,1.3.9,1.8l.8-.8c-1.6-.9-.5-4.5-.8-6.1a5.5,5.5,0,0,0-.9.7c.4.5.7,1,1.1,1.5.4-.2.7-.3,1.1-.5a5.15,5.15,0,0,0-1.6-2.5c-.5-.5-1.3.2-.9.7l.3,2.1,1.1.3c0-.4-.1-.7-.1-1.1a.58.58,0,0,0-.6-.6h.1c-.4-.6-1.2-.2-1.1.5a19.09,19.09,0,0,0,.6,3.3c.2.7,1.1.5,1.2-.2a3.6,3.6,0,0,0-.2-2.3c-.2-.5-1.1-.6-1.1,0-.2,1.2-.4,2.3-.5,3.5h1.1a17.19,17.19,0,0,0-1-3.9c-.2-.5-1-.6-1.1,0-.4,1.6-.8,3.2-1.2,4.9.4.1.8.1,1.2.2.2-2.3,1.1-6.5-.8-8.2a.6.6,0,0,0-1,.3,5.26,5.26,0,0,0,.3,3.9c.2.4.9.7,1.1.1a3.16,3.16,0,0,0-.1-3.6.57.57,0,0,0-1,0c-.7,1.5-.7,2.3.5,3.5a.6.6,0,0,0,1-.3c.4-1.2.3-1.1-.2-2.3-.3-.6-1.1-.2-1.1.3a2.69,2.69,0,0,0,1.4,2.8.59.59,0,0,0,.9-.5c-.1-1.8,0-1.3-.9-2.8a.57.57,0,0,0-1,0,5.79,5.79,0,0,0,0,5.7.57.57,0,0,0,1,0,5.83,5.83,0,0,0,.1-6.1c-.2-.5-1-.3-1.1.1a3.21,3.21,0,0,0,1.7,4.1.63.63,0,0,0,.9-.5,4,4,0,0,0-1.4-3.4.61.61,0,0,0-1,.6,6.29,6.29,0,0,0,2.6,3.4.52.52,0,0,0,.8-.2c1.1-2.2.4-3.5-1.3-5.1-.6-.6-1.3.3-.8.8.6.9,1.3,1.8,1.9,2.6l.8-.8c-1.8-1-3.2-4.8-5.6-2.5-1.5,1.5-.7,3.1.6,4.2.2-.3.5-.6.7-.9.5-.9,1-1.9,1.6-2.8a.55.55,0,0,0,.4-.6c.2-1.8.3-3.7.5-5.5,0-.5-.7-.8-1-.4-1,1.1-.9.9-.6,2.4a.59.59,0,0,0,1.1.1c.8-1.2.7-1.1.1-2.4a.56.56,0,0,0-.9-.1c-3.3,4.3,2.6,8.5,2.5,3.7s-5.4,1-2,2.7a.62.62,0,0,0,.7-.1c1.3-1.2,1.1-2.4.6-4a.64.64,0,0,0-1-.3C79.2,96,78.8,97.8,81,98a.55.55,0,0,0,.5-.3c2.5-3.8-4.7-2.8-1.7-.4a.6.6,0,0,0,.8,0,2.21,2.21,0,0,0,.8-2.8c-.1-.4-.5-.5-.9-.4-1.6.9-1.8,2.2-.4,3.5.3.3,1.1.1,1-.4.3-1.7-.5-2.4-2.5-2,0-.4-.1-.7-.1-1.1-.9.4-.9.4-1.1,1.4,0,.3,0,.5.3.7.8.6.8.6,1.8.2a.55.55,0,0,0,.4-.6c.1-1,.1-1-.7-1.7a1.42,1.42,0,0,0-.6-.2c-5.1,1.9,2.2,5.5.9,1.4-.1-.2-.2-.4-.4-.4-1.1-.2-1-.2-1.9.5-.2.1-.2.4-.2.6.7,3.2,4.3.2,2.1-1.9a1.42,1.42,0,0,0-.6-.2c-1.6.5-1.3,2.1-.5,3.3.2.3.7.4.9.1a2,2,0,0,0-.1-3.3.6.6,0,0,0-1,.3c-.4,1.3-.5,2.3.8,3.1a.64.64,0,0,0,.6,0c1.5-.9,1.5-2.6.9-4a.62.62,0,0,0-1.2.2c-.1,1,0,1,.6,1.8a.6.6,0,0,0,1-.6c.2-.9.5-1.9.7-2.8.2.3.4.7.6,1a1.93,1.93,0,0,0-1.6-3.5.43.43,0,0,0-.4.4c-.3,1.3.5,2.1,1.4,3a.61.61,0,0,0,1-.6c-.3-1.7-.1-1.3-1.3-2.6a.55.55,0,0,0-.9.1,2.57,2.57,0,0,0,.9,3.7.63.63,0,0,0,.9-.5,2.83,2.83,0,0,0-.7-2.1.58.58,0,0,0-1,.6c-1.7-2.8-1.2-.2.1.7a.63.63,0,0,0,.9-.4c1-3.4-3.4-4.5-3.1-1.3a.68.68,0,0,0,.4.6c.2.1.4.1.6.2s.4,0,.6-.2a1.38,1.38,0,0,1,.4-.3,1.07,1.07,0,0,0,.2-.6,1.52,1.52,0,0,0-2.9.3c-.3,1.8,2.2,2.3,3,.9A1.63,1.63,0,0,0,78.4,89c-2.2.7-1,2.9.7,3.1a.55.55,0,0,0,.5-.3c.1-.3.3-.5.4-.8a.64.64,0,0,0,0-.6c-.2-.2-.3-.5-.5-.7a.91.91,0,0,0-.7-.3c-2.8.4-1.3,4.2.7,2.2a1.07,1.07,0,0,0,.2-.6c-.4-1.1-1.2-1.5-2.2-.8a.54.54,0,0,0-.2.8c.8,1.1.6,1.1,2,1.1a.68.68,0,0,0,.6-.4c.4-1,.1-1.7-1-1.9-.6.2-.9.5-.9,1,0,.2.1.5.1.7s.2.3.4.4.5.2.7.3c.5.2.9-.5.7-.9l-.6-.9a.6.6,0,0,0-1.1.3v.4a.55.55,0,0,0,.3.5.76.76,0,0,0,.4.2c.6.6,1.2-.4.6-.8Z" transform="translate(-67.81 -27.18)"/><path class="cls-1" d="M74.5,50.9c-.2,2.4-2.3,5-3.5,7A18.15,18.15,0,0,0,68.4,64a1.49,1.49,0,0,0,2.5,1.4c1.7-1.7,3.5-3.3,5.3-5l-2.1-2.1a10.31,10.31,0,0,1-2.8,1.8c-.5.1-.5.2,0,.4a5.12,5.12,0,0,1,1-2.1c1.2-1.5-.9-3.6-2.1-2.1s-3.1,5-1.2,6.7,5.7-1.3,7.2-2.6-.7-3.4-2.1-2.1c-1.8,1.6-3.6,3.3-5.3,5,.8.5,1.7,1,2.5,1.4,1-5,5.8-8.7,6.3-13.9.1-1.8-2.9-1.8-3.1.1Z" transform="translate(-67.81 -27.18)"/><path class="cls-1" d="M122.2,40.4a49,49,0,0,1-14.6-2.8c-4.4-1.7-8-5.7-11.3-8.9-1.2,1.6-2.4,3.1-3.6,4.7,1.7.7,2.3.5,4.1.3a32.82,32.82,0,0,1,8.8.8c5.3,1.1,10.2,5.3,14.8,8,.8-1.8,1.5-3.6,2.3-5.4-5.9-1.5-11.9-3-17.7-4.8-.3,1.9-.5,3.9-.8,5.8a61.12,61.12,0,0,1,12.8.7V33.1a5,5,0,0,0-3,2.1,2.93,2.93,0,0,0,0,3c1,1.5,1.7,1.4,3.1,2.3,2.3,1.4,3.8,4.2,5.4,6.4,2.2,3.1,7.4.1,5.1-3a63.57,63.57,0,0,0-5-6.6,12.41,12.41,0,0,0-2.1-1.8c-.6-.3-2.4-1.7-1.4-.3v3l-.6.6c2.7-.7,3-5.2,0-5.7a68.76,68.76,0,0,0-14.3-.9c-3.3.2-4.1,4.8-.8,5.8,5.8,1.8,11.8,3.3,17.7,4.8,3.3.8,5.2-3.7,2.3-5.4-4.6-2.8-9.5-6.8-14.8-8.3a68.48,68.48,0,0,0-7.9-1.3,13.05,13.05,0,0,0-3.4-.3c-.5,0-3,.1-1.6.6-2.9-1.2-6.3,2.1-3.6,4.7,3.7,3.5,7.6,7.8,12.4,9.8a48.64,48.64,0,0,0,17.7,3.6c3.8.2,3.8-5.7,0-5.8Z" transform="translate(-67.81 -27.18)"/><path class="cls-1" d="M76.9,45a.1.1,0,0,1-.1.1c1.1-.5,2.2-.9,3.4-1.4-.1,0-.1,0-.2-.1.6,1.5,1.2,2.9,1.8,4.4.8-1.4,4.4-2.9,5.8-3.7-1.2-1.6-2.4-3.1-3.6-4.7-1.8,1.6-3.7,3.1-5.6,4.6-2.7,2.1.8,6.5,3.6,4.7,1.4-.9,2.8-1.9,4.2-2.8L82.1,42c-1.8,2.5-9,10.6-2.6,12.7,5.1,1.7,10.8-8.1,14.2-10.4-1.2-1.6-2.4-3.1-3.6-4.7-1.9,1.8-3.9,3.6-5.8,5.4-2.9,2.7,1.3,6.5,4.2,4.2,4.5-3.5,8.4-7.8,12.5-11.9a3,3,0,0,0-.6-4.7c-3-1.7-6.3-4.6-10-3.8-3.9.9-8.2,3.8-11.1,6.6-5.3,5-11,14.8-11,22.3a2.9,2.9,0,0,0,1.5,2.6c4.2,1.8,10.1-2.6,12.5-5.8,1.3-1.7-.4-4.8-2.6-4.5a17.2,17.2,0,0,0-4.6,1.1l3.7,3.7c.7-3.3,4.5-6.4,6.8-8.7,2.5-2.5,5-5.3,8.3-6.6-.8-1.8-1.5-3.6-2.3-5.4-.8.4-1.6.8-2.4,1.3,1.2,1.6,2.4,3.1,3.6,4.7.5-.4,1-.7,1.5-1.1,3.5-1.4,2-7.1-1.6-5.7a9.31,9.31,0,0,0-4.1,2.6,3,3,0,0,0,3.6,4.7c.8-.4,1.6-.8,2.4-1.3,2.9-1.5.9-6.8-2.3-5.4-4.4,1.8-7.7,4.8-11,8.2-3.1,3.2-7.4,6.8-8.4,11.3-.4,1.9,1.4,4.6,3.7,3.7a8.6,8.6,0,0,1,3-.9c-.9-1.5-1.7-3-2.6-4.5-.7,1-1.9,1.4-2.9,2-.5.3-3.2,1-1.5,1.7.5.9,1,1.7,1.5,2.6-.1-5.2,4-11.4,7-15.4A20.39,20.39,0,0,1,88,36.8c4-2.3,5.4-.8,9.2,1.3-.2-1.6-.4-3.1-.6-4.7-4.1,4.1-8,8.3-12.5,11.9l4.2,4.2c1.9-1.8,3.9-3.6,5.8-5.4,2.4-2.3-.8-6.6-3.6-4.7a32.38,32.38,0,0,0-5.3,4.5c-1,1-3.8,5.2-5.1,5.2.9.5,1.7,1,2.6,1.5.7,1.1,1.1-.8,1.7-1.7.9-1.2,1.7-2.5,2.6-3.7,1.7-2.4-1.7-5.7-4.1-4.1A32.89,32.89,0,0,1,79,43.9c1.2,1.6,2.4,3.1,3.6,4.7,1.9-1.5,3.8-3,5.6-4.6,2.6-2.3-.7-6.2-3.6-4.7-2.5,1.4-6.6,3.2-8,5.8a3,3,0,0,0,1.8,4.4c.1,0,.1,0,.2.1A3.09,3.09,0,0,0,82,48.2a.1.1,0,0,1,.1-.1c1.6-3.5-3.5-6.5-5.2-3.1Z" transform="translate(-67.81 -27.18)"/><path class="cls-3" d="M116.8,117.3c0,.4.1.9.1,1.3v.6c0,.1,0,.5.1.4s.3-.1.4-.2h-.1a.6.6,0,1,0,0,1.2c.6,0,.8-.5.8-1a19.42,19.42,0,0,0-.2-2.4c0-.6-1.2-.6-1.1.1Z" transform="translate(-67.81 -27.18)"/><path class="cls-4" d="M99.1,40.1c2.2,2.7,6.6,3.6,9.7,4.6a60.45,60.45,0,0,0,13.9,2.4.6.6,0,1,0,0-1.2,68.22,68.22,0,0,1-12-1.9c-3.3-.9-8.6-2-10.8-4.7-.4-.6-1.2.2-.8.8Z" transform="translate(-67.81 -27.18)"/><path class="cls-4" d="M70.1,52.2C73.8,40.6,82.8,31.1,95,28.8c12.4-2.3,28.7,4.7,32.1,17.7a.57.57,0,0,0,1.1-.3c-3.5-13-19.2-20.4-31.8-18.8C83.1,29.1,73,39.3,69,51.8a.59.59,0,1,0,1.1.4Z" transform="translate(-67.81 -27.18)"/><path class="cls-4" d="M116,90.6c-3.8,1-3.6,6.6.4,7.1.7.1,1.1-1,.3-1.1a2.44,2.44,0,0,1-.4-4.8c.7-.2.4-1.4-.3-1.2Z" transform="translate(-67.81 -27.18)"/><path class="cls-4" d="M115.9,97.1a3.31,3.31,0,0,0-3,3c-.2,2,1.3,3.5,3,4.3.7.3,1.3-.7.6-1a3.82,3.82,0,0,1-2.3-2.5,2.08,2.08,0,0,1,1.8-2.6c.6,0,.6-1.2-.1-1.2Z" transform="translate(-67.81 -27.18)"/><path class="cls-4" d="M116,104.1c-3.9-.3-4.5,7.2-.2,6.7.8-.1.8-1.3,0-1.2-2.8.3-2.1-4.5.2-4.4.8.2.8-1,0-1.1Z" transform="translate(-67.81 -27.18)"/><path class="cls-4" d="M115.8,110.3c-2.1-.1-3.1,2-2.7,3.8a3.79,3.79,0,0,0,4.1,2.8c.8-.1.4-1.2-.3-1.1a2.72,2.72,0,0,1-2.6-1.6c-.5-1.1-.1-2.7,1.4-2.6.9-.1.9-1.3.1-1.3Z" transform="translate(-67.81 -27.18)"/><path class="cls-4" d="M119,90.4c2.3.7.8,3.4-.3,4.4-.5.5.3,1.4.8.8a5.1,5.1,0,0,0,1.8-3.8,3,3,0,0,0-2-2.6c-.7-.2-1,1-.3,1.2Z" transform="translate(-67.81 -27.18)"/><path class="cls-4" d="M118.3,96.1a3.81,3.81,0,0,1,.5,6.6c-.6.5.2,1.3.8.8a5.07,5.07,0,0,0-.8-8.5c-.5-.3-1.1.7-.5,1.1Z" transform="translate(-67.81 -27.18)"/><path class="cls-4" d="M118.9,104.3a5.55,5.55,0,0,1,2.5,1.8c.7,1.2.3,3-1.3,2.8-.8-.1-.8,1.1,0,1.2a2.68,2.68,0,0,0,2.9-2.9c-.1-2-1.7-3.2-3.4-3.9-.8-.3-1.4.7-.7,1Z" transform="translate(-67.81 -27.18)"/><path class="cls-4" d="M119.2,110.8a3.15,3.15,0,0,1,1.7,5c-.4.6.6,1.2,1,.6a4.32,4.32,0,0,0-2.4-6.7.57.57,0,1,0-.3,1.1Z" transform="translate(-67.81 -27.18)"/><path class="cls-4" d="M116.5,117c-.3,1.3-.5,2.6-.8,3.8a.57.57,0,0,0,.4.7c1,.3,1.7-.4,2.2-1.2s.8-.9,1.4-.2a4.3,4.3,0,0,0,1,.9c.7.3,1.3-.7.6-1s-1.2-1.5-2.2-1.5a1.66,1.66,0,0,0-1.2.5c-.4.4-.9,1.7-1.6,1.6.1.2.3.5.4.7.3-1.3.5-2.6.8-3.8a.56.56,0,1,0-1-.5Z" transform="translate(-67.81 -27.18)"/><path class="cls-4" d="M119.5,116.2a10.55,10.55,0,0,0,1.6,4.6c.4.6,1.4,0,1-.6a9.74,9.74,0,0,1-1.5-4c0-.8-1.2-.8-1.1,0Z" transform="translate(-67.81 -27.18)"/><path class="cls-4" d="M70.1,66.4c10.1-8.3,20.8-16.2,29-26.5.5-.6-.4-1.4-.8-.8-8.2,10.2-18.9,18.1-29,26.5-.7.4.2,1.3.8.8Z" transform="translate(-67.81 -27.18)"/><path class="cls-4" d="M69.9,66.2c-1.5-2.1-1.1-6.1-.8-8.6A29.47,29.47,0,0,1,71,49.3c.3-.7-.9-1-1.1-.3a30.63,30.63,0,0,0-2,9.9c-.1,2.4-.4,5.9,1.1,7.9.3.6,1.3,0,.9-.6Z" transform="translate(-67.81 -27.18)"/><path class="cls-4" d="M79.2,87.7a3.48,3.48,0,0,0-3.6,2.9,3,3,0,0,0,2.8,3.3.6.6,0,1,0,0-1.2,1.83,1.83,0,0,1-1.6-2.1A2.19,2.19,0,0,1,79.2,89c.7-.1.7-1.3,0-1.3Z" transform="translate(-67.81 -27.18)"/><path class="cls-4" d="M78,93a2.84,2.84,0,0,0-.1,5.5.57.57,0,0,0,.3-1.1,1.65,1.65,0,0,1,.1-3.2c.8-.2.4-1.4-.3-1.2Z" transform="translate(-67.81 -27.18)"/><path class="cls-4" d="M78.1,97.7c-1.3.6-2.6,1.6-2.7,3.1a2.51,2.51,0,0,0,2,2.7c.7.1,1.1-1,.3-1.1a1.43,1.43,0,0,1-1-2,3.09,3.09,0,0,1,2-1.7c.7-.3.1-1.3-.6-1Z" transform="translate(-67.81 -27.18)"/><path class="cls-4" d="M78,103a2.82,2.82,0,0,0-.3,5.6c.7.1,1.1-1,.3-1.1a1.66,1.66,0,0,1,0-3.3c.8-.1.8-1.3,0-1.2Z" transform="translate(-67.81 -27.18)"/><path class="cls-4" d="M78.3,108.1a3.64,3.64,0,0,0-3.4,3.3c-.1,1.9,2.4,2.8,3.9,3.1.7.1,1.1-1,.3-1.1a4.86,4.86,0,0,1-2.8-1.3c-.9-1.1.9-2.8,2-2.7.8,0,.8-1.2,0-1.3Z" transform="translate(-67.81 -27.18)"/><path class="cls-4" d="M79,114.1a3.13,3.13,0,0,0-3.6,2.5,3,3,0,0,0,3.1,3.2.6.6,0,1,0,0-1.2c-1,0-2.1-.9-1.9-1.9a1.87,1.87,0,0,1,2.1-1.4c.7.1,1-1.1.3-1.2Z" transform="translate(-67.81 -27.18)"/><path class="cls-4" d="M82,119.7c1.3.2,3,.1,3.2-1.6a4.67,4.67,0,0,0-2.6-4c-.7-.4-1.3.7-.6,1a4.3,4.3,0,0,1,1.9,2.1c.2.5.3,1.1-.3,1.3a5.65,5.65,0,0,1-1.3,0c-.7-.1-1,1-.3,1.2Z" transform="translate(-67.81 -27.18)"/><path class="cls-4" d="M82.2,114.9c1.4-.2,3.2-.6,3.3-2.3s-1.6-2.8-3.1-3.3c-.7-.3-1,.9-.3,1.1.9.3,2.2.9,2.2,2s-1.3,1.2-2.1,1.3-.8,1.3,0,1.2Z" transform="translate(-67.81 -27.18)"/><path class="cls-4" d="M82,110.4a3.67,3.67,0,0,0,.8-6.7.58.58,0,0,0-.6,1,2.53,2.53,0,0,1-.5,4.6.57.57,0,1,0,.3,1.1Z" transform="translate(-67.81 -27.18)"/><path class="cls-4" d="M82.3,104.5a2.63,2.63,0,0,0,2-2.7c0-1.5-1.2-2.7-2.3-3.6-.6-.5-1.4.4-.8.8a5.46,5.46,0,0,1,1.8,1.9c.4.9.2,2.1-.9,2.3a.66.66,0,0,0,.2,1.3Z" transform="translate(-67.81 -27.18)"/><path class="cls-4" d="M81.2,98.8a2.86,2.86,0,0,0,1.3-5.3c-.6-.4-1.2.6-.6,1a1.69,1.69,0,0,1-.7,3.1.6.6,0,0,0,0,1.2Z" transform="translate(-67.81 -27.18)"/><path class="cls-4" d="M81.8,94.3a3.52,3.52,0,0,0,2.4-2.2,2.22,2.22,0,0,0-1.1-2.5c-.7-.3-1.3.7-.6,1A1.07,1.07,0,0,1,83,92a2.55,2.55,0,0,1-1.5,1.2c-.7.1-.4,1.3.3,1.1Z" transform="translate(-67.81 -27.18)"/><path class="cls-4" d="M79.5,88.8A5.79,5.79,0,0,1,82,90.3c.5.5,1.4-.3.8-.8a6.22,6.22,0,0,0-3-1.8c-.7-.3-1,.9-.3,1.1Z" transform="translate(-67.81 -27.18)"/><path class="cls-4" d="M115.7,91.8a23.29,23.29,0,0,1,3.4-2c.7-.3.1-1.4-.6-1a37.91,37.91,0,0,0-3.4,2c-.6.4,0,1.4.6,1Z" transform="translate(-67.81 -27.18)"/><path class="cls-4" d="M78.8,121h0a.68.68,0,0,0,.6-.4.66.66,0,0,0-.1-.6.91.91,0,0,0-.7-.3c-1,.2-1.1,1.9-1,2.7,0,.3.5.5.7.4a6.27,6.27,0,0,0,2.7-1.6c.5-.6-.3-1.4-.8-.8a4.47,4.47,0,0,1-2.2,1.3c.2.1.5.3.7.4v-.7c0-.1.1-.2.1-.3s.2-.2.1-.2a4.88,4.88,0,0,0-.7-.3v.1a.9.9,0,0,0-.1-.5v.1c.2-.1.4-.3.6-.4h-.1c-.5-.1-.5,1.1.2,1.1Z" transform="translate(-67.81 -27.18)"/><path class="cls-4" d="M80.7,120.8a6.36,6.36,0,0,0,2,2,.63.63,0,0,0,.9-.4,2.05,2.05,0,0,0-.5-1.7c-.3-.5-.9-.9-.8-1.6s-1.1-.8-1.2,0a2.35,2.35,0,0,0,.5,1.6c.3.4.9.9.8,1.4a3.55,3.55,0,0,0,.9-.4,4.1,4.1,0,0,1-1.6-1.6c-.4-.6-1.4,0-1,.7Z" transform="translate(-67.81 -27.18)"/><path class="cls-4" d="M78.5,88a1.61,1.61,0,0,1-1.3-2.3c.3-.7-.7-1.3-1-.6a2.82,2.82,0,0,0,2.3,4.1.6.6,0,1,0,0-1.2Z" transform="translate(-67.81 -27.18)"/><path class="cls-4" d="M120.5,90.3a4.42,4.42,0,0,0,.6-1.6c.1-.8-1.1-.8-1.2,0a1.78,1.78,0,0,1-.4,1c-.4.6.6,1.2,1,.6Z" transform="translate(-67.81 -27.18)"/><path class="cls-4" d="M122.3,46.8c2.2,4.8,4.3,9,9.1,11.7a.58.58,0,1,0,.6-1c-4.6-2.6-6.5-6.7-8.6-11.3-.4-.7-1.4-.1-1.1.6Z" transform="translate(-67.81 -27.18)"/><path class="cls-4" d="M123.8,46.5v-.2a.6.6,0,1,0-1.2,0v.2a.6.6,0,1,0,1.2,0Z" transform="translate(-67.81 -27.18)"/><path class="cls-4" d="M132.4,57.7c.3-4.5-2.1-9.8-4.7-13.4-.4-.6-1.5,0-1,.6,2.4,3.5,4.8,8.5,4.5,12.8,0,.7,1.2.7,1.2,0Z" transform="translate(-67.81 -27.18)"/><path class="cls-1" d="M84.5,46c3.8,0,3.8-6,0-6s-3.9,6,0,6Z" transform="translate(-67.81 -27.18)"/><path class="cls-2" d="M70.9,63c1.1-4.8,1.8-10.1,3.7-14.6A28.56,28.56,0,0,1,85,36.5c.6-.4,0-1.5-.6-1-4,2.8-7.6,6.1-9.9,10.4C71.7,51,71,57.1,69.7,62.7c-.1.7,1,1.1,1.2.3Z" transform="translate(-67.81 -27.18)"/><path class="cls-2" d="M70.9,63.8c7.5-8,15.3-15.7,23.3-23.2.6-.5-.3-1.4-.8-.8C85.3,47.2,77.6,55,70,63c-.5.5.4,1.4.9.8Z" transform="translate(-67.81 -27.18)"/><path class="cls-2" d="M102.6,38.1c4.9,3.5,11.8,4,17.6,4.7.8.1.8-1.1,0-1.2-5.6-.7-12.3-1.2-17-4.6-.6-.4-1.2.6-.6,1.1Z" transform="translate(-67.81 -27.18)"/><path class="cls-2" d="M79.2,90.4h0a.58.58,0,1,0-1-.6,1.15,1.15,0,0,0,1.3,1.7c.7-.1.4-1.3-.3-1.1Z" transform="translate(-67.81 -27.18)"/><path class="cls-2" d="M79.9,100.3a2.43,2.43,0,0,1,1,1.4c.2.7,1.4.4,1.1-.3a3.75,3.75,0,0,0-1.6-2.1c-.5-.5-1.1.6-.5,1Z" transform="translate(-67.81 -27.18)"/><path class="cls-2" d="M78.7,105.8h-.3l-.3.3a.58.58,0,0,0,.6-.6.65.65,0,0,0-.6-.6,1,1,0,0,0-.9,1.2,1.42,1.42,0,0,0,1.5.9.6.6,0,1,0,0-1.2Z" transform="translate(-67.81 -27.18)"/><path class="cls-2" d="M78.4,110a1.12,1.12,0,0,0-1.4,1,1.58,1.58,0,0,0,1.3,1.4.57.57,0,1,0,.3-1.1c-.1,0-.2-.1-.3-.1a.1.1,0,0,1-.1-.1c0-.1-.1-.1-.2.1.8.2,1.1-1,.4-1.2Z" transform="translate(-67.81 -27.18)"/><path class="cls-2" d="M117.3,114c-.3,0-1.3-.1-1.1-.6a.57.57,0,1,0-1.1-.3c-.4,1.3.9,2,2,2.1.6.1.9-1.1.2-1.2Z" transform="translate(-67.81 -27.18)"/><path class="cls-2" d="M118.2,106.2a2.43,2.43,0,0,1,1.3,1.5c.2.7,1.4.4,1.1-.3a3.89,3.89,0,0,0-1.8-2.2.58.58,0,1,0-.6,1Z" transform="translate(-67.81 -27.18)"/><path class="cls-2" d="M117,101.5c-.2,0-.4-.2-.3-.4a.57.57,0,0,0-1.1-.3,1.47,1.47,0,0,0,1.5,1.9c.6-.1.6-1.3-.1-1.2Z" transform="translate(-67.81 -27.18)"/><path class="cls-2" d="M117.8,95.2a6.81,6.81,0,0,0,1.5-2.6.57.57,0,1,0-1.1-.3,4.45,4.45,0,0,1-1.2,2.1c-.6.5.2,1.3.8.8Z" transform="translate(-67.81 -27.18)"/><path class="cls-2" d="M117.7,116.5a7.54,7.54,0,0,1-.9,2.9c-.4.7.7,1.3,1,.6a11,11,0,0,0,1.1-3.5c.1-.8-1.1-.7-1.2,0Z" transform="translate(-67.81 -27.18)"/><path class="cls-1" d="M80.5,117.7l-.9-.3-.6.6h-.4v-.6a.91.91,0,0,0-.3-.7c-.2.1-.5.3-.7.4.3-.3.6-.7.9-1H79a6.37,6.37,0,0,0,.7-.2.59.59,0,0,0-.3-1.1,1.36,1.36,0,0,0-1.1,2.1c.2.3.5.6.7.9a4.13,4.13,0,0,1,.2,1.9c0,.3-.1,1.2.5,1.1.2,0,.7-1.6.8-1.8-.4,0-.7.1-1.1.1a5.56,5.56,0,0,0,2.4,2.4c.1-.4.2-.7.3-1.1a1.56,1.56,0,0,1-.6-.8c.2-.5.5-.6.9-.4.3,0,.6.2.9.1a1.28,1.28,0,0,0,1-1c.4-1.6-1.8-2.7-2.8-3.4-.6-.5-1.2.6-.6,1s1.2.7,1.6,1.1.8.8,0,1c-.1,0-.4-.1-.6-.1a1.34,1.34,0,0,0-1.5.7c-.6,1.2.3,3,1.6,3a.59.59,0,0,0,.3-1.1,4.82,4.82,0,0,1-2-2,.62.62,0,0,0-1.1.1c-.3.7-1.3,2.1-.7,2.9a1,1,0,0,0,1.5.1,1.61,1.61,0,0,0,.4-.7,7.41,7.41,0,0,0,.1-2.1,4.87,4.87,0,0,0-.1-1.2c-.1-.2-1.2-1.7-1-1.7-.1-.4-.2-.7-.3-1.1-.7.3-1.4,0-1.9.6a1.88,1.88,0,0,0-.4,1.6c.2.9,1.5,1.9,2.2.8s-.6-2.1-1.6-1.7a1.34,1.34,0,0,0,0,2.4,1.4,1.4,0,0,0,1.8-1.7,1.35,1.35,0,0,0-2.4-.3,1.15,1.15,0,0,0,1.4,1.6c1.1-.4.7-1.8-.2-2.1-.3-.1-.7.1-.7.4-.2,1,1.1,3.1,2.3,2,.9-.9-.6-2-1.3-1.1s.8,2.5,1.9,1.9c1.4-.7.2-2.5-1-2.5a.65.65,0,0,0-.6.6c.1,2,3,1.9,2.7,0a1.27,1.27,0,0,0-1.5-1c-1,.2-.6,1.4-.2,1.9.2.8,1.3.2.9-.5Z" transform="translate(-67.81 -27.18)"/></svg>