<svg id="Layer_1" data-name="Layer 1" xmlns="http://www.w3.org/2000/svg" viewBox="0 0 68.39 90.82"><defs><style>.cls-1{fill:#ffe329;}.cls-2{fill:#231f20;}.cls-3{fill:#060706;}.cls-4{fill:#f9ee53;}</style></defs><title>Blond</title><g id="_Group_" data-name="&lt;Group&gt;"><path class="cls-1" d="M121.6,46.1a1.5,1.5,0,0,1-1.3.1c-.2-.1-.4-.3-.6-.4-.7-.3-1.3.4-1.9.8a2.42,2.42,0,0,1-2.8-.2h-.1a1.3,1.3,0,0,0-1.6-.6,8.86,8.86,0,0,0-1.7.8,2.34,2.34,0,0,1-1.8.3c-.8-.2-1.4-1.1-2.3-1a1.42,1.42,0,0,0-.6.2,24.42,24.42,0,0,1-2.4,1l-.1-.2a2.46,2.46,0,0,1-2.6-.3,2.65,2.65,0,0,0-.6-.5c-.9-.4-1.9.9-2.9.7a10.37,10.37,0,0,1-1-.4A2,2,0,0,0,95,47h-.3a3.38,3.38,0,0,0-3.6-.4,3.18,3.18,0,0,1-.9.3c-.3,0-.5-.3-.8-.4a1.91,1.91,0,0,0-1.8,0,2.62,2.62,0,0,1-.9.5c-.3.1-.8-.1-.7-.5h0c-.3-.6-1.2-.6-1.9-.3a10.41,10.41,0,0,1-1.6.6l-.5-.1a1.08,1.08,0,0,0-1.4-.4,4.42,4.42,0,0,1-1.5.5c-.5.1-1.1-.3-1.1-.7h-.5c-2,2.6-2.7,5.9-3.3,9.2a87.54,87.54,0,0,0-1.8,12.5,76.08,76.08,0,0,0,1.5,17.1c.6,3.3,1.2,6.7,1.9,10a10.82,10.82,0,0,1-3.1-3.3h0a97.64,97.64,0,0,1-5.6-33.4h.1c-.8-3.4.3-7,1.6-10.2,3.4-8.2,9.3-15.8,17.3-19.6a18.77,18.77,0,0,1,3-1.2,28.41,28.41,0,0,1,11.2-1.5,29.69,29.69,0,0,1,11.8,1.7,24.43,24.43,0,0,1,2.4,1c8,3.9,13.9,11.4,17.3,19.6a17.94,17.94,0,0,1,1.8,8.7h0A97.64,97.64,0,0,1,128,90.1l-.1.5a10.56,10.56,0,0,1-3.7,4.4c.7-3.3,1.3-6.6,1.9-10a75.08,75.08,0,0,0,1.5-17.1,104.33,104.33,0,0,0-1.7-12.5c-.6-3.2-1.3-6.6-3.3-9.2Z" transform="translate(-66.26 -4.93)"/><path class="cls-1" d="M106.5,9.6h.4a7.49,7.49,0,0,1,5.8,1.2,7,7,0,0,1,3,5.1,16.72,16.72,0,0,1-.7,5.4,11.28,11.28,0,0,1-2.8,5.8l-.1.3a27.78,27.78,0,0,0-11.8-1.7,30.36,30.36,0,0,0-11.2,1.5l-.1-.7a9.05,9.05,0,0,1-6.8-6.9A8.75,8.75,0,0,1,90.4,9h0A4.36,4.36,0,0,1,92,7.3a11.54,11.54,0,0,1,4.5-1.6,11,11,0,0,1,6.7.7A6.09,6.09,0,0,1,106.5,9.6Z" transform="translate(-66.26 -4.93)"/></g><path class="cls-2" d="M76.2,94.4c-5.7-7.6-7.2-16.7-8.1-25.9-.1-.8-1.3-.8-1.2,0,1,9.4,2.5,18.7,8.3,26.5.5.6,1.5,0,1-.6Z" transform="translate(-66.26 -4.93)"/><path class="cls-2" d="M68.2,69c-.5-5.5-1.3-11.8,0-17.2C69.5,46,73.8,40.5,77.6,36c8.9-10.4,22.4-10.8,34.8-7.9.7.2,1.1-1,.3-1.1-12.1-2.9-25.8-2.8-34.9,6.9-3.8,4-7.7,9.2-9.8,14.3-2.6,6.4-1.7,14.1-1,20.8.1.8,1.3.8,1.2,0Z" transform="translate(-66.26 -4.93)"/><path class="cls-2" d="M76.1,94.5c-1.8-8.1-3.4-16.2-2.9-24.5.5-8,2.4-15.8,4.5-23.6a.57.57,0,1,0-1.1-.3c-2.1,7.8-4.1,15.8-4.5,23.9-.5,8.5,1.1,16.6,2.9,24.9.2.7,1.3.3,1.1-.4Z" transform="translate(-66.26 -4.93)"/><path class="cls-2" d="M77.2,46.5a3.66,3.66,0,0,0,2.5.9,2,2,0,0,0,1.1-.3c.2-.1.5-.4.7-.4s.7.7.8.8c.6.5,1.4-.3.8-.8s-1.3-1.5-2.1-1.1a6,6,0,0,1-1.1.6,1.9,1.9,0,0,1-1.9-.5c-.5-.5-1.3.3-.8.8Z" transform="translate(-66.26 -4.93)"/><path class="cls-2" d="M83,48.3c.7-.4,1.4-.9,2.1-1.3.9-.4.8,0,1.4.4a1.21,1.21,0,0,0,1,.3c.6,0,1.6-1,2-.8.7.3,1.3-.7.6-1a1.72,1.72,0,0,0-1.7,0c-.6.3-.8.7-1.6.2-.2-.1-.3-.4-.5-.5a1.23,1.23,0,0,0-1.3-.1c-1,.5-1.8,1.3-2.8,1.8-.5.3.1,1.4.8,1Z" transform="translate(-66.26 -4.93)"/><path class="cls-2" d="M89.5,47.3a1.29,1.29,0,0,0,1.2.9,2.47,2.47,0,0,0,1.6-.8c.5-.5-.3-1.4-.8-.8-.1.1-.7.7-.8.4-.2-.7-1.4-.4-1.2.3Z" transform="translate(-66.26 -4.93)"/><path class="cls-2" d="M92.1,47.8c1.1-1.3,2.2.4,3.5.2.3,0,.5-.2.8-.3a1.43,1.43,0,0,1,1.2-.6,8.79,8.79,0,0,1,1,.6c.6.4,1.2-.6.6-1a3.23,3.23,0,0,0-2.1-.8,1.42,1.42,0,0,0-.6.2c-.6.3-.4.5-1.2.5s-1.5-.6-2.4-.6a2.36,2.36,0,0,0-1.6.9c-.6.7.3,1.5.8.9Z" transform="translate(-66.26 -4.93)"/><path class="cls-2" d="M98.5,48c.8.1,1-.2,1.7-.4,1.3-.4,1.8.3,2.9.6a4.14,4.14,0,0,0,2.7-.1c.8-.3,2-1.3,2.8-1.3-.2-.1-.4-.3-.6-.4v.1a.57.57,0,0,0,1.1-.3v-.1a.55.55,0,0,0-.6-.4,2.45,2.45,0,0,0-1.6.6,5.58,5.58,0,0,1-2.1.9,5.43,5.43,0,0,1-2.7-.9c-.5-.2-.8-.5-1.3-.4-.7.1-1.5,1.1-2.1,1s-.9,1-.2,1.1Z" transform="translate(-66.26 -4.93)"/><path class="cls-3" d="M108.3,47.1c1.7,1,2.8,1.2,4.5.2.7-.4,1.1-.8,2-.4.4.1.7.5,1.1.7a3.32,3.32,0,0,0,2.4-.1c.7-.3.4-1.4-.3-1.1-1.8.7-2.6-1.1-4.2-1a2.46,2.46,0,0,0-1.1.4,4,4,0,0,1-1.6.8,2.22,2.22,0,0,1-2.3-.5c-.6-.4-1.2.6-.5,1Z" transform="translate(-66.26 -4.93)"/><path class="cls-2" d="M118.3,47.7a7.46,7.46,0,0,0,1.2-.7c.3-.2.6-.8,1-.9s.8.3,1.1.3a3.19,3.19,0,0,0,1.4-.3c.7-.3.1-1.3-.6-1-1,.4-1.7-.6-2.6-.2a2.18,2.18,0,0,0-.5.4,3,3,0,0,1-1.4,1.1c-.6.4-.3,1.5.4,1.3Z" transform="translate(-66.26 -4.93)"/><path class="cls-2" d="M90.2,26.3c-1.6-.9-3.9-1.7-5.2-3.1-1.9-2-1.8-5.7-1-8.2,1.9-5.2,6.8-5.4,11.5-4.1.7.2,1.1-1,.3-1.1-5.3-1.4-10.8-1.1-13,4.8a10.49,10.49,0,0,0,.1,7.6c1.2,2.7,4.2,3.8,6.6,5.1.8.4,1.4-.6.7-1Z" transform="translate(-66.26 -4.93)"/><path class="cls-2" d="M107.1,10.5c5.3-1.3,9.1,2.9,8.6,8-.3,3.4-2.2,6.2-4,9-.4.6.6,1.2,1,.6,2.6-4.1,5.7-9.1,3.7-14.1-1.5-3.9-5.7-5.5-9.6-4.6-.8.1-.5,1.3.3,1.1Z" transform="translate(-66.26 -4.93)"/><path class="cls-2" d="M124.7,95.2c3-16.3,6.5-34-1.4-49.6-.3-.7-1.4-.1-1,.6,7.8,15.3,4.2,32.7,1.3,48.7a.57.57,0,1,0,1.1.3Z" transform="translate(-66.26 -4.93)"/><path class="cls-2" d="M124.3,95.6c5.4-4.7,7-12.1,8.5-18.8a74.28,74.28,0,0,0,1.3-25.3c-.1-.8-1.3-.4-1.1.3a70.83,70.83,0,0,1-1.3,24.7c-1.4,6.5-3,13.8-8.2,18.3-.6.5.2,1.3.8.8Z" transform="translate(-66.26 -4.93)"/><path class="cls-2" d="M134.2,51.9c-2.6-9.9-11-22.8-21.9-25-.7-.2-1.1,1-.3,1.1,10.4,2.1,18.6,14.7,21,24.2a.62.62,0,1,0,1.2-.3Z" transform="translate(-66.26 -4.93)"/><path class="cls-2" d="M91.8,9.6c-.8-2.3,6.1-3.4,7.4-3.5a7.61,7.61,0,0,1,7,3.8.58.58,0,1,0,1-.6A9.13,9.13,0,0,0,98,5c-2.2.2-8.6,1.5-7.4,4.9.3.7,1.4.4,1.2-.3Z" transform="translate(-66.26 -4.93)"/><path class="cls-4" d="M72.2,80.5c-2.5-12-4.2-24.7,2.4-35.7a.58.58,0,1,0-1-.6C66.8,55.5,68.4,68.5,71,80.8a.62.62,0,0,0,1.2-.3Z" transform="translate(-66.26 -4.93)"/><path class="cls-4" d="M127.5,87.6c4.3-7.3,5.3-15.6,4.6-24-.6-7.3-1.5-15.5-6.7-21-.5-.6-1.4.3-.8.8,5.3,5.5,6.1,14.5,6.5,21.8.4,7.7-.6,15.1-4.5,21.8-.5.6.5,1.2.9.6Z" transform="translate(-66.26 -4.93)"/><path class="cls-4" d="M91.5,23.4c-1.3-1.3-3.4-2.7-4.3-4.4s.2-2.8,1.5-3.6c.6-.4,1.8-1.2,2.5-.7a.58.58,0,1,0,.6-1c-1.8-1.1-5,1.1-5.8,2.8-1.5,3.2,2.7,6,4.6,7.9a.68.68,0,0,0,.9-1Z" transform="translate(-66.26 -4.93)"/><path class="cls-4" d="M96.2,8.5a13.87,13.87,0,0,1,8.5,2.9c.6.5,1.2-.6.6-1a15.05,15.05,0,0,0-9.1-3c-.7-.1-.7,1,0,1.1Z" transform="translate(-66.26 -4.93)"/><path class="cls-4" d="M111.2,25.1c1.5-2.8,3-6.1,1.8-9.2a7.2,7.2,0,0,0-5.6-4.5c-.7-.1-1.1,1-.3,1.1a5.84,5.84,0,0,1,5,4.8c.5,2.6-.7,5-1.9,7.2-.4.6.6,1.2,1,.6Z" transform="translate(-66.26 -4.93)"/></svg>