<svg id="Layer_1" data-name="Layer 1" xmlns="http://www.w3.org/2000/svg" viewBox="0 0 73.35 69.57"><defs><style>.cls-1{fill:#602f13;}.cls-2{fill:#141113;}.cls-3{fill:#221f1f;}</style></defs><title>Black</title><path class="cls-1" d="M79.7,91c.8-.1,1.6-.1,2.4-.2-.2-.3-.3-.6-.5-.9-.3.5-1.6.3-2.1.5a.57.57,0,1,0,.3,1.1,2.73,2.73,0,0,0,1.2-.6c.4-.4.5-1.3,1.3-.9,0-.4.1-.7.1-1.1A2.25,2.25,0,0,1,81,89a.57.57,0,1,0-.3,1.1,20.11,20.11,0,0,1,4.4,2.2c.6.4,1.2-.6.6-1A22,22,0,0,0,81.1,89c-.1.4-.2.8-.3,1.1a4.52,4.52,0,0,0,2-.1.59.59,0,0,0,.1-1.1,1.94,1.94,0,0,0-1.8-.3c-.8.3-.7,1.5-1.5,1.7.1.4.2.8.3,1.1,1.1-.3,2.2.1,2.9-1a.63.63,0,0,0-.5-.9c-.8.1-1.6.1-2.4.2S79,91,79.7,91Z" transform="translate(-63.63 -24.74)"/><path class="cls-2" d="M74.7,84.2a12.34,12.34,0,0,1-2.2-2.9c-.9.5-1.7,1-2.6,1.5.7,1,1.4,1.9,2,2.9l2-2a11.41,11.41,0,0,0-1.1-1.1c-.8.6-1.6,1.2-2.3,1.8l2.1,2.4c1.2,1.3,3.1-.4,2.3-1.8-.6-1.2-1.3-2.5-1.9-3.7-.9.5-1.7,1-2.6,1.5.5.7,1,1.5,1.6,2.2,1.1,1.5,3.6.1,2.6-1.5A12.62,12.62,0,0,1,73,80.2c-.9.4-1.8.8-2.7,1.1.5.9,1,1.7,1.5,2.6,1,1.7,3.4.2,2.6-1.5-.6-1.1-1.1-2.3-1.7-3.4-.9.5-1.7,1-2.6,1.5l1.8,2.4c.9-.5,1.7-1,2.6-1.5A8.92,8.92,0,0,1,73,78.7c-.9.4-1.8.8-2.7,1.1a13.5,13.5,0,0,0,2,2.7c1.2,1.3,3-.4,2.3-1.8-1-2.1-1.9-4.2-2.7-6.4-.9.4-1.8.8-2.7,1.1.5,1,1.1,2.1,1.6,3.1.9-.5,1.7-1,2.6-1.5a8.45,8.45,0,0,1-1.3-2.7c-.5-1.5-3.1-1.4-2.9.4a13.91,13.91,0,0,0,1.4,4.8c.8,1.6,3,.4,2.7-1.1a12.66,12.66,0,0,0-1.2-3.9c-.9.5-1.7,1-2.6,1.5a4.23,4.23,0,0,1,.5.7c.8,1,3,.9,2.8-.8a8.56,8.56,0,0,0-.5-2.3,1.51,1.51,0,0,0-2.9.8,57.57,57.57,0,0,0,1.8,5.9c.7,1.7,3.4,1.1,2.9-.8a13.32,13.32,0,0,1-.5-1.9c-.9.4-1.8.8-2.7,1.1l.9,1.5c.9-.4,1.8-.8,2.7-1.1a5.67,5.67,0,0,1-.8-1.3c-.9.5-1.7,1-2.6,1.5a7.46,7.46,0,0,1,.7,1.2,1.48,1.48,0,0,0,2.7-.4V80a1.51,1.51,0,0,0-1-1.8c-.1,0-.1,0-.2-.1a1.51,1.51,0,0,0-1.8,1c-.5,1.6,1.3,4,1.9,5.4.8-.6,1.6-1.2,2.3-1.8-.3-.3-.6-.7-.9-1-.8.6-1.6,1.2-2.3,1.8a8.23,8.23,0,0,1,1.6,2.2c.9-.5,1.7-1,2.6-1.5A10.53,10.53,0,0,1,75,81.3c-.8.5-1.7,1-2.5,1.4a16.32,16.32,0,0,1,1.7,2,1.5,1.5,0,0,0,2.6-1.5c-.5-1-1-1.9-1.5-2.9-.8.6-1.6,1.2-2.3,1.8a11.32,11.32,0,0,0,1,1.3c.8-.6,1.6-1.2,2.3-1.8A9.56,9.56,0,0,1,74,79c-1-1.6-3.6-.1-2.6,1.5a66.46,66.46,0,0,1,4.1,7.4c.9-.5,1.7-1,2.6-1.5-1.2-2-2.3-4.1-3.3-6.2-.8.6-1.6,1.2-2.3,1.8l.5.5,2.1-2.1a8.74,8.74,0,0,0-1-.8c-1-.9-3-.1-2.5,1.4.4,1.3.9,2.6,1.3,3.8L74.7,83l.1.1c-.8.6-1.6,1.2-2.3,1.8.2.4.4.8.7,1.3.1-.5.3-1,.4-1.4.3-.3.1-.5-.4-.5-1-.5-2.7.3-2.2,1.7,0,.3.1.6.1.9.2-.4.5-.9.7-1.3h.3l1,1c0-.1-.1-.2-.1-.3l-1.8,1.8c0-.2.1-.4.1-.6l1-1c.1,0,.2-.1.3-.1-.6.7-1.1,1.5-1.7,2.2a10.63,10.63,0,0,1,1.1.9c1,1.2,2.9-.1,2.5-1.4-.3-1-.6-1.9-.8-2.9-.8.5-1.7,1-2.5,1.4.9.8,1.8,1.6,2.8,2.4a1.48,1.48,0,0,0,2.3-1.8c-.7-1.7-1.4-3.4-2-5.2-.8.5-1.7,1-2.5,1.4.9,1,1.8,1.9,2.7,2.9A1.49,1.49,0,0,0,77,84.9c-.5-1.4-1.1-2.7-1.7-4.1l-2,2,.6.6c.6-.8,1.2-1.6,1.8-2.3a4.07,4.07,0,0,1-1.9-2.2c-.9.5-1.7,1-2.6,1.5.4.5.8,1,1.2,1.6.9,1.2,3.4.6,2.7-1.1-.2-.4-.3-.8-.5-1.2-.8.5-1.7,1-2.5,1.4.1.2.3.4.4.6.9-.5,1.7-1,2.6-1.5a4.23,4.23,0,0,1-.5-.7C73.5,78,71,79.3,72,81l2.7,4.8c.6-.7,1.1-1.5,1.7-2.2-.1-.1-.3-.1-.4-.2-1.2-1-3.3.3-2.3,1.8l1.5,2.4c.8,1.4,3.4.5,2.7-1.1-.4-1.1-.9-2.2-1.3-3.3-.8.5-1.7,1-2.5,1.4A10,10,0,0,1,75.7,87c.9-.5,1.7-1,2.6-1.5A21,21,0,0,1,77,82.9c-.9.5-1.7,1-2.6,1.5.5.8.9,1.5,1.3,2.3.9-.5,1.7-1,2.6-1.5a6.38,6.38,0,0,1-.8-1.4c-.8.6-1.6,1.2-2.3,1.8a14.7,14.7,0,0,1,1,1.3l2.1-2.1c-.3-.3-.6-.5-.9-.8-1-.9-3.1-.1-2.5,1.4a16.58,16.58,0,0,0,1.8,3.5c.8-.6,1.6-1.2,2.3-1.8a2.18,2.18,0,0,1-.5-.4,1.49,1.49,0,0,0-2.1,2.1c.4.5.9,1,1.3,1.5,1.1,1.3,3.3-.4,2.3-1.8-.7-1.1-1.4-2.1-2.1-3.2-.9.5-1.7,1-2.6,1.5.6.8,1.2,1.6,1.7,2.4.6-.7,1.1-1.5,1.7-2.2a57.7,57.7,0,0,0-5.8-2.2,6.45,6.45,0,0,0-2-.3c-.2,0-1.8.3-1.5,0l-2.1-2.1a7.62,7.62,0,0,0-1.7,3.2c1,.3,1.9.5,2.9.8a11.37,11.37,0,0,1,1.3-3,1.48,1.48,0,0,0-2.3-1.8c-1.4,1.3-2.5,3.3-.7,4.7a4,4,0,0,0,2.8.8c1.1-.1,1.8-1.1,2.1-1.3H70.2c2,1.1,3.3,4.7,5.9,4.8a2.35,2.35,0,0,0,2.3-2.4c-.8.4-1.7.7-2.5,1.1A14.48,14.48,0,0,0,77.7,91,1.48,1.48,0,0,0,80,89.2c-.8-1.3-1.6-2.6-2.3-3.9l-2,2a5.11,5.11,0,0,1,2.1,1.5l2.1-2.1a18.78,18.78,0,0,1-2.5-2.4c-.6.8-1.2,1.6-1.8,2.3a14.43,14.43,0,0,1,3.2,2.3c1.4,1.3,3.5-.8,2.1-2.1A38.33,38.33,0,0,1,78,84c-.6.8-1.2,1.6-1.8,2.3.4.3.8.7,1.2,1,.6-.8,1.2-1.6,1.8-2.3a6.73,6.73,0,0,1-1.5-1.4l-2.1,2.1a45.62,45.62,0,0,1,3.1,4.2c.8-.6,1.6-1.2,2.3-1.8-.3-.3-.6-.5-.9-.8-.6.8-1.2,1.6-1.8,2.3l.2.2c-.2-.4-.5-.9-.7-1.3v.3c.2-.4.5-.9.7-1.3a.35.35,0,0,0-.2.1c-1.4.8-.6,2.6.8,2.8-.1,0-.3-.1-.4-.1.8-.5,1.7-1,2.5-1.4a8.74,8.74,0,0,1-.8-1c-.6.8-1.2,1.6-1.8,2.3.2.2.3.4.5.5l2-2-.4-.4c-1-1.6-3.6-.1-2.6,1.5a4.31,4.31,0,0,0,1.5,1.5,1.46,1.46,0,0,0,2-2A4.1,4.1,0,0,0,80,87.7c-1.5-1-2.8,1.1-1.8,2.3a8.74,8.74,0,0,1,.8,1c1.1,1.3,2.7-.2,2.5-1.4-.2-1.4-1.1-1.9-2.4-2.1.3.9.5,1.8.8,2.8,1.4-.7,1.2-2.3,0-3.2-1.4-1-3.1,1.3-1.8,2.3.3.3.6.5.9.8,1.2,1,3.3-.3,2.3-1.8-1.1-1.7-2.3-3.2-3.5-4.8s-3.3.6-2.1,2.1a9.52,9.52,0,0,0,2.1,1.9c1.4,1,3-1.2,1.8-2.3a7.94,7.94,0,0,0-1.8-1.4c-1.4-1-2.9,1.1-1.8,2.3A38.33,38.33,0,0,0,78.9,89L81,86.9a16.47,16.47,0,0,0-3.8-2.7,1.48,1.48,0,0,0-1.8,2.3,28.34,28.34,0,0,0,2.5,2.4c1.5,1.1,3.5-.8,2.1-2.1a17.13,17.13,0,0,0-2.7-2,1.46,1.46,0,0,0-2,2c.8,1.3,1.6,2.6,2.3,3.9.8-.6,1.6-1.2,2.3-1.8-.6-.6-1.2-1.1-1.8-1.7a1.47,1.47,0,0,0-2.5,1.1c.8-.7.7-1.4-.4-1.8-.4-.5-.9-.9-1.3-1.4a11.63,11.63,0,0,0-2-1.8,1.59,1.59,0,0,0-1.5,0c-.4.3-2.3,2-.6.5-.8-.6-1.6-1.2-2.3-1.8a17.25,17.25,0,0,0-1.6,3.7,1.51,1.51,0,0,0,2.9.8c.3-.6.7-1.3,1-1.9,1.2-1.5-.8-3.6-2.1-2.1s-1.5,3.8.4,5c1.1.7,1.7.3,2.9.3,2.5,0,5,1.4,7.4,2.3,1.2.5,2.4-1.2,1.7-2.2-.6-.8-1.2-1.6-1.7-2.4-1.1-1.5-3.6-.1-2.6,1.5.7,1.1,1.4,2.1,2.1,3.2.8-.6,1.6-1.2,2.3-1.8-.4-.5-.9-1-1.3-1.5L76.8,89a2.18,2.18,0,0,1,.5.4c1.2,1,3.3-.3,2.3-1.8a15.09,15.09,0,0,1-1.5-2.8c-.8.5-1.7,1-2.5,1.4.3.3.6.5.9.8a1.49,1.49,0,0,0,2.1-2.1,14.7,14.7,0,0,1-1-1.3c-1.1-1.4-3,.4-2.3,1.8a3.92,3.92,0,0,0,.8,1.4,1.5,1.5,0,0,0,2.6-1.5c-.4-.8-.8-1.5-1.3-2.3a1.5,1.5,0,0,0-2.6,1.5c.4.9.8,1.7,1.3,2.6a1.5,1.5,0,0,0,2.6-1.5,20.25,20.25,0,0,0-2.1-3c-.9-1.1-3,.1-2.5,1.4.4,1.1.9,2.2,1.3,3.3.9-.4,1.8-.8,2.7-1.1l-1.5-2.4c-.8.6-1.6,1.2-2.3,1.8a4,4,0,0,0,1.7.9,1.52,1.52,0,0,0,1.7-2.2L75,79.5c-.9.5-1.7,1-2.6,1.5a4.23,4.23,0,0,1,.5.7c1.1,1.5,3.6.2,2.6-1.5a5.38,5.38,0,0,0-.9-1.2c-1-1-3.1,0-2.5,1.4.2.4.3.8.5,1.2.9-.4,1.8-.8,2.7-1.1-.4-.5-.8-1-1.2-1.6a1.5,1.5,0,0,0-2.6,1.5,7.76,7.76,0,0,0,2.9,3.3c1.5,1,2.8-1.1,1.8-2.3A3.18,3.18,0,0,0,75,80.3a1.46,1.46,0,0,0-2,2c.5,1.1,1,2.2,1.4,3.3.8-.5,1.7-1,2.5-1.4-.9-1-1.8-1.9-2.7-2.9a1.49,1.49,0,0,0-2.5,1.4c.7,2,1.5,3.9,2.3,5.9.8-.6,1.6-1.2,2.3-1.8-.9-.8-1.8-1.6-2.8-2.4A1.5,1.5,0,0,0,71,85.8c.3,1,.6,1.9.8,2.9.8-.5,1.7-1,2.5-1.4a5.58,5.58,0,0,0-2.5-1.7c-1.2-.5-2.3,1.2-1.7,2.2,2.5,4.1,6.6-1.1,1.9-2.6A1.46,1.46,0,0,0,70.2,87c1,3,4.7,1,3.6-1.9-.7.6-1.5,1.1-2.2,1.7,1.6.7,2.6,1.2,4.1,0a1.55,1.55,0,0,0,.4-1.4,5.1,5.1,0,0,0-1.4-2.6,1.47,1.47,0,0,0-2.3,1.8,2.1,2.1,0,0,0,1.7,1.3c1,.2,2.2-.7,1.8-1.8-.4-1.3-.9-2.6-1.3-3.8-.8.5-1.7,1-2.5,1.4a8.74,8.74,0,0,0,1,.8c1.4,1.2,3.5-.8,2.1-2.1l-.5-.5a1.48,1.48,0,0,0-2.3,1.8,45.9,45.9,0,0,0,3.3,6.2c1,1.7,3.4.2,2.6-1.5A53.48,53.48,0,0,0,74.2,79c-.9.5-1.7,1-2.6,1.5a14.32,14.32,0,0,0,2.8,3.2,1.48,1.48,0,0,0,2.3-1.8A6.69,6.69,0,0,0,75.3,80c-1.2-1.3-3.1.4-2.3,1.8.5,1,1,1.9,1.5,2.9.9-.5,1.7-1,2.6-1.5a27.46,27.46,0,0,0-2.2-2.6c-1-1-3.1,0-2.5,1.4a20.83,20.83,0,0,0,2,3.6c1.1,1.5,3.6.2,2.6-1.5a18.6,18.6,0,0,0-2.1-2.8c-1.1-1.2-3.3.4-2.3,1.8A7,7,0,0,0,74,84.7a1.47,1.47,0,0,0,2.3-1.8,23.13,23.13,0,0,1-1.6-3.1c-.6.3-1.2.7-1.8,1,.1,0,.1,0,.2.1-.3-.6-.7-1.2-1-1.8v.1a25.12,25.12,0,0,0,2.7-.4,7.46,7.46,0,0,0-.7-1.2,1.5,1.5,0,0,0-2.6,1.5,3.53,3.53,0,0,0,.8,1.3c.9,1.2,3.4.6,2.7-1.1A10.08,10.08,0,0,0,73.8,77c-.9-1.4-3.2-.5-2.7,1.1a13.32,13.32,0,0,1,.5,1.9c1-.3,1.9-.5,2.9-.8a30.88,30.88,0,0,1-1.8-5.9c-1,.3-1.9.5-2.9.8a8.33,8.33,0,0,0,.4,1.5c.9-.3,1.8-.5,2.8-.8a4.23,4.23,0,0,1-.5-.7,1.5,1.5,0,0,0-2.6,1.5,9.63,9.63,0,0,1,.9,3.2c.9-.4,1.8-.8,2.7-1.1a7.49,7.49,0,0,1-1-3.3c-1,.1-1.9.3-2.9.4a15,15,0,0,0,1.6,3.4,1.5,1.5,0,0,0,2.6-1.5c-.5-1-1.1-2.1-1.6-3.1-.8-1.5-3.3-.4-2.7,1.1.9,2.4,1.9,4.8,3,7.1.8-.6,1.6-1.2,2.3-1.8a8,8,0,0,1-1.5-2.1c-.8-1.5-3.3-.5-2.7,1.1a13.82,13.82,0,0,0,1.8,3.4c1.1,1.5,3.7,0,2.6-1.5l-1.8-2.4A1.5,1.5,0,0,0,70.6,80c.6,1.1,1.1,2.3,1.7,3.4.9-.5,1.7-1,2.6-1.5-.5-.9-1-1.7-1.5-2.6-.8-1.4-3.3-.5-2.7,1.1a20.88,20.88,0,0,0,1.9,4c.9-.5,1.7-1,2.6-1.5-.5-.7-1-1.5-1.6-2.2A1.5,1.5,0,0,0,71,82.2c.6,1.2,1.3,2.5,1.9,3.7.8-.6,1.6-1.2,2.3-1.8l-2.1-2.4c-1.1-1.3-3.3.4-2.3,1.8a8.75,8.75,0,0,0,2.1,2.2c1.2.9,2.8-.8,2-2a29.77,29.77,0,0,0-2-2.9,1.5,1.5,0,0,0-2.6,1.5A18.18,18.18,0,0,0,73,85.8c1,1.9,3.1-.2,1.7-1.6Z" transform="translate(-63.63 -24.74)"/><path class="cls-2" d="M129.7,86.5l1.2-3.3c-.3-.1-.7-.3-1-.4-.1.6-.2,1.2-.3,1.9l1.1.3a6.16,6.16,0,0,1,.6-3.8c-.4-.1-.8-.1-1.2-.2,0,1.1-.1,2.3-.1,3.4h1.1a9.23,9.23,0,0,1-.5-3.7l-1.1.3c.4,1.2.7,2.4,1.1,3.7.4-.1.8-.1,1.2-.2a39.16,39.16,0,0,1-1.3-4.9c-.4.2-.7.3-1.1.5a14.69,14.69,0,0,1,1.9,4.9.57.57,0,0,0,1.1-.3c-.3-1.3-.5-2.6-.8-3.9-.4.1-.8.2-1.1.3a30.3,30.3,0,0,1,1.2,4.3c.3-.2.7-.4,1-.6-.7-.6-1.5-1.2-2.2-1.9-.3-.2-.8-.3-.9.1a6.82,6.82,0,0,0,1,7.8c.1-.3.3-.7.4-1l-1.8-.3c-.5-.2-.9.5-.7.9s.5.9.8,1.4,1.2.2,1.1-.5c0-.2-.1-.5-.1-.7-.4.2-.7.3-1.1.5.2.3.5.6.7.9.5.6,1.4.1,1-.6a5.94,5.94,0,0,0-.4-.8,5.5,5.5,0,0,1-.7.9,2.19,2.19,0,0,1,.5.3c.3-.2.6-.5.9-.7-.1.3-.1.6-.2.9.4,0,.7-.1,1.1-.1-.2-.1-.3-.3-.5-.4.3-.2.6-.5.9-.7a7,7,0,0,0-1-.8c-.6-.5-1.4.3-.8.8.4.5.8.9,1.2,1.4.3-.2.6-.5.9-.7-.3-.2-.6-.5-.9-.7a.58.58,0,0,0-.9.7c.5,1.1.3.8,1.2,1.6.4.3,1.2,0,1-.6s-.5-1.2-.7-1.8a5.5,5.5,0,0,0-.9.7c.4.4.9.7,1.3,1.1.6.5,1.4-.3.8-.8l-1.5-1.5a.57.57,0,0,0-.9.7c.5,1,.3.8,1.1,1.5.6.6,1.3-.3.8-.8-.6-.7-1.1-1.5-1.7-2.2-.4-.5-1.3.2-.9.7.2.3.3.6.5.9.4.7,1.3.1,1-.6-.6-1.4-.5-1.9-1.7-2.6-.4-.2-8.2,2.3-5.4.8a5.5,5.5,0,0,1,.9.7l2.7-3.6-.8-.8c-.7.7-1.4,1.3-2.1,2a5.5,5.5,0,0,0,.7.9,12.72,12.72,0,0,1,3.5-3.8l-.8-.8a10.91,10.91,0,0,1-3.9,3.8l.8.8a7,7,0,0,1,2.9-3.7c-.2-.3-.5-.6-.7-.9a15.28,15.28,0,0,1-4.5,3.9l.8.8a13.23,13.23,0,0,1,4.7-4.7c-.2-.3-.5-.6-.7-.9a23.27,23.27,0,0,1-5.1,4.8c.2.3.5.6.7.9.7-.5,1.3-.9,2-1.4a5.5,5.5,0,0,0-.7-.9c-2.4,3.9-7.4,5-11.4,6.5a.62.62,0,0,0-.1,1.1,3.88,3.88,0,0,0,1.9.6c.7.1,1.1-1,.3-1.1s-1.3-.3-2-.5c-.4-.1-.7.2-.8.6a1.7,1.7,0,0,0-.7.1c-.7.1-.8,1.2,0,1.2,1.8-.1,1.6-.1,3.3-.3-.1-.4-.2-.8-.3-1.1a2.92,2.92,0,0,1-.9.2c.2.4.3.7.5,1.1a21.81,21.81,0,0,0,3.8-3l-.8-.8a15.93,15.93,0,0,0-1.3,1.3.58.58,0,0,0,.6,1l2.1-.9c-.2-.3-.4-.7-.6-1-.4.2-.8.5-1.2.7-.6.2-.6,1.3.2,1.2,1.4.1,2.8.2,4.2.2a.6.6,0,1,0,0-1.2c-.9-.1-1.7-.3-2.6-.4-.1.4-.2.8-.3,1.1a18.59,18.59,0,0,0,3.3.4c-.1-.4-.1-.8-.2-1.2-.3.1-.5.2-.8.3.1.4.2.8.3,1.1a14.19,14.19,0,0,1,2.9-1c-.2-.4-.3-.7-.5-1.1-.8.5-1.5,1-2.3,1.5a.58.58,0,0,0,.6,1c1-.5,1.9-1,2.9-1.5-.2-.3-.5-.6-.7-.9a10,10,0,0,0-1.1,1l.8.8c.9-.3,1.8-.7,2.7-1a.6.6,0,0,0,0-1.2h-2.1c.1.4.1.8.2,1.2l3.5.3c.1-.4.1-.8.2-1.2a12.09,12.09,0,0,0-1.8-.5.58.58,0,0,0-.6,1,4.72,4.72,0,0,0,2,1,.61.61,0,0,0,.6-1c-.5-.4-1.1-.7-1.6-1.1.1.6,1,.5,1.1,0,.3-.8.5-1.5.8-2.3-.4-.2-.7-.3-1.1-.5-.2.6-.4,1.1-.6,1.7s.6,1.3,1,.6V87.9c.3-.7-.6-1.3-1-.6-2,2.3-2.2,2.1-.7-.6.3-.5-.3-1.2-.8-.8-1.2.8-2.5,1.5-3.8,2.2l.8.8c.5-.6,1.1-1.2,1.6-1.8l-.8-.8a9.31,9.31,0,0,1-3.7,3.4l.8.8c.8-.9,1.6-1.7,2.4-2.6l-.8-.8a10.05,10.05,0,0,1-3.4,3.4l.8.8c1.2-.9,2.3-1.8,3.5-2.8-.2-.3-.4-.7-.6-1a14,14,0,0,1-3.8,3c.2.3.5.6.7.9.6-.5,1.1-1,1.7-1.5-.2-.3-.5-.6-.7-.9-.3.4-.7.7-1,1.1-.5.6.3,1.4.8.8.8-.7,1.6-1.5,2.4-2.2.6-.5-.3-1.3-.8-.8-1.2.6-2.4,1.2-3.6,1.9.2.4.3.7.5,1.1q3.6-2.55,7.2-4.8c-.2-.3-.5-.6-.7-.9a17,17,0,0,1-4.4,3.6c.2.3.5.6.7.9,1.5-1.6,3.1-3.1,4.8-4.6-.3-.2-.6-.5-.9-.7a5.78,5.78,0,0,1-1.9,2.5c.3.2.6.5.9.7l2.7-4.2c.4-.6-.5-1.3-.9-.7l-1.1,1.4c.3.2.6.5.9.7a7.76,7.76,0,0,1,1.6-2.4c.4-.5-.5-1.2-.9-.7-1.3,1.5-2.5,3-3.8,4.5.3.2.6.5.9.7l1.9-2.2-.8-.8c-1.5,1.8-3,3.6-4.4,5.4-.5.6.3,1.4.8.8a18,18,0,0,0,2-1.9l-.8-.8a6.86,6.86,0,0,1-2.7,2.9c.3.2.6.5.9.7.6-.6,1.3-1.2,1.9-1.7a5.5,5.5,0,0,1-.9-.7c-.2.5-.5.9-.7,1.4s.3,1.2.8.8c.9-.2,1.7-.5,2.6-.7-.1-.4-.1-.8-.2-1.2a18.06,18.06,0,0,0-3.7,1.8.58.58,0,1,0,.6,1,7.89,7.89,0,0,0,2.9-1.8l-.8-.8c-.6.7-1.2,1.3-1.8,2,.3.2.6.5.9.7l.9-1.8a5.5,5.5,0,0,0,.7.9,1.38,1.38,0,0,0-.4-.3c.3.1.7.3,1,.4a10.93,10.93,0,0,0,.8-1.5c-.3-.2-.6-.5-.9-.7-.1,0-.2,0-.2-.1l.8.8a16.47,16.47,0,0,1,2.2-2.4l-.8-.8c-.7.7-1.3,1.4-2,2.1-.5.6.3,1.4.8.8,3.4-3.3,4.7-5.9,5.1-10.7.1-1.7.7-4,.1-5.6s-4.4-3.4-4.2-4.4c.1-.7-.9-1.1-1.1-.3a3.68,3.68,0,0,0,2.1,4.9c.7.3,1.3-.7.6-1-.5-1.2-1.1-2.4-1.6-3.5-.4-.1-.8-.2-1.1-.3-.3,2,.7,2.1,2,3.3,4.8,4.6,1.4,13-2.7,16.9l.8.8c.7-.7,1.3-1.4,2-2.1.5-.6-.3-1.4-.8-.8a17,17,0,0,0-2.2,2.4.57.57,0,0,0,.8.8c1-.9,1.8-1.6,1.7-3a.65.65,0,0,0-.6-.6c-2.2.2-5.6,3.4-4,5.6a.91.91,0,0,0,.7.3,3.65,3.65,0,0,0,2.6-2.5.57.57,0,0,0-.9-.7c-1.2,1-1.1.8-1.2,2.4,0,.5.7.8,1,.4.5-.6.6-.7.5-1.5a.64.64,0,0,0-.8-.6c-.8.2-.8.3-1.3,1-.3.4.2,1,.7.9,1.2-.4,1.6-1,1.2-2.2-.1-.4-.5-.5-.9-.4a4.2,4.2,0,0,0-2.6,2.6.57.57,0,0,0,.9.7c1-.9,2-1.8,1.9-3.3a.58.58,0,0,0-.6-.6c-1.7,0-2.4,1.5-2.8,3-.1.4.3.9.7.7a5.14,5.14,0,0,0,2.7-2.1c.3-.5-.3-1.2-.8-.8a12.68,12.68,0,0,1-2.9,1.8c.2.3.4.7.6,1a10.61,10.61,0,0,1,3.4-1.6c.7-.2.5-1.1-.2-1.2a3.67,3.67,0,0,0-3.2.8l.8.8a3.81,3.81,0,0,0,.8-1.7c.2-.5-.4-.9-.9-.7-1.6,1-1.2.7-2.3,2.2-.4.6.5,1.1.9.7a11.77,11.77,0,0,0,2.8-3.1c.3-.5-.3-1.2-.8-.8a9,9,0,0,0-2.3,2l.8.8c1.5-1.8,3-3.6,4.4-5.4a.57.57,0,0,0-.8-.8,5.77,5.77,0,0,0-2.1,2.5c-.3.6.5,1.3.9.7,1.3-1.5,2.5-3,3.8-4.5-.3-.2-.6-.5-.9-.7a10,10,0,0,0-1.6,2.4c-.3.6.5,1.3.9.7l1.1-1.4c-.3-.2-.6-.5-.9-.7l-2.7,4.2a.57.57,0,0,0,.9.7,7.89,7.89,0,0,0,2.1-2.7.57.57,0,0,0-.9-.7c-1.6,1.5-3.2,3-4.8,4.6a.57.57,0,0,0,.7.9,14,14,0,0,0,4.6-3.8c.4-.5-.1-1.3-.7-.9q-3.75,2.25-7.2,4.8a.61.61,0,0,0,.5,1.1,8.24,8.24,0,0,0,4.1-2.2l-.8-.8c-.8.7-1.6,1.5-2.4,2.2l.8.8c.3-.4.7-.7,1-1.1s-.1-1.3-.7-.9a4.44,4.44,0,0,0-1.9,1.7c-.4.5.1,1.3.7.9a20.08,20.08,0,0,0,4-3.2.61.61,0,0,0-.6-1,8,8,0,0,0-4.2,3.3.59.59,0,0,0,.8.8,11.5,11.5,0,0,0,3.8-3.8.59.59,0,0,0-.8-.8,7.34,7.34,0,0,0-2.8,3,.59.59,0,0,0,.8.8,13,13,0,0,0,4.2-3.9c.3-.5-.3-1.2-.8-.8a5.23,5.23,0,0,0-2.1,2.3.59.59,0,0,0,.8.8c1.3-.7,2.6-1.4,3.8-2.2l-.8-.8a24.64,24.64,0,0,0-1.4,3.8c-.1.4.3.9.7.7a4.94,4.94,0,0,0,3.4-2.6c-.3-.2-.7-.4-1-.6-.6,1.2-1,2.2.4,2.9a.62.62,0,0,0,.7-.1l.4-.4a.62.62,0,0,0,.1-.7c-.1-.2-.2-.3-.2-.5a.57.57,0,0,0-1,0c-.1.2-.3.5-.4.7.3.2.7.4,1,.6a3.72,3.72,0,0,0,.7-2c.1-.6-.8-1.1-1.1-.5a6.22,6.22,0,0,0-.9,2.6h1.1c-.4-2.6-3.8-1.1-.4,2.3.2-.3.4-.7.6-1-.6-.3-1.1-.6-1.7-.9-.2.3-.4.7-.6,1a4.81,4.81,0,0,0,2.4.7c.7.1.8-1,.2-1.2a7.21,7.21,0,0,0-4.1-.3c-.7.1-.5,1.2.2,1.2h2.1V90.5a4.47,4.47,0,0,0-3.6,1.4c-.6.5.3,1.3.8.8a10,10,0,0,0,1.1-1,.57.57,0,0,0-.7-.9c-1,.5-1.9,1-2.9,1.5.2.3.4.7.6,1,.8-.5,1.5-1,2.3-1.5a.61.61,0,0,0-.5-1.1,10,10,0,0,0-2.9,1c-.7.3-.4,1.4.3,1.1.3-.1.5-.2.8-.3.7-.2.5-1.1-.2-1.2l-3-.3c-.7-.1-1.1.9-.3,1.1a9.29,9.29,0,0,0,2.9.5V91.4a10.63,10.63,0,0,0-3.1.1.59.59,0,0,0-.5.9.35.35,0,0,0,.1.2.61.61,0,0,0,.7.3c.1,0,.2-.1.3-.1a.57.57,0,0,0,.4-.7c-.3-1.1-1.1-1-2.1-.9.1.4.1.8.2,1.2a4.78,4.78,0,0,0,1.7-1,.61.61,0,0,0-.6-1,8,8,0,0,0-2.3,1c.2.3.4.7.6,1,1.1-.7.8-.5,1.6-1.5.5-.6-.3-1.4-.8-.8a12.46,12.46,0,0,1-3.6,2.8.61.61,0,0,0,.5,1.1,2.92,2.92,0,0,1,.9-.2.57.57,0,1,0-.3-1.1l-3,.3v1.2c.4,0,.9-.1,1.3-.1a.58.58,0,0,0,.6-.6,1.31,1.31,0,0,0,1.2.6c.1-.4.2-.8.3-1.1-.5-.2-1.1-.3-1.6-.5,0,.4-.1.7-.1,1.1,4.4-1.6,9.5-2.8,12.1-7a.62.62,0,0,0-.7-.9c-1.7.7-1.3.4-2.5,1.7-.5.5.2,1.3.7.9a23.29,23.29,0,0,0,5.4-5c.4-.5-.1-1.3-.7-.9a16.88,16.88,0,0,0-5.1,5.2.59.59,0,0,0,.8.8,15.66,15.66,0,0,0,4.8-4.1c.4-.5-.1-1.4-.7-.9a9.16,9.16,0,0,0-3.3,4.2c-.2.5.3,1.2.8.8a14.69,14.69,0,0,0,4.3-4.3c.3-.5-.3-1.2-.8-.8a17.79,17.79,0,0,0-4,4.2.62.62,0,0,0,.7.9,4.27,4.27,0,0,0,2.8-2.6.59.59,0,0,0-.8-.8,5.89,5.89,0,0,0-3.2,4.3.64.64,0,0,0,.9.7c1.6-.9,2.9-2.1,2.6-4.1,0-.3-.3-.4-.6-.4-2-.1-2.7,2.7-1.6,4.1,1.7,2.2,3.9-1.1,5.1,1.8.3-.2.7-.4,1-.6-.2-.3-.3-.6-.5-.9-.3.2-.6.5-.9.7.6.7,1.1,1.5,1.7,2.2l.8-.8c-.3-.4-.6-.9-.9-1.3-.3.2-.6.5-.9.7l1.5,1.5.8-.8a10.1,10.1,0,0,0-1.6-1.3.62.62,0,0,0-.9.7c.2.6.5,1.2.7,1.8.3-.2.7-.4,1-.6l-1-1.3c-.3.2-.6.5-.9.7.3.2.6.5.9.7.5.4,1.3-.1.9-.7a5.39,5.39,0,0,0-1.4-1.6l-.8.8a7,7,0,0,0,1,.8c.5.4,1.3-.1.9-.7a2.17,2.17,0,0,0-1-1.1.63.63,0,0,0-.9.4c-.4,1.3-.4,1.2.4,2.4.3.4,1,.4,1.1-.1.9-3.5-3.9-2.1-2.5-.1s4.2-1.8.7-2.2a.65.65,0,0,0-.6.6,1.3,1.3,0,0,0,.5,1.3c.5.5,1.3-.2.9-.7a1.6,1.6,0,0,0-1.3-.9.64.64,0,0,0-.7.9,5.94,5.94,0,0,0,.4.8c.3-.2.7-.4,1-.6-.2-.3-.5-.6-.7-.9a.62.62,0,0,0-1.1.5c0,.2.1.5.1.7.4-.2.7-.3,1.1-.5-.3-.5-.5-.9-.8-1.4a5.5,5.5,0,0,1-.7.9,3.08,3.08,0,0,0,2.1.4c.6,0,.7-.6.4-1-1.8-5.1-1.7-6.6.5-4.3a.61.61,0,0,0,1-.6,34.52,34.52,0,0,0-1.2-4.3.57.57,0,0,0-1.1.3c.3,1.3.5,2.6.8,3.9.4-.1.8-.2,1.1-.3a14.61,14.61,0,0,0-2.1-5.2c-.4-.6-1.2-.2-1.1.5.4,1.7.8,3.3,1.3,4.9.2.6,1.3.5,1.2-.2a13.35,13.35,0,0,0-1.3-4.3.59.59,0,0,0-1.1.3,13.86,13.86,0,0,0,.6,4c.1.5,1.1.6,1.1,0a11.53,11.53,0,0,0,.2-3.7.62.62,0,0,0-1.2-.2,10,10,0,0,0-.7,4.2.59.59,0,0,0,1.1.3c.7-1.3.6-1,.5-2.5a.58.58,0,0,0-1-.4,5.21,5.21,0,0,0-1.6,4.1c1-.1,2.2-.1,2.2-.8Z" transform="translate(-63.63 -24.74)"/><path class="cls-2" d="M68.3,73.3c-2.2-4.4.3-7.2.5-11.4.2-3.1-1.1-6.1-1.1-9.2,0-4.4,3.3-6.8,6-9.8a28.27,28.27,0,0,0,4.7-7.1A1.48,1.48,0,0,0,76.1,34a8.79,8.79,0,0,0-2.4,3.6c-.6,1.6,2,2.6,2.7,1.1,1.6-3.2,3.1-5.9,7-6.6,2.2-.4,3.9-.1,6.1-1.1a1.48,1.48,0,0,0-.4-2.7,6.06,6.06,0,0,0-3,.1c.4.9.8,1.8,1.1,2.7a15.84,15.84,0,0,1,8-1.7c1.1,0,2,.4,3.1.2s1.9-.9,2.8-1.1c2.4-.4,4.1.9,6.2,1.6,2.3.8,4.6,0,6.8.5,4.7,1.1,4.7,6,6.6,9.4a1.54,1.54,0,0,0,2.6,0,6.11,6.11,0,0,0-.3-6.5c-.9.5-1.7,1-2.6,1.5a19.85,19.85,0,0,0,6,5.9,1.47,1.47,0,0,0,2.2-1.3,2.29,2.29,0,0,0-1.3-2.3c-.4.9-.8,1.8-1.1,2.7,4.3,1.1,3.8,10,5,13.6.6,2,.8,1.5.9,4.4.2,3.4-.3,2.1-.7,4.3a6.09,6.09,0,0,0,0,3c.3,1.2,1.4,2.3,1.6,3.4.5,3.2-1.4,3.8-2.7,6a4.31,4.31,0,0,0-.6,3.5c.3,1.4,3.1,4.2,1.9,5.6a1.48,1.48,0,0,0,1.8,2.3,3.07,3.07,0,0,0,1.9-1.8c.7-1.2-.8-2.9-2-2a8.41,8.41,0,0,0-3.9,5.9h2.9c-1.2-3.3-2.8-6.9-2-10.5.8-3.3,2-6.4,2.5-9.8-1-.1-1.9-.3-2.9-.4,0-2.3,1.8-4.2,1.2-6.6-.3-1.2-1.3-2-1.7-3.1-1.1-2.6,0-5.7.4-8.4h-2.9a31.47,31.47,0,0,1,1.8,8.5c.1,1.9,3,1.9,3,0V54.2c-1,.1-1.9.3-2.9.4.4,2.5.7,4.9,1.1,7.4.3,1.7,2.9,1.2,2.9-.4,0-1,.1-2.1.1-3.1-1,.1-1.9.3-2.9.4.1,1,.3,2,.4,3,0,1.4,2.1,2.2,2.8.8a6.21,6.21,0,0,0-.6-6.8,1.52,1.52,0,0,0-2.8.8c0,3.9-.7,7.6-.7,11.5a6.85,6.85,0,0,0,1.9,5.3,1.46,1.46,0,0,0,2.3-.3c.3-.5.6-1.1.9-1.6a25.12,25.12,0,0,1-2.7-.4l.3.9a1.51,1.51,0,0,0,2.9-.8L129,52.4c-.5-1.5-.7-3.5-1.8-4.8-1.8-2.2-4.3-2.8-5.3-6a1.51,1.51,0,0,0-2.9,0,3.1,3.1,0,0,0,.9,3.7c1.3,1.3,3-.4,2.3-1.8a6.06,6.06,0,0,0-3.2-3.1c-1.5-.7-3.2-1-4.7-1.8-.7-.5-1.4-.9-2-1.4.2-2.9,1.8-2.7,4.9.5a23.07,23.07,0,0,0,1.9,1.4,18,18,0,0,0-.8,2.1h2.6c-.4.1-.7.3-1.1.4a11,11,0,0,1,1.8-.2,15.05,15.05,0,0,0,1,1.7c.7.4,1.5.9,2.2,1.3a15.38,15.38,0,0,1-1.3,1.2l2.3-.3c-.6.1-1.1.1-1.7.2.7-.3,1.5-.6,2.2-.9-.7,0-1.4.1-2.2.1.9-.3,1.8-.5,2.8-.8-1.2-1.9-2.4-3.8-3.7-5.7-.4.7-.9,1.5-1.3,2.2,3.2,0,4.5,5.6,4.6,7.8h3a12.55,12.55,0,0,1,.2-5.1h-2.9l1.5,4.5c.9-.4,1.8-.8,2.7-1.1a58.12,58.12,0,0,1-4.3-7.7l-2,2c.8,1,1.6,2,2.4,3.1.3-.6.7-1.2,1-1.8a28.85,28.85,0,0,0-2.9.4c-1.9-.1-1.9,2.9,0,3a6.83,6.83,0,0,0,3.7-.5,1.43,1.43,0,0,0,1-1.8,6.45,6.45,0,0,0-3.8-4.8,1.47,1.47,0,0,0-2,2,44.59,44.59,0,0,0,4.3,7.7c.9,1.3,3.3.5,2.7-1.1l-1.5-4.5c-.4-1.3-2.6-1.5-2.9,0a19.53,19.53,0,0,0-.3,5.9c.2,1.9,3.1,1.9,3,0-.4-4.1-2.6-10.9-7.6-10.8a1.49,1.49,0,0,0-1.3,2.2c1.3,1.9,2.5,3.8,3.7,5.7.8,1.4,2.6.7,2.8-.8.3-2.3-1.5-5.3-4-3.5s-.1,4.8,1.7,5.9a1.52,1.52,0,0,0,2.2-.9c.9-2.4.4-7.9-3.7-6-3,1.4-1.2,5.4.4,7.1a1.47,1.47,0,0,0,2.3-.3c4.7-6.4-4.5-9.5-4.3-2.7a1.47,1.47,0,0,0,2.2,1.3c3.4-1.6,1.9-5.9-1.6-6.1-2.6-.2-5.5,2.8-2.4,4.4a1.68,1.68,0,0,0,1.8-.2c5.8-5.6-7.2-7.1-3.6-1a1.5,1.5,0,0,0,2.6,0c.9-2,1.7-5.4-1.2-6.3-2-.7-3.3.9-3.5,2.7a1.44,1.44,0,0,0,1.9,1.4c7-2.7-.8-10.5-3.6-5.4-3.5,6.4,9.8,4.5,4-.5a1.49,1.49,0,0,0-1.4-.4c-2,.7-2.8,2.2-1.7,4.1a1.36,1.36,0,0,0,1.3.7c2.3,0,3.9-3,1.6-4.4-2.5-1.6-6.4,1.5-5.7,4.3.9,3.4,5,2.4,6.1-.3,1.2-2.9-1.3-6.6-4.5-5-2.3,1.1-2.6,4.8.4,5s5.5-4.2,3.2-6.4c-2.6-2.6-7.4.2-8.4,3.1-2.3,6.1,8.9,5.9,10.5,9.6.8-.6,1.6-1.2,2.3-1.8,0-.3-.1-.5-.1-.8h-2.9c1.5,4.6,5.7,6.3,7.1,10.8L131.7,72c1-.3,1.9-.5,2.9-.8l-.3-.9a1.51,1.51,0,0,0-2.7-.4c-.3.5-.6,1.1-.9,1.6l2.3-.3c-1.9-1.9-.7-5.2-.5-7.5s.2-4.8.2-7.2c-.9.3-1.8.5-2.8.8.2,1.3.4,2.6.6,3.8.9.3,1.8.5,2.8.8a10,10,0,0,0-.5-3.8,1.48,1.48,0,0,0-2.9.4c0,1-.1,2.1-.1,3.1,1-.1,1.9-.3,2.9-.4-.4-2.5-.7-4.9-1.1-7.4-.3-1.7-2.9-1.2-2.9.4v3.7h3a32.06,32.06,0,0,0-1.9-9.3c-.4-1.2-2.6-1.6-2.9,0-.4,2.7-1.6,6.4-.8,9.2.3,1,1.2,1.7,1.4,2.5,1.1,3.2-.3,3-1,5.4-.9,3.1.8,6.6,4.1,7a1.46,1.46,0,0,0,1.3-.7c1-1.3,1-2.9,1-4.5s-2.6-2.1-2.9-.4a52.25,52.25,0,0,1-1.5,6.6c-.4,1.5-1.6,3.5-1.7,5-.2,3.3,1.5,7.3,2.6,10.3.5,1.2,2.6,1.6,2.9,0a5.09,5.09,0,0,1,2.6-4.1l-2-2c-.3.2-.5.5-.8.7.6.8,1.2,1.6,1.8,2.3A4.1,4.1,0,0,0,135,82c-.3-1.3-1.4-2.2-1.7-3.3-.5-2.4,1-3,2.2-4.6,3.3-4-1.4-6.6-.8-10.6.4-2.6,1.9-3.6,1.3-6.5-.7-3.5-2.7-6.1-3-9.8-.4-4.3-1-8.7-5.8-9.9a1.47,1.47,0,0,0-1.1,2.7c-.1-.1-.1-.2-.2-.3.7-.4,1.5-.9,2.2-1.3a14.36,14.36,0,0,1-4.9-4.9c-1.1-1.6-3.6-.1-2.6,1.5.1,1.2.2,2.3.3,3.5h2.6c-1.6-2.8-1.9-6.7-4.3-9-3.2-3-8.4-1.3-12.2-2.9-1.4-.6-2.6-1.5-4.1-1.6-1.7-.1-3.3.9-4.9,1.2-1.9.3-3.7-.1-5.6.1a23.59,23.59,0,0,0-6.3,2.2c-1.6.7-.4,3.2,1.1,2.7.5,0,1-.1,1.5-.1a25.12,25.12,0,0,0-.4-2.7c-3.1,1.4-6.4.1-9.3,2.2-2.3,1.6-3.6,4.2-4.8,6.6.9.4,1.8.8,2.7,1.1.6-.8,1.1-1.5,1.7-2.3-.8-.6-1.6-1.2-2.3-1.8C72.7,40.8,64.7,45,64.7,52.7a40.13,40.13,0,0,0,.7,5c.6,3.5-.2,5.4-.9,8.6a12,12,0,0,0,1.2,8.5c.9,1.8,3.5.3,2.6-1.5Z" transform="translate(-63.63 -24.74)"/><path class="cls-2" d="M72.9,47a5.5,5.5,0,0,0,.9-.7c-.5-.8-1-1.7-1.4-2.5l-1.6,1.3c-1.3,1.1.4,3.2,1.8,2.3,2.6-1.6,5.8-1.2,8.3-3.1a10.63,10.63,0,0,0,1.5-1.5c2.7-2.6,4.5-3.6,8.1-2.9,2.4.4,5,1.4,7.3.4a7.07,7.07,0,0,0,1.8-1.2c3.2-2.3,5.6-2.4,9.4-1.3a1.53,1.53,0,0,0,1.7-.7,9.29,9.29,0,0,1,3.2-3.6l-2-2c-.9.5-1.8,1-2.6,1.4a23.07,23.07,0,0,1,1.4,1.9c.7-.6,1.3-1.2,2-1.7-.4-.8-.7-1.7-1.1-2.5a3.79,3.79,0,0,1-2.3,1.8l2,2c1.2.3,2.5.5,3.7.8.3.7.7,1.4,1,2.1a22.88,22.88,0,0,1,1,2.3c.3.5,3.5,5.2,3.3,5.3l2.3.3c-.6-1.3.1-3.1-.7-4.7a26,26,0,0,0-4.4-5.5,12.83,12.83,0,0,0-4.8-3.1,8.53,8.53,0,0,0-3.1-.6s-5.2.6-3.2,1.9c.2.6.5,1.1.7,1.7l2.4-2.7c-.7-.4-1.5-.9-2.2-1.3-.5.7-1,1.5-1.5,2.2a23.07,23.07,0,0,1-1.4-1.9c.6-1.6,2.8-.4.8-2.1a4.62,4.62,0,0,0-2.6-.7c-3.4-.2-7.4,1.7-10.5,2.8A68.46,68.46,0,0,0,70.3,43.6c-1.4,1.2.4,3,1.8,2.3a33.68,33.68,0,0,0,8.1-5.4c-.8-.6-1.6-1.2-2.3-1.8-.4.7-.8,1.4-1.2,2.2a1.5,1.5,0,0,0,2.6,1.5A21.5,21.5,0,0,0,82.1,36c-1-.1-1.9-.3-2.9-.4-.6,1.3-1.3,2.5-1.9,3.8.8.4,1.7.7,2.5,1.1a5.72,5.72,0,0,1,1.2-5c-.9-.5-1.7-1-2.6-1.5a6.11,6.11,0,0,1-2.1,2.4c.8.6,1.6,1.2,2.3,1.8a9.81,9.81,0,0,1,4.5-4.5c-.7-.6-1.5-1.1-2.2-1.7-.3.4-.5.9-.8,1.3l2.1,2.1a14.62,14.62,0,0,1,4.9-3.3l-1.8-1.8a7,7,0,0,1-3.1,4.1c.6.8,1.2,1.6,1.8,2.3a17.26,17.26,0,0,1,5.8-4.9c-.6-.8-1.2-1.6-1.8-2.3a21.8,21.8,0,0,1-4,3.4c.6.8,1.2,1.6,1.8,2.3a14.41,14.41,0,0,1,6-3.4c-.6-.7-1.1-1.5-1.7-2.2A13.76,13.76,0,0,1,86.2,34l2.1,2.1a13.67,13.67,0,0,1,6.5-4.6c-.5-.8-1-1.7-1.4-2.5a31,31,0,0,1-7.3,6.7c.6.8,1.2,1.6,1.8,2.3a35.66,35.66,0,0,1,7.2-5l-2-2a16,16,0,0,1-4.2,4.8L91,37.9a9.68,9.68,0,0,1,5.1-3.3c-.6-.7-1.1-1.5-1.7-2.2a11.48,11.48,0,0,1-4,3.9c.5.9,1,1.7,1.5,2.6,0-.2-.1-.4-.1-.6.6.7,1.1,1.5,1.7,2.2a5.47,5.47,0,0,1,3.9-3.6l-1.8-1.8c-.6.7-1.1,1.4-1.7,2.1l2,2c1.4-.9,2.7-1.7,4.1-2.6-.4-.7-.9-1.5-1.3-2.2-1.1.9-2.2,1.8-3.3,2.6.6.7,1.1,1.5,1.7,2.2a12.14,12.14,0,0,1,4.7-4l-2-2-1.5,1.2,1.8,1.8a5.72,5.72,0,0,0,.8-.7c-.4-.8-.7-1.7-1.1-2.5.2.5.3.9.5,1.4-.4-.8-.7-1.7-1.1-2.5a6.89,6.89,0,0,0-1,.4c.4.8.7,1.7,1.1,2.5.9-.6,1.8-1.1,2.8-1.7-.4-.9-.8-1.8-1.1-2.7-.9.4-3.4-1.4-4.7-1.4a12.16,12.16,0,0,0-4.9,1.5,76.61,76.61,0,0,0-13.1,7.3c-2.5,1.8-13.5,11-9,14.5a1.51,1.51,0,0,0,2.5-.7c.5-1.2.9-2.4,1.4-3.6-1-.1-1.9-.3-2.9-.4,0,1.8.5,3.2.6,5,0,2.7-1.1,4.2-2.6,6.3a25.12,25.12,0,0,1,2.7.4c-.1-.7-1.6-7-.9-7.2a23.07,23.07,0,0,0-1.9-1.4,10.75,10.75,0,0,1-.1,3.1c-.2,1.2,1.4,1.7,2.2,1.3.4-.2.7-.3,1.1-.5l-2-2a16.38,16.38,0,0,0-1.2,11.9c.5,1.7.8,1,1.1,3.5.3,2.7-.1,1.9-.4,3.9a18.86,18.86,0,0,0-.1,6.7c.8-.5,1.7-1,2.5-1.4-3.4-3.5-1.3-9-1.2-13.3-1,.1-1.9.3-2.9.4.2,1.3.7,9.1,4.1,5.8-.8-.6-1.6-1.2-2.3-1.8a8.2,8.2,0,0,0-.6,7,15.35,15.35,0,0,1,.9,7.7c-.1.7-.4,5.5-1,5.8.6.3,1.2.7,1.8,1-.7-4.5,2-8.2.1-12.6-.9.5-1.7,1-2.6,1.5a19.75,19.75,0,0,1,2,10.7,1.41,1.41,0,0,0,1.1,1.4c3,.9,5.9,2.4,9,1.8a1.55,1.55,0,0,0,.7-2.5c-2.1-1.7-4.3-3.3-6.5-4.9-1.5-1.1-3,1.4-1.5,2.6,2,1.5,3.9,3,5.9,4.5a23.35,23.35,0,0,1,.7-2.5c-2.3.5-5.3-1.1-7.4-1.8a17.1,17.1,0,0,0,1.1,1.4,23.27,23.27,0,0,0-2.4-12.2c-.9-1.8-3.3-.2-2.6,1.5,1.5,3.5-1,8.1-.4,11.9a1.43,1.43,0,0,0,1.8,1c3.3-1.3,2.8-5.7,3.2-8.8a19.92,19.92,0,0,0,.4-4.2c-.3-3.2-2.9-5.1-1.1-8.8.7-1.5-1.1-3-2.3-1.8,1.6.5,2,.1,1.3-1.5-.1-1-.3-2-.4-3-.2-1.7-2.9-1.2-2.9.4-.1,5.4-2.1,11,2.1,15.4a1.51,1.51,0,0,0,2.5-1.4c-.6-3.3.5-4.9,1.3-7.9.4-1.4.7-2,.3-3.4a10,10,0,0,0-1.2-1.9c-2.2-3.7-1.8-6.7,0-10.5a1.47,1.47,0,0,0-2-2c-.4.2-.7.3-1.1.5.7.4,1.5.9,2.2,1.3a8.1,8.1,0,0,0,.1-3.1,1.44,1.44,0,0,0-1.9-1.4c-4.5,1.3-1.7,7.7-1.1,10.8.3,1.4,2,1.3,2.7.4a15.17,15.17,0,0,0,3.2-6c.5-2.4-.8-4.3-.7-6.8a1.48,1.48,0,0,0-2.9-.4c-.5,1.2-.9,2.4-1.4,3.6a23.35,23.35,0,0,0,2.5-.7c-.9-.7,5.2-7.2,5.7-7.7a45.39,45.39,0,0,1,9.2-6.3c3.5-1.9,7.8-4.6,11.7-3.6,2.2.5,2.3,1.2,4.4.2,1.6-.7.4-3.1-1.1-2.7a7.17,7.17,0,0,0-4.1,2.4c-.8.9-.3,2.7,1.1,2.5,2.2-.2,6.1-3.1,2.7-5.1-3-1.7-6.7,2-6.1,4.8a1.44,1.44,0,0,0,1,1c2.3.5,3.9-.4,5.5-2.1a1.48,1.48,0,0,0-1.1-2.5c-7.4.2-3,9.3,1.6,3.7.7-.9.4-2.7-1.1-2.5a3.66,3.66,0,0,0-3.7,2.9,1.46,1.46,0,0,0,1.8,1.8,5.86,5.86,0,0,0,3.2-2.6c.9-1.3-.8-2.7-2-2a16.42,16.42,0,0,0-5.7,5.1,1.53,1.53,0,0,0,1.7,2.2,9,9,0,0,0,5-4,1.45,1.45,0,0,0-1.3-2.2,8.45,8.45,0,0,0-6.6,4.1c-.8,1.2.8,2.9,2,2a6.85,6.85,0,0,0,3-3.9,1.46,1.46,0,0,0-1.8-1.8,9.12,9.12,0,0,0-5.7,5c-.5,1.1.3,2.7,1.7,2.2,6.3-2.2,3.9-9.3-2.1-4.8-1.5,1.1-.2,3.6,1.5,2.6a15,15,0,0,0,5.1-4.9A1.52,1.52,0,0,0,95.7,32a12.9,12.9,0,0,0-6.4,4.1,1.49,1.49,0,0,0,2.1,2.1A16,16,0,0,0,96,32.8a1.46,1.46,0,0,0-2-2,38,38,0,0,0-7.8,5.5c-1.3,1.1.4,3.3,1.8,2.3a30.19,30.19,0,0,0,7.9-7.2c.8-1,.1-3-1.4-2.5a16.48,16.48,0,0,0-7.8,5.4,1.49,1.49,0,0,0,2.1,2.1,17.62,17.62,0,0,0,4.4-5,1.52,1.52,0,0,0-1.7-2.2,18.4,18.4,0,0,0-7.3,4.2A1.48,1.48,0,0,0,86,35.7a21.68,21.68,0,0,0,4.7-3.9,1.48,1.48,0,0,0-1.8-2.3,20.41,20.41,0,0,0-6.4,5.3c-.9,1.2.3,3.4,1.8,2.3a11.26,11.26,0,0,0,4.5-5.8A1.46,1.46,0,0,0,87,29.5a17.45,17.45,0,0,0-6.2,4c-1.4,1.4.6,3.3,2.1,2.1A3.21,3.21,0,0,0,84.5,33a1.52,1.52,0,0,0-2.2-1.7,12.64,12.64,0,0,0-5.6,5.6A1.47,1.47,0,0,0,79,38.7a12.49,12.49,0,0,0,2.6-3c1-1.6-1.6-3.1-2.6-1.5a9.91,9.91,0,0,0-1.6,6.5,1.5,1.5,0,0,0,2.5,1.1,8.9,8.9,0,0,0,2.8-5.9c.2-1.7-2.5-2-2.9-.4a17.1,17.1,0,0,1-2.5,5.7c.9.5,1.7,1,2.6,1.5.4-.7.8-1.4,1.2-2.2a1.48,1.48,0,0,0-2.3-1.8,31.29,31.29,0,0,1-7.5,4.9c.6.8,1.2,1.6,1.8,2.3a66.12,66.12,0,0,1,21.3-12c2.9-1,7.1-3.2,9.9-1.9.9.4.6,1.4,2,1.3a2.19,2.19,0,0,0,1.2-3.7c-1.6-1.6-4.8-.4-4.9,1.8a2.37,2.37,0,0,0,3.7,2c2.1-1.4.9-4.8-1.6-4.8-6.3,0,.1,11,3.1,3.4.4-1-.6-1.8-1.4-1.9a2.69,2.69,0,0,0-1.7,5c3.1,2,6.1-1.3,6.2-4.2a1.53,1.53,0,0,0-2.2-1.3c-1.8,1-3.4,2.3-3.8,4.4a1.62,1.62,0,0,0,.7,1.7c6.4,4.3,5.7-9.7.9-5.3-1.8,1.7-.3,3.7,1.6,4,2.6.4,2.2-1,5.5.7a13.88,13.88,0,0,1,3.5,2.9c2.4,2.6,2.4,5.6,3.7,8.5a1.47,1.47,0,0,0,2.3.3c1.5-1.4,1.1-2.7.2-4.4-.8-1.4-1.9-2.5-2.6-3.9-.9-1.6-1.3-3.5-2.4-5.1-2.2-3.2-6.6-4.9-8.9-.8a1.45,1.45,0,0,0,2,2,8,8,0,0,0,2.9-2.3,1.48,1.48,0,0,0-1.1-2.5c-2.7,0-4.4,1.3-4.9,3.9a1.52,1.52,0,0,0,1.4,1.9,5.43,5.43,0,0,0,5.2-2.9c.7-1.2-.8-3-2-2a17.48,17.48,0,0,0-4.3,4.7c.6-.2,1.1-.5,1.7-.7-2.7-.7-5.7-1.5-8.5-.5s-4.5,2.9-7.9,3c-1.7,0-3.5-.8-5.2-.9a7.63,7.63,0,0,0-6.6,2.4c-2,1.8-3.3,3.4-5.9,4.3a24.47,24.47,0,0,0-4.5,1.7c.6.8,1.2,1.6,1.8,2.3l1.6-1.3c1.2-1-.1-2.8-1.4-2.5a3.64,3.64,0,0,0-3,2.7c-1.3,2.1,1.5,2.9,2.2,1.1Z" transform="translate(-63.63 -24.74)"/><path d="M99.2,26.2a13.82,13.82,0,0,0-9.2.1,55.69,55.69,0,0,1-7.9,2.5A11.08,11.08,0,0,0,78,30.2c-3.1,1.9-3.7,5.4-5.7,8.2-2.5,3.5-6.7,5.8-8.2,10-1.2,3.4.4,6.3.8,9.7.5,4.4-2.1,7.9-1,12.3,1.1,4.6,3.6,8,2.2,12.9-1,3.5-1,5.3,1.3,8.3.5.6,1.5,0,1-.6-3.1-4.2-.5-6.7-.4-10.7.1-2.5-1-4.8-1.9-7.1a16.8,16.8,0,0,1-1.2-3.8c-.5-3.4.6-3.9,1.3-6.8.6-2.5-.1-4.7-.7-7.2C64,48.7,67,45.9,71.2,41.6c2-2.1,2.8-4,4.3-6.5A9.48,9.48,0,0,1,81,30.2c1.5-.5,3.2-.3,4.7-.8,4.7-1.4,8.1-3.7,13.3-2.1.6.3.9-.8.2-1.1Z" transform="translate(-63.63 -24.74)"/><path d="M68.4,92.4c2-2.1,4.8-1.2,6.9.2a.58.58,0,1,0,.6-1c-2.6-1.7-6-2.5-8.3,0-.6.5.2,1.3.8.8Z" transform="translate(-63.63 -24.74)"/><path d="M75.2,92.7c2.1,1.5,4.4.4,6.3-.8a.58.58,0,1,0-.6-1c-1.5.9-3.4,2-5.1.8-.6-.5-1.2.5-.6,1Z" transform="translate(-63.63 -24.74)"/><path d="M81.6,91.9c2.3-1.3,3.5,1.9,5.7,1.9a.6.6,0,1,0,0-1.2c-1.4,0-2.1-1.5-3.3-2a3.41,3.41,0,0,0-3.1.2c-.5.5.1,1.5.7,1.1Z" transform="translate(-63.63 -24.74)"/><path d="M87.2,93.8a2.44,2.44,0,0,0,2.3-.6c.6-.5-.2-1.3-.8-.8a1.31,1.31,0,0,1-1.2.3c-.7-.2-1.1,1-.3,1.1Z" transform="translate(-63.63 -24.74)"/><path d="M99,38.5c-1.2,2.4-3.2,2-5.3,1.6a34.08,34.08,0,0,0-4.6-.5.6.6,0,1,0,0,1.2c3.6.2,8.8,2.6,10.9-1.7.4-.7-.7-1.3-1-.6Z" transform="translate(-63.63 -24.74)"/><path d="M99,27c4.9-2.9,6.9,1,11,1.8a21.66,21.66,0,0,0,3.6.1,8.33,8.33,0,0,1,6.2,1.7,17.26,17.26,0,0,1,1.7,3.3,6.25,6.25,0,0,0,3,3c1.9,1.1,3.9,1.5,5.4,3.3,2.1,2.5,2.5,5.6,2.4,8.8a.6.6,0,1,0,1.2,0c.1-3.9-.5-7.9-3.5-10.7-1.2-1.1-2.5-1.3-3.8-2.1-3.6-2.3-3.3-4.6-6-6.8a6.93,6.93,0,0,0-3.2-1.6c-3.6-.9-5.8.3-9.6-1.5-3.3-1.5-5.5-2.4-9-.4-.7.4-.1,1.5.6,1.1Z" transform="translate(-63.63 -24.74)"/><path d="M132.1,48.7a7.09,7.09,0,0,0,.8,4.7c1.2,2.5,3.9,5.8,1.1,8.2-.6.5.3,1.4.8.8,4.6-4-2.4-9-1.6-13.4.2-.7-1-1.1-1.1-.3Z" transform="translate(-63.63 -24.74)"/><path d="M134.7,61.4a2.72,2.72,0,0,0-2.1,3.4,8.19,8.19,0,0,0,1.8,3.3c1.5,2.4,1.6,4.4-.1,6.8-.5.6.6,1.2,1,.6,1.1-1.6,2.1-3.1,1.5-5.1-.4-1.5-5.2-7.2-1.9-7.9a.57.57,0,1,0-.2-1.1Z" transform="translate(-63.63 -24.74)"/><path d="M134.1,74.9a2.62,2.62,0,0,0-2,3.1,5.44,5.44,0,0,0,2.3,3.6c.6.4,1.2-.6.6-1-1.4-1-2.8-3.7-.6-4.5.7-.3.4-1.5-.3-1.2Z" transform="translate(-63.63 -24.74)"/><path d="M134,81.4c.5.7,1.2,1.5,1.1,2.4-.1,1.5-.9,1.4-1.7,2a3.09,3.09,0,0,0-1.1,1.6c-.6,1.8.3,3.4,1.5,4.7.5.6,1.4-.3.8-.8-1.7-1.8-1.7-3.3.3-5a5.73,5.73,0,0,0,1.1-1.1c.7-1.5-.1-3.1-1-4.3-.4-.8-1.5-.2-1,.5Z" transform="translate(-63.63 -24.74)"/><path d="M134,91.9a3.92,3.92,0,0,1-3.5.2c-.9-.3-1.4-1.2-2.3-1.6-1.3-.5-2.8.5-4,1.1-.7.3-.1,1.4.6,1,1.5-.7,2.4-1,4.1-.1a8.87,8.87,0,0,0,1.7.8,5.11,5.11,0,0,0,4-.5c.6-.2,0-1.2-.6-.9Z" transform="translate(-63.63 -24.74)"/><path d="M123.8,91.8c-.8-.1-1.6.2-2.4.1s-1.3-.5-2-.6a2.87,2.87,0,0,0-2.8,1.2c-.5.6.3,1.4.8.8,1.1-1.3,2-.8,3.4-.4,1,.3,1.9-.1,2.9,0s.8-1,.1-1.1Z" transform="translate(-63.63 -24.74)"/><path d="M116.5,92.7c-.6.1-1.1.5-1.7.5a7,7,0,0,1-1.9-.6,2.16,2.16,0,0,0-2.2.5c-.5.6.3,1.4.8.8.7-.8,2.1.3,2.8.4a6.44,6.44,0,0,0,2.4-.5c.8-.1.5-1.3-.2-1.1Z" transform="translate(-63.63 -24.74)"/><path d="M127.7,71.2c-3.7-2.5.3-5.5.6-8.5a5.26,5.26,0,0,0-1.8-4.5c-.6-.5-1.4.3-.8.8,3.3,3.1-.3,5.5-.8,8.7a4.39,4.39,0,0,0,2.2,4.4.55.55,0,1,0,.6-.9Z" transform="translate(-63.63 -24.74)"/><path d="M126.5,58.5c-1.2-2.6.4-5.2-.7-7.7-.8-1.7-2.6-2.6-4-3.6-.6-.5-1.2.6-.6,1,.8.6,1.6,1.1,2.4,1.7,1.4,1.2,1.4,2.6,1.2,4.4a7.58,7.58,0,0,0,.7,4.7c.3.8,1.4.2,1-.5Z" transform="translate(-63.63 -24.74)"/><path d="M121.8,47.2a8.19,8.19,0,0,1-2.7-3.4,3.39,3.39,0,0,0-1.4-1.5,7,7,0,0,0-1.9-.6c-2.1-.4-3.5-.4-4.9-2.3-.5-.6-1.5,0-1,.6a6.65,6.65,0,0,0,5.1,2.8c1.7.2,2.2.5,3.2,2.1.3.5.4.9.7,1.3a11,11,0,0,0,2.3,2c.7.5,1.3-.5.6-1Z" transform="translate(-63.63 -24.74)"/><path d="M110.6,39.8a2.44,2.44,0,0,0-1.8-2.2c-1.8-.7-4.1.2-4.9-2.1-.3-.7-1.4-.4-1.2.3a4.12,4.12,0,0,0,2.1,2.4c1.1.5,4.4-.1,4.6,1.6.1.8,1.3.8,1.2,0Z" transform="translate(-63.63 -24.74)"/><path d="M100,39.1a3,3,0,0,1,2.6-1.7.6.6,0,1,0,0-1.2,4.3,4.3,0,0,0-3.7,2.3c-.3.7.7,1.3,1.1.6Z" transform="translate(-63.63 -24.74)"/><path d="M104.3,36.6l-.1-.1c-.5-.5-1.4.3-.8.8l.1.1c.5.6,1.3-.2.8-.8Z" transform="translate(-63.63 -24.74)"/><path d="M127.1,72.6c1.2.4,2.7,1.3,2.3,2.7-.2.7,1,1.1,1.2.3.5-2.2-1.3-3.6-3.2-4.2-.7-.2-1,.9-.3,1.2Z" transform="translate(-63.63 -24.74)"/><path d="M89.7,39.6a6.74,6.74,0,0,0-6.3.8,9.14,9.14,0,0,0-2,2.4A5.77,5.77,0,0,1,78.7,45c-.9.3-1.9.3-2.8.6-.7.2-.4,1.4.3,1.2,1.9-.5,4.2-.4,5.6-2,.5-.6.6-1.3,1.1-1.9A5.61,5.61,0,0,1,89.5,41c.6,0,.9-1.2.2-1.4Z" transform="translate(-63.63 -24.74)"/><path d="M76.5,45.3c-1.9.2-4.1,1.2-3.9,3.5a6.61,6.61,0,0,0,.5,1.5,5.23,5.23,0,0,1-.2,5c-.9,1.4-2,2.4-2.6,4-.3.7.9,1,1.2.3.8-2.1,2.9-3.4,3.3-5.7a5,5,0,0,0,0-2.1c-.1-.5-.3-.9-.4-1.3-.1-.1-.1-.3-.2-.4-.8-1.3,0-2.5,2.2-3.5.9-.1.9-1.3.1-1.3Z" transform="translate(-63.63 -24.74)"/><path d="M70.1,59.1a6.54,6.54,0,0,0-.5,3.9c.4,1.3,1.7,1.7,2.4,2.8,1.9,3-1.6,5-2.1,7.6a6,6,0,0,0,.9,3.9.58.58,0,1,0,1-.6c-2.7-4.3,3-6.2,1.9-10.1a5.37,5.37,0,0,0-1-1.6c-1.5-1.8-2.3-3.2-1.6-5.6.4-.7-.8-1-1-.3Z" transform="translate(-63.63 -24.74)"/><path class="cls-2" d="M85.7,36.6c.1-2.3-2.3-3.6-4.3-3.1a6.36,6.36,0,0,0-2.7,1.9,3.33,3.33,0,0,0-.9,2.1,2.88,2.88,0,0,0,.9,2.1c1.1,1,3.2,1.3,4.2,0l.6-.6c.2-.2-.6.4-.2.1a.52.52,0,0,1,.4-.2c-.2.1-.5.2-.7.3h.1c-.3,0-.5.1-.8.1h.2c-.3,0-.5-.1-.8-.1h.1c-.2-.1-.5-.2-.7-.3h.1l-1.1-1.1v.1c-.1-.5-.3-1-.4-1.5v.1a3,3,0,0,0,3,3,2.92,2.92,0,0,0,3-2.9Z" transform="translate(-63.63 -24.74)"/><path class="cls-2" d="M78.5,88.7c.6.2,1.1.5,1.7.7s1-.8.5-1.1a7,7,0,0,1-1.6-1.4c-.2.3-.5.6-.7.9a10.71,10.71,0,0,1,2.2,1.5c.2-.3.5-.6.7-.9a7.63,7.63,0,0,1-1.7-1.3c-.2.3-.5.6-.7.9a11.91,11.91,0,0,1,1.5.9c.2-.3.4-.7.6-1a7.64,7.64,0,0,1-2.3-1.7l-.8.8c1.4,1.1,2.8,2.1,4.3,3.1.2-.3.4-.7.6-1-.8-.5-1.5-.9-2.3-1.4-.2.3-.4.7-.6,1,1.3.7,2.6,1.4,3.9,2,.2-.4.3-.7.5-1.1a6.36,6.36,0,0,1-1.8-.6c-.1.4-.2.7-.3,1.1a12.26,12.26,0,0,1,3.3.8c0-.4-.1-.7-.1-1.1h-.3c-.6-.1-.8.9-.3,1.1.8.4,1.5.7,2.3,1.1.2-.4.3-.7.5-1.1-.6-.2-1.2-.5-1.8-.7s-1,.7-.5,1.1a18.57,18.57,0,0,0,1.9,1.1c.2-.4.3-.7.5-1.1-.5-.1-1-.1-1.4-.2-.6-.1-1.1.8-.5,1.1a4.92,4.92,0,0,0,2.9.6c.4,0,.9-.7.4-1a3.73,3.73,0,0,0-2.3-1c-.7-.1-1.1,1-.3,1.1a3.12,3.12,0,0,1,1.8.7c.1-.3.3-.7.4-1a3.1,3.1,0,0,1-2.3-.4c-.2.4-.3.7-.5,1.1.5.1,1,.1,1.4.2.6.1,1.1-.7.5-1.1s-1.3-.7-1.9-1.1c-.2.4-.3.7-.5,1.1.6.2,1.2.5,1.8.7s1.1-.8.5-1.1c-.8-.4-1.5-.7-2.3-1.1-.1.4-.2.7-.3,1.1a1.49,1.49,0,0,0,.9-.2c.5-.2.3-.9-.1-1.1a15.53,15.53,0,0,0-3.6-.8c-.6-.1-.8.8-.3,1.1a7.61,7.61,0,0,0,2.1.8c.6.1,1.1-.8.5-1.1-1.3-.6-2.6-1.3-3.9-2a.58.58,0,1,0-.6,1c.8.5,1.5.9,2.3,1.4a.58.58,0,1,0,.6-1,38.07,38.07,0,0,1-4.1-2.9c-.6-.5-1.4.3-.8.8a7.9,7.9,0,0,0,2.5,1.9.58.58,0,0,0,.6-1,7.46,7.46,0,0,0-1.5-.9.57.57,0,0,0-.7.9,9,9,0,0,0,1.9,1.5c.6.3,1.2-.5.7-.9a13.09,13.09,0,0,0-2.4-1.7.57.57,0,0,0-.7.9,7,7,0,0,0,1.9,1.5c.2-.4.3-.7.5-1.1-.6-.2-1.1-.5-1.7-.7-1.1-.2-1.4,1-.7,1.3Z" transform="translate(-63.63 -24.74)"/><path class="cls-2" d="M108.6,31.9c-1.1-1.5-2-3.1-4.2-2.8a3.74,3.74,0,0,0-2.3,1.4c-.2.1-.1.1.1-.1-.3.1-.3.2-.1.1s.2-.1-.1,0c.4,0,.4-.1,0-.1.5,1.8,1,3.7,1.5,5.5.3-.2.3-.2.2-.1-.5.4-1.1.2-1.8-.5-.3-.4-.5-.9-.8-1.3V32.9c.3-.9.7-1.3,1.4-1.4h0c-.7,0-.2.2,1.4.6l.9,2.1V34c-.1.5-.3,1-.4,1.5,0-.1.1-.1.1-.2l-1.1,1.1c-1.5,0-2,.1-1.3.2a2.77,2.77,0,0,0,.9.1,6.15,6.15,0,0,0,1.3-.1,2.89,2.89,0,0,0,2.1-2.5,3.06,3.06,0,0,0-1.4-3l-.1-.1c.5.6.9,1.2,1.4,1.8,0-.1,0-.1-.1-.2V34c-.3.4-.5.9-.8,1.3l.1-.1c-.4.3-.9.5-1.3.8H103c-.4-.3-.9-.5-1.3-.8l-.3-.3c-.1-.5-.3-1-.4-1.5v.2c.1-.5.3-1,.4-1.5.1-.1.1-.2.2-.3.4-.3.9-.5,1.3-.8-.1,0-.2,0-.2.1h1.6c-.1,0-.1,0-.2-.1.6.5,1.2.9,1.8,1.4l-.1-.1c.1.5.3,1,.4,1.5v-.2c-.1.5-.3,1-.4,1.5a.1.1,0,0,1,.1-.1l-1.1,1.1a.1.1,0,0,0,.1-.1c-.5.1-1,.3-1.5.4.4,0-.3-.2.1,0a6.37,6.37,0,0,0,.7.2,3,3,0,0,0,3.7-2.1,3.07,3.07,0,0,0-2.1-3.7,4.94,4.94,0,0,0-2.7-.3,3.22,3.22,0,0,0-2.8,3.1,3.4,3.4,0,0,0,5.8,2.3,3.44,3.44,0,0,0-2.4-5.8,3.24,3.24,0,0,0-3.1,2.3,3.43,3.43,0,0,0,1.5,3.8c.2-1.8.5-3.6.7-5.4.9,0,1.1,0,.6-.1a3.63,3.63,0,0,0-2.7.4,3.21,3.21,0,0,0-1.7,3c.1,2.8,3,3.6,5.3,3a3.85,3.85,0,0,0,2.6-5.2c-1-2.4-4.2-2.6-6.2-1.3a3,3,0,0,0,1.5,5.5,6.71,6.71,0,0,0,2.8-.6,4.44,4.44,0,0,0,1.1-.8c.1-.1,1-.8.3-.3-.5.1-1,.3-1.5.4h.2c-.5-.1-1-.3-1.5-.4-.3-.2-1-1.1-.4-.3.1.2.3.4.4.6a3.06,3.06,0,0,0,4.1,1.1,2.9,2.9,0,0,0,.9-3.9Z" transform="translate(-63.63 -24.74)"/><path class="cls-2" d="M132.9,48.8a3.58,3.58,0,0,1-.4-1.1c-.3-1.7-3-1.3-2.9.4,0,1.3.1,2.6.1,3.9.8-.4,1.7-.7,2.5-1.1a3.57,3.57,0,0,1-1.1-2.3c-1,.3-1.9.5-2.9.8a14,14,0,0,1,1,3.5c.2,1.2,1.7,1.3,2.5.7a3.22,3.22,0,0,0,.7-2.5v-3h-3a23.48,23.48,0,0,1,.1,2.6c-.1,1.9,2.9,1.9,3,0a11.11,11.11,0,0,0-.1-2.6,1.5,1.5,0,0,0-3,0v2.1a5.46,5.46,0,0,1-.1,1.8,4.35,4.35,0,0,0,.4-.7c-.1,0-.1.1-.2.1a23.35,23.35,0,0,1,2.5.7,14,14,0,0,0-1-3.5,1.51,1.51,0,0,0-2.9.8A6.34,6.34,0,0,0,130,53a1.46,1.46,0,0,0,2.5-1.1c0-1.3-.1-2.6-.1-3.9-1,.1-1.9.3-2.9.4a4.49,4.49,0,0,0,.7,1.8c1.1,1.7,3.7.2,2.7-1.4Z" transform="translate(-63.63 -24.74)"/><path class="cls-2" d="M113.1,91.5a3.81,3.81,0,0,0-1.8.3.57.57,0,1,0,.3,1.1c1.3-.2,2.5-.5,3.8-.8.5-.1.6-1,0-1.1a2.21,2.21,0,0,0-1.6,0c.1.4.2.8.3,1.1a21.76,21.76,0,0,0,2.7-1.1c.7-.3.1-1.3-.6-1-.4.2-.9.4-1.3.6-.6.3-.2,1.3.5,1.1a17.1,17.1,0,0,0,3.3-1.7c.7-.4.1-1.3-.6-1-.2.1-.5.2-.7.3.2.3.4.7.6,1a25.43,25.43,0,0,0,2.8-1.6c-.2-.3-.5-.6-.7-.9l-.6.6c.3.2.6.5.9.7,1.5-2,4-3.8,5.7-5.6l-.8-.8a16.61,16.61,0,0,1-1.3,1.4c.3.2.6.5.9.7a21.88,21.88,0,0,1,2.5-3.7c-.3-.2-.6-.5-.9-.7-.5.9-.9,1.9-1.4,2.8-.3.7.7,1.3,1,.6.5-.9.9-1.9,1.4-2.8.3-.6-.5-1.3-.9-.7a27,27,0,0,0-2.7,3.9c-.3.6.5,1.2.9.7a16.61,16.61,0,0,1,1.3-1.4c.5-.6-.3-1.4-.8-.8-1.9,2-4.3,3.6-5.9,5.8a.57.57,0,0,0,.9.7l.6-.6a.57.57,0,0,0-.7-.9,25.43,25.43,0,0,1-2.8,1.6c-.7.3-.1,1.3.6,1,.2-.1.5-.2.7-.3-.2-.3-.4-.7-.6-1a17.28,17.28,0,0,1-3,1.6c.2.4.3.7.5,1.1.4-.2.9-.4,1.3-.6-.2-.3-.4-.7-.6-1a24.43,24.43,0,0,1-2.4,1,.57.57,0,0,0,.3,1.1h1V91.1c-1.2.3-2.5.6-3.8.8.1.4.2.8.3,1.1a7.72,7.72,0,0,1,1.5-.2.66.66,0,0,0-.1-1.3Z" transform="translate(-63.63 -24.74)"/><path class="cls-2" d="M124.5,90a3.17,3.17,0,0,0-1.5-.6c-.7,0-1.3.5-2,.5a.6.6,0,1,0,0,1.2l.6.3c0-.3.1-.6.1-.9a2.77,2.77,0,0,1-.9-.1c-.1.3-.2.7-.3,1a30.05,30.05,0,0,0,3.2-.7,14.24,14.24,0,0,0,1.6-.5c.2-.1,1.6-.4.8-.1a5.5,5.5,0,0,0,.7.9c.3-.2.6-.3.9-.5.7.1,1.1-1,.3-1.1-2.3-.4-1.4,2.6-.1,1.7a1,1,0,0,0,.1-1.5c-.8-.6-1.8.1-2.3.7-.3.4.2,1,.7.9,1-.3,1.9-2,.5-2.6-.7-.3-1.8.4-2.4.6a20.69,20.69,0,0,1-4.3,1,.64.64,0,0,0-.3,1,1.82,1.82,0,0,0,2.3.2c.3-.2.4-.7.1-.9a2,2,0,0,0-1.4-.6v1.2c1.1,0,1.8-.8,2.9-.1.8.4,1.4-.6.7-1Z" transform="translate(-63.63 -24.74)"/><path class="cls-2" d="M119.9,35.2a11.4,11.4,0,0,1-1.7-4.3v1.4c-.5.6-.9,1.2-1.4,1.8.1,0,.1-.1.2-.1l-2.3.3c.1,0,.2.1.3.1-.6-.5-1.2-.9-1.8-1.4,0-.3-.1-.5-.1-.8l.9-2.1-.1.1c.4-.3.9-.5,1.3-.8,1-.3,1.6.5,1-.1-.4,1.7-.9,3.3-1.3,5a.37.37,0,0,0-.3.1c-.5-.1-1-.3-1.5-.4l-.2-.2c1-1.7,1.9-3.3,2.9-5-.8-.2-.5.1.7.9l-3.7,3.7c-.5-.2-.6-.6-.4-.1,1.1-1.5,2.2-2.9,3.4-4.4a.37.37,0,0,1-.3-.1c.4.3.9.5,1.3.8l.1.1c.1.5.3,1,.4,1.5v-.3c-1.5.9-3,1.7-4.5,2.6a7.1,7.1,0,0,1,1.4,1c2.8,2.6,7-1.6,4.2-4.2a25.6,25.6,0,0,0-2.6-2,3,3,0,0,0-4.5,2.6,3.66,3.66,0,0,0,2.9,3.7,3.06,3.06,0,0,0,3.4-4.4,5.7,5.7,0,0,0-3.2-2.7c-2.1-.8-4.4,1.7-3.7,3.7a4.59,4.59,0,0,0,3.4,3.2c2.8.5,5.1-2.7,2.9-5a3.77,3.77,0,0,0-3.9-1c-2.3.6-2.7,3.3-1.3,5s4,2.5,5.8,1.1a3.59,3.59,0,0,0-1.2-6.1,3.24,3.24,0,0,0-4.1,4,18.9,18.9,0,0,0,2.3,5.5c2.1,3.6,7.2.7,5.3-2.7Z" transform="translate(-63.63 -24.74)"/><path class="cls-3" d="M99.9,29.1l.5-.5-.8-.8c-.1.1-.2.3-.3.4a.6.6,0,0,0,.4,1,1.27,1.27,0,0,1,.6.1c-.2-.3-.4-.5-.6-.8-.1.3-.2.6-.3,1s.4.9.9.7a2.19,2.19,0,0,0,.5-.3,7.27,7.27,0,0,0-.9-.8,11,11,0,0,1-.9,1.4.59.59,0,0,0,.5.9c-.1,0,1,0,.9-.2s-.1-.4-.2-.6a3.55,3.55,0,0,1-.4.9c-.2.4,0,1,.5.9a1.27,1.27,0,0,0,.6-.1l-.6-.6a1.69,1.69,0,0,1-.3,1,.54.54,0,0,0,.7.7,6.89,6.89,0,0,0,.8-.3l-.7-.7a3.55,3.55,0,0,1-.4.9.54.54,0,0,0,.7.7c.3-.1.5-.2.8-.3a5.5,5.5,0,0,0-.7-.9c-.2.3-.3.7-.5,1a.57.57,0,0,0,.9.7c.2-.1.4-.3.6-.4a5.5,5.5,0,0,1-.9-.7,3.55,3.55,0,0,1-.4.9.58.58,0,0,0,1,.6,6.39,6.39,0,0,0,.8-1.9.61.61,0,0,0-1-.6,2.28,2.28,0,0,1-1.2.6l.7.7c.2-1.1.5-2.2.8-3.3a.64.64,0,0,0-.6-.8,4.53,4.53,0,0,0-1.6.3l.7.7c.2-.7.5-1.3.7-2,.2-.5-.3-.8-.7-.7a4.25,4.25,0,0,1-1.1.2c.3.2.5.4.8.6.1-.3.1-.6.2-.9.3-.6-.3-1-.8-.8a3.55,3.55,0,0,0-.9.4c-.7.3-.1,1.3.6,1a3.55,3.55,0,0,0,.9-.4l-.8-.8a2.6,2.6,0,0,0-.4,1.5.64.64,0,0,0,.8.6,4.25,4.25,0,0,1,1.1-.2l-.7-.7c-.2.7-.5,1.3-.7,2-.1.4.3.9.7.7a1.91,1.91,0,0,1,1.3-.2c-.2-.3-.4-.5-.6-.8-.3,1.1-.6,2.2-.8,3.3-.1.4.3.9.7.7a4.61,4.61,0,0,0,1.7-.9c-.3-.2-.7-.4-1-.6a4.42,4.42,0,0,1-.6,1.6c.3.2.7.4,1,.6a4.33,4.33,0,0,0,.5-1.2c.2-.5-.5-.9-.9-.7a4.7,4.7,0,0,0-.9.6c.3.2.6.5.9.7.2-.3.3-.7.5-1s-.1-1.1-.7-.9c-.3.1-.5.2-.8.3l.7.7a3.55,3.55,0,0,1,.4-.9.54.54,0,0,0-.7-.7,6.89,6.89,0,0,0-.8.3l.7.7a3.53,3.53,0,0,0,.3-1.4.65.65,0,0,0-.6-.6,1.27,1.27,0,0,0-.6.1c.2.3.3.6.5.9.3-.5.8-1.3.3-1.8s-1,0-1.6,0c.2.3.3.6.5.9a7.1,7.1,0,0,1,1-1.4.59.59,0,0,0-.8-.8,2.19,2.19,0,0,0-.5.3,5.5,5.5,0,0,1,.9.7c.1-.3.2-.6.3-1s-.2-.7-.6-.8a1.27,1.27,0,0,1-.6-.1c.1.3.3.7.4,1a1.79,1.79,0,0,0,.5-.7c.3-.5-.3-1.2-.8-.8a5,5,0,0,0-.8.7c0,1,.8,1.8,1.3,1.2Z" transform="translate(-63.63 -24.74)"/><path class="cls-3" d="M75.5,44.3c1.3-.5,2.7-.2,3.6-1.3,1.4-1.6,2.6-5.4,5.5-4.6a.57.57,0,1,0,.3-1.1c-1.9-.5-3.3.6-4.6,1.8a12.42,12.42,0,0,0-1.7,2.3c-.9,1.4-2.1,1.2-3.5,1.8-.6.2-.3,1.4.4,1.1Z" transform="translate(-63.63 -24.74)"/><path class="cls-3" d="M70.2,87.8c-1-2.6.6-5.6-.3-8.3-1.3-4.2-3.4-7.2-2.6-11.9.1-.7-1-1.1-1.1-.3a14.93,14.93,0,0,0,1.1,9.1,14.72,14.72,0,0,1,1.5,8.3,6.61,6.61,0,0,0,.3,3.4.57.57,0,0,0,1.1-.3Z" transform="translate(-63.63 -24.74)"/><path class="cls-3" d="M68.8,60.2c-.3-2.8,2-4.1,2.7-6.5.6-2.2-1.6-6.2,1.1-7.6.7-.3.1-1.4-.6-1-1.8.9-2,2.7-1.8,4.6.2,1.6.5,3-.2,4.6a22.63,22.63,0,0,1-1.3,2,6.12,6.12,0,0,0-1.1,3.9c.1.8,1.3.8,1.2,0Z" transform="translate(-63.63 -24.74)"/><path class="cls-3" d="M131.2,89.9a3.48,3.48,0,0,1-1.1-2.7c.2-1.5,1.2-1.1,1.8-1.8a3.39,3.39,0,0,0,.9-1.4c.5-1.8-1.1-3.5-1.3-5.2-.1-.8-1.3-.4-1.1.3.3,1.9,2.2,3.7.5,5.6-.5.6-1.1.7-1.5,1.5-.9,1.6-.1,3.3,1.1,4.5.4.5,1.2-.3.7-.8Z" transform="translate(-63.63 -24.74)"/><path class="cls-3" d="M132.3,71.8c-1.4-1.9-2.7-2.6-2-6,.3-1.4,1.2-2.4,1.4-3.7.7-3.7-3.4-5.3-2.6-9.2.2-.7-1-1.1-1.1-.3a5.54,5.54,0,0,0,.1,3.6c.1.4.5.8.6,1.2a3.64,3.64,0,0,1,.9,3.9,3.41,3.41,0,0,1,.1,3.1c-.2,1.4-1.1,2.4-.9,4,.2,1.8,1.6,2.7,2.6,4.1.4.5,1.4-.1.9-.7Z" transform="translate(-63.63 -24.74)"/><path class="cls-3" d="M118.6,34.7c-.2,2.4,1.2,4,3.1,5.1,1.2.7,2.9.9,3.9,1.7,1.7,1.2,2.5,3.4,2.8,5.4.1.8,1.3.4,1.1-.3a9.53,9.53,0,0,0-2.7-5.7c-2.4-2.1-7.6-1.7-7.2-6.2.3-.8-.9-.8-1,0Z" transform="translate(-63.63 -24.74)"/></svg>