<svg id="Layer_1" data-name="Layer 1" xmlns="http://www.w3.org/2000/svg" viewBox="0 0 73.35 69.67"><defs><style>.cls-1{fill:#ef7a22;}.cls-2{fill:#ed8622;}</style></defs><title>Orange</title><path class="cls-1" d="M92.9,34.3c0-.1-.1-.2-.1-.3a17.1,17.1,0,0,1-1.1,1.4l-2.1-.9a17.1,17.1,0,0,0-1.4,1.1c-2.5-.3-4.9-.5-7.4-.8a23.35,23.35,0,0,0,.7,2.5c-.7-1.5-1.1-1.5-1-.1-.2.6-.5,1.1-.7,1.7h-.6c-.2-.6-.5-1.1-.7-1.7-.7.2-1.4.5-2.1.7.4.7.9,1.5,1.3,2.2a5.72,5.72,0,0,1,.7-.8c-.7-.4-1.5-.9-2.2-1.3l.9-.3a11,11,0,0,1,.2,1.8c-.1.1-.3.1-.4.2-.4-.8-.7-1.7-1.1-2.5l-.7.7c.8.4,1.7.7,2.5,1.1v-.8c0-1.2-1.7-2.1-2.5-1.1a2.7,2.7,0,0,1-.7.8c.8.5,1.7,1,2.5,1.4,1.3-4.9,5.7-6.6,10.5-6.4-.3-.9-.5-1.8-.8-2.8a35.91,35.91,0,0,1-8.1,4c.5.8,1,1.7,1.4,2.5A10.89,10.89,0,0,1,84,34.4c-.6-.7-1.1-1.5-1.7-2.2a8.37,8.37,0,0,1-3.2,3l2,2c.3-.3.7-.5,1-.8l-2-2c-1,1.3-1.9,2.6-2.9,3.9s1.2,3,2.3,1.8a5.8,5.8,0,0,1,2.7-1.9c-.7-.6-1.5-1.1-2.2-1.7A15.06,15.06,0,0,1,78.6,40a1.48,1.48,0,0,0,2.3,1.8c1-1,2-1.9,3-2.9-.8-.5-1.7-1-2.5-1.4a11.35,11.35,0,0,1-4.2,5.9,1.48,1.48,0,0,0,1.1,2.7A3.73,3.73,0,0,0,81,44.6c1-1,0-3-1.4-2.5-2.8,1-7.2,2.2-9.1,4.5-1.6,2-.6,3.9-.2,6.2.3,1.9,3.1,1.1,2.9-.8-.2-1.2-.3-2.4-.5-3.7-1,.3-1.9.5-2.9.8a12.42,12.42,0,0,1-.4,7.4c-.5,1.3-1.3,2.4-1.7,3.7a11.1,11.1,0,0,0,.3,7.2c.9-.4,1.8-.8,2.7-1.1-.3-.6-.7-1.2-1-1.8-.9.5-1.7,1-2.6,1.5.4.6,1.6,1.5,1.8,2,.8,1.9-.2,2.6-.6,4.6-.6,3.6.8,7.1,2.1,10.4.8-.5,1.7-1,2.5-1.4a16.49,16.49,0,0,1-5.1-17.7c-1-.1-1.9-.3-2.9-.4a38.58,38.58,0,0,0,1.8,11.2,1.53,1.53,0,0,0,2.9,0,16.69,16.69,0,0,0,.5-5.9,1.5,1.5,0,0,0-3,0c-.1.5-.1,1.1-.2,1.6,1-.1,1.9-.3,2.9-.4,0-.2.1-.3.1-.5-1-.1-1.9-.3-2.9-.4.3,4.6.5,9.3.6,13.9,1-.1,1.9-.3,2.9-.4l-.3-1.8c.2-1.8-2.4-2.7-2.9-.8a24.22,24.22,0,0,0-.7,4.7c-.1,1.8.6,4,0,5.8a25.12,25.12,0,0,0,2.7-.4c-.2-.9-.3-1.9-.5-2.8-1-.1-1.9-.3-2.9-.4.3,2.7,1.8,4.1,4.4,4.7,2.9.7,6.6,2.7,9.2.7.7-.5,1.1-1.7.3-2.3a78.21,78.21,0,0,0-9-6,1.51,1.51,0,0,0-2.2,1.7c.1.7.3,1.4.4,2,.7-.6,1.5-1.1,2.2-1.7-.2-.4-.4-.7-.6-1.1-.9.3-1.8.5-2.8.8.5.8,1,1.5,1.4,2.3.7,1.1,3,.8,2.8-.8a8.74,8.74,0,0,0-1.4-4.1c-1-1.6-3.6-.1-2.6,1.5a18.26,18.26,0,0,0,3.7,4.6c1.2,1.1,3.4-.4,2.3-1.8-.7-1-1.5-2.1-2.2-3.1-.8.6-1.6,1.2-2.3,1.8,1.3,1.3,2.6,2.5,3.8,3.8s3.3-.4,2.3-1.8a28,28,0,0,0-3.8-4.7c-.6.8-1.2,1.6-1.8,2.3,1.5,1.1,3.1,2.2,4.6,3.3s3-1.2,1.8-2.3l-4-3.7c-.6.8-1.2,1.6-1.8,2.3,1.1.8,2.2,1.6,3.3,2.5,1.4,1.1,2.9-1.1,1.8-2.3l-2.5-2.8c-1.3-1.4-3.3.7-2.1,2.1.5.7,1.1,1.4,1.6,2.1l2-2c-3-2.1-3.9-9.2-4.7-12.4-.9-3.9-1.6-7.8-2.2-11.7-1,.3-1.9.5-2.9.8.1.3.2.5.3.8a1.51,1.51,0,0,0,2.9-.8c-1.4-5.5-2.2-10.6,2.2-15,2.3-2.3,4.8-4,6.2-7a1.5,1.5,0,0,0-2.6-1.5,34.79,34.79,0,0,0-3.8,7.1c-.6,1.4,1.5,2.4,2.5,1.4a33.45,33.45,0,0,1,4.5-3.8c-.7-.6-1.5-1.1-2.2-1.7a18.65,18.65,0,0,1-1,2c-1,1.4,1.2,3,2.3,1.8.8-.8,1.6-1.7,2.5-2.5-.8-.5-1.7-1-2.5-1.4-.1.3-.2.5-.3.8-.3.7-.2,1.7.5,2,.1,0,.2.1.3.1a1.46,1.46,0,0,0,2-.5c0-.1.1-.1.1-.2.9-1.3-.8-2.7-2-2-2.8,1.6-5.7,3.3-7.6,6C67,50.3,66.9,54.1,66,57.7c1,.1,1.9.3,2.9.4a9.58,9.58,0,0,1,.9-3.7c-1-.1-1.9-.3-2.9-.4a12.38,12.38,0,0,1-.5,4.7c1,.1,1.9.3,2.9.4.2-.8.5-1.6.7-2.4a11,11,0,0,1-1.8.2,8.14,8.14,0,0,0,.9.1c-.2-.6-.5-1.1-.7-1.7v.2a1.51,1.51,0,0,0,2.9.8,21.77,21.77,0,0,0,1.4-4.8c.3-1.5-1.9-2.8-2.7-1.1l.6,2.1c-.8-.4-1.7-.7-2.5-1.1-.3.7-.7,1.3-1,2,.8.4,1.7.7,2.5,1.1a5.46,5.46,0,0,1,1.5-5.1c-.8-.6-1.6-1.2-2.3-1.8a13.81,13.81,0,0,0-1.7,2.9c-.7,1.4,1.2,3.2,2.3,1.8a33.72,33.72,0,0,1,14-10.5c-.6-.7-1.1-1.5-1.7-2.2a14.63,14.63,0,0,0-.9,1.3c-1.1,1.2.4,3.4,1.8,2.3a9.68,9.68,0,0,1,8-2.1c1.6.3,3.1,1.1,4.8,1,3.5-.3,6-3.8,9-5.2,1.3-.6.7-2.3-.4-2.7-2.8-1.1-5.2-.8-8.1.1-4.2,1.4-7.8,2.5-12.3,2.6a1.5,1.5,0,0,0,0,3,37.54,37.54,0,0,0,8.2-1c3.8-1,7.3-3.4,11.3-1.8a25.12,25.12,0,0,0-.4-2.7c-1.5.7-2.7,1.7-4.1,2.4-3.2,1.8-5.5,1.5-9,1.2a12,12,0,0,0-8.7,2.7c.6.8,1.2,1.6,1.8,2.3a6.69,6.69,0,0,0,1.4-1.9c.6-1-.4-2.7-1.7-2.2A35.7,35.7,0,0,0,67.1,50.2c.8.6,1.6,1.2,2.3,1.8a16.92,16.92,0,0,1,1.7-2.9c.9-1.4-1.2-3.1-2.3-1.8a8.75,8.75,0,0,0-2.4,7.2,1.49,1.49,0,0,0,2.5,1.1,5.16,5.16,0,0,0,1.9-4.1,1.52,1.52,0,0,0-2.5-1.1c-.1.2-.3.3-.4.5a1.49,1.49,0,0,0-.4,1.4c1.1,2.9,3.7,1.8,4.8-.4-.9-.4-1.8-.8-2.7-1.1a19,19,0,0,1-1.4,4.8c1,.3,1.9.5,2.9.8v-.2a1.62,1.62,0,0,0-.7-1.7c-.1,0-.1-.1-.2-.1a1.51,1.51,0,0,0-1.8.2c-1.3,1.1-1.4,2.9-1.6,4.5s2.5,2,2.9.4a25.05,25.05,0,0,0,.6-5.5,1.48,1.48,0,0,0-2.9-.4,13.42,13.42,0,0,0-1,4.5c-.1,1.7,2.5,2,2.9.4.7-2.7.8-6,2.1-8.5,1.5-2.9,4.6-4.6,7.4-6.2l-2-2c0,.1-.1.1-.1.2a19.45,19.45,0,0,1,2-.5c-.1,0-.2-.1-.3-.1a19.45,19.45,0,0,1,.5,2,6.71,6.71,0,0,0,.6-1.5A1.49,1.49,0,0,0,77,40.5c-.8.8-1.6,1.7-2.5,2.5.8.6,1.6,1.2,2.3,1.8a5.67,5.67,0,0,0,1.3-2.7c.3-1.1-1.1-2.5-2.2-1.7a41.47,41.47,0,0,0-5.1,4.3c.8.5,1.7,1,2.5,1.4a24.82,24.82,0,0,1,3.5-6.4c-.9-.5-1.7-1-2.6-1.5C72,42.6,67,44.6,65,49.2c-1.8,4.2-.7,9,.4,13.2,1-.3,1.9-.5,2.9-.8-.1-.3-.2-.5-.3-.8a1.5,1.5,0,0,0-2.9.8,165.74,165.74,0,0,0,3.6,17c1,3.3,1.7,6.8,4.7,8.9,1.2.9,2.8-.8,2-2a14,14,0,0,0-2.1-2.7l-2.1,2.1,2.5,2.8c.6-.8,1.2-1.6,1.8-2.3-1.1-.8-2.2-1.6-3.3-2.5-1.4-1-3,1.2-1.8,2.3l4,3.7c.6-.8,1.2-1.6,1.8-2.3-1.5-1.1-3.1-2.2-4.6-3.3s-3,1.2-1.8,2.3a26.44,26.44,0,0,1,3.4,4.1c.8-.6,1.6-1.2,2.3-1.8-1.3-1.3-2.6-2.5-3.8-3.8-1.2-1.1-3.3.4-2.3,1.8.7,1,1.5,2.1,2.2,3.1.8-.6,1.6-1.2,2.3-1.8a17.6,17.6,0,0,1-3.2-4c-.9.5-1.7,1-2.6,1.5.3.9.6,1.7.9,2.6.9-.3,1.8-.5,2.8-.8-.5-.8-1-1.5-1.4-2.3a1.52,1.52,0,0,0-2.8.8,4.2,4.2,0,0,0,2,3.6c1.1.9,2.4-.6,2.2-1.7-.1-.7-.3-1.4-.4-2-.7.6-1.5,1.1-2.2,1.7a76.64,76.64,0,0,1,8.4,5.6c.1-.8.2-1.6.3-2.3-1.3.9-9-1.7-9.2-2.9-.1-1.5-2.6-2.2-2.9-.4a7.08,7.08,0,0,0,.8,5.1,1.48,1.48,0,0,0,2.7-.4c1-3.2-.1-7,.7-10.5-1-.3-1.9-.5-2.9-.8-.2,1.7-.3,1.8.3,3.3s3,1.4,2.9-.4c-.1-4.7-.3-9.3-.6-13.9a1.49,1.49,0,0,0-2.9-.4,2.57,2.57,0,0,0-.1,2.1c.4,1.8,2.7,1.2,2.9-.4.1-.5.1-1.1.2-1.6h-3a9.89,9.89,0,0,1-.4,5.1h2.9a36.51,36.51,0,0,1-1.7-10.4,1.48,1.48,0,0,0-2.9-.4,19.29,19.29,0,0,0,5.8,20.6c1,.9,3.1.1,2.5-1.4-1-2.4-2.2-4.9-2.1-7.6,0-1.1,1.8-4.2,1.6-5.6-.2-2.6-1.9-2.4-3.1-4.6a1.5,1.5,0,0,0-2.6,1.5c.3.6.7,1.2,1,1.8.8,1.4,3.3.5,2.7-1.1-1.8-5,.8-6.7,2.3-10.7.9-2.5-.1-5.1-.6-7.6-.4-1.9-3.1-1-2.9.8.2,1.2.3,2.4.5,3.7,1-.3,1.9-.5,2.9-.8-.4-2-.9-2.8.8-4.2s4.4-2.1,6.4-2.8c-.5-.8-1-1.7-1.4-2.5-.5.2-.9.5-1.4.7.4.9.8,1.8,1.1,2.7a14.91,14.91,0,0,0,5.6-7.7c.5-1.5-1.5-2.4-2.5-1.4s-2,1.9-3,2.9c.8.6,1.6,1.2,2.3,1.8a21.74,21.74,0,0,0,1.7-4.2c.4-1.3-1.1-2.2-2.2-1.7a10.89,10.89,0,0,0-3.3,2.3c.8.6,1.6,1.2,2.3,1.8,1-1.3,1.9-2.6,2.9-3.9s-.8-2.6-2-2a4.3,4.3,0,0,0-2.1,1.9,1.47,1.47,0,0,0,2,2,16.7,16.7,0,0,0,4.3-4.1c.8-1-.5-2.6-1.7-2.2a16.93,16.93,0,0,0-5.4,3c-1.2.9.1,3,1.4,2.5a42.18,42.18,0,0,0,8.8-4.3,1.54,1.54,0,0,0-.8-2.8c-6.1-.2-11.6,2.4-13.3,8.6-.4,1.3,1.5,2.7,2.5,1.4a2.7,2.7,0,0,1,.7-.8c-.8-.4-1.7-.7-2.5-1.1v.8a1.5,1.5,0,0,0,2.5,1.1l.7-.7A1.49,1.49,0,0,0,76,36.6h-.6a1.56,1.56,0,0,0-1.3.7l-.3.6a1.51,1.51,0,0,0,.2,1.8c1.9,2,3.9.5,4.2-1.8A1.47,1.47,0,0,0,76,36.6a3.08,3.08,0,0,0-1.8,1.9,1.47,1.47,0,0,0,1.3,2.2c2.1.1,4.3-.7,4.9-2.9a1.48,1.48,0,0,0-.7-1.7c-.1-.1-.3-.2-.4-.3a1.36,1.36,0,0,0-1.5,0c-.2.1-.3.2-.5.3a1.62,1.62,0,0,0-.7,1.7c1.1,3.1,5.2,1.8,6-1,1.1-3.3-2.3-3.4-4.2-1.8a1.52,1.52,0,0,0,.7,2.5c2.6,1,8.5.6,6.7-3.6a1.36,1.36,0,0,0-1.3-.7c-2,.2-3.5,2.2-1.7,3.9,1.9,1.9,5.8,0,6.9-1.9a1.59,1.59,0,0,0,0-1.5,1,1,0,0,0-.4-.5,1.46,1.46,0,0,0-1.3-.7c-.2,0-.5.1-.7.1a1.5,1.5,0,0,0-1.4,1.1c-1.3,3.7,4.1,4.7,6.2,2.4,1.6-1.7.5-4.6-2.1-3.6a1.6,1.6,0,0,0-1.1,1.4,2.29,2.29,0,0,0,1,2.4c2.3,1.3,4.4-.8,3-2Z" transform="translate(-63.73 -25.74)"/><path class="cls-1" d="M96.6,37c0-1.4-.5-1.7-1.4-.8l2,2-.1.1c-.6-.7-1.1-1.5-1.7-2.2l2.1.6c-.6-.8-1.2-1.6-1.8-2.3-1.3.4-2.5.9-3.8,1.3-.6-.7-1.1-1.5-1.7-2.2-.6.3-1.3.5-1.9.8-.6-.8-1.2-1.6-1.8-2.3.1,0,.2-.1.3-.1.4.8.7,1.7,1.1,2.5.6-.4,1.2-.8,1.7-1.2l-2-2c1.4,1.1,2.8,1,4.2-.4a11.35,11.35,0,0,1,5.5-.2V27.7c-3.1.5-9.8.1-11.8,2.9a1.36,1.36,0,0,0,0,1.5c2.2,3.5,6.6-1,9.4-.3a17.1,17.1,0,0,0-1.1-1.4c-.7.6-1.4,1.1-2,1.7l1.8,1.8a8.74,8.74,0,0,0-1-.8l2,2A8.64,8.64,0,0,0,96,33.8L94.2,32c-.6.8-1.2,1.5-1.8,2.3l2,2a5,5,0,0,1,4.6-3c-.6-.7-1.1-1.5-1.7-2.2.3,1.6,1.1,1.9,2.4,1a17.1,17.1,0,0,0-1.1-1.4c-.2.3-.3.6-.5.9.8.6,1.6,1.2,2.3,1.8.4-.5.9-1,1.3-1.5a1.38,1.38,0,0,0,.2-1.8c-.1-.3-.1-.6-.2-.8a1.52,1.52,0,0,0-2.2-1.7c-.6.3-1.2.5-1.7.8.5.9,1,1.7,1.5,2.6,3.2-2.3,3.7-2,1.3.9.7.6,1.5,1.1,2.2,1.7-.2-.6-.5-1.1-.7-1.7l2.1,2.1c-1,1.2-2.1,1.2-1.2,3.2.5,1.1,1.9,1.8,2.9,2.3a12.09,12.09,0,0,0,1.8.5c4.5,1.4.4.6,3.6,2,1.8.8,3.6.1,5.3.9a25.12,25.12,0,0,1,.4-2.7c-.5.1-.9.1-1.4.2v3c.8,0,2.7-.5,2.8,1.1.9-.3,1.8-.5,2.8-.8-2.9-4.4-7.7-6.7-10.7-10.9a1.48,1.48,0,0,0-2.7,1.1c.7.2,1.4.3,2,.5l-2.3-.3c.2.2.3.5.5.7.4-.7.9-1.5,1.3-2.2,1.1-.1-.8-3.4-1-3.6-.5.8-1,1.7-1.4,2.5,5.2,1,10.8-.7,13.1,5.3.7,1.8.9,4.7,2.8,5.7,4.2,2.1,3.1-3.8,1.7-5.6-.8.6-1.6,1.2-2.3,1.8,3.8,3.7,8.1,3.9,7.6,10.9-.2,2.4-.3,4.2,1.1,6.3a1.48,1.48,0,0,0,2.7-1.1,5.55,5.55,0,0,0-1.2-3.3c-1-1.7-3.3-.2-2.6,1.5,1,2.2,2.3,4.3,2.1,6.8s-.4,2.1-1.6,3.8h2.6c-1.5-2.4-3.6-4.5-4.1-7.5-.2-1.5.1-2.9-.4-4.4a1.51,1.51,0,0,0-2.9.8,29,29,0,0,1,.6,4.1c1-.1,1.9-.3,2.9-.4-.4-2.1-.2-4.1-1.4-6s-3.5-3-4.9-4.7c-1.3-1.5-2.3-3.3-3.9-4.5-2.1-1.6-5.4-2-4.9-5.5-.6.3-1.2.7-1.8,1a6.37,6.37,0,0,0,.7.2,23.35,23.35,0,0,0-.7-2.5l.9,1.5c.9.3,1.8.5,2.8.8a1.16,1.16,0,0,0,.5-.7c.1-.8.3-.1.5,2,.6-.3,1.2-.7,1.8-1a9.48,9.48,0,0,1-.5-2.3,17.1,17.1,0,0,1-1.1,1.4c1.7-.7.7,5.1.6,5.3.6-.2,1.1-.5,1.7-.7-.8-2.1-.1-1.4,2.3,2,.3.6.7,1.2,1,1.8.1.1.1.2.2.3.8.4,1.7.7,2.5,1.1h-1.8c.7.3,1.5.6,2.2.9L124.3,48h2.3c.6.2,1.1.5,1.7.7-.3-.4-.7-.8-1-1.2.9-.3,1.8-.5,2.8-.8-.3-1.2-.7-2.3-1-3.5-1,.1-1.9.3-2.9.4a31.18,31.18,0,0,1,1.7,9.1c1-.1,1.9-.3,2.9-.4-.2-1.3-.5-2.5-.7-3.8-.3-1.6-3.1-1.3-2.9.4.3,2.5.5,4.9.8,7.4.2,1.9,3.1,1.9,3,0-.1-1-.1-2-.2-3-.9.3-1.8.5-2.8.8a15.11,15.11,0,0,1,1.8,7.5c.8-.4,1.7-.7,2.5-1.1-.4-.9-.9-1.8-1.3-2.7-.9.3-1.8.5-2.8.8.4,1,.7,2,1.1,3,.8-.5,1.7-1,2.5-1.4-.3-.5-.5-1-.8-1.5-.9.4-1.8.8-2.7,1.1,1.1,2.6,3.3,2.7,5.7,1.7l-2-2a6.88,6.88,0,0,1-2.7,3.4c.7.4,1.5.9,2.2,1.3-.1-.9-.1-1.9-.2-2.8-.1-1.9-3.1-1.9-3,0,.1.9.1,1.9.2,2.8s1.3,2,2.2,1.3a11.08,11.08,0,0,0,3.8-4.5,1.47,1.47,0,0,0-2-2c-.6-.2-1.1-.4-1.7-.6-.7-1.6-3.2-.4-2.7,1.1a6.06,6.06,0,0,0,1.6,2.8c1,1.2,2.9-.1,2.5-1.4a23.49,23.49,0,0,0-1.4-3.7c-.6-1.3-3-.7-2.8.8a7.4,7.4,0,0,0,2.2,4.8,1.47,1.47,0,0,0,2.5-1.1,19,19,0,0,0-2.2-9,1.52,1.52,0,0,0-2.8.8c.1,1,.1,2,.2,3h3c-.3-2.5-.5-4.9-.8-7.4-1,.1-1.9.3-2.9.4.2,1.3.5,2.5.7,3.8.3,1.7,3,1.3,2.9-.4A30.4,30.4,0,0,0,129,43c-.5-1.5-3.1-1.4-2.9.4a15,15,0,0,0,1.4,5c.6,1.4,2.8.6,2.8-.8-.1-6.4-7.1-2.4-4.5,2.7a1.62,1.62,0,0,0,1.7.7c2.7-.6,2.3-5.5.3-6.6-3.5-2-4.4,3-3.4,5.2.5,1.2,2,.8,2.6,0,1.4-1.9,2.8-6.4-.7-7.1-3.1-.7-3.8,2.9-3.3,5a1.52,1.52,0,0,0,2.2.9c1.6-1.1,4.6-5,2.1-6.7s-4.6,2.1-4.7,4.1a1.52,1.52,0,0,0,2.5,1.1c4.1-4.1-3.1-8.8-5.2-3.2a1.43,1.43,0,0,0,1,1.8c3.6,1.3,3.5-5.4,1-6.7-2.9-1.5-5.7,2.5-2.7,4.3a1.59,1.59,0,0,0,1.5,0c2.5-1.9,1.6-7.7-2.1-7.4-4.3.3-3.6,7,.1,7.8a1.62,1.62,0,0,0,1.7-.7c1.5-2.5,1.1-11.6-3.9-9.7a1.6,1.6,0,0,0-1.1,1.4c-.2,1.9.5,4.8,2.7,5.2a1.51,1.51,0,0,0,1.8-1c.6-2.1-.7-6.2-3.3-6.6-2.8-.4-3.3,3-2.6,5,2.7,7,9.1-1.4,3.9-3.8s-4.7,9.5-.2,6.5c5.3-3.6-5.3-10.2-4.6-3.2.1,1.3,2.1,2.3,2.8.8.7-1.7,1.2-3.6-.5-5a2.93,2.93,0,0,0-4,.2c-2.4,2.7,2,5.9,3.9,3s-2.2-6.4-4.6-3.4c-2.3,2.8,1.1,7.4,3.9,4.3a1.51,1.51,0,0,0-.7-2.5,6.37,6.37,0,0,0-.7-.2,1.43,1.43,0,0,0-1.8,1c-.6,4.2,1.3,5.7,4.5,7.9,2.6,1.7,3.8,3.9,5.9,6,.9.9,2.4,1.5,3,2.5,1.1,1.6,1.4,4.1,1.7,5.9.3,1.6,3.1,1.3,2.9-.4a38.53,38.53,0,0,0-.7-4.9c-1,.3-1.9.5-2.9.8.7,2.2-.5,4.3.2,6.4s3.4,4.3,4.6,6.2a1.54,1.54,0,0,0,2.6,0c1.4-2,3.2-2.5,2.9-5.2s-2.3-5.9-3.4-8.5c-.9.5-1.7,1-2.6,1.5.3.9.6,1.7.9,2.6.9-.4,1.8-.8,2.7-1.1-2-3.1.2-7.3-1.2-10.7-1.6-3.7-5.2-4.4-7.9-7-1.2-1.1-3.4.4-2.3,1.8h1.6a5.64,5.64,0,0,0-.4-1.2,7.86,7.86,0,0,0-.8-2.6,10.29,10.29,0,0,0-2.7-3.5c-3.6-3-7.7-1.7-12-2.5a1.49,1.49,0,0,0-1.4,2.5c1.4,1.6-.8,5,3.1,4.5,1-.1,2-1.2,1.3-2.2-.2-.2-.3-.5-.5-.7a1.47,1.47,0,0,0-2.3-.3c-1.7,1.8-2.7,6.5,1.3,5.4,2.7-.7,4.1-5,1.1-6.2-2.6-1.1-5.3,2.7-3.7,4.9,2.5,3.4,4.6-1,4.2-3.3-.9.4-1.8.8-2.7,1.1,3.1,4.2,7.9,6.6,10.7,10.9a1.52,1.52,0,0,0,2.8-.8c-.1-4-2.3-4.2-5.8-4.1a1.5,1.5,0,0,0,0,3,5.58,5.58,0,0,0,2.2-.3c1.1-.3,1.6-2.2.4-2.7-1.5-.7-1.5-.3-3-.6a3.47,3.47,0,0,1-3.3-1.4,3,3,0,0,0-.8-.8c-.6-.3-1.2-.3-1.9-.6-5.9-1.8-2.1-.1-2.6-2.5-.3-1.5.2-2.5-1.4-3.3a2.36,2.36,0,0,0-3,.8c-1.2,1.5.8,3.6,2.1,2.1,3.1-3.5-3.6-6.2-4.3-1.2a1.52,1.52,0,0,0,2.2,1.7c2-1.1,4.9-5.2,1-5.9s-5.4,4.2-2.4,6.3a4.61,4.61,0,0,0,7.2-4.1c-.4-5.8-6.7-4.4-10.1-2.4-1.7,1-.2,3.3,1.5,2.6.6-.3,1.2-.5,1.7-.8-.7-.6-1.5-1.1-2.2-1.7a3.15,3.15,0,0,0,.5,3.1,11,11,0,0,0,.2-1.8,11.18,11.18,0,0,0-1.7,2.1c-1,1.4,1.2,3.1,2.3,1.8a4.25,4.25,0,0,0,1.4-3,1.39,1.39,0,0,0-1.1-1.4c-3-.7-7.8,2.3-6.2,5.7a1.36,1.36,0,0,0,1.3.7c2.1.1,3.5-1.3,4.4-3a1.51,1.51,0,0,0-1.7-2.2,8.05,8.05,0,0,0-6.4,4.4c-.7,1.2.8,3,2,2a8.11,8.11,0,0,0,3.1-4c.5-1.1-.8-2.1-1.8-1.8a4.25,4.25,0,0,0-3.2,2.6c-.6,1.3.7,2.9,2,2,5.9-3.6-1-8.7-3.4-2.6a1.46,1.46,0,0,0,1.8,1.8c2-.8,4.5-2,4.2-4.6-.1-.6-.4-1.3-1.1-1.4a7.43,7.43,0,0,0-6.7,2.2c-2.1,2.5,1.5.7,3.2.4,2-.3,4-.7,5.9-1,1.4-.2,1.4-2.6,0-2.9-3-.5-12.1-.4-12.8,4.1-.5,3.5,3.6,2.6,4.9.8.9-1.3-.8-2.6-2-2a5,5,0,0,0-2.3,1.7,1.49,1.49,0,0,0,1.1,2.5,1.76,1.76,0,0,0,1.8-.8c1.1-1.2-.4-3.4-1.8-2.3-4.6,3.4,3.7,7.8,6,3.3a1.52,1.52,0,0,0-1.7-2.2c-2.2.7-3.1,3-1.4,4.8,2.3,2.4,6.1.5,8.1-1.2,1.4-1.2-.4-3-1.8-2.3-4.9,2.3-1.4,7.8,1.9,3.5.9-1.1-.6-2.4-1.7-2.2A2.1,2.1,0,0,0,95,36.8a1.46,1.46,0,0,0,2,2c5.2-2.5,1.3-7.5-2.2-3.8a1.36,1.36,0,1,0,1.8,2Z" transform="translate(-63.73 -25.74)"/><path class="cls-1" d="M104.2,34.9c1.8,1.7,4.9,3,7.2,3.8s4.2.9,6.2,2.1a24.37,24.37,0,0,1,5.3,4.3c3.1,3.4,4.9,8.4,6.3,12.8,1.1,3.7.7,7.7,1.7,11.5.5,1.9,3.1,1,2.9-.8-.2-1.3-.3-2.6-.5-3.9-1,.3-1.9.5-2.9.8,1.1,3,3.1,6.6,1,9.6l2.3-.3c-1.9-2.3-2.4-4.6-5.4-5.7-1.2-.5-2.4,1.1-1.7,2.2a4.82,4.82,0,0,0,2,2c1.6,1,3.1-1.6,1.5-2.6a4.31,4.31,0,0,1,.6-5.1c-.9-.3-1.8-.5-2.8-.8a16.71,16.71,0,0,0,2.2,7.5,1.48,1.48,0,0,0,2.7-1.1,7,7,0,0,0-1.1-2.7c-.8.6-1.6,1.2-2.3,1.8,2.1,1.9-.5,6.3-.7,8.4a6.57,6.57,0,0,0,.9,3.7,1.52,1.52,0,0,0,2.8-.8c0-1.5.1-2.9.2-4.4h-3c0,3.5,1.5,6,3.5,8.7.8-.6,1.6-1.2,2.3-1.8-1.4-1.6-2.3-3.2-4.4-3-.6.1-1.3.4-1.4,1.1a19.93,19.93,0,0,0-.2,4.9c1-.1,1.9-.3,2.9-.4-.1-.5-.2-.9-.3-1.4-1,.3-1.9.5-2.9.8.1.5.3,1,.4,1.5a1.55,1.55,0,0,0,2.5.7,15,15,0,0,0,1.1-1.3c-.8-.5-1.7-1-2.5-1.4-.5,1.8-2,2.3-1.7,4.4a4.67,4.67,0,0,0,2.4,3.5c.4-.9.8-1.8,1.1-2.7a18.65,18.65,0,0,1-2-1c-.5.9-1,1.7-1.5,2.6a6.06,6.06,0,0,0,2.9,1.4,1.52,1.52,0,0,0,1.7-2.2l-.3-2.1c-1,.1-1.9.3-2.9.4v.3c.2-.6.5-1.1.7-1.7-.1,0-.2.1-.3.1a19.45,19.45,0,0,0,2,.5c.2-.8.3-1.6.5-2.5-1-.3-1.9-.5-2.9-.8-.4,3-7.5,4.2-9.9,4.4a1.5,1.5,0,0,0,0,3c4.5.6,6.2-2,9.2-5.1-.8-.5-1.7-1-2.5-1.4-.1.3-.2.5-.3.8.8.5,1.7,1,2.5,1.4a42.48,42.48,0,0,1,2.1-4.9,1.5,1.5,0,0,0-2.6-1.5c-.9,1.2-1.8,2.5-2.7,3.7.9.4,1.8.8,2.7,1.1a9.87,9.87,0,0,1,1.5-3.1,1.48,1.48,0,0,0-2.3-1.8c-.8.8-1.6,1.7-2.4,2.5.8.5,1.7,1,2.5,1.4a9.69,9.69,0,0,1,1.8-4c-.9-.5-1.7-1-2.6-1.5-.3.5-.6.9-.9,1.4.9.5,1.7,1,2.6,1.5.6-1.2,1.2-2.5,1.8-3.7-.9-.5-1.7-1-2.6-1.5a24.37,24.37,0,0,1-3.7,6.7c-1.7,2-4.2,3.1-6.4,4.5-1.3.9-.5,3.3,1.1,2.7,5-1.6,8.5-7.3,11.2-11.5,1.1-1.6-1.5-3.1-2.6-1.5-2.1,3.2-5.5,8.8-9.4,10.1.4.9.8,1.8,1.1,2.7,5.5-3.6,8.5-6.2,11.1-12.3.7-1.7-1.7-3.3-2.6-1.5-.6,1.2-1.2,2.5-1.8,3.7a1.5,1.5,0,0,0,2.6,1.5c.3-.5.6-.9.9-1.4,1-1.6-1.5-3.1-2.6-1.5a16.52,16.52,0,0,0-2.1,4.7,1.47,1.47,0,0,0,2.5,1.4c.8-.8,1.6-1.7,2.4-2.5-.8-.6-1.6-1.2-2.3-1.8a16.59,16.59,0,0,0-1.8,3.8c-.6,1.7,1.8,2.4,2.7,1.1s1.8-2.5,2.7-3.7c-.9-.5-1.7-1-2.6-1.5a27.8,27.8,0,0,0-2.4,5.6,1.47,1.47,0,0,0,2.5,1.4,2.81,2.81,0,0,0,1-2.1c.2-1.4-1.4-2.6-2.5-1.4-2.1,2.1-3.8,4.6-7.1,4.2v3a31.29,31.29,0,0,0,4.4-1c1.6-.3,3.2,0,4.7-.6a5.93,5.93,0,0,0,3.6-5,1.51,1.51,0,0,0-2.9-.8c-.6,1.7-1,3.1-.2,4.8a1.46,1.46,0,0,0,2,.5c.1,0,.2-.1.3-.1a1.62,1.62,0,0,0,.7-1.7v-.3c-.3-1.7-2.8-1.2-2.9.4a5.6,5.6,0,0,0,.7,3.6c.6-.7,1.1-1.5,1.7-2.2-.7-.4-1.5-.7-2.2-1.1-1.6-1.1-3,1.4-1.5,2.6a4.59,4.59,0,0,0,2.7,1.3,1.47,1.47,0,0,0,1.1-2.7c-1.3-.8.3-3.4.6-4.6a1.48,1.48,0,0,0-2.5-1.4,15,15,0,0,0-1.1,1.3,23.35,23.35,0,0,1,2.5.7c-.1-.5-.3-1-.4-1.5-.5-1.9-3.2-1.1-2.9.8.1.5.2.9.3,1.4.3,1.7,3,1.3,2.9-.4a18.75,18.75,0,0,1,.1-4.1,17.09,17.09,0,0,0-1.4,1.1c.9-.1,1.9,1.6,2.3,2.1,1.1,1.3,3.3-.4,2.3-1.8-1.6-2.2-3.1-4.3-3.1-7.2,0-2-2.8-1.9-3,0a32.4,32.4,0,0,0-.2,4.4c.9-.3,1.8-.5,2.8-.8-2.2-4.5,3.7-8.7-.7-12.8a1.47,1.47,0,0,0-2.3,1.8c.3.7.5,1.4.8,2,.9-.4,1.8-.8,2.7-1.1a12.72,12.72,0,0,1-1.8-6,1.53,1.53,0,0,0-2.8-.8c-2.1,3.1-3.2,6.9.5,9.2.5-.9,1-1.7,1.5-2.6-.3-.3-.7-.6-1-.9-.6.7-1.1,1.5-1.7,2.2,1.9.7,2.8,3.4,4,4.9a1.47,1.47,0,0,0,2.3-.3c1.1-1.6,1.9-1.7,2-3.6.1-2.6-1.9-5.9-2.7-8.2a1.51,1.51,0,0,0-2.9.8c.2,1.3.3,2.6.5,3.9,1-.3,1.9-.5,2.9-.8-1.1-4-.5-8.2-1.9-12.1s-2.8-8.2-5.2-11.5a28.21,28.21,0,0,0-8.2-7.2c-3.6-2.2-9-2-12.2-5-.4-1.1-2.5,1-1.1,2.4Z" transform="translate(-63.73 -25.74)"/><path class="cls-1" d="M72.4,82.9a24.69,24.69,0,0,0-1-2.9c-.4.2-.7.3-1.1.5a13.11,13.11,0,0,0,3.2,3,.59.59,0,0,0,.8-.8,37.6,37.6,0,0,1-2-4.6c-.3-.7-1.4-.4-1.1.3A19.63,19.63,0,0,0,73,82.3c.3-.2.7-.4,1-.6l-2.4-3.3c-.4-.6-1.5,0-1,.6a46,46,0,0,0,4.5,5.4c.2-.3.5-.6.7-.9-.9-.6-1.7-1.2-2.6-1.8-.6-.4-1.1.4-.7.9,1.3,1.6,2.6,3.3,4,4.9l.8-.8A32,32,0,0,1,74.8,84l-.8.8,2.2,1.9c.5.4,1.4-.1.9-.7a13.93,13.93,0,0,0-1.5-1.9l-.8.8a35,35,0,0,1,3.8,3.9c.4.5,1.3-.2.9-.7A2.54,2.54,0,0,0,78.3,87a.58.58,0,0,0-.6,1c.9.7,1.9,1.4,2.8,2.1,0-.3-.1-.6-.1-.9-.8.7-3.9,2.2-3.4,3.6.3.9,1.1.7,1.9.6a.57.57,0,0,0,.4-.7h.1c.5,0,.9-.9.3-1.1-.1,0-.1,0-.2-.1-.3-.1-.7-.1-.8.2,0,.1-.1.1-.1.2a.54.54,0,0,0,.2.8,1.2,1.2,0,0,0,.8.2c-.2-.3-.3-.6-.5-.9l-.3.3c.2.3.4.7.6,1,.5-.3.9-.7,1.4-1a5.5,5.5,0,0,1-.9-.7.1.1,0,0,1,.1-.1l-.7.7a4.87,4.87,0,0,1,1.1.4c.6.2.9-.6.6-1a5.72,5.72,0,0,0-.7-.8c-.2.3-.4.7-.6,1,.3.1.6.1.9.2a.61.61,0,0,0,.5-1.1c-.2-.1-.4-.3-.6-.4-.2.4-.3.7-.5,1.1.5.2.9.4,1.4.6.1-.4.2-.7.3-1.1-.1-.2-.1-.3-.2-.5a5.5,5.5,0,0,0-.9.7,10.93,10.93,0,0,0,1.5.8c.6.3,1.3-.5.7-.9s-1-.9-1.5-1.3c-.2.3-.5.6-.7.9.7.3,1.3.7,2,1,.2-.4.3-.7.5-1.1-.7-.4-1.3-.7-2-1.1-.2.3-.5.6-.7.9.8.3,1.5.7,2.3,1a.58.58,0,0,0,.6-1c-.7-.5-1.4-1-2.1-1.4-.2.4-.3.7-.5,1.1a15.05,15.05,0,0,1,5.2,3c.2-.3.4-.7.6-1l-.6-.3c-.1.4-.2.8-.3,1.1.5.2,1.1.4,1.6.6s1-.6.6-1c-.2-.2-.5-.4-.7-.6-.2.3-.4.7-.6,1l1.8-.3c-.1.3-.2.7-.3,1,.2,0,.4-.1.6-.1-.2-.4-.3-.7-.5-1.1-.3.2-.7.3-1,.5-.6.3-.2,1.3.5,1.1l1.1-.3a.57.57,0,0,0,0-1.1,10.49,10.49,0,0,1-2.8-1.4c-.2.4-.3.7-.5,1.1a11.51,11.51,0,0,1,2.5,1.2c.6.4,1.2-.6.6-1a14.65,14.65,0,0,0-2.8-1.4.61.61,0,0,0-.5,1.1,21,21,0,0,0,3,1.5V92.7l-1.1.3c.2.4.3.7.5,1.1.3-.2.7-.3,1-.5.6-.3.2-1.2-.5-1.1-.2,0-.4.1-.6.1a.64.64,0,0,0-.3,1l.1.1a.6.6,0,0,0,.8,0l.1-.1a.61.61,0,0,0,0-.8,3.85,3.85,0,0,0-1.7-.8c-.5-.2-1,.6-.6,1,.2.2.5.4.7.6.2-.3.4-.7.6-1-.5-.2-1.1-.4-1.6-.6-.7-.3-1,.9-.3,1.1l.6.3c.5.2,1-.6.6-1a20.77,20.77,0,0,0-5.8-3.3.61.61,0,0,0-.5,1.1c.7.5,1.4,1,2.1,1.4.2-.3.4-.7.6-1-.8-.3-1.5-.7-2.3-1-.6-.3-1.3.4-.7.9a6.21,6.21,0,0,0,2.5,1.4c.6.2,1.1-.8.5-1.1s-1.3-.7-2-1-1.3.5-.7.9,1,.9,1.5,1.3c.2-.3.5-.6.7-.9a10.93,10.93,0,0,0-1.5-.8.62.62,0,0,0-.9.7c.2.8.4,1.4,1.3,1.4a.59.59,0,0,0,.3-1.1,13,13,0,0,0-1.7-.8c-.7-.3-1,.7-.5,1.1.2.1.4.3.6.4.2-.4.3-.7.5-1.1-.3-.1-.6-.1-.9-.2-.6-.1-.9.5-.6,1a5.72,5.72,0,0,0,.7.8c.2-.3.4-.7.6-1a4.87,4.87,0,0,1-1.1-.4c-.5-.2-.8.3-.7.7.3,1.5,1.7,1.3,2.2.1a.62.62,0,0,0-.9-.7c-.5.3-.9.7-1.4,1-.6.5-.1,1.4.6,1,.5-.2.5-.3.8-.7a.63.63,0,0,0-.5-.9l-.6.9c.1-.4.2-.7.3-1.1-.8,0-.7.2-1.3.7-.1.1,0,.3,0,.4.1-.5,2.6-2.1,3.1-2.5a.56.56,0,0,0-.1-.9c-.9-.7-1.9-1.4-2.8-2.1-.2.3-.4.7-.6,1,.3.2.5.5.8.7.3-.2.6-.5.9-.7a35,35,0,0,0-3.8-3.9c-.6-.5-1.4.3-.8.8s.9,1.1,1.4,1.6c.3-.2.6-.5.9-.7l-2.2-1.9a.57.57,0,0,0-.8.8,21.6,21.6,0,0,0,2.5,2.7.57.57,0,0,0,.8-.8c-1.3-1.6-2.6-3.3-4-4.9-.2.3-.5.6-.7.9.9.6,1.7,1.2,2.6,1.8a.57.57,0,0,0,.7-.9,41.47,41.47,0,0,1-4.3-5.1c-.3.2-.7.4-1,.6l2.4,3.3a.58.58,0,0,0,1-.6A19.89,19.89,0,0,1,72,78.1c-.4.1-.8.2-1.1.3a43.09,43.09,0,0,0,2.2,4.9l.8-.8A8.09,8.09,0,0,1,71.2,80c-.4-.5-1.4-.2-1.1.5.4,1,.7,1.9,1,2.9.4.6,1.6.3,1.3-.5Z" transform="translate(-63.73 -25.74)"/><path class="cls-1" d="M121.4,90.2a4.31,4.31,0,0,0,1.7-1.3.57.57,0,0,0-.7-.9,6.31,6.31,0,0,1-2.3.8c.2.3.4.7.6,1,1-1.2,2.5-1.3,3.4-2.6a.57.57,0,0,0-.9-.7c-.6.3-1.1.7-1.7,1,.2.4.3.7.5,1.1a10.39,10.39,0,0,0,2.4-1.7.6.6,0,0,0-.6-1,3.7,3.7,0,0,0-1.1.5c.2.3.5.6.7.9,3-3.5,5.9-7,7.5-11.3.2-.5-.5-.9-.9-.7-1.9,1.1-2.2,4.1-3.7,5.7-.5.6.3,1.4.8.8a13.09,13.09,0,0,0,1.9-2.7c.5-.9.6-2.3,1.5-2.8a5.5,5.5,0,0,1-.9-.7c-1.5,4.2-4.4,7.5-7.2,10.8-.4.5.1,1.3.7.9a5.94,5.94,0,0,0,.8-.4c-.2-.3-.4-.7-.6-1a8.55,8.55,0,0,1-2.2,1.5c-.6.3-.2,1.3.5,1.1a4.47,4.47,0,0,0,2.2-1.3c-.3-.2-.6-.5-.9-.7-.8,1.1-2.3,1.4-3.2,2.4a.61.61,0,0,0,.6,1,8.25,8.25,0,0,0,2.6-1c-.2-.3-.5-.6-.7-.9a3.27,3.27,0,0,1-1.5,1.1c-.6.4,0,1.5.7,1.1Z" transform="translate(-63.73 -25.74)"/><path class="cls-1" d="M119.6,90.6a6.21,6.21,0,0,0-2.5,1.4.62.62,0,0,0,.6,1c.4-.1.7-.2,1-.3-.2-.1-.5-.3-.7-.4a29.7,29.7,0,0,0-3.3.6.58.58,0,0,0-.4,1c.3.4.4.4.9.5V93.3c-.6.2-1.3-.2-1.8-.4a9.85,9.85,0,0,0-1.7-.2c.1.4.1.8.2,1.2,2-.8,4.2-.8,6-2-.2-.3-.5-.6-.7-.9a3.67,3.67,0,0,1-1.6.9c.2.4.3.7.5,1.1,1.3-.7,2.5-1.4,3.8-2.1.6-.4.2-1.2-.5-1.1a5,5,0,0,0-2.8,1.6c-.6.5.3,1.4.8.8a4.1,4.1,0,0,1,2.3-1.3c-.2-.4-.3-.7-.5-1.1-1.3.7-2.5,1.4-3.8,2.1-.6.3-.2,1.2.5,1.1a4.77,4.77,0,0,0,2.2-1.2.57.57,0,0,0-.7-.9c-1.7,1.1-3.8,1.2-5.7,1.9a.62.62,0,0,0,.2,1.2c1.3,0,2.6.9,3.8.5a.56.56,0,0,0,0-1.1.52.52,0,0,0-.4-.2c-.1.3-.3.7-.4,1,1.1-.1,4.8-.4,4.4-2.1a.57.57,0,0,0-.7-.4,1.93,1.93,0,0,1-1,.3c.2.3.4.7.6,1a3.6,3.6,0,0,1,2-1.1c.4-.3.1-1.5-.6-1.3Z" transform="translate(-63.73 -25.74)"/><path class="cls-2" d="M70.7,88.7c-1.1-1.7-.1-5.2-.4-7.3a36.32,36.32,0,0,0-2.6-8.5c-.3-.7-1.5-.4-1.2.3a31.74,31.74,0,0,1,2.8,10c.1,2.2-.9,4.1.3,6.1.4.6,1.5,0,1.1-.6Z" transform="translate(-63.73 -25.74)"/><path class="cls-2" d="M68.7,62.4c-.2-2.6,2-3.9,2.5-6.2s-1.1-6.6,1.4-8.2c.6-.4,0-1.5-.6-1-2.2,1.4-1.9,3.7-1.9,6a10.4,10.4,0,0,1-1.7,5.9,5.69,5.69,0,0,0-1,3.5c.2.7,1.4.7,1.3,0Z" transform="translate(-63.73 -25.74)"/><path class="cls-2" d="M77.4,37.7a4.56,4.56,0,0,1,3.9-3.8c.8-.1.4-1.3-.3-1.2a5.63,5.63,0,0,0-4.7,4.6c-.2.8,1,1.1,1.1.4Z" transform="translate(-63.73 -25.74)"/><path class="cls-2" d="M83.9,39.2c2.3-1.8,6.3.8,8.7,1.2a4.2,4.2,0,0,0,4.1-1.3c.5-.6-.3-1.4-.8-.8-3,3.5-9-3-12.8.1-.6.4.2,1.3.8.8Z" transform="translate(-63.73 -25.74)"/><path class="cls-2" d="M99.2,30.7c.4.2.8.4,1.3.6s1.2-.3.8-.8a1.86,1.86,0,0,0-1.2-.9.62.62,0,0,0-.7.9,12.13,12.13,0,0,0,1,1.4l.8-.8c-.5-.3-1-.5-1.5-.8s-1.2.3-.8.8,1,.9,1.4,1.4.6.9,1.2,1.2a.59.59,0,0,0,.8-.8.87.87,0,0,0-.8-.6c-.4-.1-.9.3-.7.7a5.17,5.17,0,0,0,.6,1.3c.2-.3.5-.6.7-.9a3.13,3.13,0,0,1-1-.5.61.61,0,0,0-.9.4c-.4,1.1.6,2.3,1.1,3.2.2.4,1,.4,1.1-.1a2.46,2.46,0,0,0-.1-1.2,3.57,3.57,0,0,1,.7-2.6.59.59,0,0,0-.5-.9,1.34,1.34,0,0,0-.9.2c.3.2.6.3.9.5a4.87,4.87,0,0,1,.1-1.2c0-.4-.4-.6-.8-.6a.6.6,0,0,0-.4.1c.3.2.5.4.8.6a2.46,2.46,0,0,1,.1-1.2c.2-.5-.4-.9-.9-.7-.3.1-.6.3-.9.4.3.2.6.3.9.5v-1c0-.6-.6-.7-1-.4h-.1a.62.62,0,0,0-.3,1.2c.5.2.8,0,1.2-.3-.3-.1-.7-.3-1-.4v1a.59.59,0,0,0,.9.5c.3-.1.6-.3.9-.4-.3-.2-.6-.5-.9-.7a3.64,3.64,0,0,0-.2,1.5c0,.4.4.6.8.6a.6.6,0,0,0,.4-.1c-.3-.2-.5-.4-.8-.6a4.87,4.87,0,0,1-.1,1.2.59.59,0,0,0,.9.5.37.37,0,0,0,.3-.1c-.2-.3-.3-.6-.5-.9a10,10,0,0,0-1,2.1c-.1.6.4,1.3.3,1.9.4,0,.7-.1,1.1-.1-.2-.5-1.2-1.7-1-2.2a3.55,3.55,0,0,0-.9.4c.4.2.8.4,1.3.6a.62.62,0,0,0,.7-.9,2.22,2.22,0,0,1-.5-1.1l-.7.7h0l.8-.8c-.7-.4-.5-.7-.9-1.1a12.67,12.67,0,0,1-1.3-1.1l-.8.8a10.93,10.93,0,0,1,1.5.8c.5.3,1.2-.3.8-.8a17,17,0,0,1-1-1.4c-.2.3-.5.6-.7.9.1.1.3.2.4.4l.8-.8c-.4-.2-.8-.4-1.3-.6s-1,.8-.3,1.1Z" transform="translate(-63.73 -25.74)"/><path class="cls-2" d="M111.5,33.9c2.2-.9,4.7-1,6.1,1,.7,1.1,1,2.3,1.8,3.4,1.5,1.9,3.4,2,5.6,2.6a.62.62,0,0,0,.3-1.2c-2.8-.7-4.8-1.2-5.9-4.1a4.46,4.46,0,0,0-1.3-2.3c-1.9-1.7-4.8-1.4-7-.6-.6.3-.3,1.4.4,1.2Z" transform="translate(-63.73 -25.74)"/><path class="cls-2" d="M130.6,71.5c-3-1.9,1.3-6.9,1.1-9.4-.1-1.4-4-7.5-3.2-8.1.6-.4,0-1.5-.6-1a.76.76,0,0,1-.4.2.55.55,0,0,0-.3.5,11.36,11.36,0,0,0,1.4,4.4c.5,1,1.5,2,1.7,3.1.6,2.5-1.2,4.1-1.9,6.2a4,4,0,0,0,1.5,5c.8.5,1.4-.5.7-.9Z" transform="translate(-63.73 -25.74)"/><path class="cls-2" d="M131.5,90.9a4.61,4.61,0,0,1-1.6-2.3c-.6-2,.1-2.1.8-3.3a5.09,5.09,0,0,0,.6-3.4c-.1-.8-1.3-.8-1.2,0,.2,1.6-.4,2.6-1.3,3.9a2.75,2.75,0,0,0-.5,2,6.77,6.77,0,0,0,2.5,4.2c.7.4,1.3-.6.7-1.1Z" transform="translate(-63.73 -25.74)"/><path d="M68.5,93.4c2-2.1,4.8-1.2,6.9.2a.58.58,0,1,0,.6-1c-2.6-1.7-6-2.5-8.3,0a.57.57,0,1,0,.8.8Z" transform="translate(-63.73 -25.74)"/><path d="M99.3,27.3a13.82,13.82,0,0,0-9.2.1,55.69,55.69,0,0,1-7.9,2.5,11.08,11.08,0,0,0-4.1,1.4c-3.1,1.9-3.7,5.4-5.7,8.2-2.5,3.5-6.7,5.8-8.2,10-1.2,3.4.4,6.3.8,9.7.5,4.4-2.1,7.9-1,12.3,1.1,4.6,3.6,8,2.2,12.9-1,3.5-1,5.3,1.3,8.3.5.6,1.5,0,1-.6-3.1-4.2-.5-6.7-.4-10.7.1-2.5-1-4.8-1.9-7.1A16.8,16.8,0,0,1,65,70.5c-.5-3.4.6-3.9,1.3-6.8.6-2.5-.1-4.7-.7-7.2-1.5-6.7,1.5-9.5,5.7-13.8,2-2.1,2.8-4,4.3-6.5a9.48,9.48,0,0,1,5.5-4.9c1.5-.5,3.2-.3,4.7-.8,4.7-1.4,8.1-3.7,13.3-2.1.6.3.9-.9.2-1.1Z" transform="translate(-63.73 -25.74)"/><path d="M75.3,93.7c2.1,1.5,4.4.4,6.3-.8a.58.58,0,1,0-.6-1c-1.5.9-3.4,2-5.1.8-.6-.4-1.2.6-.6,1Z" transform="translate(-63.73 -25.74)"/><path d="M81.8,93c2.3-1.3,3.5,1.9,5.7,1.9a.6.6,0,1,0,0-1.2c-1.4,0-2.1-1.5-3.3-2a3.41,3.41,0,0,0-3.1.2c-.6.4,0,1.5.7,1.1Z" transform="translate(-63.73 -25.74)"/><path d="M87.3,94.9a2.44,2.44,0,0,0,2.3-.6c.6-.5-.2-1.3-.8-.8a1.31,1.31,0,0,1-1.2.3.57.57,0,0,0-.3,1.1Z" transform="translate(-63.73 -25.74)"/><path d="M99.1,39.5c-1.2,2.4-3.2,2-5.3,1.6a34.08,34.08,0,0,0-4.6-.5.6.6,0,1,0,0,1.2c3.6.2,8.8,2.6,10.9-1.7.4-.6-.6-1.3-1-.6Z" transform="translate(-63.73 -25.74)"/><path d="M99.1,28c4.9-2.9,6.9,1,11,1.8a21.66,21.66,0,0,0,3.6.1,8.33,8.33,0,0,1,6.2,1.7,17.26,17.26,0,0,1,1.7,3.3,6.25,6.25,0,0,0,3,3c1.9,1.1,3.9,1.5,5.4,3.3,2.1,2.5,2.5,5.6,2.4,8.8a.6.6,0,1,0,1.2,0c.1-3.9-.5-7.9-3.5-10.7-1.2-1.1-2.5-1.3-3.8-2.1-3.6-2.3-3.3-4.6-6-6.8a6.93,6.93,0,0,0-3.2-1.6c-3.6-.9-5.8.3-9.6-1.5-3.3-1.5-5.5-2.4-9-.4-.6.5,0,1.5.6,1.1Z" transform="translate(-63.73 -25.74)"/><path d="M132.2,49.8a7.09,7.09,0,0,0,.8,4.7c1.2,2.5,3.9,5.8,1.1,8.2-.6.5.3,1.4.8.8,4.6-4-2.4-9-1.6-13.4.2-.8-1-1.1-1.1-.3Z" transform="translate(-63.73 -25.74)"/><path d="M134.8,62.5a2.72,2.72,0,0,0-2.1,3.4,8.19,8.19,0,0,0,1.8,3.3c1.5,2.4,1.6,4.4-.1,6.8-.5.6.6,1.2,1,.6,1.1-1.6,2.1-3.1,1.5-5.1-.4-1.5-5.2-7.2-1.9-7.9a.57.57,0,1,0-.2-1.1Z" transform="translate(-63.73 -25.74)"/><path d="M134.2,75.9a2.62,2.62,0,0,0-2,3.1,5.44,5.44,0,0,0,2.3,3.6c.6.4,1.2-.6.6-1-1.4-1-2.8-3.7-.6-4.5.8-.3.4-1.5-.3-1.2Z" transform="translate(-63.73 -25.74)"/><path d="M134.1,82.4c.5.7,1.2,1.5,1.1,2.4-.1,1.5-.9,1.4-1.7,2a3.09,3.09,0,0,0-1.1,1.6c-.6,1.8.3,3.4,1.5,4.7.5.6,1.4-.3.8-.8-1.7-1.8-1.7-3.3.3-5a5.73,5.73,0,0,0,1.1-1.1c.7-1.5-.1-3.1-1-4.3-.4-.7-1.4-.1-1,.5Z" transform="translate(-63.73 -25.74)"/><path d="M134.1,93a3.92,3.92,0,0,1-3.5.2c-.9-.3-1.4-1.2-2.3-1.6-1.3-.5-2.8.5-4,1.1-.7.3-.1,1.4.6,1,1.5-.7,2.4-1,4.1-.1a8.87,8.87,0,0,0,1.7.8,5.11,5.11,0,0,0,4-.5c.7-.2.1-1.2-.6-.9Z" transform="translate(-63.73 -25.74)"/><path d="M123.9,92.8c-.8-.1-1.6.2-2.4.1s-1.3-.5-2-.6a2.87,2.87,0,0,0-2.8,1.2c-.5.6.3,1.4.8.8,1.1-1.3,2-.8,3.4-.4,1,.3,1.9-.1,2.9,0s.9-1,.1-1.1Z" transform="translate(-63.73 -25.74)"/><path d="M116.6,93.8c-.6.1-1.1.5-1.7.5a7,7,0,0,1-1.9-.6,2.16,2.16,0,0,0-2.2.5c-.5.6.3,1.4.8.8.7-.8,2.1.3,2.8.4a6.44,6.44,0,0,0,2.4-.5.56.56,0,1,0-.2-1.1Z" transform="translate(-63.73 -25.74)"/><path d="M127.9,72.2c-3.7-2.5.3-5.5.6-8.5a5.26,5.26,0,0,0-1.8-4.5c-.6-.5-1.4.3-.8.8,3.3,3.1-.3,5.5-.8,8.7a4.39,4.39,0,0,0,2.2,4.4c.6.6,1.2-.5.6-.9Z" transform="translate(-63.73 -25.74)"/><path d="M126.7,59.5c-1.2-2.6.4-5.2-.7-7.7-.8-1.7-2.6-2.6-4-3.6-.6-.5-1.2.6-.6,1,.8.6,1.6,1.1,2.4,1.7,1.4,1.2,1.4,2.6,1.2,4.4a7.58,7.58,0,0,0,.7,4.7c.3.8,1.3.2,1-.5Z" transform="translate(-63.73 -25.74)"/><path d="M122,48.3a8.19,8.19,0,0,1-2.7-3.4,3.39,3.39,0,0,0-1.4-1.5,7,7,0,0,0-1.9-.6c-2.1-.4-3.5-.4-4.9-2.3-.5-.6-1.5,0-1,.6a6.65,6.65,0,0,0,5.1,2.8c1.7.2,2.2.5,3.2,2.1.3.5.4.9.7,1.3a11,11,0,0,0,2.3,2c.6.5,1.2-.6.6-1Z" transform="translate(-63.73 -25.74)"/><path d="M110.8,40.9a2.44,2.44,0,0,0-1.8-2.2c-1.8-.7-4.1.2-4.9-2.1-.3-.7-1.4-.4-1.2.3a4.12,4.12,0,0,0,2.1,2.4c1.1.5,4.4-.1,4.6,1.6a.6.6,0,0,0,1.2,0Z" transform="translate(-63.73 -25.74)"/><path d="M100.1,40.2a3,3,0,0,1,2.6-1.7.6.6,0,1,0,0-1.2A4.3,4.3,0,0,0,99,39.6c-.3.6.7,1.2,1.1.6Z" transform="translate(-63.73 -25.74)"/><path d="M104.4,37.7l-.1-.1c-.5-.5-1.4.3-.8.8l.1.1c.5.6,1.4-.3.8-.8Z" transform="translate(-63.73 -25.74)"/><path d="M127.3,73.7c1.2.4,2.7,1.3,2.3,2.7-.2.7,1,1.1,1.2.3.5-2.2-1.3-3.6-3.2-4.2-.7-.3-1.1.9-.3,1.2Z" transform="translate(-63.73 -25.74)"/><path d="M89.8,40.6a6.74,6.74,0,0,0-6.3.8,9.14,9.14,0,0,0-2,2.4A5.77,5.77,0,0,1,78.8,46c-.9.3-1.9.3-2.8.6-.7.2-.4,1.4.3,1.2,1.9-.5,4.2-.4,5.6-2,.5-.6.6-1.3,1.1-1.9A5.61,5.61,0,0,1,89.6,42a.75.75,0,0,0,.2-1.4Z" transform="translate(-63.73 -25.74)"/><path d="M76.6,46.4c-1.9.2-4.1,1.2-3.9,3.5a6.61,6.61,0,0,0,.5,1.5,5.23,5.23,0,0,1-.2,5c-.9,1.4-2,2.4-2.6,4-.3.7.9,1,1.2.3.8-2.1,2.9-3.4,3.3-5.7a5,5,0,0,0,0-2.1c-.1-.5-.3-.9-.4-1.3-.1-.1-.1-.3-.2-.4-.8-1.3,0-2.5,2.2-3.5.9-.2.9-1.4.1-1.3Z" transform="translate(-63.73 -25.74)"/><path d="M70.2,60.2a6.54,6.54,0,0,0-.5,3.9c.4,1.3,1.7,1.7,2.4,2.8,1.9,3-1.6,5-2.1,7.6a6,6,0,0,0,.9,3.9.58.58,0,1,0,1-.6c-2.7-4.3,3-6.2,1.9-10.1a5.37,5.37,0,0,0-1-1.6c-1.5-1.8-2.3-3.2-1.6-5.6.4-.7-.8-1.1-1-.3Z" transform="translate(-63.73 -25.74)"/></svg>