<?xml version="1.0" encoding="utf-8"?>
<!-- Generator: Adobe Illustrator 21.0.2, SVG Export Plug-In . SVG Version: 6.00 Build 0)  -->
<svg version="1.1" id="Layer_1" xmlns="http://www.w3.org/2000/svg" xmlns:xlink="http://www.w3.org/1999/xlink" x="0px" y="0px"
	 viewBox="0 0 200 600" style="enable-background:new 0 0 200 600;" xml:space="preserve">
<style type="text/css">
	.st0{fill:#005BD9;}
	.st1{fill:#910A95;}
</style>
<g>
	<g>
		<g>
			<g>
				<path class="st0" d="M75.6,141c0.1-1.4,0.1-2.7,0.3-4.1c0.1-1.4-1.9-1.5-2.4-0.3c-0.2,0.5-0.4,1.1-0.6,1.6
					c0.8,0.2,1.5,0.4,2.3,0.6c0.3-1.6,0.7-3.2,1-4.8c0.3-1.5-1.9-2.1-2.3-0.6c-0.4,1.3-0.7,2.5-1.1,3.8c-0.4,1.5,1.8,2.1,2.3,0.6
					c0.6-1.5,0.8-2.9,1-4.5c0.1-1.4-2-1.6-2.4-0.3c-0.2,0.6-0.3,1.2-0.5,1.7c0.8,0.1,1.6,0.2,2.4,0.3c0.7-9.1,1-18.2,0.7-27.3
					c-0.5,0.4-1,0.8-1.5,1.2c1.8,0.7,2.8,0.8,4.4-0.1c1.2-0.7,0.4-2.6-0.9-2.2c-1.3,0.4-2,0.9-2.3,2.3c-0.2,0.9,0.1,1.5,0.2,2.3
					c0.3,2.9,0.6,5.2,0.2,8.1c0.8,0,1.6,0,2.4,0c0.4-3.6,0.3-7-0.2-10.5c-0.2-1.1-2.2-1.1-2.3,0c-0.7,5.1-1.2,10.3-1.4,15.4
					c-0.1,1.4,2,1.6,2.4,0.3c0.4-1.6,0.8-3.3,1.3-4.9c-0.8-0.1-1.6-0.2-2.4-0.3c0,1.9,0,3.7-0.1,5.6c-0.1,1.5,2.3,1.5,2.4,0
					c0.1-1.3,0.2-2.6,0.3-3.9c0.1-1.6-2.2-1.5-2.4,0c-0.5,4.4-1,8.7-1.7,13.1c-0.2,1.5,2,2.2,2.3,0.6c0.7-3.3,1.1-6.6,1.2-10.1
					c-0.8,0.1-1.6,0.2-2.4,0.3c0.4,2.3,0.4,4.5,0,6.8c-0.2,1.5,1.9,2.2,2.3,0.6c0.7-2.9,1-5.6,0.8-8.5c-0.1-1.5-2.4-1.6-2.4,0
					c0,6.1-0.7,12.1-2.1,18c0.8,0.1,1.6,0.2,2.4,0.3c0-1.7,0.1-3.3,0.3-5c-0.7,0.2-1.5,0.4-2.2,0.6c1.7,3.9,0.6,7.8,0.1,11.8
					c-0.2,1.4-0.3,2.8-0.2,4.3c0.1,1.5,1.8,5.9-1.7,1.4c-0.5,0.6-0.9,1.2-1.4,1.8c-0.3-0.1-0.6-0.2-0.8-0.3
					c-0.7,0.2-1.5,0.4-2.2,0.6c-1.1-1-2.3-2-3.4-3c0-1.4,0.4-2.6,1-3.8c0.6-1.4,1.4-2.8,2.3-4.1c1.8-2.7,4-5.1,6.4-7.3
					c-0.7-0.4-1.3-0.8-2-1.2c-1.2,8.2-5.8,15.4-6.3,23.7c0.7-0.2,1.5-0.4,2.2-0.6c-1.6-3-1.3-8.5,1.1-11.2c-0.7-0.2-1.3-0.4-2-0.5
					c-1.5,4.9-1,5.4,1.4,1.5c-0.7-0.2-1.3-0.4-2-0.5c-0.7,1.1-1.5,2.2-2.2,3.4c0.5,0.5,1,1,1.5,1.5c1.6-4.1,3.7-7.5,6.5-10.8
					c-0.7-0.4-1.3-0.8-2-1.2c-0.6,0.9-1.2,1.7-1.8,2.6c0.7,0.4,1.3,0.8,2,1.2c0.1-1.5,0.7-2.8,2-3.9c-0.6-0.5-1.3-1-1.9-1.5
					c-1.3,2.9-2.9,5.6-4.8,8.2c0.7,0.4,1.4,0.8,2.1,1.2c0.8-1.5,1.6-3,2.4-4.5c0.7-1.4-1.2-2.5-2.1-1.2c-0.6,1-1.4,1.9-2.4,2.6
					c0.6,0.5,1.3,1,1.9,1.5c1.5-2.4,3.1-4.6,4.9-6.8c-0.6-0.5-1.3-1-1.9-1.5c-0.6,1.4-1.6,2.5-2.9,3.4c0.6,0.3,1.2,0.7,1.8,1
					c0-0.6-0.1-1.2-0.1-1.7c0-0.8-0.7-1.4-1.5-1.2c-2.8,0.8-2,3.9,0.4,4.5c5.2,1.4,9.7-4.4,10.4-8.8c-0.7,0.1-1.5,0.2-2.2,0.3
					c1.1,2.2,2.5,3,4.9,3c1.4,0,1.6-2,0.3-2.4c-1-0.3-2-0.6-2.9-0.9c-0.1,0.8-0.2,1.6-0.3,2.4c5.8,0.5,9.2,4.9,12.1,9.4
					c0.7-0.4,1.4-0.8,2.1-1.2c-0.8-1.2-1.5-2.1-2.5-3.1c-0.9-0.9-2.7,0.3-1.9,1.5c3.5,4.7,5.1,8.9,2,14.4c-2.8,4.8-7.4,8.4-13.2,7
					c-1.3-0.3-2,1.4-0.9,2.2c0.3,0.2,0.7,0.4,1,0.7c0.3-0.7,0.6-1.5,0.9-2.2c-2.3-1-4.7-1.9-7-2.9c-1.3-0.5-2.1,1.5-0.9,2.2
					c1.3,0.7,2.5,1.5,3.8,2.2c1.4,0.8,2.4-1.2,1.2-2.1c-1.8-1.4-3.7-2.8-5.5-4.2c-1-0.7-2.3,0.7-1.6,1.6c0.8,1.1,0.9,1.3,2,2.1
					c1.1,0.8,2.5-1,1.5-1.9c-1.5-1.3-3.2-2.4-4.7-3.7c-4-3.8-1.3-8.5,2.4-11c0.6,1.9,1,1.4,1.4-1.2c2-0.3,3.1-1.4,3.4-3.5
					c1.1,2.4,0.8,3.7-1,4.1c-0.5-1.6-0.3-3.1,0.7-4.6c-0.6-0.1-1.3-0.2-1.9-0.2c1.2-0.7,2.5-1.3,3.7-2c0.7-0.2,1.3-0.4,2-0.5
					c1,1.3,2,2.7,2.8,4.1c0.5-0.6,0.9-1.2,1.4-1.8c0.9-0.2,1.4,0.5,1.5,2.1c0.5-0.6,0.9-1.2,1.4-1.8c-2.4-0.8-4.2-2.4-5.5-4.7
					c-0.3,0.6-0.7,1.2-1,1.8c3,0,5.4,1.5,6.8,4.2c0.3-0.6,0.7-1.2,1-1.8c-2.8-0.2-4.4-1.3-6-3.3c-0.3,0.7-0.6,1.4-0.8,2
					c2.6,0.1,6.6,1.9,7.2,4.7c0.6-0.5,1.2-0.9,1.8-1.4c-2.4-1.4-2.5-1.1-0.4,1c0.8,1.5,1,3,0.8,4.5c0.7-0.3,1.4-0.6,2-0.8
					c-2.2-1.9-0.5,2.6-1.8,4.3c0.5-0.1,1.1-0.3,1.6-0.4c-0.6,0.8-1.1,1.6-1.7,2.4c0.5,0.1,1.1,0.3,1.6,0.4c-0.2-0.3-0.3-0.5-0.5-0.8
					c-0.8-1.3-2.9-0.1-2.1,1.2c0.2,0.3,0.3,0.5,0.5,0.8c0.3,0.5,1.1,0.8,1.6,0.4c1.7-1.2,4.6-5.4,0.7-6.3c-2.7-0.6-3.4,2.6-1.4,3.9
					c0.6,0.4,1.3,0.1,1.6-0.4c1.5-1.9,1.2-8.3-2.4-6c-2.3,1.5-0.4,6.8,2.4,5.2c3-1.7,0-9.4-2.7-10.2c-1.2-0.4-2.3,0.1-2.7,1.4
					c-0.8,2.3,2,4.7,3.4,5.9c0.8,0.7,2,0.2,2-0.8c0.2-3.3-2.1-11-6.7-9.3c-0.5,0.2-0.9,0.6-0.9,1.2c0.1,2.4,1.5,3.7,3.7,4.7
					c1,0.4,2-0.3,1.8-1.4c-0.5-2.4-4.9-9.7-7.5-4.8c-1.5,2.8,2.5,8.1,5.6,6.9c0.5-0.2,0.8-0.6,0.9-1.2c0.3-4.5-4.6-7.2-8.5-7.4
					c-1.2,0-1.4,1.3-0.8,2c2,2.6,4.5,3.8,7.7,4c1,0.1,1.4-1.1,1-1.8C86,142.8,83,141,79,141c-0.9,0-1.5,1-1,1.8
					c1.6,2.9,3.8,4.7,6.9,5.8c1.1,0.4,1.8-0.9,1.4-1.8c-1.1-2.3-5.3-6.9-8-3.8c-2.2,2.6,1.5,4.9,3.8,5.2c1,0.1,1.9-0.8,1.4-1.8
					c-1.2-2.2-5.6-6.8-7.3-2.7c-0.2,0.4,0,0.9,0.3,1.2c0.1,0.1,0.3,0.3,0.4,0.4c0.6,0.6,1.8,0.3,2-0.5c0.9-4.5-5.5-5.4-5.5-1.2
					c0,4.2,6.5,2.7,4.6-0.7c-2.2-4-8.1,2.9-6.5,6.1c1.9,3.9,5.9-0.8,3.5-4.2c-0.4-0.6-1.3-0.9-1.9-0.2c-1.7,2.1-3,7.9,0.3,9.4
					c3.8,1.8,4.6-4.9,4.1-7.1c-2-8.9-12.2,6.7-4,8c0.4,0.1,0.9,0,1.2-0.3c1.6-2.1,3.4-10.9-1.5-9c-3.3,1.2-7.5,9.6-3.4,11.7
					c0.5,0.3,1,0.2,1.5-0.2c3.6-3,1.8-10.7-3.5-6.7c-2.5,1.9-5.1,4.6-4.9,8.1c0.4,4.5,4.9,6.8,7.9,9.5c0.5-0.6,1-1.3,1.5-1.9
					c-0.4-0.4-0.8-0.8-1.2-1.2c-0.5,0.5-1.1,1.1-1.6,1.6c1.8,1.4,3.7,2.8,5.5,4.2c0.4-0.7,0.8-1.4,1.2-2.1c-1.3-0.7-2.5-1.5-3.8-2.2
					c-0.3,0.7-0.6,1.5-0.9,2.2c2.3,1,4.7,1.9,7,2.9c1.3,0.5,2-1.5,0.9-2.2c-0.3-0.2-0.7-0.4-1-0.7c-0.3,0.7-0.6,1.5-0.9,2.2
					c6.3,1.5,11.7-1.7,15.2-6.9c4.4-6.6,3.4-11.8-1.3-18c-0.6,0.5-1.3,1-1.9,1.5c0.9,0.7,1.6,1.6,2.2,2.6c0.8,1.3,2.9,0.1,2.1-1.2
					c-3.5-5.4-7.4-10.1-14.2-10.6c-1.4-0.1-1.6,2-0.3,2.4c1,0.3,2,0.6,2.9,0.9c0.1-0.8,0.2-1.6,0.3-2.4c-1-0.6-1.9-1.2-2.9-1.8
					c-0.4-0.9-2-0.7-2.2,0.3c-0.7,4.9-3.7,6.1-7.8,7.2c-0.5-0.4-1-0.8-1.5-1.2c0,0.6,0.1,1.2,0.1,1.7c0.1,0.8,1,1.6,1.8,1
					c1.7-1.2,2.8-2.4,3.8-4.3c0.6-1.1-1-2.5-1.9-1.5c-2,2.3-3.7,4.7-5.3,7.3c-0.8,1.2,0.9,2.3,1.9,1.5c1.2-0.9,2-1.9,2.8-3.1
					c-0.7-0.4-1.4-0.8-2.1-1.2c-0.8,1.5-1.6,3-2.4,4.5c-0.8,1.4,1.2,2.4,2.1,1.2c1.9-2.6,3.5-5.2,4.8-8.2c0.5-1.2-0.9-2.5-1.9-1.5
					c-1.5,1.5-2.2,2.8-2.6,4.9c-0.2,1.2,1.1,2,2,1.2c1.2-1.1,1.8-2.1,2.4-3.7c0.4-1.1-1.2-2.1-2-1.2c-3.1,3.6-5.4,7.5-7.1,11.9
					c-0.4,0.9,0.7,1.6,1.5,1.5c3.1-0.7,4.6-3.3,3.9-6.3c-0.2-0.9-1.4-1.1-2-0.5c-1.9,1.6-4,5.5-1.3,7.3c0.4,0.2,0.9,0.2,1.2,0
					c2.7-1.6,3.1-5,2.7-7.8c-0.1-0.9-1.4-1.1-2-0.5c-1.5,1.6-5.1,9-0.2,8.8c3.2-0.1,3.7-5.1,1.4-6.5c-0.5-0.3-1-0.1-1.5,0.2
					c-3.5,2.7-3,8.1-1.2,11.6c0.6,1.1,2.2,0.5,2.2-0.6c0.5-8.1,5-15.1,6.2-23c0.2-1.2-1.1-2-2-1.2c-4.7,4.3-13.4,13.4-9.5,20.5
					c2.3,4.2,9.9,3.1,7-1.6c-0.6-1-2.2-0.6-2.2,0.6c0,2.8,2.4,5.9,5.4,4c3-1.8,1.4-5.4-1.6-5.9c-0.9-0.2-2.1,0.8-1.4,1.8
					c1.4,1.8,2.8,3.2,5.1,3.4c0.4,0,0.8-0.3,1-0.6c0.8-1.3,0.6-1.4,0.5-2.9c-0.3-3.3-0.3-5.9,0.2-9.3c0.5-3.7,0.7-7-0.8-10.4
					c-0.5-1.2-2.1-0.4-2.2,0.6c-0.2,1.7-0.3,3.3-0.3,5c0,1.3,2,1.7,2.4,0.3c1.4-6.2,2.1-12.3,2.2-18.6c-0.8,0-1.6,0-2.4,0
					c0.1,2.7-0.1,5.2-0.8,7.9c0.8,0.2,1.5,0.4,2.3,0.6c0.4-2.8,0.4-5.3,0-8.1c-0.2-1.4-2.3-1-2.4,0.3c-0.1,3.2-0.4,6.3-1.1,9.4
					c0.8,0.2,1.5,0.4,2.3,0.6c0.7-4.6,1.3-9.1,1.8-13.7c-0.8,0-1.6,0-2.4,0c-0.1,1.3-0.2,2.6-0.3,3.9c0.8,0,1.6,0,2.4,0
					c0.1-1.9,0.1-3.7,0.1-5.6c0-1.3-2-1.7-2.4-0.3c-0.4,1.6-0.8,3.3-1.3,4.9c0.8,0.1,1.6,0.2,2.4,0.3c0.2-5,0.6-9.9,1.3-14.8
					c-0.8,0-1.5,0-2.3,0c0.5,3.3,0.5,6.6,0.1,9.9c-0.2,1.5,2.2,1.5,2.4,0c0.1-0.6-0.3-10.2,0.1-10.3c-0.3-0.7-0.6-1.5-0.9-2.2
					c-0.9,0-1.7-0.1-2.6-0.1c-0.7-0.3-1.5,0.4-1.5,1.2c0.3,9.1,0.1,18.2-0.7,27.3c-0.1,1.4,2,1.6,2.4,0.3c0.2-0.6,0.3-1.2,0.5-1.7
					c-0.8-0.1-1.6-0.2-2.4-0.3c-0.1,1.4-0.4,2.6-0.9,3.9c0.8,0.2,1.5,0.4,2.3,0.6c0.4-1.3,0.7-2.5,1.1-3.8c-0.8-0.2-1.5-0.4-2.3-0.6
					c-0.3,1.6-0.7,3.2-1,4.8c-0.3,1.5,1.8,2.1,2.3,0.6c0.2-0.5,0.4-1.1,0.6-1.6c-0.8-0.1-1.6-0.2-2.4-0.3c-0.1,1.4-0.2,2.7-0.3,4.1
					C73.1,142.5,75.5,142.5,75.6,141L75.6,141z"/>
			</g>
		</g>
		<g>
			<g>
				<path class="st0" d="M126.9,144.4c-0.7-5.6-3.3-10.6-3.6-16.3c-0.3-6.8-0.3-13.6-0.5-20.5c-0.6,0.3-1.2,0.7-1.8,1
					c1.3,0.6,1.3,0.6,2.6,0.8c0.9,0.2,1.7-0.5,1.5-1.5c-0.1-0.3-0.1-0.5-0.2-0.8c-0.4-1.5-2.6-0.9-2.3,0.6c0.5,3.2,0.6,6.3,0.2,9.5
					c0.8,0,1.6,0,2.4,0c0-2.4-0.2-4.6-0.7-6.9c-0.3-1.3-2.5-1-2.4,0.3c0.3,2.2,0.7,4.3,1.3,6.5c0.3,1.1,2,1.2,2.3,0
					c0.4-1.7,0.6-2.9,0-4.5c-0.5-1.3-2.2-1-2.4,0.3c-0.8,9.4-1.2,18.8-1.2,28.3c0,1.5,1.9,1.5,2.4,0.3c0.8-1.9,1-3.2,0.8-5.2
					c-0.7,0.2-1.5,0.4-2.2,0.6c0.5,1.1,1.1,2.3,1.6,3.4c0.6,1.3,2.5,0.3,2.2-0.9c-0.4-1.6-0.6-3.2-0.7-4.9c-0.7,0.2-1.5,0.4-2.2,0.6
					c0.3,1.2,0.6,2.3,1,3.5c0.8-0.1,1.6-0.2,2.4-0.3c-1.2-6.5-2-12.9-2.3-19.5c-0.8,0.1-1.6,0.2-2.4,0.3c0.5,2.9,0.7,5.7,0.7,8.7
					c0,1.6,2.2,1.5,2.4,0c0.4-3.3,0.4-6.6,0.1-9.9c-0.2-1.5-2.4-1.6-2.4,0c-0.3,10.9,1.5,22.1,1.7,33.1c0.7-0.2,1.5-0.4,2.2-0.6
					c-1-2-1.2-4.1-0.8-6.2c0.2-1.5-2.1-2.2-2.3-0.6c-0.4,2.9-0.1,5.3,1,8.1c0.5,1.1,2.3,0.5,2.2-0.6c-0.3-11-2-22.1-1.7-33.1
					c-0.8,0-1.6,0-2.4,0c0.4,3.3,0.3,6.6-0.1,9.9c0.8,0,1.6,0,2.4,0c0-3.2-0.2-6.2-0.8-9.3c-0.2-1.3-2.4-1-2.4,0.3
					c0.3,6.8,1.1,13.5,2.4,20.2c0.3,1.3,2.5,1,2.4-0.3c-0.2-1.7-0.6-3.1-1.3-4.7c-0.5-1.1-2.3-0.6-2.2,0.6c0.2,1.9,0.4,3.7,0.8,5.5
					c0.7-0.3,1.5-0.6,2.2-0.9c-0.5-1.1-1.1-2.3-1.6-3.4c-0.5-1.1-2.4-0.6-2.2,0.6c0.4,1.6,0.1,3.1-0.7,4.5c0.8,0.1,1.6,0.2,2.4,0.3
					c0-9.4,0.4-18.9,1.2-28.3c-0.8,0.1-1.6,0.2-2.4,0.3c0,1.1,0,2.2,0,3.2c0.8,0,1.5,0,2.3,0c-0.6-2-0.9-3.8-1.2-5.9
					c-0.8,0.1-1.6,0.2-2.4,0.3c0.5,2.1,0.7,4.1,0.6,6.3c0,1.6,2.2,1.5,2.4,0c0.3-3.4,0.2-6.7-0.3-10.1c-0.8,0.2-1.5,0.4-2.3,0.6
					c0.1,0.3,0.1,0.5,0.2,0.8c0.5-0.5,1-1,1.5-1.5c-0.7-0.2-1.4-0.4-2.1-0.6c-0.8-0.4-1.8,0-1.8,1c0.2,6.8,0.2,13.7,0.5,20.5
					c0.3,5.8,2.9,10.7,3.6,16.3C124.6,145.9,127,145.9,126.9,144.4L126.9,144.4z"/>
			</g>
		</g>
		<g>
			<g>
				<path class="st0" d="M104.7,159.6c-1.3,0.2-2.3,0.4-3.4,0.9c-1,0.4-0.7,2,0.3,2.2c1.3,0.3,2.5,0.6,3.8,0.9
					c0.1-0.8,0.2-1.6,0.3-2.4c-0.7-0.1-1.4-0.1-2.1-0.2c0,0.8,0,1.6,0,2.4c0.9,0,1.9,0.1,2.8,0.3c0.1-0.8,0.2-1.6,0.3-2.4
					c-0.5,0-1,0-1.5-0.1c0,0.8,0,1.6,0,2.4c0.4,0,0.8,0,1.1,0c1.5,0.1,1.5-2.3,0-2.4c-0.5,0-1,0-1.4-0.1c-1.4-0.1-1.6,2-0.3,2.4
					c1,0.3,2,0.6,3.1,0.9c0.1-0.8,0.2-1.6,0.3-2.4c-2.5-0.2-5-0.9-7.5-1.1c-2.6-0.2-5.1,0.9-7.7,0.7c0.2,0.7,0.4,1.5,0.6,2.2
					c2-0.9,5.2-1.1,7.3-0.3c-0.1-0.7-0.2-1.5-0.3-2.2c-1.4,0.8-2.5-0.1-3.5-0.9c-0.2,0.7-0.4,1.5-0.6,2.2c1.4-0.1,2.4,0,3.8,0.2
					c1.5,0.3,2.2-2,0.6-2.3c-1.6-0.3-3.2-0.7-4.8-1c-0.1,0.8-0.2,1.6-0.3,2.4c1.6,0,3.1,0,4.7,0c1.6,0,1.5-2.3,0-2.4
					c-2-0.2-4-0.3-6-0.5c0,0.8,0,1.6,0,2.4c1.6,0.1,3.1,0.1,4.6-0.2c1.2-0.2,1.1-2.1,0-2.3c-1.2-0.3-2.5-0.5-3.7-0.8
					c-0.1,0.8-0.2,1.6-0.3,2.4c1-0.2,2-0.2,3,0.1c0.1-0.8,0.2-1.6,0.3-2.4c-0.3,0-0.6,0-1,0c-1.5-0.2-2.2,2.1-0.6,2.3
					c1.4,0.2,2.8,0.3,4.2,0.3c1.5,0,1.5-2.4,0-2.4c-0.5,0-1.1,0-1.6,0c0,0.8,0,1.6,0,2.4c1.3-0.1,2.7-0.2,4-0.2
					c1.1-0.1,1.7-1.7,0.6-2.2c-0.6-0.3-0.9-0.4-1.7-0.4c0,0.8,0,1.6,0,2.4c0.7-0.1,1.5-0.2,2.2-0.3c1.3-0.2,1.7-2,0.3-2.4
					c-0.3-0.1-0.6-0.2-0.9-0.2c-0.1,0.8-0.2,1.6-0.3,2.4c0.8,0,1.5,0,2.3,0c1.5,0,1.5-2.4,0-2.4c-0.8,0-1.5,0-2.3,0
					c-1.4,0-1.6,2-0.3,2.4c0.3,0.1,0.6,0.2,0.9,0.2c0.1-0.8,0.2-1.6,0.3-2.4c-0.7,0.1-1.5,0.2-2.2,0.3c-1.5,0.2-1.6,2.5,0,2.4
					c0.2,0,0.3,0,0.5,0.1c0.2-0.7,0.4-1.5,0.6-2.2c-1.3,0.1-2.7,0.2-4,0.2c-1.5,0.1-1.6,2.4,0,2.4c0.5,0,1.1,0,1.6,0
					c0-0.8,0-1.6,0-2.4c-1.2,0-2.3,0-3.6-0.2c-0.2,0.8-0.4,1.5-0.6,2.3c0.6,0.1,1,0.1,1.6,0.1c1.3-0.1,1.7-2,0.3-2.4
					c-1.3-0.3-2.3-0.4-3.6-0.2c-1.2,0.2-1.8,2.1-0.3,2.4c1.2,0.3,2.5,0.5,3.7,0.8c0-0.8,0-1.5,0-2.3c-1.4,0.2-2.6,0.2-4,0.1
					c-1.5-0.1-1.5,2.3,0,2.4c2,0.2,4,0.3,6,0.5c0-0.8,0-1.6,0-2.4c-1.6,0-3.1,0-4.7,0c-1.3,0-1.7,2.1-0.3,2.4c1.6,0.3,3.2,0.7,4.8,1
					c0.2-0.8,0.4-1.5,0.6-2.3c-1.5-0.3-2.9-0.4-4.4-0.3c-1.2,0.1-1.6,1.5-0.6,2.2c1.9,1.4,3.8,2.1,5.9,0.9c1-0.5,0.6-1.9-0.3-2.2
					c-2.8-1-6.4-0.7-9.1,0.5c-1.2,0.5-0.5,2.2,0.6,2.2c2.7,0.2,5.3-0.9,8-0.6c2.4,0.3,4.7,0.9,7.2,1.1c1.4,0.1,1.6-2,0.3-2.4
					c-1-0.3-2-0.6-3.1-0.9c-0.1,0.8-0.2,1.6-0.3,2.4c0.5,0,1,0,1.4,0.1c0-0.8,0-1.6,0-2.4c-0.4,0-0.8,0-1.1,0
					c-1.5-0.1-1.5,2.3,0,2.4c0.5,0,1,0,1.5,0.1c1.3,0.1,1.6-2.1,0.3-2.4c-1.1-0.3-2.2-0.4-3.4-0.4c-1.6,0-1.5,2.3,0,2.4
					c0.7,0.1,1.4,0.1,2.1,0.2c1.4,0.1,1.6-2,0.3-2.4c-1.3-0.3-2.5-0.6-3.8-0.9c0.1,0.7,0.2,1.5,0.3,2.2c0.7-0.2,1.5-0.4,2.2-0.6
					C106.2,161.8,106.2,159.4,104.7,159.6L104.7,159.6z"/>
			</g>
		</g>
		<g>
			<g>
				<path class="st0" d="M108.5,160.7c-0.1-0.8-0.3-1.5-0.4-2.3c-0.8,0.2-1.5,0.4-2.3,0.6c0.2,1,0.5,2.1,0.7,3.1
					c0.7-0.3,1.4-0.6,2-0.8c-1.8-1.6,0.1-5.5-3.2-5.5c0.4,0.5,0.8,1,1.2,1.5c1.6-4.9,2.8-10.5,7.3-13.5c-0.4-0.7-0.8-1.4-1.2-2.1
					c-0.8,0.5-1.6,1.1-2.3,1.6c0.5,0.6,1,1.3,1.5,1.9c0.6-0.6,1.2-1.2,1.8-1.7c0.9-0.8-0.1-2.3-1.2-2c-0.5,0.1-1,0.3-1.5,0.4
					c0.3,0.7,0.6,1.5,0.9,2.2c1-0.4,2-0.9,2.9-1.4c0.9-0.4,0.7-2-0.3-2.2c-0.4-0.1-0.7-0.1-1.1-0.2c0,0.8,0,1.5,0,2.3
					c2.7-1,8-1.7,10.1-3.8c1.3-1.3,0.5-2.6,0.4-4.2c-0.8,0.1-1.6,0.2-2.4,0.3c0.7,4,1,7.9,0.6,11.9c-0.1,1.5,0.5,5-1.7,4.8
					c0.7,0.1-2.7-2.1-2.1-1.8c-4.2-2.1-8.3,1.9-11.9,3.3c0.5,0.3,1,0.6,1.5,0.8c0.3-1.2,0.7-2.4,1-3.5c-0.7-0.3-1.5-0.6-2.2-0.9
					c-0.4,0.7-0.8,1.4-1.2,2.1c0.7,0.3,1.4,0.6,2,0.8c0-1.4,0.9-0.5,1.5-0.9c1.3-0.9,3.2-3,3.9-1.1c0.2,0.4-1,3-1.4,3.2
					c-0.8,0.4,0.9-4.1,1.4-4.9c3.3-5.9-0.3,2.2-1.5,3.7c0.7,0.4,1.3,0.8,2,1.2c0.1-1.6,0.8-3.1,2-4.3c1-0.1,1.9-0.2,2.9-0.3
					c1.3,2.2,0.8,3.8-1.4,4.6c-0.9,1.6-2,1.9-3.3,1c-1.8,0.2-2.2-0.1-3.4,1.4c-2.6,3.1-1.6,7.8,0.4,10.8c0.9,1.3,2.9,0.1,2.1-1.2
					c-0.8-1.2-1.7-2.5-2.5-3.7c-0.6,0.5-1.3,1-1.9,1.5c1.3,1.7,2.7,5,4.3,6.4c1,0.9,4.9,1.7,6.3,1.8c4.9,0.5,9.3-2.3,12.6-5.7
					c3.2-3.4,6.7-7.7,6.2-12.7c-0.6-6.4-6.5-10.7-9.7-15.7c-0.8-1.3-2.8-0.1-2.1,1.2c1.3,2.3,2.8,4.4,4.5,6.5c0.8,0.9,2.3-0.1,2-1.2
					c-0.4-1.4-0.9-2.5-1.8-3.7c-0.6,0.5-1.3,1-1.9,1.5c2.9,2.7,4.4,5.6,2.4,9.5c-1,1.9-2.3,3.6-3.6,5.3c-1,1.3-2.3,2.5-3.1,3.9
					c-0.8,1.4-1.2,4.7-2.9,5.3c-1,0.3-1.3,2.1,0,2.3c0.6,0.4,1.1,0.9,1.7,1.3c0.3,0.9,1.3,1.1,2,0.5c0.2-0.2,0.5-0.4,0.7-0.6
					c-0.7-0.4-1.3-0.8-2-1.2c-0.1,0.3-0.2,0.5-0.3,0.8c0.8,0,1.5,0,2.3,0c-1.6-4.5-2.4-8.9-2.6-13.7c-0.5,0.4-1,0.8-1.5,1.2
					c1.7,1.9,1.7,1.9,0,0.1c-0.2,0.9-0.3,1.9-0.5,2.8c-0.5,2-1.6,6.3-2.2,2c-0.6-4,1.3-8.5,3.4-11.8c-0.7-0.3-1.5-0.6-2.2-0.9
					c-0.1,0.8-0.3,1.6-0.5,2.4c-4,1.6-4.7,0.5-2.3-3.4c1.3-0.2,1,0.5-1,2.2c-1.1-1.8-0.8-3.2,0.7-4.2c-0.7-0.4-1.3-0.8-2-1.2
					c-0.3,1.6-0.9,3-1.9,4.2c-0.8,1.3,1.2,2.5,2.1,1.2c1-1.6,1.6-3,2.1-4.8c0.3-1.2-1.2-2-2-1.2c-1.7,1.7-6.7,8.7-1.3,9.6
					c3.9,0.7,7.3-6.1,7-9.1c0-0.5-0.3-1-0.9-1.2c-4.4-1.2-7.9,7.3-5.9,10.6c1,1.6,3,2,4.6,1.3c2.4-1,3.1-3.7,3.5-6
					c0.2-1.3-1.4-2.1-2.2-0.9c-2.3,3.7-3.7,7.8-3.7,12.2c0,1.7-0.1,5.7,2.5,5.9c3.8,0.3,7.4-11.4,3.5-12.7
					c-4.8-1.6-6.2,9.2-1.3,10.5c5.5,1.5,5.9-9,1.1-10.1c-0.7-0.2-1.5,0.3-1.5,1.2c0.1,5,1,9.6,2.6,14.3c0.4,1.1,1.9,1.1,2.3,0
					c0.1-0.3,0.2-0.5,0.3-0.8c0.5-1.2-1.2-1.8-2-1.2c-0.2,0.2-0.5,0.4-0.7,0.6c0.7,0.2,1.3,0.4,2,0.5c-0.6-1.9-1.4-2.7-3.4-3
					c0,0.8,0,1.5,0,2.3c2.3-0.7,2.6-1.7,3.4-3.8c1.7-4.1,5-7.2,7.2-11c3.1-5.3,1.9-9-2.4-13.1c-0.9-0.9-2.7,0.3-1.9,1.5
					c0.8,0.9,1.3,1.9,1.6,3.1c0.7-0.4,1.3-0.8,2-1.2c-1.6-1.9-2.9-3.9-4.2-6c-0.7,0.4-1.4,0.8-2.1,1.2c2.1,3.3,5.1,6,7.2,9.3
					c4,6.2,1.4,11.5-3.3,16.2c-3.8,3.9-9.4,7.1-14.7,3.6c-2.2-1.4-3.4-4-5.1-6.1c-0.8-1.1-2.6,0.3-1.9,1.5c0.8,1.2,1.7,2.5,2.5,3.7
					c0.7-0.4,1.4-0.8,2.1-1.2c-1.7-2.5-2.2-4.1,0-6.4c3.5-3.7,0.7-0.4,3.4-1.2c1.4-0.5,1.7,0.1,3.1-1c2.5-2,2.4-5.8,1.5-8.6
					c-2.2-6.7-8.8,0.6-9.5,4.6c-0.2,1,1.2,2.2,2,1.2c1.1-1.3,7.8-12.5,1.7-10.9c-3.2,0.9-9.2,13.1-3.8,13.6
					c3.4,0.3,6.8-9.5,3.2-11.2c-2.4-1.1-4.6,2.6-6,3.3c-1,0.5-1.2-0.2-2.2,0.6c-0.9,0.7-0.9,1.8-1,2.9c0,1.1,1.3,1.5,2,0.8
					c1.1-0.9,1.6-1.7,1.8-3.2c0.2-1.3-1.4-2.1-2.2-0.9c-1.3,1.8-1.5,3.2-1.2,5.4c0.1,0.6,0.9,1.1,1.5,0.8c1.7-0.7,3.1-1.6,4.7-2.4
					c3.4-1.8,4.7,0.1,7.8,1c1.4,0.4,1.9,0.8,3.1-0.2c1.8-1.5,1.6-5,1.8-7.1c0.4-4.2,0-8.4-0.7-12.6c-0.2-1.3-2.4-1-2.4,0.3
					c0.2,3.9-5.8,4.6-8.7,5.7c-1,0.4-1.3,2.1,0,2.3c0.4,0.1,0.7,0.1,1.1,0.2c-0.1-0.7-0.2-1.5-0.3-2.2c-0.9,0.5-1.9,1-2.9,1.4
					c-1.3,0.5-0.4,2.6,0.9,2.2c0.5-0.1,1-0.3,1.5-0.4c-0.4-0.7-0.8-1.3-1.2-2c-0.7,0.5-1.3,1.1-1.8,1.7c-1,0.9,0.3,2.7,1.5,1.9
					c0.8-0.5,1.6-1.1,2.3-1.6c1.3-0.9,0.1-2.9-1.2-2.1c-5.2,3.5-6.6,9.3-8.4,14.9c-0.2,0.7,0.4,1.5,1.2,1.5c-2,0,1.3,4.6,1.5,4.8
					c0.7,0.6,2.2,0.3,2-0.8c-0.2-2.1-0.1-1.7-0.8-3.7c-0.5-1.4-2.6-0.9-2.3,0.6c0.1,0.8,0.3,1.5,0.4,2.3
					C106.5,162.8,108.8,162.2,108.5,160.7L108.5,160.7z"/>
			</g>
		</g>
		<g>
			<g>
				<path class="st0" d="M125.6,114c0.1-2.2,0.2-4.4,0.3-6.7c0.1-1.5-2.3-1.5-2.4,0c-0.1,2.2-0.2,4.4-0.3,6.7
					C123.1,115.5,125.5,115.5,125.6,114L125.6,114z"/>
			</g>
		</g>
		<g>
			<g>
				<path class="st0" d="M80.1,155c-2.6-1.2-4.3-0.3-5.3,2.7c-1.5,1.1-2.9,2.3-4.4,3.4c-0.1-0.1-0.1-0.2-0.2-0.3
					c1-1.3,1.9-2.5,2.9-3.8c-1,0.2-2,0.2-2.9,0c-1.3-0.1-2.5,1-2.9,2.2c-1.6,5.1,4.1,10.3,8.7,11.9c5.5,1.9,9.2-2.2,11-6.8
					c-0.7,0.7-1.4,1.4-2.1,2.1c-0.7-0.9-1.3-1.8-2-2.7c1.8,0.8,3.7,1.5,5.5,2.3c0.2-0.2,0.4-0.3,0.6-0.5c-1.5-0.6-2.9-1.2-4.4-1.8
					c1.4,0.1,2.8,0.3,4.2,0.4c-0.9-0.5-1.7-1-2.6-1.5c0.1,0.2,0.2,0.3,0.3,0.5c0.6-1.5,1.2-2.9,1.8-4.4c0.6,0,1.2,0.1,1.9,0.1
					c-1,0.3-1.9,0.5-2.9,0.8c-0.5-1.2-1-2.4-1.6-3.6c-1,0-2,0-3,0c-0.3,0.7-0.6,1.4-0.9,2c-0.9,0.5-1.7,1-2.6,1.5
					c0.5,1.1,0.9,2.1,1.4,3.2c-1-0.3-1.9-0.5-2.9-0.8c-0.3,0.3-0.7,0.6-1,0.9c1-0.3,1.9-0.5,2.9-0.8c0.2,0.1,0.5,0.1,0.7,0.2
					c0.1-2.8,0.7-5.5,1.7-8.1c2.9-4,2.7-5.7-0.4-5.1c-2.3-0.5-2.4,0.2-0.5,2c0.7-1,1.5-1.9,2.2-2.9c1-0.2,0.9-0.4-0.3-0.7
					c2.2-0.8,3.3-4.4,0.7-5.5c-0.8-0.6-1.6-1.1-2.4-1.7c-0.9,1.5-1.7,3-2.6,4.5c0.8,0.4,1.6,0.9,2.4,1.3c1.6-1.2,3.1-2.4,4.7-3.6
					c-0.8-0.7-1.6-1.3-2.4-2c-1.2,1.6-2.4,3.1-3.6,4.7c2,1.4,3.2,3,4.3,5.1c1.8,3.4,7,0.4,5.2-3c-1.6-3-3.7-5.3-6.5-7.3
					c-2.7-2-6.3,2.5-3.6,4.7c0.8,0.7,1.6,1.3,2.4,2c2.5,2.1,6.5-0.5,4.7-3.6c-1.6-2.9-4.2-4.4-7.5-4.3c-2,0.1-4,2.6-2.6,4.5
					c1.3,1.8,2.5,2.9,4.5,3.8c0.2-1.8,0.5-3.7,0.7-5.5c-7.3,2.5-2.9,14.5,3.5,12.2c1.3-0.5,2.2-1.5,2.2-2.9c0-3.7-4.3-9.7-8.4-7.9
					c-5.4,2.3-1.1,9.4,2.1,11.5c3.6,2.3,9.5,0.1,8-4.9c-1.5-5-8.1-3.9-10.7-0.8c-3,3.5-2.4,9.9,2.1,12c3.9,1.8,8-2.3,6-6.2
					c-2.5-4.7-8.6-2.2-10.7,1.4c-1.9,3.4-2,10.3,2.6,11.6c1,0.3,2.2,0,2.9-0.8c1.7-2,2.6-4.7,1.2-7.1c-1.4-2.5-4.6-3.4-6.9-1.4
					c-4.4,3.9,1.7,10.1,6.2,6.9c4.8-3.5,0.3-11.7-4.7-7.5c-4.6,3.8,0.8,9.9,5.3,5.7c2.1-1.9,3.5-5,2.1-7.7c-1.3-2.5-4.6-3.5-6.9-1.6
					c-5.1,4.3,2.2,10.7,7.1,9c4.9-1.8,6.6-12.9,0-12.9c-6.9-0.1-4.3,9.7-0.1,11.8c7.2,3.5,11.7-7.3,4.7-8.3
					c-7.3-1-7.2,13.6,1.1,10.7c1.8-0.6,2.8-2.6,1.8-4.4c-2.7-4.6-10.1-0.6-8.7,4.2c1.5,5.2,9.3,2.8,7.5-2.3
					c-0.6-1.8-2.6-2.8-4.4-1.8c-1.8,1-2.6,2.2-3.3,4.1c-1.1,3.3,3.7,5.1,5.5,2.3c1.6-2.6,0.4-6.6-3.2-6.6c-1.3,0-2.7,0.8-3.4,1.8
					c-1.5,2,0.4,4.4-5,2.4c-0.9-0.3-3.6-2.8-3.3-3.6c-1,0.7-1.9,1.5-2.9,2.2c1,0.2,1.9,0.2,2.9,0c1.8-0.2,3.6-1.8,2.9-3.8
					c-0.6-1.7-1.1-2.4-2.6-3.3c-2.4-1.5-4.8,0.9-4.4,3.4c0.9,5,8,6.2,10.1,1.3c1.7-4-2.5-10.2-6.9-7.1c-4.3,3-0.6,8.5,3.7,8.6
					c4.9,0.2,9.4-4.4,6.5-9.2c-2.7-4.3-10.2-4.3-11,1.4c-0.7,4.9,6.1,8.2,10.1,6.1c4.6-2.4,2.5-9.7-2.6-9.2
					c-5.8,0.7-5.3,8.1-0.2,9.5C82.3,161.9,83.9,156.1,80.1,155L80.1,155z"/>
			</g>
		</g>
		<g>
			<g>
				<path class="st0" d="M89.4,163.7c1.9,0.4,3.8-0.4,4.6-2.2c0.7-1.7,0-3.9-1.7-4.8c-0.7-0.4-1.5-0.5-2.3-0.3
					c-0.7,0.2-1.5,0.7-1.8,1.4c-0.8,1.4-0.4,3.3,1.1,4.1c0.4,0.2,0.9,0.5,1.3,0.7c1.4,0.8,3.3,0.4,4.1-1.1c0.8-1.4,0.4-3.3-1.1-4.1
					c-0.4-0.2-0.9-0.5-1.3-0.7c-1,1.7-2,3.5-3,5.2c0.3,0.2,0.2,0-0.3-0.4c-0.4-0.5-0.5-0.6-0.3-0.3c-0.1-0.2-0.2-0.5-0.3-0.7
					c0,0.1,0.1,0.2,0.1,0.2c0-0.3-0.1-0.5-0.1-0.8c0,0.1,0,0.2,0,0.2c0-0.3,0.1-0.5,0.1-0.8c0,0,0,0.1,0,0.1
					c0.1-0.2,0.2-0.5,0.3-0.7c-0.1,0.2-0.1,0.2,0.1-0.1c0.1-0.2,0.3-0.4,0.6-0.5c0.2-0.1,0.5-0.2,0.7-0.3c-0.1,0-0.2,0.1-0.2,0.1
					c0.3,0,0.5-0.1,0.8-0.1c-0.1,0-0.2,0-0.2,0c0.3,0,0.5,0.1,0.8,0.1c0,0-0.1,0-0.1,0c-1.5-0.4-3.3,0.5-3.7,2.1
					C86.9,161.5,87.8,163.3,89.4,163.7L89.4,163.7z"/>
			</g>
		</g>
		<g>
			<g>
				<path class="st0" d="M88.5,158c0-0.7,0-1.3,0.2-2c0.1-0.4,0.2-0.8,0.3-1.2c0-0.1,0.1-0.3,0.1-0.4c-0.1,0.3-0.3,0.6-0.7,0.8
					c-0.5,0.1-1,0.3-1.5,0.4c-0.1,0-0.2,0-0.3,0c-0.4-0.3-0.9-0.5-1.3-0.8c0.4,0.3,0.6,1.1,0.6,1.7c1.9-0.5,3.7-1,5.6-1.5
					c-0.4-0.6-0.8-1.4-0.8-2c-1.3,1-2.5,1.9-3.8,2.9c-0.8-0.4-1.2-1.1-1.1-2.2c-0.3,1.6,0.5,3.2,2.1,3.7c1.5,0.4,3.4-0.5,3.7-2.1
					c0.5-2.3-0.7-4.7-3.1-5.2c-1.7-0.3-4.1,0.8-3.8,2.9c0.2,1.8,0.7,3.4,1.6,5c1.5,2.4,5.7,1.6,5.6-1.5c-0.1-3-1.9-7.9-5.8-6.8
					c-3.2,0.9-3.5,5.5-3.6,8.2c0,1.6,1.4,3,3,3C87.2,161,88.5,159.6,88.5,158L88.5,158z"/>
			</g>
		</g>
		<g>
			<g>
				<path class="st0" d="M117.9,156.8c3-0.7,0.3-2.7-1.6-1.9c-1.3-1-2.5-1.9-3.8-2.9c0.1-0.6,0.2-1.2,0.2-1.8
					c-1.5-1.4-3.5-1-4.7,0.6c-0.2,0.1-0.3,0.3-0.5,0.4c1.5,1.1,2.9,2.3,4.4,3.4c0.6-2.6,1.3-5.3,1.9-7.9c0.6-2.6-3.1-5.4-5-2.9
					c-1.2,1.5-2.2,2.9-2.7,4.8c-0.2,0.8-0.5,4.1-0.5,4.1c1.5,0.6,2.9,1.2,4.4,1.8c-0.1-0.4-0.2-0.8-0.3-1.1c-1,1.3-1.9,2.5-2.9,3.8
					c-0.3-0.1-0.6-0.2-0.9-0.2c1.4,1.8,4.6,0.7,5-1.3c0.1-0.5,0.2-1,0.4-1.6c-1.8,0.2-3.7,0.5-5.5,0.7c0.2,1.2,0.5,2.4,0.7,3.6
					c-0.6,3.7,5,5.4,5.8,1.6c0.1-0.3,0.3-0.6,0.4-0.9c-0.9,0.5-1.7,1-2.6,1.5c-0.2-0.2-0.4-0.4-0.6-0.6c0.7-0.7,1.4-1.4,2.1-2.1
					c0,0-0.1,0-0.1,0c0.7,0.7,1.4,1.4,2.1,2.1c-0.1-0.3-0.2-0.5-0.2-0.8c-0.3,1-0.5,1.9-0.8,2.9c0.1,0.6,0.2,1.2,0.3,1.9
					c0.3-1,0.5-1.9,0.8-2.9c0.2-0.3,0.4-0.6,0.5-0.9c-0.2,1.6-0.4,3.1-0.6,4.7c-0.2-0.4-0.5-0.8-0.7-1.2c0.9-0.5,1.7-1,2.6-1.5
					c-0.3,0.9-0.6,1.8-0.9,2.7c0.7-0.7,1.4-1.4,2.1-2.1c-0.3,0.1-0.5,0.2-0.8,0.3c1,0.3,1.9,0.5,2.9,0.8c-0.2-0.2-0.4-0.4-0.6-0.6
					c0.2,1.2,0.3,2.4,0.5,3.6c0.2-0.2,0.4-0.5,0.5-0.7c-0.9,0.5-1.7,1-2.6,1.5c0.7-1.1,1.4-2.2,2.1-3.3c-0.2,1.8-0.5,3.7-0.7,5.5
					c-0.2-0.2-0.5-0.4-0.7-0.5c1.5,2.1,4.6,1.9,5.5-0.7c0.1-0.3,0.2-0.5,0.3-0.8c-0.7,0.7-1.4,1.4-2.1,2.1c-0.2,0.1-1.3-0.2,0,0.1
					c0.7,0.1,1.3,0,2-0.2c1.9-0.5,4.1-2.2,5.9-3c-1.5-1.1-2.9-2.3-4.4-3.4c-0.2,0.8-3.4,2.2-4,3.5c-0.8,1.7-0.2,3.8,1.8,4.4
					c7.2,2.1,10.5-10.6,12.5-15.4c-2-0.3-3.9-0.5-5.9-0.8c-0.5,1-0.9,1.9-1.4,2.9c1.8,0.8,3.7,1.5,5.5,2.3c1.4-4.4,2.6-6.9-0.2-10.8
					c-2.4-3.4-5.6-5.9-9.6-7c-2.7-0.7-4.4,2.1-3.4,4.4c0.2,0.4,2.7,5.5,2.3,6.1c0.9-0.5,1.7-1,2.6-1.5c-1-0.8-2.2-0.7-3.4,0.2
					c-0.2,1.2-0.2,2.3,0,3.4c1,0,2,0,3,0c-2.1-1.3-2.8-1.2-1.9,0.2c0.2,1.5,1.3,1.7,3.2,0.7c-0.3-1-0.5-1.9-0.8-2.9
					c-0.1,0.4-0.1,0.7-0.2,1.1c1.9,0,3.9,0,5.8,0c-0.8-2,0.2-4.4-0.2-6.5c-0.4-1.9-1.3-3.3-2.5-4.8c-1.4,1.4-2.8,2.8-4.2,4.2
					c2,2,3.8,4,5.4,6.3c2.2,3.1,6.9,0.5,5.2-3c-1.6-3.3-3.6-6.2-5.9-9.1c-1,1.7-1.9,3.3-2.9,5c2,0.5,3.1,1.7,3.2,3.6
					c1.5-1.1,2.9-2.3,4.4-3.4c-3.9-2.7-5.7-7.7-11-7.4c-2.5,0.1-5.7,0.5-8,1.4c-1,0.4-3.4,2.9-2.7,2.6c1.1,1.5,2.3,2.9,3.4,4.4
					c1.5-2.7,3.5-4,6.6-4.1c3.9-0.1,3.9-6.1,0-6c-5.1,0.1-9.3,2.5-11.7,7.1c-1.2,2.1,0.8,5.3,3.4,4.4c1.2-0.4,1.7-1,2.6-1.7
					c1.8-1.3,3.2-1.9,5.8-2c3.4-0.1,5.9,4.4,8.8,6.4c2.3,1.6,4.9-1,4.4-3.4c-0.8-4-3.5-6.7-7.4-7.8c-3.1-0.9-4.7,2.8-2.9,5
					c1.9,2.5,3.5,5.1,4.9,7.9c1.7-1,3.5-2,5.2-3c-1.9-2.7-4-5.2-6.4-7.5c-2.8-2.7-6.6,1.3-4.2,4.2c1.9,2.3,0,5.9,1.1,8.7
					c1,2.4,5.2,3.3,5.8,0c0.8-4.8-4-7.7-7.8-4.2c-3.1,2.8-3.2,9.7,1.8,10.3c5.9,0.8,4.7-7.2,2.9-10.4c-2.3-4.1-8.2-6.1-10.3-0.6
					c-1.5,3.7,2.1,10.9,6.7,9.8c4.8-1.1,4.2-9.5,2.7-12.7c-2-4-8.3-6-10.1-0.6c-1.7,5,4.2,9.7,8.5,10.2c1.1,0.1,2-0.7,2.6-1.5
					c2.3-3.4-0.9-8.9-2.3-12.1c-1.1,1.5-2.3,2.9-3.4,4.4c2.5,0.6,5.3,2.4,6.5,4.8c0.8,1.6-0.1,3.2-0.9,5.5c-1.1,3.5,3.6,4.8,5.5,2.3
					c1.4-1.9,1.9-3.6,2.2-5.9c0.5-3.7-4.7-3.6-5.9-0.8c-0.3,0.6-5.1,11.2-5.1,11.2c0.6,1.5,1.2,2.9,1.8,4.4c0.5-1,2-1.2,2.8-1.9
					c1-0.9,1.4-1.7,1.8-3c0.6-2.7-2.1-4.4-4.4-3.4c-1.9,0.8-3.7,1.8-5.5,2.8c1,0,2,0,3,0c-2.8-1.5-5.3-0.4-6.2,2.5
					c1.8-0.2,3.7-0.5,5.5-0.7c-1.6-2.2-3.4-3.2-6.1-2.2c-2.3,0.8-3.2,4.2-0.7,5.5c3.2,1.6,7-0.7,6-4.4c-1.1-4.1-5.9-4.3-8.1-1.2
					c-0.8,1-0.4,2.8,0.5,3.6c0.2,0.2,0.4,0.4,0.6,0.6c0.8,0.7,1.9,1.1,2.9,0.8c3.9-1.2,4.2-5.9,0.5-7.9c-3.2-1.7-8.8,0.1-7.1,4.6
					c1.6,4.2,7.4,3.1,8.2-0.9c1.1-5-5-7.2-8.5-5c-1.6,1-2,3.4-0.6,4.7c3.3,3.1,10.9,2.8,8.3-3.3c-1.7-4-11.2-7.7-10.8-0.7
					c0.3,5.3,8.3,4.3,8.2-0.9c-0.1-5.6-8-6.8-9.2-1.1c1.9,0.5,3.9,1.1,5.8,1.6c0.5-3.1,0.2-5.4-1.4-8.2c-1.2-2.2-4.9-1.8-5.5,0.7
					c-0.1,0.5-0.2,1-0.4,1.6c1.7-0.4,3.3-0.9,5-1.3c-0.9-1.2-1.9-1.4-3.3-1.5c-2-0.2-3.4,2-2.9,3.8c0.1,0.4,0.2,0.8,0.3,1.1
					c0.5,2,2.7,2.6,4.4,1.8c4.2-2.1,1.8-6.6,4.4-9.9c-1.7-1-3.3-1.9-5-2.9c-0.6,2.6-1.3,5.3-1.9,7.9c-0.6,2.4,2.1,4.9,4.4,3.4
					c1.2-0.8,1.8-1.4,2.7-2.6c-1.6,0.2-3.1,0.4-4.7,0.6c3.6,3.4,9.4,3.6,10-2.4c0.2-1.8-2.1-3.6-3.8-2.9c-5,2.1-7,8.8-1.6,11.9
					c4.9,2.9,10.9-1,11.2-6.4c0.3-6-6-7-9.3-2.8c-3.5,4.3-2.4,12.3,4.5,10.8C123.3,161.7,121.7,155.9,117.9,156.8L117.9,156.8z"/>
			</g>
		</g>
		<g>
			<g>
				<path class="st0" d="M131,155.6c0-0.1,0.6-0.6,0.2-0.3c-1.5-0.6-2.9-1.2-4.4-1.8c0.3,0.7,0.5,1.5,0.7,2.3c0.4,2.2,3.6,2.9,5,1.3
					c0.3-0.3,0.2-0.3-0.2,0c-0.2,0.2-0.4,0.3-0.7,0.3c-0.4,0-1.3-0.8-0.9-0.2c0.8,0.9,2.3,1.1,3.3,0.6c1.2-0.5,1.7-1.5,1.8-2.7
					c0,0.1,0,0.2,0,0.3c-0.4,0.4-0.7,0.7-1.1,1.1c-0.5,0.1-1,0.1-1.5,0.2c-0.4-0.3-0.9-0.5-1.3-0.8c0,0,0.1,0.1,0.1,0.1
					c-0.3-0.4-0.5-0.9-0.8-1.3c0,0.1,0,0.1,0.1,0.2c1.8-0.8,3.7-1.5,5.5-2.3c0-0.1-0.2-0.5-0.3-0.7c-0.5-1.5-2-2.5-3.7-2.1
					c-1.5,0.4-2.6,2.2-2.1,3.7c0.3,0.7,0.6,1.4,0.9,2.1c0.6,1.4,2.5,1.8,3.7,1.2c1.3-0.6,2.3-2.1,1.7-3.5c-0.7-1.8-2.4-3.1-4.4-2.5
					c-2,0.6-2.7,2.3-2.9,4.2c1.7-0.7,3.4-1.4,5.1-2.1c-1.7-2-5.1-2-6.8,0c1.7,0.4,3.3,0.9,5,1.3c-0.2-0.8-0.4-1.5-0.7-2.3
					c-0.7-1.6-2.7-3-4.4-1.8c-0.5,0.4-1,0.7-1.5,1.2c-1,1.2-1.2,3,0,4.2C127.8,156.7,129.9,156.9,131,155.6L131,155.6z"/>
			</g>
		</g>
	</g>
	<g>
		<g>
			<g>
				<path d="M92.8,165c4.6-0.6,9.7,0.1,14.4,0.2c0.8,0,0.8-1.2,0-1.2c-4.7-0.1-9.7-0.8-14.4-0.2C92,163.9,92,165.1,92.8,165
					L92.8,165z"/>
			</g>
		</g>
		<g>
			<g>
				<g>
					<path d="M62.4,154.4c-0.2,4.5,0.6,7.4,3.7,10.7c3.1,3.3,6.8,6.5,11.5,7.1c9.7,1.2,16.5-6.9,18.7-15.5c0.2-0.7-1-1.1-1.2-0.3
						c-2.1,8-8.3,15.7-17.4,14.5c-4-0.5-7-2.8-9.8-5.6c-3.3-3.3-4.6-6.4-4.3-10.9C63.6,153.6,62.4,153.6,62.4,154.4L62.4,154.4z"/>
				</g>
			</g>
			<g>
				<g>
					<path d="M73.1,137.4c0.8-4.6,1.3-9.3,1.5-14c0.2-5.3-0.6-10.8,0.2-16.1c0.1-0.8-1-1.1-1.2-0.3c-0.7,4.2-0.2,8.4-0.2,12.7
						c0,5.9-0.6,11.7-1.6,17.4C71.8,137.9,73,138.2,73.1,137.4L73.1,137.4z"/>
				</g>
			</g>
			<g>
				<g>
					<path d="M78.8,137.4c1.8-10.3,0.5-20.5,1.4-30.8c0.1-0.8-1.1-0.8-1.2,0c-0.9,10.2,0.4,20.3-1.4,30.4
						C77.5,137.9,78.6,138.2,78.8,137.4L78.8,137.4z"/>
				</g>
			</g>
			<g>
				<g>
					<path d="M79.2,138.4c1-1,7.3,2.4,8.1,2.9c2.6,1.8,4.3,4.4,5.8,7.1c0.4,0.7,1.4,0.1,1-0.6c-1.9-3.6-4.2-6.7-7.9-8.5
						c-1.7-0.9-3.7-1.6-5.6-2c-0.9-0.2-1.6-0.6-2.3,0.2C77.8,138.1,78.6,139,79.2,138.4L79.2,138.4z"/>
				</g>
			</g>
			<g>
				<g>
					<path d="M63.2,155.7c0.3-3.8,1.5-7.5,3.5-10.8c1.7-2.7,4.2-4.5,6.1-6.9c0.5-0.6-0.6-1.2-1-0.6c-2.4,3.2-5.3,5.2-7.2,8.9
						c-1.5,3-2.3,6.1-2.6,9.4C61.9,156.4,63.1,156.4,63.2,155.7L63.2,155.7z"/>
				</g>
			</g>
		</g>
		<g>
			<g>
				<path d="M95.9,158.4c3,1.2,6.2,1.3,9.1,0.1c0.7-0.3,0.4-1.4-0.3-1.2c-2.8,1.1-5.7,1.1-8.5-0.1C95.5,156.9,95.2,158.1,95.9,158.4
					L95.9,158.4z"/>
			</g>
		</g>
		<g>
			<g>
				<g>
					<path d="M136.4,154.2c0.2,4.5-1.2,7.7-4.3,10.9c-2.7,2.8-5.9,5-9.8,5.6c-9.1,1.2-15.3-6.5-17.4-14.5c-0.2-0.7-1.4-0.4-1.2,0.3
						c2.2,8.5,9,16.8,18.7,15.5c4.4-0.6,8-3.4,11-6.5c3.4-3.5,4.4-6.4,4.2-11.3C137.5,153.4,136.3,153.4,136.4,154.2L136.4,154.2z"
						/>
				</g>
			</g>
			<g>
				<g>
					<path d="M127.9,136.9c-1-5.8-1.6-11.6-1.6-17.4c0-4.2,0.5-8.5-0.2-12.7c-0.1-0.8-1.3-0.4-1.2,0.3c0.8,5.3,0,10.8,0.2,16.1
						c0.2,4.7,0.7,9.4,1.5,14C126.9,138,128.1,137.7,127.9,136.9L127.9,136.9z"/>
				</g>
			</g>
			<g>
				<g>
					<path d="M122.3,136.9c-1.8-10.2-0.5-20.2-1.4-30.4c-0.1-0.8-1.3-0.8-1.2,0c0.9,10.3-0.4,20.5,1.4,30.8
						C121.3,138,122.4,137.7,122.3,136.9L122.3,136.9z"/>
				</g>
			</g>
			<g>
				<g>
					<path d="M121.6,137.4c-0.7-0.8-1.4-0.4-2.3-0.2c-1.9,0.4-3.8,1.1-5.6,2c-3.7,1.8-6,4.9-7.9,8.5c-0.4,0.7,0.7,1.3,1,0.6
						c1.4-2.8,3.1-5.4,5.8-7.1c0.8-0.5,7.1-4,8.1-2.9C121.3,138.8,122.1,137.9,121.6,137.4L121.6,137.4z"/>
				</g>
			</g>
			<g>
				<g>
					<path d="M137.9,155.4c-0.3-3.3-1.1-6.4-2.6-9.4c-1.8-3.7-4.7-5.7-7.2-8.9c-0.5-0.6-1.5,0-1,0.6c1.9,2.5,4.4,4.2,6.1,6.9
						c2.1,3.3,3.2,6.9,3.5,10.8C136.8,156.2,138,156.2,137.9,155.4L137.9,155.4z"/>
				</g>
			</g>
		</g>
		<g>
			<g>
				<path d="M74.6,107.2c0.1-0.2,1.9,0,2.1,0c0.8,0,1.6,0.1,2.5,0.1c0.8,0,0.8-1.2,0-1.2c-1.3,0-2.6-0.1-4-0.1
					c-0.8,0-1.4,0.1-1.7,0.9C73.2,107.6,74.3,107.9,74.6,107.2L74.6,107.2z"/>
			</g>
		</g>
		<g>
			<g>
				<path d="M120.7,108c0.1-0.3-0.1-0.7,0-1c-0.1-0.2,0-0.2,0.2,0c0.1,0,0.3,0.1,0.4,0.1c0.2,0.1,0.5,0.1,0.8,0.1
					c1.2,0.1,2.4,0.1,3.5-0.1c0.8-0.1,0.4-1.3-0.3-1.2c-0.9,0.1-1.7,0.2-2.6,0.1c-0.7-0.1-1.6-0.5-2.3-0.4c-1.2,0.2-0.6,1.3-0.8,2
					C119.3,108.4,120.5,108.7,120.7,108L120.7,108z"/>
			</g>
		</g>
		<g>
			<g>
				<path d="M95.8,158c1.5-3-0.4-7-1.7-9.8c-0.3-0.7-1.4-0.1-1,0.6c1.1,2.3,2.9,6.1,1.7,8.5C94.4,158,95.5,158.6,95.8,158L95.8,158z
					"/>
			</g>
		</g>
		<g>
			<g>
				<path d="M104.8,156.9c-0.6-1.2,0.1-2.8,0.4-4c0.4-1.3,0.9-2.5,1.5-3.7c0.4-0.7-0.7-1.3-1-0.6c-1.2,2.4-3.2,6.2-1.9,8.9
					C104.1,158.2,105.1,157.6,104.8,156.9L104.8,156.9z"/>
			</g>
		</g>
	</g>
	<g>
		<g>
			<path class="st1" d="M64.5,283.7c0,0.1-0.1,0.2-0.2,0.3c-1.1,1.1,0.6,2.8,1.7,1.7c0.5-0.6,0.8-1.2,0.9-2c0.1-0.6-0.6-1.2-1.2-1.2
				C65,282.5,64.5,283,64.5,283.7L64.5,283.7z"/>
		</g>
	</g>
	<g>
		<g>
			<g>
				<g>
					<path class="st0" d="M101.8,282.3c0,0-0.1,0-0.1,0c-0.4,0.7-0.8,1.4-1.2,2.1c-0.1,0.5-0.2,0.9-0.3,1.4c0.3,0.6,0.7,1.2,1,1.8
						c-0.9,1.2-2.1,2.2-3.5,2.9c0.5,0.3,1,0.6,1.5,0.8c0.3,1.6-3.5,3.6-4,5.3c-0.6,2,0,4.6,0.2,6.6c0.1,0.8,1,1.6,1.8,1
						c1.6-1.5,3.4-1.5,5.4-0.2c0.6,0.4,1.6,0,1.8-0.7c0.8-5.1,4.5-7.9,8.6-10.5c-0.5-0.6-1-1.3-1.5-1.9c-1,0.9-2.1,1.8-3.1,2.7
						c-0.3,0.3-7.8,5.6-6.3,1.9c-0.5,0.3-1,0.6-1.5,0.8c-0.5,0.1-0.9,0.3-1.4,0.4c-0.1,0.6-0.2,1.3-0.2,1.9
						c-0.6-0.2-1.1-0.4-1.7-0.5c0.1,0.5,0.3,1.1,0.4,1.6c0.2-0.5,0.4-1,0.6-1.6c0.1,0.7,0.2,1.5,0.3,2.2c0.6,0.1,1.3,0.1,1.9,0.2
						c0.1-0.6,0.2-1.3,0.2-1.9c0.2,0.1,0.4,0.3,0.6,0.4c0.6,0.1,1.3,0.2,1.9,0.2c-1.4-2.9,0.2-5.6,2.3-7.5c-0.7-0.2-1.3-0.4-2-0.5
						c-1.1,0.2-1-0.3,0.4-1.6c0.4-1.1,1.1-2,2.1-2.7c-0.7-0.4-1.3-0.8-2-1.2c-0.6,3.1-2.1,5.4-4.5,7.4c0.7,0.4,1.3,0.8,2,1.2
						c1.2-4,3.6-7.2,6.2-10.5c-0.6-0.5-1.3-1-1.9-1.5c-1.7,2.8-3.6,5.4-5.5,8c0.7,0.4,1.4,0.8,2.1,1.2c1.8-3.4,4-6.3,6.8-8.9
						c-0.6-0.5-1.3-1-1.9-1.5c-1.4,3.3-3.1,6.4-5.1,9.4c0.7,0.4,1.4,0.8,2.1,1.2c1.5-2.8,3.3-5.2,5.6-7.4c-0.6-0.5-1.3-1-1.9-1.5
						c-1.5,3-3.1,6-4.8,8.8c-0.8,1.4,1.2,2.4,2.1,1.2c1.6-2.1,3.2-4.1,5-6c-0.6-0.5-1.3-1-1.9-1.5c-1.7,2.8-3.5,5.4-5.5,8
						c0.7,0.4,1.4,0.8,2.1,1.2c1.5-2.1,3.1-3.9,5-5.6c-0.6-0.5-1.3-1-1.9-1.5c-2.2,3.2-4.4,6.3-6.8,9.3c0.6,0.5,1.3,1,1.9,1.5
						c2.2-3.4,4.7-6.4,7.7-9.2c-0.6-0.5-1.3-1-1.9-1.5c-1.4,2.3-2.9,4.5-4.4,6.6c-0.8,1.1,1,2.4,1.9,1.5c1.6-1.7,3.2-3.4,4.9-5.1
						c-0.6-0.5-1.3-1-1.9-1.5c-1.4,2.4-3,4.6-4.9,6.7c0.6,0.6,1.1,1.1,1.7,1.7c1.5-1.9,3.1-3.8,4.6-5.7c-0.6-0.5-1.3-1-1.9-1.5
						c-0.9,1.8-1.8,3.4-3.1,5.1c-0.8,1.1,1,2.5,1.9,1.5c3.3-4,7.3-6.8,12.2-8.6c-0.3-0.7-0.6-1.5-0.9-2.2c-2.3,1.1-4.6,2.3-6.9,3.4
						c-1.2,0.6-0.4,2.6,0.9,2.2c1.5-0.4,2.8-0.9,4.2-1.6c-0.4-0.7-0.8-1.4-1.2-2.1c-1.3,1-2.6,1.7-4.1,2.5c-1.4,0.7-0.2,2.7,1.2,2.1
						c3.9-1.7,7.9-3.4,11.8-5.1c-0.4-0.7-0.8-1.4-1.2-2.1c-1.6,1-3,1.7-4.8,2.3c0.3,0.7,0.6,1.5,0.9,2.2c2.7-1.5,5.5-2.7,8.5-3.5
						c-0.2-0.8-0.4-1.5-0.6-2.3c-1.5,0.6-3,1.2-4.5,1.8c-1.4,0.6-0.9,2.7,0.6,2.3c3.5-0.9,6.9-1.8,10.4-2.8c0.6-0.2,1-0.9,0.8-1.5
						c-0.5-1.6-0.8-3-1-4.6c-0.8,0.2-1.5,0.4-2.3,0.6c0.4,0.9,0.7,1.9,0.8,2.9c0.3,1.3,2.4,1,2.4-0.3c0-0.7,0-1.4,0-2.1
						c-0.8,0.1-1.6,0.2-2.4,0.3c0.1,0.6,0.2,1.1,0.3,1.7c0.8-0.2,1.5-0.4,2.3-0.6c-1.2-4.3-2.4-8.6-3.6-12.9c-0.7,0.4-1.3,0.8-2,1.2
						c2.3,2.4,4.2,9.3,0.3,11.3c-2.2,1.2-7.4,0.1-10,0.3c-6.7,0.6-12.8,1.1-19.5,0c-6-1-11.8-2.8-17.6-4.6c-2.4-0.8-5.1-1.2-7.5-2
						c-3.2-1.1-4.6-3.4-6.4-6c-0.6-0.9-1.8-0.7-2.2,0.3c-1.5,4-5.7,14.5,0.1,16.4c4.6,1.5,9.6,2,14.3,3.6c4.4,1.6,12,5.5,13.2,10.6
						c0.7-0.3,1.5-0.6,2.2-0.9c-2.8-4.3-6.9-10.3-12.2-11.3c-1.2-0.2-1.9,1.1-1.2,2c1.2,1.4,0.9,1.2,2.4,2.2
						c0.4-0.7,0.8-1.4,1.2-2.1c-0.4-0.2-0.8-0.4-1.1-0.6c-0.3,0.7-0.6,1.5-0.9,2.2c0.3,0.1,0.5,0.2,0.8,0.3c1.1,0.4,1.8-0.9,1.4-1.8
						c-2.1-4.3-0.8-8.1-4.5-11.6c-3.7-3.4-8.1-6.3-12.4-8.9c-0.4,0.7-0.8,1.4-1.2,2.1c9.7,4.8,20.1,3.8,30.6,3.3
						c5.3-0.3,10.9,0.4,16.2-0.4c4.9-0.7,9.5-2.4,14.4-3.1c1.5-0.2,0.9-2.5-0.6-2.3c-4.3,0.6-8.3,1.9-12.5,2.8
						c-5.1,1-10.4,0.3-15.5,0.5c-10.6,0.4-21.4,2.1-31.3-2.8c-1.4-0.7-2.5,1.3-1.2,2.1c4,2.4,8.6,5.1,11.9,8.5
						c3.2,3.3,2.3,7.3,4.1,11.2c0.5-0.6,0.9-1.2,1.4-1.8c-0.3-0.1-0.5-0.2-0.8-0.3c-1.3-0.5-2.1,1.6-0.9,2.2
						c0.4,0.2,0.8,0.4,1.1,0.6c1.4,0.7,2.5-1.2,1.2-2.1c-0.7-0.6-1.3-1.2-2-1.8c-0.4,0.7-0.8,1.3-1.2,2c4.6,0.9,8.5,6.6,10.8,10.2
						c0.7,1.1,2.5,0.4,2.2-0.9c-1.4-5.5-8.5-9.8-13.5-11.7c-2.2-0.8-4.5-1.5-6.7-2.2c-2.1-0.6-5.2-0.7-7.2-1.7
						c-5-2.4-1.8-9.6-0.3-13.7c-0.7,0.1-1.5,0.2-2.2,0.3c1.5,2.2,2.9,5.4,5.5,6.6c1.5,0.7,3.5,0.6,5.1,1c2.2,0.5,4.3,1.3,6.5,2
						c8.9,2.7,18,5.2,27.4,4.9c4.7-0.1,9.2-1,13.9-1c2.4,0,6.1,0.5,8-1.5c3.3-3.3,0.8-11.2-2-14.1c-0.8-0.9-2.3,0-2,1.2
						c1.2,4.3,2.4,8.6,3.6,12.9c0.4,1.5,2.6,0.9,2.3-0.6c-0.1-0.6-0.2-1.1-0.3-1.7c-0.3-1.3-2.4-1-2.4,0.3c0,0.7,0,1.4,0,2.1
						c0.8-0.1,1.6-0.2,2.4-0.3c-0.2-1-0.4-1.9-0.8-2.9c-0.5-1.5-2.5-0.9-2.3,0.6c0.2,1.6,0.6,3.1,1,4.6c0.3-0.5,0.6-1,0.8-1.5
						c-3.5,0.9-6.9,1.8-10.4,2.8c0.2,0.8,0.4,1.5,0.6,2.3c1.5-0.6,3-1.2,4.5-1.8c1.4-0.6,0.9-2.7-0.6-2.3c-3.2,0.9-6.2,2.1-9.1,3.7
						c-1.2,0.6-0.4,2.7,0.9,2.2c1.9-0.7,3.6-1.5,5.3-2.5c1.4-0.8,0.2-2.7-1.2-2.1c-3.9,1.7-7.9,3.4-11.8,5.1
						c0.4,0.7,0.8,1.4,1.2,2.1c1.5-0.7,2.8-1.5,4.1-2.5c1.2-0.9,0.2-2.8-1.2-2.1c-1.1,0.6-2.3,1.1-3.6,1.4c0.3,0.7,0.6,1.5,0.9,2.2
						c2.3-1.1,4.6-2.3,6.9-3.4c1.2-0.6,0.4-2.7-0.9-2.2c-5.3,2-9.6,5-13.2,9.3c0.6,0.5,1.3,1,1.9,1.5c1.2-1.6,2.2-3.2,3.1-5.1
						c0.5-1.1-1-2.6-1.9-1.5c-1.5,1.9-3.1,3.8-4.6,5.7c-1,1.2,0.7,2.9,1.7,1.7c2-2.3,3.7-4.6,5.3-7.2c0.7-1.2-0.9-2.4-1.9-1.5
						c-1.6,1.7-3.2,3.4-4.9,5.1c0.6,0.5,1.3,1,1.9,1.5c1.6-2.1,3.1-4.3,4.4-6.6c0.7-1.2-0.9-2.4-1.9-1.5c-3.1,2.9-5.7,6.1-8.1,9.7
						c-0.7,1.1,1,2.5,1.9,1.5c2.5-3.2,4.9-6.4,7.2-9.8c0.8-1.2-0.9-2.3-1.9-1.5c-2,1.9-3.8,3.9-5.4,6.1c-0.9,1.3,1.2,2.4,2.1,1.2
						c1.9-2.6,3.8-5.3,5.5-8c0.7-1.1-1-2.5-1.9-1.5c-1.9,2.1-3.6,4.3-5.3,6.5c0.7,0.4,1.4,0.8,2.1,1.2c1.8-2.9,3.4-5.8,4.8-8.8
						c0.6-1.2-0.9-2.5-1.9-1.5c-2.4,2.4-4.3,4.9-5.9,7.9c-0.7,1.4,1.2,2.5,2.1,1.2c2-3,3.7-6.1,5.1-9.4c0.5-1.2-0.8-2.4-1.9-1.5
						c-3,2.7-5.3,5.8-7.2,9.4c-0.7,1.4,1.2,2.4,2.1,1.2c2-2.6,3.8-5.3,5.5-8c0.7-1.1-1-2.5-1.9-1.5c-2.9,3.6-5.5,7.1-6.8,11.6
						c-0.4,1.2,1.1,1.9,2,1.2c2.8-2.2,4.4-5,5.1-8.4c0.2-1.2-1.1-2-2-1.2c-2.2,2-6.8,9.2-2.6,11.7c3.7,2.2,4.8-4,4.1-6.3
						c-0.3-0.9-1.3-1.1-2-0.5c-3.1,2.8-4.6,6.5-2.7,10.4c0.4,0.7,1.3,0.7,1.9,0.2c2.7-2.3-0.6-6-2.7-3.5c-1.6,1.9,1,4.7,2.9,3
						c2.3-2.1-1.1-4.6-3.3-3.2c-2.6,1.6-0.6,4.9,2,3.7c0.8-0.4,0.7-1.3,0.2-1.9c-1.3-1.6-3.1-1.9-4.8-0.6c-0.8,0.6-0.8,1.8,0.3,2.2
						c0.2,0.1,0.5,0.2,0.7,0.2c0.4,0.1,0.9,0,1.2-0.3c0.2-0.2,0.4-0.4,0.5-0.6c0.4-0.4,0.5-1,0.2-1.5c-1.2-2.3-3.3-1.6-4.6,0.2
						c-0.4,0.6-0.1,1.3,0.4,1.6c1.9,1.3,5.2,1.8,5.7-1.3c0.4-2.5-2.2-3.5-4-2.3c-0.6,0.4-0.8,1.3-0.2,1.9c4.3,3.9,7.8-3.6,3.7-4.4
						c-0.7-0.1-1.2,0.2-1.5,0.8c-0.9,2.2,1.4,4.2,3.6,4.5c3.6,0.5,7.5-4.7,9.8-6.7c1-0.9-0.3-2.6-1.5-1.9c-4.6,3-8.7,6.3-9.7,12
						c0.6-0.2,1.2-0.5,1.8-0.7c-2.6-1.6-5.3-1.6-7.8,0.2c0.6,0.3,1.2,0.7,1.8,1c-0.2-2.3-0.7-4.3,0.3-6.4c0.3-0.6,1.6-1.7,1.9-2.3
						c0.6-1.2,1.2-3.2,0.1-4.3c-1.5-1.5-3.5-0.1-3.1,1.8c0.1,0.6,0.9,1.1,1.5,0.8c2.2-0.8,6-3.4,4.9-6.3c-0.8-2.2-3.2-1.9-4.1-0.1
						c-0.4,0.8,0.1,1.8,1,1.8c3.8,0.2,5-4.3,1.5-5.9c-1.4-0.6-2.6,1.3-1.2,2.1c0.8,0.5,1.1,0.5,2,0.3
						C103.9,284.2,103.3,281.9,101.8,282.3L101.8,282.3z"/>
				</g>
			</g>
			<g>
				<g>
					<path class="st0" d="M96.8,301c0.1-0.2,0.1-0.3,0.2-0.5c0.6,0.3,1.2,0.7,1.8,1c0.4-0.8,0.8-1.6,1.1-2.4c-0.7-0.2-1.3-0.4-2-0.5
						c1.3-0.9,1.9-2.2,1.8-3.8c-0.7-0.3-1.5-0.6-2.2-0.9c-0.4,0.7-0.7,1.5-1.1,2.2c0.7,0.3,1.5,0.6,2.2,0.9c0.3-2.2,0.8-3.6,2-5.7
						c-0.7-0.3-1.5-0.6-2.2-0.9c-0.3,1.9-0.7,3.6-1.4,5.4c0.8,0.2,1.5,0.4,2.3,0.6c0.7-3.6,1.9-6.8,3.9-9.9
						c-0.7-0.2-1.5-0.4-2.2-0.6c0.1,2.4-0.1,4.3-0.5,6.7c0.8,0.2,1.5,0.4,2.3,0.6c0.5-3.3,1.5-6.1,3.1-9c-0.7-0.1-1.5-0.2-2.2-0.3
						c0.5,1.7,0.8,3.4,0.6,5.1c0,1.3,2.2,1.7,2.4,0.3c0.4-2.5,1-4.6,2.2-6.9c-0.7-0.1-1.5-0.2-2.2-0.3c0.9,1.8,1,3.7,0.3,5.7
						c0.8,0.1,1.6,0.2,2.4,0.3c-0.4-2.1,0.3-3.9,2.1-5.3c-0.7-0.2-1.3-0.4-2-0.5c0.5,3.2-1.2,5.6-3.9,6.9c0.6,0.5,1.2,0.9,1.8,1.4
						c0.4-1.2,4.1-5,3.1-3.8c-1,1.3-2.2,2.2-3.7,3c-0.4,0.2-0.7,0.9-0.6,1.4c0.9,2.3-2.9,3.7-0.4,5.8c0.7,0.6,1.7,0.4,2-0.5
						c1.8-6.4,5.5-11.6,10.9-15.3c-0.5-0.5-1.1-1.1-1.6-1.6c-2.1,2.7-4.4,5-7,7.1c0.6,0.6,1.1,1.1,1.7,1.7c1.4-1.2,2.6-2,4.3-2.8
						c-0.6-0.5-1.2-0.9-1.8-1.4c-0.8,2.2-2.2,3.6-4.2,4.3c0.5,0.6,1,1.3,1.5,1.9c1.6-1.6,3.3-2.9,5.2-4.1c-0.5-0.6-1-1.3-1.5-1.9
						c-1.6,1.3-3.1,2.6-4.7,3.9c0.6,0.6,1.1,1.1,1.7,1.7c2.6-2.2,5.3-4.1,8.2-5.7c-0.5-0.1-1.1-0.3-1.6-0.4
						c-0.2-0.3-4.2,2.1-4.5,2.2c0.4,0.7,0.8,1.4,1.2,2.1c1.7-1,6.8-3,7.8-4.7c1.4-2.4-1.8-0.5-2.6-0.2c-1.5,0.6-3.1,1.2-4.7,1.7
						c-1.2,0.4-1.1,2.5,0.3,2.4c2.1-0.3,4.1-0.7,6.1-1.4c-0.3-0.7-0.6-1.5-0.9-2.2c-2,0.9-3.8,1.9-5.6,3.1c0.4,0.7,0.8,1.4,1.2,2.1
						c2.6-1.9,5.2-3.5,8.1-4.8c-0.4-0.7-0.8-1.4-1.2-2.1c-1.4,1-2.7,1.9-4.1,2.9c-1.2,0.9-0.1,2.9,1.2,2.1c1.7-1.1,3.1-1.9,5-2.7
						c-0.3-0.7-0.6-1.5-0.9-2.2c-1.3,0.8-2.5,1.7-3.8,2.5c0.4,0.7,0.8,1.4,1.2,2.1c2.4-1.7,4.7-2.4,7.7-2.3c-0.4-0.5-0.8-1-1.2-1.5
						c-0.4,0.3-0.8,0.5-1.2,0.8c0.2,0.7,0.4,1.5,0.6,2.2c1.2-0.6,2.4-1.1,3.8-1.3c0.7-0.2,1.1-1.1,0.7-1.8c-2.2-3.4-3.9-7-5-11
						c-0.7,0.3-1.5,0.6-2.2,0.9c1.4,1.8,2.4,3.7,3.1,5.9c0.5,1.5,2.7,0.9,2.3-0.6c-0.5-1.7-0.9-3.4-1.4-5.2
						c-0.8,0.2-1.5,0.4-2.3,0.6c0.8,2.2,1.3,4.1,1.6,6.4c0.8-0.1,1.6-0.2,2.4-0.3c-0.7-2.2-1.4-4.4-2-6.7c-0.8,0.2-1.5,0.4-2.3,0.6
						c0.5,1.5,1.1,3,1.6,4.5c0.5,1.4,2.6,0.9,2.3-0.6c-0.4-1.7-0.7-3.4-1.1-5c-0.8,0.2-1.5,0.4-2.3,0.6c0.9,2.2,1.3,3.9,1.4,6.4
						c0.1,1.5,2.5,1.6,2.4,0c0-0.5,0-1,0-1.4c-0.7,0.3-1.4,0.6-2,0.8c0.3,0.6,0.6,1.1,0.9,1.7c0.7-0.4,1.3-0.8,2-1.2
						c-1.2-1.2-1.8-2.5-1.9-4.1c-0.7,0.4-1.3,0.8-2,1.2c0.5,1,0.9,2,1.4,3.1c0.3,1.5,2.6,0.9,2.3-0.6c-0.4-1.7-1-2.8-2-4.1
						c-0.8-1-2.2,0.1-2,1.2c0.4,2.1,1.1,3.5,2.5,5.1c0.8,0.9,2.3-0.1,2-1.2c-0.4-1.6-0.4-1.6-1.6-2.8c-0.7-0.7-2.1-0.2-2,0.8
						c0,0.5,0,1,0,1.4c0.8,0,1.6,0,2.4,0c-0.1-2.5-0.6-4.7-1.5-7c-0.6-1.4-2.7-0.9-2.3,0.6c0.4,1.7,0.7,3.4,1.1,5
						c0.8-0.2,1.5-0.4,2.3-0.6c-0.5-1.5-1.1-3-1.6-4.5c-0.5-1.4-2.7-0.9-2.3,0.6c0.6,2.3,1.2,4.5,2,6.7c0.4,1.2,2.5,1.1,2.4-0.3
						c-0.3-2.4-0.8-4.7-1.7-7c-0.5-1.4-2.7-0.9-2.3,0.6c0.5,1.7,0.9,3.4,1.4,5.2c0.8-0.2,1.5-0.4,2.3-0.6c-0.8-2.4-1.8-4.4-3.3-6.5
						c-0.8-1-2.6-0.5-2.2,0.9c1.2,4.2,2.9,7.9,5.2,11.5c0.2-0.6,0.5-1.2,0.7-1.8c-1.6,0.4-2.9,0.9-4.3,1.6c-1.1,0.5-0.5,2.2,0.6,2.2
						c2,0,2.8-0.7,3.5-2.5c0.3-0.8-0.4-1.5-1.2-1.5c-3.4-0.1-6.1,0.8-8.9,2.7c-1.3,0.9-0.1,2.9,1.2,2.1c1.3-0.8,2.5-1.7,3.8-2.5
						c1.1-0.7,0.4-2.7-0.9-2.2c-2,0.8-3.8,1.7-5.6,2.9c0.4,0.7,0.8,1.4,1.2,2.1c1.4-1,2.7-1.9,4.1-2.9c1.3-0.9,0.2-2.7-1.2-2.1
						c-2.9,1.3-5.6,2.9-8.1,4.8c-1.2,0.9-0.1,3,1.2,2.1c1.8-1.2,3.6-2.2,5.6-3.1c1.2-0.6,0.4-2.6-0.9-2.2c-1.9,0.6-3.5,1-5.5,1.3
						c0.1,0.8,0.2,1.6,0.3,2.4c3.3-1.1,7.5-2.2,10.3-4.4c0.3-0.3,0.4-0.8,0.3-1.2c-0.9-5.1-11.3,3.5-12.9,4.5
						c-1.3,0.8-0.1,2.8,1.2,2.1c1.6-0.9,7.2-2.7,5.3-5.5c-0.4-0.5-1.1-0.8-1.6-0.4c-3.1,1.8-5.9,3.8-8.6,6.1c-1.2,1,0.5,2.7,1.7,1.7
						c1.6-1.3,3.1-2.6,4.7-3.9c1.1-0.9-0.3-2.6-1.5-1.9c-2.2,1.3-3.9,2.7-5.7,4.4c-1,1,0.3,2.5,1.5,1.9c2.7-1.3,4.2-3,5.3-5.8
						c0.4-1.1-0.9-1.8-1.8-1.4c-1.8,0.9-3.3,1.9-4.8,3.2c-1.2,1,0.5,2.6,1.7,1.7c2.8-2.3,5.2-4.7,7.4-7.6c0.7-1-0.7-2.3-1.6-1.6
						c-6,4.1-10.1,9.7-12,16.7c0.7-0.2,1.3-0.4,2-0.5c0.5,0.4,1.8-4.1,1.9-4.1c1.2-1.9,5.4-3.1,4.5-6.2c-1.6-5.4-8,3.1-8.7,5.1
						c-0.4,1.1,0.9,1.7,1.8,1.4c3.9-1.8,5.6-5.4,5-9.6c-0.1-0.9-1.4-1.1-2-0.5c-2.1,2-3,4.1-2.8,7c0.1,1.3,2,1.7,2.4,0.3
						c0.7-2.6,0.7-4.4-0.3-7c-0.3-0.9-1.7-1.3-2.2-0.3c-1.2,2.4-2,4.8-2.4,7.5c0.8,0.1,1.6,0.2,2.4,0.3c0-2.1-0.2-3.8-0.7-5.8
						c-0.3-1-1.7-1.2-2.2-0.3c-1.7,3.1-2.8,6.1-3.4,9.6c-0.2,1.5,2,2.2,2.3,0.6c0.5-2.5,0.7-4.8,0.6-7.3c0-1.2-1.6-1.6-2.2-0.6
						c-2.1,3.3-3.4,6.6-4.1,10.5c-0.3,1.5,1.8,2.1,2.3,0.6c0.7-1.8,1.1-3.5,1.4-5.4c0.2-1.3-1.5-2.2-2.2-0.9c-1.1,2-1.8,3.9-2.2,6.2
						c-0.2,1.4,1.4,2,2.2,0.9c1.1-1.4,0.9-1.1,1.3-2.8c0.3-1.3-1.5-2.1-2.2-0.9c-0.8,1.5-1.9,4.7-0.3,6.2c0.9,0.8,1.9,0.8,2.8-0.2
						c0.3-0.3,0.5-0.8,0.3-1.2c-0.1-0.1-0.1-0.3-0.2-0.4c-0.3-0.9-1.3-1.2-2-0.5c-1.4,1.3-1.8,2.2-1.8,4.1c0,0.9,1,1.5,1.8,1
						c0.2-0.1,0.3-0.2,0.5-0.3c0.5-0.3,0.7-0.8,0.6-1.4c0-0.2-0.1-0.4-0.1-0.6C98.7,298.8,96.4,299.5,96.8,301L96.8,301z"/>
				</g>
			</g>
			<g>
				<g>
					<path class="st0" d="M103.9,284.7c-4.4-1.4-5.7-1.4-3.9,0c1.5,1.1,1.3,2.6-0.7,4.7c-0.9-0.3-2,0.9-1.4,1.8
						c-0.5,1-1,1.9-1.4,2.9c0.7-0.2,1.3-0.4,2-0.5c-1,0.2-2,0.5-3,0.7c0.6,0,1.1,0,1.7,0c-2.7-2.2-2.9-5.9-5.9-8.1
						c-3.1-2.3-7.4-3.4-10.9-4.8c-2.4-1-6.4-3.7-9.2-2.8c-0.5,0.1-1.4,1.1-1.7,1.2c-0.4,0-0.1,0.1,0,0.1c1.7,0-1.1-8.8,0.6-6.1
						c-0.5,0.5-1.1,1.1-1.6,1.6c3.3,2.1,6.3,4.4,9.1,7c0.2-0.7,0.4-1.3,0.5-2c-2.5,0.5-4.5-0.6-6.8-0.1c-0.7,0.1-1.1,0.8-1.9,0.8
						c-1.5,0.1-1.6,2.4,0,2.4c4-0.1,7.9,2.2,11.7,3.5c4.5,1.5,8.4,3.8,12.4,6.3c1.1,0.7,2.1-0.6,1.6-1.6c-3.6-8-10.8-12.6-18-16.8
						c-0.3,0.7-0.6,1.5-0.9,2.2c5.1,1,10.2,2.4,15.3,3c5,0.6,10.2-0.9,14.9,1.2c0.1-0.7,0.2-1.5,0.3-2.2c-5.4,0.8-10.9-0.6-16.5,0.4
						c-0.8,0.1-1,1.1-0.7,1.8c0.9,1.7,1.8,3.3,2.8,4.9c0.3-0.6,0.7-1.2,1-1.8c0.9,0.5,1.8,0.9,2.7,1.4c0.4-0.5,0.8-1,1.2-1.5
						c-0.6-2.1-1.1-4.2-1.7-6.4c1.1-1-0.3-2.4-1.5-1.9c-0.6,0-1.2,0-1.7,0c-0.2,0.7-0.4,1.5-0.6,2.2c9.1-0.2,17.8,0.2,26.6-2.2
						c1.9-0.5,7.5-2.1,8.1,0.6c0.4,1.7-2.8,2.8-3.9,2.8c-1,0-2.3-0.7-3.3-1c-3.9-0.9-7.6-1-11.3,0.6c-1,0.4-1.1,1.5-0.3,2.2
						c3.2,2.4,7.9,1.6,11.6,1.3c1.5-0.1,1.5-2.5,0-2.4c-3.6,0.2-6.9,0.9-10.4,2.1c-1.5,0.5-0.9,2.6,0.6,2.3c5-1,9.4-3.6,14.4-4.5
						c-0.3-0.7-0.6-1.5-0.9-2.2c0.2,0.5,0.3,0.9,0.5,1.4c-1.1,1.1,0.6,2.8,1.7,1.7c3.6-3.4-1-8.2-2.6-4.3c-0.2,0.5,0.2,1.1,0.6,1.4
						c0.2,0.1,0.4,0.3,0.5,0.4c0.3,0.3,0.9,0.2,1.2,0c0.2-0.1,0.4-0.2,0.6-0.3c0.4-0.2,0.6-0.6,0.6-1c0-4.5-6.5-2.3-8,0.2
						c-2.6,4.2,3.7,4.6,6.1,2.7c1.1-0.8,0.5-2.4-0.9-2.2c-5,0.9-9.4,3.5-14.4,4.5c0.2,0.8,0.4,1.5,0.6,2.3c3.2-1.1,6.4-1.8,9.7-2
						c0-0.8,0-1.6,0-2.4c-3.2,0.2-7.7,1.1-10.4-1c-0.1,0.7-0.2,1.5-0.3,2.2c4.5-1.9,8.8-1,13.3,0.4c1.7,0.6,3.8,1.5,5.6,0.5
						c2.8-1.5,2.2-6.9,0.6-9c-2.2-3-10.2,0.5-12.9,1.2c-7.5,2-15.7,1.3-23.4,1.4c-1.1,0-1.7,1.7-0.6,2.2c1.6,0.8,2.5,0.7,4.2,0
						c-0.5-0.6-1-1.3-1.5-1.9c-4.4,3.8-2.1,9.8,3.4,10.5c0.8,0.1,1.3-0.8,1.2-1.5c-0.6-2.9-3.7-6.4-6.9-4c-2.8,2.1-1.1,5.4,1.9,5.7
						c0.9,0.1,1.5-1.1,1-1.8c-1-1.6-1.9-3.2-2.8-4.9c-0.2,0.6-0.5,1.2-0.7,1.8c5.6-1,11,0.4,16.5-0.4c1-0.1,1.2-1.8,0.3-2.2
						c-4.2-1.9-8.2-1.3-12.7-1.4c-6.1,0-12.2-1.9-18.2-3.1c-1.3-0.3-2.1,1.5-0.9,2.2c7,4.1,13.8,8.3,17.2,16
						c0.5-0.5,1.1-1.1,1.6-1.6c-4.2-2.6-8.4-5-13-6.5c-4-1.3-8-3.7-12.3-3.6c0,0.8,0,1.6,0,2.4c3.1-0.3,6.3-0.1,9.3-0.8
						c0.9-0.2,1.2-1.4,0.5-2c-3-2.8-6.1-5.2-9.6-7.4c-1-0.6-2.3,0.6-1.6,1.6c0.8,1.2,1.7,1.7,3.2,1.2c0.5-0.2,0.9-0.6,0.9-1.2
						c0-0.1,0-0.2,0-0.3c0-0.4-0.2-0.9-0.6-1c-0.1,0-0.2-0.1-0.3-0.1c-0.5-0.2-1.1-0.2-1.5,0.2c-2.3,2.4-4.5,10.2,1,8.7
						c1.8-0.5,2.4-1,4.6-0.4c3,0.9,6,2.4,8.8,3.5c3.8,1.6,6.5,2.7,8.5,6.5c0.8,1.6,1.4,2.9,2.8,4.1c0.5,0.4,1.2,0.5,1.7,0
						c1.7-1.6,2.4-4.6-0.1-6c-0.5-0.3-1-0.2-1.5,0.2c-1.8,1.4-0.2,4,1.1,5.1c0.6,0.5,1.8,0.4,2-0.5c0.2-1.4,0.4-2.7-0.3-4
						c-0.3-0.5-0.8-0.6-1.4-0.6c-0.2,0-0.5,0.1-0.7,0.1c-0.4,0.1-0.7,0.5-0.8,0.8c-1.9,5.2,8.3,4.3,4.4-1.1
						c-0.5,0.6-0.9,1.2-1.4,1.8c5.9,1.9,6-10.1,1.6-10.6c-5-0.5-5.3,9,0.3,9.1c5.5,0.1,6-8.9,0.4-8.1c-2.3,0.3-3.7,3.1-2.3,5
						c1.8,2.6,5,0.7,6.8-0.7C106.9,285.4,105.1,283.7,103.9,284.7L103.9,284.7z"/>
				</g>
			</g>
		</g>
		<g>
			<g>
				<path class="st0" d="M115.4,291.2c1-0.5,2.1-0.7,3.2-0.5c-0.2-0.7-0.4-1.5-0.6-2.2c-0.6,0.2-1.3,0.3-1.9,0.5c0,0.8,0,1.5,0,2.3
					c5.5-1.3,11-2.6,16.5-4c2.3-0.6,4.9-1.2,4.1-4.1c-0.5-1.5-2.7-0.9-2.3,0.6c0.1,0.4,0.2,0.9,0.3,1.3c0.8-0.2,1.5-0.4,2.3-0.6
					c-0.5-1.5-3.7-12.9-4.9-12.8c1.1-0.1,1.7-1.6,0.6-2.2c-0.4-0.2-0.8-0.4-1.2-0.7c-0.1,0.7-0.2,1.5-0.3,2.2
					c2.7-0.7,3.1,11.2,3.1,12.7c0,1.5,2.4,1.5,2.4,0c0-3.6,0.1-16.6-6.1-15c-1,0.3-1.2,1.7-0.3,2.2c0.4,0.2,0.8,0.4,1.2,0.7
					c0.2-0.7,0.4-1.5,0.6-2.2c-1.7,0.1-2,1.1-2,2.6c0.1,2,1.4,4.3,2.1,6.2c0.8,2.4,1.7,4.7,2.5,7.1c0.5,1.4,2.7,0.9,2.3-0.6
					c-0.1-0.4-0.2-0.9-0.3-1.3c-0.8,0.2-1.5,0.4-2.3,0.6c0.2,0.8-17.1,4.7-18.8,5.2c-1.1,0.3-1.2,2.1,0,2.3c1.5,0.2,2.4,0.1,3.8-0.7
					c1-0.7,0.6-2.1-0.6-2.2c-1.4-0.1-2.5,0-3.9,0.5C113.4,289.4,114,291.8,115.4,291.2L115.4,291.2z"/>
			</g>
		</g>
		<g>
			<g>
				<path class="st0" d="M131.7,272.3c0.9-0.3,1.9-0.7,2.2-1.8c0.1-0.5,0.1-1.1-0.1-1.5c-0.1-0.3-0.3-0.5-0.6-0.6
					c-0.1-0.1-0.1-0.1-0.2-0.1c-0.2-0.1-0.2-0.1,0.1,0.2c0.1,0.2,0.1,0.4,0.2,0.6c0,0,0-0.1,0-0.1c-0.2,0.3-0.4,0.7-0.6,1
					c0,0,0,0-0.1,0c0.6,0.1,1.3-0.2,1.5-0.8c0.2-0.6-0.2-1.4-0.8-1.5c-0.7-0.1-1.2,0-1.8,0.3c-0.4,0.2-0.6,0.6-0.6,1
					c0,0.4,0.1,0.8,0.4,1c0.1,0.1,0.3,0.2,0.4,0.3c0.1,0.1,0.3,0.3,0.1-0.1c-0.1-0.1-0.1-0.1-0.1-0.2c0,0,0-0.1,0-0.1
					c0,0,0-0.1,0-0.1c0,0-0.5,0.2-0.5,0.2C129.5,270.4,130.2,272.8,131.7,272.3L131.7,272.3z"/>
			</g>
		</g>
	</g>
	<g>
		<g>
			<path class="st0" d="M91.3,273.8c-0.1,0-0.2,0-0.3,0c0.5,0.1,1.1,0.1,1.6,0.2c-0.1,0-0.3-0.1-0.4-0.1c0.5,0.2,1,0.4,1.4,0.6
				c-0.1,0-0.2-0.1-0.2-0.1c0.4,0.3,0.8,0.6,1.2,0.9c-0.1-0.1-0.2-0.2-0.3-0.3c0.3,0.4,0.6,0.8,0.9,1.2c-0.1-0.1-0.1-0.2-0.1-0.2
				c0.2,0.5,0.4,1,0.6,1.4c0-0.1,0-0.1-0.1-0.2c0.1,0.5,0.1,1.1,0.2,1.6c0-0.1,0-0.1,0-0.2c-0.1,0.5-0.1,1.1-0.2,1.6
				c0,0,0-0.1,0-0.1c-0.2,0.5-0.4,1-0.6,1.4c0,0,0.1-0.1,0.1-0.1c-0.3,0.4-0.6,0.8-0.9,1.2c0,0,0.1-0.1,0.1-0.1
				c-0.4,0.3-0.8,0.6-1.2,0.9c0.1-0.1,0.2-0.1,0.2-0.1c-0.5,0.2-1,0.4-1.4,0.6c0,0,0.1,0,0.1,0c-0.5,0.1-1.1,0.1-1.6,0.2
				c0.1,0,0.2,0,0.3,0c-0.5-0.1-1.1-0.1-1.6-0.2c0.1,0,0.2,0,0.3,0.1c-0.5-0.2-1-0.4-1.4-0.6c0.1,0,0.2,0.1,0.2,0.1
				c-0.4-0.3-0.8-0.6-1.2-0.9c0,0,0.1,0.1,0.1,0.1c-0.3-0.4-0.6-0.8-0.9-1.2c0.1,0.1,0.1,0.1,0.1,0.2c-0.2-0.5-0.4-1-0.6-1.4
				c0,0.1,0.1,0.2,0.1,0.2c-0.1-0.5-0.1-1.1-0.2-1.6c0,0.1,0,0.2,0,0.2c0.1-0.5,0.1-1.1,0.2-1.6c0,0.1,0,0.2-0.1,0.2
				c0.2-0.5,0.4-1,0.6-1.4c0,0,0,0.1-0.1,0.1c0.3-0.4,0.6-0.8,0.9-1.2c0,0.1-0.1,0.1-0.2,0.2c0.4-0.3,0.8-0.6,1.2-0.9
				c0,0-0.1,0-0.1,0.1c0.5-0.2,1-0.4,1.4-0.6c-0.1,0-0.1,0-0.2,0.1c0.5-0.1,1.1-0.1,1.6-0.2c0,0-0.1,0-0.1,0
				c0.5,0.1,1.1,0.1,1.6,0.2c-0.1,0-0.1,0-0.2,0c0.5,0.2,1,0.4,1.4,0.6c-0.1,0-0.1-0.1-0.2-0.1c0.4,0.3,0.8,0.6,1.2,0.9
				c-0.1,0-0.1-0.1-0.2-0.2c0.3,0.4,0.6,0.8,0.9,1.2c0,0,0-0.1-0.1-0.1c0.2,0.5,0.4,1,0.6,1.4c0,0,0-0.1,0-0.1
				c-0.5-1.4-1.4-2.9-2.8-3.6c-1.5-0.8-3-1-4.6-0.6c-1.7,0.4-3.5,1.7-4.2,3.3c-0.4,0.7-0.7,1.4-0.7,2.2c-0.2,0.8-0.1,1.6,0.1,2.4
				c0.4,1.4,1.5,2.9,2.8,3.6c1.4,0.7,3.1,1.1,4.6,0.6c1.4-0.4,3-1.4,3.6-2.8c0-0.1,0.1-0.2,0.1-0.2c-0.3,0.4-0.6,0.8-0.9,1.2
				c0.1-0.1,0.1-0.1,0.2-0.2c-0.4,0.3-0.8,0.6-1.2,0.9c0.1,0,0.1-0.1,0.2-0.1c-0.5,0.2-1,0.4-1.4,0.6c0,0,0.1,0,0.1,0
				c-2.5-1.4-4.9-2.8-7.4-4.2c0.4,1.1,0.8,2.1,1.7,2.9c0.7,0.7,1.9,1.5,2.9,1.7c1.2,0.3,2.3,0.4,3.5,0c1.1-0.3,2.1-0.8,3-1.6
				c1.4-1.3,2-3.1,2.1-4.9c0.1-2.3-1.3-4.6-3.3-5.8c-1.6-1-3.6-1.2-5.5-0.7c-2.8,0.8-4.8,3.3-4.9,6.2c0,1.2,0.3,2.4,1,3.5
				c0.3,0.4,0.7,0.9,1,1.3c0.1,0.1,0.2,0.2,0.3,0.3c1,0.8,1.8,1.3,2.9,1.7c0.1,0,0.2,0.1,0.3,0.1c0.6,0.1,1.3,0.2,1.9,0.2
				c1.5,0,3.2-0.7,4.2-1.8c1-1,1.8-2.7,1.8-4.2c-0.1-1.6-0.6-3.2-1.8-4.2C94.4,274.5,93,273.8,91.3,273.8L91.3,273.8z"/>
		</g>
	</g>
	<g>
		<g>
			<path class="st0" d="M100.4,286c-0.3-0.2-0.7-0.4-1-0.7c-2.3,2.9-4.5,5.9-6.8,8.8c0.3,0.3,0.5,0.6,0.8,0.9
				c1.4-3.4,2.8-6.8,4.2-10.2c0.9-0.1,0.5,0.3-0.5-0.5c-1-0.8-2.1-1.6-3.2-2.3c-2.1-1.2-4.3-2.2-6.5-3c-2-0.8-4.2-1.4-6.3-1.9
				c-1.3-0.3-2.7-0.8-4-0.9c-0.4-0.1-0.9-0.2-1.3-0.3c-1.6-0.5-1,0.3,1.9,2.5c-2.5,1.4-4.9,2.8-7.4,4.2c4.2,1.7,8.6,2.8,13.1,3.2
				c4.7,0.4,8.9-0.4,13.5-0.9c9.4-0.9,19.2,0.4,28.7,0.2c7.7-0.2,7.7-12.2,0-12c-9,0.3-17.9-0.3-26.9-0.3c-4.3,0-8.4,1.3-12.7,1.1
				c-4.4-0.1-8.5-1.3-12.5-3c-3.2-1.3-6.4,1.5-7.4,4.2c-3.3,8.8,4.2,11.6,11,13.3c3.7,0.9,7.4,1.9,10.7,3.9c3.3,2,5.6,4.8,9.8,4.4
				c5.5-0.4,7.4-6.1,4.2-10.2c-1.6-2.1-3.6-3.1-6.1-3.9c-4.9-1.6-9.7,4.5-6.8,8.8c2.1,3.2,4.5,5.1,8.2,6.2
				C104.6,299.8,107.8,288.3,100.4,286L100.4,286z"/>
		</g>
	</g>
	<g>
		<g>
			<g>
				<path d="M96.6,305.3c0.1-2,3.1-2.2,4.4-1.8c1.2,0.4,2,1.3,2.6,2.3c0.4,0.7,1.4,0.1,1-0.6c-1-1.9-2.8-3.1-5-3.1
					c-1.9,0-4.2,1-4.3,3.2C95.4,306.1,96.6,306.1,96.6,305.3L96.6,305.3z"/>
			</g>
		</g>
		<g>
			<g>
				<g>
					<path d="M64,286.2c6.2,1.2,12.3,3.2,18.2,5.3c7,2.5,11.4,6.2,13.2,13.6c0.2,0.8,1.3,0.4,1.2-0.3c-1.3-5.6-4.3-10.2-9.6-12.7
						c-7-3.3-15.1-5.6-22.7-7C63.6,284.9,63.3,286.1,64,286.2L64,286.2z"/>
				</g>
			</g>
			<g>
				<g>
					<path d="M64.8,285.9c-0.6-5.3,1.2-10.7,2.2-15.9c0.2-0.8-1-1.1-1.2-0.3c-1,5.2-2.8,10.8-2.2,16.2
						C63.7,286.6,64.9,286.6,64.8,285.9L64.8,285.9z"/>
				</g>
			</g>
		</g>
		<g>
			<g>
				<path d="M67.1,268.7c7.7,6.3,22.2,4.4,31.4,4.3c6-0.1,12.2,0.3,18.2-0.3c5.5-0.6,11-2.8,16.3-4.3c0.7-0.2,0.4-1.4-0.3-1.2
					c-5.7,1.6-11.6,4-17.5,4.4c-5.8,0.4-11.8,0.2-17.6,0.2c-5.2,0.1-10.5,0.2-15.7-0.2c-3.3-0.3-6.6-0.7-9.8-1.7
					c-1.8-0.6-3.6-1.6-5.5-1.9c-0.3,0-0.5,0.2-0.6,0.4c0,0.1-0.1,0.2-0.1,0.3c-0.1,0.2,0,0.5,0.2,0.6c0.1,0.1,0.1,0.1,0.2,0.2
					C66.8,270,67.7,269.2,67.1,268.7L67.1,268.7z"/>
			</g>
		</g>
		<g>
			<g>
				<g>
					<path d="M137.1,285.4c-7.8,1.5-16.4,3.6-23.6,7c-5.5,2.5-8.6,7-10.1,12.8c-0.2,0.7,1,1.1,1.2,0.3c2-7.9,7.2-11.4,14.6-13.9
						c6-2,12-3.9,18.2-5C138.2,286.4,137.9,285.2,137.1,285.4L137.1,285.4z"/>
				</g>
			</g>
			<g>
				<g>
					<path d="M137.7,286.3c0.9-6.3-1.9-12.7-3.6-18.7c-0.2-0.7-1.4-0.4-1.2,0.3c1.6,5.6,4.4,12.2,3.6,18.1
						C136.4,286.8,137.6,287.1,137.7,286.3L137.7,286.3z"/>
				</g>
			</g>
		</g>
	</g>
</g>
</svg>
