<svg id="Layer_1" data-name="Layer 1" xmlns="http://www.w3.org/2000/svg" viewBox="0 0 73.04 103.08"><defs><style>.cls-1{fill:#ffe329;}.cls-2{fill:#100d0c;}.cls-3{fill:#f9ee53;}</style></defs><title>Blond</title><path class="cls-1" d="M87.1,35.7c.7.5,1.4.9,2.1,1.4v-3c.3-.3.7-.6,1-.9,1,.3,1.9.5,2.9.8.8.8,4.8.4,6,.5,2.1.2,4.1.5,6.1.7,2.3.3,3.6-2.7,2.6-4.5a6.89,6.89,0,0,0-2.4-2.4c-2.3-1.4-4.9.9-4.4,3.4,0,.2.1.4.1.6.3-1,.5-1.9.8-2.9-.9,1.1-3.9,3.7-5.4,3.8l2.1,5.1c-.8-.5-1.5-.9-2.3-1.4.2,1.2.3,2.4.5,3.6.1-.2.2-.3.2-.5-.9.5-1.7,1-2.6,1.5-1.9-2.4-4.1-2.9-6.8-1.5a16.15,16.15,0,0,1-3.1-.2c-2.2-.6-1.7-1.2-3.1-2.4-1.9-1.5-4.1-.9-6,.2,1.2,1.6,2.4,3.1,3.6,4.7a48,48,0,0,1,5.6-4.5C86,37,90.1,36,89,34.7c-.3-1-.5-1.9-.8-2.9-.8,1.9-6.1,4-7.8,5.6a3.05,3.05,0,0,0,1.3,5,13.17,13.17,0,0,0,3.4.4c2.3.1,3.9,1.6,5.1-1,.9-.5,1.7-1,2.6-1.5a8.13,8.13,0,0,1-2.2-.1c.3,1.9.5,3.9.8,5.8,1.4.3,2.1-.1,1.9-1.2s-.5-1.9-.8-2.9c0,.1-.1.3-.1.4-.4,2.1,1.3,4.4,3.7,3.7s4.8-.4,7.2-.3c3.9.1,3.8-5.7,0-6a28.05,28.05,0,0,0-4.1,0c-3.8.2-3.9,6,0,6a4.24,4.24,0,0,0,3.1-.9,8.64,8.64,0,0,0,1.3-1.4c1.1-1.5.3-2-2.3-1.6v-3c.9-.2,1.8-.5,2.7-.7.5.9,1,1.7,1.5,2.6-.5-.4-1.1-.7-1.6-1.1l2.1-2.1-1,.3c1,.3,1.9.5,2.9.8-.3,2.3.4,2.6,2.1.8l-2.1,2.1.6-.3c-1.1-.5-2.2-.9-3.4-1.4.2-1.5-.2-1.9-1.2-.9a7,7,0,0,0-1,.8,5.1,5.1,0,0,0-1.4,2.6c-.6,2,1,3.6,2.9,3.8s3.5-.6,5.6-.1a3.09,3.09,0,0,0,2.9-.8c-1.6,1.9-.1.6,1.4.6,2-.1,4,0,6.1-.2a3.08,3.08,0,0,0,2.6-4.5,11.21,11.21,0,0,0-4.6-4.8c-.9-.5-8.9-3.7-8.8-4.4l-3.8,2.9q2.85.9,5.7,2.1c.5-1.9,1.1-3.8,1.6-5.7-.7-.3-1.3-.5-2-.8-.8,1.8-1.5,3.6-2.3,5.4a32.93,32.93,0,0,1,7.9,4.1c2.8,2,6-2.4,3.6-4.7a18.26,18.26,0,0,0-4.2-3.1c-2.8-1.5-6.3,2.4-3.6,4.7,4.2,3.5,9.2,5,10.4,10.9,1.8-.8,3.6-1.5,5.4-2.3a14,14,0,0,0-2.8-3.6c-2.4-2.3-6.5.7-4.7,3.6,2.3,3.7,3,7.8,4.8,11.7.9,1.9,4.3,2,5.1,0,2.3-5-.4-8.3-2.7-12.7l-5.1,3a8.91,8.91,0,0,1,1.8,3.8c1.1,3.7,6.9,2.1,5.7-1.6a20.43,20.43,0,0,0-2.4-5.2,3,3,0,0,0-5.1,3c.9,1.7,3.6,4.7,2.7,6.7h5.1c-1.8-4-2.5-8-4.8-11.7-1.6,1.2-3.1,2.4-4.7,3.6a5.46,5.46,0,0,1,1.8,2.4c1.7,3,6.1.9,5.4-2.3-.6-2.9-1.4-5.6-3.5-7.7-2.4-2.4-5.8-3.6-8.4-5.8-1.2,1.6-2.4,3.1-3.6,4.7a7.33,7.33,0,0,1,3,2.2c1.2-1.6,2.4-3.1,3.6-4.7a33.93,33.93,0,0,0-9.3-4.7c-3.1-1.1-5.4,4-2.3,5.4,1.2.5,2.2,1,3.4,1.4,3.7,1.3,5-4.3,1.6-5.7a55.39,55.39,0,0,0-5.7-2.1c-2.1-.6-3.5,1.1-3.8,2.9-.9,6.4,12,7.8,14.2,12.2.9-1.5,1.7-3,2.6-4.5-2.5.3-5.4.2-7.8.3-1.6,0-2.6-.4-3.9,1,1-.3,1.9-.5,2.9-.8-2.6-.6-4.6.2-7.2-.1,1,1.3,1.9,2.5,2.9,3.8.2-.9,2.8-1.8,3.3-3.1a3.89,3.89,0,0,0-.4-3.9c-.7-.9-2.1-1.9-3.4-1.4-3.6,1.5-4.2,7.4.3,8.4,4,.9,6.1-4.6,4.1-7.5-2.2-3.2-7.3-1.7-8.8,1.5a4,4,0,0,0,6.1,4.9c3.7-3,.1-8.2-3.9-7.7-3.3.4-6.9,4.7-4.2,7.7,2.4,2.7,7.1.2,6.3-3.3a4,4,0,0,0-3.9-2.9,4.39,4.39,0,0,0-2.2.7c-.3.2-2.4,2.4-1.5,2.4v6c1.4-.1,2.7,0,4.1,0v-6c-3-.1-5.9-.4-8.8.5l3.7,3.7c1.1-5.6-5.1-4.3-8.4-3.6-3.6.8-2.3,5.5.8,5.8a8.13,8.13,0,0,0,2.2.1,2.9,2.9,0,0,0,2.6-1.5c3.5-7.5-8.1-7.1-12.1-8.1.4,1.7.9,3.3,1.3,5,3-2.9,7.6-4.1,9.4-8.2a2.86,2.86,0,0,0-.8-2.9c-4.5-5.1-15.2,4.9-18.4,7.6-2.6,2.3.7,6.3,3.6,4.7-.3.2-1.8-1.4.1.8a8.06,8.06,0,0,0,1.4,1.2,10.63,10.63,0,0,0,5,1.3c3.8.3,8.6-.4,11.4-3.1,5.1-4.8-2.3-10.6-4.7-5.5a3,3,0,0,0,.5,3.6c3.6,3.3,10.1-1.3,8.2-5.8-2.1-4.7-8.8-1.7-8.4,2.8.5,5.5,7.7,3.7,9.7.2,2.7-4.9-3.8-7.9-7.1-4.2-1.6,1.8-.6,5.3,2.1,5.1,4-.3,11.2-4.3,10.2-9.1-1.5,1.1-2.9,2.2-4.4,3.4l.3.3c.9-1.5,1.7-3,2.6-4.5-5.2-.6-15.5-3.6-17.8,3.4-1.5,4.5,3.7,9,6.9,4.4a2.93,2.93,0,0,0,0-3c-2.3-3.9-8.5-2.2-10.4,1.3-2.5,4.6,2.3,7.4,6.2,5.4,3.6-1.7.6-6.8-2.8-5.1Z" transform="translate(-63.3 -27.52)"/><path class="cls-1" d="M74.6,90c3.8,0,3.8-6,0-6s-3.8,6,0,6Z" transform="translate(-63.3 -27.52)"/><path class="cls-1" d="M72.2,62.5A8.53,8.53,0,0,1,73,59c-1.9-.5-3.8-1.1-5.7-1.6a25.12,25.12,0,0,1-.4,2.7h5.7c-.5-3.7,1.5-14,5.3-16.1h-3a6.53,6.53,0,0,1,1.5,1c-.4-1.4-.7-2.7-1.1-4.1a60.69,60.69,0,0,0-6.2,37.8c1.9-.5,3.8-1.1,5.7-1.6a22.47,22.47,0,0,1-.7-5.8l-5.5,1.5c.1.4.3.8.4,1.2l3.8-2.9a3.29,3.29,0,0,0-2.9.1c-.5.2-2.9,1.5-1.1.7,1.2.2,2.4.3,3.6.5-2.1-1.6-1.5-5.1-.8-7.1H65.9c1.5,4.3,1.3,7.5.3,11.9,1.8-.2,3.6-.5,5.4-.7-.7-1-.5-3-.9-4.2-1-3-6.2-2.7-5.8.8.2,2.7.5,5.4.7,8.1,1.9-.3,3.9-.5,5.8-.8,0-.6-.1-1.3-.1-1.9.3-2.9-4.4-4.1-5.5-1.5-.2.5-.4.9-.6,1.4l5.5,1.5V78.5c-1.9.3-3.9.5-5.8.8a7.85,7.85,0,0,0,.5,2.2c.8,2.8,5,2.9,5.7,0a19.73,19.73,0,0,1,.7-2.6c-1.8.2-3.6.5-5.4.7.7,1.4,1.3,2.7,2,4.1,1.3,2.7,5.5,1.3,5.5-1.5V79.4l-5.5,1.5c.5,1.1,1,2.1,1.6,3.2,1.6,3.3,5.9.8,5.4-2.3-.1-.8-.3-1.6-.4-2.5-1.8.8-3.6,1.5-5.4,2.3.3.7.7,1.4,1,2,1.5,3,6.4.9,5.4-2.3l-.6-2.1c-1.9.5-3.8,1.1-5.7,1.6.4,1.5,1.4,3.6,1.4,5.1.5-.9,1-1.7,1.5-2.6,1,.9,1.3.6.9-.7-1.9.3-3.9.5-5.8.8,0,1,.1,1.9.1,2.9h5.7a20,20,0,0,1-1.1-4.2c-.5-2.9-5.2-2.8-5.7,0l-.6,2.7c1.8-.2,3.6-.5,5.4-.7-.1-.3-.2-.7-.3-1h-6c-.1.8-.1,1.6-.2,2.3h5.7a10.4,10.4,0,0,1-.3-3.5c.1-3.8-5.9-3.8-6,0a21.54,21.54,0,0,0,.5,5.1c.6,2.9,5,2.7,5.7,0a8.55,8.55,0,0,0,.4-3.9c-.3-3.8-6.1-3.9-6,0a8,8,0,0,0,1.1,4c1.1,2.2,4.9,1.8,5.4-.7l.6-2.7H66.4a20,20,0,0,0,1.1,4.2c.9,2.5,5.1,3.1,5.7,0a14,14,0,0,0-.1-6.1c-.8-3.3-5.8-2.5-5.8.8,0,4.9,2.9,8.8,8,5.9a3,3,0,0,0,1.5-2.6c-.1-2.3-1-4.5-1.6-6.7-1.1-3.7-6.8-2.1-5.7,1.6l.6,2.1c1.8-.8,3.6-1.5,5.4-2.3-.3-.7-.7-1.4-1-2-1.6-3.3-5.9-.8-5.4,2.3.1.8.3,1.6.4,2.5,1.8-.8,3.6-1.5,5.4-2.3-.5-1.1-1-2.1-1.6-3.2-1.3-2.8-5.5-1.3-5.5,1.5v2.8l5.5-1.5c-.7-1.4-1.3-2.7-2-4.1-1.1-2.3-4.8-1.7-5.4.7a19.73,19.73,0,0,1-.7,2.6h5.7a17.42,17.42,0,0,1-.5-2.2c-.5-3.4-5.8-2.5-5.8.8v1.4c0,2.8,4.3,4.3,5.5,1.5.2-.5.4-.9.6-1.4l-5.5-1.5a6,6,0,0,0,.4,3.5c1,3,6.2,2.7,5.8-.8-.2-2.7-.5-5.4-.7-8.1-1.9.3-3.9.5-5.8.8.7,2,.2,3.8,1.5,5.6s4.8,2,5.4-.7c1.3-5.7,1.6-9.5-.3-15a3,3,0,0,0-5.7,0c-1.3,3.9-1.3,10.1,2.3,12.9a3.22,3.22,0,0,0,3.6.5,2.36,2.36,0,0,0,.9-.6c1-1.1.5-1-1.5.4a3,3,0,0,0,3.8-2.9,10.18,10.18,0,0,0-1.2-4.2c-1.4-2.7-5.6-1.4-5.5,1.5a29.79,29.79,0,0,0,.9,7.3c1,3.8,6.4,2.1,5.7-1.6-1.9-11,.5-23.1,5.6-33.1a3.06,3.06,0,0,0-1.1-4.1c-9-6.7-13.2,16.5-12.5,21.8.4,2.8,5.3,2.8,5.7,0a25.12,25.12,0,0,1,.4-2.7c.5-3.7-4.4-5.3-5.7-1.6a17.75,17.75,0,0,0-1,5.1c-.3,3.8,5.7,3.8,6,0Z" transform="translate(-63.3 -27.52)"/><path class="cls-1" d="M126.4,57.4c.1.1.2.1.2.2,1.9-.3,3.9-.5,5.8-.8-.1-.4-.3-.7-.4-1.1-1.3-3.7-6.3-2.2-5.7,1.6,0,.3.1.6.1.9.5,2.9,5.1,2.7,5.7,0a10.55,10.55,0,0,0,.4-3.1c0-3.3-5-4.1-5.8-.8-1.3,5.2.2,12.1.5,17.4.2,2.6,4.3,4.5,5.5,1.5,1.7-4,.8-7.4-.1-11.5-.7-3.2-6.3-2.6-5.8.8.5,4.1,1,8.3,1.4,12.4.2,1.7.3,3.3.4,5,0,1-.5,4,0,3.6,1-.3,1.9-.5,2.9-.8-.5-.1,1.2-10.4,1.4-11.1-1.8.2-3.6.5-5.4.7,1.1,2.6,1.2,8,.9,10.7a61.6,61.6,0,0,1-2.7,12.6c1.8-.2,3.6-.5,5.4-.7a.37.37,0,0,1-.1.3c-1.8-.8-3.6-1.5-5.4-2.3.1.3.1.7.2,1,1.1.5,2.2.9,3.4,1.4.2.2.4.3.6.5l-5.1-2.1a3.52,3.52,0,0,0-.5,2.6c1,.3,1.9.5,2.9.8,0,.1,0,.1.1.2-1.2-.2-2.4-.3-3.6-.5a12.67,12.67,0,0,1,1.3-1.1c-.9-.5-1.7-1-2.6-1.5v.6c1.2-.2,2.4-.3,3.6-.5-.2-.1-.4-.3-.6-.4.5.9,1,1.7,1.5,2.6a3,3,0,0,1,1.2-2.8c-1,.3-1.9.5-2.9.8.2,0,.3.1.5.1l-2.1-2.1c0,.1.1.3.1.4,1-1.3,1.9-2.5,2.9-3.8h-.4c.9.5,1.7,1,2.6,1.5.3.4,2.4-5.4,2.5-5.9-1.9-.5-3.8-1.1-5.7-1.6a7,7,0,0,1-4.5,5.6c.8,1.8,1.5,3.6,2.3,5.4a34.41,34.41,0,0,0,4.1-3.5c2.8-2.8-1.3-6.5-4.2-4.2a36.36,36.36,0,0,1-6.7,4.3c-1.3.7-3.3,1.1-4.2,2.2-1.5,1.8-1,5.1-.6,7.3.4,2,1.5,4,3.8,4.1a4.89,4.89,0,0,0,2.8-1.1,14.63,14.63,0,0,0,.9-1.3c.9-1.4,0-2.4-2.5-3,.9-.5,1.7-1,2.6-1.5h-.5c.9.5,1.7,1,2.6,1.5,1.1-.8.9-.9-.5-.2-.9-.5-1.7-1-2.6-1.5a5.16,5.16,0,0,1,.9,3.4c1.9-.3,3.9-.5,5.8-.8l-.6.3h-3c0-.1,0-.2.1-.2l2.1-2.1c-.1.7-.3,1.4-.4,2.1.9-.5,1.7-1,2.6-1.5-.3,1.2-.7,2.3-1,3.5,1.5-.9,3-1.7,4.5-2.6.3.5.5,1,.8,1.5l-2.1,2.1a6.07,6.07,0,0,1-1-.7l3.8-2.9c-4.3-.6-2.2,4.4-1.5,5.6a6.9,6.9,0,0,0,1.8,1.6,3.09,3.09,0,0,0,4.1-1.1c1.4-2.4.1-4.6.1-7.2l-5.5,1.5a6.75,6.75,0,0,1,.2,1.4h6c-.4-6-1.1-12.1-.9-18.2-1.9.3-3.9.5-5.8.8a12.85,12.85,0,0,1,.7,3.4c.4,3.8,6.3,3.8,6,0a29.19,29.19,0,0,0-.9-5c-.9-3.3-5.7-2.5-5.8.8-.3,6,.5,12.2.9,18.2.3,3.8,6.1,3.9,6,0a11.29,11.29,0,0,0-1-4.4c-1.2-2.8-5.6-1.2-5.5,1.5a20,20,0,0,0,.2,3.4c.3,1.4-.2,2.1.5.9,1.4-.4,2.7-.7,4.1-1.1-1.1-.8-1-3-2.5-3.9a3.46,3.46,0,0,0-4.1.3c-2.4,2-1.7,6.8,1.7,7.3a3.05,3.05,0,0,0,3.8-2.9c-.1-3.5-3.1-7.2-6.9-4.9-3,1.8-2.5,5.4.2,7.2,1.9,1.3,4.5-.4,4.5-2.6-.1-6.3-9.3-7.8-8.9-1.2.4,6.4,10.2,3.1,6.5-3.2-3.3-5.7-11.8.3-7.2,5s8.9-4.1,3.3-7.6a2.93,2.93,0,0,0-3,0,5.1,5.1,0,0,0-2.1,6.4c1.1,2.9,6.1,2.8,5.8-.8s-2.1-10.7-7.1-6.8c-3.2,2.5-4,9.3,1.2,9.5a2.9,2.9,0,0,0,2.6-1.5,4.31,4.31,0,0,0-2.2-6.1,4.26,4.26,0,0,0-3.5.4c-.7.4-3.1,3-1.4,2.4,1,.3,1.9.5,2.9.8,0,0-.3-4.1-1.3-1.9.3-.6,3.3-1.5,3.9-1.9a55.3,55.3,0,0,0,7.1-4.8l-4.2-4.2a23.48,23.48,0,0,1-2.9,2.6c-2.4,1.8-1.2,6.8,2.3,5.4a13.14,13.14,0,0,0,8.7-9.8A3,3,0,0,0,126,83c-1.2,3.6-5.4,11.1,1,12,1.9.3,3.4-2.1,2.9-3.8-2.4-7.7-13.4,3.8-6.4,8.1a3,3,0,0,0,3.6-.5A7,7,0,0,0,128,91a3,3,0,0,0-2.6-1.5c-5.1.3-7.8,8.5-2.7,11,4.5,2.2,9.1-4.8,5.6-8.1a3,3,0,0,0-3.6-.5c-2.9,1.8-4.4,7.7-.7,9.6,4.7,2.3,7-4.8,7.2-8,.2-2.7-3.3-3.8-5.1-2.1s-2.8,4.3-1.5,6.7a3.09,3.09,0,0,0,3.4,1.4c2.3-1,3.4-2.8,4-5.2.8-3.1-4.1-5.5-5.4-2.3-.9,2.2-1,3.6.1,5.7,1.2,2.4,4.7,1.5,5.4-.7a66.8,66.8,0,0,0,3.1-15.4,29,29,0,0,0-1.8-12.4c-1-2.3-4.9-1.7-5.4.7-.6,3-3.8,22.8,5.1,18.1,2.4-1.3,2.4-5.1,2.4-7.4.1-6-1-12.3-1.8-18.2-1.9.3-3.9.5-5.8.8.5,2.1,1.6,4.8.7,6.9l5.5,1.5c-.2-2.8-.3-5.5-.5-8.3-.1-2.3-.8-5.3-.3-7.5-1.9-.3-3.9-.5-5.8-.8,0,.5-.1,1-.1,1.5h5.7c0-.3-.1-.6-.1-.9-1.9.5-3.8,1.1-5.7,1.6.1.4.3.7.4,1.1,1,2.9,6.3,2.7,5.8-.8a7.08,7.08,0,0,0-1-3.2c-3.2-3-8.3,0-6.1,3.1Z" transform="translate(-63.3 -27.52)"/><path class="cls-1" d="M112.6,97.1c-.7,1.4-1.7,1.9-2,3.5-.6,2.5.1,5.8.2,8.4a39.21,39.21,0,0,1-3.1,17.2c-.9,2.3,1.7,4,3.7,3.7,5.8-1.1,11.7-1,16.9-4.2-1.5-1.1-2.9-2.2-4.4-3.4a.6.6,0,0,1-.1.4l2.1-2.1c-.1,0-.3.1-.4.1.8,1.8,1.5,3.6,2.3,5.4,2.5-1.3,3-3.5,4.5-5.8-1.8-.8-3.6-1.5-5.4-2.3-.3.7-.6,1.3-.9,2l5.1,3a28.71,28.71,0,0,0,4.3-12.6c.3-2.8,1-5.8-1.7-7.6a3,3,0,0,0-3.6.5c-2.5,2.5-2.7,7.8-5.3,9.8,1.5.9,3,1.7,4.5,2.6a14.55,14.55,0,0,1,1-6.5l-5.5-1.5c0,.3-1.3,7.7-1.2,7.7.9.5,1.7,1,2.6,1.5-1.2-2,1.1-3.8-1.1-3.4-1.2-.7-2.4-1.4-3.7-2.1.4,1.2-1.4,5.1-2.2,5.7h4.2l1.2-2.1-5.5-1.5c-1.5,1.7-1.5,2.6-.1,2.8,1,.7,1.9,1.5,2.9,2.2v-.3h-3c.1.1.2.2.3.2-.5-.9-1-1.7-1.5-2.6a3.68,3.68,0,0,1-1.1,2.9h3c-.1.8-.3,1.6-.4,2.4l-2.1-2.1c-.3.5-.1.5.8,0,.9.5,1.7,1,2.6,1.5v.5c-1.4-.4-2.7-.7-4.1-1.1,2.4,4.1,4.8-2.2,5.9-3.5l-5.1-2.1a16.25,16.25,0,0,1-.4,1.9c1-.3,1.9-.5,2.9-.8.6.2,3.3-4.7,4.1-5.2-1.2-.2-2.4-.3-3.6-.5-1.7.1-1.4.1,1-.1a9,9,0,0,0,2.1-2.7l-2.1-2.1q-.9,1.35,2.1,1.2c-.9-.5-1.7-1-2.6-1.5-.7-1-3.4,2.1-1.1,2.8.2.1,2.5-2.8,3.2-2.9-.9-.5-1.7-1-2.6-1.5-.5-.2-.6.1-.5.9,1,.3,1.9.5,2.9.8,1.4,1.4.7-.5,2.4-1-1-.3-1.9-.5-2.9-.8-.4-1.6-.6-1.6-.7-.1-.4.8-.3,1.4.5,1.8l3,3a4.59,4.59,0,0,0,1-2.5l-2.1-2.1a6.24,6.24,0,0,1-.5,3.6c1.2.2,2.4.3,3.6.5,1.8,1.4,1-2.3,2.8-3-1-.3-1.9-.5-2.9-.8a9.19,9.19,0,0,0-1.6,2.7h4.2c1.3.2.4,0-2.8-.7l5.1,2.1c.1-.8.1-1.6.2-2.4h-3c-.2-.1-1.5,3.6-1.9,3.6,1,.3,1.9.5,2.9.8a4.05,4.05,0,0,1,1.7-4.1l-4.7-.6c0-1.8-.2-1.7-.8.3,1.5-.3,2.1-1,1.6-2.3.7-1.8.5-4.6,1.1-6.7a3,3,0,0,0-4.4-3.4h.5l2.1,2.1c.1-.7.3-1.5.4-2.2h-5.7V92h5.7c-.4.2-.7.4-1.1.6l-4.1-4.1c-.5.5-.9,1-1.4,1.5,1.2,1.6,2.4,3.1,3.6,4.7-.7-.1-1.3-.1-2-.2-.5-1.1-.9-2.2-1.4-3.4l-1.2,2.1c1.1.5,2.2.9,3.4,1.4a1.92,1.92,0,0,0,2.3-.2c-.9-.5-1.7-1-2.6-1.5l-.3-.6c1.2.2,2.4.3,3.6.5.4.1.7.1,1.1.2,1.6-2.5-1.6-5.6-4.1-4.1-.3.2-.5.3-.8.5l4.1,4.1c.2-.3.4-.7.6-1,1.8-3.4-3.3-6.4-5.1-3-.1.2-.3.5-.4.7-1.2,2.1.8,5.2,3.4,4.4-2.2-.7-2.8-.5-1.9.6,3.2-2.1.2-7.3-3-5.1-5.7,3.8-.4,13.5,5.5,10.3,4.6-2.5,4.7-13.8-2.3-11.4,1.1,1.5,2.2,2.9,3.4,4.4.1-.2.3-.5.4-.7l-5.1-3c-.2.3-.4.7-.6,1-1.4,2.5,1.5,5.7,4.1,4.1.3-.2.5-.3.8-.5l-4.1-4.1c-1.3,2.2-2.4,5.1-.2,7a3.19,3.19,0,0,0,3.6.5,5.73,5.73,0,0,0,2.4-7.5,2.79,2.79,0,0,0-2.6-1.5c-3.7.3-9.9,4.9-7.4,9.2a3.24,3.24,0,0,0,3.4,1.4,8.94,8.94,0,0,0,5.3-6.2,3.09,3.09,0,0,0-1.4-3.4c-1.9-1.3-3.9-.6-5.2,1.1-2.1,2.6.5,6.3,3.6,4.7a7.22,7.22,0,0,0,3.6-3.7c1.2-2.6-1.3-5.6-4.1-4.1-2.3,1.3-2,3.8-1.6,6.1.5,3.1,4.9,2.5,5.7,0a3.42,3.42,0,0,0,0-2.8,3,3,0,0,0-5.7,0,7.74,7.74,0,0,0-.4,5.4,3.16,3.16,0,0,0,2.1,2.1,5.4,5.4,0,0,0,4.1-.6c-1.5-1.1-2.9-2.2-4.4-3.4-1.2,4.2-3.5,15.7,3.6,16.6,4.1.6,7.1-6.3,5.4-9.4a3,3,0,0,0-4.7-.6c-2.2,2.4-4.1,5.6-3.5,9.1.4,2.5,2.3,4.8,5,4.1,5.3-1.3,7.7-11.5,3-14.5a2.93,2.93,0,0,0-3,0c-2.7,1.7-3.6,4.4-3.2,7.5.3,2.3,3.2,4.3,5.1,2.1,2.6-2.9,5-11.9-1.7-11.6-5.3.3-6.7,9-3.9,12.3,1.1,1.3,3,.9,4.2,0,2.5-2,4.5-8.8,1.6-11.1a3.16,3.16,0,0,0-2.9-.8c-3.5,1.5-9.8,9.6-5.5,13,1,.7,2.5,1.3,3.6.5,2.9-2.2,6.3-10.6,1.2-12.4-4.1-1.5-8.9,4.6-8.6,8.2a3.08,3.08,0,0,0,3,3c5,.6,7.1-8.8,4.4-11.9a2.92,2.92,0,0,0-2.9-.8c-4,1.3-8.9,7.2-5,11a3.16,3.16,0,0,0,2.9.8c3.4-.9,6.1-6.5,4-9.6a3.36,3.36,0,0,0-2.6-1.5c-4.5.3-13.2,8-8.3,12.5,4.7,4.3,14.6-4,11.5-9.2-3.5-5.9-11,3.1-8.9,8.1,3.3,7.6,10.5-1.7,9.7-6.7a3.16,3.16,0,0,0-2.1-2.1c-6.1-2-13.5,9.8-9,14.6,5.1,5.5,13-6.4,8.5-10.3a3.19,3.19,0,0,0-3.6-.5c-4.1,2.2-8.2,9.9-5.2,14.2,3.7,5.4,7.6-1.1,7.6-5,0-2.5-3.3-4.1-5.1-2.1-2.3,2.6-8.3,10.5-3,13,4.5,2.1,8.5-4.6,6.4-8.3a3,3,0,0,0-4.1-1.1c-2.6,1.3-4.2,6.1-1.7,8.3,3.3,2.9,6.8-1.2,7.2-4.4,1.1-9.4-13.9-1.3-6.4,4.2a2.93,2.93,0,0,0,3,0c3.4-1.9,5.9-8.2,2.2-10.8a2.93,2.93,0,0,0-3,0,6.63,6.63,0,0,0-2.7,7,3.09,3.09,0,0,0,2.9,2.2c4.1,0,5.8-5.4,6.1-8.8.2-3.2-4-3.7-5.5-1.5-2.1,2.8-2.6,6.6-.2,9.3,1.2,1.3,3,.9,4.2,0,2.6-2,4.7-8.3,3.7-11.5a3.11,3.11,0,0,0-3.7-2.1c-4.5.8-4.1,9.3-2.4,12.1a3,3,0,0,0,2.6,1.5c5.8-.4,6.8-9.2,7.2-13.7.2-2.9-4.3-4.2-5.5-1.5a19.53,19.53,0,0,0-1.9,9.5c.1,2,2.5,4.1,4.5,2.6,3.6-2.7,3.5-7.7,6.6-10.7-1.2.2-2.4.3-3.6.5-1.6-1.1-1.5,4.4-1.6,5.3a24.59,24.59,0,0,1-3.1,6.8c-2,3.3,3,6.1,5.1,3a7,7,0,0,0,1.5-3.4,3,3,0,0,0-5.4-2.3c-.6.9-1.3,3.1-2.3,3.7-2.9,1.6-.9,6.5,2.3,5.4.1,0,.3-.1.4-.1a3,3,0,0,0,2.1-2.1.6.6,0,0,1,.1-.4c.4-2.4-2-4.8-4.4-3.4-4.7,2.9-10.2,2.7-15.4,3.6l3.7,3.7a39.29,39.29,0,0,0,3.4-15.5c0-2.6-.3-5.2-.4-7.8-.2-3.4-.1-1.7,1.2-4.4,1.7-3.2-3.5-6.2-5.1-2.8Z" transform="translate(-63.3 -27.52)"/><path class="cls-1" d="M80.7,94.6a14.14,14.14,0,0,1-1.3-2.4c-.3-1.3-.5-1.5-.7-.5-1,.3-1.9.5-2.9.8.3,0,.5.1.8.1,3.1.6,5.4-3.7,2.3-5.4-.5-.4-1-.7-1.5-1.1l-4.2,4.2c3.8,3.1,9,7.7,14.1,8.1a3.08,3.08,0,0,0,3-3v-.2a3.07,3.07,0,0,0-3-3h-.1a3,3,0,0,0-3,3c.1,1.9.2,3.9.2,5.8a20.9,20.9,0,0,1-.1,2.5c.8-1,.9-1.4.1-1.1-1,.3-1.9.5-2.9.8-.5-.1-.7.1-.7.6-.4,1.2-.3.7.1-1.5-.7.6-1.4,1.3-2.1,1.9a4.89,4.89,0,0,0,3.7-4.3c-1,.3-1.9.5-2.9.8-.2,1-.3,2-.4,3,.9-.5,1.7-1,2.6-1.5l-1.7-1.4c.3-1,.5-1.9.8-2.9,1.7.6,2.2.4,1.5-.7a6.64,6.64,0,0,1-.6-2c-.6-3.3-6.1-2.6-5.8.8.1,2.1.7,5.7-.4,7.6,1.1-.5,2.2-.9,3.4-1.4-.7-.1-.7-6.5-.7-7.1h-6a27.43,27.43,0,0,1-1,10.3c1.2-.7,2.4-1.4,3.7-2.1,1.4.5.5-3.5.5-4.1a38.84,38.84,0,0,1,.4-4.8h-6a24.2,24.2,0,0,1-1.4,7.1c1.5-.6,2.9-1.2,4.4-1.8,1.3.6-.5-1.6-.8-2.6a24.5,24.5,0,0,1-.8-3.9c-.5-3.5-5.6-2.4-5.8.8a18.43,18.43,0,0,1-1,5.2c1.8-.2,3.6-.5,5.4-.7-.8-1-1.1-9.7-.1-10.5-1.2.2-2.4.3-3.6.5,1.3.8,1.4,3.8,1.4,4.9l5.1-2.1a20,20,0,0,0-1.4,1.6c-.9-.5-1.7-1-2.6-1.5,2,3.4,1.3.3-.2,1.8-.5.6-1.3.8-1.8,1.5-1.7,2-2.4,5.7-3,8.2,1.9.3,3.9.5,5.8.8v-1.5c-1.9-.3-3.9-.5-5.8-.8-.4,8.5.9,16.3,6.7,22.9.4-1.7.9-3.3,1.3-5-.2,0-.4.1-.7.1,1,.3,1.9.5,2.9.8l-.5-.5c-1,1.7-1.9,3.3-2.9,5a18.51,18.51,0,0,1,3.7,1.9c.8-1.8,1.5-3.6,2.3-5.4h-.1v5.7c1.2.3,2.4.6,3.6,1,.3-1.9.5-3.9.8-5.8-1.4,0-5.9-.6-6.9-1.8-.4-.5-.2-2.8-.2-3.4-.1-.9-.1-1.7-.2-2.6,0-1.3-.2-1.2-.6.5-1,.3-1.9.5-2.9.8.4.9.6.8.8-.3.9-.5,1.7-1,2.6-1.5,2.1,0-.5-2.4.7-3.6-1,.3-1.9.5-2.9.8-.8-.9-.9-.7-.2.6a11.56,11.56,0,0,1,.8,3.2c1-.7,1.9-1.5,2.9-2.2-.6-1-1.3-2-1.9-3-1.2.2-2.4.3-3.6.5a6.19,6.19,0,0,1,1.8,3.7l2.1-2.1a2.92,2.92,0,0,1-.9.2c1,.3,1.9.5,2.9.8-1.6-1.2-3.3-4.6-2.2-6.7-.9.5-1.7,1-2.6,1.5-1.1,0,1.4,4.7,1.3,4.4a23,23,0,0,1,1.2,5.8l5.1-2.1a11.73,11.73,0,0,0-.5-1.1c-2.2-1.2-2.8-1.1-1.9.5-.1,1,.9,3.9.9,4.9l5.1-2.1a5.63,5.63,0,0,0-2.1-2.9c-1-.3-1.9-.5-2.9-.8,1,1.6,2.6,2.1,4.8,1.4-1,.3-1.9.5-2.9.8-.3,1.2.1,1.5,1.4,1,1.2.2,2.4.3,3.6.5-.2-1.3-.7-.5-1.6,2.4,1.5-.9,3-1.7,4.5-2.6q1.65.6,1.2-2.4H82.4a14,14,0,0,1,1.2,6c1.9-.3,3.9-.5,5.8-.8a15.61,15.61,0,0,1-.5-6.8h-6c.1,1.3.1,2.6.2,3.9,1.9-.3,3.9-.5,5.8-.8a18.4,18.4,0,0,1-.4-4.1c-.1-2.7-4.3-4.3-5.5-1.5-1,1.7-1.1,2.1-.4,1.2h3c.5-.4,1.1-.8,1.6-1.2-1.8-.2-3.6-.5-5.4-.7a17.89,17.89,0,0,1,1.1,5.1c.3,3.8,5.8,3.9,6,0a15.4,15.4,0,0,1,.6-4.3H83.8a10.75,10.75,0,0,1,.1,3.1h6c.1-1.7.2-3.3.4-5h-6a40.81,40.81,0,0,0,2.8,18c1-1.3,1.9-2.5,2.9-3.8-1.2,0-2.5,0-3.7-.1-1.9-.5-3.3.3-4.2,2.2-.3-1-.5-1.9-.8-2.9,0,.2-.1.3-.1.5l2.1-2.1c-.2,0-.3.1-.5.1,1.1.5,2.2.9,3.4,1.4v-.3c-.5.9-1,1.7-1.5,2.6.3-.2.6-.3.9-.5h-3c.1.3.2.5.3.8,1.7-1,3.3-1.9,5-2.9-3,1.5-3.8,2.8-2.1,3.7.5.4,1,.8,1.6,1.2,2.5,2,5.3-1.7,4.1-4.1-.9-1.7-2.2-2.3-3.5-3.7-2.4-2.6-2.8-6.2-3-9.6-.2-3.8-6.2-3.8-6,0,.2,3.3.5,6.7,2,9.7,1.3,2.7,4,4.1,5.3,6.6l4.1-4.1c-2.1-1.6-4.7-3.7-7.2-1.6-2.1,1.8-1.4,4.5.5,6a3,3,0,0,0,5-2.9c-1.2-7.5-11.4-4.5-7.6,2a3.18,3.18,0,0,0,3.4,1.4c.2,0,.3-.1.5-.1a3.16,3.16,0,0,0,2.1-2.1c0-.2.1-.3.1-.5a2.86,2.86,0,0,0-.8-2.9c-2.8-2.2-7.5-1.8-8.2,2.3-1.1,6.6,8.1,5.7,11.9,5.8,1.8,0,3.6-2,2.9-3.8a35.85,35.85,0,0,1-2.6-16.5c.3-3.9-5.5-3.7-6,0-.2,1.7-.3,3.3-.4,5-.1,3.8,5.8,3.8,6,0a24.75,24.75,0,0,0-.3-4.7c-.4-3-5-2.6-5.7,0a28.91,28.91,0,0,0-.8,5.9h6a30.55,30.55,0,0,0-1.3-6.7c-.8-2.3-4.2-3.1-5.4-.7-1.4,2.6-2.8,7,.1,9.1s4.8-.7,5.9-3.1L83,112.4a55.09,55.09,0,0,0,.6,5.7c.6,3.3,6,2.5,5.8-.8-.1-1.3-.1-2.6-.2-3.9-.2-3.9-5.5-3.7-6,0a19.89,19.89,0,0,0,.7,8.4,3,3,0,0,0,5.8-.8,20.06,20.06,0,0,0-2-9c-1-2.2-4.1-1.7-5.1,0-1.8,2.9-2.7,8.7,1,10.5,1.8.9,4.7-.2,4.5-2.6-.4-3.7-2.6-10.7-7.8-8.6-3.7,1.6-3.4,7.9-.8,10.4a3,3,0,0,0,3.6.5c3.8-2.5,1.3-12.3-3.6-12-6,.3-5.4,13,1,12.5s4.2-12-.4-13.7c-2.5-.9-4.6.8-5.2,3.1-.9,3.4.5,7.1,2.8,9.6,1.7,1.9,5.2.4,5.1-2.1-.1-3.7-1.5-13.3-7.3-11.7-5,1.3-3.9,8.7-1.4,11.6,1.6,1.8,5.3.5,5.1-2.1-.4-4.6-2.2-16.2-8.5-16.2a3.11,3.11,0,0,0-2.6,1.5c-2.4,4.6.1,16.3,7,14.4a3.16,3.16,0,0,0,2.1-2.1c.6-3.6-1.1-8.6-4.5-10.4a3,3,0,0,0-3.6.5c-4.1,4.3-.2,13.7,6.1,13.1a3.09,3.09,0,0,0,2.9-2.2c.9-3.5-.9-10-4.7-11.1a2.86,2.86,0,0,0-2.9.8c-3.3,3.5-2.8,13.9,3.5,13.8a3.11,3.11,0,0,0,2.6-1.5c1.7-3.2-1-7.4-4.3-8.4a2.86,2.86,0,0,0-2.9.8c-2.3,2.5-1.4,9.4-.1,12.2,1.8,3.9,8.5,5.2,12.3,5.2a3,3,0,0,0,.8-5.8c-1.9-.6-4.8-1.7-6.8-1a3,3,0,0,0,0,5.7h.1c3.3,1.1,5.1-3.7,2.3-5.4a34.37,34.37,0,0,0-5.1-2.5c-3-1.1-4.7,3-2.9,5,1.2,1.3,2.3,1.4,4,1.2,2.4-.4,2.6-3.5,1.3-5-4.7-5.3-5.3-11.9-4.9-18.7.2-3.3-5.2-4.1-5.8-.8a6.54,6.54,0,0,0-.2,3.1c.3,3.2,4.9,4.2,5.8.8.3-1.1.7-2.2,1-3.4,0-.2.4-2.4.3-2.3.4-.6,2.1-.8,2.8-1.6,1.8-2.3,1.8-6.3.4-8.8a3,3,0,0,0-2.6-1.5c-5,.1-5.4,5.4-2.8,8.6,1.7,2.1,5.1.3,5.1-2.1,0-3.6-1-8.1-4.4-10.1a3,3,0,0,0-3.6.5c-2.4,1.9-2.2,5.7-2.1,8.4s-.4,6.9,1.3,9.3c1.5,2,4.6,1.9,5.4-.7a27,27,0,0,0,1.2-6.8c-1.9.3-3.9.5-5.8.8.4,2.9,1.1,8.6,4.3,10a3.07,3.07,0,0,0,4.4-1.8,37,37,0,0,0,1.6-8.7c.2-3.9-5.6-3.7-6,0-.4,4.3-1.7,12.7,3.5,14.7a3,3,0,0,0,3.7-2.1,34.25,34.25,0,0,0,1.2-11.9,3,3,0,0,0-6,0c-.2,3.6.3,12.1,5.1,12.8a3.09,3.09,0,0,0,3.4-1.4c1.7-3,1.5-7.3,1.2-10.6-1.9.3-3.9.5-5.8.8.6,3.1,2.6,7.9,6.7,6.9a3.84,3.84,0,0,0,1.4-6.9c-6.7-4.8-10.3,10.9-2.4,11.4a2.9,2.9,0,0,0,2.6-1.5c1.8-2.9,1.6-9.2-1.6-11.2-3.8-2.3-6.4,2.1-6.8,5.3-.4,3,.9,8.9,5,8.7s4.3-5.9,3.2-8.8c-1.2-3.3-4.9-5.9-7.7-2.6-2.5,2.9-2.5,8.8.2,11.6C85,116.9,93,100.1,84,97.2a2.86,2.86,0,0,0-2.9.8c-3.3,3.7-.3,11,4.5,12,7.4,1.5,5.7-11,5.4-14.9l-3,3h.1l-3-3v.2l3-3c-1.2-.1-3.9-2-5-2.7a44.91,44.91,0,0,1-4.9-3.7c-2.9-2.4-6.9,1.4-4.2,4.2a7.62,7.62,0,0,0,2.7,2c.8-1.8,1.5-3.6,2.3-5.4-7.5-1.4-4.9,7.2-2.7,10.8,1.2,3.3,6.4.3,4.4-2.9Z" transform="translate(-63.3 -27.52)"/><path class="cls-2" d="M129.5,125.2c-6.1,3.4-13.2,4.4-20.2,4a.6.6,0,1,0,0,1.2c7.2.4,14.4-.6,20.8-4.1.7-.4.1-1.5-.6-1.1Z" transform="translate(-63.3 -27.52)"/><path class="cls-2" d="M69.7,125.1c6.3,3.6,13.6,4.7,20.8,4.2a.6.6,0,1,0,0-1.2c-7,.4-14-.6-20.2-4.1-.6-.3-1.2.7-.6,1.1Z" transform="translate(-63.3 -27.52)"/><path class="cls-2" d="M70.4,124.2c-7.8-8.9-6.1-23.3-5.8-34.3a326.38,326.38,0,0,1,3.5-38.3c.1-.7-1-1.1-1.1-.3a302,302,0,0,0-3.6,42.4c-.1,10.4-1.1,22.9,6.2,31.3.5.6,1.3-.3.8-.8Z" transform="translate(-63.3 -27.52)"/><path class="cls-2" d="M68,52.9a29.23,29.23,0,0,1,32.2-24c.8.1.8-1.1,0-1.2A30.32,30.32,0,0,0,66.9,52.6c-.2.8,1,1.1,1.1.3Z" transform="translate(-63.3 -27.52)"/><path class="cls-2" d="M81,94.7c-4.5-7.3-5.6-18.3-5.8-26.8a46.31,46.31,0,0,1,7.9-26.5c.4-.6-.6-1.2-1-.6A46.66,46.66,0,0,0,74,67.9c.2,8.8,1.3,19.8,5.9,27.4a.63.63,0,0,0,1.1-.6Z" transform="translate(-63.3 -27.52)"/><path class="cls-2" d="M80.6,45.9c1.1,1.1,2.6.8,3.9.3.7-.3.4-1.4-.3-1.1-.9.3-2,.8-2.8,0-.5-.6-1.4.3-.8.8Z" transform="translate(-63.3 -27.52)"/><path class="cls-2" d="M84.6,46.6a5.61,5.61,0,0,0,4.4-.3c.7-.3.1-1.4-.6-1a4.27,4.27,0,0,1-3.5.2c-.7-.3-1,.8-.3,1.1Z" transform="translate(-63.3 -27.52)"/><path class="cls-2" d="M89.2,46.7c.8-.1,1.6.2,2.4.1a4.69,4.69,0,0,1,2.6-.3c.7.2,1.1-1,.3-1.1a5.23,5.23,0,0,0-2.5.2,4.88,4.88,0,0,1-1.7.1,3.3,3.3,0,0,0-1.4,0c-.7,0-.4,1.1.3,1Z" transform="translate(-63.3 -27.52)"/><path class="cls-2" d="M94.1,46.1c1.4,1.8,3.4-.3,5-.1.8.1.8-1.1,0-1.2a4.92,4.92,0,0,0-2.1.4c-.7.3-1.6.7-2.1,0-.4-.5-1.3.3-.8.9Z" transform="translate(-63.3 -27.52)"/><path class="cls-2" d="M98.7,45.9c1.6.7,3.5,1.4,5.1.2.6-.4,0-1.5-.6-1-1.2.9-2.7.3-3.9-.2-.7-.3-1.3.7-.6,1Z" transform="translate(-63.3 -27.52)"/><path class="cls-2" d="M103.3,45.7a2.33,2.33,0,0,0,2,1c1.1-.1,2.4-1.3,3.5-.7a.58.58,0,1,0,.6-1,2.59,2.59,0,0,0-2.1-.2c-.8.2-2.3,1.3-2.9.3-.5-.6-1.5,0-1.1.6Z" transform="translate(-63.3 -27.52)"/><path class="cls-2" d="M109.3,46.2a2.83,2.83,0,0,0,4-1.6c.3-.7-.9-1-1.1-.3a1.61,1.61,0,0,1-2.3.8c-.6-.2-1.2.8-.6,1.1Z" transform="translate(-63.3 -27.52)"/><path class="cls-2" d="M132.6,52.6A30.19,30.19,0,0,0,99.2,27.8c-.8.1-.8,1.3,0,1.2a29.1,29.1,0,0,1,32.2,24c.2.7,1.3.4,1.2-.4Z" transform="translate(-63.3 -27.52)"/><path class="cls-2" d="M130,126.3c7.3-8.4,6.4-20.8,6.2-31.3a316.35,316.35,0,0,0-3.6-42.4c-.1-.8-1.3-.4-1.1.3A288.46,288.46,0,0,1,135,91.2c.3,11,1.9,25.4-5.8,34.3-.5.6.3,1.4.8.8Z" transform="translate(-63.3 -27.52)"/><path class="cls-2" d="M121.5,95.2c4.7-7.6,5.7-18.6,5.9-27.4a46.88,46.88,0,0,0-8.1-27.1c-.4-.6-1.5,0-1,.6a44.65,44.65,0,0,1,7.9,26.5c-.2,8.5-1.2,19.4-5.8,26.8-.4.6.6,1.2,1.1.6Z" transform="translate(-63.3 -27.52)"/><path class="cls-2" d="M112.9,45.9a.6.6,0,1,0,0-1.2.6.6,0,1,0,0,1.2Z" transform="translate(-63.3 -27.52)"/><path class="cls-2" d="M112.5,45.5c1.2,1.4,3.7.7,5.2.6a.6.6,0,1,0,0-1.2c-.8.1-1.7.1-2.5.2s-1.4.1-1.9-.4-1.3.2-.8.8Z" transform="translate(-63.3 -27.52)"/><path class="cls-2" d="M117.4,44.4a1.61,1.61,0,0,0,.9,1.8c.9.4,1.9-.1,2.7.3s1.3-.7.6-1a3.65,3.65,0,0,0-1.5-.3c-.3,0-1.8.2-1.6-.4a.59.59,0,1,0-1.1-.4Z" transform="translate(-63.3 -27.52)"/><path class="cls-2" d="M75.8,84.7c2.3,1.8,4.4,3.8,6.8,5.5,2.2,1.6,5,2.4,7.5,3.4.7.3,1-.9.3-1.1-2.4-1-5.1-1.8-7.2-3.3-2.3-1.6-4.4-3.6-6.6-5.3-.6-.5-1.4.3-.8.8Z" transform="translate(-63.3 -27.52)"/><path class="cls-2" d="M89.6,93.4c.2,3.7.2,7.5.1,11.2a.6.6,0,1,0,1.2,0c.1-3.8.1-7.5-.1-11.2a.6.6,0,1,0-1.2,0Z" transform="translate(-63.3 -27.52)"/><path class="cls-2" d="M111,103.7c-.2-.7.3-1.6.5-2.3a8.6,8.6,0,0,0,.1-1.6,37.43,37.43,0,0,1,0-5.8c.1-.7-1-1.1-1.1-.3a41.4,41.4,0,0,0,0,6.1,8.57,8.57,0,0,1-.5,2.7,2.21,2.21,0,0,0,0,1.6c.1.7,1.2.4,1-.4Z" transform="translate(-63.3 -27.52)"/><path class="cls-2" d="M124.6,83.1c-1.1,2.7-4.3,4.4-6.7,5.9a54.48,54.48,0,0,1-7.6,3.9c-.7.3-.4,1.4.3,1.1a49.45,49.45,0,0,0,9.6-5.2c2.1-1.5,4.5-3,5.5-5.5.3-.6-.8-.9-1.1-.2Z" transform="translate(-63.3 -27.52)"/><path class="cls-2" d="M109.7,129.3c-2.7-.4-.5-5-.1-6.8a53,53,0,0,0,1-5.5,62.81,62.81,0,0,0,.3-13,.6.6,0,1,0-1.2,0,64.72,64.72,0,0,1-.6,14.6c-.6,3.7-2.1,7.3-2.3,11.1a.58.58,0,0,0,.6.6l2.2.3a.65.65,0,0,0,.1-1.3Z" transform="translate(-63.3 -27.52)"/><path class="cls-2" d="M91.1,129.5l2.2-.3a.58.58,0,0,0,.6-.6c-.2-3.8-1.7-7.4-2.3-11.1a65,65,0,0,1-.6-14.6c.1-.8-1.1-.8-1.2,0a62.65,62.65,0,0,0,.3,13c.3,1.9.6,3.7,1,5.5s2.7,6.5-.1,6.8c-.7.2-.7,1.4.1,1.3Z" transform="translate(-63.3 -27.52)"/><path class="cls-1" d="M79.1,43.5c3.8,0,3.8-6,0-6s-3.8,6,0,6Z" transform="translate(-63.3 -27.52)"/><path class="cls-1" d="M89,36a16.18,16.18,0,0,0,1,1.8,1.6,1.6,0,0,1-.9,1.6c.2-.1-1,.5-.9.2l.5.1c1.4.3-1.7-2-.9-3,.7-.8-.3.3-.4.1s.7-.1.2-.1h.1c.2,0,.3.1.5.2a1,1,0,0,1,.4.5,1.23,1.23,0,0,1,.2,1v.1h0a1.06,1.06,0,0,1-.6.7,1.27,1.27,0,0,1-.6.1c.5,0,0,0-.2-.1-.6-.3-.6-.9-.1-1.8-.5-1.1-.4-1.7.4-1.9-.1.1-.3.1,0,0h-.2a1.78,1.78,0,0,1,1.2.9c.1.5.3,1,.4,1.5v-.2c-.1.5-.3,1-.4,1.5a1.21,1.21,0,0,1-.5.5c.1-.1.3-.2.4-.3-.5.3.3,0,.5-.1,1.5-.2,2.5-2.3,2.1-3.7-.5-1.7-2-2.3-3.7-2.1-1.9.3-4.1,1.7-4.4,3.7-.4,2.7,2.2,4.2,4.7,4.1,2.3-.2,4.7-1.6,4.5-4.2a4.52,4.52,0,0,0-4.8-3.9,4.92,4.92,0,0,0-4.6,3.7A4.5,4.5,0,0,0,86,42.2a6,6,0,0,0,5.2-1,5.12,5.12,0,0,0,2-2.6,4.14,4.14,0,0,0-.9-3.7,5.44,5.44,0,0,0-6.7-.6,3.93,3.93,0,0,0,.3,6.6A3.06,3.06,0,0,0,90,39.8,2.66,2.66,0,0,0,89,36Z" transform="translate(-63.3 -27.52)"/><path class="cls-3" d="M89.2,123a38.32,38.32,0,0,1-3.1-12.4c-.3-3.3-1.1-8.6.4-11.6.3-.7-.7-1.3-1-.6-1.8,3.5-.9,8.4-.6,12.2a38.92,38.92,0,0,0,3.3,13c.3.7,1.4.1,1-.6Z" transform="translate(-63.3 -27.52)"/><path class="cls-3" d="M75.6,122c-3.8-4-6.9-8.8-8-14.3s-.2-11.1.2-16.5c.1-.8-1.1-.8-1.2,0-.4,6.1-1.4,12.4.2,18.4a32.32,32.32,0,0,0,7.9,13.3c.6.5,1.4-.4.9-.9Z" transform="translate(-63.3 -27.52)"/><path class="cls-3" d="M79.1,100.1c-4.5-6.6-6-14.3-7.3-22.1-.1-.8-1.3-.4-1.1.3,1.4,7.9,2.9,15.7,7.4,22.4.4.6,1.5,0,1-.6Z" transform="translate(-63.3 -27.52)"/><path class="cls-3" d="M70.7,56.2c-.8-1.6,1.5-5.3,2.2-6.7A54.83,54.83,0,0,1,76,44.3c.4-.6-.6-1.2-1-.6a37.62,37.62,0,0,0-4.2,7.6c-.7,1.6-2,3.8-1.1,5.5.3.7,1.3.1,1-.6Z" transform="translate(-63.3 -27.52)"/><path class="cls-3" d="M112.8,127a60.11,60.11,0,0,0,2-25.3c-.1-.7-1.3-.8-1.2,0a60.31,60.31,0,0,1-1.9,25c-.3.7.9,1,1.1.3Z" transform="translate(-63.3 -27.52)"/><path class="cls-3" d="M124.8,124.6c6.1-6.6,6.5-18.7,7.6-27.1.1-.8-1.1-.8-1.2,0-1,7.9-1.6,20.1-7.2,26.3-.6.5.3,1.4.8.8Z" transform="translate(-63.3 -27.52)"/><path class="cls-3" d="M123.3,97.7a43.75,43.75,0,0,0,6.6-12.9.57.57,0,0,0-1.1-.3,39.74,39.74,0,0,1-6.5,12.6c-.5.6.5,1.2,1,.6Z" transform="translate(-63.3 -27.52)"/><path class="cls-3" d="M121.3,39.1a23,23,0,0,1,6.2,11.2.57.57,0,0,0,1.1-.3,23.81,23.81,0,0,0-6.5-11.8c-.5-.5-1.4.4-.8.9Z" transform="translate(-63.3 -27.52)"/><path class="cls-3" d="M87.2,34.6a17.1,17.1,0,0,1,3-.9c.8-.1.4-1.3-.3-1.1a17.1,17.1,0,0,0-3,.9c-.7.3-.4,1.4.3,1.1Z" transform="translate(-63.3 -27.52)"/><path class="cls-3" d="M103.5,32a6.42,6.42,0,0,1,5.7,2.2c.5.6,1.3-.3.8-.8a7.5,7.5,0,0,0-6.6-2.6c-.6.1-.6,1.3.1,1.2Z" transform="translate(-63.3 -27.52)"/></svg>