<?xml version="1.0" encoding="utf-8"?>
<!-- Generator: Adobe Illustrator 21.0.2, SVG Export Plug-In . SVG Version: 6.00 Build 0)  -->
<svg version="1.1" id="Layer_1" xmlns="http://www.w3.org/2000/svg" xmlns:xlink="http://www.w3.org/1999/xlink" x="0px" y="0px"
	 viewBox="0 0 200 600" style="enable-background:new 0 0 200 600;" xml:space="preserve">
<style type="text/css">
	.st0{fill:#231F20;}
</style>
<g>
	<g>
		<g>
			<g>
				<g>
					<path class="st0" d="M68.7,145.2c-0.5,0.6-0.9,1.3-1.4,1.9c-0.5-0.9-1-1.7-1.5-2.6c1.4-1.1,1.8-2.3,1.1-3.6
						c-0.3-0.7-0.5-1.5-0.6-2.2c-0.3,1-0.5,1.9-0.8,2.9c-0.4,0.2-0.8,0.3-1.2,0.5c-0.9-1.5-1.7-3-2.6-4.5c0.8-0.2,1.5-0.4,2.3-0.6
						c0.2-2.7-3.3-3.8-5.1-2.1c-0.2,0.2-0.5,0.3-0.7,0.5c1.4,0.4,2.7,0.7,4.1,1.1c-0.2-0.3-0.3-0.5-0.5-0.8c-0.6-1.7-2-2.4-3.7-2.1
						c-0.2,0-0.4,0.1-0.6,0.1c1,0.3,1.9,0.5,2.9,0.8c-0.6-0.5,0.4-7,0.6-8c0.4-3.2,1.1-6.5,2.8-9.3c1.4-2.4,3.6-4.7,6.3-5.6
						c2.6-0.9,5.2-0.1,7.9-0.4c-0.9-0.5-1.7-1-2.6-1.5c2.8,6.6,3.8,13.1,0.1,19.5c-1.3,2.4-3,4.9-4.9,6.9c-1.1,1.1-2,2.8-3.6,1.7
						c-1.5-1.1-0.8-3-0.4-4.7c0.3-1.4,1-2.6,1.4-3.9c0.5-1.4,1.1-4.5,0.3,0.6c-0.4,2.8-2.1,5.4-3.8,7.6c-0.6,0.8-1.2,1.6-2,2.2
						c0.6-0.4,1.2-0.8,1.8-1.2c0.5-0.7,0.7-3,1-3.9c0.1-0.4,3.1-7.8,3.2-7.8c-1-0.7-1.9-1.5-2.9-2.2c0.4,1.6-1.8,3.7-1.6,5
						c-0.7,0.8-0.4,1,0.8,0.7c1.6,0.4,2.1-0.4,1.5-2.4c0.1-0.5,0.3-1.1,0.4-1.6c-0.8-0.9-1.6-1.8-2.3-2.6c-0.6,0.2-2.1,4.2-3.2,4.7
						c1.2,0.2,2.4,0.3,3.6,0.5c-1.7-1.3,3.8-8.2,4.5-8.9c-1.7-0.7-3.4-1.4-5.1-2.1c-0.1,3.1-0.9,5.4-2.6,7.9c1.9,0.5,3.7,1,5.6,1.5
						c-0.2-2.8,0.3-4.9,1.4-7.5c-0.9,2-0.8,2,0.1-0.1c0.8-2.2,1.3-2.4,1.6-0.7c0.4,1.7,0.6,1.4,0.7-1c1.6-2.1,1-2.7-1.8-1.9
						c0.2,1.3,0.3,2.7,0.2,4c-0.1,1.4-0.3,2.7-0.8,4c1.7-0.4,3.3-0.9,5-1.3c-1.5-1.2,0.6-6.1,1-6.3c-1,0-2,0-3,0
						c1,0.5,1.4,7,0.6,7.6c1-0.3,1.9-0.5,2.9-0.8c-0.4-0.1-0.2-4.6-0.2-4.6c0.3-1.7,1.2-3.1,2.2-4.4c-1.8-0.2-3.7-0.5-5.5-0.7
						c1.7,7.5-0.2,15-2.5,22.2c-1.2,3.6-2.8,6.9-6.1,8.8c-0.7,0.3-1.4,0.6-2,0.9c1.2,1.3,1.7,1,1.4-0.7c0.5-1.2,0.2-3.3,0.1-4.5
						c0-3.5-4.8-4-5.9-0.8c-0.4,1.3-0.8,2.5-1.3,3.8c2,0.3,3.9,0.5,5.9,0.8c-0.3-2.2-0.4-4.3-0.3-6.5c0.1-3.5-4.9-3.9-5.9-0.8
						c-0.4,1.3-0.7,2.4-0.9,3.7c2,0.3,3.9,0.5,5.9,0.8c0-0.4,0-0.8-0.1-1.2c0.7-3.8-5.1-5.4-5.8-1.6c-0.1,0.5-0.2,1.1-0.3,1.6
						c2,0.3,3.9,0.5,5.9,0.8c-0.1-1.1-0.1-2.2,0.1-3.3c-2,0.3-3.9,0.5-5.9,0.8c0.4,2.7-1,5.8-1.5,8.4c-0.5,2.7-0.8,5.4-1.2,8
						c-0.8,5.9-1.6,11.9-2.4,17.8c-0.5,3.7,4.5,5.4,5.8,1.6c2.4-7.1,4.7-14.3,7.1-21.4c-2-0.3-3.9-0.5-5.9-0.8
						c-0.9,7.2-2.3,14.3-4,21.4c1.9,0.5,3.9,1.1,5.8,1.6c1.4-9.7,4-19,8.1-27.8c-1.9-0.5-3.7-1-5.6-1.5c-0.2,9.7-3.9,19.9-6.2,29.2
						c2,0.3,3.9,0.5,5.9,0.8c0.7-8.8,3-17.1,6.9-25c-1.8-0.8-3.7-1.5-5.5-2.3c-2.2,9.6-4.3,19.2-6.5,28.9c1.9,0.5,3.9,1.1,5.8,1.6
						c1.2-7.4,3.3-14.5,6.6-21.3c-1.9-0.5-3.7-1-5.6-1.5c-0.9,7.4-2.5,14.7-4.1,21.9c1.9,0.5,3.9,1.1,5.8,1.6
						c1-5.8,2.5-11.4,4.9-16.8c-1.8-0.8-3.7-1.5-5.5-2.3c-0.8,5.7-2,11.3-3.6,16.8c2,0.3,3.9,0.5,5.9,0.8c0.3-3.5,1.1-6.7,2.2-10
						c-2-0.3-3.9-0.5-5.9-0.8c-0.2,5.6-2.6,10.7-2.3,16.3c0.1,3.3,5,4.2,5.9,0.8c3.5-12.9,7.4-25.7,11.6-38.3
						c-1.9-0.5-3.9-1.1-5.8-1.6c-0.9,4.5-2.8,7.9-6.1,11.1c1.7,0.7,3.4,1.4,5.1,2.1c-0.1-4.7,1.2-8.5,4-12.4
						c-1.6,0.2-3.1,0.4-4.7,0.6c0.6,0.6-0.3,6.1-0.1,7.3c0.2,1.6,0.7,3.1,1,4.7c0.2,1.1,0.4,2.3,0.5,3.4c-0.5,2.1,0.6,2.8,3.1,2.1
						c-1.1,1.5-2.3,2.9-3.4,4.4c1.7,0.6,2.4,1.8,2.2,3.6c1.9-0.5,3.7-1,5.6-1.5c-0.8-0.7-1.2-1.6-1.2-2.7c-1.9,0.5-3.9,1.1-5.8,1.6
						c1,4.6,1.9,9.2,2.7,13.9c1.8-0.8,3.7-1.5,5.5-2.3c-1.4-2.9-1.8-5.6-1.1-8.7c-1.9,0-3.9,0-5.8,0c1.3,3.1,2.2,6.2,2.9,9.5
						c0.7,3.3,5.9,2.5,5.9-0.8c0-2.6,0-5.2,0-7.7c-2,0.3-3.9,0.5-5.9,0.8c0.3,1.8,0.5,3.4,0.5,5.3c2,0,4,0,6,0
						c-0.3-2.8-0.3-5.5-0.1-8.2c-2,0.3-3.9,0.5-5.9,0.8c0.3,1.3,0.3,2.6,0.2,4c2,0,4,0,6,0c-0.2-2.1-0.3-4.1-0.2-6.1
						c-2,0.3-3.9,0.5-5.9,0.8c0.3,1.9,0.4,3.5,0.4,5.4c2,0,4,0,6,0c-0.1-3.5-0.1-6.9,0.1-10.4c-2,0-4,0-6,0c0,2,0,4,0.1,6
						c0,3.9,5.8,3.8,6,0c0.2-4.3,0.5-8.7,0.7-13c0.2-3.8-0.4-7.6-0.1-11.4c0.7-8.1,2.4-15.3,0.6-23.5c-1.9,0.5-3.9,1.1-5.8,1.6
						c2.1,5.2,0.5,10-1.3,15c-1.3,3.6,4.5,5.2,5.8,1.6c2.1-6,3.8-12.1,1.3-18.2c-1.4-3.5-6.6-2.3-5.8,1.6c1.8,8.2-0.9,15.6-0.9,23.7
						c0,7.6,0,15-0.4,22.6c2,0,4,0,6,0c0-2,0-4-0.1-6c0-3.9-5.8-3.8-6,0c-0.2,3.5-0.2,6.9-0.1,10.4c0.1,3.9,5.9,3.9,6,0
						c0-2.4-0.2-4.7-0.6-7c-0.6-3.5-5.7-2.4-5.9,0.8c-0.1,2.1,0,4.1,0.2,6.1c0.4,3.8,5.7,3.9,6,0c0.1-1.9,0-3.7-0.4-5.6
						c-0.6-3.5-5.6-2.3-5.9,0.8c-0.2,2.8-0.2,5.5,0.1,8.2c0.4,3.8,6,4,6,0c0-2.3-0.2-4.6-0.7-6.9c-0.6-3.4-5.9-2.5-5.9,0.8
						c0,2.6,0,5.2,0,7.7c2-0.3,3.9-0.5,5.9-0.8c-0.7-3.3-1.7-6.4-2.9-9.5c-1-2.5-5.1-3.2-5.8,0c-1,4.8-0.5,9,1.7,13.3
						c1.6,3.3,6,0.8,5.5-2.3c-0.8-4.7-1.6-9.3-2.7-13.9c-0.8-3.8-6.4-2.1-5.8,1.6c0.3,1.6,0.8,2.8,1.8,4.1c1.5,2,6,1.8,5.6-1.5
						c-0.5-4.4-1.8-8.5-6.6-9.4c-2.5-0.4-4.8,2-3.4,4.4c1.2,1.9,3.1,2.8,5.3,1.9c2.6-1.1,2.9-3.7,2.8-6.2c-0.1-4-1.9-8.1-1.8-12
						c0.1-3.5,1.3-5.6-1.3-8.4c-1.4-1.5-3.6-0.9-4.7,0.6c-3.3,4.6-4.8,9.8-4.8,15.4c0,2.6,3.2,3.9,5.1,2.1c3.9-3.8,6.5-8.3,7.6-13.7
						c0.8-3.8-4.6-5.3-5.8-1.6c-4.2,12.7-8.1,25.4-11.6,38.3c2,0.3,3.9,0.5,5.9,0.8c-0.2-5.6,2.1-10.8,2.3-16.3
						c0.1-3.5-4.8-3.9-5.9-0.8c-1.3,3.8-2,7.6-2.4,11.6c-0.3,3.4,5,4,5.9,0.8c1.5-5.5,2.7-11.1,3.6-16.8c0.4-3-4-5.7-5.5-2.3
						c-2.5,5.9-4.4,11.9-5.5,18.2c-0.6,3.7,4.9,5.4,5.8,1.6c1.8-7.8,3.4-15.6,4.4-23.5c0.3-2.9-4.4-4.1-5.6-1.5
						c-3.5,7.3-5.9,14.8-7.2,22.8c-0.6,3.7,4.9,5.4,5.8,1.6c2.2-9.6,4.3-19.2,6.5-28.9c0.7-3.2-3.9-5.5-5.5-2.3
						c-4.4,8.8-7,18.1-7.7,28c-0.3,3.4,5.1,4.1,5.9,0.8c2.4-9.9,6.2-20.5,6.4-30.8c0.1-2.8-4.3-4.3-5.6-1.5
						c-4.3,9.3-7.3,19-8.8,29.2c-0.5,3.7,4.9,5.5,5.8,1.6c1.7-7.6,3.2-15.2,4.2-22.9c0.4-3.5-4.9-3.8-5.9-0.8
						c-2.4,7.1-4.7,14.3-7.1,21.4c1.9,0.5,3.9,1.1,5.8,1.6c1-7.3,2-14.5,3-21.8c0.7-5.2,2.9-10.5,2.1-15.7c-0.6-3.6-5.6-2.3-5.9,0.8
						c-0.2,1.1-0.2,2.2-0.1,3.3c0.1,3.2,5.2,4.3,5.9,0.8c0.1-0.5,0.2-1.1,0.3-1.6c-1.9-0.5-3.9-1.1-5.8-1.6
						c-0.2,1.1-0.3,1.7-0.2,2.8c0.4,3,5.4,4.5,5.9,0.8c0.2-1.3,0.4-2.5,0.9-3.7c-2-0.3-3.9-0.5-5.9-0.8c-0.1,2.2,0,4.3,0.3,6.5
						c0.4,3.3,4.8,4.2,5.9,0.8c0.4-1.3,0.8-2.5,1.3-3.8c-2-0.3-3.9-0.5-5.9-0.8c0,3.6-1.9,9.3,2.5,11c4.1,1.5,9.2-2.5,11.6-5.4
						c3.6-4.2,5-10.1,6.3-15.4c1.5-6.2,2-12.3,0.6-18.5c-0.6-2.8-4.1-2.6-5.5-0.7c-3,4-5.3,12.8-0.7,16.8c5.8,5.1,7.5-4.8,7.2-8.3
						c-0.3-3.2-2.9-12.4-8-7.7c-3.5,3.2-5,11.7-1,15c1.7,1.4,4.4,1,5-1.3c1-3.7,2.8-14.4-2.7-15.8c-5.1-1.2-7.5,7.6-7.1,11.1
						c0.7,5.7,6.6,6,9.5,1.6c2.6-4,3-10.9-3.5-10.5c-5.3,0.3-9.2,5.9-8.7,11c0.5,5.2,6.3,6.3,9.3,2.3c2.5-3.3,2.5-12.3-3.4-12.2
						c-5.7,0.1-6.9,10.1-6.7,14.1c0.2,3,3.9,4,5.6,1.5c2.3-3.4,3.3-6.9,3.5-10.9c0.1-2.6-3.3-3.9-5.1-2.1
						c-3.4,3.3-9.8,13.3-4.5,17.4c1.1,0.9,2.4,1.2,3.6,0.5c3.5-1.9,7.9-8.6,5.7-12.7c-0.9-1.7-3.1-2.9-5.1-2.2
						c-2.6,0.9-3.6,4.5-4.2,6.9c-0.8,3.3-1.7,12.7,4.6,11c4.5-1.2,6.9-9.5,6.1-13.4c-0.3-1.4-1.6-2.1-2.9-2.2
						c-5.6-0.5-8.6,10.4-9.7,14.5c-0.9,3.7-1.6,11.1,4.5,10.4c5.8-0.7,10.3-10.7,10.8-15.7c0.4-4.1-1.9-11.6-7.4-8.7
						c-8.4,4.3-10.6,29.8,3.3,22.6c5.5-2.8,10-9.8,12.3-15.4c2.9-7.3,1-14.9-2-21.8c-0.4-0.9-1.7-1.6-2.6-1.5
						c-4.6,0.5-8.5-0.5-12.8,2.1c-3.9,2.3-6.6,6.1-8.3,10.3c-1.7,4.4-6.4,23.2,2.8,21.8c-1.2-0.7-2.5-1.4-3.7-2.1
						c0.3,0.9,0.6,1.5,1.1,2.2c0.9,1.4,2.6,1.9,4.1,1.1c0.8-0.4,1.3-0.8,1.9-1.4c-1.7-0.7-3.4-1.4-5.1-2.1c-0.3,5.3,5.9,9.1,8.9,3.7
						c1.1-2-0.3-4.5-2.6-4.5c-10.3,0.1,2.3,20.5,7.1,10.7c1.9-3.8-2.5-7-6-5.4c-4,1.9-3.3,6.9,0.1,8.9
						C69,152.3,72.1,147.2,68.7,145.2L68.7,145.2z"/>
				</g>
			</g>
			<g>
				<g>
					<path class="st0" d="M75.3,147.6c3.9,0,3.9-6,0-6S71.4,147.6,75.3,147.6L75.3,147.6z"/>
				</g>
			</g>
			<g>
				<g>
					<path class="st0" d="M70.1,141c0.6,1.6,1.2,3.2,1.8,4.8c1.3,3.7,6.4,2.2,5.8-1.6c-0.5-3-0.7-5.9-0.9-8.9
						c-1.7,0.7-3.4,1.4-5.1,2.1c1.1,1,0.8,5.8,0.9,7.2c0.2,2.5,0.5,4.9,0.7,7.4c2,0,4,0,6,0c-0.3-2.7-0.5-5.2-0.2-7.8c-2,0-4,0-6,0
						c-0.5,5.3-0.2,10.5,0.7,15.7c1.7-1,3.3-1.9,5-2.9c-3.7-3.5-6-7.9-8.6-12.2c-2.5-4.3-5.2-8.5-7.3-13c-1.1,1.5-2.3,2.9-3.4,4.4
						c3.8,0.7,6.4,4.1,8.3,7.2c1.1,1.8,4.4,7.2,4.1,9.3c1.5-0.6,2.9-1.2,4.4-1.8c-0.1,0-0.1-0.1-0.2-0.1c0.4,1.4,0.7,2.7,1.1,4.1
						c0-0.1,0.1-0.1,0.1-0.2c2.1-3.3-3.1-6.3-5.2-3c0,0.1-0.1,0.1-0.1,0.2c-0.9,1.4-0.3,3.3,1.1,4.1c0.1,0,0.1,0.1,0.2,0.1
						c1.5,1,4.1,0.1,4.4-1.8c0.7-4.6-2.7-10.8-5.1-14.6c-2.6-4.1-6.5-8.4-11.5-9.3c-2.7-0.5-4.5,2-3.4,4.4c2.4,5.1,5.5,9.8,8.3,14.6
						c2.5,4.3,5,8.4,8.5,11.8c2.3,2.2,5.5-0.1,5-2.9c-0.8-4.7-0.9-9.3-0.5-14.1c0.4-3.9-5.5-3.8-6,0c-0.3,2.7-0.1,5.2,0.2,7.8
						c0.5,3.8,6.4,3.9,6,0c-0.4-4-0.8-8-1.2-11.9c-0.3-2.7-0.2-4.9-2.2-6.8c-1.8-1.6-5.3-0.6-5.1,2.1c0.2,3.5,0.5,7,1.1,10.5
						c1.9-0.5,3.9-1.1,5.8-1.6c-0.6-1.6-1.2-3.2-1.8-4.8C74.5,135.8,68.7,137.4,70.1,141L70.1,141z"/>
				</g>
			</g>
			<g>
				<g>
					<path class="st0" d="M56.8,184.4c-1-1.9-1.1-3.4-0.9-5.5c-2,0.3-3.9,0.5-5.9,0.8c0,0.8,0,1.6,0,2.4c1.9-0.5,3.7-1,5.6-1.5
						c-0.7-1.3-0.9-2.7-0.6-4.2c0.3-3.4-5-4-5.9-0.8c-0.3,1-0.5,1.9-0.8,2.9c2,0.3,3.9,0.5,5.9,0.8c0-0.8,0.1-1.7,0.1-2.5
						c-1.9-0.5-3.9-1.1-5.8-1.6c-0.1,1.1-0.3,2.1-0.8,3.1c2,0.3,3.9,0.5,5.9,0.8c0.1-0.9,0.3-1.9,0.4-2.8c-1.9,0-3.9,0-5.8,0
						c0.5,3.4,0.9,6.7,1.4,10.1c0.5,3.3,4.8,2.3,5.8,0c1.1-2.6,2.1-5.1,3.2-7.7c-1.9,0-3.9,0-5.8,0c0.6,3.3,0.8,6.5,0.6,9.8
						c-0.2,3.4,5.1,4.1,5.9,0.8c0.6-2.4,1.2-4.6,2.3-6.8c-1.9-0.5-3.7-1-5.6-1.5c0.2,3.4,0.2,6.6-0.3,10c-0.6,3.7,5.1,5.4,5.8,1.6
						c0.4-2.3,1-4.6,1.8-6.8c-2-0.3-3.9-0.5-5.9-0.8c0.2,2.4,0.3,4.5-0.1,6.9c-0.3,2.3,2,5.1,4.4,3.4c2.2-1.6,2.4-3.2,2.9-5.9
						c0.7-3.8,1.4-7.6,2.1-11.4c-1.9,0-3.9,0-5.8,0c0.8,2.2-1.1,5.1-1.9,7c-1.1,2.7-2.3,5.4-3.4,8.1c-2.1,5.1-4.3,10.2-6.4,15.3
						c2,0.3,3.9,0.5,5.9,0.8c0.2-5,1.3-9.6,3.2-14.1c-2-0.3-3.9-0.5-5.9-0.8c-0.2,5-0.9,10-2,14.9c-0.8,3.8,4.6,5.3,5.8,1.6
						c0.7-2,1.3-4,2-6c-2-0.3-3.9-0.5-5.9-0.8c0.1,3.3-0.1,6.5-0.5,9.8c-0.4,3.4,5.1,4,5.9,0.8c1.5-6.4,3.1-12.8,4.6-19.1
						c-1.9,0-3.9,0-5.8,0c0,0.7,0,1.4,0,2.1c-0.4,3.3,5.3,4.1,5.9,0.8c0.2-0.8,0.5-1.5,0.7-2.3c-1.8-0.8-3.7-1.5-5.5-2.3
						c-2,6.6-4,13.2-6.1,19.8c1.9,0,3.9,0,5.8,0c-1.4-3.9,0.1-8.1,0.3-12.1s-0.2-8-0.9-11.9c-0.6-3.1-4.9-2.6-5.8,0
						c-1.4,4.3-3,8.6-4.8,12.7c1.9,0.5,3.7,1,5.6,1.5c0-5,0.8-9.8,1.7-14.7c0.6-3.1-4.1-5.7-5.5-2.3c-0.7,1.7-1.4,3.4-2.2,5.1
						c1.9,0.5,3.7,1,5.6,1.5c0.3-4.2,0.8-8.3,1.6-12.4c-1.9,0-3.9,0-5.8,0c0.9,6.3-1.2,13.2-2.4,19.4c1.9,0,3.9,0,5.8,0
						c-0.4-1.5-0.4-3,0-4.4c-2-0.3-3.9-0.5-5.9-0.8c0.1,4.2-0.1,8.3-0.7,12.4c2,0.3,3.9,0.5,5.9,0.8c-0.1-1.3,0.1-2.5,0.5-3.7
						c-2-0.3-3.9-0.5-5.9-0.8c0.2,3.3,0.2,6.4-0.3,9.7c2,0.3,3.9,0.5,5.9,0.8c0.1-1.9,0.3-3.6,0.8-5.4c-1.9,0-3.9,0-5.8,0
						c0.6,4,0.7,8,0.4,12.1c2,0,4,0,6,0c0-2.4,0.1-4.8,0.5-7.1c-1.9,0-3.9,0-5.8,0c0.5,3.4,0.6,6.7,0.4,10.2c2,0,4,0,6,0
						c-0.1-2.7,0.2-5.1,1-7.8c-1.9,0-3.9,0-5.8,0c0.3,2,0.3,3.9-0.2,5.8c2,0.3,3.9,0.5,5.9,0.8c0-2.3,0.3-4.2,1-6.3
						c-2-0.3-3.9-0.5-5.9-0.8c0.3,2.7,0.4,5.3,0.1,8c-0.4,3.8,5.6,3.8,6,0c0.2-1.7,0.6-3.3,1-4.9c-2-0.3-3.9-0.5-5.9-0.8
						c0.1,2,0.2,3.8,0.1,5.8c-0.2,3.3,5.2,4.1,5.9,0.8c0.5-2.4,1.1-4.8,1.7-7.1c-2-0.3-3.9-0.5-5.9-0.8c-0.1,1.3-0.2,2.6-0.3,3.9
						c-0.3,3.9,5.7,3.8,6,0c0.1-0.8,0.1-1.7,0.2-2.5c0.3-3.3-5.4-4.2-5.9-0.8c-1.2,8.3-3,16.4-5.3,24.4c1.9,0,3.9,0,5.8,0
						c-1.2-3-1.7-5.8-1.3-9c0.5-3.7-4.9-5.5-5.8-1.6c-0.4,1.9-0.9,3.8-1.3,5.7c1.9,0,3.9,0,5.8,0c-0.3-1.4-0.3-2.9-0.1-4.3
						c0.4-3.4-5-4-5.9-0.8c-0.5,1.8-1,3.6-1.5,5.4c1.8-0.2,3.7-0.5,5.5-0.7c-1.2-2.6,0.4-7.2,0.7-10c0.5-4.1,1.1-8.1,1.6-12.2
						c-2-0.3-3.9-0.5-5.9-0.8c-0.1,1.8-0.2,3.5-0.3,5.3c2,0,4,0,6,0c0-3.1,0-6.2,0-9.2c-2,0.3-3.9,0.5-5.9,0.8
						c2.9,9.1,0.5,18.7,1.7,28.1c0.5,3.8,5.6,3.9,6,0c0.4-3.1,0.7-6.2,1.1-9.3c-2,0.3-3.9,0.5-5.9,0.8c1.7,12.1-3.1,24.1-2.2,36.2
						c2-0.3,3.9-0.5,5.9-0.8c-1.1-4.3-1.3-8.5-0.6-12.9c-2-0.3-3.9-0.5-5.9-0.8c-0.1,4.2-0.4,8.4-1.1,12.6c1.9,0,3.9,0,5.8,0
						c-0.7-5-0.8-9.9-0.2-14.8c0.4-3.8-5.6-3.8-6,0c-0.3,2.3-0.5,4.6-0.8,6.9c2,0,4,0,6,0c-0.5-3.8-0.4-7.5,0.3-11.3
						c-1.9-0.5-3.9-1.1-5.8-1.6c-0.3,1.8-0.6,3.6-0.9,5.5c2,0.3,3.9,0.5,5.9,0.8c-0.1-3.6-0.1-7.2-0.2-10.8c-2,0.3-3.9,0.5-5.9,0.8
						c0.7,3.4,2.8,22.1,10.6,17.3c2.9-1.8,2.6-6.1,2.8-9c0.4-6.3,0.8-12.6,1.2-18.9c0.2-3.3-5.4-4.2-5.9-0.8
						c-1.3,8-2.5,16.1-3.8,24.1c-1.1,7.1-1.4,15.3-4.9,21.7c-1.1,1.9,0.2,4.6,2.6,4.5c1.3-0.2,2.6,0,3.7,0.6
						c1.8,0.7,3.9-1.1,3.8-2.9c-0.2-6.5,0-13,0.7-19.4c-2,0-4,0-6,0c0,1.1,0.1,2.1,0.1,3.2c2,0,4,0,6,0c0.1-0.7,0.2-1.5,0.3-2.2
						c-1.9-0.5-3.7-1-5.6-1.5c-0.2,3.2-0.6,6.5-1.1,9.7c-0.6,3.8,5.2,5.4,5.8,1.6c0.6-3.7,1-7.5,1.3-11.3c0.2-2.9-4.4-4.2-5.6-1.5
						c-0.8,1.8-1.2,3.3-1.1,5.3c0.2,3.8,6.1,3.9,6,0c0-1.1-0.1-2.1-0.1-3.2c-0.1-3.9-5.6-3.8-6,0c-0.7,6.5-1,12.9-0.7,19.4
						c1.3-1,2.5-1.9,3.8-2.9c-1.8-0.7-3.4-0.9-5.3-0.8c0.9,1.5,1.7,3,2.6,4.5c3.6-6.5,4.1-14,5.2-21.2c1.4-8.7,2.7-17.3,4.1-26
						c-2-0.3-3.9-0.5-5.9-0.8c-0.3,4.1-0.5,8.2-0.8,12.3c-0.1,1.2-0.5,10.5-0.3,10.5c1,0.3,1.9,0.5,2.9,0.8
						c-3.5-2.9-3.7-10.2-4.6-14.5c-0.7-3.3-5.9-2.6-5.9,0.8c0.1,3.6,0.1,7.2,0.2,10.8c0,3.2,5.3,4.2,5.9,0.8
						c0.3-1.8,0.6-3.6,0.9-5.5c0.6-3.8-5-5.4-5.8-1.6c-0.9,4.3-1.1,8.5-0.6,12.9c0.5,3.8,5.6,3.9,6,0c0.3-2.3,0.5-4.6,0.8-6.9
						c-2,0-4,0-6,0c-0.6,5.5-0.4,10.9,0.5,16.4c0.4,2.9,5.3,2.8,5.8,0c0.8-4.7,1.2-9.4,1.3-14.2c0-3.3-5.3-4.2-5.9-0.8
						c-1,5.5-0.8,10.7,0.6,16.1c0.8,3.2,6.1,2.6,5.9-0.8c-0.9-12.8,3.8-25.1,2-37.8c-0.5-3.6-5.5-2.2-5.9,0.8
						c-0.4,3.1-0.7,6.2-1.1,9.3c2,0,4,0,6,0c-1.3-9.9,1.2-20-1.9-29.7c-1-3.2-5.9-2.7-5.9,0.8c0,3.1,0,6.2,0,9.2c0,3.9,5.8,3.8,6,0
						c0.1-1.8,0.2-3.5,0.3-5.3c0.2-3.3-5.4-4.2-5.9-0.8c-0.7,4.9-1.3,9.8-1.9,14.7c-0.5,4.2-1.6,8.2,0.2,12.1
						c1.1,2.4,4.8,1.6,5.5-0.7c0.5-1.8,1-3.6,1.5-5.4c-2-0.3-3.9-0.5-5.9-0.8c-0.2,2.1-0.1,3.8,0.3,5.9c0.5,3,5.1,2.8,5.8,0
						c0.4-1.9,0.9-3.8,1.3-5.7c-1.9-0.5-3.9-1.1-5.8-1.6c-0.6,4.3-0.3,8.2,1.3,12.2c1,2.6,4.9,3.1,5.8,0c2.3-8,4.1-16.1,5.3-24.4
						c-2-0.3-3.9-0.5-5.9-0.8c-0.1,0.8-0.1,1.7-0.2,2.5c2,0,4,0,6,0c0.1-1.3,0.2-2.6,0.3-3.9c0.2-3.4-5-4-5.9-0.8
						c-0.7,2.4-1.2,4.7-1.7,7.1c2,0.3,3.9,0.5,5.9,0.8c0.1-2,0.1-3.8-0.1-5.8c-0.2-3.3-4.9-4.2-5.9-0.8c-0.6,2.2-1,4.3-1.2,6.5
						c2,0,4,0,6,0c0.3-2.7,0.3-5.3-0.1-8c-0.4-3.3-4.8-4.2-5.9-0.8c-0.9,2.7-1.3,5.1-1.3,7.9c0,3.3,5.2,4.2,5.9,0.8
						c0.6-3.1,0.6-5.9,0.2-9c-0.4-3.1-5-2.6-5.8,0c-0.9,3.1-1.3,6.1-1.2,9.4c0.2,3.9,5.7,3.8,6,0c0.3-4,0-7.8-0.6-11.7
						c-0.5-2.9-5.3-2.9-5.8,0s-0.7,5.8-0.7,8.7c0,3.9,5.7,3.8,6,0c0.3-4.6,0.1-9.1-0.7-13.7c-0.5-3-5.1-2.7-5.8,0
						c-0.6,2.3-1,4.6-1,7c-0.1,3.3,5.4,4.2,5.9,0.8c0.5-3.8,0.7-7.4,0.5-11.3c-0.2-3.3-4.9-4.2-5.9-0.8c-0.5,1.8-0.8,3.5-0.8,5.3
						c0,3.3,5.4,4.2,5.9,0.8c0.7-4.7,1.1-9.3,0.9-14c-0.1-3.3-5.2-4.2-5.9-0.8c-0.5,2.6-0.5,5,0,7.6c0.5,2.9,5.3,2.9,5.8,0
						c1.4-7.5,3.4-15,2.4-22.6c-0.4-2.9-5.3-2.8-5.8,0c-0.9,4.6-1.5,9.3-1.8,14c-0.2,2.8,4.4,4.3,5.6,1.5c0.7-1.7,1.4-3.4,2.2-5.1
						c-1.8-0.8-3.7-1.5-5.5-2.3c-1,5.4-1.9,10.8-1.9,16.3c0,2.8,4.4,4.4,5.6,1.5c2-4.7,3.8-9.4,5.4-14.2c-1.9,0-3.9,0-5.8,0
						c0.9,5,0.8,9.8,0.1,14.8c-0.5,3.2-0.7,6.1,0.4,9.2c1,2.7,4.9,3,5.8,0c2-6.6,4-13.2,6.1-19.8c1-3.2-3.9-5.4-5.5-2.3
						c-0.8,1.6-1,2-1.3,3.8c2,0.3,3.9,0.5,5.9,0.8c0.2-1.6,0.1-2.1-0.2-3.7c-0.6-2.9-5.1-2.8-5.8,0c-1.5,6.4-3.1,12.8-4.6,19.1
						c2,0.3,3.9,0.5,5.9,0.8c0.4-3.3,0.6-6.5,0.5-9.8c-0.1-3.4-4.8-4-5.9-0.8c-0.7,2-1.3,4-2,6c1.9,0.5,3.9,1.1,5.8,1.6
						c1.2-5.4,1.9-10.9,2.2-16.5c0.2-3.7-4.7-3.7-5.9-0.8c-2.1,5.1-3.2,10.2-3.4,15.7c-0.1,3.7,4.7,3.7,5.9,0.8
						c2.7-6.3,5.3-12.6,8-18.9c1.8-4.4,5.6-9.8,3.8-14.7c-0.9-2.5-5.2-3.2-5.8,0c-0.5,2.6-1,5.3-1.5,7.9c-0.2,1.2-0.4,2.3-0.7,3.5
						c-0.1,0.6-0.9,2.9-0.2,2.3c1.5,1.1,2.9,2.3,4.4,3.4c0.4-2.9,0.6-5.6,0.3-8.5c-0.3-3.4-4.7-4.1-5.9-0.8
						c-0.8,2.2-1.4,4.5-1.8,6.8c1.9,0.5,3.9,1.1,5.8,1.6c0.6-3.9,0.8-7.6,0.5-11.6c-0.2-2.7-4.2-4.4-5.6-1.5
						c-1.3,2.7-2.2,5.4-2.9,8.3c2,0.3,3.9,0.5,5.9,0.8c0.2-3.9-0.1-7.6-0.8-11.4c-0.6-3.3-4.8-2.4-5.8,0c-1.1,2.6-2.1,5.1-3.2,7.7
						c1.9,0,3.9,0,5.8,0c-0.5-3.4-0.9-6.7-1.4-10.1c-0.4-3-5.1-2.7-5.8,0c-0.4,1.8-0.6,2.6-0.6,4.4c-0.1,3.5,4.8,3.9,5.9,0.8
						c0.4-1,0.7-2,0.8-3.1c0.6-3.7-4.8-5.4-5.8-1.6c-0.5,1.9-0.5,2.2-0.3,4.1c0.4,3.1,5,4.3,5.9,0.8c0.3-1,0.5-1.9,0.8-2.9
						c-2-0.3-3.9-0.5-5.9-0.8c-0.2,2.7,0.3,4.8,1.5,7.2c1.4,3,5.3,1.1,5.6-1.5c0.2-1.8,0.1-2.3-0.2-4c-0.7-3.6-5.5-2.3-5.9,0.8
						s0.2,5.7,1.7,8.5C53.4,190.8,58.6,187.8,56.8,184.4L56.8,184.4z"/>
				</g>
			</g>
			<g>
				<g>
					<path class="st0" d="M47.3,267.8c0-0.2,0-0.5,0-0.7c-1.9,0-3.9,0-5.8,0c0.1-0.1,0.1-0.3,0.2-0.4c1.8,0.2,3.7,0.5,5.5,0.7
						c-0.9-6,0.4-13.3,1.2-19.3c-1.9,0-3.9,0-5.8,0c1.7,4.5,1.1,9,1.3,13.6c0.1,1.6,0.2,3.2,0.4,4.8c0.3,2.1,2.5,6.5-1.8,6.4
						c1,1,2,2,3,3c0.3-2.3,0.5-4.7,0.8-7c0.4-3.8-5.6-3.8-6,0c-0.3,2.3-0.5,4.7-0.8,7c-0.2,1.6,1.5,3,3,3c5.5,0.1,9.3-3.8,8.5-9.2
						c-0.6-4.2-1.2-8-1.2-12.3c0-3.8-0.1-7.4-1.5-10.9c-0.9-2.4-5.3-3.3-5.8,0c-1,7.2-2.4,15.2-1.2,22.5c0.4,2.6,4.3,2.9,5.5,0.7
						c0.9-1.6,1.1-2.5,0.4-4.2c-0.9-2.5-5.3-3.2-5.8,0c-0.2,1.5-0.2,2.5,0,3.9C42.1,273.2,47.9,271.6,47.3,267.8L47.3,267.8z"/>
				</g>
			</g>
			<g>
				<g>
					<path class="st0" d="M72.7,182.8c1.3,4.9,2.4,9.8,3.3,14.8c0.6,3.4,5.9,2.5,5.9-0.8c0-6,0.2-11.9,0.7-17.8c0.3-3.9-5.7-3.8-6,0
						c-0.8,9-1.4,18-0.3,27c0.5,3.7,5.8,4,6,0c0.1-2.6,0.1-5.1,0-7.7c-2,0.3-3.9,0.5-5.9,0.8c0.9,6.6-1.5,13-0.6,19.6
						c0.5,3.8,5.7,3.9,6,0c0.2-2,0.3-4.1,0.5-6.1c0.3-3.3-5.4-4.2-5.9-0.8c-1.3,8.4-1.2,17.4-2.9,25.7C73,240,71.4,259,70.9,259
						c0.5,1.9,1,3.7,1.5,5.6c2.4-1.6,2.8-3.5,3.1-6.2c0.6-4.9,1.3-9.5,3.1-14.1c-2-0.3-3.9-0.5-5.9-0.8c0.6,6,0.3,11.8-1.2,17.6
						c-0.4,1.5,0.5,3.3,2.1,3.7c0.6,0.2,1.3,0.3,1.9,0.5c1.5,0.4,3.3-0.5,3.7-2.1c1.6-7.7,0.8-16.2,1-24c-2,0.3-3.9,0.5-5.9,0.8
						c0.6,3.1,0.6,6.1,0.3,9.2c-0.4,3.9,5.6,3.8,6,0c0.6-5.1-0.9-10.1-0.2-15.1c-2,0-4,0-6,0c0.1,2.3,0.2,4.5,0.3,6.8
						c0.2,3.8,6,3.9,6,0c-0.1-6.4,0.3-12.7,1-19.1c-2,0-4,0-6,0c0.4,3.7,0.3,7.2-0.2,10.9c-0.6,3.8,5.2,5.4,5.8,1.6
						c0.7-4.2,0.9-8.2,0.5-12.4c-0.4-3.9-5.6-3.8-6,0c-0.7,6.3-1,12.7-1,19.1c2,0,4,0,6,0c-0.1-2.3-0.2-4.5-0.3-6.8
						c-0.2-4-5.5-3.7-6,0c-0.7,5.1,0.7,10.1,0.2,15.1c2,0,4,0,6,0c0.4-3.7,0.1-7.1-0.5-10.8c-0.6-3.4-5.8-2.5-5.9,0.8
						c-0.1,7.2,0.8,15.3-0.7,22.4c1.2-0.7,2.5-1.4,3.7-2.1c-0.6-0.2-1.3-0.3-1.9-0.5c0.7,1.2,1.4,2.5,2.1,3.7
						c1.6-6.3,2.2-12.7,1.5-19.2c-0.4-3.4-4.6-4-5.9-0.8c-1.1,2.8-1.9,5.6-2.4,8.6c-0.2,1.4-0.2,7.6-1,8.1c-2.4,1.6-1.6,5.7,1.5,5.6
						c3.4-0.1,4.9-2.1,5.6-5.2c1.1-4.6,2.1-9.9,2.1-14.7c0-4.2,1-8.2,1.4-12.4c0.5-6.5,1.3-13,2.3-19.4c-2-0.3-3.9-0.5-5.9-0.8
						c-0.2,2-0.3,4.1-0.5,6.1c2,0,4,0,6,0c-0.9-7.1,1.4-14.1,0.4-21.2c-0.5-3.4-6-2.5-5.9,0.8c0.1,2.6,0.1,5.1,0,7.7c2,0,4,0,6,0
						c-1.2-9-0.5-18,0.3-27c-2,0-4,0-6,0c-0.5,5.9-0.7,11.9-0.7,17.8c2-0.3,3.9-0.5,5.9-0.8c-0.9-5-2-9.9-3.3-14.8
						C77.5,177.5,71.7,179.1,72.7,182.8L72.7,182.8z"/>
				</g>
			</g>
			<g>
				<g>
					<path class="st0" d="M75.3,137.1c0.1,0.4,0.3,0.7,0.4,1.1c-1.8-0.2-3.7-0.5-5.5-0.7c0.4-1.1,0.7-2.3,1.1-3.4
						c-0.6-1.1-0.8-2.3-0.4-3.4c0.2-1.8,0.8-3.3,1.5-4.9c1.3-3.1-4-5.4-5.5-2.3c-0.1,0.6-0.3,1.2-0.4,1.8c-0.6-2.6-4.2-2.8-5.5-0.7
						c-0.7,0.5-1.4,0.9-2.2,1.4c1.3,1,2.5,1.9,3.8,2.9c0.1-0.6,0.2-1.3,0.2-1.9c0.3-2.3-2.8-3.7-4.5-2.6c-1.3,0.8-1.8,1.2-2.8,2.4
						c1.7,0.4,3.3,0.9,5,1.3c-0.1-0.4-0.3-0.8-0.4-1.3c-0.6-2-3.5-3.2-5-1.3c-0.4,0.4-0.8,0.7-1.2,1.1c1.4,1.4,2.7,2.7,4.1,4.1
						c1-1.9,2-3.9,2.9-5.8c1.5-3-2.2-6.1-4.7-3.6c-0.7,0.7-1.4,1.4-2.2,2.1c1.6,1.2,3.1,2.4,4.7,3.6c1.5-2.2,2.6-4.5,3.7-6.9
						c1.1-2.5-2.3-4.6-4.4-3.4c-1.6,0.9-2.7,2-3.7,3.6c1.7,1,3.5,2,5.2,3c1.3-2.5,2.8-4.8,4.6-6.9c2.3-2.6-0.5-6.3-3.6-4.7
						c-1.2,0.6-2.3,1.2-3.5,1.8c1.2,1.6,2.4,3.1,3.6,4.7c2.1-2,4.2-3.2,7-3.9c2.8-0.8,3-5.1,0-5.8c-1.5-0.3-3-0.5-4.6-0.6
						c0.3,2,0.5,3.9,0.8,5.9c1.5-0.5,3.1-0.8,4.7-0.9c2.4-0.2,4.2-3.3,2.1-5.1c-1-0.9-1.7-1.3-3-1.6c-3.8-0.8-5.4,5-1.6,5.8
						c0.1,0,0.2,0,0.4,0.1c0.7-1.7,1.4-3.4,2.1-5.1c-2.2,0.2-4.2,0.5-6.3,1.1c-3.3,0.9-2.6,5.8,0.8,5.9c1,0,2,0.1,3,0.4
						c0-1.9,0-3.9,0-5.8c-3.8,1-6.8,2.8-9.7,5.5c-2.6,2.4,0.7,6.2,3.6,4.7c1.2-0.6,2.3-1.2,3.5-1.8c-1.2-1.6-2.4-3.1-3.6-4.7
						c-2.2,2.5-4,5.1-5.6,8.1c-1.8,3.5,3,6.2,5.2,3c0.5-0.5,1.1-0.9,1.6-1.4c-1.5-1.1-2.9-2.3-4.4-3.4c-0.8,2-1.9,3.7-3.1,5.5
						c-2,2.9,2.3,5.9,4.7,3.6c0.7-0.7,1.4-1.4,2.2-2.1c-1.6-1.2-3.1-2.4-4.7-3.6c-1,1.9-2,3.9-2.9,5.8c-1.3,2.6,1.4,5.7,4.1,4.1
						c1.2-0.7,1.6-1,2.4-2c-1.7-0.4-3.3-0.9-5-1.3c0.1,0.4,0.3,0.8,0.4,1.3c0.7,2,3.5,3.1,5,1.3c0.5-0.5,1.1-1,1.6-1.4
						c-1.5-0.9-3-1.7-4.5-2.6c-0.1,0.6-0.2,1.3-0.2,1.9c-0.3,2.1,2.1,3.3,3.8,2.9c2.7-0.6,4.3-1.9,5.7-4.2c-1.8-0.2-3.7-0.5-5.5-0.7
						c1.6,6.6,9.1,4.5,11.4-0.4c-1.8-0.8-3.7-1.5-5.5-2.3c-2.1,5.1-3.2,12.2,2.2,15.8c3.2,2.1,9.1,0.7,7.2-4.1
						c-0.9-2.3-4.1-3.1-5.5-0.7c-1.6,2.7-0.8,5.4,1.7,7.1C75.5,144.5,78.5,139.3,75.3,137.1L75.3,137.1z"/>
				</g>
			</g>
			<g>
				<g>
					<path class="st0" d="M46,275.3c0,0,0-0.1,0.1-0.1c0.9-1.3,0.3-3.4-1.1-4.1c-0.1,0-0.1-0.1-0.2-0.1c-1.5-0.8-4.1-0.2-4.4,1.8
						c0.1-0.7,0.9-0.9-0.8-0.2c1.1,1.5,2.3,2.9,3.4,4.4c1.1-1.6,1.7-3,2.2-4.8c0.8-3.2-3.9-5.4-5.5-2.3c-0.3,0.7-0.6,1.3-1.1,1.9
						c1.6-0.2,3.1-0.4,4.7-0.6c1.3,1.2,1.6-2.9,1.8-3.9c0.4-1.7,0.5-3.4,0.5-5.2c-0.1-3.6-4.7-3.8-5.9-0.8c-0.4,1.1-0.9,2.2-1.3,3.3
						c1.9,0.5,3.9,1.1,5.8,1.6c0.9-4.6,2.5-9.4,1.9-14.1c-0.4-3.2-4.8-4.2-5.9-0.8c-0.7,2.1-1.3,4.2-2,6.3c-1.2,3.7,4.6,5.3,5.8,1.6
						c0.7-2.1,1.3-4.2,2-6.3c-2-0.3-3.9-0.5-5.9-0.8c0.5,4.2-0.9,8.5-1.7,12.5c-0.8,3.9,4.4,5.1,5.8,1.6c0.4-1.1,0.9-2.2,1.3-3.3
						c-2-0.3-3.9-0.5-5.9-0.8c0.1,3.8-3.8,10.2-0.6,13.3c1.5,1.4,3.6,1,4.7-0.6c0.4-0.6,0.8-1.2,1.1-1.9c-1.8-0.8-3.7-1.5-5.5-2.3
						c-0.2,1.3-0.7,2.4-1.6,3.4c-1.4,2.1,1,5.3,3.4,4.4c2.3-0.9,4.6-0.9,5-3.9c-1.5,0.6-2.9,1.2-4.4,1.8c0.1,0,0.1,0.1,0.2,0.1
						c-0.4-1.4-0.7-2.7-1.1-4.1c0,0,0,0.1-0.1,0.1C38.6,275.5,43.8,278.5,46,275.3L46,275.3z"/>
				</g>
			</g>
			<g>
				<g>
					<path class="st0" d="M46.1,252.2c0-0.2-0.1-0.3-0.1-0.5c0.5-3.1-3.8-5.6-5.5-2.3c-0.2,0.5-0.5,0.9-0.7,1.4c1.7,0,3.5,0,5.2,0
						c-0.1-0.1-0.2-0.3-0.2-0.4c0.1,0.8,0.2,1.5,0.3,2.3c0.5-3.2,1.7-6.3,2.2-9.5c0.5-3.7-4.6-5.4-5.8-1.6c-0.6,1.7-1.2,3.4-2.1,5
						c1.8,0.8,3.7,1.5,5.5,2.3c1.4-3.9,2.2-7.9,2.6-12c0.3-3.4-5-4-5.9-0.8c-0.4,1.3-0.7,2.6-1.1,3.9c1.9,0.5,3.9,1.1,5.8,1.6
						c0-0.9,0.3-1.7,0.7-2.5c1.4-3.7-4.3-5.1-5.8-1.6c-0.2,0.6-0.5,1.2-0.7,1.7c1.9,0.5,3.9,1.1,5.8,1.6c0.5-2.4,0-5.5,1.1-7.7
						c1.6-3.5-3.5-6.5-5.2-3c-1.4,3-1,5.9-1.7,9.1c-0.9,3.9,4.3,5.1,5.8,1.6c0.2-0.6,0.5-1.2,0.7-1.7c-1.9-0.5-3.9-1.1-5.8-1.6
						c-0.4,0.8-0.6,1.6-0.7,2.5c-0.6,3.7,4.7,5.4,5.8,1.6c0.4-1.3,0.7-2.6,1.1-3.9c-2-0.3-3.9-0.5-5.9-0.8c-0.4,3.6-1.2,7-2.4,10.4
						c-1.1,3.2,3.8,5.2,5.5,2.3c1.2-2.1,2-4.2,2.7-6.4c-1.9-0.5-3.9-1.1-5.8-1.6c-0.4,2.8-1.2,5.5-1.9,8.2c-0.4,1.5-0.6,2.6,0.2,4
						c1.1,1.8,4.2,2.1,5.2,0c0.2-0.5,0.5-0.9,0.7-1.4c-1.8-0.8-3.7-1.5-5.5-2.3c-0.2,1.4-0.2,2.3,0.1,3.7
						C41.3,257.5,47.1,256,46.1,252.2L46.1,252.2z"/>
				</g>
			</g>
			<g>
				<g>
					<path class="st0" d="M47.2,210.3c-1.2,1.1-1.9,2.2-2.3,3.7c2,0.3,3.9,0.5,5.9,0.8c-0.1-0.6-0.1-1.2-0.2-1.8
						c-0.3-3-3.8-4-5.6-1.5c-0.7,1-1.3,1.9-2,2.9c1.9,0.5,3.7,1,5.6,1.5c0.1-0.4,0.2-0.8,0.2-1.2c0.9-3.2-3.9-5.4-5.5-2.3
						c-0.1,0.3-0.3,0.6-0.4,0.9c1.8,0.8,3.7,1.5,5.5,2.3c0.1-0.3,0.1-0.7,0.2-1c0.7-3.7-4.8-5.4-5.8-1.6c-0.9,3.4-1.4,6.6-1.5,10.1
						c0,3.5-1.8,6.4-1.7,9.9c0.1,3.9,6.1,3.9,6,0c-0.1-2.9,1.6-5.5,1.7-8.4c0.1-3.5,0.3-6.4,1.2-9.9c-1.9-0.5-3.9-1.1-5.8-1.6
						c-0.1,0.3-0.1,0.7-0.2,1c-0.6,3.1,3.9,5.5,5.5,2.3c0.1-0.3,0.3-0.6,0.4-0.9c-1.8-0.8-3.7-1.5-5.5-2.3c-0.3,1-0.4,1.8-0.5,2.8
						c-0.2,3.2,4,3.8,5.6,1.5c0.7-1,1.3-1.9,2-2.9c-1.9-0.5-3.7-1-5.6-1.5c0.1,0.6,0.1,1.2,0.2,1.8c0.3,3.2,5,4.3,5.9,0.8
						c0.2-0.4,0.5-0.7,0.7-1.1C54.4,212,50.1,207.8,47.2,210.3L47.2,210.3z"/>
				</g>
			</g>
			<g>
				<g>
					<path class="st0" d="M48.9,211.7L48.9,211.7c1.5-3.4-3.6-4.9-5.4-2.3c-0.3,0.4-0.5,0.7-0.8,1.1c1.8,0.8,3.7,1.5,5.5,2.3
						c1.5-3.8,3-7.5,4.5-11.3c1.2-3.2-4-5.3-5.5-2.3c-1.2,2.3-2.4,4.6-3.5,7c1.9,0.5,3.7,1,5.6,1.5c0-1.4,0.4-2.8,1-4.1
						c1.5-3.5-3.5-6.6-5.2-3c-0.5,1.2-1.1,2.3-1.6,3.5c1.8,0.8,3.7,1.5,5.5,2.3c1.3-4.6,2.7-9.1,4.1-13.7c1-3.3-3.8-5.2-5.5-2.3
						c-1.5,2.6-2.7,5.2-3.6,8c1.9,0.5,3.9,1.1,5.8,1.6c0.5-3.6,1.3-7.1,2.3-10.6s-3.6-4.9-5.5-2.3c-0.8,1-1.3,2-1.9,3.1
						c1.8,0.8,3.7,1.5,5.5,2.3c1.4-4.6,2.7-9.3,4-13.9c1.1-3.7-4.7-5.3-5.8-1.6c-1.3,4.6-2.7,9.3-4,13.9c-0.9,3.2,4,5.5,5.5,2.3
						c0.5-1.2,1.1-2.1,1.9-3.1c-1.8-0.8-3.7-1.5-5.5-2.3c-1,3.5-1.8,7-2.3,10.6c-0.6,3.7,4.6,5.4,5.8,1.6c0.7-2.3,1.7-4.5,2.9-6.6
						c-1.8-0.8-3.7-1.5-5.5-2.3c-1.4,4.5-2.7,9.1-4.1,13.7c-0.9,3.2,4,5.5,5.5,2.3c0.5-1.2,1.1-2.3,1.6-3.5c-1.7-1-3.5-2-5.2-3
						c-1,2.4-1.6,4.5-1.8,7.1c-0.2,2.9,4.3,4.1,5.6,1.5c1.2-2.3,2.4-4.6,3.5-7c-1.8-0.8-3.7-1.5-5.5-2.3c-1.5,3.8-3,7.5-4.5,11.3
						c-1.3,3.4,3.7,4.9,5.5,2.3c0.3-0.4,0.5-0.7,0.8-1.1c-1.8-0.8-3.7-1.5-5.5-2.3c-0.5,1.2-0.4,2-0.1,3.2
						C43.9,217.1,49.6,215.5,48.9,211.7L48.9,211.7z"/>
				</g>
			</g>
			<g>
				<g>
					<path class="st0" d="M53.7,169.5c1.1,0.6,0.2,1.1,1-0.2c0.4-0.8,0.6-1.9,0.9-2.7c0.5-1.6,1-3.3,1.6-4.9c1-3.2-4.1-5.5-5.5-2.3
						c-0.8,1.9-1.7,3.9-2.5,5.8c1.8,0.8,3.7,1.5,5.5,2.3c0.6-2.3,1.2-4.5,1.8-6.8c0.5-1.8,1.1-3.4,0.8-5.3c-0.3-2.1-2.8-2.5-4.4-1.8
						c0,0-0.1,0-0.1,0.1c-1.1,0.5-1.8,2.3-1.4,3.4v0.1c1.5,3.5,7.3,2,5.8-1.6v-0.1c-0.5,1.1-0.9,2.3-1.4,3.4c0,0,0.1,0,0.1-0.1
						c-1.5-0.6-2.9-1.2-4.4-1.8c-0.1-0.7-0.5,0.9-0.5,1c-0.3,0.9-0.5,1.9-0.7,2.8c-0.4,1.7-0.9,3.4-1.3,5.1
						c-0.8,3.2,4.1,5.5,5.5,2.3c0.8-1.9,1.7-3.9,2.5-5.8c-1.8-0.8-3.7-1.5-5.5-2.3c-1,3-2.2,6-2.9,9.1c-0.5,2.3,0,4.4,2.2,5.5
						C54.1,176.4,57.1,171.3,53.7,169.5L53.7,169.5z"/>
				</g>
			</g>
			<g>
				<g>
					<path class="st0" d="M49.8,160c0.1-0.1,0.2-0.2,0.3-0.3c1.5,1.1,2.9,2.3,4.4,3.4c1.7-4.3,2.9-8.6,3.8-13.1
						c0.6-3.2-3.7-5.4-5.5-2.3c-1.5,2.6-3.2,6.1-2.7,9.2c0.2,1.2,1.7,2.3,2.9,2.2c0.1,0,0.1,0,0.2,0c1.8-0.2,2.8-1.2,3-3
						c0-0.1,0-0.1,0-0.2c0.4-3.8-5.6-3.8-6,0c0,0.1,0,0.1,0,0.2c1-1,2-2,3-3c-0.1,0-0.1,0-0.2,0c1,0.7,1.9,1.5,2.9,2.2
						c0.2,0.9,0.6-1.4,0.7-1.7c0.4-1,0.8-1.9,1.4-2.8c-1.8-0.8-3.7-1.5-5.5-2.3c-0.8,4.5-2.1,8.9-3.8,13.1c-1,2.6,2.3,4.5,4.4,3.4
						c1.3-0.7,2.2-1.8,2.5-3.3C56.3,157.8,50.6,156.2,49.8,160L49.8,160z"/>
				</g>
			</g>
			<g>
				<g>
					<path class="st0" d="M59,148.8c0-0.5,0-1-0.1-1.5c-0.1-2.8-4.2-4.3-5.6-1.5c-0.6,1.1-1.1,2.2-1.7,3.4c1.8,0.8,3.7,1.5,5.5,2.3
						c0.5-1.7,0.9-3.3,1.4-5c0.9-3.2-3.8-5.3-5.5-2.3c-0.3,0.6-0.6,1.1-0.9,1.7c1.8,0.8,3.7,1.5,5.5,2.3c0.6-2.1,1-4.1,1.2-6.3
						c0.4-3.4-5.2-4.1-5.9-0.8c-0.1,0.3-0.2,0.6-0.3,1c-1.2,2.4,0.8,5,3.4,4.4c5-1.1,3.7-10.3,3.3-13.8c-0.4-3.8-6.1-3.9-6,0
						c0.1,3.3-0.3,6.4-1.1,9.6c-1,3.7,4.8,5.3,5.8,1.6s1.5-7.4,1.4-11.2c-2,0-4,0-6,0c0.3,2.6,1.2,7-0.3,9.3
						c0.6-0.5,1.2-0.9,1.8-1.4c-0.1,0-0.2,0.1-0.3,0.1c1.1,1.5,2.3,2.9,3.4,4.4c0.4-0.8,0.7-1.5,0.9-2.4c-2-0.3-3.9-0.5-5.9-0.8
						c-0.2,1.6-0.6,3.1-1,4.7c-0.9,3.2,3.8,5.3,5.5,2.3c0.3-0.6,0.6-1.1,0.9-1.7c-1.8-0.8-3.7-1.5-5.5-2.3c-0.5,1.7-0.9,3.3-1.4,5
						c-0.9,3.2,3.9,5.4,5.5,2.3c0.6-1.1,1.1-2.2,1.7-3.4c-1.9-0.5-3.7-1-5.6-1.5c0,0.5,0,1,0.1,1.5C53.2,152.6,59.2,152.6,59,148.8
						L59,148.8z"/>
				</g>
			</g>
			<g>
				<g>
					<path class="st0" d="M71.7,257c-0.4,0-0.8,0.1-1.2,0.1c-1.6,0.1-3,1.3-3,3c0,0.3,0,0.6,0,0.9c1.5-0.9,3-1.7,4.5-2.6
						c-1.4-0.8-3.1-1.1-4.7-0.4c-1,0.4-1.8,1-2.1,2.1c-0.3,1,0,2.2,0.8,2.9c0.6,0.6,1.4,1.2,2.2,1.6c0.2-1.8,0.5-3.7,0.7-5.5
						c-0.6,0.1,0,0,0.2,0.1c-0.1,0-0.2,0-0.3-0.1c0.3,0.1,0.2,0.1-0.1,0c0,1.7,0,3.5,0,5.2c2.5-1.3,4-3.9,4.2-6.7
						c0.2-2.7-3.3-3.8-5.1-2.1c-0.6,0.6-1.3,1.2-1.9,1.8c-1.1,1.1-1.2,3.2,0,4.2c1.2,1.1,3,1.2,4.2,0c0.6-0.6,1.3-1.2,1.9-1.8
						c-1.7-0.7-3.4-1.4-5.1-2.1c0,0.4,0,0.3,0,0c0,0.2-0.1,0.3-0.1,0.5c0.2-0.6-0.2,0.3-0.3,0.4c0.3-0.5-0.2,0.2-0.4,0.4
						c0.5-0.4-0.3,0.2-0.5,0.2c-2,1-1.9,4.1,0,5.2c1.5,0.8,3.1,1,4.8,0.6c2.5-0.6,2.9-4.2,0.7-5.5c-0.2-0.1-0.5-0.3-0.7-0.4
						c0.4,0.3-0.2-0.2-0.2-0.3c-0.4,1.7-0.9,3.3-1.3,5c0.2-0.1,0.9-0.2,0.3-0.1c-0.1,0-0.2,0-0.3,0c0.3,0.1,0.3,0.1,0,0
						c1.9,1.1,4.6-0.3,4.5-2.6c0-0.3,0-0.6,0-0.9c-1,1-2,2-3,3c0.4,0,0.8-0.1,1.2-0.1c1.6-0.1,3.1-1.3,3-3
						C74.7,258.5,73.4,256.8,71.7,257L71.7,257z"/>
				</g>
			</g>
			<g>
				<g>
					<path class="st0" d="M71.7,260c0.1-1,0.4-1.9,0.8-2.8c-1.8-0.8-3.7-1.5-5.5-2.3c-0.1,0.3-0.1,0.6-0.2,0.9
						c-0.7,3.8,4.6,5.3,5.8,1.6c3-9.5,5.3-19.2,7.1-29c0.6-3.1-4-5.6-5.5-2.3c-2.4,5.2-4,10.4-4.9,16.1c-0.6,3.8,5.2,5.4,5.8,1.6
						c0.8-5.1,2.1-10,4.3-14.7c-1.8-0.8-3.7-1.5-5.5-2.3c-1.8,9.8-4.1,19.5-7.1,29c1.9,0.5,3.9,1.1,5.8,1.6c0.1-0.3,0.1-0.6,0.2-0.9
						c0.6-3.1-4-5.6-5.5-2.3c-0.6,1.4-1.1,2.7-1.4,4.2C65.2,262.2,71,263.8,71.7,260L71.7,260z"/>
				</g>
			</g>
			<g>
				<g>
					<path class="st0" d="M79.4,231.5c0.3-1.7,0.6-3.4,0.8-5.1c0.4-3-3.8-5.7-5.5-2.3c-0.6,1.3-1.3,2.6-1.9,4c1.7,1,3.5,2,5.2,3
						c1.7-4.1,3.3-8.1,3.6-12.5c0.2-2.9-4.3-4.2-5.6-1.5c-0.6,1.4-1.2,2.8-1.5,4.2c2,0.3,3.9,0.5,5.9,0.8c-0.1-1.1,0.1-1.9,0.4-3
						c-1.9-0.5-3.9-1.1-5.8-1.6c-0.3,1.7-0.8,3.4-1.3,5c1.9,0.5,3.9,1.1,5.8,1.6c0.4-1.2,0.6-2.4,0.8-3.6c0.6-3.7-4.6-5.4-5.8-1.6
						c-0.8,2.4-1.5,4.8-2.3,7.2c-1,3.2,4,5.4,5.5,2.3c1.8-3.9,2.9-7.9,3.2-12.2c0.3-3.9-5.7-3.8-6,0c-0.2,3.2-1,6.3-2.4,9.2
						c1.8,0.8,3.7,1.5,5.5,2.3c0.8-2.4,1.5-4.8,2.3-7.2c-1.9-0.5-3.9-1.1-5.8-1.6c-0.2,1.2-0.5,2.4-0.8,3.6
						c-1.1,3.7,4.7,5.3,5.8,1.6c0.5-1.7,0.9-3.3,1.3-5c0.8-3.8-4.5-5.3-5.8-1.6c-0.5,1.5-0.7,3-0.6,4.6c0.2,3.3,5.1,4.2,5.9,0.8
						c0.2-1,0.5-1.9,0.9-2.8c-1.9-0.5-3.7-1-5.6-1.5c-0.2,3.3-1.4,6.5-2.7,9.5c-1.5,3.5,3.4,6.6,5.2,3c0.6-1.3,1.3-2.6,1.9-4
						c-1.8-0.8-3.7-1.5-5.5-2.3c-0.2,1.7-0.5,3.4-0.8,5.1C73,233.7,78.7,235.4,79.4,231.5L79.4,231.5z"/>
				</g>
			</g>
			<g>
				<g>
					<path class="st0" d="M56.3,179c0.4-1.5,0.6-3.1,0.7-4.7c0.1-2.7-3.3-3.8-5.1-2.1c-0.5,0.5-1,0.9-1.6,1.4
						c1.7,0.7,3.4,1.4,5.1,2.1c0.1-1.2,0.4-2.3,0.7-3.5c0.8-2.7-3.1-5.3-5-2.9c-0.6,0.8-1.3,1.5-2,2.2c1.7,0.7,3.4,1.4,5.1,2.1
						c0-0.2,0.1-0.5,0.1-0.7c-1.7-1-3.5-2-5.2-3c-3,5.3-2.9,11.3-4.1,17.1c-0.8,3.8,5,5.4,5.8,1.6c1.1-5.2,0.9-10.9,3.5-15.7
						c1.9-3.4-3.3-6.4-5.2-3c-0.7,1.2-1,2.3-0.9,3.7c0.2,2.5,3.2,4,5.1,2.1c0.7-0.7,1.3-1.4,2-2.2c-1.7-1-3.3-1.9-5-2.9
						c-0.5,1.7-0.7,3.3-0.9,5.1c-0.3,2.8,3.4,3.7,5.1,2.1c0.5-0.5,1-0.9,1.6-1.4c-1.7-0.7-3.4-1.4-5.1-2.1c0,1.1-0.2,2-0.4,3.1
						C49.5,181.2,55.3,182.7,56.3,179L56.3,179z"/>
				</g>
			</g>
			<g>
				<g>
					<path class="st0" d="M44.2,200.2c0,0.1,0,0.1,0,0.2c0-0.3,0.1-0.5,0.1-0.8c0,0.3-0.1,0.5-0.2,0.8c0.1-0.2,0.2-0.5,0.3-0.7
						l-0.2,0.4c0,0,0.6-0.6,0.1-0.1c1.7,0.7,3.4,1.4,5.1,2.1c0-0.3,0-0.6,0-1c-0.1-1.6-1.3-3.1-3-3c-1.6,0.1-3.1,1.3-3,3
						c0,0.3,0,0.6,0,1c0,1.2,0.7,2.3,1.8,2.7c1.1,0.5,2.4,0.2,3.3-0.6c1.1-1.1,1.6-2.4,1.8-3.9c0.1-0.7-0.4-1.6-0.9-2.1
						s-1.4-0.9-2.1-0.9C45.5,197.2,44.4,198.5,44.2,200.2L44.2,200.2z"/>
				</g>
			</g>
			<g>
				<g>
					<path class="st0" d="M76.2,235.5c1-1.7,1.7-3.3,2.2-5.2c0.9-3.3-3.7-5.1-5.5-2.3c-0.3,0.4-0.6,0.9-0.8,1.3
						c1.9,0.5,3.7,1,5.6,1.5c0.1-0.6,0.2-1.3,0.3-1.9c-1.9-0.5-3.9-1.1-5.8-1.6c-1.8,8.3-3.5,16.6-5.1,25c-0.7,3.8,5,5.4,5.8,1.6
						c1.6-8.3,3.3-16.7,5.1-25c0.8-3.8-4.7-5.3-5.8-1.6c-0.4,1.3-0.5,2.1-0.5,3.5c-0.1,3.1,4.1,3.9,5.6,1.5c0.3-0.4,0.6-0.9,0.8-1.3
						c-1.8-0.8-3.7-1.5-5.5-2.3c-0.3,1.4-0.8,2.7-1.6,3.8C69.1,235.8,74.3,238.8,76.2,235.5L76.2,235.5z"/>
				</g>
			</g>
			<g>
				<g>
					<path class="st0" d="M77.9,222.1c0.2-0.7,0.5-1.5,0.7-2.2c-1.9-0.5-3.9-1.1-5.8-1.6c-0.1,0.6-0.3,1.1-0.4,1.7
						c1.9,0.5,3.9,1.1,5.8,1.6c0.8-3.6,1.7-7.3,2.4-10.9c0.6-2.8-2.8-5.3-5-2.9c-1.4,1.5-1.7,2.5-1.2,4.5c0.8,3.3,5.9,2.6,5.9-0.8
						c0-5.3,0-10.6,0.1-15.9c0-3.9,0.5-7.4-2.1-10.5c-1.7-1.9-5.3-0.4-5.1,2.1c0.4,7,0.8,14,1.1,21.1c1.9-0.5,3.7-1,5.6-1.5
						c0.1-0.4,0.1-0.8,0.2-1.2c1.3-3.6-4.5-5.2-5.8-1.6c-0.8,2.2-0.5,3.8,0.4,5.8c1.2,2.7,5.7,1.3,5.6-1.5c-0.3-7-0.7-14-1.1-21.1
						c-1.7,0.7-3.4,1.4-5.1,2.1c1.6,1.9,0.3,8.5,0.3,11c0,3.7,0,7.5,0,11.2c2-0.3,3.9-0.5,5.9-0.8c-0.1-0.3-0.1-0.6-0.2-0.9
						c-0.3,1-0.5,1.9-0.8,2.9c0.2-0.2,0.4-0.5,0.6-0.7c-1.7-1-3.3-1.9-5-2.9c-0.8,3.7-1.6,7.3-2.4,10.9c-0.9,3.8,4.9,5.4,5.8,1.6
						c0.1-0.6,0.3-1.1,0.4-1.7c0.9-3.8-4.6-5.3-5.8-1.6c-0.2,0.7-0.5,1.5-0.7,2.2C70.9,224.2,76.7,225.8,77.9,222.1L77.9,222.1z"/>
				</g>
			</g>
			<g>
				<g>
					<path class="st0" d="M78.8,186.8c0-0.6,0-1.3,0-1.9c0-2.8-4.3-4.3-5.6-1.5c-0.2,0.4-0.4,0.8-0.5,1.2c1.9,0.5,3.7,1,5.6,1.5
						c0.3-3.2,0.3-6.4,0.3-9.7c-0.1-3.3-5.2-4.2-5.9-0.8c-0.3,1.6-0.3,3,0,4.6c0.6,3,5.1,2.8,5.8,0c1-4.1,0.4-7.9-0.6-12
						c-0.9-3.7-6.7-2.2-5.8,1.6c0.7,2.9,1.4,5.7,0.6,8.8c1.9,0,3.9,0,5.8,0c0-0.5,0-1,0-1.4c-2-0.3-3.9-0.5-5.9-0.8
						c0.1,3.2,0,6.5-0.3,9.7c-0.2,2.9,4.3,4.2,5.6,1.5c0.2-0.4,0.4-0.8,0.5-1.2c-1.9-0.5-3.7-1-5.6-1.5c0,0.6,0,1.3,0,1.9
						C72.9,190.7,78.9,190.7,78.8,186.8L78.8,186.8z"/>
				</g>
			</g>
			<g>
				<g>
					<path class="st0" d="M69.6,157.4c-0.1,0.7-0.3,1.5-0.3,2.2s0.1,1.6,0.4,2.3c0.5,1.5,1.2,2.6,2.3,3.8c-0.5-0.9-1-1.8-1.5-2.6
						v0.1c0.2-1.5,0.4-3.1,0.6-4.6c0,0,0,0,0,0.1c1.2-0.9,2.4-1.8,3.6-2.8c0,0,0,0-0.1,0c1.1,0,2.1,0,3.2,0c0,0,0,0-0.1,0
						c1.2,0.9,2.4,1.8,3.6,2.8c0,0,0,0,0-0.1c-0.6-1.3-2.2-2.4-3.6-2.8c-1.4-0.4-3.3-0.2-4.6,0.6c-1.3,0.8-2.4,2.1-2.8,3.6
						c-0.1,0.5-0.1,1.1-0.2,1.6c0,1.1,0.3,2.1,0.8,3c0.1,0.3,0.3,0.5,0.5,0.7c0.4,0.7,1,1.2,1.7,1.5c0.4,0.2,1.1,0.5,1.5,0.6
						c1,0.3,2.3,0.3,3.3,0c1.3-0.4,2.3-1.1,3.1-2.2c1.2-1.5,1.6-3.5,1.1-5.4c-0.3-1.3-1.1-2.1-1.9-3.1c0.3,0.4,0.6,0.8,0.9,1.2
						c-0.1-0.2-0.2-0.4-0.3-0.5c0.2,0.5,0.4,1,0.6,1.4c-0.1-0.3-0.2-0.5-0.2-0.8c0.1,0.5,0.1,1.1,0.2,1.6c0-0.2,0-0.4,0-0.6
						c-0.1,0.5-0.1,1.1-0.2,1.6c0-0.1,0-0.1,0-0.2c0.3-0.8,0.3-1.6,0.1-2.4c0-0.8-0.3-1.5-0.7-2.2c-0.7-1.2-2.2-2.4-3.6-2.8
						c-1.5-0.3-3.3-0.3-4.6,0.6C71.1,154.6,69.8,155.9,69.6,157.4L69.6,157.4z"/>
				</g>
			</g>
		</g>
		<g>
			<g>
				<g>
					<g>
						<g>
							<g>
								<g>
									<g>
										<path class="st0" d="M37.9,279c3.7,0.2,7.4,0.4,11.1,0.9c0.8,0.1,0.8-1.1,0-1.2c-3.7-0.4-7.4-0.7-11.1-0.9
											C37.1,277.8,37.1,279,37.9,279L37.9,279z"/>
									</g>
								</g>
								<g>
									<g>
										<path class="st0" d="M38.3,278.5c1.3-21.9,2.9-43.8,4.7-65.6c0.1-0.8-1.1-0.8-1.2,0c-1.8,21.9-3.4,43.7-4.7,65.6
											C37.1,279.3,38.3,279.3,38.3,278.5L38.3,278.5z"/>
									</g>
								</g>
							</g>
							<g>
								<g>
									<g>
										<path class="st0" d="M53.7,136.9c0.1-7.6,0.1-16,3.8-22.9c4.2-7.9,12.4-8.6,20.4-8.4c0.8,0,0.8-1.2,0-1.2
											c-7.3-0.2-15,0.2-19.9,6.4c-5.5,7.1-5.5,17.5-5.6,26C52.5,137.7,53.7,137.7,53.7,136.9L53.7,136.9z"/>
									</g>
								</g>
								<g>
									<g>
										<g>
											<path class="st0" d="M51.2,279c2.7-22.1,5-44.2,8.2-66.3c0.1-0.8-1-1.1-1.2-0.3C55,234.5,52.6,256.8,50,279
												C49.9,279.7,51.1,279.7,51.2,279L51.2,279z"/>
										</g>
									</g>
									<g>
										<g>
											<path class="st0" d="M59.2,213.4c4.5-14.4,8.1-29.1,11.8-43.7c0.2-0.7-1-1.1-1.2-0.3C66,184,62.5,198.7,58,213.1
												C57.9,213.8,59,214.1,59.2,213.4L59.2,213.4z"/>
										</g>
									</g>
									<g>
										<g>
											<path class="st0" d="M62.9,156.3c2.5,5.5,4.8,11.5,11.1,13.3c0.7,0.2,1.1-0.9,0.3-1.2c-5.9-1.8-8.1-7.7-10.4-12.8
												C63.7,155,62.6,155.6,62.9,156.3L62.9,156.3z"/>
										</g>
									</g>
									<g>
										<g>
											<path class="st0" d="M71.2,169.4c-0.1-0.2,0-0.4,0.1-0.6c0.5-0.6-0.6-1.2-1-0.6c-0.3,0.4-0.4,1-0.2,1.5
												C70.2,170.4,71.4,170.1,71.2,169.4L71.2,169.4z"/>
										</g>
									</g>
									<g>
										<g>
											<path class="st0" d="M42.9,213.8c1.9-26,6.9-51.8,10.9-77.5c0.1-0.8-1-1.1-1.2-0.3c-4,25.8-9,51.7-10.9,77.8
												C41.6,214.6,42.8,214.6,42.9,213.8L42.9,213.8z"/>
										</g>
									</g>
									<g>
										<g>
											<path class="st0" d="M65.3,264.1c3.8-16.3,6.8-32.9,9-49.5c0.1-0.8-1.1-0.8-1.2,0c-2.2,16.5-5.2,32.9-9,49.2
												C64,264.5,65.2,264.8,65.3,264.1L65.3,264.1z"/>
										</g>
									</g>
									<g>
										<g>
											<path class="st0" d="M74.2,215.7c0.9-15.5-1.4-31.3-2.6-46.8c-0.1-0.8-1.3-0.8-1.2,0c1.2,15.5,3.4,31.3,2.6,46.8
												C72.9,216.5,74.1,216.5,74.2,215.7L74.2,215.7z"/>
										</g>
									</g>
								</g>
							</g>
						</g>
					</g>
				</g>
			</g>
			<g>
				<g>
					<path class="st0" d="M80,263.7c2.8-27.9,2.8-56,3.3-84c0.3-13.9,0.6-27.7,1.5-41.5c0.7-11.5,1.8-23.6-5.5-33.4
						c-0.5-0.6-1.5,0-1,0.6c8.2,10.9,5.8,25,5.1,37.7c-0.8,13.5-1.1,27-1.3,40.6c-0.5,26.7-0.6,53.5-3.3,80.1
						C78.7,264.5,79.9,264.5,80,263.7L80,263.7z"/>
				</g>
			</g>
			<g>
				<g>
					<path class="st0" d="M64.8,264.7c3.4,0.5,6.9,1.4,10.4,1.5c1.7,0,3.7-0.3,4.1-2.2c0.2-0.8-1-1.1-1.2-0.3
						c-0.6,2.8-11.1,0.2-13-0.1C64.4,263.4,64.1,264.6,64.8,264.7L64.8,264.7z"/>
				</g>
			</g>
			<g>
				<g>
					<path class="st0" d="M73,169.8c2.5,0.7,7.2,2.2,9.4,0c0.5-0.6-0.3-1.4-0.8-0.8c-1,1-2.8,0.6-4.1,0.5c-1.4-0.2-2.8-0.5-4.1-0.8
						C72.6,168.4,72.2,169.6,73,169.8L73,169.8z"/>
				</g>
			</g>
		</g>
	</g>
	<g>
		<g>
			<g>
				<g>
					<path class="st0" d="M134.6,149.4c3.4-2,4.1-7,0.1-8.9c-3.5-1.6-7.8,1.6-6,5.4c4.7,9.8,17.5-10.6,7.1-10.7
						c-2.3,0-3.7,2.6-2.6,4.5c3,5.4,9.2,1.6,8.9-3.7c-1.7,0.7-3.4,1.4-5.1,2.1c0.6,0.6,1.2,1,1.9,1.4c1.5,0.8,3.2,0.3,4.1-1.1
						c0.5-0.8,0.8-1.4,1.1-2.2c-1.2,0.7-2.5,1.4-3.7,2.1c9.2,1.5,4.5-17.4,2.8-21.8c-1.6-4-4.1-7.5-7.7-9.9c-4.5-3-8.4-1.9-13.3-2.5
						c-0.9-0.1-2.2,0.6-2.6,1.5c-3,7-4.9,14.5-2,21.8c2.1,5.4,6.5,12.1,11.6,15.1c4.9,2.9,10.4,1.3,10.8-4.7
						c0.4-5.4-1.6-14.9-6.8-17.6c-5.6-2.9-7.9,4.7-7.4,8.7c0.6,5.3,4.7,14.2,10.3,15.6c6.4,1.7,5.9-6.5,5-10.3
						c-1-4.2-4.1-15.1-9.7-14.5c-1.3,0.1-2.6,0.8-2.9,2.2c-0.9,4,1.5,11.8,5.8,13.3c6.4,2.4,5.6-7.6,4.9-10.9c-0.9-3.6-5.2-11-9-5
						c-2.6,4.1,1.9,11,5.5,13c1.3,0.7,2.5,0.4,3.6-0.5c5.3-4.1-1.1-14-4.5-17.4c-1.8-1.8-5.2-0.5-5.1,2.1c0.1,4.1,1.2,7.6,3.5,10.9
						c1.7,2.5,5.4,1.5,5.6-1.5c0.3-4-1-14-6.7-14.1c-5.9-0.1-5.9,8.9-3.4,12.2c3,4,8.8,2.9,9.3-2.3c0.5-5-3.4-10.7-8.7-11
						c-6.5-0.3-6.2,6.5-3.5,10.5c2.9,4.4,8.8,4.2,9.5-1.6c0.4-3.5-2-12.3-7.1-11.1c-5.5,1.4-3.7,12.1-2.7,15.8
						c0.6,2.4,3.3,2.7,5,1.3c4-3.2,2.6-11.8-1-15c-5.1-4.5-7.6,4.3-8,7.7c-0.3,3.5,1.3,13.5,7.2,8.3c4.5-4,2.3-12.7-0.7-16.8
						c-1.4-1.9-4.9-2-5.5,0.7c-1.3,5.9-1,11.7,0.4,17.6c1.2,5.5,2.7,11.9,6.5,16.3c2.4,2.9,7.3,6.7,11.3,5.5
						c4.8-1.4,2.8-7.5,2.8-11.1c-2,0.3-3.9,0.5-5.9,0.8c0.4,1.3,0.8,2.5,1.3,3.8c1.1,3.4,5.5,2.5,5.9-0.8c0.3-2.2,0.4-4.3,0.3-6.5
						c-2,0.3-3.9,0.5-5.9,0.8c0.4,1.3,0.7,2.4,0.9,3.7c0.5,3.7,5.5,2.2,5.9-0.8c0.1-1.1,0-1.7-0.2-2.8c-1.9,0.5-3.9,1.1-5.8,1.6
						c0.1,0.5,0.2,1.1,0.3,1.6c0.6,3.4,5.8,2.5,5.9-0.8c0.1-1.1,0.1-2.2-0.1-3.3c-0.3-3.1-5.3-4.4-5.9-0.8
						c-0.8,5.2,1.4,10.5,2.1,15.7c1,7.2,2,14.5,3,21.8c1.9-0.5,3.9-1.1,5.8-1.6c-2.4-7.1-4.7-14.3-7.1-21.4c-1-3-6.3-2.7-5.9,0.8
						c0.9,7.7,2.4,15.4,4.2,22.9c0.9,3.9,6.3,2.1,5.8-1.6c-1.5-10.2-4.4-19.9-8.8-29.2c-1.3-2.8-5.7-1.3-5.6,1.5
						c0.2,10.3,4,20.9,6.4,30.8c0.8,3.2,6.1,2.6,5.9-0.8c-0.7-9.8-3.3-19.2-7.7-28c-1.6-3.1-6.2-0.9-5.5,2.3
						c2.2,9.6,4.3,19.2,6.5,28.9c0.9,3.8,6.4,2.1,5.8-1.6c-1.3-8-3.7-15.5-7.2-22.8c-1.2-2.6-5.9-1.4-5.6,1.5
						c0.9,7.9,2.6,15.7,4.4,23.5c0.9,3.8,6.4,2.1,5.8-1.6c-1.1-6.3-2.9-12.3-5.5-18.2c-1.5-3.4-5.9-0.7-5.5,2.3
						c0.8,5.7,2,11.3,3.6,16.8c0.9,3.1,6.2,2.7,5.9-0.8c-0.4-4-1.1-7.8-2.4-11.6c-1-3.1-6-2.8-5.9,0.8c0.2,5.5,2.6,10.8,2.3,16.3
						c2-0.3,3.9-0.5,5.9-0.8c-3.5-12.9-7.4-25.7-11.6-38.3c-1.2-3.7-6.6-2.2-5.8,1.6c1.1,5.4,3.7,9.9,7.6,13.7
						c1.9,1.8,5.1,0.5,5.1-2.1c0.1-5.7-1.5-10.8-4.8-15.4c-1.1-1.5-3.3-2.1-4.7-0.6c-2.6,2.8-1.5,4.9-1.3,8.4c0.2,4-1.7,8-1.8,12
						c-0.1,2.5,0.3,5.1,2.8,6.2c2.2,0.9,4.1,0.1,5.3-1.9c1.5-2.4-0.9-4.8-3.4-4.4c-4.8,0.9-6.1,5-6.6,9.4c-0.4,3.4,4,3.5,5.6,1.5
						c1-1.3,1.5-2.5,1.8-4.1c0.6-3.7-4.9-5.4-5.8-1.6c-1,4.6-1.9,9.2-2.7,13.9c-0.5,3.1,3.8,5.6,5.5,2.3c2.2-4.3,2.7-8.6,1.7-13.3
						c-0.7-3.2-4.8-2.5-5.8,0c-1.3,3.1-2.2,6.2-2.9,9.5c2,0.3,3.9,0.5,5.9,0.8c0-2.6,0-5.2,0-7.7c0-3.3-5.2-4.2-5.9-0.8
						c-0.4,2.3-0.7,4.5-0.7,6.9c0,3.9,5.6,3.8,6,0c0.3-2.8,0.3-5.5,0.1-8.2c-0.3-3.1-5.2-4.4-5.9-0.8c-0.3,1.9-0.5,3.6-0.4,5.6
						c0.3,3.9,5.6,3.8,6,0c0.2-2.1,0.3-4.1,0.2-6.1c-0.2-3.2-5.3-4.3-5.9-0.8c-0.4,2.3-0.6,4.6-0.6,7c0.1,3.9,5.9,3.9,6,0
						c0.1-3.5,0.1-6.9-0.1-10.4c-0.2-3.8-6-3.9-6,0c0,2,0,4-0.1,6c2,0,4,0,6,0c-0.4-7.6-0.4-15-0.4-22.6c0-8.2-2.7-15.5-0.9-23.7
						c0.8-3.9-4.4-5.1-5.8-1.6c-2.5,6.2-0.9,12.2,1.3,18.2c1.3,3.6,7.1,2.1,5.8-1.6c-1.8-5-3.4-9.8-1.3-15c-1.9-0.5-3.9-1.1-5.8-1.6
						c-1.8,8.2-0.1,15.4,0.6,23.5c0.3,3.8-0.3,7.6-0.1,11.4c0.2,4.3,0.4,8.7,0.7,13c0.2,3.8,6,3.9,6,0c0-2,0-4,0.1-6c-2,0-4,0-6,0
						c0.2,3.5,0.2,6.9,0.1,10.4c2,0,4,0,6,0c0-1.9,0.1-3.5,0.4-5.4c-2-0.3-3.9-0.5-5.9-0.8c0.1,2.1,0,4.1-0.2,6.1c2,0,4,0,6,0
						c-0.2-1.3-0.1-2.7,0.2-4c-2-0.3-3.9-0.5-5.9-0.8c0.2,2.8,0.2,5.5-0.1,8.2c2,0,4,0,6,0c0-1.8,0.1-3.4,0.5-5.3
						c-2-0.3-3.9-0.5-5.9-0.8c0,2.6,0,5.2,0,7.7c0,3.3,5.2,4.2,5.9,0.8c0.7-3.3,1.7-6.4,2.9-9.5c-1.9,0-3.9,0-5.8,0
						c0.7,3.1,0.3,5.8-1.1,8.7c1.8,0.8,3.7,1.5,5.5,2.3c0.8-4.7,1.6-9.3,2.7-13.9c-1.9-0.5-3.9-1.1-5.8-1.6c0,1.1-0.4,2-1.2,2.7
						c1.9,0.5,3.7,1,5.6,1.5c-0.2-1.7,0.6-2.9,2.2-3.6c-1.1-1.5-2.3-2.9-3.4-4.4c2.5,0.6,3.6-0.1,3.1-2.1c0.1-0.9,0.2-1.7,0.3-2.6
						c0.3-1.8,0.8-3.6,1.1-5.5c0.2-1-0.5-6.8-0.1-7.3c-1.6-0.2-3.1-0.4-4.7-0.6c2.8,3.8,4,7.6,4,12.4c1.7-0.7,3.4-1.4,5.1-2.1
						c-3.3-3.2-5.1-6.6-6.1-11.1c-1.9,0.5-3.9,1.1-5.8,1.6c4.2,12.7,8.1,25.4,11.6,38.3c0.9,3.3,5.7,2.5,5.9-0.8
						c0.2-5.6-2.1-10.8-2.3-16.3c-2,0.3-3.9,0.5-5.9,0.8c1.1,3.3,1.9,6.5,2.2,10c2-0.3,3.9-0.5,5.9-0.8c-1.5-5.5-2.7-11.1-3.6-16.8
						c-1.8,0.8-3.7,1.5-5.5,2.3c2.3,5.4,3.9,11,4.9,16.8c1.9-0.5,3.9-1.1,5.8-1.6c-1.6-7.3-3.3-14.5-4.1-21.9
						c-1.9,0.5-3.7,1-5.6,1.5c3.2,6.8,5.4,13.9,6.6,21.3c1.9-0.5,3.9-1.1,5.8-1.6c-2.2-9.6-4.3-19.2-6.5-28.9
						c-1.8,0.8-3.7,1.5-5.5,2.3c3.9,7.9,6.3,16.2,6.9,25c2-0.3,3.9-0.5,5.9-0.8c-2.3-9.4-6-19.5-6.2-29.2c-1.9,0.5-3.7,1-5.6,1.5
						c4.1,8.8,6.8,18.1,8.1,27.8c1.9-0.5,3.9-1.1,5.8-1.6c-1.6-7.1-3.1-14.2-4-21.4c-2,0.3-3.9,0.5-5.9,0.8
						c2.4,7.1,4.7,14.3,7.1,21.4c1.2,3.8,6.3,2.1,5.8-1.6c-0.8-5.9-1.6-11.9-2.4-17.8c-0.3-2.4-0.6-4.8-1-7.2
						c-0.4-2.7-2-6.5-1.6-9.3c-2-0.3-3.9-0.5-5.9-0.8c0.2,1.1,0.2,2.2,0.1,3.3c2-0.3,3.9-0.5,5.9-0.8c-0.1-0.5-0.2-1.1-0.3-1.6
						c-0.7-3.8-6.4-2.2-5.8,1.6c0,0.4,0,0.8-0.1,1.2c2-0.3,3.9-0.5,5.9-0.8c-0.2-1.3-0.4-2.5-0.9-3.7c-1-3.1-6-2.7-5.9,0.8
						c0.1,2.2,0,4.3-0.3,6.5c2-0.3,3.9-0.5,5.9-0.8c-0.4-1.3-0.8-2.5-1.3-3.8c-1.1-3.1-5.9-2.7-5.9,0.8c0,1.3-0.2,3.3,0.1,4.5
						c-0.3,1.5,0,1.9,0.8,1.1c1.3-0.5,0.8-1-1.4-1.3c-3.4-2-5-5.2-6.1-8.8c-2.3-7.2-4.2-14.7-2.5-22.2c-1.8,0.2-3.7,0.5-5.5,0.7
						c0.7,0.9,4.3,8.3,2,9c1,0.3,1.9,0.5,2.9,0.8c-0.4-0.4-0.6-7.1,0.6-7.6c-1,0-2,0-3,0c0.3,0.1,2.5,5,1,6.3c1.7,0.4,3.3,0.9,5,1.3
						c-0.4-1.3-0.7-2.6-0.8-4s0-2.7,0.2-4c-2.8-0.8-3.4-0.2-1.8,1.9c0.1,2.4,0.3,2.7,0.7,1c0.3-1.7,0.8-1.5,1.6,0.7
						c0.9,2.1,0.9,2.2,0.1,0.1c1.1,2.6,1.6,4.7,1.4,7.5c1.9-0.5,3.7-1,5.6-1.5c-1.7-2.6-2.5-4.8-2.6-7.9c-1.7,0.7-3.4,1.4-5.1,2.1
						c0.9,0.9,6.2,7.6,4.5,8.9c1.2-0.2,2.4-0.3,3.6-0.5c-1.5-0.8-1.7-2.9-2.8-3.8c-0.3-1.5-0.8-1.3-1.6,0.4
						c-1.3,0.7-1.5,1.7-0.8,2.9c0.1,0.8,0.2,1.6,0.2,2.5c0.8,0,1.6,0,2.5-0.1c0,0-2.1-5-2-5.6c-1,0.7-1.9,1.5-2.9,2.2
						c-0.1,0,2.7,6.4,3,7c0.4,1.2,0.5,2.8,1.1,3.9c0.7,1.4,2.6,3.3,0.8,0.8c-1.9-2.7-4-5.3-4.5-8.6c0-0.9,0-1.9,0-2.8
						c-0.6,0.5-0.7,1-0.1,1.5c0.6,1.6,1.4,2.9,1.8,4.6c0.2,0.9,1,3.3,0.5,4.1c-1.4,2.7-3.4,0.1-4.5-1c-1.7-1.8-3.1-4-4.5-6.2
						c-4.1-6.7-3.3-13.3-0.3-20.3c-0.9,0.5-1.7,1-2.6,1.5c2.4,0.3,4.8-0.4,7.2,0.2c3,0.8,5.4,3.2,7,5.8c1.4,2.4,2.2,5.2,2.6,7.9
						c0.2,1.1,1.5,8.8,0.7,9.4c1-0.3,1.9-0.5,2.9-0.8c-0.2,0-0.4-0.1-0.6-0.1c-1.7-0.3-3.1,0.4-3.7,2.1c-0.2,0.3-0.3,0.5-0.5,0.8
						c1.4-0.4,2.7-0.7,4.1-1.1c-0.2-0.2-0.5-0.3-0.7-0.5c-1.8-1.7-5.3-0.6-5.1,2.1c0.8,0.2,1.5,0.4,2.3,0.6c-0.9,1.5-1.7,3-2.6,4.5
						c-0.4-0.2-0.8-0.3-1.2-0.5c-0.3-1-0.5-1.9-0.8-2.9c-0.1,0.8-0.3,1.5-0.6,2.2c-0.7,1.3-0.3,2.5,1.1,3.6c-0.5,0.9-1,1.7-1.5,2.6
						c-0.5-0.6-0.9-1.3-1.4-1.9C128.3,146.2,131.3,151.4,134.6,149.4L134.6,149.4z"/>
				</g>
			</g>
			<g>
				<g>
					<path class="st0" d="M125.1,146.6c3.9,0,3.9-6,0-6S121.2,146.6,125.1,146.6L125.1,146.6z"/>
				</g>
			</g>
			<g>
				<g>
					<path class="st0" d="M124.5,138.4c-0.6,1.6-1.2,3.2-1.8,4.8c1.9,0.5,3.9,1.1,5.8,1.6c0.6-3.5,0.9-7,1.1-10.5
						c0.1-2.7-3.3-3.8-5.1-2.1c-2.1,1.9-2,4.1-2.2,6.8c-0.4,4-0.8,8-1.2,11.9c-0.4,3.9,5.5,3.8,6,0c0.3-2.7,0.5-5.2,0.2-7.8
						c-0.5-3.7-6.4-3.9-6,0c0.5,4.8,0.3,9.4-0.5,14.1c-0.5,2.9,2.7,5.1,5,2.9c3.6-3.4,6.1-7.6,8.5-11.8c2.8-4.8,5.9-9.6,8.3-14.6
						c1.1-2.5-0.7-4.9-3.4-4.4c-5,0.9-8.8,5.2-11.5,9.3c-2.4,3.7-5.8,10-5.1,14.6c0.3,1.9,2.9,2.7,4.4,1.8c0.1,0,0.1-0.1,0.2-0.1
						c1.3-0.9,2-2.7,1.1-4.1c0-0.1-0.1-0.1-0.1-0.2c-2-3.3-7.2-0.3-5.2,3c0,0.1,0.1,0.1,0.1,0.2c0.4-1.4,0.7-2.7,1.1-4.1
						c-0.1,0-0.1,0.1-0.2,0.1c1.5,0.6,2.9,1.2,4.4,1.8c-0.1-0.7,1.1-2.7,1.4-3.6c0.8-2,1.6-3.9,2.7-5.7c1.9-3.1,4.6-6.5,8.3-7.2
						c-1.1-1.5-2.3-2.9-3.4-4.4c-2.1,4.5-4.8,8.7-7.3,13s-4.9,8.7-8.6,12.2c1.7,1,3.3,1.9,5,2.9c0.9-5.2,1.2-10.4,0.7-15.7
						c-2,0-4,0-6,0c0.3,2.7,0.1,5.2-0.2,7.8c2,0,4,0,6,0c0.2-2.5,0.5-4.9,0.7-7.4c0.1-1.4-0.2-6.2,0.9-7.2c-1.7-0.7-3.4-1.4-5.1-2.1
						c-0.1,3-0.4,5.9-0.9,8.9c-0.6,3.8,4.4,5.3,5.8,1.6c0.6-1.6,1.2-3.2,1.8-4.8C131.6,136.4,125.8,134.8,124.5,138.4L124.5,138.4z"
						/>
				</g>
			</g>
			<g>
				<g>
					<path class="st0" d="M148.7,186.4c1.4-2.8,2.1-5.4,1.7-8.5c-0.4-3-5.2-4.4-5.9-0.8c-0.3,1.7-0.4,2.3-0.2,4
						c0.3,2.6,4.2,4.5,5.6,1.5c1.1-2.4,1.7-4.5,1.5-7.2c-2,0.3-3.9,0.5-5.9,0.8c0.3,1,0.5,1.9,0.8,2.9c0.9,3.5,5.5,2.4,5.9-0.8
						c0.2-1.9,0.1-2.3-0.3-4.1c-0.9-3.8-6.4-2.1-5.8,1.6c0.1,1.1,0.3,2.1,0.8,3.1c1.1,3,6,2.8,5.9-0.8c-0.1-1.8-0.2-2.6-0.6-4.4
						c-0.7-2.7-5.4-3-5.8,0c-0.5,3.4-0.9,6.7-1.4,10.1c1.9,0,3.9,0,5.8,0c-1.1-2.6-2.1-5.1-3.2-7.7c-1-2.4-5.2-3.3-5.8,0
						c-0.7,3.8-1,7.5-0.8,11.4c2-0.3,3.9-0.5,5.9-0.8c-0.7-2.9-1.6-5.6-2.9-8.3c-1.4-2.9-5.4-1.2-5.6,1.5c-0.3,3.9-0.1,7.7,0.5,11.6
						c1.9-0.5,3.9-1.1,5.8-1.6c-0.4-2.3-1-4.6-1.8-6.8c-1.2-3.3-5.6-2.6-5.9,0.8c-0.3,2.9-0.1,5.6,0.3,8.5c1.5-1.1,2.9-2.3,4.4-3.4
						c0.9,0.6,0.1-0.9,0-1.4c-0.2-1.5-0.6-2.9-0.8-4.4c-0.5-2.6-1-5.3-1.5-7.9c-0.6-3.2-4.9-2.5-5.8,0c-1.8,4.9,2,10.3,3.8,14.7
						c2.7,6.3,5.3,12.6,8,18.9c1.2,2.8,6,2.9,5.9-0.8c-0.2-5.5-1.3-10.7-3.4-15.7c-1.2-2.8-6.1-2.9-5.9,0.8c0.3,5.6,1,11,2.2,16.5
						c1.9-0.5,3.9-1.1,5.8-1.6c-0.7-2-1.3-4-2-6c-1-3.2-5.8-2.7-5.9,0.8c-0.1,3.3,0.1,6.5,0.5,9.8c2-0.3,3.9-0.5,5.9-0.8
						c-1.5-6.4-3.1-12.8-4.6-19.1c-0.7-2.8-5.2-2.9-5.8,0c-0.3,1.6-0.4,2.1-0.2,3.7c2-0.3,3.9-0.5,5.9-0.8c-0.3-1.7-0.5-2.2-1.3-3.8
						c-1.5-3-6.5-0.9-5.5,2.3c2,6.6,4,13.2,6.1,19.8c0.9,3,4.8,2.7,5.8,0c1.1-3.1,0.9-6,0.4-9.2c-0.7-5-0.8-9.8,0.1-14.8
						c-1.9,0-3.9,0-5.8,0c1.6,4.8,3.4,9.5,5.4,14.2c1.2,2.9,5.6,1.2,5.6-1.5c0-5.5-0.9-10.9-1.9-16.3c-1.8,0.8-3.7,1.5-5.5,2.3
						c0.7,1.7,1.4,3.4,2.2,5.1c1.2,2.8,5.8,1.3,5.6-1.5c-0.3-4.7-0.9-9.3-1.8-14c-0.5-2.8-5.4-2.9-5.8,0c-1.1,7.6,1,15.1,2.4,22.6
						c0.5,2.9,5.2,2.9,5.8,0c0.5-2.6,0.5-5,0-7.6c-0.7-3.4-5.8-2.5-5.9,0.8c-0.1,4.7,0.2,9.4,0.9,14c0.5,3.4,5.9,2.5,5.9-0.8
						c0-1.9-0.2-3.5-0.8-5.3c-1-3.4-5.7-2.5-5.9,0.8c-0.3,3.8-0.1,7.5,0.5,11.3c0.5,3.4,6,2.5,5.9-0.8c-0.1-2.4-0.4-4.7-1-7
						c-0.7-2.7-5.3-3-5.8,0c-0.7,4.6-1,9-0.7,13.7c0.3,3.8,6,3.9,6,0c0-3-0.2-5.8-0.7-8.7s-5.3-2.9-5.8,0c-0.6,3.9-0.9,7.7-0.6,11.7
						c0.3,3.8,5.8,3.9,6,0c0.1-3.2-0.2-6.2-1.2-9.4c-0.8-2.6-5.3-3.1-5.8,0c-0.4,3.1-0.4,5.9,0.2,9c0.7,3.4,5.9,2.5,5.9-0.8
						c0-2.8-0.4-5.3-1.3-7.9c-1.1-3.4-5.5-2.5-5.9,0.8c-0.3,2.7-0.4,5.3-0.1,8c2,0,4,0,6,0c-0.3-2.2-0.6-4.4-1.2-6.5
						c-1-3.4-5.7-2.5-5.9,0.8c-0.1,2-0.2,3.8-0.1,5.8c2-0.3,3.9-0.5,5.9-0.8c-0.5-2.4-1.1-4.8-1.7-7.1c-0.9-3.2-6.1-2.7-5.9,0.8
						c0.1,1.3,0.2,2.6,0.3,3.9c2,0,4,0,6,0c-0.1-0.8-0.1-1.7-0.2-2.5c-2,0.3-3.9,0.5-5.9,0.8c1.2,8.3,3,16.4,5.3,24.4
						c0.9,3.1,4.7,2.6,5.8,0c1.6-4,1.9-7.9,1.3-12.2c-1.9,0.5-3.9,1.1-5.8,1.6c0.4,1.9,0.9,3.8,1.3,5.7c0.6,2.8,5.3,3,5.8,0
						c0.3-2,0.5-3.8,0.3-5.9c-2,0.3-3.9,0.5-5.9,0.8c0.5,1.8,1,3.6,1.5,5.4c0.6,2.3,4.4,3.2,5.5,0.7c1.8-3.9,0.7-7.9,0.2-12.1
						c-0.6-4.9-1.3-9.8-1.9-14.7c-0.5-3.3-6.1-2.6-5.9,0.8c0.1,1.8,0.2,3.5,0.3,5.3c0.2,3.8,6,3.9,6,0c0-3.1,0-6.2,0-9.2
						c0-3.5-4.9-4-5.9-0.8c-3.1,9.7-0.6,19.8-1.9,29.7c2,0,4,0,6,0c-0.4-3.1-0.7-6.2-1.1-9.3c-0.3-3-5.4-4.5-5.9-0.8
						c-1.8,12.8,2.9,25.1,2,37.8c-0.3,3.4,5.1,4,5.9,0.8c1.4-5.4,1.5-10.6,0.6-16.1c-0.6-3.4-5.9-2.5-5.9,0.8
						c0.1,4.8,0.5,9.5,1.3,14.2c0.5,2.8,5.4,2.9,5.8,0c0.8-5.5,1-10.9,0.5-16.4c-2,0-4,0-6,0c0.3,2.3,0.5,4.6,0.8,6.9
						c0.4,3.9,5.5,3.8,6,0c0.5-4.4,0.3-8.6-0.6-12.9c-0.8-3.8-6.4-2.2-5.8,1.6c0.3,1.8,0.6,3.6,0.9,5.5c0.6,3.4,5.8,2.5,5.9-0.8
						c0.1-3.6,0.1-7.2,0.2-10.8c0.1-3.3-5.2-4.2-5.9-0.8c-0.9,4.2-1,11.5-4.6,14.5c1-0.3,1.9-0.5,2.9-0.8c0.1,0-0.3-9.3-0.3-10.5
						c-0.3-4.1-0.5-8.2-0.8-12.3c-2,0.3-3.9,0.5-5.9,0.8c1.4,8.7,2.7,17.3,4.1,26c1.1,7.2,1.6,14.8,5.2,21.2c0.9-1.5,1.7-3,2.6-4.5
						c-1.9-0.1-3.5,0.1-5.3,0.8c1.3,1,2.5,1.9,3.8,2.9c0.2-6.5,0-13-0.7-19.4c-0.4-3.8-5.9-4-6,0c0,1.1-0.1,2.1-0.1,3.2
						c-0.1,3.9,5.8,3.8,6,0c0.1-2-0.3-3.5-1.1-5.3c-1.2-2.7-5.8-1.3-5.6,1.5c0.3,3.8,0.7,7.5,1.3,11.3s6.3,2.2,5.8-1.6
						c-0.5-3.2-0.8-6.4-1.1-9.7c-1.9,0.5-3.7,1-5.6,1.5c0.1,0.7,0.2,1.5,0.3,2.2c2,0,4,0,6,0c0-1.1,0.1-2.1,0.1-3.2c-2,0-4,0-6,0
						c0.7,6.5,1,12.9,0.7,19.4c-0.1,1.8,2,3.6,3.8,2.9c1.2-0.6,2.4-0.8,3.7-0.6c2.3,0.1,3.6-2.6,2.6-4.5c-3.5-6.4-3.8-14.6-4.9-21.7
						c-1.3-8-2.5-16.1-3.8-24.1c-0.5-3.3-6.1-2.6-5.9,0.8c0.4,6,0.8,12,1.2,18c0.2,3.1-0.3,7.9,2.8,10c7.7,5,9.9-14,10.6-17.3
						c-2-0.3-3.9-0.5-5.9-0.8c-0.1,3.6-0.1,7.2-0.2,10.8c2-0.3,3.9-0.5,5.9-0.8c-0.3-1.8-0.6-3.6-0.9-5.5c-1.9,0.5-3.9,1.1-5.8,1.6
						c0.8,3.8,0.8,7.5,0.3,11.3c2,0,4,0,6,0c-0.3-2.3-0.5-4.6-0.8-6.9c-0.4-3.8-6.4-3.8-6,0c0.5,5,0.5,9.9-0.2,14.8
						c1.9,0,3.9,0,5.8,0c-0.7-4.2-1-8.3-1.1-12.6c-2,0.3-3.9,0.5-5.9,0.8c0.8,4.4,0.5,8.6-0.6,12.9c2,0.3,3.9,0.5,5.9,0.8
						c0.9-12.2-3.9-24.1-2.2-36.2c-2-0.3-3.9-0.5-5.9-0.8c0.4,3.1,0.7,6.2,1.1,9.3c0.4,3.9,5.5,3.8,6,0c1.2-9.4-1.2-19,1.7-28.1
						c-2-0.3-3.9-0.5-5.9-0.8c0,3.1,0,6.2,0,9.2c2,0,4,0,6,0c-0.1-1.8-0.2-3.5-0.3-5.3c-2,0.3-3.9,0.5-5.9,0.8
						c0.6,4.1,1.1,8.1,1.6,12.2c0.3,2.6,1.9,7.5,0.7,10c1.8,0.2,3.7,0.5,5.5,0.7c-0.5-1.8-1-3.6-1.5-5.4c-0.9-3.1-6.2-2.7-5.9,0.8
						c0.3,1.4,0.2,2.9-0.1,4.3c1.9,0,3.9,0,5.8,0c-0.4-1.9-0.9-3.8-1.3-5.7c-0.9-3.9-6.3-2.1-5.8,1.6c0.4,3.2-0.1,6.1-1.3,9
						c1.9,0,3.9,0,5.8,0c-2.3-8-4.1-16.1-5.3-24.4c-0.5-3.3-6.2-2.6-5.9,0.8c0.1,0.8,0.1,1.7,0.2,2.5c0.3,3.8,6.3,3.9,6,0
						c-0.1-1.3-0.2-2.6-0.3-3.9c-2,0.3-3.9,0.5-5.9,0.8c0.7,2.4,1.2,4.7,1.7,7.1c0.7,3.3,6.1,2.6,5.9-0.8c-0.1-2-0.1-3.8,0.1-5.8
						c-2,0.3-3.9,0.5-5.9,0.8c0.5,1.7,0.8,3.2,1,4.9c0.4,3.8,6.4,3.9,6,0c-0.3-2.7-0.3-5.3,0.1-8c-2,0.3-3.9,0.5-5.9,0.8
						c0.7,2.1,1,4.1,1,6.3c2-0.3,3.9-0.5,5.9-0.8c-0.5-1.9-0.5-3.9-0.2-5.8c-1.9,0-3.9,0-5.8,0c0.8,2.6,1.1,5,1,7.8c2,0,4,0,6,0
						c-0.2-3.4-0.2-6.7,0.4-10.2c-1.9,0-3.9,0-5.8,0c0.4,2.4,0.5,4.7,0.5,7.1c2,0,4,0,6,0c-0.3-4.1-0.2-8,0.4-12.1
						c-1.9,0-3.9,0-5.8,0c0.5,1.8,0.8,3.5,0.8,5.4c2-0.3,3.9-0.5,5.9-0.8c-0.5-3.2-0.5-6.4-0.3-9.7c-2,0.3-3.9,0.5-5.9,0.8
						c0.5,1.2,0.6,2.5,0.5,3.7c2-0.3,3.9-0.5,5.9-0.8c-0.6-4.1-0.8-8.3-0.7-12.4c-2,0.3-3.9,0.5-5.9,0.8c0.4,1.5,0.4,3,0,4.4
						c1.9,0,3.9,0,5.8,0c-1.2-6.2-3.3-13-2.4-19.4c-1.9,0-3.9,0-5.8,0c0.8,4.1,1.3,8.2,1.6,12.4c1.9-0.5,3.7-1,5.6-1.5
						c-0.7-1.7-1.4-3.4-2.2-5.1c-1.4-3.3-6.1-0.8-5.5,2.3c0.9,4.9,1.7,9.7,1.7,14.7c1.9-0.5,3.7-1,5.6-1.5
						c-1.8-4.2-3.4-8.4-4.8-12.7c-0.8-2.6-5.2-3.1-5.8,0c-0.7,3.9-1.1,7.9-0.9,11.9c0.3,4,1.7,8.2,0.3,12.1c1.9,0,3.9,0,5.8,0
						c-2-6.6-4-13.2-6.1-19.8c-1.8,0.8-3.7,1.5-5.5,2.3c0.2,0.8,0.5,1.5,0.7,2.3c0.6,3.3,6.3,2.6,5.9-0.8c0-0.7,0-1.4,0-2.1
						c-1.9,0-3.9,0-5.8,0c1.5,6.4,3.1,12.8,4.6,19.1c0.8,3.2,6.3,2.6,5.9-0.8c-0.4-3.3-0.6-6.5-0.5-9.8c-2,0.3-3.9,0.5-5.9,0.8
						c0.7,2,1.3,4,2,6c1.2,3.7,6.6,2.2,5.8-1.6c-1.1-4.9-1.7-9.9-2-14.9c-2,0.3-3.9,0.5-5.9,0.8c1.9,4.6,3,9.2,3.2,14.1
						c2-0.3,3.9-0.5,5.9-0.8c-2.1-5.1-4.3-10.2-6.4-15.3c-1-2.4-2-4.8-3-7.2c-0.9-2.1-3.2-5.5-2.3-7.9c-1.9,0-3.9,0-5.8,0
						c0.7,3.8,1.4,7.6,2.1,11.4c0.5,2.7,0.7,4.3,2.9,5.9c2.4,1.7,4.7-1.1,4.4-3.4c-0.3-2.4-0.3-4.5-0.1-6.9c-2,0.3-3.9,0.5-5.9,0.8
						c0.8,2.2,1.4,4.5,1.8,6.8c0.7,3.8,6.3,2.1,5.8-1.6c-0.5-3.3-0.5-6.6-0.3-10c-1.9,0.5-3.7,1-5.6,1.5c1.1,2.2,1.7,4.5,2.3,6.8
						c0.8,3.2,6.1,2.6,5.9-0.8c-0.2-3.3-0.1-6.5,0.6-9.8c-1.9,0-3.9,0-5.8,0c1.1,2.6,2.1,5.1,3.2,7.7c1,2.3,5.3,3.3,5.8,0
						c0.5-3.4,0.9-6.7,1.4-10.1c-1.9,0-3.9,0-5.8,0c0.1,0.9,0.3,1.9,0.4,2.8c2-0.3,3.9-0.5,5.9-0.8c-0.4-1-0.7-2-0.8-3.1
						c-1.9,0.5-3.9,1.1-5.8,1.6c0,0.8,0.1,1.7,0.1,2.5c2-0.3,3.9-0.5,5.9-0.8c-0.3-1-0.5-1.9-0.8-2.9c-0.8-3.2-6.1-2.6-5.9,0.8
						c0.3,1.4,0.1,2.8-0.6,4.2c1.9,0.5,3.7,1,5.6,1.5c0-0.8,0-1.6,0-2.4c-2-0.3-3.9-0.5-5.9-0.8c0.2,2.1,0.1,3.6-0.9,5.5
						C141.7,186.8,146.9,189.8,148.7,186.4L148.7,186.4z"/>
				</g>
			</g>
			<g>
				<g>
					<path class="st0" d="M158.8,268.4c0.2-1.5,0.2-2.5,0-3.9c-0.5-3.2-4.9-2.5-5.8,0c-0.6,1.7-0.4,2.6,0.4,4.2
						c1.1,2.1,5.1,1.9,5.5-0.7c1.1-7.2-0.2-15.3-1.2-22.5c-0.5-3.3-4.9-2.4-5.8,0c-1.4,3.6-1.5,7.2-1.5,10.9c0,4.3-0.5,8.1-1.2,12.3
						c-0.8,5.4,3.1,9.3,8.5,9.2c1.5,0,3.2-1.3,3-3c-0.3-2.3-0.5-4.7-0.8-7c-0.4-3.8-6.4-3.8-6,0c0.3,2.3,0.5,4.7,0.8,7c1-1,2-2,3-3
						c-4.3,0.1-2.1-4.2-1.8-6.4c0.2-1.6,0.4-3.2,0.4-4.8c0.2-4.7-0.4-9.2,1.3-13.6c-1.9,0-3.9,0-5.8,0c0.9,6,2.2,13.3,1.2,19.3
						c1.8-0.2,3.7-0.5,5.5-0.7c0.1,0.1,0.1,0.3,0.2,0.4c-1.9,0-3.9,0-5.8,0c0,0.2,0,0.5,0,0.7C152.4,270.6,158.2,272.2,158.8,268.4
						L158.8,268.4z"/>
				</g>
			</g>
			<g>
				<g>
					<path class="st0" d="M121.8,180.2c-1.3,4.9-2.4,9.8-3.3,14.8c2,0.3,3.9,0.5,5.9,0.8c0-6-0.2-11.9-0.7-17.8c-2,0-4,0-6,0
						c0.8,9,1.4,18,0.3,27c2,0,4,0,6,0c-0.1-2.6-0.1-5.1,0-7.7c0.1-3.3-5.4-4.2-5.9-0.8c-1,7.1,1.3,14.1,0.4,21.2c2,0,4,0,6,0
						c-0.2-2-0.3-4.1-0.5-6.1c-2,0.3-3.9,0.5-5.9,0.8c0.9,6.1,1.7,12.3,2.2,18.4c0.4,4.5,1.4,8.9,1.4,13.3c0,4.6,1.2,9.3,2,13.8
						c0.6,3.5,2,6,5.8,6.1c3.1,0.1,3.9-4,1.5-5.6c-0.8-0.5-0.8-6.7-1-8.1c-0.5-3-1.3-5.8-2.4-8.6c-1.3-3.2-5.5-2.6-5.9,0.8
						c-0.7,6.5-0.2,12.9,1.5,19.2c0.7-1.2,1.4-2.5,2.1-3.7c-0.6,0.2-1.3,0.3-1.9,0.5c1.2,0.7,2.5,1.4,3.7,2.1
						c-1.5-7.1-0.6-15.2-0.7-22.4c-0.1-3.3-5.2-4.2-5.9-0.8c-0.7,3.6-0.9,7.1-0.5,10.8c2,0,4,0,6,0c-0.6-5.1,0.9-10.1,0.2-15.1
						c-0.5-3.7-5.8-4-6,0c-0.1,2.3-0.2,4.5-0.3,6.8c2,0,4,0,6,0c0.1-6.4-0.3-12.7-1-19.1c-0.4-3.8-5.6-3.9-6,0
						c-0.4,4.2-0.2,8.3,0.5,12.4c0.6,3.8,6.4,2.2,5.8-1.6c-0.6-3.6-0.6-7.2-0.2-10.9c-2,0-4,0-6,0c0.7,6.3,1,12.7,1,19.1
						c0,3.9,5.8,3.8,6,0c0.1-2.3,0.2-4.5,0.3-6.8c-2,0-4,0-6,0c0.7,5.1-0.7,10.1-0.2,15.1c0.4,3.8,6.4,3.9,6,0
						c-0.3-3.1-0.3-6.1,0.3-9.2c-2-0.3-3.9-0.5-5.9-0.8c0.1,7.8-0.7,16.4,1,24c0.3,1.6,2.2,2.5,3.7,2.1c0.6-0.2,1.3-0.3,1.9-0.5
						c1.6-0.4,2.5-2.1,2.1-3.7c-1.5-5.8-1.9-11.6-1.2-17.6c-2,0.3-3.9,0.5-5.9,0.8c1.8,4.6,2.5,9.2,3.1,14.1
						c0.3,2.7,0.7,4.7,3.1,6.2c0.5-1.9,1-3.7,1.5-5.6c-0.5,0-2.1-19.1-2.6-21.5c-1.7-8.3-1.6-17.3-2.9-25.7
						c-0.5-3.3-6.2-2.6-5.9,0.8c0.2,2,0.3,4.1,0.5,6.1c0.3,3.9,5.5,3.8,6,0c0.9-6.6-1.5-13.1-0.6-19.6c-2-0.3-3.9-0.5-5.9-0.8
						c-0.1,2.6-0.1,5.1,0,7.7c0.2,4,5.5,3.7,6,0c1.2-9,0.5-18-0.3-27c-0.3-3.8-6.3-3.9-6,0c0.5,5.9,0.7,11.9,0.7,17.8
						c0,3.3,5.3,4.2,5.9,0.8c0.9-5,2-9.9,3.3-14.8C128.6,178.1,122.8,176.5,121.8,180.2L121.8,180.2z"/>
				</g>
			</g>
			<g>
				<g>
					<path class="st0" d="M128.1,141.3c2.5-1.7,3.4-4.4,1.7-7.1c-1.4-2.4-4.6-1.6-5.5,0.7c-1.8,4.8,4,6.3,7.2,4.1
						c5.4-3.6,4.3-10.7,2.2-15.8c-1.8,0.8-3.7,1.5-5.5,2.3c2.3,4.9,9.7,7,11.4,0.4c-1.8,0.2-3.7,0.5-5.5,0.7
						c1.4,2.3,3.1,3.6,5.7,4.2c1.7,0.4,4.1-0.8,3.8-2.9c-0.1-0.6-0.2-1.3-0.2-1.9c-1.5,0.9-3,1.7-4.5,2.6c0.5,0.5,1.1,1,1.6,1.4
						c1.6,1.8,4.4,0.7,5-1.3c0.1-0.4,0.3-0.8,0.4-1.3c-1.7,0.4-3.3,0.9-5,1.3c0.9,1,1.3,1.3,2.4,2c2.7,1.6,5.4-1.5,4.1-4.1
						c-1-1.9-2-3.9-2.9-5.8c-1.6,1.2-3.1,2.4-4.7,3.6c0.7,0.7,1.4,1.4,2.2,2.1c2.4,2.3,6.7-0.7,4.7-3.6c-1.2-1.8-2.2-3.5-3.1-5.5
						c-1.5,1.1-2.9,2.3-4.4,3.4c0.5,0.5,1.1,0.9,1.6,1.4c2.1,3.2,6.9,0.4,5.2-3c-1.5-3-3.4-5.6-5.6-8.1c-1.2,1.6-2.4,3.1-3.6,4.7
						c1.2,0.6,2.3,1.2,3.5,1.8c2.9,1.5,6.2-2.3,3.6-4.7c-2.8-2.7-5.9-4.4-9.7-5.5c0,1.9,0,3.9,0,5.8c1-0.3,2-0.4,3-0.4
						c3.4-0.1,4.1-5,0.8-5.9c-2.1-0.6-4.1-0.9-6.3-1.1c0.7,1.7,1.4,3.4,2.1,5.1c0.1,0,0.2,0,0.4-0.1c3.8-0.8,2.2-6.6-1.6-5.8
						c-1.3,0.3-2,0.7-3,1.6c-2.1,1.9-0.3,4.9,2.1,5.1c1.6,0,3.2,0.3,4.7,0.9c0.3-2,0.5-3.9,0.8-5.9c-1.6,0-3.1,0.2-4.6,0.6
						c-3,0.7-2.8,5,0,5.8s4.9,1.9,7,3.9c1.2-1.6,2.4-3.1,3.6-4.7c-1.2-0.6-2.3-1.2-3.5-1.8c-3.1-1.6-5.9,2.1-3.6,4.7
						c1.9,2.1,3.3,4.4,4.6,6.9c1.7-1,3.5-2,5.2-3c-1-1.6-2.1-2.6-3.7-3.6c-2-1.2-5.5,0.8-4.4,3.4c1,2.5,2.2,4.7,3.7,6.9
						c1.6-1.2,3.1-2.4,4.7-3.6c-0.7-0.7-1.4-1.4-2.2-2.1c-2.5-2.4-6.2,0.6-4.7,3.6c1,1.9,2,3.9,2.9,5.8c1.4-1.4,2.7-2.7,4.1-4.1
						c-0.4-0.4-0.8-0.7-1.2-1.1c-1.5-1.9-4.4-0.6-5,1.3c-0.1,0.4-0.3,0.8-0.4,1.3c1.7-0.4,3.3-0.9,5-1.3c-1-1.2-1.5-1.5-2.8-2.4
						c-1.8-1.1-4.8,0.3-4.5,2.6c0.1,0.6,0.2,1.3,0.2,1.9c1.3-1,2.5-1.9,3.8-2.9c-0.7-0.5-1.4-0.9-2.2-1.4c-1.3-2.1-4.8-1.9-5.5,0.7
						c-0.1-0.6-0.3-1.2-0.4-1.8c-1.4-3-6.8-0.9-5.5,2.3c0.6,1.6,1.3,3.1,1.5,4.9c0.3,0.8,0.3,1.6-0.1,2.4c-0.6,1.5-0.4,2.9,0.8,4.4
						c-1.8,0.2-3.7,0.5-5.5,0.7c0.1-0.4,0.3-0.7,0.4-1.1C121.9,138.3,124.9,143.5,128.1,141.3L128.1,141.3z"/>
				</g>
			</g>
			<g>
				<g>
					<path class="st0" d="M159.5,271.3c0,0,0-0.1-0.1-0.1c-0.4,1.4-0.7,2.7-1.1,4.1c0.1,0,0.1-0.1,0.2-0.1c-1.5-0.6-2.9-1.2-4.4-1.8
						c0.4,3.1,2.7,3.1,5,3.9c2.4,0.9,4.8-2.3,3.4-4.4c-0.8-1-1.4-2.1-1.6-3.4c-1.8,0.8-3.7,1.5-5.5,2.3c0.3,0.7,0.6,1.3,1.1,1.9
						c1.1,1.6,3.3,2,4.7,0.6c3.2-3.1-0.7-9.5-0.6-13.3c-2,0.3-3.9,0.5-5.9,0.8c0.4,1.1,0.9,2.2,1.3,3.3c1.4,3.5,6.6,2.3,5.8-1.6
						c-0.8-4.1-2.2-8.4-1.7-12.5c-2,0.3-3.9,0.5-5.9,0.8c0.7,2.1,1.3,4.2,2,6.3c1.2,3.7,7,2.1,5.8-1.6c-0.7-2.1-1.3-4.2-2-6.3
						c-1.1-3.4-5.5-2.5-5.9,0.8c-0.6,4.7,1,9.5,1.9,14.1c1.9-0.5,3.9-1.1,5.8-1.6c-0.4-1.1-0.9-2.2-1.3-3.3c-1.2-3-5.8-2.8-5.9,0.8
						c-0.1,1.8,0.1,3.5,0.5,5.2c0.2,1,0.6,5.1,1.8,3.9c1.6,0.2,3.1,0.4,4.7,0.6c-0.4-0.6-0.8-1.2-1.1-1.9c-1.5-3.1-6.3-0.9-5.5,2.3
						c0.5,1.8,1.1,3.3,2.2,4.8c1.1-1.5,2.3-2.9,3.4-4.4c-1.8-0.7-0.9-0.5-0.8,0.2c-0.3-2-2.9-2.6-4.4-1.8c-0.1,0-0.1,0.1-0.2,0.1
						c-1.4,0.7-1.9,2.8-1.1,4.1c0,0,0,0.1,0.1,0.1C156.5,277.5,161.7,274.5,159.5,271.3L159.5,271.3z"/>
				</g>
			</g>
			<g>
				<g>
					<path class="st0" d="M160,252.8c0.3-1.4,0.3-2.3,0.1-3.7c-1.8,0.8-3.7,1.5-5.5,2.3c0.2,0.5,0.5,0.9,0.7,1.4
						c1,2.1,4.1,1.8,5.2,0c0.8-1.4,0.6-2.5,0.2-4c-0.7-2.8-1.5-5.4-1.9-8.2c-1.9,0.5-3.9,1.1-5.8,1.6c0.7,2.2,1.5,4.3,2.7,6.4
						c1.6,2.9,6.6,1,5.5-2.3c-1.2-3.4-2-6.8-2.4-10.4c-2,0.3-3.9,0.5-5.9,0.8c0.4,1.3,0.7,2.6,1.1,3.9c1,3.8,6.3,2.1,5.8-1.6
						c0-0.9-0.3-1.7-0.7-2.5c-1.9,0.5-3.9,1.1-5.8,1.6c0.2,0.6,0.5,1.2,0.7,1.7c1.5,3.5,6.7,2.3,5.8-1.6c-0.7-3.2-0.2-6.1-1.7-9.1
						c-1.7-3.5-6.8-0.4-5.2,3c1.1,2.2,0.5,5.3,1.1,7.7c1.9-0.5,3.9-1.1,5.8-1.6c-0.2-0.6-0.5-1.2-0.7-1.7c-1.5-3.5-7.2-2.1-5.8,1.6
						c0.4,0.8,0.6,1.6,0.7,2.5c1.9-0.5,3.9-1.1,5.8-1.6c-0.4-1.3-0.7-2.6-1.1-3.9c-0.9-3.2-6.2-2.7-5.9,0.8c0.4,4.1,1.2,8.1,2.6,12
						c1.8-0.8,3.7-1.5,5.5-2.3c-0.9-1.6-1.5-3.2-2.1-5c-1.2-3.8-6.3-2.1-5.8,1.6c0.5,3.3,1.7,6.3,2.2,9.5c0.1-0.8,0.2-1.5,0.3-2.3
						c-0.1,0.1-0.2,0.3-0.2,0.4c1.7,0,3.5,0,5.2,0c-0.2-0.5-0.5-0.9-0.7-1.4c-1.6-3.3-6-0.8-5.5,2.3c0,0.2-0.1,0.3-0.1,0.5
						C153.2,255,159,256.6,160,252.8L160,252.8z"/>
				</g>
			</g>
			<g>
				<g>
					<path class="st0" d="M148.8,213.6c0.2,0.4,0.5,0.7,0.7,1.1c0.9,3.5,5.6,2.4,5.9-0.8c0.1-0.6,0.1-1.2,0.2-1.8
						c-1.9,0.5-3.7,1-5.6,1.5c0.7,1,1.3,1.9,2,2.9c1.6,2.2,5.8,1.7,5.6-1.5c-0.1-1-0.2-1.8-0.5-2.8c-1.8,0.8-3.7,1.5-5.5,2.3
						c0.1,0.3,0.3,0.6,0.4,0.9c1.6,3.2,6.1,0.9,5.5-2.3c-0.1-0.3-0.1-0.7-0.2-1c-1.9,0.5-3.9,1.1-5.8,1.6c0.9,3.4,1.1,6.4,1.2,9.9
						c0.1,2.9,1.8,5.5,1.7,8.4c-0.1,3.9,5.9,3.9,6,0c0.1-3.5-1.6-6.4-1.7-9.9c0-3.5-0.6-6.7-1.5-10.1c-1-3.8-6.5-2.2-5.8,1.6
						c0.1,0.3,0.1,0.7,0.2,1c1.8-0.8,3.7-1.5,5.5-2.3c-0.1-0.3-0.3-0.6-0.4-0.9c-1.6-3.1-6.4-0.9-5.5,2.3c0.1,0.4,0.2,0.8,0.2,1.2
						c1.9-0.5,3.7-1,5.6-1.5c-0.7-1-1.3-1.9-2-2.9c-1.7-2.5-5.3-1.5-5.6,1.5c-0.1,0.6-0.1,1.2-0.2,1.8c2-0.3,3.9-0.5,5.9-0.8
						c-0.4-1.6-1-2.7-2.3-3.7C150.2,206.8,145.9,211,148.8,213.6L148.8,213.6z"/>
				</g>
			</g>
			<g>
				<g>
					<path class="st0" d="M157.2,212.3c0.3-1.2,0.3-2-0.1-3.2c-1.8,0.8-3.7,1.5-5.5,2.3c0.3,0.4,0.5,0.7,0.8,1.1
						c1.8,2.6,6.8,1.1,5.5-2.3c-1.5-3.8-3-7.5-4.5-11.3c-1.8,0.8-3.7,1.5-5.5,2.3c1.2,2.3,2.4,4.6,3.5,7c1.3,2.6,5.8,1.4,5.6-1.5
						c-0.2-2.6-0.8-4.7-1.8-7.1c-1.7,1-3.5,2-5.2,3c0.5,1.2,1.1,2.3,1.6,3.5c1.4,3.1,6.4,0.9,5.5-2.3c-1.3-4.6-2.7-9.1-4.1-13.7
						c-1.8,0.8-3.7,1.5-5.5,2.3c1.3,2.1,2.2,4.2,2.9,6.6c1.2,3.8,6.3,2.1,5.8-1.6c-0.5-3.6-1.3-7.1-2.3-10.6
						c-1.8,0.8-3.7,1.5-5.5,2.3c0.8,1,1.3,2,1.9,3.1c1.4,3.1,6.4,0.9,5.5-2.3c-1.4-4.6-2.7-9.3-4-13.9c-1.1-3.7-6.9-2.1-5.8,1.6
						c1.3,4.6,2.7,9.3,4,13.9c1.8-0.8,3.7-1.5,5.5-2.3c-0.5-1.2-1.1-2.1-1.9-3.1c-1.9-2.6-6.5-1.2-5.5,2.3s1.8,7,2.3,10.6
						c1.9-0.5,3.9-1.1,5.8-1.6c-0.9-2.8-2-5.4-3.6-8c-1.7-2.9-6.5-1-5.5,2.3c1.4,4.5,2.7,9.1,4.1,13.7c1.8-0.8,3.7-1.5,5.5-2.3
						c-0.5-1.2-1.1-2.3-1.6-3.5c-1.6-3.5-6.7-0.5-5.2,3c0.6,1.3,0.9,2.6,1,4.1c1.9-0.5,3.7-1,5.6-1.5c-1.2-2.3-2.4-4.6-3.5-7
						c-1.5-3-6.7-0.9-5.5,2.3c1.5,3.8,3,7.5,4.5,11.3c1.8-0.8,3.7-1.5,5.5-2.3c-0.3-0.4-0.5-0.7-0.8-1.1c-1.8-2.5-6.9-1.1-5.5,2.3
						h0.1C150.7,214.5,156.5,216.1,157.2,212.3L157.2,212.3z"/>
				</g>
			</g>
			<g>
				<g>
					<path class="st0" d="M149.7,173.7c5.1-2.6,0.6-10.7-0.7-14.6c-1.8,0.8-3.7,1.5-5.5,2.3c0.8,1.9,1.7,3.9,2.5,5.8
						c1.4,3.2,6.3,0.9,5.5-2.3c-0.4-1.7-0.9-3.4-1.3-5.1c-0.2-0.8-0.4-1.5-0.6-2.3c0-0.1-0.6-2.2-0.7-1.5c-1.5,0.6-2.9,1.2-4.4,1.8
						c0,0,0.1,0,0.1,0.1c-0.5-1.1-0.9-2.3-1.4-3.4v0.1c-1.5,3.6,4.3,5.1,5.8,1.6v-0.1c0.5-1.1-0.3-2.9-1.4-3.4c0,0-0.1,0-0.1-0.1
						c-1.6-0.7-4.1-0.3-4.4,1.8c-0.3,1.8,0.4,3.5,0.8,5.3c0.6,2.3,1.2,4.5,1.8,6.8c1.8-0.8,3.7-1.5,5.5-2.3
						c-0.8-1.9-1.7-3.9-2.5-5.8c-1.3-3.1-6.5-0.9-5.5,2.3c0.5,1.6,1,3.3,1.6,4.9c0.2,0.7,0.5,1.5,0.7,2.2c0.1,0.4,0.2,0.7,0.3,1.1
						c0.1,0.9,0.4,0.8,0.8-0.3C143.2,170.3,146.2,175.4,149.7,173.7L149.7,173.7z"/>
				</g>
			</g>
			<g>
				<g>
					<path class="st0" d="M144.7,160.6c0.3,1.5,1.1,2.6,2.5,3.3c2.1,1.1,5.4-0.8,4.4-3.4c-1.7-4.3-2.9-8.6-3.8-13.1
						c-1.8,0.8-3.7,1.5-5.5,2.3c0.5,0.9,1,1.8,1.4,2.8c0.1,0.4,0.6,2.6,0.7,1.7c1-0.7,1.9-1.5,2.9-2.2c-0.1,0-0.1,0-0.2,0
						c1,1,2,2,3,3c0-0.1,0-0.1,0-0.2c-0.4-3.8-6.4-3.8-6,0c0,0.1,0,0.1,0,0.2c0.2,1.8,1.2,2.8,3,3c0.1,0,0.1,0,0.2,0
						c1.2,0.1,2.7-1,2.9-2.2c0.5-3.1-1.2-6.6-2.7-9.2c-1.8-3.1-6.1-0.9-5.5,2.3c0.8,4.5,2.1,8.9,3.8,13.1c1.5-1.1,2.9-2.3,4.4-3.4
						c0.1,0.1,0.2,0.2,0.3,0.3C149.8,155.2,144,156.8,144.7,160.6L144.7,160.6z"/>
				</g>
			</g>
			<g>
				<g>
					<path class="st0" d="M147.3,147.8c0-0.5,0-1,0.1-1.5c-1.9,0.5-3.7,1-5.6,1.5c0.6,1.1,1.1,2.2,1.7,3.4c1.5,3.1,6.4,0.9,5.5-2.3
						c-0.5-1.7-0.9-3.3-1.4-5c-1.8,0.8-3.7,1.5-5.5,2.3c0.3,0.6,0.6,1.1,0.9,1.7c1.6,3,6.4,1,5.5-2.3c-0.4-1.5-0.8-3.1-1-4.7
						c-2,0.3-3.9,0.5-5.9,0.8c0.2,0.9,0.5,1.6,0.9,2.4c1.1-1.5,2.3-2.9,3.4-4.4c-0.1,0-0.2-0.1-0.3-0.1c0.6,0.5,1.2,0.9,1.8,1.4
						c-1.5-2.4-0.6-6.7-0.3-9.3c-2,0-4,0-6,0c-0.1,3.8,0.3,7.5,1.4,11.2c1,3.7,6.8,2.1,5.8-1.6c-0.9-3.2-1.2-6.3-1.1-9.6
						c0.1-3.9-5.6-3.8-6,0c-0.4,3.5-1.7,12.7,3.3,13.8c2.6,0.6,4.6-2,3.4-4.4c-0.1-0.3-0.2-0.6-0.3-1c-0.7-3.2-6.3-2.6-5.9,0.8
						c0.3,2.1,0.6,4.2,1.2,6.3c1.8-0.8,3.7-1.5,5.5-2.3c-0.3-0.6-0.6-1.1-0.9-1.7c-1.6-3-6.4-1-5.5,2.3c0.5,1.7,0.9,3.3,1.4,5
						c1.8-0.8,3.7-1.5,5.5-2.3c-0.6-1.1-1.1-2.2-1.7-3.4c-1.4-2.8-5.5-1.3-5.6,1.5c0,0.5,0,1-0.1,1.5
						C141.1,151.6,147.1,151.6,147.3,147.8L147.3,147.8z"/>
				</g>
			</g>
			<g>
				<g>
					<path class="st0" d="M128.6,262c0.4,0,0.8,0.1,1.2,0.1c-1-1-2-2-3-3c0,0.3,0,0.6,0,0.9c-0.1,2.3,2.6,3.7,4.5,2.6
						c-0.3,0.1-0.3,0.1-0.1,0s0.2-0.1-0.1,0c-0.5,0,0,0,0.3,0.1c-0.4-1.7-0.9-3.3-1.3-5c0,0-0.7,0.6-0.2,0.3
						c-0.2,0.2-0.5,0.3-0.7,0.4c-2.2,1.2-1.8,4.9,0.7,5.5c1.7,0.4,3.3,0.2,4.8-0.6c1.9-1,2-4.2,0-5.2c-0.2-0.1-0.9-0.7-0.5-0.2
						c-0.1-0.1-0.7-0.9-0.4-0.4c-0.1-0.2-0.4-1-0.3-0.4c-0.1-0.2-0.1-0.3-0.1-0.5c0,0.4,0,0.4,0,0c-1.7,0.7-3.4,1.4-5.1,2.1
						c0.6,0.6,1.3,1.2,1.9,1.8c1.1,1.1,3.1,1.2,4.2,0c1.1-1.2,1.2-3.1,0-4.2c-0.6-0.6-1.3-1.2-1.9-1.8c-1.8-1.7-5.3-0.6-5.1,2.1
						c0.2,2.8,1.6,5.4,4.2,6.7c0-1.7,0-3.5,0-5.2c-0.3,0.2-0.3,0.2-0.2,0.1c0.2-0.1,0.1-0.1-0.2,0c0.2,0,0.8,0.1,0.2-0.1
						c0.2,1.8,0.5,3.7,0.7,5.5c0.8-0.5,1.5-1,2.2-1.6c0.8-0.7,1.1-1.9,0.8-2.9c-0.3-1.1-1.1-1.7-2.1-2.1c-1.5-0.6-3.2-0.3-4.7,0.4
						c1.5,0.9,3,1.7,4.5,2.6c0-0.3,0-0.6,0-0.9c0-1.7-1.4-2.9-3-3c-0.4,0-0.8-0.1-1.2-0.1c-1.6-0.1-3.1,1.5-3,3
						C125.6,260.7,126.9,261.8,128.6,262L128.6,262z"/>
				</g>
			</g>
			<g>
				<g>
					<path class="st0" d="M134.4,257.4c-0.3-1.5-0.8-2.8-1.4-4.2c-1.5-3.3-6-0.8-5.5,2.3c0.1,0.3,0.1,0.6,0.2,0.9
						c1.9-0.5,3.9-1.1,5.8-1.6c-3-9.5-5.3-19.2-7.1-29c-1.8,0.8-3.7,1.5-5.5,2.3c2.2,4.7,3.5,9.5,4.3,14.7c0.6,3.8,6.4,2.2,5.8-1.6
						c-0.9-5.6-2.5-10.9-4.9-16.1c-1.5-3.3-6-0.8-5.5,2.3c1.8,9.8,4.1,19.5,7.1,29c1.2,3.7,6.5,2.2,5.8-1.6
						c-0.1-0.3-0.1-0.6-0.2-0.9c-1.8,0.8-3.7,1.5-5.5,2.3c0.4,0.9,0.7,1.8,0.8,2.8C129.3,262.8,135.1,261.2,134.4,257.4L134.4,257.4
						z"/>
				</g>
			</g>
			<g>
				<g>
					<path class="st0" d="M126.7,229c-0.3-1.7-0.6-3.4-0.8-5.1c-1.8,0.8-3.7,1.5-5.5,2.3c0.6,1.3,1.3,2.6,1.9,4
						c1.7,3.5,6.7,0.4,5.2-3c-1.3-3.1-2.5-6.2-2.7-9.5c-1.9,0.5-3.7,1-5.6,1.5c0.4,0.9,0.7,1.8,0.9,2.8c0.8,3.4,5.7,2.5,5.9-0.8
						c0.1-1.6-0.1-3.1-0.6-4.6c-1.2-3.7-6.5-2.2-5.8,1.6c0.3,1.7,0.8,3.4,1.3,5c1.1,3.7,6.9,2.1,5.8-1.6c-0.4-1.2-0.6-2.4-0.8-3.6
						c-1.9,0.5-3.9,1.1-5.8,1.6c0.8,2.4,1.5,4.8,2.3,7.2c1.8-0.8,3.7-1.5,5.5-2.3c-1.4-2.9-2.1-6-2.4-9.2c-0.3-3.8-6.3-3.9-6,0
						c0.3,4.3,1.4,8.3,3.2,12.2c1.4,3.1,6.5,0.9,5.5-2.3c-0.8-2.4-1.5-4.8-2.3-7.2c-1.2-3.8-6.4-2.2-5.8,1.6
						c0.2,1.2,0.5,2.4,0.8,3.6c1.9-0.5,3.9-1.1,5.8-1.6c-0.5-1.7-0.9-3.3-1.3-5c-1.9,0.5-3.9,1.1-5.8,1.6c0.4,1.1,0.5,1.9,0.4,3
						c2-0.3,3.9-0.5,5.9-0.8c-0.4-1.5-0.9-2.9-1.5-4.2c-1.3-2.7-5.8-1.4-5.6,1.5c0.2,4.5,1.8,8.5,3.6,12.5c1.7-1,3.5-2,5.2-3
						c-0.6-1.3-1.3-2.6-1.9-4c-1.6-3.3-5.9-0.8-5.5,2.3c0.2,1.7,0.5,3.4,0.8,5.1C121.6,234.4,127.4,232.7,126.7,229L126.7,229z"/>
				</g>
			</g>
			<g>
				<g>
					<path class="st0" d="M149.8,176.4c-0.3-1.1-0.4-2-0.4-3.1c-1.7,0.7-3.4,1.4-5.1,2.1c0.5,0.5,1,0.9,1.6,1.4
						c1.7,1.5,5.4,0.7,5.1-2.1c-0.2-1.7-0.5-3.4-0.9-5.1c-1.7,1-3.3,1.9-5,2.9c0.6,0.8,1.3,1.5,2,2.2c2,1.9,4.9,0.4,5.1-2.1
						c0.1-1.4-0.2-2.5-0.9-3.7c-1.9-3.4-7.1-0.3-5.2,3c2.7,4.7,2.5,10.5,3.5,15.7c0.8,3.8,6.6,2.2,5.8-1.6
						c-1.2-5.8-1.1-11.8-4.1-17.1c-1.7,1-3.5,2-5.2,3c0,0.2,0.1,0.5,0.1,0.7c1.7-0.7,3.4-1.4,5.1-2.1c-0.7-0.7-1.3-1.4-2-2.2
						c-2-2.4-5.8,0.2-5,2.9c0.3,1.2,0.6,2.3,0.7,3.5c1.7-0.7,3.4-1.4,5.1-2.1c-0.5-0.5-1-0.9-1.6-1.4c-1.9-1.7-5.2-0.6-5.1,2.1
						c0,1.6,0.3,3.1,0.7,4.7C145,181.7,150.8,180.2,149.8,176.4L149.8,176.4z"/>
				</g>
			</g>
			<g>
				<g>
					<path class="st0" d="M150.1,199.2c0.1,1.5,0.6,2.9,1.8,3.9c0.9,0.8,2.1,1.1,3.3,0.6c1.1-0.5,1.8-1.5,1.8-2.7c0-0.3,0-0.6,0-1
						c0.1-1.6-1.4-3.1-3-3c-1.7,0.1-2.9,1.3-3,3c0,0.3,0,0.6,0,1c1.7-0.7,3.4-1.4,5.1-2.1c-0.1-0.1-0.1-0.1-0.2-0.2
						c-0.2-0.2-0.1-0.1,0.2,0.3c0-0.1-0.2-0.3-0.2-0.4c0.1,0.2,0.2,0.5,0.3,0.7c-0.1-0.2-0.2-0.5-0.2-0.8c0,0.3,0.1,0.5,0.1,0.8
						c0-0.1,0-0.1,0-0.2c-0.1-0.8-0.3-1.5-0.9-2.1c-0.5-0.5-1.4-0.9-2.1-0.9C151.6,196.2,149.9,197.5,150.1,199.2L150.1,199.2z"/>
				</g>
			</g>
			<g>
				<g>
					<path class="st0" d="M129.3,231.5c-0.8-1.1-1.3-2.4-1.6-3.8c-1.8,0.8-3.7,1.5-5.5,2.3c0.3,0.4,0.6,0.9,0.8,1.3
						c1.5,2.4,5.7,1.6,5.6-1.5c-0.1-1.4-0.2-2.2-0.5-3.5c-1-3.7-6.6-2.2-5.8,1.6c1.8,8.3,3.5,16.6,5.1,25c0.7,3.8,6.5,2.2,5.8-1.6
						c-1.6-8.3-3.3-16.7-5.1-25c-1.9,0.5-3.9,1.1-5.8,1.6c0.1,0.6,0.2,1.3,0.3,1.9c1.9-0.5,3.7-1,5.6-1.5c-0.3-0.4-0.6-0.9-0.8-1.3
						c-1.8-2.8-6.4-1.1-5.5,2.3c0.5,1.9,1.2,3.5,2.2,5.2C126,237.8,131.2,234.8,129.3,231.5L129.3,231.5z"/>
				</g>
			</g>
			<g>
				<g>
					<path class="st0" d="M128.2,219.5c-0.2-0.7-0.5-1.5-0.7-2.2c-1.2-3.7-6.7-2.2-5.8,1.6c0.1,0.6,0.3,1.1,0.4,1.7
						c0.9,3.8,6.7,2.2,5.8-1.6c-0.8-3.6-1.7-7.3-2.4-10.9c-1.7,1-3.3,1.9-5,2.9c0.2,0.2,0.4,0.5,0.6,0.7c-0.3-1-0.5-1.9-0.8-2.9
						c-0.1,0.3-0.1,0.6-0.2,0.9c2,0.3,3.9,0.5,5.9,0.8c0-3.7,0-7.5,0-11.2c0-2.2-1.2-9.2,0.3-11c-1.7-0.7-3.4-1.4-5.1-2.1
						c-0.4,7-0.8,14-1.1,21.1c-0.1,2.9,4.3,4.2,5.6,1.5c0.9-2.1,1.2-3.6,0.4-5.8c-1.3-3.6-7.1-2.1-5.8,1.6c0.1,0.4,0.1,0.8,0.2,1.2
						c1.9,0.5,3.7,1,5.6,1.5c0.3-7,0.7-14,1.1-21.1c0.2-2.5-3.5-4.1-5.1-2.1c-2.6,3.1-2.1,6.6-2.1,10.5c0,5.3,0,10.6,0.1,15.9
						c0,3.3,5.1,4.2,5.9,0.8c0.5-2,0.2-3-1.2-4.5c-2.2-2.3-5.6,0.2-5,2.9c0.8,3.7,1.6,7.3,2.4,10.9c1.9-0.5,3.9-1.1,5.8-1.6
						c-0.1-0.6-0.3-1.1-0.4-1.7c-1.9,0.5-3.9,1.1-5.8,1.6c0.2,0.7,0.5,1.5,0.7,2.2C123.6,224.8,129.4,223.2,128.2,219.5L128.2,219.5
						z"/>
				</g>
			</g>
			<g>
				<g>
					<path class="st0" d="M127.5,185.8c0-0.6,0-1.3,0-1.9c-1.9,0.5-3.7,1-5.6,1.5c0.2,0.4,0.4,0.8,0.5,1.2c1.3,2.7,5.8,1.4,5.6-1.5
						c-0.3-3.2-0.3-6.4-0.3-9.7c-2,0.3-3.9,0.5-5.9,0.8c0,0.5,0,1,0,1.4c1.9,0,3.9,0,5.8,0c-0.8-3-0.1-5.8,0.6-8.8
						c0.9-3.7-4.9-5.3-5.8-1.6c-1,4-1.7,7.9-0.6,12c0.7,2.7,5.2,3,5.8,0c0.3-1.7,0.3-3,0-4.6c-0.7-3.4-5.8-2.5-5.9,0.8
						c-0.1,3.2,0,6.5,0.3,9.7c1.9-0.5,3.7-1,5.6-1.5c-0.2-0.4-0.4-0.8-0.5-1.2c-1.3-2.8-5.5-1.3-5.6,1.5c0,0.6,0,1.3,0,1.9
						C121.4,189.7,127.4,189.7,127.5,185.8L127.5,185.8z"/>
				</g>
			</g>
			<g>
				<g>
					<path class="st0" d="M119.2,159.6c0,0.1,0,0.1,0,0.2c-0.1-0.5-0.1-1.1-0.2-1.6c0,0.2,0,0.4,0,0.6c0.1-0.5,0.1-1.1,0.2-1.6
						c0,0.3-0.1,0.5-0.2,0.8c0.2-0.5,0.4-1,0.6-1.4c-0.1,0.2-0.2,0.4-0.3,0.5c0.3-0.4,0.6-0.8,0.9-1.2c-0.1,0.1-0.2,0.2-0.3,0.4
						c-0.7,0.8-1.2,1.6-1.5,2.6s-0.4,2.4,0,3.3c0.3,0.8,0.6,1.4,1.1,2.1c0.8,1,1.8,1.8,3.1,2.2c1,0.3,1.5,0.3,2.5,0.1
						c0.8-0.1,1.6-0.3,2.3-0.7c0.8-0.5,1.8-1.4,2.2-2.2c0.7-1.5,1.1-3,0.6-4.6c-0.4-1.4-1.5-2.9-2.8-3.6c-1.4-0.7-3.1-1.1-4.6-0.6
						c-1.4,0.5-2.9,1.4-3.6,2.8c0,0,0,0,0,0.1c1.2-0.9,2.4-1.8,3.6-2.8c0,0,0,0-0.1,0c1.1,0,2.1,0,3.2,0c0,0,0,0-0.1,0
						c1.2,0.9,2.4,1.8,3.6,2.8c0,0,0,0,0-0.1c0.2,1.5,0.4,3.1,0.6,4.6v-0.1c-0.5,0.9-1,1.8-1.5,2.6c0.5-0.5,1-1.1,1.4-1.7
						c0.4-0.6,0.7-1.4,0.9-2.1c0.5-1.5,0.3-3,0.1-4.5c-0.2-1.4-1.6-2.9-2.8-3.6c-1.3-0.8-3.2-1.1-4.6-0.6c-1.5,0.5-2.9,1.4-3.6,2.8
						c-0.2,0.5-0.4,1-0.6,1.4C118.9,157.5,118.9,158.5,119.2,159.6L119.2,159.6z"/>
				</g>
			</g>
		</g>
		<g>
			<g>
				<g>
					<g>
						<g>
							<g>
								<g>
									<g>
										<path class="st0" d="M162.5,276.8c-3.7,0.2-7.4,0.4-11.1,0.9c-0.8,0.1-0.8,1.3,0,1.2c3.7-0.4,7.4-0.7,11.1-0.9
											C163.2,278,163.2,276.8,162.5,276.8L162.5,276.8z"/>
									</g>
								</g>
								<g>
									<g>
										<path class="st0" d="M163.2,277.5c-1.3-21.9-2.9-43.8-4.7-65.6c-0.1-0.8-1.3-0.8-1.2,0c1.8,21.9,3.4,43.7,4.7,65.6
											C162,278.3,163.2,278.3,163.2,277.5L163.2,277.5z"/>
									</g>
								</g>
							</g>
							<g>
								<g>
									<g>
										<path class="st0" d="M147.8,135.9c-0.1-8.5-0.1-18.9-5.6-26c-4.8-6.2-12.6-6.6-19.9-6.4c-0.8,0-0.8,1.2,0,1.2
											c8.1-0.2,16.1,0.5,20.4,8.4c3.8,6.9,3.7,15.3,3.8,22.9C146.6,136.7,147.8,136.7,147.8,135.9L147.8,135.9z"/>
									</g>
								</g>
								<g>
									<g>
										<g>
											<path class="st0" d="M150.4,278c-2.7-22.2-5.1-44.5-8.2-66.6c-0.1-0.8-1.3-0.4-1.2,0.3c3.2,22,5.6,44.2,8.2,66.3
												C149.2,278.7,150.4,278.7,150.4,278L150.4,278z"/>
										</g>
									</g>
									<g>
										<g>
											<path class="st0" d="M142.2,212.1c-4.5-14.4-8.1-29.1-11.8-43.7c-0.2-0.7-1.3-0.4-1.2,0.3c3.8,14.6,7.3,29.3,11.8,43.7
												C141.3,213.1,142.5,212.8,142.2,212.1L142.2,212.1z"/>
										</g>
									</g>
									<g>
										<g>
											<path class="st0" d="M136.3,154.7c-2.3,5.1-4.5,11-10.4,12.8c-0.7,0.2-0.4,1.4,0.3,1.2c6.2-1.9,8.6-7.9,11.1-13.3
												C137.7,154.6,136.6,154,136.3,154.7L136.3,154.7z"/>
										</g>
									</g>
									<g>
										<g>
											<path class="st0" d="M130.3,168.7c0.1-0.5,0.1-1-0.2-1.5c-0.5-0.6-1.5,0-1,0.6c0.1,0.2,0.2,0.3,0.1,0.6
												C128.9,169.1,130.1,169.4,130.3,168.7L130.3,168.7z"/>
										</g>
									</g>
									<g>
										<g>
											<path class="st0" d="M158.6,212.8c-2-26.1-6.9-52-10.9-77.8c-0.1-0.8-1.3-0.4-1.2,0.3c4,25.7,8.9,51.5,10.9,77.5
												C157.5,213.6,158.7,213.6,158.6,212.8L158.6,212.8z"/>
										</g>
									</g>
									<g>
										<g>
											<path class="st0" d="M136.1,262.8c-3.8-16.2-6.8-32.6-9-49.2c-0.1-0.8-1.3-0.8-1.2,0c2.2,16.6,5.2,33.2,9,49.5
												C135.2,263.8,136.3,263.5,136.1,262.8L136.1,262.8z"/>
										</g>
									</g>
									<g>
										<g>
											<path class="st0" d="M127.3,214.7c-0.9-15.5,1.4-31.3,2.6-46.8c0.1-0.8-1.1-0.8-1.2,0c-1.2,15.5-3.4,31.3-2.6,46.8
												C126.2,215.5,127.4,215.5,127.3,214.7L127.3,214.7z"/>
										</g>
									</g>
								</g>
							</g>
						</g>
					</g>
				</g>
			</g>
			<g>
				<g>
					<path class="st0" d="M121.5,262.7c-2.6-26.6-2.8-53.4-3.3-80.1c-0.2-13.2-0.5-26.4-1.2-39.6c-0.7-13-3.3-27.5,5-38.7
						c0.5-0.6-0.6-1.2-1-0.6c-7.1,9.5-6.3,21.2-5.6,32.4c0.9,14.2,1.3,28.3,1.6,42.5c0.5,28,0.6,56.1,3.3,84
						C120.4,263.5,121.6,263.5,121.5,262.7L121.5,262.7z"/>
				</g>
			</g>
			<g>
				<g>
					<path class="st0" d="M135.2,262.6c-1.9,0.3-12.4,2.9-13,0.1c-0.2-0.8-1.3-0.4-1.2,0.3c0.4,1.9,2.4,2.2,4.1,2.2
						c3.4-0.1,7-1,10.4-1.5C136.2,263.6,135.9,262.4,135.2,262.6L135.2,262.6z"/>
				</g>
			</g>
			<g>
				<g>
					<path class="st0" d="M127,167.6c-1.4,0.4-2.7,0.7-4.1,0.8c-1.3,0.1-3.1,0.5-4.1-0.5c-0.5-0.6-1.4,0.3-0.8,0.8
						c2.1,2.2,6.9,0.6,9.4,0C128.1,168.6,127.8,167.4,127,167.6L127,167.6z"/>
				</g>
			</g>
		</g>
	</g>
</g>
</svg>
