<?xml version="1.0" encoding="utf-8"?>
<!-- Generator: Adobe Illustrator 21.0.2, SVG Export Plug-In . SVG Version: 6.00 Build 0)  -->
<svg version="1.1" id="Layer_1" xmlns="http://www.w3.org/2000/svg" xmlns:xlink="http://www.w3.org/1999/xlink" x="0px" y="0px"
	 viewBox="0 0 200 600" style="enable-background:new 0 0 200 600;" xml:space="preserve">
<style type="text/css">
	.st0{fill:#FFFFFF;}
	.st1{fill:#000038;}
</style>
<g>
	<g>
		<g>
			<g>
				<path class="st0" d="M58.2,572.3c0.2-0.1,0.4-0.2,0.6-0.3c0.2,0.7,0.4,1.5,0.6,2.2c1.4-0.2,2.8-0.5,4.2-0.7
					c-0.1-0.8-0.2-1.6-0.3-2.4c-0.8,0.2-1.7,0.3-2.5,0.5c0.1,0.8,0.2,1.6,0.3,2.4c3.8-1.2,8.5-0.8,12.5-0.9
					c-0.1-0.8-0.2-1.6-0.3-2.4c-0.6,0.1-1.1,0.2-1.7,0.4c0,0.8,0,1.6,0,2.4c3.3-0.2,6.6-0.5,9.9-0.7c-0.2-0.7-0.4-1.5-0.6-2.2
					c-0.4,0.2-0.8,0.3-1.3,0.5c0.1,0.8,0.2,1.6,0.3,2.4c3.4-0.5,6.8-1,10.2-1.5c1.5-0.2,0.9-2.5-0.6-2.3c-3.4,0.5-6.8,1-10.2,1.5
					c-1.3,0.2-1,2.4,0.3,2.4c1.3-0.1,1.4,0,2.5-0.8c0.9-0.6,0.7-2.3-0.6-2.2c-3.3,0.2-6.6,0.5-9.9,0.7c-1.5,0.1-1.6,2.5,0,2.4
					c1.2-0.1,1.2-0.1,2.3-0.4c1.2-0.4,1.1-2.4-0.3-2.4c-4.3,0.1-9-0.3-13.1,1c-1.2,0.4-1.1,2.5,0.3,2.4c1.5-0.2,1.7-0.2,3.1-0.6
					c1.3-0.4,1-2.3-0.3-2.4c-2.1-0.1-3.5,0.2-5.4,1.1c-1.1,0.5-0.6,2.3,0.6,2.2c0.7-0.1,1.1-0.2,1.5-0.9
					C61,572.1,58.9,570.9,58.2,572.3L58.2,572.3z"/>
			</g>
		</g>
		<g>
			<g>
				<path class="st1" d="M84.3,564.3c1.5,0,1.5-2.4,0-2.4C82.7,561.9,82.7,564.3,84.3,564.3L84.3,564.3z"/>
			</g>
		</g>
		<g>
			<g>
				<path d="M70.8,566.5c-0.3-0.1-0.7-0.2-1-0.2c-0.7-0.2-1.6,0.3-1.5,1.2c-0.1-0.4-5.4,1.4-5.8,1.4c-2.1,0.9-2.3,0.4-0.4-1.6
					c0.4-1.5,1.3-2.3,2.8-2.4c4.1-2,9.9-1.4,14.4-1.5c3.9-0.1,5.9-0.6,3.9-4.7c-0.6-1.2-2.6-0.4-2.2,0.9c0.1,0.5,0.2,1.1,0.4,1.6
					c0.2,1.5,2.4,1.6,2.4,0c0-1.6-0.2-2.8-0.7-4.4c-0.3,0.5-0.6,1-0.8,1.5c2.1-0.3,5-1.6,6.3,0.7c0.5,0.8,0.6,4,0.3,5
					c-1.3,4-3.8,4.5-7.5,4.9c-2.6,0.3-5.2,0.4-7.8,0.5c-3.9,0.1-7.4-0.8-11.3-1c-0.4-0.5-0.8-1-1.2-1.5c0,0-0.1,0-0.1,0.1
					c0.3,0.7,0.6,1.4,0.8,2c-0.8-0.1-1.6-0.2-2.3-0.4c0.6,0.5,1.2,0.9,1.8,1.4c0.9-0.6,1.8-1.1,2.6-1.7c0-0.8,0-1.6,0-2.4
					c-0.3-0.1-0.6-0.3-0.8-0.4c-0.2,0.7-0.4,1.3-0.5,2c4-0.8,6.5-1.7,10.3-1.9c2.1-0.1,4.2-0.3,6.3-0.4c1.5-0.1,1.6-2.5,0-2.4
					c-5.3,0.3-9.9,3.8-15.3,3.2c0.1,0.8,0.2,1.6,0.3,2.4c1.8-0.8,3.7-0.9,5.6-0.4c0-0.8,0-1.5,0-2.3c-2.2,0.8-4.2,0.5-5.9-1
					c0,0.7,0,1.4,0,2.1c2.4-1.4,4.6-1.1,6.3,0.9c0.2-0.7,0.4-1.3,0.5-2c-0.7,0.1-1.3,0.3-2,0.4c0.3,0.7,0.6,1.4,0.8,2
					c-0.1-0.2-0.2-0.4-0.3-0.6c-1.5,0.4-0.9,2.6,0.6,2.3c3.6-0.7,7.1-0.9,10.8-0.7c-0.1-0.8-0.2-1.6-0.3-2.4
					c-2.7,0.6-5.5,0.9-8.2,1.1c0.3,0.7,0.6,1.4,0.8,2c0.9-1.1,2.9-4.2,4.7-3.5c-0.2-0.7-0.4-1.3-0.5-2c-0.2,0.2-0.4,0.4-0.6,0.6
					c-0.8,0.9,0,2.3,1.2,2c-0.8-0.5-1.6-0.9-2.4-1.4c0.3,0.7,0.6,1.4,0.8,2c1.9-0.5,3.8-0.2,5.4,0.9c0.2-0.7,0.4-1.5,0.6-2.2
					c-0.4,0.1-0.7,0.1-1.1,0.2c0.2,0.6,0.5,1.2,0.7,1.8c-0.2-1.3-0.4-2.6-0.6-3.8c0.7,0.2,1.3,0.4,2,0.5c-0.2-0.3-0.4-0.7-0.6-1
					c-0.5-0.4-1-0.8-1.5-1.2c0.4,0.5,0.8,1.1,1.2,1.6c0.6-1.4-1.5-2.6-2.1-1.2c-0.1,0.2-0.1,0.3-0.2,0.5c-0.2,0.5-0.2,1,0.2,1.5
					c0.1,0.1,0.3,0.3,0.4,0.4c0.3,0.3,0.8,0.4,1.2,0.3c1.7-0.5,1.8-1.5,1.7-3.1c-0.1-0.7-0.7-1.4-1.5-1.2c-5.4,1.7,0.3,7.4,2.4,3.6
					c1.7-3.2-4.4-5.4-3.5,0.4c0.1,0.9,1.4,1.2,2,0.5c0.1-0.1,0.2-0.3,0.4-0.4c0.3-0.3,0.5-0.8,0.3-1.2c-0.1-0.2-0.1-0.4-0.2-0.6
					c-0.1-0.4-0.4-0.8-0.8-0.8c-4-0.6-4,6-0.2,6c0.6,0,1-0.4,1.2-0.9c0.1-0.3,0.2-0.5,0.3-0.8c0.2-0.4,0-0.9-0.3-1.2
					c-0.2-0.2-0.4-0.4-0.6-0.7c-0.3-0.3-0.8-0.4-1.2-0.3c-1.2,0.4-1.4,0.5-2,1.7c-0.4,0.7,0,1.5,0.7,1.8c4.1,1.4,5.2-4.4,1.6-4.5
					c-3.2,0-2.7,4,0.1,4.3c1.2,0.1,1.7-1.8,0.6-2.2c-2.8-1.2-5.7-2.7-8.3-0.5c-0.9,0.7-0.1,2,0.8,2c1.5,0.2,3,0.2,4.4-0.5
					c0.4-0.2,0.6-0.6,0.6-1c0-2.1-1.5-2.2-3.2-1.8c0.4,0.7,0.8,1.3,1.2,2c0.2-0.2,0.4-0.4,0.6-0.6c0.7-0.7,0.3-1.7-0.5-2
					c-3.3-1.3-5.1,1.8-7,4.1c-0.6,0.7-0.3,2.1,0.8,2c3-0.2,5.9-0.6,8.9-1.2c1.4-0.3,1-2.3-0.3-2.4c-3.9-0.3-7.6,0-11.4,0.7
					c0.2,0.8,0.4,1.5,0.6,2.3c4.6-1.1,0.8-7.1-2.1-3.5c-0.6,0.8-0.3,2.1,0.8,2c1.4,0,1.3,0,2.6-0.5c0.8-0.3,1.2-1.3,0.5-2
					c-2.6-2.7-6-3.1-9.2-1.3c-0.8,0.5-0.7,1.6,0,2.1c2.5,1.7,4.9,2.1,7.7,1.3c1.1-0.3,1.2-2.1,0-2.3c-2.5-0.5-4.4-0.5-6.9,0.4
					c-1.3,0.4-1,2.2,0.3,2.4c5.5,0.6,9.9-2.9,15.3-3.2c0-0.8,0-1.6,0-2.4c-3.7,0.2-7.7,0.2-11.4,0.7c-1.2,0.2-2.6,0.4-3.3,1.5
					c-1,1.7,0,4.7,2.3,3.9c5.2-1.6-5.9-7-2.9-0.3c0.2,0.4,0.6,0.6,1,0.6c2,0,3.6-2.1,1.6-3.7c-2.2-1.8-4.1,0.9-3.5,3
					c0.2,0.5,0.6,0.9,1.2,0.9c0.9,0,1.3-0.2,1.8-1c0.2-0.4,0.2-0.8,0-1.2c-0.9-1.7-2.4-2.3-4.1-2c-0.9,0.2-1.1,1.4-0.5,2
					c0.9,1.1,1.1,1.1,2.5,1.1c1.5,0,1.5-2.4,0-2.4c-2.6,0-4,1.1-4.9,3.4c-0.4,1,0.9,1.8,1.8,1.4c1-0.6,1.7-1.1,1.9-2.3
					c0.1-0.5,0-1.1-0.6-1.4c-0.1,0-0.2-0.1-0.3-0.1c-0.5-0.2-1-0.2-1.5,0.2c-0.1,0.1-0.1,0.1-0.2,0.2c-0.8,0.8-0.1,2,0.8,2
					c1.3,0.1,2.2-0.5,2.4-1.8c0.1-0.8-0.3-1.5-1.2-1.5c-1.9-0.1-4,2.3-2.4,4.1c1.8,2.1,4.2-0.3,4.5-2.2c0.1-0.5,0-1.1-0.6-1.4
					c-2.6-1.1-4.3,1.7-2.6,3.8c1.4,1.7,5.6,1.4,7.4,1.4c4.9,0.1,9.8-0.1,14.7-0.7c2.2-0.3,5-0.2,6.6-2c1.9-2.1,1.5-6.2,1.2-8.6
					c-0.7-7.1-3.4-5.5-9.5-4.4c-0.6,0.1-1,0.9-0.8,1.5c0.5,1.2,0.7,2.4,0.6,3.7c0.8,0,1.6,0,2.4,0c-0.1-1-0.2-1.3-0.5-2.2
					c-0.7,0.3-1.5,0.6-2.2,0.9c0.7,1.5-7.8,1.2-9.1,1.3c-2.9,0.3-5.8,0.7-8.6,1.6c-2.8,0.9-7.5,3.4-6.5,7.2c0.6,2.4,2.4,1.9,4.5,1.5
					c1.8-0.4,9.6-1.1,9.2-4.1c-0.5,0.4-1,0.8-1.5,1.2c0.3,0.1,0.7,0.2,1,0.2C71.7,569.1,72.3,566.8,70.8,566.5L70.8,566.5z"/>
			</g>
		</g>
		<g>
			<g>
				<path d="M84.9,568.9c0.5-2.1-3.3-0.6-3.8-0.6c-1.3,0.3-2.6,0.4-3.9,0.3c-0.8-0.1-4.3-0.1-2.4-1.8c0.4-0.3,2.3,0,2.8,0
					c2,0,6.6,1.6,8.3-0.3c0.6-0.7,0.7-1.5,0.6-2.4c-0.1-0.9-2.1-5,0-4.2c1.8,0.7-0.2,4.6,0.2,5.1c1.2,1.3,1.2-0.6,1.2-1.1
					c0.1-1.9-1.2-3.1-1.5-5c-0.6,0.3-1.2,0.7-1.8,1c0.5,0.9,1,1.9,1.5,2.8c0.1,1.5,2.5,1.5,2.4,0c-0.2-2.2-1-3.6-2.7-4.9
					c-0.7-0.5-1.9,0.2-1.8,1c0.2,2,1.5,3.6,1.3,5.8c-0.1,1.1-0.5,1.7,0,2.7c0.2,0.4,0.6,0.6,1,0.6c4.7,0,3.6-8.9,0.8-10.8
					c-1.4-1-3.4-0.8-4.2,0.8c-0.6,1.1-0.2,2.3,0.1,3.4c0.1,0.5,1,1.9,0.8,2.4c-0.5,1.4-1.6,0.8-2.6,0.7c-2.5-0.3-7.6-1.2-9.7,0.7
					c-1.4,1.3-1.2,3.1,0.3,4.3c2.9,2.3,13,2.5,14.3-1.6c0.1-0.4,0-0.9-0.3-1.2c-1.6-1.2-3-0.4-3.4,1.4
					C82.3,569.7,84.6,570.4,84.9,568.9L84.9,568.9z"/>
			</g>
		</g>
		<g>
			<g>
				<g>
					<path d="M79.9,556.4c0.1,1.6,0.2,3.2,0.3,4.8c0.1,0.8,1.3,0.8,1.2,0c-0.1-1.6-0.2-3.2-0.3-4.8C81,555.6,79.8,555.6,79.9,556.4
						L79.9,556.4z"/>
				</g>
			</g>
			<g>
				<g>
					<path d="M80.1,562.3c0.8,0,0.8-1.2,0-1.2C79.4,561.2,79.4,562.3,80.1,562.3L80.1,562.3z"/>
				</g>
			</g>
			<g>
				<g>
					<path d="M80.8,560.8c-6.2,0.7-27.6-1.6-24.2,10.5c0.2,0.7,1.4,0.4,1.2-0.3c-2.9-10.3,17.4-8.3,23-8.9
						C81.5,561.9,81.5,560.7,80.8,560.8L80.8,560.8z"/>
				</g>
			</g>
			<g>
				<g>
					<path d="M57.3,572.5c6.1-1.3,12.8,0.1,19-0.2c4.7-0.2,9.3-0.1,13.8-1.8c0.7-0.3,0.4-1.4-0.3-1.2c-5.3,2-11.4,1.8-17,1.9
						c-5.3,0.1-10.5-1-15.7,0.1C56.2,571.5,56.5,572.6,57.3,572.5L57.3,572.5z"/>
				</g>
			</g>
			<g>
				<g>
					<path d="M90.2,570.3c1.6-1.3,1.1-3.1,1.2-5c0-1.3,0.2-2.7,0.3-4c0.1-1.7-0.3-3.3-0.3-5c0-0.8-1.2-0.8-1.2,0c0,2,0.3,4,0.2,6
						c-0.1,1.7,0.3,6.1-1,7.2C88.7,569.9,89.6,570.8,90.2,570.3L90.2,570.3z"/>
				</g>
			</g>
			<g>
				<g>
					<path d="M80.5,556.6c3.2-0.2,6.3-0.6,9.5-1c0.8-0.1,0.8-1.3,0-1.2c-3.2,0.3-6.3,0.8-9.5,1C79.7,555.4,79.7,556.6,80.5,556.6
						L80.5,556.6z"/>
				</g>
			</g>
			<g>
				<g>
					<path d="M57,571.7c-0.2,0.8-0.1,1.7,0.3,2.5c0.4,0.7,1.4,0.1,1-0.6c-0.3-0.5-0.3-1-0.2-1.5C58.3,571.3,57.2,571,57,571.7
						L57,571.7z"/>
				</g>
			</g>
			<g>
				<g>
					<path d="M58.3,574.9c5.9-1.5,12.1-0.4,18.1-0.7c4.9-0.2,9.7-0.7,14.5-1.6c0.8-0.1,0.4-1.3-0.3-1.2c-5.9,1-11.8,1.6-17.8,1.6
						c-5,0-9.9-0.6-14.8,0.6C57.2,573.9,57.5,575.1,58.3,574.9L58.3,574.9z"/>
				</g>
			</g>
			<g>
				<g>
					<path d="M91.5,572c-0.1-1-0.1-2.1-0.1-3.1c0-0.8-1.2-0.8-1.2,0c-0.1,1,0,2.1,0.1,3.1C90.4,572.8,91.6,572.8,91.5,572L91.5,572z
						"/>
				</g>
			</g>
			<g>
				<g>
					<path d="M91.1,556.7c-0.1-0.4-0.1-0.8-0.1-1.2c0.1-0.8-1.1-0.8-1.2,0c-0.1,0.5,0,1,0.1,1.5C90.1,557.8,91.3,557.5,91.1,556.7
						L91.1,556.7z"/>
				</g>
			</g>
		</g>
	</g>
	<g>
		<g>
			<g>
				<path class="st0" d="M140.8,572.5c0.4,0.7,0.8,0.8,1.5,0.9c1.2,0.1,1.7-1.7,0.6-2.2c-1.9-0.9-3.3-1.2-5.4-1.1
					c-1.3,0.1-1.7,2-0.3,2.4c1.4,0.4,1.7,0.4,3.1,0.6c1.4,0.2,1.6-2,0.3-2.4c-4.1-1.3-8.8-0.8-13.1-1c-1.4,0-1.5,1.9-0.3,2.4
					c1.1,0.4,1.2,0.4,2.3,0.4c1.5,0.1,1.5-2.3,0-2.4c-3.3-0.2-6.6-0.5-9.9-0.7c-1.3-0.1-1.5,1.6-0.6,2.2c1.1,0.8,1.2,0.8,2.5,0.8
					c1.3,0.1,1.7-2.2,0.3-2.4c-3.4-0.5-6.8-1-10.2-1.5c-1.5-0.2-2.2,2.1-0.6,2.3c3.4,0.5,6.8,1,10.2,1.5c0.1-0.8,0.2-1.6,0.3-2.4
					c-0.4-0.2-0.8-0.3-1.3-0.5c-0.2,0.7-0.4,1.5-0.6,2.2c3.3,0.2,6.6,0.5,9.9,0.7c0-0.8,0-1.6,0-2.4c-0.6-0.1-1.1-0.2-1.7-0.4
					c-0.1,0.8-0.2,1.6-0.3,2.4c4,0.1,8.6-0.3,12.5,0.9c0.1-0.8,0.2-1.6,0.3-2.4c-0.8-0.2-1.7-0.3-2.5-0.5c-0.1,0.8-0.2,1.6-0.3,2.4
					c1.4,0.2,2.8,0.5,4.2,0.7c0.2-0.7,0.4-1.5,0.6-2.2c0.2,0.1,0.4,0.2,0.6,0.3C142.2,570,140.1,571.2,140.8,572.5L140.8,572.5z"/>
			</g>
		</g>
		<g>
			<g>
				<path class="st1" d="M116.9,563.4c1.5,0,1.5-2.4,0-2.4C115.3,561,115.3,563.4,116.9,563.4L116.9,563.4z"/>
			</g>
		</g>
		<g>
			<g>
				<path d="M130.9,567.8c0.3-0.1,0.7-0.2,1-0.2c-0.5-0.4-1-0.8-1.5-1.2c-0.3,2.8,6.6,3.5,8.4,3.9c2.2,0.5,4.6,1.4,5.3-1.3
					c1-3.5-3.1-6.1-5.7-7c-3-1.1-6.3-1.5-9.4-1.8c-1-0.1-9.7,0.1-9.1-1.3c-0.7-0.3-1.5-0.6-2.2-0.9c-0.3,0.9-0.3,1.3-0.5,2.2
					c0.8,0,1.6,0,2.4,0c-0.1-1.3,0.1-2.5,0.6-3.7c0.2-0.6-0.2-1.4-0.8-1.5c-6.2-1-8.8-2.7-9.5,4.4c-0.2,2.4-0.6,6.5,1.2,8.6
					c1.6,1.8,4.4,1.7,6.6,2c4.9,0.6,9.8,0.9,14.7,0.7c1.9-0.1,5.9,0.3,7.4-1.4c1.7-2.1,0-5-2.6-3.8c-0.5,0.2-0.6,0.9-0.6,1.4
					c0.4,1.9,2.8,4.3,4.5,2.2c1.5-1.8-0.6-4.2-2.4-4.1c-0.8,0-1.3,0.7-1.2,1.5c0.2,1.3,1.1,2,2.4,1.8c1-0.1,1.7-1.3,0.8-2
					c-0.1-0.1-0.1-0.1-0.2-0.2c-0.4-0.4-0.9-0.4-1.5-0.2c-0.1,0-0.2,0.1-0.3,0.1c-0.5,0.2-0.6,0.9-0.6,1.4c0.2,1.2,0.9,1.7,1.9,2.3
					c0.8,0.4,2.2-0.3,1.8-1.4c-1-2.4-2.4-3.4-4.9-3.4c-1.5,0-1.5,2.4,0,2.4c1.4,0,1.6,0,2.5-1.1c0.6-0.6,0.4-1.8-0.5-2
					c-1.8-0.4-3.2,0.3-4.1,2c-0.2,0.4-0.2,0.8,0,1.2c0.5,0.8,0.8,1,1.8,1c0.5,0,1-0.4,1.2-0.9c0.6-2.1-1.3-4.7-3.5-3
					c-1.9,1.6-0.3,3.7,1.6,3.7c0.4,0,0.9-0.2,1-0.6c3-6.7-8.1-1.3-2.9,0.3c2.3,0.7,3.4-2.3,2.3-3.9c-0.6-1-1.8-1.2-2.8-1.4
					c-3.7-0.9-8.1-0.6-11.9-0.8c0,0.8,0,1.6,0,2.4c5.4,0.3,9.8,3.8,15.3,3.2c1.3-0.1,1.7-1.9,0.3-2.4c-2.5-0.8-4.4-0.9-6.9-0.4
					c-1.2,0.2-1.1,2,0,2.3c2.9,0.8,5.3,0.5,7.7-1.3c0.7-0.5,0.8-1.6,0-2.1c-3.2-1.8-6.6-1.4-9.2,1.3c-0.7,0.7-0.3,1.7,0.5,2
					c1.3,0.5,1.2,0.4,2.6,0.5c1.1,0,1.5-1.3,0.8-2c-2.9-3.6-6.7,2.4-2.1,3.5c0.2-0.8,0.4-1.5,0.6-2.3c-3.8-0.7-7.5-1-11.4-0.7
					c-1.3,0.1-1.7,2.1-0.3,2.4c3,0.6,5.9,1,8.9,1.2c1.1,0.1,1.4-1.3,0.8-2c-1.9-2.3-3.7-5.4-7-4.1c-0.8,0.3-1.2,1.3-0.5,2
					c0.2,0.2,0.4,0.4,0.6,0.6c0.4-0.7,0.8-1.3,1.2-2c-1.7-0.5-3.2-0.3-3.2,1.8c0,0.4,0.2,0.8,0.6,1c1.4,0.8,2.9,0.7,4.4,0.5
					c0.9-0.1,1.7-1.3,0.8-2c-2.7-2.2-5.5-0.7-8.3,0.5c-1.1,0.5-0.6,2.4,0.6,2.2c2.8-0.4,3.3-4.4,0.1-4.3c-3.6,0-2.5,5.9,1.6,4.5
					c0.8-0.3,1.1-1,0.7-1.8c-0.6-1.2-0.8-1.3-2-1.7c-0.4-0.1-0.9,0-1.2,0.3c-0.2,0.2-0.4,0.4-0.6,0.7c-0.3,0.3-0.5,0.8-0.3,1.2
					c0.1,0.3,0.2,0.5,0.3,0.8c0.2,0.5,0.6,0.9,1.2,0.9c3.8-0.1,3.8-6.7-0.2-6c-0.4,0.1-0.7,0.5-0.8,0.8c-0.1,0.2-0.1,0.4-0.2,0.6
					c-0.1,0.4,0,0.9,0.3,1.2c0.1,0.1,0.2,0.3,0.4,0.4c0.6,0.6,1.9,0.4,2-0.5c0.9-5.7-5.2-3.6-3.5-0.4c2,3.8,7.9-1.9,2.4-3.6
					c-0.8-0.3-1.5,0.4-1.5,1.2c-0.1,1.6,0,2.7,1.7,3.1c0.4,0.1,0.9,0,1.2-0.3c0.1-0.1,0.3-0.3,0.4-0.4c0.4-0.4,0.4-0.9,0.2-1.5
					c-0.1-0.2-0.1-0.3-0.2-0.5c-0.6-1.4-2.7-0.2-2.1,1.2c0.4-0.5,0.8-1.1,1.2-1.6c-0.5,0.4-1,0.8-1.5,1.2c-0.2,0.3-0.4,0.7-0.6,1
					c0.7-0.2,1.3-0.4,2-0.5c-0.2,1.3-0.4,2.6-0.6,3.8c0.2-0.6,0.5-1.2,0.7-1.8c-0.4-0.1-0.7-0.1-1.1-0.2c0.2,0.7,0.4,1.5,0.6,2.2
					c1.7-1.1,3.5-1.4,5.4-0.9c0.3-0.7,0.6-1.4,0.8-2c-0.8,0.5-1.6,0.9-2.4,1.4c1.2,0.3,2-1.1,1.2-2c-0.2-0.2-0.4-0.4-0.6-0.6
					c-0.2,0.7-0.4,1.3-0.5,2c1.8-0.7,3.8,2.4,4.7,3.5c0.3-0.7,0.6-1.4,0.8-2c-2.8-0.2-5.5-0.6-8.2-1.1c-0.1,0.8-0.2,1.6-0.3,2.4
					c3.7-0.2,7.2,0,10.8,0.7c1.5,0.3,2.2-2,0.6-2.3c-0.1,0.2-0.2,0.4-0.3,0.6c0.3-0.7,0.6-1.4,0.8-2c-0.7-0.1-1.3-0.3-2-0.4
					c0.2,0.7,0.4,1.3,0.5,2c1.8-2,3.9-2.3,6.3-0.9c0-0.7,0-1.4,0-2.1c-1.7,1.5-3.7,1.8-5.9,1c0,0.8,0,1.5,0,2.3
					c2-0.5,3.9-0.4,5.6,0.4c0.1-0.8,0.2-1.6,0.3-2.4c-5.3,0.6-10-2.9-15.3-3.2c-1.5-0.1-1.5,2.3,0,2.4c2.1,0.1,4.2,0.3,6.3,0.4
					c3.9,0.2,6.3,1.1,10.3,1.9c-0.2-0.7-0.4-1.3-0.5-2c-0.3,0.1-0.6,0.3-0.8,0.4c0,0.8,0,1.6,0,2.4c0.9,0.6,1.8,1.1,2.6,1.7
					c0.6-0.5,1.2-0.9,1.8-1.4c-0.8,0.1-1.6,0.2-2.3,0.4c0.3-0.7,0.6-1.4,0.8-2c0,0-0.1,0-0.1-0.1c-0.4,0.5-0.8,1-1.2,1.5
					c-3.5,0.2-6.7,1.1-10.3,1c-2.9,0-5.9-0.2-8.8-0.5c-3.1-0.3-4.2,0-6-2.7c-1.4-2.1-1.9-3.1-1.3-5.5c0.9-3.9,3.2-2.8,6.5-2.3
					c-0.3-0.5-0.6-1-0.8-1.5c-0.5,1.5-0.7,2.8-0.7,4.4c0,1.6,2.2,1.5,2.4,0c0.1-0.5,0.2-1.1,0.4-1.6c0.4-1.3-1.6-2.2-2.2-0.9
					c-1.9,4.1,0.1,4.6,3.9,4.7c4.6,0.1,10.1-0.4,14.4,1.5c0.5,0.2,1.1,0.3,1.6,0.5c3.5,3.4,3.7,4.6,0.9,3.5c-0.5,0-5.8-1.8-5.8-1.4
					c0.1-0.8-0.8-1.3-1.5-1.2c-0.3,0.1-0.7,0.2-1,0.2C128.8,565.9,129.4,568.2,130.9,567.8L130.9,567.8z"/>
			</g>
		</g>
		<g>
			<g>
				<path d="M118.5,567.3c-0.4-1.9-1.9-2.7-3.4-1.4c-0.3,0.2-0.4,0.8-0.3,1.2c1.4,4.1,11.5,3.9,14.3,1.6c1.4-1.1,1.7-3,0.3-4.3
					c-2.1-1.9-7.2-1.1-9.7-0.7c-0.9,0.1-1.3,0.4-2-0.3c-0.9-0.8-0.3-1.4,0.1-2.4c0.4-1.2,1-2.6,0.3-3.9c-0.9-1.6-2.8-1.8-4.2-0.8
					c-2.8,1.9-3.8,10.8,0.8,10.8c0.4,0,0.9-0.2,1-0.6c0.5-1.1,0-1.6,0-2.7c-0.1-2.1,1.1-3.8,1.3-5.8c0.1-0.9-1.1-1.6-1.8-1
					c-1.7,1.3-2.5,2.7-2.7,4.9c-0.1,1.5,2.3,1.5,2.4,0c0.5-0.9,1-1.9,1.5-2.8c-0.6-0.3-1.2-0.7-1.8-1c-0.2,1.8-1.5,3.1-1.5,5
					c0,0.4,0.4,2.8,1.2,1.1c0.6-1.1-1.4-3-0.1-4.4c0.1-1,0.6-1.1,1.5-0.3c-0.2,0.5-0.3,1-0.5,1.5c-0.2,0.7-0.5,1.4-0.6,2.2
					c-0.1,0.9,0,1.8,0.6,2.5c1.7,1.8,5.8,0.4,7.7,0.3c0.4,0,3-0.2,3.3,0c2.1,1.8-2,1.8-2.4,1.8c-1.3,0.1-2.6,0-3.9-0.3
					c-0.6-0.1-4.2-1.5-3.8,0.6C116.5,569.4,118.8,568.8,118.5,567.3L118.5,567.3z"/>
			</g>
		</g>
		<g>
			<g>
				<g>
					<path d="M120,555.4c-0.1,1.6-0.2,3.2-0.3,4.8c-0.1,0.8,1.1,0.8,1.2,0c0.1-1.6,0.2-3.2,0.3-4.8
						C121.3,554.6,120.1,554.7,120,555.4L120,555.4z"/>
				</g>
			</g>
			<g>
				<g>
					<path d="M121,561.4c0.8,0,0.8-1.2,0-1.2C120.2,560.2,120.2,561.4,121,561.4L121,561.4z"/>
				</g>
			</g>
			<g>
				<g>
					<path d="M120.3,561c5.8,0.7,25.9-1.3,23,8.9c-0.2,0.7,1,1.1,1.2,0.3c3.3-12.1-18.1-9.8-24.2-10.5
						C119.6,559.7,119.6,560.9,120.3,561L120.3,561z"/>
				</g>
			</g>
			<g>
				<g>
					<path d="M144.1,570.4c-5.2-1.1-10.5,0-15.7-0.1c-5.6-0.2-11.8,0.1-17-1.9c-0.7-0.3-1,0.9-0.3,1.2c4.4,1.7,9.1,1.6,13.8,1.8
						c6.2,0.3,12.9-1.1,19,0.2C144.6,571.7,144.9,570.5,144.1,570.4L144.1,570.4z"/>
				</g>
			</g>
			<g>
				<g>
					<path d="M111.8,568.5c-1.4-1.2-0.9-5.4-1-7.2c-0.1-2,0.2-4,0.2-6c0-0.8-1.2-0.8-1.2,0c0,1.5-0.3,3-0.3,4.5c0,1.5,0.3,3,0.3,4.5
						c0,1.9-0.4,3.7,1.2,5C111.5,569.8,112.4,569,111.8,568.5L111.8,568.5z"/>
				</g>
			</g>
			<g>
				<g>
					<path d="M120.6,554.4c-3.2-0.2-6.3-0.6-9.5-1c-0.8-0.1-0.8,1.1,0,1.2c3.2,0.3,6.3,0.8,9.5,1
						C121.4,555.7,121.4,554.5,120.6,554.4L120.6,554.4z"/>
				</g>
			</g>
			<g>
				<g>
					<path d="M143,571.1c0.1,0.5,0.1,1-0.2,1.5c-0.4,0.7,0.7,1.3,1,0.6c0.4-0.8,0.5-1.6,0.3-2.5C143.9,570,142.8,570.3,143,571.1
						L143,571.1z"/>
				</g>
			</g>
			<g>
				<g>
					<path d="M143.1,572.8c-4.9-1.2-9.8-0.6-14.8-0.6c-6,0-11.9-0.6-17.8-1.6c-0.8-0.1-1.1,1-0.3,1.2c4.8,0.8,9.6,1.4,14.5,1.6
						c6,0.2,12.2-0.8,18.1,0.7C143.6,574.1,143.9,573,143.1,572.8L143.1,572.8z"/>
				</g>
			</g>
			<g>
				<g>
					<path d="M110.8,571.1c0.1-1,0.1-2.1,0.1-3.1c0-0.8-1.2-0.8-1.2,0c0.1,1,0,2.1-0.1,3.1C109.5,571.8,110.7,571.8,110.8,571.1
						L110.8,571.1z"/>
				</g>
			</g>
			<g>
				<g>
					<path d="M111.2,556.1c0.1-0.5,0.2-1,0.1-1.5c-0.1-0.8-1.3-0.8-1.2,0c0,0.4,0,0.8-0.1,1.2C109.8,556.5,111,556.8,111.2,556.1
						L111.2,556.1z"/>
				</g>
			</g>
		</g>
	</g>
</g>
</svg>
