<svg id="Layer_1" data-name="Layer 1" xmlns="http://www.w3.org/2000/svg" viewBox="0 0 63.17 68.13"><defs><style>.cls-1{fill:#141113;}.cls-2{fill:#292728;}</style></defs><title>Black</title><path class="cls-1" d="M70.8,70.9a2.31,2.31,0,0,0,3.8.5,1.6,1.6,0,0,0,.4-1.5A2.21,2.21,0,0,0,72.4,68c-2.2.4-2,3-1.9,4.7s2.6,2.2,2.9.4c.3-1.5.5-3,.8-4.6.2-1.3-1.4-2.7-2.5-1.5a7,7,0,0,0-1.5,2.5c-.6,1.6,1.9,2.6,2.7,1.2.7-1.2,1.3-2.3,1.9-3.6l-2.7-1.2a6.94,6.94,0,0,0-.5,1.3c1,.3,1.9.5,2.9.8.7-2.8,1.5-5.5,2.2-8.3-1-.3-1.9-.5-2.9-.8-.2.8-.4,1.7-.6,2.5-.4,1.6,1.9,2.7,2.7,1.2A7.61,7.61,0,0,1,77.7,60l-2.4-1.8c-.5,1.1-1,2.1-1.5,3.2.9.5,1.7,1,2.6,1.5a42.64,42.64,0,0,0,3.4-12.7c.2-1.7-2.7-2.1-2.9-.4L76,55.2c-.3,1.9,2.6,2.7,2.9.8a26.22,26.22,0,0,1,4.7-11.3c-.9-.5-1.7-1-2.6-1.5a11,11,0,0,1-2.3,3.7c-1.3,1.4.8,3.6,2.1,2.1a76.22,76.22,0,0,1,6.4-6.3l-2.1-2.1c-1.4,1.6-2.9,3.1-4.5,4.6a1.55,1.55,0,0,0,1.1,2.6,10.48,10.48,0,0,0,7.2-2.6c1.2-1-.1-2.9-1.5-2.5A8.59,8.59,0,0,0,83,45.5c-1.3,1.4.8,3.5,2.1,2.1,2.7-2.7,6.6-2.1,9.8-3.9,2.8-1.5,4.1-4.2,5.4-7,.5-1.2-.7-3.1-2.1-2.1a36,36,0,0,1-12.5,6.3,1.5,1.5,0,0,0,.8,2.9,49.73,49.73,0,0,0,11.3-4.3c-.5-.9-1-1.7-1.5-2.6-1.7,1.2-3.4,2.4-5.1,3.5A1.5,1.5,0,0,0,92.7,43a13.43,13.43,0,0,0,4.2-2.8,1.58,1.58,0,0,0-.3-2.4c-4.6-2.5-13-1.6-15.6,3.5-.6,1.2.8,3,2.1,2.1A18.53,18.53,0,0,1,89,40.3c-.5-.8-1-1.7-1.5-2.5a9.45,9.45,0,0,1-4.2,2.8c.5.8,1,1.7,1.5,2.5,3.6-2.9,8.3-3.6,11.8-6.7,1.5-1.3-.6-3.3-2.1-2.1a38.83,38.83,0,0,1-4.7,3.2c-1.7,1-.2,3.4,1.5,2.6,2.1-1,8-2.6,8.5-5.2.1-.7-.4-1.2-.4-1.8,0-.3-.5-.6-.5-.9s.5-.5.5-.8c-.2-7.6-8.8-1.7-12,.4l1.8,2.4c1.5-2,3.3-2.2,5.5-.6a23.35,23.35,0,0,1,2.5.7c.1-.3.2-.5.3-.8H94.9c.3-.5.7-1,1-1.5-.8.4-1.5.9-2.3,1.3.9-.5,1.9-1,2.8-1.5H94.3c.2.1.3.3.5.4a11,11,0,0,1-.2-1.8s-2.6.6-2.7.7a5.93,5.93,0,0,0-2.1,2.6c-1,2.3-.5,4.5.5,6.6A1.49,1.49,0,0,0,93,39.1c-.4-1.8-.9-3.5-1.3-5.3a1.51,1.51,0,0,0-1-1.8,6.9,6.9,0,0,0-4.7.3c.3,1,.5,1.9.8,2.9a35.48,35.48,0,0,0,4.4-2.1c1.4-.7.6-2.7-.8-2.8-2.5-.2-5.4,1.6-7.3,2.9-2.4,1.7-4.1,4.4-5.7,6.8.9.3,1.9.5,2.8.8-.1-5.3,6-4.6,8.8-4.3v-3c-2.1-.1-4.2-.2-6.3-.2.3.9.5,1.9.8,2.8a5.94,5.94,0,0,1-.4.8c.3.9.5,1.9.8,2.8a11.08,11.08,0,0,1,6.7-1c1.7.2,2-2.6.4-2.9-7.6-1.5-11.6,2.2-13.2,9.4-.4,1.6,1.9,2.7,2.7,1.2a28.26,28.26,0,0,1,5.2-7.1l-2.4-1.8c-1.6,2.4-3.2,4.8-4.9,7.2.9.5,1.7,1,2.6,1.5.4-.7,6.1-10.9,3-10.8-.2,0-3.4,4.2-3.8,4.7-1.1,1.3-2.2,2.7-3.2,4.1-3.6,5.5-5.9,13.7-4.8,20.2l2.7-1.2c-.8-1.5-1.6-3.1-2.3-4.6s-3.1-.4-2.7,1.2c.3,1.4.7,2.7,1,4.1,1-.3,1.9-.5,2.9-.8-1.2-5.2-.5-18,5.8-20.1l-1.8-1.8c-1.7,6.7-7.9,13.6-5.6,21,.3,1.1,2.2,1.6,2.7.4l7.2-17.1c.6-1.6-2-2.7-2.7-1.2-1,2.2-2.1,4.4-3.1,6.6L79,52.1c.7-1.8,1.4-3.6,2.1-5.5.6-1.6-2.1-2.7-2.7-1.2-.7.8-1.3,1.7-2,2.5.8.4,1.5.9,2.3,1.3a6.26,6.26,0,0,1,1.9-4.8A1.52,1.52,0,0,0,78.8,42a7.68,7.68,0,0,0-4.2,6.3c-.2,1.6,2,1.8,2.8.8C80.3,45,83.1,41,86,36.9c1.1-1.6-1.5-3.1-2.6-1.5-2.8,4.1-5.7,8.2-8.6,12.2.9.3,1.9.5,2.8.8.9-1.2,1.8-2.5,2.7-3.7l-1.8-2.4a10.49,10.49,0,0,0-2.7,6.9,1.53,1.53,0,0,0,2.3,1.3,7.28,7.28,0,0,0,3.1-3.6l-2.7-1.2c-.7,1.8-1.4,3.6-2.1,5.5-.6,1.6,2,2.7,2.7,1.2,1-2.2,2.1-4.4,3.1-6.6l-2.7-1.2c-2.3,5.5-4.6,10.9-6.9,16.4a25.12,25.12,0,0,1,2.7.4c-2.1-6.7,4-13.4,5.6-19.4a1.44,1.44,0,0,0-1.8-1.8c-8.3,2.7-9.7,16.6-7.9,23.8.5,1.9,3.3,1.1,2.9-.8-.3-1.4-.7-2.7-1-4.1l-2.7,1.2c.8,1.5,1.6,3.1,2.3,4.6s3,.4,2.7-1.2c-1.1-6.7,2.2-15,6.2-20.2,1.8-2.3,6.1-5.6,5.9-8.8a1.56,1.56,0,0,0-.7-1.3c-1.3-.6-2.5-.7-3.5.6-.7.9-.8,2.5-1.1,3.5a39.42,39.42,0,0,1-3.4,7.2c-1,1.7,1.5,3.1,2.6,1.5,1.6-2.4,3.2-4.8,4.9-7.2,1-1.4-1.2-3-2.4-1.8a28.52,28.52,0,0,0-5.7,7.7l2.7,1.2c1.1-5.1,3.8-8.4,9.5-7.3.1-1,.3-2,.4-2.9a13.81,13.81,0,0,0-8.2,1.4c-1.3.6-.7,2.9.8,2.8,7.3-.6,3.6-9.8-1.1-6.4a1.52,1.52,0,0,0,.8,2.8c2.1.1,4.2.2,6.3.2,1.9.1,1.9-2.9,0-3-5.3-.4-11.9.6-11.8,7.3a1.52,1.52,0,0,0,2.8.8c1.8-2.6,3.1-4.5,5.9-6,1-.5,3.7-2.3,4.6-2.2-.3-.9-.5-1.9-.8-2.8a24.77,24.77,0,0,1-3.7,1.7c-1.7.7-1,3.6.8,2.9l3.1-.3c-.3-.6-.7-1.2-1-1.8-1.4,4.7,5.6,7.4,6.6,2.8.9-3.8-5.4-4.1-5.6-.2-.1,4.1,6.4,3.9,5.9-.2a2.88,2.88,0,0,0-3.6-2.3c-3.3.8-2.8,4.4-2,6.8L93.3,39c-2.7-5.3,3-4.4,4.2-6.9a1.51,1.51,0,0,0-.2-1.8c-.2-.1-.3-.3-.5-.4a1.45,1.45,0,0,0-2.1,0c-1.6,1.5-3.2,6.5.6,6.4,3.5-.1,2.2-4.2.2-5.3a1.57,1.57,0,0,0-2.3,1.3c-.8,7,7.8,5.6,4.6,0a1.54,1.54,0,0,0-2.6,0c-.9,1.2-.8,1.6-.6,3.1a1.55,1.55,0,0,0,2.5.7c1.9-2.1,2.2-5-.5-6.6-3.4-1.9-6.7.9-9.2,2.9-1.3,1.1.4,3.3,1.8,2.4.8-.5,7.1-4.6,7.5-3.9a10.52,10.52,0,0,0-.8,1.8c0,.5.9,1.7.8,1.9-.1.8-5.3,2.7-6.6,3.4.5.9,1,1.7,1.5,2.6A49.3,49.3,0,0,0,96.9,37l-2.1-2.1C91,37.3,86.2,38,82.6,41c-1.1.9.1,3.1,1.5,2.5a16.38,16.38,0,0,0,5.5-3.6,1.52,1.52,0,0,0-1.5-2.5,21.81,21.81,0,0,0-6.6,3.4l2.1,2.1c1.8-3.4,8.7-3.9,11.5-2.4l-.3-2.4a7.71,7.71,0,0,1-3.6,2.3c.5.9,1,1.7,1.5,2.6,1.7-1.2,3.4-2.4,5.1-3.5a1.5,1.5,0,0,0-1.5-2.6,45.31,45.31,0,0,1-10.6,4c.3,1,.5,1.9.8,2.9a36.45,36.45,0,0,0,13.2-6.6l-2.1-2.1c-2,4.4-4.3,6.1-9.1,7.3a11.27,11.27,0,0,0-5.7,3l2.1,2.1c1-.7,2.1-1.3,3.1-2-.5-.8-1-1.7-1.5-2.5a6.16,6.16,0,0,1-5.1,1.7c.4.9.7,1.7,1.1,2.6,1.6-1.5,3-3,4.5-4.6a1.49,1.49,0,0,0-2.1-2.1,54.34,54.34,0,0,0-6.4,6.3L80.6,49a17.69,17.69,0,0,0,2.8-4.3,1.5,1.5,0,0,0-2.6-1.5,29,29,0,0,0-5,12c1,.3,1.9.5,2.9.8l.9-5.4c-1-.1-2-.3-2.9-.4a35.73,35.73,0,0,1-3,11.2c-.8,1.7,1.8,3.3,2.6,1.5.5-1.1,1-2.1,1.5-3.2.7-1.4-1.2-3.2-2.4-1.8a14,14,0,0,0-2.2,3.2l2.7,1.2c.2-.8.4-1.7.6-2.5.4-1.9-2.4-2.7-2.9-.8-.7,2.8-1.5,5.5-2.2,8.3-.5,1.9,2.2,2.5,2.9.8a6.94,6.94,0,0,0,.5-1.3c.6-1.6-2-2.7-2.7-1.2-.6,1.2-1.2,2.4-1.9,3.6l2.7,1.2a10.54,10.54,0,0,1,.7-1.1c-.8-.5-1.7-1-2.5-1.5-.3,1.5-.5,3-.8,4.6,1,.1,2,.3,2.9.4,0-1.1-.1-2.2-.1-3.4-.8-1.6-3.4-.1-2.3,1.5Z" transform="translate(-69.8 -26.48)"/><path class="cls-1" d="M75.1,51.3a10.36,10.36,0,0,1,2-3.9c-.9-.4-1.7-.7-2.6-1.1a9.78,9.78,0,0,1-.9,4.1c1,.3,1.9.5,2.9.8a11.37,11.37,0,0,1,1.9-4,25.12,25.12,0,0,1-2.7-.4,9.45,9.45,0,0,1-.4,4.7h2.9c-.1-.4.1-.7.3-1.1-.9-.3-1.9-.5-2.8-.8a7.26,7.26,0,0,1-1,2.8,25.12,25.12,0,0,1,2.7.4h0c-.3.2-.6.5-.9.7h.1a23.07,23.07,0,0,0-1.9-1.4h0c.2,1.9,3.2,1.9,3,0h0a1.47,1.47,0,0,0-1.9-1.4c-1.3.2-1.5,1.9-1.3,3a1.51,1.51,0,0,0,2.7.4,11.44,11.44,0,0,0,1.4-4.3c.2-1.5-2.1-1.9-2.8-.8a5.09,5.09,0,0,0-.6,3.4c.2,1.6,2.4,1.2,2.9,0a10.11,10.11,0,0,0,.4-6.2,1.51,1.51,0,0,0-2.7-.4,18.21,18.21,0,0,0-2.2,4.7,1.5,1.5,0,0,0,2.9.8,11.94,11.94,0,0,0,1-4.9,1.56,1.56,0,0,0-2.6-1.1,12.53,12.53,0,0,0-2.8,5.2c-.3,1.9,2.5,2.7,3,.8Z" transform="translate(-69.8 -26.48)"/><path class="cls-1" d="M80.2,87.9a4.18,4.18,0,0,0-.4-1c-.8-1.5-3.1-.5-2.7,1.2a13.09,13.09,0,0,0,1.5,3.7,1.52,1.52,0,0,0,2.8-.8,10.4,10.4,0,0,0-.3-3.5l-2.7,1.2c.1.2.1.3.2.5L81.3,88a22,22,0,0,0-2.7-4.3c-1-1.3-2.8.1-2.5,1.5a9.68,9.68,0,0,0,1.4,3.3l2.1-2.1c-.4-.3-.4-1.1-.5-1.6a4,4,0,0,0-.6-1.5,1.49,1.49,0,0,0-2.7,1.2.6.6,0,0,0,.1.4l2.7-1.2c-.5-.7-1-1.3-1.5-1.9-1.3-1.5-3.4.7-2.1,2.1a11.32,11.32,0,0,1,1,1.3A1.5,1.5,0,0,0,78.7,84a.6.6,0,0,0-.1-.4l-2.7,1.2c.5.8.4,1.7.8,2.6A3.64,3.64,0,0,0,78.1,89a1.56,1.56,0,0,0,2.1-2.1,7.56,7.56,0,0,1-1.1-2.6c-.8.5-1.7,1-2.5,1.5a17.22,17.22,0,0,1,2.2,3.7c.8,1.6,3.1.4,2.7-1.2a2.57,2.57,0,0,0-.5-1.2,1.49,1.49,0,0,0-2.7,1.2,12.29,12.29,0,0,1,.2,2.7c.9-.3,1.9-.5,2.8-.8a15.66,15.66,0,0,1-1.2-3l-2.7,1.2c0,.1.1.2.1.3.2,1.9,3,1.1,2.7-.8Z" transform="translate(-69.8 -26.48)"/><path class="cls-1" d="M78.8,88.6c.8.7,1.5,1.4,2.3,2.1a1.54,1.54,0,0,0,2.1,0,1.45,1.45,0,0,0,0-2.1c-.8-.7-1.5-1.4-2.3-2.1a1.54,1.54,0,0,0-2.1,0,1.45,1.45,0,0,0,0,2.1Z" transform="translate(-69.8 -26.48)"/><path class="cls-1" d="M79.5,89.3l.3.3a1.48,1.48,0,0,0,2.1-2.1l-.3-.3a1.48,1.48,0,0,0-2.1,2.1Z" transform="translate(-69.8 -26.48)"/><path class="cls-1" d="M80.6,89.8A12.06,12.06,0,0,1,83,91.9c.5-.8,1-1.7,1.5-2.5a1.85,1.85,0,0,0-.7-.2c-.3,1-.5,1.9-.8,2.9a2.67,2.67,0,0,1,1.4.7l2.1-2.1a2.65,2.65,0,0,0-.6-.5l-1.8,2.4c.6.3,1.1.6,1.7.9,1.7.9,3.2-1.7,1.5-2.6-.6-.3-1.1-.6-1.7-.9-1.4-.7-3.2,1.2-1.8,2.4a2.65,2.65,0,0,0,.6.5c1.5,1.2,3.6-.9,2.1-2.1a7.2,7.2,0,0,0-2.7-1.5,1.51,1.51,0,0,0-.8,2.9,1.85,1.85,0,0,0,.7.2,1.52,1.52,0,0,0,1.5-2.5,18.1,18.1,0,0,0-3-2.5c-1.7-1.3-3.2,1.3-1.6,2.4Z" transform="translate(-69.8 -26.48)"/><path class="cls-1" d="M75.1,79.5c.1-.7.3-1.4.4-2.1a1.46,1.46,0,1,0-2.8-.8c-.1.7-.3,1.4-.4,2.1a1.39,1.39,0,0,0,1,1.8,1.47,1.47,0,0,0,1.8-1Z" transform="translate(-69.8 -26.48)"/><path class="cls-1" d="M72.1,75.6v.8a1.5,1.5,0,0,0,3,0v-.8a1.5,1.5,0,0,0-3,0Z" transform="translate(-69.8 -26.48)"/><path class="cls-1" d="M73,79.7a7,7,0,0,0,1.3,2.4,1.53,1.53,0,0,0,2.6-1.6l-.6-.9a5.9,5.9,0,0,1-.4-.8,1.4,1.4,0,0,0-1.8-1A1.52,1.52,0,0,0,73,79.7Z" transform="translate(-69.8 -26.48)"/><path class="cls-1" d="M74.5,82.3,76,83.8a1.48,1.48,0,0,0,2.1-2.1l-1.5-1.5a1.48,1.48,0,0,0-2.1,2.1Z" transform="translate(-69.8 -26.48)"/><path class="cls-1" d="M113,93.7c.2,0,.5-.1.7-.1,1.7-.2,1.3-3.2-.4-2.9a6.07,6.07,0,0,0-1.8.5c-1.6.7-.5,3.2,1.2,2.7a35.58,35.58,0,0,0,6.1-2.5c-.7-.6-1.5-1.1-2.2-1.7a2.92,2.92,0,0,0-.2.9c-.7,1.4,1.1,3.2,2.4,1.8a17.8,17.8,0,0,0,2.3-3.1,1.52,1.52,0,0,0-2.4-1.8,6.62,6.62,0,0,1-1.9,1.5l2.1,2.1c.5-.9,1.6-1.2,2.3-1.9a14.91,14.91,0,0,0,1.5-2,35.87,35.87,0,0,1,5.1-5.2l-2.1-2.1a15,15,0,0,0-2.9,5.6,1.5,1.5,0,0,0,2.7,1.2c.7-.9,1.3-1.9,2-2.8,1.1-1.6-1.5-3.1-2.6-1.5-.7.9-1.3,1.9-2,2.8l2.7,1.2a13.25,13.25,0,0,1,2.1-4.3,1.49,1.49,0,0,0-2.1-2.1,46.76,46.76,0,0,0-5.4,5.5,14.21,14.21,0,0,1-2.4,2.5,4.64,4.64,0,0,0-1.6,1.8,1.56,1.56,0,0,0,2.1,2.1,8.18,8.18,0,0,0,2.5-2l-2.4-1.8a10.77,10.77,0,0,1-1.8,2.4l2.4,1.8a4.28,4.28,0,0,0,.5-1.6,1.53,1.53,0,0,0-2.2-1.7,32.14,32.14,0,0,1-5.4,2.2,18.89,18.89,0,0,1,1.1,2.5c.2,0,.2,0,.3-.1-.1-1-.3-2-.4-2.9-.2,0-.5.1-.7.1-1.9.3-1.1,3.2.8,2.9Z" transform="translate(-69.8 -26.48)"/><path class="cls-1" d="M124.6,85a7.8,7.8,0,0,0,2.8-4.1c.6-1.7-1.8-2.5-2.7-1.2-.7,1-1.4,2.1-2.1,3.1a1.52,1.52,0,0,0,2.4,1.8,26.81,26.81,0,0,0,4.3-6.6,1.5,1.5,0,0,0-2.6-1.5,21.78,21.78,0,0,0-2.2,4.3c1,.3,1.9.5,2.9.8a14.62,14.62,0,0,0,.5-2c.4-1.6-1.9-2.7-2.7-1.2a12.75,12.75,0,0,1-1.5,2.5c.9.5,1.7,1,2.6,1.5a23.46,23.46,0,0,0,1.9-4.3c-1-.3-1.9-.5-2.9-.8-.1.4-.2.9-.3,1.3a1.51,1.51,0,0,0,2.9.8,55.5,55.5,0,0,0,1.7-8.1h-3c-.1,2.2-.1,4.4-.2,6.6-.1,1.9,2.9,1.9,3,0,.2-5,.3-10,.5-14.9-1,.1-2,.3-2.9.4a15.86,15.86,0,0,1,.2,7.8c-.3,1.6,2,2.8,2.7,1.2,2.4-5.5,3.4-11.2.5-16.7-.9-1.6-3-.4-2.7,1.2l1.2,7.5c1-.3,1.9-.5,2.9-.8a140.57,140.57,0,0,0-5-20.1c-.8.5-1.7,1-2.5,1.5,2.9,2.4,3.3,7.6,4,11.1.3,1.7,3,1.3,2.9-.4,0-6.3-.5-12.7-5.6-17.1a1.49,1.49,0,0,0-2.1,2.1,15,15,0,0,1,3.7,12.8c-.3,1.9,2.6,2.7,2.9.8a18.34,18.34,0,0,0-4.4-15.7l-2.1,2.1c4.5,3.9,4.7,9.4,4.7,15,1-.1,2-.3,2.9-.4-.8-4.1-1.3-9.6-4.8-12.4a1.51,1.51,0,0,0-2.5,1.5,155.33,155.33,0,0,1,5,20.1c.3,1.9,3.2,1.1,2.9-.8l-1.2-7.5-2.7,1.2c2.4,4.5,1.4,9.2-.5,13.7l2.7,1.2a19.9,19.9,0,0,0-.2-9.4,1.48,1.48,0,0,0-2.9.4c-.2,5-.3,10-.5,14.9h3c.1-2.2.1-4.4.2-6.6.1-2-2.8-1.9-3,0a36.61,36.61,0,0,1-1.6,7.3c1,.3,1.9.5,2.9.8.1-.4.2-.9.3-1.3a1.51,1.51,0,0,0-2.9-.8,14.62,14.62,0,0,1-1.6,3.6c-1,1.7,1.5,3.1,2.6,1.5a12.75,12.75,0,0,0,1.5-2.5L125.2,79a14.62,14.62,0,0,0-.5,2,1.5,1.5,0,0,0,2.9.8,12.44,12.44,0,0,1,1.9-3.6c-.9-.5-1.7-1-2.6-1.5a25.32,25.32,0,0,1-3.8,6l2.4,1.8c.7-1,1.4-2.1,2.1-3.1l-2.7-1.2-2.1,2.7c-1.8,1.2.3,3.3,1.8,2.1Z" transform="translate(-69.8 -26.48)"/><path class="cls-1" d="M100.6,32.2a2.35,2.35,0,0,1,.8-.2,25.12,25.12,0,0,0-.4-2.7,4.33,4.33,0,0,0-.5.1,17.1,17.1,0,0,0,1.1,1.4c.1-.2.1-.3.2-.5,1.4-1.1-.4-3.1-1.8-2.4-.4.2-.7.4-1.1.6a1.52,1.52,0,0,0,.8,2.8,4.41,4.41,0,0,0,3.7-1.6,11,11,0,0,1-1.8.2,48.2,48.2,0,0,0,5,2.7c1.7.7,3.3-1.6,1.5-2.6-1.3-.7-2.6-1.4-3.8-2.1l-1.2,2.7a29.91,29.91,0,0,1,4.2,1.5c1.6.7,2.7-2,1.2-2.7a11.47,11.47,0,0,0-3.1-1.1,1.51,1.51,0,0,0-.8,2.9c2.3.8,4.6,1.6,6.8,2.4,1.8.7,2.6-2.2.8-2.9a30.5,30.5,0,0,1-4.1-1.9,25.12,25.12,0,0,1-.4,2.7c4-.7,5.6,3,6.6,5.8l2.7-1.2a16.35,16.35,0,0,1-1.6-4.7l-2.7,1.2a90,90,0,0,1,6.7,10.6c.9,1.7,3.4.2,2.6-1.5s-1.5-3.3-2.3-4.9l-2.4,1.8c2.2,2.1,4.3,4.2,6.4,6.4a1.51,1.51,0,0,0,2.5-1.5,18.8,18.8,0,0,0-4-7l-2.1,2.1a7,7,0,0,1,2.3,3.1,1.52,1.52,0,0,0,2.8-.8,9.26,9.26,0,0,0-8-9.1,1.5,1.5,0,0,0-1.2,2.7,11.48,11.48,0,0,1,4.6,6.6c.8-.5,1.7-1,2.5-1.5-2.8-2.5-4.5-6.1-8.1-7.7-4-1.7-9.2,1-12.7-1.5l-1.2,2.7a19.52,19.52,0,0,1,10,5.3l1.8-2.4c-2.8-1.9-5.6-3.8-8.4-5.8l-1.2,2.7a19.49,19.49,0,0,1,8.3,4.6c.5-.8,1-1.7,1.5-2.5a43.78,43.78,0,0,1-9.7-5.4l-1.2,2.7a28,28,0,0,1,13,10l2.4-1.8a23.26,23.26,0,0,1-4.6-6.2l-2.1,2.1a21.74,21.74,0,0,1,6.2,5.5l2.4-1.8L112,32.3c-.5.8-1,1.7-1.5,2.5,4.3,1,5.3,5.3,7.1,8.7,1.3,2.4,4.7,5.2,5.1,7.8,1-.1,2-.3,2.9-.4a21.69,21.69,0,0,0-4.8-7.8,1.52,1.52,0,0,0-2.5,1.5,42.48,42.48,0,0,0,2.1,4.9l2.4-1.8a9.18,9.18,0,0,1-2.4-2.8L118,46.7c.3.2.5.5.8.7a1.52,1.52,0,0,0,2.5-1.5c-.2-.9-.5-1.8-.7-2.7-.7.6-1.5,1.1-2.2,1.7a10.84,10.84,0,0,1,3.2,3.2,1.5,1.5,0,0,0,2.6-1.5c-.8-1.7-1.6-3.5-2.4-5.2l-2.4,1.8a25.47,25.47,0,0,1,3,4.1c1,1.7,3.4.2,2.6-1.5l-1.8-3.9c-.9.5-1.7,1-2.6,1.5a36.22,36.22,0,0,1,2.7,4.1,1.49,1.49,0,0,0,2.7-1.2,8.47,8.47,0,0,0-1.4-3.4c-1-1.7-3.4-.2-2.6,1.5a51.24,51.24,0,0,0,3,5.7c1,1.7,3.4.2,2.6-1.5a19.62,19.62,0,0,0-1.7-3.2,1.52,1.52,0,0,0-2.8.8,37.6,37.6,0,0,0,1,7.5l2.7-1.2c-.5-1-1.1-1.9-1.7-2.9-.7-1.2-3-.8-2.8.8,0,.4.1.9.1,1.3.9-.3,1.9-.5,2.8-.8a7.71,7.71,0,0,0-1.4-2.1c-1.1-1.3-2.7.2-2.5,1.5.1.8.2,1.6.3,2.3l2.7-1.2c-.4-.8-.7-1.6-1.1-2.4-1,.3-1.9.5-2.9.8a40.52,40.52,0,0,1,2.4,9.7c1-.1,2-.3,2.9-.4a58.21,58.21,0,0,1-2.4-10c-1,.3-1.9.5-2.9.8a50,50,0,0,1,2.3,7.2c.4,1.6,2.4,1.3,2.9,0,.3-.7.6-1.5.9-2.2h-2.9a11.24,11.24,0,0,1,.4,4.1c-.1,1.9,2.8,1.9,3,0,.1-1.7.3-3.4.4-5.1-1,.1-2,.3-2.9.4a23.93,23.93,0,0,1,.6,5.3h3c0-1,.1-2,.1-3.1h-2.9c.9,3.7-.4,4.1-1.5,7.1,1,.1,2,.3,2.9.4a31.06,31.06,0,0,0-.4-3.2c-.9.3-1.9.5-2.8.8.2.5.5,1.1.7,1.6.9-.5,1.7-1,2.6-1.5-.2-.6-.5-1.2-.7-1.7-.8.5-1.7,1-2.5,1.5,1.1,1-.2,4.8-.4,6-.2,1-.7,1.8-.9,2.8a1.53,1.53,0,0,0,2.5,1.5,18.25,18.25,0,0,0,4.9-8.9,1.5,1.5,0,0,0-2.7-1.2c-.3.5-.7,1-1,1.5a25.12,25.12,0,0,1,2.7.4c-.6-4.5-.5-10.2-2.4-14.3-1.5-3.3-4.7-4.7-7.4-6.8-3.6-2.8-5.2-6.2-9.5-8.1-3.6-1.5-7.4-2.4-11.2-1.6a1.55,1.55,0,0,0-.7,2.5,27,27,0,0,0,3.9,2.7c.3-.9.5-1.9.8-2.8a12.41,12.41,0,0,1-3.8-.9A1.5,1.5,0,0,0,97.1,37a19.27,19.27,0,0,0,4.4,2c.1-1,.3-2,.4-2.9H99.6a1.55,1.55,0,0,0-1.3,2.3c.7,1.4,1,1.5,2.4,2,1.8.6,2.6-2.3.8-2.9-.5-.2-1-.3-1.4-.5-1.7-.6-2.5,1.8-1.2,2.7.4.2.7.5,1.1.7l1.2-2.7-1.5-.3c-1.3-.2-2.7,1.4-1.5,2.5,2.5,2.2,8.2,1.5,9.7,4.2.8,1.4,2.6.6,2.8-.8.5-4.9-3.4-7.3-7.5-8.9-1.6-.6-2.7,2-1.2,2.7a73,73,0,0,1,6.8,3.6L110,38a24,24,0,0,1-6.3-1.9,1.5,1.5,0,0,0-1.5,2.6,37.18,37.18,0,0,1,4.5,3.3c.5-.8,1-1.7,1.5-2.5a7,7,0,0,1-4.1-2.5c-.5.8-1,1.7-1.5,2.5a8,8,0,0,1,3.9,1.4l1.2-2.7c-1-.5-2-1-3-1.4-.4.9-.7,1.7-1.1,2.6a6.3,6.3,0,0,1,5.1,1.4l1.2-2.7c-1.2-.8-2.3-1.6-3.5-2.4-.4.8-.9,1.5-1.3,2.3a6.67,6.67,0,0,1,5.8,4.2l2.1-2.1a7.28,7.28,0,0,1-3-3.5l-2.4,1.8a23.22,23.22,0,0,1,4,4.9l2.4-1.8c-.6-.5-1.1-1-1.7-1.5a1.53,1.53,0,0,0-2.4,1.8c1.3,2.9,3.6,4.7,5.2,7.3a1.48,1.48,0,0,0,2.7-.4l1.5-4.8a1.48,1.48,0,0,0-.7-1.7,26.07,26.07,0,0,0-4.3-2.4,1.52,1.52,0,0,0-1.8,2.4c1.3,1.6,2.6,3.1,3.9,4.7l2.1-2.1a18.85,18.85,0,0,1-2.5-3.1l-2.4,1.8a5.8,5.8,0,0,1,1.9,2.7c.6-.7,1.1-1.5,1.7-2.2-.6-.4-1.2-.9-1.8-1.3-.8.5-1.7,1-2.5,1.5.3.5.7,1,1,1.5l2.4-1.8a5.15,5.15,0,0,1-2.5-4c-.7.6-1.5,1.1-2.2,1.7l1.2,1.8c.8-.4,1.5-.9,2.3-1.3-.5-.9-1.1-1.7-1.6-2.6a17.1,17.1,0,0,0-1.4,1.1c.4.4.8.9,1.2,1.3.9,1.7,3.5.2,2.6-1.5s-1.8-2.8-3.8-2.8a1.5,1.5,0,0,0-1.4,1.1c-.8,2.5.9,4.7,3,6a1.52,1.52,0,0,0,2.3-1.3,4.77,4.77,0,0,0-2.7-4.4,1.52,1.52,0,0,0-2.2,1.7,8.39,8.39,0,0,0,3.2,5.3,1.52,1.52,0,0,0,2.4-1.8,3.93,3.93,0,0,0-1.5-2.1,1.52,1.52,0,0,0-2.5,1.5,4.26,4.26,0,0,0,3.9,3.4,1.53,1.53,0,0,0,1.7-2.2,9.66,9.66,0,0,0-2.4-3.3c-1.2-1.1-3.4.4-2.4,1.8a34.68,34.68,0,0,0,3,3.7c1.3,1.4,3.3-.7,2.1-2.1-1.3-1.6-2.6-3.1-3.9-4.7l-1.8,2.4a22.56,22.56,0,0,1,4.3,2.4c-.2-.6-.5-1.1-.7-1.7L115,48.1a25.12,25.12,0,0,0,2.7-.4c-1.6-2.6-3.9-4.4-5.2-7.3l-2.4,1.8c.6.5,1.1,1,1.7,1.5,1.2,1.1,3.3-.3,2.4-1.8a26.41,26.41,0,0,0-4.5-5.5,1.52,1.52,0,0,0-2.4,1.8,11.34,11.34,0,0,0,4.1,4.6c1.4.9,2.6-.8,2.1-2.1a9.29,9.29,0,0,0-8.4-5.7,1.52,1.52,0,0,0-1.3,2.3,9.26,9.26,0,0,0,5.3,3.8,1.5,1.5,0,0,0,1.2-2.7,10.46,10.46,0,0,0-6.7-1.8,1.56,1.56,0,0,0-1.1,2.6,7.42,7.42,0,0,0,4.4,2.2c1.6.2,2.7-1.8,1.2-2.7a12.15,12.15,0,0,0-4.6-1.7c-1.4-.2-2.6,1.4-1.5,2.5a12.89,12.89,0,0,0,5.5,3.3c1.4.4,2.7-1.6,1.5-2.5-1.7-1.3-3.4-2.6-5.2-3.8-.5.9-1,1.7-1.5,2.6a33.52,33.52,0,0,0,7,2.2c1.6.3,2.7-1.8,1.2-2.7-2.2-1.3-4.5-2.5-6.8-3.6l-1.2,2.7c2.6,1.1,5.7,2.3,5.3,6,.9-.3,1.9-.5,2.8-.8-2.3-4.3-7-2-10.2-4.8-.5.8-1,1.7-1.5,2.5l1.5.3a1.5,1.5,0,0,0,1.2-2.7c-.4-.2-.7-.5-1.1-.7l-1.2,2.7c.5.2,1,.3,1.4.5.3-1,.5-1.9.8-2.9l-.6-.6c-.4.8-.9,1.5-1.3,2.3h2.3a1.48,1.48,0,0,0,.4-2.9,9.64,9.64,0,0,1-3.7-1.7l-1.2,2.7a25.25,25.25,0,0,0,4.6,1c1.5.2,1.9-2.1.8-2.8a18.12,18.12,0,0,1-3.2-2.2,23.35,23.35,0,0,1-.7,2.5c3.7-.8,8.7.6,11.8,2.7,2.7,1.9,4.2,4.9,7,6.9,3.2,2.3,5.6,3.6,6.5,7.8.8,3.6,1,7.5,1.5,11.1.2,1.4,2.1,1.3,2.7.4.3-.5.7-1,1-1.5l-2.7-1.2a15.89,15.89,0,0,1-4.2,7.6c.8.5,1.7,1,2.5,1.5.9-4,4.5-8.2.6-11.7a1.52,1.52,0,0,0-2.5,1.5,7.71,7.71,0,0,0,1,2.5c1,1.7,3.4.2,2.6-1.5-.2-.5-.5-1.1-.7-1.6-.6-1.3-3-.7-2.8.8a31.06,31.06,0,0,0,.4,3.2,1.48,1.48,0,0,0,2.9.4c.5-.6,1.1-1.2,1.6-1.8a1.36,1.36,0,0,0,.7-1.3,33.14,33.14,0,0,0-.8-5.5,1.51,1.51,0,0,0-2.9,0,8.6,8.6,0,0,0-.2,3.9c.2,1.9,3.1,2,3,0a40.67,40.67,0,0,0-.7-6.1c-.3-1.8-2.8-1.2-2.9.4s-.3,3.4-.4,5.1h3a16.35,16.35,0,0,0-.5-4.9c-.4-1.6-2.4-1.3-2.9,0-.3.7-.6,1.5-.9,2.2h2.9a55,55,0,0,0-2.3-7.2,1.51,1.51,0,0,0-2.9.8,58.21,58.21,0,0,0,2.4,10c.5,1.5,3.1,1.4,2.9-.4a43.38,43.38,0,0,0-2.5-10.5c-.7-1.8-3.5-1.1-2.9.8a10.91,10.91,0,0,0,1.4,3.1c.9,1.6,3,.4,2.7-1.2-.1-.8-.2-1.6-.3-2.3-.8.5-1.7,1-2.5,1.5a13,13,0,0,0,1,1.5c.7,1.3,3,.7,2.8-.8,0-.4-.1-.9-.1-1.3-.9.3-1.9.5-2.8.8a27.55,27.55,0,0,1,1.7,2.9c.8,1.5,3.1.5,2.7-1.2a37.25,37.25,0,0,1-.9-6.7c-.9.3-1.9.5-2.8.8a19.62,19.62,0,0,1,1.7,3.2c.9-.5,1.7-1,2.6-1.5q-1.65-2.85-3-5.7c-.9.5-1.7,1-2.6,1.5.4.9.7,1.8,1.1,2.6l2.7-1.2a36.22,36.22,0,0,0-2.7-4.1,1.5,1.5,0,0,0-2.6,1.5l1.8,3.9c.9-.5,1.7-1,2.6-1.5a40.21,40.21,0,0,0-3.4-4.7c-1.2-1.4-3,.4-2.4,1.8.8,1.7,1.6,3.5,2.4,5.2.9-.5,1.7-1,2.6-1.5a21.9,21.9,0,0,0-4.3-4.3c-1.1-.8-2.5.5-2.2,1.7.2.9.5,1.8.7,2.7.8-.5,1.7-1,2.5-1.5-.3-.2-.5-.5-.8-.7-1.2-1.1-3.3.3-2.4,1.8a13.43,13.43,0,0,0,2.9,3.4,1.52,1.52,0,0,0,2.4-1.8,26.54,26.54,0,0,1-1.8-4.2c-.8.5-1.7,1-2.5,1.5a18.41,18.41,0,0,1,4.1,6.5c.5,1.5,3.2,1.4,2.9-.4-.6-4.5-4.6-7.5-6.5-11.6-1.7-3.7-3.7-6.9-7.9-7.9a1.54,1.54,0,0,0-1.5,2.5l7.5,7.8c1.2,1.2,3.4-.4,2.4-1.8a23.56,23.56,0,0,0-7.2-6.5c-1.3-.8-2.7.8-2.1,2.1a26.35,26.35,0,0,0,5.1,6.8c1.2,1.1,3.4-.4,2.4-1.8A31.48,31.48,0,0,0,102.8,30c-1.7-.6-2.4,1.8-1.2,2.7a50.71,50.71,0,0,0,10.5,5.7c1.4.6,2.5-1.6,1.5-2.5a24.28,24.28,0,0,0-9.7-5.3,1.5,1.5,0,0,0-1.2,2.7c2.8,1.9,5.6,3.8,8.4,5.8,1.4,1,3-1.2,1.8-2.4a22.4,22.4,0,0,0-11.3-6.1,1.5,1.5,0,0,0-1.2,2.7c2.9,2.1,5.6,1,8.9,1.1,6.1,0,7.3,4.2,11.3,7.6a1.52,1.52,0,0,0,2.5-1.5,14.55,14.55,0,0,0-6-8.4l-1.2,2.7c3.4.5,5.7,2.6,5.8,6.2.9-.3,1.9-.5,2.8-.8a10.1,10.1,0,0,0-2.8-3.7,1.49,1.49,0,0,0-2.1,2.1,13.24,13.24,0,0,1,3.3,5.6c.8-.5,1.7-1,2.5-1.5-2-2.2-4.1-4.3-6.4-6.4a1.52,1.52,0,0,0-2.4,1.8c.8,1.6,1.5,3.3,2.3,4.9.9-.5,1.7-1,2.6-1.5a82.49,82.49,0,0,0-6.7-10.6,1.49,1.49,0,0,0-2.7,1.2,35.75,35.75,0,0,0,1.9,5.5c.7,1.5,3.4.4,2.7-1.2-1.8-4.8-4.7-8.9-10.3-7.9a1.48,1.48,0,0,0-.4,2.7c1.6.8,3.2,1.5,4.9,2.2.3-1,.5-1.9.8-2.9-2.3-.8-4.6-1.6-6.8-2.4-.3,1-.5,1.9-.8,2.9.8.3,1.6.5,2.4.8l1.2-2.7a35.23,35.23,0,0,0-4.2-1.5c-1.6-.5-2.7,1.9-1.2,2.7,1.3.7,2.6,1.4,3.8,2.1.5-.9,1-1.7,1.5-2.6a30,30,0,0,1-5-2.7,1.68,1.68,0,0,0-1.8.2c-.5.3-1,.5-1.6.8.3.9.5,1.9.8,2.8.4-.2.7-.4,1.1-.6l-1.8-2.4a2.29,2.29,0,0,0-1.1,2.6,1.5,1.5,0,0,0,1.1,1.4,2.27,2.27,0,0,0,2.8-.4c.9-.7,1-2.4-.4-2.7-2.5-.5-5.5,1.9-3.2,4.3,1.7,1.8,4.9.7,4.3-1.8a1.44,1.44,0,0,0-1-1c-2.7-.8-4.5,2.1-3.3,4.5,1.1,2.2,4.4,2.5,5-.3.5-2.5-2.3-5.3-4.7-3.9a2.35,2.35,0,0,0,1.3,4.4c2.4.1,2.4-2.9.5-2.8Z" transform="translate(-69.8 -26.48)"/><path class="cls-1" d="M116.4,39.9a2.51,2.51,0,0,0-3.5.4c-1.8,1.9,0,4.2.1,6.3.9-.4,1.7-.7,2.6-1.1,1.7-1.1,2.7-.5,2.7,1.6l.6,1.8a10.52,10.52,0,0,0,1.7,3.1c.8,1.1,2.9.9,2.8-.8-.4-4.9-3.8-10.6-8.2-12.9a14,14,0,0,0-7.3-1.2c-.7.1-1.3.3-1.9.4-2.6.5-4.3.1-6.9-.7a1.53,1.53,0,0,0-1.5,2.5c.5.5,1.1.9,1.6,1.4.4-.9.7-1.7,1.1-2.6a2.35,2.35,0,0,0-.8-.2,1.52,1.52,0,0,0-1.8,2.4,5.66,5.66,0,0,0,4.1,1.7c1.9.1,1.9-2.9,0-3-.7-.3-1.3-.5-2-.8L98,40.6a3.69,3.69,0,0,0,2.3.7,1.59,1.59,0,0,0,1.1-2.6c-.5-.5-1.1-.9-1.6-1.4-.5.8-1,1.7-1.5,2.5,1.7.5,3.9,1.6,5.7,1.6,1.6,0,1.1-.3,2.4-.7,6.8-1.7,13.4,3.4,14,10.5.9-.3,1.9-.5,2.8-.8-2.1-3-2.7-10.5-7.9-10.1-4,.3-4.7,5-1.9,7.2a1.56,1.56,0,0,0,2.6-1.1c0-1-.2-3.5-1.1-4,1.6,1.1,3.1-1.5,1.5-2.5Z" transform="translate(-69.8 -26.48)"/><path d="M72.3,74.8a6.48,6.48,0,0,1-.7-5.9,15.4,15.4,0,0,0,.6-4.3.6.6,0,1,0-1.2,0c.1,2.3-.9,4.2-1.1,6.4a7.91,7.91,0,0,0,1.4,4.4c.4.6,1.4,0,1-.6Z" transform="translate(-69.8 -26.48)"/><path d="M72.2,64.5a17.82,17.82,0,0,1-1.6-6.8c.1-2.1,1.2-3.9,1.6-5.9,1.1-4.9.2-8,5.2-10.9a.58.58,0,1,0-.6-1,10.83,10.83,0,0,0-5.6,8.4c-1.1,6.2-2.4,10.5-.2,16.6.3.6,1.4.3,1.2-.4Z" transform="translate(-69.8 -26.48)"/><path d="M78,39.9c0-5.1,4.5-5.6,8.1-7.6,4-2.3,8.3-5.7,13-2.7a.58.58,0,1,0,.6-1c-4.8-3-9.3-.2-13.6,2.3-4.7,2.8-9.3,2.7-9.3,9a.6.6,0,0,0,1.2,0Z" transform="translate(-69.8 -26.48)"/><path d="M72.5,75.3c.1-1.4,1.2-2,1.7-3.2.6-1.4.5-3.1.9-4.6a5.83,5.83,0,0,0,.6-2.6c-.1-1.9-1.1-3.3-.8-5.3.1-.8-1.1-.8-1.2,0a9.09,9.09,0,0,0,.1,3.3c.6,2.2.2,3.4-.3,5.5a14.69,14.69,0,0,1-1.4,4.5,5,5,0,0,0-.9,2.4c.1.8,1.3.8,1.3,0Z" transform="translate(-69.8 -26.48)"/><path d="M73.6,81.3c.7-2.5-.8-4.9,0-7.4a.62.62,0,0,0-1.2-.3c-.8,2.5.7,4.9,0,7.4-.2.7,1,1,1.2.3Z" transform="translate(-69.8 -26.48)"/><path d="M73.7,82.1a6.67,6.67,0,0,0,1.9-2.5c.3-.7-.7-1.3-1-.6a6.2,6.2,0,0,1-1.7,2.2c-.6.5.3,1.4.8.9Z" transform="translate(-69.8 -26.48)"/><path d="M77,86.2c-1.4-1.5-.1-4.1-1.4-5.7-.5-.6-1.5,0-1,.6,1.3,1.8,0,4.2,1.6,6,.5.5,1.3-.3.8-.9Z" transform="translate(-69.8 -26.48)"/><path d="M77.1,87a1.49,1.49,0,0,1,1.3-.6.6.6,0,1,0,0-1.2,2.88,2.88,0,0,0-2.1.9c-.5.6.3,1.5.8.9Z" transform="translate(-69.8 -26.48)"/><path d="M75.4,60a5.79,5.79,0,0,1,.3-3.2c.3-.7-.9-1-1.2-.3a6.42,6.42,0,0,0-.3,3.9c.2.6,1.4.3,1.2-.4Z" transform="translate(-69.8 -26.48)"/><path d="M75.9,65.1c.3-3,3-5.2,3.4-8.4.3-2.9.3-5.4,2.2-7.9,1.4-1.8,3.2-3.4,4.8-5.1.5-.6-.3-1.4-.8-.8-2.8,2.9-6.3,5.6-7.1,9.8-.5,2.9-.3,5.6-1.8,8.3-.9,1.5-1.7,2.3-1.9,4.1a.6.6,0,1,0,1.2,0Z" transform="translate(-69.8 -26.48)"/><path d="M96.6,40.9c-1,2.6-2.7,2.9-5.3,3.3a8.51,8.51,0,0,0-3.1.9c-1.6.9-2.5,2-4.5,2.3-1.2.2-1.9,0-3,.5-.7.3-.1,1.4.6,1,1.4-.7,3-.1,4.5-.8A17.68,17.68,0,0,0,88,46.5a9.38,9.38,0,0,1,4.3-1.3c3-.4,4.2-1.2,5.4-4.1.4-.6-.8-.9-1.1-.2Z" transform="translate(-69.8 -26.48)"/><path d="M97.5,36.6c-1.1,2-.7,4.5,1.5,5.5a5.34,5.34,0,0,0,3.3.2c2.9-.3,5.5.5,6.7,3.4.3.7,1.4.4,1.2-.3a7.11,7.11,0,0,0-3.8-4A6.54,6.54,0,0,0,103,41a6.15,6.15,0,0,1-1.9.2c-2.4-.2-3.6-2-2.5-4.1.3-.6-.8-1.2-1.1-.5Z" transform="translate(-69.8 -26.48)"/><path d="M110.2,46.7c1.6-1.8.6-5,0-7.1-.2-.7-1.4-.4-1.2.3.4,1.5,1.5,4.6.3,5.9-.5.6.3,1.5.9.9Z" transform="translate(-69.8 -26.48)"/><path d="M109.2,41.7a15.13,15.13,0,0,1,2,3.5,9.73,9.73,0,0,0,1.1,2.3c1.1,1.3,3.1,1.5,3.7,3.1.3.7,1.3.1,1-.6-.6-1.5-2.1-1.8-3.3-2.8-1-.8-1.2-1.9-1.7-3a14.36,14.36,0,0,0-1.9-3.1c-.3-.6-1.3,0-.9.6Z" transform="translate(-69.8 -26.48)"/><path d="M117.6,50.6a20.87,20.87,0,0,0,.4-4.3.6.6,0,1,0-1.2,0,13.27,13.27,0,0,1-.3,4c-.2.7,1,1,1.1.3Z" transform="translate(-69.8 -26.48)"/><path d="M117,47.9c4.3,3.2,2.9,7.2,4.7,11.4,1.2,3,2.2,4.2,1.6,7.8a31.48,31.48,0,0,0-.9,4.2c-.1.8,1.1.8,1.2,0,.2-2.3,1.4-4.5,1.3-6.9s-1.8-4.7-2.4-7.1c-1.1-4.4-.9-7.6-4.9-10.5-.6-.4-1.2.6-.6,1.1Z" transform="translate(-69.8 -26.48)"/><path d="M124.1,73.5a18.05,18.05,0,0,0,4.5-8.1c.2-.7-1-1.1-1.2-.3a15.58,15.58,0,0,1-4.2,7.5c-.5.6.4,1.4.9.9Z" transform="translate(-69.8 -26.48)"/><path d="M123.8,72.4c-.1-.3-.1-.6-.2-.9-.1-.7-1.3-.5-1.2.2a2.2,2.2,0,0,1-.1.8c-.3.7.7,1.3,1,.6a2.2,2.2,0,0,0,.2-1.4c-.4.1-.8.1-1.2.2.1.3.1.6.2.9.3.7,1.5.4,1.3-.4Z" transform="translate(-69.8 -26.48)"/><path d="M116.5,89.4a20.21,20.21,0,0,1-1.1,3.2.59.59,0,0,0,.5.9c4.5.3,6.1-5,6.8-8.4a.62.62,0,0,0-1.2-.3c-.6,2.9-1.8,7.8-5.6,7.6.2.3.3.6.5.9a20.63,20.63,0,0,0,1.2-3.5c.2-.8-1-1.1-1.1-.4Z" transform="translate(-69.8 -26.48)"/><path d="M121.6,85a9.06,9.06,0,0,1,.6,3.2.59.59,0,0,0,1.1.3c.6-1.1,2.1-1.4,2.9-2.4a8.71,8.71,0,0,0,1.6-3.7c.4-1.5,1.1-3,1.5-4.6a28.45,28.45,0,0,0,.5-5.1c.1-.8-1.1-.8-1.2,0a39.06,39.06,0,0,1-1.8,8.9c-.5,1.9-1,3.5-2.7,4.7-.9.6-1.4.6-1.9,1.6l1.1.3a7.61,7.61,0,0,0-.6-3.6.59.59,0,1,0-1.1.4Z" transform="translate(-69.8 -26.48)"/><path d="M130.1,73.1c.1-4.2,3.7-7.9,2.7-12.1-.6-2.8-1.7-5.5-2.3-8.3a5.9,5.9,0,0,0-1.5-3.3c-.5-.6-1.4.3-.8.8,1.2,1.2,1.3,5.3,1.8,7.2.7,2.6,2.2,4.2,1.5,7.1s-2.5,5.3-2.6,8.5c-.1.8,1.1.8,1.2.1Z" transform="translate(-69.8 -26.48)"/><path d="M99.8,28.9c1.3-2.1,6.7.2,8.8.6,2.4.5,4.7.4,6.7,2.9.6.7.9,1.6,1.5,2.3,2.1,2.3,4.8,2.7,6.6,5.5,2,3.1,3.1,7.4,4.5,10.9.3.7,1.4.4,1.2-.3-1.6-4-2.7-9.3-5.5-12.7-1.1-1.4-2.6-1.8-4-2.9-2.2-1.7-2.9-3.9-4.7-5.7a4.59,4.59,0,0,0-3.1-1.5c-2.8-.4-3.8,0-7.2-.9-2.4-.7-4.3-1.3-5.8,1.1-.4.8.6,1.4,1,.7Z" transform="translate(-69.8 -26.48)"/><path d="M124.1,40.2c3.1-.5,5.8,6.8,6.1,8.7.3,2.3.9,5.2.6,7.4a.62.62,0,0,0,1.2.3c.3-2.1-.2-3.9-.4-6-.2-2.3-.1-3.8-1.3-5.8-1.3-2.2-3.4-6.2-6.4-5.7-.9,0-.6,1.2.2,1.1Z" transform="translate(-69.8 -26.48)"/><path d="M116.7,33.2c2.5-.5,5.2,1.4,6.4,3.5.7,1.3.9,2.7,2.2,3.7.6.5,1.2-.6.6-1-1.1-.8-1.2-2.3-1.9-3.5a13,13,0,0,0-1.9-2.2,6.57,6.57,0,0,0-5.7-1.7.62.62,0,0,0,.3,1.2Z" transform="translate(-69.8 -26.48)"/><path d="M76.7,86.2c-.8.7-.5,1.7,0,2.5,1.1,1.6,2.3,3,3.4,4.5.2.3.7.4.9.1,1.4-1.7.5-3.6.9-5.5a.62.62,0,0,0-1.2-.3c-.3,1.5.5,3.7-.6,5,.3,0,.6.1.9.1-.4-.6-4.2-4.9-3.6-5.5s-.2-1.5-.7-.9Z" transform="translate(-69.8 -26.48)"/><path d="M80.9,90a9.29,9.29,0,0,0,6,4,.62.62,0,0,0,.3-1.2,8.25,8.25,0,0,1-5.3-3.4c-.4-.6-1.4,0-1,.6Z" transform="translate(-69.8 -26.48)"/><path d="M111.2,94.6a10.54,10.54,0,0,0,4.9-2.3c.6-.5-.3-1.3-.8-.8a9,9,0,0,1-4.3,2c-.8.1-.5,1.2.2,1.1Z" transform="translate(-69.8 -26.48)"/><path d="M129.6,74.8a10.84,10.84,0,0,0-1.4-5.8.58.58,0,1,0-1,.6,9.31,9.31,0,0,1,1.2,5.2c0,.7,1.2.7,1.2,0Z" transform="translate(-69.8 -26.48)"/><path class="cls-1" d="M120,36.8c-.3-.2-.7-.4-1-.6-1.7-1-3,1.5-1.5,2.6.3.2.6.5.9.7,1.5,1.1,2.8-1.1,1.8-2.4a14.63,14.63,0,0,1-.9-1.3c-.6.7-1.1,1.5-1.7,2.2a1.61,1.61,0,0,1,.9.3,1.56,1.56,0,0,0,2.1-2.1,14.31,14.31,0,0,0-1.1-1.5l-1.8,2.4.2.2c.4-.9.7-1.7,1.1-2.6.3,0-.7-1.1-.8-1.2-.5-.4-1.3-.7-1.8-.2l-.2.2h1.5c-.1,0-.1-.1-.2-.1-1.5-1-2.8,1.1-1.8,2.4.9,1.1,1.8,2.1,2.6,3.2,1,1.2,2.8-.1,2.5-1.5-.1-.4-.2-.7-.3-1.1-.8.5-1.7,1-2.5,1.5a6.79,6.79,0,0,1,1.2,1.2c1,1.3,2.7-.2,2.5-1.5a2.57,2.57,0,0,0-.5-1.2l-2.1,2.1a10.63,10.63,0,0,1,1.1.9,1.53,1.53,0,0,0,2.4-1.8c-.2-.4-.4-.7-.6-1.1-.9.5-1.7,1-2.6,1.5a7.63,7.63,0,0,1,.8,1.1l2.4-1.8-.5-.5c-1.2-1.3-3.1.3-2.4,1.8a26.4,26.4,0,0,1,1.7,4.7,1.5,1.5,0,0,0,2.9-.8,35,35,0,0,0-2-5.4l-2.4,1.8.5.5c1.2,1.2,3.4-.4,2.4-1.8a7.63,7.63,0,0,1-.8-1.1c-1.1-1.5-3.6-.2-2.6,1.5.2.4.4.7.6,1.1l2.4-1.8a11.51,11.51,0,0,0-1.7-1.4,1.56,1.56,0,0,0-2.1,2.1c.1.2.1.3.2.5.8-.5,1.7-1,2.5-1.5a6.79,6.79,0,0,0-1.2-1.2,1.52,1.52,0,0,0-2.5,1.5c.1.4.2.7.3,1.1.8-.5,1.7-1,2.5-1.5-.9-1.1-1.8-2.1-2.6-3.2L116,36.1c.1,0,.1.1.2.1a1.36,1.36,0,0,0,1.5,0l.2-.2a11,11,0,0,0-1.8-.2c.5.4.7,1,1.2,1.5a3.16,3.16,0,0,0,1.7.6c1.4.1,1.8-1.7,1.1-2.6a3.11,3.11,0,0,0-.9-.7c-1.6-.9-2.8,1.1-1.8,2.4l.6.9,2.1-2.1a4.42,4.42,0,0,0-1.6-.6,1.53,1.53,0,0,0-1.7,2.2,12.74,12.74,0,0,0,1.3,1.9l1.8-2.4c-.3-.2-.6-.5-.9-.7-.5.9-1,1.7-1.5,2.6.3.2.7.4,1,.6a1.5,1.5,0,0,0,1.5-2.6Z" transform="translate(-69.8 -26.48)"/><path class="cls-1" d="M126.3,47c-.2-.4-.3-.9-.5-1.3l-2.7,1.2a36.17,36.17,0,0,1,2.2,3.2c.7,1.2,3,.8,2.8-.8a10.08,10.08,0,0,0-.5-2.5L124.9,48c.4.7.7,1.4,1.1,2a1.49,1.49,0,0,0,2.7-1.2,4.87,4.87,0,0,0-.4-1.1c-.6-1.8-3.5-1.1-2.9.8.2.7.4,1.3.6,2l2.7-1.2c-.1-.1-.1-.3-.2-.4-.8-1.5-3.4-.5-2.7,1.2.1.3.3.7.4,1a1.5,1.5,0,0,0,2.9-.8c-.1-.2-.1-.4-.2-.6l-2.7,1.2c.1.2.3.4.4.6a1.52,1.52,0,0,0,2.8-.8V50c-.9.3-1.9.5-2.8.8.1.4.3.8.4,1.2.5,1.9,3.2,1.1,2.9-.8-.1-.4-.1-.7-.2-1.1-1,.3-1.9.5-2.9.8.2.6.4,1.1.6,1.7l2.7-1.2c-.2-.3-.3-.6-.5-.9-.9-1.6-3-.4-2.7,1.2a24.62,24.62,0,0,1,.2,2.6c1-.1,2-.3,2.9-.4a17.52,17.52,0,0,1-.5-4c-1,.1-2,.3-2.9.4.1.5.3,1.1.4,1.6l2.7-1.2a43.09,43.09,0,0,1-2.6-4.7c-.9.5-1.7,1-2.6,1.5.2.3.3.5.5.8.9-.5,1.7-1,2.6-1.5l-1.8-2.4-2.1,2.1c.5.3,1,.7,1.5,1,1.2.8,3-.8,2.1-2.1a18.63,18.63,0,0,0-2.3-2.6l-1.8,2.4a8.34,8.34,0,0,1,2.1,1.6l1.8-2.4a14.34,14.34,0,0,1-2.3-2L123,44.8a7,7,0,0,1,2.6,1.9l2.1-2.1L125.1,42l-1.8,2.4c.6.3,1.2.7,1.8,1a1.5,1.5,0,0,0,1.5-2.6,13.3,13.3,0,0,1-1.9-1.4l-1.8,2.4c.7.4,1.5.9,2.2,1.3.5-.9,1-1.7,1.5-2.6a8.25,8.25,0,0,1-2.6-2l-1.8,2.4a5.85,5.85,0,0,1,1.7,1c1.4,1,3.1-1.3,1.8-2.4a22,22,0,0,0-1.8-1.4l-1.8,2.4a10.92,10.92,0,0,1,1.7,1.3l2.1-2.1c-.6-.5-1.2-1.1-1.8-1.6l-1.8,2.4a10,10,0,0,0,1.4.8,1.52,1.52,0,0,0,1.8-2.4,14.93,14.93,0,0,0-1.4-1.2l-1.8,2.4c.3.2.5.3.8.5a1.52,1.52,0,0,0,1.8-2.4,8,8,0,0,1-1.8-2.7c-.8-1.7-3.4-.2-2.6,1.5a13,13,0,0,0,2.3,3.3l1.8-2.4c-.3-.2-.5-.3-.8-.5-1.4-.8-3.2,1.3-1.8,2.4a17.41,17.41,0,0,1,1.4,1.2l1.8-2.4a10,10,0,0,0-1.4-.8,1.52,1.52,0,0,0-1.8,2.4c.6.5,1.2,1.1,1.8,1.6,1.4,1.3,3.5-.8,2.1-2.1a13,13,0,0,0-2.3-1.8c-1.4-.9-3.1,1.3-1.8,2.4a22,22,0,0,0,1.8,1.4l1.8-2.4a5.85,5.85,0,0,0-1.7-1,1.52,1.52,0,0,0-1.8,2.4,12.2,12.2,0,0,0,3.2,2.4,1.5,1.5,0,0,0,1.5-2.6c-.7-.4-1.5-.9-2.2-1.3-1.4-.8-3.1,1.2-1.8,2.4a23.48,23.48,0,0,0,2.5,1.9c.5-.9,1-1.7,1.5-2.6-.6-.3-1.2-.7-1.8-1a1.51,1.51,0,0,0-1.8,2.4l2.6,2.6c1.4,1.4,3.4-.7,2.1-2.1a7.94,7.94,0,0,0-3.2-2.3c-1.5-.6-3.1,1.1-1.8,2.4a21.72,21.72,0,0,0,2.9,2.4c1.4,1,3.1-1.2,1.8-2.4a27.82,27.82,0,0,0-2.7-2.1,1.52,1.52,0,0,0-1.8,2.4,8.6,8.6,0,0,1,1.8,2l2.1-2.1c-.5-.3-1-.7-1.5-1-1.2-.8-3,.8-2.1,2.1l1.8,2.4c1.1,1.5,3.7.1,2.6-1.5-.2-.3-.3-.5-.5-.8a1.5,1.5,0,0,0-2.6,1.5c.8,1.6,1.7,3.2,2.6,4.7a1.49,1.49,0,0,0,2.7-1.2c-.1-.5-.3-1.1-.4-1.6-.5-1.6-3-1.3-2.9.4a39.34,39.34,0,0,0,.6,4.8,1.48,1.48,0,0,0,2.9-.4,18.7,18.7,0,0,0-.3-3.4L127,52.3c.2.3.3.6.5.9.8,1.4,3.3.5,2.7-1.2-.2-.6-.4-1.1-.6-1.7a1.5,1.5,0,0,0-2.9.8c.1.4.1.7.2,1.1,1-.3,1.9-.5,2.9-.8a8,8,0,0,0-.7-2,1.51,1.51,0,0,0-2.8.8v.7c.9-.3,1.9-.5,2.8-.8-.1-.2-.3-.4-.4-.6a1.49,1.49,0,0,0-2.7,1.2c.1.2.1.4.2.6,1-.3,1.9-.5,2.9-.8-.1-.3-.3-.7-.4-1L126,50.7c.1.1.1.3.2.4a1.49,1.49,0,0,0,2.7-1.2c-.2-.7-.4-1.3-.6-2-1,.3-1.9.5-2.9.8a4.87,4.87,0,0,0,.4,1.1l2.7-1.2c-.4-.7-.7-1.4-1.1-2a1.49,1.49,0,0,0-2.7,1.2c.1.6.3,1.1.4,1.7.9-.3,1.9-.5,2.8-.8-.7-1.1-1.4-2.1-2.2-3.2a1.49,1.49,0,0,0-2.7,1.2,7,7,0,0,0,.8,2c.8,1.6,3.4.1,2.5-1.7Z" transform="translate(-69.8 -26.48)"/><path class="cls-1" d="M127.3,46c-.1-.1-.1-.3-.2-.5-.8.5-1.7,1-2.5,1.5a4.07,4.07,0,0,1,1.2,1.7,1.4,1.4,0,0,0,1.8,1,1.43,1.43,0,0,0,1-1.8c-.1-.7-.3-1.4-.4-2.1-.8.5-1.7,1-2.5,1.5a1.51,1.51,0,0,1,.7,1.1c.9-.4,1.7-.7,2.6-1.1a.78.78,0,0,1-.3-.7L126,47.8a8.65,8.65,0,0,1,.7,1.7,1.5,1.5,0,0,0,2.9-.8,12.23,12.23,0,0,0-1-2.4,1.43,1.43,0,0,0-1.9-.6,1.61,1.61,0,0,0-.9,1.8,3.09,3.09,0,0,0,1.1,2c.9.8,2.7.3,2.6-1.1a4.74,4.74,0,0,0-1.6-3.3,1.51,1.51,0,0,0-2.5,1.5c.1.7.3,1.4.4,2.1,1-.3,1.9-.5,2.9-.8a7.91,7.91,0,0,0-2-3,1.53,1.53,0,0,0-2.5,1.5,3.84,3.84,0,0,0,.9,1.8,1.54,1.54,0,0,0,2.1,0,1.57,1.57,0,0,0,.1-2.2Z" transform="translate(-69.8 -26.48)"/><path class="cls-1" d="M128.5,50.8c.1-.1.3-.5.4-.6l-2.4-.3c.4.7.8,1.3,1.2,2a1.55,1.55,0,0,0,2.1.5,1.49,1.49,0,0,0,.5-2.1c-.4-.7-.8-1.3-1.2-2a1.57,1.57,0,0,0-2.4-.3,6.66,6.66,0,0,0-1.2,2,1.43,1.43,0,0,0,1,1.8,1.53,1.53,0,0,0,2-1Z" transform="translate(-69.8 -26.48)"/><path class="cls-2" d="M77.2,53.1A11.52,11.52,0,0,1,78.7,47a50.83,50.83,0,0,1,3.8-4.3c.5-.6-.3-1.4-.8-.8-1.5,1.6-3.4,3.3-4.4,5.2a15.79,15.79,0,0,0-1.3,6,.6.6,0,0,0,1.2,0Z" transform="translate(-69.8 -26.48)"/><path class="cls-2" d="M81.8,38.9c.2-1.9,4.4-3.5,5.9-4.3A47.66,47.66,0,0,1,94.3,32c.7-.2.4-1.4-.3-1.2a46.74,46.74,0,0,0-8.9,3.8c-1.8,1-4.3,2-4.5,4.2a.6.6,0,1,0,1.2.1Z" transform="translate(-69.8 -26.48)"/><path class="cls-2" d="M101.8,35.1a1.71,1.71,0,0,0-.4,2.7,3.5,3.5,0,0,0,1.7.9c.7.2,1.8.2,2.3.9s1.5,0,1-.6a3.83,3.83,0,0,0-2.4-1.3,6.58,6.58,0,0,1-1.5-.4c-.4-.3-.7-.9-.1-1.1.7-.4.1-1.4-.6-1.1Z" transform="translate(-69.8 -26.48)"/><path class="cls-2" d="M115.5,35.9c2.7-1.5,4.6,2.5,6.1,4,.5.6,1.4-.3.8-.8-2-2-4.2-6.1-7.6-4.2-.5.3.1,1.3.7,1Z" transform="translate(-69.8 -26.48)"/><path class="cls-2" d="M120.3,47a50.81,50.81,0,0,1,3.5,5.9c1.4,2.9,1.2,6.2,1.5,9.3.1.8,1.3.8,1.2,0-.2-2.8-.1-6.1-1.1-8.8a30.61,30.61,0,0,0-4.1-7c-.5-.6-1.5,0-1,.6Z" transform="translate(-69.8 -26.48)"/></svg>