<?xml version="1.0" encoding="utf-8"?>
<!-- Generator: Adobe Illustrator 21.0.2, SVG Export Plug-In . SVG Version: 6.00 Build 0)  -->
<svg version="1.1" id="Layer_1" xmlns="http://www.w3.org/2000/svg" xmlns:xlink="http://www.w3.org/1999/xlink" x="0px" y="0px"
	 viewBox="0 0 200 600" style="enable-background:new 0 0 200 600;" xml:space="preserve">
<style type="text/css">
	.st0{fill:#613515;}
	.st1{fill:#141113;}
	.st2{fill:#010101;}
</style>
<g>
	<g>
		<g>
			<path class="st0" d="M75.4,87.2c-8.2-5.3-11.2-19.5-9.8-28.7c0.1-0.8-1-1.1-1.2-0.3c-1.5,9.9,1.5,24.2,10.3,30
				C75.4,88.7,76,87.6,75.4,87.2L75.4,87.2z"/>
		</g>
	</g>
	<g>
		<g>
			<path class="st0" d="M71.6,70.1c-2.2-8.6-1.3-17.2,2.7-25.2c0.3-0.7-0.7-1.3-1-0.6c-4.1,8.2-5.1,17.2-2.8,26.1
				C70.7,71.2,71.8,70.9,71.6,70.1L71.6,70.1z"/>
		</g>
	</g>
	<g>
		<g>
			<g>
				<g>
					<path class="st1" d="M86.8,40c-0.1-0.3-0.3-0.6-0.4-1c-0.3-0.7-1.2-0.2-1.1,0.5c0.1,0.1,0.2,0.2,0.3,0.3
						c-0.5-0.4-1.1,0.3-0.8,0.8c0.2-0.1,0.5-0.1,0.7-0.2c-0.4-0.3-0.9,0.1-0.9,0.5c0.2,0.4,0.5,0.7,0.7,1.1c0.7-0.3,0.2-1.2-0.5-1.1
						c0,0.3,0,0.5,0,0.8c0.2-0.3,0.5-0.6,0.7-0.9c-0.1,0.2-0.2,0.4-0.3,0.6c0,0.8,1.1,0.8,1.2,0c0,0,0,0.1,0,0.1
						c0.3-0.1,0.7-0.3,1-0.4c-0.2-0.2-0.3-0.4-0.5-0.6c-0.1,0.3-0.3,0.7-0.4,1c0.2,0.2,0.3,0.4,0.5,0.6c0.3-0.2,0.6-0.5,0.9-0.7
						c-0.3,0-0.6,0-0.9,0c0.3,0.2,0.7,0.4,1,0.6c0,0,0,0.1,0,0.1c0.2,0.7,1.2,0.5,1.2-0.2c-0.1,0-0.2,0-0.3,0
						c0.4-0.1,0.8-0.1,1.2-0.2c0,0.3,0,0.5,0,0.8c0.3,0.3,0.9,0.2,1-0.3c0.3,0.1,0.6,0.2,0.8,0.4c0-0.4,0-0.8,0-1.2
						c-0.1,0.3-0.1,0.7-0.2,1c0.2,0.4,0.8,0.4,1,0c0-0.1,0.1-0.2,0.1-0.3c0.4-0.1,0.8-0.1,1.2-0.2c-0.2,0.1-0.5,0.2-0.7,0.3
						c0.3,0.2,0.7,0.4,1,0.6c-0.2,0-0.4,0.1-0.5,0.1c0.1,0.6,0.8,0.8,1.1,0.3c0.3-0.2,0.6-0.4,0.8-0.7c-0.3-0.3-0.5-0.5-0.8-0.8
						c-0.2,0.3-0.3,0.5-0.5,0.8c-0.4,0.7,0.6,1.2,1,0.6c0.3-0.2,0.5-0.3,0.8-0.5c0.4-0.1,0.6-0.5,0.4-0.9c-0.1,0-0.3,0-0.4-0.1
						c0.3,0.5,1.1,0.3,1.1-0.3c-0.2-0.2-0.5-0.4-0.7-0.7c-0.2,0.3-0.5,0.6-0.7,0.9c0.3-0.2,0.5-0.3,0.8-0.5c-0.2,0.3-0.4,0.7-0.6,1
						c0.5,0.1,1,0.3,1.5,0.4c0.8,0.2,1-0.9,0.3-1.2c0.2,0.5,0.5,1,0.7,1.5c0.6,0.3,1.2-0.4,0.7-0.9c-0.1-0.2-0.3-0.3-0.4-0.5
						c-0.5-0.6-1.3,0.3-0.8,0.8c0.1,0.1,0.1,0.2,0.2,0.2c0.1,0.2,0.4,0.2,0.6,0.2c0.1,0,0.2-0.1,0.3-0.1c0.3-0.1,0.4-0.3,0.4-0.6
						c0-0.2,0-0.5,0-0.7c-0.4,0.1-0.7,0.2-1.1,0.3c0.2,0.3,0.4,0.6,0.6,0.8c0.2,0.2,0.5,0.4,0.8,0.2c0.3-0.1,0.7-0.2,1-0.3
						c0-0.4-0.1-0.7-0.1-1.1c-0.7,0-1.5,0-2.2,0c0,0.4-0.1,0.7-0.1,1.1c1.4-0.2,2.7-0.7,3.8-1.5c-0.7-0.2-1,0.7-0.5,1.1
						c0.4,0.2,0.7,0.5,1.1,0.7c0.5,0.4,1.1-0.3,0.8-0.8c-0.1-0.2-0.2-0.4-0.3-0.6c-0.2,0.3-0.5,0.6-0.7,0.9c1.7,0.4,1.2,0.4,2.9,0
						c-0.2-0.3-0.4-0.7-0.6-1c-0.3,0.2-0.5,0.3-0.8,0.5c0.2,0.3,0.5,0.6,0.7,0.9c0.2-0.1,0.4-0.2,0.6-0.4c-0.1-0.3-0.3-0.7-0.4-1
						c-0.4,0.1-0.7,0.2-1.1,0.3c0,0.4,0.1,0.7,0.1,1.1c1.6-1.3,3.1-1.5,4.5-0.7c0.1-0.4,0.1-0.8,0.2-1.2c-0.7-0.2-1.4-0.4-2-0.6
						c-0.1,0.4-0.2,0.7-0.3,1.1c1.1,0.1,2.2,0.1,3.2,0.2c-0.1-0.4-0.1-0.8-0.2-1.2c-0.4,0.1-0.8,0.1-1.2,0.2
						c-0.6,0.1-0.5,0.8-0.1,1.1c0.3,0.2,0.6,0.5,0.9,0.7c0.2-0.4,0.3-0.7,0.5-1.1c-1.3-0.1-2.4-0.5-3.5-1.2
						c-0.1,0.4-0.2,0.7-0.3,1.1c1.4,0.1,2.2-0.1,3.6,0.2c1.3,0.2,1.6,0.7,3,0.9c0.7,0.1,1.1-1,0.3-1.2c-1.3-0.3-1-0.3-2.3,0.1
						c0.2,0.4,0.3,0.7,0.5,1.1c0.5-0.1,0.9-0.2,1.4-0.3c-0.1-0.3-0.3-0.7-0.4-1c-0.4,0.1-0.8,0.2-1.2,0.2c-0.6,0.3-0.2,1.3,0.5,1.1
						c0.4-0.1,0.7-0.3,1.1-0.4c-0.2-0.3-0.4-0.7-0.6-1c0.2-0.2,0.7,0.6,1,0.3c0.5-0.4,3.7-1.7,2.2-1.3c-0.2-0.3-0.5-0.6-0.7-0.9
						c0.1,0.3,0.3,0.6,0.4,0.9c-0.2-0.3-0.4-0.7-0.6-1c-0.6,0.5-1.2,1-1.8,1.5c0.3,0.2,0.6,0.5,0.9,0.7c0.3-0.1,0.6-0.3,0.9-0.4
						c0.4-0.2,0.7-0.3,1.1-0.5c0.4,0.4,0.7,0.7,1.1,1.1c0.3-0.1,0.7-0.3,1-0.4c0,0.1,0,0.2,0,0.3c0.4-0.2,0.7-0.3,1.1-0.5
						c-0.1,0.2-0.2,0.3-0.4,0.5c0.2-0.3,0.5-0.6,0.7-0.9c-1.1-0.5-2.2-1-3.3-1.5c-0.6-0.5-1.4,0.4-0.8,0.8c1.2,1,2.2,1.5,3.8,1.8
						c0.5,0.1,1-0.4,0.7-0.9c-0.1-0.2-0.2-0.4-0.4-0.6c-0.2-0.2-0.4-0.3-0.7-0.3c-0.2,0-0.4,0.1-0.6,0.1c-0.3,0.1-0.5,0.4-0.4,0.7
						c0,0.2,0.1,0.4,0.1,0.7c0,0.2,0.2,0.4,0.4,0.4c0.2,0,0.4,0.1,0.7,0.1c0.4,0.1,0.8-0.2,0.8-0.6c0-0.9,0-1-0.7-1.6
						c-0.3-0.3-0.9-0.2-1,0.3c-0.2,0.7-0.2,0.8,0.2,1.4c0.4,0.6,1.2,0.2,1.1-0.5c-0.3-1.4-0.8-2.4-2.3-2.2c-0.2,0-0.4,0.1-0.5,0.3
						c-0.6,1.3-0.3,1.8,0.8,2.8c0.3,0.3,1.1,0.1,1-0.4c-0.2-1.5-0.6-2.6-2.2-1.8c-0.3,0.1-0.3,0.4-0.3,0.7c0,0.2,0.1,0.4,0.1,0.6
						c0,0.2,0.2,0.4,0.4,0.4c0.2,0,0.4,0.1,0.5,0.1c0.5,0.1,0.8-0.3,0.7-0.7c-0.2-1.1-0.2-1-1.1-1.6c-0.2-0.1-0.4-0.1-0.6,0
						c-0.9,0.7-1,0.6-0.9,1.8c0,0.3,0.2,0.5,0.4,0.6c0.3,0.1,0.5,0.1,0.8,0.2c0.2,0,0.4,0,0.6-0.2c0.2-0.2,0.3-0.4,0.5-0.6
						c0.2-0.3,0.2-0.6,0-0.8c-0.6-0.7-0.5-0.7-1.4-1c-0.2-0.1-0.4,0-0.6,0.2c-0.2,0.2-0.3,0.3-0.5,0.5c-0.2,0.2-0.2,0.5-0.1,0.7
						c0.1,0.2,0.2,0.3,0.2,0.5c0.3,0.6,1.2,0.2,1.1-0.5c-0.5-2.3-2.6-1.2-3.2,0.4c-0.2,0.5,0.5,0.9,0.9,0.7c1.4-0.8,1-0.4,2-1.7
						c0.4-0.4,0-1.2-0.6-1c-0.9,0.2-0.9,0.3-1.2,1.2c-0.1,0.5,0.3,0.8,0.7,0.7c0.9-0.1,0.9-0.1,1.4-1c0.2-0.5-0.1-1-0.7-0.9
						c-1.2,0.3-2.1,0.5-1.9,1.9c0.1,0.4,0.5,0.8,0.9,0.5c0.7-0.4,0.7-0.4,1.1-1.1c0.2-0.4-0.1-0.9-0.5-0.9c-1.9,0.1-4,1.1-5.4,2.5
						c-0.3,0.3-0.2,0.9,0.3,1c1.5,0.2,2.2,0.1,3.4-0.9c0.5-0.4,0-1.2-0.6-1c-0.4,0.1-0.7,0.3-1.1,0.4c0.2,0.4,0.3,0.7,0.5,1.1
						c0.1,0,0.2-0.1,0.3-0.1c0.2-0.1,0.3-0.3,0.3-0.5c0-0.1,0-0.2,0-0.3c0-0.4-0.4-0.7-0.8-0.6c-0.2,0-0.4,0.1-0.6,0.1
						c-0.2,0-0.4,0.2-0.4,0.4c-0.1,0.2-0.1,0.5-0.2,0.7c-0.1,0.4,0.2,0.7,0.6,0.8c1.4,0.1,1.3,0.2,2.3-0.9c0.4-0.4,0.1-1-0.4-1
						c-1.1,0-1,0-2,0.5c-0.6,0.3-0.2,1.3,0.5,1.1c0.6,0,1.1,0,1.7-0.1c0.1-0.4,0.2-0.8,0.3-1.2c-0.9-0.1-2.4-1.4-3.5-1.6
						c-1.1-0.2-2.3,0.5-3.4,0.4c-0.6,0-0.8,0.8-0.3,1.1c1.3,0.7,2.3,1.1,3.8,1.4c0.7,0.1,1-0.7,0.5-1.1c-0.3-0.2-0.6-0.5-0.9-0.7
						c0,0.4-0.1,0.7-0.1,1.1c0.4-0.1,0.8-0.1,1.2-0.2c0.7-0.1,0.5-1.1-0.2-1.2c-1.1-0.1-2.2-0.1-3.2-0.2c-0.6,0-0.9,0.9-0.3,1.1
						c1.4,0.6,1.2,0.5,2.6,0.7c0.7,0.1,0.7-0.9,0.2-1.2c-0.9-0.4-3.3-1-2.6,0.9c0.1,0.3,0.4,0.5,0.7,0.4c0.7-0.1,0.7-0.3,1-0.9
						c0.2-0.4-0.2-0.8-0.6-0.8c-1.6,0-2.6,0.2-4,1.1c-0.4,0.3-0.4,1,0.1,1.1c1.4,0.3,1.2,0.4,2.2-0.6c0.4-0.4,0.1-1-0.4-1
						c-0.3,0-0.5,0-0.8,0c-0.2,0-0.4,0.1-0.5,0.3c-0.1,0.2-0.2,0.5-0.3,0.7c-0.2,0.5,0.1,1,0.7,0.9c0.8-0.2,0.8-0.2,1.3-0.8
						c0.4-0.4,0-1.2-0.6-1c-0.7,0-1.5,0-2.2,0c-0.5-0.1-0.9,0.4-0.7,0.9c0.1,0.2,0.2,0.4,0.3,0.6c0.3-0.3,0.5-0.5,0.8-0.8
						c-0.4-0.2-0.7-0.5-1.1-0.7c-0.2,0.4-0.3,0.7-0.5,1.1c0.1,0,0.2,0.1,0.3,0.1c0.3,0.1,0.6-0.1,0.7-0.4c0.1-0.1,0.1-0.3,0.2-0.4
						c0.1-0.2-0.1-0.6-0.3-0.7c-1.4-0.8-3.3,0.2-4.8,0.6c-0.5,0.1-0.5,0.8-0.1,1.1c1.3,0.9,2.1,0.9,3.4,0c0.4-0.3,0.4-1-0.1-1.1
						c0,0-1.7-0.2-1.8-0.2c-0.3-0.4-1.1-0.3-1.1,0.3c0.2,0.1,0.3,0.1,0.5,0.2c-0.3,0.3-0.6,0.6-0.8,0.8c0.1,0.2,0.3,0.3,0.4,0.5
						c0.2-0.3,0.5-0.6,0.7-0.9c-0.4-0.2-0.9-0.4-1.3-0.6c-0.3-0.1-0.7-0.1-0.8,0.2c0,0,0,0.1-0.1,0.1c-0.2,0.4,0,0.7,0.4,0.9
						c0.1,0,0.1,0,0.2,0.1c0.1-0.4,0.2-0.8,0.3-1.2c-0.5-0.1-1-0.3-1.5-0.4c-0.6-0.1-1,0.6-0.6,1c0.7,0.7,0.7,0.7,1.7,0.5
						c0.4-0.1,0.6-0.7,0.3-1c-0.7-0.7-0.6-0.7-1.6-1c-0.5-0.2-1,0.5-0.7,0.9c0.6,0.8,0.6,0.9,1.6,1.1c0.3,0.1,0.6-0.1,0.7-0.4
						c0.3-0.8,0.3-0.9-0.1-1.7c-0.1-0.2-0.4-0.3-0.7-0.3c-0.2,0.1-0.4,0.1-0.6,0.2c-0.3,0.1-0.4,0.3-0.4,0.6c0,0.2,0,0.4,0,0.5
						c0.4-0.1,0.7-0.2,1.1-0.3C97.1,41.1,97,41,97,40.8c-0.2-0.2-0.4-0.3-0.7-0.3c-0.2,0-0.3,0.1-0.5,0.1c-0.2,0-0.4,0.2-0.4,0.4
						c-0.3,1.3,0,0.4-0.9,1.6c0.3,0.2,0.7,0.4,1,0.6c0.2-0.3,0.3-0.5,0.5-0.8c0.3-0.5-0.3-1.1-0.8-0.8c-0.8,0.4-0.7,0.4-1.3,1.1
						c0.4,0.1,0.7,0.2,1.1,0.3c0-0.3-0.1-0.5-0.1-0.8c0-0.4-0.4-0.7-0.8-0.6c-0.6,0.2-0.7,0.3-1,0.9c-0.2,0.5,0.6,1,1,0.6
						c0.2-0.2,0.4-0.5,0.6-0.7c0.2-0.2,0.3-0.6,0-0.8c-0.2-0.2-0.4-0.4-0.7-0.6c-0.2-0.2-0.6-0.2-0.8,0c-0.1,0.1-0.2,0.2-0.4,0.3
						c-0.1,0.1-0.2,0.4-0.2,0.6c0.1,0.2,0.1,0.3,0.2,0.5c0.2,0.7,1.1,0.5,1.2-0.2c0-0.2,0-0.3,0-0.5c0-0.2-0.1-0.4-0.3-0.5
						c-1-0.5-1.6-0.2-1.3,0.3c-0.1-0.2-0.4-0.3-0.7-0.3c-0.2,0-0.3,0.1-0.5,0.1C91,41.5,90.9,42,91,42.3c0.1,0.1,0.1,0.2,0.2,0.3
						c0.1,0.2,0.4,0.3,0.7,0.3c0.1,0,0.2-0.1,0.4-0.1c0.6-0.2,0.6-1,0-1.2c-1-0.3-1-0.3-1.8-0.2c-0.2,0-0.4,0.2-0.4,0.4
						c0.1-0.2,0.2-0.5,0.3-0.7c-0.2-0.2-0.5-0.2-0.7-0.1c-1,0.5-0.9,1.8,0.3,2c0.4,0.1,0.9-0.3,0.7-0.7c-0.1-0.3-0.2-0.5-0.2-0.8
						c-0.1-0.3-0.4-0.5-0.7-0.4c-0.1,0-0.2,0.1-0.3,0.1c-0.3,0.1-0.5,0.4-0.4,0.7c0,0.1,0,0.2,0,0.3c0.1,0.7,1.2,0.5,1.2-0.2
						c0-0.8,0-0.9-0.7-1.4c-0.2-0.1-0.4-0.1-0.6,0C88,41.1,88,41.2,87.9,42c0.4-0.1,0.8-0.1,1.2-0.2c-0.4-1.5-1.8-1.4-2.4-0.1
						c-0.2,0.6,0.6,0.9,1,0.6c0.2-0.2,0.4-0.3,0.6-0.5c0.4-0.3,0.1-0.9-0.3-1c-0.8-0.3-0.8-0.3-1.5,0.2c-0.4,0.2-0.4,0.8,0,1
						c0.2,0.1,0.5,0.3,0.7,0.4c0.4,0.2,1-0.2,0.9-0.7c-0.3-1.1-0.3-1.1-1.4-1.3c-0.4-0.1-0.9,0.3-0.7,0.7c0.3,0.8,0.3,0.9,1.1,1.2
						c0.3,0.1,0.7-0.1,0.7-0.4c0.2-1-0.3-1.7-1.4-1.6c-0.5,0-0.8,0.6-0.4,1c0.2,0.2,0.3,0.4,0.5,0.6c0.4,0.4,1,0.1,1-0.4
						C87.6,40.5,87.6,40.5,86.8,40c-0.3-0.1-0.5-0.1-0.7,0c-0.9,0.5-0.9,0.5-1,1.5c0.4,0,0.8,0,1.2,0c0-0.3,0-0.5,0-0.8
						c0-0.2-0.1-0.4-0.3-0.5c-0.2-0.1-0.5-0.2-0.7-0.3c-0.2-0.1-0.6-0.1-0.7,0.1c-0.7,0.9-0.6,1.7,0.5,2.1c0.5,0.2,0.9-0.5,0.7-0.9
						c-0.1-0.2-0.2-0.4-0.3-0.5c-0.1-0.2-0.3-0.3-0.5-0.3c-0.2,0-0.4,0-0.6,0c-0.2,0-0.5,0.2-0.6,0.4c-0.2,0.9,0.3,1.5,1.3,1.3
						c-0.2-0.4-0.3-0.7-0.5-1.1c-0.1,0.1-0.3,0.1-0.4,0.2c-0.2,0.1-0.3,0.3-0.3,0.5c0,0.2,0,0.3,0,0.5c0,0.4,0.5,0.8,0.9,0.5
						c1.2-0.9,0.9-0.5,0.2-1.1c0.2,0.1,0.5,0.1,0.6,0c0.1-0.1,0.2-0.1,0.3-0.2c0.3-0.2,0.4-0.5,0.2-0.8c-0.1-0.2-0.2-0.4-0.3-0.6
						c-0.3,0.3-0.5,0.5-0.8,0.8c0.1,0.1,0.2,0.2,0.4,0.3c0.2,0.1,0.4,0.1,0.6,0c0.1-0.1,0.3-0.2,0.4-0.3c0.2-0.1,0.3-0.4,0.3-0.7
						c-0.1-0.3-0.1-0.7-0.2-1c-0.4,0.2-0.7,0.3-1.1,0.5c0.1,0.3,0.3,0.6,0.4,1C86.1,41.3,87.1,40.7,86.8,40L86.8,40z"/>
				</g>
			</g>
			<g>
				<g>
					<path class="st1" d="M106.6,41.5c0.4-0.2,0.7-0.4,1-0.7c-0.3-0.1-0.7-0.3-1-0.4c0-0.2-0.3,0.1-0.3,0.1
						c-0.1,0.1-0.3,0.2-0.4,0.3c-0.3,0.2-0.4,0.6-0.5,0.9c-0.2,0.7,0.9,1.1,1.2,0.3c0-0.2,0.1-0.3,0.2-0.4c0.6-0.5,0-1.5-0.6-1
						c-0.4,0.3-0.7,0.6-0.8,1.1c0.4,0.1,0.8,0.2,1.2,0.3c0.1-0.4,0.4-0.5,0.7-0.7c0.3-0.2,0.5-0.5,0.5-0.9c0.1-0.6-0.7-0.7-1-0.4
						c-0.2,0.2-0.5,0.4-0.8,0.5C105.3,40.9,105.9,41.9,106.6,41.5L106.6,41.5z"/>
				</g>
			</g>
			<g>
				<g>
					<path class="st1" d="M79.4,34.5c0.2-0.1,0.1,0-0.3,0.1c1.2,1.2,2.5,2.5,3.7,3.7c-0.1,0.4,0.3-0.4,0.3-0.4
						c-0.2,0.3,0.2-0.2,0.2-0.3c0.4-0.4,0.4-0.4,1.1-0.7c-1.4-0.4-2.7-0.7-4.1-1.1c0,0.1,0.1,0.1,0.1,0.2c-0.1-0.5-0.3-1-0.4-1.5
						c0,0.1,0,0.1,0,0.2c0.1-0.5,0.3-1,0.4-1.5c0.3-0.3,0.3-0.3-0.1,0.1c-0.1,0.1-0.2,0.2-0.3,0.3c-0.3,0.3-0.7,0.7-1,1
						c-0.7,0.6-1.3,1.2-2,1.8c1.6,0.2,3.1,0.4,4.7,0.6c0-0.1-0.1-0.1-0.1-0.2c0.1,0.8,0.2,1.5,0.3,2.3c-0.4,0.6-0.5,0.7-0.2,0.4
						c0.1-0.1,0.2-0.3,0.4-0.4c0.2-0.2,0.4-0.4,0.7-0.6c0.4-0.4,0.7-0.6,1.3-0.9c-1.5-0.6-2.9-1.2-4.4-1.8c0,0.1,0,0.2,0,0.3
						c0-0.5,0-1.1,0-1.6c0.1-0.3-0.2,0.2-0.2,0.2c-0.3,0.3-0.5,0.6-0.8,0.9c-0.5,0.6-1.1,1.1-1.7,1.6c1.6,1.2,3.1,2.4,4.7,3.6
						c0.5-0.7,1.1-1.3,1.8-1.9c-1.6-1.2-3.1-2.4-4.7-3.6c-0.5,0.9-1,1.8-1.7,2.5c-1.1,1.2-1.2,3.1,0,4.2c1.1,1.1,3.1,1.2,4.2,0
						c1-1.1,1.9-2.4,2.6-3.7c0.7-1.3,0.5-2.9-0.8-3.9c-1.3-1-2.7-0.7-3.9,0.2c-1.1,0.9-2,1.9-2.8,3.1c-0.8,1.2-0.4,3,0.8,3.9
						c1.3,1,2.7,0.7,3.9-0.2c1-0.8,1.8-1.6,2.6-2.6c1.2-1.5,1.9-2.6,1.6-4.6c-0.3-1.9-2.9-2.7-4.4-1.8c-2.2,1.4-6.5,4.6-4.4,7.6
						c1.2,1.6,3.1,1.9,4.7,0.6c2.1-1.8,6.3-4.6,4.3-7.8c-0.9-1.4-2.6-1.8-4.1-1.1c-2.1,1.1-3.5,2.9-4.4,5c-0.9,2.3,1.7,4.1,3.7,3.7
						c0.6-0.1,1.2-0.4,1.7-0.7c1.4-0.7,1.9-2.8,1.1-4.1C82.7,34.2,80.9,33.8,79.4,34.5L79.4,34.5z"/>
				</g>
			</g>
			<g>
				<g>
					<path class="st1" d="M70.4,63.4c0-1.3,0-2.6,0-3.9c0-1.6-1.4-3.1-3-3c-1.6,0.1-3,1.3-3,3c0,1.3,0,2.6,0,3.9c0,1.6,1.4,3.1,3,3
						C69,66.3,70.3,65.1,70.4,63.4L70.4,63.4z"/>
				</g>
			</g>
			<g>
				<g>
					<g>
						<path class="st1" d="M79.1,88.2c0.2,0.1,0.4,0.2,0.6,0.3c0.7,0.4,1.2-0.6,0.6-1c-0.4-0.3-0.8-0.6-1.1-1.1
							c-0.3,0.3-0.6,0.6-0.8,0.8c0.2,0.2,0.4,0.4,0.7,0.7c0.3-0.3,0.6-0.6,0.8-0.8c-0.3-0.3-0.7-0.6-1-0.9c-0.2,0.3-0.5,0.6-0.7,0.9
							c0.2,0.2,0.4,0.3,0.6,0.5c0.6,0.5,1.2-0.6,0.6-1c-0.4-0.4-0.7-0.8-1.1-1.2c-0.3,0.2-0.6,0.5-0.9,0.7c0.2,0.2,0.4,0.4,0.6,0.5
							c0.2-0.3,0.5-0.6,0.7-0.9c-0.7-0.5-1.4-1-2.1-1.6c-0.6-0.4-1.1,0.5-0.7,0.9c0.4,0.5,0.9,1,1.4,1.4c0.6,0.5,1.4-0.3,0.8-0.8
							c-0.7-0.7-1.3-1.4-1.9-2.1c-0.3,0.3-0.6,0.6-0.8,0.8c0.5,0.5,1,0.9,1.4,1.4c0.4,0.5,1.3-0.2,0.9-0.7c-0.6-0.8-1.2-1.6-1.8-2.4
							c-0.3,0.2-0.6,0.5-0.9,0.7c0.4,0.5,0.8,0.9,1.3,1.4c0.3-0.3,0.6-0.6,0.8-0.8c-0.5-0.5-1-0.9-1.5-1.4c-0.6-0.5-1.3,0.3-0.8,0.8
							c0.9,1,1.8,2.1,2.6,3.1c0.3-0.3,0.6-0.6,0.8-0.8c-0.5-0.5-1-1-1.5-1.6c-0.2,0.3-0.5,0.6-0.7,0.9c0.5,0.2,0.9,0.6,1.2,1
							c0.3-0.3,0.6-0.6,0.8-0.8c-0.3-0.3-0.5-0.5-0.8-0.8c-0.3,0.3-0.6,0.6-0.8,0.8c0.2,0.2,0.4,0.3,0.6,0.5
							c0.6,0.5,1.4-0.3,0.8-0.8c-1.2-1.1-2.4-2.2-3.6-3.4c-0.2,0.3-0.5,0.6-0.7,0.9c0.2,0.3,0.5,0.5,0.7,0.8
							c0.3-0.2,0.6-0.5,0.9-0.7c-0.6-0.7-1.2-1.4-1.6-2.2c-0.3,0.2-0.7,0.4-1,0.6c0.4,0.7,0.8,1.2,1.3,1.8c0.4,0.5,1.3-0.1,0.9-0.7
							c-0.5-0.8-1-1.6-1.5-2.4c-0.4-0.6-1.4-0.1-1,0.6c0.5,0.8,1,1.6,1.5,2.4c0.3-0.2,0.7-0.4,1-0.6c-0.5-0.8-1-1.6-1.4-2.4
							c-0.3,0.2-0.7,0.4-1,0.6c0.6,0.8,1.1,1.6,1.7,2.4c0.3-0.3,0.5-0.5,0.8-0.8c-0.1-0.1-0.2-0.2-0.3-0.3c-0.3,0.2-0.6,0.5-0.9,0.7
							c0.3,0.3,0.6,0.6,0.9,1c0.4,0.5,1.4-0.2,0.9-0.7c-0.3-0.5-0.7-0.9-1-1.4c-0.3,0.3-0.5,0.5-0.8,0.8c0.2,0.3,0.5,0.5,0.7,0.8
							c0.4-0.2,0.7-0.3,1.1-0.5c-1-1.4-2-2.8-2.8-4.4c-0.3,0.2-0.7,0.4-1,0.6c0.6,0.9,1.2,1.7,1.8,2.6c0.4,0.6,1.5,0.1,1-0.6
							c-0.4-0.6-0.8-1.3-1.2-1.9c-0.3,0.2-0.6,0.5-0.9,0.7c0,0.1,0.1,0.1,0.1,0.2c0.4-0.2,0.7-0.3,1.1-0.5c-0.3-0.5-0.6-1-0.9-1.4
							c-0.4-0.6-1.4-0.1-1,0.6c0.5,0.9,1.1,1.8,1.6,2.7c0.3-0.2,0.7-0.4,1-0.6c-0.5-0.8-0.9-1.6-1.2-2.5c-0.4,0.2-0.7,0.3-1.1,0.5
							c0.1,0.3,0.2,0.5,0.3,0.8c0.1,0.8,1.3,0.4,1.2-0.3c-0.1-0.7-0.1-0.6-0.4-1.1c-0.4-0.5-1.3-0.2-1.1,0.5c0.3,1,0.8,1.9,1.3,2.8
							c0.4,0.7,1.4,0.1,1-0.6c-0.5-0.9-1.1-1.8-1.6-2.7c-0.3,0.2-0.7,0.4-1,0.6c0.3,0.5,0.6,1,0.9,1.4c0.4,0.6,1.3,0.2,1.1-0.5
							c-0.1-0.3-0.2-0.5-0.4-0.7c-0.5-0.5-1.3,0.1-0.9,0.7c0.4,0.6,0.8,1.3,1.2,1.9c0.3-0.2,0.7-0.4,1-0.6c-0.6-0.9-1.2-1.7-1.8-2.6
							c-0.4-0.6-1.4-0.1-1,0.6c0.8,1.5,1.8,3,2.8,4.4c0.4,0.5,1.3,0.2,1.1-0.5c-0.2-0.8-0.5-1.2-1.3-1.5c-0.5-0.2-1.2,0.3-0.8,0.8
							c0.3,0.5,0.7,0.9,1,1.4c0.3-0.2,0.6-0.5,0.9-0.7c-0.3-0.4-0.6-0.7-0.9-1c-0.5-0.5-1.3,0.2-0.9,0.7c0.2,0.4,0.4,0.5,0.7,0.8
							c0.5,0.4,1.2-0.3,0.8-0.8c-0.6-0.8-1.1-1.6-1.7-2.4c-0.4-0.6-1.4-0.1-1,0.6c0.4,0.8,0.9,1.6,1.4,2.4c0.4,0.6,1.4,0.1,1-0.6
							c-0.5-0.8-1-1.6-1.5-2.4c-0.3,0.2-0.7,0.4-1,0.6c0.5,0.8,1,1.6,1.5,2.4c0.3-0.2,0.6-0.5,0.9-0.7c-0.4-0.5-0.8-1-1.1-1.6
							c-0.4-0.7-1.4-0.1-1,0.6c0.5,0.9,1.1,1.7,1.8,2.5c0.5,0.5,1.3-0.1,0.9-0.7c-0.3-0.6-0.6-0.9-1.1-1.2c-0.6-0.4-1.2,0.5-0.7,0.9
							c1.2,1.1,2.4,2.3,3.6,3.4c0.3-0.3,0.6-0.6,0.8-0.8c-0.2-0.2-0.4-0.3-0.6-0.5c-0.6-0.5-1.4,0.3-0.8,0.8
							c0.3,0.3,0.5,0.5,0.8,0.8c0.5,0.5,1.4-0.3,0.8-0.8c-0.5-0.5-0.9-0.8-1.4-1.2c-0.6-0.4-1.2,0.5-0.7,0.9c0.5,0.5,1,1,1.5,1.6
							c0.5,0.6,1.3-0.3,0.8-0.8c-0.9-1-1.8-2.1-2.6-3.1c-0.3,0.3-0.6,0.6-0.8,0.8c0.5,0.5,1,0.9,1.5,1.4c0.6,0.5,1.4-0.3,0.8-0.8
							c-0.4-0.5-0.8-0.9-1.3-1.4c-0.5-0.5-1.4,0.2-0.9,0.7c0.6,0.8,1.2,1.6,1.8,2.4c0.3-0.2,0.6-0.5,0.9-0.7c-0.4-0.5-0.9-1-1.4-1.4
							c-0.6-0.5-1.3,0.3-0.8,0.8c0.6,0.7,1.2,1.4,1.9,2.1c0.3-0.3,0.6-0.6,0.8-0.8c-0.5-0.5-0.9-0.9-1.4-1.4
							c-0.2,0.3-0.5,0.6-0.7,0.9c0.7,0.5,1.4,1,2.1,1.6c0.5,0.4,1.2-0.5,0.7-0.9c-0.2-0.2-0.4-0.4-0.6-0.5c-0.5-0.4-1.4,0.1-0.9,0.7
							c0.5,0.7,0.9,1.1,1.6,1.6c0.2-0.3,0.4-0.7,0.6-1c-0.2-0.2-0.4-0.3-0.6-0.5c-0.5-0.4-1.2,0.5-0.7,0.9c0.3,0.3,0.7,0.6,1,0.9
							c0.6,0.5,1.4-0.3,0.8-0.8c-0.2-0.2-0.4-0.4-0.7-0.7c-0.6-0.6-1.3,0.3-0.8,0.8c0.4,0.5,0.8,0.9,1.3,1.2c0.2-0.3,0.4-0.7,0.6-1
							c-0.2-0.1-0.4-0.2-0.6-0.3C79.1,86.8,78.5,87.8,79.1,88.2L79.1,88.2z"/>
					</g>
				</g>
				<g>
					<g>
						<path class="st1" d="M77.2,83.7c-1-0.9-1.9-1.9-2.7-2.9c-0.2,0.3-0.5,0.6-0.7,0.9c0.4,0.3,0.8,0.7,1.1,1.1
							c0.2-0.3,0.5-0.6,0.7-0.9c-0.4-0.3-0.6-0.5-0.9-0.8c-0.5-0.6-1.3,0.3-0.8,0.8c1.5,1.9,3.2,3.6,5,5.1c0.6,0.5,1.4-0.3,0.8-0.8
							c-1.8-1.6-3.5-3.3-5-5.1c-0.3,0.3-0.6,0.6-0.8,0.8c0.4,0.4,0.7,0.7,1.2,1c0.6,0.4,1.2-0.5,0.7-0.9c-0.4-0.5-0.9-0.9-1.4-1.3
							c-0.6-0.4-1.1,0.5-0.7,0.9c0.9,1,1.8,2,2.7,2.9C76.9,85.1,77.8,84.2,77.2,83.7L77.2,83.7z"/>
					</g>
				</g>
				<g>
					<g>
						<path class="st1" d="M82,88.8c-0.5-0.2-1.1-0.4-1.6-0.6c-0.2,0.3-0.4,0.7-0.6,1c0.5,0.2,1,0.5,1.6,0.7c0.7,0.3,1.2-0.6,0.6-1
							c-0.5-0.3-1-0.7-1.5-1c-0.2,0.4-0.3,0.7-0.5,1.1c0.6,0.2,1.2,0.4,1.8,0.6c0.7,0.3,1-0.7,0.5-1.1c-0.7-0.5-1.4-1-2.2-1.4
							c-0.2,0.3-0.4,0.7-0.6,1c0.6,0.3,1.3,0.7,1.9,1c0.2-0.3,0.4-0.7,0.6-1c-0.9-0.4-1.8-0.9-2.7-1.3c-0.1,0.4-0.2,0.7-0.3,1.1
							c0.4,0.1,0.7,0.2,1.1,0.3c0.6,0.2,1-0.6,0.6-1c-0.4-0.4-0.8-0.8-1.3-1.2c-0.3,0.3-0.6,0.6-0.8,0.8c1.2,1.1,2.5,2,3.9,2.8
							c0.2-0.4,0.3-0.7,0.5-1.1c-0.4-0.1-0.7-0.1-1.1-0.2c-0.7-0.1-1.1,0.7-0.5,1.1c0.8,0.5,1.5,0.9,2.3,1.2
							c0.6,0.2,1.1-0.8,0.5-1.1c-0.4-0.2-0.7-0.3-1.1-0.5c-0.2,0.4-0.3,0.7-0.5,1.1c1.2,0.3,2.3,0.7,3.4,1.1
							c0.1-0.4,0.2-0.8,0.3-1.2c-0.6,0-1.2-0.2-1.8-0.5c-0.1,0.4-0.2,0.8-0.3,1.2c0.6,0.2,1.2,0.4,1.8,0.6c0.1-0.4,0.1-0.8,0.2-1.2
							c-0.3-0.1-0.5-0.1-0.8-0.2c-0.1,0.4-0.1,0.8-0.2,1.2c1.3,0.1,3.2,1.8,3.5,2.8c0.2-0.2,0.5-0.5,0.7-0.7
							c-0.8-0.2-1.6-0.5-2.4-0.9c-0.7-0.3-1.3,0.7-0.6,1c0.3,0.1,0.5,0.3,0.8,0.4c0.2-0.3,0.4-0.7,0.6-1c-0.7-0.3-1.4-0.7-2.1-1
							c-0.2,0.4-0.3,0.7-0.5,1.1c0.6,0.2,1.2,0.4,1.9,0.6c0.1-0.4,0.2-0.8,0.3-1.2c-0.4-0.1-0.7-0.2-1.1-0.4
							c-0.1,0.4-0.1,0.8-0.2,1.2c0.3,0,0.7,0.1,1,0.1c0.7,0.1,0.8-1,0.2-1.2c-0.4-0.2-0.8-0.3-1.2-0.3c-0.1,0.4-0.2,0.8-0.3,1.2
							c0.3,0,0.6,0.1,0.9,0.1c0.8,0.1,1.1-0.9,0.3-1.2c-0.3-0.1-0.7-0.2-1-0.3c-0.1,0.4-0.2,0.8-0.3,1.2c0.5,0.2,1.1,0.3,1.6,0.5
							c0.7,0.2,1-0.7,0.5-1.1c-0.2-0.1-0.3-0.2-0.5-0.3c-0.2,0.4-0.3,0.7-0.5,1.1c0.2,0,0.3,0.1,0.5,0.1c0.1-0.4,0.2-0.8,0.3-1.2
							c-1.2-0.2-2.4-0.5-3.5-0.9c-0.1,0.4-0.2,0.8-0.3,1.2c0.3,0.1,0.7,0.1,1,0.2c0.8,0.2,1.1-1,0.3-1.2c-0.9-0.2-1.8-0.5-2.6-0.9
							c-0.2,0.4-0.3,0.7-0.5,1.1c0.7,0.1,1.2,0.3,1.7,0.8c0.1-0.4,0.2-0.7,0.3-1.1c-0.4,0-0.7-0.1-1.1-0.1c-0.8-0.2-1,0.9-0.3,1.2
							c0.4,0.2,0.9,0.5,1.3,0.7c0.5,0.4,1.1-0.3,0.8-0.8c-0.5-0.8-1-1.4-1.7-2c-0.2,0.3-0.5,0.6-0.7,0.9c1,0.4,2,0.8,3,1.3
							c0.7,0.3,1.3-0.7,0.6-1c-0.5-0.3-1-0.5-1.5-0.8c-0.2,0.4-0.3,0.7-0.5,1.1c1.4,0.5,2.5,1.1,3.6,1.9c0.2-0.3,0.4-0.7,0.6-1
							c-1.9-1.2-3.9-2.4-5.8-3.7c-0.7-0.4-1.2,0.6-0.6,1c0.5,0.3,1,0.7,1.5,1c0.2-0.4,0.3-0.7,0.5-1.1c-1-0.1-1.9-0.4-2.8-0.9
							c-0.7-0.3-1.3,0.7-0.6,1c0.3,0.3,0.6,0.6,0.9,0.8c0.2-0.3,0.5-0.6,0.7-0.9c-0.2-0.1-0.5-0.1-0.7-0.2c-0.6-0.1-1,0.6-0.6,1
							c0.3,0.3,0.6,0.6,0.9,0.9c0.1-0.3,0.3-0.7,0.4-1c-0.5-0.1-0.9-0.2-1.4-0.3c-0.1,0.4-0.1,0.8-0.2,1.2c0.2,0.1,0.3,0.1,0.5,0.2
							c0-0.3,0-0.7,0-1c-0.1,0-0.1,0-0.2,0c-0.2,0.4-0.3,0.7-0.5,1.1c0.4,0.2,0.9,0.3,1.3,0.5c0-0.3-0.1-0.6-0.1-0.9
							c-0.1,0.1-0.2,0.1-0.4,0.2c0.1,0.4,0.2,0.7,0.3,1.1c0.1,0,0.2,0,0.4,0c0.7,0.4,1.2-0.6,0.6-1c-1.2-0.8-2.3-1.7-3.4-2.6
							c-0.2,0.3-0.5,0.6-0.7,0.9c0.5,0.3,1.1,0.7,1.6,1c0.2-0.3,0.4-0.7,0.6-1c-0.7-0.4-1.4-0.9-2-1.4c-0.2,0.3-0.4,0.7-0.6,1
							c0.7,0.2,1.3,0.6,1.8,1c0.2-0.3,0.4-0.7,0.6-1c-0.9-0.5-1.8-0.9-2.7-1.4c-0.6-0.3-1.2,0.4-0.7,0.9c0.6,0.6,1.2,1.2,1.9,1.7
							c0.2-0.3,0.4-0.7,0.6-1c-0.6-0.4-1.2-0.8-1.8-1.2c-0.6-0.4-1.3,0.5-0.7,0.9c0.7,0.6,0.9,0.7,1.7,1.2c0.6,0.4,1.2-0.5,0.7-0.9
							c-0.7-0.8-1.5-1.5-2.2-2.3c-0.2,0.3-0.5,0.6-0.7,0.9c0.8,0.6,1.7,1.2,2.5,1.8c0.5,0.4,1.3-0.5,0.7-0.9c-1-0.8-1.9-1.5-2.9-2.3
							c-0.6-0.5-1.4,0.3-0.8,0.8c1.2,1.1,2.4,2.1,3.7,3c0.2-0.3,0.4-0.7,0.6-1c-0.3-0.1-0.5-0.2-0.8-0.3c-0.6-0.2-1.3,0.5-0.7,0.9
							c0.2,0.2,0.5,0.4,0.7,0.6c0.1-0.3,0.3-0.7,0.4-1c-0.1,0-0.3,0-0.4-0.1c-0.6-0.1-0.8,0.8-0.3,1.1c0,0,0,0.1,0,0.1
							c0.3-0.2,0.7-0.4,1-0.6c-1-0.9-1.9-1.7-2.9-2.6c-0.2,0.3-0.5,0.6-0.7,0.9c0.6,0.3,1.2,0.6,1.7,1c0.6,0.3,1.3-0.5,0.7-0.9
							c-1.1-0.9-2.1-1.8-3-2.8c-0.2,0.3-0.5,0.6-0.7,0.9c0.8,0.5,1.7,1,2.5,1.6c0.6,0.4,1.2-0.5,0.7-0.9c-1-0.9-1.9-1.7-2.9-2.6
							c-0.2,0.3-0.5,0.6-0.7,0.9c1.1,0.5,2.1,1.1,3.1,1.8c0.6,0.4,1.2-0.5,0.7-0.9c-0.8-0.8-1.6-1.4-2.5-2c-0.6-0.4-1.3,0.5-0.7,0.9
							c1,0.8,2,1.6,3,2.4c0.6,0.5,1.4-0.3,0.8-0.8c-0.6-0.7-1.2-1.2-2.1-1.6c-0.6-0.3-1.2,0.4-0.7,0.9c0.9,1.1,1.9,2.1,2.9,3.1
							c0.3-0.3,0.6-0.6,0.8-0.8c-0.5-0.4-1-0.8-1.5-1.2c-0.2,0.3-0.5,0.6-0.7,0.9c0.3,0.2,0.5,0.4,0.9,0.5c0.5,0.2,1.2-0.3,0.8-0.8
							c-0.1-0.1-0.2-0.3-0.3-0.4c-0.3,0.3-0.5,0.5-0.8,0.8c0.4,0.3,0.8,0.6,1.2,0.7c0.5,0.2,1.2-0.3,0.8-0.8c-0.3-0.5-0.7-1-1-1.5
							c-0.3,0.2-0.6,0.5-0.9,0.7c0.4,0.3,0.8,0.7,1.1,1.1c0.5,0.6,1.3-0.3,0.8-0.8c-0.3-0.4-0.7-0.8-1.1-1.1
							c-0.5-0.4-1.3,0.1-0.9,0.7c0.3,0.5,0.7,1,1,1.5c0.3-0.3,0.5-0.5,0.8-0.8c-0.5-0.2-0.9-0.4-1.2-0.7c-0.5-0.3-1.2,0.3-0.8,0.8
							c0.1,0.1,0.2,0.3,0.3,0.4c0.3-0.3,0.5-0.5,0.8-0.8c-0.3-0.1-0.6-0.3-0.9-0.5c-0.5-0.4-1.3,0.5-0.7,0.9c0.5,0.4,1,0.8,1.5,1.2
							c0.6,0.5,1.4-0.3,0.8-0.8c-1-1-2-2-2.9-3.1c-0.2,0.3-0.5,0.6-0.7,0.9c0.8,0.2,1.4,0.7,1.8,1.4c0.3-0.3,0.6-0.6,0.8-0.8
							c-1-0.8-2-1.6-3-2.4c-0.2,0.3-0.5,0.6-0.7,0.9c0.8,0.5,1.6,1.1,2.2,1.8c0.2-0.3,0.5-0.6,0.7-0.9c-1-0.7-2-1.3-3.1-1.8
							c-0.6-0.3-1.3,0.5-0.7,0.9c1,0.9,1.9,1.7,2.9,2.6c0.2-0.3,0.5-0.6,0.7-0.9c-0.8-0.5-1.7-1-2.5-1.6c-0.6-0.4-1.2,0.5-0.7,0.9
							c1,1,1.9,1.9,3,2.8c0.2-0.3,0.5-0.6,0.7-0.9c-0.6-0.3-1.2-0.6-1.7-1c-0.6-0.3-1.2,0.5-0.7,0.9c1,0.9,1.9,1.8,2.9,2.6
							c0.5,0.4,1.1,0,1-0.6c-0.1-0.5-0.2-0.6-0.6-0.8c-0.1,0.4-0.2,0.7-0.3,1.1c0.1,0,0.3,0,0.4,0.1c0.5,0.1,0.8-0.7,0.4-1
							c-0.2-0.2-0.5-0.4-0.7-0.6c-0.2,0.3-0.5,0.6-0.7,0.9c0.3,0.1,0.5,0.2,0.8,0.3c0.7,0.3,1.2-0.6,0.6-1C79,89,77.8,88,76.8,87
							c-0.3,0.3-0.6,0.6-0.8,0.8c1,0.8,1.9,1.5,2.9,2.3c0.2-0.3,0.5-0.6,0.7-0.9c-0.8-0.6-1.7-1.2-2.5-1.8c-0.6-0.4-1.2,0.5-0.7,0.9
							c0.7,0.8,1.5,1.5,2.2,2.3c0.2-0.3,0.5-0.6,0.7-0.9c-0.5-0.3-0.9-0.7-1.4-1c-0.2,0.3-0.5,0.6-0.7,0.9c0.6,0.4,1.2,0.8,1.8,1.2
							c0.7,0.4,1.2-0.6,0.6-1c-0.6-0.4-1.2-0.9-1.6-1.5c-0.2,0.3-0.5,0.6-0.7,0.9c0.9,0.5,1.8,0.9,2.7,1.4c0.7,0.4,1.2-0.6,0.6-1
							c-0.7-0.5-1.3-0.8-2.1-1.2c-0.5-0.2-1,0.6-0.6,1c0.7,0.6,1.4,1.1,2.2,1.6c0.7,0.4,1.3-0.6,0.6-1c-0.5-0.3-1.1-0.7-1.6-1
							c-0.6-0.4-1.3,0.5-0.7,0.9c1.2,1,2.4,1.9,3.6,2.7c0.2-0.3,0.4-0.7,0.6-1c-0.7-0.4-0.8-0.4-1.6,0c-0.5,0.3-0.3,1.1,0.3,1.1
							c0.6,0,0.8-0.1,1.2-0.5c0.2-0.3,0.2-0.8-0.1-0.9c-0.7-0.3-0.8-0.4-1.6-0.6c-0.7-0.2-1,0.7-0.5,1.1c0.6,0.4,0.8,0.4,1.4,0
							c0.4-0.2,0.3-0.8,0-1c-0.5-0.3-0.5-0.3-1.1-0.4c-0.7,0-0.8,1-0.2,1.2c0.8,0.2,0.9,0.2,1.7,0.3c0.5,0.1,0.8-0.7,0.4-1
							c-0.3-0.3-0.6-0.6-0.9-0.9c-0.2,0.3-0.4,0.7-0.6,1c0.2,0.1,0.5,0.1,0.7,0.2c0.5,0.1,0.9-0.4,0.7-0.9c-0.5-0.9-0.4-0.8-1.3-1.3
							c-0.2,0.3-0.4,0.7-0.6,1c1,0.5,1.9,0.8,3.1,1c0.7,0.1,1-0.7,0.5-1.1c-0.5-0.3-1-0.7-1.5-1c-0.2,0.3-0.4,0.7-0.6,1
							c1.9,1.2,3.9,2.4,5.8,3.7c0.7,0.4,1.2-0.6,0.6-1c-1.2-0.9-2.5-1.6-3.9-2c-0.6-0.2-1.1,0.8-0.5,1.1c0.5,0.3,1,0.5,1.5,0.8
							c0.2-0.3,0.4-0.7,0.6-1c-1-0.4-2-0.8-3-1.3c-0.6-0.2-1.3,0.4-0.7,0.9c0.6,0.5,1.1,1.1,1.6,1.8c0.3-0.3,0.5-0.5,0.8-0.8
							c-0.8-0.6-0.7-0.5-1.6-0.9c-0.1,0.4-0.2,0.8-0.3,1.2c0.8,0.2,0.6,0.2,1.4,0.1c0.6-0.1,0.8-0.8,0.3-1.1c-0.7-0.5-1.2-0.7-2-0.9
							c-0.6-0.1-1.1,0.8-0.5,1.1c1,0.4,1.9,0.8,2.9,1c0.1-0.4,0.2-0.8,0.3-1.2c-0.3-0.1-0.7-0.1-1-0.2c-0.8-0.2-1.1,0.9-0.3,1.2
							c1.2,0.4,2.3,0.7,3.5,0.9c0.7,0.1,1.1-0.9,0.3-1.2c-0.2,0-0.3-0.1-0.5-0.1c-0.7-0.2-1,0.7-0.5,1.1c0.2,0.1,0.3,0.2,0.5,0.3
							c0.2-0.4,0.3-0.7,0.5-1.1c-0.5-0.2-1.1-0.3-1.6-0.5c-0.7-0.2-1,0.9-0.3,1.2c0.3,0.1,0.7,0.2,1,0.3c0.1-0.4,0.2-0.8,0.3-1.2
							c-0.3,0-0.6-0.1-0.9-0.1c-0.7-0.1-1.1,1-0.3,1.2c0.4,0.1,0.8,0.2,1.2,0.3c0.1-0.4,0.1-0.8,0.2-1.2c-0.3,0-0.7-0.1-1-0.1
							c-0.7-0.1-0.8,1-0.2,1.2c0.4,0.1,0.7,0.2,1.1,0.4c0.7,0.2,1.1-0.9,0.3-1.2c-0.6-0.2-1.2-0.4-1.9-0.6c-0.6-0.2-1.1,0.8-0.5,1.1
							c0.7,0.3,1.4,0.7,2.1,1c0.7,0.3,1.3-0.7,0.6-1c-0.3-0.1-0.5-0.3-0.8-0.4c-0.2,0.3-0.4,0.7-0.6,1c0.9,0.4,1.7,0.8,2.7,1.1
							c0.4,0.1,0.9-0.3,0.7-0.7c-0.6-2.3-2.3-3.4-4.6-3.7c-0.7-0.1-0.7,1-0.2,1.2c0.5,0.2,0.5,0.2,1.1,0.2c0.7,0,0.8-1,0.2-1.2
							c-0.6-0.2-1.2-0.4-1.8-0.6c-0.7-0.2-1,0.9-0.3,1.2c0.6,0.3,1.2,0.4,1.8,0.5c0.8,0.1,1-0.9,0.3-1.2c-1.1-0.4-2.3-0.8-3.4-1.1
							c-0.6-0.2-1.1,0.8-0.5,1.1c0.4,0.2,0.7,0.3,1.1,0.5c0.2-0.4,0.3-0.7,0.5-1.1c-0.7-0.2-1.4-0.6-2-1c-0.2,0.4-0.3,0.7-0.5,1.1
							c0.4,0.1,0.7,0.1,1.1,0.2c0.6,0.1,1.1-0.7,0.5-1.1c-1.3-0.8-2.5-1.7-3.7-2.7c-0.6-0.5-1.4,0.3-0.8,0.8
							c0.4,0.4,0.8,0.8,1.3,1.2c0.2-0.3,0.4-0.7,0.6-1c-0.7-0.3-0.6-0.3-1.4-0.3c-0.6-0.1-0.8,0.9-0.3,1.1c0.9,0.4,1.8,0.9,2.7,1.3
							c0.7,0.3,1.3-0.7,0.6-1c-0.6-0.3-1.3-0.7-1.9-1c-0.7-0.3-1.3,0.7-0.6,1c0.8,0.4,1.5,0.9,2.2,1.4c0.2-0.4,0.3-0.7,0.5-1.1
							c-0.6-0.3-1.2-0.5-1.8-0.6c-0.7-0.2-1,0.7-0.5,1.1c0.5,0.3,1,0.7,1.5,1c0.2-0.3,0.4-0.7,0.6-1c-0.5-0.2-1-0.5-1.6-0.7
							c-0.7-0.3-1.3,0.7-0.6,1c1,0.5,0.8,0.4,1.9,0.7C82.4,90.2,82.7,89,82,88.8L82,88.8z"/>
					</g>
				</g>
				<g>
					<g>
						<path class="st1" d="M122.2,89.3c-3.8,0.7-7.4,1.9-10.9,3.5c0.3,0.2,0.6,0.3,0.9,0.5c0-0.5,4.8-2.1,5.5-2.6
							c0.6-0.4,0.2-1.2-0.5-1.1c-0.8,0.1-0.8,0.1-1.3,0.7c-0.4,0.4,0,1.2,0.6,1c1.4-0.4,2.4-1,3.5-2c0.5-0.5-0.1-1.3-0.7-0.9
							c-0.6,0.4-1.2,0.7-1.9,1c0.2,0.3,0.4,0.7,0.6,1c1-0.5,1.9-1,2.8-1.6c0.5-0.4,0.2-1.3-0.5-1.1c-1,0.3-0.9,0.3-1.7,1
							c-0.5,0.5,0.2,1.4,0.7,0.9c4.1-3,7.3-6.7,9.7-11.2c0.4-0.7-0.7-1.3-1-0.6c-2.2,4.3-5.3,7.9-9.2,10.8c0.2,0.3,0.5,0.6,0.7,0.9
							c0.4-0.2,0.8-0.5,1.2-0.7c-0.2-0.4-0.3-0.7-0.5-1.1c-0.9,0.7-1.8,1.2-2.8,1.6c-0.7,0.3-0.1,1.4,0.6,1c0.7-0.3,1.3-0.6,1.9-1
							c-0.2-0.3-0.5-0.6-0.7-0.9c-0.8,0.8-1.8,1.4-2.9,1.7c0.2,0.3,0.4,0.7,0.6,1c0.3-0.1,0.5-0.3,0.8-0.4c-0.2-0.4-0.3-0.7-0.5-1.1
							c-1.4,1-2.4,1-4.1,1.4c-0.3,0.1-0.8,0.1-1.1,0.3c-0.9,0.6-0.9,0.9-0.9,1.9c0,0.5,0.5,0.7,0.9,0.5c3.4-1.6,6.9-2.6,10.6-3.3
							C123.2,90.3,122.9,89.2,122.2,89.3L122.2,89.3z"/>
					</g>
				</g>
				<g>
					<g>
						<path class="st1" d="M121.1,91.4c0.3-0.5,0.7-0.9,1-1.4c-0.3-0.1-0.7-0.3-1-0.4c-0.1,0.4-0.2,0.8-0.4,1.3
							c0.4,0.1,0.7,0.2,1.1,0.3c0.2-0.6,0.5-1.2,0.7-1.8c-0.3-0.2-0.6-0.5-0.9-0.7c-0.5,0.6-1.1,1.3-1.6,1.9
							c0.3,0.1,0.6,0.2,0.9,0.4c-0.8-0.2-1.6-0.3-2.4-0.5c-0.2-0.3-0.6-0.4-0.9-0.1c-0.8,1-1.9,1.6-3.2,1.8c0.1,0.4,0.2,0.8,0.3,1.2
							c0-0.7-0.3-1.1-1-1c0.1,0.3,0.2,0.7,0.3,1c-0.4,0.5,4.8-0.1,4.1-0.2c0.6,0.1,0.8-0.9,0.3-1.1c-0.2-0.1-0.5-0.2-0.7-0.3
							c-0.2,0.4-0.3,0.7-0.5,1.1c0.8,0.1,1.6,0.2,2.4,0.3c0.6,0.1,1.1-0.8,0.5-1.1c-0.2-0.1-0.4-0.2-0.6-0.3
							c-0.2,0.4-0.3,0.7-0.5,1.1c0.5,0.2,1.1,0.4,1.6,0.6c-0.1-0.3-0.2-0.7-0.3-1c0.6-0.1,1.2-0.3,1.8-0.4c-0.3-0.1-0.7-0.2-1-0.3
							c0.1,0.3,0.1,0.7,0.2,1c0.1,0.7,1.2,0.5,1.2-0.2c0.1-0.2,0.1-0.4,0.2-0.6c-0.3-0.2-0.7-0.4-1-0.6c-0.2,0.3-0.3,0.6-0.5,1
							c0.4,0.2,0.7,0.3,1.1,0.5c-0.3,0.1-0.6,0.2-1,0.3c0.3,0.1,0.7,0.3,1,0.4c0.4-1,0.9-2.1,1.3-3.1c-0.3-0.2-0.7-0.4-1-0.6
							c-0.2,0.6-0.5,1.2-0.7,1.8c0.4,0,0.7,0.1,1.1,0.1c-0.3-0.9-0.3-1.9-0.2-2.8c0-0.4-0.5-0.8-0.9-0.5c-0.7,0.6-1.4,1-2.1,1.4
							c0.3,0.2,0.6,0.3,0.9,0.5c0.1-0.3,0.3-0.6,0.4-0.9c-0.3-0.1-0.7-0.2-1-0.3c0,0,0.1,0,0.1,0c0,0.3-0.1,0.6-0.1,0.9
							c0.2,0,0.3-0.1,0.5-0.1c-0.1-0.3-0.3-0.7-0.4-1c-0.3,0.2-0.5,0.5-0.8,0.7c0.3,0.1,0.7,0.3,1,0.4c0.7-0.5,1.4-1.1,2-1.6
							c-0.2-0.3-0.4-0.5-0.6-0.8c-0.2,0.4-0.5,0.8-0.7,1.2c0.3,0.1,0.7,0.3,1,0.4c0.6-0.8,1.1-1.7,1.7-2.5c-0.3-0.3-0.5-0.5-0.8-0.8
							c-0.6,1.3-1.3,2.3-2.4,3.2c0.3,0.2,0.7,0.4,1,0.6c0.2-1.5,1-2.5,2.5-3.2c-0.3-0.3-0.5-0.5-0.8-0.8c-0.4,0.9-0.9,1.7-1.7,2.4
							c0.3,0.2,0.7,0.4,1,0.6c0.7-0.9,1.3-1.8,2-2.6c-0.3-0.2-0.6-0.5-0.9-0.7c-0.3,1.3-1,2.4-1.8,3.4c0.3,0.2,0.7,0.4,1,0.6
							c0.6-1.9,1.6-3.2,3.1-4.4c-0.3-0.2-0.7-0.4-1-0.6c-0.4,1.8-1.1,3.1-2.4,4.5c0.3,0.2,0.7,0.4,1,0.6c0.6-2,1.5-3.5,2.8-5
							c-0.3-0.2-0.7-0.4-1-0.6c-0.2,1.4-0.6,2.6-1.4,3.8c0.4,0.2,0.7,0.3,1.1,0.5c0.4-1.2,0.9-2.4,1.6-3.5c-0.4-0.2-0.7-0.3-1.1-0.5
							c-0.6,1.5-1.2,2.5-2.1,3.7c0.4,0.2,0.7,0.3,1.1,0.5c0.7-1.7,1.5-3.2,2.5-4.6c-0.4-0.2-0.7-0.3-1.1-0.5
							c-0.6,1.5-1.2,2.6-2.2,3.9c0.3,0.2,0.7,0.4,1,0.6c0.3-0.3,0.6-0.7,0.9-1c-0.3-0.1-0.7-0.3-1-0.4c0.2,2.6-0.8,4.4-2.2,6.5
							c-0.3,0.4,0.2,1,0.7,0.9c1.1-0.3,1.9-0.7,2.8-1.5c-0.3-0.3-0.6-0.6-0.8-0.8c-0.5,0.4-1,0.8-1.5,1.2c0.2,0.3,0.5,0.6,0.7,0.9
							c0.8-1,1.6-2,2.5-3c0.5-0.6-0.3-1.4-0.8-0.8c-0.4,0.5-0.8,0.9-1.3,1.4c0.3,0.2,0.6,0.5,0.9,0.7c0.5-0.6,1.1-1.3,1.6-1.9
							c-0.2-0.3-0.5-0.6-0.7-0.9c-1.7,1.6-3.3,3.2-4.6,5.1c0.3,0.2,0.7,0.4,1,0.6c1.1-1.7,2.2-3.3,3.4-5c-0.4-0.2-0.7-0.3-1.1-0.5
							c-0.3,1.2-0.7,2.3-1.5,3.3c0.3,0.2,0.7,0.4,1,0.6c0.4-0.7,0.8-1.5,1.2-2.2c0.4-0.7-0.6-1.3-1-0.6c-0.3,0.3-0.6,0.7-0.9,1
							c0.3,0.2,0.7,0.4,1,0.6c0.8-2.1,1.7-4.1,2.9-6c-0.4-0.1-0.7-0.2-1.1-0.3c-0.3,1-0.6,2-0.9,3c0.4,0.2,0.7,0.3,1.1,0.5
							c0.2-1.1,0.5-2.3,0.7-3.4c0.1-0.6-0.8-1.1-1.1-0.5c-0.8,1.6-1.6,3.2-2.5,4.7c0.4,0.1,0.7,0.2,1.1,0.3c0-1.9,0.8-3.3,1.7-4.9
							c-0.4-0.2-0.7-0.3-1.1-0.5c-0.5,1.4-1.1,2.4-2,3.5c0.4,0.2,0.7,0.3,1.1,0.5c0.6-2,1.5-3.7,2.8-5.3c-0.4-0.2-0.7-0.3-1.1-0.5
							c-0.3,1-0.8,1.9-1.4,2.7c0.4,0.2,0.7,0.3,1.1,0.5c0.1-1.2,0.6-2.4,1.4-3.4c-0.3-0.2-0.7-0.4-1-0.6c-0.3,1.1-0.9,2-1.8,2.7
							c0.3,0.2,0.7,0.4,1,0.6c0.4-1.5,1-2.8,1.9-4.1c-0.4-0.2-0.7-0.3-1.1-0.5c-0.3,0.9-0.8,1.7-1.5,2.5c0.3,0.2,0.7,0.4,1,0.6
							c0.6-1.3,1.1-2.2,2.1-3.3c-0.3-0.2-0.6-0.5-0.9-0.7c-0.6,1.4-1.4,2.6-2.2,3.9c0.4,0.1,0.7,0.2,1.1,0.3
							c0.1-0.5,0.2-0.9,0.2-1.4c-0.4-0.1-0.8-0.2-1.2-0.3c-0.4,0.8-0.8,1.5-1.2,2.3c0.3,0.2,0.7,0.4,1,0.6c0.4-0.7,0.7-1.3,1.1-2
							c-0.3-0.2-0.6-0.5-0.9-0.7c-0.6,0.6-1.1,1.2-1.7,1.8c0.2,0.3,0.5,0.6,0.7,0.9c0.6-0.9,1.4-1.5,2.4-1.9
							c-0.3-0.2-0.6-0.3-0.9-0.5c0,1.1-0.1,2.2-0.3,3.3c-0.1,0.8,0.9,1,1.2,0.3c0.4-1.2,1-2.2,1.8-3.1c-0.3-0.2-0.7-0.4-1-0.6
							c-0.6,2-1.4,3.7-2.5,5.5c0.3,0.2,0.7,0.4,1,0.6c0.7-1.6,1.6-3,2.7-4.4c-0.3-0.2-0.7-0.4-1-0.6c-0.2,1.2-0.6,2.2-1.4,3.2
							c-0.4,0.6,0.5,1.2,0.9,0.7c0.5-0.5,1-1,1.5-1.5c-0.3-0.2-0.6-0.5-0.9-0.7c-0.5,1.1-1.2,2-1.9,2.9c0.3,0.2,0.6,0.5,0.9,0.7
							c0.3-0.8,0.9-1.5,1.5-2.1c-0.3-0.2-0.6-0.5-0.9-0.7c-0.3,0.8-0.7,1.6-1.2,2.4c-0.4,0.7,0.6,1.2,1,0.6c0.2-0.3,0.5-0.7,0.7-1
							c-0.4-0.2-0.7-0.3-1.1-0.5c-0.2,0.5-0.4,1-0.6,1.5c0.3,0.2,0.7,0.4,1,0.6c0.5-1.1,1.2-2,2-2.8c-0.3-0.2-0.7-0.4-1-0.6
							c-0.3,0.6-0.7,1.3-1,1.9c0.3,0.2,0.7,0.4,1,0.6c1-2,2.1-3.9,3.4-5.8c-0.3-0.2-0.7-0.4-1-0.6c-0.4,0.5-0.7,1.1-1.1,1.6
							c-0.5,0.6,0.4,1.4,0.8,0.8c0.8-0.9,0.7-0.8,1.3-1.8c0.4-0.7-0.6-1.2-1-0.6c-1.3,1.8-2.4,3.7-3.4,5.8c-0.3,0.7,0.6,1.2,1,0.6
							c0.9-1.2,0.6-0.8,1.1-2.2c0.2-0.6-0.6-1-1-0.6c-0.9,1-1.6,1.9-2.2,3.1c-0.4,0.7,0.6,1.2,1,0.6c0.7-0.9,0.5-0.6,0.7-1.7
							c0.1-0.7-0.7-1-1.1-0.5c-0.2,0.3-0.5,0.7-0.7,1c0.3,0.2,0.7,0.4,1,0.6c0.5-0.8,0.9-1.5,1.2-2.4c0.3-0.6-0.4-1.2-0.9-0.7
							c-0.7,0.7-1.2,1.4-1.7,2.4c-0.3,0.6,0.5,1.3,0.9,0.7c0.8-1,1.5-2,2.1-3.2c0.3-0.6-0.4-1.2-0.9-0.7c-0.6,0.4-1.1,0.9-1.5,1.5
							c0.3,0.2,0.6,0.5,0.9,0.7c0.8-1.1,1.3-2.1,1.5-3.5c0.1-0.5-0.6-1.1-1-0.6c-1.2,1.5-2.1,3-2.9,4.7c-0.3,0.7,0.6,1.3,1,0.6
							c1.1-1.9,2-3.7,2.6-5.8c0.2-0.5-0.6-1.1-1-0.6c-0.9,1.1-1.6,2.3-2.1,3.7c0.4,0.1,0.8,0.2,1.2,0.3c0.2-1.2,0.3-2.4,0.3-3.6
							c0-0.5-0.5-0.7-0.9-0.5c-1.1,0.6-1.8,1.2-2.6,2.1c-0.4,0.5,0.1,1.3,0.7,0.9c1.1-0.6,1.6-1.1,2.2-2.2c0.3-0.6-0.5-1.3-0.9-0.7
							c-0.6,0.8-1,1.5-1.4,2.5c-0.2,0.6,0.6,1,1,0.6c0.8-0.9,1.2-1.6,1.5-2.8c0.2-0.8-0.9-1.1-1.2-0.3c-0.3,0.9-0.3,0.7-0.3,1.7
							c0,0.6,0.8,0.8,1.1,0.3c0.8-1.2,1.6-2.5,2.2-3.9c0.3-0.6-0.5-1.3-0.9-0.7c-1,1.1-1.7,2.2-2.3,3.5c-0.3,0.7,0.6,1.2,1,0.6
							c0.7-0.9,1.1-1.7,1.6-2.8c0.3-0.7-0.7-1-1.1-0.5c-1,1.4-1.6,2.7-2,4.4c-0.2,0.6,0.6,1,1,0.6c1-1,1.6-1.9,2.1-3.2
							c0.2-0.5-0.6-1.1-1-0.6c-1,1.2-1.5,2.3-1.8,3.9c-0.1,0.7,0.7,1.1,1.1,0.5c0.6-1,1.1-1.9,1.5-3c0.3-0.7-0.7-1-1.1-0.5
							c-1.3,1.8-2.2,3.5-2.9,5.6c-0.2,0.7,0.7,1,1.1,0.5c0.9-1.2,1.6-2.4,2.1-3.8c0.2-0.7-0.8-1-1.1-0.5c-1.1,1.8-1.8,3.4-1.9,5.5
							c0,0.6,0.8,0.8,1.1,0.3c0.9-1.5,1.8-3.1,2.5-4.7c-0.4-0.2-0.7-0.3-1.1-0.5c-0.2,1.1-0.5,2.3-0.7,3.4c-0.1,0.6,0.8,1.1,1.1,0.5
							c0.6-1.2,0.9-2.2,1.1-3.6c0.1-0.6-0.8-0.8-1.1-0.3c-1.2,2-2.2,4.1-3,6.3c-0.2,0.6,0.6,0.9,1,0.6c0.7-0.6,0.6-0.5,1.1-1.3
							c-0.3-0.2-0.7-0.4-1-0.6c-0.4,0.7-0.8,1.5-1.2,2.2c-0.4,0.7,0.6,1.2,1,0.6c0.8-1.2,1.3-2.2,1.6-3.6c0.1-0.7-0.7-1-1.1-0.5
							c-1.1,1.7-2.2,3.3-3.4,5c-0.4,0.6,0.6,1.2,1,0.6c1.3-1.8,2.8-3.3,4.5-4.8c0.5-0.5-0.2-1.3-0.7-0.9c-1,0.7-1.5,1.2-2,2.3
							c-0.3,0.6,0.5,1.3,0.9,0.7c0.4-0.5,0.8-0.9,1.3-1.4c-0.3-0.3-0.6-0.6-0.8-0.8c-0.8,1-1.6,2-2.5,3c-0.4,0.5,0.1,1.3,0.7,0.9
							c1-0.7,0.9-0.5,1.7-1.4c0.6-0.5-0.3-1.3-0.8-0.8c-0.8,0.4-1.5,0.8-2.3,1.2c0.2,0.3,0.5,0.6,0.7,0.9c1.6-2.3,2.6-4.3,2.3-7.1
							c0-0.5-0.6-0.8-1-0.4c-0.7,0.6-0.6,0.4-1,1.3c-0.4,0.7,0.6,1.2,1,0.6c1-1.3,1.7-2.7,2.3-4.2c0.3-0.7-0.7-1-1.1-0.5
							c-1,1.6-1.9,3.2-2.6,4.9c-0.3,0.7,0.7,1,1.1,0.5c0.9-1.3,1.6-2.5,2.2-4c0.3-0.6-0.8-1-1.1-0.5c-0.7,1.2-1.3,2.4-1.7,3.7
							c-0.2,0.7,0.7,1,1.1,0.5c0.8-1.3,1.3-2.5,1.5-4.1c0.1-0.5-0.6-1.1-1-0.6c-1.5,1.7-2.5,3.4-3.2,5.6c-0.2,0.6,0.6,1,1,0.6
							c1.4-1.5,2.2-3,2.7-5c0.1-0.6-0.5-0.9-1-0.6c-1.7,1.3-2.7,2.9-3.4,4.9c-0.2,0.5,0.6,1.1,1,0.6c1-1.2,1.6-2.4,2.1-3.9
							c0.2-0.5-0.4-0.9-0.9-0.7c-1.5,0.8-2.2,1.7-2.5,3.3c-0.1,0.6,0.6,1,1,0.6c0.8-0.8,1.3-1.6,1.9-2.7c0.3-0.5-0.3-1.1-0.8-0.8
							c-1.6,0.9-2.6,2.1-3,3.9c-0.2,0.6,0.6,1,1,0.6c1.2-1,1.9-2,2.6-3.4c0.2-0.5-0.3-1.1-0.8-0.8c-1.6,0.8-2.2,1.8-2.3,3.5
							c0,0.6,0.7,0.7,1,0.4c0.9-0.8,0.8-0.6,1-1.8c0.1-0.4-0.2-0.7-0.6-0.8c-1.9-0.1-3,0.9-3.2,2.8c-0.1,0.5,0.7,0.7,1,0.4
							c0.3-0.2,0.5-0.5,0.8-0.7c0.4-0.4,0.1-1-0.4-1c-0.6-0.1-0.6,0-1.1,0.3c-0.3,0.2-0.4,0.7-0.1,0.9c1,1.1,2.5,0.3,1.9-1.2
							c-0.2-0.4-0.7-0.6-1-0.3c-0.7,0.7-0.7,0.7-0.8,1.7c0,0.5,0.5,0.7,0.9,0.5c0.8-0.4,1.5-0.8,2.1-1.4c-0.3-0.2-0.6-0.3-0.9-0.5
							c-0.1,1.1,0,2,0.2,3.1c0.1,0.5,0.8,0.6,1.1,0.1c0.8-1.2,0.6-0.7,0.8-2.1c0.1-0.6-0.5-1-1-0.6c-1.3,1.2-1.7,2.2-1.6,4
							c0,0.5,0.6,0.8,1,0.4c0.8-0.7,0.8-1.3,0.4-2.2c-0.1-0.3-0.6-0.4-0.8-0.2c-0.4,0.3-0.5,0.4-0.6,0.9c-0.1,0.6,0.8,1.1,1.1,0.5
							c0.2-0.3,0.3-0.6,0.5-1c0.3-0.7-0.6-1.2-1-0.6c-0.4,0.5-0.4,0.6-0.4,1.2c0.4-0.1,0.8-0.1,1.2-0.2c-0.1-0.3-0.1-0.7-0.2-1
							c-0.1-0.5-0.7-0.5-1-0.3c-0.9,0.8-0.9,0.7-1.3,1.4c-0.2,0.3-0.1,0.6,0.2,0.8c0.1,0,0.1,0.1,0.2,0.1c0.2,0.1,0.5,0.1,0.7-0.1
							c0,0,0.1-0.1,0.1-0.1c0.3-0.3,0.1-0.8-0.3-1c-0.5-0.2-1.1-0.4-1.6-0.6c-0.6-0.2-1.1,0.8-0.5,1.1c0.2,0.1,0.4,0.2,0.6,0.3
							c0.2-0.4,0.3-0.7,0.5-1.1c-0.8-0.1-1.6-0.2-2.4-0.3c-0.6-0.1-1.1,0.8-0.5,1.1c0.2,0.1,0.5,0.2,0.7,0.3
							c0.1-0.4,0.2-0.7,0.3-1.1c-1-0.1-2.6,0-3.5,0.1c-0.9,0.1-0.8-0.2-1.5,0.5c-0.3,0.3-0.2,0.9,0.3,1c0.7,0.1,1.1,0.3,1.8,0
							c0.2-0.1,0.4-0.4,0.3-0.7c0-0.1-0.1-0.2-0.1-0.3c-0.1-0.3-0.4-0.5-0.7-0.4c-0.1,0-0.1,0-0.2,0.1c-0.7,0.2-0.4,1.3,0.3,1.2
							c1.5-0.4,2.6-1,3.7-2.2c-0.3,0-0.6-0.1-0.9-0.1c2.1,2.7,6.1-0.9,4-2.6c-0.2-0.2-0.5-0.2-0.7-0.1c-1.1,0.6-1.2,1.7-1,2.9
							c0.1,0.4,0.6,0.6,0.9,0.4c1-0.7,1.5-1.3,2-2.3c0.3-0.6-0.5-1.3-0.9-0.7c-0.8,0.9-1.1,1.5-1.1,2.7c0,0.6,0.8,0.8,1.1,0.3
							c0.5-0.9,0.5-0.8,0.5-1.9c0-0.5-0.7-0.8-1-0.4c-0.8,0.8-0.6,0.6-1.2,1.6C119.7,91.5,120.7,92.1,121.1,91.4L121.1,91.4z"/>
					</g>
				</g>
				<g>
					<g>
						<path class="st1" d="M74.9,87.1c-0.5-0.3-0.6-0.3-1.2-0.4c-0.5,0-0.8,0.7-0.4,1c0.9,0.8,1.7,1.6,2.4,2.5
							c0.1-0.3,0.3-0.7,0.4-1c-0.4-0.2-0.8-0.3-1.2-0.5c-0.5-0.4-1.3,0.5-0.7,0.9c0.8,0.6,1.5,1.2,2.2,1.9c0.2-0.3,0.4-0.7,0.6-1
							c-0.3-0.1-0.5-0.2-0.8-0.3c-0.7-0.4-1.2,0.6-0.6,1c0.3,0.2,0.5,0.4,0.8,0.5c0.2-0.3,0.4-0.7,0.6-1c-0.2-0.1-0.4-0.2-0.6-0.3
							c-0.7-0.4-1.2,0.6-0.6,1c0.6,0.4,1,0.8,1.4,1.3c0.4,0.5,1.2,0,1-0.6c-0.1-0.4-0.2-0.7-0.3-1.1c-0.3,0.2-0.7,0.4-1,0.6
							c0.3,0.4,0.7,0.7,1,1c0.4,0.3,1.2,0,1-0.6c-0.2-0.6-0.5-1.1-0.9-1.6c-0.3,0.3-0.6,0.6-0.8,0.8c0.1,0.2,0.3,0.4,0.4,0.6
							c0.3-0.3,0.5-0.5,0.8-0.8c-1.5-1-2.9-2-4.4-3c-0.6-0.4-1.2,0.5-0.7,0.9c0.9,0.9,1.8,1.8,2.7,2.7c0.2-0.3,0.5-0.6,0.7-0.9
							c-1.2-0.8-2.5-1.5-3.7-2.3c-0.7-0.4-1.3,0.6-0.6,1c0.9,0.5,1.7,1.1,2.6,1.6c0.7,0.4,1.2-0.6,0.6-1c-0.6-0.5-1.2-0.9-1.9-1.4
							c-0.2,0.4-0.3,0.7-0.5,1.1c0.6,0.3,1.2,0.5,1.8,0.9c0.6,0.4,1.1-0.4,0.7-0.9c-1-1.2-2-2.5-2.9-3.7c-0.3,0.3-0.6,0.6-0.8,0.8
							c1.1,1,2.1,1.9,3.2,2.9c0.5,0.4,1.4-0.2,0.9-0.7c-0.8-1.1-1.6-2.2-2.4-3.3c-0.3,0.2-0.6,0.5-0.9,0.7c1.2,1.1,2.2,2.2,3.1,3.5
							c0.3-0.2,0.6-0.5,0.9-0.7c-1-1.1-2-2.3-3-3.4c-0.2,0.3-0.5,0.6-0.7,0.9c0.9,0.7,1.7,1.5,2.5,2.4c0.3-0.3,0.6-0.6,0.8-0.8
							c-0.8-0.8-1.5-1.7-2.1-2.7c-0.3,0.2-0.6,0.5-0.9,0.7c0.9,1,1.7,2.1,2.4,3.2c0.3-0.2,0.7-0.4,1-0.6c-0.9-1.3-1.8-2.6-2.6-3.9
							c-0.2,0.3-0.5,0.6-0.7,0.9c0.9,0.3,1.6,1.7,2.2,2.4c0.3-0.2,0.6-0.5,0.9-0.7c-1-1.3-2-2.6-2.6-4.2c-0.3,0.2-0.6,0.5-0.9,0.7
							c0.8,0.5,1.4,1,1.9,1.8c0.4,0.7,1.4,0.1,1-0.6c-0.6-1-1.3-1.7-2.3-2.2c-0.4-0.2-1.1,0.2-0.9,0.7c0.7,1.8,1.7,3.2,2.9,4.7
							c0.4,0.5,1.3-0.2,0.9-0.7c-0.8-1.1-1.5-2.5-2.9-3c-0.5-0.2-1,0.5-0.7,0.9c0.9,1.3,1.8,2.6,2.6,3.9c0.4,0.6,1.4,0.1,1-0.6
							c-0.8-1.2-1.6-2.4-2.6-3.5c-0.5-0.5-1.3,0.1-0.9,0.7c0.6,1.1,1.4,2.1,2.2,3c0.5,0.6,1.3-0.3,0.8-0.8c-0.8-1-1.7-1.8-2.7-2.6
							c-0.6-0.4-1.1,0.5-0.7,0.9c1,1.1,2,2.3,3,3.4c0.4,0.5,1.3-0.2,0.9-0.7c-0.9-1.4-2-2.6-3.3-3.8c-0.5-0.4-1.4,0.1-0.9,0.7
							c0.8,1.1,1.6,2.2,2.4,3.3c0.3-0.2,0.6-0.5,0.9-0.7c-1.1-1-2.1-1.9-3.2-2.9c-0.6-0.5-1.3,0.3-0.8,0.8c1,1.2,2,2.5,2.9,3.7
							c0.2-0.3,0.5-0.6,0.7-0.9c-0.7-0.4-1.3-0.7-2-1c-0.7-0.3-1,0.7-0.5,1.1c0.6,0.5,1.2,0.9,1.9,1.4c0.2-0.3,0.4-0.7,0.6-1
							c-0.9-0.5-1.7-1.1-2.6-1.6c-0.2,0.3-0.4,0.7-0.6,1c1.2,0.8,2.5,1.5,3.7,2.3c0.6,0.4,1.2-0.5,0.7-0.9c-0.9-0.9-1.8-1.8-2.7-2.7
							c-0.2,0.3-0.5,0.6-0.7,0.9c1.5,1,2.9,2,4.4,3c0.5,0.4,1-0.3,0.8-0.8C78.4,91,78.4,91,78,90.7c-0.6-0.5-1.3,0.3-0.8,0.8
							c0.2,0.4,0.4,0.7,0.6,1.1c0.3-0.2,0.7-0.4,1-0.6c-0.4-0.3-0.7-0.6-1-1c-0.4-0.5-1.2,0-1,0.6c0.1,0.4,0.2,0.7,0.3,1.1
							c0.3-0.2,0.7-0.4,1-0.6c-0.5-0.6-1-1.1-1.6-1.5c-0.2,0.3-0.4,0.7-0.6,1c0.2,0.1,0.4,0.2,0.6,0.3c0.7,0.4,1.2-0.6,0.6-1
							c-0.3-0.2-0.5-0.4-0.8-0.5c-0.2,0.3-0.4,0.7-0.6,1c0.5,0.3,0.5,0.3,1.1,0.4c0.6,0.1,1-0.6,0.6-1c-0.7-0.7-1.4-1.3-2.2-1.9
							c-0.2,0.3-0.5,0.6-0.7,0.9c0.6,0.4,1.1,0.6,1.8,0.7c0.6,0.1,0.7-0.7,0.4-1c-0.7-0.9-1.5-1.7-2.4-2.5c-0.1,0.3-0.3,0.7-0.4,1
							c0.2,0.1,0.4,0.2,0.6,0.2C74.9,88.6,75.5,87.5,74.9,87.1L74.9,87.1z"/>
					</g>
				</g>
				<g>
					<g>
						<path class="st1" d="M89.4,31.7c-0.5,0.2-1,0.3-1.6,0.5c1.1,1.5,2.3,2.9,3.4,4.4c0.5-0.1,0.9-0.2,1.4-0.3
							c-1-0.3-1.9-0.5-2.9-0.8c0.9-0.8,1.7-1.5,2.6-2.3c-0.2,1.2-0.3,2.4-0.5,3.6c-1.2-0.4-2.4-0.8-3.6-1.1c0.5-0.9,1-1.7,1.5-2.6
							c0.8,0.9,1.5,1.8,2.3,2.7c-1,0.7-1.9,1.5-2.9,2.2c0.3,0,0.5,0,0.8,0c-0.9-0.5-1.7-1-2.6-1.5c1.2,0,2.4,0,3.6,0
							c-0.7,0.7-1.4,1.4-2.1,2.1c-0.1,0-0.3,0-0.4,0c-0.5-0.9-1-1.7-1.5-2.6c0-0.1,0-0.2,0-0.3c1-0.3,1.9-0.5,2.9-0.8
							c0.1,0.1,0.3,0.2,0.4,0.3c-0.2,1.2-0.3,2.4-0.5,3.6c-0.9,0-1.9-0.1-2.8-0.1c-0.3-1-0.5-1.9-0.8-2.9c-0.1,0.2-0.2,0.4-0.2,0.6
							c0.7-0.7,1.4-1.4,2.1-2.1c0.5,0.3,1.1,0.7,1.6,1c-1,1.3-1.9,2.5-2.9,3.8c0.1,0,0.2,0,0.3,0c-1-1-2-2-3-3c0,0.1,0,0.1,0,0.2
							c1.3-1,2.5-1.9,3.8-2.9c-7-1.6-11,3.8-15.2,8.7c-2.5,2.9,1.3,6.8,4.2,4.2c1.4-1.2,2.7-2.5,4-4c-1.6-1.2-3.1-2.4-4.7-3.6
							c-0.6,0.8-1.2,1.6-1.8,2.4c-2,2.7,2.5,6.2,4.7,3.6c1.6-1.9,3.2-3.5,5.2-5c-1.4-1.4-2.7-2.7-4.1-4.1c0.1,0,0.1,0,0.2,0
							c-2.7,2-1.2,6.3,2.3,5.5c0.7-0.1,1.3-0.3,2-0.4c3.3-0.7,2.6-5.9-0.8-5.9c-9.6,0.1-13.5,14.6-15.5,21.9
							C65.4,67,66.9,78.9,71,88.6c1.6-1.2,3.1-2.4,4.7-3.6c-5.7-4.6-6.9-14-6.4-20.8c0.5-8.3,3.6-15.8,10.6-20.5
							c3.2-2.2,0.2-7.4-3-5.2c-8.3,5.7-12.4,14.1-13.4,24.1c-0.9,8.7,0.7,20.9,8.1,26.7c2.7,2.2,6.1-0.5,4.7-3.6
							c-3.1-7.3-4.4-16.7-2.9-24.5c0.8-4.4,4.6-20.1,10.4-20.2c-0.3-2-0.5-3.9-0.8-5.9c-0.7,0.1-1.3,0.3-2,0.4
							c0.8,1.8,1.5,3.7,2.3,5.5c0.9-0.7,1.5-1.2,2-2.2c1.2-2.4-1.5-6.1-4.1-4.1c-2.4,1.8-4.5,3.7-6.4,6c1.6,1.2,3.1,2.4,4.7,3.6
							c0.6-0.8,1.2-1.6,1.8-2.4c2-2.7-2.5-6.2-4.7-3.6c-1.2,1.4-2.6,2.7-4,4c1.4,1.4,2.8,2.8,4.2,4.2c2-2.3,5.8-7.9,9.3-7.1
							c1.9,0.4,3.8-0.9,3.8-2.9c0-0.1,0-0.1,0-0.2c0-1.7-1.4-2.9-3-3c-0.1,0-0.2,0-0.3,0c-2-0.1-3.4,2-2.9,3.8
							c1.2,4.3,6.5,4.5,8.1,0.5c0.4-1-0.1-2.2-0.8-2.9c-1.6-1.7-4.2-1.7-5.7,0.1c-0.9,1.1-1.1,2.3-0.5,3.6c2,4.2,8.5,2.6,7.9-2.2
							c-0.5-4-6.3-4.9-7.8-1.1c-1.5,3.7,2.8,6.8,6,4.8c3.6-2.2,2.5-7.9-2-7.6c-1.4,0.1-2.4,0.9-2.9,2.2c-1.8,4.7,5.3,7,7.6,3
							c2.4-4.1-3.2-8.3-6.2-4.6c-0.9,1.1-1.1,2.3-0.5,3.6c2.1,4.7,10.1,2,8.3-3c-1.6-4.6-8.6-2.8-7.4,2c1.3,4.9,8.1,2.4,8-2.1
							c-0.2-6.6-8-2.8-9.9,0.4c-1.3,2.2,0.9,5.2,3.4,4.4c0.5-0.2,1-0.3,1.6-0.5C94.6,36.4,93.1,30.6,89.4,31.7L89.4,31.7z"/>
					</g>
				</g>
				<g>
					<g>
						<path class="st1" d="M69.5,60.3c-0.5-3.6,1.6-6.9,3-10.1c1.5-3.5-3.1-6.4-5.2-3c-1,1.6-1.7,3.2-2.3,4.9
							c1.9,0.5,3.9,1.1,5.8,1.6c0.9-3.1,2.6-5.5,4.5-8.1c2.2-2.9-2.3-5.7-4.7-3.6c-1.2,1-2.1,1.9-3.1,3.1c1.6,1.2,3.1,2.4,4.7,3.6
							c3.7-6.3,8.5-11.4,14.7-15.3c-1.2-1.6-2.4-3.1-3.6-4.7c-4,4.1-11.6,10.6-12.4,16.6c-0.4,2.7,2.8,5.4,5,2.9
							c1.3-1.5,2.5-2.9,3.6-4.6c-1.7-1-3.5-2-5.2-3c-0.8,1.7-1.7,3.3-2.7,4.9c-2.1,3.4,2.9,6,5.2,3c1.9-2.5,3.7-4.9,5.6-7.4
							c2.1-2.8-2.4-6-4.7-3.6c-2.5,2.6-4.5,5.3-6.2,8.4c1.8,0.8,3.7,1.5,5.5,2.3c1.4-3.8,3.4-6.9,6.2-9.8c2.3-2.4-0.7-6.6-3.6-4.7
							c-1.1,0.7-2.1,1.4-3.2,2.1c1.4,1.4,2.7,2.7,4.1,4.1c0.9-2,1.9-3.5,3.8-4.7c-1.2-1.6-2.4-3.1-3.6-4.7c-1.1,1.3-2.1,2.3-3.6,3.3
							c1.4,1.4,2.7,2.7,4.1,4.1c3.3-6.2,11.3-9.6,18-9.7c1.3,0,9.4-0.2,9.6,1.8c-0.1-1-8.8,2-9.1,1.7c0.2,1.2,0.3,2.4,0.5,3.6
							c-0.1,0-0.1,0.1-0.2,0.1c-0.5-0.9-1-1.7-1.5-2.6c0.1-1-6.2,2.5-1.3,2c-0.7-1.7-1.4-3.4-2.1-5.1c-0.7,0.9-1.5,1.6-2.5,2.2
							c1,2.4,2.3,2.7,4,1.1c-1-1.7-1.9-3.3-2.9-5c-1.2,1.5-2.8,2.1-4.7,2c1,1.3,1.9,2.5,2.9,3.8c0-0.1,11.5-1.8,12.3-1.6
							c0.3-2,0.5-3.9,0.8-5.9c-2.2-0.2-3.7,0.3-5.5,1.4c-2.6,1.7-1.4,5.4,1.5,5.6c2.7,0.2,5-0.1,7.6-0.9c-1.1-1.5-2.3-2.9-3.4-4.4
							c-1.4,2.5-8.9,2.9-11.4,3.6c-3.3,0.9-6.1,2.3-8.6,4.6c-1.6,1.4-0.9,4.6,1.3,5c7.9,1.4,15.4-0.1,23.2-1.3
							c-0.8-1.8-1.5-3.7-2.3-5.5c-1.2,0.9-2.5,1.2-4,0.9c0.3,2,0.5,3.9,0.8,5.9c3.7-0.7,7.3-1.4,11-2.1c-0.8-1.8-1.5-3.7-2.3-5.5
							c-1.5,1.1-2.7,1.6-4.6,1.8c0.5,1.9,1.1,3.9,1.6,5.8c2.8-0.8,5.5-1.9,8.2-3.1c2.3-1.1,1.6-4,0-5.2c-3-2.2-1.7-6.6-5.3-8.5
							c-0.8,1.8-1.5,3.7-2.3,5.5c4.2,1.6,7.5,4.2,10.3,7.7c1.4-1.4,2.8-2.8,4.2-4.2c-2.1-2.1-4.2-4.3-6.3-6.4c-1,1.7-1.9,3.3-2.9,5
							c5.7,1.1,8.1,6.6,9.9,11.3c1,2.8,2.4,7.1,4.5,9.1c2.8,2.7,6.8-1.4,4.2-4.2c-3.9-4.5-8-8.7-12.3-12.8c-1,1.7-1.9,3.3-2.9,5
							c1,0.4,2.3,3.2,2.8,3.9c1,1.6,2,3.1,3,4.7c2.1,3.3,3.7,6.5,4.5,10.3c1.8-0.8,3.7-1.5,5.5-2.3c-1.5-2.8-1.2-6.2-1.6-9.3
							c-0.4-2.9-1.1-5.5-2.2-8.2c-1.8,0.8-3.7,1.5-5.5,2.3c1.3,2.4,2.6,4.8,3.9,7.2c1.6,2.9,6.8,0.9,5.5-2.3
							c-0.9-2.2-1.9-4.3-3.1-6.3c-1.7,1-3.5,2-5.2,3c2,3,3.2,6,3.5,9.6c0.3,3.8,5.9,3.9,6,0c0-1.5,0.1-3,0.1-4.5
							c-2,0.3-3.9,0.5-5.9,0.8c0.2,0.5,0.4,1,0.6,1.5c1.4,3.5,7.2,2,5.8-1.6c-0.2-0.5-0.4-1-0.6-1.5c-1.2-3-5.8-2.8-5.9,0.8
							c0,1.5-0.1,3-0.1,4.5c2,0,4,0,6,0c-0.4-4.7-1.7-8.7-4.3-12.6c-2.1-3.2-7.2-0.3-5.2,3c0.9,1.6,1.8,3.1,2.5,4.9
							c1.8-0.8,3.7-1.5,5.5-2.3c-1.3-2.4-2.6-4.8-3.9-7.2c-1.6-2.9-6.8-0.9-5.5,2.3c2.4,6.1,1.3,13.2,4.4,18.9
							c1.7,3.1,6.1,0.9,5.5-2.3c-1-5.2-3.7-9.6-6.5-14c-2.2-3.4-3.9-7.6-7.9-9.1c-2.9-1-5,3-2.9,5c4.3,4.1,8.3,8.4,12.3,12.8
							c1.4-1.4,2.8-2.8,4.2-4.2c-1-0.9-1.9-4.3-2.6-5.7c-1.3-2.7-1.6-5.6-3.3-8.1c-2.4-3.4-7-7.4-11.2-8.2c-2.8-0.5-5.1,2.8-2.9,5
							c2.1,2.1,4.2,4.3,6.3,6.4c2.8,2.8,6.6-1.3,4.2-4.2c-3.5-4.3-7.8-7.3-13-9.3c-3.2-1.2-5.3,3.9-2.3,5.5c0.6,0.3,1,4.1,1.5,4.9
							c0.9,1.5,2.4,2.6,3.8,3.6c0-1.7,0-3.5,0-5.2c-2.2,1-4.4,1.9-6.7,2.5c-3.8,1.1-2.1,6.3,1.6,5.8c2.3-0.3,4.1-1.1,6-2.5
							c2.7-2,1.1-6.2-2.3-5.5c-3.7,0.7-7.3,1.4-11,2.1c-3.5,0.7-2.4,5.7,0.8,5.9c2.6,0.2,4.8-0.4,7-1.7c3.1-1.9,0.9-6-2.3-5.5
							c-6.7,1-13.3,2.5-20,1.3c0.4,1.7,0.9,3.3,1.3,5c5.5-4.9,17.2-2.6,21-9.4c1.2-2.2-0.8-5.2-3.4-4.4c-2,0.6-3.8,0.8-6,0.7
							c0.5,1.9,1,3.7,1.5,5.6c0.8-0.2,1.7-0.4,2.5-0.6c3.3,0.3,4.2-5.4,0.8-5.9c-4.8-0.7-8.7,1.1-13.5,1.7c-3,0.4-5.4,0.8-6.2,4.2
							c-0.5,2,0.9,3.6,2.9,3.8c3.5,0.3,6.6-1,8.9-3.7c1.7-2,0.2-6.2-2.9-5c-3.4,1.3-9.9,5.1-7.1,9.7c2.8,4.5,9.2-0.4,11.4-3
							c1.6-1.7,0.6-5.4-2.1-5.1c-2.7,0.3-5.6,0.8-7,3.4c-1.2,2.2-0.8,4.9,1.1,6.5c4.2,3.4,12.9-0.8,13.2-5.9c0.1-1-0.6-2.1-1.5-2.6
							c-2.8-1.5-6.4-1-8,2.1c-0.6,1.2-0.5,2.7,0.5,3.6c3.3,3.3,12.1,0.6,15.6-1.2c5-2.7,4.6-7.9-0.2-10.6c-10.9-6-29-0.1-34.8,10.7
							c-1.3,2.5,1.5,5.8,4.1,4.1c1.8-1.2,3.4-2.5,4.8-4.2c2-2.4-0.6-6.8-3.6-4.7c-2.7,1.9-4.6,3.9-5.9,6.9c-1.1,2.5,1.4,5.9,4.1,4.1
							c1.1-0.7,2.1-1.4,3.2-2.1c-1.2-1.6-2.4-3.1-3.6-4.7c-3.5,3.7-6,7.7-7.7,12.5c-1.2,3.2,3.9,5.3,5.5,2.3c1.5-2.7,3.2-5,5.3-7.2
							c-1.6-1.2-3.1-2.4-4.7-3.6c-1.9,2.5-3.7,4.9-5.6,7.4c1.7,1,3.5,2,5.2,3c1-1.6,1.9-3.2,2.7-4.9c1.7-3.5-3-6.2-5.2-3
							c-0.8,1.2-1.6,2.3-2.6,3.3c1.7,1,3.3,1.9,5,2.9C77.4,42,84.2,36.4,87.6,33c2.3-2.4-0.7-6.6-3.6-4.7
							c-7,4.4-12.7,10.3-16.9,17.4c-1.7,2.9,2.5,6.3,4.7,3.6c1-1.2,1.9-2.1,3.1-3.1c-1.6-1.2-3.1-2.4-4.7-3.6
							c-2.3,3-4.1,5.8-5.1,9.5c-1.1,3.8,4.4,5.1,5.8,1.6c0.4-1.2,1-2.4,1.7-3.5c-1.7-1-3.5-2-5.2-3c-1.8,4.2-4.5,8.4-3.9,13.1
							C64,64,70,64.1,69.5,60.3L69.5,60.3z"/>
					</g>
				</g>
				<g>
					<g>
						<path class="st1" d="M126.3,91.1c3.9,0,3.9-6,0-6C122.4,85.1,122.4,91.1,126.3,91.1L126.3,91.1z"/>
					</g>
				</g>
				<g>
					<g>
						<path class="st1" d="M123.5,85.6c-0.9,1.3-2,1.9-3.5,1.9c-2.9,0.4-2.8,5.3,0,5.8c8.9,1.5,13.5-9.2,16.4-16.1
							c3.8-9.2,2.8-17.8,0-27.1c-0.7-2.3-3.3-2.8-5-1.3c-3,2.5-3.8,6.2-3.3,10c0.4,2.9,1.3,5.6,1.1,8.6c-0.2,3.4-0.9,6.8-1.4,10.1
							c-0.4,2.7,2.7,5.3,5,2.9c4.3-4.5,4.4-12.4,5.1-18.2c0.8-6.1,0.9-11.7-3.1-16.7c-2.4-3-6.6,1.2-4.2,4.2
							c2.7,3.5,1.8,8.4,1.3,12.5c-0.5,3.9-0.5,11-3.3,14c1.7,1,3.3,1.9,5,2.9c0.7-4.3,1.9-8.9,1.8-13.3c-0.1-4-3.4-9.7,0.3-12.8
							c-1.7-0.4-3.3-0.9-5-1.3c2,6.5,3.1,12.4,1.5,19.1c-0.7,3.1-5.9,17.5-10.5,16.7c0,1.9,0,3.9,0,5.8c3.2-0.5,5.3-2.1,7-4.7
							C130.8,85.4,125.6,82.4,123.5,85.6L123.5,85.6z"/>
					</g>
				</g>
			</g>
		</g>
		<g>
			<g>
				<g>
					<path class="st2" d="M77.3,92.6c-3.2-1.8-6.6-3.6-8.7-6.7c-2.2-3.2-2.9-7.4-3.7-11.1c-1.6-7.4-1.7-14.9,0.4-22.3
						c2-7.1,5.9-13.5,11.2-18.6c4.9-4.7,14.1-11.5,21.4-10c0.8,0.1,1.1-1,0.3-1.2c-6.8-1.3-14.6,3.7-19.6,7.8
						c-6.5,5.2-11.4,12.2-14,20.1c-2.6,8-2.6,16.3-0.9,24.5c0.9,4.3,1.8,9.1,4.7,12.5c2.2,2.7,5.3,4.4,8.3,6
						C77.4,94,78,93,77.3,92.6L77.3,92.6z"/>
				</g>
			</g>
			<g>
				<g>
					<path class="st2" d="M75.6,93.1c1.4,0.9,2.9,1.5,4.5,1.9c0.6,0.1,1-0.6,0.6-1c-2.5-2.6-3.7-6.1-4.8-9.5
						c-0.2-0.7-1.4-0.4-1.2,0.3c1.2,3.6,2.4,7.2,5.1,10c0.2-0.3,0.4-0.7,0.6-1c-1.5-0.4-2.9-1-4.2-1.8C75.6,91.6,75,92.6,75.6,93.1
						L75.6,93.1z"/>
				</g>
			</g>
			<g>
				<g>
					<path class="st2" d="M83.8,39.6c-10.1,10-12.8,24-11.3,37.7c0.1,0.8,1.3,0.8,1.2,0c-1.5-13.4,1.1-27.1,11-36.9
						C85.2,39.9,84.3,39,83.8,39.6L83.8,39.6z"/>
				</g>
			</g>
			<g>
				<g>
					<path class="st2" d="M77.8,91.5c1.1,0.7,2,1.5,2.9,2.4c0.3,0.3,0.9,0.2,1-0.3c0-0.3,0.1-0.5,0.1-0.8c-0.3,0.1-0.6,0.2-0.9,0.4
						c0.5,0.2,1,0.5,1.5,0.7c0.4,0.2,1,0,0.9-0.5c0-0.2,0-0.4-0.1-0.6c-0.3,0.2-0.6,0.3-0.9,0.5c0.7,0.3,1.3,0.7,1.9,1.2
						c0.3,0.2,0.7,0.1,0.8-0.2c-0.1,0.3,3.7,1.3,3.8,1.3c0.7,0.2,1.1-1,0.3-1.2c-1.1-0.3-2-0.5-2.9-1c-0.4-0.2-0.5-0.4-1-0.4
						c-0.6,0-0.9,0.2-1.2,0.7c0.3-0.1,0.5-0.1,0.8-0.2c-0.6-0.5-1.2-0.8-1.9-1.2c-0.4-0.2-1,0-0.9,0.5c0,0.2,0,0.4,0.1,0.6
						c0.3-0.2,0.6-0.3,0.9-0.5c-0.5-0.2-1-0.5-1.5-0.7c-0.3-0.1-0.8-0.1-0.9,0.4c0,0.3-0.1,0.5-0.1,0.8c0.3-0.1,0.7-0.2,1-0.3
						c-1-1-2-1.9-3.2-2.6C77.8,90,77.2,91,77.8,91.5L77.8,91.5z"/>
				</g>
			</g>
			<g>
				<g>
					<path class="st2" d="M94.7,23.7c8.3-1.6,18.5,0,25.7,4.7c6.6,4.3,13.4,13.4,15.8,20.8c2.4,7.3,3,19.7-0.4,26.5
						c-3.4,6.8-7.3,15.9-14.2,19.6c0.3,0.2,0.6,0.5,0.9,0.7c1.4-3.7,3.1-7.2,4.9-10.7c0.4-0.7-0.7-1.3-1-0.6c-1.9,3.6-3.5,7.2-5,11
						c-0.2,0.5,0.5,0.9,0.9,0.7c7.5-4,12.1-14.1,15.4-21.5c1.9-4.3,1.4-8.9,1.3-13.5c-0.2-4.7-0.4-9.5-2.1-14
						c-2.8-7.1-9.3-15.8-15.8-20c-7.5-4.8-18-6.5-26.6-4.8C93.6,22.7,94,23.8,94.7,23.7L94.7,23.7z"/>
				</g>
			</g>
			<g>
				<g>
					<path class="st2" d="M116.6,38.9c11.1,10.6,14.3,23.6,11.1,38.5c-0.2,0.8,1,1.1,1.2,0.3c3.3-15.4,0-28.8-11.4-39.7
						C116.9,37.5,116.1,38.4,116.6,38.9L116.6,38.9z"/>
				</g>
			</g>
			<g>
				<g>
					<path class="st2" d="M82.7,41.2c-0.1,0.8,0,1.5,0.4,2.2c0.4,0.7,1.4,0.1,1-0.6c-0.2-0.4-0.3-0.8-0.3-1.3
						C83.9,40.8,82.8,40.5,82.7,41.2L82.7,41.2z"/>
				</g>
			</g>
			<g>
				<g>
					<path class="st2" d="M84.2,43.8c0.8-0.2,1.5-0.5,2.3-0.7c0.7-0.2,0.4-1.4-0.3-1.2c-0.8,0.2-1.5,0.5-2.3,0.7
						C83.2,42.9,83.5,44.1,84.2,43.8L84.2,43.8z"/>
				</g>
			</g>
			<g>
				<g>
					<path class="st2" d="M86.4,43.4c1,0.4,2.1,0.3,2.8-0.5c0.6-0.5-0.3-1.4-0.8-0.8c-0.4,0.3-0.9,0.5-1.4,0.3
						c-0.3-0.1-0.6-0.1-0.8,0.2C86,42.8,86.1,43.3,86.4,43.4L86.4,43.4z"/>
				</g>
			</g>
			<g>
				<g>
					<path class="st2" d="M88.8,42.8c0.6,0.5,1.2,1,2,1c0.6,0,1.3-0.3,1.6-0.9c0.4-0.7-0.7-1.3-1-0.6c-0.4,0.7-1.3-0.1-1.6-0.4
						C89,41.4,88.2,42.2,88.8,42.8L88.8,42.8z"/>
				</g>
			</g>
			<g>
				<g>
					<path class="st2" d="M92.4,43.3c0.6-0.1,1,0.2,1.2,0.7c0.3,0.7,1.4,0.1,1-0.6c-0.4-0.8-1.3-1.4-2.3-1.3
						C91.7,42.1,91.7,43.3,92.4,43.3L92.4,43.3z"/>
				</g>
			</g>
			<g>
				<g>
					<path class="st2" d="M95,44.4c0.6-0.3,1.1-0.7,1.6-1.2c0.6-0.5-0.3-1.4-0.8-0.8c-0.4,0.4-0.9,0.7-1.4,1
						C93.7,43.7,94.3,44.8,95,44.4L95,44.4z"/>
				</g>
			</g>
			<g>
				<g>
					<path class="st2" d="M96.5,43.3c0.8,0.2,1.5,0.5,2.3,0.7c0.7,0.2,1.1-0.9,0.3-1.2c-0.8-0.2-1.5-0.5-2.3-0.7
						C96.1,41.9,95.8,43.1,96.5,43.3L96.5,43.3z"/>
				</g>
			</g>
			<g>
				<g>
					<path class="st2" d="M99.9,43.9c0.6-0.3,1.2-0.6,1.7-0.9c0.7-0.4,0.1-1.4-0.6-1c-0.6,0.3-1.2,0.6-1.7,0.9
						C98.6,43.3,99.2,44.3,99.9,43.9L99.9,43.9z"/>
				</g>
			</g>
			<g>
				<g>
					<path class="st2" d="M101.7,43c0.2,0,0.5,0,0.7,0.1c0.7,0.2,1.1-0.9,0.3-1.2c-0.4-0.1-0.9-0.1-1.3-0.1
						C100.6,42,100.9,43.2,101.7,43L101.7,43z"/>
				</g>
			</g>
			<g>
				<g>
					<path class="st2" d="M102.8,43.2c0.3,0.3,0.7,0.6,1.1,0.7c0.8,0.2,1.1-1,0.3-1.2c-0.3-0.1-0.4-0.2-0.6-0.3
						C103.1,41.8,102.2,42.6,102.8,43.2L102.8,43.2z"/>
				</g>
			</g>
			<g>
				<g>
					<path class="st2" d="M104.8,44c0.3-0.1,0.5-0.2,0.8-0.4c0.7-0.3,0.1-1.4-0.6-1c-0.3,0.1-0.5,0.2-0.8,0.4
						C103.5,43.3,104.1,44.3,104.8,44L104.8,44z"/>
				</g>
			</g>
			<g>
				<g>
					<path class="st2" d="M106.4,43.2c0.3-0.2,0.7-0.3,1-0.5c0.7-0.3,0.1-1.4-0.6-1c-0.3,0.2-0.7,0.3-1,0.5
						C105.1,42.5,105.7,43.5,106.4,43.2L106.4,43.2z"/>
				</g>
			</g>
			<g>
				<g>
					<path class="st2" d="M107,42.7c0.7,0.2,1.3,0.4,2,0.6c0.7,0.2,1.1-0.9,0.3-1.2c-0.7-0.2-1.3-0.4-2-0.6
						C106.6,41.4,106.3,42.5,107,42.7L107,42.7z"/>
				</g>
			</g>
			<g>
				<g>
					<path class="st2" d="M109.4,43.5c0.3,0,0.7,0,1,0c0.8,0,0.8-1.2,0-1.2c-0.3,0-0.7,0-1,0C108.7,42.3,108.7,43.5,109.4,43.5
						L109.4,43.5z"/>
				</g>
			</g>
			<g>
				<g>
					<path class="st2" d="M111.1,43.3c0.5-0.2,1-0.3,1.5-0.3c0.8,0,0.8-1.2,0-1.2c-0.6,0-1.2,0.1-1.8,0.3
						C110,42.4,110.3,43.6,111.1,43.3L111.1,43.3z"/>
				</g>
			</g>
			<g>
				<g>
					<path class="st2" d="M113.3,42.8c0.3-0.2,0.5-0.4,0.8-0.6c0.6-0.5-0.2-1.3-0.8-0.8c-0.3,0.2-0.5,0.4-0.8,0.6
						C111.9,42.4,112.7,43.3,113.3,42.8L113.3,42.8z"/>
				</g>
			</g>
			<g>
				<g>
					<path class="st2" d="M113.9,42.2c0.3-0.2,0.7-0.3,1-0.5c0.7-0.3,0.1-1.4-0.6-1c-0.3,0.2-0.7,0.3-1,0.5
						C112.6,41.5,113.2,42.5,113.9,42.2L113.9,42.2z"/>
				</g>
			</g>
			<g>
				<g>
					<path class="st2" d="M114.7,41.8c0.3-0.1,0.6,0,0.9,0.2c0.7,0.4,1.3-0.6,0.6-1c-0.6-0.3-1.2-0.4-1.8-0.3
						C113.6,40.8,114,42,114.7,41.8L114.7,41.8z"/>
				</g>
			</g>
			<g>
				<g>
					<path class="st2" d="M116.1,42.2c0.2,0.1,0.4,0.2,0.6,0.4c0.7,0.4,1.3-0.6,0.6-1c-0.2-0.1-0.4-0.2-0.6-0.4
						C116.1,40.7,115.5,41.8,116.1,42.2L116.1,42.2z"/>
				</g>
			</g>
			<g>
				<g>
					<path class="st2" d="M117.6,42.8c0.3-0.1,0.7-0.2,1-0.3c0.7-0.2,0.4-1.3-0.3-1.2c-0.3,0.1-0.7,0.2-1,0.3
						C116.5,41.9,116.8,43,117.6,42.8L117.6,42.8z"/>
				</g>
			</g>
			<g>
				<g>
					<path class="st2" d="M119,42.5c0.1,0,0.2-0.1,0.2-0.1c0.7-0.3,0.1-1.4-0.6-1c-0.1,0-0.2,0.1-0.2,0.1
						C117.7,41.8,118.3,42.9,119,42.5L119,42.5z"/>
				</g>
			</g>
			<g>
				<g>
					<path class="st2" d="M120.4,94.8c0.2-0.4,0.7-0.6,1-0.3c0.6,0.5,1.4-0.4,0.8-0.8c-0.9-0.7-2.4-0.6-2.9,0.6
						C119,94.9,120,95.5,120.4,94.8L120.4,94.8z"/>
				</g>
			</g>
			<g>
				<g>
					<path class="st2" d="M111.9,95.5c0.4-1,1.3-0.7,2.1-0.7c0.1-0.1,0.3-0.2,0.4-0.3c0.2,0,0.4,0.1,0.6,0.3c0.2,0,0.5,0.2,0.7,0.2
						c0.7-0.1,0.9-0.8,1.4-0.9c-0.1,0,1.9,0.4,1.8,0.3c0.3,0.3,0.7,0.2,0.9-0.1c0.4,0.1,0.8,0.1,1.3,0.2c0.7,0.4,1.3-0.7,0.6-1
						c-1.1-0.6-2.1-0.9-2.9,0.3c0.3,0,0.6-0.1,0.9-0.1c-0.3-0.3-0.6-0.5-1-0.5c-0.5-0.1-0.7,0-1.1-0.1c-1.1-0.2-0.9-0.1-1.8,0.4
						c-0.4,0.2-0.1,0.2-0.6,0.2c-0.1,0-0.5-0.3-0.6-0.3c-0.4,0-0.7,0.2-1.1,0.2c-1.5,0.1-2-0.1-2.7,1.5
						C110.5,95.5,111.6,96.2,111.9,95.5L111.9,95.5z"/>
				</g>
			</g>
		</g>
	</g>
	<g>
		<g>
			<path class="st1" d="M77.2,49.4c0.7-0.9,1.3-1.9,1.7-3c0.3-0.7-0.9-1-1.2-0.3c-0.3,0.9-0.8,1.7-1.4,2.4
				C75.8,49.1,76.7,50,77.2,49.4L77.2,49.4z"/>
		</g>
	</g>
	<g>
		<g>
			<path class="st1" d="M84.2,41.5c-0.1,0.2-0.2,0.4-0.4,0.5c0.3,0,0.6,0.1,0.9,0.1c0-0.1-0.1-0.1-0.1-0.2c0.1-0.8-1-1.1-1.2-0.3
				c-0.1,0.4,0,0.7,0.2,1.1c0.2,0.3,0.7,0.4,0.9,0.1c0.2-0.2,0.4-0.5,0.6-0.8C85.6,41.4,84.5,40.8,84.2,41.5L84.2,41.5z"/>
		</g>
	</g>
	<g>
		<g>
			<path class="st1" d="M96,42c0-0.8,0.1-1.5,0.5-2.2c0.3-0.7-0.7-1.3-1-0.6c-0.4,0.9-0.7,1.8-0.6,2.8C94.8,42.8,96,42.8,96,42
				L96,42z"/>
		</g>
	</g>
	<g>
		<g>
			<path class="st1" d="M119,92.5c0,0-0.3,0-0.3,0c-0.2-0.1-0.3-0.3-0.5-0.4c-0.6-0.5-1.4,0.3-0.8,0.8c0.5,0.5,1.1,1,1.9,0.8
				c0.7-0.2,1.2-0.8,1-1.5C119.9,91.5,118.8,91.8,119,92.5L119,92.5z"/>
		</g>
	</g>
	<g>
		<g>
			<path class="st1" d="M112.5,92.5c0,0.1-0.1,0.2-0.1,0.2c-0.3,0.7,0.7,1.3,1,0.6c0-0.1,0.1-0.2,0.1-0.2
				C113.9,92.4,112.9,91.8,112.5,92.5L112.5,92.5z"/>
		</g>
	</g>
	<g>
		<g>
			<path class="st1" d="M129.2,79.3c-0.3-0.1-0.6-0.1-0.9,0c-0.7,0.2-0.4,1.4,0.3,1.2c0.1-0.1,0.2-0.1,0.3,0
				C129.6,80.7,130,79.5,129.2,79.3L129.2,79.3z"/>
		</g>
	</g>
	<g>
		<g>
			<path class="st1" d="M85.8,93c0-0.6-0.2-1.2-0.7-1.5c-0.6-0.5-1.4,0.4-0.8,0.8c0.2,0.2,0.3,0.4,0.3,0.7
				C84.5,93.8,85.7,93.8,85.8,93L85.8,93z"/>
		</g>
	</g>
	<g>
		<g>
			<path class="st1" d="M77.4,93c0.8,0,0.8-1.2,0-1.2C76.7,91.8,76.7,93,77.4,93L77.4,93z"/>
		</g>
	</g>
	<g>
		<g>
			<path class="st1" d="M78.6,93.4c0.8,0,0.8-1.2,0-1.2C77.8,92.2,77.8,93.4,78.6,93.4L78.6,93.4z"/>
		</g>
	</g>
</g>
</svg>
