<?xml version="1.0" encoding="utf-8"?>
<!-- Generator: Adobe Illustrator 21.0.2, SVG Export Plug-In . SVG Version: 6.00 Build 0)  -->
<svg version="1.1" id="Layer_1" xmlns="http://www.w3.org/2000/svg" xmlns:xlink="http://www.w3.org/1999/xlink" x="0px" y="0px"
	 viewBox="0 0 200 600" style="enable-background:new 0 0 200 600;" xml:space="preserve">
<style type="text/css">
	.st0{fill:#FFE329;}
	.st1{fill:#F9EE53;}
	.st2{fill:#010101;}
</style>
<g>
	<g>
		<g>
			<g>
				<path class="st0" d="M98.2,30.4c-0.1-0.1-0.2-0.3-0.3-0.4c-0.7,2.7-1.4,5.5-2.2,8.2c0.2-0.1,0.4-0.2,0.7-0.3c-2,0-4,0-6.1,0
					c0.2,0.1,0.4,0.3,0.6,0.4c-0.9-2.3-1.8-4.5-2.8-6.8c-0.1,0.2-0.1,0.5-0.2,0.7c1.4-1.4,2.8-2.8,4.2-4.2c-0.2,0.1-0.5,0.2-0.7,0.2
					c2.5,1.4,4.9,2.8,7.4,4.2c-0.1-0.2-0.1-0.3-0.2-0.5c-0.2,1.5-0.4,3.1-0.6,4.6c0.1-0.2,0.2-0.3,0.3-0.5c-1.2,0.9-2.4,1.8-3.6,2.8
					c-1.1-0.2-2.2-0.4-3.3-0.6c-0.5-1.9-1-3.9-1.5-5.8c0,0.3-0.1,0.6-0.1,0.9c0.9-1.2,1.8-2.4,2.8-3.6c-0.3,0.1-0.5,0.3-0.8,0.4
					c2,0,4,0,6.1,0c-0.2-0.1-0.4-0.2-0.6-0.4c0.9,1.2,1.8,2.4,2.8,3.6c0,0.6,0.1,1.1,0.1,1.7c-0.9,1.2-1.8,2.4-2.8,3.6
					c-1.4-0.5-2.7-1-4.1-1.4c-0.2-1.5-0.4-3.1-0.6-4.6c-0.1,0.2-0.1,0.5-0.2,0.7c1.4-1.4,2.8-2.8,4.2-4.2c-0.3,0.1-0.5,0.1-0.8,0.2
					c1.9,0.5,3.9,1,5.8,1.5c-0.2-0.2-0.5-0.4-0.7-0.5c0.6,1.4,1.2,2.8,1.8,4.2c-2.1,1.1-4.1,2.2-6.2,3.3c-0.6-1.4-1.2-2.8-1.8-4.2
					c0.1-0.6,0.3-1.2,0.4-1.8c1.2-0.9,2.4-1.8,3.6-2.8c-0.2,0-0.4,0.1-0.6,0.1c1.9,0.5,3.9,1,5.8,1.5c-0.2-0.2-0.3-0.3-0.5-0.5
					c0.6,1.4,1.2,2.8,1.8,4.2c0-0.2,0-0.5,0-0.7c-0.6,1.4-1.2,2.8-1.8,4.2c-0.9,0.1-1.9,0.2-2.8,0.3c-1.2-0.9-2.4-1.8-3.6-2.8
					c0.2,0.3,0.4,0.6,0.6,0.9c-0.2-1.5-0.4-3.1-0.6-4.6c-0.1,0.3-0.2,0.7-0.3,1c1.4-1.4,2.8-2.8,4.2-4.2c-0.2,0-0.4,0.1-0.6,0.1
					c1.9,0.5,3.9,1,5.8,1.5c-0.1-0.1-0.2-0.2-0.3-0.4c0.6,1.4,1.2,2.8,1.8,4.2c0-0.2,0-0.3,0-0.5c-0.6,1.4-1.2,2.8-1.8,4.2
					c-0.9,0.3-1.8,0.6-2.7,1c-1.4-1.4-2.8-2.8-4.2-4.2c0-0.6,0-1.1,0-1.7c1.4-1.4,2.8-2.8,4.2-4.2c-0.2,0.1-0.5,0.2-0.7,0.3
					c1.9,0.5,3.9,1,5.8,1.5c-0.2-0.2-0.4-0.5-0.6-0.7c0.5,1.9,1,3.9,1.5,5.8c0.1-0.3,0.2-0.7,0.4-1c-1.4,1.4-2.8,2.8-4.2,4.2
					c-0.9-0.3-1.8-0.6-2.7-0.8c-0.6-1.4-1.2-2.8-1.8-4.2c0,0.2,0,0.5,0,0.7c0.6-1.4,1.2-2.8,1.8-4.2c-0.2,0.1-0.3,0.3-0.5,0.4
					c3.1,0.4,6.3,0.8,9.4,1.2c-0.1-0.2-0.3-0.5-0.4-0.7c0.2,1.5,0.4,3.1,0.6,4.6c0.1-0.3,0.2-0.6,0.3-0.8c-0.9,1.2-1.8,2.4-2.8,3.6
					c-1.4-0.3-2.8-0.6-4.2-0.8c-0.5-1.9-1-3.9-1.5-5.8c0,0.2-0.1,0.4-0.1,0.5c0.9-1.2,1.8-2.4,2.8-3.6c-0.2,0.1-0.3,0.2-0.5,0.3
					c2,0,4,0,6.1,0c-0.1-0.1-0.3-0.1-0.4-0.2c1,1.7,2,3.5,3,5.2c0-0.2,0-0.4,0-0.6c-0.6,1.4-1.2,2.8-1.8,4.2
					c0.3-0.2,0.5-0.4,0.8-0.6c-1.4,0.6-2.8,1.2-4.2,1.8c0.3,0,0.6,0.1,1,0.1c-1.7-1-3.5-2-5.2-3c0.2,0.3,0.3,0.6,0.5,0.8
					c-0.2-1.5-0.4-3.1-0.6-4.6c-0.1,0.3-0.2,0.6-0.2,0.9c3.9,1.1,7.7,2.1,11.6,3.2c0.1-0.3,0.1-0.6,0.2-0.9
					c-0.9,1.2-1.8,2.4-2.8,3.6c0.2-0.2,0.5-0.4,0.7-0.5c-1.5,0.2-3.1,0.4-4.6,0.6c0.3,0.1,0.6,0.1,0.9,0.2c-1.2-0.9-2.4-1.8-3.6-2.8
					c0.2,0.3,0.3,0.5,0.5,0.8c2.3-2.9,4.5-5.9,6.8-8.8c-3-0.9-6.1-1-9.2-0.9c-1.6,0.1-3.2,0.1-4.8,0.2c-0.8,0-1.6,0.1-2.4,0.1
					c-2.3-0.3-2.3,0.4,0,2.1c-0.2,1.5-0.4,3.1-0.6,4.6c-2.1,1.3-2.1,1.8,0.1,1.2c1.1-0.1,2.2-0.1,3.3-0.1c1.7,0,3.3,0,5,0.3
					c3.9,0.7,7,3,10.7,4.3c0.5-3.9,1.1-7.9,1.6-11.8c-4.7,0.4-9.4,0.7-14.1,1c-2.6,0.2-5.2,0.3-7.7,0.4c-1.3,0.1-2.6,0.1-3.9,0.1
					c-2.3-0.2-2.6-0.1-0.9,0.5c0.6,1.4,1.2,2.8,1.8,4.2c0-0.4,0-0.8,0.1-1.1c-0.6,1.4-1.2,2.8-1.8,4.2c0.7-0.5,1.5-1,2.3-1.5
					c6.6-4.3,0.9-13.5-6.1-10.4c-3.2,1.5-6.2,3.1-9.2,5.1c-6.4,4.3-0.4,14.7,6.1,10.4c2.9-2,5.9-3.6,9.2-5.1c-2-3.5-4-6.9-6.1-10.4
					c-3.3,2.2-6.8,4.2-6.5,8.8c0.3,4.3,3.9,6.8,7.9,7.3c9.3,1,19.6-0.9,28.9-1.6c6.8-0.5,8-9.4,1.6-11.8c-3.1-1.1-5.8-3.1-9.1-4
					c-2.6-0.7-5.4-1-8.1-1.1c-4.9-0.2-12.5-0.6-15.3,4.3c-2.9,5.3,1.2,10.9,6.7,11.7c5.7,0.9,11.7-1.4,17.3,0.2
					c4.8,1.4,9.8-4.4,6.8-8.8c-3.5-5.1-12-5.2-13.3,1.9c-1.3,7.5,9.7,10.8,11.6,3.2c2.5-10.6-13.3-12.9-13.8-2.3
					c-0.1,1.9,1.2,4.4,3,5.2c7.4,3.2,14.1-6.1,7.1-11.2c-6.5-4.6-15.3,2.6-11.2,9.8c2,3.5,6.6,3.8,9.4,1.2c5-4.5,0.9-11.8-5.1-12.3
					c-7.4-0.6-9.9,7.1-5.8,12.2c1.2,1.5,4,2.2,5.8,1.5c6.6-2.5,7.3-12.2-0.5-13.7c-6.9-1.4-12.8,6.3-7.6,11.9c1.5,1.6,3.8,2,5.8,1.5
					c9.4-2.3,4.6-16.3-4.5-13.6c-9.5,2.9-5.6,17.5,3.6,13.6c8.7-3.7,2.1-15.7-6.2-13.5c-9.2,2.4-6.2,16.3,3.3,13.9
					c2-0.5,3.7-2.2,4.2-4.2c1.7-6.2-4.3-11-10.3-9.4c-6.4,1.8-7.7,9.9-2,13.4c1.8,1.1,4.2,1.1,6.1,0c5.4-3.2,4.8-10.8-1.1-13.1
					c-5-1.9-11.7,2.4-9.4,8.2c1.2,2.9,4,5.3,7.4,4.2c2.6-0.9,4.4-2.3,5.1-5.2c0.6-2.7-0.4-5.3-2.8-6.8c-2.5-1.6-4.8-1.4-7.4-0.1
					c-2.7,1.4-3.9,5.7-2.2,8.2c0.1,0.1,0.2,0.3,0.3,0.4C92.3,42.7,102.7,36.8,98.2,30.4L98.2,30.4z"/>
			</g>
		</g>
		<g>
			<g>
				<path class="st0" d="M79.7,87.8c-0.4-0.3-0.9-0.5-1.3-0.8c-0.6-0.3-1.2,0.5-0.7,0.9c0.3,0.3,0.5,0.5,0.8,0.8
					c0.2-0.3,0.5-0.6,0.7-0.9c-1-0.5-1.8-1.1-2.5-2c-0.3,0.3-0.6,0.6-0.8,0.8c0.3,0.3,0.7,0.6,1,0.9c0.6,0.5,1.4-0.3,0.8-0.8
					c-0.7-0.7-0.5-0.6-1.3-1.1c-0.7-0.4-1.2,0.6-0.6,1c0.4,0.3,0.8,0.7,1.2,1c0.3-0.3,0.6-0.6,0.8-0.8c-0.2-0.2-0.5-0.5-0.7-0.7
					c-0.2,0.3-0.5,0.6-0.7,0.9c0.2,0.1,0.3,0.2,0.5,0.4c0.5,0.4,1.1-0.3,0.8-0.8c-0.4-0.6-0.3-0.6-0.8-1.1c-0.3,0.3-0.6,0.6-0.8,0.8
					c0.2,0.2,0.4,0.3,0.5,0.5c0.6,0.5,1.4-0.3,0.8-0.8c-0.2-0.2-0.4-0.4-0.7-0.6c-0.1,0.3-0.3,0.7-0.4,1c-0.2-0.1-0.3-0.3-0.5-0.4
					c0.3-0.2,0.5-0.4,0.8-0.6c-1.9-0.6-4.3-4.5-5.3-5.9c-0.3,0.2-0.6,0.5-0.9,0.7c1.2,1.4,2.4,2.7,3.7,3.9c0.6,0.5,1.4-0.3,0.8-0.8
					c-1.1-1.1-1.9-2.1-2.8-3.3c-0.3,0.2-0.6,0.5-0.9,0.7c0.9,1,1.8,2,2.7,3.1c0.5,0.6,1.3-0.3,0.8-0.8c-0.5-0.7-1.1-1.3-1.6-2
					c-0.3,0.3-0.6,0.6-0.8,0.8c1.1,1.3,2.3,2.6,3.6,3.7c0.2-0.3,0.5-0.6,0.7-0.9c-2-1.1-3.2-2.5-4-4.7c-0.4,0.2-0.7,0.3-1.1,0.5
					c0.6,0.8,1.1,1.5,1.7,2.3c0.4,0.6,1.4,0.1,1-0.6c-0.5-0.8-1-1.6-1.5-2.5c-0.3,0.2-0.7,0.4-1,0.6c0.4,0.6,0.9,1.3,1.3,1.9
					c0.4,0.6,1.5,0,1-0.6c-0.4-0.6-0.8-1.2-1.2-1.8c-0.4-0.5-1.4-0.2-1.1,0.5c1.3,3.5,4.9,5.6,5.9,9.2c0.3-0.2,0.6-0.5,0.9-0.7
					c-0.3-0.2-0.6-0.5-0.9-0.7c-0.4-0.5-1.3,0.2-0.9,0.7c0.6,0.9,1.1,1.7,1.6,2.6c0.3-0.2,0.6-0.5,0.9-0.7c-0.2-0.2-0.5-0.4-0.7-0.6
					c-0.6-0.5-1.4,0.3-0.8,0.8c0.2,0.3,0.5,0.5,0.7,0.8c0.4,0.5,1.4-0.2,0.9-0.7c-0.4-0.5-0.7-1-1.1-1.4c-0.3,0.2-0.6,0.5-0.9,0.7
					c1.1,1,1.9,1.8,2.7,3.1c0.4,0.6,1.4,0.1,1-0.6c-0.2-0.3-0.4-0.7-0.5-1c-0.3,0.3-0.5,0.5-0.8,0.8c0.3,0.2,0.6,0.4,0.9,0.5
					c0.6,0.4,1.3-0.5,0.7-0.9c-0.5-0.4-1.1-0.9-1.6-1.3c-0.2,0.3-0.5,0.6-0.7,0.9c0.5,0.4,1.1,0.8,1.6,1.2c0.6,0.4,1.2-0.5,0.7-0.9
					c-0.8-0.8-1.7-1.5-2.5-2.3c-0.2,0.3-0.5,0.6-0.7,0.9c1,0.7,2,1.4,3.1,2.1c0.2-0.3,0.4-0.7,0.6-1c-1.2-0.8-2.2-1.6-3.2-2.7
					c-0.2,0.3-0.5,0.6-0.7,0.9c1.2,0.4,2.2,1.1,3.2,1.9c0.2-0.3,0.5-0.6,0.7-0.9c-1.1-0.7-2.1-1.4-3.2-2.3c-0.2,0.3-0.5,0.6-0.7,0.9
					c1.3,0.6,2.5,1.3,3.7,2.1c0.2-0.3,0.4-0.7,0.6-1c-1.1-0.6-2.1-1.3-3-2.1c-0.2,0.3-0.5,0.6-0.7,0.9c1.3,0.6,2.6,1.2,3.9,1.8
					c0.2-0.4,0.3-0.7,0.5-1.1c-0.9-0.2-1.8-0.6-2.6-1.2c-0.2,0.4-0.3,0.7-0.5,1.1c1,0.3,1.9,0.8,2.7,1.4c0.2-0.4,0.3-0.7,0.5-1.1
					c-0.9-0.3-1.7-0.7-2.4-1.2c-0.2,0.3-0.4,0.7-0.6,1c1.6,0.8,3.1,1.7,4.6,2.6c0.1-0.4,0.2-0.7,0.3-1.1c-0.9,0-1.8-0.2-2.6-0.6
					c-0.6-0.3-1.1,0.8-0.5,1.1c0.8,0.3,1.4,0.7,2.1,1.2c0.2-0.4,0.3-0.7,0.5-1.1c-0.7,0-1.4-0.2-2.1-0.5c-0.5-0.2-1.1,0.6-0.6,1
					c0.3,0.2,0.5,0.4,0.8,0.6c0.2-0.3,0.4-0.7,0.6-1c-0.4-0.2-0.8-0.3-1.3-0.5c-0.2,0.3-0.4,0.7-0.6,1c0.6,0.4,1.2,0.8,1.8,1.1
					c0.2-0.3,0.5-0.6,0.7-0.9c-1.1-0.6-0.8-0.5-2-0.8c-0.1,0.4-0.1,0.8-0.2,1.2c1,0.3,2,0.7,3.1,1c0.2-0.4,0.3-0.7,0.5-1.1
					c-0.6-0.2-1.2-0.4-1.8-0.7c-0.2,0.4-0.3,0.7-0.5,1.1c0.7,0.1,1.4,0.3,2.1,0.6c0.1-0.4,0.2-0.8,0.3-1.2c-0.4-0.1-0.8-0.3-1.2-0.4
					c-0.1,0.4-0.2,0.8-0.3,1.2c1.8,0.6,3.6,1.3,5.5,1.9c0.5,0.2,0.8-0.3,0.7-0.7c-0.8-3.3-4.2-2.9-6.7-4.5c-0.2,0.3-0.4,0.7-0.6,1
					c1.6,1,3.1,1.8,4.8,2.6c0.2-0.4,0.3-0.7,0.5-1.1c-1.7-0.3-2.9-0.8-4.4-1.6c-0.2,0.4-0.3,0.7-0.5,1.1c0.4,0.1,0.7,0.2,1.1,0.3
					c0.7,0.2,1-0.7,0.5-1.1c-1.5-1-2.7-2.1-4-3.5c-0.2,0.3-0.5,0.6-0.7,0.9c1.5,1.1,2.9,2.1,4.4,3.2c0.2-0.4,0.3-0.7,0.5-1.1
					c-2.1-0.5-4-1.3-5.8-2.5c-0.6-0.4-1.2,0.5-0.7,0.9c0.7,0.8,1.5,1.4,2.3,2c0.2-0.3,0.4-0.7,0.6-1c-1-0.5-1.8-1-2.6-1.6
					c-0.6-0.4-1.2,0.5-0.7,0.9c0.2,0.3,0.4,0.5,0.6,0.8c0,0.2,0,0.4,0.2,0.6c0.1,0.1,0.2,0.2,0.3,0.3c0.2-0.3,0.5-0.6,0.7-0.9
					c-0.3-0.2-0.6-0.4-0.8-0.6c-0.5-0.6-1.4,0.3-0.8,0.8c0.5,0.5,0.4,0.5,1.1,0.8c0.6,0.3,1.3-0.5,0.7-0.9c-0.1-0.1-1.1-1.7-1.1-1.6
					c-0.2,0.3-0.5,0.6-0.7,0.9c0.9,0.6,1.7,1.2,2.6,1.6c0.7,0.4,1.2-0.6,0.6-1c-0.8-0.5-1.4-1.2-2.1-1.8c-0.2,0.3-0.5,0.6-0.7,0.9
					c1.9,1.3,3.8,2.1,6.1,2.6c0.7,0.2,1-0.7,0.5-1.1c-1.5-1.1-2.9-2.1-4.4-3.2c-0.6-0.4-1.2,0.5-0.7,0.9c1.3,1.4,2.7,2.6,4.2,3.6
					c0.2-0.4,0.3-0.7,0.5-1.1c-0.4-0.1-0.7-0.2-1.1-0.3c-0.6-0.2-1.1,0.8-0.5,1.1c1.5,0.8,3,1.3,4.7,1.7c0.6,0.1,1.1-0.8,0.5-1.1
					c-1.7-0.8-3.2-1.6-4.8-2.6c-0.7-0.4-1.2,0.6-0.6,1c1.8,1.2,5.5,1.3,6.1,3.8c0.2-0.2,0.5-0.5,0.7-0.7c-1.8-0.6-3.6-1.3-5.5-1.9
					c-0.7-0.3-1,0.9-0.3,1.2c0.4,0.1,0.8,0.3,1.2,0.4c0.7,0.3,1-0.9,0.3-1.2c-0.7-0.3-1.4-0.5-2.1-0.6c-0.6-0.1-1.1,0.8-0.5,1.1
					c1,0.5,1,0.5,2,0.8c0.6,0.2,1.1-0.8,0.5-1.1c-1.3-0.7-2.3-1-3.7-1.1c-0.7-0.1-0.8,1-0.2,1.2c0.6,0.2,1.1,0.5,1.7,0.7
					c0.6,0.3,1.3-0.5,0.7-0.9c-1.1-1-0.7-0.7-2.1-1.3c-0.7-0.3-1.3,0.6-0.6,1c0.8,0.5,0.6,0.4,1.6,0.6c0.5,0.1,1.1-0.6,0.6-1
					c-0.3-0.2-0.5-0.4-0.8-0.6c-0.2,0.3-0.4,0.7-0.6,1c0.7,0.3,1.4,0.4,2.1,0.5c0.7,0.1,1.1-0.7,0.5-1.1c-0.6-0.5-1.3-0.9-2.1-1.2
					c-0.2,0.4-0.3,0.7-0.5,1.1c1,0.4,1.8,0.6,2.9,0.7c0.6,0,0.8-0.8,0.3-1.1c-1.5-1-3-1.8-4.6-2.6c-0.7-0.3-1.3,0.6-0.6,1
					c0.9,0.6,1.7,1,2.7,1.3c0.7,0.2,1-0.7,0.5-1.1c-1-0.7-1.9-1.1-3-1.5c-0.7-0.2-1,0.8-0.5,1.1c1,0.6,1.9,1,2.9,1.3
					c0.6,0.2,1.1-0.8,0.5-1.1c-1.3-0.6-2.6-1.2-3.9-1.8c-0.6-0.3-1.3,0.5-0.7,0.9c1.1,0.9,2.1,1.6,3.3,2.3c0.7,0.4,1.2-0.6,0.6-1
					c-1.2-0.8-2.4-1.5-3.7-2.1c-0.6-0.3-1.3,0.5-0.7,0.9c1.1,0.9,2.2,1.7,3.4,2.5c0.6,0.3,1.3-0.5,0.7-0.9c-1.1-0.9-2.1-1.5-3.4-2.1
					c-0.6-0.3-1.2,0.4-0.7,0.9c1.1,1.1,2.1,2,3.4,2.9c0.7,0.4,1.2-0.6,0.6-1c-1-0.7-2-1.4-3.1-2.1c-0.6-0.4-1.2,0.5-0.7,0.9
					c0.8,0.8,1.7,1.5,2.5,2.3c0.2-0.3,0.5-0.6,0.7-0.9c-0.5-0.4-1.1-0.8-1.6-1.2c-0.5-0.4-1.3,0.5-0.7,0.9c0.5,0.4,1.1,0.9,1.6,1.3
					c0.2-0.3,0.5-0.6,0.7-0.9c-0.3-0.2-0.6-0.4-0.9-0.5c-0.5-0.3-1.1,0.3-0.8,0.8c0.2,0.3,0.4,0.7,0.5,1c0.3-0.2,0.7-0.4,1-0.6
					c-0.9-1.2-1.8-2.3-2.9-3.3c-0.5-0.4-1.4,0.2-0.9,0.7c0.4,0.5,0.7,1,1.1,1.4c0.3-0.2,0.6-0.5,0.9-0.7c-0.2-0.3-0.5-0.5-0.7-0.8
					c-0.3,0.3-0.6,0.6-0.8,0.8c0.2,0.2,0.5,0.4,0.7,0.6c0.5,0.4,1.3-0.1,0.9-0.7c-0.5-0.9-1-1.7-1.6-2.6c-0.3,0.2-0.6,0.5-0.9,0.7
					c0.5,0.7,0.4,0.5,1.1,0.9c0.5,0.2,1-0.1,0.9-0.7c-1-3.7-4.6-5.7-5.9-9.2c-0.4,0.2-0.7,0.3-1.1,0.5c0.4,0.6,0.8,1.2,1.2,1.8
					c0.3-0.2,0.7-0.4,1-0.6c-0.4-0.6-0.9-1.3-1.3-1.9c-0.4-0.6-1.4-0.1-1,0.6c0.5,0.8,1,1.6,1.5,2.5c0.3-0.2,0.7-0.4,1-0.6
					c-0.6-0.8-1.1-1.5-1.7-2.3c-0.4-0.5-1.3-0.2-1.1,0.5c0.9,2.4,2.3,4.1,4.6,5.4c0.6,0.3,1.2-0.5,0.7-0.9c-1.3-1.2-2.5-2.4-3.6-3.7
					c-0.5-0.6-1.3,0.3-0.8,0.8c0.5,0.7,1.1,1.3,1.6,2c0.3-0.3,0.6-0.6,0.8-0.8c-0.9-1-1.8-2-2.7-3.1c-0.4-0.5-1.3,0.2-0.9,0.7
					c0.9,1.3,1.8,2.5,3,3.6c0.3-0.3,0.6-0.6,0.8-0.8c-1.3-1.2-2.5-2.5-3.7-3.9c-0.4-0.5-1.3,0.2-0.9,0.7c1.5,2.1,3.5,5.6,6,6.5
					c0.4,0.1,0.8-0.2,0.8-0.6c0-0.1,0-0.1,0-0.2c0-0.3-0.3-0.6-0.6-0.6c0,0-0.1,0-0.1,0c-0.5,0-0.8,0.7-0.4,1
					c0.2,0.2,0.4,0.4,0.7,0.6c0.3-0.3,0.6-0.6,0.8-0.8c-0.2-0.2-0.4-0.3-0.5-0.5c-0.6-0.5-1.4,0.3-0.8,0.8c0.2,0.3,0.4,0.6,0.6,0.8
					c0.3-0.3,0.5-0.5,0.8-0.8c-0.2-0.1-0.3-0.2-0.5-0.4c-0.6-0.4-1.2,0.5-0.7,0.9c0.2,0.2,0.5,0.5,0.7,0.7c0.5,0.5,1.4-0.3,0.8-0.8
					c-0.7-0.7-0.6-0.6-1.4-1.2c-0.2,0.3-0.4,0.7-0.6,1c0.4,0.3,0.7,0.6,1.1,0.9c0.3-0.3,0.6-0.6,0.8-0.8c-0.3-0.3-0.7-0.6-1-0.9
					c-0.6-0.5-1.4,0.3-0.8,0.8c0.9,0.9,1.6,1.6,2.7,2.2c0.6,0.3,1.2-0.5,0.7-0.9c-0.3-0.3-0.5-0.5-0.8-0.8c-0.2,0.3-0.5,0.6-0.7,0.9
					c0.4,0.3,0.9,0.5,1.3,0.8C79.7,89.2,80.3,88.2,79.7,87.8L79.7,87.8z"/>
			</g>
		</g>
		<g>
			<g>
				<path class="st0" d="M73.6,90.7c0.5,0.5,1,0.9,1.5,1.4c0.6,0.5,1.4-0.3,0.8-0.8c-0.2-0.2-0.4-0.4-0.6-0.6
					c-0.3,0.3-0.6,0.6-0.8,0.8c0.7,0.6,1.4,1.2,2,1.9c0.2-0.3,0.4-0.7,0.6-1c-0.3-0.2-0.7-0.4-1-0.6c-0.2,0.3-0.5,0.6-0.7,0.9
					c0.5,0.3,0.9,0.7,1.2,1.2c0.4,0.5,1.3-0.2,0.9-0.7c-0.1-0.3-0.3-0.5-0.4-0.8c-0.3,0.3-0.5,0.5-0.8,0.8c0.6,0.2,1,0.5,1.5,0.9
					c0.6,0.5,1.4-0.3,0.8-0.8c-0.2-0.2-0.4-0.3-0.6-0.5c-0.5-0.4-1.4,0.1-0.9,0.7c0.1,0.2,0.2,0.3,0.4,0.5c0.3-0.2,0.6-0.5,0.9-0.7
					c-1.2-1.2-2.1-2.4-2.9-3.9c-0.3,0.2-0.6,0.5-0.9,0.7c0.8,0.9,1.6,1.9,2.4,2.8c0.4,0.5,1.3-0.2,0.9-0.7c-0.8-1.2-1.6-2.5-2.3-3.7
					c-0.3,0.2-0.6,0.5-0.9,0.7c0.5,0.6,1,1.2,1.4,1.8c0.4,0.5,1.3-0.2,0.9-0.7c-0.8-1.3-1.6-2.5-2.4-3.8c-0.3,0.2-0.7,0.4-1,0.6
					c0.7,1,1.5,2.1,2.2,3.1c0.3-0.2,0.7-0.4,1-0.6c-0.9-1.2-1.9-2.4-2.8-3.7c-0.3,0.2-0.6,0.5-0.9,0.7c0.6,0.7,1.2,1.5,1.7,2.3
					c0.3-0.2,0.7-0.4,1-0.6c-1.1-1.5-2.1-3-3-4.6c-0.3,0.2-0.7,0.4-1,0.6c0.8,1.1,1.7,2.2,2.5,3.3c0.5,0.6,1.5,0,1-0.6
					c-1.3-1.9-2.4-3.8-3.4-5.8c-0.3,0.2-0.7,0.4-1,0.6c1,1.6,2.1,3.1,3.3,4.5c0.3-0.3,0.6-0.6,0.8-0.8c-0.8-0.8-1.5-1.7-2.1-2.7
					c-0.3,0.2-0.7,0.4-1,0.6c1.1,1.6,2,3.2,2.6,5c0.3-0.2,0.6-0.5,0.9-0.7c-1.2-0.7-2.2-1.6-3.2-2.5c-0.5-0.5-1.3,0.1-0.9,0.7
					c1.1,2,2.3,3.9,3.4,5.9c0.3-0.2,0.6-0.5,0.9-0.7c-0.8-0.7-1.6-1.4-2.3-2c-0.2,0.3-0.4,0.7-0.6,1c0.3,0.2,0.6,0.3,0.8,0.5
					c0.2-0.3,0.5-0.6,0.7-0.9c-0.2-0.1-0.5-0.2-0.7-0.3c-0.6-0.3-1.2,0.5-0.7,0.9c0.6,0.6,1.2,1.2,1.9,1.7c0.3-0.3,0.6-0.6,0.8-0.8
					c-1-0.8-1.9-1.7-2.8-2.7c-0.3,0.3-0.6,0.6-0.8,0.8c0.4,0.5,0.8,0.9,1.2,1.4c0.1-0.3,0.2-0.7,0.3-1c-0.1,0.1-0.3,0.1-0.4,0.2
					c-0.5,0.2-0.6,0.8-0.1,1.1c0.4,0.3,0.8,0.5,1.1,0.8c0.2-0.3,0.5-0.6,0.7-0.9c-0.8-0.4-1.4-0.7-2.1-1.4c-0.2,0.3-0.5,0.6-0.7,0.9
					c0.9,0.7,1.8,1.3,2.7,2c0.6,0.4,1.2-0.5,0.7-0.9c-0.8-0.8-1.6-1.4-2.6-2.1c-0.2,0.3-0.4,0.7-0.6,1c0.7,0.4,1.3,0.7,1.9,1.2
					c0.2-0.3,0.4-0.7,0.6-1c-1.6-0.8-2.6-1.9-3.4-3.5c-0.3,0.2-0.6,0.5-0.9,0.7c0.5,0.5,0.9,1.1,1.2,1.8c0.3-0.2,0.6-0.5,0.9-0.7
					c-0.6-0.4-1.1-1-1.5-1.6c-0.3,0.2-0.6,0.5-0.9,0.7c0.4,0.4,0.7,0.8,0.8,1.3c0.3-0.2,0.6-0.5,0.9-0.7c-0.6-0.6-1.1-1.3-1.6-2
					c-0.4-0.5-1.3-0.2-1.1,0.5c0.1,0.5,0.2,0.9,0.3,1.4c0.4-0.2,0.7-0.3,1.1-0.5c-0.6-1.1-1.2-2.3-1.7-3.4c-0.4-0.7-1.4-0.1-1,0.6
					c0.3,0.5,0.5,1.1,0.8,1.6c0.3,0.7,1.4,0.1,1-0.6c-0.3-0.8-0.7-1.5-1-2.3c-0.3,0.2-0.6,0.5-0.9,0.7c1.9,1.9,3.7,3.8,5.4,5.9
					c0.4,0.5,1.3-0.2,0.9-0.7c-1.3-1.8-2.7-3.5-4.4-5c-0.5-0.4-1.4,0.2-0.9,0.7c0.8,1.1,1.6,2.1,2.4,3.2c0.3-0.3,0.5-0.5,0.8-0.8
					c-0.4-0.2-0.7-0.3-1.1-0.5c-0.5-0.2-1.2,0.3-0.8,0.8c0.7,0.9,1.4,1.8,2.3,2.6c0.6,0.5,1.3-0.3,0.8-0.8c-0.8-0.9-1.6-1.9-2.4-2.8
					c-0.3,0.3-0.6,0.6-0.8,0.8c1.2,1.1,2.4,2,3.8,2.7c0.5,0.3,1.1-0.3,0.8-0.8c-1-1.7-2.2-3.3-3.4-4.9c-0.3,0.2-0.6,0.5-0.9,0.7
					c1.7,1.4,3.4,2.9,5.1,4.3c0.6,0.5,1.4-0.3,0.8-0.8c-1.5-1.7-2.9-3.3-4.4-5c-0.3,0.3-0.6,0.6-0.8,0.8c1.7,1.4,3.4,2.8,5.1,4.2
					c0.6,0.5,1.4-0.3,0.8-0.8c-1-1.2-2.2-2.4-3.4-3.4c-0.2,0.3-0.5,0.6-0.7,0.9c1.4,0.9,2.8,1.9,4.2,3c0.2-0.3,0.4-0.7,0.6-1
					c-1.2-0.9-2.4-1.9-3.5-2.9c-0.2,0.3-0.5,0.6-0.7,0.9c1.7,0.8,3.2,1.7,4.6,3c0.6,0.5,1.4-0.3,0.8-0.8c-1.2-1.1-2.5-2.3-3.7-3.4
					c-0.2,0.3-0.5,0.6-0.7,0.9c1.4,0.8,2.6,1.8,3.8,2.9c0.2-0.3,0.5-0.6,0.7-0.9c-0.9-0.6-1.5-1.2-2.2-1.9c-0.3,0.3-0.6,0.6-0.8,0.8
					c0.8,0.7,1.6,1.4,2.4,2.2c0.5,0.5,1.4-0.2,0.9-0.7c-0.7-1-1.5-1.8-2.4-2.6c-0.6-0.5-1.4,0.3-0.8,0.8c0.2,0.2,2.9,3.1,2.9,3.1
					c-0.2,0.2-3-1.8-3.4-2.1c-0.6-0.4-1.2,0.5-0.7,0.9c1.1,1.2,2.1,2.3,3.2,3.5c0.5,0.5,1.3-0.2,0.9-0.7c-0.6-0.9-1.3-1.6-2.2-2.3
					c-0.5-0.4-1.3,0.1-0.9,0.7c0,0,0.9,1.3,1,1c-0.1,0.2-2.4-0.6-2.6-0.7c-1.3-0.6-2.4-1.4-3.3-2.5c-0.4-0.4-1.2,0-1,0.6
					c0.8,2,2.3,3.4,4.4,3.8c0.8,0.2,1.1-0.9,0.3-1.2c-3.5-1-3.7-5.1-4.4-8c-0.4,0.2-0.7,0.3-1.1,0.5c0.5,0.8,0.9,1.6,1.3,2.4
					c0.3-0.2,0.7-0.4,1-0.6c-0.5-1-0.9-1.9-1.2-3c-0.4,0.2-0.7,0.3-1.1,0.5c0.5,0.9,1.1,1.8,1.6,2.6c0.3,0.6,1.4,0.2,1.1-0.5
					c-0.2-0.6-0.5-1.3-0.7-1.9c-0.4,0.2-0.7,0.3-1.1,0.5c0.7,1,1.3,2,2,2.9c0.4,0.6,1.4,0.1,1-0.6c-0.7-1.3-1.5-2.5-2.2-3.8
					c-0.3,0.2-0.6,0.5-0.9,0.7c0.9,1.1,1.9,2.3,2.8,3.4c0.4,0.5,1.3-0.2,0.9-0.7c-0.7-1.1-1.3-2.2-2-3.4c-0.3,0.2-0.6,0.5-0.9,0.7
					c1,1.3,2.1,2.6,3.1,4c0.5,0.6,1.3-0.2,0.8-0.8c-1-1.3-2.1-2.6-3.1-4c-0.4-0.5-1.3,0.2-0.9,0.7c0.7,1.1,1.3,2.2,2,3.4
					c0.3-0.2,0.6-0.5,0.9-0.7c-0.9-1.1-1.9-2.3-2.8-3.4c-0.4-0.5-1.3,0.2-0.9,0.7c0.7,1.3,1.5,2.5,2.2,3.8c0.3-0.2,0.7-0.4,1-0.6
					c-0.7-1-1.3-2-2-2.9c-0.4-0.5-1.4-0.2-1.1,0.5c0.2,0.6,0.5,1.3,0.7,1.9c0.4-0.2,0.7-0.3,1.1-0.5c-0.5-0.9-1.1-1.8-1.6-2.6
					c-0.3-0.6-1.3-0.2-1.1,0.5c0.3,1.2,0.7,2.2,1.3,3.2c0.4,0.7,1.4,0.1,1-0.6c-0.4-0.8-0.8-1.6-1.3-2.4c-0.4-0.6-1.3-0.2-1.1,0.5
					c0.9,3.5,1.3,7.7,5.3,8.9c0.1-0.4,0.2-0.8,0.3-1.2c-1.7-0.4-2.9-1.3-3.6-3c-0.3,0.2-0.7,0.4-1,0.6c1.3,1.4,5.6,4.9,7.6,3.2
					c0.2-0.1,0.2-0.4,0.2-0.6c-0.2-0.7-0.6-1.3-0.9-1.9c-0.3,0.2-0.6,0.5-0.9,0.7c0.8,0.7,1.4,1.2,2,2.1c0.3-0.2,0.6-0.5,0.9-0.7
					c-1.1-1.2-2.1-2.3-3.2-3.5c-0.2,0.3-0.5,0.6-0.7,0.9c1.3,0.8,3.9,3.3,5.5,2.1c0.2-0.1,0.2-0.4,0.2-0.6c-0.6-1.7-2.4-3.2-3.7-4.4
					c-0.3,0.3-0.6,0.6-0.8,0.8c0.9,0.7,1.5,1.4,2.2,2.3c0.3-0.2,0.6-0.5,0.9-0.7c-0.8-0.8-1.6-1.5-2.4-2.2c-0.6-0.5-1.4,0.3-0.8,0.8
					c0.7,0.8,1.5,1.5,2.4,2.1c0.6,0.4,1.2-0.5,0.7-0.9c-1.3-1.2-2.6-2.2-4-3.1c-0.6-0.4-1.2,0.5-0.7,0.9c1.2,1.1,2.5,2.3,3.7,3.4
					c0.3-0.3,0.6-0.6,0.8-0.8c-1.5-1.3-3-2.3-4.8-3.1c-0.6-0.3-1.3,0.4-0.7,0.9c1.2,1.1,2.4,2.1,3.7,3.1c0.6,0.5,1.2-0.6,0.6-1
					c-1.4-1-2.7-2-4.2-3c-0.6-0.4-1.2,0.5-0.7,0.9c1.2,1.1,2.3,2.2,3.4,3.4c0.3-0.3,0.6-0.6,0.8-0.8c-1.7-1.4-3.4-2.8-5.1-4.2
					c-0.6-0.5-1.4,0.3-0.8,0.8c1.5,1.7,2.9,3.3,4.4,5c0.3-0.3,0.6-0.6,0.8-0.8c-1.7-1.4-3.4-2.9-5.1-4.3c-0.5-0.4-1.4,0.1-0.9,0.7
					c1.2,1.6,2.3,3.2,3.4,4.9c0.3-0.3,0.5-0.5,0.8-0.8c-1.3-0.7-2.4-1.5-3.5-2.5c-0.6-0.5-1.3,0.3-0.8,0.8c0.8,0.9,1.6,1.9,2.4,2.8
					c0.3-0.3,0.6-0.6,0.8-0.8c-0.8-0.8-1.4-1.5-2.1-2.4c-0.3,0.3-0.5,0.5-0.8,0.8c0.4,0.2,0.7,0.3,1.1,0.5c0.5,0.2,1.2-0.3,0.8-0.8
					c-0.8-1.1-1.6-2.1-2.4-3.2c-0.3,0.2-0.6,0.5-0.9,0.7c1.6,1.5,3,3,4.2,4.8c0.3-0.2,0.6-0.5,0.9-0.7c-1.7-2.1-3.5-4-5.4-5.9
					c-0.5-0.5-1.2,0.1-0.9,0.7c0.3,0.8,0.7,1.5,1,2.3c0.3-0.2,0.7-0.4,1-0.6c-0.3-0.5-0.5-1.1-0.8-1.6c-0.3,0.2-0.7,0.4-1,0.6
					c0.6,1.1,1.2,2.3,1.7,3.4c0.3,0.6,1.3,0.2,1.1-0.5c-0.1-0.5-0.2-0.9-0.3-1.4c-0.4,0.2-0.7,0.3-1.1,0.5c0.6,0.8,1.1,1.5,1.8,2.2
					c0.5,0.5,1.2-0.1,0.9-0.7c-0.3-0.6-0.6-1-1-1.5c-0.5-0.5-1.3,0.2-0.9,0.7c0.5,0.7,1,1.3,1.7,1.9c0.5,0.4,1.3-0.1,0.9-0.7
					C72,88.3,71.5,87.6,71,87c-0.5-0.6-1.2,0.2-0.9,0.7c0.8,1.8,2.1,3.1,3.8,4c0.7,0.4,1.2-0.6,0.6-1c-0.6-0.5-1.2-0.8-1.9-1.2
					c-0.7-0.4-1.2,0.6-0.6,1c0.8,0.6,1.6,1.2,2.3,1.9c0.2-0.3,0.5-0.6,0.7-0.9c-0.9-0.7-1.8-1.3-2.7-2c-0.5-0.4-1.2,0.5-0.7,0.9
					c0.7,0.7,1.4,1.1,2.3,1.5c0.6,0.3,1.3-0.5,0.7-0.9c-0.6-0.5-0.7-0.6-1.4-1c0,0.4-0.1,0.7-0.1,1.1c0.1-0.1,0.3-0.1,0.4-0.2
					c0.4-0.2,0.6-0.7,0.3-1c-0.4-0.5-0.8-0.9-1.2-1.4c-0.5-0.6-1.3,0.3-0.8,0.8c0.8,1,1.7,1.9,2.8,2.7c0.6,0.5,1.4-0.3,0.8-0.8
					c-0.6-0.6-1.2-1.2-1.9-1.7c-0.2,0.3-0.5,0.6-0.7,0.9c0.4,0.2,0.6,0.3,1,0.5c0.5,0.2,1-0.5,0.7-0.9c-0.4-0.6-0.8-0.9-1.6-1.1
					c-0.5-0.1-1.1,0.6-0.6,1c0.8,0.7,1.6,1.4,2.3,2c0.5,0.4,1.3-0.1,0.9-0.7c-1.1-2-2.3-3.9-3.4-5.9c-0.3,0.2-0.6,0.5-0.9,0.7
					c1.1,1,2.2,1.9,3.4,2.7c0.4,0.3,1-0.2,0.9-0.7c-0.6-1.9-1.5-3.7-2.7-5.3c-0.4-0.6-1.5-0.1-1,0.6c0.7,1.1,1.4,2,2.3,2.9
					c0.5,0.6,1.4-0.3,0.8-0.8c-1.2-1.3-2.2-2.7-3.1-4.2c-0.4-0.7-1.4-0.1-1,0.6c1,2,2.1,3.9,3.4,5.8c0.3-0.2,0.7-0.4,1-0.6
					c-0.8-1.1-1.7-2.2-2.5-3.3c-0.5-0.6-1.4-0.1-1,0.6c0.9,1.6,1.9,3.1,3,4.6c0.4,0.6,1.5,0,1-0.6c-0.6-0.9-1.2-1.7-1.9-2.6
					c-0.4-0.5-1.4,0.2-0.9,0.7c0.9,1.2,1.9,2.4,2.8,3.7c0.5,0.6,1.5,0,1-0.6c-0.7-1-1.5-2.1-2.2-3.1c-0.4-0.6-1.5-0.1-1,0.6
					c0.8,1.3,1.6,2.5,2.4,3.8c0.3-0.2,0.6-0.5,0.9-0.7c-0.5-0.6-1-1.2-1.4-1.8c-0.4-0.5-1.3,0.2-0.9,0.7c0.8,1.2,1.6,2.5,2.3,3.7
					c0.3-0.2,0.6-0.5,0.9-0.7c-0.8-0.9-1.6-1.9-2.4-2.8c-0.5-0.5-1.3,0.1-0.9,0.7c0.9,1.5,1.8,2.8,3.1,4.1c0.5,0.5,1.3-0.2,0.9-0.7
					c-0.1-0.2-0.2-0.3-0.4-0.5c-0.3,0.2-0.6,0.5-0.9,0.7c0.2,0.2,0.4,0.3,0.6,0.5c0.3-0.3,0.6-0.6,0.8-0.8c-0.6-0.5-1-0.8-1.7-1.1
					C76.3,92,75.7,92.5,76,93c0.1,0.3,0.3,0.5,0.4,0.8c0.3-0.2,0.6-0.5,0.9-0.7c-0.4-0.5-0.9-0.9-1.4-1.3c-0.5-0.4-1.2,0.5-0.7,0.9
					c0.7,0.6,0.7,0.6,1.6,0.9c0.6,0.2,1-0.6,0.6-1c-0.6-0.7-1.3-1.3-2-1.9c-0.6-0.5-1.4,0.3-0.8,0.8c0.2,0.2,0.4,0.4,0.6,0.6
					c0.3-0.3,0.6-0.6,0.8-0.8c-0.5-0.5-1-0.9-1.5-1.4C73.9,89.3,73,90.1,73.6,90.7L73.6,90.7z"/>
			</g>
		</g>
		<g>
			<g>
				<path class="st0" d="M112.9,93.9c0,0,0,0.1,0,0.1c0.1-0.6-0.8-1.1-1.1-0.5c0,0-0.1,0.1-0.1,0.1c-0.1,0.3-0.2,0.7-0.3,1
					c1.1-0.3,2.3-0.6,3.4-0.9c-0.2-0.4-0.3-0.7-0.5-1.1c-0.8,0.2-1.6,0.3-2.3,0.5c0,0.4,0,0.8,0,1.2c1-0.3,2-0.5,3-0.8
					c0.8-0.2,0.4-1.3-0.3-1.2c-0.7,0-1.4,0-2.1,0c0.1,0.4,0.1,0.8,0.2,1.2c2.4-0.7,4.6-1.6,6.8-2.8c0.6-0.3,0.2-1.4-0.5-1.1
					c-1.3,0.5-0.9,0.3-2,1.2c-0.6,0.5-0.1,1.5,0.6,1c1-0.6,2-1.3,3-1.9c-0.2-0.3-0.5-0.6-0.7-0.9c-0.5,0.4-0.9,0.8-1.4,1.2
					c-0.5,0.4,0.2,1.3,0.7,0.9c1.3-0.9,2.5-1.8,3.8-2.7c-0.2-0.3-0.5-0.6-0.7-0.9c-0.5,0.6-1.1,1.1-1.8,1.4c0.2,0.3,0.4,0.7,0.6,1
					c1.2-0.9,2.4-1.9,3.5-3.1c0.5-0.6-0.3-1.4-0.8-0.8c-0.5,0.4-0.9,0.8-1.4,1.1c0.2,0.3,0.5,0.6,0.7,0.9c0.2-0.2,0.3-0.3,0.5-0.5
					c0.5-0.5-0.2-1.3-0.7-0.9c-0.7,0.5-1.4,1-2.2,1.5c0.2,0.3,0.4,0.7,0.6,1c1.2-0.9,2.3-1.9,3.3-3c-0.3-0.2-0.6-0.5-0.9-0.7
					c-0.1,0.2-0.3,0.5-0.4,0.7c-0.4,0.7,0.6,1.2,1,0.6c0.5-0.7,1-1.3,1.5-2c-0.2-0.3-0.4-0.5-0.6-0.8c0.2-0.1,0.4-0.2,0.6-0.3
					c0.1,0.3,0.2,0.6,0.4,0.9c0.9-1.3,1.7-2.6,2.6-3.9c-0.3-0.2-0.7-0.4-1-0.6c-0.1,0.2-0.2,0.4-0.3,0.6c-0.3,0.7,0.7,1.3,1,0.6
					c0.1-0.3,0.3-0.6,0.4-0.9c-0.4-0.2-0.7-0.3-1.1-0.5c-0.3,1-0.7,2-1.2,2.9c0.4,0.2,0.7,0.3,1.1,0.5c0.2-0.5,0.5-1,0.7-1.6
					c-0.4-0.2-0.7-0.3-1.1-0.5c-0.6,1.4-1.2,2.6-1.9,3.8c0.4,0.2,0.7,0.3,1.1,0.5c0.3-0.7,0.7-1.4,1-2.1c-0.3-0.2-0.6-0.5-0.9-0.7
					c-0.8,1.5-1.6,2.8-2.5,4.2c0.4,0.2,0.7,0.3,1.1,0.5c0.4-0.6,0.7-1.3,1.1-1.9c-0.3-0.2-0.7-0.4-1-0.6c-0.9,2.3-2,4.2-3.6,6
					c0.3,0.2,0.7,0.4,1,0.6c-0.5,0.5-1,0.9-1.6,1.4c0.2,0.3,0.3,0.6,0.5,0.9c0,0.1-0.1,0.3-0.1,0.4c0.3-0.2,0.6-0.5,0.9-0.7
					c0,0,0,0.1,0,0.1c-0.3,0-0.6-0.1-0.9-0.1c0.1,0.2,0.2,0.4,0.3,0.6c0.2-0.3,0.3-0.6,0.5-0.9c-0.9,0-1.8,0.1-2.6,0.1
					c-0.8,0-0.8,1.2,0,1.2c0.2,0,0.4,0,0.7,0c0.8,0,0.7-1.1,0-1.2c-1.6-0.2-3-0.1-4.5,0.3c-0.6,0.2-0.5,1.2,0.2,1.2
					c0.3,0,0.6,0,0.9,0c0.8,0,0.8-1.2,0-1.2c-1,0-1.7,0.1-2.7,0.4c-0.6,0.2-0.6,1,0,1.2c0.9,0.3,0.7,0.3,1.6,0.2
					c0.5,0,0.9-0.9,0.3-1.1c-0.2-0.1-0.4-0.2-0.7-0.3c0,0.4-0.1,0.7-0.1,1.1c0.6-0.1,1.2-0.2,1.8-0.3c0.7-0.1,0.5-1.1-0.2-1.2
					c-0.6-0.1-1.2-0.1-1.8-0.2c0.1,0.4,0.1,0.8,0.2,1.2c0.8-0.1,1.6-0.3,2.5-0.4c-0.1-0.4-0.2-0.8-0.3-1.2c-0.3,0-0.5-0.1-0.8-0.1
					c0,0.3,0.1,0.6,0.1,0.9c0.7-0.4,1.5-0.8,2.2-1.2c-0.2-0.2-0.5-0.5-0.7-0.7c0.4,0.8,1,1.1,1.8,0.7c-0.2-0.3-0.5-0.6-0.7-0.9
					c0.3,0,0.5,0,0.8,0c0.2,0.3,0.3,0.6,0.5,0.9c0.5-1.2,1.4-2,2.7-2.3c-0.2-0.3-0.5-0.6-0.7-0.9c-0.5,1-1.3,1.8-2.4,2.2
					c0.3,0.3,0.5,0.5,0.8,0.8c0.9-1.8,2-3.1,3.6-4.2c-0.3-0.2-0.6-0.5-0.9-0.7c-0.5,1.4-1.4,2.5-2.6,3.2c0.3,0.3,0.5,0.5,0.8,0.8
					c0.3-1,0.9-1.7,1.9-2.2c-0.2-0.3-0.5-0.6-0.7-0.9c-1,1.2-2,2.4-3,3.6c-0.5,0.6,0.3,1.4,0.8,0.8c0.5-0.3,0.9-0.5,1.4-0.8
					c-0.2-0.3-0.4-0.7-0.6-1c-0.7,0.8-1.5,1.3-2.5,1.4c0.2,0.4,0.3,0.7,0.5,1.1c0.7,0,1.4-0.1,2.1-0.1c0.1-0.4,0.1-0.8,0.2-1.2
					c-2.1,0.2-4.2,0.3-6.3,0.3c0,0.4,0,0.8,0,1.2c0.9,0,1.8-0.1,2.8-0.1c0.8,0,0.8-1.2,0-1.2c-1.3,0-2.6,0.2-3.9,0.5
					c-0.7,0.1-0.5,1.3,0.2,1.2c1.6-0.2,3.1-0.5,4.7-1c0.7-0.2,0.4-1.4-0.3-1.2c-0.4,0.1-0.9,0.3-1.3,0.4c0.2,0.3,0.4,0.7,0.6,1
					c1.5-1.6,3.2-3,5.1-4.1c-0.3-0.3-0.5-0.5-0.8-0.8c-0.6,0.5-1.2,1-1.8,1.4c0.2,0.3,0.4,0.7,0.6,1c1.5-1.5,3-2.9,4.8-4.2
					c-0.3-0.3-0.5-0.5-0.8-0.8c-0.9,1.7-1.9,3.2-3.2,4.7c0.3,0.2,0.6,0.5,0.9,0.7c1.3-1.6,2.5-3.3,3.8-4.9c-0.3-0.2-0.7-0.4-1-0.6
					c-0.6,1.5-1.4,2.8-2.3,4.1c0.4,0.2,0.7,0.3,1.1,0.5c0.4-0.7,0.8-1.4,1.2-2c-0.3-0.2-0.7-0.4-1-0.6c-0.2,0.9-0.6,1.8-1.2,2.5
					c0.4,0.1,0.7,0.2,1.1,0.3c-0.1-1.4,0.3-2.7,1.1-3.8c0.4-0.6-0.5-1.2-0.9-0.7c-0.4,0.5-0.9,0.9-1.3,1.4c0.3,0.2,0.6,0.5,0.9,0.7
					c0.5-1.1,0.4-0.9,0.7-2.1c0.1-0.5-0.6-1.1-1-0.6c-0.3,0.4-0.6,0.7-0.9,1.1c0.3,0.3,0.6,0.6,0.8,0.8c0.4-0.5,0.8-1,1.3-1.4
					c0.6-0.5-0.3-1.4-0.8-0.8c-1.8,1.6-2.5,4.5-4.8,5.6c-0.3,0.2-0.4,0.7-0.1,0.9c1,0.9,1.9,1.4,3.2,1.7c0-0.4,0-0.8,0-1.2
					c-1.3,0.3-2.5,0.2-3.8-0.2c-0.4-0.1-0.9,0.3-0.7,0.7c0.2,0.7,0.3,0.7,0.7,1.3c0.1-0.3,0.2-0.7,0.3-1c-1.3,0.3-2.6,0.6-3.9,0.8
					c-0.7,0.1-0.5,1.2,0.2,1.2c0.9-0.1,1.7-0.1,2.6-0.2c0.8,0,0.8-1.2,0-1.2c-1.2,0-2.5,0-3.7-0.1c0,0.4,0,0.8,0,1.2
					c4.2-0.3,7.8-1.8,11-4.5c0.5-0.4,0-1.1-0.6-1c-1.5,0.3-2,1.1-2.7,2.5c-0.3,0.7,0.6,1.3,1,0.6c0.4-0.5,0.8-1.1,1.2-1.6
					c-0.3-0.1-0.7-0.3-1-0.4c-0.1,0.2-0.1,0.5-0.2,0.7c-0.4,0.6,0.6,1.2,1,0.6c0.4-0.6,0.4-0.6,0.3-1.3c-0.1-0.5-0.6-0.8-1-0.4
					c-0.9,1-0.7,0.8-1.4,1.9c0.3,0.2,0.7,0.4,1,0.6c0.3-0.9,1-1.6,2-1.9c-0.2-0.3-0.4-0.7-0.6-1c-3,2.5-6.3,3.9-10.2,4.2
					c-0.8,0.1-0.8,1.2,0,1.2c1.2,0,2.5,0,3.7,0.1c0-0.4,0-0.8,0-1.2c-0.9,0.1-1.7,0.1-2.6,0.2c0.1,0.4,0.1,0.8,0.2,1.2
					c1.3-0.2,2.6-0.4,3.9-0.8c0.5-0.1,0.6-0.7,0.3-1c-0.1-0.2-0.3-0.5-0.4-0.7c-0.2,0.2-0.5,0.5-0.7,0.7c1.5,0.4,2.9,0.5,4.4,0.2
					c0.6-0.1,0.5-1,0-1.2c-1-0.2-1.9-0.7-2.7-1.4c0,0.3-0.1,0.6-0.1,0.9c2.5-1.1,3-4,5-5.8c-0.3-0.3-0.6-0.6-0.8-0.8
					c-0.5,0.4-0.9,0.9-1.3,1.4c-0.5,0.6,0.3,1.4,0.8,0.8c0.3-0.4,0.6-0.7,0.9-1.1c-0.3-0.2-0.7-0.4-1-0.6c-0.2,0.6-0.4,1.2-0.6,1.8
					c-0.3,0.6,0.4,1.2,0.9,0.7c0.4-0.5,0.9-0.9,1.3-1.4c-0.3-0.2-0.6-0.5-0.9-0.7c-1.1,1.4-1.4,2.7-1.3,4.4c0.1,0.6,0.8,0.8,1.1,0.3
					c0.6-0.9,1-1.8,1.3-2.8c0.2-0.6-0.6-1-1-0.6c-0.8,0.8-1.2,1.5-1.5,2.6c-0.2,0.7,0.7,1,1.1,0.5c1-1.3,1.7-2.6,2.3-4.1
					c0.3-0.7-0.6-1.2-1-0.6c-1.3,1.6-2.5,3.3-3.8,4.9c-0.4,0.5,0.5,1.2,0.9,0.7c1.3-1.5,2.4-3.1,3.4-4.9c0.3-0.5-0.3-1.2-0.8-0.8
					c-1.8,1.3-3.4,2.8-5,4.4c-0.4,0.4,0,1.2,0.6,1c1.3-0.4,1.9-0.8,2.6-2c0.3-0.5-0.3-1.1-0.8-0.8c-2,1.2-3.7,2.6-5.3,4.3
					c-0.4,0.4,0,1.2,0.6,1c0.4-0.1,0.9-0.3,1.3-0.4c-0.1-0.4-0.2-0.8-0.3-1.2c-1.5,0.4-2.8,0.7-4.4,0.9c0.1,0.4,0.1,0.8,0.2,1.2
					c1.2-0.3,2.4-0.4,3.6-0.4c0-0.4,0-0.8,0-1.2c-0.9,0-1.8,0.1-2.8,0.1c-0.8,0-0.8,1.2,0,1.2c2.1,0,4.2-0.1,6.3-0.3
					c0.7-0.1,0.8-1,0.2-1.2c-1.2-0.4-1.9-0.3-3.1,0.3c-0.6,0.3-0.2,1.3,0.5,1.1c1.2-0.3,2.2-0.8,3.1-1.7c0.4-0.4,0-1.2-0.6-1
					c-1.2,0.3-1,0.2-1.9,1.1c0.3,0.3,0.6,0.6,0.8,0.8c1-1.2,2-2.4,3-3.6c0.4-0.5-0.1-1.3-0.7-0.9c-1.2,0.7-1.8,1.4-2.3,2.6
					c-0.2,0.5,0.3,1.2,0.8,0.8c1.5-1,2.5-2.2,3.2-3.9c0.2-0.5-0.5-1-0.9-0.7c-1.7,1.3-3,2.8-4,4.7c-0.3,0.5,0.3,1.1,0.8,0.8
					c1.2-0.6,2.1-1.4,2.8-2.6c0.3-0.4-0.2-1-0.7-0.9c-1.6,0.5-2.6,1.3-3.4,2.9c-0.2,0.4,0,0.9,0.5,0.9c2.5,0,0.2-4.7-2-0.7
					c-0.1,0.3-0.1,0.7,0.2,0.8c0.9,0.4,1.6,0.3,2.1-0.7c0.2-0.5-0.1-1-0.7-0.9c-1.2,0.2-3.4,0.6-3.3,2.1c0,0.2,0.2,0.5,0.4,0.6
					c1.4,0.2,2.2-0.7,2.6-1.9c0.1-0.5-0.3-0.8-0.7-0.7c-1.2,0.3-1.9,0.6-2.7,1.6c-0.3,0.3-0.2,0.7,0.1,0.9c0.8,0.5,0.8,0.5,1.7,0.2
					c0.8-0.2,0.4-1.3-0.3-1.2c-0.8,0.1-1.6,0.3-2.5,0.4c-0.7,0.1-0.4,1.1,0.2,1.2c0.6,0.1,1.2,0.1,1.8,0.2c-0.1-0.4-0.1-0.8-0.2-1.2
					c-0.6,0.1-1.2,0.2-1.8,0.3c-0.5,0.1-0.6,0.9-0.1,1.1c0.2,0.1,0.4,0.2,0.7,0.3c0.1-0.4,0.2-0.7,0.3-1.1c-0.4,0-0.9-0.1-1.3-0.1
					c0,0.4,0,0.8,0,1.2c0.7-0.3,1.5-0.4,2.4-0.4c0-0.4,0-0.8,0-1.2c-0.3,0-0.6,0-0.9,0c0.1,0.4,0.1,0.8,0.2,1.2
					c1.6-0.4,2.6-0.5,4.2-0.3c0-0.4,0-0.8,0-1.2c-0.2,0-0.4,0-0.7,0c0,0.4,0,0.8,0,1.2c0.9,0,1.8-0.1,2.6-0.1c0.5,0,0.7-0.5,0.5-0.9
					c-0.1-0.2-0.2-0.4-0.3-0.6c-0.2-0.4-0.7-0.4-0.9-0.1c-0.6,0.6-0.5,1.3,0.2,1.8c0.4,0.3,1.1-0.2,0.9-0.7c-0.1-0.3-0.2-0.7-0.4-1
					c-0.1-0.3-0.4-0.5-0.7-0.4c-0.6,0.1-0.7,0.2-1,0.7c-0.2,0.4,0,1,0.5,0.9c0.7-0.1,0.8-0.1,1.2-0.8c0.1-0.2,0.1-0.4,0-0.6
					c-0.4-0.6-0.5-0.7-1.2-0.7c-0.3,0-0.6,0.3-0.6,0.6c0.1,2.5,3.5,1.2,1.9-0.8c-0.2-0.3-0.6-0.2-0.8,0c0,0-0.1,0.1-0.1,0.1
					c-0.2,0.2-0.2,0.5-0.1,0.7c0,0.1,0.1,0.1,0.1,0.2c0.2,0.3,0.5,0.4,0.8,0.2c1.1-0.6,1.7-1.7,0.7-2.7c-0.2-0.1-0.4-0.2-0.6-0.2
					c-0.1,0-0.3,0.1-0.4,0.1c-0.2,0.1-0.4,0.2-0.4,0.4c0,0.1,0,0.3-0.1,0.4c-0.1,0.5,0.6,1.1,1,0.6c1.7-2,3-4.1,3.9-6.6
					c0.2-0.6-0.6-1-1-0.6c-0.8,0.8-1.1,1.4-1.4,2.4c-0.2,0.7,0.7,1,1.1,0.5c0.9-1.4,1.7-2.8,2.5-4.2c0.3-0.6-0.5-1.3-0.9-0.7
					c-0.7,0.8-1.1,1.5-1.3,2.6c-0.2,0.7,0.7,1.1,1.1,0.5c0.8-1.3,1.4-2.7,2-4.1c0.3-0.6-0.8-1-1.1-0.5c-0.5,0.9-0.5,0.9-0.9,1.9
					c-0.2,0.6,0.8,1.1,1.1,0.5c0.5-1.1,1-2.1,1.4-3.2c0.2-0.6-0.8-1.1-1.1-0.5c-0.1,0.3-0.3,0.6-0.4,0.9c0.3,0.2,0.7,0.4,1,0.6
					c0.1-0.2,0.2-0.4,0.3-0.6c0.3-0.7-0.6-1.3-1-0.6c-0.9,1.3-1.7,2.6-2.6,3.9c-0.2,0.3,0,0.8,0.4,0.9c0,0,0.1,0,0.1,0
					c0.3,0.1,0.7-0.1,0.7-0.4c0,0,0-0.1,0-0.1c0.1-0.4-0.2-0.8-0.6-0.8c-1.2,0.1-1.9,1.8-2.5,2.6c0.3,0.2,0.7,0.4,1,0.6
					c0.1-0.2,0.3-0.5,0.4-0.7c0.4-0.6-0.5-1.2-0.9-0.7c-1,1-1.9,1.9-3.1,2.8c-0.6,0.5,0,1.5,0.6,1c0.7-0.5,1.4-1,2.2-1.5
					c-0.2-0.3-0.5-0.6-0.7-0.9c-0.2,0.2-0.3,0.3-0.5,0.5c-0.5,0.5,0.2,1.3,0.7,0.9c0.9-0.6,0.8-0.6,1.6-1.3
					c-0.3-0.3-0.6-0.6-0.8-0.8c-1,1.1-2,2-3.2,2.9c-0.6,0.5-0.1,1.4,0.6,1c0.8-0.5,1.4-1,2.1-1.6c0.5-0.5-0.2-1.3-0.7-0.9
					c-1.3,0.9-2.5,1.8-3.8,2.7c0.2,0.3,0.5,0.6,0.7,0.9c0.5-0.4,0.9-0.8,1.4-1.2c0.5-0.4-0.2-1.3-0.7-0.9c-1,0.6-2,1.3-3,1.9
					c0.2,0.3,0.4,0.7,0.6,1c0.6-0.3,1.2-0.7,1.8-1c-0.2-0.4-0.3-0.7-0.5-1.1c-2.1,1.1-4.2,2-6.5,2.7c-0.7,0.2-0.5,1.1,0.2,1.2
					c1.4,0.1,1,0.1,2.4-0.1c-0.1-0.4-0.2-0.8-0.3-1.2c-1,0.3-2,0.5-3,0.8c-0.6,0.1-0.6,1,0,1.2c1.3,0.3,2.2,0.2,3.3-0.6
					c0.5-0.4,0.2-1.3-0.5-1.1c-1.1,0.3-2.3,0.6-3.4,0.9c-0.4,0.1-0.6,0.7-0.3,1c0.8,0.6,1.6,0.6,2-0.4c-0.4-0.2-0.7-0.3-1.1-0.5
					c0,0.1,0,0.2-0.1,0.4c0,0.2,0,0.6,0.3,0.7c0.1,0.1,0.2,0.1,0.3,0.2C113,95.3,113.6,94.3,112.9,93.9L112.9,93.9z"/>
			</g>
		</g>
		<g>
			<g>
				<path class="st0" d="M87.8,39.6c-0.1,0-0.3,0-0.4-0.1c-0.3-0.2-0.8,0-0.9,0.4c-0.3,0.5-0.6,1-0.8,1.5c-0.4,0.2-0.7,0.3-1.1,0.5
					c0,0-0.9,0.8-0.9,0.8c-0.5,0.4,0,1.2,0.6,1c0.9-0.1,1.7-0.1,2.6-0.2c0-0.4,0-0.8,0-1.2c-0.4-0.1-0.7-0.1-1.1-0.2
					c0,0.4-0.1,0.7-0.1,1.1c0.4,0,0.9,0.1,1.3,0.1c0.6,0.2,1.3-0.5,0.7-0.9c0.5,0.4,0.9,0.7,1.4,1.1c0.3-0.3,0.6-0.6,0.8-0.8
					c0,0.2,0,0.4-0.1,0.6c0.2,0.3,0.7,0.4,0.9,0.1c0,0-0.1,0-0.1-0.1c0.4-0.1,0.8-0.1,1.2-0.2c-0.1,0.1-0.2,0.2-0.3,0.3
					c-0.1,0.6,0.7,1.1,1.1,0.5c0.1,0.2,0.1,0.4,0.2,0.6c0.2,0.5,1,0.3,1.1-0.1c0.1-0.3,0.2-0.6,0.2-1c-0.4,0-0.7,0.1-1.1,0.1
					c0.1,0.2,0.2,0.5,0.4,0.7c0.2,0.4,1,0.4,1.1-0.1c-0.1,0.9,3.1-1,2.4-0.6c0.6-0.3,0.2-1.1-0.3-1.1c-0.6-0.1-1.2-0.1-1.8-0.2
					c0,0.4,0,0.8,0,1.2c1.4-0.2,2.7-0.1,4.1,0.3c0.1-0.4,0.1-0.8,0.2-1.2c-0.6-0.1-1.1-0.2-1.7-0.3c-0.1,0.4-0.1,0.8-0.2,1.2
					c0.2-0.2,0.4-0.4,0.6-0.7c-0.2,0.4-0.3,0.7-0.5,1.1c1.4,0.4,2.3,0.3,3.7-0.1c0.7-0.3,0.4-1.3-0.3-1.2c-0.6,0.1-1.2,0.1-1.8,0.2
					c0.1,0.4,0.1,0.8,0.2,1.2c1-0.2,2-0.4,3.1-0.6c-0.1-0.4-0.2-0.8-0.3-1.2c-1.2,0.6-2.5,0.8-3.8,0.4c0.1,0.4,0.1,0.8,0.2,1.2
					c3.1-1.3,1.4,0.5,5.8-0.1c1.1-0.2,1.3-0.2,2.3-0.9c0.7-0.4,0.1-1.3-0.6-1c-0.5,0.2-0.9,0.4-1.4,0.6c0.2,0.3,0.4,0.7,0.6,1
					c0.5-0.1,1.1-0.3,1.6-0.4c-0.1-0.4-0.1-0.8-0.2-1.2c0.9-0.3,1.8-0.4,2.7-0.2c-0.1-0.4-0.2-0.7-0.3-1.1c-0.5,0.1-1,0.3-1.5,0.4
					c-0.7,0-0.8,1.1-0.2,1.2c-0.2-0.1-0.4-0.2-0.6-0.4c0,0.4,0.1,0.7,0.1,1.1c0.8,0.1,1.5,0.1,2.3,0.2c0.2-0.4,0.3-0.7,0.5-1.1
					c-0.4-0.1-0.8-0.3-1.2-0.4c-0.6-0.2-1.1,0.8-0.5,1.1c0.5,0.3,0.9,0.5,1.4,0.8c0.2-0.4,0.3-0.7,0.5-1.1c-0.4-0.1-0.9-0.3-1.3-0.4
					c-0.1,0.4-0.1,0.8-0.2,1.2c2.5,0.2,1.5,0.5,4.2,0.3c0-0.4,0-0.8,0-1.2c-0.5,0.1-1.1,0.1-1.6,0.2c0.1,0.4,0.2,0.7,0.3,1.1
					c0.4-0.1,0.8-0.3,1.1-0.4c-0.1-0.4-0.1-0.8-0.2-1.2c-3.2,1,2,0.4,1.7,0.3c0.6,0.3,1-0.8,0.5-1.1c-0.4-0.2-0.7-0.4-1.1-0.6
					c0,0.4-0.1,0.7-0.1,1.1c0.6,0,1.2-0.1,1.9-0.1c0-0.4,0-0.8,0-1.2c-1.9,0.4-1.2,0.2-3,1.1c-0.5,0.3-0.3,1.2,0.3,1.1
					c1.7-0.1,1.3,0,2.9-0.7c-0.2-0.3-0.5-0.6-0.7-0.9c-0.5,0.2-1,0.5-1.4,0.7c0.2,0.4,0.3,0.7,0.5,1.1c-1,0.5,2.7-1.4,2.3-1.2
					c0.3,0.2,0.6,0.5,0.9,0.7c0.3,0.3,0.6,0.5,0.8,0.8c0.3-0.3,0.5-0.5,0.8-0.8c-0.1,0.1-0.1,0.2-0.2,0.3c0-0.4-0.1-0.7-0.1-1.1
					c-0.4,0-0.8,0.1-1.2,0.1c0.1-0.5-0.4-0.9-0.9-0.7c-0.2-0.5-0.4-1-0.6-1.6c-0.3-0.7-1.3-0.1-1,0.6c1.8,4.1,4.9,0.3,2.2-0.5
					c-2.7-0.8-2.9,3.9,0.1,2.5c-0.3-0.2-0.6-0.5-0.9-0.7c-0.1,0.2-0.1,0.5-0.2,0.7c-0.1,0.2,0,0.4,0.2,0.6c1.1,1,1.7,0.9,3-0.1
					c0.4-0.3,0.4-1-0.1-1.1c-0.2,0-0.5-0.1-0.7-0.1c-0.4-0.1-0.7,0.2-0.8,0.6c0,0.1,0,0.2,0,0.3c0,0.2,0.1,0.4,0.3,0.5
					c0.1,0,0.2,0.1,0.3,0.1c0.3,0.1,0.7,0.1,0.8-0.2c0-0.1,0.1-0.2,0.1-0.2c0.1-0.2,0.1-0.5-0.1-0.7c-0.1-0.1-0.1-0.1-0.2-0.2
					c-0.2-0.2-0.5-0.3-0.7-0.1c-0.9,0.7-0.5,1.3,0.3,1.9c0.5,0.4,1.1-0.3,0.8-0.8c-0.8-1.2-0.7-1.1-2.1-1.7
					c-0.5-0.2-0.8,0.3-0.7,0.7c0,0.3,0.1,0.5,0.1,0.8c0.1,0.4,0.6,0.6,0.9,0.4c0.2-0.1,0.4-0.2,0.5-0.4c0.2-0.2,0.4-0.5,0.2-0.8
					c-0.4-0.5-0.5-0.6-1.1-0.7c-0.3-0.1-0.7,0.1-0.7,0.4c0,0.3-0.1,0.6-0.1,0.8c-0.1,0.5,0.4,1,0.9,0.7c0.2-0.1,0.4-0.2,0.6-0.3
					c0.2-0.1,0.3-0.3,0.3-0.5c0-0.2,0-0.4,0-0.6c0-0.3-0.2-0.5-0.4-0.6c-0.2-0.1-0.4-0.1-0.6-0.2c-0.2-0.1-0.4,0-0.6,0.2
					c0.6-0.6-3.2,1.5-2.7,1.2c-0.6,0.3-0.2,1.2,0.5,1.1c1.3-0.3,1-0.1,2-1c0.5-0.5-0.1-1.2-0.7-0.9c-0.8,0.2-1.5,0.4-2.3,0.6
					c0.1,0.4,0.2,0.7,0.3,1.1c0.9-0.3,1.8-0.6,2.7-1c0.6-0.1,0.6-1.1,0-1.2c-1.4-0.2-1.1-0.3-2.5,0.1c-0.5,0.1-0.6,0.8-0.1,1.1
					c0.4,0.2,0.7,0.4,1.1,0.6c0.2-0.4,0.3-0.7,0.5-1.1c-1.7-0.7-4.4-0.2-5,1.8c-0.1,0.4,0.2,0.8,0.6,0.8c1.6-0.1,1.1,0,2.7-0.5
					c0.6-0.2,0.5-1.2-0.2-1.2c-1,0-0.9,0-1.8,0.5c-0.5,0.3-0.3,1.2,0.3,1.1c0.5-0.1,1.1-0.1,1.6-0.2c0.7-0.1,0.8-1.3,0-1.2
					c-1.5,0.1-2.8-0.2-4.2-0.3c-0.7-0.1-0.8,1-0.2,1.2c0.4,0.1,0.9,0.3,1.3,0.4c0.6,0.2,1.1-0.8,0.5-1.1c-0.5-0.3-0.9-0.5-1.4-0.8
					c-0.2,0.4-0.3,0.7-0.5,1.1c0.4,0.1,0.8,0.3,1.2,0.4c0.7,0.2,1-0.8,0.5-1.1c-1.3-0.8-2.1-0.8-3.5-0.2c-0.5,0.2-0.3,0.9,0.1,1.1
					c1.2,0.4,1.9,0.2,2.7-0.7c0.3-0.3,0.2-0.9-0.3-1c-0.4-0.1-0.8-0.1-1.2-0.2c-0.1,0.4-0.1,0.8-0.2,1.2c1.3,0.1,1,0.2,2.1-0.6
					c0.5-0.3,0.3-1.1-0.3-1.1c-2.1-0.2-3.6,0.2-5.4,1.1c-0.4,0.2-0.3,0.8,0,1c1.1,0.9,1.8,0.9,3.1,0.4c0.6-0.2,0.6-1.2-0.2-1.2
					c-1.2,0.1-1.1,0.1-2.2,0.6c-0.7,0.3-0.1,1.3,0.6,1c0.5-0.2,0.9-0.4,1.4-0.6c-0.2-0.3-0.4-0.7-0.6-1c-0.8,0.4-1.6,0.7-2.5,0.9
					c-0.3,0.1-0.5,0.4-0.4,0.7c0,0.1,0,0.1,0.1,0.2c0.1,0.3,0.4,0.5,0.7,0.4c0.1,0,0.1,0,0.2,0c0.4-0.1,0.6-0.7,0.3-1
					c-2.2-2.1-3.4-1.5-6.1-0.4c-0.6,0.3-0.5,1.1,0.2,1.2c1.6,0.2,2.6,0.1,4.1-0.5c0.7-0.3,0.4-1.3-0.3-1.2c-1,0.2-2,0.4-3.1,0.6
					c-0.7,0.1-0.5,1.2,0.2,1.2c1.2,0,1,0,2.2-0.2c-0.1-0.4-0.2-0.8-0.3-1.2c-1,0-2,0.1-3.1,0.1c-0.6-0.2-1.1,0.8-0.5,1.1
					c0.8,0.4,0.9,0.4,1.7-0.1c0.4-0.2,0.4-0.8,0-1c-0.8-0.6-0.7-0.6-1.7-0.5c-0.7,0.1-0.8,1-0.2,1.2c1.1,0.4,0.8,0.3,2,0.3
					c0.7,0,0.8-1,0.2-1.2c-1.5-0.3-2.8-0.4-4.4-0.3c-0.8,0.1-0.8,1.1,0,1.2c0.6,0.1,1.2,0.1,1.8,0.2c-0.1-0.4-0.2-0.7-0.3-1.1
					c-0.8,0.1-1.5,0.3-2.3,0.4c-0.2,0-0.5,0.2-0.6,0.4c0,0.2,0,0.3-0.1,0.5c0.4,0,0.7-0.1,1.1-0.1c-0.1-0.2-0.2-0.5-0.4-0.7
					c-0.2-0.5-1-0.4-1.1,0.1c-0.1,0.3-0.2,0.6-0.2,1c0.4,0,0.7-0.1,1.1-0.1c-0.1-0.3-0.3-0.6-0.4-1c-0.1-0.2-0.3-0.3-0.5-0.3
					c-0.2,0-0.3,0-0.5,0c-0.2,0-0.4,0.1-0.5,0.3c-0.1,0.1-0.2,0.3-0.2,0.4c0.4,0.2,0.7,0.3,1.1,0.5c0.3-1.8-1.5-2.6-2.3-0.9
					c-0.2,0.4,0,1,0.5,0.9c0.2,0,0.4,0,0.5-0.1c0.3,0,0.5-0.2,0.6-0.4c0.1-0.2,0.1-0.3,0.2-0.5c0.2-0.4-0.3-0.9-0.7-0.7
					c-0.1,0.1-0.3,0.1-0.4,0.2c-0.3,0.1-0.5,0.4-0.4,0.7c0,0.2,0.1,0.3,0.1,0.5c0.1,0.7,1.2,0.5,1.2-0.2c0-1.3-1.5-1.3-1.5-1.2
					c-0.2-0.2-0.4-0.3-0.7-0.3c-0.2,0-0.5,0.1-0.7,0.1c-0.3,0-0.4,0.3-0.4,0.6c0,0.5,0,0.7,0.4,1c0.6,0.5,1.3-0.2,0.8-0.8
					c-0.7-0.8-1.5-1.3-2.1-0.2c-0.2,0.3-0.1,0.7,0.2,0.8c0.1,0.1,0.2,0.1,0.3,0.2c0.3,0.2,0.6,0.1,0.8-0.2c0.1-0.1,0.1-0.2,0.2-0.2
					c0.2-0.3,0-0.8-0.4-0.9c-1.1-0.3-0.9-0.3-1.8-0.3c-0.3,0-0.5,0.2-0.6,0.4c0,0.1-0.1,0.2-0.1,0.3c-0.1,0.2,0,0.5,0.2,0.6
					c0.1,0.1,0.1,0.1,0.2,0.2c0.2-0.3,0.5-0.6,0.7-0.9c-1.1-0.5-1.1-0.5-2.2-0.2c-0.5,0.1-0.6,0.9-0.1,1.1c1,0.5,1,0.5,2,0.3
					c0.6-0.1,0.6-1.1,0-1.2C85.3,42,85.9,42,84,42.5c0.2,0.3,0.4,0.7,0.6,1c0.9-0.8,0.8-0.3,1.3-1.3c0.1-0.2,0.1-0.4,0-0.6
					c-0.1-0.1-0.2-0.2-0.3-0.4c-0.4-0.5-1.3-0.2-1.1,0.5c0.1,0.2,0.1,0.4,0.2,0.6c0.1,0.4,0.5,0.5,0.9,0.4c1.7-0.8,1.3-1.5,2.5-2
					C88.9,40.5,88.6,39.4,87.8,39.6L87.8,39.6z"/>
			</g>
		</g>
		<g>
			<g>
				<path class="st0" d="M76.8,46.2c0.4-1,0.7-2,1.1-3c-0.9-0.5-1.7-1-2.6-1.5c-0.5,1.3-1.2,2.5-2.3,3.4c0.8,0.5,1.7,1,2.5,1.5
					c0.6-1.1,1.2-2.2,1.7-3.2c-0.8-0.5-1.7-1-2.5-1.5c-0.1,1-0.4,2-0.8,3c-0.6,1.7,1.8,2.5,2.7,1.2c0.7-1,1.4-2,2.1-2.9
					c-0.9-0.5-1.7-1-2.6-1.5c-0.5,1.2-1.1,2.3-1.8,3.4c-1,1.7,1.6,3.2,2.6,1.5c0.7-1.2,1.5-2.4,2.4-3.5c-0.8-0.6-1.6-1.2-2.4-1.8
					c-0.6,1.4-1.2,2.5-2,3.8c0.9,0.5,1.7,1,2.6,1.5c0.5-1.2,1.2-2.3,2.1-3.3c-0.8-0.6-1.6-1.2-2.4-1.8c-0.6,1.2-1.2,2.3-1.8,3.4
					c-1,1.7,1.5,3.1,2.6,1.5c1-1.5,2.2-3,3.4-4.4c-0.8-0.6-1.6-1.2-2.4-1.8c-1,2.3-2.2,4.4-3.7,6.4c0.9,0.5,1.7,1,2.6,1.5
					c1.2-2,2.4-3.9,3.6-5.9c-0.9-0.5-1.7-1-2.6-1.5c-2.5,4.3-6.3,7.6-8.6,12c0.9,0.5,1.7,1,2.6,1.5c0.9-1.8,1.7-3.6,2.6-5.4
					c-0.9-0.4-1.8-0.8-2.7-1.2c-1.1,2.9-2.4,5.7-3.9,8.4c0.9,0.4,1.8,0.8,2.7,1.2c0.5-2.1,1-4.3,1.5-6.4c-1-0.3-1.9-0.5-2.9-0.8
					c-0.6,3.2-1.3,6.3-2.1,9.4c1,0.1,2,0.3,2.9,0.4c-0.2-1.8-0.2-3.6-0.2-5.4c-1,0-2,0-3,0c0.2,4-0.1,7.7-1,11.6
					c0.8-0.2,1.7-0.4,2.5-0.7c-0.2-0.1-0.3-0.3-0.5-0.4c-1.2-1-2.8-0.1-2.5,1.5c1.1,6.2,1.7,12.5,1.7,18.8c0.9-0.4,1.7-0.7,2.6-1.1
					c-3.4-2.8-3.8-10-4.5-14c-0.8-4.8-1.2-9.2,0.1-13.9c2.4-8.4,7.5-15.6,14.1-21.3c-0.8-0.6-1.6-1.2-2.4-1.8
					c-3.6,6.1-7.3,12.2-10.9,18.3c0.9,0.4,1.8,0.8,2.7,1.2c1.5-3.8,3.4-7.3,5.7-10.7c-0.9-0.5-1.7-1-2.6-1.5
					c-1.9,3.7-3.9,7.3-6.2,10.7c0.9,0.5,1.7,1,2.6,1.5c1.5-3.4,3.3-6.5,5.6-9.4c-0.9-0.4-1.8-0.8-2.7-1.2c-1.6,4-3.4,7.9-5.3,11.7
					c0.9,0.3,1.9,0.5,2.8,0.8c0-0.8-0.1-1.6-0.1-2.4c-0.1-1.6-2.6-2.1-2.9-0.4c-0.7,3.2-0.6,6.6-0.8,9.8c1,0,2,0,3,0
					c0.1-2.1,0-4.1-0.4-6.2c-0.3-1.4-2.6-1.4-2.9,0c-0.6,3.1-1.1,6.2-1.7,9.4c1,0.1,2,0.3,2.9,0.4c0-2.2,0.1-4.4,0.3-6.6
					c-1,0-2,0-3,0c-0.2,3.1-0.2,6.1,0.1,9.2c0.2,1.9,3.1,1.9,3,0c-0.2-2-0.2-3.8,0-5.8c-1,0-2,0-3,0c-0.1,3.4,0.1,6.6,0.5,10
					c1-0.1,2-0.3,2.9-0.4c-0.3-1.6-0.5-3.2-0.8-4.7c-1,0.3-1.9,0.5-2.9,0.8c0.6,3.4,1.1,6.8,1.7,10.2c0.3,1.6,3.2,1.3,2.9-0.4
					c-0.3-2.3-0.7-4.5-1.2-6.7c-1,0.3-1.9,0.5-2.9,0.8c1,2.4,1.9,4.8,2.9,7.2c0.7,1.7,3.4,1.1,2.9-0.8c-0.4-1.4-0.8-2.9-1.1-4.3
					c-0.9,0.4-1.8,0.8-2.7,1.2c0.9,1.7,1.7,3.4,2.4,5.2c0.6,1.5,3.1,1.4,2.9-0.4c0-0.4-0.1-0.8-0.1-1.2C71,78.5,70,78.7,69.1,79
					c0.2,0.4,0.3,0.8,0.5,1.2c0.7,1.6,3.3,0.4,2.7-1.2c-0.6-1.5-0.9-3-1.1-4.6c-1,0.1-2,0.3-2.9,0.4c0.5,1.5,0.9,2.9,1.2,4.4
					c1-0.3,1.9-0.5,2.9-0.8c-0.6-2.3-1.1-4.6-1.5-7c-0.4-1.9-3.2-1.1-2.9,0.8c0.1,0.8,0.2,1.6,0.4,2.5c0.3,1.7,2.9,1.2,2.9-0.4
					c0.1-1.9,0.2-3.6,0.4-5.5c-1,0-2,0-3,0c0,2,0.1,4,0.2,6c1-0.1,2-0.3,2.9-0.4c-0.8-4.7-0.5-9.1,0.7-13.7c-1-0.1-2-0.3-2.9-0.4
					c-0.4,3.1-0.8,6.1-1.2,9.2c1,0,2,0,3,0c0.2-5.7,1.3-11.1,3.2-16.5c-1-0.3-1.9-0.5-2.9-0.8c-0.9,2.6-1.5,5.2-1.9,7.9
					c1,0.3,1.9,0.5,2.9,0.8c0.6-4.3,2.5-7.9,4.6-11.6c1-1.7-1.5-3.1-2.6-1.5c-1.9,2.8-3.2,5.7-4.2,9c-0.5,1.6,1.9,2.7,2.7,1.2
					c1.9-3.6,3.9-7.2,5.8-10.8c0.9-1.7-1.5-3.1-2.6-1.5c-0.3,0.4-0.6,0.8-0.8,1.2c-1.1,1.6,1.5,3.1,2.6,1.5c0.3-0.4,0.6-0.8,0.8-1.2
					c-0.9-0.5-1.7-1-2.6-1.5c-1.9,3.6-3.9,7.2-5.8,10.8c0.9,0.4,1.8,0.8,2.7,1.2c0.9-3,2.2-5.6,3.9-8.3c-0.9-0.5-1.7-1-2.6-1.5
					c-2.2,3.9-4.3,7.8-4.9,12.3c-0.3,1.9,2.6,2.7,2.9,0.8c0.4-2.7,1.1-5.3,1.9-7.9c0.6-1.8-2.3-2.6-2.9-0.8c-2,5.6-3,11.4-3.3,17.3
					c-0.1,2,2.8,1.9,3,0c0.4-3.1,0.8-6.1,1.2-9.2c0.2-1.7-2.5-2-2.9-0.4C68.4,65,68.2,70,69,75.2c0.3,1.7,3.1,1.3,2.9-0.4
					c-0.1-2-0.2-4-0.2-6c0-2-2.8-1.9-3,0c-0.2,1.8-0.4,3.6-0.4,5.5c1-0.1,2-0.3,2.9-0.4c-0.1-0.8-0.2-1.6-0.4-2.5
					C70,71.7,69,72,68,72.3c0.4,2.3,0.9,4.7,1.5,7c0.5,1.9,3.3,1.1,2.9-0.8c-0.3-1.5-0.7-3-1.2-4.4c-0.5-1.5-3.2-1.4-2.9,0.4
					c0.2,1.9,0.6,3.6,1.2,5.4c0.9-0.4,1.8-0.8,2.7-1.2c-0.2-0.4-0.3-0.8-0.5-1.2c-0.6-1.4-2.9-0.7-2.8,0.8c0,0.4,0.1,0.8,0.1,1.2
					c1-0.1,2-0.3,2.9-0.4c-0.8-2-1.7-4-2.7-5.9c-0.8-1.5-3.2-0.5-2.7,1.2c0.4,1.4,0.8,2.9,1.1,4.3c1-0.3,1.9-0.5,2.9-0.8
					c-1-2.4-1.9-4.8-2.9-7.2c-0.7-1.8-3.3-1.1-2.9,0.8c0.5,2,0.8,3.9,1.1,5.9c1-0.1,2-0.3,2.9-0.4c-0.6-3.4-1.1-6.8-1.7-10.2
					c-0.3-1.9-3.2-1.1-2.9,0.8c0.3,1.6,0.5,3.2,0.8,4.7c0.3,1.6,3.2,1.3,2.9-0.4c-0.4-3.3-0.6-6.6-0.5-10c0.1-1.9-2.9-1.9-3,0
					c-0.1,2-0.1,3.8,0,5.8c1,0,2,0,3,0c-0.2-3.1-0.3-6.1-0.1-9.2c0.1-1.9-2.8-1.9-3,0c-0.2,2.2-0.3,4.4-0.3,6.6
					c0,1.6,2.6,2.1,2.9,0.4c0.6-3.1,1.1-6.2,1.7-9.4c-1,0-1.9,0-2.9,0C66,58,66,59.7,66,61.5c-0.1,1.9,2.9,1.9,3,0
					c0.1-2.9,0-6.1,0.6-9c-1-0.1-2-0.3-2.9-0.4c0,0.8,0.1,1.6,0.1,2.4c0.1,1.4,2.1,2.2,2.8,0.8c2.1-4.1,3.9-8.2,5.6-12.5
					c0.7-1.7-1.8-2.4-2.7-1.2c-2.3,3-4.1,6-5.6,9.4c-0.8,1.7,1.5,3.2,2.6,1.5c2.3-3.5,4.3-7,6.2-10.7c0.9-1.7-1.5-3.1-2.6-1.5
					c-2.5,3.6-4.4,7.3-6,11.4c-0.6,1.6,1.9,2.6,2.7,1.2c3.7-6.1,7.3-12.2,10.9-18.3c0.9-1.5-1.1-2.9-2.4-1.8
					c-7.7,6.6-13.8,15.8-15.6,25.9c-0.9,4.6,0.1,9.4,1,14c0.9,4.4,1.3,10.6,5,13.6c1,0.8,2.6,0.3,2.6-1.1
					c-0.1-6.6-0.7-13.1-1.9-19.6c-0.8,0.5-1.7,1-2.5,1.5c0.2,0.1,0.3,0.3,0.5,0.4c0.8,0.7,2.2,0.5,2.5-0.7c0.9-4.1,1.3-8.2,1.1-12.4
					c-0.1-1.9-2.9-1.9-3,0c0,1.8,0,3.6,0.2,5.4c0.2,1.6,2.5,2.1,2.9,0.4c0.8-3.1,1.5-6.2,2.1-9.4c0.3-1.9-2.5-2.7-2.9-0.8
					c-0.5,2.1-1,4.3-1.5,6.4c-0.4,1.6,1.9,2.7,2.7,1.2c1.6-3,2.9-6,4.2-9.1c0.6-1.6-2-2.7-2.7-1.2c-0.9,1.8-1.7,3.6-2.6,5.4
					c-0.8,1.7,1.7,3.2,2.6,1.5c2.3-4.4,6.1-7.7,8.6-12c1-1.7-1.6-3.2-2.6-1.5c-1.2,2-2.4,3.9-3.6,5.9c-1,1.7,1.5,3,2.6,1.5
					c1.5-2,2.7-4.1,3.7-6.4c0.6-1.4-1.1-3.2-2.4-1.8c-1.4,1.6-2.7,3.2-3.8,5c0.9,0.5,1.7,1,2.6,1.5c0.7-1.1,1.3-2.3,1.8-3.4
					c0.7-1.4-1.2-3.2-2.4-1.8c-1,1.3-1.8,2.4-2.5,3.9c-0.8,1.7,1.6,3.2,2.6,1.5c0.8-1.2,1.4-2.4,2-3.8c0.6-1.4-1.2-3.3-2.4-1.8
					c-1,1.3-2,2.6-2.9,4.1c0.9,0.5,1.7,1,2.6,1.5c0.7-1.1,1.2-2.2,1.8-3.4c0.8-1.8-1.5-3.1-2.6-1.5c-0.7,1-1.4,2-2.1,2.9
					c0.9,0.4,1.8,0.8,2.7,1.2c0.4-1,0.7-2,0.8-3c0.3-1.3-1.5-2.7-2.5-1.5c-1.3,1.5-2,2.7-2.5,4.6c-0.4,1.4,1.5,2.5,2.5,1.5
					c1.2-1.3,2-2.4,2.8-4c0.8-1.7-1.6-3.2-2.6-1.5c-0.9,1.5-1.3,2.8-1.5,4.5C73.5,48.2,76.5,48.1,76.8,46.2L76.8,46.2z"/>
			</g>
		</g>
		<g>
			<g>
				<path class="st0" d="M127.8,44c-1.3-1.8-2.7-3.4-4.3-4.9c-1.2-1.2-3.3,0.3-2.4,1.8c1.1,1.7,2.2,3.5,3.3,5.2
					c1,1.6,3.6,0.1,2.6-1.5c-1.1-1.9-2.4-3.5-3.9-5.2c-0.7,0.7-1.4,1.4-2.1,2.1c0.9,0.8,1.8,1.7,2.7,2.5c0.5-0.8,1-1.7,1.5-2.5
					c-2.2-0.5-3.9-1.3-5.7-2.8c-0.4,0.9-0.7,1.7-1.1,2.6c2.5,0.3,4.4,3.7,5.4,5.6c0.9-0.5,1.7-1,2.6-1.5c-1-1.5-1.9-3.1-2.9-4.6
					c-0.9,0.5-1.7,1-2.6,1.5c1.4,1.9,2.8,3.8,4,5.7c1,1.6,3.5,0.2,2.6-1.5c-1.8-3.3-3.6-6.6-5.3-9.9c-0.7,0.7-1.4,1.4-2.1,2.1
					c2.6,1.2,4.1,3.2,5.8,5.5c1.1,1.6,3.4,0.2,2.6-1.5c-1.2-2.7-2.5-5.4-3.7-8.1c-0.8,0.6-1.6,1.2-2.4,1.8c1.4,1.4,2.4,2.9,3.3,4.7
					c0.9-0.5,1.7-1,2.6-1.5c-1.7-2.7-3.4-5.5-5.1-8.2c-0.7,0.7-1.4,1.4-2.1,2.1c4,2.9,6,7.1,7.6,11.6c0.9-0.4,1.8-0.8,2.7-1.2
					c-3.6-4.8-7.5-9.5-10.5-14.7c-0.7,0.7-1.4,1.4-2.1,2.1c5.1,2.7,6.5,8.2,8.4,13.3c1.7,4.7,3.2,9.7,4.2,14.6
					c2.2,11.2-3.7,24.7-10.2,33.7c-1,1.4,0.9,2.6,2.1,2.1c0.3-0.1,0.6-0.3,0.9-0.4c-0.6-0.8-1.2-1.6-1.8-2.4
					c-0.3,0.4-0.6,0.7-0.9,1.1c-0.9,1-0.1,3,1.5,2.5c3.3-1.1,3.8-4.6,6.1-6.9c-0.8-0.5-1.7-1-2.5-1.5c-0.4,1.4-1.1,2.4-2.2,3.1
					c0.8,0.6,1.6,1.2,2.4,1.8c1.2-2.5,2.5-4.8,4.1-7.1c-0.9-0.4-1.8-0.8-2.7-1.2c-0.2,0.7-0.4,1.4-0.6,2.1c-0.8,1.7,1.6,3.2,2.6,1.5
					c1.7-2.7,3.1-5.4,4.5-8.3c0.6-1.3-0.7-2.9-2.1-2.1c-1.2,0.8-2.1,1.6-2.9,2.8c0.9,0.3,1.9,0.5,2.8,0.8c0.1-2,0.3-4,0.5-5.9
					c0.2-1.5-2.2-2.1-2.8-0.8c-0.5,1-0.9,2-1.4,3c0.9,0.4,1.8,0.8,2.7,1.2c1.2-5.3,2.1-10.8,1.4-16.3c-0.7-5.7-3.6-10.7-6.1-15.8
					c-0.8,0.6-1.6,1.2-2.4,1.8c2.8,3.5,4.5,7.4,5.3,11.8c0.9-0.4,1.8-0.8,2.7-1.2c-1-1.3-1.5-2.7-1.6-4.3c-1,0.3-1.9,0.5-2.9,0.8
					c0.2,0.9,0.4,1.8,0.6,2.6c1-0.3,1.9-0.5,2.9-0.8c-1-2.9-2-5.9-2.9-8.9c-1,0.3-1.9,0.5-2.9,0.8c0.9,2.6,2,5.2,3.2,7.7
					c0.8,1.6,3.1,0.4,2.7-1.2c-0.8-3.2-1.5-6.4-2.3-9.5c-0.9,0.4-1.8,0.8-2.7,1.2c1.5,2.3,2.6,4.7,3.3,7.4c0.5,1.9,3.4,1.1,2.9-0.8
					c-0.7-2.4-2.3-6-1.6-8.5c-0.9,0.1-1.8,0.2-2.7,0.4c2.6,4.2,2.6,9.3,4.2,13.9c0.6,1.8,3.2,1.1,2.9-0.8c-0.6-3.2-1.2-6.5-1.8-9.7
					c-1,0.3-1.9,0.5-2.9,0.8c1,2.7,1.5,5.3,1.7,8.2c1,0,2,0,3,0c-0.2-2-0.5-4-0.7-6c-1,0.1-2,0.3-2.9,0.4c0.7,2.2,1.2,4.5,1.8,6.8
					c0.4,1.9,3.2,1.1,2.9-0.8c-0.2-1.4-0.5-2.8-0.7-4.2c-1,0.3-1.9,0.5-2.9,0.8c0.4,1.5,0.8,3,1.2,4.5c0.5,1.6,2.9,1.3,2.9-0.4
					c0.1-2.9-0.4-5.4-1.4-8c-0.7-1.8-3.5-1.1-2.9,0.8c0.5,1.6,0.9,3.1,1.2,4.8c0.3,1.7,3,1.3,2.9-0.4c-0.1-1.9-0.3-3.8-0.7-5.7
					c-0.4-1.9-3.2-1.1-2.9,0.8c0.3,1.9,0.3,1.8,1.1,3.6c0.7,1.6,3.3,0.4,2.7-1.2c-1.7-5.1-4-9.9-7-14.4c-0.8,0.6-1.6,1.2-2.4,1.8
					c0.3,0.5,0.6,1.1,0.9,1.6c0.9-0.4,1.8-0.8,2.7-1.2c-0.6-1-1.2-2-1.8-3c-0.9,0.5-1.7,1-2.6,1.5c4.2,5.7,6.4,12.3,5.9,19.4
					c-0.5,6.5-4,13-3.6,19.5c0.1,1.3,1.6,2,2.6,1.1c1.6-1.5,2.5-3,3-5.1c0.5-1.9-2.3-2.6-2.9-0.8c-0.4,1.2-0.8,2.5-1.2,3.7
					c-0.5,1.6,2,2.7,2.7,1.2c1-2.1,2-4.1,2.9-6.2c-0.9-0.4-1.8-0.8-2.7-1.2c-0.7,2-1.4,3.9-2.2,5.9c-0.6,1.6,2,2.7,2.7,1.2
					c3.3-7.1,4.5-14.4,3.4-22.1c-0.2-1.9-3-2-3,0c-0.1,4.3-0.3,8.4-1.9,12.5c1,0.1,2,0.3,2.9,0.4c0.3-1,0.5-2.1,0.8-3.1
					c-0.9,0-1.7,0-2.6,0c0.1,0.7,0.1,1.4,0.2,2.1c1-0.1,2-0.3,2.9-0.4c0.1-1.5,0.1-3,0.2-4.6c-1,0-1.9,0-2.9,0
					c0,1.2-0.1,2.5-0.1,3.7c1,0,1.9,0,2.9,0c-0.7-1.8-1-3.5-0.9-5.4c-1,0.1-2,0.3-2.9,0.4c0.1,1,0.2,2,0.2,3c1-0.1,2-0.3,2.9-0.4
					c-1.3-4.8-2.8-9.6-4.9-14.2c-0.7-1.5-3.3-0.5-2.7,1.2c1.2,3.7,1.9,7.4,2.2,11.4c1-0.1,2-0.3,2.9-0.4c-1.6-4.8-2.9-9.9-4.7-14.7
					c-1-2.6-2.4-4.3-5-5.3c-1.3-0.5-2.3,1.2-1.7,2.2c0.5,0.8,0.9,1.6,1.4,2.4c0.7-0.7,1.4-1.4,2.1-2.1c-0.7-0.6-1.4-1.2-2.1-1.8
					c-0.7,0.7-1.4,1.4-2.1,2.1c0.5,0.4,0.9,0.8,1.4,1.2c1.4,1.3,3.6-0.8,2.1-2.1c-0.5-0.4-0.9-0.8-1.4-1.2c-1.4-1.3-3.5,0.8-2.1,2.1
					c1.1,1,1.5,1.3,2.7,2.2c1.3,0.9,2.8-0.8,2.1-2.1c-0.5-0.8-0.9-1.6-1.4-2.4c-0.6,0.7-1.1,1.5-1.7,2.2c3.2,1.2,3.8,5.8,4.7,8.8
					c0.9,3,1.9,6.1,3,9.1c0.5,1.5,3.1,1.4,2.9-0.4c-0.3-4.2-1-8.2-2.3-12.2c-0.9,0.4-1.8,0.8-2.7,1.2c2,4.3,3.3,8.8,4.6,13.4
					c0.4,1.6,3,1.3,2.9-0.4c0-1.6-0.1-2.2-0.3-3.8c-0.2-1.7-2.9-1.2-2.9,0.4c-0.1,2.3,0.2,4.1,1,6.2c0.5,1.4,2.4,1.4,2.9,0
					c0.7-2,0.7-3.3,0.1-5.3c-0.4-1.4-2.6-1.5-2.9,0c-0.5,2.2-0.5,3.9-0.2,6.2c0.3,1.8,2.8,1.1,2.9-0.4c0.2-1.8,0.1-1.9-0.6-3.6
					c-0.4-1-2.2-1-2.6,0c-0.7,1.6-1,2.9-1.2,4.6c-0.2,1.8,2.4,1.8,2.9,0.4c1.7-4.3,1.9-8.7,2-13.2c-1,0-2,0-3,0c0.9,7.2,0,14-3,20.6
					c0.9,0.4,1.8,0.8,2.7,1.2c0.7-2,1.4-3.9,2.2-5.9c0.6-1.6-2-2.7-2.7-1.2c-1,2.1-2,4.1-2.9,6.2c0.9,0.4,1.8,0.8,2.7,1.2
					c0.4-1.2,0.8-2.5,1.2-3.7c-1-0.3-1.9-0.5-2.9-0.8c-0.3,1.5-1,2.8-2.3,3.7c0.9,0.4,1.7,0.7,2.6,1.1c-0.5-7.7,4-15.1,3.6-23
					c-0.3-6.4-2.6-12.4-6.4-17.5c-1.1-1.5-3.6-0.2-2.6,1.5c0.6,1,1.2,2,1.8,3c0.8,1.4,3.4,0.5,2.7-1.2c-0.5-1.4-0.7-1.8-1.7-2.9
					c-1.1-1.3-3.3,0.4-2.4,1.8c2.8,4.3,5,8.8,6.7,13.7c0.9-0.4,1.8-0.8,2.7-1.2c-0.3-0.9-0.5-1.9-0.8-2.8c-1,0.3-1.9,0.5-2.9,0.8
					c0.4,1.6,0.5,3.2,0.6,4.9c1-0.1,2-0.3,2.9-0.4c-0.3-1.7-0.7-3.2-1.2-4.8c-1,0.3-1.9,0.5-2.9,0.8c0.9,2.4,1.4,4.7,1.3,7.3
					c1-0.1,2-0.3,2.9-0.4c-0.4-1.5-0.8-3-1.2-4.5c-0.5-1.9-3.2-1.1-2.9,0.8c0.2,1.4,0.5,2.8,0.7,4.2c1-0.3,1.9-0.5,2.9-0.8
					c-0.5-2.3-1.1-4.5-1.8-6.8c-0.5-1.6-3.2-1.3-2.9,0.4c0.2,2,0.5,4,0.7,6c0.2,1.9,3.1,2,3,0c-0.2-3.1-0.8-6-1.8-9
					c-0.7-1.8-3.2-1.1-2.9,0.8c0.6,3.2,1.2,6.5,1.8,9.7c1-0.3,1.9-0.5,2.9-0.8c-1.7-4.9-1.7-10.1-4.5-14.6c-0.7-1.1-2.4-0.9-2.7,0.4
					c-1,3.4,0.7,6.8,1.6,10.1c1-0.3,1.9-0.5,2.9-0.8c-0.8-3-2-5.5-3.6-8.1c-0.9-1.4-3.1-0.5-2.7,1.2c0.8,3.2,1.5,6.4,2.3,9.5
					c0.9-0.4,1.8-0.8,2.7-1.2c-1.1-2.3-2-4.6-2.9-7c-0.6-1.8-3.5-1.1-2.9,0.8c0.9,3,1.9,5.9,2.9,8.9c0.6,1.8,3.3,1.1,2.9-0.8
					c-0.2-0.9-0.4-1.8-0.6-2.6c-0.4-1.9-3.2-1.1-2.9,0.8c0.3,2,0.9,3.3,1.9,5c0.9,1.5,3,0.5,2.7-1.2c-0.9-5-2.9-9.2-6.1-13.2
					c-1.1-1.4-3.1,0.4-2.4,1.8c2.3,4.7,5,9.4,5.7,14.7c0.7,5.1-0.2,10.1-1.3,15.1c-0.4,1.6,2,2.8,2.7,1.2c0.5-1,0.9-2,1.4-3
					c-0.9-0.3-1.9-0.5-2.8-0.8c-0.3,2-0.4,3.9-0.5,5.9c-0.1,1.6,2,1.9,2.8,0.8c0.6-0.6,1.2-1.2,1.8-1.7c-0.7-0.7-1.4-1.4-2.1-2.1
					c-1.3,2.9-2.8,5.6-4.5,8.3c0.9,0.5,1.7,1,2.6,1.5c0.5-1.2,0.7-1.5,1-2.8c0.4-1.7-1.8-2.5-2.7-1.2c-1.6,2.3-2.9,4.6-4.1,7.1
					c-0.7,1.6,1,2.9,2.4,1.8c1.6-1.3,2.4-2.6,3-4.5c0.5-1.5-1.5-2.5-2.5-1.5c-1.3,1.3-3.2,5.6-4.8,6.1c0.5,0.8,1,1.7,1.5,2.5
					c0.3-0.4,0.6-0.7,0.9-1.1c1.2-1.3-0.3-3-1.8-2.4c-0.3,0.1-0.6,0.3-0.9,0.4c0.7,0.7,1.4,1.4,2.1,2.1c7-9.6,13.1-24,10.5-36
					c-1.3-6.3-3.3-12.5-5.6-18.5c-1.8-4.7-3.6-8.7-8.3-11.2c-1.3-0.7-2.8,0.7-2.1,2.1c2.9,5.2,6.9,9.9,10.5,14.7
					c0.9,1.2,3.4,0.6,2.7-1.2c-1.9-5.3-4.3-10-9-13.4c-1.2-0.9-2.8,0.8-2.1,2.1c1.7,2.7,3.4,5.5,5.1,8.2c1,1.7,3.4,0.2,2.6-1.5
					c-1-2.1-2.1-3.7-3.8-5.3c-1.3-1.3-3,0.3-2.4,1.8c1.2,2.7,2.5,5.4,3.7,8.1c0.9-0.5,1.7-1,2.6-1.5c-1.9-2.7-3.8-5.1-6.8-6.6
					c-1.3-0.6-2.8,0.7-2.1,2.1c1.8,3.3,3.6,6.6,5.3,9.9c0.9-0.5,1.7-1,2.6-1.5c-1.2-2-2.6-3.9-4-5.7c-1.1-1.5-3.7-0.2-2.6,1.5
					c1,1.5,1.9,3.1,2.9,4.6c1,1.6,3.5,0.2,2.6-1.5c-1.8-3.3-4.1-6.6-8-7.1c-1.3-0.2-2,1.8-1.1,2.6c2.2,1.8,4.3,2.9,7,3.6
					c1.4,0.3,2.6-1.4,1.5-2.5c-0.9-0.8-1.8-1.7-2.7-2.5c-1.4-1.3-3.4,0.7-2.1,2.1c1.3,1.4,2.4,2.9,3.4,4.6c0.9-0.5,1.7-1,2.6-1.5
					c-1.1-1.7-2.2-3.5-3.3-5.2c-0.8,0.6-1.6,1.2-2.4,1.8c1.4,1.4,2.6,2.7,3.8,4.3C126.3,47.1,128.9,45.6,127.8,44L127.8,44z"/>
			</g>
		</g>
		<g>
			<g>
				<path class="st1" d="M75.7,89.1c-4.9-2.3-6.5-9.1-8-13.9c-1.7-5.6-2.3-11.3-0.4-16.9c0.2-0.7-0.9-1-1.2-0.3
					C64,64.4,65,70.8,67.2,77.2c1.6,4.7,3.1,10.6,8,12.9C75.8,90.4,76.4,89.4,75.7,89.1L75.7,89.1z"/>
			</g>
		</g>
		<g>
			<g>
				<path class="st1" d="M72.3,56.8c1.1-5.9,6.2-12.3,9.9-16.8c0.5-0.6-0.4-1.5-0.8-0.8c-3.9,4.8-9,11.1-10.2,17.3
					C71,57.2,72.2,57.5,72.3,56.8L72.3,56.8z"/>
			</g>
		</g>
		<g>
			<g>
				<path class="st1" d="M121.8,38.5c5.1,5,9.4,11.5,10.9,18.5c0.2,0.8,1.3,0.4,1.2-0.3c-1.6-7.2-5.9-13.8-11.2-19
					C122.1,37.1,121.2,37.9,121.8,38.5L121.8,38.5z"/>
			</g>
		</g>
		<g>
			<g>
				<path class="st1" d="M125.3,93c2.9-4.9,5.6-9.8,8.3-14.8c0.4-0.7-0.7-1.3-1-0.6c-2.7,5-5.5,9.9-8.3,14.8
					C123.8,93.1,124.9,93.7,125.3,93L125.3,93z"/>
			</g>
		</g>
		<g>
			<g>
				<path class="st0" d="M93.9,43.3c0.1-0.1,0.3-0.2,0.4-0.3c0.3-0.2,0.2-0.8-0.1-0.9c-0.2-0.1-0.4-0.2-0.5-0.4
					c-0.2,0.3-0.5,0.6-0.7,0.9c0.1,0.1,0.3,0.2,0.4,0.3c0.2-0.3,0.4-0.7,0.6-1c-0.4-0.2-0.8-0.4-1.2-0.6c-0.6-0.3-1.3,0.5-0.7,0.9
					c0.4,0.3,0.7,0.7,1.1,1c0.1-0.3,0.3-0.7,0.4-1c-0.1,0-0.1,0-0.1,0c-0.5-0.6-1.4,0.3-0.8,0.8c0.3,0.3,0.6,0.4,1,0.4
					c0.5,0,0.8-0.7,0.4-1c-0.4-0.3-0.7-0.7-1.1-1c-0.2,0.3-0.5,0.6-0.7,0.9c0.4,0.2,0.8,0.4,1.2,0.6c0.7,0.4,1.2-0.6,0.6-1
					c-0.1-0.1-0.3-0.2-0.4-0.3c-0.6-0.4-1.2,0.5-0.7,0.9c0.2,0.2,0.5,0.4,0.8,0.6c0-0.3-0.1-0.6-0.1-0.9c-0.1,0.1-0.3,0.2-0.4,0.3
					C92.4,42.9,93.3,43.7,93.9,43.3L93.9,43.3z"/>
			</g>
		</g>
		<g>
			<g>
				<path class="st0" d="M76.5,39.3c0,0.2-0.1,0.3-0.1,0.5c-0.1,0.7,0.7,1.1,1.1,0.5c0.2-0.3,0.3-0.5,0.6-0.6
					c-0.3-0.3-0.5-0.5-0.8-0.8c-0.3,0.6-0.7,1.2-1,1.8c0.3,0.2,0.7,0.4,1,0.6c0.1-0.3,0.3-0.6,0.4-0.8c-0.4-0.1-0.7-0.2-1.1-0.3
					c0,0.4-0.2,0.8-0.3,1.2c-0.3,0.7,0.9,1,1.2,0.3c0.1-0.4,0.3-0.7,0.5-1c-0.4,0-0.7-0.1-1.1-0.1c0,0-0.1,0.1-0.1,0.1
					c-0.6,0.5,0.3,1.4,0.8,0.8c0.4-0.3,0.5-0.8,0.4-1.3C78,39.6,77.3,39.6,77,40c-0.3,0.4-0.5,0.8-0.7,1.3c0.4,0.1,0.8,0.2,1.2,0.3
					c0.2-0.5,0.3-1,0.3-1.5c0.1-0.6-0.9-0.8-1.1-0.3c-0.1,0.3-0.3,0.6-0.4,0.8c-0.3,0.7,0.7,1.3,1,0.6c0.3-0.6,0.7-1.2,1-1.8
					c0.3-0.5-0.3-1.2-0.8-0.8c-0.4,0.3-0.8,0.6-1,1.1c0.4,0.2,0.7,0.3,1.1,0.5c0-0.2,0.1-0.3,0.1-0.5C77.9,38.9,76.7,38.6,76.5,39.3
					L76.5,39.3z"/>
			</g>
		</g>
		<g>
			<g>
				<path class="st0" d="M110.3,40.6c-0.6,0.4-1.4,0.5-2,0.3c-0.1,0.4-0.1,0.8-0.2,1.2c0.5,0,0.9,0.1,1.4,0.1c0.7,0,0.8-1,0.2-1.2
					c-0.3-0.1-0.4-0.1-0.8-0.1c-0.7,0-0.8,0.9-0.2,1.2c0.2,0.1,0.3,0.2,0.5,0.3c0.1-0.3,0.3-0.7,0.4-1c-1.2,0-2.5,0.1-3.7,0.2
					c-0.4,0-2.4,0.6-2.4,0.6c0,0.2,0,0.4,0,0.6c0.2,0.1,0.4,0.1,0.4-0.1c-0.5,0.6,0.3,1.4,0.8,0.8c1.4-1.5-2.1-3-2.3-1.2
					c-0.1,0.9,0.8,1.2,1.5,1c0.8-0.2,1.5-0.5,2.4-0.5c1.1-0.1,2.2-0.1,3.3-0.1c0.5,0,0.8-0.7,0.4-1c-0.4-0.3-0.5-0.4-1-0.6
					c-0.1,0.4-0.1,0.8-0.2,1.2c0.1,0,0.3,0.1,0.4,0.1c0.1-0.4,0.1-0.8,0.2-1.2c-0.5,0-0.9,0-1.4-0.1c-0.7-0.1-0.7,1-0.2,1.2
					c1.1,0.4,2,0.3,3-0.4C111.6,41.2,111,40.2,110.3,40.6L110.3,40.6z"/>
			</g>
		</g>
	</g>
	<g>
		<g>
			<g>
				<path class="st2" d="M77.1,93.9c-3.2-1.8-6.6-3.6-8.7-6.7c-2.2-3.2-2.9-7.4-3.7-11.1C63,68.5,63,61.1,65.1,53.7
					c2-7.1,5.9-13.5,11.2-18.6c4.9-4.7,14.1-11.5,21.4-10c0.8,0.1,1.1-1,0.3-1.2c-6.8-1.3-14.6,3.7-19.6,7.8
					c-6.5,5.2-11.4,12.2-14,20.1c-2.6,8-2.6,16.3-0.9,24.5c0.9,4.3,1.8,9.1,4.7,12.5c2.2,2.7,5.3,4.4,8.3,6
					C77.2,95.3,77.8,94.2,77.1,93.9L77.1,93.9z"/>
			</g>
		</g>
		<g>
			<g>
				<path class="st2" d="M75.4,94.3c1.4,0.9,2.9,1.5,4.5,1.9c0.6,0.1,1-0.6,0.6-1c-2.5-2.6-3.7-6.1-4.8-9.5
					c-0.2-0.7-1.4-0.4-1.2,0.3c1.2,3.6,2.4,7.2,5.1,10c0.2-0.3,0.4-0.7,0.6-1c-1.5-0.4-2.9-1-4.2-1.8C75.4,92.8,74.8,93.9,75.4,94.3
					L75.4,94.3z"/>
			</g>
		</g>
		<g>
			<g>
				<path class="st2" d="M83.6,40.8c-10.1,10-12.8,24-11.3,37.7c0.1,0.8,1.3,0.8,1.2,0c-1.5-13.4,1.1-27.1,11-36.9
					C85,41.1,84.1,40.2,83.6,40.8L83.6,40.8z"/>
			</g>
		</g>
		<g>
			<g>
				<path class="st2" d="M77.7,92.7c1.1,0.7,2,1.5,2.9,2.4c0.3,0.3,0.9,0.2,1-0.3c0-0.3,0.1-0.5,0.1-0.8c-0.3,0.1-0.6,0.2-0.9,0.4
					c0.5,0.2,1,0.5,1.5,0.7c0.4,0.2,1,0,0.9-0.5c0-0.2,0-0.4-0.1-0.6c-0.3,0.2-0.6,0.3-0.9,0.5c0.7,0.3,1.3,0.7,1.9,1.2
					c0.3,0.2,0.7,0.1,0.8-0.2c-0.1,0.3,3.7,1.3,3.8,1.3c0.7,0.2,1.1-1,0.3-1.2c-1.1-0.3-2-0.5-2.9-1c-0.4-0.2-0.5-0.4-1-0.4
					c-0.6,0-0.9,0.2-1.2,0.7c0.3-0.1,0.5-0.1,0.8-0.2c-0.6-0.5-1.2-0.8-1.9-1.2c-0.4-0.2-1,0-0.9,0.5c0,0.2,0,0.4,0.1,0.6
					c0.3-0.2,0.6-0.3,0.9-0.5c-0.5-0.2-1-0.5-1.5-0.7c-0.3-0.1-0.8-0.1-0.9,0.4c0,0.3-0.1,0.5-0.1,0.8c0.3-0.1,0.7-0.2,1-0.3
					c-1-1-2-1.9-3.2-2.6C77.6,91.2,77,92.3,77.7,92.7L77.7,92.7z"/>
			</g>
		</g>
		<g>
			<g>
				<path class="st2" d="M94.5,24.9c8.3-1.6,18.5,0,25.7,4.7c6.6,4.3,13.4,13.4,15.8,20.8c2.4,7.3,3,19.7-0.4,26.5
					c-3.4,6.8-7.3,15.9-14.2,19.6c0.3,0.2,0.6,0.5,0.9,0.7c1.4-3.7,3.1-7.2,4.9-10.7c0.4-0.7-0.7-1.3-1-0.6c-1.9,3.6-3.5,7.2-5,11
					c-0.2,0.5,0.5,0.9,0.9,0.7c7.5-4,12.1-14.1,15.4-21.5c1.9-4.3,1.4-8.9,1.3-13.5c-0.2-4.7-0.4-9.5-2.1-14
					c-2.8-7.1-9.3-15.8-15.8-20c-7.5-4.8-18-6.5-26.6-4.8C93.5,23.9,93.8,25.1,94.5,24.9L94.5,24.9z"/>
			</g>
		</g>
		<g>
			<g>
				<path class="st2" d="M116.5,40.2c11.1,10.6,14.3,23.6,11.1,38.5c-0.2,0.8,1,1.1,1.2,0.3c3.3-15.4,0-28.8-11.4-39.7
					C116.8,38.8,115.9,39.6,116.5,40.2L116.5,40.2z"/>
			</g>
		</g>
		<g>
			<g>
				<path class="st2" d="M82.5,42.5c-0.1,0.8,0,1.5,0.4,2.2c0.4,0.7,1.4,0.1,1-0.6c-0.2-0.4-0.3-0.8-0.3-1.3
					C83.8,42,82.6,41.7,82.5,42.5L82.5,42.5z"/>
			</g>
		</g>
		<g>
			<g>
				<path class="st2" d="M84,45.1c0.8-0.2,1.5-0.5,2.3-0.7c0.7-0.2,0.4-1.4-0.3-1.2c-0.8,0.2-1.5,0.5-2.3,0.7
					C83,44.1,83.3,45.3,84,45.1L84,45.1z"/>
			</g>
		</g>
		<g>
			<g>
				<path class="st2" d="M86.2,44.6c1,0.4,2.1,0.3,2.8-0.5c0.6-0.5-0.3-1.4-0.8-0.8c-0.4,0.3-0.9,0.5-1.4,0.3
					c-0.3-0.1-0.6-0.1-0.8,0.2C85.8,44.1,85.9,44.5,86.2,44.6L86.2,44.6z"/>
			</g>
		</g>
		<g>
			<g>
				<path class="st2" d="M88.6,44c0.6,0.5,1.2,1,2,1c0.6,0,1.3-0.3,1.6-0.9c0.4-0.7-0.7-1.3-1-0.6c-0.4,0.7-1.3-0.1-1.6-0.4
					C88.9,42.6,88,43.5,88.6,44L88.6,44z"/>
			</g>
		</g>
		<g>
			<g>
				<path class="st2" d="M92.3,44.5c0.6-0.1,1,0.2,1.2,0.7c0.3,0.7,1.4,0.1,1-0.6c-0.4-0.8-1.3-1.4-2.3-1.3
					C91.5,43.4,91.5,44.6,92.3,44.5L92.3,44.5z"/>
			</g>
		</g>
		<g>
			<g>
				<path class="st2" d="M94.8,45.6c0.6-0.3,1.1-0.7,1.6-1.2c0.6-0.5-0.3-1.4-0.8-0.8c-0.4,0.4-0.9,0.7-1.4,1
					C93.5,45,94.1,46,94.8,45.6L94.8,45.6z"/>
			</g>
		</g>
		<g>
			<g>
				<path class="st2" d="M96.3,44.6c0.8,0.2,1.5,0.5,2.3,0.7c0.7,0.2,1.1-0.9,0.3-1.2c-0.8-0.2-1.5-0.5-2.3-0.7
					C95.9,43.2,95.6,44.3,96.3,44.6L96.3,44.6z"/>
			</g>
		</g>
		<g>
			<g>
				<path class="st2" d="M99.7,45.2c0.6-0.3,1.2-0.6,1.7-0.9c0.7-0.4,0.1-1.4-0.6-1c-0.6,0.3-1.2,0.6-1.7,0.9
					C98.4,44.5,99,45.5,99.7,45.2L99.7,45.2z"/>
			</g>
		</g>
		<g>
			<g>
				<path class="st2" d="M101.5,44.3c0.2,0,0.5,0,0.7,0.1c0.7,0.2,1.1-0.9,0.3-1.2c-0.4-0.1-0.9-0.1-1.3-0.1
					C100.4,43.2,100.8,44.4,101.5,44.3L101.5,44.3z"/>
			</g>
		</g>
		<g>
			<g>
				<path class="st2" d="M102.6,44.4c0.3,0.3,0.7,0.6,1.1,0.7c0.8,0.2,1.1-1,0.3-1.2c-0.3-0.1-0.4-0.2-0.6-0.3
					C102.9,43,102,43.9,102.6,44.4L102.6,44.4z"/>
			</g>
		</g>
		<g>
			<g>
				<path class="st2" d="M104.7,45.2c0.3-0.1,0.5-0.2,0.8-0.4c0.7-0.3,0.1-1.4-0.6-1c-0.3,0.1-0.5,0.2-0.8,0.4
					C103.4,44.5,104,45.6,104.7,45.2L104.7,45.2z"/>
			</g>
		</g>
		<g>
			<g>
				<path class="st2" d="M106.2,44.4c0.3-0.2,0.7-0.3,1-0.5c0.7-0.3,0.1-1.4-0.6-1c-0.3,0.2-0.7,0.3-1,0.5
					C104.9,43.7,105.5,44.8,106.2,44.4L106.2,44.4z"/>
			</g>
		</g>
		<g>
			<g>
				<path class="st2" d="M106.8,44c0.7,0.2,1.3,0.4,2,0.6c0.7,0.2,1.1-0.9,0.3-1.2c-0.7-0.2-1.3-0.4-2-0.6
					C106.4,42.6,106.1,43.7,106.8,44L106.8,44z"/>
			</g>
		</g>
		<g>
			<g>
				<path class="st2" d="M109.3,44.7c0.3,0,0.7,0,1,0c0.8,0,0.8-1.2,0-1.2c-0.3,0-0.7,0-1,0C108.5,43.5,108.5,44.7,109.3,44.7
					L109.3,44.7z"/>
			</g>
		</g>
		<g>
			<g>
				<path class="st2" d="M110.9,44.6c0.5-0.2,1-0.3,1.5-0.3c0.8,0,0.8-1.2,0-1.2c-0.6,0-1.2,0.1-1.8,0.3
					C109.9,43.6,110.2,44.8,110.9,44.6L110.9,44.6z"/>
			</g>
		</g>
		<g>
			<g>
				<path class="st2" d="M113.2,44c0.3-0.2,0.5-0.4,0.8-0.6c0.6-0.5-0.2-1.3-0.8-0.8c-0.3,0.2-0.5,0.4-0.8,0.6
					C111.7,43.7,112.6,44.5,113.2,44L113.2,44z"/>
			</g>
		</g>
		<g>
			<g>
				<path class="st2" d="M113.7,43.4c0.3-0.2,0.7-0.3,1-0.5c0.7-0.3,0.1-1.4-0.6-1c-0.3,0.2-0.7,0.3-1,0.5
					C112.4,42.7,113,43.8,113.7,43.4L113.7,43.4z"/>
			</g>
		</g>
		<g>
			<g>
				<path class="st2" d="M114.5,43.1c0.3-0.1,0.6,0,0.9,0.2c0.7,0.4,1.3-0.6,0.6-1c-0.6-0.3-1.2-0.4-1.8-0.3
					C113.5,42,113.8,43.2,114.5,43.1L114.5,43.1z"/>
			</g>
		</g>
		<g>
			<g>
				<path class="st2" d="M115.9,43.4c0.2,0.1,0.4,0.2,0.6,0.4c0.7,0.4,1.3-0.6,0.6-1c-0.2-0.1-0.4-0.2-0.6-0.4
					C115.9,42,115.3,43,115.9,43.4L115.9,43.4z"/>
			</g>
		</g>
		<g>
			<g>
				<path class="st2" d="M117.4,44.1c0.3-0.1,0.7-0.2,1-0.3c0.7-0.2,0.4-1.3-0.3-1.2c-0.3,0.1-0.7,0.2-1,0.3
					C116.3,43.1,116.7,44.3,117.4,44.1L117.4,44.1z"/>
			</g>
		</g>
		<g>
			<g>
				<path class="st2" d="M118.8,43.8c0.1,0,0.2-0.1,0.2-0.1c0.7-0.3,0.1-1.4-0.6-1c-0.1,0-0.2,0.1-0.2,0.1
					C117.5,43.1,118.1,44.1,118.8,43.8L118.8,43.8z"/>
			</g>
		</g>
		<g>
			<g>
				<path class="st2" d="M120.2,96.1c0.2-0.4,0.7-0.6,1-0.3c0.6,0.5,1.4-0.4,0.8-0.8c-0.9-0.7-2.4-0.6-2.9,0.6
					C118.8,96.2,119.9,96.8,120.2,96.1L120.2,96.1z"/>
			</g>
		</g>
		<g>
			<g>
				<path class="st2" d="M111.7,96.7c0.4-1,1.3-0.7,2.1-0.7c0.1-0.1,0.3-0.2,0.4-0.3c0.2,0,0.4,0.1,0.6,0.3c0.2,0,0.5,0.2,0.7,0.2
					c0.7-0.1,0.9-0.8,1.4-0.9c-0.1,0,1.9,0.4,1.8,0.3c0.3,0.3,0.7,0.2,0.9-0.1c0.4,0.1,0.8,0.1,1.3,0.2c0.7,0.4,1.3-0.7,0.6-1
					c-1.1-0.6-2.1-0.9-2.9,0.3c0.3,0,0.6-0.1,0.9-0.1c-0.3-0.3-0.6-0.5-1-0.5c-0.5-0.1-0.7,0-1.1-0.1c-1.1-0.2-0.9-0.1-1.8,0.4
					c-0.4,0.2-0.1,0.2-0.6,0.2c-0.1,0-0.5-0.3-0.6-0.3c-0.4,0-0.7,0.2-1.1,0.2c-1.5,0.1-2-0.1-2.7,1.5
					C110.4,96.8,111.4,97.4,111.7,96.7L111.7,96.7z"/>
			</g>
		</g>
	</g>
</g>
</svg>
