<?xml version="1.0" encoding="utf-8"?>
<!-- Generator: Adobe Illustrator 21.0.2, SVG Export Plug-In . SVG Version: 6.00 Build 0)  -->
<svg version="1.1" id="Layer_1" xmlns="http://www.w3.org/2000/svg" xmlns:xlink="http://www.w3.org/1999/xlink" x="0px" y="0px"
	 viewBox="0 0 200 600" style="enable-background:new 0 0 200 600;" xml:space="preserve">
<style type="text/css">
	.st0{fill:#EF7A22;}
	.st1{fill:#ED8622;}
	.st2{fill:#010101;}
</style>
<g>
	<g>
		<g>
			<g>
				<path class="st0" d="M112.8,94.3c0,0.2-0.1,0.3-0.1,0.5c0.5-0.4,0.2-1.3-0.5-1.1c-0.3,0-0.6,0-0.9,0c0.1,0.3,0.2,0.6,0.4,0.9
					c0-0.2-0.1-0.5-0.1-0.7c-0.5,0-0.7,0.5-0.5,0.9c0.1,0.2,0.2,0.3,0.3,0.5c0.1,0.2,0.4,0.3,0.7,0.3c1.2-0.2,2.5-0.5,3.7-0.7
					c0.8-0.2,0.4-1.3-0.3-1.2c-0.3,0.1-0.7,0.1-1,0.2c0.1,0.4,0.2,0.8,0.3,1.2c1-0.5,2.1-0.7,3.3-0.6c0.8,0,0.8-1.2,0-1.2
					c-0.6,0-1.1,0-1.7,0c0,0.4,0,0.8,0,1.2c0.9-0.1,1.8,0,2.7,0.2c0.8,0.1,1.1-1,0.3-1.2c-0.3-0.1-0.7-0.1-1-0.2
					c-0.8-0.2-1.1,1-0.3,1.2c0.8,0.2,1.6,0.6,2.4,0.5c0.3,0,0.6-0.3,0.6-0.6c0-0.1,0-0.1,0-0.2c0-0.4-0.3-0.6-0.6-0.6
					c0,0-0.1,0-0.1,0c-0.7-0.1-0.8,1-0.2,1.2c0.3,0.1,0.6,0.2,0.8,0.3c0.4,0.2,0.8-0.3,0.7-0.7c-0.1,0.2-0.1,0.3-0.2,0.5
					c0.4,0.2,0.8,0,0.9-0.4c0.1-0.4,0.3-0.8,0.4-1.3c-0.3,0.1-0.6,0.2-0.9,0.4c-0.1-0.1-0.2-0.3-0.3-0.4c-0.2,0.6,0.8,1.1,1.1,0.5
					c0.2-0.3,0.4-0.7,0.6-1c0.4-0.4,0-1.2-0.6-1c-3.1,0.8-6.3,1.2-9.5,1.1c0.1,0.4,0.1,0.8,0.2,1.2c0.5-0.1,1.1-0.2,1.6-0.3
					c-0.2-0.4-0.3-0.7-0.5-1.1c-0.5,0.2-0.9,0.3-1.4,0.5c0.2,0.4,0.3,0.7,0.5,1.1c0.3,0,0.6-0.1,0.9-0.1c-0.1-0.4-0.1-0.8-0.2-1.2
					c-0.7-0.1-1.4-0.2-2.1-0.2c0,0.4,0,0.8,0,1.2c0.8-0.2,1.7-0.4,2.5-0.6c-0.2-0.4-0.3-0.7-0.5-1.1c-0.5,0.2-0.9,0.4-1.4,0.6
					c-0.7,0.2-0.4,1.4,0.3,1.2c1.2-0.3,2.2-0.7,3.3-1.2c0.7-0.3,0.1-1.4-0.6-1c-0.6,0.2-1.1,0.4-1.7,0.6c0.1,0.4,0.2,0.8,0.3,1.2
					c1.1-0.4,2.1-0.8,3.1-1.3c-0.2-0.3-0.5-0.6-0.7-0.9c-0.1,0.1-0.3,0.3-0.4,0.4c-0.4,0.5,0.1,1.3,0.7,0.9c0.9-0.6,1.8-1.2,2.7-1.8
					c-0.3-0.3-0.5-0.5-0.8-0.8c-0.6,1-1.4,1.7-2.3,2.3c0.2,0.3,0.4,0.7,0.6,1c1-0.8,2.1-1.5,3.2-2c-0.2-0.3-0.5-0.6-0.7-0.9
					c-0.6,0.8-1.4,1.4-2.4,1.8c0.2,0.3,0.5,0.6,0.7,0.9c0.8-0.5,1.5-1,2.3-1.5c-0.2-0.3-0.5-0.6-0.7-0.9c-0.5,0.5-1.1,1-1.6,1.5
					c0.3,0.3,0.5,0.5,0.8,0.8c0.6-0.6,1.3-1.2,1.9-1.8c-0.3-0.2-0.6-0.3-0.9-0.5c-0.2,0.5-0.3,1-0.5,1.5c0.4,0.2,0.7,0.3,1.1,0.5
					c0.5-0.6,1-1.2,1.6-1.8c-0.3-0.2-0.6-0.5-0.9-0.7c-0.2,0.6-0.4,1.1-0.5,1.7c-0.3,0.7,0.7,1.3,1,0.6c0.3-0.5,0.7-1,1-1.5
					c-0.3-0.1-0.7-0.3-1-0.4c-0.1,0.7-0.3,1.3-0.4,2c0.4,0.1,0.7,0.2,1.1,0.3c0.1-0.4,0.3-0.8,0.4-1.2c-0.4-0.2-0.7-0.3-1.1-0.5
					c0,0.5,0.1,0.9,0.1,1.4c-0.2-0.2-0.5-0.5-0.7-0.7c0.7-0.1,1.4-0.3,2.1-0.4c-0.3-0.2-0.5-0.4-0.8-0.6c-0.3,0.5-0.6,1-0.9,1.5
					c0.3,0.2,0.7,0.4,1,0.6c0.3-1.5,1.2-2.7,2.5-3.5c-0.3-0.2-0.6-0.5-0.9-0.7c-0.4,1.2-1,2.3-1.8,3.2c0.3,0.2,0.7,0.4,1,0.6
					c0-1.1,0.5-2.1,1.4-2.8c-0.3-0.2-0.6-0.5-0.9-0.7c-0.8,1.3-1.6,2.3-2.7,3.3c0.3,0.2,0.7,0.4,1,0.6c0.2-1,0.7-1.8,1.5-2.3
					c-0.3-0.2-0.6-0.5-0.9-0.7c-0.5,0.9-1.2,1.6-2,2.2c0.3,0.2,0.6,0.5,0.9,0.7c0.7-1.2,1.5-2.2,2.6-3c-0.3-0.3-0.6-0.6-0.8-0.8
					c-1.6,1.8-3.5,2.7-5.8,3.3c0.2,0.3,0.4,0.7,0.6,1c0.7-0.7,1.5-1.3,2.4-1.6c0.7-0.3,0.1-1.3-0.6-1c-0.9,0.4-1.7,0.8-2.6,1.1
					c0.2,0.3,0.5,0.6,0.7,0.9c0.8-0.7,1.6-1.5,2.5-2.2c0.5-0.4-0.2-1.3-0.7-0.9c-0.5,0.4-1,0.8-1.6,1.1c0.2,0.3,0.5,0.6,0.7,0.9
					c0.3-0.2,0.6-0.5,0.8-0.7c-0.3-0.3-0.6-0.6-0.8-0.8c-0.5,0.3-0.9,0.6-1.4,1c0.2,0.3,0.4,0.7,0.6,1c0.6-0.5,1.2-0.9,1.8-1.4
					c-0.2-0.3-0.5-0.6-0.7-0.9c-0.7,0.4-1.3,0.8-2,1.2c0.2,0.3,0.4,0.7,0.6,1c1.2-1.2,2-1.7,3.5-2.3c-0.2-0.3-0.5-0.6-0.7-0.9
					c-0.6,0.6-1.3,1-2,1.4c0.2,0.3,0.5,0.6,0.7,0.9c0.8-0.5,1.5-1,2.3-1.6c-0.2-0.3-0.4-0.7-0.6-1c-0.2,0.3-0.5,0.5-0.7,0.8
					c-0.5,0.6,0.3,1.4,0.8,0.8c0.6-0.6,1.2-1.2,1.7-1.8c-0.3-0.2-0.6-0.5-0.9-0.7c-0.4,0.7-0.9,1.4-1.3,2.1c-0.4,0.7,0.6,1.2,1,0.6
					c0.5-0.9,1.2-1.6,2.1-2.1c-0.3-0.2-0.6-0.5-0.9-0.7c-0.3,0.7-0.6,1.4-1.1,2.1c-0.4,0.7,0.6,1.2,1,0.6c0.6-0.9,1.3-1.7,2.2-2.3
					c-0.3-0.2-0.6-0.5-0.9-0.7c-0.3,1-0.7,2-1.4,2.8c0.3,0.2,0.6,0.5,0.9,0.7c0.6-1,1.3-1.8,2.1-2.6c-0.3-0.2-0.7-0.4-1-0.6
					c-0.4,0.7-0.7,1.4-1.1,2c0.3,0.2,0.7,0.4,1,0.6c0.3-0.9,0.6-1.7,1.1-2.4c0.4-0.7-0.6-1.2-1-0.6c-0.8,1.1-1.5,1.9-2.5,2.7
					c0.3,0.1,0.7,0.3,1,0.4c0.4-0.7,0.8-1.4,1.2-2.2c-0.3-0.2-0.6-0.5-0.9-0.7c-0.6,0.5-1.1,0.9-1.7,1.4c0.2,0.3,0.5,0.6,0.7,0.9
					c0.8-1,1.5-1.7,2.4-2.5c0.5-0.4-0.2-1.3-0.7-0.9c-0.7,0.5-1.4,0.9-2.1,1.4c0.3,0.3,0.5,0.5,0.8,0.8c0.4-0.5,0.8-1,1.1-1.5
					c-0.3-0.2-0.7-0.4-1-0.6c-0.2,0.3-0.3,0.6-0.5,0.9c-0.3,0.6,0.4,1.2,0.9,0.7c1.3-1.2,2.4-2.4,3.5-3.8c-0.3-0.2-0.6-0.5-0.9-0.7
					c-0.8,1.3-1.8,2.4-2.9,3.4c0.3,0.2,0.7,0.4,1,0.6c0.6-1.5,1.4-2.6,2.5-3.6c-0.3-0.2-0.6-0.5-0.9-0.7c-0.4,0.8-0.8,1.7-1.3,2.5
					c-0.3,0.7,0.7,1.3,1,0.6c0.7-1.4,1.6-2.7,2.7-3.9c-0.3-0.2-0.6-0.5-0.9-0.7c-0.6,1.3-1.2,2.6-1.9,3.9c0.3,0.2,0.7,0.4,1,0.6
					c0.2-0.6,0.5-1.2,0.9-1.7c-0.4-0.2-0.7-0.3-1.1-0.5c-0.4,1.2-0.9,2.3-1.4,3.4c0.4,0.2,0.7,0.3,1.1,0.5c0.3-0.8,0.7-1.6,1.2-2.4
					c-0.3-0.2-0.7-0.4-1-0.6c-0.4,0.9-0.9,1.7-1.6,2.3c0.3,0.2,0.7,0.4,1,0.6c0.2-1,0.6-1.9,1.3-2.7c-0.4-0.2-0.7-0.3-1.1-0.5
					c-0.1,0.4-0.2,0.8-0.4,1.2c-0.2,0.7,0.9,1.1,1.2,0.3c0.1-0.4,0.2-0.8,0.4-1.2c0.2-0.7-0.7-1-1.1-0.5c-0.7,1-1.1,1.8-1.4,2.9
					c-0.2,0.6,0.6,1,1,0.6c0.7-0.8,1.3-1.6,1.8-2.6c0.3-0.7-0.6-1.3-1-0.6c-0.5,0.9-1,1.7-1.3,2.7c-0.3,0.6,0.8,1.1,1.1,0.5
					c0.6-1.2,1.1-2.4,1.6-3.7c0.2-0.7-0.7-1-1.1-0.5c-0.4,0.5-0.7,1.1-0.9,1.7c-0.3,0.7,0.7,1.3,1,0.6c0.6-1.3,1.2-2.6,1.9-3.9
					c0.3-0.6-0.4-1.2-0.9-0.7c-1.2,1.3-2.1,2.6-2.9,4.1c0.3,0.2,0.7,0.4,1,0.6c0.4-0.8,0.8-1.7,1.3-2.5c0.3-0.6-0.4-1.2-0.9-0.7
					c-1.3,1.2-2.1,2.5-2.8,4.2c-0.3,0.6,0.6,0.9,1,0.6c1.2-1.1,2.2-2.2,3.1-3.6c0.4-0.6-0.5-1.3-0.9-0.7c-1.1,1.4-2.2,2.6-3.5,3.8
					c0.3,0.2,0.6,0.5,0.9,0.7c0.2-0.3,0.3-0.6,0.5-0.9c0.4-0.7-0.6-1.2-1-0.6c-0.4,0.5-0.8,1-1.1,1.5c-0.4,0.5,0.3,1.1,0.8,0.8
					c0.7-0.5,1.4-0.9,2.1-1.4c-0.2-0.3-0.5-0.6-0.7-0.9c-1,0.8-1.8,1.7-2.6,2.7c-0.3,0.4,0.2,1.1,0.7,0.9c1.1-0.5,1.7-0.9,2.4-1.9
					c0.4-0.6-0.5-1.1-0.9-0.7c-1,0.9-1.4,1.7-1.5,3c0,0.6,0.7,0.7,1,0.4c1-0.9,1.9-1.9,2.6-3c-0.3-0.2-0.7-0.4-1-0.6
					c-0.5,0.9-0.8,1.8-1.2,2.7c-0.2,0.6,0.6,1,1,0.6c0.8-0.8,1.1-1.5,1.4-2.6c0.1-0.6-0.6-1-1-0.6c-0.9,0.9-1.6,1.7-2.3,2.8
					c-0.3,0.6,0.5,1.3,0.9,0.7c0.8-1,1.3-2.1,1.7-3.3c0.1-0.5-0.5-1-0.9-0.7c-1.1,0.8-1.9,1.6-2.7,2.7c0.3,0.2,0.7,0.4,1,0.6
					c0.5-0.8,0.9-1.5,1.2-2.3c0.2-0.5-0.5-1-0.9-0.7c-1,0.7-1.8,1.5-2.5,2.5c0.3,0.2,0.7,0.4,1,0.6c0.4-0.7,0.9-1.4,1.3-2.1
					c0.4-0.6-0.5-1.2-0.9-0.7c-0.6,0.6-1.2,1.2-1.7,1.8c0.3,0.3,0.6,0.6,0.8,0.8c0.2-0.3,0.5-0.5,0.7-0.8c0.4-0.4,0-1.2-0.6-1
					c-1.2,0.5-2,1-2.8,1.9c-0.5,0.5,0.1,1.3,0.7,0.9c0.8-0.5,1.5-1,2.2-1.6c0.6-0.5-0.2-1.2-0.7-0.9c-1.5,0.6-2.6,1.4-3.7,2.5
					c-0.4,0.4,0,1.2,0.6,1c1-0.3,1.7-0.7,2.5-1.5c0.5-0.5-0.2-1.4-0.7-0.9c-0.6,0.5-1.2,0.9-1.8,1.4c-0.6,0.5-0.1,1.4,0.6,1
					c1-0.5,0.8-0.4,1.6-1.1c0.6-0.5-0.3-1.3-0.8-0.8c-0.3,0.2-0.6,0.5-0.8,0.7c-0.5,0.4,0.2,1.3,0.7,0.9c0.5-0.4,1-0.8,1.6-1.1
					c-0.2-0.3-0.5-0.6-0.7-0.9c-0.8,0.7-1.6,1.5-2.5,2.2c-0.5,0.5,0.1,1.2,0.7,0.9c0.9-0.4,1.7-0.8,2.6-1.1c-0.2-0.3-0.4-0.7-0.6-1
					c-1.1,0.5-1.8,1-2.7,1.8c-0.5,0.4,0,1.1,0.6,1c2.5-0.6,4.6-1.7,6.4-3.6c0.5-0.6-0.3-1.3-0.8-0.8c-1.2,1-2,2-2.8,3.3
					c-0.4,0.6,0.4,1.1,0.9,0.7c0.9-0.8,1.6-1.5,2.2-2.5c0.4-0.6-0.5-1.1-0.9-0.7c-1,0.8-1.5,1.6-1.8,2.8c-0.1,0.6,0.6,1,1,0.6
					c1.2-1.1,2.1-2.2,2.9-3.5c0.4-0.6-0.5-1.2-0.9-0.7c-1.1,1-1.5,1.9-1.8,3.3c-0.1,0.5,0.6,1.1,1,0.6c0.9-1.2,1.6-2.3,2.1-3.7
					c0.2-0.5-0.5-1-0.9-0.7c-1.6,1.1-2.5,2.4-3.1,4.2c-0.2,0.6,0.6,0.9,1,0.6c0.9-0.7,1.1-1.3,1.2-2.3c0-0.4-0.4-0.7-0.8-0.6
					c-1.3,0.5-4.1,2.1-2.8,3.7c0.2,0.2,0.4,0.4,0.7,0.3c1-0.4,1.3-1.1,1.5-2.2c0.1-0.4-0.3-0.9-0.7-0.7c-0.9,0.2-2.7,1.4-1.4,2.4
					c1.4,1.1,2.3-1.5,2.7-2.3c0.3-0.7-0.7-1-1.1-0.5c-0.7,0.9-0.6,0.7-0.6,1.8c0,0.6,0.8,0.9,1.1,0.3c0.5-0.9,0.6-1.6,0.6-2.6
					c0-0.5-0.7-0.8-1-0.4c-0.7,0.9-0.6,0.8-1.2,1.7c0.3,0.2,0.7,0.4,1,0.6c0.6-1.1,0.5-0.8,0.7-2c0.1-0.5-0.4-0.9-0.9-0.7
					c-1.2,0.6-1.7,1.3-2.1,2.5c-0.2,0.7,0.8,1,1.1,0.5c0.6-1,0.6-0.9,0.6-2.1c0-0.5-0.5-0.7-0.9-0.5c-1.1,0.6-1.7,1.2-2.3,2.2
					c-0.4,0.6,0.3,1,0.8,0.8c1-0.5,1.5-0.9,2-1.9c0.2-0.4-0.2-1.1-0.7-0.9c-1.2,0.4-1.9,0.9-2.8,1.8c-0.5,0.5,0.1,1.2,0.7,0.9
					c1.1-0.6,1.8-1.1,2.7-2c0.5-0.5-0.1-1.3-0.7-0.9c-1.2,0.6-2.2,1.3-3.2,2c-0.6,0.5,0,1.5,0.6,1c1.1-0.8,2-1.6,2.7-2.8
					c0.3-0.5-0.3-1.2-0.8-0.8c-0.9,0.6-1.8,1.2-2.7,1.8c0.2,0.3,0.5,0.6,0.7,0.9c0.1-0.1,0.3-0.3,0.4-0.4c0.5-0.5-0.1-1.3-0.7-0.9
					c-0.9,0.5-1.8,0.9-2.8,1.2c-0.7,0.3-0.4,1.4,0.3,1.2c1.1-0.3,1-0.3,2-0.7c-0.2-0.3-0.4-0.7-0.6-1c-1,0.5-2,0.9-3,1.1
					c0.1,0.4,0.2,0.8,0.3,1.2c0.9-0.3,0.8-0.2,1.7-0.7c0.6-0.3,0.2-1.2-0.5-1.1c-0.8,0.2-1.7,0.4-2.5,0.6c-0.6,0.1-0.5,1,0,1.2
					c1,0.4,1.7,0.5,2.8,0.2c0.7-0.1,0.5-1.1-0.2-1.2c-0.8-0.1-0.8,0-1.5,0.3c-0.7,0.3-0.2,1.2,0.5,1.1c1-0.2,0.8-0.1,1.7-0.6
					c0.6-0.4,0.2-1.2-0.5-1.1c-0.5,0.1-1.1,0.2-1.6,0.3c-0.7,0.1-0.5,1.2,0.2,1.2c3.4,0,6.6-0.3,9.8-1.2c-0.2-0.3-0.4-0.7-0.6-1
					c-0.6,0.6-0.5,0.5-0.8,1.2c0.4,0.2,0.7,0.3,1.1,0.5c0-0.1,0-0.1,0.1-0.2c0.1-0.2,0-0.6-0.3-0.7c0,0,0,0-0.1,0
					c-0.4-0.2-0.8,0-0.9,0.4c-0.1,0.4-0.3,0.8-0.4,1.3c0.3-0.1,0.6-0.2,0.9-0.4c-0.2-0.1-0.4-0.2-0.5-0.2c-0.3-0.1-0.5-0.1-0.7,0.1
					c-0.1,0.1-0.1,0.1-0.2,0.2c-0.2,0.1-0.2,0.4-0.2,0.6c0,0.1,0,0.2,0.1,0.2c0.2-0.2,0.5-0.5,0.7-0.7c-0.3-0.1-0.6-0.2-0.8-0.3
					c-0.1,0.4-0.1,0.8-0.2,1.2c-0.4-0.9-1-1.4-2-1.5c-0.1,0.4-0.2,0.8-0.3,1.2c0.3,0.1,0.7,0.1,1,0.2c0.1-0.4,0.2-0.8,0.3-1.2
					c-1-0.2-2-0.3-3.1-0.3c-0.8,0-0.8,1.2,0,1.2c0.6,0,1.1,0,1.7,0c0-0.4,0-0.8,0-1.2c-1.3,0-2.3,0.2-3.6,0.7
					c-0.7,0.3-0.4,1.3,0.3,1.2c0.3-0.1,0.7-0.1,1-0.2c-0.1-0.4-0.2-0.8-0.3-1.2c-0.2,0-3.1,0.8-3.3,0.5c-0.2,0.3-0.3,0.6-0.5,0.9
					c0.7,0,0.8-0.1,1.1-0.7c0.1-0.2,0.1-0.6-0.1-0.7c-0.7-0.7-1.5-0.6-2,0.3c-0.2,0.3,0,0.8,0.4,0.9c0.8,0.2,0.7,0.2,1.5,0
					c-0.2-0.4-0.3-0.7-0.5-1.1c-0.1,0-0.1,0.1-0.2,0.1c-0.3,0.2-0.4,0.5-0.2,0.8c0,0.1,0.1,0.1,0.1,0.2
					C112.1,95.6,113.1,95,112.8,94.3L112.8,94.3z"/>
			</g>
		</g>
		<g>
			<g>
				<path class="st0" d="M73,81.3c-0.2-0.4-0.4-0.7-0.5-1.1c-0.3,0.2-0.6,0.5-0.9,0.7c0.5,0.6,1,1.1,1.5,1.7
					c0.4,0.5,1.3-0.2,0.9-0.7c-0.3-0.5-0.7-1-1-1.5c-0.3,0.3-0.5,0.5-0.8,0.8c0.4,0.3,0.8,0.6,1.1,1c0.3-0.3,0.6-0.6,0.8-0.8
					c-0.3-0.4-0.7-0.8-1-1.1c-0.5-0.5-1.3,0.1-0.9,0.7c0.2,0.3,0.4,0.6,0.6,0.9c0.3-0.2,0.7-0.4,1-0.6c-0.4-0.7-0.4-0.7-1-1.3
					c-0.4-0.5-1.1,0-1,0.6c0,0.2,0.1,0.5,0.1,0.7c0.3-0.2,0.7-0.4,1-0.6c-0.3-0.4-0.6-0.7-1-1.1c-0.5-0.6-1.4,0.3-0.8,0.8
					c1,1.2,2.1,2.3,3.1,3.5c0.3-0.3,0.6-0.6,0.8-0.8c-0.5-0.5-1-1.1-1.6-1.6c-0.3,0.3-0.6,0.6-0.8,0.8c0.7,0.7,1.5,1.4,2.2,2.1
					c0.3-0.3,0.6-0.6,0.8-0.8c-0.5-0.4-1-0.8-1.5-1.2c-0.6-0.5-1.4,0.3-0.8,0.8c0.4,0.5,0.8,0.9,1.2,1.4c0.3-0.3,0.6-0.6,0.8-0.8
					c-0.4-0.3-0.8-0.7-1.1-1.1c-0.3,0.3-0.6,0.6-0.8,0.8c0.6,0.6,1.2,1.2,1.9,1.8c0.6,0.5,1.4-0.3,0.8-0.8c-0.5-0.6-1.1-1.2-1.6-1.8
					c-0.3,0.3-0.6,0.6-0.8,0.8c0.8,0.7,1.4,1.4,2.1,2.2c0.5,0.6,1.3-0.3,0.8-0.8c-0.3-0.4-0.6-0.8-1-1.1c-0.6-0.5-1.4,0.3-0.8,0.8
					c0.5,0.5,0.9,1.1,1.4,1.6c0.3-0.3,0.6-0.6,0.8-0.8c-0.4-0.4-0.7-0.8-1.1-1.2c-0.3,0.3-0.6,0.6-0.8,0.8c0.6,0.6,1.3,1.1,1.9,1.7
					c0.6,0.5,1.4-0.3,0.8-0.8c-0.2-0.2-0.4-0.5-0.7-0.7c-0.5-0.6-1.4,0.3-0.8,0.8c0.6,0.7,1.2,1.3,1.9,2c0.3-0.3,0.6-0.6,0.8-0.8
					c-0.4-0.3-0.7-0.7-1.1-1c-0.6-0.5-1.4,0.3-0.8,0.8c0.6,0.6,1.1,1.2,1.7,1.8c0.3-0.3,0.6-0.6,0.8-0.8c-0.3-0.3-0.6-0.6-0.9-0.9
					c-0.2,0.3-0.5,0.6-0.7,0.9c0.8,0.6,1.6,1.2,2.4,1.8c0.5,0.4,1.3-0.5,0.7-0.9c-1-0.8-1-0.8-2-1.4c-0.6-0.3-1.3,0.5-0.7,0.9
					c0.9,0.7,1.7,1.4,2.7,2c0.6,0.4,1.2-0.6,0.6-1c-0.3-0.2-0.7-0.5-1-0.7c-0.2,0.3-0.4,0.7-0.6,1c1,0.5,1.9,0.9,2.9,1.4
					c0.7,0.3,1.3-0.6,0.6-1c-0.3-0.2-0.6-0.3-0.8-0.5c-0.6-0.3-1.2,0.5-0.7,0.9c0.7,0.8,1.4,1.2,2.4,1.7c0.2-0.4,0.3-0.7,0.5-1.1
					c-0.3,0-0.6-0.1-0.8-0.1c-0.6-0.1-1.1,0.8-0.5,1.1c0.6,0.3,1.2,0.5,1.8,0.8c0.7,0.3,1.3-0.7,0.6-1c-0.6-0.3-1.2-0.6-1.8-0.9
					c-0.2,0.4-0.3,0.7-0.5,1.1c0.7,0.3,1.4,0.6,2.1,0.9c0.2-0.4,0.3-0.7,0.5-1.1c-0.4-0.1-0.8-0.2-1.2-0.3c-0.7-0.2-1.1,0.8-0.5,1.1
					c0.8,0.4,1.4,0.9,2.3,0.9c0.5,0,0.7-0.5,0.5-0.9c0-0.1,0-0.1-0.1-0.2c-0.1-0.2-0.5-0.4-0.7-0.3c0,0-0.1,0-0.1,0
					c-0.4,0.2-0.7,0.9-0.1,1.1c0.3,0.1,0.7,0.3,1,0.4c0.2-0.4,0.3-0.7,0.5-1.1c-0.3-0.1-0.6-0.2-0.9-0.3c-0.1,0.4-0.2,0.8-0.3,1.2
					c0.4,0.4,0.9,0.9,1.3,1.3c0.4-0.1,0.8-0.1,1.2-0.2c0-0.1,0-0.2,0-0.4c-0.4,0-0.7,0.1-1.1,0.1c0.3,0.5,0.5,1,0.7,1.6
					c0.3-0.2,0.7-0.4,1-0.6c-1-1.6-2.1-1.8-4-1.7c-0.6,0-0.9,0.8-0.3,1.1c0.7,0.3,1.3,0.7,2,1c0.7,0.3,1.3-0.6,0.6-1
					c-0.4-0.3-0.9-0.5-1.3-0.8c-0.2,0.4-0.3,0.7-0.5,1.1c0.6,0,1.2,0.2,1.7,0.4c0.1-0.4,0.2-0.8,0.3-1.2c-0.5-0.2-1.1-0.4-1.6-0.5
					c-0.2,0.4-0.3,0.7-0.5,1.1c0.3,0.1,0.6,0.1,0.9,0.2c0.8,0.2,1-0.9,0.3-1.2c-0.6-0.3-1.2-0.7-1.8-1c-0.2,0.4-0.3,0.7-0.5,1.1
					c0.6,0.2,1.1,0.3,1.7,0.5c0.7,0.2,1.1-0.8,0.5-1.1c-0.4-0.3-0.9-0.5-1.3-0.8c-0.2,0.3-0.4,0.7-0.6,1c0.3,0.2,0.7,0.3,1,0.5
					c0.2-0.4,0.3-0.7,0.5-1.1c-1.5-0.2-2.9-0.6-4.4-1.2c-0.6-0.3-1.1,0.8-0.5,1.1c0.7,0.3,1.3,0.6,2,0.9c0.2-0.4,0.3-0.7,0.5-1.1
					c-0.6-0.3-1.3-0.5-1.9-0.8c-0.2,0.3-0.4,0.7-0.6,1c0.6,0.2,1.1,0.5,1.6,0.9c0.2-0.4,0.3-0.7,0.5-1.1c-0.3,0-0.6-0.1-0.9-0.1
					c-0.7-0.1-1,0.7-0.5,1.1c0.4,0.3,0.8,0.6,1.3,0.8c0.2-0.4,0.3-0.7,0.5-1.1c-1.3-0.4-2.6-1-3.8-1.6c-0.2,0.4-0.3,0.7-0.5,1.1
					c0.2,0.1,0.4,0.2,0.7,0.2c0.6,0.2,1-0.8,0.5-1.1c-0.3-0.2-0.6-0.4-1-0.6c-0.6-0.4-1.2,0.4-0.7,0.9c0.3,0.5,0.7,0.9,1,1.4
					c0.3-0.2,0.6-0.5,0.9-0.7c-1-1.2-2.1-2.4-3.1-3.6c-0.3,0.3-0.6,0.6-0.8,0.8c1.1,0.9,2.2,1.7,3.2,2.6c0.6,0.5,1.5-0.4,0.8-0.8
					c-1.3-1-2.5-2-3.6-3.2c-0.3,0.3-0.6,0.6-0.8,0.8c0.7,0.6,1.3,1.3,1.8,2.1c0.1-0.3,0.2-0.6,0.4-0.9c-0.5-0.1-0.9-0.1-1.4-0.2
					c-0.5-0.4-1.3,0.5-0.7,0.9c0.3,0.3,0.7,0.5,1,0.8c0.6,0.5,1.4-0.3,0.8-0.8c-0.6-0.6-1.2-1.2-1.8-1.8c-0.2,0.3-0.5,0.6-0.7,0.9
					c0.7,0.5,1.4,1,2,1.4c0.6,0.4,1.2-0.5,0.7-0.9c-0.9-0.8-1.8-1.6-2.6-2.5c-0.2,0.3-0.5,0.6-0.7,0.9c1.4,0.9,2.8,1.8,4.2,2.7
					c0.7,0.4,1.2-0.6,0.6-1c-1.5-1.1-3.1-2.2-4.6-3.4c-0.2,0.3-0.4,0.7-0.6,1c1.6,0.7,3.1,1.6,4.6,2.5c0.7,0.4,1.2-0.6,0.6-1
					c-1.9-1.3-3.9-2.6-5.8-3.9c-0.2,0.4-0.3,0.7-0.5,1.1c2,0.8,3.7,1.6,5.5,2.7c0.2-0.3,0.4-0.7,0.6-1c-1.7-1-3.4-2-5-3.1
					c-0.2,0.3-0.4,0.7-0.6,1c2.2,1.4,4.4,2.8,6.6,4.3c0.2-0.3,0.4-0.7,0.6-1c-2-1.2-3.8-2.4-5.6-3.8c-0.2,0.3-0.5,0.6-0.7,0.9
					c1.9,1.1,3.8,2.4,5.6,3.7c0.2-0.3,0.4-0.7,0.6-1c-1.5-0.8-3-1.7-4.5-2.5c-0.7-0.4-1.3,0.6-0.6,1c1.6,1,3.2,2.1,4.8,3.1
					c0.1-0.4,0.2-0.7,0.3-1.1c-0.4-0.1-0.8-0.2-1.3-0.3c-0.1,0.4-0.2,0.8-0.3,1.2c0.9,0.1,1.7,0.4,2.4,0.9c0.2-0.4,0.3-0.7,0.5-1.1
					c-0.5-0.2-0.9-0.4-1.4-0.6c-0.2,0.4-0.3,0.7-0.5,1.1c1.1,0.3,2.1,0.8,3.1,1.4c0.2-0.4,0.3-0.7,0.5-1.1c-0.8-0.3-1.5-0.7-2.2-1.2
					c-0.2,0.3-0.4,0.7-0.6,1c0.6,0.3,1.3,0.6,1.9,0.8c-0.3,0.3-0.2,0.7,0.1,0.9c1.6,1.1,3,1.1,4.7,0.4c0.5-0.2,0.4-1-0.1-1.1
					c-5.3-0.9-9.8-3.7-12.8-8.2c-0.3,0.3-0.5,0.5-0.8,0.8c0.8,0.6,1.5,1.2,2.3,1.9c0.6,0.5,1.4-0.3,0.8-0.8
					c-1.4-1.3-2.9-2.6-4.4-3.7c-0.6-0.4-1.2,0.5-0.7,0.9c1,1,1.9,2.1,2.9,3.1c0.3-0.3,0.6-0.6,0.8-0.8c-1.9-1.5-3.2-3.2-4.3-5.4
					c-0.3,0.2-0.6,0.5-0.9,0.7c1,0.9,1.8,1.8,2.7,2.9c0.3-0.2,0.6-0.5,0.9-0.7c-0.5-0.6-1-1.2-1.5-1.9c-0.5-0.6-1.2,0.2-0.9,0.7
					c0.6,1.4,1.3,2.8,1.9,4.3c0.2-0.3,0.5-0.6,0.7-0.9c-0.9-0.4-0.7-0.3-1.7-0.4c-0.4,0-0.8,0.5-0.5,0.9c1.4,2.2,2.4,4.6,3.8,6.9
					c0.3-0.3,0.5-0.5,0.8-0.8c-0.2-0.2-0.5-0.4-0.7-0.5c-0.6-0.4-1.1,0.5-0.7,0.9c0.2,0.3,0.5,0.6,0.7,0.9c0.2-0.3,0.4-0.7,0.6-1
					c-0.2-0.1-0.4-0.1-0.7-0.2c-0.6-0.2-1,0.6-0.6,1c0.5,0.5,0.5,0.5,1.1,0.9c0.6,0.3,1.2-0.5,0.7-0.9c-0.2-0.2-0.5-0.5-0.7-0.7
					c-0.3,0.3-0.6,0.6-0.8,0.8c0.3,0.3,0.6,0.5,0.9,0.8c0.6,0.5,1.3-0.3,0.8-0.8c-0.7-0.9-0.6-0.7-1.5-1.4c-0.2,0.3-0.4,0.7-0.6,1
					c0.2,0.2,0.5,0.3,0.7,0.5c0.6,0.4,1.1-0.5,0.7-0.9c-1.2-1.4-2.4-2.8-3.6-4.2c-0.2,0.3-0.5,0.6-0.7,0.9c1.1,0.7,1.8,1.4,2.7,2.3
					c0.3-0.3,0.6-0.6,0.8-0.8c-1.5-1.1-2.5-2.4-3.2-4.1c-0.3,0.2-0.6,0.5-0.9,0.7c1.6,1.3,3.1,2.7,4.5,4.3c0.5,0.6,1.3-0.3,0.8-0.8
					c-1.4-1.8-3-3.3-4.8-4.7c-0.6-0.5-1.4,0.3-0.8,0.8c1,1.1,1.9,2.1,2.8,3.3c0.2-0.3,0.5-0.6,0.7-0.9c-0.3-0.1-0.6-0.2-0.9-0.3
					c-0.6-0.2-0.9,0.6-0.6,1c0.5,0.7,1,1.3,1.6,1.8c0.2-0.3,0.5-0.6,0.7-0.9c-0.5-0.3-1-0.6-1.6-0.8c-0.2,0.3-0.4,0.7-0.6,1
					c0.4,0.3,0.8,0.6,1.1,0.8c0.2-0.3,0.5-0.6,0.7-0.9c-0.6-0.4-1.2-0.7-1.8-1.1c-0.7-0.4-1.2,0.6-0.6,1c0.4,0.3,0.8,0.6,1.2,0.9
					c0.2-0.4,0.3-0.7,0.5-1.1c-0.3-0.1-0.6-0.3-0.9-0.4c-0.5-0.2-1,0.6-0.6,1c0.6,0.4,1.1,0.9,1.7,1.3c0.2-0.3,0.5-0.6,0.7-0.9
					c-0.5-0.3-1-0.6-1.5-0.9c-0.7-0.4-1.2,0.6-0.6,1c0.4,0.3,0.7,0.6,1.1,0.8c0.2-0.3,0.4-0.7,0.6-1c-0.7-0.5-1.4-1-2.1-1.5
					c-0.2,0.3-0.4,0.7-0.6,1c0.5,0.3,1,0.7,1.5,1c0.6,0.4,1.2-0.6,0.6-1c-0.7-0.5-1.5-1-2.2-1.5c-0.1,0.4-0.2,0.7-0.3,1.1
					c0.2,0,0.4,0,0.6,0c0.6,0,0.8-0.8,0.3-1.1c-0.5-0.4-1-0.8-1.5-1.2c-0.2,0.3-0.4,0.7-0.6,1c0.8,0.3,1.5,0.7,2.1,1.2
					c0.6,0.4,1.2-0.5,0.7-0.9c-0.6-0.6-1.3-1.2-1.9-1.8c-0.3,0.3-0.6,0.6-0.8,0.8c0.4,0.3,0.6,0.6,0.9,0.9c0.5,0.6,1.3-0.3,0.8-0.8
					c-0.2-0.2-0.3-0.4-0.5-0.6c-0.5-0.6-1.3,0.2-0.8,0.8c0.2,0.2,0.3,0.4,0.5,0.6c0.3-0.3,0.6-0.6,0.8-0.8c-0.2-0.4-0.5-0.7-0.9-0.9
					c-0.6-0.5-1.4,0.3-0.8,0.8c0.6,0.6,1.3,1.2,1.9,1.8c0.2-0.3,0.5-0.6,0.7-0.9c-0.8-0.6-1.5-0.9-2.4-1.3c-0.6-0.2-1,0.6-0.6,1
					c0.9,0.9,0.7,0.7,1.8,1.4c0.1-0.4,0.2-0.7,0.3-1.1c-0.2,0-0.4,0-0.6,0c-0.6,0-0.8,0.8-0.3,1.1c0.7,0.5,1.5,1,2.2,1.5
					c0.2-0.3,0.4-0.7,0.6-1c-0.5-0.3-1-0.7-1.5-1c-0.6-0.4-1.2,0.6-0.6,1c0.7,0.5,1.4,1,2.1,1.5c0.6,0.5,1.2-0.6,0.6-1
					c-0.4-0.3-0.7-0.6-1.1-0.8c-0.2,0.3-0.4,0.7-0.6,1c0.5,0.3,1,0.6,1.5,0.9c0.6,0.4,1.3-0.5,0.7-0.9c-0.6-0.4-1.1-0.9-1.7-1.3
					c-0.2,0.3-0.4,0.7-0.6,1c0.3,0.1,0.6,0.3,0.9,0.4c0.7,0.3,1-0.7,0.5-1.1c-0.4-0.3-0.8-0.6-1.2-0.9c-0.2,0.3-0.4,0.7-0.6,1
					c0.6,0.4,1.2,0.7,1.8,1.1c0.6,0.3,1.2-0.5,0.7-0.9c-0.7-0.7-0.5-0.6-1.4-1c-0.7-0.4-1.3,0.7-0.6,1c0.5,0.3,1,0.6,1.6,0.8
					c0.6,0.3,1.2-0.4,0.7-0.9c-0.6-0.6-1.1-1.2-1.6-1.8c-0.2,0.3-0.4,0.7-0.6,1c0.3,0.1,0.6,0.2,0.9,0.3c0.5,0.2,1-0.5,0.7-0.9
					c-1-1.2-1.9-2.4-3-3.5c-0.3,0.3-0.6,0.6-0.8,0.8c1.8,1.4,3.4,2.9,4.8,4.7c0.3-0.3,0.6-0.6,0.8-0.8c-1.4-1.6-2.8-3-4.5-4.3
					c-0.5-0.4-1.2,0.1-0.9,0.7c0.8,1.8,1.8,3.1,3.4,4.4c0.6,0.5,1.4-0.3,0.8-0.8c-0.9-1-1.8-1.8-2.9-2.5c-0.6-0.4-1.1,0.5-0.7,0.9
					c1.2,1.4,2.4,2.8,3.6,4.2c0.2-0.3,0.5-0.6,0.7-0.9c-0.2-0.2-0.5-0.3-0.7-0.5c-0.7-0.4-1.2,0.6-0.6,1c0.4,0.4,0.8,0.8,1.3,1.2
					c0.3-0.3,0.6-0.6,0.8-0.8c-0.3-0.3-0.6-0.5-0.9-0.8c-0.6-0.5-1.4,0.3-0.8,0.8c0.2,0.2,0.5,0.5,0.7,0.7c0.2-0.3,0.5-0.6,0.7-0.9
					c-0.3-0.2-0.6-0.5-0.9-0.7c-0.2,0.3-0.4,0.7-0.6,1c0.2,0.1,0.4,0.1,0.7,0.2c0.6,0.2,0.9-0.6,0.6-1c-0.2-0.3-0.5-0.6-0.7-0.9
					c-0.2,0.3-0.5,0.6-0.7,0.9c0.2,0.2,0.5,0.4,0.7,0.5c0.5,0.4,1.1-0.3,0.8-0.8c-1.4-2.2-2.3-4.7-3.8-6.9c-0.2,0.3-0.3,0.6-0.5,0.9
					c0.5,0.1,0.9,0.2,1.4,0.3c0.5,0.2,0.9-0.5,0.7-0.9c-0.6-1.4-1.3-2.8-1.9-4.3c-0.3,0.2-0.6,0.5-0.9,0.7c0.5,0.6,1,1.2,1.5,1.9
					c0.4,0.5,1.4-0.2,0.9-0.7c-0.9-1.1-1.8-2.2-2.8-3.1c-0.5-0.5-1.2,0.1-0.9,0.7c1.1,2.3,2.5,4.1,4.4,5.6c0.6,0.5,1.4-0.3,0.8-0.8
					c-1-1-1.9-2.1-2.9-3.1c-0.2,0.3-0.5,0.6-0.7,0.9c1.5,1.1,2.8,2.3,4.2,3.5c0.3-0.3,0.6-0.6,0.8-0.8c-0.8-0.7-1.6-1.4-2.5-2.1
					c-0.5-0.4-1.1,0.3-0.8,0.8c3.2,4.7,7.9,7.8,13.6,8.7c0-0.4-0.1-0.7-0.1-1.1c-1.2-0.1-2.3-0.2-3.5-0.4c0,0.3,0.1,0.6,0.1,0.9
					c0.1-0.1,0.1-0.1,0.2-0.2c0.2-0.1,0.2-0.4,0.2-0.6c-0.4-1.1-1.4-1.5-2.5-2c-0.7-0.3-1.3,0.6-0.6,1c0.8,0.6,1.6,1,2.5,1.3
					c0.6,0.3,1-0.8,0.5-1.1c-1.1-0.6-2.2-1.1-3.4-1.5c-0.7-0.2-1,0.8-0.5,1.1c0.9,0.5,0.7,0.4,1.7,0.7c0.6,0.2,1.1-0.8,0.5-1.1
					c-0.9-0.5-1.7-0.8-2.7-1c-0.8-0.2-1,0.9-0.3,1.2c0.8,0.3,0.7,0.3,1.6,0.3c0.6,0.1,0.8-0.8,0.3-1.1c-1.6-1-3.2-2.1-4.8-3.1
					c-0.2,0.3-0.4,0.7-0.6,1c1.5,0.8,3,1.7,4.5,2.5c0.7,0.4,1.2-0.6,0.6-1c-1.8-1.3-3.7-2.5-5.6-3.7c-0.6-0.3-1.3,0.5-0.7,0.9
					c1.9,1.5,3.8,2.8,5.9,4c0.7,0.4,1.2-0.6,0.6-1c-2.2-1.5-4.4-2.9-6.6-4.3c-0.7-0.4-1.2,0.6-0.6,1c1.6,1.1,3.2,2.2,5,3.1
					c0.7,0.4,1.3-0.6,0.6-1c-1.9-1.1-3.8-2.1-5.8-2.8c-0.7-0.3-1,0.7-0.5,1.1c1.9,1.3,3.9,2.6,5.8,3.9c0.2-0.3,0.4-0.7,0.6-1
					c-1.5-1-3-1.8-4.6-2.5c-0.7-0.3-1.2,0.6-0.6,1c1.5,1.1,3.1,2.2,4.6,3.4c0.2-0.3,0.4-0.7,0.6-1c-1.4-0.9-2.8-1.8-4.2-2.7
					c-0.6-0.4-1.2,0.5-0.7,0.9c0.9,0.9,1.7,1.7,2.6,2.5c0.2-0.3,0.5-0.6,0.7-0.9c-0.7-0.5-1.4-1-2-1.4c-0.6-0.4-1.2,0.5-0.7,0.9
					c0.6,0.6,1.2,1.2,1.8,1.8c0.3-0.3,0.6-0.6,0.8-0.8c-0.3-0.3-0.7-0.5-1-0.8c-0.2,0.3-0.5,0.6-0.7,0.9c0.8,0.6,1.4,0.7,2.3,0.3
					c0.3-0.1,0.6-0.5,0.4-0.9c-0.6-0.9-1.2-1.6-2-2.4c-0.6-0.5-1.4,0.3-0.8,0.8c1.2,1.1,2.4,2.2,3.6,3.2c0.3-0.3,0.6-0.6,0.8-0.8
					c-1.1-0.9-2.2-1.7-3.2-2.6c-0.6-0.5-1.4,0.3-0.8,0.8c1,1.2,2.1,2.4,3.1,3.6c0.4,0.5,1.3-0.2,0.9-0.7c-0.6-0.9-0.5-0.8-1.2-1.6
					c-0.2,0.3-0.5,0.6-0.7,0.9c0.3,0.2,0.6,0.4,1,0.6c0.2-0.4,0.3-0.7,0.5-1.1c-0.2-0.1-0.4-0.2-0.7-0.2c-0.6-0.2-1.1,0.8-0.5,1.1
					c1.3,0.7,2.7,1.2,4.1,1.7c0.6,0.2,1.1-0.8,0.5-1.1c-0.5-0.2-0.9-0.4-1.3-0.8c-0.2,0.4-0.3,0.7-0.5,1.1c0.3,0,0.6,0.1,0.9,0.1
					c0.7,0.1,1.1-0.7,0.5-1.1c-0.5-0.4-1-0.7-1.6-0.9c-0.7-0.3-1.3,0.7-0.6,1c1.2,0.6,1,0.5,2.2,0.9c0.6,0.2,1.1-0.8,0.5-1.1
					c-0.7-0.3-1.3-0.6-2-0.9c-0.2,0.4-0.3,0.7-0.5,1.1c1.4,0.6,2.8,1,4.4,1.2c0.6,0.1,1.1-0.8,0.5-1.1c-0.3-0.2-0.7-0.3-1-0.5
					c-0.7-0.3-1.3,0.6-0.6,1c0.4,0.3,0.9,0.5,1.3,0.8c0.2-0.4,0.3-0.7,0.5-1.1c-0.6-0.2-1.1-0.3-1.7-0.5c-0.7-0.2-1,0.7-0.5,1.1
					c1.1,0.8,0.9,0.6,2.1,1.1c0.1-0.4,0.2-0.8,0.3-1.2c-0.3-0.1-0.6-0.1-0.9-0.2c-0.6-0.2-1.1,0.8-0.5,1.1c1,0.5,0.8,0.4,1.9,0.7
					c0.8,0.1,1.1-0.9,0.3-1.2c-0.6-0.2-1.1-0.4-1.7-0.4c-0.6-0.1-1.1,0.7-0.5,1.1c0.4,0.3,0.9,0.5,1.3,0.8c0.2-0.3,0.4-0.7,0.6-1
					c-0.7-0.3-1.3-0.7-2-1c-0.1,0.4-0.2,0.7-0.3,1.1c1.1-0.3,2.1,0.1,3,1.1c0.4,0.7,1.3,0.1,1-0.6c-0.2-0.5-0.5-1.1-0.7-1.6
					c-0.3-0.5-0.9-0.3-1.1,0.1c-0.2,0.4-0.2,0.5,0,1c0.2,0.6,1.1,0.5,1.2-0.2c0.2-1.6-0.8-2.1-2.2-2.5c-0.8-0.2-1.1,0.9-0.3,1.2
					c0.3,0.1,0.6,0.2,0.9,0.3c0.6,0.2,1.1-0.8,0.5-1.1c-0.3-0.1-0.7-0.3-1-0.4c0,0.4-0.1,0.7-0.1,1.1c-0.2-0.1-0.3-0.1-0.5-0.2
					c0.2-0.3,0.3-0.6,0.5-0.9c-0.6-0.1-1.2-0.3-1.7-0.7c-0.2,0.4-0.3,0.7-0.5,1.1c0.4,0.1,0.8,0.2,1.2,0.3c0.6,0.2,1.1-0.8,0.5-1.1
					c-1.1-0.6-1.2-0.6-2.4-1c-0.6-0.2-1.1,0.8-0.5,1.1c0.6,0.3,1.2,0.6,1.8,0.9c0.2-0.3,0.4-0.7,0.6-1c-0.6-0.3-1.2-0.5-1.8-0.8
					c-0.2,0.4-0.3,0.7-0.5,1.1c0.3,0,0.6,0.1,0.8,0.1c0.6,0.1,1.1-0.8,0.5-1.1c-0.8-0.3-1.5-0.8-2.1-1.5c-0.2,0.3-0.5,0.6-0.7,0.9
					c0.3,0.2,0.6,0.3,0.8,0.5c0.2-0.3,0.4-0.7,0.6-1c-1-0.5-1.9-0.9-2.9-1.4c-0.7-0.3-1.3,0.6-0.6,1c0.3,0.2,0.7,0.5,1,0.7
					c0.2-0.3,0.4-0.7,0.6-1c-0.8-0.5-1.7-1.1-2.4-1.8c-0.2,0.3-0.5,0.6-0.7,0.9c0.6,0.4,1.2,0.8,1.8,1.2c0.2-0.3,0.5-0.6,0.7-0.9
					c-0.8-0.6-1.6-1.2-2.4-1.8c-0.6-0.4-1.2,0.5-0.7,0.9c0.3,0.3,0.6,0.6,0.9,0.9c0.5,0.6,1.4-0.3,0.8-0.8c-0.6-0.6-1.1-1.2-1.7-1.8
					c-0.3,0.3-0.6,0.6-0.8,0.8c0.4,0.3,0.7,0.7,1.1,1c0.6,0.5,1.4-0.3,0.8-0.8c-0.6-0.7-1.2-1.3-1.9-2c-0.3,0.3-0.6,0.6-0.8,0.8
					c0.2,0.2,0.4,0.5,0.7,0.7c0.3-0.3,0.6-0.6,0.8-0.8c-0.6-0.6-1.3-1.1-1.9-1.7c-0.6-0.5-1.4,0.3-0.8,0.8c0.4,0.4,0.7,0.8,1.1,1.2
					c0.5,0.6,1.4-0.3,0.8-0.8c-0.5-0.5-0.9-1.1-1.4-1.6c-0.3,0.3-0.6,0.6-0.8,0.8c0.4,0.3,0.7,0.7,1,1.1c0.3-0.3,0.6-0.6,0.8-0.8
					c-0.7-0.8-1.3-1.5-2.1-2.2c-0.6-0.5-1.4,0.3-0.8,0.8c0.5,0.6,1.1,1.2,1.6,1.8c0.3-0.3,0.6-0.6,0.8-0.8c-0.6-0.6-1.2-1.2-1.9-1.8
					c-0.6-0.5-1.4,0.3-0.8,0.8c0.3,0.4,0.7,0.8,1.1,1.1c0.6,0.5,1.4-0.3,0.8-0.8c-0.4-0.5-0.8-0.9-1.2-1.4c-0.3,0.3-0.6,0.6-0.8,0.8
					c0.5,0.4,1,0.8,1.5,1.2c0.6,0.5,1.4-0.3,0.8-0.8c-0.7-0.7-1.5-1.4-2.2-2.1c-0.6-0.5-1.4,0.3-0.8,0.8c0.5,0.5,1,1.1,1.6,1.6
					c0.5,0.6,1.4-0.3,0.8-0.8c-1-1.2-2.1-2.3-3.1-3.5c-0.3,0.3-0.6,0.6-0.8,0.8c0.3,0.4,0.6,0.7,1,1.1c0.4,0.5,1.1,0,1-0.6
					c0-0.2-0.1-0.5-0.1-0.7c-0.3,0.2-0.7,0.4-1,0.6c0.3,0.3,0.5,0.7,0.8,1c0.4,0.7,1.4,0.1,1-0.6c-0.2-0.3-0.4-0.6-0.6-0.9
					c-0.3,0.2-0.6,0.5-0.9,0.7c0.3,0.4,0.7,0.8,1,1.1c0.5,0.6,1.4-0.3,0.8-0.8c-0.7-0.8-0.5-0.6-1.4-1.2c-0.5-0.3-1.2,0.3-0.8,0.8
					c0.3,0.5,0.7,1,1,1.5c0.3-0.2,0.6-0.5,0.9-0.7c-0.5-0.6-1-1.1-1.5-1.7c-0.5-0.5-1.2,0.1-0.9,0.7c0.2,0.4,0.4,0.7,0.5,1.1
					C72.3,82.6,73.4,82,73,81.3L73,81.3z"/>
			</g>
		</g>
		<g>
			<g>
				<path class="st0" d="M120.9,92.9c-0.2,0-0.4-0.1-0.6-0.1c-0.5-0.1-0.9,0.4-0.7,0.9c0,0,0,0.1,0.1,0.1c0-0.2,0.1-0.5,0.1-0.7
					c0.1,0,0.2-0.1,0.2-0.1c0,0.3,0,0.7,0,1c0.1,0,0.2-0.1,0.3-0.1c0.5-0.2,0.3-1-0.1-1.1c-2.6-0.5-5.4-0.7-7.7,0.8
					c-0.7,0.4,0,1.5,0.6,1c2.1-1.3,4.5-1.2,6.8-0.7c0-0.4-0.1-0.7-0.1-1.1c-0.1,0-0.2,0.1-0.3,0.1c-0.5,0.2-0.3,0.8,0,1
					c0.4,0.3,0.8,0.3,1.2-0.1c0.2-0.2,0.2-0.5,0.1-0.7c0,0,0-0.1-0.1-0.1c-0.2,0.3-0.5,0.6-0.7,0.9c0.2,0,0.4,0.1,0.6,0.1
					C121.3,94.2,121.7,93.1,120.9,92.9L120.9,92.9z"/>
			</g>
		</g>
		<g>
			<g>
				<path class="st0" d="M66.8,55.4c0,0.2-0.1,0.4-0.1,0.6c-0.1,0.7,0.5,1.1,1.1,0.8c0.8-0.3,1-1.2,1.3-1.9c0.5-1.5,0.8-3,1.7-4.4
					c-0.5-0.1-0.9-0.3-1.4-0.4c-0.3,2.7-0.9,5.4-1.7,8c0.5,0.1,1,0.1,1.5,0.2c0-0.6,0.1-5.3,0.6-5.4c-0.3-0.2-0.6-0.5-0.9-0.7
					c0,2-0.1,3.9-0.3,5.9c0.5,0,1,0,1.5,0c0-1.5,0.1-2.9,0.4-4.3c-0.5-0.1-1-0.1-1.5-0.2c-0.2,2-0.5,4-0.9,6c0.5,0.1,1,0.1,1.5,0.2
					c0-0.2,0-0.4,0-0.6c-0.1-1-1.6-1-1.5,0c0,0.2,0,0.4,0,0.6c0.1,0.8,1.3,1.1,1.5,0.2c0.5-2.1,0.8-4.2,1-6.4c0.1-0.8-1.3-1-1.5-0.2
					c-0.3,1.6-0.5,3.1-0.5,4.7c0,1,1.4,0.9,1.5,0c0.2-2,0.3-3.9,0.3-5.9c0-0.5-0.5-0.8-0.9-0.7c-1.9,0.5-1.7,5.4-1.7,6.9
					c0,0.9,1.2,1,1.5,0.2c0.8-2.8,1.4-5.6,1.7-8.4c0.1-0.8-1-1-1.4-0.4c-0.5,0.9-0.9,1.7-1.2,2.7c-0.2,0.7-0.6,2.8-1.2,3.1
					c0.4,0.3,0.7,0.6,1.1,0.8c0-0.2,0.1-0.4,0.1-0.6C68.4,54.9,67,54.5,66.8,55.4L66.8,55.4z"/>
			</g>
		</g>
		<g>
			<g>
				<path class="st0" d="M70.2,71.5c-0.4-1.1-0.7-2.3-1.1-3.4c-0.6-1.9-3.2-1.1-2.9,0.8c0.3,1.7,0.8,3.2,0.8,4.9
					c0.9-0.3,1.9-0.5,2.8-0.8c-0.2-0.3-0.4-0.6-0.6-0.8c-0.9-1.4-3.1-0.6-2.7,1.2c0.5,2.1,0.9,4.1,1.1,6.2c0.9-0.3,1.9-0.5,2.8-0.8
					c-0.3-0.5-0.6-0.9-0.9-1.4c-1-1.6-3.5-0.2-2.6,1.5c2.1,3.8,4.1,7.6,6.2,11.4c0.6-0.7,1.1-1.5,1.7-2.2c-0.5-0.2-1-0.4-1.6-0.5
					c-1-0.6-2.7,0.4-2.2,1.7c0.7,1.8,1.5,2.6,3.3,3.3c1.7,0.7,2.5-1.8,1.2-2.7c-1.3-0.8-2.4-1.8-3.3-3c-0.6,0.8-1.2,1.6-1.8,2.4
					c1,0.5,1.8,1.1,2.6,1.9c1.2,1,3.4-0.3,2.4-1.8c-0.9-1.4-1.9-2.7-2.8-4.1c-0.7,0.7-1.4,1.4-2.1,2.1c0.7,0.5,1.4,1.1,2.1,1.6
					c1.2,0.9,2.8-0.8,2.1-2.1c-0.7-1.2-1.4-2.4-2.2-3.5c-0.8,0.6-1.6,1.2-2.4,1.8c1,0.8,1.8,1.6,2.6,2.6c0.7-0.7,1.4-1.4,2.1-2.1
					c-1.1-1.2-2-2.4-2.9-3.8c-0.8,0.6-1.6,1.2-2.4,1.8c0.5,0.7,1.1,1.4,1.6,2.2c0.8-0.6,1.6-1.2,2.4-1.8c-1.2-1.3-1.9-2.8-2.4-4.5
					c-0.9,0.4-1.8,0.8-2.7,1.2c0.8,1.2,1.4,2.4,2.1,3.7c0.9-0.5,1.7-1,2.6-1.5c-0.8-1.3-1.5-2.6-1.9-4.1c-0.9,0.4-1.8,0.8-2.7,1.2
					c0.5,0.9,1.1,1.9,1.6,2.8c1,1.7,3.4,0.2,2.6-1.5c-0.4-1-0.7-2-1.1-3c-0.9,0.4-1.8,0.8-2.7,1.2c0.6,0.8,1.1,1.6,1.5,2.6
					c0.9-0.5,1.7-1,2.6-1.5c-0.3-0.6-0.6-1.1-0.9-1.7c-0.9,0.4-1.8,0.8-2.7,1.2c0.4,0.8,0.9,1.6,1.3,2.3c0.8,1.4,3.4,0.4,2.7-1.2
					c-0.3-0.7-0.6-1.4-0.9-2.1c-0.9,0.4-1.8,0.8-2.7,1.2c0.9,2,2,3.7,3.4,5.4c0.7-0.7,1.4-1.4,2.1-2.1c-2.7-3-4-6.3-4.2-10.3
					c-1,0.1-2,0.3-2.9,0.4c1.1,2.6,1.8,5.2,2.2,8.1c1-0.3,1.9-0.5,2.9-0.8c-0.6-2.2-1-4.3-1.3-6.6c-1,0-2,0-3,0
					c0.2,1.5,0.4,3,0.5,4.5c1-0.1,2-0.3,2.9-0.4c-0.9-3.2-1.1-6.1-0.7-9.3c-1,0.1-2,0.3-2.9,0.4c0.3,2.2,0.6,4.5,0.9,6.7
					c1-0.3,1.9-0.5,2.9-0.8c-0.7-1.9-1.1-3.7-1.5-5.6c-1,0.3-1.9,0.5-2.9,0.8c0.2,1.1,0.4,2.2,0.6,3.3c0.3,1.6,3.2,1.3,2.9-0.4
					c-0.4-3-0.5-5.9-0.2-9c-1,0-2,0-3,0c0.2,2.3,0.2,4.5,0.2,6.8c1-0.1,2-0.3,2.9-0.4c-0.5-2.8-0.3-5.2,0.4-7.8
					c-1-0.1-2-0.3-2.9-0.4c0.1,1.7,0,3.3-0.3,5c1,0.1,2,0.3,2.9,0.4c0-1.6,0.1-3.2,0.4-4.7c-1-0.1-2-0.3-2.9-0.4
					c-0.1,2.5-0.2,4.9-0.2,7.4c1,0,2,0,3,0c-0.2-1.8-0.2-3.3,0-5.1c-1,0-2,0-3,0c-0.1,1.6-0.1,3.2-0.2,4.8c1,0,2,0,3,0
					c0-2,0.1-4,0.2-6c-1,0.1-2,0.3-2.9,0.4c0.6,2.8,0.6,4.8-0.1,7.6c1,0.1,2,0.3,2.9,0.4c0-5.2,0.8-10.2,2.5-15.1
					c-1-0.3-1.9-0.5-2.9-0.8c-0.5,3-1.2,6-2.1,8.9c1,0.1,2,0.3,2.9,0.4c0.3-5.9,1.9-11.3,4.7-16.4c-0.9-0.4-1.8-0.8-2.7-1.2
					c-0.7,2.6-1.6,5-2.7,7.4c0.9,0.4,1.8,0.8,2.7,1.2c2-5.7,4.7-10.8,8.2-15.8c-0.9-0.5-1.7-1-2.6-1.5c-0.8,1.5-1.6,2.9-2.4,4.4
					c-0.8,1.4,1.2,3.2,2.4,1.8c1.3-1.7,2.8-3.2,4.3-4.7c-0.8-0.2-1.7-0.4-2.5-0.7c0.1,0.4,0.1,0.8,0.2,1.2c0.3,1.3,2.1,1.4,2.7,0.4
					c0.2-0.3,0.4-0.6,0.5-0.9c-0.9-0.1-1.8-0.2-2.7-0.4c0.2,0.7,0.4,1.4,0.5,2.2c0.1,1.2,1.2,1.8,2.3,1.3c0.3-0.1,0.7-0.1,1-0.2
					c0.4,0.5,1.3,0.5,1.8,0.2c0.5-0.3,5.2-0.2,5.7,0.4c0.5,0.6,1.6,0.5,2.1,0c0.5,0,1.1,0,1.6,0c0.6,0.7,1.6,1.1,2.4,0.3
					c1.2-1.2,4.3-0.3,5.9-1.4c-0.8-0.4-1.5-0.9-2.3-1.3c0,0.2-0.1,0.4-0.1,0.7c-0.9,1.7,1.5,3.1,2.6,1.5c1.3-1.8,4,0,5.7-0.2
					c2.5-0.3,3.1-1.5,6.3-1.1c0.8,0.1,1.5-0.8,1.5-1.5c0.2-8.3-11.6-6.4-15.6-2.5c0.8,0.6,1.6,1.2,2.4,1.8c1-1.4,2.1-2.8,3.1-4.2
					c1-1.4-0.9-2.6-2.1-2.1c-5.4,2.4-12,5.1-17,0.5c-0.7-0.6-1.5-0.5-2.1,0c-2.1,1.7-4.3,3-6.8,4.2c0.7,0.7,1.4,1.4,2.1,2.1
					c1-1.9,2.2-3.3,3.9-4.5c-0.7-0.7-1.4-1.4-2.1-2.1c-2.3,3-4.8,5.7-7.6,8.2c0.8,0.5,1.7,1,2.5,1.5c0.5-1.6,1.1-3,2-4.4
					c-0.9-0.5-1.7-1-2.6-1.5c-1.3,2.6-2.8,4.9-4.5,7.3c0.9,0.4,1.8,0.8,2.7,1.2c0.2-1.2,0.7-2.4,1.3-3.5c-0.9-0.5-1.7-1-2.6-1.5
					c-1.2,2.7-2.5,5.1-4.2,7.5c0.9,0,1.7,0,2.6,0c-0.1-0.8-0.1-1.7-0.2-2.5c0.3-1.6-1.8-2.7-2.7-1.2c-3.9,6.5-4.6,14.2-5,21.7
					c-0.4,7.2-1.2,14.3,2.7,20.6c0.8-0.6,1.6-1.2,2.4-1.8c-0.9-0.7-1.7-1.5-2.3-2.5c-1.1-1.6-3.4-0.2-2.6,1.5
					c0.7,1.5,1.5,2.7,2.6,3.9c1.3,1.5,3.3-0.6,2.1-2.1c-1.5-1.8-2.5-3.5-3.6-5.5c-0.9,0.5-1.7,1-2.6,1.5c0.9,1.5,1.7,3,2.6,4.5
					c1,1.7,3.5,0.2,2.6-1.5c-1.5-2.8-2.6-5.6-3.4-8.6c-0.4-1.6-3.2-1.3-2.9,0.4c0.2,1.3,0.2,1.7,0.6,2.9c0.6,1.8,3.4,1.1,2.9-0.8
					c-2.7-9.8-0.9-19.7,3.1-28.9c-0.9-0.3-1.9-0.5-2.8-0.8c-0.5,5.9-3.7,11-2.6,17.1c0.3,1.9,3.2,1.1,2.9-0.8
					c-0.2-1.1-0.4-2.1-0.6-3.2c-0.3-1.4-2.7-1.5-2.9,0c-0.3,2.4-0.8,4.5-1.7,6.7c1,0,1.9,0,2.9,0c-1.7-12.4,3-24.6,12.2-33
					c-0.8-0.6-1.6-1.2-2.4-1.8c-2.2,3.8-4.6,7.3-7.2,10.8c-1.2,1.5,1.4,3,2.6,1.5c2.6-3.5,5-7,7.2-10.8c0.9-1.5-1.1-2.9-2.4-1.8
					c-10.1,9.1-14.8,22.4-13,35.9c0.2,1.6,2.4,1.2,2.9,0c0.9-2.2,1.3-4.4,1.7-6.7c-1,0-1.9,0-2.9,0c0.2,1.1,0.4,2.1,0.6,3.2
					c1-0.3,1.9-0.5,2.9-0.8c-1-5.5,2.3-10.8,2.7-16.3c0.1-1.4-2.2-2.1-2.8-0.8c-4.2,10-6.3,20.6-3.4,31.2c1-0.3,1.9-0.5,2.9-0.8
					c-0.2-0.7-0.4-1.4-0.5-2.1c-1,0.1-2,0.3-2.9,0.4c0.9,3.3,2.1,6.3,3.7,9.3c0.9-0.5,1.7-1,2.6-1.5c-0.9-1.5-1.7-3-2.6-4.5
					c-1-1.7-3.5-0.2-2.6,1.5c1.2,2.2,2.5,4.2,4,6.1c0.7-0.7,1.4-1.4,2.1-2.1c-0.9-1-1.7-2.1-2.1-3.3c-0.9,0.5-1.7,1-2.6,1.5
					c0.8,1.2,1.6,2.2,2.8,3.1c1.2,1,3.3-0.3,2.4-1.8c-3.5-5.6-2.6-12.7-2.3-19.1c0.4-6.9,1-14.1,4.6-20.2c-0.9-0.4-1.8-0.8-2.7-1.2
					c-0.4,1.9-0.2,3.1,0.5,4.9c0.5,1.1,2,0.8,2.6,0c1.6-2.4,3-4.9,4.2-7.5c0.8-1.7-1.7-3.3-2.6-1.5c-0.7,1.4-1.2,2.7-1.6,4.2
					c-0.4,1.7,1.8,2.5,2.7,1.2c1.7-2.3,3.1-4.7,4.5-7.3c0.9-1.7-1.7-3.2-2.6-1.5c-0.9,1.7-1.6,3.3-2.3,5.1c-0.5,1.5,1.5,2.4,2.5,1.5
					c2.9-2.7,5.6-5.7,8-8.9c0.9-1.2-0.9-2.9-2.1-2.1c-2.2,1.6-3.7,3.2-5,5.6c-0.7,1.4,0.7,2.7,2.1,2.1c2.7-1.3,5.1-2.9,7.4-4.7
					c-0.7,0-1.4,0-2.1,0c6.2,5.6,13.9,3,20.7,0c-0.7-0.7-1.4-1.4-2.1-2.1c-1,1.4-2.1,2.8-3.1,4.2c-1,1.4,1.2,3,2.4,1.8
					c1.5-1.5,10.6-5.4,10.4,0.4c0.5-0.5,1-1,1.5-1.5c-3.2-0.3-7.4,0.1-10.5,0.6c-1.9,0.3-2.9,0.6-4.1,2.2c0.9,0.5,1.7,1,2.6,1.5
					c0.5-0.9,0.6-1.2,0.5-2.2c-0.1-1-1.3-2-2.3-1.3c-1.1,0.8-2.3-0.3-3.5-0.1c-1.2,0.2-2.2,1.2-3,2c0.8,0.1,1.6,0.2,2.4,0.3
					c-1.7-2.3-4.2-2.7-6.3-0.6c0.7,0,1.4,0,2.1,0c-2.1-2.3-6.7-2.2-9.3-0.9c0.6,0.1,1.2,0.2,1.8,0.2c-1.4-1.8-2.9-1.2-4.7-0.3
					c0.8,0.4,1.5,0.9,2.3,1.3c-0.1-1.5-0.1-1.6-0.7-3c-0.5-1.2-2-1.5-2.7-0.4c-0.2,0.3-0.4,0.6-0.5,0.9c0.9,0.1,1.8,0.2,2.7,0.4
					c-0.1-0.4-0.1-0.8-0.2-1.2c-0.2-1.2-1.7-1.4-2.5-0.7c-1.5,1.5-3,3-4.3,4.7c0.8,0.6,1.6,1.2,2.4,1.8c0.8-1.5,1.6-2.9,2.4-4.4
					c0.9-1.7-1.5-3.1-2.6-1.5c-3.6,5.1-6.4,10.6-8.5,16.5c-0.6,1.6,2,2.7,2.7,1.2c1.2-2.6,2.2-5.3,3-8.1c0.4-1.6-1.9-2.7-2.7-1.2
					c-3.1,5.6-4.8,11.5-5.2,17.9c-0.1,1.7,2.4,2,2.9,0.4c0.9-2.9,1.6-5.8,2.1-8.9c0.3-1.9-2.3-2.7-2.9-0.8
					c-1.8,5.2-2.6,10.4-2.6,15.9c0,1.7,2.6,2.1,2.9,0.4c0.7-3.2,0.7-6,0.1-9.2c-0.4-1.8-2.8-1.2-2.9,0.4c-0.2,2-0.2,4-0.2,6
					c0,1.9,2.9,1.9,3,0c0.1-1.6,0.1-3.2,0.2-4.8c0.1-1.9-2.8-1.9-3,0c-0.2,1.8-0.1,3.3,0,5.1c0.2,1.9,2.9,2,3,0
					c0.1-2.5,0.2-4.9,0.2-7.4c0.1-1.7-2.7-2.1-2.9-0.4c-0.3,1.9-0.5,3.6-0.5,5.5c0,1.6,2.7,2.1,2.9,0.4c0.3-2,0.4-3.8,0.4-5.8
					c0-1.7-2.5-2.1-2.9-0.4c-0.9,3.3-1,6.1-0.4,9.4c0.3,1.7,2.9,1.2,2.9-0.4c0-2.3,0-4.5-0.2-6.8c-0.2-1.9-2.8-1.9-3,0
					c-0.3,3-0.2,6,0.2,9c1-0.1,2-0.3,2.9-0.4c-0.2-1.1-0.4-2.2-0.6-3.3c-0.3-1.9-3.2-1.1-2.9,0.8c0.3,1.9,0.8,3.8,1.5,5.6
					c0.7,1.9,3.1,1.1,2.9-0.8c-0.3-2.2-0.6-4.5-0.9-6.7c-0.2-1.8-2.8-1.1-2.9,0.4c-0.5,3.5-0.2,6.7,0.8,10.1
					c0.5,1.5,3.2,1.3,2.9-0.4c-0.2-1.5-0.4-3-0.5-4.5c-0.2-1.9-3.2-1.9-3,0c0.3,2.5,0.7,4.9,1.4,7.4c0.5,1.9,3.1,1.1,2.9-0.8
					c-0.4-2.8-1.1-5.4-2.2-8.1c-0.6-1.4-3-1.4-2.9,0.4c0.2,4.8,1.8,8.8,5.1,12.4c1.3,1.5,3.3-0.7,2.1-2.1c-1.3-1.6-2.1-3-2.9-4.8
					c-0.7-1.5-3.4-0.4-2.7,1.2c0.3,0.7,0.6,1.4,0.9,2.1c0.9-0.4,1.8-0.8,2.7-1.2c-0.4-0.8-0.9-1.6-1.3-2.3c-0.8-1.4-3.4-0.5-2.7,1.2
					c0.4,1.1,0.6,1.4,1.2,2.4c1,1.6,3.5,0.2,2.6-1.5c-0.4-0.9-0.9-1.8-1.5-2.6c-0.9-1.3-3.2-0.6-2.7,1.2c0.5,1.7,0.6,2,1.4,3.7
					c0.9-0.5,1.7-1,2.6-1.5c-0.5-0.9-1.1-1.9-1.6-2.8c-0.8-1.4-3.3-0.5-2.7,1.2c0.6,1.7,1.3,3.2,2.2,4.8c1,1.7,3.5,0.2,2.6-1.5
					c-0.6-1.3-1.3-2.5-2.1-3.7c-0.9-1.4-3.3-0.5-2.7,1.2c0.7,2.2,1.7,4,3.1,5.8c1.1,1.3,3.3-0.4,2.4-1.8c-0.8-1.3-1.1-1.6-2-2.8
					c-1.1-1.3-3.3,0.4-2.4,1.8c1,1.6,2.1,3,3.3,4.4c1.3,1.5,3.3-0.6,2.1-2.1c-0.8-1-1.6-1.8-2.6-2.6c-1.2-1-3.3,0.3-2.4,1.8
					c0.7,1.2,1.4,2.4,2.2,3.5c0.7-0.7,1.4-1.4,2.1-2.1c-0.7-0.5-1.4-1.1-2.1-1.6c-1.2-0.9-2.9,0.9-2.1,2.1c0.9,1.4,1.9,2.7,2.8,4.1
					c0.8-0.6,1.6-1.2,2.4-1.8c-1-0.9-2.1-1.7-3.2-2.4c-1.5-0.9-2.9,1.1-1.8,2.4c1.2,1.4,2.4,2.4,3.9,3.5c0.4-0.9,0.8-1.8,1.2-2.7
					c-0.4-0.4-0.8-0.8-1.2-1.3c-0.7,0.6-1.5,1.1-2.2,1.7c1.1,0.6,1.1,0.7,2.3,0.8c1.3,0.2,2.4-1,1.7-2.2c-2.1-3.8-4.1-7.6-6.2-11.4
					c-0.9,0.5-1.7,1-2.6,1.5c0.3,0.5,0.6,0.9,0.9,1.4c0.7,1.1,3,0.8,2.8-0.8c-0.3-2.4-0.7-4.7-1.2-7c-0.9,0.4-1.8,0.8-2.7,1.2
					c0.2,0.3,0.4,0.6,0.6,0.8c0.8,1.2,2.8,0.8,2.8-0.8c0-2-0.5-3.7-0.9-5.7c-1,0.3-1.9,0.5-2.9,0.8c0.4,1.1,0.7,2.3,1.1,3.4
					C67.9,74.1,70.8,73.3,70.2,71.5L70.2,71.5z"/>
			</g>
		</g>
		<g>
			<g>
				<path class="st0" d="M128,87c0.3-0.5,0.6-1,0.9-1.5c-0.8-0.6-1.6-1.2-2.4-1.8c-1.8,3.3-3.5,6.6-5.3,9.9
					c-0.7,1.3,0.7,2.8,2.1,2.1c5.1-3.1,8.9-9.4,11.6-14.6c2.8-5.5,3.9-11.4,1.7-17.3c-0.5-1.3-2.5-1.5-2.9,0
					c-1.7,6.4-3.1,13.2-7.5,18.4c0.8,0.6,1.6,1.2,2.4,1.8c1.2-2.8,2.4-5.6,3.6-8.4c-0.9-0.3-1.9-0.5-2.8-0.8c0,2.3-0.3,4.4-1.1,6.6
					c-0.6,1.7,1.8,2.5,2.7,1.2c0.9-1.3,1.8-2.5,2.6-3.8c-0.9-0.5-1.7-1-2.6-1.5c-1.1,2.3-2.2,4.6-3.6,6.8c0.9,0.5,1.7,1,2.6,1.5
					c0.6-1.3,1.2-2.4,2.1-3.5c-0.9-0.5-1.7-1-2.6-1.5c-0.6,1.3-1.2,2.6-2,3.8c0.9,0.4,1.8,0.8,2.7,1.2c0.9-2.3,2.7-4.1,3.5-6.4
					c0.7-2,0.3-3.7,0.1-5.6c-0.3-2.6,0.2-5,0-7.5c-0.4-3.4-0.6-6.3-0.3-9.8c0.6-7.1-4.6-17.9-12.6-18.4c-1.1-0.1-1.9,1.3-1.3,2.3
					c0.8,1.2,1.6,2.3,2.4,3.5c0.7-0.7,1.4-1.4,2.1-2.1c-1.3-0.8-2.5-1.7-3.5-2.9c-0.7,0.7-1.4,1.4-2.1,2.1
					c5.4,5.5,10.2,14,11.3,21.6c0.9-0.4,1.8-0.8,2.7-1.2c-1-2.3-1.9-4.7-2.7-7.1c-0.9,0.4-1.8,0.8-2.7,1.2c2.8,6.4,3.5,13.1,2,19.9
					c1,0.1,2,0.3,2.9,0.4c0.2-5,0.3-9.9,0.2-14.9c-0.9,0.3-1.9,0.5-2.8,0.8c1.3,2.5,2.2,5.1,2.7,7.9c0.3,1.5,2.5,1.4,2.9,0
					c0.4-1,0.7-2,1.1-3c-0.9-0.3-1.9-0.5-2.8-0.8c-0.1,2.2-0.4,4.4-0.9,6.6c1,0.3,1.9,0.5,2.9,0.8c0.1-1.4,0.5-2.8,1.1-4.1
					c-0.9-0.4-1.8-0.8-2.7-1.2c-0.3,1.8-0.7,3.2-1.3,4.9c-0.6,1.6,1.9,2.6,2.7,1.2c1.4-2.5,2.3-4.9,2.9-7.6c-1-0.1-2-0.3-2.9-0.4
					c0.1,1.3-0.1,2.5-0.6,3.6c1,0.1,2,0.3,2.9,0.4c0.6-6.4-0.3-12.6-2.5-18.7c-0.6-1.5-3-1.4-2.9,0.4c0.1,3.9,0.2,7.8,0.3,11.7
					c0,1.9,3,1.9,3,0c0.1-2.3,0.3-4.5,0.9-6.7c-1,0-1.9,0-2.9,0c1.3,3.3,1.9,6.4,2,10c1-0.1,2-0.3,2.9-0.4
					c-0.6-4.4-1.2-8.8-1.8-13.1c-0.9,0.4-1.8,0.8-2.7,1.2c1.3,1.5,1.8,3.2,1.5,5.1c1-0.1,2-0.3,2.9-0.4c-1.1-4.4-2.5-8.7-4.3-12.9
					c-0.9,0.4-1.8,0.8-2.7,1.2c1.4,2,2.4,4,3.1,6.4c0.9-0.4,1.8-0.8,2.7-1.2c-3.5-6.7-7.5-13.4-14.6-16.7c-1.3-0.6-2.9,0.7-2.1,2.1
					c2.9,4.7,5.8,9.3,8.7,14c0.9-0.5,1.7-1,2.6-1.5c-1.7-2.7-3.4-5.4-5.1-8.1c-1-1.6-3.6-0.1-2.6,1.5c2.3,3.6,4.2,7.3,5.8,11.3
					c0.6,1.4,3.1,1.4,2.9-0.4c-0.6-6.6-5.3-11.1-7.7-17c-0.8,0.5-1.7,1-2.5,1.5c3.1,2.8,5.8,5.9,8.1,9.4c1,1.5,3,0.5,2.7-1.2
					c-0.6-4.2-4.1-6.9-5.3-10.9c-0.9,0.4-1.8,0.8-2.7,1.2c2.4,3.5,4.8,7,7.1,10.5c1.1,1.6,3.6,0.1,2.6-1.5
					c-3-4.8-4.7-10.1-10.7-11.1c-7.1-1.1-14.9-0.3-22,0.1c-7.4,0.4-15.3,0.8-22.4,2.8c-5.7,1.6-8.6,5.7-11.3,10.8
					c0.9,0.4,1.8,0.8,2.7,1.2c2.2-5.3,5.9-9.6,9.7-13.9c-0.8-0.6-1.6-1.2-2.4-1.8c-1.7,3.1-3.6,5.8-6,8.3c0.8,0.6,1.6,1.2,2.4,1.8
					c2.1-3,4.2-6,6.2-9c1.1-1.6-1.5-3.1-2.6-1.5c-2.1,3-4.2,6-6.2,9c-1,1.4,1.2,3,2.4,1.8c2.6-2.7,4.7-5.6,6.5-9
					c0.8-1.4-1.2-3.1-2.4-1.8c-4.2,4.7-8.1,9.3-10.5,15.2c-0.6,1.6,2,2.6,2.7,1.2c3.2-6,6.1-8.8,12.9-10.1c6-1.1,12.1-1.6,18.2-1.9
					c5.2-0.3,10.5-0.4,15.7-0.4c3.2,0,7.2-0.3,9.6,2.2c1.9,2,3.3,5.4,4.8,7.7c0.9-0.5,1.7-1,2.6-1.5c-2.3-3.5-4.7-7-7.1-10.5
					c-0.9-1.3-3.3-0.6-2.7,1.2c1.2,4,4.7,6.8,5.3,10.9c0.9-0.4,1.8-0.8,2.7-1.2c-2.5-3.7-5.3-7-8.6-10c-1-0.9-3.1,0-2.5,1.5
					c2.2,5.5,7.1,10.1,7.6,16.2c1-0.1,2-0.3,2.9-0.4c-1.7-4.2-3.7-8.2-6.1-12c-0.9,0.5-1.7,1-2.6,1.5c1.7,2.7,3.4,5.4,5.1,8.1
					c1,1.6,3.6,0.1,2.6-1.5c-2.9-4.7-5.8-9.3-8.7-14c-0.7,0.7-1.4,1.4-2.1,2.1c6.7,3,10.2,9.3,13.5,15.6c0.8,1.5,3.2,0.5,2.7-1.2
					c-0.8-2.6-1.8-4.8-3.4-7.1c-0.9-1.3-3.4-0.5-2.7,1.2c1.8,4.2,3.2,8.4,4.3,12.9c0.4,1.7,2.9,1.3,2.9-0.4c0.1-2.6-0.5-4.5-1.9-6.6
					c-1-1.5-3-0.5-2.7,1.2c0.6,4.4,1.2,8.8,1.8,13.1c0.2,1.7,3,1.3,2.9-0.4c-0.1-3.8-0.7-7.2-2.1-10.8c-0.5-1.3-2.5-1.6-2.9,0
					c-0.6,2.5-0.9,4.9-1,7.5c1,0,2,0,3,0c-0.1-3.9-0.2-7.8-0.3-11.7c-1,0.1-2,0.3-2.9,0.4c2.1,5.8,2.9,11.7,2.4,17.9
					c-0.2,1.7,2.5,1.9,2.9,0.4c0.5-1.5,0.7-2.8,0.7-4.4c0-1.7-2.6-2.1-2.9-0.4c-0.5,2.5-1.3,4.7-2.6,6.9c0.9,0.4,1.8,0.8,2.7,1.2
					c0.6-1.7,1-3.2,1.3-4.9c0.2-1.5-2-2.9-2.7-1.2c-0.7,1.6-1.2,3.1-1.4,4.8c-0.3,1.9,2.5,2.7,2.9,0.8c0.6-2.5,0.9-4.9,1-7.4
					c0.1-1.4-2.2-2.1-2.8-0.8c-0.7,1.6-0.9,2-1.4,3.7c1,0,1.9,0,2.9,0c-0.6-3.1-1.6-5.8-3-8.6c-0.7-1.4-2.8-0.7-2.8,0.8
					c0,5,0,9.9-0.2,14.9c-0.1,1.7,2.6,2.1,2.9,0.4c1.7-7.7,0.9-15-2.3-22.2c-0.7-1.6-3.3-0.4-2.7,1.2c0.9,2.6,1.9,5.2,3,7.8
					c0.7,1.7,3,0.4,2.7-1.2c-1.1-8.2-6.3-17.1-12.1-22.9c-1.4-1.4-3.5,0.7-2.1,2.1c1.3,1.3,2.6,2.3,4.1,3.4c1.2,0.8,2.9-0.8,2.1-2.1
					c-0.8-1.2-1.6-2.3-2.4-3.5c-0.4,0.8-0.9,1.5-1.3,2.3c4.6,0.2,8.6,7.5,9.5,11.5c0.8,3.6-0.4,7.6-0.1,11.3c0.2,3,0.1,5.9,0.3,9
					c0.2,2.8,0.2,5.4-1.1,8c-0.7,1.5-1.6,2.7-2.2,4.2c-0.6,1.6,1.9,2.6,2.7,1.2c0.7-1.3,1.4-2.5,2-3.8c0.8-1.8-1.4-3.1-2.6-1.5
					c-0.8,1.2-1.5,2.2-2.1,3.5c-0.8,1.7,1.6,3.2,2.6,1.5c1.3-2.2,2.5-4.4,3.6-6.8c0.8-1.8-1.5-3.1-2.6-1.5c-0.9,1.3-1.8,2.5-2.6,3.8
					c0.9,0.4,1.8,0.8,2.7,1.2c0.9-2.5,1.2-4.8,1.2-7.4c0-1.4-2.2-2.2-2.8-0.8c-1.2,2.8-2.4,5.6-3.6,8.4c-0.6,1.4,1.1,3.2,2.4,1.8
					c4.8-5.7,6.4-12.7,8.3-19.7c-1,0-1.9,0-2.9,0c2.1,5.8,0.7,11.2-2.2,16.4c-2.4,4.3-5.4,9.5-9.7,12.1c0.7,0.7,1.4,1.4,2.1,2.1
					c1.8-3.3,3.5-6.6,5.3-9.9c0.8-1.5-1.1-2.9-2.4-1.8c-1.3,1.1-1.3,1.2-1.7,2.8C124.7,88.1,127.6,88.9,128,87L128,87z"/>
			</g>
		</g>
		<g>
			<g>
				<path class="st0" d="M94.6,34.5c-2.9-1.3-5.2,0.2-6.8,4.4c-0.4-0.8-0.9-1.5-1.3-2.3c-0.5,0.5-1,1-1.6,1.5
					c-1.3,0.7-0.7,2.8,0.8,2.8C89.2,41,92.6,41,96,41c0-1,0-2,0-3c-1.9,0.2-3.7,0.3-5.6,0.2c0,1,0,2,0,3c6.1-0.2,13,2.1,18.9,0.3
					c1.9-0.6,1.1-3.3-0.8-2.9c-1.9,0.5-3.7,0.3-5.4-0.6c-0.3,1-0.5,1.9-0.8,2.9c5.5,1.5,11.6-1.9,17.3-2.1c-0.3-0.9-0.5-1.9-0.8-2.8
					c-1.9,0.8-3.6,1.2-5.6,1.6c-1.6,0.3-1.2,2.4,0,2.9c2.1,0.8,3.9,1.1,6.1,0.9c2-0.1,1.9-2.8,0-3c-1.8-0.2-3.5-0.4-5.3-0.6
					c-0.8-0.1-1.6-0.2-2.4-0.3c3.2-2.3,5.5-2.1,6.9,0.7c0.7-0.7,1.4-1.4,2.1-2.1c-2.1-1.6-3.8-3.5-5.3-5.7c-0.6,0.7-1.1,1.5-1.7,2.2
					c3.1,1,5.3,3.5,8,5.3c1.6,1.1,3-1.5,1.5-2.6c-2.3-1.7-4.1-3.5-5.8-5.7c-0.6,0.7-1.1,1.5-1.7,2.2c2.6,0.7,5.5,3.9,7.6,5.6
					c1.5,1.2,3.6-0.9,2.1-2.1c-1.6-1.4-2.8-2.6-4.1-4.4c-0.7,0.7-1.4,1.4-2.1,2.1c2,1.2,3.9,2.6,5.7,4c1.3,1,3.1-1.3,1.8-2.4
					c-6.3-5.3-11-9-19.6-6.6c-10,2.8-19.2,8.1-29.8,8.8c0.5,0.6,1,1.3,1.4,1.9c0.7-1,1.3-2.1,2-3.1c1.1-1.2-0.3-3.4-1.8-2.4
					c-1.4,0.9-2.7,1.8-4.1,2.8c0.7,0.7,1.4,1.4,2.1,2.1c4.8-7.4,14.5-11.7,23.1-12.2c4-0.2,8.6,0.6,12.3,1.9
					c2.7,0.9,2.5,1.5-0.1,3.3c-0.8,0.6-1.7,1.1-2.6,1.5c-5.1,2-5.2,1.6-0.2-1.3c-0.6-0.7-1.1-1.5-1.7-2.2c-1,1.6-3,3.9-4,4.8
					c-5.5,4.2-1.8-1.8,1.3-1.8c-0.5-0.4-1-0.7-1.4-1.1c0.5,1.4-4.3,4.4-5.2,4.5c-4.7,0.5,1.4-3.4,1.2-3.6c-0.2-0.6-0.5-1.1-0.7-1.7
					c-0.6,1.2-1.5,2.2-2.6,2.8c-1.3,0.7-1.4,0.9-0.3,0.6c-0.5-0.8-1-1.7-1.5-2.5c-1.2,1.3-2.6,3-4.5,3.3c-2.3,0.4-2.1-0.8,0.2-2.2
					c-0.6-0.8-1.2-1.6-1.8-2.4c-1.9,2.4-4,3.8-6.9,4.6c0.6,0.7,1.1,1.5,1.7,2.2c1-2.2,2.2-3.6,4.4-4.8c-0.6-0.8-1.2-1.6-1.8-2.4
					c-2.1,2.5-4.3,4.7-6.8,6.9c0.8,0.6,1.6,1.2,2.4,1.8c1.1-2.3,2.5-4,4.6-5.5c-0.6-0.8-1.2-1.6-1.8-2.4c-1.2,1.4-2.5,2.8-3.7,4.2
					c0.7,0.7,1.4,1.4,2.1,2.1c1.7-2.2,3.5-4.1,5.6-6c-0.7-0.7-1.4-1.4-2.1-2.1c-2,2.4-4.1,4.5-6.4,6.5c0.7,0.7,1.4,1.4,2.1,2.1
					c2.9-2.9,6-5.4,9.5-7.6c-0.7-0.7-1.4-1.4-2.1-2.1c-1,1.8-2.2,2.9-4,3.9c0.7,0.7,1.4,1.4,2.1,2.1c2.8-4.6,8.3-3.5,12.7-2.4
					c0.1-1,0.3-2,0.4-2.9c-3.2,0-6.3,0.3-9.5,0.9c-1.7,0.3-1.3,3.1,0.4,2.9c5.2-0.4,10.3-0.6,15.5,0.4c0.1-1,0.3-2,0.4-2.9
					c-3.2-0.4-6.3-0.9-9.4-1.6c0,1,0,1.9,0,2.9c3.1-1,12.1,2.1,14.2,4.4c0.6-0.8,1.2-1.6,1.8-2.4c-2.1-1.1-3.9-2.2-5.8-3.8
					c-0.5,0.8-1,1.7-1.5,2.5c2.8,1.1,4.8,2.5,6.9,4.7c0.4-0.9,0.7-1.7,1.1-2.6c-0.5,0.1-1.1,0.2-1.6,0.3c0.8,0,1.5-0.7,1.5-1.5
					c0-0.7,0.1-1.5,0.1-2.2c0.1-0.8-0.2-1.6-1-1.8c-5.1-1.7-10.2-2.2-15.6-1.6c-1.5,0.2-2,1.9-0.8,2.8c2.8,2.2,7.6,1.2,10.9,0.8
					c1.5-0.2,2.2-2.7,0.4-2.9c-4-0.5-7.9-1.1-11.9-1.7c-1.5-0.2-2.8,1.9-1.2,2.7c4.1,2,8.2,1.5,12.5,0.7c1.8-0.3,1.2-2.8-0.4-2.9
					c-3.3-0.3-6.6-0.6-10-0.9c-1.7-0.1-2,2.5-0.4,2.9c3.9,1,7.3,1,11.2-0.1c1.9-0.5,1.1-3.3-0.8-2.9c-5,1.2-10.1,0.4-14.9,2.3
					c0.5,0.8,1,1.7,1.5,2.5c2.1-1.9,10-4.2,12.5-1.3c0.4-0.9,0.7-1.7,1.1-2.6c-1.6,0-3.3,0-4.9-0.1c-1.9-0.1-1.9,2.9,0,3
					c1.6,0.1,3.3,0.1,4.9,0.1c1.4,0,1.9-1.6,1.1-2.6c-3.7-4.3-13-1.9-16.7,1.3c-1.1,1,0.1,3.1,1.5,2.5c4.8-1.9,10-1.1,14.9-2.3
					c-0.3-1-0.5-1.9-0.8-2.9c-3.3,0.9-6.3,0.9-9.6,0.1c-0.1,1-0.3,2-0.4,2.9c3.3,0.3,6.6,0.6,10,0.9c-0.1-1-0.3-2-0.4-2.9
					c-3.5,0.7-6.9,1.3-10.2-0.4c-0.4,0.9-0.8,1.8-1.2,2.7c4,0.6,7.9,1.1,11.9,1.7c0.1-1,0.3-2,0.4-2.9c-2.4,0.3-7.2,1.2-9.4-0.4
					c-0.3,0.9-0.5,1.9-0.8,2.8c5.1-0.6,9.9-0.1,14.8,1.5c-0.3-0.6-0.7-1.2-1-1.8c-0.2,1.4-0.3,1.6-0.2,3c0.5-0.5,1-1,1.5-1.5
					c-1.7-0.1-3.6,0.5-3.6,2.5c0,2.5,3.2,3.1,5.1,3.2c1.4,0.1,1.9-1.7,1.1-2.6c-2.4-2.5-5-4.2-8.2-5.5c-1.4-0.5-2.6,1.5-1.5,2.5
					c2,1.7,4,3.1,6.4,4.3c1.5,0.7,3-1.1,1.8-2.4c-2-2.1-4.6-2.7-7.3-3.5c-3.1-0.9-6.6-2.7-9.8-1.6c-1.3,0.4-1.5,2.6,0,2.9
					c3.4,0.8,6.8,1.3,10.2,1.7c1.7,0.2,2.1-2.6,0.4-2.9c-5.4-1.1-10.8-0.9-16.3-0.5c0.1,1,0.3,2,0.4,2.9c2.9-0.5,5.7-0.8,8.7-0.8
					c1.7,0,2.1-2.5,0.4-2.9C95,27,88.4,26.3,84.8,32.2c-0.8,1.3,0.8,2.7,2.1,2.1c2.3-1.2,3.8-2.7,5.1-4.9c0.7-1.3-0.8-2.9-2.1-2.1
					c-3.6,2.4-7,5-10.1,8.1c-1.4,1.4,0.7,3.4,2.1,2.1c2.3-2,4.4-4.2,6.4-6.5c1.2-1.5-0.7-3.4-2.1-2.1c-2,1.9-3.8,3.8-5.6,6
					c-1.2,1.5,0.8,3.6,2.1,2.1c1.2-1.4,2.5-2.8,3.7-4.2c1.1-1.2-0.3-3.4-1.8-2.4c-2.5,1.8-4.3,3.8-5.7,6.6c-0.8,1.5,1.1,3,2.4,1.8
					c2.4-2.2,4.6-4.4,6.8-6.9c1.1-1.3-0.3-3.2-1.8-2.4c-2.6,1.4-4.3,3.2-5.5,5.9c-0.5,1.2,0.3,2.6,1.7,2.2c3.4-0.9,6-2.5,8.3-5.3
					c1-1.2-0.3-3.4-1.8-2.4c-2,1.3-7,5.2-3.9,7.9c3.4,3,9.7-1.9,11.8-4.3c0.9-1,0-3.1-1.5-2.5c-2,0.8-7.5,4.8-3.4,6.7
					c3.3,1.6,9.2-3.6,9.9-6.5c0.2-0.7-0.1-1.3-0.7-1.7c-3.5-2.2-10.5,5.9-7.5,9.1c3.5,3.5,14.4-3.7,12.9-8.2
					c-0.2-0.6-0.8-1.1-1.4-1.1c-3.6-0.1-9.2,4.3-8.5,8.2c0.1,0.5,0.6,0.9,1,1c3.7,1.3,8.9-1.5,10.3-5.1c1.3-3.4-2-5.3-4.9-3.7
					c-2.3,1.2-5.3,5-2.3,7.1c3.5,2.6,8.3-3.6,9.8-6c0.7-1.1-0.4-2.6-1.7-2.2c-3.1,1-9.7,7.1-3.2,8.2c3.4,0.5,15.1-4.7,12.2-9.2
					c-1.6-2.5-6.2-3.1-8.7-3.6c-4.3-0.9-8.4-1.3-12.7-0.5c-8.5,1.5-17,5.7-21.8,13.2c-0.8,1.2,0.8,2.9,2.1,2.1
					c1.4-0.9,2.7-1.8,4.1-2.8c-0.6-0.8-1.2-1.6-1.8-2.4c-1.3,1.4-2,2.7-2.8,4.4c-0.4,0.9,0.6,2,1.4,1.9c7.7-0.5,14.8-3.3,22-5.9
					c3.4-1.2,6.8-2.8,10.3-3.5c6.6-1.4,10.3,2.3,14.9,6.3c0.6-0.8,1.2-1.6,1.8-2.4c-1.9-1.4-3.7-2.8-5.7-4c-1.2-0.7-3,0.8-2.1,2.1
					c1.4,1.9,2.8,3.5,4.6,5c0.7-0.7,1.4-1.4,2.1-2.1c-2.7-2.2-5.5-5.5-8.9-6.4c-1.1-0.3-2.5,1.1-1.7,2.2c2,2.6,4.3,4.8,6.9,6.8
					c0.5-0.9,1-1.7,1.5-2.6c-3-2-5.3-4.4-8.7-5.6c-1.2-0.4-2.4,1.1-1.7,2.2c1.8,2.7,3.8,4.9,6.4,6.8c1.2,0.9,2.9-0.9,2.1-2.1
					c-2.7-3.7-8.8-7.4-12.3-2.2c-4.5,6.6,7.2,6.6,10.4,7c0-1,0-2,0-3c-1.9,0.1-3.6-0.1-5.3-0.8c0,1,0,1.9,0,2.9
					c2.2-0.4,4.2-1,6.3-1.9c1.4-0.6,0.7-2.8-0.8-2.8c-2.3,0.1-4.5,0.3-6.8,0.7c-3.2,0.6-6.4,2.3-9.7,1.5c-1.9-0.5-2.5,2.2-0.8,2.9
					c2.4,1,4.4,1.1,7,0.6c-0.3-1-0.5-1.9-0.8-2.9c-5.4,1.6-12.5-0.6-18.1-0.5c-1.9,0.1-1.9,3,0,3c1.9,0,3.7,0,5.6-0.2
					c1.9-0.2,2-3,0-3c-3.4,0-6.9-0.1-10.3-0.1c0.3,0.9,0.5,1.9,0.8,2.8c1.2-0.7,2-1.3,2.6-2.5c0.5-1.1-0.1-2.1-1.3-2.3
					c-1.9-0.2-2.5,1.9-1.5,3.3c1.7,2.3,5.3,1.2,6.5-1c3.5-6.5-7.7-8.9-6.9-1.9c0.8,7.1,11.6,1.3,9-4.9c-0.8-1.8-2.9-2.7-4.4-1
					c-2.1,2.4,0.2,7,2.3,8.5c0.5,0.3,1.1,0.2,1.5,0c3.2-1.6,4.6-10-0.5-9.2c-4,0.6-2.6,8.7,1.5,7.7C97.3,36.9,96.5,34,94.6,34.5
					L94.6,34.5z"/>
			</g>
		</g>
		<g>
			<g>
				<path class="st0" d="M92.5,30.7c0.8-0.2,1.5-0.4,2.3-0.6c0.7-0.2,1.2-0.9,1.1-1.6c-0.1-0.7-0.7-1.4-1.5-1.3
					c-0.7,0.1-1.1,0-1.7-0.4c-0.1,0.9-0.2,1.8-0.4,2.7c0.6-0.1,1.3,0,1.9,0.3c0.7,0.3,1.6,0.2,2.1-0.5c0.4-0.7,0.2-1.7-0.5-2.1
					c-1.3-0.6-2.7-0.8-4.2-0.6c-0.6,0.1-1,0.7-1.1,1.2c-0.1,0.6,0.2,1.1,0.7,1.5c0.9,0.7,2.1,1,3.2,0.8c-0.1-1-0.3-2-0.4-2.9
					c-0.8,0.2-1.5,0.4-2.3,0.6C89.9,28.3,90.6,31.2,92.5,30.7L92.5,30.7z"/>
			</g>
		</g>
		<g>
			<g>
				<path class="st0" d="M111.1,27.1c-0.2-0.1-0.4-0.2-0.6-0.4c-0.5,0.8-1,1.7-1.5,2.5c0.6,0.2,1.4,0.6,1.9,0.9
					c0.4-0.9,0.7-1.7,1.1-2.6c-0.1,0-0.3,0-0.4,0c-0.2,0,0.2,0.1-0.1,0c0,0-0.2-0.1-0.1,0c-0.3-0.1,0,0-0.2-0.1
					c-0.6-0.5-1.5-0.6-2.1,0c-0.6,0.6-0.6,1.6,0,2.1c0.8,0.7,1.8,1.2,2.9,1.1c0.6-0.1,1.1-0.3,1.4-0.9c0.2-0.5,0.2-1.3-0.3-1.6
					c-1-0.8-2-1.3-3.2-1.7c-1.4-0.4-2.6,1.5-1.5,2.5c0.4,0.3,0.7,0.6,1.2,0.8c0.7,0.4,1.6,0.2,2.1-0.5
					C112.1,28.4,111.8,27.5,111.1,27.1L111.1,27.1z"/>
			</g>
		</g>
	</g>
	<g>
		<g>
			<path class="st1" d="M74.9,89.1c-7-3-8.2-11.3-8.8-18c-0.6-5.9,1.2-11.4,3.1-16.9c0.3-0.7-0.9-1-1.2-0.3
				c-3.7,10.5-6.7,30.8,6.5,36.4C75.2,90.6,75.6,89.4,74.9,89.1L74.9,89.1z"/>
		</g>
	</g>
	<g>
		<g>
			<path class="st1" d="M129,87.2c7.1-6.7,7.6-21.5,5.2-30.3c-0.2-0.7-1.4-0.4-1.2,0.3c2.3,8.3,1.8,22.8-4.9,29.1
				C127.6,86.9,128.4,87.8,129,87.2L129,87.2z"/>
		</g>
	</g>
	<g>
		<g>
			<path class="st1" d="M119.8,39.4c3.2,2.4,5.6,5.5,7,9.3c0.3,0.7,1.4,0.4,1.2-0.3c-1.5-4.1-4-7.5-7.5-10
				C119.8,37.9,119.2,38.9,119.8,39.4L119.8,39.4z"/>
		</g>
	</g>
	<g>
		<g>
			<path class="st1" d="M74.1,50.3c0.8-2.1,2-4.1,3.3-5.9c0.8-1.1,3.4-5.4,5.1-5.3c0.8,0,0.8-1.2,0-1.2c-2.2-0.1-4.1,3.3-5.3,4.8
				c-1.7,2.2-3.2,4.6-4.2,7.2C72.7,50.7,73.9,51,74.1,50.3L74.1,50.3z"/>
		</g>
	</g>
</g>
<g>
	<g>
		<g>
			<path class="st2" d="M77.1,93.9c-3.2-1.8-6.6-3.6-8.7-6.7c-2.2-3.2-2.9-7.4-3.7-11.1C63,68.5,63,61.1,65.1,53.7
				c2-7.1,5.9-13.5,11.2-18.6c4.9-4.7,14.1-11.5,21.4-10c0.8,0.1,1.1-1,0.3-1.2c-6.8-1.3-14.6,3.7-19.6,7.8
				c-6.5,5.2-11.4,12.2-14,20.1c-2.6,8-2.6,16.3-0.9,24.5c0.9,4.3,1.8,9.1,4.7,12.5c2.2,2.7,5.3,4.4,8.3,6
				C77.2,95.3,77.8,94.2,77.1,93.9L77.1,93.9z"/>
		</g>
	</g>
	<g>
		<g>
			<path class="st2" d="M75.4,94.3c1.4,0.9,2.9,1.5,4.5,1.9c0.6,0.1,1-0.6,0.6-1c-2.5-2.6-3.7-6.1-4.8-9.5c-0.2-0.7-1.4-0.4-1.2,0.3
				c1.2,3.6,2.4,7.2,5.1,10c0.2-0.3,0.4-0.7,0.6-1c-1.5-0.4-2.9-1-4.2-1.8C75.4,92.8,74.8,93.9,75.4,94.3L75.4,94.3z"/>
		</g>
	</g>
	<g>
		<g>
			<path class="st2" d="M83.6,40.8c-10.1,10-12.8,24-11.3,37.7c0.1,0.8,1.3,0.8,1.2,0c-1.5-13.4,1.1-27.1,11-36.9
				C85,41.1,84.1,40.2,83.6,40.8L83.6,40.8z"/>
		</g>
	</g>
	<g>
		<g>
			<path class="st2" d="M77.7,92.7c1.1,0.7,2,1.5,2.9,2.4c0.3,0.3,0.9,0.2,1-0.3c0-0.3,0.1-0.5,0.1-0.8c-0.3,0.1-0.6,0.2-0.9,0.4
				c0.5,0.2,1,0.5,1.5,0.7c0.4,0.2,1,0,0.9-0.5c0-0.2,0-0.4-0.1-0.6c-0.3,0.2-0.6,0.3-0.9,0.5c0.7,0.3,1.3,0.7,1.9,1.2
				c0.3,0.2,0.7,0.1,0.8-0.2c-0.1,0.3,3.7,1.3,3.8,1.3c0.7,0.2,1.1-1,0.3-1.2c-1.1-0.3-2-0.5-2.9-1c-0.4-0.2-0.5-0.4-1-0.4
				c-0.6,0-0.9,0.2-1.2,0.7c0.3-0.1,0.5-0.1,0.8-0.2c-0.6-0.5-1.2-0.8-1.9-1.2c-0.4-0.2-1,0-0.9,0.5c0,0.2,0,0.4,0.1,0.6
				c0.3-0.2,0.6-0.3,0.9-0.5c-0.5-0.2-1-0.5-1.5-0.7c-0.3-0.1-0.8-0.1-0.9,0.4c0,0.3-0.1,0.5-0.1,0.8c0.3-0.1,0.7-0.2,1-0.3
				c-1-1-2-1.9-3.2-2.6C77.6,91.2,77,92.3,77.7,92.7L77.7,92.7z"/>
		</g>
	</g>
	<g>
		<g>
			<path class="st2" d="M94.5,24.9c8.3-1.6,18.5,0,25.7,4.7c6.6,4.3,13.4,13.4,15.8,20.8c2.4,7.3,3,19.7-0.4,26.5
				c-3.4,6.8-7.3,15.9-14.2,19.6c0.3,0.2,0.6,0.5,0.9,0.7c1.4-3.7,3.1-7.2,4.9-10.7c0.4-0.7-0.7-1.3-1-0.6c-1.9,3.6-3.5,7.2-5,11
				c-0.2,0.5,0.5,0.9,0.9,0.7c7.5-4,12.1-14.1,15.4-21.5c1.9-4.3,1.4-8.9,1.3-13.5c-0.2-4.7-0.4-9.5-2.1-14
				c-2.8-7.1-9.3-15.8-15.8-20c-7.5-4.8-18-6.5-26.6-4.8C93.5,23.9,93.8,25.1,94.5,24.9L94.5,24.9z"/>
		</g>
	</g>
	<g>
		<g>
			<path class="st2" d="M116.5,40.2c11.1,10.6,14.3,23.6,11.1,38.5c-0.2,0.8,1,1.1,1.2,0.3c3.3-15.4,0-28.8-11.4-39.7
				C116.8,38.8,115.9,39.6,116.5,40.2L116.5,40.2z"/>
		</g>
	</g>
	<g>
		<g>
			<path class="st2" d="M82.5,42.5c-0.1,0.8,0,1.5,0.4,2.2c0.4,0.7,1.4,0.1,1-0.6c-0.2-0.4-0.3-0.8-0.3-1.3
				C83.8,42,82.6,41.7,82.5,42.5L82.5,42.5z"/>
		</g>
	</g>
	<g>
		<g>
			<path class="st2" d="M84,45.1c0.8-0.2,1.5-0.5,2.3-0.7c0.7-0.2,0.4-1.4-0.3-1.2c-0.8,0.2-1.5,0.5-2.3,0.7
				C83,44.1,83.3,45.3,84,45.1L84,45.1z"/>
		</g>
	</g>
	<g>
		<g>
			<path class="st2" d="M86.2,44.6c1,0.4,2.1,0.3,2.8-0.5c0.6-0.5-0.3-1.4-0.8-0.8c-0.4,0.3-0.9,0.5-1.4,0.3
				c-0.3-0.1-0.6-0.1-0.8,0.2C85.8,44.1,85.9,44.5,86.2,44.6L86.2,44.6z"/>
		</g>
	</g>
	<g>
		<g>
			<path class="st2" d="M88.6,44c0.6,0.5,1.2,1,2,1c0.6,0,1.3-0.3,1.6-0.9c0.4-0.7-0.7-1.3-1-0.6c-0.4,0.7-1.3-0.1-1.6-0.4
				C88.9,42.6,88,43.5,88.6,44L88.6,44z"/>
		</g>
	</g>
	<g>
		<g>
			<path class="st2" d="M92.3,44.5c0.6-0.1,1,0.2,1.2,0.7c0.3,0.7,1.4,0.1,1-0.6c-0.4-0.8-1.3-1.4-2.3-1.3
				C91.5,43.4,91.5,44.6,92.3,44.5L92.3,44.5z"/>
		</g>
	</g>
	<g>
		<g>
			<path class="st2" d="M94.8,45.6c0.6-0.3,1.1-0.7,1.6-1.2c0.6-0.5-0.3-1.4-0.8-0.8c-0.4,0.4-0.9,0.7-1.4,1
				C93.5,45,94.1,46,94.8,45.6L94.8,45.6z"/>
		</g>
	</g>
	<g>
		<g>
			<path class="st2" d="M96.3,44.6c0.8,0.2,1.5,0.5,2.3,0.7c0.7,0.2,1.1-0.9,0.3-1.2c-0.8-0.2-1.5-0.5-2.3-0.7
				C95.9,43.2,95.6,44.3,96.3,44.6L96.3,44.6z"/>
		</g>
	</g>
	<g>
		<g>
			<path class="st2" d="M99.7,45.2c0.6-0.3,1.2-0.6,1.7-0.9c0.7-0.4,0.1-1.4-0.6-1c-0.6,0.3-1.2,0.6-1.7,0.9
				C98.4,44.5,99,45.5,99.7,45.2L99.7,45.2z"/>
		</g>
	</g>
	<g>
		<g>
			<path class="st2" d="M101.5,44.3c0.2,0,0.5,0,0.7,0.1c0.7,0.2,1.1-0.9,0.3-1.2c-0.4-0.1-0.9-0.1-1.3-0.1
				C100.4,43.2,100.8,44.4,101.5,44.3L101.5,44.3z"/>
		</g>
	</g>
	<g>
		<g>
			<path class="st2" d="M102.6,44.4c0.3,0.3,0.7,0.6,1.1,0.7c0.8,0.2,1.1-1,0.3-1.2c-0.3-0.1-0.4-0.2-0.6-0.3
				C102.9,43,102,43.9,102.6,44.4L102.6,44.4z"/>
		</g>
	</g>
	<g>
		<g>
			<path class="st2" d="M104.7,45.2c0.3-0.1,0.5-0.2,0.8-0.4c0.7-0.3,0.1-1.4-0.6-1c-0.3,0.1-0.5,0.2-0.8,0.4
				C103.4,44.5,104,45.6,104.7,45.2L104.7,45.2z"/>
		</g>
	</g>
	<g>
		<g>
			<path class="st2" d="M106.2,44.4c0.3-0.2,0.7-0.3,1-0.5c0.7-0.3,0.1-1.4-0.6-1c-0.3,0.2-0.7,0.3-1,0.5
				C104.9,43.7,105.5,44.8,106.2,44.4L106.2,44.4z"/>
		</g>
	</g>
	<g>
		<g>
			<path class="st2" d="M106.8,44c0.7,0.2,1.3,0.4,2,0.6c0.7,0.2,1.1-0.9,0.3-1.2c-0.7-0.2-1.3-0.4-2-0.6
				C106.4,42.6,106.1,43.7,106.8,44L106.8,44z"/>
		</g>
	</g>
	<g>
		<g>
			<path class="st2" d="M109.3,44.7c0.3,0,0.7,0,1,0c0.8,0,0.8-1.2,0-1.2c-0.3,0-0.7,0-1,0C108.5,43.5,108.5,44.7,109.3,44.7
				L109.3,44.7z"/>
		</g>
	</g>
	<g>
		<g>
			<path class="st2" d="M110.9,44.6c0.5-0.2,1-0.3,1.5-0.3c0.8,0,0.8-1.2,0-1.2c-0.6,0-1.2,0.1-1.8,0.3
				C109.9,43.6,110.2,44.8,110.9,44.6L110.9,44.6z"/>
		</g>
	</g>
	<g>
		<g>
			<path class="st2" d="M113.2,44c0.3-0.2,0.5-0.4,0.8-0.6c0.6-0.5-0.2-1.3-0.8-0.8c-0.3,0.2-0.5,0.4-0.8,0.6
				C111.7,43.7,112.6,44.5,113.2,44L113.2,44z"/>
		</g>
	</g>
	<g>
		<g>
			<path class="st2" d="M113.7,43.4c0.3-0.2,0.7-0.3,1-0.5c0.7-0.3,0.1-1.4-0.6-1c-0.3,0.2-0.7,0.3-1,0.5
				C112.4,42.7,113,43.8,113.7,43.4L113.7,43.4z"/>
		</g>
	</g>
	<g>
		<g>
			<path class="st2" d="M114.5,43.1c0.3-0.1,0.6,0,0.9,0.2c0.7,0.4,1.3-0.6,0.6-1c-0.6-0.3-1.2-0.4-1.8-0.3
				C113.5,42,113.8,43.2,114.5,43.1L114.5,43.1z"/>
		</g>
	</g>
	<g>
		<g>
			<path class="st2" d="M115.9,43.4c0.2,0.1,0.4,0.2,0.6,0.4c0.7,0.4,1.3-0.6,0.6-1c-0.2-0.1-0.4-0.2-0.6-0.4
				C115.9,42,115.3,43,115.9,43.4L115.9,43.4z"/>
		</g>
	</g>
	<g>
		<g>
			<path class="st2" d="M117.4,44.1c0.3-0.1,0.7-0.2,1-0.3c0.7-0.2,0.4-1.3-0.3-1.2c-0.3,0.1-0.7,0.2-1,0.3
				C116.3,43.1,116.7,44.3,117.4,44.1L117.4,44.1z"/>
		</g>
	</g>
	<g>
		<g>
			<path class="st2" d="M118.8,43.8c0.1,0,0.2-0.1,0.2-0.1c0.7-0.3,0.1-1.4-0.6-1c-0.1,0-0.2,0.1-0.2,0.1
				C117.5,43.1,118.1,44.1,118.8,43.8L118.8,43.8z"/>
		</g>
	</g>
	<g>
		<g>
			<path class="st2" d="M120.2,96.1c0.2-0.4,0.7-0.6,1-0.3c0.6,0.5,1.4-0.4,0.8-0.8c-0.9-0.7-2.4-0.6-2.9,0.6
				C118.8,96.2,119.9,96.8,120.2,96.1L120.2,96.1z"/>
		</g>
	</g>
	<g>
		<g>
			<path class="st2" d="M111.7,96.7c0.4-1,1.3-0.7,2.1-0.7c0.1-0.1,0.3-0.2,0.4-0.3c0.2,0,0.4,0.1,0.6,0.3c0.2,0,0.5,0.2,0.7,0.2
				c0.7-0.1,0.9-0.8,1.4-0.9c-0.1,0,1.9,0.4,1.8,0.3c0.3,0.3,0.7,0.2,0.9-0.1c0.4,0.1,0.8,0.1,1.3,0.2c0.7,0.4,1.3-0.7,0.6-1
				c-1.1-0.6-2.1-0.9-2.9,0.3c0.3,0,0.6-0.1,0.9-0.1c-0.3-0.3-0.6-0.5-1-0.5c-0.5-0.1-0.7,0-1.1-0.1c-1.1-0.2-0.9-0.1-1.8,0.4
				c-0.4,0.2-0.1,0.2-0.6,0.2c-0.1,0-0.5-0.3-0.6-0.3c-0.4,0-0.7,0.2-1.1,0.2c-1.5,0.1-2-0.1-2.7,1.5
				C110.4,96.8,111.4,97.4,111.7,96.7L111.7,96.7z"/>
		</g>
	</g>
</g>
</svg>
