<?xml version="1.0" encoding="utf-8"?>
<!-- Generator: Adobe Illustrator 21.0.2, SVG Export Plug-In . SVG Version: 6.00 Build 0)  -->
<svg version="1.1" id="Layer_1" xmlns="http://www.w3.org/2000/svg" xmlns:xlink="http://www.w3.org/1999/xlink" x="0px" y="0px"
	 viewBox="0 0 200 600" style="enable-background:new 0 0 200 600;" xml:space="preserve">
<style type="text/css">
	.st0{fill:#FFFFFF;}
	.st1{fill:none;stroke:#FFFFFF;stroke-miterlimit:10;}
	.st2{fill:#040217;}
	.st3{fill:#040200;}
	.st4{fill:#222211;}
</style>
<g>
	<g>
		<g>
			<path class="st0" d="M111.6,552.5c-0.6,0.3-1.2,0.5-1.7,0.8c-1.1,0.5-0.5,2.2,0.6,2.2c2.6,0,5.3,0,7.9-0.2c1.5-0.1,1.5-2.5,0-2.4
				c-2.6,0.1-5.3,0.2-7.9,0.2c0.2,0.7,0.4,1.5,0.6,2.2c0.6-0.3,1.2-0.5,1.7-0.8C114.2,553.9,113,551.9,111.6,552.5L111.6,552.5z"/>
		</g>
	</g>
	<g>
		<g>
			<g id="XMLID_6_">
				<g>
					<path class="st0" d="M132.9,364.7c-1.2,17.2-4.3,34.3-9.1,50.9h0c-1.1,6.2-0.8,12.6-0.6,18.9c0.1,6.1,0.1,12.2,0.1,18.3
						c0,3.6,0,7.2,0,10.8c0,3.1,0,6.1,0,9.2c-0.1,16.4-0.8,32.9-2.1,49.3l-0.1,0c0.4,3.6,0.1,7.2-0.1,10.7
						c-0.5,6.9-0.9,13.9-1.4,20.8c-3.1,0.1-6.1,0.1-9.2,0.2l-1-0.1c-0.6-0.8-0.7-1.8-0.7-2.8c-0.6-11.2-1.3-22.3-1.9-33.5
						c-0.1-2.2-0.3-4.4-0.4-6.6c-0.1-2.7-0.2-5.4-0.3-8c-0.1-3.3-0.3-6.6-0.4-9.9c-0.3-7.2-0.6-14.4-0.8-21.7l0.2,0
						c-0.1-9.4-0.1-18.7-0.2-28.1c0-7.1-0.1-14.3-0.1-21.4h-0.2c-0.2-11.6-0.3-23.1-0.5-34.6c-0.1-7.6-0.2-15.2-0.3-22.8
						c0-1.6,0-3.1-0.1-4.7c-0.1-5.7-0.1-11.5-0.2-17.2l-0.1-0.2c0.2-11.7,0.4-23.4,0.8-35.1c0.2-0.4,0.2-0.9,0-1.3c0,0,0,0,0,0
						c-0.1-0.6-0.5-1.2-1-1.6c-0.8-0.7-1.9-1-3-1.1c-0.8-0.1-1.8,0-2.5,0.5c-1.4,0.9-1.8,2.9-1.3,4.5v0c0.4,11.9,0.6,23.7,0.8,35.6
						l-0.1,0.2c-0.1,5.7-0.2,11.5-0.2,17.2c0,1.5,0,3.1-0.1,4.7c-0.1,7.6-0.2,15.2-0.3,22.8c-0.2,11.5-0.3,23.1-0.5,34.6h-0.2
						c0,7.1-0.1,14.3-0.1,21.4c-0.1,9.4-0.1,18.7-0.2,28.1l0.1,0c-0.3,7.2-0.6,14.5-0.8,21.7c-0.1,3.3-0.3,6.6-0.4,9.9
						c-0.1,2.7-0.2,5.4-0.3,8c-0.1,2.2-0.2,4.4-0.4,6.6c-0.7,11.2-1.3,22.3-1.9,33.5c-0.1,1-0.1,2-0.7,2.8l-1,0.1
						c-3.1-0.1-6.1-0.1-9.2-0.2c-0.5-6.9-0.9-13.9-1.3-20.8c-0.2-3.6-0.5-7.2-0.1-10.7l-0.1,0c-1.3-16.4-1.9-32.8-2.1-49.3
						c0-3.1,0-6.1,0-9.2c0-3.6,0-7.2,0-10.8c0-6.1,0-12.2,0.1-18.3c0.1-6.3,0.4-12.7-0.6-18.9h0c-4.8-16.6-7.9-33.7-9.1-50.9
						c-3-21.5-3.5-43.2-4.1-64.9c-0.3-12.7-0.6-25.8,4.3-37.5l0.2,0.1c0.2-0.5,1-0.5,1.6-0.4c5,0.7,10,1.4,15,1.7
						c4.3,0.3,8.6,0.4,12.8,0.3c3.2-0.1,6.4-0.3,9.5-0.6c5.2-0.4,10.5-1,15.7-1.6c3.2-0.3,6.5-0.7,9.7-1l0.5-0.2
						c4.9,11.8,4.7,25,4.4,37.8C136.4,321.5,135.9,343.2,132.9,364.7z"/>
				</g>
				<g>
					<path class="st1" d="M67.8,263.4c-0.1,0.1-0.1,0.3-0.2,0.4c-4.8,11.7-4.6,24.8-4.3,37.5c0.6,21.7,1.1,43.4,4.1,64.9
						c0.1,0.4,0.1,0.8,0.2,1.2"/>
					<path class="st1" d="M67.5,365.8c0,0.1,0,0.2,0,0.3c1.2,17.2,4.3,34.3,9.1,50.9c0,0.1,0.1,0.3,0.1,0.4"/>
					<path class="st1" d="M76.6,417.1c1.1,6.2,0.8,12.6,0.6,18.9c-0.1,6.1-0.1,12.2-0.1,18.3c0,3.6,0,7.2,0,10.8c0,3.1,0,6.1,0,9.2
						c0.1,16.4,0.8,32.9,2.1,49.3"/>
					<path class="st1" d="M79.5,522.5c0,0.3-0.1,0.7-0.1,1c-0.4,3.6-0.1,7.2,0.1,10.7c0.4,6.9,0.9,13.9,1.3,20.8c0,0,0,0,0,0.1"/>
					<path class="st1" d="M80.7,555.1c0,0,0.1,0,0.1,0c3.1,0.1,6.1,0.1,9.2,0.2"/>
					<path class="st1" d="M91,555.1c0.6-0.8,0.7-1.8,0.7-2.8c0.6-11.2,1.3-22.3,1.9-33.5c0.1-2.2,0.3-4.4,0.4-6.6
						c0.1-2.7,0.2-5.4,0.3-8c0.1-3.3,0.3-6.6,0.4-9.9c0.3-7.2,0.5-14.5,0.8-21.7c0-0.2,0-0.3,0-0.5"/>
					<path class="st1" d="M95.4,472.7c0-9.4,0.1-18.7,0.2-28.1c0-7.1,0.1-14.3,0.1-21.4"/>
					<path class="st1" d="M95.9,423.5c0-0.1,0-0.2,0-0.4c0.2-11.6,0.3-23.1,0.5-34.6c0.1-7.6,0.2-15.2,0.3-22.8c0-1.5,0-3.1,0.1-4.7
						c0.1-5.7,0.2-11.5,0.2-17.2"/>
					<path class="st1" d="M96.3,308.1c0-0.8,0-1.6-0.1-2.4"/>
					<path class="st1" d="M97.1,343.7c-0.2-11.9-0.4-23.7-0.8-35.6"/>
					<path class="st1" d="M132.6,261.9c0,0,0,0.1,0,0.1c4.9,11.8,4.7,25,4.4,37.8c-0.6,21.7-1.1,43.4-4.1,64.9
						c0,0.4-0.1,0.8-0.2,1.2"/>
					<path class="st1" d="M132.9,364.3c0,0.1,0,0.2,0,0.3c-1.2,17.2-4.3,34.3-9.1,50.9c0,0.1-0.1,0.3-0.1,0.4"/>
					<path class="st1" d="M123.8,415.6c-1.1,6.2-0.8,12.6-0.6,18.9c0.1,6.1,0.1,12.2,0.1,18.3c0,3.6,0,7.2,0,10.8c0,3.1,0,6.1,0,9.2
						c-0.1,16.4-0.8,32.9-2.1,49.3"/>
					<path class="st1" d="M120.9,521c0,0.3,0.1,0.7,0.1,1c0.4,3.6,0.1,7.2-0.1,10.7c-0.5,6.9-0.9,13.9-1.4,20.8c0,0,0,0,0,0.1"/>
					<path class="st1" d="M119.7,553.6c-0.1,0-0.1,0-0.1,0c-3.1,0.1-6.1,0.1-9.2,0.2"/>
					<path class="st1" d="M109.4,553.7c-0.6-0.8-0.7-1.8-0.7-2.8c-0.6-11.2-1.3-22.3-1.9-33.5c-0.1-2.2-0.3-4.4-0.4-6.6
						c-0.1-2.7-0.2-5.4-0.3-8c-0.1-3.3-0.3-6.6-0.4-9.9c-0.3-7.2-0.6-14.4-0.8-21.7c0-0.2,0-0.3,0-0.5"/>
					<path class="st1" d="M105,471.2c-0.1-9.4-0.1-18.7-0.2-28.1c0-7.1-0.1-14.3-0.1-21.4"/>
					<path class="st1" d="M104.5,422c0-0.1,0-0.2,0-0.3c-0.2-11.6-0.3-23.1-0.5-34.6c-0.1-7.6-0.2-15.2-0.3-22.8
						c0-1.6,0-3.1-0.1-4.7c-0.1-5.7-0.1-11.5-0.2-17.2"/>
					<path class="st1" d="M104.1,305.8c0-0.5,0-1.1,0.1-1.6"/>
					<path class="st1" d="M103.3,342.2c0.2-11.7,0.4-23.4,0.8-35.1c0-0.4,0-0.9,0-1.3"/>
					<path class="st1" d="M67.8,264c0-0.1,0-0.1,0.1-0.2c0.2-0.5,1-0.5,1.6-0.4c5,0.7,10,1.4,15,1.7c4.3,0.3,8.6,0.4,12.8,0.3
						c3.2-0.1,6.4-0.3,9.5-0.6c5.2-0.4,10.5-1,15.7-1.6c3.2-0.3,6.5-0.7,9.7-1"/>
					<path class="st1" d="M96.5,308.5c-0.1-0.1-0.1-0.3-0.2-0.4v0c-0.5-1.6-0.1-3.6,1.3-4.5c0.7-0.4,1.6-0.5,2.5-0.5
						c1.1,0.1,2.2,0.4,3,1.1c0.5,0.4,0.8,1,1,1.6c0,0,0,0,0,0c0.1,0.4,0.1,0.9,0,1.3"/>
				</g>
			</g>
		</g>
		<g>
			<g>
				<path d="M79,268.2c0.1,1.1,0.2,2.4-0.2,3.5c-0.6,1.6-2,2.1-3.5,2.6c-2.3,0.8-4.7,1.6-7,2.4c-0.7,0.2-0.4,1.4,0.3,1.2
					c1.8-0.6,3.6-1.2,5.5-1.8c1.3-0.5,2.9-0.8,4.1-1.6c2.1-1.4,2.2-3.8,2.1-6.1C80.2,267.4,79,267.4,79,268.2L79,268.2z"/>
			</g>
		</g>
		<g>
			<g>
				<path d="M119.7,266.8c-0.2,2.3,0,4.7,2.1,6.1c2.7,1.8,6.5,2.5,9.5,3.5c0.7,0.2,1-0.9,0.3-1.2c-2.3-0.8-4.7-1.5-7-2.4
					c-1.2-0.4-2.6-0.9-3.3-2.1c-0.7-1.2-0.5-2.7-0.4-4C120.9,266.1,119.7,266.1,119.7,266.8L119.7,266.8z"/>
			</g>
		</g>
		<g>
			<g>
				<path class="st2" d="M97,268.4c0.8,0,0.8-1.2,0-1.2C96.2,267.2,96.2,268.4,97,268.4L97,268.4z"/>
			</g>
		</g>
		<g>
			<g>
				<path class="st2" d="M97,268.3c0.8,0,0.8-1.2,0-1.2C96.2,267.1,96.2,268.3,97,268.3L97,268.3z"/>
			</g>
		</g>
		<g>
			<g>
				<path class="st2" d="M97,268.3c0.8,0,0.8-1.2,0-1.2C96.2,267.1,96.2,268.3,97,268.3L97,268.3z"/>
			</g>
		</g>
		<g>
			<g>
				<path class="st3" d="M99,267.2c0.2,1.6,0.2,3.2-0.1,4.8c-0.1,0.8,1,1.1,1.2,0.3c0.2-1.7,0.3-3.4,0.1-5.2
					C100.1,266.4,98.9,266.4,99,267.2L99,267.2z"/>
			</g>
		</g>
		<g>
			<g>
				<path class="st4" d="M76.6,415.8c-0.3,1.5,0.8,2.8,1.7,3.8c1,1.2,2.3,2.1,3.9,2c0.8,0,0.8-1.2,0-1.2c-1.2,0.1-2.1-0.5-2.8-1.4
					c-0.6-0.6-1.8-2-1.6-2.9C77.9,415.4,76.7,415.1,76.6,415.8L76.6,415.8z"/>
			</g>
		</g>
		<g>
			<g>
				<path class="st4" d="M122.5,417.2c0.2,0.9-1.1,2.3-1.6,2.9c-0.8,0.8-1.7,1.4-2.8,1.4c-0.8,0-0.8,1.2,0,1.2
					c1.6,0.1,2.9-0.8,3.9-2c0.9-1.1,2-2.4,1.7-3.8C123.5,416.1,122.3,416.5,122.5,417.2L122.5,417.2z"/>
			</g>
		</g>
		<g>
			<g>
				<g>
					<path d="M67.5,263c-4.5,12.8-4.8,26.1-4.7,39.6c0.2,14.2,1.1,28.3,2.7,42.3c0.1,0.8,1.3,0.8,1.2,0c-1.5-13.4-2.4-26.9-2.7-40.4
						c-0.2-14-0.1-27.9,4.6-41.2C68.9,262.6,67.7,262.3,67.5,263L67.5,263z"/>
				</g>
			</g>
			<g>
				<g>
					<path d="M80.6,555.8c3.5,0,6.9,0,10.4,0.2c0.8,0,0.8-1.2,0-1.2c-3.5-0.1-6.9-0.2-10.4-0.2C79.9,554.7,79.9,555.9,80.6,555.8
						L80.6,555.8z"/>
				</g>
			</g>
			<g>
				<g>
					<path d="M65.2,342.2c1.3,25.2,4.2,50.3,11.1,74.6c0.2,0.7,1.4,0.4,1.2-0.3c-6.8-24.3-9.8-49.2-11.1-74.3
						C66.4,341.5,65.2,341.5,65.2,342.2L65.2,342.2z"/>
				</g>
			</g>
			<g>
				<g>
					<path d="M76.2,416.7c2.8,8.6,1.1,19.7,0.9,28.7c-0.2,9.3-0.4,18.5,0.2,27.8c0,0.8,1.2,0.8,1.2,0c-0.5-9.9-0.3-19.8-0.1-29.7
						c0.2-8.7,1.7-18.7-1-27.1C77.1,415.6,75.9,415.9,76.2,416.7L76.2,416.7z"/>
				</g>
			</g>
			<g>
				<g>
					<path d="M77.4,472.2c-0.1,22.7,0.8,45.3,1.5,68c0,0.8,1.2,0.8,1.2,0c-0.7-22.7-1.7-45.3-1.5-68
						C78.6,471.5,77.4,471.5,77.4,472.2L77.4,472.2z"/>
				</g>
			</g>
			<g>
				<g>
					<path d="M81.1,555.4c-0.3-5-0.7-10.1-1-15.1c-0.1-0.8-1.3-0.8-1.2,0c0.3,5,0.7,10.1,1,15.1C79.9,556.1,81.1,556.1,81.1,555.4
						L81.1,555.4z"/>
				</g>
			</g>
			<g>
				<g>
					<path d="M91.7,555.4c0.9-16.9,2-33.8,3-50.7c0-0.8-1.2-0.8-1.2,0c-1,16.9-2.1,33.8-3,50.7C90.4,556.1,91.6,556.1,91.7,555.4
						L91.7,555.4z"/>
				</g>
			</g>
			<g>
				<g>
					<path d="M94.8,505.3c-0.6-15.2,0.6-30.7,1-45.9c0-0.8-1.2-0.8-1.2,0c-0.3,15.2-1.5,30.7-1,45.9
						C93.6,506.1,94.8,506.1,94.8,505.3L94.8,505.3z"/>
				</g>
			</g>
			<g>
				<g>
					<path d="M95.8,459.8c0.1-12,0.2-23.9,0.3-35.9c0-0.8-1.2-0.8-1.2,0c-0.1,12-0.3,23.9-0.3,35.9
						C94.5,460.5,95.7,460.5,95.8,459.8L95.8,459.8z"/>
				</g>
			</g>
			<g>
				<g>
					<path d="M96.2,424.4c0.4-16.2,0.8-32.5,1.2-48.7c0-0.8-1.2-0.8-1.2,0c-0.4,16.2-0.8,32.5-1.2,48.7
						C95,425.1,96.2,425.1,96.2,424.4L96.2,424.4z"/>
				</g>
			</g>
			<g>
				<g>
					<path d="M97.6,376.2c-0.2-23.3-0.5-46.6-1.4-69.9c0-0.8-1.2-0.8-1.2,0c0.9,23.3,1.2,46.6,1.4,69.9
						C96.4,377,97.6,377,97.6,376.2L97.6,376.2z"/>
				</g>
			</g>
			<g>
				<g>
					<path d="M96.2,307.8c0-1.8,0.9-3.3,2.6-3.9c1.9-0.7,4.6-0.1,4.7,2.4c0,0.8,1.2,0.8,1.2,0c-0.1-2.7-2.6-4.2-5.1-3.8
						c-2.7,0.4-4.5,2.5-4.5,5.3C95,308.5,96.2,308.5,96.2,307.8L96.2,307.8z"/>
				</g>
			</g>
			<g>
				<g>
					<path d="M68,263.8c21.5,3.5,42.5,1,64-1c0.8-0.1,0.8-1.3,0-1.2c-21.4,2-42.3,4.4-63.7,1C67.6,262.5,67.2,263.6,68,263.8
						L68,263.8z"/>
				</g>
			</g>
			<g>
				<g>
					<g>
						<path d="M131.6,263.9c4.7,13.3,4.8,27.2,4.6,41.2c-0.2,13.5-1.1,27-2.7,40.4c-0.1,0.8,1.1,0.8,1.2,0
							c1.6-14.1,2.5-28.2,2.7-42.3c0.2-13.5-0.1-26.7-4.7-39.6C132.5,262.8,131.3,263.1,131.6,263.9L131.6,263.9z"/>
					</g>
				</g>
				<g>
					<g>
						<path d="M119.6,555.2c-3.5,0-6.9,0-10.4,0.2c-0.8,0-0.8,1.2,0,1.2c3.5-0.1,6.9-0.2,10.4-0.2
							C120.4,556.4,120.4,555.2,119.6,555.2L119.6,555.2z"/>
					</g>
				</g>
				<g>
					<g>
						<path d="M133.8,342.8c-1.3,25.1-4.2,50.1-11.1,74.3c-0.2,0.7,0.9,1.1,1.2,0.3c6.9-24.4,9.8-49.4,11.1-74.6
							C135,342,133.8,342,133.8,342.8L133.8,342.8z"/>
					</g>
				</g>
				<g>
					<g>
						<path d="M122.9,416.9c-2.7,8.4-1.2,18.4-1,27.1c0.2,9.9,0.4,19.8-0.1,29.7c0,0.8,1.2,0.8,1.2,0c0.5-9.3,0.4-18.5,0.2-27.8
							c-0.2-9-1.9-20.1,0.9-28.7C124.3,416.5,123.2,416.2,122.9,416.9L122.9,416.9z"/>
					</g>
				</g>
				<g>
					<g>
						<path d="M121.7,472.8c0.1,22.7-0.8,45.3-1.5,68c0,0.8,1.2,0.8,1.2,0c0.7-22.7,1.7-45.3,1.5-68
							C122.9,472,121.7,472,121.7,472.8L121.7,472.8z"/>
					</g>
				</g>
				<g>
					<g>
						<path d="M120.4,555.9c0.3-5,0.7-10.1,1-15.1c0.1-0.8-1.1-0.8-1.2,0c-0.3,5-0.7,10.1-1,15.1
							C119.1,556.7,120.3,556.7,120.4,555.9L120.4,555.9z"/>
					</g>
				</g>
				<g>
					<g>
						<path d="M109.7,555.9c-0.9-16.9-2-33.8-3-50.7c0-0.8-1.2-0.8-1.2,0c1,16.9,2.1,33.8,3,50.7
							C108.6,556.7,109.8,556.7,109.7,555.9L109.7,555.9z"/>
					</g>
				</g>
				<g>
					<g>
						<path d="M106.7,505.8c0.6-15.2-0.6-30.7-1-45.9c0-0.8-1.2-0.8-1.2,0c0.3,15.2,1.5,30.7,1,45.9
							C105.4,506.6,106.6,506.6,106.7,505.8L106.7,505.8z"/>
					</g>
				</g>
				<g>
					<g>
						<path d="M105.7,460.3c-0.1-12-0.2-23.9-0.3-35.9c0-0.8-1.2-0.8-1.2,0c0.1,12,0.3,23.9,0.3,35.9
							C104.5,461.1,105.7,461.1,105.7,460.3L105.7,460.3z"/>
					</g>
				</g>
				<g>
					<g>
						<path d="M105.2,424.9c-0.4-16.2-0.8-32.5-1.2-48.7c0-0.8-1.2-0.8-1.2,0c0.4,16.2,0.8,32.5,1.2,48.7
							C104.1,425.7,105.3,425.7,105.2,424.9L105.2,424.9z"/>
					</g>
				</g>
				<g>
					<g>
						<path d="M103.9,376.8c0.2-23.3,0.5-46.6,1.4-69.9c0-0.8-1.2-0.8-1.2,0c-0.9,23.3-1.2,46.6-1.4,69.9
							C102.7,377.6,103.9,377.6,103.9,376.8L103.9,376.8z"/>
					</g>
				</g>
			</g>
		</g>
	</g>
</g>
</svg>
