<?xml version="1.0" encoding="utf-8"?>
<!-- Generator: Adobe Illustrator 21.0.2, SVG Export Plug-In . SVG Version: 6.00 Build 0)  -->
<svg version="1.1" id="Layer_1" xmlns="http://www.w3.org/2000/svg" xmlns:xlink="http://www.w3.org/1999/xlink" x="0px" y="0px"
	 viewBox="0 0 200 600" style="enable-background:new 0 0 200 600;" xml:space="preserve">
<style type="text/css">
	.st0{fill:#603117;}
	.st1{fill:#613719;}
</style>
<g>
	<g>
		<g>
			<g>
				<path class="st0" d="M115.8,30.8c0.7-0.6,3.3,0.3,4.2,0.5c1.5,0.3,2.1-1.8,0.6-2.3c-0.7-0.2-1.5-0.5-2.2-0.9
					c-0.2,0.7-0.4,1.5-0.6,2.2c1.4-0.1,2.9,1.1,4,1.8c1.3,0.9,2.5,2,3.2,3.5c0.4-0.5,0.8-1,1.2-1.5c-2.5-0.3-4.9-0.6-7.4-0.9
					c-1.5-0.2-1.5,2.2,0,2.4c2.5,0.3,4.9,0.6,7.4,0.9c0.7,0.1,1.4-0.8,1.2-1.5c-0.8-1.9-1.9-3.3-3.6-4.5c-1.7-1.2-3.7-2.7-5.8-2.6
					c-1.1,0-1.7,1.7-0.6,2.2c0.9,0.4,1.8,0.8,2.7,1.1c0.2-0.8,0.4-1.5,0.6-2.3c-2.1-0.4-4.7-1.5-6.5,0.1
					C113,30.2,114.7,31.9,115.8,30.8L115.8,30.8z"/>
			</g>
		</g>
		<g>
			<g>
				<path class="st0" d="M111.9,27.5c1.1,0.2,3.1,0.4,4,1.1c0.4,0.4,0.7,1.1,1,1.6c0.4,0.6,0.7,1.3,1.1,1.9c0.8,1.3,2.9,0.1,2.1-1.2
					c-0.5-0.8-1-1.7-1.5-2.5c-0.3-0.6-0.7-1.3-1.2-1.7c-1.2-1-3.3-1.2-4.8-1.5C111.1,24.9,110.4,27.2,111.9,27.5L111.9,27.5z"/>
			</g>
		</g>
		<g>
			<g>
				<path class="st0" d="M116.8,40.8c1.9,2.2,4.9,2.8,6.7,5c0.5,0.6,1.5,0.4,1.9-0.2c1.4-2.3-1.7-5.9-2.7-7.9
					c-0.5,0.6-0.9,1.2-1.4,1.8c1.5,0.5,2.4,2.4,3.6,3.4c1.2,1,2.6-0.5,1.7-1.7c-1.1-1.4-2.2-2.8-3.3-4.2c-0.4,0.7-0.8,1.3-1.2,2
					c2,0.8,3.1,4,3.7,5.9c0.7,2.1,1.2,4.2,1.5,6.4c0.2,1.5,2.6,1.5,2.4,0c-0.6-4.7-2-12.5-7-14.5c-1.3-0.5-1.8,1.2-1.2,2
					c1.1,1.4,2.2,2.8,3.3,4.2c0.6-0.6,1.1-1.1,1.7-1.7c-1.7-1.4-2.5-3.3-4.7-4c-1-0.3-1.8,0.9-1.4,1.8c0.4,0.8,3.1,4.8,2.7,5.5
					c0.6-0.1,1.3-0.2,1.9-0.2c-1.8-2.2-4.8-2.8-6.7-5C117.5,37.9,115.8,39.6,116.8,40.8L116.8,40.8z"/>
			</g>
		</g>
		<g>
			<g>
				<path class="st0" d="M74.5,49.1c0-1.9,0.2-6.2,1.4-8c1.8-1.2,3.5-2.4,5.3-3.6c0.4,0.1,0.8,0.2,1.2,0.2c1.4-0.5,1.5-0.3,2.5-1.6
					c1-1.3,1.1-2.5,2.3-3.7c1.4-1.4,3.3-2.6,4.9-3.6c4.2-2.5,8.5-3,13.4-3.1c1.5,0,1.5-2.4,0-2.4c-4.9,0.1-9.5,0.6-13.9,3.1
					c-2,1.1-3.7,2.5-5.5,3.9c-0.9,0.7-2.2,1.5-2.9,2.5c-0.2,0.3-0.9,1.9-0.7,1.8c-1.6,1.3-4.5,0.2-6.6,2.1
					c-3.2,2.8-3.9,8.7-3.9,12.6C72.1,50.7,74.5,50.7,74.5,49.1L74.5,49.1z"/>
			</g>
		</g>
		<g>
			<g>
				<path class="st0" d="M72.5,52.7c-0.2,0.3-0.5,0.6-0.7,0.9c-0.7,0.9,0.7,2.3,1.6,1.6c2.8-2.1,5.9-4.1,8.1-6.9
					c2.5-3.2,4-7,7.2-9.6c1.2-1-0.5-2.7-1.7-1.7c-2.6,2.1-4.2,5-5.9,7.7c-2.3,3.6-5.5,5.9-8.9,8.4c0.5,0.5,1.1,1.1,1.6,1.6
					c0.2-0.3,0.5-0.6,0.7-0.9C75.5,52.7,73.4,51.5,72.5,52.7L72.5,52.7z"/>
			</g>
		</g>
	</g>
	<g>
		<g>
			<g>
				<g>
					<path class="st0" d="M84.3,37.6c0.2-0.1-2.9,1.9-1.8,1.9c-0.3-0.7-0.6-1.4-0.8-2c-0.6,0-1.1-0.1-1.7-0.1
						c-0.2-0.5-0.9-0.7-1.4-0.6c-0.5,0.2-1,0.3-1.5,0.5c0.5,0.4,1,0.8,1.5,1.2c0.3-0.1,0.6-0.2,0.9-0.3c1.3-0.1,1.7-2,0.3-2.4
						c-0.7-0.2-1.4-0.4-2-0.5c0,0.8,0,1.5,0,2.3c2.2-0.8,4.8-0.2,6.4,1.5c0.3-0.7,0.6-1.4,0.8-2c-1-0.1-2-0.2-3-0.4
						c0,0.8,0,1.5,0,2.3c-2.4,0.7-8.9,6.9-7.6,9.6c-0.1,0.5-0.3,1.1-0.4,1.6c0.1,0,0.2-0.1,0.2-0.1c-0.6-0.3-1.2-0.7-1.8-1
						c-0.1,1.5-0.2,3-0.4,4.6c0.8,0,1.6,0,2.4,0c-0.2-2.7-0.8-14,3.2-14.7c-0.5-0.3-1-0.6-1.5-0.8c0.4,1.8-2.8,5.9-3.7,7.5
						c-0.8,1.4,1.2,2.5,2.1,1.2c1.6-2.4,3.3-4.9,5-7.2c-0.7-0.3-1.5-0.6-2.2-0.9c-0.5,2.5-1.3,4.6-2.7,6.7c0.7,0.3,1.5,0.6,2.2,0.9
						c0.8-2.1,1.9-3.7,3.4-5.2c-0.7-0.4-1.3-0.8-2-1.2c-0.6,2.6-2.2,4.4-3.4,6.8c-1,2-1.4,4.4-2.9,6.2c0.6,0.5,1.3,1,1.9,1.5
						c0.9-1.3,2.1-2.2,3.6-2.7c-0.4-0.7-0.8-1.4-1.2-2.1c-1,0.6-1.9,1.2-2.9,1.8c-1.1,0.7-0.4,2.6,0.9,2.2
						c6.6-2.1,8.3-9.2,13.9-12.7c-0.5-0.6-1-1.3-1.5-1.9c-3.9,3.5-7.7,7-11.6,10.5c0.6,0.5,1.3,1,1.9,1.5c2.4-4.2,5.4-7.7,9.1-10.8
						c-0.6-0.6-1.1-1.1-1.7-1.7c-0.4,0.4-0.7,0.7-1.1,1.1c-1.1,1.1,0.5,2.6,1.7,1.7c1.5-1.2,5.5-5.3,7.4-5.3c-0.3-0.7-0.6-1.4-0.8-2
						c-0.7,0.8-3.9,4.1-5.1,3.6c0-1.2,0-2.4,0-3.6c0.9-0.9,1.9-1.7,3-2.3c1.3-0.9,0.2-2.7-1.2-2.1c-1.4,0.6-2.4,1.3-3.6,2.3
						c-1.2,1,0.5,2.6,1.7,1.7c1.6-1.2,3.2-2.5,4.8-3.7c1.1-0.9-0.3-2.5-1.5-1.9c-1.6,0.8-2.6,1.6-3.8,3c-1,1.2,0.5,2.7,1.7,1.7
						c1.5-1.2,3.7-3.8,5.7-4.1c3.2-0.4,5.9,2.3,7,4.9c0.1-0.5,0.3-1.1,0.4-1.6c-1,0.3-1.9,0.5-2.9,0.8c0.4,0.4,0.8,0.8,1.2,1.2
						c0,0.4-10,3.7-3.9-0.7c-0.6-0.5-1.2-0.9-1.8-1.4c-0.4,1.1-2.3,5.4-3.7,4.5c-1.1,0.4-0.8,0,0.9-1.2c0.7-1,1.7-1.6,2.8-2
						c-0.6-0.5-1.2-0.9-1.8-1.4c-0.3,1.2-3.8,7.5-4.1,4.6c-0.1-1.4,4.9-3.9,6.1-4.5c-0.6-0.5-1.2-0.9-1.8-1.4
						c-0.5,2-1.7,3.4-3.5,4.2c-2.5,1-3,1.2-1.6,0.6c1.1-1.4,3.8-2.6,5.5-3.3c-0.6-0.5-1.2-0.9-1.8-1.4c-1.2,1.1-2.4,2.2-3.7,3.3
						c0.3,0.6,0.7,1.2,1,1.8c1-1.6,2.2-2.9,3.7-4.1c0.8-0.6,3.8-1.9,1.2-1.2c0.5,0.5,1,1,1.5,1.5c0.9,0,1.8-0.1,2.6-0.1
						c0.7,0.3,1.4,0.6,2,0.8c0.4-0.7,0.7-1.3,1.1-2c-0.5-0.3-1-0.6-1.5-0.8c0.1,0.5,8.5,2.3,9.6,2.8c1.7,0.7,3.4,1.4,5.2,1.6
						c1.7,0.2,3,0.2,4-1.2c0.2-0.4,0.2-0.9,0-1.2c-0.6-1.1-1.5-1.8-2.4-2.6c-0.2,0.7-0.4,1.3-0.5,2c4.3-1.4,7.5,1.2,9.5,4.7
						c0.5-0.6,0.9-1.2,1.4-1.8c-2.5-0.5-4.9-0.6-7.5-0.3c0.4,0.4,0.8,0.8,1.2,1.2c0-2.1-0.5-3.2-1.9-4.8c-0.5,0.6-1,1.3-1.5,1.9
						c1.5,0.9,3.1,1.8,4.6,2.8c0.3-0.7,0.6-1.5,0.9-2.2c-1.6-0.4-3.1-1.1-4.5-2.1c-0.3,0.7-0.6,1.5-0.9,2.2c1.9,0.5,3.7,1,5.6,1.6
						c0.2-0.8,0.4-1.5,0.6-2.3c-0.9-0.3-1.8-0.6-2.7-0.9c-0.2,0.7-0.4,1.5-0.6,2.2c0.9,0.2,1.8,0.4,2.8,0.6c0.2-0.8,0.4-1.5,0.6-2.3
						c-2.2-0.6-8.3-2.4-9,1.4c-0.5,3.2,4.7,5.8,7,6.6c1.3,0.5,2-1.5,0.9-2.2c-1.9-1.2-3.6-2.6-5.2-4.1c-0.4,0.7-0.8,1.3-1.2,2
						c2.6,0.8,4.6,2,6.4,4c0.6-0.6,1.1-1.1,1.7-1.7c-1.2-0.8-2.3-1.9-3.1-3.1c-0.5,0.5-1.1,1.1-1.6,1.6c2.6,1.7,4.4,3.9,5.6,6.8
						c0.7-0.4,1.4-0.8,2.1-1.2c-0.5-1-0.9-1.9-1.4-2.9c-0.7,0.4-1.4,0.8-2.1,1.2c1.7,3,2.7,5.9,3.2,9.3c0.7-0.3,1.5-0.6,2.2-0.9
						c-2-4.1-6.4-6.9-9.7-9.9c-1.1-1-2.8,0.6-1.7,1.7c1.1,1,2.1,2,3.2,3c0.5-0.6,1-1.3,1.5-1.9c-1.4-0.8-1.3-0.8-2.9-1.3
						c-1-0.3-2,0.9-1.4,1.8c0.8,1.1,1.5,1.8,2.7,2.5c1.2,0.7,2.4-0.9,1.5-1.9c-0.9-0.9-1.7-1.8-2.6-2.7c-0.5,0.6-1,1.3-1.5,1.9
						c2,0.9,3.6,1.8,5.3,3.2c1.2,0.9,2.8-0.6,1.7-1.7c-1.2-1.2-2.2-2.3-3.2-3.6c-0.5,0.6-1,1.3-1.5,1.9c1.5,0.6,2.6,1.5,3.7,2.8
						c0.6-0.6,1.1-1.1,1.7-1.7c-0.7-0.9-1.4-1.7-2.1-2.6c-0.5,0.6-0.9,1.2-1.4,1.8c0.4,0.2,0.8,0.4,1.1,0.7c0.3-0.7,0.6-1.4,0.8-2
						c-7.3-0.8-13.1-6.1-20.5-6.6c0,0.8,0,1.6,0,2.4c3.3,0.1,6.4,0.6,9.6,1.6c1.5,0.5,2.1-1.8,0.6-2.3c-4.5-1.4-8.9-3-13.2-4.8
						c-0.1,0.8-0.2,1.6-0.3,2.4c5,0.3,9.7,1.4,14.4,3.3c0.2-0.8,0.4-1.5,0.6-2.3c-2.8-0.6-10.8-1.2-12.5-3.7
						c-0.5,0.6-0.9,1.2-1.4,1.8c4.9,0.8,9.2,2.5,13.3,5.2c0.3-0.7,0.6-1.5,0.9-2.2c-2.8-1.2-11.1-3.3-12.3-6c-0.3,0.6-0.7,1.2-1,1.8
						c7.8,0.8,13.2,6.7,19.1,11.2c0.4-0.7,0.8-1.4,1.2-2.1c-2.9-1.4-5.8-2.8-8.7-4.2c-0.1,0.7-0.2,1.5-0.3,2.2c0.9,0,1.8,0,2.7,0
						c0.2-0.8,0.4-1.5,0.6-2.3c-4.9-1.6-10.1-3.3-15.3-2.7c-2,0.2-4,0.9-5.8,1.8c-0.9,0.5-5.8,4.6-6.5,4.5c-0.1,0.8-0.2,1.6-0.3,2.4
						c8.9,0.4,17.7,0.1,26.6-0.8c1.6-0.2,1.5-2.2,0-2.4c-2.3-0.3-4.6-0.6-6.8-0.9c-1.5-0.2-1.5,2.2,0,2.4c2.3,0.3,4.6,0.6,6.8,0.9
						c0-0.8,0-1.6,0-2.4c-8.9,0.9-17.7,1.2-26.6,0.8c-1.3-0.1-1.7,2.1-0.3,2.4c3.4,0.7,6-3.6,8.9-4.9c6.1-2.8,12.7-0.6,18.7,1.3
						c1.5,0.5,2-1.8,0.6-2.3c-1.5-0.6-2.5-0.6-4,0c-0.9,0.3-1.3,1.7-0.3,2.2c2.9,1.4,5.8,2.8,8.7,4.2c1.4,0.7,2.4-1.1,1.2-2.1
						c-6.4-4.9-11.9-10.7-20.4-11.6c-1-0.1-1.4,1.1-1,1.8c0.7,1.4,1.6,1.8,2.9,2.5c3.4,1.8,7.3,3.1,10.9,4.6c1.3,0.6,2-1.5,0.9-2.2
						c-4.3-2.9-8.8-4.7-13.8-5.5c-0.9-0.1-2,0.8-1.4,1.8c2.7,3.7,9.8,3.9,14,4.8c1.5,0.3,2-1.7,0.6-2.3c-4.8-2-9.8-3.1-15-3.4
						c-1.5-0.1-1.5,1.9-0.3,2.4c4.4,1.8,8.8,3.3,13.2,4.8c0.2-0.8,0.4-1.5,0.6-2.3c-3.4-1-6.7-1.6-10.2-1.7c-1.6,0-1.5,2.3,0,2.4
						c7.3,0.5,13.2,5.8,20.5,6.6c1,0.1,1.6-1.4,0.8-2c-0.9-0.8-1.1-0.9-2.2-1.3c-1-0.3-2,0.9-1.4,1.8c1,1.5,1.2,1.7,2.4,3
						c1.1,1.2,2.7-0.5,1.7-1.7c-1.2-1.5-2.4-2.4-4.1-3.1c-1.3-0.5-2.3,0.8-1.5,1.9c1,1.3,2.1,2.4,3.2,3.6c0.6-0.6,1.1-1.1,1.7-1.7
						c-1.8-1.5-3.7-2.6-5.8-3.6c-1.2-0.5-2.4,0.8-1.5,1.9c0.9,0.9,1.7,1.8,2.6,2.7c0.5-0.6,1-1.3,1.5-1.9c-0.6-0.6-1.2-1.1-1.9-1.7
						c-0.5,0.6-0.9,1.2-1.4,1.8c0.8,0.3,1.5,0.7,2.3,1c1.2,0.7,2.5-0.9,1.5-1.9c-1.1-1-2.1-2-3.2-3c-0.6,0.6-1.1,1.1-1.7,1.7
						c3.1,2.8,7.4,5.6,9.3,9.4c0.7,1.3,2.4,0.3,2.2-0.9c-0.6-3.6-1.7-6.7-3.4-9.8c-0.8-1.4-2.7-0.2-2.1,1.2c0.5,1,0.9,1.9,1.4,2.9
						c0.7,1.4,2.7,0.2,2.1-1.2c-1.4-3.3-3.5-5.7-6.5-7.7c-1-0.6-2.4,0.7-1.6,1.6c1.1,1.4,2.1,2.5,3.5,3.6c1.2,0.9,2.8-0.5,1.7-1.7
						c-2.1-2.3-4.4-3.7-7.5-4.6c-1.1-0.3-2.1,1.2-1.2,2c1.8,1.7,3.7,3.1,5.7,4.5c0.3-0.7,0.6-1.5,0.9-2.2c-1.3-0.5-4.8-1.6-4-3.4
						c0.7-1.6,3.1-0.5,4.7,0c1.5,0.4,2.1-1.8,0.6-2.3c-1.8-0.7-1.5-0.6-3.4-0.7c-1.2-0.1-1.6,1.7-0.6,2.2c1.7,1,1.3,0.8,3.2,1.2
						c1.5,0.3,2.1-1.8,0.6-2.3c-1.9-0.6-3.7-1.1-5.6-1.6c-1.3-0.3-2.1,1.5-0.9,2.2c1.7,1,3.2,1.7,5,2.3c1.3,0.4,2.1-1.5,0.9-2.2
						c-1.5-0.9-3.1-1.8-4.6-2.8c-1.2-0.7-2.3,0.9-1.5,1.9c0.4,1,0.8,2.1,1.2,3.1c0,0.6,0.5,1.3,1.2,1.2c2.5-0.3,4.3-0.3,6.8,0.3
						c1,0.2,1.9-0.8,1.4-1.8c-2.6-4.5-6.9-7.6-12.2-5.8c-0.8,0.3-1.2,1.3-0.5,2c1.8,1.7-0.4,0.8-1.7,0.4c-1.4-0.4-2.6-1-3.9-1.5
						c-1.5-0.6-3-1.2-4.7-1.3c-1.6-0.2-5.3-0.1-5.8,2c-0.7,3,5.1,3.4,3.8-1.2c-0.2-0.6-0.9-1.1-1.5-0.8c-2,0.8-3,2.1-2.8,4.3
						c0.1,1,1.3,1.6,2,0.8c5-4.7-6.5-8-6.1-1.6c0,0.6,0.4,1,0.9,1.2c2.4,0.9,6.1-2.1,4.7-4.8c-1.9-3.8-5.7,0.6-6.1,2.9
						c-0.2,0.9,0.5,1.7,1.5,1.5c2.3-0.6,4.9-2.7,3.2-5.1c-0.2-0.3-0.6-0.6-1-0.6c-4.2,0.5-7.5,4.2-9.7,7.5c-0.5,0.7,0.1,1.9,1,1.8
						c3.2-0.2,5.3-1.9,6-5c0.2-1.1-0.8-1.8-1.8-1.4c-2.4,1.1-7.4,3.5-7.1,6.7c0,0.4,0.2,0.9,0.6,1c3.9,1.7,8.6-3,9.5-6.5
						c0.3-1-0.9-1.8-1.8-1.4c-2.2,1.2-11.1,6.3-7.9,9.8c3.6,3.9,8.8-4.4,9.4-7.1c0.2-1.1-0.8-1.8-1.8-1.4c-1.8,0.8-8.8,5.9-5,8.1
						c3.6,2,7.7-4.1,8.5-6.6c0.3-0.9-0.9-2-1.8-1.4c-2.3,1.6-5.8,4.5-4.4,7.6c0.2,0.4,0.6,0.6,1,0.6c3.3,0,6.7-3.2,6.8-6.6
						c0-0.4-0.2-0.8-0.6-1c-3.4-1.8-8.3,4-4.4,6.1c3.5,1.9,11.8-3.4,6.7-6.2c-0.4-0.2-0.8-0.2-1.2,0c-0.2,0.1-0.5,0.3-0.7,0.4
						c-0.4,0.2-0.6,0.6-0.6,1c0,0.3,0,0.5,0,0.8c0,0.6,0.5,1.3,1.2,1.2c1.5-0.1,2.7-0.5,4.1-1.1c0.6-0.3,0.7-1.1,0.4-1.6
						c-1.4-3.1-4.1-5.4-7.5-6c-4.1-0.6-6.1,2.2-9,4.7c0.6,0.6,1.1,1.1,1.7,1.7c0.8-1.2,1.9-2,3.3-2.6c-0.5-0.6-1-1.3-1.5-1.9
						c-1.6,1.2-3.2,2.5-4.8,3.7c0.6,0.6,1.1,1.1,1.7,1.7c0.9-0.9,1.9-1.5,3.1-1.9c-0.4-0.7-0.8-1.4-1.2-2.1c-2.4,1.6-8.1,6.1-5,9.6
						c2.8,3.1,8.2-1.6,10-3.6c0.7-0.8,0.2-2-0.8-2c-3.3,0-6.7,4.1-9.1,6c0.6,0.6,1.1,1.1,1.7,1.7c0.4-0.4,0.7-0.7,1.1-1.1
						c1.1-1.1-0.5-2.7-1.7-1.7c-3.8,3.2-6.9,6.9-9.4,11.3c-0.7,1.2,0.9,2.4,1.9,1.5c3.9-3.5,7.7-7,11.6-10.5c1-0.9-0.3-2.6-1.5-1.9
						c-5.3,3.2-7.3,10.5-13.3,12.4c0.3,0.7,0.6,1.5,0.9,2.2c1-0.6,1.9-1.2,2.9-1.8c1.3-0.8,0.2-2.7-1.2-2.1c-2,0.9-3.2,1.9-4.5,3.6
						c-0.8,1.1,1,2.5,1.9,1.5c1.5-1.9,2-4,3.1-6.2c1.3-2.7,3.1-4.8,3.8-7.8c0.3-1.1-1.1-2.1-2-1.2c-1.8,1.9-3.1,3.8-4.1,6.3
						c-0.5,1.3,1.5,2,2.2,0.9c1.5-2.3,2.4-4.6,2.9-7.3c0.3-1.4-1.4-2-2.2-0.9c-1.7,2.4-3.4,4.8-5,7.2c0.7,0.4,1.4,0.8,2.1,1.2
						c1.6-2.8,4.5-6,3.9-9.3c-0.1-0.7-0.9-0.9-1.5-0.8c-5.8,1-5.3,12.7-5,17c0.1,1.6,2.2,1.5,2.4,0c0.2-1.5,0.3-3,0.4-4.6
						c0-0.9-1-1.5-1.8-1c-0.1,0-0.2,0.1-0.2,0.1c-0.6,0.4-0.7,1.1-0.4,1.6c0.1,0.1,0.1,0.2,0.2,0.3c0.2,0.5,0.9,0.7,1.4,0.6
						c1.6-0.5,2.2-2.4,3.2-3.6c1.8-2.4,5.1-4.3,6.6-6.8c1.1-1.9,0.1-4.2-2.3-3.6c-1.2,0.3-1.1,2,0,2.3c2,0.6,1.5,0.5,3.6,0.5
						c1,0,1.6-1.3,0.8-2c-2.4-2.5-5.5-3.3-8.8-2.1c-1.1,0.4-1.2,2,0,2.3c0.7,0.2,1.4,0.4,2,0.5c0.1-0.8,0.2-1.6,0.3-2.4
						c-1.9,0.1-3.3,0.5-3.3,2.7c0,0.8,0.8,1.4,1.5,1.2c0.8-0.2,1.8,1.1,2.7,1.2c1.4,0.2,2.2-0.6,3-1.6c0.6-0.8,0.3-2.1-0.8-2
						c-1.7,0-3.3,1.5-2.3,3.3c1.5,2.6,3.3,0.1,4.7-0.4C86.4,39.4,85.8,37.1,84.3,37.6L84.3,37.6z"/>
				</g>
			</g>
			<g>
				<g>
					<path class="st0" d="M89.1,33.2c1.9-1.9,3.9-4.3,6.2-5.8c2.5-1.5,5.4-1.7,8.2-1.8c5.1-0.2,10.2,0.3,14.2,3.8
						c0.2-0.7,0.4-1.3,0.5-2c-7.1,2.1-14.3-1-21.5-0.6c0.1,0.8,0.2,1.6,0.3,2.4c3.1-1,5.9-1.3,9.1-0.8c0-0.8,0-1.5,0-2.3
						c-1.4,0.1-2.8,0.2-4.2,0.2c-0.1,0.8-0.2,1.6-0.3,2.4c3.1-0.4,6.3-0.8,8.8,1.5c0.4-0.7,0.8-1.3,1.2-2c-2.5-0.8-4.7-1.9-6.8-3.3
						c-0.3,0.7-0.6,1.5-0.9,2.2c3.7,0.6,6.4,2.4,8.2,5.6c0.5-0.6,0.9-1.2,1.4-1.8c-2.2-0.6-4-1.9-5.3-3.9c-0.2,0.6-0.5,1.2-0.7,1.8
						c2.4-0.4,4.5,0.2,6.5,1.5c0.3-0.6,0.7-1.2,1-1.8c-1.3-0.9-2.6-1.8-3.9-2.7c-0.3,0.6-0.7,1.2-1,1.8c1.4,0.6,2.9,1.2,4.3,1.9
						c0.4-0.7,0.8-1.3,1.2-2c-3.5-0.9-7-1.8-10.5-2.9c-0.1,0.8-0.2,1.6-0.3,2.4c2.2-0.2,4.3,0,6.4,0.6c0.1-0.8,0.2-1.6,0.3-2.4
						c-4.2-0.4-8.1-0.5-12.1,0.8c0.5,0.4,1,0.8,1.5,1.2c-0.5,3.7-5,5.4-8.1,6c-1.3,0.2-1,2,0,2.3c3.2,1.1,6.3,1.6,9.7,1.5
						c-0.1-0.8-0.2-1.6-0.3-2.4c-2.8,0.5-5.7,1.1-8.5,1.6c-1.4,0.3-1,2.3,0.3,2.4c2.8,0.2,5.7,0.3,8.5,0.5c0-0.8,0-1.6,0-2.4
						c-2.4,0.2-4.7,0.3-7.1,0.1c-1.3-0.1-1.7,2.2-0.3,2.4c0.8,0.1,1.7,0.2,2.5,0.4c0.1-0.8,0.2-1.6,0.3-2.4
						c-1.8,0.2-3.5,0.3-5.4,0.3c0.1,0.8,0.2,1.6,0.3,2.4c5.4-0.7,10.8-0.8,16.2-0.2c0-0.8,0-1.6,0-2.4c-2.1-0.2-4.2-0.4-6.3-0.5
						c0.1,0.8,0.2,1.6,0.3,2.4c0.4-0.1,0.8-0.3,1.3-0.4c0.8-0.3,1.2-1.4,0.5-2c-0.5-0.5-1-0.9-1.5-1.4c-0.3,0.7-0.6,1.4-0.8,2
						c1.5-0.2,2.9,0,4.3,0.5c1.3,0.4,2.2-1.6,0.9-2.2c-0.8-0.4-1.7-0.8-2.5-1.2c-0.3,0.7-0.6,1.5-0.9,2.2c3.5,0.5,6.6,2,9.7,3.5
						c2.3,1.1,5.7,2,7.3,4.1c0.3-0.6,0.7-1.2,1-1.8c-0.3-0.1-0.5-0.2-0.8-0.3c-0.3,0.7-0.6,1.5-0.9,2.2c1,0.2,2,0.5,2.9,0.9
						c1.5,0.5,2.1-1.8,0.6-2.3c-0.9-0.4-1.9-0.7-2.9-0.9c-1.3-0.3-2.1,1.5-0.9,2.2c0.8,0.5,1.1,0.6,2,0.6c0.9,0,1.6-1.1,1-1.8
						c-1.7-2.4-4.6-3.3-7.3-4.5c-3.7-1.7-7.1-3.5-11.2-4.1c-1.2-0.2-2.3,1.6-0.9,2.2c0.8,0.4,1.7,0.8,2.5,1.2
						c0.3-0.7,0.6-1.5,0.9-2.2c-1.7-0.5-3.2-0.7-5-0.6c-1,0-1.6,1.3-0.8,2c0.5,0.5,1,0.9,1.5,1.4c0.2-0.7,0.4-1.3,0.5-2
						c-0.4,0.1-0.8,0.3-1.3,0.4c-1.3,0.5-1,2.2,0.3,2.4c2.1,0.2,4.2,0.4,6.3,0.5c1.5,0.1,1.5-2.2,0-2.4c-5.7-0.6-11.2-0.5-16.9,0.3
						c-1.4,0.2-1,2.4,0.3,2.4c1.8,0,3.6-0.1,5.4-0.3c1.2-0.1,1.8-2.1,0.3-2.4c-0.8-0.1-1.7-0.2-2.5-0.4c-0.1,0.8-0.2,1.6-0.3,2.4
						c2.4,0.2,4.7,0.2,7.1-0.1c1.5-0.1,1.6-2.3,0-2.4c-2.8-0.2-5.7-0.3-8.5-0.5c0.1,0.8,0.2,1.6,0.3,2.4c2.8-0.5,5.7-1.1,8.5-1.6
						c1.3-0.3,1-2.4-0.3-2.4c-3.2,0.1-6.1-0.4-9.1-1.4c0,0.8,0,1.5,0,2.3c3.4-0.6,11.1-3.9,9.7-8.6c-0.8-2.9-4.3-2.5-4.6,0.3
						c-0.1,0.8,0.8,1.4,1.5,1.2c3.8-1.3,7.5-1.1,11.4-0.8c1.4,0.1,1.6-2,0.3-2.4c-2.4-0.6-4.6-0.9-7.1-0.7c-1.3,0.1-1.7,1.9-0.3,2.4
						c3.5,1.1,7,2,10.5,2.9c1.2,0.3,2-1.1,1.2-2c-1.8-1.9-3.4-2.5-6-2.6c-0.9,0-1.5,1-1,1.8c1.3,2.5,3.2,3.6,5.9,3.8
						c0.9,0.1,1.5-1.1,1-1.8c-1.2-1.7-4.7-4.8-6.7-2.2c-2.1,2.7,1.8,6.2,4.2,6.6c0.4,0.1,0.9,0,1.2-0.3c3.6-4.5-4.1-7.8-7.8-6.7
						c-0.7,0.2-1.2,1.1-0.7,1.8c1.8,2.5,3.8,4,6.7,5c1,0.4,1.8-0.9,1.4-1.8c-2.2-3.8-5.4-6-9.7-6.7c-1.3-0.2-2.1,1.4-0.9,2.2
						c2.4,1.6,4.7,2.7,7.4,3.6c1.1,0.4,2.1-1.2,1.2-2c-3-2.7-6.6-2.7-10.5-2.2c-1.2,0.1-1.8,2.1-0.3,2.4c2,0.3,3.5,0.2,5.4-0.2
						c1.1-0.3,1.2-2.1,0-2.3c-3.6-0.6-6.9-0.4-10.4,0.8c-1.2,0.4-1.1,2.4,0.3,2.4c7.5-0.4,14.7,2.8,22.1,0.5c0.8-0.2,1.2-1.4,0.5-2
						c-4.5-3.9-10.1-4.7-15.9-4.5c-7.4,0.3-10.9,3.3-16.1,8.3C86.2,32.6,87.9,34.3,89.1,33.2L89.1,33.2z"/>
				</g>
			</g>
			<g>
				<g>
					<path class="st0" d="M122.2,45.2c1.8,0.3,3.2,1.7,4.2,3.2c0.9,1.4,0.7,3,1,4.6c0.3,1.3,2.4,1,2.4-0.3
						c-0.1-4.4-2.1-8.2-4.2-11.9c-0.5,0.5-1.1,1.1-1.6,1.6c1.1,0.8,1.7,2.1,2.2,3.3c0.6,1.2,2.6,0.4,2.2-0.9
						c-0.6-1.6-1.3-3.1-2.3-4.5c-0.9-1.3-3-0.1-2.1,1.2c0.9,1.2,1.5,2.5,2,3.9c0.7-0.3,1.5-0.6,2.2-0.9c-0.8-1.7-1.6-3.1-3.1-4.2
						c-1-0.7-2.2,0.7-1.6,1.6c1.9,3.4,3.7,6.8,3.8,10.7c0.8-0.1,1.6-0.2,2.4-0.3c-0.6-2.3-0.3-3.9-1.8-5.9c-1.3-1.7-2.8-3.2-5-3.6
						C121.3,42.6,120.7,45,122.2,45.2L122.2,45.2z"/>
				</g>
			</g>
		</g>
		<g>
			<g>
				<g>
					<path class="st1" d="M90,34.9c-3.9-2.9,3.7-6,5.4-6.6c0.9-0.4,7.5-1.9,7.6-2.2c-0.2,0.7,1,1.1,1.2,0.3c0-0.1,0-0.1,0-0.2
						c0.1-0.3,0-0.5-0.3-0.7c-1.3-0.8-4,0.1-5.4,0.4c-2.6,0.7-5.4,1.8-7.7,3.2c-2.5,1.5-4.2,4.7-1.4,6.8C90,36.4,90.6,35.4,90,34.9
						L90,34.9z"/>
				</g>
			</g>
			<g>
				<g>
					<path class="st1" d="M118,30.5c2.2,0.1,4.1,1,5.6,2.6c0.5,0.6,1.4-0.3,0.8-0.8c-1.7-1.9-3.9-2.9-6.4-3
						C117.2,29.3,117.2,30.5,118,30.5L118,30.5z"/>
				</g>
			</g>
			<g>
				<g>
					<path class="st1" d="M118.2,39.9c2.5,2.6,6.7,3.2,8.8,6.2c0.4,0.6,1.5,0,1-0.6c-2.2-3.2-6.4-3.7-9-6.5
						C118.5,38.5,117.6,39.4,118.2,39.9L118.2,39.9z"/>
				</g>
			</g>
			<g>
				<g>
					<path class="st1" d="M93.8,39.5c6-0.8,12.1-0.2,18.1-1.8c0.7-0.2,0.4-1.4-0.3-1.2c-5.9,1.7-12,1-18.1,1.8
						C92.7,38.5,93,39.6,93.8,39.5L93.8,39.5z"/>
				</g>
			</g>
			<g>
				<g>
					<path class="st1" d="M75.5,51.3c0.2-2.3,0.1-10.9,3.3-11.6c0.8-0.2,0.4-1.3-0.3-1.2c-2,0.4-2.6,2.1-3,4c-0.6,2.9-1,5.8-1.2,8.8
						C74.3,52.1,75.5,52.1,75.5,51.3L75.5,51.3z"/>
				</g>
			</g>
			<g>
				<g>
					<path class="st1" d="M72.1,55.1c0.1,0.2,0.2,0.4,0.3,0.7c0.3,0.7,1.4,0.1,1-0.6c-0.1-0.2-0.2-0.4-0.3-0.7
						C72.8,53.8,71.8,54.5,72.1,55.1L72.1,55.1z"/>
				</g>
			</g>
		</g>
		<g>
			<g>
				<g>
					<path d="M72.7,58c-0.1-4.8-0.1-27.1,9.6-22.4c0.7,0.3,1.3-0.7,0.6-1C71.5,29,71.4,52.4,71.5,58C71.6,58.7,72.8,58.8,72.7,58
						L72.7,58z"/>
				</g>
			</g>
			<g>
				<g>
					<path d="M73.3,59.1c-1.6-4.6,5.7-6.6,7.9-9c0.9-1.1,1.5-2.4,2.4-3.5c0.3-0.4,4.6-5.1,4.9-4.9c0.6,0.4,1.2-0.6,0.6-1
						c-1-0.7-2,0.7-2.6,1.3c-2.4,2.1-3.9,4.3-5.8,6.7c-2.4,3.2-10.4,5.4-8.6,10.8C72.4,60.1,73.6,59.8,73.3,59.1L73.3,59.1z"/>
				</g>
			</g>
			<g>
				<g>
					<path d="M88.7,42.1c5.1,0,10.1,0.1,15.2,0.1c4.4,0,8.6-0.9,13-1.1c0.8,0,0.8-1.2,0-1.2c-4.4,0.2-8.6,1.1-13,1.1
						c-5.1,0-10.1-0.1-15.2-0.1C87.9,40.9,87.9,42.1,88.7,42.1L88.7,42.1z"/>
				</g>
			</g>
			<g>
				<g>
					<path d="M116.3,41.4c2.2,2.8,5.1,3.7,7.6,6.1c2.7,2.6,4.2,6.2,4.8,9.9c0.1,0.8,1.3,0.4,1.2-0.3c-0.6-3.2-1.8-6.2-3.8-8.9
						c-2.5-3.2-6.4-4.4-8.9-7.6C116.6,40,115.8,40.8,116.3,41.4L116.3,41.4z"/>
				</g>
			</g>
			<g>
				<g>
					<path d="M129.9,57.8c0.6-7.4-0.6-17.6-7-22.5c-0.6-0.5-1.2,0.6-0.6,1c6,4.6,7,14.5,6.4,21.4C128.7,58.6,129.9,58.6,129.9,57.8
						L129.9,57.8z"/>
				</g>
			</g>
			<g>
				<g>
					<path d="M116.2,28.8c4.4-1.3,8.7,3.2,10.3,6.8c0.3,0.7,1.3,0.1,1-0.6c-1.8-4.2-6.7-8.8-11.6-7.4
						C115.1,27.8,115.4,29,116.2,28.8L116.2,28.8z"/>
				</g>
			</g>
			<g>
				<g>
					<path d="M127,36c-2-0.4-4.1-0.7-6.1-0.7c-0.8,0-0.8,1.2,0,1.2c2,0,3.9,0.2,5.8,0.7C127.4,37.3,127.7,36.2,127,36L127,36z"/>
				</g>
			</g>
			<g>
				<g>
					<path d="M126.1,36c0,0.1,0,0.2,0,0.3c0,0.8,1.2,0.8,1.2,0c0-0.1,0-0.2,0-0.3C127.3,35.2,126.1,35.2,126.1,36L126.1,36z"/>
				</g>
			</g>
			<g>
				<g>
					<path d="M84.1,35.1c0.4-6,10.4-9.9,15.3-10.8c6.6-1.3,13.1,0,18.9,3.2c0.7,0.4,1.3-0.7,0.6-1c-6.8-3.7-14.7-5-22.2-2.7
						c-5.1,1.5-13.4,5.4-13.8,11.4C82.8,35.8,84,35.8,84.1,35.1L84.1,35.1z"/>
				</g>
			</g>
			<g>
				<g>
					<path d="M86.3,37.6c-1.1-0.5-1.8-1.6-1.8-2.8c0-0.8-1.2-0.8-1.2,0c0,1.6,0.9,3.1,2.3,3.8C86.4,39,87,37.9,86.3,37.6L86.3,37.6z
						"/>
				</g>
			</g>
		</g>
	</g>
</g>
</svg>
