<?xml version="1.0" standalone="no"?>
<!DOCTYPE svg PUBLIC "-//W3C//DTD SVG 20010904//EN"
 "http://www.w3.org/TR/2001/REC-SVG-20010904/DTD/svg10.dtd">
<svg version="1.0" xmlns="http://www.w3.org/2000/svg"
 width="1024.000000pt" height="1024.000000pt" viewBox="0 0 1024.000000 1024.000000"
 preserveAspectRatio="xMidYMid meet">
<metadata>
Created by potrace 1.11, written by Peter Selinger 2001-2013
</metadata>
<g transform="translate(0.000000,1024.000000) scale(0.100000,-0.100000)"
fill="#000000" stroke="none">
<path d="M1989 7909 c-20 -4 -72 -22 -115 -40 -62 -25 -102 -33 -187 -39 -74
-6 -120 -15 -145 -28 -51 -26 -89 -92 -109 -188 -26 -129 -54 -168 -182 -254
-78 -53 -101 -88 -101 -155 0 -56 17 -90 85 -170 49 -58 75 -107 101 -188 23
-73 73 -133 122 -147 77 -21 228 -3 304 36 29 15 31 15 23 -2 -4 -11 -30 -82
-57 -159 -263 -748 -292 -1807 -68 -2476 21 -65 55 -153 75 -195 49 -107 141
-243 174 -256 14 -6 42 -18 61 -27 57 -26 233 -27 373 -2 64 12 120 21 125 21
5 0 19 -35 31 -77 63 -218 182 -466 332 -693 189 -286 324 -413 642 -604 268
-162 447 -214 802 -236 188 -12 298 -8 452 16 120 18 197 48 357 138 172 97
237 129 244 121 14 -14 -92 -185 -179 -286 -40 -48 -49 -106 -22 -146 11 -16
20 -47 21 -70 2 -88 71 -190 157 -236 30 -16 58 -21 115 -22 107 0 149 23 285
160 60 62 136 133 167 160 57 47 132 139 181 225 15 25 55 79 90 121 80 96
162 218 223 334 26 50 48 91 49 92 0 1 37 -9 80 -23 153 -48 301 -67 485 -61
230 8 391 45 586 136 264 124 467 356 544 621 11 41 35 113 53 158 32 83 33
85 127 159 209 167 558 546 663 720 94 157 156 339 176 517 16 140 -36 423
-124 676 -167 478 -519 920 -970 1216 -319 209 -700 357 -1079 420 -85 13
-107 20 -111 35 -10 30 -54 78 -88 96 -17 8 -52 32 -78 53 -255 202 -737 351
-1419 439 -519 68 -825 92 -1170 92 -376 -1 -631 -26 -928 -92 -255 -57 -617
-192 -672 -249 -33 -35 -117 -72 -144 -64 -55 17 -84 69 -120 212 -14 57 -34
118 -46 137 -38 62 -116 92 -191 74z m77 -180 c69 -21 78 -34 89 -124 11 -81
25 -128 51 -161 l23 -32 -40 -28 c-57 -39 -116 -109 -150 -177 -16 -31 -46
-83 -66 -115 -21 -31 -60 -99 -89 -150 -28 -52 -55 -89 -58 -83 -11 18 -39 13
-107 -18 -88 -40 -136 -46 -187 -25 -53 21 -81 59 -91 126 -8 48 -15 58 -66
104 l-58 52 5 70 c6 86 31 133 76 146 48 14 99 75 117 143 40 150 45 160 88
200 43 40 44 40 232 87 70 17 141 13 231 -15z m4035 -5416 c-47 -66 -86 -115
-75 -93 13 24 105 150 110 150 3 0 -13 -26 -35 -57z"/>
</g>
</svg>
