<?xml version="1.0" encoding="utf-8"?>
<!-- Generator: Adobe Illustrator 21.0.2, SVG Export Plug-In . SVG Version: 6.00 Build 0)  -->
<svg version="1.1" id="Layer_1" xmlns="http://www.w3.org/2000/svg" xmlns:xlink="http://www.w3.org/1999/xlink" x="0px" y="0px"
	 viewBox="0 0 200 600" style="enable-background:new 0 0 200 600;" xml:space="preserve">
<style type="text/css">
	.st0{fill:#FFE329;}
	.st1{fill:#100D0C;}
	.st2{fill:#F9EE53;}
</style>
<g>
	<g>
		<g>
			<path class="st0" d="M87.1,35.7c0.7,0.5,1.4,0.9,2.1,1.4c0-1,0-2,0-3c0.3-0.3,0.7-0.6,1-0.9c1,0.3,1.9,0.5,2.9,0.8
				c0.8,0.8,4.8,0.4,6,0.5c2.1,0.2,4.1,0.5,6.1,0.7c2.3,0.3,3.6-2.7,2.6-4.5c-0.7-1.1-1.3-1.7-2.4-2.4c-2.3-1.4-4.9,0.9-4.4,3.4
				c0,0.2,0.1,0.4,0.1,0.6c0.3-1,0.5-1.9,0.8-2.9c-0.9,1.1-3.9,3.7-5.4,3.8c0.7,1.7,1.4,3.4,2.1,5.1c-0.8-0.5-1.5-0.9-2.3-1.4
				c0.2,1.2,0.3,2.4,0.5,3.6c0.1-0.2,0.2-0.3,0.2-0.5c-0.9,0.5-1.7,1-2.6,1.5c-1.9-2.4-4.1-2.9-6.8-1.5c-1,0-2.1,0-3.1-0.2
				c-2.2-0.6-1.7-1.2-3.1-2.4c-1.9-1.5-4.1-0.9-6,0.2c1.2,1.6,2.4,3.1,3.6,4.7c1.8-1.6,3.6-3.2,5.6-4.5C86,37,90.1,36,89,34.7
				c-0.3-1-0.5-1.9-0.8-2.9c-0.8,1.9-6.1,4-7.8,5.6c-1.6,1.5-0.8,4.4,1.3,5c1.4,0.4,2,0.3,3.4,0.4c2.3,0.1,3.9,1.6,5.1-1
				c0.9-0.5,1.7-1,2.6-1.5c-0.7,0.1-1.5,0-2.2-0.1c0.3,1.9,0.5,3.9,0.8,5.8c1.4,0.3,2.1-0.1,1.9-1.2c-0.3-1-0.5-1.9-0.8-2.9
				c0,0.1-0.1,0.3-0.1,0.4c-0.4,2.1,1.3,4.4,3.7,3.7c2.3-0.7,4.8-0.4,7.2-0.3c3.9,0.1,3.8-5.7,0-6c-1.4-0.1-2.7-0.1-4.1,0
				c-3.8,0.2-3.9,6,0,6c1.3,0,2.1-0.1,3.1-0.9c0.5-0.4,0.9-0.9,1.3-1.4c1.1-1.5,0.3-2-2.3-1.6c0-1,0-2,0-3c0.9-0.2,1.8-0.5,2.7-0.7
				c0.5,0.9,1,1.7,1.5,2.6c-0.5-0.4-1.1-0.7-1.6-1.1c0.7-0.7,1.4-1.4,2.1-2.1c-0.3,0.1-0.7,0.2-1,0.3c1,0.3,1.9,0.5,2.9,0.8
				c-0.3,2.3,0.4,2.6,2.1,0.8c-0.7,0.7-1.4,1.4-2.1,2.1c0.2-0.1,0.4-0.2,0.6-0.3c-1.1-0.5-2.2-0.9-3.4-1.4c0.2-1.5-0.2-1.9-1.2-0.9
				c-0.3,0.2-0.7,0.5-1,0.8c-0.8,0.8-1.1,1.5-1.4,2.6c-0.6,2,1,3.6,2.9,3.8c2,0.2,3.5-0.6,5.6-0.1c1,0.2,2.2,0,2.9-0.8
				c-1.6,1.9-0.1,0.6,1.4,0.6c2-0.1,4,0,6.1-0.2c2.3-0.3,3.6-2.3,2.6-4.5c-1-2.1-2.6-3.6-4.6-4.8c-0.9-0.5-8.9-3.7-8.8-4.4
				c-1.3,1-2.5,1.9-3.8,2.9c1.9,0.6,3.8,1.3,5.7,2.1c0.5-1.9,1.1-3.8,1.6-5.7c-0.7-0.3-1.3-0.5-2-0.8c-0.8,1.8-1.5,3.6-2.3,5.4
				c2.9,1,5.4,2.4,7.9,4.1c2.8,2,6-2.4,3.6-4.7c-1.3-1.3-2.6-2.2-4.2-3.1c-2.8-1.5-6.3,2.4-3.6,4.7c4.2,3.5,9.2,5,10.4,10.9
				c1.8-0.8,3.6-1.5,5.4-2.3c-0.8-1.4-1.6-2.5-2.8-3.6c-2.4-2.3-6.5,0.7-4.7,3.6c2.3,3.7,3,7.8,4.8,11.7c0.9,1.9,4.3,2,5.1,0
				c2.3-5-0.4-8.3-2.7-12.7c-1.7,1-3.4,2-5.1,3c0.9,1.1,1.5,2.4,1.8,3.8c1.1,3.7,6.9,2.1,5.7-1.6c-0.6-1.9-1.3-3.5-2.4-5.2
				c-2.1-3.2-6.9-0.4-5.1,3c0.9,1.7,3.6,4.7,2.7,6.7c1.7,0,3.4,0,5.1,0c-1.8-4-2.5-8-4.8-11.7c-1.6,1.2-3.1,2.4-4.7,3.6
				c0.8,0.6,1.4,1.4,1.8,2.4c1.7,3,6.1,0.9,5.4-2.3c-0.6-2.9-1.4-5.6-3.5-7.7c-2.4-2.4-5.8-3.6-8.4-5.8c-1.2,1.6-2.4,3.1-3.6,4.7
				c1.2,0.5,2.2,1.2,3,2.2c1.2-1.6,2.4-3.1,3.6-4.7c-2.9-2.1-6-3.6-9.3-4.7c-3.1-1.1-5.4,4-2.3,5.4c1.2,0.5,2.2,1,3.4,1.4
				c3.7,1.3,5-4.3,1.6-5.7c-1.9-0.8-3.7-1.5-5.7-2.1c-2.1-0.6-3.5,1.1-3.8,2.9c-0.9,6.4,12,7.8,14.2,12.2c0.9-1.5,1.7-3,2.6-4.5
				c-2.5,0.3-5.4,0.2-7.8,0.3c-1.6,0-2.6-0.4-3.9,1c1-0.3,1.9-0.5,2.9-0.8c-2.6-0.6-4.6,0.2-7.2-0.1c1,1.3,1.9,2.5,2.9,3.8
				c0.2-0.9,2.8-1.8,3.3-3.1c0.5-1.3,0.5-2.8-0.4-3.9c-0.7-0.9-2.1-1.9-3.4-1.4c-3.6,1.5-4.2,7.4,0.3,8.4c4,0.9,6.1-4.6,4.1-7.5
				c-2.2-3.2-7.3-1.7-8.8,1.5c-1.8,3.8,2.6,7.7,6.1,4.9c3.7-3,0.1-8.2-3.9-7.7c-3.3,0.4-6.9,4.7-4.2,7.7c2.4,2.7,7.1,0.2,6.3-3.3
				c-0.4-1.8-2.2-2.9-3.9-2.9c-0.7,0-1.6,0.3-2.2,0.7c-0.3,0.2-2.4,2.4-1.5,2.4c0,2,0,4,0,6c1.4-0.1,2.7,0,4.1,0c0-2,0-4,0-6
				c-3-0.1-5.9-0.4-8.8,0.5c1.2,1.2,2.4,2.4,3.7,3.7c1.1-5.6-5.1-4.3-8.4-3.6c-3.6,0.8-2.3,5.5,0.8,5.8c0.7,0.1,1.5,0.2,2.2,0.1
				c1,0,2.1-0.5,2.6-1.5c3.5-7.5-8.1-7.1-12.1-8.1c0.4,1.7,0.9,3.3,1.3,5c3-2.9,7.6-4.1,9.4-8.2c0.4-1-0.1-2.2-0.8-2.9
				c-4.5-5.1-15.2,4.9-18.4,7.6c-2.6,2.3,0.7,6.3,3.6,4.7c-0.3,0.2-1.8-1.4,0.1,0.8c0.4,0.5,0.9,0.8,1.4,1.2c1.4,0.9,3.3,1.2,5,1.3
				c3.8,0.3,8.6-0.4,11.4-3.1c5.1-4.8-2.3-10.6-4.7-5.5c-0.5,1.2-0.6,2.7,0.5,3.6c3.6,3.3,10.1-1.3,8.2-5.8
				c-2.1-4.7-8.8-1.7-8.4,2.8c0.5,5.5,7.7,3.7,9.7,0.2c2.7-4.9-3.8-7.9-7.1-4.2c-1.6,1.8-0.6,5.3,2.1,5.1c4-0.3,11.2-4.3,10.2-9.1
				c-1.5,1.1-2.9,2.2-4.4,3.4c0.1,0.1,0.2,0.2,0.3,0.3c0.9-1.5,1.7-3,2.6-4.5c-5.2-0.6-15.5-3.6-17.8,3.4c-1.5,4.5,3.7,9,6.9,4.4
				c0.6-0.9,0.5-2.1,0-3c-2.3-3.9-8.5-2.2-10.4,1.3c-2.5,4.6,2.3,7.4,6.2,5.4C93.5,39.1,90.5,34,87.1,35.7L87.1,35.7z"/>
		</g>
	</g>
	<g>
		<g>
			<path class="st0" d="M74.6,90c3.8,0,3.8-6,0-6C70.8,84,70.8,90,74.6,90L74.6,90z"/>
		</g>
	</g>
	<g>
		<g>
			<path class="st0" d="M72.2,62.5c0-1.2,0.3-2.4,0.8-3.5c-1.9-0.5-3.8-1.1-5.7-1.6c-0.1,0.9-0.2,1.8-0.4,2.7c1.9,0,3.8,0,5.7,0
				c-0.5-3.7,1.5-14,5.3-16.1c-1,0-2,0-3,0c0.5,0.2,1,0.6,1.5,1c-0.4-1.4-0.7-2.7-1.1-4.1c-6,11.7-8.4,25-6.2,37.8
				c1.9-0.5,3.8-1.1,5.7-1.6c-0.5-1.9-0.7-3.8-0.7-5.8c-1.8,0.5-3.7,1-5.5,1.5c0.1,0.4,0.3,0.8,0.4,1.2c1.3-1,2.5-1.9,3.8-2.9
				c-1-0.4-1.9-0.4-2.9,0.1c-0.5,0.2-2.9,1.5-1.1,0.7c1.2,0.2,2.4,0.3,3.6,0.5c-2.1-1.6-1.5-5.1-0.8-7.1c-1.9,0-3.8,0-5.7,0
				c1.5,4.3,1.3,7.5,0.3,11.9c1.8-0.2,3.6-0.5,5.4-0.7c-0.7-1-0.5-3-0.9-4.2c-1-3-6.2-2.7-5.8,0.8c0.2,2.7,0.5,5.4,0.7,8.1
				c1.9-0.3,3.9-0.5,5.8-0.8c0-0.6-0.1-1.3-0.1-1.9c0.3-2.9-4.4-4.1-5.5-1.5c-0.2,0.5-0.4,0.9-0.6,1.4c1.8,0.5,3.7,1,5.5,1.5
				c0-0.5,0-0.9,0-1.4c-1.9,0.3-3.9,0.5-5.8,0.8c0.1,0.8,0.2,1.5,0.5,2.2c0.8,2.8,5,2.9,5.7,0c0.2-0.9,0.4-1.8,0.7-2.6
				c-1.8,0.2-3.6,0.5-5.4,0.7c0.7,1.4,1.3,2.7,2,4.1c1.3,2.7,5.5,1.3,5.5-1.5c0-0.9,0-1.8,0-2.8c-1.8,0.5-3.7,1-5.5,1.5
				c0.5,1.1,1,2.1,1.6,3.2c1.6,3.3,5.9,0.8,5.4-2.3c-0.1-0.8-0.3-1.6-0.4-2.5c-1.8,0.8-3.6,1.5-5.4,2.3c0.3,0.7,0.7,1.4,1,2
				c1.5,3,6.4,0.9,5.4-2.3c-0.2-0.7-0.4-1.4-0.6-2.1c-1.9,0.5-3.8,1.1-5.7,1.6c0.4,1.5,1.4,3.6,1.4,5.1c0.5-0.9,1-1.7,1.5-2.6
				c1,0.9,1.3,0.6,0.9-0.7c-1.9,0.3-3.9,0.5-5.8,0.8c0,1,0.1,1.9,0.1,2.9c1.9,0,3.8,0,5.7,0c-0.5-1.4-0.9-2.7-1.1-4.2
				c-0.5-2.9-5.2-2.8-5.7,0c-0.2,0.9-0.4,1.8-0.6,2.7c1.8-0.2,3.6-0.5,5.4-0.7c-0.1-0.3-0.2-0.7-0.3-1c-2,0-4,0-6,0
				c-0.1,0.8-0.1,1.6-0.2,2.3c1.9,0,3.8,0,5.7,0c-0.3-1.2-0.4-2.3-0.3-3.5c0.1-3.8-5.9-3.8-6,0c0,1.8,0.1,3.4,0.5,5.1
				c0.6,2.9,5,2.7,5.7,0c0.5-1.7,0.5-2.1,0.4-3.9c-0.3-3.8-6.1-3.9-6,0c0.1,1.7,0.3,2.5,1.1,4c1.1,2.2,4.9,1.8,5.4-0.7
				c0.2-0.9,0.4-1.8,0.6-2.7c-1.9,0-3.8,0-5.7,0c0.2,1.5,0.6,2.8,1.1,4.2c0.9,2.5,5.1,3.1,5.7,0c0.4-2.2,0.4-3.9-0.1-6.1
				c-0.8-3.3-5.8-2.5-5.8,0.8c0,4.9,2.9,8.8,8,5.9c0.9-0.5,1.5-1.5,1.5-2.6c-0.1-2.3-1-4.5-1.6-6.7c-1.1-3.7-6.8-2.1-5.7,1.6
				c0.2,0.7,0.4,1.4,0.6,2.1c1.8-0.8,3.6-1.5,5.4-2.3c-0.3-0.7-0.7-1.4-1-2c-1.6-3.3-5.9-0.8-5.4,2.3c0.1,0.8,0.3,1.6,0.4,2.5
				c1.8-0.8,3.6-1.5,5.4-2.3c-0.5-1.1-1-2.1-1.6-3.2c-1.3-2.8-5.5-1.3-5.5,1.5c0,0.9,0,1.8,0,2.8c1.8-0.5,3.7-1,5.5-1.5
				c-0.7-1.4-1.3-2.7-2-4.1c-1.1-2.3-4.8-1.7-5.4,0.7c-0.2,0.9-0.4,1.8-0.7,2.6c1.9,0,3.8,0,5.7,0c-0.2-0.7-0.4-1.5-0.5-2.2
				c-0.5-3.4-5.8-2.5-5.8,0.8c0,0.5,0,0.9,0,1.4c0,2.8,4.3,4.3,5.5,1.5c0.2-0.5,0.4-0.9,0.6-1.4c-1.8-0.5-3.7-1-5.5-1.5
				c-0.2,1.6-0.1,2,0.4,3.5c1,3,6.2,2.7,5.8-0.8c-0.2-2.7-0.5-5.4-0.7-8.1c-1.9,0.3-3.9,0.5-5.8,0.8c0.7,2,0.2,3.8,1.5,5.6
				c1.4,1.9,4.8,2,5.4-0.7c1.3-5.7,1.6-9.5-0.3-15c-1-2.8-4.8-2.8-5.7,0c-1.3,3.9-1.3,10.1,2.3,12.9c1.2,0.9,2.3,1.1,3.6,0.5
				c0.3-0.1,0.6-0.3,0.9-0.6c1-1.1,0.5-1-1.5,0.4c1.7,0.7,4-1.1,3.8-2.9c-0.2-1.7-0.4-2.7-1.2-4.2c-1.4-2.7-5.6-1.4-5.5,1.5
				c0,2.5,0.3,4.9,0.9,7.3c1,3.8,6.4,2.1,5.7-1.6C72.9,66.1,75.3,54,80.4,44c0.8-1.6,0.3-3.1-1.1-4.1c-9-6.7-13.2,16.5-12.5,21.8
				c0.4,2.8,5.3,2.8,5.7,0c0.1-0.9,0.2-1.8,0.4-2.7c0.5-3.7-4.4-5.3-5.7-1.6c-0.6,1.7-0.9,3.3-1,5.1C65.9,66.3,71.9,66.3,72.2,62.5
				L72.2,62.5z"/>
		</g>
	</g>
	<g>
		<g>
			<path class="st0" d="M126.4,57.4c0.1,0.1,0.2,0.1,0.2,0.2c1.9-0.3,3.9-0.5,5.8-0.8c-0.1-0.4-0.3-0.7-0.4-1.1
				c-1.3-3.7-6.3-2.2-5.7,1.6c0,0.3,0.1,0.6,0.1,0.9c0.5,2.9,5.1,2.7,5.7,0c0.3-1.1,0.4-1.9,0.4-3.1c0-3.3-5-4.1-5.8-0.8
				c-1.3,5.2,0.2,12.1,0.5,17.4c0.2,2.6,4.3,4.5,5.5,1.5c1.7-4,0.8-7.4-0.1-11.5c-0.7-3.2-6.3-2.6-5.8,0.8c0.5,4.1,1,8.3,1.4,12.4
				c0.2,1.7,0.3,3.3,0.4,5c0,1-0.5,4,0,3.6c1-0.3,1.9-0.5,2.9-0.8c-0.5-0.1,1.2-10.4,1.4-11.1c-1.8,0.2-3.6,0.5-5.4,0.7
				c1.1,2.6,1.2,8,0.9,10.7c-0.4,4.2-1.4,8.5-2.7,12.6c1.8-0.2,3.6-0.5,5.4-0.7c0,0.1,0,0.2-0.1,0.3c-1.8-0.8-3.6-1.5-5.4-2.3
				c0.1,0.3,0.1,0.7,0.2,1c1.1,0.5,2.2,0.9,3.4,1.4c0.2,0.2,0.4,0.3,0.6,0.5c-1.7-0.7-3.4-1.4-5.1-2.1c-0.5,0.9-0.7,1.7-0.5,2.6
				c1,0.3,1.9,0.5,2.9,0.8c0,0.1,0,0.1,0.1,0.2c-1.2-0.2-2.4-0.3-3.6-0.5c0.4-0.4,0.9-0.8,1.3-1.1c-0.9-0.5-1.7-1-2.6-1.5
				c0,0.2,0,0.4,0,0.6c1.2-0.2,2.4-0.3,3.6-0.5c-0.2-0.1-0.4-0.3-0.6-0.4c0.5,0.9,1,1.7,1.5,2.6c-0.1-1.2,0.3-2.1,1.2-2.8
				c-1,0.3-1.9,0.5-2.9,0.8c0.2,0,0.3,0.1,0.5,0.1c-0.7-0.7-1.4-1.4-2.1-2.1c0,0.1,0.1,0.3,0.1,0.4c1-1.3,1.9-2.5,2.9-3.8
				c-0.1,0-0.3,0-0.4,0c0.9,0.5,1.7,1,2.6,1.5c0.3,0.4,2.4-5.4,2.5-5.9c-1.9-0.5-3.8-1.1-5.7-1.6c-0.6,2.7-1.9,4.6-4.5,5.6
				c0.8,1.8,1.5,3.6,2.3,5.4c1.5-1.1,2.8-2.2,4.1-3.5c2.8-2.8-1.3-6.5-4.2-4.2c-2.1,1.7-4.3,3.1-6.7,4.3c-1.3,0.7-3.3,1.1-4.2,2.2
				c-1.5,1.8-1,5.1-0.6,7.3c0.4,2,1.5,4,3.8,4.1c0.9,0,2.1-0.5,2.8-1.1c0.3-0.4,0.6-0.8,0.9-1.3c0.9-1.4,0-2.4-2.5-3
				c0.9-0.5,1.7-1,2.6-1.5c-0.2,0-0.3,0-0.5,0c0.9,0.5,1.7,1,2.6,1.5c1.1-0.8,0.9-0.9-0.5-0.2c-0.9-0.5-1.7-1-2.6-1.5
				c0.7,1,1,2.2,0.9,3.4c1.9-0.3,3.9-0.5,5.8-0.8c-0.2,0.1-0.4,0.2-0.6,0.3c-1,0-2,0-3,0c0-0.1,0-0.2,0.1-0.2
				c0.7-0.7,1.4-1.4,2.1-2.1c-0.1,0.7-0.3,1.4-0.4,2.1c0.9-0.5,1.7-1,2.6-1.5c-0.3,1.2-0.7,2.3-1,3.5c1.5-0.9,3-1.7,4.5-2.6
				c0.3,0.5,0.5,1,0.8,1.5c-0.7,0.7-1.4,1.4-2.1,2.1c-0.3-0.2-0.7-0.4-1-0.7c1.3-1,2.5-1.9,3.8-2.9c-4.3-0.6-2.2,4.4-1.5,5.6
				c0.5,0.7,1.1,1.1,1.8,1.6c1.3,0.9,3.3,0.2,4.1-1.1c1.4-2.4,0.1-4.6,0.1-7.2c-1.8,0.5-3.7,1-5.5,1.5c0.1,0.5,0.2,0.9,0.2,1.4
				c2,0,4,0,6,0c-0.4-6-1.1-12.1-0.9-18.2c-1.9,0.3-3.9,0.5-5.8,0.8c0.4,1.1,0.6,2.2,0.7,3.4c0.4,3.8,6.3,3.8,6,0
				c-0.2-1.7-0.4-3.3-0.9-5c-0.9-3.3-5.7-2.5-5.8,0.8c-0.3,6,0.5,12.2,0.9,18.2c0.3,3.8,6.1,3.9,6,0c-0.1-1.8-0.3-2.7-1-4.4
				c-1.2-2.8-5.6-1.2-5.5,1.5c0,1.1,0,2.2,0.2,3.4c0.3,1.4-0.2,2.1,0.5,0.9c1.4-0.4,2.7-0.7,4.1-1.1c-1.1-0.8-1-3-2.5-3.9
				c-1.3-0.8-2.9-0.7-4.1,0.3c-2.4,2-1.7,6.8,1.7,7.3c1.8,0.3,3.8-0.7,3.8-2.9c-0.1-3.5-3.1-7.2-6.9-4.9c-3,1.8-2.5,5.4,0.2,7.2
				c1.9,1.3,4.5-0.4,4.5-2.6c-0.1-6.3-9.3-7.8-8.9-1.2c0.4,6.4,10.2,3.1,6.5-3.2c-3.3-5.7-11.8,0.3-7.2,5c4.7,4.7,8.9-4.1,3.3-7.6
				c-0.9-0.6-2.1-0.5-3,0c-2.3,1.3-3,4-2.1,6.4c1.1,2.9,6.1,2.8,5.8-0.8c-0.3-3.7-2.1-10.7-7.1-6.8c-3.2,2.5-4,9.3,1.2,9.5
				c1,0.1,2.1-0.6,2.6-1.5c1.3-2.2,0.2-5.2-2.2-6.1c-1.2-0.4-2.5-0.2-3.5,0.4c-0.7,0.4-3.1,3-1.4,2.4c1,0.3,1.9,0.5,2.9,0.8
				c0,0-0.3-4.1-1.3-1.9c0.3-0.6,3.3-1.5,3.9-1.9c2.5-1.4,4.8-3,7.1-4.8c-1.4-1.4-2.8-2.8-4.2-4.2c-0.9,1-1.9,1.8-2.9,2.6
				c-2.4,1.8-1.2,6.8,2.3,5.4c4.5-1.7,7.6-4.9,8.7-9.8c0.8-3.8-4.5-5.2-5.7-1.6c-1.2,3.6-5.4,11.1,1,12c1.9,0.3,3.4-2.1,2.9-3.8
				c-2.4-7.7-13.4,3.8-6.4,8.1c1,0.6,2.8,0.5,3.6-0.5c1.9-2.3,2.2-5.1,0.9-7.8c-0.4-0.9-1.6-1.5-2.6-1.5c-5.1,0.3-7.8,8.5-2.7,11
				c4.5,2.2,9.1-4.8,5.6-8.1c-0.9-0.9-2.5-1.2-3.6-0.5c-2.9,1.8-4.4,7.7-0.7,9.6c4.7,2.3,7-4.8,7.2-8c0.2-2.7-3.3-3.8-5.1-2.1
				c-1.8,1.8-2.8,4.3-1.5,6.7c0.6,1,2.2,1.9,3.4,1.4c2.3-1,3.4-2.8,4-5.2c0.8-3.1-4.1-5.5-5.4-2.3c-0.9,2.2-1,3.6,0.1,5.7
				c1.2,2.4,4.7,1.5,5.4-0.7c1.6-4.9,2.7-10.2,3.1-15.4c0.3-3.8-0.3-8.9-1.8-12.4c-1-2.3-4.9-1.7-5.4,0.7c-0.6,3-3.8,22.8,5.1,18.1
				c2.4-1.3,2.4-5.1,2.4-7.4c0.1-6-1-12.3-1.8-18.2c-1.9,0.3-3.9,0.5-5.8,0.8c0.5,2.1,1.6,4.8,0.7,6.9c1.8,0.5,3.7,1,5.5,1.5
				c-0.2-2.8-0.3-5.5-0.5-8.3c-0.1-2.3-0.8-5.3-0.3-7.5c-1.9-0.3-3.9-0.5-5.8-0.8c0,0.5-0.1,1-0.1,1.5c1.9,0,3.8,0,5.7,0
				c0-0.3-0.1-0.6-0.1-0.9c-1.9,0.5-3.8,1.1-5.7,1.6c0.1,0.4,0.3,0.7,0.4,1.1c1,2.9,6.3,2.7,5.8-0.8c-0.2-1.3-0.3-2.1-1-3.2
				C129.3,51.3,124.2,54.3,126.4,57.4L126.4,57.4z"/>
		</g>
	</g>
	<g>
		<g>
			<path class="st0" d="M112.6,97.1c-0.7,1.4-1.7,1.9-2,3.5c-0.6,2.5,0.1,5.8,0.2,8.4c0.3,6.2-0.8,11.4-3.1,17.2
				c-0.9,2.3,1.7,4,3.7,3.7c5.8-1.1,11.7-1,16.9-4.2c-1.5-1.1-2.9-2.2-4.4-3.4c0,0.1,0,0.3-0.1,0.4c0.7-0.7,1.4-1.4,2.1-2.1
				c-0.1,0-0.3,0.1-0.4,0.1c0.8,1.8,1.5,3.6,2.3,5.4c2.5-1.3,3-3.5,4.5-5.8c-1.8-0.8-3.6-1.5-5.4-2.3c-0.3,0.7-0.6,1.3-0.9,2
				c1.7,1,3.4,2,5.1,3c2.5-4.1,3.8-7.9,4.3-12.6c0.3-2.8,1-5.8-1.7-7.6c-1.1-0.7-2.7-0.4-3.6,0.5c-2.5,2.5-2.7,7.8-5.3,9.8
				c1.5,0.9,3,1.7,4.5,2.6c-0.1-2.3,0.1-4.3,1-6.5c-1.8-0.5-3.7-1-5.5-1.5c0,0.3-1.3,7.7-1.2,7.7c0.9,0.5,1.7,1,2.6,1.5
				c-1.2-2,1.1-3.8-1.1-3.4c-1.2-0.7-2.4-1.4-3.7-2.1c0.4,1.2-1.4,5.1-2.2,5.7c1.4,0,2.8,0,4.2,0c0.4-0.7,0.8-1.4,1.2-2.1
				c-1.8-0.5-3.7-1-5.5-1.5c-1.5,1.7-1.5,2.6-0.1,2.8c1,0.7,1.9,1.5,2.9,2.2c0-0.1,0-0.2,0-0.3c-1,0-2,0-3,0
				c0.1,0.1,0.2,0.2,0.3,0.2c-0.5-0.9-1-1.7-1.5-2.6c0.1,1.1-0.3,2-1.1,2.9c1,0,2,0,3,0c-0.1,0.8-0.3,1.6-0.4,2.4
				c-0.7-0.7-1.4-1.4-2.1-2.1c-0.3,0.5-0.1,0.5,0.8,0c0.9,0.5,1.7,1,2.6,1.5c0,0.2,0,0.3,0,0.5c-1.4-0.4-2.7-0.7-4.1-1.1
				c2.4,4.1,4.8-2.2,5.9-3.5c-1.7-0.7-3.4-1.4-5.1-2.1c-0.1,0.6-0.2,1.2-0.4,1.9c1-0.3,1.9-0.5,2.9-0.8c0.6,0.2,3.3-4.7,4.1-5.2
				c-1.2-0.2-2.4-0.3-3.6-0.5c-1.7,0.1-1.4,0.1,1-0.1c0.9-0.8,1.6-1.7,2.1-2.7c-0.7-0.7-1.4-1.4-2.1-2.1c-0.6,0.9,0.1,1.3,2.1,1.2
				c-0.9-0.5-1.7-1-2.6-1.5c-0.7-1-3.4,2.1-1.1,2.8c0.2,0.1,2.5-2.8,3.2-2.9c-0.9-0.5-1.7-1-2.6-1.5c-0.5-0.2-0.6,0.1-0.5,0.9
				c1,0.3,1.9,0.5,2.9,0.8c1.4,1.4,0.7-0.5,2.4-1c-1-0.3-1.9-0.5-2.9-0.8c-0.4-1.6-0.6-1.6-0.7-0.1c-0.4,0.8-0.3,1.4,0.5,1.8
				c1,1,2,2,3,3c0.6-0.7,0.9-1.6,1-2.5c-0.7-0.7-1.4-1.4-2.1-2.1c0.2,1.3,0,2.5-0.5,3.6c1.2,0.2,2.4,0.3,3.6,0.5
				c1.8,1.4,1-2.3,2.8-3c-1-0.3-1.9-0.5-2.9-0.8c-0.7,0.8-1.2,1.7-1.6,2.7c1.4,0,2.8,0,4.2,0c1.3,0.2,0.4,0-2.8-0.7
				c1.7,0.7,3.4,1.4,5.1,2.1c0.1-0.8,0.1-1.6,0.2-2.4c-1,0-2,0-3,0c-0.2-0.1-1.5,3.6-1.9,3.6c1,0.3,1.9,0.5,2.9,0.8
				c-0.3-1.6,0.3-3,1.7-4.1c-1.6-0.2-3.1-0.4-4.7-0.6c0-1.8-0.2-1.7-0.8,0.3c1.5-0.3,2.1-1,1.6-2.3c0.7-1.8,0.5-4.6,1.1-6.7
				c0.7-2.6-2.1-4.6-4.4-3.4c0.2,0,0.4,0,0.5,0c0.7,0.7,1.4,1.4,2.1,2.1c0.1-0.7,0.3-1.5,0.4-2.2c-1.9,0-3.8,0-5.7,0
				c0-0.1,0-0.3,0-0.4c1.9,0,3.8,0,5.7,0c-0.4,0.2-0.7,0.4-1.1,0.6c-1.4-1.4-2.7-2.7-4.1-4.1c-0.5,0.5-0.9,1-1.4,1.5
				c1.2,1.6,2.4,3.1,3.6,4.7c-0.7-0.1-1.3-0.1-2-0.2c-0.5-1.1-0.9-2.2-1.4-3.4c-0.4,0.7-0.8,1.4-1.2,2.1c1.1,0.5,2.2,0.9,3.4,1.4
				c0.9,0.4,1.7,0.4,2.3-0.2c-0.9-0.5-1.7-1-2.6-1.5c-0.1-0.2-0.2-0.4-0.3-0.6c1.2,0.2,2.4,0.3,3.6,0.5c0.4,0.1,0.7,0.1,1.1,0.2
				c1.6-2.5-1.6-5.6-4.1-4.1c-0.3,0.2-0.5,0.3-0.8,0.5c1.4,1.4,2.7,2.7,4.1,4.1c0.2-0.3,0.4-0.7,0.6-1c1.8-3.4-3.3-6.4-5.1-3
				c-0.1,0.2-0.3,0.5-0.4,0.7c-1.2,2.1,0.8,5.2,3.4,4.4c-2.2-0.7-2.8-0.5-1.9,0.6c3.2-2.1,0.2-7.3-3-5.1c-5.7,3.8-0.4,13.5,5.5,10.3
				c4.6-2.5,4.7-13.8-2.3-11.4c1.1,1.5,2.2,2.9,3.4,4.4c0.1-0.2,0.3-0.5,0.4-0.7c-1.7-1-3.4-2-5.1-3c-0.2,0.3-0.4,0.7-0.6,1
				c-1.4,2.5,1.5,5.7,4.1,4.1c0.3-0.2,0.5-0.3,0.8-0.5c-1.4-1.4-2.7-2.7-4.1-4.1c-1.3,2.2-2.4,5.1-0.2,7c1,0.9,2.4,1.1,3.6,0.5
				c2.8-1.5,3.6-4.8,2.4-7.5c-0.4-0.9-1.6-1.6-2.6-1.5c-3.7,0.3-9.9,4.9-7.4,9.2c0.6,1,2.2,1.8,3.4,1.4c2.5-1,4.8-3.5,5.3-6.2
				c0.3-1.4-0.2-2.6-1.4-3.4c-1.9-1.3-3.9-0.6-5.2,1.1c-2.1,2.6,0.5,6.3,3.6,4.7c1.7-0.9,2.8-1.9,3.6-3.7c1.2-2.6-1.3-5.6-4.1-4.1
				c-2.3,1.3-2,3.8-1.6,6.1c0.5,3.1,4.9,2.5,5.7,0c0.4-1,0.4-1.8,0-2.8c-1-2.8-4.7-2.8-5.7,0c-0.7,1.8-1,3.5-0.4,5.4
				c0.3,0.9,1.1,1.9,2.1,2.1c1.7,0.3,2.5,0.2,4.1-0.6c-1.5-1.1-2.9-2.2-4.4-3.4c-1.2,4.2-3.5,15.7,3.6,16.6c4.1,0.6,7.1-6.3,5.4-9.4
				c-0.9-1.6-3.4-2-4.7-0.6c-2.2,2.4-4.1,5.6-3.5,9.1c0.4,2.5,2.3,4.8,5,4.1c5.3-1.3,7.7-11.5,3-14.5c-0.9-0.5-2.1-0.6-3,0
				c-2.7,1.7-3.6,4.4-3.2,7.5c0.3,2.3,3.2,4.3,5.1,2.1c2.6-2.9,5-11.9-1.7-11.6c-5.3,0.3-6.7,9-3.9,12.3c1.1,1.3,3,0.9,4.2,0
				c2.5-2,4.5-8.8,1.6-11.1c-0.8-0.6-1.9-1.2-2.9-0.8c-3.5,1.5-9.8,9.6-5.5,13c1,0.7,2.5,1.3,3.6,0.5c2.9-2.2,6.3-10.6,1.2-12.4
				c-4.1-1.5-8.9,4.6-8.6,8.2c0.1,1.8,1.3,2.8,3,3c5,0.6,7.1-8.8,4.4-11.9c-0.7-0.8-2-1.1-2.9-0.8c-4,1.3-8.9,7.2-5,11
				c0.8,0.7,1.9,1.1,2.9,0.8c3.4-0.9,6.1-6.5,4-9.6c-0.6-0.8-1.5-1.5-2.6-1.5c-4.5,0.3-13.2,8-8.3,12.5c4.7,4.3,14.6-4,11.5-9.2
				c-3.5-5.9-11,3.1-8.9,8.1c3.3,7.6,10.5-1.7,9.7-6.7c-0.2-1-1.2-1.8-2.1-2.1c-6.1-2-13.5,9.8-9,14.6c5.1,5.5,13-6.4,8.5-10.3
				c-1-0.9-2.4-1.1-3.6-0.5c-4.1,2.2-8.2,9.9-5.2,14.2c3.7,5.4,7.6-1.1,7.6-5c0-2.5-3.3-4.1-5.1-2.1c-2.3,2.6-8.3,10.5-3,13
				c4.5,2.1,8.5-4.6,6.4-8.3c-0.8-1.5-2.6-1.8-4.1-1.1c-2.6,1.3-4.2,6.1-1.7,8.3c3.3,2.9,6.8-1.2,7.2-4.4c1.1-9.4-13.9-1.3-6.4,4.2
				c0.8,0.6,2.1,0.5,3,0c3.4-1.9,5.9-8.2,2.2-10.8c-0.8-0.6-2.2-0.5-3,0c-2.2,1.4-3.4,4.5-2.7,7c0.4,1.3,1.6,2.2,2.9,2.2
				c4.1,0,5.8-5.4,6.1-8.8c0.2-3.2-4-3.7-5.5-1.5c-2.1,2.8-2.6,6.6-0.2,9.3c1.2,1.3,3,0.9,4.2,0c2.6-2,4.7-8.3,3.7-11.5
				c-0.5-1.6-2-2.4-3.7-2.1c-4.5,0.8-4.1,9.3-2.4,12.1c0.5,0.9,1.5,1.5,2.6,1.5c5.8-0.4,6.8-9.2,7.2-13.7c0.2-2.9-4.3-4.2-5.5-1.5
				c-1.4,3.2-2.1,6-1.9,9.5c0.1,2,2.5,4.1,4.5,2.6c3.6-2.7,3.5-7.7,6.6-10.7c-1.2,0.2-2.4,0.3-3.6,0.5c-1.6-1.1-1.5,4.4-1.6,5.3
				c-0.6,2.5-1.8,4.6-3.1,6.8c-2,3.3,3,6.1,5.1,3c1-1.4,1.1-1.7,1.5-3.4c0.7-3.3-3.6-5.2-5.4-2.3c-0.6,0.9-1.3,3.1-2.3,3.7
				c-2.9,1.6-0.9,6.5,2.3,5.4c0.1,0,0.3-0.1,0.4-0.1c0.9-0.3,1.9-1,2.1-2.1c0-0.1,0-0.3,0.1-0.4c0.4-2.4-2-4.8-4.4-3.4
				c-4.7,2.9-10.2,2.7-15.4,3.6c1.2,1.2,2.4,2.4,3.7,3.7c2-4.9,3.5-10.1,3.4-15.5c0-2.6-0.3-5.2-0.4-7.8c-0.2-3.4-0.1-1.7,1.2-4.4
				C119.4,96.7,114.2,93.7,112.6,97.1L112.6,97.1z"/>
		</g>
	</g>
	<g>
		<g>
			<path class="st0" d="M80.7,94.6c-0.5-0.8-1-1.6-1.3-2.4c-0.3-1.3-0.5-1.5-0.7-0.5c-1,0.3-1.9,0.5-2.9,0.8c0.3,0,0.5,0.1,0.8,0.1
				c3.1,0.6,5.4-3.7,2.3-5.4c-0.5-0.4-1-0.7-1.5-1.1c-1.4,1.4-2.8,2.8-4.2,4.2c3.8,3.1,9,7.7,14.1,8.1c1.6,0.1,3-1.5,3-3
				c0-0.1,0-0.1,0-0.2c0-1.7-1.3-2.8-3-3c0,0-0.1,0-0.1,0c-1.5-0.2-3.1,1.5-3,3c0.1,1.9,0.2,3.9,0.2,5.8c0,0.8,0,1.7-0.1,2.5
				c0.8-1,0.9-1.4,0.1-1.1c-1,0.3-1.9,0.5-2.9,0.8c-0.5-0.1-0.7,0.1-0.7,0.6c-0.4,1.2-0.3,0.7,0.1-1.5c-0.7,0.6-1.4,1.3-2.1,1.9
				c2.2-0.7,3.4-2.1,3.7-4.3c-1,0.3-1.9,0.5-2.9,0.8c-0.2,1-0.3,2-0.4,3c0.9-0.5,1.7-1,2.6-1.5c-0.6-0.5-1.1-0.9-1.7-1.4
				c0.3-1,0.5-1.9,0.8-2.9c1.7,0.6,2.2,0.4,1.5-0.7c-0.3-0.6-0.5-1.3-0.6-2c-0.6-3.3-6.1-2.6-5.8,0.8c0.1,2.1,0.7,5.7-0.4,7.6
				c1.1-0.5,2.2-0.9,3.4-1.4c-0.7-0.1-0.7-6.5-0.7-7.1c-2,0-4,0-6,0c0.3,3.6,0,6.9-1,10.3c1.2-0.7,2.4-1.4,3.7-2.1
				c1.4,0.5,0.5-3.5,0.5-4.1c0-1.6,0.2-3.2,0.4-4.8c-2,0-4,0-6,0c-0.1,2.5-0.6,4.8-1.4,7.1c1.5-0.6,2.9-1.2,4.4-1.8
				c1.3,0.6-0.5-1.6-0.8-2.6c-0.4-1.3-0.6-2.5-0.8-3.9c-0.5-3.5-5.6-2.4-5.8,0.8c-0.1,1.9-0.4,3.4-1,5.2c1.8-0.2,3.6-0.5,5.4-0.7
				c-0.8-1-1.1-9.7-0.1-10.5c-1.2,0.2-2.4,0.3-3.6,0.5c1.3,0.8,1.4,3.8,1.4,4.9c1.7-0.7,3.4-1.4,5.1-2.1c-0.5,0.5-1,1.1-1.4,1.6
				c-0.9-0.5-1.7-1-2.6-1.5c2,3.4,1.3,0.3-0.2,1.8c-0.5,0.6-1.3,0.8-1.8,1.5c-1.7,2-2.4,5.7-3,8.2c1.9,0.3,3.9,0.5,5.8,0.8
				c0-0.5,0-1,0-1.5c-1.9-0.3-3.9-0.5-5.8-0.8c-0.4,8.5,0.9,16.3,6.7,22.9c0.4-1.7,0.9-3.3,1.3-5c-0.2,0-0.4,0.1-0.7,0.1
				c1,0.3,1.9,0.5,2.9,0.8c-0.2-0.2-0.3-0.3-0.5-0.5c-1,1.7-1.9,3.3-2.9,5c1.3,0.5,2.5,1.1,3.7,1.9c0.8-1.8,1.5-3.6,2.3-5.4
				c0,0-0.1,0-0.1,0c0,1.9,0,3.8,0,5.7c1.2,0.3,2.4,0.6,3.6,1c0.3-1.9,0.5-3.9,0.8-5.8c-1.4,0-5.9-0.6-6.9-1.8
				c-0.4-0.5-0.2-2.8-0.2-3.4c-0.1-0.9-0.1-1.7-0.2-2.6c0-1.3-0.2-1.2-0.6,0.5c-1,0.3-1.9,0.5-2.9,0.8c0.4,0.9,0.6,0.8,0.8-0.3
				c0.9-0.5,1.7-1,2.6-1.5c2.1,0-0.5-2.4,0.7-3.6c-1,0.3-1.9,0.5-2.9,0.8c-0.8-0.9-0.9-0.7-0.2,0.6c0.4,1,0.7,2.1,0.8,3.2
				c1-0.7,1.9-1.5,2.9-2.2c-0.6-1-1.3-2-1.9-3c-1.2,0.2-2.4,0.3-3.6,0.5c1,1,1.6,2.2,1.8,3.7c0.7-0.7,1.4-1.4,2.1-2.1
				c-0.3,0.1-0.6,0.2-0.9,0.2c1,0.3,1.9,0.5,2.9,0.8c-1.6-1.2-3.3-4.6-2.2-6.7c-0.9,0.5-1.7,1-2.6,1.5c-1.1,0,1.4,4.7,1.3,4.4
				c0.7,1.9,1,3.8,1.2,5.8c1.7-0.7,3.4-1.4,5.1-2.1c-0.2-0.4-0.3-0.8-0.5-1.1c-2.2-1.2-2.8-1.1-1.9,0.5c-0.1,1,0.9,3.9,0.9,4.9
				c1.7-0.7,3.4-1.4,5.1-2.1c-0.4-1.2-1.1-2.2-2.1-2.9c-1-0.3-1.9-0.5-2.9-0.8c1,1.6,2.6,2.1,4.8,1.4c-1,0.3-1.9,0.5-2.9,0.8
				c-0.3,1.2,0.1,1.5,1.4,1c1.2,0.2,2.4,0.3,3.6,0.5c-0.2-1.3-0.7-0.5-1.6,2.4c1.5-0.9,3-1.7,4.5-2.6c1.1,0.4,1.5-0.4,1.2-2.4
				c-1.7,0-3.4,0-5.1,0c0.9,2,1.2,3.9,1.2,6c1.9-0.3,3.9-0.5,5.8-0.8c-0.7-2.3-0.8-4.4-0.5-6.8c-2,0-4,0-6,0
				c0.1,1.3,0.1,2.6,0.2,3.9c1.9-0.3,3.9-0.5,5.8-0.8c-0.3-1.3-0.4-2.7-0.4-4.1c-0.1-2.7-4.3-4.3-5.5-1.5c-1,1.7-1.1,2.1-0.4,1.2
				c1,0,2,0,3,0c0.5-0.4,1.1-0.8,1.6-1.2c-1.8-0.2-3.6-0.5-5.4-0.7c0.6,1.8,1,3.2,1.1,5.1c0.3,3.8,5.8,3.9,6,0
				c0-1.5,0.2-2.9,0.6-4.3c-1.9,0-3.8,0-5.7,0c0.2,1,0.2,2.1,0.1,3.1c2,0,4,0,6,0c0.1-1.7,0.2-3.3,0.4-5c-2,0-4,0-6,0
				c-0.4,6.3,0.5,12.2,2.8,18c1-1.3,1.9-2.5,2.9-3.8c-1.2,0-2.5,0-3.7-0.1c-1.9-0.5-3.3,0.3-4.2,2.2c-0.3-1-0.5-1.9-0.8-2.9
				c0,0.2-0.1,0.3-0.1,0.5c0.7-0.7,1.4-1.4,2.1-2.1c-0.2,0-0.3,0.1-0.5,0.1c1.1,0.5,2.2,0.9,3.4,1.4c0-0.1,0-0.2,0-0.3
				c-0.5,0.9-1,1.7-1.5,2.6c0.3-0.2,0.6-0.3,0.9-0.5c-1,0-2,0-3,0c0.1,0.3,0.2,0.5,0.3,0.8c1.7-1,3.3-1.9,5-2.9
				c-3,1.5-3.8,2.8-2.1,3.7c0.5,0.4,1,0.8,1.6,1.2c2.5,2,5.3-1.7,4.1-4.1c-0.9-1.7-2.2-2.3-3.5-3.7c-2.4-2.6-2.8-6.2-3-9.6
				c-0.2-3.8-6.2-3.8-6,0c0.2,3.3,0.5,6.7,2,9.7c1.3,2.7,4,4.1,5.3,6.6c1.4-1.4,2.7-2.7,4.1-4.1c-2.1-1.6-4.7-3.7-7.2-1.6
				c-2.1,1.8-1.4,4.5,0.5,6c2.4,1.9,5.5,0.1,5-2.9c-1.2-7.5-11.4-4.5-7.6,2c0.7,1.2,2,1.6,3.4,1.4c0.2,0,0.3-0.1,0.5-0.1
				c1-0.2,1.8-1.2,2.1-2.1c0-0.2,0.1-0.3,0.1-0.5c0.3-0.9,0-2.3-0.8-2.9c-2.8-2.2-7.5-1.8-8.2,2.3c-1.1,6.6,8.1,5.7,11.9,5.8
				c1.8,0,3.6-2,2.9-3.8c-2.2-5.4-3-10.7-2.6-16.5c0.3-3.9-5.5-3.7-6,0c-0.2,1.7-0.3,3.3-0.4,5c-0.1,3.8,5.8,3.8,6,0
				c0.1-1.6-0.1-3.1-0.3-4.7c-0.4-3-5-2.6-5.7,0c-0.5,2-0.7,3.8-0.8,5.9c2,0,4,0,6,0c-0.2-2.3-0.6-4.5-1.3-6.7
				c-0.8-2.3-4.2-3.1-5.4-0.7c-1.4,2.6-2.8,7,0.1,9.1c2.8,2,4.8-0.7,5.9-3.1c-1.8-0.5-3.7-1-5.5-1.5c0.1,1.9,0.3,3.8,0.6,5.7
				c0.6,3.3,6,2.5,5.8-0.8c-0.1-1.3-0.1-2.6-0.2-3.9c-0.2-3.9-5.5-3.7-6,0c-0.4,2.9-0.1,5.6,0.7,8.4c0.9,3.2,5.8,2.6,5.8-0.8
				c0-3.3-0.6-6-2-9c-1-2.2-4.1-1.7-5.1,0c-1.8,2.9-2.7,8.7,1,10.5c1.8,0.9,4.7-0.2,4.5-2.6c-0.4-3.7-2.6-10.7-7.8-8.6
				c-3.7,1.6-3.4,7.9-0.8,10.4c0.9,0.9,2.5,1.2,3.6,0.5c3.8-2.5,1.3-12.3-3.6-12c-6,0.3-5.4,13,1,12.5c6.5-0.5,4.2-12-0.4-13.7
				c-2.5-0.9-4.6,0.8-5.2,3.1c-0.9,3.4,0.5,7.1,2.8,9.6c1.7,1.9,5.2,0.4,5.1-2.1c-0.1-3.7-1.5-13.3-7.3-11.7
				c-5,1.3-3.9,8.7-1.4,11.6c1.6,1.8,5.3,0.5,5.1-2.1c-0.4-4.6-2.2-16.2-8.5-16.2c-1,0-2.1,0.6-2.6,1.5c-2.4,4.6,0.1,16.3,7,14.4
				c0.9-0.3,1.9-1.1,2.1-2.1c0.6-3.6-1.1-8.6-4.5-10.4c-1.1-0.6-2.7-0.5-3.6,0.5c-4.1,4.3-0.2,13.7,6.1,13.1
				c1.3-0.1,2.5-0.8,2.9-2.2c0.9-3.5-0.9-10-4.7-11.1c-1-0.3-2.2,0-2.9,0.8c-3.3,3.5-2.8,13.9,3.5,13.8c1,0,2.1-0.6,2.6-1.5
				c1.7-3.2-1-7.4-4.3-8.4c-1-0.3-2.2,0-2.9,0.8c-2.3,2.5-1.4,9.4-0.1,12.2c1.8,3.9,8.5,5.2,12.3,5.2c3.4,0,4-4.9,0.8-5.8
				c-1.9-0.6-4.8-1.7-6.8-1c-2.8,1-2.9,4.8,0,5.7c0,0,0.1,0,0.1,0c3.3,1.1,5.1-3.7,2.3-5.4c-1.7-1-3.3-1.8-5.1-2.5
				c-3-1.1-4.7,3-2.9,5c1.2,1.3,2.3,1.4,4,1.2c2.4-0.4,2.6-3.5,1.3-5c-4.7-5.3-5.3-11.9-4.9-18.7c0.2-3.3-5.2-4.1-5.8-0.8
				c-0.3,1.2-0.4,1.9-0.2,3.1c0.3,3.2,4.9,4.2,5.8,0.8c0.3-1.1,0.7-2.2,1-3.4c0-0.2,0.4-2.4,0.3-2.3c0.4-0.6,2.1-0.8,2.8-1.6
				c1.8-2.3,1.8-6.3,0.4-8.8c-0.5-0.9-1.5-1.5-2.6-1.5c-5,0.1-5.4,5.4-2.8,8.6c1.7,2.1,5.1,0.3,5.1-2.1c0-3.6-1-8.1-4.4-10.1
				c-1.3-0.7-2.5-0.4-3.6,0.5c-2.4,1.9-2.2,5.7-2.1,8.4c0,2.8-0.4,6.9,1.3,9.3c1.5,2,4.6,1.9,5.4-0.7c0.7-2.3,1.1-4.5,1.2-6.8
				c-1.9,0.3-3.9,0.5-5.8,0.8c0.4,2.9,1.1,8.6,4.3,10c1.8,0.8,3.7,0.2,4.4-1.8c0.9-2.9,1.4-5.7,1.6-8.7c0.2-3.9-5.6-3.7-6,0
				c-0.4,4.3-1.7,12.7,3.5,14.7c1.5,0.6,3.3-0.6,3.7-2.1c1.1-4,1.5-7.8,1.2-11.9c-0.3-3.8-5.7-3.8-6,0c-0.2,3.6,0.3,12.1,5.1,12.8
				c1.3,0.2,2.7-0.1,3.4-1.4c1.7-3,1.5-7.3,1.2-10.6c-1.9,0.3-3.9,0.5-5.8,0.8c0.6,3.1,2.6,7.9,6.7,6.9c3.2-0.8,4.2-4.8,1.4-6.9
				c-6.7-4.8-10.3,10.9-2.4,11.4c1.1,0.1,2-0.6,2.6-1.5c1.8-2.9,1.6-9.2-1.6-11.2c-3.8-2.3-6.4,2.1-6.8,5.3c-0.4,3,0.9,8.9,5,8.7
				c4.2-0.2,4.3-5.9,3.2-8.8c-1.2-3.3-4.9-5.9-7.7-2.6c-2.5,2.9-2.5,8.8,0.2,11.6c7.4,7.5,15.4-9.3,6.4-12.2c-1-0.3-2.2,0-2.9,0.8
				c-3.3,3.7-0.3,11,4.5,12c7.4,1.5,5.7-11,5.4-14.9c-1,1-2,2-3,3c0,0,0.1,0,0.1,0c-1-1-2-2-3-3c0,0.1,0,0.1,0,0.2c1-1,2-2,3-3
				c-1.2-0.1-3.9-2-5-2.7c-1.8-1.1-3.3-2.4-4.9-3.7c-2.9-2.4-6.9,1.4-4.2,4.2c1,1,1.4,1.4,2.7,2c0.8-1.8,1.5-3.6,2.3-5.4
				c-7.5-1.4-4.9,7.2-2.7,10.8C77.5,100.8,82.7,97.8,80.7,94.6L80.7,94.6z"/>
		</g>
	</g>
	<g>
		<g>
			<g>
				<path class="st1" d="M129.5,125.2c-6.1,3.4-13.2,4.4-20.2,4c-0.8,0-0.8,1.1,0,1.2c7.2,0.4,14.4-0.6,20.8-4.1
					C130.8,125.9,130.2,124.8,129.5,125.2L129.5,125.2z"/>
			</g>
		</g>
		<g>
			<g>
				<path class="st1" d="M69.7,125.1c6.3,3.6,13.6,4.7,20.8,4.2c0.8,0,0.8-1.2,0-1.2c-7,0.4-14-0.6-20.2-4.1
					C69.7,123.7,69.1,124.7,69.7,125.1L69.7,125.1z"/>
			</g>
		</g>
		<g>
			<g>
				<g>
					<path class="st1" d="M70.4,124.2c-7.8-8.9-6.1-23.3-5.8-34.3C65,77,66.2,64.3,68.1,51.6c0.1-0.7-1-1.1-1.1-0.3
						c-2.2,14.1-3.4,28.2-3.6,42.4c-0.1,10.4-1.1,22.9,6.2,31.3C70.1,125.6,70.9,124.7,70.4,124.2L70.4,124.2z"/>
				</g>
			</g>
			<g>
				<g>
					<path class="st1" d="M68,52.9c2.9-15.5,16.6-25.6,32.2-24c0.8,0.1,0.8-1.1,0-1.2C84.1,26,69.8,36.7,66.9,52.6
						C66.7,53.4,67.9,53.7,68,52.9L68,52.9z"/>
				</g>
			</g>
			<g>
				<g>
					<path class="st1" d="M81,94.7c-4.5-7.3-5.6-18.3-5.8-26.8c-0.2-9.5,2.7-18.6,7.9-26.5c0.4-0.6-0.6-1.2-1-0.6
						c-5.4,8-8.3,17.4-8.1,27.1c0.2,8.8,1.3,19.8,5.9,27.4C80.4,96,81.4,95.4,81,94.7L81,94.7z"/>
				</g>
			</g>
			<g>
				<g>
					<path class="st1" d="M80.6,45.9c1.1,1.1,2.6,0.8,3.9,0.3c0.7-0.3,0.4-1.4-0.3-1.1c-0.9,0.3-2,0.8-2.8,0
						C80.9,44.5,80,45.4,80.6,45.9L80.6,45.9z"/>
				</g>
			</g>
			<g>
				<g>
					<path class="st1" d="M84.6,46.6c1.5,0.5,3,0.4,4.4-0.3c0.7-0.3,0.1-1.4-0.6-1c-1.1,0.6-2.3,0.6-3.5,0.2
						C84.2,45.2,83.9,46.3,84.6,46.6L84.6,46.6z"/>
				</g>
			</g>
			<g>
				<g>
					<path class="st1" d="M89.2,46.7c0.8-0.1,1.6,0.2,2.4,0.1c0.9-0.2,1.7-0.6,2.6-0.3c0.7,0.2,1.1-1,0.3-1.1
						c-0.9-0.2-1.7,0-2.5,0.2c-0.6,0.1-1.1,0.2-1.7,0.1c-0.5-0.1-0.9-0.1-1.4,0C88.2,45.7,88.5,46.8,89.2,46.7L89.2,46.7z"/>
				</g>
			</g>
			<g>
				<g>
					<path class="st1" d="M94.1,46.1c1.4,1.8,3.4-0.3,5-0.1c0.8,0.1,0.8-1.1,0-1.2c-0.8-0.1-1.4,0.2-2.1,0.4c-0.7,0.3-1.6,0.7-2.1,0
						C94.5,44.7,93.6,45.5,94.1,46.1L94.1,46.1z"/>
				</g>
			</g>
			<g>
				<g>
					<path class="st1" d="M98.7,45.9c1.6,0.7,3.5,1.4,5.1,0.2c0.6-0.4,0-1.5-0.6-1c-1.2,0.9-2.7,0.3-3.9-0.2
						C98.6,44.6,98,45.6,98.7,45.9L98.7,45.9z"/>
				</g>
			</g>
			<g>
				<g>
					<path class="st1" d="M103.3,45.7c0.5,0.7,1.2,1,2,1c1.1-0.1,2.4-1.3,3.5-0.7c0.7,0.4,1.3-0.6,0.6-1c-0.7-0.4-1.4-0.4-2.1-0.2
						c-0.8,0.2-2.3,1.3-2.9,0.3C103.9,44.5,102.9,45.1,103.3,45.7L103.3,45.7z"/>
				</g>
			</g>
			<g>
				<g>
					<path class="st1" d="M109.3,46.2c1.5,0.8,3.4,0.1,4-1.6c0.3-0.7-0.9-1-1.1-0.3c-0.3,0.9-1.5,1.3-2.3,0.8
						C109.3,44.9,108.7,45.9,109.3,46.2L109.3,46.2z"/>
				</g>
			</g>
			<g>
				<g>
					<path class="st1" d="M132.6,52.6c-3-16-17.2-26.6-33.4-24.8c-0.8,0.1-0.8,1.3,0,1.2c15.6-1.7,29.4,8.5,32.2,24
						C131.6,53.7,132.7,53.4,132.6,52.6L132.6,52.6z"/>
				</g>
			</g>
			<g>
				<g>
					<path class="st1" d="M130,126.3c7.3-8.4,6.4-20.8,6.2-31.3c-0.2-14.2-1.5-28.4-3.6-42.4c-0.1-0.8-1.3-0.4-1.1,0.3
						c2,12.7,3.2,25.4,3.5,38.3c0.3,11,1.9,25.4-5.8,34.3C128.7,126.1,129.5,126.9,130,126.3L130,126.3z"/>
				</g>
			</g>
			<g>
				<g>
					<path class="st1" d="M121.5,95.2c4.7-7.6,5.7-18.6,5.9-27.4c0.2-9.7-2.7-19-8.1-27.1c-0.4-0.6-1.5,0-1,0.6
						c5.3,7.9,8.2,16.9,7.9,26.5c-0.2,8.5-1.2,19.4-5.8,26.8C120,95.2,121,95.8,121.5,95.2L121.5,95.2z"/>
				</g>
			</g>
			<g>
				<g>
					<path class="st1" d="M112.9,45.9c0.8,0,0.8-1.2,0-1.2C112.1,44.7,112.1,45.9,112.9,45.9L112.9,45.9z"/>
				</g>
			</g>
			<g>
				<g>
					<path class="st1" d="M112.5,45.5c1.2,1.4,3.7,0.7,5.2,0.6c0.8-0.1,0.8-1.2,0-1.2c-0.8,0.1-1.7,0.1-2.5,0.2
						c-0.7,0-1.4,0.1-1.9-0.4C112.8,44.1,112,44.9,112.5,45.5L112.5,45.5z"/>
				</g>
			</g>
			<g>
				<g>
					<path class="st1" d="M117.4,44.4c-0.2,0.7,0.2,1.4,0.9,1.8c0.9,0.4,1.9-0.1,2.7,0.3c0.7,0.3,1.3-0.7,0.6-1
						c-0.5-0.2-0.9-0.3-1.5-0.3c-0.3,0-1.8,0.2-1.6-0.4C118.8,43.9,117.6,43.6,117.4,44.4L117.4,44.4z"/>
				</g>
			</g>
			<g>
				<g>
					<path class="st1" d="M75.8,84.7c2.3,1.8,4.4,3.8,6.8,5.5c2.2,1.6,5,2.4,7.5,3.4c0.7,0.3,1-0.9,0.3-1.1c-2.4-1-5.1-1.8-7.2-3.3
						c-2.3-1.6-4.4-3.6-6.6-5.3C76,83.4,75.2,84.2,75.8,84.7L75.8,84.7z"/>
				</g>
			</g>
			<g>
				<g>
					<path class="st1" d="M89.6,93.4c0.2,3.7,0.2,7.5,0.1,11.2c0,0.8,1.2,0.8,1.2,0c0.1-3.8,0.1-7.5-0.1-11.2
						C90.8,92.6,89.6,92.6,89.6,93.4L89.6,93.4z"/>
				</g>
			</g>
			<g>
				<g>
					<path class="st1" d="M111,103.7c-0.2-0.7,0.3-1.6,0.5-2.3c0.1-0.5,0.1-1.1,0.1-1.6c0-1.9-0.3-3.8,0-5.8c0.1-0.7-1-1.1-1.1-0.3
						c-0.3,2.1,0,4,0,6.1c0,1-0.2,1.7-0.5,2.7c-0.2,0.6-0.2,1,0,1.6C110.1,104.8,111.2,104.5,111,103.7L111,103.7z"/>
				</g>
			</g>
			<g>
				<g>
					<path class="st1" d="M124.6,83.1c-1.1,2.7-4.3,4.4-6.7,5.9c-2.4,1.5-5,2.8-7.6,3.9c-0.7,0.3-0.4,1.4,0.3,1.1
						c3.4-1.4,6.6-3.1,9.6-5.2c2.1-1.5,4.5-3,5.5-5.5C126,82.7,124.9,82.4,124.6,83.1L124.6,83.1z"/>
				</g>
			</g>
			<g>
				<g>
					<path class="st1" d="M109.7,129.3c-2.7-0.4-0.5-5-0.1-6.8c0.4-1.8,0.8-3.7,1-5.5c0.6-4.3,0.6-8.7,0.3-13
						c-0.1-0.8-1.2-0.8-1.2,0c0.3,4.9,0.2,9.8-0.6,14.6c-0.6,3.7-2.1,7.3-2.3,11.1c0,0.4,0.3,0.6,0.6,0.6c0.7,0.1,1.4,0.2,2.2,0.3
						C110.5,130.6,110.5,129.4,109.7,129.3L109.7,129.3z"/>
				</g>
			</g>
			<g>
				<g>
					<path class="st1" d="M91.1,129.5c0.7-0.1,1.4-0.2,2.2-0.3c0.3,0,0.6-0.2,0.6-0.6c-0.2-3.8-1.7-7.4-2.3-11.1
						c-0.8-4.9-0.9-9.7-0.6-14.6c0.1-0.8-1.1-0.8-1.2,0c-0.3,4.4-0.3,8.7,0.3,13c0.3,1.9,0.6,3.7,1,5.5c0.4,1.8,2.7,6.5-0.1,6.8
						C90.3,128.4,90.3,129.6,91.1,129.5L91.1,129.5z"/>
				</g>
			</g>
		</g>
	</g>
	<g>
		<g>
			<path class="st0" d="M79.1,43.5c3.8,0,3.8-6,0-6C75.3,37.5,75.3,43.5,79.1,43.5L79.1,43.5z"/>
		</g>
	</g>
	<g>
		<g>
			<path class="st0" d="M89,36c0.3,0.6,0.6,1.2,1,1.8c0,0.8-0.3,1.3-0.9,1.6c0.2-0.1-1,0.5-0.9,0.2c0,0,0.5,0.1,0.5,0.1
				c1.4,0.3-1.7-2-0.9-3c0.7-0.8-0.3,0.3-0.4,0.1c-0.1-0.1,0.7-0.1,0.2-0.1c-0.2,0-0.1,0,0.1,0c0.2,0,0.3,0.1,0.5,0.2
				c0.2,0.1,0.3,0.3,0.4,0.5c0.2,0.3,0.3,0.7,0.2,1c0,0.2,0,0.2,0,0.1c0-0.2,0-0.1,0,0c-0.1,0.3-0.3,0.6-0.6,0.7
				c-0.2,0.1-0.4,0.1-0.6,0.1c0.5,0,0,0-0.2-0.1c-0.6-0.3-0.6-0.9-0.1-1.8c-0.5-1.1-0.4-1.7,0.4-1.9c-0.1,0.1-0.3,0.1,0,0
				c-0.3,0-0.4,0-0.2,0c0.5,0.1,0.9,0.4,1.2,0.9c0.1,0.5,0.3,1,0.4,1.5c0-0.1,0-0.1,0-0.2c-0.1,0.5-0.3,1-0.4,1.5
				c-0.1,0.2-0.3,0.4-0.5,0.5c0.1-0.1,0.3-0.2,0.4-0.3c-0.5,0.3,0.3,0,0.5-0.1c1.5-0.2,2.5-2.3,2.1-3.7c-0.5-1.7-2-2.3-3.7-2.1
				c-1.9,0.3-4.1,1.7-4.4,3.7c-0.4,2.7,2.2,4.2,4.7,4.1c2.3-0.2,4.7-1.6,4.5-4.2c-0.2-2.4-2.5-4-4.8-3.9c-2.2,0.1-4.1,1.6-4.6,3.7
				c-0.5,2.3,0.8,4.6,3.1,5.3c1.8,0.6,3.8,0,5.2-1c0.9-0.7,1.7-1.5,2-2.6c0.3-1.3,0-2.7-0.9-3.7c-1.6-1.7-4.9-2-6.7-0.6
				c-2.2,1.7-2.3,5.2,0.3,6.6c1.4,0.7,3.3,0.4,4.1-1.1C90.8,38.7,90.5,36.8,89,36L89,36z"/>
		</g>
	</g>
	<g>
		<g>
			<path class="st2" d="M89.2,123c-1.8-4-2.7-8.1-3.1-12.4c-0.3-3.3-1.1-8.6,0.4-11.6c0.3-0.7-0.7-1.3-1-0.6
				c-1.8,3.5-0.9,8.4-0.6,12.2c0.4,4.5,1.4,8.9,3.3,13C88.5,124.3,89.6,123.7,89.2,123L89.2,123z"/>
		</g>
	</g>
	<g>
		<g>
			<path class="st2" d="M75.6,122c-3.8-4-6.9-8.8-8-14.3c-1.1-5.4-0.2-11.1,0.2-16.5c0.1-0.8-1.1-0.8-1.2,0
				c-0.4,6.1-1.4,12.4,0.2,18.4c1.4,5.1,4.3,9.4,7.9,13.3C75.3,123.4,76.1,122.5,75.6,122L75.6,122z"/>
		</g>
	</g>
	<g>
		<g>
			<path class="st2" d="M79.1,100.1c-4.5-6.6-6-14.3-7.3-22.1c-0.1-0.8-1.3-0.4-1.1,0.3c1.4,7.9,2.9,15.7,7.4,22.4
				C78.5,101.3,79.6,100.7,79.1,100.1L79.1,100.1z"/>
		</g>
	</g>
	<g>
		<g>
			<path class="st2" d="M70.7,56.2c-0.8-1.6,1.5-5.3,2.2-6.7c0.9-1.8,2-3.5,3.1-5.2c0.4-0.6-0.6-1.2-1-0.6c-1.7,2.4-3.1,4.9-4.2,7.6
				c-0.7,1.6-2,3.8-1.1,5.5C70,57.5,71,56.9,70.7,56.2L70.7,56.2z"/>
		</g>
	</g>
	<g>
		<g>
			<path class="st2" d="M112.8,127c2.5-8.3,3.1-16.7,2-25.3c-0.1-0.7-1.3-0.8-1.2,0c1.1,8.5,0.5,16.8-1.9,25
				C111.4,127.4,112.6,127.7,112.8,127L112.8,127z"/>
		</g>
	</g>
	<g>
		<g>
			<path class="st2" d="M124.8,124.6c6.1-6.6,6.5-18.7,7.6-27.1c0.1-0.8-1.1-0.8-1.2,0c-1,7.9-1.6,20.1-7.2,26.3
				C123.4,124.3,124.3,125.2,124.8,124.6L124.8,124.6z"/>
		</g>
	</g>
	<g>
		<g>
			<path class="st2" d="M123.3,97.7c2.9-3.9,5.1-8.2,6.6-12.9c0.2-0.7-0.9-1-1.1-0.3c-1.4,4.6-3.6,8.8-6.5,12.6
				C121.8,97.7,122.8,98.3,123.3,97.7L123.3,97.7z"/>
		</g>
	</g>
	<g>
		<g>
			<path class="st2" d="M121.3,39.1c3.1,3.1,5.2,6.9,6.2,11.2c0.2,0.7,1.3,0.4,1.1-0.3c-1-4.5-3.2-8.5-6.5-11.8
				C121.6,37.7,120.7,38.6,121.3,39.1L121.3,39.1z"/>
		</g>
	</g>
	<g>
		<g>
			<path class="st2" d="M87.2,34.6c1-0.4,2-0.7,3-0.9c0.8-0.1,0.4-1.3-0.3-1.1c-1,0.2-2,0.5-3,0.9C86.2,33.8,86.5,34.9,87.2,34.6
				L87.2,34.6z"/>
		</g>
	</g>
	<g>
		<g>
			<path class="st2" d="M103.5,32c2.2-0.2,4.3,0.5,5.7,2.2c0.5,0.6,1.3-0.3,0.8-0.8c-1.6-1.9-4.1-2.9-6.6-2.6
				C102.8,30.9,102.8,32.1,103.5,32L103.5,32z"/>
		</g>
	</g>
</g>
</svg>
