<?xml version="1.0" encoding="utf-8"?>
<!-- Generator: Adobe Illustrator 21.0.2, SVG Export Plug-In . SVG Version: 6.00 Build 0)  -->
<svg version="1.1" id="Layer_1" xmlns="http://www.w3.org/2000/svg" xmlns:xlink="http://www.w3.org/1999/xlink" x="0px" y="0px"
	 viewBox="0 0 200 600" style="enable-background:new 0 0 200 600;" xml:space="preserve">
<style type="text/css">
	.st0{fill:#603016;}
	.st1{fill:#100D0C;}
	.st2{fill:#613719;}
</style>
<g>
	<g>
		<g>
			<path class="st0" d="M72,101.5c0.1-0.7,0-1.3-0.1-2c-0.7,0.4-1.3,0.8-2,1.2c0.2,0.2,0.3,0.4,0.5,0.6c0.9,1,2.2-0.1,2-1.2
				c-0.2-1.1-0.5-2.2-1-3.3c-0.2-0.6-0.8-1-1.5-0.8c-0.6,0.1-1.1,0.9-0.8,1.5c0.4,1.1,0.8,2.1,1,3.3c0.7-0.4,1.3-0.8,2-1.2
				c-0.2-0.2-0.3-0.4-0.5-0.6c-0.9-0.9-2.2,0.1-2,1.2c0.1,0.5,0.1,0.9,0,1.3C69.4,103.1,71.8,103,72,101.5L72,101.5z"/>
		</g>
	</g>
	<g>
		<g>
			<path class="st0" d="M68.3,60.3c-0.1-1.4-0.2-2.8-0.3-4.2c-0.1-1.5-2.5-1.5-2.4,0c0.1,1.4,0.2,2.8,0.3,4.2
				C66,61.9,68.4,61.9,68.3,60.3L68.3,60.3z"/>
		</g>
	</g>
	<g>
		<g>
			<path class="st0" d="M84.3,125.5c0,0.2,0,0.4,0,0.6c0.6-0.3,1.2-0.7,1.8-1c-0.1-0.1-0.3-0.2-0.4-0.3c-0.5-0.4-1.3-0.1-1.6,0.4
				c-0.3,0.6-0.1,1.3,0.4,1.6c0.1,0.1,0.3,0.2,0.4,0.3c0.8,0.5,1.8-0.2,1.8-1c0-0.2,0-0.4,0-0.6c0-0.6-0.6-1.2-1.2-1.2
				C84.8,124.3,84.3,124.8,84.3,125.5L84.3,125.5z"/>
		</g>
	</g>
	<g>
		<g>
			<path class="st0" d="M86.8,113.5c0.5,2.5,1,4.9,1.7,7.3c0.4,1.5,2.7,0.9,2.3-0.6c-0.6-2.4-1.2-4.9-1.7-7.3
				C88.9,111.3,86.5,112,86.8,113.5L86.8,113.5z"/>
		</g>
	</g>
	<g>
		<g>
			<path class="st0" d="M122.7,99c0-0.3,0-0.6,0-0.9c-0.2,0.3-0.4,0.7-0.6,1c0,0,0.1,0,0.1-0.1c-0.2,0.1-0.4,0.1-0.6,0.2
				c0,0-0.1,0-0.1,0c-0.2-0.1-0.4-0.2-0.5-0.3c0.1-0.7,0-1-0.1-0.7c0,0.1-0.1,0.1-0.1,0.2c0.7,0.1,1.5,0.2,2.2,0.3
				c0-0.1-0.1-0.3-0.1-0.4c-0.7,0.3-1.5,0.6-2.2,0.9c0-0.1,0-0.2,0-0.3c0.2-0.2,0.2-0.3,0-0.1c-0.5,0.4-0.4,1.3,0,1.7
				c0.5,0.5,1.2,0.4,1.7,0c0.7-0.6,0.8-1.7,0.4-2.4c-0.7-1.2-2.4-0.4-2.2,0.9c0,0.1,0.1,0.3,0.1,0.4c0.2,1.1,1.7,1.1,2.2,0.3
				c0.4-0.6,0.6-1.4,0.2-2.1c-0.5-0.7-1.3-0.9-2.1-0.6c-0.4,0.2-0.6,0.6-0.6,1c0,0.3,0,0.6,0,0.9C120.3,100.5,122.7,100.5,122.7,99
				L122.7,99z"/>
		</g>
	</g>
	<g>
		<g>
			<path class="st0" d="M121.9,127.4c1.4,0.5,2.8,0.3,4-0.4c1.4-0.7,0.2-2.8-1.2-2.1c-0.7,0.4-1.4,0.4-2.2,0.1
				C121,124.6,120.4,126.9,121.9,127.4L121.9,127.4z"/>
		</g>
	</g>
	<g>
		<g>
			<path class="st0" d="M135.1,98c0-3.4-0.3-6.9-0.8-10.3c-0.3-1.6-0.7-3.3-0.9-4.9c-0.3-2.1,0.1-4.2-0.1-6.3
				c-0.7,0.3-1.4,0.6-2,0.8c1.9,1.9,1.1,7.4,1.6,10.1c0.2,1.3,2.5,1,2.4-0.3c-0.4-3.9-0.9-7.8-1.7-11.7c-0.3-1.5-2.6-0.9-2.3,0.6
				c0.7,3.7,1.3,7.3,1.6,11.1c0.8-0.1,1.6-0.2,2.4-0.3c-0.7-3.7,0.7-8.3-2.2-11.2c-0.7-0.7-2.2-0.2-2,0.8c0.3,3-0.1,5.5,0.5,8.5
				c0.8,4.3,1.2,8.5,1.3,12.9C132.7,99.5,135.1,99.5,135.1,98L135.1,98z"/>
		</g>
	</g>
	<g>
		<g>
			<path class="st0" d="M133.5,78C133.5,78,133.5,78,133.5,78c-0.1-0.8-0.2-1.6-0.3-2.4c0.1,0,0.1,0,0.2,0c0.3,0.1,0.6,0.2,0.8,0.4
				c0,0,0,0,0-0.1c0.1,0.2,0.2,0.4,0.3,0.5c-0.1-0.4-0.1-0.7-0.2-1.1c-0.1-0.6-0.9-1-1.5-0.8c-0.7,0.2-1,0.8-0.8,1.5
				c0.1,0.5,0.1,1.1,0.4,1.5c0.3,0.4,0.9,0.6,1.4,0.5c1.3-0.4,1.1-2.3-0.3-2.4c0,0,0,0,0,0C131.9,75.6,131.9,78,133.5,78L133.5,78z"
				/>
		</g>
	</g>
	<g>
		<g>
			<path class="st0" d="M133.3,68.7c-0.7-4.7-1.4-9.3-2.2-13.9c-0.8,0.2-1.5,0.4-2.3,0.6c0.9,2.9,1.5,5.8,1.6,8.8
				c0.1,1.5,2.5,1.5,2.4,0c-0.1-3.2-0.7-6.3-1.7-9.4c-0.5-1.5-2.6-0.9-2.3,0.6c0.8,4.6,1.6,9.3,2.2,13.9
				C131.2,70.8,133.5,70.2,133.3,68.7L133.3,68.7z"/>
		</g>
	</g>
	<g>
		<g>
			<path class="st0" d="M83,43.1c0.1,1.2,0.7,2.2,1.9,2.6c1.2,0.3,2.8-0.2,4-0.4c1.5-0.3,0.9-2.6-0.6-2.3c-0.4,0.1-2.8,0.8-2.8,0.2
				C85.3,41.6,82.9,41.6,83,43.1L83,43.1z"/>
		</g>
	</g>
	<g>
		<g>
			<g>
				<path class="st0" d="M98.2,44.3C98.4,44.3,98.4,44.3,98.2,44.3C98.6,44.3,98.5,44.3,98.2,44.3c-0.9-0.6,0.2-2.5,1.4-1.4
					c-0.6-0.5-1.5-0.6-2.1,0c-0.5,0.5-0.6,1.6,0,2.1c1.3,1.1,3.3,0.3,3.3-1.5c0-0.8-0.5-1.5-1.1-1.9c-0.7-0.4-1.6-0.4-2.4-0.2
					s-1.2,1.1-1,1.8C96.6,44.1,97.4,44.4,98.2,44.3L98.2,44.3z"/>
			</g>
		</g>
		<g>
			<g>
				<path class="st0" d="M76.6,121.8c-0.6,0-1.2,0-1.8,0c0,1,0,2,0,3c2.3,0,4.4,0.3,6.5,1c0-1,0-1.9,0-2.9c-3.2,0.5-6.3,0.3-9.5-0.5
					c-1.9-0.4-2.5,2.2-0.8,2.9c3,1.2,8.4,3.7,11.8,2.4c0.9-0.3,1.3-0.8,1.5-1.7c0.1-0.3-0.2-1.1-0.1-1.2c-0.2-0.5-0.1-0.4,0.2,0.5
					c0.8,0,1.6,0,2.4-0.1c1.7,0,2-2.5,0.4-2.9c-1-0.3-2-0.6-3-1c-0.3,1-0.5,1.9-0.8,2.9c1.4,0.2,2.8,0.5,4.2,1
					c0.1-1,0.3-1.9,0.4-2.9c-2.3-0.1-4.3-0.6-6.4-1.6c-0.4,0.9-0.8,1.8-1.1,2.7l0.1,0.1c0.4-0.8,0.7-1.7,1.1-2.5
					c-2.2,0.1-4.3-0.2-6.4-0.9c-1-0.3-2.2,0.8-1.8,1.8c0.1,0.3,0.2,0.5,0.3,0.8c0.7-0.6,1.5-1.1,2.2-1.7c-0.7-0.3-1.4-0.7-2-1.2
					c-1.4-0.9-3.1,1.2-1.8,2.3c0.2,0.2,0.4,0.3,0.6,0.5c0.7,0.7,1.8,0.5,2.3-0.3c0.1-0.2,0.3-0.4,0.4-0.6c1.1-1.6-1.5-3.1-2.6-1.5
					c-0.1,0.2-0.3,0.4-0.4,0.6c0.8-0.1,1.6-0.2,2.3-0.3c-0.2-0.2-0.4-0.3-0.6-0.5c-0.6,0.8-1.2,1.6-1.8,2.3c0.6,0.5,1.3,0.9,2,1.2
					C75.5,124,77.1,123.1,76.6,121.8c-0.1-0.3-0.2-0.5-0.3-0.8c-0.6,0.6-1.2,1.2-1.8,1.8c2.4,0.8,4.7,1.1,7.2,1
					c1.4,0,1.9-1.6,1.1-2.5c-0.4-0.5-0.8-0.7-1.4-0.9c-1.6-0.5-2.7,2-1.1,2.7c2.5,1.2,5.1,1.8,7.9,2c1.8,0.1,1.9-2.4,0.4-2.9
					c-1.4-0.5-2.7-0.8-4.2-1c-1.9-0.3-2.6,2.1-0.8,2.9c1,0.4,1.9,0.7,3,1c0.1-1,0.3-1.9,0.4-2.9c-1.4,0-3.8-0.5-5,0.6
					c-1.1,0.9-0.3,2-0.5,3.1c0.2-0.4,0.5-0.9,0.7-1.3c-1,0.7-3.9-0.2-5-0.5c-1.8-0.5-3.5-1.1-5.1-1.8c-0.3,1-0.5,1.9-0.8,2.9
					c3.7,0.9,7.3,1,11.1,0.5c1.6-0.2,1.3-2.5,0-2.9c-2.4-0.8-4.7-1.1-7.3-1.1c-1.9,0-1.9,3,0,3c0.6,0,1.2,0,1.8,0
					C78.5,124.8,78.5,121.8,76.6,121.8L76.6,121.8z"/>
			</g>
		</g>
		<g>
			<g>
				<path class="st0" d="M124.1,92.1c0.3-0.8,0.5-1.6,0.5-2.4c0.1-1.5-2-1.9-2.8-0.8c-0.6,1-1.3,1.8-2.2,2.4
					c0.8,0.4,1.7,0.7,2.5,1.1c0-1,0.6-2.1,1.2-2.9c-0.2,0.1-0.4,0.3-0.7,0.4h0.1c-0.5-0.1-1-0.3-1.4-0.4c0,0,0,0,0.1,0.1
					c-0.1-0.4-0.3-0.7-0.4-1.1v0.1c0.2-0.4,0.5-0.9,0.7-1.3c0,0,0,0-0.1,0c-1.7,1-0.2,3.5,1.5,2.6c0,0,0,0,0.1,0
					c0.4-0.3,0.8-0.8,0.7-1.3c-0.1-0.9-0.6-1.6-1.6-1.6c-0.9,0-1.4,0.7-1.8,1.3c-0.8,1.3-1.4,2.6-1.5,4.1c0,1.4,1.6,1.8,2.5,1.1
					c1.1-0.8,2-1.9,2.7-3.1c-0.9-0.3-1.8-0.5-2.8-0.8c0,0.6-0.2,1.1-0.4,1.6c-0.3,0.7,0.3,1.6,1,1.8
					C123.1,93.3,123.8,92.8,124.1,92.1L124.1,92.1z"/>
			</g>
		</g>
		<g>
			<g>
				<path class="st0" d="M124.2,100.3c-0.3,0.1-0.6,0.2-1,0.2c0.6,0.5,1.3,1,1.9,1.4c0.2-3.8,1.3-7,3.3-10.2
					c-0.9-0.3-1.8-0.5-2.8-0.8c-0.4,2.7-1.3,4.9-2.8,7.2c0.9,0.1,1.8,0.2,2.7,0.4c-0.5-2.6,1.2-6.1,2.1-8.5c0.6-1.6-2-2.7-2.7-1.1
					c-1.2,2.7-2.5,5.2-4,7.8c0.9,0.3,1.8,0.5,2.8,0.8c0.3-2.4,1-4.3,2.3-6.3c-0.9-0.4-1.8-0.8-2.7-1.1c-0.8,2.4-1.7,4.9-2.5,7.3
					c1,0.3,1.9,0.5,2.9,0.8c0.4-2.7,1.1-5,2.4-7.4c-0.9-0.5-1.7-1-2.6-1.5c-0.4,1-0.9,1.9-1.3,2.9c0.9,0.4,1.8,0.8,2.7,1.1
					c0.5-0.8,0.9-1.5,1.4-2.3c-0.8-0.4-1.7-0.7-2.5-1.1c-0.4,6.2-1.7,12.1-3.9,17.8c1,0.1,1.9,0.3,2.9,0.4c0-2.9,0.4-5.7,1.2-8.5
					c0.5-1.9-2.3-2.6-2.9-0.8c-0.6,1.9-2.4,11.4-4.2,12.2c0.7,0.3,1.5,0.6,2.2,0.9c-0.9-2.9,1.1-7.2,2.1-10c-1-0.3-1.9-0.5-2.9-0.8
					c-0.7,3.4-1.6,6.8-2.6,10.1c1,0.1,1.9,0.3,2.9,0.4c-0.3-2.8-0.5-5.5-0.6-8.3c0-1.7-2.5-2-2.9-0.4c-0.7,2.4-1.2,4.7-1.6,7.2
					c0.9-0.1,1.8-0.2,2.7-0.4c-1.2-2.3-0.8-4-2.9-5.5c-0.6-0.4-1.7-0.1-2,0.5c-1.9,4-1.5,7.9-0.9,12.2c0.2,1.4,2.6,1.4,2.9,0
					c0.5-2.6,0.9-5.3,1.4-7.9c-1-0.1-1.9-0.3-2.9-0.4c0.1,2.2,0,4.4-0.1,6.6c-0.1,1.9,2.9,1.9,3,0s0.3-3.7,0.6-5.5
					c-1-0.1-1.9-0.3-2.9-0.4c-0.2,2.9-0.1,5.8,0,8.7c0.1,1.9,2.8,1.9,3,0c0.2-2.9,0.7-5.7,1.4-8.5c-1-0.1-1.9-0.3-2.9-0.4
					c0,2.9,0.2,5.8,0.4,8.7c0.2,1.9,2.8,1.9,3,0c0.2-2.5,0.5-4.9,1-7.4c-1-0.1-1.9-0.3-2.9-0.4c0.2,2.3,0.3,4.5,0.3,6.8c1,0,2,0,3,0
					c-0.1-2.2,0.2-4.2,0.9-6.3c-1-0.1-1.9-0.3-2.9-0.4c0.3,2.3,0.6,4.7,0.9,7c0.2,1.5,2.6,2.2,2.9,0.4c0.5-2.7,1-5.4,1.5-8.1
					c-1-0.1-1.9-0.3-2.9-0.4c0,3.2,0.1,6.4,0.1,9.7c0,1.9,2.9,1.9,3,0c0.2-3.9,0.5-7.6,1.8-11.3c-1-0.1-1.9-0.3-2.9-0.4
					c-0.2,4.1-0.3,8.1-0.5,12.2c-0.1,1.9,2.8,1.9,3,0c0.3-4.1,1-8,2.2-12c-1-0.1-1.9-0.3-2.9-0.4c-0.2,3.7-0.3,7.5-0.5,11.2
					c1,0,2,0,3,0c0.1-3.8,0.8-7.4,2.2-11c-1-0.1-1.9-0.3-2.9-0.4c-0.2,3.9-0.4,7.9-0.6,11.8c-0.1,1.9,2.8,1.9,3,0
					c0.2-3.6,0.9-7.1,1.8-10.5c-1-0.1-1.9-0.3-2.9-0.4c0.1,3.8,0,7.6-0.5,11.4c1,0,2,0,3,0c0-3.6,0.5-6.8,1.7-10.2
					c-1-0.1-1.9-0.3-2.9-0.4c0,3.5-0.2,7-0.6,10.5c-0.2,1.9,2.7,1.9,3,0c0.3-2.8,1-5.4,1.9-8c-1-0.1-1.9-0.3-2.9-0.4
					c-0.2,3-0.5,6-0.7,9c-0.1,1.9,2.8,1.9,3,0c0.2-2.6,0.7-4.3,1.7-6.6c-1-0.1-1.9-0.3-2.9-0.4c-0.2,2.1-0.3,4.3-0.4,6.4
					c0,1.7,2.5,2,2.9,0.4c0.1-0.3,0.2-0.7,0.3-1c-1,0-1.9,0-2.9,0c0.1,0.4,0.2,0.9,0.2,1.3c0.3,1.5,2.5,1.3,2.9,0
					c0.7-2.4,1.4-4.8,2.1-7.2c-1-0.1-1.9-0.3-2.9-0.4c-0.2,2.3-0.9,4.1-2,6.1c0.9,0.4,1.8,0.8,2.7,1.1c1.9-6.6,5-14.8,1.8-21.5
					c-0.6-1.3-2.3-0.7-2.7,0.4c-1.3,3.6-1.3,7.6-2.8,11.1c0.9,0.1,1.8,0.2,2.7,0.4c-0.9-3.6-1.6-7.3-2-11c-1,0.1-1.9,0.3-2.9,0.4
					c0.6,3,0.8,5.8,0.7,8.8c1-0.1,1.9-0.3,2.9-0.4c-1-3.9-1.4-7.7-1.3-11.6c-1,0-2,0-3,0c0.5,4.2,0.2,8.1-0.9,12.2
					c1,0.1,1.9,0.3,2.9,0.4c-0.4-4.7-0.1-9.1,1-13.7c-1,0-1.9,0-2.9,0c0.6,4.6,0.9,9.1,0.9,13.7c0,2,2.8,1.9,3,0
					c0.6-5.6,0.3-11.2,0.2-16.8c-1,0.1-1.9,0.3-2.9,0.4c1.5,4.1,1.8,8.2,1.6,12.5c-0.1,1.7-0.7,4.1,0.8,5.3c0.8,0.6,2.3,0.6,2.5-0.7
					c0.6-4.5,0.9-8.9,0.9-13.4c-1,0-2,0-3,0c0.2,4.4,0.4,8.8,0.6,13.3c1-0.1,1.9-0.3,2.9-0.4c-0.7-2.6-1-5.1-0.8-7.8
					c-1,0.1-1.9,0.3-2.9,0.4c1.5,5.2-0.2,8.3-2.9,12.4c-3.3,5-7.4,4.5-12.5,6.5c0.6,0.5,1.3,1,1.9,1.4c0-0.2-0.1-0.5-0.1-0.7
					c-0.9,0.3-1.8,0.5-2.8,0.8c0.6-0.6,1.2-1.2,1.8-1.7c-0.9-0.3-1.8-0.5-2.8-0.8c-0.3,0.7-0.6,1.4-0.9,2.1c0.8,0.4,1.7,0.7,2.5,1.1
					c-0.1-1.3,0.1-2.6,0.6-3.9c0.5-1.9-2.2-2.6-2.9-0.8c-0.3,0.9-0.6,1.8-1,2.6c1,0.1,1.9,0.3,2.9,0.4c0-1,0-2,0-3
					c0-1.6-2-1.9-2.8-0.8c-0.2,0.2-0.3,0.5-0.5,0.7c0.9,0.1,1.8,0.2,2.7,0.4c-0.1-0.6-0.1-1.2-0.2-1.8c0-1.6-2.6-2.1-2.9-0.4
					c-0.7,3.2-1.3,6.4-2,9.6c-0.2,1.1-0.9,2.6-0.4,3.7c0.3,0.7,1,1.3,1.8,1c0,0,0.8,0.4,1.6,0.4c0.7,0,1.2-0.5,1.4-1.1
					c0.8-2,1.4-4.2,2-6.3c-1,0-1.9,0-2.9,0c0,0.8-0.1,1.6-0.1,2.5c0.6-0.1,1.2-0.2,1.8-0.2c1.3-0.6,1.9-1.5,1.8-2.7
					c0.2-1.5-2.1-2-2.8-0.8c-0.4,0.5-0.7,0.9-1.1,1.4c0.8,0.5,1.7,1,2.5,1.4c0-2.5,0.6-3,1.7-1.4c0.6,0.1,1.2,0.2,1.8,0.2
					c0,0-4.2,1.9-4.7,2.3c-0.9,0.8-1.2,1.5-1.4,2.6c-0.1,1,0.4,1.9,1.4,1.9c3.6,0.1,7.3-2,10.6-3.2c-0.4-0.9-0.8-1.8-1.1-2.7
					c-1.3,0.9-2.6,1.6-4.1,2.1c-1.7,0.7-1.1,3.4,0.8,2.9c3.3-1,6.3-3.3,9.6-4.1c-0.5-0.8-1-1.7-1.4-2.5c-2.1,1.9-5.1,2.3-7.5,3.9
					c0.7,0.7,1.4,1.4,2,2c1.1-2.7,2.4-5.2,4-7.7c-0.9-0.3-1.8-0.5-2.8-0.8c-0.3,0.5-0.5,1-0.8,1.5c0.8,0.5,1.7,1,2.5,1.4
					c0.3-0.4,0.6-0.9,0.9-1.3c-0.6-0.2-1.1-0.5-1.7-0.7c-0.1,0.5-0.2,0.9-0.3,1.4c0.8,0.4,1.7,0.7,2.5,1.1c0.2-0.4,0.5-0.8,0.7-1.3
					c-0.7-0.4-1.5-0.9-2.2-1.3c-0.3,0.9-0.6,1.9-0.8,2.8c0.9,0.3,1.8,0.5,2.8,0.8c0.5-1,1-2,1.5-3c-0.8-0.2-1.7-0.4-2.5-0.7
					c0.1,0.9,0.2,1.8,0.2,2.7c-0.2,1.7,2.4,1.9,2.9,0.4c0.6-1,1.3-2.1,1.9-3.1c-0.8-0.4-1.7-0.7-2.5-1.1c-0.1,0.7-0.1,1.5-0.2,2.2
					c-0.3,1.6,1.9,2.7,2.7,1.1c0.5-1.1,1.2-2.1,2.1-2.8c-0.8-0.5-1.7-1-2.5-1.4c-0.7,2.3-2.9,3.9-4.1,6c-0.8,1.4,1.2,3.1,2.3,1.8
					c1.1-1.2,3.1-2.7,3.1-4.4c0.1-2.2-2.9-5.3-3.9-7c-1-1.6-3.6-0.1-2.6,1.5c1.7,2.7,3.9,5,1.3,7.8c0.8,0.6,1.6,1.2,2.3,1.8
					c1.4-2.5,3.5-3.9,4.4-6.7c0.5-1.5-1.4-2.4-2.5-1.4s-1.9,2-2.6,3.4c0.9,0.4,1.8,0.8,2.7,1.1c0.2-1.3,0.3-1.7,0.3-3
					s-1.6-2-2.5-1.1c-1.4,1.4-2.1,2.6-2.7,4.5c1,0.1,1.9,0.3,2.9,0.4c0.2-1.9,0.2-1.6-0.3-3.5c-0.3-1.1-1.7-1.4-2.5-0.7
					c-1.6,1.5-2.2,2.9-2.3,5.1c-0.1,1.6,2,1.9,2.8,0.8c1-1.5,1.3-2.6,1.3-4.3c-0.1-1-1.3-2-2.2-1.3c-1.5,1.1-2.1,2-2.2,3.8
					c-0.1,1.2,1.7,2.1,2.5,1.1c1.1-1.4,1.9-3.3,0.7-5c-0.4-0.6-1-0.8-1.7-0.7c-1.8,0.4-2.5,1.8-3,3.4c-0.5,1.5,1.4,2.3,2.5,1.4
					c1.3-1.1,1.7-2,1.7-3.7c0-1.5-2-2-2.8-0.8c-1.5,2.5-2.9,5-4,7.7c-0.5,1.2,0.7,3,2,2c2.6-1.8,5.7-2.2,8.1-4.4
					c1.1-1-0.1-2.8-1.4-2.5c-3.4,0.8-6.2,3.1-9.6,4.1c0.3,1,0.5,1.9,0.8,2.9c1.7-0.7,3.3-1.4,4.9-2.4c1.3-0.9,0.5-3.3-1.1-2.7
					c-2.9,1-6.7,3.2-9.8,3.1c0.5,0.6,1,1.3,1.4,1.9c0.2-1.6,4.3-2.2,5.6-3.4c0.9-0.8,1.5-1.9,1.9-3c0.7-1.9,0.6-4.5-1.7-5.2
					c-3.6-1.2-7.4,5.6-4.7,8c0.6,0.5,1.1,0.5,1.8,0.2c3.1-1.3,4.1-7.6,0.2-8.4c-4.1-0.9-7.5,7.3-4.2,9.5s6.8-4.7,5.8-7.2
					c-2.2-5.4-7.4,1.4-7.9,4.1c-0.3,1.5,1.4,2.5,2.5,1.4c0.9-0.8,1-0.9,1.6-2c-0.9-0.3-1.8-0.5-2.8-0.8c-0.8,6.9,8.2,4.5,5.1-1
					c-3.1-5.6-9.4,3.5-5.5,6.2c0.6,0.4,1.3,0.2,1.8-0.2c1.6-1.4,1.5-3.5,0.9-5.4c-0.4-1.4-2.5-1.4-2.9,0c-0.5,2-1.2,4.5-2,6.3
					c0.5-0.4,1-0.7,1.4-1.1c1.1,0,0.4-0.4-0.3-0.5c-0.9-0.1-1-0.2-2.1,0.1c0.6,0.3,1.2,0.7,1.8,1c-0.4-1,0.8-3.9,1-5
					c0.5-2.2,0.9-4.5,1.4-6.7c-1-0.1-1.9-0.3-2.9-0.4c0,1.1,0,1.5,0.3,2.6c0.3,1.4,2,1.3,2.7,0.4c0.2-0.2,0.3-0.5,0.5-0.7
					c-0.9-0.3-1.8-0.5-2.8-0.8c0,1,0,2,0,3c0,1.8,2.4,1.9,2.9,0.4c0.3-0.9,0.6-1.8,1-2.6c-1-0.3-1.9-0.5-2.9-0.8
					c-0.4,1.6-0.6,3-0.7,4.7c0,1.2,1.7,2,2.5,1.1c1.2-1.4,1.6-2.4,1.8-4.2c0.1-1.5-2.1-2-2.8-0.8c-1,1.9-2.4,6.5,1,7
					c3.3,0.5,3.3-3.2,2.4-5.2c-0.6-1.3-3-0.7-2.8,0.8c0,0.2,0.1,0.5,0.1,0.7c0.1,0.9,0.9,1.8,1.9,1.4c6.1-2.3,10.7-2,14.3-7.9
					c1.2-2,2.9-3.6,3.6-5.9c0.8-2.9,0.4-5.9-0.4-8.8c-0.5-1.7-2.8-1.3-2.9,0.4c-0.2,3,0.1,5.7,0.9,8.6c0.4,1.6,3,1.3,2.9-0.4
					c-0.2-4.4-0.4-8.8-0.6-13.3c-0.1-1.9-3-1.9-3,0c0.1,4.2-0.2,8.4-0.8,12.6c0.8-0.2,1.7-0.4,2.5-0.7c-0.7-0.6,0.1-7.8,0-9
					c-0.2-2.6-0.7-5-1.6-7.5c-0.6-1.5-2.9-1.4-2.9,0.4c0,5.6,0.4,11.2-0.2,16.8c1,0,2,0,3,0c0-4.9-0.3-9.7-1-14.5
					c-0.2-1.5-2.6-1.3-2.9,0c-1.1,4.8-1.5,9.5-1.1,14.5c0.1,1.6,2.5,2.1,2.9,0.4c1.1-4.3,1.5-8.5,1-13c-0.2-1.9-2.9-2-3,0
					c-0.1,4.3,0.3,8.3,1.4,12.4c0.4,1.7,2.9,1.3,2.9-0.4c0.1-3.3-0.2-6.4-0.8-9.6c-0.3-1.6-3.1-1.3-2.9,0.4c0.4,4,1.1,7.9,2.1,11.8
					c0.3,1.2,2.2,1.6,2.7,0.4c1.7-3.8,1.8-7.9,3.1-11.8c-0.9,0.1-1.8,0.2-2.7,0.4c2.7,5.8-0.5,13.6-2.1,19.2
					c-0.5,1.6,1.9,2.6,2.7,1.1c1.4-2.5,2.1-4.8,2.4-7.6c0.2-1.7-2.5-2-2.9-0.4c-0.7,2.4-1.4,4.8-2.1,7.2c1,0,1.9,0,2.9,0
					c-0.1-0.4-0.2-0.9-0.2-1.3c-0.3-1.5-2.5-1.3-2.9,0c-0.1,0.3-0.2,0.7-0.3,1c1,0.1,1.9,0.3,2.9,0.4c0-2.1,0.2-4.3,0.4-6.4
					c0.2-1.8-2.3-1.8-2.9-0.4c-1,2.5-1.6,4.8-1.8,7.4c1,0,2,0,3,0c0.2-3,0.5-6,0.7-9c0.1-1.8-2.4-1.9-2.9-0.4
					c-1,2.9-1.7,5.7-2.1,8.8c1,0,2,0,3,0c0.4-3.5,0.6-7,0.6-10.5c0-1.7-2.4-1.9-2.9-0.4c-1.3,3.7-1.9,7.1-1.8,11c0,2,2.7,1.8,3,0
					c0.5-3.8,0.7-7.5,0.5-11.4c-0.1-1.7-2.5-2-2.9-0.4c-1.1,3.7-1.7,7.4-2,11.3c1,0,2,0,3,0c0.2-3.9,0.4-7.9,0.6-11.8
					c0.1-1.8-2.4-1.9-2.9-0.4c-1.4,3.8-2.2,7.7-2.3,11.8c0,1.9,2.9,1.9,3,0c0.2-3.7,0.3-7.5,0.5-11.2c0.1-1.7-2.5-2-2.9-0.4
					c-1.2,4.2-1.9,8.4-2.3,12.8c1,0,2,0,3,0c0.2-4.1,0.3-8.1,0.5-12.2c0.1-1.8-2.4-1.9-2.9-0.4c-1.4,4-1.7,8-1.9,12.1c1,0,2,0,3,0
					c0-3.2-0.1-6.4-0.1-9.7c0-1.6-2.6-2.1-2.9-0.4c-0.5,2.7-1,5.4-1.5,8.1c1,0.1,1.9,0.3,2.9,0.4c-0.3-2.3-0.6-4.7-0.9-7
					c-0.2-1.6-2.3-2.1-2.9-0.4c-0.9,2.4-1.2,4.5-1,7.1c0.1,1.9,3,1.9,3,0c0-2.3-0.1-4.5-0.3-6.8c-0.1-1.6-2.6-2.2-2.9-0.4
					c-0.5,2.7-0.9,5.4-1.1,8.1c1,0,2,0,3,0c-0.2-2.9-0.4-5.8-0.4-8.7c0-1.7-2.5-2.1-2.9-0.4c-0.8,3.1-1.3,6.1-1.5,9.3c1,0,2,0,3,0
					c-0.2-2.9-0.2-5.8,0-8.7c0.1-1.6-2.7-2.1-2.9-0.4c-0.3,2.1-0.5,4.2-0.7,6.3c1,0,2,0,3,0c0.1-2.2,0.1-4.4,0.1-6.6
					c0-1.6-2.6-2.1-2.9-0.4c-0.5,2.6-0.9,5.3-1.4,7.9c1,0,1.9,0,2.9,0c-0.6-3.5-1-6.5,0.6-9.9c-0.7,0.2-1.4,0.4-2,0.5
					c1,0.7,1.3,3.3,1.9,4.5c0.6,1.1,2.5,0.9,2.7-0.4c0.4-2.4,0.9-4.8,1.6-7.2c-1-0.1-1.9-0.3-2.9-0.4c0,2.8,0.2,5.5,0.6,8.3
					c0.2,1.6,2.4,2.1,2.9,0.4c1.1-3.3,1.9-6.7,2.6-10.1c0.4-1.9-2.2-2.6-2.9-0.8c-1.3,3.5-3.2,7.8-2.1,11.6c0.3,1,1.3,1.3,2.2,0.9
					c1.6-0.7,1.8-2.1,2.3-3.7c1.1-3.4,2.2-6.9,3.3-10.3c-1-0.3-1.9-0.5-2.9-0.8c-0.9,3.1-1.3,6-1.3,9.3c0,1.8,2.4,1.9,2.9,0.4
					c2.3-6.1,3.6-12.2,4-18.6c0.1-1.4-1.7-1.9-2.5-1.1c-1.2,1.1-1.8,2.1-2.1,3.6c-0.4,1.6,2,2.7,2.7,1.1c0.4-1,0.9-1.9,1.3-2.9
					c0.8-1.7-1.6-3.2-2.6-1.5c-1.4,2.6-2.3,5.1-2.7,8.1c-0.3,1.9,2.2,2.6,2.9,0.8c0.8-2.4,1.7-4.9,2.5-7.3c0.6-1.6-1.8-2.5-2.7-1.1
					c-1.6,2.5-2.4,4.8-2.7,7.8c-0.2,1.5,2.1,1.9,2.8,0.8c1.5-2.5,2.8-5.1,4-7.8c-0.9-0.4-1.8-0.8-2.7-1.1c-1.2,3.2-2.8,6.7-2.1,10.1
					c0.3,1.4,2,1.3,2.7,0.4c1.9-2.7,2.8-5.4,3.3-8.7c0.2-1.6-2.1-1.9-2.8-0.8c-2.3,3.6-3.5,7.5-3.7,11.8c-0.1,1,1,1.7,1.9,1.4
					c0.3-0.1,0.6-0.2,1-0.2C126.8,102.7,126,99.8,124.2,100.3L124.2,100.3z"/>
			</g>
		</g>
		<g>
			<g>
				<path class="st0" d="M115.8,103.9c-0.2,0.4-0.4,0.7-0.6,1.1c0.9,0.3,1.8,0.5,2.8,0.8c0.1-1.2,0.6-5.9,2.2-6.3
					c-0.5-0.1-1-0.3-1.4-0.4c0.6,0.6-0.6,6.7-1.4,7.4c0.7,0,1.4,0,2.1,0c-1.1-1.1-0.6-4.4-0.3-5.7c-1-0.3-1.9-0.5-2.9-0.8
					c-0.1,1.1-0.3,2.1-0.7,3.1c-0.3,0.9-1.5,4.7-0.6,1c-1-0.1-1.9-0.3-2.9-0.4c0,0.2-0.1,0.4-0.1,0.7c0.2-0.4,0.5-0.9,0.7-1.3
					c-0.1,0.1-0.3,0.2-0.4,0.3c0.6,0.1,1.2,0.2,1.8,0.2c0.1,0.1-0.1-1-0.1-0.9c-0.3-1.5-2.5-1.3-2.9,0c-0.2,0.5-0.3,1-0.4,1.5
					c0.5,0,1,0,1.5,0c0.7,0.1,0.8,0.3,0.2,0.5c-0.6-0.2-1.1-0.5-1.7-0.7l0,0c0.8,0.4,1.7,0.7,2.5,1.1c0-0.8,0.1-1.5,0.2-2.3
					c-0.5-0.1-1-0.3-1.4-0.4c-0.1,0.3-0.3,0.7-0.4,1c0.8,0.2,1.7,0.4,2.5,0.7c-0.2-1-0.1-5.6,1.9-5.5c-0.4-0.2-0.9-0.5-1.3-0.7
					c0.8,1.5,0.4,3.2-0.2,4.7c1,0.1,1.9,0.3,2.9,0.4c0-1,0-1.9,0.3-2.8c0.1-0.2,0.9-2.2,0.6-2.2c-0.4-0.2-0.9-0.5-1.3-0.7
					c0.3,0.5-2.1,5-2.1,5c0.6,0.1,1.2,0.2,1.8,0.2c-0.3-0.3,2.5-5.9,3.1-5.7c-0.4-0.5-0.7-1-1.1-1.4c0,0.7-0.9,4.2-1.6,4.5
					c0.5,0.1,1,0.3,1.4,0.4c0.2,0.2,1.3-2.5,1.4-2.7c0.5-1.1,1.2-2.1,2-3c1.2-1.5-0.9-3.6-2.1-2.1c-1.6,2-5.8,7.4-3.3,9.9
					c0.3,0.4,1,0.6,1.4,0.4c2.3-0.8,3.9-5.1,3.8-7.3c0-0.7-0.4-1.3-1.1-1.4c-3.7-1-8.8,8.2-6,10.7c0.5,0.5,1.2,0.5,1.8,0.2
					c1.4-0.6,2-2.9,2.5-4.1c0.6-1.4,1.6-3.4,0.7-4.9c-0.3-0.4-0.8-0.8-1.3-0.7c-3.2,0.4-3.9,5.4-3.9,8c0,1.8,2.3,1.9,2.9,0.4
					c0.8-2,1.6-8.9-2.5-7.7c-3.5,1-4.1,6.4-3.6,9.3c0.2,1.1,1.8,1.5,2.5,0.7c1.1-1.3,2.1-4.7-0.1-5.5c-2.6-1-3.4,3.4-3.4,5.1
					c0,1.2,1.7,2.1,2.5,1.1s1.3-2.4,0.5-3.6c-0.4-0.6-1-0.8-1.7-0.7c-2.1,0.4-2.8,3.8-1,4.9c0.4,0.3,1.1,0.3,1.5,0
					c1.2-0.7,1.3-2,1.7-3.3c-1,0-1.9,0-2.9,0c0.2,0.9,0,1.5,0.8,2.2c0.5,0.4,1.2,0.6,1.8,0.2c0.9-0.7,1.1-1.1,1.2-2.3
					c0.2-1.7-2.5-2-2.9-0.4c-0.5,1.9-0.1,6.1,2.9,5.4c2.9-0.6,3.8-5.7,4.1-8c0.3-1.8-2.4-2.7-2.9-0.8c-0.5,2.5-0.9,6.5,1,8.5
					c0.6,0.6,1.6,0.6,2.1,0c1.4-1.5,1.7-4.5,2-6.5c0.3-1.8,0.7-3.7-0.6-5.2c-0.4-0.4-0.9-0.5-1.4-0.4c-3.3,0.8-4.2,6.4-4.3,9.2
					c-0.1,1.5,2.1,2,2.8,0.8c0.2-0.4,0.4-0.7,0.6-1.1C119.3,103.7,116.7,102.2,115.8,103.9L115.8,103.9z"/>
			</g>
		</g>
		<g>
			<g>
				<path class="st0" d="M95.2,41.6c-3.2,1.8-6.4,0.7-9.9,0.6c-1.6-0.1-4.6-0.8-5.5,1c-0.3,0.6-0.2,1.3,0.2,1.8
					c1,1.2,2.6,0.9,3.8,0.3c1.7-0.8,0.2-3.4-1.5-2.6c-0.1,0-0.1,0.1-0.2,0.1c0.1,0.6,0.2,1.2,0.2,1.8c-0.3,0.5,3.2,0.5,3.5,0.5
					c1.7,0.1,3.3,0.3,4.9,0.5c2.3,0.2,4-0.4,6-1.5C98.3,43.2,96.8,40.6,95.2,41.6L95.2,41.6z"/>
			</g>
		</g>
		<g>
			<g>
				<path class="st0" d="M127.3,50.6c-0.8-1.4-1.6-2.8-2.3-4.3c-0.6,0.7-1.1,1.5-1.7,2.2c0.7,0.2,1.4,2.1,1.7,2.7
					c0.9-0.5,1.7-1,2.6-1.5c-1-1.9-2.2-3.6-3.7-5.1c-1.2-1.3-3,0.4-2.3,1.8c0.6,1.3,1.3,2.6,2,3.8c0.8,1.4,3.2,0.5,2.7-1.1
					c-0.5-1.7-1.8-2.9-2.5-4.4c-0.5,0.6-1,1.3-1.4,1.9c0.1,0,0.2,0,0.3,0c-0.4-0.1-0.7-0.3-1.1-0.4c0.7,0.6,1.2,1.6,1.6,2.4
					c0.9-0.5,1.7-1,2.6-1.5c-0.9-1.2-1.7-2.5-2.6-3.7c-1.1-1.6-3.3-0.2-2.6,1.5c0.3,0.6,0.5,1.2,0.8,1.8c0.8-0.6,1.6-1.2,2.3-1.8
					c-0.5-0.7-1-1.3-1.5-2c-0.8,0.6-1.6,1.2-2.3,1.8c0.2,0.3,0.4,0.6,0.5,0.9c0.8-0.6,1.6-1.2,2.3-1.8c-0.6-0.5-0.9-1.1-1.1-1.9
					c-0.5,0.6-1,1.3-1.4,1.9c0.9,0.1,2.3,2.7,2.8,3.4c0.8,1.1,2.8,0.8,2.8-0.8c0-1.9-1.2-3.7-2-5.4c-0.8,0.6-1.6,1.2-2.3,1.8
					c0.6,0.6,1.5,1.5,1.6,2.3c0.1-0.5,0.3-1,0.4-1.4l-0.1,0.1c-1.5,1.2,0.6,3.3,2.1,2.1c1.8-1.4-0.9-4.2-1.9-5.2
					c-1.2-1.3-3.1,0.3-2.3,1.8c0.6,1.1,1.6,2.6,1.6,3.9c0.9-0.3,1.8-0.5,2.8-0.8c-1.4-1.9-2.7-4.6-5.4-4.8c-1-0.1-1.6,1-1.4,1.9
					c0.3,1.3,0.9,2.3,1.9,3.2c1.3,1.2,3-0.3,2.3-1.8c-0.3-0.6-0.6-1-1-1.5c-1-1.3-3.3,0.4-2.3,1.8c0.6,0.9,1.3,1.8,2,2.6
					c1.2,1.4,2.9-0.4,2.3-1.8c-0.3-0.6-0.5-1.2-0.8-1.8c-0.9,0.5-1.7,1-2.6,1.5c0.9,1.2,1.7,2.5,2.6,3.7c1.1,1.6,3.5,0.2,2.6-1.5
					c-0.7-1.4-1.6-3.4-3.4-3.5c-0.9,0-1.8,1-1.4,1.9c0.7,1.6,2,2.8,2.5,4.4c0.9-0.4,1.8-0.8,2.7-1.1c-0.7-1.3-1.4-2.5-2-3.8
					c-0.8,0.6-1.6,1.2-2.3,1.8c1.3,1.4,2.3,2.9,3.2,4.5c0.9,1.7,3.4,0.2,2.6-1.5c-0.8-1.6-1.6-3.5-3.5-4.1c-1.3-0.4-2.2,1.1-1.7,2.2
					c0.7,1.5,1.4,2.9,2.3,4.3C125.7,53.7,128.3,52.2,127.3,50.6L127.3,50.6z"/>
			</g>
		</g>
		<g>
			<g>
				<path class="st0" d="M71.6,48.4c0.9-1.1,1.7-2.2,2.6-3.3c-0.9-0.5-1.7-1-2.6-1.5c-0.6,1-1.3,2-2,3c0.9,0.5,1.7,1,2.6,1.5
					c0.2-0.4,0.4-0.8,0.7-1.2c0.3-0.7,0.2-1.5-0.4-1.9c-0.5-0.4-1.5-0.5-2,0.1c-0.4,0.5-0.8,0.7-1.3,0.9c0.6,0.7,1.1,1.5,1.7,2.2
					c0.2-0.2,0.3-0.5,0.5-0.7c1-1.6-1.6-3.1-2.6-1.5c-0.2,0.2-0.3,0.5-0.5,0.7c-0.7,1.1,0.5,2.5,1.7,2.2c1-0.3,2-0.8,2.7-1.6
					c-0.8-0.6-1.6-1.2-2.3-1.8c-0.2,0.4-0.4,0.8-0.7,1.2c-0.4,0.7-0.2,1.6,0.5,2c0.8,0.4,1.5,0.1,2-0.5c0.7-1,1.4-1.9,2-3
					c0.4-0.7,0.2-1.6-0.5-2c-0.8-0.4-1.5-0.1-2,0.5c-0.9,1.1-1.7,2.2-2.6,3.3c-0.5,0.6-0.1,1.7,0.5,2C70.4,49.4,71.2,49,71.6,48.4
					L71.6,48.4z"/>
			</g>
		</g>
		<g>
			<g>
				<path class="st0" d="M77.1,35.6c-0.4,0.4-0.8,0.7-1.2,1.1c0.7,0.4,1.5,0.9,2.2,1.3c0-0.1,0-0.2,0-0.2c-0.1-1.4-2-2.1-2.8-0.8
					c-0.1,0.2-0.2,0.3-0.3,0.5c-0.8,1.5,1.1,2.9,2.3,1.8c0.8-0.5,1.5-0.9,2.3-1.4c-0.7-0.7-1.4-1.4-2-2c-1.2,2.1-2.5,4.1-4.1,5.9
					c0.8,0.6,1.6,1.2,2.3,1.8c0.7-1.1,1.5-2.1,2.2-3.2c-0.9-0.4-1.8-0.8-2.7-1.1c-0.5,1.6-1.1,3.2-1.9,4.7c-0.8,1.7,1.5,3.1,2.6,1.5
					c1.2-1.9,2.6-3.6,4.1-5.4c-0.8-0.6-1.6-1.2-2.3-1.8c-1.2,2.1-2.4,4.3-3.6,6.4c-0.9,1.7,1.6,3.1,2.6,1.5c1.1-1.9,2.3-3.6,3.6-5.3
					c-0.8-0.6-1.6-1.2-2.3-1.8c-0.9,1.7-1.8,3.3-2.8,5c-0.9,1.7,1.6,3.1,2.6,1.5s2-3,3.3-4.3c-0.8-0.6-1.6-1.2-2.3-1.8
					c-1.1,1.5-2.2,3-3.1,4.6c-1,1.6,1.6,3.1,2.6,1.5c0.7-1.2,1.5-2.4,2.5-3.5c-0.8-0.6-1.6-1.2-2.3-1.8c-0.7,1.2-1.4,2.3-2.1,3.5
					c-1,1.7,1.5,3.1,2.6,1.5c0.5-0.8,1.1-1.6,1.6-2.3c-0.9-0.4-1.8-0.8-2.7-1.1c-0.3,1-0.7,2-1,3c-0.5,1.6,2,2.7,2.7,1.1
					c0.4-1,0.9-1.9,1.3-2.9c0.8-1.7-1.6-3.2-2.6-1.5c-0.6,1-1.1,2-1.7,3c0.9,0.3,1.8,0.5,2.8,0.8c0.1-0.5,0.3-0.9,0.4-1.4
					c0.7-1.6-1.9-2.5-2.7-1.1c-1.4,2.3-2.9,4.4-4.5,6.5c0.8,0.6,1.6,1.2,2.3,1.8c0.5-1.1,1-2.2,1.6-3.3c0.8-1.7-1.7-3.2-2.6-1.5
					c-0.6,1.3-1.3,2.4-2.1,3.6c0.9,0.3,1.8,0.5,2.8,0.8c0.1-1.2,0.2-2.4,0.3-3.6c0.1-1.5-2.2-2.1-2.8-0.8c-0.7,1.5-1.4,3-2.1,4.4
					c0.9,0.3,1.8,0.5,2.8,0.8c0.1-1,0.1-2.1,0.2-3.1c0.4-1.9-2.2-2.5-2.9-0.8c-0.4,1.2-1,2.3-1.7,3.3c0.9,0.4,1.8,0.8,2.7,1.1
					c0.4-1.3,0.9-2.6,1.3-3.9c-1-0.3-1.9-0.5-2.9-0.8c-0.2,0.7-0.4,1.3-0.7,2c1,0.3,1.9,0.5,2.9,0.8c0.2-0.9,0.5-1.7,0.7-2.6
					c0.5-1.6-1.9-2.7-2.7-1.1c-0.3,0.6-0.6,1.2-0.9,1.8c0.9,0.3,1.8,0.5,2.8,0.8c0-0.4,0-0.8,0.1-1.2c0.1-1.5-2.1-2.1-2.8-0.8
					c-0.4,0.7-0.7,1.4-1,2.1c-0.8,1.7,1.5,3.1,2.6,1.5c0.5-0.7,0.9-1.4,1.4-2.1c-0.9-0.4-1.8-0.8-2.7-1.1c-0.5,1.5-0.8,2.8-0.9,4.3
					c-0.1,1.6,2,1.9,2.8,0.8c0.6-1,1.3-2,1.9-3c-0.9-0.3-1.8-0.5-2.8-0.8c-0.1,1.2-0.2,2.4-0.5,3.5c-0.3,1.6,1.9,2.7,2.7,1.1
					c1.2-2.2,2.3-4.3,3.5-6.5c-0.9-0.4-1.8-0.8-2.7-1.1c-0.7,2.1-1.3,4.1-1.7,6.3c-0.3,1.5,2,2.8,2.7,1.1c0.9-1.9,1.8-3.8,2.6-5.6
					c-0.9-0.4-1.8-0.8-2.7-1.1c-0.5,1.6-1,3.2-1.5,4.7c-0.5,1.6,1.9,2.6,2.7,1.1c1-1.7,1.9-3.4,2.9-5.1c-0.9-0.4-1.8-0.8-2.7-1.1
					c-0.6,1.7-1.2,3.5-1.8,5.2c-0.5,1.6,2,2.7,2.7,1.1c0.7-1.7,1.5-3.3,2.4-4.9c-0.9-0.5-1.7-1-2.6-1.5c-0.6,1.3-1.2,2.6-1.8,3.9
					c0.9,0.4,1.8,0.8,2.7,1.1c0.1-0.5,0.2-1,0.2-1.5c0.3-1.9-2.2-2.6-2.9-0.8c-0.9,2.3-1.8,4.6-2.6,6.9c1,0.3,1.9,0.5,2.9,0.8
					c0.4-1.3,0.9-2.6,1.3-4c-1-0.3-1.9-0.5-2.9-0.8c-0.3,1.6-0.7,3.2-1,4.8c-0.4,1.9,2.3,2.6,2.9,0.8c0.5-1.6,0.7-3.1,0.9-4.8
					c0.1-1.7-2.6-2.1-2.9-0.4c-0.3,1.8-0.6,3.6-1,5.4c-0.3,1.9,2.3,2.6,2.9,0.8c0.4-1.2,0.8-2.4,1.2-3.7c-1-0.1-1.9-0.3-2.9-0.4
					c-0.2,1-0.4,2.1-0.5,3.1c1,0.3,1.9,0.5,2.9,0.8c0.4-1.7,0.8-3.3,1.2-5c0.4-1.9-2.3-2.6-2.9-0.8c-0.5,1.6-1,3.2-1.4,4.8
					c1,0.1,1.9,0.3,2.9,0.4c0-1.4-0.1-2.9-0.1-4.3c0-1.4-2.1-2.1-2.8-0.8c-1.4,2.7-2.8,5.4-4.3,8.1c0.9,0.3,1.8,0.5,2.8,0.8
					c0.1-1.5,0.4-3,0.8-4.4c0.5-1.9-2.2-2.6-2.9-0.8c-0.5,1.5-0.9,2.9-1.2,4.5c1,0.3,1.9,0.5,2.9,0.8c0.4-2.2,0.5-4.4,0.4-6.6
					c-0.1-1.6-2.5-2.1-2.9-0.4c-0.4,1.6-0.9,3.2-1.3,4.8c1,0.1,1.9,0.3,2.9,0.4c0-1.9,0.3-3.7,0.9-5.5c-1-0.1-1.9-0.3-2.9-0.4
					c-0.2,1-0.3,2-0.5,3.1c1,0.3,1.9,0.5,2.9,0.8c0.1-0.6,0.2-1.2,0.3-1.8c0.3-1.9-2.6-2.7-2.9-0.8c-0.1,0.6-0.2,1.2-0.3,1.8
					c-0.3,1.8,2.4,2.7,2.9,0.8c0.4-1.7,0.4-2.1,0.6-3.8c0.1-1.7-2.4-1.9-2.9-0.4c-0.7,2.1-1,4.1-1,6.3c0,1.7,2.5,2,2.9,0.4
					s0.9-3.2,1.3-4.8c-1-0.1-1.9-0.3-2.9-0.4c0.1,2,0,3.8-0.3,5.8c-0.3,1.9,2.5,2.7,2.9,0.8c0.3-1.6,0.7-3,1.2-4.5
					c-1-0.3-1.9-0.5-2.9-0.8c-0.5,1.7-0.7,3.4-0.9,5.2c-0.2,1.5,2.1,2,2.8,0.8c1.4-2.7,2.8-5.4,4.3-8.1c-0.9-0.3-1.8-0.5-2.8-0.8
					c0,1.4,0.1,2.9,0.1,4.3c0.1,1.7,2.4,2,2.9,0.4s1-3.2,1.4-4.8c-1-0.3-1.9-0.5-2.9-0.8c-0.4,1.7-0.8,3.3-1.2,5
					c-0.4,1.9,2.4,2.7,2.9,0.8c0.4-1.7,0.5-2.1,0.6-3.9c0.2-1.7-2.4-1.9-2.9-0.4c-0.4,1.2-0.8,2.4-1.2,3.7c1,0.3,1.9,0.5,2.9,0.8
					c0.3-1.8,0.6-3.6,1-5.4c-1-0.1-1.9-0.3-2.9-0.4c0,1.4-0.3,2.7-0.8,4c1,0.3,1.9,0.5,2.9,0.8c0.3-1.6,0.7-3.2,1-4.8
					c0.4-1.9-2.3-2.6-2.9-0.8c-0.4,1.3-0.9,2.6-1.3,4c-0.6,1.9,2.2,2.5,2.9,0.8c0.9-2.3,1.8-4.6,2.6-6.9c-1-0.3-1.9-0.5-2.9-0.8
					c-0.1,0.5-0.2,1-0.2,1.5c-0.2,1.5,1.9,2.8,2.7,1.1c0.6-1.3,1.2-2.6,1.8-3.9c0.8-1.7-1.6-3.2-2.6-1.5c-0.9,1.6-1.7,3.2-2.4,4.9
					c0.9,0.4,1.8,0.8,2.7,1.1c0.6-1.7,1.2-3.5,1.8-5.2c0.6-1.6-1.9-2.6-2.7-1.1c-1,1.7-1.9,3.4-2.9,5.1c0.9,0.4,1.8,0.8,2.7,1.1
					c0.5-1.6,1-3.2,1.5-4.7c0.5-1.6-2-2.7-2.7-1.1c-0.9,1.9-1.8,3.8-2.6,5.6c0.9,0.4,1.8,0.8,2.7,1.1c0.4-2.2,1-4.2,1.7-6.3
					c0.6-1.6-1.9-2.6-2.7-1.1c-1.2,2.2-2.3,4.3-3.5,6.5c0.9,0.4,1.8,0.8,2.7,1.1c0.3-1.4,0.5-2.9,0.6-4.3c0.1-1.6-2-1.9-2.8-0.8
					c-0.6,1-1.3,2-1.9,3c0.9,0.3,1.8,0.5,2.8,0.8c0-1.2,0.3-2.4,0.8-3.5c0.6-1.7-1.8-2.5-2.7-1.1c-0.5,0.7-0.9,1.4-1.4,2.1
					c0.9,0.5,1.7,1,2.6,1.5c0.3-0.7,0.6-1.4,1-2.1c-0.9-0.3-1.8-0.5-2.8-0.8c0,0.4,0,0.8-0.1,1.2c-0.1,1.5,2.1,2.1,2.8,0.8
					c0.3-0.6,0.6-1.2,0.9-1.8c-0.9-0.4-1.8-0.8-2.7-1.1c-0.2,0.9-0.5,1.7-0.7,2.6c-0.5,1.9,2.3,2.6,2.9,0.8c0.2-0.7,0.4-1.3,0.7-2
					c0.6-1.8-2.3-2.6-2.9-0.8c-0.4,1.3-0.9,2.6-1.3,3.9c-0.6,1.6,1.9,2.5,2.7,1.1c0.8-1.3,1.5-2.6,2-4.1c-1-0.3-1.9-0.5-2.9-0.8
					c-0.5,2.1-0.5,1.8-0.3,3.9c0.1,1.3,2.1,2.2,2.8,0.8c0.7-1.5,1.4-3,2.1-4.4c-0.9-0.3-1.8-0.5-2.8-0.8c-0.1,1.2-0.2,2.4-0.3,3.6
					c-0.2,1.6,2,1.9,2.8,0.8c0.8-1.2,1.4-2.3,2.1-3.6c-0.9-0.5-1.7-1-2.6-1.5c-0.5,1.1-1,2.2-1.6,3.3c-0.7,1.4,1.2,3.2,2.3,1.8
					c1.8-2.3,3.5-4.6,5-7.1c-0.9-0.4-1.8-0.8-2.7-1.1c-0.4,1-0.4,1.2-0.5,2.2c-0.1,1.5,2.1,2,2.8,0.8c0.6-1,1.1-2,1.7-3
					c-0.9-0.5-1.7-1-2.6-1.5c-0.4,1-0.9,1.9-1.3,2.9c0.9,0.4,1.8,0.8,2.7,1.1c0.3-1,0.7-2,1-3c0.6-1.7-1.8-2.5-2.7-1.1
					c-0.5,0.8-1.1,1.6-1.6,2.3c0.9,0.5,1.7,1,2.6,1.5c0.7-1.2,1.4-2.3,2.1-3.5c0.9-1.4-1.3-3.1-2.3-1.8c-1.1,1.3-2,2.7-2.9,4.1
					c0.9,0.5,1.7,1,2.6,1.5c1-1.6,2-3.1,3.1-4.6c1-1.4-1.2-3-2.3-1.8c-1.4,1.5-2.6,3.1-3.7,4.9c0.9,0.5,1.7,1,2.6,1.5
					c0.9-1.7,1.8-3.3,2.8-5c0.8-1.4-1.3-3.2-2.3-1.8c-1.5,1.9-2.9,3.9-4.1,5.9c0.9,0.5,1.7,1,2.6,1.5c1.2-2.1,2.4-4.3,3.6-6.4
					c0.8-1.4-1.2-3.1-2.3-1.8c-1.6,1.9-3.1,3.9-4.5,6c0.9,0.5,1.7,1,2.6,1.5c0.9-1.8,1.6-3.5,2.2-5.4c0.6-1.7-1.8-2.5-2.7-1.1
					c-0.7,1.1-1.5,2.1-2.2,3.2c-1,1.4,1.2,3.1,2.3,1.8c1.8-2,3.3-4.1,4.6-6.5c0.8-1.4-0.7-2.6-2-2c-1.6,0.8-1.5,0.7-2.9,1.9
					c0.8,0.6,1.6,1.2,2.3,1.8c0.1-0.2,0.2-0.3,0.3-0.5c-0.9-0.3-1.8-0.5-2.8-0.8c0,0.1,0,0.2,0,0.2c0,1.2,1.2,1.7,2.2,1.3
					c0.8-0.3,1.2-1,1.8-1.6C80.6,36.4,78.5,34.3,77.1,35.6L77.1,35.6z"/>
			</g>
		</g>
		<g>
			<g>
				<path class="st0" d="M72.3,45.8c1.5-1.6,3.1-3,4.8-4.5c-0.7-0.7-1.4-1.4-2.1-2.1c-0.7,0.8-1.4,1.5-2.2,2.2
					c0.7,0.6,1.5,1.1,2.2,1.7c0.2-0.5,0.5-1,0.9-1.4c-0.7-0.7-1.4-1.4-2.1-2.1c-0.7,0.7-1.3,1.4-2.3,1.8c0.7,0.6,1.5,1.1,2.2,1.7
					c0.1-0.3,0.2-0.5,0.5-0.6c-0.7-0.6-1.5-1.1-2.2-1.7c-0.1,0.2-0.1,0.3-0.2,0.5c-0.6,1.6,1.9,2.5,2.7,1.1c0.6-0.9,1.3-1.7,2.2-2.3
					c-0.7-0.6-1.5-1.1-2.2-1.7c0,0.3-0.2,0.5-0.4,0.6c0.8,0.2,1.7,0.4,2.5,0.7c0-0.1-0.1-0.2-0.1-0.2c-0.1,0.4-0.1,0.8-0.2,1.1
					c0.3-0.6,1-1.1,1.6-1.5c-0.7-0.7-1.4-1.4-2-2c-0.3,0.6-0.6,1-1.1,1.4c0.7,0.7,1.4,1.4,2,2c0.4-0.8,0.9-1.3,1.7-1.7
					c-0.7-0.7-1.4-1.4-2-2c-0.4,0.7-1,1.1-1.6,1.5c0.7,0.7,1.4,1.4,2,2c0.3-0.6,0.6-1.2,1-1.7c1.2-1.5-0.9-3.6-2.1-2.1
					c-0.6,0.7-1.1,1.5-1.5,2.3c-0.6,1.3,0.6,2.9,2,2c1.1-0.7,2-1.5,2.7-2.6c0.9-1.3-0.8-2.6-2-2s-2.2,1.5-2.8,2.8
					c-0.6,1.2,0.7,3,2,2c0.9-0.7,1.6-1.4,2.1-2.4c0.6-1.2-0.7-2.9-2-2c-1.2,0.8-3.4,2.3-2.7,4c0.4,1.1,1.6,1.4,2.5,0.7
					c0.6-0.5,1-1.1,1.2-1.9c0.3-1.2-1.1-2.4-2.2-1.7c-1.3,0.9-2.4,2-3.3,3.3c0.9,0.4,1.8,0.8,2.7,1.1c0.1-0.2,0.1-0.3,0.2-0.5
					c0.5-1.3-1.1-2.2-2.2-1.7c-1,0.5-1.6,1.3-1.9,2.3c-0.4,1.3,1.1,2.2,2.2,1.7s2-1.4,2.9-2.3c1.3-1.4-0.7-3.5-2.1-2.1
					c-0.8,0.8-1.3,1.6-1.6,2.7c-0.4,1.2,1.1,2.5,2.2,1.7c1-0.8,2-1.6,2.8-2.6c1.2-1.5-0.6-3.4-2.1-2.1c-1.7,1.4-3.3,2.9-4.8,4.5
					C68.8,45,70.9,47.1,72.3,45.8L72.3,45.8z"/>
			</g>
		</g>
		<g>
			<g>
				<path class="st0" d="M90.6,124.6c-0.9-3.2-2.1-6.1-3.7-9.1c-0.8-1.5-3.2-0.5-2.7,1.1c0.4,1.2,0.8,2.4,1.1,3.5
					c0.9-0.4,1.8-0.8,2.7-1.1c-1.2-2.6-1.7-4.7-1.9-7.6c-1,0.1-1.9,0.3-2.9,0.4c1.1,2.9,2,5.8,2.7,8.8c0.4,1.9,3.2,1.1,2.9-0.8
					c-0.5-3-1-5.9-1.5-8.9c-1,0.3-1.9,0.5-2.9,0.8c0.8,2,1.3,4,1.7,6.2c1-0.3,1.9-0.5,2.9-0.8c-0.6-2.3-0.7-4.4-0.6-6.7
					c-1,0.1-1.9,0.3-2.9,0.4c0.5,1.3,0.6,2.6,0.4,4c1,0,2,0,3,0c-0.1-1.7-0.1-3.3-0.1-4.9c-1,0.1-1.9,0.3-2.9,0.4
					c0.5,1.2,0.6,2.5,0.5,3.8c1,0,2,0,3,0c-0.3-1.8-0.3-3.5,0.1-5.3c-1-0.1-1.9-0.3-2.9-0.4c0,0.3-0.1,0.5-0.1,0.8
					c1-0.1,1.9-0.3,2.9-0.4c-0.3-0.9-0.5-1.8-0.7-2.8c-0.3-1.4-2.7-1.5-2.9,0c-0.3,1.9-0.6,3.8-1.1,5.7c0.9-0.1,1.8-0.2,2.7-0.4
					c-0.9-1.9-1.2-3.6-1.5-5.6c-0.2-1.6-3.1-1.3-2.9,0.4c0.2,2,0.3,3.8,0.2,5.7c1-0.1,1.9-0.3,2.9-0.4c-0.8-3.8-1.6-7.7-2.4-11.5
					c-0.9,0.4-1.8,0.8-2.7,1.1c0.7,1.3,1.2,2.6,1.5,4c0.8-0.5,1.7-1,2.5-1.4c-2.2-2.1-3.6-4.3-4.6-7.2c-0.7,0.6-1.5,1.1-2.2,1.7
					c1.9,0.9,2.9,2.4,3.1,4.6c0.8-0.4,1.7-0.7,2.5-1.1c-0.7-0.7-2.1-3-2.6-3.1c0,0,0.9,2.9,1,3.7c0.9-0.4,1.8-0.8,2.7-1.1
					c-1.5-2.1-3.4-4.6-3.2-7.4c-0.8,0.4-1.7,0.7-2.5,1.1c2.5,2.2,4.2,4.7,5.3,7.8c0.8-0.5,1.7-1,2.5-1.4c-1.4-1.4-2.5-4-3.9-5.1
					c-0.6-1.2-0.7-0.8-0.2,1.3c0.8,1.3,1.3,2.7,1.8,4.2c0.9-0.4,1.8-0.8,2.7-1.1c-1.2-1.8-2-3.2-2.7-5.3c-0.6,0.6-1.2,1.2-1.8,1.8
					c0.7,0.5,1.4,0.9,2.2,1.4c0.7-0.7,1.4-1.4,2.1-2.1c-1.4-1.2-2.9-2.3-4.3-3.5c-0.5,0.8-1,1.7-1.4,2.5c1.2,0,2.4,0.4,3.4,1.2
					c0.4-0.9,0.8-1.8,1.1-2.7c-2.8-0.6-5.1-1.6-7.4-3.2c-1.3-0.9-2.6,0.8-2,2c3.2,6.6,1.6,13.6-0.1,20.3c0.9-0.1,1.8-0.2,2.7-0.4
					c-1.9-3.6-2.7-7.3-2.7-11.4c-0.6,0.5-1.3,1-1.9,1.4c1.8,0.5,1.8,7.7,1.8,8.8c0.9-0.3,1.8-0.5,2.8-0.8c-2-3-3.5-6.2-4.6-9.6
					c-0.5-1.5-3.1-1.3-2.9,0.4c0.2,2.4,1.1,6.3-0.4,8.3c-2.3,3.2-3.8-1.4-4.4-3.5c-0.5-1.9-3.3-1.1-2.9,0.8l0.1-0.1
					c0.9,0.1,1.8,0.2,2.7,0.4c-0.6-4.1-0.5-8,0.2-12.2c-1-0.1-1.9-0.3-2.9-0.4c0.2,4.9,0.4,9.8,0.6,14.7c0.1,1.6,2.6,2.1,2.9,0.4
					c0.8-4,1.5-8,2.3-11.9c-1,0-1.9,0-2.9,0c0.8,2.3,1.4,4.5,1.7,6.9c0.9-0.4,1.8-0.8,2.7-1.1c-1.1-1.5-1.6-3.3-1.4-5.1
					c-1,0.1-1.9,0.3-2.9,0.4c0.9,3.3,1.3,6.5,1.3,9.9c0,1.9,2.9,1.9,3,0c0.1-3.3,0.3-6.6,0.7-10c-1,0-2,0-3,0
					c0.1,2.4,0.2,4.8,0.3,7.1c1,0,2,0,3,0c-0.3-2.5-0.3-4.4,0.2-6.9c-0.9,0.1-1.8,0.2-2.7,0.4c0.9,1.7,1.4,6.4,0.6,8.5
					c0.6-0.3,1.2-0.7,1.8-1c-0.6-0.8-1.2-1.6-1.9-2.4c-0.4,0.5-0.7,1-1.1,1.4c1.3,3.1,1.4,3.8,0.2,2c-0.8-0.9-1.2-2-1.2-3.2
					c-0.8,0.2-1.7,0.4-2.5,0.7c1.8,2.2,2.4,4.3,2.3,7c0.8-0.4,1.7-0.7,2.5-1.1c-0.5-0.7-1.1-1.3-1.6-2c-1,0.3-1.9,0.5-2.9,0.8
					c0.4,1,0.8,2.1,1.3,3.1c0.8-0.5,1.7-1,2.5-1.4c-1.5-1.3-2.7-2.7-3.7-4.4c-0.9-1.4-3.2-0.5-2.7,1.1c0.5,1.9,0.8,4,1.5,5.8
					c0.9,2.4,3.4,4.4,3.5,7.2c0.8-0.4,1.7-0.7,2.5-1.1c-2.2-1.9-3.5-3.9-4.4-6.7c-0.8,0.5-1.7,1-2.5,1.4c2.3,2.9,3.3,6.3,6.1,8.9
					c0.4-0.8,0.7-1.7,1.1-2.5c-0.3-0.1-0.6-0.2-1-0.3c-0.7,0.7-1.4,1.4-2,2c4.6,2.6,9.4,4.1,14.8,4.6c0-1,0-2,0-3
					c-1.1,0-2.2,0-3.4,0c0.1,1,0.3,1.9,0.4,2.9c1.6-0.6,3.3-0.6,5-0.2c-0.1-0.9-0.2-1.8-0.4-2.7c-0.4,0.1-0.9,0.2-1.3,0.3
					c0.1,1,0.3,1.9,0.4,2.9c1.3-0.4,2.6-0.5,4-0.2c-0.3-0.9-0.5-1.8-0.8-2.8c-0.3,0.1-0.6,0.2-0.9,0.3c-1.9-0.1-1.9,2.8,0,3
					c1.7,0.2,3.2,0.1,4.8-0.2c1-0.2,1.3-1.4,0.9-2.2c-1.7-3.3-2.4-6.4-2.4-10.1c-1,0.1-1.9,0.3-2.9,0.4c1,3.1,1.9,6.3,2.8,9.5
					c0.9-0.4,1.8-0.8,2.7-1.1c-2-3.2-2.8-6.3-2.8-10c-0.8,0.4-1.7,0.7-2.5,1.1c0.8,0.9-0.5,3-1.3,3.3c-0.6,0.2-5.4-2.2-5.3-2.9
					c-0.7,0.3-1.5,0.6-2.2,0.9c0.4,0.2,4.4,3.1,2.5,1.8c-1.1-0.7-3.6-2.1-3.3-3.7c-0.8,0.2-1.7,0.4-2.5,0.7c0.9,0.8,1.7,1.8,2.2,2.9
					c0.9,0.6,0.9,0.7,0.1,0.2c-2-0.6-3.7-2.6-4.7-4.3c-0.7,0.7-1.4,1.4-2,2c2.2,1.6,3.1,3.4,3.6,5.9c0.8-0.5,1.7-1,2.5-1.4
					c-1.6-2-2.9-4-4.1-6.2c-0.8,0.6-1.6,1.2-2.3,1.8c1.4,1,2.3,2.4,2.8,4.1c0.9-0.4,1.8-0.8,2.7-1.1c-1.2-1.6-2.3-3.3-3.3-5.1
					c-0.9-1.7-3.4-0.2-2.6,1.5c0.8,1.4,1.2,2.9,1.4,4.5c0.7-0.6,1.5-1.1,2.2-1.7c-2-1.3-3.3-3.1-3.8-5.3c-0.5,0.5-1,1-1.5,1.5
					c0.9-0.1,3.4,5.8,3.7,6.6c0.8-0.6,1.6-1.2,2.3-1.8c-1.2-1.3-3.1-3.2-3.4-5c-0.3,0.6-0.7,1.2-1,1.8c0.4,1.4,0.9,2.9,1.3,4.3
					c0.9-0.4,1.8-0.8,2.7-1.1c-1-1.1-1.6-2.4-1.8-4c-0.7,0.6-1.5,1.1-2.2,1.7c2.2,1.6,3.5,3.6,4.6,6c0.9-0.5,1.7-1,2.6-1.5
					c-0.9-1.9-2.5-5.4-2-7.6c-0.5,0.4-1,0.7-1.4,1.1c1.1-0.1,2.4,5.4,2.7,6.5c0.9-0.4,1.8-0.8,2.7-1.1c-1.4-2.7-2.5-5.3-3-8.3
					c-0.8,0.5-1.7,1-2.5,1.4c2.1,1.6,4.9,4.8,4.1,7.8c0.5-0.4,1-0.7,1.4-1.1c-1,0.1-3.3-4.7-3.3-5.2c-0.1-3.1,1.6,1,2,1.6
					c0.5,1.7,0.7,1.9,0.5,0.6c-0.3-1.6,0-1.1,1,1.6c0.5,1.4,0.8,2.9,1,4.4c0.8-0.5,1.7-1,2.5-1.4c-0.4-0.4-4.6-4.6-2.6-5.3
					c0.9-0.3,2.6,5.3,2.7,5.8c0.9-0.4,1.8-0.8,2.7-1.1c-1.3-1.8-1.9-3.5-2.8-5.5c-1-2.2,0.8,2.7,1,3.5c0.9-0.4,1.8-0.8,2.7-1.1
					c-1.4-1.9-2.5-3.8-3.3-6c-0.7,0.6-1.5,1.1-2.2,1.7c1.8,1.1,2.3,5.7,2.7,7.6c0.9-0.4,1.8-0.8,2.7-1.1c-1.2-1.6-1.8-3.3-1.9-5.3
					c-0.9,0.3-1.8,0.5-2.8,0.8c1.2,2,2.2,4.1,3.2,6.2c0.4-0.7,0.9-1.5,1.3-2.2c-2.7,0-5.1-0.4-7.6-1.3c-0.3,1-0.5,1.9-0.8,2.9
					c2.7,0.9,5.4,1.7,8.1,2.6c0.1-1,0.3-1.9,0.4-2.9c-2.7-0.1-5.3-0.3-8-0.8c-1.9-0.3-2.7,2.5-0.8,2.9c1.1,0.2,2.1,0.4,3.2,0.7
					c1.9,0.4,2.7-2.5,0.8-2.9c-1.1-0.2-2.1-0.4-3.2-0.7c-0.3,1-0.5,1.9-0.8,2.9c2.9,0.5,5.8,0.8,8.8,0.9c1.7,0,2-2.4,0.4-2.9
					c-2.7-0.9-5.4-1.7-8.1-2.6c-1.8-0.6-2.6,2.2-0.8,2.9c2.8,1,5.4,1.5,8.4,1.5c1.2,0,1.7-1.2,1.3-2.2c-0.9-2.1-2-4.2-3.2-6.2
					c-0.7-1.2-2.9-0.8-2.8,0.8c0.3,2.6,0.9,4.6,2.3,6.8c0.9,1.5,3.1,0.5,2.7-1.1c-0.7-3.2-1.1-7.6-4.1-9.4c-1-0.6-2.7,0.4-2.2,1.7
					c1,2.4,2.1,4.6,3.6,6.7c0.9,1.3,3.2,0.6,2.7-1.1c-0.8-2.6-1.7-6.6-4.6-7.5c-0.5-0.1-1.1,0-1.4,0.4c-2.9,3,0.4,8.7,2.4,11.4
					c1,1.3,3.1,0.6,2.7-1.1c-0.6-2.7-3.3-10.2-7.5-8.4c-4.5,1.9,0.1,9,2.3,10.8c1.2,1,2.7,0,2.5-1.4c-0.3-2.3-4.8-15.7-8.4-8.6
					c-2.1,4.1,4.9,10.8,6.9,6.3c1.3-2.8-3.8-13.8-7.8-10.3c-3.4,3,0.9,13.7,5.3,13.2c0.7-0.1,1.2-0.4,1.4-1.1
					c1.1-4-1.9-8.4-4.9-10.7c-1.2-0.9-2.7-0.1-2.5,1.4c0.6,3.3,1.8,6.1,3.3,9c0.8,1.5,3.2,0.5,2.7-1.1c-0.7-2.7-1.9-9-5.6-8.7
					c-0.6,0-1.3,0.4-1.4,1.1c-0.7,3.3,0.9,6.9,2.3,9.9c0.9,1.7,3.3,0.2,2.6-1.5c-1.3-3-3.1-5.1-5.6-7.1c-1.1-0.8-2.4,0.5-2.2,1.7
					c0.4,1.8,1,3.1,2.1,4.7c0.9,1.3,3.3,0.6,2.7-1.1c-0.7-2.1-1.8-7.3-5-6.4c-0.8,0.2-1.2,1-1,1.8c0.4,2.3,2.7,4.7,4.2,6.4
					c1.2,1.3,3-0.4,2.3-1.8c-1-2.2-3-8.6-6.3-8.1c-0.8,0.1-1.5,0.6-1.5,1.5c-0.1,3.3,2.8,6.1,5.3,7.9c1.2,0.9,2.4-0.6,2.2-1.7
					c-0.3-1.9-0.8-3.4-1.7-5.2c-0.9,0.5-1.7,1-2.6,1.5c1,1.8,2,3.4,3.3,5.1c0.9,1.2,3.3,0.6,2.7-1.1c-0.7-2.3-1.7-3.8-3.5-5.4
					c-1.3-1.1-3.2,0.3-2.3,1.8c1.3,2.4,2.8,4.7,4.5,6.8c1,1.3,2.8-0.1,2.5-1.4c-0.7-3.3-2.3-5.7-5-7.7c-1.2-0.9-2.7,0.8-2,2
					c1.6,2.7,6.6,7.8,10.1,6.2c0.5-0.2,0.7-0.8,0.7-1.3c0.1-2.8-1.9-5.5-3.8-7.4c-0.7-0.8-2.3-0.5-2.5,0.7c-0.5,2.5,0.6,3.9,2.5,5.6
					c1.1,1,4.1,3.4,5.9,2.8c4.3-1.5-1.2-7.2-3.2-8.3c-0.8-0.4-2-0.1-2.2,0.9c-0.9,3.8,6.7,7.9,9.9,6.9c2.9-0.9,3.5-6.5,1.6-8.6
					c-0.9-1-2.5-0.2-2.5,1.1c-0.1,4.2,0.9,7.9,3.2,11.5c0.9,1.4,3.2,0.5,2.7-1.1c-0.9-3.2-1.9-6.3-2.8-9.5c-0.5-1.6-2.9-1.3-2.9,0.4
					c0,4.2,0.9,7.9,2.8,11.6c0.3-0.7,0.6-1.5,0.9-2.2c-1.3,0.3-2.7,0.3-4,0.1c0,1,0,2,0,3c1.2,0,1.4,0,2.4-0.7
					c1.2-0.9,0.8-2.6-0.8-2.8c-1.7-0.2-3.1,0-4.7,0.3c-1.7,0.4-1.2,2.9,0.4,2.9c1.4,0,1.6,0,2.9-0.7c1.1-0.6,0.9-2.5-0.4-2.7
					c-2.3-0.5-4.3-0.4-6.5,0.2c-1.6,0.4-1.3,2.9,0.4,2.9c1.1,0,2.2,0,3.4,0c1.9,0,1.9-2.8,0-3c-4.8-0.5-9.1-1.8-13.2-4.2
					c-1.2-0.7-3,0.8-2,2c1,1.3,1.8,1.9,3.5,1.8c1.2-0.1,2-1.6,1.1-2.5c-2.8-2.6-3.8-6-6.1-8.9c-1-1.2-2.9,0.1-2.5,1.4
					c1,3.2,2.6,5.8,5.2,8c0.9,0.8,2.6,0.3,2.5-1.1c-0.1-2.1-0.8-3.5-2-5.2c-1.8-2.8-2.3-5.4-3.2-8.5c-0.9,0.4-1.8,0.8-2.7,1.1
					c1.2,1.9,2.5,3.5,4.2,5c1,0.9,3.1,0,2.5-1.4c-0.4-1-0.8-2.1-1.3-3.1c-0.7-1.7-3.6-1-2.9,0.8c2.1,5.3,8.9,1.2,5.4-2.9
					c-1.1-1.3-3.4-2.1-4.8-0.8c-2.1,2,0.2,5.4,1.7,7c0.9,1,2.5,0.2,2.5-1.1c0.1-3.6-1-6.4-3.2-9.1c-0.8-0.9-2.2-0.3-2.5,0.7
					c-0.9,2.7,2.7,10.3,6.1,7.4c2.4-2,0.7-9.6-3.1-8.2c-0.6,0.2-1.1,0.7-1.1,1.4c0.1,2.1,1.8,4.9,4,5.3c0.8,0.1,1.5-0.2,1.8-1
					c1.2-3.1,0.7-7.9-0.9-10.8c-0.6-1.1-2.5-0.9-2.7,0.4c-0.4,2.6-0.6,5-0.3,7.7c0.2,1.9,3.1,2,3,0c-0.1-2.4-0.2-4.8-0.3-7.1
					c-0.1-2-2.7-1.9-3,0c-0.4,3.3-0.7,6.6-0.7,10c1,0,2,0,3,0c0-3.7-0.4-7.1-1.4-10.7c-0.5-1.7-2.7-1.2-2.9,0.4
					c-0.3,2.6,0.2,4.6,1.8,6.7c1,1.4,3,0.6,2.7-1.1c-0.4-2.4-0.9-4.6-1.7-6.9c-0.5-1.3-2.6-1.6-2.9,0c-0.8,4-1.5,8-2.3,11.9
					c1,0.1,1.9,0.3,2.9,0.4c-0.2-4.9-0.4-9.8-0.6-14.7c-0.1-1.6-2.6-2.1-2.9-0.4c-0.8,4.6-0.9,9.1-0.2,13.7c0.2,1.3,2.2,1.4,2.7,0.4
					c0.4-0.8,0.5-1.3,0.2-2.2c-1,0.3-1.9,0.5-2.9,0.8c0.5,1.8,0.7,4.5,2.3,5.8c1.3,1,4.3,1.8,5.9,1.5c4.3-0.8,2.6-9.8,2.4-12.8
					c-1,0.1-1.9,0.3-2.9,0.4c1.2,3.7,2.7,7.1,4.9,10.4c0.8,1.2,2.7,0.8,2.8-0.8c0.1-3.3,0.1-10.7-4-11.7c-1-0.2-1.9,0.5-1.9,1.4
					c-0.1,4.6,0.9,8.8,3.1,12.9c0.6,1.1,2.4,0.9,2.7-0.4c1.9-7.7,3.4-15.2-0.2-22.6c-0.7,0.7-1.4,1.4-2,2c2.6,1.7,5.1,2.8,8.1,3.5
					c1.6,0.4,2.6-1.8,1.1-2.7c-1.4-0.9-2.5-1.3-4.1-1.5c-1.3-0.2-2.7,1.4-1.4,2.5c1.4,1.2,2.9,2.3,4.3,3.5c1.5,1.2,3.3-0.6,2.1-2.1
					c-1-1.2-1.9-1.8-3.5-2.2c-1-0.3-2.2,0.7-1.8,1.8c0.8,2.2,1.7,4.1,3,6c0.9,1.3,3.3,0.5,2.7-1.1c-1-2.8-3.2-9.8-7.3-8.3
					c-0.5,0.2-0.9,0.5-1,1c-0.6,3.5,3.6,7.5,5.7,9.8c1,1,3,0,2.5-1.4c-1.3-3.6-3.2-6.6-6.1-9.1c-1-0.9-2.5-0.3-2.5,1.1
					c-0.2,3.4,1.7,6.2,3.6,8.9c1,1.4,3,0.5,2.7-1.1c-0.4-2.1-2.8-9.9-6.5-7.2c-3.1,2.3,1.4,7.9,3.1,9.5c0.9,0.8,2.6,0.3,2.5-1.1
					c-0.3-3.3-1.7-5.5-4.6-7.2c-1.1-0.6-2.6,0.4-2.2,1.7c1.1,3.4,2.8,6.1,5.4,8.5c1.1,1,2.9,0,2.5-1.4c-0.4-1.7-1-3.2-1.8-4.8
					c-0.8-1.6-3.1-0.4-2.7,1.1c0.8,3.8,1.6,7.7,2.4,11.5c0.4,1.7,2.9,1.2,2.9-0.4c0.1-2,0-3.8-0.2-5.7c-1,0.1-1.9,0.3-2.9,0.4
					c0.3,2.3,0.8,4.2,1.8,6.3c0.6,1.2,2.4,0.8,2.7-0.4c0.4-1.9,0.8-3.8,1.1-5.7c-1,0-1.9,0-2.9,0c0.2,0.9,0.4,1.9,0.7,2.8
					c0.5,1.7,2.7,1.2,2.9-0.4c0-0.3,0.1-0.5,0.1-0.8c0.2-1.6-2.7-2.1-2.9-0.4c-0.3,2.1-0.4,4-0.2,6.1c0.2,1.9,2.9,2,3,0
					c0-1.6-0.1-3-0.6-4.6s-2.9-1.3-2.9,0.4c0,1.7,0,3.3,0.1,4.9c0.1,1.9,2.9,1.9,3,0c0.1-1.7-0.1-3.1-0.5-4.8
					c-0.5-1.7-2.8-1.2-2.9,0.4c-0.2,2.6,0,4.9,0.7,7.5c0.5,1.9,3.2,1.1,2.9-0.8c-0.4-2.1-1-4.1-1.7-6.2c-0.7-1.8-3.2-1.1-2.9,0.8
					c0.5,3,1,5.9,1.5,8.9c1-0.3,1.9-0.5,2.9-0.8c-0.7-3-1.6-5.9-2.7-8.8c-0.6-1.4-3-1.4-2.9,0.4c0.2,3.3,0.9,6.1,2.3,9.1
					c0.7,1.5,3.2,0.4,2.7-1.1c-0.4-1.2-0.8-2.4-1.1-3.5c-0.9,0.4-1.8,0.8-2.7,1.1c1.4,2.7,2.5,5.5,3.4,8.4
					C88.2,127.2,91.1,126.4,90.6,124.6L90.6,124.6z"/>
			</g>
		</g>
		<g>
			<g>
				<path class="st0" d="M67,51.6c-0.3,1.2-0.4,1.4-0.4,2.7c1,0,2,0,3,0c0-0.9,0-1.8,0-2.7c-1,0-2,0-3,0c0.1,1.1,0.2,1.6,0.5,2.6
					c0.2,0.8,1.4,1.5,2.2,0.9c0.3-0.2,0.7-0.5,1-0.7c-0.7-0.3-1.5-0.6-2.2-0.9c0,1,0.1,2,0.1,3c-0.1,1.8,2.3,1.9,2.9,0.4
					c0.5-1.2,0.9-2.4,1.3-3.6c-1-0.1-1.9-0.3-2.9-0.4c0.1,1.2,0,2.4-0.1,3.6c-0.1,1.7,2.5,2,2.9,0.4c0.2-1.1,0.6-2.2,1.3-3.1
					c-0.9-0.3-1.8-0.5-2.8-0.8c-0.3,2.6-0.9,4.8-1.8,7.3c-0.6,1.6,2,2.7,2.7,1.1c0.9-1.9,1.3-3.5,1.3-5.6c0-1.7-2.5-2-2.9-0.4
					c-0.4,1.7-0.8,3.3-1.1,5c-0.3,1.9,2.5,2.7,2.9,0.8c0.2-1.1,0.3-1.3,0.2-2.4C72,57.5,70,56.6,69.3,58c-0.7,1.5-1.3,3.1-1.9,4.7
					c1,0.1,1.9,0.3,2.9,0.4c0-1.5-0.1-3-0.1-4.4c0-1.6-2.5-2.1-2.9-0.4c-0.3,1.5-0.5,2.9-0.7,4.4c1,0,2,0,3,0c0-1-0.1-2-0.1-3.1
					c-0.1-1.8-2.3-1.9-2.9-0.4c-0.5,1.3-1,2.5-1.3,3.9c1,0.3,1.9,0.5,2.9,0.8c0.4-2,0.4-2.1,0.4-4.1c0-1.6-2.7-2.1-2.9-0.4
					c-0.1,0.9-0.3,1.9-0.4,2.8c-0.2,1.6,1.8,2.7,2.7,1.1c0.6-1.1,1.2-2.1,1.8-3.2c-0.9-0.3-1.8-0.5-2.8-0.8c0,1.4,0,2.9,0,4.3
					c0,1.8,2.3,1.9,2.9,0.4c0.7-1.6,1.3-3.3,2-4.9c-1-0.1-1.9-0.3-2.9-0.4c0.2,1.9,0.3,3.6,0.3,5.5c0,1.7,2.4,2,2.9,0.4
					c0.4-1.2,0.7-2.4,1.1-3.7c-1-0.1-1.9-0.3-2.9-0.4c0,0.9,0,1.9,0.1,2.8c0,1.7,2.5,2,2.9,0.4c0.5-1.8,0.5-2,0.7-3.8
					c0.2-1.7-2.6-2-2.9-0.4c-0.1,0.6-0.2,1.2-0.3,1.9c-0.3,1.9,2.4,2.7,2.9,0.8c0.4-1.8,0.4-1.9,0.5-3.7c-1,0-2,0-3,0
					c0,1.7,0,3.5,0.1,5.2c0.1,1.9,3,1.9,3,0c0-0.6,0.1-1.3,0.1-1.9c-1-0.1-1.9-0.3-2.9-0.4c-0.2,2-0.5,3.9-0.9,5.9
					c1,0.1,1.9,0.3,2.9,0.4c0-1.1,0-2.2,0.1-3.3c-1,0-2,0-3,0c0,2.2,0.1,4.4,0.1,6.6c0,1.9,2.9,1.9,3,0c0.1-1.7,0.1-3.3,0-5
					c-1,0-2,0-3,0c0.2,2.5,0.3,4.9,0.3,7.4c1,0,2,0,3,0c-0.1-1.7-0.2-3.3-0.3-5c-1,0-2,0-3,0c0.2,2,0.2,4,0.1,6.1
					c1-0.1,1.9-0.3,2.9-0.4c-0.4-2.1-0.9-4.3-1.3-6.4c-0.3-1.7-2.9-1.2-2.9,0.4c0,2-0.2,3.7-0.5,5.7c1,0.1,1.9,0.3,2.9,0.4
					c-0.3-2.7-0.6-5.3-0.9-8c-1,0.1-1.9,0.3-2.9,0.4c0.5,2.1,0.6,3.5,0.3,5.6c1-0.1,1.9-0.3,2.9-0.4c-0.8-2.6-1.4-5.1-1.6-7.8
					c-0.9,0.3-1.8,0.5-2.8,0.8c1.1,2.5,0.5,4.8,0,7.3c1,0.1,1.9,0.3,2.9,0.4c-0.1-2,0-3.8,0.1-5.8c0.1-1.6-2.6-2.1-2.9-0.4
					c-0.3,1.9-0.6,3.8-1,5.7c1,0.1,1.9,0.3,2.9,0.4c0-2.1,0-4.2-0.1-6.4c0-1.6-2.7-2.1-2.9-0.4c-0.2,1.1-0.3,2.3-0.5,3.4
					c1,0.1,1.9,0.3,2.9,0.4c-0.1-1.5-0.1-2.9-0.1-4.4c-1,0-2,0-3,0c0.1,1.2,0,2.3-0.2,3.5c1,0.1,1.9,0.3,2.9,0.4
					c0.1-0.8,0.2-1.5,0.3-2.3c-1-0.1-1.9-0.3-2.9-0.4c-0.1,2.4-0.4,4.7-1,7c-0.5,1.9,2.4,2.6,2.9,0.8c0.3-1.1,0.6-2.2,0.9-3.3
					c-1-0.1-1.9-0.3-2.9-0.4c0.2,1,0.2,2,0,3c1,0,2,0,3,0c-0.1-1-0.1-2,0-3c-1,0-2,0-3,0c0.3,2.1,0.5,4.2,0.5,6.4
					c0,1.7,2.4,2,2.9,0.4s0.8-3.1,1.1-4.8c-1,0-1.9,0-2.9,0c0.9,2.5,1.2,5,1.4,7.6c0.1,1.9,3.1,1.9,3,0c-0.1-2.2-0.4-4.3-0.9-6.4
					c-0.9,0.4-1.8,0.8-2.7,1.1c1.8,3.4,2.3,7.2,3.1,10.9c0.4,1.9,3.2,1.1,2.9-0.8c-0.6-2.8-1.1-5.6-1.7-8.5c-1,0.3-1.9,0.5-2.9,0.8
					c0.7,2.5,1.3,5.1,2,7.6c0.5,1.9,3.4,1.1,2.9-0.8c-0.5-2-0.8-3.9-0.8-5.9c-0.9,0.3-1.8,0.5-2.8,0.8c0.6,1.3,1,2.6,1.1,4.1
					c1-0.3,1.9-0.5,2.9-0.8c-0.4-1.6-0.6-3.3-0.6-5c-1,0.1-1.9,0.3-2.9,0.4c0.2,1.1,0.4,2.2,0.7,3.3c1-0.1,1.9-0.3,2.9-0.4
					c-0.5-1.8-0.9-3.5-1.2-5.4c-1,0.3-1.9,0.5-2.9,0.8c0.5,1.2,0.8,2.5,0.9,3.8c1-0.1,1.9-0.3,2.9-0.4c-0.2-1.4-0.4-2.7-0.6-4.1
					c-1,0.3-1.9,0.5-2.9,0.8c0.2,0.5,0.4,0.9,0.5,1.4c0.6,1.6,2.7,1.3,2.9-0.4c0.1-0.7,0.2-1.4,0.3-2.1c-1,0.1-1.9,0.3-2.9,0.4
					c0.8,3.4,1.4,6.7,1.8,10.1c0.9-0.3,1.8-0.5,2.8-0.8c-1.1-1.5-1.3-2.7-1.6-4.4c-1,0.3-1.9,0.5-2.9,0.8c0.6,3.5,1.1,7.1,1.5,10.7
					c1-0.1,1.9-0.3,2.9-0.4c-0.7-2.6-1.4-5.2-2.2-7.8c-1,0.3-1.9,0.5-2.9,0.8c1.1,2.7,2.3,5.4,3.4,8.2c0.9-0.4,1.8-0.8,2.7-1.1
					c-1.3-1.9-2.4-3.9-3.3-6c-0.7-1.7-3.5-1-2.9,0.8c1.2,3.5,2.5,6.9,3.9,10.3c0.9-0.4,1.8-0.8,2.7-1.1c-2.4-3.5-3.9-7.3-5.3-11.3
					c-0.6-1.8-3.5-1.1-2.9,0.8c1.2,3.7,2.6,7.3,4.3,10.8c0.9-0.5,1.7-1,2.6-1.5c-1.7-3.4-3.4-6.7-4.9-10.2c-0.7-1.7-3.3-1.1-2.9,0.8
					c0.5,2.2,0.7,4.2,0.6,6.4c0.9-0.3,1.8-0.5,2.8-0.8c-1.2-2.8-1.9-5.4-2.4-8.4c-1,0.3-1.9,0.5-2.9,0.8c0.1,1,0.2,1.9,0.4,2.9
					c1-0.1,1.9-0.3,2.9-0.4c-0.6-2.1-1.2-4.3-1.8-6.4c-0.4-1.5-3.2-1.3-2.9,0.4c0.2,1.6,0.2,2.9,0,4.6c1-0.1,1.9-0.3,2.9-0.4
					c-0.9-2.3-1.5-4.5-1.7-7c-1,0.1-1.9,0.3-2.9,0.4c0.3,1.3,0.5,2.6,0.6,3.9c0.1,1.9,3,1.9,3,0c0.1-1.1,0.2-2.2,0.2-3.4
					c-1-0.1-1.9-0.3-2.9-0.4c0,0.5,0.1,1,0.1,1.5c1-0.1,1.9-0.3,2.9-0.4c0-0.9-0.1-1.9-0.1-2.8c-1,0-1.9,0-2.9,0
					c0.8,3.2,1.6,6.4,2.4,9.6c0.4,1.7,2.8,1.2,2.9-0.4c0.1-2.6,0.1-5.1-0.3-7.6c-0.9,0.3-1.8,0.5-2.8,0.8c1.2,2.6,2.3,5.2,3.2,7.9
					c0.6,1.8,3.2,1.1,2.9-0.8c-0.4-2-0.7-4.1-1.1-6.1c-0.9,0.4-1.8,0.8-2.7,1.1c1.1,2.6,1.8,5.1,2.2,7.8c1-0.3,1.9-0.5,2.9-0.8
					c-0.4-2.1-0.8-4.3-1.2-6.4c-0.4-1.9-3.2-1.1-2.9,0.8c0.7,3.8,0.8,7.4,0.1,11.3c1,0.1,1.9,0.3,2.9,0.4c-0.3-3-0.6-6.1-0.9-9.1
					c-0.2-1.9-3-1.9-3,0c0.1,3.9-0.1,7.8-0.6,11.7c1-0.1,1.9-0.3,2.9-0.4c-0.5-3.6-1-7.3-1.5-10.9c-0.2-1.7-3-1.3-2.9,0.4
					c0.2,3.3,0.1,6.3-0.5,9.6c1,0,1.9,0,2.9,0c-0.6-3.1-1.2-6.2-1.9-9.3c-0.3-1.7-2.9-1.2-2.9,0.4c-0.1,2.1-0.2,4.3-0.3,6.4
					c1,0,2,0,3,0c-0.3-2.5-0.3-4.8,0-7.3c-1,0.1-1.9,0.3-2.9,0.4c-0.1,1.2-0.1,2.5-0.2,3.7c1,0.1,1.9,0.3,2.9,0.4
					c-0.2-2.1-0.4-4.3-0.5-6.4c-0.8,0.4-1.7,0.7-2.5,1.1c1.3,1.5,1.3,5.6,1.5,7.3c0.3,2.3,0.4,4.6,0.5,6.9c1-0.1,1.9-0.3,2.9-0.4
					c-0.4-2.5-0.5-4.6-0.1-7.1c-1-0.1-1.9-0.3-2.9-0.4c0.3,2.8,0.5,5.5,0.5,8.3c1-0.1,1.9-0.3,2.9-0.4c-0.5-2-1.1-4-1.6-6
					c-1,0.3-1.9,0.5-2.9,0.8c0.1,1,0.1,1.9,0.2,2.9c0.6-0.1,1.2-0.2,1.8-0.2c-0.2-1.1-0.2-2.2,0-3.4c-1,0-2,0-3,0
					c0.2,0.9,0.1,1.8-0.1,2.7c1-0.1,1.9-0.3,2.9-0.4c-0.2-1.2-0.3-2.3-0.1-3.5c-1,0-2,0-3,0c0,0.6,0.1,1.1,0.1,1.7
					c1-0.1,1.9-0.3,2.9-0.4c-0.1-1-0.2-1.9-0.2-2.9c-0.9,0.3-1.8,0.5-2.8,0.8c1.5,3.2,3.1,6.3,4.6,9.5c0.6,1.3,2.8,0.7,2.8-0.8
					c-0.1-2.3-0.2-4.5-0.3-6.8c-0.7,0.4-1.5,0.9-2.2,1.3c1.6,0.9,3.4,7.1,4,8.5c0.7,1.7,3.4,1.1,2.9-0.8c-0.8-2.8-1.6-5.6-2.5-8.4
					c-0.9,0.4-1.8,0.8-2.7,1.1c1.5,3,3,6.1,4.4,9.2c0.7,1.5,3.3,0.4,2.7-1.1c-1.2-3.2-2.3-6.5-3.5-9.7c-0.9,0.4-1.8,0.8-2.7,1.1
					c1.5,2.2,2.6,4.4,3.4,6.9c0.9-0.4,1.8-0.8,2.7-1.1c-1-2.3-2-4.6-3-7c-0.7,0.7-1.4,1.4-2,2c2.1,1.6,2.9,4.6,4.8,6.5
					c1.3,1.3,3-0.3,2.3-1.8c-1.2-2.6-2.4-5.2-3.5-7.8c-0.9,0.5-1.7,1-2.6,1.5c1.1,1.6,2.1,3.1,3.2,4.7s3.5,0.2,2.6-1.5
					c-1.2-2-2.3-4-3.5-6c-0.7,0.7-1.4,1.4-2,2c1.6,0.8,3.4,3.8,4.5,5.2c1.1,1.5,3.6,0.2,2.6-1.5c-1.5-2.3-3-4.7-4.5-7
					c-0.8,0.6-1.6,1.2-2.3,1.8c1.5,1.7,3,3.5,4.5,5.2c0.7-0.7,1.4-1.4,2.1-2.1c-1.8-2-3.5-4-5-6.2c-0.7,0.7-1.4,1.4-2,2
					c2,1,3.5,2,5.2,3.6c0.7-0.7,1.4-1.4,2.1-2.1c-1.5-1.2-3-2.5-4.5-3.7c-0.5,0.8-1,1.7-1.4,2.5c1.7,0.7,2.9,1.4,4.3,2.5
					c1.4,1,3-1.2,1.8-2.3c-1.2-1.2-2.5-2.3-3.7-3.5c-0.5,0.8-1,1.7-1.4,2.5c0.5,0.3,1,0.6,1.6,0.9c0.6-0.8,1.2-1.6,1.8-2.3
					c-0.7-0.5-1.4-1-2.1-1.5c-1.4-1-3,1.2-1.8,2.3c2,1.9,4,3.7,6.1,5.4c0.7-0.7,1.4-1.4,2.1-2.1c-0.7-0.6-1.5-1.2-2.2-1.7
					c-0.6,0.8-1.2,1.6-1.8,2.3c1.9,0.9,3.8,1.9,5.7,2.9c1.7,0.9,3.2-1.6,1.5-2.6c-1.3-0.8-2.6-1.6-3.9-2.3c-1.6-1-3.1,1.6-1.5,2.6
					c1.3,0.8,2.7,1.6,4,2.4c0.4-0.9,0.8-1.8,1.1-2.7c-0.2-0.1-0.5-0.2-0.7-0.3c-1.6-0.6-2.6,1.9-1.1,2.7c1,0.4,1.8,1.1,2.2,2.1
					c0.4,1.6,3,1.3,2.9-0.4c0-0.6-0.1-1.3-0.1-1.9c-0.1-1.9-3-1.9-3,0c0,3-0.7,7.1,0,10c0.3,1.3,2.5,5.4,0.1-0.6
					c-0.6-1.6-1.2-3.3-1.8-5c-0.5-1.5-3.1-1.4-2.9,0.4c0,0.5,0.8,8.7,0.8,8.7c1.4-0.1-1-6.7-1.2-7.6c-1,0.3-1.9,0.5-2.9,0.8
					c0.2,0.4,2.8,8.5,2.6,8.5c0.2,0-0.9-2.1-0.9-2.2c-0.9-2.2-1.3-4-1.2-6.3c-0.7,0.4-1.5,0.9-2.2,1.3c0.2,0.1,0.4,0.3,0.7,0.4
					c1.6,1,3.1-1.5,1.5-2.6c-0.2-0.1-0.4-0.3-0.7-0.4c-1-0.6-2.2,0.2-2.2,1.3c-0.1,3.3,1.5,12.5,6.2,12.4c5.1-0.1-0.1-11.4-0.8-13.2
					c-0.7-1.7-3.3-1.1-2.9,0.8c0.5,2.2,1.5,10.9,5.3,9.9c3.7-0.9,1.2-9.5,1-11.8c-1,0.1-1.9,0.3-2.9,0.4c0.9,2.8,1.9,8.9,5.1,10
					c0.5,0.2,1.1,0,1.4-0.4c1.1-1.2,0.9-2.4,0.9-3.9c0-3.6,0-7.2,0-10.9c-1,0-2,0-3,0c0,0.6,0.1,1.3,0.1,1.9c1-0.1,1.9-0.3,2.9-0.4
					c-0.6-2-1.7-2.9-3.6-3.9c-0.4,0.9-0.8,1.8-1.1,2.7c0.2,0.1,0.5,0.2,0.7,0.3c1.6,0.6,2.5-1.9,1.1-2.7c-1.3-0.8-2.7-1.6-4-2.4
					c-0.5,0.9-1,1.7-1.5,2.6c1.3,0.8,2.6,1.6,3.9,2.3c0.5-0.9,1-1.7,1.5-2.6c-1.9-1-3.8-1.9-5.7-2.9c-1.4-0.7-3.2,1.2-1.8,2.3
					c0.7,0.6,1.5,1.2,2.2,1.7c1.5,1.2,3.6-0.9,2.1-2.1c-2.1-1.7-4.1-3.5-6-5.4c-0.6,0.8-1.2,1.6-1.8,2.3c0.7,0.5,1.4,1,2.1,1.5
					c1.4,1,3-1.2,1.8-2.3c-1.2-1.2-1.3-1.2-2.9-1.7c-1.4-0.4-2.5,1.5-1.4,2.5c1.2,1.2,2.5,2.3,3.7,3.5c0.6-0.8,1.2-1.6,1.8-2.3
					c-1.6-1.2-3.2-2.1-5-2.8c-1.4-0.6-2.6,1.6-1.4,2.5c1.5,1.2,3,2.5,4.5,3.7s3.5-0.8,2.1-2.1c-1.8-1.6-3.6-2.9-5.8-4
					c-1.2-0.6-3,0.7-2,2c1.7,2.4,3.5,4.6,5.5,6.8c1.3,1.4,3.3-0.7,2.1-2.1c-1.5-1.7-3-3.5-4.5-5.2c-1.1-1.3-3.2,0.4-2.3,1.8
					c1.5,2.3,3,4.7,4.5,7c0.9-0.5,1.7-1,2.6-1.5c-1.6-2.1-3.2-5-5.6-6.3c-1.3-0.7-2.8,0.7-2,2c1.2,2,2.3,4,3.5,6
					c0.9-0.5,1.7-1,2.6-1.5c-1.1-1.6-2.1-3.1-3.2-4.7s-3.4-0.2-2.6,1.5c1.2,2.6,2.4,5.2,3.5,7.8c0.8-0.6,1.6-1.2,2.3-1.8
					c-2.2-2.2-2.9-5-5.4-6.9c-1.3-1-2.5,0.9-2,2c1,2.3,2,4.6,3,7c0.7,1.5,3.2,0.4,2.7-1.1c-0.9-2.8-2.1-5.2-3.7-7.6
					c-0.9-1.3-3.3-0.5-2.7,1.1c1.2,3.2,2.3,6.5,3.5,9.7c0.9-0.4,1.8-0.8,2.7-1.1c-1.4-3.1-2.9-6.2-4.4-9.2c-0.8-1.5-3.2-0.5-2.7,1.1
					c0.8,2.8,1.6,5.6,2.5,8.4c1-0.3,1.9-0.5,2.9-0.8c-1.3-3.1-2.4-8.6-5.4-10.3c-0.9-0.5-2.3,0.1-2.2,1.3c0.1,2.3,0.2,4.5,0.3,6.8
					c0.9-0.3,1.8-0.5,2.8-0.8c-1.5-3.2-3.1-6.3-4.6-9.5c-0.7-1.4-2.7-0.6-2.8,0.8c0,1.8,0,1.9,0.3,3.7c0.3,1.6,3.1,1.3,2.9-0.4
					c0-0.6-0.1-1.1-0.1-1.7c-0.2-1.9-2.8-1.9-3,0c-0.1,1.5,0,2.8,0.2,4.3c0.3,1.8,2.7,1.1,2.9-0.4c0.2-0.9,0.2-1.8,0.1-2.7
					c-0.2-1.9-2.8-1.9-3,0c-0.2,1.8-0.6,5,1.5,5.9c0.6,0.3,1.3,0.3,1.8-0.2c1.5-1.7,1.3-3.8,0.6-5.8c-0.6-1.8-3.4-1.1-2.9,0.8
					c0.5,2,1.1,4,1.6,6c0.4,1.6,2.9,1.3,2.9-0.4c0-2.8-0.2-5.5-0.5-8.3c-0.2-1.5-2.7-2.2-2.9-0.4c-0.4,3-0.4,5.7,0.1,8.7
					c0.3,1.7,3,1.3,2.9-0.4C69,93,69.4,84.8,66.2,81.2c-0.8-1-2.6-0.2-2.5,1.1c0.1,2.1,0.3,4.3,0.5,6.4c0.2,1.5,2.6,2.2,2.9,0.4
					c0.4-1.9,0.4-3.4,0.2-5.3c-0.2-1.8-2.8-1.1-2.9,0.4c-0.2,2.5-0.2,4.8,0,7.3c0.2,1.9,2.9,2,3,0c0.1-2.1,0.2-4.3,0.3-6.4
					c-1,0.1-1.9,0.3-2.9,0.4c0.6,3.1,1.2,6.2,1.9,9.3c0.3,1.4,2.6,1.4,2.9,0c0.6-3.5,0.8-6.8,0.6-10.4c-1,0.1-1.9,0.3-2.9,0.4
					c0.5,3.6,1,7.3,1.5,10.9c0.2,1.8,2.7,1.1,2.9-0.4c0.5-3.9,0.7-7.8,0.6-11.7c-1,0-2,0-3,0c0.3,3,0.6,6.1,0.9,9.1
					c0.1,1.5,2.6,2.2,2.9,0.4c0.7-4.4,0.7-8.6-0.1-12.9c-1,0.3-1.9,0.5-2.9,0.8c0.4,2.1,0.8,4.3,1.2,6.4c0.4,1.9,3.1,1.1,2.9-0.8
					c-0.4-3-1.3-5.8-2.5-8.5c-0.7-1.7-3-0.4-2.7,1.1c0.4,2,0.7,4.1,1.1,6.1c1-0.3,1.9-0.5,2.9-0.8c-1-3-2.1-5.8-3.5-8.6
					c-0.6-1.3-3-0.7-2.8,0.8c0.3,2.6,0.4,5,0.3,7.6c1-0.1,1.9-0.3,2.9-0.4c-0.8-3.2-1.6-6.4-2.4-9.6c-0.3-1.4-2.6-1.5-2.9,0
					c-0.3,1.6-0.3,2.8,0.1,4.4s3,1.3,2.9-0.4c0-0.5-0.1-1-0.1-1.5c-0.1-1.6-2.7-2.1-2.9-0.4C64,78.2,64,78.6,64,80.5c1,0,2,0,3,0
					c-0.1-1.6-0.3-3.2-0.7-4.7c-0.3-1.6-3.1-1.3-2.9,0.4c0.3,2.7,0.8,5.2,1.8,7.8c0.6,1.6,2.7,1.3,2.9-0.4c0.2-1.6,0.2-2.9,0-4.6
					c-1,0.1-1.9,0.3-2.9,0.4c0.6,2.1,1.2,4.3,1.8,6.4c0.4,1.6,3.1,1.3,2.9-0.4c-0.1-1.5-0.2-2.2-0.5-3.7c-0.3-1.9-3.2-1.1-2.9,0.8
					c0.5,3.2,1.4,6.1,2.7,9.1c0.6,1.4,2.7,0.6,2.8-0.8c0.1-2.5-0.2-4.8-0.7-7.2c-1,0.3-1.9,0.5-2.9,0.8c1.5,3.8,3.3,7.4,5.2,11
					c0.9,1.7,3.4,0.2,2.6-1.5c-1.6-3.3-2.9-6.6-4-10.1c-1,0.3-1.9,0.5-2.9,0.8c1.5,4.2,3.1,8.3,5.6,12c0.9,1.3,3.4,0.5,2.7-1.1
					c-1.4-3.4-2.6-6.8-3.9-10.3c-1,0.3-1.9,0.5-2.9,0.8c1,2.4,2.1,4.6,3.6,6.7c0.9,1.3,3.4,0.5,2.7-1.1c-1.1-2.7-2.3-5.4-3.4-8.2
					c-0.7-1.7-3.5-1.1-2.9,0.8c0.8,2.6,1.5,5.2,2.2,7.8c0.4,1.6,3.1,1.3,2.9-0.4c-0.4-3.9-0.9-7.7-1.6-11.5
					c-0.3-1.9-3.2-1.1-2.9,0.8c0.3,2,0.8,3.6,1.9,5.1c0.8,1,3,0.9,2.8-0.8c-0.5-3.7-1.1-7.3-1.9-10.9c-0.4-1.8-2.7-1.1-2.9,0.4
					c-0.1,0.7-0.2,1.4-0.3,2.1c1-0.1,1.9-0.3,2.9-0.4c-0.2-0.5-0.4-0.9-0.5-1.4c-0.7-1.8-3.2-1.1-2.9,0.8c0.2,1.4,0.4,2.7,0.6,4.1
					c0.2,1.6,3.1,1.3,2.9-0.4c-0.2-1.6-0.4-3-1-4.6c-0.7-1.8-3.2-1.1-2.9,0.8c0.3,1.8,0.7,3.6,1.2,5.4c0.4,1.6,3.1,1.3,2.9-0.4
					c-0.2-1.9-0.3-2.2-0.8-4.1c-0.4-1.6-3-1.3-2.9,0.4c0.1,2,0.3,3.8,0.7,5.8c0.4,1.9,3.1,1.1,2.9-0.8c-0.3-1.8-0.7-3.2-1.4-4.8
					c-0.6-1.4-2.8-0.6-2.8,0.8c0,2.3,0.3,4.5,0.9,6.7c1-0.3,1.9-0.5,2.9-0.8c-0.7-2.5-1.3-5.1-2-7.6c-0.5-1.9-3.2-1.1-2.9,0.8
					c0.6,2.8,1.1,5.6,1.7,8.5c1-0.3,1.9-0.5,2.9-0.8c-0.8-4-1.5-8-3.4-11.7c-0.8-1.5-3.1-0.5-2.7,1.1c0.5,1.9,0.7,3.7,0.8,5.6
					c1,0,2,0,3,0c-0.2-2.9-0.5-5.6-1.5-8.4c-0.4-1.2-2.6-1.6-2.9,0c-0.2,1.7-0.6,3.2-1.1,4.8c1,0.1,1.9,0.3,2.9,0.4
					c-0.1-2.2-0.2-4.3-0.5-6.4c-0.2-1.9-2.8-2-3,0c-0.1,1-0.2,2,0,3c0.1,2,2.7,1.9,3,0c0.3-1,0.3-2,0-3c-0.2-1.6-2.4-2.1-2.9-0.4
					c-0.3,1.1-0.6,2.2-0.9,3.3c1,0.3,1.9,0.5,2.9,0.8c0.7-2.6,1-5.1,1.1-7.8c0.1-1.7-2.5-2-2.9-0.4c-0.4,1.5-0.4,1.6-0.4,3.1
					c0,1.6,2.6,2.1,2.9,0.4c0.3-1.5,0.4-2.8,0.3-4.3c-0.1-1.9-2.9-1.9-3,0c-0.1,1.5,0,2.9,0.1,4.4s2.7,2.2,2.9,0.4
					c0.2-1.1,0.3-2.3,0.5-3.4c-1-0.1-1.9-0.3-2.9-0.4c0,2.1,0,4.2,0.1,6.4c0,1.6,2.6,2.1,2.9,0.4c0.3-1.9,0.6-3.8,1-5.7
					c-1-0.1-1.9-0.3-2.9-0.4c-0.1,2-0.1,3.8-0.1,5.8c0.1,1.6,2.5,2.1,2.9,0.4c0.8-3.4,1.1-6.3-0.3-9.6c-0.6-1.3-2.9-0.7-2.8,0.8
					c0.3,3,0.8,5.7,1.7,8.6c0.5,1.7,2.7,1.2,2.9-0.4c0.3-2.2,0.1-4.2-0.4-6.4c-0.4-1.6-3.1-1.3-2.9,0.4c0.3,2.7,0.6,5.3,0.9,8
					c0.2,1.5,2.6,2.2,2.9,0.4c0.4-2.2,0.6-4.3,0.6-6.5c-1,0.1-1.9,0.3-2.9,0.4c0.4,2.1,0.9,4.3,1.3,6.4c0.3,1.7,2.8,1.2,2.9-0.4
					c0.1-2.1,0.1-4-0.1-6.1c-0.2-1.9-3.1-1.9-3,0c0.1,1.7,0.2,3.3,0.3,5c0.1,1.9,3,1.9,3,0c0-2.5-0.1-4.9-0.3-7.4
					c-0.2-1.9-3.1-1.9-3,0c0.1,1.7,0.1,3.3,0,5c1,0,2,0,3,0c0-2.2-0.1-4.4-0.1-6.6c0-1.9-2.9-1.9-3,0c0,1.1,0,2.2-0.1,3.3
					c0,1.6,2.6,2.1,2.9,0.4c0.4-2.2,0.7-4.4,1-6.6c0.2-1.6-2.7-2.1-2.9-0.4C71,62.2,71,62.6,71,63.8c1,0,2,0,3,0
					c-0.1-1.7-0.1-3.5-0.1-5.2c0-1.9-2.9-1.9-3,0c-0.1,1-0.3,2-0.4,3c1,0.3,1.9,0.5,2.9,0.8c0.1-0.6,0.2-1.2,0.3-1.9
					c-1-0.1-1.9-0.3-2.9-0.4c-0.2,1-0.4,2-0.6,3.1c1,0.1,1.9,0.3,2.9,0.4c0-0.9,0-1.9-0.1-2.8c0-1.7-2.4-2-2.9-0.4
					c-0.4,1.2-0.7,2.4-1.1,3.7c1,0.1,1.9,0.3,2.9,0.4c0-1.9-0.1-3.7-0.3-5.5c-0.2-1.7-2.3-2-2.9-0.4c-0.7,1.6-1.3,3.3-2,4.9
					c1,0.1,1.9,0.3,2.9,0.4c0-1.4,0-2.9,0-4.3c0-1.5-2-2-2.8-0.8c-0.6,1.1-1.2,2.1-1.8,3.2c0.9,0.4,1.8,0.8,2.7,1.1
					c0.1-0.9,0.3-1.9,0.4-2.8c-1-0.1-1.9-0.3-2.9-0.4c-0.1,1.1-0.2,2.2-0.3,3.3c-0.4,1.9,2.4,2.7,2.9,0.8c0.4-1.4,0.8-2.6,1.3-3.9
					c-1-0.1-1.9-0.3-2.9-0.4c0,1,0.1,2,0.1,3.1c0.1,1.9,2.8,1.9,3,0c0.1-1.2,0.3-2.5,0.6-3.7c-1-0.1-1.9-0.3-2.9-0.4
					c0,1.5,0.1,3,0.1,4.4c0,1.8,2.3,1.9,2.9,0.4c0.5-1.3,1-2.7,1.6-4c-0.6-0.2-1.6-0.4-2.5-0.7c0,0.6-0.1,1.1-0.1,1.7
					c1,0.3,1.9,0.5,2.9,0.8c0.3-1.7,0.7-3.3,1.1-5c-1-0.1-1.9-0.3-2.9-0.4c-0.3,1.4-0.6,2.8-0.9,4.1c0.9,0.4,1.8,0.8,2.7,1.1
					c1-2.6,1.6-5.2,1.9-8c0.2-1.5-2.1-1.9-2.8-0.8c-0.8,1.3-1.2,2.4-1.6,3.9c1,0.1,1.9,0.3,2.9,0.4c0.1-1.2,0.2-2.4,0.1-3.6
					c0-1.7-2.4-2-2.9-0.4c-0.4,1.2-0.8,2.4-1.3,3.6c1,0.1,1.9,0.3,2.9,0.4c0.1-1.9,0-2-0.2-3.8c-0.1-0.9-1.5-1.4-2.2-0.9
					c-0.3,0.2-0.7,0.5-1,0.7c0.7,0.3,1.5,0.6,2.2,0.9c-0.1-0.6-0.3-1.2-0.4-1.8c-0.2-1.9-3-2-3,0c0,0.9,0,1.8,0,2.7
					c0,1.9,2.9,1.9,3,0c0.1-0.6,0.2-1.2,0.3-1.9C70.4,50.6,67.5,49.8,67,51.6L67,51.6z"/>
			</g>
		</g>
		<g>
			<g>
				<path class="st0" d="M105.6,43.4c-0.2-0.1-0.3-0.2-0.5-0.3c-0.7-0.4-1.6-0.2-2,0.5s-0.2,1.7,0.5,2c0.2,0.1,0.3,0.2,0.5,0.3
					c0.7,0.4,1.6,0.2,2-0.5C106.5,44.8,106.3,43.8,105.6,43.4L105.6,43.4z"/>
			</g>
		</g>
		<g>
			<g>
				<path class="st0" d="M82.6,35c-1.7-0.4-1.9-0.5-3.7-0.6c0.5,0.6,1,1.3,1.4,1.9c0.2-0.1,0.3-0.2,0.5-0.3
					c-0.3-0.7-0.6-1.5-0.9-2.2c-0.4,0.2-0.8,0.5-1.2,0.7c0.4,0.8,0.7,1.7,1.1,2.5c0.6-0.2,1.2-0.5,1.8-0.7c-0.3-0.9-0.5-1.8-0.8-2.8
					c-0.4,0.1-0.9,0.3-1.3,0.4c0.2,0.7,0.4,1.4,0.5,2c0.1-0.1,0.1-0.2,0.2-0.3c-0.6,0.2-1.1,0.5-1.7,0.7c0.1,0,0.2,0.1,0.2,0.1
					c-0.1-0.9-0.2-1.8-0.4-2.7c-0.1,0-0.1,0.1-0.2,0.1c0,1,0,1.9,0,2.9c1.4,0.3,2.8,0.5,4.2,0.8c1-0.1,1.9-0.3,2.9-0.4
					c0.5,0.5,1.1,0.9,1.6,1.4c0.7,0.4,1.5,0.9,2.2,1.3c1-0.6,2.1-1.1,3.1-1.7c0.6,0.2,1.1,0.5,1.7,0.7c0.9,0.7,1,1.5,0.1,2.4
					c1,0,1.9,0,2.9,0c3.1-5,6.2-6.3,9.2-4c0.5,0.6,1.1,0.8,1.9,0.7c0-0.3-2.3,1.4-2.6,1.6c-2.1,1.2-4.4,1.6-6.2,3.2
					c-0.9,0.8-0.3,2.1,0.7,2.5s1.2,0.4,2.3,0.5c-0.1-1-0.3-1.9-0.4-2.9c-0.4,0.2-0.9,0.3-1.3,0.5c0.4,0.9,0.8,1.8,1.1,2.7
					c0.8-0.6,7.4-1.2,7.8-0.6c0.7-0.7,1.4-1.4,2-2c-0.7-0.3-1.3-0.6-1.8-1.1c0.2,0.6,0.5,1.1,0.7,1.7c0.8-2,2.7,0.8,3.2,1.3
					c0.2-0.8,0.4-1.7,0.7-2.5c-0.2,0-0.4,0.1-0.6,0.1c0.3,1,0.5,1.9,0.8,2.9c1.3-0.7,2.7-0.8,4.2-0.1c1.6,0.5,2.7-2,1.1-2.7
					c-2.8-1.3-5.2-2.1-8.4-1.5c-0.7,0.2-1.3,1.1-1,1.8c0.6,1.5,1.8,2.6,3.4,1.6c2.5-1.5,0.3-4.2,0.1-6.1c-0.7,0.4-1.5,0.9-2.2,1.3
					c1,0.7,2,1.5,2.9,2.4c1.4,1.3,3.4-0.7,2.1-2.1c-1.2-1.4-2.3-2.8-3.4-4.2c-0.8,0.6-1.6,1.2-2.3,1.8c1.6,1.4,3.2,2.8,4.6,4.4
					c1.1,1.2,3.4-0.4,2.3-1.8c-1.2-1.5-2.3-3-3.5-4.5c-0.8,0.6-1.6,1.2-2.3,1.8c1.7,1.7,3.3,3.4,4.8,5.2c1.1,1.3,3.1-0.4,2.3-1.8
					c-0.8-1.4-1.6-2.9-2.5-4.3c-0.8,0.6-1.6,1.2-2.3,1.8c1.6,1.6,3.1,3.2,4.7,4.8c1.3,1.3,3-0.3,2.3-1.8s-1.4-3-2.2-4.5
					c-0.9,0.5-1.7,1-2.6,1.5c1.1,1.5,2.3,3,3.4,4.5s3.6,0.2,2.6-1.5c-0.8-1.3-1.6-2.7-2.3-4c-0.8,0.6-1.6,1.2-2.3,1.8
					c1.2,1.4,2.3,2.8,3.5,4.3c1.1,1.3,3.1-0.4,2.3-1.8c-0.9-1.7-1.8-3.3-2.7-5c-0.8,0.6-1.6,1.2-2.3,1.8c1.2,1.3,2.4,2.7,3.7,4
					c1.1,1.2,3.3-0.4,2.3-1.8c-1.1-1.6-2.2-3.2-3.3-4.8c-0.8,0.6-1.6,1.2-2.3,1.8c1.2,1.1,2.3,2.2,3.4,3.4c1.3,1.5,3.3-0.6,2.1-2.1
					c-0.7-0.9-1.5-1.9-2.2-2.8c-0.7,0.7-1.4,1.4-2.1,2.1c0.6,0.6,1.1,1.2,1.7,1.9c1.1,1.2,3.3-0.4,2.3-1.8c-0.3-0.4-0.6-0.9-0.9-1.3
					c-0.9-1.3-3.4-0.5-2.7,1.1c0.4,0.9,0.6,1.3,1,2.1c1,1.6,3.6,0.1,2.6-1.5c-0.2-0.5-0.5-0.9-0.7-1.4c-0.9,0.4-1.8,0.8-2.7,1.1
					c0.3,0.4,0.6,0.9,0.9,1.3c0.8-0.6,1.6-1.2,2.3-1.8c-0.6-0.6-1.1-1.2-1.7-1.9c-1.3-1.4-3.3,0.6-2.1,2.1c0.7,0.9,1.5,1.9,2.2,2.8
					c0.7-0.7,1.4-1.4,2.1-2.1c-1.1-1.2-2.2-2.3-3.4-3.4c-1.2-1.1-3.4,0.3-2.3,1.8c1.1,1.6,2.2,3.2,3.3,4.8c0.8-0.6,1.6-1.2,2.3-1.8
					c-1.2-1.3-2.4-2.7-3.7-4c-1.2-1.3-3.1,0.4-2.3,1.8c0.9,1.7,1.8,3.3,2.7,5c0.8-0.6,1.6-1.2,2.3-1.8c-1.2-1.4-2.3-2.8-3.5-4.3
					c-1.1-1.3-3.2,0.4-2.3,1.8c0.8,1.3,1.6,2.7,2.3,4c0.9-0.5,1.7-1,2.6-1.5c-1.1-1.5-2.3-3-3.4-4.5s-3.5-0.2-2.6,1.5
					c0.8,1.5,1.5,2.9,2.2,4.5c0.8-0.6,1.6-1.2,2.3-1.8c-1.6-1.6-3.1-3.2-4.7-4.8c-1.2-1.2-3.2,0.3-2.3,1.8c0.8,1.4,1.6,2.9,2.5,4.3
					c0.8-0.6,1.6-1.2,2.3-1.8c-1.5-1.9-3.1-3.6-4.8-5.2c-1.2-1.1-3.4,0.4-2.3,1.8c1.2,1.5,2.3,3,3.5,4.5c0.8-0.6,1.6-1.2,2.3-1.8
					c-1.5-1.5-3-3-4.6-4.4c-1.2-1-3.4,0.3-2.3,1.8c1.2,1.7,2.4,3.3,3.8,4.8c0.7-0.7,1.4-1.4,2.1-2.1c-1.1-1-2.3-2-3.5-2.9
					c-0.9-0.6-2.4,0.2-2.2,1.3c0.1,0.6,0.1,1.2,0.3,1.7c0.3,0.7,1.9,1.8,2,2c-0.3,0.6-0.7,1.2-1,1.8c2.2-0.4,4.2,0,6.1,1.2
					c0.4-0.9,0.8-1.8,1.1-2.7c-2.1-0.7-3.7-0.7-5.8,0.1c-1.8,0.7-1.1,3.3,0.8,2.9c0.2,0,0.4-0.1,0.6-0.1c1.1-0.2,1.4-1.7,0.7-2.5
					c-1.2-1.3-2.5-2.7-4-3.6c-0.5-0.3-1.1-0.3-1.5,0c-1.5,0.9-2,2-2.7,3.6c-0.3,0.6,0.2,1.3,0.7,1.7c0.5,0.5,1.1,0.9,1.8,1.1
					c1.2,0.6,2.9-0.7,2-2c-1.1-1.6-2.1-2-4-2c-2.2,0-5.9,0.2-7.8,1.5c-1.3,0.9-0.5,3.4,1.1,2.7c0.4-0.2,0.9-0.3,1.3-0.5
					c1.5-0.6,1.4-2.8-0.4-2.9c-0.5-0.1-1-0.2-1.5-0.4c0.2,0.8,0.4,1.7,0.7,2.5c2.9-2.5,10.4-2.8,11.2-7.6c0.5-3.3-3.5-4.5-5.6-2.4
					c-1.9,2-1.5,6.4,2.1,5.4c3-0.8,3.4-5.7,0.4-6.5c-3.8-1.1-6.8,4.7-4.1,7.4c2.5,2.6,4.8-0.6,4.9-3.2c0.3-11.6-15.3,1.2-7.7,3.6
					c3.6,1.1,5.2-5,2.4-6.7c-3.8-2.4-7.3,3-5.8,6.3c0.2,0.5,0.8,0.8,1.3,0.7c3.4-0.1,6.1-6.6,2.3-8.1c-4-1.6-6.3,5.5-3.9,8.1
					c0.3,0.4,1,0.6,1.4,0.4c3.3-1.2,3.5-7.3-0.5-7.6c-3.2-0.3-7.7,5.4-4.1,7.6c3.5,2.2,6-3.9,3.5-6.2c-3.5-3.1-5.6,3.5-5,6.1
					c0.3,1.6,2.4,1.3,2.9,0c0.9-2.5,1.3-4.7,0.2-7.1c-0.2-0.5-0.8-0.7-1.3-0.7c-2.9-0.2-6.3,3.2-4.5,6.1c0.4,0.6,1,0.8,1.7,0.7
					c2.3-0.4,4.2-4.5,2.7-6.4c-1.9-2.5-5.8-0.3-6.6,2.1c-0.9,2.7,1.4,6.2,4.5,4.8c2.7-1.1,2.9-4.9,0.5-6.4c-6.5-4.3-7.4,9.1-2.2,6.4
					c2.2-1.1,2.5-5.3,0.4-6.7c-3.5-2.3-6.3,2.2-6.2,5.1c0,1.1,1.3,1.8,2.2,1.3c6-3.4-4.2-9.1-4.2-2.2c-0.1,7,9,1.2,3.9-2.4
					c-5.8-4.2-4.8,8.4-0.2,3.9c5.1-5.1-7.9-9.9-5.4-2.4c0.5,1.6,2.8,1.3,2.9-0.4c0.2-4.2-5.1-4.2-8-3.6c-1.5,0.3-1.3,2.5,0,2.9
					c1.1,0.3,1.5,0.3,2.5-0.4c1.1-0.8,0.9-2.2-0.4-2.7c-0.1,0-0.2-0.1-0.2-0.1c-0.6-0.2-1.3,0.2-1.7,0.7c-0.1,0.1-0.1,0.2-0.2,0.3
					c-0.5,0.7-0.1,1.6,0.5,2c1.4,1.1,3,0.5,4.4-0.4c1.3-0.9,0.7-2.6-0.8-2.8c-1.7-0.2-2.7,0.3-3.9,1.6c-0.8,0.9-0.3,2.5,1.1,2.5
					c1.9,0,2.8-0.6,3.8-2.2c0.5-0.7,0.1-2-0.9-2.2c-2.2-0.3-3.3,0.4-4.1,2.4c-0.4,1,0.6,1.8,1.4,1.9c1,0.2,1.9,0.3,2.9,0.5
					C83.6,38.3,84.4,35.5,82.6,35L82.6,35z"/>
			</g>
		</g>
		<g>
			<g>
				<path class="st0" d="M86.2,44.5c0.1,0.1,0.2,0.1,0.3,0.2c0.8,0.4,2,0.1,2.2-0.9c0.2-0.4,0.4-0.8,0.6-1.1
					c0.1,0.4,0.1,0.8,0.2,1.1c-0.2,0-0.5,0-0.7-0.1c0.1-0.4,0.3-0.7,0.4-1.1c-0.1,0.1-0.2,0.2-0.3,0.3c0.4-0.1,0.7-0.3,1.1-0.4
					c-0.1,0-0.2,0-0.4,0c0.4,0.1,0.7,0.3,1.1,0.4c-0.1-0.1-0.2-0.1-0.3-0.2c0.1,0.4,0.3,0.7,0.4,1.1c0.1-0.5,0.1-1,0.2-1.6
					c0.4,0.1,0.7,0.3,1.1,0.4l0.1,0.1c-0.1,0.4-0.1,0.8-0.2,1.1c-0.1-0.1-0.3-0.1-0.4-0.2c0.1-0.4,0.3-0.7,0.4-1.1
					c-0.1,0.1-0.2,0.2-0.2,0.3c0.4-0.1,0.7-0.3,1.1-0.4c0.1,0.5,0.2,1.1,0.2,1.6c0.2-0.7,0.4-1.4,0.5-2c-0.1,0-0.2,0.1-0.2,0.1
					c0.4-0.1,0.8-0.1,1.1-0.2c-0.1,0-0.2-0.1-0.3-0.1c0.3,0.2,0.6,0.5,0.9,0.7c-0.1-0.1-0.1-0.2-0.2-0.2c0.1,0.4,0.1,0.8,0.2,1.1
					c0-0.1,0.1-0.3,0.1-0.4c-0.2,0.3-0.5,0.6-0.7,0.9c-0.1-0.1-0.3-0.1-0.4-0.2c0.1-0.4,0.3-0.7,0.4-1.1c-0.1,0.1-0.2,0.2-0.3,0.3
					c0.4-0.1,0.7-0.3,1.1-0.4c-0.1,0-0.2,0-0.4,0c0.4,0.1,0.7,0.3,1.1,0.4c-0.1-0.1-0.2-0.2-0.2-0.3c0.1,0.4,0.3,0.7,0.4,1.1
					c0-0.1,0-0.3,0-0.4c-0.1,0.4-0.3,0.7-0.4,1.1c0.1-0.1,0.2-0.2,0.3-0.3c-0.4,0.1-0.7,0.3-1.1,0.4c0-0.5,0-1,0-1.5
					c0.6,0.2,1.1,0.5,1.7,0.7c-0.1-0.1-0.1-0.2-0.2-0.3c0.1,0.4,0.1,0.8,0.2,1.1c0.1-0.2,0.2-0.3,0.4-0.5c1.4-1.3-0.7-3.4-2.1-2.1
					c-0.9,0.8-1.6,2-0.8,3.2c0.4,0.6,1,0.8,1.7,0.7c2.5-0.4,1.9-4.4-0.6-4.4c-3.1,0.1-2,5,0.7,3.8c2.7-1.1,0.3-5-2.1-4.4
					c-2.9,0.7-1.3,5,1.3,3.5c0.8-0.4,0.9-1.3,0.5-2c-0.9-2-4-2.4-5-0.3c-1,2.1,1.8,4.4,3.4,2.4c1.8-2.2-1.2-4.1-3.3-3.5
					c-2.4,0.7-2,4.4,0.6,4c2.5-0.3,2.2-3.7,0-4.3c-2-0.5-5,2.2-3.1,4.1c1.8,1.7,4.3-0.9,2.9-2.8c-1.3-1.7-5.1-1-4.7,1.5
					c0.4,2.7,4.6,1.8,4.4-0.8c-0.2-3.2-4.7-2.7-5.2,0.2c0.7-0.3,1.5-0.6,2.2-0.9c-0.1-0.1-0.2-0.1-0.3-0.2
					C86,41,84.5,43.6,86.2,44.5L86.2,44.5z"/>
			</g>
		</g>
		<g>
			<g>
				<path class="st0" d="M134.1,74.6c-0.1-2-0.2-4-0.3-6c-0.1-1.9-3.1-1.9-3,0c0.1,2,0.2,4,0.3,6C131.2,76.5,134.2,76.5,134.1,74.6
					L134.1,74.6z"/>
			</g>
		</g>
		<g>
			<g>
				<path class="st0" d="M112.6,103.4c0.1-2-0.4-5.7,0.4-7.5c0.8-1.7,2.2-1.9,3.6-2.6c3.1-1.4,5.7-3.5,8-5.9c-0.8-0.5-1.7-1-2.5-1.4
					c-0.5,3.3-2.2,5.7-5.1,7.3c0.7,0.4,1.5,0.9,2.2,1.3c0.1-0.2,0.2-0.4,0.2-0.6c-0.8-0.4-1.7-0.7-2.5-1.1c0.2,0.8,0.4,1.7,0.6,2.5
					c-0.9-0.4-1.8-0.8-2.7-1.1c0.1,0.4,0.3,0.9,0.4,1.3c-0.5-0.4-1-0.7-1.4-1.1c-0.1,0.2-0.1,0.5-0.2,0.7c0.9,0,1.7,0,2.6,0
					c-0.1-0.2-0.2-0.3-0.3-0.5c-0.5,0.4-1,0.7-1.4,1.1c0-0.1,0-0.2-0.1-0.3c0.1,0.6,0.2,1.2,0.2,1.8c0.1-0.2,0.2-0.4,0.3-0.6
					c-0.9-0.3-1.8-0.5-2.8-0.8c0,0.3,0,0.6-0.1,0.9c0.9-0.3,1.8-0.5,2.8-0.8c0-0.2,0-0.4-0.1-0.7c-1,0-1.9,0-2.9,0
					c0.9,4.7,1.8,8.7,3.9,13.1c1.1,2.3,1.3,4.6,2.1,6.9c0.6,1.9,2.2,3.5,2.5,5.4c0.9-0.4,1.8-0.8,2.7-1.1c-1.6-2.3,0-8,0.3-10.6
					c0.4-3.6,0.8-7.2,1.5-10.8c1.1-5.2,3.7-9.9,4.3-15.3c0.2-1.8-2.4-1.9-2.9-0.4c-0.7,1.8-1.3,3.5-2,5.3c1,0.3,1.9,0.5,2.9,0.8
					c0.3-1.4,0.6-2.6,1-3.9c0.5-1.6-2-2.7-2.7-1.1c-0.5,1-1,2-1.5,3.1c0.9,0.4,1.8,0.8,2.7,1.1c0.5-1.4,0.9-2.9,1.4-4.3
					c-1-0.3-1.9-0.5-2.9-0.8c-0.3,0.7-0.6,1.5-0.9,2.2c0.9,0.4,1.8,0.8,2.7,1.1c0.2-0.6,0.4-1.2,0.6-1.8c0.5-1.6-1.9-2.6-2.7-1.1
					c-0.5,0.8-0.7,1.2-1,2.1c-0.6,1.5,2,2.7,2.7,1.1c1.6-3.7,2.8-7.3,3.6-11.3c0.4-1.9-2.4-2.7-2.9-0.8c-0.7,2.5-1.3,5-1.8,7.5
					c-0.4,1.9,2.4,2.7,2.9,0.8c0.3-1.4,0.7-2.8,1-4.2c0.4-1.9-2.2-2.6-2.9-0.8c-0.7,1.8-1.3,3.7-2,5.5c1,0.3,1.9,0.5,2.9,0.8
					c0.4-1.5,0.9-3,1.3-4.4c0.5-1.6-1.9-2.6-2.7-1.1c-0.7,1.3-0.7,1.2-0.9,2.6c-0.3,1.9,2.2,2.6,2.9,0.8c0.6-1.6,1-3.2,1.4-4.9
					c0.4-1.9-2.2-2.5-2.9-0.8c-0.4,1.1-0.8,2.1-1.3,3.2c1,0.3,1.9,0.5,2.9,0.8c0.9-2.6,1.4-5.3,1.7-8c0.2-1.7-2.5-2-2.9-0.4
					c-0.4,1.7-0.9,3.3-1.5,4.9c1,0.3,1.9,0.5,2.9,0.8c1.3-4.5,2.1-9.2,2-13.9c0-2.5,0.3-6.2-2.1-7.7c-0.4-0.3-1.1-0.3-1.5,0
					c-2.7,2-1,5.8-0.9,8.7c0.1,5.5-1.5,10.7-0.5,16.3c0.2,1.2,2.2,1.5,2.7,0.4c0.6-1.4,1.2-2.9,1.9-4.3c-0.9-0.3-1.8-0.5-2.8-0.8
					c0,4-0.2,8-0.6,12c-0.1,1.2,1.3,1.7,2.2,1.3c2.7-1.2,2.2-7.7,2.6-10.2c-1-0.1-1.9-0.3-2.9-0.4c0.2,3.5,0.7,6.7,1.6,10.1
					c0.4,1.3,2.6,1.5,2.9,0c0.4-2.2,0.7-4.4,0.9-6.6c0.2-1.9-2.8-1.9-3,0c-0.4,4-2.3,9.8-0.5,13.5c0.7,1.4,2.7,0.6,2.8-0.8
					c0.2-3.8,0.4-7.6,0.4-11.3c-1,0-2,0-3,0c0.2,4.6,0.3,9.1,0.1,13.7c1-0.1,1.9-0.3,2.9-0.4c-0.7-3.1-1.1-6.1-1.2-9.3
					c-1,0.1-1.9,0.3-2.9,0.4c0.7,3.1,1,6,0.9,9.2c-0.1,1.9,2.8,1.9,3,0c0.2-2.3,0.4-4.7,0.5-7c-1,0-2,0-3,0c0.3,3.1,0.4,6.1,0.3,9.1
					c1-0.1,1.9-0.3,2.9-0.4c-1-4.4,0.2-8.8-2.3-12.9c-0.6-1-2.5-1-2.7,0.4c-0.4,2.7-0.8,5.4-1.1,8c1,0,1.9,0,2.9,0
					c-0.6-2.3-0.9-4.6-0.7-7c-1,0-2,0-3,0c0,0.8-0.1,1.6-0.1,2.5c1,0.1,1.9,0.3,2.9,0.4c0.1-2.2,0.4-3.7,1.1-5.7c-1,0-1.9,0-2.9,0
					c0.4,3,1.1,5.5,3.1,7.8c0.9,1.1,2.5,0.1,2.5-1.1c0.5-7-0.3-13.8-2.2-20.5c-0.4-1.6-3.1-1.3-2.9,0.4c0.2,1.9,0.3,3.8,0.5,5.7
					c0.1,1.6,2.5,2.1,2.9,0.4c0.2-0.7,0.4-1.5,0.6-2.2c-1,0-1.9,0-2.9,0c0.2,1,0.5,2,0.7,3.1c0.4,1.6,3.1,1.3,2.9-0.4
					c-0.8-9.6-2-19.1-3.6-28.6c-0.3-1.6-3.1-1.3-2.9,0.4c0.2,2.4,0.4,4.9,0.6,7.3c0.1,1.9,3.1,1.9,3,0c-0.2-2.4-0.4-4.9-0.6-7.3
					c-1,0.1-1.9,0.3-2.9,0.4c1.5,9.2,2.7,18.5,3.5,27.8c1-0.1,1.9-0.3,2.9-0.4c-0.2-1-0.5-2-0.7-3.1c-0.3-1.4-2.5-1.4-2.9,0
					c-0.2,0.7-0.4,1.5-0.6,2.2c1,0.1,1.9,0.3,2.9,0.4c-0.2-1.9-0.3-3.8-0.5-5.7c-1,0.1-1.9,0.3-2.9,0.4c1.9,6.5,2.5,13,2.1,19.7
					c0.8-0.4,1.7-0.7,2.5-1.1c-1.7-2-2-4.1-2.3-6.5c-0.2-1.6-2.4-1.2-2.9,0c-0.8,2.2-1.2,4.2-1.2,6.5c-0.1,1.7,2.6,2.1,2.9,0.4
					c0.4-1.7,0.4-1.5,0.2-3.2c-0.2-1.9-2.9-2-3,0c-0.2,2.8,0.1,5.1,0.8,7.8c0.4,1.3,2.7,1.5,2.9,0c0.4-2.7,0.8-5.4,1.1-8
					c-0.9,0.1-1.8,0.2-2.7,0.4c2.2,3.6,1.1,8.2,2,12.2c0.4,1.7,2.9,1.2,2.9-0.4c0.1-3.1,0-6.1-0.3-9.1c-0.2-1.9-2.8-1.9-3,0
					c-0.2,2.3-0.4,4.7-0.5,7c1,0,2,0,3,0c0.1-3.4-0.2-6.7-1-10c-0.4-1.6-2.9-1.3-2.9,0.4c0,3.4,0.4,6.7,1.3,10
					c0.4,1.7,2.8,1.2,2.9-0.4c0.2-4.6,0.2-9.1-0.1-13.7c-0.1-1.9-2.9-1.9-3,0c-0.1,3.8-0.2,7.6-0.4,11.3c0.9-0.3,1.8-0.5,2.8-0.8
					c-1.2-2.6,0.6-9.2,0.9-12c-1,0-2,0-3,0c-0.2,1.9-0.4,3.9-0.8,5.8c1,0,1.9,0,2.9,0c-0.9-3.1-1.4-6.1-1.5-9.3
					c-0.1-1.6-2.7-2.1-2.9-0.4c-0.2,1.1-0.5,8.1-1.2,8.4c0.7,0.4,1.5,0.9,2.2,1.3c0.4-4,0.6-8,0.6-12c0-1.4-2.2-2.2-2.8-0.8
					c-0.6,1.4-1.2,2.9-1.9,4.3c0.9,0.1,1.8,0.2,2.7,0.4c-0.7-3.5-0.2-6.7,0.2-10.1c0.3-2.4,1.1-5.9,0.1-8.2c0.1-0.6-0.1-1-0.7-1.1
					c-0.9-0.8-1.1-0.4-0.5,1.3c-0.2,1.4,0.1,2.9,0,4.3c-0.2,3.6-0.9,7.1-1.9,10.5c-0.6,1.9,2.2,2.6,2.9,0.8c0.6-1.6,1.1-3.2,1.5-4.9
					c-1-0.1-1.9-0.3-2.9-0.4c-0.3,2.5-0.9,4.8-1.6,7.2c-0.6,1.9,2.2,2.5,2.9,0.8c0.4-1.1,0.8-2.1,1.3-3.2c-1-0.3-1.9-0.5-2.9-0.8
					c-0.4,1.7-0.8,3.2-1.4,4.9c1,0.3,1.9,0.5,2.9,0.8c0.2-0.6,0.4-1.3,0.6-1.9c-0.9-0.4-1.8-0.8-2.7-1.1c-0.4,1.5-0.9,3-1.3,4.4
					c-0.5,1.9,2.2,2.6,2.9,0.8c0.7-1.8,1.3-3.7,2-5.5c-1-0.3-1.9-0.5-2.9-0.8c-0.3,1.4-0.7,2.8-1,4.2c1,0.3,1.9,0.5,2.9,0.8
					c0.5-2.5,1.1-5,1.8-7.5c-1-0.3-1.9-0.5-2.9-0.8c-0.7,3.7-1.8,7.1-3.3,10.6c0.9,0.4,1.8,0.8,2.7,1.1c0.2-0.4,0.5-0.9,0.7-1.3
					c-0.9-0.4-1.8-0.8-2.7-1.1c-0.2,0.6-0.4,1.2-0.6,1.8c-0.5,1.6,1.9,2.7,2.7,1.1c0.7-1.3,0.8-1.5,1.2-2.9c0.5-1.8-2.3-2.6-2.9-0.8
					c-0.5,1.4-0.9,2.9-1.4,4.3c-0.5,1.6,2,2.7,2.7,1.1c0.5-1,1-2,1.5-3.1c-0.9-0.4-1.8-0.8-2.7-1.1c-0.4,1.3-0.8,2.6-1,3.9
					c-0.3,1.9,2.2,2.6,2.9,0.8c0.7-1.8,1.3-3.5,2-5.3c-1-0.1-1.9-0.3-2.9-0.4c-0.4,4-2.2,7.3-3.3,11c-0.9,3-1.3,6.1-1.7,9.2
					c-0.5,3.9-1,7.8-1.4,11.7c-0.2,2.3-0.6,4.2,0.8,6.2c1,1.4,3.1,0.5,2.7-1.1c-0.3-1.7-1.4-2.8-2.1-4.3c-1-2.1-1.1-4.5-1.9-6.6
					c-0.8-2.2-2.3-4.1-3-6.3c-0.8-2.6-1.1-5.4-1.7-8.1c-0.3-1.6-2.4-1.2-2.9,0c-0.5,1.4-0.5,1.7,0.4,2.9c0.9,1.2,2.7,0.8,2.8-0.8
					c0-0.3,0-0.6,0.1-0.9c0.1-1.5-2.1-2-2.8-0.8c-0.1,0.2-0.2,0.4-0.3,0.6c-0.3,0.6-0.2,1.3,0.2,1.8c0.2,0.2,0.4,0.4,0.5,0.6
					c0.3,0.4,1,0.5,1.4,0.4c3-0.9,4.3-6.2,0.2-5.8c-0.6,0.1-1.3,0.4-1.4,1.1c-0.2,1.3-0.2,1.6,0.6,2.8c0.6,0.9,2,1,2.6,0
					c0.6-1.2,0.7-1.6,0.5-3c-0.1-0.6-0.8-1.2-1.4-1.1c-6.7,0.9,0.9,8.9,2.5,2.4c0.4-1.7-1.7-2.5-2.7-1.1c-1.1,1.5-1.6,4.3,1.1,4.4
					c2.7,0.2,3.9-3.4,3.9-5.5c0-1.3-1.6-2-2.5-1.1c-1,1-1.2,1.3-1.1,2.8c0.1,1.1,1.2,1.8,2.2,1.3c3.6-1.9,5.8-5,6.5-9
					c0.2-1.4-1.4-2.6-2.5-1.4c-1.8,1.8-3.8,3.5-6.1,4.7c-1.6,0.8-3.8,1.2-5.1,2.5c-2.5,2.4-1.5,7.7-1.7,10.8
					C109.6,105.4,112.5,105.3,112.6,103.4L112.6,103.4z"/>
			</g>
		</g>
		<g>
			<g>
				<path class="st0" d="M129,46c-0.4-1.1-0.7-2.2-1.1-3.3c-1,0.3-1.9,0.5-2.9,0.8c0.8,1.9,1.6,3.6,2.7,5.4c1,1.7,3.4,0.2,2.6-1.5
					c-1.4-2.9-3.1-5.6-5-8.1c-0.9-1.2-3.4-0.6-2.7,1.1c1.5,3.9,2.6,7.8,3.4,11.8c1-0.3,1.9-0.5,2.9-0.8c-0.7-2-1.6-3.5-3.1-5
					c-1-1-3,0-2.5,1.4c0.4,1.4,0.9,2.6,1.6,3.9c0.7,1.5,3.4,0.4,2.7-1.1c-0.7-1.8-1.6-3.4-2.7-5c-0.6-0.8-2-1.1-2.6,0
					c-0.8,1.6,0.2,3.1,0.8,4.7c1.2,3.2,2.5,6.5,3.7,9.7c0.6,1.6,2.7,1.3,2.9-0.4c0.3-2.6,0.2-4.9-0.4-7.5c-1,0.3-1.9,0.5-2.9,0.8
					c0.5,1.6,1.1,3.1,1.6,4.7c0.5,1.6,2.8,1.3,2.9-0.4c0.1-2.4,0-4.7-0.5-7c-0.3-1.6-3-1.3-2.9,0.4c0.1,1.4,0.3,2.6,0.6,4
					c0.5,1.9,3.2,1.1,2.9-0.8c-0.2-1.3-0.5-2.6-0.9-3.9c-0.5-1.9-3.1-1.1-2.9,0.8c0.1,1,0.3,1.9,0.4,2.9c0.3,1.9,3.2,1.1,2.9-0.8
					c-0.1-1-0.3-1.9-0.4-2.9c-1,0.3-1.9,0.5-2.9,0.8c0.4,1.3,0.7,2.6,0.9,3.9c1-0.3,1.9-0.5,2.9-0.8c-0.3-1-0.5-2.1-0.5-3.2
					c-1,0.1-1.9,0.3-2.9,0.4c0.4,2.1,0.5,4.1,0.4,6.2c1-0.1,1.9-0.3,2.9-0.4c-0.5-1.6-1.1-3.1-1.6-4.7c-0.6-1.8-3.3-1.1-2.9,0.8
					c0.5,2.3,0.6,4.4,0.3,6.7c1-0.1,1.9-0.3,2.9-0.4c-0.9-2.3-1.8-4.6-2.6-6.9c-0.4-0.9-0.7-1.8-1.1-2.8c-0.2-0.5-0.8-3-1.1-2.4
					c-0.9,0-1.7,0-2.6,0c1,1.4,1.8,2.7,2.4,4.3c0.9-0.4,1.8-0.8,2.7-1.1c-0.5-1-0.9-2.1-1.3-3.2c-0.8,0.5-1.7,1-2.5,1.4
					c1.1,1.1,1.9,2.2,2.4,3.7c0.6,1.8,3.2,1.1,2.9-0.8c-0.8-4-1.9-8-3.4-11.8c-0.9,0.4-1.8,0.8-2.7,1.1c1.9,2.6,3.6,5.2,5,8.1
					c0.9-0.5,1.7-1,2.6-1.5c-0.9-1.5-1.7-3-2.4-4.7c-0.7-1.7-3.5-1.1-2.9,0.8c0.4,1.1,0.7,2.2,1.1,3.3C126.8,48.6,129.6,47.9,129,46
					L129,46z"/>
			</g>
		</g>
		<g>
			<g>
				<path class="st0" d="M88.3,35c-0.1,0-0.1,0-0.2,0c-0.4-0.5-0.7-1-1.1-1.4c-0.7,0-1.4-0.1-2-0.1c-0.2,0.8-0.4,1.7-0.7,2.5
					c0.3,0,0.6-0.1,0.9-0.1c-0.5-0.8-1-1.7-1.4-2.5c-0.7,0.7-1.3,1.4-2,2.2c-0.5-0.8-1-1.7-1.4-2.5L80.3,33c0,0.9,0,1.7,0,2.6
					c6.8-3.1,13.9-4.5,21.4-4.4c-0.3-0.9-0.5-1.8-0.8-2.8c-2.5,1.4-4.6,1.7-7.3,1c-0.3,1-0.5,1.9-0.8,2.9c2.4,0.5,4.7,1.1,7,2
					c-0.3-0.7-0.6-1.5-0.9-2.2c-0.2,0.3-6.2-0.8-6.8-0.8c0,1,0,2,0,3c2.5,0.3,4.5,0.7,6.8,1.5c0-1,0-1.9,0-2.9
					c-2.9,0.5-5-0.4-7.5-1.4c-0.3,1-0.5,1.9-0.8,2.9c1.4,0.3,5.3,2.1,1.5-1.1c-0.2,0.8-0.4,1.7-0.7,2.5c1.2-0.3,8.4-1.6,8.9,0.7
					c0.6-0.6,1.2-1.2,1.8-1.8c-1.2-0.7-2.4-1.4-3.6-2.2c-0.3,0.7-0.6,1.5-0.9,2.2c2.9-0.5,5.6,0.1,8.1,1.7c0.4-0.9,0.8-1.8,1.1-2.7
					c-2.3-0.4-3.2-1.6-4.5-3.2c-0.5,0.8-1,1.7-1.4,2.5c2,0.6,3.8,1.5,5.6,2.7c0.5-0.9,1-1.7,1.5-2.6c-1.6-1-3.1-2.1-4.4-3.5
					c-0.5,0.8-1,1.7-1.4,2.5c1.5,0.1,2.8,0.6,3.9,1.6c0.5-0.9,1-1.7,1.5-2.6c-1.3-0.8-2.4-1.8-3.3-3c-0.4,0.8-0.7,1.7-1.1,2.5
					c2.3,0,4.5,1.8,6.5,2.8c2.5,1.2,5,2,5.9,5.1c0.7-0.6,1.5-1.1,2.2-1.7c-2.6-1.2-5.1-2.3-7.7-3.5c-1.7-0.8-3.2,1.7-1.5,2.6
					c2.4,1.2,4.7,2.5,6.9,3.9c0.5-0.9,1-1.7,1.5-2.6c-2.4-1.1-4.3-2.5-6-4.5c-0.5,0.8-1,1.7-1.4,2.5c1.5,0.2,2.9,0.6,4.2,1.4
					c1.7,0.9,3.1-1.5,1.5-2.6c-2-1.4-5-2-6.5-4c-0.2,0.7-0.4,1.4-0.5,2c1.5-1.1,10,6.2,11.2,7.1c1.4,1,3-1.2,1.8-2.3
					c-2.6-2.5-5.2-4.8-8.4-6.5c-0.4,0.9-0.8,1.8-1.1,2.7c4.8,1.8,8.3,5,10.6,9.6c0.9,1.7,3.4,0.2,2.6-1.5c-2.6-5.3-6.8-8.9-12.3-11
					c-1.6-0.6-2.6,1.9-1.1,2.7c3,1.6,5.4,3.7,7.8,6c0.6-0.8,1.2-1.6,1.8-2.3c-3.1-2.2-6.6-5.8-10.2-7.3c-1.5-0.6-2.7-0.8-4,0.2
					c-0.6,0.4-1,1.3-0.5,2c1.9,2.7,4.9,3.2,7.5,5c0.5-0.9,1-1.7,1.5-2.6c-1.7-0.9-3.1-1.4-4.9-1.7c-1.5-0.3-2.5,1.3-1.4,2.5
					c1.9,2.2,4,3.7,6.6,5c1.7,0.8,3.1-1.5,1.5-2.6c-2.2-1.4-4.6-2.7-6.9-3.9c-0.5,0.9-1,1.7-1.5,2.6c2.6,1.2,5.1,2.3,7.7,3.5
					c1.1,0.5,2.6-0.3,2.2-1.7c-0.8-2.8-2.6-4.5-5.2-5.9c-3.1-1.6-6.6-4.2-10.1-4.1c-1.3,0-1.9,1.6-1.1,2.5c1.2,1.4,2.4,2.4,3.9,3.5
					c1.6,1.1,3.1-1.5,1.5-2.6c-1.5-1.1-2.8-1.6-4.6-1.9c-1.4-0.2-2.6,1.4-1.4,2.5c1.6,1.5,3.2,2.8,5,3.9c1.6,1,3.1-1.5,1.5-2.6
					c-2-1.4-4-2.3-6.3-3c-1.5-0.5-2.3,1.4-1.4,2.5c1.7,2,3.2,3.5,5.8,4c1.6,0.3,2.7-1.8,1.1-2.7c-3.3-2-6.6-2.6-10.4-2
					c-0.9,0.1-1.4,1.5-0.9,2.2c1.5,2,2.9,3,5.3,3.5c1.2,0.2,2-0.7,1.8-1.8c-0.9-4.6-9.6-3.5-12.5-2.8c-1,0.3-1.5,1.8-0.7,2.5
					c1.7,1.5,6.5,4.4,8.1,1.3c2-3.6-4.8-4.8-6.8-5.2c-1.9-0.4-2.5,2.2-0.8,2.9c3.2,1.3,5.7,1.9,9,1.4c1.6-0.3,1.3-2.5,0-2.9
					c-2.5-0.8-4.9-1.3-7.6-1.6c-1.9-0.2-1.9,2.8,0,3c2.5,0.3,7.7,2.2,9.4-0.6c0.5-0.9,0-1.9-0.9-2.2c-2.3-0.8-4.6-1.5-7-2
					c-1.9-0.4-2.7,2.4-0.8,2.9c3.5,0.8,6.5,0.4,9.6-1.3c1.3-0.7,0.7-2.7-0.8-2.8c-8-0.1-15.6,1.5-22.9,4.8c-1.1,0.5-0.8,2,0,2.6
					c1.3,1,2.6,0.8,3.7-0.4c1-1,0-3-1.4-2.5c-3,1.1-1.7,5.2,1.5,4.4c3.4-0.8,3.4-6.2-0.3-5.1c-0.5,0.1-0.9,0.5-1,1
					c-0.7,3.1,2.6,4.7,4.8,2.5c1.1-1.1,0-2.7-1.4-2.5c-0.3,0-0.6,0.1-0.9,0.1c-1.2,0.2-1.3,1.7-0.7,2.5c2.4,2.6,7,2.2,7.1-2
					c0-0.7-0.5-1.2-1.1-1.4c-2.4-0.8-4.9,1.8-4.2,4.2c1,3.1,4.7,1.9,5.8-0.5c3.6-7.6-10.1-3.6-4.3,1.2C87.7,38.3,89.8,36.2,88.3,35
					L88.3,35z"/>
			</g>
		</g>
		<g>
			<g>
				<path class="st1" d="M128.9,125c-6.1,3.4-13.2,4.4-20.2,4c-0.8,0-0.8,1.1,0,1.2c7.2,0.4,14.4-0.6,20.8-4.1
					C130.1,125.6,129.5,124.6,128.9,125L128.9,125z"/>
			</g>
		</g>
		<g>
			<g>
				<path class="st1" d="M69.1,124.9c6.3,3.6,13.6,4.7,20.8,4.2c0.8,0,0.8-1.2,0-1.2c-7,0.4-14-0.6-20.2-4.1
					C69,123.5,68.4,124.5,69.1,124.9L69.1,124.9z"/>
			</g>
		</g>
		<g>
			<g>
				<g>
					<path class="st1" d="M69.8,124c-7.8-8.9-6.1-23.3-5.8-34.3c0.3-12.8,1.6-25.6,3.5-38.3c0.1-0.7-1-1.1-1.1-0.3
						c-2.2,14.1-3.4,28.2-3.6,42.4c-0.1,10.4-1.1,22.9,6.2,31.3C69.5,125.4,70.3,124.5,69.8,124L69.8,124z"/>
				</g>
			</g>
			<g>
				<g>
					<path class="st1" d="M67.4,52.7c2.9-15.5,16.6-25.6,32.2-24c0.8,0.1,0.8-1.1,0-1.2c-16.1-1.7-30.4,8.9-33.4,24.8
						C66.1,53.1,67.3,53.5,67.4,52.7L67.4,52.7z"/>
				</g>
			</g>
			<g>
				<g>
					<path class="st1" d="M80.4,94.5c-4.5-7.3-5.6-18.3-5.8-26.8c-0.2-9.5,2.7-18.6,7.9-26.5c0.4-0.6-0.6-1.2-1-0.6
						c-5.4,8-8.3,17.4-8.1,27.1c0.2,8.8,1.3,19.8,5.9,27.4C79.7,95.7,80.8,95.2,80.4,94.5L80.4,94.5z"/>
				</g>
			</g>
			<g>
				<g>
					<path class="st1" d="M79.9,45.7c1.1,1.1,2.6,0.8,3.9,0.3c0.7-0.3,0.4-1.4-0.3-1.1c-0.9,0.3-2,0.8-2.8,0
						C80.2,44.3,79.4,45.1,79.9,45.7L79.9,45.7z"/>
				</g>
			</g>
			<g>
				<g>
					<path class="st1" d="M83.9,46.4c1.5,0.5,3,0.4,4.4-0.3c0.7-0.3,0.1-1.4-0.6-1c-1.1,0.6-2.3,0.6-3.5,0.2
						C83.5,44.9,83.2,46.1,83.9,46.4L83.9,46.4z"/>
				</g>
			</g>
			<g>
				<g>
					<path class="st1" d="M88.6,46.5c0.8-0.1,1.6,0.2,2.4,0.1c0.9-0.2,1.7-0.6,2.6-0.3c0.7,0.2,1.1-1,0.3-1.1
						c-0.9-0.2-1.7,0-2.5,0.2c-0.6,0.1-1.1,0.2-1.7,0.1c-0.5-0.1-0.9-0.1-1.4,0C87.5,45.4,87.8,46.6,88.6,46.5L88.6,46.5z"/>
				</g>
			</g>
			<g>
				<g>
					<path class="st1" d="M93.4,45.9c1.4,1.8,3.4-0.3,5-0.1c0.8,0.1,0.8-1.1,0-1.2c-0.8-0.1-1.4,0.2-2.1,0.4c-0.7,0.3-1.6,0.7-2.1,0
						C93.8,44.5,93,45.3,93.4,45.9L93.4,45.9z"/>
				</g>
			</g>
			<g>
				<g>
					<path class="st1" d="M98,45.7c1.6,0.7,3.5,1.4,5.1,0.2c0.6-0.4,0-1.5-0.6-1c-1.2,0.9-2.7,0.3-3.9-0.2
						C98,44.4,97.3,45.4,98,45.7L98,45.7z"/>
				</g>
			</g>
			<g>
				<g>
					<path class="st1" d="M102.7,45.5c0.5,0.7,1.2,1,2,1c1.1-0.1,2.4-1.3,3.5-0.7c0.7,0.4,1.3-0.6,0.6-1c-0.7-0.4-1.4-0.4-2.1-0.2
						c-0.8,0.2-2.3,1.3-2.9,0.3C103.3,44.3,102.2,44.9,102.7,45.5L102.7,45.5z"/>
				</g>
			</g>
			<g>
				<g>
					<path class="st1" d="M108.7,46c1.5,0.8,3.4,0.1,4-1.6c0.3-0.7-0.9-1-1.1-0.3c-0.3,0.9-1.5,1.3-2.3,0.8
						C108.6,44.6,108,45.7,108.7,46L108.7,46z"/>
				</g>
			</g>
			<g>
				<g>
					<path class="st1" d="M132,52.4c-3-16-17.2-26.6-33.4-24.8c-0.8,0.1-0.8,1.3,0,1.2c15.6-1.7,29.4,8.5,32.2,24
						C130.9,53.5,132.1,53.1,132,52.4L132,52.4z"/>
				</g>
			</g>
			<g>
				<g>
					<path class="st1" d="M129.4,126.1c7.3-8.4,6.4-20.8,6.2-31.3c-0.2-14.2-1.5-28.4-3.6-42.4c-0.1-0.8-1.3-0.4-1.1,0.3
						c2,12.7,3.2,25.4,3.5,38.3c0.3,11,1.9,25.4-5.8,34.3C128,125.9,128.8,126.7,129.4,126.1L129.4,126.1z"/>
				</g>
			</g>
			<g>
				<g>
					<path class="st1" d="M120.8,94.9c4.7-7.6,5.7-18.6,5.9-27.4c0.2-9.7-2.7-19-8.1-27.1c-0.4-0.6-1.5,0-1,0.6
						c5.3,7.9,8.2,16.9,7.9,26.5c-0.2,8.5-1.2,19.4-5.8,26.8C119.4,95,120.4,95.6,120.8,94.9L120.8,94.9z"/>
				</g>
			</g>
			<g>
				<g>
					<path class="st1" d="M112.2,45.7c0.8,0,0.8-1.2,0-1.2C111.4,44.5,111.4,45.7,112.2,45.7L112.2,45.7z"/>
				</g>
			</g>
			<g>
				<g>
					<path class="st1" d="M111.8,45.3c1.2,1.4,3.7,0.7,5.2,0.6c0.8-0.1,0.8-1.2,0-1.2c-0.8,0.1-1.7,0.1-2.5,0.2
						c-0.7,0-1.4,0.1-1.9-0.4C112.2,43.9,111.3,44.7,111.8,45.3L111.8,45.3z"/>
				</g>
			</g>
			<g>
				<g>
					<path class="st1" d="M116.8,44.2c-0.2,0.7,0.2,1.4,0.9,1.8c0.9,0.4,1.9-0.1,2.7,0.3c0.7,0.3,1.3-0.7,0.6-1
						c-0.5-0.2-0.9-0.3-1.5-0.3c-0.3,0-1.8,0.2-1.6-0.4C118.1,43.7,117,43.4,116.8,44.2L116.8,44.2z"/>
				</g>
			</g>
			<g>
				<g>
					<path class="st1" d="M75.1,84.5c2.3,1.8,4.4,3.8,6.8,5.5c2.2,1.6,5,2.4,7.5,3.4c0.7,0.3,1-0.9,0.3-1.1c-2.4-1-5.1-1.8-7.2-3.3
						c-2.3-1.6-4.4-3.6-6.6-5.3C75.4,83.2,74.5,84,75.1,84.5L75.1,84.5z"/>
				</g>
			</g>
			<g>
				<g>
					<path class="st1" d="M89,93.2c0.2,3.7,0.2,7.5,0.1,11.2c0,0.8,1.2,0.8,1.2,0c0.1-3.8,0.1-7.5-0.1-11.2
						C90.1,92.4,88.9,92.4,89,93.2L89,93.2z"/>
				</g>
			</g>
			<g>
				<g>
					<path class="st1" d="M110.3,103.5c-0.2-0.7,0.3-1.6,0.5-2.3c0.1-0.5,0.1-1.1,0.1-1.6c0-1.9-0.3-3.8,0-5.8
						c0.1-0.7-1-1.1-1.1-0.3c-0.3,2.1,0,4,0,6.1c0,1-0.2,1.7-0.5,2.7c-0.2,0.6-0.2,1,0,1.6C109.5,104.6,110.6,104.2,110.3,103.5
						L110.3,103.5z"/>
				</g>
			</g>
			<g>
				<g>
					<path class="st1" d="M123.9,82.9c-1.1,2.7-4.3,4.4-6.7,5.9c-2.4,1.5-5,2.8-7.6,3.9c-0.7,0.3-0.4,1.4,0.3,1.1
						c3.4-1.4,6.6-3.1,9.6-5.2c2.1-1.5,4.5-3,5.5-5.5C125.4,82.5,124.2,82.2,123.9,82.9L123.9,82.9z"/>
				</g>
			</g>
			<g>
				<g>
					<path class="st1" d="M109.1,129.1c-2.7-0.4-0.5-5-0.1-6.8s0.8-3.7,1-5.5c0.6-4.3,0.6-8.7,0.3-13c-0.1-0.8-1.2-0.8-1.2,0
						c0.3,4.9,0.2,9.8-0.6,14.6c-0.6,3.7-2.1,7.3-2.3,11.1c0,0.4,0.3,0.6,0.6,0.6c0.7,0.1,1.4,0.2,2.2,0.3
						C109.8,130.4,109.8,129.2,109.1,129.1L109.1,129.1z"/>
				</g>
			</g>
			<g>
				<g>
					<path class="st1" d="M90.4,129.3c0.7-0.1,1.4-0.2,2.2-0.3c0.3,0,0.6-0.2,0.6-0.6c-0.2-3.8-1.7-7.4-2.3-11.1
						c-0.8-4.9-0.9-9.7-0.6-14.6c0.1-0.8-1.1-0.8-1.2,0c-0.3,4.4-0.3,8.7,0.3,13c0.3,1.9,0.6,3.7,1,5.5s2.7,6.5-0.1,6.8
						C89.7,128.2,89.7,129.4,90.4,129.3L90.4,129.3z"/>
				</g>
			</g>
		</g>
		<g>
			<g>
				<path class="st0" d="M79.8,39.3C79.8,39.4,79.9,39.3,79.8,39.3c0.1-0.1,0.2-0.4,0.2-0.3c0.1-0.1,0.3-0.3,0.4-0.4
					c0.6-0.5,0.5-1.4,0.1-2c-0.5-0.6-1.3-0.8-1.9-0.4c-0.1,0.1-0.2,0.1-0.3,0.2c-0.7,0.4-0.9,1.3-0.5,2s1.3,0.9,2,0.5
					c0.1-0.1,0.2-0.1,0.3-0.2c-0.6-0.8-1.2-1.6-1.8-2.3c-0.7,0.6-1.1,1.3-1.4,2.1c-0.3,0.7,0.3,1.6,1,1.8
					C78.9,40.6,79.6,40.1,79.8,39.3L79.8,39.3z"/>
			</g>
		</g>
		<g>
			<g>
				<path class="st0" d="M81.3,118.8c0-1.1-0.1-2.2-0.1-3.3c-0.1-1.9-3.1-1.9-3,0c0,1.1,0.1,2.2,0.1,3.3
					C78.4,120.7,81.4,120.7,81.3,118.8L81.3,118.8z"/>
			</g>
		</g>
		<g>
			<g>
				<path class="st0" d="M81.5,111.1c-0.2-0.2-0.4-0.5-0.6-0.7c-0.4-0.5-1.1-0.5-1.6-0.3c-0.6,0.2-0.9,0.8-0.9,1.4s0,1.1-0.1,1.7
					c0,0.8,0.7,1.5,1.5,1.5s1.5-0.7,1.5-1.5c0-0.6,0-1.1,0.1-1.7c-0.8,0.4-1.7,0.7-2.5,1.1c0.2,0.2,0.4,0.5,0.6,0.7
					c0.5,0.6,1.6,0.5,2.1,0C82.1,112.6,82,111.8,81.5,111.1L81.5,111.1z"/>
			</g>
		</g>
		<g>
			<g>
				<path class="st0" d="M80.5,111.9c-0.1-0.2-0.2-0.3-0.4-0.5c-0.3,0.6-0.7,1.2-1,1.8c0.1,0,0.1,0,0.2,0c-0.5-0.1-1-0.3-1.4-0.4
					c0.2,0.2,0.4,1.1,0.5,1.3c0.6,1.8,3.3,1.1,2.9-0.8c-0.1-0.5-0.2-1-0.2-1.5c-0.5,0.5-1,1-1.5,1.5c-0.7-0.5-0.8-0.5-0.3,0.1
					c0.2,0.3,0.3,0.6,0.5,0.9c0.3,0.5,0.5,1,0.7,1.6c0.2,0.5,0.3,1,0.5,1.5c0.1,0.2,0.3,1.9,0.6,1.3c0.3-0.2,0.6-0.5,0.9-0.7
					c-0.3,0.1-1.2-0.2-1.5-0.3c-0.6-0.1-1.3-0.2-1.9-0.3c-1.9-0.3-2.7,2.6-0.8,2.9c1.4,0.2,3.4,1,4.8,0.7c1.5-0.4,1.4-1.9,1.1-3.1
					c-0.4-1.7-0.9-3.3-1.7-4.9c-0.6-1.2-1.3-2.9-2.8-2.8c-0.8,0.1-1.5,0.6-1.5,1.5c0,0.8,0.1,1.5,0.3,2.3c1-0.3,1.9-0.5,2.9-0.8
					c-0.5-1.5-0.9-3.4-2.9-3c-0.8,0.1-1.2,1.1-1,1.8c0.2,0.8,0.5,1.3,1.1,1.8C79.8,115.2,82,113.1,80.5,111.9L80.5,111.9z"/>
			</g>
		</g>
		<g>
			<g>
				<path class="st0" d="M99.2,42.2c-0.2,0-0.3,0-0.5,0c0.2,0,0.2,0,0,0c0.1,0,0.2,0.1,0.2,0.2c0.3,0.3,0.2,0.6,0.1,0.9
					c0.1-0.1,0.1-0.1,0-0.1c0.2-0.1,0.2-0.1,0,0c-0.1,0-0.2,0.1-0.3,0c-0.2,0-0.3-0.1-0.4-0.3c0.1,0.1,0.1,0.1,0,0
					c-0.1-0.2,0-0.4,0.1-0.6c0.4-0.3,0.4-0.4,0.2-0.3c0.1-0.1,0.2-0.1,0.3-0.1c0.2,0,0.2,0,0.1,0c0.1,0,0.2,0.1,0.3,0.1
					c-0.6-0.6-1.5-0.6-2.1,0s-0.6,1.5,0,2.1c1,1.1,2.9,0.9,3.7-0.3c0.9-1.3,0.1-3.2-1.4-3.6c-1.6-0.4-3.3,1-3.3,2.6
					c0,1.7,1.5,2.4,3,2.3c0.8-0.1,1.5-0.6,1.5-1.5C100.7,43,100,42.2,99.2,42.2L99.2,42.2z"/>
			</g>
		</g>
		<g>
			<g>
				<path class="st0" d="M124,44.2c1.9,0,1.9-3,0-3C122,41.2,122,44.2,124,44.2L124,44.2z"/>
			</g>
		</g>
		<g>
			<g>
				<path class="st0" d="M127.8,53c1.9,0,1.9-3,0-3C125.9,50.1,125.9,53,127.8,53L127.8,53z"/>
			</g>
		</g>
		<g>
			<g>
				<path class="st0" d="M123.4,102.4c0.2-1,0.6-3.8,1.7-4.3c-0.6-0.3-1.2-0.7-1.8-1c0.6,2.1,0.4,3.9-0.4,5.9
					c0.7-0.3,1.5-0.6,2.2-0.9c-0.4-0.3,0.1-3.2,0.1-3.7c0.2-1.3,0.5-2.4,0.9-3.6c-0.8,0.2-1.7,0.4-2.5,0.7c0.3,0.2,0.1,2.5,0.1,2.8
					c0,1,0,2-0.1,3s-0.1,2-0.2,2.9c0,0.3-0.1,0.7-0.1,1c-0.7,1.7-0.4,2,1,1.1c-1.9-0.4-2.7,2.5-0.8,2.9c3,0.6,2.8-3.6,2.9-5.4
					c0.2-2.1,0.3-4.3,0.3-6.4c0-1.4,0.2-2.9-0.9-3.9c-0.9-0.8-2.1-0.4-2.5,0.7c-1,2.9-2.6,8.5,0.3,10.7c0.9,0.6,1.9-0.1,2.2-0.9
					c1-2.5,1.1-5,0.4-7.5c-0.2-0.7-1.1-1.3-1.8-1c-2.5,1-3.3,3.9-3.7,6.4C120.2,103.5,123.1,104.3,123.4,102.4L123.4,102.4z"/>
			</g>
		</g>
		<g>
			<g>
				<path class="st0" d="M85.5,43.8c-0.5,0.5-1.7-0.1-1.1-1c0.1-0.1,0.2-0.2,0.3-0.2c0.3,0,0.6,0.1,1,0.1c0.1,0.1,0,0.6,0.1,0.5
					C85.7,43.4,85.5,43.6,85.5,43.8c-0.7,0.2-0.8,0.3-0.5,0.3c-0.1,0-0.1,0,0.1,0c0.1,0,0.1,0,0.2,0c-0.1-0.1-0.1-0.1,0.1,0
					c-0.2-0.3-0.4-0.3-0.3-0.8c0.3-1.1,2.1-0.8,1.3,0.5c-0.2,0.2-0.4,0.4-0.5,0.5c0.1,0,0.2-0.1,0.4-0.1c0.1,0,0.2,0,0.2,0
					c0.4,0.1,0.3,0-0.3-0.3c-0.1-0.3-0.1-0.5-0.2-0.8c0-0.1,0.1-0.2,0.1-0.4c0.2-0.2,0.4-0.4,0.5-0.5c0,0,0.1,0,0.1-0.1
					c0.3,0,0.5,0,0.8,0c0.1,0.1,0.2,0.1,0.3,0.2c0.1,0.2,0.3,0.4,0.4,0.7v-0.1c-0.5-1.8-3.4-1.1-2.9,0.8c0.5,1.5,2.5,1.9,3.4,0.5
					c0.4-0.6,0.4-1.4,0-1.9c-0.4-0.6-1-0.8-1.6-1c-1.3-0.2-3.1,0.1-3.5,1.6c-0.3,1.4,0.9,2.6,2.2,2.7c1.5,0.1,2.5-1.2,2.2-2.6
					c-0.2-1.1-1.2-1.8-2.3-2c-0.6-0.1-1.3-0.2-1.8,0.2c-0.6,0.3-1,1-1,1.7c0,1.3,1.3,2.5,2.6,2.3c1.5-0.2,2.4-2,1.6-3.3
					s-2.5-1.4-3.6-0.4c-0.6,0.5-0.5,1.6,0,2.1C84,44.4,84.9,44.4,85.5,43.8L85.5,43.8z"/>
			</g>
		</g>
		<g>
			<g>
				<path class="st0" d="M80.8,41c0.2-0.3,0.5-0.5,0.7-0.7c0.2-0.1,0.6-0.3,0.7-0.4c0.3-0.1,0.2-0.2-0.2-0.4c0,0.1,0,0.2,0,0.2
					c-0.5,1,1.3,0.3,1.3,0.3c-0.1-0.1-0.1-0.1-0.2-0.2c-0.1-0.3-0.1-0.3-0.2,0.1c0,0.2-0.1,0.3-0.3,0.3c-0.1-0.1-0.2-0.2-0.2-0.3
					c0.1,0-0.3,0.3-0.3,0.3c-0.1,0-0.2,0-0.2,0c-0.4-0.1-0.3,0,0.2,0.3c0.1,0.4,0.1,0.8,0.2,1.1c-0.2,0.1-0.3,0.3-0.5,0.4
					c0.3,0.1,0.5-0.1,0.5-0.5c0.5-1,0.2-0.3-0.1-0.7c0.1,0.4,0.1,0.8,0.2,1.1c0-0.1,0-0.1,0.1-0.2c-0.2,0.3-0.5,0.6-0.7,0.9
					c0.1,0,0.1-0.1,0.2-0.1c0.2,0,0.2-0.1-0.1-0.2c-0.3-0.1-0.3-0.3,0.1-0.5c0.1-0.3,0.3-0.4,0.4-0.2c-0.3,0.7-0.6,1.5-0.9,2.2
					c0.4-0.4,0.8-0.8,1.2-1.2c0,0.5,0,1,0,1.5c0-0.1,0.1-0.1,0.1-0.2c-0.3,0.2-0.6,0.5-0.9,0.7c-0.2-0.1-0.4-0.3-0.6-0.4
					c-0.1-0.4-0.1-0.8-0.2-1.1c0,0.1,0,0.1-0.1,0.2c0.3-0.3,0.7-0.7,1-1c0.3,0.5,0.6,1.1,0.9,1.6c1.7-0.9,0.2-3.5-1.5-2.6
					c-2,1.1-0.9,4.6,1.4,3.8c1.2-0.4,1.5-1.8,0.7-2.8c-0.6-0.8-2-1-2.9-0.4c-2.3,1.4,0.5,4.5,2.5,2.8c0.9-0.7,1-2,0.4-2.9
					c-0.6-1-1.9-1.3-3-0.9c-0.9,0.3-1.4,1.3-0.9,2.2c1.1,1.9,4.2,1.8,4.7-0.5c0.6-2.4-2.2-3.8-4.1-2.7c-2.5,1.5,0.3,4.2,2.3,4
					c2.9-0.2,2.7-4.1,0.1-4.7c-0.9-0.2-2.1-0.2-2.8,0.5c-0.9,0.9-0.8,2.3,0.2,3c1.8,1.2,4.6,0,5.1-2c0.6-2.2-1.6-4.3-3.7-3.3
					s-1.6,4,0.2,5c2.8,1.6,4-2.9,2.8-4.7c-1.7-2.7-5-0.1-6.3,1.6c-0.5,0.6-0.1,1.7,0.5,2C79.6,41.9,80.4,41.6,80.8,41L80.8,41z"/>
			</g>
		</g>
		<g>
			<g>
				<path class="st2" d="M71.8,120c-4.4-8-5.8-16.9-4.2-25.9c0.2-1.1-1.5-1.6-1.7-0.5c-1.7,9.5-0.2,18.8,4.4,27.2
					C70.8,121.9,72.4,121,71.8,120L71.8,120z"/>
			</g>
		</g>
		<g>
			<g>
				<path class="st2" d="M89.7,124.9c-4.6-7.8-4.3-16.5-3.9-25.3c0.1-1.1-1.7-1.1-1.8,0c-0.5,9.1-0.7,18.1,4.1,26.2
					C88.7,126.8,90.3,125.9,89.7,124.9L89.7,124.9z"/>
			</g>
		</g>
		<g>
			<g>
				<path class="st2" d="M78.6,103.1c-3.4-4.5-5.4-9.6-6-15.2c-0.1-1.1-1.9-1.1-1.8,0c0.6,5.9,2.7,11.3,6.2,16.1
					C77.8,104.9,79.3,104,78.6,103.1L78.6,103.1z"/>
			</g>
		</g>
		<g>
			<g>
				<path class="st2" d="M70.9,58.2c0.1-6.1,1.9-11.7,5.3-16.7c0.6-1-0.9-1.9-1.5-0.9c-3.6,5.3-5.4,11.2-5.5,17.6
					C69.1,59.4,70.9,59.4,70.9,58.2L70.9,58.2z"/>
			</g>
		</g>
		<g>
			<g>
				<path class="st2" d="M127.8,90.9c1.6-3.8,2.9-7.8,3.4-11.9c0.6-4.4-0.2-8.6,0.2-13c0.1-1.1-1.7-1.1-1.8,0
					c-0.3,3.4,0.3,6.8,0.1,10.3c-0.3,4.8-1.5,9.3-3.4,13.7C125.8,91.1,127.4,92,127.8,90.9L127.8,90.9z"/>
			</g>
		</g>
		<g>
			<g>
				<path class="st2" d="M113.3,125.1c1.9-7.8,2.8-15.6,2.7-23.6c0-1.1-1.8-1.2-1.8,0c0.1,7.8-0.7,15.5-2.6,23.1
					C111.3,125.7,113.1,126.2,113.3,125.1L113.3,125.1z"/>
			</g>
		</g>
		<g>
			<g>
				<path class="st2" d="M126.1,124.7c3.4-6.7,5.6-13.7,6.6-21.2c0.1-1.1-1.6-1.1-1.8,0c-0.9,7.1-3.1,13.9-6.3,20.3
					C124,124.9,125.6,125.8,126.1,124.7L126.1,124.7z"/>
			</g>
		</g>
		<g>
			<g>
				<path class="st2" d="M120.8,40.6c3.5,3.1,6,7,7.3,11.5c0.3,1.1,2,0.6,1.7-0.5c-1.4-4.8-4-9-7.8-12.3
					C121.2,38.6,120,39.8,120.8,40.6L120.8,40.6z"/>
			</g>
		</g>
	</g>
</g>
</svg>
