<?xml version="1.0" encoding="utf-8"?>
<!-- Generator: Adobe Illustrator 21.0.2, SVG Export Plug-In . SVG Version: 6.00 Build 0)  -->
<svg version="1.1" id="Layer_1" xmlns="http://www.w3.org/2000/svg" xmlns:xlink="http://www.w3.org/1999/xlink" x="0px" y="0px"
	 viewBox="0 0 200 600" style="enable-background:new 0 0 200 600;" xml:space="preserve">
<style type="text/css">
	.st0{fill:#EF7A22;}
	.st1{fill:#231F20;}
	.st2{fill:#060706;}
	.st3{fill:#ED8622;}
</style>
<g>
	<g>
		<g>
			<g id="XMLID_2_">
				<g>
					<path class="st0" d="M90.3,8.4L90.3,8.4c0.3-0.8,1-1.3,1.6-1.8c1.3-0.9,2.9-1.4,4.5-1.6c2.2-0.4,4.6-0.3,6.7,0.7
						c1.4,0.7,2.6,1.8,3.2,3.3l0.4,0c2-0.4,4.1,0,5.8,1.1c1.7,1.2,2.8,3.1,3,5.1c0.2,1.8-0.3,3.6-0.7,5.4c-0.5,2.1-1.2,4.3-2.8,5.8
						l-0.1,0.3c-3.7-1.4-7.8-2-11.8-1.7c-3.8-0.2-7.6,0.3-11.2,1.5l-0.2-0.5c-3.3-0.7-6.1-3.5-6.8-6.9c-0.7-3.3,0.8-7,3.5-9
						C87,9,88.7,8.4,90.3,8.4z"/>
					<path class="st0" d="M85.9,46c-0.3-0.6-1.2-0.6-1.9-0.3c-0.5,0.2-1.1,0.5-1.6,0.6L81.8,46c-0.2-0.5-0.9-0.6-1.4-0.4
						c-0.5,0.2-1,0.5-1.5,0.5c-0.5,0.1-1.1-0.3-1.1-0.7l-0.5,0c-2,2.6-2.7,6-3.3,9.2c-0.8,4.1-1.6,8.3-1.8,12.5
						c-0.3,5.7,0.5,11.4,1.5,17.1c0.6,3.3,1.2,6.7,1.9,10c-1.3-0.9-2.3-2-3.1-3.3l0,0c-3.8-10.7-5.7-22.1-5.6-33.4l0.1,0
						c-0.8-3.4,0.3-7,1.6-10.2c3.4-8.2,9.3-15.8,17.3-19.6c1-0.5,2-0.9,3-1.2c3.6-1.2,7.4-1.8,11.2-1.5c4-0.3,8,0.4,11.8,1.7
						c0.8,0.3,1.6,0.6,2.4,1c8,3.9,13.9,11.4,17.3,19.6c1.2,2.8,2.1,5.8,1.8,8.7h0c0.1,11.3-1.8,22.7-5.6,33.4l-0.1,0.4
						c-0.8,1.8-2.1,3.3-3.7,4.4c0.7-3.3,1.3-6.6,1.9-10c1-5.6,1.8-11.3,1.5-17.1c-0.2-4.2-1-8.4-1.7-12.5c-0.6-3.2-1.3-6.6-3.3-9.2
						l-0.9,0c-0.4,0.2-0.9,0.3-1.3,0.1c-0.2-0.1-0.4-0.3-0.6-0.4c-0.7-0.3-1.3,0.4-1.9,0.8c-0.8,0.5-2,0.5-2.8-0.2l-0.1,0
						c-0.3-0.6-1-0.8-1.6-0.7s-1.2,0.5-1.7,0.8c-0.6,0.3-1.2,0.5-1.8,0.3c-0.8-0.2-1.4-1.1-2.3-1c-0.2,0-0.4,0.1-0.6,0.2
						c-0.8,0.3-1.6,0.7-2.4,1l-0.1-0.2c-0.8,0.4-1.9,0.3-2.6-0.3c-0.2-0.2-0.4-0.4-0.6-0.5c-0.9-0.4-1.9,0.9-2.9,0.7
						c-0.4,0-0.7-0.3-1-0.4c-0.8-0.3-1.8-0.1-2.3,0.6l-0.3,0c-1-0.8-2.5-1-3.6-0.4c-0.3,0.1-0.6,0.3-0.9,0.3c-0.3,0-0.5-0.3-0.8-0.4
						c-0.5-0.3-1.2-0.3-1.8,0c-0.3,0.2-0.5,0.4-0.9,0.5C86.3,46.6,85.9,46.4,85.9,46L85.9,46z"/>
				</g>
				<g>
				</g>
			</g>
		</g>
		<g>
			<g>
				<path class="st1" d="M76,93.7c-5.7-7.6-7.2-16.7-8.1-25.9c-0.1-0.8-1.3-0.8-1.2,0c1,9.4,2.5,18.7,8.3,26.5
					C75.5,94.9,76.5,94.3,76,93.7L76,93.7z"/>
			</g>
		</g>
		<g>
			<g>
				<path class="st1" d="M68,68.3c-0.5-5.5-1.3-11.8,0-17.2c1.3-5.8,5.6-11.3,9.4-15.8c8.9-10.4,22.4-10.8,34.8-7.9
					c0.7,0.2,1.1-1,0.3-1.1c-12.1-2.9-25.8-2.8-34.9,6.9c-3.8,4-7.7,9.2-9.8,14.3c-2.6,6.4-1.7,14.1-1,20.8
					C66.9,69.1,68.1,69.1,68,68.3L68,68.3z"/>
			</g>
		</g>
		<g>
			<g>
				<path class="st1" d="M76,93.8c-1.8-8.1-3.4-16.2-2.9-24.5c0.5-8,2.4-15.8,4.5-23.6c0.2-0.7-0.9-1.1-1.1-0.3
					c-2.1,7.8-4.1,15.8-4.5,23.9c-0.5,8.5,1.1,16.6,2.9,24.9C75,94.9,76.1,94.5,76,93.8L76,93.8z"/>
			</g>
		</g>
		<g>
			<g>
				<path class="st1" d="M77,45.8c0.7,0.6,1.5,0.9,2.5,0.9c0.4,0,0.8-0.1,1.1-0.3c0.2-0.1,0.5-0.4,0.7-0.4c0.2,0,0.7,0.7,0.8,0.8
					c0.6,0.5,1.4-0.3,0.8-0.8c-0.6-0.5-1.3-1.5-2.1-1.1c-0.4,0.2-0.7,0.5-1.1,0.6c-0.7,0.2-1.4,0-1.9-0.5
					C77.3,44.5,76.5,45.3,77,45.8L77,45.8z"/>
			</g>
		</g>
		<g>
			<g>
				<path class="st1" d="M82.8,47.6c0.7-0.4,1.4-0.9,2.1-1.3c0.9-0.4,0.8,0,1.4,0.4c0.3,0.2,0.6,0.4,1,0.3c0.6,0,1.6-1,2-0.8
					c0.7,0.3,1.3-0.7,0.6-1c-0.6-0.3-1.1-0.3-1.7,0c-0.6,0.3-0.8,0.7-1.6,0.2c-0.2-0.1-0.3-0.4-0.5-0.5c-0.4-0.3-0.9-0.3-1.3-0.1
					c-1,0.5-1.8,1.3-2.8,1.8C81.5,46.9,82.1,48,82.8,47.6L82.8,47.6z"/>
			</g>
		</g>
		<g>
			<g>
				<path class="st1" d="M89.3,46.6c0.2,0.5,0.6,0.9,1.2,0.9c0.6,0,1.2-0.4,1.6-0.8c0.5-0.5-0.3-1.4-0.8-0.8
					c-0.1,0.1-0.7,0.7-0.8,0.4C90.3,45.6,89.1,45.9,89.3,46.6L89.3,46.6z"/>
			</g>
		</g>
		<g>
			<g>
				<path class="st1" d="M91.9,47.1c1.1-1.3,2.2,0.4,3.5,0.2c0.3,0,0.5-0.2,0.8-0.3c0.3-0.4,0.7-0.6,1.2-0.6c0.4,0.2,0.7,0.4,1,0.6
					c0.6,0.4,1.2-0.6,0.6-1c-0.6-0.4-1.3-0.9-2.1-0.8c-0.2,0-0.4,0.1-0.6,0.2c-0.6,0.3-0.4,0.5-1.2,0.5c-0.9,0-1.5-0.6-2.4-0.6
					c-0.7,0.1-1.2,0.4-1.6,0.9C90.5,46.9,91.4,47.7,91.9,47.1L91.9,47.1z"/>
			</g>
		</g>
		<g>
			<g>
				<path class="st1" d="M98.3,47.3c0.8,0.1,1-0.2,1.7-0.4c1.3-0.4,1.8,0.3,2.9,0.6c0.9,0.3,1.9,0.2,2.7-0.1c0.8-0.3,2-1.3,2.8-1.3
					c-0.2-0.1-0.4-0.3-0.6-0.4c0,0,0,0.1,0,0.1c0.2,0.7,1.3,0.4,1.1-0.3c0,0,0-0.1,0-0.1c-0.1-0.3-0.3-0.4-0.6-0.4
					c-0.6-0.1-1.1,0.3-1.6,0.6c-0.6,0.3-1.4,0.9-2.1,0.9c-0.9,0.1-1.9-0.5-2.7-0.9c-0.5-0.2-0.8-0.5-1.3-0.4c-0.7,0.1-1.5,1.1-2.1,1
					C97.9,46,97.6,47.2,98.3,47.3L98.3,47.3z"/>
			</g>
		</g>
		<g>
			<g>
				<path class="st2" d="M108.1,46.4c1.7,1,2.8,1.2,4.5,0.2c0.7-0.4,1.1-0.8,2-0.4c0.4,0.1,0.7,0.5,1.1,0.7c0.8,0.3,1.6,0.2,2.4-0.1
					c0.7-0.3,0.4-1.4-0.3-1.1c-1.8,0.7-2.6-1.1-4.2-1c-0.4,0-0.7,0.2-1.1,0.4c-0.6,0.4-0.8,0.6-1.6,0.8c-1,0.3-1.4,0.1-2.3-0.5
					C108,45,107.4,46,108.1,46.4L108.1,46.4z"/>
			</g>
		</g>
		<g>
			<g>
				<path class="st1" d="M118.2,46.9c0.4-0.2,0.8-0.4,1.2-0.7c0.3-0.2,0.6-0.8,1-0.9c0.3,0,0.8,0.3,1.1,0.3c0.5,0,1-0.1,1.4-0.3
					c0.7-0.3,0.1-1.3-0.6-1c-1,0.4-1.7-0.6-2.6-0.2c-0.2,0.1-0.4,0.3-0.5,0.4c-0.4,0.5-0.8,0.9-1.4,1.1
					C117.1,46.1,117.4,47.2,118.2,46.9L118.2,46.9z"/>
			</g>
		</g>
		<g>
			<g>
				<path class="st1" d="M90,25.6c-1.6-0.9-3.9-1.7-5.2-3.1c-1.9-2-1.8-5.7-1-8.2c1.9-5.2,6.8-5.4,11.5-4.1c0.7,0.2,1.1-1,0.3-1.1
					c-5.3-1.4-10.8-1.1-13,4.8c-0.9,2.3-0.9,5.3,0.1,7.6c1.2,2.7,4.2,3.8,6.6,5.1C90.1,27,90.7,26,90,25.6L90,25.6z"/>
			</g>
		</g>
		<g>
			<g>
				<path class="st1" d="M106.9,9.8c5.3-1.3,9.1,2.9,8.6,8c-0.3,3.4-2.2,6.2-4,9c-0.4,0.6,0.6,1.2,1,0.6c2.6-4.1,5.7-9.1,3.7-14.1
					c-1.5-3.9-5.7-5.5-9.6-4.6C105.8,8.8,106.1,10,106.9,9.8L106.9,9.8z"/>
			</g>
		</g>
		<g>
			<g>
				<path class="st1" d="M124.5,94.5c3-16.3,6.5-34-1.4-49.6c-0.3-0.7-1.4-0.1-1,0.6c7.8,15.3,4.2,32.7,1.3,48.7
					C123.2,95,124.4,95.3,124.5,94.5L124.5,94.5z"/>
			</g>
		</g>
		<g>
			<g>
				<path class="st1" d="M124.1,94.9c5.4-4.7,7-12.1,8.5-18.8c1.8-8.4,2.4-16.8,1.3-25.3c-0.1-0.8-1.3-0.4-1.1,0.3
					c1.1,8.3,0.5,16.5-1.3,24.7c-1.4,6.5-3,13.8-8.2,18.3C122.7,94.6,123.6,95.4,124.1,94.9L124.1,94.9z"/>
			</g>
		</g>
		<g>
			<g>
				<path class="st1" d="M134,51.2c-2.6-9.9-11-22.8-21.9-25c-0.7-0.2-1.1,1-0.3,1.1c10.4,2.1,18.6,14.7,21,24.2
					C133.1,52.3,134.2,52,134,51.2L134,51.2z"/>
			</g>
		</g>
		<g>
			<g>
				<path class="st1" d="M91.6,8.8c-0.8-2.3,6.1-3.4,7.4-3.5c3,0,5.5,1.2,7,3.8c0.4,0.7,1.4,0.1,1-0.6c-1.9-3.3-5.5-4.7-9.2-4.3
					c-2.2,0.2-8.6,1.5-7.4,4.9C90.7,9.9,91.9,9.6,91.6,8.8L91.6,8.8z"/>
			</g>
		</g>
	</g>
	<g>
		<g>
			<path class="st3" d="M72,78.3c-2-7.9-4.7-21.8,0.3-29c0.4-0.6-0.6-1.2-1-0.6c-2.7,3.9-2.9,8.2-2.6,12.8
				c0.3,5.8,0.8,11.5,2.2,17.2C71,79.3,72.2,79,72,78.3L72,78.3z"/>
		</g>
	</g>
	<g>
		<g>
			<path class="st3" d="M128.7,84.2c3.5-10.9,6.8-27.3,0.1-37.7c-0.4-0.6-1.4,0-1,0.6c6.5,10,3.2,26.2-0.2,36.7
				C127.3,84.6,128.4,84.9,128.7,84.2L128.7,84.2z"/>
		</g>
	</g>
	<g>
		<g>
			<path class="st3" d="M92.1,23.4c-2.7-2.8-6.5-6-3.6-10.1c0.4-0.6-0.6-1.2-1-0.6c-1.2,1.7-1.6,3.7-1,5.7c0.7,2.3,3.1,4.1,4.7,5.8
				C91.8,24.8,92.6,23.9,92.1,23.4L92.1,23.4z"/>
		</g>
	</g>
	<g>
		<g>
			<path class="st3" d="M112.9,22.3c3.7-4,1.5-8.6-2.2-11.6c-0.6-0.5-1.4,0.3-0.8,0.8c3.1,2.6,5.5,6.4,2.2,9.9
				C111.5,22,112.4,22.9,112.9,22.3L112.9,22.3z"/>
		</g>
	</g>
	<g>
		<g>
			<path class="st3" d="M96.7,7.9c2.4-0.4,4.8,0.3,6.8,1.7c0.6,0.5,1.2-0.6,0.6-1c-2.3-1.7-4.9-2.3-7.7-1.9C95.7,6.9,96,8,96.7,7.9
				L96.7,7.9z"/>
		</g>
	</g>
</g>
</svg>
