<?xml version="1.0" encoding="utf-8"?>
<!-- Generator: Adobe Illustrator 21.0.2, SVG Export Plug-In . SVG Version: 6.00 Build 0)  -->
<svg version="1.1" id="Layer_1" xmlns="http://www.w3.org/2000/svg" xmlns:xlink="http://www.w3.org/1999/xlink" x="0px" y="0px"
	 viewBox="0 0 200 600" style="enable-background:new 0 0 200 600;" xml:space="preserve">
<style type="text/css">
	.st0{fill:#FFE322;}
	.st1{fill:#F7ED56;}
</style>
<g>
	<g>
		<g>
			<g>
				<g>
					<g>
						<g>
							<path class="st0" d="M78.8,46.9c0.4-0.7,0.7-1.5,1-2.3c0.5-1.6-2-2.7-2.7-1.2c-0.2,0.5-0.4,1-0.6,1.6
								c-0.4,1.4,1.5,2.7,2.5,1.5c0.4-0.5,0.7-0.9,1.1-1.4c-0.8-0.5-1.7-1-2.5-1.5c-0.1,0.6-0.3,1.1-0.6,1.7
								c-0.9,1.7,1.5,3.1,2.6,1.5c0.7-1,1.3-2,2-3c-0.9-0.5-1.7-1-2.6-1.5c-0.3,0.6-0.5,1.2-0.8,1.8c-0.6,1.4,1.1,3.2,2.4,1.8
								c0.5-0.5,1-1.1,1.5-1.6c-0.7-0.7-1.4-1.4-2.1-2.1c-0.4,0.4-0.8,0.9-1.1,1.3c-1.2,1.5,0.8,3.5,2.1,2.1c0.5-0.5,1-1.1,1.6-1.6
								c-0.7-0.7-1.4-1.4-2.1-2.1c-1.9,2.1-3.7,4.3-5.4,6.4c-1,1.3-3.4,3.2-2.8,5.1c0.5,1.9,3.4,1.1,2.9-0.8c0-0.1-0.1-0.2-0.1-0.3
								c-0.1,0.4-0.1,0.8-0.2,1.2c0.9-1.7,2.5-3.3,3.8-4.8c1.3-1.6,2.6-3.1,4-4.7c1.3-1.4-0.8-3.5-2.1-2.1c-0.5,0.5-1,1.1-1.6,1.6
								c0.7,0.7,1.4,1.4,2.1,2.1c0.4-0.4,0.8-0.9,1.1-1.3c1.2-1.5-0.8-3.5-2.1-2.1c-0.5,0.5-1,1.1-1.5,1.6c0.8,0.6,1.6,1.2,2.4,1.8
								c0.3-0.6,0.5-1.2,0.8-1.8c0.7-1.7-1.5-3.2-2.6-1.5c-0.7,1-1.3,2-2,3c0.9,0.5,1.7,1,2.6,1.5c0.4-0.8,0.7-1.5,0.9-2.4
								c0.4-1.4-1.5-2.7-2.5-1.5c-0.4,0.5-0.7,0.9-1.1,1.4c0.8,0.5,1.7,1,2.5,1.5c0.1-0.3,0.2-0.6,0.3-0.9c-0.9-0.4-1.8-0.8-2.7-1.2
								c-0.2,0.5-0.4,1.1-0.7,1.6C75.3,47.1,77.9,48.6,78.8,46.9L78.8,46.9z"/>
						</g>
					</g>
					<g>
						<g>
							<path class="st0" d="M73.4,52.2c-0.2,0.1-0.3,0.2-0.5,0.3c-0.7,0.4-1,1.3-0.5,2.1c0.4,0.7,1.4,1,2.1,0.5
								c0.2-0.1,0.3-0.2,0.5-0.3c0.7-0.4,1-1.3,0.5-2.1C75.1,52.1,74.1,51.8,73.4,52.2L73.4,52.2z"/>
						</g>
					</g>
					<g>
						<g>
							<path class="st0" d="M74.7,52.8c1.3-0.7,2.2-1.6,2.8-3c-0.9-0.4-1.8-0.8-2.7-1.2c-0.3,0.9-0.7,1.7-1.1,2.6
								c0.9,0.4,1.8,0.8,2.7,1.2c0.2-0.8,0.6-1.4,1-2.1c-0.9-0.5-1.7-1-2.6-1.5c-0.6,1.2-1.3,2.5-1.9,3.7c0.9,0.4,1.8,0.8,2.7,1.2
								c0.2-0.3,0.3-0.6,0.5-0.9c-0.9-0.4-1.8-0.8-2.7-1.2c-0.3,0.7-0.5,1.3-0.8,2c-0.7,1.6,1.9,2.6,2.7,1.2c0.6-1,1.2-2.1,1.8-3.1
								c-0.9-0.4-1.8-0.8-2.7-1.2c-0.2,0.5-0.4,1.1-0.6,1.6c-0.6,1.6,2,2.7,2.7,1.2c0.7-1.4,1.4-2.8,2.2-4.2
								c-0.9-0.4-1.8-0.8-2.7-1.2c-0.3,1.2-0.8,2.3-1.4,3.4c0.9,0.4,1.8,0.8,2.7,1.2c0.5-1.3,1.1-2.6,1.7-3.8
								c-0.9-0.4-1.8-0.8-2.7-1.2c-0.2,0.7-0.4,1.4-0.6,2.1c-0.6,1.9,2.2,2.6,2.9,0.8c0.6-1.5,1.2-3,2-4.4c-0.9-0.4-1.8-0.8-2.7-1.2
								c-0.1,0.9-0.3,1.6-0.7,2.5c0.9,0.4,1.8,0.8,2.7,1.2c0.4-1.2,0.9-2.2,1.6-3.2c-0.9-0.4-1.8-0.8-2.7-1.2
								c-0.2,0.7-0.5,1.3-0.9,1.8c0.9,0.5,1.7,1,2.6,1.5c0.2-0.4,0.4-0.7,0.6-1.1c0.8-1.4-1.2-3.1-2.4-1.8C77.1,46,76.4,48,75.4,50
								c-0.5,1-1.2,1.7-1.8,2.6c-0.1,0.2-1,2.4-0.9,2.4c0.7,0.6,1.5,1.1,2.2,1.7c0.7-2,1.5-3.9,2.4-5.8c0.8-1.7-1.8-3.3-2.6-1.5
								c-1,2.1-1.9,4.3-2.7,6.5c-0.5,1.3,1.1,2.2,2.2,1.7c0.7-0.3,1-0.8,1.3-1.5c0.4-1.2,1-2.1,1.7-3.2c1.4-2,1.9-4.5,3.6-6.4
								c-0.8-0.6-1.6-1.2-2.4-1.8c-0.2,0.4-0.4,0.7-0.6,1.1c-0.9,1.7,1.6,3.1,2.6,1.5c0.5-0.8,0.9-1.6,1.2-2.5
								c0.6-1.7-1.8-2.5-2.7-1.2c-0.8,1.2-1.4,2.5-1.9,3.9c-0.5,1.6,2.1,2.7,2.7,1.2c0.4-1,0.8-2,1-3.2c0.3-1.6-1.9-2.8-2.7-1.2
								c-0.9,1.7-1.7,3.3-2.3,5.1c1,0.3,1.9,0.5,2.9,0.8c0.2-0.7,0.4-1.4,0.6-2.1c0.5-1.6-2-2.7-2.7-1.2c-0.7,1.5-1.4,3-2,4.5
								c-0.6,1.6,1.9,2.6,2.7,1.2c0.7-1.3,1.3-2.6,1.7-4.1c0.5-1.6-2-2.7-2.7-1.2c-0.7,1.4-1.4,2.8-2.2,4.2c0.9,0.4,1.8,0.8,2.7,1.2
								c0.2-0.5,0.4-1.1,0.6-1.6c0.6-1.6-1.9-2.6-2.7-1.2c-0.6,1-1.2,2.1-1.8,3.1c0.9,0.4,1.8,0.8,2.7,1.2c0.3-0.7,0.5-1.3,0.8-2
								c0.7-1.6-1.9-2.5-2.7-1.2c-0.4,0.6-0.6,1-0.8,1.6c-0.6,1.6,2,2.7,2.7,1.2c0.6-1.2,1.3-2.5,1.9-3.7c0.9-1.7-1.5-3.1-2.6-1.5
								c-0.6,0.9-1,1.8-1.3,2.9c-0.5,1.6,2,2.7,2.7,1.2c0.5-1.1,1-2.2,1.4-3.3c0.6-1.6-2-2.7-2.7-1.2c-0.4,0.9-0.9,1.4-1.8,1.9
								C71.5,51.1,73,53.7,74.7,52.8L74.7,52.8z"/>
						</g>
					</g>
					<g>
						<g>
							<path class="st0" d="M75.3,51.2c0.4-1.2,0.9-2.3,1.4-3.4c-0.9-0.4-1.8-0.8-2.7-1.2c-0.2,1.3-0.7,2.5-1.4,3.6
								c0.9,0.3,1.9,0.5,2.8,0.8c0.3-0.9,0.6-1.9,0.9-2.8c-0.9-0.3-1.9-0.5-2.8-0.8c0,0.6-0.1,1.3-0.1,1.9c-0.1,1.4,2.2,2.1,2.8,0.8
								c0.8-1.9,1.6-3.7,2.5-5.6c-0.9-0.4-1.8-0.8-2.7-1.2c-0.1,1.4-0.4,2.7-1.1,3.9c0.9,0.4,1.8,0.8,2.7,1.2
								c0.5-1.5,1.2-2.9,2.3-4.1c-0.8-0.5-1.7-1-2.5-1.5c-0.4,1.5-0.9,2.9-1.6,4.3c0.9,0.4,1.8,0.8,2.7,1.2c0.8-2,1.6-3.5,2.8-5.3
								c-0.9-0.4-1.8-0.8-2.7-1.2c-0.5,1.6-1.2,3.1-2,4.6c0.9,0.5,1.7,1,2.6,1.5c1.2-2.5,2.5-4.6,4.3-6.7c-0.8-0.6-1.6-1.2-2.4-1.8
								c-1,1.4-1.9,2.8-2.9,4.2c0.9,0.5,1.7,1,2.6,1.5c0.8-1.6,1.7-2.9,2.8-4.4c-0.8-0.6-1.6-1.2-2.4-1.8c-0.8,1.5-1.6,2.8-2.7,4.2
								c0.8,0.6,1.6,1.2,2.4,1.8c0.8-1.5,1.6-2.8,2.8-3.9c-0.8-0.6-1.6-1.2-2.4-1.8c-0.9,1.5-1.9,2.9-2.8,4.4c0.9,0.5,1.7,1,2.6,1.5
								c1.2-1.8,2.6-3.4,4.2-4.9c-0.8-0.6-1.6-1.2-2.4-1.8c-0.8,1.7-1.8,3-3.2,4.2c0.8,0.6,1.6,1.2,2.4,1.8c0.7-1.4,1.6-2.5,2.8-3.5
								c-0.8-0.6-1.6-1.2-2.4-1.8c-0.5,0.7-1.1,1.5-1.6,2.2c-0.9,1.2,0.9,2.9,2.1,2.1c1.2-0.9,2.4-1.8,3.6-2.7
								c-0.6-0.8-1.2-1.6-1.8-2.4c-1.2,1-2.5,2.1-3.7,3.1c0.7,0.7,1.4,1.4,2.1,2.1c1.4-1.6,2.8-3,4.6-4.1c-0.6-0.8-1.2-1.6-1.8-2.4
								c-0.6,0.7-1.2,1.4-2,1.9c0.7,0.7,1.4,1.4,2.1,2.1c1-0.5,2-1,3-1.5c-0.3-1-0.5-1.9-0.8-2.9c-0.6,0.3-1.3,0.5-1.9,0.6
								c-1.4,0.4-1.5,2.6,0,2.9c2.1,0.3,4.2,0.6,6.3,0.8c0-1,0-2,0-3c-1.8,0.2-3.4,0.2-5.2-0.1c0,1,0,1.9,0,2.9
								c2.1-0.4,4.1-0.4,6.1,0.2c0.3-1,0.5-1.9,0.8-2.9c-0.8-0.1-1.6-0.3-2.5-0.4c-1.9-0.3-2.6,2.2-0.8,2.9c1.9,0.7,3.7,1.2,5.6,1.5
								c1.9,0.4,2.7-2.3,0.8-2.9c-1-0.3-2.1-0.6-3.1-1c-1.9-0.6-2.5,2.2-0.8,2.9c1.2,0.5,2.3,1,3.5,1.5c0.1-1,0.3-2,0.4-2.9
								c-1.1-0.1-2.2-0.3-3.4-0.4c-1.7-0.2-2,2.6-0.4,2.9c1.1,0.3,2.1,0.5,3.2,0.8c1.6,0.4,2.7-1.9,1.2-2.7
								c-1.4-0.7-2.8-1.5-4.2-2.2c-1.4-0.7-2.7,0.7-2.1,2.1c0.5,1.1,0.9,1.3,2,1.8c0.3-1,0.5-1.9,0.8-2.9c-1-0.3-2-0.6-3.1-0.9
								c-1.9-0.5-2.6,2.3-0.8,2.9c1.2,0.4,1.5,0.4,2.8,0.6c1.1,0.1,1.9-1.4,1.3-2.3c-0.5-0.7-0.7-1-1.5-1.3
								c-1.7-0.8-3.3,1.8-1.5,2.6c0.1,0.1,0.3,0.2,0.4,0.3c0.4-0.8,0.9-1.5,1.3-2.3c-0.7-0.2-1.3-0.3-2-0.5c-0.3,1-0.5,1.9-0.8,2.9
								c1,0.3,2,0.6,3.1,0.9c1.9,0.5,2.5-2.2,0.8-2.9c-0.1-0.1-0.1-0.3-0.2-0.4c-0.7,0.7-1.4,1.4-2.1,2.1c1.4,0.7,2.8,1.5,4.2,2.2
								c0.4-0.9,0.8-1.8,1.2-2.7c-1.1-0.3-2.1-0.5-3.2-0.8c-0.1,1-0.3,2-0.4,2.9c1.1,0.1,2.2,0.3,3.4,0.4c1.8,0.2,1.8-2.4,0.4-2.9
								c-1.2-0.5-2.3-1-3.5-1.5c-0.3,1-0.5,1.9-0.8,2.9c1,0.3,2.1,0.6,3.1,1c0.3-1,0.5-1.9,0.8-2.9c-1.9-0.4-3.8-0.9-5.6-1.5
								c-0.3,1-0.5,1.9-0.8,2.9c0.8,0.1,1.6,0.3,2.5,0.4c1.9,0.3,2.7-2.5,0.8-2.9c-2.7-0.6-5-0.6-7.7-0.2c-1.4,0.2-1.4,2.7,0,2.9
								c2.1,0.3,4,0.4,6,0.2c1.9-0.2,1.9-2.8,0-3c-1.8-0.2-3.7-0.4-5.5-0.7c0,1,0,1.9,0,2.9c0.7-0.1,1.3-0.3,1.9-0.6
								c1.8-0.7,1.1-3.3-0.8-2.9c-1.8,0.4-2.9,1-4.3,2.2c-1.4,1.3,0.7,3.3,2.1,2.1c0.8-0.5,1.4-1.2,2-1.9c1.1-1.2-0.3-3.3-1.8-2.4
								c-2,1.3-3.7,2.7-5.2,4.6c-1.2,1.5,0.6,3.4,2.1,2.1c1.2-1,2.5-2.1,3.7-3.1c1.3-1.1-0.5-3.4-1.8-2.4c-1.2,0.9-2.4,1.8-3.6,2.7
								c0.7,0.7,1.4,1.4,2.1,2.1c0.5-0.7,1.1-1.5,1.6-2.2c1.1-1.5-1.1-2.9-2.4-1.8c-1.4,1.2-2.4,2.5-3.3,4.1
								c-0.8,1.5,1.1,2.9,2.4,1.8c1.7-1.4,2.7-2.9,3.7-4.8c0.7-1.5-1.1-3-2.4-1.8c-1.8,1.7-3.3,3.5-4.6,5.5
								c-1.1,1.6,1.5,3.1,2.6,1.5c0.9-1.5,1.9-2.9,2.8-4.4c0.9-1.4-1.2-3-2.4-1.8c-1.4,1.4-2.4,2.8-3.3,4.6
								c-0.7,1.4,1.2,3.2,2.4,1.8c1.2-1.5,2.2-3.1,3.1-4.8c0.7-1.4-1.2-3.2-2.4-1.8c-1.3,1.6-2.4,3.2-3.3,5
								c-0.9,1.7,1.5,3.1,2.6,1.5c1-1.4,1.9-2.8,2.9-4.2c0.9-1.4-1.2-3.1-2.4-1.8c-2,2.3-3.5,4.6-4.8,7.3c-0.8,1.7,1.7,3.2,2.6,1.5
								c0.9-1.7,1.6-3.5,2.3-5.3c0.6-1.7-1.8-2.5-2.7-1.2c-1.3,1.9-2.3,3.9-3.1,6c-0.6,1.6,2,2.7,2.7,1.2c0.8-1.6,1.4-3.2,1.9-5
								c0.4-1.3-1.6-2.7-2.5-1.5c-1.3,1.7-2.3,3.4-3,5.5c-0.6,1.6,2,2.7,2.7,1.2c0.8-1.6,1.2-2.8,1.4-4.6c0.2-1.5-2-2.9-2.7-1.2
								c-0.8,1.9-1.6,3.7-2.5,5.6c0.9,0.3,1.9,0.5,2.8,0.8c0-0.6,0.1-1.3,0.1-1.9c0.1-1.6-2-1.8-2.8-0.8c-1.1,1.4-1.4,2.6-1.3,4.3
								c0.1,1.4,2,2.1,2.8,0.8c0.8-1.4,1.3-2.7,1.7-4.3c0.4-1.6-2-2.8-2.7-1.2c-0.6,1.4-1.2,2.7-1.7,4.1
								C71.8,52.3,74.7,53,75.3,51.2L75.3,51.2z"/>
						</g>
					</g>
					<g>
						<g>
							<path class="st0" d="M82.1,43.3c0.9-2.2,2.4-3.6,4.4-4.7c-0.6-0.8-1.2-1.6-1.8-2.4c-1.8,1.4-3.5,2.9-5.3,4.3
								c0.8,0.5,1.7,1,2.5,1.5c0.3-0.9,0.8-1.6,1.5-2.2c-0.7-0.7-1.4-1.4-2.1-2.1c-1.6,2.1-3.3,4-5.1,5.9c-1.4,1.4,0.6,3.3,2.1,2.1
								c1-0.8,1.6-1.6,2.2-2.7c-0.9-0.5-1.7-1-2.6-1.5c-0.7,1.7-1.6,3.3-2.6,4.8c0.9,0.4,1.8,0.8,2.7,1.2c0.2-1,0.6-2,1-2.9
								c0.8-1.7-1.7-3.3-2.6-1.5c-0.4,0.9-0.9,1.6-1.7,2.1c0.8,0.5,1.7,1,2.5,1.5c0.2-0.6,0.4-1.2,0.6-1.7c-0.9-0.5-1.7-1-2.6-1.5
								c-0.4,1-0.8,1.7-1.6,2.5c0.9,0.4,1.7,0.7,2.6,1.1c0.1-0.3,0.1-0.7,0.2-1c-0.9-0.4-1.8-0.8-2.7-1.2c-0.2,0.7-0.4,1.4-0.6,2.2
								c-0.5,1.9,2.2,2.6,2.9,0.8c0.3-1,0.7-1.9,1.3-2.9c-0.9-0.5-1.7-1-2.6-1.5c-0.3,0.7-0.7,1.5-1.2,2.1c0.9,0.5,1.7,1,2.6,1.5
								c0.7-1.5,1.5-2.9,2.3-4.2c-0.9-0.3-1.9-0.5-2.8-0.8c-0.2,0.5-0.3,0.9-0.5,1.4c0.9,0.5,1.7,1,2.6,1.5c0.6-1.4,1.3-2.6,2.3-3.8
								c-0.8-0.5-1.7-1-2.5-1.5c-0.2,1-0.7,1.8-1.3,2.6c0.9,0.4,1.8,0.8,2.7,1.2c0.4-1.2,0.8-2,1.5-3c-0.9-0.4-1.8-0.8-2.7-1.2
								c-0.1,0.9-0.5,1.7-1.2,2.4c0.8,0.5,1.7,1,2.5,1.5c0-0.6,0.2-1.2,0.6-1.7c0.9-1.4-1.2-3-2.4-1.8c-0.5,0.5-1,1-1.5,1.5
								c0.8,0.5,1.7,1,2.5,1.5c0.3-0.5,0.6-1.1,1-1.6c-0.8-0.6-1.6-1.2-2.4-1.8c-0.3,0.6-0.7,1.2-1,1.8c0.9,0.5,1.7,1,2.6,1.5
								c0.2-0.6,0.5-1.2,0.9-1.7c-0.7-0.7-1.4-1.4-2.1-2.1c-0.2,0.2-0.4,0.4-0.6,0.6c0.7,0.7,1.4,1.4,2.1,2.1
								c0.6-1.1,1.4-1.9,2.5-2.4c-0.6-0.8-1.2-1.6-1.8-2.4c-0.5,0.5-1,1-1.4,1.5c-1.3,1.4,0.7,3.5,2.1,2.1c1-0.9,1.9-1.9,2.9-2.8
								c-0.7-0.7-1.4-1.4-2.1-2.1c-0.9,1.1-1.8,2.1-2.6,3.2c0.8,0.6,1.6,1.2,2.4,1.8c0.4-1,1-1.7,1.9-2.3c-0.6-0.8-1.2-1.6-1.8-2.4
								c-0.8,0.8-1.7,1.5-2.6,2.1c0.7,0.7,1.4,1.4,2.1,2.1c1.2-1.6,2.6-2.8,4.4-3.7c-0.5-0.9-1-1.7-1.5-2.6
								c-0.6,0.4-1.2,0.8-1.7,1.2c0.6,0.8,1.2,1.6,1.8,2.4c1.5-1.4,3-2.5,4.8-3.5c1.4-0.8,0.5-3.3-1.2-2.7c-1.3,0.4-2.5,1-3.7,1.7
								c0.5,0.9,1,1.7,1.5,2.6c1.7-1.2,3.4-2.1,5.4-2.8c-0.4-0.9-0.8-1.8-1.2-2.7c-1.6,0.8-2.9,1.7-4.2,3c-1.3,1.2,0.4,3.2,1.8,2.4
								c1.3-0.7,2.6-1.4,3.9-2.1c-0.6-0.8-1.2-1.6-1.8-2.4c-3.3,2.7-6.5,5.5-9.5,8.5c0.8,0.6,1.6,1.2,2.4,1.8
								c1.3-1.8,2.7-3.2,4.4-4.6c-0.8-0.6-1.6-1.2-2.4-1.8c-1.1,1.5-2.3,3-3.4,4.4c0.8,0.6,1.6,1.2,2.4,1.8c1.3-1.9,2.8-3.5,4.6-4.9
								c-0.7-0.7-1.4-1.4-2.1-2.1c-2.1,2.3-4.2,4.7-6.3,7c0.8,0.6,1.6,1.2,2.4,1.8c1.1-1.8,2.4-3.2,4.1-4.3
								c-0.6-0.8-1.2-1.6-1.8-2.4c-1.4,1.7-2.9,2.9-4.8,4c0.7,0.7,1.4,1.4,2.1,2.1c0.9-1.3,1.9-2.5,3-3.6c0.4-0.4,0.8-0.8,1.2-1.2
								c1.7-1,2.1-1.4,1-1.1c-0.3-0.7-0.6-1.5-0.9-2.2c-0.9,1.5-2,2.7-3.2,3.9c0.7,0.7,1.4,1.4,2.1,2.1c1.2-1.2,2.3-2.2,3.7-3.1
								c-0.7-0.6-1.5-1.1-2.2-1.7c-0.3,0.6-0.6,1.1-1,1.7c0.8,0.6,1.6,1.2,2.4,1.8c0.7-1.2,1.4-2.1,2.6-2.9
								c-0.7-0.6-1.5-1.1-2.2-1.7c-0.4,1.6-1.1,2.5-2.4,3.5c0.9,0.4,1.7,0.7,2.6,1.1c0.3-0.8,0.6-1.5,0.9-2.3
								c1.3-1.4-0.8-3.6-2.1-2.1c-1.2,1.4-1.7,2.6-1.8,4.4c0,1.4,1.6,1.8,2.6,1.1c1.7-1.3,2.6-2.8,3.1-4.8c0.3-1.2-1.1-2.4-2.2-1.7
								c-1.6,1.1-2.7,2.3-3.7,4c-0.8,1.5,1.1,3.1,2.4,1.8c0.9-0.9,1.4-1.8,1.7-3c0.3-1.2-1.1-2.5-2.2-1.7c-1.5,1.1-2.9,2.3-4.3,3.6
								c-1.4,1.4,0.7,3.4,2.1,2.1c1.5-1.4,2.7-2.8,3.7-4.5c0.6-0.9,0-1.9-0.9-2.2c-3-1.1-7.3,5.4-8.6,7.3c-0.9,1.3,0.8,2.8,2.1,2.1
								c2.1-1.2,3.8-2.6,5.4-4.5c1-1.2-0.3-3.4-1.8-2.4c-2.2,1.4-3.8,3.2-5.2,5.4c-0.9,1.4,1.2,3.1,2.4,1.8c2.1-2.3,4.2-4.7,6.3-7
								c1.3-1.5-0.6-3.3-2.1-2.1c-2,1.6-3.6,3.4-5,5.5c-0.9,1.4,1.3,3.1,2.4,1.8c1.3-1.6,2.6-3.3,3.9-5c1.1-1.5-1.1-2.8-2.4-1.8
								c-1.9,1.6-3.4,3.3-4.8,5.2c-1,1.4,1.2,3,2.4,1.8c3-3,6.2-5.8,9.5-8.5c1.4-1.1-0.4-3.1-1.8-2.4c-1.3,0.7-2.6,1.4-3.9,2.1
								c0.6,0.8,1.2,1.6,1.8,2.4c1.1-1,2.3-1.8,3.6-2.5c1.5-0.8,0.5-3.3-1.2-2.7c-2.2,0.8-4.2,1.7-6.1,3.1c-1.6,1.1-0.1,3.6,1.5,2.6
								c1-0.6,1.9-1.1,3-1.4c-0.4-0.9-0.8-1.8-1.2-2.7c-2,1.1-3.7,2.4-5.4,4c-1.2,1.1,0.4,3.3,1.8,2.4c0.6-0.4,1.2-0.8,1.7-1.2
								c1.6-1.1,0.2-3.5-1.5-2.6c-2.2,1.2-4,2.7-5.4,4.7c-0.9,1.2,0.8,2.8,2.1,2.1c1.2-0.8,2.2-1.6,3.3-2.6c1.2-1.2-0.4-3.4-1.8-2.4
								c-1.3,0.9-2.2,1.9-2.9,3.4c-0.7,1.4,1.2,3.2,2.4,1.8c0.9-1.1,1.8-2.1,2.6-3.2c1.2-1.5-0.7-3.5-2.1-2.1C80,36.2,79,37.1,78,38
								c0.7,0.7,1.4,1.4,2.1,2.1c0.5-0.5,1-1,1.4-1.5c1.2-1.3-0.3-3.1-1.8-2.4c-1.7,0.8-2.8,1.9-3.6,3.5c-0.7,1.3,0.7,2.8,2.1,2.1
								c0.6-0.3,0.8-0.5,1.2-1c1.2-1.5-0.9-3.6-2.1-2.1c-0.6,0.7-1,1.4-1.4,2.3c-0.8,1.7,1.6,3.2,2.6,1.5c0.3-0.6,0.7-1.2,1-1.8
								c0.8-1.5-1.2-3.1-2.4-1.8c-0.9,0.9-1.3,1.8-1.7,3c-0.5,1.4,1.5,2.5,2.5,1.5c0.5-0.5,1-1,1.5-1.5c-0.8-0.6-1.6-1.2-2.4-1.8
								c-0.5,0.8-0.8,1.5-0.9,2.4c-0.2,1.3,1.4,2.7,2.5,1.5c1.1-1.1,1.7-2.2,2-3.7c0.4-1.7-1.8-2.6-2.7-1.2
								c-0.8,1.2-1.4,2.4-1.8,3.8c-0.6,1.7,1.8,2.5,2.7,1.2c0.8-1.1,1.2-2.1,1.6-3.3c0.4-1.4-1.5-2.6-2.5-1.5
								c-1.2,1.3-2.1,2.7-2.8,4.4c-0.8,1.7,1.5,3.2,2.6,1.5c0.6-1,0.9-1.8,0.9-2.9c0.1-1.5-2-2-2.8-0.8c-0.9,1.4-1.6,2.8-2.3,4.2
								c-0.8,1.7,1.5,3.2,2.6,1.5c0.5-0.7,0.9-1.4,1.2-2.1c0.8-1.7-1.7-3.2-2.6-1.5c-0.6,1.2-1.1,2.3-1.6,3.6c1,0.3,1.9,0.5,2.9,0.8
								c0.2-0.7,0.4-1.4,0.6-2.2c0.5-1.6-1.9-2.7-2.7-1.2c-0.5,1-0.6,1.3-0.6,2.5c0,1.3,1.6,2,2.6,1.1c0.9-0.9,1.6-1.9,2.1-3.1
								c0.7-1.7-1.8-3.3-2.6-1.5c-0.5,1-0.6,1.4-0.9,2.5c-0.4,1.5,1.4,2.4,2.5,1.5c1-0.8,1.6-1.6,2.2-2.7c-0.9-0.5-1.7-1-2.6-1.5
								c-0.5,1.2-1,2.3-1.3,3.6c-0.5,1.7,1.8,2.5,2.7,1.2c1.1-1.5,1.9-3.1,2.6-4.8c0.7-1.7-1.6-3.2-2.6-1.5c-0.4,0.9-1,1.6-1.8,2.1
								c0.7,0.7,1.4,1.4,2.1,2.1c1.8-1.9,3.5-3.9,5.1-5.9c1.2-1.5-0.7-3.5-2.1-2.1c-1.1,1-1.7,2.1-2.3,3.5c-0.6,1.5,1.5,2.3,2.5,1.5
								c1.8-1.4,3.5-2.9,5.3-4.3c1.4-1.1-0.4-3.1-1.8-2.4c-2.8,1.5-4.6,3.6-5.8,6.5C78.5,44.3,81.4,45.1,82.1,43.3L82.1,43.3z"/>
						</g>
					</g>
				</g>
				<g>
					<g>
						<path class="st0" d="M88.5,36.5c0.5,0.4,0.9,0.4,1,0c0.1-0.2,0.2-0.4,0.4-0.6c0.1-0.1,0.7-0.9,0.9-0.8
							c0.3,0.1-0.5,2.1-0.5,2.2c-0.1,0.3,0.1-0.5,0.2-0.6c0.1-0.4,0.4-0.8,0.7-1c0.3-0.3,0.6-0.6,1-0.8c0.1-0.1,0.2-0.1,0.4-0.2
							c0.5-0.1,0.5-0.2,0.2-0.2c-0.2-0.3-0.5-0.6-0.7-0.9c0.3,1.2-0.8,1.3-1.5,1.6c-0.1,0-0.2,0-0.3-0.1c0,1.2,0.1,1.4,0.4,0.7
							c0.3-0.3,0.5-0.6,0.9-0.9c1-0.6,0,0.9-0.3,1.2c-0.2,0.2-0.9,0.9-1.2,0.8c0,0,0,0.1,0,0.1c0-0.2,0.1-0.4,0.2-0.6
							c0.3-0.6,1-1.2,1.7-1.3c0.8-0.1,1.4,0.2,0.4,0.8c-0.4,0.3-1.5,0.5-1.8-0.1c-0.4-0.9,1.2-1.8,1.7-2c-0.6-0.2-1.1-0.5-1.7-0.7
							c0.2-0.8,0.1-1-0.2-0.6c-0.2,0.2-0.4,0.4-0.6,0.5c-0.2,0.1-0.5,0.3-0.7,0.4c-0.5,0-0.5,0.2,0,0.4c0.1,0.5,0.3,1,0.4,1.5
							c0,0.2,1-0.4,1-0.4c0.5-0.2,1-0.4,1.4-0.5c1-0.3,1.9-0.4,2.9-0.5c1.9-0.1,1.9-3.1,0-3c-2,0.1-4,0.5-5.9,1.4
							c-1.4,0.6-3.6,2.2-1.8,3.8c2.1,1.8,7.9-1.8,6.1-4.5c-0.4-0.6-1-0.9-1.7-0.7c-1.8,0.5-3.4,1.8-3.8,3.7
							c-0.4,1.8,0.4,3.6,2.2,4.2c1.6,0.6,3.6,0.2,4.8-1c1.3-1.2,1.7-3.2,0.4-4.6c-2.6-2.7-7-0.4-7.9,2.7c-0.5,1.6,0.2,3.7,2,4
							c1.8,0.3,3.7-1,4.7-2.4c1-1.4,1.4-3.4,0.2-4.8c-1.3-1.5-3.2-1.1-4.7,0c-1.3,0.9-2.8,2.9-1.6,4.4c1.1,1.3,3.4,1.2,4.8,0.5
							c1.5-0.8,2.6-2.7,2.3-4.5c-0.5-2.3-2.9-1.8-4.4-0.9c-1.5,0.9-2.8,2.5-3.2,4.3C87,38.1,88,40,89.9,40.1
							c4.3,0.3,5.7-8.3,0.9-8.2c-2.1,0.1-4,2.3-4.4,4.2C86,38.3,88,40.3,90,39C91.6,38,90.1,35.4,88.5,36.5L88.5,36.5z"/>
					</g>
				</g>
				<g>
					<g>
						<path class="st0" d="M123.2,40.2c-1-0.6-1.9-0.9-3.1-1.1c-1.5-0.3-2.5,1.4-1.5,2.5c0.9,1,1.9,2,2.8,3c0.6-0.8,1.2-1.6,1.8-2.4
							c-1.1-0.8-2.2-1.7-3.4-2.5c-1.5-1.1-2.8,1.1-1.8,2.4c0.9,1.1,1.8,2.1,2.9,3c0.6-0.8,1.2-1.6,1.8-2.4c-0.8-0.3-1.5-0.8-2.1-1.4
							c-0.5,0.8-1,1.7-1.5,2.5c1.3,0.4,2.5,1,3.4,2c0.6-0.8,1.2-1.6,1.8-2.4c-0.3-0.2-0.6-0.5-0.9-0.7c-0.6,0.8-1.2,1.6-1.8,2.4
							c0.8,0.6,1.6,1.2,2.4,1.9c1.5,1.2,3.5-0.7,2.1-2.1c-0.3-0.3-0.7-0.7-1-1c-1.3-1.3-3.1,0.3-2.4,1.8c0.4,0.8,0.7,1.6,1.1,2.4
							c0.7-0.7,1.4-1.4,2.1-2.1c-0.9-0.4-1.7-1-2.3-1.8c-0.6,0.8-1.2,1.6-1.8,2.4c0.9,0.5,1.8,1.1,2.6,1.9c1.5,1.2,3.4-0.7,2.1-2.1
							c-0.4-0.5-0.9-1-1.3-1.5c-1.2-1.3-3.1,0.4-2.4,1.8c0.3,0.7,0.7,1.4,1.2,2c0.9,1.3,2.6,0.7,2.8-0.8c0-0.2,0-0.4,0.1-0.6
							c-0.9,0.4-1.7,0.7-2.6,1.1c0.1,0.2,0.3,0.4,0.4,0.6c0.6,1.7,2.7,1.2,2.9-0.4c0-0.2,0.1-0.4,0.1-0.7c-0.9,0.3-1.9,0.5-2.8,0.8
							c0.2,0.5,0.4,1.1,0.7,1.6c0.6,1.8,3.5,1.1,2.9-0.8c-0.1-0.3-0.2-0.6-0.3-1c-0.9,0.4-1.8,0.8-2.7,1.2c0.3,0.4,0.5,0.9,0.8,1.3
							c0.8-0.6,1.6-1.2,2.4-1.8c-0.7-0.7-1.3-1.4-1.8-2.2c-0.8,0.6-1.6,1.2-2.4,1.8c0.5,0.5,0.9,1,1.1,1.7c0.6,1.4,2.8,0.7,2.8-0.8
							c-0.1-1.4-0.2-2.8-0.5-4.1c-1,0.3-1.9,0.5-2.9,0.8c0.1,0.6,0.1,1.2,0.2,1.8c1-0.1,2-0.3,2.9-0.4c-0.2-0.7-0.4-1.5-0.6-2.2
							c-1,0.3-1.9,0.5-2.9,0.8c0.1,0.3,0.3,0.7,0.4,1c0.9-0.4,1.8-0.8,2.7-1.2c-0.9-1.5-1.9-3-3-4.4c-0.7,0.7-1.4,1.4-2.1,2.1
							c0.3,0.5,0.5,0.9,0.8,1.4c0.7-0.6,1.5-1.1,2.2-1.7c-1.7-1.3-3.2-2.7-4.6-4.3c-0.7,0.7-1.4,1.4-2.1,2.1
							c1.3,1.2,2.6,2.4,3.9,3.6c0.6-0.8,1.2-1.6,1.8-2.4c-1.5-0.8-2.5-1.6-3.4-3.1c-0.7,0.7-1.4,1.4-2.1,2.1
							c1.5,0.8,2.7,1.7,3.8,2.9c1.3,1.4,3.4-0.7,2.1-2.1c-1.1-1.2-2.1-2.4-3.2-3.6c-0.6,0.8-1.2,1.6-1.8,2.4
							c1.4,0.8,2.5,1.7,3.6,3.1c1.1,1.5,3.7,0.2,2.6-1.5c-0.7-1.1-1.4-2-2.3-2.9c-0.6,0.8-1.2,1.6-1.8,2.4c1.5,1.1,2.2,2.5,2.6,4.3
							c1-0.3,1.9-0.5,2.9-0.8c-0.2-0.6-0.3-1.1-0.5-1.7c-0.9,0.4-1.8,0.8-2.7,1.2c0.1,0.4,0.3,0.7,0.4,1.1c0.8-0.5,1.7-1,2.5-1.5
							c-2.2-2.2-3.4-4.9-5.8-7c-0.6,0.8-1.2,1.6-1.8,2.4c1.1,0.5,1.9,1.1,2.6,1.9c0.6-0.8,1.2-1.6,1.8-2.4c-1.6-1-2.9-2.2-4.1-3.6
							c-0.6,0.8-1.2,1.6-1.8,2.4c1.3,0.8,2.3,1.6,3.2,2.8c0.6-0.8,1.2-1.6,1.8-2.4c-1.1-0.7-1.9-1.4-2.7-2.5
							c-0.7,0.7-1.4,1.4-2.1,2.1c1,0.7,1.9,1.5,2.7,2.3c0.6-0.8,1.2-1.6,1.8-2.4c-0.7-0.4-1.3-1-1.7-1.8c-0.7,0.7-1.4,1.4-2.1,2.1
							c0.7,0.5,1.3,1,1.8,1.7c0.7-0.7,1.4-1.4,2.1-2.1c-0.6-0.7-1.2-1.3-1.8-2c-1-1.3-3.4,0.5-2.4,1.8c0.6,0.8,1.2,1.6,1.9,2.4
							c0.6-0.8,1.2-1.6,1.8-2.4c-1.7-1.1-3.1-2.4-4.4-4c-0.7,0.7-1.4,1.4-2.1,2.1c0.6,0.6,1.2,1.1,1.7,1.7c1.4,1.4,3.5-0.7,2.1-2.1
							c-0.8-0.8-1.5-1.6-2.3-2.4c-0.7,0.7-1.4,1.4-2.1,2.1c0.7,0.7,1.2,1.3,1.8,2.1c0.7-0.7,1.4-1.4,2.1-2.1
							c-0.7-0.9-1.3-1.8-1.8-2.8c-0.8,0.6-1.6,1.2-2.4,1.8c1.1,0.8,2,1.7,2.9,2.8c1.1,1.3,3.4-0.4,2.4-1.8c-0.8-1-1.6-2-2.5-3
							c-0.6,0.8-1.2,1.6-1.8,2.4c0.7,0.4,1.3,0.9,1.8,1.6c0.7-0.7,1.4-1.4,2.1-2.1c-0.6-0.7-0.9-0.8-1.6-1.3
							c-1.3-0.8-2.8,0.8-2.1,2.1c0.7,1.1,1.5,2.2,2.3,3.2c0.6-0.8,1.2-1.6,1.8-2.4c-0.3-0.1-0.6-0.3-0.9-0.4
							c-1.7-0.9-3.1,1.5-1.5,2.6c0.4,0.3,0.8,0.6,1.2,0.9c1.4,1.3,3.5-0.8,2.1-2.1c-0.2-0.2-0.5-0.5-0.7-0.7
							c-0.6,0.8-1.2,1.6-1.8,2.4c0.6,0.3,1.1,0.7,1.6,1.2c1.4,1.3,3.5-0.8,2.1-2.1c-0.7-0.6-1.4-1.2-2.2-1.7c-1.4-0.9-3,1.2-1.8,2.4
							c0.2,0.2,0.5,0.5,0.7,0.7c0.7-0.7,1.4-1.4,2.1-2.1c-0.6-0.6-1-0.9-1.8-1.4c-0.5,0.9-1,1.7-1.5,2.6c0.3,0.1,0.6,0.3,0.9,0.4
							c1.6,0.8,2.9-1,1.8-2.4c-0.7-0.8-1.3-1.7-1.9-2.6c-0.7,0.7-1.4,1.4-2.1,2.1c0.3,0.3,0.7,0.6,1,0.8c1.3,1.4,3.3-0.7,2.1-2.1
							c-0.7-0.9-1.4-1.5-2.4-2.1c-1.5-1-3,1.2-1.8,2.4c0.7,0.7,1.4,1.5,2,2.3c0.8-0.6,1.6-1.2,2.4-1.8c-0.9-1-1.8-1.9-2.9-2.8
							c-1.3-1-3.2,0.2-2.4,1.8c0.7,1.2,1.4,2.3,2.3,3.4c1.2,1.5,3.3-0.6,2.1-2.1c-0.6-0.7-1.2-1.4-1.8-2.1c-1.4-1.4-3.5,0.7-2.1,2.1
							c0.8,0.8,1.5,1.6,2.3,2.4c0.7-0.7,1.4-1.4,2.1-2.1c-0.6-0.6-1.2-1.1-1.7-1.7c-1.4-1.4-3.3,0.7-2.1,2.1c1.5,1.8,3.1,3.2,5,4.5
							c1.5,1,2.8-1.1,1.8-2.4c-0.5-0.6-1-1.2-1.4-1.8c-0.8,0.6-1.6,1.2-2.4,1.8c0.6,0.7,1.1,1.4,1.8,2c1.3,1.4,3.4-0.7,2.1-2.1
							c-0.7-0.9-1.5-1.5-2.4-2.2c-1.3-0.9-2.8,0.8-2.1,2.1c0.7,1.2,1.6,2.1,2.7,2.9c1.4,0.9,3.1-1.2,1.8-2.4c-1.1-1-2.2-1.9-3.3-2.8
							c-1.2-0.9-2.9,0.9-2.1,2.1c1.1,1.5,2.2,2.6,3.8,3.5c1.5,0.9,2.9-1.1,1.8-2.4c-1.1-1.3-2.4-2.3-3.8-3.2
							c-1.5-0.9-2.9,1.1-1.8,2.4c1.4,1.6,2.9,2.9,4.7,4.1c1.5,1,2.9-1.1,1.8-2.4c-1-1.1-1.9-1.8-3.2-2.4c-1.4-0.7-3.2,1.2-1.8,2.4
							c2.4,2,3.7,4.8,5.8,7c1.1,1.1,2.8,0,2.5-1.5c-0.2-0.8-0.3-1.1-0.7-1.8c-0.8-1.5-3.2-0.5-2.7,1.2c0.2,0.6,0.3,1.1,0.5,1.7
							c0.5,1.9,3.3,1.1,2.9-0.8c-0.5-2.6-1.9-4.5-3.9-6c-1.4-1.1-3,1.2-1.8,2.4c0.7,0.7,1.4,1.5,1.9,2.3c0.9-0.5,1.7-1,2.6-1.5
							c-1.3-1.8-2.7-3-4.6-4.1c-1.5-0.9-2.9,1.1-1.8,2.4c1.1,1.2,2.1,2.4,3.2,3.6c0.7-0.7,1.4-1.4,2.1-2.1c-1.3-1.4-2.7-2.5-4.4-3.4
							c-1.3-0.6-2.9,0.7-2.1,2.1c1.1,1.8,2.5,3.2,4.5,4.2c1.4,0.7,3.1-1.1,1.8-2.4c-1.3-1.2-2.6-2.4-3.9-3.6
							c-1.4-1.3-3.4,0.7-2.1,2.1c1.6,1.8,3.3,3.4,5.2,4.8c1.1,0.8,2.6-0.5,2.2-1.7c-0.3-1.1-0.8-1.9-1.6-2.7
							c-1.3-1.4-3.3,0.7-2.1,2.1c1,1.2,1.8,2.4,2.6,3.8c0.8,1.4,3.3,0.5,2.7-1.2c-0.1-0.3-0.3-0.7-0.4-1c-0.7-1.8-3.4-1.1-2.9,0.8
							c0.2,0.8,0.4,1.5,0.6,2.2c0.5,1.6,3,1.3,2.9-0.4c0-1.2-0.1-1.5-0.3-2.6c-0.4-1.9-3.3-1.1-2.9,0.8c0.3,1.1,0.4,2.2,0.4,3.3
							c0.9-0.3,1.9-0.5,2.8-0.8c-0.4-0.9-0.9-1.6-1.5-2.3c-1.1-1.2-3.4,0.4-2.4,1.8c0.7,1,1.5,1.9,2.3,2.8c1.1,1.3,3.2-0.4,2.4-1.8
							c-0.3-0.4-0.5-0.9-0.8-1.3c-0.9-1.4-3.3-0.5-2.7,1.2c0.1,0.3,0.2,0.6,0.3,1c1-0.3,1.9-0.5,2.9-0.8c-0.3-0.9-0.5-1.5-1-2.3
							c-0.7-1.5-2.6-0.5-2.8,0.8c0,0.2-0.1,0.4-0.1,0.7c1-0.1,2-0.3,2.9-0.4c-0.3-0.9-0.5-1.3-1.2-2c-1-1-2.4-0.2-2.6,1.1
							c0,0.2,0,0.4-0.1,0.6c0.9-0.3,1.9-0.5,2.8-0.8c-0.5-0.6-0.9-1.3-1.2-2c-0.8,0.6-1.6,1.2-2.4,1.8c0.4,0.5,0.9,1,1.3,1.5
							c0.7-0.7,1.4-1.4,2.1-2.1c-1-0.8-2.1-1.6-3.2-2.3c-1.5-0.9-3,1.1-1.8,2.4c0.9,0.9,1.8,1.6,2.9,2.3c1.4,0.8,2.7-0.8,2.1-2.1
							c-0.4-0.8-0.7-1.6-1.1-2.4c-0.8,0.6-1.6,1.2-2.4,1.8c0.3,0.3,0.7,0.7,1,1c0.7-0.7,1.4-1.4,2.1-2.1c-1-0.8-2-1.6-3-2.4
							c-1.4-1.1-2.8,1.1-1.8,2.4c0.6,0.7,0.7,0.8,1.5,1.2c1.5,0.8,3-1.1,1.8-2.4c-1.4-1.4-2.8-2.3-4.8-2.8c-1.5-0.4-2.5,1.4-1.5,2.5
							c0.8,0.8,1.6,1.4,2.7,1.9c1.4,0.7,3.2-1.2,1.8-2.4c-1.1-0.9-2-1.9-2.9-3c-0.6,0.8-1.2,1.6-1.8,2.4c1.1,0.8,2.2,1.7,3.4,2.5
							c1.4,1,3-1.2,1.8-2.4c-1-1-1.9-2-2.8-3c-0.5,0.8-1,1.7-1.5,2.5c0.9,0.1,1.6,0.4,2.4,0.8C123.4,43.8,124.9,41.2,123.2,40.2
							L123.2,40.2z"/>
					</g>
				</g>
				<g>
					<g>
						<path class="st0" d="M124,39.1c-1.7-0.8-3.2-1.9-4.6-3.1c-1.4-1.3-3.5,0.8-2.1,2.1c1.3,1.2,2.6,2.3,4.1,3.2
							c1.5,0.9,3-1.1,1.8-2.4c-1-1.1-1.9-2.2-2.8-3.4c-0.8,0.6-1.6,1.2-2.4,1.8c1.4,1.2,2.7,2.5,3.8,3.9
							C122.5,40.6,123.3,39.9,124,39.1c-1-1-2-2-3-3c-0.7,0.7-1.4,1.4-2.1,2.1c1.4,1.3,2.9,2.6,4.3,3.9c0.7-0.7,1.4-1.4,2.1-2.1
							c-1.6-1.3-3.1-2.7-4.7-4c-0.6,0.8-1.2,1.6-1.8,2.4c1.5,0.9,2.9,2,4.2,3.1c1.5,1.2,3.6-0.8,2.1-2.1c-1.4-1.2-2.8-2.5-4.2-3.7
							c-0.7,0.7-1.4,1.4-2.1,2.1c1.6,1.3,3.1,2.6,4.7,3.8c1.5,1.2,3.6-0.9,2.1-2.1c-1.6-1.3-3.1-2.6-4.7-3.8
							c-1.5-1.2-3.6,0.8-2.1,2.1c1.4,1.2,2.8,2.5,4.2,3.7c0.7-0.7,1.4-1.4,2.1-2.1c-1.5-1.3-3.1-2.5-4.8-3.6
							c-1.4-0.9-3.1,1.2-1.8,2.4c1.6,1.3,3.1,2.7,4.7,4c1.5,1.2,3.6-0.8,2.1-2.1c-1.4-1.3-2.9-2.6-4.3-3.9c-1.4-1.3-3.5,0.8-2.1,2.1
							c1,1,2,2,3,3.1C123.1,42.8,125.1,40.7,124,39.1c-1.2-1.3-2.5-2.6-3.9-3.8c-1.2-1-3.4,0.3-2.4,1.8c1,1.4,2.1,2.7,3.2,4
							c0.6-0.8,1.2-1.6,1.8-2.4c-1.3-0.8-2.4-1.7-3.5-2.8c-0.7,0.7-1.4,1.4-2.1,2.1c1.6,1.4,3.3,2.6,5.2,3.6
							C124.2,42.6,125.8,40,124,39.1L124,39.1z"/>
					</g>
				</g>
				<g>
					<g>
						<path class="st0" d="M101.7,33.2c-1.7,0-3.1-0.3-4.6-1.1c-0.1,0.9-0.2,1.8-0.4,2.7c0.1,0,3.2-0.8,2.8,0.1
							c-0.1,0.1-1.7,0.2-1.6,0c0.3-0.6,2.3-0.2,2.1-0.6c0.3,1-2.9,1.1-3.2,1.1c-0.6,0-2.8,0.2-0.2-0.3c1-0.2,1.8-0.4,0.6,0.3
							c-0.7,0.4-1.6,0.8-2.3,1.1c0.7-0.3,1.5-0.9,2.3-0.8c-0.3-0.3-0.7-0.7-1-1c0.1,0.3-2.3,1-2.4,1c-1.7,0.3-0.4-0.6,0.9-0.3
							c-0.3-0.3-0.7-0.7-1-1c-1-0.1-1.3,0.2-0.9,1c0,0.8,0.4,1.1,1.3,0.7c-0.4-0.9-0.7-1.7-1.1-2.6c-0.3,1.4,0.2,1.9,1.3,1.6
							c-0.3-0.9-0.5-1.9-0.8-2.8c-0.3,0.2-3.4,1.6-3.6,1.1c-0.1,0.5-0.3,1-0.4,1.5c0.5-0.3,1.1-0.6,1.7-0.9c1.4-0.3,1.8-0.5,1.1-0.6
							c-0.2-0.6-0.5-1.1-0.7-1.7c-0.5,0.4-1,0.7-1.6,0.8c0.4,0.2,0.9,0.5,1.3,0.7c0.3,0.7,0.9,0.9,1.5,0.6c-0.5-0.8-1-1.7-1.5-2.5
							c-0.5,0.3-0.9,0.6-1.4,0.9c-0.1,0.5-0.3,1-0.4,1.5c1-1,2.7-1.4,4-1.3c-0.3-0.9-0.5-1.9-0.8-2.8c-0.5,0.1-0.9,0.2-1.4,0.3
							c0.3,0.9,0.5,1.9,0.8,2.8c0.9-0.5,1.8-0.6,2.8-0.5c-0.1-1-0.3-2-0.4-2.9c-1.8,0.6-3.5,1-5.5,0.9c0.4,0.9,0.7,1.7,1.1,2.6
							c1.2-1,2.4-1.4,3.9-1.7c-0.4-0.9-0.8-1.8-1.2-2.7c-1,0.4-2,0.8-3.1,1.1c-1.9,0.6-1.1,3.2,0.8,2.9c1.3-0.2,2.6-0.4,3.8-0.6
							c-0.5-0.8-1-1.7-1.5-2.5c-0.1,0-0.1,0.1-0.2,0.1c0,1,0,1.9,0,2.9c1.1-0.3,2.2-0.5,3.3-0.6c1.9-0.2,2-3,0-3c-0.8,0-1.7,0-2.5,0
							c0,1,0,2,0,3c1.4-0.1,2.9-0.2,4.3-0.3c-0.1-1-0.3-2-0.4-2.9c-0.2,0-0.3,0-0.5,0.1c-0.7,0.1-1,0.8-1.1,1.4c0,0.2,0,0.3-0.1,0.5
							c-0.2,1.9,2.8,1.9,3,0c0-0.2,0-0.3,0.1-0.5c-0.4,0.5-0.7,1-1.1,1.4c0.2,0,0.3,0,0.5-0.1c1.7-0.2,1.3-3-0.4-2.9
							c-1.4,0.1-2.9,0.2-4.3,0.3c-1.9,0.1-1.9,3,0,3c0.8,0,1.7,0,2.5,0c0-1,0-2,0-3c-1.4,0.2-2.7,0.4-4.1,0.7
							c-1.4,0.3-1.5,2.6,0,2.9c1.3,0.2,2.1,0,3.1-0.9c1.2-1.1-0.1-2.7-1.5-2.5c-1.3,0.2-2.6,0.4-3.8,0.6c0.3,1,0.5,1.9,0.8,2.9
							c1.3-0.4,2.5-0.9,3.8-1.4c1.7-0.7,0.4-3-1.2-2.7c-2,0.3-3.7,1.2-5.3,2.5c-1.1,0.9-0.1,2.5,1.1,2.6c2.2,0.1,4.2-0.4,6.3-1
							c1.6-0.5,1.3-2.9-0.4-2.9c-1.6,0-2.9,0.3-4.3,0.9c-1.4,0.6-0.6,2.8,0.8,2.8c1.1,0,1.9-0.2,2.9-0.7c1.4-0.8,0.6-2.7-0.8-2.8
							c-2.1-0.2-4.5,0.7-6.1,2.2c-0.4,0.4-0.5,1-0.4,1.5c0.8,3,4.8,1.7,6.4,0.4c1.3-1-0.2-2.7-1.5-2.5c-1.5,0.2-5.4,2-3.1,4.1
							c1.6,1.4,5.3-0.8,5.6-2.6c0.1-0.7-0.1-1.3-0.7-1.7c-1.9-1.1-5,0.6-6.5,1.9c-0.4,0.4-0.5,1-0.4,1.5c0.9,3.3,5.9,2.1,8,0.7
							c1.3-0.9,0.7-2.6-0.8-2.8c-2-0.2-5.4,1.2-4.8,3.7c0.7,3,4.3,1.3,5.6-0.2c0.9-1,0.2-2.4-1.1-2.6c-1.5-0.1-4.1,0.4-4.5,2.3
							c-0.3,1.6,1,2.5,2.4,2.4c1.6,0,3.7-1,4.5-2.5c0.6-1.3,0.1-2.5-1.3-2.9c-3.3-0.9-8.7,3.4-4.2,5.7c2.7,1.4,9.4-0.3,8.2-4.3
							c-0.1-0.5-0.5-1-1-1c-2.1-0.3-6,0.8-6.4,3.2c-0.5,3.1,3.7,3.4,5.8,2.7c2.1-0.7,5.2-3.6,3-5.8c-1.7-1.7-5.9-1-7.3,0.9
							c-3.1,4.3,9.5,7.6,10.2,0.4c0.6-6.2-12.8-1-7.7,3.1c2.1,1.7,7,0.9,8-1.8c1.5-4.3-5.2-4.1-7.5-3.4c-1.2,0.3-1.6,2.1-0.4,2.7
							c2,1,3.9,1.5,6.1,1.5C103.6,36.2,103.6,33.2,101.7,33.2L101.7,33.2z"/>
					</g>
				</g>
				<g>
					<g>
						<path class="st0" d="M100.2,33.9c-0.7-0.4-1.4-0.7-2.2-1.1c-0.3,0.9-0.5,1.9-0.8,2.8c1-0.1,4.8-0.1,4.6,0
							c1.3-0.5,1.6-2.4,3.9-1.9c-0.4-0.5-0.7-1-1.1-1.4c0.3,0.8,0.6,1.6,0.8,2.4c-0.5-0.5-1-1-1.5-1.5c-0.4,0.1-0.8,0.3-1.3,0.4
							c0.6,0.7,1.1,1.5,1.7,2.2c0.3-0.2,0.7-0.4,1-0.6c-0.6-0.7-1.1-1.5-1.7-2.2c-0.3,0.3-0.6,0.7-0.9,1c0.6,0.8,1.2,1.6,1.8,2.4
							c0.2-0.2,0.5-0.3,0.7-0.5c-0.6-0.7-1.1-1.5-1.7-2.2c0.1,0.7,0.3,1.3,0.4,2c-0.6-0.8-1.2-1.6-1.8-2.4c2-2.1-7,3.7-4.2,3.2
							c-0.6-0.7-1.1-1.5-1.7-2.2c1.1-2.3,2.6-2,4.6-1.4c-0.1-0.9-0.2-1.8-0.4-2.7c-1.4,0.2-2.8,0.4-4.2,0.6c0,1,0,1.9,0,2.9
							c1.1-0.6,2.4-0.7,3.7-0.5c-0.4-0.9-0.7-1.7-1.1-2.6c-1,0.1-2,0.3-2.9,0.4c0.1,0.9,0.2,1.8,0.4,2.7c1.5-1.2,3.2-1.6,5-1.2
							c-0.1-1-0.3-2-0.4-2.9c-1.9,0.6-3.8,0.9-5.8,0.9c0.3,0.9,0.5,1.9,0.8,2.8c1.2-0.1,2.4-0.2,3.7-0.3c-0.2-0.8-0.4-1.7-0.7-2.5
							c-1.7,1.8-3.6,2.2-5.6,1.2c0,1,0,1.9,0,2.9c2.2-0.9,6.1-2.4,8.5-1.2c-0.2-0.6-0.5-1.1-0.7-1.7c-0.3,1.1-5.2,0.5-5.8,0.4
							c0.3,0.9,0.5,1.9,0.8,2.8c3-1.4,5.9-1.7,9.2-1.2c-0.1-0.9-0.2-1.8-0.4-2.7c-1.3,0.1-2.6,0.1-3.9,0.2c-0.1,0.9-0.2,1.8-0.4,2.7
							c3.6-1.2,6.6-1.2,10.2,0c0-1,0-1.9,0-2.9c-2.1,0.8-4.1,0.7-6.1-0.3c-0.3,0.9-0.5,1.9-0.8,2.8c1.4,0.1,6.4-0.2,7.1,1.6
							c0.3-0.6,0.7-1.2,1-1.8c-1.9,0.5-3.7,0.2-5.3-0.8c-0.3,0.9-0.5,1.9-0.8,2.8c3.1-0.3,5.4,0.2,8.1,1.7c0.3-0.9,0.5-1.9,0.8-2.8
							c-3,0-5.8-0.5-8.6-1.5c0,1,0,1.9,0,2.9c3.3-0.7,5.8,0,8.5,2c0.4-0.9,0.8-1.8,1.2-2.7c-1-0.6-2.1-1.3-3.1-1.9
							c-0.5,0.8-1,1.7-1.5,2.5c2.3,0.7,4,1.9,5.4,3.8c0.7-0.7,1.4-1.4,2.1-2.1c-0.8-0.5-1.7-1-2.5-1.5c-1.4-0.9-3.1,1.2-1.8,2.4
							c1.2,1.1,2.3,2,3.6,2.9c1.2,0.8,3-0.9,2.1-2.1c-0.8-1.1-1.2-1.6-2.2-2.6c-0.7,0.7-1.4,1.4-2.1,2.1c0.9,0.6,1.7,1.3,2.4,2.1
							c0.7-0.7,1.4-1.4,2.1-2.1c-0.9-0.7-1.2-0.9-2.1-1.5c-1.4-0.8-3.1,1.2-1.8,2.4c0.5,0.5,1.1,1,1.6,1.5c0.5-0.8,1-1.7,1.5-2.5
							c-0.8-0.4-1.6-0.9-2.4-1.3c-1.6-1.1-3.1,1.5-1.5,2.6c0.7,0.5,1.4,1,2.1,1.5c0.4-0.9,0.8-1.8,1.2-2.7c-0.8-0.3-1.7-0.7-2.5-1
							c-0.4,0.9-0.8,1.8-1.2,2.7c1.2,0.4,2.3,0.7,3.5,1.1c0.3-1,0.5-1.9,0.8-2.9c-0.7-0.3-1.4-0.5-2.2-0.8c-1.4-0.8-3.2,1.2-1.8,2.4
							c1,0.8,1.9,1.6,2.9,2.4c0.7-0.7,1.4-1.4,2.1-2.1c-0.3-0.3-0.7-0.6-1-0.8c-0.6,0.8-1.2,1.6-1.8,2.4c0.3,0.1,0.7,0.3,1,0.4
							c1.1,0.5,2.7-0.3,2.2-1.7c-0.2-0.4-0.3-0.8-0.5-1.3c-0.6,0.6-1.2,1.2-1.8,1.8c0.4,0.1,0.9,0.3,1.3,0.4
							c1.1,0.3,2.2-0.8,1.8-1.8c-0.2-0.7-0.4-1.4-0.6-2.1c-0.7,0.6-1.5,1.1-2.2,1.7c0.4,0.3,0.8,0.6,1.2,0.9c1,0.7,2.7-0.5,2.2-1.7
							c-0.1-0.4-0.3-0.8-0.4-1.1c-0.7,0.6-1.5,1.1-2.2,1.7c0.2,0.1,0.4,0.3,0.7,0.4c0.5-0.9,1-1.7,1.5-2.6c-5.3-3-10.9-5.2-16.8-6.6
							c-0.1,1-0.3,2-0.4,2.9c2.4,0.3,4.8,0.6,7.2,0.9c1.6,0.2,1.9-2.1,0.8-2.8c-0.3-0.2-0.5-0.3-0.8-0.5c-1.6-1.1-3.1,1.5-1.5,2.6
							c0.3,0.2,0.5,0.3,0.8,0.5c0.3-0.9,0.5-1.9,0.8-2.8c-2.4-0.3-4.8-0.6-7.2-0.9c-1.7-0.2-2,2.6-0.4,2.9c5.7,1.3,11,3.4,16.1,6.3
							c1.7,1,3.2-1.6,1.5-2.6c-0.2-0.1-0.4-0.3-0.7-0.4c-1-0.6-2.7,0.4-2.2,1.7c0.1,0.4,0.3,0.8,0.4,1.1c0.7-0.6,1.5-1.1,2.2-1.7
							c-0.4-0.3-0.8-0.6-1.2-0.9c-1.1-0.8-2.6,0.5-2.2,1.7c0.2,0.7,0.4,1.4,0.6,2.1c0.6-0.6,1.2-1.2,1.8-1.8
							c-0.4-0.1-0.9-0.3-1.3-0.4c-1-0.3-2.3,0.8-1.8,1.8c0.2,0.4,0.3,0.8,0.5,1.3c0.7-0.6,1.5-1.1,2.2-1.7c-0.3-0.1-0.7-0.3-1-0.4
							c-1.4-0.6-3.3,1.2-1.8,2.4c0.3,0.3,0.7,0.6,1,0.8c1.5,1.2,3.6-0.9,2.1-2.1c-1-0.8-1.9-1.6-2.9-2.4c-0.6,0.8-1.2,1.6-1.8,2.4
							c1.4,0.8,1.3,0.8,2.9,1.1c1.9,0.3,2.7-2.3,0.8-2.9c-1.2-0.4-2.3-0.7-3.5-1.1c-1.6-0.5-2.6,1.9-1.2,2.7
							c1.6,0.9,1.5,0.9,3.2,1.3c1.7,0.4,2.5-1.8,1.2-2.7c-0.7-0.5-1.4-1-2.1-1.5c-0.5,0.9-1,1.7-1.5,2.6c1.4,0.9,1.5,1,3.1,1.6
							c1.4,0.6,2.5-1.5,1.5-2.5c-0.5-0.5-1.1-1-1.6-1.5c-0.6,0.8-1.2,1.6-1.8,2.4c0.5,0.3,1,0.7,1.5,1c1.5,1.2,3.6-0.8,2.1-2.1
							c-0.7-0.8-1.5-1.4-2.4-2.1c-1.5-1.2-3.5,0.7-2.1,2.1c0.6,0.7,1.1,1.3,1.7,2c0.7-0.7,1.4-1.4,2.1-2.1c-1.1-0.7-2.1-1.5-3-2.5
							c-0.6,0.8-1.2,1.6-1.8,2.4c0.8,0.5,1.7,1,2.5,1.5c1.2,0.7,3-0.8,2.1-2.1c-1.9-2.6-4.1-4.2-7.2-5.2c-1.5-0.5-2.5,1.5-1.5,2.5
							c1.4,1.4,2.6,2.1,4.5,2.7c1.8,0.5,2.4-1.8,1.2-2.7c-3.3-2.5-6.8-3.2-10.8-2.3c-1.6,0.3-1.3,2.4,0,2.9c3.1,1.1,6.1,1.6,9.4,1.6
							c1.5,0,2.1-2.1,0.8-2.8c-3.1-1.7-6.1-2.4-9.6-2.1c-1.4,0.1-2.2,2-0.8,2.8c2.5,1.4,4.8,1.7,7.7,1.2c0.7-0.1,1.3-1.1,1-1.8
							c-1.4-3.8-6.5-3.6-9.9-3.8c-1.4-0.1-2.1,2.2-0.8,2.8c2.9,1.3,5.4,1.5,8.5,0.6c1.5-0.4,1.4-2.4,0-2.9c-4-1.4-7.8-1.4-11.8,0
							c-1.2,0.4-1.5,2.1-0.4,2.7c2.4,1.4,4.7,1.3,6.9-0.2c1-0.7,1-2.5-0.4-2.7c-4.1-0.7-7.7-0.3-11.5,1.5c-1.5,0.7-0.5,2.6,0.8,2.8
							c2.6,0.3,7.9,0.7,8.7-2.6c0.1-0.6-0.1-1.4-0.7-1.7c-3.3-1.6-7.6-0.4-10.8,0.9c-1.4,0.6-1.4,2.3,0,2.9c3.2,1.2,6.1,0.5,8.5-1.9
							c0.8-0.8,0.4-2.2-0.7-2.5c-2.3-0.7-3.9-0.5-6,0.6c-1.3,0.7-0.7,2.8,0.8,2.8c2.3,0,4.4-0.3,6.6-1c1.7-0.5,1.3-2.8-0.4-2.9
							c-2.5-0.2-4.4,0.3-6.5,1.6c-1.2,0.7-0.8,2.3,0.4,2.7c2.3,0.9,4.1,0.5,5.9-1.2c1-0.9,0.2-2.5-1.1-2.6c-1.6-0.1-2.9,0.1-4.5,0.6
							c-1.2,0.4-1.6,2.6,0,2.9c2.5,0.4,4.2,0.1,6.5-1c1.2-0.6,0.8-2.4-0.4-2.7c-1.9-0.6-5.1-1.5-6.8,0.1c-1.2,1.1-1.1,3-0.1,4.1
							c2.2,2.4,8.2,0.6,6.6-3.2c-1.5-3.4-8.1-0.7-8.7,2.1c-1,4.8,5.5,3.3,7.2,0.9c0.3-0.4,0.3-1.1,0-1.5c-1.9-2.6-6.4-1.2-6.3,2.3
							c0.2,3.1,3.9,3.8,5.2,1.1c0.6-1.2-0.4-2.4-1.7-2.2c-6.8,1.1-0.5,8.4,3.5,4.1c3.8-4-5-7-6.9-3.5c-0.2,0.4-0.3,1.1,0,1.5
							c2.6,3.6,7.8,2.4,10.5-0.3c1.2-1.2-0.3-3.3-1.8-2.4c-3.4,2.1,0.8,6.3,3.7,2.1c0.7-1.1-0.5-2.6-1.7-2.2c-1,0.3-1.3,0.5-2,1.3
							c-1.1,1.3,0.3,3.2,1.8,2.4c1.3-0.7,1.4-0.8,2-2.1c0.5-1.1-0.3-2.6-1.7-2.2c-1.6,0.4-1.8,0.7-2.8,2c-0.8,1.1,0.5,2.5,1.7,2.2
							c2.2-0.5,3.2-1.1,3.5-3.3c0.1-0.8-0.8-1.6-1.5-1.5c-2.4,0.2-7.4,3-3.7,5.7c3,2.1,6.1-2.5,5.9-5.1c0-0.6-0.4-1.3-1.1-1.4
							c-2.4-0.5-8.2,1.2-6.9,4.6c1.3,3.4,7.3,1.5,8.3-1.1c2-5-5.2-4.2-7.6-2.4c-3,2.3-1.2,6.3,2.5,5.8c3.3-0.4,6.2-5,2.8-7.2
							c-2.7-1.8-9.7,0.8-8.9,4.7c0.6,3,7.3,4.7,9,2c2.9-4.5-6.3-5-8.5-4.7c-1.4,0.2-2.1,1.9-0.8,2.8c1.3,0.8,1.4,0.9,2.9,1.4
							C101.3,37.4,102,34.5,100.2,33.9L100.2,33.9z"/>
					</g>
				</g>
				<g>
					<g>
						<path class="st0" d="M116.5,33.6c-0.6-0.3-1.2-0.6-1.7-1c-1.6-1.1-3,1.5-1.5,2.6c1.6,1.2,3.3,2.3,5,3.2c0.5-0.9,1-1.7,1.5-2.6
							c-1.6-0.7-3.2-1.6-4.7-2.6c-1.4-0.9-3.1,1.2-1.8,2.4c1.4,1.3,2.9,2.4,4.6,3.5c0.5-0.9,1-1.7,1.5-2.6c-2-1.3-3.8-2.7-5.5-4.4
							c-0.6,0.8-1.2,1.6-1.8,2.4c1.9,1,3.9,1.8,5.9,2.4c1.7,0.6,2.5-1.9,1.2-2.7c-1.6-1-3.1-2-4.7-3c-0.4,0.9-0.8,1.8-1.2,2.7
							c1.3,0.4,2.6,0.7,3.9,1.1c1.7,0.5,2.5-1.8,1.2-2.7c-1.1-0.8-2.3-1.5-3.4-2.3c-0.5,0.9-1,1.7-1.5,2.6c0.9,0.5,1.8,0.9,2.7,1.4
							c0.4-0.9,0.8-1.8,1.2-2.7c-1.5-0.5-3-1.1-4.5-1.6c-0.3,1-0.5,1.9-0.8,2.9c1.3,0.5,2.5,0.9,3.8,1.4c0.1-1,0.3-2,0.4-2.9
							c-1-0.1-2-0.3-3-0.6c-1.4-0.4-2.5,1.5-1.5,2.5c1.2,1.2,2.5,2.3,3.9,3.3c0.4-0.9,0.8-1.8,1.2-2.7c-2.2-0.4-4.2-1.3-6-2.6
							c-0.5,0.8-1,1.7-1.5,2.5c2.4,0.3,4.7,0.8,7,1.4c0.1-1,0.3-2,0.4-2.9c-2.3-0.3-4.2-1.9-6.5-1.8c-1.9,0.1-1.9,3.1,0,3
							c1.2,0,2.2,0.8,3.3,1.1c1.1,0.4,2.1,0.5,3.2,0.7c1.7,0.2,2-2.5,0.4-2.9c-2.3-0.6-4.6-1-7-1.4c-1.3-0.2-2.8,1.5-1.5,2.5
							c2.2,1.7,4.6,2.9,7.3,3.4c1.7,0.3,2.6-1.7,1.2-2.7c-1.2-0.8-2.3-1.8-3.3-2.8c-0.5,0.8-1,1.7-1.5,2.5c1.2,0.4,2.5,0.6,3.8,0.7
							c1.8,0.2,1.9-2.4,0.4-2.9c-1.3-0.5-2.5-0.9-3.8-1.4c-1.8-0.7-2.6,2.2-0.8,2.9c1.5,0.5,3,1.1,4.5,1.6c1.6,0.6,2.7-2,1.2-2.7
							c-0.9-0.5-1.8-0.9-2.7-1.4c-1.7-0.9-3.1,1.5-1.5,2.6c1.1,0.8,2.3,1.5,3.4,2.3c0.4-0.9,0.8-1.8,1.2-2.7
							c-1.3-0.4-2.6-0.7-3.9-1.1c-1.7-0.4-2.6,1.8-1.2,2.7c1.6,1,3.1,2,4.7,3c0.4-0.9,0.8-1.8,1.2-2.7c-1.8-0.6-3.5-1.3-5.2-2.1
							c-1.5-0.7-3.1,1.1-1.8,2.4c1.9,1.8,3.9,3.4,6.1,4.8c1.6,1,3.1-1.6,1.5-2.6c-1.4-0.9-2.7-1.9-4-3c-0.6,0.8-1.2,1.6-1.8,2.4
							c1.5,1,3,1.9,4.7,2.6c1.7,0.8,3.2-1.6,1.5-2.6c-1.7-1-3.4-2.1-5-3.2c-0.5,0.9-1,1.7-1.5,2.6c0.6,0.4,1.1,0.7,1.7,1
							C116.8,36.9,118.3,34.4,116.5,33.6L116.5,33.6z"/>
					</g>
				</g>
				<g>
					<g>
						<path class="st0" d="M97.1,30.6c-0.1,0-0.2,0-0.3,0c0.6,0.2,1.1,0.5,1.7,0.7c-0.1-0.1-0.1-0.2-0.2-0.3
							c-0.3,0.7-0.6,1.5-0.9,2.2c1.5-0.5,3.1-0.7,4.6-0.4c-0.1-1-0.3-2-0.4-2.9c-2.5,0.8-4.8,1-7.4,0.6c0.2,0.8,0.4,1.7,0.7,2.5
							c0.6-0.3,1.2-0.5,1.7-0.8c-0.4-0.9-0.7-1.7-1.1-2.6c-0.7,0.3-1.5,0.6-2.2,0.9c0.4,0.8,0.9,1.5,1.3,2.3c-1.6-0.9-3.3-0.9-5,0
							c0.3,0.9,0.5,1.9,0.8,2.8c0.9-0.1,1.7-0.2,2.6-0.2c-0.1-0.9-0.2-1.8-0.4-2.7c-1.1,0.4-2.3,0.7-3.4,1.1c-1.9,0.2-1.9,3.2,0,3
							c1,0.1,2,0.1,3,0.2c-0.2-0.6-0.5-1.1-0.7-1.7c-0.4-0.1-0.8-0.2-1.2-0.3c-0.1,0.9-0.2,1.8-0.4,2.7c3.8,1.3,5,0.8,3.5-1.4
							c-0.1,0.9-0.2,1.8-0.4,2.7c2.7-1.1,5.1-1.2,7.9-0.3c-0.1-0.9-0.2-1.8-0.4-2.7c-1.7,1.1-3.4,1.3-5.1,0.5
							c0.1,0.9,0.2,1.8,0.4,2.7c0.9-0.2,1.7-0.4,2.6-0.7c-0.3-0.9-0.5-1.9-0.8-2.8c-1.1,0.1-2.2,0.2-3.3,0.2
							c-1.9-0.5-2.5,2.2-0.8,2.9c0.6,0.4,1.2,0.7,1.7,1.1c0.4-0.9,0.7-1.7,1.1-2.6c-1.1-0.2-2.3-0.3-3.4-0.5
							c-0.4,0.9-0.8,1.8-1.2,2.7c1.1,0.3,2.2,0.7,3.3,1.2c0.3-1,0.5-1.9,0.8-2.9c-1.3-0.2-2.3-0.7-3.2-1.5c-0.3,0.9-0.5,1.9-0.8,2.8
							c1.6-0.1,3,0.4,4.1,1.5c0.5-0.9,1-1.7,1.5-2.6c-0.7-0.3-1.4-0.7-2.1-1c-0.4,0.9-0.8,1.8-1.2,2.7c2.9,0.6,5.7,0.9,8.7,0.9
							c1.6,0,2.1-2.7,0.4-2.9c-1.9-0.3-3.8-0.5-5.7-0.8c0,1,0,1.9,0,2.9c2.1-0.7,4.1-1,6.3-0.9c-0.1-1-0.3-2-0.4-2.9
							c-1.3,0.1-2.7,0.2-4,0.3c0.1,0.9,0.2,1.8,0.4,2.7c1.6-0.8,3.3-1.2,5.2-1.3c-0.4-0.9-0.7-1.7-1.1-2.6c-1,1.3-2.4,2.1-4,2.3
							c0.5,0.8,1,1.7,1.5,2.5c1.2-0.4,2.5-0.9,3.7-1.3c-0.4-0.8-0.9-1.5-1.3-2.3c-0.6,0.6-1.3,1.1-1.9,1.7c0.6,0.7,1.1,1.5,1.7,2.2
							c1.1-0.8,2.1-1.5,3.2-2.3c-0.6-0.7-1.1-1.5-1.7-2.2c-0.9,0.6-1.7,1.3-2.6,1.9c0.6,0.3,1.2,0.7,1.8,1c1.1-0.7,2.1-1.4,3.2-2
							c-0.6-0.6-1.2-1.2-1.8-1.8c-0.3,0.4-0.5,0.9-0.8,1.3c0.3,0.6,0.7,1.2,1,1.8c2,0.1,4,0.1,6,0.2c0.4-0.9,0.7-1.7,1.1-2.6
							c-1.6,0-3.1-0.3-4.5-1c-0.3,0.9-0.5,1.9-0.8,2.8c1.5,0.5,3,0.9,4.5,1.4c0.4-0.9,0.7-1.7,1.1-2.6c-0.8-0.2-1.7-0.5-2.5-0.7
							c-0.4,0.9-0.8,1.8-1.2,2.7c1.4,0.3,2.8,0.7,4.2,1.1c1.6,0.5,2.7-2.1,1.2-2.7c-0.5-0.2-1-0.4-1.5-0.6c-1.7-0.7-3.3,1.6-1.5,2.6
							c0.7,0.3,1.3,0.7,1.8,1.1c0.4-0.9,0.8-1.8,1.2-2.7c-0.7-0.3-1.3-0.6-2-0.9c-0.5,0.9-1,1.7-1.5,2.6c0.9,0.5,1.8,0.9,2.7,1.4
							c0.5-0.9,1-1.7,1.5-2.6c-0.6-0.3-1.1-0.5-1.7-0.8c-0.4,0.9-0.8,1.8-1.2,2.7c0.6,0.3,1.2,0.5,1.9,0.6c1.4,0.3,2.6-1.4,1.5-2.5
							c-0.5-0.5-1.1-1-1.6-1.5c-1.4-1.3-3.5,0.8-2.1,2.1c1.1,1,1,1,2.4,1.6c1.8,0.8,3.1-1.4,1.5-2.6c-0.7-0.6-1.5-1.1-2.2-1.7
							c-0.5,0.9-1,1.7-1.5,2.6c1.4,0.6,1.4,0.7,2.9,1c1.7,0.3,2.5-1.7,1.2-2.7c-0.8-0.7-1.7-1.3-2.7-1.7c-0.4,0.9-0.8,1.8-1.2,2.7
							c0.9,0.3,1.8,0.5,2.7,0.8c1.6,0.5,2.6-1.9,1.2-2.7c-0.9-0.5-1.8-1.1-2.7-1.6c-0.4,0.9-0.8,1.8-1.2,2.7
							c0.9,0.2,1.7,0.5,2.6,0.7c1.9,0.5,2.7-2.4,0.8-2.9c-0.9-0.2-1.7-0.5-2.6-0.7c-1.6-0.4-2.6,1.9-1.2,2.7
							c0.9,0.5,1.8,1.1,2.7,1.6c0.4-0.9,0.8-1.8,1.2-2.7c-0.9-0.3-1.8-0.5-2.7-0.8c-1.6-0.5-2.7,2-1.2,2.7c1,0.4,1.9,0.9,2.7,1.7
							c0.4-0.9,0.8-1.8,1.2-2.7c-0.7-0.2-1.5-0.4-2.2-0.7c-1.8-0.8-3,1.4-1.5,2.6c0.7,0.6,1.5,1.1,2.2,1.7c0.5-0.9,1-1.7,1.5-2.6
							c-0.6-0.4-1.2-0.7-1.7-1.1c-0.7,0.7-1.4,1.4-2.1,2.1c0.5,0.5,1.1,1,1.6,1.5c0.5-0.8,1-1.7,1.5-2.5c-0.7-0.1-1.3-0.3-1.9-0.6
							c-1.6-0.6-2.7,2-1.2,2.7c0.6,0.3,1.1,0.5,1.7,0.8c1.7,0.8,3.3-1.7,1.5-2.6c-0.9-0.5-1.8-0.9-2.7-1.4c-1.7-0.9-3.2,1.6-1.5,2.6
							c1.1,0.6,1.5,0.8,2.7,1.2c1.7,0.6,2.5-1.8,1.2-2.7c-0.6-0.4-1.2-0.8-1.8-1.1c-0.5,0.9-1,1.7-1.5,2.6c0.5,0.2,1,0.4,1.5,0.6
							c0.4-0.9,0.8-1.8,1.2-2.7c-1.4-0.4-2.8-0.8-4.2-1.1c-1.6-0.4-2.8,2-1.2,2.7c1.8,0.8,2.1,0.9,4,1.1c1.2,0.2,2-1.8,1.1-2.6
							c-2.1-1.7-3.9-2.4-6.6-2.3c-1.4,0-2.2,2.1-0.8,2.8c2,0.9,3.8,1.3,6,1.4c1.3,0,2-1.7,1.1-2.6c-2-1.9-6.4-4.2-8.6-1.1
							c-1.3,1.8-0.1,5.1,2.5,4.6c2.3-0.4,2.4-3.4,0.9-4.7c-2.2-1.9-5.2,0.1-5.9,2.4c-0.3,0.8,0.3,1.5,1,1.8c2.3,1,4.1-1.3,4.4-3.4
							c0.2-1.2-0.6-2-1.8-1.8c-2.6,0.4-5.9,3.1-3.6,5.7c0.4,0.4,1,0.5,1.5,0.4c1.8-0.4,3.3-1.9,3.9-3.6c0.2-0.5,0-1.1-0.4-1.5
							c-3.2-2.8-7.3,1.2-6.7,4.7c0.1,0.8,1.1,1.3,1.8,1c2-0.6,3.2-1.6,4.4-3.3c0.8-1.2-0.5-2.4-1.7-2.2c-2.5,0.4-3.9,1.4-5,3.6
							c-0.5,1,0.4,2.7,1.7,2.2c1.8-0.7,2.7-1.4,3.7-3.1c0.6-1-0.2-2.2-1.3-2.3c-2.4,0-4,0.6-5.8,2.2c-1.2,1,0.1,2.8,1.5,2.5
							c2.2-0.5,3.8-1.4,5.4-3.1c0.8-0.9,0.3-2.6-1.1-2.6c-2.4,0.1-4.5,0.7-6.7,1.7c-1.1,0.5-0.9,2.5,0.4,2.7
							c2.1,0.4,3.6,0.3,5.6-0.3c1.6-0.5,1.3-2.9-0.4-2.9c-2.6-0.1-4.7,0.2-7.1,1c-1.2,0.4-1.6,2.7,0,2.9c1.9,0.3,3.8,0.5,5.7,0.8
							c0.1-1,0.3-2,0.4-2.9c-2.7,0-5.3-0.2-7.9-0.7c-1.6-0.3-2.8,2-1.2,2.7c0.7,0.3,1.4,0.7,2.1,1c1.8,0.8,3.1-1.4,1.5-2.6
							c-1.8-1.3-3.4-1.8-5.7-1.9c-1.6,0-1.8,2-0.8,2.8c1.3,1,2.4,1.5,3.9,1.8c1.9,0.5,2.5-2.2,0.8-2.9c-1.1-0.5-2.1-0.9-3.3-1.2
							c-1.6-0.5-2.7,2.1-1.2,2.7c1.7,0.8,3,1.1,4.9,0.9c1.2-0.1,2.1-1.6,1.1-2.6c-1.2-1.1-1.6-1.2-3.1-1.8c-0.3,1-0.5,1.9-0.8,2.9
							c2.2,0.5,3.6,0.3,5.6-0.5c1.4-0.6,0.6-2.8-0.8-2.8c-1.6,0-2.7,0.3-4.1,1.1c-1.2,0.6-0.8,2.4,0.4,2.7c2.7,0.9,5,0.6,7.4-0.8
							c1.2-0.7,0.8-2.3-0.4-2.7c-3.3-1.1-6.3-1-9.5,0.3c-1.2,0.5-1.5,2-0.4,2.7c1.6,1,6.3,2.2,6.5-1.1c0.2-3.9-7-3.3-9.2-3
							c-1.3,0.2-1.4,2.2-0.4,2.7c2.1,1.1,4.7,1.1,5.6-1.5c0.2-0.7-0.2-1.3-0.7-1.7c-1.3-0.9-3-0.7-4.6-0.6c0,1,0,2,0,3
							c1.9-0.2,3.3-0.6,5-1.5c1.1-0.7,0.9-2.4-0.4-2.7c-1.9-0.6-3.1-0.4-4.9,0.5c-1.3,0.7-0.7,2.8,0.8,2.8c2.3-0.1,8-1.5,7.4-4.8
							c-0.5-3-3.9-1.3-5,0.3c-0.6,0.9,0.2,2.4,1.3,2.3c1.8-0.2,2.9-0.6,4.3-1.8c1-0.8,0.2-2.7-1.1-2.6c-1.6,0.2-2.6,0.6-3.9,1.7
							c-0.8,0.7-0.5,2.3,0.7,2.5c3.2,0.4,5.9,0.3,9-0.6c1.7-0.5,1.2-2.8-0.4-2.9c-2-0.2-3.5,0-5.4,0.5c-1,0.3-1.4,1.4-0.9,2.2
							c0.1,0.1,0.1,0.2,0.2,0.3c0.4,0.6,1,0.8,1.7,0.7c0.1,0,0.2,0,0.3,0C99.8,33.2,99,30.3,97.1,30.6L97.1,30.6z"/>
					</g>
				</g>
				<g>
					<g>
						<path class="st0" d="M103.4,38.9c2.1-0.5,4.1-0.9,6.2-1.2c-0.5-0.6-1-1.3-1.4-1.9c-0.1,0.3-3,1.3-2.9,1.3
							c0.4,0.2,0.9,0.5,1.3,0.7c0.9,1.5,1.4-0.5,1.8-0.2c-0.2-0.6-0.5-1.1-0.7-1.7c-0.3,0.6-0.7,1-1.3,1.2c0.4,0.9,0.8,1.8,1.2,2.7
							c1-0.6,2-1,3.1-1.3c-0.6-0.7-1.1-1.5-1.7-2.2c-0.4,0.9-1,1.2-1.9,1.1c0.3,0.9,0.5,1.9,0.8,2.8c1.1-0.6,2.1-1,3.3-1.2
							c-0.5-0.8-1-1.7-1.5-2.5c-0.6,0.7-1.2,1.1-2.1,1.3c0.4,0.9,0.8,1.8,1.2,2.7c0.9-0.7,1.8-1.2,2.9-1.7c-0.7-0.6-1.5-1.1-2.2-1.7
							c-0.1,0.3-0.1,0.5-0.2,0.8c-0.2,1,0.7,2.3,1.8,1.8c0.9-0.3,1.6-0.7,2.4-1.1c-0.6-0.8-1.2-1.6-1.8-2.4
							c-0.7,0.7-1.4,1.2-2.3,1.7c-1.7,1-0.2,3.4,1.5,2.6c0.9-0.4,1.8-0.7,2.8-0.9c-0.5-0.8-1-1.7-1.5-2.5c-0.4,0.2-0.8,0.4-1.2,0.6
							c0.3,1,0.5,1.9,0.8,2.9c1.2-0.4,2.4-0.7,3.7-0.8c1.9-0.2,1.9-3.2,0-3c-1.5,0.2-3,0.5-4.5,0.9c-1.8,0.6-1.1,3.5,0.8,2.9
							c1-0.3,1.7-0.7,2.5-1.4c1.2-1-0.1-2.8-1.5-2.5c-1.2,0.3-2.4,0.7-3.5,1.2c0.5,0.9,1,1.7,1.5,2.6c1.1-0.6,2-1.3,2.9-2.2
							c1.2-1.2-0.3-3.2-1.8-2.4c-0.5,0.4-1.1,0.6-1.7,0.8c0.6,0.6,1.2,1.2,1.8,1.8c0.1-0.3,0.1-0.5,0.2-0.8c0.3-1.4-1-2.2-2.2-1.7
							c-1.1,0.5-2,1-2.9,1.7c-1.3,1-0.6,3.2,1.2,2.7c1.4-0.3,2.5-1,3.4-2c1-1.1,0-2.8-1.5-2.5c-1.4,0.3-2.7,0.8-4,1.5
							c-1.3,0.7-0.7,2.8,0.8,2.8c2,0,3.6-0.9,4.5-2.6c0.6-1.1-0.4-2.6-1.7-2.2c-1.3,0.4-2.6,0.9-3.8,1.6c-1.4,0.8-0.4,3.4,1.2,2.7
							c1.5-0.6,3.1-1.6,3.4-3.3c0.2-0.7-0.1-1.3-0.7-1.7c-1.9-1.4-7.6,1.6-5.9,4.3c0.3,0.4,0.8,0.8,1.3,0.7c1.8-0.1,5.4-1.4,5.7-3.5
							c0.1-0.9-0.4-2-1.4-1.9c-2.4,0.3-4.7,0.7-7,1.3C100.8,36.5,101.6,39.4,103.4,38.9L103.4,38.9z"/>
					</g>
				</g>
				<g>
					<g>
						<path class="st0" d="M98.9,38.4c-0.2,0-0.3,0-0.5,0.1c-1.9-0.4-2.7,2.5-0.8,2.9c0.5,0.1,0.9,0.2,1.4,0.3c0.1-1,0.3-2,0.4-2.9
							c-0.6,0-1.2-0.2-1.7-0.4c-0.3,1-0.5,1.9-0.8,2.9c1.2,0.4,2.4,0.7,3.6,1.1c0-1,0-1.9,0-2.9c-0.7-0.1-1.3-0.1-2-0.2
							c-1.6-0.8-2.8,1-1.8,2.4c0.5,0.7,0.7,0.8,1.4,1.2c0.4-0.9,0.8-1.8,1.2-2.7c-0.6-0.1-1.2-0.3-1.8-0.4C96,39.1,94.7,41,95.9,42
							c0.6,0.5,0.9,0.7,1.6,1c0.3-0.9,0.5-1.9,0.8-2.8c-0.2,0-0.4,0-0.6,0c-1.6,0.1-2.2,2.7-0.4,2.9c0.9,0.1,1.7,0.2,2.6,0.4
							c0.1-1,0.3-2,0.4-2.9c-0.4,0-0.7,0-1.1-0.1c-1.7-0.1-2.1,2.6-0.4,2.9c1.6,0.3,3.5,0.7,5.1,0.3c1.6-0.4,2.7-1.6,4.4-1.8
							c-0.3-1-0.5-1.9-0.8-2.9c-0.8,0.2-1.5,0.4-2.3,0.6c0.4,0.9,0.8,1.8,1.2,2.7c1.4-1,2.9-1.9,4.5-2.7c-0.7-0.7-1.4-1.4-2.1-2.1
							c-0.3,0.2-0.5,0.4-0.8,0.5c0.5,0.9,1,1.7,1.5,2.6c0.4-0.2,0.7-0.3,1.1-0.5c-0.6-0.7-1.1-1.5-1.7-2.2c-0.1,0.2-0.3,0.3-0.4,0.5
							c0.6,0.8,1.2,1.6,1.8,2.4c0,0,0,0,0,0.1c-0.5-0.8-1-1.7-1.5-2.5c-1.4,1.1-3,1.7-4.8,2.1c0.4,0.9,0.8,1.8,1.2,2.7
							c1.5-0.8,3-1.5,4.5-2.2c1.6-0.7,0.4-3.1-1.2-2.7c-2.5,0.5-5,1-7.6,0.6c0,1,0,1.9,0,2.9c1.3-0.3,2.2-0.3,3.5,0c0-1,0-1.9,0-2.9
							c-1.4,0.3-2.7,0.3-4.2,0.1c-1.8-0.2-1.9,2.4-0.4,2.9c1,0.3,2,0.7,3,1c0.1-1,0.3-2,0.4-2.9c-0.6,0-1.2,0.1-1.8,0.1
							c-1.7,0.1-2.1,2.5-0.4,2.9c0.3,0.1,0.7,0.2,1,0.3c1.9,0.5,2.5-2.2,0.8-2.9c-0.6-0.3-1.2-0.5-1.8-0.6c-0.1,1-0.3,2-0.4,2.9
							c1.5,0,3,0,4.5-0.1c1.7,0,2-2.5,0.4-2.9c-0.5-0.1-0.9-0.3-1.4-0.4c-0.1,1-0.3,2-0.4,2.9c1,0.1,1.7,0.1,2.7-0.1
							c1.2-0.2,1.3-1.8,0.7-2.5c-0.5-0.6-0.8-0.8-1.4-1.2c-0.3,0.9-0.5,1.9-0.8,2.8c0.6-0.1,1.1-0.1,1.7-0.2
							c1.4-0.2,2.1-1.9,0.8-2.8c-0.7-0.4-1.4-0.7-2.1-1c-0.3,1-0.5,1.9-0.8,2.9c1.1,0.2,2,0.2,3,0c1.6-0.2,1.3-2.5,0-2.9
							c-0.8-0.3-1.6-0.5-2.5-0.6c-0.5,0-1.1,0.3-1.3,0.7c0,0.1-0.1,0.2-0.1,0.2c-0.2,0.4-0.3,1.1,0,1.5c0,0.1,0.1,0.1,0.1,0.2
							c0.7-0.7,1.4-1.4,2.1-2.1c-0.7-0.4-1.2-0.5-1.9-0.8c-1.9-0.5-2.7,2.4-0.8,2.9c0.4,0.2,0.8,0.3,1.2,0.5c1.2,0.6,3-0.7,2.1-2.1
							c0-0.1-0.1-0.1-0.1-0.2c0,0.5,0,1,0,1.5c0-0.1,0.1-0.2,0.1-0.2c-0.4,0.2-0.9,0.5-1.3,0.7c0.6,0.1,1.1,0.3,1.7,0.5
							c0-1,0-1.9,0-2.9c-0.5,0-1,0-1.4,0c-1.9-0.4-2.6,2.2-0.8,2.9c0.5,0.2,1,0.4,1.4,0.7c0.3-0.9,0.5-1.9,0.8-2.8
							c-0.6,0.1-1.1,0.1-1.7,0.2c-1.4,0.2-2.1,1.9-0.8,2.8c0.3,0.2,0.5,0.5,0.8,0.7c0.2-0.8,0.4-1.7,0.7-2.5c-0.6,0.1-1.3,0.1-1.9,0
							c-1.7-0.2-2,2.5-0.4,2.9c0.5,0.1,0.9,0.3,1.4,0.4c0.1-1,0.3-2,0.4-2.9c-1.5,0-3,0-4.5,0.1c-1.7,0-2,2.5-0.4,2.9
							c0.6,0.2,1.2,0.4,1.8,0.6c0.3-1,0.5-1.9,0.8-2.9c-0.3-0.1-0.7-0.2-1-0.3c-0.1,1-0.3,2-0.4,2.9c0.6,0,1.2-0.1,1.8-0.1
							c1.7-0.1,2-2.4,0.4-2.9c-1-0.3-2-0.7-3-1c-0.1,1-0.3,2-0.4,2.9c1.7,0.2,3.3,0.1,4.9-0.3c1.4-0.3,1.4-2.6,0-2.9
							c-1.8-0.4-3.3-0.4-5.1,0c-1.4,0.3-1.5,2.7,0,2.9c3.2,0.5,6.1,0,9.2-0.6c-0.4-0.9-0.8-1.8-1.2-2.7c-1.5,0.7-3,1.4-4.5,2.2
							c-1.6,0.9-0.4,3,1.2,2.7c2.3-0.4,4.3-1.4,6.1-2.8c1.3-1-0.2-2.7-1.5-2.5c-0.6,0.1-0.9,0.3-1.4,0.7c-1.3,1.1,0.4,3.4,1.8,2.4
							c0.7-0.5,1-0.8,1.5-1.6c0.7-1.1-0.5-2.6-1.7-2.2c-0.7,0.2-1.1,0.4-1.8,0.8c-1.7,0.9-0.2,3.4,1.5,2.6c0.8-0.4,1.3-0.9,1.9-1.6
							c1-1.3-0.9-2.7-2.1-2.1c-1.6,0.8-3,1.7-4.5,2.7c-1.4,0.9-0.6,3.2,1.2,2.7c0.8-0.2,1.5-0.4,2.3-0.6c1.9-0.5,1.1-3.2-0.8-2.9
							c-1.1,0.2-1.9,0.6-2.8,1.1c-1.7,0.8-3.1,0.8-5,0.4c-0.1,1-0.3,2-0.4,2.9c0.4,0,0.7,0,1.1,0.1c1.7,0.1,2.1-2.7,0.4-2.9
							c-0.9-0.1-1.7-0.2-2.6-0.4c-0.1,1-0.3,2-0.4,2.9c0.2,0,0.4,0,0.6,0c1.4-0.1,2.2-2.1,0.8-2.8c-0.3-0.2-0.6-0.4-1-0.6
							c-0.5,0.8-1,1.7-1.5,2.5c0.6,0.1,1.2,0.3,1.8,0.4c1.6,0.4,2.7-1.9,1.2-2.7c-0.3-0.2-0.5-0.5-0.8-0.7c-0.6,0.8-1.2,1.6-1.8,2.4
							c1.5,0.7,2.7,0.9,4.3,0.5c1.5-0.4,1.4-2.5,0-2.9c-1.2-0.4-2.4-0.7-3.6-1.1c-1.9-0.6-2.5,2.2-0.8,2.9c0.9,0.4,1.6,0.5,2.5,0.6
							c1.7,0.1,2-2.6,0.4-2.9c-0.5-0.1-0.9-0.2-1.4-0.3c-0.3,1-0.5,1.9-0.8,2.9c0.8,0.2,1.3,0.2,2.1-0.1
							C101.6,40.8,100.8,37.9,98.9,38.4L98.9,38.4z"/>
					</g>
				</g>
				<g>
					<g>
						<path class="st0" d="M97.4,32.2c1.1-0.4,1.1-0.1,1.5,0.8c0.3,0.8,0.7,1.6,1.2,2.4c0.5,0.7,2.3,3.6,3.3,2.8
							c0.4-0.1,0.7-0.3,1.1-0.4c-0.1,0-0.2,0-0.4,0c0.5,0.5,1,1,1.5,1.5c0,0.1,0,0.3-0.1,0.4c-0.6,0.2-1.1,0.5-1.7,0.7
							c0.1,0.1,0.2,0.2,0.4,0.3c0.2-0.7,0.4-1.4,0.5-2.1c0.2,0,0.3,0,0.5,0.1c-0.1,0.6-0.2,1.2-0.2,1.8c0.1-0.1,0.1-0.1,0.2-0.2
							c-0.4,0.1-0.7,0.3-1.1,0.4c0.1,0,0.2,0,0.3,0c-0.4-0.2-0.9-0.5-1.3-0.7c0,0.1,0.1,0.2,0.1,0.2c-0.1-0.4-0.1-0.8-0.2-1.2
							c0,0.1,0,0.2-0.1,0.3c0.7-0.3,1.5-0.6,2.2-0.9c-1.1-0.6-1.9-1.3-2.4-2.5c-0.7-1.8-3.6-1-2.9,0.8c0.7,1.9,1.9,3.3,3.7,4.3
							c0.8,0.4,2,0.1,2.2-0.9c0.5-2-1.6-3.1-3.1-1.8c-0.5,0.4-0.6,1.3-0.2,1.8c0.8,1.4,2.2,1.7,3.6,1c0.7-0.3,1-1.4,0.5-2.1
							c-0.6-0.8-1.2-1.3-2.2-1.6c-0.7-0.3-1.3,0.2-1.7,0.7c-0.3,0.3-0.3,0.7-0.3,1.1c0,0.8,0.7,1.5,1.5,1.5c1.4-0.1,2.4-1.1,2.2-2.5
							c-0.3-1.9-2.1-2.3-3.1-3.6c-0.6-0.8-1.1-1.7-1.5-2.7c-0.3-0.7-0.4-1.5-0.9-2.1c-1.1-1.2-2.7-1.1-4.1-0.6
							C94.8,29.9,95.5,32.8,97.4,32.2L97.4,32.2z"/>
					</g>
				</g>
				<g>
					<g>
						<path class="st0" d="M102.7,31.3c-1-0.2-1.8-0.6-2.5-1.3c-0.4,0.9-0.7,1.7-1.1,2.6c2,0.1,3.8,0.4,5.7,1c0-1,0-1.9,0-2.9
							c-1.9,0.3-3.2-0.1-4.7-1.2c-0.1,0.9-0.2,1.8-0.4,2.7c2.3-0.4,4.3-0.3,6.6,0.3c0-1,0-1.9,0-2.9c-1.9,0.4-3.3,0.1-4.9-0.9
							c-0.1,0.9-0.2,1.8-0.4,2.7c2.3-0.3,4.4,0,6.5,1c0.1-0.9,0.2-1.8,0.4-2.7c-1.4,0.3-2.7,0-3.8-0.9c-0.1,0.9-0.2,1.8-0.4,2.7
							c1.9-0.4,3.5-0.3,5.3,0.4c0.3-1,0.5-1.9,0.8-2.9c-1.3-0.2-2.4-0.5-3.7-1.1c-0.4,0.9-0.8,1.8-1.2,2.7c1.5,0.2,3,0.5,4.4,0.9
							c0.1-1,0.3-2,0.4-2.9c-0.4,0-0.8-0.1-1.1-0.1c-1.5-0.2-2,2.1-0.8,2.8c1,0.5,2.1,1.1,3.1,1.6c0.4-0.9,0.8-1.8,1.2-2.7
							c-1.3-0.3-2.5-0.6-3.8-0.9c-1.6-0.4-2.7,2-1.2,2.7c1,0.5,2.1,1,3.1,1.5c0.3-0.9,0.5-1.9,0.8-2.8c-1.7,0.2-3.2,0.1-4.9-0.5
							c0.1,0.9,0.2,1.8,0.4,2.7c1.4-0.8,2.9-0.8,4.3,0c0.3-0.9,0.5-1.9,0.8-2.8c-0.8-0.3-1.6-0.6-2.4-0.8c-0.3,0.9-0.5,1.9-0.8,2.8
							c1,0.2,2,0.4,2.9,0.7c0.5-0.9,1-1.7,1.5-2.6c-0.6-0.3-1.2-0.5-1.8-0.8c-0.4,0.9-0.8,1.8-1.2,2.7c0.7,0.1,1.4,0.2,2,0.4
							c1.7,0.3,2.6-1.8,1.2-2.7c-1.6-1.1-3.1-1.5-5-1.7c-1.8-0.1-1.9,2.4-0.4,2.9c0.6,0.2,1.2,0.4,1.8,0.7c0.3-1,0.5-1.9,0.8-2.9
							c-2.8-0.4-5.4-0.5-8.2-0.3C102.4,29.3,102.6,30.2,102.7,31.3c2.1-0.5,4.1-0.6,6.2-0.5c-0.1-1-0.3-2-0.4-2.9
							c-2.5,0.7-4.7-0.1-7.2-0.1c-2.3,0-4.5,0.9-6.8,1.1c0.3,0.9,0.5,1.9,0.8,2.8c1-0.6,2.1-1,3.3-1.1c-0.3-1-0.5-1.9-0.8-2.9
							c-1.4,0.5-2.7,0.7-4.1,0.8c0.3,0.9,0.5,1.9,0.8,2.8c1.2-0.6,2.4-0.8,3.7-0.7c-0.1-1-0.3-2-0.4-2.9c-0.3,0.1-0.5,0.1-0.8,0.2
							c0.3,1,0.5,1.9,0.8,2.9c1.5-0.5,4.5,0.7,6.2,0.8c1.8,0.1,1.9-2.4,0.4-2.9c-2.1-0.8-4.1-1.2-6.4-1.3c0.3,0.9,0.5,1.9,0.8,2.8
							c2-0.9,3.9-0.1,5.7,0.5c1.8,0.7,2.6-2.2,0.8-2.9c-0.4-0.2-0.9-0.3-1.3-0.5c-0.1,1-0.3,2-0.4,2.9c1.3,0.1,2.6,0.3,3.8,0.4
							c1.7,0.2,2.1-2.7,0.4-2.9c-1.1-0.2-2-0.4-3-0.7c-0.3,1-0.5,1.9-0.8,2.9c0.4,0.1,0.9,0.3,1.3,0.4c1.9,0.5,2.6-2.3,0.8-2.9
							c-0.4-0.1-0.9-0.3-1.3-0.4c-1.9-0.5-2.6,2.3-0.8,2.9c1,0.3,2,0.6,3,0.7c0.1-1,0.3-2,0.4-2.9c-1.3-0.1-2.6-0.3-3.8-0.4
							c-1.8-0.2-1.8,2.4-0.4,2.9c0.4,0.2,0.9,0.3,1.3,0.5c0.3-1,0.5-1.9,0.8-2.9c-2.8-1-5.3-1.5-8.1-0.2c-1.4,0.6-0.6,2.8,0.8,2.8
							c2,0,3.8,0.4,5.6,1.2c0.1-1,0.3-2,0.4-2.9c-2.3-0.1-4.7-1.4-7-0.7c-1.8,0.6-1.1,3.4,0.8,2.9c0.3-0.1,0.5-0.1,0.8-0.2
							c1.7-0.4,1.3-2.9-0.4-2.9c-1.9,0-3.5,0.3-5.2,1.1c-1.4,0.6-0.6,2.8,0.8,2.8c1.8-0.1,3.3-0.3,4.9-0.9c1.8-0.7,1.1-3.2-0.8-2.9
							c-1.5,0.3-2.7,0.7-4,1.4c-1.3,0.7-0.7,2.9,0.8,2.8c2.7-0.2,5.2-1.2,7.9-1c2.4,0.2,4.4,0.6,6.8-0.1c1.7-0.5,1.2-2.8-0.4-2.9
							c-2.4-0.2-4.7,0-7,0.5c-1.6,0.4-1.3,3,0.4,2.9c2.5-0.1,4.9-0.2,7.4,0.2c1.9,0.3,2.6-2.2,0.8-2.9c-0.6-0.2-1.2-0.4-1.8-0.7
							c-0.1,1-0.3,2-0.4,2.9c1.3,0,2.5,0.4,3.5,1.2c0.4-0.9,0.8-1.8,1.2-2.7c-0.7-0.1-1.4-0.2-2-0.4c-1.5-0.3-2.8,2-1.2,2.7
							c0.6,0.3,1.2,0.5,1.8,0.8c1.7,0.8,3.3-1.8,1.5-2.6c-1.5-0.7-2.8-1-4.4-1.1c-1.5,0-2,2-0.8,2.8c1.3,0.8,2.4,1.1,3.9,1.3
							c1.5,0.1,2.1-2.2,0.8-2.8c-2.6-1.2-4.8-1.2-7.4,0c-1.2,0.6-0.8,2.4,0.4,2.7c2,0.6,3.7,0.8,5.7,0.6c1.3-0.1,2.3-2.1,0.8-2.8
							c-1-0.5-2.1-1-3.1-1.5c-0.4,0.9-0.8,1.8-1.2,2.7c1.3,0.3,2.5,0.6,3.8,0.9c1.6,0.4,2.7-1.9,1.2-2.7c-1-0.5-2.1-1.1-3.1-1.6
							c-0.3,0.9-0.5,1.9-0.8,2.8c0.4,0,0.8,0.1,1.1,0.1c1.7,0.2,2-2.6,0.4-2.9c-1.5-0.3-2.9-0.6-4.4-0.9c-1.5-0.3-2.8,1.9-1.2,2.7
							c1.4,0.7,2.8,1.2,4.4,1.4c1.9,0.3,2.6-2.2,0.8-2.9c-2.4-0.8-4.4-0.9-6.9-0.4c-1.3,0.3-1.4,2.1-0.4,2.7c2,1.3,3.9,1.6,6.2,1.2
							c1.2-0.2,1.5-2.2,0.4-2.7c-2.9-1.4-5.7-1.8-8.8-1.3c-1.3,0.2-1.4,2.1-0.4,2.7c2.3,1.4,4.6,1.8,7.2,1.2c1.5-0.3,1.4-2.5,0-2.9
							c-2.8-0.7-5.4-0.8-8.2-0.3c-1.4,0.3-1.3,2.1-0.4,2.7c2.2,1.6,4.4,2,7,1.5c1.6-0.3,1.3-2.5,0-2.9c-2.2-0.7-4.2-1.1-6.5-1.1
							c-1.3,0-2,1.7-1.1,2.6c1.1,1.1,2.3,1.6,3.9,2.1C103.8,34.7,104.6,31.8,102.7,31.3L102.7,31.3z"/>
					</g>
				</g>
				<g>
					<g>
						<path class="st0" d="M104.5,30.7c-1-1-1.5-1.1-1.4-0.3c-0.3,0.3-0.7,0.7-1,1c0.5-0.2,0.9-0.2,1.3,0.1c0.1-0.5,0.3-1,0.4-1.5
							c0.7-0.5,0.8-0.1,0.5,1.2c0.3-0.9,0.5-1.9,0.8-2.8c-0.2,0-0.4-0.1-0.6-0.1c0.1,0.5,0.3,1,0.4,1.5c0,0.2,3.5,0.9,4,1.1
							c0.3-1,0.5-1.9,0.8-2.9c-1.8-0.6-3.6-1.2-5.5-1.8c-0.3,1-0.5,1.9-0.8,2.9c2.6,0.4,7.3,0.8,9,2.9c1.2,1.5,3.3-0.6,2.1-2.1
							c-2.2-2.7-7.2-3.2-10.4-3.7c-1.9-0.3-2.7,2.3-0.8,2.9c1.8,0.6,3.6,1.2,5.5,1.8c1.9,0.6,2.6-2.2,0.8-2.9
							c-1.8-0.7-5.9-1.8-7.4,0.2c-1.5,2,1.1,3.2,2.8,3.3c1.5,0.1,2-2.1,0.8-2.8c-1.2-0.7-2.5-1.1-3.7-0.2c-1,0.8-1.1,2-0.4,3
							c1.1,1.6,4.4,2.1,4.7-0.4c0.2-2.4-4.2-3.8-5.7-2.2c-2.2,2.3,2,4.7,3.9,4.7C106.4,33.7,106.4,30.7,104.5,30.7L104.5,30.7z"/>
					</g>
				</g>
				<g>
					<g>
						<path class="st0" d="M111.9,38.5c1.6-0.3,3.2,0,4.7,0.8c1.7,1,3.2-1.6,1.5-2.6c-2.2-1.2-4.6-1.6-7-1.1
							C109.2,35.9,110,38.8,111.9,38.5L111.9,38.5z"/>
					</g>
				</g>
				<g>
					<g>
						<path class="st0" d="M122.6,39.2c0.2,0.1-0.1-0.1-0.2-0.1c-0.1-0.1-0.2-0.1-0.3-0.2c0.1,0.1,0.1,0.1,0,0
							c-0.1-0.1-0.2-0.2-0.3-0.3c-0.1-0.1-0.1-0.1,0,0c-0.1-0.1-0.1-0.2-0.2-0.3c-0.4-0.7-1.3-1-2.1-0.5c-0.7,0.4-1,1.4-0.5,2.1
							c0.7,1.1,1.6,1.8,2.7,2.2c0.7,0.3,1.7-0.3,1.8-1C123.8,40.2,123.3,39.5,122.6,39.2L122.6,39.2z"/>
					</g>
				</g>
			</g>
			<g>
				<g>
					<path class="st0" d="M73.9,55.8c0.5-0.5,0.8-1.1,0.7-1.8c-0.2-1.9-3-2-3,0c0.1,0.3,0,0.6-0.2,0.8c0.9,0.1,1.8,0.2,2.7,0.4
						c-0.1-0.5,0-0.9,0-1.4c-1,0-2,0-3,0c0,0.7-0.1,1.3-0.2,2c1,0.3,1.9,0.5,2.9,0.8C73.9,56.3,73.9,56.1,73.9,55.8
						C73,55.7,72,55.6,71,55.4c0,0.5,0,0.9,0,1.4c1,0,2,0,3,0c0-0.2,0-0.4,0-0.6c-1,0-2,0-3,0c0,0.3,0,0.5,0,0.8
						c0.1,1.6,2.5,2.1,2.9,0.4c0.5-1.9,0.9-3.9,1.2-5.9c-1-0.1-2-0.3-2.9-0.4c0,1.1-0.1,2.1-0.5,3.1c0.9,0.1,1.8,0.2,2.7,0.4
						c-0.1-0.8,0.2-1.4,0.6-2c-0.9-0.3-1.9-0.5-2.8-0.8c0,1.9-0.3,3.7-0.8,5.5c1,0,1.9,0,2.9,0c-0.2-0.2-0.2-0.4,0-0.6
						c0.6-1.8-2.3-2.6-2.9-0.8c-0.2,0.7-0.3,1.5,0,2.2c0.5,1.3,2.4,1.5,2.9,0c0.6-2,0.9-4.1,1-6.3c0-1.6-2-2-2.8-0.8
						c-0.9,1.3-1.1,2.8-0.9,4.3c0.2,1.2,2.3,1.5,2.7,0.4c0.6-1.5,1-2.9,0.9-4.6c-0.1-1.6-2.6-2.1-2.9-0.4c-0.4,2-0.8,3.9-1.2,5.9
						c1,0.1,2,0.3,2.9,0.4c0-0.3,0-0.5,0-0.8c-0.1-1.9-3-1.9-3,0c0,0.2,0,0.4,0,0.6c0,1.9,3,1.9,3,0c0-0.5,0-0.9,0-1.4
						c0-1.6-2.6-2.1-2.9-0.4c0,0.2-0.1,0.4-0.1,0.6c-0.4,1.9,2.4,2.7,2.9,0.8c0.2-0.9,0.3-1.8,0.3-2.8c0-1.9-2.9-1.9-3,0
						c0,0.7,0,1.4,0.1,2.2c0.2,1.3,2.1,1.4,2.7,0.4c0.4-0.7,0.6-1.4,0.6-2.3c-1,0-2,0-3,0c0-0.1,0.1-0.2,0.1-0.3
						C70.4,54.9,72.5,57.1,73.9,55.8L73.9,55.8z"/>
				</g>
			</g>
		</g>
		<g>
			<g>
				<path class="st0" d="M125.1,49.9c0.4,0.7,0.7,1.5,1.1,2.2c0.6-0.7,1.1-1.5,1.7-2.2c-0.1,0-0.1,0-0.2,0c0.3,0.2,0.6,0.5,0.9,0.7
					c0,0,0-0.1-0.1-0.1c-0.4,0.8-0.9,1.5-1.3,2.3c0.1,0,0.1,0,0.2,0c-0.4-0.2-0.9-0.5-1.3-0.7c0.2,0.3,0.3,1,0.4,1.3
					c0.5,1.7,2.8,1.2,2.9-0.4c0.2-1.8,0-3.5-0.5-5.2c-0.5-1.6-3-1.4-2.9,0.4c0.1,1.6,0.3,3.2,0.6,4.8c0.9-0.4,1.8-0.8,2.7-1.2
					c-0.7-1.6-0.5-3.5-1.1-5.2c-0.6-1.5-1.4-2.8-2.4-4.1c-1.2-1.5-3.3,0.6-2.1,2.1c1.1,1.3,1.8,2.8,2.2,4.5c0.3,1.4,0.3,2.8,0.9,4.1
					c0.7,1.7,3,0.4,2.7-1.2c-0.3-1.3-0.4-2.7-0.5-4c-1,0.1-2,0.3-2.9,0.4c0.4,1.5,0.6,2.8,0.4,4.4c1-0.1,2-0.3,2.9-0.4
					c-0.2-0.7-0.3-1.5-0.7-2c-0.3-0.4-0.7-0.8-1.3-0.7c-0.1,0-0.1,0-0.2,0c-1.2,0.1-1.8,1.2-1.3,2.3c0.2,0.5,0.7,0.8,1.2,0.9
					c1.3,0.3,2.3-1,1.7-2.2c-0.4-0.7-0.7-1.5-1.1-2.2C126.8,46.7,124.2,48.2,125.1,49.9L125.1,49.9z"/>
			</g>
		</g>
	</g>
	<g>
		<g>
			<g>
				<path d="M72.6,58.2c-0.1-7,2.7-16,7.4-21.2c5.3-5.9,13.1-8.4,20.9-8.7c8.3-0.3,14.4,1.9,19.7,8.2c2.5,2.9,5.6,6.2,6.5,10
					c0.9,3.9,0.7,8.3,1,12.3c0.1,0.8,1.3,0.8,1.2,0c-0.3-4.3,0-9.2-1.2-13.3c-1-3.5-3.8-6.4-6-9.2c-5.9-7-11.9-9.6-21.1-9.3
					c-17.2,0.6-29.8,13.6-29.5,31.1C71.4,58.9,72.6,58.9,72.6,58.2L72.6,58.2z"/>
			</g>
		</g>
		<g>
			<g>
				<path d="M73,59c3-5.3,6.2-11.9,10.6-16.1c4.6-4.4,11.4,0.3,16.9,0.6c2.3,0.1,4.6,0.1,6.8-0.7c2.8-1.1,3.3-2.2,6.5-2.1
					c7,0.3,12.3,9.8,14.5,15.7c0.3,0.7,1.4,0.4,1.2-0.3c-2.2-5.9-5.8-11.6-11-15.3c-6.5-4.6-9.9,1.7-17,1.6c-2.8,0-5.3-0.5-7.8-1.6
					c-1.3-0.5-2.4-1.3-3.7-1.6c-1.8-0.3-3.3,0.1-4.9,1.1c-2.3,1.5-4,4.2-5.5,6.4c-2.7,3.8-5.1,7.8-7.4,11.8
					C71.6,59.1,72.6,59.7,73,59L73,59z"/>
			</g>
		</g>
	</g>
	<g>
		<g>
			<path class="st1" d="M93.5,37c2.7,1.9,5.7,2.9,9,3c0.8,0,0.8-1.2,0-1.2c-3.1-0.1-5.9-1.1-8.4-2.9C93.5,35.5,92.9,36.6,93.5,37
				L93.5,37z"/>
		</g>
	</g>
	<g>
		<g>
			<path class="st1" d="M74.9,53c2.4-6.4,4.7-13.2,10.8-16.9c0.7-0.4,0.1-1.4-0.6-1c-3.1,1.9-5,3.7-6.7,7c-1.7,3.4-3.2,7-4.6,10.6
				C73.5,53.4,74.6,53.7,74.9,53L74.9,53z"/>
		</g>
	</g>
	<g>
		<g>
			<path class="st1" d="M112.1,32.4c2.7,1.9,5.4,3.8,7.6,6.2c2.1,2.2,3.3,5.1,5.6,7c0.6,0.5,1.4-0.3,0.8-0.8
				c-2.5-2.1-3.9-5.3-6.2-7.7c-2.2-2.2-4.7-4-7.3-5.8C112.1,31,111.5,32,112.1,32.4L112.1,32.4z"/>
		</g>
	</g>
	<g>
		<g>
			<path class="st1" d="M98.1,32.8c2.5,1.4,5.1,2.3,7.9,2.9c0.8,0.1,1.1-1,0.3-1.2c-2.7-0.5-5.2-1.4-7.6-2.7
				C98,31.4,97.4,32.4,98.1,32.8L98.1,32.8z"/>
		</g>
	</g>
</g>
</svg>
