<?xml version="1.0" encoding="utf-8"?>
<!-- Generator: Adobe Illustrator 22.1.0, SVG Export Plug-In . SVG Version: 6.00 Build 0)  -->
<svg version="1.1" id="Layer_1" xmlns="http://www.w3.org/2000/svg" xmlns:xlink="http://www.w3.org/1999/xlink" x="0px" y="0px"
	 viewBox="0 0 200 600" style="enable-background:new 0 0 200 600;" xml:space="preserve">
<style type="text/css">
	.st0{fill:#FF2A33;}
	.st1{fill:none;stroke:#FF2A33;stroke-miterlimit:10;}
	.st2{fill:#00B09E;}
	.st3{fill:#CE2A00;}
</style>
<g>
	<g>
		<g>
			<g>
				<path class="st0" d="M49.1,266.3c-2.4-0.1-4.2,0.8-5.1,3.1c-0.6,1.3-0.5,2.5,0.5,3.6c0.6,0.7,1.3,1.4,1.9,2.2
					c1.2,1.3,3.9,1.1,4.7-0.6c0.6-1.5,0.9-2.3,0.9-3.9c-2,0-4,0-6,0c0,1.3,0,2.6,0,3.9c1-1,2-2,3-3c-3-0.3-5.9-0.1-8.9,0.5
					c1.3,1,2.5,1.9,3.8,2.9c0.9-10.7,2-21.4,4.3-31.9c2.1-9.7,5.4-19.1,8-28.6c5-18.1,4.4-38.1,12.7-55.2c-1.6,0.2-3.1,0.4-4.7,0.6
					c1.6,1.6,2.1,3,2.5,5.2c1.2-1.2,2.4-2.4,3.7-3.7c-5.5-1.3-7.6,5.1-8.8,9.4c-1,3.8,4.4,5.1,5.7,1.6c0.3-0.8,0.6-1.6,0.9-2.4
					c-1.9-0.3-3.9-0.5-5.8-0.8c-0.1,0.9-0.2,1.7-0.3,2.6c-0.3,3.5,4.8,3.8,5.8,0.8c0.4-1.2,0.7-2.4,1-3.7c0.6-3.7-4.6-5.3-5.7-1.6
					c-1.1,3.6-2.3,7.3-3.4,10.9c-1.2,3.7,4.4,5.1,5.7,1.6c0.4-1.1,0.9-2.3,1.3-3.4c-1.9-0.5-3.8-1.1-5.7-1.6
					c-1.2,6.2-2.8,12.3-4.9,18.2c-1.3,3.6,4.4,5.2,5.7,1.6c0.5-1.4,1-2.8,1.5-4.2c-1.9-0.5-3.8-1.1-5.7-1.6
					c-1.3,6.4-2.9,12.6-4.8,18.8c-1,3.2,3.9,5.4,5.4,2.3c0.6-1.2,1.1-2.3,1.7-3.5c-1.8-0.8-3.6-1.5-5.4-2.3
					c-2.2,10.9-4.3,21.8-5.8,32.8c-1.4,10.3-1.1,21-3.4,31.2c1.9,0,3.8,0,5.7,0c-1.2-7.5-1.2-15.1,0-22.7c-1.9-0.3-3.9-0.5-5.8-0.8
					c0.5,4,1.2,7.9,2.2,11.8c0.8,3.2,6,2.6,5.8-0.8c-0.1-2.4-0.1-4.7,0.3-7.1c-1.9,0-3.8,0-5.7,0c0.1,1.1,0.1,2.3,0.2,3.4
					c1.9,0.3,3.9,0.5,5.8,0.8c0.6-10.2,1.5-20.5,2.8-30.7c-1.9,0.3-3.9,0.5-5.8,0.8c0.6,1.3,0.7,2.7,0.2,4.1
					c1.9,0.3,3.9,0.5,5.8,0.8c0.2-2.1,0.5-4.2,0.7-6.3c-2,0-4,0-6,0c-0.4,4.8,0,9.5-3.1,13.4c-0.9,1.1-1.5,2.3-1.9,3.6
					c-0.3,1-0.5,2-0.7,3c-0.8,1.9,0.1,2.5,2.6,2.1c0.4,1.4,0.7,2.7,1.1,4.1c0.1-0.1,0.2-0.3,0.2-0.4c-1.1,0.5-2.2,0.9-3.4,1.4
					c0.1,0,0.3,0.1,0.4,0.1c3.7,1.1,5.2-4.6,1.6-5.7c-0.1,0-0.3-0.1-0.4-0.1c-1.2-0.4-2.7,0.3-3.4,1.4c-0.1,0.1-0.2,0.3-0.2,0.4
					c-0.9,1.5-0.2,3.1,1.1,4.1c4.9,3.6,5.8-4.5,6.4-7.1c0.8-3.2,3.7-4.7,4.5-7.9c1-3.8,0.8-8.2,1.1-12.1c0.3-3.9-5.5-3.7-6,0
					c-0.2,2.1-0.5,4.2-0.7,6.3c-0.4,3.3,5.1,4,5.8,0.8c0.6-2.5,0.5-4.8-0.2-7.3c-1.1-3.4-5.5-2.4-5.8,0.8
					c-1.2,10.2-2.1,20.4-2.8,30.7c-0.2,3.3,5.3,4.1,5.8,0.8c0.4-2.4,0.3-4.3-0.2-6.6c-0.6-2.7-5.3-3-5.7,0c-0.5,2.9-0.7,5.7-0.5,8.6
					c1.9-0.3,3.9-0.5,5.8-0.8c-0.9-3.4-1.5-6.7-2-10.2c-0.4-3-5.3-4.4-5.8-0.8c-1.4,8.7-1.4,17.2,0,25.8c0.5,2.9,5.1,2.8,5.7,0
					c2.2-9.8,2-20.1,3.2-30.1c1.4-11.4,3.7-22.7,5.9-34c0.6-3.1-3.9-5.5-5.4-2.3c-0.6,1.2-1.1,2.3-1.7,3.5c1.8,0.8,3.6,1.5,5.4,2.3
					c2-6.2,3.6-12.4,4.8-18.8c0.7-3.8-4.4-5.2-5.7-1.6c-0.5,1.4-1,2.8-1.5,4.2c1.9,0.5,3.8,1.1,5.7,1.6c2.1-6,3.7-12,4.9-18.2
					c0.7-3.8-4.4-5.2-5.7-1.6c-0.4,1.1-0.9,2.3-1.3,3.4c1.9,0.5,3.8,1.1,5.7,1.6c1.1-3.6,2.3-7.3,3.4-10.9c-1.9-0.5-3.8-1.1-5.7-1.6
					c-0.2,1.3-0.5,2.4-1,3.7c1.9,0.3,3.9,0.5,5.8,0.8c0.1-0.9,0.2-1.7,0.3-2.6c0.4-3.6-4.7-3.7-5.8-0.8c-0.3,0.8-0.6,1.6-0.9,2.4
					c1.9,0.5,3.8,1.1,5.7,1.6c0.1-0.3,1.8-5.2,1.5-5.2c2.4,0.5,4-1.4,3.7-3.7c-0.5-3.2-1.8-5.5-4-7.8c-1.3-1.3-3.8-1.1-4.7,0.6
					c-8.6,17.7-8.2,37.9-13.3,56.6c-2.7,9.9-6.1,19.5-8.2,29.6c-2,10.5-3.1,21.4-4,32.3c-0.2,2.1,2,3.2,3.8,2.9
					c2.5-0.5,4.8-0.5,7.3-0.3c1.6,0.2,3-1.5,3-3c0-1.3,0-2.6,0-3.9c0-3.8-5.9-3.8-6,0c0,0.3-0.1,0.6-0.1,0.9
					c1.6-0.2,3.1-0.4,4.7-0.6c-0.6-0.7-1.3-1.4-1.9-2.2c0.2,1.2,0.3,2.4,0.5,3.6v-0.1C53,272.4,52.9,266.5,49.1,266.3L49.1,266.3z"
					/>
			</g>
		</g>
		<g>
			<g>
				<path class="st0" d="M48.1,268.3c-1.1-5.1-0.8-10.2-0.6-15.4c0.1-2.4,0.2-4.9,0.1-7.3c-0.1-2.6-0.9-5.6,0.3-8
					c-1.8-0.5-3.7-1-5.5-1.5c0.1,3.2,0.1,6.3-1.3,9.2c1.8,0.5,3.7,1,5.5,1.5c0.1-16.3,3.3-32.4,9.7-47.4c-1.8-0.8-3.6-1.5-5.4-2.3
					c-1,2.4-0.5,4.5-0.9,7c-0.5,3.3-3.1,6.7-4.7,9.6c1.8,0.2,3.6,0.5,5.4,0.7c-0.8-4.2,0.7-9.3,1.5-13.5c0.7-3.9,1.6-7.9,2.5-11.8
					c1.9-8.1,4.2-16.1,6.9-24c-1.9-0.5-3.8-1.1-5.7-1.6c-1.6,5.8-3.2,11.7-4.2,17.7c-0.7,4.2,0.2,12.7-3.3,15.5c1.4,0,2.8,0,4.2,0
					c-1.6-1.6,1.2-10.8,1.5-12.9c0.7-3.8,1.3-7.7,2.2-11.4c0.8-3.2,1.7-6.7,3.5-9.5c2.5-3.7,6.5-5.7,10.4-7.7
					c-1.2-1.6-2.4-3.1-3.6-4.7c-4.2,4.3-7.6,9.1-10.2,14.5c-1.4,2.9,2.2,6.2,4.7,3.6c2.5-2.6,4.7-5.4,6.5-8.5
					c1.7-2.8-2.5-6.3-4.7-3.6c-3.6,4.4-6.7,9.1-9.4,14.1c-1.8,3.4,3.3,6.4,5.1,3c2.4-4.6,5.2-8.9,8.5-12.9c-1.6-1.2-3.1-2.4-4.7-3.6
					c-1.6,2.7-3.4,5-5.6,7.3c1.6,1.2,3.1,2.4,4.7,3.6c2.4-5,5.4-9.4,9.2-13.3c2.4-2.5-0.6-6.2-3.6-4.7c-4.3,2.2-8.7,4.6-11.7,8.6
					c-2.9,4-4.3,9-5.4,13.8c-1.3,5.8-2.2,11.7-3.2,17.6c-0.7,3.8-1.8,7.8,1.4,10.8c1.3,1.2,2.9,1,4.2,0c4.1-3.3,3.7-8.5,4.1-13.2
					c0.7-7.7,2.8-15.1,4.9-22.5c1-3.7-4.5-5.2-5.7-1.6c-3.1,9.1-5.7,18.2-7.7,27.6c-1.7,7.6-4.7,17-3.2,24.8
					c0.5,2.5,4.3,2.9,5.4,0.7c1.6-2.8,3.5-5.6,4.6-8.6c1.2-3.1,0.3-6.3,1.5-9.3c1.3-3.1-4.1-5.4-5.4-2.3
					c-6.8,16.1-10.4,33-10.5,50.4c0,2.8,4.2,4.2,5.5,1.5c1.9-3.9,2.2-7.9,2.1-12.2c-0.1-2.8-4.2-4.3-5.5-1.5c-2.5,5.1-1,11-1.2,16.5
					c-0.2,6.4-0.7,12.6,0.7,18.8C43.2,273.7,48.9,272.1,48.1,268.3L48.1,268.3z"/>
			</g>
		</g>
		<g>
			<g>
				<path class="st0" d="M88.1,180.1c0,0.1-1,0.7-1.1,0.9c-0.4,0.4-0.6,0.8-0.9,1.3c-0.9,1.4-1.8,2.5-2.8,3.8c-0.8,1-1.6,2-2.2,3.1
					c-0.3,0.6-0.6,1.2-1,1.8c-0.2,0.3-1.4,1.6-0.6,1.2c0.8,0.1,1.5,0.2,2.3,0.3c-0.1-0.1-0.2-0.1-0.3-0.2c-3.3-2-6.3,3.2-3,5.1
					c4,2.4,6.5-3.3,8.1-6c1.2-1.9,2.9-3.5,4.1-5.4c1.1-1.5,2.6-2.4,3.1-4.4C94.7,177.9,88.9,176.3,88.1,180.1L88.1,180.1z"/>
			</g>
		</g>
		<g>
			<g>
				<path class="st0" d="M87.6,197.1c-0.4-2.8-0.2-5.8,0-8.6c0.3-3.8-5.7-3.8-6,0c-0.2,3.4-0.3,6.8,0.2,10.2
					c0.2,1.6,2.2,2.5,3.7,2.1C87.2,200.3,87.8,198.7,87.6,197.1L87.6,197.1z"/>
			</g>
		</g>
		<g>
			<g>
				<path class="st0" d="M85.5,190.1c-1.4,0.6-4.8,3-6.3,2c-2.4-1.6-4.7,1-4.4,3.4c1.4,9.8,1.7,19.6,1.1,29.4
					c-0.2,3.3,5.2,4.1,5.8,0.8c1.1-5.4,0.9-10.9,1.4-16.4c0.4-5.6,0.8-12.8,4.1-17.5c-1.8-0.5-3.7-1-5.5-1.5c0.4,3.2,0.2,6-0.7,9
					c1.9,0.5,3.8,1.1,5.7,1.6c0.3-0.8,0.5-1.7,0.8-2.5c-1.7,0-3.4,0-5.1,0c1.2,2.1,0.7,4.8,1.7,7.1c1.4,3.1,3.6,4.6,3.6,8.4
					c0.1,7.1-1.7,14.5-3.3,21.3c-0.8,3.8,4.4,5.1,5.7,1.6c2.6-6.6,5-13.3,6.5-20.3c0.7-3.2-3.6-5.3-5.4-2.3
					c-1.7,2.8-3.5,5.7-5.2,8.5c-0.7,1.1-1.3,2.5-2.1,3.4c-1.6,1.9-2.1,2.3-4.7,1.2c-1.4-0.6-3.4,0.6-3.7,2.1c-1,5.3-2,10.6-3,15.9
					c-0.5,2.5-0.9,5-1.4,7.5c-0.3,1.6-0.4,5-1.8,6.1c1.5,1.1,2.9,2.2,4.4,3.4c1-3.1,1.9-6.3,2.9-9.4c-1.9-0.3-3.9-0.5-5.8-0.8
					c0,2,0.5,6.8-1,8.3c-2,2-0.3,4.8,2.1,5.1c5.2,0.6,10.5,1.2,15.7,1.8c-0.5-1.8-1-3.7-1.5-5.5c-0.4,0-0.9,0-1.3,0
					c-0.8,1.8-1.5,3.6-2.3,5.4c8.4,1.3,16.7,1.8,25.2,1.4c-0.3-1.9-0.5-3.9-0.8-5.8c-1,0.2-2.1,0.4-3.1,0.6
					c-3.8,0.7-2.2,6.4,1.6,5.7c2.5-0.4,4.9-0.8,7.4-1c-0.3-1.9-0.5-3.9-0.8-5.8c-1.1,0.4-2.3,0.6-3.5,0.6c-3.8,0.2-3.8,6.1,0,6
					c1.8-0.1,3.4-0.3,5.1-0.8c3.1-0.9,2.6-6.2-0.8-5.8c-3,0.3-6,0.7-9,1.2c0.5,1.9,1.1,3.8,1.6,5.7c1-0.2,2.1-0.4,3.1-0.6
					c3.3-0.6,2.5-6-0.8-5.8c-7.9,0.4-15.8,0.1-23.6-1.2c-3.4-0.5-5.1,3.4-2.3,5.4c2.4,1.7,4.8,1.3,7.3,0c2.9-1.4,1.1-5.2-1.5-5.5
					c-5.2-0.6-10.5-1.2-15.7-1.8c0.7,1.7,1.4,3.4,2.1,5.1c3-2.9,2.8-8.6,2.8-12.5c0-3.4-4.9-4-5.8-0.8c-1,3.1-1.9,6.3-2.9,9.4
					c-0.7,2.3,2.2,5,4.4,3.4c4-3,4.2-7.8,5.1-12.4c1.3-6.9,2.6-13.7,3.9-20.6c-1.2,0.7-2.4,1.4-3.7,2.1c3.2,1.3,6.8,1.8,9.4-0.9
					c3.8-4,6.4-10.3,9.3-15c-1.8-0.8-3.6-1.5-5.4-2.3c-1.4,7-3.9,13.6-6.5,20.3c1.9,0.5,3.8,1.1,5.7,1.6c1.7-7.7,4-16.6,3.4-24.5
					c-0.2-3.2-1.4-5.1-3.1-7.7c-1.8-2.8-1.3-6.2-2.9-9.1c-1-1.9-4.2-2-5.1,0c-0.8,1.6-1,2.1-1.4,3.9c-0.7,3.7,4.7,5.3,5.7,1.6
					c1-3.5,1.3-6.9,0.9-10.6c-0.3-3-3.8-4-5.5-1.5c-7,9.8-3.8,24.1-6.1,35.3c1.9,0.3,3.9,0.5,5.8,0.8c0.6-10.4,0.1-20.7-1.3-31
					c-1.5,1.1-2.9,2.2-4.4,3.4c4,2.7,8.5-0.3,12.3-2C92,193.7,89,188.5,85.5,190.1L85.5,190.1z"/>
			</g>
		</g>
		<g>
			<g>
				<path class="st0" d="M115.5,241c1.5,3,2.8,8,6.5,8.9c1.4,0.3,2.6-0.2,3.4-1.4c1.9-2.9,1.4-6.7,0.5-9.8c-1.2,1.2-2.4,2.4-3.7,3.7
					c1.5,0.3,2.7,8.1,3.1,9.7c0.9,3.7,1.7,7.4,2.3,11.1c0.7-1.2,1.4-2.4,2.1-3.7c-8.4,2.1-16.9,6.1-25.6,3c-3.6-1.3-5.2,4.5-1.6,5.7
					c9.8,3.5,19.2-0.7,28.8-3c1.7-0.4,2.4-2.1,2.1-3.7c-1-5.9-2.4-11.8-4.1-17.5c-0.9-3.1-1.8-6.8-5.5-7.5c-2.1-0.4-4.4,1.3-3.7,3.7
					c0.8,1.7,0.8,3.5,0.1,5.2c1.1-0.5,2.2-0.9,3.4-1.4c1.5,0.4-0.2-1-0.8-2c-0.7-1.4-1.4-2.8-2.1-4.2
					C118.9,234.6,113.8,237.6,115.5,241L115.5,241z"/>
			</g>
		</g>
		<g>
			<g>
				<path class="st0" d="M111.4,257c-2.4,0.7-3.8,2.3-5.3,4.2c-0.7,0.9-1.2,1.5-2.3,1.8c-1.1,0.4-2.1,0.6-3.2,1.1
					c0.8-0.1,1.5-0.2,2.3-0.3c-2.3-0.6-4.1-0.6-6.2,0.4c-3.4,1.7-0.4,6.9,3,5.1c0.9-0.5,2.4,0.4,3.5,0c1.2-0.4,2.4-0.7,3.5-1.1
					c1.2-0.5,2.1-1.3,3-2.3c0.9-1.1,1.7-2.8,3.1-3.3C116.6,261.6,115,255.9,111.4,257L111.4,257z"/>
			</g>
		</g>
		<g>
			<g>
				<path class="st0" d="M125.1,229.2c-0.3-2.5-0.4-5-0.5-7.5c-1.9,0.3-3.9,0.5-5.8,0.8c0.5,1,0.8,2.1,0.9,3.2
					c1.9-0.3,3.9-0.5,5.8-0.8c-0.9-4.8-1.1-9.4-0.4-14.2c0.5-3.7-4.9-5.4-5.7-1.6c-0.8,3.7-0.8,7.2,0.1,10.9s6.5,2.1,5.7-1.6
					c-1.1-5.1-0.6-10.2,0-15.4c-2,0-4,0-6,0c0,2.1,0,4.3,0,6.4c2,0,4,0,6,0c0-12.6,2.4-25.3,3.9-37.7c0.5-3.8-5.5-3.8-6,0
					c-1.5,12.5-3.9,25.2-3.9,37.7c0,3.8,5.9,3.8,6,0c0-2.1,0-4.3,0-6.4c0-3.9-5.5-3.7-6,0c-0.7,5.8-1,11.3,0.2,17
					c1.9-0.5,3.8-1.1,5.7-1.6c-0.6-2.7-0.7-5.1-0.1-7.8c-1.9-0.5-3.8-1.1-5.7-1.6c-0.9,5.9-0.8,11.5,0.4,17.4
					c0.6,3.2,6.3,2.6,5.8-0.8c-0.2-1.7-0.5-3.2-1.1-4.8c-1.1-3-5.9-2.8-5.8,0.8c0,2.5,0.2,5,0.5,7.5
					C119.6,232.9,125.6,233,125.1,229.2L125.1,229.2z"/>
			</g>
		</g>
		<g>
			<g>
				<path class="st0" d="M150.2,262.6c1.3,3.9,0.8,7.3-1.5,10.7c-1.8,2.5,1.6,5.5,4.1,4.1c1.2-0.8,2.4-1.2,3.8-1.2
					c-1.1-1.5-2.2-2.9-3.4-4.4c-0.2,0.4-0.4,0.7-0.6,1.1c-1.7,3.1,2.1,5.7,4.7,3.6c0.1,0,0.2,0,0.3,0c2.5,1.3,4.8-0.8,4.4-3.4
					c-2-12.7-5.1-24.9-8.7-37.2c-3.8-12.8-4.5-26.8-6.2-40c-0.8-6.4-1.6-12.8-2.4-19.2c-0.6-4.2-1.2-8.7-3.9-12.2
					c-1.7-2.3-4.5-4.2-7.1-2c-3,2.4-1.6,7-0.1,9.8c1.7-1,3.4-2,5.1-3c-1-1.4-2-2.8-3-4.3c-1.8-2.6-6.6-1.1-5.4,2.3
					c0.6,1.6,1.1,3.1,1.7,4.7c1.9-0.5,3.8-1.1,5.7-1.6c-0.2-0.5-0.4-1-0.6-1.6c-1.8,0.8-3.6,1.5-5.4,2.3c1.5,2.1,2.3,4,2.8,6.5
					c1.7-1,3.3-1.9,5-2.9c-0.5-0.7-0.9-1.5-1.4-2.2c-1.9,0.5-3.8,1.1-5.7,1.6c0.3,0.7,0.5,1.3,0.8,2c1.4,3.5,6.8,2.2,5.7-1.6
					c-0.3-0.9-0.5-1.9-0.8-2.8c-1.9,0.5-3.8,1.1-5.7,1.6c1.2,4,2.1,8,2.7,12.1c1.9-0.5,3.8-1.1,5.7-1.6c-0.4-3-1.1-5.8-2-8.6
					c-1.8,0.8-3.6,1.5-5.4,2.3c1.8,4.1,2.9,8.3,3.5,12.7c1.9-0.3,3.9-0.5,5.8-0.8c-0.5-1.5-1-3.1-1.5-4.6c-1.9,0.5-3.8,1.1-5.7,1.6
					c0.4,1.3,0.9,2.7,1.3,4c1.9-0.5,3.8-1.1,5.7-1.6c-0.2-0.6-0.4-1.2-0.7-1.8c-1.3-3.6-7-2.1-5.7,1.6c0.7,2,1.2,4,1.5,6.1
					c1.9-0.5,3.8-1.1,5.7-1.6c-0.2-0.5-0.4-1-0.5-1.5c-1.8,0.8-3.6,1.5-5.4,2.3c0.3,0.8,0.7,1.6,1,2.5c1.9-0.5,3.8-1.1,5.7-1.6
					c-0.7-1.8-1.3-3.7-2-5.5c-1.3-3.6-6.9-2.1-5.7,1.6c0.3,1.1,0.7,2.2,1,3.4c1.8-0.8,3.6-1.5,5.4-2.3c-0.2-0.8-0.4-1.6-0.6-2.5
					c-1.8,0.8-3.6,1.5-5.4,2.3c-0.1,1.5,0.4,2.4,1.5,2.7c1.4-0.4,2.7-0.7,4.1-1.1c-0.1-0.1-0.2-0.1-0.4-0.2c0.5,1.1,0.9,2.2,1.4,3.4
					c0-0.1,0.1-0.2,0.1-0.3c-1.9,0-3.8,0-5.7,0c0.3,1.2,0.5,2.5,0.8,3.7c1.9-0.5,3.8-1.1,5.7-1.6c-0.4-1.1-0.8-2.3-1.2-3.4
					c-1.9,0.5-3.8,1.1-5.7,1.6c0.6,1.8,1.3,3.5,1.9,5.3c1.3,3.6,6.5,2.2,5.7-1.6c-0.1-0.6-0.2-1.2-0.4-1.8c-1.9,0.5-3.8,1.1-5.7,1.6
					c0,0.9,0.3,1.6,0.8,2.2c1-0.7,1.9-1.5,2.9-2.2c-0.1,0-0.2,0-0.3,0c0.9,0.5,1.7,1,2.6,1.5c0-0.1-0.1-0.2-0.1-0.3c0,1,0,2,0,3
					c0.1-0.1,0.1-0.2,0.2-0.2c-1.8-0.2-3.6-0.5-5.4-0.7c0.2,0.8,0.4,1.7,0.5,2.5c0.4,1.8,2.8,2.8,4.4,1.8c0.1-0.1,0.2-0.1,0.3-0.2
					c1.1-0.8,1.7-2,1.4-3.4c0-0.1-0.1-0.2-0.1-0.3c-0.3-1.2-1.6-2.3-2.9-2.2c-0.1,0-0.2,0-0.3,0c-1,0.1-2.1,0.5-2.6,1.5
					c-0.9,1.9-0.3,3.5,0.1,5.5c1.9-0.5,3.8-1.1,5.7-1.6c-0.1-0.4-0.2-0.8-0.4-1.2c-1.8,0.8-3.6,1.5-5.4,2.3c1.9,3.2,3,6.5,3.6,10.2
					c1.8-0.8,3.6-1.5,5.4-2.3c-0.8-1.3-1.5-2.6-2.1-4c-1.4-3.4-7.1-2.1-5.7,1.6c0.2,0.7,0.5,1.3,0.7,2c1.4,3.6,6.4,2.2,5.7-1.6
					c-0.3-1.9-0.9-3.5-1.7-5.3c-1.7,1-3.4,2-5.1,3c1.5,3.5,2.5,7.1,2.9,10.9c1.9-0.3,3.9-0.5,5.8-0.8c-0.6-1.6-1.1-3.2-1.7-4.8
					c-1.3-3.6-6.4-2.2-5.7,1.6c0.1,0.7,0.2,1.5,0.4,2.2c1.9-0.5,3.8-1.1,5.7-1.6c-0.3-1.4-0.6-2.5-1.1-3.8c-1.9,0.5-3.8,1.1-5.7,1.6
					c1.4,3.2,2,6.3,2,9.8c1.9-0.3,3.9-0.5,5.8-0.8c-0.6-1.5-1-3-1.2-4.6c-1.9,0.3-3.9,0.5-5.8,0.8c2.1,5.5,3.5,11,4,16.9
					c1.9-0.3,3.9-0.5,5.8-0.8c-1.5-3.6-2.5-7.2-3.1-11.2c-1.9,0.5-3.8,1.1-5.7,1.6c0.8,3.4,1.6,6.7,2.4,10.1c1.7-1,3.3-1.9,5-2.9
					c-0.3-0.4-0.6-0.8-0.8-1.2c-1.4-3.4-6.8-2.2-5.7,1.6c0.2,0.8,0.5,1.7,0.7,2.5c1,3.8,6.4,2.1,5.7-1.6c-0.2-0.9-0.3-1.8-0.5-2.6
					c-1.9,0.5-3.8,1.1-5.7,1.6c0.5,2.2,0.9,4.3,1.4,6.5c0.8,3.8,6.4,2.1,5.7-1.6c-0.2-0.9-0.3-1.7-0.5-2.6c-1.9,0.5-3.8,1.1-5.7,1.6
					c0.3,1.3,0.5,2.7,0.8,4c0.8,3.8,6.5,2.2,5.7-1.6c-0.1-0.6-0.2-1.2-0.3-1.8c-0.7-3.4-5.7-2.4-5.8,0.8c0,0.5-0.1,1-0.1,1.5
					c1.9-0.3,3.9-0.5,5.8-0.8c-0.3-1.2-0.7-2.5-1-3.7c-1-3.7-6.5-2.1-5.7,1.6c1,5,1.9,10.1,2.9,15.1c0.4,2.2,0.9,4.2,1.7,6.3
					c0.4,1,0.8,1.9,1.1,2.9c0.2,0.6,0.4,1.2,0.4,1.8c0,1.5,0.9,2.1,2.8,2c0,1,0,2,0,3c0.1-0.2,0.2-0.5,0.3-0.7
					c-1.8-0.2-3.6-0.5-5.4-0.7c0.2,0.7,0.5,1.4,0.7,2.1c1.9-0.5,3.8-1.1,5.7-1.6c-3-8.3-1.5-17.5-4.2-26c-1.9,0.5-3.8,1.1-5.7,1.6
					c1.5,4.2,1.8,8.3,2,12.7c0.1,3.9,5.5,3.7,6,0c0.2-1.9,0.6-3.8,1-5.7c-1.7,0.4-3.3,0.9-5,1.3c1.4,1.7,2.3,3.2,3.2,5.1
					c1.1,2.3,4.9,1.7,5.4-0.7c0.3-1.5,0.6-3,0.9-4.4c-1.9,0-3.8,0-5.7,0c0.5,2,0.9,3.9,1.4,5.9c0.8,3.2,6,2.6,5.8-0.8
					c-0.6-14.3-1.2-28.7-6.1-42.2c-5.1-13.7-8.3-28.1-9.7-42.6c-0.4-3.8-6.3-3.8-6,0c1.3,13.9,4.1,27.6,8.7,40.8
					c1.1,3.2,2.5,6.2,3.6,9.4c1.2,3.6,1.4,7.4,1.8,11.1c0.9,7.8,1.4,15.7,1.8,23.5c1.9-0.3,3.9-0.5,5.8-0.8c-0.5-2-0.9-3.9-1.4-5.9
					c-0.7-2.8-5.1-2.9-5.7,0c-0.3,1.5-0.6,3-0.9,4.4c1.8-0.2,3.6-0.5,5.4-0.7c-1.1-2.3-2.5-4.3-4.1-6.3c-1.4-1.7-4.5-0.8-5,1.3
					c-0.5,2.4-0.9,4.8-1.2,7.3c2,0,4,0,6,0c-0.2-4.9-0.5-9.7-2.2-14.3c-1.3-3.5-6.9-2.1-5.7,1.6c2.6,8.6,1.1,17.6,4.2,26
					c1.3,3.5,6.9,2.1,5.7-1.6c-0.2-0.7-0.5-1.4-0.7-2.1c-0.7-2.2-4.3-3.2-5.4-0.7c-2.9,6.3,6.6,8.5,8,1.6c0.9-4.5-1.9-8.6-2.9-12.8
					c-1.4-5.8-2.3-11.9-3.4-17.8c-1.9,0.5-3.8,1.1-5.7,1.6c0.3,1.2,0.7,2.5,1,3.7c0.9,3.3,5.7,2.5,5.8-0.8c0-0.5,0.1-1,0.1-1.5
					c-1.9,0.3-3.9,0.5-5.8,0.8c0.1,0.6,0.2,1.2,0.3,1.8c1.9-0.5,3.8-1.1,5.7-1.6c-0.3-1.3-0.5-2.7-0.8-4c-0.8-3.8-6.4-2.2-5.7,1.6
					c0.2,0.9,0.3,1.7,0.5,2.6c1.9-0.5,3.8-1.1,5.7-1.6c-0.5-2.2-0.9-4.3-1.4-6.5c-0.8-3.8-6.4-2.1-5.7,1.6c0.2,0.9,0.3,1.8,0.5,2.6
					c1.9-0.5,3.8-1.1,5.7-1.6c-0.2-0.8-0.5-1.7-0.7-2.5c-1.9,0.5-3.8,1.1-5.7,1.6c0.7,1.7,1.1,2.5,2.4,3.8c2.1,2.2,5.6-0.1,5-2.9
					c-0.8-3.4-1.6-6.7-2.4-10.1c-0.9-3.8-6.3-2.1-5.7,1.6c0.6,3.9,1.5,7.5,3.1,11.2c1.2,2.8,6.2,2.9,5.8-0.8
					c-0.6-6.4-1.9-12.5-4.2-18.5c-1.1-2.8-6.3-2.8-5.8,0.8c0.2,2.2,0.6,4.1,1.4,6.2c1.1,3,5.8,2.7,5.8-0.8c0-4-0.7-7.6-2.2-11.4
					c-1.5-3.5-7.2-2-5.7,1.6c0.5,1.3,0.9,2.4,1.1,3.8c0.7,3.8,6.4,2.1,5.7-1.6c-0.1-0.7-0.2-1.5-0.4-2.2c-1.9,0.5-3.8,1.1-5.7,1.6
					c0.6,1.6,1.1,3.2,1.7,4.8c1,2.9,6.2,2.8,5.8-0.8c-0.5-4.9-1.7-9.4-3.7-13.9c-1.5-3.5-6.7-0.5-5.1,3c0.6,1.2,0.9,2.5,1.1,3.9
					c1.9-0.5,3.8-1.1,5.7-1.6c-0.2-0.7-0.5-1.3-0.7-2c-1.9,0.5-3.8,1.1-5.7,1.6c0.8,1.9,1.6,3.7,2.7,5.4c1.8,3.1,5.9,0.9,5.4-2.3
					c-0.6-4.2-2-8-4.2-11.6c-1.7-2.8-6.4-1-5.4,2.3c0.1,0.4,0.2,0.8,0.4,1.2c1.1,3.7,6.4,2.1,5.7-1.6c0.1-1.6-0.1-1.9-0.7-0.9
					c-0.9,0.5-1.7,1-2.6,1.5c0.1,0,0.2,0,0.3,0c-1-0.7-1.9-1.5-2.9-2.2c0,0.1,0.1,0.2,0.1,0.3c0.5-1.1,0.9-2.2,1.4-3.4
					c-0.1,0.1-0.2,0.1-0.3,0.2c1.5,0.6,2.9,1.2,4.4,1.8c-0.2-0.8-0.4-1.7-0.5-2.5c-0.6-2.8-4-2.5-5.4-0.7c-0.1,0.1-0.1,0.2-0.2,0.2
					c-0.7,0.9-0.4,2.1,0,3c0,0.1,0.1,0.2,0.1,0.3c0.4,0.9,1.7,1.6,2.6,1.5c0.1,0,0.2,0,0.3,0c1.5-0.2,2.3-0.8,2.9-2.2
					c0.7-1.6-0.4-3.9-0.8-5.4c-1-3.7-6.5-2.1-5.7,1.6c0.1,0.6,0.2,1.2,0.4,1.8c1.9-0.5,3.8-1.1,5.7-1.6c-0.6-1.8-1.3-3.5-1.9-5.3
					c-1.3-3.6-7-2-5.7,1.6c0.4,1.1,0.8,2.3,1.2,3.4c1.3,3.6,6.5,2.2,5.7-1.6c-0.3-1.2-0.5-2.5-0.8-3.7c-0.7-3.2-4.7-2.4-5.7,0
					c0,0.1-0.1,0.2-0.1,0.3c-0.5,1.1,0.3,2.8,1.4,3.4c0.1,0.1,0.2,0.1,0.4,0.2c1.4,0.7,3.2,0.4,4.1-1.1c1.6-2.7-0.4-6.1-1.5-8.7
					c-1.5-3.3-6-0.8-5.4,2.3c0.3,1.7,0.6,2.3,1.2,3.9c1.3,3.1,6.4,0.9,5.4-2.3c-0.3-1.1-0.7-2.2-1-3.4c-1.9,0.5-3.8,1.1-5.7,1.6
					c0.7,1.8,1.3,3.7,2,5.5c1.3,3.6,6.9,2.1,5.7-1.6c-0.5-1.6-0.9-2.4-1.6-3.9c-1.5-2.9-6.6-0.9-5.4,2.3c0.2,0.5,0.4,1,0.5,1.5
					c1.3,3.7,6.3,2.2,5.7-1.6c-0.3-2.1-0.8-4.1-1.5-6.1c-1.9,0.5-3.8,1.1-5.7,1.6c0.2,0.6,0.4,1.2,0.7,1.8c1.3,3.5,7,2.1,5.7-1.6
					c-0.4-1.3-0.9-2.7-1.3-4c-1.2-3.6-6.9-2.1-5.7,1.6c0.5,1.5,1,3.1,1.5,4.6c1,3,6.3,2.7,5.8-0.8c-0.7-5.5-2.1-10.6-4.3-15.7
					c-1.3-3.1-6.5-0.9-5.4,2.3c0.9,2.8,1.6,5.7,2,8.6c0.5,3.8,6.3,2.2,5.7-1.6c-0.6-4.1-1.5-8.1-2.7-12.1c-1.1-3.6-6.8-2.1-5.7,1.6
					c0.3,0.9,0.5,1.9,0.8,2.8c1.9-0.5,3.8-1.1,5.7-1.6c-0.3-0.7-0.5-1.3-0.8-2c-1.4-3.5-7.2-2-5.7,1.6c0.8,1.9,1.6,3.3,2.9,4.8
					c2.1,2.4,5.5-0.2,5-2.9c-0.6-2.9-1.7-5.5-3.4-7.9c-1.8-2.5-6.8-1.1-5.4,2.3c0.2,0.5,0.4,1,0.6,1.6c1.4,3.5,7,2.1,5.7-1.6
					c-0.6-1.6-1.1-3.1-1.7-4.7c-1.8,0.8-3.6,1.5-5.4,2.3c1,1.4,2,2.8,3,4.3c2.2,3.1,6.9,0.4,5.1-3c-3.5-2.7-4.2-2.8-2.1-0.2
					c0.6,1.1,1,2.2,1.3,3.4c0.6,2.3,0.8,4.7,1.1,7c0.6,4.5,1.1,9.1,1.7,13.6c1.2,9.4,2.3,18.7,3.5,28.1c1.2,8.9,3.6,17,5.9,25.6
					c2.5,9.2,4.5,18.6,6,28c1.5-1.1,2.9-2.2,4.4-3.4c-2.8-1.4-5.1-1.1-7.5,0.9c1.6,1.2,3.1,2.4,4.7,3.6c0.2-0.4,0.4-0.7,0.6-1.1
					c1.4-2.5-0.9-4.7-3.4-4.4c-2,0.3-3.5,0.9-5.2,1.8c1.4,1.4,2.7,2.7,4.1,4.1c3.2-4.6,3.9-10,2.1-15.3
					C154.7,257.4,148.9,259,150.2,262.6L150.2,262.6z"/>
			</g>
		</g>
		<g>
			<g>
				<path class="st0" d="M150.3,273.6c0.1,0.1,0.3,0.1,0.4,0.2c-0.5-0.9-1-1.7-1.4-2.6c0,0.2,0,0.4-0.1,0.5c0.7-1,1.4-1.9,2.1-2.9
					c2.2,0.4,3-0.4,2.4-2.4c0-1.3,0-2.6,0-3.9c0-2.2,0-4.5-0.1-6.7c-0.1-4.8-0.3-9.6-0.8-14.4c-1-8.8-3.3-17.4-4.1-26.3
					c-0.8-8.1-0.5-16.2-1.6-24.2c-0.7-4.3-1.4-8.6-2.5-12.8c-1.2-5.2-3.4-10.3-2.9-15.7c-1.7,0.5-3.5,1-5.2,1.5c0-0.1,0-0.3,0-0.4
					c1.7-0.2,3.4-0.5,5.1-0.7c-0.2-0.8-0.4-1.6-0.7-2.4c-0.9,0.5-1.6,1-2.5,1.5c1.1-0.1,3.1,13.1,3.2,14.2c1,5.3,2.1,10.4,3.8,15.4
					c3.7,11.1,4.2,22.4,5.1,34.1c0.3,3.8,6,3.8,5.7,0c-0.7-9.1-0.8-18.5-2.8-27.4c-1.9-8.3-5-16.1-6.5-24.6
					c-0.9-4.7-1.1-15.1-6.5-17.4c-6-2.6-5.9,6-3.9,9.5c1.1,2.1,4.7,1.9,5.1-0.7c0.3-1.7,0.2-2.6-0.6-4.2c-1.4-2.9-5-1.1-5.2,1.5
					c-0.6,5.1,1,9.7,2.3,14.5c1.3,5.1,2.5,10.3,3.1,15.5c1.4,10.3,0.9,20.7,2.6,30.9c1.8,10.8,3.6,21.3,3.8,32.4
					c0.1,4.8-0.8,10.5,0.2,15.2c0.5,2.7,2.1,4,4.7,3.5c1.3-0.3,2-1.6,2.1-2.9c0-0.2,0-0.4,0.1-0.5c0.1-0.9-0.6-2.2-1.4-2.6
					c-0.1-0.1-0.3-0.1-0.4-0.2C149.9,266.9,146.9,272,150.3,273.6L150.3,273.6z"/>
			</g>
		</g>
		<g>
			<g>
				<path class="st0" d="M131,144.9c0.2,1.2,0.4,2.3,0.5,3.5c1.8-0.8,3.6-1.5,5.4-2.2c-0.9-1.9-1.7-3.9-2.6-5.7
					c-1.7,1-3.4,1.9-5.1,2.9c4.7,7,7.5,14.9,10.5,22.8c3.1,8.3,5.8,16.7,6.1,25.5c1.9-0.3,3.9-0.5,5.8-0.8
					c-2.8-7.2-4.2-14.5-4.2-22.2c-1.9,0.3-3.9,0.5-5.8,0.8c0.9,3.5,1.8,7,2.7,10.4c1,3.7,6.1,2,5.7-1.6c-1.5-10.6-3-21.3-4.5-31.9
					c-1.9,0.5-3.8,1.1-5.7,1.6c1,2.7,1.4,5.4,1.3,8.3c2,0,4,0,6,0c-0.8-8.2-2.3-31.1-15.4-28.3c-1.7,0.4-2.4,2.1-2.1,3.6
					c1.3,6.4,3.4,12.5,6,18.4c1.7-1,3.4-1.9,5.1-2.9c-2.2-4.1-3.8-8.2-5.1-12.6c-1.8,0.8-3.6,1.5-5.4,2.2c2.6,4.4,5,8.9,7,13.5
					c1.7-1,3.4-1.9,5.1-2.9c-2.3-4.9-4.5-14.1-10.1-16.5c-2.9-1.2-6.1-0.5-9.1-0.5c-5,0.1-9.9-0.8-14.8-1.9
					c-6.4-1.4-13.6-4.1-19.5,0c-6,4.1-7.2,11.6-11.3,17c1.8,0.2,3.6,0.5,5.4,0.7c-0.6-3.1,0.6-10.3,4.7-11.3
					c0.4-0.7,0.9-0.9,1.3-0.6c0.2,1.3,0.3,2.5,0.2,3.7c-0.2,2.5-1.2,4.9-2.5,7c1.8,0.2,3.6,0.5,5.4,0.7c-0.6-3,0-5.6,1.4-8.3
					c0.3-0.5,3.1-4.9,3.4-4.7c0.6,0.6-1,4.7-1.3,5.2c-0.9,1.9-2.3,3.4-3.9,4.8c1.7,0.7,3.4,1.4,5.1,2c0.1-5.7,2.7-8.4,5.9-12.7
					c-0.2-0.2-0.4-0.4-0.6-0.6c-0.1,0.5-0.3,1-0.4,1.5c-0.6,1.1-0.9,2.3-1.5,3.4c-1.5,2.7-3.6,5-6.1,6.8c1.5,0.6,2.9,1.2,4.4,1.8
					c-0.8-2.7-0.5-5.1,1-7.5c0.2-0.4,5.9-6.3,1.1-4.2c-0.9,0.4-2.4,5.9-2.9,7c-1,1.9-2.2,3.9-3.5,5.6c1.8,0.8,3.6,1.5,5.4,2.2
					c1.7-5.6,4.5-10.4,8.4-14.7c-1.7-1-3.3-1.9-5-2.8c-1.9,5.7-4.3,11.3-7.1,16.7c1.7,1,3.4,1.9,5.1,2.9c2.3-5,5.1-9.6,8.3-14
					c-1.8-0.8-3.6-1.5-5.4-2.2c-1.6,5.3-3.8,10.1-6.6,14.8c1.7,1,3.4,1.9,5.1,2.9c2.1-4.3,4.2-8.6,6.3-12.8c1.8-3.3-3.2-6.1-5.1-2.9
					c-3.8,6.1-7.3,12.4-10.8,18.7c1.7,1,3.4,1.9,5.1,2.9c4.4-9.4,9.8-18.3,15.3-27.2c-1.8-0.8-3.6-1.5-5.4-2.2
					c-1.5,4.5-1.6,8.9-0.5,13.4c0.8,3.1,6.1,2.5,5.8-0.8c-0.2-2.2-0.4-4.6-0.1-6.8c0.2-1.3,1-2.7,1.1-3.9c0.6-0.6,0.6-1-0.1-1.4
					c-0.7-1.1-1-0.8-0.9,1c-2.5,5.3-3.2,11.8-7.9,15.9c1-0.3,1.9-0.5,2.9-0.8c-0.3-0.1,2.4-7.2,2.8-7.8c1.6-2.5,3.8-4.4,6.3-5.9
					c-1.5-1.1-2.9-2.1-4.4-3.3c-1.2,4.4-2.9,8.3-5.3,12.2c1.8,0.8,3.6,1.5,5.4,2.2c1.4-7.8,4.4-14.9,8.8-21.4
					c-1.8-0.5-3.7-1-5.5-1.5c-0.6,6.4-1.1,13-1.7,19.4c-0.3,3.2,5.3,4,5.8,0.8c1.1-5.8,2.1-11.8,3.2-17.6c-1.9-0.3-3.9-0.5-5.8-0.8
					c0.1,5.7,0.1,11.4,0.2,17.1c0,3.7,5.9,3.7,6,0c0.1-4.8,0.6-9.3,1.6-14c-1.9-0.3-3.9-0.5-5.8-0.8c-0.1,4.5-0.8,9.4-0.3,13.8
					c0.3,2.6,1,4.3,3.7,5.2c1.9,0.6,3.7-1,3.8-2.8c0.1-5.6,0.7-11.1,1.9-16.7c-1.9-0.3-3.9-0.5-5.8-0.8c0.6,5.3,1.1,10.6,1.3,16
					c0.2,3.8,5.6,3.7,6,0c0.4-4.2,0.8-8.4,1.2-12.6c-2,0-4,0-6,0c0.4,5.3,0.7,10.5,1.1,15.8c2,0,4,0,6,0c-0.5-5.5-0.1-10.7,1-16.1
					c-1.9-0.3-3.9-0.5-5.8-0.8c0.6,5.1,1.1,10,1.7,15.1c0.4,3.7,5.7,3.8,6,0c0.4-5.4,0.8-10.6,1.3-16c-2,0-4,0-6,0
					c0.3,4.9,1,9.7,2,14.5c0.6,3.1,6.1,2.5,5.8-0.8c-0.6-5.1-1.2-10.1-1.7-15.2c-1.9,0.3-3.9,0.5-5.8,0.8c0.7,2.4,1.2,4.8,1.4,7.3
					c1.7-0.7,3.4-1.4,5.1-2c-1.3-1.5-2.7-2.7-4.2-3.9c-1.7-1.3-4.2-2-5.7-3.4c-0.6-0.5-2.9-4.2-2.7-5.3c0.5-2.8,4.3-1.2,5.3,0
					c2,2.2,5.7-0.2,5-2.8c-0.1-0.6-0.3-1.1-0.4-1.7c-1.2,1.2-2.4,2.3-3.7,3.6c8,2.6,8.5,18.6,8,25c1.9-0.3,3.9-0.5,5.8-0.8
					c-1.7-7.8-4-16.7-10.9-21.5c-6.7-4.8-11.2,2.5-7.1,8.4c1.4,1.9,4.8,1.9,5.4-0.7c0.7-2.7,1.6-6.1,0.6-8.9c-1.1-3-3.4-2.4-5.8-3.9
					c-0.5,1.8-1,3.6-1.5,5.4c2.7,0.2,6.6,2.8,9.1,3.9c0.2-1.8,0.5-3.5,0.7-5.3c-9.1,3.6-18.4,7.3-27.9,10.1
					c-8.8,2.6-18.1,4-26.8,6.7c-7.1,2.2-11.9,4.8-14.5,11.9c-3.3,9.2-7.5,17.5-13.3,25.4c1.4-0.4,2.7-0.7,4.1-1.1
					c-1.4-1,3.1-14.9,3.5-16.9c-1.9-0.5-3.8-1.1-5.7-1.6c-1.3,6.7-3.1,13.1-5.4,19.6c1.9,0.5,3.8,1.1,5.7,1.6
					c1.1-5.8,2.2-11.8,3.3-17.6c0.7-3.6-5-5.3-5.7-1.6c-1.1,5.8-2.2,11.8-3.3,17.6c-0.7,3.7,4.4,5.1,5.7,1.6
					c2.4-6.4,4.2-12.9,5.4-19.6c0.7-3.6-4.9-5.3-5.7-1.6c-1.2,5.4-3,10.9-3.7,16.4c-0.4,3,0.3,5.4,2.9,7.2c1.4,1,3.2,0.1,4.1-1.1
					c4.7-6.3,8.5-13,11.5-20.4c1.6-3.8,2.3-9,5.7-11.5c3.3-2.4,8.3-3.3,12.2-4.3c8.1-2,16.4-3.6,24.4-6.1c8.5-2.7,16.9-6,25.2-9.3
					c2-0.8,3.4-4.2,0.7-5.3c-4.2-1.8-7.5-4.4-12.1-4.7c-3.1-0.2-3.9,4-1.5,5.4c0.7,0.4,2.5,0.7,3,1.1c0.9,0.8-0.2,3.9-0.5,5.1
					c1.8-0.2,3.6-0.5,5.4-0.7c-1.3-0.8-1.3-0.6,0.1,0.5c0.8,0.8,1.6,1.8,2.2,2.7c0.9,1.4,1.7,2.9,2.3,4.5c1.3,3.2,2,6.6,2.8,9.9
					c0.7,3.3,5.6,2.3,5.8-0.8c0.7-9.9-1-26.9-12.4-30.7c-2.2-0.7-4.2,1.6-3.7,3.6c0.1,0.6,0.3,1.1,0.4,1.7c1.7-1,3.3-1.9,5-2.8
					c-4-4.5-12.6-4.3-15.2,1.6c-1.3,3,0.8,7,2.3,9.5c1.1,1.9,2.7,2.8,4.6,3.9c2.8,1.6,5.2,3.3,7.2,5.7c1.7,1.9,5.2,0.4,5.1-2
					c-0.2-3-0.7-5.9-1.6-8.9c-0.9-3-6.1-2.6-5.8,0.8c0.6,5.1,1.2,10.1,1.7,15.2c1.9-0.3,3.9-0.5,5.8-0.8c-0.9-4.3-1.4-8.6-1.7-13
					c-0.3-3.7-5.7-3.7-6,0c-0.4,5.4-0.8,10.6-1.3,16c2,0,4,0,6,0c-0.6-5.1-1.1-10-1.7-15.1c-0.3-3-5.1-4.2-5.8-0.8
					c-1.3,5.8-1.8,11.7-1.3,17.6c0.3,3.7,6.1,3.7,6,0c-0.4-5.3-0.7-10.5-1.1-15.8c-0.3-3.8-5.6-3.7-6,0c-0.4,4.2-0.8,8.4-1.2,12.6
					c2,0,4,0,6,0c-0.2-5.4-0.7-10.6-1.3-16c-0.4-2.9-5.1-4.3-5.8-0.8c-1.3,6-2,12.1-2.1,18.2c1.3-1,2.5-1.9,3.8-2.8
					c1.2,0.4,0.5-0.1,0.7-1.4c0.2-1.4,0.1-2.9,0.1-4.4c0.1-2.6,0.1-5.2,0.2-7.8c0.1-3.2-5.1-4-5.8-0.8c-1.1,5.2-1.8,10.3-1.9,15.6
					c2,0,4,0,6,0c-0.1-5.7-0.1-11.4-0.2-17.1c0-3.1-5.2-4.1-5.8-0.8c-1.1,5.8-2.1,11.8-3.2,17.6c1.9,0.3,3.9,0.5,5.8,0.8
					c0.6-6.4,1.1-13,1.7-19.4c0.3-3.1-4-3.6-5.5-1.5c-4.8,6.9-7.9,14.6-9.4,22.8c-0.6,3.1,3.6,5.2,5.4,2.2c2.6-4.3,4.6-8.8,5.9-13.5
					c0.6-2.4-2.1-4.6-4.4-3.3c-6.7,3.8-12.1,11.2-11.7,19.1c0.1,2.8,2.2,6,5.6,5.2c3.6-0.9,6.1-7.1,7.4-9.9
					c1.7-3.6,8.6-18.3-0.2-18.1c-8.3,0.2-8.4,13-7.9,18.4c1.9-0.3,3.9-0.5,5.8-0.8c-0.9-3.6-0.7-6.8,0.5-10.3c1.1-3.2-3.7-5-5.4-2.2
					c-5.5,8.9-10.9,17.7-15.3,27.2c-1.5,3.3,3.3,6.2,5.1,2.9c3.5-6.3,7-12.6,10.8-18.7c-1.7-1-3.4-1.9-5.1-2.9
					c-2.2,4.2-4.4,8.5-6.3,12.8c-1.6,3.3,3.1,6.1,5.1,2.9c3.2-5.1,5.6-10.5,7.2-16.2c1-3.3-3.6-4.8-5.4-2.2c-3.3,4.4-6.1,9.1-8.3,14
					c-1.5,3.3,3.4,6.3,5.1,2.9c3.1-5.8,5.7-11.9,7.7-18.1c0.9-2.7-3-5-5-2.8c-4.6,5.1-7.9,10.8-9.9,17.3c-1,3.3,3.6,4.9,5.4,2.2
					c2.2-3.1,13.6-21.3,3.9-21.8c-3.2-0.2-6.3,4.1-7.9,6.2c-2.8,3.9-3.8,8.5-2.4,13.1c0.5,1.6,2.8,2.9,4.4,1.8
					c4.4-3.2,7.7-7.2,9.7-12.3c1.2-3,2.9-8.3-1-10.3c-3.8-2-8.2,2.8-10.2,5.4c-3.2,4-4.7,8.8-4.8,13.7c0,2.6,3.2,3.7,5.1,2
					c3.6-3.1,6-7.2,6.6-12c0.4-3.1,0.4-7.9-3.7-8.7c-4.3-0.9-7.7,3.8-9.6,6.8c-2.8,4.4-3.9,9.1-2.8,14.2c0.5,2.5,4.2,2.7,5.4,0.7
					c2.7-4.4,7-21.7-3.4-19.8c-8.5,1.7-12.5,12-11.1,19.5c0.5,2.7,4.1,2.5,5.4,0.7c3.2-4.4,4.4-10.2,8.1-14.1
					c4.9-4.9,13.9-0.7,19.6,0.4c5.6,1.1,10.9,1.3,16.6,1.1c3.9-0.1,4.8,2.3,6.1,5.4c1.4,2.9,2.8,5.9,4.1,8.9
					c1.6,3.4,6.6,0.5,5.1-2.9c-2.1-4.7-4.5-9.2-7-13.5c-1.7-2.8-6.3-1-5.4,2.2c1.4,4.9,3.3,9.4,5.7,13.9c1.8,3.4,6.5,0.4,5.1-2.9
					c-2.5-5.5-4.2-11.2-5.4-17c-0.7,1.2-1.4,2.3-2.1,3.6c5.5-1.2,7.6,19.4,7.9,22.7c0.4,3.7,5.8,3.8,6,0c0.2-3.4-0.3-6.5-1.5-9.8
					c-1.3-3.6-6.2-2.1-5.7,1.6c1.5,10.6,3,21.3,4.5,31.9c1.9-0.5,3.8-1.1,5.7-1.6c-0.9-3.5-1.8-7-2.7-10.4c-0.8-3.2-5.9-2.5-5.8,0.8
					c0,8.2,1.5,16.1,4.4,23.8c1.1,2.8,6,2.7,5.8-0.8c-0.4-9.3-3.2-18.2-6.3-27c-3.1-8.3-6.1-16.7-11.1-24.1
					c-2.1-3.2-6.5-0.4-5.1,2.9c0.9,1.9,1.7,3.9,2.6,5.7c1.5,3.3,5.9,0.7,5.4-2.2c-0.2-1.2-0.4-2.3-0.5-3.5
					C136.2,139.7,130.4,141.3,131,144.9L131,144.9z"/>
			</g>
		</g>
		<g>
			<g>
				<path class="st0" d="M65.3,151.3c-0.7-1.9-0.8-3.5,0.3-5.4c-1.7,0-3.4,0-5.1,0c1.1,2,1,4-0.1,6c1.7,0,3.4,0,5.1,0
					c-0.9-1.2-1.2-2.6-0.8-4.1c-1.3-1.8-2-2-2.2-0.6c-1.2,0.8-1.6,6.1-3.9,5.9c0.9,0.5,1.7,1,2.6,1.5c-1.6-2.8-0.1-6.7,1.8-8.9
					c-1.7-0.7-3.4-1.4-5.1-2.1c0.1,3.4-0.8,6-3.1,8.5c1.4,0,2.8,0,4.2,0c-2.5-2.7,0.6-9,1-12.1c0.5-4,0.8-8,1.2-12
					c0.4-3.4-4.9-3.9-5.8-0.8c-0.6,1.9-1.1,3.9-1.5,5.9c1.9,0.3,3.9,0.5,5.8,0.8c0.8-6.6,2-14.7,7.4-19.2c6.1-5,12.8,2,18.8,3.7
					c6.1,1.7,12.6,1.1,18.8,0.5c3-0.2,6-0.6,9-1.2c2.9-0.6,5.5-2,8.3-2.9c-1-0.3-1.9-0.5-2.9-0.8c-1.3-1.5-1.9,1.1-3,2
					c-1.5,1.3-3.3,2.2-5.1,3.1c-3.3,1.6-6.7,2.7-9.9,4.5c-3,1.7-0.9,6.2,2.3,5.4c3.9-0.9,7.3-2.4,10.6-4.6c2-1.4,1.9-4.8-0.7-5.4
					c-6.7-1.7-13.5-2.3-20.3-1.7c-3.6,0.3-7.7,1.3-11.3,0.1c-3-1-4.5-4.1-7.3-5.1c-4.8-1.6-9.5,2.7-11.3,6.6
					c-2.6,5.8-3.9,12.9-4.3,19.2c-0.2,3.4,5,4,5.8,0.8c0.8-3.4,2-6.7,3.5-9.8c0.7-1.4,3.3-7.1,4.7-7.4c-1-0.3-1.9-0.5-2.9-0.8
					c-0.1-0.8-0.2-0.7-0.2,0.3c0,0.7-0.1,1.3-0.2,2c-0.2,1.5-0.6,2.9-1,4.3c-0.4,1.2-2,3.3-2,4.4c0,1.9,0.7,0.5,1.5-0.8
					c0.4-0.5,0.8-1,1.1-1.4c0-0.5,0-1,0.1-1.5c-0.6,0.7-1.1,3.3-1.5,4.3c-1.4,3.2-3.2,6-5.5,8.7c1.4,0,2.8,0,4.2,0
					c-0.4-0.5,2.5-5.6,3.1-6.5c0.8-1.2,1.7-2.3,2.7-3.3c0.7-0.7,3.7-2.1,2.2-2.2c-0.9-0.5-1.7-1-2.6-1.5c0.1,0.2-2.7,5.1-3.1,5.9
					c-0.6,0.9-3.2,5.9-4.6,5.7c0.9,0.5,1.7,1,2.6,1.5c-0.4-0.8,2-4.4,2.6-5.2c1.2-1.6,2.8-2.5,4.3-3.9c1.3-0.1,1.6-0.6,1-1.5
					c-0.3-1.3-0.6-1.1-0.8,0.6c-0.9,1.6-1.8,6.2-4.8,5.3c-0.7-1-1.5-1.9-2.2-2.9c-0.1,1.3-0.5,2.5-1.2,3.5c-1.5,0.9-1.7,1.8-0.5,2.8
					c0.4-3-2.5-4.8-5-2.9c-2,1.5-2.8,3.5-2.5,6c0.2,1.5,1.2,3.1,3,3c5.1-0.3,7.7-7.4,9.5-11.5c0.5-1.2,1-2.5,1.5-3.7
					c1.1-2.9,0.8-4.2,4.1-4.9c2.3-1.3,3.4-0.6,3.4,2.1c2.2,0.1,2.9-0.5,1.8-1.8c0-2.1-1.9-3.7-1-6.1c-1,0.7-1.9,1.5-2.9,2.2
					c-1,0,0.6,2.5,0.8,3.2c0.4,1.5,0.5,2.9,0.4,4.4c1.7-0.7,3.4-1.4,5.1-2.1c-1.5-1.3-6.1-6.3-3.3-7.5c2.1-1,7.7,2.6,9.3,3.8
					c0.5-1.8,1-3.7,1.5-5.5c-3.9-0.2-7.6,0.1-11.5,0.9c-2.2,0.4-2.9,3.5-1.3,5c3.9,3.6,8.6,5.1,13.7,6.3c0.3-1.9,0.5-3.9,0.8-5.8
					c-2.6,0.1-4.8-0.3-7.1-1.3c-0.2,1.8-0.5,3.6-0.7,5.4c5.9-2.2,11.8-2.9,18.1-2.1c-0.5-1.8-1-3.7-1.5-5.5
					c-2.4,1.3-4.8,2.1-7.6,1.5c0,1.9,0,3.8,0,5.7c9.3-1.7,18.1-5,26.2-9.8c3.3-2,0.3-7.1-3-5.1c-7.7,4.6-15.9,7.6-24.8,9.2
					c-2.9,0.5-2.8,5.2,0,5.7c4.4,0.9,8.2,0,12.2-2.1c2.9-1.6,1.2-5.2-1.5-5.5c-6.8-0.8-13.3-0.1-19.7,2.3c-2.1,0.8-3.3,4.3-0.7,5.4
					c3.4,1.5,6.4,2.2,10.1,2.2c3.3-0.1,4.2-5.1,0.8-5.8c-4-0.9-7.9-1.9-11.1-4.7c-0.4,1.7-0.9,3.3-1.3,5c3.3-0.7,6.5-0.9,9.9-0.7
					c3.2,0.2,3.7-4,1.5-5.5c-3.9-2.9-14.9-8-18.7-2.9c-3.6,4.8,1.9,12.9,5.5,16c1.9,1.7,5,0.6,5.1-2.1c0.1-4.5-1.3-13.4-7.2-13.6
					c-1.4,0-2.4,1-2.9,2.2c-1.6,4.3,0.8,13.3,5.5,15.1c6.6,2.5,5.8-6.1,4.3-9.6c-2.4-5.6-8.7-8.3-13.6-3.6c-2.3,2.2-3.1,5.2-4.2,8.1
					c-0.9,2.3-1.8,4.5-2.9,6.7c-0.2,0.4-2.5,4.9-2.6,4.9c1,1,2,2,3,3c0.3-0.6,0.5-1.2,0.8-1.8c-1.7-1-3.3-1.9-5-2.9
					c-0.5,3.8,1.3,8.8,6.1,7.1c4.1-1.4,7.5-7.7,7.4-11.8c-0.1-1.3-0.9-2.5-2.2-2.9c-5.8-1.7-8.5,6.4-4.9,10.3
					c4.8,5.1,10.3-0.5,12.4-4.9c2.2-4.3,3.6-12.9-4.2-10.8c-6,1.6-11,7.7-12.6,13.5c-1.4,5,2.5,9.1,7,5.2c3-2.6,5.4-6.6,7.1-10.1
					c1.1-2.4,3.1-5.8,1.9-8.4c-2.7-5.7-9.3,1.7-11.2,4c-3.3,4-7.8,11.3-3.9,16.1c1,1.2,3.2,1.1,4.2,0c2.8-3.3,15.6-22.3,4.1-22.5
					c-7.4-0.1-13.9,15.8-5,16.9c7.1,0.8,13.4-18.3,9-22.7c-6.8-6.8-14.6,16.4-15.6,20.4c1.9,0.3,3.9,0.5,5.8,0.8
					c0.4-5.3,1.5-11.7,3.7-16.5c2.2-4.6,4-3.3,6.9-1.1c1.7,1.3,3.5,2.3,5.7,2.8c4.6,1.1,9.2,0,13.8-0.2c5.7-0.4,11.4,0.3,17,1.6
					c-0.2-1.8-0.5-3.6-0.7-5.4c-2.9,1.9-5.8,3.2-9.2,4c0.8,1.8,1.5,3.6,2.3,5.4c4.5-2.6,27-10.2,19.3-19c-0.7-0.8-1.9-1.1-2.9-0.8
					c-3.4,1-6.4,2.6-9.9,3.2c-4.1,0.7-8.4,0.9-12.6,1.1c-4.7,0.2-9.3,0-13.7-1.9c-3.4-1.5-6.4-3.7-10-4.4
					c-14.7-2.7-19.2,16.3-20.5,26.9c-0.4,3.3,5.2,4.1,5.8,0.8c0.4-2,0.9-3.9,1.5-5.9c-1.9-0.3-3.9-0.5-5.8-0.8
					c-0.6,6-1.2,11.8-2.6,17.7c-1,4-0.7,7.6,2.1,10.7c1,1.2,3.2,1.1,4.2,0c3.3-3.6,5-7.8,4.8-12.7c-0.1-2.4-3.3-4.2-5.1-2.1
					c-3.2,3.7-6.5,11.5-2.8,16.1c4.3,5.2,9.8-3,11.4-6.5c1.5-3.5,2.7-13-4.4-10c-5.3,2.2-5.1,9.7-2.7,13.9c1.1,1.8,4.1,2.1,5.1,0
					c2-4.1,2-7.9,0.1-12c-1-2.1-4.1-1.8-5.1,0c-1.8,3.2-2.2,6.5-0.9,9.9C60.9,156.4,66.7,154.9,65.3,151.3L65.3,151.3z"/>
			</g>
		</g>
		<g>
			<g>
				<path class="st0" d="M64.4,122c-0.5-0.2-1-0.5-1.5-0.8c-0.1-0.1-1.3-0.9-1.4-0.9c0.1,0.4,0.2,0.7,0.3,1.1
					c0.1-0.3,0.2-0.6,0.3-0.9c0.2-0.4,0.4-0.7,0.6-1.1c-1.7-1-3.4-2-5.1-3c-1.5,3.4-2.8,6.8-1.9,10.5c1,3.7,6.7,2.1,5.7-1.6
					c-0.5-2,0.4-4.1,1.3-5.9c1.6-3.4-3.1-6.3-5.1-3c-1.1,1.8-2.1,4.2-1.4,6.3c0.7,2.1,3.4,3.5,5.3,4.4c1.4,0.7,3.2,0.4,4.1-1.1
					C66.2,124.8,65.8,122.7,64.4,122L64.4,122z"/>
			</g>
		</g>
		<line class="st0" x1="58.9" y1="184.4" x2="53.8" y2="199.4"/>
		<line class="st1" x1="68.2" y1="170" x2="59.9" y2="203.9"/>
		<line class="st1" x1="50.7" y1="270.8" x2="53.2" y2="256.6"/>
		<line class="st1" x1="55.4" y1="234.4" x2="54.6" y2="243.6"/>
		<line class="st1" x1="58.5" y1="213.3" x2="57.6" y2="221.4"/>
		<line class="st1" x1="61.3" y1="200.4" x2="60" y2="206.4"/>
		<line class="st1" x1="71.5" y1="107.1" x2="73.9" y2="106.6"/>
		<line class="st1" x1="75.6" y1="110" x2="73.9" y2="106.6"/>
		<line class="st1" x1="74.8" y1="233.3" x2="76.2" y2="224.5"/>
		<line class="st1" x1="77.1" y1="232.7" x2="76.4" y2="226.6"/>
		<line class="st1" x1="145.9" y1="238.8" x2="143.6" y2="224.8"/>
		<line class="st1" x1="144.8" y1="235.2" x2="143.9" y2="230.6"/>
		<line class="st1" x1="153" y1="232.9" x2="149.8" y2="221.8"/>
		<line class="st1" x1="149.5" y1="274.4" x2="149.9" y2="271.2"/>
		<line class="st1" x1="161.3" y1="276.3" x2="157.3" y2="276.5"/>
		<line class="st1" x1="148.7" y1="273.3" x2="148.7" y2="270.8"/>
		<line class="st1" x1="132.9" y1="172" x2="140.7" y2="205.7"/>
		<line class="st1" x1="141.5" y1="211.7" x2="140.3" y2="208.1"/>
		<line class="st1" x1="140.1" y1="205.9" x2="138.6" y2="200"/>
		<line class="st1" x1="135.5" y1="187.8" x2="135.8" y2="184.4"/>
		<line class="st1" x1="133.2" y1="174.1" x2="132" y2="172"/>
		<line class="st1" x1="125.7" y1="125.6" x2="126.1" y2="114.7"/>
		<line class="st1" x1="72.1" y1="168" x2="69.4" y2="166.2"/>
		<line class="st1" x1="152.8" y1="191.9" x2="147.5" y2="155.2"/>
		<line class="st1" x1="120.3" y1="110.5" x2="126.1" y2="106.6"/>
		<line class="st1" x1="149.5" y1="173.6" x2="146.7" y2="150.9"/>
		<line class="st1" x1="147.5" y1="155.2" x2="145.8" y2="141.5"/>
		<line class="st1" x1="139" y1="112.1" x2="143.2" y2="120.1"/>
		<line class="st1" x1="144.8" y1="143.7" x2="145.1" y2="129"/>
		<line class="st1" x1="143.2" y1="120.1" x2="145" y2="127.8"/>
		<line class="st1" x1="146.1" y1="142.9" x2="145" y2="134.3"/>
		<line class="st1" x1="144.8" y1="126.4" x2="145.1" y2="129"/>
		<line class="st1" x1="140.4" y1="114.7" x2="134" y2="109"/>
		<line class="st1" x1="126.1" y1="106.6" x2="134" y2="109"/>
		<line class="st1" x1="124.4" y1="110" x2="126.6" y2="107.8"/>
		<line class="st1" x1="131.8" y1="108.9" x2="125.9" y2="107.8"/>
		<line class="st1" x1="123.6" y1="110.2" x2="125.9" y2="107.8"/>
		<line class="st1" x1="139" y1="112.1" x2="134.8" y2="110"/>
		<line class="st1" x1="123.6" y1="110.2" x2="125.9" y2="107.8"/>
		<line class="st1" x1="128.4" y1="108.3" x2="125.9" y2="107.8"/>
		<line class="st1" x1="121.8" y1="111" x2="125.2" y2="107.2"/>
		<line class="st1" x1="126.6" y1="111" x2="126.1" y2="106.6"/>
		<line class="st1" x1="152.1" y1="189.6" x2="153.2" y2="196.3"/>
		<line class="st1" x1="139.2" y1="200" x2="137.4" y2="193.9"/>
		<line class="st1" x1="144.2" y1="232" x2="142.6" y2="215.6"/>
		<line class="st1" x1="157.3" y1="228.5" x2="156" y2="219.6"/>
	</g>
	<g>
		<g>
			<g>
				<path class="st2" d="M107.1,193.5c-4.5-1.1-7.7-6-6.8-10.5c0.2-0.8,0.6-1.8,1.5-1.8c0.5,0,0.9,0.3,1.2,0.6
					c1.9,2,2.1,5.4,0.4,7.6c-1.7,2.2-5,2.8-7.4,1.5c-3.2-1.8-3.9-5.9-4.1-9.6c-0.4-8.6,0.5-17.2,2.8-25.4c1,0.9,2.1,1.8,2.7,3
					s0.6,2.8-0.4,3.8c-1.4,1.3-3.7,0.5-5.3-0.5c-3-1.9-5.7-4.3-7.8-7.1c1.1,2.1-1.2,4.6-3.6,4.7c-2.3,0.1-4.4-1.4-6.3-2.8
					c-1.7,0.8-1.4,3.4-0.2,4.8c1.2,1.4,2.9,2.4,3.8,4.1c-2.7-1.1-4-4.4-3.6-7.3s1.8-5.5,3.4-7.9c0.9-1.4,2.7-2.9,3.9-1.8
					c1.2,1.1-0.2,3.1-1.7,4c-0.6,0.4-1.5,0.7-2.1,0.3c-0.7-0.4-0.8-1.3-0.7-2.1c0.3-3.3,2.7-6.3,5.8-7.4c0.7-0.2,1.5-0.3,2,0.2
					c0.4,0.5,0.3,1.1,0.1,1.7c-1.2,3.4-5.4,4.7-9,4.5c-0.4,0-0.9-0.1-1.3-0.4c-0.8-0.6-0.3-1.9,0.2-2.7c2.4-3.4,6.2-5.7,10.3-6.1
					c0.7-0.1,1.4-0.1,1.9,0.4c1.1,1,0.1,2.8-1.1,3.8c-3.7,3-8.2,5-12.9,5.5c2.4-3.7,6.2-6.6,10.5-7.8c0.9-0.3,1.9-0.5,2.8-0.2
					s1.6,0.9,2.2,1.6c3.2,3.5,5.3,8.2,5.1,12.9c-0.1,2.3-0.8,4.6-1.6,6.8c-0.6,1.8-1.4,3.6-2.8,4.9c-1.4,1.3-3.5,2-5.2,1.1
					s-2.4-3.4-1-4.7c-2.6,1.6-5.6,3.8-5.4,6.9c0.1,1.3,0.8,2.4,1.2,3.6c0.4,1.4,0.5,2.9,0.6,4.3c0.6,8.7,3.1,17.2,5.7,25.6
					c3.7-10,5.6-20.7,5.5-31.4c2,3.7-0.8,8.1-0.8,12.3c0,0.5,0.1,1.1,0.6,1.2c0.4,0,0.6-0.3,0.8-0.6c6.3-8.9,12.7-17.9,18.3-27.3
					c2.1-3.5,4.2-7.2,7.1-10.1c2.9-2.9,6.8-5.1,10.9-4.9c-5.5,7.3-12.6,13.3-20.7,17.5c-1.3,0.7-3,1.3-4.2,0.3
					c-1.3-1.1-0.8-3.1,0-4.5c2.4-4.6,6.1-8.5,10.7-11c2.2-1.2,5.4-1.9,6.8,0.2c1.2,1.7,0.2,4.1-1.1,5.8c-2.6,3.3-6.5,5.5-10.6,6.2
					c-1.2,0.2-2.7,0.1-3.3-0.9c-0.7-1.1-0.1-2.5,0.6-3.6c3.1-4.7,7.8-8.3,13.1-10.1c1.5-0.5,3.2-0.8,4.5,0c1.5,1,1.8,3,1.7,4.7
					c-0.3,5.8-3.5,11.4-8.3,14.7c-1-0.7-0.2-2.4,0.7-3.3c3.3-3.4,6.9-6.4,10.7-9.1c0.2,3.3-0.1,6.7-0.7,10c2.5-3.5,5.3-6.8,8.3-10
					c-1.3,3.2-2.9,6.4-5.7,8.3c-2,1.3-4.8,2.4-4.9,4.7c2.7-2,5.4-4,8.1-6c-2.5,0.1-4.8,1.7-6.8,3.2c-8.1,6.1-15.3,13.3-21.5,21.2
					c-1.7,2.2-3.5,5-2.7,7.7c2.1-2.1,3.7-4.7,5.4-7.3c3.8-5.7,8.5-10.9,13.8-15.3c-5.4,8.6-10.7,18.3-9.5,28.4
					c5.6-6.5,9.4-14.5,10.8-23c0.6-3.9,1.4-8.7,5.1-10c0.1,0.6-0.3,1.3-0.9,1.6c-1.1-2.4-4.5-2.8-6.8-1.6s-3.8,3.6-5.1,5.9
					c-6.8,11.8-13,24.2-16.5,37.4c-2.8,10.4-3.8,21.2-6.4,31.6c-1.1,4.4-2.5,8.9-5,12.7s-6.2,7-10.6,8.1c3.7-10.9,6.7-22.1,9.2-33.3
					c1.6-7.3,2.9-15,0.5-22c-1.9,9.4-3.5,19-4.7,28.5c4.5-7,3.1-15.9,2.4-24.2c-0.3-2.9-0.4-6,0.4-8.8s2.9-5.5,5.7-6.3
					c0.7-0.2,1.5-0.3,2.3,0c1.6,0.6,2.1,2.5,2.4,4.2c1.2,7.8,0.8,15.9-1,23.6c-1.3-8.1,0.7-16.7,5.5-23.3c0.5-0.6,1-1.3,1.8-1.3
					c1.2,0,1.8,1.4,2.1,2.6c2.6,13.4,0.5,27.3,2.3,40.8c-0.6-10,0.7-20.1,3.8-29.5c-1.4,5.6-2,11.4-2,17.2
					c-0.4-9.1,0.2-18.3,1.8-27.2c1.8,7.2,2,14.8,0.7,22c2.3-7.8,4.5-15.6,6.8-23.4c-0.6,4.9-1.2,9.7-1.9,14.6
					c3.5-10.2,5.8-20.7,6.9-31.4c-2.8,15.8-11,31-8.9,46.9c4.2-8,1.7-18.2,5.3-26.5c-0.2,8-0.3,16.1-0.2,24.1
					c0,6.1,0.1,12.4,2.1,18.2c-0.9-8.1-1.3-16.2-1.2-24.4c1.8,8,2.9,16.2,3.2,24.5"/>
				<g>
					<path class="st0" d="M108.6,187.8c-2-0.6-2.9-2.5-2.2-4.4c-0.9,1.2-1.8,2.4-2.7,3.6c0.3-0.2,0.7-0.4,1-0.6c-2,0-4,0-6,0
						c-1.8-1-1.1-9.6-1.1-11.4c0.2-5.9,1.1-11.7,2.6-17.4c-3.3,0.9-6.6,1.8-9.9,2.6c1.7,2.1,3.1,1,4.2-3.1c-0.9-0.5-1.7-1.1-2.4-1.8
						c-1.6-1.3-2.9-2.8-4.1-4.4c-3.9-4.9-11.3,0.5-9.9,5.8c1.8-1.7,2-2.9,0.6-3.6c-0.6-0.4-1.2-0.8-1.8-1.2
						c-2.3-1.6-5.3-0.7-7.2,0.9c-2.5,2.1-3.4,5.4-2.7,8.5c0.8,3.5,3.4,4.9,5.3,7.6c2.7-2.7,5.4-5.4,8.1-8.1c-1.3-0.7-0.6-2-0.2-3.1
						c0.3-0.9,0.7-1.7,1.2-2.4c1.5-1.8,0.9-2-1.9-0.6c-1.2-0.9-2.4-1.8-3.6-2.7c0.2,0.3,0.3,0.6,0.5,1c-0.2-1.5-0.4-3.1-0.6-4.6
						c0.4-0.5,0.9-0.8,1.5-1c1.7,1,3.4,2,5.1,2.9c0,1.4,0.2,1.5,0.7,0.1c0.5-0.7,1.1-1,1.9-1c-1.5-0.2-3.1-0.4-4.6-0.6
						c0.3,0.1,0.6,0.3,0.9,0.4c-0.9-1.2-1.8-2.4-2.7-3.6c0.1-0.7,0.3-1.4,0.4-2.1c-0.3,0.3-0.7,0.5-1.1,0.5
						c-0.8-0.1-1.3,0.3-2.2,0.1c1.2,0.9,2.4,1.8,3.6,2.7c-0.1-0.3-0.3-0.5-0.4-0.8c0.2,1.5,0.4,3.1,0.6,4.6c0.2-1.5,4-4.1,5.6-3.5
						c-1.2-0.9-2.4-1.8-3.6-2.7c0.2,0.3,0.3,0.6,0.5,0.9c-0.2-1.5-0.4-3.1-0.6-4.6c-0.4,2.7-8.3,3.9-10.3,4.2
						c2.2,2.9,4.5,5.8,6.7,8.7c1.3-1.8,2.9-3.3,4.9-4.3c0.6-0.3,2.3-0.6,1.6-0.9c-0.7-0.3,1.3,2.3,1.5,2.6c1,1.9,1.6,3.9,1.5,6.1
						c-0.1,1.5-0.6,3-1.1,4.3c-0.1,0.5-0.3,1-0.5,1.4c-1,1.8-0.3,3.6,2.1,5.3c3.2-5-3.2-11.3-8.1-8.1c-3.2,2-6.3,4.4-7.6,8
						c-1.4,3.9,0.2,6.7,1,10.5c0.9,4.7,0.9,9.5,2,14.2c1.1,4.9,2.6,9.7,4,14.5c1.8,5.9,9.5,5.4,11.5,0c3.8-10.6,5.7-21.7,5.8-33
						c-3.9,0.5-7.8,1.1-11.7,1.6c2.1,5.4-4.3,12.1,1.9,16.6c6.5,4.6,10.8-3.9,13.8-8.2c4.2-6,8.3-12,12.2-18.2
						c3.4-5.5,7.1-15,14.8-15.2c-1.4-3.4-2.8-6.8-4.2-10.2c-2.8,3.6-5.9,7-9.4,9.9c-1.7,1.4-3.4,2.7-5.3,3.9
						c-0.9,0.6-1.8,1.1-2.8,1.7c-0.5,0.3-0.9,0.5-1.4,0.8c-0.8,0.5-0.9,0.5-0.3,0.1c1.2,0.9,2.4,1.8,3.6,2.7
						c0.8,1.2-0.6,1.3,0.7,0.1c0.7-0.7,1.2-1.8,1.8-2.6c1.6-1.9,3.6-3,5.4-4.5c1.4-1.2,2.6,0.2,0.3-2.2c-1.9-2-1.2-1.3-2.8,0.1
						c-0.8,0.7-1.7,1.3-2.6,1.8c-0.5,0.3-0.9,0.5-1.5,0.6c-2.3,0.4-1.7,2,1.7,4.8c1.3-0.5,2.9-3.5,4.2-4.5c1-0.8,4.9-2,5.4-2.9
						c-0.5-0.3-0.9-0.7-1.4-1c-0.1,0.4-0.1,0.9-0.2,1.3c-0.5,1-0.6,2.3-1.1,3.4c-0.9,1.9-2.3,3.6-4.1,4.9c2.7,0.7,5.4,1.4,8.1,2.1
						c-0.2-0.3-0.3-0.6-0.5-1c0.2,1.5,0.4,3.1,0.6,4.6c0.7-2.5,7.1-6.4,9.2-7.8c-3-1.7-6-3.4-9-5.1c0.1,2.8,0,5.6-0.5,8.4
						c-1.1,6.8,6.8,10.1,10.9,4.6c2.3-3.1,4.8-6,7.4-8.7c-3.3-1.9-6.6-3.9-9.9-5.8c-1.3,3.2-2.9,4.4-5.6,6.3c-2.5,1.7-4.3,3.6-5,6.7
						c-1,4.5,4.3,10.1,8.7,6.7c2.7-2,5.4-4,8.1-6c5.5-4.1,2.2-12-4.6-10.9c-8.2,1.3-15.8,9.6-21.5,15.2
						c-5.7,5.7-14.9,13.9-13.9,22.7c0.5,4.8,6.3,8.3,10.2,4.2c3.2-3.4,5.5-7.5,8.3-11.3c3.2-4.2,6.9-7.9,10.9-11.3
						c-3.1-2.4-6.2-4.8-9.3-7.2c-5.9,9.5-11.3,19.9-10.3,31.4c0.4,4.6,6.5,8.5,10.2,4.2c4.3-5.2,7.7-10.7,10.1-17.1
						c1.1-3,1.8-6,2.4-9.1c0.3-1.9,0.4-4.9,2.3-5.8c-2.9-2.2-5.8-4.5-8.7-6.7c0.2-0.3,0.4-0.7,0.7-1c3.1,0.4,6.2,0.8,9.3,1.2
						c-5.7-8.6-16-5.1-20.9,2.2c-5.9,8.8-10.6,19.1-14.4,29c-4.1,10.5-6,21.3-7.9,32.3c-1.7,9.2-3,24.6-13.7,27.8
						c2.4,2.4,4.9,4.9,7.3,7.3c3.3-10,6.2-20.2,8.6-30.5c2.1-9.3,4-18.7,1.1-28c-1.6-5.3-10.3-6-11.5,0c-2,10-3.6,20-4.9,30.1
						c-0.8,6.1,8.3,7.7,11.1,3c5.1-8.8,3.8-18.3,3.2-28.1c-0.2-2.9,0.5-4.9,0.9-7.6c0.3-0.3,0.6-0.6,0.9-0.9c-1-0.4-2-0.9-2.9-1.3
						c-0.3,0.2,0.5,3.7,0.6,4.2c0.5,5.9,0,11.7-1.3,17.5c3.8,0,7.7,0,11.5,0c-0.4-3.3-0.2-6.6,0.6-9.8c0.4-1.6,1-3.2,1.7-4.7
						c0.3-0.5,0.5-1,0.8-1.4c1.6-1.9,0.9-2.2-2.1-0.9c-1.2-0.9-2.4-1.8-3.6-2.7c1.5,2.3,1.2,6.6,1.4,9.4c0.2,3.4,0.2,6.8,0.2,10.2
						c0,6.8,0,13.7,0.9,20.5c0.9,7.4,12.3,7.8,11.9,0c-0.5-9.6,0.7-18.8,3.6-28c-3.8-1.1-7.7-2.1-11.5-3.2
						c-1.4,6.2-2.2,12.4-2.2,18.8c4,0,7.9,0,11.9,0c-0.3-8.6,0.2-17.2,1.6-25.7c-3.8,0-7.7,0-11.5,0c1.4,6.2,1.7,12.5,0.7,18.9
						c-1.2,7.4,9.3,10.7,11.5,3.2c2.3-7.8,4.5-15.6,6.8-23.4c-3.9-0.5-7.8-1.1-11.7-1.6c-0.6,4.9-1.2,9.7-1.9,14.6
						c-0.9,7,9.7,7.6,11.7,1.6c3.6-10.8,5.9-21.7,7.1-33c0.7-6.6-10.4-8.2-11.7-1.6c-3.1,16.2-10.9,31.7-9.1,48.5
						c0.6,5.2,8.3,8.9,11.1,3c4.3-9,2.4-18.8,5.9-27.9c-3.9-0.5-7.8-1.1-11.7-1.6c-0.3,14.3-2.1,30.1,2,44
						c1.8,6.1,12.4,5.3,11.7-1.6c-0.9-8.1-1.2-16.2-1.2-24.4c-3.9,0.5-7.8,1.1-11.7,1.6c1.6,7.6,2.6,15.1,3,22.9
						c0.3,7.6,12.3,7.7,11.9,0c-0.4-8.8-1.5-17.5-3.4-26c-1.4-6.7-11.6-5-11.7,1.6c-0.1,8.2,0.3,16.3,1.2,24.4
						c3.9-0.5,7.8-1.1,11.7-1.6c-2-6.7-1.9-13.5-1.9-20.4c0-6.8,0.1-13.6,0.2-20.4c0.2-7.1-9.4-7.5-11.7-1.6c-3.1,8-1,17.3-4.7,25.1
						c3.7,1,7.4,2,11.1,3c-1.7-15.7,5.8-30.2,8.7-45.3c-3.9-0.5-7.8-1.1-11.7-1.6c-1.1,10.2-3.4,20.1-6.7,29.8
						c3.9,0.5,7.8,1.1,11.7,1.6c0.6-4.9,1.2-9.7,1.9-14.6c0.9-6.8-9.9-7.8-11.7-1.6c-2.3,7.8-4.5,15.6-6.8,23.4
						c3.8,1.1,7.7,2.1,11.5,3.2c1.4-8.5,1.3-16.8-0.7-25.2c-1.3-5.5-10.5-5.9-11.5,0c-1.6,9.6-2.3,19.1-2,28.8
						c0.2,7.6,11.9,7.7,11.9,0c0-5.3,0.6-10.4,1.8-15.6c1.7-7.5-9.1-10.5-11.5-3.2c-3.2,10.1-4.6,20.6-4.1,31.1c4,0,7.9,0,11.9,0
						c-1-8.7-0.7-17.3-0.9-26c-0.2-6.1,0.7-17.5-4.7-21.7c-6.8-5.2-12.3,2.7-14.8,8.3c-3.3,7.1-3.9,14.5-2.9,22.2
						c0.8,5.9,10.3,5.4,11.5,0c1.9-8.5,5.7-43.6-13-34.2c-16.2,8.1-2.8,28.7-10,41.1c3.7,1,7.4,2,11.1,3c1.2-9,2.7-18,4.5-26.9
						c-3.8,0-7.7,0-11.5,0c2.6,8.4,0,17.2-2,25.4c-2.2,9-4.8,17.9-7.7,26.8c-1.4,4.3,3.1,8.6,7.3,7.3c19.2-5.7,20.6-29,23.7-45.4
						c1.8-9.7,4.4-19.1,8.4-28.1c1.9-4.3,4.1-8.6,6.4-12.8c1.1-2.1,2.3-4.2,3.5-6.2c0.5-0.9,1.1-1.9,1.7-2.7
						c1.1-0.6,1.1-1.1-0.1-1.5c2.1,3.2,6.5,4,9.3,1.2c1.3-1.2,2.1-2.5,2.4-4.2c1.1-5.3-4-9-8.7-6.7c-5.7,2.7-6.9,8.7-8,14.3
						c-1.4,7.2-4.4,13.9-9.1,19.6c3.4,1.4,6.8,2.8,10.2,4.2c-0.9-9.5,3.8-17.5,8.6-25.4c3.7-6-4.4-11.4-9.3-7.2
						c-3.9,3.4-7.5,7.1-10.8,11.1c-2.9,3.7-5.2,8-8.4,11.4c3.4,1.4,6.8,2.8,10.2,4.2c-0.4-3.4,3.2-6.3,5.3-8.7
						c2-2.3,4.2-4.6,6.4-6.7c4-3.9,9.4-10.1,15-11c-1.5-3.6-3.1-7.3-4.6-10.9c-2.7,2-5.4,4-8.1,6c2.9,2.2,5.8,4.5,8.7,6.7
						c0,0.1,1.8-0.9,2.1-1.2c1.4-1,2.7-2.1,3.8-3.4c2.1-2.5,3.4-5.4,4.7-8.4c2.4-5.6-6.1-9.9-9.9-5.8c-3.3,3.5-6.4,7.3-9.3,11.2
						c3.6,1.5,7.3,3.1,10.9,4.6c0.6-3.9,1-7.7,0.9-11.6c-0.1-4.2-5.1-7.9-9-5.1c-6.3,4.4-18.1,11.5-13.5,20.5c1.3,2.7,5.7,4,8.1,2.1
						c5.4-4,9.5-9.3,10.8-16.1c1.2-6.5-0.6-14.4-8.5-14.9c-9.4-0.6-33.3,18.1-18.8,26c10.4,5.7,31.4-11.3,20.9-21.6
						c-9.8-9.6-28.2,8.1-27.9,18.5c0.1,3.7,2.7,6.9,6.4,7.8c3.9,0.9,7.8-1.5,11-3.4c7.1-4.3,13.3-9.9,18.4-16.5
						c2.9-3.8,1.5-10.3-4.2-10.2c-11,0.2-17.4,8.4-22.7,17.2c-2.8,4.7-5.8,9.3-8.8,13.8c-1.5,2.3-3.1,4.5-4.7,6.8
						c-0.7,1-1.4,2-2.1,3c-1,1.5-3.6,3.5-0.4,2.3c1.9,0.5,3.9,1,5.8,1.5c1.7,1.4,0.8,1.7,1.7-0.1c0.6-1.1,0.6-2.7,0.8-3.9
						c0.3-2.4,0.1-4.6-0.7-6.8c-2.3-6-11.7-5.6-11.7,1.6c-0.1,10.3-1.9,20.2-5.3,29.8c3.8,0,7.7,0,11.5,0c-2-6.6-4.1-13.2-5.1-20
						c-0.4-2.8-0.3-5.7-0.9-8.5c-0.1-0.4-1.3-3.5-1.2-3.8c-0.1,0.2,2.3-1.4,2.3-1.4c-2.7-2.7-5.4-5.4-8.1-8.1
						c-4.6,7.2,2.5,15.7,10.5,13.7c7.8-2,11.2-12.3,11.2-19.5c0-6.9-4.3-17.4-11.6-19.5c-7.8-2.2-16,5-20,10.8
						c-3.4,4.8,2.2,9.4,6.7,8.7c6.2-0.9,14.3-3.9,17.6-9.6c4.1-7-2.5-12.7-9.4-11.4c-5.9,1.1-13.3,5.7-14.4,12
						c-1.4,7.9,7.3,9.8,13.2,8c5.3-1.6,11-7,8.9-13c-2.8-7.9-12.5-4.3-16.3,0.6c-3.7,4.7-5.2,14.6,2.7,16.1
						c6.4,1.2,13.1-5.9,10.2-12.2c-1.5-3.3-5.2-4.9-8.7-3.9c-3.7,1.1-6,4.5-7.7,7.8c-3.6,7-3.4,16,4.2,20.3c4.9,2.8,11.6-3,8.1-8.1
						c-0.7-1-1.4-2-2.2-2.8c-0.3-0.3-0.7-0.7-1-1c-0.9-1.1-1.4-0.4-1.3,2.1c-2.4,0.3-4.8,0.6-7.2,0.9c3.9,2.8,8.8,4.8,13.5,2.5
						c4.4-2.1,6.3-6.6,5.2-11.2c-3.3,1.9-6.6,3.9-9.9,5.8c4,5,11.3,12,18.4,9.5c8.3-2.9,6.1-12.5,0.8-17c-3.3-2.8-8.8-2-9.9,2.6
						c-2.6,10.1-5.1,23.1-2,33.4c2.8,9.4,15.5,14,21.7,4.7c2.6-3.9,2.5-9.1,0-13c-2.6-4.2-8.3-5.6-11.9-1.8
						c-7.2,7.5,1.3,19.2,9,21.7C112.8,201.6,115.9,190.1,108.6,187.8L108.6,187.8z"/>
				</g>
			</g>
			<g>
				<path class="st2" d="M103,241.1c-1.7,0-3.5-0.1-5-0.9c-1.5-0.8-2.5-2.7-1.8-4.3c0.8-1.6,3.2-2,4.6-0.9s1.9,3.1,1.6,4.8
					s-1.4,3.3-2.5,4.7c-1.4,1.7-3,3.3-5,4.1s-4.5,0.8-6.2-0.6c-1.9,3.8-4.4,7.4-7.3,10.6c2.7,1.3,5.7,2,8.6,2.4
					c10.8,1.6,21.9,0.8,32.4-2.3c0.7-0.2,1.5-0.5,1.8-1.2c0.3-0.6,0.1-1.4-0.1-2.1c-0.9-3.3-1.9-6.7-2.8-10
					c-0.2-0.7-0.5-1.6-1.3-1.8s-1.5,0.4-2,1c-4.9,5.4-9.1,12.6-16.2,14.1c-2.8,0.6-6.5-0.4-7.1-3.3c-0.4-2,0.8-3.9,2.1-5.4
					c3.3-3.9,7.5-7,12.2-8.9c0.9-0.4,2-0.6,2.7,0c0.4,0.4,0.4,1,0.4,1.6c-0.1,4.8-3.9,9.2-8.6,10c-0.9,0.2-2,0.1-2.5-0.6
					c-0.5-0.6-0.3-1.5,0-2.3c1.1-3.3,3.4-6.2,6.3-8.1c0.4-0.2,0.8-0.5,1.2-0.5c1.1,0,1.7,1.3,1.4,2.3c-0.3,1-1.2,1.7-2,2.3
					c-1.7-2-0.3-5,1.2-7.2c0.6-0.9,1.5-1.9,2.6-1.9s1.6,2,0.5,2.2"/>
				<g>
					<path class="st0" d="M103,235.2c-3.9-0.2-5.6,3.2-7.9,5.9c-0.8,1-2.1,2.7-3.4,1.9c-2.7-1.6-6.7-0.7-8.1,2.1
						c-1.8,3.4-3.8,6.5-6.3,9.4c-2.2,2.6-2.6,7.7,1.2,9.3c10.8,4.7,23.4,4.7,35,3c4.6-0.7,11.3-1.2,14.7-4.6c4-4,1.5-9.5,0.2-14.1
						c-1.2-4.3-2.5-10.2-8.2-10.3c-5-0.1-7.9,4.7-10.7,8.1c-1.5,1.7-3,3.6-4.7,5c-0.4,0.3-5.1,2.7-5,2c0.5,0.5,0.9,1,1.4,1.4
						c0.3-0.4,0.7-0.8,1-1.1c1-0.6,1.8-1.9,2.8-2.6c1-0.8,2-1.5,3.1-2.2c0.8-0.5,3.2-1,2.1-1.4c-1.2-0.9-2.4-1.8-3.6-2.7
						c-1.1-2.3-0.2-0.6-1.3,0.9c-0.9,1.2-2.5,1.1-1.2,1.9c0.9,1.2,1.8,2.4,2.7,3.6c0.4,1.6,0.3,0,1-1c1-1.5,2.1-1.3,0-2.1
						c-1.2-0.9-2.4-1.8-3.6-2.7c1.1-3.5,0.9-4.5-0.6-2.9c3.1,0.4,6.2,0.8,9.3,1.2c-0.1,1.4,0,1.4,0.5,0c0.8-1,0.7-1.1-0.3-0.3
						c-1.5-0.2-3.1-0.4-4.6-0.6c-0.6-1.1-1.3-2.3-1.9-3.4c1-1.7,2-3.4,2.9-5.1c-0.2,0.1-0.4,0.3-0.5,0.4c-6.2,4.4-0.2,14.8,6,10.3
						c6.4-4.6,2.6-15.1-5.6-12.9c-6.9,1.9-10.2,11.7-6.8,17.6c2.1,3.6,6.4,3.5,9.3,1.2c5.5-4.3,4.8-14.8-3.5-14.8
						c-6.5-0.1-13.8,9.6-13.7,15.7c0,9.3,10.9,8.7,16.4,4.7c4.8-3.5,9.2-11.4,5.9-17.2c-6.8-12-34.1,8.9-27,21
						c3.8,6.5,12.8,6.1,18.6,2.9c2.8-1.5,5.2-3.8,7.4-6.1c1.3-1.4,2.4-2.9,3.6-4.3c0.6-0.7,1.2-1.4,1.8-2.1c1.1-1.2,1.2-1.4,0.3-0.5
						c-1.9-0.5-3.9-1-5.8-1.5c-0.4-1.4-0.4-1.1,0.2,0.8c0.3,1.1,0.6,2.2,0.9,3.3c0.2,0.7,0.9,4.6,1.4,5c3.4-3.7,3.6-4.9,0.6-3.6
						c-0.9,0.2-1.8,0.5-2.6,0.7c-2.1,0.5-4.3,0.9-6.5,1.2c-8,1-18.1,1.4-25.6-1.8c0.4,3.1,0.8,6.2,1.2,9.3c3.2-3.6,5.9-7.5,8.2-11.8
						c-2.7,0.7-5.4,1.4-8.1,2.1c12,7.2,30.5-11.1,19.8-22c-4.5-4.6-12.8-3.2-15,3.1c-2.9,8.2,5.9,12.5,12.5,12.7
						C110.7,247.4,110.6,235.5,103,235.2L103,235.2z"/>
				</g>
			</g>
			<g>
				<path class="st0" d="M84.1,198.8c0.1-1-0.3-2.1-1.1-2.7c-1.2,1.6-2.1,3.4-2.7,5.3c-0.1-1.3-0.2-2.7-0.3-4
					c-1.1,1.9-1.4,4.2-1,6.4c0-1.7-0.4-3.5-1-5.1c-0.1,4.8-0.3,9.7-0.4,14.5c0.3-5.9-0.1-11.9-1.4-17.7c1.2,4.9,2.4,9.8,2,14.8
					c-0.2,3.2-1.1,6.2-1.4,9.4c-0.6,7.2,1.7,15.1-1.9,21.3c0-4.7,0.6-9.4,1.6-14c0.3,9.9-1.7,19.8-5.8,28.8c1-3.4,2-6.8,3.1-10.3
					c0.7-2.2,1.3-4.5,2.3-6.6c1.4-3.1,3.4-5.8,5.4-8.5c5.6-7.6,11-15.2,16.5-22.9c2.1-2.9,4.1-5.9,5.6-9.1c0.7-1.4,1.2-2.9,2-4.2
					c1-1.7,2.3-3.2,3.6-4.7c5.1-5.8,10.2-11.6,15.2-17.4c0.6-0.7,1.4-1.4,2.2-1.2c1.3,0.3,1.2,2.3,0.8,3.6c-0.8,2.5-1.6,4.9-2.4,7.4
					c2.1-3.7,3.5-7.8,4.2-12.1c-3.5,5.6-4.9,12.2-6.3,18.6c1.2-3.1,2.4-6.2,3.5-9.3c-0.2,2.1-0.7,4.1-1.3,6.1c1.2-2.2,2-4.5,2.4-7
					c-1.4,4.1-2.4,8.3-3.1,12.5c1.6-1.8,2.3-4.3,1.8-6.6c-0.6,4.3-1.3,8.6-1.9,12.9c-0.8,5.4-1.6,10.7-2.8,16
					c-0.5,2.2-1.1,4.4-1.2,6.6c-0.3,4.5,1.2,9,3.1,13.2c0.7-4.7,0.6-9.5-0.1-14.2c1,2.1,1.3,4.4,1.1,6.6c-0.4-4.3-0.8-8.7-1.3-13
					c0.4,2.2,0.7,4.5,0.7,6.7c0.8-2.8,0.5-5.8,0.4-8.7c-0.2-6.2,0.6-12.4,1.4-18.5c-1.7,5-0.3,10.4-1,15.6c-0.5,3.4-1.8,6.5-2.5,9.8
					c-2.2,10.4,1.8,20.9,5.8,30.7c-1.8-1.5-3.1-3.7-3.3-6.1c1,1.2,1.7,2.6,2.2,4.2c-0.4-1.3-0.7-2.7-1.1-4c0.2,0.8,0.6,1.5,1.3,1.9
					c0.3-0.7,0.2-1.6-0.4-2.2c1.6,5.6,3.1,11.3,4.7,16.9"/>
			</g>
			<g>
				<path class="st0" d="M124.3,188.8c-0.5,0.1-1.1-0.3-1.3-0.8c-0.2-0.5,0-1.1,0.2-1.6c0.4-0.9,1.1-1.7,2-2.2
					c0.2-0.1,0.5-0.3,0.7-0.5c0.1-0.2,0.2-0.3,0.2-0.5c0.2-0.6,0.3-1.2,0.5-1.8c0.3,0.6,0.3,1.5-0.2,2.1"/>
			</g>
			<g>
				<path class="st0" d="M75.6,258.9c-0.5-0.6-1.5-0.4-2.2-0.5c-0.8-0.1-1.7-0.9-1.2-1.5c-0.8,1.1-1.7,2.3-2.5,3.4
					c0.9-1,1.6-2.3,1.8-3.6c-0.7,1.7-1.3,3.3-2,5c-0.1,0.2-0.2,0.5-0.1,0.7c0.1,0.3,0.4,0.5,0.8,0.7c3.5,1.5,7.3,1.8,11,2.1
					c-1.8-0.2-3.6-0.4-5.5-0.6c11.1,2.4,22.5,3.4,33.8,3c-2.9,0.4-5.9,0.5-8.9,0.4c4.5-1.2,9-2.5,13.5-3.7c1-0.3,2-0.5,3-0.6
					c0.9,0,1.7,0.1,2.6,0c2.1-0.2,3.8-1.6,5.7-2.4s4.7-0.5,5.4,1.5c0.3-1.3-0.3-2.8-1.4-3.5c0.3,1.2,0.7,2.3,1,3.5
					c0.1,0.2,0.1,0.5,0.1,0.7c-0.1,0.4-0.5,0.6-0.9,0.8c-6.4,2.8-13.7,1.8-20.4,3.6c6,0.1,12-0.9,17.6-3.1c0.7-0.3,1.5-0.7,1.6-1.4
					c0.1-0.7-1.2-1.3-1.4-0.6c0,0.6,0.8,0.9,1.4,0.7c0.6-0.2,1.2-0.6,1.8-0.5s1.1,1,0.6,1.3c0.3-0.1,0.7-0.2,1-0.3"/>
			</g>
			<g>
				<g>
					<g>
						<g>
							<g>
								<path d="M39,277.7c1.8-0.4,3.7-0.2,5.5-0.1c1.6,0.1,4.7-0.3,6.1,0.5c0.7,0.4,1.3-0.7,0.6-1c-1.6-0.9-4-0.6-5.8-0.7
									c-2.2-0.1-4.6-0.4-6.7,0.1C37.9,276.7,38.2,277.9,39,277.7L39,277.7z"/>
							</g>
						</g>
						<g>
							<g>
								<path d="M51.8,277.9c2.4-22.2,5.1-44.3,8.1-66.4c0.1-0.7-1-1.1-1.1-0.3c-3,22.2-5.7,44.4-8.1,66.7
									C50.5,278.7,51.7,278.7,51.8,277.9L51.8,277.9z"/>
							</g>
						</g>
						<g>
							<g>
								<path d="M60,211.4c3.1-14.5,6.5-28.8,9.9-43.2c0.2-0.7-1-1.1-1.1-0.3c-3.3,14.4-6.8,28.8-9.9,43.2
									C58.7,211.8,59.8,212.2,60,211.4L60,211.4z"/>
							</g>
						</g>
						<g>
							<g>
								<path d="M39.2,276.6c1.6-21.9,2.5-44.1,6.5-65.8c0.1-0.7-1-1.1-1.1-0.3c-4,21.8-4.9,44-6.5,66.1
									C38,277.4,39.2,277.4,39.2,276.6L39.2,276.6z"/>
							</g>
						</g>
						<g>
							<g>
								<path d="M45.7,210.3c0.7-12.2,2.6-24.3,4.3-36.4c1.5-10.7,2.3-21.8,4.4-32.4c0.2-0.7-1-1.1-1.1-0.3
									c-2.3,11.2-3.1,23-4.7,34.3c-1.6,11.6-3.4,23.1-4,34.8C44.5,211,45.6,211,45.7,210.3L45.7,210.3z"/>
							</g>
						</g>
						<g>
							<g>
								<path d="M54.4,141.9c0.1-9.4,0.2-21.3,6.5-28.7c0.5-0.6-0.3-1.4-0.8-0.8c-6.7,7.8-6.7,19.7-6.9,29.6
									C53.2,142.7,54.4,142.7,54.4,141.9L54.4,141.9z"/>
							</g>
						</g>
						<g>
							<g>
								<path d="M60.4,114.3c1.7-4.9,9.1-6.6,13.5-7.7c0.7-0.2,0.4-1.3-0.3-1.1c-5,1.2-12.5,3-14.4,8.5
									C59,114.7,60.2,115,60.4,114.3L60.4,114.3z"/>
							</g>
						</g>
						<g>
							<g>
								<path d="M73.7,107c7.8,5.5,16.9,7.9,26.5,7.1c0.8-0.1,0.8-1.3,0-1.2c-9.4,0.8-18.1-1.6-25.9-6.9
									C73.7,105.5,73.1,106.5,73.7,107L73.7,107z"/>
							</g>
						</g>
					</g>
					<g>
						<g>
							<g>
								<path d="M161.5,276.6c-2.1-0.5-4.5-0.2-6.7-0.1c-1.8,0.1-4.2-0.2-5.8,0.7c-0.7,0.4-0.1,1.4,0.6,1c1.5-0.8,4.4-0.5,6.1-0.5
									c1.8-0.1,3.7-0.3,5.5,0.1C161.9,277.9,162.2,276.7,161.5,276.6L161.5,276.6z"/>
							</g>
						</g>
						<g>
							<g>
								<path d="M149.5,277.9c-2.4-22.3-5.1-44.5-8.1-66.7c-0.1-0.8-1.2-0.4-1.1,0.3c3,22.1,5.7,44.2,8.1,66.4
									C148.4,278.7,149.6,278.7,149.5,277.9L149.5,277.9z"/>
							</g>
						</g>
						<g>
							<g>
								<path d="M141.3,211.1c-3.1-14.2-6.5-28.2-9.9-42.3c-0.2-0.7-1.3-0.4-1.1,0.3c3.3,14.1,6.8,28.2,9.9,42.3
									C140.3,212.2,141.4,211.8,141.3,211.1L141.3,211.1z"/>
							</g>
						</g>
						<g>
							<g>
								<path d="M162.1,276.6c-1.6-22.1-2.5-44.3-6.5-66.1c-0.1-0.8-1.3-0.4-1.1,0.3c4,21.6,4.9,43.8,6.5,65.8
									C160.9,277.4,162.1,277.4,162.1,276.6L162.1,276.6z"/>
							</g>
						</g>
						<g>
							<g>
								<path d="M155.6,210.3c-0.6-11.7-2.4-23.2-4-34.8c-1.6-11.4-2.4-23.1-4.7-34.3c-0.2-0.8-1.3-0.4-1.1,0.3
									c2.1,10.6,2.9,21.7,4.4,32.4c1.7,12.1,3.6,24.2,4.3,36.4C154.5,211,155.7,211,155.6,210.3L155.6,210.3z"/>
							</g>
						</g>
						<g>
							<g>
								<path d="M146.9,141.9c-0.1-9.8-0.1-21.7-6.9-29.6c-0.5-0.6-1.3,0.3-0.8,0.8c6.4,7.4,6.4,19.3,6.5,28.7
									C145.7,142.7,146.9,142.7,146.9,141.9L146.9,141.9z"/>
							</g>
						</g>
						<g>
							<g>
								<path d="M140.8,114c-1.9-5.5-9.3-7.3-14.4-8.5c-0.7-0.2-1.1,1-0.3,1.1c4.4,1,11.9,2.8,13.5,7.7
									C139.9,115,141.1,114.7,140.8,114L140.8,114z"/>
							</g>
						</g>
						<g>
							<g>
								<path d="M125.8,105.9c-7.7,5.4-16.5,7.7-25.9,6.9c-0.8-0.1-0.8,1.1,0,1.2c9.5,0.8,18.6-1.6,26.5-7.1
									C127,106.5,126.4,105.5,125.8,105.9L125.8,105.9z"/>
							</g>
						</g>
					</g>
					<g>
						<g>
							<g>
								<g>
									<path d="M72.2,169c-4.1-4.1-8.4-7.6-8.2-13.9c0.1-4.8,1.3-9.6,4.8-13c0.5-0.5-0.3-1.4-0.8-0.8c-3.8,3.7-5,8.7-5.2,13.8
										c-0.3,6.7,4,10.4,8.5,14.8C71.9,170.4,72.7,169.6,72.2,169L72.2,169z"/>
								</g>
							</g>
							<g>
								<g>
									<path d="M76,224.2c1.4-18-1.5-36-3.8-53.8c-0.1-0.7-1.3-0.8-1.2,0c2.3,17.8,5.2,35.8,3.8,53.8C74.8,225,76,225,76,224.2
										L76,224.2z"/>
								</g>
							</g>
							<g>
								<g>
									<path d="M75.3,223.1c-1.7,6.4-1.4,13.1-2.9,19.5c-1.6,6.8-3.4,13.6-5.2,20.4c-0.2,0.7,1,1.1,1.1,0.3
										c1.7-6.8,3.6-13.6,5.2-20.4c1.5-6.4,1.2-13.1,2.9-19.5C76.6,222.6,75.5,222.3,75.3,223.1L75.3,223.1z"/>
								</g>
							</g>
							<g>
								<g>
									<g>
										<path d="M129.8,170.6c4.5-4.4,8.8-8.1,8.5-14.8c-0.2-5.1-1.4-10.2-5.2-13.8c-0.5-0.5-1.4,0.3-0.8,0.8
											c3.5,3.4,4.7,8.2,4.8,13c0.2,6.3-4,9.9-8.2,13.9C128.4,170.3,129.3,171.2,129.8,170.6L129.8,170.6z"/>
									</g>
								</g>
								<g>
									<g>
										<path d="M126.3,225c-1.4-18,1.5-36,3.8-53.8c0.1-0.8-1.1-0.8-1.2,0c-2.3,17.8-5.2,35.8-3.8,53.8
											C125.2,225.7,126.4,225.7,126.3,225L126.3,225z"/>
									</g>
								</g>
							</g>
							<g>
								<g>
									<path d="M124.8,224.1c1.7,6.4,1.4,13.1,2.9,19.5c1.6,6.8,3.4,13.6,5.2,20.4c0.2,0.7,1.3,0.4,1.1-0.3
										c-1.7-6.8-3.6-13.6-5.2-20.4c-1.5-6.4-1.2-13.1-2.9-19.5C125.7,223.1,124.6,223.4,124.8,224.1L124.8,224.1z"/>
								</g>
							</g>
							<g>
								<g>
									<path d="M68,263.4c3.3,3,8,3.1,12.2,3.8c5.6,1,11.2,2,16.9,2.4c12.2,0.9,24.4-0.7,36.1-4.5c0.7-0.2,0.4-1.4-0.3-1.1
										c-10.4,3.3-21.2,5-32.1,4.6c-5.4-0.2-10.6-0.9-15.9-1.8c-4.7-0.8-12.3-0.8-16-4.2C68.3,262.1,67.5,262.9,68,263.4L68,263.4
										z"/>
								</g>
							</g>
						</g>
					</g>
				</g>
			</g>
		</g>
		<g>
			<g>
				<path class="st3" d="M71.7,169.5c6,4.7,15.8,2.1,21.8-1.4c0.7-0.4,0.1-1.4-0.6-1c-5.4,3.2-14.8,5.9-20.3,1.6
					C72,168.2,71.1,169,71.7,169.5L71.7,169.5z"/>
			</g>
		</g>
		<g>
			<g>
				<path class="st3" d="M129.3,169.1c-5.5,4.3-14.9,1.6-20.3-1.6c-0.7-0.4-1.3,0.6-0.6,1c5.9,3.5,15.8,6,21.8,1.4
					C130.8,169.4,129.9,168.6,129.3,169.1L129.3,169.1z"/>
			</g>
		</g>
	</g>
	<g>
		<g>
			<path class="st0" d="M124.5,115.3c-0.2,0.1-0.5,0.2-0.8,0.2c0.5,0,1.1,0,1.6,0c-0.1,0-0.2-0.1-0.3-0.1c0.6,0.5,1.2,0.9,1.8,1.4
				c-0.1-0.1-0.1-0.2-0.2-0.3c0.1,0.5,0.3,1,0.4,1.5c0-0.1,0-0.3,0-0.4c-0.1,0.5-0.3,1-0.4,1.5c0.1-0.2-0.1-0.1,0.2-0.1
				c-0.5-0.1-1-0.3-1.5-0.4c-0.1-0.1-0.2-0.2-0.3-0.3c0-0.5,0-1.1,0-1.6c-0.1,0.7,0.2,0.3-0.4,0.4c0.5,0,1.1,0,1.6,0l0,0
				c0.4,0.4,0.7,0.7,1.1,1.1c-0.1-0.1-0.1-0.2-0.2-0.3c0.1,0.5,0.3,1,0.4,1.5c0-0.1,0-0.3,0-0.4c-0.1,0.5-0.3,1-0.4,1.5
				c0,0,0.6-0.1,1,0c-0.6-0.5-1.2-0.9-1.8-1.4c0.1,0.1,0.1,0.2,0.2,0.3c-0.1-0.5-0.3-1-0.4-1.5c0-1-0.2-0.3-0.9,0
				c-0.2,0.1-0.5,0.2-0.7,0.2c-0.6,0-0.5,0.2,0.1,0.7c0,0.5,0,1.1,0,1.6v-0.1c-0.4,0.4-0.7,0.7-1.1,1.1c0.2-0.2,0.5-0.2,0.7-0.4
				c0.4-0.2,0.5,0.1,0.3,0c-0.4-0.4-0.7-0.7-1.1-1.1c0-0.1,0.2-0.4,0.1-0.3c-0.3,0.1-0.7,0.7-1,0.8c-0.3,0.2-0.7,0.3-1,0.4
				c-0.7,0.3-0.3-0.3,0.1,0.2c0.3,0.4,0.5,0.9,0.8,1.3c0.4,1.2-0.7,0.2,0.2,0.4c0.2,0,0.6,0,0.6-0.1c-0.3-0.4-0.5-0.9-0.8-1.3
				c0.2-0.5,0.2-0.6,0-0.2c-0.2,0.2-0.4,0.4-0.5,0.6c-0.5,0.4-0.3,0.4-0.8,0c-3.2-2.2-6.1,3-3,5.1c3.7,2.6,9.1-0.2,10.2-4.3
				c1.6-5.7-5.9-6.9-9.5-4.4c-1.7,1.2-2.9,3.3-2.3,5.4c0.6,2.3,2.8,3.5,5.1,3.4c4.1-0.2,9.2-4.2,7.6-8.8c-1.5-4.3-9-4-10.3,0.3
				c-0.7,2.3,0.7,4.6,2.9,5.4c2.3,0.8,5.1,0.2,7.1-1.1c1.7-1,3.3-2.7,3.2-4.8c-0.1-3-3.2-3.8-5.6-3.3c-2,0.4-4.1,1.5-4.7,3.6
				c-0.7,2.5,1.4,4.8,3.9,4.8c2.6,0,4.9-2.3,5.3-4.7c0.5-2.7-1.6-5.4-4.4-5.3c-2.4,0.1-5.1,2.1-5.3,4.6c-0.2,2.8,2.5,4.5,5,3.5
				c1.5-0.6,2.5-2,2.1-3.7C127.8,115.9,126,114.7,124.5,115.3L124.5,115.3z"/>
		</g>
	</g>
</g>
</svg>
