<?xml version="1.0" encoding="utf-8"?>
<!-- Generator: Adobe Illustrator 22.1.0, SVG Export Plug-In . SVG Version: 6.00 Build 0)  -->
<svg version="1.1" id="Layer_1" xmlns="http://www.w3.org/2000/svg" xmlns:xlink="http://www.w3.org/1999/xlink" x="0px" y="0px"
	 viewBox="0 0 200 600" style="enable-background:new 0 0 200 600;" xml:space="preserve">
<style type="text/css">
	.st0{fill:none;stroke:#CD68A5;stroke-miterlimit:10;}
	.st1{fill:#CF68A8;}
	.st2{fill:none;stroke:#CC68A5;stroke-miterlimit:10;}
	.st3{fill:#AC568D;}
</style>
<g>
	<g>
		<line class="st0" x1="135.9" y1="185.1" x2="137.4" y2="193"/>
		<line class="st0" x1="131.5" y1="167.7" x2="135.2" y2="179.6"/>
		<line class="st0" x1="143" y1="208.7" x2="138.9" y2="200.6"/>
		<line class="st0" x1="140.4" y1="204.1" x2="136.6" y2="193"/>
		<g>
			<g>
				<path class="st1" d="M108.6,187.8c-2-0.6-2.9-2.5-2.2-4.4c-0.9,1.2-1.8,2.4-2.7,3.6c0.3-0.2,0.7-0.4,1-0.6c-2,0-4,0-6,0
					c-1.8-1-1.1-9.6-1.1-11.4c0.2-5.9,1.1-11.7,2.6-17.4c-3.3,0.9-6.6,1.8-9.9,2.6c1.7,2.1,3.1,1,4.2-3.1c-0.9-0.5-1.7-1.1-2.4-1.8
					c-1.6-1.3-2.9-2.8-4.1-4.4c-3.9-4.9-11.3,0.5-9.9,5.8c1.8-1.7,2-2.9,0.6-3.6c-0.6-0.4-1.2-0.8-1.8-1.2c-2.3-1.6-5.3-0.7-7.2,0.9
					c-2.5,2.1-3.4,5.4-2.7,8.5c0.8,3.5,3.4,4.9,5.3,7.6c2.7-2.7,5.4-5.4,8.1-8.1c-1.3-0.7-0.6-2-0.2-3.1c0.3-0.9,0.7-1.7,1.2-2.4
					c1.5-1.8,0.9-2-1.9-0.6c-1.2-0.9-2.4-1.8-3.6-2.7c0.2,0.3,0.3,0.6,0.5,1c-0.2-1.5-0.4-3.1-0.6-4.6c0.4-0.5,0.9-0.8,1.5-1
					c1.7,1,3.4,2,5.1,2.9c0,1.4,0.2,1.5,0.7,0.1c0.5-0.7,1.1-1,1.9-1c-1.5-0.2-3.1-0.4-4.6-0.6c0.3,0.1,0.6,0.3,0.9,0.4
					c-0.9-1.2-1.8-2.4-2.7-3.6c0.1-0.7,0.3-1.4,0.4-2.1c-0.3,0.3-0.7,0.5-1.1,0.5c-0.8-0.1-1.3,0.3-2.2,0.1c1.2,0.9,2.4,1.8,3.6,2.7
					c-0.1-0.3-0.3-0.5-0.4-0.8c0.2,1.5,0.4,3.1,0.6,4.6c0.2-1.5,4-4.1,5.6-3.5c-1.2-0.9-2.4-1.8-3.6-2.7c0.2,0.3,0.3,0.6,0.5,0.9
					c-0.2-1.5-0.4-3.1-0.6-4.6c-0.4,2.7-8.3,3.9-10.3,4.2c2.2,2.9,4.5,5.8,6.7,8.7c1.3-1.8,2.9-3.3,4.9-4.3c0.6-0.3,2.3-0.6,1.6-0.9
					c-0.7-0.3,1.3,2.3,1.5,2.6c1,1.9,1.6,3.9,1.5,6.1c-0.1,1.5-0.6,3-1.1,4.3c-0.1,0.5-0.3,1-0.5,1.4c-1,1.8-0.3,3.6,2.1,5.3
					c3.2-5-3.2-11.3-8.1-8.1c-3.2,2-6.3,4.4-7.6,8c-1.4,3.9,0.2,6.7,1,10.5c0.9,4.7,0.9,9.5,2,14.2c1.1,4.9,2.6,9.7,4,14.5
					c1.8,5.9,9.5,5.4,11.5,0c3.8-10.6,5.7-21.7,5.8-33c-3.9,0.5-7.8,1.1-11.7,1.6c2.1,5.4-4.3,12.1,1.9,16.6
					c6.5,4.6,10.8-3.9,13.8-8.2c4.2-6,8.3-12,12.2-18.2c3.4-5.5,7.1-15,14.8-15.2c-1.4-3.4-2.8-6.8-4.2-10.2c-2.8,3.6-5.9,7-9.4,9.9
					c-1.7,1.4-3.4,2.7-5.3,3.9c-0.9,0.6-1.8,1.1-2.8,1.7c-0.5,0.3-0.9,0.5-1.4,0.8c-0.8,0.5-0.9,0.5-0.3,0.1
					c1.2,0.9,2.4,1.8,3.6,2.7c0.8,1.2-0.6,1.3,0.7,0.1c0.7-0.7,1.2-1.8,1.8-2.6c1.6-1.9,3.6-3,5.4-4.5c1.4-1.2,2.6,0.2,0.3-2.2
					c-1.9-2-1.2-1.3-2.8,0.1c-0.8,0.7-1.7,1.3-2.6,1.8c-0.5,0.3-0.9,0.5-1.5,0.6c-2.3,0.4-1.7,2,1.7,4.8c1.3-0.5,2.9-3.5,4.2-4.5
					c1-0.8,4.9-2,5.4-2.9c-0.5-0.3-0.9-0.7-1.4-1c-0.1,0.4-0.1,0.9-0.2,1.3c-0.5,1-0.6,2.3-1.1,3.4c-0.9,1.9-2.3,3.6-4.1,4.9
					c2.7,0.7,5.4,1.4,8.1,2.1c-0.2-0.3-0.3-0.6-0.5-1c0.2,1.5,0.4,3.1,0.6,4.6c0.7-2.5,7.1-6.4,9.2-7.8c-3-1.7-6-3.4-9-5.1
					c0.1,2.8,0,5.6-0.5,8.4c-1.1,6.8,6.8,10.1,10.9,4.6c2.3-3.1,4.8-6,7.4-8.7c-3.3-1.9-6.6-3.9-9.9-5.8c-1.3,3.2-2.9,4.4-5.6,6.3
					c-2.5,1.7-4.3,3.6-5,6.7c-1,4.5,4.3,10.1,8.7,6.7c2.7-2,5.4-4,8.1-6c5.5-4.1,2.2-12-4.6-10.9c-8.2,1.3-15.8,9.6-21.5,15.2
					c-5.7,5.7-14.9,13.9-13.9,22.7c0.5,4.8,6.3,8.3,10.2,4.2c3.2-3.4,5.5-7.5,8.3-11.3c3.2-4.2,6.9-7.9,10.9-11.3
					c-3.1-2.4-6.2-4.8-9.3-7.2c-5.9,9.5-11.3,19.9-10.3,31.4c0.4,4.6,6.5,8.5,10.2,4.2c4.3-5.2,7.7-10.7,10.1-17.1
					c1.1-3,1.8-6,2.4-9.1c0.3-1.9,0.4-4.9,2.3-5.8c-2.9-2.2-5.8-4.5-8.7-6.7c0.2-0.3,0.4-0.7,0.7-1c3.1,0.4,6.2,0.8,9.3,1.2
					c-5.7-8.6-16-5.1-20.9,2.2c-5.9,8.8-10.6,19.1-14.4,29c-4.1,10.5-6,21.3-7.9,32.3c-1.7,9.2-3,24.6-13.7,27.8
					c2.4,2.4,4.9,4.9,7.3,7.3c3.3-10,6.2-20.2,8.6-30.5c2.1-9.3,4-18.7,1.1-28c-1.6-5.3-10.3-6-11.5,0c-2,10-3.6,20-4.9,30.1
					c-0.8,6.1,8.3,7.7,11.1,3c5.1-8.8,3.8-18.3,3.2-28.1c-0.2-2.9,0.5-4.9,0.9-7.6c0.3-0.3,0.6-0.6,0.9-0.9c-1-0.4-2-0.9-2.9-1.3
					c-0.3,0.2,0.5,3.7,0.6,4.2c0.5,5.9,0,11.7-1.3,17.5c3.8,0,7.7,0,11.5,0c-0.4-3.3-0.2-6.6,0.6-9.8c0.4-1.6,1-3.2,1.7-4.7
					c0.3-0.5,0.5-1,0.8-1.4c1.6-1.9,0.9-2.2-2.1-0.9c-1.2-0.9-2.4-1.8-3.6-2.7c1.5,2.3,1.2,6.6,1.4,9.4c0.2,3.4,0.2,6.8,0.2,10.2
					c0,6.8,0,13.7,0.9,20.5c0.9,7.4,12.3,7.8,11.9,0c-0.5-9.6,0.7-18.8,3.6-28c-3.8-1.1-7.7-2.1-11.5-3.2
					c-1.4,6.2-2.2,12.4-2.2,18.8c4,0,7.9,0,11.9,0c-0.3-8.6,0.2-17.2,1.6-25.7c-3.8,0-7.7,0-11.5,0c1.4,6.2,1.7,12.5,0.7,18.9
					c-1.2,7.4,9.3,10.7,11.5,3.2c2.3-7.8,4.5-15.6,6.8-23.4c-3.9-0.5-7.8-1.1-11.7-1.6c-0.6,4.9-1.2,9.7-1.9,14.6
					c-0.9,7,9.7,7.6,11.7,1.6c3.6-10.8,5.9-21.7,7.1-33c0.7-6.6-10.4-8.2-11.7-1.6c-3.1,16.2-10.9,31.7-9.1,48.5
					c0.6,5.2,8.3,8.9,11.1,3c4.3-9,2.4-18.8,5.9-27.9c-3.9-0.5-7.8-1.1-11.7-1.6c-0.3,14.3-2.1,30.1,2,44c1.8,6.1,12.4,5.3,11.7-1.6
					c-0.9-8.1-1.2-16.2-1.2-24.4c-3.9,0.5-7.8,1.1-11.7,1.6c1.6,7.6,2.6,15.1,3,22.9c0.3,7.6,12.3,7.7,11.9,0
					c-0.4-8.8-1.5-17.5-3.4-26c-1.4-6.7-11.6-5-11.7,1.6c-0.1,8.2,0.3,16.3,1.2,24.4c3.9-0.5,7.8-1.1,11.7-1.6
					c-2-6.7-1.9-13.5-1.9-20.4c0-6.8,0.1-13.6,0.2-20.4c0.2-7.1-9.4-7.5-11.7-1.6c-3.1,8-1,17.3-4.7,25.1c3.7,1,7.4,2,11.1,3
					c-1.7-15.7,5.8-30.2,8.7-45.3c-3.9-0.5-7.8-1.1-11.7-1.6c-1.1,10.2-3.4,20.1-6.7,29.8c3.9,0.5,7.8,1.1,11.7,1.6
					c0.6-4.9,1.2-9.7,1.9-14.6c0.9-6.8-9.9-7.8-11.7-1.6c-2.3,7.8-4.5,15.6-6.8,23.4c3.8,1.1,7.7,2.1,11.5,3.2
					c1.4-8.5,1.3-16.8-0.7-25.2c-1.3-5.5-10.5-5.9-11.5,0c-1.6,9.6-2.3,19.1-2,28.8c0.2,7.6,11.9,7.7,11.9,0
					c0-5.3,0.6-10.4,1.8-15.6c1.7-7.5-9.1-10.5-11.5-3.2c-3.2,10.1-4.6,20.6-4.1,31.1c4,0,7.9,0,11.9,0c-1-8.7-0.7-17.3-0.9-26
					c-0.2-6.1,0.7-17.5-4.7-21.7c-6.8-5.2-12.3,2.7-14.8,8.3c-3.3,7.1-3.9,14.5-2.9,22.2c0.8,5.9,10.3,5.4,11.5,0
					c1.9-8.5,5.7-43.6-13-34.2c-16.2,8.1-2.8,28.7-10,41.1c3.7,1,7.4,2,11.1,3c1.2-9,2.7-18,4.5-26.9c-3.8,0-7.7,0-11.5,0
					c2.6,8.4,0,17.2-2,25.4c-2.2,9-4.8,17.9-7.7,26.8c-1.4,4.3,3.1,8.6,7.3,7.3c19.2-5.7,20.6-29,23.7-45.4
					c1.8-9.7,4.4-19.1,8.4-28.1c1.9-4.3,4.1-8.6,6.4-12.8c1.1-2.1,2.3-4.2,3.5-6.2c0.5-0.9,1.1-1.9,1.7-2.7c1.1-0.6,1.1-1.1-0.1-1.5
					c2.1,3.2,6.5,4,9.3,1.2c1.3-1.2,2.1-2.5,2.4-4.2c1.1-5.3-4-9-8.7-6.7c-5.7,2.7-6.9,8.7-8,14.3c-1.4,7.2-4.4,13.9-9.1,19.6
					c3.4,1.4,6.8,2.8,10.2,4.2c-0.9-9.5,3.8-17.5,8.6-25.4c3.7-6-4.4-11.4-9.3-7.2c-3.9,3.4-7.5,7.1-10.8,11.1
					c-2.9,3.7-5.2,8-8.4,11.4c3.4,1.4,6.8,2.8,10.2,4.2c-0.4-3.4,3.2-6.3,5.3-8.7c2-2.3,4.2-4.6,6.4-6.7c4-3.9,9.4-10.1,15-11
					c-1.5-3.6-3.1-7.3-4.6-10.9c-2.7,2-5.4,4-8.1,6c2.9,2.2,5.8,4.5,8.7,6.7c0,0.1,1.8-0.9,2.1-1.2c1.4-1,2.7-2.1,3.8-3.4
					c2.1-2.5,3.4-5.4,4.7-8.4c2.4-5.6-6.1-9.9-9.9-5.8c-3.3,3.5-6.4,7.3-9.3,11.2c3.6,1.5,7.3,3.1,10.9,4.6c0.6-3.9,1-7.7,0.9-11.6
					c-0.1-4.2-5.1-7.9-9-5.1c-6.3,4.4-18.1,11.5-13.5,20.5c1.3,2.7,5.7,4,8.1,2.1c5.4-4,9.5-9.3,10.8-16.1
					c1.2-6.5-0.6-14.4-8.5-14.9c-9.4-0.6-33.3,18.1-18.8,26c10.4,5.7,31.4-11.3,20.9-21.6c-9.8-9.6-28.2,8.1-27.9,18.5
					c0.1,3.7,2.7,6.9,6.4,7.8c3.9,0.9,7.8-1.5,11-3.4c7.1-4.3,13.3-9.9,18.4-16.5c2.9-3.8,1.5-10.3-4.2-10.2
					c-11,0.2-17.4,8.4-22.7,17.2c-2.8,4.7-5.8,9.3-8.8,13.8c-1.5,2.3-3.1,4.5-4.7,6.8c-0.7,1-1.4,2-2.1,3c-1,1.5-3.6,3.5-0.4,2.3
					c1.9,0.5,3.9,1,5.8,1.5c1.7,1.4,0.8,1.7,1.7-0.1c0.6-1.1,0.6-2.7,0.8-3.9c0.3-2.4,0.1-4.6-0.7-6.8c-2.3-6-11.7-5.6-11.7,1.6
					c-0.1,10.3-1.9,20.2-5.3,29.8c3.8,0,7.7,0,11.5,0c-2-6.6-4.1-13.2-5.1-20c-0.4-2.8-0.3-5.7-0.9-8.5c-0.1-0.4-1.3-3.5-1.2-3.8
					c-0.1,0.2,2.3-1.4,2.3-1.4c-2.7-2.7-5.4-5.4-8.1-8.1c-4.6,7.2,2.5,15.7,10.5,13.7c7.8-2,11.2-12.3,11.2-19.5
					c0-6.9-4.3-17.4-11.6-19.5c-7.8-2.2-16,5-20,10.8c-3.4,4.8,2.2,9.4,6.7,8.7c6.2-0.9,14.3-3.9,17.6-9.6c4.1-7-2.5-12.7-9.4-11.4
					c-5.9,1.1-13.3,5.7-14.4,12c-1.4,7.9,7.3,9.8,13.2,8c5.3-1.6,11-7,8.9-13c-2.8-7.9-12.5-4.3-16.3,0.6
					c-3.7,4.7-5.2,14.6,2.7,16.1c6.4,1.2,13.1-5.9,10.2-12.2c-1.5-3.3-5.2-4.9-8.7-3.9c-3.7,1.1-6,4.5-7.7,7.8
					c-3.6,7-3.4,16,4.2,20.3c4.9,2.8,11.6-3,8.1-8.1c-0.7-1-1.4-2-2.2-2.8c-0.3-0.3-0.7-0.7-1-1c-0.9-1.1-1.4-0.4-1.3,2.1
					c-2.4,0.3-4.8,0.6-7.2,0.9c3.9,2.8,8.8,4.8,13.5,2.5c4.4-2.1,6.3-6.6,5.2-11.2c-3.3,1.9-6.6,3.9-9.9,5.8c4,5,11.3,12,18.4,9.5
					c8.3-2.9,6.1-12.5,0.8-17c-3.3-2.8-8.8-2-9.9,2.6c-2.6,10.1-5.1,23.1-2,33.4c2.8,9.4,15.5,14,21.7,4.7c2.6-3.9,2.5-9.1,0-13
					c-2.6-4.2-8.3-5.6-11.9-1.8c-7.2,7.5,1.3,19.2,9,21.7C112.8,201.6,115.9,190.1,108.6,187.8L108.6,187.8z"/>
			</g>
		</g>
		<g>
			<g>
				<path class="st1" d="M103,235.2c-3.9-0.2-5.6,3.2-7.9,5.9c-0.8,1-2.1,2.7-3.4,1.9c-2.7-1.6-6.7-0.7-8.1,2.1
					c-1.8,3.4-3.8,6.5-6.3,9.4c-2.2,2.6-2.6,7.7,1.2,9.3c10.8,4.7,23.4,4.7,35,3c4.6-0.7,11.3-1.2,14.7-4.6c4-4,1.5-9.5,0.2-14.1
					c-1.2-4.3-2.5-10.2-8.2-10.3c-5-0.1-7.9,4.7-10.7,8.1c-1.5,1.7-3,3.6-4.7,5c-0.4,0.3-5.1,2.7-5,2c0.5,0.5,0.9,1,1.4,1.4
					c0.3-0.4,0.7-0.8,1-1.1c1-0.6,1.8-1.9,2.8-2.6c1-0.8,2-1.5,3.1-2.2c0.8-0.5,3.2-1,2.1-1.4c-1.2-0.9-2.4-1.8-3.6-2.7
					c-1.1-2.3-0.2-0.6-1.3,0.9c-0.9,1.2-2.5,1.1-1.2,1.9c0.9,1.2,1.8,2.4,2.7,3.6c0.4,1.6,0.3,0,1-1c1-1.5,2.1-1.3,0-2.1
					c-1.2-0.9-2.4-1.8-3.6-2.7c1.1-3.5,0.9-4.5-0.6-2.9c3.1,0.4,6.2,0.8,9.3,1.2c-0.1,1.4,0,1.4,0.5,0c0.8-1,0.7-1.1-0.3-0.3
					c-1.5-0.2-3.1-0.4-4.6-0.6c-0.6-1.1-1.3-2.3-1.9-3.4c1-1.7,2-3.4,2.9-5.1c-0.2,0.1-0.4,0.3-0.5,0.4c-6.2,4.4-0.2,14.8,6,10.3
					c6.4-4.6,2.6-15.1-5.6-12.9c-6.9,1.9-10.2,11.7-6.8,17.6c2.1,3.6,6.4,3.5,9.3,1.2c5.5-4.3,4.8-14.8-3.5-14.8
					c-6.5-0.1-13.8,9.6-13.7,15.7c0,9.3,10.9,8.7,16.4,4.7c4.8-3.5,9.2-11.4,5.9-17.2c-6.8-12-34.1,8.9-27,21
					c3.8,6.5,12.8,6.1,18.6,2.9c2.8-1.5,5.2-3.8,7.4-6.1c1.3-1.4,2.4-2.9,3.6-4.3c0.6-0.7,1.2-1.4,1.8-2.1c1.1-1.2,1.2-1.4,0.3-0.5
					c-1.9-0.5-3.9-1-5.8-1.5c-0.4-1.4-0.4-1.1,0.2,0.8c0.3,1.1,0.6,2.2,0.9,3.3c0.2,0.7,0.9,4.6,1.4,5c3.4-3.7,3.6-4.9,0.6-3.6
					c-0.9,0.2-1.8,0.5-2.6,0.7c-2.1,0.5-4.3,0.9-6.5,1.2c-8,1-18.1,1.4-25.6-1.8c0.4,3.1,0.8,6.2,1.2,9.3c3.2-3.6,5.9-7.5,8.2-11.8
					c-2.7,0.7-5.4,1.4-8.1,2.1c12,7.2,30.5-11.1,19.8-22c-4.5-4.6-12.8-3.2-15,3.1c-2.9,8.2,5.9,12.5,12.5,12.7
					C110.7,247.4,110.6,235.5,103,235.2L103,235.2z"/>
			</g>
		</g>
		<g>
			<g>
				<path class="st1" d="M85.2,198.5c-0.3-1.9-0.1-1.4-1.2-3c-0.5-0.7-1.5-0.8-2.1,0c-1.2,1.8-2.1,3.6-2.8,5.6
					c0.8,0.1,1.6,0.2,2.3,0.3c-0.1-1.3-0.2-2.7-0.3-4c-0.1-1.1-1.7-1.8-2.2-0.6c-1.1,2.4-1.5,4.3-1.2,7c0.1,1.5,2.5,1.5,2.4,0
					c-0.2-1.9-0.5-3.6-1.1-5.4c-0.4-1.3-2.3-1-2.3,0.3c-0.1,4.8-0.3,9.7-0.4,14.5c0,1.5,2.3,1.5,2.4,0c0.3-6.1-0.2-12.1-1.4-18
					c-0.8,0.2-1.5,0.4-2.3,0.6c1,4.1,2,8.3,2,12.6c0,3.5-1,6.9-1.3,10.3c-0.8,7.2,1.5,14.8-1.9,21.6c0.7,0.2,1.5,0.4,2.2,0.6
					c0.1-4.6,0.6-9.1,1.6-13.7c-0.8-0.1-1.6-0.2-2.3-0.3c0.2,9.8-1.7,19.2-5.7,28.2c0.7,0.3,1.5,0.6,2.2,0.9
					c2.7-9.1,5-17.3,10.7-25.1c5.3-7.4,10.7-14.7,15.9-22.2c2.6-3.6,4.9-7.3,6.8-11.3c1.8-3.9,4.4-6.9,7.3-10.1
					c3-3.4,5.9-6.8,8.9-10.2c1.1-1.2,3.6-5.9,4.9-3.2c0.5,1-2,6.2-2.4,7.4c-0.4,1.3,1.5,2.1,2.2,0.9c2.1-3.9,3.5-8,4.3-12.3
					c0.2-1.3-1.5-2.1-2.2-0.9c-3.4,5.9-5,12.3-6.5,18.9c-0.3,1.5,1.8,2.1,2.3,0.6c1.2-3.1,2.4-6.2,3.5-9.3c-0.8-0.2-1.5-0.4-2.3-0.6
					c-0.3,2.1-0.7,4.1-1.3,6.1c-0.4,1.3,1.6,2.1,2.2,0.9c1.2-2.4,2-4.7,2.5-7.3c0.3-1.5-1.8-2.1-2.3-0.6c-1.3,4.1-2.3,8.3-3.1,12.5
					c-0.2,1.4,1.4,2,2.2,0.9c1.7-2.3,2.3-4.4,2-7.2c-0.1-1.2-2.1-1.8-2.3-0.3c-1.4,9.3-2.4,18.8-4.5,28c-1.8,8-1.5,13.9,1.8,21.5
					c0.5,1.2,2.1,0.4,2.2-0.6c0.6-4.9,0.5-9.7-0.2-14.5c-0.8,0.2-1.5,0.4-2.3,0.6c0.8,2.1,1.1,4.1,1,6.3c0.8,0,1.6,0,2.4,0
					c-0.4-4.3-0.8-8.7-1.3-13c-0.8,0.1-1.6,0.2-2.3,0.3c0.4,2.2,0.6,4.2,0.7,6.4c0,1.3,2,1.7,2.3,0.3c0.9-4.2,0.4-8.4,0.4-12.7
					c0.1-5,0.8-9.9,1.4-14.8c0.2-1.4-2-1.6-2.3-0.3c-1.2,4.5-0.6,8.8-0.9,13.3c-0.3,4.9-2.4,9.4-3.1,14.3c-1.4,10.1,2.5,20,6.2,29.2
					c0.7-0.4,1.3-0.8,2-1.2c-1.7-1.6-2.6-3.2-3-5.5c-0.7,0.3-1.5,0.6-2.2,0.9c1,1.1,1.6,2.4,2,3.9c0.5,1.4,2.7,0.9,2.3-0.6
					c-0.4-1.3-0.7-2.7-1.1-4c-0.7,0.3-1.5,0.6-2.2,0.9c0.6,1.4,0.5,1.1,1.5,2.2c0.8,0.8,1.9,0.1,2-0.8c0.2-1.5,0.1-1.5-0.6-2.8
					c-0.6-1.2-2.5-0.4-2.2,0.9c1.6,5.6,3.1,11.3,4.7,16.9c0.4,1.5,2.7,0.8,2.3-0.6c-1.6-5.6-3.1-11.3-4.7-16.9
					c-0.7,0.3-1.5,0.6-2.2,0.9c0.1,0.5,0.2,1,0.2,1.6c0.7-0.3,1.4-0.6,2-0.8c-0.4-0.6-0.8-1.1-1.1-1.7c-0.5-1.3-2.5-0.3-2.2,0.9
					c0.4,1.3,0.7,2.7,1.1,4c0.8-0.2,1.5-0.4,2.3-0.6c-0.6-1.7-1.2-3-2.3-4.4c-0.8-1.1-2.4-0.4-2.2,0.9c0.5,2.7,1.6,4.7,3.6,6.6
					c0.8,0.8,2.5,0,2-1.2c-3.8-9.5-7.9-19.7-5.8-30.1c0.7-3.4,2.1-6.7,2.6-10.2c0.7-5.1-0.4-10.2,1-15.3c-0.8-0.1-1.6-0.2-2.3-0.3
					c-0.6,4.3-1.1,8.6-1.3,13c-0.2,4.6,0.6,9.4-0.4,13.9c0.8,0.1,1.6,0.2,2.3,0.3c-0.1-2.4-0.3-4.7-0.7-7.1c-0.2-1.3-2.5-1-2.3,0.3
					c0.4,4.3,0.8,8.7,1.3,13c0.1,1.5,2.3,1.6,2.4,0c0.1-2.6-0.2-4.6-1.1-7c-0.6-1.4-2.5-0.9-2.3,0.6c0.7,4.7,0.7,9.2,0.1,13.9
					c0.7-0.2,1.5-0.4,2.2-0.6c-1.7-4-3.2-8.1-2.9-12.6c0.3-4.2,1.7-8.4,2.4-12.5c1.3-7.5,2.3-15.1,3.4-22.7
					c-0.8-0.1-1.6-0.2-2.3-0.3c0.2,2.1-0.4,4.3-1.7,6c0.7,0.3,1.5,0.6,2.2,0.9c0.7-4.3,1.7-8.4,3.1-12.5c-0.8-0.2-1.5-0.4-2.3-0.6
					c-0.4,2.4-1.1,4.5-2.3,6.7c0.7,0.3,1.5,0.6,2.2,0.9c0.6-2,1-4,1.3-6.1c0.2-1.5-1.7-2.1-2.3-0.6c-1.2,3.1-2.4,6.2-3.5,9.3
					c0.8,0.2,1.5,0.4,2.3,0.6c1.4-6.4,2.9-12.6,6.2-18.3c-0.7-0.3-1.5-0.6-2.2-0.9c-0.8,4.2-2.1,8-4.1,11.8c0.7,0.3,1.5,0.6,2.2,0.9
					c0.8-2.6,4.3-8.6,2.2-11.4c-1.3-1.7-3-1-4.4,0c-2.1,1.6-3.8,4.3-5.6,6.3c-2.1,2.4-4.2,4.8-6.4,7.3c-3.4,3.9-6.7,7.4-8.9,12.1
					C98,206.5,90.2,215.7,83.5,225c-3.1,4.3-6.7,8.5-8.9,13.4c-2.4,5.3-3.7,11.3-5.4,16.9c-0.4,1.3,1.6,2.2,2.2,0.9
					c4.2-9.4,6.2-19.2,6-29.4c0-1.3-2.1-1.7-2.3-0.3c-1,4.7-1.6,9.5-1.7,14.3c0,1.1,1.7,1.7,2.2,0.6c3.4-6.8,1.6-13.8,2-21.1
					c0.3-4.4,1.6-8.6,1.5-13C79,203.1,78,199,77,195c-0.4-1.5-2.6-0.9-2.3,0.6c1.2,5.8,1.6,11.5,1.4,17.4c0.8,0,1.6,0,2.4,0
					c0.1-4.8,0.3-9.7,0.4-14.5c-0.8,0.1-1.6,0.2-2.3,0.3c0.6,1.5,0.9,3.1,1,4.8c0.8,0,1.6,0,2.4,0c-0.4-2-0.1-3.9,0.9-5.8
					c-0.7-0.2-1.5-0.4-2.2-0.6c0.1,1.3,0.2,2.7,0.3,4c0.1,1.4,1.9,1.6,2.3,0.3c0.7-1.9,1.5-3.3,2.6-5c-0.7,0-1.4,0-2.1,0
					c0.3,0.8,0.7,1.6,1,2.4C83.2,200.7,85.5,200,85.2,198.5L85.2,198.5z"/>
			</g>
		</g>
		<g>
			<g>
				<path class="st1" d="M124.3,187.6c-0.4,0,0.7-1.7,0.8-1.8c0.5-0.5,1.1-0.7,1.5-1.1c0.8-0.7,0.9-2,1.2-3c-0.8,0-1.5,0-2.3,0
					c0.2,0.4,0.2,0.8,0,1.2c-0.8,1.3,1.3,2.5,2.1,1.2c0.5-1,0.7-2,0.3-3c-0.4-1.1-1.9-1.2-2.3,0c-0.1,0.5-0.2,1.4-0.5,1.8
					c-0.3,0.4-0.9,0.6-1.3,1c-0.7,0.6-1.3,1.4-1.6,2.2c-0.7,1.8,0,3.9,2.2,3.9C125.9,190,125.9,187.6,124.3,187.6L124.3,187.6z"/>
			</g>
		</g>
		<g>
			<g>
				<path class="st1" d="M76,257.7c-0.1,0-2.5-1-2.5-0.8c0.2-1.3-1.6-1.4-2.2-0.6c-0.8,1.1-1.7,2.3-2.5,3.4
					c-0.9,1.3,1.1,2.4,2.1,1.2c1-1.3,1.5-2.4,2-3.9c0.4-1.5-1.7-2-2.3-0.6c-1,2.4-3.5,5.6-0.9,7.6c2.8,2.1,8.4,2.1,11.7,2.3
					c1.5,0.1,1.5-2.2,0-2.4c-1.8-0.2-3.6-0.4-5.5-0.6c-1.3-0.2-1.6,2.1-0.3,2.3c11.3,2.4,22.6,3.4,34.1,3c0-0.8,0-1.6,0-2.4
					c-3,0.4-5.9,0.5-8.9,0.4c0.1,0.8,0.2,1.6,0.3,2.3c5.4-1.5,11.3-3.9,16.9-4.2c1.4-0.1,2.5,0,3.9-0.4c2.2-0.7,6.3-4.2,8.1-1.1
					c0.6,1,2.2,0.6,2.2-0.6c0-2-0.4-3-1.7-4.4c-0.8-0.9-2.3,0-2,1.2c1.7,5.7-5.7,5.3-9.6,5.7c-3.3,0.3-6.5,0.6-9.8,1.4
					c-1.3,0.3-1,2.3,0.3,2.3c3.7,0,7.4-0.3,11.1-1.1c2.3-0.5,7-1,8.5-3c1.5-1.8-0.1-4.9-2.3-3.2c-0.5,0.4-0.9,1.1-0.4,1.6
					c1,1.4,2.9,2,3.8,0.3c-0.4,0.9,0.3,2.1,1.3,1.7c0.3-0.1,0.7-0.2,1-0.3c1.5-0.5,0.8-2.8-0.6-2.3c-0.3,0.1-0.7,0.2-1,0.3
					c0.4,0.6,0.9,1.2,1.3,1.7c0.4-0.9,0.5-1.6-0.2-2.4c-0.9-0.9-3.3,0.1-3.6-0.3c-0.1,0.5-0.3,1.1-0.4,1.6c-0.7,0.6-3.5,0.7-4.6,1
					c-1.5,0.4-2.9,0.8-4.4,1.1c-3.2,0.6-6.3,0.8-9.5,0.8c0.1,0.8,0.2,1.6,0.3,2.3c6.4-1.5,13.5-0.7,19.6-3.3
					c3.5-1.5,2.4-3.3,1.4-6.7c-0.7,0.4-1.3,0.8-2,1.2c0.3,0.9,0.7,1.8,1,2.7c0.7-0.2,1.5-0.4,2.2-0.6c-2-3.4-5.4-2.4-8.4-1.2
					c-3.2,1.3-6.3,1.4-9.7,2.2c-4.5,1-9,2.5-13.5,3.7c-1.3,0.4-1,2.3,0.3,2.3c3,0.1,5.9,0,8.9-0.4c1.5-0.2,1.6-2.4,0-2.4
					c-11.3,0.4-22.5-0.6-33.5-2.9c-0.1,0.8-0.2,1.6-0.3,2.3c1.8,0.2,3.6,0.4,5.5,0.6c0-0.8,0-1.6,0-2.4c-2.8-0.2-5.7-0.5-8.4-1.3
					c-1.6-0.5-1.6-0.2-1.8-1.5c-0.1-0.9,1.4-3.4,1.6-4.2c-0.8-0.2-1.5-0.4-2.3-0.6c-0.3,1.3-0.8,2.4-1.7,3.3
					c0.7,0.4,1.4,0.8,2.1,1.2c0.8-1.1,1.7-2.3,2.5-3.4c-0.7-0.2-1.5-0.4-2.2-0.6c-0.3,2.7,2.5,2.4,4.3,3.1
					C76.7,260.6,77.4,258.3,76,257.7L76,257.7z"/>
			</g>
		</g>
		<g>
			<g>
				<path class="st1" d="M125,263.5c0.5-0.1,1-0.1,1.4,0.1c0.2,0.1,0.4,0.3,0.6,0.3c0.1,0,0.1,0.1,0.1,0.1c0.1-0.2,0.1-0.4,0.2-0.6
					l0.1-0.1c0.2-0.1,0.4-0.1,0.6-0.2c-0.2,0-0.5-0.1-0.7-0.2c-0.3-0.1-0.5-0.1-0.8-0.2c-0.6-0.1-1.2-0.1-1.8,0
					c-1.2,0.2-1.1,2,0,2.3c0.9,0.3,1.8,0.1,2.6-0.4c1.3-0.8,0.1-2.8-1.2-2.1c-0.3,0.2-0.5,0.2-0.8,0.1c0,0.8,0,1.5,0,2.3
					c1-0.2,1.8,0.5,2.7,0.5c1.1-0.1,1.8-1.2,1.5-2.2c-0.6-2-3.3-2.5-5.1-2.1C122.9,261.5,123.5,263.8,125,263.5L125,263.5z"/>
			</g>
		</g>
		<g>
			<line class="st2" x1="69.9" y1="166.4" x2="73.9" y2="169.5"/>
			<line class="st2" x1="123.5" y1="113.7" x2="126.1" y2="106.6"/>
			<line class="st2" x1="140.4" y1="204.1" x2="135.8" y2="186.6"/>
			<line class="st2" x1="147.8" y1="263.7" x2="146.9" y2="257"/>
			<line class="st2" x1="129" y1="255.8" x2="132.5" y2="262.5"/>
			<line class="st2" x1="70.6" y1="112.1" x2="72.8" y2="106.9"/>
			<line class="st2" x1="77.8" y1="114.2" x2="73.7" y2="107"/>
			<line class="st2" x1="67.2" y1="112.2" x2="73.7" y2="107"/>
			<line class="st2" x1="62.8" y1="110.6" x2="61.4" y2="112.6"/>
			<g>
				<g>
					<g>
						<path class="st1" d="M49.2,191.6c0,3.4-0.8,6.2-2.5,9.1c1.8,0.2,3.6,0.5,5.4,0.7c-1.2-6.8,1.3-14.9,2.3-21.6
							c1-6.7,2-13.3,3-20c0.6-3.7-4.7-5.4-5.7-1.6c-0.2,0.7-0.4,1.4-0.6,2.2c1.9,0.5,3.8,1.1,5.7,1.6c0.4-2.9,0.9-5.8,1.3-8.7
							c0.6-3.7-4.5-5.3-5.7-1.6c-0.5,1.5-1,3-1.5,4.5c1.9,0.5,3.8,1.1,5.7,1.6c1.4-4.4,2.4-8.9,3-13.4c0.4-3-3.8-5.6-5.4-2.3
							c-1,2.1-1.5,3.8-1.4,6.1c0.1,2.4,3.3,4.1,5.1,2.1c3.9-4.4,6.6-9.2,8.2-14.8c-1.9-0.5-3.8-1.1-5.7-1.6
							c-0.5,2.9-1.8,4.6-4.5,5.8c1.5,0.9,3,1.7,4.5,2.6c-0.2-2-0.5-3.9-1-5.9c-0.8-3.8-6.5-2.2-5.7,1.6c0.4,2,0.4,3.6,0.2,5.6
							c-0.3,3.3,5.3,4.1,5.8,0.8c0.5-3.4,0.7-6.5,0.3-9.9c-0.3-3-5.3-4.4-5.8-0.8c-0.1,0.7-0.2,1.3-0.3,2c1.9,0.3,3.9,0.5,5.8,0.8
							c0.3-6.3,1-17.7,7.8-20.7c3.1-1.3,0.8-6.7-2.3-5.4c-0.8,0.3-1.6,0.6-2.4,1c1,1.7,1.9,3.3,2.9,5c2.1-2.2,4.2-4.2,7.7-3.1
							c1.4,0.4,3,1.7,4.3,2.3c3.2,1.4,6.6,2.3,10.1,2.8c7,1.1,14.8,1.7,21.8,0.6c3.8-0.6,7.4-2,10.9-3.6c0.9-0.4,3.8-2.4,4.8-2.4
							c3.1,0,0.2,3.3-0.6,4.9c-1.9,3.7-4,7.4-6.1,11c-0.9,1.5-1.9,3.1-2.9,4.6c-0.1,0.2-4.8,7-1.7,6c-1.2-1.2-2.4-2.4-3.7-3.7
							c-0.6,1.4-1.4,2.7-2.4,3.9c-0.2,0.2-3.9,3.3-1,3.1c-0.9-0.5-1.7-1-2.6-1.5c0.8,1.5-4,5.7-4.8,6.3c1.5,0.6,2.9,1.2,4.4,1.8
							c0.6-1,1.2-1.9,1.7-2.9c-1.3-1-2.5-1.9-3.8-2.9c-0.8,2-1.1,4.1-0.7,6.2c0.2-1.5,0.8-2.8,2-3.7c-1.6-1.2-3.1-2.4-4.7-3.6
							c-0.7,1-2-2-2.2-2.4c-1-1.4-2.3-2.4-3.9-3.1c-3.9-1.8-8.3-1-12.5-1.8c-2.3-0.4-4.9,2-3.4,4.4c1.6,2.4,3.2,3.6,5.9,4.6
							c0.3-1.9,0.5-3.9,0.8-5.8c-4.3,0.4-8.5,0.9-12.8,1.3c1,1,2,2,3,3c0,1.8,0.8,0.6,1.4-0.6c0.5-1,0.5-2.4,0.2-3.5
							c-0.8-2.2-3.2-3.4-5.5-3.2c-6.7,0.4-9.7,10.9-11.1,16.1c1.9,0.3,3.9,0.5,5.8,0.8c0.3-3,1.4-5.3,3.1-7.7
							c-1.8-0.8-3.6-1.5-5.4-2.3c-2.9,7.1-4.6,14.4-5.4,22c2,0,4,0,6,0c-0.2-2.1-0.2-4,0.1-6.1c0.4-3.3-5.1-4-5.8-0.8
							c-0.6,2.4-1.1,4.7-1.7,7.1c1.9,0.3,3.9,0.5,5.8,0.8c0.6-8.1,1.8-16.1,3.6-24.1c-1.9-0.5-3.8-1.1-5.7-1.6
							c-0.3,2.4-0.9,4.5-1.8,6.8c1.9,0,3.8,0,5.7,0c-0.6-4.6,2-9.7,3.7-13.8c1.9-4.7,4.1-9.3,6.3-13.9c1.7-3.4-3-6.2-5.1-3
							c-3.3,4.9-6.5,9.9-9.8,14.8c1.7,1,3.4,2,5.1,3c2.8-6.3,6.5-11.8,11.4-16.7c2.3-2.3-0.7-6.5-3.6-4.7c-3.6,2.4-6.6,4.8-8.1,9
							c-1.1,3.2,3.8,5.2,5.4,2.3c4.9-8.4,15.2-3.3,22.5-1.2c0.3-1.9,0.5-3.9,0.8-5.8c-5.7,0.5-14.5,0.7-19,4.8
							c-1.6,1.5-2.3,3.6-2.5,5.7c-0.1,1.5,0.1,2.9,0.1,4.4c0,1.4-0.1,2.7-0.3,4.1c0.6-4-0.1-4.5-2.1-1.4c0.9,0.5,1.7,1,2.6,1.5
							c-0.3-0.6,0.8-2.9,1-3.4c1.5-3.5-4.3-5.1-5.7-1.6c-1.1,2.6-2.4,7.2,0.7,9.1c3.6,2.1,6.9-1.8,8.5-4.5c4.3-7-3.7-11.2-8.4-5.2
							c-3.5,4.4,0.6,15.9,6.9,11.8c3.3-2.1,2.8-8.6,2.8-11.9c0-0.9-0.4-2.5,0-3.3c0.8-1.5,2.8-1.8,4.2-2.2c3.7-1,7.4-1.5,11.2-1.8
							c3.2-0.3,4.2-4.9,0.8-5.8c-10.4-3-22.4-7.7-29.2,3.9c1.8,0.8,3.6,1.5,5.4,2.3c0.9-2.7,3.1-4,5.3-5.4c-1.2-1.6-2.4-3.1-3.6-4.7
							c-5.2,5.2-9.3,11.1-12.3,17.9c-1.5,3.5,3,6.3,5.1,3c3.3-4.9,6.5-9.9,9.8-14.8c-1.7-1-3.4-2-5.1-3c-2.7,5.6-5.4,11.3-7.6,17.1
							c-2,5.1-3.7,9.8-3,15.3c0.4,3.3,4.8,2.4,5.7,0c0.9-2.2,1.4-4.4,1.8-6.8c0.5-3.7-4.9-5.4-5.7-1.6c-1.9,8.5-3.1,17-3.8,25.6
							c-0.3,3.4,5.1,4,5.8,0.8c0.6-2.4,1.1-4.7,1.7-7.1c-1.9-0.3-3.9-0.5-5.8-0.8c-0.3,2.1-0.3,4-0.1,6.1c0.4,3.8,5.5,3.8,6,0
							c0.8-7.1,2.5-13.8,5.2-20.4c1.3-3.3-3.6-4.8-5.4-2.3c-2.4,3.3-3.5,6.7-3.9,10.7c-0.4,3.4,5,3.9,5.8,0.8
							c1.2-4.2,3.6-7.9,4.8-12c1.2-4.3-1.5,0-1.4,1.6c0,1.5,1.3,3.1,3,3c4.3-0.4,8.5-0.9,12.8-1.3c3.3-0.3,4.1-4.7,0.8-5.8
							c-0.8-0.6-1.6-1.2-2.4-1.8c-1.1,1.5-2.2,2.9-3.4,4.4c3.3,0.6,6.8,0.1,9.9,0.9c4,1,3,3.9,5.5,6.3c3.5,3.3,7.7,0.4,9.9-2.6
							c2-2.8-2.3-5.9-4.7-3.6c-2.7,2.6-6.5,10-1.2,12.2c5.8,2.4,9.6-6.2,10-10.5c0.2-1.9-2-3.4-3.8-2.9c-4.6,1.5-6.9,5.5-5.9,10.2
							c0.4,1.8,2.9,2.9,4.4,1.8c3.9-2.8,9.9-9.2,7-14.4c-0.5-0.9-1.6-1.5-2.6-1.5c-4.8,0.3-9.1,7.7-3.8,10.6
							c5.5,3.1,11.3-6.1,13-10.1c0.9-2.1-1.7-4.3-3.7-3.7c-9,3-1.8,16.2,4.4,8.7c4.9-5.9,8.6-13.2,12.2-20c2-3.8,5.8-9.3,2.9-13.5
							c-3.2-4.8-9-1.3-12.8,0.5c-7.7,3.7-14.6,4.2-23,3.8c-7.9-0.4-13.9-2.2-20.8-5.7c-5-2.6-10.4,1.1-13.8,4.7c-1.9,2,0,6.2,2.9,5
							c0.8-0.3,1.6-0.6,2.4-1c-0.8-1.8-1.5-3.6-2.3-5.4c-9.1,3.9-10.3,17.3-10.8,25.8c-0.2,3.3,5.3,4.1,5.8,0.8
							c0.1-0.7,0.2-1.3,0.3-2c-1.9-0.3-3.9-0.5-5.8-0.8c0.3,2.8,0.3,5.5-0.1,8.4c1.9,0.3,3.9,0.5,5.8,0.8c0.2-2.5,0-4.8-0.5-7.2
							c-1.9,0.5-3.8,1.1-5.7,1.6c0.3,1.4,0.6,2.8,0.8,4.3c0.3,2.4,2.3,3.5,4.5,2.6c4-1.7,6.5-5,7.2-9.3c0.6-3.7-4.7-5.4-5.7-1.6
							c-1.3,4.6-3.4,8.6-6.6,12.2c1.7,0.7,3.4,1.4,5.1,2.1c0.2-1,0.4-2.1,0.6-3.1c-1.8-0.8-3.6-1.5-5.4-2.3c-0.7,4.6-1.7,9-3,13.4
							c-1.1,3.7,4.6,5.2,5.7,1.6c0.5-1.5,1-3,1.5-4.5c-1.9-0.5-3.8-1.1-5.7-1.6c-0.4,2.9-0.9,5.8-1.3,8.7c-0.6,3.7,4.7,5.4,5.7,1.6
							c0.2-0.7,0.4-1.4,0.6-2.2c-1.9-0.5-3.8-1.1-5.7-1.6c-1.2,7.9-2.4,15.8-3.6,23.8c-1,6.9-3,14.1-1.7,21c0.5,2.6,4.2,2.8,5.4,0.7
							c2.2-3.8,3.3-7.7,3.3-12.1C55.2,187.8,49.2,187.8,49.2,191.6L49.2,191.6z"/>
					</g>
				</g>
				<g>
					<g>
						<path class="st1" d="M53.9,169.2c0.2,0.2,0.3,0.3,0.1,0.1c-0.1-0.2-0.1-0.1,0.1,0.2c-0.1-0.3-0.1-0.3-0.1-0.1
							c0,0.1,0.1,0.3,0.1,0.4c0.1,0.5,0.2,1,0.3,1.5c0.4,1.6,1.2,3.2,3,3.7c3.4,0.9,5.7-3.9,6.2-6.5c0.3-1.6-0.5-3.2-2.1-3.7
							c-1.5-0.4-3.3,0.5-3.7,2.1c-0.3,1.4-0.6,2.2-1.6,3c0.4-0.3,0.9-0.5,1.3-0.8c-0.1,0-0.2,0.1-0.2,0.1c0.5,0,1.1,0,1.6,0
							c-0.1,0-0.1,0-0.2-0.1c0.4,0.3,0.9,0.5,1.3,0.8c0.1,0.1,0.3,0.6,0.2,0.3c0-0.2-0.1-0.5-0.2-0.7c-0.1-0.5-0.2-0.9-0.3-1.4
							c-0.3-1.2-0.9-2.3-1.8-3.2c-1.1-1.1-3.1-1.1-4.2,0C52.7,166.2,52.7,168.1,53.9,169.2L53.9,169.2z"/>
					</g>
				</g>
				<g>
					<g>
						<path class="st1" d="M61.9,167.7c0,0.1-0.1,0.3-0.1,0.4c1-0.7,1.9-1.5,2.9-2.2c-0.2,0-0.3,0-0.5,0c0.9,0.5,1.7,1,2.6,1.5
							c0.2,1.1,0.3,0.6,0.2-1.4c0.1-1.2,0.1-2.5,0.2-3.7c0.1-2.8-4.4-4.3-5.5-1.5c-0.5,1.2-1,2.1-1.8,3.1c1.8,0.2,3.6,0.5,5.4,0.7
							c-0.6-1.6-0.7-3.2-0.2-4.9c0.7-3.7-4.9-5.3-5.7-1.6c-0.2,1.1-0.5,2.2-0.7,3.3c-0.7,3,2.7,4.8,5,2.9c0.4-0.3,0.8-0.7,1.2-1
							c-1.7-0.7-3.4-1.4-5.1-2.1c-0.1,2.5-0.4,4.9-1.1,7.3c-0.9,3.3,3.6,5.1,5.4,2.3c0.9-1.5,1.8-2.9,2.8-4.4
							c-1.8-0.5-3.7-1-5.5-1.5c-0.1,1.4-0.3,2.8-0.4,4.2c-0.2,2.6,3.4,4,5.1,2.1c1-1.1,2.1-2.3,3.1-3.4c-1.7-1-3.3-1.9-5-2.9
							c-3,7.7-6.9,15-11.3,21.9c1.8,0.5,3.7,1,5.5,1.5c0.3-3.3,1-6.4,1.9-9.6c1.1-3.7-4.4-5.1-5.7-1.6c-1,2.5-1.9,5-2.9,7.5
							c1.9,0.5,3.8,1.1,5.7,1.6c0.6-3.7,1.5-7.2,3.1-10.7c-1.8-0.8-3.6-1.5-5.4-2.3c-0.3,1.3-0.7,2.5-1,3.8c1.9,0,3.8,0,5.7,0
							c-0.5-1-0.7-2.1-0.6-3.3c-1.9,0.3-3.9,0.5-5.8,0.8c0.8,1.9,1.2,3.5,0.9,5.6c-0.5,3.7,4.9,5.4,5.7,1.6c0.4-1.7,0.8-3.1,1.7-4.5
							c-1.8-0.5-3.7-1-5.5-1.5c-0.1,3.1-1.7,12,4.3,11c5.1-0.9,6.6-11.6,7.5-15.4c-1.9-0.3-3.9-0.5-5.8-0.8c0,0.7-0.1,1.4-0.1,2.1
							c-0.1,2.8,4.3,4.2,5.5,1.5c0.7-1.6,1-2.5,1.1-4.4c0.2-3.4-5-4-5.8-0.8c-2.9,10.6-6.6,21-11.2,31c-1.1,2.5,1.3,5.7,4.1,4.1
							c0.2-0.1,0.3-0.2,0.5-0.3c-1,0-2,0-3,0c3.7,1.6,6.7,1.3,8.1-3.2c2.2-7.2,3.1-14.5,5.9-21.5c-1.9-0.5-3.8-1.1-5.7-1.6
							c-2.1,6.5-5.2,13.3-5.3,20.2c0,2.9,4.1,4.1,5.5,1.5c1.8-3.4,3.4-7.5,2.5-11.4c-0.7-3.1-1.9-5.2-1.3-8.6c0.6-3.3,1.9-6.5,3-9.7
							c2-5.5,3.4-10.9,4.4-16.7c0.9-5.9,1.9-11.8,4.9-17.1c-1.8-0.8-3.6-1.5-5.4-2.3c-1.4,3.5-3.1,6.7-5,9.9c1.8,0.5,3.7,1,5.5,1.5
							c-0.1-6.9,1.6-13.2,5.1-19.2c1.5-2.5-1.5-5.7-4.1-4.1c-0.6,0.4-1.2,0.8-1.7,1.1c1.5,0.6,2.9,1.2,4.4,1.8
							c-0.5-1.2-0.7-2.5-0.7-3.8c-0.1-2.4-2.4-3.5-4.5-2.6c-2.2,1-3.9,2.3-5.7,3.9c1.6,0.2,3.1,0.4,4.7,0.6
							c-1.3-2.3-2.9-3.3-5.5-2.8c1,1.7,1.9,3.3,2.9,5c1.6-1.8,5.7-5.5,7.4-2.5c0.9,1.6,0.8,7-1.2,8c1,0,2,0,3,0c1,0.6,2,0.4,2.8-0.4
							c0.2,1.4,0,2.9-0.5,4.2c-1.6,4.5,0.1,1.6,1.5,0.1c1.3-2,2.5-1.8,3.5,0.7c-1.8,1.1-1.9,0.6-0.5-1.5c0.8-1.5,2.7-4.4,4.4-4.7
							c3.8-0.7,2.2,2.7,1,4.5c-0.7,1-1.5,1.9-2.4,2.7c-1.9,0.7-2.3,1.3-1,1.8c1,0.9,1.3,0.3,0.9-1.6c0.3-1.2,0.7-2.2,1.4-3.2
							c0.8-1.2,1.8-2.1,3-2.9c-1.4,0.7-2.3-0.1-2.5-2.1c1.7-1.5,0.8-4.4-1.3-5c-1.1-0.3-2.2-0.6-3.4-0.9c0.2,1.8,0.5,3.6,0.7,5.4
							c12.6-5.9,27-3.4,40.5-3.9c-0.3-1.9-0.5-3.9-0.8-5.8c-6,1.5-12,3.1-18.2,2.5c-2.6-0.2-5.1-0.8-7.7-0.9c-2.8-0.1-5.9,0.9-8.6,0
							c-0.5,1.9-1.1,3.8-1.6,5.7c7.7,1.3,14.1,0,21.3-3.1c3.8-1.7,7.5-1.5,11.5-2.3c4.1-0.8,7.9-2.6,11.6-4.4
							c-1.2-1.6-2.4-3.1-3.6-4.7c-6.4,7.3-12.8,14.6-19.2,21.9c-2.6,3-5.2,6-7.9,8.8c-1.5,1.5-3,3-4.6,4.4c-0.5,0.4-4.5,4-5.3,3.7
							c0.7,0.7,1.4,1.4,2.1,2.1c-1.1-2.7,4.9-8.7,6.4-10.1c2.8-2.6,6.1-4.7,9.3-6.8c-1.5-1.1-2.9-2.2-4.4-3.4
							c-0.7,3.5-5.7,7.2-8.1,9.7c-2.6,2.7-5.2,5.2-7.9,7.8c1.6,1.2,3.1,2.4,4.7,3.6c3.6-8,8.2-15.1,14.2-21.4c2.6-2.8-1.6-7-4.2-4.2
							c-3.4,3.6-7.1,6.5-11.3,9c1.5,1.1,2.9,2.2,4.4,3.4c0.7-3.4,2.2-6,5.1-8c-1.5-1.1-2.9-2.2-4.4-3.4c-0.2,1.5-0.7,2.7-1.6,4
							c-0.2,0.3-2.5,2.8-2.5,2.9c0.3,1.2,3.7-2.1,3.9-2.3c1.3-1.4,2.9-2.4,4.7-3.1c-1.1-1.5-2.2-2.9-3.4-4.4
							c-0.7,0.7-1.5,1.4-2.2,2.1c0.8,1.8,1.5,3.6,2.3,5.4c4.1-2.5,11.7-4.9,16.1-1.5c-0.5-1.1-0.9-2.2-1.4-3.4
							c-0.3,0.9-3.4,4.8-3.5,4.9c2.6-2.4,2.8-3.1,0.5-2c1.4,1,2.6,0.7,3.3-0.9c1.2-0.9,3.6-2.1,5.2-2c3.6,0.2,2.9,4.2,2.1,6.6
							c-1.2,3.6,4.6,5.2,5.7,1.6c1.4-4.3,1-11-3.6-13.5c-3.7-2-9.3,0.1-12.5,2.2c-3,1.9-6.5,6.4-4.4,10.1c2.3,4.1,7.4,1.5,9.8-1.2
							s2.6-7.5-1-9.3c-4.1-2-8.9,2-10.4,5.6c-1.5,3.5-0.6,8.6,4.1,8.9c4.5,0.2,9.4-5.4,10.4-9.4c0.4-1.4-0.3-2.5-1.4-3.4
							c-6-4.6-16.3-2-22.1,1.5c-2.8,1.7-1,6.6,2.3,5.4c2.7-0.9,4.5-2.3,5.8-4.9c1.1-2.1-0.8-5.4-3.4-4.4c-4.6,1.8-15.3,9.6-9.9,15.6
							c5.2,5.9,12.1-5.4,12.8-9.8c0.3-2.3-2-5-4.4-3.4c-4.1,2.9-6.8,6.6-7.8,11.6c-0.5,2.5,2,4.7,4.4,3.4c4.7-2.7,8.8-6,12.5-10
							c-1.4-1.4-2.8-2.8-4.2-4.2c-6.3,6.7-11.4,14.2-15.2,22.6c-1.3,3,2.1,6.1,4.7,3.6c3.6-3.4,7.1-6.9,10.5-10.5
							c2.7-2.8,6.3-5.7,7.1-9.6c0.5-2.4-2.1-4.9-4.4-3.4c-7.3,5.2-14.3,10-17.7,17.7c-1.9,4.4-1.7,11.2,4.9,8.4
							c7.4-3.1,13.2-10.8,18.4-16.6c6.8-7.8,13.7-15.6,20.5-23.4c2.3-2.6-0.5-6.1-3.6-4.7c-3.8,1.8-7.6,3.5-11.8,4
							c-2.6,0.3-5.1,0.3-7.7,1.1c-7.1,2.3-12.4,5.4-20.3,4c-3.8-0.6-5.2,4.4-1.6,5.7c2.9,1.1,5.5,0.3,8.5,0.2c3.1-0.1,6.2,0.7,9.4,1
							c6.7,0.6,13.3-1,19.8-2.7c3.2-0.8,2.6-6-0.8-5.8c-14.8,0.5-29.7-1.8-43.5,4.7c-2.4,1.1-1.6,4.8,0.7,5.4
							c1.1,0.3,2.2,0.6,3.4,0.9c-0.4-1.7-0.9-3.3-1.3-5c-7.3,6.6,2.8,17.6,10.1,10.6c2.6-2.5,3.6-7.2,0.4-9.7
							c-3.7-2.9-8.6,1.1-10.9,3.9c-2.4,3-4.8,8.5-2.9,12.3c2.3,4.8,7.1,2.2,10-0.6c3.3-3.1,6.8-8.3,5.9-13c-0.9-4.9-5.5-6.4-9.8-4.6
							s-7.8,5.5-9.5,9.8c-1.4,3.7-1.7,9.7,3.5,10.4c10.1,1.4,14.1-18.2,2.3-16.6c-4.3,0.6-8,4.1-9.6,8c-1.4,3.6-0.3,9.3,4.7,8.7
							c8.2-0.9,11-20.3,0.2-19c-3.8,0.5-9,5.1-7.1,9.2c2.4,5.4,7.3,1.2,8.8-2.3c1.8-4.3,1.9-11.6-2.2-14.8
							c-4.6-3.6-11.5,0.9-14.7,4.5c-2.1,2.3,0,5.5,2.9,5c0.3,0,0.6-0.1,0.8-0.1c-1-0.3-1.9-0.5-2.9-0.8c0.3,0.3,0.6,0.7,0.9,1
							c1,1.7,3.3,1.9,4.7,0.6c1.4-1.3,2.7-2.2,4.5-3c-1.5-0.9-3-1.7-4.5-2.6c0.1,1.9,0.4,3.6,0.9,5.4s2.7,2.9,4.4,1.8
							c0.6-0.4,1.2-0.8,1.7-1.1c-1.4-1.4-2.7-2.7-4.1-4.1c-4.1,6.8-6.1,14.2-6,22.2c0.1,3,4,4,5.5,1.5c2.2-3.6,4.1-7.3,5.6-11.3
							c1.3-3.2-3.8-5.1-5.4-2.3c-5.7,9.7-5,21.3-8.6,31.7c-1.8,5.3-4.4,10.7-4.7,16.4c-0.2,2.5,0.4,4.3,1.1,6.7
							c1,3.3,0.4,5.6-1.2,8.6c1.8,0.5,3.7,1,5.5,1.5c0.1-6.2,3.2-12.8,5.1-18.6c1.2-3.7-4.4-5.1-5.7-1.6c-2.1,5.4-3.8,10.9-4.9,16.5
							c-0.2,0.9-0.9,2.7-0.7,3.6c-0.5,0.9-0.1,1.4,1.1,1.3c-0.2-0.1-0.5-0.2-0.7-0.3c-1.4-0.1-2.1-0.6-3.5,0.3
							c1.4,1.4,2.7,2.7,4.1,4.1c4.7-10.5,8.7-21.3,11.8-32.4c-1.9-0.3-3.9-0.5-5.8-0.8c-0.1,0.4-0.2,0.9-0.3,1.3
							c1.8,0.5,3.7,1,5.5,1.5c0-0.7,0.1-1.4,0.1-2.1c0.1-3.4-5-4-5.8-0.8c-0.2,0.8-3.2,11-2.9,11c0.9,0.5,1.7,1,2.6,1.5
							c-0.4-0.7,0.2-5.1,0.2-6.5c0.1-2.9-4.1-4.1-5.5-1.5c-1.1,1.9-1.8,3.8-2.3,6c1.9,0.5,3.8,1.1,5.7,1.6c0.4-3.2,0.3-5.8-0.9-8.8
							c-1.2-2.9-5.9-2.8-5.8,0.8c0,1.7,0.3,3.2,0.8,4.8c0.9,2.7,5,3,5.7,0c0.3-1.3,0.7-2.5,1-3.8c0.8-3.1-4-5.5-5.4-2.3
							c-1.7,3.9-3,7.9-3.7,12.1c-0.6,3.8,4.4,5.2,5.7,1.6c1-2.5,1.9-5,2.9-7.5c-1.9-0.5-3.8-1.1-5.7-1.6c-1.1,3.7-1.7,7.3-2.1,11.2
							c-0.3,3.1,4.1,3.8,5.5,1.5c4.8-7.4,8.7-15.2,11.9-23.3c1.1-2.8-3.1-5-5-2.9c-1,1.1-2.1,2.3-3.1,3.4c1.7,0.7,3.4,1.4,5.1,2.1
							c0.1-1.4,0.3-2.8,0.4-4.2c0.3-3.1-4.1-3.8-5.5-1.5c-0.9,1.5-1.8,2.9-2.8,4.4c1.8,0.8,3.6,1.5,5.4,2.3c0.8-3,1.2-5.9,1.3-8.9
							c0.1-2.8-3.2-3.7-5.1-2.1c-0.4,0.3-0.8,0.7-1.2,1c1.7,1,3.3,1.9,5,2.9c0.2-1.1,0.5-2.2,0.7-3.3c-1.9-0.5-3.8-1.1-5.7-1.6
							c-0.6,2.8-0.5,5.3,0.2,8s4,2.7,5.4,0.7c0.7-1,1.3-2,1.8-3.1c-1.8-0.5-3.7-1-5.5-1.5c-0.1,2.6-0.9,5.8,0.4,8.2
							c0.5,0.8,1.6,1.6,2.6,1.5c0.2,0,0.3,0,0.5,0c1.3-0.1,2.6-0.8,2.9-2.2c0-0.1,0.1-0.3,0.1-0.4C68.4,165.5,62.7,163.9,61.9,167.7
							L61.9,167.7z"/>
					</g>
				</g>
				<g>
					<g>
						<path class="st1" d="M119,132c-0.5,0.8-1,1.5-1.7,2.1c1.2-0.2,2.4-0.3,3.6-0.5c0,0-0.9-3.5-0.8-3.5c-1.1-3.7-6.5-2.2-5.7,1.6
							c0.6,2.6,1,5.1,1.3,7.7c1.8-0.5,3.7-1,5.5-1.5c-1.1-2.4-1.8-4.8-2.3-7.4c-1.8,0.8-3.6,1.5-5.4,2.3c1,2.2,1.2,4.2,0.9,6.6
							c1.5-0.9,3-1.7,4.5-2.6c-2-1.5-3.2-3.3-4.3-5.6c-1.7,1-3.4,2-5.1,3c1.5,3,3.2,5.8,5.2,8.5c1.8,2.5,5.2,1.5,5.5-1.5
							c0.5-4.3,0.9-8.5,1.4-12.8c-1.8,0.5-3.7,1-5.5,1.5c2.8,4.7,4,10.6,5.7,15.8c1,3,6.1,2.7,5.8-0.8c-0.2-4.1-0.5-8.3-0.7-12.4
							c-1.9,0.3-3.9,0.5-5.8,0.8c1.6,3.9,2.4,7.8,2.4,12c1.9-0.3,3.9-0.5,5.8-0.8c-1.3-3.7-2.9-9.2-1.3-13c-1,0.7-1.9,1.5-2.9,2.2
							c-0.4,0,4.4,15,5.3,16.5c1.9,3.1,5.9,0.9,5.4-2.3c-0.6-3.9-1.2-7.7-1.7-11.6c-1.9,0.5-3.8,1.1-5.7,1.6
							c1.6,4.2,3.2,8.4,4.7,12.5c1.3,3.5,6.8,2.2,5.7-1.6c-1.6-6-3.2-12-4.8-18c-0.8-3-4.8-2.6-5.7,0c-0.5,1.3-0.9,2.6-1.4,3.9
							c1.8-0.2,3.6-0.5,5.4-0.7c-2.9-6.7,1-10.8,2.6-16.9c0.9-3.3,0.2-6.5-2.1-9c-0.7,1.7-1.4,3.4-2.1,5.1c5.8,0.3,6.6,7.4,7.3,11.8
							c0.5,3.5,5.6,2.3,5.8-0.8c0.1-1.7,0-3.2-0.4-4.9c-1.9,0.5-3.8,1.1-5.7,1.6c1.2,5.1,1.9,10.1,2,15.3c0.1,3.2,5.3,4.2,5.8,0.8
							c0.5-3.3,0.5-6.2,0-9.5c-0.6-3.4-5.8-2.4-5.8,0.8c-0.1,4.4-0.2,8.8-0.3,13.2c-0.1,2.8,4.3,4.3,5.5,1.5
							c4.7-10.6-7.2-13.2-12.3-19.6c-1.4-1.7-4.6-0.8-5,1.3c-0.3,1.6-0.3,2.5,0.1,4.1c0.5,2,3.5,3.1,5,1.3c3.2-4,2.4-8.5,4.5-13
							c-1.8-0.2-3.6-0.5-5.4-0.7c2.4,6.2,0.5,13,3.8,19c1.3,2.4,5.9,1.5,5.5-1.5c-0.2-1-0.2-2-0.1-3c0.6-3.7-4.5-5.3-5.7-1.6
							c-1.9,5.6-1.3,11.1,1.2,16.4c1.4,3,6.6,0.9,5.4-2.3c-0.7-1.9-1.5-3.9-2.2-5.8c-1.3-3.5-6.6-2.2-5.7,1.6
							c1.5,6.6,2.9,13.2,4,19.8c0.5,3,5,2.6,5.7,0c1.4-5,1.6-9.7,0.8-14.8c-1.9,0.5-3.8,1.1-5.7,1.6c0.4,1.9,0.9,3.8,1.3,5.8
							c0.8,3.4,5.6,2.4,5.8-0.8c0.2-2.5,0.3-5.1,0.3-7.6c-1.9,0.3-3.9,0.5-5.8,0.8c1.1,4.7,1.4,9.2,1,14c-0.3,3.3,5.3,4.1,5.8,0.8
							c0.4-2.3,0.5-4.4,0.2-6.8c-1.9,0.3-3.9,0.5-5.8,0.8c0.3,1.7,0.6,3.3,0.9,5c0.6,3.3,6,2.6,5.8-0.8c-0.2-4-0.7-7.8-1.5-11.7
							c-0.8-3.8-6.2-2.1-5.7,1.6c0.7,5.3-0.2,10.8,0.1,16.2c0.3,4.7,1,9.4,0.4,14.1c-0.6,4.3-2.2,8.1-1.7,12.5
							c0.5,4.3,2.4,8.4,0.8,12.8c1.7-0.4,3.3-0.9,5-1.3c-1.8-2.2-2-5.5-2.5-8.1c-0.6-3.1-1.3-6.2-1.9-9.3
							c-1.3-5.9-2.8-11.7-4.4-17.6c-1.9,0.5-3.8,1.1-5.7,1.6c1.4,3.4,3.2,6.3,5.7,9c2,2.1,6-0.1,5-2.9c-1.3-3.7-1.7-7.2-1.3-11.1
							c-1.9,0.3-3.9,0.5-5.8,0.8c1.7,5.4,3.3,10.9,4.7,16.4c1.9-0.5,3.8-1.1,5.7-1.6c-2.1-5.5-3.7-10.9-3.1-16.8
							c-1.9,0.3-3.9,0.5-5.8,0.8c1.4,4.9,2.1,9.8,2.3,14.9c2,0,4,0,6,0c-0.4-4.7-0.8-9.3-1.2-14c-0.3-3.8-6-3.9-6,0
							c0.1,5.8,0.2,11.6,0.3,17.4c1.5-0.9,3-1.7,4.5-2.6c-3.7-2.3-2.7-9-6.6-12c-2.9-2.3-7,1.4-4.2,4.2c2.6,2.6,2.9,6,3.8,9.3
							c0.6,2.3,3.4,6.2,3.3,8.4c0.5-0.9,1-1.7,1.5-2.6c-0.2,0.1-0.4,0.2-0.6,0.3c1,0,2,0,3,0c-0.9-0.4-1.9-2.9-2.4-3.7
							c-1.7-3-6.2-0.9-5.4,2.3c0.1,0.3,0.2,0.7,0.2,1c1.9-0.5,3.8-1.1,5.7-1.6c-0.6-2.7-1.3-5.4-1.9-8.2c-0.9-3.7-6.6-2.1-5.7,1.6
							c0.6,2.7,1.3,5.4,1.9,8.2c0.9,3.7,6.6,2.1,5.7-1.6c-0.1-0.3-0.2-0.7-0.2-1c-1.8,0.8-3.6,1.5-5.4,2.3c1.8,3.2,3.8,7.8,8.1,5.6
							c0.9-0.5,1.4-1.6,1.5-2.6c0.1-3.9-3-7.7-3.9-11.4c-1-4-2-7.6-5-10.6c-1.4,1.4-2.8,2.8-4.2,4.2c4.2,3.3,2.7,9.8,7.8,12.9
							c1.9,1.2,4.5-0.4,4.5-2.6c-0.1-5.8-0.2-11.6-0.3-17.4c-2,0-4,0-6,0c0.4,4.7,0.8,9.3,1.2,14c0.3,3.8,6.1,3.9,6,0
							c-0.2-5.6-1-11.1-2.5-16.5c-1-3.4-5.5-2.4-5.8,0.8c-0.7,6.4,1,12.4,3.3,18.4c1.3,3.5,6.7,2.2,5.7-1.6c-1.4-5.5-3-11-4.7-16.4
							c-1.1-3.4-5.5-2.4-5.8,0.8c-0.5,4.4,0,8.5,1.5,12.7c1.7-1,3.3-1.9,5-2.9c-1.8-1.9-3.1-3.9-4.1-6.3c-1.4-3.4-6.8-2.2-5.7,1.6
							c1.9,7.1,3.7,14.2,5.2,21.3c1.2,5.6,1.4,11.8,5.2,16.3c1.6,1.9,4.3,0.6,5-1.3c1.4-3.8,0.8-7.4,0-11.2c-0.7-3.2-1-5.8-0.3-9
							c0.5-2.4,1.2-4.6,1.4-7.1c0.5-5.2-0.4-10.3-0.6-15.4c-0.2-5.4,0.5-10.6-0.2-15.9c-1.9,0.5-3.8,1.1-5.7,1.6
							c0.7,3.4,1.1,6.7,1.3,10.1c1.9-0.3,3.9-0.5,5.8-0.8c-0.3-1.7-0.6-3.3-0.9-5c-0.6-3.3-6.2-2.6-5.8,0.8c0.2,1.8,0.3,3.4,0,5.2
							c1.9,0.3,3.9,0.5,5.8,0.8c0.4-5.3,0-10.4-1.3-15.6c-0.8-3.3-5.8-2.5-5.8,0.8c0,2.5-0.1,5.1-0.3,7.6c1.9-0.3,3.9-0.5,5.8-0.8
							c-0.4-1.9-0.9-3.8-1.3-5.8c-0.9-3.8-6.3-2.1-5.7,1.6c0.6,4,0.3,7.8-0.8,11.6c1.9,0,3.8,0,5.7,0c-1.1-6.6-2.5-13.2-4-19.8
							c-1.9,0.5-3.8,1.1-5.7,1.6c0.7,1.9,1.5,3.9,2.2,5.8c1.8-0.8,3.6-1.5,5.4-2.3c-1.8-3.9-1.9-7.7-0.6-11.8
							c-1.9-0.5-3.8-1.1-5.7-1.6c-0.2,1.6-0.4,3-0.2,4.6c1.8-0.5,3.7-1,5.5-1.5c-2.9-5.3-1-11.9-3.2-17.6c-0.8-2.1-4.3-3.3-5.4-0.7
							c-1.6,3.6-1.1,8.7-3.5,11.8c1.7,0.4,3.3,0.9,5,1.3c0-0.3-0.1-0.6-0.1-1c-1.7,0.4-3.3,0.9-5,1.3c2.5,3.1,13.4,7.9,11.4,12.4
							c1.8,0.5,3.7,1,5.5,1.5c0.1-4.4,0.2-8.8,0.3-13.2c-1.9,0.3-3.9,0.5-5.8,0.8c0.4,2.2,0.4,4.2,0,6.4c1.9,0.3,3.9,0.5,5.8,0.8
							c-0.2-5.7-0.9-11.3-2.2-16.9c-0.9-3.7-6.6-2.1-5.7,1.6c0.3,1.1,0.4,2.2,0.2,3.3c1.9-0.3,3.9-0.5,5.8-0.8
							c-1.2-7.7-4.2-15.7-13-16.2c-2.7-0.2-3.7,3.3-2.1,5.1c2.4,2.7-2.7,10.1-3.2,13.3c-0.6,4.1,0.2,7.7,1.8,11.4
							c1.1,2.6,4.7,1.4,5.4-0.7c0.5-1.3,0.9-2.6,1.4-3.9c-1.9,0-3.8,0-5.7,0c1.6,6,3.2,12,4.8,18c1.9-0.5,3.8-1.1,5.7-1.6
							c-1.6-4.2-3.2-8.4-4.7-12.5c-1.4-3.6-6.3-2.2-5.7,1.6c0.6,3.9,1.2,7.7,1.7,11.6c1.8-0.8,3.6-1.5,5.4-2.3
							c-2.9-4.8-3.1-19.3-10.4-19.5c-1.4,0-2.4,1-2.9,2.2c-1.9,4.7-0.3,11.6,1.3,16.2c1.1,3.1,5.8,2.7,5.8-0.8
							c0-4.7-0.8-9.2-2.6-13.6c-1.1-2.8-6.1-2.9-5.8,0.8c0.2,4.1,0.5,8.3,0.7,12.4c1.9-0.3,3.9-0.5,5.8-0.8
							c-1.9-5.7-3.3-12-6.3-17.2c-1.6-2.7-5.2-1.3-5.5,1.5c-0.5,4.3-0.9,8.5-1.4,12.8c1.8-0.5,3.7-1,5.5-1.5c-2-2.7-3.7-5.5-5.2-8.5
							c-1.7-3.4-6.8-0.4-5.1,3c1.5,3.2,3.6,5.6,6.4,7.7c2,1.5,4.3-0.6,4.5-2.6c0.4-3.5-0.3-6.4-1.7-9.6c-1.5-3.2-6.1-0.8-5.4,2.3
							s1.7,5.9,2.9,8.8c1.2,2.7,5.9,1.4,5.5-1.5c-0.4-3.1-0.9-6.2-1.5-9.3c-1.9,0.5-3.8,1.1-5.7,1.6c0.7,2.4,1,5.8,3.6,7
							c1.3,0.6,2.5,0.5,3.6-0.5c1.1-0.9,1.8-2.2,2.6-3.3C126.4,131.8,121.2,128.9,119,132L119,132z"/>
					</g>
				</g>
				<g>
					<g>
						<path class="st1" d="M150.1,209.7c-0.8-1.7-1.6-3.4-2.5-5.2c-1.2-2.6-5.8-1.4-5.5,1.5c0.1,1.4,0.3,2.3,0.6,3.7
							c1.8-0.8,3.6-1.5,5.4-2.3c-0.9-2.2-2-4.2-3.3-6.2c-1.8-2.8-6.2-1-5.4,2.3c0.9,3.6,1.9,7.1,3,10.5c1.8-0.8,3.6-1.5,5.4-2.3
							c-0.5-1.1-1-2.3-1.4-3.4c-1.4-3.2-6.2-0.9-5.4,2.3c0.1,0.4,0.2,0.8,0.3,1.2c0.8,3.3,5.9,2.6,5.8-0.8c0-2.5-0.1-5-0.1-7.5
							c-1.8,0.5-3.7,1-5.5,1.5c1.2,2.8,2.4,5.5,3.6,8.3c1.4,3.3,6.1,0.8,5.4-2.3c-0.6-2.9-0.8-5.7-0.8-8.7c-1.9,0.3-3.9,0.5-5.8,0.8
							c1.6,3.8,2.7,9.3,6.6,11.4c2.1,1.1,4.3-0.3,4.5-2.6c0.3-4.1-1.1-8.3-1.4-12.4c-0.4-4.8-0.7-9.5-1.3-14.2
							c-1.2-9.2-3-18.4-3.5-27.6c-0.2-3.2-5.2-4.3-5.8-0.8c-1.3,6.7-0.7,13.2-0.4,20c0.3,7.2,0.1,14.3-0.3,21.5
							c1.9-0.3,3.9-0.5,5.8-0.8c-0.7-4.5-1-8.9-1-13.4c-1.9,0.3-3.9,0.5-5.8,0.8c0.9,5,1.2,10.5,3.3,15.2c1.2,2.6,5.9,1.4,5.5-1.5
							c-0.3-2.4-0.6-4.7-0.8-7.1c-1.8,0.5-3.7,1-5.5,1.5c0.6,1.4,1.8,2.4,2.1,4s-0.3,3.7-0.3,5.4c0,4.7,0.3,9.4,0.5,14.2
							c1.9-0.3,3.9-0.5,5.8-0.8c-0.7-2.2-1.5-4.4-2.2-6.6c-1-3-6.1-2.7-5.8,0.8c0.2,2.5,0.3,5.1,0.5,7.6c1.9-0.3,3.9-0.5,5.8-0.8
							c-0.8-2.2-1.8-4.3-2.8-6.5c-1.3-2.6-5.8-1.4-5.5,1.5c0.2,1.8,0.4,3.5,0.7,5.3c1.9-0.5,3.8-1.1,5.7-1.6
							c-0.6-1.5-1.2-2.9-1.8-4.4c-1.1-2.8-6.3-2.8-5.8,0.8c0.2,2.1,0.4,4,1.3,6c0.7,1.7,2.6,3.5,2.8,5.3c1.8-0.5,3.7-1,5.5-1.5
							c-0.2-0.3-0.4-0.6-0.6-0.8c-1.6-2.4-5.5-1.6-5.5,1.5c0,0.8,0,1.6,0,2.4c1.9-0.3,3.9-0.5,5.8-0.8c-0.4-1-0.8-2-1.2-3.1
							c-1.2-2.9-6-2.9-5.8,0.8c0.1,1.7,0.2,3,0.5,4.6c1.9-0.5,3.8-1.1,5.7-1.6c-0.2-0.9-0.4-1.8-0.6-2.7c-1.9,0.3-3.9,0.5-5.8,0.8
							c0.1,0.9,0.3,1.9,0.4,2.8c0.5,3.8,6.3,2.2,5.7-1.6c-0.3-2.2-0.6-4.3-0.9-6.5c-1.9,0.5-3.8,1.1-5.7,1.6
							c1.2,3.2,2.5,6.1,4.8,8.7c2.2,2.5,5.4-0.3,5-2.9c-0.4-2.8-0.3-5.4,0-8.1c-1.9,0.3-3.9,0.5-5.8,0.8c1,2.9,2,5.8,3,8.7
							c1.2,3.6,6.6,2.2,5.7-1.6c-0.6-2.6-0.8-5.1-0.8-7.7c-1.9,0.3-3.9,0.5-5.8,0.8c1,2.6,1.9,5.2,2.6,7.9c1.9-0.5,3.8-1.1,5.7-1.6
							c-1.2-3.9-1.5-7.7-1.2-11.8c-1.9,0.3-3.9,0.5-5.8,0.8c0.5,2.6,0.9,5.3,1.3,7.9c0.1,1.2,0.3,2.3,0.4,3.5
							c-0.3,2,0.1,2.3,1.1,0.8c-2-3.3-7.1-0.3-5.1,3c1.9,3.1,7.2,4.3,9.5,0.8c1.2-1.8,0.5-4.4,0.3-6.4c-0.4-3.8-1-7.5-1.7-11.3
							c-0.7-3.5-5.6-2.3-5.8,0.8c-0.4,4.6,0.1,8.9,1.4,13.4c1.1,3.7,6.7,2.1,5.7-1.6c-0.7-2.7-1.6-5.3-2.6-7.9
							c-1.2-3-5.8-2.8-5.8,0.8c0,3.2,0.3,6.2,1,9.3c1.9-0.5,3.8-1.1,5.7-1.6c-1-2.9-2-5.8-3-8.7c-1.1-3.4-5.4-2.5-5.8,0.8
							c-0.4,3.3-0.3,6.4,0.2,9.7c1.7-1,3.3-1.9,5-2.9c-1.6-1.8-2.4-3.9-3.3-6c-1.4-3.6-6.3-2.2-5.7,1.6c0.3,2.2,0.6,4.3,0.9,6.5
							c1.9-0.5,3.8-1.1,5.7-1.6c-0.1-0.9-0.3-1.9-0.4-2.8c-0.5-3.3-6.2-2.5-5.8,0.8c0.2,1.8,0.3,2.5,0.8,4.2
							c1.3,3.7,6.3,2.1,5.7-1.6c-0.1-1-0.2-2-0.2-3c-1.9,0.3-3.9,0.5-5.8,0.8c0.4,1,0.8,2,1.2,3.1c1.2,2.9,5.8,2.8,5.8-0.8
							c0-0.8,0-1.6,0-2.4c-1.8,0.5-3.7,1-5.5,1.5c0.2,0.3,0.4,0.6,0.6,0.8c1.5,2.2,5.9,1.7,5.5-1.5c-0.4-4.2-3.6-7-4.1-11.3
							c-1.9,0.3-3.9,0.5-5.8,0.8c0.6,1.5,1.2,2.9,1.8,4.4c1.4,3.5,6.5,2.2,5.7-1.6c-0.3-1.2-0.5-2.4-0.5-3.7c-1.8,0.5-3.7,1-5.5,1.5
							c0.8,1.7,1.5,3.3,2.2,5c1.1,2.9,6.1,2.8,5.8-0.8c-0.2-2.5-0.3-5.1-0.5-7.6c-1.9,0.3-3.9,0.5-5.8,0.8c0.7,2.2,1.5,4.4,2.2,6.6
							c1,3.1,6,2.7,5.8-0.8c-0.2-5.4-0.7-11-0.5-16.4c0.1-1.7,0.6-3.5,0.2-5.2c-0.5-1.9-2.1-3.2-2.8-4.9c-1.1-2.7-5.9-1.4-5.5,1.5
							c0.3,2.4,0.6,4.7,0.8,7.1c1.8-0.5,3.7-1,5.5-1.5c-1.8-4-2-9.5-2.7-13.8c-0.6-3.4-5.9-2.5-5.8,0.8c0,5,0.5,10,1.3,15
							c0.5,3.5,5.6,2.4,5.8-0.8c0.4-6.5,0.6-13.1,0.4-19.6c-0.2-6.7-1.2-13.6,0.2-20.3c-1.9-0.3-3.9-0.5-5.8-0.8
							c0.5,9.1,2.3,18.1,3.4,27.1c0.6,4.6,0.9,9.2,1.3,13.8c0.3,4.3,1.7,9,1.5,13.3c1.5-0.9,3-1.7,4.5-2.6c-1.9-1-3-5.8-3.8-7.8
							c-1.2-2.9-5.8-2.8-5.8,0.8c0,3.5,0.3,6.8,1,10.3c1.8-0.8,3.6-1.5,5.4-2.3c-1.2-2.8-2.4-5.5-3.6-8.3c-1.2-2.8-5.6-1.3-5.5,1.5
							c0,2.5,0.1,5,0.1,7.5c1.9-0.3,3.9-0.5,5.8-0.8c-0.1-0.4-0.2-0.8-0.3-1.2c-1.8,0.8-3.6,1.5-5.4,2.3c0.5,1.1,1,2.3,1.4,3.4
							c1.3,3.1,6.5,0.9,5.4-2.3c-1.2-3.5-2.2-7-3-10.5c-1.8,0.8-3.6,1.5-5.4,2.3c1.3,2,2.3,4,3.3,6.2c1.4,3.1,6.3,0.9,5.4-2.3
							c-0.1-0.7-0.3-1.4-0.4-2.1c-1.8,0.5-3.7,1-5.5,1.5c0.8,1.7,1.6,3.4,2.5,5.2C146.6,216.2,151.8,213.2,150.1,209.7L150.1,209.7z
							"/>
					</g>
				</g>
				<g>
					<g>
						<path class="st1" d="M56.1,214.1c-0.6-1.7-1.2-3.5-1.8-5.2c-1-2.9-4.6-2.7-5.7,0c-0.6,1.4-1,2.6-1.4,4.1c1.9,0,3.8,0,5.7,0
							c-0.7-1.7-1-3.1-0.9-4.9c0.1-3.3-5.4-4.2-5.8-0.8c-0.1,1.2-0.3,2.4-0.6,3.6c1.9,0.3,3.9,0.5,5.8,0.8c-0.4-3.5-0.7-6.7,0.7-10
							c-1.9-0.3-3.9-0.5-5.8-0.8c0.5,4.3-0.1,11.8,3.4,15c1.6,1.4,4.5,1,5-1.3c0.6-2.9,1.2-5.8,1.9-8.7c-1.9-0.3-3.9-0.5-5.8-0.8
							c0,2.8,0.1,5.7,0.1,8.5c0,3.9,5.5,3.7,6,0c0.3-2.5,0.6-4.9,0.9-7.4c-2,0-4,0-6,0c0,2.4,0,4.8,0,7.1c0,3.5,4.8,3.9,5.8,0.8
							c1.6-4.7,2.9-9.5,3.8-14.4c0.7-3.7-4.9-5.4-5.7-1.6c-0.6,3-1.3,6-1.9,9c-0.8,3.7,4.7,5.3,5.7,1.6c0.6-2.3,1.2-4.5,1.8-6.8
							c-1.9-0.3-3.9-0.5-5.8-0.8c-0.1,0.9-0.2,1.8-0.3,2.7c-0.3,3.3,5.4,4.1,5.8,0.8c0.3-1.9,0.7-3.5,1.3-5.3
							c1.1-3.3-3.7-5.1-5.4-2.3c-3.5,5.7-4.6,12.1-5.4,18.7c-0.5,3.6,4.7,3.6,5.8,0.8c0.7-1.9,1.3-3.7,1.8-5.7
							c-1.9-0.3-3.9-0.5-5.8-0.8c0.1,1.3,0,2.6-0.2,3.9c-0.3,3.3,5.2,4.1,5.8,0.8c0.3-1.7,0.7-3.3,1-5c0.8-3.8-4.5-5.2-5.7-1.6
							c-1.8,5.4-2.8,10.9-3.1,16.6c-0.2,3.3,5.4,4.1,5.8,0.8c0.3-2,0.6-4.1,0.8-6.1c-1.9-0.3-3.9-0.5-5.8-0.8
							c-0.3,2.5-0.5,5.1-0.5,7.6c-0.1,3.8,5.8,3.8,6,0c0.2-3.6,0.5-7.1,1.1-10.6c-1.9-0.3-3.9-0.5-5.8-0.8c-0.2,1.7-0.5,3.3-0.9,5
							c1.9,0.3,3.9,0.5,5.8,0.8c0.2-2.4,0.6-4.2,1.3-6.5c0.9-2.8-3-5-5-2.9c-3.2,3.4-3.8,7.9-6.3,11.7c1.8,0.2,3.6,0.5,5.4,0.7
							c-0.2-1.5-0.2-3,0-4.6c0.5-3.1-3.6-5.4-5.4-2.3c-0.8,1.4-1.1,2.2-1.7,3.7c1.9,0,3.8,0,5.7,0c-0.3-1.8-0.3-3.4-0.2-5.2
							c0.1-3.3-5.2-4.1-5.8-0.8c-0.1,0.6-0.2,1.3-0.4,1.9c1.9,0.3,3.9,0.5,5.8,0.8c0.2-1.5,0.3-3.1,0.5-4.6c-2,0-4,0-6,0
							c-0.4,4.4-1.2,8.7-2.3,13c1.9,0.3,3.9,0.5,5.8,0.8c0.5-4.7,1.5-9.1,3.1-13.5c-1.9-0.3-3.9-0.5-5.8-0.8
							c-0.3,4.3-0.6,8.6-1,12.8c-0.2,2.2,2.7,3.8,4.5,2.6c0.3-0.2,0.5-0.3,0.8-0.5c-1.5-0.6-2.9-1.2-4.4-1.8c0.2,0.5,0.4,1,0.5,1.5
							c1.3,3.6,7,2,5.7-1.6c-0.2-0.5-0.4-1-0.5-1.5c-0.6-1.7-2.7-2.9-4.4-1.8c-0.3,0.2-0.5,0.3-0.8,0.5c1.5,0.9,3,1.7,4.5,2.6
							c0.3-4.3,0.6-8.6,1-12.8c0.3-3.5-4.8-3.8-5.8-0.8c-1.7,4.9-2.8,9.9-3.3,15.1c-0.3,3.4,5,4,5.8,0.8c1.3-4.8,2.1-9.6,2.5-14.6
							c0.3-3.8-5.6-3.8-6,0c-0.2,1.5-0.3,3.1-0.5,4.6c-0.4,3.3,5.2,4.1,5.8,0.8c0.1-0.6,0.2-1.3,0.4-1.9c-1.9-0.3-3.9-0.5-5.8-0.8
							c-0.1,2.3,0.1,4.5,0.4,6.7c0.5,3.2,4.9,2.5,5.7,0c0.4-0.8,0.7-1.5,1.1-2.3c-1.8-0.8-3.6-1.5-5.4-2.3c-0.4,2.7-0.4,5.1,0,7.7
							c0.4,2.7,4.2,2.6,5.4,0.7c2.2-3.3,2.7-7.5,5.4-10.4c-1.7-1-3.3-1.9-5-2.9c-0.9,2.7-1.3,5.3-1.5,8c-0.2,3.4,5,4,5.8,0.8
							c0.5-2.2,0.9-4.3,1.1-6.5c0.3-3.3-5.3-4.1-5.8-0.8c-0.7,4.1-1.1,8.1-1.3,12.2c2,0,4,0,6,0c0.1-2.6,0.2-5.1,0.5-7.6
							c0.4-3.3-5.4-4.1-5.8-0.8c-0.3,2-0.6,4.1-0.8,6.1c1.9,0.3,3.9,0.5,5.8,0.8c0.3-5.2,1.2-10.1,2.9-15c-1.9-0.5-3.8-1.1-5.7-1.6
							c-0.3,1.7-0.7,3.3-1,5c1.9,0.3,3.9,0.5,5.8,0.8c0.2-1.3,0.3-2.6,0.2-3.9c0-3.3-5.1-4.1-5.8-0.8c-0.4,2-1,3.8-1.8,5.7
							c1.9,0.3,3.9,0.5,5.8,0.8c0.7-5.5,1.6-10.9,4.6-15.7c-1.8-0.8-3.6-1.5-5.4-2.3c-0.6,1.8-1,3.4-1.3,5.3
							c1.9,0.3,3.9,0.5,5.8,0.8c0.1-0.9,0.2-1.8,0.3-2.7c0.3-3.4-5-4-5.8-0.8c-0.6,2.3-1.2,4.5-1.8,6.8c1.9,0.5,3.8,1.1,5.7,1.6
							c0.6-3,1.3-6,1.9-9c-1.9-0.5-3.8-1.1-5.7-1.6c-0.9,4.9-2.1,9.7-3.8,14.4c1.9,0.3,3.9,0.5,5.8,0.8c0-2.4,0-4.8,0-7.1
							c0-3.9-5.5-3.7-6,0c-0.3,2.5-0.6,4.9-0.9,7.4c2,0,4,0,6,0c0-2.8-0.1-5.7-0.1-8.5c0-3.3-5.1-4.2-5.8-0.8
							c-0.6,2.9-1.2,5.8-1.9,8.7c1.7-0.4,3.3-0.9,5-1.3c-1.5-1.4-1.4-8.8-1.7-10.8c-0.4-3.4-4.5-3.9-5.8-0.8
							c-1.6,3.8-1.4,7.6-0.9,11.6c0.4,3,5.1,4.4,5.8,0.8c0.3-1.2,0.5-2.4,0.6-3.6c-1.9-0.3-3.9-0.5-5.8-0.8c0,2.3,0.3,4.3,1.2,6.5
							c1,2.5,5,3.1,5.7,0c0.4-1.4,0.8-2.7,1.4-4.1c-1.9,0-3.8,0-5.7,0c0.6,1.7,1.2,3.5,1.8,5.2C51.6,219.2,57.4,217.7,56.1,214.1
							L56.1,214.1z"/>
					</g>
				</g>
				<g>
					<g>
						<path class="st1" d="M40.1,269.1c0.2,1.3-0.1,2.4-0.8,3.5c-1.9,3.3,3.2,6.3,5.1,3c-0.4,0.9-0.1,1.3,1.1,1c0-1.9,0-3.8,0-5.7
							c-0.2,0-0.4,0.1-0.5,0.1c-0.3,1.9-0.5,3.9-0.8,5.8c1.6,0.1,3.2,0.2,4.8,0.3c1.7,0.1,2.8-1.5,3-3c0.5-4.4-0.1-8.8,0.6-13.2
							c0.5-3.4,1.2-6.7,1.6-10.2c0.9-7.7,2.1-15.4,2.9-23.1c0.2-2.1-2.1-3.1-3.8-2.9c-1.2,0.2-4.2,2-4.1,2c-1.9,0-2.9-1.8-5-0.2
							c-3.9,2.9-2.2,11.3-1.1,15.1c0.7,2.4,4.2,3,5.4,0.7c1.6-2.8,2.3-5.6,2.5-8.8c0.3-3.9-5.5-3.7-6,0c-0.9,6.4-1.7,12.9-2.6,19.3
							c-0.8,6-1,12.4-3.3,18.1c1.9,0.3,3.9,0.5,5.8,0.8c0.7-10.7,1.7-21.4,2.9-32.1c0.3-3-4.2-3.9-5.5-1.5c-2,3.5-2.1,7.1-1.3,11
							c1.2,5.4,2.5,10.4,3.1,16c0.3,2.7,4.1,4.4,5.5,1.5c1.2-2.4,1.8-4.6,1.9-7.2c0.2-3.9-5.5-3.7-6,0c-0.4,3.4-1.1,6.6-2.1,9.9
							c-1.1,3.7,4.6,5.2,5.7,1.6c1.2-3.8,1.9-7.5,2.3-11.4c-2,0-4,0-6,0c0.1,1.5-0.3,2.9-1.1,4.2c1.8,0.5,3.7,1,5.5,1.5
							c-0.4-3.6-0.7-7.2-1.5-10.7c-1-4.3-3.5-9-1.1-13.3c-1.8-0.5-3.7-1-5.5-1.5c-1.2,10.7-2.2,21.4-2.9,32.1
							c-0.2,3.6,4.7,3.7,5.8,0.8c2.2-5.6,2.5-11.9,3.3-17.8c0.9-7.1,1.9-14.2,2.8-21.3c-2,0-4,0-6,0c-0.2,2.3-0.6,3.8-1.7,5.8
							c1.8,0.2,3.6,0.5,5.4,0.7c-0.8-2.7-1.8-7-0.3-9.7c-0.9,0.5-1.7,1-2.6,1.5c1.2-0.1,2.4,1.2,3.9,1c1.9-0.3,3.1-2.1,4.9-2.4
							c-1.3-1-2.5-1.9-3.8-2.9c-0.8,7.7-1.9,15.4-2.9,23.1c-0.5,3.6-1.3,7.2-1.7,10.9c-0.5,4.2,0,8.3-0.5,12.5c1-1,2-2,3-3
							c-1.6-0.1-3.2-0.2-4.8-0.3c-3.3-0.2-4.1,5.3-0.8,5.8c1.4,0.2,2.3,0.3,3.7-0.1c2.6-0.7,3-5.3,0-5.7c-3.1-0.4-5.9-1.5-7.8,1.7
							c1.7,1,3.4,2,5.1,3c1.2-2.1,1.7-4.1,1.6-6.5C45.9,265.3,40,265.3,40.1,269.1L40.1,269.1z"/>
					</g>
				</g>
				<g>
					<g>
						<path class="st1" d="M145.7,228.1c0,0.1,0,0.2-0.1,0.2c1.7-0.4,3.3-0.9,5-1.3c0.4,0.1,0.4-0.3-0.2-1.1
							c-1.9,0.5-3.8,1.1-5.7,1.6c0.1,0.4,0.1,0.8,0.2,1.2c1.8-0.2,3.6-0.5,5.4-0.7c-0.3-0.9-0.6-1.7-0.9-2.6
							c-0.9-3.2-5.8-2.6-5.8,0.8c-0.1,5.8,1.5,11.8,2.5,17.5c0.6,3.5,5.5,2.2,5.8-0.8c0.5-4.3,1-8.7,1.5-13
							c-1.9,0.3-3.9,0.5-5.8,0.8c0.7,4.1,1.4,8.2,2.2,12.3c0.6,3.3,5.8,2.5,5.8-0.8c0.1-4,0.2-8,0.3-12c-1.9,0.3-3.9,0.5-5.8,0.8
							c0.6,3.2,1.1,6.3,1.7,9.5c0.6,3.2,6,2.5,5.8-0.8c-0.2-3.2-0.2-6.5,0-9.7c-2,0-4,0-6,0c0.1,2.6,0.2,5,0.3,7.6
							c0.1,1.2,0.7,4.5,0.2,5.6c-0.3,0.8-1.4,1.6-1.9,2.4c-0.6,1.1-0.9,2.4-1,3.5c-0.3,3.8,0.6,7.9,0.7,11.7c0.1,4.5-0.2,9-0.7,13.4
							c1.8-0.5,3.7-1,5.5-1.5c-1.6-2.3-1-7.4-1.2-10c-0.2-3.5-0.5-7-0.8-10.5c-0.5-5.3-1.1-10.4-3.4-15.4c-1.7,1-3.4,2-5.1,3
							c1.9,2.7,1.3,7.1,1.7,10.2c0.3,2.7,0.5,5.7,1.6,8.2c0.6,1.4,1.4,2.5,2.8,3.1c2,0.9,2.9-0.4,4.8-0.3c1.7,0.1,2.8-1.5,3-3
							c0.3-3.3,0.7-6.8,1-10.1c-2,0-4,0-6,0c-0.2,2-0.2,3.9,0.1,5.9c0.4,3.7,5.8,3.8,6,0c0.3-6.3-0.5-12.5-1.4-18.7
							c-1.9,0.5-3.8,1.1-5.7,1.6c1.2,3.3,0.4,7.4,0.2,10.8c-0.3,3.6-0.7,7.2-0.7,10.8c-0.1,3.3,0.3,6.4,0.7,9.7
							c0.2,2.1-0.5,4.8,1.1,6.5c2.3,2.5,6.8,1.3,7.8-1.8c0.8-2.6-0.1-6-0.3-8.6c-0.4-3.9-0.7-7.9-1.1-11.8c-0.3-3.7-6.3-3.7-6,0
							c0.5,4.8,0.9,9.7,1.4,14.6c0.1,0.7-0.1,3.2,0.3,3.6c1,0.2,2,0.4,2.9,0.5c0-0.4,0.1-0.9,0.1-1.3c0.4-1.9-0.7-5.3-0.8-7
							c-0.3-4.8,0.2-9.7,0.6-14.4c0.4-4.3,1.2-9.1-0.3-13.3c-1.3-3.6-6.3-2.2-5.7,1.6c0.8,5.7,1.5,11.3,1.2,17.1c2,0,4,0,6,0
							c-0.2-2-0.2-3.9-0.1-5.9c0.3-3.7-5.6-3.7-6,0c-0.3,3.3-0.7,6.8-1,10.1c1-1,2-2,3-3c-0.4,0-2.5,0.1-2.3,0.3
							c-1.2-0.8-1.2-6.9-1.3-8.1c-0.4-3.6,0-7.4-2.2-10.5c-2.2-3.1-6.7-0.5-5.1,3c2.8,6.1,2.8,13.5,3.2,20.1
							c0.3,4.7-0.6,11.8,2.2,15.9c1.8,2.6,5.2,1.4,5.5-1.5c0.6-4.4,0.8-8.9,0.7-13.4c-0.1-3.2-1.9-9.2-0.6-12.2
							c0.9-2.3,2.5-2.7,2.7-5.4c0.4-4.2-0.4-9-0.6-13.2c-0.2-3.7-5.8-3.7-6,0c-0.1,3.2-0.1,6.5,0,9.7c1.9-0.3,3.9-0.5,5.8-0.8
							c-0.6-3.2-1.1-6.3-1.7-9.5c-0.6-3.3-5.8-2.5-5.8,0.8c-0.1,4-0.2,8-0.3,12c1.9-0.3,3.9-0.5,5.8-0.8c-0.7-4.1-1.4-8.2-2.2-12.3
							c-0.6-3.5-5.5-2.3-5.8,0.8c-0.5,4.3-1,8.7-1.5,13c1.9-0.3,3.9-0.5,5.8-0.8c-0.9-5.2-2.3-10.6-2.3-16c-1.9,0.3-3.9,0.5-5.8,0.8
							c0.5,1.5,0.9,2.6,1.5,3.9c1,2.3,5,1.7,5.4-0.7c0.3-1.8,0.4-2.6-0.2-4.3c-1.2-3.5-6.8-2.1-5.7,1.6c0.4,1.3,0.7,2.7,1.8,3.6
							c1.6,1.6,4.3,0.8,5-1.3c0-0.1,0-0.2,0.1-0.2C152.6,226.1,146.8,224.5,145.7,228.1L145.7,228.1z"/>
					</g>
				</g>
				<g>
					<g>
						<path class="st1" d="M42.6,271.7c-0.6,1.2-1.1,2.6-2.8,2.6c0,0.8,0,1.6,0,2.4c2.8-0.1,5.6,0.1,8.4,0.8
							c1.5,0.4,2.9,0.6,3.5-1.1c0.5-1.5-1.8-2.1-2.3-0.6c0.4-1.2-8.8-1.5-9.5-1.4c-1.5,0.1-1.5,2.4,0,2.4c2.5,0,3.8-1.7,4.8-3.8
							C45.4,271.5,43.3,270.3,42.6,271.7L42.6,271.7z"/>
					</g>
				</g>
				<g>
					<g>
						<path class="st1" d="M151.4,274.1c-0.4,0.3-0.9,0.6-1.5,0.8c0.5,0.3,1,0.6,1.5,0.8h0.1c-0.7,0.2-1.3,0.4-2,0.5l0,0
							c0.1,0.5,0.7,0.9,1.1,0.9c3-0.1,6.1,0,9-0.6c0.7-0.1,1.1-0.3,1.4-1c0.3-0.8-0.2-1.1-0.3-1.8c-0.8,0.1-1.6,0.2-2.3,0.3
							c0.3,0.5,0.4,1.1,0.4,1.6c0.4-0.4,0.8-0.8,1.2-1.2c-1.8-0.1-3.6,0.1-5.5,0.3c-0.4,0.1-1.2,0-1.6,0.1c-0.7,0.2-0.4,0.3-0.4,0
							c0-0.9,0.6-2,0.9-2.8c0.5-1.5-1.8-2.1-2.3-0.6c-0.5,1.7-2.1,4.4,0.1,5.5c1.2,0.5,2.5,0.4,3.7,0.2c1.7-0.2,3.3-0.3,5-0.3
							c0.6,0,1.2-0.6,1.2-1.2c-0.1-0.8-0.2-1.5-0.5-2.3c-0.5-1.1-2.5-1.1-2.3,0.3c0,0.2,0,0.5,0.1,0.7c0.1,0.5,0.2,0.4,0.4-0.2
							c-0.6-0.2-2,0.2-2.6,0.2c-1.9,0.1-3.8,0.2-5.7,0.3c0.4,0.3,0.8,0.6,1.1,0.9c-0.1-0.5-0.2-0.7-0.6-1c-0.7-0.6-1.6-0.3-2,0.5
							c-0.2,0.5-0.2,0.8-0.1,1.3c0.1,0.6,0.9,1,1.5,0.8c0.7-0.3,1.4-0.6,2-1C153.9,275.3,152.7,273.3,151.4,274.1L151.4,274.1z"/>
					</g>
				</g>
				<g>
					<g>
						<path class="st1" d="M134.7,132.4c2.1,3.8,3.9,7.7,5.1,11.9c0.9,3,1.4,6,2.8,8.8c0.5,1.1,2.2,0.5,2.2-0.6
							c-0.1-4.8-0.5-9.5-1.2-14.2c-0.2-1.3-2.5-1-2.3,0.3c0.3,2.6,0.8,4.9,1.6,7.4c0.4,1.3,2.3,1.1,2.3-0.3c0.1-2.1,0.1-4.2,0.2-6.3
							c-0.8,0.1-1.6,0.2-2.3,0.3c0.7,1.4,1,3,1,4.6c0.1,1.5,2.5,1.5,2.4,0s-0.3-2.9-0.7-4.4c-0.4-1.3-2.4-1.1-2.3,0.3
							c0.3,6.2,1.3,12.4,2.8,18.4c0.4,1.5,2.6,0.9,2.3-0.6c-1.2-6.5-3.3-13.6-3.2-20.2c0.1-4.1,1.7-8.5-0.7-12.2
							c-0.8-1.3-2.9-0.1-2.1,1.2c2.5,3.8,0,10.1,0.6,14.5c0.8,5.8,2,11.5,3.1,17.3c0.8-0.2,1.5-0.4,2.3-0.6
							c-1.5-5.9-2.3-11.8-2.7-17.8c-0.8,0.1-1.6,0.2-2.3,0.3c0.4,1.2,0.6,2.4,0.6,3.7c0.8,0,1.6,0,2.4,0c-0.1-1.9-0.4-3.4-1.1-5.2
							c-0.5-1.2-2.3-1.1-2.3,0.3c-0.1,2.1-0.1,4.2-0.2,6.3c0.8-0.1,1.6-0.2,2.3-0.3c-0.8-2.3-1.2-4.3-1.5-6.8
							c-0.8,0.1-1.6,0.2-2.3,0.3c0.6,4.5,1,9,1.1,13.6c0.7-0.2,1.5-0.4,2.2-0.6c-1.8-3.6-2.3-7.8-3.6-11.6c-1.1-3.2-2.6-6.2-4.2-9.1
							C136,129.8,133.9,131,134.7,132.4L134.7,132.4z"/>
					</g>
				</g>
				<line class="st2" x1="149.5" y1="265.4" x2="147.5" y2="258.2"/>
				<line class="st2" x1="148.5" y1="271.1" x2="149.5" y2="276.2"/>
				<line class="st2" x1="160.9" y1="272" x2="161" y2="276.3"/>
				<line class="st2" x1="75.6" y1="196.4" x2="74.8" y2="191.2"/>
			</g>
			<g>
				<g>
					<g>
						<g>
							<path d="M39,277.7c1.8-0.4,3.7-0.2,5.5-0.1c1.6,0.1,4.7-0.3,6.1,0.5c0.7,0.4,1.3-0.7,0.6-1c-1.6-0.9-4-0.6-5.8-0.7
								c-2.2-0.1-4.6-0.4-6.7,0.1C37.9,276.7,38.2,277.9,39,277.7L39,277.7z"/>
						</g>
					</g>
					<g>
						<g>
							<path d="M51.8,277.9c2.4-22.2,5.1-44.3,8.1-66.4c0.1-0.7-1-1.1-1.1-0.3c-3,22.2-5.7,44.4-8.1,66.7
								C50.5,278.7,51.7,278.7,51.8,277.9L51.8,277.9z"/>
						</g>
					</g>
					<g>
						<g>
							<path d="M60,211.4c3.1-14.5,6.5-28.8,9.9-43.2c0.2-0.7-1-1.1-1.1-0.3c-3.3,14.4-6.8,28.8-9.9,43.2
								C58.7,211.8,59.8,212.2,60,211.4L60,211.4z"/>
						</g>
					</g>
					<g>
						<g>
							<path d="M39.2,276.6c1.6-21.9,2.5-44.1,6.5-65.8c0.1-0.7-1-1.1-1.1-0.3c-4,21.8-4.9,44-6.5,66.1
								C38,277.4,39.2,277.4,39.2,276.6L39.2,276.6z"/>
						</g>
					</g>
					<g>
						<g>
							<path d="M45.7,210.3c0.7-12.2,2.6-24.3,4.3-36.4c1.5-10.7,2.3-21.8,4.4-32.4c0.2-0.7-1-1.1-1.1-0.3
								c-2.3,11.2-3.1,23-4.7,34.3c-1.6,11.6-3.4,23.1-4,34.8C44.5,211,45.6,211,45.7,210.3L45.7,210.3z"/>
						</g>
					</g>
					<g>
						<g>
							<path d="M54.4,141.9c0.1-9.4,0.2-21.3,6.5-28.7c0.5-0.6-0.3-1.4-0.8-0.8c-6.7,7.8-6.7,19.7-6.9,29.6
								C53.2,142.7,54.4,142.7,54.4,141.9L54.4,141.9z"/>
						</g>
					</g>
					<g>
						<g>
							<path d="M60.4,114.3c1.7-4.9,9.1-6.6,13.5-7.7c0.7-0.2,0.4-1.3-0.3-1.1c-5,1.2-12.5,3-14.4,8.5C59,114.7,60.2,115,60.4,114.3
								L60.4,114.3z"/>
						</g>
					</g>
					<g>
						<g>
							<path d="M73.7,107c7.8,5.5,16.9,7.9,26.5,7.1c0.8-0.1,0.8-1.3,0-1.2c-9.4,0.8-18.1-1.6-25.9-6.9
								C73.7,105.5,73.1,106.5,73.7,107L73.7,107z"/>
						</g>
					</g>
				</g>
				<g>
					<g>
						<g>
							<g>
								<path d="M72.2,169c-4.1-4.1-8.4-7.6-8.2-13.9c0.1-4.8,1.3-9.6,4.8-13c0.5-0.5-0.3-1.4-0.8-0.8c-3.8,3.7-5,8.7-5.2,13.8
									c-0.3,6.7,4,10.4,8.5,14.8C71.9,170.4,72.7,169.6,72.2,169L72.2,169z"/>
							</g>
						</g>
						<g>
							<g>
								<path d="M76,224.2c1.4-18-1.5-36-3.8-53.8c-0.1-0.7-1.3-0.8-1.2,0c2.3,17.8,5.2,35.8,3.8,53.8C74.8,225,76,225,76,224.2
									L76,224.2z"/>
							</g>
						</g>
						<g>
							<g>
								<path d="M75.3,223.1c-1.7,6.4-1.4,13.1-2.9,19.5c-1.6,6.8-3.4,13.6-5.2,20.4c-0.2,0.7,1,1.1,1.1,0.3
									c1.7-6.8,3.6-13.6,5.2-20.4c1.5-6.4,1.2-13.1,2.9-19.5C76.6,222.6,75.5,222.3,75.3,223.1L75.3,223.1z"/>
							</g>
						</g>
						<g>
							<g>
								<g>
									<path d="M129.8,170.6c4.5-4.4,8.8-8.1,8.5-14.8c-0.2-5.1-1.4-10.2-5.2-13.8c-0.5-0.5-1.4,0.3-0.8,0.8
										c3.5,3.4,4.7,8.2,4.8,13c0.2,6.3-4,9.9-8.2,13.9C128.4,170.3,129.3,171.2,129.8,170.6L129.8,170.6z"/>
								</g>
							</g>
							<g>
								<g>
									<path d="M126.3,225c-1.4-18,1.5-36,3.8-53.8c0.1-0.8-1.1-0.8-1.2,0c-2.3,17.8-5.2,35.8-3.8,53.8
										C125.2,225.7,126.4,225.7,126.3,225L126.3,225z"/>
								</g>
							</g>
						</g>
						<g>
							<g>
								<path d="M124.8,224.1c1.7,6.4,1.4,13.1,2.9,19.5c1.6,6.8,3.4,13.6,5.2,20.4c0.2,0.7,1.3,0.4,1.1-0.3
									c-1.7-6.8-3.6-13.6-5.2-20.4c-1.5-6.4-1.2-13.1-2.9-19.5C125.7,223.1,124.6,223.4,124.8,224.1L124.8,224.1z"/>
							</g>
						</g>
						<g>
							<g>
								<path d="M68,263.4c3.3,3,8,3.1,12.2,3.8c5.6,1,11.2,2,16.9,2.4c12.2,0.9,24.4-0.7,36.1-4.5c0.7-0.2,0.4-1.4-0.3-1.1
									c-10.4,3.3-21.2,5-32.1,4.6c-5.4-0.2-10.6-0.9-15.9-1.8c-4.7-0.8-12.3-0.8-16-4.2C68.3,262.1,67.5,262.9,68,263.4L68,263.4z
									"/>
							</g>
						</g>
					</g>
				</g>
				<g>
					<g>
						<g>
							<path d="M161.5,276.6c-2.1-0.5-4.5-0.2-6.7-0.1c-1.8,0.1-4.2-0.2-5.8,0.7c-0.7,0.4-0.1,1.4,0.6,1c1.5-0.8,4.4-0.5,6.1-0.5
								c1.8-0.1,3.7-0.3,5.5,0.1C161.9,277.9,162.2,276.7,161.5,276.6L161.5,276.6z"/>
						</g>
					</g>
					<g>
						<g>
							<path d="M149.5,277.9c-2.4-22.3-5.1-44.5-8.1-66.7c-0.1-0.8-1.2-0.4-1.1,0.3c3,22.1,5.7,44.2,8.1,66.4
								C148.4,278.7,149.6,278.7,149.5,277.9L149.5,277.9z"/>
						</g>
					</g>
					<g>
						<g>
							<path d="M141.3,211.1c-3.1-14.2-6.5-28.2-9.9-42.3c-0.2-0.7-1.3-0.4-1.1,0.3c3.3,14.1,6.8,28.2,9.9,42.3
								C140.3,212.2,141.4,211.8,141.3,211.1L141.3,211.1z"/>
						</g>
					</g>
					<g>
						<g>
							<path d="M162.1,276.6c-1.6-22.1-2.5-44.3-6.5-66.1c-0.1-0.8-1.3-0.4-1.1,0.3c4,21.6,4.9,43.8,6.5,65.8
								C160.9,277.4,162.1,277.4,162.1,276.6L162.1,276.6z"/>
						</g>
					</g>
					<g>
						<g>
							<path d="M155.6,210.3c-0.6-11.7-2.4-23.2-4-34.8c-1.6-11.4-2.4-23.1-4.7-34.3c-0.2-0.8-1.3-0.4-1.1,0.3
								c2.1,10.6,2.9,21.7,4.4,32.4c1.7,12.1,3.6,24.2,4.3,36.4C154.5,211,155.7,211,155.6,210.3L155.6,210.3z"/>
						</g>
					</g>
					<g>
						<g>
							<path d="M146.9,141.9c-0.1-9.8-0.1-21.7-6.9-29.6c-0.5-0.6-1.3,0.3-0.8,0.8c6.4,7.4,6.4,19.3,6.5,28.7
								C145.7,142.7,146.9,142.7,146.9,141.9L146.9,141.9z"/>
						</g>
					</g>
					<g>
						<g>
							<path d="M140.8,114c-1.9-5.5-9.3-7.3-14.4-8.5c-0.7-0.2-1.1,1-0.3,1.1c4.4,1,11.9,2.8,13.5,7.7
								C139.9,115,141.1,114.7,140.8,114L140.8,114z"/>
						</g>
					</g>
					<g>
						<g>
							<path d="M125.8,105.9c-7.7,5.4-16.5,7.7-25.9,6.9c-0.8-0.1-0.8,1.1,0,1.2c9.5,0.8,18.6-1.6,26.5-7.1
								C127,106.5,126.4,105.5,125.8,105.9L125.8,105.9z"/>
						</g>
					</g>
				</g>
			</g>
			<line class="st2" x1="57.1" y1="181.7" x2="54.4" y2="198"/>
			<line class="st2" x1="87.7" y1="123.8" x2="111.3" y2="127.1"/>
			<line class="st2" x1="95.8" y1="121.5" x2="88.9" y2="136.9"/>
			<line class="st2" x1="132.1" y1="169.5" x2="133.5" y2="175.8"/>
			<line class="st2" x1="149.5" y1="233.2" x2="150.7" y2="249"/>
		</g>
		<line class="st0" x1="59.8" y1="178.5" x2="52.8" y2="197.5"/>
	</g>
	<g>
		<g>
			<path class="st3" d="M71.7,169.5c6,4.7,15.8,2.1,21.8-1.4c0.7-0.4,0.1-1.4-0.6-1c-5.4,3.2-14.8,5.9-20.3,1.6
				C72,168.2,71.1,169,71.7,169.5L71.7,169.5z"/>
		</g>
	</g>
	<g>
		<g>
			<path class="st3" d="M129.3,169.1c-5.5,4.3-14.9,1.6-20.3-1.6c-0.7-0.4-1.3,0.6-0.6,1c5.9,3.5,15.8,6,21.8,1.4
				C130.8,169.4,129.9,168.6,129.3,169.1L129.3,169.1z"/>
		</g>
	</g>
</g>
</svg>
