<?xml version="1.0" encoding="utf-8"?>
<!-- Generator: Adobe Illustrator 21.0.2, SVG Export Plug-In . SVG Version: 6.00 Build 0)  -->
<svg version="1.1" id="Layer_1" xmlns="http://www.w3.org/2000/svg" xmlns:xlink="http://www.w3.org/1999/xlink" x="0px" y="0px"
	 viewBox="0 0 200 600" style="enable-background:new 0 0 200 600;" xml:space="preserve">
<style type="text/css">
	.st0{fill:#B8BFC4;}
	.st1{fill:#A2A9AD;}
	.st2{display:none;}
	.st3{display:inline;}
</style>
<g>
	<g>
		<g>
			<g>
				<g>
					<path class="st0" d="M64.7,159.1c0.7,0.4,1.2,1,1.3,1.8c1.2-2.9,2.4-5.9,3.6-8.8c0.6,0,1.1,0,1.7,0c-6.9-4-12,5.8-6.1,10.4
						c1.3,1,2.5,2,3.8,2.9c1.5-3.7,3.1-7.3,4.6-11c-0.6-0.1-1-1.2-1.4-1.6c-1.1-0.9-2.2-1.4-3.5-1.8c-2.6-0.9-5.2-1.4-7.9-1.7
						c1.5,1.9,2.9,3.9,4.4,5.8c0.4-6.4,0.7-12.8,1.1-19.2c0.3-5.2-0.5-13.3,3.6-17.3c-1.4,0.6-2.8,1.2-4.2,1.8c0.4,0,0.8,0,1.2-0.1
						c-1.7-1-3.5-2-5.2-3c1.3,2,2,4.6,2.8,6.8c2.2,5.8,12.4,5.7,11.8-1.6c-0.2-2.7-0.1-4.8,0.8-7.4c-3.9-0.5-7.9-1.1-11.8-1.6
						c0.2,9.3,1.9,19.1,10.8,23.9c9,4.8,22,6.6,31.8,4.5c7-1.5,4.8-11.3-1.6-11.8c-8.6-0.7-17.3-1.4-25.2-5.3
						c-1.5,3.7-3.1,7.3-4.6,11c15.9,3.4,32.3,2.6,47.7-2.9c-2.5-1.9-5.1-3.9-7.6-5.8c0.7-1,0.5-0.8-0.6,0.6
						c-0.8,0.9-1.5,1.7-2.3,2.6c-1.6,1.7-3.2,3.4-4.8,5c-1.3,1.3-2.3,2.7-3.9,2.8c-1.8,0.1-4.9-1.6-6.8-2c-4.3-0.8-8.9-0.8-13-2.4
						c-4.1-1.6-5.3-4.8-5.9-9c-2.5,2.5-4.9,4.9-7.4,7.4c3.2,0.9,5.9,2.4,8.1,4.9c1,1.2,1.9,2.5,2.5,3.9c0.3,0.6,0.5,1.2,0.7,1.9
						c0.2,1.6,0.6,1.4,1.1-0.8c-1-0.3-2.6,0.4-3.9,0.1c-1.8-0.4-3.4-1.5-4.7-2.9c-2.5-2.8-3.2-6.6-3.2-10.1
						c-3.9,0.5-7.9,1.1-11.8,1.6c1.2,3.6,2.1,7.2,2.5,11c0.3,3.6-0.1,7.4,1.8,10.7c1.5,2.4,3.8,3.8,5.9,5.5c2.9,2.3,5.1,5.1,7,8.2
						c2.4,4,10.2,3.9,11-1.4c0.5-3,1.2-5.7,2.7-8.4c-3.7-0.5-7.3-1-11-1.4c0.7,3.5,1.4,6.9,2.1,10.4c1,5.1,8.6,5.8,11,1.4
						c1.7-3.1,3.4-6.2,5.2-9.3c-3.7-0.5-7.3-1-11-1.4c0.4,2.5,0.4,5,0.3,7.6c-0.4,7.1,9.6,7.6,11.8,1.6c1.3-3.7,2.7-7.4,4-11
						c-3.9-0.5-7.9-1.1-11.8-1.6c-0.2,0.6-0.3,1.2-0.5,1.8c3.7,0.5,7.3,1,11,1.4c-0.2-1.1,0.5-2.2,1.2-3c-3.1-0.4-6.3-0.8-9.4-1.2
						c2.2,3.8,3.3,7.6,3.4,12c0.1,6.5,10.6,8.5,11.8,1.6c0.4-2.6,1-5.1,1.9-7.5c0.4-1.1,0.9-2.1,1.5-3.2c0.7-1.2,2-2,0.3-2.2
						c-1.7-1-3.5-2-5.2-3c0-1.4,0.1-1,0,1c0,1.2-0.1,2.4-0.2,3.6c-0.3,2.5-0.8,4.8-1.4,7.2c3.9,1.1,7.7,2.1,11.6,3.2
						c0.5-3.2,1.1-6.4,2.2-9.5c0.5-1.5,1-2.9,1.7-4.3c0.3-0.5,0.5-1.1,0.8-1.6c1.6-2.3,0.9-2.3-2.1,0.1c-2-2-4-4-6-6
						c-0.3,3.3-1.2,6.4-2.7,9.4c3.7,1.5,7.3,3.1,11,4.6c0.7-3.6,1.6-7,3.2-10.3c1.5-3.3,3.7-5.9,5.4-9c1.7-3.1,1.4-5.9,1.1-9.3
						c-0.5-4.6-0.5-9.2,0.3-13.8c-2.5,1.4-4.9,2.8-7.4,4.2c2.7,0.7,5.8,0.9,6.5,3.9c0.8,3.5,0.6,6.6,2.2,10c2.9,6.3,12.6,1.8,11-4.6
						c-0.3-1.2-0.6-2.4-0.9-3.5c-1.2-4.7-8.7-6.2-11-1.4c-3.9,8.2-7.3,16.6-10.1,25.2c0.9-1.2,1.8-2.4,2.8-3.6
						c-4.8,2-8,7.1-7.2,12.3c0.4,2.4,1.5,4.4,3.5,5.8c2.5,1.8,4.4,0.8,7,1.3c-1.4-2.5-2.8-4.9-4.2-7.4c0.2-0.3,0.4-0.6,0.6-0.9
						c-5.2,3.6-2.1,13.7,4.6,11c1.7-0.7,3.5-1.4,5.2-2.1c-1.9-3.3-3.9-6.7-5.8-10c-0.5,0.4-1,0.8-1.5,1.2c-4.7,3.7,0.4,11.9,5.8,10
						c2.5-0.9,5-1.8,7.6-2.6c4.4-1.5,5.7-6.5,2.6-10c-4.2-4.9-1.3-12.3,0.4-17.6c-3.9,0-7.7,0-11.6,0c0.5,3.3,2.5,8.8,1.6,12.1
						c-0.6,2.3-4.3,2-6.5,2.3c-6.6,0.9-13.1,3.9-14.1,11.1c-0.5,3.8,0.3,7.7-0.1,11.6c-0.5,4.5-1.2,9-2,13.5
						c-1.5,8.8-3.5,17.6-5.8,26.2c2.9-1.2,5.9-2.4,8.8-3.6c-1-0.7-1-6.9-1.2-8.3c-0.5-4.1-0.8-8.1-1-12.2
						c-0.4-7.8-0.3-15.7,0.2-23.5c-4,0-8,0-12,0c-0.2,13.1-0.2,26.2,0.2,39.3c0.2,7.7,12.1,7.7,12,0c-0.1-9.7,0.6-19.4,2.1-29.1
						c-3.9-0.5-7.9-1.1-11.8-1.6c-1.1,8.4-1.8,16.9-2.3,25.4c4,0,8,0,12,0c-0.3-10.3,0.8-20.4,3.2-30.4c-3.3,0.9-6.7,1.8-10,2.6
						c1.7,1.6,3.4,3.2,5.1,4.9c1.9-3.3,3.9-6.7,5.8-10c-12.8-3.1-25.9-5-39.1-5.6c-4.1-0.2-6.6,4-5.8,7.6c3,13.1,5,26.2,5.8,39.6
						c0.3,5.5,1.2,11.1,7.1,13.3c4.9,1.8,12.1,1.2,17.1,0c13.1-3.3,3-21.4,2.2-29.7c-0.5-5.7,0.2-11.5-3.6-16.2
						c-3.2-4.1-8.5-6.1-13.5-4.4c-3,1-5.2,4.1-4.2,7.4c3,10,4.3,20.1,3.8,30.5c-0.3,6.6,10.9,8.4,11.8,1.6
						c1.1-7.7,2.1-15.4,3.2-23.1c0.2-1.4,1.1-4.4,0.8-5.8c0.7-1.6-0.1-2.3-2.5-1.9c-2.2-1.5-3.1-1.3-2.7,0.5
						c-0.5,1.1-0.2,4.5-0.3,5.7c-0.1,1.9-0.3,3.8-0.4,5.7c-1.2,15.2-2.9,30.1-0.3,45.3c1,5.7,10.6,5.7,11.6,0
						c1.2-6.7,2.7-13.4,4.5-20c-3.9-0.5-7.9-1.1-11.8-1.6c0.5,5.3,0.7,10.6,0.7,15.9c3.7-1,7.5-2,11.2-3c-3.6-7.2-11-4.5-16.5-1.7
						c-2,1-4,1.8-6.1,2.5c-1.2,0.4-3.8,0.4-4.8,1.1c-2.1,0.1-1.6,0.6,1.6,1.7c-0.2-1.2-0.4-2.3-0.6-3.5c-0.3-2.1-0.6-4.2-0.8-6.3
						c-1.7-18.2-1.2-36.8-0.8-55c0.1-5.7-6.4-7.2-10.2-4.2c-2.5,2-3.7,4.9-3.6,8.1c0.2,7.7,11.8,7.7,12,0c0-1.2,0.1-2.4,0.1-3.6
						c-4,0-8,0-12,0c-0.3,13,0.5,25.9,2.3,38.8c0.4,3.2,4.5,4.9,7.4,4.2c3.5-0.9,4.6-4.2,4.2-7.4c-1.6-11.8-2.2-23.7-1.9-35.6
						c0.2-7.7-11.8-7.7-12,0c0,1.2-0.1,2.4-0.1,3.6c4,0,8,0,12,0c0,0.1,0.1,0.3,0.1,0.4c-3.4-1.4-6.8-2.8-10.2-4.2
						c-0.4,19.1-1.2,38.7,1.1,57.7c0.8,6.9,1,17.6,10.4,17.6c3.5,0,7.4-1.1,10.6-2.2c2-0.7,4-1.5,6-2.4c1-0.5,1.9-1,2.9-1.5
						c2-0.7,1.6-1.3-1.3-1.8c2.7,5.5,11.1,2.7,11.2-3c0-5.3-0.2-10.6-0.7-15.9c-0.6-6.4-9.9-8.5-11.8-1.6c-1.8,6.6-3.3,13.2-4.5,20
						c3.9,0,7.7,0,11.6,0c-1.8-10.4-1.1-21.1-0.2-31.6c0.4-5.1,0.9-10.2,1.3-15.3c0.3-4.2,1-9.1-1-13c-4-7.8-13.8-5.2-16.4,2.1
						c-1.6,4.6-1.7,10.1-2.4,15c-0.8,5.5-1.5,10.9-2.3,16.4c3.9,0.5,7.9,1.1,11.8,1.6c0.5-11.4-1-22.8-4.3-33.7
						c-1.4,2.5-2.8,4.9-4.2,7.4c2.2-0.7,1.8,6.2,1.8,7.3c0.2,3.9,0.8,7.8,1.7,11.6c0.3,1.2,2.4,10.9,2.9,10.9c2-2.3,1.7-3.1-0.8-2.3
						c-0.6,0-1.3,0.1-1.9,0.1c-0.8,0-5.3-0.4-4.4,0.4c0.9,0.8,0.2-2.5,0.1-3.5c-0.1-2.2-0.3-4.4-0.5-6.6c-0.3-3.8-0.8-7.5-1.3-11.3
						c-1.1-8.1-2.5-16-4.4-24c-1.9,2.5-3.9,5.1-5.8,7.6c12.1,0.6,24.1,2.3,35.9,5.2c5.7,1.4,10.3-5.8,5.8-10
						c-1.7-1.6-3.4-3.2-5.1-4.9c-3.2-3-9-1.9-10,2.6c-2.6,11-3.9,22.3-3.6,33.6c0.2,7.8,11.6,7.7,12,0c0.5-8.5,1.2-17,2.3-25.4
						c0.8-6.6-10.7-8.3-11.8-1.6c-1.7,10.7-2.6,21.4-2.5,32.2c4,0,8,0,12,0c-0.4-13.1-0.4-26.2-0.2-39.3c0.1-7.8-11.5-7.6-12,0
						c-0.7,10.3-0.7,20.7,0.3,31c0.7,8,0.5,18.2,7.6,23.3c3.2,2.3,7.9-0.1,8.8-3.6c2.5-9.3,4.5-18.7,6.1-28.1
						c0.8-4.9,1.6-9.9,2.1-14.8c0.2-2.1-0.6-9.2,0.1-10c1.7-1.7,6.6-1.2,8.9-1.6c3.6-0.7,7-2.4,9.2-5.4c4.6-6.5,1.5-16.1,0.3-23.3
						c-1-6.3-9.9-5.1-11.6,0c-3.3,10.2-4.9,20.6,2.6,29.2c0.9-3.3,1.8-6.7,2.6-10c-2.5,0.9-5,1.8-7.6,2.6c1.9,3.3,3.9,6.7,5.8,10
						c0.5-0.4,1-0.8,1.5-1.2c4.6-3.6-0.4-12.3-5.8-10c-1.7,0.7-3.5,1.4-5.2,2.1c1.5,3.7,3.1,7.3,4.6,11c2.5-1.7,3.8-3.4,4.9-6.3
						c1.1-2.9-1.2-6.8-4.2-7.4c-1.1-0.2-2.8-0.7-3.9-0.3c-1.8-0.1-1.7,0.5,0.4,1.8c0.5,1.6,1.1,2.1,1.9,1.5c2.9,0.1,4.2-4.8,4.8-6.7
						c2.3-6.7,5-13.3,8-19.7c-3.7-0.5-7.3-1-11-1.4c0.3,1.2,0.6,2.4,0.9,3.5c3.7-1.5,7.3-3.1,11-4.6c-0.9-2-0.4-4.8-0.9-7
						c-0.5-2.4-1.5-4.6-3.1-6.4c-3.1-3.5-7.5-5-11.9-6c-2.9-0.7-6.9,0.9-7.4,4.2c-0.7,4.4-1.2,8.7-1,13.1c0.2,3.7,1.4,6.3-0.4,8.9
						c-4.2,6.2-7.1,13.1-8.5,20.4c-1.2,6.2,7.8,11.1,11,4.6c2.4-5,3.8-10,4.3-15.5c0.3-3.3-3-5.9-6-6c-9.8-0.4-13.1,16.9-14.1,24.1
						c-1.1,7.4,9.6,10.9,11.6,3.2c1.7-6.7,5.9-23.7-5.4-24.1c-9.3-0.3-13.6,14.7-14.8,21.8c3.9,0.5,7.9,1.1,11.8,1.6
						c-0.1-6.5-1.7-12.5-5-18.1c-1.9-3.2-6.8-4.1-9.4-1.2c-3.9,4.3-5.1,9-4.3,14.7c0.7,5,8.9,5.9,11,1.4c1.2-2.7,1.8-4.9,2.1-7.8
						c0.8-7.1-9.6-7.5-11.8-1.6c-1.3,3.7-2.7,7.4-4,11c3.9,0.5,7.9,1.1,11.8,1.6c0.2-3.7-0.1-7.2-0.7-10.8c-0.8-5.2-8.6-5.6-11-1.4
						c-1.7,3.1-3.4,6.2-5.2,9.3c3.7,0.5,7.3,1,11,1.4c-0.7-3.5-1.4-6.9-2.1-10.4c-1-5.1-8.6-5.8-11-1.4c-2,3.6-3.3,7.2-3.9,11.2
						c3.7-0.5,7.3-1,11-1.4c-1.7-2.8-3.6-5.4-5.8-7.8c-1.8-1.9-5-3.5-6.5-5.6c-1.4-1.9-0.8-6-1.2-8.5c-0.5-3.7-1.3-7.2-2.5-10.8
						c-2-6.2-11.9-5.4-11.8,1.6c0.2,7.8,2.7,15.5,8.9,20.5c5.7,4.6,14.5,6.5,21.1,2.6c7-4.1,5.1-12.6,1.8-18.5
						c-3.7-6.6-10-11.1-17.2-13.1c-4.8-1.3-8,3-7.4,7.4c1,6.6,4.3,12.3,10.2,15.6c6.7,3.7,14.4,2.9,21.5,5.3
						c3.3,1.1,6.3,2.3,9.7,1.1c3-1,5.3-3.4,7.6-5.5c4.4-4.3,12.4-10.5,11.9-17.3c-0.3-3.6-3.7-7.2-7.6-5.8
						c-13.4,4.8-27.4,5.9-41.3,2.9c-6.3-1.3-11,7.8-4.6,11c9.8,4.9,20.4,6,31.2,6.9c-0.5-3.9-1.1-7.9-1.6-11.8
						c-6.6,1.4-14.8-0.4-21.1-2.7c-6.1-2.3-6.2-8.5-6.3-14.2c-0.2-6.8-9.7-8.1-11.8-1.6c-1.1,3.5-1.5,6.9-1.2,10.6
						c3.9-0.5,7.9-1.1,11.8-1.6c-1.8-4.7-3.1-12.2-9.2-12.6c-5.7-0.4-8.7,5.5-10.4,10.1c-1.9,5.3-1.8,11.1-2.1,16.6
						c-0.4,6.7-0.8,13.5-1.2,20.2c-0.1,2.3,1.9,5.4,4.4,5.8c3,0.4,5.9,1.1,8.8,2c-1.2-0.9-2.4-1.8-3.6-2.8c1.5,3.2,4.2,5.1,7.6,5.9
						c7,1.5,9.9-6.9,4.6-11c-1.3-1-2.5-2-3.8-2.9c-2,3.5-4,6.9-6.1,10.4c2.5,1.5,4.7,1.6,7.6,1.2c4.3-0.6,4.9-5.8,3.6-8.8
						c-0.7-1.7-1.8-3.1-3.2-4.3C67.4,145.6,58.9,154.1,64.7,159.1L64.7,159.1z"/>
				</g>
			</g>
			<g>
				<g>
					<path class="st0" d="M92.5,231.2c7.7,0,7.7-12,0-12C84.8,219.2,84.8,231.2,92.5,231.2L92.5,231.2z"/>
				</g>
			</g>
			<g>
				<g>
					<path class="st0" d="M105.7,215.9c-0.7,4.6-0.9,9-0.3,13.6c1.5-1.9,2.9-3.9,4.4-5.8c-6,1.6-13.7-2.4-18.6-5.9
						c0.9,1.2,1.8,2.4,2.8,3.6c-0.1-0.2-0.1-0.5-0.2-0.7c-0.2,1.5-0.4,3.1-0.6,4.6c0.1-0.2,0.2-0.4,0.3-0.6c-3.7-1-7.5-2-11.2-3
						c0.1,2.9-0.6,4.9-2.2,7.2c-2.2,3.3,0.1,7.8,3.6,8.8c1.6,0.7,1.6,0.3-0.1-1.3c-0.1,2.6,1.9,5.2,4.4,5.8
						c5.1,1.3,10.3-0.7,15.5-0.5c-0.5-3.9-1.1-7.9-1.6-11.8c-1.2,0.2-2.5,0.4-3.7,0.6c1.1,3.9,2.1,7.7,3.2,11.6
						c1.7-0.3,3.3-0.4,5-0.1c0.5-3.9,1.1-7.9,1.6-11.8c-1.1,0.1-2.1,0.2-3.2,0.4c0.5,3.9,1.1,7.9,1.6,11.8c1.9-0.4,3.1-0.2,5,0.4
						c0-3.9,0-7.7,0-11.6c-0.7,0-1.4,0-2.1,0.1c0.5,3.9,1.1,7.9,1.6,11.8c2.7-0.6,5.4,1.4,8.3,0.5c1.9-0.6,3.8-2.1,4.2-4.2
						c1.1-5.4-0.5-11.7-1.1-17.1c-0.7-6.2-1.3-12.3-1.8-18.5c-0.5-5.8-0.9-11.7-1-17.6c-0.1-3.8-1.7-12,4-12.2c-2-2-4-4-6-6
						c-1.4,21.1-2.2,42.4-6.1,63.3c-1.4,7.5,10.1,10.8,11.6,3.2c4.1-21.9,5.1-44.3,6.6-66.5c0.2-3.1-2.9-6.1-6-6
						c-5.8,0.3-11.3,3-14.1,8.3c-3.1,5.8-2,13.5-1.8,19.8c0.3,7.8,1,15.6,1.8,23.4c0.4,3.6,0.7,7.1,1.1,10.7
						c0.2,1.9,0.4,3.9,0.6,5.8c0.2,1.7,1.1,4.5,0.7,6.1c1.4-1.4,2.8-2.8,4.2-4.2c-0.3,0.1-3.4-0.9-3.8-0.9c-1.6-0.1-3,0-4.6,0.4
						c-6.6,1.5-5.2,11.9,1.6,11.8c1.8,0,3.5-0.3,5.3-0.5c6.3-0.9,5-9.9,0-11.6c-3.9-1.3-7.4-1.3-11.3-0.4
						c-6.4,1.5-5.2,12.6,1.6,11.8c1.1-0.1,2.1-0.2,3.2-0.4c6.1-0.7,8.9-10.5,1.6-11.8c-4-0.7-7.4-0.7-11.4,0.1
						c-7.7,1.5-4.3,12.8,3.2,11.6c1.2-0.2,2.5-0.4,3.7-0.6c6.9-1.1,4.9-11.6-1.6-11.8c-2.3-0.1-4.5,0-6.7,0.3
						c-1.7,0.2-3.9,1.1-5.6,0.7c1.5,1.9,2.9,3.9,4.4,5.8c0.3-5.6-3.9-8.8-8.8-10.2c1.2,2.9,2.4,5.9,3.6,8.8c2.7-4,3.9-8.5,3.8-13.3
						c-0.1-5.5-8.6-8.7-11.2-3c-3.4,7.6,3.5,10.5,9.3,13.3c6.9,3.3,13,5.4,20.7,3.3c2.3-0.6,4.7-3.2,4.4-5.8
						c-0.4-3.5-0.6-6.9-0.1-10.4C118.3,211.6,106.8,208.3,105.7,215.9L105.7,215.9z"/>
				</g>
			</g>
			<g>
				<g>
					<path class="st0" d="M75.9,164.1c-2.2-0.4-4.3-0.8-6.5-1.2c-1.9-0.3-2.7,2.3-0.8,2.9c1.5,0.4,2.9,1,4.3,1.7
						c0.4-0.9,0.8-1.8,1.2-2.7c-0.8-0.1-1.6-0.3-2.5-0.4c-1.4-0.3-2.6,1.4-1.5,2.5c0.2,0.2,0.5,0.5,0.7,0.7c0.6-0.8,1.2-1.6,1.8-2.4
						c-6.3-3.8-13.1-5.8-20.4-5.9c0.5,0.6,1,1.3,1.4,1.9c0.4-1.2,0.9-2.5,1.3-3.7c-1-0.1-2-0.3-2.9-0.4c-0.1,0.3-0.3,0.6-0.4,0.9
						c0.7,0.6,1.5,1.1,2.2,1.7c1.5-6.2,2.5-12.5,2.9-18.9c-0.8,0.4-1.5,0.9-2.3,1.3c2.6,1.7,0.8,16.2-1.6,17.4c-1,0.5-0.9,2,0,2.6
						c1.4,0.8,1.3,0.8,2.9,1.2c0.1-1,0.3-2,0.4-2.9c-0.7-0.2-1.4-0.5-2.1-0.7c-0.3,0.9-0.5,1.9-0.8,2.8c2.2,0.3,4,1,5.8,2.2
						c0.5-0.9,1-1.7,1.5-2.6c-0.6-0.4-1.3-0.7-1.9-1.1c-0.4,0.9-0.8,1.8-1.2,2.7c3.3,0.8,6.3,1.9,9.4,3.4c0.4-0.9,0.8-1.8,1.2-2.7
						c-2.6-0.7-5.3-1.4-7.9-2.2c-1.9-0.5-2.7,2.4-0.8,2.9c2.6,0.7,5.3,1.4,7.9,2.2c1.6,0.4,2.7-1.9,1.2-2.7
						c-3.2-1.7-6.5-2.9-10.1-3.8c-1.6-0.4-2.7,1.9-1.2,2.7c0.6,0.4,1.3,0.7,1.9,1.1c1.7,1,3.1-1.5,1.5-2.6c-2.3-1.5-4.5-2.3-7.3-2.6
						c-1.5-0.2-1.9,2.1-0.8,2.8c1.6,0.9,1.8,0.9,3.6,1.1c1.7,0.2,2-2.6,0.4-2.9c-0.7-0.3-1.4-0.6-2.1-0.9c0,0.9,0,1.7,0,2.6
						c3.9-1.9,3.6-7.7,3.8-11.4c0.2-3.4,1.1-9-2.2-11.2c-1-0.7-2.2,0.2-2.3,1.3c-0.4,6.1-1.3,12.1-2.8,18.1
						c-0.3,1.2,1.1,2.5,2.2,1.7c1.4-1,1.9-1.8,1.9-3.5c0-1.8-2.4-1.9-2.9-0.4c-0.4,1.2-0.9,2.5-1.3,3.7c-0.3,0.9,0.5,1.9,1.4,1.9
						c6.9,0.1,13.1,1.9,18.9,5.5c1.4,0.9,3-1.2,1.8-2.4c-0.2-0.2-0.5-0.5-0.7-0.7c-0.5,0.8-1,1.7-1.5,2.5c0.8,0.1,1.6,0.3,2.5,0.4
						c1.5,0.3,2.8-2,1.2-2.7c-1.7-0.8-3.3-1.4-5-2c-0.3,1-0.5,1.9-0.8,2.9c2.2,0.4,4.3,0.8,6.5,1.2C77,167.3,77.8,164.4,75.9,164.1
						L75.9,164.1z"/>
				</g>
			</g>
			<g>
				<g>
					<path class="st0" d="M129.4,169.3c1.8-1.1,3.6-2.2,5.4-3.2c-0.7-0.7-1.4-1.4-2.1-2.1c-0.3,0.5-0.7,0.9-1,1.4
						c-1,1.3,0.8,2.7,2.1,2.1c1.8-1,3.1-1.4,5.1-1.7c-0.4-0.9-0.8-1.8-1.2-2.7c-0.9,0.5-1.9,1-2.8,1.6c-1.4,0.8-0.4,3.4,1.2,2.7
						c1.1-0.5,9.6-4.9,10.6-4.3c1.1,0.6,2.7-0.4,2.2-1.7c-1.2-3.3-2-6.5-2.2-10c-1,0.1-2,0.3-2.9,0.4c0.7,2.6,1.4,5.3,2.1,7.9
						c1-0.3,1.9-0.5,2.9-0.8c-1-3.2-1.8-6.4-2.2-9.8c-0.9,0.3-1.9,0.5-2.8,0.8c0.4,0.7,0.7,1.3,1.1,2c0.9-0.4,1.8-0.8,2.7-1.2
						c-2.4-3.5-1.5-7.9-1.6-11.9c-0.1-3.6-0.5-7.2-1-10.7c-1,0.3-1.9,0.5-2.9,0.8c0.7,1.7,1,3.3,0.9,5.1c1-0.1,2-0.3,2.9-0.4
						c-0.2-1.4-0.4-2.9-0.7-4.3c-0.3-1.9-3.2-1.1-2.9,0.8c0.2,1.4,0.4,2.9,0.7,4.3c0.3,1.7,2.9,1.2,2.9-0.4c0-2.1-0.3-3.9-1-5.9
						c-0.7-1.8-3.2-1.1-2.9,0.8c0.8,5,0.9,9.8,0.9,14.8c0,3.2,0.2,5.9,2,8.6c0.9,1.3,3.3,0.6,2.7-1.2c-0.5-1.5-0.4-1.4-1.4-2.7
						c-0.8-1-3-0.9-2.8,0.8c0.5,3.6,1.2,7.1,2.3,10.6c0.6,1.8,3.4,1.1,2.9-0.8c-0.7-2.6-1.4-5.3-2.1-7.9c-0.4-1.6-3.1-1.3-2.9,0.4
						c0.3,3.8,1,7.3,2.3,10.8c0.7-0.6,1.5-1.1,2.2-1.7c-1.3-0.7-1.9-0.4-3.3,0.1c-3.3,1.1-6.5,2.7-9.6,4c0.4,0.9,0.8,1.8,1.2,2.7
						c0.9-0.5,1.9-1,2.8-1.6c1.6-0.9,0.4-3-1.2-2.7c-2.1,0.3-3.9,1-5.8,2c0.7,0.7,1.4,1.4,2.1,2.1c0.3-0.5,0.7-0.9,1-1.4
						c1-1.3-0.8-2.7-2.1-2.1c-1.8,1-3.6,2.1-5.4,3.2C126.3,167.8,127.8,170.4,129.4,169.3L129.4,169.3z"/>
				</g>
			</g>
			<g>
				<g>
					<path class="st0" d="M78.4,238.8c-0.1,0.1-2.2,2.6-1.2,2.7c0.1,1,0.3,2,0.4,2.9c3.6-1,7.1-1.5,10.8-1.7
						c1.6-0.1,2.1-2.6,0.4-2.9c-2.9-0.6-5.4-0.6-8.3,0.1c-0.8,0.2-1.2,1.1-1,1.8c0.1,0.3,0.1,0.5,0.2,0.8c0.5-0.6,1-1.3,1.4-1.9
						c-0.8-0.2-1.5-0.4-2.3-0.6c-1-0.8-2.5-0.3-2.6,1.1c0,0.1,0,0.3,0,0.4c0.4-0.5,0.7-1,1.1-1.4c-0.2,0-0.3,0.1-0.5,0.1
						c0.6,0.2,1.1,0.5,1.7,0.7c-1-1.3-0.8-4.9,1.1-5.6c1.1-0.4,4,1,5.3,1.3c3.4,0.6,6.8,0.2,10.2,0.7c6.6,0.9,12.7,4,19.4,4.9
						c-0.1-1-0.3-2-0.4-2.9c-1.8,0.2-3.7,0.5-5.5,0.7c-1.7,0.2-1.3,3.1,0.4,2.9c4.4-0.5,8.3,1.7,12.5,2.4c1.1,0.2,2.1-0.7,1.8-1.8
						c-0.8-3.2-2.8-10.3-0.4-13.2c-0.8-0.2-1.7-0.4-2.5-0.7c0.2,1.1,0.4,2.1,0.6,3.2c0.2,1.8,3,2,3,0c-0.1-2.5-0.1-4.9-0.2-7.4
						c-0.9,0.4-1.7,0.7-2.6,1.1c0.3,0.5,0.6,1,0.9,1.5c0.6,1.5,2.9,1.4,2.9-0.4c0-1.5-0.1-2.9-0.3-4.4c-0.3-1.9-3.2-1.1-2.9,0.8
						c0.2,1.2,0.3,2.4,0.2,3.6c1-0.1,2-0.3,2.9-0.4c-0.5-1.3-0.8-1.7-1.6-2.8c-0.8-1-2.6-0.2-2.6,1.1c0.1,2.5,0.1,4.9,0.2,7.4
						c1,0,2,0,3,0c-0.2-1.6-0.3-2.4-0.7-4c-0.2-1-1.8-1.5-2.5-0.7c-3.5,4.1-1.5,11.4-0.4,16.1c0.6-0.6,1.2-1.2,1.8-1.8
						c-4.6-0.7-8.6-3-13.3-2.5c0.1,1,0.3,2,0.4,2.9c1.8-0.2,3.7-0.5,5.5-0.7c1.8-0.2,1.1-2.8-0.4-2.9c-5.8-0.8-10.8-3-16.4-4.4
						c-5.2-1.3-10.6-0.6-15.9-1.9c-2-0.5-5.3-1.9-6.9,0.3c-1.3,1.8-0.7,7.6,0.6,9.3c0.4,0.5,1,0.9,1.7,0.7c0.2,0,0.3-0.1,0.5-0.1
						c0.6-0.2,1.1-0.8,1.1-1.4c0-0.1,0-0.3,0-0.4c-0.9,0.4-1.7,0.7-2.6,1.1c1.5,1.2,2.5,1.6,4.4,1.5c1-0.1,1.7-0.9,1.4-1.9
						c-0.1-0.3-0.1-0.5-0.2-0.8c-0.3,0.6-0.7,1.2-1,1.8c2.5-0.6,4.1-0.6,6.7-0.1c0.1-1,0.3-2,0.4-2.9c-4,0.2-7.7,0.8-11.6,1.8
						c-1.7,0.5-1.3,2.8,0.4,2.9c2.8,0.2,1.8-2.2,3.3-3.5C82,239.6,79.9,237.5,78.4,238.8L78.4,238.8z"/>
				</g>
			</g>
			<g>
				<g>
					<path class="st0" d="M68.7,113.8c0.6-2.7,0.2-4.8-2.7-5.6c0.2,0.8,0.4,1.7,0.7,2.5c2.1-2.3,9-1.5,11.8-1.7
						c-0.5-0.6-1-1.3-1.4-1.9c-1.3,5.1-1.6,10.2-0.9,15.5c1-0.1,2-0.3,2.9-0.4c-1.4-4.6-1.8-9.2-1.9-14c-1,0.1-2,0.3-2.9,0.4
						c1.9,9.3-1.8,20.2,4.8,28.4c2.3,2.9,5.5,3.6,9,4.5c5,1.2,10.1,2.7,15.3,2.9c7.4,0.3,15.1-3.2,18.7-9.9
						c1.9-3.7,2.5-7.8,2.5-11.9c0-2.8-0.4-5.5-0.7-8.3c-0.1-0.7-0.8-3.1-0.4-3.7c0.8-1.4,1.5-0.8,3.1-0.5c1.9,0.3,2.7-2.5,0.8-2.9
						c-1.6-0.3-4.7-1.6-6.2-0.4c-1.9,1.5-0.5,5.6-0.3,7.5c1.1,10,1.4,21.6-9.8,25.9c-5,1.9-10,1.1-15.1,0
						c-4.1-0.9-10.5-1.2-13.6-4.1c-7.5-6.7-3.4-19.7-5.1-28.4c-0.3-1.7-3-1.3-2.9,0.4c0.2,5.1,0.5,10,2.1,14.8
						c0.5,1.5,3.2,1.4,2.9-0.4c-0.7-5-0.4-9.8,0.8-14.7c0.2-0.9-0.4-1.9-1.4-1.9c-4.2,0.2-10.9-0.9-14,2.6c-0.7,0.8-0.5,2.2,0.7,2.5
						c0.2,0.6,0.4,1.3,0.6,1.9C65.4,114.9,68.3,115.7,68.7,113.8L68.7,113.8z"/>
				</g>
			</g>
		</g>
		<g>
			<g>
				<path class="st1" d="M70.2,168.4c6.3,3,17.2,4.7,21.7-2c0.4-0.6-0.6-1.2-1-0.6c-4,5.9-14.5,4.3-20.1,1.6
					C70.1,167,69.5,168.1,70.2,168.4L70.2,168.4z"/>
			</g>
		</g>
		<g>
			<g>
				<path class="st1" d="M128.4,167.6c-5.6,2.7-16.1,4.4-20.1-1.6c-0.4-0.6-1.5,0-1,0.6c4.5,6.7,15.5,5,21.7,2
					C129.7,168.3,129.1,167.3,128.4,167.6L128.4,167.6z"/>
			</g>
		</g>
	</g>
	<g>
		<g>
			<g>
				<g>
					<g>
						<path d="M122.9,245.7c3.9-25.7,5.9-51.3,6.8-77.2c0-0.8-1.2-0.8-1.2,0c-0.9,25.8-2.8,51.3-6.8,76.9
							C121.7,246.1,122.8,246.4,122.9,245.7L122.9,245.7z"/>
					</g>
				</g>
				<g>
					<g>
						<path d="M76.8,245.5c-3.3-25.7-5-51.5-5.8-77.4c0-0.8-1.2-0.8-1.2,0c0.8,25.9,2.4,51.6,5.8,77.4
							C75.7,246.3,76.9,246.3,76.8,245.5L76.8,245.5z"/>
					</g>
				</g>
				<g>
					<g>
						<path d="M72.1,133.7c-10.5,8-14,26.4-2.1,34.8c0.6,0.4,1.2-0.6,0.6-1c-11.1-7.9-7.6-25.2,2.1-32.7
							C73.3,134.3,72.7,133.2,72.1,133.7L72.1,133.7z"/>
					</g>
				</g>
				<g>
					<g>
						<path d="M130.3,168.8c13.9-6.7,8.9-28.3-1.4-35.9c-0.6-0.5-1.2,0.6-0.6,1c9.6,7.1,14.4,27.5,1.4,33.8
							C129,168.1,129.6,169.2,130.3,168.8L130.3,168.8z"/>
					</g>
				</g>
				<g class="st2">
					<g class="st3">
						<path d="M72.7,134.3c1.1-4,0.9-8.4,1.1-12.6c0.2-4.9,0.4-9.8,0.5-14.8c0-0.8-1.2-0.8-1.2,0c-0.1,4.3-0.3,8.6-0.4,12.9
							c-0.2,4.6,0.1,9.7-1.1,14.1C71.3,134.8,72.5,135.1,72.7,134.3L72.7,134.3z"/>
					</g>
				</g>
				<g class="st2">
					<g class="st3">
						<path d="M129.2,133.5c0.8-8.9,1-17.8,0.6-26.7c0-0.8-1.2-0.8-1.2,0c0.4,8.9,0.2,17.8-0.6,26.7
							C127.9,134.3,129.1,134.2,129.2,133.5L129.2,133.5z"/>
					</g>
				</g>
				<g>
					<g>
						<path d="M76.9,245.4c15.2-3.2,30.7-2.7,45.8,0.7c0.8,0.2,1.1-1,0.3-1.2c-15.3-3.5-30.9-4-46.4-0.7
							C75.8,244.4,76.1,245.5,76.9,245.4L76.9,245.4z"/>
					</g>
				</g>
				<g>
					<g>
						<path d="M80.6,121.1c-2-1.4-1-5.4-0.9-7.6c0.1-2.2,0.2-4.3,0.3-6.5c0-0.8-1.2-0.8-1.2,0c-0.2,3.4-0.3,6.9-0.5,10.3
							c-0.1,2,0,3.6,1.7,4.8C80.7,122.5,81.3,121.5,80.6,121.1L80.6,121.1z"/>
					</g>
				</g>
				<g>
					<g>
						<path d="M120,122.7c1.7-1.2,1.8-2.8,1.7-4.8c-0.1-3.4-0.3-6.9-0.5-10.3c0-0.8-1.2-0.8-1.2,0c0.1,2.2,0.2,4.3,0.3,6.5
							c0.1,2.1,1,6.2-0.9,7.6C118.8,122.1,119.4,123.1,120,122.7L120,122.7z"/>
					</g>
				</g>
			</g>
			<g>
				<g>
					<g>
						<path d="M79.4,105.9C79.4,105.9,79.4,105.9,79.4,105.9c-0.6-0.5-1.4,0.4-0.8,0.9c0.5,0.4,1.2,0.4,1.7,0
							C80.8,106.2,80,105.4,79.4,105.9L79.4,105.9z"/>
					</g>
				</g>
				<g>
					<g>
						<path d="M79.3,105.3c-5.6,0.4-13,0.3-17.7,3.9c-4.3,3.3-6.1,9.3-7.2,14.3c-0.2,0.8,1,1.1,1.2,0.3c1.2-5.1,3-11.5,7.9-14.4
							c4.5-2.7,10.8-2.6,15.9-2.9C80.1,106.5,80.1,105.3,79.3,105.3L79.3,105.3z"/>
					</g>
				</g>
				<g>
					<g>
						<path d="M54.7,123c-1.5,5.5-1.2,11.5-1.7,17.1c-0.7,7.2-1.7,14.5-2.9,21.6c-0.1,0.8,1,1.1,1.2,0.3c1.1-6,1.9-12.1,2.6-18.1
							c0.7-6.7,0.2-14.1,2-20.6C56,122.5,54.9,122.2,54.7,123L54.7,123z"/>
					</g>
				</g>
				<g>
					<g>
						<path d="M50.6,162.6c6,2.1,12.1,4.1,18.2,6c0.7,0.2,1-0.7,0.5-1.1c-0.2-0.1-0.4-0.2-0.6-0.4c-0.6-0.4-1.3,0.6-0.6,1
							c0.2,0.1,0.4,0.2,0.6,0.4c0.2-0.4,0.3-0.7,0.5-1.1c-6.1-1.9-12.2-3.9-18.2-6C50.1,161.2,49.8,162.3,50.6,162.6L50.6,162.6z"/>
					</g>
				</g>
			</g>
			<g>
				<g>
					<g>
						<path d="M119.6,107.4c0.5,0.5,1.2,0.4,1.7,0c0.6-0.5-0.3-1.3-0.8-0.8c0,0,0,0,0,0C119.9,106,119,106.8,119.6,107.4
							L119.6,107.4z"/>
					</g>
				</g>
				<g>
					<g>
						<path d="M120.5,107.1c5.1,0.4,11.4,0.3,15.9,2.9c4.9,2.9,6.7,9.2,7.9,14.4c0.2,0.8,1.3,0.4,1.2-0.3c-1.1-5-2.9-11-7.2-14.3
							c-4.7-3.6-12-3.5-17.7-3.9C119.7,105.9,119.7,107.1,120.5,107.1L120.5,107.1z"/>
					</g>
				</g>
				<g>
					<g>
						<path d="M144,123.9c1.8,6.5,1.3,13.9,2,20.6c0.6,6.1,1.5,12.1,2.6,18.1c0.1,0.8,1.3,0.4,1.2-0.3c-1.3-7.2-2.3-14.4-2.9-21.6
							c-0.5-5.6-0.2-11.6-1.7-17.1C145,122.8,143.8,123.1,144,123.9L144,123.9z"/>
					</g>
				</g>
				<g>
					<g>
						<path d="M149,162.1c-6,2.1-12.1,4.1-18.2,6c0.2,0.4,0.3,0.7,0.5,1.1c0.2-0.1,0.4-0.2,0.6-0.4c0.6-0.4,0-1.5-0.6-1
							c-0.2,0.1-0.4,0.2-0.6,0.4c-0.6,0.4-0.2,1.3,0.5,1.1c6.1-1.9,12.2-3.9,18.2-6C150,163,149.7,161.8,149,162.1L149,162.1z"/>
					</g>
				</g>
			</g>
		</g>
		<g>
			<g>
				<path d="M79.5,122.1c10.9,8.4,29,5.1,40.8,0.6c0.7-0.3,0.4-1.4-0.3-1.2c-11.5,4.4-29.2,7.7-39.9-0.4
					C79.5,120.6,78.9,121.6,79.5,122.1L79.5,122.1z"/>
			</g>
		</g>
	</g>
</g>
</svg>
