<?xml version="1.0" encoding="utf-8"?>
<!-- Generator: Adobe Illustrator 21.0.2, SVG Export Plug-In . SVG Version: 6.00 Build 0)  -->
<svg version="1.1" id="Layer_1" xmlns="http://www.w3.org/2000/svg" xmlns:xlink="http://www.w3.org/1999/xlink" x="0px" y="0px"
	 viewBox="0 0 200 600" style="enable-background:new 0 0 200 600;" xml:space="preserve">
<style type="text/css">
	.st0{fill:#140C47;}
	.st1{fill:#010101;}
</style>
<g>
	<g>
		<g>
			<g>
				<path class="st0" d="M34.8,293.2c-3.8,2.4-5.6,2.4-5.2,0c0-1-1.3-1.6-2-0.8c-0.5,0.5-1.1,1-1.6,1.4c0.6,0.2,1.2,0.5,1.8,0.7
					c0-0.5,0-0.9,0-1.4c-0.8-0.1-1.6-0.2-2.4-0.3c-0.2,0.6-0.4,1.1-0.6,1.7c0.7,0.1,1.5,0.2,2.2,0.3c0.1-0.4,0.1-0.8,0.2-1.2
					c-0.8-0.1-1.6-0.2-2.4-0.3c-0.1,0.5-0.2,1-0.4,1.5c0.7,0.2,1.5,0.4,2.2,0.6c0.2-2.1,0.7-3.8,1.4-5.7c0.5-1.3-1.6-2.1-2.2-0.9
					c-0.4,0.6-0.8,1.2-1.2,1.8c0.7,0.4,1.3,0.8,2,1.2c0.1-0.3,1.4-3.9,2.1-4.4c0.8-0.6,0.7-0.1,1.8-0.3c1.6-0.2,2.7-0.2,4-1.3
					c0.7-0.6,1-1.9,1.5-2.3c0.8-0.6,0.2,0.1,1.1-0.1c0.3-0.1,6.4,0.2,4.8,0c0.1-0.8,0.2-1.6,0.3-2.4c-1.6,0-3.1-0.3-4.6-0.7
					c-1.5-0.4-2.1,1.8-0.6,2.3c3.1,1.2,6.1,1.7,9.5,1.9c1.3,0,1.7-2.1,0.3-2.4c-1.2-0.2-3-0.3-4-1.2c-0.4,0.7-0.8,1.3-1.2,2
					c1.9,0.6,4.6,0.6,6.4,1.5c0.3-0.1,0.6-0.2,0.8-0.3c0.1,0.4,0.2,0.9,0.3,1.3c-0.1-0.1,1.2,2.9,1.2,2.8c0.6,1.2,2.5,0.4,2.2-0.9
					c-0.4-1.4-0.7-2.7-1.1-4.1c-0.7,0.3-1.5,0.6-2.2,0.9c0.3,0.6,0.5,1.3,0.8,1.9c0.8-0.2,1.5-0.4,2.3-0.6c-0.5-1-0.8-2-1-3.1
					c-0.8,0.2-1.5,0.4-2.3,0.6c0.7,2.4,1.2,4.8,1.6,7.3c0.8-0.2,1.5-0.4,2.3-0.6c-0.2-0.8-0.3-1.6-0.5-2.5c-0.8,0.1-1.6,0.2-2.4,0.3
					c0.4,0.9,0.6,1.8,0.8,2.7c0.3,1.5,2.5,0.8,2.3-0.6c-0.1-1-0.3-2-0.4-2.9c-0.8,0.2-1.5,0.4-2.3,0.6c0.3,0.8,0.6,1.6,0.9,2.4
					c0.5,1.4,2.7,0.9,2.3-0.6c-0.3-1.1-0.6-2.1-0.8-3.2c-0.8,0.2-1.5,0.4-2.3,0.6c1.2,3.1,0.4,5.7,0.5,8.8c0.1,1.3,2,1.6,2.4,0.3
					c0.3-1,0.6-2,0.9-3.1c-0.8-0.1-1.6-0.2-2.4-0.3c0.1,1,0.2,2.1,0.1,3.2c0.8-0.1,1.6-0.2,2.4-0.3c-0.1-0.6-0.1-1.2-0.2-1.8
					c0-1.6-2.3-1.5-2.4,0c-0.4,4-1.1,8.6-6.2,8.5c-1.2,0-1.6,1.6-0.6,2.2c0.4,0.2,0.7,0.4,1.1,0.7c0.2-0.7,0.4-1.5,0.6-2.2
					c-0.1,0-0.3,0-0.4,0c0,0.8,0,1.6,0,2.4c3.1-0.2,5.9-1.4,7.5-4.2c0.8-1.4,2-4.1,0.5-5.4c-0.5-0.4-1.2-0.5-1.7,0
					c-1.9,1.9-3.7,3.8-5.6,5.7c0.6,0.5,1.3,1,1.9,1.5c0.5-1.3,1.3-2.5,2.3-3.6c-0.6-0.5-1.3-1-1.9-1.5c0.2-0.3,0.5-0.5,0.7-0.8
					c-0.2-0.6-0.5-1.2-0.7-1.8c-0.5,0.9-3.2,5.9-4.8,2.3c-0.6-1.4,3-4.9,3.8-5.6c-0.7-0.2-1.3-0.4-2-0.5c0.5,2.5-3.1,7.2-5.4,8
					c0.5,0.5,1,1,1.5,1.5c0.7-3.5,3-6.2,5.4-8.6c-0.6-0.1-1.3-0.2-1.9-0.2c0.8,1.3-3.3,6.6-4,7.4c0.7,0.4,1.3,0.8,2,1.2
					c1.2-3,2.7-5.5,4.9-7.9c-0.7-0.4-1.3-0.8-2-1.2c-0.8,2.6-1.8,5-3.3,7.3c0.7,0.4,1.4,0.8,2.1,1.2c1.1-2.5,2.4-4.6,4-6.8
					c-0.7-0.3-1.5-0.6-2.2-0.9c-0.8,2.8-2,5.4-3.5,8c0.7,0.3,1.5,0.6,2.2,0.9c0.8-2.6,1.9-4.9,3.6-7c-0.7-0.4-1.3-0.8-2-1.2
					c-0.7,2.3-1.5,4.5-2.6,6.7c0.7,0.3,1.5,0.6,2.2,0.9c0.7-1.8,1.6-3.2,2.6-4.8c-0.7-0.3-1.5-0.6-2.2-0.9c-1,2.6-2.1,4.9-3.6,7.2
					c0.7,0.3,1.5,0.6,2.2,0.9c0.8-2.4,1.8-4.3,3.4-6.3c-0.7-0.3-1.5-0.6-2.2-0.9c-0.5,1.8-1.2,3.5-2.1,5.2c0.7,0.3,1.5,0.6,2.2,0.9
					c0.5-1.6,1.2-3,2.1-4.4c-0.7-0.3-1.5-0.6-2.2-0.9c-0.2,1.2-0.7,2.3-1.5,3.2c-0.9,1.3,1.2,2.5,2.1,1.2c0.9-1.3,1.4-2.3,1.8-3.8
					c0.4-1.3-1.5-2.1-2.2-0.9c-1,1.6-1.7,3.2-2.4,5c-0.5,1.3,1.6,2.1,2.2,0.9c1-1.9,1.8-3.7,2.3-5.8c0.4-1.4-1.4-1.9-2.2-0.9
					c-1.6,2.1-2.8,4.3-3.6,6.9c-0.4,1.3,1.5,2,2.2,0.9c1.6-2.5,2.8-5,3.8-7.7c0.5-1.3-1.5-2-2.2-0.9c-1.2,1.7-2.1,3.5-2.9,5.4
					c-0.5,1.3,1.6,2.1,2.2,0.9c1.2-2.3,2.1-4.7,2.9-7.2c0.3-1.1-1.2-2.1-2-1.2c-2,2.5-3.3,5-4.3,8.1c-0.4,1.3,1.5,2.1,2.2,0.9
					c1.7-2.7,2.9-5.5,3.8-8.5c0.4-1.4-1.4-1.9-2.2-0.9c-1.6,2.1-2.9,4.3-4,6.8c-0.6,1.4,1.2,2.6,2.1,1.2c1.5-2.5,2.7-5,3.5-7.9
					c0.3-1.1-1.2-2.1-2-1.2c-2.4,2.7-4.2,5.6-5.5,9c-0.4,1.1,1.3,2.1,2,1.2c1.7-2.1,6.2-7.4,4.4-10.4c-0.4-0.7-1.3-0.8-1.9-0.2
					c-2.8,2.7-5.2,5.8-6.1,9.7c-0.2,0.8,0.6,1.8,1.5,1.5c3.7-1.3,7.9-7,7.1-11c-0.2-0.9-1.4-1.1-2-0.5c-2.2,2-7.6,8.9-3.4,11.6
					c3.2,2,7-3.1,8.1-5.4c0.3-0.6,0.1-1.6-0.7-1.8c-2.7-0.4-5.4,4.8-3.6,6.8c0.3,0.3,0.8,0.4,1.2,0.3c1.6-0.3,2.4-1.6,3.2-2.8
					c0.8-1.1-1-2.5-1.9-1.5c-1.1,1.3-1.9,2.5-2.7,4.1c-0.6,1.2,0.9,2.5,1.9,1.5c1.9-1.9,3.7-3.8,5.6-5.7c-0.6,0-1.1,0-1.7,0
					c-0.8,3.6-2.9,5.5-6.3,5.5c-1.5,0.1-1.5,2.3,0,2.4c0.1,0,0.3,0,0.4,0c1.2,0.1,1.6-1.6,0.6-2.2c-0.4-0.2-0.7-0.4-1.1-0.7
					c-0.2,0.7-0.4,1.5-0.6,2.2c6.9,0,8-5.3,8.6-10.9c-0.8,0-1.6,0-2.4,0c0,1.1,0,1.4,0.2,2.4c0.3,1.4,2.3,1,2.4-0.3
					c0.1-1.1,0.1-2.1-0.1-3.2c-0.1-1.3-1.9-1.7-2.4-0.3c-0.3,1-0.6,2-0.9,3.1c0.8,0.1,1.6,0.2,2.4,0.3c-0.2-3.7,0.7-6-0.6-9.5
					c-0.5-1.4-2.7-0.9-2.3,0.6c0.3,1.1,0.6,2.1,0.8,3.2c0.8-0.2,1.5-0.4,2.3-0.6c-0.3-0.8-0.6-1.6-0.9-2.4c-0.6-1.5-2.5-0.9-2.3,0.6
					c0.1,1,0.3,2,0.4,2.9c0.8-0.2,1.5-0.4,2.3-0.6c-0.2-0.9-0.4-1.8-0.8-2.7c-0.4-1.2-2.5-1.1-2.4,0.3c0.2,1.5,0.1,1.6,0.6,3.1
					c0.5,1.5,2.6,0.9,2.3-0.6c-0.4-2.5-1-4.9-1.6-7.3c-0.4-1.5-2.6-0.9-2.3,0.6c0.1,1.1,0.4,2.1,1,3.1c0.6,1.4,2.8,0.9,2.3-0.6
					c-0.4-1.2-0.4-1.4-1-2.5c-0.6-1.2-2.5-0.4-2.2,0.9c0.4,1.4,0.7,2.7,1.1,4.1c0.7-0.3,1.5-0.6,2.2-0.9c-0.7-1.3-0.7-3.7-2-4.6
					c-1.8-1.3-6-1.1-8.1-1.8c-1.1-0.3-2.1,1.2-1.2,2c1.5,1.3,3.1,1.4,5.1,1.8c0.1-0.8,0.2-1.6,0.3-2.4c-3.1-0.1-5.9-0.7-8.8-1.8
					c-0.2,0.8-0.4,1.5-0.6,2.3c1.8,0.4,3.4,0.7,5.2,0.8c1.3,0.1,1.7-2.1,0.3-2.4c-1.4-0.3-5.5-0.7-6.6-0.4c-2,0.5-1,1-2.1,1.7
					c-1.4,1.8-2.9,2.5-4.6,2.1c-0.2,0-0.4-0.1-0.6-0.1c-0.2,0.2-0.6,0.1-0.8,0.4c-1.6,1.5-3,4.4-3.5,6.6c-0.2,1.1,1.2,2.2,2,1.2
					c0.9-1.1,0.9-1.1,1.5-2.3c-0.7-0.3-1.5-0.6-2.2-0.9c-0.8,2.1-1.3,4.1-1.5,6.3c-0.1,1.2,1.7,1.6,2.2,0.6c0.7-1.2,0.7-1.3,0.7-2.7
					c0-1.4-1.9-1.6-2.4-0.3c-0.4,1.1-0.4,1.3-0.2,2.5c0.2,1.1,1.7,1.1,2.2,0.3c0.8-1.3,0.8-1.4,0.9-2.9c0.2-1.4-2-1.5-2.4-0.3
					c-0.4,1.3-0.4,1.4,0,2.7c0.2,0.7,1.1,1.2,1.8,0.7c1.1-0.8,1.2-0.8,2.1-1.8c-0.7-0.3-1.4-0.6-2-0.8c0.3,6.9,8.2,0.9,5.2-2.2
					c-0.3-0.3-0.8-0.4-1.2-0.3c-2.4,0.8-2.4,5-0.1,5.9c2.9,1.2,6.5-3.4,3.7-5.4c-2.2-1.6-4.3,1.3-3.3,3.4c1.1,2.4,5.2,1.9,5.3-1
					c0-2.8-4-3-4.3-0.2c-0.3,2.4,2.6,3.8,4.1,1.9c1.6-2-1.1-4.9-3.1-3.2c-2.2,1.7,0.3,4.6,2.5,3.2C37.3,294.4,36.1,292.4,34.8,293.2
					L34.8,293.2z"/>
			</g>
		</g>
		<g>
			<g>
				<path class="st0" d="M46.6,291.4c-0.1-0.7-0.5-2.9-0.6-1.1c-0.1,1.5,0.5,3.4,0.5,5c0.8-0.1,1.6-0.2,2.4-0.3
					c-0.5-1.3-1.5-4.3-0.9-5.7c-0.4,0.9,1.4,3.1,0.7,4.5c0.7,0,1.4,0,2.1,0c-0.2-0.4-2.8-6.1-1.7-6.9c-0.5-0.1-1.1-0.3-1.6-0.4
					c0.7,1.6,3,6.5,2.2,8.4c0.7,0,1.4,0,2.1,0c-1.3-2.3-2.9-5.8-1.4-8.3c-0.7-0.1-1.5-0.2-2.2-0.3c1,2.4,2.8,7.4,1.1,9.9
					c0.5-0.1,1.1-0.3,1.6-0.4c-1.2-0.9-1.6-1.9-1-3.2c0.7-1.3,0.2-1.7-1.4-1.3c0.5-0.3,1-0.6,1.5-0.8c0.7,1.3,1.1,2.6,1.3,4
					c0.8-0.2,1.5-0.4,2.3-0.6c0-1.2,0.1-2.4,0.1-3.6c-0.7,0.1-1.5,0.2-2.2,0.3c0.6,1.1,0.9,2.2,1,3.3c0.3,1.5,2.5,0.9,2.3-0.6
					c-0.2-1.1-0.3-2.2-0.5-3.3c-0.8,0.2-1.5,0.4-2.3,0.6c0.4,1.3,0.7,2.4,0.9,3.7c0.8-0.2,1.5-0.4,2.3-0.6c-0.3-1.3-0.5-2.6-0.8-3.8
					c-0.8,0.2-1.5,0.4-2.3,0.6c0.2,0.7,0.4,1.5,0.6,2.2c0.7-0.3,1.5-0.6,2.2-0.9c-2.5-3.6-5.1-6.5-9.7-6.9c0.1,0.8,0.2,1.6,0.3,2.4
					c1.4,0.2,2.7,0.3,4.1,0.5c0.4-0.7,0.8-1.3,1.2-2c-1.2-0.6-2.5-1.3-3.7-1.9c-0.3,0.7-0.6,1.4-0.8,2c1.2,0.1,2.3,0.3,3.5,0.4
					c1.2,0.1,1.7-1.8,0.6-2.2c-4.4-2-8.1-0.8-12.7-1.5c-1.5-0.2-2.2,2.1-0.6,2.3c2.4,0.4,4.8,0.8,7.2,1.2c1.5,0.2,2.2-1.9,0.6-2.3
					c-2.3-0.6-4.6-1-7-1.4c-1.5-0.2-2.2,2-0.6,2.3c1.1,0.3,1.3,0.3,2.4,0.3c1.3,0,1.5-1.6,0.6-2.2c-0.8-0.5-0.8-0.6-1.7-0.8
					c-1.3-0.3-2.2,1.6-0.9,2.2c2.2,1,4.7,1.9,6.7,3.4c0.1-0.7,0.2-1.5,0.3-2.2c-2.3,0.9-6.3,3-8.9,2.7c0.4,0.4,0.8,0.8,1.2,1.2
					c1.2-2.6,1.6-3,1.2-1.1c0,0.9-0.3,1.7-0.9,2.4c-2.7,4.6-1.8,1.2-1.1-0.1c1-1.9,2.2-3.5,0.7-0.4c-0.9,1.9-1.7,3.8-2.7,5.6
					c0.7,0.3,1.5,0.6,2.2,0.9c0.4-1.5,0.9-2.9,1.7-4.2c1.5-0.5,1,0.5-1.5,3.1c0.7,0.4,1.3,0.8,2,1.2c0.6-3.1,1.7-5.7,3.7-8.2
					c-0.6,0-1.1,0-1.7,0c1.2,1.2-2.1,6.6-2.7,7.5c0.7,0.3,1.5,0.6,2.2,0.9c0.5-3.3,1.6-6.1,3.6-8.7c-0.6,0-1.1,0-1.7,0
					c1,0.9-1.9,6.9-2.4,7.9c0.7,0.2,1.5,0.4,2.2,0.6c-0.4-3.1,1.2-5.8,2.9-8.2c-0.7-0.2-1.5-0.4-2.2-0.6c0.2,2.4-0.1,4.3-1.2,6.5
					c0.7,0.2,1.5,0.4,2.2,0.6c0.2-2.3,0.8-4.1,2-6c-0.7-0.2-1.5-0.4-2.2-0.6c-0.1,1.8-0.7,3.6-0.7,5.4c0,1.2,0.1,1,0.3-0.6
					c0.1-1.6,0.8-3.1,2-4.3c-0.6-0.3-1.2-0.7-1.8-1c0.1,1.9,0.2,6.6-2.1,7.3c-3,0.8,1-6.4,1-6.4c-0.4-0.5-0.8-1-1.2-1.5
					c-0.1,0.6-1.6,5.5-2.2,5c-1.1-0.9,2.5-4.4,3.8-5.3c-0.6-0.5-1.2-0.9-1.8-1.4c-0.1,0.3-2.9,6.1-3,5.7c-0.3-1.1,2.7-4.3,3.6-5.2
					c-0.7-0.3-1.4-0.6-2-0.8c0.3,2.8-5.1,6.5-1.2,1.6c-0.6-0.5-1.3-1-1.9-1.5c-0.3,0.7-1.4,3.2-2.3,3.4c0.5,0.5,1,1,1.5,1.5
					c0.5-1.8,1.4-3.3,2.7-4.6c-0.7-0.4-1.3-0.8-2-1.2c-0.3,1.6-1,3.1-2.1,4.3c0.7,0.4,1.3,0.8,2,1.2c0.8-2.2,1.6-3.8,2.8-5.8
					c0.7-1.1-1-2.5-1.9-1.5c-0.9,1.1-1.5,2.1-2.2,3.4c-0.3,0.8-0.7,1.5-1.1,2.2c-2.4,2-2.6,2.5-0.6,1.4c-0.7-0.4-1.4-0.8-2.1-1.2
					c-0.5,1.4-1.4,2.4-2.9,3.1c0.6,0.3,1.2,0.7,1.8,1c-0.6-0.6-1.1-1.1-1.7-1.7c0.7,0.3,1.4,0.6,2,0.8c-0.3-0.9-0.6-1.8-0.9-2.7
					c0.5,0.5,1,1,1.5,1.5c1.2-1.8,2.8-2.8,4.7-2.9c-0.2-0.8-0.4-1.5-0.6-2.3c-1.4,0.5-1.4,0.5-2.7,1.3c-1.3,0.8-0.2,2.8,1.2,2.1
					c0.9-0.2,1.6-0.6,2.3-1.2c-1.1,1.1,0.6,2.8,1.7,1.7c1-0.9,2-2.4,0.7-3.6c-1.5-1.5-4.5,0.2-5.9,1c0.4,0.7,0.8,1.4,1.2,2.1
					c0.7-0.3,1.4-0.7,2.2-1c1.5-0.5,0.9-2.6-0.6-2.3c-3,0.5-5.3,1.7-6.4,4.6c-0.3,0.9,0.7,1.7,1.5,1.5c1.5-0.5,2.5-1.2,2.7-2.8
					c0-0.4-0.3-0.8-0.6-1c-2.8-1.8-4.5,1.9-4.2,4.2c0.1,1,1.2,1.6,2,0.8c1.7-1.5,3.1-3.7,1-5.3c-0.3-0.2-0.9-0.2-1.2,0
					c-1.7,1.3-2.1,3.2-2.2,5.2c0,0.9,1,1.4,1.8,1c1.8-1,2.9-2,3.8-3.9c0.7-1.4-1.3-2.6-2.1-1.2c-0.6,1-1.3,2.2-1.1,3.4
					c0.1,0.6,0.3,1,0.9,1.2c2.4,0.8,5.5-3.3,4.2-5.4c-0.2-0.3-0.6-0.6-1-0.6c-2.2,0.3-3.6,2.6-2.4,4.5c0.3,0.4,0.8,0.7,1.4,0.6
					c3.2-1,3.8-5.4,5.8-7.7c-0.6-0.5-1.3-1-1.9-1.5c-1.3,2-2.3,4.1-3.1,6.3c-0.4,1.1,1.2,2.1,2,1.2c1.4-1.7,2.2-3.2,2.7-5.4
					c0.3-1.1-1.2-2.1-2-1.2c-1.5,1.7-2.5,3.5-3.3,5.7c-0.3,0.9,0.7,1.6,1.5,1.5c1.9-0.4,3-3,3.7-4.5c0.5-1.1-1-2.6-1.9-1.5
					c-1.5,1.9-3.2,4.3-3.1,6.9c0,0.6,0.4,1,0.9,1.2c3.4,1.3,7.8-4.9,7.5-7.9c-0.1-1-1.3-1.7-2-0.8c-2,2-6.1,6.9-3.8,9.8
					c0.2,0.3,0.8,0.4,1.2,0.3c3.3-1.3,5.1-5.2,6.1-8.3c0.3-1-0.9-2-1.8-1.4c-2.1,1.5-8.5,8.2-4.9,11c3.5,2.7,6.4-5.8,6.8-7.9
					c0.1-0.7-0.3-1.6-1.2-1.5c-4.3,0.3-5.7,10.6-2.6,12.9c0.4,0.3,0.9,0.2,1.2,0c3.9-2,5.1-7.4,4.9-11.4c0-0.9-1-1.4-1.8-1
					c-2.7,1.3-5.5,9.2-2.2,10.9c0.5,0.2,1.1,0.2,1.5-0.2c2.2-2.2,2.6-6.3,2.7-9.2c0.1-1.2-1.6-1.6-2.2-0.6c-1.5,2.3-2.1,4.5-2.3,7.2
					c-0.1,1.2,1.7,1.7,2.2,0.6c1.3-2.6,1.8-4.9,1.6-7.8c-0.1-1.2-1.5-1.6-2.2-0.6c-1.9,2.7-3.6,6-3.2,9.4c0.1,1.1,1.6,1.8,2.2,0.6
					c1.2-2.3,4.5-8.7,2-10.8c-0.4-0.4-1.3-0.5-1.7,0c-2.3,3-3.7,6-4.3,9.7c-0.2,1.3,1.4,2.1,2.2,0.9c1.6-2.4,4.8-7.9,2.3-10.4
					c-0.4-0.4-1.3-0.5-1.7,0c-2.2,2.9-3.6,5.7-4.3,9.3c-0.2,1,1.2,2.2,2,1.2c1.6-2,4.8-6.8,2.3-9.2c-0.4-0.4-1-0.4-1.5-0.2
					c-2.8,1.5-4.2,5.3-5,8.2c-0.4,1.3,1.5,2.1,2.2,0.9c1.2-2.2,5.8-9.5,3.2-12c-0.4-0.4-1-0.4-1.5-0.2c-2.8,1.3-7.9,8.6-5.5,11.6
					c0.3,0.3,0.8,0.4,1.2,0.3c3.3-1,9.9-8.2,7.5-11.9c-2.1-3.2-6.5,2-6.5,4.5c0,0.7,0.5,1.1,1.2,1.2c2.8,0.4,7-1.8,9.5-2.8
					c1-0.4,1.1-1.6,0.3-2.2c-2-1.5-4.5-2.3-6.7-3.4c-0.3,0.7-0.6,1.5-0.9,2.2c0.4,0.2,0.8,0.4,1.2,0.6c0.2-0.7,0.4-1.5,0.6-2.2
					c-0.6-0.1-1.2-0.1-1.8-0.2c-0.2,0.8-0.4,1.5-0.6,2.3c2.3,0.4,4.6,0.8,7,1.4c0.2-0.8,0.4-1.5,0.6-2.3c-2.4-0.4-4.8-0.8-7.2-1.2
					c-0.2,0.8-0.4,1.5-0.6,2.3c4.1,0.7,8.3-0.4,12.1,1.3c0.2-0.7,0.4-1.5,0.6-2.2c-1.2-0.1-2.3-0.3-3.5-0.4c-1-0.1-1.6,1.4-0.8,2
					c1.5,1.2,2.9,2,4.8,2.6c1.1,0.3,2.1-1.2,1.2-2c-2-1.6-4-2.1-6.4-1.1c-1.2,0.5-1.1,2.2,0.3,2.4c3.8,0.3,5.7,2.9,7.7,5.7
					c0.7,1.1,2.6,0.4,2.2-0.9c-0.2-0.7-0.4-1.5-0.6-2.2c-0.4-1.5-2.6-0.9-2.3,0.6c0.3,1.3,0.5,2.6,0.8,3.8c0.3,1.5,2.6,0.9,2.3-0.6
					c-0.2-1.3-0.5-2.5-0.9-3.7c-0.5-1.5-2.5-0.9-2.3,0.6c0.2,1.1,0.3,2.2,0.5,3.3c0.8-0.2,1.5-0.4,2.3-0.6c-0.2-1.4-0.6-2.6-1.2-3.9
					c-0.5-1-1.9-0.6-2.2,0.3c-0.6,1.8-0.6,3-0.1,4.8c0.4,1.5,2.6,0.9,2.3-0.6c-0.4-2.2-1.6-7.3-4.6-7.2c-2.7,0-3,4.3-2.7,6.1
					c0.3,1.9,1.7,5.9,4.5,5.1c2.8-0.9,2.3-5.7,1.5-7.6c-2.7-6.7-8.1,2.1-4.7,6.5c4.2,5.5,8-4.8,2.9-5.6c-0.6-0.1-1,0.1-1.4,0.6
					c-1.5,2.1-1.1,8.6,2.6,5.5c2.5-2.1,0.5-8.5-2.7-8.8c-0.4,0-0.8,0.3-1,0.6c-1.7,2.6-0.9,7.4,1.8,9c0.6,0.3,1.3,0.1,1.6-0.4
					c2.1-3.1,0.5-8.6-0.8-11.8c-0.4-0.9-1.6-1.3-2.2-0.3c-1.9,3.4-0.3,7.6,1.4,10.8c0.4,0.7,1.7,0.8,2.1,0c1.4-3.3-0.9-7.8-2.2-10.8
					c-0.2-0.6-1.2-0.8-1.6-0.4c-2.9,2.1-0.5,7.8,0.8,10.2c0.4,0.8,1.7,0.8,2.1,0c1.2-2.4-0.5-7-2.5-8.7c-0.4-0.3-1-0.5-1.5-0.2
					c-2.7,1.7-1,7.2-0.2,9.5c0.4,1.2,2.4,1.1,2.4-0.3c0-2.3,0.2-8.4-2.7-9.2c-0.6-0.1-1,0.1-1.4,0.6c-1,1.3-0.8,3.2-0.6,4.7
					C44.4,292.9,46.8,292.9,46.6,291.4L46.6,291.4z"/>
			</g>
		</g>
		<g>
			<g>
				<path class="st0" d="M29.9,299.4c1.5,0,1.5-2.4,0-2.4C28.4,297,28.4,299.4,29.9,299.4L29.9,299.4z"/>
			</g>
		</g>
		<g>
			<g>
				<path class="st0" d="M35.3,299.8c-1.6-1-2.6-2-3.7-3.5c-0.5,0.5-1.1,1.1-1.6,1.6c-0.2-0.6-0.5-1.2-0.7-1.8
					c-0.6,0.5-1.3,1-1.9,1.5c0.1-0.3,0.2-0.6,0.4-0.8c-0.4-1-2.1-1.3-2.3,0c-0.1,0.5-0.3,0.9-0.4,1.4c0.7,0.1,1.5,0.2,2.2,0.3
					c-0.3-0.7-0.6-1.5-0.6-2.3c-0.2-1.3-2.4-1-2.4,0.3c0,0.2,0,0.3,0,0.5c0.8-0.1,1.6-0.2,2.4-0.3c-0.1-0.3-0.1-0.7-0.2-1
					c-0.7,0.4-1.3,0.8-2,1.2c0.4,0.5,0.7,0.9,1.1,1.4c0.6,0.9,2.3,0.7,2.2-0.6c-0.1-1-0.1-1.9,0.1-2.8c-0.7,0.3-1.4,0.6-2,0.8
					c1,1.3,1.7,2.5,2.4,4c0.7-0.4,1.4-0.8,2.1-1.2c-0.8-1.2-1.5-2.4-2.3-3.6c-0.3,0.6-0.7,1.2-1,1.8c1.5-0.1,5.3,3.7,6.3,4.5
					c0.5-0.6,1-1.3,1.5-1.9c-1.7-1-2.7-2.1-3.7-3.8c-0.5,0.6-0.9,1.2-1.4,1.8c2.7,1,4.8,2.7,6.9,4.7c1.1,1,2.8-0.6,1.7-1.7
					c-1.1-1.2-4.4-4-4.4-5.7c-0.6,0.3-1.2,0.7-1.8,1c2.5,1.7,4.4,3.6,6.1,6.1c0.5-0.5,1.1-1.1,1.6-1.6c-1.7-1.1-2.8-2.4-3.7-4.3
					c-0.5,0.6-0.9,1.2-1.4,1.8c2.7,0.8,4.7,2.2,6.5,4.3c0.6-0.6,1.1-1.1,1.7-1.7c-1.4-1.1-2.5-2.2-3.5-3.7c-0.5,0.5-1.1,1.1-1.6,1.6
					c1.9,1.1,2.9,2.1,4,3.9c0.5-0.6,0.9-1.2,1.4-1.8c-0.6-0.3-1.3-0.7-1.9-1c-0.6,0.6-1.1,1.1-1.7,1.7c1.6,1.3,3.3,2.7,4.8,4.2
					c0.3-0.7,0.6-1.4,0.8-2c-1.1,0.1-1.3,0.4-2.4,0.7c-2.4,0.7-4.5,1-7,1.3c-1.5,0.2-1.6,2.4,0,2.4c1.4,0,4.4,0.7,5.5-0.6
					c1.1-1.3-0.7-2.9-0.8-4.3c-0.6,0.3-1.2,0.7-1.8,1c0.8,0.5,1.5,1,2.2,1.7c1,0.9,2.7-0.3,1.9-1.5c-0.6-0.8-1.1-1.7-1.4-2.7
					c-0.7,0.4-1.3,0.8-2,1.2c0.9,0.8,1.8,1.6,2.7,2.4c1,0.9,2.6-0.2,1.9-1.5c-0.5-0.7-0.9-1.5-1.4-2.2c-0.7,0.4-1.4,0.8-2.1,1.2
					c0.1,0.1-3.3,0.6-3.9,0.7c-1.2,0.2-2.2,0.6-3.3,1.1c-0.7,0.3-0.8,1.4-0.2,1.9c0.3,0.2,0.5,0.5,0.8,0.7c0.4-0.7,0.8-1.3,1.2-2
					c-3.3-0.7-5.7-2.6-6.9-5.8c-0.7,0.3-1.5,0.6-2.2,0.9c0.6,0.9,1.2,1.8,1.7,2.8c0.5-0.6,0.9-1.2,1.4-1.8c-0.3-0.1-0.5-0.2-0.8-0.3
					c-1-0.4-1.8,0.9-1.4,1.8c0.2,0.4,0.5,0.8,0.7,1.2c0.5-0.5,1.1-1.1,1.6-1.6c-0.2-0.3-0.5-0.5-0.7-0.8c-0.6,0.5-1.3,1-1.9,1.5
					c0.5,0.4,0.9,0.9,1.2,1.4c0.6-0.6,1.1-1.1,1.7-1.7c-0.6-0.6-1.1-1.2-1.3-2c-0.6,0.5-1.3,1-1.9,1.5c1.4,1.3,2.8,2.4,4.3,3.5
					c1.2,0.8,2.3-0.9,1.5-1.9c-0.8-0.9-1.6-1.8-2.3-2.7c-0.5,0.6-1,1.3-1.5,1.9c1.7,1.2,3.4,2.3,5.4,2.9c1.1,0.4,2.1-1.2,1.2-2
					c-1.5-1.3-3-2.5-4.6-3.6c-0.4,0.7-0.8,1.4-1.2,2.1c1.9,1,3.9,2,5.8,3.1c1.4,0.7,2.5-1.2,1.2-2.1c-1.6-1.1-3.2-2.2-4.8-3.3
					c-0.4,0.7-0.8,1.4-1.2,2.1c2.1,0.9,4,1.9,5.9,3.1c1.2,0.7,2.4-0.9,1.5-1.9c-1-0.9-2-1.9-3-2.8c-0.5,0.6-1,1.3-1.5,1.9
					c1,0.4,1.9,0.9,2.9,1.3c1.2,0.5,2.5-0.8,1.5-1.9c-0.6-0.6-1.1-1.2-1.5-2c-0.5,0.5-1.1,1.1-1.6,1.6c1,0.7,2,1.6,2.9,2.5
					c1,0.9,2.5-0.2,1.9-1.5c-0.2-0.3-0.3-0.6-0.5-0.9c-0.6,0.5-1.3,1-1.9,1.5c0.3,0.3,0.7,0.5,1,0.8c0.8,0.6,2.5,0.1,2-1.2
					c-0.4-0.9-0.8-1.9-1.2-2.8c-0.6-1.4-2.7-0.9-2.3,0.6c0.2,0.9,0.5,1.8,0.7,2.7c0.8-0.2,1.5-0.4,2.3-0.6c-0.2-0.5-1.6-3.7-0.9-4.2
					c0.2-0.1,2.1,4,2,3.7c0.6,1.4,2.9,0.8,2.3-0.6c-0.8-1.8-2.5-6.8-5.2-6.4c-3.3,0.6-1.1,6.6-0.5,8.1c0.6,1.4,2.7,0.9,2.3-0.6
					c-0.2-0.9-0.5-1.8-0.7-2.7c-0.8,0.2-1.5,0.4-2.3,0.6c0.4,0.9,0.8,1.9,1.2,2.8c0.7-0.4,1.3-0.8,2-1.2c-0.3-0.3-0.7-0.5-1-0.8
					c-1-0.8-2.6,0.2-1.9,1.5c0.2,0.3,0.3,0.6,0.5,0.9c0.6-0.5,1.3-1,1.9-1.5c-1.1-1-2.2-1.9-3.4-2.8c-1-0.7-2.2,0.7-1.6,1.6
					c0.5,0.9,1.1,1.7,1.9,2.4c0.5-0.6,1-1.3,1.5-1.9c-1-0.4-1.9-0.9-2.9-1.3c-1.2-0.5-2.5,0.9-1.5,1.9c1,0.9,2,1.9,3,2.8
					c0.5-0.6,1-1.3,1.5-1.9c-1.9-1.2-3.8-2.2-5.9-3.1c-1.4-0.6-2.5,1.2-1.2,2.1c1.6,1.1,3.2,2.2,4.8,3.3c0.4-0.7,0.8-1.4,1.2-2.1
					c-1.9-1-3.9-2-5.8-3.1c-1.4-0.7-2.5,1.2-1.2,2.1c1.4,1,2.8,2.1,4.1,3.3c0.4-0.7,0.8-1.3,1.2-2c-1.9-0.6-3.3-1.6-4.8-2.7
					c-1.2-0.8-2.3,0.9-1.5,1.9c0.8,0.9,1.6,1.8,2.3,2.7c0.5-0.6,1-1.3,1.5-1.9c-1.4-1-2.6-2-3.8-3.2c-1.1-1-2.4,0.3-1.9,1.5
					c0.4,1,0.9,1.7,1.7,2.5c1.1,1.1,2.6-0.5,1.7-1.7c-0.3-0.5-0.8-1-1.2-1.4c-0.9-0.9-2.7,0.3-1.9,1.5c0.5,0.8,0.8,1.1,1.6,1.6
					c1,0.7,2.2-0.7,1.6-1.6c-0.2-0.4-0.5-0.8-0.7-1.2c-0.5,0.6-0.9,1.2-1.4,1.8c0.3,0.1,0.5,0.2,0.8,0.3c1,0.4,1.8-0.9,1.4-1.8
					c-0.5-1-1.1-1.9-1.7-2.8c-0.7-1-2.7-0.4-2.2,0.9c1.5,3.9,4.4,6.6,8.6,7.5c1.1,0.2,2.1-1.2,1.2-2c-0.3-0.2-0.5-0.5-0.8-0.7
					c-0.1,0.6-0.2,1.3-0.2,1.9c1.6-0.7,11.3-0.5,8-5.1c-0.9-1.2-2.9-0.1-2.1,1.2c0.5,0.7,0.9,1.5,1.4,2.2c0.6-0.5,1.3-1,1.9-1.5
					c-0.9-0.8-1.8-1.6-2.7-2.4c-0.8-0.8-2.4,0-2,1.2c0.4,1.2,0.9,2.2,1.6,3.3c0.6-0.5,1.3-1,1.9-1.5c-0.8-0.8-1.7-1.4-2.7-2.1
					c-0.7-0.5-1.9,0.1-1.8,1c0.1,1.4,0.2,1.4,0.8,2.7c1.4-0.2,1.3-0.2-0.4-0.2c-0.9,0-1.8,0-2.7,0c0,0.8,0,1.6,0,2.4
					c1.9-0.2,3.9-0.2,5.7-0.6c1.2-0.3,2.4-1.2,3.6-1.3c0.9-0.1,1.7-1.3,0.8-2c-1.6-1.4-3.2-2.8-4.8-4.2c-1.2-1-2.8,0.6-1.7,1.7
					c0.9,0.9,1.7,1.3,3,1.7c1,0.2,1.9-0.9,1.4-1.8c-1.3-2-2.8-3.5-4.9-4.8c-1-0.6-2.3,0.6-1.6,1.6c1.1,1.6,2.3,3,3.9,4.2
					c1.2,0.9,2.7-0.5,1.7-1.7c-2.1-2.4-4.5-4-7.5-4.9c-1.1-0.3-1.8,0.9-1.4,1.8c1,2.2,2.5,3.8,4.5,5.2c1,0.6,2.3-0.7,1.6-1.6
					c-1.9-2.8-4.2-5-7-6.9c-0.8-0.5-1.8,0.2-1.8,1c-0.1,2.7,3.4,5.6,5.1,7.4c0.6-0.6,1.1-1.1,1.7-1.7c-2.4-2.2-4.8-4.2-7.9-5.3
					c-1-0.4-1.8,0.9-1.4,1.8c1.2,2,2.5,3.4,4.6,4.6c1.1,0.7,2.5-1,1.5-1.9c-1.9-1.6-5.3-5.4-8-5.2c-0.8,0.1-1.6,1-1,1.8
					c0.8,1.2,1.5,2.4,2.3,3.6c0.8,1.3,2.7,0.2,2.1-1.2c-0.8-1.6-1.7-3.1-2.8-4.5c-0.7-0.9-1.9,0-2,0.8c-0.2,0.9-0.2,1.9-0.1,2.8
					c0.7-0.2,1.5-0.4,2.2-0.6c-0.5-0.7-0.9-1.2-1.4-1.9c-0.9-1-2.2,0.1-2,1.2c0.1,0.3,0.1,0.7,0.2,1c0.2,1.3,2.4,1,2.4-0.3
					c0-0.2,0-0.3,0-0.5c-0.8,0.1-1.6,0.2-2.4,0.3c0.1,0.8,0.3,1.6,0.6,2.3c0.3,0.9,1.7,1.3,2.2,0.3c0.4-0.9,0.5-1,0.7-2
					c-0.8,0-1.5,0-2.3,0c0.4,1.1,0.8,2.1,1.6,3c0.3,0.3,0.8,0.4,1.2,0.3c2.4-0.6,2.6-3.2,0.9-4.8c-1-0.9-2.5,0.2-1.9,1.5
					c0.8,1.7,3.7,4.7,5.7,2.6c1.6-1.6-0.3-3.2-1.7-4.1c-1-0.7-2.3,0.7-1.6,1.6c1.3,1.8,2.7,3.2,4.5,4.4
					C35.4,302.8,36.6,300.7,35.3,299.8L35.3,299.8z"/>
			</g>
		</g>
		<g>
			<g>
				<path class="st0" d="M29.8,300.5c-0.5,0.1-0.9,0.3-1.4,0.4c-0.8,0.3-1.3,1.4-0.5,2c0.3,0.3,0.6,0.6,0.9,0.9
					c0.5-0.6,0.9-1.2,1.4-1.8c0,0-0.1-0.1-0.1-0.1c-1-1.2-2.7,0.5-1.7,1.7c1.4,1.7,3.3,2.4,5.4,2.7c0.1,0,2.1,0.4,2.3,0.2
					c1.2-0.9-2.6-4.3-2.7-5c-0.1-1.4,1.4-3.5,2-4.6c0.9-1.4,1.9-2.6,3.1-3.6c1.1-0.9,2.8-2.2,4.4-1.1c0.8,0.5,1.3,2.5,1.3,3.4
					c0.1,1.2-0.5,2.4-2,2.4c-1.8,0-2.4-1.4-2-2.8c0.3-1.1,1.1-3,2.5-2.9c0.8-0.2,1.1,0.1,0.8,1c0.2,0.9,0,1.6-0.5,2.4
					c-1.5,0.3-0.9,2.6,0.6,2.3c4.7-1,2.2-12.4-3-7.8c-2,1.7-3.9,5.4-2.7,8.1c0.9,2.2,5.3,2.9,7.2,1.6c2.2-1.5,1.6-5.4,0.7-7.4
					c-1.3-2.8-3.8-3.8-6.7-2.4c-4.5,2.1-12.1,12.2-6.4,16.4c1.3,1,5.9,2.7,6.2-0.3c0.1-1-0.6-1.5-1.4-1.8c-2.8-1-5.4,0.2-7.7-2.4
					c-0.6,0.6-1.1,1.1-1.7,1.7c0.4,0.4,0.6,0.6,1.2,0.7c0.9,0.2,2-0.9,1.4-1.8c-0.5-0.7-0.6-0.8-1.2-1.4c-0.2,0.7-0.4,1.3-0.5,2
					c0.5-0.1,0.9-0.3,1.4-0.4C31.9,302.4,31.3,300.1,29.8,300.5L29.8,300.5z"/>
			</g>
		</g>
	</g>
	<g>
		<g>
			<g>
				<path class="st1" d="M28.4,284.5c1.3,0.4,2.7,0.5,4.1,0.2c0.8-0.2,0.4-1.3-0.3-1.2c-1.2,0.3-2.3,0.2-3.4-0.2
					C28,283.1,27.7,284.3,28.4,284.5L28.4,284.5z"/>
			</g>
		</g>
		<g>
			<g>
				<path class="st1" d="M27.5,283.5c-4.2,4-4.9,11.5-2.5,16.5c0.3,0.7,1.4,0.1,1-0.6c-2.1-4.5-1.5-11.5,2.3-15.1
					C28.9,283.8,28,282.9,27.5,283.5L27.5,283.5z"/>
			</g>
		</g>
		<g>
			<g>
				<path class="st1" d="M24.9,299.6c1.1,4.2,4.3,6.6,8.3,7.8c4.9,1.5,8.8,0.5,13.1-1.9c0.7-0.4,0.1-1.4-0.6-1
					c-3.6,2-6.6,3.1-10.9,2.1c-4.1-0.9-7.7-3-8.8-7.3C25.9,298.6,24.7,298.9,24.9,299.6L24.9,299.6z"/>
			</g>
		</g>
		<g>
			<g>
				<path class="st1" d="M45.6,305.8c4.1-0.3,7.4-2.4,9-6.3c2-4.9,0.3-10.3-1.4-15c-0.3-0.7-1.4-0.4-1.2,0.3
					c2.6,7.2,4.4,18.8-6.5,19.7C44.9,304.7,44.9,305.9,45.6,305.8L45.6,305.8z"/>
			</g>
		</g>
		<g>
			<g>
				<path class="st1" d="M32.6,284.5c1.1-0.4,1.8-1.4,1.9-2.6c0-0.8-1.2-0.8-1.2,0c0,0.6-0.4,1.2-1,1.4
					C31.5,283.6,31.8,284.7,32.6,284.5L32.6,284.5z"/>
			</g>
		</g>
		<g>
			<g>
				<path class="st1" d="M34.4,282.2c0.9-2.5,4.5-1,6.7-0.8c3.5,0.3,6.9,0.6,10.4,1c0.8,0.1,0.8-1.1,0-1.2
					c-5.7-0.5-11.6-1.5-17.4-1.5c-0.3,0-0.6,0.3-0.6,0.6c-0.1,0.5-0.2,1.1-0.3,1.6C33,282.6,34.1,282.9,34.4,282.2L34.4,282.2z"/>
			</g>
		</g>
		<g>
			<g>
				<path class="st1" d="M51,281.6c0.1,1.4,0.5,2.8,1.1,4.1c0.3,0.7,1.4,0.1,1-0.6c-0.5-1.1-0.8-2.3-0.9-3.5
					C52.1,280.8,50.9,280.8,51,281.6L51,281.6z"/>
			</g>
		</g>
	</g>
	<g>
		<g>
			<g>
				<path class="st0" d="M162.4,295c2.2,1.4,4.7-1.4,2.5-3.2c-2-1.6-4.7,1.3-3.1,3.2c1.5,1.8,4.5,0.4,4.1-1.9
					c-0.4-2.8-4.4-2.7-4.3,0.2c0.1,2.9,4.1,3.5,5.3,1c1-2.1-1.1-5-3.3-3.4c-2.8,2,0.8,6.6,3.7,5.4c2.3-1,2.3-5.1-0.1-5.9
					c-0.4-0.1-0.9,0-1.2,0.3c-3,3.1,4.9,9.1,5.2,2.2c-0.7,0.3-1.4,0.6-2,0.8c0.9,1,1,1,2.1,1.8c0.7,0.5,1.6,0,1.8-0.7
					c0.4-1.3,0.4-1.4,0-2.7c-0.4-1.2-2.5-1.1-2.4,0.3c0.2,1.5,0.2,1.6,0.9,2.9c0.5,0.8,2,0.8,2.2-0.3c0.2-1.2,0.2-1.4-0.2-2.5
					c-0.5-1.2-2.3-1.1-2.4,0.3c0,1.4,0,1.5,0.7,2.7c0.6,1,2.4,0.6,2.2-0.6c-0.3-2.2-0.7-4.2-1.5-6.3c-0.7,0.3-1.5,0.6-2.2,0.9
					c0.6,1.2,0.7,1.3,1.5,2.3c0.8,1,2.2-0.1,2-1.2c-0.4-1.6-1.9-5.4-3.3-6.3c-2.1-1.4-3.1-0.4-6.3-2.6c-0.9-0.6-0.4-1.3-2-1.6
					c-1.7-0.4-5,0.1-6.8,0.4c-1.3,0.2-1,2.4,0.3,2.4c1.8-0.1,3.5-0.4,5.2-0.8c-0.2-0.8-0.4-1.5-0.6-2.3c-2.9,1.1-5.7,1.7-8.8,1.8
					c0.1,0.8,0.2,1.6,0.3,2.4c1.9-0.4,3.6-0.5,5.1-1.8c0.9-0.8,0-2.4-1.2-2c-1.7,0.5-7,0.8-8.1,1.8c-1.3,1.2-1.2,3.1-2,4.6
					c0.7,0.3,1.5,0.6,2.2,0.9c0.4-1.4,0.7-2.7,1.1-4.1c0.3-1.3-1.6-2.2-2.2-0.9c-0.6,1.1-0.7,1.3-1,2.5c-0.5,1.5,1.7,2,2.3,0.6
					c0.5-1,0.8-2,1-3.1c0.3-1.5-1.9-2.1-2.3-0.6c-0.7,2.4-1.2,4.8-1.6,7.3c-0.3,1.5,1.9,2.1,2.3,0.6c0.5-1.5,0.4-1.6,0.6-3.1
					c0.1-1.4-1.9-1.5-2.4-0.3c-0.4,0.9-0.6,1.8-0.8,2.7c0.8,0.2,1.5,0.4,2.3,0.6c0.1-1,0.3-2,0.4-2.9c0.2-1.5-1.8-2.1-2.3-0.6
					c-0.3,0.8-0.6,1.6-0.9,2.4c0.8,0.2,1.5,0.4,2.3,0.6c0.3-1.1,0.6-2.1,0.8-3.2c0.4-1.5-1.8-2.1-2.3-0.6c-1.3,3.5-0.5,5.8-0.6,9.5
					c0.8-0.1,1.6-0.2,2.4-0.3c-0.3-1-0.6-2-0.9-3.1c-0.4-1.3-2.3-1-2.4,0.3c-0.1,1-0.2,2.1-0.1,3.2c0.1,1.3,2.1,1.7,2.4,0.3
					c0.2-1,0.2-1.3,0.2-2.4c-0.8,0-1.6,0-2.4,0c0.5,5.7,1.6,11,8.6,10.9c-0.2-0.7-0.4-1.5-0.6-2.2c-0.4,0.2-0.7,0.4-1.1,0.7
					c-1,0.6-0.6,2.3,0.6,2.2c0.1,0,0.3,0,0.4,0c1.5-0.1,1.5-2.3,0-2.4c-3.4,0-5.5-1.9-6.3-5.5c-0.6,0-1.1,0-1.7,0
					c1.9,1.9,3.7,3.8,5.6,5.7c1,1,2.5-0.3,1.9-1.5c-0.8-1.6-1.6-2.8-2.7-4.1c-0.9-1-2.7,0.3-1.9,1.5c0.8,1.2,1.7,2.5,3.2,2.8
					c0.4,0.1,0.9,0,1.2-0.3c1.7-2.1-0.9-7.2-3.6-6.8c-0.8,0.1-1,1.1-0.7,1.8c1.2,2.3,4.9,7.4,8.1,5.4c4.3-2.6-1.3-9.6-3.4-11.6
					c-0.6-0.6-1.8-0.4-2,0.5c-0.8,4,3.4,9.7,7.1,11c0.9,0.3,1.7-0.6,1.5-1.5c-0.8-3.9-3.3-6.9-6.1-9.7c-0.6-0.6-1.5-0.4-1.9,0.2
					c-1.8,2.9,2.7,8.3,4.4,10.4c0.7,0.9,2.4-0.1,2-1.2c-1.3-3.4-3.1-6.3-5.5-9c-0.8-0.9-2.3,0-2,1.2c0.8,2.8,2,5.3,3.5,7.9
					c0.8,1.3,2.7,0.2,2.1-1.2c-1.1-2.5-2.4-4.6-4-6.8c-0.8-1-2.6-0.5-2.2,0.9c0.9,3.1,2.1,5.8,3.8,8.5c0.7,1.1,2.6,0.4,2.2-0.9
					c-0.9-3-2.3-5.6-4.3-8.1c-0.8-1-2.3,0.1-2,1.2c0.7,2.5,1.7,4.9,2.9,7.2c0.6,1.2,2.7,0.3,2.2-0.9c-0.8-1.9-1.7-3.7-2.9-5.4
					c-0.7-1-2.7-0.4-2.2,0.9c1,2.7,2.3,5.3,3.8,7.7c0.7,1.1,2.6,0.4,2.2-0.9c-0.8-2.5-2-4.7-3.6-6.9c-0.8-1-2.6-0.5-2.2,0.9
					c0.6,2.1,1.3,3.9,2.3,5.8c0.6,1.2,2.7,0.4,2.2-0.9c-0.7-1.8-1.4-3.3-2.4-5c-0.7-1.2-2.5-0.4-2.2,0.9c0.4,1.5,0.9,2.5,1.8,3.8
					c0.9,1.3,3,0.1,2.1-1.2c-0.8-0.9-1.3-2-1.5-3.2c-0.7,0.3-1.5,0.6-2.2,0.9c0.9,1.4,1.6,2.8,2.1,4.4c0.7-0.3,1.5-0.6,2.2-0.9
					c-0.9-1.7-1.6-3.4-2.1-5.2c-0.7,0.3-1.5,0.6-2.2,0.9c1.5,2,2.6,3.9,3.4,6.3c0.7-0.3,1.5-0.6,2.2-0.9c-1.5-2.3-2.6-4.6-3.6-7.2
					c-0.7,0.3-1.5,0.6-2.2,0.9c1.1,1.6,1.9,3,2.6,4.8c0.7-0.3,1.5-0.6,2.2-0.9c-1.1-2.2-2-4.3-2.6-6.7c-0.7,0.4-1.3,0.8-2,1.2
					c1.7,2.2,2.8,4.4,3.6,7c0.7-0.3,1.5-0.6,2.2-0.9c-1.5-2.5-2.7-5.1-3.5-8c-0.7,0.3-1.5,0.6-2.2,0.9c1.6,2.1,2.9,4.3,4,6.8
					c0.7-0.4,1.4-0.8,2.1-1.2c-1.4-2.3-2.5-4.7-3.3-7.3c-0.7,0.4-1.3,0.8-2,1.2c2.2,2.4,3.7,4.9,4.9,7.9c0.7-0.4,1.3-0.8,2-1.2
					c-0.7-0.8-4.8-6.1-4-7.4c-0.6,0.1-1.3,0.2-1.9,0.2c2.5,2.4,4.7,5.1,5.4,8.6c0.5-0.5,1-1,1.5-1.5c-2.2-0.8-5.9-5.5-5.4-8
					c-0.7,0.2-1.3,0.4-2,0.5c0.9,0.8,4.4,4.3,3.8,5.6c-0.9,0.2-1.8,0.5-2.7,0.7c-0.9-0.9-1.6-1.9-2.1-3c-0.2,0.6-0.5,1.2-0.7,1.8
					c0.2,0.3,0.5,0.5,0.7,0.8c-0.6,0.5-1.3,1-1.9,1.5c1,1,1.8,2.2,2.3,3.6c0.6-0.5,1.3-1,1.9-1.5c-1.9-1.9-3.7-3.8-5.6-5.7
					c-0.5-0.5-1.2-0.4-1.7,0c-1.5,1.3-0.3,4,0.5,5.4c1.6,2.8,4.4,4,7.5,4.2c0-0.8,0-1.6,0-2.4c-0.1,0-0.3,0-0.4,0
					c0.2,0.7,0.4,1.5,0.6,2.2c0.4-0.2,0.7-0.4,1.1-0.7c1-0.6,0.6-2.2-0.6-2.2c-5.1,0-5.8-4.6-6.2-8.5c-0.1-1.5-2.4-1.6-2.4,0
					c-0.1,0.6-0.1,1.2-0.2,1.8c0.8,0.1,1.6,0.2,2.4,0.3c-0.1-1.1-0.1-2.1,0.1-3.2c-0.8,0.1-1.6,0.2-2.4,0.3c0.3,1,0.6,2,0.9,3.1
					c0.4,1.3,2.3,1,2.4-0.3c0.1-3.2-0.6-5.7,0.5-8.8c-0.8-0.2-1.5-0.4-2.3-0.6c-0.3,1.1-0.6,2.1-0.8,3.2c-0.4,1.5,1.8,2.1,2.3,0.6
					c0.3-0.8,0.6-1.6,0.9-2.4c-0.8-0.2-1.5-0.4-2.3-0.6c-0.1,1-0.3,2-0.4,2.9c-0.2,1.5,2,2.2,2.3,0.6c0.2-0.9,0.4-1.8,0.8-2.7
					c-0.8-0.1-1.6-0.2-2.4-0.3c-0.2,0.8-0.3,1.6-0.5,2.5c0.8,0.2,1.5,0.4,2.3,0.6c0.4-2.5,1-4.9,1.6-7.3c-0.8-0.2-1.5-0.4-2.3-0.6
					c-0.1,1.1-0.4,2.1-1,3.1c0.8,0.2,1.5,0.4,2.3,0.6c0.3-0.6,0.5-1.3,0.8-1.9c-0.7-0.3-1.5-0.6-2.2-0.9c-0.4,1.4-0.7,2.7-1.1,4.1
					c-0.3,1.3,1.6,2.2,2.2,0.9c0.4-0.7,0.7-1.4,1-2.1c0.2-0.4,0.3-0.9,0.3-1.3c-0.1-0.8,0.2-0.9,1-0.4c1.7-0.9,4.5-0.9,6.4-1.5
					c-0.4-0.7-0.8-1.3-1.2-2c-1,0.9-2.8,1-4,1.2c-1.3,0.3-1,2.4,0.3,2.4c3.3-0.1,6.3-0.7,9.5-1.9c1.4-0.5,0.9-2.7-0.6-2.3
					c-1.5,0.4-3,0.7-4.6,0.7c0.1,0.8,0.2,1.6,0.3,2.4c-1.8,0.3,6.4-0.2,5.8-0.4c0.5,0.2,1.1,2.3,1.7,2.9c1,0.9,2.1,1.3,3.4,1.3
					c0.4,0,1.9-0.5,2.1-0.4c0.7,0.3,2.3,4.7,2.3,5.1c0.7-0.4,1.3-0.8,2-1.2c-0.4-0.6-0.8-1.2-1.2-1.8c-0.6-1.2-2.7-0.4-2.2,0.9
					c0.8,1.9,1.2,3.6,1.4,5.7c0.7-0.2,1.5-0.4,2.2-0.6c-0.1-0.5-0.2-1-0.4-1.5c-0.8,0.1-1.6,0.2-2.4,0.3c0.1,0.4,0.1,0.8,0.2,1.2
					c0.7-0.1,1.5-0.2,2.2-0.3c-0.2-0.6-0.4-1.1-0.6-1.7c-0.8,0.1-1.6,0.2-2.4,0.3c0,0.5,0,0.9,0,1.4c0.6-0.2,1.2-0.5,1.8-0.7
					c-0.5-0.5-1.1-1-1.6-1.4c-0.7-0.8-2-0.1-2,0.8c0.3,2.4-1.4,2.4-5.2,0C162.3,292.1,161.1,294.1,162.4,295L162.4,295z"/>
			</g>
		</g>
		<g>
			<g>
				<path class="st0" d="M154.1,291.1c0.2-1.5,0.3-3.4-0.6-4.7c-0.3-0.4-0.8-0.7-1.4-0.6c-2.9,0.8-2.7,6.8-2.7,9.2
					c0,1.4,1.9,1.6,2.4,0.3c0.8-2.4,2.4-7.8-0.2-9.5c-0.5-0.3-1.1-0.1-1.5,0.2c-1.9,1.6-3.7,6.3-2.5,8.7c0.4,0.8,1.7,0.8,2.1,0
					c1.3-2.5,3.8-8.1,0.8-10.2c-0.5-0.3-1.4-0.1-1.6,0.4c-1.3,3.1-3.6,7.5-2.2,10.8c0.4,0.8,1.7,0.7,2.1,0c1.8-3.1,3.4-7.4,1.4-10.8
					c-0.6-1-1.8-0.6-2.2,0.3c-1.3,3.1-2.9,8.6-0.8,11.8c0.4,0.5,1.1,0.8,1.6,0.4c2.8-1.6,3.5-6.4,1.8-9c-0.2-0.3-0.6-0.6-1-0.6
					c-3.3,0.2-5.3,6.6-2.7,8.8c3.7,3.1,4.1-3.3,2.6-5.5c-0.3-0.5-0.8-0.6-1.4-0.6c-5,0.8-1.4,10.9,2.8,5.8c3.5-4.3-1.8-13.4-4.6-6.6
					c-0.8,1.9-1.3,6.6,1.4,7.6c2.7,1,4.3-2.8,4.6-4.8c0.3-1.9,0.1-5.9-2.5-6.3c-3.1-0.4-4.4,5.2-4.8,7.2c-0.3,1.5,1.9,2.1,2.3,0.6
					c0.5-1.8,0.5-3-0.1-4.8c-0.3-0.9-1.7-1.3-2.2-0.3c-0.6,1.3-1,2.5-1.2,3.9c0.8,0.2,1.5,0.4,2.3,0.6c0.2-1.1,0.3-2.2,0.5-3.3
					c0.2-1.5-1.8-2.1-2.3-0.6c-0.4,1.3-0.7,2.4-0.9,3.7c-0.2,1.5,2,2.2,2.3,0.6c0.3-1.3,0.5-2.6,0.8-3.8c0.3-1.5-1.9-2.1-2.3-0.6
					c-0.2,0.7-0.4,1.5-0.6,2.2c-0.4,1.4,1.5,2,2.2,0.9c1.9-2.8,3.9-5.4,7.7-5.7c1.4-0.1,1.6-1.8,0.3-2.4c-2.4-1-4.5-0.5-6.4,1.1
					c-0.9,0.8,0.1,2.3,1.2,2c1.9-0.6,3.2-1.3,4.8-2.6c0.8-0.6,0.2-2.2-0.8-2c-1.2,0.1-2.3,0.3-3.5,0.4c0.2,0.7,0.4,1.5,0.6,2.2
					c3.8-1.7,8.1-0.6,12.1-1.3c-0.2-0.8-0.4-1.5-0.6-2.3c-2.4,0.4-4.8,0.8-7.2,1.2c0.2,0.8,0.4,1.5,0.6,2.3c2.3-0.6,4.6-1,7-1.4
					c-0.2-0.8-0.4-1.5-0.6-2.3c-0.6,0.1-1.2,0.1-1.8,0.2c0.2,0.7,0.4,1.5,0.6,2.2c0.4-0.2,0.8-0.4,1.2-0.6c-0.3-0.7-0.6-1.5-0.9-2.2
					c-2.2,1-4.7,1.9-6.7,3.4c-0.9,0.6-0.7,1.8,0.3,2.2c2.5,1,6.7,3.1,9.5,2.8c0.6-0.1,1.2-0.5,1.2-1.2c0-2.5-4.4-7.7-6.5-4.5
					c-2.4,3.7,4.2,11,7.5,11.9c0.4,0.1,0.9,0,1.2-0.3c2.4-3-2.7-10.3-5.5-11.6c-0.5-0.2-1-0.2-1.5,0.2c-2.6,2.5,2,9.8,3.2,12
					c0.7,1.2,2.6,0.4,2.2-0.9c-0.9-2.9-2.2-6.7-5-8.2c-0.5-0.3-1.1-0.2-1.5,0.2c-2.5,2.3,0.7,7.2,2.3,9.2c0.8,1,2.2-0.1,2-1.2
					c-0.7-3.6-2.1-6.4-4.3-9.3c-0.4-0.5-1.3-0.4-1.7,0c-2.4,2.6,0.8,8.1,2.3,10.4c0.8,1.2,2.4,0.4,2.2-0.9c-0.6-3.7-2-6.8-4.3-9.7
					c-0.4-0.5-1.3-0.4-1.7,0c-2.5,2.1,0.9,8.6,2,10.8c0.6,1.2,2.1,0.5,2.2-0.6c0.4-3.4-1.3-6.7-3.2-9.4c-0.7-1-2.1-0.6-2.2,0.6
					c-0.2,2.9,0.3,5.2,1.6,7.8c0.5,1,2.3,0.6,2.2-0.6c-0.2-2.7-0.9-4.9-2.3-7.2c-0.6-1-2.3-0.6-2.2,0.6c0.2,3,0.5,7,2.7,9.2
					c0.4,0.4,1,0.4,1.5,0.2c3.3-1.7,0.5-9.6-2.2-10.9c-0.8-0.4-1.8,0.1-1.8,1c-0.2,4,1,9.4,4.9,11.4c0.4,0.2,0.9,0.3,1.2,0
					c3.1-2.3,1.7-12.6-2.6-12.9c-0.8-0.1-1.3,0.8-1.2,1.5c0.4,2.1,3.4,10.5,6.8,7.9c3.6-2.8-2.8-9.5-4.9-11
					c-0.9-0.6-2.1,0.4-1.8,1.4c1,3.1,2.8,7,6.1,8.3c0.4,0.1,0.9,0,1.2-0.3c2.3-2.9-1.8-7.8-3.8-9.8c-0.8-0.8-1.9-0.1-2,0.8
					c-0.4,3,4,9.3,7.5,7.9c0.5-0.2,0.9-0.6,0.9-1.2c0.1-2.6-1.5-4.9-3.1-6.9c-0.9-1.1-2.4,0.3-1.9,1.5c0.7,1.5,1.8,4.2,3.7,4.5
					c0.8,0.1,1.8-0.5,1.5-1.5c-0.8-2.2-1.8-3.9-3.3-5.7c-0.8-1-2.3,0.1-2,1.2c0.5,2.1,1.3,3.7,2.7,5.4c0.8,0.9,2.4-0.1,2-1.2
					c-0.8-2.3-1.8-4.3-3.1-6.3c-0.6,0.5-1.3,1-1.9,1.5c1.9,2.3,2.5,6.7,5.8,7.7c0.5,0.2,1.1-0.1,1.4-0.6c1.2-1.9-0.2-4.3-2.4-4.5
					c-0.4,0-0.8,0.3-1,0.6c-1.3,2.1,1.8,6.2,4.2,5.4c0.6-0.2,0.8-0.6,0.9-1.2c0.2-1.2-0.5-2.4-1.1-3.4c-0.8-1.4-2.7-0.2-2.1,1.2
					c0.9,1.9,2,3,3.8,3.9c0.8,0.4,1.8-0.1,1.8-1c-0.1-2.1-0.5-3.9-2.2-5.2c-0.3-0.2-0.9-0.2-1.2,0c-2.1,1.6-0.7,3.8,1,5.3
					c0.9,0.7,1.9,0.2,2-0.8c0.3-2.4-1.4-6.1-4.2-4.2c-0.3,0.2-0.6,0.6-0.6,1c0.2,1.7,1.2,2.4,2.7,2.8c0.8,0.2,1.8-0.6,1.5-1.5
					c-1.1-2.9-3.4-4.1-6.4-4.6c-1.5-0.3-2.1,1.8-0.6,2.3c0.7,0.3,1.4,0.7,2.2,1c0.4-0.7,0.8-1.4,1.2-2.1c-1.4-0.7-4.4-2.4-5.9-1
					c-1.3,1.2-0.2,2.7,0.7,3.6c1.1,1.1,2.8-0.6,1.7-1.7c0.7,0.6,1.4,1,2.3,1.2c1.4,0.7,2.5-1.3,1.2-2.1c-1.3-0.8-1.3-0.8-2.7-1.3
					c-0.2,0.8-0.4,1.5-0.6,2.3c2,0.1,3.5,1.1,4.7,2.9c0.5-0.5,1-1,1.5-1.5c-0.3,0.9-0.6,1.8-0.9,2.7c0.7-0.3,1.4-0.6,2-0.8
					c-0.6,0.6-1.1,1.1-1.7,1.7c0.6-0.3,1.2-0.7,1.8-1c-1.5-0.6-2.4-1.7-2.9-3.1c-0.7,0.4-1.4,0.8-2.1,1.2c1.9,1.1,1.7,0.7-0.6-1.4
					c-0.4-0.7-0.8-1.5-1.1-2.2c-0.7-1.3-1.2-2.3-2.2-3.4c-0.9-1-2.6,0.3-1.9,1.5c1.2,1.9,2,3.6,2.8,5.8c0.7-0.4,1.3-0.8,2-1.2
					c-1.1-1.3-1.9-2.7-2.1-4.3c-0.7,0.4-1.3,0.8-2,1.2c1.3,1.3,2.2,2.9,2.7,4.6c0.5-0.5,1-1,1.5-1.5c-0.9-0.2-2-2.8-2.3-3.4
					c-0.6,0.5-1.3,1-1.9,1.5c3.9,4.9-1.5,1.1-1.2-1.6c-0.7,0.3-1.4,0.6-2,0.8c0.8,0.9,3.9,4.1,3.6,5.2c-0.1,0.4-2.9-5.3-3-5.7
					c-0.6,0.5-1.2,0.9-1.8,1.4c1.3,0.9,4.9,4.4,3.8,5.3c-0.6,0.5-2.1-4.4-2.2-5c-0.4,0.5-0.8,1-1.2,1.5c0,0,4,7.3,1,6.4
					c-2.3-0.6-2.2-5.4-2.1-7.3c-0.6,0.3-1.2,0.7-1.8,1c0.6,1,1.2,2,1.8,2.9c0.3,2.9,0.4,3.6,0.5,1.9c-0.1-1.8-0.6-3.5-0.7-5.4
					c-0.7,0.2-1.5,0.4-2.2,0.6c1.2,1.9,1.8,3.7,2,6c0.7-0.2,1.5-0.4,2.2-0.6c-1.1-2.2-1.4-4.1-1.2-6.5c-0.7,0.2-1.5,0.4-2.2,0.6
					c1.7,2.4,3.3,5.1,2.9,8.2c0.7-0.2,1.5-0.4,2.2-0.6c-0.4-0.8-3.4-7-2.4-7.9c-0.6,0-1.1,0-1.7,0c2,2.6,3.2,5.4,3.6,8.7
					c0.7-0.3,1.5-0.6,2.2-0.9c-0.6-0.9-3.9-6.3-2.7-7.5c-0.6,0-1.1,0-1.7,0c2,2.5,3.1,5.1,3.7,8.2c0.7-0.4,1.3-0.8,2-1.2
					c-2.5-2.5-3-3.6-1.5-3.1c0.8,1.3,1.4,2.7,1.7,4.2c0.7-0.3,1.5-0.6,2.2-0.9c-1-1.8-1.7-3.7-2.7-5.6c-0.6-1.2-1.9-5.2,0.7,0.4
					c0.6,1.3,1.6,4.7-1.1,0.1c-0.3-0.4-0.5-0.9-0.8-1.3c-0.7-2.9-0.4-2.9,1,0c0.4-0.4,0.8-0.8,1.2-1.2c-2.6,0.3-6.5-1.7-8.9-2.7
					c0.1,0.7,0.2,1.5,0.3,2.2c2-1.5,4.5-2.3,6.7-3.4c1.3-0.6,0.4-2.5-0.9-2.2c-0.9,0.2-1,0.2-1.7,0.8c-0.9,0.7-0.7,2.2,0.6,2.2
					c1.2,0,1.3,0,2.4-0.3c1.5-0.3,0.9-2.6-0.6-2.3c-2.3,0.4-4.6,0.8-7,1.4c-1.5,0.4-0.9,2.6,0.6,2.3c2.4-0.4,4.8-0.8,7.2-1.2
					c1.5-0.3,0.9-2.6-0.6-2.3c-4.6,0.7-8.4-0.4-12.7,1.5c-1.1,0.5-0.6,2.4,0.6,2.2c1.2-0.1,2.3-0.3,3.5-0.4c-0.3-0.7-0.6-1.4-0.8-2
					c-1.2,0.6-2.5,1.3-3.7,1.9c0.4,0.7,0.8,1.3,1.2,2c1.4-0.2,2.7-0.3,4.1-0.5c0.1-0.8,0.2-1.6,0.3-2.4c-4.6,0.4-7.3,3.3-9.7,6.9
					c0.7,0.3,1.5,0.6,2.2,0.9c0.2-0.7,0.4-1.5,0.6-2.2c-0.8-0.2-1.5-0.4-2.3-0.6c-0.3,1.3-0.5,2.6-0.8,3.8c0.8,0.2,1.5,0.4,2.3,0.6
					c0.2-1.3,0.5-2.5,0.9-3.7c-0.8-0.2-1.5-0.4-2.3-0.6c-0.2,1.1-0.3,2.2-0.5,3.3c-0.2,1.5,2.1,2.2,2.3,0.6c0.1-1.2,0.4-2.3,1-3.3
					c-0.7-0.1-1.5-0.2-2.2-0.3c0,1.2,0.1,2.4,0.1,3.6c0.8,0.2,1.5,0.4,2.3,0.6c0.4-1.7,0.5-5.1,2.8-3.1c-2.1-1.8-0.9,3.6-2.4,4.4
					c0.5,0.1,1.1,0.3,1.6,0.4c-1.7-2.6,0-7.4,1.1-9.9c-0.7,0.1-1.5,0.2-2.2,0.3c1.5,2.6-0.1,6.1-1.4,8.3c0.7,0,1.4,0,2.1,0
					c-0.8-1.9,1.5-6.8,2.2-8.4c-0.5,0.1-1.1,0.3-1.6,0.4c1.1,0.8-1.5,6.5-1.7,6.9c0.7,0,1.4,0,2.1,0c-0.2-0.5,1.2-4.7,0.7-4.5
					c-0.4,0.2-0.6,4.9-0.9,5.7c0.8,0.1,1.6,0.2,2.4,0.3c0-1.5,0.8-3.6,0.5-5c-0.3-1.2-0.5-0.1-0.6,1.1
					C151.5,292.6,153.9,292.6,154.1,291.1L154.1,291.1z"/>
			</g>
		</g>
		<g>
			<g>
				<path class="st0" d="M168.5,299c1.5,0,1.5-2.4,0-2.4C166.9,296.6,166.9,299,168.5,299L168.5,299z"/>
			</g>
		</g>
		<g>
			<g>
				<path class="st0" d="M164.2,301.6c1.8-1.2,3.2-2.6,4.5-4.4c0.7-1-0.7-2.3-1.6-1.6c-1.3,0.9-3.3,2.6-1.7,4.1c2,2,4.8-0.9,5.7-2.6
					c0.6-1.2-0.9-2.4-1.9-1.5c-1.7,1.5-1.4,4.2,0.9,4.8c0.4,0.1,0.9,0,1.2-0.3c0.8-0.9,1.1-1.9,1.6-3c-0.8,0-1.5,0-2.3,0
					c0.2,1,0.2,1.1,0.7,2c0.5,1,1.9,0.6,2.2-0.3c0.3-0.7,0.6-1.5,0.6-2.3c-0.8-0.1-1.6-0.2-2.4-0.3c0,0.2,0,0.3,0,0.5
					c-0.1,1.3,2.2,1.7,2.4,0.3c0.1-0.3,0.1-0.7,0.2-1c0.1-1-1.1-2.2-2-1.2c-0.6,0.7-0.9,1.2-1.4,1.9c0.7,0.2,1.5,0.4,2.2,0.6
					c0.1-1,0.1-1.9-0.1-2.8c-0.1-0.9-1.3-1.8-2-0.8c-1.1,1.4-2,2.9-2.8,4.5c-0.7,1.4,1.2,2.5,2.1,1.2c0.8-1.2,1.5-2.4,2.3-3.6
					c0.5-0.8-0.2-1.7-1-1.8c-2.6-0.2-6.1,3.6-8,5.2c-1.1,0.9,0.3,2.6,1.5,1.9c2-1.2,3.4-2.6,4.6-4.6c0.5-0.9-0.3-2.1-1.4-1.8
					c-3.1,1.1-5.5,3.1-7.9,5.3c0.6,0.6,1.1,1.1,1.7,1.7c1.7-1.8,5.2-4.7,5.1-7.4c0-0.8-1-1.6-1.8-1c-2.8,1.9-5,4.2-7,6.9
					c-0.7,1,0.7,2.3,1.6,1.6c2-1.3,3.5-3,4.5-5.2c0.4-0.9-0.3-2.1-1.4-1.8c-3,0.9-5.5,2.5-7.5,4.9c-1,1.2,0.5,2.6,1.7,1.7
					c1.6-1.2,2.8-2.6,3.9-4.2c0.7-1-0.7-2.2-1.6-1.6c-2.1,1.3-3.6,2.7-4.9,4.8c-0.6,0.9,0.4,2,1.4,1.8c1.3-0.3,2-0.8,3-1.7
					c1.1-1.1-0.5-2.7-1.7-1.7c-1.6,1.3-3.3,2.7-4.8,4.2c-0.8,0.8-0.1,1.9,0.8,2c1.2,0.1,2.4,1,3.6,1.3c1.8,0.4,3.9,0.4,5.7,0.6
					c0-0.8,0-1.6,0-2.4c-0.9,0-1.8,0-2.7,0c-1.7-0.1-1.8,0-0.4,0.2c0.6-1.3,0.7-1.3,0.8-2.7c0.1-0.9-1.1-1.5-1.8-1
					c-1,0.6-1.8,1.3-2.7,2.1c0.6,0.5,1.3,1,1.9,1.5c0.7-1.1,1.2-2.1,1.6-3.3c0.4-1.2-1.2-1.9-2-1.2c-0.9,0.8-1.8,1.6-2.7,2.4
					c0.6,0.5,1.3,1,1.9,1.5c0.5-0.7,0.9-1.5,1.4-2.2c0.8-1.3-1.2-2.5-2.1-1.2c-3.2,4.6,6.5,4.4,8,5.1c-0.1-0.6-0.2-1.3-0.2-1.9
					c-0.3,0.2-0.5,0.5-0.8,0.7c-1,0.8,0.1,2.2,1.2,2c4.1-0.9,7.1-3.5,8.6-7.5c0.5-1.3-1.5-2-2.2-0.9c-0.6,0.9-1.2,1.8-1.7,2.8
					c-0.4,0.8,0.3,2.2,1.4,1.8c0.3-0.1,0.5-0.2,0.8-0.3c-0.5-0.6-0.9-1.2-1.4-1.8c-0.2,0.4-0.5,0.8-0.7,1.2c-0.5,1,0.6,2.4,1.6,1.6
					c0.8-0.6,1-0.8,1.6-1.6c0.8-1.2-0.9-2.4-1.9-1.5c-0.5,0.4-0.9,0.9-1.2,1.4c-0.9,1.2,0.6,2.8,1.7,1.7c0.8-0.8,1.3-1.5,1.7-2.5
					c0.5-1.2-0.8-2.5-1.9-1.5c-1.2,1.2-2.4,2.2-3.8,3.2c0.5,0.6,1,1.3,1.5,1.9c0.8-0.9,1.6-1.8,2.3-2.7c0.8-1-0.3-2.7-1.5-1.9
					c-1.6,1.1-3,2.1-4.8,2.7c0.4,0.7,0.8,1.3,1.2,2c1.3-1.2,2.7-2.3,4.1-3.3c1.2-0.9,0.2-2.8-1.2-2.1c-1.9,1-3.9,2-5.8,3.1
					c0.4,0.7,0.8,1.4,1.2,2.1c1.6-1.1,3.2-2.2,4.8-3.3c1.3-0.9,0.2-2.7-1.2-2.1c-2.1,0.9-4,1.9-5.9,3.1c0.5,0.6,1,1.3,1.5,1.9
					c1-0.9,2-1.9,3-2.8c1-1-0.3-2.4-1.5-1.9c-1,0.4-1.9,0.9-2.9,1.3c0.5,0.6,1,1.3,1.5,1.9c0.7-0.8,1.3-1.5,1.9-2.4
					c0.6-1-0.6-2.4-1.6-1.6c-1.2,0.9-2.3,1.8-3.4,2.8c0.6,0.5,1.3,1,1.9,1.5c0.2-0.3,0.3-0.6,0.5-0.9c0.7-1.3-0.8-2.3-1.9-1.5
					c-0.3,0.3-0.7,0.5-1,0.8c0.7,0.4,1.3,0.8,2,1.2c0.4-0.9,0.8-1.9,1.2-2.8c-0.8-0.2-1.5-0.4-2.3-0.6c-0.2,0.9-0.5,1.8-0.7,2.7
					c-0.4,1.5,1.7,2,2.3,0.6c0.7-1.6,2.8-7.5-0.5-8.1c-2.7-0.5-4.5,4.6-5.2,6.4c-0.6,1.4,1.7,2,2.3,0.6c-0.1,0.3,1.7-3.8,2-3.7
					c0.7,0.3-0.8,3.9-0.9,4.2c0.8,0.2,1.5,0.4,2.3,0.6c0.2-0.9,0.5-1.8,0.7-2.7c0.4-1.5-1.7-2-2.3-0.6c-0.4,0.9-0.8,1.9-1.2,2.8
					c-0.5,1.3,1.2,1.8,2,1.2c0.3-0.3,0.7-0.5,1-0.8c-0.6-0.5-1.3-1-1.9-1.5c-0.2,0.3-0.3,0.6-0.5,0.9c-0.6,1.2,0.9,2.4,1.9,1.5
					c0.9-0.9,1.9-1.7,2.9-2.5c-0.5-0.5-1.1-1.1-1.6-1.6c-0.4,0.7-0.9,1.4-1.5,2c-1,1,0.3,2.4,1.5,1.9c1-0.4,1.9-0.9,2.9-1.3
					c-0.5-0.6-1-1.3-1.5-1.9c-1,0.9-2,1.9-3,2.8c-1,0.9,0.3,2.6,1.5,1.9c1.9-1.2,3.8-2.2,5.9-3.1c-0.4-0.7-0.8-1.4-1.2-2.1
					c-1.6,1.1-3.2,2.2-4.8,3.3c-1.3,0.9-0.2,2.8,1.2,2.1c1.9-1,3.9-2,5.8-3.1c-0.4-0.7-0.8-1.4-1.2-2.1c-1.6,1.1-3.1,2.3-4.6,3.6
					c-0.9,0.8,0,2.4,1.2,2c2-0.6,3.7-1.7,5.4-2.9c-0.5-0.6-1-1.3-1.5-1.9c-0.8,0.9-1.6,1.8-2.3,2.7c-0.8,1,0.3,2.7,1.5,1.9
					c1.5-1.1,2.9-2.2,4.3-3.5c-0.6-0.5-1.3-1-1.9-1.5c-0.2,0.8-0.7,1.5-1.3,2c0.6,0.6,1.1,1.1,1.7,1.7c0.3-0.5,0.8-1,1.2-1.4
					c-0.6-0.5-1.3-1-1.9-1.5c-0.2,0.3-0.5,0.5-0.7,0.8c0.5,0.5,1.1,1.1,1.6,1.6c0.2-0.4,0.5-0.8,0.7-1.2c0.5-0.8-0.3-2.1-1.4-1.8
					c-0.3,0.1-0.5,0.2-0.8,0.3c0.5,0.6,0.9,1.2,1.4,1.8c0.5-1,1.1-1.9,1.7-2.8c-0.7-0.3-1.5-0.6-2.2-0.9c-1.2,3.2-3.6,5.1-6.9,5.8
					c0.4,0.7,0.8,1.3,1.2,2c0.3-0.2,0.5-0.5,0.8-0.7c0.5-0.5,0.4-1.6-0.2-1.9c-1.1-0.5-2.1-0.9-3.3-1.1c-0.6-0.1-3.9-0.5-3.9-0.7
					c-0.7-0.4-1.4-0.8-2.1-1.2c-0.5,0.7-0.9,1.5-1.4,2.2c-0.7,1.2,0.9,2.3,1.9,1.5c0.9-0.8,1.8-1.6,2.7-2.4c-0.7-0.4-1.3-0.8-2-1.2
					c-0.3,1-0.8,1.9-1.4,2.7c-0.8,1.2,0.9,2.4,1.9,1.5c0.6-0.7,1.4-1.2,2.2-1.7c-0.6-0.3-1.2-0.7-1.8-1c-0.1,1.4-1.9,2.9-0.8,4.3
					c1.1,1.3,4.1,0.6,5.5,0.6c1.6,0,1.5-2.2,0-2.4c-2.5-0.3-4.6-0.6-7-1.3c-1.1-0.3-1.2-0.6-2.4-0.7c0.3,0.7,0.6,1.4,0.8,2
					c1.6-1.4,3.2-2.8,4.8-4.2c-0.6-0.6-1.1-1.1-1.7-1.7c-0.6,0.3-1.3,0.7-1.9,1c0.5,0.6,0.9,1.2,1.4,1.8c1.2-1.8,2.2-2.8,4-3.9
					c-0.5-0.5-1.1-1.1-1.6-1.6c-1,1.5-2.1,2.6-3.5,3.7c0.6,0.6,1.1,1.1,1.7,1.7c1.8-2.1,3.8-3.5,6.5-4.3c-0.5-0.6-0.9-1.2-1.4-1.8
					c-0.9,1.9-1.9,3.2-3.7,4.3c0.5,0.5,1.1,1.1,1.6,1.6c1.7-2.4,3.7-4.4,6.1-6.1c-0.6-0.3-1.2-0.7-1.8-1c0,1.6-3.2,4.5-4.4,5.7
					c-1.1,1.1,0.6,2.7,1.7,1.7c2.1-1.9,4.1-3.7,6.9-4.7c-0.5-0.6-0.9-1.2-1.4-1.8c-1,1.7-2,2.8-3.7,3.8c0.5,0.6,1,1.3,1.5,1.9
					c1.2-0.9,4.6-4.6,6.3-4.5c-0.3-0.6-0.7-1.2-1-1.8c-0.8,1.2-1.5,2.4-2.3,3.6c0.7,0.4,1.4,0.8,2.1,1.2c0.7-1.5,1.4-2.7,2.4-4
					c-0.7-0.3-1.4-0.6-2-0.8c0.2,0.9,0.2,1.9,0.1,2.8c-0.1,1.3,1.6,1.5,2.2,0.6c0.4-0.5,0.7-0.9,1.1-1.4c-0.7-0.4-1.3-0.8-2-1.2
					c-0.1,0.3-0.1,0.7-0.2,1c0.8,0.1,1.6,0.2,2.4,0.3c0-0.2,0-0.3,0-0.5c0.1-1.3-2.1-1.7-2.4-0.3c-0.1,0.8-0.3,1.6-0.6,2.3
					c0.7-0.1,1.5-0.2,2.2-0.3c-0.1-0.5-0.3-0.9-0.4-1.4c-0.2-1.3-1.9-1-2.3,0c0.1,0.3,0.2,0.6,0.4,0.8c-0.6-0.5-1.3-1-1.9-1.5
					c-0.2,0.6-0.5,1.2-0.7,1.8c-0.5-0.5-1.1-1.1-1.6-1.6c-1.1,1.5-2.1,2.5-3.7,3.5C161.7,300.4,162.9,302.5,164.2,301.6L164.2,301.6
					z"/>
			</g>
		</g>
		<g>
			<g>
				<path class="st0" d="M167.9,302.5c0.5,0.1,0.9,0.3,1.4,0.4c-0.2-0.7-0.4-1.3-0.5-2c-0.6,0.5-0.8,0.7-1.2,1.4
					c-0.6,0.9,0.4,2,1.4,1.8c0.6-0.1,0.8-0.3,1.2-0.7c-0.6-0.6-1.1-1.1-1.7-1.7c-2,2.3-4.5,1.7-7.2,2.3c-0.8,0.2-1.5,0.3-1.8,1.2
					c-0.9,2.6,2.8,2.4,4.2,2c7.7-2.7,2-12.4-2.2-15.9c-2-1.7-5-3.1-7.3-1.2c-2.2,1.8-3.2,5.9-1.9,8.4c1.1,2.2,4.4,2,6.4,1.2
					c3-1.2,2.1-5.3,0.8-7.5c-1.1-2-4-4.8-6.1-2.4c-1.8,1.9-1.8,7.4,1.3,8c1.5,0.3,2.2-2,0.6-2.3c-0.6-0.1-0.8-3-0.5-3.3
					c1.4-1.3,2.5,1.1,2.9,2c0.6,1.5,0.9,2.2-0.6,3c-1.4,0.8-2.5,0.4-3-1c-0.3-0.9,0.3-3.7,1.3-4.2c1-0.5,2.8,0,3.8,0.6
					c1.6,0.9,2.8,2.7,3.7,4.2c0.7,1.1,1.9,2.8,1.9,4.1c0,0.7-3.5,4.8-2.5,5.5c0.3,0.2,1.8-0.1,2.2-0.2c2.2-0.3,4.1-1,5.6-2.7
					c1-1.2-0.7-2.9-1.7-1.7c0,0-0.1,0.1-0.1,0.1c0.5,0.6,0.9,1.2,1.4,1.8c0.3-0.3,0.6-0.6,0.9-0.9c0.7-0.6,0.3-1.8-0.5-2
					c-0.5-0.1-0.9-0.3-1.4-0.4C167,299.7,166.4,302.1,167.9,302.5L167.9,302.5z"/>
			</g>
		</g>
	</g>
	<g>
		<g>
			<g>
				<path class="st1" d="M169.6,283c-1.1,0.4-2.3,0.4-3.4,0.2c-0.8-0.2-1.1,1-0.3,1.2c1.4,0.3,2.7,0.3,4.1-0.2
					C170.7,284,170.4,282.8,169.6,283L169.6,283z"/>
			</g>
		</g>
		<g>
			<g>
				<path class="st1" d="M170,284c3.8,3.6,4.4,10.6,2.3,15.1c-0.3,0.7,0.7,1.3,1,0.6c2.4-5,1.7-12.6-2.5-16.5
					C170.3,282.6,169.5,283.5,170,284L170,284z"/>
			</g>
		</g>
		<g>
			<g>
				<path class="st1" d="M172.3,299c-1.1,4.3-4.7,6.3-8.8,7.3c-4.3,1-7.2-0.1-10.9-2.1c-0.7-0.4-1.3,0.7-0.6,1
					c4.4,2.4,8.1,3.4,13.1,1.9c4-1.2,7.2-3.6,8.3-7.8C173.7,298.6,172.5,298.3,172.3,299L172.3,299z"/>
			</g>
		</g>
		<g>
			<g>
				<path class="st1" d="M152.7,304.3c-10.8-0.9-9-12.5-6.5-19.7c0.3-0.7-0.9-1-1.2-0.3c-2.9,8.1-4,20.3,7.6,21.3
					C153.5,305.6,153.5,304.4,152.7,304.3L152.7,304.3z"/>
			</g>
		</g>
		<g>
			<g>
				<path class="st1" d="M166.1,283c-0.6-0.2-1-0.8-1-1.4c0-0.8-1.2-0.8-1.2,0c0,1.2,0.8,2.2,1.9,2.6
					C166.5,284.4,166.8,283.3,166.1,283L166.1,283z"/>
			</g>
		</g>
		<g>
			<g>
				<path class="st1" d="M165.1,281.6c-0.1-0.5-0.2-1.1-0.3-1.6c0-0.3-0.3-0.6-0.6-0.6c-5.7,0-11.6,1-17.4,1.5
					c-0.8,0.1-0.8,1.3,0,1.2c3.5-0.3,6.9-0.6,10.4-1c2.2-0.2,5.8-1.6,6.7,0.8C164.2,282.6,165.4,282.3,165.1,281.6L165.1,281.6z"/>
			</g>
		</g>
		<g>
			<g>
				<path class="st1" d="M146.2,281.3c-0.1,1.2-0.4,2.4-0.9,3.5c-0.3,0.7,0.7,1.3,1,0.6c0.6-1.3,0.9-2.6,1.1-4.1
					C147.5,280.5,146.3,280.5,146.2,281.3L146.2,281.3z"/>
			</g>
		</g>
	</g>
</g>
</svg>
