<?xml version="1.0" encoding="utf-8"?>
<!-- Generator: Adobe Illustrator 21.0.2, SVG Export Plug-In . SVG Version: 6.00 Build 0)  -->
<svg version="1.1" id="Layer_1" xmlns="http://www.w3.org/2000/svg" xmlns:xlink="http://www.w3.org/1999/xlink" x="0px" y="0px"
	 viewBox="0 0 200 600" style="enable-background:new 0 0 200 600;" xml:space="preserve">
<style type="text/css">
	.st0{fill:#2E1018;}
	.st1{fill:#010101;}
</style>
<g>
	<g>
		<g>
			<g>
				<path class="st0" d="M35.6,293.8c-3.8,2.4-5.6,2.4-5.2,0c0-1-1.3-1.6-2-0.8c-0.5,0.5-1.1,1-1.6,1.4c0.6,0.2,1.2,0.5,1.8,0.7
					c0-0.5,0-0.9,0-1.4c-0.8-0.1-1.6-0.2-2.4-0.3c-0.2,0.6-0.4,1.1-0.6,1.7c0.7,0.1,1.5,0.2,2.2,0.3c0.1-0.4,0.1-0.8,0.2-1.2
					c-0.8-0.1-1.6-0.2-2.4-0.3c-0.1,0.5-0.2,1-0.4,1.5c0.7,0.2,1.5,0.4,2.2,0.6c0.2-2.1,0.7-3.8,1.4-5.7c0.5-1.3-1.6-2.1-2.2-0.9
					c-0.4,0.6-0.8,1.2-1.2,1.8c0.7,0.4,1.3,0.8,2,1.2c0.1-0.3,1.4-3.9,2.1-4.4c0.8-0.6,0.7-0.1,1.8-0.3c1.6-0.2,2.7-0.2,4-1.3
					c0.7-0.6,1-1.9,1.5-2.3c0.8-0.6,0.2,0.1,1.1-0.1c0.3-0.1,6.4,0.2,4.8,0c0.1-0.8,0.2-1.6,0.3-2.4c-1.6,0-3.1-0.3-4.6-0.7
					c-1.5-0.4-2.1,1.8-0.6,2.3c3.1,1.2,6.1,1.7,9.5,1.9c1.3,0,1.7-2.1,0.3-2.4c-1.2-0.2-3-0.3-4-1.2c-0.4,0.7-0.8,1.3-1.2,2
					c1.9,0.6,4.6,0.6,6.4,1.5c0.3-0.1,0.6-0.2,0.8-0.3c0.1,0.4,0.2,0.9,0.3,1.3c-0.1-0.1,1.2,2.9,1.2,2.8c0.6,1.2,2.5,0.4,2.2-0.9
					c-0.4-1.4-0.7-2.7-1.1-4.1c-0.7,0.3-1.5,0.6-2.2,0.9c0.3,0.6,0.5,1.3,0.8,1.9c0.8-0.2,1.5-0.4,2.3-0.6c-0.5-1-0.8-2-1-3.1
					c-0.8,0.2-1.5,0.4-2.3,0.6c0.7,2.4,1.2,4.8,1.6,7.3c0.8-0.2,1.5-0.4,2.3-0.6c-0.2-0.8-0.3-1.6-0.5-2.5c-0.8,0.1-1.6,0.2-2.4,0.3
					c0.4,0.9,0.6,1.8,0.8,2.7c0.3,1.5,2.5,0.8,2.3-0.6c-0.1-1-0.3-2-0.4-2.9c-0.8,0.2-1.5,0.4-2.3,0.6c0.3,0.8,0.6,1.6,0.9,2.4
					c0.5,1.4,2.7,0.9,2.3-0.6c-0.3-1.1-0.6-2.1-0.8-3.2c-0.8,0.2-1.5,0.4-2.3,0.6c1.2,3.1,0.4,5.7,0.5,8.8c0.1,1.3,2,1.6,2.4,0.3
					c0.3-1,0.6-2,0.9-3.1c-0.8-0.1-1.6-0.2-2.4-0.3c0.1,1,0.2,2.1,0.1,3.2c0.8-0.1,1.6-0.2,2.4-0.3c-0.1-0.6-0.1-1.2-0.2-1.8
					c0-1.6-2.3-1.5-2.4,0c-0.4,4-1.1,8.6-6.2,8.5c-1.2,0-1.6,1.6-0.6,2.2c0.4,0.2,0.7,0.4,1.1,0.7c0.2-0.7,0.4-1.5,0.6-2.2
					c-0.1,0-0.3,0-0.4,0c0,0.8,0,1.6,0,2.4c3.1-0.2,5.9-1.4,7.5-4.2c0.8-1.4,2-4.1,0.5-5.4c-0.5-0.4-1.2-0.5-1.7,0
					c-1.9,1.9-3.7,3.8-5.6,5.7c0.6,0.5,1.3,1,1.9,1.5c0.5-1.3,1.3-2.5,2.3-3.6c-0.6-0.5-1.3-1-1.9-1.5c0.2-0.3,0.5-0.5,0.7-0.8
					c-0.2-0.6-0.5-1.2-0.7-1.8c-0.5,0.9-3.2,5.9-4.8,2.3c-0.6-1.4,3-4.9,3.8-5.6c-0.7-0.2-1.3-0.4-2-0.5c0.5,2.5-3.1,7.2-5.4,8
					c0.5,0.5,1,1,1.5,1.5c0.7-3.5,3-6.2,5.4-8.6c-0.6-0.1-1.3-0.2-1.9-0.2c0.8,1.3-3.3,6.6-4,7.4c0.7,0.4,1.3,0.8,2,1.2
					c1.2-3,2.7-5.5,4.9-7.9c-0.7-0.4-1.3-0.8-2-1.2c-0.8,2.6-1.8,5-3.3,7.3c0.7,0.4,1.4,0.8,2.1,1.2c1.1-2.5,2.4-4.6,4-6.8
					c-0.7-0.3-1.5-0.6-2.2-0.9c-0.8,2.8-2,5.4-3.5,8c0.7,0.3,1.5,0.6,2.2,0.9c0.8-2.6,1.9-4.9,3.6-7c-0.7-0.4-1.3-0.8-2-1.2
					c-0.7,2.3-1.5,4.5-2.6,6.7c0.7,0.3,1.5,0.6,2.2,0.9c0.7-1.8,1.6-3.2,2.6-4.8c-0.7-0.3-1.5-0.6-2.2-0.9c-1,2.6-2.1,4.9-3.6,7.2
					c0.7,0.3,1.5,0.6,2.2,0.9c0.8-2.4,1.8-4.3,3.4-6.3c-0.7-0.3-1.5-0.6-2.2-0.9c-0.5,1.8-1.2,3.5-2.1,5.2c0.7,0.3,1.5,0.6,2.2,0.9
					c0.5-1.6,1.2-3,2.1-4.4c-0.7-0.3-1.5-0.6-2.2-0.9c-0.2,1.2-0.7,2.3-1.5,3.2c-0.9,1.3,1.2,2.5,2.1,1.2c0.9-1.3,1.4-2.3,1.8-3.8
					c0.4-1.3-1.5-2.1-2.2-0.9c-1,1.6-1.7,3.2-2.4,5c-0.5,1.3,1.6,2.1,2.2,0.9c1-1.9,1.8-3.7,2.3-5.8c0.4-1.4-1.4-1.9-2.2-0.9
					c-1.6,2.1-2.8,4.3-3.6,6.9c-0.4,1.3,1.5,2,2.2,0.9c1.6-2.5,2.8-5,3.8-7.7c0.5-1.3-1.5-2-2.2-0.9c-1.2,1.7-2.1,3.5-2.9,5.4
					c-0.5,1.3,1.6,2.1,2.2,0.9c1.2-2.3,2.1-4.7,2.9-7.2c0.3-1.1-1.2-2.1-2-1.2c-2,2.5-3.3,5-4.3,8.1c-0.4,1.3,1.5,2.1,2.2,0.9
					c1.7-2.7,2.9-5.5,3.8-8.5c0.4-1.4-1.4-1.9-2.2-0.9c-1.6,2.1-2.9,4.3-4,6.8c-0.6,1.4,1.2,2.6,2.1,1.2c1.5-2.5,2.7-5,3.5-7.9
					c0.3-1.1-1.2-2.1-2-1.2c-2.4,2.7-4.2,5.6-5.5,9c-0.4,1.1,1.3,2.1,2,1.2c1.7-2.1,6.2-7.4,4.4-10.4c-0.4-0.7-1.3-0.8-1.9-0.2
					c-2.8,2.7-5.2,5.8-6.1,9.7c-0.2,0.8,0.6,1.8,1.5,1.5c3.7-1.3,7.9-7,7.1-11c-0.2-0.9-1.4-1.1-2-0.5c-2.2,2-7.6,8.9-3.4,11.6
					c3.2,2,7-3.1,8.1-5.4c0.3-0.6,0.1-1.6-0.7-1.8c-2.7-0.4-5.4,4.8-3.6,6.8c0.3,0.3,0.8,0.4,1.2,0.3c1.6-0.3,2.4-1.6,3.2-2.8
					c0.8-1.1-1-2.5-1.9-1.5c-1.1,1.3-1.9,2.5-2.7,4.1c-0.6,1.2,0.9,2.5,1.9,1.5c1.9-1.9,3.7-3.8,5.6-5.7c-0.6,0-1.1,0-1.7,0
					c-0.8,3.6-2.9,5.5-6.3,5.5c-1.5,0.1-1.5,2.3,0,2.4c0.1,0,0.3,0,0.4,0c1.2,0.1,1.6-1.6,0.6-2.2c-0.4-0.2-0.7-0.4-1.1-0.7
					c-0.2,0.7-0.4,1.5-0.6,2.2c6.9,0,8-5.3,8.6-10.9c-0.8,0-1.6,0-2.4,0c0,1.1,0,1.4,0.2,2.4c0.3,1.4,2.3,1,2.4-0.3
					c0.1-1.1,0.1-2.1-0.1-3.2c-0.1-1.3-1.9-1.7-2.4-0.3c-0.3,1-0.6,2-0.9,3.1c0.8,0.1,1.6,0.2,2.4,0.3c-0.2-3.7,0.7-6-0.6-9.5
					c-0.5-1.4-2.7-0.9-2.3,0.6c0.3,1.1,0.6,2.1,0.8,3.2c0.8-0.2,1.5-0.4,2.3-0.6c-0.3-0.8-0.6-1.6-0.9-2.4c-0.6-1.5-2.5-0.9-2.3,0.6
					c0.1,1,0.3,2,0.4,2.9c0.8-0.2,1.5-0.4,2.3-0.6c-0.2-0.9-0.4-1.8-0.8-2.7c-0.4-1.2-2.5-1.1-2.4,0.3c0.2,1.5,0.1,1.6,0.6,3.1
					c0.5,1.5,2.6,0.9,2.3-0.6c-0.4-2.5-1-4.9-1.6-7.3c-0.4-1.5-2.6-0.9-2.3,0.6c0.1,1.1,0.4,2.1,1,3.1c0.6,1.4,2.8,0.9,2.3-0.6
					c-0.4-1.2-0.4-1.4-1-2.5c-0.6-1.2-2.5-0.4-2.2,0.9c0.4,1.4,0.7,2.7,1.1,4.1c0.7-0.3,1.5-0.6,2.2-0.9c-0.7-1.3-0.7-3.7-2-4.6
					c-1.8-1.3-6-1.1-8.1-1.8c-1.1-0.3-2.1,1.2-1.2,2c1.5,1.3,3.1,1.4,5.1,1.8c0.1-0.8,0.2-1.6,0.3-2.4c-3.1-0.1-5.9-0.7-8.8-1.8
					c-0.2,0.8-0.4,1.5-0.6,2.3c1.8,0.4,3.4,0.7,5.2,0.8c1.3,0.1,1.7-2.1,0.3-2.4c-1.4-0.3-5.5-0.7-6.6-0.4c-2,0.5-1,1-2.1,1.7
					c-1.4,1.8-2.9,2.5-4.6,2.1c-0.2,0-0.4-0.1-0.6-0.1c-0.2,0.2-0.6,0.1-0.8,0.4c-1.6,1.5-3,4.4-3.5,6.6c-0.2,1.1,1.2,2.2,2,1.2
					c0.9-1.1,0.9-1.1,1.5-2.3c-0.7-0.3-1.5-0.6-2.2-0.9c-0.8,2.1-1.3,4.1-1.5,6.3c-0.1,1.2,1.7,1.6,2.2,0.6c0.7-1.2,0.7-1.3,0.7-2.7
					c0-1.4-1.9-1.6-2.4-0.3c-0.4,1.1-0.4,1.3-0.2,2.5c0.2,1.1,1.7,1.1,2.2,0.3c0.8-1.3,0.8-1.4,0.9-2.9c0.2-1.4-2-1.5-2.4-0.3
					c-0.4,1.3-0.4,1.4,0,2.7c0.2,0.7,1.1,1.2,1.8,0.7c1.1-0.8,1.2-0.8,2.1-1.8c-0.7-0.3-1.4-0.6-2-0.8c0.3,6.9,8.2,0.9,5.2-2.2
					c-0.3-0.3-0.8-0.4-1.2-0.3c-2.4,0.8-2.4,5-0.1,5.9c2.9,1.2,6.5-3.4,3.7-5.4c-2.2-1.6-4.3,1.3-3.3,3.4c1.1,2.4,5.2,1.9,5.3-1
					c0-2.8-4-3-4.3-0.2c-0.3,2.4,2.6,3.8,4.1,1.9c1.6-2-1.1-4.9-3.1-3.2c-2.2,1.7,0.3,4.6,2.5,3.2C38.1,295,36.9,293,35.6,293.8
					L35.6,293.8z"/>
			</g>
		</g>
		<g>
			<g>
				<path class="st0" d="M47.5,292c-0.1-0.7-0.5-2.9-0.6-1.1c-0.1,1.5,0.5,3.4,0.5,5c0.8-0.1,1.6-0.2,2.4-0.3
					c-0.5-1.3-1.5-4.3-0.9-5.7c-0.4,0.9,1.4,3.1,0.7,4.5c0.7,0,1.4,0,2.1,0c-0.2-0.4-2.8-6.1-1.7-6.9c-0.5-0.1-1.1-0.3-1.6-0.4
					c0.7,1.6,3,6.5,2.2,8.4c0.7,0,1.4,0,2.1,0c-1.3-2.3-2.9-5.8-1.4-8.3c-0.7-0.1-1.5-0.2-2.2-0.3c1,2.4,2.8,7.4,1.1,9.9
					c0.5-0.1,1.1-0.3,1.6-0.4c-1.2-0.9-1.6-1.9-1-3.2c0.7-1.3,0.2-1.7-1.4-1.3c0.5-0.3,1-0.6,1.5-0.8c0.7,1.3,1.1,2.6,1.3,4
					c0.8-0.2,1.5-0.4,2.3-0.6c0-1.2,0.1-2.4,0.1-3.6c-0.7,0.1-1.5,0.2-2.2,0.3c0.6,1.1,0.9,2.2,1,3.3c0.3,1.5,2.5,0.9,2.3-0.6
					c-0.2-1.1-0.3-2.2-0.5-3.3c-0.8,0.2-1.5,0.4-2.3,0.6c0.4,1.3,0.7,2.4,0.9,3.7c0.8-0.2,1.5-0.4,2.3-0.6c-0.3-1.3-0.5-2.6-0.8-3.8
					c-0.8,0.2-1.5,0.4-2.3,0.6c0.2,0.7,0.4,1.5,0.6,2.2c0.7-0.3,1.5-0.6,2.2-0.9c-2.5-3.6-5.1-6.5-9.7-6.9c0.1,0.8,0.2,1.6,0.3,2.4
					c1.4,0.2,2.7,0.3,4.1,0.5c0.4-0.7,0.8-1.3,1.2-2c-1.2-0.6-2.5-1.3-3.7-1.9c-0.3,0.7-0.6,1.4-0.8,2c1.2,0.1,2.3,0.3,3.5,0.4
					c1.2,0.1,1.7-1.8,0.6-2.2c-4.4-2-8.1-0.8-12.7-1.5c-1.5-0.2-2.2,2.1-0.6,2.3c2.4,0.4,4.8,0.8,7.2,1.2c1.5,0.2,2.2-1.9,0.6-2.3
					c-2.3-0.6-4.6-1-7-1.4c-1.5-0.2-2.2,2-0.6,2.3c1.1,0.3,1.3,0.3,2.4,0.3c1.3,0,1.5-1.6,0.6-2.2c-0.8-0.5-0.8-0.6-1.7-0.8
					c-1.3-0.3-2.2,1.6-0.9,2.2c2.2,1,4.7,1.9,6.7,3.4c0.1-0.7,0.2-1.5,0.3-2.2c-2.3,0.9-6.3,3-8.9,2.7c0.4,0.4,0.8,0.8,1.2,1.2
					c1.2-2.6,1.6-3,1.2-1.1c0,0.9-0.3,1.7-0.9,2.4c-2.7,4.6-1.8,1.2-1.1-0.1c1-1.9,2.2-3.5,0.7-0.4c-0.9,1.9-1.7,3.8-2.7,5.6
					c0.7,0.3,1.5,0.6,2.2,0.9c0.4-1.5,0.9-2.9,1.7-4.2c1.5-0.5,1,0.5-1.5,3.1c0.7,0.4,1.3,0.8,2,1.2c0.6-3.1,1.7-5.7,3.7-8.2
					c-0.6,0-1.1,0-1.7,0c1.2,1.2-2.1,6.6-2.7,7.5c0.7,0.3,1.5,0.6,2.2,0.9c0.5-3.3,1.6-6.1,3.6-8.7c-0.6,0-1.1,0-1.7,0
					c1,0.9-1.9,6.9-2.4,7.9c0.7,0.2,1.5,0.4,2.2,0.6c-0.4-3.1,1.2-5.8,2.9-8.2c-0.7-0.2-1.5-0.4-2.2-0.6c0.2,2.4-0.1,4.3-1.2,6.5
					c0.7,0.2,1.5,0.4,2.2,0.6c0.2-2.3,0.8-4.1,2-6c-0.7-0.2-1.5-0.4-2.2-0.6c-0.1,1.8-0.7,3.6-0.7,5.4c0,1.2,0.1,1,0.3-0.6
					c0.1-1.6,0.8-3.1,2-4.3c-0.6-0.3-1.2-0.7-1.8-1c0.1,1.9,0.2,6.6-2.1,7.3c-3,0.8,1-6.4,1-6.4c-0.4-0.5-0.8-1-1.2-1.5
					c-0.1,0.6-1.6,5.5-2.2,5c-1.1-0.9,2.5-4.4,3.8-5.3c-0.6-0.5-1.2-0.9-1.8-1.4c-0.1,0.3-2.9,6.1-3,5.7c-0.3-1.1,2.7-4.3,3.6-5.2
					c-0.7-0.3-1.4-0.6-2-0.8c0.3,2.8-5.1,6.5-1.2,1.6c-0.6-0.5-1.3-1-1.9-1.5c-0.3,0.7-1.4,3.2-2.3,3.4c0.5,0.5,1,1,1.5,1.5
					c0.5-1.8,1.4-3.3,2.7-4.6c-0.7-0.4-1.3-0.8-2-1.2c-0.3,1.6-1,3.1-2.1,4.3c0.7,0.4,1.3,0.8,2,1.2c0.8-2.2,1.6-3.8,2.8-5.8
					c0.7-1.1-1-2.5-1.9-1.5c-0.9,1.1-1.5,2.1-2.2,3.4c-0.3,0.8-0.7,1.5-1.1,2.2c-2.4,2-2.6,2.5-0.6,1.4c-0.7-0.4-1.4-0.8-2.1-1.2
					c-0.5,1.4-1.4,2.4-2.9,3.1c0.6,0.3,1.2,0.7,1.8,1c-0.6-0.6-1.1-1.1-1.7-1.7c0.7,0.3,1.4,0.6,2,0.8c-0.3-0.9-0.6-1.8-0.9-2.7
					c0.5,0.5,1,1,1.5,1.5c1.2-1.8,2.8-2.8,4.7-2.9c-0.2-0.8-0.4-1.5-0.6-2.3c-1.4,0.5-1.4,0.5-2.7,1.3c-1.3,0.8-0.2,2.8,1.2,2.1
					c0.9-0.2,1.6-0.6,2.3-1.2c-1.1,1.1,0.6,2.8,1.7,1.7c1-0.9,2-2.4,0.7-3.6c-1.5-1.5-4.5,0.2-5.9,1c0.4,0.7,0.8,1.4,1.2,2.1
					c0.7-0.3,1.4-0.7,2.2-1c1.5-0.5,0.9-2.6-0.6-2.3c-3,0.5-5.3,1.7-6.4,4.6c-0.3,0.9,0.7,1.7,1.5,1.5c1.5-0.5,2.5-1.2,2.7-2.8
					c0-0.4-0.3-0.8-0.6-1c-2.8-1.8-4.5,1.9-4.2,4.2c0.1,1,1.2,1.6,2,0.8c1.7-1.5,3.1-3.7,1-5.3c-0.3-0.2-0.9-0.2-1.2,0
					c-1.7,1.3-2.1,3.2-2.2,5.2c0,0.9,1,1.4,1.8,1c1.8-1,2.9-2,3.8-3.9c0.7-1.4-1.3-2.6-2.1-1.2c-0.6,1-1.3,2.2-1.1,3.4
					c0.1,0.6,0.3,1,0.9,1.2c2.4,0.8,5.5-3.3,4.2-5.4c-0.2-0.3-0.6-0.6-1-0.6c-2.2,0.3-3.6,2.6-2.4,4.5c0.3,0.4,0.8,0.7,1.4,0.6
					c3.2-1,3.8-5.4,5.8-7.7c-0.6-0.5-1.3-1-1.9-1.5c-1.3,2-2.3,4.1-3.1,6.3c-0.4,1.1,1.2,2.1,2,1.2c1.4-1.7,2.2-3.2,2.7-5.4
					c0.3-1.1-1.2-2.1-2-1.2c-1.5,1.7-2.5,3.5-3.3,5.7c-0.3,0.9,0.7,1.6,1.5,1.5c1.9-0.4,3-3,3.7-4.5c0.5-1.1-1-2.6-1.9-1.5
					c-1.5,1.9-3.2,4.3-3.1,6.9c0,0.6,0.4,1,0.9,1.2c3.4,1.3,7.8-4.9,7.5-7.9c-0.1-1-1.3-1.7-2-0.8c-2,2-6.1,6.9-3.8,9.8
					c0.2,0.3,0.8,0.4,1.2,0.3c3.3-1.3,5.1-5.2,6.1-8.3c0.3-1-0.9-2-1.8-1.4c-2.1,1.5-8.5,8.2-4.9,11c3.5,2.7,6.4-5.8,6.8-7.9
					c0.1-0.7-0.3-1.6-1.2-1.5c-4.3,0.3-5.7,10.6-2.6,12.9c0.4,0.3,0.9,0.2,1.2,0c3.9-2,5.1-7.4,4.9-11.4c0-0.9-1-1.4-1.8-1
					c-2.7,1.3-5.5,9.2-2.2,10.9c0.5,0.2,1.1,0.2,1.5-0.2c2.2-2.2,2.6-6.3,2.7-9.2c0.1-1.2-1.6-1.6-2.2-0.6c-1.5,2.3-2.1,4.5-2.3,7.2
					c-0.1,1.2,1.7,1.7,2.2,0.6c1.3-2.6,1.8-4.9,1.6-7.8c-0.1-1.2-1.5-1.6-2.2-0.6c-1.9,2.7-3.6,6-3.2,9.4c0.1,1.1,1.6,1.8,2.2,0.6
					c1.2-2.3,4.5-8.7,2-10.8c-0.4-0.4-1.3-0.5-1.7,0c-2.3,3-3.7,6-4.3,9.7c-0.2,1.3,1.4,2.1,2.2,0.9c1.6-2.4,4.8-7.9,2.3-10.4
					c-0.4-0.4-1.3-0.5-1.7,0c-2.2,2.9-3.6,5.7-4.3,9.3c-0.2,1,1.2,2.2,2,1.2c1.6-2,4.8-6.8,2.3-9.2c-0.4-0.4-1-0.4-1.5-0.2
					c-2.8,1.5-4.2,5.3-5,8.2c-0.4,1.3,1.5,2.1,2.2,0.9c1.2-2.2,5.8-9.5,3.2-12c-0.4-0.4-1-0.4-1.5-0.2c-2.8,1.3-7.9,8.6-5.5,11.6
					c0.3,0.3,0.8,0.4,1.2,0.3c3.3-1,9.9-8.2,7.5-11.9c-2.1-3.2-6.5,2-6.5,4.5c0,0.7,0.5,1.1,1.2,1.2c2.8,0.4,7-1.8,9.5-2.8
					c1-0.4,1.1-1.6,0.3-2.2c-2-1.5-4.5-2.3-6.7-3.4c-0.3,0.7-0.6,1.5-0.9,2.2c0.4,0.2,0.8,0.4,1.2,0.6c0.2-0.7,0.4-1.5,0.6-2.2
					c-0.6-0.1-1.2-0.1-1.8-0.2c-0.2,0.8-0.4,1.5-0.6,2.3c2.3,0.4,4.6,0.8,7,1.4c0.2-0.8,0.4-1.5,0.6-2.3c-2.4-0.4-4.8-0.8-7.2-1.2
					c-0.2,0.8-0.4,1.5-0.6,2.3c4.1,0.7,8.3-0.4,12.1,1.3c0.2-0.7,0.4-1.5,0.6-2.2c-1.2-0.1-2.3-0.3-3.5-0.4c-1-0.1-1.6,1.4-0.8,2
					c1.5,1.2,2.9,2,4.8,2.6c1.1,0.3,2.1-1.2,1.2-2c-2-1.6-4-2.1-6.4-1.1c-1.2,0.5-1.1,2.2,0.3,2.4c3.8,0.3,5.7,2.9,7.7,5.7
					c0.7,1.1,2.6,0.4,2.2-0.9c-0.2-0.7-0.4-1.5-0.6-2.2c-0.4-1.5-2.6-0.9-2.3,0.6c0.3,1.3,0.5,2.6,0.8,3.8c0.3,1.5,2.6,0.9,2.3-0.6
					c-0.2-1.3-0.5-2.5-0.9-3.7c-0.5-1.5-2.5-0.9-2.3,0.6c0.2,1.1,0.3,2.2,0.5,3.3c0.8-0.2,1.5-0.4,2.3-0.6c-0.2-1.4-0.6-2.6-1.2-3.9
					c-0.5-1-1.9-0.6-2.2,0.3c-0.6,1.8-0.6,3-0.1,4.8c0.4,1.5,2.6,0.9,2.3-0.6c-0.4-2.2-1.6-7.3-4.6-7.2c-2.7,0-3,4.3-2.7,6.1
					c0.3,1.9,1.7,5.9,4.5,5.1c2.8-0.9,2.3-5.7,1.5-7.6c-2.7-6.7-8.1,2.1-4.7,6.5c4.2,5.5,8-4.8,2.9-5.6c-0.6-0.1-1,0.1-1.4,0.6
					c-1.5,2.1-1.1,8.6,2.6,5.5c2.5-2.1,0.5-8.5-2.7-8.8c-0.4,0-0.8,0.3-1,0.6c-1.7,2.6-0.9,7.4,1.8,9c0.6,0.3,1.3,0.1,1.6-0.4
					c2.1-3.1,0.5-8.6-0.8-11.8c-0.4-0.9-1.6-1.3-2.2-0.3c-1.9,3.4-0.3,7.6,1.4,10.8c0.4,0.7,1.7,0.8,2.1,0c1.4-3.3-0.9-7.8-2.2-10.8
					c-0.2-0.6-1.2-0.8-1.6-0.4c-2.9,2.1-0.5,7.8,0.8,10.2c0.4,0.8,1.7,0.8,2.1,0c1.2-2.4-0.5-7-2.5-8.7c-0.4-0.3-1-0.5-1.5-0.2
					c-2.7,1.7-1,7.2-0.2,9.5c0.4,1.2,2.4,1.1,2.4-0.3c0-2.3,0.2-8.4-2.7-9.2c-0.6-0.1-1,0.1-1.4,0.6c-1,1.3-0.8,3.2-0.6,4.7
					C45.3,293.5,47.7,293.5,47.5,292L47.5,292z"/>
			</g>
		</g>
		<g>
			<g>
				<path class="st0" d="M30.8,300c1.5,0,1.5-2.4,0-2.4C29.2,297.5,29.2,300,30.8,300L30.8,300z"/>
			</g>
		</g>
		<g>
			<g>
				<path class="st0" d="M36.2,300.4c-1.6-1-2.6-2-3.7-3.5c-0.5,0.5-1.1,1.1-1.6,1.6c-0.2-0.6-0.5-1.2-0.7-1.8
					c-0.6,0.5-1.3,1-1.9,1.5c0.1-0.3,0.2-0.6,0.4-0.8c-0.4-1-2.1-1.3-2.3,0c-0.1,0.5-0.3,0.9-0.4,1.4c0.7,0.1,1.5,0.2,2.2,0.3
					c-0.3-0.7-0.6-1.5-0.6-2.3c-0.2-1.3-2.4-1-2.4,0.3c0,0.2,0,0.3,0,0.5c0.8-0.1,1.6-0.2,2.4-0.3c-0.1-0.3-0.1-0.7-0.2-1
					c-0.7,0.4-1.3,0.8-2,1.2c0.4,0.5,0.7,0.9,1.1,1.4c0.6,0.9,2.3,0.7,2.2-0.6c-0.1-1-0.1-1.9,0.1-2.8c-0.7,0.3-1.4,0.6-2,0.8
					c1,1.3,1.7,2.5,2.4,4c0.7-0.4,1.4-0.8,2.1-1.2c-0.8-1.2-1.5-2.4-2.3-3.6c-0.3,0.6-0.7,1.2-1,1.8c1.5-0.1,5.3,3.7,6.3,4.5
					c0.5-0.6,1-1.3,1.5-1.9c-1.7-1-2.7-2.1-3.7-3.8c-0.5,0.6-0.9,1.2-1.4,1.8c2.7,1,4.8,2.7,6.9,4.7c1.1,1,2.8-0.6,1.7-1.7
					c-1.1-1.2-4.4-4-4.4-5.7c-0.6,0.3-1.2,0.7-1.8,1c2.5,1.7,4.4,3.6,6.1,6.1c0.5-0.5,1.1-1.1,1.6-1.6c-1.7-1.1-2.8-2.4-3.7-4.3
					c-0.5,0.6-0.9,1.2-1.4,1.8c2.7,0.8,4.7,2.2,6.5,4.3c0.6-0.6,1.1-1.1,1.7-1.7c-1.4-1.1-2.5-2.2-3.5-3.7c-0.5,0.5-1.1,1.1-1.6,1.6
					c1.9,1.1,2.9,2.1,4,3.9c0.5-0.6,0.9-1.2,1.4-1.8c-0.6-0.3-1.3-0.7-1.9-1c-0.6,0.6-1.1,1.1-1.7,1.7c1.6,1.3,3.3,2.7,4.8,4.2
					c0.3-0.7,0.6-1.4,0.8-2c-1.1,0.1-1.3,0.4-2.4,0.7c-2.4,0.7-4.5,1-7,1.3c-1.5,0.2-1.6,2.4,0,2.4c1.4,0,4.4,0.7,5.5-0.6
					c1.1-1.3-0.7-2.9-0.8-4.3c-0.6,0.3-1.2,0.7-1.8,1c0.8,0.5,1.5,1,2.2,1.7c1,0.9,2.7-0.3,1.9-1.5c-0.6-0.8-1.1-1.7-1.4-2.7
					c-0.7,0.4-1.3,0.8-2,1.2c0.9,0.8,1.8,1.6,2.7,2.4c1,0.9,2.6-0.2,1.9-1.5c-0.5-0.7-0.9-1.5-1.4-2.2c-0.7,0.4-1.4,0.8-2.1,1.2
					c0.1,0.1-3.3,0.6-3.9,0.7c-1.2,0.2-2.2,0.6-3.3,1.1c-0.7,0.3-0.8,1.4-0.2,1.9c0.3,0.2,0.5,0.5,0.8,0.7c0.4-0.7,0.8-1.3,1.2-2
					c-3.3-0.7-5.7-2.6-6.9-5.8c-0.7,0.3-1.5,0.6-2.2,0.9c0.6,0.9,1.2,1.8,1.7,2.8c0.5-0.6,0.9-1.2,1.4-1.8c-0.3-0.1-0.5-0.2-0.8-0.3
					c-1-0.4-1.8,0.9-1.4,1.8c0.2,0.4,0.5,0.8,0.7,1.2c0.5-0.5,1.1-1.1,1.6-1.6c-0.2-0.3-0.5-0.5-0.7-0.8c-0.6,0.5-1.3,1-1.9,1.5
					c0.5,0.4,0.9,0.9,1.2,1.4c0.6-0.6,1.1-1.1,1.7-1.7c-0.6-0.6-1.1-1.2-1.3-2c-0.6,0.5-1.3,1-1.9,1.5c1.4,1.3,2.8,2.4,4.3,3.5
					c1.2,0.8,2.3-0.9,1.5-1.9c-0.8-0.9-1.6-1.8-2.3-2.7c-0.5,0.6-1,1.3-1.5,1.9c1.7,1.2,3.4,2.3,5.4,2.9c1.1,0.4,2.1-1.2,1.2-2
					c-1.5-1.3-3-2.5-4.6-3.6c-0.4,0.7-0.8,1.4-1.2,2.1c1.9,1,3.9,2,5.8,3.1c1.4,0.7,2.5-1.2,1.2-2.1c-1.6-1.1-3.2-2.2-4.8-3.3
					c-0.4,0.7-0.8,1.4-1.2,2.1c2.1,0.9,4,1.9,5.9,3.1c1.2,0.7,2.4-0.9,1.5-1.9c-1-0.9-2-1.9-3-2.8c-0.5,0.6-1,1.3-1.5,1.9
					c1,0.4,1.9,0.9,2.9,1.3c1.2,0.5,2.5-0.8,1.5-1.9c-0.6-0.6-1.1-1.2-1.5-2c-0.5,0.5-1.1,1.1-1.6,1.6c1,0.7,2,1.6,2.9,2.5
					c1,0.9,2.5-0.2,1.9-1.5c-0.2-0.3-0.3-0.6-0.5-0.9c-0.6,0.5-1.3,1-1.9,1.5c0.3,0.3,0.7,0.5,1,0.8c0.8,0.6,2.5,0.1,2-1.2
					c-0.4-0.9-0.8-1.9-1.2-2.8c-0.6-1.4-2.7-0.9-2.3,0.6c0.2,0.9,0.5,1.8,0.7,2.7c0.8-0.2,1.5-0.4,2.3-0.6c-0.2-0.5-1.6-3.7-0.9-4.2
					c0.2-0.1,2.1,4,2,3.7c0.6,1.4,2.9,0.8,2.3-0.6c-0.8-1.8-2.5-6.8-5.2-6.4c-3.3,0.6-1.1,6.6-0.5,8.1c0.6,1.4,2.7,0.9,2.3-0.6
					c-0.2-0.9-0.5-1.8-0.7-2.7c-0.8,0.2-1.5,0.4-2.3,0.6c0.4,0.9,0.8,1.9,1.2,2.8c0.7-0.4,1.3-0.8,2-1.2c-0.3-0.3-0.7-0.5-1-0.8
					c-1-0.8-2.6,0.2-1.9,1.5c0.2,0.3,0.3,0.6,0.5,0.9c0.6-0.5,1.3-1,1.9-1.5c-1.1-1-2.2-1.9-3.4-2.8c-1-0.7-2.2,0.7-1.6,1.6
					c0.5,0.9,1.1,1.7,1.9,2.4c0.5-0.6,1-1.3,1.5-1.9c-1-0.4-1.9-0.9-2.9-1.3c-1.2-0.5-2.5,0.9-1.5,1.9c1,0.9,2,1.9,3,2.8
					c0.5-0.6,1-1.3,1.5-1.9c-1.9-1.2-3.8-2.2-5.9-3.1c-1.4-0.6-2.5,1.2-1.2,2.1c1.6,1.1,3.2,2.2,4.8,3.3c0.4-0.7,0.8-1.4,1.2-2.1
					c-1.9-1-3.9-2-5.8-3.1c-1.4-0.7-2.5,1.2-1.2,2.1c1.4,1,2.8,2.1,4.1,3.3c0.4-0.7,0.8-1.3,1.2-2c-1.9-0.6-3.3-1.6-4.8-2.7
					c-1.2-0.8-2.3,0.9-1.5,1.9c0.8,0.9,1.6,1.8,2.3,2.7c0.5-0.6,1-1.3,1.5-1.9c-1.4-1-2.6-2-3.8-3.2c-1.1-1-2.4,0.3-1.9,1.5
					c0.4,1,0.9,1.7,1.7,2.5c1.1,1.1,2.6-0.5,1.7-1.7c-0.3-0.5-0.8-1-1.2-1.4c-0.9-0.9-2.7,0.3-1.9,1.5c0.5,0.8,0.8,1.1,1.6,1.6
					c1,0.7,2.2-0.7,1.6-1.6c-0.2-0.4-0.5-0.8-0.7-1.2c-0.5,0.6-0.9,1.2-1.4,1.8c0.3,0.1,0.5,0.2,0.8,0.3c1,0.4,1.8-0.9,1.4-1.8
					c-0.5-1-1.1-1.9-1.7-2.8c-0.7-1-2.7-0.4-2.2,0.9c1.5,3.9,4.4,6.6,8.6,7.5c1.1,0.2,2.1-1.2,1.2-2c-0.3-0.2-0.5-0.5-0.8-0.7
					c-0.1,0.6-0.2,1.3-0.2,1.9c1.6-0.7,11.3-0.5,8-5.1c-0.9-1.2-2.9-0.1-2.1,1.2c0.5,0.7,0.9,1.5,1.4,2.2c0.6-0.5,1.3-1,1.9-1.5
					c-0.9-0.8-1.8-1.6-2.7-2.4c-0.8-0.8-2.4,0-2,1.2c0.4,1.2,0.9,2.2,1.6,3.3c0.6-0.5,1.3-1,1.9-1.5c-0.8-0.8-1.7-1.4-2.7-2.1
					c-0.7-0.5-1.9,0.1-1.8,1c0.1,1.4,0.2,1.4,0.8,2.7c1.4-0.2,1.3-0.2-0.4-0.2c-0.9,0-1.8,0-2.7,0c0,0.8,0,1.6,0,2.4
					c1.9-0.2,3.9-0.2,5.7-0.6c1.2-0.3,2.4-1.2,3.6-1.3c0.9-0.1,1.7-1.3,0.8-2c-1.6-1.4-3.2-2.8-4.8-4.2c-1.2-1-2.8,0.6-1.7,1.7
					c0.9,0.9,1.7,1.3,3,1.7c1,0.2,1.9-0.9,1.4-1.8c-1.3-2-2.8-3.5-4.9-4.8c-1-0.6-2.3,0.6-1.6,1.6c1.1,1.6,2.3,3,3.9,4.2
					c1.2,0.9,2.7-0.5,1.7-1.7c-2.1-2.4-4.5-4-7.5-4.9c-1.1-0.3-1.8,0.9-1.4,1.8c1,2.2,2.5,3.8,4.5,5.2c1,0.6,2.3-0.7,1.6-1.6
					c-1.9-2.8-4.2-5-7-6.9c-0.8-0.5-1.8,0.2-1.8,1c-0.1,2.7,3.4,5.6,5.1,7.4c0.6-0.6,1.1-1.1,1.7-1.7c-2.4-2.2-4.8-4.2-7.9-5.3
					c-1-0.4-1.8,0.9-1.4,1.8c1.2,2,2.5,3.4,4.6,4.6c1.1,0.7,2.5-1,1.5-1.9c-1.9-1.6-5.3-5.4-8-5.2c-0.8,0.1-1.6,1-1,1.8
					c0.8,1.2,1.5,2.4,2.3,3.6c0.8,1.3,2.7,0.2,2.1-1.2c-0.8-1.6-1.7-3.1-2.8-4.5c-0.7-0.9-1.9,0-2,0.8c-0.2,0.9-0.2,1.9-0.1,2.8
					c0.7-0.2,1.5-0.4,2.2-0.6c-0.5-0.7-0.9-1.2-1.4-1.9c-0.9-1-2.2,0.1-2,1.2c0.1,0.3,0.1,0.7,0.2,1c0.2,1.3,2.4,1,2.4-0.3
					c0-0.2,0-0.3,0-0.5c-0.8,0.1-1.6,0.2-2.4,0.3c0.1,0.8,0.3,1.6,0.6,2.3c0.3,0.9,1.7,1.3,2.2,0.3c0.4-0.9,0.5-1,0.7-2
					c-0.8,0-1.5,0-2.3,0c0.4,1.1,0.8,2.1,1.6,3c0.3,0.3,0.8,0.4,1.2,0.3c2.4-0.6,2.6-3.2,0.9-4.8c-1-0.9-2.5,0.2-1.9,1.5
					c0.8,1.7,3.7,4.7,5.7,2.6c1.6-1.6-0.3-3.2-1.7-4.1c-1-0.7-2.3,0.7-1.6,1.6c1.3,1.8,2.7,3.2,4.5,4.4
					C36.3,303.4,37.5,301.3,36.2,300.4L36.2,300.4z"/>
			</g>
		</g>
		<g>
			<g>
				<path class="st0" d="M30.7,301.1c-0.5,0.1-0.9,0.3-1.4,0.4c-0.8,0.3-1.3,1.4-0.5,2c0.3,0.3,0.6,0.6,0.9,0.9
					c0.5-0.6,0.9-1.2,1.4-1.8c0,0-0.1-0.1-0.1-0.1c-1-1.2-2.7,0.5-1.7,1.7c1.4,1.7,3.3,2.4,5.4,2.7c0.1,0,2.1,0.4,2.3,0.2
					c1.2-0.9-2.6-4.3-2.7-5c-0.1-1.4,1.4-3.5,2-4.6c0.9-1.4,1.9-2.6,3.1-3.6c1.1-0.9,2.8-2.2,4.4-1.1c0.8,0.5,1.3,2.5,1.3,3.4
					c0.1,1.2-0.5,2.4-2,2.4c-1.8,0-2.4-1.4-2-2.8c0.3-1.1,1.1-3,2.5-2.9c0.8-0.2,1.1,0.1,0.8,1c0.2,0.9,0,1.6-0.5,2.4
					c-1.5,0.3-0.9,2.6,0.6,2.3c4.7-1,2.2-12.4-3-7.8c-2,1.7-3.9,5.4-2.7,8.1c0.9,2.2,5.3,2.9,7.2,1.6c2.2-1.5,1.6-5.4,0.7-7.4
					c-1.3-2.8-3.8-3.8-6.7-2.4c-4.5,2.1-12.1,12.2-6.4,16.4c1.3,1,5.9,2.7,6.2-0.3c0.1-1-0.6-1.5-1.4-1.8c-2.8-1-5.4,0.2-7.7-2.4
					c-0.6,0.6-1.1,1.1-1.7,1.7c0.4,0.4,0.6,0.6,1.2,0.7c0.9,0.2,2-0.9,1.4-1.8c-0.5-0.7-0.6-0.8-1.2-1.4c-0.2,0.7-0.4,1.3-0.5,2
					c0.5-0.1,0.9-0.3,1.4-0.4C32.8,303,32.2,300.7,30.7,301.1L30.7,301.1z"/>
			</g>
		</g>
	</g>
	<g>
		<g>
			<g>
				<path class="st1" d="M29.3,285.1c1.3,0.4,2.7,0.5,4.1,0.2c0.8-0.2,0.4-1.3-0.3-1.2c-1.2,0.3-2.3,0.2-3.4-0.2
					C28.8,283.7,28.5,284.9,29.3,285.1L29.3,285.1z"/>
			</g>
		</g>
		<g>
			<g>
				<path class="st1" d="M28.3,284.1c-4.2,4-4.9,11.5-2.5,16.5c0.3,0.7,1.4,0.1,1-0.6c-2.1-4.5-1.5-11.5,2.3-15.1
					C29.7,284.4,28.9,283.5,28.3,284.1L28.3,284.1z"/>
			</g>
		</g>
		<g>
			<g>
				<path class="st1" d="M25.7,300.2c1.1,4.2,4.3,6.6,8.3,7.8c4.9,1.5,8.8,0.5,13.1-1.9c0.7-0.4,0.1-1.4-0.6-1
					c-3.6,2-6.6,3.1-10.9,2.1c-4.1-0.9-7.7-3-8.8-7.3C26.7,299.2,25.5,299.5,25.7,300.2L25.7,300.2z"/>
			</g>
		</g>
		<g>
			<g>
				<path class="st1" d="M46.5,306.4c4.1-0.3,7.4-2.4,9-6.3c2-4.9,0.3-10.3-1.4-15c-0.3-0.7-1.4-0.4-1.2,0.3
					c2.6,7.2,4.4,18.8-6.5,19.7C45.7,305.3,45.7,306.5,46.5,306.4L46.5,306.4z"/>
			</g>
		</g>
		<g>
			<g>
				<path class="st1" d="M33.4,285.1c1.1-0.4,1.8-1.4,1.9-2.6c0-0.8-1.2-0.8-1.2,0c0,0.6-0.4,1.2-1,1.4
					C32.4,284.2,32.7,285.3,33.4,285.1L33.4,285.1z"/>
			</g>
		</g>
		<g>
			<g>
				<path class="st1" d="M35.2,282.8c0.9-2.5,4.5-1,6.7-0.8c3.5,0.3,6.9,0.6,10.4,1c0.8,0.1,0.8-1.1,0-1.2
					c-5.7-0.5-11.6-1.5-17.4-1.5c-0.3,0-0.6,0.3-0.6,0.6c-0.1,0.5-0.2,1.1-0.3,1.6C33.8,283.2,35,283.5,35.2,282.8L35.2,282.8z"/>
			</g>
		</g>
		<g>
			<g>
				<path class="st1" d="M51.8,282.2c0.1,1.4,0.5,2.8,1.1,4.1c0.3,0.7,1.4,0.1,1-0.6c-0.5-1.1-0.8-2.3-0.9-3.5
					C52.9,281.4,51.7,281.4,51.8,282.2L51.8,282.2z"/>
			</g>
		</g>
	</g>
	<g>
		<g>
			<g>
				<path class="st0" d="M163.2,295.6c2.2,1.4,4.7-1.4,2.5-3.2c-2-1.6-4.7,1.3-3.1,3.2c1.5,1.8,4.5,0.4,4.1-1.9
					c-0.4-2.8-4.4-2.7-4.3,0.2c0.1,2.9,4.1,3.5,5.3,1c1-2.1-1.1-5-3.3-3.4c-2.8,2,0.8,6.6,3.7,5.4c2.3-1,2.3-5.1-0.1-5.9
					c-0.4-0.1-0.9,0-1.2,0.3c-3,3.1,4.9,9.1,5.2,2.2c-0.7,0.3-1.4,0.6-2,0.8c0.9,1,1,1,2.1,1.8c0.7,0.5,1.6,0,1.8-0.7
					c0.4-1.3,0.4-1.4,0-2.7c-0.4-1.2-2.5-1.1-2.4,0.3c0.2,1.5,0.2,1.6,0.9,2.9c0.5,0.8,2,0.8,2.2-0.3c0.2-1.2,0.2-1.4-0.2-2.5
					c-0.5-1.2-2.3-1.1-2.4,0.3c0,1.4,0,1.5,0.7,2.7c0.6,1,2.4,0.6,2.2-0.6c-0.3-2.2-0.7-4.2-1.5-6.3c-0.7,0.3-1.5,0.6-2.2,0.9
					c0.6,1.2,0.7,1.3,1.5,2.3c0.8,1,2.2-0.1,2-1.2c-0.4-1.6-1.9-5.4-3.3-6.3c-2.1-1.4-3.1-0.4-6.3-2.6c-0.9-0.6-0.4-1.3-2-1.6
					c-1.7-0.4-5,0.1-6.8,0.4c-1.3,0.2-1,2.4,0.3,2.4c1.8-0.1,3.5-0.4,5.2-0.8c-0.2-0.8-0.4-1.5-0.6-2.3c-2.9,1.1-5.7,1.7-8.8,1.8
					c0.1,0.8,0.2,1.6,0.3,2.4c1.9-0.4,3.6-0.5,5.1-1.8c0.9-0.8,0-2.4-1.2-2c-1.7,0.5-7,0.8-8.1,1.8c-1.3,1.2-1.2,3.1-2,4.6
					c0.7,0.3,1.5,0.6,2.2,0.9c0.4-1.4,0.7-2.7,1.1-4.1c0.3-1.3-1.6-2.2-2.2-0.9c-0.6,1.1-0.7,1.3-1,2.5c-0.5,1.5,1.7,2,2.3,0.6
					c0.5-1,0.8-2,1-3.1c0.3-1.5-1.9-2.1-2.3-0.6c-0.7,2.4-1.2,4.8-1.6,7.3c-0.3,1.5,1.9,2.1,2.3,0.6c0.5-1.5,0.4-1.6,0.6-3.1
					c0.1-1.4-1.9-1.5-2.4-0.3c-0.4,0.9-0.6,1.8-0.8,2.7c0.8,0.2,1.5,0.4,2.3,0.6c0.1-1,0.3-2,0.4-2.9c0.2-1.5-1.8-2.1-2.3-0.6
					c-0.3,0.8-0.6,1.6-0.9,2.4c0.8,0.2,1.5,0.4,2.3,0.6c0.3-1.1,0.6-2.1,0.8-3.2c0.4-1.5-1.8-2.1-2.3-0.6c-1.3,3.5-0.5,5.8-0.6,9.5
					c0.8-0.1,1.6-0.2,2.4-0.3c-0.3-1-0.6-2-0.9-3.1c-0.4-1.3-2.3-1-2.4,0.3c-0.1,1-0.2,2.1-0.1,3.2c0.1,1.3,2.1,1.7,2.4,0.3
					c0.2-1,0.2-1.3,0.2-2.4c-0.8,0-1.6,0-2.4,0c0.5,5.7,1.6,11,8.6,10.9c-0.2-0.7-0.4-1.5-0.6-2.2c-0.4,0.2-0.7,0.4-1.1,0.7
					c-1,0.6-0.6,2.3,0.6,2.2c0.1,0,0.3,0,0.4,0c1.5-0.1,1.5-2.3,0-2.4c-3.4,0-5.5-1.9-6.3-5.5c-0.6,0-1.1,0-1.7,0
					c1.9,1.9,3.7,3.8,5.6,5.7c1,1,2.5-0.3,1.9-1.5c-0.8-1.6-1.6-2.8-2.7-4.1c-0.9-1-2.7,0.3-1.9,1.5c0.8,1.2,1.7,2.5,3.2,2.8
					c0.4,0.1,0.9,0,1.2-0.3c1.7-2.1-0.9-7.2-3.6-6.8c-0.8,0.1-1,1.1-0.7,1.8c1.2,2.3,4.9,7.4,8.1,5.4c4.3-2.6-1.3-9.6-3.4-11.6
					c-0.6-0.6-1.8-0.4-2,0.5c-0.8,4,3.4,9.7,7.1,11c0.9,0.3,1.7-0.6,1.5-1.5c-0.8-3.9-3.3-6.9-6.1-9.7c-0.6-0.6-1.5-0.4-1.9,0.2
					c-1.8,2.9,2.7,8.3,4.4,10.4c0.7,0.9,2.4-0.1,2-1.2c-1.3-3.4-3.1-6.3-5.5-9c-0.8-0.9-2.3,0-2,1.2c0.8,2.8,2,5.3,3.5,7.9
					c0.8,1.3,2.7,0.2,2.1-1.2c-1.1-2.5-2.4-4.6-4-6.8c-0.8-1-2.6-0.5-2.2,0.9c0.9,3.1,2.1,5.8,3.8,8.5c0.7,1.1,2.6,0.4,2.2-0.9
					c-0.9-3-2.3-5.6-4.3-8.1c-0.8-1-2.3,0.1-2,1.2c0.7,2.5,1.7,4.9,2.9,7.2c0.6,1.2,2.7,0.3,2.2-0.9c-0.8-1.9-1.7-3.7-2.9-5.4
					c-0.7-1-2.7-0.4-2.2,0.9c1,2.7,2.3,5.3,3.8,7.7c0.7,1.1,2.6,0.4,2.2-0.9c-0.8-2.5-2-4.7-3.6-6.9c-0.8-1-2.6-0.5-2.2,0.9
					c0.6,2.1,1.3,3.9,2.3,5.8c0.6,1.2,2.7,0.4,2.2-0.9c-0.7-1.8-1.4-3.3-2.4-5c-0.7-1.2-2.5-0.4-2.2,0.9c0.4,1.5,0.9,2.5,1.8,3.8
					c0.9,1.3,3,0.1,2.1-1.2c-0.8-0.9-1.3-2-1.5-3.2c-0.7,0.3-1.5,0.6-2.2,0.9c0.9,1.4,1.6,2.8,2.1,4.4c0.7-0.3,1.5-0.6,2.2-0.9
					c-0.9-1.7-1.6-3.4-2.1-5.2c-0.7,0.3-1.5,0.6-2.2,0.9c1.5,2,2.6,3.9,3.4,6.3c0.7-0.3,1.5-0.6,2.2-0.9c-1.5-2.3-2.6-4.6-3.6-7.2
					c-0.7,0.3-1.5,0.6-2.2,0.9c1.1,1.6,1.9,3,2.6,4.8c0.7-0.3,1.5-0.6,2.2-0.9c-1.1-2.2-2-4.3-2.6-6.7c-0.7,0.4-1.3,0.8-2,1.2
					c1.7,2.2,2.8,4.4,3.6,7c0.7-0.3,1.5-0.6,2.2-0.9c-1.5-2.5-2.7-5.1-3.5-8c-0.7,0.3-1.5,0.6-2.2,0.9c1.6,2.1,2.9,4.3,4,6.8
					c0.7-0.4,1.4-0.8,2.1-1.2c-1.4-2.3-2.5-4.7-3.3-7.3c-0.7,0.4-1.3,0.8-2,1.2c2.2,2.4,3.7,4.9,4.9,7.9c0.7-0.4,1.3-0.8,2-1.2
					c-0.7-0.8-4.8-6.1-4-7.4c-0.6,0.1-1.3,0.2-1.9,0.2c2.5,2.4,4.7,5.1,5.4,8.6c0.5-0.5,1-1,1.5-1.5c-2.2-0.8-5.9-5.5-5.4-8
					c-0.7,0.2-1.3,0.4-2,0.5c0.9,0.8,4.4,4.3,3.8,5.6c-0.9,0.2-1.8,0.5-2.7,0.7c-0.9-0.9-1.6-1.9-2.1-3c-0.2,0.6-0.5,1.2-0.7,1.8
					c0.2,0.3,0.5,0.5,0.7,0.8c-0.6,0.5-1.3,1-1.9,1.5c1,1,1.8,2.2,2.3,3.6c0.6-0.5,1.3-1,1.9-1.5c-1.9-1.9-3.7-3.8-5.6-5.7
					c-0.5-0.5-1.2-0.4-1.7,0c-1.5,1.3-0.3,4,0.5,5.4c1.6,2.8,4.4,4,7.5,4.2c0-0.8,0-1.6,0-2.4c-0.1,0-0.3,0-0.4,0
					c0.2,0.7,0.4,1.5,0.6,2.2c0.4-0.2,0.7-0.4,1.1-0.7c1-0.6,0.6-2.2-0.6-2.2c-5.1,0-5.8-4.6-6.2-8.5c-0.1-1.5-2.4-1.6-2.4,0
					c-0.1,0.6-0.1,1.2-0.2,1.8c0.8,0.1,1.6,0.2,2.4,0.3c-0.1-1.1-0.1-2.1,0.1-3.2c-0.8,0.1-1.6,0.2-2.4,0.3c0.3,1,0.6,2,0.9,3.1
					c0.4,1.3,2.3,1,2.4-0.3c0.1-3.2-0.6-5.7,0.5-8.8c-0.8-0.2-1.5-0.4-2.3-0.6c-0.3,1.1-0.6,2.1-0.8,3.2c-0.4,1.5,1.8,2.1,2.3,0.6
					c0.3-0.8,0.6-1.6,0.9-2.4c-0.8-0.2-1.5-0.4-2.3-0.6c-0.1,1-0.3,2-0.4,2.9c-0.2,1.5,2,2.2,2.3,0.6c0.2-0.9,0.4-1.8,0.8-2.7
					c-0.8-0.1-1.6-0.2-2.4-0.3c-0.2,0.8-0.3,1.6-0.5,2.5c0.8,0.2,1.5,0.4,2.3,0.6c0.4-2.5,1-4.9,1.6-7.3c-0.8-0.2-1.5-0.4-2.3-0.6
					c-0.1,1.1-0.4,2.1-1,3.1c0.8,0.2,1.5,0.4,2.3,0.6c0.3-0.6,0.5-1.3,0.8-1.9c-0.7-0.3-1.5-0.6-2.2-0.9c-0.4,1.4-0.7,2.7-1.1,4.1
					c-0.3,1.3,1.6,2.2,2.2,0.9c0.4-0.7,0.7-1.4,1-2.1c0.2-0.4,0.3-0.9,0.3-1.3c-0.1-0.8,0.2-0.9,1-0.4c1.7-0.9,4.5-0.9,6.4-1.5
					c-0.4-0.7-0.8-1.3-1.2-2c-1,0.9-2.8,1-4,1.2c-1.3,0.3-1,2.4,0.3,2.4c3.3-0.1,6.3-0.7,9.5-1.9c1.4-0.5,0.9-2.7-0.6-2.3
					c-1.5,0.4-3,0.7-4.6,0.7c0.1,0.8,0.2,1.6,0.3,2.4c-1.8,0.3,6.4-0.2,5.8-0.4c0.5,0.2,1.1,2.3,1.7,2.9c1,0.9,2.1,1.3,3.4,1.3
					c0.4,0,1.9-0.5,2.1-0.4c0.7,0.3,2.3,4.7,2.3,5.1c0.7-0.4,1.3-0.8,2-1.2c-0.4-0.6-0.8-1.2-1.2-1.8c-0.6-1.2-2.7-0.4-2.2,0.9
					c0.8,1.9,1.2,3.6,1.4,5.7c0.7-0.2,1.5-0.4,2.2-0.6c-0.1-0.5-0.2-1-0.4-1.5c-0.8,0.1-1.6,0.2-2.4,0.3c0.1,0.4,0.1,0.8,0.2,1.2
					c0.7-0.1,1.5-0.2,2.2-0.3c-0.2-0.6-0.4-1.1-0.6-1.7c-0.8,0.1-1.6,0.2-2.4,0.3c0,0.5,0,0.9,0,1.4c0.6-0.2,1.2-0.5,1.8-0.7
					c-0.5-0.5-1.1-1-1.6-1.4c-0.7-0.8-2-0.1-2,0.8c0.3,2.4-1.4,2.4-5.2,0C163.1,292.7,161.9,294.7,163.2,295.6L163.2,295.6z"/>
			</g>
		</g>
		<g>
			<g>
				<path class="st0" d="M155,291.7c0.2-1.5,0.3-3.4-0.6-4.7c-0.3-0.4-0.8-0.7-1.4-0.6c-2.9,0.8-2.7,6.8-2.7,9.2
					c0,1.4,1.9,1.6,2.4,0.3c0.8-2.4,2.4-7.8-0.2-9.5c-0.5-0.3-1.1-0.1-1.5,0.2c-1.9,1.6-3.7,6.3-2.5,8.7c0.4,0.8,1.7,0.8,2.1,0
					c1.3-2.5,3.8-8.1,0.8-10.2c-0.5-0.3-1.4-0.1-1.6,0.4c-1.3,3.1-3.6,7.5-2.2,10.8c0.4,0.8,1.7,0.7,2.1,0c1.8-3.1,3.4-7.4,1.4-10.8
					c-0.6-1-1.8-0.6-2.2,0.3c-1.3,3.1-2.9,8.6-0.8,11.8c0.4,0.5,1.1,0.8,1.6,0.4c2.8-1.6,3.5-6.4,1.8-9c-0.2-0.3-0.6-0.6-1-0.6
					c-3.3,0.2-5.3,6.6-2.7,8.8c3.7,3.1,4.1-3.3,2.6-5.5c-0.3-0.5-0.8-0.6-1.4-0.6c-5,0.8-1.4,10.9,2.8,5.8c3.5-4.3-1.8-13.4-4.6-6.6
					c-0.8,1.9-1.3,6.6,1.4,7.6c2.7,1,4.3-2.8,4.6-4.8c0.3-1.9,0.1-5.9-2.5-6.3c-3.1-0.4-4.4,5.2-4.8,7.2c-0.3,1.5,1.9,2.1,2.3,0.6
					c0.5-1.8,0.5-3-0.1-4.8c-0.3-0.9-1.7-1.3-2.2-0.3c-0.6,1.3-1,2.5-1.2,3.9c0.8,0.2,1.5,0.4,2.3,0.6c0.2-1.1,0.3-2.2,0.5-3.3
					c0.2-1.5-1.8-2.1-2.3-0.6c-0.4,1.3-0.7,2.4-0.9,3.7c-0.2,1.5,2,2.2,2.3,0.6c0.3-1.3,0.5-2.6,0.8-3.8c0.3-1.5-1.9-2.1-2.3-0.6
					c-0.2,0.7-0.4,1.5-0.6,2.2c-0.4,1.4,1.5,2,2.2,0.9c1.9-2.8,3.9-5.4,7.7-5.7c1.4-0.1,1.6-1.8,0.3-2.4c-2.4-1-4.5-0.5-6.4,1.1
					c-0.9,0.8,0.1,2.3,1.2,2c1.9-0.6,3.2-1.3,4.8-2.6c0.8-0.6,0.2-2.2-0.8-2c-1.2,0.1-2.3,0.3-3.5,0.4c0.2,0.7,0.4,1.5,0.6,2.2
					c3.8-1.7,8.1-0.6,12.1-1.3c-0.2-0.8-0.4-1.5-0.6-2.3c-2.4,0.4-4.8,0.8-7.2,1.2c0.2,0.8,0.4,1.5,0.6,2.3c2.3-0.6,4.6-1,7-1.4
					c-0.2-0.8-0.4-1.5-0.6-2.3c-0.6,0.1-1.2,0.1-1.8,0.2c0.2,0.7,0.4,1.5,0.6,2.2c0.4-0.2,0.8-0.4,1.2-0.6c-0.3-0.7-0.6-1.5-0.9-2.2
					c-2.2,1-4.7,1.9-6.7,3.4c-0.9,0.6-0.7,1.8,0.3,2.2c2.5,1,6.7,3.1,9.5,2.8c0.6-0.1,1.2-0.5,1.2-1.2c0-2.5-4.4-7.7-6.5-4.5
					c-2.4,3.7,4.2,11,7.5,11.9c0.4,0.1,0.9,0,1.2-0.3c2.4-3-2.7-10.3-5.5-11.6c-0.5-0.2-1-0.2-1.5,0.2c-2.6,2.5,2,9.8,3.2,12
					c0.7,1.2,2.6,0.4,2.2-0.9c-0.9-2.9-2.2-6.7-5-8.2c-0.5-0.3-1.1-0.2-1.5,0.2c-2.5,2.3,0.7,7.2,2.3,9.2c0.8,1,2.2-0.1,2-1.2
					c-0.7-3.6-2.1-6.4-4.3-9.3c-0.4-0.5-1.3-0.4-1.7,0c-2.4,2.6,0.8,8.1,2.3,10.4c0.8,1.2,2.4,0.4,2.2-0.9c-0.6-3.7-2-6.8-4.3-9.7
					c-0.4-0.5-1.3-0.4-1.7,0c-2.5,2.1,0.9,8.6,2,10.8c0.6,1.2,2.1,0.5,2.2-0.6c0.4-3.4-1.3-6.7-3.2-9.4c-0.7-1-2.1-0.6-2.2,0.6
					c-0.2,2.9,0.3,5.2,1.6,7.8c0.5,1,2.3,0.6,2.2-0.6c-0.2-2.7-0.9-4.9-2.3-7.2c-0.6-1-2.3-0.6-2.2,0.6c0.2,3,0.5,7,2.7,9.2
					c0.4,0.4,1,0.4,1.5,0.2c3.3-1.7,0.5-9.6-2.2-10.9c-0.8-0.4-1.8,0.1-1.8,1c-0.2,4,1,9.4,4.9,11.4c0.4,0.2,0.9,0.3,1.2,0
					c3.1-2.3,1.7-12.6-2.6-12.9c-0.8-0.1-1.3,0.8-1.2,1.5c0.4,2.1,3.4,10.5,6.8,7.9c3.6-2.8-2.8-9.5-4.9-11
					c-0.9-0.6-2.1,0.4-1.8,1.4c1,3.1,2.8,7,6.1,8.3c0.4,0.1,0.9,0,1.2-0.3c2.3-2.9-1.8-7.8-3.8-9.8c-0.8-0.8-1.9-0.1-2,0.8
					c-0.4,3,4,9.3,7.5,7.9c0.5-0.2,0.9-0.6,0.9-1.2c0.1-2.6-1.5-4.9-3.1-6.9c-0.9-1.1-2.4,0.3-1.9,1.5c0.7,1.5,1.8,4.2,3.7,4.5
					c0.8,0.1,1.8-0.5,1.5-1.5c-0.8-2.2-1.8-3.9-3.3-5.7c-0.8-1-2.3,0.1-2,1.2c0.5,2.1,1.3,3.7,2.7,5.4c0.8,0.9,2.4-0.1,2-1.2
					c-0.8-2.3-1.8-4.3-3.1-6.3c-0.6,0.5-1.3,1-1.9,1.5c1.9,2.3,2.5,6.7,5.8,7.7c0.5,0.2,1.1-0.1,1.4-0.6c1.2-1.9-0.2-4.3-2.4-4.5
					c-0.4,0-0.8,0.3-1,0.6c-1.3,2.1,1.8,6.2,4.2,5.4c0.6-0.2,0.8-0.6,0.9-1.2c0.2-1.2-0.5-2.4-1.1-3.4c-0.8-1.4-2.7-0.2-2.1,1.2
					c0.9,1.9,2,3,3.8,3.9c0.8,0.4,1.8-0.1,1.8-1c-0.1-2.1-0.5-3.9-2.2-5.2c-0.3-0.2-0.9-0.2-1.2,0c-2.1,1.6-0.7,3.8,1,5.3
					c0.9,0.7,1.9,0.2,2-0.8c0.3-2.4-1.4-6.1-4.2-4.2c-0.3,0.2-0.6,0.6-0.6,1c0.2,1.7,1.2,2.4,2.7,2.8c0.8,0.2,1.8-0.6,1.5-1.5
					c-1.1-2.9-3.4-4.1-6.4-4.6c-1.5-0.3-2.1,1.8-0.6,2.3c0.7,0.3,1.4,0.7,2.2,1c0.4-0.7,0.8-1.4,1.2-2.1c-1.4-0.7-4.4-2.4-5.9-1
					c-1.3,1.2-0.2,2.7,0.7,3.6c1.1,1.1,2.8-0.6,1.7-1.7c0.7,0.6,1.4,1,2.3,1.2c1.4,0.7,2.5-1.3,1.2-2.1c-1.3-0.8-1.3-0.8-2.7-1.3
					c-0.2,0.8-0.4,1.5-0.6,2.3c2,0.1,3.5,1.1,4.7,2.9c0.5-0.5,1-1,1.5-1.5c-0.3,0.9-0.6,1.8-0.9,2.7c0.7-0.3,1.4-0.6,2-0.8
					c-0.6,0.6-1.1,1.1-1.7,1.7c0.6-0.3,1.2-0.7,1.8-1c-1.5-0.6-2.4-1.7-2.9-3.1c-0.7,0.4-1.4,0.8-2.1,1.2c1.9,1.1,1.7,0.7-0.6-1.4
					c-0.4-0.7-0.8-1.5-1.1-2.2c-0.7-1.3-1.2-2.3-2.2-3.4c-0.9-1-2.6,0.3-1.9,1.5c1.2,1.9,2,3.6,2.8,5.8c0.7-0.4,1.3-0.8,2-1.2
					c-1.1-1.3-1.9-2.7-2.1-4.3c-0.7,0.4-1.3,0.8-2,1.2c1.3,1.3,2.2,2.9,2.7,4.6c0.5-0.5,1-1,1.5-1.5c-0.9-0.2-2-2.8-2.3-3.4
					c-0.6,0.5-1.3,1-1.9,1.5c3.9,4.9-1.5,1.1-1.2-1.6c-0.7,0.3-1.4,0.6-2,0.8c0.8,0.9,3.9,4.1,3.6,5.2c-0.1,0.4-2.9-5.3-3-5.7
					c-0.6,0.5-1.2,0.9-1.8,1.4c1.3,0.9,4.9,4.4,3.8,5.3c-0.6,0.5-2.1-4.4-2.2-5c-0.4,0.5-0.8,1-1.2,1.5c0,0,4,7.3,1,6.4
					c-2.3-0.6-2.2-5.4-2.1-7.3c-0.6,0.3-1.2,0.7-1.8,1c0.6,1,1.2,2,1.8,2.9c0.3,2.9,0.4,3.6,0.5,1.9c-0.1-1.8-0.6-3.5-0.7-5.4
					c-0.7,0.2-1.5,0.4-2.2,0.6c1.2,1.9,1.8,3.7,2,6c0.7-0.2,1.5-0.4,2.2-0.6c-1.1-2.2-1.4-4.1-1.2-6.5c-0.7,0.2-1.5,0.4-2.2,0.6
					c1.7,2.4,3.3,5.1,2.9,8.2c0.7-0.2,1.5-0.4,2.2-0.6c-0.4-0.8-3.4-7-2.4-7.9c-0.6,0-1.1,0-1.7,0c2,2.6,3.2,5.4,3.6,8.7
					c0.7-0.3,1.5-0.6,2.2-0.9c-0.6-0.9-3.9-6.3-2.7-7.5c-0.6,0-1.1,0-1.7,0c2,2.5,3.1,5.1,3.7,8.2c0.7-0.4,1.3-0.8,2-1.2
					c-2.5-2.5-3-3.6-1.5-3.1c0.8,1.3,1.4,2.7,1.7,4.2c0.7-0.3,1.5-0.6,2.2-0.9c-1-1.8-1.7-3.7-2.7-5.6c-0.6-1.2-1.9-5.2,0.7,0.4
					c0.6,1.3,1.6,4.7-1.1,0.1c-0.3-0.4-0.5-0.9-0.8-1.3c-0.7-2.9-0.4-2.9,1,0c0.4-0.4,0.8-0.8,1.2-1.2c-2.6,0.3-6.5-1.7-8.9-2.7
					c0.1,0.7,0.2,1.5,0.3,2.2c2-1.5,4.5-2.3,6.7-3.4c1.3-0.6,0.4-2.5-0.9-2.2c-0.9,0.2-1,0.2-1.7,0.8c-0.9,0.7-0.7,2.2,0.6,2.2
					c1.2,0,1.3,0,2.4-0.3c1.5-0.3,0.9-2.6-0.6-2.3c-2.3,0.4-4.6,0.8-7,1.4c-1.5,0.4-0.9,2.6,0.6,2.3c2.4-0.4,4.8-0.8,7.2-1.2
					c1.5-0.3,0.9-2.6-0.6-2.3c-4.6,0.7-8.4-0.4-12.7,1.5c-1.1,0.5-0.6,2.4,0.6,2.2c1.2-0.1,2.3-0.3,3.5-0.4c-0.3-0.7-0.6-1.4-0.8-2
					c-1.2,0.6-2.5,1.3-3.7,1.9c0.4,0.7,0.8,1.3,1.2,2c1.4-0.2,2.7-0.3,4.1-0.5c0.1-0.8,0.2-1.6,0.3-2.4c-4.6,0.4-7.3,3.3-9.7,6.9
					c0.7,0.3,1.5,0.6,2.2,0.9c0.2-0.7,0.4-1.5,0.6-2.2c-0.8-0.2-1.5-0.4-2.3-0.6c-0.3,1.3-0.5,2.6-0.8,3.8c0.8,0.2,1.5,0.4,2.3,0.6
					c0.2-1.3,0.5-2.5,0.9-3.7c-0.8-0.2-1.5-0.4-2.3-0.6c-0.2,1.1-0.3,2.2-0.5,3.3c-0.2,1.5,2.1,2.2,2.3,0.6c0.1-1.2,0.4-2.3,1-3.3
					c-0.7-0.1-1.5-0.2-2.2-0.3c0,1.2,0.1,2.4,0.1,3.6c0.8,0.2,1.5,0.4,2.3,0.6c0.4-1.7,0.5-5.1,2.8-3.1c-2.1-1.8-0.9,3.6-2.4,4.4
					c0.5,0.1,1.1,0.3,1.6,0.4c-1.7-2.6,0-7.4,1.1-9.9c-0.7,0.1-1.5,0.2-2.2,0.3c1.5,2.6-0.1,6.1-1.4,8.3c0.7,0,1.4,0,2.1,0
					c-0.8-1.9,1.5-6.8,2.2-8.4c-0.5,0.1-1.1,0.3-1.6,0.4c1.1,0.8-1.5,6.5-1.7,6.9c0.7,0,1.4,0,2.1,0c-0.2-0.5,1.2-4.7,0.7-4.5
					c-0.4,0.2-0.6,4.9-0.9,5.7c0.8,0.1,1.6,0.2,2.4,0.3c0-1.5,0.8-3.6,0.5-5c-0.3-1.2-0.5-0.1-0.6,1.1
					C152.4,293.2,154.8,293.2,155,291.7L155,291.7z"/>
			</g>
		</g>
		<g>
			<g>
				<path class="st0" d="M169.3,299.6c1.5,0,1.5-2.4,0-2.4C167.8,297.2,167.8,299.6,169.3,299.6L169.3,299.6z"/>
			</g>
		</g>
		<g>
			<g>
				<path class="st0" d="M165.1,302.2c1.8-1.2,3.2-2.6,4.5-4.4c0.7-1-0.7-2.3-1.6-1.6c-1.3,0.9-3.3,2.6-1.7,4.2c2,2,4.8-0.9,5.7-2.6
					c0.6-1.2-0.9-2.4-1.9-1.5c-1.7,1.5-1.4,4.2,0.9,4.8c0.4,0.1,0.9,0,1.2-0.3c0.8-0.9,1.1-1.9,1.6-3c-0.8,0-1.5,0-2.3,0
					c0.2,1,0.2,1.1,0.7,2c0.5,1,1.9,0.6,2.2-0.3c0.3-0.7,0.6-1.5,0.6-2.3c-0.8-0.1-1.6-0.2-2.4-0.3c0,0.2,0,0.3,0,0.5
					c-0.1,1.3,2.2,1.7,2.4,0.3c0.1-0.3,0.1-0.7,0.2-1c0.1-1-1.1-2.2-2-1.2c-0.6,0.7-0.9,1.2-1.4,1.9c0.7,0.2,1.5,0.4,2.2,0.6
					c0.1-1,0.1-1.9-0.1-2.8c-0.1-0.9-1.3-1.8-2-0.8c-1.1,1.4-2,2.9-2.8,4.5c-0.7,1.4,1.2,2.5,2.1,1.2c0.8-1.2,1.5-2.4,2.3-3.6
					c0.5-0.8-0.2-1.7-1-1.8c-2.6-0.2-6.1,3.6-8,5.2c-1.1,0.9,0.3,2.6,1.5,1.9c2-1.2,3.4-2.6,4.6-4.6c0.5-0.9-0.3-2.1-1.4-1.8
					c-3.1,1.1-5.5,3.1-7.9,5.3c0.6,0.6,1.1,1.1,1.7,1.7c1.7-1.8,5.2-4.7,5.1-7.4c0-0.8-1-1.6-1.8-1c-2.8,1.9-5,4.2-7,6.9
					c-0.7,1,0.7,2.3,1.6,1.6c2-1.3,3.5-3,4.5-5.2c0.4-0.9-0.3-2.1-1.4-1.8c-3,0.9-5.5,2.5-7.5,4.9c-1,1.2,0.5,2.6,1.7,1.7
					c1.6-1.2,2.8-2.6,3.9-4.2c0.7-1-0.7-2.2-1.6-1.6c-2.1,1.3-3.6,2.7-4.9,4.8c-0.6,0.9,0.4,2,1.4,1.8c1.3-0.3,2-0.8,3-1.7
					c1.1-1.1-0.5-2.7-1.7-1.7c-1.6,1.3-3.3,2.7-4.8,4.2c-0.8,0.8-0.1,1.9,0.8,2c1.2,0.1,2.4,1,3.6,1.3c1.8,0.4,3.9,0.4,5.7,0.6
					c0-0.8,0-1.6,0-2.4c-0.9,0-1.8,0-2.7,0c-1.7-0.1-1.8,0-0.4,0.2c0.6-1.3,0.7-1.3,0.8-2.7c0.1-0.9-1.1-1.5-1.8-1
					c-1,0.6-1.8,1.3-2.7,2.1c0.6,0.5,1.3,1,1.9,1.5c0.7-1.1,1.2-2.1,1.6-3.3c0.4-1.2-1.2-1.9-2-1.2c-0.9,0.8-1.8,1.6-2.7,2.4
					c0.6,0.5,1.3,1,1.9,1.5c0.5-0.7,0.9-1.5,1.4-2.2c0.8-1.3-1.2-2.5-2.1-1.2c-3.2,4.6,6.5,4.4,8,5.1c-0.1-0.6-0.2-1.3-0.2-1.9
					c-0.3,0.2-0.5,0.5-0.8,0.7c-1,0.8,0.1,2.2,1.2,2c4.1-0.9,7.1-3.5,8.6-7.5c0.5-1.3-1.5-2-2.2-0.9c-0.6,0.9-1.2,1.8-1.7,2.8
					c-0.4,0.8,0.3,2.2,1.4,1.8c0.3-0.1,0.5-0.2,0.8-0.3c-0.5-0.6-0.9-1.2-1.4-1.8c-0.2,0.4-0.5,0.8-0.7,1.2c-0.5,1,0.6,2.4,1.6,1.6
					c0.8-0.6,1-0.8,1.6-1.6c0.8-1.2-0.9-2.4-1.9-1.5c-0.5,0.4-0.9,0.9-1.2,1.4c-0.9,1.2,0.6,2.8,1.7,1.7c0.8-0.8,1.3-1.5,1.7-2.5
					c0.5-1.2-0.8-2.5-1.9-1.5c-1.2,1.2-2.4,2.2-3.8,3.2c0.5,0.6,1,1.3,1.5,1.9c0.8-0.9,1.6-1.8,2.3-2.7c0.8-1-0.3-2.7-1.5-1.9
					c-1.6,1.1-3,2.1-4.8,2.7c0.4,0.7,0.8,1.3,1.2,2c1.3-1.2,2.7-2.3,4.1-3.3c1.2-0.9,0.2-2.8-1.2-2.1c-1.9,1-3.9,2-5.8,3.1
					c0.4,0.7,0.8,1.4,1.2,2.1c1.6-1.1,3.2-2.2,4.8-3.3c1.3-0.9,0.2-2.7-1.2-2.1c-2.1,0.9-4,1.9-5.9,3.1c0.5,0.6,1,1.3,1.5,1.9
					c1-0.9,2-1.9,3-2.8c1-1-0.3-2.4-1.5-1.9c-1,0.4-1.9,0.9-2.9,1.3c0.5,0.6,1,1.3,1.5,1.9c0.7-0.8,1.3-1.5,1.9-2.4
					c0.6-1-0.6-2.4-1.6-1.6c-1.2,0.9-2.3,1.8-3.4,2.8c0.6,0.5,1.3,1,1.9,1.5c0.2-0.3,0.3-0.6,0.5-0.9c0.7-1.3-0.8-2.3-1.9-1.5
					c-0.3,0.3-0.7,0.5-1,0.8c0.7,0.4,1.3,0.8,2,1.2c0.4-0.9,0.8-1.9,1.2-2.8c-0.8-0.2-1.5-0.4-2.3-0.6c-0.2,0.9-0.5,1.8-0.7,2.7
					c-0.4,1.5,1.7,2,2.3,0.6c0.7-1.6,2.8-7.5-0.5-8.1c-2.7-0.5-4.5,4.6-5.2,6.4c-0.6,1.4,1.7,2,2.3,0.6c-0.1,0.3,1.7-3.8,2-3.7
					c0.7,0.3-0.8,3.9-0.9,4.2c0.8,0.2,1.5,0.4,2.3,0.6c0.2-0.9,0.5-1.8,0.7-2.7c0.4-1.5-1.7-2-2.3-0.6c-0.4,0.9-0.8,1.9-1.2,2.8
					c-0.5,1.3,1.2,1.8,2,1.2c0.3-0.3,0.7-0.5,1-0.8c-0.6-0.5-1.3-1-1.9-1.5c-0.2,0.3-0.3,0.6-0.5,0.9c-0.6,1.2,0.9,2.4,1.9,1.5
					c0.9-0.9,1.9-1.7,2.9-2.5c-0.5-0.5-1.1-1.1-1.6-1.6c-0.4,0.7-0.9,1.4-1.5,2c-1,1,0.3,2.4,1.5,1.9c1-0.4,1.9-0.9,2.9-1.3
					c-0.5-0.6-1-1.3-1.5-1.9c-1,0.9-2,1.9-3,2.8c-1,0.9,0.3,2.6,1.5,1.9c1.9-1.2,3.8-2.2,5.9-3.1c-0.4-0.7-0.8-1.4-1.2-2.1
					c-1.6,1.1-3.2,2.2-4.8,3.3c-1.3,0.9-0.2,2.8,1.2,2.1c1.9-1,3.9-2,5.8-3.1c-0.4-0.7-0.8-1.4-1.2-2.1c-1.6,1.1-3.1,2.3-4.6,3.6
					c-0.9,0.8,0,2.4,1.2,2c2-0.6,3.7-1.7,5.4-2.9c-0.5-0.6-1-1.3-1.5-1.9c-0.8,0.9-1.6,1.8-2.3,2.7c-0.8,1,0.3,2.7,1.5,1.9
					c1.5-1.1,2.9-2.2,4.3-3.5c-0.6-0.5-1.3-1-1.9-1.5c-0.2,0.8-0.7,1.5-1.3,2c0.6,0.6,1.1,1.1,1.7,1.7c0.3-0.5,0.8-1,1.2-1.4
					c-0.6-0.5-1.3-1-1.9-1.5c-0.2,0.3-0.5,0.5-0.7,0.8c0.5,0.5,1.1,1.1,1.6,1.6c0.2-0.4,0.5-0.8,0.7-1.2c0.5-0.8-0.3-2.1-1.4-1.8
					c-0.3,0.1-0.5,0.2-0.8,0.3c0.5,0.6,0.9,1.2,1.4,1.8c0.5-1,1.1-1.9,1.7-2.8c-0.7-0.3-1.5-0.6-2.2-0.9c-1.2,3.2-3.6,5.1-6.9,5.8
					c0.4,0.7,0.8,1.3,1.2,2c0.3-0.2,0.5-0.5,0.8-0.7c0.5-0.5,0.4-1.6-0.2-1.9c-1.1-0.5-2.1-0.9-3.3-1.1c-0.6-0.1-3.9-0.5-3.9-0.7
					c-0.7-0.4-1.4-0.8-2.1-1.2c-0.5,0.7-0.9,1.5-1.4,2.2c-0.7,1.2,0.9,2.3,1.9,1.5c0.9-0.8,1.8-1.6,2.7-2.4c-0.7-0.4-1.3-0.8-2-1.2
					c-0.3,1-0.8,1.9-1.4,2.7c-0.8,1.2,0.9,2.4,1.9,1.5c0.6-0.7,1.4-1.2,2.2-1.7c-0.6-0.3-1.2-0.7-1.8-1c-0.1,1.4-1.9,2.9-0.8,4.3
					c1.1,1.3,4.1,0.6,5.5,0.6c1.6,0,1.5-2.2,0-2.4c-2.5-0.3-4.6-0.6-7-1.3c-1.1-0.3-1.2-0.6-2.4-0.7c0.3,0.7,0.6,1.4,0.8,2
					c1.6-1.4,3.2-2.8,4.8-4.2c-0.6-0.6-1.1-1.1-1.7-1.7c-0.6,0.3-1.3,0.7-1.9,1c0.5,0.6,0.9,1.2,1.4,1.8c1.2-1.8,2.2-2.8,4-3.9
					c-0.5-0.5-1.1-1.1-1.6-1.6c-1,1.5-2.1,2.6-3.5,3.7c0.6,0.6,1.1,1.1,1.7,1.7c1.8-2.1,3.8-3.5,6.5-4.3c-0.5-0.6-0.9-1.2-1.4-1.8
					c-0.9,1.9-1.9,3.2-3.7,4.3c0.5,0.5,1.1,1.1,1.6,1.6c1.7-2.4,3.7-4.4,6.1-6.1c-0.6-0.3-1.2-0.7-1.8-1c0,1.6-3.2,4.5-4.4,5.7
					c-1.1,1.1,0.6,2.7,1.7,1.7c2.1-1.9,4.1-3.7,6.9-4.7c-0.5-0.6-0.9-1.2-1.4-1.8c-1,1.7-2,2.8-3.7,3.8c0.5,0.6,1,1.3,1.5,1.9
					c1.2-0.9,4.6-4.6,6.3-4.5c-0.3-0.6-0.7-1.2-1-1.8c-0.8,1.2-1.5,2.4-2.3,3.6c0.7,0.4,1.4,0.8,2.1,1.2c0.7-1.5,1.4-2.7,2.4-4
					c-0.7-0.3-1.4-0.6-2-0.8c0.2,0.9,0.2,1.9,0.1,2.8c-0.1,1.3,1.6,1.5,2.2,0.6c0.4-0.5,0.7-0.9,1.1-1.4c-0.7-0.4-1.3-0.8-2-1.2
					c-0.1,0.3-0.1,0.7-0.2,1c0.8,0.1,1.6,0.2,2.4,0.3c0-0.2,0-0.3,0-0.5c0.1-1.3-2.1-1.7-2.4-0.3c-0.1,0.8-0.3,1.6-0.6,2.3
					c0.7-0.1,1.5-0.2,2.2-0.3c-0.1-0.5-0.3-0.9-0.4-1.4c-0.2-1.3-1.9-1-2.3,0c0.1,0.3,0.2,0.6,0.4,0.8c-0.6-0.5-1.3-1-1.9-1.5
					c-0.2,0.6-0.5,1.2-0.7,1.8c-0.5-0.5-1.1-1.1-1.6-1.6c-1.1,1.5-2.1,2.5-3.7,3.5C162.6,301,163.8,303.1,165.1,302.2L165.1,302.2z"
					/>
			</g>
		</g>
		<g>
			<g>
				<path class="st0" d="M168.7,303.1c0.5,0.1,0.9,0.3,1.4,0.4c-0.2-0.7-0.4-1.3-0.5-2c-0.6,0.5-0.8,0.7-1.2,1.4
					c-0.6,0.9,0.4,2,1.4,1.8c0.6-0.1,0.8-0.3,1.2-0.7c-0.6-0.6-1.1-1.1-1.7-1.7c-2,2.3-4.5,1.7-7.2,2.3c-0.8,0.2-1.5,0.3-1.8,1.2
					c-0.9,2.6,2.8,2.4,4.2,2c7.7-2.7,2-12.4-2.2-15.9c-2-1.7-5-3.1-7.3-1.2c-2.2,1.8-3.2,5.9-1.9,8.4c1.1,2.2,4.4,2,6.4,1.2
					c3-1.2,2.1-5.3,0.8-7.5c-1.1-2-4-4.8-6.1-2.4c-1.8,1.9-1.8,7.4,1.3,8c1.5,0.3,2.2-2,0.6-2.3c-0.6-0.1-0.8-3-0.5-3.3
					c1.4-1.3,2.5,1.1,2.9,2c0.6,1.5,0.9,2.2-0.6,3c-1.4,0.8-2.5,0.4-3-1c-0.3-0.9,0.3-3.7,1.3-4.2c1-0.5,2.8,0,3.8,0.6
					c1.6,0.9,2.8,2.7,3.7,4.2c0.7,1.1,1.9,2.8,1.9,4.1c0,0.7-3.5,4.8-2.5,5.5c0.3,0.2,1.8-0.1,2.2-0.2c2.2-0.3,4.1-1,5.6-2.7
					c1-1.2-0.7-2.9-1.7-1.7c0,0-0.1,0.1-0.1,0.1c0.5,0.6,0.9,1.2,1.4,1.8c0.3-0.3,0.6-0.6,0.9-0.9c0.7-0.6,0.3-1.8-0.5-2
					c-0.5-0.1-0.9-0.3-1.4-0.4C167.9,300.3,167.3,302.7,168.7,303.1L168.7,303.1z"/>
			</g>
		</g>
	</g>
	<g>
		<g>
			<g>
				<path class="st1" d="M170.5,283.6c-1.1,0.4-2.3,0.4-3.4,0.2c-0.8-0.2-1.1,1-0.3,1.2c1.4,0.3,2.7,0.3,4.1-0.2
					C171.5,284.6,171.2,283.4,170.5,283.6L170.5,283.6z"/>
			</g>
		</g>
		<g>
			<g>
				<path class="st1" d="M170.9,284.6c3.8,3.6,4.4,10.6,2.3,15.1c-0.3,0.7,0.7,1.3,1,0.6c2.4-5,1.7-12.6-2.5-16.5
					C171.2,283.2,170.3,284.1,170.9,284.6L170.9,284.6z"/>
			</g>
		</g>
		<g>
			<g>
				<path class="st1" d="M173.2,299.6c-1.1,4.3-4.7,6.3-8.8,7.3c-4.3,1-7.2-0.1-10.9-2.1c-0.7-0.4-1.3,0.7-0.6,1
					c4.4,2.4,8.1,3.4,13.1,1.9c4-1.2,7.2-3.6,8.3-7.8C174.5,299.2,173.4,298.9,173.2,299.6L173.2,299.6z"/>
			</g>
		</g>
		<g>
			<g>
				<path class="st1" d="M153.6,304.9c-10.8-0.9-9-12.5-6.5-19.7c0.3-0.7-0.9-1-1.2-0.3c-2.9,8.1-4,20.3,7.6,21.3
					C154.4,306.2,154.3,305,153.6,304.9L153.6,304.9z"/>
			</g>
		</g>
		<g>
			<g>
				<path class="st1" d="M167,283.6c-0.6-0.2-1-0.8-1-1.4c0-0.8-1.2-0.8-1.2,0c0,1.2,0.8,2.2,1.9,2.6
					C167.4,285,167.7,283.9,167,283.6L167,283.6z"/>
			</g>
		</g>
		<g>
			<g>
				<path class="st1" d="M166,282.2c-0.1-0.5-0.2-1.1-0.3-1.6c0-0.3-0.3-0.6-0.6-0.6c-5.7,0-11.6,1-17.4,1.5c-0.8,0.1-0.8,1.3,0,1.2
					c3.5-0.3,6.9-0.6,10.4-1c2.2-0.2,5.8-1.6,6.7,0.8C165.1,283.2,166.2,282.9,166,282.2L166,282.2z"/>
			</g>
		</g>
		<g>
			<g>
				<path class="st1" d="M147.1,281.9c-0.1,1.2-0.4,2.4-0.9,3.5c-0.3,0.7,0.7,1.3,1,0.6c0.6-1.3,0.9-2.6,1.1-4.1
					C148.3,281.1,147.1,281.1,147.1,281.9L147.1,281.9z"/>
			</g>
		</g>
	</g>
</g>
</svg>
