<?xml version="1.0" encoding="utf-8"?>
<!-- Generator: Adobe Illustrator 22.1.0, SVG Export Plug-In . SVG Version: 6.00 Build 0)  -->
<svg version="1.1" id="Layer_1" xmlns="http://www.w3.org/2000/svg" xmlns:xlink="http://www.w3.org/1999/xlink" x="0px" y="0px"
	 viewBox="0 0 200 600" style="enable-background:new 0 0 200 600;" xml:space="preserve">
<style type="text/css">
	.st0{fill:#FBFF05;}
</style>
<g>
	<g>
		<g>
			<g>
				<g>
					<path class="st0" d="M61.7,568.3c-0.1-0.1-0.2-0.2-0.4-0.3c-0.6,0.6-1.2,1.2-1.8,1.8c-0.1-0.1-0.2-0.2-0.3-0.3
						c0.2-0.7,0.4-1.4,0.5-2.1c0.7-0.5,1.3-1,2-1.4c1.3-0.6,0.7-2.9-0.8-2.8c-0.5,0-0.9,0.1-1.4,0.1c0.1,1,0.3,2,0.4,2.9
						c4.1-1.7,8-2.4,12.5-2.1c0-1,0-2,0-3c-1.8,0-3.8,0-5.6,0c0.1,1,0.3,2,0.4,2.9c5-2,17,3.4,15.2-5.1c-1.1-5.6-1.3-11.5-1.7-17.2
						c-0.2-3.7,1.2-9.6-1-12.8c-0.7,0.7-1.4,1.4-2.1,2.1c5.1,2.6,11.9,1,17.5,0.7c-0.5-0.6-1-1.3-1.4-1.9c-1.6,4-2.5,7.9-2.9,12.2
						c-0.1,1.7,2.6,2.1,3,0.4c0.4-2.3,0.7-4.6,0.9-7c0.1-1.9-2.9-1.9-3.1,0c-0.3,2.8-0.5,5.5-0.8,8.3c-0.2,1.7,2.7,2.1,3,0.4
						c0.5-3,1.1-6,1.6-9c-1-0.3-1.9-0.5-3-0.8c-1,6.6-2.7,13.5-2.4,20.2c0.1,1.6,2.5,2.1,3,0.4c0.9-3.9,1-7.6,0.9-11.6
						c-1,0-2,0-3.1,0c0.2,2.3,0.3,4.1-0.1,6.5c-0.3,1.9,2.4,2.7,3,0.8c0.7-2.7,1-5.2,0.8-8c-0.1-1.9-3-1.9-3.1,0
						c-0.5,6.3-1,12.6-1.5,19c-0.3,3.1-0.6,5.6-1.7,8.5c-0.6,1.4-0.9,1.9-0.4,3.3c0.3,0.8,1,1.3,1.8,1c2.1-0.6,3.9-0.6,4.4-2.9
						c0.4-2-0.5-4.9-0.5-7.1c-0.1-3.4,0.2-6.7,0.8-10c-1-0.1-2-0.3-3-0.4c0,1.3,1.5,12.7,0.3,13.2c-1.8,0.8-5-11.6-5.5-13.1
						c-1.4-4.4-3.7-8-3.3-12.8c0.2-3,1.2-6.7-0.6-9.4c-0.3-0.4-0.8-0.8-1.3-0.7c-0.1,0-0.3,0-0.4,0c-0.7,0.1-1.2,0.4-1.4,1.1
						c0,0.1-0.1,0.2-0.1,0.3c-0.4,0.9,0.6,1.9,1.4,1.9c3.9,0.1,7.7,0.2,11.6,0.3c-0.5-0.6-1-1.3-1.4-1.9C88,543.1,87,553.5,86.3,564
						c1,0,2,0,3.1,0c-0.7-5.6-1.9-11.5-1.8-17.2c0-2.8,0.7-5.6,1.6-8.2c1-2.8,2.7-3.9,4.2-6.2c0.7-1.1-0.4-2.6-1.7-2.2
						c-4.2,1.3-10.7,2.1-12,7.1c-0.8,2.8-0.2,9.3,2.3,11.1c0.8,0.6,1.9,0,2.2-0.9c1.2-3.9,2.2-7.9,3.1-11.9c-1-0.1-2-0.3-3-0.4
						c-0.7,5.3-1.2,10.7-1.5,16.1c1-0.1,2-0.3,3-0.4c-0.8-5.3-0.9-10.5-0.3-15.8c0.2-1.7-2.6-2-3-0.4c-0.8,3.6-1.3,7-1.5,10.7
						c1-0.1,2-0.3,3-0.4c-0.7-3-1.1-6-1.2-9.1c-1,0.1-2,0.3-3,0.4c1.6,3.9,2.1,7.9,2.5,12.1c0.1,1.6,2.6,2.2,3,0.4
						c0.6-3.1,1.3-6.1,2.3-9.1c-1,0-1.9,0-3,0c0.8,4.5-0.8,8.9,0.2,13.4c0.4,1.8,2.9,1.2,3-0.4c0.4-3.3,0.8-6.7,1.2-10
						c-1,0-2,0-3.1,0c-0.1,3.9-0.1,7.7-0.2,11.6c0,2,2.9,1.9,3.1,0c0.1-1.2,0.2-2.5,0.3-3.7c-0.7-0.3-1.5-0.6-2.2-0.9
						c1.2,4.4-1.1,8.7,1.3,12.8c0.5,0.8,1.7,1,2.4,0.3c0.3-0.4,0.7-0.7,1-1.1c-0.9-0.4-1.7-0.7-2.6-1.1c0.1,1.5-0.2,2.9-0.9,4.2
						c0.9-0.1,1.8-0.2,2.7-0.4c-0.8-1.1-0.5-3.5-1-4.8c-0.3-1-1-1.8-1.5-2.7c-1.7-2.9-3.4-5.8-5.6-8.4c-0.8-1-2.1-0.3-2.5,0.7
						c-1.8,4.4,2,12.2,3.7,16.3c0.9-0.4,1.8-0.8,2.7-1.2c-1.1-2.5-1.3-5-1.4-7.7c-1,0.1-2,0.3-3,0.4c0.6,3.1,0.8,6.6,1.9,9.6
						c0.3,0.9,1.3,2,1.5,2.7c0.3,0.4,0.3,0.4,0-0.1c-0.3-0.7-0.9-1.1-1.9-1c-3.1-1-6.4-0.6-9.5-0.5c-4.8,0.2-8.1-0.7-12.4-2.8
						c-0.1,0.9-0.2,1.8-0.4,2.7c4.2-1.5,8.3-2.6,12.7-3c1.8-0.2,3.6-0.2,5.4-0.2c3-0.1,2.4,0.1,2.1,2.8c-0.2,1.9,2.9,1.9,3.1,0
						c0.5-4.3,0.2-5.6-4.3-5.8c-6.8-0.3-13.5,1-19.8,3.3c-1.1,0.4-1.6,2.1-0.4,2.7c4.1,2,7.4,3.4,12,3.3c3.1-0.1,6-0.6,9.1,0
						c1.6,0.3,4,1.6,5.6,1.2c1.5-0.4,2.3-1.6,2-3c-0.4-1.6-1.9-2.9-2.4-4.6c-0.7-2.7-1-5.5-1.5-8.2c-0.3-1.7-3.1-1.3-3,0.4
						c0.1,3.3,0.5,6.2,1.8,9.3c0.7,1.5,3.5,0.4,2.7-1.2c-1.3-3.4-5.2-11-3.7-14.7c-0.8,0.2-1.7,0.4-2.5,0.7c2.2,2.6,4.5,5.9,5.9,9
						c0.9,2.1,0.4,4.4,1.7,6.3c0.8,1.1,2.2,0.9,2.7-0.4c0.7-1.7,1-3.1,1-5c0-1.3-1.7-2-2.6-1.1c-0.3,0.4-0.7,0.7-1,1.1
						c0.8,0.1,1.6,0.2,2.4,0.3c-2.1-3.6,0.1-8.2-1-12.1c-0.2-0.9-1.4-1.5-2.2-0.9c-2,1.4-1.6,4-1.8,6.3c1,0,2,0,3.1,0
						c0.1-3.9,0.1-7.7,0.2-11.6c0-2-2.9-1.9-3.1,0c-0.4,3.3-0.8,6.7-1.2,10c1-0.1,2-0.3,3-0.4c-1-4.5,0.6-8.9-0.2-13.4
						c-0.3-1.6-2.5-1.3-3,0c-1,3-1.7,6-2.3,9.1c1,0.1,2,0.3,3,0.4c-0.4-4.4-0.9-8.7-2.6-12.9c-0.6-1.4-3.1-1.4-3,0.4
						c0.1,3.4,0.5,6.6,1.3,9.9c0.4,1.7,3,1.2,3-0.4c0.1-3.4,0.6-6.6,1.4-9.9c-1-0.1-2-0.3-3-0.4c-0.6,5.6-0.5,11.1,0.4,16.6
						c0.3,1.7,3,1.2,3-0.4c0.3-5.4,0.8-10.7,1.5-16.1c0.2-1.7-2.6-2.1-3-0.4c-0.7,4.1-1.7,8-3.1,11.9c0.7-0.3,1.5-0.6,2.2-0.9
						c-0.6-0.4-1.2-6.3-1-6.8c1.2-4,6.6-4.8,10-5.9c-0.6-0.7-1.1-1.5-1.7-2.2c-1.1,1.8-2.9,2.9-3.8,4.9c-1.1,2.4-1.8,5.3-2.2,7.9
						c-1,6.6,0.8,13.8,1.6,20.4c0.2,1.9,3,2,3.1,0c0.7-10.2,1.6-20.4,4.1-30.3c0.2-1-0.5-1.9-1.4-1.9c-3.9-0.1-7.7-0.2-11.6-0.3
						c0.5,0.6,1,1.3,1.4,1.9c0-0.1,0.1-0.2,0.1-0.3c-0.5,0.4-1,0.7-1.4,1.1c-0.4,0.1-0.9,9.3-0.9,10.3c0.1,2.5,1.2,4.7,2.2,7
						c2.3,5.3,2.6,11.8,6.4,16.5c1.3,1.7,4,4.4,6.1,2.3c1.1-1.2,0.8-3.3,0.7-4.7c-0.3-3.9-0.9-7.6-0.8-11.5c0-1.6-2.7-2.1-3-0.4
						c-0.5,3.3-0.9,6.6-0.9,9.9c0,1.8,0.6,4,0.3,5.7c-0.3,2.2,0.7,1.6-1.9,2.3c0.6,0.3,1.2,0.7,1.8,1c-0.3-0.8,1.3-3,1.5-3.9
						c0.7-2.5,0.5-5.5,0.8-8.1c0.5-6,1-12,1.4-18c-1,0-2,0-3.1,0c0.2,2.5,0,4.8-0.7,7.2c1,0.3,1.9,0.5,3,0.8
						c0.4-2.5,0.5-4.8,0.2-7.3c-0.2-1.9-3.1-2-3.1,0c0.1,3.7,0,7.2-0.8,10.8c1,0.1,2,0.3,3,0.4c-0.3-6.5,1.3-13,2.3-19.4
						c0.3-1.9-2.6-2.7-3-0.8c-0.5,3-1.1,6-1.6,9c1,0.1,2,0.3,3,0.4c0.3-2.8,0.5-5.5,0.8-8.3c-1,0-2,0-3.1,0
						c-0.1,2.1-0.4,4.1-0.7,6.2c1,0.1,2,0.3,3,0.4c0.3-4,1.2-7.7,2.7-11.4c0.4-0.9-0.5-1.9-1.4-1.9c-4.6,0.2-11.7,1.8-15.9-0.3
						c-1.2-0.6-3.1,0.7-2.1,2.1c1.5,2.2,0.5,9.5,0.7,12.2c0.3,4,0.5,8,0.9,12c0.1,1.2,0.5,3,0.6,4.1c1.1,1.6,0.8,2.2-0.8,1.8
						c-0.6,0-1.2,0-1.8,0c-3.3,0-7.1-0.7-10.2,0.5c-1.5,0.6-1.4,2.9,0.4,2.9s3.8,0,5.6,0c1.9,0,1.9-2.9,0-3
						c-4.7-0.3-9.1,0.4-13.3,2.2c-1.4,0.6-1.5,3.1,0.4,2.9c0.5,0,0.9-0.1,1.4-0.1c-0.3-0.9-0.5-1.9-0.8-2.8c-2,1-4.5,3-3.3,5.5
						c0.8,1.7,2.7,1.9,4.3,1.1c0.7-0.4,0.9-1.4,0.5-2.1c-0.4-0.7-0.7-1-1.5-1.1c-1-0.2-2.3,0.7-1.8,1.8c0.6,1.6,0.8,1.8,2.5,2.4
						C62.8,571.8,63.6,568.9,61.7,568.3L61.7,568.3z"/>
				</g>
			</g>
			<g>
				<g>
					<path class="st0" d="M62.4,566.9c-1.3,0.2-2.6,0.2-3.8,0.9c-0.6,0.4-0.8,1-0.7,1.7c0.2,1.2,1.1,2,2,2.7
						c1.5,1.2,3.5-0.7,2.1-2.1c-0.7-0.8-1.5-1.5-2.4-2.2c-1-0.8-3.1-0.1-2.5,1.5c1.6,4.1,7.8,4.1,11.7,4.5
						c6.6,0.6,13.2-0.3,19.7-1.7c-0.4-0.9-0.8-1.8-1.2-2.7c-0.2-0.2-0.4-0.4-0.7-0.6c-0.7-0.6-1.5-1.1-2.2-1.7
						c-0.5,1.3-18.5,3.4-19.7,1.9c-0.3,0.7-0.6,1.5-0.9,2.2c4.6-1.5,9.3-2.9,13.9-4c1.6-0.4,1.3-3-0.4-2.9
						c-3.9,0.1-7.5,0.7-11.2,2.3c0.6,0.5,1.3,1,1.9,1.4c1.3,0.2,2.5,0.2,3.8-0.2c-0.1-1-0.3-2-0.4-2.9c-2.2,0.8-4.5,0.3-6.8,0.9
						c-1.6,0.4-1.3,3.1,0.4,2.9c2.3-0.2,4.6-0.4,7-0.8c1.2-0.2,2.4-0.4,3.7-0.6c2.3-0.4,3.7,0.3,0.7-1.5c0.2,0.6,0.5,1.1,0.7,1.7
						c-0.1-0.3-0.3-0.6-0.4-0.9c0.1,0.9,0.2,1.8,0.4,2.7c1-0.7,2-1.4,3-2.2c0.4,0.9,0.7,1.7,1.1,2.6c2.1-2.6,4.9-2.6,6.4-6.1
						c1.5-3.9,1.2-8.6,0.7-12.7c-0.9,0.3-1.9,0.5-2.8,0.8c1.5,3,2.3,6.1,3,9.4c0.4,1.8,2.8,1.2,2.9-0.4c0.5-4.8-1-9.5-1.1-14.3
						c-0.1-3.4,1.6-8.9-0.2-11.9c-1.6-2.9-10.4-5.5-13-2.9c-1.6,1.6-0.4,4.9-0.1,6.7c0.5,2.7,0.7,6,3.2,7.7c5.7,3.9,8.1-4.3,9.5-8
						c-1,0-1.9,0-2.9,0c1.4,3.5,2.3,7,2.6,10.7c0.1,1.5,2,2.1,2.8,0.8c2.8-4.4,2.9-9.2,2.8-14.3c-0.1-1.9-3.1-1.9-3,0
						c0.1,4.5,0.1,8.8-2.4,12.8c0.9,0.3,1.9,0.5,2.8,0.8c-0.3-4-1.2-7.8-2.7-11.5c-0.6-1.4-2.3-1.4-2.9,0c-0.3,0.9-0.8,3.4-1.6,4.1
						c-4.4,3.6-5.1-1.9-5.2-3.8c-0.1-2.8,0.2-4.5,3.8-3.1c2.7,1,3.3,2.3,3.6,4.9c0.4,3.5-0.3,7.2,0,10.8c0.4,3.6,1.3,7.1,0.9,10.7
						c1-0.1,2-0.3,2.9-0.4c-0.8-3.5-1.7-6.8-3.3-10.1c-0.6-1.3-3-0.7-2.8,0.8c0.4,3.4,1,8.3-0.5,11.5c-1.3,2.5-3.9,3.1-5.7,5.2
						c-0.8,1-0.3,2.6,1.1,2.6c2,0,4.3-1.4,3.1-3.7c-1.4-2.7-5.8-0.9-7.7,0.3c-1,0.6-1,2.6,0.4,2.7c2.5,0.3,7.9-1.4,5.6-4.9
						c-1.8-2.8-6.4-0.3-7.3,2.1c-0.2,0.6,0.1,1.4,0.7,1.7c2.4,1.5,6.2,0.2,7.7-2.1c0.3-0.4,0.3-1.1,0-1.5c-1-1.3-1.5-1.4-3.1-1.3
						c-4.7,0.2-9.6,1.7-14.4,2.2c0.1,1,0.3,2,0.4,2.9c2.3-0.6,4.5-0.1,6.8-0.9c1.5-0.6,1.4-3.1-0.4-2.9c-2.3,0.2-6.9,0-6.9,3.2
						c0,0.9,1,1.8,1.9,1.4c3.4-1.4,6.7-2.1,10.4-2.2c-0.1-1-0.3-2-0.4-2.9c-4.7,1.1-9.4,2.4-13.9,4c-0.8,0.3-1.5,1.4-0.9,2.2
						c2.6,3.5,9.4,1.6,13,1.2c3.5-0.4,10.6,0.1,12.1-3.8c0.5-1.3-1.1-2.2-2.2-1.7c-6,3.1-0.8,8.6,3.7,5.8c1.5-0.9,0.5-3.1-1.2-2.7
						c-4.4,0.9-9,1.7-13.6,1.7c-1.7,0-3.5,0-5.2-0.2c-1.3-0.1-8.1-0.5-8.8-2.3c-0.8,0.5-1.7,1-2.5,1.5c0.9,0.6,1.7,1.3,2.4,2.2
						c0.7-0.7,1.4-1.4,2.1-2.1c-0.4-0.5-0.8-0.9-1.2-1.4c-0.2,0.6-0.5,1.1-0.7,1.7c1-0.3,2-0.5,3-0.6
						C65.1,569.5,64.3,566.6,62.4,566.9L62.4,566.9z"/>
				</g>
			</g>
			<g>
				<g>
					<path class="st0" d="M79.2,571.9c1.8,2,4.1,1.1,6.5,1c-0.1-1-0.3-2-0.4-2.9c-1.9,0.4-4.6,1.3-6.6,0.7c-1.9-0.6-2.6,2.3-0.8,2.9
						c2.5,0.7,5.8-0.1,8.2-0.7c1.6-0.4,1.3-3-0.4-2.9c-1.2,0.1-3.4,1-4.3-0.1C80.1,568.3,78,570.4,79.2,571.9L79.2,571.9z"/>
				</g>
			</g>
		</g>
		<g>
			<g>
				<g>
					<path d="M76.9,560.7c-5-1.1-11.9-1-16.7,1.1c-2.6,1.1-5.8,4.9-4.5,8c1.6,3.7,8.4,4.2,11.6,4.7c6.7,1,13.4,0.6,20-0.8
						c0.8-0.2,0.4-1.3-0.3-1.2c-8.1,1.8-16.6,1.9-24.6-0.3c-2.9-0.8-6.1-1.2-5-5.8C58,564,61,563,63,562.3c4.2-1.3,9.4-1.4,13.7-0.5
						C77.3,562,77.6,560.8,76.9,560.7L76.9,560.7z"/>
				</g>
			</g>
			<g>
				<g>
					<path d="M86.3,572.9c-0.3,2.6,3.9,1.5,5.2,1.4c3.3-0.3,2.9-0.9,2.9-4.4c-0.2-13.8,0.5-27.5,1.9-41.2c0.1-0.8-1.1-0.8-1.2,0
						c-0.8,8.3-1.4,16.6-1.7,24.9c-0.1,3.8-0.2,7.7-0.2,11.5c0,1.5,0.6,4.3,0,5.8c-0.5,1.9-1.6,2.7-3.3,2.4
						c-0.9,0.4-1.7,0.3-2.4-0.3C87.6,572.1,86.4,572.1,86.3,572.9L86.3,572.9z"/>
				</g>
			</g>
			<g>
				<g>
					<path d="M76.7,561.6c1.2,0.1,2.4,0.1,3.7,0.2c0.8,0,0.8-1.2,0-1.2c-1.2-0.1-2.4-0.1-3.7-0.2C75.9,560.4,75.9,561.6,76.7,561.6
						L76.7,561.6z"/>
				</g>
			</g>
			<g>
				<g>
					<path d="M79.8,561c-1.8-10.8-2.6-21.7-2.5-32.7c0-0.8-1.2-0.8-1.2,0c-0.1,11.1,0.7,22.1,2.5,33C78.7,562.1,79.9,561.8,79.8,561
						L79.8,561z"/>
				</g>
			</g>
			<g>
				<g>
					<path d="M76.3,529.3c3.1-0.2,6.1,0.3,9.2,0.4c3.2,0.1,6.4-0.2,9.6-0.5c0.8-0.1,0.8-1.3,0-1.2c-3.2,0.3-6.4,0.6-9.6,0.5
						c-3.1-0.1-6.1-0.7-9.2-0.4C75.5,528.2,75.5,529.4,76.3,529.3L76.3,529.3z"/>
				</g>
			</g>
		</g>
	</g>
	<g>
		<ellipse class="st0" cx="126.9" cy="573" rx="4.3" ry="0.8"/>
		<ellipse class="st0" cx="108.8" cy="540.1" rx="2.1" ry="10.1"/>
		<ellipse class="st0" cx="117.3" cy="530.3" rx="3.8" ry="1.8"/>
		<ellipse class="st0" cx="119.6" cy="530.1" rx="1.7" ry="1.4"/>
		<ellipse class="st0" cx="107.1" cy="530.7" rx="1.1" ry="2.5"/>
		<g>
			<g>
				<g>
					<path class="st0" d="M140.3,570.8c1.6-0.5,1.7-0.8,2.4-2.4c0.4-1.2-0.8-2-1.7-1.8c-0.8,0.1-1.1,0.4-1.5,1.1
						c-0.4,0.7-0.2,1.7,0.5,2.1c1.5,0.8,3.3,0.7,4.1-1.1c1.2-2.5-1.3-4.6-3.1-5.5c-0.3,0.9-0.5,1.9-0.8,2.8c0.5,0,0.9,0.1,1.4,0.1
						c1.7,0.2,1.7-2.4,0.4-2.9c-4.2-1.8-8.2-2.5-12.7-2.2c-1.8,0.1-1.8,3,0,3c1.7,0,3.6,0,5.3,0s1.8-2.3,0.4-2.9
						c-2.7-1.1-6-0.6-8.8-0.5c-0.9,0-1.7,0-2.6,0c-1.6,0.4-1.7-0.2-0.8-1.8c0-1.3,0.5-2.8,0.6-4.1c0.4-3.7,0.6-7.3,0.8-11
						c0.1-2,0.3-4,0.3-5.9c0.1-2-0.8-5.6,0.4-7.3c0.9-1.3-0.8-2.7-2-2.1c-4.1,2.1-10.8,0.5-15.1,0.3c-0.9,0-1.7,1-1.4,1.9
						c1.5,3.7,2.3,7.4,2.6,11.4c1-0.1,1.9-0.3,2.8-0.4c-0.4-2.1-0.6-4.1-0.7-6.2c-1,0-1.9,0-2.9,0c0.3,2.8,0.5,5.5,0.8,8.3
						c1-0.1,1.9-0.3,2.8-0.4c-0.5-3-1.1-6-1.6-9c-0.3-1.9-3.1-1.1-2.8,0.8c1,6.4,2.4,13,2.2,19.4c1-0.1,1.9-0.3,2.8-0.4
						c-0.9-3.6-0.9-7.2-0.8-10.8c0-2-2.7-1.9-2.9,0c-0.3,2.5-0.2,4.8,0.2,7.3c1-0.3,1.8-0.5,2.8-0.8c-0.7-2.4-0.9-4.7-0.7-7.2
						c-1,0-1.9,0-2.9,0c0.4,6,0.9,12,1.4,18c0.2,2.6,0.2,5.4,0.7,7.9c0.2,0.9,1.7,3.4,1.5,4.1c0.6-0.3,1.2-0.7,1.7-1
						c-2.3-0.6-1.8,0.3-1.8-2.3c0-1.9,0.3-3.8,0.3-5.7c0-3.3-0.4-6.6-0.9-9.9c-0.3-1.7-2.9-1.3-2.8,0.4c0,3.9-0.5,7.6-0.8,11.5
						c-0.1,1.4-0.4,3.6,0.7,4.7c2,2.1,4.6-0.6,5.8-2.3c3.6-4.7,3.9-11.1,6.1-16.5c1-2.3,1.9-4.5,2.1-7c0.1-1.1-0.4-10.2-0.9-10.3
						c-0.5-0.4-1-0.7-1.4-1.1c0,0.1,0.1,0.2,0.1,0.3c0.5-0.6,1-1.3,1.4-1.9c-3.7,0.1-7.4,0.2-11.1,0.3c-1,0-1.6,0.9-1.4,1.9
						c2.4,9.9,3.2,20.1,3.9,30.3c0.1,2,2.7,1.9,2.9,0c0.8-6.5,2.5-13.8,1.6-20.4c-0.4-2.6-1.1-5.5-2.1-7.9c-0.9-2-2.5-3.1-3.6-4.9
						c-0.6,0.7-1.1,1.5-1.6,2.2c2.9,1,8.8,1.9,9.5,5.9c0.2,0.9-0.3,6.3-1,6.8c0.7,0.3,1.5,0.6,2.1,0.9c-1.2-3.9-2.1-7.9-2.9-11.9
						c-0.3-1.6-3.1-1.3-2.8,0.4c0.7,5.3,1.2,10.7,1.5,16.1c0.1,1.6,2.6,2.2,2.8,0.4c0.9-5.6,1.1-11,0.4-16.6c-1,0.1-1.9,0.3-2.8,0.4
						c0.8,3.3,1.2,6.5,1.4,9.9c0.1,1.6,2.5,2.1,2.8,0.4c0.8-3.3,1.2-6.5,1.3-9.9c0.1-1.8-2.2-1.8-2.8-0.4c-1.6,4.1-2.1,8.5-2.5,12.9
						c1-0.1,1.9-0.3,2.8-0.4c-0.6-3.1-1.3-6.1-2.2-9.1c-0.4-1.3-2.5-1.6-2.8,0c-0.8,4.5,0.8,8.9-0.2,13.4c1,0.1,1.9,0.3,2.8,0.4
						c-0.4-3.3-0.8-6.7-1.2-10c-0.2-1.9-2.9-2-2.9,0c0.1,3.9,0.1,7.7,0.2,11.6c1,0,1.9,0,2.9,0c-0.2-2.3,0.3-4.8-1.7-6.3
						c-0.8-0.6-1.9,0-2.1,0.9c-1.1,3.9,1.1,8.5-1,12.1c0.8-0.1,1.6-0.2,2.3-0.3c-0.3-0.4-0.7-0.7-1-1.1c-0.9-1-2.5-0.2-2.5,1.1
						c0,1.9,0.3,3.2,1,5c0.5,1.2,1.8,1.5,2.6,0.4c1.3-1.9,0.8-4.1,1.6-6.3c1.3-3.1,3.5-6.5,5.6-9c-0.8-0.2-1.6-0.4-2.4-0.7
						c1.5,3.6-2.2,11.3-3.5,14.7c-0.6,1.6,2,2.7,2.6,1.2c1.3-3.1,1.6-5.9,1.7-9.3c0.1-1.7-2.5-2.1-2.8-0.4c-0.5,2.5-0.8,5.1-1.4,7.5
						c-0.5,1.9-1.9,3.4-2.3,5.1c-0.3,1.5,0.3,2.8,1.9,3.2c1.3,0.3,2.7-0.7,3.9-1c3.1-0.8,6-0.5,9.2-0.3c4.9,0.3,8.2-1.1,12.4-3.3
						c1.3-0.6,0.8-2.3-0.4-2.7c-6.1-2.3-12.5-3.6-18.9-3.3c-4.4,0.2-4.6,1.5-4.1,5.8c0.2,1.9,3.1,1.9,2.9,0c-0.1-1-0.2-2-0.3-2.9
						c0.5,0,1,0.1,1.5,0.1c1.6-0.6,4.4,0,6,0.2c4.2,0.4,8.2,1.5,12.1,3c-0.1-0.9-0.2-1.8-0.4-2.7c-4,2-7.4,3.1-11.8,2.8
						c-2.9-0.2-6.2-0.6-9,0.5c-0.5,0.2-1.1,0.4-1.6,0.6c-0.6,0.9-0.7,1.1-0.2,0.5c-0.1-0.3,1.4-2.4,1.5-2.7c1.1-3,1.3-6.5,1.8-9.6
						c-1-0.1-1.9-0.3-2.8-0.4c-0.1,2.7-0.3,5.2-1.4,7.7c0.9,0.4,1.7,0.8,2.6,1.2c1.6-4,5.2-11.9,3.5-16.3c-0.4-0.9-1.6-1.6-2.4-0.7
						c-2.1,2.6-3.7,5.4-5.3,8.4c-0.5,0.8-1.1,1.8-1.5,2.7c-0.5,1.4-0.2,3.7-1,4.8c0.9,0.1,1.7,0.2,2.6,0.4c-0.7-1.3-1-2.7-0.9-4.2
						c-0.9,0.4-1.6,0.7-2.5,1.1c0.3,0.4,0.7,0.7,1,1.1c0.7,0.7,1.8,0.5,2.3-0.3c2.3-4.2,0.1-8.4,1.3-12.8c-0.7,0.3-1.5,0.6-2.1,0.9
						c0.1,1.2,0.2,2.5,0.3,3.7c0.2,1.9,2.9,2,2.9,0c-0.1-3.9-0.1-7.7-0.2-11.6c-1,0-1.9,0-2.9,0c0.4,3.3,0.8,6.7,1.2,10
						c0.2,1.5,2.5,2.2,2.8,0.4c1-4.5-0.6-8.9,0.2-13.4c-1,0-1.8,0-2.8,0c1,3,1.6,6,2.2,9.1c0.3,1.8,2.7,1.2,2.8-0.4
						c0.4-4.2,0.9-8.2,2.4-12.1c-1-0.1-1.9-0.3-2.8-0.4c-0.1,3.1-0.5,6.1-1.2,9.1c1,0.1,1.9,0.3,2.8,0.4c-0.2-3.6-0.6-7.1-1.5-10.7
						c-0.4-1.6-3-1.3-2.8,0.4c0.6,5.3,0.5,10.5-0.3,15.8c1,0.1,1.9,0.3,2.8,0.4c-0.3-5.4-0.8-10.7-1.5-16.1c-1,0.1-1.9,0.3-2.8,0.4
						c0.7,4.1,1.6,8,2.9,11.9c0.3,0.9,1.4,1.5,2.1,0.9c2.5-1.8,3-8.2,2.2-11.1c-1.3-4.9-7.6-5.8-11.5-7.1c-1.3-0.4-2.3,1.1-1.6,2.2
						c1.2,2,2.9,3.3,3.8,5.5c1.1,2.7,1.7,6,1.7,8.9c0.1,5.7-1.2,11.6-1.7,17.2c1,0,1.9,0,2.9,0c-0.7-10.5-1.6-20.9-4-31.1
						c-0.5,0.6-1,1.3-1.4,1.9c3.7-0.1,7.4-0.2,11.1-0.3c0.9,0,1.7-1,1.4-1.9c0-0.1-0.1-0.2-0.1-0.3c-0.3-0.7-0.7-1-1.4-1.1
						c-0.1,0-0.3,0-0.4,0c-0.5-0.1-1,0.3-1.3,0.7c-1.7,2.7-0.8,6.4-0.6,9.4c0.4,4.8-1.7,8.4-3.1,12.8c-0.5,1.5-3.5,13.9-5.2,13.1
						c-1.1-0.5,0.4-11.9,0.3-13.2c-1,0.1-1.9,0.3-2.8,0.4c0.5,3,0.8,6,0.8,9.1c0,2.4-1,5.8-0.5,8c0.5,2.3,2.1,2.3,4.2,2.9
						c0.8,0.2,1.6-0.3,1.7-1c0.5-1.3,0.3-1.6-0.1-2.9c-0.4-1.4-1.3-2.6-1.6-4.2c-0.3-1.5-0.3-3.2-0.4-4.7c-0.5-6.3-1-12.6-1.5-19
						c-0.1-1.9-2.8-1.9-2.9,0c-0.2,2.8,0.1,5.3,0.8,8c0.5,1.9,3.1,1.1,2.8-0.8c-0.4-2.3-0.4-4.2-0.1-6.5c-1,0-1.9,0-2.9,0
						c-0.1,4,0,7.7,0.9,11.6c0.4,1.7,2.8,1.3,2.8-0.4c0.3-6.7-1.4-13.6-2.3-20.2c-1,0.3-1.8,0.5-2.8,0.8c0.5,3,1.1,6,1.6,9
						c0.3,1.6,3,1.3,2.8-0.4c-0.3-2.8-0.5-5.5-0.8-8.3c-0.2-1.9-3-1.9-2.9,0c0.2,2.4,0.4,4.7,0.9,7c0.3,1.6,3,1.3,2.8-0.4
						c-0.4-4.2-1.2-8.2-2.7-12.2c-0.5,0.6-1,1.3-1.4,1.9c5.2,0.3,11.8,1.8,16.7-0.7c-0.7-0.7-1.4-1.4-2-2.1c-1.9,2.9-0.8,8.3-1,11.8
						c-0.3,6-0.5,12.3-1.6,18.2c-1.6,8.6,9.7,3.1,14.5,5.1c0.1-1,0.3-2,0.4-2.9c-1.7,0-3.6,0-5.3,0c0,1,0,2,0,3
						c4.3-0.3,8.1,0.4,11.9,2.1c0.1-1,0.3-2,0.4-2.9c-0.5,0-0.9-0.1-1.4-0.1c-1.5-0.1-2,2.1-0.8,2.8c0.7,0.5,1.3,1,1.9,1.4
						c0.2,0.7,0.4,1.4,0.5,2.1c-0.1,0.1-0.2,0.2-0.3,0.3c-0.6-0.6-1.2-1.2-1.7-1.8c-0.1,0.1-0.2,0.2-0.4,0.3
						C137.8,568.5,138.6,571.4,140.3,570.8L140.3,570.8z"/>
				</g>
			</g>
			<g>
				<g>
					<path class="st0" d="M138.2,569.3c1,0.1,1.9,0.3,2.9,0.6c-0.2-0.6-0.5-1.1-0.7-1.7c-0.4,0.5-0.8,0.9-1.2,1.4
						c0.7,0.7,1.4,1.4,2,2.1c0.7-0.8,1.5-1.5,2.3-2.2c-0.8-0.5-1.6-1-2.4-1.5c-1.2,2.9-10.9,2.5-13.5,2.4c-4.5-0.1-8.7-0.8-13.1-1.7
						c-1.6-0.3-2.6,1.8-1.2,2.7c4.4,2.7,9.3-2.7,3.6-5.8c-1-0.5-2.6,0.4-2.1,1.7c1.5,3.9,8.2,3.4,11.6,3.8c3.5,0.4,10,2.3,12.5-1.2
						c0.6-0.8-0.1-1.9-0.9-2.2c-4.5-1.5-8.9-2.9-13.4-4c-0.1,1-0.3,2-0.4,2.9c3.6,0.1,6.7,0.8,10,2.2c0.9,0.4,1.8-0.6,1.8-1.4
						c0-3.2-4.4-3-6.6-3.2c-1.7-0.1-1.8,2.4-0.4,2.9c2.1,0.9,4.3,0.3,6.5,0.9c0.1-1,0.3-2,0.4-2.9c-4.6-0.4-9.3-2.1-13.9-2.2
						c-1.5,0-2,0-3,1.3c-0.3,0.4-0.3,1.1,0,1.5c1.5,2.3,5,3.5,7.4,2.1c0.5-0.3,0.9-1.1,0.7-1.7c-0.8-2.4-5.2-4.9-7-2.1
						c-2.2,3.5,2.9,5.2,5.3,4.9c1.3-0.2,1.4-2.1,0.4-2.7c-1.8-1.1-6-3-7.4-0.3c-1.1,2.3,1.1,3.7,3,3.7c1.4,0,1.7-1.6,1.1-2.6
						c-1.6-2.1-4.3-2.5-5.4-5.2c-1.4-3.4-1-7.9-0.5-11.5c0.2-1.5-2-2-2.7-0.8c-1.6,3.2-2.4,6.5-3.2,10.1c1,0.1,1.9,0.3,2.8,0.4
						c-0.4-3.7,0.5-7.1,0.9-10.7c0.4-3.6-0.2-7.2,0-10.8c0.2-2.6,0.8-4,3.5-4.9c3.1-1.2,3.7,0.2,3.7,3.1c0,2.5-0.3,3.1-2.8,3.5
						c-1.7,1-2.6,0.7-2.8-1c-0.3-0.9-0.7-1.8-1-2.7c-0.5-1.4-2.2-1.4-2.8,0c-1.5,3.8-2.2,7.5-2.6,11.5c0.9-0.3,1.8-0.5,2.7-0.8
						c-2.4-4-2.4-8.3-2.3-12.8c0.1-1.9-2.8-1.9-2.9,0c-0.2,5.1,0,9.9,2.7,14.3c0.8,1.3,2.6,0.7,2.7-0.8c0.3-3.8,1.2-7.2,2.5-10.7
						c-1,0-1.8,0-2.8,0c1.4,3.7,3.7,11.9,9.1,8c2.4-1.7,2.6-5,3.1-7.7c0.3-1.8,1.5-5.1-0.1-6.7c-2.5-2.6-11,0.1-12.5,2.9
						c-1.6,3-0.1,8.6-0.2,11.9c-0.1,4.8-1.6,9.5-1.1,14.3c0.2,1.6,2.5,2.2,2.8,0.4c0.7-3.3,1.5-6.3,2.9-9.4
						c-0.9-0.3-1.8-0.5-2.7-0.8c-0.5,4.1-0.8,8.8,0.7,12.7c1.3,3.5,4,3.5,6.1,6.1c0.4-0.9,0.7-1.7,1.1-2.6c1,0.7,1.9,1.4,2.9,2.2
						c0.1-0.9,0.2-1.8,0.4-2.7c-0.1,0.3-0.3,0.6-0.4,0.9c0.2-0.6,0.5-1.1,0.7-1.7c-1.9,1.2-2.2,0.5-0.2,1.3c1.4,0.5,3.1,0.5,4.5,0.8
						c2.2,0.3,4.5,0.6,6.7,0.8c1.6,0.2,1.9-2.5,0.4-2.9c-2.1-0.6-4.4-0.1-6.5-0.9c-0.1,1-0.3,2-0.4,2.9c1.3,0.3,2.4,0.4,3.7,0.2
						c0.6-0.5,1.3-1,1.8-1.4c-3.6-1.5-6.9-2.2-10.8-2.3c-1.6,0-2,2.6-0.4,2.9c4.6,1.1,9,2.4,13.4,4c-0.3-0.7-0.6-1.5-0.9-2.2
						c-1.2,1.6-18.4-0.6-18.9-1.9c-0.7,0.6-1.5,1.1-2.1,1.7c-0.2,0.2-0.4,0.4-0.7,0.6c-0.4,0.9-0.8,1.8-1.2,2.7
						c6.2,1.4,12.5,2.2,18.9,1.7c3.8-0.3,9.6-0.4,11.3-4.5c0.6-1.6-1.5-2.2-2.4-1.5c-0.9,0.6-1.6,1.3-2.3,2.2
						c-1.4,1.4,0.7,3.3,2,2.1c0.9-0.7,1.7-1.5,1.9-2.7c0.1-0.7-0.1-1.3-0.7-1.7c-1.1-0.7-2.4-0.7-3.7-0.9
						C137.1,566.1,136.3,569,138.2,569.3L138.2,569.3z"/>
				</g>
			</g>
			<g>
				<g>
					<path class="st0" d="M120.6,569.3c-0.9,1.1-3,0.1-4.2,0.1c-1.6-0.1-1.9,2.6-0.4,2.9c2.4,0.6,5.5,1.4,7.9,0.7
						c1.7-0.6,1.1-3.4-0.8-2.9c-1.8,0.6-4.5-0.3-6.3-0.7c-0.1,1-0.3,2-0.4,2.9c2.2,0.1,4.5,1.1,6.2-1
						C123.9,570,121.9,567.8,120.6,569.3L120.6,569.3z"/>
				</g>
			</g>
		</g>
		<g>
			<g>
				<g>
					<path d="M124.5,561.4c4.3-1,9.4-0.9,13.7,0.5c1.9,0.6,4.9,2,5.6,4.1c1.5,4.4-2.4,5.1-5,5.8c-8,2.3-16.6,2-24.6,0.3
						c-0.8-0.2-1.1,1-0.3,1.2c6.6,1.4,13.2,1.8,19.9,0.8c3.1-0.5,10.2-1,11.6-4.7c1.2-3-1.8-6.8-4.4-7.9c-4.8-2.1-11.8-2.2-16.8-1.1
						C123.5,560.4,123.8,561.5,124.5,561.4L124.5,561.4z"/>
				</g>
			</g>
			<g>
				<g>
					<path d="M113.6,572.5c-0.7,0.6-1.5,0.7-2.4,0.3c-1.2,0.3-2.1-0.1-2.5-1.3c-1.4-1.7-0.8-3.9-0.8-5.9c0-4.2-0.1-8.3-0.2-12.5
						c-0.3-8.3-0.9-16.6-1.7-24.9c-0.1-0.8-1.3-0.8-1.2,0c1.4,13.7,2,27.4,1.9,41.2c0,3.5-0.5,4.1,2.9,4.4c1.4,0.1,5.5,1.2,5.2-1.4
						C114.7,571.7,113.5,571.7,113.6,572.5L113.6,572.5z"/>
				</g>
			</g>
			<g>
				<g>
					<path d="M124.4,560c-1.2,0.1-2.4,0.1-3.7,0.2c-0.8,0-0.8,1.2,0,1.2c1.2-0.1,2.4-0.1,3.7-0.2C125.2,561.1,125.2,559.9,124.4,560
						L124.4,560z"/>
				</g>
			</g>
			<g>
				<g>
					<path d="M122.5,560.9c1.8-10.9,2.7-21.9,2.5-33c0-0.8-1.2-0.8-1.2,0c0.1,11-0.7,21.8-2.5,32.7
						C121.2,561.3,122.3,561.6,122.5,560.9L122.5,560.9z"/>
				</g>
			</g>
			<g>
				<g>
					<path d="M124.8,527.7c-3.1-0.2-6.1,0.3-9.2,0.4c-3.2,0.1-6.4-0.2-9.6-0.5c-0.8-0.1-0.8,1.1,0,1.2c3.2,0.3,6.4,0.6,9.6,0.5
						c3.1-0.1,6.1-0.7,9.2-0.4C125.5,529,125.5,527.8,124.8,527.7L124.8,527.7z"/>
				</g>
			</g>
		</g>
		<ellipse class="st0" cx="127" cy="567.3" rx="4.7" ry="2.6"/>
		<ellipse class="st0" cx="109" cy="548.7" rx="1.3" ry="10.5"/>
		<ellipse class="st0" cx="106.8" cy="533.8" rx="0.3" ry="5.1"/>
	</g>
</g>
</svg>
