<?xml version="1.0" encoding="utf-8"?>
<!-- Generator: Adobe Illustrator 21.0.2, SVG Export Plug-In . SVG Version: 6.00 Build 0)  -->
<svg version="1.1" id="Layer_1" xmlns="http://www.w3.org/2000/svg" xmlns:xlink="http://www.w3.org/1999/xlink" x="0px" y="0px"
	 viewBox="0 0 200 600" style="enable-background:new 0 0 200 600;" xml:space="preserve">
<style type="text/css">
	.st0{fill:#231F20;}
</style>
<g>
	<g>
		<g>
			<g>
				<g>
					<g>
						<path class="st0" d="M102.4,146.2c0,0-0.3-1.2-0.3-1.2c0.1,0.9,0.1,1.1,0.1,0.4c0,0.3-0.1,0.6-0.1,0.9
							c-0.2,0.6-0.5,1.1-0.9,1.6c-1.1,0.4-2.1,0.9-3.2,1.3c-2,0.3-3.8-1.5-4.1-3.3c-0.1-0.4-0.1-0.9,0-1.3c-0.2,0.5-0.1,0.5,0.1,0
							c0.2-0.5,0.2-0.5,0-0.1c-0.3,0.4-0.2,0.4,0.1-0.1c0.8-0.7,1.3-1.1,2.4-1.3c0.9-0.2,1.8,0,2.7,0.5c3.4,3.7,3.1,6.6-1.1,8.8
							c1.4-0.2,2.9-1.6,3.6-2.8c0.8-1.3,1.1-3.2,0.6-4.6c-1.1-3.3-4.1-4.8-7.4-4.2c-3.1,0.5-5.3,3.8-5.3,6.8
							c-0.1,2.7,1.5,5.1,3.8,6.4c2.4,1.4,5.8,1.2,8-0.4c2-1.4,3.4-3.4,4.1-5.8c1.6-5.6-2.6-11.4-8.6-10.6c-3,0.4-5.4,2.7-6.3,5.5
							c-0.7,2.1-0.4,4.4,0.3,6.5c1,3,4.2,5.2,7.4,4.2C101.2,152.6,103.5,149.4,102.4,146.2L102.4,146.2z"/>
					</g>
				</g>
				<g>
					<g>
						<path class="st0" d="M86.3,195.7c-0.1,0.1-0.2,0.3-0.3,0.4c1.9-0.5,3.9-1,5.8-1.5c-0.2,0-0.4-0.1-0.6-0.1
							c1.2,0.9,2.4,1.8,3.6,2.8c-1.3-2.7-0.9-7.3-1.4-10.2c-0.6-3.5-1.8-6.7-3.6-9.8c-3.1-5.2-11-2.9-11.2,3
							c-0.1,4.7-0.1,9.5,0,14.2c3.7-1,7.5-2,11.2-3c-2.3-3.8-2.4-8.1-2.4-12.4c-0.1-5.6-8.5-8.6-11.2-3c-1.7,3.6-2.6,6.9-3,10.9
							c4,0,8,0,12,0c-0.4-4.4-0.6-8.7-0.7-13.1c-0.1-7.2-9.4-7.6-11.8-1.6c-0.4,1-0.8,2-1.2,3c3.9,0,7.7,0,11.6,0
							c-0.3-1.1-0.6-2.3-0.9-3.4c-1.7-6.6-11.7-5.1-11.8,1.6c-0.2,15.3,1.7,30.6,5.4,45.5c1.6,6.2,9.6,5.2,11.6,0
							c2.2-5.8,4.1-11.7,5.7-17.7c-3.9-0.5-7.9-1.1-11.8-1.6c-0.5,6.9-1.1,13.7-1.6,20.6c-0.4,5-2,12.1,4.2,14.1
							c5.8,1.9,8.9-3.2,10.2-7.8c1.9-6.7,3.5-13.5,5.3-20.2c-3.9-0.5-7.9-1.1-11.8-1.6c0.9,7.3,1.1,14.5,0.8,21.8c4,0,8,0,12,0
							c-0.1-7,1-13.7,3.2-20.4c-3.7,0.5-7.3,1-11,1.4c1.7,2.3,0.7,8.8,0.8,11.5c0.1,4.2,0.1,8.4,0,12.7c-0.1,7.8,11.6,7.7,12,0
							c0.2-3.9,0.6-7.8,1.4-11.7c0.3-1.7,0.7-3.5,1.2-5.2c0.3-1.3,1.8-3.6,0.4-2.6c-2.7-0.7-5.5-1.4-8.2-2.2
							c1.6,2.5-0.4,8.9-0.7,11.8c-0.5,4.6-1.1,9.2-1.6,13.9c-0.8,6.7,10.5,8.2,11.8,1.6c1.8-9.1,4.6-17.8,8.6-26.1
							c-3.7-1-7.5-2-11.2-3c0.3,8.6-1.6,16.8-3.6,25.2c3.9,1.1,7.7,2.1,11.6,3.2c1.3-9,3.6-17.7,6.9-26.2c-3.9-0.5-7.9-1.1-11.8-1.6
							c-0.1,9.3-3.5,18.1-3.6,27.4c0,6.7,10.1,8.2,11.8,1.6c2.3-8.7,4.1-17.5,5.5-26.3c-3.9-0.5-7.9-1.1-11.8-1.6
							c0,3.3,0.1,6.6,0.1,9.9c0.1,7.9,11.1,7.5,12,0c0.9-7.7,1.3-15.5,1.3-23.3c-4,0-8,0-12,0c0.1,5.9,0.2,11.7,0.3,17.6
							c0.1,6.6,10.2,8.3,11.8,1.6c1.6-6.8,2.3-13.6,1.8-20.6c-4,0-8,0-12,0c0.6,7.1,0.6,14.1-0.1,21.1c-0.8,7.7,11.2,7.6,12,0
							c0.4-3.6,0.6-7.3,0.6-10.9c0.1-7.9-11.3-7.5-12,0c-1,10.6-3.1,21.1-6.1,31.3c3.9,0.5,7.9,1.1,11.8,1.6
							c-0.6-5.6,0.1-10.7,2.2-15.9c-3.9-0.5-7.9-1.1-11.8-1.6c-0.4,8.7-1.2,17.3-2.3,25.9c4,0,8,0,12,0c0.1-2.8,0.4-5.4,1-8.1
							c-3.9,0-7.7,0-11.6,0c0.6,4.3,0.6,8.7,0.2,13c4,0,8,0,12,0c0.2-2.8,0.6-5.4,1.2-8.2c-3.9-0.5-7.9-1.1-11.8-1.6
							c0.4,4.3,0.5,8.6,0.4,12.9c-0.3,7.7,11.7,7.7,12,0c0.1-3.8,0.3-7.6,0.4-11.3c-3.9,0.5-7.9,1.1-11.8,1.6
							c1.1,6.3,2.5,12.5,3.9,18.7c2.5-2.5,4.9-4.9,7.4-7.4c-7.7-1.8-15.4,0.9-23.2,0.3c-8.8-0.7-17.5-0.8-26.2-0.4
							c1.9,2.5,3.9,5.1,5.8,7.6c4.5-15.1,8.5-30.6,4.7-46.3c-1.5-6.1-9.7-5.2-11.6,0c-2.8,7.8,0,15.6-1.6,23.5
							c3.9,0.5,7.9,1.1,11.8,1.6c0.6-12.1,4-23.1-1-34.7c-2.3-5.4-11.8-2.7-11.2,3c0.8,7.1,2.1,14,4.4,20.8
							c1.8,5.5,7.7,14.2,5.6,20.2c0.9-1.2,1.8-2.4,2.8-3.6c-0.2,0.2-0.5,0.3-0.7,0.5c2,0,4,0,6.1,0c-0.3-0.2-0.6-0.3-0.9-0.5
							c0.9,1.2,1.8,2.4,2.8,3.6c-0.3-0.8-0.1-5.1,1.2-5.3c-1.5-0.2-3.1-0.4-4.6-0.6c-0.6-1-1.2-2-1.8-3c0.1,0.9-0.1,1.7-0.4,2.5
							c-0.6,2-1.9,1.8,0.7,2.9c2.7,1.1,1.7,0,2.3-2c0.4-1.2,1-2.3,1.8-3.4c0.3-0.4,0.6-0.8,1-1.2c0.8-0.5,0.7-0.7-0.2-0.7
							c-0.9-1.4,0,2.2,0.1,2.5c0.2,0.9,0.1,1.9,0.1,2.9c0,0.7,0,1.5,0,2.2c-0.1,1.1,0,1,0.2-0.3c1.2-0.9,2.4-1.8,3.6-2.8
							c1.9,0.8,2.5,0.5,1.9-0.7c0-0.3,0-0.5,0-0.8c0.8-1.6,0.9-2.1-0.6-2.6c-2.5-0.9-0.7,2.4-0.6,4.2c0.1,1.3-1.3,5.2,0.5,4.2
							c1.5-0.2,3.1-0.4,4.6-0.6c-0.3-0.1-0.5-0.2-0.8-0.3c1.2,0.9,2.4,1.8,3.6,2.8c-1.3-2.2,1.3-4.5-0.8-5.5c-1.9-0.9-0.9,0.6-1,2.2
							c-0.1,1.5-0.5,3.1-1.2,4.5c3.5,0,6.9,0,10.4,0c-0.7-1.3-1.4-3.3,0-4.4c-1.4,0.6-2.8,1.2-4.2,1.8c-2.9-3.3-4-3.3-3.2-0.1
							c0.1,1.2-0.1,2.3-0.6,3.4c0.9-1.2,1.8-2.4,2.8-3.6c-0.3,0.2-0.6,0.4-0.9,0.6c1.5-0.2,3.1-0.4,4.6-0.6
							c-0.3-0.1-0.5-0.2-0.8-0.3c1.2,0.9,2.4,1.8,3.6,2.8c-0.2-0.3-0.2-0.5-0.2-0.8c0-2.4-2-2.3-6.1,0.3c-0.2-1.5-0.4-3.1-0.6-4.6
							c-0.1,0.3-0.1,0.6-0.2,0.9c-1.2,7.6,10.3,10.8,11.6,3.2c1.6-9.7-10.7-14.2-15.5-5.4c-3.8,7,2.4,21.2,11,13.8
							c5.8-4.9,4.5-21.3-4.7-21.7c-10.6-0.5-10.5,14.6-7.1,20.8c2,3.7,8.4,4.1,10.4,0c3.5-7.6,5.4-22.8-6.4-24
							c-11-1.1-15.3,11.9-12.4,20.6c1.5,4.6,6.7,7.1,11,4.2c4.3-3,4.8-10.1,4.6-14.9c-0.3-4.9-1.5-10.9-6-13.7
							c-4.2-2.6-9.3-1-12.6,2.3c-6.1,6.2-5.9,18.6,2.1,23.2c4.1,2.4,9.6,0.7,11.2-3.8c1.6-4.4,0.9-10.9-0.7-15.2
							c-1.6-4.4-5-8.5-10-8.7c-5.5-0.2-9.8,4.2-12.4,8.6c-4.3,7.1-5.9,24,7.2,21.9c9.1-1.5,17.5-21.2,5.7-24.5
							c-11-3.1-18.7,18.9-9.1,24.1c1.7,0.9,4.3,1.3,6.1,0c7.1-5.2,3.9-15.4,1.1-22.2c-3.4-8.5-6.1-16.9-7.2-26.1
							c-3.7,1-7.5,2-11.2,3c3.7,8.8-0.3,19.6-0.7,28.7c-0.3,6.7,10.4,8.3,11.8,1.6c1.6-7.7-1.1-16.1,1.6-23.5c-3.9,0-7.7,0-11.6,0
							c3.3,13.5-0.8,27-4.7,39.9c-1.1,3.6,1.9,7.8,5.8,7.6c8.1-0.4,16.2-0.4,24.3,0.2c3.8,0.3,7.4,0.6,11.3,0.1
							c3.6-0.4,7.2-1.5,10.7-0.7c4.5,1.1,8.5-2.8,7.4-7.4c-1.5-6.2-2.8-12.4-3.9-18.7c-1.3-6.9-11.5-4.9-11.8,1.6
							c-0.1,3.8-0.3,7.6-0.4,11.3c4,0,8,0,12,0c0.1-4.3,0-8.6-0.4-12.9c-0.6-6.3-10.1-8.6-11.8-1.6c-0.9,3.7-1.4,7.5-1.6,11.4
							c-0.4,7.8,11.4,7.6,12,0c0.5-5.5,0.1-10.8-0.6-16.2c-0.8-6-10.3-5.5-11.6,0c-0.8,3.7-1.3,7.5-1.5,11.3c-0.3,7.9,11.1,7.4,12,0
							c1.1-8.6,1.8-17.2,2.3-25.9c0.4-7.2-9.5-7.5-11.8-1.6c-2.4,6.1-3.3,12.6-2.6,19.1c0.7,6.4,9.8,8.5,11.8,1.6
							c3.2-11.3,5.3-22.8,6.5-34.5c-4,0-8,0-12,0c0,3.7-0.2,7.3-0.6,10.9c4,0,8,0,12,0c0.7-7,0.7-14,0.1-21.1
							c-0.7-7.6-12.5-7.8-12,0c0.4,5.9,0,11.6-1.4,17.4c3.9,0.5,7.9,1.1,11.8,1.6c-0.1-5.9-0.2-11.7-0.3-17.6
							c-0.1-7.7-12.1-7.7-12,0c0.1,7.8-0.4,15.6-1.3,23.3c4,0,8,0,12,0c0-3.3-0.1-6.6-0.1-9.9c-0.1-6.5-10.7-8.5-11.8-1.6
							c-1.4,8.9-3.2,17.7-5.5,26.3c3.9,0.5,7.9,1.1,11.8,1.6c0.1-9.3,3.5-18.1,3.6-27.4c0.1-7.2-9.5-7.6-11.8-1.6
							c-3.3,8.5-5.6,17.2-6.9,26.2c-1.1,7.4,9.7,10.9,11.6,3.2c2.3-9.3,4.4-18.7,4.1-28.4c-0.2-5.6-8.4-8.7-11.2-3
							c-4.5,9.2-7.8,18.9-9.8,29c3.9,0.5,7.9,1.1,11.8,1.6c0.7-5.8,1.4-11.7,2.1-17.5c0.6-5,1.5-9.8-1.3-14.2
							c-1.6-2.6-5.5-4.1-8.2-2.2c-4.3,3-5.4,7.5-6.5,12.4c-1.3,5.7-2,11.6-2.4,17.5c4,0,8,0,12,0c0.1-5.5,0-11-0.1-16.6
							c-0.1-4.5,0.4-9.8-2.3-13.7c-3-4.2-9.3-3.7-11,1.4c-2.5,7.6-3.7,15.5-3.6,23.6c0.1,7.8,11.6,7.7,12,0
							c0.4-7.3,0.1-14.6-0.8-21.8c-0.8-6.3-9.9-8.7-11.8-1.6c-1,3.7-1.9,7.4-2.9,11c-0.6,2.1-1.1,8.9-2.8,10.4
							c1.9-0.5,3.9-1,5.8-1.5c-0.3-0.1-0.6-0.1-0.9-0.2c1.2,0.9,2.4,1.8,3.6,2.8c0.5,2.2,0.7,2.1,0.6-0.4c0.1-1.3,0.2-2.6,0.3-3.9
							c0.2-2.3,0.4-4.6,0.5-6.9c0.4-4.9,0.8-9.8,1.2-14.7c0.5-6.8-10.1-8-11.8-1.6c-1.6,6-3.5,11.9-5.7,17.7c3.9,0,7.7,0,11.6,0
							c-3.5-13.9-5.2-28-5-42.3c-3.9,0.5-7.9,1.1-11.8,1.6c0.3,1.1,0.6,2.3,0.9,3.4c1.6,6.2,9.5,5.1,11.6,0c0.4-1,0.8-2,1.2-3
							c-3.9-0.5-7.9-1.1-11.8-1.6c0,4.4,0.3,8.7,0.7,13.1c0.7,7.7,11.3,7.7,12,0c0.2-1.7,0.6-3.3,1.4-4.9c-3.7-1-7.5-2-11.2-3
							c0.1,6.5,0.6,12.8,4,18.5c3,5,11.3,3,11.2-3c-0.1-4.7-0.1-9.5,0-14.2c-3.7,1-7.5,2-11.2,3c3.2,5.5,2.1,11.7,3.9,17.6
							c1.5,4.9,7.6,7.7,11.4,3.4C99.9,198.5,91.5,189.9,86.3,195.7L86.3,195.7z"/>
					</g>
				</g>
				<g>
					<g>
						<path class="st0" d="M93.8,246.2c-2.9-0.4-5.6-0.1-7.7,2.2c-1.7,1.8-2.3,4.2-3,6.5c-0.8,2.5,0.5,5.5,2.8,6.8
							c0.3,0.2,0.7,0.4,1,0.6c1-3.7,2-7.5,3-11.2c-1-0.1-2-0.1-3,0c-2.4,0.3-4.5,1.3-5.5,3.7c-0.8,2.1-0.6,5,1.2,6.6
							c1.9,1.7,3.8,2.8,6.2,3.6c1.1-3.9,2.1-7.7,3.2-11.6c-1.5-0.4-3.1-0.7-4.7-0.7c-5.8-0.1-8.3,8.4-3,11.2c1.8,0.9,3.6,1.7,5.5,2
							c3.2,0.5,6.4-0.8,7.4-4.2c0.8-2.9-1-6.8-4.2-7.4c-2.9-0.5-6.4-1.7-9,0.2c-1.6,1.2-3.2,3-3,5.2c0.3,2.5,1.1,4.5,3.5,5.8
							c1.6,0.9,3.6,1.3,5.3,1.8c0.5-3.9,1.1-7.9,1.6-11.8c-1.3,0.1-1.6,0.1-2.8-0.4c-6.3-2.2-10.8,8.1-4.6,11
							c1.6,0.7,3.1,1.4,4.8,1.6c0-3.9,0-7.7,0-11.6c-0.9,0.3-1.8,0.7-2.6,1c-2.8,1-4.8,3.5-4.3,6.6c0.4,2.7,2.9,5.6,5.9,5.2
							c1.4-0.2,2.8-0.3,4.2-0.5c3-0.4,5.5-2,5.9-5.2c0.3-2.7-1.3-6.1-4.3-6.6c-2.1-0.3-4.2-0.6-6.2-0.9c-3.2-0.5-6.4,0.8-7.4,4.2
							c-0.8,2.8,1,6.9,4.2,7.4c2.1,0.3,4.2,0.6,6.2,0.9c0.5-3.9,1.1-7.9,1.6-11.8c-1.4,0.2-2.8,0.3-4.2,0.5
							c0.5,3.9,1.1,7.9,1.6,11.8c0.9-0.3,1.8-0.7,2.6-1c2.5-0.9,4.4-3,4.4-5.8c0-2.4-1.8-5.4-4.4-5.8c-0.5-0.1-1.9-0.4-1.9-0.4
							c-1.5,3.7-3.1,7.3-4.6,11c1.9,0.7,4,0.9,6,0.8c6.6-0.5,8.3-9.7,1.6-11.8c-0.6-0.2-1.2-0.4-1.9-0.6c-1.2-0.4-1.6-1,0.2,0.6
							c0.6,1.4,1.2,2.8,1.8,4.2c0-0.1,0-0.2,0-0.3c-1,1.7-2,3.5-3,5.2c0.1-0.1,0.2-0.2,0.3-0.2c-1,0.3-2,0.5-3,0.8
							c-0.9,0,0.3,0.1,0.7,0.1c0.6,0.1,1.2,0.2,1.8,0.3c1.1-3.9,2.1-7.7,3.2-11.6c-1.1-0.2-1.9-0.3-2.7-0.7c-1,3.7-2,7.5-3,11.2
							c1.1,0,0.4-0.1,1.5,0.3c3.1,0.9,6.5-1.1,7.4-4.2c0.9-3.3-1.1-6.3-4.2-7.4c0.7,0.2-1.4-0.9-0.9-0.5c-1.4,3.4-2.8,6.8-4.2,10.2
							c1-0.1,2-0.1,3,0c6.1,0.5,7.9-8.3,3-11.2c-0.3-0.2-0.7-0.4-1-0.6c0.9,2.3,1.8,4.5,2.8,6.8c0.2-0.5,0.4-1.1,0.5-1.6
							c0.1-1-0.1,0.9-1.9,1.3c-1.1,0-2.1,0-3.2,0c0.2,0,0.3,0,0.5,0.1c3.2,0.4,6.4-0.8,7.4-4.2C98.7,250.7,97,246.6,93.8,246.2
							L93.8,246.2z"/>
					</g>
				</g>
			</g>
			<g>
				<g>
					<path class="st0" d="M99.7,189.1c-0.5-4.1-0.4-7.9,1.2-11.7c-3.7-0.5-7.3-1-11-1.4c3.2,7.9-0.2,16.6,2.5,24.8
						c2.2,6.6,11.1,5.1,11.8-1.6c0.7-7,1.4-14.1,2-21.1c-4,0-8,0-12,0c0.3,7.5,0.2,14.9-0.4,22.3c3.9-0.5,7.9-1.1,11.8-1.6
						c-2.2-6.6-2.6-13-1-19.8c-3.9,0-7.7,0-11.6,0c1,6.9,1.1,13.9,0.7,20.9c-0.4,6.6,10.8,8.3,11.8,1.6c0.6-3.7,1.1-7.4,1.7-11.1
						c0.3-2.2,0.1-7,1.5-8.8c-3.3-0.9-6.7-1.8-10-2.6c1.2,4.8,1.5,9.5,1.1,14.5c4,0,8,0,12,0c0-3.2,0.1-6.5,0.4-9.7
						c-3.9,0.5-7.9,1.1-11.8,1.6c0.6,2.6,0.5,4.8-0.1,7.3c3.3-0.9,6.7-1.8,10-2.6c-4.7-5.4-0.5-12.3-5-17.4
						c-3.5-3.9-10.1-5.6-11.9-10.9c-1-2.9-1.4-5.6-4.3-7.3c-2.7-1.6-6.2-1.4-9,0c-6.3,3.2-6.3,10.3-4.5,16.2c3.7-1.5,7.3-3.1,11-4.6
						c-1.1-1.7-1.6-2.8-1.6-4.9c-0.2-7.7-11.7-7.7-12,0c-0.1,4-0.3,8.1-0.4,12.1c3.9-0.5,7.9-1.1,11.8-1.6c-1.4-3.3-2.2-6.4-2.3-10
						c-3.7,1-7.5,2-11.2,3c1.1,1.6,1.6,2.6,1.7,4.5c3.7-1,7.5-2,11.2-3c-1.1-2.3-1.7-4.5-1.8-7c-0.5-7.6-11.9-7.8-12,0
						c0,0.7,0,1.4,0,2.2c3.9-0.5,7.9-1.1,11.8-1.6c-0.5-2.6-1.2-5-2.1-7.5c-2.7-7.2-13.3-4.5-11.6,3.2c0.3,1.2,0.5,2.4,0.8,3.6
						c1.3,5.7,10.3,5.7,11.6,0c1.2-5.6,3.5-10.5,7-15.1c4.1-5.4-5-12.5-9.4-7.3c-1.5,1.8-3.1,3.7-4.6,5.5c3.1,2.4,6.3,4.8,9.4,7.3
						c1.5-2.1,2.9-4.2,4.4-6.4c0.7-1.1,1.5-2.1,2.2-3.2c-1.1,1.1-1,1.6,0.3,1.5c1.2,1,5.3,0.9,6.9,1.2c1.5,0.3,4.7,0.3,5.9,1
						c-0.9-1.2-1.8-2.4-2.8-3.6c-0.6-1.7,0.3-1.5-1.2-0.3c-1.1,0.8-2,2.1-3,3c-1.9,1.8-3.9,3.4-6.1,4.9c-1.1,0.7-2.6,1.7-3.6,2.2
						c-0.1,0.3-0.2,0.6-0.4,0.9c0.4,0,0.4-0.1-0.1-0.2c0.5-0.5-1.8,0.1-1.1-0.2c1.5-0.2,3.1-0.4,4.6-0.6c-0.4-0.1-0.9-0.1-1.3-0.2
						c1.2,0.9,2.4,1.8,3.6,2.8c-0.4-0.8-0.4-1.6-0.1-2.4c-4.9-2.1-7.2-1.8-6.9,1.1c-0.8,1.9-0.2,5.4-0.4,7.5c-0.5,5.1-1.5,10-2.7,15
						c3.9,0,7.7,0,11.6,0c-2.2-6.2-2.5-12.7,0.2-18.9c-3.1,0.4-6.3,0.8-9.4,1.2c2.9,2.5,2.7,9.4,3,12.9c0.5,5.2,0.6,10.5,0.4,15.7
						c4,0,8,0,12,0c-0.2-9.8,1.8-19.2,6.3-28c-3.7-0.5-7.3-1-11-1.4c4.4,13.1,0.9,27.2,2.6,40.7c0.9,7.5,11.7,7.9,12,0
						c0.4-12.5-0.2-25.6,2.6-37.9c-3.9-0.5-7.9-1.1-11.8-1.6c-0.5,13.3-0.9,26.7-1.4,40c-0.3,7.9,11.1,7.4,12,0
						c1-7.9,2.1-15.7,4.4-23.4c-3.9-0.5-7.9-1.1-11.8-1.6c-0.6,11-1.2,22.1-1.8,33.1c-0.4,7.9,11,7.4,12,0c1-7.9,2.1-15.7,3.1-23.6
						c-4,0-8,0-12,0c0.6,6.3,0.9,12.6,0.9,18.9c0,7.9,11.1,7.5,12,0c1-8.4,1.9-16.8,2.9-25.1c-4,0-8,0-12,0c-0.3,9-0.7,17.9-1,26.9
						c-0.3,7.9,11.2,7.5,12,0c0.8-7.7,1.6-15.3,2.4-23c-4,0-8,0-12,0c0.5,5.6,0.9,11.2,1.4,16.8c0.6,7.6,12.1,7.8,12,0
						c-0.1-6.1,0.3-12.2,1.2-18.2c-3.9,0-7.7,0-11.6,0c2.4,6.2-1,13.1,1.1,19.7c2.2,6.7,11,5,11.8-1.6c0.6-5.5,1-11,1.2-16.5
						c0.2-6.6-10.5-8.3-11.8-1.6c-0.9,5.1-1,10-0.1,15.1c1.2,7.1,11.2,4.6,11.8-1.6c0.3-3,0.6-6,0.9-9c-4,0-8,0-12,0
						c-0.1,4.1-0.2,8.1-0.3,12.2c4,0,8,0,12,0c-0.1-6-0.3-12.1-0.4-18.1c-0.2-7.7-11.9-7.7-12,0c0,3-0.1,6.1-0.1,9.1c4,0,8,0,12,0
						c-0.4-6.9-0.8-13.8-1.3-20.7c-0.4-5.7-1.2-11.2-4.4-16c-3.1-4.5-11.7-3.4-11.2,3c0.3,3.2,0,6.2-1.4,9.2c3.7,0.5,7.3,1,11,1.4
						c-1.9-6.1-2.5-12.1-1.9-18.5c-4,0-8,0-12,0c1.1,8.9,1.7,17.8,1.6,26.7c3.9-0.5,7.9-1.1,11.8-1.6c-1.8-7.5-1.9-14.8-0.7-22.4
						c0.4-2.8,0.8-5.7-0.7-8.3c-1.3-2.3-3.4-2.8-5.3-4.3c0.9,1.2,1.8,2.4,2.8,3.6c0-0.2-0.1-0.5-0.1-0.7c-0.9,2.3-1.8,4.5-2.8,6.8
						c1.4-0.9,2.7-1.8,4.2-2.4c-1.9-0.5-3.9-1-5.8-1.5c3.9,4.1,6.3,8.7,7.5,14.2c3.7-1.5,7.3-3.1,11-4.6c-0.8-1.2-1.5-2.5-2.3-3.7
						c-3.6-5.9-12.4-2-11,4.6c1.1,5,2,10,2.7,15.1c3.7-1.5,7.3-3.1,11-4.6c-1.4-2.6-2.2-5.2-2.5-8.1c-0.7-7.6-11.9-7.8-12,0
						c-0.1,4.9-0.1,9.8-0.2,14.8c3.9-0.5,7.9-1.1,11.8-1.6c-2.6-7.7-4.9-15.6-7.7-23.2c-2.3-6.3-6.6-10.4-13.7-9.1
						c-4,0.7-5.2,5.7-3.6,8.8c3.4,6.5,4.8,13.4,4.5,20.8c-0.2,6.2,8.1,7.8,11.2,3c2.1-3.3,1.8-7.4-0.8-10.4
						c-3.2-3.7-8.6-4.2-13.1-5.2c-2.3-0.5-4.7-1.1-7-1.6c-1.6-0.4-4.9-0.5-6.2-1.7c-1.1-1.1-1.3-4-1.6-5.5c-0.6-3.1-0.8-6.2-0.8-9.3
						c-4,0-8,0-12,0c0.3,4.9-2.3,7.6-3.4,12.1c-1,4.1,0.5,7.8,3.1,11c6.4,8.1,13.5,15.6,20.3,23.4c3.2,3.7,8.5,1.2,10-2.6
						c0.5-1.2,0.6-2.3,0.5-3.6c-0.3-7.7-12.3-7.7-12,0c0,0.1-0.1,0.2-0.1,0.4c3.3-0.9,6.7-1.8,10-2.6c-5.6-6.4-11.2-12.9-16.8-19.3
						c-0.5-0.5-3.3-3.2-3.4-4c0-0.6,1.5-2.5,1.8-3.3c1.6-3.6,2.2-7.3,1.9-11.3c-0.4-7.7-12.2-7.8-12,0c0.2,7.9,0.4,20,7.8,24.8
						c3.4,2.2,7.5,2.8,11.3,3.7c2.3,0.5,4.7,1.1,7,1.6c1.2,0.3,2.3,0.5,3.5,0.8c0.5,0.1,1,0.2,1.6,0.4c1.8,0.7,1.7-0.5-0.2-3.6
						c3.7,1,7.5,2,11.2,3c0.4-9.5-1.8-18.5-6.2-26.8c-1.2,2.9-2.4,5.9-3.6,8.8c-1.7-0.5-2,0-0.8,1.5c0.4,1.2,0.8,2.5,1.2,3.7
						c0.6,1.9,1.2,3.7,1.9,5.6c1.5,4.4,2.9,8.7,4.4,13.1c2.1,6.3,11.7,5.4,11.8-1.6c0.1-4.9,0.1-9.8,0.2-14.8c-4,0-8,0-12,0
						c0.4,5.1,1.7,9.7,4.1,14.2c3.5,6.5,11.9,1.6,11-4.6c-0.7-5.1-1.6-10.1-2.7-15.1c-3.7,1.5-7.3,3.1-11,4.6
						c0.8,1.2,1.5,2.5,2.3,3.7c3.6,5.9,12.4,2,11-4.6c-1.6-7.5-5.3-14-10.6-19.5c-1.4-1.4-3.9-2.3-5.8-1.5c-2.5,1-4.9,2.1-7.1,3.6
						c-2.4,1.7-3.2,3.9-2.8,6.8c0.2,1.1,4.1,5.9,4.4,5.2c-0.4-0.6-0.7-1.3-1.1-1.9c-0.2,0.9-0.3,1.8-0.5,2.7
						c-0.3,1.7-0.5,3.5-0.6,5.3c-0.6,7,0.2,14,1.8,20.8c1.6,6.7,11.7,5.1,11.8-1.6c0.1-8.9-0.5-17.8-1.6-26.7c-1-7.6-11.2-7.8-12,0
						c-0.7,7.3,0.1,14.6,2.3,21.6c1.4,4.5,8.7,6.4,11,1.4c2.3-4.9,3.5-9.8,3-15.2c-3.7,1-7.5,2-11.2,3c2.8,4.1,2.7,8.9,3,13.7
						c0.3,5.6,0.7,11.3,1,16.9c0.5,7.6,11.9,7.8,12,0c0-3,0.1-6.1,0.1-9.1c-4,0-8,0-12,0c0.1,6,0.3,12.1,0.4,18.1
						c0.2,7.7,11.8,7.7,12,0c0.1-4.1,0.2-8.1,0.3-12.2c0.2-7.8-11.3-7.6-12,0c-0.3,3-0.6,6-0.9,9c3.9-0.5,7.9-1.1,11.8-1.6
						c-0.5-2.9-0.4-5.8,0.1-8.7c-3.9-0.5-7.9-1.1-11.8-1.6c-0.2,5.5-0.6,11-1.2,16.5c3.9-0.5,7.9-1.1,11.8-1.6
						c-2.1-6.4,1.5-13.1-1.1-19.7c-1.9-4.8-10.5-6.5-11.6,0c-1.1,7.1-1.7,14.2-1.6,21.4c4,0,8,0,12,0c-0.5-5.6-0.9-11.2-1.4-16.8
						c-0.7-7.8-11.2-7.7-12,0c-0.8,7.7-1.6,15.3-2.4,23c4,0,8,0,12,0c0.3-9,0.7-17.9,1-26.9c0.3-7.9-11.1-7.5-12,0
						c-1,8.4-1.9,16.8-2.9,25.1c4,0,8,0,12,0c0-6.3-0.3-12.6-0.9-18.9c-0.8-7.8-11-7.6-12,0c-1,7.9-2.1,15.7-3.1,23.6c4,0,8,0,12,0
						c0.6-11,1.2-22.1,1.8-33.1c0.4-6.9-9.9-7.9-11.8-1.6c-2.6,8.7-3.7,17.6-4.8,26.6c4,0,8,0,12,0c0.5-13.3,0.9-26.7,1.4-40
						c0.2-6.7-10.3-8.2-11.8-1.6c-3.1,13.4-2.6,27.5-3,41.1c4,0,8,0,12,0c-1.8-14.6,1.8-29.6-3-43.9c-1.5-4.6-8.5-6.3-11-1.4
						c-5.5,10.6-8.3,22.1-8,34.1c0.2,7.7,11.7,7.7,12,0c0.2-7.1-0.1-14.1-1-21.1c-0.8-5.7-1.3-11.9-5.9-16c-2.6-2.3-7.8-2.6-9.4,1.2
						c-3.9,9.1-4.8,18.7-1.4,28.1c1.9,5.3,10,6.1,11.6,0c2.2-8.5,4.1-18.1,3.6-26.9c-0.5-7-8.5-13.4-14.4-7.1
						C77,147,77.5,159,85,160.8c7.5,1.8,12.7-6.2,11.7-12.9c-1.1-7-8-11.1-14.8-9c-6.9,2.1-10,10-6.6,16.3
						c3.8,7.1,11.8,7.3,18.1,3.8c6.3-3.5,14.7-9.9,17.7-16.6c4.8-10.9-10.5-11.6-17.1-12.7c-4.1-0.7-8.3-2-11.9,0.7
						c-4,2.9-6.7,8.7-9.5,12.7c-3.8,5.6,5,12.5,9.4,7.3c1.5-1.8,3.1-3.7,4.6-5.5c-3.1-2.4-6.3-4.8-9.4-7.3c-4,5.3-6.8,11.4-8.2,18
						c3.9,0,7.7,0,11.6,0c-0.3-1.2-0.5-2.4-0.8-3.6c-3.9,1.1-7.7,2.1-11.6,3.2c0.9,2.5,1.6,4.9,2.1,7.5c1.3,6.8,11.7,5,11.8-1.6
						c0-0.7,0-1.4,0-2.2c-4,0-8,0-12,0c0.3,4.7,1.4,8.8,3.5,13c2.6,5.4,11.4,2.7,11.2-3c-0.1-3.9-1.1-7.3-3.3-10.6
						c-3.2-4.6-11.3-3.3-11.2,3c0.1,4.6,0.9,8.9,2.7,13.2c2.5,6,11.5,5.6,11.8-1.6c0.1-4,0.3-8.1,0.4-12.1c-4,0-8,0-12,0
						c0.1,4,1,7.5,3.2,10.9c3.6,5.5,13.1,2.1,11-4.6c-0.2-0.8-0.4-2.2-0.8-2.8c-3.7-2.5-5.3-2.7-4.7-0.5c0.1,0.5,0.2,1,0.3,1.4
						c0.5,1.7,1.3,3.3,2.2,4.8c2.3,3.4,5.8,5.8,9.1,8.1c0.3,0.2,1.7,1.6,2.1,1.5c0.5,0.6,0.7,0.4,0.4-0.5c0-1.1-0.1-1.1-0.2,0
						c-0.7,2.1-0.3,4.8,0.1,7c0.8,4.7,3,8.6,6.1,12.1c3,3.4,9,1.6,10-2.6c1.1-4.7,1.1-9,0.1-13.7c-1.5-7-11.2-4.8-11.8,1.6
						c-0.3,3.2-0.4,6.4-0.4,9.7c0,7.8,11.4,7.6,12,0c0.5-6-0.1-11.8-1.5-17.6c-1-4-7.2-6.3-10-2.6c-5.3,6.8-5.1,17-6.3,25.3
						c3.9,0.5,7.9,1.1,11.8,1.6c0.5-8.1,0-16-1.1-24c-0.8-6-10.3-5.4-11.6,0c-2.1,8.8-1.8,17.6,1,26.2c2.2,6.6,11.2,5.1,11.8-1.6
						c0.6-7.4,0.7-14.9,0.4-22.3c-0.4-7.8-11.3-7.6-12,0c-0.7,7-1.4,14.1-2,21.1c3.9-0.5,7.9-1.1,11.8-1.6c-2.7-8,0.7-16.7-2.5-24.8
						c-1.7-4.1-8.7-6.7-11-1.4c-2.5,5.8-3.7,11.5-2.9,17.8c0.4,3.2,2.5,6,6,6C96.6,195.1,100.1,192.3,99.7,189.1L99.7,189.1z"/>
				</g>
			</g>
			<g>
				<g>
					<path class="st0" d="M125.7,174.8c0.6-0.9,1.1-1.7,1.7-2.6c-3.7-1-7.5-2-11.2-3c0.1,1.3,0.1,2.6,0.2,3.9c4,0,8,0,12,0
						c-0.1-0.6,0-1.2-0.1-1.8c0-0.5,0-0.3-0.1,0.3c0.1-0.3,0.1-0.7,0.2-1c-3.9-0.5-7.9-1.1-11.8-1.6c0,1,0.1,2.1,0.1,3.1
						c0.1,3,2.2,5.5,5.2,5.9c2.9,0.4,5.8-1.4,6.6-4.3c0.7-2.4,1-4.9,0.9-7.4c-0.2-3.1-2.6-6.2-6-6c-3.1,0.1-6.2,2.6-6,6
						c0.1,0.9,0,1.8,0,2.7c0,0.9,0.3-1.4,0,0.1c-0.1,0.5-0.2,1-0.4,1.4c3.9,0.5,7.9,1.1,11.8,1.6c0-1-0.1-2.1-0.1-3.1
						c-0.1-3-2.2-5.5-5.2-5.9c-2.9-0.4-5.9,1.4-6.6,4.3c-0.5,1.8-0.7,3.7-0.5,5.6c0.2,1.6,0.5,3,1.8,4.2c1,1,2.7,1.8,4.2,1.8
						c3.1-0.1,6.1-2.6,6-6c-0.1-1.3-0.1-2.6-0.2-3.9c-0.1-2.5-1.8-5.2-4.4-5.8c-2.7-0.6-5.2,0.5-6.8,2.8c-0.6,0.9-1.1,1.7-1.7,2.6
						c-1.7,2.6-0.6,6.8,2.2,8.2C120.5,178.5,123.8,177.6,125.7,174.8L125.7,174.8z"/>
				</g>
			</g>
			<g>
				<g>
					<path class="st0" d="M110.1,183.5c0.7,5.3,2,10.1,4.7,14.8c2.5,4.5,9.7,3.5,11-1.4c0.2-0.6,0.3-1.3,0.5-1.9
						c-3.7,0.5-7.3,1-11,1.4c0.2,0.5,0.5,1,0.7,1.5c2.6,5.7,11,2.5,11.2-3c0-0.2,0.1-0.4,0.1-0.6c-3.7,0.5-7.3,1-11,1.4
						c-0.1-0.4-0.2-0.7-0.4-1.1c0.2,6.6,10.1,8.4,11.8,1.6c0.2-1,0.5-2,0.7-2.9c-3.9-0.5-7.9-1.1-11.8-1.6c0,0.7,0.1,1.4,0.1,2.2
						c0.3,6.4,10.6,8.6,11.8,1.6c1.6-9.3,2.1-18.5,1.3-27.8c-3.9,0.5-7.9,1.1-11.8,1.6c0.3,1,0.6,2,0.9,3.1c1.9,6.3,12,5.4,11.8-1.6
						c-0.2-5-0.3-10.1-0.5-15.1c-3.9,0.5-7.9,1.1-11.8,1.6c0.2,0.8,0.4,1.7,0.6,2.5c1.4,5.3,10.7,6.1,11.6,0c0.1-0.7,0.2-1.3,0.3-2
						c-3.9,0-7.7,0-11.6,0c0.1,0.5,0.2,1.1,0.3,1.6c3.9-1.1,7.7-2.1,11.6-3.2c-1.1-3.9-2.7-7.5-5.2-10.8c-4.6-5.9-14.8-0.4-10.4,6.1
						c0.7,1.1,1.5,2.1,2.2,3.2c3.6,5.2,13.5,2.2,11-4.6c-1.2-3.1-2.4-6.2-3.6-9.4c-3.7,1.5-7.3,3.1-11,4.6c1.4,2.2,2.7,4.4,4.1,6.6
						c3.5,5.5,13.3,2.1,11-4.6c-0.9-2.6-2-5-3.5-7.3c-4.3-6.3-14.2-0.7-10.4,6.1c2,3.4,3.3,6.9,4.2,10.7c1.8,7.5,13.4,4.3,11.6-3.2
						c-1.1-4.8-3-9.3-5.4-13.6c-3.5,2-6.9,4-10.4,6.1c1,1.5,1.7,2.7,2.3,4.4c3.7-1.5,7.3-3.1,11-4.6c-1.4-2.2-2.7-4.4-4.1-6.6
						c-3.4-5.5-13.5-2-11,4.6c1.2,3.1,2.4,6.2,3.6,9.4c3.7-1.5,7.3-3.1,11-4.6c-0.7-1.1-1.5-2.1-2.2-3.2c-3.5,2-6.9,4-10.4,6.1
						c1.9,2.5,3.2,4.9,4,7.9c2,7.5,13,4.3,11.6-3.2c-0.1-0.5-0.2-1.1-0.3-1.6c-1-5.6-10.8-5.9-11.6,0c-0.1,0.7-0.2,1.3-0.3,2
						c3.9,0,7.7,0,11.6,0c-0.2-0.8-0.4-1.7-0.6-2.5c-1.7-6.5-12-5.2-11.8,1.6c0.2,5,0.3,10.1,0.5,15.1c3.9-0.5,7.9-1.1,11.8-1.6
						c-0.3-1-0.6-2-0.9-3.1c-1.9-6.2-12.4-5.4-11.8,1.6c0.7,8.3,0.5,16.5-0.9,24.6c3.9,0.5,7.9,1.1,11.8,1.6c0-0.7-0.1-1.4-0.1-2.2
						c-0.3-6.5-10.1-8.4-11.8-1.6c-0.2,1-0.5,2-0.7,2.9c3.9,0.5,7.9,1.1,11.8,1.6c0-1.9-0.5-3.3-1.3-4.9c-2.4-4.9-9.5-3.2-11,1.4
						c-0.4,1.3-0.5,2.4-0.6,3.8c3.7-1,7.5-2,11.2-3c-0.2-0.5-0.5-1-0.7-1.5c-2.2-4.8-9.7-3.3-11,1.4c-0.2,0.6-0.3,1.3-0.5,1.9
						c3.7-0.5,7.3-1,11-1.4c-1.5-2.7-2.7-5.6-3.1-8.8C121.2,175.9,109.2,175.9,110.1,183.5L110.1,183.5z"/>
				</g>
			</g>
		</g>
		<g>
			<g>
				<g>
					<g>
						<path class="st0" d="M88.8,170c-2.7-1-5.4-1.8-8.1-2.3c-1.6,0.2-2.3-0.6-2-2.3c-0.2-1.3-1.9-1.7-2.4-0.3
							c-0.1,0.3-0.2,0.6-0.3,0.9c0.8,0,1.5,0,2.3,0c-0.9-2.2-1.9-4.3-3.2-6.3c-0.6-1-1.8-0.6-2.2,0.3c-0.5,1.3-0.9,2.4-1.2,3.8
							c0.7-0.1,1.5-0.2,2.2-0.3c-0.8-1.4-1.3-2.7-1.5-4.3c-0.3-1.5-2.5-0.9-2.3,0.6c0.2,1.1,0.2,2.1,0,3.2c0.8-0.1,1.6-0.2,2.4-0.3
							c-0.4-1.2-0.7-2.2-0.8-3.5c-0.2-1.2-2-1.1-2.3,0c-0.3,1.1-0.3,1.3-0.3,2.4c0.8-0.1,1.6-0.2,2.4-0.3c-0.1-0.7-0.2-1.4-0.3-2.1
							c-0.2-1.5-2.2-0.9-2.4,0.3c-0.1,0.7-0.2,1.4-0.3,2.1c0.8,0,1.6,0,2.4,0c-0.1-1,0-2,0.1-3.1c0.1-1.3-2.1-1.6-2.4-0.3
							c-0.1,0.7-0.2,1.3-0.4,2c0.8,0.1,1.6,0.2,2.4,0.3c0-0.8,0.1-1.6,0.1-2.5c-0.8,0-1.6,0-2.4,0c0.4,3.5,0.9,7,1.3,10.5
							c0.2,1.5,2.3,1.6,2.4,0c0.1-1.3,0.2-2.5,0.3-3.8c-0.8,0-1.6,0-2.4,0c0.1,1,0.1,1.2,0.5,2.1c0.6,1.5,2.5,0.9,2.3-0.6
							c-0.2-1.8-0.5-3.5-0.7-5.3c-0.2-1.4-2.4-1-2.4,0.3c0,2.6,0.3,5.1,0.9,7.6c0.3,1.1,2.1,1.2,2.3,0c0.1-0.5,0.1-1,0.2-1.5
							c-0.8-0.1-1.6-0.2-2.4-0.3c0,1.3-0.1,2.6-0.3,4c0.8-0.1,1.6-0.2,2.4-0.3c-0.4-0.8-0.5-1.7-0.3-2.6c-0.8,0-1.6,0-2.4,0
							c-0.1,1.2-0.1,2.4-0.2,3.6c-0.1,1.6,2.3,1.5,2.4,0c0.2-1,0.2-2.1,0-3.1c-0.1-1.2-2.2-1.7-2.4-0.3c-0.2,1.3-0.2,1.6-0.2,2.9
							c0.8,0,1.6,0,2.4,0c0-0.7,0-1.3-0.1-2c0-1.3-2-1.7-2.4-0.3c-0.1,0.3-0.2,0.7-0.2,1c0.8,0.1,1.6,0.2,2.4,0.3
							c0.1-0.5,0.1-1.1,0.2-1.6c0.2-1.3-2.1-1.7-2.4-0.3c-0.1,0.8-0.2,1.4-0.2,2.2c0.8-0.1,1.6-0.2,2.4-0.3
							c-0.1-0.5-0.1-1.1-0.2-1.6c0-1.3-2.1-1.7-2.4-0.3c0,0.3-0.1,0.6-0.1,1c-0.2,1.3,1.4,2.1,2.2,0.9c0.5-0.7,0.5-0.9,0.8-1.7
							c-0.8,0-1.5,0-2.3,0c0.6,2.2,0.8,4.4,0.8,6.8c0,1.3,2.1,1.7,2.4,0.3c0.2-1,0.2-1.2,0.2-2.3c-0.1-1.4-1.9-1.6-2.4-0.3
							c-0.2,0.6-0.4,1.2-0.6,1.8c0.8,0.1,1.6,0.2,2.4,0.3c-0.1-1.2-0.2-2.4-0.2-3.6c-0.1-1.6-2.2-1.5-2.4,0
							c-0.2,0.9-0.2,1.8-0.1,2.7c0,1.6,2.2,1.5,2.4,0c0.1-0.6,0.2-1.2,0.2-1.8c-0.8,0-1.6,0-2.4,0c0.1,0.7,0.1,1.4,0.2,2.1
							c0.8,0,1.6,0,2.4,0c-0.1-0.6-0.2-1.3-0.3-1.9c-0.2-1.5-2.5-1.6-2.4,0c0.1,1.5,0.2,3,0.3,4.4c0.1,1.2,1.5,1.6,2.2,0.6
							c0.4-0.5,0.4-0.8,0.4-1.5c-0.8,0-1.6,0-2.4,0c0,0.6,0,1.2,0,1.8c0,1,1.4,1.7,2,0.8c0.5-0.5,0.6-0.9,0.6-1.6
							c-0.1-1.3-2-1.7-2.4-0.3c-0.3,1-0.3,1.2-0.3,2.2c0,1.5,2.4,1.5,2.4,0c0-0.9,0-1.8,0-2.7c0-1.3-2.1-1.7-2.4-0.3
							c-0.3,1.4-0.3,1.4-0.3,2.8c0,1.5,2.4,1.6,2.4,0c0-0.9,0-1.8,0-2.7c0-1.5-1.9-1.5-2.4-0.3c-0.6,1.5-0.6,1.2-0.5,2.8
							c0.1,1.3,2.1,1.7,2.4,0.3c0.2-1,0.2-1.3,0.2-2.3c0-1.1-1.7-1.7-2.2-0.6c-0.1,0.2-0.2,0.5-0.4,0.7c0.7,0.1,1.5,0.2,2.2,0.3
							c-0.1-1-0.3-2-0.4-2.9c-0.2-1.5-2.5-0.9-2.3,0.6c0.1,1,0.3,2,0.4,2.9c0.1,1,1.8,1.2,2.2,0.3c0.1-0.2,0.2-0.5,0.4-0.7
							c-0.7-0.2-1.5-0.4-2.2-0.6c0,0.6-0.1,1.1-0.1,1.7c0.8,0.1,1.6,0.2,2.4,0.3c0.1-0.7,0.3-1.4,0.4-2.2c-0.8-0.1-1.6-0.2-2.4-0.3
							c0,0.9,0,1.8,0,2.7c0.8,0,1.6,0,2.4,0c0.1-0.7,0.1-1.4,0.2-2.2c-0.8-0.1-1.6-0.2-2.4-0.3c0,0.9,0,1.8,0,2.7c0.8,0,1.6,0,2.4,0
							c0.1-0.5,0.1-1.1,0.2-1.6c-0.8-0.1-1.6-0.2-2.4-0.3c0,0,0.1-0.1,0.1-0.1c0.7,0.3,1.4,0.6,2,0.8c0-0.6,0-1.2,0-1.8
							c0-1.5-2.4-1.5-2.4,0c0,0.1-0.1,0.2-0.1,0.3c0.7,0.2,1.5,0.4,2.2,0.6c-0.1-1.5-0.2-3-0.3-4.4c-0.8,0-1.6,0-2.4,0
							c0.1,0.6,0.2,1.3,0.3,1.9c0.2,1.5,2.5,1.6,2.4,0c-0.1-0.7-0.1-1.4-0.2-2.1c-0.1-1.6-2.2-1.5-2.4,0c-0.1,0.6-0.2,1.2-0.2,1.8
							c0.8,0,1.6,0,2.4,0c-0.1-0.9,0-1.8,0.1-2.7c-0.8,0-1.6,0-2.4,0c0.1,1.2,0.2,2.4,0.2,3.6c0.1,1.3,1.9,1.6,2.4,0.3
							c0.2-0.6,0.4-1.2,0.6-1.8c-0.8-0.1-1.6-0.2-2.4-0.3c0,0.5-0.1,1.1-0.1,1.6c0.8,0.1,1.6,0.2,2.4,0.3c0-2.6-0.3-4.9-0.9-7.4
							c-0.3-1.2-2-1.1-2.3,0c-0.2,0.4-0.4,0.8-0.5,1.2c0.7,0.3,1.5,0.6,2.2,0.9c0-0.3,0.1-0.6,0.1-1c-0.8-0.1-1.6-0.2-2.4-0.3
							c0,1,0.1,1.3,0.3,2.2c0.3,1.4,2.3,1,2.4-0.3c0.1-0.5,0.1-1,0.2-1.6c-0.8-0.1-1.6-0.2-2.4-0.3c-0.1,0.5-0.1,1.1-0.2,1.6
							c-0.2,1.3,2.1,1.6,2.4,0.3c0.1-0.3,0.2-0.7,0.2-1c-0.8-0.1-1.6-0.2-2.4-0.3c0,0.7,0,1.3,0.1,2c0.1,1.5,2.4,1.5,2.4,0
							c0-0.7,0.1-1.5,0.1-2.2c-0.8-0.1-1.6-0.2-2.4-0.3c0.2,1,0.2,2.1,0,3.1c0.8,0,1.6,0,2.4,0c0.1-1.2,0.1-2.4,0.2-3.6
							c0.1-1.6-2.2-1.5-2.4,0c-0.1,1.2,0,2.1,0.3,3.2c0.4,1.4,2.2,1,2.4-0.3c0.2-1.3,0.3-2.6,0.3-4c0-1.3-2.2-1.7-2.4-0.3
							c-0.1,0.5-0.1,1-0.2,1.5c0.8,0,1.5,0,2.3,0c-0.6-2.3-0.8-4.6-0.9-7c-0.8,0.1-1.6,0.2-2.4,0.3c0.2,1.8,0.5,3.5,0.7,5.3
							c0.8-0.2,1.5-0.4,2.3-0.6c-0.1-0.5-0.3-1-0.4-1.5c-0.2-1.5-2.3-1.6-2.4,0c-0.1,1.3-0.2,2.5-0.3,3.8c0.8,0,1.6,0,2.4,0
							c-0.4-3.5-0.9-7-1.3-10.5c-0.2-1.5-2.3-1.6-2.4,0c0,0.8-0.1,1.6-0.1,2.5c-0.1,1.3,2.1,1.7,2.4,0.3c0.1-0.7,0.2-1.3,0.4-2
							c-0.8-0.1-1.6-0.2-2.4-0.3c-0.1,1-0.2,2-0.1,3.1c0,1.6,2.2,1.5,2.4,0c0.1-0.7,0.2-1.4,0.3-2.1c-0.8,0.1-1.6,0.2-2.4,0.3
							c0.1,0.7,0.2,1.4,0.3,2.1c0.2,1.4,2.3,1,2.4-0.3c0.1-0.6,0.2-1.2,0.3-1.8c-0.8,0-1.5,0-2.3,0c0.2,1.2,0.4,2.3,0.8,3.5
							c0.5,1.3,2.2,1,2.4-0.3c0.2-1.3,0.1-2.5-0.1-3.8c-0.8,0.2-1.5,0.4-2.3,0.6c0.3,1.8,0.9,3.3,1.8,4.8c0.5,0.9,2,0.7,2.2-0.3
							c0.3-1.3,0.7-2.5,1.2-3.8c-0.7,0.1-1.5,0.2-2.2,0.3c1.1,1.8,2.1,3.7,2.9,5.7c0.4,1.1,1.9,1.2,2.3,0c0.1-0.3,0.2-0.6,0.3-0.9
							c-0.8-0.1-1.6-0.2-2.4-0.3c0.3,2.7,1,6,4.2,6.6c2.5,0.4,4.2-1.4,4.2-3.8c0-1.6-0.9-4.5-3.1-3.7c-2,0.7-1.8,4.3-1.1,5.8
							c2.4,5.2,10.5,1.8,8.1-3.5c-0.7-1.5-2.3-2.6-3.7-1.1c-2,2.2,1,5.4,2.8,6.5C88.9,172.9,90.1,170.8,88.8,170L88.8,170z"/>
					</g>
				</g>
				<g>
					<g>
						<path class="st0" d="M72.5,264c-0.1,0.1-0.1,0.3-0.2,0.4c-0.3,0.6-0.2,1.3,0.4,1.6c0.1,0.1,0.2,0.1,0.4,0.2c0-0.7,0-1.4,0-2.1
							c-1.2,0.4-2.4,0.7-3.7,1.1c0.3,0.6,0.7,1.2,1,1.8c0.7-1.7,1.5-3.3,2.2-5c0.5-1.2-0.9-2.5-1.9-1.5c-0.3,0.3-0.6,0.6-0.9,0.9
							c0.7,0.4,1.3,0.8,2,1.2c0.8-3.1,1.5-6.3,2.1-9.5c0.3-1.5-1.8-2.1-2.3-0.6c-0.3,1.1-0.7,2.2-1,3.3c0.8,0.2,1.5,0.4,2.3,0.6
							c1.5-10.2,2-20.3,1.4-30.6c-0.8,0-1.6,0-2.4,0c0.2,2.9,0.4,5.9,0.6,8.8c0.1,1.5,2.5,1.5,2.4,0c-0.2-2.9-0.4-5.9-0.6-8.8
							c-0.1-1.5-2.5-1.5-2.4,0c0.6,10,0.2,20-1.3,29.9c-0.2,1.5,1.8,2.2,2.3,0.6c0.3-1.1,0.7-2.2,1-3.3c-0.8-0.2-1.5-0.4-2.3-0.6
							c-0.6,3.2-1.3,6.3-2.1,9.5c-0.3,1.1,1.2,2.1,2,1.2c0.3-0.3,0.6-0.6,0.9-0.9c-0.6-0.5-1.3-1-1.9-1.5c-0.7,1.7-1.5,3.3-2.2,5
							c-0.4,0.8,0.1,1.8,1,1.8c2,0.1,3.2-0.3,4.9-1.4c0.7-0.5,0.8-1.6,0-2.1c-0.1-0.1-0.2-0.1-0.4-0.2c0.1,0.5,0.3,1.1,0.4,1.6
							c0.1-0.1,0.1-0.3,0.2-0.4C75.2,263.8,73.2,262.6,72.5,264L72.5,264z"/>
					</g>
				</g>
				<g>
					<g>
						<path class="st0" d="M74.9,226c-0.2,0.1-0.4,0.3-0.6,0.4c0.6,0.2,1.2,0.5,1.8,0.7c-0.1-0.7-0.1-1.4-0.2-2.1
							c0-1.1-1.7-1.7-2.2-0.6c-0.2,0.3-0.4,0.7-0.5,1c0.7,0.1,1.5,0.2,2.2,0.3c-0.2-1.3-0.5-2.7-0.7-4c-0.2-1.4-2.3-1-2.4,0.3
							c-0.1,1.3-0.1,2.6-0.2,3.9c0.8,0,1.6,0,2.4,0c-0.7-6.8,0.1-13.6,0-20.4c0-1.3-2-1.7-2.4-0.3c-0.7,2.6-0.7,4.9-0.2,7.6
							c0.3,1.3,2.5,1,2.4-0.3c-0.3-3-0.6-6-0.9-9.1c-0.1-1.5-2.5-1.5-2.4,0c0.2,3,0.5,6,0.9,9.1c0.8-0.1,1.6-0.2,2.4-0.3
							c-0.5-2.2-0.4-4.1,0.2-6.3c-0.8-0.1-1.6-0.2-2.4-0.3c0.1,6.8-0.7,13.6,0,20.4c0.2,1.5,2.3,1.6,2.4,0c0.1-1.3,0.1-2.6,0.2-3.9
							c-0.8,0.1-1.6,0.2-2.4,0.3c0.2,1.3,0.5,2.7,0.7,4c0.2,1,1.7,1.2,2.2,0.3c0.2-0.3,0.4-0.7,0.5-1c-0.7-0.2-1.5-0.4-2.2-0.6
							c0,1.1,0.1,1.7,0.2,2.8c0.1,0.7,1.2,1.1,1.8,0.7c0.2-0.1,0.4-0.3,0.6-0.4C77.4,227.2,76.2,225.1,74.9,226L74.9,226z"/>
					</g>
				</g>
				<g>
					<g>
						<path class="st0" d="M76,202.7c-0.2-1.1-0.5-2.2-0.7-3.3c-0.3-1.3-1.9-1-2.3,0c-0.5,1.3-0.9,2.6-1.2,4c0.8,0,1.5,0,2.3,0
							c-0.3-1-0.5-2-0.8-3c-0.8,0.1-1.6,0.2-2.4,0.3c0,0.7,0.1,1.3,0.1,2c-0.1,1.5,2.3,1.5,2.4,0c0.4-4.8-0.7-9.6-0.7-14.5
							c0.1-4.2-0.2-8.3-0.8-12.5c-0.2-1.5-2.5-0.9-2.3,0.6c0.7,4.7,0.6,9.1,0.7,13.8c0.1,4.2,1.1,8.3,0.7,12.5c0.8,0,1.6,0,2.4,0
							c0.1-1.3,0.1-1.3-0.2-2.6c-0.3-1.3-2.5-1-2.4,0.3c0.2,2.1,0.1,1.7,0.9,3.6c0.4,1,2,1.3,2.3,0c0.3-1.4,0.7-2.6,1.2-4
							c-0.8,0-1.5,0-2.3,0c0.2,1.1,0.5,2.2,0.7,3.3C74,204.9,76.3,204.2,76,202.7L76,202.7z"/>
					</g>
				</g>
				<g>
					<g>
						<path class="st0" d="M75.6,169.2c-0.3-0.2-0.5-0.3-0.8-0.5c-0.7-0.4-1.5,0-1.8,0.7c-0.2,0.6-0.6,1-1,1.5
							c0.6,0.1,1.3,0.2,1.9,0.2c-0.1-0.3-0.3-0.6-0.4-1c-0.3-0.7-1.4-0.8-1.9-0.2c-0.2,0.3-0.4,0.5-0.6,0.8c0.7,0.2,1.3,0.4,2,0.5
							c0-0.2-0.1-0.5-0.1-0.7c-0.2-1-1.7-1.2-2.2-0.3c-0.2,0.4-0.5,0.9-0.7,1.3c0.7,0,1.4,0,2.1,0c0-0.1,0-0.2,0-0.3
							c-0.7-0.3-1.5-0.6-2.2-0.9c-0.2,0.5-0.3,0.9-0.5,1.4c-0.5,1.5,1.8,2.1,2.3,0.6c0.7-1.8-1.9-2.8-2.6-1c-0.6,1.5,1.7,2,2.3,0.6
							c0.5-1.1,0.6-2.3,0.5-3.5c-0.2-1.5-2.6-1.5-2.4,0c0.1,1,0,1.9-0.4,2.9c0.8,0.2,1.5,0.4,2.3,0.6c0,0,0-0.1,0-0.1
							c-0.3,0.3-0.6,0.6-0.8,0.8c0,0,0.1,0,0.1,0c-0.3,0-0.6-0.1-0.9-0.1c0,0,0.1,0,0.1,0.1c-0.2-0.3-0.4-0.7-0.6-1c0,0,0,0.1,0,0.1
							c0.8,0.2,1.5,0.4,2.3,0.6c0.2-0.5,0.3-0.9,0.5-1.4c0.4-1.3-1.6-2.1-2.2-0.9c-0.5,0.9-0.5,1.8,0,2.7c0.4,0.8,1.7,0.7,2.1,0
							c0.2-0.4,0.5-0.9,0.7-1.3c-0.7-0.1-1.5-0.2-2.2-0.3c0,0.2,0.1,0.5,0.1,0.7c0.1,0.9,1.5,1.2,2,0.5c0.2-0.3,0.4-0.5,0.6-0.8
							c-0.6-0.1-1.3-0.2-1.9-0.2c0.1,0.3,0.3,0.6,0.4,1c0.3,0.7,1.4,0.7,1.9,0.2c0.8-0.7,1.3-1.5,1.6-2.5c-0.6,0.2-1.2,0.5-1.8,0.7
							c0.3,0.2,0.5,0.3,0.8,0.5C75.7,172.1,76.9,170,75.6,169.2L75.6,169.2z"/>
					</g>
				</g>
				<g>
					<g>
						<path class="st0" d="M117.5,250.5c1.5,3.5,2.7,7.2,4.4,10.5c1.4,2.8,3.2,3.7,5.5,5.7c0.2-0.7,0.4-1.3,0.5-2
							c-1,0.2-2,0.4-3,0.6c-1.6,0.1-1.5,2.2,0,2.4c1.6,0.2,3.2,0.4,4.8,0.5c-0.1-0.8-0.2-1.6-0.3-2.4c-1.2,0.3-2.4,0.6-3.6,0.8
							c0.2,0.8,0.4,1.5,0.6,2.3c1.1-0.1,2.2-0.2,3.2-0.4c-0.2-0.7-0.4-1.5-0.6-2.2c-0.4,0.2-0.9,0.4-1.3,0.7
							c-1.1,0.6-0.5,2.2,0.6,2.2c1.1,0,1.2,0,2.2-0.3c0.8-0.2,1-1.1,0.7-1.8c-0.7-1.6-1.4-3.1-2.1-4.6c-0.6-1.2-2.6-0.4-2.2,0.9
							c0.1,0.5,0.2,1,0.3,1.6c0.8-0.1,1.6-0.2,2.4-0.3c-0.5-2.8-1.2-5.4-2-8.1c-0.5-1.5-2.7-0.9-2.3,0.6c0.7,2.4,1.5,4.7,2.5,7
							c0.5,1.1,2.4,0.6,2.2-0.6c-0.3-2.3-0.7-4.4-1.3-6.7c-0.4-1.5-2.5-0.8-2.3,0.6c0.2,1.3,0.4,2.6,0.6,4c0.8-0.2,1.5-0.4,2.3-0.6
							c-0.7-3.4-1.3-6.9-1.6-10.4c-0.2-1.5-2.5-1.5-2.4,0c0.2,2,0.4,4,0.6,6c0.1,1.5,2.5,1.6,2.4,0c-0.2-3.3-0.6-6.5-1.1-9.8
							c-0.3-1.5-2.5-0.9-2.3,0.6c0.3,2,0.6,4,0.9,6c0.2,1.3,2.5,1,2.4-0.3c-0.3-2.2-0.4-4.3-0.5-6.5c-0.8,0.1-1.6,0.2-2.4,0.3
							c0.6,3.7,1.3,7.4,1.9,11.2c0.2,1.3,2.5,1,2.4-0.3c-0.7-6.2-1.3-12.5-2-18.7c-0.2-1.5-2.6-1.5-2.4,0c0.7,6.2,1.3,12.5,2,18.7
							c0.8-0.1,1.6-0.2,2.4-0.3c-0.6-3.7-1.3-7.4-1.9-11.2c-0.2-1.3-2.4-1-2.4,0.3c0.1,2.2,0.2,4.3,0.5,6.5c0.8-0.1,1.6-0.2,2.4-0.3
							c-0.3-2-0.6-4-0.9-6c-0.8,0.2-1.5,0.4-2.3,0.6c0.5,3,0.9,6.1,1.1,9.1c0.8,0,1.6,0,2.4,0c-0.2-2-0.4-4-0.6-6
							c-0.8,0-1.6,0-2.4,0c0.4,3.7,1,7.4,1.7,11c0.3,1.5,2.5,0.9,2.3-0.6c-0.2-1.3-0.4-2.6-0.6-4c-0.8,0.2-1.5,0.4-2.3,0.6
							c0.6,2,1,3.9,1.2,6c0.7-0.2,1.5-0.4,2.2-0.6c-0.9-2.2-1.6-4.2-2.2-6.5c-0.8,0.2-1.5,0.4-2.3,0.6c0.9,2.7,1.6,5.3,2,8.1
							c0.2,1.3,2.4,1,2.4-0.3c0-1.1,0-1.2-0.4-2.2c-0.7,0.3-1.5,0.6-2.2,0.9c0.7,1.5,1.5,3.1,2.1,4.6c0.2-0.6,0.5-1.2,0.7-1.8
							c-0.5,0.1-1.1,0.1-1.6,0.2c0.2,0.7,0.4,1.5,0.6,2.2c0.4-0.2,0.9-0.4,1.3-0.7c1.1-0.6,0.5-2.2-0.6-2.2c-2.1,0-1.8-0.1-3.9,0.4
							c-1.5,0.4-0.9,2.7,0.6,2.3c1.2-0.3,2.4-0.6,3.6-0.8c1.4-0.3,0.9-2.2-0.3-2.4c-1.6-0.2-3.2-0.4-4.8-0.5c0,0.8,0,1.6,0,2.4
							c2-0.1,1.7-0.1,3.7-0.7c0.8-0.2,1.2-1.4,0.5-2c-1.9-1.7-3.8-3-5.1-5.2c-1.7-3.1-2.8-6.7-4.2-10
							C119.3,248.5,116.9,249.1,117.5,250.5L117.5,250.5z"/>
					</g>
				</g>
				<g>
					<g>
						<path class="st0" d="M129.2,201.1c0.3-2.1,0.7-4.2,0.8-6.3c0.1-1.2-0.6-2.5-2-2.2c-1.5,0.4-0.9,2.7,0.6,2.3
							c0.1,0,0.1,0,0.2-0.1c-0.4-0.1-0.8-0.2-1.2-0.3c0.1,0.1-0.4,2.3-0.4,2.7c-0.1,1.1-0.3,2.1-0.4,3.2
							C126.6,201.9,128.9,202.6,129.2,201.1L129.2,201.1z"/>
					</g>
				</g>
				<g>
					<g>
						<path class="st0" d="M123.4,233.1c0.2,1.3,0.5,2.7,0.7,4c0.7-0.3,1.5-0.6,2.2-0.9c-0.1-0.4-0.2-0.8-0.2-1.3
							c-0.8-0.1-1.6-0.2-2.4-0.3c0.1,1.4,0.2,2.9,0.3,4.3c0.1,1.6,2.2,1.5,2.4,0c0.1-0.9,0.2-1.9,0.3-2.8c-0.8,0-1.6,0-2.4,0
							c0.1,1.3,0.2,2.6,0.4,3.8c0.1,1.5,2.2,1.5,2.4,0c0.1-1.4,0.2-2.6,0.1-4c-0.8,0-1.6,0-2.4,0c0.1,0.9,0.1,1.8,0.2,2.7
							c0.8,0,1.6,0,2.4,0c-0.2-1-0.2-2-0.1-3.1c-0.8,0.1-1.6,0.2-2.4,0.3c0,0.8-0.1,1.6-0.1,2.4c0.8,0.1,1.6,0.2,2.4,0.3
							c0.6-13,1.3-25.9,2.2-38.9c0.1-1.5-2.3-1.5-2.4,0c-0.9,12.9-1.7,25.9-2.2,38.9c-0.1,1.3,2.1,1.6,2.4,0.3
							c0.4-1.8,0.4-1.8,0.1-3.7c-0.2-1.4-2.3-1-2.4,0.3c-0.1,1,0,2,0.1,3.1c0.2,1.5,2.5,1.6,2.4,0c-0.1-0.9-0.1-1.8-0.2-2.7
							c-0.1-1.5-2.5-1.6-2.4,0c0.1,1.4,0,2.6-0.1,4c0.8,0,1.6,0,2.4,0c-0.1-1.3-0.2-2.6-0.4-3.8c-0.1-1.6-2.2-1.5-2.4,0
							c-0.1,0.9-0.2,1.9-0.3,2.8c0.8,0,1.6,0,2.4,0c-0.1-1.4-0.2-2.9-0.3-4.3c-0.1-1.3-2.2-1.7-2.4-0.3c-0.2,1.5-0.2,1.7,0.5,3.1
							c0.7,1.3,2.4,0.3,2.2-0.9c-0.2-1.3-0.5-2.7-0.7-4C125.4,230.9,123.1,231.5,123.4,233.1L123.4,233.1z"/>
					</g>
				</g>
				<g>
					<g>
						<path class="st0" d="M125.3,233.2c0.1-1.2,0.1-2.4,0.2-3.6c-0.8-0.1-1.6-0.2-2.4-0.3c0.4,3.6,0.3,7-0.5,10.6
							c0.7-0.1,1.5-0.2,2.2-0.3c-1.2-2.8,0.4-7.4,0.9-10.3c0.5-3,1.1-5.9,1.8-8.9c-0.8-0.2-1.5-0.4-2.3-0.6
							c-0.7,3.4-1.1,6.9-1.2,10.4c0.8,0,1.6,0,2.4,0c-0.1-3.6,0-7.2,0.3-10.8c0.1-1.4-2.1-1.6-2.4-0.3c-0.4,1.8-0.7,3.6-0.8,5.5
							c-0.1,1.5,2.3,1.5,2.4,0c0.1-1.6,0.3-3.2,0.7-4.8c-0.8-0.1-1.6-0.2-2.4-0.3c-0.3,3.6-0.4,7.2-0.3,10.8c0,1.5,2.4,1.5,2.4,0
							c0.1-3.3,0.4-6.5,1.1-9.8c0.3-1.5-2-2.2-2.3-0.6c-0.9,4.2-1.7,8.4-2.3,12.6c-0.4,2.8-1.3,5.8-0.1,8.4c0.4,0.9,2,0.7,2.2-0.3
							c0.8-3.7,1-7.4,0.6-11.2c-0.1-1.3-2-1.7-2.4-0.3c-0.4,1.7-0.5,3.1-0.2,4.9C123.2,235.4,125.5,234.7,125.3,233.2L125.3,233.2z"
							/>
					</g>
				</g>
				<g>
					<g>
						<path class="st0" d="M70.9,264.9c1.5,0.5,2.9,1,4.4,1.5c0.2-0.8,0.4-1.5,0.6-2.3c-1.6-0.3-2.9-0.3-4.5,0
							c-0.9,0.1-1.2,1.5-0.5,2c1.5,1.2,2.4,1.6,4.4,1.5c1.3-0.1,1.7-2,0.3-2.4c-1.9-0.5-1.4-0.5-3.4-0.2c-1.1,0.1-1.7,1.6-0.6,2.2
							c1.4,0.9,1.3,0.8,2.9,1.3c1.3,0.4,2.2-1.6,0.9-2.2c-1.5-0.7-2.6-1-4.2-1c-1.6,0-1.5,2.2,0,2.4c1.8,0.2,3.6,0.5,5.5,0.7
							c-0.1-0.8-0.2-1.6-0.3-2.4c-0.6,0.2-1.1,0.5-1.7,0.7c-1.1,0.5-1.2,2.5,0.3,2.4c3.6-0.3,7.1-0.6,10.7-1
							c-0.1-0.8-0.2-1.6-0.3-2.4c-1.4,0.1-2.8,0.3-4.1,0.4c-0.1,0.8-0.2,1.6-0.3,2.4c3.8-0.4,7.5-0.7,11.3-1.1
							c1.6-0.1,1.5-2.2,0-2.4c-2.7-0.3-5-0.1-7.6,0.5c-1.4,0.3-1,2.3,0.3,2.4c3.6,0.2,7.1,0.1,10.7-0.3c-0.1-0.8-0.2-1.6-0.3-2.4
							c-1.4,0.8-2.9,1-4.5,0.7c0,0.8,0,1.6,0,2.4c1.3-0.1,2.6,0,3.9,0.2c0.1-0.8,0.2-1.6,0.3-2.4c-1,0.1-2,0.1-3.1,0.2
							c-1.5,0.1-1.6,2.5,0,2.4c11-0.5,22-0.9,32.9,0.4c1.4,0.2,1.6-2,0.3-2.4c-4.6-1.4-9.2-2.5-13.6,0.2c-1,0.6-0.6,2.4,0.6,2.2
							c0.8-0.1,1.6-0.1,2.4-0.2c1.5-0.1,1.5-2.5,0-2.4c-0.8,0.1-1.6,0.1-2.4,0.2c0.2,0.7,0.4,1.5,0.6,2.2c3.7-2.3,7.8-1.1,11.7,0.1
							c0.1-0.8,0.2-1.6,0.3-2.4c-11-1.3-21.9-0.9-32.9-0.4c0,0.8,0,1.6,0,2.4c1-0.1,2-0.1,3.1-0.2c1.2-0.1,1.7-2.2,0.3-2.4
							c-1.5-0.2-3-0.3-4.5-0.3c-1.6,0-1.5,2.3,0,2.4c2,0.2,3.3,0,5.2-0.8c1.1-0.4,1.1-2.5-0.3-2.4c-3.6,0.4-7.1,0.5-10.7,0.3
							c0.1,0.8,0.2,1.6,0.3,2.4c2.6-0.6,4.4-0.7,6.9-0.4c0-0.8,0-1.6,0-2.4c-3.8,0.4-7.5,0.7-11.3,1.1c-1.2,0.1-1.8,2.1-0.3,2.4
							c2,0.3,3.5,0.3,5.4-0.4c1.2-0.4,1.1-2.5-0.3-2.4c-3.6,0.3-7.1,0.6-10.7,1c0.1,0.8,0.2,1.6,0.3,2.4c0.6-0.2,1.1-0.5,1.7-0.7
							c1.3-0.5,1.1-2.2-0.3-2.4c-1.8-0.2-3.6-0.5-5.5-0.7c0,0.8,0,1.6,0,2.4c1,0.2,2,0.4,3,0.6c0.3-0.7,0.6-1.5,0.9-2.2
							c-0.8-0.4-1.5-0.7-2.3-1.1c-0.2,0.7-0.4,1.5-0.6,2.2c0.9,0,1.8,0.1,2.8,0.1c0.1-0.8,0.2-1.6,0.3-2.4c-0.9-0.3-1.8-0.6-2.7-0.8
							c-0.2,0.7-0.4,1.3-0.5,2c1.1,0,2.2,0,3.3,0c1.5,0.3,2.1-1.8,0.6-2.3c-1.5-0.5-2.9-1-4.4-1.5C70.1,262.1,69.5,264.4,70.9,264.9
							L70.9,264.9z"/>
					</g>
				</g>
				<g>
					<g>
						<path class="st0" d="M115.4,266.9c0.5,1,1.4,1.5,2.5,1.5c-0.1-0.8-0.2-1.6-0.3-2.4c-0.5,0.2-1.1,0.2-1.7,0.2
							c0.1,0.8,0.2,1.6,0.3,2.4c1.7-0.4,3.7-0.1,3.8-2.5c0.1-2.5-2.3-3-3.5-4.7c-0.5,0.6-0.9,1.2-1.4,1.8c1.9,0.7,3.9,1.2,5.9,1.4
							c0.9,0.1,1.5-1.1,1-1.8c-0.7-1.1-1.5-1.8-2.7-2.4c-0.3,0.7-0.6,1.5-0.9,2.2c1.6,0.5,3.3,1,4.9,1.5c1.2,0.4,2-1.2,1.2-2
							c-0.9-0.9-1.7-1.3-3-1.4c-0.9-0.1-1.6,1.1-1,1.8c0.3,0.5,0.7,0.9,1,1.4c0.3,0.4,0.4,1,0.6,0.6c0.4-0.3,0.8-0.6,1.2-0.9
							c-0.9,0.1-2-0.2-3-0.3c-1.2-0.2-1.6,1.7-0.6,2.2c1.6,0.8,3.3,1.4,5.1,1.7c0.1-0.8,0.2-1.6,0.3-2.4c-1.3,0-2.5-0.2-3.7-0.6
							c-0.1,0.8-0.2,1.6-0.3,2.4c1.7,0,3.3,0.1,5,0.1c1.1,0,1.7-1.8,0.6-2.2c-1-0.4-1.9-0.8-2.9-1.2c-0.2,0.7-0.4,1.5-0.6,2.2
							c0.6,0,1.1,0,1.7-0.1c1,0,1.4-1,1-1.8c-0.3-0.7-0.7-1.1-1.4-1.6c-0.3,0.7-0.6,1.5-0.9,2.2c0.3,0.1,0.6,0.1,0.9,0.2
							c1.5,0.3,2.1-2,0.6-2.3c-0.3-0.1-0.6-0.1-0.9-0.2c-1.4-0.3-2,1.4-0.9,2.2c0.2,0.2,0.3,0.5,0.5,0.7c0.3-0.6,0.7-1.2,1-1.8
							c-0.6,0-1.1,0-1.7,0.1c-1.1,0-1.8,1.7-0.6,2.2c1,0.4,1.9,0.8,2.9,1.2c0.2-0.7,0.4-1.5,0.6-2.2c-1.7,0-3.3-0.1-5-0.1
							c-1.4,0-1.5,1.9-0.3,2.4c1.4,0.5,2.8,0.7,4.3,0.7c1.3,0,1.7-2.1,0.3-2.4c-1.6-0.3-3-0.7-4.5-1.4c-0.2,0.7-0.4,1.5-0.6,2.2
							c1,0.1,2,0.4,3,0.3c0.6-0.1,1-0.3,1.2-0.9c0.5-1.4-1.1-2.8-1.9-3.8c-0.3,0.6-0.7,1.2-1,1.8c0.4,0.2,0.9,0.5,1.3,0.7
							c0.4-0.7,0.8-1.3,1.2-2c-1.6-0.5-3.3-1-4.9-1.5c-1.3-0.4-2.1,1.6-0.9,2.2c0.8,0.4,1.3,0.8,1.8,1.6c0.3-0.6,0.7-1.2,1-1.8
							c-1.8-0.2-3.6-0.7-5.3-1.3c-1-0.4-1.9,0.9-1.4,1.8c0.5,0.8,1.1,1.3,1.8,1.8c0.4,0.3,1.7,1,0.7,1.7c-0.1,0.1-1.3,0.1-1.5,0.2
							c-1.3,0.3-1,2.4,0.3,2.4c0.8,0,1.5-0.1,2.3-0.3c1.3-0.3,1-2.4-0.3-2.4c-0.1-0.1-0.3-0.2-0.4-0.3
							C116.7,264.3,114.7,265.5,115.4,266.9L115.4,266.9z"/>
					</g>
				</g>
			</g>
			<g>
				<g>
					<path class="st0" d="M79.1,153.7c-0.1-0.5-0.2-1-0.3-1.5c-0.7,0.1-1.5,0.2-2.2,0.3c-0.5-0.2-1.1-0.4-1.6-0.6
						c-0.5,0.4-1,0.8-1.5,1.2c-0.7,0.1-0.5,0.7,0.4,1.9c-0.8,0-1.5,0-2.3,0c-0.1,0.9,0.3,1.3,1.1,1.2c-0.6-1.4-2.6-0.9-2.3,0.6
						c0,0.3-0.1,0.6-0.1,0.9c0.7-0.1,1.5-0.2,2.2-0.3c-0.2-1.1-0.4-2.2-0.6-3.3c-0.8,0-1.6,0-2.4,0c0.2,1.1,0.2,2.2,0.2,3.3
						c0.5-0.3,1-0.6,1.5-0.8c-0.3-0.7-0.4-1.4-0.2-2.1c0.1-1.4-2-1.6-2.4-0.3c-0.1,0.5-0.3,1.1-0.4,1.6c0.8,0,1.5,0,2.3,0
						c-0.2-0.4-0.4-0.9-0.6-1.3c-0.6-1.4-2.9-0.8-2.3,0.6c0.6,1.1,0.9,2.2,1,3.4c0.2,1.4,2.4,1,2.4-0.3c0-1,0-1.9,0-2.9
						c-0.8,0-1.6,0-2.4,0c0,1.7,0,1.7,0.4,3.4c0.6-0.5,1.2-0.9,1.8-1.4c-0.3-0.5-0.6-1-0.9-1.6c-0.7,0.2-1.5,0.4-2.2,0.6
						c0.3,0.7,0.6,1.3,0.9,2c0.6,1.2,2.6,0.4,2.2-0.9c-0.8-2.7-1.5-5,0.4-7.7c-0.7-0.3-1.5-0.6-2.2-0.9c-0.3,0.5-0.7,1-1,1.5
						c0.7,0.4,1.3,0.8,2,1.2c0-1.5,0.6-2.9,1.8-4c-0.7-0.3-1.4-0.6-2-0.8c-0.1,0.2-0.2,0.4-0.3,0.6c0.6,0.5,1.3,1,1.9,1.5
						c0.6-0.9,1.1-1.9,1.7-2.8c-0.7-0.3-1.5-0.6-2.2-0.9c-0.4,0.7-0.9,1.5-1.3,2.2c0.7,0.4,1.3,0.8,2,1.2c0.2-1.5,0.8-2.8,1.9-4
						c-0.7-0.4-1.4-0.8-2.1-1.2c-0.6,1.4-1.4,2.6-2.6,3.5c0.6,0.5,1.3,1,1.9,1.5c1.7-3.2,3.7-6.2,5.8-9.1c-0.7-0.4-1.4-0.8-2.1-1.2
						c-0.9,1.7-2,3.1-3.3,4.5c0.6,0.5,1.3,1,1.9,1.5c2.7-4.7,4.7-9.7,6.1-14.9c0.3-1.3-1.6-2.2-2.2-0.9c-1.8,3.9-3.4,7.9-4.7,12.1
						c0.8,0.2,1.5,0.4,2.3,0.6c0.4-1.9,1-3.5,2.1-5.1c-0.7-0.4-1.4-0.8-2.1-1.2c-1.1,2.4-2.3,4.7-3.4,7.1c-0.7,1.4,1.4,2.6,2.1,1.2
						c1.1-2.4,2.3-4.7,3.4-7.1c0.7-1.4-1.2-2.5-2.1-1.2c-1.2,1.9-1.9,3.5-2.3,5.7c-0.3,1.5,1.8,2.1,2.3,0.6
						c1.3-3.9,2.8-7.7,4.5-11.5c-0.7-0.3-1.5-0.6-2.2-0.9c-1.4,5-3.3,9.8-5.8,14.3c-0.7,1.2,0.9,2.4,1.9,1.5c1.5-1.6,2.7-3.1,3.7-5
						c0.7-1.4-1.2-2.4-2.1-1.2c-2.2,2.9-4.1,5.9-5.8,9.1c-0.7,1.2,0.9,2.4,1.9,1.5c1.3-1.2,2.2-2.4,3-4c0.7-1.4-1.2-2.5-2.1-1.2
						c-1.1,1.5-1.7,2.8-2.1,4.5c-0.3,1.1,1.2,2.2,2,1.2c1.2-1.5,1.2-1.6,2-3.3c0.5-1.3-1.5-2.1-2.2-0.9c-0.6,0.9-1.1,1.9-1.7,2.8
						c-0.7,1.2,0.9,2.4,1.9,1.5c0.9-0.8,0.9-1.1,1-2.3c0.1-1-1.4-1.6-2-0.8c-1.4,1.6-2.1,3-2.4,5.1c-0.2,1.2,1,2,2,1.2
						c1.2-1.1,1.2-1,1.7-2.6c0.4-1.4-1.4-2-2.2-0.9c-2.2,3-1.7,6.1-0.7,9.5c0.7-0.3,1.5-0.6,2.2-0.9c-0.3-0.7-0.6-1.3-0.9-2
						c-0.5-1.1-2.4-0.6-2.2,0.6c0.2,1.8,0.7,2.6,2.1,3.6c0.9,0.7,2-0.4,1.8-1.4c-0.1-0.9-0.2-1.9-0.3-2.8c0-1.5-2.4-1.5-2.4,0
						c0,1,0,1.9,0,2.9c0.8-0.1,1.6-0.2,2.4-0.3c-0.1-1.2-0.4-2.4-1-3.4c-0.8,0.2-1.5,0.4-2.3,0.6c0.2,0.4,0.4,0.9,0.6,1.3
						c0.4,1,2,1.2,2.3,0c0.1-0.5,0.3-1.1,0.4-1.6c-0.8-0.1-1.6-0.2-2.4-0.3c-0.1,1.8-0.2,4.1,2,4.4c0.6,0.1,1.3-0.1,1.5-0.8
						c0.3-1.3,0.1-2.6-0.1-4c-0.2-1.5-2.3-1.6-2.4,0c-0.1,1.8,0.1,3,0.9,4.5c0.5,1,1.9,0.6,2.2-0.3c0.3-1,0.3-1.2,0.1-2.2
						c-0.8,0.2-1.5,0.4-2.3,0.6c0.5,1.2,1.4,2.8,3,2c1.7-0.8,0.8-3.3,0.5-4.5c-0.3-1.1-2.1-1.2-2.3,0c-0.5,2.3,1.8,4.2,3.8,2.4
						c1.8-1.7,0.8-5.1-1.3-6c-0.8-0.3-1.5,0.5-1.5,1.2c-0.1,7,9.1,4.3,6.1-0.6c-0.5-0.8-2-0.8-2.2,0.3c-0.3,1.7-0.3,1.8,0.6,3.3
						C77.8,156.2,79.9,155,79.1,153.7L79.1,153.7z"/>
				</g>
			</g>
			<g>
				<g>
					<path class="st0" d="M78.4,131.4c-0.9,2.7-1.9,5.3-3.2,7.8c-0.8,1.7-2,5.4-3.8,6c0.5,0.3,1,0.6,1.5,0.8c0-0.4,0.1-0.9,0.1-1.3
						c-0.8,0-1.5,0-2.3,0c-0.2,0.5-0.3,1-0.5,1.5c0.7,0.2,1.3,0.4,2,0.5c0.1-0.4,0.1-0.7,0.2-1.1c0.6-1.4-1.7-2-2.3-0.6
						c-0.4,1.1-0.4,1.2-0.2,2.4c0.2,0.9,1.4,1.1,2,0.5c1.1-1.1,1.4-2.2,1.1-3.8c-0.2-1.2-2-1.1-2.3,0c-0.3,1.2-0.3,1.4-0.1,2.6
						c0.1,0.6,0.9,1,1.5,0.8c2.4-0.8,3.4-3.5,4.5-5.6c1.6-3.2,3-6.5,4.2-9.8C81.3,130.6,78.9,130,78.4,131.4L78.4,131.4z"/>
				</g>
			</g>
			<g>
				<g>
					<path class="st0" d="M80.8,129c0.4-1.4,0.9-2.8,1.3-4.2c0.4-1.3-1.7-2.2-2.2-0.9c-0.8,1.8-1.6,3.7-2.4,5.5
						c0.7,0.2,1.5,0.4,2.2,0.6c-0.1-2.2,0.2-4.2,0.9-6.3c0.5-1.5-1.7-2-2.3-0.6c-0.6,1.5-1.3,3.1-1.9,4.6c0.8,0.1,1.6,0.2,2.4,0.3
						c-0.3-1-0.1-2,0.6-2.9c-0.7-0.2-1.5-0.4-2.2-0.6c0,0.5,0,1-0.1,1.5c0.8,0.1,1.6,0.2,2.4,0.3c0.2-1.9,0.5-3.8,0.7-5.7
						c0.2-1.4-2-1.6-2.4-0.3c-0.6,1.9-1.1,3.9-1.7,5.8c0.8,0.1,1.6,0.2,2.4,0.3c0.1-1.5,0.5-2.6,1.2-3.9c-0.7-0.2-1.5-0.4-2.2-0.6
						c-0.1,1.8-0.4,3.5-0.9,5.3c0.8,0.2,1.5,0.4,2.3,0.6c0.3-1.3,0.6-2.6,1-3.9c0.4-1.5-1.9-2.1-2.3-0.6c-0.3,0.9-0.6,1.9-0.9,2.8
						c0.8,0.2,1.5,0.4,2.3,0.6c0.8-2.9,1.7-5.8,2.8-8.6c-0.8-0.1-1.6-0.2-2.4-0.3c0,1.7-0.2,3.2-0.6,4.8c0.8,0,1.5,0,2.3,0
						c-0.4-2-0.2-3.6,0.5-5.5c-0.8-0.1-1.6-0.2-2.4-0.3c0.3,2.5,0.3,4.8-0.1,7.3c0.8,0,1.5,0,2.3,0c-1-2.9-0.9-5.4,0.2-8.3
						c-0.8,0-1.5,0-2.3,0c0.8,3.7,1.2,7.3,1.3,11.1c0.8-0.1,1.6-0.2,2.4-0.3c-0.6-2.4-0.8-4.8-0.7-7.3c-0.7,0.2-1.5,0.4-2.2,0.6
						c1.3,2.6,2.4,5.2,3.2,8c0.7-0.3,1.5-0.6,2.2-0.9c-1.1-2.4-2-4.7-2.7-7.2c-0.7,0.3-1.5,0.6-2.2,0.9c1.6,2.3,3,4.7,4.1,7.3
						c0.7-0.3,1.5-0.6,2.2-0.9c-0.8-1.5-1.7-3-2.5-4.4c-0.6,0.5-1.3,1-1.9,1.5c1.4,1.7,2.7,3.4,4.1,5c0.6-0.6,1.1-1.1,1.7-1.7
						c-1.1-1.3-2.3-2.6-3.4-3.8c-0.6,0.6-1.1,1.1-1.7,1.7c2.5,2.3,4.9,4.6,7.4,6.9c0.5-0.6,1-1.3,1.5-1.9c-2.3-1.4-4.4-2.9-6.4-4.6
						c-1.2-1-2.8,0.6-1.7,1.7c0.9,0.8,1.7,1.6,2.6,2.4c1,1,2.4-0.2,1.9-1.5c-1.6-3.5-2.5-7.2-2.9-11c-0.1-1.3-2-1.7-2.4-0.3
						c-0.4,1.7-0.7,3.5-0.9,5.3c0.7-0.2,1.5-0.4,2.2-0.6c-0.8-1.6-0.8-3.2-0.3-4.9c0.5-1.5-1.8-2.1-2.3-0.6
						c-0.8,2.4-0.6,4.5,0.5,6.7c0.6,1.2,2.1,0.5,2.2-0.6c0.2-1.6,0.5-3.1,0.8-4.6c-0.8-0.1-1.6-0.2-2.4-0.3
						c0.4,4.3,1.4,8.3,3.2,12.3c0.6-0.5,1.3-1,1.9-1.5c-0.9-0.8-1.7-1.6-2.6-2.4c-0.6,0.6-1.1,1.1-1.7,1.7c2.2,1.8,4.5,3.5,6.9,4.9
						c1.2,0.7,2.5-0.9,1.5-1.9c-2.5-2.3-4.9-4.6-7.4-6.9c-1.1-1.1-2.7,0.5-1.7,1.7c1.1,1.3,2.3,2.6,3.4,3.8c1,1.2,2.7-0.5,1.7-1.7
						c-1.4-1.7-2.7-3.4-4.1-5c-0.9-1.1-2.5,0.3-1.9,1.5c0.8,1.5,1.7,3,2.5,4.4c0.7,1.1,2.7,0.4,2.2-0.9c-1.2-2.8-2.6-5.4-4.3-7.9
						c-0.8-1.1-2.6-0.5-2.2,0.9c0.8,2.7,1.7,5.3,2.9,7.8c0.6,1.2,2.6,0.4,2.2-0.9c-0.9-2.9-2.1-5.8-3.5-8.5
						c-0.6-1.1-2.2-0.5-2.2,0.6c-0.1,2.7,0.2,5.3,0.8,7.9c0.3,1.3,2.4,1,2.4-0.3c0-4-0.5-7.8-1.4-11.7c-0.3-1.3-1.9-1-2.3,0
						c-1.3,3.2-1.3,6.3-0.2,9.5c0.3,1,2.1,1.3,2.3,0c0.4-2.7,0.5-5.3,0.2-7.9c-0.2-1.3-1.9-1.6-2.4-0.3c-0.9,2.3-1,4.4-0.5,6.8
						c0.2,1.2,2,1.1,2.3,0c0.5-1.8,0.7-3.6,0.7-5.5c0-1.4-1.9-1.5-2.4-0.3c-1.1,2.8-2,5.7-2.8,8.6c-0.4,1.5,1.9,2.1,2.3,0.6
						c0.3-0.9,0.6-1.9,0.9-2.8c-0.8-0.2-1.5-0.4-2.3-0.6c-0.3,1.3-0.6,2.6-1,3.9c-0.4,1.5,1.9,2.1,2.3,0.6c0.5-2,0.8-3.9,1-5.9
						c0.1-1.2-1.7-1.6-2.2-0.6c-0.9,1.7-1.4,3.2-1.5,5.1c-0.1,1.4,2,1.6,2.4,0.3c0.6-1.9,1.1-3.9,1.7-5.8c-0.8-0.1-1.6-0.2-2.4-0.3
						c-0.2,1.9-0.5,3.8-0.7,5.7c-0.2,1.4,2,1.6,2.4,0.3c0.3-1,0.3-1,0.1-2.1c-0.1-1.1-1.6-1.7-2.2-0.6c-0.8,1.4-1.1,2.5-0.9,4.1
						c0.2,1.4,1.8,1.6,2.4,0.3c0.6-1.5,1.3-3.1,1.9-4.6c-0.8-0.2-1.5-0.4-2.3-0.6c-0.8,2.3-1.1,4.5-1,7c0.1,1.1,1.7,1.8,2.2,0.6
						c0.8-1.8,1.6-3.7,2.4-5.5c-0.7-0.3-1.5-0.6-2.2-0.9c-0.4,1.4-0.9,2.8-1.3,4.2C78,129.8,80.4,130.5,80.8,129L80.8,129z"/>
				</g>
			</g>
			<g>
				<g>
					<path class="st0" d="M83,120c-0.1-2.3-0.1-4.6,0.3-6.9c0.2-1.5-1.8-2.1-2.3-0.6c-0.7,1.8-1.4,3.6-2,5.3
						c0.7-0.1,1.5-0.2,2.2-0.3c-0.8-1.2-0.9-2.5-0.2-3.8c-0.7-0.1-1.5-0.2-2.2-0.3c0.3,1.2,0.6,2.4,0.6,3.7c0.1,1.5,2.3,1.5,2.4,0
						c0.1-2.4,0.3-4.7,0.4-7.1c-0.8,0-1.6,0-2.4,0c0,1.8-0.3,3.4-1,5.1c0.8,0.1,1.6,0.2,2.4,0.3c0.1-2.1,0.4-4.1,0.7-6.1
						c0.3-1.5-1.8-2.1-2.3-0.6c-0.2,0.6-0.4,1.2-0.6,1.8c0.8,0,1.5,0,2.3,0c-0.3-0.9-0.2-1,0.2-0.2c-0.2,0.6-0.4,1.1-0.5,1.7
						c-0.2,0.7-0.3,1.4-0.4,2.1c-0.3,1.9-0.2,3.8,0.2,5.8c0.2,1.2,2.1,1.1,2.3,0c0.7-3.4,0.9-6.9,0.8-10.4c-0.8,0.1-1.6,0.2-2.4,0.3
						c0.4,2.5,0.5,5.1,0.6,7.6c0.8-0.1,1.6-0.2,2.4-0.3c-0.9-2.3-1.3-4.6-1.2-7c-0.8,0-1.6,0-2.4,0c0.2,1.7,0.3,3.4,0.5,5.2
						c0.1,1.5,2.4,1.6,2.4,0c0-2.3-0.1-4.7-0.3-7c-0.8,0-1.6,0-2.4,0c0.2,2,0.4,4,0.6,6c0.1,1.5,2.4,1.6,2.4,0c0-2,0-3.9,0-5.9
						c0-1.5-2.4-1.5-2.4,0c0,2,0,3.9,0,5.9c0.8,0,1.6,0,2.4,0c-0.2-2-0.4-4-0.6-6c-0.1-1.5-2.5-1.5-2.4,0c0.2,2.3,0.3,4.7,0.3,7
						c0.8,0,1.6,0,2.4,0c-0.2-1.7-0.3-3.4-0.5-5.2c-0.1-1.5-2.4-1.6-2.4,0c-0.1,2.7,0.4,5.2,1.3,7.7c0.5,1.2,2.4,1.1,2.4-0.3
						c0-2.8-0.3-5.5-0.7-8.3c-0.2-1.3-2.4-1-2.4,0.3c0.1,3.3-0.1,6.5-0.7,9.8c0.8,0,1.5,0,2.3,0c-0.5-3.2,0.2-5.7,0.9-8.7
						c0.3-1.5,0.2-3.2-1.2-4.1c-1-0.6-2.3-0.4-3.1,0.4c-1.2,1.2-0.9,2.9-0.6,4.3c0.3,1.2,1.9,1.1,2.3,0c0.2-0.6,0.4-1.2,0.6-1.8
						c-0.8-0.2-1.5-0.4-2.3-0.6c-0.4,2.2-0.7,4.5-0.8,6.7c-0.1,1.4,1.9,1.5,2.4,0.3c0.7-1.9,1.1-3.7,1.1-5.7c0-1.6-2.3-1.5-2.4,0
						c-0.1,2.4-0.3,4.7-0.4,7.1c0.8,0,1.6,0,2.4,0c-0.1-1.5-0.3-2.9-0.7-4.4c-0.3-1-1.7-1.2-2.2-0.3c-1.1,2-1.1,4.2,0.2,6.2
						c0.6,0.9,1.8,0.7,2.2-0.3c0.7-1.8,1.4-3.6,2-5.3c-0.8-0.2-1.5-0.4-2.3-0.6c-0.4,2.5-0.5,5-0.4,7.5
						C80.7,121.5,83.1,121.6,83,120L83,120z"/>
				</g>
			</g>
			<g>
				<g>
					<path class="st0" d="M85.9,129.8c2.2,1.3,4.4,2.5,6.6,3.8c1.2,0.7,2.4-0.9,1.5-1.9c-2-2-4.1-4.1-6.1-6.1
						c-0.6,0.6-1.1,1.1-1.7,1.7c1.9,1.8,3.9,3.3,6.2,4.6c1.4,0.8,2.5-1.2,1.2-2.1c-1.1-0.7-2.1-1.4-3.2-2.1
						c-0.3,0.7-0.6,1.5-0.9,2.2c3.8,0.8,7.5,1.9,11.2,3.2c0.2-0.8,0.4-1.5,0.6-2.3c-2.2-0.4-4.4-0.8-6.6-1.1
						c-1.5-0.3-2.2,1.9-0.6,2.3c4.4,1.2,8.7,1.6,13.2,1.3c1.5-0.1,1.6-2.5,0-2.4c-2.1,0.1-4.1,0.3-6.1,0.6c0.2,0.8,0.4,1.5,0.6,2.3
						c2.2-0.7,4.3-1.5,6.5-2.2c-0.3-0.7-0.6-1.5-0.9-2.2c-2.7,1.2-5.2,1.6-8.1,1.4c0.1,0.8,0.2,1.6,0.3,2.4
						c5.5-1.5,14.2-2.1,17.8-7.1c0.8-1.1-1-2.5-1.9-1.5c-1.4,1.6-2.6,3.3-3.7,5.1c-0.8,1.3,1.2,2.5,2.1,1.2c1.4-2.1,2.8-4.1,4.2-6.2
						c-0.7-0.3-1.5-0.6-2.2-0.9c-0.7,3.6-0.9,7.1-0.7,10.7c0.1,1.4,1.9,1.5,2.4,0.3c1.3-3.2,2.1-6.4,2.4-9.8
						c-0.8,0.1-1.6,0.2-2.4,0.3c0.5,3.4,1,6.8,1.5,10.2c0.2,1.3,2.5,1,2.4-0.3c-0.4-3.6-0.9-7.2-1.6-10.8c-0.8,0.2-1.5,0.4-2.3,0.6
						c1.3,4,2.4,8,3.3,12c0.4,1.5,2.6,0.9,2.3-0.6c-0.7-3.8-1.3-7.7-2-11.5c-0.7,0.3-1.5,0.6-2.2,0.9c1.5,3.1,2.3,6,2.6,9.4
						c0.7-0.2,1.5-0.4,2.2-0.6c-1.2-2.3-1.9-4.5-2.3-7.1c-0.8,0.2-1.5,0.4-2.3,0.6c1,3.4,1.6,6.7,2,10.2c0.7-0.2,1.5-0.4,2.2-0.6
						c-2-2.6-3.3-5.3-4-8.5c-0.4-1.5-2.5-0.8-2.3,0.6c0.4,2.3,0.4,4.5-0.2,6.8c-0.3,1.5,2,2.2,2.3,0.6c0.5-2.8,0.6-5.3,0.2-8
						c-0.8,0.2-1.5,0.4-2.3,0.6c0.8,3.5,2.1,6.3,4.2,9.1c0.6,0.8,2.4,0.7,2.2-0.6c-0.3-3.7-1-7.2-2.1-10.8c-0.4-1.5-2.6-0.9-2.3,0.6
						c0.4,2.7,1.3,5.2,2.5,7.6c0.5,1,2.3,0.6,2.2-0.6c-0.3-3.8-1.3-7.2-2.9-10.6c-0.6-1.3-2.4-0.3-2.2,0.9c0.7,3.8,1.3,7.7,2,11.5
						c0.8-0.2,1.5-0.4,2.3-0.6c-1-4.1-2.1-8.1-3.3-12c-0.5-1.5-2.6-0.9-2.3,0.6c0.7,3.4,1.2,6.8,1.6,10.2c0.8-0.1,1.6-0.2,2.4-0.3
						c-0.5-3.4-1-6.8-1.5-10.2c-0.2-1.4-2.2-0.9-2.4,0.3c-0.3,3.2-1.1,6.2-2.3,9.2c0.8,0.1,1.6,0.2,2.4,0.3c-0.2-3.4,0-6.7,0.6-10.1
						c0.2-1.3-1.4-2.1-2.2-0.9c-1.4,2.1-2.8,4.1-4.2,6.2c0.7,0.4,1.4,0.8,2.1,1.2c1-1.7,2.1-3.2,3.4-4.6c-0.6-0.5-1.3-1-1.9-1.5
						c-2.8,4-12,4.8-16.3,6c-1.4,0.4-1,2.3,0.3,2.4c3.4,0.3,6.3-0.3,9.4-1.7c1.2-0.6,0.4-2.6-0.9-2.2c-2.2,0.7-4.3,1.5-6.5,2.2
						c-1.5,0.5-0.9,2.5,0.6,2.3c1.8-0.3,3.6-0.5,5.5-0.5c0-0.8,0-1.6,0-2.4c-4.3,0.2-8.4-0.2-12.6-1.2c-0.2,0.8-0.4,1.5-0.6,2.3
						c2.2,0.4,4.4,0.8,6.6,1.1c1.5,0.3,2.1-1.8,0.6-2.3c-3.7-1.3-7.4-2.4-11.2-3.2c-1.3-0.3-2.1,1.4-0.9,2.2
						c1.1,0.7,2.1,1.4,3.2,2.1c0.4-0.7,0.8-1.4,1.2-2.1c-2.1-1.2-4-2.5-5.7-4.2c-1.1-1.1-2.8,0.6-1.7,1.7c2,2,4.1,4.1,6.1,6.1
						c0.5-0.6,1-1.3,1.5-1.9c-2.2-1.3-4.4-2.5-6.6-3.8C85.7,127,84.5,129,85.9,129.8L85.9,129.8z"/>
				</g>
			</g>
			<g>
				<g>
					<path class="st0" d="M79,123.8c0.5-1.7,1-3.3,1.5-5c0.4-1.5-1.9-2.1-2.3-0.6c-0.5,1.7-1,3.3-1.5,5
						C76.2,124.7,78.5,125.3,79,123.8L79,123.8z"/>
				</g>
			</g>
			<g>
				<g>
					<path class="st0" d="M81.5,108.9c-0.3-1-0.6-1.9-0.9-2.9c-0.4,0.5-0.8,1-1.2,1.5c1.2-0.1,2.4,0,3.6,0.5
						c0.6,0.3,1.3,0.2,1.6-0.4c0.3-0.5,0.2-1.4-0.4-1.6c-1.5-0.7-3.1-1-4.8-0.8c-0.7,0.1-1.4,0.7-1.2,1.5c0.3,1,0.6,1.9,0.9,2.9
						C79.7,111,82,110.4,81.5,108.9L81.5,108.9z"/>
				</g>
			</g>
			<g>
				<g>
					<path class="st0" d="M119.3,126.5c-0.1-1.7,0-3.2,0.3-4.9c0.3-1.5-1.8-2.1-2.3-0.6c-0.4,1.3-0.7,2.5-1,3.8c0.8,0,1.5,0,2.3,0
						c-0.3-1.3-0.3-2.6,0.1-3.8c0.3-1.2-1.6-2.2-2.2-0.9c-0.4,0.9-0.6,1.4-0.9,2.3c0.8,0.1,1.6,0.2,2.4,0.3c0.1-1.2,0.4-2.5,0.7-3.7
						c-0.8-0.1-1.6-0.2-2.4-0.3c-0.1,0.7-0.3,1.4-0.4,2.2c0.8,0.1,1.6,0.2,2.4,0.3c-0.2-1.2-0.1-2.3,0.4-3.5
						c-0.8-0.1-1.6-0.2-2.4-0.3c-0.1,2-0.2,4-0.4,6c-0.1,1.3,2.2,1.7,2.4,0.3c0.2-1.3,0.5-2.5,0.9-3.8c-0.8,0-1.5,0-2.3,0
						c0.2,1.6,0.5,3.3,0.7,4.9c0.2,1.4,2.3,0.9,2.4-0.3c0.2-2.1,0.4-4.2,0.5-6.3c-0.8,0.1-1.6,0.2-2.4,0.3c0.8,2.2,1.3,4.4,1.5,6.8
						c0.8-0.1,1.6-0.2,2.4-0.3c-0.4-1.7-0.6-3.2-0.4-5c-0.8,0-1.6,0-2.4,0c0.3,2.2,0.6,4.4,0.9,6.6c0.8-0.1,1.6-0.2,2.4-0.3
						c-0.4-1.5-0.6-2.9-0.7-4.4c-0.8,0.1-1.6,0.2-2.4,0.3c0.4,1.1,0.8,2.3,1.2,3.4c0.8-0.2,1.5-0.4,2.3-0.6
						c-1.1-2.8-1.9-5.6-2.4-8.5c-0.3-1.4-2.3-1-2.4,0.3c-0.1,0.6-0.3,1.2-0.4,1.9c0.8,0.1,1.6,0.2,2.4,0.3c-0.2-1.8-0.3-3.5-0.3-5.3
						c0-1.3-2.1-1.7-2.4-0.3c-0.2,1.2-0.4,2.5-0.6,3.7c0.8,0.1,1.6,0.2,2.4,0.3c0-1.3,0.1-2.6,0.3-3.9c0.2-1.4-2-1.6-2.4-0.3
						c-0.3,1.1-0.6,2.2-0.9,3.3c0.8,0.1,1.6,0.2,2.4,0.3c0-0.8,0.1-1.6,0.1-2.4c0.2-1.5-2-2.2-2.3-0.6c-0.2,1.2-0.5,2.3-0.7,3.5
						c0.8,0.2,1.5,0.4,2.3,0.6c0.6-3,2.3-7,0.6-9.8c-0.5-0.9-1.9-0.7-2.2,0.3c-0.5,1.5-0.7,2.9-0.6,4.5c0,1.3,2,1.7,2.4,0.3
						c0.3-1.2,0.6-2.4,0.9-3.6c-0.8,0-1.5,0-2.3,0c0.8,2.1,1,4.1,0.7,6.3c0.8,0,1.6,0,2.4,0c0.1-1.9,0.4-3.8,0.7-5.7
						c-0.8,0-1.5,0-2.3,0c0.4,2.3,0.6,4.6,0.8,6.9c0.8-0.1,1.6-0.2,2.4-0.3c-0.4-1.9-0.5-3.3-0.4-5.2c-0.8,0-1.6,0-2.4,0
						c0,1.5-0.1,3.1-0.1,4.6c0.8,0,1.6,0,2.4,0c-0.1-2.3,0.9-8.4-2.2-9.1c-1.5-0.3-2.1,2-0.6,2.3c0.6,0.1,1.1,0.3,1.7,0.4
						c1.5,0.4,2.1-2,0.6-2.3c-0.6-0.1-1.1-0.3-1.7-0.4c-0.2,0.8-0.4,1.5-0.6,2.3c0.4,0.1,0.4,6,0.4,6.7c0.1,1.5,2.4,1.6,2.4,0
						c0-1.5,0.1-3.1,0.1-4.6c0-1.6-2.3-1.5-2.4,0c-0.1,2,0,3.8,0.5,5.8c0.3,1.3,2.4,1,2.4-0.3c-0.1-2.6-0.4-5.1-0.9-7.6
						c-0.2-1.2-2.1-1.1-2.3,0c-0.4,2.1-0.7,4.2-0.8,6.4c-0.1,1.6,2.2,1.5,2.4,0c0.3-2.5,0.1-4.6-0.8-6.9c-0.4-1-2-1.2-2.3,0
						c-0.3,1.2-0.6,2.4-0.9,3.6c0.8,0.1,1.6,0.2,2.4,0.3c0-1.4,0.1-2.6,0.5-3.9c-0.7,0.1-1.5,0.2-2.2,0.3c1.1,1.9-0.5,6-0.9,8
						c-0.3,1.5,2,2.2,2.3,0.6c0.2-1.2,0.5-2.3,0.7-3.5c-0.8-0.2-1.5-0.4-2.3-0.6c-0.2,1.3-0.2,1.7-0.2,3c0,1.3,2,1.6,2.4,0.3
						c0.3-1.1,0.6-2.2,0.9-3.3c-0.8-0.1-1.6-0.2-2.4-0.3c-0.2,1.3-0.3,2.5-0.3,3.9c0,1.3,2.1,1.7,2.4,0.3c0.2-1.2,0.4-2.5,0.6-3.7
						c-0.8-0.1-1.6-0.2-2.4-0.3c0,1.8,0.1,3.5,0.3,5.3c0.2,1.3,1.8,1.6,2.4,0.3c0.5-1.2,0.5-1.2,0.5-2.5c-0.8,0.1-1.6,0.2-2.4,0.3
						c0.6,2.9,1.4,5.7,2.4,8.5c0.5,1.4,2.8,0.8,2.3-0.6c-0.4-1.1-0.8-2.3-1.2-3.4c-0.4-1.2-2.4-1.1-2.4,0.3c0.1,1.7,0.3,3.4,0.8,5
						c0.3,1.3,2.5,1,2.4-0.3c-0.3-2.2-0.6-4.4-0.9-6.6c-0.2-1.5-2.3-1.6-2.4,0c-0.1,2,0,3.7,0.5,5.6c0.3,1.3,2.5,1.1,2.4-0.3
						c-0.3-2.5-0.8-5-1.6-7.4c-0.4-1.3-2.2-1-2.4,0.3c-0.2,2.1-0.4,4.2-0.5,6.3c0.8-0.1,1.6-0.2,2.4-0.3c-0.2-1.6-0.5-3.3-0.7-4.9
						c-0.2-1.2-2-1-2.3,0c-0.4,1.3-0.7,2.5-0.9,3.8c0.8,0.1,1.6,0.2,2.4,0.3c0.1-2,0.2-4,0.4-6c0.1-1.4-2-1.6-2.4-0.3
						c-0.4,1.4-0.6,2.6-0.5,4.1c0.1,1.3,2,1.7,2.4,0.3c0.3-1.2,0.4-1.6,0.5-2.8c0.2-1.4-2-1.6-2.4-0.3c-0.4,1.4-0.6,2.8-0.8,4.3
						c-0.2,1.4,2,1.5,2.4,0.3c0.2-0.6,0.4-1.2,0.6-1.8c-0.7-0.3-1.5-0.6-2.2-0.9c-0.4,1.8-0.4,3.3-0.1,5.1c0.2,1.1,2.1,1.1,2.3,0
						c0.2-1.3,0.5-2.5,1-3.8c-0.8-0.2-1.5-0.4-2.3-0.6c-0.3,1.9-0.4,3.7-0.3,5.6C117,128,119.4,128.1,119.3,126.5L119.3,126.5z"/>
				</g>
			</g>
			<g>
				<g>
					<path class="st0" d="M121.5,127.2c0-2.7,0-5.4-0.1-8c0-1.2-1.6-1.6-2.2-0.6c-0.8,1.2-1,2.1-0.9,3.6c0.2,1.5,2.3,1.6,2.4,0
						c0.1-1,0.1-2.1,0.2-3.1c-0.8,0-1.6,0-2.4,0c0.3,3.5,0.4,7,0.3,10.5c-0.1,1.4,1.9,1.5,2.4,0.3c0.6-1.8,0.7-3.3,0.6-5.2
						c-0.8,0.1-1.6,0.2-2.4,0.3c0.4,2.4,1,4.8,1.6,7.2c0.3,1.3,2.4,1.1,2.4-0.3c-0.1-1.8-0.3-3.4-0.8-5.2c-0.3-1.3-2.4-1-2.4,0.3
						c0.1,1.7,0.3,3.3,0.7,4.9c0.3,1.3,2.5,1,2.4-0.3c-0.2-1.6-0.4-3.1-0.8-4.6c-0.4-1.5-2.6-0.9-2.3,0.6c0.8,3.6,1.5,7.2,2.3,10.9
						c0.3,1.5,2.6,0.9,2.3-0.6c-0.4-2.4-1.1-4.7-2.1-6.9c-0.5-1.2-2.7-0.3-2.2,0.9c1.3,3.3,2.6,6.7,4,10c0.6,1.4,2.6,0.9,2.3-0.6
						c-0.5-2.8-1.4-5.5-2.6-8.1c-0.6-1.2-2.6-0.4-2.2,0.9c0.9,2.6,1.7,5.1,2.6,7.7c0.5,1.5,2.8,0.8,2.3-0.6
						c-1.4-4.4-2.9-8.8-4.3-13.1c-0.4-1.2-2.5-1.1-2.4,0.3c0.5,3.5,1.3,6.7,2.6,9.9c0.4,1.1,2.5,1.1,2.4-0.3
						c-0.3-2.8-0.8-5.7-1.3-8.5c-0.2-1.3-2.5-1-2.4,0.3c0.1,1.7,0.2,3.3,0.4,5c0.1,1.5,2.5,1.5,2.4,0c-0.1-1.7-0.2-3.3-0.4-5
						c-0.8,0.1-1.6,0.2-2.4,0.3c0.5,2.6,0.9,5.2,1.2,7.8c0.8-0.1,1.6-0.2,2.4-0.3c-1.2-3.1-2-6-2.5-9.3c-0.8,0.1-1.6,0.2-2.4,0.3
						c1.4,4.4,2.9,8.8,4.3,13.1c0.8-0.2,1.5-0.4,2.3-0.6c-0.9-2.6-1.7-5.1-2.6-7.7c-0.7,0.3-1.5,0.6-2.2,0.9
						c1.1,2.5,1.9,4.9,2.3,7.5c0.8-0.2,1.5-0.4,2.3-0.6c-1.3-3.3-2.6-6.7-4-10c-0.7,0.3-1.5,0.6-2.2,0.9c0.9,2.1,1.5,4.1,1.9,6.3
						c0.8-0.2,1.5-0.4,2.3-0.6c-0.8-3.6-1.5-7.2-2.3-10.9c-0.8,0.2-1.5,0.4-2.3,0.6c0.4,1.3,0.6,2.6,0.8,4c0.8-0.1,1.6-0.2,2.4-0.3
						c-0.4-1.4-0.6-2.8-0.6-4.3c-0.8,0.1-1.6,0.2-2.4,0.3c0.4,1.5,0.7,3,0.7,4.6c0.8-0.1,1.6-0.2,2.4-0.3c-0.6-2.4-1.2-4.8-1.6-7.2
						c-0.2-1.3-2.4-1-2.4,0.3c0.1,1.6,0.1,3-0.5,4.6c0.8,0.1,1.6,0.2,2.4,0.3c0.2-3.5,0.1-7-0.3-10.5c-0.2-1.5-2.3-1.6-2.4,0
						c-0.1,1-0.1,2.1-0.2,3.1c0.8,0,1.6,0,2.4,0c0.2-0.8,0.4-1.6,0.5-2.4c-0.7-0.2-1.5-0.4-2.2-0.6c0,2.7,0,5.4,0.1,8
						C119.1,128.8,121.5,128.8,121.5,127.2L121.5,127.2z"/>
				</g>
			</g>
			<g>
				<g>
					<path class="st0" d="M124.9,192.8c0.5-2.2,0.9-4.4,1.4-6.7c-0.8-0.1-1.6-0.2-2.4-0.3c0,2.5,0.1,5.1,0.1,7.6
						c0,1.3,2.1,1.7,2.4,0.3c0.3-1.4,0.6-2.9,0.9-4.3c-0.8-0.1-1.6-0.2-2.4-0.3c-0.1,1.2-0.2,2.3-0.3,3.5c-0.1,1.3,2.1,1.6,2.4,0.3
						c0.2-1.1,0.5-2.3,0.7-3.4c-0.8-0.1-1.6-0.2-2.4-0.3c0,1.2-0.1,2.5-0.1,3.7c0,1.5,2.3,1.5,2.4,0c0.1-3.6,0.6-7.1,1.4-10.6
						c-0.8-0.2-1.5-0.4-2.3-0.6c-0.3,1.6-0.5,3.1-0.8,4.7c0.8,0.1,1.6,0.2,2.4,0.3c0.1-3.2,0.1-6.4,0.2-9.6c-0.8,0-1.6,0-2.4,0
						c0.2,1.9,0.2,3.5,0,5.4c0.8,0,1.6,0,2.4,0c0.2-2.7,0.4-5.4,0.5-8c0.1-1.3-2.1-1.7-2.4-0.3c-1.1,6.8-1.6,13.7-1.6,20.6
						c0,1.3,2.1,1.7,2.4,0.3c1.2-5.9,0.8-12,0.8-17.9c0-7,0.1-13.9,0.1-20.9c-0.8,0-1.6,0-2.4,0c0.2,1.4,0.3,2.8,0.5,4.2
						c0.2,1.2,2,1.8,2.4,0.3c0.6-2.7,0.9-5.3,0.8-8.1c-0.8,0-1.6,0-2.4,0c0.2,2.6,0.2,5.1,0.1,7.6c-0.1,1.4,2,1.6,2.4,0.3
						c0.6-2.1,0.9-4,0.9-6.1c0-1.4-1.9-1.6-2.4-0.3c-0.7,1.9-1,3.6-1.1,5.6c0.8,0,1.6,0,2.4,0c0-2.3,0-4.6,0-6.9
						c-0.7,0.2-1.5,0.4-2.2,0.6c0.2,0.6,0.5,1.1,0.7,1.7c0.6,1.3,2.5,0.3,2.2-0.9c-0.5-2.3-1.2-3.9-2.6-5.8c-0.9-1.2-3,0-2.1,1.2
						c1.2,1.6,1.9,3.3,2.3,5.2c0.7-0.3,1.5-0.6,2.2-0.9c-0.2-0.6-0.5-1.1-0.7-1.7c-0.5-1.1-2.2-0.5-2.2,0.6c0,2.3,0,4.6,0,6.9
						c0,1.6,2.3,1.5,2.4,0c0-1.7,0.4-3.4,1.1-5c-0.8-0.1-1.6-0.2-2.4-0.3c0,1.9-0.3,3.6-0.8,5.5c0.8,0.1,1.6,0.2,2.4,0.3
						c0.1-2.6,0.1-5.1-0.1-7.6c-0.1-1.5-2.4-1.6-2.4,0c0.1,2.6-0.1,5-0.7,7.5c0.8,0.1,1.6,0.2,2.4,0.3c-0.2-1.4-0.3-2.8-0.5-4.2
						c-0.2-1.5-2.4-1.6-2.4,0c0,6.3-0.1,12.6-0.1,18.9c0,6.3,0.5,13-0.8,19.3c0.8,0.1,1.6,0.2,2.4,0.3c0-6.7,0.5-13.3,1.5-20
						c-0.8-0.1-1.6-0.2-2.4-0.3c-0.2,2.7-0.4,5.4-0.5,8c-0.1,1.6,2.2,1.5,2.4,0c0.3-1.9,0.3-3.5,0-5.4c-0.2-1.5-2.4-1.6-2.4,0
						c-0.1,3.2-0.1,6.4-0.2,9.6c0,1.3,2.1,1.7,2.4,0.3c0.3-1.6,0.5-3.1,0.8-4.7c0.3-1.5-2-2.2-2.3-0.6c-0.8,3.8-1.3,7.4-1.4,11.3
						c0.8,0,1.6,0,2.4,0c0-1.2,0.1-2.5,0.1-3.7c0-1.3-2.1-1.7-2.4-0.3c-0.2,1.1-0.5,2.3-0.7,3.4c0.8,0.1,1.6,0.2,2.4,0.3
						c0.1-1.2,0.2-2.3,0.3-3.5c0.1-1.3-2.1-1.6-2.4-0.3c-0.3,1.4-0.6,2.9-0.9,4.3c0.8,0.1,1.6,0.2,2.4,0.3c0-2.5-0.1-5.1-0.1-7.6
						c0-1.3-2.1-1.7-2.4-0.3c-0.5,2.2-0.9,4.4-1.4,6.7C122.3,193.7,124.6,194.3,124.9,192.8L124.9,192.8z"/>
				</g>
			</g>
			<g>
				<g>
					<path class="st0" d="M127.4,153.6c0.3-1.3,0.4-2.7,0.3-4c-0.7,0.2-1.5,0.4-2.2,0.6c0.6,0.9,1.1,1.8,1.7,2.7
						c0.8,1.2,2.4,0.4,2.2-0.9c-0.1-0.8-0.3-1.5-0.4-2.3c-0.6,0.5-1.2,0.9-1.8,1.4c0.4,0.2,0.5,0.5,0.6,1c0.7-0.3,1.5-0.6,2.2-0.9
						c-0.5-0.8-1-1.6-1.3-2.6c-0.7,0.3-1.5,0.6-2.2,0.9c0.4,0.7,0.7,1.3,0.8,2.1c0.7-0.3,1.5-0.6,2.2-0.9c-0.3-0.4-0.4-0.9-0.5-1.4
						c-0.7,0.2-1.5,0.4-2.2,0.6c0.7,1.1,1.2,2.2,1.3,3.5c0.1,1.5,2.5,1.5,2.4,0c-0.2-1.7-0.7-3.3-1.6-4.7c-0.6-0.9-2.4-0.7-2.2,0.6
						c0.1,0.9,0.3,1.8,0.8,2.6c0.7,1.2,2.5,0.4,2.2-0.9c-0.2-0.9-0.6-1.8-1.1-2.7c-0.7-1.1-2.7-0.4-2.2,0.9c0.4,1.1,0.9,2.1,1.5,3.1
						c0.8,1.2,2.4,0.4,2.2-0.9c-0.1-1-0.8-1.9-1.7-2.4c-1-0.5-2,0.4-1.8,1.4c0.1,0.8,0.3,1.5,0.4,2.3c0.7-0.3,1.5-0.6,2.2-0.9
						c-0.6-0.9-1.1-1.8-1.7-2.7c-0.6-1-2.3-0.6-2.2,0.6c0,1.1,0,2.3-0.3,3.4C124.8,154.4,127.1,155.1,127.4,153.6L127.4,153.6z"/>
				</g>
			</g>
		</g>
		<g>
			<g>
				<path class="st0" d="M92,144c-0.1,0-0.1-0.1-0.2-0.1c0.4,0.3,0.8,0.6,1.2,0.9c0,0,0,0-0.1-0.1c0.3,0.4,0.6,0.8,0.9,1.2
					c0-0.1-0.1-0.1-0.1-0.2c0.2,0.5,0.4,1,0.6,1.4c0-0.1,0-0.1-0.1-0.2c0.1,0.5,0.1,1.1,0.2,1.6c0-0.1,0-0.2,0-0.3
					c-0.1,0.5-0.1,1.1-0.2,1.6c0-0.1,0-0.1,0.1-0.2c-0.2,0.5-0.4,1-0.6,1.4c0-0.1,0.1-0.1,0.1-0.2c-0.3,0.4-0.6,0.8-0.9,1.2
					c0,0,0.1-0.1,0.1-0.1c-0.4,0.3-0.8,0.6-1.2,0.9c0.1-0.1,0.1-0.1,0.2-0.1c-0.5,0.2-1,0.4-1.4,0.6c0.1,0,0.2-0.1,0.3-0.1
					c-0.5,0.1-1.1,0.1-1.6,0.2c0.1,0,0.2,0,0.3,0c-0.5-0.1-1.1-0.1-1.6-0.2c0.1,0,0.3,0.1,0.4,0.1c-0.5-0.2-1-0.4-1.4-0.6
					c0.1,0,0.2,0.1,0.2,0.1c-0.4-0.3-0.8-0.6-1.2-0.9c0.1,0.1,0.1,0.1,0.2,0.2c-0.3-0.4-0.6-0.8-0.9-1.2c0.1,0.1,0.1,0.2,0.2,0.3
					c-0.2-0.5-0.4-1-0.6-1.4c0.1,0.1,0.1,0.3,0.1,0.4c-0.1-0.5-0.1-1.1-0.2-1.6c0,0.2,0,0.4,0,0.6c0.1-0.5,0.1-1.1,0.2-1.6
					c0,0.1-0.1,0.3-0.1,0.4c0.2-0.5,0.4-1,0.6-1.4c0,0.1-0.1,0.2-0.1,0.2c0.3-0.4,0.6-0.8,0.9-1.2c0,0-0.1,0.1-0.1,0.1
					c0.4-0.3,0.8-0.6,1.2-0.9c-0.1,0.1-0.1,0.1-0.2,0.1c0.5-0.2,1-0.4,1.4-0.6c0,0-0.1,0-0.1,0c0.5-0.1,1.1-0.1,1.6-0.2
					c-0.1,0-0.2,0-0.3,0c0.5,0.1,1.1,0.1,1.6,0.2c0,0-0.1,0-0.1,0c0.5,0.2,1,0.4,1.4,0.6c0,0-0.1,0-0.1-0.1c0.4,0.3,0.8,0.6,1.2,0.9
					c-0.1,0-0.1-0.1-0.2-0.2c0.3,0.4,0.6,0.8,0.9,1.2c0,0,0-0.1-0.1-0.1c0.2,0.5,0.4,1,0.6,1.4c0-0.1-0.1-0.2-0.1-0.3
					c0.1,0.5,0.1,1.1,0.2,1.6c0,0,0-0.1,0-0.1c-0.1,0.5-0.1,1.1-0.2,1.6c0-0.1,0-0.2,0.1-0.2c-0.2,0.5-0.4,1-0.6,1.4
					c0,0,0-0.1,0.1-0.1c0.8-1.3,1-3.2,0.6-4.6c-0.4-1.4-1.5-2.9-2.8-3.6c-1.4-0.7-3.1-1.1-4.6-0.6c-1.5,0.5-2.7,1.4-3.6,2.8
					c-0.6,1-1,2.4-1,3.5c0.1,1.2,0.3,2.3,0.9,3.4c1.5,2.5,4.6,3.8,7.5,3c2.3-0.6,4.2-2.5,4.8-4.8c0.2-0.6,0.2-1.3,0.3-1.9
					c0-0.2,0-0.3,0-0.4c-0.1-1.2-0.2-1.8-0.7-2.9c-0.8-2-2.5-3.6-4.7-4.1c-0.5-0.1-1.3-0.2-1.8-0.3c-0.6,0-1.4,0.1-1.9,0.2
					c-1.1,0.3-1.7,0.7-2.5,1.3c-1.7,1.3-2.7,3.3-2.6,5.5c0,1.2,0.3,2.4,0.9,3.4c0.2,0.4,0.7,1,1.1,1.4c0.4,0.4,0.9,0.8,1.4,1
					c1.4,0.7,3,1,4.6,0.6c1.4-0.4,2.9-1.5,3.6-2.8c0.7-1.4,1.1-3.1,0.6-4.6C94.3,146.2,93.4,144.7,92,144L92,144z"/>
			</g>
		</g>
		<g>
			<g>
				<path class="st0" d="M95.5,145.6c-0.1-0.1-0.1-0.2-0.2-0.3c-0.6-1.3-2.2-2.4-3.6-2.8c-1.4-0.4-3.3-0.2-4.6,0.6
					c-1.3,0.8-2.4,2.1-2.8,3.6c-0.1,0.5-0.1,1.1-0.2,1.6c0,1.1,0.3,2.1,0.8,3c0.1,0.1,0.1,0.2,0.2,0.3c0.6,1.3,2.2,2.4,3.6,2.8
					c1.4,0.4,3.3,0.2,4.6-0.6c1.3-0.8,2.4-2.1,2.8-3.6c0.1-0.5,0.1-1.1,0.2-1.6C96.3,147.6,96.1,146.6,95.5,145.6L95.5,145.6z"/>
			</g>
		</g>
		<g>
			<g>
				<path class="st0" d="M71,154.5c-0.2,0.2-0.3,0.4-0.5,0.6c0.7,0.1,1.3,0.2,2,0.3c-0.2-0.4-1.1-2.4-1.2-2.8
					c-0.3-1.1-2.2-1.3-2.4,0c-0.1,0.4-0.1,0.8-0.2,1.2c0.8-0.1,1.5-0.2,2.3-0.3c-0.2-0.3-0.4-0.7-0.6-1c-0.5-0.9-2.1-0.8-2.3,0.3
					c-0.1,0.4-0.2,0.8-0.3,1.2c0.8-0.1,1.5-0.2,2.3-0.3c-0.2-0.3-0.5-0.7-0.7-1c-0.5-0.7-1.7-0.9-2.2,0c-0.1,0.1-0.1,0.2-0.2,0.3
					c-0.2,0.5-0.2,1.2,0.2,1.5c0.1,0.1,0.2,0.1,0.3,0.2c0.6,0.5,1.2,0.5,1.8,0c0,0,0.1-0.1,0.1-0.1c0.5-0.5,0.5-1.3,0-1.8
					c0,0-0.1-0.1-0.1-0.1c-0.7-0.7-1.9-0.4-2.1,0.6c-0.6,2.2,0.6,5.2,1.1,7.3c0.7-0.4,1.4-0.8,2.1-1.2c-1-1.2-2.3-1.2-3.4,0
					c-0.4,0.5-0.4,1-0.2,1.5c0.6,1.5,1.9,1.7,3.2,0.9c0.4-0.2,0.7-0.6,0.6-1.1c-0.2-2.5-1-5.6-0.6-8.1c0.4-3.3,3.3-6.6,4.7-9.7
					c2.3-4.9,3.7-10.1,4.5-15.5c0.2-1.6-1.8-2.2-2.4-0.7c-0.3,0.7-0.6,1.4-0.9,2c0.8,0.1,1.6,0.2,2.5,0.3c0-0.5,0.1-1,0.1-1.5
					c0.1-1.5-2-1.5-2.5-0.3c-0.2,0.4-0.3,0.8-0.5,1.2c-0.5,1.3,1.7,2.3,2.3,1c0.2-0.4,0.3-0.7,0.5-1.1c-0.7,0-1.5,0-2.2,0
					c0,0.1,0.1,0.1,0.1,0.2c0.2-0.6,0.3-1.1,0.5-1.7c-0.1,0-0.2,0.1-0.2,0.1c0.6,0.3,1.2,0.5,1.9,0.8c-0.5-2.6,1.9-7,2.4-9.6
					c0.6-2.8,0.8-5.5,0.6-8.3c-0.1-1.3-2.2-1.8-2.5-0.3c-0.2,1.1-0.4,2.2-0.7,3.3c-0.3,1.3,1.7,2.4,2.3,1c0.2-0.4,0.3-0.8,0.5-1.1
					c-0.8-0.2-1.6-0.4-2.3-0.6c0,0.8,0,1.6-0.1,2.3c0,1.6,2.5,1.6,2.5,0c0-0.8,0-1.6,0.1-2.3c0-1.2-1.8-1.8-2.3-0.6
					c-0.2,0.4-0.3,0.8-0.5,1.1c0.8,0.3,1.5,0.6,2.3,1c0.2-1.1,0.4-2.2,0.7-3.3c-0.8-0.1-1.6-0.2-2.5-0.3c0.3,4.1-0.5,8.1-1.6,12
					c-0.6,2.1-1.7,4.3-1.3,6.6c0.2,0.8,1.2,1.1,1.9,0.8c0.1,0,0.2-0.1,0.2-0.1c0.6-0.3,0.7-1.1,0.5-1.7c0-0.1-0.1-0.1-0.1-0.2
					c-0.4-0.8-1.8-0.8-2.2,0c-0.2,0.4-0.3,0.7-0.5,1.1c0.8,0.3,1.5,0.6,2.3,1c0.2-0.4,0.3-0.8,0.5-1.2c-0.8-0.1-1.7-0.2-2.5-0.3
					c0,0.5-0.1,1-0.1,1.5c-0.1,1.5,2,1.5,2.5,0.3c0.3-0.7,0.6-1.4,0.9-2c-0.8-0.2-1.6-0.4-2.4-0.7c-1,6.9-3.1,13.5-6.7,19.5
					c-1,1.7-2.2,3.2-2.5,5.1c-0.4,2.1-0.3,8.1,1,9.7c0.9,1.1,2.3-0.1,2.1-1.2c-0.3-1.5-1.5-4.5-1.1-5.9c-0.7,0.2-1.4,0.4-2.1,0.6
					c0,0,0.1,0.1,0.1,0.1c0-0.6,0-1.2,0-1.8c0,0-0.1,0.1-0.1,0.1c0.6,0,1.2,0,1.8,0c0,0.3,0.1,0.7,0.1,1c-0.7,0-1.5,0-2.2,0
					c0.2,0.3,0.5,0.7,0.7,1c0.6,0.8,2.1,0.8,2.3-0.3c0.1-0.4,0.2-0.8,0.3-1.2c-0.8,0.1-1.5,0.2-2.3,0.3c0.2,0.3,0.4,0.7,0.6,1
					c0.5,0.9,2.1,0.8,2.3-0.3c0.1-0.4,0.1-0.8,0.2-1.2c-0.8,0-1.6,0-2.4,0c0.3,1.1,0.9,2.3,1.4,3.4c0.4,0.7,1.5,0.9,2,0.3
					c0.2-0.2,0.3-0.4,0.5-0.6C73.8,155,72,153.2,71,154.5L71,154.5z"/>
			</g>
		</g>
		<g>
			<g>
				<path class="st0" d="M91,133.8c3.2,1.3,6.4,1.5,9.8,0.7c1.5-0.4,1-2.4-0.3-2.5c-0.8,0-1.4-0.4-1.9-1.1c-0.4,0.6-0.7,1.3-1.1,1.9
					c1.5-0.2,3-0.3,4.5-0.2c1.5,0.1,1.6-2,0.3-2.5c-0.8-0.3-1.7-0.5-2.5-0.8c-0.1,0.8-0.2,1.6-0.3,2.5c1.1,0.1,2.1,0.3,3.2,0.7
					c1.5,0.5,2.2-1.9,0.7-2.4c-1.3-0.4-2.5-0.6-3.9-0.7c-1.5-0.1-1.6,2.1-0.3,2.5c0.8,0.3,1.7,0.5,2.5,0.8c0.1-0.8,0.2-1.6,0.3-2.5
					c-1.5-0.1-3,0-4.5,0.2c-0.8,0.1-1.7,1-1.1,1.9c1,1.4,2.3,2.1,4,2.3c-0.1-0.8-0.2-1.6-0.3-2.5c-2.9,0.7-5.7,0.5-8.4-0.7
					C90.1,130.7,89.5,133.2,91,133.8L91,133.8z"/>
			</g>
		</g>
		<g>
			<g>
				<path class="st0" d="M122.8,132c-0.4-1.4-0.7-2.9-0.8-4.4c-0.8,0.2-1.6,0.4-2.3,0.6c0.4,0.9,0.7,1.8,1.1,2.7
					c0.4,1.4,2.4,1.1,2.5-0.3c0-1.5-0.1-2.9-0.3-4.4c-0.8,0.3-1.5,0.6-2.3,1c0.3,1,0.6,1.9,0.9,2.9c0.8-0.2,1.6-0.4,2.4-0.7
					c-0.5-1.5-0.9-3-1.2-4.5c-0.4-1.6-2.7-0.9-2.4,0.7c0.1,0.6,0.2,1.2,0.3,1.7c0.8-0.2,1.6-0.4,2.4-0.7c-0.4-2-0.7-3.9-1-5.9
					c-0.8,0.1-1.6,0.2-2.5,0.3c0.2,0.8,0.4,1.6,0.6,2.4c0.4,1.6,2.7,0.9,2.4-0.7c-0.3-1.8-0.6-3.6-0.7-5.4c-0.1-1.6-2.6-1.6-2.5,0
					c0,0.9,0.1,1.8,0.1,2.7c0.8,0,1.7,0,2.5,0c-0.4-4.4-1.5-8.5-3.5-12.5c-0.7,0.5-1.3,1-2,1.5c0.2,0.3,0.5,0.7,0.7,1
					c0.4,1.6,2.9,0.9,2.4-0.7c-0.3-1.2-0.4-1.3-1.4-2.1c-1.1-0.9-2.7,0.2-2,1.5c1.8,3.6,2.8,7.2,3.2,11.2c0.1,1.6,2.6,1.6,2.5,0
					c0-0.9-0.1-1.8-0.1-2.7c-0.8,0-1.7,0-2.5,0c0.2,2.1,0.4,4.1,0.8,6.1c0.8-0.2,1.6-0.4,2.4-0.7c-0.2-0.8-0.4-1.6-0.6-2.4
					c-0.3-1.3-2.6-1.1-2.5,0.3c0.3,2.2,0.6,4.4,1.1,6.6c0.3,1.6,2.7,0.9,2.4-0.7c-0.1-0.6-0.2-1.2-0.3-1.7c-0.8,0.2-1.6,0.4-2.4,0.7
					c0.4,1.5,0.8,3,1.2,4.5c0.5,1.5,2.8,0.9,2.4-0.7c-0.4-1.9-0.4-1.8-1.2-3.5c-0.6-1.4-2.5-0.3-2.3,1c0.2,1.2,0.3,2.5,0.2,3.7
					c0.8-0.1,1.6-0.2,2.5-0.3c-0.5-1.7-0.5-1.7-1.4-3.3c-0.5-1.1-2.5-0.6-2.3,0.6c0.2,1.7,0.5,3.4,0.9,5.1
					C120.8,134.2,123.2,133.6,122.8,132L122.8,132z"/>
			</g>
		</g>
	</g>
	<g>
		<g>
			<g>
				<g>
					<path d="M67.7,267.8c3.5,1.7,7,1.7,10.8,1.7c5.9,0,11.8,0,17.8,0c11.6,0,23.3,0,34.9,0.4c0.8,0,0.8-1.2,0-1.2
						c-10.4-0.3-20.8-0.4-31.2-0.4c-5,0-10,0-15,0c-5.3,0-11.8,0.9-16.8-1.5C67.7,266.4,67,267.4,67.7,267.8L67.7,267.8z"/>
				</g>
			</g>
			<g>
				<g>
					<g>
						<path d="M68.7,267.5c4.8-16.6,3.9-33.9,3.4-51c-0.5-18-1.9-36-2.9-54c0-0.8-1.2-0.8-1.2,0c1,17.4,2.3,34.7,2.9,52.1
							c0.5,17.6,1.7,35.5-3.3,52.6C67.3,268,68.5,268.3,68.7,267.5L68.7,267.5z"/>
					</g>
				</g>
			</g>
			<g>
				<g>
					<g>
						<path d="M132.1,268c-4.9-17.1-3.8-35-3.3-52.6c0.5-17.4,1.8-34.8,2.9-52.1c0-0.8-1.2-0.8-1.2,0c-1.1,18-2.4,36-2.9,54
							c-0.5,17.1-1.5,34.4,3.4,51C131.2,269,132.3,268.7,132.1,268L132.1,268z"/>
					</g>
				</g>
			</g>
		</g>
		<g>
			<g>
				<g>
					<path d="M121,107.8c-0.4,5.5,0,11,1.1,16.4c0.2,0.8,1.3,0.4,1.2-0.3c-1.1-5.3-1.5-10.7-1.1-16.1C122.2,107,121,107,121,107.8
						L121,107.8z"/>
				</g>
			</g>
			<g>
				<g>
					<path d="M130.5,147.9c-2.8-7.5-5.7-14.9-6.7-23c-0.1-0.8-1.3-0.8-1.2,0c1,8.1,3.9,15.7,6.7,23.3
						C129.6,148.9,130.7,148.6,130.5,147.9L130.5,147.9z"/>
				</g>
			</g>
			<g>
				<g>
					<path d="M131.6,164.7c0-5.1,0.8-10-0.5-15c-0.2-0.7-1.4-0.4-1.2,0.3c1.3,4.9,0.5,9.7,0.5,14.7
						C130.4,165.5,131.6,165.5,131.6,164.7L131.6,164.7z"/>
				</g>
			</g>
			<g>
				<g>
					<path d="M115.7,124c0.5-5.4,0.8-10.9,0.7-16.3c0-0.8-1.2-0.8-1.2,0c0.1,5.5-0.1,10.9-0.7,16.3
						C114.4,124.8,115.6,124.8,115.7,124L115.7,124z"/>
				</g>
			</g>
			<g>
				<g>
					<path d="M116,107.9c1.8,0.1,3.6,0.2,5.4,0.3c0.8,0,0.8-1.2,0-1.2c-1.8-0.1-3.6-0.2-5.4-0.3C115.2,106.7,115.2,107.9,116,107.9
						L116,107.9z"/>
				</g>
			</g>
		</g>
		<g>
			<g>
				<g>
					<path d="M77.4,105.7c1.3,5.3,0.2,10.9-1.1,16.1c-0.2,0.8,1,1.1,1.2,0.3c1.3-5.4,2.5-11.2,1.1-16.8
						C78.3,104.7,77.2,105,77.4,105.7L77.4,105.7z"/>
				</g>
			</g>
			<g>
				<g>
					<path d="M68.6,161.4c-1.4-8.6,1.4-16.4,4.7-24.2c2.1-4.9,4-9.6,3.8-15c0-0.8-1.2-0.8-1.2,0c0.2,7.6-3.8,13.9-6.3,20.9
						c-2.2,6.1-3.2,12.2-2.2,18.6C67.5,162.5,68.7,162.2,68.6,161.4L68.6,161.4z"/>
				</g>
			</g>
			<g>
				<g>
					<path d="M86,122c-0.6-5.4-0.9-10.9-0.8-16.3c0-0.8-1.2-0.8-1.2,0c-0.1,5.5,0.2,10.9,0.8,16.3C84.9,122.8,86.1,122.8,86,122
						L86,122z"/>
				</g>
			</g>
			<g>
				<g>
					<path d="M84.3,104.7c-2,0.1-4.1,0.2-6.1,0.3c-0.8,0-0.8,1.2,0,1.2c2-0.1,4.1-0.2,6.1-0.3C85.1,105.9,85.1,104.7,84.3,104.7
						L84.3,104.7z"/>
				</g>
			</g>
		</g>
		<g>
			<g>
				<path d="M85.6,122.9c2.1,5.5,9.5,7.2,14.8,7.3c4.7,0.1,12.9-0.3,14.6-5.7c0.2-0.7-0.9-1.1-1.2-0.3c-1.5,4.7-9.5,4.9-13.5,4.8
					c-4.7-0.1-11.8-1.5-13.7-6.4C86.5,121.9,85.3,122.2,85.6,122.9L85.6,122.9z"/>
			</g>
		</g>
	</g>
</g>
</svg>
