<?xml version="1.0" encoding="utf-8"?>
<!-- Generator: Adobe Illustrator 21.0.2, SVG Export Plug-In . SVG Version: 6.00 Build 0)  -->
<svg version="1.1" id="Layer_1" xmlns="http://www.w3.org/2000/svg" xmlns:xlink="http://www.w3.org/1999/xlink" x="0px" y="0px"
	 viewBox="0 0 200 600" style="enable-background:new 0 0 200 600;" xml:space="preserve">
<style type="text/css">
	.st0{fill:#141113;}
	.st1{fill:#292728;}
</style>
<g>
	<g>
		<g>
			<g>
				<path class="st0" d="M73.2,60.5c0-0.4,0-0.8,0-1.3c-0.8,0-1.6,0-2.4,0c0.1,1.3,0.5,2.5,1,3.7c0.3,0.6,1.1,0.7,1.6,0.4
					c0.6-0.4,0.7-1,0.4-1.6c-0.3-0.8-0.6-1.6-0.7-2.5c0.1-0.7-0.4-1.2-1.1-1.2s-1.2,0.5-1.2,1.2c0,0.4,0,0.8,0,1.3
					C70.8,62,73.2,62,73.2,60.5L73.2,60.5z"/>
			</g>
		</g>
		<g>
			<g>
				<path class="st0" d="M72.8,66.2c1.5,0,1.5-2.4,0-2.4C71.3,63.8,71.3,66.2,72.8,66.2L72.8,66.2z"/>
			</g>
		</g>
		<g>
			<g>
				<path class="st0" d="M73.7,63.1c-0.1-0.3-0.1-0.6-0.2-0.8c-0.1-0.6-0.9-1-1.5-0.8c-0.7,0.2-1,0.8-0.8,1.5
					c0.1,0.3,0.1,0.6,0.2,0.8c0.1,0.6,0.9,1,1.5,0.8C73.5,64.4,73.8,63.8,73.7,63.1L73.7,63.1z"/>
			</g>
		</g>
		<g>
			<g>
				<path class="st0" d="M73.4,62c0-0.4,0-0.9,0-1.3c0-1.5-2.4-1.5-2.4,0c0,0.4,0,0.9,0,1.3C71,63.5,73.4,63.5,73.4,62L73.4,62z"/>
			</g>
		</g>
		<g>
			<g>
				<path class="st0" d="M73.4,59.4c0.1,0.1-0.2,0.7,0,0.4c0.4-0.5,0.1-1.3-0.4-1.6c-0.6-0.4-1.3-0.1-1.6,0.4c-0.4,0.6-0.4,1.4,0,2
					c0.4,0.5,1.1,0.8,1.6,0.4C73.5,60.7,73.7,59.9,73.4,59.4L73.4,59.4z"/>
			</g>
		</g>
		<g>
			<g>
				<path class="st0" d="M73.3,58.6c0.1-0.3,0.1-0.6,0.2-0.8c0.1-0.6-0.2-1.3-0.8-1.5c-0.6-0.2-1.3,0.2-1.5,0.8
					c-0.1,0.3-0.1,0.6-0.2,0.8c-0.1,0.6,0.2,1.3,0.8,1.5C72.4,59.6,73.2,59.2,73.3,58.6L73.3,58.6z"/>
			</g>
		</g>
		<g>
			<g>
				<path class="st0" d="M73.2,58c0-0.2,0-0.4,0.1-0.6c0.3-0.6,0.2-1.3-0.4-1.6c-0.5-0.3-1.4-0.2-1.6,0.4c-0.4,0.8-0.5,1.6-0.3,2.4
					c0.1,0.6,0.9,1,1.5,0.8C73,59.3,73.3,58.6,73.2,58L73.2,58z"/>
			</g>
		</g>
		<g>
			<g>
				<path class="st0" d="M73.5,56.8c0.1-0.3,0.1-0.6,0.2-0.8c0.1-0.6-0.2-1.3-0.8-1.5c-0.6-0.2-1.3,0.2-1.5,0.8
					c-0.1,0.3-0.1,0.6-0.2,0.8c-0.1,0.6,0.2,1.3,0.8,1.5C72.6,57.8,73.3,57.4,73.5,56.8L73.5,56.8z"/>
			</g>
		</g>
		<g>
			<g>
				<g>
					<path class="st0" d="M87,38.2c1-0.7,2-1,3.1-1.1c-0.2-0.8-0.4-1.5-0.6-2.3c-2.4,0.8-4.9,1.5-7.2,2.4c-2.5,1-5,3.3-7.8,3.1
						c0.2,0.7,0.4,1.5,0.6,2.2c1.6-0.7,2.7-1.5,4-2.7c-0.6-0.6-1.1-1.1-1.7-1.7c-0.3,0.3-0.5,0.5-0.8,0.8c-0.9,0.9,0.3,2.7,1.5,1.9
						c1.8-1.2,3.6-2.5,5.4-3.7c-0.5-0.6-1-1.3-1.5-1.9c-0.8,1.1-1.8,2-3,2.8c0.5,0.6,1,1.3,1.5,1.9c2.1-1.7,4.2-3.2,6.6-4.4
						c-0.4-0.7-0.8-1.4-1.2-2.1c-1.1,1-2.4,1.7-3.8,2.1c0.4,0.7,0.8,1.3,1.2,2c4.7-3.9,10.4-5.9,16.4-6.3c-0.2-0.7-0.4-1.5-0.6-2.2
						c-4.1,2.3-8.4,4.1-12.9,5.6c0.2,0.8,0.4,1.5,0.6,2.3c3.7-1.5,7.5-2.6,11.5-3.1c1.5-0.2,1.5-2.6,0-2.4
						c-4.2,0.6-8.2,1.6-12.1,3.2c-1.4,0.6-0.9,2.8,0.6,2.3c4.7-1.5,9.1-3.4,13.4-5.8c1-0.6,0.6-2.3-0.6-2.2
						c-6.7,0.5-12.9,2.6-18.1,7c-0.9,0.8,0.1,2.4,1.2,2c1.6-0.6,3-1.2,4.4-2.3c1.2-0.9,0.2-2.8-1.2-2.1c-2.6,1.4-4.9,2.9-7.1,4.8
						c-1,0.9,0.3,2.7,1.5,1.9c1.3-1,2.4-1.9,3.5-3.1c0.8-1-0.3-2.7-1.5-1.9c-1.8,1.2-3.6,2.5-5.4,3.7c0.5,0.6,1,1.3,1.5,1.9
						c0.3-0.3,0.5-0.5,0.8-0.8c1.1-1.1-0.6-2.8-1.7-1.7c-1,1.1-2.1,1.9-3.5,2.3c-1.2,0.5-0.5,2.2,0.6,2.2c2.2,0.1,3.5-0.5,5.4-1.5
						c3.3-1.8,6.8-2.9,10.3-4.1c1.5-0.5,0.9-2.6-0.6-2.3C88,35,87,35.4,85.8,36.1C84.4,36.9,85.6,39,87,38.2L87,38.2z"/>
				</g>
			</g>
			<g>
				<g>
					<path class="st0" d="M80.8,37.7c-0.2,0.6-0.1,0.8,0.3,0.6c-0.3-0.7-0.6-1.5-0.9-2.2c-0.5,0.3-0.9,0.5-1.4,0.8
						c-1.3,0.7-0.3,2.4,0.9,2.2c0.4-0.1,0.8-0.3,1.1-0.6c0.1-0.1,0.2-0.3,0.4-0.4c0.2-0.3,0.4-0.3,0-0.4c-0.2-0.6-0.5-1.2-0.7-1.8
						c0.1,0,0.1-0.1,0.2-0.1c0.5,0.6,0.9,1.2,1.4,1.8c0.2-0.5,0.5-0.7,1-0.9c-0.5-0.6-0.9-1.2-1.4-1.8v-0.1c0.5,0.6,0.9,1.2,1.4,1.8
						c-0.1,0.3-0.2,0.1,0.2,0c0.3-0.1,0.6-0.1,0.9-0.2c0.6-0.2,1.2-0.5,1.7-0.8c-0.6-0.5-1.2-0.9-1.8-1.4c-0.1,0.4-0.1,0.6-0.3,0.9
						c-0.8,1.3,1.2,2.5,2.1,1.2c0.3-0.5,0.5-0.9,0.6-1.5c0.1-1-0.8-1.9-1.8-1.4c-0.8,0.4-1.5,0.6-2.4,0.8c-0.6,0.2-1.1,0.4-1.3,1
						c-0.4,0.9,0.3,2,1.4,1.8c0.6-0.2,1-0.5,1.4-1c0.6-0.9-0.4-2-1.4-1.8c-1.1,0.3-1.9,1-2.4,2c-0.4,0.9,0.3,2.1,1.4,1.8
						c0.6-0.2,1-0.5,1.3-1c0.3-0.6,0.1-1.6-0.7-1.8c-0.6-0.1-1.1-0.1-1.6,0.3c-0.3,0.2-0.7,1-1.1,1.1c0.3,0.7,0.6,1.5,0.9,2.2
						c0.5-0.3,0.9-0.5,1.4-0.8c1.2-0.7,0.4-2.4-0.9-2.2c-1.4,0.3-2.6,1.5-1.7,2.9C79.5,40.3,81.6,39.1,80.8,37.7L80.8,37.7z"/>
				</g>
			</g>
			<g>
				<g>
					<path class="st0" d="M81,40.6c-0.1,0.2-0.3,0.3-0.4,0.5c-1.1,1.1,0.6,2.8,1.7,1.7c0.3-0.3,0.5-0.5,0.8-0.8
						c-0.6-0.5-1.3-1-1.9-1.5c-1.3,2.1-2.1,4.2-2.6,6.6c-0.3,1.3,1.4,2.1,2.2,0.9c1.9-3,4.3-5.3,7.3-7.2c0.9-0.6,0.6-2.3-0.6-2.2
						c-1.9,0.1-3.4,0.6-5.1,1.6c-1.3,0.8-0.2,2.8,1.2,2.1c1.3-0.7,2.7-1.4,4-2.2c1.2-0.7,0.4-2.5-0.9-2.2c-0.9,0.2-1.9,0.4-2.8,0.7
						c0.4,0.7,0.8,1.3,1.2,2c1.5-1.4,2.9-2,4.9-2.4c-0.3-0.7-0.6-1.5-0.9-2.2c-3.2,2.1-7,1.3-9.9,4c-1.8,1.7-5.4,3.1-4.5,6.1
						c0.2,0.7,1.1,1.2,1.8,0.7c1.3-0.9,2.4-1.5,4-2c-0.5-0.5-1-1-1.5-1.5c-0.2,0.4-0.3,0.7-0.5,1.1c0.7,0.4,1.3,0.8,2,1.2
						c-0.1,0.1-0.2,0.2-0.4,0.3c-0.4-0.7-0.8-1.3-1.2-2c-1,1.2-2,2.4-2.9,3.6c-1,1.2,0.6,2.8,1.7,1.7c0.2-0.2,0.4-0.4,0.6-0.6
						c-0.6-0.6-1.1-1.1-1.7-1.7c-0.6,0.5-1.1,1.1-1.5,1.8c0.6,0.5,1.3,1,1.9,1.5c0.2-0.2,0.4-0.3,0.6-0.5c-0.5-0.6-0.9-1.2-1.4-1.8
						c-1.4,2.1-2.5,4.2-3.5,6.5c0.8,0.2,1.5,0.4,2.3,0.6c0.2-0.9,0.6-1.8,1-2.7c-0.7-0.2-1.5-0.4-2.2-0.6c-0.4,0.5-0.7,1-1.1,1.5
						c0.6,0.5,1.2,0.9,1.8,1.4c0.8-3.2,1.9-6.1,3.6-8.9c0.8-1.3-1.3-2.5-2.1-1.2c-1.8,3-3.1,6.1-3.9,9.4c-0.2,1,0.8,1.9,1.8,1.4
						c1.5-0.8,2.1-1.9,2.3-3.5c0.1-1.2-1.7-1.6-2.2-0.6c-0.5,1.1-0.9,2.1-1.3,3.3c-0.5,1.5,1.7,2,2.3,0.6c0.9-2.1,1.9-4,3.2-5.9
						c0.6-0.8-0.4-2.2-1.4-1.8c-1.1,0.4-1.3,0.6-2,1.6c-0.8,1.1,1,2.5,1.9,1.5c0.5-0.6,1-1.2,1.5-1.8c1.1-1.1-0.6-2.8-1.7-1.7
						c-0.2,0.2-0.4,0.4-0.6,0.6c0.6,0.6,1.1,1.1,1.7,1.7c1-1.2,2-2.4,2.9-3.6c0.7-0.8,0.1-2.5-1.2-2c-0.8,0.3-1,0.5-1.3,1.3
						c-0.4,1.1,1.2,2.1,2,1.2c0.7-0.9,0.9-1,1.1-2.2c0.2-0.8-0.6-1.8-1.5-1.5c-1.6,0.6-3.1,1.3-4.5,2.2c0.6,0.2,1.2,0.5,1.8,0.7
						c-0.2-0.8,6.3-5.3,6.4-5.3c2.4-0.8,4.7-0.7,6.9-2.1c1.2-0.8,0.4-2.4-0.9-2.2c-2.3,0.4-4.2,1.4-6,3c-0.9,0.8,0.1,2.3,1.2,2
						c0.9-0.2,1.9-0.4,2.8-0.7c-0.3-0.7-0.6-1.5-0.9-2.2c-1.3,0.7-2.7,1.4-4,2.2c0.4,0.7,0.8,1.4,1.2,2.1c1.2-0.8,2.5-1.2,3.9-1.3
						c-0.2-0.7-0.4-1.5-0.6-2.2c-3.3,2.1-6,4.8-8.2,8.1c0.7,0.3,1.5,0.6,2.2,0.9c0.5-2.2,1.3-4.1,2.4-6.1c0.7-1.2-0.9-2.4-1.9-1.5
						c-0.3,0.3-0.5,0.5-0.8,0.8c0.6,0.6,1.1,1.1,1.7,1.7c0.1-0.2,0.3-0.3,0.4-0.5C83.8,41.2,82.1,39.5,81,40.6L81,40.6z"/>
				</g>
			</g>
			<g>
				<g>
					<path class="st0" d="M87.2,39.2c-0.2,0.3-0.4,0.7-0.7,1c-0.4,0.5-0.1,1.3,0.4,1.6c0.6,0.3,1.3,0.1,1.6-0.4
						c0.2-0.3,0.4-0.7,0.7-1c0.4-0.5,0.1-1.3-0.4-1.6C88.2,38.4,87.5,38.7,87.2,39.2L87.2,39.2z"/>
				</g>
			</g>
			<g>
				<g>
					<path class="st0" d="M87,43.9c0.2-0.4,0.3-0.8,0.5-1.2c0.3-0.6,0.2-1.3-0.4-1.6c-0.5-0.3-1.4-0.2-1.6,0.4
						c-0.2,0.4-0.3,0.8-0.5,1.2c-0.3,0.6-0.2,1.3,0.4,1.6C85.9,44.6,86.8,44.5,87,43.9L87,43.9z"/>
				</g>
			</g>
			<g>
				<g>
					<path class="st0" d="M87.3,43.9c1.2-1.8,2.5-3.4,4.1-4.9c1.1-1.1-0.6-2.8-1.7-1.7c-1.7,1.6-3.2,3.4-4.4,5.3
						C84.4,43.9,86.5,45.1,87.3,43.9L87.3,43.9z"/>
				</g>
			</g>
			<g>
				<g>
					<path class="st0" d="M89.2,41c2.5-2.6,5.3-4.7,8.4-6.4c-0.6-0.3-1.2-0.7-1.8-1c0,1.1-5.5,3-6.4,3.4c0.3,0.7,0.6,1.5,0.9,2.2
						c1.7-0.8,3.4-1.6,5.3-1.8c-0.4-0.7-0.8-1.3-1.2-2c-1.5,1.4-3.1,2.6-5,3.5c0.5,0.5,1.1,1.1,1.6,1.6c0.2-0.5,0.5-0.9,1-1.1
						c-0.4-0.3-0.8-0.6-1.2-0.9c0,0.1,0.1,0.2,0.1,0.4c0.1-0.4,0.2-0.8,0.3-1.2c-0.6,0.7-1.7,1.1-2.6,1.4c0.4,0.7,0.8,1.3,1.2,2
						c0.3-0.3,4.5-3.8,5.2-3.1c-0.1-0.5-0.1-1-0.2-1.5c-0.5,0.6-2,1.2-2.7,1.2c0.3,0.2,0.7,0.4,1,0.6c-0.4-0.8,3.7-2.2,4.5-2.4
						c-0.3-0.7-0.6-1.5-0.9-2.2c-1.2,0.6-2.3,0.7-3.6,0.8c0.2,0.7,0.4,1.5,0.6,2.2c1.5-1,3-1.4,4.8-1.3c-0.4-0.5-0.8-1-1.2-1.5
						c-0.2,0.6-2.6,1.1-3.1,0.8c0.2,0.3,0.4,0.7,0.6,1c0.1-0.6,2.4-1.1,2.8-0.9c-0.2-0.3-0.4-0.7-0.6-1c0,0.6-2.3,1.4-2.6,1.5
						c-0.7,0.2-1.7,0.4-2.5,0.1c0.3,0.3,0.6,0.6,0.8,0.8c0,0.1,2.3-0.8,2.5-0.8c-0.4-0.7-0.8-1.3-1.2-2c-0.5,0.3-0.9,0.7-1.2,1.2
						c0,0.4,0,0.8,0,1.2c1.5-2.7,6.5-3.3,9.2-4.5c1.4-0.6,0.2-2.7-1.2-2.1c-3.2,1.4-8.2,2-10,5.4c-0.2,0.4-0.2,0.8,0,1.2
						c1.2,1.9,3.7,0.5,4.9-0.7c0.9-0.9,0-2.3-1.2-2c-1.7,0.4-4.5,1.6-4.2,3.7c0.1,0.4,0.5,0.7,0.8,0.8c2.2,0.8,6.9-0.5,8-2.9
						s-1.9-2.7-3.5-2.2c-1.5,0.4-4.7,2.4-2.7,4.1c1.7,1.5,6.1-0.2,6.6-2.2c0.2-0.8-0.4-1.5-1.2-1.5c-2.2,0-4.1,0.5-6,1.7
						c-0.9,0.6-0.6,2.3,0.6,2.2c1.8-0.1,3.3-0.4,4.8-1.2c1.3-0.7,0.3-2.4-0.9-2.2c-2.3,0.4-7.5,2.8-5.9,5.9c0.2,0.4,0.6,0.6,1,0.6
						c1.7-0.1,3.8-1,4.8-2.4c0.3-0.4,0.1-1.1-0.2-1.5c-2.1-2.4-7,1.6-8.5,3.1C87.2,39.9,88,41.5,89.2,41c1.6-0.4,4.4-1.2,3.9-3.4
						c-0.1-0.5-0.7-0.9-1.2-0.9c-1.4,0.1-2.4,1.1-3.1,2.3c-0.6,1.1,0.6,2.2,1.6,1.6c2-1.1,3.8-2.3,5.5-3.9c1-0.9-0.1-2.2-1.2-2
						c-2.1,0.3-4,1.1-5.9,2.1c-1.2,0.6-0.3,2.7,0.9,2.2c2.4-1,8.2-2.4,8.2-5.7c0-0.9-1-1.5-1.8-1c-3.3,1.8-6.3,4-8.9,6.8
						C86.4,40.4,88.1,42.1,89.2,41L89.2,41z"/>
				</g>
			</g>
			<g>
				<g>
					<path class="st0" d="M106.8,31.1c-0.8-0.2-1.6-0.5-2.3-0.7c-0.2,0.7-0.4,1.5-0.6,2.2c1.9-0.1,3.8,0.5,5.3,1.7
						c0.2-0.7,0.4-1.5,0.6-2.2c-1.7,0.2-4.2,0.2-5.5-1c0.1,0.5,0.1,1,0.2,1.5c0.5-1,4.7,1.1,5,1.3c0.3-0.7,0.6-1.5,0.9-2.2
						c-1.8-0.4-3-1.1-4.3-2.4c-0.4,0.7-0.8,1.3-1.2,2c1.8,0.7,3.6,1.4,5.3,2.2c0.3-0.7,0.6-1.5,0.9-2.2c-1.4-0.3-2.7-1-3.8-2
						c-0.4,0.7-0.8,1.3-1.2,2c2,0.7,3.9,1.5,5.8,2.4c0.3-0.7,0.6-1.5,0.9-2.2c-1.2-0.4-2.2-1-3-2c-0.5,0.6-1,1.3-1.5,1.9
						c0.9,0.4,1.8,0.8,2.8,1.2c1.2,0.5,2.5-0.9,1.5-1.9c-5.6-5.3-13.2-2.9-20-3.3c0.1,0.8,0.2,1.6,0.3,2.4c2.6-1.1,5.4-1.5,8.2-1.4
						c3.7,0.1,6,2.3,8.3,4.9c1,1.2,2.7-0.5,1.7-1.7c-2.4-2.7-4.8-4.9-8.4-5.5c-3.4-0.5-7.3,0.1-10.4,1.4c-1.2,0.5-1.1,2.3,0.3,2.4
						c6,0.4,13.4-2.1,18.3,2.6c0.5-0.6,1-1.3,1.5-1.9c-0.9-0.4-1.8-0.8-2.8-1.2c-1.2-0.5-2.5,0.8-1.5,1.9c1.2,1.2,2.5,2,4.1,2.6
						c1.3,0.5,2.1-1.6,0.9-2.2c-2.1-1-4.2-1.9-6.4-2.6c-1.1-0.4-2.1,1.2-1.2,2c1.5,1.3,3,2.1,4.8,2.6c1.3,0.4,2.2-1.6,0.9-2.2
						c-1.9-0.9-3.9-1.7-5.9-2.5c-1.2-0.4-2,1.2-1.2,2c1.6,1.6,3.2,2.5,5.4,3c1.3,0.3,2.1-1.5,0.9-2.2c-2.1-1.1-6.8-3.3-8.3-0.5
						c-0.2,0.5-0.2,1.1,0.2,1.5c1.9,1.8,4.8,1.9,7.2,1.7c1.2-0.1,1.6-1.5,0.6-2.2c-2.1-1.6-4-2.1-6.5-2c-1.2,0.1-1.6,1.6-0.6,2.2
						c1.2,0.8,2.1,1.1,3.5,1C108.4,33.5,108.4,31.1,106.8,31.1L106.8,31.1z"/>
				</g>
			</g>
			<g>
				<g>
					<path class="st0" d="M103.3,31.9c-0.9-0.3-1.7-0.6-2.6-1c-0.2,0.7-0.4,1.5-0.6,2.2c2.5-0.2,4.4,0.2,6.6,1.4
						c0.2-0.7,0.4-1.5,0.6-2.2c-1.1-0.6-2.2-1.2-3.3-1.8c-0.2,0.6-0.5,1.2-0.7,1.8c1.6,0.7,3.2,1.4,4.8,2c0.3-0.6,0.7-1.2,1-1.8
						c-1.6,0.2-3.1-0.1-4.6-0.8c-0.5-0.9-1.2-1.5-2.1-1.8c-0.4,0.5-0.8,1-1.2,1.5c0.1,1.1-0.3,1.7-1.3,1.8c-0.9,0.3-1.7,0.6-2.6,0.8
						c-1.3,0.4-1,2.3,0.3,2.4c2,0.1,4.1,0.3,6.1,0.4c0-0.8,0-1.6,0-2.4c-2.1-0.1-4.1,0-6.1,0.3c-1.5,0.2-1.6,2.4,0,2.4
						c1.3,0,2.7,0,4,0c0-0.8,0-1.6,0-2.4c-2.6,0.1-4.8,0.4-6.9,1.9c-1.2,0.9-0.1,2.9,1.2,2.1c3.5-2.4,7.2-0.9,10.7,0.7
						c1.4,0.6,2.5-1.2,1.2-2.1c-2.8-1.8-5.5-2.9-8.7-3.7c0,0.8,0,1.5,0,2.3c1.7-0.4,3.3-0.4,5-0.2c1.4,0.1,1.5-1.9,0.3-2.4
						c-1.6-0.5-3.1-1.2-4.4-2.2c-0.3,0.7-0.6,1.5-0.9,2.2c2.8,0.5,5.1,1.5,7.3,3.4c0.4-0.7,0.8-1.3,1.2-2c-1.5-0.4-2.9-1.1-4.2-1.9
						c-0.3,0.7-0.6,1.5-0.9,2.2c2.4,0.8,4.6,1.9,6.7,3.3c1.1,0.7,2.5-1,1.5-1.9c-0.6-0.5-1.1-1-1.7-1.6c-0.8-0.8-2.5,0-2,1.2
						c0.7,1.9,1.4,2.8,3.2,4c1.3,0.9,2.5-1.2,1.2-2.1c-0.4-0.3-0.7-0.5-1.1-0.8c-0.1,0.7-0.2,1.5-0.3,2.2c1.6-0.4,3.3-0.8,4.9-1.2
						c1.3-0.3,1-2.4-0.3-2.4c-1.9,0.1-2.8,0.6-3.9,2.1c-0.7,1,0.7,2.2,1.6,1.6c2-1.2,3.3-2.6,4.5-4.6c0.4-0.7,0-1.5-0.7-1.8
						c-2.3-0.7-5.1,0-7.3-1c-1.4-0.7-2.5,1.2-1.2,2.1c1,0.7,1.9,1.3,2.9,2c0.3-0.7,0.6-1.5,0.9-2.2c-0.5-0.1-1-0.3-1.5-0.4
						c-1.3-0.3-2.2,1.5-0.9,2.2c0.2,0.1,0.4,0.3,0.7,0.4c0.7,0.2,1.3,0.4,2,0.5c3-1,4.5-0.1,4.5,2.5c0.7-0.3,1.5-0.6,2.2-0.9
						c-0.9-1.2-1.7-2.4-2.6-3.6c-0.9-1.2-3-0.1-2.1,1.2c0.8,1.2,1.7,2.4,2.5,3.6c0.5-0.5,1.1-1.1,1.6-1.6c-0.7-0.3-1.4-0.6-2.1-1
						c-1-0.5-2.3,0.5-1.6,1.6c0.8,1.3,0.9,1.5,1.9,2.7c0.8,1,2.3-0.1,2-1.2c-0.3-1.3-0.3-1.3-1-2.5c-0.7,0.4-1.4,0.8-2.1,1.2
						c1.3,1.8,2.6,3.1,4.4,4.4c0.4-0.7,0.8-1.4,1.2-2.1c-0.6-0.4-1.3-0.8-1.9-1.2c-1.2-0.7-2.5,0.9-1.5,1.9c1.4,1.3,1.4,1.3,3,2.4
						c0.3-0.7,0.6-1.5,0.9-2.2c-1.2-0.5-2.5-1-3.7-1.5c-1.3-0.5-2,1.5-0.9,2.2c1.4,1,2.9,1.9,4.3,2.8c1.2,0.7,2.3-0.9,1.5-1.9
						c-0.3-0.4-0.6-0.8-0.9-1.2c-0.5,0.6-1,1.3-1.5,1.9c1.4,1,2.7,1.9,4.2,2.8c1.3,0.8,2.5-1.2,1.2-2.1c-0.3-0.2-0.7-0.5-1-0.7
						c-0.4,0.7-0.8,1.4-1.2,2.1c0.4,0.3,0.9,0.6,1.3,0.9c0.2-0.7,0.4-1.5,0.6-2.2c-0.4,0-0.8-0.1-1.2-0.1c-1.3-0.1-1.4,1.6-0.6,2.2
						c0.7,0.6,1.5,1.3,2.2,1.9c0.6-0.6,1.1-1.1,1.7-1.7c-0.8-0.5-1.5-1.2-2-1.9c-0.6,0.6-1.1,1.1-1.7,1.7c0.7,0.6,1.3,1.2,2,1.8
						c0.9,0.8,2.3,0,2-1.2s-0.4-1.4-0.9-2.5c-0.7,0.4-1.4,0.8-2.1,1.2c0.7,1,0.8,1.1,1.9,1.7c1.1,0.6,2.2-0.6,1.6-1.6
						c-2.7-5.2-6.6-9.2-11.8-12c-1.3-0.7-2.3,0.9-1.5,1.9c2.4,3,5.1,5.5,8.2,7.8c0.4-0.7,0.8-1.4,1.2-2.1c-1.7-1-3.3-2.2-4.7-3.6
						c-0.5,0.6-1,1.3-1.5,1.9c1.7,1,3.1,2.1,4.4,3.5c1,1,2.4-0.3,1.9-1.5c-1.6-3.4-3.7-6.2-6.6-8.6c-0.6,0.6-1.1,1.1-1.7,1.7
						c3.3,2.7,6.1,5.7,8.4,9.3c0.6-0.5,1.3-1,1.9-1.5c-2.6-3.3-5.1-6.5-7.7-9.8c-0.5,0.6-1,1.3-1.5,1.9c4,2.8,5.3,8,8.6,11.4
						c1.1,1.1,2.8-0.6,1.7-1.7c-3.5-3.7-4.8-8.8-9.1-11.8c-1.2-0.9-2.2,0.9-1.5,1.9c2.6,3.3,5.1,6.5,7.7,9.8
						c0.8,1.1,2.6-0.3,1.9-1.5c-2.5-3.7-5.3-6.9-8.8-9.8c-1.2-1-2.9,0.7-1.7,1.7c2.7,2.3,4.7,4.9,6.2,8.1c0.6-0.5,1.3-1,1.9-1.5
						c-1.5-1.6-3-2.8-4.9-3.9c-1.2-0.7-2.4,0.9-1.5,1.9c1.6,1.6,3.2,2.8,5.2,4c1.4,0.8,2.4-1.2,1.2-2.1c-2.9-2.2-5.4-4.6-7.7-7.4
						c-0.5,0.6-1,1.3-1.5,1.9c4.8,2.6,8.4,6.3,10.9,11.1c0.5-0.5,1.1-1.1,1.6-1.6c-0.4-0.3-0.7-0.6-1.1-0.9
						c-0.9-1.2-2.7-0.2-2.1,1.2c0.2,0.7,0.4,1.3,0.7,2c0.7-0.4,1.3-0.8,2-1.2c-0.7-0.6-1.3-1.2-2-1.8c-1.2-1-2.7,0.5-1.7,1.7
						c0.5,0.8,1.2,1.4,2,1.9c1.2,0.9,2.9-0.6,1.7-1.7c-1.1-1-1.5-1.3-2.7-2.3c-0.2,0.7-0.4,1.5-0.6,2.2c0.4,0,0.8,0.1,1.2,0.1
						c1.3,0.1,1.5-1.6,0.6-2.2c-0.4-0.3-0.9-0.6-1.3-0.9c-1.3-0.9-2.5,1.2-1.2,2.1c0.3,0.2,0.7,0.5,1,0.7c0.4-0.7,0.8-1.4,1.2-2.1
						c-1.5-0.9-2.8-1.8-4.2-2.8c-1.2-0.9-2.2,0.9-1.5,1.9c0.3,0.4,0.6,0.8,0.9,1.2c0.5-0.6,1-1.3,1.5-1.9c-1.5-0.9-2.9-1.8-4.3-2.8
						c-0.3,0.7-0.6,1.5-0.9,2.2c1.2,0.5,2.5,1,3.7,1.5c1.3,0.5,2-1.5,0.9-2.2c-0.8-0.7-1.7-1.3-2.5-2c-0.5,0.6-1,1.3-1.5,1.9
						c0.6,0.4,1.3,0.8,1.9,1.2c1.3,0.8,2.5-1.2,1.2-2.1c-1.5-0.9-2.7-2-3.6-3.5c-0.9-1.3-2.8-0.2-2.1,1.2c0.2,0.6,0.5,1.3,0.7,1.9
						c0.7-0.4,1.3-0.8,2-1.2c-0.5-0.7-1-1.5-1.6-2.2c-0.5,0.5-1.1,1.1-1.6,1.6c0.7,0.3,1.4,0.6,2.1,1c1,0.4,2.4-0.6,1.6-1.6
						c-0.8-1.2-1.7-2.4-2.5-3.6c-0.7,0.4-1.4,0.8-2.1,1.2c0.9,1.2,1.7,2.4,2.6,3.6c0.8,1.1,2.5,0.5,2.2-0.9c-0.5-2.3-2-5.9-4.9-5.6
						c-1.8,0.2-3.3,2.1-2,3.7c2.9,3.5,6-4.7,0.9-4.5c-5,0.2-1,7.4,1.6,4c1.2-1.5-0.1-3.7-1.9-3.9c-2.9-0.2-3.5,3.1-2.9,5.1
						c0.3,0.8,1.4,1.2,2,0.5c1.6-1.7,0.7-3.2-1.1-4.2c-0.3,0.7-0.6,1.5-0.9,2.2c0.5,0.1,1,0.3,1.5,0.4c1.4,0.3,2-1.4,0.9-2.2
						c-1-0.7-1.9-1.3-2.9-2c-0.4,0.7-0.8,1.4-1.2,2.1c2.6,1.2,5.1,0.4,7.8,1.2c-0.2-0.6-0.5-1.2-0.7-1.8c-0.8,1.7-2,2.9-3.6,3.8
						c0.5,0.5,1.1,1.1,1.6,1.6c0.6-0.3,1.2-0.6,1.9-0.9c-0.1-0.8-0.2-1.6-0.3-2.4c-1.6,0.4-3.3,0.8-4.9,1.2
						c-1.1,0.3-1.1,1.6-0.3,2.2c0.4,0.3,0.7,0.5,1.1,0.8c0.4-0.7,0.8-1.4,1.2-2.1c-0.7-0.9-1.4-1.7-2.1-2.6c-0.7,0.4-1.3,0.8-2,1.2
						c0.6,0.5,1.1,1,1.7,1.6c0.5-0.6,1-1.3,1.5-1.9c-2.3-1.5-4.7-2.6-7.3-3.5c-1.3-0.5-2.1,1.5-0.9,2.2c1.6,0.9,3.1,1.6,4.8,2.2
						c1.1,0.4,2.1-1.2,1.2-2c-2.5-2.1-5.1-3.4-8.3-4c-1.3-0.2-2.1,1.4-0.9,2.2c1.6,1.1,3.2,1.8,5,2.4c0.1-0.8,0.2-1.6,0.3-2.4
						c-2-0.2-3.7-0.1-5.6,0.3c-1.2,0.2-1.1,2.1,0,2.3c3,0.7,5.6,1.8,8.2,3.5c0.4-0.7,0.8-1.4,1.2-2.1c-4.3-2-8.8-3.6-13.1-0.7
						c0.4,0.7,0.8,1.4,1.2,2.1c1.8-1.3,3.6-1.5,5.7-1.6c1.5-0.1,1.6-2.4,0-2.4c-1.3,0-2.7,0-4,0c0,0.8,0,1.6,0,2.4
						c2.1-0.2,4.1-0.3,6.1-0.3c1.6,0,1.5-2.3,0-2.4c-2-0.1-4.1-0.3-6.1-0.4c0.1,0.8,0.2,1.6,0.3,2.4c2.1-0.7,7.6-1.3,7.5-4.5
						c-0.1-2.4-2.3-3-4.3-2.8c-0.7,0.1-1.4,0.7-1.2,1.5c1,2.9,5.8,3.6,5.6-0.3c-0.2-3.2-5.2-3.9-5.2-0.5c0,3.1,6.1,5.9,7,2
						c0.8-3.7-5.2-3.5-6.3-0.6c-0.2,0.4,0,0.9,0.3,1.2c1.9,2.2,5,2.7,7.7,2.5c0.8,0,1.6-1,1-1.8c-1.9-2.7-4.3-3.7-7.5-3.1
						c-0.7,0.1-1.2,1.2-0.7,1.8c1.5,1.9,2.9,2.8,5.4,3c1.2,0.1,1.6-1.7,0.6-2.2c-2.6-1.4-4.9-2-7.8-1.7c-1.2,0.1-1.6,1.6-0.6,2.2
						c1.3,0.8,2.3,1.1,3.8,1.3C104.9,34.5,104.9,32.1,103.3,31.9L103.3,31.9z"/>
				</g>
			</g>
			<g>
				<g>
					<path class="st0" d="M126.4,43.2c-0.5-0.8-1-1.6-1.4-2.3c-0.7-1.1-2.7-0.4-2.2,0.9c0.2,0.5,0.4,1,0.7,1.4
						c0.7-0.4,1.4-0.8,2.1-1.2c-1.1-1.7-2.3-3.3-3.6-4.8c-0.9-1-2.6,0.3-1.9,1.5c1.4,2.1,2.9,4.3,4.3,6.4c0.9,1.3,2.9,0.1,2.1-1.2
						c-1.4-2.1-2.9-4.3-4.3-6.4c-0.6,0.5-1.3,1-1.9,1.5c1.2,1.4,2.2,2.8,3.2,4.3c0.9,1.3,2.9,0.1,2.1-1.2c-0.2-0.3-0.4-0.5-0.4-0.8
						c-0.7,0.3-1.5,0.6-2.2,0.9c0.5,0.8,1,1.6,1.4,2.3C125.2,45.7,127.2,44.5,126.4,43.2L126.4,43.2z"/>
				</g>
			</g>
			<g>
				<g>
					<path class="st0" d="M126.7,49c-0.4-0.7-0.8-1.2-1.4-1.7c-1-0.8-2.7,0.2-1.9,1.5c0.6,0.9,1.2,1.8,1.8,2.7
						c0.6-0.5,1.3-1,1.9-1.5c-0.4-0.4-0.7-0.9-0.9-1.5c-0.7,0.3-1.5,0.6-2.2,0.9c0.5,1.2,1.2,2.2,2.1,3.1c0.6-0.6,1.1-1.1,1.7-1.7
						c-0.6-0.6-1.2-1-1.9-1.5c-1.2-0.8-2.3,0.9-1.5,1.9c1,1.2,3.9,3.9,3.3,5.5c-0.1,0.4,0,0.9,0.3,1.2s0.5,0.5,0.8,0.8
						c1,1,2.5-0.3,1.9-1.5c-1-1.9-2.2-3.6-3.5-5.3c-0.9-1.1-2.5,0.3-1.9,1.5c0.2,0.3,0.4,0.7,0.6,1c0.7,1.2,2.5,0.4,2.2-0.9
						c-0.3-1.5-0.6-3.1-0.8-4.7c-0.7,0.4-1.3,0.8-2,1.2c0.9,0.7,1.6,1.5,2,2.7c0.5,1.4,2.7,0.9,2.3-0.6c-0.3-1-0.5-2-0.8-2.9
						c-0.7,0.3-1.5,0.6-2.2,0.9c0.8,1.7,1.3,3.5,1.5,5.4c0.2,1.5,2.5,1.6,2.4,0c-0.3-3.3-1-6.4-2.2-9.5c-0.8,0.2-1.5,0.4-2.3,0.6
						c0.8,1.9,1.2,3.8,1.3,6c0,1.5,2.4,1.5,2.4,0c-0.1-2.3-0.5-4.5-1.4-6.6c-0.6-1.4-2.9-0.8-2.3,0.6c1.2,2.9,1.9,5.8,2.2,8.8
						c0.8,0,1.6,0,2.4,0c-0.3-2.3-0.9-4.5-1.9-6.6c-0.6-1.3-2.5-0.4-2.2,0.9c0.3,1,0.5,2,0.8,2.9c0.8-0.2,1.5-0.4,2.3-0.6
						c-0.5-1.5-1.3-2.7-2.6-3.7c-1-0.8-2.2-0.1-2,1.2c0.2,1.6,0.5,3.1,0.8,4.7c0.7-0.3,1.5-0.6,2.2-0.9c-0.2-0.3-0.4-0.7-0.6-1
						c-0.6,0.5-1.3,1-1.9,1.5c1.2,1.5,2.3,3.1,3.1,4.8c0.6-0.5,1.3-1,1.9-1.5c-0.3-0.3-0.5-0.5-0.8-0.8c0.1,0.4,0.2,0.8,0.3,1.2
						c1-3-2.3-5.7-4-7.8c-0.5,0.6-1,1.3-1.5,1.9c0.5,0.3,1,0.7,1.4,1.1c1.1,1.1,2.7-0.6,1.7-1.7c-0.7-0.8-1.3-1.7-1.7-2.6
						c-0.6-1.2-2.7-0.3-2.2,0.9c0.4,1,0.9,1.7,1.6,2.5c0.9,1,2.6-0.3,1.9-1.5c-0.6-0.9-1.2-1.8-1.8-2.7c-0.6,0.5-1.3,1-1.9,1.5
						c0.4,0.3,0.8,0.7,1.1,1.2C125.4,51.6,127.5,50.4,126.7,49L126.7,49z"/>
				</g>
			</g>
			<g>
				<g>
					<path class="st0" d="M116.5,33.6c0-0.5,0-1,0-1.5c-0.8,0-1.6,0-2.4,0c0,0.3,0,0.5-0.1,0.8c0.8,0,1.5,0,2.3,0
						c-0.3-0.7-0.9-1.2-1.7-1c-0.8,0.2-0.9,1.1-1.1,1.4c0.2-0.2,0.5-0.4,0.7-0.6c-0.1,0-0.2,0-0.2,0.1c0.5,0.5,1,1,1.5,1.5
						c0.2-0.7,0.5-1.4,0.9-2.1c-0.7-0.4-1.4-0.8-2.1-1.2c-0.4,0.9-0.5,1.6-0.4,2.6c0.2,1.4,2.3,1,2.4-0.3c0.1-2.2-0.2-4.3-0.7-6.4
						c-0.7,0.4-1.3,0.8-2,1.2c1.4,1.9,2.3,4,2.6,6.4c0.2,1.5,2.5,0.9,2.3-0.6c-0.4-2.8-1.5-5.2-3.2-7.4c-0.8-1-2.3,0.1-2,1.2
						c0.5,1.9,0.7,3.8,0.6,5.7c0.8-0.1,1.6-0.2,2.4-0.3c0-0.2,0.1-0.5,0.1-0.7c0.7-1.4-1.3-2.6-2.1-1.2c-0.5,0.8-0.9,1.7-1.1,2.6
						c-0.3,0.9,0.6,1.7,1.5,1.5s1-0.9,1.3-1.6c-0.2,0.2-0.4,0.5-0.6,0.7c0.1,0,0.1-0.1,0.2-0.1c-0.3,0-0.6,0.1-0.9,0.1
						c0.1,0,0.1,0,0.2,0c-0.3-0.3-0.6-0.6-0.8-0.8c0,0,0,0.1,0.1,0.1c0.4,1,2.1,1.3,2.3,0c0.1-0.5,0.2-0.9,0.1-1.4
						c0-1.5-2.4-1.5-2.4,0c0,0.5,0,1,0,1.5C114.1,35.2,116.5,35.2,116.5,33.6L116.5,33.6z"/>
				</g>
			</g>
			<g>
				<g>
					<path class="st0" d="M116.8,34.9c0.7-0.2,1.5-0.4,2.3-0.5c0-0.8,0-1.6,0-2.4c-0.2,0-0.4,0-0.6,0c0,0.8,0,1.5,0,2.3
						c0.8-0.3,1.6-0.4,2.4-0.4c1.4,0,1.6-1.9,0.3-2.4c-0.6-0.2-0.9-0.2-1.5-0.1c-1,0.2-1.1,1.7-0.3,2.2c1.5,0.8,3.3,0.5,4.4,2
						c0.5-0.5,1.1-1.1,1.6-1.6c-0.1-0.1-0.3-0.1-0.4-0.2c-1.4-0.7-2.6,1.4-1.2,2.1c0.1,0.1,0.3,0.1,0.4,0.2c1,0.5,2.4-0.6,1.6-1.6
						c-0.6-0.8-1.2-1.5-2.1-1.9c-1-0.5-2.2-0.4-3.2-1c-0.1,0.7-0.2,1.5-0.3,2.2c0.1,0,0.2,0.1,0.2,0.1c0.1-0.8,0.2-1.6,0.3-2.4
						c-1.1,0-2.1,0.1-3.1,0.4c-1.1,0.3-1.2,2.1,0,2.3c0.5,0.1,0.7,0.1,1.2,0.1c1.5-0.2,1.5-2.6,0-2.4c-1,0.1-1.9,0.3-2.9,0.6
						C114.7,33,115.3,35.4,116.8,34.9L116.8,34.9z"/>
				</g>
			</g>
		</g>
	</g>
	<g>
		<g>
			<g>
				<path d="M72.2,53.1c0.2,1.3,0.5,2.6,0.7,4c0.1,0.7,1.1,4,0.6,4.4c0.3,0.1,0.7,0.2,1,0.3c-0.5-3.6,1.1-8.9,3.5-11.5
					c0.5-0.6-0.3-1.4-0.8-0.8c-2.8,3.1-4.4,8.6-3.8,12.7c0.1,0.5,0.7,0.5,1,0.3c0.8-0.6,0.5-1.6,0.3-2.5c-0.4-2.4-0.9-4.7-1.3-7.1
					C73.2,52,72.1,52.3,72.2,53.1L72.2,53.1z"/>
			</g>
		</g>
		<g>
			<g>
				<path d="M73.6,54.8C72,52.4,74.7,48,76.1,46c0.4-0.6-0.6-1.2-1-0.6c-1.7,2.4-4.4,7.2-2.5,10C73,56,74,55.4,73.6,54.8L73.6,54.8z
					"/>
			</g>
		</g>
		<g>
			<g>
				<g>
					<path d="M75.2,41.9c-1.4,1.4-2.2,3.3-2.1,5.3c0,0.5,0.7,0.8,1,0.4c1.4-1.5,3-2.7,4.9-3.5c0.7-0.3,0.1-1.3-0.6-1
						c-2,0.9-3.7,2.1-5.1,3.7c0.3,0.1,0.7,0.3,1,0.4c0-1.7,0.6-3.2,1.8-4.4C76.6,42.2,75.7,41.4,75.2,41.9L75.2,41.9z"/>
				</g>
			</g>
			<g>
				<g>
					<path d="M78,43.7c-0.7,0.7-0.8,1.5-0.7,2.4c0.2,1.7,0.8,3.5,1.3,5.2c0.2,0.6,1.2,0.5,1.2-0.2c-0.2-2.9,0.5-5.6,2.1-8
						c0.4-0.6-0.6-1.3-1-0.6c-1.7,2.6-2.4,5.5-2.2,8.6c0.4-0.1,0.8-0.1,1.2-0.2c-0.3-1-0.5-2.1-0.8-3.1c-0.2-1-0.9-2.5,0-3.4
						C79.4,44,78.6,43.2,78,43.7L78,43.7z"/>
				</g>
			</g>
			<g>
				<g>
					<path d="M75.5,41.9c-1.7,0.2-2.6,0.6-4,1.6c0.3,0.3,0.5,0.5,0.8,0.8c5.1-8.4,14.9-12.7,24.3-14.2c0.8-0.1,0.4-1.3-0.3-1.2
						c-9.7,1.5-19.7,6-25,14.7c-0.3,0.5,0.3,1.2,0.8,0.8c1.1-0.9,2.3-1.4,3.7-1.4C76.6,42.9,76.3,41.8,75.5,41.9L75.5,41.9z"/>
				</g>
			</g>
			<g>
				<g>
					<path d="M96,28.6c-2.1,0-4.3,0.1-6.4,0.3c0.1,0.4,0.2,0.7,0.3,1.1c7.3-4.9,16.5-5,23.1,1.4c0.6,0.5,1.4-0.3,0.8-0.8
						c-7-6.8-16.7-6.8-24.5-1.6c-0.5,0.3-0.3,1.2,0.3,1.1c2.1-0.2,4.2-0.3,6.4-0.3C96.8,29.8,96.8,28.6,96,28.6L96,28.6z"/>
				</g>
			</g>
			<g>
				<g>
					<path d="M80.1,51.7c-0.3-1.3,1.6-3.7,2.3-4.7c1.1-1.6,2.5-3,4.1-4.2c0.6-0.5,0-1.5-0.6-1c-1.8,1.4-3.4,3-4.7,4.9
						c-0.9,1.3-2.6,3.7-2.2,5.4C79.1,52.7,80.3,52.4,80.1,51.7L80.1,51.7z"/>
				</g>
			</g>
			<g>
				<g>
					<path d="M85.7,43.5c0.1,0,0.1,0,0.2,0c0.2-0.1,0.5-0.3,0.4-0.6c0-0.1,0-0.1,0-0.2c0-0.5-0.5-0.7-0.9-0.5
						c-0.1,0.1-0.2,0.1-0.3,0.2c-0.2,0.1-0.3,0.3-0.3,0.5c-0.1,1.7-0.1,1.2,0.2,2.9c0.1,0.4,0.7,0.6,1,0.3
						c6.2-7.8,14.6-9.1,23.7-5.6c0.7,0.3,1-0.9,0.3-1.2c-5.1-2-9.5-2.9-14.9-1.2c-1.7,0.5-3.5,1.2-5,2.1c-0.7,0.4-1.3,0.9-1.9,1.5
						c-0.4,0.4-0.7,0.7-1.1,1.1c-0.9,1.7-1.4,1.6-1.7-0.5C84.7,42.6,85,43.7,85.7,43.5L85.7,43.5z"/>
				</g>
			</g>
			<g>
				<g>
					<path d="M109,40.6c1.8,0.1,3.6-0.2,5.3-0.8c0.7-0.3,0.4-1.4-0.3-1.2c-1.6,0.6-3.3,0.9-5,0.8C108.2,39.4,108.2,40.6,109,40.6
						L109,40.6z"/>
				</g>
			</g>
			<g>
				<g>
					<path d="M114,31.8c0.6-2.6,0-5.2-1.6-7.3c-0.3,0.3-0.5,0.5-0.8,0.8c2.3,1.4,4.8,3.1,5.1,6c0.1,0.8,1.3,0.8,1.2,0
						c-0.3-3.4-3-5.3-5.7-7c-0.5-0.3-1.2,0.3-0.8,0.8c1.4,1.9,2,4.1,1.5,6.4C112.7,32.2,113.8,32.6,114,31.8L114,31.8z"/>
				</g>
			</g>
			<g>
				<g>
					<path d="M117.4,32.1c3.7-1.1,7.3,0.6,8.7,4.2c0.2-0.2,0.5-0.5,0.7-0.7c-3.3-0.7-6.3-2.8-9.8-1.9c-0.7,0.2-0.4,1.4,0.3,1.2
						c3.2-0.8,6.1,1.2,9.2,1.9c0.4,0.1,0.9-0.3,0.7-0.7c-1.6-4.2-5.9-6.3-10.2-5C116.3,31.1,116.6,32.3,117.4,32.1L117.4,32.1z"/>
				</g>
			</g>
			<g>
				<g>
					<path d="M113.7,39.1c1.6,5.1,7,7.6,11.2,10.4c0.6,0.4,1.2-0.6,0.6-1c-3.8-2.6-9.2-5-10.7-9.7C114.7,38.1,113.5,38.4,113.7,39.1
						L113.7,39.1z"/>
				</g>
			</g>
			<g>
				<g>
					<path d="M122.2,48.3c1.2,4.5,4.7,8.5,7.3,12.4c0.4,0.6,1.5,0,1-0.6c-2.4-3.7-6-7.8-7.2-12.1C123.1,47.2,122,47.5,122.2,48.3
						L122.2,48.3z"/>
				</g>
			</g>
			<g>
				<g>
					<path d="M130.5,62c1-11.6-2.2-21.9-12.3-28.6c-0.6-0.4-1.2,0.6-0.6,1c9.8,6.4,12.7,16.4,11.7,27.6
						C129.2,62.7,130.4,62.7,130.5,62L130.5,62z"/>
				</g>
			</g>
		</g>
		<g>
			<g>
				<path d="M71,54.9c-1.8,4.4-0.3,8.8,1.9,12.8c0.3,0.6,1.1,0.3,1.1-0.3c0.2-2.7,0.4-5.4,0.6-8.1c0.1-0.8-1.1-0.8-1.2,0
					c-0.2,2.7-0.4,5.4-0.6,8.1c0.4-0.1,0.7-0.2,1.1-0.3c-2.1-3.7-3.5-7.7-1.8-11.9C72.4,54.5,71.3,54.2,71,54.9L71,54.9z"/>
			</g>
		</g>
	</g>
	<g>
		<g>
			<path class="st1" d="M97.5,28.2c1.5,0.3,2.8-0.2,4.3-0.3c2.2-0.2,4.3,0.3,6.2,1.4c0.7,0.4,1.3-0.7,0.6-1
				c-1.4-0.8-2.9-1.4-4.5-1.5c-2.1-0.2-4.3,0.7-6.3,0.4C97,26.9,96.7,28,97.5,28.2L97.5,28.2z"/>
		</g>
	</g>
	<g>
		<g>
			<path class="st1" d="M78,40.9c3.9-3.1,7.9-6.3,13.1-6.9c0.8-0.1,0.8-1.3,0-1.2c-5.5,0.6-9.7,3.8-13.9,7.2
				C76.6,40.5,77.4,41.3,78,40.9L78,40.9z"/>
		</g>
	</g>
	<g>
		<g>
			<path class="st1" d="M101.3,36c3.6-0.9,7.6,0.5,11,1.8c0.7,0.3,1-0.9,0.3-1.2c-3.6-1.3-7.8-2.8-11.7-1.8
				C100.2,35,100.6,36.2,101.3,36L101.3,36z"/>
		</g>
	</g>
	<g>
		<g>
			<path class="st1" d="M117,39.4c2,2.7,4.7,4.6,8,5.4c0.7,0.2,1.1-1,0.3-1.2c-3-0.7-5.5-2.4-7.3-4.9
				C117.6,38.2,116.6,38.8,117,39.4L117,39.4z"/>
		</g>
	</g>
	<g>
		<g>
			<path class="st1" d="M125.2,50.9c0.7,1.1,1.5,2.2,2.2,3.3c0.4,0.6,1.5,0,1-0.6c-0.7-1.1-1.5-2.2-2.2-3.3
				C125.8,49.7,124.8,50.3,125.2,50.9L125.2,50.9z"/>
		</g>
	</g>
</g>
</svg>
