<?xml version="1.0" encoding="utf-8"?>
<!-- Generator: Adobe Illustrator 21.0.2, SVG Export Plug-In . SVG Version: 6.00 Build 0)  -->
<svg version="1.1" id="Layer_1" xmlns="http://www.w3.org/2000/svg" xmlns:xlink="http://www.w3.org/1999/xlink" x="0px" y="0px"
	 viewBox="0 0 200 600" style="enable-background:new 0 0 200 600;" xml:space="preserve">
<style type="text/css">
	.st0{fill:#FFE322;}
	.st1{fill:#F7ED56;}
</style>
<g>
	<g>
		<g>
			<g>
				<path class="st0" d="M72,56.8c0-0.4,0-0.8,0-1.3c-1,0-2,0-3,0c0.2,1.4,0.5,2.6,1,3.8c0.3,0.7,1.4,0.9,2.1,0.5
					c0.8-0.4,0.9-1.3,0.5-2.1c-0.3-0.7-0.5-1.5-0.6-2.3c-0.1-0.8-0.6-1.5-1.5-1.5c-0.8,0-1.5,0.7-1.5,1.5c0,0.4,0,0.8,0,1.3
					C68.9,58.8,71.9,58.8,72,56.8L72,56.8z"/>
			</g>
		</g>
		<g>
			<g>
				<path class="st0" d="M71.3,62.8c1.9,0,1.9-3,0-3C69.4,59.8,69.4,62.8,71.3,62.8L71.3,62.8z"/>
			</g>
		</g>
		<g>
			<g>
				<path class="st0" d="M72.4,59.4c-0.1-0.3-0.1-0.6-0.2-0.8c-0.2-0.8-1.1-1.3-1.8-1c-0.8,0.2-1.2,1-1,1.8c0.1,0.3,0.1,0.6,0.2,0.8
					c0.2,0.8,1.1,1.3,1.8,1C72.2,61.1,72.6,60.2,72.4,59.4L72.4,59.4z"/>
			</g>
		</g>
		<g>
			<g>
				<path class="st0" d="M72.2,58.3c0-0.4,0-0.9,0-1.3c0-0.8-0.7-1.5-1.5-1.5c-0.8,0-1.5,0.7-1.5,1.5c0,0.4,0,0.9,0,1.3
					c0,0.8,0.7,1.5,1.5,1.5C71.5,59.8,72.2,59.2,72.2,58.3L72.2,58.3z"/>
			</g>
		</g>
		<g>
			<g>
				<path class="st0" d="M72.1,55.6c0.1,0.1,0.1,0.3,0,0.5c-0.1,0.4-0.1,0.4,0,0.2c0.5-0.7,0.1-1.7-0.5-2.1
					c-0.8-0.4-1.6-0.1-2.1,0.5c-0.5,0.7-0.5,1.7,0,2.3c0.4,0.7,1.3,1,2.1,0.5C72.3,57.2,72.6,56.3,72.1,55.6L72.1,55.6z"/>
			</g>
		</g>
		<g>
			<g>
				<path class="st0" d="M72.1,55.1c0.1-0.3,0.1-0.6,0.2-0.8c0.2-0.8-0.2-1.7-1-1.8c-0.8-0.2-1.7,0.2-1.8,1
					c-0.1,0.3-0.1,0.6-0.2,0.8c-0.2,0.8,0.2,1.7,1,1.8C71,56.3,71.9,55.9,72.1,55.1L72.1,55.1z"/>
			</g>
		</g>
		<g>
			<g>
				<path class="st0" d="M71.9,54.3c0,0.2,0-0.3,0-0.3c0,0.2,0.1-0.2,0-0.1c0.3-0.7,0.2-1.6-0.5-2.1c-0.7-0.4-1.7-0.2-2.1,0.5
					c-0.4,0.9-0.5,1.7-0.3,2.7c0.2,0.8,1.1,1.3,1.8,1C71.7,55.9,72.1,55.1,71.9,54.3L71.9,54.3z"/>
			</g>
		</g>
		<g>
			<g>
				<path class="st0" d="M72.3,53.2c0.1-0.3,0.1-0.6,0.2-0.8c0.2-0.8-0.2-1.7-1-1.8c-0.8-0.2-1.7,0.2-1.8,1
					c-0.1,0.3-0.1,0.6-0.2,0.8c-0.2,0.8,0.2,1.7,1,1.8C71.2,54.4,72.1,54,72.3,53.2L72.3,53.2z"/>
			</g>
		</g>
		<g>
			<g>
				<g>
					<path class="st0" d="M85.6,34.8c0.9-0.7,2-1,3.1-1.1c-0.3-1-0.5-1.9-0.8-2.9c-2.4,0.8-4.9,1.5-7.3,2.4c-2.5,1-4.9,3.2-7.7,3.1
						c0.3,0.9,0.5,1.9,0.8,2.8c1.7-0.7,2.8-1.5,4-2.8c-0.7-0.7-1.4-1.4-2.1-2.1c-0.3,0.3-0.5,0.5-0.8,0.8c-1.1,1.2,0.4,3.4,1.8,2.4
						c1.8-1.2,3.6-2.5,5.4-3.7c-0.6-0.8-1.2-1.6-1.8-2.4c-0.8,1.1-1.8,2-2.9,2.7c0.6,0.8,1.2,1.6,1.8,2.4c2.1-1.7,4.2-3.1,6.5-4.4
						c-0.5-0.9-1-1.7-1.5-2.6c-1.1,1-2.3,1.6-3.8,2c0.5,0.8,1,1.7,1.5,2.5c4.6-3.9,10.3-5.8,16.2-6.2c-0.3-0.9-0.5-1.9-0.8-2.8
						c-4.1,2.3-8.3,4.1-12.8,5.5c0.3,1,0.5,1.9,0.8,2.9c3.7-1.5,7.4-2.6,11.4-3.1c1.9-0.2,1.9-3.3,0-3c-4.2,0.6-8.2,1.6-12.2,3.2
						c-1.7,0.7-1.1,3.5,0.8,2.9c4.7-1.5,9.2-3.4,13.5-5.8c1.3-0.7,0.7-2.9-0.8-2.8c-6.8,0.5-13.1,2.7-18.3,7.1
						c-1.1,0.9,0.1,3,1.5,2.5c1.7-0.6,3-1.3,4.5-2.3c1.5-1.1,0.2-3.5-1.5-2.6c-2.6,1.4-4.9,3-7.2,4.9c-1.3,1.1,0.4,3.3,1.8,2.4
						c1.4-1,2.4-1.9,3.5-3.2c1-1.2-0.3-3.4-1.8-2.4c-1.8,1.2-3.6,2.5-5.4,3.7c0.6,0.8,1.2,1.6,1.8,2.4c0.3-0.3,0.5-0.5,0.8-0.8
						c1.3-1.4-0.7-3.5-2.1-2.1c-0.9,1.1-2.1,1.8-3.4,2.3c-1.5,0.6-0.6,2.7,0.8,2.8c2.2,0.1,3.6-0.5,5.5-1.6c3.3-1.8,6.7-2.9,10.3-4
						c1.9-0.6,1.1-3.2-0.8-2.9c-1.5,0.2-2.5,0.6-3.8,1.4C82.4,33.2,83.9,35.8,85.6,34.8L85.6,34.8z"/>
				</g>
			</g>
			<g>
				<g>
					<path class="st0" d="M79.6,34c-0.5,0.9-0.5,1.2,0.1,1c-0.4-0.9-0.8-1.8-1.2-2.7c-0.5,0.3-0.9,0.5-1.4,0.8
						c-1.6,0.9-0.4,3,1.2,2.7c0.5-0.1,0.9-0.3,1.2-0.6c0.1-0.1,0.3-0.3,0.4-0.5c0.3-0.5,0.4-0.1-0.3-0.3c-0.3-0.7-0.6-1.5-0.9-2.2
						c0.1-0.1,0.2-0.1,0.3-0.2c0.6,0.7,1.1,1.5,1.7,2.2c0.2-0.4,0.4-0.6,0.8-0.7c-0.6-0.7-1.1-1.5-1.7-2.2c0.1-0.1,0.1-0.2,0.2-0.2
						c0.6,0.7,1.1,1.5,1.7,2.2c-0.2,0.3-0.7,0.3,0,0.2c0.3,0,0.6-0.1,0.9-0.2c0.6-0.2,1.2-0.5,1.8-0.8c-0.7-0.6-1.5-1.1-2.2-1.7
						c-0.1,0.4-0.1,0.5-0.3,0.9c-1,1.6,1.5,3.1,2.6,1.5c0.3-0.5,0.5-1,0.6-1.6c0.2-1.3-1-2.4-2.2-1.7c-1.2,0.6-3.2,0.6-3.8,1.9
						c-0.5,1.2,0.4,2.5,1.7,2.2c0.7-0.2,1.1-0.6,1.6-1.2c0.8-1.1-0.5-2.6-1.7-2.2c-1.1,0.3-2,1-2.6,2.1c-0.5,1.1,0.4,2.7,1.7,2.2
						c0.6-0.2,1.1-0.5,1.4-1.2c0.4-0.8,0.1-2.1-0.9-2.2c-0.7-0.1-1.3-0.1-1.9,0.3c-0.3,0.2-0.8,1-1,1c0.4,0.9,0.8,1.8,1.2,2.7
						c0.5-0.3,0.9-0.5,1.4-0.8c1.6-0.9,0.5-3-1.2-2.7c-1.6,0.3-2.8,1.8-1.9,3.4C78,37.2,80.5,35.6,79.6,34L79.6,34z"/>
				</g>
			</g>
			<g>
				<g>
					<path class="st0" d="M79.3,36.8c-0.1,0.2-0.3,0.3-0.4,0.5c-1.3,1.4,0.7,3.5,2.1,2.1c0.3-0.3,0.5-0.5,0.8-0.8
						C80.9,38,80.1,37.4,79.3,36.8c-1.2,2.1-2,4.3-2.6,6.7c-0.4,1.7,1.8,2.6,2.7,1.2c1.9-3,4.2-5.2,7.2-7.1c1.2-0.7,0.8-2.9-0.8-2.8
						c-2,0.1-3.6,0.6-5.2,1.6c-1.7,1-0.2,3.5,1.5,2.6c1.3-0.7,2.7-1.4,4-2.2c1.5-0.8,0.5-3.1-1.2-2.7c-0.9,0.2-1.9,0.4-2.8,0.7
						c0.5,0.8,1,1.7,1.5,2.5c1.4-1.3,2.9-2,4.8-2.3C88,34,87.7,33,87.3,32.1c-3.2,2.1-7,1.3-9.9,4.1c-1.9,1.8-5.6,3.2-4.6,6.4
						c0.3,0.9,1.4,1.4,2.2,0.9c1.3-0.9,2.4-1.4,3.9-2c-0.6-0.6-1.2-1.2-1.8-1.8c-0.1,0.3-0.3,0.6-0.4,1c0.8,0.5,1.7,1,2.5,1.5
						c0-0.1,0.1-0.2,0.1-0.4c-0.3,0.3-0.7,0.7-1,1c0.1,0,0.2-0.1,0.4-0.1c-0.5-0.8-1-1.7-1.5-2.5c-1,1.2-2,2.4-2.9,3.6
						c-1.2,1.5,0.7,3.5,2.1,2.1c0.2-0.2,0.4-0.4,0.6-0.6c-0.7-0.7-1.4-1.4-2.1-2.1c-0.6,0.5-1.1,1.1-1.5,1.8
						c0.8,0.6,1.6,1.2,2.4,1.8c0.1-0.1,0.3-0.2,0.4-0.3c-0.6-0.7-1.1-1.5-1.7-2.2c-1.4,2.1-2.5,4.2-3.5,6.6c1,0.3,1.9,0.5,2.9,0.8
						c0.2-0.9,0.6-1.8,1-2.6c-0.9-0.3-1.9-0.5-2.8-0.8c-0.3,0.4-0.6,0.8-0.9,1.2c0.7,0.6,1.5,1.1,2.2,1.7c0.7-3.2,1.9-6,3.6-8.8
						c1-1.7-1.6-3.2-2.6-1.5c-1.8,3-3.1,6.1-3.9,9.5c-0.3,1.3,1,2.4,2.2,1.7c1.6-0.9,2.2-2,2.4-3.8c0.2-1.5-2.2-2.1-2.8-0.8
						c-0.5,1.1-0.9,2.2-1.3,3.3c-0.6,1.9,2.2,2.5,2.9,0.8c0.9-2.1,1.9-4,3.2-5.8c0.7-1-0.5-2.7-1.7-2.2c-1.2,0.5-1.5,0.7-2.2,1.7
						c-0.9,1.4,1.3,3.2,2.4,1.8c0.5-0.6,1-1.2,1.5-1.8c1.4-1.4-0.7-3.5-2.1-2.1c-0.2,0.2-0.4,0.4-0.6,0.6c0.7,0.7,1.4,1.4,2.1,2.1
						c1-1.2,2-2.4,2.9-3.6c0.8-1,0.1-3.1-1.5-2.5c-0.9,0.3-1.2,0.7-1.5,1.5c-0.5,1.4,1.6,2.6,2.5,1.5c0.7-0.9,0.9-1.2,1.2-2.3
						c0.2-1-0.7-2.3-1.8-1.8c-1.7,0.6-3.1,1.3-4.6,2.3c0.7,0.3,1.5,0.6,2.2,0.9c-0.2-0.5,6.2-4.9,6.2-4.9c2.4-0.8,4.8-0.7,7-2.2
						c1.5-1,0.5-3-1.2-2.7c-2.4,0.4-4.3,1.4-6.1,3.1c-1.1,1.1,0.1,2.8,1.5,2.5c0.9-0.2,1.9-0.4,2.8-0.7c-0.4-0.9-0.8-1.8-1.2-2.7
						c-1.3,0.7-2.7,1.4-4,2.2c0.5,0.9,1,1.7,1.5,2.6c1.1-0.8,2.4-1.2,3.7-1.2c-0.3-0.9-0.5-1.9-0.8-2.8c-3.4,2.1-6.1,4.8-8.3,8.2
						c0.9,0.4,1.8,0.8,2.7,1.2c0.5-2.2,1.2-4.1,2.4-6c0.9-1.5-1.1-3-2.4-1.8c-0.3,0.3-0.5,0.5-0.8,0.8c0.7,0.7,1.4,1.4,2.1,2.1
						c0.1-0.2,0.3-0.3,0.4-0.5C82.7,37.5,80.6,35.4,79.3,36.8L79.3,36.8z"/>
				</g>
			</g>
			<g>
				<g>
					<path class="st0" d="M85.4,35.4c-0.2,0.3-0.4,0.7-0.7,1c-0.4,0.7-0.1,1.7,0.5,2.1c0.7,0.4,1.6,0.1,2.1-0.5
						c0.2-0.3,0.4-0.7,0.7-1c0.4-0.7,0.1-1.7-0.5-2.1C86.7,34.5,85.8,34.7,85.4,35.4L85.4,35.4z"/>
				</g>
			</g>
			<g>
				<g>
					<path class="st0" d="M85.8,40.4c0.2-0.4,0.3-0.8,0.5-1.2c0.3-0.7,0.2-1.6-0.5-2.1c-0.6-0.4-1.7-0.2-2.1,0.5
						c-0.2,0.4-0.3,0.8-0.5,1.2c-0.3,0.7-0.2,1.6,0.5,2.1C84.4,41.3,85.5,41.2,85.8,40.4L85.8,40.4z"/>
				</g>
			</g>
			<g>
				<g>
					<path class="st0" d="M86.1,40.4c1.2-1.8,2.5-3.3,4-4.8c1.4-1.3-0.7-3.5-2.1-2.1c-1.7,1.6-3.2,3.4-4.5,5.4
						C82.4,40.5,85,42,86.1,40.4L86.1,40.4z"/>
				</g>
			</g>
			<g>
				<g>
					<path class="st0" d="M87.9,37.6c2.5-2.6,5.2-4.6,8.4-6.3c-0.8-0.4-1.5-0.9-2.3-1.3c0,0.8-5.5,2.8-6.2,3.1
						c0.4,0.9,0.8,1.8,1.2,2.7c1.7-0.8,3.4-1.5,5.3-1.8c-0.5-0.8-1-1.7-1.5-2.5c-1.5,1.4-3.1,2.5-4.9,3.5c0.7,0.7,1.4,1.4,2.1,2.1
						c0.2-0.4,0.4-0.7,0.8-0.9c-0.5-0.4-1-0.7-1.4-1.1c0,0.1,0.1,0.2,0.1,0.4c0.1-0.5,0.3-1,0.4-1.5c-0.6,0.7-1.6,1-2.5,1.3
						c0.5,0.8,1,1.7,1.5,2.5c0.8-0.7,1.5-1.4,2.4-1.9c0.3-0.2,2.4-1.1,2.3-1.2c-0.1-0.6-0.2-1.2-0.2-1.8c-0.4,0.5-1.9,1.1-2.5,1.1
						c0.4,0.2,0.9,0.5,1.3,0.7c-0.2-0.3,3.6-1.8,4.3-1.9c-0.4-0.9-0.8-1.8-1.2-2.7c-1.1,0.6-2.2,0.7-3.5,0.8
						c0.3,0.9,0.5,1.9,0.8,2.8c1.5-0.9,2.9-1.3,4.6-1.3c-0.5-0.6-1-1.3-1.4-1.9c-0.1,0.4-2.3,0.8-2.6,0.6c0.2,0.4,0.5,0.9,0.7,1.3
						c0-0.3,2.2-0.7,2.3-0.6c-0.2-0.4-0.5-0.9-0.7-1.3c0,1-4,1.6-4.7,1.3c0.3,0.3,0.7,0.7,1,1c0.1,0.5,2.1-0.4,2.3-0.4
						c-0.5-0.8-1-1.7-1.5-2.5c-0.7,0.2-0.9,0.7-0.7,1.3c0,0.5,0,1,0,1.5c1.5-2.6,6.5-3.3,9.1-4.4c1.8-0.8,0.2-3.4-1.5-2.6
						C96,27,91,27.5,89.1,31c-0.3,0.5-0.3,1.1,0,1.5c1.3,2.1,4.1,0.7,5.4-0.7c1.1-1.1,0-2.8-1.5-2.5c-1.9,0.5-4.8,1.7-4.4,4.1
						c0.1,0.5,0.6,0.9,1,1c2.3,0.9,7.2-0.6,8.3-3c1.2-2.7-2-3.2-3.9-2.7c-1.8,0.5-5.1,2.8-2.8,4.7c1.9,1.5,6.4-0.2,7-2.4
						c0.3-1-0.5-1.9-1.4-1.9c-2.2,0-4.2,0.5-6.1,1.7c-1.2,0.7-0.8,2.9,0.8,2.8c1.8-0.1,3.4-0.4,5-1.2c1.6-0.8,0.4-3-1.2-2.7
						c-2.5,0.4-7.8,3.1-6.1,6.3c0.2,0.4,0.8,0.8,1.3,0.7c1.9-0.1,4-1.1,5.1-2.6c0.4-0.5,0.2-1.4-0.2-1.8c-2.2-2.6-7.2,1.4-9,3.1
						c-1.1,1,0,3,1.5,2.5c1.8-0.6,4.7-1.5,4.1-3.9C92,33.5,91.3,33,90.7,33c-1.5,0.1-2.6,1.1-3.4,2.4c-0.7,1.3,0.7,2.7,2.1,2.1
						c2-1.1,3.8-2.4,5.5-3.9c1.2-1.1-0.1-2.7-1.5-2.5c-2.1,0.3-4,1.2-6,2.1c-1.5,0.7-0.4,3.4,1.2,2.7c2.5-1,8.5-2.5,8.4-6
						c0-1.2-1.3-1.8-2.3-1.3c-3.3,1.8-6.3,4.1-9,6.8C84.4,36.8,86.5,38.9,87.9,37.6L87.9,37.6z"/>
				</g>
			</g>
			<g>
				<g>
					<path class="st0" d="M105.3,27.2c-0.7-0.2-1.5-0.5-2.2-0.7c-0.3,0.9-0.5,1.9-0.8,2.8c1.9-0.1,3.6,0.5,5.2,1.6
						c0.3-0.9,0.5-1.9,0.8-2.8c-1.6,0.1-4,0.2-5.3-0.9c0.1,0.6,0.2,1.2,0.2,1.8c0.4-0.7,4.5,1.4,4.6,1.4c0.4-0.9,0.8-1.8,1.2-2.7
						c-1.7-0.4-2.9-1.1-4.2-2.3c-0.5,0.8-1,1.7-1.5,2.5c1.8,0.7,3.5,1.4,5.2,2.2c0.4-0.9,0.8-1.8,1.2-2.7c-1.4-0.3-2.6-1-3.6-2
						c-0.5,0.8-1,1.7-1.5,2.5c2,0.7,3.9,1.5,5.7,2.4c0.4-0.9,0.8-1.8,1.2-2.7c-1.2-0.3-2.1-1-2.9-1.9c-0.6,0.8-1.2,1.6-1.8,2.4
						c0.9,0.4,1.8,0.8,2.8,1.2c1.4,0.6,3.2-1.1,1.8-2.4c-5.6-5.4-13.3-3-20.2-3.4c0.1,1,0.3,2,0.4,2.9c2.6-1,5.4-1.5,8.2-1.4
						c3.6,0.1,5.8,2.2,8,4.8c1.3,1.5,3.4-0.7,2.1-2.1c-2.4-2.7-4.9-5-8.6-5.5c-3.4-0.5-7.4,0.1-10.6,1.4c-1.5,0.6-1.4,2.8,0.4,2.9
						c5.9,0.3,13.3-2.1,18.1,2.5c0.6-0.8,1.2-1.6,1.8-2.4c-0.9-0.4-1.8-0.8-2.8-1.2c-1.5-0.6-3.1,1-1.8,2.4c1.2,1.3,2.5,2.1,4.2,2.7
						c1.6,0.6,2.7-2,1.2-2.7c-2.1-1-4.2-1.9-6.4-2.7c-1.4-0.5-2.6,1.5-1.5,2.5c1.5,1.3,3,2.1,5,2.7c1.6,0.5,2.7-2,1.2-2.7
						c-1.9-0.9-3.9-1.7-5.9-2.5c-1.4-0.5-2.5,1.5-1.5,2.5c1.6,1.6,3.3,2.6,5.5,3.1c1.6,0.4,2.7-1.9,1.2-2.7
						c-2.2-1.2-7.1-3.4-8.7-0.3c-0.3,0.6-0.3,1.3,0.2,1.8c1.9,1.8,4.9,2,7.4,1.8c1.6-0.1,2-1.9,0.8-2.8c-2.1-1.6-4.1-2.2-6.7-2
						c-1.5,0.1-2,2-0.8,2.8c1.2,0.8,2.2,1.1,3.7,1.1C107.3,30.2,107.3,27.2,105.3,27.2L105.3,27.2z"/>
				</g>
			</g>
			<g>
				<g>
					<path class="st0" d="M101.8,28c-0.8-0.3-1.6-0.6-2.4-0.9c-0.3,0.9-0.5,1.9-0.8,2.8c2.4-0.2,4.3,0.2,6.4,1.4
						c0.3-0.9,0.5-1.9,0.8-2.8c-1-0.6-2-1.1-3.1-1.7c-0.3,0.7-0.6,1.5-0.9,2.2c1.5,0.6,3,1.3,4.5,1.9c0.4-0.8,0.9-1.5,1.3-2.3
						c-1.5,0.2-3,0-4.5-0.8c-0.4-0.9-1-1.4-2-1.6c-0.5,0.6-1,1.3-1.4,1.9c-0.1,0.8-0.6,1.2-1.3,1.2c-0.9,0.3-1.7,0.6-2.6,0.8
						c-1.6,0.5-1.3,2.8,0.4,2.9c2,0.1,4.1,0.3,6.1,0.4c0-1,0-2,0-3c-2.1-0.1-4.1,0-6.1,0.3c-1.9,0.2-2,3,0,3c1.3,0,2.7,0,4,0
						c0-1,0-2,0-3c-2.6,0.1-4.9,0.4-7.1,1.9c-1.6,1.1-0.1,3.7,1.5,2.6c3.4-2.3,7-0.8,10.4,0.7c1.7,0.8,3.2-1.5,1.5-2.6
						c-2.8-1.8-5.6-3-8.8-3.7c0,1,0,1.9,0,2.9c1.6-0.4,3.3-0.4,4.9-0.2c1.8,0.1,1.9-2.4,0.4-2.9c-1.6-0.4-3-1.2-4.3-2.1
						c-0.4,0.9-0.8,1.8-1.2,2.7c2.8,0.5,5,1.5,7.1,3.4c0.5-0.8,1-1.7,1.5-2.5c-1.5-0.4-2.9-1.1-4.2-1.9c-0.4,0.9-0.8,1.8-1.2,2.7
						c2.4,0.8,4.5,1.9,6.6,3.3c1.4,0.9,3.1-1.2,1.8-2.4c-0.6-0.5-1.1-1-1.7-1.6c-1-0.9-3.1,0-2.5,1.5c0.7,2,1.5,3,3.3,4.2
						c1.6,1.1,3.1-1.5,1.5-2.6c-0.4-0.3-0.7-0.5-1.1-0.8c-0.1,0.9-0.2,1.8-0.4,2.7c1.6-0.4,3.3-0.8,4.9-1.2c1.6-0.4,1.3-3-0.4-2.9
						c-2,0.1-3,0.6-4.2,2.2c-0.9,1.2,0.9,2.8,2.1,2.1c2-1.3,3.4-2.7,4.6-4.7c0.5-0.9,0-1.9-0.9-2.2c-2.3-0.7-5.1,0-7.2-1
						c-1.7-0.8-3.1,1.5-1.5,2.6c1,0.7,1.9,1.3,2.9,2c0.4-0.9,0.8-1.8,1.2-2.7c-0.5-0.1-1-0.3-1.5-0.4c-1.6-0.4-2.7,1.9-1.2,2.7
						c0.2,0,0.4,0,0.6,0c0.8,0.2,1.7,0.4,2.5,0.7c2.6-0.6,3.9,0.3,3.9,2.7c0.9-0.4,1.8-0.8,2.7-1.2c-0.9-1.2-1.7-2.4-2.6-3.6
						c-1.1-1.5-3.7-0.1-2.6,1.5c0.8,1.2,1.7,2.4,2.5,3.6c0.7-0.7,1.4-1.4,2.1-2.1c-0.7-0.3-1.4-0.6-2.1-1c-1.3-0.6-2.9,0.7-2.1,2.1
						c0.8,1.3,1,1.6,2,2.7c1,1.2,2.8-0.1,2.5-1.5c-0.3-1.2-0.4-1.4-1-2.5c-0.9,0.5-1.7,1-2.6,1.5c1.3,1.8,2.7,3.2,4.5,4.5
						c0.5-0.9,1-1.7,1.5-2.6c-0.6-0.4-1.3-0.8-1.9-1.2c-1.4-0.9-3.1,1.2-1.8,2.4c1.3,1.2,1.6,1.4,3,2.4c0.4-0.9,0.8-1.8,1.2-2.7
						c-1.2-0.5-2.5-1-3.7-1.5c-1.7-0.7-2.5,1.8-1.2,2.7c1.4,1,2.9,1.9,4.3,2.8c1.6,0.9,2.8-1.1,1.8-2.4c-0.3-0.4-0.6-0.8-0.9-1.2
						c-0.6,0.8-1.2,1.6-1.8,2.4c1.4,1,2.7,1.9,4.2,2.8c1.7,1,3.1-1.5,1.5-2.6c-0.3-0.2-0.7-0.5-1-0.7c-0.5,0.9-1,1.7-1.5,2.6
						c0.4,0.3,0.9,0.6,1.3,0.9c0.3-0.9,0.5-1.9,0.8-2.8c-0.4,0-0.8-0.1-1.2-0.1c-1.7-0.2-1.8,2-0.8,2.8c0.7,0.6,1.5,1.2,2.2,1.8
						c0.7-0.7,1.4-1.4,2.1-2.1c-0.8-0.5-1.5-1.2-2-1.9c-0.7,0.7-1.4,1.4-2.1,2.1c0.7,0.6,1.3,1.2,2,1.8c1.1,1,2.9,0,2.5-1.5
						c-0.3-1.2-0.4-1.5-0.9-2.6c-0.9,0.5-1.7,1-2.6,1.5c0.7,1,1,1.2,2,1.8c1.3,0.7,2.7-0.7,2.1-2.1c-2.7-5.3-6.7-9.3-11.9-12.1
						c-1.6-0.9-2.9,1.1-1.8,2.4c2.4,3,5.1,5.6,8.3,7.9c0.5-0.9,1-1.7,1.5-2.6c-1.7-1-3.2-2.1-4.6-3.5c-0.6,0.8-1.2,1.6-1.8,2.4
						c1.6,1,3,2.1,4.3,3.5c1.2,1.3,3-0.4,2.4-1.8c-1.6-3.4-3.7-6.2-6.6-8.7c-0.7,0.7-1.4,1.4-2.1,2.1c3.3,2.7,6,5.6,8.4,9.2
						c0.8-0.6,1.6-1.2,2.4-1.8c-2.6-3.3-5.1-6.5-7.7-9.8c-0.6,0.8-1.2,1.6-1.8,2.4c3.9,2.8,5.3,8,8.6,11.4c1.3,1.4,3.5-0.7,2.1-2.1
						c-3.6-3.7-4.8-8.8-9.2-11.9c-1.5-1.1-2.8,1.1-1.8,2.4c2.6,3.3,5.1,6.5,7.7,9.8c1.1,1.3,3.3-0.4,2.4-1.8c-2.5-3.8-5.4-7-8.8-9.8
						c-1.5-1.2-3.6,0.9-2.1,2.1c2.7,2.3,4.7,4.9,6.2,8.1c0.8-0.6,1.6-1.2,2.4-1.8c-1.5-1.6-3.1-2.8-4.9-4c-1.5-0.9-3.1,1.2-1.8,2.4
						c1.6,1.6,3.3,2.8,5.3,4c1.7,1,3-1.5,1.5-2.6c-2.9-2.1-5.4-4.6-7.7-7.4c-0.6,0.8-1.2,1.6-1.8,2.4c4.8,2.6,8.3,6.2,10.8,11
						c0.7-0.7,1.4-1.4,2.1-2.1c-0.3-0.2-0.6-0.5-0.9-0.7c-1.2-1.5-3.4-0.3-2.6,1.5c0.2,0.6,0.4,1.3,0.6,1.9c0.8-0.5,1.7-1,2.5-1.5
						c-0.7-0.6-1.3-1.2-2-1.8c-1.4-1.3-3.4,0.7-2.1,2.1c0.5,0.8,1.2,1.4,2,1.9c1.5,1.2,3.6-0.8,2.1-2.1c-1.1-1-1.6-1.4-2.8-2.3
						c-0.3,0.9-0.5,1.9-0.8,2.8c0.4,0,0.8,0.1,1.2,0.1c1.6,0.2,1.9-2,0.8-2.8c-0.4-0.3-0.9-0.6-1.3-0.9c-1.6-1.1-3.1,1.5-1.5,2.6
						c0.3,0.2,0.7,0.5,1,0.7c0.5-0.9,1-1.7,1.5-2.6c-1.5-0.9-2.8-1.8-4.2-2.8c-1.5-1.1-2.8,1.1-1.8,2.4c0.3,0.4,0.6,0.8,0.9,1.2
						c0.6-0.8,1.2-1.6,1.8-2.4c-1.5-0.9-2.9-1.8-4.3-2.8c-0.4,0.9-0.8,1.8-1.2,2.7c1.2,0.5,2.5,1,3.7,1.5c1.7,0.7,2.5-1.8,1.2-2.7
						c-0.8-0.7-1.6-1.3-2.4-2c-0.6,0.8-1.2,1.6-1.8,2.4c0.6,0.4,1.3,0.8,1.9,1.2c1.7,1,3.1-1.5,1.5-2.6c-1.4-0.9-2.6-2-3.5-3.4
						c-1.1-1.6-3.5-0.2-2.6,1.5c0.2,0.6,0.5,1.2,0.7,1.8c0.8-0.5,1.7-1,2.5-1.5c-0.5-0.7-1-1.4-1.5-2.1c-0.7,0.7-1.4,1.4-2.1,2.1
						c0.7,0.3,1.4,0.6,2.1,1c1.2,0.6,3-0.7,2.1-2.1c-0.8-1.2-1.7-2.4-2.5-3.6c-0.9,0.5-1.7,1-2.6,1.5c0.9,1.2,1.7,2.4,2.6,3.6
						c1,1.4,3.1,0.6,2.7-1.2c-0.5-2.5-2.1-6.2-5.2-5.9c-2,0.2-3.6,2.4-2.1,4.2c3.2,4,6.8-5.2,1.1-5c-5.6,0.2-1.2,8.3,1.9,4.4
						c1.3-1.7-0.2-4.2-2.2-4.4c-3-0.2-3.9,3.3-3.2,5.5c0.3,1,1.7,1.5,2.5,0.7c1.7-1.8,0.8-3.6-1.2-4.7c-0.4,0.9-0.8,1.8-1.2,2.7
						c0.5,0.1,1,0.3,1.5,0.4c1.7,0.4,2.5-1.8,1.2-2.7c-1-0.7-1.9-1.3-2.9-2c-0.5,0.9-1,1.7-1.5,2.6c2.7,1.3,5.2,0.4,7.9,1.3
						c-0.3-0.7-0.6-1.5-0.9-2.2c-0.8,1.6-1.9,2.8-3.5,3.7c0.7,0.7,1.4,1.4,2.1,2.1c0.5-0.3,1.1-0.5,1.6-0.8c-0.1-1-0.3-2-0.4-2.9
						c-1.6,0.4-3.3,0.8-4.9,1.2c-1.3,0.3-1.4,2-0.4,2.7c0.4,0.3,0.7,0.5,1.1,0.8c0.5-0.9,1-1.7,1.5-2.6c-0.6-0.8-1.3-1.6-1.9-2.4
						c-0.8,0.5-1.7,1-2.5,1.5c0.6,0.5,1.1,1,1.7,1.6c0.6-0.8,1.2-1.6,1.8-2.4c-2.3-1.5-4.7-2.6-7.3-3.6c-1.6-0.6-2.6,1.9-1.2,2.7
						c1.6,0.9,3.1,1.6,4.9,2.2c1.4,0.5,2.6-1.5,1.5-2.5c-2.5-2.2-5.1-3.5-8.4-4.1c-1.6-0.3-2.6,1.8-1.2,2.7c1.7,1.1,3.2,1.8,5.1,2.4
						c0.1-1,0.3-2,0.4-2.9c-2-0.2-3.7-0.1-5.7,0.3c-1.5,0.2-1.4,2.6,0,2.9c2.9,0.7,5.5,1.8,8.1,3.4c0.5-0.9,1-1.7,1.5-2.6
						c-4.4-2-9-3.7-13.4-0.7c0.5,0.9,1,1.7,1.5,2.6c1.8-1.3,3.5-1.4,5.6-1.5c1.9-0.1,1.9-3,0-3c-1.3,0-2.7,0-4,0c0,1,0,2,0,3
						c2.1-0.2,4.1-0.3,6.1-0.3c1.9,0.1,1.9-2.9,0-3c-2-0.1-4.1-0.3-6.1-0.4c0.1,1,0.3,2,0.4,2.9c2.3-0.8,7.8-1.3,7.7-4.8
						c0-2.6-2.5-3.4-4.6-3.2C98.8,25.2,98,26,98.3,27c1.1,3.3,6.5,3.8,6.2-0.4c-0.2-3.6-5.9-4.2-5.8-0.3c0.1,3.4,6.6,6.2,7.6,2
						c1-4.1-5.7-4-6.9-0.8c-0.2,0.5,0.1,1.1,0.4,1.5c1.9,2.2,5.1,2.8,7.9,2.6c1.1-0.1,2-1.3,1.3-2.3c-1.9-2.8-4.5-3.9-7.9-3.3
						c-0.9,0.2-1.5,1.5-0.9,2.2c1.6,2,3.1,2.9,5.6,3.2c1.5,0.2,2-2.1,0.8-2.8c-2.6-1.4-5-2-7.9-1.8c-1.5,0.1-2.1,2-0.8,2.8
						c1.3,0.8,2.4,1.2,4,1.3C103.7,31.2,103.7,28.2,101.8,28L101.8,28z"/>
				</g>
			</g>
			<g>
				<g>
					<path class="st0" d="M125.2,39.4c-0.5-0.8-1-1.6-1.4-2.3c-0.9-1.4-3.3-0.5-2.7,1.2c0.2,0.5,0.4,1,0.7,1.5
						c0.9-0.5,1.7-1,2.6-1.5c-1.1-1.7-2.4-3.3-3.7-4.9c-1.1-1.3-3.3,0.4-2.4,1.8c1.4,2.1,2.9,4.3,4.3,6.4c1.1,1.6,3.7,0.1,2.6-1.5
						c-1.4-2.1-2.9-4.3-4.3-6.4c-0.8,0.6-1.6,1.2-2.4,1.8c1.1,1.4,2.2,2.8,3.2,4.2c1.1,1.6,3.7,0.1,2.6-1.5
						c-0.2-0.2-0.3-0.5-0.4-0.8c-0.9,0.4-1.8,0.8-2.7,1.2c0.5,0.8,1,1.6,1.4,2.3C123.6,42.5,126.2,41,125.2,39.4L125.2,39.4z"/>
				</g>
			</g>
			<g>
				<g>
					<path class="st0" d="M125.4,45.3c-0.4-0.7-0.9-1.2-1.5-1.8c-1.2-1-3.4,0.3-2.4,1.8c0.6,0.9,1.2,1.8,1.8,2.7
						c0.8-0.6,1.6-1.2,2.4-1.8c-0.4-0.4-0.7-0.8-0.9-1.3c-0.9,0.4-1.8,0.8-2.7,1.2c0.6,1.2,1.3,2.2,2.1,3.2c0.7-0.7,1.4-1.4,2.1-2.1
						c-0.6-0.6-1.3-1.1-2-1.5c-1.6-0.9-2.8,1.1-1.8,2.4c0.9,1.1,3.7,3.7,3.3,5.2c-0.2,0.5,0,1.1,0.4,1.5c0.3,0.3,0.5,0.5,0.8,0.8
						c1.2,1.2,3.1-0.3,2.4-1.8c-1-1.9-2.2-3.7-3.6-5.4c-1.1-1.3-3.2,0.4-2.4,1.8c0.2,0.3,0.4,0.7,0.6,1c0.9,1.5,3.1,0.5,2.7-1.2
						c-0.3-1.5-0.6-3.1-0.8-4.7c-0.8,0.5-1.7,1-2.5,1.5c0.9,0.7,1.5,1.4,1.9,2.5c0.6,1.8,3.4,1.1,2.9-0.8c-0.3-1-0.5-2-0.8-2.9
						c-0.9,0.4-1.8,0.8-2.7,1.2c0.8,1.7,1.3,3.4,1.5,5.3c0.2,1.9,3.2,2,3,0c-0.3-3.3-1-6.5-2.3-9.6c-1,0.3-1.9,0.5-2.9,0.8
						c0.8,1.9,1.2,3.8,1.3,5.9c0,1.9,3,1.9,3,0c-0.1-2.3-0.5-4.5-1.4-6.7c-0.7-1.8-3.6-1-2.9,0.8c1.2,2.8,1.9,5.7,2.1,8.8
						c1,0,2,0,3,0c-0.3-2.4-0.9-4.6-1.9-6.8c-0.7-1.6-3.2-0.4-2.7,1.2c0.3,1,0.5,2,0.8,2.9c1-0.3,1.9-0.5,2.9-0.8
						c-0.6-1.6-1.4-2.8-2.7-3.9c-1.2-1-2.7-0.1-2.5,1.5c0.2,1.6,0.5,3.1,0.8,4.7c0.9-0.4,1.8-0.8,2.7-1.2c-0.2-0.3-0.4-0.7-0.6-1
						c-0.8,0.6-1.6,1.2-2.4,1.8c1.2,1.5,2.2,3,3.1,4.7c0.8-0.6,1.6-1.2,2.4-1.8c-0.3-0.3-0.5-0.5-0.8-0.8c0.1,0.5,0.3,1,0.4,1.5
						c1-3.1-2.3-5.9-4-8.1c-0.6,0.8-1.2,1.6-1.8,2.4c0.5,0.3,1,0.6,1.4,1.1c1.4,1.3,3.4-0.7,2.1-2.1c-0.7-0.8-1.2-1.6-1.7-2.6
						c-0.7-1.5-3.4-0.4-2.7,1.2c0.4,1,0.9,1.8,1.6,2.7c1.1,1.3,3.3-0.4,2.4-1.8c-0.6-0.9-1.2-1.8-1.8-2.7c-0.8,0.6-1.6,1.2-2.4,1.8
						c0.4,0.3,0.8,0.7,1,1.1C123.8,48.4,126.4,46.9,125.4,45.3L125.4,45.3z"/>
				</g>
			</g>
			<g>
				<g>
					<path class="st0" d="M115.3,30c0-0.5,0-1,0-1.5c-1,0-2,0-3,0c0,0.2,0,0.5,0,0.7c1,0,1.9,0,2.9,0c-0.3-0.9-1.1-1.5-2.1-1.2
						c-0.4,0.1-0.8,0.4-1.1,0.8c-0.1,0.1-0.6,1.4-0.2,0.8c0.3-0.2,0.6-0.5,0.9-0.7c-0.1,0-0.2,0-0.2,0.1c0.6,0.6,1.2,1.2,1.8,1.8
						c0.2-0.7,0.5-1.4,0.9-2c-0.9-0.5-1.7-1-2.6-1.5c-0.5,1-0.6,1.7-0.4,2.8c0.3,1.7,2.9,1.2,2.9-0.4c0.1-2.2-0.2-4.3-0.7-6.5
						c-0.8,0.5-1.7,1-2.5,1.5c1.4,1.8,2.2,4,2.5,6.2c0.3,1.9,3.2,1.1,2.9-0.8c-0.4-2.8-1.6-5.3-3.3-7.5c-1-1.2-2.9,0.1-2.5,1.5
						c0.5,1.9,0.7,3.7,0.6,5.7c1-0.1,2-0.3,2.9-0.4c0-0.2,0.1-0.3,0.1-0.5c0.8-1.7-1.6-3.2-2.6-1.5c-0.5,0.9-0.9,1.8-1.2,2.7
						c-0.3,1.1,0.8,2.1,1.8,1.8c1.1-0.2,1.2-1,1.5-1.9c-0.2,0.3-0.5,0.6-0.7,0.9c0.1,0,0.1-0.1,0.2-0.1c-0.4,0.1-0.8,0.1-1.2,0.2
						c0.1,0,0.1,0,0.2,0c-0.3-0.3-0.7-0.7-1-1c0,0,0,0.1,0.1,0.1c0.5,1.3,2.6,1.6,2.9,0c0.1-0.5,0.2-1,0.2-1.5c0-1.9-3-1.9-3,0
						c0,0.5,0,1,0,1.5C112.3,31.9,115.3,31.9,115.3,30L115.3,30z"/>
				</g>
			</g>
			<g>
				<g>
					<path class="st0" d="M115.4,31.6c0.7-0.2,1.4-0.4,2.2-0.5c0-1,0-2,0-3c-0.2,0-0.3,0-0.5,0c0,1,0,1.9,0,2.9
						c0.8-0.3,1.5-0.4,2.4-0.3c1.8,0,1.9-2.4,0.4-2.9c-0.6-0.2-1-0.2-1.7-0.1c-1.3,0.2-1.4,2.2-0.4,2.7c1.4,0.8,3.3,0.5,4.3,1.9
						c0.7-0.7,1.4-1.4,2.1-2.1c-0.1-0.1-0.3-0.1-0.4-0.2c-1.7-0.9-3.2,1.7-1.5,2.6c0.1,0.1,0.3,0.1,0.4,0.2c1.2,0.6,3-0.7,2.1-2.1
						c-0.6-0.8-1.3-1.6-2.3-2c-1-0.5-2.2-0.4-3.2-1c-0.1,0.9-0.2,1.8-0.4,2.7c0,0,0.1,0.1,0.1,0.1c0.1-1,0.3-2,0.4-2.9
						c-1.1,0-2.1,0.1-3.1,0.4c-1.3,0.4-1.5,2.6,0,2.9c0.5,0.1,0.8,0.2,1.3,0.1c1.9-0.2,1.9-3.2,0-3c-1,0.1-2,0.3-3,0.6
						C112.7,29.2,113.5,32.1,115.4,31.6L115.4,31.6z"/>
				</g>
			</g>
		</g>
	</g>
	<g>
		<g>
			<g>
				<path d="M70.7,49.5c0.2,1.3,0.5,2.6,0.7,4c0.1,0.7,1.1,4,0.6,4.4c0.3,0.1,0.7,0.2,1,0.3c-0.5-3.6,1.1-8.9,3.5-11.5
					c0.5-0.6-0.3-1.4-0.8-0.8c-2.8,3.1-4.4,8.6-3.8,12.7c0.1,0.5,0.7,0.5,1,0.3c0.8-0.6,0.5-1.6,0.3-2.5c-0.4-2.4-0.9-4.7-1.3-7.1
					C71.7,48.4,70.6,48.7,70.7,49.5L70.7,49.5z"/>
			</g>
		</g>
		<g>
			<g>
				<path d="M72.1,51.2c-1.6-2.4,1.1-6.8,2.5-8.8c0.4-0.6-0.6-1.2-1-0.6c-1.7,2.4-4.4,7.2-2.5,10C71.4,52.4,72.5,51.8,72.1,51.2
					L72.1,51.2z"/>
			</g>
		</g>
		<g>
			<g>
				<g>
					<path d="M73.7,38.3c-1.4,1.4-2.2,3.3-2.1,5.3c0,0.5,0.7,0.8,1,0.4c1.4-1.5,3-2.7,4.9-3.5c0.7-0.3,0.1-1.3-0.6-1
						c-2,0.9-3.7,2.1-5.1,3.7c0.3,0.1,0.7,0.3,1,0.4c0-1.7,0.6-3.2,1.8-4.4C75.1,38.6,74.2,37.8,73.7,38.3L73.7,38.3z"/>
				</g>
			</g>
			<g>
				<g>
					<path d="M76.5,40.1c-0.7,0.7-0.8,1.5-0.7,2.4c0.2,1.7,0.8,3.5,1.3,5.2c0.2,0.6,1.2,0.5,1.2-0.2c-0.2-2.9,0.5-5.6,2.1-8
						c0.4-0.6-0.6-1.3-1-0.6c-1.7,2.6-2.4,5.5-2.2,8.6c0.4-0.1,0.8-0.1,1.2-0.2c-0.3-1-0.5-2.1-0.8-3.1c-0.2-1-0.9-2.5,0-3.4
						C77.9,40.4,77.1,39.6,76.5,40.1L76.5,40.1z"/>
				</g>
			</g>
			<g>
				<g>
					<path d="M74,38.3c-1.7,0.2-2.6,0.6-4,1.6c0.3,0.3,0.5,0.5,0.8,0.8C76,32.2,85.7,28,95.1,26.5c0.8-0.1,0.4-1.3-0.3-1.2
						c-9.7,1.5-19.7,6-25,14.7c-0.3,0.5,0.3,1.2,0.8,0.8c1.1-0.9,2.3-1.4,3.7-1.4C75.1,39.3,74.8,38.2,74,38.3L74,38.3z"/>
				</g>
			</g>
			<g>
				<g>
					<path d="M94.5,25c-2.1,0-4.3,0.1-6.4,0.3c0.1,0.4,0.2,0.7,0.3,1.1c7.3-4.9,16.5-5,23.1,1.4c0.6,0.5,1.4-0.3,0.8-0.8
						c-7-6.8-16.7-6.8-24.5-1.6c-0.5,0.3-0.3,1.2,0.3,1.1c2.1-0.2,4.2-0.3,6.4-0.3C95.3,26.2,95.3,25,94.5,25L94.5,25z"/>
				</g>
			</g>
			<g>
				<g>
					<path d="M78.6,48c-0.3-1.3,1.6-3.7,2.3-4.7c1.1-1.6,2.5-3,4.1-4.2c0.6-0.5,0-1.5-0.6-1c-1.8,1.4-3.4,3-4.7,4.9
						c-0.9,1.3-2.6,3.7-2.2,5.4C77.6,49.1,78.7,48.8,78.6,48L78.6,48z"/>
				</g>
			</g>
			<g>
				<g>
					<path d="M84.2,39.9c0.1,0,0.1,0,0.2,0c0.2-0.1,0.5-0.3,0.4-0.6c0-0.1,0-0.1,0-0.2c0-0.5-0.5-0.7-0.9-0.5
						c-0.1,0.1-0.2,0.1-0.3,0.2c-0.2,0.1-0.3,0.3-0.3,0.5c-0.1,1.7-0.1,1.2,0.2,2.9c0.1,0.4,0.7,0.6,1,0.3
						c6.2-7.8,14.6-9.1,23.7-5.6c0.7,0.3,1-0.9,0.3-1.2c-5.1-2-9.5-2.9-14.9-1.2c-1.7,0.5-3.5,1.2-5,2.1c-0.7,0.4-1.3,0.9-1.9,1.5
						c-0.4,0.4-0.7,0.7-1.1,1.1c-0.9,1.7-1.4,1.6-1.7-0.5C83.1,38.9,83.5,40.1,84.2,39.9L84.2,39.9z"/>
				</g>
			</g>
			<g>
				<g>
					<path d="M107.5,37c1.8,0.1,3.6-0.2,5.3-0.8c0.7-0.3,0.4-1.4-0.3-1.2c-1.6,0.6-3.3,0.9-5,0.8C106.7,35.7,106.7,36.9,107.5,37
						L107.5,37z"/>
				</g>
			</g>
			<g>
				<g>
					<path d="M112.5,28.2c0.6-2.6,0-5.2-1.6-7.3c-0.3,0.3-0.5,0.5-0.8,0.8c2.3,1.4,4.8,3.1,5.1,6c0.1,0.8,1.3,0.8,1.2,0
						c-0.3-3.4-3-5.3-5.7-7c-0.5-0.3-1.2,0.3-0.8,0.8c1.4,1.9,2,4.1,1.5,6.4C111.2,28.6,112.3,28.9,112.5,28.2L112.5,28.2z"/>
				</g>
			</g>
			<g>
				<g>
					<path d="M115.8,28.5c3.7-1.1,7.3,0.6,8.7,4.2c0.2-0.2,0.5-0.5,0.7-0.7c-3.3-0.7-6.3-2.8-9.8-1.9c-0.7,0.2-0.4,1.4,0.3,1.2
						c3.2-0.8,6.1,1.2,9.2,1.9c0.4,0.1,0.9-0.3,0.7-0.7c-1.6-4.2-5.9-6.3-10.2-5C114.8,27.5,115.1,28.7,115.8,28.5L115.8,28.5z"/>
				</g>
			</g>
			<g>
				<g>
					<path d="M112.2,35.5c1.6,5.1,7,7.6,11.2,10.4c0.6,0.4,1.2-0.6,0.6-1c-3.8-2.6-9.2-5-10.7-9.7C113.2,34.4,112,34.7,112.2,35.5
						L112.2,35.5z"/>
				</g>
			</g>
			<g>
				<g>
					<path d="M120.7,44.7c1.2,4.5,4.7,8.5,7.3,12.4c0.4,0.6,1.5,0,1-0.6c-2.4-3.7-6-7.8-7.2-12.1C121.6,43.6,120.5,43.9,120.7,44.7
						L120.7,44.7z"/>
				</g>
			</g>
			<g>
				<g>
					<path d="M129,58.4c1-11.6-2.2-21.9-12.3-28.6c-0.6-0.4-1.2,0.6-0.6,1c9.8,6.4,12.7,16.4,11.7,27.6
						C127.7,59.1,128.9,59.1,129,58.4L129,58.4z"/>
				</g>
			</g>
		</g>
		<g>
			<g>
				<path d="M69.5,51.3c-1.8,4.4-0.3,8.8,1.9,12.8c0.3,0.6,1.1,0.3,1.1-0.3c0.2-2.7,0.4-5.4,0.6-8.1c0.1-0.8-1.1-0.8-1.2,0
					c-0.2,2.7-0.4,5.4-0.6,8.1c0.4-0.1,0.7-0.2,1.1-0.3c-2.1-3.7-3.5-7.7-1.8-11.9C70.9,50.9,69.8,50.6,69.5,51.3L69.5,51.3z"/>
			</g>
		</g>
	</g>
	<g>
		<g>
			<path class="st1" d="M95.9,24.6c1.5,0.3,2.8-0.2,4.3-0.3c2.2-0.2,4.3,0.3,6.2,1.4c0.7,0.4,1.3-0.7,0.6-1
				c-1.4-0.8-2.9-1.4-4.5-1.5c-2.1-0.2-4.3,0.7-6.3,0.4C95.5,23.3,95.2,24.4,95.9,24.6L95.9,24.6z"/>
		</g>
	</g>
	<g>
		<g>
			<path class="st1" d="M76.5,37.2c3.9-3.1,7.9-6.3,13.1-6.9c0.8-0.1,0.8-1.3,0-1.2c-5.5,0.6-9.7,3.8-13.9,7.2
				C75.1,36.9,75.9,37.7,76.5,37.2L76.5,37.2z"/>
		</g>
	</g>
	<g>
		<g>
			<path class="st1" d="M99.8,32.3c3.6-0.9,7.6,0.5,11,1.8c0.7,0.3,1-0.9,0.3-1.2c-3.6-1.3-7.8-2.8-11.7-1.8
				C98.7,31.4,99.1,32.5,99.8,32.3L99.8,32.3z"/>
		</g>
	</g>
	<g>
		<g>
			<path class="st1" d="M115.5,35.8c2,2.7,4.7,4.6,8,5.4c0.7,0.2,1.1-1,0.3-1.2c-3-0.7-5.5-2.4-7.3-4.9
				C116.1,34.5,115.1,35.1,115.5,35.8L115.5,35.8z"/>
		</g>
	</g>
	<g>
		<g>
			<path class="st1" d="M123.7,47.3c0.7,1.1,1.5,2.2,2.2,3.3c0.4,0.6,1.5,0,1-0.6c-0.7-1.1-1.5-2.2-2.2-3.3
				C124.3,46,123.2,46.6,123.7,47.3L123.7,47.3z"/>
		</g>
	</g>
</g>
</svg>
