<svg id="Layer_1" data-name="Layer 1" xmlns="http://www.w3.org/2000/svg" viewBox="0 0 68.83 86.43"><defs><style>.cls-1{fill:#27246b;}.cls-2{fill:#010101;}</style></defs><title>Bikini</title><path class="cls-1" d="M85.5,293.1a7.37,7.37,0,0,0-1.4.4c.9.4,1.8.7,2.7,1.1q-1-1.35.6-.3a13.2,13.2,0,0,1-.2,2.8,14.66,14.66,0,0,1-1.5,5.8l2.1-1.2c-.3,0,.8-6.6,2.6-7,2.6-.5-.3,5.3.9,5.2.8.1,1.1-.5.9-1.5,1.4-2.3,1.6-2.8.7-1.6a17.52,17.52,0,0,1-.4,4,3.06,3.06,0,0,0,2.7-2.3c-.8-.2-1.6-.4-2.3-.6a4.49,4.49,0,0,1-1.4,5.5c1.3.4,2.7.7,4,1.1.2-1.2.4-2.3.5-3.5-.8.2-1.6.4-2.3.6-.2.5-.4,1-.6,1.4l4.7.6c.1-.1.1-.2.2-.2-1.2-.5-2.4-1-3.5-1.4.1.3.1.7.2,1h3.4l-.2-.2v3.4l.1-.1c-1.4-.6-2.7-1.1-4.1-1.7-.4,5.9-.9,11.8-1.3,17.6h4.8c0-3.3,1.6-9.9-1.4-12.3-1.3-1.1-3.6-.9-4,1.1-1.2,5.4-2.5,14.7-6.6,18.8,1.3.4,2.7.7,4,1.1-2.7-7-1.7-15.7-.4-23l-4.7-.6a74,74,0,0,1,0,17.6l4.7-.6a37.1,37.1,0,0,1-1-9.4c.1-1.9.2-8.2,2.2-9.4l-3.3-.9c2.2,3.7,1.8,9,1.9,13.2.1,4-.1,8-.2,12h4.8a71.44,71.44,0,0,1,.2-17.9l-4.4.6c1.7,2.3,1.4,6.5,1.6,9.2s.5,5.6.7,8.4h4.8c-.6-5-1.1-10-.3-15H91.4a93,93,0,0,1,1.3,11.7h4.8c-.1-2.3-.3-4.7-.4-7l-4.7.6a26.61,26.61,0,0,1,1.2,5.6c.3,3,5.1,3.1,4.8,0-.1-1.1-.2-2.1-.3-3.2-.3-3-5-3.1-4.8,0l.3,3.9c.2,3.1,5,3.1,4.8,0-.2-5-.5-10.1-.7-15.1L93,312a8.59,8.59,0,0,1,.5,3.2,2.4,2.4,0,0,0,4.8,0c0-1.1.1-2.2.1-3.4l-4.7.6c.1.5.2,1.1.3,1.6,1.5-.4,3.1-.9,4.6-1.3a7.69,7.69,0,0,0-2.7-3.9c-1.4-1.1-3.5-.8-4,1.1a31.21,31.21,0,0,1-1.5,4.3l4.4.6a30.71,30.71,0,0,1-.7-11.3l-4.7-.6a44.79,44.79,0,0,1-.7,12.1l4.7.6a95.31,95.31,0,0,1,.9-11.9l-4.7-.6a98.24,98.24,0,0,1-1.9,14.3c-.8,3.7-1.4,9.3-3.8,12.3,1.3.2,2.5.3,3.8.5-3.3-5.8-2.6-14.2-2.7-20.6-.1-2.6-4.2-3.4-4.7-.6q-1.5,8.25-3.3,16.5c1.2-.5,2.4-1,3.5-1.4-1.3-1-1-7.1-1.1-8.7-.2-2.6-.2-5.1-.2-7.7s-4.3-3.4-4.7-.6c-.8,5.1-1.7,10.2-3,15.2h4.6a24.78,24.78,0,0,1-.8-11.8l-4.7-.6a100,100,0,0,1-2.1,15.4h4.6a50.76,50.76,0,0,1-.4-10.3H67.9a43.84,43.84,0,0,1-.1,8.1l4.7-.6a19.66,19.66,0,0,1-.5-5.9H67.2c0,2.4,0,4.9.1,7.3,0,3.2,4.4,3,4.8,0,.1-1.1.3-2.1.4-3.2l-4.7.6c1.2,4.5,2.3,9,3.5,13.5.8,3,5.4,1.7,4.6-1.3-1.2-4.5-2.3-9-3.5-13.5-.7-2.8-4.4-1.9-4.7.6-.1,1.1-.3,2.1-.4,3.2h4.8c0-2.4,0-4.9-.1-7.3,0-3.1-4.7-3.1-4.8,0a28.86,28.86,0,0,0,.7,7.2c.6,2.8,4.5,1.9,4.7-.6a43.73,43.73,0,0,0,.1-8.1,2.4,2.4,0,0,0-4.8,0,56.44,56.44,0,0,0,.6,11.6c.4,2.4,4.2,2.2,4.6,0a117.66,117.66,0,0,0,2.3-16.7c.2-2.7-4.3-3.3-4.7-.6a30.13,30.13,0,0,0,.8,14.3,2.41,2.41,0,0,0,4.6,0c1.3-5,2.2-10.1,3-15.2l-4.7-.6a140.9,140.9,0,0,0,.8,14.5c.3,2.7.7,4.4,2.9,6.1,1.2.9,3.2-.1,3.5-1.4q2-8.25,3.3-16.5l-4.7-.6c.2,7.4-.4,16.4,3.4,23.1.7,1.2,2.8,1.7,3.8.5,3-3.6,3.8-9,4.8-13.5a116.91,116.91,0,0,0,2.3-16.5c.2-2.7-4.3-3.3-4.7-.6a115.54,115.54,0,0,0-1.1,13.2c0,2.6,4.2,3.3,4.7.6a45.85,45.85,0,0,0,.8-13.3c-.2-2.5-4.3-3.5-4.7-.6a35.64,35.64,0,0,0,.7,13.8c.5,1.9,3.5,2.5,4.4.6a36.17,36.17,0,0,0,2-5.5c-1.3.4-2.7.7-4,1.1l1.5,1.8a2.39,2.39,0,0,0,4.6-1.3c-.1-.5-.2-1.1-.3-1.6-.5-2.7-4.6-2-4.7.6,0,1.1-.1,2.2-.1,3.4h4.8a22.23,22.23,0,0,0-.7-4.5c-.7-2.6-4.8-2.1-4.7.6.2,5,.5,10.1.7,15.1h4.8l-.3-3.9H93.4c.1,1.1.2,2.1.3,3.2h4.8a32.33,32.33,0,0,0-1.3-6.9c-.8-2.5-4.9-2.2-4.7.6.1,2.3.3,4.7.4,7,.2,3.1,4.9,3.1,4.8,0a94.08,94.08,0,0,0-1.5-13c-.4-2.3-4.2-2.3-4.6,0-.9,5.5-.5,10.8.1,16.3.3,3,5,3.1,4.8,0-.3-4.1-.6-8.1-1-12.2-.2-2.8-.2-5.5-1.9-7.8-1-1.5-4.1-1.7-4.4.6a77.15,77.15,0,0,0-.4,19.2c.3,3,4.7,3.2,4.8,0,.2-8.5,2.1-19.9-2.4-27.6a2.56,2.56,0,0,0-3.3-.9c-3.2,1.8-3.7,6.5-4.2,9.8a38.8,38.8,0,0,0,.8,14.4c.7,2.8,4.4,1.9,4.7-.6a74,74,0,0,0,0-17.6c-.3-2.4-4.2-3.6-4.7-.6-1.4,8.1-2.7,17.6.4,25.5a2.47,2.47,0,0,0,4,1.1c4.8-4.8,6.4-14.5,7.8-20.9-1.3.4-2.7.7-4,1.1.8.6,0,7.7-.1,8.9,0,3.1,4.6,3,4.8,0,.4-5.9.9-11.8,1.3-17.6.2-2.1-2.7-3.2-4.1-1.7l-.1.1a2.48,2.48,0,0,0,0,3.4l.2.2a2.48,2.48,0,0,0,3.4,0c1.6-1.6,1.3-3.6,1-5.7-.2-1.5-2.3-2.2-3.5-1.4a4.7,4.7,0,0,0-2.5,4.4c-.2,2.9,3.8,2.9,4.7.6,1.1-2.6.6-7.8-3.4-7.4s-4,6.1-3.5,8.9a2.43,2.43,0,0,0,4,1.1c2.7-2.7,4.8-7.8,2.3-11.3-2.3-3.4-6.1-1-7.5,1.9-1.2,2.6-1.7,7.8,1.6,9.3,4.1,1.9,5.8-3.5,6.2-6.4s.8-8.8-3.2-9.5-6.4,5-7.1,8-.3,7,3.4,7.3c4.5.4,5.7-6.5,5.6-9.8s-1.8-7.4-5.6-6.8-6.8,5.4-7.4,8.9c-.5,2.7-.1,7.3,3.2,8.2,4.6,1.4,5.4-6.2,5.7-9,.3-3.2.4-7.8-3.2-9.3-4-1.6-7.3,3-8,6.4-2.3,10.2,12.7,8.1,10-.8-1.1-3.5-5.8-5-8.2-1.9a4,4,0,0,0,3.6,6.6,3.74,3.74,0,0,0,1.4-6.9c-4-2.4-6.3,2.4-4.9,5.5a2.3,2.3,0,0,0,2.7,1.1,7.37,7.37,0,0,0,1.4-.4c2.9-1.7,1.6-6.3-1.4-5.5Z" transform="translate(-65.59 -266.5)"/><path class="cls-1" d="M75.7,334.2c-.4-1.8-.8-3.6-1.3-5.4a2.4,2.4,0,0,0-4.6,0c-.3,1.3-.6,2.7-.9,4h4.6a21,21,0,0,1-.9-5c-.1-2.5-4.3-3.5-4.7-.6-.1.8-.3,1.7-.4,2.5h4.6a9.16,9.16,0,0,1-.3-3.7H67v1.2h4.8c0-.5-.1-.9-.1-1.4l-1.2,2.1a5,5,0,0,0,1.9-1.9H68.3c1,2.4,2,4.7,3,7.1s4.3.9,4.5-1.2a41,41,0,0,1,1.2-7H72.4a71.37,71.37,0,0,1,1.8,13H79a78.86,78.86,0,0,1-.3-11.9l-4.7.6c.5,3.5.9,7,1.4,10.5,1.5-.4,3.1-.9,4.6-1.3a26.23,26.23,0,0,1-.8-11.5c-1.3.4-2.7.7-4,1.1,1.8,2.2,1.9,8.4,2.2,11.2,1.5-.4,3.1-.9,4.6-1.3a22.72,22.72,0,0,1-.2-7.8H77.2a57,57,0,0,1,2.7,9.8c.5,2.6,5,2.1,4.7-.6-.2-2.3-1.4-6.8-.2-8.8l-4.4-.6c1.1,3.4,2.1,6.9,2.9,10.4.6,2.6,5,2.1,4.7-.6a27,27,0,0,1,0-9.4H83a65.91,65.91,0,0,1,2.2,11.6c.3,3,5,3.1,4.8,0a27.16,27.16,0,0,1,.5-9H85.9a63.62,63.62,0,0,1,2.9,11.2c.4,2.7,4.8,2,4.7-.6a40.07,40.07,0,0,1,.5-9.8H89.4a22.28,22.28,0,0,1,1.1,7.3c-.1,3.1,4.7,3.1,4.8,0a23.08,23.08,0,0,0-1.3-8.6c-.7-2.1-4.1-2.4-4.6,0a41.24,41.24,0,0,0-.7,11.1l4.7-.6a61.44,61.44,0,0,0-2.9-11.2c-.8-2.1-4-2.4-4.6,0a32.18,32.18,0,0,0-.7,10.3H90a69.88,69.88,0,0,0-2.4-12.9c-.6-2.2-4.1-2.4-4.6,0a32,32,0,0,0-.2,10.7l4.7-.6a94.35,94.35,0,0,0-2.9-10.4,2.46,2.46,0,0,0-4.4-.6c-1.9,3.2-.9,7.7-.5,11.2l4.7-.6a78.58,78.58,0,0,0-2.7-9.8c-.7-2-4.3-2.6-4.6,0a30.29,30.29,0,0,0,.2,10.4c.6,3.1,5,1.7,4.6-1.3-.6-4.3-.6-9.8-3.5-13.3-1.1-1.3-3.8-.7-4,1.1a33.11,33.11,0,0,0,.8,14c.9,3.1,5,1.7,4.6-1.3-.5-3.5-.9-7-1.4-10.5-.4-2.8-4.6-1.9-4.7.6A78.86,78.86,0,0,0,74,338c.3,3,5,3.1,4.8,0a76.79,76.79,0,0,0-1.9-14.3,2.4,2.4,0,0,0-4.6,0,57.53,57.53,0,0,0-1.4,8.3l4.5-1.2c-1-2.4-2-4.7-3-7.1-.7-1.7-3.3-1.4-4.1,0,0,.1-.1.1-.1.2A2.25,2.25,0,0,0,67,326c0,.5.1.9.1,1.4.3,3,4.8,3.1,4.8,0v-1.2c0-3.1-4.7-3.1-4.8,0a21.22,21.22,0,0,0,.5,5c.5,2.2,4.3,2.4,4.6,0,.1-.8.3-1.7.4-2.5l-4.7-.6a26.84,26.84,0,0,0,1.1,6.3c.7,2.2,4.1,2.4,4.6,0,.3-1.3.6-2.7.9-4H69.9c.4,1.8.8,3.6,1.3,5.4.5,2.7,5.2,1.4,4.5-1.6Z" transform="translate(-65.59 -266.5)"/><path class="cls-1" d="M87,344.1c-.3.1-.6.1-.8.2.8.2,1.6.4,2.3.6a4.35,4.35,0,0,0-.7-.6c-.8,1.3-1.6,2.7-2.3,4,1.3-1.6,1.3-2.2.1-1.8-.6.1-1.3.3-1.9.4-2.8.6-2,4.6.6,4.7a84.24,84.24,0,0,0,12.3-.3c1.2-.1,2.6-1,2.4-2.4-.8-7.3-.7-14.8-1-22.2l-4.7.6a37.38,37.38,0,0,1,.3,7.5c-.2,3.1,4.6,3.1,4.8,0a42,42,0,0,0-.4-8.7c-.4-2.7-4.8-2-4.7.6.3,7.4.2,14.9,1,22.2l2.4-2.4a84.24,84.24,0,0,1-12.3.3c.2,1.6.4,3.1.6,4.7,2.2-.5,5-.7,5.4-3.5.3-2.3-1.6-3.7-3.6-4.4-2.2-.7-4.2,2.4-2.3,4a3.43,3.43,0,0,0,3.8,1c2.9-.6,1.7-5.3-1.3-4.5Z" transform="translate(-65.59 -266.5)"/><path class="cls-1" d="M90.5,343.2c-.8.3-1,.5-.4.5.8.2,1.6.4,2.3.6l.3-.6-2.1-1.2c-4.2,1.5-7.3.3-9.4-3.7L79.1,340c-.1-.1-.2-.1-.3-.2l-1.2,2.1-2.4-2.4-4.4.6v-.2c1.3-.4,2.7-.7,4-1.1-.4-.6-.9-1.1-1.3-1.7a2.43,2.43,0,0,0-4.4.6c-.2.5-.3,1.1-.5,1.6l4.4-.6a11.71,11.71,0,0,1-1.4-8.4c.5-3-4.1-4.3-4.6-1.3a17.55,17.55,0,0,0,1.9,12.1c1,1.9,3.8,1.3,4.4-.6.2-.5.3-1.1.5-1.6l-4.4.6a13.5,13.5,0,0,0,2,2.7,2.43,2.43,0,0,0,4-1.1,3.65,3.65,0,0,0-.5-3.5,2.43,2.43,0,0,0-4.4.6c-1.6,4,1.6,9.3,6.3,7.1,2.9-1.4,3.5-5.9.5-7.6-3.4-1.9-6,2.1-5,5.2a5.24,5.24,0,0,0,8.9,1.9,4.77,4.77,0,0,0-3.1-7.9c-3.8-.3-5.6,3.9-3.1,6.7,6.9,7.5,13.2-8.5,4-8.4a2.25,2.25,0,0,0-2.1,1.2c-1.9,4.6,1.5,12.4,7.4,10.5,4.3-1.4,4.7-8.2.2-9.7a4.07,4.07,0,0,0-5.1,2.2c-1.3,2.7.4,5.5,2.6,7.1,3.4,2.5,12.6,2.5,11.1-3.9a3.79,3.79,0,1,0-7.4,1.6c.7,4.4,7.5,7.4,9.8,2.5,1.9-4-2.5-11-6.7-6.7-2.8,2.8-1.3,10.7,3.6,7.9s.6-13.6-5.1-10.6c-2.3,1.2-3.1,4.5-2.3,6.9.9,3.1,3.7,4,6.6,3.6,3.2-.4,1.9-5.1-1.1-4.6Z" transform="translate(-65.59 -266.5)"/><path class="cls-1" d="M73.1,343.5h-.2c.2,1.6.4,3.1.6,4.7a.37.37,0,0,0,.3-.1,11,11,0,0,0-1.8-.2c.1.1.2.1.3.2a17.09,17.09,0,0,0-1.1-1.4c0,.1.1.2.1.3.8-1,1.5-2,2.3-3a5.7,5.7,0,0,0-1.3.1,2.46,2.46,0,0,0-2.3,1.8c-.7,2.3-2.2,5.7,1.2,6.7,1.8.5,4.2.1,6,.1,2.2,0,4.3,0,6.5.1,2.8,0,3.2-3.9.6-4.7a64.47,64.47,0,0,0-8.4-2.1v4.6a25.81,25.81,0,0,1,7.8-1.1c-.2-1.6-.4-3.1-.6-4.7a15.16,15.16,0,0,1-6-.1c-.4,1.5-.9,3.1-1.3,4.6a2.57,2.57,0,0,1,1.6.7v-4.1c-1.1.7-3.7.7-4.5-.4-.4-.5-.1-2.5-.1-3.1,0-1-.1-2.1-.1-3.1-.1-3.1-4.9-3.1-4.8,0,.1,3.3-.7,8.4,2.5,10.5,2.6,1.7,6.9,2,9.5.3a2.39,2.39,0,0,0,0-4.1,7.24,7.24,0,0,0-2.7-1.2c-3-.6-4.3,4-1.3,4.6a20.77,20.77,0,0,0,8.6.1c2.7-.5,2-4.7-.6-4.7a35,35,0,0,0-9.1,1.2c-2.1.6-2.4,4.2,0,4.6a57.32,57.32,0,0,1,8.4,2.1c.2-1.6.4-3.1.6-4.7-2,0-4,0-5.9-.1a34.9,34.9,0,0,1-5.6,0,17.1,17.1,0,0,1,1.4,1.1c-.1-.1-.1-.2-.2-.4a11,11,0,0,1,.2,1.8,20.74,20.74,0,0,1,1-3.3c-.8.6-1.5,1.2-2.3,1.8a5.7,5.7,0,0,0,1.3-.1c1.5-.1,2.9-1.5,2.3-3a3,3,0,0,0-3.7-2.1c-2.7.5-2.1,4.8.6,4.7a5.83,5.83,0,0,0,2.6-.6c2.8-1.4.4-5.5-2.4-4.3Z" transform="translate(-65.59 -266.5)"/><path class="cls-1" d="M78.3,307.2a14.82,14.82,0,0,1-1.7,5l4.4.6a26.31,26.31,0,0,1,1.3-14.7l-4.4.6c2,3.4,0,10.6-.7,14l4.7.6a23.46,23.46,0,0,1,2.9-14.2l-4.5-1.2a34.48,34.48,0,0,1-1,13.2l4.7.6A26.6,26.6,0,0,1,87.2,301l-4.5-1.2a38.56,38.56,0,0,1-1.1,10.7l4.4-.6a93.25,93.25,0,0,1-3.8-10c-.5-1.6-2.8-2.5-4-1.1-3.9,4.4-4.2,10.9-6.6,16.1,1.3-.2,2.5-.3,3.8-.5-1.6-1.6-.8-8.4-.8-10.5H69.8a39.09,39.09,0,0,1-1.3,10.2h4.6a14,14,0,0,1-.9-7H67.4c-.1,3-.1,6.1-.2,9.1l4.7-.6a11.83,11.83,0,0,1-.1-4.6H67a7.18,7.18,0,0,1-.7,3.8l4.7.6c.1-12.8-.4-25.9,2.3-38.5a2.39,2.39,0,0,0-4.6-1.3,42.16,42.16,0,0,0-2.2,7.7c1.5.4,3.1.9,4.6,1.3.4-3.3.3-10.8,3.7-12.5,2.3-1.2,7.5-.1,9.9-.1,7.4.1,14.9.3,22.3.4,3.1.1,3.1-4.7,0-4.8-10.2-.2-20.8-1.2-31-.5-8.8.7-8.6,9-9.6,16.2-.4,3,4.1,4.4,4.6,1.3a40,40,0,0,1,2.2-7.7c-1.5-.4-3.1-.9-4.6-1.3-2.8,13.1-2.3,26.5-2.5,39.8,0,2.9,3.8,3.1,4.7.6a12.31,12.31,0,0,0,.9-5c0-3.1-4.5-3-4.8,0a18.72,18.72,0,0,0,.3,5.8c.5,2.7,4.7,2,4.7-.6.1-3,.1-6.1.2-9.1s-4.5-3-4.8,0a18.19,18.19,0,0,0,1.1,8.3c.8,2.1,4,2.4,4.6,0A44.06,44.06,0,0,0,74.5,304c0-3.1-4.8-3.1-4.8,0,0,4.1-1,10.8,2.2,13.9a2.42,2.42,0,0,0,3.8-.5,46.37,46.37,0,0,0,2.6-6.5c.9-2.9,1.2-6.3,3.3-8.7-1.3-.4-2.7-.7-4-1.1a95.54,95.54,0,0,0,4.3,11.2c.9,1.9,3.9,1.3,4.4-.6a44.18,44.18,0,0,0,1.3-12c-.1-2.3-3.3-3.4-4.5-1.2a33.69,33.69,0,0,0-3.9,13.1c-.2,2.7,4,3.2,4.7.6a39.49,39.49,0,0,0,1.2-14.5c-.2-2.2-3.2-3.5-4.5-1.2a27.55,27.55,0,0,0-3.5,16.6c.2,2.5,4.1,3.5,4.7.6,1.1-5.2,3-12.9.2-17.7a2.44,2.44,0,0,0-4.4.6,30.9,30.9,0,0,0-1.3,17.3c.4,2.1,3.4,2.3,4.4.6a19.43,19.43,0,0,0,2.2-6.1c.5-3-4.1-4.3-4.6-1.2Z" transform="translate(-65.59 -266.5)"/><path class="cls-1" d="M78.1,309.2a91.53,91.53,0,0,1,4.4-18.6c-1.5-.4-3.1-.9-4.6-1.3-.6,3.9-1.1,10.6-4.2,13.5,1.4.6,2.7,1.1,4.1,1.7a46,46,0,0,1,3.5-17.2l-4.5-1.2A62.35,62.35,0,0,1,73,301.4l4.7.6a28.69,28.69,0,0,1,2-14.5l-4.7-.6a43.93,43.93,0,0,1-3.1,17.9l4.7.6A39.82,39.82,0,0,1,78,289.3l-4.7-.6c.1,2.5.5,10-1.9,11.7,1.2.5,2.4,1,3.5,1.4a28.45,28.45,0,0,1-.9-11.6l-4.7.6a21.06,21.06,0,0,1,.1,8.3l4.7.6a80.11,80.11,0,0,1,0-12l-4.7.6a4.76,4.76,0,0,1-.5,3.7l4.7.6-.3-9.6H68.5a26.2,26.2,0,0,1,0,5.6c-.3,3.1,4.5,3,4.8,0A42.33,42.33,0,0,1,76,278H71.4a16,16,0,0,1,.1,8.4h4.6c-.5-1.4-2.6-8.1-.2-9.1H73.5a2.18,2.18,0,0,1,1,2.1c.6,2.4.5,2.7-.1,1.1,0-1.3.1-5.7,2.1-6.3-.8-.2-1.6-.4-2.3-.6.4.4,3.5,6.7,2,7,.8.2,1.6.4,2.3.6a6.64,6.64,0,0,1-.6-4.8q1-3.9.6-.9a12.52,12.52,0,0,1,1.1,5v1.8c2,2.1.6-3.9,2.2-4.8,2.3-1.3,2,4.6,1.7,5.6a4.69,4.69,0,0,1-1.4,2.9,8.42,8.42,0,0,1,.4-4.2c.2-.6,2.1-5,3.2-5,2.2-.1,2.9,7.6,2,8.5-3,3.1-4.2-4.1-.9-6,3.7-2.1,3.9,1.1,3.8,4.1a15.23,15.23,0,0,1-.6,4.2c-.3,1.9-.5,2.1-.7.5-.9-2.2.7-5.3,1.8-7.2a19.1,19.1,0,0,1,2.4-3.2c.6-.9.8-.7.7.7,1.6,4.2-.9,8.9-1.6,12.9a1.55,1.55,0,0,0-.1,2.1,12.45,12.45,0,0,1-1.1-4.7c0-.5.8-6.7,1.6-6.6l-2.1-1.2a5.57,5.57,0,0,1-.5,4.7c1.4-1.1,1.8-2.8,1.4-5,3.5-1.8,3.7-2.7.5-2.8-.9-1.2-1.7-1.5-2.3-.7l-1.2,2.1c3.4-2.2,11.7-2.5,15.2-.6.2-1.5.4-2.9.6-4.4-2,.6-5.5-1.1-7.3-1.6-2.6-.7-5.3-1.5-7.9-2.2-.4,1.5-.9,3.1-1.3,4.6,6.3.9,12.6,1.8,18.7,3.9.2-1.6.4-3.1.6-4.7a38.74,38.74,0,0,1-14.6-4l-1.2,4.5c4.3-.2,17.3-1,19.2,4.3l3-3a20.29,20.29,0,0,1-10-5.3c-.4,1.3-.7,2.7-1.1,4a8.28,8.28,0,0,1,5.7,1.2c.5.4,1,.8,1.6,1.2,1,1.9,1.4,2.2,1.2.7l-2.1,1.2c.9.1.6,7.8.5,8.6-.6,3,4.1,4.3,4.6,1.3.8-4.2,1-14.3-5.1-14.7a2.57,2.57,0,0,0-2.1,1.2c-2.8,5.7,7.5,13.4,9.6,6.6,1-3.3-1.8-7.1-4.2-9.1a13.79,13.79,0,0,0-10.9-2.8c-1.8.3-2.3,2.9-1.1,4a25.57,25.57,0,0,0,12.1,6.5,2.48,2.48,0,0,0,3-3c-3.1-8.5-16.5-8.1-23.8-7.8-2.2.1-3.4,3.3-1.2,4.5a44.08,44.08,0,0,0,17,4.7c2.8.2,3.1-3.9.6-4.7a91.44,91.44,0,0,0-18.7-3.9c-3-.4-4.3,3.8-1.3,4.6,3.5,1,7,2,10.6,3,2.5.7,4.7,1.7,7.3.9,1.9-.6,2.5-3.4.6-4.4-5.1-2.7-15.2-2.6-20.1.6a2.25,2.25,0,0,0-1.2,2.1c.5,5.3,14.1,9.3,14.4,2.6.1-2.8-2.8-4.2-5.2-4.4a8.45,8.45,0,0,0-8.8,6.2c-.7,3,.2,7.6,3.4,8.9,3.7,1.5,5.9-2.6,6.6-5.6.6-2.6.7-6.6-2.5-7.5-3.9-1-5.8,4.9-6.4,7.7-.8,3.6-.5,8.6,2,11.6,2,2.5,4.8,2.2,6.6-.3,2.8-4,3.8-10.3,3.7-15.1,0-3-.1-8.7-4-9.5-3.2-.6-5.8,3.1-7.4,5.4-2.6,3.8-4.7,9.3-3,13.8,1,2.7,4.3,5.5,7.2,3.4,3.2-2.3,3.5-9,3.4-12.6-.1-3.3-.5-7.6-4.2-8.7-4.2-1.3-8.9,3-10.6,6.4-2.5,5.3,2.6,16.3,9.3,11.4,5-3.6,3.5-20.2-4.2-19.4-6.8.6-11.5,14.2-6.8,19.1,2.4,2.5,5.5,1,7.1-1.4a15.78,15.78,0,0,0,1.4-13.7c-1.1-2.7-3.3-4.9-6.4-3.9-4.1,1.4-5.6,7.7-5.5,11.5.1,2.5,1.1,6.8,4.4,6.6,4-.2,4.2-6.3,4.2-9.2-.1-3.6-1.1-8.7-4.6-10.5-3.8-1.9-5.8,2-6.5,5.1-.7,2.9-.8,9.1,2.9,10,4.2,1.1,5-4.4,4.8-7.2-.3-3-1.8-8.9-5.7-8.5s-6,7.6-6.2,10.8c-.3,3.5,1.5,8.8,6,7.9,3.9-.8,5-5.6,4.4-8.9-.5-2.9-2.3-7.5-6-6.3-5.1,1.7-3.3,11-2,14.5.8,2.1,4,2.4,4.6,0a20.54,20.54,0,0,0-.1-11c-.7-2.5-3.8-2.1-4.6,0a41.44,41.44,0,0,0-2.9,11.9h4.8a26.2,26.2,0,0,0,0-5.6c-.3-3-4.9-3.2-4.8,0l.3,9.6c.1,2.9,3.7,3.1,4.7.6a10.46,10.46,0,0,0,.5-6.3c-.5-2.8-4.5-1.9-4.7.6a80.11,80.11,0,0,0,0,12c.2,2.5,4.2,3.5,4.7.6a30.16,30.16,0,0,0-.1-10.8c-.6-2.9-4.4-1.8-4.7.6a32.48,32.48,0,0,0,1.1,12.8c.4,1.4,2.3,2.4,3.5,1.4,4.3-3.2,4.3-11,4.2-15.8a2.4,2.4,0,0,0-4.7-.6,44,44,0,0,0-1.6,17.3,2.4,2.4,0,0,0,4.7.6,45,45,0,0,0,3.3-19.2c-.1-2.8-3.7-3.1-4.7-.6a31.59,31.59,0,0,0-2.2,15.8,2.4,2.4,0,0,0,4.7.6,62.91,62.91,0,0,0,4-16.6c.2-2.3-3.6-3.4-4.5-1.2a50.7,50.7,0,0,0-4.2,19.6,2.44,2.44,0,0,0,4.1,1.7c3.9-3.7,4.7-10.5,5.4-15.6.4-3-3.6-4.3-4.6-1.3a91.23,91.23,0,0,0-4.6,19.9c.3,3.8,5.1,3.8,5.4.8Z" transform="translate(-65.59 -266.5)"/><path class="cls-1" d="M105,300l-2.3-.6c-3.1-.8-4.1,3.5-1.3,4.6.9.3,1.7.7,2.6,1v-4.6c-3.3.8-5.2-1.5-8.3.9,1.3.8,2.7,1.6,4,2.3,1.8-5.2.8-10.8,2.4-16.1H97.5a16.12,16.12,0,0,1-.9,10.6l4.4.6c-.2-1.4.2-12.7,2.1-12.2,1.5.4-.1,5.6-.4,6.6-.3.8-.6,1.5-.9,2.3-.6,2.2-1.1,1.8-1.2-1-.7-2.3-1.9-5-.7-7.5,2.7-5.5,5,.2,5,2.9.4,1.9-.2,3-1.9,3.1l-.3-1.2c-1.1-1.6-.7-8.3.2-9.9-.9.4-1.8.7-2.7,1.1,1.1.2,2.2,6.8,2.4,7.7a24.23,24.23,0,0,1-.3,8.5c1.3-.4,2.7-.7,4-1.1a16.58,16.58,0,0,1-3-18c-1.3.2-2.5.3-3.8.5a24.55,24.55,0,0,1,5.2,9.5c.1.5.6,5.4.7,5.4,1.9.4.5-6,.5-6.6.2-2.9,1.3-4.7,2.4-1.2.5,1.6.2,3.7.1,5.3-.2,4.1-.6,8.1-1.1,12.2l4.5-1.2c-3.1-6.6-5-13.8-1.2-20.5h-4.1c.7,1.4,4.7,12.1,2.2,13.3h2.4c-4.6-3.1-4.4-10.5-2.7-15a2.17,2.17,0,0,0-.6-2.3,10.54,10.54,0,0,0-.7-1.1l-3,3c3.6,1.1,3.4,11.5,3.3,14.2a56.53,56.53,0,0,1-.4,5.9c-.1,1.1-.2,2.2-.4,3.4.7,1.3.6,1.3-.2.1-1.7-2.1-5.4.7-3.8,2.9.3.7.7,1.5,1,2.2,1.5-.6,2.9-1.2,4.4-1.8-.2-.9-.5-1.7-.7-2.6l-4.5,1.2c.3.4.6.9.9,1.3,1.5,2.2,5.2.9,4.4-1.8-.1-.8-.2-1.7-.3-2.5l-4.5,1.2a15.34,15.34,0,0,1,2.3,6.6l4.7-.6a17.26,17.26,0,0,1,.2-6.8h-4.6a38.14,38.14,0,0,1,.8,13.9h4.6a22.68,22.68,0,0,1-.5-7.8c.3-2.7-4.3-3.3-4.7-.6-.4,2.5-.7,4.9-1.1,7.4l4.7.6a33.06,33.06,0,0,1-.1-7.7c.3-2.7-4.2-3.3-4.7-.6-.4,2.1-.9,4.2-1.3,6.2h4.6a13,13,0,0,1-.1-5.2h-4.8a12.42,12.42,0,0,1-.4,3.3h4.6c.1-1.2.1-2.5.2-3.7l-4.7-.6a11.14,11.14,0,0,1,.2,1.7l4.7-.6c-.2-.5-.4-1.1-.6-1.6-.9-2.3-5.1-2.3-4.7.6.1.5.1.9.2,1.4h4.8c-.1-1-.3-2-.4-3.1a2.4,2.4,0,0,0-4.8,0,3.89,3.89,0,0,0,.6,2.6,2.43,2.43,0,0,0,4.4-.6c.1-.3.2-.7.3-1-1.5-.4-3.1-.9-4.6-1.3a15,15,0,0,0-.4,3.7h4.8c-.1-.6-.1-1.1-.2-1.7-.2-2.5-4.1-3.5-4.7-.6-.1.6-.2,1.1-.3,1.7-.6,3,4,4.3,4.6,1.3.1-.6.2-1.1.3-1.7l-4.7-.6c.1.6.1,1.1.2,1.7.3,3,4.7,3.1,4.8,0a19.42,19.42,0,0,0,.2-2.4c.6-3-3.9-4.3-4.6-1.3-.1.3-.2.7-.3,1l4.4-.6v-.2h-4.8c.1,1,.3,2,.4,3.1.4,3,5.2,3.1,4.8,0-.1-.5-.1-.9-.2-1.4l-4.7.6c.2.5.4,1.1.6,1.6.9,2.3,5.1,2.3,4.7-.6a11.14,11.14,0,0,1-.2-1.7c-.3-2.4-4.1-3.6-4.7-.6a16.71,16.71,0,0,0-.2,6.3c.3,2.4,4.1,2.2,4.6,0a34.69,34.69,0,0,0,.6-4.5c.1-3.2-4.4-3-4.8,0a17.71,17.71,0,0,0,.3,6.5c.5,2.3,4.2,2.3,4.6,0,.4-2.1.9-4.2,1.3-6.2l-4.7-.6a28.37,28.37,0,0,0,.1,7.7c.3,2.4,4.3,3.6,4.7.6.4-2.5.7-4.9,1.1-7.4l-4.7-.6a24.8,24.8,0,0,0,.7,9c.5,2.2,4.3,2.4,4.6,0a41.22,41.22,0,0,0-.8-16.4,2.4,2.4,0,0,0-4.6,0,24.74,24.74,0,0,0-.2,9.4c.4,2.6,5,2.1,4.7-.6a22.61,22.61,0,0,0-2.9-9.1,2.44,2.44,0,0,0-4.5,1.2,8.13,8.13,0,0,0,.4,3.8c1.5-.6,2.9-1.2,4.4-1.8-.3-.4-.6-.9-.9-1.3-1.2-1.8-4.7-1.3-4.5,1.2a11.06,11.06,0,0,0,1.4,5c1.3,2.5,5,.7,4.4-1.8a6.19,6.19,0,0,0-1.5-3.4l-3.8,2.9c1.6,1.9,4.3,3.5,6.6,1.7,2.7-2,2.2-8.1,2.4-11.1.4-6.3,1-19.8-6.7-22.2a2.48,2.48,0,0,0-3,3,6.31,6.31,0,0,0,2,3.3c-.2-.8-.4-1.6-.6-2.3a18.51,18.51,0,0,0-.4,12.5c.8,2.5,3,7.6,5.9,8.1,8.6,1.5,2.9-16.9,1.4-20.1a2.35,2.35,0,0,0-4.1,0c-4.8,8.3-2.7,17.2,1.2,25.4,1.1,2.4,4.2.9,4.5-1.2.7-5.9,4.3-20.9-2.2-25.1s-9.3,7.2-8.8,11.5c.3,2.6,1.1,6.4,3.5,7.8a3.5,3.5,0,0,0,5-1.6c1.4-2.8.1-7.7-.8-10.4a28.84,28.84,0,0,0-6-10.1,2.42,2.42,0,0,0-3.8.5,21.54,21.54,0,0,0,3.8,23.8,2.38,2.38,0,0,0,4-1.1,31.07,31.07,0,0,0-.2-13.9c-.7-2.6-2-7.7-5.2-8.2a2.37,2.37,0,0,0-2.7,1.1c-2.3,4.2-2.3,14.3,1.4,18s7.9.3,9-3.8c1.4-5.3-.1-12.3-6-14-6.1-1.8-8.4,5.2-8.5,10.1-.1,3.9,2.5,11.9,7.7,11.7,4.6-.2,6.2-10.3,6-13.6-.3-3.6-3.6-10.2-7.9-6.8-2,1.6-2.8,5-3.4,7.3a27.21,27.21,0,0,0-.7,11.7c.3,2,3.6,2.4,4.4.6a21.39,21.39,0,0,0,1.4-14.3,2.4,2.4,0,0,0-4.6,0c-1.6,5.3-.7,10.9-2.4,16.1-.8,2.5,2.3,3.7,4,2.3.7-.5,4.8.7,6.2.3,2.5-.6,2.1-3.8,0-4.6-.9-.3-1.7-.7-2.6-1-.4,1.5-.9,3.1-1.3,4.6l2.3.6c3,.1,4.3-4.5,1.3-5.3Z" transform="translate(-65.59 -266.5)"/><path class="cls-1" d="M111.3,336c-.7-4.2-1.1-8.4-1.4-12.6l-4.7.6a25.36,25.36,0,0,1,.9,7.7l4.7-.6c-1.5-7.7,4.1-27.3-6.9-30.4a2.45,2.45,0,0,0-3,3c1.3,3.9,4.1,6.2,4.5,10.6.4,5.1.5,10.5-1.6,15.3l4.5,1.2a64.24,64.24,0,0,1,.2-11.6h-4.8c.1,2.5.2,4.9.4,7.4l4.7-.6a12.74,12.74,0,0,1-.7-7.7h-4.6a13.07,13.07,0,0,1,0,6.8h4.6a12.58,12.58,0,0,1-.3-6.1l-4.7-.6c0,.4.1.9.1,1.3l4.7-.6a29.37,29.37,0,0,1-.5-5.1h-4.8a177.62,177.62,0,0,1,.4,19.3l4.7-.6a27.3,27.3,0,0,1-.7-6.4h-4.8c.1,1.3.2,2.5.3,3.8.2,3,4.9,3.1,4.8,0-.1-2.4-.1-4.7-.2-7.1l-4.7.6c.8,3.7-.2,8,0,11.9.3,4.5.7,8.7-.2,13.2l4.7.6a82.22,82.22,0,0,1,.8-14c.5-3-4.2-4.3-4.6-1.3a78.21,78.21,0,0,0-1,15.3c.1,2.6,4.1,3.4,4.7.6,1.1-4.9.7-9.5.4-14.5-.3-4.4.8-8.8-.2-13.1-.6-2.6-4.8-2.1-4.7.6.1,2.4.1,4.7.2,7.1h4.8c-.1-1.3-.2-2.5-.3-3.8-.2-3.1-4.8-3.1-4.8,0a32.17,32.17,0,0,0,.8,7.6c.6,2.7,4.6,2,4.7-.6a137.9,137.9,0,0,0-.4-19.3c-.2-3-4.9-3.1-4.8,0a46.39,46.39,0,0,0,.7,6.4c.4,2.7,4.9,2.1,4.7-.6,0-.4-.1-.9-.1-1.3-.2-2.5-4.1-3.5-4.7-.6a17.13,17.13,0,0,0,.3,8.7c.6,2.2,4.1,2.4,4.6,0a18.32,18.32,0,0,0,0-9.3c-.5-2.2-4.2-2.4-4.6,0a19,19,0,0,0,.7,10.3c.9,2.4,4.9,2.2,4.7-.6-.1-2.5-.2-4.9-.4-7.4-.2-3.2-4.4-3-4.8,0a56.24,56.24,0,0,0-.2,11.6c.2,2.1,3.4,3.6,4.5,1.2,2.3-5.2,2.6-10.5,2.3-16.1a25.91,25.91,0,0,0-.9-6.8c-.8-2.5-3-4.2-3.8-6.6l-3,3c4,1.1,3.3,10.5,3.2,13.5-.2,4.6-.6,9,.3,13.5.5,2.7,4.7,2,4.7-.6a34.14,34.14,0,0,0-1.1-9c-.7-2.6-4.9-2.1-4.7.6.3,4.7.9,9.3,1.6,13.9.6,2.7,5.3,1.4,4.8-1.7Z" transform="translate(-65.59 -266.5)"/><path class="cls-1" d="M90.4,348.3a14,14,0,0,0,3.8,3.5,3.53,3.53,0,0,0,3.3.5,2.61,2.61,0,0,0,1.5-3.2,2.54,2.54,0,0,0-3-1.7,2.46,2.46,0,0,0-1.7,3c0,.1,0,.1.1.2v-1.3c0,.1,0,.1-.1.2a17.09,17.09,0,0,1,1.1-1.4l-.1.1,1.2-.3c.5.2.6.2.2,0-.2-.1-.3-.2-.5-.3a5.74,5.74,0,0,0-.7-.4,5.7,5.7,0,0,1-1.1-1.1,2.56,2.56,0,0,0-3.3-.9,2.19,2.19,0,0,0-.7,3.1Z" transform="translate(-65.59 -266.5)"/><path class="cls-1" d="M106.3,346.4c-.7.2-1.4.5-2.2.7a2.4,2.4,0,0,0,0,4.8,68.64,68.64,0,0,0,12.8-.6c-.2-1.6-.4-3.1-.6-4.7-.8.1-1.5.3-2.3.4v4.8a78.68,78.68,0,0,1,9.7-.4c1.9.1,4.1.8,5.9-.1,3-1.4,2.4-5.9,2-8.5-1.5-11.2-10.3-19.3-13.7-29.8-.8-2.5-4.9-2.2-4.7.6a170.17,170.17,0,0,1,.1,20.2l4.7-.6c-2.2-11.4-.5-22.9,1.2-34.2l-4.7-.6a107.64,107.64,0,0,1-1.5,26c1.3-.4,2.7-.7,4-1.1-1.1-.9-1.4-5.5-1.5-6.7a58.61,58.61,0,0,1-.3-7.3,141.27,141.27,0,0,1,1-14.6h-4.8c-.7,9.4-1.8,18.8-3.3,28.1h4.6a52.06,52.06,0,0,1,2.4-27.9l-4.7-.6c0,9.4-.1,18.7-.1,28.1h4.8c-1.3-10.3-1.7-20.6,1.3-30.7h-4.6c1.2,5.5.3,12,.3,17.6l4.7-.6a40.31,40.31,0,0,1-.1-12.5h-4.6c2.5,8.6,2,18.9,2.6,27.9h4.8c-.6-4.8-.4-11.2-2.2-15.7a3.78,3.78,0,0,0-5.7-2c-2.7,1.5-.3,5.6,2.4,4.1-2.1,1.2.5,11.6.7,13.6.4,3,5,3.2,4.8,0-.7-9.5-.1-20-2.8-29.1-.6-2.1-4.3-2.5-4.6,0a50.26,50.26,0,0,0,.1,15c.4,2.7,4.7,2,4.7-.6,0-6.1.8-12.8-.5-18.9-.5-2.4-4-2.2-4.6,0-3,10.5-2.7,21.2-1.4,32,.4,3,4.8,3.2,4.8,0,0-9.4.1-18.7.1-28.1,0-2.9-3.7-3-4.7-.6-3.7,8.9-4.4,21.1-2.4,30.4.5,2.2,4.2,2.4,4.6,0,1.6-9.8,2.8-19.5,3.5-29.4.2-3.1-4.5-3-4.8,0-.6,6.4-1.3,12.8-.9,19.2.2,3.6,0,10.4,3.1,12.8,1.3,1,3.6.9,4-1.1a108.78,108.78,0,0,0,1.7-27.3c-.2-2.5-4.3-3.5-4.7-.6-1.9,12.3-3.6,24.5-1.2,36.8.5,2.8,4.6,1.9,4.7-.6a170.07,170.07,0,0,0-.1-20.2l-4.7.6c2.4,7.4,7.1,13.4,10.6,20.3a31.83,31.83,0,0,1,2.3,5.8,21.35,21.35,0,0,1,.8,4.4c-.5,1.1-.3,1.8.6,2-.2.3-5.4-.3-5.8-.3-2.6,0-5.2.2-7.8.4-3,.3-3.1,4.9,0,4.8a8.08,8.08,0,0,0,3.5-.6c2.4-.8,2.2-5.1-.6-4.7a91.43,91.43,0,0,1-12.8.6v4.8a9.1,9.1,0,0,0,4.6-1.3c2.5-1.6.1-5.8-2.5-4.2Z" transform="translate(-65.59 -266.5)"/><path class="cls-1" d="M108.7,340.5c.3-.2.5-.4.8-.6.9.4,1.8.7,2.7,1.1,0-.2-.1-.4-.1-.6-1.4.6-2.7,1.1-4.1,1.7a.76.76,0,0,1,.4.1c.8-.2,1.6-.4,2.3-.6.2.2.3.5.5.7-.8.2-1.6.4-2.3.6,3.6,1.3.6-2.5,1.3-3.1.8-.2,1.6-.4,2.3-.6a31.37,31.37,0,0,1-.9-5.3,15,15,0,0,1,1.7-6.9h-4.1a22.34,22.34,0,0,1,1.6,5.6c.2,1.2-.1,3.7.3,4.8.9,2.5.5-1.3.5-1.9-.1-1.2-.1-4.9,1.3-5.6h-2.4c1.5.7,1.5,4.4,1.5,5.7-.1.9-.3,1.7-.4,2.6q-.75,5.55-.6,2.7c-.8.2-1.6.4-2.3.6a4.8,4.8,0,0,0,1.7,3.7h2.4c-3.8-1.7,3.8-9.6,1.1-.8l1.7-1.7c-2.3-.9-2.4-.2-.6,2.2a11.36,11.36,0,0,1,.6,2.5l2.1-1.2c.5,0-.8-2.5-.9-3.2a7.27,7.27,0,0,1,.5-5h-4.1a28.17,28.17,0,0,1,3.3,7.8c1.5-.6,2.9-1.2,4.4-1.8a27,27,0,0,1-2.5-4c-.4-.7-1.9-8.3-2.3-5.1-.8.9-.7,1.8.4,2.6.4.7.9,1.5,1.3,2.3q1.5,2.7,2.7,5.4c1.1,2.4,5.4.7,4.4-1.8-2.2-5.2-4.3-10.5-4.8-16.2l-4.7.6q2.4,6.9,4.5,13.8c1.5-.6,2.9-1.2,4.4-1.8a54.43,54.43,0,0,1-4-13.6c-1.5.4-3.1.9-4.6,1.3a64.7,64.7,0,0,1,1.9,13.1c1.4-.6,2.7-1.1,4.1-1.7-.8-.9-4-5.7-2.5-7-.8.2-1.6.4-2.3.6,1.6.5,2.2,8.2,1.8,9.4l1.7-1.7a4.23,4.23,0,0,1,.6,4.1h2.4c-.6-.8-1.1-1.7-1.7-2.5.9-1.5,1.1-1.8.6-.8.4.8.3,4.2.3,5.2l4.7-.6a40.52,40.52,0,0,1,0-11h-4.6a37,37,0,0,1,.2,8.8,2.35,2.35,0,0,0,1.8,2.3.76.76,0,0,1,.2.4c.4,2.4,4,2.1,4.6,0,.5-1.8,0-2.3-.7-3.9-1.3-2.9-1.8-6.4-2.4-9.6-1.2-6.3-2.3-12.6-3.4-18.9-.5-2.8-4.6-1.9-4.7.6-.4,7.7-.8,15.4-1.6,23h4.8a154.63,154.63,0,0,1,.4-34h-4.8a158.88,158.88,0,0,1,1.3,23.9l4.7-.6a63.19,63.19,0,0,1,.9-29h-4.6c1.5,10.3,2.3,20.7,3.1,31.1l4.7-.6c-1.6-7.9-3.1-17.7-.4-25.5l-4.7-.6a253.46,253.46,0,0,1,1.5,30.2l4.7-.6a55.42,55.42,0,0,1-.6-20.3l-4.7-.6c.8,7.9,1.5,15.8.5,23.7l4.7-.6a51.9,51.9,0,0,1-.3-20.4l-4.7-.6c-.2,1.3-.3,2.7-.5,4-.4,3.1,4.4,3,4.8,0,.2-1.3.3-2.7.5-4,.3-2.7-4.2-3.3-4.7-.6a59.35,59.35,0,0,0,.3,23c.6,2.9,4.4,1.8,4.7-.6,1-7.9.3-15.8-.5-23.7-.3-2.4-4.3-3.5-4.7-.6a62.42,62.42,0,0,0,.6,22.8c.6,2.7,4.7,2,4.7-.6a253.46,253.46,0,0,0-1.5-30.2,2.4,2.4,0,0,0-4.7-.6c-3.1,8.7-1.4,19.2.4,28.1.5,2.6,4.9,2.1,4.7-.6-.8-10.8-1.7-21.6-3.3-32.3-.4-2.4-4.1-2.1-4.6,0a67.13,67.13,0,0,0-.9,31.5c.5,2.7,4.7,2,4.7-.6a159.6,159.6,0,0,0-1.3-23.9,2.4,2.4,0,0,0-4.8,0,148.66,148.66,0,0,0-.4,34,2.4,2.4,0,0,0,4.8,0c.8-7.7,1.2-15.3,1.6-23l-4.7.6c1,5.7,2,11.4,3.1,17.1.5,2.6,1,5.3,1.6,7.9.2.8,1.9,4.3,1.8,4.8h4.6a4.24,4.24,0,0,0-3.6-3.7c.6.8,1.2,1.5,1.8,2.3a41.71,41.71,0,0,0-.4-10c-.3-2.3-4.3-2.3-4.6,0a51.6,51.6,0,0,0,0,13.6c.4,2.7,4.7,2,4.7-.6,0-3.1-1.1-14-7-10.9-4,2-3.8,10.2-.6,12.8,3.9,3.2,7.6-1.8,7.1-5.6-.5-3.6-4.3-8.3-7.9-4.7-2.7,2.8-2,9.3,1.9,10.7,5.6,2,5.6-6.6,4.2-9.7-1.8-3.9-7.2-6.3-9.4-1.3a5.37,5.37,0,0,0,5.9,7.4,2.43,2.43,0,0,0,1.7-1.7c1.1-3.4-.5-16.3-6.1-15.4-6.5,1-1,12,1.2,14.4,1.4,1.6,4.1.3,4.1-1.7a70.5,70.5,0,0,0-2.1-14.4c-.7-3.1-5.1-1.7-4.6,1.3a55.06,55.06,0,0,0,4.5,14.8c1.1,2.5,5.1.7,4.4-1.8q-2-7.05-4.5-13.8c-.9-2.4-5-2.2-4.7.6.6,6.2,2.6,11.8,5,17.5,1.5-.6,2.9-1.2,4.4-1.8-1.3-2.9-6-15.9-11.3-12.4-4.7,3,1.2,13.2,3.4,16.1,1.5,2.1,5.1,1,4.4-1.8a31.88,31.88,0,0,0-3.8-8.9c-.9-1.4-3.4-1.8-4.1,0-1.7,4.1-2.4,12.7,2.8,15.1,5.8,2.7,4.2-6.1,3.1-8.6-1.4-3.3-5.8-8.7-8.7-3.3-2.4,4.5,1.9,9.5,6.5,8.6a2.62,2.62,0,0,0,1.7-1.7c1.1-3.5-.6-9.1-4.3-10.5-4.8-1.8-7.3,3.9-7.2,7.8.1,3,1.9,8,5.8,6.4,3.4-1.4,2.7-6.4.8-8.7-2.1-2.7-6.4-3.2-8.6-.3-2.5,3.5.5,7.5,4.4,7.7,9.2.3,2-15.4-3.4-8.3-1.8,2.3-1.3,7,1.7,8.2,4.1,1.6,6.5-4,5.7-7.2-.6-2.6-3.2-5-5.8-3.2-3.3,2.3-1.2,8,2,9.3,8.7,3.7,8.9-14.7.4-11.5a4.38,4.38,0,0,0-1,7.7c4.3,3,7.3-2.2,7.7-5.8.4-3.2.1-11.8-4.9-11.8s-5.3,9.2-4.6,12.4,4.3,8,7.7,4.1c3.5-4.1.4-13.1-1.4-17.3-.7-1.7-3.4-1.5-4.1,0-2.5,4.8-4,12.8-.3,17.6,2.8,3.6,6.4.7,6.2-3.2s-4.2-8.2-7.8-4.8c-3,2.8-3.2,9.3.4,11.7,3.9,2.6,6.6-2,6.2-5.6-.5-3.9-5.1-4.7-7-1.3-1.8,3.1-.6,8.7,3.9,8,5.1-.8,3-7.5-.5-8.7a2.44,2.44,0,0,0-2.3.6,4.32,4.32,0,0,0,1.6,7.3,2.44,2.44,0,0,0,2.3-.6c2.2-2,1.5-4.9-.4-6.9a2.42,2.42,0,0,0-4.1,1.7,5.21,5.21,0,0,0,.8,3,2.42,2.42,0,0,0,2.7,1.1,2.75,2.75,0,0,0,2-1.6c.6-3.9-3.6-6.4-4.8-3.5Z" transform="translate(-65.59 -266.5)"/><path class="cls-1" d="M118.9,283.8a21.74,21.74,0,0,1,.2-3.6h-4.6a27.76,27.76,0,0,1,1.2,7c.1,1,.7,5,0,5.9h3.4c-.2-.2-.4-.3-.6-.5-2.3-2-5.7,1.4-3.4,3.4.2.2.4.3.6.5a2.48,2.48,0,0,0,3.4,0c1.8-2.1,1.6-4.9,1.5-7.6a37.84,37.84,0,0,0-1.5-10c-.6-2.1-4.2-2.5-4.6,0a26.29,26.29,0,0,0-.4,4.9c.1,3.1,4.9,3.1,4.8,0Z" transform="translate(-65.59 -266.5)"/><path class="cls-1" d="M122.5,295a27.4,27.4,0,0,1-3.2-9.5l-4.5,1.2a16.66,16.66,0,0,1,2.7,11.3c1.4-.6,2.7-1.1,4.1-1.7-5.2-5.9-6.5-13.6-5.9-21.2l-4.5,1.2a18.65,18.65,0,0,1,2.1,8.4l3.6-2.1c-1.8-1-2.9-5.7-4-7.5a15.21,15.21,0,0,0-5.1-5.3c-.2,1.5-.4,2.9-.6,4.4a19,19,0,0,1,6.3-.5c2.8.2,3.1-3.9.6-4.7a44.82,44.82,0,0,0-8.8-2c-2.7-.3-3.2,4.1-.6,4.7,4.3,1.1,8.4-.4,12.7.1,1.9.2,3.7.4,5.6.5,1.7.1.9-.9,2.5.6,1.2,1.1,1.3,2.9,1.7,4.4.7,3.1,5.1,1.7,4.6-1.3-.2-1.3-.4-2.6-.6-3.8-1.5.4-3.1.9-4.6,1.3a74.7,74.7,0,0,1,1.8,16.3c0,2.4.4,6.4-.6,8.5.2,1.4-.2,1.9-1.2,1.3-.4-1.1-.9-2.2-1.3-3.3-1.8-4.7-3.4-9.6-3.7-14.7-.1-1.6.3-3.2-.3-4.7-.7-1.8-2.8-2.5-3.4-4.6-.6,1-1.1,2-1.7,3,2-.4,3.9-.1,5.9-.4q2.25.75.9-.3c-.5-.8-.6-.6-.4.4-.9,1.8.5,7.2.7,9.2.8,6.2,1.6,12.2.2,18.3l4.7.6a70.13,70.13,0,0,0-7.5-27.6l-3.3,3.3c2.9,1.5,3.1,9.6,2.7,11.8h4.6a53.78,53.78,0,0,1-1.1-16l-4.5,1.2a25.55,25.55,0,0,1,3.6,13.5l4.7-.6a46.63,46.63,0,0,1-3.3-12.7c-1,.8-2,1.5-3,2.3,2.7.8,2.5,9.7,2.4,11.6l4.7-.6a19.53,19.53,0,0,1,.9-9.3h-4.6a34.4,34.4,0,0,1,.2,9.6h4.6a15.13,15.13,0,0,1,.2-6.7h-4.6a5.26,5.26,0,0,1,.3,3.5c-.3,3.1,4.5,3,4.8,0a10.51,10.51,0,0,0-.5-4.7c-.7-2.1-4.1-2.4-4.6,0a24.22,24.22,0,0,0-.2,9.3c.4,2.2,4.3,2.3,4.6,0a38.42,38.42,0,0,0-.2-12.2c-.4-2.5-4-2.1-4.6,0a28.08,28.08,0,0,0-.9,11.9c.4,2.8,4.6,1.9,4.7-.6.2-5,0-14.5-5.9-16.2-1.4-.4-3.2.8-3,2.3a51.21,51.21,0,0,0,3.4,14c1,2.4,4.7,2.3,4.7-.6a30.88,30.88,0,0,0-4.3-15.9c-1.2-2.2-4.3-1.1-4.5,1.2a59,59,0,0,0,1.3,17.3c.5,2.2,4.3,2.4,4.6,0,.8-5,.3-14.6-4.9-17.3a2.43,2.43,0,0,0-3.3,3.3,63.08,63.08,0,0,1,6.8,25.2c.2,2.6,4.1,3.4,4.7.6,2.2-9.4-.4-18.4-.7-27.8-.1-2.3.2-4.1-2-5.2-2.9-1.5-7.3-.7-10.4,0a2.5,2.5,0,0,0-1.7,3,12.28,12.28,0,0,0,4.8,6.6l-1.2-2.1c-.2,6.8,1.5,13.2,3.9,19.5,1.1,3,2.6,9.7,7.2,8.5s4.8-7.9,5.1-11.6a83.35,83.35,0,0,0-1.7-22.3c-.7-3.1-5.1-1.7-4.6,1.3.2,1.3.4,2.6.6,3.8,1.5-.4,3.1-.9,4.6-1.3-.9-4.1-1.7-9.2-6.7-9.2-1.7,0-3.3.7-5.1.5-1.5-.1-2.4-.5-3.9-.5-3.5-.1-6.6,1.1-10.1.3-.2,1.6-.4,3.1-.6,4.7A33.62,33.62,0,0,1,113,274c.2-1.6.4-3.1.6-4.7a24.2,24.2,0,0,0-7.6.6c-2.1.5-2.2,3.3-.6,4.4,4.7,3.1,4.2,10.3,9.1,12.8a2.41,2.41,0,0,0,3.6-2.1,25.36,25.36,0,0,0-2.7-10.8c-1.1-2.3-4.3-1-4.5,1.2-.7,9,1.3,17.7,7.3,24.6,1.5,1.7,3.9.2,4.1-1.7a20.75,20.75,0,0,0-3.4-13.7c-1.2-1.8-4.8-1.3-4.5,1.2a31.82,31.82,0,0,0,3.8,12c1.6,2.3,5.8-.1,4.3-2.8Z" transform="translate(-65.59 -266.5)"/><path class="cls-1" d="M126.7,320.3c-.1-3.6-.1-7.2.1-10.8l-4.7.6a82.61,82.61,0,0,1,1.7,11.1c.2,3,4.9,3.1,4.8,0-.2-4.1-.4-8.2-.6-12.2l-4.7.6a33.41,33.41,0,0,1,1.5,10.9h4.8a67.62,67.62,0,0,1-.1-13.5l-4.7.6a53.86,53.86,0,0,1,.9,11.3c0,3.1,4.7,3.1,4.8,0,.1-3.7.3-7.4.4-11.1l-4.7.6a37.28,37.28,0,0,1,1.2,9.4c0,3.1,4.6,3.1,4.8,0,.2-2.8.4-5.7.6-8.5l-4.7.6a51.63,51.63,0,0,1,.9,7.9h4.8a94.81,94.81,0,0,1-.8-16h-4.8c.1,2,.2,4.1.3,6.1a2.4,2.4,0,0,0,4.8,0c.4-7,.5-14,.5-20.9,0-3.1-4.8-3.1-4.8,0,0,7-.2,14-.5,20.9h4.8c-.1-2-.2-4.1-.3-6.1a2.4,2.4,0,0,0-4.8,0,94.81,94.81,0,0,0,.8,16c.4,3,4.9,3.2,4.8,0a55.1,55.1,0,0,0-1-9.1c-.5-2.8-4.5-1.9-4.7.6-.2,2.8-.4,5.7-.6,8.5h4.8a42.44,42.44,0,0,0-1.4-10.7c-.7-2.7-4.6-2-4.7.6-.1,3.7-.3,7.4-.4,11.1h4.8a75.66,75.66,0,0,0-1.1-12.6c-.5-2.8-4.5-1.9-4.7.6a67.73,67.73,0,0,0,.1,13.5c.3,3,4.7,3.2,4.8,0a36,36,0,0,0-1.6-12.2c-.8-2.5-4.8-2.2-4.7.6.2,4.1.4,8.2.6,12.2h4.8a71.62,71.62,0,0,0-1.9-12.3c-.6-2.7-4.6-2-4.7.6a97.29,97.29,0,0,0-.1,10.8c-.1,3.4,4.7,3.4,4.6.3Z" transform="translate(-65.59 -266.5)"/><path class="cls-1" d="M128.3,333c.2-3.2.3-6.4.5-9.6l-4.7.6a60.05,60.05,0,0,1,1.2,11.9c0,3.1,4.7,3.1,4.8,0q.6-13.95,2.4-27.9h-4.8l.3,3a2.4,2.4,0,0,0,4.8,0l.3-2.7-4.7.6c.1.8.3,1.6.4,2.4.1,2.6,4.2,3.4,4.7.6a19.83,19.83,0,0,0,.3-3.5c-.1-3.1-4.9-3.1-4.8,0,0,.7-.1,1.5-.1,2.2l4.7.6a9.29,9.29,0,0,0-.6-3.7,2.4,2.4,0,0,0-4.7.6l-.3,2.7h4.8l-.3-3a2.4,2.4,0,0,0-4.8,0c-1.2,9.3-2,18.5-2.4,27.9h4.8a65,65,0,0,0-1.4-13.2c-.6-2.8-4.6-2-4.7.6-.2,3.2-.3,6.4-.5,9.6-.2,3.4,4.6,3.4,4.8.3Z" transform="translate(-65.59 -266.5)"/><path class="cls-1" d="M130.7,334a62.72,62.72,0,0,1,.9-8.6l-4.4.6c.8,1.5.3,5.5.3,7.3h4.8a72.56,72.56,0,0,1,.6-13.2h-4.6c.8,3.8,0,8-.2,11.8-.2,4.1-.5,8.2-.7,12.3-.2,3.1,4.6,3.1,4.8,0,.5-8,2.3-17.3.8-25.3-.4-2.2-4.3-2.3-4.6,0a77.92,77.92,0,0,0-.8,14.5c.1,3.1,4.9,3.1,4.8,0s.6-6.9-1-9.7c-.9-1.7-4-1.5-4.4.6a65.12,65.12,0,0,0-1,9.9c-.2,2.9,4.6,2.9,4.7-.2Z" transform="translate(-65.59 -266.5)"/><path class="cls-1" d="M78.7,273.5c-.9-1.3-1.8-2.6-2.8-3.8a4.52,4.52,0,0,0-2.2-1.9,3.2,3.2,0,0,0-2.7.3,2.56,2.56,0,0,0-.9,3.3,2.53,2.53,0,0,0,3.3.9c-1.7-.7-2.2-.7-1.6,0,.1.2.3.4.4.6s.5.7.7,1l1.5,2.1a2.56,2.56,0,0,0,3.3.9c1.2-.7,1.8-2.4,1-3.4Z" transform="translate(-65.59 -266.5)"/><path class="cls-1" d="M96.9,311.7a.91.91,0,0,1,.4-.8l-4.4-.6.3,1.8c.4,2.3,3.3,2,4.4.6a5.42,5.42,0,0,0,1.1-3.5c-.1-3.1-4.8-3.1-4.8,0v2.5c0,3.1,4.7,3.1,4.8,0,0-1.4-.3-3.5.4-4.8l-4.5-1.2c0,.3-.1.6-.1.9-.2,2.3,3.5,3.4,4.5,1.2.8-1.8,2.2-.8,3,.5,1.5,2.7,5.7.3,4.1-2.4a7.11,7.11,0,0,0-5.7-3.9,5.82,5.82,0,0,0-5.6,3.4l4.5,1.2c0-.3.1-.6.1-.9.2-2.4-3.3-3.2-4.5-1.2-1.3,2.2-1,4.8-1.1,7.3h4.8v-2.5H93.8a1.67,1.67,0,0,1-.4,1.1l4.4.6-.3-1.8c-.4-2.3-3.3-2-4.4-.6a6.2,6.2,0,0,0-1.1,3.3c0,2.8,4.8,2.8,4.9-.2Z" transform="translate(-65.59 -266.5)"/><path class="cls-2" d="M69.8,351.4a288,288,0,0,1-2.7-40.5c-.1-12.6-1.1-26.3,2.2-38.6.2-.7-1-1.1-1.2-.3-3.4,12.5-2.4,26.1-2.3,38.9a292.29,292.29,0,0,0,2.7,40.8.68.68,0,0,0,1.3-.3Z" transform="translate(-65.59 -266.5)"/><path class="cls-2" d="M69.2,272.6c-.2-.4.8-1.7,1.1-2.1a25.29,25.29,0,0,1,1.3-2.2.58.58,0,1,0-1-.6c-.6,1.1-1.3,2.2-1.9,3.3-.4.7-.8,1.4-.4,2.2.2.7,1.2.1.9-.6Z" transform="translate(-65.59 -266.5)"/><path class="cls-2" d="M71.3,268.1c19.2.1,38.5,0,57.7-.4a.6.6,0,0,0,0-1.2c-19.2.4-38.4.5-57.7.4-.7,0-.7,1.2,0,1.2Z" transform="translate(-65.59 -266.5)"/><path class="cls-2" d="M69.7,352.4c9.5.2,19.5,1.2,29-.2.8-.1.4-1.3-.3-1.2-9.3,1.4-19.3.3-28.7.2a.6.6,0,0,0,0,1.2Z" transform="translate(-65.59 -266.5)"/><path class="cls-2" d="M99.6,351.5l-.3-22.8c-.1-3.6-.2-7.2-.1-10.8.1-3.4.9-6.8.7-10.2a.6.6,0,0,0-1.2,0c.2,3.4-.6,6.8-.7,10.2-.1,3.6.1,7.2.1,10.8l.3,22.8a.6.6,0,0,0,1.2,0Z" transform="translate(-65.59 -266.5)"/><path class="cls-2" d="M131.5,351.3a277.8,277.8,0,0,0,2.7-40.8c.1-12.8,1.1-26.4-2.3-38.9-.2-.7-1.4-.4-1.2.3,3.3,12.3,2.3,25.9,2.2,38.6a289,289,0,0,1-2.7,40.5c0,.8,1.1,1.1,1.3.3Z" transform="translate(-65.59 -266.5)"/><path class="cls-2" d="M131.8,272.8c.4-.8,0-1.5-.4-2.2-.6-1.1-1.3-2.2-1.9-3.3a.58.58,0,1,0-1,.6,25.29,25.29,0,0,0,1.3,2.2c.2.4,1.3,1.7,1.1,2.1-.4.7.6,1.3.9.6Z" transform="translate(-65.59 -266.5)"/><path class="cls-2" d="M130.5,350.9c-9.4.2-19.3,1.2-28.7-.2a.62.62,0,0,0-.3,1.2c9.4,1.4,19.5.4,29,.2.7,0,.7-1.2,0-1.2Z" transform="translate(-65.59 -266.5)"/><path class="cls-2" d="M102.7,351.2l.3-22.8c.1-3.6.2-7.2.1-10.8,0-3.4-.9-6.8-.7-10.2a.6.6,0,0,0-1.2,0c-.2,3.4.6,6.8.7,10.2.1,3.6-.1,7.2-.1,10.8l-.3,22.8c-.1.8,1.1.8,1.2,0Z" transform="translate(-65.59 -266.5)"/><path class="cls-2" d="M99.8,308c-.1-.5,0-1.7.8-1.5.3.1.3.4.3.6a2,2,0,0,0,.3,1.1.58.58,0,1,0,1-.6,1.73,1.73,0,0,1-.1-1,1.33,1.33,0,0,0-.3-.8,1.57,1.57,0,0,0-1.5-.6c-1.4.2-1.7,1.8-1.6,3,.1.9,1.2.6,1.1-.2Z" transform="translate(-65.59 -266.5)"/></svg>