<svg id="Layer_1" data-name="Layer 1" xmlns="http://www.w3.org/2000/svg" viewBox="0 0 151.14 28.71"><defs><style>.cls-1{fill:#2e1018;}.cls-2{fill:#010101;}</style></defs><title>Glove</title><path class="cls-1" d="M35.6,293.8c-3.8,2.4-5.6,2.4-5.2,0a1.16,1.16,0,0,0-2-.8,20,20,0,0,1-1.6,1.4c.6.2,1.2.5,1.8.7v-1.4l-2.4-.3c-.2.6-.4,1.1-.6,1.7l2.2.3c.1-.4.1-.8.2-1.2l-2.4-.3a8.33,8.33,0,0,1-.4,1.5l2.2.6a21.63,21.63,0,0,1,1.4-5.7c.5-1.3-1.6-2.1-2.2-.9l-1.2,1.8c.7.4,1.3.8,2,1.2.1-.3,1.4-3.9,2.1-4.4s.7-.1,1.8-.3c1.6-.2,2.7-.2,4-1.3.7-.6,1-1.9,1.5-2.3.8-.6.2.1,1.1-.1.3-.1,6.4.2,4.8,0l.3-2.4a17.66,17.66,0,0,1-4.6-.7,1.19,1.19,0,0,0-.6,2.3,30.29,30.29,0,0,0,9.5,1.9c1.3,0,1.7-2.1.3-2.4-1.2-.2-3-.3-4-1.2-.4.7-.8,1.3-1.2,2,1.9.6,4.6.6,6.4,1.5a6.9,6.9,0,0,0,.8-.3c.1.4.2.9.3,1.3-.1-.1,1.2,2.9,1.2,2.8.6,1.2,2.5.4,2.2-.9s-.7-2.7-1.1-4.1c-.7.3-1.5.6-2.2.9.3.6.5,1.3.8,1.9l2.3-.6a11.24,11.24,0,0,1-1-3.1l-2.3.6a59.26,59.26,0,0,1,1.6,7.3l2.3-.6c-.2-.8-.3-1.6-.5-2.5l-2.4.3a13.82,13.82,0,0,1,.8,2.7c.3,1.5,2.5.8,2.3-.6-.1-1-.3-2-.4-2.9l-2.3.6.9,2.4c.5,1.4,2.7.9,2.3-.6-.3-1.1-.6-2.1-.8-3.2l-2.3.6c1.2,3.1.4,5.7.5,8.8a1.24,1.24,0,0,0,2.4.3c.3-1,.6-2,.9-3.1l-2.4-.3a16.86,16.86,0,0,1,.1,3.2l2.4-.3c-.1-.6-.1-1.2-.2-1.8a1.2,1.2,0,0,0-2.4,0c-.4,4-1.1,8.6-6.2,8.5a1.19,1.19,0,0,0-.6,2.2,6.73,6.73,0,0,1,1.1.7c.2-.7.4-1.5.6-2.2h-.4v2.4c3.1-.2,5.9-1.4,7.5-4.2.8-1.4,2-4.1.5-5.4a1.24,1.24,0,0,0-1.7,0c-1.9,1.9-3.7,3.8-5.6,5.7.6.5,1.3,1,1.9,1.5a11.6,11.6,0,0,1,2.3-3.6c-.6-.5-1.3-1-1.9-1.5.2-.3.5-.5.7-.8-.2-.6-.5-1.2-.7-1.8-.5.9-3.2,5.9-4.8,2.3-.6-1.4,3-4.9,3.8-5.6a14.62,14.62,0,0,0-2-.5c.5,2.5-3.1,7.2-5.4,8l1.5,1.5c.7-3.5,3-6.2,5.4-8.6a12.25,12.25,0,0,0-1.9-.2c.8,1.3-3.3,6.6-4,7.4.7.4,1.3.8,2,1.2a24.92,24.92,0,0,1,4.9-7.9c-.7-.4-1.3-.8-2-1.2a28.24,28.24,0,0,1-3.3,7.3l2.1,1.2a35.69,35.69,0,0,1,4-6.8c-.7-.3-1.5-.6-2.2-.9a35.36,35.36,0,0,1-3.5,8c.7.3,1.5.6,2.2.9a20.26,20.26,0,0,1,3.6-7c-.7-.4-1.3-.8-2-1.2a42.16,42.16,0,0,1-2.6,6.7c.7.3,1.5.6,2.2.9a27.73,27.73,0,0,1,2.6-4.8c-.7-.3-1.5-.6-2.2-.9a37.26,37.26,0,0,1-3.6,7.2c.7.3,1.5.6,2.2.9a19.28,19.28,0,0,1,3.4-6.3c-.7-.3-1.5-.6-2.2-.9a25.75,25.75,0,0,1-2.1,5.2c.7.3,1.5.6,2.2.9a17.8,17.8,0,0,1,2.1-4.4c-.7-.3-1.5-.6-2.2-.9a6.33,6.33,0,0,1-1.5,3.2c-.9,1.3,1.2,2.5,2.1,1.2a11.06,11.06,0,0,0,1.8-3.8,1.2,1.2,0,0,0-2.2-.9,28.79,28.79,0,0,0-2.4,5c-.5,1.3,1.6,2.1,2.2.9a24.2,24.2,0,0,0,2.3-5.8c.4-1.4-1.4-1.9-2.2-.9a21.64,21.64,0,0,0-3.6,6.9c-.4,1.3,1.5,2,2.2.9a39.34,39.34,0,0,0,3.8-7.7c.5-1.3-1.5-2-2.2-.9a28.1,28.1,0,0,0-2.9,5.4c-.5,1.3,1.6,2.1,2.2.9a45.14,45.14,0,0,0,2.9-7.2c.3-1.1-1.2-2.1-2-1.2a24.29,24.29,0,0,0-4.3,8.1,1.2,1.2,0,0,0,2.2.9,34,34,0,0,0,3.8-8.5c.4-1.4-1.4-1.9-2.2-.9a32.85,32.85,0,0,0-4,6.8,1.21,1.21,0,0,0,2.1,1.2,31.18,31.18,0,0,0,3.5-7.9c.3-1.1-1.2-2.1-2-1.2a28.69,28.69,0,0,0-5.5,9c-.4,1.1,1.3,2.1,2,1.2,1.7-2.1,6.2-7.4,4.4-10.4a1.17,1.17,0,0,0-1.9-.2c-2.8,2.7-5.2,5.8-6.1,9.7a1.26,1.26,0,0,0,1.5,1.5c3.7-1.3,7.9-7,7.1-11a1.2,1.2,0,0,0-2-.5c-2.2,2-7.6,8.9-3.4,11.6,3.2,2,7-3.1,8.1-5.4a1.28,1.28,0,0,0-.7-1.8c-2.7-.4-5.4,4.8-3.6,6.8a1.31,1.31,0,0,0,1.2.3c1.6-.3,2.4-1.6,3.2-2.8s-1-2.5-1.9-1.5a19.41,19.41,0,0,0-2.7,4.1c-.6,1.2.9,2.5,1.9,1.5,1.9-1.9,3.7-3.8,5.6-5.7H53.4c-.8,3.6-2.9,5.5-6.3,5.5a1.2,1.2,0,0,0,0,2.4h.4a1.18,1.18,0,0,0,.6-2.2,6.73,6.73,0,0,1-1.1-.7c-.2.7-.4,1.5-.6,2.2,6.9,0,8-5.3,8.6-10.9H52.6a9.34,9.34,0,0,0,.2,2.4c.3,1.4,2.3,1,2.4-.3a11.45,11.45,0,0,0-.1-3.2,1.23,1.23,0,0,0-2.4-.3c-.3,1-.6,2-.9,3.1l2.4.3c-.2-3.7.7-6-.6-9.5-.5-1.4-2.7-.9-2.3.6.3,1.1.6,2.1.8,3.2l2.3-.6-.9-2.4a1.19,1.19,0,0,0-2.3.6c.1,1,.3,2,.4,2.9l2.3-.6a13.82,13.82,0,0,0-.8-2.7c-.4-1.2-2.5-1.1-2.4.3a11.34,11.34,0,0,0,.6,3.1,1.19,1.19,0,0,0,2.3-.6c-.4-2.5-1-4.9-1.6-7.3a1.19,1.19,0,0,0-2.3.6,7.08,7.08,0,0,0,1,3.1c.6,1.4,2.8.9,2.3-.6a10.89,10.89,0,0,0-1-2.5c-.6-1.2-2.5-.4-2.2.9s.7,2.7,1.1,4.1c.7-.3,1.5-.6,2.2-.9-.7-1.3-.7-3.7-2-4.6-1.8-1.3-6-1.1-8.1-1.8-1.1-.3-2.1,1.2-1.2,2,1.5,1.3,3.1,1.4,5.1,1.8l.3-2.4a26.56,26.56,0,0,1-8.8-1.8c-.2.8-.4,1.5-.6,2.3a31.17,31.17,0,0,0,5.2.8,1.23,1.23,0,0,0,.3-2.4c-1.4-.3-5.5-.7-6.6-.4-2,.5-1,1-2.1,1.7-1.4,1.8-2.9,2.5-4.6,2.1-.2,0-.4-.1-.6-.1-.2.2-.6.1-.8.4a14.56,14.56,0,0,0-3.5,6.6c-.2,1.1,1.2,2.2,2,1.2a8.27,8.27,0,0,0,1.5-2.3c-.7-.3-1.5-.6-2.2-.9a23.15,23.15,0,0,0-1.5,6.3,1.19,1.19,0,0,0,2.2.6,3.7,3.7,0,0,0,.7-2.7,1.23,1.23,0,0,0-2.4-.3,3.57,3.57,0,0,0-.2,2.5,1.22,1.22,0,0,0,2.2.3,4.36,4.36,0,0,0,.9-2.9c.2-1.4-2-1.5-2.4-.3a3.19,3.19,0,0,0,0,2.7,1.2,1.2,0,0,0,1.8.7,9.09,9.09,0,0,0,2.1-1.8c-.7-.3-1.4-.6-2-.8.3,6.9,8.2.9,5.2-2.2a1.31,1.31,0,0,0-1.2-.3c-2.4.8-2.4,5-.1,5.9,2.9,1.2,6.5-3.4,3.7-5.4-2.2-1.6-4.3,1.3-3.3,3.4,1.1,2.4,5.2,1.9,5.3-1a2.15,2.15,0,0,0-4.3-.2,2.33,2.33,0,0,0,4.1,1.9c1.6-2-1.1-4.9-3.1-3.2-2.2,1.7.3,4.6,2.5,3.2,1.5-1.3.3-3.3-1-2.5Z" transform="translate(-24.43 -280)"/><path class="cls-1" d="M47.5,292c-.1-.7-.5-2.9-.6-1.1-.1,1.5.5,3.4.5,5l2.4-.3c-.5-1.3-1.5-4.3-.9-5.7-.4.9,1.4,3.1.7,4.5h2.1c-.2-.4-2.8-6.1-1.7-6.9-.5-.1-1.1-.3-1.6-.4.7,1.6,3,6.5,2.2,8.4h2.1c-1.3-2.3-2.9-5.8-1.4-8.3l-2.2-.3c1,2.4,2.8,7.4,1.1,9.9.5-.1,1.1-.3,1.6-.4-1.2-.9-1.6-1.9-1-3.2s.2-1.7-1.4-1.3a10.93,10.93,0,0,1,1.5-.8,11.74,11.74,0,0,1,1.3,4l2.3-.6c0-1.2.1-2.4.1-3.6l-2.2.3a8.36,8.36,0,0,1,1,3.3c.3,1.5,2.5.9,2.3-.6-.2-1.1-.3-2.2-.5-3.3l-2.3.6a24.9,24.9,0,0,1,.9,3.7l2.3-.6c-.3-1.3-.5-2.6-.8-3.8l-2.3.6c.2.7.4,1.5.6,2.2.7-.3,1.5-.6,2.2-.9-2.5-3.6-5.1-6.5-9.7-6.9l.3,2.4c1.4.2,2.7.3,4.1.5.4-.7.8-1.3,1.2-2-1.2-.6-2.5-1.3-3.7-1.9-.3.7-.6,1.4-.8,2,1.2.1,2.3.3,3.5.4s1.7-1.8.6-2.2c-4.4-2-8.1-.8-12.7-1.5-1.5-.2-2.2,2.1-.6,2.3l7.2,1.2c1.5.2,2.2-1.9.6-2.3-2.3-.6-4.6-1-7-1.4-1.5-.2-2.2,2-.6,2.3a6.61,6.61,0,0,0,2.4.3,1.19,1.19,0,0,0,.6-2.2,3.8,3.8,0,0,0-1.7-.8c-1.3-.3-2.2,1.6-.9,2.2a35.18,35.18,0,0,1,6.7,3.4c.1-.7.2-1.5.3-2.2-2.3.9-6.3,3-8.9,2.7l1.2,1.2c1.2-2.6,1.6-3,1.2-1.1a3.58,3.58,0,0,1-.9,2.4c-2.7,4.6-1.8,1.2-1.1-.1,1-1.9,2.2-3.5.7-.4-.9,1.9-1.7,3.8-2.7,5.6.7.3,1.5.6,2.2.9A15.43,15.43,0,0,1,39,293c1.5-.5,1,.5-1.5,3.1.7.4,1.3.8,2,1.2a18,18,0,0,1,3.7-8.2H41.5c1.2,1.2-2.1,6.6-2.7,7.5.7.3,1.5.6,2.2.9a18.18,18.18,0,0,1,3.6-8.7H42.9c1,.9-1.9,6.9-2.4,7.9l2.2.6c-.4-3.1,1.2-5.8,2.9-8.2l-2.2-.6a11.32,11.32,0,0,1-1.2,6.5l2.2.6a12.6,12.6,0,0,1,2-6l-2.2-.6c-.1,1.8-.7,3.6-.7,5.4q0,1.8.3-.6a6.65,6.65,0,0,1,2-4.3c-.6-.3-1.2-.7-1.8-1,.1,1.9.2,6.6-2.1,7.3-3,.8,1-6.4,1-6.4l-1.2-1.5c-.1.6-1.6,5.5-2.2,5-1.1-.9,2.5-4.4,3.8-5.3-.6-.5-1.2-.9-1.8-1.4-.1.3-2.9,6.1-3,5.7-.3-1.1,2.7-4.3,3.6-5.2-.7-.3-1.4-.6-2-.8.3,2.8-5.1,6.5-1.2,1.6-.6-.5-1.3-1-1.9-1.5-.3.7-1.4,3.2-2.3,3.4l1.5,1.5a10.23,10.23,0,0,1,2.7-4.6c-.7-.4-1.3-.8-2-1.2a8.7,8.7,0,0,1-2.1,4.3c.7.4,1.3.8,2,1.2a31,31,0,0,1,2.8-5.8c.7-1.1-1-2.5-1.9-1.5a19.82,19.82,0,0,0-2.2,3.4,15.06,15.06,0,0,1-1.1,2.2c-2.4,2-2.6,2.5-.6,1.4l-2.1-1.2a5.19,5.19,0,0,1-2.9,3.1c.6.3,1.2.7,1.8,1l-1.7-1.7c.7.3,1.4.6,2,.8l-.9-2.7,1.5,1.5a5.94,5.94,0,0,1,4.7-2.9c-.2-.8-.4-1.5-.6-2.3a9.6,9.6,0,0,0-2.7,1.3,1.21,1.21,0,0,0,1.2,2.1,5.1,5.1,0,0,0,2.3-1.2,1.2,1.2,0,0,0,1.7,1.7c1-.9,2-2.4.7-3.6-1.5-1.5-4.5.2-5.9,1l1.2,2.1c.7-.3,1.4-.7,2.2-1a1.19,1.19,0,0,0-.6-2.3c-3,.5-5.3,1.7-6.4,4.6a1.26,1.26,0,0,0,1.5,1.5c1.5-.5,2.5-1.2,2.7-2.8a1.33,1.33,0,0,0-.6-1c-2.8-1.8-4.5,1.9-4.2,4.2a1.16,1.16,0,0,0,2,.8c1.7-1.5,3.1-3.7,1-5.3a1.27,1.27,0,0,0-1.2,0c-1.7,1.3-2.1,3.2-2.2,5.2a1.21,1.21,0,0,0,1.8,1,8,8,0,0,0,3.8-3.9,1.21,1.21,0,0,0-2.1-1.2,5.33,5.33,0,0,0-1.1,3.4,1.29,1.29,0,0,0,.9,1.2c2.4.8,5.5-3.3,4.2-5.4a1.33,1.33,0,0,0-1-.6,3,3,0,0,0-2.4,4.5,1.45,1.45,0,0,0,1.4.6c3.2-1,3.8-5.4,5.8-7.7-.6-.5-1.3-1-1.9-1.5a30.71,30.71,0,0,0-3.1,6.3,1.21,1.21,0,0,0,2,1.2,12,12,0,0,0,2.7-5.4c.3-1.1-1.2-2.1-2-1.2a17,17,0,0,0-3.3,5.7c-.3.9.7,1.6,1.5,1.5,1.9-.4,3-3,3.7-4.5.5-1.1-1-2.6-1.9-1.5-1.5,1.9-3.2,4.3-3.1,6.9a1.29,1.29,0,0,0,.9,1.2c3.4,1.3,7.8-4.9,7.5-7.9-.1-1-1.3-1.7-2-.8-2,2-6.1,6.9-3.8,9.8a1.25,1.25,0,0,0,1.2.3c3.3-1.3,5.1-5.2,6.1-8.3a1.24,1.24,0,0,0-1.8-1.4c-2.1,1.5-8.5,8.2-4.9,11s6.4-5.8,6.8-7.9c.1-.7-.3-1.6-1.2-1.5-4.3.3-5.7,10.6-2.6,12.9a1.05,1.05,0,0,0,1.2,0c3.9-2,5.1-7.4,4.9-11.4a1.21,1.21,0,0,0-1.8-1c-2.7,1.3-5.5,9.2-2.2,10.9a1.37,1.37,0,0,0,1.5-.2c2.2-2.2,2.6-6.3,2.7-9.2a1.18,1.18,0,0,0-2.2-.6,14.26,14.26,0,0,0-2.3,7.2,1.17,1.17,0,0,0,2.2.6,14.1,14.1,0,0,0,1.6-7.8,1.19,1.19,0,0,0-2.2-.6c-1.9,2.7-3.6,6-3.2,9.4.1,1.1,1.6,1.8,2.2.6,1.2-2.3,4.5-8.7,2-10.8a1.24,1.24,0,0,0-1.7,0,20.76,20.76,0,0,0-4.3,9.7,1.2,1.2,0,0,0,2.2.9c1.6-2.4,4.8-7.9,2.3-10.4a1.24,1.24,0,0,0-1.7,0,21.45,21.45,0,0,0-4.3,9.3c-.2,1,1.2,2.2,2,1.2,1.6-2,4.8-6.8,2.3-9.2a1.37,1.37,0,0,0-1.5-.2c-2.8,1.5-4.2,5.3-5,8.2a1.2,1.2,0,0,0,2.2.9c1.2-2.2,5.8-9.5,3.2-12a1.37,1.37,0,0,0-1.5-.2c-2.8,1.3-7.9,8.6-5.5,11.6a1.31,1.31,0,0,0,1.2.3c3.3-1,9.9-8.2,7.5-11.9-2.1-3.2-6.5,2-6.5,4.5a1.22,1.22,0,0,0,1.2,1.2c2.8.4,7-1.8,9.5-2.8a1.25,1.25,0,0,0,.3-2.2c-2-1.5-4.5-2.3-6.7-3.4-.3.7-.6,1.5-.9,2.2l1.2.6c.2-.7.4-1.5.6-2.2-.6-.1-1.2-.1-1.8-.2-.2.8-.4,1.5-.6,2.3,2.3.4,4.6.8,7,1.4.2-.8.4-1.5.6-2.3l-7.2-1.2c-.2.8-.4,1.5-.6,2.3,4.1.7,8.3-.4,12.1,1.3.2-.7.4-1.5.6-2.2-1.2-.1-2.3-.3-3.5-.4a1.16,1.16,0,0,0-.8,2,14,14,0,0,0,4.8,2.6c1.1.3,2.1-1.2,1.2-2a5.84,5.84,0,0,0-6.4-1.1,1.24,1.24,0,0,0,.3,2.4c3.8.3,5.7,2.9,7.7,5.7.7,1.1,2.6.4,2.2-.9-.2-.7-.4-1.5-.6-2.2a1.19,1.19,0,0,0-2.3.6c.3,1.3.5,2.6.8,3.8.3,1.5,2.6.9,2.3-.6a22.21,22.21,0,0,0-.9-3.7,1.19,1.19,0,0,0-2.3.6c.2,1.1.3,2.2.5,3.3l2.3-.6a13.56,13.56,0,0,0-1.2-3.9,1.22,1.22,0,0,0-2.2.3,7.19,7.19,0,0,0-.1,4.8,1.19,1.19,0,0,0,2.3-.6c-.4-2.2-1.6-7.3-4.6-7.2-2.7,0-3,4.3-2.7,6.1s1.7,5.9,4.5,5.1,2.3-5.7,1.5-7.6c-2.7-6.7-8.1,2.1-4.7,6.5,4.2,5.5,8-4.8,2.9-5.6a1.34,1.34,0,0,0-1.4.6c-1.5,2.1-1.1,8.6,2.6,5.5,2.5-2.1.5-8.5-2.7-8.8a1.33,1.33,0,0,0-1,.6c-1.7,2.6-.9,7.4,1.8,9a1.23,1.23,0,0,0,1.6-.4c2.1-3.1.5-8.6-.8-11.8a1.22,1.22,0,0,0-2.2-.3c-1.9,3.4-.3,7.6,1.4,10.8a1.26,1.26,0,0,0,2.1,0c1.4-3.3-.9-7.8-2.2-10.8a1.08,1.08,0,0,0-1.6-.4c-2.9,2.1-.5,7.8.8,10.2a1.22,1.22,0,0,0,2.1,0c1.2-2.4-.5-7-2.5-8.7a1.37,1.37,0,0,0-1.5-.2c-2.7,1.7-1,7.2-.2,9.5.4,1.2,2.4,1.1,2.4-.3,0-2.3.2-8.4-2.7-9.2a1.34,1.34,0,0,0-1.4.6c-1,1.3-.8,3.2-.6,4.7-.7.9,1.7.9,1.5-.6Z" transform="translate(-24.43 -280)"/><path class="cls-1" d="M30.8,300a1.2,1.2,0,0,0,0-2.4c-1.6-.1-1.6,2.4,0,2.4Z" transform="translate(-24.43 -280)"/><path class="cls-1" d="M36.2,300.4a12.37,12.37,0,0,1-3.7-3.5l-1.6,1.6c-.2-.6-.5-1.2-.7-1.8-.6.5-1.3,1-1.9,1.5a2,2,0,0,1,.4-.8c-.4-1-2.1-1.3-2.3,0-.1.5-.3.9-.4,1.4l2.2.3a6,6,0,0,1-.6-2.3c-.2-1.3-2.4-1-2.4.3v.5l2.4-.3c-.1-.3-.1-.7-.2-1-.7.4-1.3.8-2,1.2l1.1,1.4c.6.9,2.3.7,2.2-.6a8.68,8.68,0,0,1,.1-2.8c-.7.3-1.4.6-2,.8a20.21,20.21,0,0,1,2.4,4l2.1-1.2c-.8-1.2-1.5-2.4-2.3-3.6-.3.6-.7,1.2-1,1.8,1.5-.1,5.3,3.7,6.3,4.5.5-.6,1-1.3,1.5-1.9a9.66,9.66,0,0,1-3.7-3.8c-.5.6-.9,1.2-1.4,1.8a20.17,20.17,0,0,1,6.9,4.7c1.1,1,2.8-.6,1.7-1.7s-4.4-4-4.4-5.7c-.6.3-1.2.7-1.8,1a22.14,22.14,0,0,1,6.1,6.1l1.6-1.6a9.72,9.72,0,0,1-3.7-4.3c-.5.6-.9,1.2-1.4,1.8a13.1,13.1,0,0,1,6.5,4.3l1.7-1.7a15.4,15.4,0,0,1-3.5-3.7l-1.6,1.6a10,10,0,0,1,4,3.9c.5-.6.9-1.2,1.4-1.8-.6-.3-1.3-.7-1.9-1l-1.7,1.7a62.71,62.71,0,0,1,4.8,4.2c.3-.7.6-1.4.8-2a10.88,10.88,0,0,0-2.4.7,41.13,41.13,0,0,1-7,1.3c-1.5.2-1.6,2.4,0,2.4,1.4,0,4.4.7,5.5-.6s-.7-2.9-.8-4.3c-.6.3-1.2.7-1.8,1a11.78,11.78,0,0,1,2.2,1.7c1,.9,2.7-.3,1.9-1.5a8.67,8.67,0,0,1-1.4-2.7c-.7.4-1.3.8-2,1.2l2.7,2.4a1.22,1.22,0,0,0,1.9-1.5c-.5-.7-.9-1.5-1.4-2.2l-2.1,1.2c.1.1-3.3.6-3.9.7a12.81,12.81,0,0,0-3.3,1.1,1.17,1.17,0,0,0-.2,1.9c.3.2.5.5.8.7.4-.7.8-1.3,1.2-2a8.91,8.91,0,0,1-6.9-5.8c-.7.3-1.5.6-2.2.9a26.06,26.06,0,0,1,1.7,2.8c.5-.6.9-1.2,1.4-1.8-.3-.1-.5-.2-.8-.3-1-.4-1.8.9-1.4,1.8.2.4.5.8.7,1.2l1.6-1.6c-.2-.3-.5-.5-.7-.8-.6.5-1.3,1-1.9,1.5a5.26,5.26,0,0,1,1.2,1.4l1.7-1.7a4.35,4.35,0,0,1-1.3-2c-.6.5-1.3,1-1.9,1.5a47,47,0,0,0,4.3,3.5c1.2.8,2.3-.9,1.5-1.9s-1.6-1.8-2.3-2.7c-.5.6-1,1.3-1.5,1.9a18.8,18.8,0,0,0,5.4,2.9,1.21,1.21,0,0,0,1.2-2,51.94,51.94,0,0,0-4.6-3.6l-1.2,2.1c1.9,1,3.9,2,5.8,3.1a1.21,1.21,0,0,0,1.2-2.1l-4.8-3.3-1.2,2.1a41.36,41.36,0,0,1,5.9,3.1,1.23,1.23,0,0,0,1.5-1.9c-1-.9-2-1.9-3-2.8-.5.6-1,1.3-1.5,1.9,1,.4,1.9.9,2.9,1.3,1.2.5,2.5-.8,1.5-1.9a7.49,7.49,0,0,1-1.5-2l-1.6,1.6a22.58,22.58,0,0,1,2.9,2.5,1.23,1.23,0,0,0,1.9-1.5c-.2-.3-.3-.6-.5-.9-.6.5-1.3,1-1.9,1.5.3.3.7.5,1,.8.8.6,2.5.1,2-1.2-.4-.9-.8-1.9-1.2-2.8-.6-1.4-2.7-.9-2.3.6.2.9.5,1.8.7,2.7l2.3-.6c-.2-.5-1.6-3.7-.9-4.2.2-.1,2.1,4,2,3.7.6,1.4,2.9.8,2.3-.6-.8-1.8-2.5-6.8-5.2-6.4-3.3.6-1.1,6.6-.5,8.1s2.7.9,2.3-.6c-.2-.9-.5-1.8-.7-2.7l-2.3.6c.4.9.8,1.9,1.2,2.8.7-.4,1.3-.8,2-1.2-.3-.3-.7-.5-1-.8a1.23,1.23,0,0,0-1.9,1.5c.2.3.3.6.5.9.6-.5,1.3-1,1.9-1.5-1.1-1-2.2-1.9-3.4-2.8-1-.7-2.2.7-1.6,1.6a8.76,8.76,0,0,0,1.9,2.4c.5-.6,1-1.3,1.5-1.9-1-.4-1.9-.9-2.9-1.3-1.2-.5-2.5.9-1.5,1.9s2,1.9,3,2.8c.5-.6,1-1.3,1.5-1.9a41.36,41.36,0,0,0-5.9-3.1,1.21,1.21,0,0,0-1.2,2.1l4.8,3.3,1.2-2.1c-1.9-1-3.9-2-5.8-3.1a1.21,1.21,0,0,0-1.2,2.1,42.3,42.3,0,0,1,4.1,3.3c.4-.7.8-1.3,1.2-2a16.11,16.11,0,0,1-4.8-2.7c-1.2-.8-2.3.9-1.5,1.9s1.6,1.8,2.3,2.7c.5-.6,1-1.3,1.5-1.9a29.24,29.24,0,0,1-3.8-3.2c-1.1-1-2.4.3-1.9,1.5a7,7,0,0,0,1.7,2.5c1.1,1.1,2.6-.5,1.7-1.7a8.06,8.06,0,0,0-1.2-1.4c-.9-.9-2.7.3-1.9,1.5a4.1,4.1,0,0,0,1.6,1.6c1,.7,2.2-.7,1.6-1.6-.2-.4-.5-.8-.7-1.2-.5.6-.9,1.2-1.4,1.8.3.1.5.2.8.3,1,.4,1.8-.9,1.4-1.8a26.06,26.06,0,0,0-1.7-2.8c-.7-1-2.7-.4-2.2.9a11.51,11.51,0,0,0,8.6,7.5c1.1.2,2.1-1.2,1.2-2-.3-.2-.5-.5-.8-.7a12.25,12.25,0,0,0-.2,1.9c1.6-.7,11.3-.5,8-5.1-.9-1.2-2.9-.1-2.1,1.2.5.7.9,1.5,1.4,2.2.6-.5,1.3-1,1.9-1.5l-2.7-2.4a1.21,1.21,0,0,0-2,1.2,14.35,14.35,0,0,0,1.6,3.3c.6-.5,1.3-1,1.9-1.5a19.36,19.36,0,0,0-2.7-2.1,1.18,1.18,0,0,0-1.8,1,5.3,5.3,0,0,0,.8,2.7c1.4-.2,1.3-.2-.4-.2H37.1v2.4a52.34,52.34,0,0,0,5.7-.6c1.2-.3,2.4-1.2,3.6-1.3.9-.1,1.7-1.3.8-2l-4.8-4.2c-1.2-1-2.8.6-1.7,1.7a6.38,6.38,0,0,0,3,1.7,1.28,1.28,0,0,0,1.4-1.8,15,15,0,0,0-4.9-4.8c-1-.6-2.3.6-1.6,1.6a17.27,17.27,0,0,0,3.9,4.2,1.2,1.2,0,0,0,1.7-1.7,15.63,15.63,0,0,0-7.5-4.9,1.26,1.26,0,0,0-1.4,1.8,12.56,12.56,0,0,0,4.5,5.2c1,.6,2.3-.7,1.6-1.6a25.54,25.54,0,0,0-7-6.9,1.21,1.21,0,0,0-1.8,1c-.1,2.7,3.4,5.6,5.1,7.4l1.7-1.7a23.39,23.39,0,0,0-7.9-5.3c-1-.4-1.8.9-1.4,1.8a12,12,0,0,0,4.6,4.6c1.1.7,2.5-1,1.5-1.9-1.9-1.6-5.3-5.4-8-5.2-.8.1-1.6,1-1,1.8.8,1.2,1.5,2.4,2.3,3.6a1.21,1.21,0,0,0,2.1-1.2,26,26,0,0,0-2.8-4.5c-.7-.9-1.9,0-2,.8a8.78,8.78,0,0,0-.1,2.8l2.2-.6c-.5-.7-.9-1.2-1.4-1.9-.9-1-2.2.1-2,1.2.1.3.1.7.2,1,.2,1.3,2.4,1,2.4-.3v-.5l-2.4.3a8.65,8.65,0,0,0,.6,2.3,1.22,1.22,0,0,0,2.2.3,6.79,6.79,0,0,0,.7-2H26.9a8.7,8.7,0,0,0,1.6,3,1.31,1.31,0,0,0,1.2.3c2.4-.6,2.6-3.2.9-4.8a1.23,1.23,0,0,0-1.9,1.5c.8,1.7,3.7,4.7,5.7,2.6,1.6-1.6-.3-3.2-1.7-4.1-1-.7-2.3.7-1.6,1.6a17.1,17.1,0,0,0,4.5,4.4c.7.8,1.9-1.3.6-2.2Z" transform="translate(-24.43 -280)"/><path class="cls-1" d="M30.7,301.1c-.5.1-.9.3-1.4.4-.8.3-1.3,1.4-.5,2l.9.9c.5-.6.9-1.2,1.4-1.8l-.1-.1c-1-1.2-2.7.5-1.7,1.7a8.06,8.06,0,0,0,5.4,2.7c.1,0,2.1.4,2.3.2,1.2-.9-2.6-4.3-2.7-5-.1-1.4,1.4-3.5,2-4.6a15.49,15.49,0,0,1,3.1-3.6c1.1-.9,2.8-2.2,4.4-1.1.8.5,1.3,2.5,1.3,3.4a2.08,2.08,0,1,1-4-.4c.3-1.1,1.1-3,2.5-2.9.8-.2,1.1.1.8,1a3,3,0,0,1-.5,2.4c-1.5.3-.9,2.6.6,2.3,4.7-1,2.2-12.4-3-7.8-2,1.7-3.9,5.4-2.7,8.1.9,2.2,5.3,2.9,7.2,1.6,2.2-1.5,1.6-5.4.7-7.4-1.3-2.8-3.8-3.8-6.7-2.4-4.5,2.1-12.1,12.2-6.4,16.4,1.3,1,5.9,2.7,6.2-.3.1-1-.6-1.5-1.4-1.8-2.8-1-5.4.2-7.7-2.4L29,304.3a1.85,1.85,0,0,0,1.2.7c.9.2,2-.9,1.4-1.8a8.06,8.06,0,0,0-1.2-1.4,14.62,14.62,0,0,0-.5,2c.5-.1.9-.3,1.4-.4a1.19,1.19,0,0,0-.6-2.3Z" transform="translate(-24.43 -280)"/><path class="cls-2" d="M29.3,285.1a8.11,8.11,0,0,0,4.1.2c.8-.2.4-1.3-.3-1.2a5.62,5.62,0,0,1-3.4-.2.63.63,0,1,0-.4,1.2Z" transform="translate(-24.43 -280)"/><path class="cls-2" d="M28.3,284.1c-4.2,4-4.9,11.5-2.5,16.5.3.7,1.4.1,1-.6-2.1-4.5-1.5-11.5,2.3-15.1a.57.57,0,1,0-.8-.8Z" transform="translate(-24.43 -280)"/><path class="cls-2" d="M25.7,300.2c1.1,4.2,4.3,6.6,8.3,7.8,4.9,1.5,8.8.5,13.1-1.9a.58.58,0,1,0-.6-1c-3.6,2-6.6,3.1-10.9,2.1-4.1-.9-7.7-3-8.8-7.3-.1-.7-1.3-.4-1.1.3Z" transform="translate(-24.43 -280)"/><path class="cls-2" d="M46.5,306.4a10,10,0,0,0,9-6.3c2-4.9.3-10.3-1.4-15-.3-.7-1.4-.4-1.2.3,2.6,7.2,4.4,18.8-6.5,19.7-.7.2-.7,1.4.1,1.3Z" transform="translate(-24.43 -280)"/><path class="cls-2" d="M33.4,285.1a2.94,2.94,0,0,0,1.9-2.6.6.6,0,0,0-1.2,0,1.5,1.5,0,0,1-1,1.4c-.7.3-.4,1.4.3,1.2Z" transform="translate(-24.43 -280)"/><path class="cls-2" d="M35.2,282.8c.9-2.5,4.5-1,6.7-.8,3.5.3,6.9.6,10.4,1,.8.1.8-1.1,0-1.2-5.7-.5-11.6-1.5-17.4-1.5a.65.65,0,0,0-.6.6c-.1.5-.2,1.1-.3,1.6-.2.7,1,1,1.2.3Z" transform="translate(-24.43 -280)"/><path class="cls-2" d="M51.8,282.2a11.9,11.9,0,0,0,1.1,4.1c.3.7,1.4.1,1-.6a10.64,10.64,0,0,1-.9-3.5c-.1-.8-1.3-.8-1.2,0Z" transform="translate(-24.43 -280)"/><path class="cls-1" d="M163.2,295.6c2.2,1.4,4.7-1.4,2.5-3.2-2-1.6-4.7,1.3-3.1,3.2a2.35,2.35,0,0,0,4.1-1.9c-.4-2.8-4.4-2.7-4.3.2s4.1,3.5,5.3,1c1-2.1-1.1-5-3.3-3.4-2.8,2,.8,6.6,3.7,5.4,2.3-1,2.3-5.1-.1-5.9a1.31,1.31,0,0,0-1.2.3c-3,3.1,4.9,9.1,5.2,2.2-.7.3-1.4.6-2,.8a9.09,9.09,0,0,0,2.1,1.8,1.2,1.2,0,0,0,1.8-.7,3.19,3.19,0,0,0,0-2.7c-.4-1.2-2.5-1.1-2.4.3a5.83,5.83,0,0,0,.9,2.9,1.22,1.22,0,0,0,2.2-.3,3.57,3.57,0,0,0-.2-2.5,1.23,1.23,0,0,0-2.4.3,3.7,3.7,0,0,0,.7,2.7c.6,1,2.4.6,2.2-.6a27.53,27.53,0,0,0-1.5-6.3c-.7.3-1.5.6-2.2.9a9.13,9.13,0,0,0,1.5,2.3c.8,1,2.2-.1,2-1.2-.4-1.6-1.9-5.4-3.3-6.3-2.1-1.4-3.1-.4-6.3-2.6-.9-.6-.4-1.3-2-1.6s-5,.1-6.8.4c-1.3.2-1,2.4.3,2.4a29.66,29.66,0,0,0,5.2-.8c-.2-.8-.4-1.5-.6-2.3a26.56,26.56,0,0,1-8.8,1.8l.3,2.4c1.9-.4,3.6-.5,5.1-1.8a1.2,1.2,0,0,0-1.2-2c-1.7.5-7,.8-8.1,1.8-1.3,1.2-1.2,3.1-2,4.6.7.3,1.5.6,2.2.9.4-1.4.7-2.7,1.1-4.1s-1.6-2.2-2.2-.9a7.71,7.71,0,0,0-1,2.5c-.5,1.5,1.7,2,2.3.6a11.24,11.24,0,0,0,1-3.1,1.19,1.19,0,0,0-2.3-.6,59.26,59.26,0,0,0-1.6,7.3,1.19,1.19,0,0,0,2.3.6,11.34,11.34,0,0,0,.6-3.1c.1-1.4-1.9-1.5-2.4-.3a13.82,13.82,0,0,0-.8,2.7l2.3.6c.1-1,.3-2,.4-2.9a1.19,1.19,0,0,0-2.3-.6l-.9,2.4,2.3.6c.3-1.1.6-2.1.8-3.2a1.19,1.19,0,0,0-2.3-.6c-1.3,3.5-.5,5.8-.6,9.5l2.4-.3c-.3-1-.6-2-.9-3.1a1.24,1.24,0,0,0-2.4.3,16.86,16.86,0,0,0-.1,3.2c.1,1.3,2.1,1.7,2.4.3a9.34,9.34,0,0,0,.2-2.4h-2.4c.5,5.7,1.6,11,8.6,10.9-.2-.7-.4-1.5-.6-2.2a6.73,6.73,0,0,0-1.1.7,1.18,1.18,0,0,0,.6,2.2h.4a1.2,1.2,0,0,0,0-2.4c-3.4,0-5.5-1.9-6.3-5.5h-1.7c1.9,1.9,3.7,3.8,5.6,5.7,1,1,2.5-.3,1.9-1.5a19.41,19.41,0,0,0-2.7-4.1c-.9-1-2.7.3-1.9,1.5s1.7,2.5,3.2,2.8a1.31,1.31,0,0,0,1.2-.3c1.7-2.1-.9-7.2-3.6-6.8-.8.1-1,1.1-.7,1.8,1.2,2.3,4.9,7.4,8.1,5.4,4.3-2.6-1.3-9.6-3.4-11.6a1.2,1.2,0,0,0-2,.5c-.8,4,3.4,9.7,7.1,11a1.23,1.23,0,0,0,1.5-1.5c-.8-3.9-3.3-6.9-6.1-9.7a1.23,1.23,0,0,0-1.9.2c-1.8,2.9,2.7,8.3,4.4,10.4.7.9,2.4-.1,2-1.2a28.69,28.69,0,0,0-5.5-9,1.21,1.21,0,0,0-2,1.2,34.65,34.65,0,0,0,3.5,7.9,1.21,1.21,0,0,0,2.1-1.2,35.69,35.69,0,0,0-4-6.8c-.8-1-2.6-.5-2.2.9a32.5,32.5,0,0,0,3.8,8.5c.7,1.1,2.6.4,2.2-.9a23.47,23.47,0,0,0-4.3-8.1c-.8-1-2.3.1-2,1.2a37.4,37.4,0,0,0,2.9,7.2c.6,1.2,2.7.3,2.2-.9a28.1,28.1,0,0,0-2.9-5.4c-.7-1-2.7-.4-2.2.9a42.4,42.4,0,0,0,3.8,7.7c.7,1.1,2.6.4,2.2-.9a24,24,0,0,0-3.6-6.9c-.8-1-2.6-.5-2.2.9a29.21,29.21,0,0,0,2.3,5.8c.6,1.2,2.7.4,2.2-.9a32.74,32.74,0,0,0-2.4-5,1.2,1.2,0,0,0-2.2.9,11.06,11.06,0,0,0,1.8,3.8c.9,1.3,3,.1,2.1-1.2a6.33,6.33,0,0,1-1.5-3.2c-.7.3-1.5.6-2.2.9a17.8,17.8,0,0,1,2.1,4.4c.7-.3,1.5-.6,2.2-.9a25.75,25.75,0,0,1-2.1-5.2c-.7.3-1.5.6-2.2.9a21.35,21.35,0,0,1,3.4,6.3c.7-.3,1.5-.6,2.2-.9a37.26,37.26,0,0,1-3.6-7.2c-.7.3-1.5.6-2.2.9a22.31,22.31,0,0,1,2.6,4.8c.7-.3,1.5-.6,2.2-.9a32.07,32.07,0,0,1-2.6-6.7c-.7.4-1.3.8-2,1.2a21.19,21.19,0,0,1,3.6,7c.7-.3,1.5-.6,2.2-.9a31.85,31.85,0,0,1-3.5-8c-.7.3-1.5.6-2.2.9a32.85,32.85,0,0,1,4,6.8l2.1-1.2a32,32,0,0,1-3.3-7.3c-.7.4-1.3.8-2,1.2a24.92,24.92,0,0,1,4.9,7.9c.7-.4,1.3-.8,2-1.2-.7-.8-4.8-6.1-4-7.4a12.25,12.25,0,0,1-1.9.2c2.5,2.4,4.7,5.1,5.4,8.6l1.5-1.5c-2.2-.8-5.9-5.5-5.4-8a14.62,14.62,0,0,1-2,.5c.9.8,4.4,4.3,3.8,5.6-.9.2-1.8.5-2.7.7a10.19,10.19,0,0,1-2.1-3c-.2.6-.5,1.2-.7,1.8.2.3.5.5.7.8-.6.5-1.3,1-1.9,1.5a9.67,9.67,0,0,1,2.3,3.6c.6-.5,1.3-1,1.9-1.5-1.9-1.9-3.7-3.8-5.6-5.7a1.24,1.24,0,0,0-1.7,0c-1.5,1.3-.3,4,.5,5.4,1.6,2.8,4.4,4,7.5,4.2v-2.4h-.4c.2.7.4,1.5.6,2.2a6.73,6.73,0,0,0,1.1-.7,1.19,1.19,0,0,0-.6-2.2c-5.1,0-5.8-4.6-6.2-8.5a1.2,1.2,0,0,0-2.4,0c-.1.6-.1,1.2-.2,1.8l2.4.3a11.45,11.45,0,0,1,.1-3.2l-2.4.3c.3,1,.6,2,.9,3.1a1.24,1.24,0,0,0,2.4-.3c.1-3.2-.6-5.7.5-8.8l-2.3-.6c-.3,1.1-.6,2.1-.8,3.2a1.19,1.19,0,0,0,2.3.6l.9-2.4-2.3-.6c-.1,1-.3,2-.4,2.9-.2,1.5,2,2.2,2.3.6a13.82,13.82,0,0,1,.8-2.7l-2.4-.3c-.2.8-.3,1.6-.5,2.5l2.3.6c.4-2.5,1-4.9,1.6-7.3l-2.3-.6a7.08,7.08,0,0,1-1,3.1l2.3.6c.3-.6.5-1.3.8-1.9-.7-.3-1.5-.6-2.2-.9-.4,1.4-.7,2.7-1.1,4.1s1.6,2.2,2.2.9a20,20,0,0,0,1-2.1,3.08,3.08,0,0,0,.3-1.3c-.1-.8.2-.9,1-.4,1.7-.9,4.5-.9,6.4-1.5-.4-.7-.8-1.3-1.2-2-1,.9-2.8,1-4,1.2a1.24,1.24,0,0,0,.3,2.4,28.69,28.69,0,0,0,9.5-1.9c1.4-.5.9-2.7-.6-2.3a17.66,17.66,0,0,1-4.6.7l.3,2.4c-1.8.3,6.4-.2,5.8-.4.5.2,1.1,2.3,1.7,2.9a4.84,4.84,0,0,0,3.4,1.3c.4,0,1.9-.5,2.1-.4.7.3,2.3,4.7,2.3,5.1.7-.4,1.3-.8,2-1.2L173,289c-.6-1.2-2.7-.4-2.2.9a18.33,18.33,0,0,1,1.4,5.7l2.2-.6a8.33,8.33,0,0,0-.4-1.5l-2.4.3c.1.4.1.8.2,1.2l2.2-.3c-.2-.6-.4-1.1-.6-1.7l-2.4.3v1.4c.6-.2,1.2-.5,1.8-.7a20,20,0,0,0-1.6-1.4,1.19,1.19,0,0,0-2,.8c.3,2.4-1.4,2.4-5.2,0-.9-.7-2.1,1.3-.8,2.2Z" transform="translate(-24.43 -280)"/><path class="cls-1" d="M155,291.7c.2-1.5.3-3.4-.6-4.7a1.45,1.45,0,0,0-1.4-.6c-2.9.8-2.7,6.8-2.7,9.2a1.23,1.23,0,0,0,2.4.3c.8-2.4,2.4-7.8-.2-9.5a1.37,1.37,0,0,0-1.5.2c-1.9,1.6-3.7,6.3-2.5,8.7a1.22,1.22,0,0,0,2.1,0c1.3-2.5,3.8-8.1.8-10.2a1.23,1.23,0,0,0-1.6.4c-1.3,3.1-3.6,7.5-2.2,10.8a1.26,1.26,0,0,0,2.1,0c1.8-3.1,3.4-7.4,1.4-10.8a1.22,1.22,0,0,0-2.2.3c-1.3,3.1-2.9,8.6-.8,11.8a1.18,1.18,0,0,0,1.6.4c2.8-1.6,3.5-6.4,1.8-9a1.33,1.33,0,0,0-1-.6c-3.3.2-5.3,6.6-2.7,8.8,3.7,3.1,4.1-3.3,2.6-5.5a1.45,1.45,0,0,0-1.4-.6c-5,.8-1.4,10.9,2.8,5.8,3.5-4.3-1.8-13.4-4.6-6.6-.8,1.9-1.3,6.6,1.4,7.6s4.3-2.8,4.6-4.8.1-5.9-2.5-6.3c-3.1-.4-4.4,5.2-4.8,7.2a1.19,1.19,0,0,0,2.3.6,7.19,7.19,0,0,0-.1-4.8,1.22,1.22,0,0,0-2.2-.3,13.56,13.56,0,0,0-1.2,3.9l2.3.6c.2-1.1.3-2.2.5-3.3a1.19,1.19,0,0,0-2.3-.6,24.91,24.91,0,0,0-.9,3.7c-.2,1.5,2,2.2,2.3.6.3-1.3.5-2.6.8-3.8a1.19,1.19,0,0,0-2.3-.6c-.2.7-.4,1.5-.6,2.2a1.2,1.2,0,0,0,2.2.9c1.9-2.8,3.9-5.4,7.7-5.7a1.23,1.23,0,0,0,.3-2.4,5.81,5.81,0,0,0-6.4,1.1c-.9.8.1,2.3,1.2,2a13.24,13.24,0,0,0,4.8-2.6c.8-.6.2-2.2-.8-2-1.2.1-2.3.3-3.5.4.2.7.4,1.5.6,2.2,3.8-1.7,8.1-.6,12.1-1.3-.2-.8-.4-1.5-.6-2.3l-7.2,1.2c.2.8.4,1.5.6,2.3,2.3-.6,4.6-1,7-1.4-.2-.8-.4-1.5-.6-2.3-.6.1-1.2.1-1.8.2.2.7.4,1.5.6,2.2l1.2-.6c-.3-.7-.6-1.5-.9-2.2a35.18,35.18,0,0,0-6.7,3.4,1.22,1.22,0,0,0,.3,2.2c2.5,1,6.7,3.1,9.5,2.8a1.29,1.29,0,0,0,1.2-1.2c0-2.5-4.4-7.7-6.5-4.5-2.4,3.7,4.2,11,7.5,11.9a1.31,1.31,0,0,0,1.2-.3c2.4-3-2.7-10.3-5.5-11.6a1.39,1.39,0,0,0-1.5.2c-2.6,2.5,2,9.8,3.2,12a1.2,1.2,0,0,0,2.2-.9c-.9-2.9-2.2-6.7-5-8.2a1.21,1.21,0,0,0-1.5.2c-2.5,2.3.7,7.2,2.3,9.2.8,1,2.2-.1,2-1.2a21.45,21.45,0,0,0-4.3-9.3,1.24,1.24,0,0,0-1.7,0c-2.4,2.6.8,8.1,2.3,10.4a1.2,1.2,0,0,0,2.2-.9,20.33,20.33,0,0,0-4.3-9.7,1.24,1.24,0,0,0-1.7,0c-2.5,2.1.9,8.6,2,10.8.6,1.2,2.1.5,2.2-.6.4-3.4-1.3-6.7-3.2-9.4a1.19,1.19,0,0,0-2.2.6,14.1,14.1,0,0,0,1.6,7.8,1.19,1.19,0,0,0,2.2-.6,15.29,15.29,0,0,0-2.3-7.2,1.18,1.18,0,0,0-2.2.6c.2,3,.5,7,2.7,9.2a1.37,1.37,0,0,0,1.5.2c3.3-1.7.5-9.6-2.2-10.9a1.21,1.21,0,0,0-1.8,1c-.2,4,1,9.4,4.9,11.4a1.05,1.05,0,0,0,1.2,0c3.1-2.3,1.7-12.6-2.6-12.9-.8-.1-1.3.8-1.2,1.5.4,2.1,3.4,10.5,6.8,7.9,3.6-2.8-2.8-9.5-4.9-11a1.24,1.24,0,0,0-1.8,1.4c1,3.1,2.8,7,6.1,8.3a1.31,1.31,0,0,0,1.2-.3c2.3-2.9-1.8-7.8-3.8-9.8a1.19,1.19,0,0,0-2,.8c-.4,3,4,9.3,7.5,7.9a1.29,1.29,0,0,0,.9-1.2c.1-2.6-1.5-4.9-3.1-6.9-.9-1.1-2.4.3-1.9,1.5.7,1.5,1.8,4.2,3.7,4.5.8.1,1.8-.5,1.5-1.5a18.09,18.09,0,0,0-3.3-5.7c-.8-1-2.3.1-2,1.2a12.53,12.53,0,0,0,2.7,5.4,1.21,1.21,0,0,0,2-1.2,28.39,28.39,0,0,0-3.1-6.3c-.6.5-1.3,1-1.9,1.5,1.9,2.3,2.5,6.7,5.8,7.7a1.2,1.2,0,0,0,1.4-.6,3,3,0,0,0-2.4-4.5,1.33,1.33,0,0,0-1,.6c-1.3,2.1,1.8,6.2,4.2,5.4a1.29,1.29,0,0,0,.9-1.2,5.33,5.33,0,0,0-1.1-3.4c-.8-1.4-2.7-.2-2.1,1.2a7.61,7.61,0,0,0,3.8,3.9,1.21,1.21,0,0,0,1.8-1c-.1-2.1-.5-3.9-2.2-5.2a1.27,1.27,0,0,0-1.2,0c-2.1,1.6-.7,3.8,1,5.3a1.18,1.18,0,0,0,2-.8c.3-2.4-1.4-6.1-4.2-4.2a1.33,1.33,0,0,0-.6,1c.2,1.7,1.2,2.4,2.7,2.8a1.26,1.26,0,0,0,1.5-1.5c-1.1-2.9-3.4-4.1-6.4-4.6a1.19,1.19,0,0,0-.6,2.3c.7.3,1.4.7,2.2,1l1.2-2.1c-1.4-.7-4.4-2.4-5.9-1-1.3,1.2-.2,2.7.7,3.6a1.2,1.2,0,0,0,1.7-1.7,5.1,5.1,0,0,0,2.3,1.2,1.21,1.21,0,0,0,1.2-2.1,9.6,9.6,0,0,0-2.7-1.3c-.2.8-.4,1.5-.6,2.3a5.79,5.79,0,0,1,4.7,2.9l1.5-1.5-.9,2.7c.7-.3,1.4-.6,2-.8l-1.7,1.7c.6-.3,1.2-.7,1.8-1a4.94,4.94,0,0,1-2.9-3.1l-2.1,1.2c1.9,1.1,1.7.7-.6-1.4a22.56,22.56,0,0,1-1.1-2.2,15.23,15.23,0,0,0-2.2-3.4c-.9-1-2.6.3-1.9,1.5a28.27,28.27,0,0,1,2.8,5.8c.7-.4,1.3-.8,2-1.2a8.29,8.29,0,0,1-2.1-4.3c-.7.4-1.3.8-2,1.2a10.79,10.79,0,0,1,2.7,4.6l1.5-1.5c-.9-.2-2-2.8-2.3-3.4-.6.5-1.3,1-1.9,1.5,3.9,4.9-1.5,1.1-1.2-1.6-.7.3-1.4.6-2,.8.8.9,3.9,4.1,3.6,5.2-.1.4-2.9-5.3-3-5.7-.6.5-1.2.9-1.8,1.4,1.3.9,4.9,4.4,3.8,5.3-.6.5-2.1-4.4-2.2-5l-1.2,1.5s4,7.3,1,6.4c-2.3-.6-2.2-5.4-2.1-7.3-.6.3-1.2.7-1.8,1,.6,1,1.2,2,1.8,2.9.3,2.9.4,3.6.5,1.9-.1-1.8-.6-3.5-.7-5.4l-2.2.6a12.6,12.6,0,0,1,2,6l2.2-.6a11.32,11.32,0,0,1-1.2-6.5l-2.2.6c1.7,2.4,3.3,5.1,2.9,8.2l2.2-.6c-.4-.8-3.4-7-2.4-7.9h-1.7a17.25,17.25,0,0,1,3.6,8.7c.7-.3,1.5-.6,2.2-.9-.6-.9-3.9-6.3-2.7-7.5h-1.7a18,18,0,0,1,3.7,8.2c.7-.4,1.3-.8,2-1.2-2.5-2.5-3-3.6-1.5-3.1a12.81,12.81,0,0,1,1.7,4.2c.7-.3,1.5-.6,2.2-.9-1-1.8-1.7-3.7-2.7-5.6-.6-1.2-1.9-5.2.7.4.6,1.3,1.6,4.7-1.1.1-.3-.4-.5-.9-.8-1.3-.7-2.9-.4-2.9,1,0l1.2-1.2c-2.6.3-6.5-1.7-8.9-2.7.1.7.2,1.5.3,2.2,2-1.5,4.5-2.3,6.7-3.4,1.3-.6.4-2.5-.9-2.2a2.72,2.72,0,0,0-1.7.8,1.18,1.18,0,0,0,.6,2.2,6.34,6.34,0,0,0,2.4-.3c1.5-.3.9-2.6-.6-2.3-2.3.4-4.6.8-7,1.4a1.19,1.19,0,0,0,.6,2.3l7.2-1.2c1.5-.3.9-2.6-.6-2.3-4.6.7-8.4-.4-12.7,1.5-1.1.5-.6,2.4.6,2.2s2.3-.3,3.5-.4c-.3-.7-.6-1.4-.8-2-1.2.6-2.5,1.3-3.7,1.9.4.7.8,1.3,1.2,2,1.4-.2,2.7-.3,4.1-.5l.3-2.4c-4.6.4-7.3,3.3-9.7,6.9.7.3,1.5.6,2.2.9.2-.7.4-1.5.6-2.2l-2.3-.6c-.3,1.3-.5,2.6-.8,3.8l2.3.6a22.21,22.21,0,0,1,.9-3.7l-2.3-.6c-.2,1.1-.3,2.2-.5,3.3-.2,1.5,2.1,2.2,2.3.6a7.49,7.49,0,0,1,1-3.3l-2.2-.3c0,1.2.1,2.4.1,3.6l2.3.6c.4-1.7.5-5.1,2.8-3.1-2.1-1.8-.9,3.6-2.4,4.4.5.1,1.1.3,1.6.4-1.7-2.6,0-7.4,1.1-9.9l-2.2.3c1.5,2.6-.1,6.1-1.4,8.3h2.1c-.8-1.9,1.5-6.8,2.2-8.4-.5.1-1.1.3-1.6.4,1.1.8-1.5,6.5-1.7,6.9h2.1c-.2-.5,1.2-4.7.7-4.5s-.6,4.9-.9,5.7l2.4.3c0-1.5.8-3.6.5-5-.3-1.2-.5-.1-.6,1.1-1,2,1.4,2,1.6.5Z" transform="translate(-24.43 -280)"/><path class="cls-1" d="M169.3,299.6a1.2,1.2,0,0,0,0-2.4,1.2,1.2,0,0,0,0,2.4Z" transform="translate(-24.43 -280)"/><path class="cls-1" d="M165.1,302.2a17.1,17.1,0,0,0,4.5-4.4c.7-1-.7-2.3-1.6-1.6-1.3.9-3.3,2.6-1.7,4.2,2,2,4.8-.9,5.7-2.6a1.23,1.23,0,0,0-1.9-1.5c-1.7,1.5-1.4,4.2.9,4.8a1.31,1.31,0,0,0,1.2-.3,10.81,10.81,0,0,0,1.6-3h-2.3a4.79,4.79,0,0,0,.7,2,1.22,1.22,0,0,0,2.2-.3,6,6,0,0,0,.6-2.3l-2.4-.3v.5c-.1,1.3,2.2,1.7,2.4.3.1-.3.1-.7.2-1,.1-1-1.1-2.2-2-1.2a23.07,23.07,0,0,0-1.4,1.9l2.2.6a8.68,8.68,0,0,0-.1-2.8c-.1-.9-1.3-1.8-2-.8a26,26,0,0,0-2.8,4.5,1.21,1.21,0,0,0,2.1,1.2c.8-1.2,1.5-2.4,2.3-3.6a1.23,1.23,0,0,0-1-1.8c-2.6-.2-6.1,3.6-8,5.2-1.1.9.3,2.6,1.5,1.9a12.68,12.68,0,0,0,4.6-4.6,1.24,1.24,0,0,0-1.4-1.8,23.39,23.39,0,0,0-7.9,5.3l1.7,1.7c1.7-1.8,5.2-4.7,5.1-7.4a1.18,1.18,0,0,0-1.8-1,28.68,28.68,0,0,0-7,6.9c-.7,1,.7,2.3,1.6,1.6a12,12,0,0,0,4.5-5.2,1.26,1.26,0,0,0-1.4-1.8,15.18,15.18,0,0,0-7.5,4.9,1.2,1.2,0,0,0,1.7,1.7,17.27,17.27,0,0,0,3.9-4.2c.7-1-.7-2.2-1.6-1.6a14.07,14.07,0,0,0-4.9,4.8c-.6.9.4,2,1.4,1.8a6,6,0,0,0,3-1.7c1.1-1.1-.5-2.7-1.7-1.7a62.71,62.71,0,0,0-4.8,4.2,1.19,1.19,0,0,0,.8,2c1.2.1,2.4,1,3.6,1.3a55.09,55.09,0,0,0,5.7.6v-2.4h-2.7c-1.7-.1-1.8,0-.4.2a5.3,5.3,0,0,0,.8-2.7,1.18,1.18,0,0,0-1.8-1,17.83,17.83,0,0,0-2.7,2.1c.6.5,1.3,1,1.9,1.5a14.36,14.36,0,0,0,1.6-3.3c.4-1.2-1.2-1.9-2-1.2l-2.7,2.4c.6.5,1.3,1,1.9,1.5.5-.7.9-1.5,1.4-2.2.8-1.3-1.2-2.5-2.1-1.2-3.2,4.6,6.5,4.4,8,5.1a12.25,12.25,0,0,1-.2-1.9c-.3.2-.5.5-.8.7-1,.8.1,2.2,1.2,2a11.49,11.49,0,0,0,8.6-7.5c.5-1.3-1.5-2-2.2-.9a26.06,26.06,0,0,0-1.7,2.8c-.4.8.3,2.2,1.4,1.8.3-.1.5-.2.8-.3-.5-.6-.9-1.2-1.4-1.8-.2.4-.5.8-.7,1.2-.5,1,.6,2.4,1.6,1.6a6.09,6.09,0,0,0,1.6-1.6c.8-1.2-.9-2.4-1.9-1.5a5.26,5.26,0,0,0-1.2,1.4c-.9,1.2.6,2.8,1.7,1.7a7,7,0,0,0,1.7-2.5c.5-1.2-.8-2.5-1.9-1.5a29.24,29.24,0,0,1-3.8,3.2c.5.6,1,1.3,1.5,1.9.8-.9,1.6-1.8,2.3-2.7s-.3-2.7-1.5-1.9a19,19,0,0,1-4.8,2.7c.4.7.8,1.3,1.2,2a42.29,42.29,0,0,1,4.1-3.3,1.21,1.21,0,0,0-1.2-2.1c-1.9,1-3.9,2-5.8,3.1l1.2,2.1,4.8-3.3a1.21,1.21,0,0,0-1.2-2.1,41.35,41.35,0,0,0-5.9,3.1c.5.6,1,1.3,1.5,1.9,1-.9,2-1.9,3-2.8s-.3-2.4-1.5-1.9c-1,.4-1.9.9-2.9,1.3.5.6,1,1.3,1.5,1.9a22.26,22.26,0,0,0,1.9-2.4c.6-1-.6-2.4-1.6-1.6-1.2.9-2.3,1.8-3.4,2.8.6.5,1.3,1,1.9,1.5.2-.3.3-.6.5-.9.7-1.3-.8-2.3-1.9-1.5-.3.3-.7.5-1,.8.7.4,1.3.8,2,1.2.4-.9.8-1.9,1.2-2.8l-2.3-.6c-.2.9-.5,1.8-.7,2.7-.4,1.5,1.7,2,2.3.6.7-1.6,2.8-7.5-.5-8.1-2.7-.5-4.5,4.6-5.2,6.4-.6,1.4,1.7,2,2.3.6-.1.3,1.7-3.8,2-3.7.7.3-.8,3.9-.9,4.2l2.3.6c.2-.9.5-1.8.7-2.7.4-1.5-1.7-2-2.3-.6-.4.9-.8,1.9-1.2,2.8-.5,1.3,1.2,1.8,2,1.2.3-.3.7-.5,1-.8-.6-.5-1.3-1-1.9-1.5-.2.3-.3.6-.5.9a1.23,1.23,0,0,0,1.9,1.5,34.67,34.67,0,0,1,2.9-2.5l-1.6-1.6a9.51,9.51,0,0,1-1.5,2c-1,1,.3,2.4,1.5,1.9,1-.4,1.9-.9,2.9-1.3-.5-.6-1-1.3-1.5-1.9-1,.9-2,1.9-3,2.8s.3,2.6,1.5,1.9a41.36,41.36,0,0,1,5.9-3.1l-1.2-2.1-4.8,3.3a1.21,1.21,0,0,0,1.2,2.1c1.9-1,3.9-2,5.8-3.1l-1.2-2.1a51.94,51.94,0,0,0-4.6,3.6,1.2,1.2,0,0,0,1.2,2,18.8,18.8,0,0,0,5.4-2.9c-.5-.6-1-1.3-1.5-1.9-.8.9-1.6,1.8-2.3,2.7s.3,2.7,1.5,1.9a47,47,0,0,0,4.3-3.5c-.6-.5-1.3-1-1.9-1.5a3.9,3.9,0,0,1-1.3,2l1.7,1.7a8.06,8.06,0,0,1,1.2-1.4c-.6-.5-1.3-1-1.9-1.5-.2.3-.5.5-.7.8l1.6,1.6c.2-.4.5-.8.7-1.2a1.26,1.26,0,0,0-1.4-1.8c-.3.1-.5.2-.8.3.5.6.9,1.2,1.4,1.8a26.06,26.06,0,0,1,1.7-2.8c-.7-.3-1.5-.6-2.2-.9a8.91,8.91,0,0,1-6.9,5.8c.4.7.8,1.3,1.2,2,.3-.2.5-.5.8-.7a1.3,1.3,0,0,0-.2-1.9,12.81,12.81,0,0,0-3.3-1.1c-.6-.1-3.9-.5-3.9-.7l-2.1-1.2c-.5.7-.9,1.5-1.4,2.2-.7,1.2.9,2.3,1.9,1.5l2.7-2.4c-.7-.4-1.3-.8-2-1.2a8.67,8.67,0,0,1-1.4,2.7c-.8,1.2.9,2.4,1.9,1.5a9.24,9.24,0,0,1,2.2-1.7c-.6-.3-1.2-.7-1.8-1-.1,1.4-1.9,2.9-.8,4.3s4.1.6,5.5.6c1.6,0,1.5-2.2,0-2.4a41.14,41.14,0,0,1-7-1.3,9.51,9.51,0,0,0-2.4-.7c.3.7.6,1.4.8,2l4.8-4.2-1.7-1.7c-.6.3-1.3.7-1.9,1,.5.6.9,1.2,1.4,1.8a11.48,11.48,0,0,1,4-3.9l-1.6-1.6a15.4,15.4,0,0,1-3.5,3.7l1.7,1.7a13.1,13.1,0,0,1,6.5-4.3c-.5-.6-.9-1.2-1.4-1.8a9.13,9.13,0,0,1-3.7,4.3l1.6,1.6a25.24,25.24,0,0,1,6.1-6.1c-.6-.3-1.2-.7-1.8-1,0,1.6-3.2,4.5-4.4,5.7s.6,2.7,1.7,1.7c2.1-1.9,4.1-3.7,6.9-4.7-.5-.6-.9-1.2-1.4-1.8a9.66,9.66,0,0,1-3.7,3.8c.5.6,1,1.3,1.5,1.9,1.2-.9,4.6-4.6,6.3-4.5-.3-.6-.7-1.2-1-1.8-.8,1.2-1.5,2.4-2.3,3.6l2.1,1.2a20.21,20.21,0,0,1,2.4-4c-.7-.3-1.4-.6-2-.8a8.78,8.78,0,0,1,.1,2.8c-.1,1.3,1.6,1.5,2.2.6l1.1-1.4c-.7-.4-1.3-.8-2-1.2-.1.3-.1.7-.2,1l2.4.3v-.5a1.23,1.23,0,0,0-2.4-.3,8.65,8.65,0,0,1-.6,2.3l2.2-.3c-.1-.5-.3-.9-.4-1.4-.2-1.3-1.9-1-2.3,0a2,2,0,0,0,.4.8c-.6-.5-1.3-1-1.9-1.5-.2.6-.5,1.2-.7,1.8l-1.6-1.6a12.37,12.37,0,0,1-3.7,3.5c-1.9.9-.7,3,.6,2.1Z" transform="translate(-24.43 -280)"/><path class="cls-1" d="M168.7,303.1c.5.1.9.3,1.4.4a14.62,14.62,0,0,1-.5-2,4.07,4.07,0,0,0-1.2,1.4c-.6.9.4,2,1.4,1.8a1.85,1.85,0,0,0,1.2-.7l-1.7-1.7c-2,2.3-4.5,1.7-7.2,2.3-.8.2-1.5.3-1.8,1.2-.9,2.6,2.8,2.4,4.2,2,7.7-2.7,2-12.4-2.2-15.9-2-1.7-5-3.1-7.3-1.2s-3.2,5.9-1.9,8.4c1.1,2.2,4.4,2,6.4,1.2,3-1.2,2.1-5.3.8-7.5-1.1-2-4-4.8-6.1-2.4-1.8,1.9-1.8,7.4,1.3,8,1.5.3,2.2-2,.6-2.3-.6-.1-.8-3-.5-3.3,1.4-1.3,2.5,1.1,2.9,2,.6,1.5.9,2.2-.6,3s-2.5.4-3-1c-.3-.9.3-3.7,1.3-4.2s2.8,0,3.8.6a11.5,11.5,0,0,1,3.7,4.2c.7,1.1,1.9,2.8,1.9,4.1,0,.7-3.5,4.8-2.5,5.5a5.66,5.66,0,0,0,2.2-.2,8.53,8.53,0,0,0,5.6-2.7c1-1.2-.7-2.9-1.7-1.7l-.1.1c.5.6.9,1.2,1.4,1.8l.9-.9a1.2,1.2,0,0,0-.5-2c-.5-.1-.9-.3-1.4-.4-1.6-.7-2.2,1.7-.8,2.1Z" transform="translate(-24.43 -280)"/><path class="cls-2" d="M170.5,283.6a6.57,6.57,0,0,1-3.4.2.62.62,0,0,0-.3,1.2,7.18,7.18,0,0,0,4.1-.2c.6-.2.3-1.4-.4-1.2Z" transform="translate(-24.43 -280)"/><path class="cls-2" d="M170.9,284.6c3.8,3.6,4.4,10.6,2.3,15.1-.3.7.7,1.3,1,.6,2.4-5,1.7-12.6-2.5-16.5-.5-.6-1.4.3-.8.8Z" transform="translate(-24.43 -280)"/><path class="cls-2" d="M173.2,299.6c-1.1,4.3-4.7,6.3-8.8,7.3-4.3,1-7.2-.1-10.9-2.1-.7-.4-1.3.7-.6,1,4.4,2.4,8.1,3.4,13.1,1.9,4-1.2,7.2-3.6,8.3-7.8a.57.57,0,0,0-1.1-.3Z" transform="translate(-24.43 -280)"/><path class="cls-2" d="M153.6,304.9c-10.8-.9-9-12.5-6.5-19.7.3-.7-.9-1-1.2-.3-2.9,8.1-4,20.3,7.6,21.3a.65.65,0,0,0,.1-1.3Z" transform="translate(-24.43 -280)"/><path class="cls-2" d="M167,283.6a1.5,1.5,0,0,1-1-1.4.6.6,0,0,0-1.2,0,2.8,2.8,0,0,0,1.9,2.6c.7.2,1-.9.3-1.2Z" transform="translate(-24.43 -280)"/><path class="cls-2" d="M166,282.2c-.1-.5-.2-1.1-.3-1.6a.65.65,0,0,0-.6-.6c-5.7,0-11.6,1-17.4,1.5-.8.1-.8,1.3,0,1.2,3.5-.3,6.9-.6,10.4-1,2.2-.2,5.8-1.6,6.7.8.3.7,1.4.4,1.2-.3Z" transform="translate(-24.43 -280)"/><path class="cls-2" d="M147.1,281.9a10.64,10.64,0,0,1-.9,3.5c-.3.7.7,1.3,1,.6a13.79,13.79,0,0,0,1.1-4.1.6.6,0,0,0-1.2,0Z" transform="translate(-24.43 -280)"/></svg>