<svg id="Layer_1" data-name="Layer 1" xmlns="http://www.w3.org/2000/svg" viewBox="0 0 90.3 47.76"><defs><style>.cls-1{fill:#fbff05;}</style></defs><title>Rain</title><path class="cls-1" d="M63,566.9a1.38,1.38,0,0,0-.4-.3l-1.8,1.8-.3-.3A16,16,0,0,0,61,566a24.26,24.26,0,0,1,2-1.4c1.3-.6.7-2.9-.8-2.8-.5,0-.9.1-1.4.1.1,1,.3,2,.4,2.9a25.84,25.84,0,0,1,12.3-2.1v-3H68c.1,1,.3,2,.4,2.9,4.9-2,16.7,3.4,14.9-5.1-1.1-5.6-1.3-11.5-1.7-17.2-.2-3.7,1.2-9.6-1-12.8l-2.1,2.1c5,2.6,11.7,1,17.2.7a23.06,23.06,0,0,1-1.4-1.9,39.4,39.4,0,0,0-2.8,12.2c-.1,1.7,2.6,2.1,2.9.4.4-2.3.7-4.6.9-7,.1-1.9-2.8-1.9-3,0-.3,2.8-.5,5.5-.8,8.3-.2,1.7,2.7,2.1,2.9.4.5-3,1.1-6,1.6-9-1-.3-1.9-.5-2.9-.8-1,6.6-2.7,13.5-2.4,20.2.1,1.6,2.5,2.1,2.9.4a45.1,45.1,0,0,0,.9-11.6h-3a23.65,23.65,0,0,1-.1,6.5c-.3,1.9,2.4,2.7,2.9.8a24,24,0,0,0,.8-8,1.5,1.5,0,0,0-3,0c-.5,6.3-1,12.6-1.5,19a30.56,30.56,0,0,1-1.7,8.5c-.6,1.4-.9,1.9-.4,3.3a1.4,1.4,0,0,0,1.8,1c2.1-.6,3.8-.6,4.3-2.9.4-2-.5-4.9-.5-7.1a47.66,47.66,0,0,1,.8-10c-1-.1-2-.3-2.9-.4,0,1.3,1.5,12.7.3,13.2-1.8.8-4.9-11.6-5.4-13.1-1.4-4.4-3.6-8-3.2-12.8.2-3,1.2-6.7-.6-9.4a1.46,1.46,0,0,0-1.3-.7h-.4a1.5,1.5,0,0,0-1.4,1.1c0,.1-.1.2-.1.3-.4.9.6,1.9,1.4,1.9l11.4.3a23.06,23.06,0,0,1-1.4-1.9c-2.5,10.2-3.4,20.6-4.1,31.1h3c-.7-5.6-1.9-11.5-1.8-17.2a25.42,25.42,0,0,1,1.6-8.2c1-2.8,2.7-3.9,4.1-6.2a1.5,1.5,0,0,0-1.7-2.2c-4.1,1.3-10.5,2.1-11.8,7.1-.8,2.8-.2,9.3,2.3,11.1a1.49,1.49,0,0,0,2.2-.9,121.84,121.84,0,0,0,3-11.9c-1-.1-2-.3-2.9-.4-.7,5.3-1.2,10.7-1.5,16.1,1-.1,2-.3,2.9-.4a59.73,59.73,0,0,1-.3-15.8c.2-1.7-2.6-2-2.9-.4A64.11,64.11,0,0,0,81.9,544c1-.1,2-.3,2.9-.4a46.31,46.31,0,0,1-1.2-9.1c-1,.1-2,.3-2.9.4A41.41,41.41,0,0,1,83.2,547c.1,1.6,2.6,2.2,2.9.4a71.3,71.3,0,0,1,2.3-9.1H85.5c.8,4.5-.8,8.9.2,13.4.4,1.8,2.8,1.2,2.9-.4.4-3.3.8-6.7,1.2-10h-3c-.1,3.9-.1,7.7-.2,11.6,0,2,2.8,1.9,3,0,.1-1.2.2-2.5.3-3.7-.7-.3-1.5-.6-2.2-.9,1.2,4.4-1.1,8.7,1.3,12.8a1.57,1.57,0,0,0,2.4.3c.3-.4.7-.7,1-1.1-.9-.4-1.7-.7-2.6-1.1a7.62,7.62,0,0,1-.9,4.2,25.11,25.11,0,0,0,2.7-.4c-.8-1.1-.5-3.5-1-4.8a14.28,14.28,0,0,0-1.5-2.7,57.78,57.78,0,0,0-5.5-8.4c-.8-1-2.1-.3-2.5.7-1.8,4.4,2,12.2,3.6,16.3l2.7-1.2a20.21,20.21,0,0,1-1.4-7.7c-1,.1-2,.3-2.9.4.6,3.1.8,6.6,1.9,9.6.3.9,1.3,2,1.5,2.7.3.4.3.4,0-.1a1.67,1.67,0,0,0-1.9-1c-3-1-6.3-.6-9.3-.5a22.63,22.63,0,0,1-12.2-2.8,25.12,25.12,0,0,1-.4,2.7,49.55,49.55,0,0,1,12.5-3,47,47,0,0,1,5.3-.2c2.9-.1,2.4.1,2.1,2.8-.2,1.9,2.8,1.9,3,0,.5-4.3.2-5.6-4.2-5.8a49.75,49.75,0,0,0-19.5,3.3c-1.1.4-1.6,2.1-.4,2.7,4,2,7.3,3.4,11.8,3.3,3-.1,5.9-.6,8.9,0,1.6.3,3.9,1.6,5.5,1.2a2.49,2.49,0,0,0,2-3c-.4-1.6-1.9-2.9-2.4-4.6-.7-2.7-1-5.5-1.5-8.2-.3-1.7-3-1.3-2.9.4a24.82,24.82,0,0,0,1.8,9.3c.7,1.5,3.4.4,2.7-1.2-1.3-3.4-5.1-11-3.6-14.7a23.35,23.35,0,0,0-2.5.7,40.69,40.69,0,0,1,5.8,9c.9,2.1.4,4.4,1.7,6.3a1.48,1.48,0,0,0,2.7-.4,12.08,12.08,0,0,0,1-5,1.56,1.56,0,0,0-2.6-1.1c-.3.4-.7.7-1,1.1l2.4.3c-2.1-3.6.1-8.2-1-12.1a1.47,1.47,0,0,0-2.2-.9c-2,1.4-1.6,4-1.8,6.3h3c.1-3.9.1-7.7.2-11.6,0-2-2.8-1.9-3,0-.4,3.3-.8,6.7-1.2,10,1-.1,2-.3,2.9-.4-1-4.5.6-8.9-.2-13.4-.3-1.6-2.5-1.3-2.9,0a71.3,71.3,0,0,0-2.3,9.1c1,.1,2,.3,2.9.4-.4-4.4-.9-8.7-2.6-12.9-.6-1.4-3-1.4-2.9.4a47.13,47.13,0,0,0,1.3,9.9c.4,1.7,2.9,1.2,2.9-.4a47.26,47.26,0,0,1,1.4-9.9c-1-.1-2-.3-2.9-.4a61.47,61.47,0,0,0,.4,16.6c.3,1.7,2.9,1.2,2.9-.4.3-5.4.8-10.7,1.5-16.1.2-1.7-2.6-2.1-2.9-.4a79.72,79.72,0,0,1-3,11.9c.7-.3,1.5-.6,2.2-.9-.6-.4-1.2-6.3-1-6.8,1.2-4,6.5-4.8,9.8-5.9-.6-.7-1.1-1.5-1.7-2.2-1.1,1.8-2.8,2.9-3.7,4.9a30.93,30.93,0,0,0-2.2,7.9c-1,6.6.8,13.8,1.6,20.4a1.5,1.5,0,0,0,3,0c.7-10.2,1.6-20.4,4-30.3a1.53,1.53,0,0,0-1.4-1.9L81,530a23.06,23.06,0,0,1,1.4,1.9c0-.1.1-.2.1-.3a17.11,17.11,0,0,0-1.4,1.1c-.4.1-.9,9.3-.9,10.3.1,2.5,1.2,4.7,2.2,7,2.3,5.3,2.6,11.8,6.3,16.5,1.3,1.7,3.9,4.4,6,2.3,1.1-1.2.8-3.3.7-4.7a111.08,111.08,0,0,1-.8-11.5c0-1.6-2.7-2.1-2.9-.4a66.24,66.24,0,0,0-.9,9.9c0,1.8.6,4,.3,5.7-.3,2.2.7,1.6-1.9,2.3.6.3,1.2.7,1.8,1-.3-.8,1.3-3,1.5-3.9.7-2.5.5-5.5.8-8.1.5-6,1-12,1.4-18h-3a19.43,19.43,0,0,1-.7,7.2c1,.3,1.9.5,2.9.8a25.54,25.54,0,0,0,.2-7.3c-.2-1.9-3-2-3,0a43.37,43.37,0,0,1-.8,10.8c1,.1,2,.3,2.9.4-.3-6.5,1.3-13,2.3-19.4.3-1.9-2.6-2.7-2.9-.8-.5,3-1.1,6-1.6,9,1,.1,2,.3,2.9.4.3-2.8.5-5.5.8-8.3h-3c-.1,2.1-.4,4.1-.7,6.2,1,.1,2,.3,2.9.4a37.22,37.22,0,0,1,2.7-11.4,1.47,1.47,0,0,0-1.4-1.9c-4.5.2-11.5,1.8-15.6-.3-1.2-.6-3,.7-2.1,2.1,1.5,2.2.5,9.5.7,12.2.3,4,.5,8,.9,12,.1,1.2.5,3,.6,4.1,1.1,1.6.8,2.2-.8,1.8H77.1c-3.2,0-7-.7-10,.5a1.48,1.48,0,0,0,.4,2.9H73c1.9,0,1.9-2.9,0-3a27.92,27.92,0,0,0-13.1,2.2c-1.4.6-1.5,3.1.4,2.9.5,0,.9-.1,1.4-.1-.3-.9-.5-1.9-.8-2.8-2,1-4.4,3-3.2,5.5a2.91,2.91,0,0,0,4.2,1.1,1.58,1.58,0,0,0,.5-2.1,1.74,1.74,0,0,0-1.5-1.1c-1-.2-2.3.7-1.8,1.8.6,1.6.8,1.8,2.5,2.4,2.5,1.1,3.3-1.8,1.4-2.4Z" transform="translate(-56.8 -525.9)"/><path class="cls-1" d="M63.7,565.5a10.07,10.07,0,0,0-3.8.9,1.62,1.62,0,0,0-.7,1.7,4.54,4.54,0,0,0,2,2.7c1.5,1.2,3.5-.7,2.1-2.1a17,17,0,0,0-2.4-2.2c-1-.8-3.1-.1-2.5,1.5,1.6,4.1,7.7,4.1,11.6,4.5a64.2,64.2,0,0,0,19.5-1.7l-1.2-2.7a4.35,4.35,0,0,0-.7-.6c-.7-.6-1.5-1.1-2.2-1.7-.5,1.3-18.3,3.4-19.5,1.9-.3.7-.6,1.5-.9,2.2,4.6-1.5,9.2-2.9,13.8-4,1.6-.4,1.3-3-.4-2.9a28.66,28.66,0,0,0-11.1,2.3,23.08,23.08,0,0,0,1.9,1.4,8.17,8.17,0,0,0,3.8-.2c-.1-1-.3-2-.4-2.9-2.2.8-4.5.3-6.7.9-1.6.4-1.3,3.1.4,2.9,2.3-.2,4.6-.4,6.9-.8,1.2-.2,2.4-.4,3.7-.6,2.3-.4,3.7.3.7-1.5.2.6.5,1.1.7,1.7-.1-.3-.3-.6-.4-.9a25.12,25.12,0,0,0,.4,2.7c1-.7,2-1.4,3-2.2.4.9.7,1.7,1.1,2.6,2.1-2.6,4.9-2.6,6.3-6.1,1.5-3.9,1.2-8.6.7-12.7-.9.3-1.9.5-2.8.8a38.19,38.19,0,0,1,3,9.4c.4,1.8,2.8,1.2,2.9-.4.5-4.8-1-9.5-1.1-14.3-.1-3.4,1.6-8.9-.2-11.9-1.6-2.9-10.3-5.5-12.9-2.9-1.6,1.6-.4,4.9-.1,6.7.5,2.7.7,6,3.2,7.7,5.6,3.9,8-4.3,9.4-8H87.9a36.42,36.42,0,0,1,2.6,10.7,1.52,1.52,0,0,0,2.8.8c2.8-4.4,2.9-9.2,2.8-14.3-.1-1.9-3.1-1.9-3,0,.1,4.5.1,8.8-2.4,12.8.9.3,1.9.5,2.8.8A37.84,37.84,0,0,0,90.8,536a1.53,1.53,0,0,0-2.9,0c-.3.9-.8,3.4-1.6,4.1-4.4,3.6-5.1-1.9-5.2-3.8-.1-2.8.2-4.5,3.8-3.1,2.7,1,3.3,2.3,3.6,4.9.4,3.5-.3,7.2,0,10.8s1.3,7.1.9,10.7c1-.1,2-.3,2.9-.4A45.9,45.9,0,0,0,89,549.1c-.6-1.3-3-.7-2.8.8.4,3.4,1,8.3-.5,11.5-1.3,2.5-3.9,3.1-5.6,5.2a1.55,1.55,0,0,0,1.1,2.6c2,0,4.3-1.4,3.1-3.7-1.4-2.7-5.7-.9-7.6.3-1,.6-1,2.6.4,2.7,2.5.3,7.8-1.4,5.5-4.9-1.8-2.8-6.3-.3-7.2,2.1a1.48,1.48,0,0,0,.7,1.7c2.4,1.5,6.1.2,7.6-2.1a1.36,1.36,0,0,0,0-1.5c-1-1.3-1.5-1.4-3.1-1.3-4.7.2-9.5,1.7-14.3,2.2.1,1,.3,2,.4,2.9,2.3-.6,4.5-.1,6.7-.9,1.5-.6,1.4-3.1-.4-2.9-2.3.2-6.8,0-6.8,3.2a1.47,1.47,0,0,0,1.9,1.4,28,28,0,0,1,10.3-2.2c-.1-1-.3-2-.4-2.9a128.5,128.5,0,0,0-13.8,4c-.8.3-1.5,1.4-.9,2.2,2.6,3.5,9.3,1.6,12.9,1.2s10.5.1,12-3.8c.5-1.3-1.1-2.2-2.2-1.7-5.9,3.1-.8,8.6,3.7,5.8a1.49,1.49,0,0,0-1.2-2.7A67.4,67.4,0,0,1,75,570a45.2,45.2,0,0,1-5.2-.2c-1.3-.1-8-.5-8.7-2.3-.8.5-1.7,1-2.5,1.5a10,10,0,0,1,2.4,2.2l2.1-2.1c-.4-.5-.8-.9-1.2-1.4-.2.6-.5,1.1-.7,1.7a15.94,15.94,0,0,1,3-.6,1.67,1.67,0,0,0-.5-3.3Z" transform="translate(-56.8 -525.9)"/><path class="cls-1" d="M80.4,570.5c1.8,2,4.1,1.1,6.4,1-.1-1-.3-2-.4-2.9-1.9.4-4.6,1.3-6.5.7s-2.6,2.3-.8,2.9c2.5.7,5.7-.1,8.1-.7,1.6-.4,1.3-3-.4-2.9-1.2.1-3.4,1-4.3-.1-1.2-1.6-3.3.5-2.1,2Z" transform="translate(-56.8 -525.9)"/><path d="M78.3,559.3c-5-1.1-11.9-1-16.7,1.1-2.6,1.1-5.8,4.9-4.5,8,1.6,3.7,8.4,4.2,11.6,4.7a56,56,0,0,0,20-.8c.8-.2.4-1.3-.3-1.2a51.18,51.18,0,0,1-24.6-.3c-2.9-.8-6.1-1.2-5-5.8.6-2.4,3.6-3.4,5.6-4.1a28.86,28.86,0,0,1,13.7-.5c.6.2.9-1,.2-1.1Z" transform="translate(-56.8 -525.9)"/><path d="M87.7,571.5c-.3,2.6,3.9,1.5,5.2,1.4,3.3-.3,2.9-.9,2.9-4.4a354,354,0,0,1,1.9-41.2c.1-.8-1.1-.8-1.2,0-.8,8.3-1.4,16.6-1.7,24.9-.1,3.8-.2,7.7-.2,11.5,0,1.5.6,4.3,0,5.8q-.75,2.85-3.3,2.4a2.11,2.11,0,0,1-2.4-.3.6.6,0,1,0-1.2-.1Z" transform="translate(-56.8 -525.9)"/><path d="M78.1,560.2c1.2.1,2.4.1,3.7.2a.6.6,0,0,0,0-1.2c-1.2-.1-2.4-.1-3.7-.2a.6.6,0,0,0,0,1.2Z" transform="translate(-56.8 -525.9)"/><path d="M81.2,559.6a188.09,188.09,0,0,1-2.5-32.7.6.6,0,0,0-1.2,0,191.53,191.53,0,0,0,2.5,33c.1.8,1.3.5,1.2-.3Z" transform="translate(-56.8 -525.9)"/><path d="M77.7,527.9c3.1-.2,6.1.3,9.2.4a77.19,77.19,0,0,0,9.6-.5c.8-.1.8-1.3,0-1.2a77.19,77.19,0,0,1-9.6.5c-3.1-.1-6.1-.7-9.2-.4-.8.1-.8,1.3,0,1.2Z" transform="translate(-56.8 -525.9)"/><path class="cls-1" d="M141.3,569.4c1.7-.5,1.9-.8,2.6-2.4.4-1.2-.8-2-1.9-1.8a1.88,1.88,0,0,0-1.6,1.1,1.58,1.58,0,0,0,.5,2.1c1.6.8,3.6.7,4.4-1.1,1.3-2.5-1.4-4.6-3.4-5.5-.3.9-.5,1.9-.8,2.8.5,0,.9.1,1.5.1,1.9.2,1.9-2.4.4-2.9a31.09,31.09,0,0,0-13.8-2.2,1.5,1.5,0,1,0,0,3H135c1.9,0,2-2.3.4-2.9-3-1.1-6.5-.6-9.6-.5H123c-1.7.4-1.9-.2-.8-1.8,0-1.3.5-2.8.6-4.1.4-3.7.6-7.3.8-11,.1-2,.3-4,.3-5.9s-.8-5.6.4-7.3c.9-1.3-.8-2.7-2.2-2.1-4.4,2.1-11.7.5-16.5.3-.9,0-1.9,1-1.5,1.9a34.68,34.68,0,0,1,2.8,11.4c1.1-.1,2.1-.3,3.1-.4a43.58,43.58,0,0,1-.7-6.2h-3.2c.3,2.8.5,5.5.8,8.3,1.1-.1,2.1-.3,3.1-.4-.5-3-1.2-6-1.7-9-.3-1.9-3.4-1.1-3.1.8,1.1,6.4,2.6,13,2.4,19.4,1.1-.1,2.1-.3,3.1-.4a39.39,39.39,0,0,1-.8-10.8c0-2-3-1.9-3.2,0a25.54,25.54,0,0,0,.2,7.3c1.1-.3,2-.5,3.1-.8a19.43,19.43,0,0,1-.7-7.2h-3.2q.6,9,1.5,18a68.2,68.2,0,0,0,.7,7.9c.2.9,1.9,3.4,1.6,4.1.6-.3,1.3-.7,1.9-1-2.5-.6-2,.3-2-2.3,0-1.9.3-3.8.3-5.7a66.25,66.25,0,0,0-.9-9.9c-.3-1.7-3.2-1.3-3.1.4,0,3.9-.5,7.6-.8,11.5-.1,1.4-.4,3.6.7,4.7,2.2,2.1,5-.6,6.3-2.3,3.9-4.7,4.2-11.1,6.6-16.5a19.9,19.9,0,0,0,2.3-7c.1-1.1-.4-10.2-.9-10.3-.5-.4-1.1-.7-1.5-1.1,0,.1.1.2.1.3.5-.6,1.1-1.3,1.5-1.9l-12,.3a1.46,1.46,0,0,0-1.5,1.9c2.6,9.9,3.5,20.1,4.2,30.3.1,2,3,1.9,3.2,0,.8-6.5,2.7-13.8,1.7-20.4a31.14,31.14,0,0,0-2.3-7.9c-.9-2-2.7-3.1-3.9-4.9-.6.7-1.2,1.5-1.8,2.2,3.2,1,9.6,1.9,10.3,5.9.2.9-.3,6.3-1.1,6.8.7.3,1.6.6,2.3.9a122.86,122.86,0,0,1-3.2-11.9c-.3-1.6-3.4-1.3-3.1.4.7,5.3,1.3,10.7,1.6,16.1.1,1.6,2.8,2.2,3.1.4a54.4,54.4,0,0,0,.4-16.6c-1.1.1-2.1.3-3.1.4a55.06,55.06,0,0,1,1.5,9.9c.1,1.6,2.7,2.1,3.1.4a47.26,47.26,0,0,0,1.4-9.9c.1-1.8-2.4-1.8-3.1-.4-1.8,4.1-2.3,8.5-2.7,12.9,1.1-.1,2.1-.3,3.1-.4a71.69,71.69,0,0,0-2.4-9.1c-.4-1.3-2.7-1.6-3.1,0-.8,4.5.8,8.9-.2,13.4,1.1.1,2.1.3,3.1.4-.4-3.3-.8-6.7-1.3-10-.2-1.9-3.2-2-3.2,0,.1,3.9.1,7.7.2,11.6h3.2c-.2-2.3.3-4.8-1.9-6.3a1.56,1.56,0,0,0-2.3.9c-1.2,3.9,1.2,8.5-1.1,12.1l2.5-.3a11.4,11.4,0,0,0-1.1-1.1,1.61,1.61,0,0,0-2.7,1.1,11,11,0,0,0,1.1,5,1.58,1.58,0,0,0,2.8.4c1.4-1.9.8-4.1,1.8-6.3a36.63,36.63,0,0,1,6.1-9,25,25,0,0,1-2.6-.7c1.6,3.6-2.4,11.3-3.8,14.7-.6,1.6,2.2,2.7,2.8,1.2a22.77,22.77,0,0,0,1.9-9.3c.1-1.7-2.7-2.1-3.1-.4-.5,2.5-.8,5.1-1.5,7.5-.5,1.9-2.1,3.4-2.5,5.1a2.51,2.51,0,0,0,2.1,3.2c1.4.3,3-.7,4.2-1,3.4-.8,6.5-.5,10-.3,5.3.3,8.9-1.1,13.5-3.3,1.4-.6.8-2.3-.4-2.7A55.65,55.65,0,0,0,120,560c-4.7.2-5,1.5-4.4,5.8.2,1.9,3.4,1.9,3.2,0-.1-1-.2-2-.3-2.9.5,0,1.1.1,1.6.1,1.7-.6,4.7,0,6.5.2a53.83,53.83,0,0,1,13.2,3,25.13,25.13,0,0,0-.4-2.7c-4.3,2-8,3.1-12.9,2.8-3.2-.2-6.8-.6-9.8.5-.5.2-1.2.4-1.7.6-.6.9-.7,1.1-.2.5-.1-.3,1.5-2.4,1.6-2.7,1.2-3,1.4-6.5,2-9.6-1.1-.1-2.1-.3-3.1-.4a18.56,18.56,0,0,1-1.5,7.7c.9.4,1.9.8,2.8,1.2,1.7-4,5.7-11.9,3.8-16.3-.4-.9-1.8-1.6-2.6-.7a54.5,54.5,0,0,0-5.8,8.4,24,24,0,0,0-1.6,2.7c-.5,1.4-.2,3.7-1.1,4.8a27,27,0,0,1,2.8.4,6.84,6.84,0,0,1-.9-4.2c-.9.4-1.8.7-2.7,1.1a11.4,11.4,0,0,0,1.1,1.1,1.68,1.68,0,0,0,2.5-.3c2.5-4.2.1-8.4,1.4-12.8-.7.3-1.6.6-2.3.9.1,1.2.2,2.5.3,3.7.2,1.9,3.2,2,3.2,0-.1-3.9-.1-7.7-.2-11.6h-3.2c.4,3.3.8,6.7,1.3,10,.2,1.5,2.7,2.2,3.1.4,1.1-4.5-.6-8.9.2-13.4h-3.1a58.1,58.1,0,0,1,2.4,9.1c.3,1.8,3,1.2,3.1-.4.4-4.2.9-8.2,2.6-12.1-1.1-.1-2.1-.3-3.1-.4a40,40,0,0,1-1.3,9.1c1.1.1,2.1.3,3.1.4a49.46,49.46,0,0,0-1.6-10.7c-.4-1.6-3.3-1.3-3.1.4a59.73,59.73,0,0,1-.3,15.8c1.1.1,2.1.3,3.1.4-.3-5.4-.8-10.7-1.6-16.1-1.1.1-2.1.3-3.1.4a69.67,69.67,0,0,0,3.2,11.9,1.58,1.58,0,0,0,2.3.9c2.7-1.8,3.3-8.2,2.4-11.1-1.4-4.9-8.2-5.8-12.4-7.1a1.53,1.53,0,0,0-1.8,2.2c1.3,2,3.2,3.3,4.1,5.5a22.94,22.94,0,0,1,1.9,8.9c.1,5.7-1.3,11.6-1.9,17.2H114c-.7-10.5-1.7-20.9-4.3-31.1-.5.6-1.1,1.3-1.5,1.9l12-.3c.9,0,1.9-1,1.5-1.9,0-.1-.1-.2-.1-.3a1.63,1.63,0,0,0-1.5-1.1h-.4a1.62,1.62,0,0,0-1.4.7c-1.9,2.7-.8,6.4-.6,9.4.4,4.8-1.9,8.4-3.4,12.8-.5,1.5-3.8,13.9-5.7,13.1-1.2-.5.4-11.9.3-13.2-1.1.1-2.1.3-3.1.4a55,55,0,0,1,.8,9.1c0,2.4-1.1,5.8-.5,8s2.3,2.3,4.5,2.9a1.63,1.63,0,0,0,1.9-1c.5-1.3.3-1.6-.1-2.9s-1.4-2.6-1.7-4.2a37.25,37.25,0,0,1-.4-4.7c-.5-6.3-1.1-12.6-1.6-19a1.61,1.61,0,0,0-3.2,0,24,24,0,0,0,.8,8c.5,1.9,3.4,1.1,3.1-.8a20.26,20.26,0,0,1-.1-6.5h-3.2a45.1,45.1,0,0,0,.9,11.6c.4,1.7,3.1,1.3,3.1-.4.3-6.7-1.5-13.6-2.5-20.2-1.1.3-2,.5-3.1.8.5,3,1.2,6,1.7,9,.3,1.6,3.3,1.3,3.1-.4-.3-2.8-.5-5.5-.8-8.3-.2-1.9-3.3-1.9-3.2,0a53.56,53.56,0,0,0,.9,7c.3,1.6,3.3,1.3,3.1-.4a40.4,40.4,0,0,0-3-12.2c-.5.6-1.1,1.3-1.5,1.9,5.7.3,12.9,1.8,18.1-.7-.7-.7-1.5-1.4-2.2-2.1-2.1,2.9-.8,8.3-1.1,11.8-.3,6-.5,12.3-1.8,18.2-1.8,8.6,10.5,3.1,15.7,5.1.1-1,.3-2,.4-2.9h-5.8v3a28.74,28.74,0,0,1,13,2.1c.1-1,.3-2,.4-2.9-.5,0-.9-.1-1.5-.1a1.49,1.49,0,0,0-.8,2.8c.7.5,1.4,1,2.1,1.4a16,16,0,0,1,.5,2.1l-.3.3c-.6-.6-1.3-1.2-1.9-1.8a1.38,1.38,0,0,1-.4.3c-.6.2.3,3.1,2.1,2.5Z" transform="translate(-56.8 -525.9)"/><path class="cls-1" d="M139,567.9a18,18,0,0,1,3.2.6c-.2-.6-.5-1.1-.7-1.7a16.6,16.6,0,0,1-1.3,1.4c.7.7,1.5,1.4,2.2,2.1a17.88,17.88,0,0,1,2.5-2.2c-.8-.5-1.8-1-2.6-1.5-1.3,2.9-11.8,2.5-14.7,2.4a83.48,83.48,0,0,1-14.2-1.7c-1.7-.3-2.8,1.8-1.3,2.7,4.7,2.7,10.1-2.7,3.9-5.8-1.1-.5-2.8.4-2.3,1.7,1.6,3.9,9,3.4,12.7,3.8s10.9,2.3,13.6-1.2c.6-.8-.1-1.9-.9-2.2-4.9-1.5-9.7-2.9-14.6-4-.1,1-.3,2-.4,2.9a31.15,31.15,0,0,1,10.9,2.2c.9.4,2-.6,2-1.4,0-3.2-4.7-3-7.2-3.2-1.9-.1-2,2.4-.4,2.9,2.3.9,4.6.3,7.1.9.1-1,.3-2,.4-2.9-5-.4-10.1-2.1-15.1-2.2-1.6,0-2.2,0-3.3,1.3a1.36,1.36,0,0,0,0,1.5c1.6,2.3,5.5,3.5,8,2.1a1.62,1.62,0,0,0,.7-1.7c-.8-2.4-5.7-4.9-7.6-2.1-2.4,3.5,3.2,5.2,5.8,4.9a1.46,1.46,0,0,0,.4-2.7c-2-1.1-6.5-3-8-.3-1.2,2.3,1.2,3.7,3.3,3.7a1.58,1.58,0,0,0,1.2-2.6c-1.8-2.1-4.6-2.5-5.9-5.2-1.5-3.4-1.1-7.9-.5-11.5.2-1.5-2.2-2-3-.8-1.8,3.2-2.6,6.5-3.5,10.1,1.1.1,2.1.3,3.1.4-.4-3.7.5-7.1.9-10.7s-.2-7.2,0-10.8c.2-2.6.8-4,3.8-4.9,3.4-1.2,4,.2,4,3.1,0,2.5-.3,3.1-3.1,3.5-1.9,1-2.8.7-3.1-1-.3-.9-.7-1.8-1.1-2.7a1.67,1.67,0,0,0-3.1,0,38.72,38.72,0,0,0-2.8,11.5c.9-.3,2-.5,3-.8-2.6-4-2.6-8.3-2.5-12.8.1-1.9-3.1-1.9-3.2,0-.2,5.1,0,9.9,3,14.3a1.66,1.66,0,0,0,3-.8,35.82,35.82,0,0,1,2.7-10.7h-3.1c1.5,3.7,4,11.9,9.9,8,2.6-1.7,2.8-5,3.4-7.7.3-1.8,1.6-5.1-.1-6.7-2.7-2.6-11.9.1-13.6,2.9-1.8,3-.1,8.6-.2,11.9-.1,4.8-1.7,9.5-1.2,14.3.2,1.6,2.7,2.2,3.1.4a36,36,0,0,1,3.2-9.4c-.9-.3-2-.5-3-.8-.5,4.1-.8,8.8.7,12.7,1.4,3.5,4.3,3.5,6.6,6.1.4-.9.7-1.7,1.2-2.6,1.1.7,2.1,1.4,3.2,2.2a25.12,25.12,0,0,1,.4-2.7c-.1.3-.3.6-.4.9.2-.6.5-1.1.7-1.7-2.1,1.2-2.4.5-.2,1.3a41.66,41.66,0,0,0,4.9.8c2.4.3,4.9.6,7.3.8,1.8.2,2.1-2.5.4-2.9-2.3-.6-4.7-.1-7.1-.9-.1,1-.3,2-.4,2.9a10.8,10.8,0,0,0,4,.2,24.26,24.26,0,0,1,2-1.4,33.37,33.37,0,0,0-11.7-2.3c-1.8,0-2.2,2.6-.4,2.9a142.86,142.86,0,0,1,14.6,4c-.3-.7-.6-1.5-.9-2.2-1.3,1.6-20-.6-20.6-1.9-.7.6-1.6,1.1-2.3,1.7a4.35,4.35,0,0,1-.7.6c-.4.9-.8,1.8-1.3,2.7a74.92,74.92,0,0,0,20.6,1.7c4.1-.3,10.4-.4,12.2-4.5.6-1.6-1.6-2.2-2.6-1.5a10.41,10.41,0,0,0-2.5,2.2c-1.5,1.4.7,3.3,2.2,2.1a4.7,4.7,0,0,0,2.1-2.7,1.62,1.62,0,0,0-.7-1.7,10.64,10.64,0,0,0-4-.9c-1.8.1-2.7,3-.7,3.3Z" transform="translate(-56.8 -525.9)"/><path class="cls-1" d="M119.9,567.9c-.9,1.1-3.3.1-4.5.1a1.47,1.47,0,0,0-.4,2.9c2.6.6,6,1.4,8.5.7a1.5,1.5,0,1,0-.8-2.9c-2,.6-4.9-.3-6.9-.7-.1,1-.3,2-.4,2.9,2.4.1,4.9,1.1,6.8-1,1.3-1.3-.9-3.5-2.3-2Z" transform="translate(-56.8 -525.9)"/><path d="M124.8,560a29.74,29.74,0,0,1,14.5.5c2,.6,5.2,2,5.9,4.1,1.6,4.4-2.5,5.1-5.3,5.8-8.4,2.3-17.5,2-26,.3a.62.62,0,1,0-.3,1.2,61.74,61.74,0,0,0,21,.8c3.3-.5,10.8-1,12.2-4.7,1.3-3-1.9-6.8-4.6-7.9-5.1-2.1-12.4-2.2-17.7-1.1-.8,0-.5,1.1.3,1Z" transform="translate(-56.8 -525.9)"/><path d="M113.3,571.1a2.27,2.27,0,0,1-2.5.3,1.94,1.94,0,0,1-2.6-1.3c-1.5-1.7-.8-3.9-.8-5.9,0-4.2-.1-8.3-.2-12.5q-.45-12.45-1.8-24.9c-.1-.8-1.4-.8-1.3,0a354.11,354.11,0,0,1,2,41.2c0,3.5-.5,4.1,3.1,4.4,1.5.1,5.8,1.2,5.5-1.4-.3-.7-1.5-.7-1.4.1Z" transform="translate(-56.8 -525.9)"/><path d="M124.7,558.6c-1.3.1-2.5.1-3.9.2a.6.6,0,0,0,0,1.2c1.3-.1,2.5-.1,3.9-.2.8-.1.8-1.3,0-1.2Z" transform="translate(-56.8 -525.9)"/><path d="M122.7,559.5a173.56,173.56,0,0,0,2.6-33,.65.65,0,0,0-1.3,0,179.57,179.57,0,0,1-2.6,32.7c-.1.7,1.1,1,1.3.3Z" transform="translate(-56.8 -525.9)"/><path d="M125.1,526.3c-3.3-.2-6.4.3-9.7.4a84.36,84.36,0,0,1-10.1-.5c-.8-.1-.8,1.1,0,1.2a86.47,86.47,0,0,0,10.1.5c3.3-.1,6.4-.7,9.7-.4.7.1.7-1.1,0-1.2Z" transform="translate(-56.8 -525.9)"/></svg>