<svg id="Layer_1" data-name="Layer 1" xmlns="http://www.w3.org/2000/svg" viewBox="0 0 110.12 163.84"><defs><style>.cls-1{fill:#eeee93;}</style></defs><title>T-ShirtU</title><path class="cls-1" d="M93.9,152.2h-.1c.5.1,1.1.1,1.6.2a.37.37,0,0,1-.3-.1c.5.2,1,.4,1.4.6l-.1-.1,1.2.9-.1-.1.9,1.2a.31.31,0,0,1-.1-.2c.2.5.4,1,.6,1.4v-.1c.1.5.1,1.1.2,1.6v-.3c-.1.5-.1,1.1-.2,1.6v-.1c-.2.5-.4,1-.6,1.4a.1.1,0,0,1,.1-.1l-.9,1.2.2-.2-1.2.9a.31.31,0,0,1,.2-.1c-.5.2-1,.4-1.4.6.1,0,.2-.1.3-.1-.5.1-1.1.1-1.6.2h.3c-.5-.1-1.1-.1-1.6-.2a.37.37,0,0,1,.3.1c-.5-.2-1-.4-1.4-.6.1,0,.2.1.3.2l-1.2-.9c.1.1.2.1.2.2l-.9-1.2c.1.1.1.2.2.3-.2-.5-.4-1-.6-1.4.1.2.1.4.2.6-.1-.5-.1-1.1-.2-1.6v.3c.1-.5.1-1.1.2-1.6,0,.2-.1.3-.1.4.2-.5.4-1,.6-1.4-.1.1-.1.3-.2.4l.9-1.2-.3.3,1.2-.9a.31.31,0,0,1-.2.1c.5-.2,1-.4,1.4-.6H93c.5-.1,1.1-.1,1.6-.2h-.3c.5.1,1.1.1,1.6.2-.1,0-.2,0-.2-.1.5.2,1,.4,1.4.6a.1.1,0,0,1-.1-.1l1.2.9-.2-.2.9,1.2c-.1-.1-.1-.1-.1-.2.2.5.4,1,.6,1.4,0-.1-.1-.2-.1-.3.1.5.1,1.1.2,1.6v-.3c-.1.5-.1,1.1-.2,1.6a.37.37,0,0,1,.1-.3c-.2.5-.4,1-.6,1.4a.35.35,0,0,1,.1-.2L98,162l.1-.1-1.2.9c.1-.1.1-.1.2-.1-.5.2-1,.4-1.4.6.1,0,.2-.1.3-.1-.5.1-1.1.1-1.6.2h.3c-.5-.1-1.1-.1-1.6-.2a.37.37,0,0,1,.3.1c-.5-.2-1-.4-1.4-.6a.35.35,0,0,1,.2.1l-1.2-.9.2.2-.9-1.2a.1.1,0,0,0,.1.1c-.2-.5-.4-1-.6-1.4,0,.1.1.2.1.3-.1-.5-.1-1.1-.2-1.6v.3c.1-.5.1-1.1.2-1.6a.37.37,0,0,1-.1.3c.2-.5.4-1,.6-1.4a.35.35,0,0,1-.1.2l.9-1.2-.2.2,1.2-.9a.37.37,0,0,1-.3.1c-1.3.5-2.4,2.3-2.8,3.6a6.19,6.19,0,0,0,.6,4.6,6.29,6.29,0,0,0,3.6,2.8c.5.1,1.1.1,1.6.2a6.11,6.11,0,0,0,3-.8,5.27,5.27,0,0,0,1.5-1.1,8.78,8.78,0,0,0,1.2-1.5,7.81,7.81,0,0,0,1-3.6,6.87,6.87,0,0,0-12.3-4.2,6.52,6.52,0,0,0-1.4,3.3,7.55,7.55,0,0,0,.8,4.4,7.2,7.2,0,0,0,2.6,2.6,6.73,6.73,0,0,0,4.4.8,7.47,7.47,0,0,0,5.9-5.2,8.1,8.1,0,0,0-.7-6.1,7.35,7.35,0,0,0-6.3-3.6,7,7,0,0,0-4.8,2,6.73,6.73,0,0,0-2,4.8,7.18,7.18,0,0,0,2,4.8,6.57,6.57,0,0,0,2.9,1.7,6.93,6.93,0,0,0,2,.3,4.56,4.56,0,0,0,2.3-.5,4.74,4.74,0,0,0,1.9-1.2,6.44,6.44,0,0,0,1.8-4.2,5.81,5.81,0,0,0-1.8-4.2c-1.8-1-3.4-2-5-1.8Z" transform="translate(-44.49 -104.4)"/><path class="cls-1" d="M95.3,146.8c1.1,1.8,1.9,2.1,2.4.8a11.51,11.51,0,0,1,1.4-1.7c-1.4-.6-2.7-1.3-4.1-1.9a19.27,19.27,0,0,1-.1,2.4c-.1,1-1.2,3-1,3.9,3.5,3.3,5.6,3.7,6.2,1.3a6.63,6.63,0,0,1,.9-1.9c1.4-2.5,4-3.2,5.5-5.2,1.6-.6,1-1.4-2-2.5.1.5.2.9.3,1.4a22.65,22.65,0,0,1-1.1,4.3c-.5,1.2-1.7,2.2-2.1,3.4-.8,2.3,3.2,4.4,5,2.6.6-.6,1.1-2.7,1.7-3.5a19.88,19.88,0,0,1,2.9-2.9c.8-.7,2.3-1.2,2.9-2,1.5-.6.9-1.5-1.7-2.6V144c-1,3.3,0,6.7-2.3,9.8,1.7-1,3.5-2,5.2-3a3.4,3.4,0,0,0-1,.1l4.2,1.8c.5,1.8.9,2,1.1.7a14.27,14.27,0,0,1,.8-2.2c.2-.5,2.5-4.4.8-2.5-2,.1-1.4.4,1.9.9,2,1.6,3,1.5,3.2-.2a5.55,5.55,0,0,1,.6-.8c-3.1-.4-3.6-1.5-1.5-3.2l4.6-.6c-.3-.1-.6-.1-.9-.2,1.2.9,2.4,1.8,3.6,2.8-.5,1.8-.9,3.5-1.4,5.3l-4.6.6c-.6-1.5-1.2-3-1.8-4.4,3.3,1.9,6.7,3.9,10,5.8.2-.4.3-.8.5-1.3-.9,1.2-1.8,2.4-2.8,3.6.4-.2.8-.5,1.2-.7-2.9-1.2-5.9-2.4-8.8-3.6.2,1,.5,1.9.7,2.9,1.4,5.5,10.5,5.9,11.6,0,0-.2.1-.4.1-.6l-4.2,4.2c.2,0,.5-.1.7-.1l-5.8-1.5c-.3-.5-.6-.9-.9-1.4.9,3.6,5.6,5.7,8.8,3.6,2.3-1.5,4.5-3,6.8-4.5,1-.7,2-1.3,3-2,.8-.5,2.2-1.2,2.1-1.2l-4.2-10.2c-.3.2-.5.4-.8.6-6.9,3.7-.8,13.5,6.1,10.4.6-.3,1.2-.5,1.8-.8,3-1.4,3.6-5.6,2.2-8.2a118.6,118.6,0,0,1-6.1-13c-3.7,1.5-7.3,3.1-11,4.6a67.09,67.09,0,0,0,4.8,9.2c3.1,5,11.2,3.1,11.2-3a53.71,53.71,0,0,0-.9-8.9c-3.9,1.1-7.7,2.1-11.6,3.2.6,2,1.2,4,1.8,6.1,1.8,6.2,12.5,5.4,11.8-1.6a18.73,18.73,0,0,0-.9-4.6c-3.9,1.1-7.7,2.1-11.6,3.2.4,1.3.9,2.6,1.3,3.9,2.4,7.3,13.6,4.3,11.6-3.2a78.32,78.32,0,0,0-4.1-11.8c-2.9-6.9-14-4.4-11.6,3.2.5,1.5,1,3,1.5,4.6,2.4,7.3,13.6,4.3,11.6-3.2l-2.1-7.8c-3.9,1.1-7.7,2.1-11.6,3.2.6,1.6,1.1,3.2,1.7,4.8,2.5,7.3,13.3,4.4,11.6-3.2-.6-2.4-1.1-4.9-1.7-7.3-3.9,1.1-7.7,2.1-11.6,3.2.9,2.6,1.7,5.2,2.6,7.8,2.5,7.3,13.3,4.4,11.6-3.2a77.51,77.51,0,0,0-6-16.7c-3.5-7-13.4-.9-10.4,6.1l4.2,9.6c2.5,5.7,11.2,2.5,11.2-3a21.59,21.59,0,0,0-2.1-9c-3.2-7-13.6-.9-10.4,6.1a4.86,4.86,0,0,1,.5,2.9l11.2-3-4.2-9.6c-3.5,2-6.9,4-10.4,6.1a61,61,0,0,1,4.8,13.8c3.9-1.1,7.7-2.1,11.6-3.2-.9-2.6-1.7-5.2-2.6-7.8-2.5-7.3-13.3-4.4-11.6,3.2.6,2.4,1.1,4.9,1.7,7.3,3.9-1.1,7.7-2.1,11.6-3.2-.6-1.6-1.1-3.2-1.7-4.8-2.5-7.2-13.6-4.4-11.6,3.2l2.1,7.8c3.9-1.1,7.7-2.1,11.6-3.2-.5-1.5-1-3-1.5-4.6-3.9,1.1-7.7,2.1-11.6,3.2a103.07,103.07,0,0,1,4.1,11.8c3.9-1.1,7.7-2.1,11.6-3.2-.4-1.3-.9-2.6-1.3-3.9-2.4-7.3-14-4.2-11.6,3.2.1.5.3.9.4,1.4,3.9-.5,7.9-1.1,11.8-1.6-.6-2-1.2-4-1.8-6.1-2.2-7.5-13-4.3-11.6,3.2a27.46,27.46,0,0,1,.5,5.7l11.2-3a72.84,72.84,0,0,1-4.8-9.2c-2.6-6.2-13.4-1.7-11,4.6a141.92,141.92,0,0,0,7.3,15.9c.7-2.7,1.4-5.5,2.2-8.2-.6.3-1.2.5-1.8.8,2,3.5,4,6.9,6.1,10.4a11.09,11.09,0,0,0,3.2-2.5c3.7-4.2.9-9.6-4.2-10.2-6.1-.8-13.1,6.1-17.9,9.3,2.9,1.2,5.9,2.4,8.8,3.6a8.44,8.44,0,0,0-2.2-3.9c-1.4-1.7-3.8-1.9-5.8-1.5-.2,0-.5.1-.7.1a5.78,5.78,0,0,0-4.2,4.2c0,.2-.1.4-.1.6h11.6c-.2-1-.5-1.9-.7-2.9a6.05,6.05,0,0,0-8.8-3.6,9.25,9.25,0,0,0-4.4,5.5c-2.3,5.8,6.1,9.8,10,5.8,2.8-2.8,4.4-6.5,2.9-10.4s-6.1-6.6-10.3-4.9c-8.4,3.2-5,16.6,4.1,14.4,8.5-2.1,7.5-14.2,1.5-18.4-7-4.8-15.5,2.3-17.1,9.3-1.8,7.8,5.3,17.8,13.4,11.3,6.2-5.1,6.1-16.8-1.3-20.7-8.8-4.7-16.4,4.9-18.5,12.5-1,3.7-1.3,7.7,1.6,10.6a7.08,7.08,0,0,0,10.8-.9c4.1-5.7,6.3-18.7,1.4-24.5-6.1-7.2-16.4.3-21.3,5.3-4.7,4.9-9.3,14.5-3.6,20.4,7.1,7.3,14.9-2.7,17.7-8.8,2.9-6.3,3.7-18.2-5.2-20.1-7.9-1.7-16.3,6.3-19.6,12.7-1.7,3.5-3,7.6-1.6,11.4a8.43,8.43,0,0,0,9.5,5.5c8-1.8,11-15.2,8.5-22-4-11.1-16.8-4-20,3.7-3.7,8.7,6.2,19.3,14.1,11.6,6.8-6.7.5-18.6-8.9-16.8s-11.2,15-2.3,18.9c6.8,2.6,12.9-7.8,5.9-10.9Z" transform="translate(-44.49 -104.4)"/><path class="cls-1" d="M122.4,141.1a8.08,8.08,0,0,1,0-3.1,23,23,0,0,1,1.2-2.3c-.8-.4-1.6-.8-2.3-1.2a4.1,4.1,0,0,0,.1,1.1c-.2.5.1,2.4-.4,2.8l4.2-1.8a2.77,2.77,0,0,1-.9-.1l4.2,1.8c-1.6-1.3.1-3.5.3-5a3.92,3.92,0,0,1,.8-1c-2.4-2.2-3.3-2.5-2.9-.8a7.39,7.39,0,0,1,0,2.1c-1.1,2.9.2,2.5,4.1-1,1.2.9,2.4,1.8,3.6,2.8.2,1.1.3.9.2-.4a3.09,3.09,0,0,1,1.1-2c1.2-.5.5-.9-2.1-1.5-.1,2.7,1.6,4.5,5.2,5.5l-4.6.6c.3,0,.6.1.9.1-1.2-.9-2.4-1.8-3.6-2.8-.1-1.9-.3-2.3-.7-1.2a4.25,4.25,0,0,1-1,1.7c3.5,2,6.9,4,10.4,6.1-.6.5-1.3,1-1.9,1.5l-4.6-.6c.2.1.4.3.6.4-1-1.7-2-3.5-3-5.2.2.7.6.3,1.2-1,2.7.7,5.5,1.4,8.2,2.2.1,1.1.1,2.3.2,3.4-3.7-1.5-7.3-3.1-11-4.6a3.55,3.55,0,0,1-.4.9c-1.2,3,1.3,6.6,4.2,7.4,3.4,1,6.2-1.2,7.4-4.2a3.55,3.55,0,0,1,.4-.9c2.6-6.4-7.6-10.3-11-4.6-1.8,3-1.6,5.6-.2,8.7,1.3,2.8,5.8,3.9,8.2,2.2,3.8-2.6,6.7-8.7,3.5-13-3.5-4.5-9.4-2.9-12.1,1.4-4.2,6.5,6,12.3,10.4,6.1,2.2-3.1,3.8-7.5,2.3-11.2a7,7,0,0,0-10.2-3.4c-8.3,4.9-2.2,17.8,6.9,15.1,8.3-2.5,8.2-15.5,1.5-19.7-7.4-4.6-15.9,2.3-17.7,9.6-.8,3.4-.7,8.2,1.9,10.9,3.1,3.1,8.3,2.4,11-.8,4.8-5.8,4-19.1-4.3-21.3-8.5-2.3-15.2,7.3-15.7,14.7-.4,6.8,5.6,18.1,13.4,11.6,6.1-5.1,5.4-19.3-2.1-22.7-10-4.5-17.9,8.4-16.8,16.9.4,3.2,2.5,6,6,6,2.8-.2,6.3-3,5.9-6.2Z" transform="translate(-44.49 -104.4)"/><path class="cls-1" d="M72,139.7a11.55,11.55,0,0,1-3.3-2.1c-.5-.6-.9-2.2-1.3-2.4-.2-1.2-.9-.8-2.2,1.1q-3.45.9-1.2,2.7c.2.5.4.9.6,1.4.1,1.8.2,1.9.5.2,1.2-.9,2.4-1.8,3.6-2.8,1.9,1.8,2.7,2.1,2.6,1v-1c.7-.9.2-2.5,1.6-3.1,1.9-.8,3,3.7,3.3,5.2.3,1.2,0,2.7.4,3.8.9,2.7,6.1-.7,4.2-3.2.1-1.2-.3-1.5-1.1-.9-1.2.1-1.2.5,0,1.3a15,15,0,0,0,1.6,3.6c.1,1.2.8,1.3,2.2.2,1.6.1,2.4-.6,2.5-2.1a21.72,21.72,0,0,0,2-2.9c1-.7.5-1-1.4-1,.1.3.2.5.3.8-.1,1.3.7,1.4,2.4.4,1.9.5,2.7.2,2.2-1a1.7,1.7,0,0,1,.1-.7c-2.3,2.2-2.3,2,.2-.5,4.7-4.9.3-1.3.9-3.3.2-.7,2.5-4.3,3.6-4.2l-4.2-1.8c1.7-1.6,2.7-1.5,3.1.3.2,1.3.9,1.7,2,1.2,2.1,1,5.2,2,7.3.7a2.77,2.77,0,0,1,1.3-.3q2.85.15-.6-4.2c-.6,0-2.1,2-2.8,2.3h6.1a5.74,5.74,0,0,1-.7-.4c.9,1.2,1.8,2.4,2.8,3.6,1.9,2.3.7.7-3.5-4.9l-1.8.9c-7,3.2-.9,13.6,6.1,10.4,5.1-2.4,8.9-7.5,6.2-13.2-3.2-6.8-11.8-4.8-15.9-.1-3.5,4-4.8,11.3.8,14.1,5.4,2.7,11.4-3,13.7-7.6,2.8-5.7-.8-11.2-6.6-12.6s-13.6,1.1-16.7,6.6a8.69,8.69,0,0,0,4.5,12.6,9.18,9.18,0,0,0,12.1-8.8c0-13.4-21.4-14.8-25.3-3-4.5,13.5,17.3,18.3,20.1,4.2,1.1-5.5-2-11.5-7.8-12.1-6.5-.8-13,6.1-14.5,12.1-3.5,12.6,14,21.3,21,9.8,7.2-11.9-10.2-23.4-18.9-12.6a13.07,13.07,0,0,0-.5,15.2c3.4,5.1,11,6.8,15.4,2.1,10-10.7-12-25.8-18.5-11.6a13.92,13.92,0,0,0,2,14.5c4.7,5.2,12.8,3.2,15.3-3.1a13.32,13.32,0,0,0-3.6-14.8c-4.8-4-11.3-2.4-15.4,1.9s-6.7,10.8-5,16.5A10.49,10.49,0,0,0,88,154.9c11.3-5.2,3.2-25-6.7-27.1-14.1-3-16.2,17.4-6.5,23.8,6.2,4.2,13.3-.2,13.7-7.3.4-6.7-2-14.8-7.1-19.3-11.8-10.5-27.5,7.8-20.5,19.9,3.5,6,13.4,7,15.6-.7,1.7-5.9-2-13.7-7.1-16.8-6.1-3.7-14.2-.4-14.2,7.3,0,6.6,4.9,12.7,10.7,15.3,7,3.2,13.1-7.1,6.1-10.3Z" transform="translate(-44.49 -104.4)"/><path class="cls-1" d="M116,130c-1-.4-1.9-.8-2.9-1.2l-1.8-4.2,1.5,2.1c-1.2-.9-2.4-1.8-3.6-2.8,4.5-2.9,5.5-4.9,2.8-5.9a21.4,21.4,0,0,0-2.2-1,22.59,22.59,0,0,0-3.7-1.1,41.33,41.33,0,0,0-8.6-.4c.5,3.9,1.1,7.9,1.6,11.8,5.9-1,11.9-1.9,17.8-2.9-1.1-3.9-2.1-7.7-3.2-11.6a32.58,32.58,0,0,1-4.5.9c1,3.7,2,7.5,3,11.2,5-2.8,10.1-5.6,15.1-8.4,4.1-2.3,3.7-8,0-10.4a6.82,6.82,0,0,0-4.6-1.2c-3.5.4-7.3,3.6-5.8,7.6.8,2.2,3.1,5.9,2.9,8.2l1.8-4.2a4.35,4.35,0,0,1-.7.6l5.8-1.5a2.92,2.92,0,0,0-.9-.2c1.2.9,2.4,1.8,3.6,2.8-.8,3.5-.6,4.4.7,2.5l-4.6-.6c-.7-.1-1.4-.3-2.1-.4,3.3-.9,6.7-1.8,10-2.6a5.72,5.72,0,0,0-.7-.8l1.8,4.2c-2.5.3-5,.7-7.4,1-.4,5.7,6.6,7.2,10.2,4.2a8.71,8.71,0,0,0,2.1-10.4c-2.1-4.4-6.4-4.9-10-7.4-1,3.7-2,7.5-3,11.2l4.6.3c6.3.4,7.7-8.1,3-11.2a14.36,14.36,0,0,0-7.5-2.3v12c2.9.1,5.4.3,7.9,1.9,1.5-3.7,3.1-7.3,4.6-11-4.6-1-10.9-3.8-15.6-2.2-7.2,2.5-4.1,14.1,3.2,11.6,1.6-.6,7.5,1.8,9.2,2.2a6,6,0,0,0,4.6-11c-4.2-2.8-9-3.3-13.9-3.5-7.7-.3-7.7,11.6,0,12a6.11,6.11,0,0,1,1.4.7c1-3.7,2-7.5,3-11.2l-4.6-.3c-6.4-.4-7.5,8.1-3,11.2a21.12,21.12,0,0,0,3.3,1.8c.5.2.9.4,1.4.6,1.6.9,1.8-.2.8-3.4l10.2,4.2c.4-5.8-4.7-11.1-10.8-9.6-6.5,1.7-7.2,9.2-3.3,13.6,3.3,3.8,8.5,1.2,10-2.6,2.1-5.2.6-13.8-6.5-13.9-5.3-.1-10.6,5.9-10.7,11-.1,6,6.9,9.8,11.6,5.8,5.1-4.3,1-11.4-.9-16.2-1.9,2.5-3.9,5.1-5.8,7.6-.5-.2-1-.3-1.5-.5V106.3c-5,2.8-10.1,5.6-15.1,8.4s-3.1,11.8,3,11.2a63.46,63.46,0,0,0,7.6-1.3c7.6-2.1,4.3-12.8-3.2-11.6-5.9,1-11.9,1.9-17.8,2.9-6.7,1.1-5.1,12,1.6,11.8,2.5-.1,5.2-.3,7.7.5s4.5,2.3,7.2,2.4c4.8,0,9-3.8,8.7-8.7-.9-12.1-19.3-6.4-16.2,5.1,2.8,10.4,20.1,7.9,18.3-3.1-.8-5.1-6.3-6.5-10.7-5.3-5.3,1.5-8.1,6.2-8.6,11.5-.3,7.6,11.7,7.6,12.4-.1Z" transform="translate(-44.49 -104.4)"/><path class="cls-1" d="M86.1,142.7c.2.7.4,1.3.6,2-1,1.7-2,3.5-3,5.2.2-.1.4-.3.6-.4l-4.6.6c.5.1,1.6,2,1.7,2.2a9.74,9.74,0,0,1,.5,1.1c.2,1.9.6,1.8,1.2-.4l4.2-1.8c-1,0-2-2.2-1.9-1.2l-1.8,4.2c-4.6,1.6-6.6.8-6.2-2.4.9-1.2,1.8-2.4,2.8-3.6-.2.1-.5.2-.7.3l4.6-.6c-1.3-.2-1.6-1-1.9-2.2-3.3,1.9-6.7,3.9-10,5.8a14.92,14.92,0,0,0,.2-2.1c1.2-.9,2.4-1.8,3.6-2.8,3.2,1.7,4.3,1.5,3.3-.7-.2-1-.4-1.9-.6-2.9a58.46,58.46,0,0,0-1.3-5.7,23.84,23.84,0,0,0-5.6-9.9l-4.2,10.2a101.62,101.62,0,0,1,11,2.1c6.7,1.6,10.4-7.3,4.6-11a73.94,73.94,0,0,1-10-7.7c-1.9,3.3-3.9,6.7-5.8,10a33.75,33.75,0,0,1,11.8,4.4c6.7,3.9,12.6-6.3,6.1-10.4-3-1.8-6-3.6-8-6.6-2.3,2.9-4.5,5.9-6.8,8.8,4.6,1.6,9.3,3.2,13.9,4.9,6.9,2.4,9.7-7.2,4.6-11a129,129,0,0,0-12.5-8.3c-1.5,3.7-3.1,7.3-4.6,11l14.7,3.9c6.4,1.7,10.9-8,4.6-11-3.6-1.7-7.3-3.4-10.9-5.2-1.5,3.7-3.1,7.3-4.6,11a65.28,65.28,0,0,1,10.7,3c6.3,2.3,10.9-8.3,4.6-11-1.7-.7-3.5-1.5-5.2-2.2-1.5,3.7-3.1,7.3-4.6,11a90.26,90.26,0,0,1,11.4,2.8c7.4,2.3,10.5-9.3,3.2-11.6a86.23,86.23,0,0,0-11.4-2.8c-6.1-1.1-11.3,8.1-4.6,11,1.7.7,3.5,1.5,5.2,2.2,1.5-3.7,3.1-7.3,4.6-11a65.28,65.28,0,0,0-10.7-3c-6.2-1.2-11.2,7.8-4.6,11,3.6,1.7,7.3,3.4,10.9,5.2,1.5-3.7,3.1-7.3,4.6-11l-14.7-3.9c-6.5-1.7-10.6,7.5-4.6,11A129,129,0,0,1,83,131.5c1.5-3.7,3.1-7.3,4.6-11-4.6-1.6-9.3-3.2-13.9-4.9-4.9-1.7-9.6,4.5-6.8,8.8,3.2,4.8,7.5,7.9,12.3,10.9,2-3.5,4-6.9,6.1-10.4a45.23,45.23,0,0,0-14.7-5.6c-5.5-1-10.6,5.6-5.8,10a82.17,82.17,0,0,0,12.4,9.6c1.5-3.7,3.1-7.3,4.6-11a136,136,0,0,0-14.2-2.5c-5.5-.7-7.4,6.8-4.2,10.2,5.5,5.9,1.9,18.1,9.9,22a7.77,7.77,0,0,0,10.3-3.4c2.1-4.2.3-8.4-2.8-11.4-4.3-4.3-11.5.1-10,5.8,1.3,5.2,5.9,11,11.8,10.8s8-5.9,6.1-10.7c-2.1-5.4-9.2-8.2-13.4-3.2-4,4.7-.3,11.3,3.9,14.5s10.9,4.7,14.2-.6c2.8-4.6.1-11.3-2.7-15.3s-8-8.3-12.9-4.9c-5.3,3.7-2.8,11.1,2.3,13.6,6.9,3.6,13-6.8,6-10.1Z" transform="translate(-44.49 -104.4)"/><path class="cls-1" d="M63.5,120.9a2.2,2.2,0,0,1-.8-.1c1,.3,2,.5,3,.8-.2-.2-.4-.3-.6-.5l2.2,2.2a2.51,2.51,0,0,0-.4-.7c.3,1,.5,2,.8,3a4.13,4.13,0,0,1-.7,1.1c-1,.3-2,.5-3,.8h.8c-1-.3-2-.5-3-.8q-2.4-1.8-1.2-3.6c3.3-1.7,4.3-.1,2.9,5.1H60.3c.1,0,.3.1.4.1-1.2-.9-2.4-1.8-3.6-2.8.1.2.2.3.3.5-.3-1-.5-2-.8-3,0,1.2-.4.7.1.5,1-.3,2-.5,3-.8l-.1.1c.9.5,1.8,1,2.6,1.5l-.1-.1c.3,1,.5,2,.8,3v-.8l-1.8,4.2.6-.6-5.8,1.5c.2,0,.4.1.7.1-1.2-.9-2.4-1.8-3.6-2.8.1.2.3.4.4.6-.3-1-.5-2-.8-3,.1-.1.2-.1.1-.2l2.2-2.2a2.09,2.09,0,0,0-.6.4c1-.3,2-.5,3-.8h-.6c1,.3,2,.5,3,.8.9,1.9,1.4,2.4,1.3,1.5a16,16,0,0,1,.5-2.1,7.93,7.93,0,0,1,1.5-2.5c1.1-1.1,2.7-2,4.2-1.5-.9-.5-1.8-1-2.6-1.5a4.35,4.35,0,0,0,.7.6c2.5,2.1,6,2.4,8.5,0,2.1-2.1,2.5-6.4,0-8.5-11.1-9.3-27.2,5.9-24.5,18.2,1.7,7.6,12.1,9.8,14.8,1.6,1-3,.7-6.3-1.7-8.6-3.2-3.2-8.5-2-10.7,1.7a7.67,7.67,0,0,0,2,9.4,8.37,8.37,0,0,0,11-.2c4.4-3.9,6.2-14.1-1.2-15.9-7.1-1.7-12.5,7.3-9.2,13.1,3.4,6,11.8,5.9,15.8.6,2.2-2.9,3-7.1,1.3-10.4a7.66,7.66,0,0,0-9.6-3.9,9.87,9.87,0,0,0-6,8.8c-.1,4.7,3.4,7.7,7.8,8,3.2.3,6-2.9,6-6-.1-3.3-2.9-5.6-6.1-5.9Z" transform="translate(-44.49 -104.4)"/><path class="cls-1" d="M78.7,112.2c-.1,0-.2-.3-.2-.3a9.43,9.43,0,0,0-2.9-3.4,7.27,7.27,0,0,0-4.3-1.3,8.52,8.52,0,0,0-2.3.4q-1.2.6-.3,0c.9,3.3,1.8,6.7,2.6,10-1.7.4-1.7.6-.2.5h1.7c1.1,0,2.1-.3,3.1-.2-1-.3-2-.5-3-.8a23.62,23.62,0,0,1,4.8,3.5c2.5,2,6,2.5,8.5,0,2.1-2.1,2.6-6.5,0-8.5-3.5-2.8-6.8-6.4-11.6-6.3-4.3.1-8.6.1-11.8,3.2-3.5,3.4-1.4,8.4,2.6,10a10.45,10.45,0,0,0,4.3.6,11.86,11.86,0,0,0,2.3-.5c-1-.3-2-.5-3-.8.2.1.4.3.6.4l-2.2-2.2c1.4,2,2.4,3.8,4.5,5.2a12.77,12.77,0,0,0,6.8,2.2c3.2.3,6-3,6-6,0-3.2-2.7-5.4-6-5.7Z" transform="translate(-44.49 -104.4)"/><path class="cls-1" d="M63.5,137.8c0,.2.1.3.1.5-1.5,1.9-2.9,3.9-4.4,5.8.2-.1.5-.1.7-.2l-4.6-.6a12,12,0,0,0-1.2-1.1c.2-1.5.4-3.1.6-4.6,5,1.2,6.8.5,5.2-2-1-2.2-4.5-3.6-6.8-2.8a1.42,1.42,0,0,1-.6.2l4.6.6a2.09,2.09,0,0,1-.6-.4c.9,1.2,1.8,2.4,2.8,3.6-.3-2.1,1.1-5.3,1.8-7.2H49.5c.4,1,.1,10.7-1,11.2,3,1.7,6,3.5,9,5.2a4.65,4.65,0,0,1,.6-2.3l-11.2-3a16.18,16.18,0,0,1-1.1,5.3c-1.7,4.5,3.3,8.3,7.4,7.4-2.3.5,0,.5,1.4,1.2a35.39,35.39,0,0,1,3.4,1.6,19.13,19.13,0,0,1,6.3,5l8.5-8.5c-2.1-1.6-4.2-3.2-6.4-4.6-6.8-4.2-12,5.8-6.1,10.4.5.3.9.7,1.4,1,6.1,4.7,12.1-5.7,6.1-10.4-.5-.3-.9-.7-1.4-1-2,3.5-4,6.9-6.1,10.4a35.06,35.06,0,0,1,4,2.7c6,4.7,13.6-2.5,8.5-8.5A33.87,33.87,0,0,0,62,144.8c-3.8-1.8-7.8-4-12.1-3l7.4,7.4a24.55,24.55,0,0,0,1.5-8.5c.1-5.7-8.6-8.6-11.2-3a22.26,22.26,0,0,0-2.2,8.3c-.4,5,5.3,6.9,9,5.2,4.2-1.9,5.6-5.9,6.2-10.2.6-4.6,2-10.2.4-14.6-2.1-5.6-9.6-5.8-11.6,0-1.3,3.9-3.2,9.5-1.8,13.6a6.67,6.67,0,0,0,8.6,4.3c-2.3-.9-4.5-1.8-6.8-2.8,2.6,5.9,10.9,9.2,15.1,2.8,3.8-5.8-2.1-13.7-8.7-11.9-2.8.8-4.1,3.1-4.4,5.8-.4,3,1.5,5.9,3.4,8,5.5,5.7,14-2.8,8.7-8.4Z" transform="translate(-44.49 -104.4)"/><path class="cls-1" d="M102.6,206.5a4.29,4.29,0,0,1-2.1,2.3c3.3.9,6.7,1.8,10,2.6-2.5-6-1.3-13.9-.9-20.3a167,167,0,0,1,2.8-21.1c-3.9-.5-7.9-1.1-11.8-1.6.6,12.3-.4,24.5-1.6,36.7h12c-.3-11.5-.5-22.9,2.7-34.1H102.1a198,198,0,0,1,5.6,28.6c3.9-.5,7.9-1.1,11.8-1.6a108.37,108.37,0,0,1-2.3-26.7c-3.9.5-7.9,1.1-11.8,1.6a123.72,123.72,0,0,1,2.9,22.7c3.9-.5,7.9-1.1,11.8-1.6-2.9-10.6-2.1-21.9-6-32.2a6,6,0,0,0-11.8,1.6c-.3,3.3-.5,6.5-.8,9.8l-.3,3.9c-.1,1.6-1.3,4.5.9,3.3,2.9,1.2,5.9,2.4,8.8,3.6a46.7,46.7,0,0,1,.2-22.6H99.5c1.6,9.7,2.9,20.2,7.2,29,2.8,5.8,10.8,2.4,11.2-3,.6-8.6,1.2-17.3,1.8-25.9h-12c.8,7.5,1.7,15.1,2.5,22.6h12A106.21,106.21,0,0,1,122,163c-3.9.5-7.9,1.1-11.8,1.6a126.47,126.47,0,0,1,1.4,15.1c.3,7.7,11.6,7.7,12,0,.3-5.7.5-11.3.8-17h-12a84.46,84.46,0,0,1,.4,15.1h12a56.94,56.94,0,0,1,1.7-12.3c-3.9-.5-7.9-1.1-11.8-1.6a64,64,0,0,1-.1,7.6h12a21.44,21.44,0,0,1,.4-6.7H115.4a9,9,0,0,1,.2,2.3c.3,7.7,11.9,7.8,12,0a19.4,19.4,0,0,1,.2-3.4c-3.7.5-7.3,1-11,1.4.2.4.3.7.5,1.1-.2-1.5-.4-3.1-.6-4.6-.1.4-.1.8-.2,1.2,3.9.5,7.9,1.1,11.8,1.6a3.07,3.07,0,0,1,.2-2.1c-3.9-.5-7.9-1.1-11.8-1.6a120,120,0,0,1-.5,21.6h12a222.54,222.54,0,0,1,.3-23.1h-12c.2,1.9.4,3.8.6,5.6.7,6.1,10.7,8.9,11.8,1.6.3-1.9.6-3.9.9-5.8-3.9-.5-7.9-1.1-11.8-1.6.1,1.1.1,2.3.2,3.4l10.2-4.2a10.59,10.59,0,0,0-1-1.2c-3.4-4.3-10.2-.5-10.2,4.2-.1,4.2-.1,8.5-.2,12.7-.1,7.7,11.9,7.7,12,0,.1-4.2.1-8.5.2-12.7L119,165.4a10.59,10.59,0,0,0,1,1.2c3.2,4.1,10.6.7,10.2-4.2-.1-1.1-.1-2.3-.2-3.4-.4-6.3-10.7-8.7-11.8-1.6-.3,1.9-.6,3.9-.9,5.8,3.9.5,7.9,1.1,11.8,1.6-.2-1.9-.4-3.8-.6-5.6-.8-7.6-11.6-7.9-12,0q-.6,11.55-.3,23.1c.3,7.9,11.2,7.5,12,0a120,120,0,0,0,.5-21.6c-.4-6.5-10-8.4-11.8-1.6a16,16,0,0,0-.6,5.3c.4,6.3,10.8,8.7,11.8,1.6a10.86,10.86,0,0,0-.9-6.9c-2.1-4.5-10.2-3.6-11,1.4a47.59,47.59,0,0,0-.7,6.6h12a48.7,48.7,0,0,0-.6-5.5c-1.1-5.8-10.3-5.6-11.6,0a32.91,32.91,0,0,0-.8,9.9c.6,7.7,11.5,7.7,12,0a64.53,64.53,0,0,0,.1-7.6c-.2-6.6-10.1-8.4-11.8-1.6a73.34,73.34,0,0,0-2.2,15.5c-.2,7.8,11.6,7.7,12,0a95.25,95.25,0,0,0-.4-15.1c-.9-7.5-11.6-7.9-12,0-.3,5.7-.5,11.3-.8,17h12a141.71,141.71,0,0,0-1.8-18.3c-1.1-7.2-11.2-4.6-11.8,1.6a99.29,99.29,0,0,0,.2,21.1c.8,7.6,12.8,7.7,12,0-.8-7.5-1.7-15.1-2.5-22.6s-11.5-7.8-12,0c-.6,8.6-1.2,17.3-1.8,25.9l11.2-3c-3.8-7.7-4.7-17.8-6-26.2-1-6-10.2-5.4-11.6,0a60.52,60.52,0,0,0-.2,29c.9,3.9,5.5,5.3,8.8,3.6,4.2-2.3,4.5-6.4,4.8-10.8.4-5.5.9-11.1,1.3-16.6-3.9.5-7.9,1.1-11.8,1.6,3.8,10.4,3.1,21.6,6,32.2,1.7,6.4,12,5.3,11.8-1.6a141.23,141.23,0,0,0-3.3-25.9c-1.5-6.8-11.6-5-11.8,1.6a119,119,0,0,0,2.7,29.8c1.4,6.5,12.6,5.2,11.8-1.6a227.37,227.37,0,0,0-6.1-31.7c-1.6-5.8-9.9-5.6-11.6,0-3.6,12.1-3.5,24.7-3.2,37.3.2,7.8,11.3,7.6,12,0,1.2-12.2,2.3-24.4,1.6-36.7-.3-6.4-10.5-8.6-11.8-1.6a218.2,218.2,0,0,0-3.2,24.3c-.5,7.5-1.6,16.4,1.3,23.5,1.8,4.4,6.2,5.6,10,2.6a15.56,15.56,0,0,0,4-4.8c4.4-6.6-6-12.6-9.8-5.9Z" transform="translate(-44.49 -104.4)"/><path class="cls-1" d="M101.8,222.9A185.61,185.61,0,0,1,97.9,188c-.1-6.5-10.6-8.5-11.8-1.6-1.6,9.4.3,19.3,1,28.7l11.2-3c-3.6-5.9-3.1-15.5-3.6-22.3-.6-8.2-.8-16.5-.6-24.8h-12c1.1,9.3,2.1,18.6,3.2,27.8.9,7.5,11.7,7.9,12,0a244.11,244.11,0,0,1,4.8-40H90.5a122.28,122.28,0,0,1,1.2,27.7c3.9-.5,7.9-1.1,11.8-1.6a43.62,43.62,0,0,1-1-20.3c-3.9-.5-7.9-1.1-11.8-1.6,1.2,14.1-1.6,27.7-4.5,41.4,3.9.5,7.9,1.1,11.8,1.6.6-10.7,1.2-21.3,1.8-32,.4-7.8-11.2-7.5-12,0a139.84,139.84,0,0,1-4,24H95.4a165.17,165.17,0,0,1-6.5-25.1c-3.7,1.5-7.3,3.1-11,4.6a26.45,26.45,0,0,1,2.3,13.3l11.2-3c-2.4-3.1-2.2-6.6-2.6-10.4-.4-4-1.2-7.8-3.5-11.1-3.1-4.6-11.5-3.3-11.2,3a27.5,27.5,0,0,1-1.6,11c3.9.5,7.9,1.1,11.8,1.6-.6-5.1-.9-10.3-1-15.4h-12c.1,2.4.1,4.8.2,7.2l11.2-3a12.61,12.61,0,0,1-1.2-4.2c-1.2-6.6-12.1-5.1-11.8,1.6l.3,5.7c.3,6.4,10.6,8.6,11.8,1.6a17.45,17.45,0,0,0-.1-7.2c-3.9,1.1-7.7,2.1-11.6,3.2a1.26,1.26,0,0,1-.2,1.7c3.9.5,7.9,1.1,11.8,1.6-.2-2.1-.4-4.3-.5-6.4-.6-7.6-12.6-7.7-12,0,.2,2.1.4,4.3.5,6.4.6,7,9.2,7.9,11.8,1.6a11.31,11.31,0,0,0,.2-8.1c-2.2-7.4-13.3-4.3-11.6,3.2,0,.3.1.6.1.9,3.9.5,7.9,1.1,11.8,1.6l-.3-5.7c-3.9.5-7.9,1.1-11.8,1.6a29.72,29.72,0,0,0,2.4,7.1c2.6,5.5,11.3,2.7,11.2-3-.1-2.4-.1-4.8-.2-7.2-.2-7.7-12.1-7.7-12,0,.1,5.2.4,10.3,1,15.4.7,6.6,9.5,8.3,11.8,1.6a37.92,37.92,0,0,0,2-14.2l-11.2,3c4.3,6.3,1.1,15,6.1,21.5,3.6,4.6,10.8,3.3,11.2-3a38.33,38.33,0,0,0-4-19.4c-3.1-6.6-12-1.6-11,4.6a156.92,156.92,0,0,0,6.5,25.1c1.9,5.4,9.9,6,11.6,0,2.5-8.9,3.5-18,4.4-27.2h-12c-.6,10.7-1.2,21.3-1.8,32-.4,6.7,10.4,8.2,11.8,1.6,3.1-14.7,6.2-29.5,4.9-44.6-.5-6.3-10.4-8.7-11.8-1.6a57.43,57.43,0,0,0,1,26.7c1.9,6.7,11.3,5,11.8-1.6a133.31,133.31,0,0,0-1.6-30.9c-1-5.8-10.4-5.6-11.6,0a273.94,273.94,0,0,0-5.2,43.2h12c-1.1-9.3-2.1-18.6-3.2-27.8-.9-7.5-11.8-7.9-12,0a273.25,273.25,0,0,0,.9,28.6c.7,7.9.7,17.6,4.9,24.5,2.9,4.8,11.7,3.2,11.2-3-.7-8-2.8-17.5-1.5-25.5-3.9-.5-7.9-1.1-11.8-1.6A204,204,0,0,0,90,226.2c1.8,7.5,13.4,4.3,11.8-3.3Z" transform="translate(-44.49 -104.4)"/><path class="cls-1" d="M90,203.7c.5,1,.4.7-.3-1.1-.3-1-.6-2.1-.8-3.1a20.19,20.19,0,0,1,.2-6.5H77.5a121.65,121.65,0,0,1,2.4,30.1c3.9-.5,7.9-1.1,11.8-1.6-1.7-10.7-3.3-21.6.1-32.2H80.2a54.92,54.92,0,0,1,2.5,24.8c3.7-.5,7.3-1,11-1.4-3.3-4.6-5.6-11.8-2.3-17.2-1.2.9-2.4,1.8-3.6,2.8.4-.1.7-.3,1.1-.4l-5.8-1.5c1.8,1.4,2,4.4,2.4,6.4a75,75,0,0,1,1.5,9.3,102.8,102.8,0,0,1,.1,18.4l11.2-3a12.31,12.31,0,0,1-1.6-4.9c-.1-.7.8-4.8.7-5.1-2.9-.9-3.9-.6-3.1.8a15.55,15.55,0,0,1,.8,2.3,28,28,0,0,1,1.2,5,32.92,32.92,0,0,1,.4,7c0,1.1-1,4.6-.6,5.3,5.5-.2,7.3-.9,5.2-2a6.89,6.89,0,0,1-1.3-1.1,6.76,6.76,0,0,1-1.3-3.3,5.7,5.7,0,0,1-.1-1.3c.9-2.3-.3-2.3-3.7,0-.4.7.7,4.1.6,5.1a12.21,12.21,0,0,1-.6,2.6c-.8,1.5.2,2.4,2.8,2.7a7,7,0,0,1-.2-3.2c1.1-2,.5-2.3-1.7-.9-2.4-.1-2.9.6-1.5,2a8.08,8.08,0,0,1,1.1,2.7,20.32,20.32,0,0,1,.7,4.3c0,1.2-.8,3.2-.6,4.3-.9,1.8,0,1.9,2.8.4a1.55,1.55,0,0,1,.5-1.4c-2.7.7-5.5,1.4-8.2,2.2,0,0-1.1-.8-1-.2q2.1,4.35,1.8,1.5a13.4,13.4,0,0,0-.1-2c-.1-3-.2-5.9-.2-8.9-.1-5.9-.1-11.9-.1-17.8H79a57.08,57.08,0,0,1-4.5,25.1l11.2,3a508.39,508.39,0,0,0-2.1-73c-.8-7.6-12.8-7.7-12,0a494.32,494.32,0,0,1,2.1,73c-.2,5.6,8.8,8.6,11.2,3A71.3,71.3,0,0,0,91,223.5c-.3-7.7-11.9-7.8-12,0s0,15.8.2,23.7c.2,6.1-.3,13.5,7,15.3,13.3,3.2,21.6-14.1,10.5-22-2.7-1.9-6.6-.4-8.2,2.2-4.6,7.4-.7,20.2,9.5,19.4s11.2-15.2,9.5-22.7C106,231.6,97.1,218.6,89,228c-5.6,6.5-4.6,22.1,5.6,23.3,11.4,1.3,14.3-14.6,12.5-22.8-1-4.3-3.4-9.2-8-10.5-5.1-1.5-9.4,2.1-11.1,6.5-3.1,7.9.3,17.9,7.8,22,11.1,6.1,13.3-9.1,13-16.5-.3-8-3.1-26.4-14.9-24.2s-10.2,20-6,27.7c3,5.6,10.7,2.5,11.2-3a109,109,0,0,0-1-25.5c-.9-5.6-1.9-15.1-7.8-18.1-7.6-3.9-11.2,5.4-12,11.2a29.33,29.33,0,0,0,5,20.7c2.6,3.7,10.2,4.2,11-1.4a67.35,67.35,0,0,0-2.5-31.2,6.07,6.07,0,0,0-11.6,0c-4,12.7-2.2,25.7-.1,38.6,1.1,6.9,11.5,4.9,11.8-1.6A138.08,138.08,0,0,0,89,189.9c-1.2-5.7-10.5-5.8-11.6,0-1.3,7.1-1.6,20.7,6.4,24.3,7.2,2.9,13.3-7.4,6.2-10.5Z" transform="translate(-44.49 -104.4)"/><path class="cls-1" d="M120.4,252.9c-1.7-3.8-.7-9.6-1.1-13.8-.6-5.1-1.6-10.2-2.5-15.3-2-10.2-3.7-20.5-.8-30.7H104.4a266,266,0,0,1,5.4,37.6,6,6,0,0,0,12,0c1.3-13.2-1.2-26.3-.4-39.5h-12a121.27,121.27,0,0,1,.8,18.1c-.3,6.7,10.4,8.3,11.8,1.6a129,129,0,0,0,2.5-20.5c-3.9.5-7.9,1.1-11.8,1.6a79.43,79.43,0,0,1,1.3,8.3c.6,7.6,11.7,7.8,12,0a64.65,64.65,0,0,1,1.5-12.4c-3.9-.5-7.9-1.1-11.8-1.6,0,1.6-.1,3.2-.1,4.7-.2,7.8,11.5,7.6,12,0,.2-2.3.3-4.6.5-6.9h-12c.1,1.2.2,2.5.3,3.7a6,6,0,0,0,12,0,29.11,29.11,0,0,0,.1-4.2h-12c.1,1,.2,2,.2,3,.5,6.2,10.6,8.7,11.8,1.6a49.51,49.51,0,0,0,.8-11.5c-.4-7.7-12.4-7.7-12,0a38.21,38.21,0,0,1-.4,8.3c3.9.5,7.9,1.1,11.8,1.6-.1-1-.2-2-.2-3-.6-7.6-12.4-7.8-12,0a29.46,29.46,0,0,1-.1,4.2h12c-.1-1.2-.2-2.5-.3-3.7-.7-7.6-11.5-7.8-12,0-.2,2.3-.3,4.6-.5,6.9h12c0-1.6.1-3.2.1-4.7.2-6.7-10.3-8.3-11.8-1.6a91.24,91.24,0,0,0-2,15.6h12a88.55,88.55,0,0,0-1.7-11.5c-1.5-6.8-11.5-5-11.8,1.6a99.75,99.75,0,0,1-2.1,17.3c3.9.5,7.9,1.1,11.8,1.6a109.71,109.71,0,0,0-.8-18.1c-.9-7.5-11.5-7.9-12,0-.8,13.2,1.6,26.4.4,39.5h12a294.89,294.89,0,0,0-5.9-40.8c-1.3-6-10-5.5-11.6,0-3.3,11.7-1.8,23.5.5,35.2,1.1,5.8,2.4,11.7,2.8,17.6.4,5.7.1,10.8,2.4,16.1,3.2,7.2,13.6,1.1,10.5-5.9Z" transform="translate(-44.49 -104.4)"/><path class="cls-1" d="M126.2,233.3c-1.9-4.9-2.4-9.9-2.8-15.1-.6-7.6-12-7.8-12,0a62.62,62.62,0,0,0,1.8,14.9c1.5,6.5,12.3,5.2,11.8-1.6a78.15,78.15,0,0,1,0-12.8c-3.9.5-7.9,1.1-11.8,1.6a48.6,48.6,0,0,1,2.7,9.2c1.4,7,11.3,4.8,11.8-1.6.2-2.1.3-4.2.5-6.2h-12c.2,2.7.5,5.4.7,8.1,3.9-.5,7.9-1.1,11.8-1.6,0-.6-.1-1.1-.1-1.7h-12c0,2.3.1,4.5.1,6.8,3.9-.5,7.9-1.1,11.8-1.6-1.1-7.5-2.1-14.9-3.2-22.4-3.9,1.1-7.7,2.1-11.6,3.2a33.69,33.69,0,0,1,1.2,5.3c3.9-.5,7.9-1.1,11.8-1.6a37,37,0,0,1,0-9.4c-3.9.5-7.9,1.1-11.8,1.6.5,3.6,1,7.3,1.5,10.9,3.9-1.1,7.7-2.1,11.6-3.2a7.08,7.08,0,0,1,0-2.9c-3.9.5-7.9,1.1-11.8,1.6h0c3.9.5,7.9,1.1,11.8,1.6-.2-3.5-.6-6.9-1.1-10.4-1-6.5-9.7-4.8-11.6,0,0,.1-.1.2-.1.3-.9,2.3.6,5.7,2.8,6.8.1.1.2.1.3.2a6.12,6.12,0,0,0,8.2-2.2c2.1-3.3.5-7.7,0-11.3-3.9,1.1-7.7,2.1-11.6,3.2l.9,3.6c1.6,6.5,12.1,5.2,11.8-1.6-.2-4.2-.2-8.4-.1-12.6l-11.2,3c.2.4.4.8.6,1.3h12a17.72,17.72,0,0,1-.1-4.6c-3.9-.5-7.9-1.1-11.8-1.6-.3,7.6-.6,15.1-.9,22.7s11.7,7.7,12,0,.6-15.1.9-22.7c.3-6.6-10.8-8.4-11.8-1.6a29.17,29.17,0,0,0-.3,7.8c.9,7.5,12.7,7.7,12,0a16.8,16.8,0,0,0-2.2-7.3c-3.1-5.2-11-2.9-11.2,3-.1,4.2-.1,8.4.1,12.6,3.9-.5,7.9-1.1,11.8-1.6l-.9-3.6c-1.9-7.7-12.6-4.2-11.6,3.2.1,1,.3,1.9.4,2.9.1,1.6.3,1.3.8-.9,2.7-.7,5.5-1.4,8.2-2.2-.1-.1-.2-.1-.3-.2.9,2.3,1.8,4.5,2.8,6.8,0-.1.1-.2.1-.3H115.3a58.26,58.26,0,0,1,.6,7.2c.3,6.4,10.5,8.6,11.8,1.6a17.22,17.22,0,0,0,0-6.4c-.5-2.9-3.9-4.7-6.6-4.3-3.2.4-4.8,2.9-5.2,5.9a15.75,15.75,0,0,0,.4,6.1c1.7,7.7,12.6,4.2,11.6-3.2-.5-3.6-1-7.3-1.5-10.9-1-7.2-11.1-4.5-11.8,1.6a48.39,48.39,0,0,0,.4,12.6c1,6.6,12.5,5.1,11.8-1.6a49,49,0,0,0-1.6-8.5c-2.3-7.6-12.6-4.3-11.6,3.2s2.1,14.9,3.2,22.4c1,6.8,11.9,5,11.8-1.6,0-2.3-.1-4.5-.1-6.8-.1-7.8-11.3-7.6-12,0a11.58,11.58,0,0,0,.5,4.9c1.9,6.2,12.4,5.4,11.8-1.6-.2-2.7-.5-5.4-.7-8.1a6,6,0,0,0-12,0c-.2,2.1-.3,4.2-.5,6.2,3.9-.5,7.9-1.1,11.8-1.6a48.6,48.6,0,0,0-2.7-9.2c-2.5-6.2-11.3-5.5-11.8,1.6a91.13,91.13,0,0,0,0,12.8c3.9-.5,7.9-1.1,11.8-1.6a51.18,51.18,0,0,1-1.3-11.7h-12c.5,6.2,1,12.4,3.3,18.3,2.6,7.3,14.2,4.2,11.5-3.1Z" transform="translate(-44.49 -104.4)"/><path class="cls-1" d="M89.2,216.3a40.64,40.64,0,0,1-1.6-6.9c-.6-5.9-7.7-8.2-11.2-3a14.89,14.89,0,0,0-2.6,9.6h12c-.2-1.8-.4-3.5-.5-5.3-.7-6.4-9.9-8.5-11.8-1.6-.3,1.2-.7,2.4-1,3.6H84.1c-.2-.8-.3-1.6-.5-2.4-1.3-6.5-12.6-5.1-11.8,1.6a6.47,6.47,0,0,1,.1,2.4c3.9-.5,7.9-1.1,11.8-1.6-.1-1-.3-1.9-.4-2.9-1-6.8-11.8-5-11.8,1.6a13.13,13.13,0,0,1-.1,2.8h12a234.69,234.69,0,0,1-.9-23.7c.1-6.9,1.4-14.2-.6-20.9-1.6-5.3-10.4-6.1-11.6,0a22,22,0,0,0,.2,9.9c1.5,6.4,12.5,5.2,11.8-1.6-.3-2.6-.6-5.2-.9-7.7-.8-7.5-12.3-7.9-12,0,.2,4.1.3,8.3.5,12.4.3,7.7,12.3,7.7,12,0-.2-4.1-.3-8.3-.5-12.4h-12c.3,2.6.6,5.2.9,7.7,3.9-.5,7.9-1.1,11.8-1.6a7,7,0,0,1-.2-3.5H70.3c1.8,6,.1,13.5.1,19.7,0,7.3.3,14.5.9,21.7.7,7.7,11.2,7.7,12,0a13.13,13.13,0,0,0,.1-2.8c-3.9.5-7.9,1.1-11.8,1.6.1,1,.3,1.9.4,2.9,1.1,7,11.4,4.8,11.8-1.6a6.47,6.47,0,0,0-.1-2.4c-3.9.5-7.9,1.1-11.8,1.6.2.8.3,1.6.5,2.4,1.2,6,10.1,5.4,11.6,0,.3-1.2.7-2.4,1-3.6-3.9-.5-7.9-1.1-11.8-1.6.2,1.8.4,3.5.5,5.3.8,7.5,12.5,7.8,12,0a4.37,4.37,0,0,1,.9-3.5l-11.2-3a43.06,43.06,0,0,0,2,10.1c2.6,7.2,14.2,4,11.8-3.3Z" transform="translate(-44.49 -104.4)"/><path class="cls-1" d="M89.2,222.8l5.2,4.3c-3.7-.5-7.3-1-11-1.4a15.78,15.78,0,0,1-1.1,9.6H92.7c-2.4-4.5-1.9-9.8-6.3-12.9-1.8-1.3-4.3-.9-6.1,0-3.3,1.7-4.2,5.6-5.5,8.8H86.4a36.26,36.26,0,0,1-1.3-5.7c-.8-5.7-7.7-8.5-11.2-3a12.57,12.57,0,0,0-1.9,6.3H84a27.6,27.6,0,0,0-.6-5.7c-1.5-6.9-11.4-4.9-11.8,1.6,0,.5-.1,1-.1,1.4h12c-.3-2.4-.5-4.9-.8-7.3-3.9.5-7.9,1.1-11.8,1.6a19,19,0,0,1,1.4,5.8h12c-.1-1.7-.2-3.3-.4-5-3.9.5-7.9,1.1-11.8,1.6a45.39,45.39,0,0,1-.1,15.6c3.9.5,7.9,1.1,11.8,1.6-.2-3.7-.5-7.4-.7-11.2-.5-7.6-12.2-7.8-12,0,.2,10.3.3,20.6.1,30.8l11.2-3c-.1-.2-.1-.3-.2-.5-3.9-.5-7.9-1.1-11.8-1.6.6,4.8.7,10.3,6.3,12,5.4,1.6,12.5.2,17.9-.7-1.5-3.7-3.1-7.3-4.6-11v.2c-7.5-1.9-10.7,9.6-3.2,11.6a10.74,10.74,0,0,0,9.2-1.4c5.8-4,2.1-12.1-4.6-11a51,51,0,0,1-8.7.7c-.6,0-3-.4-3.4-.1,2.7,3.2,3.8,3.8,3.4,1.8l-.3-2.1c-.8-6.1-10.2-8.9-11.8-1.6a12.66,12.66,0,0,0,1.4,9.7c2.9,5.3,11.1,2.8,11.2-3,.2-10.3.1-20.6-.1-30.8h-12c.2,3.7.5,7.4.7,11.2.4,6.3,10.5,8.6,11.8,1.6a60.26,60.26,0,0,0,.1-22c-1.1-6.6-12.3-5.1-11.8,1.6.1,1.7.2,3.3.4,5,.6,7.6,12.5,7.7,12,0a28.41,28.41,0,0,0-1.9-9c-2.2-5.7-12.6-5.7-11.8,1.6.3,2.4.5,4.9.8,7.3.8,7.6,11.5,7.8,12,0,0-.5.1-1,.1-1.4-3.9.5-7.9,1.1-11.8,1.6a6.88,6.88,0,0,1,.2,2.5c-.1,7.8,11.5,7.6,12,0,.1-.1.2-.1.2-.2l-11.2-3a69.73,69.73,0,0,0,1.7,8.9c1.8,6.1,9.5,5.3,11.6,0a18,18,0,0,0,.8-2.1c.6-1.2.3-1-.9.5H80a4.23,4.23,0,0,0,.7.5c-.9-1.2-1.8-2.4-2.8-3.6,1.2,4.1,2.1,7.9,4.1,11.7s8.5,4.1,10.4,0a29.73,29.73,0,0,0,2.3-18.8c-.9-5-8.7-5.8-11-1.4-4.7,9,6.4,18,13.6,10.2,5.6-5.8-2.9-14.3-8.1-8.7Z" transform="translate(-44.49 -104.4)"/><path class="cls-1" d="M107.5,249.3c.3.1.5.3.8.4.9,1.2,1.8,2.4,2.8,3.6-.1-.2-.1-.5-.2-.7-.5,1.9-1,3.9-1.5,5.8,0-1.7-.1-3.4-.1-5.1-1.2,2.9-2.4,5.9-3.6,8.8.3-.1.5-.2.8-.3l-5.8-1.5c.2.2.5.4.7.6-.5-1.9-1-3.9-1.5-5.8,3.5-2.2,3.9-2.9,1.2-2.2a10.62,10.62,0,0,0-1.9.4,22,22,0,0,0-4.4,2c-6.2,3.8-1.8,11.9,4.6,11a8.6,8.6,0,0,1,1.6.1V254.8a35,35,0,0,1-7.9.5v12a66.77,66.77,0,0,0,18.9-2.5c-1.9-3.3-3.9-6.7-5.8-10a3.23,3.23,0,0,1-2.1.8c.5,3.9,1.1,7.9,1.6,11.8a38.65,38.65,0,0,1,10.1-2.1l-4.2-10.2a8.3,8.3,0,0,1-2.1.6c1.1,3.9,2.1,7.7,3.2,11.6,1.5-.5,3-.9,4.5-1.3.5-.1,3.8-.5,2.1-.8-1.5-1.9-2.9-3.9-4.4-5.8v.3c1.5-1.9,2.9-3.9,4.4-5.8-.1,0-.2.1-.3.1,1.5,3.7,3.1,7.3,4.6,11a17.42,17.42,0,0,1,2.2-.5c4.5-.9,5.7-7,2.6-10-2.7-2.6-1.9-9.2-1.8-12.7h-12a53.22,53.22,0,0,0,1.8,12.6c1.4,5.4,10.5,6,11.6,0,1.2-6.6-1.4-12.8-.5-19.3-3.9.5-7.9,1.1-11.8,1.6a12.88,12.88,0,0,1,1,5.1h12v-3.7h-12v3c0,7.7,12,7.7,12,0v-3c0-7.7-12-7.7-12,0v3.7c0,7.7,11.8,7.7,12,0a19.64,19.64,0,0,0-1.4-8.3c-2.5-6.5-10.9-5.1-11.8,1.6-.7,5.4,1.9,10.8.9,16.1H128a43.6,43.6,0,0,1-1.4-9.5c-.2-7.7-11.8-7.7-12,0-.2,7.1-.1,15.8,5.3,21.2.9-3.3,1.8-6.7,2.6-10a30.52,30.52,0,0,0-5.1,1.7c-6.3,2.7-1.8,12.9,4.6,11,.1,0,.2-.1.3-.1a6.21,6.21,0,0,0,4.4-5.8v-.3c0-2.4-1.8-5.3-4.4-5.8-4.3-.8-8.8.8-12.9,2.1-7.5,2.4-4.3,12.9,3.2,11.6a16,16,0,0,0,7.4-3.6c4.1-3.2.6-10.5-4.2-10.2a46,46,0,0,0-13.3,2.5c-6,2-5.5,12.5,1.6,11.8a18.24,18.24,0,0,0,10.6-4.4c4.8-3.9-.4-11.6-5.8-10a52.17,52.17,0,0,1-15.7,2.1c-7.8-.1-7.7,11.6,0,12a45.84,45.84,0,0,0,11.1-.9c5.7-1.1,5.8-10.5,0-11.6a23.88,23.88,0,0,0-8-.1c1.5,3.7,3.1,7.3,4.6,11,2.9-1.8,6.4-1,8.9-3.8a7,7,0,0,0-.5-10.1c-1.5-1.4-3.8-2.3-5.8-1.5-.3.1-.5.2-.8.3-3.6,1.3-5.6,5.2-3.6,8.8,6.2,10.9,21.9-.8,13-9.5-3.4-3.4-9.5-3.1-12,1.3-3.1,5.6,2.3,10.4,7.6,10.2,7.5-.7,7.5-12.8-.2-12.3Z" transform="translate(-44.49 -104.4)"/><path class="cls-1" d="M72.5,153.6c-1.1-.1-2.8-.6-3.6.4s.2,3-1.8,2.9a2,2,0,0,1,.8.4c-.3-.3-.6-.5-.9-.8a1.18,1.18,0,0,0-2,.8,6,6,0,0,0,.2,2.3l1.5-1.5-.4-.4c-.7.3-1.5.6-2.2.9.7,1.1,1.4,2.3,2.1,3.4.6-.5,1.3-1,1.9-1.5a.38.38,0,0,1,0-.6,12.25,12.25,0,0,0-1.9-.2,1.55,1.55,0,0,0,2.6.3c1-1.2-.7-2.9-1.7-1.7.2-.1.4-.1.6-.2.2.2.5.4.7.6,0-.1-.1-.1-.1-.2a1.17,1.17,0,0,0-1.9-.2,2.84,2.84,0,0,0,0,4c.9,1,2.6-.3,1.9-1.5s-1.4-2.3-2.1-3.4-2.7-.4-2.2.9a3.3,3.3,0,0,0,2,2,1.26,1.26,0,0,0,1.5-1.5,3.22,3.22,0,0,1-.1-1.7c-.7.3-1.4.6-2,.8,1.2,1,2.3,1.6,3.9.6a4.28,4.28,0,0,0,1.4-1.6c.4-.7.1-1.5.4-2.2-.2.2-.4.5-.6.7a18.32,18.32,0,0,1,2.1.2c1.4.6,1.4-1.8-.1-2Z" transform="translate(-44.49 -104.4)"/><path class="cls-1" d="M131.8,156.1v1c.6.2,1.2.5,1.8.7v.1h-2.1c.3.6.7,1.2,1,1.8.7-.4,1.3-.8,2-1.2-.1-.3-.2-.5-.3-.8-.7.3-1.5.6-2.2.9,0,.3-.1.6-.1.9.6.2,1.2.5,1.8.7.6-1.2,1.2-2.3,1.7-3.5l-1.5-1.2c-.2.8-.5,1.6-.7,2.4-.8,1.1,1,2.4,1.9,1.5a16.6,16.6,0,0,1,1.3-1.4c-.7-.4-1.3-.8-2-1.2a8.3,8.3,0,0,1-.6,2.1c-.5,1.2,1.2,1.9,2,1.2,3.2-2.7,11.3-16.8,16.7-12.6,1.2.9,2.9-.7,1.7-1.7a5.38,5.38,0,0,1-2.1-2.8c-.6-1.4-2.9-.8-2.3.6a10.54,10.54,0,0,0,2.7,3.9l1.7-1.7c-8-6.3-15.4,8.5-20.1,12.6.7.4,1.3.8,2,1.2a7.27,7.27,0,0,0,.6-2.1c.2-1.1-1.1-2.1-2-1.2a16.6,16.6,0,0,1-1.3,1.4c.6.5,1.3,1,1.9,1.5a4.3,4.3,0,0,0,1-3.6,1.29,1.29,0,0,0-1.5-1.2,4.46,4.46,0,0,0-3.4,6.4,1.26,1.26,0,0,0,1.8.7,3,3,0,0,0,1-4.2c-.7-1.3-2.4-.3-2.2.9a2.43,2.43,0,0,0,.9,1.8c.8.8,2.5,0,2-1.2a8,8,0,0,0-1.3-2.4,1.22,1.22,0,0,0-2.1,0,2,2,0,0,0-.3,1.7,1.26,1.26,0,0,0,1.8.7c1.7-1.2,2.1-3.3.5-4.8-1.2-.7-2.9,1-1.7,2.1Z" transform="translate(-44.49 -104.4)"/><path class="cls-1" d="M47.7,145.2c-.6.2-1.2.5-1.8.7a1.2,1.2,0,0,0-.8,1.5,1.16,1.16,0,0,0,1.5.8c.6-.2,1.2-.5,1.8-.7a1.2,1.2,0,0,0,.8-1.5,1.35,1.35,0,0,0-1.5-.8Z" transform="translate(-44.49 -104.4)"/><path class="cls-1" d="M73.2,264.5v-.8l-.9,1.2c-.2-.2-.4-.3-.5-.5.2-.2.5-.4.7-.6l.6.3a1.26,1.26,0,0,0-2.1,0,1.65,1.65,0,0,0,1.2,2.4,43.42,43.42,0,0,0,5.2.7v-2.4c-.9,0-1.9-.1-2.8-.1-.5-.1-1.1-.1-1.4-.2-.7-.1-.6,0-.6-.5,0-1.2.4-2.4-.4-3.5a1.2,1.2,0,0,0-2.2.9c.1.6.3,1.2.4,1.8a1.2,1.2,0,0,0,2.3,0,3,3,0,0,1,.5-1.3c1-1.2-.7-2.9-1.7-1.7a5,5,0,0,0-1.2,2.4h2.3c-.1-.6-.3-1.2-.4-1.8-.7.3-1.5.6-2.2.9.4.6.1,1.4.1,2.1a3.34,3.34,0,0,0,.6,2.2,2.91,2.91,0,0,0,2.5.9c1.3.1,2.7.1,4,.2,1.6.1,1.5-2.2,0-2.4l-2.4-.3c-.3,0-2-.2-1.9-.2v1.2c0-.1.1-.1.1-.2H70.9a1.71,1.71,0,0,0,3.2-1.1,1.74,1.74,0,0,0-3.4,0c-.5,1.9,2,2.8,3.2,1.5,1.5-1.6-.4-3.5-2.2-3.2a1.29,1.29,0,0,0-.9,1.2v.8c-.1,1.6,2.3,1.6,2.4.1Z" transform="translate(-44.49 -104.4)"/><path class="cls-1" d="M123.8,262a5.58,5.58,0,0,0,2.5,2.3,12.25,12.25,0,0,1-.2-1.9.91.91,0,0,1-.7.3c.2.8.4,1.5.6,2.3,1-.4,2.5-.6,2.4-2a1.31,1.31,0,0,0-2.6-.1,1.35,1.35,0,0,0,.8,1.5,1.2,1.2,0,0,0,1.5-.8v-.1a2.19,2.19,0,0,1-.3.5l.1-.1a2,2,0,0,0-.8.4h.1a2,2,0,0,1-.8-.4l.1.1a2.19,2.19,0,0,0-.3-.5v-.4a2.19,2.19,0,0,1,.3-.5l-.1.1a2.19,2.19,0,0,0,.5-.3,12.13,12.13,0,0,1-1.4.5,1.2,1.2,0,1,0,.7,2.3,6.08,6.08,0,0,0,1.8-.9,1.3,1.3,0,0,0-.2-1.9,3.64,3.64,0,0,1-1.6-1.4c-1.1-1.6-3.2-.4-2.4,1Z" transform="translate(-44.49 -104.4)"/><path class="cls-1" d="M64.6,157.6a3.66,3.66,0,0,0,1.3,4.9v-2.1c-1.6.8-1.1,2.5-.1,3.5s2.7-.6,1.7-1.7l-3.2-3.5a1.21,1.21,0,0,0-2,1.2,7.12,7.12,0,0,0,3.5,4.3,1.21,1.21,0,0,0,1.2-2.1,4.64,4.64,0,0,1-2.4-2.9c-.7.4-1.3.8-2,1.2l3.2,3.5,1.7-1.7c-.2-.3-.3-.2-.4.2a1.26,1.26,0,0,0,0-2.1,1.39,1.39,0,0,1-.5-1.7,1.12,1.12,0,0,0-2-1Z" transform="translate(-44.49 -104.4)"/><path class="cls-1" d="M131.7,159.5c.2.6.4,1.3.6,1.9l-2.2.6a6.66,6.66,0,0,1,1.2,2,1.22,1.22,0,0,0,2.1,0,25.81,25.81,0,0,1,7-8.4c3.9-3.3,7-5,12.1-4.8,1.5.1,1.5-2.3,0-2.4a15.54,15.54,0,0,0-11.7,3.8c-3.8,3-7.3,6.2-9.5,10.6h2.1a8.18,8.18,0,0,0-1.2-2,1.19,1.19,0,0,0-2.2.6c-.5,3.8,6.1,2.8,4.1-2.6-.6-1.3-2.9-.7-2.4.7Z" transform="translate(-44.49 -104.4)"/><path d="M70.3,267.4a7.41,7.41,0,0,0,.8-3.9.6.6,0,0,0-1.2,0,6.1,6.1,0,0,1-.6,3.3c-.3.7.7,1.3,1,.6Z" transform="translate(-44.49 -104.4)"/><path d="M69.9,267.4a251.24,251.24,0,0,0,33.6.5c5.4-.3,10.9-.7,16.3-1.4,2.5-.3,7.1,0,9-1.7.2-.1.2-.4.2-.6s-.1-.3-.1-.5a.43.43,0,0,0-.4-.4.6.6,0,0,1-.4-.1.62.62,0,0,0-.3,1.2c-2.5-.4-5.4.6-7.9.9s-5.1.6-7.6.8c-4.5.4-8.9.7-13.4.8a251.77,251.77,0,0,1-28.8-.7.61.61,0,1,0-.2,1.2Z" transform="translate(-44.49 -104.4)"/><path d="M45.2,151.4c7.9,2.8,16.9,7.3,21.4,14.6a.58.58,0,1,0,1-.6c-4.7-7.7-13.8-12.2-22.1-15.2-.7-.2-1.1,1-.3,1.2Z" transform="translate(-44.49 -104.4)"/><path d="M68.1,165.7c1.2-5.7,2.2-11.5,3-17.3.1-.8-1.1-1.1-1.2-.3-.8,5.8-1.8,11.6-3,17.3-.1.7,1.1,1,1.2.3Z" transform="translate(-44.49 -104.4)"/><path d="M68.2,157.8c.3,17.7,2,35.3,2.4,53,.4,18.1-.1,36.4-.9,54.5a.6.6,0,0,0,1.2,0c.8-18.1,1.3-36.4.9-54.5-.4-17.7-2.1-35.3-2.4-53-.1-.8-1.3-.8-1.2,0Z" transform="translate(-44.49 -104.4)"/><path d="M45.7,150.6c1.6-9.9,2.3-20.4,4.9-30,3.3-12.5,16.1-14,27.2-14.5a.6.6,0,1,0,0-1.2c-9.1.4-20.2,1.1-25.9,9.5-2.8,4.2-3.2,9.6-4,14.5-1.1,7.1-2.2,14.3-3.4,21.4-.1.8,1.1,1.1,1.2.3Z" transform="translate(-44.49 -104.4)"/><path d="M77.4,106.2c6.9,5.8,14.6,9.9,23.8,9.6a.6.6,0,1,0,0-1.2c-8.9.3-16.3-3.6-23-9.2-.5-.5-1.4.4-.8.8Z" transform="translate(-44.49 -104.4)"/><path d="M153.7,149.8c-8.3,2.9-17.4,7.5-22.1,15.2a.58.58,0,1,0,1,.6c4.4-7.4,13.5-11.8,21.4-14.6.7-.3.4-1.5-.3-1.2Z" transform="translate(-44.49 -104.4)"/><path d="M132.2,164.9c-1.2-5.7-2.2-11.5-3-17.3-.1-.8-1.3-.4-1.2.3.8,5.8,1.8,11.6,3,17.3.2.7,1.3.4,1.2-.3Z" transform="translate(-44.49 -104.4)"/><path d="M129.8,157.3c-.3,17.7-2,35.3-2.4,53-.4,18.1.1,36.4.9,54.5a.6.6,0,0,0,1.2,0c-.8-18.1-1.3-36.4-.9-54.5.4-17.7,2.1-35.3,2.4-53a.6.6,0,0,0-1.2,0Z" transform="translate(-44.49 -104.4)"/><path d="M154.6,149.8c-1.1-6.8-2.1-13.6-3.2-20.4-.8-5.2-1.1-11-4.1-15.5-5.6-8.4-16.8-9.1-25.9-9.5a.6.6,0,1,0,0,1.2c11,.4,23.9,2,27.2,14.5,2.6,9.7,3.3,20.1,4.9,30,.1.8,1.2.5,1.1-.3Z" transform="translate(-44.49 -104.4)"/><path d="M120.9,104.9c-5.9,5.4-12.6,9.5-20.9,9.2a.6.6,0,1,0,0,1.2c8.6.4,15.6-3.9,21.7-9.6.6-.5-.3-1.3-.8-.8Z" transform="translate(-44.49 -104.4)"/></svg>