<svg id="Layer_1" data-name="Layer 1" xmlns="http://www.w3.org/2000/svg" viewBox="0 0 136.21 185.54"><defs><style>.cls-1{fill:#05193a;}.cls-2{fill:#010101;}.cls-3{fill:none;stroke:#010101;stroke-miterlimit:10;stroke-width:0.5px;}</style></defs><title>Winter</title><path class="cls-1" d="M102.5,144.6c1.5,2,2,2.5,1.6,1.6.2.5.4,1,.6,1.4v-.2c.1.5.1,1.1.2,1.6v-.4c-.1.5-.1,1.1-.2,1.6,0-.1,0-.1.1-.2-.2.5-.4,1-.6,1.4a5.36,5.36,0,0,1-1.5,1.5c-.5.2-1,.4-1.4.6a.37.37,0,0,0,.3-.1c-.5.1-1.1.1-1.6.2h.5c-.5-.1-1.1-.1-1.6-.2a.76.76,0,0,1,.5.2c-.5-.2-1-.4-1.4-.6-.2-.2-.5-.4-.7-.6l-.1-.1c-.6-.7-.1,0,0,.2-.2-.5-.4-1-.6-1.4.1.3.2.6.3,1-.1-.5-.1-1.1-.2-1.6v1c.1-.5.1-1.1.2-1.6a2.54,2.54,0,0,1-.2.7c.2-.5.4-1,.6-1.4-.2.3-.1.3.2-.3a2.54,2.54,0,0,1,1.2-1.1c.5-.2,1-.4,1.4-.6a.75.75,0,0,1-.5.1c.5-.1,1.1-.1,1.6-.2H101c.5.1,1.1.1,1.6.2-.2,0-.3,0-.4-.1.5.2,1,.4,1.4.6-.5-.3-.3-.1.6.5-.4-.4-.3-.2.4.6-.1-.3-.4-.6-.5-.9.2.5.4,1,.6,1.4-.1-.4-.2-.7-.3-1.1.1.5.1,1.1.2,1.6v-.5c-.1.5-.1,1.1-.2,1.6a.37.37,0,0,1,.1-.3c-.2.5-.4,1-.6,1.4.4-.9,0-.4-1.4,1.4-.5.2-1,.4-1.4.6a.37.37,0,0,0,.3-.1c-.5.1-1.1.1-1.6.2h.3c-.5-.1-1.1-.1-1.6-.2a.76.76,0,0,1,.5.2c-.5-.2-1-.4-1.4-.6s-.5-.4-.8-.6c.3.3.3.3-.1-.2-.6-.8-.1-.1,0,.1-.2-.5-.4-1-.6-1.4.1.2.1.4.2.6-.1-.5-.1-1.1-.2-1.6v.6c.1-.5.1-1.1.2-1.6a.35.35,0,0,1-.1.2c.2-.5.4-1,.6-1.4.5-.6,1.1-1.1,1.6-1.7.5-.2,1-.4,1.4-.6-.1,0-.1,0-.2.1.5-.1,1.1-.1,1.6-.2H101a6,6,0,0,0-4.2,1.8,6.44,6.44,0,0,0-1.8,4.2,5.81,5.81,0,0,0,1.8,4.2,7.25,7.25,0,0,0,4.2,1.8c3.9.4,7.1-3.4,7.1-7a9,9,0,0,0-4.2-7.3,7.45,7.45,0,0,0-10,2.2c-1.7,2.6-1.2,5.7,0,8.4a8.78,8.78,0,0,0,4.5,4.4,7.15,7.15,0,0,0,8.6-2.3c3.2-4.1,1.7-10.7-2.7-13.3a7.61,7.61,0,0,0-10.2,2.4c-1.9,3.2-.9,8.2,2.6,9.8a6.19,6.19,0,0,0,4.6.6,6.29,6.29,0,0,0,3.6-2.8c1.1-2.9.6-7-2.4-8.4Z" transform="translate(-31.6 -101.2)"/><path class="cls-1" d="M108.8,153.2c3.9,5.1,5.7,5.9,5.2,2.2.1-.6.2-1.3.3-1.9,0-.1,1.8-4.4,1.8-4.3-2.7-.9-3.6-.6-2.8.8a6.15,6.15,0,0,1,.7,2.3,15.46,15.46,0,0,1-.1,4.8c-.1,1.2-1.1,3.2-.9,4.3-.1.2-.2.5-.3.7,2.8.8,4,.4,3.6-1.1.3-.8.9-7.5,3-6.8,1.1.4.8,6.2.6,7.4a21,21,0,0,1-.6,2.4c-1,2.1.6,2.8,4.7,2.1-.2.4-.2-5.4.2-4.9-2.4-.9-3.2-.7-2.2.4a3.55,3.55,0,0,1,.8,1.9c0,.3.1.7.1,1,3,1.1,4.8.6,5.4-1.7-.8-.2-1.5-.5-2.3-.7a9.25,9.25,0,0,1,.4,2.9,9.47,9.47,0,0,1-.2,2.9c5.7,0,6.6.6,2.6,1.8-1.2-.9-2.4-1.8-3.6-2.8.9,1.4.2,1.5,0,2.9a5.72,5.72,0,0,1-.7.8c2.2,3.7,4,4.4,5.4,2.3-1.2.9-2.4,1.8-3.6,2.8.3-.1.6-.1.9-.2l-4.6-.6c.1.1.2.2.3.2l-1.8-4.2c.3,2.3-2.1,5.4-4.5,5.9-2.9.7-1.6-5-1.1-6.8-3.3.9-6.7,1.8-10,2.6-1.4-1.8-1.2.5-1.8,1.7a12.52,12.52,0,0,1-2.2,3.7c-2.6,2.4-3.9,0-4.3-2.7a12.46,12.46,0,0,1,.2-4.3c.1-.3,1.8-4,1.8-4.1-2.9-.4-3.9.2-3,1.6a7.94,7.94,0,0,1,.6,2.2,16.35,16.35,0,0,1-.5,4.9c-.6,2.5-1.7,6.5-4.2,7.9-3.1,1.7-4.8-1.5-5.3-4.2a22.71,22.71,0,0,1,.4-9,29.11,29.11,0,0,1,1.6-5l1.2-2.4c.9-1.7,1.2-2,.7-1l-4.6-.6c2.3,1.1,1.2,6.9.8,8.6a17.29,17.29,0,0,1-3.8,7.8c-1.5,1.7-4.5,4.3-6,1.8-1.2-2-.4-6.4-.1-8.4a30.52,30.52,0,0,1,3.2-9.2l1.2-2.1c1.4-1.7.1-2.6-4-2.7-.2.8.6,2.3.7,3.2a14.87,14.87,0,0,1-1.2,7.5,13.6,13.6,0,0,1-2.4,3.8,9.27,9.27,0,0,1-1.4,1.4c-1.5.9-1.2,1,.7.6,1.2.9,2.4,1.8,3.6,2.8-.9-1.4.8-6.2,1.3-7.6a26.6,26.6,0,0,1,4.3-7.5l-11.2-3c-.1.7-.7,3.6-1.5,3.7l4.6.6c-.2-.2-.5-.3-.7-.5.9,1.2,1.8,2.4,2.8,3.6-.9-2.2.5-9,2-10.9l-5.8,1.5c.2,0,.5.1.7.1-1.2-.9-2.4-1.8-3.6-2.8,1.3,1.7.2,3.7-.7,5.3a5.24,5.24,0,0,1-1.1,1c-1.8.9-.6,1.7,3.5,2.6.3-.4.5-4.2.6-4.8.4-1.5,1.4-3.1,1.6-4.6.3-.5.5-1,.8-1.4-2.4-3.9-3.8-4.5-4-1.6-.7.9-.9,2.6-1.5,3.6a13.24,13.24,0,0,1-1.2,2c-1.5,1.7-1.1,1.8,1.2.5l4.2,1.8c.3,1.4.4,1.2.3-.7a15.46,15.46,0,0,1,.4-3.1,34.48,34.48,0,0,1,1.2-4.6,30.1,30.1,0,0,1,5.5-9.7,23.91,23.91,0,0,1,2.2-2.3c-1.6-1.7-2-1.8-1-.1-.1,1.4.7,3,.6,4.6-.1.8-3.2,8.4,1.8,5.4a4.23,4.23,0,0,1,.5-3.1,4.43,4.43,0,0,1,1.2-1.5,8.64,8.64,0,0,1,1.4-1.3q2.25-.75,0-1.2c.3,1.6.4,3.9-1,5-2.7,2-2.8-2.5-2.2-4.2a11.07,11.07,0,0,1,2.9-3.9,20,20,0,0,1,2.2-1.9c-.8-1.3-.9-1.5-.5-.5,0,1.7.9,3.3.7,5.2-.1,1.1-1.7,4.5-.6,4.6l4.2,1.8q.45,3.3.9,1.2a8.49,8.49,0,0,1,.9-2.2,12,12,0,0,1,2.9-3.8c2.8-2.6,3.1-1.6,3.9,1.8a50.1,50.1,0,0,1,0,21.8c3.9.5,7.9,1.1,11.8,1.6a2.12,2.12,0,0,1,.9-2.1l-4.6.6c2.4.4,1.5,7.4,1.2,8.5,3.7-.5,7.3-1,11-1.4a3.12,3.12,0,0,1-.2-3.1c-3.7-.5-7.3-1-11-1.4a10.7,10.7,0,0,1-1.3,8.2h10.4c-1.7-2.9-1.6-7.6-2.2-10.8-.6-3.9-1.2-7.9-1.8-11.8-.3-1.8-.6-3.7-.8-5.5-.1-.6.2-3.7-.2-4.2-3.5.4-4.3,1.3-2.5,2.7a7.46,7.46,0,0,0,.7,1.2c.1.3.5,4.1,1.4,2.1.3-.7-.5-3.1-.3-4.1.2-1.6,1.6-3.3,1.7-4.7,1.7-1.5,1.2-2.1-1.5-1.7a8.75,8.75,0,0,1,.8,1c.2,1.2,1.8,2.8,2.3,4.1.2.4.8,3.7,1.1,3.8,3.9,1.8,1.4-3.5,1.3-4.1-.8-3.2.7-5,1.8-7.7a4.89,4.89,0,0,1,1.3-1.2c-1.1-.5-1.3-.3-.5.5a15.89,15.89,0,0,1,1.7,5.2,8.22,8.22,0,0,1,.2,2.7c3.2.4,4.4-.1,3.4-1.6.2-.7-.6-2.9-.5-3.9.2-1.3,1.3-2.7,1.4-3.9,1-1.3,0-1.7-3-1.4a13.44,13.44,0,0,1,1.2,2.4,23.53,23.53,0,0,1,1.4,5.2c.2,1.1-.3,3.6.1,4.4.7,1.5.3-1,.4-1.6a16.5,16.5,0,0,1,.9-4.3c1.2-2.5,3.7-2.9.1-4s-1.6.7-1.1,3.3a25.6,25.6,0,0,1,.5,5.5,24.37,24.37,0,0,1-.1,2.7c4.6.7,6.3,0,5-2.2,0-1.6-1-3.2-.9-5a10.07,10.07,0,0,1,.3-2.5c.9-1.7.8-2-.5-1l-4.6-.6c1.4.7,2.3,4.5,2.7,5.7a15.47,15.47,0,0,1,.6,3.1,8.08,8.08,0,0,1,.1,1.6c0,1.1,0,1.1.2,0l4.2-1.8h-1.3l4.2,1.8c-.7-.6-.8-1.8-1-2.7-.5-2.1.4-2.9-1.7-1l-5.8,1.5c-.9-.7-1.9-1.3-2.8-2-.1,7.7,11.9,7.7,12,0,.1-3.9-1.6-8.4-5.7-9.5-5.7-1.6-8.5,3.7-8.3,8.5.1,4.2,1.4,9.9,4.3,13,3.5,3.8,9.8,2.8,12.4-1.5,4.3-7-.4-22.2-6.9-26.6-4.1-2.7-9.1-.8-11.5,3.2a23.6,23.6,0,0,0-2.2,16.5c1,4.4,3.3,9.5,7.8,11.2a8.3,8.3,0,0,0,10.8-5.3c2.4-7.3,1.3-24.2-7.6-27-10.4-3.3-17.2,14-15.8,21.8,1.6,9,13,15.4,20.1,7.7,6.5-6.9,3.2-21.7-2.2-28.3-8-9.8-18,2.3-19.4,10.6-1.4,8.1,3.7,21.8,14.4,18.9,10.9-3,6.3-21,1.4-27.2-7-8.7-17.8-2.3-21.7,5.9-3.6,7.8-2.4,19.6,5.9,24.1a10.35,10.35,0,0,0,12.7-2.2c3.2-3.7,2.7-8.9,1.2-13.3-3-8.5-11.7-19.8-20.9-10.7-7.2,7.1-9.7,23.5.3,29.4a10.85,10.85,0,0,0,13.9-2.1c3.6-4.2,3.5-10.3,1.5-15.2s-6.6-10.1-12.3-10c-5.5.1-8.5,5.2-8.9,10.2-.5,6.2,1.3,13,2.3,19.2s.9,14,4.3,19.6a6.13,6.13,0,0,0,10.4,0,23.3,23.3,0,0,0,2.6-17.5c-1.1-4.8-8.7-6.1-11-1.4a15.79,15.79,0,0,0,.2,15.2c2.5,4.6,9.6,3.4,11-1.4,2-7.3.6-17.3-6.1-21.9-8.4-5.7-14.2,4.5-14.9,11.7-.6,6.7,10.4,8.2,11.8,1.6,2.2-10.3,3-23.3-1.6-33.1s-15.4-8.8-22.3-2c-5,4.9-12.8,18.9-2.8,23.1,10.6,4.5,15.5-11.6,14.8-19.2-.9-9.7-8.4-17.9-18.2-12-8,4.5-14,14-11,23.1a13.39,13.39,0,0,0,20.6,7c7.3-5,9.4-18.5,2-24.4s-17.9,1.5-21.3,8.6c-3.8,7.9.7,23.1,11.9,18.3,8.9-3.9,10.4-17,7.2-25-1.6-4-4.7-7.6-9.2-8-4.8-.5-8.6,3.2-11.5,6.6-6.4,7.3-11,17.6-10.6,27.5.1,3.6,1.7,7.3,5.2,8.8,4.5,1.9,8.1-1.1,10.6-4.6,4.3-6.1,10-19.7-.2-23.5-10.5-3.9-16,10.2-17.2,18.1-.7,4.6-1,9.9,3.2,13,4.1,2.9,9.3,1.1,12.9-1.9,5.8-4.8,10.7-20.7.5-23.9s-14,17.6-11.6,24a7.28,7.28,0,0,0,11,3.5c4.8-3,6.9-8.7,7.4-14.1.6-6.6-8-7.2-11.2-3a35.29,35.29,0,0,0-7.1,19.7c-.3,6.5,3.8,12.9,11,10.1,11.4-4.4,16.2-20.8,12.3-31.6-2.4-6.7-9.7-9-15-3.5-4.8,5-7.6,12.8-8.7,19.5-.9,6-1.1,12.9,2.7,18,4.3,5.8,11.8,6.3,17.9,3.2,11.2-5.8,17.4-23,11.5-34.4-3.6-7-11.6-7.8-16.2-1.3a37.93,37.93,0,0,0-6.5,20.9c-.1,6.8,1.9,14,7.8,18s13.7,2.8,18.8-2.1c8-7.7,12.9-31.1-1.6-35.2-8.1-2.3-12.7,6.3-13.9,12.9-1.2,6.9.3,15,6.2,19.3,13.6,10.1,31.7-12.5,22.3-24.5-2.9-3.7-8.9-1.3-10,2.6-2.2,7.8-1.1,20.1,8.5,22.1,8.2,1.8,16.8-5,19.7-12.3,1.4-3.6,1.6-8.1-1.5-10.9a7.52,7.52,0,0,0-10.8.4c-5.4,6-2.5,17.6,6.9,16,8.1-1.3,12.6-11.3,10.1-18.7-3.4-10.1-15.7-6-17.5,2.7-1.6,7.5,5.8,16.5,13.5,11.8,6.9-4.2,6.9-16.8,3.1-22.9-5.3-8.5-16.5-3.8-19.4,4.2-2.6,7.3,2.2,18.9,11.6,15.5,8.5-3.1,7.7-14.6,3.2-20.7-6.3-8.5-16.6-5.1-19.1,4.5-1.8,6.9.4,19.4,10.1,17.8,8.8-1.5,10.3-14.6,9.3-21.7-1.2-8.2-7.6-15-16.4-11.9-8.1,2.9-12.7,12.9-10.7,21.1,2.2,8.7,13.3,12.7,18.4,4,4.4-7.4,4.5-20.8-1.5-27.3-8.7-9.3-17.8,2.8-19.3,11.2-.7,4.3-.9,9.3,3,12,4.1,2.8,8.8,1,11.9-2.3,5.2-5.8-3.3-14.3-8.5-8.5Z" transform="translate(-31.6 -101.2)"/><path class="cls-1" d="M64.7,131c-3.1-.7-4.7,0-4.8,2.2,1.7.9,3,.8,3.7-.4-1.2.9-2.4,1.8-3.6,2.8.2-.1.4-.1.6-.2l-5.8-1.5c-2.6-2.8-2.1-3,1.7-.5,2.2,2.4,3.6,2.5,4,.2,2-4.8-4.7-9.7-8.8-6.8l-.3.6c1.7,1,3.5,2,5.2,3-.6-.9,1.6-5.8,2-6.6.9-2.2,1.8-4.3,3.9-5.3,4.6-2.4,12.1-3.7,17.2-2.8,6.6,1.2,10.5-7,4.6-11-.3-.2-.6-.4-1-.7-2,3.5-4,6.9-6.1,10.4-.7-.8-.5-.3.5,1.5.3.8.6,1.7.9,2.5a57.57,57.57,0,0,1,1.8,5.9c2,7.5,13.6,4.3,11.6-3.2-1.5-5.6-3.2-14.1-8.7-17.1-6.8-3.8-12.4,6.1-6.1,10.4.3.2.6.4,1,.7,1.5-3.7,3.1-7.3,4.6-11-11-1.9-27.9.6-33.6,11.5-2.7,5.1-5.3,11.6-4.3,17.4,1.2,6.7,7.6,8,12.8,4.3-2.9-2.3-5.9-4.5-8.8-6.8-2.7,6.5,2.3,15.4,10.1,11.7,5.6-2.7,8.9-11.8,4.2-16.6a6,6,0,0,0-5.8-1.5c-8,2.2-7.9,14.5-2.3,19.1,7.5,6.3,16.3-1.3,16.9-9.4.7-8.5-9-13.9-15.2-7.1s-.7,16.7,8,16.6c7.6-.4,7.7-12.4-.1-12.3Z" transform="translate(-31.6 -101.2)"/><path class="cls-1" d="M73.8,127.7c2.7,1.5,4,1.3,3.6-.4-3.1-.3-4.2,0-3.4,1.1-.6-1.4,3.3-1.9.3-2-1.7-1-3.5-2-5.2-3,1.2,1.7-4.4-.1,1.2,1.5,1.1.9,1.9.9,2.3-.1q1.2-1.65-1.2.3l-5.8-1.5c.1.2.3.3.4.5l-1.8-4.2c.5-1.1,1.5-.8,3,.8l1.8,4.2c-.8,1.9-.6,2,.6.4a7.61,7.61,0,0,1,1.9-1.2c2.7-1,2.2-3.4-1.4-7.3-1.2.4-1.4.5-.5.4l4.2,4.2c-.5,1.7-.3,1.9.4.6a4.31,4.31,0,0,1,1.9-1.3c1.6-.7,2.9-.3,4.4.5,3.5,1.7,6.5,4.7,9.8,6.7s7.1,3.8,10.2,6.3c2.1,1.7,6.4,5.7,5.5,8.9l4.2-4.2c-1,.1-1.1.5-.5,1.2a7.79,7.79,0,0,1,.4-2.1,8.78,8.78,0,0,1,1.2-2.1c1.3-.7,1.2-1-.3-.6-.9-1.2-1.8-2.4-2.8-3.6.3,1.1-1.3,1.8-1.7,2.5a5.36,5.36,0,0,1-1.1.5c1,.7,2,1.5,3.1,2.2.4-.4,0-2.8.7-3.5-.1-.1-.1-.3-.2-.4a2.81,2.81,0,0,1,1,1.4c.5,1.4,1.1.8,1.9-1.9-.1,0-.1-.1-.2-.1a46.82,46.82,0,0,0,2.7-4.4c2.4-5,.4-.8-.3-3.3-.3-1-.4-1.9-.7-2.9-1.8-4.9-8.3-7.6-12.9-8.9-3-.9-5.6-.4-7.7-2.9a20,20,0,0,0-6.3-5.3c-1.5,3.7-3.1,7.3-4.6,11,7.7,1.2,15.6,2.8,23.5,2.5a52.3,52.3,0,0,0,10.5-1.7,26.71,26.71,0,0,0,4-1.3c.5-.2,4.3-2.1,2.7-1.7l-5.8-1.5a11.94,11.94,0,0,1,2.9,5.7c.8-1.3.7-1.5-.3-.7-2.3.6-2.4,2.6-.3,5.8l-4.2-1.8a4.62,4.62,0,0,0,.7.7c-.5-1.9-1-3.9-1.5-5.8a10.91,10.91,0,0,0,1.1-.6l4.2,4.2c.9,2.7-.4,1.6,1.5.8l-4.6.6c.2,0,.3.1.5.1l-4.2-4.2V116c-5.1,5.8,3.3,14.3,8.5,8.5,2.5-2.8,4.3-6.4,3.3-10.2a6.68,6.68,0,0,0-8.1-4.9c-6.3,1.6-12.9,12.4-5.7,16.9,6.2,3.9,17.2-2.7,15.1-10.3-2.4-8.7-14.2-5.2-16.8,1.3-3.6,8.9,5.4,14.1,13,11.6,8.2-2.6,11.7-9.3,8.5-17.4-1.4-3.5-3.5-8.4-7.5-9.5s-6.4,2.2-9.9,3.1c-9.3,2.4-18.3.7-27.6-.7-6.2-.9-11.2,7.5-4.6,11,2.9,1.5,4,4.6,6.6,6.4,2.1,1.5,4.4,1.8,6.9,2.3s6,1.1,8.1,2.9v-.7a7.85,7.85,0,0,0,.5,2.2,14.43,14.43,0,0,0,1.9,3.7c2.9,4.2,8.5,6.8,13.6,5.6a8.73,8.73,0,0,0,6-11.8c-4.8-12.8-21.8-6.6-24.1,4.4s13.2,20.7,20.4,10.5c6.4-9.1-5.9-23.7-16-18.6-8.4,4.3-12.7,22.5-.5,24.7,9.9,1.8,23-14.2,13-21.6s-20.1,7.5-19.3,16.4c1,12,21,14.1,20.3.7-.6-12.4-12.5-18.9-21.8-24.5-4.7-2.8-8.9-7.1-14.3-8.6a16.65,16.65,0,0,0-15.4,3.8c-3.2,2.9-6,7.5-4.4,11.9,2.3,6,9.3,5.4,13.9,2.5,3.8-2.3,6.4-6.8,3.9-11.1-3.2-5.5-10.5-4.8-15.2-2-3.7,2.2-8.2,6.2-7.9,10.9.4,6.5,7.8,7.9,12.7,5.4,3.8-1.9,6.9-6.1,6.6-10.5a6.69,6.69,0,0,0-11.7-4.1c-3.3,3.4-5.5,8.7-4.1,13.4a9.65,9.65,0,0,0,13.5,6c4.9-2.4,8-8.9,7-14.2-1.3-7-8.5-8.1-13.4-3.7-4.7,4.3-7.4,11.5-3.9,17.4a10.77,10.77,0,0,0,14.8,3.7c5.4-3.5,7.1-11.3,3.3-16.6-3.6-4.8-10.8-6-14.5-.7-3,4.2-2.3,11.2,1.1,15,4.9,5.6,11.9,2.9,15.8-2.2,2-2.6.4-6.7-2.2-8.2-3.1-2.4-6.2-.9-8.2,1.6Z" transform="translate(-31.6 -101.2)"/><path class="cls-1" d="M137.1,126.6c-1.1-.7-.4-2-1.2-.2-1.2.9-2.4,1.8-3.6,2.8h-1.8c-1.2-.9-2.4-1.8-3.6-2.8,0-.8.1-1.5.1-2.3,1.9-1.5,3.9-2.9,5.8-4.4,2.7,2.5,3.9,2.7,3.5.4v-2.9a17.11,17.11,0,0,0-1.5-5.9,17.63,17.63,0,0,0-8-8.4c-1,3.7-2,7.5-3,11.2,6.1-.1,13.6,2.5,16.6,7.9,3.6,6.4,1.8,12.8,2,19.8,3.9-.5,7.9-1.1,11.8-1.6-1.9-4.9-3.4-10.1-5.7-14.8-.8-1.7-2.3-2.8-3.3-4.4-1.1-1.8-1.6-3.6-2.9-5.3l-8.5,8.5a17.4,17.4,0,0,1,6.2,9.9c.3,1.7.3,3.3.7,5,.5,2,1.5,3.9,1.8,5.9.7,6,7.5,8.1,11.2,3,3.1-4.3,1.3-9.7.4-14.4-1.4-7.6-13-4.4-11.6,3.2.2,1,1.3,4.5.8,5.2l11.2,3a40,40,0,0,0-1.8-7.6c-.8-2.8-.8-5.6-1.6-8.4a29.32,29.32,0,0,0-8.9-13.3c-6.1-4.9-13.3,2.4-8.5,8.5-1-1.3.9,2.7,1.2,3.2.8,1.2,2,2.1,2.8,3.3,2.2,3.7,3.3,8.6,4.9,12.6,2.3,6,12,5.6,11.8-1.6-.1-5,1.1-10.3.2-15.1a33.64,33.64,0,0,0-5.7-13.5c-5.4-7.4-16.2-11.3-25.2-11.1-5.8.1-8.4,8.3-3,11.2,4.8,2.6,2.9,6.8,4,11.3.9,3.6,3.9,7.6,8.1,7.2a6.45,6.45,0,0,0,5.8-4.4c2.6-6.7-6.8-13.6-12.1-8.2s-.6,14.4,4.5,17.8c6.5,4.3,12.5-6.1,6.1-10.3Z" transform="translate(-31.6 -101.2)"/><path class="cls-1" d="M48.9,162a19.81,19.81,0,0,1-1,5.4c3.9.5,7.9,1.1,11.8,1.6a38.88,38.88,0,0,1,1.9-12.2c-3.9-.5-7.9-1.1-11.8-1.6a67.49,67.49,0,0,1-1.1,14.2c3.9.5,7.9,1.1,11.8,1.6a53.63,53.63,0,0,1,3.4-19c-3.9-.5-7.9-1.1-11.8-1.6a50.76,50.76,0,0,1-2,14.5c3.9.5,7.9,1.1,11.8,1.6a45.74,45.74,0,0,1,2.4-14.7c-3.3.9-6.7,1.8-10,2.6-.9-2-1.4-2.3-1.4-.9a18.46,18.46,0,0,1-.4,2.3c3.9,1.1,7.7,2.1,11.6,3.2.8-4.1,1.6-8.1,3.9-11.7l-11.2-3a51.22,51.22,0,0,1-3.1,13.4c3.9.5,7.9,1.1,11.8,1.6A73.16,73.16,0,0,1,67.4,147a6,6,0,0,0-11-4.6c-4.3,6.4-5.8,14.1-9.8,20.7l11.2,3a27.59,27.59,0,0,1,.7-8.6c1.8-7.5-9.6-10.7-11.6-3.2a96.51,96.51,0,0,1-3.3,10.4H55.2v.8c1-7.4-9.2-10.8-11.6-3.2-.1.3-.3.6-.4.9l11.2,3a6.92,6.92,0,0,1-.1-2.5c.1-6.6-10.5-8.4-11.8-1.6-.1.5-.2,1-.3,1.6,3.9.5,7.9,1.1,11.8,1.6-.1-5.4,1.1-10.7,1.7-16.1.6-5.6,1.1-11.2,1.4-16.9.5-7.7-11.5-7.7-12,0-.3,5.6-.8,11.3-1.4,16.9-.6,5.4-1.8,10.7-1.7,16.1.2,6.5,10.5,8.5,11.8,1.6.1-.5.2-1,.3-1.6-3.9-.5-7.9-1.1-11.8-1.6a10.68,10.68,0,0,0,.1,2.5c.7,5.5,7.9,8.6,11.2,3a17.25,17.25,0,0,0,1.6-3.7c-3.9-1.1-7.7-2.1-11.6-3.2a17.53,17.53,0,0,0,0,5.6c.9,6.5,9.8,4.8,11.6,0a96.51,96.51,0,0,0,3.3-10.4c-3.9-1.1-7.7-2.1-11.6-3.2a39.17,39.17,0,0,0-1.2,11.8c.3,5.8,8,8.3,11.2,3,3.9-6.6,5.5-14.3,9.8-20.7-3.7-1.5-7.3-3.1-11-4.6a101.91,101.91,0,0,0-2.4,15.5c-.4,7.2,9.5,7.5,11.8,1.6a63.17,63.17,0,0,0,3.6-16.6c.5-6.3-8.2-7.7-11.2-3-2.8,4.4-4.1,9.4-5.1,14.5-1.5,7.5,10,10.8,11.6,3.2.8-3.9,2.4-10.1-1.3-13.1-3.5-2.8-8.5-2-10,2.6a57.24,57.24,0,0,0-2.8,17.9c0,6.8,9.9,8.1,11.8,1.6a62.56,62.56,0,0,0,2.5-17.7c0-7-9.5-7.8-11.8-1.6a64.22,64.22,0,0,0-3.8,22.1c0,6.6,10.5,8.4,11.8,1.6A78.23,78.23,0,0,0,61.9,155c-.2-6.8-9.7-8.1-11.8-1.6a50,50,0,0,0-2.3,15.4c0,6.9,9.7,7.9,11.8,1.6a31,31,0,0,0,1.5-8.6c0-7.5-12-7.5-12.2.2Z" transform="translate(-31.6 -101.2)"/><path class="cls-1" d="M58.1,168.8c-.2.3-.3.5-.5.8l2.2-2.2c-.3.1-.5.3-.8.4,2.9,1.2,5.9,2.4,8.8,3.6a4.49,4.49,0,0,1,.5-3c-3.9-.5-7.9-1.1-11.8-1.6-.2,1.6-.8,5.7-1.4,6.4l10.2,4.2a12.19,12.19,0,0,1,.8-5.7l-11.2-3a29,29,0,0,1-1.4,7.7,6.14,6.14,0,0,0,4.2,7.4c3.4.9,6.2-1.2,7.4-4.2.8-1.9,1.5-3.8,2.3-5.8-3.9-1.1-7.7-2.1-11.6-3.2-.4,2.1-.8,4.3-1.2,6.4-1.4,7.5,9.2,10.6,11.6,3.2.5-1.5,1-3.1,1.4-4.6-3.9-.5-7.9-1.1-11.8-1.6a16,16,0,0,1-.4,4.9c-1.6,7.5,9.6,10.7,11.6,3.2.3-1.3.7-2.6,1-3.9-3.9-.5-7.9-1.1-11.8-1.6a3.53,3.53,0,0,1-.3,1.4c-1.9,7.7,8.7,10.2,11.6,3.2.1-.3.3-.6.4-.9-3.9-.5-7.9-1.1-11.8-1.6v.3c3.9.5,7.9,1.1,11.8,1.6,0-.3.1-.6.1-.9H56a.1.1,0,0,0-.1-.1c.5-.9,1-1.8,1.5-2.6a2.65,2.65,0,0,0-.5.6l9.4,1.2a13.86,13.86,0,0,1-.9-3.5c-1-5.6-8.3-5.2-11-1.4-.9,1.3-1.2,4.1-2.2,5.1,3.3.9,6.7,1.8,10,2.6a29,29,0,0,1-.1-5.9c.3-7-9.7-7.8-11.8-1.6a62.63,62.63,0,0,1-2.1,6.1l2.2-2.2c-.3.1-.5.3-.8.4,2.9,1.2,5.9,2.4,8.8,3.6a17,17,0,0,1,.1-4.5,6,6,0,0,0-11.6-3.2c-.6,1.6-1.2,3.2-1.9,4.8,3.9.5,7.9,1.1,11.8,1.6a23.53,23.53,0,0,1,.2-5.3c.5-3.2-.8-6.5-4.2-7.4-3-.8-6.7,1-7.4,4.2a11.24,11.24,0,0,1-1,3.1l11.2,3a18.1,18.1,0,0,1,.4-4c1.5-7.7-8.7-10.3-11.6-3.2-.3.7-.5,1.4-.8,2,3.9.5,7.9,1.1,11.8,1.6a5.93,5.93,0,0,1,0-2.3c1.4-7.6-9-10.5-11.6-3.2-.2.7-.5,1.4-.7,2.1,3.9.5,7.9,1.1,11.8,1.6a5.83,5.83,0,0,1,.2-2.3c1.5-7.5-9.7-10.7-11.6-3.2a7.37,7.37,0,0,1-.4,1.4l11.2,3v-2.3c0-5.6-8.7-8.7-11.2-3-.2.3-.3.7-.5,1,3.7.5,7.3,1,11,1.4h-.1c-.5-6.9-9.4-7.9-11.8-1.6l-.3.9c3.9.5,7.9,1.1,11.8,1.6a8.57,8.57,0,0,1,.5-2.7c-3.9-.5-7.9-1.1-11.8-1.6.1,4.8-.8,9.7-1.3,14.5-.3,3.2,3,6,6,6,3.6,0,5.6-2.8,6-6l.6-4.5h-12v.3c3.9.5,7.9,1.1,11.8,1.6a19.22,19.22,0,0,1,0-2.4c.5-3.2-.8-6.5-4.2-7.4-2.9-.8-6.8,1-7.4,4.2-.2,1.2-.4,2.4-.6,3.7,3.9.5,7.9,1.1,11.8,1.6v-1.5c.2-6.6-10.8-8.4-11.8-1.6-.2,1-.3,2-.5,3,3.9.5,7.9,1.1,11.8,1.6a42.4,42.4,0,0,1,1.2-8.6c1.7-7.5-9.8-10.7-11.6-3.2a67,67,0,0,0-1.6,11.8c-.3,6.6,10.8,8.4,11.8,1.6.2-1,.3-2,.5-3-3.9-.5-7.9-1.1-11.8-1.6v1.5c-.2,6.6,10.6,8.4,11.8,1.6.2-1.2.4-2.4.6-3.7-3.9-1.1-7.7-2.1-11.6-3.2a35.32,35.32,0,0,0-.5,5.6c.1,6.5,10.4,8.4,11.8,1.6a20.85,20.85,0,0,0,.4-3.5,6.08,6.08,0,0,0-6-6c-3.6,0-5.6,2.8-6,6l-.6,4.5h12c.5-4.8,1.3-9.6,1.3-14.5-.1-6.8-9.9-8.2-11.8-1.6a29.12,29.12,0,0,0-.9,5.8c-.3,7.2,9.5,7.6,11.8,1.6l.3-.9c-3.9-.5-7.9-1.1-11.8-1.6a17.73,17.73,0,0,0,.5,3.2c1.3,4.5,8.8,6.4,11,1.4.2-.3.3-.7.5-1l-11.2-3v2.3c0,5.6,8.5,8.6,11.2,3a24.06,24.06,0,0,0,1.6-4.2c-3.9-1.1-7.7-2.1-11.6-3.2a25.73,25.73,0,0,0-.6,5.5c0,7,9.6,7.8,11.8,1.6.2-.7.5-1.4.7-2.1-3.9-1.1-7.7-2.1-11.6-3.2a20.42,20.42,0,0,0-.4,5.5c.6,7,9.2,7.9,11.8,1.6.3-.7.5-1.4.8-2-3.9-1.1-7.7-2.1-11.6-3.2a35.29,35.29,0,0,0-.8,7.2c-.1,5.8,8.5,8.4,11.2,3a21,21,0,0,0,2.2-5.9c-3.9-1.1-7.7-2.1-11.6-3.2a48.62,48.62,0,0,0-.6,8.5c.3,7,9.4,7.8,11.8,1.6.6-1.6,1.2-3.2,1.9-4.8-3.9-1.1-7.7-2.1-11.6-3.2a30.16,30.16,0,0,0-.1,10.8c.6,4.1,5.8,5.1,8.8,3.6,4.1-2,4.9-7.5,6.2-11.5-3.9-.5-7.9-1.1-11.8-1.6a55.66,55.66,0,0,0,.6,9.1c.6,4.7,7.1,5.5,10,2.6,2.3-2.2,2.4-5.1,4.1-7.5-3.7-.5-7.3-1-11-1.4a28.24,28.24,0,0,0,2.1,6.4c1.6,3.5,7,3.8,9.4,1.2a8.77,8.77,0,0,0,2.6-6.3,6.15,6.15,0,0,0-6-6c-3.6,0-5.6,2.8-6,6,0,.3-.1.6-.1.9-.9,6.7,10.5,8.2,11.8,1.6a20.86,20.86,0,0,0,.4-3.5c-.1-7.2-9.4-7.6-11.8-1.6-.1.3-.3.6-.4.9,3.9,1.1,7.7,2.1,11.6,3.2a23.21,23.21,0,0,0,.7-4.6c.6-6.8-10.1-8-11.8-1.6-.3,1.3-.7,2.6-1,3.9,3.9,1.1,7.7,2.1,11.6,3.2a31.83,31.83,0,0,0,.8-8.1c-.2-6.8-9.7-8.1-11.8-1.6-.5,1.5-1,3.1-1.4,4.6,3.9,1.1,7.7,2.1,11.6,3.2.4-2.1.8-4.3,1.2-6.4,1.5-7.7-8.7-10.3-11.6-3.2-.8,1.9-1.5,3.8-2.3,5.8,3.9,1.1,7.7,2.1,11.6,3.2a50.65,50.65,0,0,0,1.8-10.9c.3-5.7-8.7-8.5-11.2-3A24.08,24.08,0,0,0,53,177.4c.3,4.7,6.7,8.6,10.2,4.2s4.3-9.6,4.9-14.9c.3-2.9-2.5-5.6-5.2-5.9-3.1-.4-5.5,1.4-6.6,4.3a16.72,16.72,0,0,0-.5,9.4c.9,4,5.6,5.2,8.8,3.6a9.25,9.25,0,0,0,3.5-3.3c4.7-6.3-5.7-12.4-10-6Z" transform="translate(-31.6 -101.2)"/><path class="cls-1" d="M142.2,162.8c0,.1-.8,3.5-.8,3.5l4.6-.6c2.1.6-.1-1.9-.4-3.5a11.81,11.81,0,0,1,.2-5.6H134.2a36.27,36.27,0,0,1,.5,12.3l11.2-3c-1-1.5-4.1-6.4-2-8.1l-5.8,1.5c-2-1.4-2.6-1.1-1.7.9l.6,2.7,1.2,6.3c1.1,6.6,12.7,5.1,11.8-1.6-.6-4.3-.9-8.7-1.1-13.1l-11.2,3a40.15,40.15,0,0,1,3.2,8.1c3.9-1.1,7.7-2.1,11.6-3.2-1.4-3.7-2.8-7.3-3-11.3l-10.2,4.2c1.4,1.2,2.1,6,2.7,7.8,3.7-1.5,7.3-3.1,11-4.6a16.75,16.75,0,0,1-2.8-8.1l-11.2,3c2,3,2.5,6.6,3.8,9.9,2.8,7,13.2,4.5,11.6-3.2a71.77,71.77,0,0,1-1.3-9.3c-3.9.5-7.9,1.1-11.8,1.6a62.22,62.22,0,0,1,3.1,10.4c1.5,6.5,12.2,5.2,11.8-1.6l-.6-9.3c-3.9.5-7.9,1.1-11.8,1.6a18.41,18.41,0,0,1,.5,4.1c.5,7.7,11.9,7.8,12,0a62.85,62.85,0,0,0-1.1-13c-1.4-7.7-12.6-4.3-11.6,3.2.7,4.9,1.3,9.8,2,14.7.4,2.9,4,4.7,6.6,4.3,3.2-.4,4.9-2.9,5.2-5.9a30.17,30.17,0,0,0,.2-5.2h-12c.5,5.5,1.1,11,1.6,16.5.6,6.1,10.8,8.8,11.8,1.6.1-.5.1-1,.2-1.4,1-7.7-8.6-10.4-11.6-3.2-1.1,2.6-1.9,5.7-3.4,8,1.2-.9,2.4-1.8,3.6-2.8,4-.8,1.5.2.5-2.6-3.3,1.9-6.7,3.9-10,5.8,2.1-.2,4.2-.5,6.3-.7-1.2.9-2.4,1.8-3.6,2.8.1,0,.2-.1.4-.1l-5.8-1.5c-.2-.7-.5-1.4-.7-2.2.9-1.2,1.8-2.4,2.8-3.6-.3.2-.6.3-.9.5l4.6-.6c-.3-.1-.7-.2-1-.3,1.2.9,2.4,1.8,3.6,2.8.1.4.2.7.3,1.1l-11.2,3c.1.3.3.5.4.8v-6.1c-.1.2-.3.5-.4.7,2.3-.9,4.5-1.8,6.8-2.8-.2,0-.4-.1-.6-.1,1.2.9,2.4,1.8,3.6,2.8-.1-.2-.2-.3-.3-.5.2,1.5.4,3.1.6,4.6.1-.2.1-.3.2-.5-3.3.9-6.7,1.8-10,2.6.2.2.4.3.5.5l-1.8-4.2c.1,2.4,1.1,4.3,2,6.4,3.1-2.4,6.3-4.8,9.4-7.3-.2-.3-.4-.5-.6-.8-3.2-3.8-10.9-.9-10.2,4.2.1.6.1,1.1.2,1.7l7.6-5.8c.4.2.9.4,1.3.6-4.1-4.4-11.7.2-10,5.8a2.92,2.92,0,0,1,.2.9c2.2,7.4,13.3,4.3,11.6-3.2-.1-.5-.2-1-.3-1.4-3.7,1.5-7.3,3.1-11,4.6.6,1.3,1.3,2.7,1.9,4,1.7-3,3.5-6,5.2-9a2.2,2.2,0,0,1-.8-.1c-3.7-.3-7,4.1-5.8,7.6.2.6.4,1.1.6,1.7,2.9-2.3,5.9-4.5,8.8-6.8-.2-.1-.3-.2-.5-.3,1,1.7,2,3.5,3,5.2a4.87,4.87,0,0,0-.1-1.2l-10.2,4.2c.8,1,1.6,2.1,2.4,3.1,3.1,3.9,10.9.8,10.2-4.2-.2-1.3-.3-2.6-.5-3.9l-11.2,3c1.6,2.3,3.4,4.6,5.1,6.8,3.6,4.6,9.8.3,10.2-4.2a19.29,19.29,0,0,0-.1-4.8l-11.2,3c1,1.5,1.9,3,2.9,4.5,3,4.6,11.7,3.3,11.2-3l-.3-3.3-11.2,3c.8,1.2,1.5,2.4,2.3,3.6,3,4.7,11.6,3.2,11.2-3-.1-1.8-.3-3.5-.4-5.3l-11.2,3a35.78,35.78,0,0,1,2.9,4.6c3.5,6.4,12,1.7,11-4.6l-.6-3.9c-3.7,1.5-7.3,3.1-11,4.6a22.56,22.56,0,0,1,1.1,2.2c2.6,5.1,11.8,2.9,11.2-3a15.33,15.33,0,0,1-.2-3.7l-11.2,3c.3.6.6,1.1.9,1.7,3.1,5.6,10.7,2.5,11.2-3a46.19,46.19,0,0,0-.3-9.1c-3.9.5-7.9,1.1-11.8,1.6,1.2,5.6,2.3,11.2,3,16.8l11.2-3a10.54,10.54,0,0,0-.7-1.1c-4.1-6.5-14.5-.5-10.4,6.1a10.54,10.54,0,0,0,.7,1.1c2.9,4.6,12,3.3,11.2-3a194.21,194.21,0,0,0-3.4-20c-1.4-6.5-12.6-5.2-11.8,1.6a39.63,39.63,0,0,1,.3,9.1l11.2-3c-.3-.6-.6-1.1-.9-1.7-2.9-5.3-11.1-2.8-11.2,3a15.33,15.33,0,0,0,.2,3.7l11.2-3a22.56,22.56,0,0,1-1.1-2.2c-3.3-6.5-12-1.6-11,4.6l.6,3.9c3.7-1.5,7.3-3.1,11-4.6a44.34,44.34,0,0,0-2.9-4.6c-3.2-4.3-11.7-3.5-11.2,3,.1,1.8.3,3.5.4,5.3l11.2-3c-.8-1.2-1.5-2.4-2.3-3.6-3-4.7-11.7-3.2-11.2,3l.3,3.3,11.2-3c-1-1.5-1.9-3-2.9-4.5-2.9-4.5-12-3.3-11.2,3a19.29,19.29,0,0,1,.1,4.8l10.2-4.2c-1.1-1.4-2.2-2.9-3.2-4.4-3-4.2-12-3.5-11.2,3,.2,1.3.3,2.6.5,3.9l10.2-4.2c-.8-1-1.6-2.1-2.4-3.1-3.2-4.1-10.5-.7-10.2,4.2.2,3,.9,5,3.5,6.7,4.2,2.8,10.6-1.9,8.8-6.8-.2-.6-.4-1.1-.6-1.7-1.9,2.5-3.9,5.1-5.8,7.6a2.2,2.2,0,0,1,.8.1c4.9.4,6.9-5.3,5.2-9-.6-1.3-1.3-2.7-1.9-4-3-6.4-12.4-1.7-11,4.6.1.5.2,1,.3,1.4,3.9-1.1,7.7-2.1,11.6-3.2a2.92,2.92,0,0,1-.2-.9c-3.3,1.9-6.7,3.9-10,5.8a10.42,10.42,0,0,0,4,2.5c3.3,1.4,8.1-2.2,7.6-5.8-.1-.6-.1-1.1-.2-1.7l-10.2,4.2c.2.3.4.5.6.8,4.8,5.7,11.9-1.6,9.4-7.3-2-4.5,1.2,3-.6-2a7.45,7.45,0,0,0-2.1-3.2,6.05,6.05,0,0,0-10,2.6c-1.2,3.5,1.1,7.9,4.9,8.4,2.7.4,5.3-.3,6.8-2.8a7.18,7.18,0,0,0,0-7.6c-2.9-5.5-11-2.6-11.2,3-.2,5.8,5.5,10.4,10.9,7.2,4.6-2.7,4.6-9.8.8-13.3-1.5-1.3-3.9-2.3-5.8-1.5-7.9,3.2-5.7,14.4,1.6,17,10.1,3.6,14.3-10.1,7-15.8-4.1-3.3-12.3-.5-10,5.8,1.8,4.9,5.7,10.5,11.4,11.1,7.3.8,9-8.8,11.1-13.9-3.9-1.1-7.7-2.1-11.6-3.2-.1.5-.1,1-.2,1.4,3.9.5,7.9,1.1,11.8,1.6-.5-5.5-1.1-11-1.6-16.5-.7-7.5-12.2-7.9-12,0a45.2,45.2,0,0,1-.2,5.2c3.9-.5,7.9-1.1,11.8-1.6-.7-4.9-1.3-9.8-2-14.7-3.9,1.1-7.7,2.1-11.6,3.2a53.88,53.88,0,0,1,.7,9.8h12q-.3-3.6-.9-7.2c-1.3-6.6-12.2-5.2-11.8,1.6l.6,9.3c3.9-.5,7.9-1.1,11.8-1.6a65.15,65.15,0,0,0-3.1-10.4c-2.3-5.6-12.3-5.8-11.8,1.6a89.63,89.63,0,0,0,1.8,12.5c3.9-1.1,7.7-2.1,11.6-3.2-1.7-4.3-2.4-8.9-5-12.8-3.1-4.5-11.6-3.3-11.2,3a29.34,29.34,0,0,0,4.5,14.1c3.5,5.5,13,2.1,11-4.6-1.3-4.3-2.2-10-5.7-13s-10.6-1.4-10.2,4.2a50.44,50.44,0,0,0,3.4,14.4c2.6,7.1,13.8,4.3,11.6-3.2a47,47,0,0,0-4.4-10.9c-2.9-5.1-11.4-3-11.2,3a115.71,115.71,0,0,0,1.1,13.1c3.9-.5,7.9-1.1,11.8-1.6-1-5.7-3-23.1-13-17.6-8.4,4.6-5,17.4-1,23.6,3.4,5.3,10.6,2.7,11.2-3a45,45,0,0,0-1-15.5c-1.2-5.8-10.3-5.7-11.6,0-1.6,7-.9,16.9,5,22,7.3,6.4,13.2-3.1,14.5-9.5,1-6.9-10.5-10.1-12.1-2.5Z" transform="translate(-31.6 -101.2)"/><path class="cls-1" d="M107.5,188.2c1-.1,2.1-.1,3.1-.2.9,1.2,1.8,2.4,2.8,3.6-1.2,1.1-2.4,2.2-3.6,3.2-.9-1.2-1.8-2.4-2.8-3.6,1.5-2.9,1.4-3.8-.5-2.6-1.1.5-1.8.3-1.9-.7-3.1,2.4-6.3,4.8-9.4,7.3.3.3.5.6.8.9l-1.8-4.2c.3-1.1.1-1.3-.7-.6-2,.8-2,2.5-.1,5.2l-4.2,1.8c.3,0,.6-.1.9-.1l-4.2-1.8c.7-1.3,1.4-2.7,2.1-4,1.2.9,2.4,1.8,3.6,2.8a1.45,1.45,0,0,1-.2.7c-1.2.9-2.4,1.8-3.6,2.8-1.8-1.3-3.6-2.6-5.4-4,1.2-.9,2.4-1.8,3.6-2.8-.3.1-.7.1-1,.2l4.6.6a22.56,22.56,0,0,1,1.1,2.2c-3.9-.5-7.9-1.1-11.8-1.6-.1.2-.1.5-.2.7.9-1.2,1.8-2.4,2.8-3.6-.3.2-.6.5-.9.7l4.6-.6c-.4-.1-.7-.1-1.1-.2l4.2,4.2a5.52,5.52,0,0,1-.5-3.1h-12c-.1.2-.1.3-.2.5H86a13.64,13.64,0,0,1-1-3.6c-1.2-6.4-9.7-4.9-11.6,0l-.3.6c2.3-.9,4.5-1.8,6.8-2.8-.2,0-.3-.1-.5-.1,1.2.9,2.4,1.8,3.6,2.8,0-.4-.1-.8-.1-1.2-.4-3-2-5.5-5.2-5.9-2.7-.4-6.1,1.4-6.6,4.3-.1.8-.3,1.6-.4,2.4H82.3l-.3-.9c-.8-7.5-11.7-7.9-12,0-.1,1.2-.1,2.5-.2,3.7h12a7.31,7.31,0,0,1,0-3.6h-12a5.71,5.71,0,0,1,0,2.6l11.2-3a.37.37,0,0,0-.1-.3c-1.4-6.8-11.6-5-11.8,1.6v1.1h12a2,2,0,0,1,.1-.7c-2.9,1.2-5.9,2.4-8.8,3.6,3.2,2.3,3.9,6.6,8.8,5.9,4.7-.6,5.3-4.5,7.5-7.8-1.2.9-2.4,1.8-3.6,2.8.2-.1.5-.2.7-.3l-4.6-.6c-1.5-1.1.2,1.2.5,1.8.6,1.2,1,2.6,1.7,3.8a7,7,0,0,0,4.3,3.2c1.9.5,4.5.1,5.8-1.5,2.3-2.7,2.9-6.3,4.9-9.2-1.2.9-2.4,1.8-3.6,2.8.3-.1.5-.1.8-.2-2.3-.9-4.5-1.8-6.8-2.8,2.2,3,.9,7.1,3.9,9.8a6.18,6.18,0,0,0,7.3.9,12.18,12.18,0,0,0,3.2-2.8c.4-.5.9-1,1.3-1.5,1.5-1.6,1.7-2,.8-1l-5.8-1.5a10.24,10.24,0,0,1,1.6,2.9c1.7,4.3,8.5,6.5,11,1.4a17.35,17.35,0,0,0,1.4-3.8c.1-.5.1-1.1.2-1.6.3-1.3.2-1.3-.3-.2l-7.3.9c-2.5-1.1-.9-1.2-1.1,1,1-1.7,2-3.5,3-5.2a1,1,0,0,0-.5.4l4.6-.6c2.5.5-.7-.7-1.4-1.1a8.91,8.91,0,0,0-5.1-.8c-3.2.3-5.5,2.1-7.9,4.1-3,2.6-1.9,7.6,1.2,9.4.4.3.9.5,1.3.8,2.6,1.6,6.8.8,8.2-2.2.1-.3.3-.5.4-.8l-11.2-3a10.81,10.81,0,0,0,1.5,5c2.1,3.6,8.4,4.2,10.4,0a63.51,63.51,0,0,1,5.3-9.1l-9.4,1.2c-1.4-1.6,0,1,.2,2,.4,1.5.8,3.1,1.2,4.6,1.6,6.5,12,5.2,11.8-1.6a19.88,19.88,0,0,1,1.4-8H108.4a38.15,38.15,0,0,1,1.4,7.5c.6,7.6,12.4,7.8,12,0a21.49,21.49,0,0,1,.6-6.7H110.8a15.5,15.5,0,0,1,.7,4.8c0,7.7,11.9,7.7,12,0a16,16,0,0,1,1.2-6.5l-11.2-3a34.92,34.92,0,0,1-.1,5.6c-1,7.4,9.6,10.9,11.6,3.2a37.61,37.61,0,0,1,2.7-7.3l-11.2-3a4,4,0,0,1-.3,3c3.9,1.1,7.7,2.1,11.6,3.2a16.87,16.87,0,0,1,2-5.7l-11.2-3a10.88,10.88,0,0,1-.7,3c3.9,1.1,7.7,2.1,11.6,3.2a10.63,10.63,0,0,1,1.2-3.4l-11.2-3a14.16,14.16,0,0,1-.4,2c3.9,1.1,7.7,2.1,11.6,3.2a7.27,7.27,0,0,1,.6-2.1l-11.2-3v2c3.9,1.1,7.7,2.1,11.6,3.2.1-.7.2-1.4.3-2.2-3.9-.5-7.9-1.1-11.8-1.6a5.7,5.7,0,0,0,.1,1.3c3.7-.5,7.3-1,11-1.4l-.3-.6c-3.3-7-13.6-.9-10.4,6.1l.3.6c2.1,4.5,10.1,3.5,11-1.4a17.15,17.15,0,0,0,.4-4.5c-.4-6.3-10.8-8.7-11.8-1.6-.1.7-.2,1.4-.3,2.2-1,7.5,10.4,10.8,11.6,3.2a22.38,22.38,0,0,0,.4-5.2c-.2-5.5-8.5-8.7-11.2-3a21.28,21.28,0,0,0-1.8,5c-1.6,7.5,9.6,10.7,11.6,3.2a22.55,22.55,0,0,0,.8-5.2c.4-5.8-8.7-8.4-11.2-3a37.08,37.08,0,0,0-2.4,6.3c-2,7.5,9.3,10.6,11.6,3.2a32.21,32.21,0,0,0,1.1-6.2c.6-6.1-8.4-8-11.2-3a28.74,28.74,0,0,0-3.2,8.6c-1.4,7.5,9.1,10.6,11.6,3.2a16.06,16.06,0,0,0,.8-6.2c-.4-5.5-8.2-8.7-11.2-3a52.71,52.71,0,0,0-4,10.2c3.9,1.1,7.7,2.1,11.6,3.2a43.34,43.34,0,0,0,.5-8.8c-.2-5.4-8.7-8.9-11.2-3a30.12,30.12,0,0,0-2.8,12.6h12a26.67,26.67,0,0,0-1.1-8c-1.7-5.6-10-5.8-11.6,0a30.16,30.16,0,0,0-1.1,9.9h12a54.49,54.49,0,0,0-1.9-10.7c-1.7-6.1-9.5-5.3-11.6,0a28.35,28.35,0,0,0-1.8,11.2c3.9-.5,7.9-1.1,11.8-1.6-1.1-4.2-1.6-8.6-4.5-11.9s-7.3-1.7-9.4,1.2a55.34,55.34,0,0,0-5.3,9.1h10.4c.1.3.1.7.2,1-.6-5.3-8.3-8.9-11.2-3-.1.3-.3.5-.4.8,2.7-.7,5.5-1.4,8.2-2.2-.4-.3-.9-.5-1.3-.8.4,3.1.8,6.3,1.2,9.4,1.4-1.2-1.9-1.4.6.1a8.2,8.2,0,0,0,3.7,1,6.89,6.89,0,0,0,6-4c1.7-4-.1-11.8-4.3-13.7-2.6-1.1-5.1-1-7.3.9-2.8,2.6-1.7,5-3.2,8,3.7.5,7.3,1,11,1.4-1.5-3.8-3.4-9.2-8.1-9.8a7.85,7.85,0,0,0-5.6,1.3c-1.9,1.3-3,4.2-5,5.3l7.3.9c1.1,2.5,1.4,2.5.8,0a26.81,26.81,0,0,0-.7-2.7,16.25,16.25,0,0,0-2-4.7,6.33,6.33,0,0,0-6.8-2.8,7.06,7.06,0,0,0-4.7,3.4c-1.1,1.8-1.5,4.9-2.7,6.4l5.8-1.5c-.1,0-.3-.1-.4-.1,1.2.9,2.4,1.8,3.6,2.8-2.7-3.6-3.1-9.5-8.2-10.9-5.8-1.6-7.5,4-9.9,7.7,1.2-.9,2.4-1.8,3.6-2.8-.2.1-.5.2-.7.3l4.6.6a23.48,23.48,0,0,1-1.9-2.5,21.68,21.68,0,0,0-3.2-2.7c-3.4-2.5-7.6.3-8.8,3.6a7.18,7.18,0,0,0-.5,3.8c.8,7.5,11.8,7.9,12,0v-1.1c-3.9.5-7.9,1.1-11.8,1.6a9.82,9.82,0,0,0,1.3,3.2c3.2,5.4,10.7,2.7,11.2-3a5.71,5.71,0,0,0,0-2.6c-.8-7.8-11-7.6-12,0a7.31,7.31,0,0,0,0,3.6c1,7.4,11.7,8,12,0,.1-1.2.1-2.5.2-3.7h-12a29.29,29.29,0,0,0,.7,4.1c1.5,5.3,10.5,6.1,11.6,0,.1-.8.3-1.6.4-2.4-3.9-.5-7.9-1.1-11.8-1.6.5,4.3,1,8.9,5.8,10.2a6.24,6.24,0,0,0,6.8-2.8,13.7,13.7,0,0,0,1.5-3.5H73.5a24.26,24.26,0,0,0,2.2,6.4c2,4.5,8,3.2,10.4,0a9.51,9.51,0,0,0,1.8-6.5c-.5-7.6-12.1-7.8-12,0,.1,4.9,1.1,10.3,6.9,10.8,5.2.5,8-4.2,8.1-8.9C91,186.8,80,185,79,191.8c-.6,3.5-.7,7.3,2.2,10a7.87,7.87,0,0,0,8.5,1.5c6.5-3,6.4-13.5-.4-16-14.5-5.4-11.8,25.5,2.9,15.8,4.8-3.2,6.8-10.9,2-15-5.6-4.8-12.9,1.1-11.8,7.6,2.7,16.4,32.2,4.3,21.2-8.8-4.6-5.4-12.4,1.5-9.4,7.3,3.5,6.8,11.7,8.2,18.3,5.1,5.7-2.7,9.7-10.1,3.4-14.6a9.53,9.53,0,0,0-14.4,5c-2.1,7.4,5.8,12.7,12.1,9.1,6.6-4.1.6-14.4-6.1-10.6Z" transform="translate(-31.6 -101.2)"/><path class="cls-1" d="M43.8,200.6c-.2.7-.4,1.3-.6,2,3.9.5,7.9,1.1,11.8,1.6a37.54,37.54,0,0,1,1.5-10.5c-3.9-.5-7.9-1.1-11.8-1.6a82.1,82.1,0,0,1-2.5,14c3.9.5,7.9,1.1,11.8,1.6a77.89,77.89,0,0,1,.2-10.8c.5-6.8-10.1-8-11.8-1.6-.9,3.3-1.9,6.6-2.9,9.9H51.1a15.28,15.28,0,0,1,.1-3.7h-12a8.15,8.15,0,0,1-.6,3.1c3.9.5,7.9,1.1,11.8,1.6,0-.6.1-1.1.1-1.7.3-5.8-8.6-8.4-11.2-3-.4.9-.8,1.7-1.2,2.6l11.2,3A241.45,241.45,0,0,1,52.4,179c1.3-7.6-10.2-10.8-11.6-3.2a251.85,251.85,0,0,0-3.5,31.3c-.3,5.8,8.6,8.4,11.2,3,.4-.9.8-1.7,1.2-2.6l-11.2-3c0,.6-.1,1.1-.1,1.7-.4,6.9,9.9,8,11.8,1.6a33.63,33.63,0,0,0,1.1-6.2c.6-7.7-11.3-7.6-12,0a26.7,26.7,0,0,0,.4,6.9c.9,6.2,10,5.1,11.6,0,1-3.3,2-6.6,2.9-9.9-3.9-.5-7.9-1.1-11.8-1.6a65,65,0,0,0-.2,10.8c.4,6.5,9.9,8.4,11.8,1.6a90.93,90.93,0,0,0,2.9-17.2c.6-6.9-10-7.9-11.8-1.6a52.76,52.76,0,0,0-2,13.7c-.1,6.8,9.9,8.1,11.8,1.6.2-.7.4-1.3.6-2,2-7.5-9.5-10.7-11.7-3.3Z" transform="translate(-31.6 -101.2)"/><path class="cls-1" d="M58.2,221.2c-.8-3.4.4-8.1.7-11.5.4-4.3.8-8.6,1.3-12.9.7-6.7-10.8-8.3-11.8-1.6a106.33,106.33,0,0,1-2.5,12.5c3.9.5,7.9,1.1,11.8,1.6A79.35,79.35,0,0,1,59.8,194c-3.9-.5-7.9-1.1-11.8-1.6-.4,3.4-.8,6.7-1.2,10.1-.9,7.7,11.1,7.6,12,0a65.77,65.77,0,0,1,2.1-9.8c-3.9-.5-7.9-1.1-11.8-1.6-.3,3.7-.6,7.3-1.2,11,3.9.5,7.9,1.1,11.8,1.6,0-.3-.1-.5-.1-.8-.9-7.6-12.9-7.7-12,0,0,.3.1.5.1.8.4,3,2,5.5,5.2,5.9,2.7.4,6.1-1.3,6.6-4.3.7-4.7,1.3-9.4,1.6-14.2.5-6.9-9.9-7.9-11.8-1.6a95.06,95.06,0,0,0-2.6,12.9h12c.4-3.4.8-6.7,1.2-10.1.8-6.7-10.4-8.2-11.8-1.6a95.76,95.76,0,0,0-2.5,18.5c-.1,6.7,10.1,8.2,11.8,1.6a106.33,106.33,0,0,0,2.5-12.5c-3.9-.5-7.9-1.1-11.8-1.6l-1.5,14.7c-.4,4.3-1.1,8.6-.1,12.8,2,7.7,13.5,4.5,11.7-3Z" transform="translate(-31.6 -101.2)"/><path class="cls-1" d="M58.8,226.2c2.8-6.4,3.6-12.9,3.5-19.9,0-3.6-.2-7.2,0-10.9.2-2.1.2-8.4,1.4-10H53.3c0,.1.1.1.1.2.7-2.7,1.4-5.5,2.2-8.2l-.1.1c-6.6,3.9-.6,14.3,6.1,10.4l.1-.1a6.12,6.12,0,0,0,2.2-8.2c0-.1-.1-.1-.1-.2-2.5-4.1-7.8-3.6-10.4,0-1.7,2.4-1.7,6-2.1,8.8a78.92,78.92,0,0,0-1.1,10.9c-.1,6.9,1.2,14.5-1.7,21.1-3.2,7,7.1,13.1,10.3,6Z" transform="translate(-31.6 -101.2)"/><path class="cls-1" d="M61.5,213.6c1.8-4.8,2.3-9.8,2.7-14.9-3.9.5-7.9,1.1-11.8,1.6a3.94,3.94,0,0,1-.1,2.4c3.9.5,7.9,1.1,11.8,1.6a135.2,135.2,0,0,1,3.6-20c1.9-7.5-9.7-10.7-11.6-3.2a150,150,0,0,0-4,23.2c-.7,6.8,10.2,8.1,11.8,1.6a19.66,19.66,0,0,0,.1-8.7c-1.3-7-11.3-4.8-11.8,1.6a39.2,39.2,0,0,1-2.3,11.7c-2.7,7.2,8.9,10.3,11.6,3.1Z" transform="translate(-31.6 -101.2)"/><path class="cls-1" d="M60.1,217a34.35,34.35,0,0,1,.9-4.4c-3.9-.5-7.9-1.1-11.8-1.6-.1,2.4-.3,4.8-.6,7.3-.4,2.9,2.6,5.5,5.2,5.9,3.2.4,5.4-1.5,6.6-4.3a33.58,33.58,0,0,0,3.1-13.2c0-7.7-11.7-7.7-12,0a170,170,0,0,1-1.4,17.4c3.7-.5,7.3-1,11-1.4-1.9-3.7-3.7-7.3-8.6-7-5.7.3-7,6.2-8.5,10.6,3.3-.9,6.7-1.8,10-2.6,1.7,2.2.6-.6.4-2.1-.2-1.8-.4-3.7-.6-5.5-.7-6.5-9.7-8.4-11.8-1.6a50,50,0,0,0-1.9,9.5c3.9-.5,7.9-1.1,11.8-1.6a29.73,29.73,0,0,1-.1-7.3c.6-6.7-10.6-8.3-11.8-1.6-.4,2.4-.9,4.7-1.5,7.1,3.9.5,7.9,1.1,11.8,1.6a27.16,27.16,0,0,1-.1-5.7h-12v1.6H49.8v-1l-11.2,3v.1c.7-2.7,1.4-5.5,2.2-8.2a.1.1,0,0,0-.1.1c2.9,1.2,5.9,2.4,8.8,3.6a1.65,1.65,0,0,0,.2-1.8c.3-6.9-9.9-8-11.8-1.6-.1.4-.2.7-.3,1.1,3.9.5,7.9,1.1,11.8,1.6,0-1.6-.1-3.3-.1-4.9-.1-7.7-11.9-7.7-12,0a95.8,95.8,0,0,1-.5,10.7c3.9-.5,7.9-1.1,11.8-1.6a13.54,13.54,0,0,1,.2-5.3c-3.9-.5-7.9-1.1-11.8-1.6-.2,4.8-.5,9.5-1.1,14.2h12a21.72,21.72,0,0,1,.3-4.4c1.3-7.6-10.3-10.8-11.6-3.2a47.72,47.72,0,0,0-.7,7.6c0,7.9,11.1,7.5,12,0,.6-4.7.9-9.5,1.1-14.2.3-6.7-10.3-8.2-11.8-1.6a28.83,28.83,0,0,0-.2,11.7c.5,2.9,3.9,4.7,6.6,4.3,3.2-.4,4.9-2.9,5.2-5.9a95.8,95.8,0,0,0,.5-10.7h-12c0,1.6.1,3.3.1,4.9.1,6.8,9.9,8.1,11.8,1.6.1-.4.2-.7.3-1.1-3.9-.5-7.9-1.1-11.8-1.6-.1,1.6-.4,3.4.2,5,1.3,3.5,5.3,5.7,8.8,3.6a.1.1,0,0,0,.1-.1,6.22,6.22,0,0,0,2.2-8.2v-.1c-2.8-5.7-10.9-2.5-11.2,3a15,15,0,0,0,.4,4.2c1.1,5.6,10.7,5.8,11.6,0a19.47,19.47,0,0,0,.4-4.8c-.4-7.8-11.5-7.7-12,0a36.17,36.17,0,0,0,.1,5.7c.7,6.2,10.1,8.7,11.8,1.6.6-2.3,1.1-4.7,1.5-7.1-3.9-.5-7.9-1.1-11.8-1.6a46.24,46.24,0,0,0,.5,10.5c.5,2.9,3.9,4.7,6.6,4.3,3.2-.4,4.8-2.9,5.2-5.9a36,36,0,0,1,1.5-6.3c-3.9-.5-7.9-1.1-11.8-1.6.6,5.5.1,11.7,3.7,16.1,3,3.8,8.8,1.2,10-2.6.2-.5.7-3.1,1.2-3.6l-4.2,1.8c-2.8-2.8-3.7-3.2-2.9-1.2a16,16,0,0,0,1,2.3c2.2,4.3,10.3,3.7,11-1.4a202,202,0,0,0,1.8-20.6h-12c0,3.6-1.3,6.7-2.7,10,3.9.5,7.9,1.1,11.8,1.6.3-2.4.5-4.8.6-7.3.2-6.8-10-8.1-11.8-1.6a39,39,0,0,0-1.3,7.6c-.7,7.5,11.3,7.5,12.1-.2Z" transform="translate(-31.6 -101.2)"/><path class="cls-1" d="M80.5,188.2c-.8-1.2-1.6-2.4-2.3-3.6-2.7-4.2-9.6-3.8-11,1.4-.1.3-.2.7-.3,1-1.6,6.3,8,11,11,4.6.2-.3.3-.7.5-1-3.7-.5-7.3-1-11-1.4.9,3.2.6,6.7,1.3,10,.8,4,1.8,7.9,2.7,11.9,1.5,6.5,12.4,5.2,11.8-1.6-.5-5-1.2-9.6-6.2-11.7-2-.8-4.4.2-5.8,1.5-2.6,2.3-2.3,6-2.4,9.2l11.2-3c-.6-1.4,0-5.7-.1-7.4l-10.2,4.2c2.3,2.1,3.1,7.1,4,10,1.1,3.7,1.9,7.1,4.7,9.9,3.8,3.9,10,.8,10.2-4.2a77,77,0,0,1,1.9-15.1H78.9a80.22,80.22,0,0,1,1.7,12.8h12c-.2-2.2-.3-4.5-.3-6.7,0-1-.5-4.6-.1-5.2-3.7-.5-7.3-1-11-1.4,2,5.8,2.6,12,3.6,18.1,1.1,6.7,11.9,5.1,11.8-1.6,0-2.5-.1-4.9,0-7.4,0-.9.2-5.6.5-5.8l-9.4-1.2c2.2,4.9,2.6,11.2,3.2,16.5,3.9-.5,7.9-1.1,11.8-1.6a24.35,24.35,0,0,1-.3-10.4c-3.3.9-6.7,1.8-10,2.6-1-1.9-1.2-1.7-.6.5.1.9.3,1.8.4,2.7.3,2.1.7,4.2,1,6.3.8,5.1,8.8,5.8,11,1.4a14.56,14.56,0,0,0,1.6-6.1c.1-1.7-.2-5.4,1.2-6.6l-7.3.9.6.3c-.9-1.2-1.8-2.4-2.8-3.6,1.3,3.1,1,7,.4,10.2,2.9-1.2,5.9-2.4,8.8-3.6,1.7,1,1,1.2.8-.6-.2-1.4-.8-2.8-1.1-4.1a20.63,20.63,0,0,1-.9-7.4l-10.2,4.2c-.8-1.4-.8-1-.2,1.2.2,1,.3,2.1.5,3.1.3,2.3.5,4.7.7,7,.4,6.4,10.3,8.6,11.8,1.6.9-4.3.6-9.2,3-13l-9.4,1.2c-.8-1.9-1-1.7-.4.5a23.58,23.58,0,0,1,.4,2.8c.3,2.1.4,4.2.5,6.4h12a19.21,19.21,0,0,1,1.1-10.6H103.7a65.55,65.55,0,0,1,2.2,10.7c.7,6.4,9.7,8.5,11.8,1.6,1.2-3.9.5-8.2,2-12-3.9-.5-7.9-1.1-11.8-1.6.4,3.4.8,6.7,1.3,10.1,3.9-.5,7.9-1.1,11.8-1.6a26.4,26.4,0,0,1,.3-9.7H109.7c1.2,2.9.6,7.2.6,10.3h12c-.3-3.7-.7-7.5,0-11.2H110.7a16.8,16.8,0,0,1,.2,5c-.4,3.2.8,6.4,4.2,7.4,2.8.8,6.9-1,7.4-4.2a36.34,36.34,0,0,0-.2-11.4c-1-5.7-10.5-5.7-11.6,0a53.36,53.36,0,0,0-.4,14.4c.6,7.6,12.2,7.8,12,0-.1-4.2.6-9.5-1.1-13.5-2-4.8-10.3-6.5-11.6,0a45.86,45.86,0,0,0-.3,16.1c1,6.6,12.6,5.1,11.8-1.6-.4-3.4-.8-6.7-1.3-10.1-.9-6.8-9.1-8-11.8-1.6-1.6,3.9-.9,8-2,12,3.9.5,7.9,1.1,11.8,1.6a109.72,109.72,0,0,0-2.6-13.9c-1.7-6.2-9.4-5.1-11.6,0a28.17,28.17,0,0,0-1.6,13.8c.9,7.4,12.4,7.9,12,0-.3-5.2.1-14.3-4.1-18.1a6.08,6.08,0,0,0-9.4,1.2c-3,5-3,10.4-4.2,15.9,3.9.5,7.9,1.1,11.8,1.6-.4-6.1-.1-15-4.5-19.8-3.9-4.3-9.7-.5-10.2,4.2-.5,4.2.8,9,1.9,13,1,3.5,1.8,7.5,5.2,9.4,3.1,1.8,8.1.3,8.8-3.6,1.1-5.8,2.7-17.2-3.7-20.5a6.36,6.36,0,0,0-7.3.9,13.56,13.56,0,0,0-3.7,7.1c-.6,2.3,0,6.1-1,8.1,3.7.5,7.3,1,11,1.4-.8-4.9-.6-10.9-3.9-14.9-2.8-3.4-9.2-1.6-10,2.6a38.12,38.12,0,0,0,.3,16.8c1.6,6.4,12.6,5.2,11.8-1.6-.9-7.6-1.8-15.5-4.9-22.5-1.7-3.9-6.8-3.3-9.4-1.2-5.2,4.1-4.1,15.9-4,21.7,3.9-.5,7.9-1.1,11.8-1.6-1-6-1.6-12.2-3.6-18.1-1.7-5.2-7.9-5.6-11-1.4s-1.6,13.1-1.2,18c.5,7.6,12.4,7.8,12,0a107.82,107.82,0,0,0-2.1-16c-1.2-5.8-10.2-5.6-11.6,0a94.48,94.48,0,0,0-2.3,18.3l10.2-4.2c-2.2-2.2-2.7-8.4-3.8-11.4s-2.4-6.3-4.9-8.5c-3.7-3.3-10.4-1.2-10.2,4.2.1,4.6-.3,9.2,1.7,13.4,2.7,5.6,11.1,2.6,11.2-3v-2c.2-1.4-.2-1-1.2,1.3l-5.8,1.5c.1.1.3.1.4.2-1.2-.9-2.4-1.8-3.6-2.8a13.1,13.1,0,0,1,.6,2.7c3.9-.5,7.9-1.1,11.8-1.6-.9-3.9-2-7.9-2.7-11.9-.6-3.3-.4-6.7-1.3-10-1.3-4.6-8.7-6.3-11-1.4-.2.3-.3.7-.5,1,3.7,1.5,7.3,3.1,11,4.6.1-.3.2-.7.3-1-3.7.5-7.3,1-11,1.4.8,1.2,1.6,2.4,2.3,3.6,4.4,6.8,14.8.8,10.5-5.7Z" transform="translate(-31.6 -101.2)"/><path class="cls-1" d="M143.4,217.1a6.72,6.72,0,0,1-.4,2.4c3.7-.5,7.3-1,11-1.4-.1-.4-.2-.8-.3-1.1-1.5-7.7-12.7-4.3-11.6,3.2a7.8,7.8,0,0,0,.4,2.2l4.2-1.8c2.8,2.9,3.8,3.4,3.1,1.3l-.6-2.7c-.3-1.5-.7-3-1-4.5a57,57,0,0,1-1.3-10.1,110.28,110.28,0,0,0-3.1-19.1c-1.8-7.5-13.4-4.3-11.6,3.2,3.1,12.5,2.6,25.4,6.5,37.7,1.5,4.6,6.4,8,11.1,5.3,5.6-3.2,4.6-9.7,3.9-14.9-3.9,1.1-7.7,2.1-11.6,3.2a14.93,14.93,0,0,0,1.5,4c2.4,4.5,9.7,3.5,11-1.4a27,27,0,0,0,.8-5.6c.5-7.6-11.5-7.6-12,.1Z" transform="translate(-31.6 -101.2)"/><path class="cls-1" d="M144.7,204.2c0,.1-.1.1-.1.2l9.4,1.2c1.1,2.7.4-2.5.3-2.7-.1-1.8-.2-3.6-.4-5.5-3.9.5-7.9,1.1-11.8,1.6,1,5.3,1.9,10.7,2.9,16,3.9-1.1,7.7-2.1,11.6-3.2a65.94,65.94,0,0,1-2.6-14.5l-11.2,3a78.73,78.73,0,0,1,5.4,15.7c2,7.6,12.9,4.3,11.6-3.2a69.1,69.1,0,0,1-1-10.2c-3.9.5-7.9,1.1-11.8,1.6a33.24,33.24,0,0,1,1.3,7h12c-.2-2.6-.4-5.3-.5-7.9-3.9.5-7.9,1.1-11.8,1.6a5.11,5.11,0,0,1,.4,2.7h12a54.18,54.18,0,0,1,0-5.7h-12c.1.6.1,1.2.2,1.8.5,6.3,10.4,8.7,11.8,1.6a41.78,41.78,0,0,0,.9-7.1h-12c1.1,9.5,2.1,19,2.9,28.5.7,7.6,12.7,7.7,12,0-.8-9.5-1.8-19-2.9-28.5-.9-7.6-11.5-7.9-12,0a17.37,17.37,0,0,1-.5,3.9c3.9.5,7.9,1.1,11.8,1.6-.1-.6-.1-1.2-.2-1.8-.6-7.6-11.7-7.8-12,0a54.18,54.18,0,0,0,0,5.7c.4,7.7,12,7.8,12,0a23.31,23.31,0,0,0-.8-5.9c-1.9-6.3-12.3-5.4-11.8,1.6.2,2.6.4,5.3.5,7.9.5,7.7,12.5,7.7,12,0a43.51,43.51,0,0,0-1.7-10.2c-1.8-6.3-12-5.3-11.8,1.6a98.42,98.42,0,0,0,1.5,13.3c3.9-1.1,7.7-2.1,11.6-3.2a95.8,95.8,0,0,0-6.6-18.6c-2.7-5.2-11.6-2.9-11.2,3a82.1,82.1,0,0,0,3.1,17.7c2.2,7.5,12.9,4.3,11.6-3.2-1-5.3-1.9-10.7-2.9-16-1.2-6.6-12.2-5.1-11.8,1.6.3,4.6-.2,10,1.7,14.2,1.5,3.5,7.1,3.8,9.4,1.2,0-.1.1-.1.1-.2,5.2-5.4-3.3-13.9-8.6-8.2Z" transform="translate(-31.6 -101.2)"/><path class="cls-1" d="M108.7,203.4a16.27,16.27,0,0,0,0,7.6c1.2,5.9,10.2,5.6,11.6,0,1.1-4.5,1.5-9.1,3.2-13.4-3.9-.5-7.9-1.1-11.8-1.6a101.11,101.11,0,0,1-.4,12.3c-.4,6.6,10.8,8.3,11.8,1.6a93,93,0,0,1,2.3-11.7c-3.9-.5-7.9-1.1-11.8-1.6a71.23,71.23,0,0,0-.2,8c.2,7.7,11.8,7.7,12,0a33.6,33.6,0,0,1,.6-6.3H114.4a33.93,33.93,0,0,1,.4,5.5h12a21.86,21.86,0,0,1,.7-6.7H115.9c.1.8.1.8,0-.1,1-1.7,2-3.5,3-5.2a.35.35,0,0,0-.2.1l4.6-.6c-.1,0-.2-.1-.3-.1,1.2.9,2.4,1.8,3.6,2.8-.1-.2-.2-.3-.3-.5-3.8-6.7-14.2-.7-10.4,6.1,1.8,3.1,5.6,4.6,8.9,2.7s3.3-5.1,2.7-8.3c-1.1-5.9-10.2-5.5-11.6,0a36.69,36.69,0,0,0-1.1,9.9c.2,7.7,12,7.7,12,0a51.19,51.19,0,0,0-.8-8.7c-1-5.9-10.3-5.5-11.6,0a50,50,0,0,0-1,9.4h12c-.1-2.7.1-5.3.2-8,.5-6.9-10-8-11.8-1.6a93,93,0,0,0-2.3,11.7c3.9.5,7.9,1.1,11.8,1.6.2-4.1.6-8.2.4-12.3-.3-7-9.4-7.8-11.8-1.6-1.7,4.3-2.1,8.9-3.2,13.4h11.6a2.44,2.44,0,0,1,0-1.2,6.1,6.1,0,0,0-4.2-7.4c-3-.8-6.7,1-7.4,4.2Z" transform="translate(-31.6 -101.2)"/><path class="cls-1" d="M96.8,236.1a6.74,6.74,0,0,1-.7-4.2c-3.9.5-7.9,1.1-11.8,1.6a25.66,25.66,0,0,1,1.6,9.1c3.9-.5,7.9-1.1,11.8-1.6a21.5,21.5,0,0,1-1.6-12c-3.3.9-6.7,1.8-10,2.6,1.1,1.3,1.4,5.2,1.9,6.9l1.8,7.8c.7,3.2,4.4,5,7.4,4.2,3.5-.9,4.6-4.2,4.2-7.4-.7-5.3-1.6-10.6-1-15.9l-11.2,3a21.92,21.92,0,0,1,1.4,12.4c3.3-.9,6.7-1.8,10-2.6-3.6-3-5.2-7.9-6.3-12.3-1.7-6.5-11.9-5.2-11.8,1.6a66.4,66.4,0,0,1-.5,8.9c2.9-1.2,5.9-2.4,8.8-3.6,1.1,1.1,1.1.9,0-.8-.5-1-1-2.1-1.4-3.1a64.52,64.52,0,0,1-2.1-6.2c-1.9-6.2-12.4-5.4-11.8,1.6l.9,9.9c3.9-.5,7.9-1.1,11.8-1.6a23.42,23.42,0,0,1-1.3-12c-3.9.5-7.9,1.1-11.8,1.6a26.56,26.56,0,0,1,0,11.9c3.7-.5,7.3-1,11-1.4-1.4-2.5-1.1-6.8-1.1-9.6H73a41.33,41.33,0,0,1-.4,8.6H84.2a42,42,0,0,1-1.5-9.3c-3.9.5-7.9,1.1-11.8,1.6a16.71,16.71,0,0,1,.1,5.9c3.9-.5,7.9-1.1,11.8-1.6a15.65,15.65,0,0,1-.2-5.3c.5-3.2-.8-6.4-4.2-7.4-2.8-.8-6.9,1-7.4,4.2a32.28,32.28,0,0,0,.2,11.6c.6,2.9,3.8,4.7,6.6,4.3,3.2-.4,4.8-2.9,5.2-5.9a25.31,25.31,0,0,0-.6-9.1c-1.4-6.6-12.1-5.2-11.8,1.6a53.43,53.43,0,0,0,2,12.5c1.5,5.3,10.6,6.1,11.6,0a58.08,58.08,0,0,0,.8-11.8c-.3-7.7-12.2-7.8-12,0,.1,5.2.2,11,2.8,15.7,2.5,4.4,9.8,3.6,11-1.4a37.77,37.77,0,0,0,0-18.3c-1.7-7.2-11-4.6-11.8,1.6a31.44,31.44,0,0,0,1.7,15.2c2.2,5.8,12.5,5.7,11.8-1.6l-.9-9.9c-3.9.5-7.9,1.1-11.8,1.6,1.8,5.8,3.8,13.8,9,17.3,2.9,2,8.2.1,8.8-3.6a69.69,69.69,0,0,0,.9-12.1c-3.9.5-7.9,1.1-11.8,1.6,1.6,6.3,4.4,13.3,9.4,17.6,3.1,2.7,9.1,2.2,10-2.6a35,35,0,0,0-2.6-21.6c-2.7-6.1-10.6-2.1-11.2,3-.7,6.4.6,12.8,1.5,19.1,3.9-1.1,7.7-2.1,11.6-3.2-1.5-6.6-2.3-14.7-6.8-20-2.8-3.3-9.3-1.7-10,2.6a33,33,0,0,0,1.6,18.4c2.4,6,11.7,5.6,11.8-1.6a34.5,34.5,0,0,0-2-12.3c-2.4-6.5-11.1-5.2-11.8,1.6a17,17,0,0,0,2.3,10.3c3.6,6.7,14,.7,10.3-6.1Z" transform="translate(-31.6 -101.2)"/><path class="cls-1" d="M72.4,215.3c0,.1.1.3.1.4H82.9a64.47,64.47,0,0,1-2.9-5.9c-2.4-5.5-11.6-2.7-11.2,3,.1,1.8.2,3.7.4,5.5,3.9-.5,7.9-1.1,11.8-1.6v-2c-3.9.5-7.9,1.1-11.8,1.6a8.8,8.8,0,0,1,.5,1.5c2.6,7.1,13.9,4.3,11.6-3.2a16.77,16.77,0,0,1-.7-6.3c-3.9.5-7.9,1.1-11.8,1.6a37.57,37.57,0,0,1,.6,13.8c3.7-.5,7.3-1,11-1.4.2,1.2.2,1.3.2.1v-2.6c.1-1.7.3-3.5.5-5.2h-12c.7,5.7-.5,11.8-.8,17.5-.4,6.5-.7,12.9-1,19.4-.2,3.2,2.9,6,6,6,6.3,0,11.4-4,17.5-4.2,6.8-.2,8.1-9.7,1.6-11.8-2.8-.9-5.5-1.7-8.3-2.6v11.6c5.9-1.6,11.6,3.6,16.3-2.8,3.8-5.2,1.9-12.5,3.3-18.4-3.7.5-7.3,1-11,1.4,1.9,2.8,1.5,9.2,1.9,12.5,1,7.4,12.7,7.8,12,0-.2-2.8-.5-5.6-.5-8.5,0-1.1,0-2.3.1-3.4.2-1.5,1.6-4.2-.7-2.6-3-1.7-6-3.5-9-5.2.5,7.6.8,15.2.7,22.9l11.2-3c-1.4-1.9-2.8-3.8-4.2-5.8-2.9-4-9.6-3.9-11,1.4-.7,2.8-1.4,5.7-2.1,8.5,3.9.5,7.9,1.1,11.8,1.6a100.54,100.54,0,0,1,.9-13.4h-12c.1,3.9.4,7.8.9,11.8.8,6,10.3,8.9,11.8,1.6,1.3-6.2,1.1-12.6,2.8-18.7-3.7.5-7.3,1-11,1.4,1.2,1.8,1.2,5.1,1.6,7.2.4,2.7.8,5.4,1.1,8.2,3.9-.5,7.9-1.1,11.8-1.6a23.63,23.63,0,0,1,2-15.9l-9.4,1.2c1,.8,1.5,5.5,1.9,6.8.7,2.9,1.3,5.8,1.9,8.7,3.7-1.5,7.3-3.1,11-4.6a12.74,12.74,0,0,1-1.1-10.6H105.5c1,4.7,2,9.5,1.4,14.3l11.2-3a16.73,16.73,0,0,1-1.2-10.8c.7-3.3,2.5-5.9,2.5-9.4s-.8-7.4-.1-10.9c.7-3.7,2.8-6.2,2.1-10.2-.7-3.5-4.4-4.6-7.4-4.2h-.2c-2.7.4-4.2,3.4-4.4,5.8v.2c-.7,7.7,11.3,7.6,12,0v-.2c-1.5,1.9-2.9,3.9-4.4,5.8h.2c-2.5-1.4-4.9-2.8-7.4-4.2-.5-2.6-1.5,2.2-1.8,3.1a19.29,19.29,0,0,0-.8,4.7c-.3,4,.6,8.7-.3,11.9-2.5,8.8-3,15.9.9,24.5,2.8,6,10.6,2.2,11.2-3,.6-5.8-.7-11.8-1.9-17.5-1.2-6-10-5.4-11.6,0a25.22,25.22,0,0,0,2.3,19.9c3.5,6.2,12.3,1.8,11-4.6-.8-4.1-1.7-8.1-2.7-12.1-.8-3.2-1.5-6.5-4.1-8.7-2.8-2.3-7.5-2.5-9.4,1.2A36.12,36.12,0,0,0,99.4,249c1.4,6.5,12.5,5.2,11.8-1.6-.7-6.5-.6-15.8-4.3-21.4-2.8-4.3-9.5-3.7-11,1.4-1.8,6.1-1.6,12.5-2.8,18.7,3.9.5,7.9,1.1,11.8,1.6a114.93,114.93,0,0,1-.9-11.8c-.2-8-11-7.4-12,0a100.54,100.54,0,0,0-.9,13.4c0,6.6,10.3,8.3,11.8,1.6.6-2.9,1.3-5.7,2.1-8.5-3.7.5-7.3,1-11,1.4,1.4,1.9,2.8,3.8,4.2,5.8,3.4,4.6,11.1,3.3,11.2-3,.1-7.6-.1-15.2-.7-22.9-.3-4.1-5-8-9-5.2-7.1,5.1-5.6,17.1-4.9,24.7h12c-.7-5.6-.3-13.7-3.5-18.6-2.7-4.1-9.7-3.9-11,1.4A52.65,52.65,0,0,0,91,239.7c2.1-.5,2.2-.8.3-1.1a18.57,18.57,0,0,0-3.4-.6,20.1,20.1,0,0,0-6.9.8c-5.9,1.6-5.5,9.8,0,11.6,2.8.9,5.5,1.7,8.3,2.6.5-3.9,1.1-7.9,1.6-11.8-6.2.2-11.5,4.1-17.5,4.2l6,6c.3-6.5.6-13,1-19.4.4-5.7,1.6-11.8.8-17.5-1-7.7-11.1-7.8-12,0-.5,4.5-1.4,9.7,1,13.8s10.2,3.9,11-1.4a54.34,54.34,0,0,0-.6-20.1c-1.5-7-11.3-4.8-11.8,1.6a23.16,23.16,0,0,0,1.1,9.4c3.9-1.1,7.7-2.1,11.6-3.2a8.8,8.8,0,0,1-.5-1.5c-2.3-6.3-11.4-5.4-11.8,1.6a17.35,17.35,0,0,0,.5,5.1c1.4,6.6,12.2,5.2,11.8-1.6-.1-1.8-.2-3.7-.4-5.5l-11.2,3c.9,2,1.8,3.9,2.9,5.9,2,3.6,8.6,4.2,10.4,0a13.5,13.5,0,0,0,1.1-3.2c.9-7.5-10.6-10.7-11.9-3.1Z" transform="translate(-31.6 -101.2)"/><path class="cls-1" d="M124.6,236.8a53.6,53.6,0,0,1-1.5-12.6c-3.9.5-7.9,1.1-11.8,1.6a87.92,87.92,0,0,1,2.2,14.4h12a80.45,80.45,0,0,1-.6-13.9c-3.9.5-7.9,1.1-11.8,1.6.9,4.2,1.7,8.3,2.4,12.5,3.9-1.1,7.7-2.1,11.6-3.2a28.75,28.75,0,0,1-.7-6.5l-11.2,3a23,23,0,0,1,1.9,6.3c1.4,7.7,12.7,4.3,11.6-3.2a18.21,18.21,0,0,1-.1-3.3c-3.9.5-7.9,1.1-11.8,1.6l1.5,3.6c2,4.7,10.5,6.6,11.6,0,.1-.4.1-.9.2-1.3-3.7.5-7.3,1-11,1.4.3.4.5.9.8,1.3,2.9,4.9,11.5,3.1,11.2-3-.1-1.4-.1-2.7-.2-4.1l-11.2,3a13.43,13.43,0,0,1,.7,2.7c3.9-1.1,7.7-2.1,11.6-3.2a35.46,35.46,0,0,1-1.5-7.2l-11.2,3c.1.3.2.7.3,1,1.6,7.6,13,4.3,11.6-3.2-.5-2.7-1-5.5-1.4-8.2-3.7,1.5-7.3,3.1-11,4.6.1.1.3.1.4.2,3.9-.5,7.9-1.1,11.8-1.6a77.52,77.52,0,0,0-2.7-10.8c-3.7,1.5-7.3,3.1-11,4.6a26.91,26.91,0,0,1,2.2,6.2c1.6,6.4,12.3,5.3,11.8-1.6-.3-4.1-.8-8.2-1.4-12.2-3.9,1.1-7.7,2.1-11.6,3.2a8,8,0,0,1,.4,3.4h12c-.1-5.9-.2-11.9-.3-17.8-3.9.5-7.9,1.1-11.8,1.6a48.46,48.46,0,0,1,.8,5.3h12c-.5-5-1.7-10.5-1.1-15.6h-12a39.37,39.37,0,0,0,.7,6.9c1.4,6.9,11.6,4.9,11.8-1.6a45.13,45.13,0,0,0-.1-5.2c-.6-7.6-12.3-7.8-12,0,.1,2.3.2,4.5.3,6.8.3,7.8,11.5,7.7,12,0a88.79,88.79,0,0,0,.2-8.9c-.2-7.1-9.3-7.7-11.8-1.6a.35.35,0,0,1-.1.2,6,6,0,0,0,1.5,5.8l.2.2c2.3,2.1,6.2,2.5,8.5,0l.2-.2a6.2,6.2,0,0,0,.9-7.3.35.35,0,0,0-.1-.2c-3.7-6.8-14-.8-10.4,6.1a.35.35,0,0,0,.1.2c.3-2.4.6-4.8.9-7.3l-.2.2h8.5l-.2-.2c.5,1.9,1,3.9,1.5,5.8a.35.35,0,0,1,.1-.2c-3.9-.5-7.9-1.1-11.8-1.6a87.48,87.48,0,0,1-.2,8.9h12c-.1-2.3-.2-4.5-.3-6.8h-12a45.13,45.13,0,0,1,.1,5.2c3.9-.5,7.9-1.1,11.8-1.6a11.6,11.6,0,0,1-.3-3.7c0-8-11-7.4-12,0-.7,5,.6,10.5,1.1,15.6.7,7.6,12.6,7.8,12,0a60,60,0,0,0-1.2-8.5c-1.4-6.7-11.9-5.1-11.8,1.6.1,5.9.2,11.9.3,17.8.1,7.7,12,7.7,12,0a29.07,29.07,0,0,0-.8-6.6c-1.9-7.7-12.7-4.2-11.6,3.2.4,3,.8,6,1,9,3.9-.5,7.9-1.1,11.8-1.6a41.49,41.49,0,0,0-3.4-9.1c-3-6.1-13.1-1.8-11,4.6a81.2,81.2,0,0,1,2.7,10.8c1.2,6.6,12.7,5.1,11.8-1.6a12.78,12.78,0,0,0-2.1-6.3c-4-5.7-12-2.1-11,4.6.4,2.8.9,5.5,1.4,8.2,3.9-1.1,7.7-2.1,11.6-3.2a13.16,13.16,0,0,0-1.5-3.9c-2.8-5-11.7-3-11.2,3a45.43,45.43,0,0,0,1.9,10.4c2.3,7.4,13.1,4.3,11.6-3.2a25.54,25.54,0,0,0-1.9-5.5c-2.5-5.5-11.4-2.7-11.2,3,.1,1.4.1,2.7.2,4.1l11.2-3c-.3-.4-.5-.9-.8-1.3-2.4-4.1-10.1-3.9-11,1.4-.1.4-.1.9-.2,1.3h11.6l-1.5-3.6c-2.5-6-11.5-5.6-11.8,1.6a35.6,35.6,0,0,0,.5,6.5c3.9-1.1,7.7-2.1,11.6-3.2a37,37,0,0,0-3.1-9.2c-2.6-5.5-11.2-2.6-11.2,3a45.08,45.08,0,0,0,1.1,9.7c1.7,7.6,12.8,4.3,11.6-3.2-.7-4.2-1.5-8.4-2.4-12.5-1.5-6.9-11.5-4.9-11.8,1.6a107.75,107.75,0,0,0,.6,13.9c.8,7.6,12.7,7.7,12,0a105.49,105.49,0,0,0-2.7-17.6c-1.7-6.5-11.9-5.2-11.8,1.6a76.8,76.8,0,0,0,2,15.8c2.1,8,13.6,4.8,11.9-2.7Z" transform="translate(-31.6 -101.2)"/><path class="cls-1" d="M128.3,204.3c.1-1.5.3-3,.4-4.4l-11.2,3a11.94,11.94,0,0,1,.8,1.6,6,6,0,0,0,11.2-3c.1-1.6-.3,1.3,0-.3.1-.5.2-.9.3-1.4-3.3.9-6.7,1.8-10,2.6.4.4.4.3,0-.1a2.07,2.07,0,0,1-.6-1,6,6,0,0,0,5,4.3,5.93,5.93,0,0,0,6-2.9,8.59,8.59,0,0,0,1.1-4.5l-11.2,3,.2.2c-.3-1-.5-2-.8-3v.2c-.2,3.1,2.9,6.1,6,6a6.15,6.15,0,0,0,6-6,5,5,0,0,0-1-3.5c-1.6-2.1-4-3.6-6.8-2.8a6.09,6.09,0,0,0-4.4,5.8,4.28,4.28,0,0,1,.5-1.6c3.7.5,7.3,1,11,1.4a8.8,8.8,0,0,0-2.6-4.2c-3.3-2.9-8.9-1.9-10,2.6a40,40,0,0,0-.8,4.8l11.2-3a11.94,11.94,0,0,1-.8-1.6,6,6,0,0,0-11.2,3c-.1,1.5-.3,3-.4,4.4-.3,3.1,3,6.1,6,6,3.6.2,5.8-2.3,6.1-5.6Z" transform="translate(-31.6 -101.2)"/><path class="cls-1" d="M90.1,228.7c.7-.1.1-.2-.3-.7a6.12,6.12,0,0,0-1.7-1.5c-1.3-1-3.3-1.4-4.1-2-1.5-1-2.5-2.4-4.1-3.2a13.05,13.05,0,0,0-6.2-1.3c1.9,2.5,3.9,5.1,5.8,7.6,1-6.4,4-14.9-4.1-17.7-7.3-2.6-10.4,9-3.2,11.6a1.85,1.85,0,0,0,.7.2c-1.2-.9-2.4-1.8-3.6-2.8.1.2.3.4.4.6-.3-1-.5-2-.8-3,.3,2.5-.6,5.4-1,7.9-.6,3.8,1.5,7.6,5.8,7.6,1.4,0,2,1.3,3,2.1,1.4,1.1,3.9,1.9,4.6,2.4,1.7,1.3,2.8,2.7,4.9,3.4a13.18,13.18,0,0,0,7.1.4c7.6-1.4,4.4-13-3.2-11.6Z" transform="translate(-31.6 -101.2)"/><path class="cls-1" d="M48.7,245.8h-.5c1.7,1,3.5,2,5.2,3-1-1.7-.3-6.2-.3-8.1,0-6.5-10.8-8.5-11.8-1.6-.6,3.9-1.2,7.9-1.7,11.8,3.3-.9,6.7-1.8,10-2.6,1,.9.1-1.9,0-2.9-.2-1.7-.4-3.5-.6-5.2-.7-6.4-9.7-8.5-11.8-1.6-.3,1-.6,2-.8,3H48a8.51,8.51,0,0,1-.9-3.1c-1.3-6.2-9.8-5.1-11.6,0-.1.4-.3.8-.4,1.2,3.9.5,7.9,1.1,11.8,1.6a85.16,85.16,0,0,1,.8-14.3c-3.7.5-7.3,1-11,1.4,2.1,4.5,2.6,9.5,3.2,14.4.4,3.7.3,8.9,2.6,12,3.5,4.6,11,3.4,11.2-3,.2-6,.4-12.1.6-18.1h-12c.5,4.8,1,9.7,1.5,14.5.8,7.5,12.4,7.8,12,0a88,88,0,0,1,.2-11.5c-4,.3-8,.8-11.9,1.3a49.05,49.05,0,0,1,.8,6.7c.5,7.7,11.6,7.7,12,0,.1-2,.2-4,.4-6,.1-.9.2-1.8.3-2.6.8-2.2.3-2.3-1.5-.4H50c-.5-.5-1.1-1-1.6-1.5,1.7,6.9,11.3,4.9,11.8-1.6l.3-3.3h-12c-1.2,15.3-1.6,30.7-5.6,45.6-2,7.5,9.6,10.6,11.6,3.2,4.3-15.9,4.8-32.5,6-48.8.6-7.7-11.4-7.7-12,0l-.3,3.3c3.9-.5,7.9-1.1,11.8-1.6a9.16,9.16,0,0,0-3.9-5.7,6.05,6.05,0,0,0-6.1,0c-5.6,3.1-4.9,13.9-5.2,19.4h12a64.12,64.12,0,0,0-1.3-9.8c-1.4-7-11.3-4.8-11.8,1.6a88.6,88.6,0,0,0-.2,11.5h12c-.5-4.8-1-9.7-1.5-14.5-.8-7.6-11.8-7.9-12,0-.2,6-.4,12.1-.6,18.1l11.2-3c-1.6-2.1-1.3-9.6-1.8-12.7a46.28,46.28,0,0,0-4-13.6c-2.1-4.4-10.2-3.6-11,1.4a102.36,102.36,0,0,0-1.3,17.5c.2,7,9.6,7.9,11.8,1.6.1-.4.3-.8.4-1.2H35.1a8.51,8.51,0,0,0,.9,3.1c1.9,5,10.3,6.3,11.6,0a14.71,14.71,0,0,1,.8-3c-3.9-.5-7.9-1.1-11.8-1.6.6,5-.1,13.1,4.1,16.6,3,2.6,9.3,2.2,10-2.6.6-3.9,1.2-7.9,1.7-11.8-3.9-.5-7.9-1.1-11.8-1.6,0,6.3-.8,16.5,7.7,17.2,8.1.5,8.1-11.5.4-12.1Z" transform="translate(-31.6 -101.2)"/><path class="cls-1" d="M50.4,263.6a6.07,6.07,0,0,0-.7-1c-2.9,2.3-5.9,4.5-8.8,6.8.3.1.5.3.8.4-.9-1.2-1.8-2.4-2.8-3.6-.1.1-.1.2-.2.3l5.8-1.5c-.3-.1-.6-.1-.9-.2,1.2.9,2.4,1.8,3.6,2.8a12.86,12.86,0,0,0,.4,1.9c-3.7.5-7.3,1-11,1.4a1.7,1.7,0,0,0-.1-.7H46.9c-.2-.3-.3-.5-.5-.8-2.5-4.1-7.8-3.7-10.4,0l-.5.5,5.8-1.5a1.85,1.85,0,0,0-.7-.2c1.2.9,2.4,1.8,3.6,2.8-.4-.8.3-5.1.3-6.2l.3-7.5c.3-5.1.8-10.2,1.4-15.2.4-3.2-.8-6.4-4.2-7.4-2.8-.8-6.9,1-7.4,4.2a223.79,223.79,0,0,0-2.2,30.6c0,3.9.2,8.2,4.3,10s7.4-.5,9.7-3.9H36c.2.3.3.5.5.8,2.2,3.6,8.3,4.2,10.4,0,2-4,1.9-7.3.1-11.4-2.4-5.2-9.3-2.8-11,1.4-2.5,6.4,4.4,13.4,10.6,9.2,5.2-3.6,6.6-13.2.3-16.4-4.4-2.2-10.5,1.5-8.8,6.8a14.56,14.56,0,0,0,6.2,8.2c6.4,4.2,12.4-6.2,6.1-10.6Z" transform="translate(-31.6 -101.2)"/><path class="cls-1" d="M52.4,263.7c-.4-1.3-1.2-4.5-.9-5.9-3.7.5-7.3,1-11,1.4-.7-1.7-.7,1.7-.8,2.4-.3,2-.6,4-1,6-.4,2.7-.4,6.7-2.1,8.9,2.3-.9,4.5-1.8,6.8-2.8a3.8,3.8,0,0,0-2.1-.2c.9,1.2,1.8,2.4,2.8,3.6a1.18,1.18,0,0,0,.1-1.4c.1-7.7-11.9-7.7-12,0-.1,6,2.1,8.5,8,9.6a6.56,6.56,0,0,0,6.8-2.8c2.9-3.9,2.9-9.7,3.7-14.3.9-5.3,2.3-10,.1-15.1-2.1-4.9-9.8-3.2-11,1.4-1,3.9-.3,8.4.9,12.2,2.4,7.6,14,4.4,11.7-3Z" transform="translate(-31.6 -101.2)"/><path class="cls-1" d="M144.5,241.1c.2.3.3.7.5,1,3.1-2.4,6.3-4.8,9.4-7.3a9.32,9.32,0,0,1-2.9-3.9c-3.7,1.5-7.3,3.1-11,4.6a4.49,4.49,0,0,1,.4,2.3l10.2-4.2c.8,1.8.9,1.7.4-.2-.2-1-.4-1.9-.6-2.9-.4-1.9-.8-3.9-1.2-5.8-3.7,1.5-7.3,3.1-11,4.6,2.9,5.2,5.4,12.7,10.2,16.4,4,3.1,10.1,1.3,10.2-4.2.1-4.1,0-8.2-.2-12.3-.5-7.7-11.7-7.8-12,0a44.28,44.28,0,0,0,1,10.9c3.9-1.1,7.7-2.1,11.6-3.2a19.75,19.75,0,0,1-.4-6.4c-3.9.5-7.9,1.1-11.8,1.6q1.5,4,2.7,8.1c2.1,7.7,12.6,4.2,11.6-3.2-.3-2.3-.7-4.7-1-7-3.9,1.1-7.7,2.1-11.6,3.2.6,2,1.2,4,1.9,6,2.3,7.5,12.8,4.3,11.6-3.2a29.66,29.66,0,0,1-.3-4.2c-3.9.5-7.9,1.1-11.8,1.6a18.73,18.73,0,0,1,.8,3.4c.8,7.5,12.3,7.9,12,0-.1-1.6-.1-3.1-.2-4.7-3.9.5-7.9,1.1-11.8,1.6a20.15,20.15,0,0,0,.7,2.3c2.2,7.5,12.9,4.3,11.6-3.2a3.28,3.28,0,0,1,.1-1.7H152a69.65,69.65,0,0,1,2.2,16.4l11.2-3a2.51,2.51,0,0,0-.4-.7c-3.5-6.9-13.9-.8-10.4,6.1a2.51,2.51,0,0,0,.4.7c2.8,5.4,11.2,2.7,11.2-3a81.12,81.12,0,0,0-2.6-19.6c-1.4-5.5-10.4-5.9-11.6,0a20.07,20.07,0,0,0-.1,8.1c3.9-1.1,7.7-2.1,11.6-3.2a20.15,20.15,0,0,0-.7-2.3c-1.8-6.4-12-5.3-11.8,1.6.1,1.6.1,3.1.2,4.7h12a28.66,28.66,0,0,0-1.2-6.5c-1.9-6.4-11.8-5.3-11.8,1.6a46.32,46.32,0,0,0,.7,7.4c3.9-1.1,7.7-2.1,11.6-3.2-.6-2-1.2-4-1.9-6-2.4-7.6-12.6-4.3-11.6,3.2.3,2.3.7,4.7,1,7,3.9-1.1,7.7-2.1,11.6-3.2a55,55,0,0,0-2.7-8.1c-2.4-6.3-11.3-5.4-11.8,1.6a31,31,0,0,0,.9,9.6c1.8,7.6,13.1,4.3,11.6-3.2a33.35,33.35,0,0,1-.6-7.7H147a101,101,0,0,1,.2,12.3l10.2-4.2c-1.9-1.5-2.9-4-4-6.1-1.4-2.6-2.9-5.3-4.3-7.9-3.4-6.2-12.3-1.8-11,4.6.9,4.4.9,11.1,4.4,14.2,3.7,3.3,10.5,1.2,10.2-4.2a19.6,19.6,0,0,0-2.1-8.3c-2.8-6.1-13.3-1.8-11,4.6a21.67,21.67,0,0,0,6,9.2,6,6,0,0,0,9.4-7.3c-.2-.3-.3-.7-.5-1-3.2-7.2-13.5-1.1-10,5.8Z" transform="translate(-31.6 -101.2)"/><path class="cls-1" d="M159.6,260.4a11.88,11.88,0,0,1-.2-5.3c-3.9.5-7.9,1.1-11.8,1.6a18.28,18.28,0,0,1,.3,7l11.2-3a17.74,17.74,0,0,1-1.1-8.5c-3.9.5-7.9,1.1-11.8,1.6a16.61,16.61,0,0,1,1,7.3l11.2-3a14.64,14.64,0,0,1-2.1-7c-3.9.5-7.9,1.1-11.8,1.6a19.45,19.45,0,0,1,1.3,6.7l11.2-3a21.59,21.59,0,0,1-2.9-7.4c-1.5-7.6-13-4.4-11.6,3.2.3,1.4.5,2.7.8,4.1,1.5,7.6,12.8,4.3,11.6-3.2-.4-2.2-.7-4.4-1.1-6.6-1.1-6.6-12.6-5.1-11.8,1.6.1.8.2,1.7.3,2.5,3.9-.5,7.9-1.1,11.8-1.6-.2-.7-.4-1.4-.6-2.2-1.8-6.6-11.6-5.1-11.8,1.6a26.2,26.2,0,0,1-.1,2.8h12c-.7-5.1-1.3-10.3-2-15.4-.9-7.4-12.4-7.9-12,0a30.93,30.93,0,0,0,1.2,7.5c2.1,7.4,13.7,4.3,11.6-3.2a21.67,21.67,0,0,1-.8-4.3h-12c.7,5.1,1.3,10.3,2,15.4.9,7.4,11.8,8,12,0a26.2,26.2,0,0,1,.1-2.8c-3.9.5-7.9,1.1-11.8,1.6.2.7.4,1.4.6,2.2,1.7,6.3,12.6,5.3,11.8-1.6-.1-.8-.2-1.7-.3-2.5-3.9.5-7.9,1.1-11.8,1.6.4,2.2.7,4.4,1.1,6.6,3.9-1.1,7.7-2.1,11.6-3.2-.3-1.4-.5-2.7-.8-4.1-3.9,1.1-7.7,2.1-11.6,3.2a29.68,29.68,0,0,0,4.1,10.3c3.1,4.9,11.3,3.1,11.2-3a30.29,30.29,0,0,0-1.7-9.9c-2.2-6-12-5.6-11.8,1.6a26.44,26.44,0,0,0,3.7,13.1c3.1,5.3,10.8,2.8,11.2-3a26.78,26.78,0,0,0-1.5-10.5,6,6,0,0,0-11.8,1.6,29.51,29.51,0,0,0,2.7,14.6c2.7,6.1,10.6,2.1,11.2-3a27,27,0,0,0-.8-10.2c-1.8-7.1-11-4.7-11.8,1.6a20.36,20.36,0,0,0,.7,8.5c2,7.2,13.6,4,11.7-3.5Z" transform="translate(-31.6 -101.2)"/><path class="cls-1" d="M156.8,266.3a1.42,1.42,0,0,0,.6.2,6,6,0,0,0-6.8-2.8c-.2.1-.5.2-.7.3h3.2l2.2,2.2c-1-1.9-1-5.2-1.4-7.3-.5-2.7-1-5.3-1.4-8-1.4-7.6-12.9-4.4-11.6,3.2,1.1,6.3,1.8,25.7,12.9,21.3-2.3-.9-4.5-1.8-6.8-2.8a10.39,10.39,0,0,0,3.7,4.1c2.6,2,6.7.4,8.2-2.2,1.8-3.1.4-6.2-2.1-8.2Z" transform="translate(-31.6 -101.2)"/><path class="cls-1" d="M153.1,269.9a16.38,16.38,0,0,0-2,2.6c-.3.6-.5,1.3-.8,1.9s-.6.6.1-.3l2.2-2.2a2.72,2.72,0,0,1,3,.1c.2.2.7,1,.5.5s-.4-1.2-.1,0a39.92,39.92,0,0,1-1.1-4.7c-.5-3.1-4.5-5.1-7.4-4.2-3.4,1.1-4.7,4-4.2,7.4.7,4.3,2.1,9,6.1,11.3a9.25,9.25,0,0,0,8.1.5,6.87,6.87,0,0,0,3.7-3.6c.2-.5.3-.9.5-1.4-.5,1.1.6-.4-.2.5,2.1-2.3,2.4-6.2,0-8.5-2.2-2-6.1-2.4-8.4.1Z" transform="translate(-31.6 -101.2)"/><path class="cls-1" d="M148.4,273.3a7.58,7.58,0,0,0,13.7,2.5c4.1-5.8.9-14.4,1.5-21l-11.2,3a2.44,2.44,0,0,1,.8,2c1.5,6.6,12,5.2,11.8-1.6-.1-2.1,0-4.1.1-6.2-3.9.5-7.9,1.1-11.8,1.6.3,1,.6,2,.9,3.1,1.8,6.3,12.3,5.4,11.8-1.6a28.48,28.48,0,0,0-.7-5.1c-1.4-6.5-12.5-5.2-11.8,1.6.4,4.1.9,8.3,1.2,12.4.3,3.5,1.2,8.4.4,11.8.9-1.2,1.8-2.4,2.8-3.6-1.7.8-4.5.6-6.3.6.5,3.9,1.1,7.9,1.6,11.8a12.59,12.59,0,0,1,6.9-.8c7.5,1.4,10.8-10.1,3.2-11.6a24.07,24.07,0,0,0-13.3.8c-6.1,2.2-5.5,11.9,1.6,11.8,6.3-.1,14.8-.4,15.5-8.3.7-8.1-.7-16.8-1.6-24.9-3.9.5-7.9,1.1-11.8,1.6.1.6.2,1.3.3,1.9,3.9-.5,7.9-1.1,11.8-1.6-.3-1-.6-2-.9-3.1-1.9-6.7-11.4-5.1-11.8,1.6-.1,2.1-.2,4.1-.1,6.2,3.9-.5,7.9-1.1,11.8-1.6a16.84,16.84,0,0,0-2-4.8,6.07,6.07,0,0,0-11.2,3,47,47,0,0,0,.2,8.4c.1,1.3.2,2.5.2,3.8v1.7q-.3,2.4,1.8-1.2l4.6.6a4.67,4.67,0,0,0-1-.5c.9,1.2,1.8,2.4,2.8,3.6-.1-.4-.2-.7-.3-1.1-1.8-7.5-13.4-4.3-11.5,3.2Z" transform="translate(-31.6 -101.2)"/><path class="cls-1" d="M87.6,223.1c-.6,7-.9,14.7-2.9,21.4-1.1,3.7-1.8,3.1-5.1,4a12.32,12.32,0,0,0-3.1,1.4c-.8.5-4.5,3.2-1.3,1.2l4.6-.6c2.3.9,1,.3-.5-.4a7.76,7.76,0,0,0-3.3-.9c-2.4-.1-4.4,1.1-6.2,2.7l9.4,1.2c-.4-.8-.7-1.6-1.1-2.4-3-6.6-12.1-1.6-11,4.6a17.47,17.47,0,0,1,0,7.2H78.7a4.22,4.22,0,0,1-.3-2.2c-3.9.5-7.9,1.1-11.8,1.6.5,2,.1,4,1.3,6a7.83,7.83,0,0,0,5.9,3.5c5.6.5,12.1-.9,17.7-1.3-1-3.7-2-7.5-3-11.2-.4.1-.8.2-1.3.3.5,3.9,1.1,7.9,1.6,11.8,1.5-.2,3.1-.5,4.6-.7s3.8.3,1.5-.9c1-3.7,2-7.5,3-11.2a5.41,5.41,0,0,1-2.3,4l-4.6-.6c1.3-2.5,2.6-4.9,3.8-7.4.9,1.2,1.8,2.4,2.8,3.6-2.4.9-3.1,1.9-2.2,3l10.2-4.2c.1-1.1-.3-1.4-1.1-.8l-4.6-.6a3.08,3.08,0,0,1,.6,1.9c.9-1.2,1.8-2.4,2.8-3.6a1.42,1.42,0,0,1-.6.2l4.6-.6c-.2-.1-.4-.1-.6-.2,1.2.9,2.4,1.8,3.6,2.8a1.69,1.69,0,0,1,0-2.3l-4.2,1.8c-2-1.7-2.6-1.8-2-.3a2.46,2.46,0,0,1,.2,1.7l4.2-4.2c-.2,0-.4.1-.6.1l5.8,1.5c.1.1,1.4-2.3,1.6-2.5l-4.2,1.8c-1.9-1.6-2.5-1.3-1.7.7-.6,1.8-.5,2.1.2,1l5.8-1.5c-.2-.1-.5-.1-.7-.2,1.2.9,2.4,1.8,3.6,2.8-.3-.7.6-3,1.1-3.5l-5.8,1.5c-1.6-1.6-2-1.7-1.2-.2-.2,1.4.3,1.1,1.3-.7h6.1c1.4,1.8,1.8,1.9,1.1,0,.4-1.5.1-1.7-.6-.7l-5.8,1.5c-1.8-1.4-2.2-1.5-1.4-.2a5.42,5.42,0,0,1,.9,2.4l7.6-5.8c1.8,1.2,2.5,1.1,2.2-.4-1.7,1-3.5,2-5.2,3h.7l-4.2-1.8c-.4-.4-.3,3.3-.3,3.2,3.9-.5,7.9-1.1,11.8-1.6a10.17,10.17,0,0,1,.3-5.2H115.3a28.77,28.77,0,0,1,1.1,4.9c3.9-1.1,7.7-2.1,11.6-3.2a6.51,6.51,0,0,1-.2-3.9H116.2a16.82,16.82,0,0,1,.7,4.4h12a6.53,6.53,0,0,1,0-3.4H117.3a10.88,10.88,0,0,1,.7,2.4c3.9-.5,7.9-1.1,11.8-1.6a8.6,8.6,0,0,1,0-3.2H118.2a8,8,0,0,1,.4,3.1c.3,7.7,12.3,7.7,12,0a8.17,8.17,0,0,1,.1-2.7H119.1c.2.9.5,1.7.7,2.6,2,7.6,13,4.3,11.6-3.2v-1.3c-3.9.5-7.9,1.1-11.8,1.6a7.49,7.49,0,0,1,.5,1.6c2.1,6.1,12,5.5,11.8-1.6,0-.8-.1-1.5-.1-2.3h-12c.3,6.9.6,13.7.8,20.6.3,7.7,12.3,7.7,12,0-.3-6.9-.6-13.7-.8-20.6-.3-7.7-12.3-7.7-12,0,0,.8.1,1.5.1,2.3,3.9-.5,7.9-1.1,11.8-1.6a7.49,7.49,0,0,1-.5-1.6c-2.2-6.4-11.5-5.3-11.8,1.6a17.15,17.15,0,0,0,.4,4.5c3.9-1.1,7.7-2.1,11.6-3.2-.2-.9-.5-1.7-.7-2.6-1.4-5.5-10.5-6-11.6,0a22.77,22.77,0,0,0-.5,5.8h12a32,32,0,0,0-.9-6.2c-1.3-5.4-10.7-6-11.6,0a30.91,30.91,0,0,0,0,9.6c1,6.6,12.5,5.1,11.8-1.6a27.73,27.73,0,0,0-1.1-5.6c-1.8-5.2-10.2-6.2-11.6,0a18,18,0,0,0-.4,6.5c.9,7.4,12.3,7.9,12,0a32.44,32.44,0,0,0-1.1-7.6c-1.5-5.4-10.4-6-11.6,0a22.41,22.41,0,0,0,.2,10.3c1.9,7.7,12.6,4.2,11.6-3.2a28.77,28.77,0,0,0-1.1-4.9c-1.8-5.5-9.9-5.9-11.6,0a24,24,0,0,0-.3,11.6c1.3,6.8,11.7,5,11.8-1.6.1-3.7-.1-8.2-2.7-11.2a6.75,6.75,0,0,0-9.7-.5c-4.7,4.6-3.2,17.8,4,19.2,3.3.7,8.2-1.6,7.6-5.8-.6-4.7-2.6-12.8-8.3-13.8-1.9-.3-4.5-.2-5.8,1.5-3.8,4.9-4.5,15.4,1.4,19.2,7.8,5.1,12.1-5.9,10.9-11.9-1.4-6.5-8.6-13-14.2-6.2-4.4,5.4-5.7,17.3,2.4,19.9a5.89,5.89,0,0,0,5.8-1.5c3.5-4.1,4-10.1,2.3-15.1s-7-9.1-12.3-6.3c-8.4,4.4-8.6,24.1,3.6,21.8,2.1-.4,3.5-2.3,4.2-4.2,2.7-7.9-6.1-22.7-14.6-14.2-5.8,5.9-3.3,24,7.5,18.6,7.6-3.7,2.9-18.1-4.2-19.9-5.1-1.3-9,2.9-10.4,7.4-1.5,4.9-.7,9.8,3.1,13.4,4,3.8,9.7.8,10.2-4.2.9-9-11-16.4-18.3-10.5-3.4,2.8-4.8,7.4-2.8,11.4a7.88,7.88,0,0,0,11.3,3.1c8.7-5.7-.6-19.5-8.7-12.5-7.8,6.8.4,18.3,9.1,17.9,5.7-.3,8.5-8.2,3-11.2-4.5-2.5-10.6-.3-15.4.4-6.6,1-5.1,12.4,1.6,11.8a19,19,0,0,0,7.3-2c5.3-2.5,2.8-11.7-3-11.2-3.1.3-6.2.5-9.4.8l-3.7.3a26.35,26.35,0,0,1-2.8.2c-1.4,0-1.3.2.5.4.9,1.2,1.8,2.4,2.8,3.6-.5-1.2-.3-3.1-.7-4.5-1.7-6.5-12.1-5.3-11.8,1.6a25.18,25.18,0,0,0,.8,5.4c1.4,5.5,10.5,6,11.6,0a38.83,38.83,0,0,0,0-13.6c-3.7,1.5-7.3,3.1-11,4.6.4.8.7,1.6,1.1,2.4,1.7,3.7,6.8,3.6,9.4,1.2-4.9-1.1-6.3-.9-4.4.4a3.53,3.53,0,0,0,1.3.8,7.41,7.41,0,0,0,3,.8c3,0,3.8-1.8,5.8-3.3-2.7,2.1,1.6.7,3,.3a12,12,0,0,0,5.4-4c3.2-4,4.2-9,4.9-13.9.9-6,1.6-12.1,2.2-18.2.6-7.6-11.4-7.5-12,.1Z" transform="translate(-31.6 -101.2)"/><path class="cls-1" d="M105.5,258.8a22.54,22.54,0,0,1-3.6.6c-3.2.3-6,2.6-6,6,0,3.1,2.7,6.2,6,6,1.5-.1,3-.3,4.5-.5,6.7-1.1,5.1-12.2-1.6-11.8l-9.9.6c1.9,2.5,3.9,5.1,5.8,7.6,0-.1.1-.2.1-.3-.9,1.2-1.8,2.4-2.8,3.6.1-.1.2-.1.3-.2a6.15,6.15,0,0,0,2.2-8.2c-1.5-2.6-5.5-4-8.2-2.2a7.59,7.59,0,0,0-3.1,4c-1.5,3.5,2.2,7.8,5.8,7.6l9.9-.6c-.5-3.9-1.1-7.9-1.6-11.8.4-.1-1.3.1-1.3.1v12a38.58,38.58,0,0,0,6.8-1.1c7.4-1.6,4.2-13.2-3.3-11.4Z" transform="translate(-31.6 -101.2)"/><path class="cls-1" d="M105.1,269.8c5.6-.1,11.1.3,16.2-2.2-2.4-3.1-4.8-6.3-7.3-9.4-.8,1-.3,1-1.3.8-.5,3.9-1.1,7.9-1.6,11.8a128.22,128.22,0,0,1,16.4-.1c7.7.4,7.7-11.6,0-12a128.22,128.22,0,0,0-16.4.1c-6.5.5-8.4,10-1.6,11.8a12.44,12.44,0,0,0,13-3.8c4.4-5.3-1-12.4-7.3-9.4-2.6,1.3-7.3.5-10.1.6-7.7,0-7.7,12,0,11.8Z" transform="translate(-31.6 -101.2)"/><path class="cls-1" d="M69.3,268.6c-.1-.1-.1-.2-.2-.3a10.93,10.93,0,0,0-.8,1.5,1.85,1.85,0,0,0-.7-.2c0-.3-.1-.6-.1-.9,0-.1.1-.1.1-.2a2,2,0,0,0,.8-.4c.2.2.4.3.6.5-.7.4-1.3.8-2,1.2l.1.1c0-.3.1-.6.1-.9,0,.1-.1.1-.1.2.2-.2.5-.4.7-.6-.1,0-.1.1-.2.1.3,0,.6.1.9.1-.1,0-.1-.1-.2-.1-.1.7-.2,1.5-.3,2.2h.2l-1.2-.3c.1,0,.1.1.2.1a2,2,0,0,0-.4-.8v.2a2,2,0,0,1,.4-.8c-.1,0-.1.1-.2.1a14.62,14.62,0,0,0,2,.5,8.42,8.42,0,0,1-.4-2.7c-.7.3-1.4.6-2,.8.3.3.3.9.5,1.3a4.26,4.26,0,0,0,1.1,1.2,3.54,3.54,0,0,0,3,.4c1.4-.5.8-2.8-.6-2.3a4.88,4.88,0,0,0-1.1.4c-1.5.5-.8,2.8.6,2.3a11.94,11.94,0,0,1,3.3-.4c1.5.1,1.5-2.3,0-2.4a13,13,0,0,0-3.9.4c.2.8.4,1.5.6,2.3a4.88,4.88,0,0,0,1.1-.4c-.2-.8-.4-1.5-.6-2.3-1.6.5-1.4-1.5-2.3-2.2s-2-.3-2,.8a9.67,9.67,0,0,0,.5,3.4,1.2,1.2,0,0,0,2,.5c1.4-1.1,0-2.7-1.4-2.4a1.22,1.22,0,0,0-.3,2.2c1.8,1,3.1-1.4,1.6-2.7a1.21,1.21,0,0,0-2,1.2,1.61,1.61,0,1,0,1-1.7,1.13,1.13,0,0,0-.8,1.5,3.53,3.53,0,0,0,.8,1.3c.9,1,2.6-.7,1.6-1.8Z" transform="translate(-31.6 -101.2)"/><path class="cls-1" d="M131.1,269.7a1.09,1.09,0,0,1,.8-1,1.16,1.16,0,0,0-1.6.4,1.14,1.14,0,0,0,.4,1.6,1.69,1.69,0,0,0,2.2-.2,2,2,0,0,0,.3-2.2,1.16,1.16,0,0,0-1.6-.4,1.36,1.36,0,0,0-.5,1.8Z" transform="translate(-31.6 -101.2)"/><path class="cls-1" d="M147.7,283.7h0a12,12,0,0,0,1.2-1.1h-.1c.3.6.7,1.2,1,1.8.8-1.2,5.6-1.5,6.8-1.8a46.61,46.61,0,0,1,8.3-1.5c.2.7.4,1.5.6,2.2a3.61,3.61,0,0,1,1.5-.8c1.4-.6.2-2.7-1.2-2.1a10.93,10.93,0,0,0-1.5.8c-.9.6-.6,2.3.6,2.2,3.8-.1,2.3-4.6-.9-4.8-3-.2-6.4,1.2-9.4,1.9-2,.4-5.7.7-7,2.6a1.23,1.23,0,0,0,1,1.8h.1a1.16,1.16,0,0,0,1.2-1.2v-.1c.3-1.4-2.1-1.4-2.2.1Z" transform="translate(-31.6 -101.2)"/><path class="cls-1" d="M45.1,282.9a2,2,0,0,1-.9.7c-1.3.7-.3,2.4.9,2.2.7-.1,1.4-.3,2.1-.4-.3-.7-.6-1.5-.9-2.2a1.42,1.42,0,0,1-1.1.1c.1.7.2,1.5.3,2.2a3.29,3.29,0,0,1,2.2-.5l-.3-2.4c-.3.1-.7.1-1,.2.3.7.6,1.5.9,2.2.5-.3,1.6.3,2.2.4v-2.3a9.25,9.25,0,0,1-2.3.4l.3,2.4c1.5-.6,3.6.3,4.6-1.2a11.46,11.46,0,0,0,1-2.3c.2-.8,0-2.1.5-2.8-.7-.3-1.5-.6-2.2-.9-.2.8.1,1.9-.3,2.6s-.6.7-1.3,1c-.2.1-1.7.3-.8.7-.2-.3-.4-.7-.6-1v.2c.2-.3.4-.7.6-1a.64.64,0,0,1-.9.1c.2.2.5.4.7.6,0-.1-.1-.1-.1-.2,0,.3.1.6.1.9-.1,0-.2-.1-.3-.1l1.2-1.5a16.52,16.52,0,0,1-3.8-.5,1.19,1.19,0,0,0-.6,2.3,16.66,16.66,0,0,0,4.4.6,1.29,1.29,0,0,0,1.2-1.5c-.5-3.2-5.7-1-4.1,1.2.7,1,2.4.9,3.3.2a1.48,1.48,0,0,0-.3-2.6c-2.7-1-5,3.5-1.9,4.2a5.91,5.91,0,0,0,4.4-1.3,3.27,3.27,0,0,0,1.1-1.5c.3-.9,0-1.9.3-2.8a1.2,1.2,0,0,0-2.2-.9,3.62,3.62,0,0,0-.6,2.3,7.08,7.08,0,0,1-1,3.1c.2-.2.5-.4.7-.6a12.1,12.1,0,0,1-1.9.1,5.84,5.84,0,0,0-1.8.4c-1.2.4-1.1,2.4.3,2.4a10.47,10.47,0,0,0,3-.5c1.1-.3,1.2-2.1,0-2.3-1.5-.3-2.6-1-4-.2a1.2,1.2,0,0,0,.9,2.2c.3-.1.7-.1,1-.2,1.4-.3.9-2.2-.3-2.4a5.91,5.91,0,0,0-3.4.8,1.22,1.22,0,0,0,.3,2.2,3.62,3.62,0,0,0,2.9-.3c1.3-.6.3-2.4-.9-2.2-.7.1-1.4.3-2.1.4.3.7.6,1.5.9,2.2a3.81,3.81,0,0,0,1.4-1.1c1-1.2-.7-2.9-1.8-1.8Z" transform="translate(-31.6 -101.2)"/><path class="cls-1" d="M34,282h-.1c.3.2.7.4,1,.6a.1.1,0,0,0-.1-.1c0,.3.1.6.1.9v-.1a14.62,14.62,0,0,1-2,.5v-1.1h1.7a3.75,3.75,0,0,1-.1-1.1,7.37,7.37,0,0,0-.4-1.4c-.7.3-1.5.6-2.2.9a6.29,6.29,0,0,0,2.4,2.7c1.4.6,3.2.4,4.6.5s1.5-2.3,0-2.4c-1,0-2.1,0-3.2-.1s-1.4-1-1.8-1.8c-.6-1.2-2.7-.4-2.2.9s.3,2.5,1.2,3.5a1.24,1.24,0,0,0,1.7,0,1.52,1.52,0,0,0,0-2.3,1.2,1.2,0,0,0-2,.5,1.3,1.3,0,0,0,1.3,1.7c1.6.2,1.6-2.2.1-2.3Z" transform="translate(-31.6 -101.2)"/><path class="cls-1" d="M50,285.7a2.09,2.09,0,0,1,.6.4c1.3.8,2.5-1.3,1.2-2.1a2.09,2.09,0,0,1-.6-.4c-1.3-.8-2.5,1.3-1.2,2.1Z" transform="translate(-31.6 -101.2)"/><path class="cls-2" d="M81.6,103.6a57,57,0,0,0,21.7,2.9c4.5-.3,12.6-.2,15.4-4.2.4-.6-.6-1.2-1-.6-1.7,2.4-7.4,2.8-10.1,3.1a49.65,49.65,0,0,1-8.6.5,57.87,57.87,0,0,1-17-3,.69.69,0,0,0-.4,1.3Z" transform="translate(-31.6 -101.2)"/><path class="cls-2" d="M32.5,284.9c6.4.8,13,2.1,19.5,1.8a.6.6,0,0,0,0-1.2c-6.5.3-13.1-1-19.5-1.8-.7-.1-.7,1.1,0,1.2Z" transform="translate(-31.6 -101.2)"/><path class="cls-2" d="M52.1,286.4c3.9-8.5,4.7-17.8,5.9-27,1.4-10.9,2.7-21.7,4-32.6,2.8-22.3,5.9-44.5,10.7-66.5a.62.62,0,1,0-1.2-.3c-4.3,20.2-7.4,40.6-10,61.1-1.3,10.2-2.5,20.4-3.8,30.7-1.4,11.4-1.9,23.5-6.7,34.1-.3.6.8,1.2,1.1.5Z" transform="translate(-31.6 -101.2)"/><path class="cls-2" d="M32.8,283.8c1.2-43.1,5.8-86,10.5-128.8.1-.8-1.1-.8-1.2,0-4.7,42.8-9.3,85.8-10.5,128.8,0,.7,1.2.7,1.2,0Z" transform="translate(-31.6 -101.2)"/><path class="cls-2" d="M43.2,155.6c2.9-11.5.4-23.9,4.4-35.1C53,105.8,68,103.9,81.7,103.6a.6.6,0,1,0,0-1.2c-11.8.3-25.6,1.3-32.6,12.3-7.7,12-3.7,27.5-7.1,40.6a.62.62,0,0,0,1.2.3Z" transform="translate(-31.6 -101.2)"/><path class="cls-2" d="M67,271c.4-.1.7-19.7.8-21.6.4-7,.7-14.1.9-21.2.4-14.1.1-28.3-.8-42.4a.6.6,0,1,0-1.2,0c1,15.7,1.2,31.5.7,47.2-.3,7.7-.7,15.4-1.1,23.1-.2,3.8-.4,7.7-.6,11.5-.1,1.7-.5,3.1.6,4.5.1.2.4.2.6.2s.3-.1.4-.1A.62.62,0,1,0,67,271Z" transform="translate(-31.6 -101.2)"/><path class="cls-2" d="M166.9,282.4c-6.4.8-13,2.1-19.5,1.8a.6.6,0,0,0,0,1.2c6.5.3,13.1-1,19.5-1.8a.6.6,0,0,0,0-1.2Z" transform="translate(-31.6 -101.2)"/><path class="cls-2" d="M148.4,284.6c-4.7-10.3-5.2-22-6.6-33.1-1.3-10.5-2.6-21.1-3.9-31.6-2.6-20.5-5.6-40.9-10-61.1-.2-.8-1.3-.4-1.2.3,4.7,22,7.9,44.2,10.7,66.5,1.3,10.5,2.6,21.1,3.9,31.6,1.2,9.5,2,19.2,6,28,.4.7,1.4.1,1.1-.6Z" transform="translate(-31.6 -101.2)"/><path class="cls-2" d="M167.8,282.5c-1.2-43.1-5.8-86-10.5-128.8-.1-.8-1.3-.8-1.2,0,4.7,42.8,9.3,85.8,10.5,128.8.1.8,1.3.8,1.2,0Z" transform="translate(-31.6 -101.2)"/><path class="cls-2" d="M157.4,154.1c-3.4-13.2.6-28.6-7.1-40.6-7-11-20.8-12-32.6-12.3a.6.6,0,1,0,0,1.2c13.7.3,28.9,2.1,34.1,16.9,4,11.3,1.5,23.6,4.4,35.1.3.7,1.4.4,1.2-.3Z" transform="translate(-31.6 -101.2)"/><path class="cls-2" d="M132.1,270.9c.1,0,.3.1.4.1a.73.73,0,0,0,.6-.2c.9-1.1.7-2.1.6-3.5-.1-3.8-.4-7.7-.6-11.5-.4-8-.9-16-1.1-24-.5-15.8-.3-31.5.7-47.2a.6.6,0,1,0-1.2,0c-.9,14.1-1.2,28.3-.8,42.4.2,7.1.5,14.1.9,21.2.1,1.9.5,21.6.8,21.6a.57.57,0,0,0-.3,1.1Z" transform="translate(-31.6 -101.2)"/><path class="cls-2" d="M66.7,271.9c22-.3,44-.5,66-.8a.6.6,0,0,0,0-1.2c-22,.3-44,.5-66,.8-.7,0-.7,1.2,0,1.2Z" transform="translate(-31.6 -101.2)"/><path class="cls-2" d="M107.3,130.1h0c-.1.1.1.4-.1,0v1.2c-.9.1-1.1.2-.7.4a2.19,2.19,0,0,1-.5-.3.35.35,0,0,0-.1-.2v-.6l.4-.4h.5l.8.8v.4a2.19,2.19,0,0,1-.3.5l.1-.1a2.19,2.19,0,0,0-.5.3h.1c-.3,0-.6-.1-.9-.1h.1l-.4-.4v-.8l.4-.4h-.1c.3,0,.6-.1.9-.1s.3.2.5.3.1.4.2.6v.1a2.19,2.19,0,0,1-.3.5l-.1.1c-.2.1-.4.1-.6.2-.8,0-.5-.9-.7-.3l.8-.8c.2-.1.9,1.7,0,1.5-.2,0-.4-.4-.4-.6.2-.3.4-.7.6-1-.2.2,0,0,.1,0h.1l-.1-.1.1.1c-.1-.1-.1-.1,0-.1,0,.2,0,.3-.1.4l-.1.1h0c.2.1,0,0,0-.1.2.3-.1-.3,0,0l.3-1.2c-.1.1-.2.2-.3.2s-.1.1-.1,0c-.1.1-.1-.1,0,0s.2.3.2.5.1-.1.1-.1-.5.6-.2,0c.1-.2.4.5.4.6v.1c0,.2-.2.1,0,0s.6-.1.7.3a1.19,1.19,0,0,0-2.3.6,2,2,0,0,0,2,1.4,2.23,2.23,0,0,0,1.9-1.8c.3-1.8-1.2-4-3.2-3.5a2.24,2.24,0,0,0-1.7,1.8,2,2,0,0,0,1.4,2.3,3,3,0,0,0,2.3-.4,1.65,1.65,0,0,0,.8-1.3,1.9,1.9,0,0,0-.5-1.3c-1.1-1.2-3.4-1-3.8.7a2.3,2.3,0,0,0,3.2,2.6,1.5,1.5,0,0,0,.1-2.5,1.81,1.81,0,0,0-2.3,0,1.64,1.64,0,0,0,.1,2.6,1.88,1.88,0,0,0,1.5.3c.7-.2.9-.7,1-1.4.2-1.3-.9-2.6-2.2-2.1a1.52,1.52,0,0,0-.2,2.7,1.4,1.4,0,1,0-.7-.8c.1.4.4.8.8.8a1.59,1.59,0,1,0-.1-3,1.49,1.49,0,0,0-.6,2.5,2.31,2.31,0,0,0,2.5.6,1.2,1.2,0,0,0,.8-1.5,1.55,1.55,0,0,0-1.6-.8Z" transform="translate(-31.6 -101.2)"/><path class="cls-2" d="M107.3,164.1h0c-.1.1.1.4-.1,0v1.2c-.9.1-1.1.2-.7.4a2.19,2.19,0,0,1-.5-.3.35.35,0,0,0-.1-.2v-.6l.4-.4h.5l.8.8v.4a2.19,2.19,0,0,1-.3.5l.1-.1a2.19,2.19,0,0,0-.5.3h.1c-.3,0-.6-.1-.9-.1h.1l-.4-.4v-.8l.4-.4h-.1c.3,0,.6-.1.9-.1s.3.2.5.3.1.4.2.6v.1a2.19,2.19,0,0,1-.3.5l-.1.1c-.2.1-.4.1-.6.2-.8,0-.5-.9-.7-.3l.8-.8c.2-.1.9,1.7,0,1.5-.2,0-.4-.4-.4-.6.2-.3.4-.7.6-1-.2.2,0,0,.1,0h.1l-.1-.1.1.1c-.1-.1-.1-.1,0-.1,0,.2,0,.3-.1.4l-.1.1h0c.2.1,0,0,0-.1.2.3-.1-.3,0,0l.3-1.2c-.1.1-.2.2-.3.2s-.1.1-.1,0c-.1.1-.1-.1,0,0s.2.3.2.5.1-.1.1-.1-.5.6-.2,0c.1-.2.4.5.4.6v.1c0,.2-.2.1,0,0s.6-.1.7.3a1.19,1.19,0,0,0-2.3.6,2,2,0,0,0,2,1.4,2.23,2.23,0,0,0,1.9-1.8c.3-1.8-1.2-4-3.2-3.5a2.24,2.24,0,0,0-1.7,1.8,2,2,0,0,0,1.4,2.3,3,3,0,0,0,2.3-.4,1.65,1.65,0,0,0,.8-1.3,1.9,1.9,0,0,0-.5-1.3c-1.1-1.2-3.4-1-3.8.7a2.3,2.3,0,0,0,3.2,2.6,1.5,1.5,0,0,0,.1-2.5,1.81,1.81,0,0,0-2.3,0,1.64,1.64,0,0,0,.1,2.6,1.88,1.88,0,0,0,1.5.3c.7-.2.9-.7,1-1.4.2-1.3-.9-2.6-2.2-2.1a1.52,1.52,0,0,0-.2,2.7,1.4,1.4,0,1,0-.7-.8c.1.4.4.8.8.8a1.59,1.59,0,1,0-.1-3,1.49,1.49,0,0,0-.6,2.5,2.31,2.31,0,0,0,2.5.6,1.2,1.2,0,0,0,.8-1.5,1.55,1.55,0,0,0-1.6-.8Z" transform="translate(-31.6 -101.2)"/><path class="cls-2" d="M108.3,198.1h0c-.1.1.1.4-.1,0v1.2c-.9.1-1.1.2-.7.4a2.19,2.19,0,0,1-.5-.3.35.35,0,0,0-.1-.2v-.6l.4-.4h.5l.8.8v.4a2.19,2.19,0,0,1-.3.5l.1-.1a2.19,2.19,0,0,0-.5.3h.1c-.3,0-.6-.1-.9-.1h.1l-.4-.4v-.8l.4-.4h-.1c.3,0,.6-.1.9-.1s.3.2.5.3.1.4.2.6v.1a2.19,2.19,0,0,1-.3.5l-.1.1c-.2.1-.4.1-.6.2-.8,0-.5-.9-.7-.3l.8-.8c.2-.1.9,1.7,0,1.5-.2,0-.4-.4-.4-.6.2-.3.4-.7.6-1-.2.2,0,0,.1,0h.1l-.1-.1.1.1c-.1-.1-.1-.1,0-.1,0,.2,0,.3-.1.4l-.1.1h0c.2.1,0,0,0-.1.2.3-.1-.3,0,0l.3-1.2c-.1.1-.2.2-.3.2s-.1.1-.1,0c-.1.1-.1-.1,0,0s.2.3.2.5.1-.1.1-.1-.5.6-.2,0c.1-.2.4.5.4.6v.1c0,.2-.2.1,0,0s.6-.1.7.3a1.19,1.19,0,0,0-2.3.6,2,2,0,0,0,2,1.4,2.23,2.23,0,0,0,1.9-1.8c.3-1.8-1.2-4-3.2-3.5a2.24,2.24,0,0,0-1.7,1.8,2,2,0,0,0,1.4,2.3,3,3,0,0,0,2.3-.4,1.65,1.65,0,0,0,.8-1.3,1.9,1.9,0,0,0-.5-1.3c-1.1-1.2-3.4-1-3.8.7a2.3,2.3,0,0,0,3.2,2.6,1.5,1.5,0,0,0,.1-2.5,1.81,1.81,0,0,0-2.3,0,1.64,1.64,0,0,0,.1,2.6,1.88,1.88,0,0,0,1.5.3c.7-.2.9-.7,1-1.4.2-1.3-.9-2.6-2.2-2.1a1.52,1.52,0,0,0-.2,2.7,1.4,1.4,0,1,0-.7-.8c.1.4.4.8.8.8a1.59,1.59,0,1,0-.1-3,1.49,1.49,0,0,0-.6,2.5,2.31,2.31,0,0,0,2.5.6,1.2,1.2,0,0,0,.8-1.5,1.55,1.55,0,0,0-1.6-.8Z" transform="translate(-31.6 -101.2)"/><path class="cls-2" d="M108.1,237.1h0c-.1.1.1.4-.1,0v1.2c-.9.1-1.1.2-.7.4a2.19,2.19,0,0,1-.5-.3.35.35,0,0,0-.1-.2v-.6l.4-.4h.5l.8.8v.4a2.19,2.19,0,0,1-.3.5l.1-.1a2.19,2.19,0,0,0-.5.3h.1c-.3,0-.6-.1-.9-.1h.1l-.4-.4v-.8l.4-.4h-.1c.3,0,.6-.1.9-.1s.3.2.5.3.1.4.2.6v.1a2.19,2.19,0,0,1-.3.5l-.1.1c-.2.1-.4.1-.6.2-.8,0-.5-.9-.7-.3l.8-.8c.2-.1.9,1.7,0,1.5-.2,0-.4-.4-.4-.6.2-.3.4-.7.6-1-.2.2,0,0,.1,0h.1l-.1-.1.1.1c-.1-.1-.1-.1,0-.1,0,.2,0,.3-.1.4l-.1.1h0c.2.1,0,0,0-.1.2.3-.1-.3,0,0l.3-1.2c-.1.1-.2.2-.3.2s-.1.1-.1,0c-.1.1-.1-.1,0,0s.2.3.2.5.1-.1.1-.1-.5.6-.2,0c.1-.2.4.5.4.6v.1c0,.2-.2.1,0,0s.6-.1.7.3a1.19,1.19,0,0,0-2.3.6,2,2,0,0,0,2,1.4,2.23,2.23,0,0,0,1.9-1.8c.3-1.8-1.2-4-3.2-3.5a2.24,2.24,0,0,0-1.7,1.8,2,2,0,0,0,1.4,2.3,3,3,0,0,0,2.3-.4,1.65,1.65,0,0,0,.8-1.3,1.9,1.9,0,0,0-.5-1.3c-1.1-1.2-3.4-1-3.8.7a2.3,2.3,0,0,0,3.2,2.6,1.5,1.5,0,0,0,.1-2.5,1.81,1.81,0,0,0-2.3,0,1.64,1.64,0,0,0,.1,2.6,1.88,1.88,0,0,0,1.5.3c.7-.2.9-.7,1-1.4.2-1.3-.9-2.6-2.2-2.1a1.52,1.52,0,0,0-.2,2.7,1.4,1.4,0,1,0-.7-.8c.1.4.4.8.8.8a1.59,1.59,0,1,0-.1-3,1.49,1.49,0,0,0-.6,2.5,2.31,2.31,0,0,0,2.5.6,1.2,1.2,0,0,0,.8-1.5,1.55,1.55,0,0,0-1.6-.8Z" transform="translate(-31.6 -101.2)"/><line class="cls-3" x1="64.7" y1="5.1" x2="67.1" y2="169.8"/></svg>