<?xml version="1.0" encoding="utf-8"?>
<!-- Generator: Adobe Illustrator 21.0.2, SVG Export Plug-In . SVG Version: 6.00 Build 0)  -->
<svg version="1.1" id="Layer_1" xmlns="http://www.w3.org/2000/svg" xmlns:xlink="http://www.w3.org/1999/xlink" x="0px" y="0px"
	 viewBox="0 0 200 600" style="enable-background:new 0 0 200 600;" xml:space="preserve">
<style type="text/css">
	.st0{fill:#613515;}
	.st1{fill:#602F13;}
	.st2{fill:none;stroke:#000000;stroke-width:0.1;stroke-miterlimit:10;}
</style>
<g>
	<path class="st0" d="M72.8,54.7c1.1-8.1,5.1-15.6,11.3-20.9c0.6-0.5-0.3-1.3-0.8-0.8c-6.3,5.5-10.4,13.1-11.6,21.5
		C71.5,55.2,72.6,55.5,72.8,54.7L72.8,54.7z"/>
	<g>
		<path class="st1" d="M101.7,38.2c-7.6,5.1-15.3,10.1-22.9,15.1c-2.9,2.1-6.1,3.9-9.3,5.4l-0.6-0.1c-0.3-1.7-0.3-3.4,0.1-5
			c1.6-9,5.6-18,13.2-23.1c1.5-1,3.2-1.9,4.8-2.7c2.5-1.2,5.1-2.5,7.9-2.3c0.8,0.1,1.6,0.1,2.4,0.1c0.6-0.1,1.2-0.3,1.8-0.4
			c0.9-0.1,1.7-0.1,2.6,0c4.8,0.5,9.8,1,13.8,3.6V29c6.7-3.3,15.1-3.9,21.5,0c0.8,0.5,1.5,1.1,2.2,1.7c0.7,1,1.3,2,1.7,3.1
			c1.8,4.1,3.1,8.3,3.8,12.7c0.2,2.4,0.3,4.9,0.3,7.4c0,4,0,8,0,12c0,6.1-0.1,12.2-1.2,18.1h-0.2c-0.7-9.9-2.8-19.7-6-29.1
			c-1.9-5.6-4.4-11.2-8.8-15.3l-0.6,0.2c1.8,3.8,3,7.8,3.8,11.8c-2.8-2.3-5.8-4.1-9.2-5.3c-1.6-0.6-3.3-1-4.9-1.5
			c-4.8-1.6-9.2-4.2-12.8-7.6l-0.9,0.2C103.3,37.4,102.4,37.7,101.7,38.2L101.7,38.2z"/>
		<path class="st2" d="M68.9,58.7c-0.3-1.7-0.3-3.4,0.1-5c1.6-9,5.6-18,13.2-23.1c1.5-1,3.2-1.9,4.8-2.7c2.5-1.2,5.1-2.5,7.9-2.3
			c0.8,0.1,1.6,0.1,2.4,0.1c0.6-0.1,1.2-0.3,1.8-0.4c0.9-0.1,1.7-0.1,2.6,0c4.8,0.5,9.8,1,13.8,3.6c0.2,0.1,0.4,0.3,0.6,0.4"/>
		<path class="st2" d="M124.2,35c0.1-0.3,0.5-0.1,0.7,0.1c1.3,1.4,2.4,3,3.3,4.8c1.8,3.8,3,7.8,3.8,11.8c0,0.1,0.1,0.2,0.1,0.3"/>
		<path class="st2" d="M105.1,37.3c3.7,3.4,8.1,6,12.8,7.6c1.6,0.5,3.3,0.9,4.9,1.5c3.3,1.3,6.4,3.1,9.2,5.3l0.4,0.3"/>
		<path class="st2" d="M69.5,58.8c3.2-1.6,6.4-3.4,9.3-5.4c7.6-5.1,15.3-10.1,22.9-15.1l0.8-0.5"/>
		<path class="st2" d="M101.7,38.2c0.7-0.5,1.6-0.7,2.5-0.7h0.1"/>
		<path class="st2" d="M115.5,29c6.7-3.3,15.1-3.9,21.5,0c0.8,0.5,1.5,1.1,2.2,1.7c0.7,1,1.3,2,1.7,3.1c1.8,4.1,3,8.3,3.7,12.7
			c0.2,2.4,0.3,4.9,0.3,7.4c0,4,0,8,0,12c0,6.1-0.1,12.2-1.2,18.1"/>
		<path class="st2" d="M143.5,84.2c0,0,0-0.1,0-0.1c-0.7-9.9-2.8-19.7-6-29.1c-1.9-5.6-4.4-11.2-8.8-15.3"/>
		<path d="M70.1,58.8c-0.5-11.1,5-22.7,14.5-28.7c9.8-6.2,20.6-4.4,30.8-0.5c0.7,0.3,1-0.9,0.3-1.1c-11.1-4.2-22.7-5.7-33,1.5
			c-9.1,6.4-14.3,17.9-13.8,28.9C68.9,59.6,70.1,59.6,70.1,58.8z"/>
		<path d="M70.2,59.6c12.4-6.7,23.2-16,35.9-22c0.7-0.3,0.1-1.4-0.6-1c-12.8,6-23.6,15.3-35.9,22C69,59,69.6,60,70.2,59.6L70.2,59.6
			z"/>
		<path d="M105.5,37.2c1.2,3.1,3.8,4.2,6.8,5.4s5.8,2.3,8.7,3.4c2.3,0.9,9.2,2.9,10.2,5.7c0.3,0.7,1.4,0.4,1.1-0.3
			c-0.8-2.2-4.8-3.9-6.7-4.8c-4.8-2.1-16.9-4.4-18.9-9.8C106.4,36.2,105.2,36.5,105.5,37.2L105.5,37.2z"/>
		<path d="M116.4,29.8c4.5-1.6,9.2-2.3,14-2c6.4,0.6,9.9,4.2,11.4,10.3c0.1,0.3,0.5,0.5,0.8,0.3c0.3-0.1,0.4-0.4,0.4-0.7
			c-1.2-4.7-3-8.5-7.9-10.2c-6-2.2-13.1-0.9-19,1C115.4,28.9,115.7,30.1,116.4,29.8L116.4,29.8z"/>
		<path d="M127.8,39.6c6,4.8,8.5,12,10.7,19.1c2.3,7.4,4.4,16.1,3.9,23.9c0,0.8,1.1,0.8,1.2,0c0.5-8.5-1.9-17.8-4.5-25.8
			c-2.2-6.8-4.9-13.4-10.6-18C128.1,38.3,127.2,39.1,127.8,39.6L127.8,39.6z"/>
		<path d="M144,84.3c3.8-15.1,1.7-31.8-1.1-46.8c-0.1-0.8-1.3-0.4-1.1,0.3c2.8,14.8,4.9,31.4,1.1,46.2c-0.1,0.3,0.2,0.6,0.5,0.7
			C143.7,84.7,143.9,84.5,144,84.3L144,84.3z"/>
		<path d="M142.5,81.7c-0.2,0.8-0.2,1.7,0,2.6c0.1,0.3,0.5,0.5,0.8,0.3c0.3-0.1,0.4-0.4,0.4-0.7c-0.2-0.6-0.2-1.3,0-1.9
			C143.8,81.2,142.7,80.9,142.5,81.7L142.5,81.7z"/>
		<path d="M128.9,39c-1-2.2-2.7-4.1-4.8-5.3c-0.3-0.1-0.7,0.1-0.8,0.4c-0.1,0.2,0,0.4,0.2,0.6c1.9,1.2,3.4,2.9,4.3,4.9
			C128.2,40.3,129.2,39.7,128.9,39L128.9,39z"/>
		<path d="M132.1,51.8c-1-4.5-0.8-9.2-3.2-13.3c-0.2-0.2-0.6-0.2-0.8,0c-0.2,0.2-0.2,0.4-0.2,0.6c2.3,4,2.1,8.6,3,13
			C131.1,52.9,132.2,52.6,132.1,51.8L132.1,51.8z"/>
		<path class="st1" d="M104.3,32.7c-1.5,0.8-2.9,1.9-3.8,3.4c-0.9,1.3,0.3,2.3,1.6,1.6l-0.9-0.4c0.1,0.5,0.6,0.8,1.1,0.7
			c0.2,0,0.3-0.1,0.5-0.2c0.4-0.4,0-1-0.4-1c-0.6-0.1-1.2,0.2-1.6,0.6c-0.2,0.3-0.2,0.6,0.1,0.8c0.2,0.2,0.4,0.2,0.7,0.1l1-0.5
			l-0.7-0.9c-0.3,0.3-0.6,0.5-1,0.5c-0.8,0.1-0.8,1.3,0,1.2c0.7,0,1.3-0.4,1.8-0.8c0.2-0.3,0.2-0.6-0.1-0.8
			c-0.2-0.2-0.4-0.2-0.7-0.1l-1,0.5l0.7,0.9c0.2-0.3,0.5-0.4,0.8-0.3l-0.4-1l0.4,0.1c-0.1-0.3-0.4-0.5-0.7-0.4c0,0-0.1,0-0.1,0.1
			c-0.2,0.4-0.2,0.4,0,0c0.1-0.2,0.3-0.4,0.4-0.6c0.3-0.3,0.5-0.6,0.8-0.9c0.6-0.6,1.3-1.1,2.1-1.5
			C105.5,33.4,104.9,32.4,104.3,32.7L104.3,32.7z"/>
		<path class="st0" d="M73.5,55c6.8-5.6,14.1-10.6,21.8-14.8c0.7-0.4,0.1-1.4-0.6-1c-7.8,4.3-15.2,9.3-22.1,15
			C72,54.6,72.9,55.5,73.5,55z"/>
		<path class="st0" d="M108.8,36.4c0.7,2.8,2.8,3.9,5.5,4.6c4.5,1.2,9.3,1,12.9,4.3c0.6,0.5,1.4-0.3,0.8-0.8c-1.8-1.6-4-2.6-6.3-3.2
			c-3.6-0.9-10.6-0.6-11.8-5.2c-0.1-0.3-0.5-0.5-0.8-0.3C108.9,35.8,108.7,36.1,108.8,36.4L108.8,36.4z"/>
		<path class="st0" d="M120.5,30.8c6.4-2,12.5-1.3,16.5,4.5c2.7,3.9,4.1,8.5,4.2,13.2c0,0.3,0.3,0.6,0.7,0.5c0.3,0,0.5-0.2,0.5-0.5
			c0-5.9-2.1-11.6-6-16c-4.2-4.7-10.5-4.6-16.1-2.9C119.5,29.9,119.8,31.1,120.5,30.8L120.5,30.8z"/>
		<path class="st0" d="M140.9,55.5v-1.1l-1,0.4c2.4,2.5,3.2,5.8,3.4,9.2c0.1,0.8,1.3,0.8,1.2,0c-0.3-3.7-1.2-7.3-3.8-10
			c-0.2-0.2-0.6-0.2-0.8,0c-0.1,0.1-0.1,0.2-0.2,0.4v1.1C139.8,56.2,141,56.2,140.9,55.5L140.9,55.5z"/>
		<path class="st0" d="M85.2,40.2c4.8-3.3,10.3-5.6,16-6.6c0.8-0.1,0.4-1.3-0.3-1.2c-5.8,1.1-11.4,3.4-16.3,6.8
			C84,39.6,84.6,40.6,85.2,40.2L85.2,40.2z"/>
		<path d="M115.2,29.7c3,1.3,5.7,2.9,8.3,4.9c0.6,0.5,1.2-0.6,0.6-1c-2.6-2-5.4-3.6-8.3-4.9C115.1,28.3,114.5,29.4,115.2,29.7
			L115.2,29.7z"/>
	</g>
</g>
</svg>
