<?xml version="1.0" encoding="utf-8"?>
<!-- Generator: Adobe Illustrator 21.0.2, SVG Export Plug-In . SVG Version: 6.00 Build 0)  -->
<svg version="1.1" id="Layer_1" xmlns="http://www.w3.org/2000/svg" xmlns:xlink="http://www.w3.org/1999/xlink" x="0px" y="0px"
	 viewBox="0 0 200 600" style="enable-background:new 0 0 200 600;" xml:space="preserve">
<style type="text/css">
	.st0{fill:#EF7A22;}
	.st1{fill:none;stroke:#000000;stroke-miterlimit:10;}
	.st2{fill:#ED8622;}
</style>
<g>
	<g id="XMLID_2_">
		<g>
			<path class="st0" d="M126.7,113L126.7,113c-0.1,1.9-0.7,3.7-1.8,5.1c-0.9,1.2-2,2-2.9,3.1c-1.2,1.4-2.1,3-3.3,4.3
				c-1.2,1.3-3,2.3-4.6,1.7c-0.1,0-0.3-0.1-0.3-0.2c-0.1-0.2,0-0.4,0.1-0.6c0.9-1.5,2.1-2.9,3-4.4c0.9-1.5,1.7-3.3,1.7-5.1
				c0-1.9-0.9-3.8-2.4-4.5l-1.2,0.1c-0.7-1-1.1-2.4-1.5-3.7c-0.5-1.5-1.2-2.9-2.1-4.1c-0.3-0.4-0.6-0.7-0.7-1.2
				c-0.4-0.9-0.2-1.9,0-2.9c0.4-2.7,0.5-5.4,0.3-8l0.2,0c0.2-0.5,0.7-0.8,1.1-0.9c0.5-0.1,1,0,1.5-0.1c0.8-0.1,1.5-0.6,2.1-1
				c3.2-2.2,6.1-4.7,8.8-7.6l0.3,0.1c0.2-0.6,0.4-1.3,0.6-1.9c0.5-2.1,0-4.4-0.2-6.6c-0.2-3.4,0.5-6.9,2.1-9.9l0.2-0.1
				c-0.7-3.1-0.8-6.4-0.4-9.5c0.4-2.8,1.1-5.9-0.2-8.4c-1.5-2.8-4-4.3-6.5-6.1c-1.8-1.3-3.3-3.4-5.1-4.7c-2.5-1.8-6.5-2.6-9.5-2.3
				c-3,0.3-5.9,2.7-8.7,3.7l-0.1,0.1c-1-0.7-2.2-1.1-3.4-1.3c-2.1-0.4-4.2-0.2-6.3,0c-2.4,0.2-4.8,0.5-6.9,1.6
				c-2.6,1.3-4.6,3.6-6.4,5.9c-0.7,0.8-1.4,1.7-1.9,2.7c-1.3,2.9-0.5,6.3-0.7,9.5c-0.1,1.2-0.3,2.3-0.7,3.4c-0.7,2-1.8,3.9-3.3,5.3
				l-2.9,0.5c-0.1-0.6-0.2-1.2-0.2-1.8c-0.5-5,0.4-10,1.4-15c1.2-6.5,2.7-13.3,7.1-17.9c1.7-1.7,3.7-3,5.6-4.2
				c2.1-1.3,4.2-2.7,6.5-3.5c1.9-0.7,4-1,6-1.1c2.6-0.1,5.3,0,7.6,1.3c0.3-0.6,0.9-0.9,1.4-1.1c3.7-1.5,7.9-1.2,11.7,0
				c3.8,1.3,7.1,3.6,10.4,6.1c1.5,1.1,2.4,1.6,4.4,4.3c1.5,2.1,2.5,4.8,3.3,7.4c1,3.5,1.7,7.1,2,10.8c0.8,2.9,1.6,5.8,2.4,8.7
				c0.6,2.4,1.3,4.9,1,7.3c-0.2,1.9-1,3.6-1.3,5.4c-0.8,4.3,0.7,8.6,2.7,12.6c1.3,1.6,2.5,3.5,2,5.5c-0.5,2.1-2.6,3.3-3.3,5.3
				c-0.5,1.6-0.1,3.4,0.2,5.1c0.3,1.7,0.4,3.7-0.7,5c-0.6,0.7-1.5,1.1-2.2,1.6c-2.3,1.9-2.4,5.5-1.9,8.5c0.4,3.2,1.2,6.4,2.2,9.5
				l-0.5,0.1c-2.1-1.4-3.6-3.6-4.5-6C127.4,117.3,127,115.2,126.7,113z"/>
			<path class="st0" d="M62.3,88.8c-1-1.7-1.7-3.6-1.5-5.5c0.1-1.2,0.5-2.3,0.9-3.4c0.6-1.7,1.4-3.4,2.5-4.8
				c0.2-0.3,0.5-0.6,0.7-0.8l-0.2-0.2c1-2.8,0.4-5.9-0.1-8.9l2.9-0.5c1.5-1.5,2.6-3.3,3.3-5.3l0.4,0.1c-0.6,1.8-0.7,3.8-0.3,5.7
				c0.6,3.1,2.4,5.8,2.8,8.9c0.3,2-0.1,4-0.6,5.9l0.6,0.1c3.1,3.6,6.2,7.3,10.2,9.7c1.6,0.9,3.3,1.6,4.9,2.3h0.2
				c0.1,3.1,0.2,6.1,0.2,9.2c0.1,1.8,0,3.8-1.1,5c-0.5,1.2-0.6,2.6-1,3.8c-0.6,1.6-2.4,3.2-3.8,2.2c-0.4-0.3-0.8-0.8-1.2-0.9
				c-0.9-0.3-1.8,0.6-2.2,1.6c-1.2,2.9-0.6,6.8-2.8,9c-0.9,0.9-2.2,1.3-3.4,1.9c-1.2,0.6-2.3,1.4-2.6,2.8c-0.8-1.5-1.6-3.3-1.1-4.9
				c0.3-0.8,0.9-1.5,1.4-2.2c0.7-0.9,1.3-2,1.4-3.2c0.1-1.2-0.4-2.5-1.4-3c-0.2,2-2.4,3-3.8,4.4c-1.5,1.6-2.1,3.9-2.1,6.2
				c0.1,2.3,0.8,4.4,1.6,6.5c-3-1.6-5.4-4.3-6.9-7.4l-0.2,0.1c-0.8-2-1.3-4-1-6.1c0.4-2.7,2.2-4.9,3.2-7.4c1.1-2.6,1.3-5.7,0.5-8.5
				c-0.5-2.1-1.5-3.9-2-6c-0.5-2.1-0.3-4.6,1.2-5.9L62.3,88.8z"/>
		</g>
		<g>
			<path class="st1" d="M98.8,23.1c0,0-0.1,0-0.1-0.1c-2.3-1.3-5-1.5-7.6-1.3c-2,0.1-4.1,0.4-6,1.1c-2.3,0.8-4.4,2.1-6.5,3.5
				c-2,1.3-4,2.5-5.6,4.2c-4.4,4.6-5.9,11.4-7.1,17.9c-0.9,4.9-1.9,10-1.4,15c0.1,0.6,0.1,1.2,0.2,1.8c0.4,3,1,6.1,0.1,8.9"/>
			<path class="st1" d="M68.5,72.3c-1.3,0.2-2.6,1-3.6,2c-0.3,0.3-0.5,0.5-0.7,0.8c-1.1,1.4-1.9,3.1-2.5,4.8
				c-0.4,1.1-0.8,2.2-0.9,3.4c-0.1,2,0.5,3.8,1.5,5.5c0.8,1.4,1.9,2.7,2.9,3.9"/>
			<path class="st1" d="M62.2,88.9c-1.5,1.4-1.7,3.9-1.2,5.9c0.5,2.1,1.5,4,2,6c0.7,2.8,0.5,5.8-0.5,8.5c-1,2.5-2.8,4.7-3.2,7.4
				c-0.3,2.1,0.2,4.1,1,6.1c0.3,0.7,0.5,1.3,0.8,2"/>
			<path class="st1" d="M98.6,23.1C98.6,23.1,98.7,23.1,98.6,23.1c0.3-0.7,0.9-1,1.5-1.2c3.7-1.5,7.9-1.2,11.7,0
				c3.8,1.3,7.1,3.6,10.4,6.1c1.5,1.1,2.4,1.6,4.4,4.3c1.5,2.1,2.5,4.8,3.3,7.4c1,3.5,1.7,7.1,2,10.8c0.1,0.7,0.1,1.5,0.2,2.3"/>
			<path class="st1" d="M131.8,50.1c0,0.1,0.1,0.3,0.1,0.4c0.8,2.9,1.6,5.8,2.4,8.7c0.6,2.4,1.3,4.9,1,7.3c-0.2,1.9-1,3.6-1.3,5.4
				c-0.8,4.3,0.7,8.6,2.7,12.6c0.5,0.9,1,1.8,1.5,2.7"/>
			<path class="st1" d="M136.2,83.9c0.2,0.2,0.4,0.4,0.6,0.7c1.3,1.6,2.5,3.5,2,5.5c-0.5,2.1-2.6,3.3-3.3,5.3
				c-0.5,1.6-0.1,3.4,0.2,5.1c0.3,1.7,0.4,3.7-0.7,5c-0.6,0.7-1.5,1.1-2.2,1.6c-2.3,1.9-2.4,5.5-1.9,8.5c0.4,3.2,1.2,6.4,2.2,9.5"/>
			<path class="st1" d="M60.4,122.7c1.5,3.2,4,5.8,6.9,7.4c-0.8-2.1-1.5-4.3-1.6-6.5c-0.1-2.3,0.5-4.6,2.1-6.2
				c1.4-1.4,3.6-2.4,3.8-4.4c1,0.5,1.5,1.8,1.4,3c-0.1,1.2-0.7,2.3-1.4,3.2c-0.5,0.7-1.1,1.4-1.4,2.2c-0.5,1.6,0.3,3.4,1.1,4.9
				c0.3-1.3,1.5-2.2,2.6-2.8c1.2-0.6,2.4-1,3.4-1.9c2.2-2.2,1.6-6.1,2.8-9c0.4-0.9,1.3-1.9,2.2-1.6c0.5,0.2,0.8,0.7,1.2,0.9
				c1.4,0.9,3.2-0.6,3.8-2.2c0.4-1.2,0.6-2.6,1-3.8c0.2-0.4,0.3-0.8,0.6-1.2"/>
			<path class="st1" d="M133.5,125.8c-0.3-0.2-0.6-0.3-0.9-0.5c-2.1-1.4-3.6-3.6-4.5-6c-0.8-2-1.2-4.1-1.4-6.2
				c-0.1-0.8-0.2-1.7-0.3-2.5"/>
			<path class="st1" d="M116.3,112.4c1.5,0.7,2.4,2.6,2.4,4.5c0,1.9-0.8,3.6-1.7,5.1c-0.9,1.5-2.1,2.9-3,4.4
				c-0.1,0.2-0.2,0.4-0.1,0.6c0.1,0.1,0.2,0.2,0.3,0.2c1.6,0.5,3.4-0.4,4.6-1.7c1.2-1.3,2.1-3,3.3-4.3c0.9-1.1,2-2,2.9-3.1
				c1.1-1.4,1.7-3.2,1.7-5.1"/>
			<path class="st1" d="M116.3,113.6c-0.5-0.2-0.9-0.6-1.3-1c-0.7-1-1.1-2.4-1.5-3.7c-0.5-1.5-1.2-2.9-2.1-4.1
				c-0.3-0.4-0.6-0.7-0.7-1.2c-0.4-0.9-0.2-1.9,0-2.9c0.4-2.7,0.5-5.4,0.3-8"/>
			<path class="st1" d="M99.2,39.2c-0.6-0.7-1.3-1.4-2-1.8c-1-0.7-2.2-1.1-3.4-1.3c-2.1-0.4-4.2-0.2-6.3,0c-2.4,0.2-4.8,0.5-6.9,1.6
				c-2.6,1.3-4.6,3.6-6.4,5.9c-0.7,0.8-1.4,1.7-1.9,2.7c-1.3,2.9-0.5,6.3-0.7,9.5c-0.1,1.2-0.3,2.3-0.7,3.4c-0.7,2-1.8,3.9-3.3,5.3"
				/>
			<path class="st1" d="M69,87.6c2.3-1.3,3.4-4.2,4.1-6.9c0.1-0.2,0.1-0.4,0.2-0.6C73.7,78,74,76,73.8,74c-0.4-3.1-2.2-5.8-2.8-8.9
				c-0.4-1.9-0.3-3.9,0.3-5.7c0.1-0.4,0.2-0.7,0.4-1.1"/>
			<path class="st1" d="M97.2,37.3c2.8-1,5.8-3.4,8.7-3.7c3-0.3,7,0.5,9.5,2.3c1.8,1.3,3.3,3.5,5.1,4.7c2.6,1.8,5,3.3,6.5,6.1
				c1.3,2.5,0.6,5.5,0.2,8.4c-0.4,3.2-0.3,6.4,0.4,9.5c0.5,2.5,1.3,4.8,2.5,7"/>
			<path class="st1" d="M126.2,91.5c-1-1.8-2.1-3.7-2-5.8c0.1-0.9,0.3-1.7,0.7-2.6c0.2-0.6,0.4-1.3,0.6-1.9c0.5-2.1,0-4.4-0.2-6.6
				c-0.2-3.4,0.5-6.9,2.1-9.9"/>
			<path class="st1" d="M76.7,104.6c-1.3-0.7-2.8-1.7-2.8-3.2c0-0.6,0.3-1.2,0.6-1.8c0.9-1.7,1.7-3.4,2-5.3s0.1-3.8-0.9-5.4"/>
			<path class="st1" d="M76.9,104.6c-0.4-2,0.9-3.8,2.1-5.3c1.2-1.5,2.5-3.4,2-5.4"/>
			<path class="st1" d="M121.7,106c0.5-1,0.3-2.4-0.3-3.4c-0.6-1-1.4-1.8-2.3-2.6c-1.4-1.3-2.9-2.6-4.3-3.9"/>
			<path class="st1" d="M121.8,106.8c0.3-0.4,0.7-0.9,1-1.4c0.3-0.5,0.7-0.9,0.9-1.4c0.5-1.3,0.3-2.8,0-4.2
				c-0.1-0.7-0.3-1.5-0.6-2.1c-0.4-0.6-0.9-1-1.4-1.5c-0.9-0.9-1.5-2.1-1.9-3.4"/>
			<path class="st1" d="M88.3,106.2C88.4,106.2,88.4,106.2,88.3,106.2c1.2-1.3,1.2-3.3,1.1-5c-0.1-3.1-0.2-6.1-0.2-9.2"/>
			<path class="st1" d="M73.8,80c3.1,3.6,6.2,7.3,10.2,9.7c1.6,0.9,3.3,1.6,4.9,2.3"/>
			<path class="st1" d="M111.2,92.7c0.2-0.5,0.7-0.8,1.1-0.9c0.5-0.1,1,0,1.5-0.1c0.8-0.1,1.5-0.6,2.1-1c3.2-2.2,6.1-4.7,8.8-7.6"/>
		</g>
	</g>
	<g>
		<g>
			<path class="st2" d="M66.8,90.1c-2.8-2.2-4.2-5.5-3.6-9.1c0.1-0.7-1-1.1-1.1-0.3c-0.6,3.9,0.8,7.8,3.9,10.2
				C66.6,91.4,67.4,90.5,66.8,90.1L66.8,90.1z"/>
		</g>
	</g>
	<g>
		<g>
			<path class="st2" d="M68.9,86.3c1-1.6,1.7-3.3,2.3-5.1c0.2-0.7-0.9-1-1.1-0.3c-0.5,1.7-1.2,3.3-2.1,4.8
				C67.5,86.3,68.5,86.9,68.9,86.3L68.9,86.3z"/>
		</g>
	</g>
	<g>
		<g>
			<path class="st2" d="M76.1,102c-0.5-1.4,1.5-2.7,2.3-3.7c0.7-1,1.3-2,1.7-3.1c0.3-0.7-0.9-1-1.1-0.3c-0.7,1.9-1.9,3.1-3.2,4.6
				c-0.7,0.8-1.2,1.8-0.8,2.9C75.2,103.1,76.4,102.7,76.1,102L76.1,102z"/>
		</g>
	</g>
	<g>
		<g>
			<path class="st2" d="M64.2,125c-1.8-1.3-3.5-5.9-2.4-7.8c0.7-1.2,1.4-2,1.6-3.4c0.1-0.8-1.1-0.8-1.2,0c-0.3,2.5-2.6,3.4-1.9,6.2
				c0.5,2.1,1.5,4.7,3.3,6C64.2,126.5,64.8,125.5,64.2,125L64.2,125z"/>
		</g>
	</g>
	<g>
		<g>
			<path class="st2" d="M72,123.6c0.1-1.3,1.9-1.8,2.8-2.4c0.7-0.5,1.2-1.1,1.7-1.8c1.2-1.8,1.6-4,2-6.1c0.1-0.7-1-1.1-1.1-0.3
				c-0.5,2.6-1,5.6-3.4,7.3c-1.5,1-3,1.3-3.2,3.3C70.7,124.4,71.9,124.4,72,123.6L72,123.6z"/>
		</g>
	</g>
	<g>
		<g>
			<path class="st2" d="M66.4,104.5c0-3.1-0.9-6-2.5-8.6c-0.4-0.6-1.4,0-1,0.6c1.6,2.4,2.3,5.1,2.4,8
				C65.2,105.2,66.4,105.2,66.4,104.5L66.4,104.5z"/>
		</g>
	</g>
	<g>
		<g>
			<path class="st2" d="M66.9,62.4c2.4-3,2.1-7.5,2.4-11.1c0.1-0.8-1.1-0.8-1.2,0c-0.3,3.2,0.1,7.6-2,10.3
				C65.6,62.2,66.4,63,66.9,62.4L66.9,62.4z"/>
		</g>
	</g>
	<g>
		<g>
			<path class="st2" d="M78.1,30.5c2.4-2.5,5-4,8.4-4.7c2.8-0.6,6.8-1.6,9.5-0.8c0.7,0.2,1-0.9,0.3-1.1c-3.1-0.9-7.1,0.2-10.1,0.8
				c-3.7,0.8-6.3,2.2-8.9,5C76.7,30.2,77.6,31,78.1,30.5L78.1,30.5z"/>
		</g>
	</g>
	<g>
		<g>
			<path class="st2" d="M98.7,35.1c3.9-1.8,9.6-5.4,13.9-2.4c0.6,0.4,1.2-0.6,0.6-1c-4.7-3.3-10.7,0.4-15.1,2.4
				C97.4,34.4,98,35.4,98.7,35.1L98.7,35.1z"/>
		</g>
	</g>
	<g>
		<g>
			<path class="st2" d="M131.8,67.7c-2-4-2.3-8.3-1-12.6c0.2-0.7-0.9-1-1.1-0.3c-1.4,4.6-1,9.2,1.1,13.5
				C131.1,69,132.1,68.4,131.8,67.7L131.8,67.7z"/>
		</g>
	</g>
	<g>
		<g>
			<path class="st2" d="M128,89.5c-1.1-2.1-0.5-3.7,0.2-5.8c0.5-1.4,0.6-2.8,0.6-4.2c0-0.8-1.2-0.8-1.2,0c-0.1,3.8-2.6,6.9-0.7,10.6
				C127.3,90.7,128.4,90.1,128,89.5L128,89.5z"/>
		</g>
	</g>
	<g>
		<g>
			<path class="st2" d="M116.8,95.4c2.1,1.4,3.8,3.3,4.8,5.7c0.3,0.7,1.4,0.4,1.1-0.3c-1.1-2.6-2.9-4.8-5.3-6.4
				C116.8,94,116.2,95,116.8,95.4L116.8,95.4z"/>
		</g>
	</g>
	<g>
		<g>
			<path class="st2" d="M116.7,126.1c0.9-2.3,3.3-4,4.6-6.1c1.2-2.1,2-4.3,2.4-6.7c0.1-0.7-1-1.1-1.1-0.3c-0.5,2.9-1.6,5.7-3.4,8
				c-1.2,1.6-2.8,2.8-3.6,4.8C115.3,126.5,116.4,126.8,116.7,126.1L116.7,126.1z"/>
		</g>
	</g>
	<g>
		<g>
			<path class="st2" d="M116.3,110.6c-1.3-2.5-1.4-5.5-3.2-7.9c-0.5-0.6-1.5,0-1,0.6c1.7,2.3,1.9,5.3,3.2,7.9
				C115.7,111.9,116.7,111.3,116.3,110.6L116.3,110.6z"/>
		</g>
	</g>
	<g>
		<g>
			<path class="st2" d="M131,121.2c-1.3-3.6-2.5-7.4-1.8-11.3c0.1-0.7-1-1.1-1.1-0.3c-0.8,4.1,0.4,8,1.8,11.9
				C130.1,122.2,131.2,121.9,131,121.2L131,121.2z"/>
		</g>
	</g>
	<g>
		<g>
			<path class="st2" d="M132,106.3c1.6-0.6,1.8-2.3,1.6-3.9c-0.1-0.8-1.3-0.8-1.2,0c0.1,0.9,0.3,2.3-0.7,2.7
				C131,105.5,131.3,106.6,132,106.3L132,106.3z"/>
		</g>
	</g>
	<g>
		<g>
			<path class="st2" d="M137,88.3c-2.2-1.6-2.8-4.9-3.6-7.4c-0.2-0.7-1.4-0.4-1.1,0.3c1,2.8,1.6,6.2,4.2,8.1
				C137,89.8,137.6,88.8,137,88.3L137,88.3z"/>
		</g>
	</g>
	<g>
		<g>
			<path class="st2" d="M70.7,42.1c0.2-1.8,0.7-3.4,1.7-4.9c0.4-0.6-0.6-1.2-1-0.6c-1.1,1.7-1.7,3.5-1.9,5.5
				C69.4,42.9,70.6,42.9,70.7,42.1L70.7,42.1z"/>
		</g>
	</g>
	<g>
		<g>
			<path class="st2" d="M102,26.2c0.8-0.7,1.9-1,2.9-0.9c0.8,0.1,0.8-1.1,0-1.2c-1.4-0.1-2.7,0.3-3.8,1.3
				C100.5,25.9,101.4,26.7,102,26.2L102,26.2z"/>
		</g>
	</g>
	<g>
		<g>
			<path class="st2" d="M120.8,31.1c1,0.9,2.3,1.7,3.1,2.8c0.8,1.1,1.2,2.7,1.8,4c0.3,0.7,1.4,0.4,1.1-0.3c-0.6-1.4-1-2.9-1.8-4.1
				c-0.8-1.2-2.2-2.2-3.4-3.1C121.1,29.7,120.2,30.6,120.8,31.1L120.8,31.1z"/>
		</g>
	</g>
	<g>
		<g>
			<path class="st2" d="M84.6,110.8c1.5-1.3,2.5-3.1,2.9-5c0.1-0.7-1-1.1-1.1-0.3c-0.3,1.8-1.2,3.3-2.6,4.5
				C83.2,110.5,84,111.3,84.6,110.8L84.6,110.8z"/>
		</g>
	</g>
</g>
</svg>
