<svg id="Layer_1" data-name="Layer 1" xmlns="http://www.w3.org/2000/svg" viewBox="0 0 60.54 43.81"><defs><style>.cls-1{fill:#603218;}.cls-2{fill:#61381a;}</style></defs><title>Brown</title><path class="cls-1" d="M71.7,56.8V55.5H69.3a12,12,0,0,0,1,3.7,1.17,1.17,0,1,0,2-1.2,10.27,10.27,0,0,1-.7-2.5,1.29,1.29,0,0,0-1.2-1.2,1.16,1.16,0,0,0-1.2,1.2v1.3a1.25,1.25,0,0,0,2.5,0Z" transform="translate(-68.7 -20.62)"/><path class="cls-1" d="M71.3,62.5a1.2,1.2,0,0,0,0-2.4,1.2,1.2,0,0,0,0,2.4Z" transform="translate(-68.7 -20.62)"/><path class="cls-1" d="M72.2,59.5a2.35,2.35,0,0,1-.2-.8,1.2,1.2,0,0,0-1.5-.8,1.13,1.13,0,0,0-.8,1.5c.1.3.1.6.2.8a1.2,1.2,0,0,0,1.5.8,1.29,1.29,0,0,0,.8-1.5Z" transform="translate(-68.7 -20.62)"/><path class="cls-1" d="M71.9,58.3V57a1.2,1.2,0,0,0-2.4,0v1.3a1.2,1.2,0,1,0,2.4,0Z" transform="translate(-68.7 -20.62)"/><path class="cls-1" d="M71.9,55.7c.1.1-.2.7,0,.4a1.16,1.16,0,0,0-.4-1.6,1.14,1.14,0,0,0-1.6.4,1.82,1.82,0,0,0,0,2,1.18,1.18,0,0,0,1.6.4,1.2,1.2,0,0,0,.4-1.6Z" transform="translate(-68.7 -20.62)"/><path class="cls-1" d="M71.8,55c.1-.3.1-.6.2-.8a1.35,1.35,0,0,0-.8-1.5,1.24,1.24,0,0,0-1.5.8c-.1.3-.1.6-.2.8a1.35,1.35,0,0,0,.8,1.5,1.2,1.2,0,0,0,1.5-.8Z" transform="translate(-68.7 -20.62)"/><path class="cls-1" d="M71.6,54.4a1.27,1.27,0,0,1,.1-.6,1.14,1.14,0,0,0-.4-1.6c-.5-.3-1.4-.2-1.6.4a3.39,3.39,0,0,0-.3,2.4,1.2,1.2,0,0,0,1.5.8,1.08,1.08,0,0,0,.7-1.4Z" transform="translate(-68.7 -20.62)"/><path class="cls-1" d="M72,53.1c.1-.3.1-.6.2-.8a1.35,1.35,0,0,0-.8-1.5,1.24,1.24,0,0,0-1.5.8c-.1.3-.1.6-.2.8a1.35,1.35,0,0,0,.8,1.5,1.16,1.16,0,0,0,1.5-.8Z" transform="translate(-68.7 -20.62)"/><path class="cls-1" d="M85.5,34.6a6.13,6.13,0,0,1,3.1-1.1c-.2-.8-.4-1.5-.6-2.3-2.4.8-4.9,1.5-7.2,2.4-2.5,1-5,3.3-7.8,3.1.2.7.4,1.5.6,2.2a13.44,13.44,0,0,0,4-2.7l-1.7-1.7-.8.8c-.9.9.3,2.7,1.5,1.9,1.8-1.2,3.6-2.5,5.4-3.7-.5-.6-1-1.3-1.5-1.9a11.49,11.49,0,0,1-3,2.8c.5.6,1,1.3,1.5,1.9a36.12,36.12,0,0,1,6.6-4.4l-1.2-2.1a9.5,9.5,0,0,1-3.8,2.1c.4.7.8,1.3,1.2,2a28.26,28.26,0,0,1,16.4-6.3c-.2-.7-.4-1.5-.6-2.2A74,74,0,0,1,84.7,31c.2.8.4,1.5.6,2.3a45.51,45.51,0,0,1,11.5-3.1c1.5-.2,1.5-2.6,0-2.4A50.24,50.24,0,0,0,84.7,31c-1.4.6-.9,2.8.6,2.3a72.35,72.35,0,0,0,13.4-5.8,1.18,1.18,0,0,0-.6-2.2,30.83,30.83,0,0,0-18.1,7,1.21,1.21,0,0,0,1.2,2A15.44,15.44,0,0,0,85.6,32a1.21,1.21,0,0,0-1.2-2.1,38.48,38.48,0,0,0-7.1,4.8c-1,.9.3,2.7,1.5,1.9a25.86,25.86,0,0,0,3.5-3.1c.8-1-.3-2.7-1.5-1.9-1.8,1.2-3.6,2.5-5.4,3.7.5.6,1,1.3,1.5,1.9l.8-.8A1.2,1.2,0,0,0,76,34.7,7.42,7.42,0,0,1,72.5,37c-1.2.5-.5,2.2.6,2.2a9.4,9.4,0,0,0,5.4-1.5,65,65,0,0,1,10.3-4.1,1.19,1.19,0,0,0-.6-2.3,9.63,9.63,0,0,0-3.7,1.3,1.12,1.12,0,1,0,1,2Z" transform="translate(-68.7 -20.62)"/><path class="cls-1" d="M79.3,34.1q-.3.9.3.6c-.3-.7-.6-1.5-.9-2.2-.5.3-.9.5-1.4.8-1.3.7-.3,2.4.9,2.2a2.38,2.38,0,0,0,1.1-.6c.1-.1.2-.3.4-.4.2-.3.4-.3,0-.4-.2-.6-.5-1.2-.7-1.8.1,0,.1-.1.2-.1.5.6.9,1.2,1.4,1.8a1.5,1.5,0,0,1,1-.9c-.5-.6-.9-1.2-1.4-1.8v-.1c.5.6.9,1.2,1.4,1.8-.1.3-.2.1.2,0s.6-.1.9-.2a8.86,8.86,0,0,0,1.7-.8c-.6-.5-1.2-.9-1.8-1.4a2.39,2.39,0,0,1-.3.9c-.8,1.3,1.2,2.5,2.1,1.2a4,4,0,0,0,.6-1.5,1.28,1.28,0,0,0-1.8-1.4,9.68,9.68,0,0,1-2.4.8c-.6.2-1.1.4-1.3,1a1.28,1.28,0,0,0,1.4,1.8,2.81,2.81,0,0,0,1.4-1c.6-.9-.4-2-1.4-1.8a3.7,3.7,0,0,0-2.4,2,1.26,1.26,0,0,0,1.4,1.8,2.21,2.21,0,0,0,1.3-1,1.28,1.28,0,0,0-.7-1.8,1.83,1.83,0,0,0-1.6.3c-.3.2-.7,1-1.1,1.1.3.7.6,1.5.9,2.2.5-.3.9-.5,1.4-.8a1.21,1.21,0,0,0-.9-2.2c-1.4.3-2.6,1.5-1.7,2.9.5,1.6,2.6.4,1.8-1Z" transform="translate(-68.7 -20.62)"/><path class="cls-1" d="M79.5,37c-.1.2-.3.3-.4.5a1.2,1.2,0,0,0,1.7,1.7l.8-.8c-.6-.5-1.3-1-1.9-1.5a19.79,19.79,0,0,0-2.6,6.6,1.2,1.2,0,0,0,2.2.9,22.82,22.82,0,0,1,7.3-7.2c.9-.6.6-2.3-.6-2.2a10.54,10.54,0,0,0-5.1,1.6,1.21,1.21,0,0,0,1.2,2.1c1.3-.7,2.7-1.4,4-2.2a1.2,1.2,0,0,0-.9-2.2,28.64,28.64,0,0,0-2.8.7c.4.7.8,1.3,1.2,2a9.09,9.09,0,0,1,4.9-2.4c-.3-.7-.6-1.5-.9-2.2-3.2,2.1-7,1.3-9.9,4-1.8,1.7-5.4,3.1-4.5,6.1a1.2,1.2,0,0,0,1.8.7,13.64,13.64,0,0,1,4-2l-1.5-1.5c-.2.4-.3.7-.5,1.1.7.4,1.3.8,2,1.2a1.38,1.38,0,0,1-.4.3c-.4-.7-.8-1.3-1.2-2-1,1.2-2,2.4-2.9,3.6s.6,2.8,1.7,1.7l.6-.6-1.7-1.7a6.55,6.55,0,0,0-1.5,1.8c.6.5,1.3,1,1.9,1.5.2-.2.4-.3.6-.5-.5-.6-.9-1.2-1.4-1.8a40.72,40.72,0,0,0-3.5,6.5l2.3.6a14.76,14.76,0,0,1,1-2.7l-2.2-.6c-.4.5-.7,1-1.1,1.5.6.5,1.2.9,1.8,1.4a31.4,31.4,0,0,1,3.6-8.9c.8-1.3-1.3-2.5-2.1-1.2a33.43,33.43,0,0,0-3.9,9.4,1.26,1.26,0,0,0,1.8,1.4,4.12,4.12,0,0,0,2.3-3.5,1.19,1.19,0,0,0-2.2-.6,32.35,32.35,0,0,0-1.3,3.3c-.5,1.5,1.7,2,2.3.6a33.68,33.68,0,0,1,3.2-5.9,1.24,1.24,0,0,0-1.4-1.8,3.18,3.18,0,0,0-2,1.6c-.8,1.1,1,2.5,1.9,1.5l1.5-1.8A1.2,1.2,0,0,0,75,43.4l-.6.6,1.7,1.7c1-1.2,2-2.4,2.9-3.6.7-.8.1-2.5-1.2-2a1.73,1.73,0,0,0-1.3,1.3,1.21,1.21,0,0,0,2,1.2,3.58,3.58,0,0,0,1.1-2.2,1.26,1.26,0,0,0-1.5-1.5,23.47,23.47,0,0,0-4.5,2.2c.6.2,1.2.5,1.8.7-.2-.8,6.3-5.3,6.4-5.3,2.4-.8,4.7-.7,6.9-2.1a1.2,1.2,0,0,0-.9-2.2,11.81,11.81,0,0,0-6,3c-.9.8.1,2.3,1.2,2a28.64,28.64,0,0,0,2.8-.7c-.3-.7-.6-1.5-.9-2.2-1.3.7-2.7,1.4-4,2.2l1.2,2.1A7.88,7.88,0,0,1,86,37.3c-.2-.7-.4-1.5-.6-2.2a27.53,27.53,0,0,0-8.2,8.1c.7.3,1.5.6,2.2.9A22.8,22.8,0,0,1,81.8,38a1.23,1.23,0,0,0-1.9-1.5l-.8.8L80.8,39c.1-.2.3-.3.4-.5,1.1-.9-.6-2.6-1.7-1.5Z" transform="translate(-68.7 -20.62)"/><path class="cls-1" d="M85.7,35.6a6.07,6.07,0,0,1-.7,1,1.16,1.16,0,0,0,.4,1.6,1.23,1.23,0,0,0,1.6-.4,6.07,6.07,0,0,1,.7-1,1.16,1.16,0,0,0-.4-1.6,1.06,1.06,0,0,0-1.6.4Z" transform="translate(-68.7 -20.62)"/><path class="cls-1" d="M85.5,40.3c.2-.4.3-.8.5-1.2a1.14,1.14,0,0,0-.4-1.6c-.5-.3-1.4-.2-1.6.4-.2.4-.3.8-.5,1.2a1.14,1.14,0,0,0,.4,1.6c.5.3,1.4.2,1.6-.4Z" transform="translate(-68.7 -20.62)"/><path class="cls-1" d="M85.8,40.2a27.35,27.35,0,0,1,4.1-4.9,1.2,1.2,0,0,0-1.7-1.7,27.55,27.55,0,0,0-4.4,5.3,1.19,1.19,0,1,0,2,1.3Z" transform="translate(-68.7 -20.62)"/><path class="cls-1" d="M87.7,37.3a34.64,34.64,0,0,1,8.4-6.4c-.6-.3-1.2-.7-1.8-1,0,1.1-5.5,3-6.4,3.4.3.7.6,1.5.9,2.2a16.63,16.63,0,0,1,5.3-1.8c-.4-.7-.8-1.3-1.2-2a19.55,19.55,0,0,1-5,3.5l1.6,1.6a1.82,1.82,0,0,1,1-1.1l-1.2-.9c0,.1.1.2.1.4l.3-1.2a6,6,0,0,1-2.6,1.4c.4.7.8,1.3,1.2,2,.3-.3,4.5-3.8,5.2-3.1-.1-.5-.1-1-.2-1.5A4.74,4.74,0,0,1,90.6,34c.3.2.7.4,1,.6-.4-.8,3.7-2.2,4.5-2.4-.3-.7-.6-1.5-.9-2.2a9,9,0,0,1-3.6.8c.2.7.4,1.5.6,2.2A7.44,7.44,0,0,1,97,31.7l-1.2-1.5c-.2.6-2.6,1.1-3.1.8.2.3.4.7.6,1,.1-.6,2.4-1.1,2.8-.9-.2-.3-.4-.7-.6-1,0,.6-2.3,1.4-2.6,1.5a4.24,4.24,0,0,1-2.5.1l.8.8c0,.1,2.3-.8,2.5-.8-.4-.7-.8-1.3-1.2-2a3.45,3.45,0,0,0-1.2,1.2v1.2c1.5-2.7,6.5-3.3,9.2-4.5,1.4-.6.2-2.7-1.2-2.1-3.2,1.4-8.2,2-10,5.4a1.28,1.28,0,0,0,0,1.2c1.2,1.9,3.7.5,4.9-.7a1.2,1.2,0,0,0-1.2-2c-1.7.4-4.5,1.6-4.2,3.7a1.27,1.27,0,0,0,.8.8c2.2.8,6.9-.5,8-2.9s-1.9-2.7-3.5-2.2-4.7,2.4-2.7,4.1c1.7,1.5,6.1-.2,6.6-2.2a1.2,1.2,0,0,0-1.2-1.5,10.72,10.72,0,0,0-6,1.7c-.9.6-.6,2.3.6,2.2a11,11,0,0,0,4.8-1.2c1.3-.7.3-2.4-.9-2.2-2.3.4-7.5,2.8-5.9,5.9a1.1,1.1,0,0,0,1,.6,6.78,6.78,0,0,0,4.8-2.4,1.39,1.39,0,0,0-.2-1.5c-2.1-2.4-7,1.6-8.5,3.1a1.21,1.21,0,0,0,1.2,2c1.6-.5,4.4-1.3,3.9-3.5a1.29,1.29,0,0,0-1.2-.9,4.06,4.06,0,0,0-3.1,2.3,1.17,1.17,0,0,0,1.6,1.6A26.17,26.17,0,0,0,94.4,33c1-.9-.1-2.2-1.2-2a18.13,18.13,0,0,0-5.9,2.1c-1.2.6-.3,2.7.9,2.2,2.4-1,8.2-2.4,8.2-5.7a1.18,1.18,0,0,0-1.8-1,34.52,34.52,0,0,0-8.9,6.8c-.8,1.4.9,3,2,1.9Z" transform="translate(-68.7 -20.62)"/><path class="cls-1" d="M105.3,27.5c-.8-.2-1.6-.5-2.3-.7-.2.7-.4,1.5-.6,2.2a7.85,7.85,0,0,1,5.3,1.7c.2-.7.4-1.5.6-2.2-1.7.2-4.2.2-5.5-1,.1.5.1,1,.2,1.5.5-1,4.7,1.1,5,1.3.3-.7.6-1.5.9-2.2a8,8,0,0,1-4.3-2.4c-.4.7-.8,1.3-1.2,2,1.8.7,3.6,1.4,5.3,2.2.3-.7.6-1.5.9-2.2a8.24,8.24,0,0,1-3.8-2c-.4.7-.8,1.3-1.2,2a58.93,58.93,0,0,1,5.8,2.4c.3-.7.6-1.5.9-2.2a6.14,6.14,0,0,1-3-2c-.5.6-1,1.3-1.5,1.9.9.4,1.8.8,2.8,1.2,1.2.5,2.5-.9,1.5-1.9-5.6-5.3-13.2-2.9-20-3.3l.3,2.4a19.19,19.19,0,0,1,8.2-1.4c3.7.1,6,2.3,8.3,4.9,1,1.2,2.7-.5,1.7-1.7-2.4-2.7-4.8-4.9-8.4-5.5a20.47,20.47,0,0,0-10.4,1.4,1.23,1.23,0,0,0,.3,2.4c6,.4,13.4-2.1,18.3,2.6.5-.6,1-1.3,1.5-1.9-.9-.4-1.8-.8-2.8-1.2-1.2-.5-2.5.8-1.5,1.9a11,11,0,0,0,4.1,2.6c1.3.5,2.1-1.6.9-2.2a50.46,50.46,0,0,0-6.4-2.6,1.21,1.21,0,0,0-1.2,2,11.89,11.89,0,0,0,4.8,2.6c1.3.4,2.2-1.6.9-2.2-1.9-.9-3.9-1.7-5.9-2.5a1.21,1.21,0,0,0-1.2,2,10.39,10.39,0,0,0,5.4,3,1.2,1.2,0,0,0,.9-2.2c-2.1-1.1-6.8-3.3-8.3-.5a1.37,1.37,0,0,0,.2,1.5c1.9,1.8,4.8,1.9,7.2,1.7a1.19,1.19,0,0,0,.6-2.2,9.17,9.17,0,0,0-6.5-2,1.19,1.19,0,0,0-.6,2.2,5,5,0,0,0,3.5,1c1.9,0,1.9-2.4.3-2.4Z" transform="translate(-68.7 -20.62)"/><path class="cls-1" d="M101.8,28.3a27.73,27.73,0,0,1-2.6-1c-.2.7-.4,1.5-.6,2.2a10.87,10.87,0,0,1,6.6,1.4c.2-.7.4-1.5.6-2.2l-3.3-1.8c-.2.6-.5,1.2-.7,1.8,1.6.7,3.2,1.4,4.8,2,.3-.6.7-1.2,1-1.8a8.21,8.21,0,0,1-4.6-.8,3.69,3.69,0,0,0-2.1-1.8l-1.2,1.5c.1,1.1-.3,1.7-1.3,1.8a25.82,25.82,0,0,1-2.6.8,1.24,1.24,0,0,0,.3,2.4c2,.1,4.1.3,6.1.4V30.8a30.82,30.82,0,0,0-6.1.3c-1.5.2-1.6,2.4,0,2.4h4V31.1c-2.6.1-4.8.4-6.9,1.9-1.2.9-.1,2.9,1.2,2.1,3.5-2.4,7.2-.9,10.7.7a1.21,1.21,0,0,0,1.2-2.1A27.87,27.87,0,0,0,97.6,30v2.3a14,14,0,0,1,5-.2c1.4.1,1.5-1.9.3-2.4a14,14,0,0,1-4.4-2.2c-.3.7-.6,1.5-.9,2.2a14.48,14.48,0,0,1,7.3,3.4c.4-.7.8-1.3,1.2-2a15.93,15.93,0,0,1-4.2-1.9c-.3.7-.6,1.5-.9,2.2a27.84,27.84,0,0,1,6.7,3.3c1.1.7,2.5-1,1.5-1.9-.6-.5-1.1-1-1.7-1.6-.8-.8-2.5,0-2,1.2a7,7,0,0,0,3.2,4c1.3.9,2.5-1.2,1.2-2.1l-1.1-.8c-.1.7-.2,1.5-.3,2.2l4.9-1.2a1.24,1.24,0,0,0-.3-2.4,4.36,4.36,0,0,0-3.9,2.1c-.7,1,.7,2.2,1.6,1.6a12.41,12.41,0,0,0,4.5-4.6,1.28,1.28,0,0,0-.7-1.8c-2.3-.7-5.1,0-7.3-1a1.21,1.21,0,0,0-1.2,2.1c1,.7,1.9,1.3,2.9,2,.3-.7.6-1.5.9-2.2-.5-.1-1-.3-1.5-.4a1.2,1.2,0,0,0-.9,2.2,4.35,4.35,0,0,0,.7.4,14.62,14.62,0,0,0,2,.5c3-1,4.5-.1,4.5,2.5.7-.3,1.5-.6,2.2-.9-.9-1.2-1.7-2.4-2.6-3.6s-3-.1-2.1,1.2,1.7,2.4,2.5,3.6l1.6-1.6a20,20,0,0,1-2.1-1c-1-.5-2.3.5-1.6,1.6a16.47,16.47,0,0,0,1.9,2.7c.8,1,2.3-.1,2-1.2a6,6,0,0,0-1-2.5L113.4,35a18.39,18.39,0,0,0,4.4,4.4l1.2-2.1c-.6-.4-1.3-.8-1.9-1.2a1.22,1.22,0,0,0-1.5,1.9,17.55,17.55,0,0,0,3,2.4c.3-.7.6-1.5.9-2.2-1.2-.5-2.5-1-3.7-1.5s-2,1.5-.9,2.2c1.4,1,2.9,1.9,4.3,2.8,1.2.7,2.3-.9,1.5-1.9l-.9-1.2c-.5.6-1,1.3-1.5,1.9,1.4,1,2.7,1.9,4.2,2.8,1.3.8,2.5-1.2,1.2-2.1-.3-.2-.7-.5-1-.7l-1.2,2.1c.4.3.9.6,1.3.9.2-.7.4-1.5.6-2.2-.4,0-.8-.1-1.2-.1-1.3-.1-1.4,1.6-.6,2.2l2.2,1.9,1.7-1.7a7.28,7.28,0,0,1-2-1.9l-1.7,1.7c.7.6,1.3,1.2,2,1.8a1.21,1.21,0,0,0,2-1.2,10.64,10.64,0,0,0-.9-2.5l-2.1,1.2a3.94,3.94,0,0,0,1.9,1.7,1.17,1.17,0,0,0,1.6-1.6,27.9,27.9,0,0,0-11.8-12,1.23,1.23,0,0,0-1.5,1.9,43.33,43.33,0,0,0,8.2,7.8l1.2-2.1a23.46,23.46,0,0,1-4.7-3.6c-.5.6-1,1.3-1.5,1.9a18.85,18.85,0,0,1,4.4,3.5c1,1,2.4-.3,1.9-1.5a24.19,24.19,0,0,0-6.6-8.6l-1.7,1.7a39.16,39.16,0,0,1,8.4,9.3c.6-.5,1.3-1,1.9-1.5l-7.7-9.8c-.5.6-1,1.3-1.5,1.9,4,2.8,5.3,8,8.6,11.4a1.2,1.2,0,0,0,1.7-1.7c-3.5-3.7-4.8-8.8-9.1-11.8-1.2-.9-2.2.9-1.5,1.9l7.7,9.8c.8,1.1,2.6-.3,1.9-1.5a45.47,45.47,0,0,0-8.8-9.8c-1.2-1-2.9.7-1.7,1.7a23.4,23.4,0,0,1,6.2,8.1c.6-.5,1.3-1,1.9-1.5a20.54,20.54,0,0,0-4.9-3.9,1.23,1.23,0,0,0-1.5,1.9,25.68,25.68,0,0,0,5.2,4c1.4.8,2.4-1.2,1.2-2.1a45,45,0,0,1-7.7-7.4c-.5.6-1,1.3-1.5,1.9a26,26,0,0,1,10.9,11.1l1.6-1.6c-.4-.3-.7-.6-1.1-.9a1.21,1.21,0,0,0-2.1,1.2,15.87,15.87,0,0,0,.7,2c.7-.4,1.3-.8,2-1.2-.7-.6-1.3-1.2-2-1.8a1.2,1.2,0,0,0-1.7,1.7,6.06,6.06,0,0,0,2,1.9c1.2.9,2.9-.6,1.7-1.7s-1.5-1.3-2.7-2.3c-.2.7-.4,1.5-.6,2.2.4,0,.8.1,1.2.1,1.3.1,1.5-1.6.6-2.2-.4-.3-.9-.6-1.3-.9-1.3-.9-2.5,1.2-1.2,2.1.3.2.7.5,1,.7l1.2-2.1c-1.5-.9-2.8-1.8-4.2-2.8-1.2-.9-2.2.9-1.5,1.9l.9,1.2c.5-.6,1-1.3,1.5-1.9-1.5-.9-2.9-1.8-4.3-2.8-.3.7-.6,1.5-.9,2.2,1.2.5,2.5,1,3.7,1.5s2-1.5.9-2.2c-.8-.7-1.7-1.3-2.5-2-.5.6-1,1.3-1.5,1.9.6.4,1.3.8,1.9,1.2,1.3.8,2.5-1.2,1.2-2.1a10.06,10.06,0,0,1-3.6-3.5,1.21,1.21,0,0,0-2.1,1.2c.2.6.5,1.3.7,1.9.7-.4,1.3-.8,2-1.2-.5-.7-1-1.5-1.6-2.2l-1.6,1.6a20,20,0,0,1,2.1,1c1,.4,2.4-.6,1.6-1.6-.8-1.2-1.7-2.4-2.5-3.6l-2.1,1.2c.9,1.2,1.7,2.4,2.6,3.6a1.2,1.2,0,0,0,2.2-.9c-.5-2.3-2-5.9-4.9-5.6-1.8.2-3.3,2.1-2,3.7,2.9,3.5,6-4.7.9-4.5s-1,7.4,1.6,4c1.2-1.5-.1-3.7-1.9-3.9-2.9-.2-3.5,3.1-2.9,5.1a1.21,1.21,0,0,0,2,.5c1.6-1.7.7-3.2-1.1-4.2-.3.7-.6,1.5-.9,2.2.5.1,1,.3,1.5.4a1.2,1.2,0,0,0,.9-2.2c-1-.7-1.9-1.3-2.9-2l-1.2,2.1c2.6,1.2,5.1.4,7.8,1.2-.2-.6-.5-1.2-.7-1.8a8.29,8.29,0,0,1-3.6,3.8l1.6,1.6c.6-.3,1.2-.6,1.9-.9l-.3-2.4L107,32.9a1.22,1.22,0,0,0-.3,2.2l1.1.8,1.2-2.1c-.7-.9-1.4-1.7-2.1-2.6-.7.4-1.3.8-2,1.2.6.5,1.1,1,1.7,1.6.5-.6,1-1.3,1.5-1.9a32.7,32.7,0,0,0-7.3-3.5c-1.3-.5-2.1,1.5-.9,2.2a29.62,29.62,0,0,0,4.8,2.2,1.21,1.21,0,0,0,1.2-2,17.41,17.41,0,0,0-8.3-4,1.2,1.2,0,0,0-.9,2.2,19.18,19.18,0,0,0,5,2.4l.3-2.4a17.45,17.45,0,0,0-5.6.3,1.2,1.2,0,0,0,0,2.3,24.81,24.81,0,0,1,8.2,3.5l1.2-2.1c-4.3-2-8.8-3.6-13.1-.7l1.2,2.1A9.68,9.68,0,0,1,99.6,33a1.2,1.2,0,0,0,0-2.4h-4V33c2.1-.2,4.1-.3,6.1-.3a1.2,1.2,0,0,0,0-2.4c-2-.1-4.1-.3-6.1-.4l.3,2.4c2.1-.7,7.6-1.3,7.5-4.5-.1-2.4-2.3-3-4.3-2.8a1.29,1.29,0,0,0-1.2,1.5c1,2.9,5.8,3.6,5.6-.3-.2-3.2-5.2-3.9-5.2-.5,0,3.1,6.1,5.9,7,2,.8-3.7-5.2-3.5-6.3-.6a1.1,1.1,0,0,0,.3,1.2c1.9,2.2,5,2.7,7.7,2.5a1.18,1.18,0,0,0,1-1.8,6.86,6.86,0,0,0-7.5-3.1,1.2,1.2,0,0,0-.7,1.8,6.82,6.82,0,0,0,5.4,3,1.19,1.19,0,0,0,.6-2.2A12.64,12.64,0,0,0,98,26.8a1.19,1.19,0,0,0-.6,2.2,8.62,8.62,0,0,0,3.8,1.3c2.2.6,2.2-1.8.6-2Z" transform="translate(-68.7 -20.62)"/><path class="cls-1" d="M124.9,39.5c-.5-.8-1-1.6-1.4-2.3-.7-1.1-2.7-.4-2.2.9a6.11,6.11,0,0,0,.7,1.4l2.1-1.2a42.91,42.91,0,0,0-3.6-4.8c-.9-1-2.6.3-1.9,1.5,1.4,2.1,2.9,4.3,4.3,6.4.9,1.3,2.9.1,2.1-1.2-1.4-2.1-2.9-4.3-4.3-6.4-.6.5-1.3,1-1.9,1.5a43.54,43.54,0,0,1,3.2,4.3c.9,1.3,2.9.1,2.1-1.2-.2-.3-.4-.5-.4-.8-.7.3-1.5.6-2.2.9.5.8,1,1.6,1.4,2.3a1.19,1.19,0,0,0,2-1.3Z" transform="translate(-68.7 -20.62)"/><path class="cls-1" d="M125.1,45.4a5.79,5.79,0,0,0-1.4-1.7c-1-.8-2.7.2-1.9,1.5l1.8,2.7c.6-.5,1.3-1,1.9-1.5a3.77,3.77,0,0,1-.9-1.5c-.7.3-1.5.6-2.2.9a9.45,9.45,0,0,0,2.1,3.1l1.7-1.7a13.93,13.93,0,0,0-1.9-1.5c-1.2-.8-2.3.9-1.5,1.9,1,1.2,3.9,3.9,3.3,5.5a1.31,1.31,0,0,0,.3,1.2l.8.8c1,1,2.5-.3,1.9-1.5a37.36,37.36,0,0,0-3.5-5.3c-.9-1.1-2.5.3-1.9,1.5.2.3.4.7.6,1a1.2,1.2,0,0,0,2.2-.9c-.3-1.5-.6-3.1-.8-4.7-.7.4-1.3.8-2,1.2a5.51,5.51,0,0,1,2,2.7c.5,1.4,2.7.9,2.3-.6-.3-1-.5-2-.8-2.9-.7.3-1.5.6-2.2.9a16.69,16.69,0,0,1,1.5,5.4c.2,1.5,2.5,1.6,2.4,0a34.55,34.55,0,0,0-2.2-9.5l-2.3.6a16.94,16.94,0,0,1,1.3,6,1.2,1.2,0,0,0,2.4,0,18.57,18.57,0,0,0-1.4-6.6c-.6-1.4-2.9-.8-2.3.6a30.73,30.73,0,0,1,2.2,8.8H129a21.73,21.73,0,0,0-1.9-6.6c-.6-1.3-2.5-.4-2.2.9.3,1,.5,2,.8,2.9l2.3-.6a7.41,7.41,0,0,0-2.6-3.7,1.2,1.2,0,0,0-2,1.2c.2,1.6.5,3.1.8,4.7.7-.3,1.5-.6,2.2-.9-.2-.3-.4-.7-.6-1-.6.5-1.3,1-1.9,1.5A24.57,24.57,0,0,1,127,55c.6-.5,1.3-1,1.9-1.5l-.8-.8.3,1.2c1-3-2.3-5.7-4-7.8-.5.6-1,1.3-1.5,1.9a7.55,7.55,0,0,1,1.4,1.1c1.1,1.1,2.7-.6,1.7-1.7a10.57,10.57,0,0,1-1.7-2.6c-.6-1.2-2.7-.3-2.2.9a8.21,8.21,0,0,0,1.6,2.5c.9,1,2.6-.3,1.9-1.5L123.8,44c-.6.5-1.3,1-1.9,1.5a4.26,4.26,0,0,1,1.1,1.2c.9,1.2,3,0,2.1-1.3Z" transform="translate(-68.7 -20.62)"/><path class="cls-1" d="M115,30V28.5h-2.4a2.2,2.2,0,0,1-.1.8h2.3a1.45,1.45,0,0,0-1.7-1c-.8.2-.9,1.1-1.1,1.4.2-.2.5-.4.7-.6-.1,0-.2,0-.2.1l1.5,1.5a9.49,9.49,0,0,1,.9-2.1l-2.1-1.2a4.62,4.62,0,0,0-.4,2.6c.2,1.4,2.3,1,2.4-.3a22.86,22.86,0,0,0-.7-6.4c-.7.4-1.3.8-2,1.2a13.4,13.4,0,0,1,2.6,6.4c.2,1.5,2.5.9,2.3-.6a15.41,15.41,0,0,0-3.2-7.4c-.8-1-2.3.1-2,1.2a18.46,18.46,0,0,1,.6,5.7l2.4-.3c0-.2.1-.5.1-.7a1.21,1.21,0,0,0-2.1-1.2,8.49,8.49,0,0,0-1.1,2.6,1.23,1.23,0,0,0,1.5,1.5c.9-.2,1-.9,1.3-1.6-.2.2-.4.5-.6.7.1,0,.1-.1.2-.1-.3,0-.6.1-.9.1h.2l-.8-.8a.1.1,0,0,0,.1.1c.4,1,2.1,1.3,2.3,0a3.33,3.33,0,0,0,.1-1.4,1.2,1.2,0,0,0-2.4,0v1.5c-.1,1.3,2.3,1.3,2.3-.2Z" transform="translate(-68.7 -20.62)"/><path class="cls-1" d="M115.3,31.3a15.54,15.54,0,0,1,2.3-.5V28.4H117v2.3a6.72,6.72,0,0,1,2.4-.4,1.23,1.23,0,0,0,.3-2.4,2.57,2.57,0,0,0-1.5-.1,1.24,1.24,0,0,0-.3,2.2c1.5.8,3.3.5,4.4,2l1.6-1.6c-.1-.1-.3-.1-.4-.2-1.4-.7-2.6,1.4-1.2,2.1.1.1.3.1.4.2,1,.5,2.4-.6,1.6-1.6a5.46,5.46,0,0,0-2.1-1.9c-1-.5-2.2-.4-3.2-1-.1.7-.2,1.5-.3,2.2a.35.35,0,0,1,.2.1l.3-2.4a10.55,10.55,0,0,0-3.1.4c-1.1.3-1.2,2.1,0,2.3a4.87,4.87,0,0,0,1.2.1c1.5-.2,1.5-2.6,0-2.4a15,15,0,0,0-2.9.6c-1.2.5-.6,2.8.9,2.4Z" transform="translate(-68.7 -20.62)"/><path d="M70.7,49.5c.2,1.3.5,2.6.7,4,.1.7,1.1,4,.6,4.4l1,.3a16.29,16.29,0,0,1,3.5-11.5c.5-.6-.3-1.4-.8-.8a17.19,17.19,0,0,0-3.8,12.7c.1.5.7.5,1,.3.8-.6.5-1.6.3-2.5-.4-2.4-.9-4.7-1.3-7.1a.61.61,0,1,0-1.2.2Z" transform="translate(-68.7 -20.62)"/><path d="M72.1,51.2c-1.6-2.4,1.1-6.8,2.5-8.8.4-.6-.6-1.2-1-.6-1.7,2.4-4.4,7.2-2.5,10,.3.6,1.4,0,1-.6Z" transform="translate(-68.7 -20.62)"/><path d="M73.7,38.3a7,7,0,0,0-2.1,5.3c0,.5.7.8,1,.4a14.21,14.21,0,0,1,4.9-3.5c.7-.3.1-1.3-.6-1a14.57,14.57,0,0,0-5.1,3.7c.3.1.7.3,1,.4a6,6,0,0,1,1.8-4.4c.5-.6-.4-1.4-.9-.9Z" transform="translate(-68.7 -20.62)"/><path d="M76.5,40.1a2.68,2.68,0,0,0-.7,2.4,33,33,0,0,0,1.3,5.2.62.62,0,0,0,1.2-.2,12.56,12.56,0,0,1,2.1-8c.4-.6-.6-1.3-1-.6a13.74,13.74,0,0,0-2.2,8.6c.4-.1.8-.1,1.2-.2-.3-1-.5-2.1-.8-3.1s-.9-2.5,0-3.4c.3-.4-.5-1.2-1.1-.7Z" transform="translate(-68.7 -20.62)"/><path d="M74,38.3a7.4,7.4,0,0,0-4,1.6l.8.8C76,32.2,85.7,28,95.1,26.5c.8-.1.4-1.3-.3-1.2-9.7,1.5-19.7,6-25,14.7-.3.5.3,1.2.8.8a5.68,5.68,0,0,1,3.7-1.4c.8-.1.5-1.2-.3-1.1Z" transform="translate(-68.7 -20.62)"/><path d="M94.5,25c-2.1,0-4.3.1-6.4.3.1.4.2.7.3,1.1,7.3-4.9,16.5-5,23.1,1.4.6.5,1.4-.3.8-.8-7-6.8-16.7-6.8-24.5-1.6-.5.3-.3,1.2.3,1.1,2.1-.2,4.2-.3,6.4-.3a.6.6,0,0,0,0-1.2Z" transform="translate(-68.7 -20.62)"/><path d="M78.6,48c-.3-1.3,1.6-3.7,2.3-4.7A18.14,18.14,0,0,1,85,39.1c.6-.5,0-1.5-.6-1A21.87,21.87,0,0,0,79.7,43c-.9,1.3-2.6,3.7-2.2,5.4.1.7,1.2.4,1.1-.4Z" transform="translate(-68.7 -20.62)"/><path d="M84.2,39.9h.2c.2-.1.5-.3.4-.6v-.2a.59.59,0,0,0-.9-.5c-.1.1-.2.1-.3.2a.55.55,0,0,0-.3.5,7.13,7.13,0,0,0,.2,2.9.64.64,0,0,0,1,.3c6.2-7.8,14.6-9.1,23.7-5.6.7.3,1-.9.3-1.2-5.1-2-9.5-2.9-14.9-1.2a22.05,22.05,0,0,0-5,2.1,9,9,0,0,0-1.9,1.5l-1.1,1.1c-.9,1.7-1.4,1.6-1.7-.5-.8.2-.4,1.4.3,1.2Z" transform="translate(-68.7 -20.62)"/><path d="M107.5,37a13.68,13.68,0,0,0,5.3-.8c.7-.3.4-1.4-.3-1.2a12.22,12.22,0,0,1-5,.8c-.8-.1-.8,1.1,0,1.2Z" transform="translate(-68.7 -20.62)"/><path d="M112.5,28.2a8.67,8.67,0,0,0-1.6-7.3l-.8.8c2.3,1.4,4.8,3.1,5.1,6,.1.8,1.3.8,1.2,0-.3-3.4-3-5.3-5.7-7-.5-.3-1.2.3-.8.8a7.78,7.78,0,0,1,1.5,6.4.57.57,0,0,0,1.1.3Z" transform="translate(-68.7 -20.62)"/><path d="M115.8,28.5a6.93,6.93,0,0,1,8.7,4.2l.7-.7c-3.3-.7-6.3-2.8-9.8-1.9-.7.2-.4,1.4.3,1.2,3.2-.8,6.1,1.2,9.2,1.9.4.1.9-.3.7-.7a8.17,8.17,0,0,0-10.2-5c-.6,0-.3,1.2.4,1Z" transform="translate(-68.7 -20.62)"/><path d="M112.2,35.5c1.6,5.1,7,7.6,11.2,10.4.6.4,1.2-.6.6-1-3.8-2.6-9.2-5-10.7-9.7-.1-.8-1.3-.5-1.1.3Z" transform="translate(-68.7 -20.62)"/><path d="M120.7,44.7c1.2,4.5,4.7,8.5,7.3,12.4.4.6,1.5,0,1-.6-2.4-3.7-6-7.8-7.2-12.1a.57.57,0,1,0-1.1.3Z" transform="translate(-68.7 -20.62)"/><path d="M129,58.4c1-11.6-2.2-21.9-12.3-28.6-.6-.4-1.2.6-.6,1,9.8,6.4,12.7,16.4,11.7,27.6-.1.7,1.1.7,1.2,0Z" transform="translate(-68.7 -20.62)"/><path d="M69.5,51.3c-1.8,4.4-.3,8.8,1.9,12.8a.58.58,0,0,0,1.1-.3l.6-8.1c.1-.8-1.1-.8-1.2,0l-.6,8.1,1.1-.3c-2.1-3.7-3.5-7.7-1.8-11.9.3-.7-.8-1-1.1-.3Z" transform="translate(-68.7 -20.62)"/><path class="cls-2" d="M75.8,37.1c6-3.7,11.5-7.2,18.6-8.4.8-.1.4-1.3-.3-1.2C87,28.8,81.3,32.3,75.2,36a.63.63,0,0,0,.6,1.1Z" transform="translate(-68.7 -20.62)"/><path class="cls-2" d="M96.2,25.2c4.3-1.4,8.8-1,12,2.4.5.6,1.4-.3.8-.8-3.5-3.7-8.5-4.2-13.2-2.7a.59.59,0,1,0,.4,1.1Z" transform="translate(-68.7 -20.62)"/><path class="cls-2" d="M114.1,35.2a15.94,15.94,0,0,0,8.4,5.5c.7.2,1.1-1,.3-1.2a14.54,14.54,0,0,1-7.9-5.2c-.4-.5-1.3.3-.8.9Z" transform="translate(-68.7 -20.62)"/><path class="cls-2" d="M113.9,28.6c.3.2.4.3.4.1v-.3c0-.2.1-.5.1-.7.1-.5.2-.9.3-1.4a.62.62,0,0,0-1.2-.3l-.3,1.5a5,5,0,0,0-.2,1.2,1,1,0,0,0,1.2,1c.8-.1.5-1.3-.3-1.1Z" transform="translate(-68.7 -20.62)"/><path class="cls-2" d="M87,36.5c1.5-2.6,5.9-4.2,8.6-4.9a13.8,13.8,0,0,1,9.9,1.6c.7.4,1.3-.7.6-1a15,15,0,0,0-10.8-1.7c-3.2.8-7.6,2.5-9.3,5.4-.4.6.7,1.2,1,.6Z" transform="translate(-68.7 -20.62)"/><path class="cls-2" d="M123.7,48.6a7.06,7.06,0,0,1,2.9,2.5.58.58,0,1,0,1-.6,8,8,0,0,0-3.3-3c-.7-.2-1.3.8-.6,1.1Z" transform="translate(-68.7 -20.62)"/></svg>