<?xml version="1.0" encoding="utf-8"?>
<!-- Generator: Adobe Illustrator 21.0.2, SVG Export Plug-In . SVG Version: 6.00 Build 0)  -->
<svg version="1.1" id="Layer_1" xmlns="http://www.w3.org/2000/svg" xmlns:xlink="http://www.w3.org/1999/xlink" x="0px" y="0px"
	 viewBox="0 0 200 600" style="enable-background:new 0 0 200 600;" xml:space="preserve">
<style type="text/css">
	.st0{fill:#603015;}
	.st1{fill:#EF7A22;}
	.st2{fill:#100D0C;}
	.st3{fill:#ED8622;}
</style>
<g>
	<g>
		<g id="XMLID_6_">
			<g>
				<path class="st0" d="M82.8,120.8c0.7,0.5,1.6,0.9,2.5,1.1c-0.3,0.1-0.7,0-1.1-0.1c-0.5-0.2-0.9-0.5-1.3-0.8
					C82.9,120.9,82.8,120.8,82.8,120.8z"/>
				<path class="st1" d="M76.2,121.8c-1.2-0.8-2.8-1-4.1-0.3c-0.6,0.3-1.3,0.8-1.8,0.4l0,0c-0.8-0.7-2-1-3.1-0.8
					c-0.4,0.1-0.8,0.3-1.3,0.3c-0.4,0-0.9-0.2-1-0.7l0-0.2c0-8.9-0.1-17.8-0.1-26.7c0-4.5,0-9,0.2-13.5h0.1
					c-0.2-5.8-0.4-11.7-0.6-17.5c-0.1-3.5-0.2-7,0.1-10.4c0.2-2.5,0.7-5,1.6-7.4c0.7-1.8,1.7-3.4,2.8-4.9c3.4-4.9,7.9-9.2,13.4-11.6
					c5.4-2.4,11.8-2.8,17.2-0.4c5.4-2.4,11.8-2,17.2,0.4c5.5,2.4,10,6.7,13.4,11.6c1.1,1.6,2.1,3.2,2.8,4.9c0.9,2.3,1.4,4.8,1.6,7.4
					c0.3,3.5,0.2,6.9,0.1,10.4c-0.2,6.4-0.4,12.9-0.6,19.3h-0.1c-0.2,4.5-0.2,9-0.2,13.5c0,8.8,0.1,17.7,0.1,26.5h-0.1
					c0,0.3-0.5,0.4-0.9,0.4c-0.8-0.1-1.5-0.2-2.2-0.6c-0.2-0.1-0.4-0.2-0.6-0.3c-0.4-0.1-0.9,0.2-1.3,0.4s-1,0.3-1.3-0.1l-1.8,0
					c-0.3,0.1-0.6,0.2-0.9,0.3c-0.7,0.2-1.4,0.2-2.1,0l-0.8,0.1c-1.4,0-2.8-0.1-4.2-0.2l-1.2,0c-0.3-0.1-0.8-0.1-1.2-0.1
					c-0.9,0-1.8-0.3-2.5-1l-0.6-0.1c-0.6-0.3-1-0.8-1.2-1.5l0.3-0.2c-0.2-0.3-0.1-0.8-0.1-1.2c0.5-4.8,0.4-9.7-0.3-14.4l0.1,0
					c-0.3-1.8-0.2-3.7-0.1-5.6c0.1-1.4,0.1-2.7,0.2-4.1l0.2,0c0.1-0.4,0.3-0.9,0.7-1.2c0.5-0.4,1.2-0.7,1.8-0.9c4.8-1.8,9-5,12-9.1
					l0.2,0c0.2-1.2,0.3-2.5,0.5-3.7c0.4-2.6,0.9-5.1,1.2-7.7c0.7-5.9,0.4-11.9-0.2-17.9c-0.2-1.9-0.4-3.8-1.1-5.5
					c-0.7-1.8-2-3.4-3.5-4.7c-3.1-2.7-7.2-4.1-11.2-4.1c-4.1,0.1-8.1,1.7-11.1,4.5h-0.3c-3-2.8-7-4.4-11.1-4.5
					c-4.1-0.1-8.2,1.4-11.2,4.1c-1.5,1.3-2.8,2.9-3.5,4.7c-0.7,1.7-0.9,3.6-1.1,5.5c-0.6,5.9-0.9,11.9-0.2,17.9
					c0.3,2.6,0.8,5.1,1.2,7.7c0.1,0.8,0.3,1.7,0.4,2.5c3.6,4.6,8.5,8.1,13.9,10.3c0.4,0.2,0.9,0.3,1.2,0.7c0.1,0.1,0.1,0.1,0.2,0.2
					l-0.1,0.1c0.5,3.5,0.5,7-0.2,10.4c-0.1,0.6-0.3,1.3-0.6,1.8c-0.3,0.5-0.9,0.9-1.6,0.9l-0.3,0.4c-0.3,3.4,0.4,6.9,0.1,10.3
					c-0.1,0.7-0.1,1.4-0.2,2c-0.1,0.7-0.2,1.4-0.3,2.1c0,0.1,0,0.3-0.2,0.4c-0.1,0.1-0.3,0-0.4,0.1c-0.2,0-0.4,0.2-0.5,0.4
					c-0.2,0.2-0.4,0.2-0.6,0.3c-0.9-0.2-1.8-0.6-2.5-1.1c0.1,0.1,0.1,0.1,0.2,0.2l0,0c-0.9-0.4-1.9-0.4-2.7,0l0,0.1
					c-1.3,0.7-2.8,1.3-4.2,1L76.2,121.8z"/>
			</g>
			<g>
			</g>
		</g>
		<g>
			<g>
				<path class="st2" d="M66,120.4c-1.7-1.9-0.5-9.4-0.5-11.9c0-4.2,0-8.4,0-12.6c0-8.4,0.1-16.8,0.3-25.3c0-0.8-1.2-0.8-1.2,0
					c-0.1,9.7-0.2,19.4-0.3,29.2c0,4.5,0,9.1,0,13.6c0,2.5-0.9,5.8,0.9,7.9C65.7,121.9,66.5,121,66,120.4L66,120.4z"/>
			</g>
		</g>
		<g>
			<g>
				<path class="st2" d="M65.8,71.6c-0.6-7.5-1.7-16,0-23.5c1.6-7.2,8.5-14.4,15-17.7c0.7-0.3,0.1-1.4-0.6-1
					c-5.8,2.9-12,9-14.6,15.1c-3.3,8.1-1.7,18.6-1,27.1C64.6,72.4,65.8,72.4,65.8,71.6L65.8,71.6z"/>
			</g>
		</g>
		<g>
			<g>
				<path class="st2" d="M79.7,31c3-1.8,6.1-3,9.6-3.4c2.7-0.3,7.8-0.7,9.9,1.3c0.6,0.5,1.4-0.3,0.8-0.8c-2.2-2.1-6.8-2-9.5-1.8
					c-4.1,0.3-7.9,1.6-11.4,3.8C78.5,30.3,79.1,31.4,79.7,31L79.7,31z"/>
			</g>
		</g>
		<g>
			<g>
				<path class="st2" d="M99.8,28.8c8.2-3.3,18.4-1.7,24.3,5.1c0.5,0.6,1.3-0.3,0.8-0.8c-6.1-7.2-16.8-8.9-25.4-5.4
					C98.7,28,99,29.1,99.8,28.8L99.8,28.8z"/>
			</g>
		</g>
		<g>
			<g>
				<path class="st2" d="M66,122c1.5-0.4,3.2-0.9,4.4,0.4c0.5,0.6,1.3-0.3,0.8-0.8c-1.5-1.6-3.7-1.3-5.5-0.8
					C65,121.1,65.3,122.2,66,122L66,122z"/>
			</g>
		</g>
		<g>
			<g>
				<path class="st2" d="M71.2,122.7c0.6-0.6,1.6-1,2.4-1c0.8-0.1,1.4,0.5,1.9,1.1c0.5,0.6,1.4-0.3,0.8-0.8
					c-0.8-0.8-1.6-1.5-2.8-1.5c-1.1,0.1-2.4,0.6-3.2,1.4C69.9,122.4,70.7,123.2,71.2,122.7L71.2,122.7z"/>
			</g>
		</g>
		<g>
			<g>
				<path class="st2" d="M76.6,123c1.5-0.7,3-1.4,4.6-1.7c1.7-0.4,2.4,0.6,3.8,1.1c0.7,0.2,1-0.9,0.3-1.1c-1.5-0.5-2.1-1.5-3.9-1.2
					c-1.9,0.3-3.7,1.1-5.4,2C75.3,122.3,75.9,123.3,76.6,123L76.6,123z"/>
			</g>
		</g>
		<g>
			<g>
				<path class="st2" d="M85.2,122.6c3-0.9,2.5-3.5,2.4-6.1c0-2.4,0-5.1,0.4-7.5c0.4-2,1.5-3.6,1.7-5.7c0.1-0.8-1.1-0.8-1.2,0
					c0.1-0.7-1.6,3.6-1.6,4.1c-0.2,1.2-0.2,2.5-0.2,3.7c-0.1,2.1,0.8,9.5-1.8,10.3C84.2,121.7,84.5,122.8,85.2,122.6L85.2,122.6z"/>
			</g>
		</g>
		<g>
			<g>
				<path class="st2" d="M89.3,104.3c0.4-1.7,0.9-3.3,1.1-5.1c0.3-2.3,0.4-4.5,0.2-6.8c-0.1-0.8-1.3-0.8-1.2,0c0.2,2,0.1,4-0.1,6
					c-0.2,2-0.7,3.7-1.1,5.6C87.9,104.7,89.1,105.1,89.3,104.3L89.3,104.3z"/>
			</g>
		</g>
		<g>
			<g>
				<path class="st2" d="M90.2,91.6c-5.3-2-12.1-5.1-15.1-10.2c-0.4-0.7-1.4-0.1-1,0.6c3.2,5.4,10.2,8.5,15.8,10.7
					C90.6,93.1,90.9,91.9,90.2,91.6L90.2,91.6z"/>
			</g>
		</g>
		<g>
			<g>
				<path class="st2" d="M125.4,82.6c-2.3,2.8-5.1,5.1-8.3,6.9c-2.3,1.3-5.1,1.8-6.5,4.2c-0.4,0.7,0.6,1.3,1,0.6
					c1.5-2.6,5.9-3.5,8.4-5.2c2.3-1.6,4.4-3.5,6.2-5.6C126.7,82.8,125.8,82,125.4,82.6L125.4,82.6z"/>
			</g>
		</g>
		<g>
			<g>
				<path class="st2" d="M112.9,120.7c-1.8-1.6-1-5-0.9-7c0.1-2.5,0.1-5,0.1-7.4c0-4.1-0.3-8.2-0.3-12.3c0-0.8-1.2-0.8-1.2,0
					c0,5.4,0.3,10.7,0.3,16.1c0,3.4-1.7,8.9,1.2,11.5C112.6,122,113.4,121.2,112.9,120.7L112.9,120.7z"/>
			</g>
		</g>
		<g>
			<g>
				<path class="st2" d="M112.2,121.8c0.4,0.5,1,0.7,1.6,0.7c1.1,0,2-0.4,3,0.1c0.7,0.3,1.3-0.7,0.6-1c-0.6-0.3-1.3-0.5-2-0.4
					c-0.8,0-1.8,0.6-2.4-0.1C112.5,120.4,111.7,121.2,112.2,121.8L112.2,121.8z"/>
			</g>
		</g>
		<g>
			<g>
				<path class="st2" d="M117.2,122.9c1,0.2,1.5,0.4,2.5,0c1.2-0.4,2.4-0.5,3.7-0.4c0.8,0.1,0.8-1.1,0-1.2c-1-0.1-1.9-0.1-2.8,0.1
					c-0.5,0.1-0.9,0.3-1.4,0.4c-0.6,0.1-1,0.1-1.6-0.1C116.8,121.6,116.5,122.7,117.2,122.9L117.2,122.9z"/>
			</g>
		</g>
		<g>
			<g>
				<path class="st2" d="M123.4,122.5c0.7,0.4,1.3,0.3,2,0.1c0.3-0.1,0.7-0.5,1.1-0.4c0.3,0,0.6,0.4,0.9,0.6c0.6,0.4,1.2-0.6,0.6-1
					c-0.5-0.4-0.8-0.9-1.5-0.9c-0.9,0-1.6,1.1-2.5,0.6C123.3,121.1,122.7,122.2,123.4,122.5L123.4,122.5z"/>
			</g>
		</g>
		<g>
			<g>
				<path class="st2" d="M127.4,123.2c0.5,0.2,1,0.1,1.4-0.3c0.4-0.3,0.4-0.7,1.1-0.7c0.5,0,1,0.3,1.4,0.5c1,0.5,2.1,0.7,2.9-0.4
					c0.4-0.6-0.6-1.2-1-0.6c-0.4,0.6-2.4-0.7-3.1-0.7c-0.4,0-0.7,0-1.1,0.2c-0.3,0.2-0.9,1-1.3,0.9
					C127,121.8,126.7,122.9,127.4,123.2L127.4,123.2z"/>
			</g>
		</g>
		<g>
			<g>
				<path class="st2" d="M134.1,122.5c0.2-3.3,0.5-6.3,0.2-9.6c-0.3-3.3,0.4-6.5,0.1-9.8c-0.1-0.8-1.3-0.8-1.2,0
					c0.3,3.3-0.4,6.5-0.1,9.8c0.3,3.2,0.1,6.3-0.2,9.6C132.8,123.2,134,123.2,134.1,122.5L134.1,122.5z"/>
			</g>
		</g>
		<g>
			<g>
				<path class="st2" d="M134.4,103.7c-1.1-7.2-0.2-15.1,0-22.4c0-0.8-1.2-0.8-1.2,0c-0.1,7.4-1.1,15.3,0,22.7
					C133.4,104.8,134.6,104.4,134.4,103.7L134.4,103.7z"/>
			</g>
		</g>
		<g>
			<g>
				<path class="st2" d="M134.4,82.5c0.3-9.2,0.6-18.3,0.8-27.5c0-0.8-1.2-0.8-1.2,0c-0.3,9.2-0.6,18.3-0.8,27.5
					C133.2,83.2,134.4,83.2,134.4,82.5L134.4,82.5z"/>
			</g>
		</g>
		<g>
			<g>
				<path class="st2" d="M123.7,33.8c7,4.7,11,13.7,10.5,22c0,0.8,1.1,0.8,1.2,0c0.5-8.7-3.7-18.1-11.1-23
					C123.7,32.4,123.1,33.4,123.7,33.8L123.7,33.8z"/>
			</g>
		</g>
		<g>
			<g>
				<path class="st2" d="M75.2,82.1c-1.6-9.7-2.4-18.7-0.9-28.5c0.8-4.9,2.5-9,7.1-11.4c5.3-2.9,14.7-3,18.4,2.6
					c0.4,0.6,1.5,0,1-0.6c-5.3-7.9-19.2-6-24.6,0.8c-3.7,4.7-3.7,12.1-3.9,17.8c-0.2,6.9,0.6,12.8,1.7,19.6
					C74.2,83.1,75.3,82.8,75.2,82.1L75.2,82.1z"/>
			</g>
		</g>
		<g>
			<g>
				<path class="st2" d="M100.7,44.8c2.5-4.4,10.6-5.1,15.1-4.1c5.1,1.1,9.2,4.4,10.8,9.5c0.2,0.7,1.4,0.4,1.1-0.3
					c-1.9-6-6.9-9.7-13.1-10.6c-4.8-0.6-12.3,0.3-15,4.9C99.3,44.9,100.3,45.5,100.7,44.8L100.7,44.8z"/>
			</g>
		</g>
		<g>
			<g>
				<path class="st2" d="M126.1,83.4c2.6-10.9,3.1-22.9,1.4-33.9c-0.1-0.8-1.3-0.4-1.1,0.3c1.7,10.9,1.2,22.6-1.4,33.3
					C124.8,83.8,126,84.1,126.1,83.4L126.1,83.4z"/>
			</g>
		</g>
		<g>
			<g>
				<path class="st2" d="M73.8,81.1c0.3,5.5,0.7,11.1,1.3,16.6c0.1,0.8,1.3,0.8,1.2,0c-0.6-5.5-1.1-11-1.3-16.6
					C75,80.3,73.8,80.3,73.8,81.1L73.8,81.1z"/>
			</g>
		</g>
		<g>
			<g>
				<path class="st2" d="M125.6,81.1c-1.1,6.2-1.2,12.5-1.5,18.7c0,0.8,1.2,0.8,1.2,0c0.3-6.1,0.3-12.4,1.4-18.4
					C126.9,80.6,125.8,80.3,125.6,81.1L125.6,81.1z"/>
			</g>
		</g>
		<g>
			<g>
				<path class="st2" d="M129,117.2c-0.3-3.9-0.5-7.8-0.2-11.7c0.3-4,1.1-8,0.9-12c0-0.8-1.2-0.8-1.2,0c0.2,4.1-0.7,8-0.9,12
					c-0.2,3.9-0.1,7.8,0.2,11.7C127.9,117.9,129,117.9,129,117.2L129,117.2z"/>
			</g>
		</g>
		<g>
			<g>
				<path class="st2" d="M75.9,97.5c-1.4-3-2.6-6.2-3.5-9.4c-0.2-0.7-1.3-0.4-1.1,0.3c0.9,3.3,2.1,6.6,3.6,9.7
					C75.2,98.8,76.3,98.2,75.9,97.5L75.9,97.5z"/>
			</g>
		</g>
		<g>
			<g>
				<path class="st2" d="M125.2,100.5c1.7-2.5,3-5.1,4.2-7.8c0.3-0.7-0.9-1-1.1-0.3c-1.1,2.7-2.5,5.2-4.1,7.5
					C123.7,100.5,124.7,101.1,125.2,100.5L125.2,100.5z"/>
			</g>
		</g>
		<g>
			<g>
				<path class="st2" d="M71.3,89.2c0.5,4.1,0.8,8.3,0.8,12.5c0,0.8,1.2,0.8,1.2,0c0-4.2-0.3-8.3-0.8-12.5
					C72.4,88.4,71.2,88.4,71.3,89.2L71.3,89.2z"/>
			</g>
		</g>
		<g>
			<g>
				<path class="st2" d="M73.8,110.8c-0.1-1.8-0.2-3.7-0.4-5.5c0-0.8-1.2-0.8-1.2,0c0.1,1.8,0.2,3.7,0.4,5.5
					C72.7,111.6,73.9,111.6,73.8,110.8L73.8,110.8z"/>
			</g>
		</g>
		<g>
			<g>
				<path class="st2" d="M73.4,105.6c0-1.2,0-2.4,0-3.7c0-0.8-1.2-0.8-1.2,0c0,1.2,0,2.4,0,3.7C72.2,106.4,73.4,106.4,73.4,105.6
					L73.4,105.6z"/>
			</g>
		</g>
	</g>
	<g>
		<g>
			<path class="st3" d="M73.9,87.7c-0.7-3.2-1.3-6.4-1.7-9.7c-0.1-0.7-1.3-0.8-1.2,0c0.4,3.4,1,6.7,1.8,10
				C72.9,88.8,74.1,88.5,73.9,87.7L73.9,87.7z"/>
		</g>
	</g>
	<g>
		<g>
			<path class="st3" d="M67.7,64.4c-0.8-2-0.5-4.4-0.5-6.6c0-2.1,0-4.2,0.1-6.2c0-0.8-1.2-0.8-1.2,0c0,2.4-0.1,4.8-0.1,7.2
				c0,2-0.2,4,0.5,6C66.8,65.4,68,65.1,67.7,64.4L67.7,64.4z"/>
		</g>
	</g>
	<g>
		<g>
			<path class="st3" d="M73.8,46.2c2.5-4.1,6.1-7.1,10.5-8.9c0.7-0.3,0.4-1.4-0.3-1.1c-4.7,1.9-8.6,5.1-11.2,9.4
				C72.3,46.2,73.4,46.8,73.8,46.2L73.8,46.2z"/>
		</g>
	</g>
	<g>
		<g>
			<path class="st3" d="M99.2,33.8c0.1-0.1,0.2-0.2,0.4-0.2c-0.1-0.4-0.1-0.8-0.2-1.2c-0.2,0-0.4,0.1-0.6,0.1
				c-0.4,0.1-0.6,0.7-0.3,1c0.3,0.2,0.7,0.5,0.9,0.7c0.4,0.4,0.6,0.6,1.1,0.9c0.6,0.2,1.1-0.8,0.5-1.1c-0.5-0.2-0.6-0.3-1.1-0.4
				c-0.5-0.1-0.9,0.4-0.7,0.9c0.3,0.5,0.6,0.9,1.1,1.2c0-0.4,0.1-0.7,0.1-1.1c-0.2,0-0.5,0-0.7-0.1c-0.4-0.2-0.9,0.3-0.7,0.7
				c0.2,0.6,0.5,1,0.9,1.5c0.1-0.3,0.2-0.7,0.3-1c-0.2,0.1-0.3,0.1-0.5,0.2c-0.4,0.2-0.6,0.6-0.3,1c0.3,0.4,0.6,0.7,0.9,1.1
				c0.1-0.3,0.3-0.7,0.4-1c-0.6-0.1-1.2-0.1-1.8-0.2c-0.4,0-0.8,0.5-0.5,0.9c0.6,0.8,1,1.6,1.4,2.5c0.2-0.3,0.4-0.6,0.7-0.9
				c-0.7-0.3-1.9-0.9-2.2,0.2c-0.3,1.1,0.9,1.5,1.7,1.4c0.5,0,0.8-0.6,0.4-1c-0.6-0.7-1.2-1.9-0.1-2.6c0.2-0.1,0.3-0.3,0.3-0.5
				c0-0.2,0.1-0.4,0.1-0.6c0.4-0.7-0.6-1.3-1-0.6c-0.2,0.4-0.3,0.7-0.3,1.2c0.1-0.2,0.2-0.3,0.3-0.5c-1.8,1.1-1.3,3.1-0.1,4.5
				c0.1-0.3,0.3-0.7,0.4-1c-1.6,0.1,0.1,0.6,0.2,0.7c0.5,0.2,0.8-0.5,0.7-0.9c-0.4-0.9-0.8-1.7-1.4-2.5c-0.2,0.3-0.3,0.6-0.5,0.9
				c0.6,0.1,1.2,0.1,1.8,0.2c0.6,0.1,0.7-0.7,0.4-1c-0.3-0.4-0.6-0.7-0.9-1.1c-0.1,0.3-0.2,0.7-0.3,1c0.2-0.1,0.3-0.1,0.5-0.2
				c0.4-0.1,0.6-0.7,0.3-1c-0.3-0.2-0.5-0.5-0.6-0.9c-0.2,0.2-0.5,0.5-0.7,0.7c0.5,0.2,0.8,0.2,1.3,0.1c0.5-0.1,0.5-0.8,0.1-1.1
				c-0.3-0.2-0.6-0.4-0.7-0.8c-0.2,0.3-0.4,0.6-0.7,0.9c0.3,0.1,0.6,0.2,0.8,0.3c0.2-0.4,0.3-0.7,0.5-1.1c-0.6-0.2-0.3-0.5-0.6-0.7
				c-0.3-0.2-0.6-0.3-0.9-0.5c-0.1,0.3-0.2,0.7-0.3,1c0.2,0,0.4-0.1,0.6-0.1c0.7-0.1,0.5-1.2-0.2-1.2c-0.5,0-0.9,0.1-1.2,0.6
				C97.9,33.6,98.7,34.4,99.2,33.8L99.2,33.8z"/>
		</g>
	</g>
	<g>
		<g>
			<path class="st3" d="M100.6,35.9c0.1-0.4,0.2-0.8,0.4-1.2c0.2-0.7-0.9-1-1.1-0.3c-0.1,0.4-0.2,0.8-0.4,1.2
				C99.3,36.3,100.4,36.6,100.6,35.9L100.6,35.9z"/>
		</g>
	</g>
	<g>
		<g>
			<path class="st3" d="M100.8,33.3c0,0.1,0.1,0.2,0.1,0.2c0.2-0.7-1-1.1-1.1-0.3c-0.1,0.6,0.2,1.1,0.7,1.2
				C101.2,34.7,101.5,33.5,100.8,33.3L100.8,33.3z"/>
		</g>
	</g>
	<g>
		<g>
			<path class="st3" d="M100,31.2c-0.4,0.2-0.8,0.3-1.2,0.5c0.3,0.2,0.5,0.4,0.8,0.6c0-0.4,0.4-0.6,0.7-0.6
				c-0.2-0.1-0.4-0.2-0.7-0.3c0.1,0,0.1,0,0,0.1c0.3,0.2,0.7,0.4,1,0.6c0,0-0.1,0-0.1,0c-0.1-0.1-0.3-0.3-0.4-0.4c0,0,0,0,0,0
				c0.4,0.1,0.7,0.2,1.1,0.3c0,0,0,0,0-0.1c-0.1,0.1-0.1,0.3-0.2,0.4c-0.2,0-0.4,0-0.6,0c-0.1-0.1-0.1-0.3-0.2-0.4c0-0.1,0,0-0.1,0
				c-0.1,0-0.2,0-0.3-0.1c-0.1,0-0.1-0.1-0.2-0.2c0-0.1,0-0.1,0-0.2c0-0.2-0.1-0.1-0.2,0.2c-0.2-0.1-0.4-0.1-0.6-0.2c0,0,0,0,0,0
				c-0.1-0.2-0.1-0.4-0.2-0.6c0-0.1,0.1-0.1,0.1-0.2c0.3,0,0.6,0,0.8,0c0,0,0,0,0,0c-0.5-0.6-1.4,0.3-0.8,0.8c0,0,0,0,0,0
				c0.2,0.3,0.6,0.2,0.8,0c0.3-0.3,0.3-0.7,0-1c-0.1-0.2-0.4-0.2-0.6-0.2c-0.8,0.1-0.8,1.2-0.5,1.8c0.3,0.6,1,0.9,1.7,0.8
				c0.6-0.1,1.4-0.8,1-1.5c-0.4-0.6-1.4-0.4-1.4,0.4c0,0.5,0.8,0.9,1.1,0.3c0.2-0.3,0.2-0.6,0.1-0.9c-0.1-0.2-0.2-0.4-0.4-0.4
				c-0.6-0.1-1.2,0.2-1.4,0.8c-0.2,0.6,0.6,1,1,0.6c0.4-0.4,0.5-1,0.2-1.5c-0.2-0.2-0.4-0.3-0.7-0.3c-0.9,0.2-1.4,0.9-1.6,1.8
				c0,0.4,0.4,0.7,0.8,0.6c0.4-0.2,0.8-0.3,1.2-0.5C101.1,32,100.8,30.9,100,31.2L100,31.2z"/>
		</g>
	</g>
	<g>
		<g>
			<path class="st3" d="M98.4,32.9c0.3,0.3,0.6,0.7,0.8,1c0.5,0.6,1.3-0.3,0.8-0.8c-0.3-0.3-0.6-0.7-0.8-1
				C98.7,31.5,97.9,32.4,98.4,32.9L98.4,32.9z"/>
		</g>
	</g>
	<g>
		<g>
			<path class="st3" d="M97.7,34c0.2,0.2,0.3,0.4,0.5,0.7c0.4,0.6,1.5,0,1-0.6c-0.2-0.2-0.3-0.4-0.5-0.7
				C98.3,32.8,97.3,33.4,97.7,34L97.7,34z"/>
		</g>
	</g>
	<g>
		<g>
			<path class="st3" d="M98.1,35.9c0.1,0.1,0.2,0.1,0.3,0.2c0.7,0.3,1.3-0.7,0.6-1c-0.1-0.1-0.2-0.1-0.3-0.2
				C98,34.5,97.4,35.5,98.1,35.9L98.1,35.9z"/>
		</g>
	</g>
	<g>
		<g>
			<path class="st3" d="M97.9,36.2c0.2,0.5,0.7,0.7,1.2,0.8c0.8,0.1,0.8-1.1,0-1.2c-0.1,0-0.1-0.1-0.2-0.2
				C98.6,34.9,97.5,35.5,97.9,36.2L97.9,36.2z"/>
		</g>
	</g>
	<g>
		<g>
			<path class="st3" d="M99.6,31c0-0.6-0.2-1.2-0.6-1.7c-0.2,0.3-0.4,0.6-0.7,0.9c0.4,0.2,0.8,0.3,1.3,0.5c0.7,0.3,1-0.9,0.3-1.1
				c-0.4-0.2-0.8-0.3-1.3-0.5c-0.5-0.2-1,0.5-0.7,0.9c0.2,0.4,0.4,0.7,0.4,1.1C98.5,31.8,99.6,31.8,99.6,31L99.6,31z"/>
		</g>
	</g>
	<g>
		<g>
			<path class="st3" d="M100.9,31.4C100.9,31.3,100.9,31.3,100.9,31.4c-0.3-0.2-0.6-0.4-0.9-0.6c-0.1,0.4,0,0.8,0.2,1.2
				c0.3,0.7,1.3,0.1,1-0.6c-0.1-0.2-0.1-0.4-0.1-0.6c0.1-0.4-0.6-0.8-0.9-0.5c-0.4,0.3-0.6,0.6-0.6,1.1
				C99.6,32.1,100.8,32.1,100.9,31.4L100.9,31.4z"/>
		</g>
	</g>
	<g>
		<g>
			<path class="st3" d="M100.5,35.6c0.1-0.1,0.2-0.3,0.3-0.4c-0.3-0.1-0.7-0.3-1-0.4c0,0.2,0,0.5,0,0.7c0,0.8,1.2,0.8,1.2,0
				c0-0.2,0-0.5,0-0.7c0-0.5-0.7-0.8-1-0.4c-0.1,0.1-0.2,0.3-0.3,0.4C99.2,35.4,100,36.2,100.5,35.6L100.5,35.6z"/>
		</g>
	</g>
	<g>
		<g>
			<path class="st3" d="M86.1,31.2c2.4-0.3,6.4-0.9,8.2,1.2c0.5,0.6,1.3-0.3,0.8-0.8c-2.1-2.4-6.3-1.8-9.1-1.5
				C85.3,30.1,85.3,31.3,86.1,31.2L86.1,31.2z"/>
		</g>
	</g>
</g>
</svg>
