<?xml version="1.0" encoding="utf-8"?>
<!-- Generator: Adobe Illustrator 21.0.2, SVG Export Plug-In . SVG Version: 6.00 Build 0)  -->
<svg version="1.1" id="Layer_1" xmlns="http://www.w3.org/2000/svg" xmlns:xlink="http://www.w3.org/1999/xlink" x="0px" y="0px"
	 viewBox="0 0 200 600" style="enable-background:new 0 0 200 600;" xml:space="preserve">
<style type="text/css">
	.st0{fill:#010A00;}
</style>
<g>
	<g>
		<g>
			<g>
				<g>
					<path class="st0" d="M68.3,145.4c-0.5,0.6-0.9,1.3-1.4,1.9c-0.5-0.9-1-1.7-1.5-2.6c1.1-1.9,1.2-3.8,0.5-5.7
						c-0.3,1-0.5,1.9-0.8,2.9c-0.4,0.2-0.8,0.4-1.2,0.5c-0.9-1.5-1.7-3-2.6-4.5c0.8-0.2,1.5-0.4,2.3-0.6c0.1-2.2-2.7-3.9-4.5-2.6
						c-0.4,0.3-0.9,0.6-1.3,1c1.4,0.4,2.7,0.7,4.1,1.1c-0.2-0.3-0.3-0.5-0.5-0.8c-0.6-1.7-2-2.4-3.7-2.1c2.6-0.4,2.4-0.5,2.5-3.1
						c0.1-1.3,0.2-2.6,0.3-3.9c0.4-3.2,1.1-6.4,2.8-9.1c1.4-2.4,3.6-4.6,6.3-5.5c2.6-0.9,5.2-0.1,7.9-0.4c-0.9-0.5-1.7-1-2.6-1.5
						c2.8,6.5,3.8,12.8,0.1,19.2c-1.3,2.4-3,4.9-4.9,6.8c-1.1,1.1-2,2.7-3.6,1.6c-1.5-1-0.8-2.9-0.4-4.6c0.3-1.3,1-2.5,1.4-3.8
						c0.5-1.4,1.1-4.5,0.3,0.6c-0.4,2.7-2.1,5.4-3.8,7.5c-0.6,0.8-1.2,1.5-2,2.2c0.6-0.4,1.2-0.8,1.8-1.1c0.5-0.7,0.7-2.9,1-3.9
						c0.1-0.4,3.1-7.7,3.2-7.6c-1-0.7-1.9-1.5-2.9-2.2c0.4,1.6-1.8,3.6-1.6,4.9c-0.7,0.8-0.4,1,0.8,0.7c1.6,0.5,2.1-0.3,1.5-2.4
						c0.1-0.5,0.3-1,0.4-1.6c-0.8-0.9-1.6-1.8-2.3-2.6c-0.9,0.4-1.7,3.9-3.2,4.6c1,0,2,0,3,0c0.4,0.3,2.2-4.5,2.1-4.3
						c0.8-1.5,1.9-2.7,3.1-3.9c-1.7-0.7-3.4-1.4-5.1-2.1c-0.1,3-0.9,5.3-2.6,7.8c1.9,0.5,3.7,1,5.6,1.5c-0.2-2.8,0.2-4.9,1.4-7.4
						c-1,2.1-0.8,2,0.4-0.5c0.5-1.2,0.9-1.2,1.2-0.1c0.6,1.4,0.9,1,0.9-1.2c1.6-2,1-2.7-1.8-1.8c0.2,1.3,0.3,2.6,0.2,4
						c-0.1,1.3-0.3,2.6-0.8,3.9c1.7-0.4,3.3-0.9,5-1.3c-1.5-1.2,0.6-5.9,1-6.1c-1,0-2,0-3,0c1,0.5,1.4,6.8,0.6,7.5
						c1-0.3,1.9-0.5,2.9-0.8c-0.4-0.1-0.2-4.5-0.2-4.5c0.3-1.6,1.2-3,2.2-4.3c-1.8-0.2-3.7-0.5-5.5-0.7c1.7,7.4-0.2,14.8-2.5,21.8
						c-1.2,3.5-2.8,6.7-6.1,8.7c-0.7,0.3-1.4,0.6-2,0.9c1.2,1.3,1.7,1.1,1.4-0.7c0.5-1.2,0.2-3.3,0.1-4.5c0-3.5-4.8-4-5.9-0.8
						c-0.4,1.2-0.8,2.5-1.3,3.7c2,0.3,3.9,0.5,5.9,0.8c-0.3-2.2-0.4-4.3-0.3-6.4c0.1-3.5-4.9-4-5.9-0.8c-0.5,1.2-0.7,2.4-0.9,3.7
						c2,0.3,3.9,0.5,5.9,0.8c0-0.4,0-0.8-0.1-1.2c0.7-3.8-5.1-5.4-5.8-1.6c-0.1,0.5-0.2,1-0.3,1.6c2,0.3,3.9,0.5,5.9,0.8
						c-0.1-1.1-0.1-2.2,0.1-3.2c-2,0.3-3.9,0.5-5.9,0.8c0.4,2.6-1,5.7-1.5,8.3c-0.5,2.6-0.8,5.3-1.2,7.9c-0.8,5.8-1.6,11.7-2.4,17.5
						c-0.5,3.7,4.5,5.4,5.8,1.6c2.4-7,4.7-14.1,7.1-21.1c-2-0.3-3.9-0.5-5.9-0.8c-0.9,7.1-2.3,14.1-4,21c1.9,0.5,3.9,1.1,5.8,1.6
						c1.4-9.5,4-18.7,8.1-27.4c-1.9-0.5-3.7-1-5.6-1.5c-0.2,9.5-3.9,19.6-6.2,28.8c2,0.3,3.9,0.5,5.9,0.8c0.7-8.6,3-16.8,6.9-24.6
						c-1.8-0.8-3.7-1.5-5.5-2.3c-2.2,9.5-4.3,19-6.5,28.4c1.9,0.5,3.9,1.1,5.8,1.6c1.2-7.3,3.3-14.3,6.6-21c-1.9-0.5-3.7-1-5.6-1.5
						c-0.9,7.3-2.5,14.5-4.1,21.6c1.9,0.5,3.9,1.1,5.8,1.6c1-5.7,2.5-11.2,4.9-16.5c-1.8-0.8-3.7-1.5-5.5-2.3
						c-0.8,5.6-2,11.1-3.6,16.6c2,0.3,3.9,0.5,5.9,0.8c0.3-3.4,1.1-6.6,2.2-9.9c-2-0.3-3.9-0.5-5.9-0.8c-0.2,5.5-2.6,10.5-2.3,16.1
						c0.1,3.3,5,4.2,5.9,0.8c3.5-12.7,7.4-25.3,11.6-37.8c-1.9-0.5-3.9-1.1-5.8-1.6c-0.9,4.4-2.8,7.8-6.1,10.9
						c1.7,0.7,3.4,1.4,5.1,2.1c-0.1-4.7,1.2-8.4,4-12.2c-1.6,0.2-3.1,0.4-4.7,0.6c0.7,0.8-0.3,5.7-0.1,7.1c0.3,1.8,0.8,3.6,1.1,5.4
						c0.1,0.8,0.2,1.7,0.3,2.5c-0.4,2.1,0.6,2.8,3.1,2.1c-1.1,1.5-2.3,2.9-3.4,4.4c1.7,0.6,2.4,1.8,2.2,3.5c1.7-0.7,3.4-1.4,5.1-2.1
						c-0.2-0.7-0.5-1.4-0.7-2c-1.9,0.5-3.9,1.1-5.8,1.6c1,4.5,1.9,9.1,2.7,13.7c1.8-0.8,3.7-1.5,5.5-2.3c-1.4-2.8-1.8-5.4-1.1-8.5
						c-1.9,0-3.9,0-5.8,0c1.3,3.1,2.2,6.1,2.9,9.4c0.7,3.3,5.9,2.5,5.9-0.8c0-2.5,0-5.1,0-7.6c-2,0.3-3.9,0.5-5.9,0.8
						c0.3,1.8,0.5,3.4,0.5,5.2c2,0,4,0,6,0c-0.3-2.7-0.3-5.4-0.1-8.1c-2,0.3-3.9,0.5-5.9,0.8c0.3,1.3,0.3,2.6,0.2,3.9c2,0,4,0,6,0
						c-0.2-2-0.3-4-0.2-6c-2,0.3-3.9,0.5-5.9,0.8c0.3,1.8,0.4,3.5,0.4,5.3c2,0,4,0,6,0c-0.1-3.4-0.1-6.8,0.1-10.3c-2,0-4,0-6,0
						c0,2,0,4,0.1,5.9c0,3.9,5.8,3.8,6,0c0.2-4.3,0.5-8.5,0.7-12.8c0.2-4.2-0.5-8.4,0.1-12.6c0.9-7.4,2.1-14.4,0.4-21.8
						c-1.9,0.5-3.9,1.1-5.8,1.6c2.1,5.1,0.5,9.8-1.3,14.8c-1.3,3.6,4.5,5.2,5.8,1.6c2.1-5.9,3.8-11.9,1.3-18
						c-1.4-3.5-6.7-2.3-5.8,1.6c1.7,7.8-0.5,14.8-0.9,22.5c-0.3,7.7-0.1,15.4-0.5,23.2c2,0,4,0,6,0c0-2,0-4-0.1-5.9
						c0-3.9-5.8-3.8-6,0c-0.2,3.4-0.2,6.8-0.1,10.3c0.1,3.9,5.9,3.9,6,0c0-2.3-0.2-4.6-0.6-6.9c-0.6-3.5-5.7-2.4-5.9,0.8
						c-0.1,2,0,4,0.2,6c0.5,3.8,5.7,3.9,6,0c0.1-1.9,0-3.6-0.4-5.5c-0.7-3.5-5.6-2.3-5.9,0.8c-0.2,2.7-0.2,5.4,0.1,8.1
						c0.4,3.7,6,4,6,0c0-2.3-0.2-4.5-0.7-6.8c-0.6-3.4-5.9-2.5-5.9,0.8c0,2.5,0,5.1,0,7.6c2-0.3,3.9-0.5,5.9-0.8
						c-0.7-3.2-1.7-6.3-2.9-9.4c-1-2.5-5.1-3.2-5.8,0c-1,4.7-0.5,8.9,1.7,13.2c1.6,3.3,6,0.8,5.5-2.3c-0.8-4.6-1.6-9.2-2.7-13.7
						c-0.9-3.8-6.4-2.1-5.8,1.6c0.3,1.9,1.1,3.2,2.3,4.7c1.5,2,5.4,0.4,5.1-2.1c-0.5-4.3-1.8-8.4-6.6-9.3c-2.4-0.4-4.9,2-3.4,4.4
						c3,4.9,8.1,1.1,8.2-3.4c0.1-4.2-1.9-8.2-1.8-12.3c0-3.6,1.4-5.8-1.4-8.7c-1.4-1.5-3.6-0.9-4.7,0.6c-3.3,4.5-4.8,9.6-4.8,15.2
						c0,2.6,3.2,3.9,5.1,2.1c3.9-3.7,6.5-8.2,7.6-13.5c0.8-3.8-4.5-5.3-5.8-1.6c-4.2,12.5-8.1,25.1-11.6,37.8c2,0.3,3.9,0.5,5.9,0.8
						c-0.2-5.5,2.1-10.6,2.3-16.1c0.1-3.5-4.8-3.9-5.9-0.8c-1.3,3.8-2,7.5-2.4,11.5c-0.3,3.4,5,4,5.9,0.8c1.5-5.5,2.7-11,3.6-16.6
						c0.5-3-4-5.7-5.5-2.3c-2.5,5.8-4.4,11.7-5.5,18c-0.6,3.7,4.9,5.4,5.8,1.6c1.8-7.7,3.4-15.4,4.4-23.2c0.4-2.9-4.3-4.1-5.6-1.5
						c-3.5,7.2-5.9,14.6-7.2,22.4c-0.6,3.7,4.9,5.4,5.8,1.6c2.2-9.5,4.3-19,6.5-28.4c0.7-3.2-3.9-5.5-5.5-2.3
						c-4.4,8.7-7,17.9-7.7,27.6c-0.3,3.4,5.1,4,5.9,0.8c2.4-9.8,6.2-20.2,6.4-30.4c0.1-2.8-4.3-4.3-5.6-1.5
						c-4.3,9.2-7.3,18.8-8.8,28.8c-0.5,3.7,4.9,5.5,5.8,1.6c1.7-7.5,3.2-15,4.2-22.6c0.4-3.5-4.9-3.8-5.9-0.8
						c-2.4,7-4.7,14.1-7.1,21.1c1.9,0.5,3.9,1.1,5.8,1.6c1-7.1,2-14.3,3-21.4c0.7-5.1,2.9-10.4,2.1-15.5c-0.6-3.6-5.6-2.3-5.9,0.8
						c-0.2,1.1-0.2,2.2-0.1,3.2c0.1,3.2,5.2,4.3,5.9,0.8c0.1-0.5,0.2-1,0.3-1.6c-1.9-0.5-3.9-1.1-5.8-1.6c-0.2,1.1-0.3,1.7-0.2,2.8
						c0.4,3,5.3,4.5,5.9,0.8c0.1-1.3,0.4-2.5,0.9-3.7c-2-0.3-3.9-0.5-5.9-0.8c-0.1,2.2,0,4.3,0.3,6.4c0.4,3.3,4.7,4.2,5.9,0.8
						c0.4-1.2,0.8-2.5,1.3-3.7c-2-0.3-3.9-0.5-5.9-0.8c0,3.6-1.9,9.2,2.5,10.8c4.1,1.5,9.2-2.4,11.6-5.3c3.5-4.2,5-10,6.3-15.2
						c1.5-6.1,2-12.1,0.6-18.2c-0.6-2.8-4-2.6-5.5-0.7c-3,4-5.3,12.6-0.7,16.6c5.8,5.1,7.5-4.7,7.2-8.2c-0.3-3.3-2.9-12.2-8-7.6
						c-3.5,3.2-5,11.6-1,14.8c1.7,1.3,4.4,1,5-1.3c1-3.7,2.8-14.3-2.7-15.6c-5-1.2-7.5,7.5-7.1,11c0.7,5.7,6.6,5.9,9.5,1.6
						c2.7-4,2.9-10.8-3.5-10.4c-5.3,0.3-9.2,5.8-8.7,10.9c0.5,5.2,6.3,6.3,9.3,2.3c2.5-3.3,2.5-12.2-3.4-12.1
						c-5.7,0.1-6.9,9.9-6.7,13.9c0.2,3,3.9,4,5.6,1.5c2.3-3.3,3.3-6.8,3.5-10.8c0.1-2.7-3.3-3.9-5.1-2.1c-3.9,3.8-9.7,13.3-3.9,17.6
						c0.8,0.6,2.2,0.5,3,0c3.5-1.9,7.9-8.5,5.7-12.6c-0.9-1.7-3.1-2.8-5.1-2.2c-2.6,0.9-3.6,4.4-4.2,6.8c-0.8,3.3-1.7,12.5,4.6,10.9
						c4.5-1.2,6.9-9.4,6.1-13.3c-0.3-1.4-1.6-2.1-2.9-2.2c-5.5-0.5-8.6,10.3-9.7,14.4c-0.9,3.7-1.6,11,4.5,10.3
						c5.8-0.7,10.3-10.5,10.8-15.5c0.5-4.1-1.9-11.5-7.4-8.7c-8.4,4.3-10.6,29.5,3.3,22.4c5.5-2.8,10-9.6,12.3-15.2
						c2.9-7.2,1-14.7-2-21.6c-0.4-0.9-1.7-1.6-2.6-1.5c-4.6,0.5-8.5-0.5-12.8,2.1c-3.9,2.3-6.6,6.1-8.3,10.2
						c-1.7,4.4-6.4,22.9,2.8,21.5c-1.2-0.7-2.5-1.4-3.7-2.1c0.3,0.8,0.6,1.5,1.1,2.2c0.9,1.2,2.7,2.1,4.1,1.1c0.4-0.3,0.9-0.6,1.3-1
						c-1.5-0.9-3-1.7-4.5-2.6c-0.4,5.3,5.9,8.9,8.9,3.6c1.1-2-0.3-4.5-2.6-4.5c-1.3,0-2.1,0.4-3,1.2c-0.8,0.7-1,1.9-0.8,2.9
						c0.8,3.5,2.8,9.1,7.3,8.8c2.9-0.2,5.2-3.5,3.6-6.2c-3.8-6.1-13.4,3.1-5.8,7.3C68.6,152.5,71.7,147.3,68.3,145.4L68.3,145.4z"/>
				</g>
			</g>
			<g>
				<g>
					<path class="st0" d="M74.8,147.8c3.9,0,3.9-6,0-6C71,141.8,71,147.8,74.8,147.8L74.8,147.8z"/>
				</g>
			</g>
			<g>
				<g>
					<path class="st0" d="M69.6,141.3c0.6,1.6,1.2,3.2,1.8,4.8c1.4,3.7,6.4,2.2,5.8-1.6c-0.5-2.9-0.7-5.8-0.9-8.7
						c-1.7,0.7-3.4,1.4-5.1,2.1c1.1,1,0.8,5.7,0.9,7c0.2,2.4,0.5,4.8,0.7,7.2c2,0,4,0,6,0c-0.3-2.6-0.5-5.1-0.2-7.7c-2,0-4,0-6,0
						c-0.5,5.2-0.2,10.3,0.7,15.5c1.7-1,3.3-1.9,5-2.9c-3.6-3.5-6-7.8-8.6-12.1c-2.5-4.2-5.2-8.4-7.3-12.8c-1.1,1.5-2.3,2.9-3.4,4.4
						c3.7,0.7,6.4,4,8.3,7.1c1.1,1.7,4.4,7.1,4.1,9.1c1.5-0.6,2.9-1.2,4.4-1.8c-0.1,0-0.1-0.1-0.2-0.1c0.4,1.4,0.7,2.7,1.1,4.1
						c0-0.1,0.1-0.1,0.1-0.2c2.1-3.3-3.1-6.3-5.2-3c0,0.1-0.1,0.1-0.1,0.2c-0.9,1.4-0.3,3.3,1.1,4.1c0.1,0,0.1,0.1,0.2,0.1
						c1.5,0.9,4.1,0.1,4.4-1.8c0.7-4.5-2.7-10.7-5.1-14.4c-2.7-4.1-6.5-8.3-11.5-9.2c-2.7-0.5-4.5,2-3.4,4.4c2.4,5,5.5,9.7,8.3,14.4
						c2.5,4.2,5,8.3,8.5,11.7c2.3,2.2,5.5,0,5-2.9c-0.8-4.7-0.9-9.2-0.5-13.9c0.4-3.9-5.6-3.8-6,0c-0.3,2.6-0.1,5.1,0.2,7.7
						c0.5,3.8,6.4,3.9,6,0c-0.4-3.9-0.8-7.8-1.2-11.8c-0.3-2.6-0.2-4.9-2.2-6.7c-1.8-1.6-5.3-0.6-5.1,2.1c0.2,3.5,0.5,6.9,1.1,10.3
						c1.9-0.5,3.9-1.1,5.8-1.6c-0.6-1.6-1.2-3.2-1.8-4.8C74.1,136.1,68.3,137.7,69.6,141.3L69.6,141.3z"/>
				</g>
			</g>
			<g>
				<g>
					<path class="st0" d="M57.2,184c-0.9-1.8-1-3.4-0.8-5.4c-2,0.3-3.9,0.5-5.9,0.8c0,0.8,0,1.6,0,2.4c1.9-0.5,3.7-1,5.6-1.5
						c-0.6-1.3-0.8-2.7-0.6-4.1c0.2-3.4-5.1-4.1-5.9-0.8c-0.2,1-0.5,1.9-0.7,2.9c2,0.3,3.9,0.5,5.9,0.8c0-0.8,0.1-1.7,0.1-2.5
						c-1.9-0.5-3.9-1.1-5.8-1.6c-0.1,1-0.3,2.1-0.7,3c2,0.3,3.9,0.5,5.9,0.8c0.1-0.9,0.2-1.8,0.4-2.8c-2-0.3-3.9-0.5-5.9-0.8
						c0.4,3.3,0.9,6.6,1.3,9.9c0.4,3.4,4.6,4.1,5.9,0.8c1-2.5,2-5.1,3-7.6c-1.9,0-3.9,0-5.8,0c0.6,3.2,0.7,6.4,0.5,9.7
						c-0.2,3.4,5.1,4.1,5.9,0.8c0.5-2.3,1.1-4.6,2.1-6.7c-1.9-0.5-3.7-1-5.6-1.5c0.2,3.3,0.2,6.5-0.3,9.8c-0.5,3.7,5.1,5.5,5.8,1.6
						c0.4-2.3,1-4.5,1.7-6.7c-2-0.3-3.9-0.5-5.9-0.8c0.2,2.3,0.3,4.4-0.1,6.8c-0.3,2.2,2,5.2,4.4,3.4c4.2-3.2,3.9-12.1,4.8-17
						c-1.9,0-3.9,0-5.8,0c0.7,2.1-1,5-1.8,6.9c-1.1,2.7-2.1,5.3-3.2,8c-2,5-4,10-6,15.1c2,0.3,3.9,0.5,5.9,0.8
						c0.2-4.9,1.2-9.4,3-13.9c-2-0.3-3.9-0.5-5.9-0.8c-0.2,5-0.8,9.8-1.8,14.7c-0.8,3.8,4.6,5.3,5.8,1.6c0.6-2,1.2-3.9,1.8-5.9
						c-2-0.3-3.9-0.5-5.9-0.8c0.1,3.3-0.1,6.4-0.5,9.7c-0.4,3.4,5.2,4.1,5.9,0.8c1.4-6.3,2.9-12.6,4.3-18.8c-1.9,0-3.9,0-5.8,0
						c0,0.7,0,1.4,0,2.1c-0.4,3.3,5.4,4.1,5.9,0.8c0.2-0.8,0.4-1.5,0.6-2.3c-1.8-0.8-3.7-1.5-5.5-2.3c-1.9,6.5-3.8,13-5.6,19.5
						c1.9,0,3.9,0,5.8,0c-1.3-3.8,0.1-7.9,0.3-11.9c0.2-3.9-0.2-7.8-0.8-11.7c-0.5-3.1-5-2.6-5.8,0c-1.4,4.5-3,8.9-4.7,13.3
						c2,0.3,3.9,0.5,5.9,0.8c0-4.9,0.7-9.6,1.6-14.5c0.7-3.8-4.4-5.2-5.8-1.6c-0.7,1.7-1.3,3.4-2,5c2,0.3,3.9,0.5,5.9,0.8
						c0.3-4.1,0.8-8.1,1.5-12.2c-2-0.3-3.9-0.5-5.9-0.8c0.9,6.6-1,13.4-2.1,19.9c1.9,0,3.9,0,5.8,0c-0.3-1.4-0.3-2.9,0-4.3
						c-2-0.3-3.9-0.5-5.9-0.8c0.1,4.1-0.1,8.2-0.7,12.2c2,0.3,3.9,0.5,5.9,0.8c-0.1-1.3,0.1-2.5,0.5-3.7c-2-0.3-3.9-0.5-5.9-0.8
						c0.2,3.5,0.1,6.9-0.3,10.3c2,0,4,0,6,0c0.1-1.8,0.3-3.5,0.8-5.3c-1.9,0-3.9,0-5.8,0c0.6,4,0.7,7.9,0.4,11.9c2,0,4,0,6,0
						c0-2.4,0.1-4.6,0.4-7c-1.9,0-3.9,0-5.8,0c0.5,3.3,0.6,6.6,0.3,10c2,0,4,0,6,0c-0.1-2.7,0.2-5.1,0.9-7.6c-2-0.3-3.9-0.5-5.9-0.8
						c0.3,2.3,0.4,4.2-0.1,6.5c2,0.3,3.9,0.5,5.9,0.8c0-2.2,0.3-4.1,1-6.2c-2-0.3-3.9-0.5-5.9-0.8c0.3,2.7,0.3,5.2,0.1,7.9
						c-0.4,3.9,5.6,3.8,6,0c0.2-1.6,0.5-3.3,1-4.8c-2-0.3-3.9-0.5-5.9-0.8c0.1,1.9,0.2,3.7,0.1,5.7c-0.2,3.3,5.3,4.2,5.9,0.8
						c0.5-2.4,1-4.7,1.6-7c-2-0.3-3.9-0.5-5.9-0.8c-0.1,1.3-0.2,2.5-0.3,3.8c-0.3,3.9,5.7,3.8,6,0c0.1-0.8,0.1-1.7,0.2-2.5
						c0.3-3.3-5.4-4.2-5.9-0.8c-1.2,8.1-2.8,16.1-5,24c1.9,0,3.9,0,5.8,0c-1.2-3.2-1.5-6.2-1.1-9.6c0.4-3.4-5.2-4.1-5.9-0.8
						c-0.4,1.9-0.8,3.7-1.2,5.6c1.9,0,3.9,0,5.8,0c-0.3-1.4-0.3-2.8,0-4.2c0.3-3.4-5.1-4-5.9-0.8c-0.5,1.8-0.9,3.6-1.4,5.3
						c1.9,0,3.9,0,5.8,0c-1.4-3.2,0.1-8.2,0.5-11.5c0.5-4,1-7.9,1.5-11.9c-2,0-4,0-6,0c-0.1,1.7-0.2,3.5-0.3,5.2c2,0,4,0,6,0
						c0-3,0-6.1,0-9.1c-2,0.3-3.9,0.5-5.9,0.8c2.7,9,0.4,18.4,1.6,27.7c0.5,3.8,5.6,3.9,6,0c0.3-3.1,0.7-6.1,1-9.2c-2,0-4,0-6,0
						c1.6,12.3-2.8,24.2-1.9,36.5c2-0.3,3.9-0.5,5.9-0.8c-1-4.3-1.2-8.4-0.5-12.7c-2-0.3-3.9-0.5-5.9-0.8c-0.1,4.2-0.4,8.3-1,12.4
						c1.9,0,3.9,0,5.8,0c-0.7-4.9-0.7-9.7-0.2-14.6c0.4-3.8-5.6-3.8-6,0c-0.2,2.3-0.5,4.5-0.7,6.8c2,0,4,0,6,0
						c-0.4-3.8-0.4-7.4,0.3-11.1c-1.9-0.5-3.9-1.1-5.8-1.6c-0.3,1.8-0.6,3.6-0.9,5.4c2,0.3,3.9,0.5,5.9,0.8
						c-0.1-3.5-0.1-7.1-0.2-10.6c-2,0.3-3.9,0.5-5.9,0.8c1.1,5.6,1.3,12.8,5.7,16.9c0.7,0.7,1.9,1.2,2.9,0.8
						c3.9-1.5,3.9-4.9,4.1-8.6c0.4-6.5,0.8-13,1.2-19.6c0.2-3.3-5.4-4.2-5.9-0.8c-1.1,7.6-2.3,15.2-3.4,22.8
						c-1.1,7.3-1.3,15.7-4.7,22.3c-1,1.9,0.2,4.7,2.6,4.5c1.2-0.2,2.4,0,3.4,0.6c1.8,0.8,3.9-1.1,3.8-2.9c-0.2-6.4,0-12.8,0.7-19.2
						c-2,0-4,0-6,0c0,1,0.1,2.1,0.1,3.1c2,0,4,0,6,0c-0.2-1,0-2,0.5-2.9c-2-0.3-3.9-0.5-5.9-0.8c-0.2,3.2-0.5,6.4-1,9.5
						c-0.5,3.8,5.3,5.4,5.8,1.6c0.5-3.7,0.9-7.4,1.2-11.1c0.3-3.7-4.7-3.7-5.9-0.8c-0.6,1.5-0.8,2.9-0.7,4.5c0.2,3.8,6.1,3.9,6,0
						c0-1-0.1-2.1-0.1-3.1c-0.1-3.9-5.6-3.8-6,0c-0.7,6.4-0.9,12.7-0.7,19.2c1.3-1,2.5-1.9,3.8-2.9c-1.7-0.7-3.2-0.9-5-0.8
						c0.9,1.5,1.7,3,2.6,4.5c3.5-6.7,3.9-14.5,5-21.9c1.2-8.2,2.5-16.5,3.7-24.7c-2-0.3-3.9-0.5-5.9-0.8c-0.2,4-0.5,8.1-0.7,12.1
						c-0.1,1.1-0.6,10.4-0.2,10.3c1,0.3,1.9,0.5,2.9,0.8c-3.3-3-3.4-10.1-4.2-14.2c-0.7-3.3-5.9-2.5-5.9,0.8
						c0.1,3.5,0.1,7.1,0.2,10.6c0,3.2,5.3,4.2,5.9,0.8c0.3-1.8,0.6-3.6,0.9-5.4c0.6-3.8-5.1-5.4-5.8-1.6c-0.8,4.3-1,8.4-0.5,12.7
						c0.4,3.8,5.6,3.9,6,0c0.2-2.3,0.5-4.5,0.7-6.8c-2,0-4,0-6,0c-0.5,5.5-0.3,10.8,0.4,16.2c0.4,2.9,5.3,2.8,5.8,0
						c0.7-4.6,1.1-9.3,1.2-14c0-3.3-5.3-4.2-5.9-0.8c-0.9,5.4-0.8,10.6,0.5,15.9c0.8,3.2,6.1,2.6,5.9-0.8
						c-0.8-12.3,3.5-24.2,1.9-36.5c-0.5-3.8-5.6-3.9-6,0c-0.3,3.1-0.7,6.1-1,9.2c2,0,4,0,6,0c-1.2-9.8,1.1-19.7-1.8-29.2
						c-1-3.2-5.9-2.7-5.9,0.8c0,3,0,6.1,0,9.1c0,3.9,5.8,3.8,6,0c0.1-1.7,0.2-3.5,0.3-5.2c0.2-4-5.5-3.7-6,0
						c-0.6,4.6-1.2,9.1-1.7,13.7c-0.4,3.6-1.6,7.7-0.1,11.2c1.1,2.5,5,3.2,5.8,0c0.5-1.8,0.9-3.6,1.4-5.3c-2-0.3-3.9-0.5-5.9-0.8
						c-0.2,2-0.1,3.8,0.3,5.8c0.5,2.9,5.2,2.8,5.8,0c0.4-1.9,0.8-3.7,1.2-5.6c-2-0.3-3.9-0.5-5.9-0.8c-0.5,4-0.1,7.5,1.3,11.2
						c1,2.7,5,3,5.8,0c2.2-7.9,3.8-15.9,5-24c-2-0.3-3.9-0.5-5.9-0.8c-0.1,0.8-0.1,1.7-0.2,2.5c2,0,4,0,6,0c0.1-1.3,0.2-2.5,0.3-3.8
						c0.2-3.4-5-4-5.9-0.8c-0.6,2.3-1.2,4.7-1.6,7c2,0.3,3.9,0.5,5.9,0.8c0.1-1.9,0.1-3.7-0.1-5.7c-0.2-3.2-5-4.2-5.9-0.8
						c-0.6,2.2-0.9,4.2-1.2,6.4c2,0,4,0,6,0c0.3-2.7,0.2-5.2-0.1-7.9c-0.4-3.2-4.8-4.2-5.9-0.8c-0.8,2.6-1.2,5.1-1.2,7.8
						c0,3.3,5.3,4.2,5.9,0.8c0.5-2.8,0.7-5.3,0.3-8.1c-0.4-3.1-4.9-4.3-5.9-0.8c-0.9,3.1-1.2,6-1.1,9.2c0.2,3.9,5.7,3.8,6,0
						c0.3-3.9,0-7.7-0.6-11.6c-0.4-2.9-5.4-2.9-5.8,0c-0.4,2.9-0.7,5.7-0.7,8.6c0,3.9,5.7,3.8,6,0c0.3-4.6,0.1-9-0.6-13.5
						c-0.4-3-5.1-2.7-5.8,0c-0.6,2.3-0.9,4.5-1,6.9c-0.1,4,5.5,3.7,6,0c0.5-3.5,0.6-6.8,0.3-10.3c-0.2-3.3-5-4.2-5.9-0.8
						c-0.5,1.8-0.7,3.4-0.7,5.3c0,3.3,5.4,4.2,5.9,0.8c0.7-4.6,1-9.2,0.9-13.8c-0.1-3.2-5.3-4.2-5.9-0.8c-0.5,2.6-0.5,4.9,0,7.5
						c0.5,2.9,5.3,2.9,5.8,0c1.2-7,3.3-14.3,2.3-21.5c-0.4-3-5.2-4.5-5.9-0.8c-0.8,4.6-1.4,9.2-1.7,13.8c-0.2,3.6,4.7,3.7,5.9,0.8
						c0.7-1.7,1.3-3.4,2-5c-1.9-0.5-3.9-1.1-5.8-1.6c-0.9,5.3-1.8,10.6-1.8,16.1c0,3.6,4.7,3.8,5.9,0.8c1.8-4.4,3.3-8.8,4.7-13.3
						c-1.9,0-3.9,0-5.8,0c0.8,4.9,0.8,9.6,0.1,14.5c-0.4,3.1-0.7,6,0.4,9.1c0.9,2.7,4.9,3,5.8,0c1.9-6.5,3.8-13,5.6-19.5
						c0.9-3.2-4-5.4-5.5-2.3c-0.7,1.5-1,2-1.2,3.7c2,0.3,3.9,0.5,5.9,0.8c0.2-1.5,0.1-2.1-0.2-3.7c-0.5-2.9-5.2-2.8-5.8,0
						c-1.4,6.3-2.9,12.6-4.3,18.8c2,0.3,3.9,0.5,5.9,0.8c0.4-3.2,0.6-6.4,0.5-9.7c-0.1-3.4-4.9-4-5.9-0.8c-0.6,2-1.2,3.9-1.8,5.9
						c1.9,0.5,3.9,1.1,5.8,1.6c1.1-5.4,1.8-10.8,2-16.3c0.2-3.6-4.7-3.7-5.9-0.8c-2,5-3,10.1-3.2,15.5c-0.1,3.6,4.7,3.7,5.9,0.8
						c2.5-6.2,4.9-12.4,7.4-18.6c1.7-4.4,5.2-9.7,3.5-14.5c-0.9-2.5-5.2-3.2-5.8,0c-0.5,2.6-0.9,5.2-1.4,7.8
						c-0.2,1.2-0.4,2.3-0.6,3.5c-0.1,0.6-1,2.9-0.1,2.2c1.5,1.1,2.9,2.3,4.4,3.4c0.4-2.8,0.5-5.5,0.3-8.4c-0.3-3.3-4.8-4.1-5.9-0.8
						c-0.7,2.2-1.3,4.4-1.7,6.7c1.9,0.5,3.9,1.1,5.8,1.6c0.5-3.8,0.7-7.5,0.5-11.4c-0.2-2.7-4.2-4.5-5.6-1.5c-1.2,2.7-2,5.3-2.7,8.2
						c2,0.3,3.9,0.5,5.9,0.8c0.2-3.8-0.1-7.5-0.7-11.3c-0.6-3.2-4.8-2.4-5.8,0c-1,2.5-2,5.1-3,7.6c2,0.3,3.9,0.5,5.9,0.8
						c-0.4-3.3-0.9-6.6-1.3-9.9c-0.4-3.1-5-4.4-5.9-0.8c-0.4,1.7-0.5,2.6-0.6,4.4c-0.1,3.5,4.9,3.9,5.9,0.8c0.4-1,0.7-2,0.7-3
						c0.5-3.7-4.9-5.5-5.8-1.6c-0.4,1.8-0.5,2.2-0.3,4.1c0.3,3.1,5,4.3,5.9,0.8c0.2-1,0.5-1.9,0.7-2.9c-2-0.3-3.9-0.5-5.9-0.8
						c-0.2,2.6,0.3,4.7,1.4,7.1c1.3,3,5.3,1.1,5.6-1.5c0.2-1.7,0.1-2.3-0.2-4c-0.6-3.6-5.5-2.3-5.9,0.8c-0.3,3.1,0.2,5.6,1.6,8.4
						C53.7,190.5,58.8,187.4,57.2,184L57.2,184z"/>
				</g>
			</g>
			<g>
				<g>
					<path class="st0" d="M46.9,266.2c0-0.2,0-0.5,0-0.7c-1.9,0-3.9,0-5.8,0c0.1-0.1,0.1-0.3,0.2-0.4c1.8,0.2,3.7,0.5,5.5,0.7
						c-0.9-5.9,0.4-13.1,1.2-19c-1.9,0-3.9,0-5.8,0c1.6,4.2,1.1,8.3,1.2,12.6c0,1.6,0.2,3.1,0.4,4.6c0.3,2.3,2.8,7.3-1.7,7.2
						c1,1,2,2,3,3c0.3-2.3,0.5-4.6,0.8-6.9c0.4-3.8-5.6-3.8-6,0c-0.3,2.3-0.5,4.6-0.8,6.9c-0.2,1.6,1.5,3,3,3
						c4.9,0.1,9.3-3.3,8.6-8.5c-0.5-4.3-1.3-8.3-1.3-12.7c0-3.8-0.1-7.2-1.5-10.8c-0.9-2.4-5.3-3.3-5.8,0c-1,7.1-2.4,15-1.2,22.1
						c0.4,2.6,4.3,2.8,5.5,0.7c0.9-1.6,1.1-2.5,0.4-4.2c-0.9-2.5-5.3-3.2-5.8,0c-0.2,1.5-0.2,2.4,0,3.9
						C41.7,271.6,47.5,270,46.9,266.2L46.9,266.2z"/>
				</g>
			</g>
			<g>
				<g>
					<path class="st0" d="M72.3,182.5c1.3,4.8,2.4,9.6,3.3,14.5c0.6,3.4,5.9,2.5,5.9-0.8c0-5.9,0.2-11.7,0.7-17.6
						c0.3-3.9-5.7-3.8-6,0c-0.8,8.9-1.4,17.7-0.3,26.6c0.5,3.7,5.8,4,6,0c0.1-2.5,0.1-5.1,0-7.6c-2,0.3-3.9,0.5-5.9,0.8
						c0.9,6.5-1.5,12.8-0.6,19.3c0.5,3.8,5.7,3.9,6,0c0.2-2,0.3-4,0.5-6c0.3-3.3-5.4-4.1-5.9-0.8c-1.3,8.3-1.2,17.2-2.9,25.4
						c-0.5,2.5-2.1,21.2-2.6,21.2c0.5,1.9,1,3.7,1.5,5.6c2.4-1.6,2.8-3.5,3.1-6.2c0.6-4.8,1.3-9.3,3.1-13.9c-2-0.3-3.9-0.5-5.9-0.8
						c0.6,5.9,0.3,11.6-1.2,17.3c-0.4,1.5,0.5,3.3,2.1,3.7c0.6,0.2,1.3,0.3,1.9,0.5c1.5,0.4,3.3-0.5,3.7-2.1c1.6-7.6,0.8-16,1-23.7
						c-2,0.3-3.9,0.5-5.9,0.8c0.6,3,0.6,6,0.3,9c-0.4,3.9,5.6,3.8,6,0c0.5-4.7-0.9-9.4-0.3-14.1c-2-0.3-3.9-0.5-5.9-0.8
						c0.1,2.2,0.2,4.4,0.3,6.7c0.2,3.8,6,3.9,6,0c-0.1-6.3,0.3-12.5,1-18.8c-2,0-4,0-6,0c0.4,3.6,0.3,7.1-0.2,10.7
						c-0.6,3.8,5.2,5.4,5.8,1.6c0.7-4.1,0.9-8.1,0.5-12.3c-0.4-3.9-5.6-3.8-6,0c-0.7,6.3-1,12.5-1,18.8c2,0,4,0,6,0
						c-0.1-2.2-0.2-4.4-0.3-6.7c-0.2-3.2-5.4-4.3-5.9-0.8c-0.7,5.3,0.7,10.4,0.1,15.7c2,0,4,0,6,0c0.4-3.6,0.1-7-0.5-10.6
						c-0.7-3.4-5.8-2.5-5.9,0.8c-0.1,7.1,0.8,15.1-0.7,22.1c1.2-0.7,2.5-1.4,3.7-2.1c-0.6-0.2-1.3-0.3-1.9-0.5
						c0.7,1.2,1.4,2.5,2.1,3.7c1.6-6.3,2.2-12.5,1.5-18.9c-0.4-3.4-4.6-4-5.9-0.8c-1.1,2.8-1.9,5.6-2.4,8.5c-0.2,1.4-0.2,7.4-1,8
						c-2.4,1.6-1.6,5.7,1.5,5.6c3.4-0.1,4.9-2,5.6-5.1c1.1-4.5,2.1-9.8,2.1-14.5c0-4.1,1-8,1.4-12.2c0.5-6.4,1.3-12.8,2.3-19.1
						c-2-0.3-3.9-0.5-5.9-0.8c-0.2,2-0.3,4-0.5,6c2,0,4,0,6,0c-0.9-7,1.4-13.9,0.4-20.9c-0.5-3.4-6-2.5-5.9,0.8
						c0.1,2.5,0.1,5.1,0,7.6c2,0,4,0,6,0c-1.2-8.9-0.5-17.7,0.3-26.6c-2,0-4,0-6,0c-0.5,5.9-0.7,11.7-0.7,17.6
						c2-0.3,3.9-0.5,5.9-0.8c-0.9-4.9-2-9.7-3.3-14.5C77.1,177.2,71.3,178.7,72.3,182.5L72.3,182.5z"/>
				</g>
			</g>
			<g>
				<g>
					<path class="st0" d="M125.2,176.4c-0.1-0.7-0.2-1.3-0.3-2c-2,0.3-3.9,0.5-5.9,0.8c0.2,0.6,0.3,1.2,0.5,1.8
						c1.9-0.5,3.9-1.1,5.8-1.6c-0.1-0.5-0.3-1.1-0.4-1.6c-0.1-3.9-6-3.9-6,0c0,0.4-0.1,0.8-0.1,1.1c2,0.3,3.9,0.5,5.9,0.8
						c-0.1-1.1-0.1-2.1-0.2-3.2c-0.2-3.1-5.3-4.3-5.9-0.8c-0.1,0.4-0.1,0.7-0.2,1.1c1.9,0,3.9,0,5.8,0c-0.1-0.5-0.2-0.9-0.3-1.4
						c-0.6-2.9-5.1-2.8-5.8,0c-0.1,0.3-0.1,0.6-0.2,0.9c1.9,0,3.9,0,5.8,0c-0.1-0.5-0.2-1.1-0.2-1.6c-1.9,0.5-3.9,1.1-5.8,1.6
						c0.1,0.6,0.3,1.2,0.4,1.7c0.7,2.9,5.1,2.9,5.8,0c0.2-0.9,0.4-1.7,0.6-2.6c-1.9,0-3.9,0-5.8,0c0.2,1.4,0.5,2.6,0.9,3.9
						c0.8,2.8,5,2.9,5.8,0c0.4-1.3,0.7-2.6,1.1-3.8c-1.9,0-3.9,0-5.8,0c0.2,1.1,0.2,2.2,0.1,3.3c-0.2,3.4,5.1,4.1,5.9,0.8
						c0.3-1.3,0.6-2.7,0.9-4c-2-0.3-3.9-0.5-5.9-0.8c-0.1,0.8-0.2,1.6-0.3,2.5c-0.8,3.8,4.9,5.4,5.8,1.6c0.2-1,0.5-2.1,0.7-3.1
						c-2-0.3-3.9-0.5-5.9-0.8c-0.1,0.6-0.1,1.3-0.2,1.9c-0.7,3.8,5,5.4,5.8,1.6c0.2-1.1,0.5-2.1,1-3.2c-1.8-0.8-3.7-1.5-5.5-2.3
						c-1.7,7.1-2.9,14.4-3.7,21.7c2-0.3,3.9-0.5,5.9-0.8c-0.4-2.4-0.5-4.8-0.6-7.2c-0.1-3.2-5.4-4.3-5.9-0.8
						c-0.2,1.4-0.4,2.9-0.7,4.3c2,0.3,3.9,0.5,5.9,0.8c0-4.2,0-8.3,0-12.5c-2,0-4,0-6,0c0.2,4.6,0.7,9.2,1.6,13.7
						c0.6,3.1,4.9,2.6,5.8,0c0.8-2.2,1.4-4.3,1.8-6.5c-1.9-0.5-3.9-1.1-5.8-1.6c-1,5.8-2,11.6-3,17.4c1.9,0,3.9,0,5.8,0
						c-0.6-3.7-0.8-7.4-0.7-11.2c-2,0.3-3.9,0.5-5.9,0.8c1.2,5.6,1.4,11.2,0.5,16.9c2,0.3,3.9,0.5,5.9,0.8c-0.1-2.2-0.3-4.3-0.4-6.5
						c-2,0.3-3.9,0.5-5.9,0.8c1.6,4.5,0.3,10.9,0.4,15.6c0.2,5.4,0.6,10.8,1.2,16.2c1.1,10.5,2.8,20.8,4.4,31.2
						c0.5-1.1,0.9-2.3,1.4-3.4c2.5-1.1,0.2-15.3,0-17.8c-0.4-6.6-1.6-13.7-0.3-20.2c-1.9,0-3.9,0-5.8,0c1.5,3.6,1.5,7.9,1.9,11.8
						c0.5,3.8,1,7.6,1.5,11.3c0.6,3.8,1.2,7.6,1.9,11.5c0.4,2.5,0.4,6.4,2.4,8.3c0.9,0.8,2.6,1.3,3.6,0.5c0.1,0,0.1-0.1,0.2-0.1
						c3-2.3,0.1-7.5-3-5.2c-0.1,0-0.1,0.1-0.2,0.1c1.2,0.2,2.4,0.3,3.6,0.5c-0.2-0.2-0.6-4.5-0.7-4.7c-0.3-1.6-0.6-3.2-0.8-4.8
						c-0.6-3.5-1.1-7-1.6-10.5c-0.9-6.5-0.5-14.3-3.1-20.3c-1-2.4-5.1-3.3-5.8,0c-2,10.1,0,21.2,0.6,31.4c0.3,5.1-0.1,17.4,8.5,13.5
						c1.3-0.6,1.6-2.2,1.4-3.4c-1.8-11.1-3.6-22.2-4.6-33.4c-0.5-5.1-0.8-10.2-0.9-15.3c-0.1-4.6,1-10-0.6-14.3
						c-1.1-3-6.1-2.8-5.9,0.8c0.1,2.2,0.3,4.3,0.4,6.5c0.2,3.2,5.4,4.3,5.9,0.8c1-6.8,0.9-13.4-0.5-20.1c-0.7-3.4-5.8-2.5-5.9,0.8
						c-0.1,4.3,0.2,8.5,0.9,12.8c0.5,2.9,5.3,2.8,5.8,0c1-5.8,2-11.6,3-17.4c0.6-3.7-5-5.4-5.8-1.6c-0.5,2.2-1.1,4.4-1.8,6.5
						c1.9,0,3.9,0,5.8,0c-0.8-4-1.2-8-1.4-12.1c-0.1-3.8-6-3.9-6,0c0,4.2,0,8.3,0,12.5c0,3.3,5.4,4.2,5.9,0.8
						c0.2-1.4,0.4-2.9,0.7-4.3c-2-0.3-3.9-0.5-5.9-0.8c0.1,3,0.3,5.9,0.8,8.8c0.5,3.6,5.6,2.3,5.9-0.8c0.7-6.8,1.9-13.4,3.5-20.1
						c0.8-3.2-4-5.5-5.5-2.3c-0.7,1.5-1.2,2.9-1.6,4.6c1.9,0.5,3.9,1.1,5.8,1.6c0.2-1.3,0.4-2.2,0.4-3.5c0-3.3-5.1-4.1-5.9-0.8
						c-0.2,1-0.5,2.1-0.7,3.1c1.9,0.5,3.9,1.1,5.8,1.6c0.3-1.5,0.4-2.5,0.5-4c0.1-3.4-5.1-4.1-5.9-0.8c-0.3,1.3-0.6,2.7-0.9,4
						c2,0.3,3.9,0.5,5.9,0.8c0.1-1.7-0.1-3.2-0.3-4.9c-0.4-3.1-5.1-2.6-5.8,0c-0.4,1.3-0.7,2.6-1.1,3.8c1.9,0,3.9,0,5.8,0
						c-0.4-1.3-0.7-2.6-0.9-3.9c-0.4-3-5.2-2.8-5.8,0c-0.2,0.9-0.4,1.7-0.6,2.6c1.9,0,3.9,0,5.8,0c-0.1-0.6-0.3-1.2-0.4-1.7
						c-0.9-3.8-6.3-2.1-5.8,1.6c0.1,0.5,0.2,1.1,0.2,1.6c0.4,3,5.1,2.7,5.8,0c0.1-0.3,0.1-0.6,0.2-0.9c-1.9,0-3.9,0-5.8,0
						c0.1,0.5,0.2,0.9,0.3,1.4c0.5,2.8,5.3,2.9,5.8,0c0.1-0.4,0.1-0.7,0.2-1.1c-2-0.3-3.9-0.5-5.9-0.8c0.1,1.1,0.1,2.1,0.2,3.2
						c0.2,3.2,5.2,4.3,5.9,0.8c0.2-1,0.3-1.8,0.3-2.7c-2,0-4,0-6,0c0,1.4,0.1,1.9,0.6,3.2c1.4,3.4,6.8,2.3,5.8-1.6
						c-0.2-0.6-0.3-1.2-0.5-1.8c-0.9-3.4-5.7-2.5-5.9,0.8c-0.1,1.9,0.3,3.3,1.2,5C121.8,182.8,127,179.8,125.2,176.4L125.2,176.4z"
						/>
				</g>
			</g>
			<g>
				<g>
					<path class="st0" d="M122.2,258.8c-0.2,0.2-0.4,0.3-0.7,0.5c-0.6,0.4-0.9,1.4-0.9,2.1c0,0.7,0.3,1.6,0.9,2.1
						c0.6,0.5,1.3,0.9,2.1,0.9c0.8,0,1.5-0.4,2.1-0.9c0.2-0.2,0.4-0.3,0.7-0.5c0.6-0.4,0.9-1.4,0.9-2.1c0-0.7-0.3-1.6-0.9-2.1
						c-0.6-0.5-1.3-0.9-2.1-0.9C123.5,258,122.8,258.3,122.2,258.8L122.2,258.8z"/>
				</g>
			</g>
			<g>
				<g>
					<path class="st0" d="M150.6,268.2c0.2,1.7-0.5,2.9-2,3.9c-3.1,1.7-0.9,6.2,2.3,5.5c0.4-0.1,4.6-1.3,4.8-1
						c2.2,2.5,5.5-0.3,5-2.9c-0.7-4.1-2.3-7.8-3.3-11.9c-1-4.1-1.5-8.2-1.9-12.3c-0.8-7.6-1.6-15.2-4.2-22.4c-0.9-2.5-4-2.9-5.5-0.7
						c-0.8,1.2-1.1,1.9-1.6,3.3c0.7-0.7,1.4-1.4,2.1-2.1c-0.4,0.1-0.8,0.1-1.2,0.2c-1.6,0.3-2.5,2.3-2.1,3.7c1.5,6,3.1,12,4.6,18.1
						c0.8,3.2,1.4,6.4,1.9,9.6c0.2,1.7,0.4,3.4,0.4,5.1c0,2.4-0.7,3.3,1.7,4.8c0.5,0.9,1,1.7,1.5,2.6c-0.8-5.7-0.1-11.7-0.7-17.4
						c-0.2-2.6-0.5-5.2-0.9-7.7c-0.4-3.2-2-8.6-0.2-11.6c-0.9,0.5-1.7,1-2.6,1.5c0.4,0,1.9,5.4,2.1,6.2c0.6,2.5,0.9,5.1,1.2,7.7
						c0.6,5.1,1.1,10.1,1,15.2c2-0.3,3.9-0.5,5.9-0.8c-3.8-22.6-8.1-45-12.4-67.5c-0.7-3.4-5.8-2.5-5.9,0.8
						c-0.1,2.2-0.2,4.3-0.5,6.5c1.5-0.9,3-1.7,4.5-2.6c0.1,0.2,0.3,0.3,0.4,0.5c-1.9,0.5-3.9,1.1-5.8,1.6c2.3,8.1,3.9,16.4,4.5,24.8
						c1.9-0.5,3.7-1,5.6-1.5c-1.7-3-0.1-8.8,0.3-12c-2,0-4,0-6,0c0.2,2.5,0,4.6-0.9,7c1.9,0,3.9,0,5.8,0c-0.2-1.1-0.4-2.1-0.6-3.2
						c-0.5-2.7-4.2-2.7-5.5-0.7c0,0.1-0.1,0.1-0.1,0.2c-0.8,1.2-0.4,2.6,0.5,3.6c0.7,0.8,1.6,1.2,2.7,1.2c1,0,2.2-0.5,2.6-1.5
						c0.4-0.9,0.5-1.7,0.8-2.6c-0.7,0.7-1.4,1.4-2.1,2.1c0.2,0,0.3-0.1,0.5-0.1c-1.2-0.7-2.5-1.4-3.7-2.1c3.5,9,9.2,18.9,8.2,28.8
						c2,0,4,0,6,0c-0.9-7.8-1.6-15.6-2.1-23.4c-2,0.3-3.9,0.5-5.9,0.8c0.9,3.2,1.3,6.4,1.3,9.7c2-0.3,3.9-0.5,5.9-0.8
						c-1.3-5.5-2.6-11-3.8-16.5c-0.5-2.4-1.1-4.8-1.5-7.1c-0.6-2.8-2-7.2-1.6-10c-0.7,0.7-1.4,1.4-2.1,2.1
						c-0.7,0.2,1.9,18.9,2.1,20.6c0.4,3.8,6,3.9,6,0c0-4.1-0.2-8.1-0.9-12.2c-0.7-4.3-2.9-9-2.2-13.4c-1.9,0-3.9,0-5.8,0
						c1,2.8,1.5,5.5,1.4,8.5c0,3.9,5.8,3.8,6,0c0.4-7-5.5-10.1-11.2-12c-1.5-0.5-3.4,0.6-3.7,2.1c-0.5,2.2-0.7,4.4-0.6,6.6
						c1.7-0.7,3.4-1.4,5.1-2.1c-0.2-0.6-0.3-1.3-0.5-1.9c-2,0.3-3.9,0.5-5.9,0.8c0.2,0.8,0.4,1.7,0.6,2.5c1.9-0.5,3.9-1.1,5.8-1.6
						c-1.3-3.4-2.3-6.9-3.3-10.4c-1,1.3-1.9,2.5-2.9,3.8c2.3,0.1,4.4,0.6,6.6,1.3c3.7,1.2,5.2-4.6,1.6-5.8c-2.7-0.9-5.4-1.4-8.2-1.5
						c-2-0.1-3.4,2-2.9,3.8c1,3.5,2,7,3.3,10.4c1.4,3.5,6.7,2.3,5.8-1.6c-0.2-0.8-0.4-1.7-0.6-2.5c-0.8-3.5-5.6-2.4-5.9,0.8
						c-0.2,2.5,0.6,4.4,2.3,6.2c1.7,1.9,5.2,0.5,5.1-2.1c-0.1-1.8,0-3.2,0.4-5c-1.2,0.7-2.5,1.4-3.7,2.1c3,1,7.1,2.2,6.8,6.2
						c2,0,4,0,6,0c0-3.5-0.5-6.8-1.7-10.1c-0.9-2.5-5.3-3.2-5.8,0c-0.7,3.9,0.1,7.2,1,11c1.3,5.3,1.9,10.7,1.8,16.2c2,0,4,0,6,0
						c-0.7-6.8-0.7-14.2-2.2-20.8c-0.8-3.5-3.5-6.9-7.5-5.6c-0.9,0.3-2,1.1-2.1,2.1c-0.7,5.3,1.2,11.6,2.4,16.8
						c1.4,6.7,3.1,13.4,4.6,20.1c0.8,3.3,5.9,2.5,5.9-0.8c0-3.9-0.4-7.6-1.5-11.3c-0.9-3.2-6.1-2.7-5.9,0.8
						c0.5,7.8,1.2,15.6,2.1,23.4c0.4,3.8,5.6,3.9,6,0c1-10.6-4.7-20.7-8.4-30.4c-0.6-1.5-2-2.6-3.7-2.1c-2.2,0.6-2.5,2.6-2.8,3.4
						c0.9-0.5,1.7-1,2.6-1.5c0.5,0.2,1,0.4,1.5,0.6c0.2,1.2,0.3,2.4,0.5,3.6c0-0.1,0.1-0.1,0.1-0.2c-1.8-0.2-3.7-0.5-5.5-0.7
						c0.2,1.1,0.4,2.1,0.6,3.2c0.6,3.1,4.9,2.6,5.8,0c1-2.9,1.4-5.6,1.1-8.6c-0.3-3.9-5.6-3.8-6,0c-0.5,4.9-2,10.5,0.6,15.1
						c1.4,2.5,5.8,1.5,5.6-1.5c-0.7-9-2.2-17.8-4.7-26.4c-1.1-3.7-6.9-2.1-5.8,1.6c0.4,1.6,1,2.2,2.3,3.1c2.1,1.5,4.3-0.6,4.5-2.6
						c0.3-2.2,0.4-4.3,0.5-6.5c-2,0.3-3.9,0.5-5.9,0.8c4.4,22.5,8.6,44.9,12.4,67.5c0.6,3.4,5.8,2.5,5.9-0.8
						c0.2-7.6-0.6-15.4-2.1-22.8c-0.9-4.4-2.6-12.1-8.2-12.2c-1.1,0-2,0.6-2.6,1.5c-2,3.4-1.6,7.7-1.1,11.4
						c0.6,4.9,1.3,9.7,1.7,14.7c0.3,4.3-0.6,9.5,0.4,13.7c0.5,2.1,2,3.6,4.2,3.4c11.9-0.8-0.9-39.1-2.4-45.1
						c-0.7,1.2-1.4,2.5-2.1,3.7c0.4-0.1,0.8-0.1,1.2-0.2c1.1-0.2,1.8-1.2,2.1-2.1c0.3-0.6,0.7-1.2,1-1.9c-1.8-0.2-3.7-0.5-5.5-0.7
						c2.9,7.9,3.4,16.1,4.4,24.4c0.9,7.7,3.8,14.7,5,22.2c1.7-1,3.3-1.9,5-2.9c-2.8-3.2-7.1-1.3-10.7-0.5c0.8,1.8,1.5,3.7,2.3,5.5
						c3.8-2,5.7-6.5,4.8-10.6C155.5,262.8,149.8,264.4,150.6,268.2L150.6,268.2z"/>
				</g>
			</g>
			<g>
				<g>
					<path class="st0" d="M120.5,164.9c-0.4,1.9-1,3.3-2.1,4.9c1.9,0.5,3.7,1,5.6,1.5c-1.8-16-2.5-32.5-2.1-48.6
						c0.1-3.4-5.1-4.1-5.9-0.8c-0.2,0.9-0.5,1.9-0.7,2.8c2,0.3,3.9,0.5,5.9,0.8c0.5-3.8,1.5-7.3,3.1-10.8c1.6-3.5-3.1-6.3-5.2-3
						c-1,1.5-1.9,3-2.9,4.6c1.7,1,3.5,2,5.2,3c1.5-3,3-5.9,4.5-8.9c-0.9,0.5-1.7,1-2.6,1.5c5.2,0.1,11.5,0.2,13.9,5.7
						c2,4.7,1.6,10.9,2.1,15.9c0.3,3.2,5,4.2,5.9,0.8c0.5-1.7,0.7-3.2,0.6-5c-0.2-3.9-5.7-3.8-6,0c-0.5,6.4,1.6,13-1,19.1
						c-2.7,6.1-8.1,10.4-13.3,14.4c1.4,1.4,2.7,2.7,4.1,4.1c3.1-4.5,3.2-9.8,0.5-14.5c-1.4-2.5-5.8-1.5-5.6,1.5
						c0.2,2.6-0.1,4.9-1.2,7.4c1.8,0.2,3.7,0.5,5.5,0.7c-1.8-8-1.4-16.7-1.3-24.9c0.2-8.2,1.4-16.2,3-24.2c0.6-2.8-2.8-5.2-5-2.9
						c-4.8,4.9-4.9,14-5.6,20.5c-0.4,3.6,4.8,3.8,5.9,0.8c1.1-3.1,1.9-6.8,3.6-9.6c0.2-0.5,0.4-1.1,0.6-1.6c2-1.4,3-1.2,3,0.7
						c0.9,1.2,0.6,3.9,0.7,5.3c0.7,6.8,1.6,14.4,0.8,21.2c-0.3,2.3-1,4.3-2.6,6c0.2,0.2,0.4,0.5,0.6,0.7c-0.2-1-0.3-1.9-0.4-2.9
						c-0.4-3.3-0.7-6.6-0.9-9.9c-0.4-7.6,0.1-14.9,2.6-22.1c-1.8,0.2-3.7,0.5-5.5,0.7c1.2,2.4,0.5,5.7,0.4,8.2
						c-0.1,2.6-0.1,5.2-0.1,7.8c0.1,4.6,0.3,9.1,0.8,13.6c0.3,3,0.3,6,1.9,8.6c1.3,2.1,2.8,3.7,3.7,6.1c0.4,1,0.7,2.1,0.9,3.2
						c-0.1-1.3-0.6-2.3-1.6-3.1c-1.2,1.6-2.4,3.1-3.6,4.7c1.1,0.4,2,1,2.7,1.9c1.7,1.8,5.3,0.5,5.1-2.1c-0.1-1.6-0.2-3.3-0.3-4.9
						c-2,0.3-3.9,0.5-5.9,0.8c1.5,4.7,0.6,9.6,2.6,14.2c1.6-1.2,3.1-2.4,4.7-3.6c-2-1.6-2.9-3.2-3.2-5.7c-1.9,0.5-3.9,1.1-5.8,1.6
						c2.3,6.5,4.1,13.1,5.5,19.9c1.8-0.8,3.7-1.5,5.5-2.3c-0.2-0.7-0.4-1.4-0.7-2.1c-1.9,0.5-3.7,1-5.6,1.5c1.2,2.3,2.4,4.6,3.4,7
						c1.2,2.8,6.2,2.9,5.9-0.8c-0.2-2.3-0.4-4.6-0.6-6.9c-1.7,0.7-3.4,1.4-5.1,2.1c0.6,0.5,1.3,1,1.9,1.5c1.9,1.5,4.2,0.9,5-1.3
						c0.3-0.8,0.6-1.5,0.9-2.3c-1.8,0.2-3.7,0.5-5.5,0.7c1.2,2.3,2,4.5,2.6,7c1.9-0.5,3.9-1.1,5.8-1.6c-0.4-1.4-0.8-2.8-1.2-4.2
						c-1.8,0.8-3.7,1.5-5.5,2.3c0.3,1.1,0.7,2.3,1,3.4c1.3-1,2.5-1.9,3.8-2.9c-2.9-0.7-4.3-2.2-5.5-4.8c-0.5-1.2-1.8-2.8-2.1-4
						c-0.4-1.7,0.7-4.8,0.9-6.6c0.4-2.8,0.7-5.6,1.1-8.5c0.3-2.7,0.3-5.8,1.5-8.3c0.7-1.7,2.1-2.9,2.8-4.6c1.4-3.6,0.1-7.6,0-11.3
						c-2,0.3-3.9,0.5-5.9,0.8c1.7,11.1,3.3,22.1,3.7,33.3c0.2,5.9-1.9,18.8,4.9,21.6c0.9,0.4,2.3-0.1,2.9-0.8
						c2.1-2.2,1.3-3.8,0.9-6.5c-1.8,0.8-3.7,1.5-5.5,2.3c0.3,0.6,0.6,1.3,0.8,1.9c1.4,3.2,6.2,0.9,5.5-2.3c-0.6-2.4-1-4.8-1.3-7.2
						c-2,0.3-3.9,0.5-5.9,0.8c0.3,1,0.7,2,1,3c1.2,3.7,6.7,2.2,5.8-1.6c-1.4-5.8-2.3-11.6-2.7-17.5c-0.3-3.8-6.3-3.9-6,0
						c0.5,6.4,1.4,12.8,2.9,19.1c1.9-0.5,3.9-1.1,5.8-1.6c-0.3-1-0.7-2-1-3c-1-3-6.3-2.7-5.9,0.8c0.3,3,0.8,5.9,1.5,8.8
						c1.8-0.8,3.7-1.5,5.5-2.3c-0.3-0.6-0.6-1.3-0.8-1.9c-1.5-3.4-5.9-0.7-5.5,2.3c-0.2,1,0.1,1.2,0.6,0.6c1-0.3,1.9-0.5,2.9-0.8
						c0,0-0.3-6-0.3-6.9c-0.1-1.7,0-3.4-0.1-5.1c-0.1-4.5-0.3-8.9-0.7-13.3c-0.8-8.5-2-17-3.3-25.4c-0.5-3.4-6-2.5-5.9,0.8
						c0,2.3,1,5.1,0.7,7.4c-0.4,2.8-2.6,4.3-3.4,6.8c-1.8,5.4-1.7,11.9-2.4,17.5c-0.3,2.7-1.5,6.2-1,8.9c0.3,1.9,2.2,4.3,3,6
						c1.9,3.8,4.7,6.3,8.9,7.3c1.7,0.4,4.1-0.8,3.8-2.9c-0.3-2.4-0.8-4.3-1.8-6.5c-1.4-3.1-6.4-0.9-5.5,2.3c0.4,1.4,0.8,2.8,1.2,4.2
						c1,3.7,6.6,2.2,5.8-1.6c-0.7-3-1.7-5.7-3.2-8.4c-1.3-2.5-4.6-1.5-5.5,0.7c-0.3,0.8-0.6,1.5-0.9,2.3c1.7-0.4,3.3-0.9,5-1.3
						c-0.6-0.5-1.3-1-1.9-1.5c-1.8-1.4-5.4-0.8-5.1,2.1c0.2,2.3,0.4,4.6,0.6,6.9c2-0.3,3.9-0.5,5.9-0.8c-1.2-2.9-2.5-5.7-4-8.5
						c-1.3-2.5-6-1.5-5.6,1.5c0.2,1.9,0.6,3.4,1.5,5.1c1.6,3.2,6.1,0.8,5.5-2.3c-1.4-6.8-3.2-13.4-5.5-19.9
						c-1.3-3.7-6.3-2.2-5.8,1.6c0.5,3.4,2.1,6.2,4.8,8.4c2.7,2.2,6.1-0.5,4.7-3.6c-1.7-3.9-0.7-8.7-2-12.8c-1-3.1-6.1-2.7-5.9,0.8
						c0.1,1.6,0.2,3.3,0.3,4.9c1.7-0.7,3.4-1.4,5.1-2.1c-1.2-1.3-2.3-2.1-3.9-2.9c-3.1-1.5-5.9,2.1-3.6,4.7
						c2.2,2.6,7.6,6.5,10.9,3.2c3.2-3.3-0.4-10.5-2.3-13.6c-2.2-3.6-3-5.2-3.4-9.6c-0.4-3.9-0.6-7.8-0.6-11.7
						c-0.1-6.3,1.8-14.2-1.1-20c-1.3-2.5-4.7-1.6-5.5,0.7c-4,11.5-3.9,25.3-1.5,37.1c0.7,3.6,3.3,6.3,7.2,4.6c4-1.7,6-6.3,6.6-10.3
						c1-6.4,0.1-13.5-0.4-20c-0.4-4.6-0.2-11.2-3.5-14.9c-9.1-10.1-14.6,10.2-16.5,15.6c2,0.3,3.9,0.5,5.9,0.8
						c0.5-4.4,0.5-12.9,3.9-16.2c-1.7-1-3.3-1.9-5-2.9c-3.4,16.6-5.4,35.5-1.7,52.3c0.5,2.4,4.4,3.1,5.5,0.7c1.5-3.4,2.3-6.7,2-10.4
						c-1.9,0.5-3.7,1-5.6,1.5c1.7,2.9,1.3,5.8-0.5,8.5c-1.6,2.4,1.7,5.9,4.1,4.1c5.9-4.6,12-9.3,15.3-16.1c3.6-7.5,1.4-14.7,2-22.5
						c-2,0-4,0-6,0c0.2,1.2,0.1,2.3-0.4,3.4c2,0.3,3.9,0.5,5.9,0.8c-0.6-6.7,0-15.8-4.3-21.5c-4.2-5.4-11.3-6.1-17.6-6.1
						c-1,0-2.1,0.6-2.6,1.5c-1.5,3-3,5.9-4.5,8.9c-1.7,3.4,3.1,6.3,5.2,3c1-1.5,1.9-3,2.9-4.6c-1.7-1-3.5-2-5.2-3
						c-2,4.5-3.3,8.9-3.9,13.8c-0.4,3.4,5.1,4,5.9,0.8c0.2-0.9,0.5-1.9,0.7-2.8c-2-0.3-3.9-0.5-5.9-0.8c-0.4,16.1,0.2,32.6,2.1,48.6
						c0.3,2.9,3.8,4.1,5.6,1.5c1.4-2,2.2-4,2.7-6.4C127.1,162.7,121.3,161.1,120.5,164.9L120.5,164.9z"/>
				</g>
			</g>
			<g>
				<g>
					<path class="st0" d="M141.3,176.2c-0.2,0.3-0.3,0.6-0.5,0.9c1.8,0.2,3.7,0.5,5.5,0.7c-1.2-2.8-1.6-5.5-1.4-8.5
						c-2,0.3-3.9,0.5-5.9,0.8c0.7,2.4,1.4,4.8,1.7,7.2c0.2,1.6,0.4,3.2,0.5,4.8c-0.4,2.2,0,2.4,1.1,0.8c1,0.3,1.9,0.5,2.9,0.8
						c-1.4-1.1,0.1-9.7,0.2-11.2c0.2-3.6,0-7.1-0.6-10.6c-1.8,0.8-3.7,1.5-5.5,2.3c1.9,2.9,3.8,5.9,5.7,8.8c1.9,3,6,1,5.5-2.3
						c-0.8-4.7-1.6-9.4-2.4-14c-1.8,0.8-3.7,1.5-5.5,2.3c1.1,2,1.5,3.4,1.7,5.7c1.7-0.7,3.4-1.4,5.1-2.1c-7.6-7.9-7-20.4-11.5-30
						c-1.4-2.8-5.5-1.3-5.6,1.5c-0.1,4.2,0.1,8.3,0.6,12.5c0.5,3.7,5.9,4,6,0c0.1-3.2,0.2-6.3,1-9.4c-1.9,0-3.9,0-5.8,0
						c1.2,3.3,2.5,6.6,3.7,9.9c0.9,2.5,5.2,3.2,5.8,0c0.4-2.5,0.8-5,1.3-7.5c-1.9,0-3.9,0-5.8,0c0.9,2.2,1.6,4.3,1.9,6.6
						c0.5,3.8,5.7,3.9,6,0c0.2-1,0.2-2,0-3c-2,0.3-3.9,0.5-5.9,0.8c0.2,1.1,0.5,2.1,0.7,3.2c1.8-0.8,3.7-1.5,5.5-2.3
						c-0.2-0.5-0.3-0.9-0.5-1.4c-1.9,0.5-3.9,1.1-5.8,1.6c1.1,3.2,1.8,6.3,2.1,9.7c0.3,3.8,6.3,3.9,6,0c-0.3-3.9-1-7.6-2.3-11.3
						c-1.3-3.7-6.4-2.2-5.8,1.6c0.2,1.3,0.4,1.7,1.1,2.8c1.8,2.9,6.3,1,5.5-2.3c-0.2-1.1-0.5-2.1-0.7-3.2c-0.8-3.2-6.1-2.6-5.9,0.8
						c0.2,1,0.1,2,0,3c2,0,4,0,6,0c-0.4-2.9-1-5.5-2.1-8.2c-1-2.4-5.2-3.3-5.8,0c-0.4,2.5-0.8,5-1.3,7.5c1.9,0,3.9,0,5.8,0
						c-1.2-3.3-2.5-6.6-3.7-9.9c-1-2.6-5-3-5.8,0c-1,3.6-1.2,7.2-1.3,11c2,0,4,0,6,0c-0.5-4.2-0.7-8.3-0.6-12.5
						c-1.9,0.5-3.7,1-5.6,1.5c5,10.3,4.1,22.5,12.5,31.2c1.7,1.8,5.3,0.5,5.1-2.1c-0.2-3.2-1-5.9-2.5-8.7c-1.7-3.2-6-0.9-5.5,2.3
						c0.8,4.7,1.6,9.4,2.4,14c1.8-0.8,3.7-1.5,5.5-2.3c-1.9-2.9-3.8-5.9-5.7-8.8c-1.9-3-6.1-1-5.5,2.3c1,5.7,0,11.4,0,17.2
						c0,2.8-0.1,7.6,3.7,8.1c8.4,1.1,3-17,2-20.3c-1-3.4-5.6-2.5-5.9,0.8c-0.3,3.6,0.2,6.8,1.6,10.1c0.9,2.2,4.1,3.2,5.5,0.7
						c0.2-0.3,0.3-0.6,0.5-0.9C148.3,175.8,143.1,172.8,141.3,176.2L141.3,176.2z"/>
				</g>
			</g>
		</g>
		<g>
			<g>
				<g>
					<g>
						<g>
							<g>
								<g>
									<g>
										<path d="M39.9,277.3c3.8,0.2,7.5,0.4,11.2,0.9c0.8,0.1,0.8-1.1,0-1.2c-3.7-0.4-7.5-0.7-11.2-0.9
											C39.2,276,39.2,277.2,39.9,277.3L39.9,277.3z"/>
									</g>
								</g>
								<g>
									<g>
										<path d="M40.4,276.8c1.3-21.6,3-43.1,4.8-64.6c0.1-0.8-1.1-0.8-1.2,0c-1.8,21.5-3.5,43.1-4.8,64.6
											C39.2,277.5,40.4,277.5,40.4,276.8L40.4,276.8z"/>
									</g>
								</g>
							</g>
							<g>
								<g>
									<g>
										<path d="M54.9,137.3c0.1-7.5,0.1-15.7,3.7-22.5c4.1-7.7,12-8.4,19.8-8.2c0.8,0,0.8-1.2,0-1.2c-7.1-0.2-14.6,0.3-19.3,6.3
											c-5.4,7-5.3,17.3-5.4,25.6C53.7,138,54.9,138,54.9,137.3L54.9,137.3z"/>
									</g>
								</g>
								<g>
									<g>
										<g>
											<path d="M52.4,277.2c2.4-21.8,4.5-43.7,7.3-65.5c0.1-0.8-1.1-0.8-1.2,0c-2.8,21.8-4.9,43.6-7.3,65.5
												C51.1,278,52.3,278,52.4,277.2L52.4,277.2z"/>
										</g>
									</g>
									<g>
										<g>
											<path d="M59.5,212.6c4-14.2,7.1-28.7,10.5-43.1c0.2-0.8-1-1.1-1.2-0.3c-3.3,14.4-6.4,28.9-10.5,43.1
												C58.2,213,59.3,213.3,59.5,212.6L59.5,212.6z"/>
										</g>
									</g>
									<g>
										<g>
											<path d="M62.6,156.2c2.1,5.2,4.1,11.3,9.9,13.3c0.7,0.2,1-0.9,0.3-1.2c-5.4-1.8-7.2-7.7-9.1-12.5
												C63.5,155.2,62.3,155.5,62.6,156.2L62.6,156.2z"/>
										</g>
									</g>
									<g>
										<g>
											<path d="M70.1,169.2c-0.1-0.2,0-0.4,0.1-0.5c0.4-0.6-0.6-1.2-1-0.6c-0.3,0.4-0.4,0.9-0.2,1.5
												C69.1,170.3,70.3,170,70.1,169.2L70.1,169.2z"/>
										</g>
									</g>
									<g>
										<g>
											<path d="M45,213c1.7-25.6,6.1-51,9.7-76.4c0.1-0.8-1-1.1-1.2-0.3c-3.6,25.5-8,51-9.7,76.7C43.8,213.8,45,213.8,45,213
												L45,213z"/>
										</g>
									</g>
									<g>
										<g>
											<path d="M68.7,262.5c3.1-16.2,5.6-32.4,7.4-48.8c0.1-0.8-1.1-0.8-1.2,0c-1.8,16.3-4.2,32.4-7.3,48.5
												C67.4,263,68.5,263.3,68.7,262.5L68.7,262.5z"/>
										</g>
									</g>
									<g>
										<g>
											<path d="M76.1,214.9c0.8-7.6-0.3-15-1.4-22.4c-1.1-7.9-2.3-15.9-3.4-23.8c-0.1-0.8-1.3-0.4-1.2,0.3
												c1,7.3,2.1,14.6,3.1,21.9c1.1,8,2.5,15.9,1.6,24C74.8,215.7,76,215.7,76.1,214.9L76.1,214.9z"/>
										</g>
									</g>
								</g>
							</g>
						</g>
						<g>
							<g>
								<g>
									<g>
										<g>
											<path d="M160.1,276.1c-3.8,0.2-7.5,0.4-11.2,0.9c-0.8,0.1-0.8,1.3,0,1.2c3.7-0.4,7.5-0.7,11.2-0.9
												C160.8,277.2,160.8,276,160.1,276.1L160.1,276.1z"/>
										</g>
									</g>
									<g>
										<g>
											<path d="M160.8,276.8c-1.3-21.6-3-43.1-4.8-64.6c-0.1-0.8-1.3-0.8-1.2,0c1.8,21.5,3.5,43.1,4.8,64.6
												C159.6,277.5,160.8,277.5,160.8,276.8L160.8,276.8z"/>
										</g>
									</g>
								</g>
								<g>
									<g>
										<g>
											<path d="M146.3,137.3c-0.1-8.4-0.1-18.6-5.5-25.6c-4.7-6.1-12.3-6.5-19.4-6.3c-0.8,0-0.8,1.2,0,1.2
												c7.9-0.2,15.7,0.5,19.9,8.2c3.7,6.7,3.6,15,3.7,22.5C145.1,138,146.3,138,146.3,137.3L146.3,137.3z"/>
										</g>
									</g>
									<g>
										<g>
											<g>
												<path d="M148.8,277.2c-2.4-21.8-4.5-43.7-7.3-65.5c-0.1-0.8-1.3-0.8-1.2,0c2.8,21.8,4.9,43.6,7.3,65.5
													C147.7,278,148.9,278,148.8,277.2L148.8,277.2z"/>
											</g>
										</g>
										<g>
											<g>
												<path d="M141.6,212.3c-4-14.2-7.1-28.7-10.5-43.1c-0.2-0.8-1.3-0.4-1.2,0.3c3.3,14.4,6.4,28.9,10.5,43.1
													C140.7,213.3,141.8,213,141.6,212.3L141.6,212.3z"/>
											</g>
										</g>
										<g>
											<g>
												<path d="M136.2,155.9c-1.9,4.8-3.7,10.6-9.1,12.5c-0.7,0.2-0.4,1.4,0.3,1.2c5.8-2,7.8-8.1,9.9-13.3
													C137.7,155.5,136.5,155.2,136.2,155.9L136.2,155.9z"/>
											</g>
										</g>
										<g>
											<g>
												<path d="M131.1,169.5c0.1-0.5,0.1-1-0.2-1.5c-0.4-0.6-1.5,0-1,0.6c0.1,0.2,0.2,0.3,0.1,0.5
													C129.7,170,130.9,170.3,131.1,169.5L131.1,169.5z"/>
											</g>
										</g>
										<g>
											<g>
												<path d="M156.2,213c-1.7-25.7-6.1-51.2-9.7-76.7c-0.1-0.8-1.3-0.4-1.2,0.3c3.6,25.4,7.9,50.8,9.7,76.4
													C155,213.8,156.2,213.8,156.2,213L156.2,213z"/>
											</g>
										</g>
										<g>
											<g>
												<path d="M132.5,262.2c-3.1-16-5.6-32.2-7.3-48.5c-0.1-0.8-1.3-0.8-1.2,0c1.8,16.4,4.2,32.6,7.4,48.8
													C131.5,263.3,132.6,263,132.5,262.2L132.5,262.2z"/>
											</g>
										</g>
										<g>
											<g>
												<path d="M125.1,214.9c-0.9-8.1,0.5-16,1.6-24c1-7.3,2.1-14.6,3.1-21.9c0.1-0.8-1-1.1-1.2-0.3
													c-1.1,7.9-2.3,15.9-3.4,23.8c-1.1,7.5-2.2,14.9-1.4,22.4C124,215.7,125.2,215.7,125.1,214.9L125.1,214.9z"/>
											</g>
										</g>
									</g>
								</g>
							</g>
						</g>
					</g>
				</g>
			</g>
			<g>
				<g>
					<path d="M79.6,262.2c2.8-27.5,2.8-55.2,3.3-82.8c0.3-13.7,0.6-27.3,1.5-40.9c0.7-11.4,1.7-23.3-5.5-32.9c-0.5-0.6-1.5,0-1,0.6
						c8.2,10.7,5.8,24.6,5.1,37.2c-0.8,13.3-1.1,26.6-1.3,40c-0.5,26.3-0.6,52.7-3.3,78.9C78.3,263,79.5,263,79.6,262.2L79.6,262.2z
						"/>
				</g>
			</g>
			<g>
				<g>
					<path d="M121.5,262.2c-2.6-26.2-2.8-52.6-3.3-78.9c-0.2-13-0.5-26-1.2-39c-0.7-12.8-3.3-27.2,5-38.1c0.5-0.6-0.6-1.2-1-0.6
						c-7.1,9.3-6.3,20.9-5.6,31.9c0.9,14,1.3,27.9,1.6,41.9c0.5,27.6,0.6,55.3,3.3,82.8C120.4,263,121.6,263,121.5,262.2
						L121.5,262.2z"/>
				</g>
			</g>
			<g>
				<g>
					<path d="M120.2,262.4c-0.1,1.5,1,2.1,2.4,2.2c3,0.2,6.3-0.3,9.2-0.5c0.8,0,0.8-1.2,0-1.2c-1.7,0.1-3.5,0.2-5.2,0.3
						c-0.7,0-5.3,0.8-5.2-0.8C121.4,261.6,120.2,261.6,120.2,262.4L120.2,262.4z"/>
				</g>
			</g>
			<g>
				<g>
					<path d="M68.2,263.2c2.5,0.5,5.3,1.4,7.8,1.4c1.5,0,2.7-0.8,2.8-2.3c0.1-0.8-1.1-0.8-1.2,0c-0.3,2.3-7.6,0-9.1-0.3
						C67.8,261.9,67.5,263,68.2,263.2L68.2,263.2z"/>
				</g>
			</g>
			<g>
				<g>
					<path d="M72.6,169.7c1.9,0.5,3.8,0.8,5.7,1c1.4,0.1,2.7,0.1,3.7-0.9c0.5-0.5-0.3-1.4-0.8-0.8c-1,1-2.8,0.6-4.1,0.5
						c-1.4-0.2-2.8-0.5-4.1-0.8C72.1,168.3,71.8,169.5,72.6,169.7L72.6,169.7z"/>
				</g>
			</g>
			<g>
				<g>
					<path d="M117.9,171.2c4.5,1.3,9.1,0.2,12.5-2.8c0.6-0.5-0.3-1.4-0.8-0.8c-3.2,2.8-7.3,3.7-11.4,2.5
						C117.4,169.9,117.1,171,117.9,171.2L117.9,171.2z"/>
				</g>
			</g>
		</g>
		<g>
			<g>
				<path class="st0" d="M131,138c7.7,0,7.7-12,0-12C123.3,126,123.3,138,131,138L131,138z"/>
			</g>
		</g>
		<g>
			<g>
				<path class="st0" d="M148.6,189.3c-0.1-2.3-0.3-4.6-0.4-6.9c-0.7,0.2-1.5,0.4-2.2,0.6c0.6,1.1,1.3,2.2,1.9,3.4
					c0.6,1,2.3,0.6,2.2-0.6c-0.3-3.3-0.8-6.5-1.6-9.7c-0.7,0.3-1.5,0.6-2.2,0.9c1.3,2.2,2.3,4.5,2.9,7c0.4,1.5,2.6,0.9,2.3-0.6
					c-0.5-2.4-0.9-4.8-1.4-7.2c-0.7,0.3-1.5,0.6-2.2,0.9c1.2,2.3,2.1,4.6,2.7,7.1c0.3,1.3,2.4,1.1,2.4-0.3c-0.2-2.9-0.8-5.7-1.8-8.4
					c-0.6-1.4-2.9-0.8-2.3,0.6c1,2.5,1.6,5.1,1.8,7.8c0.8-0.1,1.6-0.2,2.4-0.3c-0.7-2.7-1.7-5.2-2.9-7.7c-0.7-1.3-2.4-0.3-2.2,0.9
					c0.5,2.4,0.9,4.8,1.4,7.2c0.8-0.2,1.5-0.4,2.3-0.6c-0.6-2.7-1.7-5.2-3.1-7.5c-0.7-1.2-2.5-0.4-2.2,0.9c0.8,3,1.3,6,1.6,9.1
					c0.7-0.2,1.5-0.4,2.2-0.6c-0.6-1.1-1.3-2.2-1.9-3.4c-0.6-1-2.3-0.6-2.2,0.6c0.1,2.3,0.3,4.6,0.4,6.9
					C146.2,190.9,148.6,190.9,148.6,189.3L148.6,189.3z"/>
			</g>
		</g>
		<g>
			<g>
				<path class="st0" d="M150.8,172.6c0-0.1,0-0.1,0-0.2c-0.2-0.6-0.9-1-1.5-0.8c-0.1,0-0.1,0-0.2,0.1c-0.5,0.2-0.9,0.6-0.9,1.2
					c0.3,5.3,1.9,10.3,2.6,15.4c0.6,4.8-0.8,10.1,0.7,14.6c0.4,1.2,2.5,1.1,2.4-0.3c-0.2-2.2-0.5-4.4-0.7-6.5
					c-0.8,0.1-1.6,0.2-2.4,0.3c0.5,1.5,0.9,3,1.4,4.5c0.4,1.3,2.3,1.1,2.4-0.3c0-1.6-0.2-2.7-0.7-4.2c-0.5-1.4-2.9-0.8-2.3,0.6
					c0.6,1.1,0.8,2.3,0.6,3.6c0.8-0.1,1.6-0.2,2.4-0.3c-0.5-1.5-0.9-3-1.4-4.5c-0.4-1.2-2.5-1.1-2.4,0.3c0.2,2.2,0.5,4.4,0.7,6.5
					c0.8-0.1,1.6-0.2,2.4-0.3c-1.5-4.3,0-9.7-0.7-14.3c-0.2-1.6-2.6-14.2-3.3-14c-0.5-0.3-1-0.6-1.5-0.8c0,0.1,0,0.1,0,0.2
					C148.9,174.7,151.2,174.1,150.8,172.6L150.8,172.6z"/>
			</g>
		</g>
		<g>
			<g>
				<path class="st0" d="M126.8,177.9c0,0-0.2-0.2-0.2-0.2c0.1,0.1-0.1-0.2,0,0c-0.1-0.2,0,0,0-0.1c0,0,0-0.3,0-0.1
					c0-0.4,0.1-0.4,0.4-0.6c-0.5-0.1-1.1-0.3-1.6-0.4c0.2,0.5,0.2,1,0.2,1.5c-0.1,1.3,1.7,1.5,2.2,0.6c0.3-0.5,0.6-0.9,0.9-1.4
					c-0.7-0.1-1.5-0.2-2.2-0.3c0.1,0.4,0.1,0.6-0.1,1c-0.8,1.3,1.3,2.5,2.1,1.2c0.5-0.9,0.6-1.9,0.3-2.8c-0.3-1-1.6-1.2-2.2-0.3
					c-0.3,0.5-0.6,0.9-0.9,1.4c0.7,0.2,1.5,0.4,2.2,0.6c0.1-0.9-0.1-1.8-0.5-2.7c-0.3-0.6-1.1-0.7-1.6-0.4c-1.8,0.8-2.2,3.6-0.7,4.8
					c0.5,0.4,1.2,0.5,1.7,0C127.2,179.1,127.3,178.3,126.8,177.9L126.8,177.9z"/>
			</g>
		</g>
		<g>
			<g>
				<path class="st0" d="M54.7,210.3c0.1,1.6,0.3,3.3,0.4,4.9c0.1,1.5,2.4,1.6,2.4,0c-0.1-1.5,0.1-3,0.5-4.5c-0.8,0-1.5,0-2.3,0
					c0.5,1.2,0.7,2.5,0.7,3.8c0.1,1.3,1.9,1.6,2.4,0.3c0.3-1.1,0.3-1.1,0.4-2.3c0-1.4-1.9-1.5-2.4-0.3c-0.3,0.8-0.3,0.8-0.2,1.7
					c0.2,1.2,2,1.8,2.4,0.3c0.3-1.3,0.3-1.2,0.2-2.5c-0.2-1.5-2.2-1.5-2.4,0c-0.8,6.8-1.3,13.7-1.4,20.6c0,1.5,2.4,1.5,2.4,0
					c0.1-6.9,0.5-13.7,1.4-20.6c-0.8,0-1.6,0-2.4,0c0,0.6-0.1,1.3-0.1,1.9c0.8,0.1,1.6,0.2,2.4,0.3c0-0.4,0.1-0.7,0.1-1.1
					c-0.8-0.1-1.6-0.2-2.4-0.3c-0.1,0.6-0.2,1.1-0.3,1.7c0.8,0.1,1.6,0.2,2.4,0.3c-0.1-1.6-0.3-2.9-0.8-4.4c-0.3-1.1-2-1.2-2.3,0
					c-0.4,1.8-0.6,3.3-0.6,5.1c0.8,0,1.6,0,2.4,0c-0.1-1.6-0.3-3.3-0.4-4.9C57,208.8,54.6,208.8,54.7,210.3L54.7,210.3z"/>
			</g>
		</g>
		<g>
			<g>
				<path class="st0" d="M82.5,128.7c0-0.6,0-1.2,0-1.8c0-0.3,0-0.5,0-0.8c0-0.1,0-0.3,0-0.4c0-0.4-0.1-0.3-0.4,0.1
					c-0.3,0-0.6-0.1-0.9-0.1c-0.1-0.1-0.1-0.1-0.2-0.2c0-0.4,0-0.8,0-1.2c0,0.1,0,0.1-0.1,0.2c0.7,0.2,1.5,0.4,2.2,0.6
					c0-0.7,0-1.2,0.3-1.8c-0.8,0-1.5,0-2.3,0c0.1,0.8,0.2,1.6,0.4,2.4c0.2,1.5,2.5,0.9,2.3-0.6c-0.1-0.8-0.2-1.6-0.4-2.4
					c-0.2-1.3-2-1-2.3,0c-0.3,0.8-0.4,1.6-0.3,2.5c0.1,1.1,1.7,1.8,2.2,0.6c0.6-1.4-0.8-2.9-2.2-1.9c-0.6,0.5-0.7,1.2-0.7,1.9
					c0,1,0,2,0,3C80.1,130.2,82.5,130.2,82.5,128.7L82.5,128.7z"/>
			</g>
		</g>
	</g>
	<g>
		<g>
			<path class="st0" d="M68.7,146.7c7.7,0,7.7-12,0-12C60.9,134.7,60.9,146.7,68.7,146.7L68.7,146.7z"/>
		</g>
	</g>
	<g>
		<g>
			<path class="st0" d="M74.8,245.7c0.2-2.6,0.3-5.2,0.5-7.8c0.1-1.4-2-1.6-2.4-0.3c-0.4,1.5-0.8,3.1-1.3,4.6
				c0.8,0.2,1.5,0.4,2.3,0.6c1.2-5.4,2-10.8,2.4-16.3c-0.8,0-1.6,0-2.4,0c0.3,3.5,0.2,6.7-0.6,10.1c-0.3,1.5,2,2.1,2.3,0.6
				c0.8-3.6,1-7.1,0.7-10.8c-0.2-1.5-2.3-1.6-2.4,0c-0.4,5.3-1.1,10.5-2.3,15.6c-0.3,1.5,1.9,2.1,2.3,0.6c0.4-1.5,0.8-3.1,1.3-4.6
				c-0.8-0.1-1.6-0.2-2.4-0.3c-0.2,2.6-0.3,5.2-0.5,7.8C72.3,247.2,74.7,247.2,74.8,245.7L74.8,245.7z"/>
		</g>
	</g>
</g>
</svg>
