<svg id="Layer_1" data-name="Layer 1" xmlns="http://www.w3.org/2000/svg" viewBox="0 0 17.41 19.94"><defs><style>.cls-1{fill:#231f20;}.cls-2{fill:#48b3e6;}.cls-3{fill:none;stroke:#231f20;stroke-miterlimit:10;stroke-width:0.75px;}</style></defs><title>Man_Symbol</title><path class="cls-1" d="M150.64,275.13a4.84,4.84,0,0,1,.18-.59c.17-.45-.56-.65-.72-.2a4.84,4.84,0,0,0-.18.59c-.11.47.62.67.72.2Z" transform="translate(-133.44 -273.94)"/><path class="cls-2" d="M136.21,285.76a3.89,3.89,0,0,1,1.16-1.53,16.29,16.29,0,0,1,1.83-1.14c1.41-.78.15-2.94-1.26-2.16a16.5,16.5,0,0,0-2.28,1.47,5.92,5.92,0,0,0-1.61,2.08c-.72,1.43,1.43,2.7,2.16,1.26Z" transform="translate(-133.44 -273.94)"/><path class="cls-2" d="M145.25,285.38a1.25,1.25,0,0,0,0-2.5,1.25,1.25,0,0,0,0,2.5Z" transform="translate(-133.44 -273.94)"/><path class="cls-2" d="M146.48,283.79a4.77,4.77,0,0,0-3-3.07c-1.47-.57-3.32-1.06-4.78-.23a1.25,1.25,0,0,0,1.26,2.16c.63-.35,1.85.12,2.45.34a2.37,2.37,0,0,1,1.67,1.47,1.25,1.25,0,0,0,2.41-.66Z" transform="translate(-133.44 -273.94)"/><path class="cls-2" d="M144.56,285.46a13.28,13.28,0,0,1,0,3.06c-.07,1.61,2.43,1.61,2.5,0a15.63,15.63,0,0,0-.08-3.73c-.31-1.58-2.72-.91-2.41.66Z" transform="translate(-133.44 -273.94)"/><path class="cls-2" d="M143.87,289.61l.1-.09-.36.19a3.43,3.43,0,0,0-.71.52c-.28.28-.42.49-.84.49a1.25,1.25,0,0,0,0,2.5,3.54,3.54,0,0,0,2.5-1.11c.66-.62,1.51-.8,1.72-1.84a1.28,1.28,0,0,0-.87-1.54,1.26,1.26,0,0,0-1.54.87Z" transform="translate(-133.44 -273.94)"/><path class="cls-2" d="M133.62,285.67a6.34,6.34,0,0,0,3.06,6.78,1.25,1.25,0,0,0,1.26-2.16,3.75,3.75,0,0,1-1.91-4c.27-1.57-2.14-2.25-2.41-.66Z" transform="translate(-133.44 -273.94)"/><path class="cls-2" d="M136.85,292.73a10.12,10.12,0,0,0,2.7.94,6,6,0,0,0,2.75-.3l-1-.13.18.08c1.46.65,2.73-1.5,1.26-2.16-.9-.4-1.36,0-2.26.09a5.22,5.22,0,0,1-2.41-.67c-1.45-.67-2.72,1.48-1.26,2.16Z" transform="translate(-133.44 -273.94)"/><path class="cls-2" d="M145.51,283.4l-.1,0,.55.32.17.27a1.26,1.26,0,0,0-1.54-.87,1.28,1.28,0,0,0-.87,1.54,1.61,1.61,0,0,0,1.12,1.2,1.26,1.26,0,0,0,1.54-.87,1.28,1.28,0,0,0-.87-1.54Z" transform="translate(-133.44 -273.94)"/><path class="cls-2" d="M144.33,280l-.25.45c-.78,1.41,1.37,2.67,2.16,1.26a18.16,18.16,0,0,1,1.56-2q.81-1.06,1.54-2.19c.87-1.36-1.29-2.61-2.16-1.26-.48.74-1,1.48-1.52,2.17a16.92,16.92,0,0,0-1.58,2l2.16,1.26.25-.45c.78-1.41-1.37-2.67-2.16-1.26Z" transform="translate(-133.44 -273.94)"/><path class="cls-2" d="M148.44,276.59c-.3-.24-.6-.47-.92-.69l-1,2.28q-.36-.25-.12,0l.11.09c.17.15.36.26.54.4a2.15,2.15,0,0,1,.5.52,1.28,1.28,0,0,0,1.71.45,1.26,1.26,0,0,0,.45-1.71,5.07,5.07,0,0,0-1.27-1.33,3.2,3.2,0,0,0-1.25-.81,1.26,1.26,0,0,0-1,2.28c.14.09.28.19.42.3a1.29,1.29,0,0,0,1.77,0,1.26,1.26,0,0,0,0-1.77Z" transform="translate(-133.44 -273.94)"/><path class="cls-2" d="M149.46,277.58,150,277l-2-1.51a5.66,5.66,0,0,0-.44,1.38,1.29,1.29,0,0,0,.87,1.54,1.26,1.26,0,0,0,1.54-.87,3.41,3.41,0,0,1,.18-.78,1.27,1.27,0,0,0-.32-1.61,1.25,1.25,0,0,0-1.64.1l-.54.53a1.25,1.25,0,0,0,1.77,1.77Z" transform="translate(-133.44 -273.94)"/><path class="cls-2" d="M149.83,275.73l.28-.32-.84-.49,0,.16c-.06.43.48.92.84.49l.16-.2-.84-.22,0,.08a.5.5,0,0,0,1,0l0-.08-1-.13,0,.2,1,.27v-.1l-.84-.49,0,.13a.5.5,0,0,0,1,.27,1.15,1.15,0,0,1,.09-.25c.27-.58-.58-1.09-.86-.5l-.06.12c-.28.58.58,1.08.86.5l.06-.12-.86-.5a3.19,3.19,0,0,0-.19.49l1,.27,0-.13c.12-.45-.51-.9-.84-.49a1.15,1.15,0,0,0-.27.55c-.1.62.79.9,1,.27a3,3,0,0,0,.08-.46c.07-.58-.82-.65-1-.13l0,.08h1l0-.08c-.11-.32-.58-.53-.84-.22l-.16.2.84.49,0-.16c.06-.43-.47-.91-.84-.49l-.28.32c-.42.49.29,1.2.71.71Z" transform="translate(-133.44 -273.94)"/><ellipse class="cls-3" cx="7.02" cy="12.97" rx="6.64" ry="6.59"/><ellipse class="cls-3" cx="6.91" cy="13.06" rx="4.41" ry="4.38"/><line class="cls-3" x1="10.56" y1="7.19" x2="13" y2="4"/><line class="cls-3" x1="12" y1="8.37" x2="14.44" y2="5.06"/><line class="cls-3" x1="11.88" y1="2.75" x2="15.75" y2="6.12"/><line class="cls-3" x1="16.95" y1="0.89" x2="15.98" y2="6.05"/><line class="cls-3" x1="16.63" y1="0.49" x2="11.81" y2="2.57"/><path class="cls-1" d="M146.14,276.76l-.77-.5c-.41-.25-.79.39-.38.65l.77.5c.4.28.77-.37.38-.65Z" transform="translate(-133.44 -273.94)"/><path class="cls-1" d="M148.44,280c.22.16.44.32.66.5.37.3.91-.23.53-.53s-.53-.42-.81-.61-.77.37-.38.65Z" transform="translate(-133.44 -273.94)"/><path class="cls-1" d="M149.71,280.13l.07-.24-.69.09v0a.38.38,0,0,0,.75,0,.84.84,0,0,0-.1-.43.38.38,0,0,0-.69.09l-.07.24a.38.38,0,0,0,.72.2Z" transform="translate(-133.44 -273.94)"/><path class="cls-1" d="M149.79,275c.13-.07.49-.34.63-.33l-.36-.28v0c.15.46.87.26.72-.2v0a.39.39,0,0,0-.36-.28,2.6,2.6,0,0,0-1,.44c-.43.22-.05.86.38.65Z" transform="translate(-133.44 -273.94)"/><path class="cls-1" d="M150.71,275.1l0-.35c.07-.47-.66-.68-.72-.2l0,.35c-.07.47.66.68.72.2Z" transform="translate(-133.44 -273.94)"/><path class="cls-2" d="M147.94,276.92h0l.17.17v0c-.11-.3-.6-.17-.48.13a.32.32,0,0,0,.22.22c.3.11.43-.37.13-.48Z" transform="translate(-133.44 -273.94)"/><path class="cls-2" d="M147.45,277.21a10.94,10.94,0,0,1-1.05-.69c-.26-.19-.51.24-.25.43a10.94,10.94,0,0,0,1.05.69.25.25,0,0,0,.25-.43Z" transform="translate(-133.44 -273.94)"/><path class="cls-2" d="M144.48,282.17a3.5,3.5,0,0,0,.45-.54l-.46-.19a3.06,3.06,0,0,1-.26.54l.46.19a2.41,2.41,0,0,1,.35-.6l-.39-.3q-.21.39-.44.77l.43.25a1.52,1.52,0,0,1,.37-.47l-.42-.24-.12.21c-.23.22.12.58.35.35a.83.83,0,0,0,.25-.43.25.25,0,0,0-.42-.24,1.87,1.87,0,0,0-.45.58.25.25,0,0,0,.43.25q.23-.38.44-.77c.13-.24-.21-.53-.39-.3a3.31,3.31,0,0,0-.48.82c-.11.27.32.43.46.19a3.84,3.84,0,0,0,.31-.66c.1-.28-.31-.41-.46-.19a2.86,2.86,0,0,1-.37.44c-.23.22.12.58.35.35Z" transform="translate(-133.44 -273.94)"/><path class="cls-2" d="M144.34,282.23c0-.18.25-.33.36-.46a3.21,3.21,0,0,0,.27-.43c.15-.28-.28-.54-.43-.25s-.6.63-.68,1,.42.45.48.13Z" transform="translate(-133.44 -273.94)"/><path class="cls-2" d="M144.3,282.27a2.62,2.62,0,0,1,.4-.55c.22-.23-.13-.59-.35-.35a3.12,3.12,0,0,0-.48.65c-.16.28.28.53.43.25Z" transform="translate(-133.44 -273.94)"/><path class="cls-2" d="M144.12,282.25q.39-.4.75-.83c.21-.24-.15-.6-.35-.35s-.49.56-.75.83.13.58.35.35Z" transform="translate(-133.44 -273.94)"/><path class="cls-2" d="M144.59,282.67a10.22,10.22,0,0,1,.52-.92c.17-.27-.26-.52-.43-.25a10.22,10.22,0,0,0-.52.92c-.14.29.29.54.43.25Z" transform="translate(-133.44 -273.94)"/><path class="cls-2" d="M144.69,282.62a8.93,8.93,0,0,0,.6-.92.25.25,0,0,0-.43-.25,8.93,8.93,0,0,1-.6.92c-.19.26.24.51.43.25Z" transform="translate(-133.44 -273.94)"/><path class="cls-2" d="M144.65,282.87c.15-.24.28-.49.41-.74s-.29-.54-.43-.25-.26.5-.41.74.26.53.43.25Z" transform="translate(-133.44 -273.94)"/><path class="cls-2" d="M144.91,282.59a1.71,1.71,0,0,0,.19-.31c.14-.29-.29-.54-.43-.25a1.71,1.71,0,0,1-.19.31c-.19.26.24.51.43.25Z" transform="translate(-133.44 -273.94)"/><path class="cls-2" d="M145,282.21a.25.25,0,0,0,0-.5.25.25,0,0,0,0,.5Z" transform="translate(-133.44 -273.94)"/><path class="cls-2" d="M145.17,282.1l.12-.17c.19-.26-.24-.51-.43-.25l-.12.17c-.19.26.24.51.43.25Z" transform="translate(-133.44 -273.94)"/><path class="cls-2" d="M144.94,282.33a4.65,4.65,0,0,1,.49-.59c.23-.23-.13-.58-.35-.35a5.42,5.42,0,0,0-.57.69c-.19.26.25.51.43.25Z" transform="translate(-133.44 -273.94)"/><path class="cls-2" d="M145.16,282.13l.16-.23c.19-.26-.25-.51-.43-.25l-.16.23c-.19.26.25.51.43.25Z" transform="translate(-133.44 -273.94)"/><path class="cls-2" d="M146.81,279.16l1-.94c.23-.23-.12-.58-.35-.35l-1,.94c-.23.23.12.58.35.35Z" transform="translate(-133.44 -273.94)"/><path class="cls-2" d="M146.79,278.91l.83-1c.2-.25-.15-.61-.35-.35l-.83,1c-.2.25.15.61.35.35Z" transform="translate(-133.44 -273.94)"/><path class="cls-2" d="M147,279.41q.43-.55.84-1.13l-.43-.25a6.75,6.75,0,0,0-.59.81.25.25,0,0,0,.43.25,4.69,4.69,0,0,1,.34-.42l-.39-.3-.31.46c-.17.25.19.47.39.3a4.76,4.76,0,0,0,.76-.79c.2-.25-.24-.5-.43-.25a4.25,4.25,0,0,1-.68.69l.39.3.31-.46c.16-.23-.2-.51-.39-.3a5.82,5.82,0,0,0-.41.52l.43.25a6.88,6.88,0,0,1,.59-.81c.18-.27-.25-.52-.43-.25s-.49.69-.76,1,.16.61.35.35Z" transform="translate(-133.44 -273.94)"/><path class="cls-2" d="M146.66,276.88a1.64,1.64,0,0,0-.62-.36c-.11,0-.23.13-.12.21l.55.43c.13.1.3-.08.18-.18l-.55-.43-.12.21a1.59,1.59,0,0,1,.56.34c.13.1.25-.12.13-.22Z" transform="translate(-133.44 -273.94)"/><path class="cls-2" d="M146.19,276.75h.1c.11,0,.18-.17.06-.23l-.11-.06,0,.23.74-.21a.13.13,0,0,0-.07-.24l-.74.21a.13.13,0,0,0,0,.23l.11.06.06-.23h-.1c-.16,0-.16.27,0,.25Z" transform="translate(-133.44 -273.94)"/></svg>