<svg id="Layer_1" data-name="Layer 1" xmlns="http://www.w3.org/2000/svg" viewBox="0 0 13.8 20.18"><defs><style>.cls-1{fill:#ee8bba;}.cls-2{fill:none;stroke:#231f20;stroke-miterlimit:10;stroke-width:0.75px;}</style></defs><title>Woman_Symbol</title><path class="cls-1" d="M5.66,5.7A3.82,3.82,0,0,1,6.8,4.19,16,16,0,0,1,8.6,3.07C10,2.31,8.75.18,7.36,1A16.22,16.22,0,0,0,5.12,2.4a5.82,5.82,0,0,0-1.58,2C2.83,5.85,4.94,7.09,5.66,5.68Z" transform="translate(-2.97 0.11)"/><path class="cls-1" d="M14.55,5.32A1.23,1.23,0,1,0,13.32,4.1,1.23,1.23,0,0,0,14.55,5.32Z" transform="translate(-2.97 0.11)"/><path class="cls-1" d="M15.76,3.76a4.69,4.69,0,0,0-2.95-3C11.36.18,9.54-.3,8.11.52A1.23,1.23,0,1,0,9.35,2.64c.62-.34,1.82.12,2.41.33A2.33,2.33,0,0,1,13.4,4.42a1.23,1.23,0,0,0,2.37-.65Z" transform="translate(-2.97 0.11)"/><path class="cls-1" d="M13.86,5.4a13.05,13.05,0,0,1,0,3c-.07,1.58,2.39,1.58,2.46,0a15.36,15.36,0,0,0-.08-3.67c-.3-1.55-2.67-.89-2.37.65Z" transform="translate(-2.97 0.11)"/><path class="cls-1" d="M13.19,9.48l.1-.09-.35.19a3.37,3.37,0,0,0-.7.51c-.28.28-.41.48-.83.48a1.23,1.23,0,1,0,0,2.46,3.48,3.48,0,0,0,2.46-1.09c.65-.61,1.48-.79,1.69-1.81a1.26,1.26,0,0,0-.86-1.51,1.24,1.24,0,0,0-1.51.86Z" transform="translate(-2.97 0.11)"/><path class="cls-1" d="M3.12,5.61a6.23,6.23,0,0,0,3,6.66,1.23,1.23,0,1,0,1.24-2.12A3.69,3.69,0,0,1,5.48,6.22C5.75,4.68,3.38,4,3.12,5.57Z" transform="translate(-2.97 0.11)"/><path class="cls-1" d="M6.29,12.2A11.28,11.28,0,0,0,8.94,13a7,7,0,0,0,2.7-.25l-1-.11.18.07c1.44.54,2.68-1.24,1.24-1.78-.88-.33-1.34,0-2.22.07a5.9,5.9,0,0,1-2.37-.55c-1.43-.55-2.67,1.22-1.24,1.78Z" transform="translate(-2.97 0.11)"/><path class="cls-1" d="M14.8,3.38h-.1l.54.31.17.27A1.24,1.24,0,0,0,13.9,3.1,1.26,1.26,0,0,0,13,4.62a1.58,1.58,0,0,0,1.1,1.18,1.24,1.24,0,0,0,1.51-.86,1.26,1.26,0,0,0-.86-1.51Z" transform="translate(-2.97 0.11)"/><path class="cls-1" d="M10.31,15.25l-.21-.78-1,.22a1.45,1.45,0,0,1,.23.71l1-.22a5,5,0,0,1-.41-1.29l-1,.22.16.58,1-.22-.2-.74-1,.11.11.29a.53.53,0,0,0,.62.3A.42.42,0,0,0,10,13.9l-.15-.64-1,.22.13.27a.53.53,0,0,0,.62.3.42.42,0,0,0,.36-.52l-.08-.46-1,.11a2.33,2.33,0,0,1,.25.64c.13.44,1,.36,1-.11a2.43,2.43,0,0,1,0-.72l-1,.11.37.87c.18.41,1,.38,1-.11a3.05,3.05,0,0,1,0-1l-1,.11.09.69h1l-.13-.92c-.07-.52-1.05-.53-1,0l.26,2.09,1-.11L10.59,14l-1,.22a5.69,5.69,0,0,1,.15,1.53l1-.11-.21-.82a.49.49,0,0,0-.56-.36.44.44,0,0,0-.43.47v1.59l1-.11a2,2,0,0,1-.2-.87.5.5,0,0,0-1,0l-.09,1.19,1-.11a4.64,4.64,0,0,1-.17-1.33h-1v.82l1-.11-.21-.74a.5.5,0,0,0-1,0v.33l1-.11a5.37,5.37,0,0,1-.18-1.11h-1c.14,1.16.5,2.3.62,3.46,0,.4.21,1.47.28.49,0-.74-.18-1.46-.07-2.21.08-.53-.9-.52-1,0-.12.82-.51,4.17,1.42,3.7a.46.46,0,0,0,.34-.29c.38-1.65-.42-3.51-.61-5.16-.06-.52-1-.54-1,0a10,10,0,0,0,.21,1.32c.11.47,1,.34,1-.11v-.33h-1a2.64,2.64,0,0,0,.25,1c.17.42,1,.38,1-.11v-.82c0-.53-1-.54-1,0a8.06,8.06,0,0,0,.21,1.54c.11.48,1,.33,1-.11l.09-1.19h-1a3.53,3.53,0,0,0,.23,1.09.49.49,0,0,0,.56.36.44.44,0,0,0,.43-.47V14.9l-1,.11.21.82c.12.47,1,.35,1-.11A6.81,6.81,0,0,0,10.69,14c-.12-.53-1-.3-1,.22l.14.75c.09.45,1,.35,1-.11l-.26-2.09h-1l.13.92c.07.52,1,.54,1,0a5.84,5.84,0,0,0-.12-.92c-.08-.49-.91-.31-1,.11a3.05,3.05,0,0,0,0,1l1-.11-.37-.87a.49.49,0,0,0-.56-.36.44.44,0,0,0-.43.47,2.43,2.43,0,0,0,0,.72l1-.11A2.33,2.33,0,0,0,10,13c-.19-.4-1-.4-1,.11a3.23,3.23,0,0,0,.11.68l1-.22-.13-.27a.53.53,0,0,0-.62-.3.42.42,0,0,0-.36.52l.15.64,1-.22L10,13.62c-.17-.42-1-.38-1,.11a2.28,2.28,0,0,0,.24,1,.53.53,0,0,0,.62.3.42.42,0,0,0,.36-.52l-.16-.58c-.15-.53-1-.3-1,.22a5,5,0,0,0,.41,1.29.53.53,0,0,0,.62.3.42.42,0,0,0,.36-.52,1.45,1.45,0,0,0-.23-.71.53.53,0,0,0-.62-.3.42.42,0,0,0-.36.52l.21.78c.14.52,1.08.3,1-.22Z" transform="translate(-2.97 0.11)"/><path class="cls-1" d="M10.4,17.74a.59.59,0,0,1,0-.44l-.29.19h.08l-.38,0v.07l.47-.31H10.2l.34.12a.61.61,0,0,1-.13-.55l-.74.35c.08,0,.07.42.1.51a.62.62,0,0,0,.46.37,2.75,2.75,0,0,0,.82,0,5.73,5.73,0,0,1,1.07-.06.43.43,0,0,0,.42-.62c-.4-.82-1.7-.24-2.41-.41a.53.53,0,0,0-.62.3.42.42,0,0,0,.36.52,2.83,2.83,0,0,0,.92.06c.11,0,.84-.15.89,0l.42-.62a4.75,4.75,0,0,0-.88,0,3.54,3.54,0,0,1-.74.08l.23.25c-.18-.37,0-.82-.57-1a.55.55,0,0,0-.68.17.37.37,0,0,0-.06.18c0,.46.14,1.25.84,1.25a.5.5,0,0,0,.47-.31A.8.8,0,0,0,10,16.7c-.58.06-.64.89-.5,1.3a.53.53,0,0,0,.62.3.42.42,0,0,0,.36-.52Z" transform="translate(-2.97 0.11)"/><path class="cls-1" d="M11.14,16.93a.44.44,0,0,1-.3-.07l0,.32v0l-.34.29a2.43,2.43,0,0,1,.79.16v-.82a1.07,1.07,0,0,1-.44,0,.51.51,0,0,0-.6.29.39.39,0,0,0,.22.46c.36.23.85.21,1.2.43l.25-.77a3.08,3.08,0,0,0-.53,0,.39.39,0,0,0-.12.75,1,1,0,0,0,.58.12c.62-.06.64-.82,0-.82l-1,0,.13.82c.27,0,.53-.08.8-.09a1.86,1.86,0,0,0,.55,0c.39-.14.36-.47.3-.77s-.09-.61-.47-.73a2,2,0,0,0-1.31.16c-.56.24-.07,1,.49.71a.87.87,0,0,1,.55-.08l-.29-.19a1,1,0,0,1,.09.47l.15-.29,0,0,.34-.12a6.41,6.41,0,0,0-1.42.11c-.55.07-.42.82.13.82l1,0v-.82h-.09l-.12.75a1,1,0,0,1,.28,0,.46.46,0,0,0,.49-.42.41.41,0,0,0-.24-.35c-.36-.22-.85-.2-1.2-.43l-.38.75a2.85,2.85,0,0,0,1,0,.42.42,0,1,0,0-.82,3.23,3.23,0,0,0-1.31-.16.45.45,0,0,0-.34.29c-.16.57.65.82,1.19.82a.42.42,0,1,0,0-.82Z" transform="translate(-2.97 0.11)"/><path class="cls-1" d="M8.88,17.4c-.43-.12-.92,0-1.35-.12l.29.19s-.27,0-.08,0a1.72,1.72,0,0,0,.38,0,4.1,4.1,0,0,0,.82-.07l-.38-.75a2.94,2.94,0,0,1-1,.18v.82a3.61,3.61,0,0,1,1.37,0,.43.43,0,1,0,.27-.82,4.18,4.18,0,0,0-1.62,0c-.62,0-.65.82,0,.82a4.39,4.39,0,0,0,1.47-.29c.53-.2.14-.82-.38-.75s-.9-.08-1.32,0a.69.69,0,0,0-.56.69.7.7,0,0,0,.46.71c.43.15.9,0,1.35.12a.43.43,0,1,0,.27-.82Z" transform="translate(-2.97 0.11)"/><ellipse class="cls-2" cx="6.9" cy="6.85" rx="6.53" ry="6.48"/><ellipse class="cls-2" cx="6.79" cy="6.94" rx="4.33" ry="4.31"/><line class="cls-2" x1="5.74" y1="13.02" x2="5.68" y2="16.84"/><line class="cls-2" x1="7.87" y1="13.07" x2="7.81" y2="16.89"/><line class="cls-2" x1="6.06" y1="16.71" x2="3.82" y2="16.68"/><line class="cls-2" x1="9.71" y1="16.78" x2="7.46" y2="16.76"/><line class="cls-2" x1="6.03" y1="18.13" x2="3.78" y2="18.1"/><line class="cls-2" x1="9.61" y1="18.2" x2="7.37" y2="18.18"/><line class="cls-2" x1="5.65" y1="18.28" x2="5.65" y2="19.88"/><line class="cls-2" x1="7.75" y1="18.18" x2="7.75" y2="19.9"/><line class="cls-2" x1="3.87" y1="16.39" x2="3.87" y2="18.38"/><line class="cls-2" x1="9.61" y1="16.5" x2="9.61" y2="18.49"/><line class="cls-2" x1="8.11" y1="19.8" x2="5.32" y2="19.8"/><path class="cls-1" d="M9.17,12.27l.19.55a.53.53,0,0,0,.62.3.42.42,0,0,0,.36-.52,1.35,1.35,0,0,0-.15-.31.5.5,0,0,0-.89.32,1.47,1.47,0,0,1,.06.41l.84-.29-.06-.06a.56.56,0,0,0-.69-.12.44.44,0,0,0-.2.22V13c-.14.52.81.73,1,.22V13l-.89.1a.61.61,0,0,0,.22.22.57.57,0,0,0,.71,0,.39.39,0,0,0,.13-.26,2.34,2.34,0,0,0-.09-.64l-.89.32v.12l1-.22-.19-.55a.53.53,0,0,0-.62-.3.42.42,0,0,0-.36.52Z" transform="translate(-2.97 0.11)"/><path class="cls-1" d="M10.16,12.7a1.68,1.68,0,0,0-.08-.45c-.18-.53-1-.29-1,.22v.26l.89-.32-.1-.18c-.24-.46-1-.11-.89.32l.11.52c.1.45,1,.35,1-.11v-.24c-.08-.52-1.06-.53-1,0V13l1-.11L10,12.33l-.89.32.1.18c.24.47,1,.1.89-.32v-.26l-1,.22a.5.5,0,0,1,0,.24c0,.53,1,.53,1,0Z" transform="translate(-2.97 0.11)"/><path class="cls-1" d="M9.79,12H9.68a.24.24,0,0,0-.3.18.29.29,0,0,0,0,.08,3.82,3.82,0,0,1-.09.86L9.69,13h0a.24.24,0,0,0-.3-.18.26.26,0,0,0-.17.18v.15a.27.27,0,0,0,.17.33.23.23,0,0,0,.19,0h0a.28.28,0,0,0,.09-.36h0A.23.23,0,0,0,9.33,13l0,0a.88.88,0,0,0-.16.36l.48.08V12.38a.25.25,0,1,0-.49,0,6.9,6.9,0,0,0,0,.88l.48-.08v-.37c0-.33-.41-.48-.47-.14v.22l.48.08v-.15a.25.25,0,1,0-.49,0V13a.25.25,0,1,0,.49,0v-.16a.25.25,0,1,0-.49,0V13a.25.25,0,1,0,.49,0v-.18H9.12V13h.49v-.16H9.12V13c0,.27.42.4.48.08v-.22l-.47-.14a2,2,0,0,0,0,.66.24.24,0,0,0,.48-.08,6.9,6.9,0,0,1,0-.88H9.12v1.07a.26.26,0,0,0,.25.27.25.25,0,0,0,.24-.19.19.19,0,0,0,0-.13l-.38-.05h0L9.31,13h0l.36.3v-.15H9.2a.5.5,0,0,0,.13.28.23.23,0,0,0,.35,0,.27.27,0,0,0,.07-.12,4.45,4.45,0,0,0,.11-1l-.31.26h.11a.25.25,0,0,0,.28-.22.27.27,0,0,0-.15-.29Z" transform="translate(-2.97 0.11)"/><path class="cls-1" d="M10.06,13.51v-.57l-.48.16.14,1.23c0,.31.17.49.3.4a.75.75,0,0,0,.18-.57V12.9H9.71c0,.59,0,1.18.1,1.77,0,.31.17.49.3.4a.75.75,0,0,0,.18-.57V13l-.48.16c0,.53.11,1.05.19,1.56s.52.54.48-.16L10.4,13l-.48.16L10,14.81c0,.66.5.49.48-.16s0-1.37-.1-2.05-.52-.42-.47.31l.07,1c0,.68.46.47.48-.16v-1L10,12.9c0,.33,0,.66,0,1l.48-.16v-.59L10,13.3a5.28,5.28,0,0,1,0,.75c0,.75.48.75.49,0,0-.35,0-.71,0-1.06,0-.66-.48-.49-.48.16a9.18,9.18,0,0,0,0,.92c0,.66.48.49.48-.16,0-.44,0-.88,0-1.32,0-.68-.46-.47-.48.16v1l.48-.16-.07-1L10,12.9q.06.85.08,1.72l.48-.16-.12-1.67c0-.66-.51-.49-.48.16L10,14.5l.48-.16c-.08-.51-.14-1-.19-1.56,0-.31-.17-.49-.3-.4a.75.75,0,0,0-.18.57v1.51l.48-.16c0-.47-.07-1-.08-1.44,0-.33-.11-.59-.25-.59s-.25.26-.25.59v1.27L10.2,14l-.14-1.23c-.07-.61-.51-.52-.48.16v.57c0,.75.52.75.49,0Z" transform="translate(-2.97 0.11)"/></svg>