<?xml version="1.0" encoding="utf-8"?>
<!-- Generator: Adobe Illustrator 21.0.2, SVG Export Plug-In . SVG Version: 6.00 Build 0)  -->
<svg version="1.1" id="Layer_1" xmlns="http://www.w3.org/2000/svg" xmlns:xlink="http://www.w3.org/1999/xlink" x="0px" y="0px"
	 viewBox="0 0 200 600" style="enable-background:new 0 0 200 600;" xml:space="preserve">
<style type="text/css">
	.st0{fill:#06203A;}
	.st1{fill:#FFFFFF;}
	.st2{fill:#010101;}
</style>
<g>
	<g>
		<g>
			<g>
				<path class="st0" d="M88.9,563.4c0-0.2,0.1-0.5,0.1-0.7c-0.7,0.1-1.5,0.2-2.2,0.3c0-0.1,0-0.1,0-0.2c0.8,0,1.5,0,2.3,0
					c-0.6,0.3-1.1,0.6-1.7,0.9c0.8,0.1,1.6,0.2,2.4,0.3c0.1-0.7,0.1-1.3,0.2-2c-0.7-0.1-1.5-0.2-2.2-0.3c0.4,1,0.6,2,0.7,3
					c0.2,1.4,2.3,1,2.4-0.3c0.1-1,0.1-1.9,0.2-2.9c-0.8,0.1-1.6,0.2-2.4,0.3c0.1,0.9,0.3,1.9,0.4,2.8c0.2,1.3,2.5,1,2.4-0.3
					c-0.1-0.7-0.1-1.5-0.2-2.2c-0.8,0.1-1.6,0.2-2.4,0.3c0.1,0.7,0.2,1.5,0.3,2.2c0.2,1.3,2.5,1,2.4-0.3c-0.1-0.9-0.2-1.7-0.2-2.6
					c-0.8,0-1.6,0-2.4,0c0.1,0.7,0.1,1.4,0.2,2.2c0.8-0.1,1.6-0.2,2.4-0.3c-0.1-0.8-0.2-1.6-0.3-2.4c-0.1-1.5-2.5-1.5-2.4,0
					c0,0.6,0.1,1.3,0.1,1.9c0.8,0,1.6,0,2.4,0c-0.1-1-0.1-2-0.2-3c-0.1-1.5-2.4-1.6-2.4,0c0,0.6,0,1.2,0,1.8c0,1.3,2.2,1.7,2.4,0.3
					c0.3-2.1,1-4.8,0.5-6.9c-0.2-0.7-0.9-0.9-1.5-0.8c-2,0.3-3.7,0.1-5.6-0.1c-1.4-0.1-1.6,2-0.3,2.4c1.9,0.6,3.6,0.6,5.5,0.1
					c1.4-0.4,1-2.2-0.3-2.4c-4.2-0.5-4,3.8-4.9,7c0.8,0,1.5,0,2.3,0c-0.1-1-0.2-2-0.3-3c0-1.6-2.3-1.5-2.4,0
					c-0.1,1.1-0.2,2.2-0.3,3.3c0.8,0,1.6,0,2.4,0c-0.1-1.4-0.1-2.5,0.1-3.9c-0.8,0.1-1.6,0.2-2.4,0.3c0.1,0.6,0.1,1.2,0.2,1.8
					c0.8-0.1,1.6-0.2,2.4-0.3c-0.2-0.9-0.3-1.7-0.5-2.6c-0.8,0.1-1.6,0.2-2.4,0.3c0.1,0.8,0.2,1.5,0.2,2.3c0.8-0.1,1.6-0.2,2.4-0.3
					c-0.4-0.9-0.7-1.8-0.8-2.8c-0.6,0.5-1.2,0.9-1.8,1.4c0.7,1.1,1.2,2.3,1.5,3.7c0.4,1.3,2.3,1,2.4-0.3c-0.1-1.4,0.1-2.7,0.6-4.1
					c-0.8-0.1-1.6-0.2-2.4-0.3c0.1,1.5,0.2,3,0.2,4.6c0,1.3,2.1,1.7,2.4,0.3c0.2-1.3,0.5-2.5,0.7-3.7c-0.8-0.1-1.6-0.2-2.4-0.3
					c0.1,1.1,0.3,2.2,0.4,3.4c0.2,1.5,2.3,1.6,2.4,0c0.1-0.9,0.2-1.9,0.3-2.8c-0.8-0.1-1.6-0.2-2.4-0.3c0.1,1,0.1,2,0.2,3.1
					c0.1,1.6,2.3,1.5,2.4,0c0.1-1,0.2-2,0.3-3c-0.8,0.1-1.6,0.2-2.4,0.3c0.4,2.5,0.3,5.2,0.5,7.8c0.1,1.5,2.5,1.5,2.4,0
					c0-0.6,0-1.3,0-1.9c-0.8-0.1-1.6-0.2-2.4-0.3c0.3,2.7,0.6,2.2,0.6-1.4c-0.8-0.1-1.6-0.2-2.4-0.3c0.5,0.6,1,1.2,1.5,1.8
					c-0.7-0.3-1.4-0.6-2-0.8c-0.2,2.5,0.1,5.8-2.8,7.1c-1.3,0.6-4.3,0.5-5.8,0.6c-3.3,0.2-6.6,0.3-9.9,0.3c0.3,0.6,0.7,1.2,1,1.8
					c0.7-1.4,1-2.5,0.9-4.1c0-1.3-2.1-1.7-2.4-0.3c-0.1,0.5-0.3,1-0.4,1.5c0.7,0.3,1.5,0.6,2.2,0.9c0.8-2.2,0.9-4,0.3-6.3
					c-0.3-1.3-2.4-1-2.4,0.3c0.1,1,0.1,1.9,0,2.9c0.8,0,1.6,0,2.4,0c-0.2-1.2-0.3-2.3-0.5-3.4c-0.4,0.5-0.8,1-1.2,1.5
					c3.7-0.3,7.4-0.5,11.1-0.7c2.6-0.1,4.7,0,7-1.1c1.2-0.6,0.3-2.7-0.9-2.2c-1.1,0.4-1.3,0.5-2,1.4c0.6,0.5,1.3,1,1.9,1.5
					c0.2-0.2,0.3-0.5,0.5-0.7c0.8-1.1-0.9-2.4-1.9-1.5c-0.2,0.2-0.4,0.4-0.6,0.6c0.7,0.4,1.3,0.8,2,1.2c0.1-0.2,0.2-0.3,0.4-0.5
					c1.2-1.1-0.5-2.6-1.7-1.7c-0.4,0.1-0.7,0.2-1.1,0.4c0.3,0.7,0.6,1.5,0.9,2.2c0.8-0.3,1.5-0.7,2.1-1.2c1.3-0.8,0.1-2.9-1.2-2.1
					c-0.7,0.5-1.4,0.9-2.1,1.2c-1.3,0.6-0.3,2.4,0.9,2.2c1.1-0.2,1.2-0.3,2.1-1c-0.6-0.6-1.1-1.1-1.7-1.7c-0.6,0.5-0.7,0.8-1,1.6
					c-0.4,1.2,1.2,2,2,1.2c0.2-0.2,0.4-0.4,0.6-0.6c-0.6-0.5-1.3-1-1.9-1.5c-0.2,0.2-0.3,0.5-0.5,0.7c-0.8,1.1,1,2.5,1.9,1.5
					c0.3-0.3,0.7-0.5,1-0.8c-0.3-0.7-0.6-1.5-0.9-2.2c-2.5,1.2-6.5,0.8-9.2,0.9c-2.6,0.1-5.1,0.3-7.7,0.5c-0.8,0.1-1.3,0.7-1.2,1.5
					c0.1,0.9,0.3,1.9,0.4,2.8c0.2,1.5,2.3,1.6,2.4,0c0.1-1,0.1-1.9,0-2.9c-0.8,0.1-1.6,0.2-2.4,0.3c0.5,1.8,0.4,3.5-0.3,5
					c-0.5,1.3,1.6,2.2,2.2,0.9c0.4-1,0.5-1,0.7-2.1c-0.8-0.1-1.6-0.2-2.4-0.3c-0.2,0.9-0.4,1.9-0.6,2.8c-0.4,0.8,0.1,1.8,1,1.8
					c3.8,0,7.7-0.1,11.5-0.4c2.2-0.2,5.4-0.1,7.2-1.6c2.3-1.8,2.8-7.5,0.2-9.3c-0.4-0.2-0.8-0.2-1.2,0c-1.6,0.8-3,4.4-1,5.6
					c2.7,1.5,3.9-3,4-4.7c0.1-1-1.4-1.6-2-0.8c-1.4,1.5-2.9,4.4-0.6,5.8c0.5,0.3,1,0.2,1.5-0.2c1.7-1.4,1.8-3.7,1.8-5.7
					c0-1.4-2-1.6-2.4-0.3c-0.7,2.1-0.9,4.8,0.8,6.5c0.3,0.3,0.8,0.4,1.2,0.3c1.9-0.6,2-3,2.1-4.7c0.1-1.3-2.2-1.7-2.4-0.3
					c-0.2,1.2-0.2,1.3-0.1,2.6c0.8,0,1.6,0,2.4,0c-0.3-2.8-0.2-5.6-0.6-8.4c-0.2-1.4-2.3-0.9-2.4,0.3c-0.1,1-0.2,2-0.3,3
					c0.8,0,1.6,0,2.4,0c-0.1-1-0.1-2-0.2-3.1c-0.1-1.3-2.1-1.7-2.4-0.3c-0.2,1.4-0.3,2-0.4,3.5c0.8,0,1.6,0,2.4,0
					c-0.1-1.1-0.3-2.2-0.4-3.4c-0.1-1.2-2-1.7-2.4-0.3c-0.3,1.2-0.5,2.5-0.7,3.7c0.8,0.1,1.6,0.2,2.4,0.3c0-1.5-0.1-3-0.2-4.6
					c-0.1-1.3-2-1.7-2.4-0.3c-0.5,1.6-0.7,3-0.7,4.7c0.8-0.1,1.6-0.2,2.4-0.3c-0.4-1.7-0.9-4.2-2.6-5.1c-0.9-0.5-2,0.3-1.8,1.4
					c0.2,1,0.5,1.9,0.8,2.8c0.5,1.3,2.2,1,2.4-0.3c0.2-1.7,0.2-1.3-0.3-2.9c-0.4-1.2-2.5-1.1-2.4,0.3c0.2,1.4,0.2,1.8,0.6,3.2
					c0.3,1.3,2.4,1,2.4-0.3c0-1-0.1-1.5-0.2-2.5c-0.2-1.5-2.2-0.9-2.4,0.3c-0.2,1.4-0.2,2.5-0.1,3.9c0.1,1.5,2.3,1.5,2.4,0
					c0.1-1.1,0.2-2.2,0.3-3.3c-0.8,0-1.6,0-2.4,0c0,1.9,0,1.8,0.3,3.6c0.2,1.2,2,1.1,2.3,0c0.3-1,0.8-5.5,2.5-5.3
					c-0.1-0.8-0.2-1.6-0.3-2.4c-1.4,0.6-2.8,0.5-4.2-0.1c-0.1,0.8-0.2,1.6-0.3,2.4c2.3,0.2,4,0.3,6.3,0c-0.5-0.3-1-0.6-1.5-0.8
					c0.3,1.3-0.3,4.4-0.5,5.6c0.8,0.1,1.6,0.2,2.4,0.3c0-0.6,0-1.2,0-1.8c-0.8,0-1.6,0-2.4,0c0.1,1,0.1,2,0.2,3
					c0.1,1.5,2.5,1.5,2.4,0c0-0.6-0.1-1.3-0.1-1.9c-0.8,0-1.6,0-2.4,0c0.1,1.4,0.1,1.7,0.4,3.1c0.3,1.3,2.5,1,2.4-0.3
					c-0.1-0.7-0.1-1.4-0.2-2.2c-0.1-1.5-2.5-1.6-2.4,0c0,0.9,0.1,1.8,0.2,2.6c0.8-0.1,1.6-0.2,2.4-0.3c-0.1-0.7-0.2-1.5-0.3-2.2
					c-0.2-1.3-2.5-1-2.4,0.3c0.1,0.7,0.1,1.5,0.2,2.2c0.8-0.1,1.6-0.2,2.4-0.3c-0.1-0.9-0.3-1.9-0.4-2.8c-0.2-1.4-2.3-0.9-2.4,0.3
					c-0.1,1-0.1,1.9-0.2,2.9c0.8-0.1,1.6-0.2,2.4-0.3c-0.1-1-0.4-2-0.7-3c-0.3-0.9-1.7-1.3-2.2-0.3c-0.7,1.6-0.8,1.5-0.6,3.2
					c0.2,1.2,2.1,1.8,2.4,0.3c0.2-1,0.3-2-0.4-2.9c-0.2-0.3-0.6-0.6-1-0.6c-1.6,0.1-1.9,1.2-1.6,2.7c0.3,1.2,2,1.1,2.3,0
					c0.2-0.7,0.2-1.1-0.2-1.7c-0.5-0.8-2-0.8-2.2,0.3c0,0.2-0.1,0.5-0.1,0.7C86.3,564.3,88.6,565,88.9,563.4L88.9,563.4z"/>
			</g>
		</g>
		<g>
			<g>
				<path class="st0" d="M83.6,573c2.4-0.2,6.1-0.3,8.1-2c1.9-1.6,0.8-4.8,0.5-7c-0.2-1.3-2-1.7-2.4-0.3c-0.3,1.5-0.9,2.8-1.7,4.1
					c-0.1,0.7-0.2,1.5-0.3,2.2c0.2-0.2,0.5-0.4,0.7-0.5c0.1-0.5,0.3-1.1,0.4-1.6c1.8-1.3,0.9-3.9,1.1-5.9c0.2-1.7,0.7-3.2,0.7-5
					c-0.8,0-1.6,0-2.4,0c0.3,2.6,0.6,5.2,0.6,7.8c0,1.3,2.1,1.7,2.4,0.3c0.4-1.8,0.4-1.7,0.4-3.5c-0.8,0.1-1.6,0.2-2.4,0.3
					c0.1,0.6,0.1,1.2,0.2,1.9c0,1.5,2.3,1.5,2.4,0c0.1-1.1,0.1-2.2,0-3.3c0-1.1-1.7-1.7-2.2-0.6c-2,3.7-5.7,5.1-9.5,6.1
					c0.3,0.7,0.6,1.5,0.9,2.2c1.2-0.3,2.3-0.5,3.5-0.8c0.4,0.5,0.8,1,1.2,1.5c-0.2-0.1-0.4-0.2-0.6-0.3c-0.2-0.5-0.4-0.9-0.6-1.4
					c-0.6-0.3-1.3-0.5-1.9-0.8c0.7-0.6,0.2-2.2-0.8-2c-1.5,0.2-3,0.4-4.5,0.6c-0.6,0.1-1.3,0.5-1.2,1.2c0.6,5,0.6,6.9,6.3,5.5
					c0.9-0.2,1.1-1.4,0.5-2c-1.3-1.3-1.8-2.7-3.3-3.8c-1-0.7-1.9,0.4-1.8,1.4c0.5,3.2,0.6,1.7-1.2,1.7c-0.8,0-1.1,0.1-1.9,0.5
					c0.6,0.5,1.2,0.9,1.8,1.4c0.5-1.8,1-4-0.1-5.7c-0.3-0.5-0.8-0.6-1.4-0.6c-3.8,0.5-3,3-2.9,6.2c0,0.8,0.7,1.4,1.5,1.2
					c4.2-1.1,1.3-9.7-3.6-7c-1.6,0.9-2,3.5-1.6,5.3c0.5,2.1,1.2,1.5,3,1.8c1,0.2,1.6-0.5,1.5-1.5c0-0.9,0-1.7,0-2.6
					c0.2-1.5-2.1-2.2-2.3-0.6c-0.2,1.4-0.2,2.5,0,3.9c0.5-0.5,1-1,1.5-1.5c-1.3-0.2-1.6,0.9-1.1-0.7c1.2-3.7,2.1,0.7,2,0.7
					c0.5,0.4,1,0.8,1.5,1.2c0-1.1-0.6-3.6,1.1-3.8c-0.5-0.2-0.9-0.4-1.4-0.6c0.5,1.3,0.4,2.5-0.2,3.8c-0.3,1.1,0.8,1.8,1.8,1.4
					c1-0.5,2.5,0.4,3.7,0.2c0.4-0.1,0.7-0.5,0.8-0.8c0.4-1.3,0-2.9-0.3-4.3c-0.6,0.5-1.2,0.9-1.8,1.4c1.1,0.8,1.8,2.4,2.8,3.4
					c0.2-0.7,0.4-1.3,0.5-2c-3.3,0.8-2.9-0.6-3.3-3.2c-0.4,0.4-0.8,0.8-1.2,1.2c1.5-0.2,3-0.4,4.5-0.6c-0.3-0.7-0.6-1.4-0.8-2
					c-3.6,3.2,5.2,8,6,3.1c0.1-0.5-0.1-1.1-0.6-1.4c-1.7-0.9-2.6,0.2-2.9,1.8c-0.2,0.7,0.3,1.6,1.2,1.5c3.6-0.5,0.4-7.7-3.2-3.5
					c-3.5,4,4.8,5.9,3.5,1.1c-1.3-4.9-8,1.2-3.1,3.2c1.7,0.7,3.6-0.7,3.3-2.6c-0.4-2.6-3.4-2.6-5.2-1.8c-1.3,0.5-0.4,2.5,0.9,2.2
					c4.5-1.2,8.6-2.9,10.9-7.2c-0.7-0.2-1.5-0.4-2.2-0.6c0.1,1.1,0.1,2.2,0,3.3c0.8,0,1.6,0,2.4,0c0-1.1,0-1.4-0.2-2.5
					c-0.3-1.4-2.3-1-2.4,0.3c-0.1,1-0.2,1.9-0.3,2.9c0.8,0.1,1.6,0.2,2.4,0.3c-0.1-2.6-0.3-5.2-0.6-7.8c-0.2-1.5-2.4-1.6-2.4,0
					c0,1.5-2.5,15.9,1.8,13c0.6-0.4,0.7-1,0.4-1.6c-0.6-1.4-2.3-1-3.4-0.6c-1,0.4-1.2,1.6-0.3,2.2c3.3,2.2,4.7-3.4,5.2-5.5
					c-0.8-0.1-1.6-0.2-2.4-0.3c0.2,1.9,1,3.7-0.3,5c-1.3,1.4-4.2,1.4-5.9,1.5C82.1,570.8,82.1,573.2,83.6,573L83.6,573z"/>
			</g>
		</g>
		<g>
			<g>
				<path class="st1" d="M61.1,568.6c-0.1,0-0.1-0.1-0.2-0.1c0.2,0.3,0.4,0.7,0.6,1c0-0.1,0-0.1,0-0.2c-0.6,0.3-1.2,0.7-1.8,1
					c0,0,0,0,0,0c0-0.3-0.1-0.6-0.1-0.9c0,0.1,0,0.2-0.1,0.3c0.2-0.2,0.4-0.5,0.6-0.7c0,0,0,0,0,0c0.3,0.1,0.6,0.2,0.8,0.4
					c-0.1-0.1-0.2-0.1-0.2-0.2c-0.4,0.7-0.8,1.3-1.2,2c0.1,0,0.2,0,0.2,0.1c-0.3-0.3-0.6-0.6-0.8-0.8c0,0,0-0.1,0-0.1
					c0.2-0.2,0.4-0.5,0.6-0.7c-0.9,0.6-1.6,0.5-2,1.6c0.8,0.1,1.6,0.2,2.4,0.3c-0.2-2.9,2.2-5.3,5.2-5c-0.3-0.1-0.6-0.2-0.8-0.4
					c0,0-0.3,1.5-0.3,1.6c-0.1,0.5-0.2,0.9-0.3,1.4c-0.2,0.9-0.3,1.9-0.4,2.8c-0.1,1.1,1.8,1.7,2.2,0.6c0.4-1.1,0.8-2.1,1-3.2
					c0.3-1.5-1.9-2.2-2.3-0.6c-0.3,1.1-0.6,2.2-0.9,3.3c-0.5,1.5,1.8,2.1,2.3,0.6c0.3-0.9,0.5-1.7,0.5-2.6c0.1-1.4-2-1.6-2.4-0.3
					c-0.3,1-0.7,1.4-1.8,1.4c-0.9,0-1.7,0-2.6,0c-1.3,0-1.7,2.1-0.3,2.4c1.4,0.3,3.7,1.2,5.2,0.6c1-0.4,1.3-2.1,0-2.3
					c-0.7-0.1-2-0.1-2-1c0-0.6,0.8-1.5,1.3-1.7c-0.3,0-0.6,0.1-0.9,0.1c0.1,0,0.2,0,0.3,0c-0.2-0.2-0.5-0.4-0.7-0.6
					c0.2,0.3,0.4,1.5,1.1,0.9c0.2-0.2-0.1-1.2,0.3-1.5c-0.3,0-0.6,0.1-0.9,0.1c0.1,0,0.2,0,0.2,0c-0.2-0.2-0.5-0.4-0.7-0.6
					c0-0.3,0-0.2,0,0.3c0,0.3-0.1,0.6-0.1,0.9c-0.1,0.6-0.4,1.2-0.7,1.8c0.7,0.2,1.5,0.4,2.2,0.6c0-1.3,0.3-2.4,1.1-3.5
					c-0.7,0-1.4,0-2.1,0c0,0.1,0.1,0.1,0.1,0.2c0.4,0.1,0.8,0.2,1.2,0.3c-0.1-0.1-0.1-0.2-0.2-0.2c0.1,0.3,0.2,0.6,0.4,0.8
					c-0.1-0.5,0.1-0.9,0.5-1.2c-0.4,0-0.8,0-1.2,0c0.1,0,0.2,0.1,0.2,0.1c-0.2-0.2-0.4-0.5-0.6-0.7c0,0.1,0,0.2,0.1,0.3
					c0-0.3,0.1-0.6,0.1-0.9c-0.1,0.1-0.1,0.2-0.2,0.2c0.7,0.3,1.4,0.6,2,0.8c0.1-0.2,0.2-0.3,0.3-0.5c-0.7-0.3-1.4-0.6-2-0.8
					c0,0.1,0,0.3,0,0.4c-0.1,1.5,2.3,1.5,2.4,0c0-0.1,0-0.3,0-0.4c0.1-1.1-1.3-1.5-2-0.8c-0.7,0.6-0.9,1.3-1,2.2
					c-0.1,1.1,1.4,1.5,2,0.8c1.1-1.1,0.6-3.5-1.3-2.8c-1.6,0.5-2.4,3.2-1.2,4.4c0.3,0.3,0.8,0.4,1.2,0.3c1.6-0.4,2-2.3,1.3-3.7
					c-0.4-0.9-1.6-0.7-2.1,0c-0.9,1.4-1.4,3-1.4,4.7c0,1.1,1.7,1.7,2.2,0.6c0.7-1.3,1.6-3.5,1.1-5c-0.4-1.3-1.8-1.4-2.7-0.5
					c-1,1-1.2,3-0.7,4.2c0.4,1.2,1.8,2.2,3,1.3c2.3-1.6,0.1-7.1-2.6-4.4c-1.1,1-2,2.6-1.6,4.1c0.4,1.8,2.1,2.1,3.7,2.4
					c0-0.8,0-1.5,0-2.3c-0.8,0.3-3-0.4-3.9-0.6c-0.1,0.8-0.2,1.6-0.3,2.4c1.5,0,3.3,0.2,4.6-0.3c1.3-0.5,1.8-1.7,2.1-2.9
					c-0.8-0.1-1.6-0.2-2.4-0.3c-0.1,0.7-0.2,1.3-0.4,2c0.8,0.2,1.5,0.4,2.3,0.6c0.3-1.1,0.6-2.2,0.9-3.3c-0.8-0.2-1.5-0.4-2.3-0.6
					c-0.2,0.9-0.4,1.8-0.8,2.6c0.7,0.2,1.5,0.4,2.2,0.6c0.1-2,1.3-4.4,0.8-6.5c-0.4-1.8-2.1-1.5-3.6-1.1c-3.3,0.7-5.6,3.8-5.4,7.2
					c0.1,1.4,1.9,1.6,2.4,0.3c-0.4,0.3-0.3,0.4,0.2,0.1c0.2-0.1,0.5-0.2,0.7-0.4c0.3-0.3,0.5-0.6,0.6-1c0.2-0.9-0.4-1.6-1.2-1.8
					c-1.1-0.3-2.1,1.2-1.2,2c2.1,1.8,4.2-1.5,1.9-2.6c-0.7-0.3-1.9,0-1.8,1c0.1,0.6,0.2,1,0.8,1.3C61.3,571.5,62.5,569.4,61.1,568.6
					L61.1,568.6z"/>
			</g>
		</g>
		<g>
			<g>
				<path class="st0" d="M78.6,568.2c0.5-0.2,1-0.4,1.5-0.6c1-0.4,1.2-2,0-2.3c-0.2-0.1-0.4-0.2-0.6-0.3c-0.2,0.7-0.4,1.3-0.5,2
					c0.8-0.3,1.6-0.4,2.3-0.9c0.4-0.3,0.7-0.8,0.6-1.4c-0.3-0.8-1.2-1.1-1.3-1.2c-0.2,0.6-0.5,1.2-0.7,1.8c1.7-0.4,5-1,5.9-2.8
					c0.9-1.9-0.3-5.5-0.8-7.4c-0.4-1.5-2.7-0.9-2.3,0.6c0.2,0.8,0.4,1.6,0.6,2.4c0.1,0.7,0.6,2.4,0.4,3c-0.5,1.2-3.2,1.6-4.4,1.8
					c-0.8,0.2-1.1,1.1-0.7,1.8c0.5,0.8,0.9,0.8,1.7,1.2c-0.3-0.3-0.6-0.6-0.8-0.8c0,0.1,0.1,0.2,0.1,0.3c0.2-0.5,0.4-0.9,0.6-1.4
					c-0.6,0.3-1.2,0.5-1.8,0.7c-0.8,0.2-1.3,1.4-0.5,2c0.6,0.5,0.9,0.7,1.6,0.9c0-0.8,0-1.5,0-2.3c-0.5,0.2-1,0.4-1.5,0.6
					C76.5,566.5,77.1,568.8,78.6,568.2L78.6,568.2z"/>
			</g>
		</g>
		<g>
			<g>
				<g>
					<path class="st2" d="M91,558.6c0.4,4.3,0.9,8.5,1.2,12.8c0.1,0.8,1.3,0.8,1.2,0c-0.3-4.3-0.8-8.5-1.2-12.8
						C92.1,557.8,90.9,557.8,91,558.6L91,558.6z"/>
				</g>
			</g>
			<g>
				<g>
					<path class="st2" d="M92.5,571.4c-5.4,0.6-10.5,2.5-16,2.7c-2.8,0.1-5.5-0.4-8.3-0.3c-2.7,0-5.4,0.6-8.1,0.4
						c-0.8,0-0.8,1.2,0,1.2c2.4,0.1,4.8-0.3,7.2-0.4c3.1-0.1,6.2,0.4,9.2,0.3c5.4-0.1,10.6-2,16-2.7
						C93.2,572.5,93.3,571.3,92.5,571.4L92.5,571.4z"/>
				</g>
			</g>
			<g>
				<g>
					<path class="st2" d="M59.7,574.1c-2.6,0-1.6-5.3-0.7-6.7c1.3-1.9,3.7-2.4,5.9-2.8c0.8-0.1,0.4-1.3-0.3-1.2
						c-3.3,0.6-6.5,1.7-7.4,5.3c-0.4,1.7-0.3,3.6,0.1,5.3c0.4,1.4,1.1,1.2,2.4,1.2C60.5,575.3,60.5,574.1,59.7,574.1L59.7,574.1z"/>
				</g>
			</g>
			<g>
				<g>
					<path class="st2" d="M64.4,564.8c6.1-1.2,12.4-1,18.4-2.2c0.8-0.2,0.4-1.3-0.3-1.2c-6,1.3-12.4,1-18.4,2.2
						C63.4,563.8,63.7,564.9,64.4,564.8L64.4,564.8z"/>
				</g>
			</g>
			<g>
				<g>
					<path class="st2" d="M84,561.8c-0.3-2.4-0.6-4.7-0.9-7.1c-0.1-0.8-1.3-0.8-1.2,0c0.3,2.4,0.6,4.7,0.9,7.1
						C82.9,562.5,84.1,562.5,84,561.8L84,561.8z"/>
				</g>
			</g>
			<g>
				<g>
					<path class="st2" d="M82.3,555c3.1,0.1,6.3,0.3,9.4-0.2c0.8-0.1,0.4-1.3-0.3-1.2c-3,0.5-6,0.2-9.1,0.2
						C81.5,553.8,81.5,555,82.3,555L82.3,555z"/>
				</g>
			</g>
			<g>
				<g>
					<path class="st2" d="M92.4,558.3c0.1-1.3,0.2-2.6,0.1-3.9c0-0.8-1.2-0.8-1.2,0c0,1.3,0,2.6-0.1,3.9
						C91.2,559.1,92.4,559.1,92.4,558.3L92.4,558.3z"/>
				</g>
			</g>
			<g>
				<g>
					<path class="st2" d="M58,573.6c1.3,0,2.5,0.6,3.8,0.4c0.8-0.1,0.8-1.3,0-1.2c-1.3,0.2-2.5-0.4-3.8-0.4
						C57.2,572.4,57.2,573.6,58,573.6L58,573.6z"/>
				</g>
			</g>
			<g>
				<g>
					<path class="st2" d="M57.9,573.2c3.3,0.5,6.6,0.8,10,0.8c0.8,0,0.8-1.2,0-1.2c-3.2,0-6.4-0.2-9.6-0.7
						C57.5,571.9,57.2,573.1,57.9,573.2L57.9,573.2z"/>
				</g>
			</g>
			<g>
				<g>
					<path class="st2" d="M67.1,573.9c4.3,0.3,8.8,0.8,13.1,0.5c4-0.4,8.1-1.6,12-2.4c0.8-0.2,0.4-1.3-0.3-1.2
						c-4.2,0.9-8.5,2.2-12.8,2.4c-4,0.2-8-0.3-12-0.5C66.4,572.7,66.4,573.9,67.1,573.9L67.1,573.9z"/>
				</g>
			</g>
			<g>
				<g>
					<path class="st2" d="M58.1,573.8c2,1.2,5.3,1.6,7.5,0.9c0.7-0.2,0.4-1.4-0.3-1.2c-2,0.6-4.9,0.3-6.6-0.8
						C58,572.3,57.4,573.4,58.1,573.8L58.1,573.8z"/>
				</g>
			</g>
			<g>
				<g>
					<path class="st2" d="M64.6,575c2.4,0.3,4.7,0.2,7.1-0.1c0.8-0.1,0.8-1.3,0-1.2c-2.2,0.2-4.5,0.5-6.7,0.1
						C64.2,573.8,63.9,574.9,64.6,575L64.6,575z"/>
				</g>
			</g>
			<g>
				<g>
					<path class="st2" d="M64,572.7c-0.6-0.2-1.1-0.2-1.7-0.3c-0.7,0-0.8,1-0.2,1.2c0.6,0.2,1.1,0.3,1.7,0.4
						c0.1-0.4,0.1-0.8,0.2-1.2c-0.6,0-1.1,0-1.7-0.1c0,0.4,0,0.8,0,1.2c0.3,0,0.5,0,0.8,0c0.8,0.1,1.1-1,0.3-1.2
						c-0.6-0.1-1.1-0.2-1.6-0.4c-0.7-0.2-1,0.9-0.3,1.2c0.5,0.2,1.1,0.3,1.6,0.4c0.1-0.4,0.2-0.8,0.3-1.2c-0.5-0.1-0.9-0.1-1.4,0
						c-0.6,0.1-0.6,1.1,0,1.2c0.7,0.1,1.3,0.1,2,0.1c0.6,0,0.9-1.1,0.2-1.2c-0.6-0.1-1.1-0.2-1.7-0.4c-0.1,0.4-0.1,0.8-0.2,1.2
						c0.5,0,0.9,0.1,1.4,0.2C64.5,574.1,64.8,572.9,64,572.7L64,572.7z"/>
				</g>
			</g>
			<g>
				<g>
					<path class="st2" d="M69.4,574.9c0.7,0.2,1.4,0.4,2.1,0.4c0.8,0,1.6-0.1,2.5,0c0.8,0.1,1.1-1.1,0.3-1.2
						c-1.6-0.2-3.1,0.1-4.6-0.4C69,573.5,68.7,574.7,69.4,574.9L69.4,574.9z"/>
				</g>
			</g>
			<g>
				<g>
					<path class="st2" d="M76.9,574c5.2,0.4,10.3-0.7,15.4-1.8c0.8-0.2,0.4-1.3-0.3-1.2c-5,1-10,2.2-15.1,1.7
						C76.2,572.8,76.2,574,76.9,574L76.9,574z"/>
				</g>
			</g>
			<g>
				<g>
					<path class="st2" d="M72.6,574.1c6.5,0.3,13.6-1,19.8-2.7c0.7-0.2,0.4-1.4-0.3-1.2c-6.2,1.6-13,2.9-19.5,2.6
						C71.9,572.9,71.9,574.1,72.6,574.1L72.6,574.1z"/>
				</g>
			</g>
			<g>
				<g>
					<path class="st2" d="M73.3,564.4c0.5,0.4,0.8,1,0.7,1.7c-0.1,0.8,1,1.1,1.2,0.3c0.2-1.1-0.2-2.2-1-2.9
						C73.5,563,72.7,563.9,73.3,564.4L73.3,564.4z"/>
				</g>
			</g>
			<g>
				<g>
					<path class="st2" d="M77.6,563.8c0.5,0.5,0.6,1.2,0.4,1.9c-0.2,0.7,1,1.1,1.2,0.3c0.3-1.1,0-2.2-0.7-3.1
						C77.9,562.3,77,563.2,77.6,563.8L77.6,563.8z"/>
				</g>
			</g>
			<g>
				<g>
					<path class="st2" d="M81.4,563.2c0.5,0.4,0.7,1.1,0.4,1.7c-0.3,0.7,0.7,1.3,1,0.6c0.5-1.1,0.3-2.4-0.6-3.2
						C81.7,561.9,80.8,562.7,81.4,563.2L81.4,563.2z"/>
				</g>
			</g>
			<g>
				<g>
					<path class="st2" d="M65.8,564.3c1.1,2.8,0.5,5.6-0.1,8.5c-0.2,0.8,1,1.1,1.2,0.3c0.7-3,1.2-6.1,0.1-9.1
						C66.7,563.3,65.5,563.6,65.8,564.3L65.8,564.3z"/>
				</g>
			</g>
			<g>
				<g>
					<path class="st2" d="M83.7,559.6c1.2,0.3,2.5,0.1,3.5-0.7c0.6-0.4,0-1.5-0.6-1c-0.8,0.5-1.6,0.8-2.6,0.6
						C83.2,558.3,82.9,559.4,83.7,559.6L83.7,559.6z"/>
				</g>
			</g>
		</g>
	</g>
	<g>
		<g>
			<g>
				<path class="st0" d="M112.9,560.9c0-0.2-0.1-0.5-0.1-0.7c-0.2-1.1-1.7-1.1-2.2-0.3c-0.4,0.6-0.4,1-0.2,1.7c0.3,1.1,2,1.2,2.3,0
					c0.3-1.4,0.1-2.5-1.6-2.7c-0.4,0-0.8,0.3-1,0.6c-0.6,0.9-0.5,1.9-0.4,2.9c0.2,1.5,2.2,0.9,2.4-0.3c0.2-1.7,0.2-1.6-0.6-3.2
					c-0.4-1-1.9-0.6-2.2,0.3c-0.4,1-0.6,2-0.7,3c0.8,0.1,1.6,0.2,2.4,0.3c-0.1-1-0.1-1.9-0.2-2.9c-0.1-1.3-2.1-1.7-2.4-0.3
					c-0.1,0.9-0.3,1.9-0.4,2.8c0.8,0.1,1.6,0.2,2.4,0.3c0.1-0.7,0.1-1.5,0.2-2.2c0.1-1.3-2.1-1.7-2.4-0.3c-0.1,0.7-0.2,1.5-0.3,2.2
					c0.8,0.1,1.6,0.2,2.4,0.3c0.1-0.9,0.2-1.7,0.2-2.6c0.1-1.5-2.3-1.5-2.4,0c-0.1,0.7-0.1,1.4-0.2,2.2c-0.1,1.3,2.1,1.6,2.4,0.3
					c0.3-1.4,0.3-1.7,0.4-3.1c-0.8,0-1.6,0-2.4,0c0,0.6-0.1,1.3-0.1,1.9c-0.1,1.5,2.3,1.5,2.4,0c0.1-1,0.1-2,0.2-3
					c-0.8,0-1.6,0-2.4,0c0,0.6,0,1.2,0,1.8c0.8-0.1,1.6-0.2,2.4-0.3c-0.2-1.1-0.8-4.2-0.5-5.6c-0.5,0.3-1,0.6-1.5,0.8
					c2.2,0.3,3.9,0.3,6.3,0c-0.1-0.8-0.2-1.6-0.3-2.4c-1.4,0.6-2.8,0.6-4.2,0.1c-0.1,0.8-0.2,1.6-0.3,2.4c1.8-0.2,2.3,4.2,2.5,5.3
					c0.3,1.1,2.1,1.2,2.3,0c0.4-1.8,0.4-1.7,0.3-3.6c-0.8,0-1.6,0-2.4,0c0.1,1.1,0.2,2.2,0.3,3.3c0.1,1.5,2.3,1.5,2.4,0
					c0.1-1.4,0.1-2.5-0.1-3.9c-0.2-1.2-2.1-1.8-2.4-0.3c-0.2,1-0.2,1.4-0.2,2.5c0,1.3,2,1.6,2.4,0.3c0.3-1.4,0.4-1.8,0.6-3.2
					c0.2-1.4-2-1.6-2.4-0.3c-0.5,1.6-0.5,1.3-0.3,2.9c0.1,1.4,1.9,1.6,2.4,0.3c0.4-0.9,0.7-1.8,0.8-2.8c0.3-1-0.8-1.8-1.8-1.4
					c-1.7,0.9-2.1,3.4-2.6,5.1c0.8,0.1,1.6,0.2,2.4,0.3c0-1.7-0.2-3.1-0.7-4.7c-0.4-1.4-2.2-1-2.4,0.3c-0.1,1.5-0.2,3-0.2,4.6
					c0.8-0.1,1.6-0.2,2.4-0.3c-0.2-1.3-0.5-2.5-0.7-3.7c-0.3-1.4-2.2-0.9-2.4,0.3c-0.1,1.1-0.3,2.2-0.4,3.4c0.8,0,1.6,0,2.4,0
					c-0.1-1.4-0.2-2.1-0.4-3.5c-0.2-1.4-2.3-1-2.4,0.3c-0.1,1-0.1,2-0.2,3.1c0.8,0,1.6,0,2.4,0c-0.1-1-0.2-2-0.3-3
					c-0.1-1.2-2.1-1.8-2.4-0.3c-0.4,2.8-0.3,5.6-0.6,8.4c0.8,0,1.6,0,2.4,0c0.1-1.2,0.1-1.3-0.1-2.6c-0.2-1.3-2.5-1-2.4,0.3
					c0.2,1.7,0.2,4.1,2.1,4.7c0.4,0.1,0.9,0,1.2-0.3c1.7-1.7,1.5-4.4,0.8-6.5c-0.4-1.3-2.3-1-2.4,0.3c-0.1,2,0.1,4.3,1.8,5.7
					c0.4,0.3,1,0.5,1.5,0.2c2.3-1.4,0.8-4.3-0.6-5.8c-0.7-0.7-2.1-0.2-2,0.8c0.1,1.6,1.3,6.4,4,4.7c2-1.2,0.7-4.8-1-5.6
					c-0.4-0.2-0.8-0.2-1.2,0c-2.6,1.7-2,7.4,0.2,9.3c1.7,1.4,4.4,1.3,6.4,1.5c4.1,0.4,8.2,0.5,12.3,0.5c1,0,1.4-1,1-1.8
					c-0.2-0.9-0.4-1.9-0.6-2.8c-0.8,0.1-1.6,0.2-2.4,0.3c0.2,1.1,0.2,1.1,0.7,2.1c0.6,1.2,2.7,0.4,2.2-0.9c-0.8-1.6-0.9-3.3-0.3-5
					c-0.8-0.1-1.6-0.2-2.4-0.3c-0.1,1-0.1,1.9,0,2.9c0.1,1.6,2.2,1.5,2.4,0c0.1-0.9,0.3-1.9,0.4-2.8c0.1-0.8-0.3-1.5-1.2-1.5
					c-2.6-0.2-5.1-0.4-7.7-0.5c-2.8-0.2-6.7,0.3-9.2-0.9c-0.3,0.7-0.6,1.5-0.9,2.2c0.3,0.3,0.7,0.5,1,0.8c0.9,1,2.7-0.3,1.9-1.5
					c-0.2-0.2-0.3-0.5-0.5-0.7c-0.6,0.5-1.3,1-1.9,1.5c0.2,0.2,0.4,0.4,0.6,0.6c0.8,0.8,2.4,0,2-1.2c-0.3-0.8-0.4-1-1-1.6
					c-0.6,0.6-1.1,1.1-1.7,1.7c0.9,0.7,1,0.8,2.1,1c1.2,0.2,2.3-1.6,0.9-2.2c-0.8-0.3-1.5-0.7-2.1-1.2c-1.3-0.8-2.5,1.3-1.2,2.1
					c0.7,0.5,1.4,0.9,2.1,1.2c0.3-0.7,0.6-1.5,0.9-2.2c-0.4-0.1-0.7-0.2-1.1-0.4c-1.2-0.9-2.9,0.6-1.7,1.7c0.1,0.2,0.2,0.3,0.4,0.5
					c0.7-0.4,1.3-0.8,2-1.2c-0.2-0.2-0.4-0.4-0.6-0.6c-0.9-0.9-2.7,0.3-1.9,1.5c0.2,0.2,0.3,0.5,0.5,0.7c0.6-0.5,1.3-1,1.9-1.5
					c-0.8-0.9-1-0.9-2-1.4c-1.3-0.5-2.1,1.6-0.9,2.2c2.3,1.1,4.4,1,7,1.1c3.7,0.1,7.4,0.4,11.1,0.7c-0.4-0.5-0.8-1-1.2-1.5
					c-0.2,1.2-0.3,2.3-0.5,3.4c0.8,0,1.6,0,2.4,0c-0.1-1-0.1-1.9,0-2.9c0.1-1.3-2.1-1.6-2.4-0.3c-0.5,2.3-0.5,4,0.3,6.3
					c0.7-0.3,1.5-0.6,2.2-0.9c-0.1-0.5-0.3-1-0.4-1.5c-0.2-1.4-2.3-1-2.4,0.3c0,1.6,0.2,2.7,0.9,4.1c0.3-0.6,0.7-1.2,1-1.8
					c-3.3,0-6.6-0.1-9.9-0.3c-1.5-0.1-4.5,0.1-5.8-0.6c-2.7-1.6-2.6-4.4-2.8-7.1c-0.7,0.3-1.4,0.6-2,0.8c0.5-0.6,1-1.2,1.5-1.8
					c-0.8,0.1-1.6,0.2-2.4,0.3c0.1,3.7,0.3,4.2,0.6,1.4c-0.8,0.1-1.6,0.2-2.4,0.3c0,0.6,0,1.3,0,1.9c-0.1,1.5,2.3,1.5,2.4,0
					c0.2-2.5,0.1-5.3,0.5-7.8c-0.8-0.1-1.6-0.2-2.4-0.3c0.1,1,0.2,2,0.3,3c0.1,1.5,2.3,1.6,2.4,0c0.1-1,0.1-2,0.2-3.1
					c-0.8,0.1-1.6,0.2-2.4,0.3c0.1,0.9,0.2,1.9,0.3,2.8c0.1,1.6,2.2,1.5,2.4,0c0.1-1.1,0.3-2.2,0.4-3.4c-0.8,0.1-1.6,0.2-2.4,0.3
					c0.3,1.2,0.5,2.5,0.7,3.7c0.2,1.4,2.4,1,2.4-0.3c0-1.5,0.1-3,0.2-4.6c-0.8,0.1-1.6,0.2-2.4,0.3c0.5,1.3,0.7,2.7,0.6,4.1
					c0,1.3,2,1.7,2.4,0.3c0.3-1.3,0.7-2.5,1.5-3.7c-0.6-0.5-1.2-0.9-1.8-1.4c-0.2,1-0.5,1.9-0.8,2.8c0.8,0.1,1.6,0.2,2.4,0.3
					c0.1-0.8,0.2-1.5,0.2-2.3c-0.8-0.1-1.6-0.2-2.4-0.3c-0.2,0.9-0.3,1.7-0.5,2.6c0.8,0.1,1.6,0.2,2.4,0.3c0.1-0.6,0.1-1.2,0.2-1.8
					c-0.8-0.1-1.6-0.2-2.4-0.3c0.2,1.4,0.2,2.5,0.1,3.9c0.8,0,1.6,0,2.4,0c-0.1-1.1-0.2-2.2-0.3-3.3c-0.1-1.5-2.4-1.6-2.4,0
					c-0.1,1-0.2,2-0.3,3c0.8,0,1.5,0,2.3,0c-0.9-3.3-0.7-7.5-4.9-7c-1.3,0.2-1.7,2-0.3,2.4c1.9,0.6,3.6,0.5,5.5-0.1
					c1.2-0.4,1.1-2.5-0.3-2.4c-2,0.2-3.7,0.3-5.6,0.1c-0.6-0.1-1.3,0.1-1.5,0.8c-0.5,2.1,0.2,4.8,0.5,6.9c0.2,1.4,2.4,1,2.4-0.3
					c0-0.6,0-1.2,0-1.8c0-1.6-2.3-1.5-2.4,0c-0.1,1-0.1,2-0.2,3c0.8,0,1.6,0,2.4,0c0-0.6,0.1-1.3,0.1-1.9c0.1-1.5-2.3-1.5-2.4,0
					c-0.1,0.8-0.2,1.6-0.3,2.4c0.8,0.1,1.6,0.2,2.4,0.3c0.1-0.7,0.1-1.4,0.2-2.2c-0.8,0-1.6,0-2.4,0c0,0.9-0.1,1.8-0.2,2.6
					c-0.2,1.3,2.1,1.7,2.4,0.3c0.1-0.7,0.2-1.5,0.3-2.2c-0.8-0.1-1.6-0.2-2.4-0.3c-0.1,0.7-0.1,1.5-0.2,2.2
					c-0.1,1.3,2.1,1.7,2.4,0.3c0.1-0.9,0.3-1.9,0.4-2.8c-0.8-0.1-1.6-0.2-2.4-0.3c0.1,1,0.1,1.9,0.2,2.9c0.1,1.3,2.1,1.7,2.4,0.3
					c0.1-1,0.4-2,0.7-3c-0.7,0.1-1.5,0.2-2.2,0.3c0.1,0.7,0.1,1.3,0.2,2c0.8-0.1,1.6-0.2,2.4-0.3c-0.6-0.3-1.1-0.6-1.7-0.9
					c0.8,0,1.5,0,2.3,0c0,0.1,0,0.1,0,0.2c-0.7-0.1-1.5-0.2-2.2-0.3c0,0.2,0.1,0.5,0.1,0.7C110.8,563,113.1,562.4,112.9,560.9
					L112.9,560.9z"/>
			</g>
		</g>
		<g>
			<g>
				<path class="st0" d="M115.8,568.7c-1.7-0.1-4.6-0.2-5.9-1.5c-1.3-1.3-0.5-3.2-0.3-5c-0.8,0.1-1.6,0.2-2.4,0.3
					c0.6,2.2,2,7.7,5.2,5.5c0.9-0.6,0.7-1.8-0.3-2.2c-1.2-0.5-2.8-0.8-3.4,0.6c-0.3,0.6-0.1,1.2,0.4,1.6c4.3,2.9,1.8-11.6,1.8-13
					c0-1.6-2.2-1.5-2.4,0c-0.3,2.6-0.6,5.2-0.6,7.8c0.8-0.1,1.6-0.2,2.4-0.3c-0.1-1-0.2-1.9-0.3-2.9c0-1.3-2.1-1.7-2.4-0.3
					c-0.2,1.1-0.2,1.4-0.2,2.5c0.8,0,1.6,0,2.4,0c-0.1-1.1-0.1-2.2,0-3.3c-0.7,0.2-1.5,0.4-2.2,0.6c2.3,4.3,6.4,6,10.9,7.2
					c1.3,0.3,2.2-1.6,0.9-2.2c-1.8-0.8-4.6-0.9-5.2,1.6c-0.4,1.9,1.5,3.5,3.3,2.8c4.9-2.1-1.9-8.1-3.1-3.2c-1.2,4.8,7,3,3.5-1.1
					c-3.5-4.2-6.8,3-3.2,3.5c0.8,0.1,1.3-0.8,1.2-1.5c-0.4-1.6-1.3-2.7-2.9-1.8c-0.5,0.3-0.6,0.8-0.6,1.4c0.8,4.9,9.6,0.1,6-3.1
					c-0.3,0.7-0.6,1.4-0.8,2c1.5,0.2,3,0.4,4.5,0.6c-0.4-0.4-0.8-0.8-1.2-1.2c-0.3,2.7,0,4-3.3,3.2c0.2,0.7,0.4,1.3,0.5,2
					c1-1,1.7-2.6,2.8-3.4c-0.6-0.5-1.2-0.9-1.8-1.4c-0.2,1.4-0.7,2.9-0.3,4.3c0.1,0.4,0.4,0.8,0.8,0.8c1.1,0.2,2.7-0.7,3.7-0.2
					c0.9,0.4,2.1-0.3,1.8-1.4c-0.6-1.3-0.6-2.6-0.2-3.8c-0.5,0.2-0.9,0.4-1.4,0.6c1.7,0.2,1.1,2.7,1.1,3.8c0.5-0.4,1-0.8,1.5-1.2
					c-0.6-0.2,0.4-1.9,0.6-2c1.3-1,1.1,0.3,1.4,1.3c0.5,1.6,0.2,0.5-1.1,0.7c0.5,0.5,1,1,1.5,1.5c0.2-1.4,0.2-2.5,0-3.9
					c-0.2-1.5-2.5-0.9-2.3,0.6c0,0.9,0,1.7,0,2.6c-0.2,0.9,0.5,1.7,1.5,1.5c1.6-0.3,2.5,0.3,2.9-1.6c0.4-1.7,0-4.6-1.6-5.5
					c-4.9-2.5-7.7,5.9-3.6,7c0.8,0.2,1.5-0.4,1.5-1.2c0.1-3.1,0.9-5.6-2.9-6.2c-0.6-0.1-1,0.1-1.4,0.6c-1.1,1.7-0.6,3.9-0.1,5.7
					c0.6-0.5,1.2-0.9,1.8-1.4c-0.8-0.4-1.1-0.5-1.9-0.5c-1.9,0-1.8,1.5-1.2-1.7c0.2-0.9-0.8-2-1.8-1.4c-1.5,1-2,2.5-3.3,3.8
					c-0.6,0.6-0.4,1.8,0.5,2c5.7,1.3,5.7-0.5,6.3-5.5c0.1-0.7-0.6-1.1-1.2-1.2c-1.5-0.2-3-0.4-4.5-0.6c-1-0.1-1.6,1.4-0.8,2
					c-0.6,0.3-1.3,0.5-1.9,0.8c-0.2,0.5-0.4,0.9-0.6,1.4c-0.2,0.1-0.4,0.2-0.6,0.3c0.4-0.5,0.8-1,1.2-1.5c1.2,0.3,2.3,0.5,3.5,0.8
					c0.3-0.7,0.6-1.5,0.9-2.2c-3.9-1.1-7.5-2.4-9.5-6.1c-0.6-1.1-2.2-0.5-2.2,0.6c-0.1,1.1-0.1,2.2,0,3.3c0.1,1.5,2.4,1.6,2.4,0
					c0.1-0.6,0.1-1.2,0.2-1.9c-0.8-0.1-1.6-0.2-2.4-0.3c0,1.8,0,1.7,0.4,3.5c0.3,1.4,2.3,1,2.4-0.3c0.1-2.6,0.3-5.2,0.6-7.8
					c-0.8,0-1.6,0-2.4,0c0,1.7,0.6,3.2,0.7,5c0.2,2-0.7,4.7,1.1,5.9c0.1,0.5,0.3,1.1,0.4,1.6c0.2,0.2,0.5,0.4,0.7,0.5
					c-0.1-0.7-0.2-1.5-0.3-2.2c-0.8-1.3-1.4-2.6-1.7-4.1c-0.4-1.4-2.2-0.9-2.4,0.3c-0.3,2.2-1.4,5.3,0.5,7c1.9,1.7,5.7,1.8,8.1,2
					C117.3,571.2,117.3,568.8,115.8,568.7L115.8,568.7z"/>
			</g>
		</g>
		<g>
			<g>
				<path class="st1" d="M139.5,568.8c0.5-0.3,0.7-0.7,0.8-1.3c0.1-1-1.1-1.4-1.8-1c-2.3,1-0.2,4.3,1.9,2.6c0.9-0.8-0.1-2.3-1.2-2
					c-0.8,0.2-1.3,0.9-1.2,1.8c0.1,0.4,0.3,0.7,0.6,1c0.2,0.2,0.4,0.3,0.7,0.4c0.5,0.2,0.6,0.2,0.2-0.1c0.4,1.3,2.3,1,2.4-0.3
					c0.2-3.4-2.1-6.4-5.4-7.2c-1.4-0.3-3.2-0.6-3.6,1.1c-0.4,2.1,0.7,4.4,0.8,6.5c0.7-0.2,1.5-0.4,2.2-0.6c-0.4-0.9-0.6-1.7-0.8-2.6
					c-0.8,0.2-1.5,0.4-2.3,0.6c0.3,1.1,0.6,2.2,0.9,3.3c0.8-0.2,1.5-0.4,2.3-0.6c-0.2-0.7-0.4-1.3-0.4-2c-0.8,0.1-1.6,0.2-2.4,0.3
					c0.3,1.2,0.8,2.4,2.1,2.9c1.4,0.5,3.2,0.3,4.6,0.3c-0.1-0.8-0.2-1.6-0.3-2.4c-0.9,0.2-3.1,0.9-3.9,0.6c0,0.8,0,1.5,0,2.3
					c1.6-0.3,3.3-0.6,3.7-2.4c0.4-1.5-0.5-2.9-1.5-4c-2.7-2.9-5.1,2.6-2.7,4.3c1.2,0.8,2.5,0,3-1.2c0.5-1.3,0.3-3.2-0.6-4.3
					c-0.8-1-2.3-0.9-2.8,0.4c-0.5,1.5,0.4,3.7,1.1,5c0.5,1.1,2.2,0.5,2.2-0.6c0-1.7-0.5-3.3-1.4-4.7c-0.5-0.7-1.6-0.9-2.1,0
					c-0.7,1.3-0.2,3.2,1.3,3.7c0.4,0.1,0.9,0,1.2-0.3c1.2-1.2,0.4-3.9-1.2-4.4c-1.9-0.6-2.3,1.8-1.3,2.8c0.7,0.7,2.2,0.2,2-0.8
					c-0.1-0.9-0.4-1.5-1-2.2c-0.7-0.7-2.1-0.2-2,0.8c0,0.1,0,0.3,0,0.4c0.1,1.5,2.5,1.5,2.4,0c0-0.1,0-0.3,0-0.4
					c-0.7,0.3-1.4,0.6-2,0.8c0.1,0.2,0.2,0.3,0.3,0.5c0.7-0.3,1.4-0.6,2-0.8c-0.1-0.1-0.1-0.2-0.2-0.2c0,0.3,0.1,0.6,0.1,0.9
					c0-0.1,0-0.2,0.1-0.3c-0.2,0.2-0.4,0.5-0.6,0.7c0.1,0,0.2-0.1,0.2-0.1c-0.4,0-0.8,0-1.2,0c0.4,0.3,0.5,0.7,0.5,1.2
					c0.1-0.3,0.2-0.6,0.4-0.8c-0.1,0.1-0.1,0.2-0.2,0.2c0.4-0.1,0.8-0.2,1.2-0.3c0-0.1,0.1-0.1,0.1-0.2c-0.7,0-1.4,0-2.1,0
					c0.7,1.1,1.1,2.2,1.1,3.5c0.7-0.2,1.5-0.4,2.2-0.6c-0.3-0.6-0.5-1.2-0.7-1.8c-0.1-0.3-0.1-0.6-0.1-0.9c0-0.6,0-0.7,0-0.3
					c-0.2,0.2-0.5,0.4-0.7,0.6c0.1,0,0.2,0,0.2,0c-0.3,0-0.6-0.1-0.9-0.1c0.5,0.3,0.1,1.2,0.3,1.5c0.5,0.6,0.9-0.7,1.1-0.9
					c-0.2,0.2-0.5,0.4-0.7,0.6c0.1,0,0.2,0,0.3,0c-0.3,0-0.6-0.1-0.9-0.1c0.5,0.3,1.3,1.2,1.3,1.7c0,0.9-1.3,0.9-2,1
					c-1.3,0.2-1,1.9,0,2.3c1.4,0.6,3.7-0.3,5.2-0.6c1.4-0.3,1-2.3-0.3-2.4c-0.9,0-1.7,0-2.6,0c-1.1,0-1.5-0.3-1.8-1.4
					c-0.3-1.3-2.5-1.1-2.4,0.3c0.1,0.9,0.2,1.8,0.5,2.6c0.5,1.4,2.8,0.9,2.3-0.6c-0.3-1.1-0.6-2.2-0.9-3.3c-0.4-1.5-2.6-0.9-2.3,0.6
					c0.2,1.1,0.6,2.2,1,3.2c0.5,1.1,2.3,0.5,2.2-0.6c-0.1-1-0.2-1.9-0.4-2.8c-0.1-0.5-0.2-0.9-0.3-1.4c-0.1-0.3-0.3-1.5-0.3-1.6
					c-0.3,0.1-0.6,0.2-0.8,0.4c3-0.2,5.4,2.1,5.2,5c0.8-0.1,1.6-0.2,2.4-0.3c-0.4-1.1-1.1-1.1-2-1.6c0.2,0.2,0.4,0.5,0.6,0.7
					c0,0,0,0.1,0,0.1c-0.3,0.3-0.6,0.6-0.8,0.8c0.1,0,0.2,0,0.2-0.1c-0.4-0.7-0.8-1.3-1.2-2c-0.1,0.1-0.2,0.1-0.2,0.2
					c0.3-0.1,0.6-0.2,0.8-0.4c0,0,0,0,0,0c0.2,0.2,0.4,0.5,0.6,0.7c0-0.1,0-0.2-0.1-0.3c0,0.3-0.1,0.6-0.1,0.9c0,0,0,0,0,0
					c-0.6-0.3-1.2-0.7-1.8-1c0,0.1,0,0.1,0,0.2c0.2-0.3,0.4-0.7,0.6-1c-0.1,0-0.1,0.1-0.2,0.1C136.9,567.5,138.1,569.6,139.5,568.8
					L139.5,568.8z"/>
			</g>
		</g>
		<g>
			<g>
				<path class="st0" d="M121.5,564c-0.5-0.2-1-0.4-1.5-0.6c0,0.8,0,1.5,0,2.3c0.7-0.2,1-0.4,1.6-0.9c0.8-0.6,0.2-1.8-0.5-2
					c-0.6-0.2-1.2-0.4-1.8-0.7c0.2,0.5,0.4,0.9,0.6,1.4c0-0.1,0.1-0.2,0.1-0.3c-0.3,0.3-0.6,0.6-0.8,0.8c0.8-0.3,1.3-0.4,1.7-1.2
					c0.4-0.6,0-1.6-0.7-1.8c-1.3-0.3-3.7-0.6-4.4-1.8c-0.5-1.1,0.6-4.3,1-5.4c0.4-1.5-1.9-2.1-2.3-0.6c-0.5,1.9-1.8,5.5-0.8,7.4
					c0.9,1.8,4.2,2.4,5.9,2.8c-0.2-0.6-0.5-1.2-0.7-1.8c-0.1,0.1-1,0.5-1.3,1.2c-0.2,0.5,0.1,1.1,0.6,1.4c0.7,0.5,1.5,0.7,2.3,0.9
					c-0.2-0.7-0.4-1.3-0.5-2c-0.2,0.1-0.4,0.2-0.6,0.3c-1.2,0.3-1,1.9,0,2.3c0.5,0.2,1,0.4,1.5,0.6
					C122.3,566.9,122.9,564.5,121.5,564L121.5,564z"/>
			</g>
		</g>
		<g>
			<g>
				<g>
					<path class="st2" d="M107.2,556.6c-0.4,4.3-0.9,8.5-1.2,12.8c-0.1,0.8,1.1,0.8,1.2,0c0.3-4.3,0.8-8.5,1.2-12.8
						C108.5,555.9,107.3,555.9,107.2,556.6L107.2,556.6z"/>
				</g>
			</g>
			<g>
				<g>
					<path class="st2" d="M106.9,570.6c5.4,0.6,10.5,2.6,16,2.7c2.8,0.1,5.5-0.4,8.3-0.3c2.7,0,5.4,0.6,8.1,0.4c0.8,0,0.8-1.2,0-1.2
						c-2.4,0.1-4.8-0.3-7.2-0.4c-3.1-0.1-6.2,0.4-9.2,0.3c-5.4-0.2-10.6-2-16-2.7C106.1,569.3,106.1,570.5,106.9,570.6L106.9,570.6z
						"/>
				</g>
			</g>
			<g>
				<g>
					<path class="st2" d="M139.6,573.4c1.1,0,1.9,0.3,2.4-0.8c0.7-1.5,0.6-4.1,0.2-5.7c-0.9-3.6-4.1-4.7-7.4-5.3
						c-0.8-0.1-1.1,1-0.3,1.2c2.1,0.4,4.6,0.8,5.9,2.8c0.9,1.4,1.9,6.7-0.7,6.7C138.9,572.1,138.9,573.3,139.6,573.4L139.6,573.4z"
						/>
				</g>
			</g>
			<g>
				<g>
					<path class="st2" d="M135.3,561.7c-6.1-1.2-12.4-1-18.4-2.2c-0.8-0.2-1.1,1-0.3,1.2c6,1.3,12.4,1,18.4,2.2
						C135.7,563,136,561.8,135.3,561.7L135.3,561.7z"/>
				</g>
			</g>
			<g>
				<g>
					<path class="st2" d="M116.6,559.8c0.3-2.4,0.6-4.7,0.9-7.1c0.1-0.8-1.1-0.8-1.2,0c-0.3,2.4-0.6,4.7-0.9,7.1
						C115.3,560.6,116.5,560.6,116.6,559.8L116.6,559.8z"/>
				</g>
			</g>
			<g>
				<g>
					<path class="st2" d="M117.1,551.9c-3,0.1-6.1,0.4-9.1-0.2c-0.8-0.1-1.1,1-0.3,1.2c3.1,0.5,6.2,0.3,9.4,0.2
						C117.9,553.1,117.9,551.9,117.1,551.9L117.1,551.9z"/>
				</g>
			</g>
			<g>
				<g>
					<path class="st2" d="M108.2,556.4c-0.1-1.3-0.2-2.6-0.1-3.9c0-0.8-1.2-0.8-1.2,0c0,1.3,0,2.6,0.1,3.9
						C107,557.1,108.2,557.1,108.2,556.4L108.2,556.4z"/>
				</g>
			</g>
			<g>
				<g>
					<path class="st2" d="M141.4,570.4c-1.3,0-2.5,0.6-3.8,0.4c-0.8-0.1-0.8,1.1,0,1.2c1.3,0.2,2.5-0.4,3.8-0.4
						C142.2,571.6,142.2,570.4,141.4,570.4L141.4,570.4z"/>
				</g>
			</g>
			<g>
				<g>
					<path class="st2" d="M141.2,570.1c-3.2,0.5-6.4,0.7-9.6,0.7c-0.8,0-0.8,1.2,0,1.2c3.3,0,6.7-0.3,10-0.8
						C142.2,571.1,141.9,570,141.2,570.1L141.2,570.1z"/>
				</g>
			</g>
			<g>
				<g>
					<path class="st2" d="M132.3,570.8c-3.9,0.3-8,0.7-12,0.5c-4.3-0.2-8.6-1.5-12.8-2.4c-0.8-0.2-1.1,1-0.3,1.2c4,0.8,8,2,12,2.4
						c4.3,0.4,8.8-0.2,13.1-0.5C133,571.9,133,570.7,132.3,570.8L132.3,570.8z"/>
				</g>
			</g>
			<g>
				<g>
					<path class="st2" d="M140.7,570.8c-1.7,1.1-4.6,1.4-6.6,0.8c-0.7-0.2-1.1,0.9-0.3,1.2c2.3,0.7,5.5,0.3,7.5-0.9
						C142,571.4,141.4,570.4,140.7,570.8L140.7,570.8z"/>
				</g>
			</g>
			<g>
				<g>
					<path class="st2" d="M134.4,571.9c-2.3,0.3-4.5,0.1-6.7-0.1c-0.8-0.1-0.8,1.1,0,1.2c2.4,0.3,4.7,0.4,7.1,0.1
						C135.5,573,135.2,571.8,134.4,571.9L134.4,571.9z"/>
				</g>
			</g>
			<g>
				<g>
					<path class="st2" d="M135.7,571.9c0.5-0.1,0.9-0.2,1.4-0.2c-0.1-0.4-0.1-0.8-0.2-1.2c-0.6,0.2-1.1,0.3-1.7,0.4
						c-0.7,0.1-0.5,1.1,0.2,1.2c0.7,0,1.3,0,2-0.1c0.6-0.1,0.6-1.1,0-1.2c-0.5-0.1-0.9-0.1-1.4,0c0.1,0.4,0.2,0.8,0.3,1.2
						c0.6-0.1,1.1-0.2,1.6-0.4c0.7-0.2,0.4-1.4-0.3-1.2c-0.5,0.2-1.1,0.3-1.6,0.4c-0.8,0.1-0.4,1.3,0.3,1.2c0.3,0,0.5,0,0.8,0
						c0-0.4,0-0.8,0-1.2c-0.6,0.1-1.1,0.1-1.7,0.1c0.1,0.4,0.1,0.8,0.2,1.2c0.6-0.1,1.1-0.2,1.7-0.4c0.6-0.2,0.5-1.2-0.2-1.2
						c-0.6,0-1.1,0.1-1.7,0.3C134.6,571,134.9,572.2,135.7,571.9L135.7,571.9z"/>
				</g>
			</g>
			<g>
				<g>
					<path class="st2" d="M129.7,571.8c-1.6,0.5-3,0.2-4.6,0.4c-0.8,0.1-0.4,1.3,0.3,1.2c0.8-0.1,1.6,0,2.5,0c0.7,0,1.4-0.2,2.1-0.4
						C130.7,572.8,130.4,571.6,129.7,571.8L129.7,571.8z"/>
				</g>
			</g>
			<g>
				<g>
					<path class="st2" d="M122.5,570.9c-5.1,0.4-10.1-0.7-15.1-1.7c-0.8-0.2-1.1,1-0.3,1.2c5.1,1,10.2,2.2,15.4,1.8
						C123.2,572,123.2,570.8,122.5,570.9L122.5,570.9z"/>
				</g>
			</g>
			<g>
				<g>
					<path class="st2" d="M126.8,571c-6.4,0.3-13.3-1-19.5-2.6c-0.7-0.2-1.1,1-0.3,1.2c6.2,1.6,13.3,3,19.8,2.7
						C127.5,572.2,127.5,571,126.8,571L126.8,571z"/>
				</g>
			</g>
			<g>
				<g>
					<path class="st2" d="M125.3,561.6c-0.9,0.7-1.2,1.8-1,2.9c0.1,0.8,1.3,0.4,1.2-0.3c-0.1-0.7,0.2-1.3,0.7-1.7
						C126.7,562,125.9,561.1,125.3,561.6L125.3,561.6z"/>
				</g>
			</g>
			<g>
				<g>
					<path class="st2" d="M121,561c-0.7,0.8-1,2-0.7,3.1c0.2,0.7,1.4,0.4,1.2-0.3c-0.2-0.7,0-1.4,0.4-1.9
						C122.4,561.2,121.5,560.4,121,561L121,561z"/>
				</g>
			</g>
			<g>
				<g>
					<path class="st2" d="M117.1,560.4c-0.9,0.8-1.1,2.1-0.6,3.2c0.3,0.7,1.4,0.1,1-0.6c-0.3-0.6-0.1-1.3,0.4-1.7
						C118.6,560.8,117.7,559.9,117.1,560.4L117.1,560.4z"/>
				</g>
			</g>
			<g>
				<g>
					<path class="st2" d="M132.5,562.1c-1.1,3-0.6,6.1,0.1,9.1c0.2,0.8,1.3,0.4,1.2-0.3c-0.6-2.8-1.2-5.7-0.1-8.5
						C133.9,561.7,132.7,561.3,132.5,562.1L132.5,562.1z"/>
				</g>
			</g>
			<g>
				<g>
					<path class="st2" d="M115.4,556.5c-0.9,0.2-1.8,0-2.6-0.6c-0.6-0.5-1.2,0.6-0.6,1c1,0.7,2.3,0.9,3.5,0.7
						C116.5,557.5,116.2,556.3,115.4,556.5L115.4,556.5z"/>
				</g>
			</g>
		</g>
	</g>
</g>
</svg>
