<?xml version="1.0" encoding="utf-8"?>
<!-- Generator: Adobe Illustrator 22.1.0, SVG Export Plug-In . SVG Version: 6.00 Build 0)  -->
<svg version="1.1" id="Layer_1" xmlns="http://www.w3.org/2000/svg" xmlns:xlink="http://www.w3.org/1999/xlink" x="0px" y="0px"
	 viewBox="0 0 200 600" style="enable-background:new 0 0 200 600;" xml:space="preserve">
<style type="text/css">
	.st0{fill:#7C006C;}
	.st1{fill:#000E41;}
	.st2{fill:#66006C;}
</style>
<g>
	<g>
		<g>
			<g>
				<g>
					<path class="st0" d="M93.8,31.1c-0.1,0-0.3,0-0.4,0c0,1.1,0,2.3,0,3.5c-2.8,1.8-7.1-0.3-10.1,0c-1.4,0.2-2.6,0.7-3.9,1.4
						c-5,3.1-9.5,7.4-13.9,11c-1.3,1.1-1.1,3.9,0.9,3.8c5.9-0.4,11.3-2.1,16.4-5.1c2.2-1.2,0.3-4.6-1.9-3.5
						c-0.8,0.4-1.7,0.8-2.4,1.2c-2,1-0.5,4.1,1.4,3.7c6.2-1.6,12.3-1.8,18.5-0.6c0.2-1.3,0.3-2.7,0.5-3.9c-0.3,0-0.5-0.1-0.8-0.1
						c-0.5,1.2-0.9,2.5-1.4,3.7c4.8,1.3,8.8-1.9,13.4-1.3c0-1.3,0-2.7,0-4c-1.1,0.2-2.3,0.2-3.4-0.2c-2.4-0.7-3.2,3-1,3.9
						c7,2.7,13.8,0.6,21.1,1.1c0-1.3,0-2.7,0-4c-1.5,0.1-3.1,0.1-4.6,0.2c-2.4,0.1-2.4,3.9,0,4c3.7,0.2,7.3,0.9,10.9,1.9
						c1.5,0.4,3-1.4,2.1-2.9c-1.8-3-3.1-6-4.3-9.4c-1.1,0.6-2.3,1-3.4,1.6c0.7,1,1.3,2,1.8,3.1c0.7-1,1.4-2,2.1-2.9
						c-11.8-2.9-24.5-4.5-36.5-2.6c-5.4,0.8-10.5,2.8-15.9,3.7c-5,0.7-8.9,2.8-12.2,7c1,0.7,2.1,1.3,3.1,2c0.3-0.6,0.6-1,0.9-1.6
						c1-1,0.5-3.1-0.8-3.3c-1-0.2-1.7-0.1-2.6,0.4c0.8,0.9,1.7,1.8,2.6,2.8c0.7-1.7,1.4-3,2.4-4.6c1.1-1.9-1.4-4.1-2.9-2.5
						c-0.4,0.4-0.7,0.9-1.1,1.3c0.9,0.8,2,1.7,2.9,2.5c2.2-4.1,4.8-7.6,8.3-10.5c-0.7-1-1.5-2.1-2.3-3.1c-3.2,3.5-5.4,7.6-7.3,12
						c-1,2.3,1.9,4.2,3.2,2c1-1.8,3-4.7,5.1-5.2c-0.7-0.3-1.4-0.7-2.1-0.9c0.6,2.1-0.1,3.6-2.1,4.3c0.7,0.4,1.5,0.9,2.3,1.4
						c0,1.4,0.4,1.6,1.1,0.4c-1.2-0.1-2.5-0.2-3.7-0.4c0.3,1.2,0.6,2.5,0.9,3.8c4.1-2.2,8.3-5,12.9-5.6c4.8-0.7,9.7-0.2,14.5-0.2
						c-0.2-1.3-0.3-2.7-0.5-3.9c-6,1.6-12,2.3-18.1,2.5c0,1.3,0,2.7,0,4c4.3-0.2,8.7-0.4,13-0.6c0-1.3,0-2.7,0-4
						c-4.5,0.4-9,0.4-13.5-0.3c0.4,0.8,0.8,1.7,1.3,2.5c0.5-1.6,1.3-3,2.5-4.1c0.8-0.9,1.8-1.7,2.9-2.1c1.8-0.8,1.3-0.8-1.1-0.3
						c-3.8,1.6-4,1.3-0.5-0.4c-0.7-1-1.4-2-2.1-2.9c-1.8,3.1-4.2,4.5-7.6,4.5c0.5,1,1,2,1.7,3c1.8-2.8,3.7-4.5,6.7-5.5
						c-0.7-1-1.4-2-2.1-2.9c-0.6,1.3-2.1,2.5-2.1,3.9c0,1.1,2.2-1.8,2.9-2.5c-1-0.4-2.1-0.9-3.2-1.4c-0.8,1.4-1.8,2.9-2.6,4.3
						c0.7,1,1.5,2.1,2.3,3.1c1.9-2,5.7-5.9,8.5-5.7c1.7,0.1,1.9,1.2,3.4,2c0.6,0.9,1.3,1,2.1,0.2c1.9-1.2,2.2-0.1,0.8,3.3
						c0.4,0.7,0.9,1.3,1.3,1.9c2.2-3.9,3.2-4.6,3.1-2c-0.2,1.9,0.8,2.6,3.2,2.1c-0.8-0.7-1.5-1.3-2.4-1.9c0.3,0.9,0.5,1.8,0.8,2.7
						c-0.5-1-1-2-1.7-3c-2.4,3.2-2.9,3.1-1.8-0.7c-2.1-2.6-1.7-3.1,1-1.6c-0.8,1.3,0.2,2.9,1.7,3c3.6,0.2,7-0.1,10.6-0.4
						c0.6,0.1,1.3,0.1,2,0c1.2-0.6,1.4-0.1,0.7,1.2c0.7-0.6,1.4-1.2,2.2-1.8c0.2,0.2,0.4,0.3,0.6,0.6c-1.8,0.4-1.1,0.8,1.7,1.2
						c2.1,0.6,4,1.6,5.9,2.8c0.9-0.6,1.9-1.1,2.8-1.8c-0.6-0.7-1.2-1.3-1.8-2c-0.7,0.8-1.5,1.7-2.3,2.5c1.7,0,2.9,0.9,3.7,2.7
						c0.8-0.9,1.7-1.8,2.6-2.8c-0.1,0.2-0.3,0.4-0.4,0.7c1.9,0.6,3-1.9,1.9-3.3c-1.8-2.1-3.6-4.3-5.4-6.5c-0.7,1-1.5,2.1-2.3,3.1
						c0.8,0.9,1.7,1.9,2.5,2.8c0.9-0.8,2-1.7,2.9-2.5c-7.2-9.8-22.5-3.7-31.5-0.9c-3.4,1-7,2.5-10.5,2.9c-2.6,0.3-9.9-0.2-7-5.2
						c1.4-2.5,5.7-4,8.1-5.2c1.9-1,3.6-2,5.6-2.9c0.9-0.4,1.9-0.9,2.8-1.1c0,1.3,0,2.7,0.2,4c-0.2-1-1.3-1.8-2.3-1.4
						c-2.5,1-5.1,1.9-7.6,2.7c0.5,1.2,0.9,2.5,1.4,3.7c0.9-0.8,2.1-1.3,3.2-1.4c-0.6-1.1-1.2-2.2-1.9-3.3c-1.4,1.4-3.1,2.1-5.1,2.1
						c-2.4,0.1-2.4,4.1,0,4c3-0.2,5.3-1.2,7.6-3.2c1.5-1.3-0.1-3.8-1.9-3.3c-1.5,0.3-2.8,0.9-4.1,1.9c-1.8,1.2-0.6,4.3,1.4,3.7
						c2.6-0.8,5.1-1.7,7.6-2.7c-0.7-0.4-1.5-0.9-2.3-1.4c1.2,5.1,7.3,0.2,7.8-3.1c0.5-3.6-3.3-7-5.9-3.8c-2.8,3.6,2.1,6.7,5.1,5
						c4.9-2.8,1.7-7.8-2.9-7.5c-3.6,0.3-7,2.6-10.2,4.2c-3.3,1.8-7.1,3.3-9.7,6.3c-1.3,1.7-2.7,4-2.5,6.3c0.2,2.7,1.9,2.9,3.6,4
						c2.9,1.9,4.1,2.6,7.6,2c4.2-0.7,8.3-2,12.3-3.2c7.7-2.3,21.8-8.5,27.9-0.1c1.3,1.8,3.9-0.6,2.9-2.5s-2.1-3.1-3.8-4.2
						c-1.9-1.2-3.6,1.4-2.3,3.1c1.8,2.1,3.6,4.3,5.4,6.5c0.6-1.1,1.2-2.2,1.9-3.3c-4.2-1.1-6.6,4.7-2.4,6.7c1.7,0.8,3.5-0.9,2.6-2.8
						c-1.3-2.7-3.2-4.1-6-4.6c-1.2-0.2-2.9,0.9-2.3,2.5c0.7,2.1,1.5,3.3,3.5,4.5c1.2,0.7,2.8-0.1,2.8-1.8c0-2.9-1.1-5.9-4.1-6.6
						c-2.3-0.4-4.6,0.8-5.4,3.1c-1.2,4.1,3.9,8.4,5.8,3.7c2-4.9-2.6-10.6-7-6.6c-3.6,3.3-2,11.3,3.4,8c4.5-2.7,3.2-12.4-2.8-10.4
						c-3.6,1.2-7.2,9.4-1.5,10.4c4.4,0.8,7.4-7.8,3.1-9.9c-3.8-1.9-11.7,3.8-8.1,8.4c3.7,4.7,9.8-1.3,9.5-6c-0.4-6.6-9.1-2.1-10.1,2
						c-1.3,5,3.9,8.5,6.2,3.3c2.5-5.6-0.5-11.9-6.2-7.5c-1.9,1.4-3.5,3.7-2.7,6.2c0.7,2.5,3.2,3.2,5.3,2c4.8-2.8,3.3-11.5-2.7-9.4
						c-3.8,1.3-8.4,9.8-2.5,11.5c5,1.4,7-7.6,3.5-10.5c-4.3-3.7-13.5,3.7-8.9,8.2c4.1,3.9,11.8-3.2,6.8-7.1
						c-4.9-3.8-10.7,5.9-5.2,7.4c2.1,0.6,3.6-1.6,3.5-3.6c-0.1-3.9-4.6-4.3-7.4-4.5c0.5,1,1,2,1.7,3c3.9-6.9-6.6-9.8-9.8-3.6
						c-3.7,7,6.9,10.5,10,4.1c3.5-7.1-6.5-7-8.8-1c-0.8,2.2-0.8,6.1,1.7,7.2c2.9,1.3,6.1-2.3,7.6-4.6c0.8-1.2-0.3-3-1.7-3
						c-2.9,0.1-8.2,3.2-4.4,6.7c3.2,3.1,7-2.2,7.3-5.5c0.1-1.3-1.2-2.2-2.4-1.9c-2.5,0.8-5.9,2.8-4.5,6.2c1.1,2.9,4.3,2.5,5.9,0.3
						c5.4-6.8-3.7-12.4-7.4-5.1c-3.1,6,7,7.8,7.7-0.2c0.7-8.4-11.6-3.9-10.7,2.5c0.1,0.9,0.5,1.7,1.3,1.9c5.4,2,10.1-8.5,5.1-11.5
						c-3.3-1.9-14.5,2.8-10.4,7.7c3.8,4.7,7.5-3.2,5.6-7.1c-3.5-7.2-13.4,0.9-16.6,4.3c-1.4,1.6,0.4,4.5,2.3,3.1
						c2.8-1.9,4-4.2,4.4-7.8c0.2-1.9-2.1-2.3-3.2-1.4c-1.9,1.6-6.9,6.7-3.6,9.4s7.6-3.6,8.7-6c0.6-1.4-0.4-3.6-2.1-2.9
						c-3.8,1.4-6.6,3.7-8.9,7.4c-0.8,1.3,0.3,3,1.7,3c4.6,0,8.4-2.2,10.8-6.5c0.9-1.6-0.6-3.2-2.1-2.9c-2.9,0.6-8.4,4.2-5.5,7.9
						c2.6,3.3,8.7,0.8,10.8-1.9c1.9-2.2,2.1-5.9-1.4-6C85.8,29,82,35,80.5,39c-0.3,0.9,0.4,2.3,1.3,2.5c4.9,0.8,9.6,1,14.6,0.6
						c2.4-0.2,2.5-4.1,0-4c-4.3,0.2-8.7,0.4-13,0.6c-2.4,0.1-2.4,4,0,4c6.5-0.1,12.8-1,19.1-2.6c2.1-0.6,1.5-3.9-0.5-3.9
						c-5.3,0-10.9-0.6-16.1,0.4c-4.6,0.9-9,3.7-13,6c-1.9,1-0.7,3.6,0.9,3.8c2.2,0.3,4.6-0.1,5.8-2.3c0.9-1.7,0.8-4.2-0.8-5.2
						c-2.8-1.8-7.4,3.6-6,6.7c1.9,4.1,6.9,0.1,6.3-3.5c-1-4.8-7.2-3.5-6.5,1.4c0.2,1,1.4,1.8,2.3,1.4c3.4-1.4,7-6.2,4.2-10.2
						c-0.5-0.8-1.2-1.2-2.1-0.9c-3.2,0.9-5.6,4.2-7.2,7.1c1,0.7,2.2,1.3,3.2,2c1.9-4.1,3.7-8,6.7-11.3c1.4-1.6-0.5-4.6-2.3-3.1
						c-4,3.3-7.1,7.1-9.6,11.8c-1,1.9,1.4,4.1,2.9,2.5c0.4-0.4,0.7-0.9,1.1-1.3c-0.9-0.8-2-1.7-2.9-2.5c-0.9,1.4-1.7,2.9-2.4,4.6
						c-0.7,1.8,0.8,3.7,2.6,2.8c-0.1,0-0.2,0-0.3,0c-0.3-1.1-0.5-2.2-0.8-3.3c-1.3,1.2-1.4,1.6-2,3.3c-0.5,1.9,1.9,3.5,3.1,2
						c3.6-4.6,7.7-5.6,13-6.6c5.3-1.1,10.2-3,15.6-3.6c10.7-1.1,22,0.2,32.4,2.8c1.7,0.4,2.9-1.3,2.1-2.9c-0.4-1.1-1-2.2-1.8-3.1
						c-1.1-1.7-4.2-0.8-3.4,1.6c1.2,3.6,2.8,7,4.6,10.2c0.7-1,1.4-2,2.1-2.9c-3.9-1.1-7.8-1.8-11.9-2c0,1.3,0,2.7,0,4
						c1.5-0.1,3.1-0.1,4.6-0.2c2.4-0.1,2.4-3.8,0-4c-6.8-0.6-13.4,1.6-20-1c-0.3,1.3-0.6,2.6-1,3.9c1.5,0.4,2.8,0.6,4.4,0.4
						c2.4-0.3,2.4-3.8,0-4c-4.2-0.4-8.3,2.7-12.4,1.6c-2.1-0.6-3.3,2.5-1.4,3.7c1,0.7,1.4,0.8,2.7,0.7c1.9-0.2,2.7-3.5,0.5-3.9
						c-6.9-1.3-13.6-1.2-20.4,0.6c0.5,1.2,0.9,2.5,1.4,3.7c0.8-0.4,1.7-0.8,2.4-1.2c-0.6-1.1-1.2-2.3-1.9-3.5
						c-4.6,2.7-9.3,4.2-14.6,4.6c0.3,1.2,0.6,2.5,0.9,3.8c4.3-3.6,8.8-7.9,13.5-10.7c3.8-2.2,7.5,0.4,11.3-1.4
						c4-2.1,1.9-9.1-2.1-6.7c-3.6,2.3,0.3,6.9,3.7,4.9c3.5-2.1,1.5-7.9-2.1-5.7c-1.1,0.7-1.3,2.9,0,3.5c1.3,0.7,1.9,0.7,3.3,0.4
						C97.3,34.5,96.2,30.6,93.8,31.1L93.8,31.1z"/>
				</g>
			</g>
			<g>
				<g>
					<path class="st1" d="M100.8,27.8c2.4,0,2.4-4,0-4S98.4,27.8,100.8,27.8L100.8,27.8z"/>
				</g>
			</g>
			<g>
				<g>
					<path class="st1" d="M104.1,31c2.4,0,2.4-4,0-4S101.6,31,104.1,31L104.1,31z"/>
				</g>
			</g>
			<g>
				<g>
					<path class="st0" d="M104.2,29.6c-0.9-1.1-1.8-2.1-2.7-3.2c-1.1-0.6-2.3-1-3.4-1.6c-1.1,3.1-5.5,1.8-7.5,1.8
						c-2,0.1-3.8,1-5.8,1.2c0.5,1,1,2,1.7,3c1.3-2,3.1-3.3,5.3-4c-0.7-1-1.4-2-2.1-2.9c-0.3,0.3-0.6,0.8-0.8,1.1
						c0.6,1.1,1.2,2.3,1.9,3.5c1.1-0.9,8.8-5.6,8.1-7.6c-0.6,0.9-1.2,1.7-1.8,2.6c2.6,1,3.7,2.9,3.2,5.6c1.1-0.3,2.3-0.7,3.5-1
						c-1.3-1.9-1.5-3.9-0.6-6c-1.1,0.1-2.3,0.3-3.4,0.4c-0.4,0.9-0.8,1.8-1.2,2.7c-0.9-0.1-2-0.2-2.9-0.4c-0.1,0.2-0.1,0.4-0.2,0.6
						c0.8,0.9,1.7,1.8,2.6,2.8c0.6-1.6,1.7-2.8,3-3.7c2.6,0.4,3.7,1.9,3.4,4.5c0.9-0.6,1.9-1.1,2.8-1.8c-2.3-1.8-2.1-2.2-2.4-4.6
						c0.2,1.8,1.7,3,2,4.9c0.7-0.8,1.5-1.7,2.3-2.5c-2.5-0.7-0.1,4.9,0,5.5c0.1,0.7,0.7,1.2,1.3,1.4c3.1,0.9,6,1.1,9.2,0.9
						c1.9-0.2,2.5-2.6,0.9-3.8c-2.2-1.7-4.2-2.7-6.9-3.1c-0.2,1.3-0.3,2.7-0.5,3.9c3.9-0.3,7,0.6,10.3,2.8c0.5-1.2,0.9-2.5,1.4-3.7
						c-0.6-0.4-1.2-1-1.9-1.4c-0.6,1.1-1.2,2.2-1.9,3.3c0.9,0.9,1.8,1.8,2.7,2.7c0.9-0.8,2-1.7,2.9-2.5c-2.5-2.7-5.3-4.8-8.5-6.3
						c-2.7-1.2-8.3-1.3-10-3.9c-0.7,1-1.4,2-2.1,2.9c4.9,1.3,9.5,3.2,13.9,5.7c2.2,1.1,4-2.3,1.9-3.5c-4.8-2.6-9.7-4.6-14.9-6.1
						c-1.4-0.4-3.1,1.4-2.1,2.9c1.8,2.6,3.8,3.1,6.7,3.9c4.9,1.2,8.8,3.5,12.4,7.2c1.5,1.7,3.8-0.4,2.9-2.5
						c-1.1-2.5-2.5-3.7-4.9-4.6c-2-0.7-2.9,1.9-1.9,3.3c1,1.3,2,2,3.5,2.5c2.1,0.7,3.2-2.5,1.4-3.7c-3.8-2.6-7.7-3.7-12.2-3.3
						c-2,0.1-2.7,3.6-0.5,3.9c2.3,0.4,4.1,1.2,6,2.7c0.3-1.2,0.6-2.5,0.9-3.8c-2.2,0.2-5.6,0.8-7.2-0.9c-0.8-0.9-1.4-3.7-2.3-4.7
						c-1.1-1.6-2.8-3.5-4.9-3.1c-1.8,0.3-2.7,2.1-2.5,3.9c0.4,2.8,3.1,4.3,5.3,4.9c1.4,0.3,2.6-1,2.3-2.5c-0.5-3-6.4-12.1-9.2-6.3
						c-1.7,3.6,3.5,13.8,7.8,10.6c3.9-3-0.9-11.3-4.8-11.4c-7.1-0.3-1.4,9.5,1,11.5c1.1,0.9,2.9-0.3,2.8-1.8
						c-0.3-3.8-1.3-8.5-5.6-8.9c-3.4-0.3-6.2,3.1-7.7,6c-0.9,1.9,0.9,3.6,2.6,2.8c2.3-1.2,3-3.8,1.4-6.1c-0.7-1-2.1-1.3-2.9-0.4
						c-2.6,2.9-1.4,8.1,2.8,8.2c5.3,0.1,6.1-6.1,4.3-10.1c-0.7-1.7-2.9-1-3.4,0.4c-1.1,3.3-0.7,6.2,1,9.1c0.9,1.6,3.5,1.1,3.5-1
						c-0.2-4.8-1.7-10-6.9-9.6c-1.1,0.1-2.3,1.2-1.8,2.6c0.6,1.8,1.7,3.8,3.7,3.8c1.7,0,3-1.6,3-3.3c-0.4-8.2-11.4,1.3-13.1,2.7
						c-2,1.4-0.2,4.8,1.9,3.5c1.3-0.9,1.5-1,2.2-2.6c0.6-1.4-0.4-3.6-2.1-2.9c-3.2,1.1-5.5,2.9-7.5,5.8c-0.8,1.2,0.3,3.1,1.7,3
						c2.4-0.1,4.2-1.1,6.6-1.2c1.8,0,3.4,0.4,5.3,0c2.6-0.7,4.1-2.1,5.1-4.8c0.7-2.2-2.3-3.3-3.4-1.6c-1.7,2.7-0.9,6.9,2.4,7.6
						c2.9,0.7,5.6-2.8,3.9-5.7c-1.5-2.8-5.5-2-6.3,0.9c-1.2,4.2,2.9,6,5.9,6.3C106.6,33.8,106.6,29.8,104.2,29.6L104.2,29.6z"/>
				</g>
			</g>
			<g>
				<g>
					<path class="st0" d="M98.5,18.5c-1.4-0.6-4.5-1.1-5.4-2.8c-0.2-0.4-0.6-0.7-1-0.7s-0.8,0-1.2,0c0.4,0.4,0.8,0.9,1.2,1.3
						c2.8-0.6,3.5-0.3,2.2,0.6c0.7-0.3,1.5-0.7,2.3-1c1.7-2.7,3.5-2.6,5.5,0.4c0.5,0.1,1,0.1,1.5,0.2c0-0.4,0-0.9,0.1-1.3
						c0.5-0.6,1-1.1,1.5-1.7c-0.4-0.3-0.8-0.8-1.3-1.1c-0.7,0.4-1.4,0.9-2.2,1.3c0-0.2,0-0.3,0-0.6c-0.5,0.8,0,1.7,0.7,2
						c0.5,0.9,1,1.9,1.5,2.8c0.5,0.1,1,0.1,1.5,0.2c-0.3-0.2-0.6-0.6-0.9-0.8c0.7,0.3,1.4,0.7,2.1,0.9c0-0.7-0.1-1.2-0.1-1.9
						c0.6,0.1,1.3,0.2,2,0.2c-0.1-0.4-0.3-0.9-0.4-1.3c-0.6,0.3-1.2,0.8-1.9,1.1c1.9,1,0.5,4.9,3.4,4.5c1.8-0.2,2.3-2.5,1.2-3.9
						c-1.4-2-3.7-0.9-5.4-0.1c-3.4,1.4-6.2,2.7-9.9,2.7c-1.9,0-3.8-0.3-5.7-0.7c-2.9-0.6-0.3-0.8,0.3,0.8c0.2-0.7,0.5-1.3,0.7-2
						c-0.2-0.1-0.4-0.1-0.5-0.2c-0.2,0.7-0.5,1.3-0.7,2c0.7,0.2,1.4,0.4,2.1,0.6c0.2-0.8,0.4-1.4,0.5-2.2c-0.8-0.1-1.5-0.3-2.4-0.4
						c-0.2,0.8-0.4,1.7-0.6,2.5c1.4,0.1,2.9,0.4,4.2,0.9c1.5,0.4,2.2-2.1,0.6-2.6c-1.7-0.6-3.2-0.9-5-1c-1.2-0.1-1.7,1.9-0.6,2.5
						c1.5,0.9,2.6,1.1,4.3,0.8c0.8-0.1,1.2-1.7,0.5-2.2c-1.5-1.3-2.6-1.7-4.5-1.3c-0.7,0.1-1.1,1.3-0.7,2c0.9,1.4,1.8,1.9,3.4,1.4
						c0.8-0.2,1-1.2,0.7-2c-2.7-6.9-8.8,0.1-5.5,2.7c1.4,1,4.3,0.9,6,1.1c2.9,0.3,5.8,0.3,8.6-0.6c1-0.3,2.1-0.9,3.1-1.2
						c1.9-0.8,5.1-0.6,4.9-3c-0.1-1.4-1-2.5-2.2-3c-0.8-0.4-1.9,0.1-1.9,1.1c0,1.3,0,1.6,0.7,2.7c0.5,0.8,1.3,0.9,2,0.2
						c0.1-0.1,0.2-0.2,0.3-0.3c0.3-0.3,0.4-0.9,0.3-1.3c-0.1-0.2-0.1-0.3-0.2-0.6c-0.2-0.6-0.6-0.9-1.2-1c-2.6-0.2-3.2,4-0.8,4.8
						c0.4,0.1,0.9,0,1.2-0.3c2.9-3-3.9-6.8-3.8-1.3c0,1.2,1.3,1.7,2.1,0.9c1.4-1.3,1-4.1-1.2-4c-2.6,0.1-2.7,3.2-1.3,4.8
						c0.4,0.4,1,0.4,1.5,0.2c3.7-1.8,0.3-6.7-2.2-7.7c0.2,0.7,0.5,1.3,0.7,2c0.1-0.1,0.2-0.2,0.2-0.3c0.2-0.3,0.2-1,0-1.3
						c-0.1-0.1-0.2-0.2-0.2-0.4c-0.9-1.4-2.8-0.2-2.2,1.3c0.6,1.4,1.3,2.1,2.8,2.3c0.8,0.1,1.9-0.6,1.5-1.7
						c-1.7-4.8-7.2,0.7-4.2,3.9c0.4,0.4,1,0.4,1.5,0.2c1.7-0.9,2.4-4.3,0.3-5.3c-2.2-1.1-4.4,2.6-3.3,4.6c1.2,2.1,3.7,0.4,3.6-1.8
						c-0.2-2.9-3.7-3.8-5.6-2.1c-1.7,1.4-1.4,4.8,1,4.9s3.4-3.1,1.5-4.7c-2.1-1.8-4.9,0.3-4.8,3c0.2,3.5,3.8,3.5,5.5,1.3
						c1.5-2,2.1-7.8-1.2-8c-2.5-0.1-7.2,3.8-6,6.7c0.6,1.3,2.7,0.4,2.3-1c-0.9-3-5-3.1-3.8,0.3c1.1,3.8,6.5,1.1,4.6-2.2
						c-0.2-0.3-0.6-0.7-1-0.7c-6.3,0.6-2.3,8.4,0.4,4.6c3.8-5.5-6.6-8.5-7.2-1.9c-0.1,0.7,0.6,1.3,1.2,1.3s1.5,0.9,2.1,1.2
						c1.5,0.9,3.3,1.6,5,2.1C99.3,21.7,100,19.1,98.5,18.5L98.5,18.5z"/>
				</g>
			</g>
			<g>
				<g>
					<path class="st0" d="M89.2,17.6c-0.3-0.1-0.6-0.1-0.8-0.3l0,0c-0.1-0.1-0.1-0.1,0,0c0,0.1,0.1,0.1,0,0.2c0-0.1,0-0.1,0-0.1
						c0,0.1,0,0.1,0-0.1c0,0.1-0.1,0.2-0.2,0.3c-0.2,0.1-0.4,0-0.1,0.1c0.4,0.2,1,0.2,1.4,0.1c0.6-0.1,1-1,0.8-1.7
						c-0.2-0.8-0.8-1-1.5-0.9c0.4-0.1,0.1-0.1-0.1-0.1C88.5,15,88.3,15,88.1,15c-0.4,0-0.8,0-1.1,0.2c-0.6,0.3-0.9,1.1-1,1.9
						c0,1.7,1.3,2.6,2.7,3C90,20.8,90.8,18.1,89.2,17.6L89.2,17.6z"/>
				</g>
			</g>
			<ellipse class="st0" cx="104" cy="40.1" rx="3.9" ry="4.6"/>
			<ellipse class="st0" cx="108.3" cy="29.4" rx="5.3" ry="6.4"/>
			<ellipse class="st0" cx="106.2" cy="19.4" rx="2.6" ry="2.9"/>
			<ellipse class="st0" cx="103.3" cy="13.9" rx="2.1" ry="2.4"/>
			<ellipse class="st0" cx="106" cy="16.6" rx="1.9" ry="2.5"/>
		</g>
		<g>
			<g>
				<g>
					<path d="M65.8,50.8c2.4-18.5,19.3-31.9,36.5-31.1c0.8,0,0.8-1.3,0-1.3c-8.8-0.4-19.2,3.8-26,9.6c-6.5,5.6-10.5,13.6-11.7,22.4
						C64.4,51.4,65.7,51.7,65.8,50.8L65.8,50.8z"/>
				</g>
			</g>
			<g>
				<g>
					<path d="M65.8,51.7c3.2-1.3,6.4-1.2,9.8-1.9c2.4-0.4,4.4-1.8,6.8-2.3c5.3-1.4,11.2-0.2,16.3,0.3c2.8,0.2,5.2-1.7,7.8-1.8
						c2.5-0.1,4.8,1.2,7.2,1c3.8-0.3,7-0.7,10.8,0c3.5,0.6,7,1.2,10.4,1.8c0.8,0.1,1.1-1.1,0.3-1.3c-5.9-1-12.1-2.8-18.1-2.5
						c-3.4,0.2-6.6,0-10-0.2s-6.2,1.9-9.8,1.3c-4.4-0.7-9.3-1.1-13.8-0.4c-3.4,0.4-6.4,2.5-9.8,3c-3,0.4-5.6,0.4-8.5,1.7
						C64.6,50.8,64.9,52.1,65.8,51.7L65.8,51.7z"/>
				</g>
			</g>
			<g>
				<g>
					<path d="M135.8,48.1c-2.4-17.9-19.3-30.4-35.7-29.6c-0.8,0-0.8,1.3,0,1.3c15.9-0.8,32.2,11.3,34.6,28.6
						C134.6,49.3,135.9,49,135.8,48.1L135.8,48.1z"/>
				</g>
			</g>
			<g>
				<g>
					<path d="M88.3,20.8c-0.6-0.1-1.2-0.2-1.7-0.7c-0.4-0.3-0.5-1-0.1-1.4c0.6-0.6-0.3-1.6-0.8-0.9c-0.7,0.7-0.8,1.9-0.3,2.8
						c0.5,1,1.7,1.4,2.6,1.6C88.7,22.2,89,21,88.3,20.8L88.3,20.8z"/>
				</g>
			</g>
			<g>
				<g>
					<path d="M86.6,18c-0.4-1.7,1.7-2.2,2.8-2.2c0.8-0.1,0.8-1.4,0-1.3c-1,0.1-2.2,0.2-3.1,1c-0.8,0.8-1.1,1.8-0.9,2.9
						C85.6,19.1,86.8,18.8,86.6,18L86.6,18z"/>
				</g>
			</g>
			<g>
				<g>
					<path d="M89.8,15.5c1.2-1.8,3.3-2.8,5.3-2c0.7,0.3,1-1,0.3-1.3c-2.6-1-5.1,0.4-6.6,2.6C88.3,15.5,89.3,16.2,89.8,15.5
						L89.8,15.5z"/>
				</g>
			</g>
			<g>
				<g>
					<path d="M95.6,13.6c1-1.3,3.7-3.2,5.2-1.7c0.5,0.6,1.4-0.3,0.8-0.9c-2.1-2.2-5.5-0.3-6.9,1.7C94.3,13.3,95.1,14.3,95.6,13.6
						L95.6,13.6z"/>
				</g>
			</g>
			<g>
				<g>
					<path d="M101.8,12.7c0.7-1.4,3.2,0.1,3.5,1.1c0.3,0.8,1.4,0.4,1.2-0.3c-0.7-2.1-4.5-4.1-5.8-1.4
						C100.4,12.9,101.4,13.5,101.8,12.7L101.8,12.7z"/>
				</g>
			</g>
			<g>
				<g>
					<path d="M106.3,15c1-0.6,2.4,0,2.7,1.2c0.2,0.8,1.4,0.4,1.2-0.3c-0.5-2-2.8-3-4.5-2C105,14.2,105.6,15.4,106.3,15L106.3,15z"/>
				</g>
			</g>
			<g>
				<g>
					<path d="M109.5,17.2c0.8,0,1.4,1,1.1,1.8s0.9,1.1,1.2,0.3c0.6-1.7-0.7-3.6-2.3-3.5C108.7,15.9,108.7,17.2,109.5,17.2
						L109.5,17.2z"/>
				</g>
			</g>
			<g>
				<g>
					<path d="M110.3,19.7c0,0.1,0,0.1,0,0.2c0,0.9,1.2,0.9,1.2,0c0-0.1,0-0.1,0-0.2C111.5,18.9,110.3,18.9,110.3,19.7L110.3,19.7z"
						/>
				</g>
			</g>
		</g>
		<g>
			<g>
				<path class="st2" d="M72.8,44.3c4-4.6,6.9-10.2,10-15.5c0.4-0.8-0.6-1.4-1-0.7c-3.1,5.1-5.9,10.8-9.8,15.3
					C71.3,43.9,72.2,44.9,72.8,44.3L72.8,44.3z"/>
			</g>
		</g>
		<g>
			<g>
				<path class="st2" d="M80.5,42.8c3.9-5.7,7.6-11.4,11.3-17.3c0.4-0.7-0.6-1.3-1-0.7c-3.7,5.9-7.4,11.7-11.4,17.3
					C79,42.9,80,43.6,80.5,42.8L80.5,42.8z"/>
			</g>
		</g>
		<g>
			<g>
				<path class="st2" d="M114.4,29.7c5.3,4.5,10.2,9.1,15,14.3c0.5,0.6,1.4-0.3,0.8-0.9c-4.8-5.1-9.7-9.8-15-14.3
					C114.7,28.2,113.8,29.1,114.4,29.7L114.4,29.7z"/>
			</g>
		</g>
		<g>
			<g>
				<path class="st2" d="M107.9,29.2c3.4,5.9,8.1,10.6,13.8,13.6c0.7,0.3,1.3-0.8,0.6-1.1c-5.6-2.9-10.2-7.4-13.4-13
					C108.5,27.9,107.5,28.6,107.9,29.2L107.9,29.2z"/>
			</g>
		</g>
		<g>
			<g>
				<path class="st2" d="M90.2,18.4C90.1,18.4,90.1,18.4,90.2,18.4c0.3-0.9-0.7-1.6-1.1-0.8c-0.3,0.6-0.2,1.3,0.2,1.7
					C89.9,20,90.8,19.1,90.2,18.4L90.2,18.4z"/>
			</g>
		</g>
		<g>
			<g>
				<path class="st2" d="M93.8,15.9c0.8,0.8,2,1.1,3,0.7c0.7-0.3,0.4-1.6-0.3-1.3c-0.6,0.2-1.2,0.2-1.8-0.3
					C94.2,14.3,93.2,15.3,93.8,15.9L93.8,15.9z"/>
			</g>
		</g>
		<g>
			<g>
				<path class="st2" d="M102.1,15.4c0.7,1.2,2,2.1,3.3,2.5c0.8,0.1,1.1-1.1,0.3-1.3c-1-0.2-2-0.8-2.6-1.8
					C102.7,14,101.7,14.6,102.1,15.4L102.1,15.4z"/>
			</g>
		</g>
	</g>
	<g>
		<path class="st0" d="M99.7,36.7"/>
	</g>
	<g>
		<path class="st0" d="M102.3,31.7"/>
	</g>
	<g>
		<path class="st0" d="M104.3,32"/>
	</g>
	<g>
		<path class="st0" d="M102,40.3c0.2,0.1,0.4,0.2,0.7,0.3"/>
	</g>
	<g>
		<path class="st0" d="M104.4,39.4c-0.2,0.2-0.5,0.4-0.7,0.6"/>
	</g>
</g>
</svg>
