<svg id="Layer_1" data-name="Layer 1" xmlns="http://www.w3.org/2000/svg" viewBox="0 0 80.77 110.8"><defs><style>.cls-1{fill:#ffe329;}.cls-2{fill:none;stroke:#000;stroke-miterlimit:10;}.cls-3{fill:#f9ee53;}</style></defs><title>Blond</title><g id="_Group_" data-name="&lt;Group&gt;"><path class="cls-1" d="M98.9,23a2.49,2.49,0,0,1,1.4-1.1A16.83,16.83,0,0,1,112,22c3.8,1.3,7.1,3.6,10.4,6a14.85,14.85,0,0,1,4.4,4.4,26.11,26.11,0,0,1,3.3,7.4,55.62,55.62,0,0,1,2,10.8l2.4,8.7c.6,2.4,1.3,4.9,1,7.4-.2,1.8-1,3.6-1.3,5.4-.8,4.3.7,8.6,2.7,12.6,1.3,1.6,2.5,3.5,2.1,5.5s-2.6,3.3-3.3,5.3c-.5,1.6-.1,3.4.2,5.1s.4,3.7-.7,5a17.68,17.68,0,0,1-2.2,1.6c-2.3,1.9-2.4,5.5-1.9,8.5a52.32,52.32,0,0,0,2.2,9.5l-.5.1a12.31,12.31,0,0,1-4.5-6,22.29,22.29,0,0,1-1.4-6.2h-.1a9.16,9.16,0,0,1-1.7,5.1c-.9,1.2-2,2-2.9,3.1-1.2,1.4-2.1,3-3.3,4.3s-3,2.3-4.6,1.7c-.1,0-.3-.1-.3-.2a.66.66,0,0,1,.1-.6c.9-1.5,2.1-2.9,3-4.4a10.33,10.33,0,0,0,1.7-5.1,4.94,4.94,0,0,0-2.4-4.5l-1.2.1a13.66,13.66,0,0,1-1.5-3.7,14.44,14.44,0,0,0-2.1-4.1,2.92,2.92,0,0,1-.7-1.2,4.78,4.78,0,0,1,0-2.9,36,36,0,0,0,.3-8h.2a1.62,1.62,0,0,1,1.1-.9c.5-.1,1,0,1.5-.1a5.12,5.12,0,0,0,2.1-1,57.86,57.86,0,0,0,8.8-7.6l.3.1c.2-.6.4-1.3.6-1.9.5-2.2,0-4.4-.2-6.6a18.86,18.86,0,0,1,2.1-9.9l.2-.1a27.63,27.63,0,0,1-.4-9.5c.4-2.8,1.1-5.9-.2-8.4-1.5-2.8-4-4.3-6.5-6.1-1.8-1.3-3.3-3.4-5.1-4.7a15.16,15.16,0,0,0-9.5-2.3c-3,.3-5.9,2.7-8.7,3.7l-.1.1A8.3,8.3,0,0,0,94,36.2a22.16,22.16,0,0,0-6.3,0,17.88,17.88,0,0,0-6.9,1.6c-2.6,1.3-4.6,3.6-6.4,5.9a13.09,13.09,0,0,0-1.9,2.7c-1.3,2.9-.5,6.3-.7,9.5a12.85,12.85,0,0,1-.7,3.4,13.23,13.23,0,0,1-3.3,5.3l-2.9.5a11,11,0,0,1-.2-1.8c-.5-5,.4-10,1.4-15,1.2-6.5,2.7-13.3,7.1-17.9a31.5,31.5,0,0,1,5.6-4.2,34.05,34.05,0,0,1,6.5-3.5,20.51,20.51,0,0,1,6-1.1C93.9,21.6,96.6,21.7,98.9,23Z" transform="translate(-58.91 -20.39)"/><path class="cls-1" d="M88.6,106.1c-.5,1.2-.6,2.5-1,3.8-.6,1.6-2.4,3.2-3.8,2.3a10.59,10.59,0,0,0-1.2-1c-.9-.3-1.8.6-2.2,1.6-1.2,2.9-.6,6.8-2.8,9a12.46,12.46,0,0,1-3.4,1.9,4.5,4.5,0,0,0-2.6,2.8c-.8-1.5-1.6-3.3-1.1-4.9a10.23,10.23,0,0,1,1.4-2.2,6.2,6.2,0,0,0,1.4-3.2,3.06,3.06,0,0,0-1.4-3c-.2,2-2.4,3-3.8,4.4a9,9,0,0,0-2.1,6.2,20.67,20.67,0,0,0,1.6,6.5,16.49,16.49,0,0,1-6.9-7.4l-.2.1a11.77,11.77,0,0,1-1-6.1c.4-2.7,2.2-4.9,3.2-7.4a13,13,0,0,0,.5-8.5c-.5-2.1-1.5-3.9-2-6s-.3-4.6,1.2-5.9l.1-.1A9.18,9.18,0,0,1,61,83.5a13.12,13.12,0,0,1,.9-3.4,16.88,16.88,0,0,1,2.5-4.8,5.72,5.72,0,0,1,.7-.8l-.2-.2c1-2.8.4-5.9-.1-8.9l2.9-.5A14,14,0,0,0,71,59.6l.4.1a11,11,0,0,0-.3,5.7c.6,3.1,2.4,5.8,2.8,8.9a14.7,14.7,0,0,1-.6,5.9L74,80c3.1,3.6,6.2,7.3,10.2,9.7A54,54,0,0,0,89.1,92h.2c.1,3.1.2,6.1.2,9.2C89.7,102.9,89.7,104.9,88.6,106.1Z" transform="translate(-58.91 -20.39)"/><path class="cls-2" d="M99,23.1a.1.1,0,0,1-.1-.1,13.25,13.25,0,0,0-7.6-1.3,20.51,20.51,0,0,0-6,1.1,29.27,29.27,0,0,0-6.5,3.5,29.27,29.27,0,0,0-5.6,4.2C68.7,35.1,67.3,42,66,48.4c-.9,4.9-1.9,10-1.4,15,.1.6.1,1.2.2,1.8.4,3,1,6.1.1,8.9" transform="translate(-58.91 -20.39)"/><path class="cls-2" d="M68.7,72.3a6.85,6.85,0,0,0-3.6,2,5,5,0,0,0-.7.8,16.88,16.88,0,0,0-2.5,4.8,13.12,13.12,0,0,0-.9,3.4,9.72,9.72,0,0,0,1.5,5.5,28.19,28.19,0,0,0,2.9,3.9" transform="translate(-58.91 -20.39)"/><path class="cls-2" d="M62.4,88.9c-1.5,1.4-1.7,3.9-1.2,5.9s1.5,4,2,6a14.51,14.51,0,0,1-.5,8.5c-1,2.5-2.8,4.7-3.2,7.4a11.77,11.77,0,0,0,1,6.1c.3.7.5,1.3.8,2" transform="translate(-58.91 -20.39)"/><path class="cls-2" d="M98.8,23.1h0a2.24,2.24,0,0,1,1.5-1.2A16.83,16.83,0,0,1,112,22c3.8,1.3,7.1,3.6,10.4,6a14.85,14.85,0,0,1,4.4,4.4,26.11,26.11,0,0,1,3.3,7.4,55.62,55.62,0,0,1,2,10.8c.1.8.1,1.5.2,2.3" transform="translate(-58.91 -20.39)"/><path class="cls-2" d="M132,50.1c0,.1.1.3.1.4l2.4,8.7c.6,2.4,1.3,4.9,1,7.4-.2,1.8-1,3.6-1.3,5.4-.8,4.3.7,8.6,2.7,12.6l1.5,2.7" transform="translate(-58.91 -20.39)"/><path class="cls-2" d="M136.4,83.9a4.35,4.35,0,0,1,.6.7c1.3,1.6,2.5,3.5,2.1,5.5s-2.6,3.3-3.3,5.3c-.5,1.6-.1,3.4.2,5.1s.4,3.7-.7,5a17.68,17.68,0,0,1-2.2,1.6c-2.3,1.9-2.4,5.5-1.9,8.5a52.32,52.32,0,0,0,2.2,9.5" transform="translate(-58.91 -20.39)"/><path class="cls-2" d="M60.6,122.7a16.53,16.53,0,0,0,6.9,7.4,21.36,21.36,0,0,1-1.6-6.5,8.13,8.13,0,0,1,2.1-6.2c1.4-1.4,3.6-2.4,3.8-4.4a3.06,3.06,0,0,1,1.4,3,6.2,6.2,0,0,1-1.4,3.2,10.23,10.23,0,0,0-1.4,2.2c-.5,1.6.3,3.4,1.1,4.9a4.78,4.78,0,0,1,2.6-2.8,14.13,14.13,0,0,0,3.4-1.9c2.2-2.2,1.6-6,2.8-9,.4-.9,1.3-1.9,2.2-1.6.5.2.8.7,1.2,1,1.4.9,3.2-.6,3.8-2.3.4-1.2.6-2.6,1-3.8a6.72,6.72,0,0,1,.6-1.2" transform="translate(-58.91 -20.39)"/><path class="cls-2" d="M133.7,125.8a4.05,4.05,0,0,1-.9-.5,12.31,12.31,0,0,1-4.5-6,22.29,22.29,0,0,1-1.4-6.2c-.1-.8-.2-1.7-.3-2.5" transform="translate(-58.91 -20.39)"/><path class="cls-2" d="M116.5,112.4a4.94,4.94,0,0,1,2.4,4.5,10,10,0,0,1-1.7,5.1c-.9,1.5-2.1,2.9-3,4.4a.66.66,0,0,0-.1.6c.1.1.2.2.3.2,1.6.5,3.4-.4,4.6-1.7s2.1-3,3.3-4.3c.9-1.1,2-2,2.9-3.1a8.45,8.45,0,0,0,1.7-5.1" transform="translate(-58.91 -20.39)"/><path class="cls-2" d="M116.5,113.6a4.12,4.12,0,0,1-1.3-1,13.66,13.66,0,0,1-1.5-3.7,14.44,14.44,0,0,0-2.1-4.1,2.92,2.92,0,0,1-.7-1.2,4.78,4.78,0,0,1,0-2.9,36,36,0,0,0,.3-8" transform="translate(-58.91 -20.39)"/><path class="cls-2" d="M99.4,39.2A8.66,8.66,0,0,0,94,36.1a22.16,22.16,0,0,0-6.3,0,17.88,17.88,0,0,0-6.9,1.6c-2.6,1.3-4.6,3.6-6.4,5.9a13.09,13.09,0,0,0-1.9,2.7c-1.3,2.9-.5,6.3-.7,9.5a12.85,12.85,0,0,1-.7,3.4,13.23,13.23,0,0,1-3.3,5.3" transform="translate(-58.91 -20.39)"/><path class="cls-2" d="M69.2,87.6c2.3-1.3,3.4-4.2,4.1-6.9.1-.2.1-.4.2-.6A21.27,21.27,0,0,0,74,74c-.4-3.1-2.2-5.8-2.8-8.9a11,11,0,0,1,.3-5.7,4.87,4.87,0,0,1,.4-1.1" transform="translate(-58.91 -20.39)"/><path class="cls-2" d="M97.4,37.3c2.8-1,5.8-3.4,8.7-3.7a15.16,15.16,0,0,1,9.5,2.3c1.8,1.3,3.3,3.5,5.1,4.7,2.6,1.8,5,3.3,6.5,6.1,1.3,2.5.6,5.5.2,8.4a27.52,27.52,0,0,0,.4,9.5,25.49,25.49,0,0,0,2.5,7" transform="translate(-58.91 -20.39)"/><path class="cls-2" d="M126.4,91.5c-1-1.8-2.1-3.7-2-5.8a8.39,8.39,0,0,1,.7-2.6c.2-.6.4-1.3.6-1.9.5-2.2,0-4.4-.2-6.6a18.86,18.86,0,0,1,2.1-9.9" transform="translate(-58.91 -20.39)"/><path class="cls-2" d="M76.9,104.6c-1.3-.7-2.8-1.7-2.8-3.2a4.26,4.26,0,0,1,.6-1.8,17,17,0,0,0,2-5.3,7.75,7.75,0,0,0-.9-5.4" transform="translate(-58.91 -20.39)"/><path class="cls-2" d="M77.1,104.6c-.4-2,.9-3.8,2.1-5.3s2.5-3.4,2-5.4" transform="translate(-58.91 -20.39)"/><path class="cls-2" d="M121.9,105.9a3.75,3.75,0,0,0-.3-3.4,11.31,11.31,0,0,0-2.3-2.6c-1.4-1.3-2.9-2.6-4.3-3.9" transform="translate(-58.91 -20.39)"/><path class="cls-2" d="M122,106.8c.3-.5.7-.9,1-1.4a6.71,6.71,0,0,0,.9-1.4,7.5,7.5,0,0,0,0-4.2,8.3,8.3,0,0,0-.6-2.1,10,10,0,0,0-1.4-1.5,8.12,8.12,0,0,1-1.9-3.4" transform="translate(-58.91 -20.39)"/><path class="cls-2" d="M88.5,106.2h0c1.2-1.3,1.2-3.3,1.1-5-.1-3.1-.2-6.1-.2-9.2" transform="translate(-58.91 -20.39)"/><path class="cls-2" d="M74,80c3.1,3.6,6.2,7.3,10.2,9.7A54,54,0,0,0,89.1,92" transform="translate(-58.91 -20.39)"/><path class="cls-2" d="M111.4,92.7a1.62,1.62,0,0,1,1.1-.9c.5-.1,1,0,1.5-.1a5.12,5.12,0,0,0,2.1-1,57.86,57.86,0,0,0,8.8-7.6" transform="translate(-58.91 -20.39)"/></g><path class="cls-3" d="M64.3,123.7a8.89,8.89,0,0,1-2.6-5.5c-.1-1.8,1-3.2,1.3-4.8.1-.7-1-1.1-1.1-.3-.4,2.2-1.7,3.7-1.3,6.1a10.23,10.23,0,0,0,2.9,5.4c.5.5,1.3-.3.8-.9Z" transform="translate(-58.91 -20.39)"/><path class="cls-3" d="M65.2,124.2c-2.5-3.4-.1-7.2,1.9-10.1.4-.6-.6-1.2-1-.6-2.3,3.3-4.7,7.5-1.9,11.3.4.6,1.5,0,1-.6Z" transform="translate(-58.91 -20.39)"/><path class="cls-3" d="M66.6,105.2a5.38,5.38,0,0,1-.4-2.2,8.78,8.78,0,0,0-.7-2.3,21.16,21.16,0,0,0-1.1-2.1,8.37,8.37,0,0,1-.8-4.1.6.6,0,1,0-1.2,0,9.42,9.42,0,0,0,1.3,5.4,11.18,11.18,0,0,1,1.2,3.5c.2.9,0,1.7.5,2.5.6.5,1.7-.1,1.2-.7Z" transform="translate(-58.91 -20.39)"/><path class="cls-3" d="M67.5,91.1c-1.5-2.3-3.2-3-3.8-6-.9-4.6,1.3-7.3,4.8-10,.6-.5,0-1.5-.6-1-2.6,2-5.3,4.2-5.6,7.8a14.37,14.37,0,0,0,.7,5.5c.7,1.8,2.4,2.7,3.5,4.3.4.6,1.5,0,1-.6Z" transform="translate(-58.91 -20.39)"/><path class="cls-3" d="M67.7,86.3c-.3-1.2,2-3.2,2.6-4a14.53,14.53,0,0,0,1.8-3.2,8.41,8.41,0,0,0-.1-6.6c-.3-.7-1.3-.1-1,.6,1.6,3.7-.6,7.5-3.1,10.2-1,1.1-1.8,1.8-1.4,3.4.2.6,1.4.3,1.2-.4Z" transform="translate(-58.91 -20.39)"/><path class="cls-3" d="M76.3,101.9c0-1.2,1.4-2.2,2.1-3a7.68,7.68,0,0,0,1-1.8,8.79,8.79,0,0,0,.4-4.8c-.1-.8-1.3-.4-1.1.3a7.3,7.3,0,0,1-1.9,6.3c-.9.9-1.7,1.6-1.7,3,0,.7,1.2.7,1.2,0Z" transform="translate(-58.91 -20.39)"/><path class="cls-3" d="M72.7,122.1a6.2,6.2,0,0,0,4.3-3.4,7.6,7.6,0,0,0,.6-2.6,9.24,9.24,0,0,1,2.2-5.5c.5-.6-.3-1.4-.8-.8a9.94,9.94,0,0,0-2.4,4.8c-.5,3-.9,5.5-4.3,6.3a.63.63,0,0,0,.4,1.2Z" transform="translate(-58.91 -20.39)"/><path class="cls-3" d="M84.1,109.2c5.3,1,2.9-9,2.6-11.5-.1-.8-1.3-.8-1.2,0,.2,1.4,1.9,10.9-1.1,10.3a.62.62,0,0,0-.3,1.2Z" transform="translate(-58.91 -20.39)"/><path class="cls-3" d="M66.9,62.9c1.6-1.1,2.1-2.6,2.3-4.5.3-3.9-.1-7.6,2.1-11,.4-.6-.6-1.2-1-.6a11.86,11.86,0,0,0-2,5.7c-.4,2.7.7,7.7-2,9.4-.6.4,0,1.4.6,1Z" transform="translate(-58.91 -20.39)"/><path class="cls-3" d="M74,35c.8-2.4,4.5-5.3,6.5-6.7,3.1-2.1,8.4-3.9,12.1-3.1.7.1,1.1-1,.3-1.1-4.2-.8-9.2.7-12.7,3-2.6,1.7-6.3,4.7-7.3,7.7-.3.6.9,1,1.1.2Z" transform="translate(-58.91 -20.39)"/><path class="cls-3" d="M84.1,34.7A17.39,17.39,0,0,1,96,34.3a.57.57,0,0,0,.3-1.1,18.49,18.49,0,0,0-12.5.4.57.57,0,1,0,.3,1.1Z" transform="translate(-58.91 -20.39)"/><path class="cls-3" d="M132.1,69.9a31.21,31.21,0,0,1-.5-18.4.57.57,0,1,0-1.1-.3,31.6,31.6,0,0,0,.5,19c.1.8,1.3.5,1.1-.3Z" transform="translate(-58.91 -20.39)"/><path class="cls-3" d="M129.6,90.2a9.84,9.84,0,0,1-2-3.4c-.6-2,.3-4,.8-5.9a7.17,7.17,0,0,0-.3-5c-.3-.7-1.3-.1-1,.6,1.4,3.1-1,6.1-.9,9.2.1,2,1.2,3.6,2.4,5.2.5.5,1.5-.1,1-.7Z" transform="translate(-58.91 -20.39)"/><path class="cls-3" d="M130.7,120.3c-1.6-3.1-1.4-6.6-1.2-10a.6.6,0,1,0-1.2,0c-.2,3.6-.3,7.3,1.4,10.6.3.7,1.4.1,1-.6Z" transform="translate(-58.91 -20.39)"/><path class="cls-3" d="M131.1,107.2c.8-2.4,3.7-4.1,2.5-6.9-.3-.7-1.3-.1-1,.6.9,2-2,4.2-2.6,6-.3.7.8,1,1.1.3Z" transform="translate(-58.91 -20.39)"/><path class="cls-3" d="M117,94.2a1.92,1.92,0,0,0,1.2,2.6c.8.4,1.6.6,2.1,1.5a7,7,0,0,1,.9,2.4c.2.7,1.4.4,1.1-.3a8.52,8.52,0,0,0-1.3-3.1,5.24,5.24,0,0,0-1.1-1c-.5-.3-2.2-.7-1.9-1.5s-.7-1.3-1-.6Z" transform="translate(-58.91 -20.39)"/><path class="cls-3" d="M118.1,125.5c.7-2.7,2.6-5.2,4-7.6,1-1.6,2.3-3.2,2.1-5.2-.1-.8-1.3-.8-1.2,0,.2,2.4-2.4,5.2-3.5,7.2a20.1,20.1,0,0,0-2.6,5.3.62.62,0,1,0,1.2.3Z" transform="translate(-58.91 -20.39)"/><path class="cls-3" d="M117.5,110.7a15.33,15.33,0,0,0-1.6-3.7c-.8-1.3-2.9-2.6-2.5-4.3.1-.7-1-1.1-1.1-.3a3.88,3.88,0,0,0,1,3.2,15,15,0,0,1,3.1,5.5c.2.7,1.3.3,1.1-.4Z" transform="translate(-58.91 -20.39)"/><path class="cls-3" d="M116.3,34.6a11.35,11.35,0,0,0,3.9,3c1.7.8,3.9,1,5,2.8a.58.58,0,1,0,1-.6,5.9,5.9,0,0,0-3.3-2.5,11.68,11.68,0,0,1-5.7-3.5c-.6-.7-1.4.2-.9.8Z" transform="translate(-58.91 -20.39)"/><path class="cls-3" d="M100,34.1a21.13,21.13,0,0,1,7.4-2.2c.8-.1.8-1.3,0-1.2a22.32,22.32,0,0,0-8,2.3c-.7.4-.1,1.4.6,1.1Z" transform="translate(-58.91 -20.39)"/><path class="cls-3" d="M102.8,24l5.8-.3a.6.6,0,1,0,0-1.2l-5.8.3a.6.6,0,1,0,0,1.2Z" transform="translate(-58.91 -20.39)"/></svg>