<svg id="Layer_1" data-name="Layer 1" xmlns="http://www.w3.org/2000/svg" viewBox="0 0 73.18 103.08"><defs><style>.cls-1{fill:#603016;}.cls-2{fill:#100d0c;}.cls-3{fill:#613719;}</style></defs><title>Brown</title><path class="cls-1" d="M72,101.5a6.73,6.73,0,0,0-.1-2c-.7.4-1.3.8-2,1.2.2.2.3.4.5.6.9,1,2.2-.1,2-1.2a13.85,13.85,0,0,0-1-3.3,1.2,1.2,0,0,0-1.5-.8,1.13,1.13,0,0,0-.8,1.5,18,18,0,0,1,1,3.3c.7-.4,1.3-.8,2-1.2-.2-.2-.3-.4-.5-.6-.9-.9-2.2.1-2,1.2a2.85,2.85,0,0,1,0,1.3c-.2,1.6,2.2,1.5,2.4,0Z" transform="translate(-62.7 -27.32)"/><path class="cls-1" d="M68.3,60.3,68,56.1c-.1-1.5-2.5-1.5-2.4,0l.3,4.2c.1,1.6,2.5,1.6,2.4,0Z" transform="translate(-62.7 -27.32)"/><path class="cls-1" d="M84.3,125.5v.6c.6-.3,1.2-.7,1.8-1-.1-.1-.3-.2-.4-.3a1.16,1.16,0,0,0-1.6.4,1.23,1.23,0,0,0,.4,1.6c.1.1.3.2.4.3a1.21,1.21,0,0,0,1.8-1v-.6a1.29,1.29,0,0,0-1.2-1.2,1.16,1.16,0,0,0-1.2,1.2Z" transform="translate(-62.7 -27.32)"/><path class="cls-1" d="M86.8,113.5c.5,2.5,1,4.9,1.7,7.3a1.19,1.19,0,0,0,2.3-.6c-.6-2.4-1.2-4.9-1.7-7.3-.2-1.6-2.6-.9-2.3.6Z" transform="translate(-62.7 -27.32)"/><path class="cls-1" d="M122.7,99v-.9c-.2.3-.4.7-.6,1a.1.1,0,0,0,.1-.1c-.2.1-.4.1-.6.2h-.1a2.19,2.19,0,0,1-.5-.3c.1-.7,0-1-.1-.7,0,.1-.1.1-.1.2l2.2.3c0-.1-.1-.3-.1-.4-.7.3-1.5.6-2.2.9v-.3c.2-.2.2-.3,0-.1a1.2,1.2,0,1,0,1.7,1.7,2,2,0,0,0,.4-2.4,1.21,1.21,0,0,0-2.2.9c0,.1.1.3.1.4a1.22,1.22,0,0,0,2.2.3,2,2,0,0,0,.2-2.1A1.72,1.72,0,0,0,121,97a1.1,1.1,0,0,0-.6,1v.9a1.15,1.15,0,1,0,2.3.1Z" transform="translate(-62.7 -27.32)"/><path class="cls-1" d="M121.9,127.4a4.66,4.66,0,0,0,4-.4c1.4-.7.2-2.8-1.2-2.1a2.43,2.43,0,0,1-2.2.1c-1.5-.4-2.1,1.9-.6,2.4Z" transform="translate(-62.7 -27.32)"/><path class="cls-1" d="M135.1,98a71.46,71.46,0,0,0-.8-10.3c-.3-1.6-.7-3.3-.9-4.9-.3-2.1.1-4.2-.1-6.3-.7.3-1.4.6-2,.8,1.9,1.9,1.1,7.4,1.6,10.1.2,1.3,2.5,1,2.4-.3a117.78,117.78,0,0,0-1.7-11.7c-.3-1.5-2.6-.9-2.3.6a102.29,102.29,0,0,1,1.6,11.1l2.4-.3c-.7-3.7.7-8.3-2.2-11.2-.7-.7-2.2-.2-2,.8.3,3-.1,5.5.5,8.5a79.44,79.44,0,0,1,1.3,12.9,1.11,1.11,0,1,0,2.2.2Z" transform="translate(-62.7 -27.32)"/><path class="cls-1" d="M133.5,78h0l-.3-2.4h.2a2,2,0,0,1,.8.4v-.1a2.19,2.19,0,0,0,.3.5c-.1-.4-.1-.7-.2-1.1a1.2,1.2,0,0,0-1.5-.8A1.13,1.13,0,0,0,132,76a3.71,3.71,0,0,0,.4,1.5,1.47,1.47,0,0,0,1.4.5,1.23,1.23,0,0,0-.3-2.4h0a1.2,1.2,0,0,0,0,2.4Z" transform="translate(-62.7 -27.32)"/><path class="cls-1" d="M133.3,68.7c-.7-4.7-1.4-9.3-2.2-13.9l-2.3.6a33.28,33.28,0,0,1,1.6,8.8c.1,1.5,2.5,1.5,2.4,0a33.84,33.84,0,0,0-1.7-9.4,1.19,1.19,0,0,0-2.3.6c.8,4.6,1.6,9.3,2.2,13.9.2,1.5,2.5.9,2.3-.6Z" transform="translate(-62.7 -27.32)"/><path class="cls-1" d="M83,43.1a2.8,2.8,0,0,0,1.9,2.6c1.2.3,2.8-.2,4-.4,1.5-.3.9-2.6-.6-2.3-.4.1-2.8.8-2.8.2-.2-1.6-2.6-1.6-2.5-.1Z" transform="translate(-62.7 -27.32)"/><path class="cls-1" d="M98.2,44.3h0c-.9-.6.2-2.5,1.4-1.4A1.48,1.48,0,0,0,97.5,45a2,2,0,0,0,3.3-1.5,2.37,2.37,0,0,0-1.1-1.9,3.3,3.3,0,0,0-2.4-.2,1.47,1.47,0,0,0-1,1.8,1.65,1.65,0,0,0,1.9,1.1Z" transform="translate(-62.7 -27.32)"/><path class="cls-1" d="M76.6,121.8H74.8v3a20.09,20.09,0,0,1,6.5,1v-2.9a23.48,23.48,0,0,1-9.5-.5,1.51,1.51,0,0,0-.8,2.9c3,1.2,8.4,3.7,11.8,2.4a2,2,0,0,0,1.5-1.7c.1-.3-.2-1.1-.1-1.2-.2-.5-.1-.4.2.5a19.27,19.27,0,0,0,2.4-.1,1.48,1.48,0,0,0,.4-2.9c-1-.3-2-.6-3-1-.3,1-.5,1.9-.8,2.9a21.34,21.34,0,0,1,4.2,1c.1-1,.3-1.9.4-2.9a15.91,15.91,0,0,1-6.4-1.6c-.4.9-.8,1.8-1.1,2.7l.1.1c.4-.8.7-1.7,1.1-2.5a17.42,17.42,0,0,1-6.4-.9c-1-.3-2.2.8-1.8,1.8.1.3.2.5.3.8.7-.6,1.5-1.1,2.2-1.7a8.18,8.18,0,0,1-2-1.2c-1.4-.9-3.1,1.2-1.8,2.3.2.2.4.3.6.5a1.47,1.47,0,0,0,2.3-.3c.1-.2.3-.4.4-.6,1.1-1.6-1.5-3.1-2.6-1.5-.1.2-.3.4-.4.6l2.3-.3c-.2-.2-.4-.3-.6-.5-.6.8-1.2,1.6-1.8,2.3a8.17,8.17,0,0,0,2,1.2c1.1.5,2.7-.4,2.2-1.7-.1-.3-.2-.5-.3-.8l-1.8,1.8a19.63,19.63,0,0,0,7.2,1,1.49,1.49,0,0,0,1.1-2.5,2.63,2.63,0,0,0-1.4-.9c-1.6-.5-2.7,2-1.1,2.7a21.42,21.42,0,0,0,7.9,2c1.8.1,1.9-2.4.4-2.9a19.78,19.78,0,0,0-4.2-1,1.51,1.51,0,0,0-.8,2.9,26.37,26.37,0,0,0,3,1c.1-1,.3-1.9.4-2.9-1.4,0-3.8-.5-5,.6-1.1.9-.3,2-.5,3.1.2-.4.5-.9.7-1.3-1,.7-3.9-.2-5-.5a38.25,38.25,0,0,1-5.1-1.8c-.3,1-.5,1.9-.8,2.9a29.59,29.59,0,0,0,11.1.5c1.6-.2,1.3-2.5,0-2.9a22.28,22.28,0,0,0-7.3-1.1,1.5,1.5,0,0,0,0,3h1.8c1.6.1,1.6-2.9-.3-2.9Z" transform="translate(-62.7 -27.32)"/><path class="cls-1" d="M124.1,92.1a6.87,6.87,0,0,0,.5-2.4c.1-1.5-2-1.9-2.8-.8a7.28,7.28,0,0,1-2.2,2.4c.8.4,1.7.7,2.5,1.1a5.32,5.32,0,0,1,1.2-2.9,4.35,4.35,0,0,1-.7.4h.1c-.5-.1-1-.3-1.4-.4l.1.1c-.1-.4-.3-.7-.4-1.1v.1c.2-.4.5-.9.7-1.3h-.1a1.5,1.5,0,0,0,1.5,2.6h.1a1.46,1.46,0,0,0,.7-1.3,1.58,1.58,0,0,0-1.6-1.6,2.25,2.25,0,0,0-1.8,1.3,8.89,8.89,0,0,0-1.5,4.1,1.52,1.52,0,0,0,2.5,1.1,10.09,10.09,0,0,0,2.7-3.1c-.9-.3-1.8-.5-2.8-.8a4.19,4.19,0,0,1-.4,1.6,1.47,1.47,0,0,0,1,1.8,1.63,1.63,0,0,0,2.1-.9Z" transform="translate(-62.7 -27.32)"/><path class="cls-1" d="M124.2,100.3a3,3,0,0,1-1,.2,23.07,23.07,0,0,0,1.9,1.4,20.55,20.55,0,0,1,3.3-10.2c-.9-.3-1.8-.5-2.8-.8a17.22,17.22,0,0,1-2.8,7.2,25.12,25.12,0,0,1,2.7.4c-.5-2.6,1.2-6.1,2.1-8.5.6-1.6-2-2.7-2.7-1.1a82,82,0,0,1-4,7.8c.9.3,1.8.5,2.8.8a14.13,14.13,0,0,1,2.3-6.3c-.9-.4-1.8-.8-2.7-1.1-.8,2.4-1.7,4.9-2.5,7.3,1,.3,1.9.5,2.9.8a21.44,21.44,0,0,1,2.4-7.4c-.9-.5-1.7-1-2.6-1.5-.4,1-.9,1.9-1.3,2.9.9.4,1.8.8,2.7,1.1.5-.8.9-1.5,1.4-2.3-.8-.4-1.7-.7-2.5-1.1a59.69,59.69,0,0,1-3.9,17.8c1,.1,1.9.3,2.9.4a30.62,30.62,0,0,1,1.2-8.5,1.51,1.51,0,0,0-2.9-.8c-.6,1.9-2.4,11.4-4.2,12.2.7.3,1.5.6,2.2.9-.9-2.9,1.1-7.2,2.1-10-1-.3-1.9-.5-2.9-.8-.7,3.4-1.6,6.8-2.6,10.1,1,.1,1.9.3,2.9.4-.3-2.8-.5-5.5-.6-8.3a1.48,1.48,0,0,0-2.9-.4,57.71,57.71,0,0,0-1.6,7.2,25.12,25.12,0,0,0,2.7-.4c-1.2-2.3-.8-4-2.9-5.5a1.55,1.55,0,0,0-2,.5c-1.9,4-1.5,7.9-.9,12.2.2,1.4,2.6,1.4,2.9,0,.5-2.6.9-5.3,1.4-7.9-1-.1-1.9-.3-2.9-.4.1,2.2,0,4.4-.1,6.6-.1,1.9,2.9,1.9,3,0a48.7,48.7,0,0,1,.6-5.5c-1-.1-1.9-.3-2.9-.4a84.16,84.16,0,0,0,0,8.7,1.5,1.5,0,0,0,3,0,48.64,48.64,0,0,1,1.4-8.5c-1-.1-1.9-.3-2.9-.4,0,2.9.2,5.8.4,8.7a1.5,1.5,0,0,0,3,0,62.57,62.57,0,0,1,1-7.4c-1-.1-1.9-.3-2.9-.4.2,2.3.3,4.5.3,6.8h3a16.9,16.9,0,0,1,.9-6.3c-1-.1-1.9-.3-2.9-.4.3,2.3.6,4.7.9,7,.2,1.5,2.6,2.2,2.9.4l1.5-8.1c-1-.1-1.9-.3-2.9-.4,0,3.2.1,6.4.1,9.7,0,1.9,2.9,1.9,3,0a39.25,39.25,0,0,1,1.8-11.3c-1-.1-1.9-.3-2.9-.4-.2,4.1-.3,8.1-.5,12.2-.1,1.9,2.8,1.9,3,0a55.09,55.09,0,0,1,2.2-12c-1-.1-1.9-.3-2.9-.4-.2,3.7-.3,7.5-.5,11.2h3a32.17,32.17,0,0,1,2.2-11c-1-.1-1.9-.3-2.9-.4-.2,3.9-.4,7.9-.6,11.8-.1,1.9,2.8,1.9,3,0a52.41,52.41,0,0,1,1.8-10.5c-1-.1-1.9-.3-2.9-.4a72.52,72.52,0,0,1-.5,11.4h3a29.53,29.53,0,0,1,1.7-10.2c-1-.1-1.9-.3-2.9-.4a92.4,92.4,0,0,1-.6,10.5c-.2,1.9,2.7,1.9,3,0a35.89,35.89,0,0,1,1.9-8c-1-.1-1.9-.3-2.9-.4-.2,3-.5,6-.7,9-.1,1.9,2.8,1.9,3,0a18.38,18.38,0,0,1,1.7-6.6c-1-.1-1.9-.3-2.9-.4-.2,2.1-.3,4.3-.4,6.4a1.48,1.48,0,0,0,2.9.4c.1-.3.2-.7.3-1h-2.9a5.85,5.85,0,0,1,.2,1.3c.3,1.5,2.5,1.3,2.9,0l2.1-7.2c-1-.1-1.9-.3-2.9-.4a14.66,14.66,0,0,1-2,6.1c.9.4,1.8.8,2.7,1.1,1.9-6.6,5-14.8,1.8-21.5-.6-1.3-2.3-.7-2.7.4-1.3,3.6-1.3,7.6-2.8,11.1a25.12,25.12,0,0,1,2.7.4,81.82,81.82,0,0,1-2-11c-1,.1-1.9.3-2.9.4a37.36,37.36,0,0,1,.7,8.8c1-.1,1.9-.3,2.9-.4a41.75,41.75,0,0,1-1.3-11.6h-3a31.42,31.42,0,0,1-.9,12.2c1,.1,1.9.3,2.9.4a42.12,42.12,0,0,1,1-13.7h-2.9a105.06,105.06,0,0,1,.9,13.7c0,2,2.8,1.9,3,0,.6-5.6.3-11.2.2-16.8-1,.1-1.9.3-2.9.4a31.25,31.25,0,0,1,1.6,12.5c-.1,1.7-.7,4.1.8,5.3.8.6,2.3.6,2.5-.7a100.54,100.54,0,0,0,.9-13.4h-3c.2,4.4.4,8.8.6,13.3,1-.1,1.9-.3,2.9-.4a22.8,22.8,0,0,1-.8-7.8c-1,.1-1.9.3-2.9.4,1.5,5.2-.2,8.3-2.9,12.4-3.3,5-7.4,4.5-12.5,6.5a23.07,23.07,0,0,0,1.9,1.4c0-.2-.1-.5-.1-.7-.9.3-1.8.5-2.8.8.6-.6,1.2-1.2,1.8-1.7-.9-.3-1.8-.5-2.8-.8l-.9,2.1c.8.4,1.7.7,2.5,1.1a8.86,8.86,0,0,1,.6-3.9,1.5,1.5,0,0,0-2.9-.8,20,20,0,0,1-1,2.6c1,.1,1.9.3,2.9.4v-3a1.53,1.53,0,0,0-2.8-.8c-.2.2-.3.5-.5.7a25.12,25.12,0,0,1,2.7.4c-.1-.6-.1-1.2-.2-1.8,0-1.6-2.6-2.1-2.9-.4-.7,3.2-1.3,6.4-2,9.6-.2,1.1-.9,2.6-.4,3.7a1.47,1.47,0,0,0,1.8,1,4.14,4.14,0,0,0,1.6.4,1.5,1.5,0,0,0,1.4-1.1,66,66,0,0,0,2-6.3h-2.9c0,.8-.1,1.6-.1,2.5a11,11,0,0,1,1.8-.2,2.62,2.62,0,0,0,1.8-2.7c.2-1.5-2.1-2-2.8-.8l-1.1,1.4c.8.5,1.7,1,2.5,1.4,0-2.5.6-3,1.7-1.4a11,11,0,0,0,1.8.2s-4.2,1.9-4.7,2.3a4,4,0,0,0-1.4,2.6c-.1,1,.4,1.9,1.4,1.9,3.6.1,7.3-2,10.6-3.2-.4-.9-.8-1.8-1.1-2.7a15.9,15.9,0,0,1-4.1,2.1c-1.7.7-1.1,3.4.8,2.9,3.3-1,6.3-3.3,9.6-4.1-.5-.8-1-1.7-1.4-2.5-2.1,1.9-5.1,2.3-7.5,3.9l2,2a46.93,46.93,0,0,1,4-7.7c-.9-.3-1.8-.5-2.8-.8-.3.5-.5,1-.8,1.5.8.5,1.7,1,2.5,1.4.3-.4.6-.9.9-1.3-.6-.2-1.1-.5-1.7-.7-.1.5-.2.9-.3,1.4.8.4,1.7.7,2.5,1.1.2-.4.5-.8.7-1.3-.7-.4-1.5-.9-2.2-1.3-.3.9-.6,1.9-.8,2.8.9.3,1.8.5,2.8.8l1.5-3a23.35,23.35,0,0,1-2.5-.7,24.52,24.52,0,0,1,.2,2.7c-.2,1.7,2.4,1.9,2.9.4.6-1,1.3-2.1,1.9-3.1-.8-.4-1.7-.7-2.5-1.1-.1.7-.1,1.5-.2,2.2-.3,1.6,1.9,2.7,2.7,1.1a7.39,7.39,0,0,1,2.1-2.8c-.8-.5-1.7-1-2.5-1.4-.7,2.3-2.9,3.9-4.1,6-.8,1.4,1.2,3.1,2.3,1.8s3.1-2.7,3.1-4.4c.1-2.2-2.9-5.3-3.9-7s-3.6-.1-2.6,1.5c1.7,2.7,3.9,5,1.3,7.8.8.6,1.6,1.2,2.3,1.8,1.4-2.5,3.5-3.9,4.4-6.7.5-1.5-1.4-2.4-2.5-1.4a11,11,0,0,0-2.6,3.4c.9.4,1.8.8,2.7,1.1a15.26,15.26,0,0,0,.3-3,1.49,1.49,0,0,0-2.5-1.1,9.91,9.91,0,0,0-2.7,4.5c1,.1,1.9.3,2.9.4a6,6,0,0,0-.3-3.5,1.55,1.55,0,0,0-2.5-.7,6.61,6.61,0,0,0-2.3,5.1c-.1,1.6,2,1.9,2.8.8a6.82,6.82,0,0,0,1.3-4.3c-.1-1-1.3-2-2.2-1.3a4.41,4.41,0,0,0-2.2,3.8c-.1,1.2,1.7,2.1,2.5,1.1,1.1-1.4,1.9-3.3.7-5a1.62,1.62,0,0,0-1.7-.7c-1.8.4-2.5,1.8-3,3.4s1.4,2.3,2.5,1.4a4.13,4.13,0,0,0,1.7-3.7,1.53,1.53,0,0,0-2.8-.8,56.21,56.21,0,0,0-4,7.7c-.5,1.2.7,3,2,2,2.6-1.8,5.7-2.2,8.1-4.4,1.1-1-.1-2.8-1.4-2.5-3.4.8-6.2,3.1-9.6,4.1.3,1,.5,1.9.8,2.9a31.72,31.72,0,0,0,4.9-2.4c1.3-.9.5-3.3-1.1-2.7-2.9,1-6.7,3.2-9.8,3.1a23.07,23.07,0,0,1,1.4,1.9c.2-1.6,4.3-2.2,5.6-3.4a7.32,7.32,0,0,0,1.9-3c.7-1.9.6-4.5-1.7-5.2-3.6-1.2-7.4,5.6-4.7,8a1.51,1.51,0,0,0,1.8.2c3.1-1.3,4.1-7.6.2-8.4-4.1-.9-7.5,7.3-4.2,9.5s6.8-4.7,5.8-7.2c-2.2-5.4-7.4,1.4-7.9,4.1a1.48,1.48,0,0,0,2.5,1.4,5.26,5.26,0,0,0,1.6-2c-.9-.3-1.8-.5-2.8-.8-.8,6.9,8.2,4.5,5.1-1s-9.4,3.5-5.5,6.2a1.51,1.51,0,0,0,1.8-.2c1.6-1.4,1.5-3.5.9-5.4a1.53,1.53,0,0,0-2.9,0,42.09,42.09,0,0,1-2,6.3,17.1,17.1,0,0,0,1.4-1.1c1.1,0,.4-.4-.3-.5a3.83,3.83,0,0,0-2.1.1c.6.3,1.2.7,1.8,1-.4-1,.8-3.9,1-5,.5-2.2.9-4.5,1.4-6.7-1-.1-1.9-.3-2.9-.4a7.72,7.72,0,0,0,.3,2.6c.3,1.4,2,1.3,2.7.4.2-.2.3-.5.5-.7-.9-.3-1.8-.5-2.8-.8v3a1.48,1.48,0,0,0,2.9.4,20,20,0,0,1,1-2.6c-1-.3-1.9-.5-2.9-.8a24.22,24.22,0,0,0-.7,4.7,1.53,1.53,0,0,0,2.5,1.1,6.67,6.67,0,0,0,1.8-4.2,1.53,1.53,0,0,0-2.8-.8c-1,1.9-2.4,6.5,1,7s3.3-3.2,2.4-5.2c-.6-1.3-3-.7-2.8.8,0,.2.1.5.1.7a1.47,1.47,0,0,0,1.9,1.4c6.1-2.3,10.7-2,14.3-7.9,1.2-2,2.9-3.6,3.6-5.9a16.48,16.48,0,0,0-.4-8.8,1.48,1.48,0,0,0-2.9.4,25,25,0,0,0,.9,8.6c.4,1.6,3,1.3,2.9-.4-.2-4.4-.4-8.8-.6-13.3-.1-1.9-3-1.9-3,0a76.19,76.19,0,0,1-.8,12.6,23.35,23.35,0,0,0,2.5-.7c-.7-.6.1-7.8,0-9a27.92,27.92,0,0,0-1.6-7.5,1.48,1.48,0,0,0-2.9.4c0,5.6.4,11.2-.2,16.8h3a100,100,0,0,0-1-14.5c-.2-1.5-2.6-1.3-2.9,0a46.94,46.94,0,0,0-1.1,14.5c.1,1.6,2.5,2.1,2.9.4a35.48,35.48,0,0,0,1-13,1.5,1.5,0,0,0-3,0,43,43,0,0,0,1.4,12.4,1.48,1.48,0,0,0,2.9-.4,44,44,0,0,0-.8-9.6c-.3-1.6-3.1-1.3-2.9.4a78.84,78.84,0,0,0,2.1,11.8c.3,1.2,2.2,1.6,2.7.4,1.7-3.8,1.8-7.9,3.1-11.8a25.12,25.12,0,0,0-2.7.4c2.7,5.8-.5,13.6-2.1,19.2a1.47,1.47,0,0,0,2.7,1.1,18.8,18.8,0,0,0,2.4-7.6c.2-1.7-2.5-2-2.9-.4l-2.1,7.2h2.9a5.85,5.85,0,0,1-.2-1.3c-.3-1.5-2.5-1.3-2.9,0-.1.3-.2.7-.3,1,1,.1,1.9.3,2.9.4,0-2.1.2-4.3.4-6.4.2-1.8-2.3-1.8-2.9-.4a24.29,24.29,0,0,0-1.8,7.4h3c.2-3,.5-6,.7-9,.1-1.8-2.4-1.9-2.9-.4a43.42,43.42,0,0,0-2.1,8.8h3a92.4,92.4,0,0,0,.6-10.5,1.49,1.49,0,0,0-2.9-.4,29.55,29.55,0,0,0-1.8,11c0,2,2.7,1.8,3,0a61.81,61.81,0,0,0,.5-11.4,1.48,1.48,0,0,0-2.9-.4,53.52,53.52,0,0,0-2,11.3h3c.2-3.9.4-7.9.6-11.8.1-1.8-2.4-1.9-2.9-.4a36.38,36.38,0,0,0-2.3,11.8c0,1.9,2.9,1.9,3,0,.2-3.7.3-7.5.5-11.2.1-1.7-2.5-2-2.9-.4a68.68,68.68,0,0,0-2.3,12.8h3c.2-4.1.3-8.1.5-12.2.1-1.8-2.4-1.9-2.9-.4a41.86,41.86,0,0,0-1.9,12.1h3c0-3.2-.1-6.4-.1-9.7,0-1.6-2.6-2.1-2.9-.4l-1.5,8.1c1,.1,1.9.3,2.9.4-.3-2.3-.6-4.7-.9-7a1.48,1.48,0,0,0-2.9-.4,15.55,15.55,0,0,0-1,7.1c.1,1.9,3,1.9,3,0,0-2.3-.1-4.5-.3-6.8-.1-1.6-2.6-2.2-2.9-.4a75,75,0,0,0-1.1,8.1h3c-.2-2.9-.4-5.8-.4-8.7a1.48,1.48,0,0,0-2.9-.4,48.74,48.74,0,0,0-1.5,9.3h3a63.15,63.15,0,0,1,0-8.7c.1-1.6-2.7-2.1-2.9-.4-.3,2.1-.5,4.2-.7,6.3h3c.1-2.2.1-4.4.1-6.6,0-1.6-2.6-2.1-2.9-.4-.5,2.6-.9,5.3-1.4,7.9h2.9c-.6-3.5-1-6.5.6-9.9a19.45,19.45,0,0,1-2,.5c1,.7,1.3,3.3,1.9,4.5a1.48,1.48,0,0,0,2.7-.4,62,62,0,0,1,1.6-7.2c-1-.1-1.9-.3-2.9-.4a57.93,57.93,0,0,0,.6,8.3,1.48,1.48,0,0,0,2.9.4,88,88,0,0,0,2.6-10.1,1.51,1.51,0,0,0-2.9-.8c-1.3,3.5-3.2,7.8-2.1,11.6a1.52,1.52,0,0,0,2.2.9c1.6-.7,1.8-2.1,2.3-3.7,1.1-3.4,2.2-6.9,3.3-10.3-1-.3-1.9-.5-2.9-.8a32.15,32.15,0,0,0-1.3,9.3,1.48,1.48,0,0,0,2.9.4,63.18,63.18,0,0,0,4-18.6,1.49,1.49,0,0,0-2.5-1.1,6.1,6.1,0,0,0-2.1,3.6c-.4,1.6,2,2.7,2.7,1.1.4-1,.9-1.9,1.3-2.9.8-1.7-1.6-3.2-2.6-1.5a22.8,22.8,0,0,0-2.7,8.1,1.51,1.51,0,0,0,2.9.8c.8-2.4,1.7-4.9,2.5-7.3.6-1.6-1.8-2.5-2.7-1.1a16.57,16.57,0,0,0-2.7,7.8c-.2,1.5,2.1,1.9,2.8.8a71.57,71.57,0,0,0,4-7.8c-.9-.4-1.8-.8-2.7-1.1-1.2,3.2-2.8,6.7-2.1,10.1.3,1.4,2,1.3,2.7.4a19.25,19.25,0,0,0,3.3-8.7c.2-1.6-2.1-1.9-2.8-.8a23.45,23.45,0,0,0-3.7,11.8,1.44,1.44,0,0,0,1.9,1.4,3,3,0,0,1,1-.2c1.1.3.3-2.6-1.5-2.1Z" transform="translate(-62.7 -27.32)"/><path class="cls-1" d="M115.8,103.9c-.2.4-.4.7-.6,1.1.9.3,1.8.5,2.8.8.1-1.2.6-5.9,2.2-6.3-.5-.1-1-.3-1.4-.4.6.6-.6,6.7-1.4,7.4h2.1c-1.1-1.1-.6-4.4-.3-5.7-1-.3-1.9-.5-2.9-.8a10.76,10.76,0,0,1-.7,3.1c-.3.9-1.5,4.7-.6,1-1-.1-1.9-.3-2.9-.4,0,.2-.1.4-.1.7.2-.4.5-.9.7-1.3-.1.1-.3.2-.4.3a11,11,0,0,0,1.8.2c.1.1-.1-1-.1-.9-.3-1.5-2.5-1.3-2.9,0a8.33,8.33,0,0,0-.4,1.5h1.5c.7.1.8.3.2.5-.6-.2-1.1-.5-1.7-.7h0c.8.4,1.7.7,2.5,1.1a17.85,17.85,0,0,1,.2-2.3c-.5-.1-1-.3-1.4-.4-.1.3-.3.7-.4,1a23.35,23.35,0,0,1,2.5.7c-.2-1-.1-5.6,1.9-5.5-.4-.2-.9-.5-1.3-.7a5.54,5.54,0,0,1-.2,4.7c1,.1,1.9.3,2.9.4a8.61,8.61,0,0,1,.3-2.8c.1-.2.9-2.2.6-2.2-.4-.2-.9-.5-1.3-.7.3.5-2.1,5-2.1,5a11,11,0,0,0,1.8.2c-.3-.3,2.5-5.9,3.1-5.7a17.1,17.1,0,0,0-1.1-1.4c0,.7-.9,4.2-1.6,4.5.5.1,1,.3,1.4.4.2.2,1.3-2.5,1.4-2.7a12.09,12.09,0,0,1,2-3c1.2-1.5-.9-3.6-2.1-2.1-1.6,2-5.8,7.4-3.3,9.9a1.28,1.28,0,0,0,1.4.4c2.3-.8,3.9-5.1,3.8-7.3a1.32,1.32,0,0,0-1.1-1.4c-3.7-1-8.8,8.2-6,10.7a1.51,1.51,0,0,0,1.8.2c1.4-.6,2-2.9,2.5-4.1.6-1.4,1.6-3.4.7-4.9a1.46,1.46,0,0,0-1.3-.7c-3.2.4-3.9,5.4-3.9,8a1.48,1.48,0,0,0,2.9.4c.8-2,1.6-8.9-2.5-7.7-3.5,1-4.1,6.4-3.6,9.3a1.51,1.51,0,0,0,2.5.7c1.1-1.3,2.1-4.7-.1-5.5-2.6-1-3.4,3.4-3.4,5.1,0,1.2,1.7,2.1,2.5,1.1a3,3,0,0,0,.5-3.6,1.62,1.62,0,0,0-1.7-.7c-2.1.4-2.8,3.8-1,4.9a1.36,1.36,0,0,0,1.5,0c1.2-.7,1.3-2,1.7-3.3h-2.9c.2.9,0,1.5.8,2.2a1.51,1.51,0,0,0,1.8.2,2.56,2.56,0,0,0,1.2-2.3c.2-1.7-2.5-2-2.9-.4-.5,1.9-.1,6.1,2.9,5.4s3.8-5.7,4.1-8c.3-1.8-2.4-2.7-2.9-.8-.5,2.5-.9,6.5,1,8.5a1.45,1.45,0,0,0,2.1,0c1.4-1.5,1.7-4.5,2-6.5.3-1.8.7-3.7-.6-5.2a1.49,1.49,0,0,0-1.4-.4c-3.3.8-4.2,6.4-4.3,9.2a1.53,1.53,0,0,0,2.8.8c.2-.4.4-.7.6-1.1,1.3-1.9-1.3-3.4-2.2-1.7Z" transform="translate(-62.7 -27.32)"/><path class="cls-1" d="M95.2,41.6c-3.2,1.8-6.4.7-9.9.6-1.6-.1-4.6-.8-5.5,1A1.68,1.68,0,0,0,80,45c1,1.2,2.6.9,3.8.3,1.7-.8.2-3.4-1.5-2.6-.1,0-.1.1-.2.1a11,11,0,0,1,.2,1.8c-.3.5,3.2.5,3.5.5,1.7.1,3.3.3,4.9.5a9.81,9.81,0,0,0,6-1.5c1.6-.9.1-3.5-1.5-2.5Z" transform="translate(-62.7 -27.32)"/><path class="cls-1" d="M127.3,50.6c-.8-1.4-1.6-2.8-2.3-4.3-.6.7-1.1,1.5-1.7,2.2.7.2,1.4,2.1,1.7,2.7.9-.5,1.7-1,2.6-1.5a20.81,20.81,0,0,0-3.7-5.1c-1.2-1.3-3,.4-2.3,1.8s1.3,2.6,2,3.8c.8,1.4,3.2.5,2.7-1.1s-1.8-2.9-2.5-4.4a23.07,23.07,0,0,0-1.4,1.9h.3c-.4-.1-.7-.3-1.1-.4a7.76,7.76,0,0,1,1.6,2.4c.9-.5,1.7-1,2.6-1.5-.9-1.2-1.7-2.5-2.6-3.7a1.5,1.5,0,0,0-2.6,1.5c.3.6.5,1.2.8,1.8.8-.6,1.6-1.2,2.3-1.8-.5-.7-1-1.3-1.5-2-.8.6-1.6,1.2-2.3,1.8a4.05,4.05,0,0,1,.5.9c.8-.6,1.6-1.2,2.3-1.8a3.33,3.33,0,0,1-1.1-1.9,23.07,23.07,0,0,0-1.4,1.9c.9.1,2.3,2.7,2.8,3.4a1.53,1.53,0,0,0,2.8-.8c0-1.9-1.2-3.7-2-5.4-.8.6-1.6,1.2-2.3,1.8a5.08,5.08,0,0,1,1.6,2.3c.1-.5.3-1,.4-1.4l-.1.1c-1.5,1.2.6,3.3,2.1,2.1,1.8-1.4-.9-4.2-1.9-5.2-1.2-1.3-3.1.3-2.3,1.8.6,1.1,1.6,2.6,1.6,3.9.9-.3,1.8-.5,2.8-.8-1.4-1.9-2.7-4.6-5.4-4.8-1-.1-1.6,1-1.4,1.9a5.88,5.88,0,0,0,1.9,3.2,1.48,1.48,0,0,0,2.3-1.8,7.84,7.84,0,0,0-1-1.5c-1-1.3-3.3.4-2.3,1.8a25.6,25.6,0,0,0,2,2.6c1.2,1.4,2.9-.4,2.3-1.8-.3-.6-.5-1.2-.8-1.8-.9.5-1.7,1-2.6,1.5.9,1.2,1.7,2.5,2.6,3.7a1.5,1.5,0,0,0,2.6-1.5c-.7-1.4-1.6-3.4-3.4-3.5a1.47,1.47,0,0,0-1.4,1.9c.7,1.6,2,2.8,2.5,4.4.9-.4,1.8-.8,2.7-1.1-.7-1.3-1.4-2.5-2-3.8-.8.6-1.6,1.2-2.3,1.8a23.08,23.08,0,0,1,3.2,4.5c.9,1.7,3.4.2,2.6-1.5s-1.6-3.5-3.5-4.1c-1.3-.4-2.2,1.1-1.7,2.2a35.5,35.5,0,0,0,2.3,4.3c.8,1.5,3.4,0,2.4-1.6Z" transform="translate(-62.7 -27.32)"/><path class="cls-1" d="M71.6,48.4c.9-1.1,1.7-2.2,2.6-3.3-.9-.5-1.7-1-2.6-1.5-.6,1-1.3,2-2,3,.9.5,1.7,1,2.6,1.5a7.46,7.46,0,0,1,.7-1.2,1.51,1.51,0,0,0-.4-1.9,1.53,1.53,0,0,0-2,.1,2.8,2.8,0,0,1-1.3.9c.6.7,1.1,1.5,1.7,2.2.2-.2.3-.5.5-.7,1-1.6-1.6-3.1-2.6-1.5-.2.2-.3.5-.5.7A1.53,1.53,0,0,0,70,48.9a5.74,5.74,0,0,0,2.7-1.6c-.8-.6-1.6-1.2-2.3-1.8a7.46,7.46,0,0,1-.7,1.2,1.46,1.46,0,0,0,.5,2,1.55,1.55,0,0,0,2-.5,31.27,31.27,0,0,0,2-3,1.46,1.46,0,0,0-.5-2,1.55,1.55,0,0,0-2,.5c-.9,1.1-1.7,2.2-2.6,3.3a1.46,1.46,0,0,0,.5,2,1.55,1.55,0,0,0,2-.6Z" transform="translate(-62.7 -27.32)"/><path class="cls-1" d="M77.1,35.6c-.4.4-.8.7-1.2,1.1.7.4,1.5.9,2.2,1.3v-.2a1.54,1.54,0,0,0-2.8-.8c-.1.2-.2.3-.3.5a1.48,1.48,0,0,0,2.3,1.8c.8-.5,1.5-.9,2.3-1.4l-2-2a34.53,34.53,0,0,1-4.1,5.9c.8.6,1.6,1.2,2.3,1.8.7-1.1,1.5-2.1,2.2-3.2-.9-.4-1.8-.8-2.7-1.1A27.2,27.2,0,0,1,73.4,44,1.5,1.5,0,0,0,76,45.5a51.23,51.23,0,0,1,4.1-5.4c-.8-.6-1.6-1.2-2.3-1.8-1.2,2.1-2.4,4.3-3.6,6.4a1.5,1.5,0,0,0,2.6,1.5,49.3,49.3,0,0,1,3.6-5.3c-.8-.6-1.6-1.2-2.3-1.8-.9,1.7-1.8,3.3-2.8,5a1.5,1.5,0,0,0,2.6,1.5,23.36,23.36,0,0,1,3.3-4.3c-.8-.6-1.6-1.2-2.3-1.8a46.3,46.3,0,0,0-3.1,4.6c-1,1.6,1.6,3.1,2.6,1.5a20.45,20.45,0,0,1,2.5-3.5c-.8-.6-1.6-1.2-2.3-1.8-.7,1.2-1.4,2.3-2.1,3.5-1,1.7,1.5,3.1,2.6,1.5.5-.8,1.1-1.6,1.6-2.3-.9-.4-1.8-.8-2.7-1.1-.3,1-.7,2-1,3-.5,1.6,2,2.7,2.7,1.1.4-1,.9-1.9,1.3-2.9.8-1.7-1.6-3.2-2.6-1.5-.6,1-1.1,2-1.7,3,.9.3,1.8.5,2.8.8.1-.5.3-.9.4-1.4.7-1.6-1.9-2.5-2.7-1.1a74.92,74.92,0,0,1-4.5,6.5c.8.6,1.6,1.2,2.3,1.8.5-1.1,1-2.2,1.6-3.3.8-1.7-1.7-3.2-2.6-1.5A26,26,0,0,1,71.9,50c.9.3,1.8.5,2.8.8l.3-3.6c.1-1.5-2.2-2.1-2.8-.8-.7,1.5-1.4,3-2.1,4.4.9.3,1.8.5,2.8.8.1-1,.1-2.1.2-3.1a1.51,1.51,0,0,0-2.9-.8A12.89,12.89,0,0,1,68.5,51c.9.4,1.8.8,2.7,1.1.4-1.3.9-2.6,1.3-3.9-1-.3-1.9-.5-2.9-.8a15.87,15.87,0,0,1-.7,2c1,.3,1.9.5,2.9.8.2-.9.5-1.7.7-2.6a1.47,1.47,0,0,0-2.7-1.1l-.9,1.8c.9.3,1.8.5,2.8.8a4.87,4.87,0,0,1,.1-1.2,1.52,1.52,0,0,0-2.8-.8,20,20,0,0,0-1,2.1,1.5,1.5,0,0,0,2.6,1.5c.5-.7.9-1.4,1.4-2.1-.9-.4-1.8-.8-2.7-1.1a16.5,16.5,0,0,0-.9,4.3c-.1,1.6,2,1.9,2.8.8.6-1,1.3-2,1.9-3-.9-.3-1.8-.5-2.8-.8a19.68,19.68,0,0,1-.5,3.5c-.3,1.6,1.9,2.7,2.7,1.1,1.2-2.2,2.3-4.3,3.5-6.5-.9-.4-1.8-.8-2.7-1.1a45,45,0,0,0-1.7,6.3c-.3,1.5,2,2.8,2.7,1.1.9-1.9,1.8-3.8,2.6-5.6-.9-.4-1.8-.8-2.7-1.1-.5,1.6-1,3.2-1.5,4.7a1.47,1.47,0,0,0,2.7,1.1c1-1.7,1.9-3.4,2.9-5.1-.9-.4-1.8-.8-2.7-1.1-.6,1.7-1.2,3.5-1.8,5.2s2,2.7,2.7,1.1a44.42,44.42,0,0,1,2.4-4.9c-.9-.5-1.7-1-2.6-1.5l-1.8,3.9c.9.4,1.8.8,2.7,1.1a7.72,7.72,0,0,0,.2-1.5,1.51,1.51,0,0,0-2.9-.8c-.9,2.3-1.8,4.6-2.6,6.9,1,.3,1.9.5,2.9.8.4-1.3.9-2.6,1.3-4-1-.3-1.9-.5-2.9-.8-.3,1.6-.7,3.2-1,4.8a1.51,1.51,0,0,0,2.9.8,25.43,25.43,0,0,0,.9-4.8c.1-1.7-2.6-2.1-2.9-.4s-.6,3.6-1,5.4a1.51,1.51,0,0,0,2.9.8c.4-1.2.8-2.4,1.2-3.7-1-.1-1.9-.3-2.9-.4-.2,1-.4,2.1-.5,3.1,1,.3,1.9.5,2.9.8.4-1.7.8-3.3,1.2-5a1.51,1.51,0,0,0-2.9-.8c-.5,1.6-1,3.2-1.4,4.8,1,.1,1.9.3,2.9.4,0-1.4-.1-2.9-.1-4.3s-2.1-2.1-2.8-.8c-1.4,2.7-2.8,5.4-4.3,8.1.9.3,1.8.5,2.8.8a21.35,21.35,0,0,1,.8-4.4A1.5,1.5,0,0,0,69,56a33.05,33.05,0,0,0-1.2,4.5c1,.3,1.9.5,2.9.8a29.29,29.29,0,0,0,.4-6.6c-.1-1.6-2.5-2.1-2.9-.4s-.9,3.2-1.3,4.8c1,.1,1.9.3,2.9.4a17.13,17.13,0,0,1,.9-5.5c-1-.1-1.9-.3-2.9-.4-.2,1-.3,2-.5,3.1,1,.3,1.9.5,2.9.8l.3-1.8c.3-1.9-2.6-2.7-2.9-.8l-.3,1.8c-.3,1.8,2.4,2.7,2.9.8a25,25,0,0,0,.6-3.8c.1-1.7-2.4-1.9-2.9-.4a19.32,19.32,0,0,0-1,6.3,1.48,1.48,0,0,0,2.9.4c.4-1.6.9-3.2,1.3-4.8-1-.1-1.9-.3-2.9-.4a28.22,28.22,0,0,1-.3,5.8c-.3,1.9,2.5,2.7,2.9.8A33.05,33.05,0,0,1,72,56.9c-1-.3-1.9-.5-2.9-.8a29.75,29.75,0,0,0-.9,5.2c-.2,1.5,2.1,2,2.8.8,1.4-2.7,2.8-5.4,4.3-8.1-.9-.3-1.8-.5-2.8-.8,0,1.4.1,2.9.1,4.3a1.48,1.48,0,0,0,2.9.4c.5-1.6,1-3.2,1.4-4.8-1-.3-1.9-.5-2.9-.8-.4,1.7-.8,3.3-1.2,5-.4,1.9,2.4,2.7,2.9.8a16.71,16.71,0,0,0,.6-3.9c.2-1.7-2.4-1.9-2.9-.4-.4,1.2-.8,2.4-1.2,3.7,1,.3,1.9.5,2.9.8.3-1.8.6-3.6,1-5.4-1-.1-1.9-.3-2.9-.4a11,11,0,0,1-.8,4c1,.3,1.9.5,2.9.8.3-1.6.7-3.2,1-4.8a1.51,1.51,0,0,0-2.9-.8c-.4,1.3-.9,2.6-1.3,4-.6,1.9,2.2,2.5,2.9.8.9-2.3,1.8-4.6,2.6-6.9-1-.3-1.9-.5-2.9-.8a7.72,7.72,0,0,0-.2,1.5c-.2,1.5,1.9,2.8,2.7,1.1L79,47.5c.8-1.7-1.6-3.2-2.6-1.5A44.42,44.42,0,0,0,74,50.9c.9.4,1.8.8,2.7,1.1.6-1.7,1.2-3.5,1.8-5.2s-1.9-2.6-2.7-1.1c-1,1.7-1.9,3.4-2.9,5.1.9.4,1.8.8,2.7,1.1.5-1.6,1-3.2,1.5-4.7s-2-2.7-2.7-1.1c-.9,1.9-1.8,3.8-2.6,5.6.9.4,1.8.8,2.7,1.1a45,45,0,0,1,1.7-6.3c.6-1.6-1.9-2.6-2.7-1.1-1.2,2.2-2.3,4.3-3.5,6.5.9.4,1.8.8,2.7,1.1a31.76,31.76,0,0,0,.6-4.3c.1-1.6-2-1.9-2.8-.8-.6,1-1.3,2-1.9,3,.9.3,1.8.5,2.8.8a8.53,8.53,0,0,1,.8-3.5c.6-1.7-1.8-2.5-2.7-1.1-.5.7-.9,1.4-1.4,2.1.9.5,1.7,1,2.6,1.5a20,20,0,0,1,1-2.1c-.9-.3-1.8-.5-2.8-.8a4.87,4.87,0,0,1-.1,1.2,1.52,1.52,0,0,0,2.8.8l.9-1.8c-.9-.4-1.8-.8-2.7-1.1-.2.9-.5,1.7-.7,2.6a1.51,1.51,0,0,0,2.9.8,15.87,15.87,0,0,1,.7-2c.6-1.8-2.3-2.6-2.9-.8-.4,1.3-.9,2.6-1.3,3.9-.6,1.6,1.9,2.5,2.7,1.1a19.48,19.48,0,0,0,2-4.1c-1-.3-1.9-.5-2.9-.8a7.44,7.44,0,0,0-.3,3.9c.1,1.3,2.1,2.2,2.8.8s1.4-3,2.1-4.4c-.9-.3-1.8-.5-2.8-.8l-.3,3.6c-.2,1.6,2,1.9,2.8.8s1.4-2.3,2.1-3.6c-.9-.5-1.7-1-2.6-1.5-.5,1.1-1,2.2-1.6,3.3-.7,1.4,1.2,3.2,2.3,1.8a69.81,69.81,0,0,0,5-7.1c-.9-.4-1.8-.8-2.7-1.1a5.85,5.85,0,0,0-.5,2.2,1.53,1.53,0,0,0,2.8.8c.6-1,1.1-2,1.7-3-.9-.5-1.7-1-2.6-1.5-.4,1-.9,1.9-1.3,2.9.9.4,1.8.8,2.7,1.1.3-1,.7-2,1-3,.6-1.7-1.8-2.5-2.7-1.1-.5.8-1.1,1.6-1.6,2.3.9.5,1.7,1,2.6,1.5.7-1.2,1.4-2.3,2.1-3.5.9-1.4-1.3-3.1-2.3-1.8a38.08,38.08,0,0,0-2.9,4.1c.9.5,1.7,1,2.6,1.5,1-1.6,2-3.1,3.1-4.6s-1.2-3-2.3-1.8a30,30,0,0,0-3.7,4.9c.9.5,1.7,1,2.6,1.5.9-1.7,1.8-3.3,2.8-5,.8-1.4-1.3-3.2-2.3-1.8a56.76,56.76,0,0,0-4.1,5.9c.9.5,1.7,1,2.6,1.5,1.2-2.1,2.4-4.3,3.6-6.4.8-1.4-1.2-3.1-2.3-1.8a67,67,0,0,0-4.5,6c.9.5,1.7,1,2.6,1.5A36,36,0,0,0,79,40.3c.6-1.7-1.8-2.5-2.7-1.1-.7,1.1-1.5,2.1-2.2,3.2-1,1.4,1.2,3.1,2.3,1.8A33.19,33.19,0,0,0,81,37.7a1.46,1.46,0,0,0-2-2,9.1,9.1,0,0,0-2.9,1.9c.8.6,1.6,1.2,2.3,1.8.1-.2.2-.3.3-.5-.9-.3-1.8-.5-2.8-.8v.2a1.51,1.51,0,0,0,2.2,1.3c.8-.3,1.2-1,1.8-1.6.7-1.6-1.4-3.7-2.8-2.4Z" transform="translate(-62.7 -27.32)"/><path class="cls-1" d="M72.3,45.8c1.5-1.6,3.1-3,4.8-4.5L75,39.2a22.84,22.84,0,0,1-2.2,2.2c.7.6,1.5,1.1,2.2,1.7a4.19,4.19,0,0,1,.9-1.4l-2.1-2.1a6.83,6.83,0,0,1-2.3,1.8c.7.6,1.5,1.1,2.2,1.7.1-.3.2-.5.5-.6-.7-.6-1.5-1.1-2.2-1.7-.1.2-.1.3-.2.5-.6,1.6,1.9,2.5,2.7,1.1a8,8,0,0,1,2.2-2.3c-.7-.6-1.5-1.1-2.2-1.7a.68.68,0,0,1-.4.6,23.35,23.35,0,0,1,2.5.7.35.35,0,0,0-.1-.2c-.1.4-.1.8-.2,1.1a4.63,4.63,0,0,1,1.6-1.5l-2-2a3.81,3.81,0,0,1-1.1,1.4l2,2a3.51,3.51,0,0,1,1.7-1.7l-2-2a4.57,4.57,0,0,1-1.6,1.5l2,2a9.5,9.5,0,0,1,1-1.7c1.2-1.5-.9-3.6-2.1-2.1a11.36,11.36,0,0,0-1.5,2.3c-.6,1.3.6,2.9,2,2A8.39,8.39,0,0,0,79,38.2c.9-1.3-.8-2.6-2-2A5.86,5.86,0,0,0,74.2,39c-.6,1.2.7,3,2,2a6.89,6.89,0,0,0,2.1-2.4c.6-1.2-.7-2.9-2-2s-3.4,2.3-2.7,4a1.55,1.55,0,0,0,2.5.7,3.47,3.47,0,0,0,1.2-1.9,1.53,1.53,0,0,0-2.2-1.7A12.94,12.94,0,0,0,71.8,41c.9.4,1.8.8,2.7,1.1.1-.2.1-.3.2-.5.5-1.3-1.1-2.2-2.2-1.7a3.62,3.62,0,0,0-1.9,2.3c-.4,1.3,1.1,2.2,2.2,1.7a10.51,10.51,0,0,0,2.9-2.3c1.3-1.4-.7-3.5-2.1-2.1A5.74,5.74,0,0,0,72,42.2a1.5,1.5,0,0,0,2.2,1.7A17.27,17.27,0,0,0,77,41.3a1.49,1.49,0,0,0-2.1-2.1,51.1,51.1,0,0,0-4.8,4.5c-1.3,1.3.8,3.4,2.2,2.1Z" transform="translate(-62.7 -27.32)"/><path class="cls-1" d="M90.6,124.6a44.58,44.58,0,0,0-3.7-9.1,1.47,1.47,0,0,0-2.7,1.1c.4,1.2.8,2.4,1.1,3.5.9-.4,1.8-.8,2.7-1.1a19.81,19.81,0,0,1-1.9-7.6c-1,.1-1.9.3-2.9.4a68.67,68.67,0,0,1,2.7,8.8c.4,1.9,3.2,1.1,2.9-.8-.5-3-1-5.9-1.5-8.9-1,.3-1.9.5-2.9.8a31.49,31.49,0,0,1,1.7,6.2c1-.3,1.9-.5,2.9-.8a21.76,21.76,0,0,1-.6-6.7c-1,.1-1.9.3-2.9.4a7.76,7.76,0,0,1,.4,4h3c-.1-1.7-.1-3.3-.1-4.9-1,.1-1.9.3-2.9.4a8.17,8.17,0,0,1,.5,3.8h3a13.51,13.51,0,0,1,.1-5.3c-1-.1-1.9-.3-2.9-.4,0,.3-.1.5-.1.8,1-.1,1.9-.3,2.9-.4a22.91,22.91,0,0,1-.7-2.8c-.3-1.4-2.7-1.5-2.9,0a57.24,57.24,0,0,1-1.1,5.7,25.12,25.12,0,0,0,2.7-.4,18.62,18.62,0,0,1-1.5-5.6c-.2-1.6-3.1-1.3-2.9.4a36.64,36.64,0,0,1,.2,5.7c1-.1,1.9-.3,2.9-.4-.8-3.8-1.6-7.7-2.4-11.5-.9.4-1.8.8-2.7,1.1a14.93,14.93,0,0,1,1.5,4c.8-.5,1.7-1,2.5-1.4a17.15,17.15,0,0,1-4.6-7.2c-.7.6-1.5,1.1-2.2,1.7a5.2,5.2,0,0,1,3.1,4.6c.8-.4,1.7-.7,2.5-1.1-.7-.7-2.1-3-2.6-3.1,0,0,.9,2.9,1,3.7.9-.4,1.8-.8,2.7-1.1-1.5-2.1-3.4-4.6-3.2-7.4-.8.4-1.7.7-2.5,1.1a18.13,18.13,0,0,1,5.3,7.8c.8-.5,1.7-1,2.5-1.4-1.4-1.4-2.5-4-3.9-5.1-.6-1.2-.7-.8-.2,1.3a19.7,19.7,0,0,1,1.8,4.2c.9-.4,1.8-.8,2.7-1.1a20.38,20.38,0,0,1-2.7-5.3L82.9,97c.7.5,1.4.9,2.2,1.4l2.1-2.1c-1.4-1.2-2.9-2.3-4.3-3.5-.5.8-1,1.7-1.4,2.5a5.43,5.43,0,0,1,3.4,1.2c.4-.9.8-1.8,1.1-2.7a19.62,19.62,0,0,1-7.4-3.2c-1.3-.9-2.6.8-2,2,3.2,6.6,1.6,13.6-.1,20.3a25.12,25.12,0,0,0,2.7-.4,23.66,23.66,0,0,1-2.7-11.4,23.07,23.07,0,0,1-1.9,1.4c1.8.5,1.8,7.7,1.8,8.8.9-.3,1.8-.5,2.8-.8a38.55,38.55,0,0,1-4.6-9.6c-.5-1.5-3.1-1.3-2.9.4.2,2.4,1.1,6.3-.4,8.3-2.3,3.2-3.8-1.4-4.4-3.5-.5-1.9-3.3-1.1-2.9.8l.1-.1a25.12,25.12,0,0,1,2.7.4A38.47,38.47,0,0,1,67,95c-1-.1-1.9-.3-2.9-.4l.6,14.7c.1,1.6,2.6,2.1,2.9.4.8-4,1.5-8,2.3-11.9H67a33.14,33.14,0,0,1,1.7,6.9c.9-.4,1.8-.8,2.7-1.1A7.24,7.24,0,0,1,70,98.5c-1,.1-1.9.3-2.9.4a36.88,36.88,0,0,1,1.3,9.9c0,1.9,2.9,1.9,3,0,.1-3.3.3-6.6.7-10h-3c.1,2.4.2,4.8.3,7.1h3a20,20,0,0,1,.2-6.9,25.12,25.12,0,0,0-2.7.4c.9,1.7,1.4,6.4.6,8.5.6-.3,1.2-.7,1.8-1-.6-.8-1.2-1.6-1.9-2.4a17.1,17.1,0,0,1-1.1,1.4c1.3,3.1,1.4,3.8.2,2a4.72,4.72,0,0,1-1.2-3.2,23.35,23.35,0,0,0-2.5.7,9.59,9.59,0,0,1,2.3,7c.8-.4,1.7-.7,2.5-1.1-.5-.7-1.1-1.3-1.6-2-1,.3-1.9.5-2.9.8.4,1,.8,2.1,1.3,3.1.8-.5,1.7-1,2.5-1.4a17.33,17.33,0,0,1-3.7-4.4c-.9-1.4-3.2-.5-2.7,1.1a54.75,54.75,0,0,0,1.5,5.8c.9,2.4,3.4,4.4,3.5,7.2.8-.4,1.7-.7,2.5-1.1a13.85,13.85,0,0,1-4.4-6.7c-.8.5-1.7,1-2.5,1.4,2.3,2.9,3.3,6.3,6.1,8.9.4-.8.7-1.7,1.1-2.5-.3-.1-.6-.2-1-.3l-2,2a36.12,36.12,0,0,0,14.8,4.6v-3H79.7c.1,1,.3,1.9.4,2.9a8.51,8.51,0,0,1,5-.2,25.12,25.12,0,0,0-.4-2.7l-1.3.3c.1,1,.3,1.9.4,2.9a7.72,7.72,0,0,1,4-.2c-.3-.9-.5-1.8-.8-2.8l-.9.3c-1.9-.1-1.9,2.8,0,3a15.36,15.36,0,0,0,4.8-.2,1.52,1.52,0,0,0,.9-2.2,20.9,20.9,0,0,1-2.4-10.1c-1,.1-1.9.3-2.9.4,1,3.1,1.9,6.3,2.8,9.5.9-.4,1.8-.8,2.7-1.1a17.83,17.83,0,0,1-2.8-10c-.8.4-1.7.7-2.5,1.1.8.9-.5,3-1.3,3.3-.6.2-5.4-2.2-5.3-2.9-.7.3-1.5.6-2.2.9.4.2,4.4,3.1,2.5,1.8-1.1-.7-3.6-2.1-3.3-3.7a23.35,23.35,0,0,0-2.5.7,8.93,8.93,0,0,1,2.2,2.9c.9.6.9.7.1.2-2-.6-3.7-2.6-4.7-4.3l-2,2a8.65,8.65,0,0,1,3.6,5.9c.8-.5,1.7-1,2.5-1.4a41.56,41.56,0,0,1-4.1-6.2c-.8.6-1.6,1.2-2.3,1.8a7.43,7.43,0,0,1,2.8,4.1c.9-.4,1.8-.8,2.7-1.1a44.52,44.52,0,0,1-3.3-5.1c-.9-1.7-3.4-.2-2.6,1.5a11.83,11.83,0,0,1,1.4,4.5c.7-.6,1.5-1.1,2.2-1.7a8.46,8.46,0,0,1-3.8-5.3l-1.5,1.5c.9-.1,3.4,5.8,3.7,6.6.8-.6,1.6-1.2,2.3-1.8-1.2-1.3-3.1-3.2-3.4-5-.3.6-.7,1.2-1,1.8.4,1.4.9,2.9,1.3,4.3.9-.4,1.8-.8,2.7-1.1a7,7,0,0,1-1.8-4c-.7.6-1.5,1.1-2.2,1.7a14.27,14.27,0,0,1,4.6,6c.9-.5,1.7-1,2.6-1.5-.9-1.9-2.5-5.4-2-7.6a17.1,17.1,0,0,0-1.4,1.1c1.1-.1,2.4,5.4,2.7,6.5.9-.4,1.8-.8,2.7-1.1a27.55,27.55,0,0,1-3-8.3c-.8.5-1.7,1-2.5,1.4,2.1,1.6,4.9,4.8,4.1,7.8a17.1,17.1,0,0,0,1.4-1.1c-1,.1-3.3-4.7-3.3-5.2-.1-3.1,1.6,1,2,1.6.5,1.7.7,1.9.5.6-.3-1.6,0-1.1,1,1.6a21.62,21.62,0,0,1,1,4.4c.8-.5,1.7-1,2.5-1.4-.4-.4-4.6-4.6-2.6-5.3.9-.3,2.6,5.3,2.7,5.8.9-.4,1.8-.8,2.7-1.1a28.48,28.48,0,0,1-2.8-5.5c-1-2.2.8,2.7,1,3.5.9-.4,1.8-.8,2.7-1.1a23.44,23.44,0,0,1-3.3-6c-.7.6-1.5,1.1-2.2,1.7,1.8,1.1,2.3,5.7,2.7,7.6.9-.4,1.8-.8,2.7-1.1a9.25,9.25,0,0,1-1.9-5.3c-.9.3-1.8.5-2.8.8,1.2,2,2.2,4.1,3.2,6.2.4-.7.9-1.5,1.3-2.2a21.69,21.69,0,0,1-7.6-1.3c-.3,1-.5,1.9-.8,2.9,2.7.9,5.4,1.7,8.1,2.6.1-1,.3-1.9.4-2.9a54.21,54.21,0,0,1-8-.8c-1.9-.3-2.7,2.5-.8,2.9,1.1.2,2.1.4,3.2.7,1.9.4,2.7-2.5.8-2.9-1.1-.2-2.1-.4-3.2-.7-.3,1-.5,1.9-.8,2.9a64,64,0,0,0,8.8.9,1.48,1.48,0,0,0,.4-2.9c-2.7-.9-5.4-1.7-8.1-2.6-1.8-.6-2.6,2.2-.8,2.9a24,24,0,0,0,8.4,1.5,1.51,1.51,0,0,0,1.3-2.2,52,52,0,0,0-3.2-6.2,1.52,1.52,0,0,0-2.8.8,14.9,14.9,0,0,0,2.3,6.8,1.47,1.47,0,0,0,2.7-1.1c-.7-3.2-1.1-7.6-4.1-9.4-1-.6-2.7.4-2.2,1.7a33.22,33.22,0,0,0,3.6,6.7c.9,1.3,3.2.6,2.7-1.1-.8-2.6-1.7-6.6-4.6-7.5a1.42,1.42,0,0,0-1.4.4c-2.9,3,.4,8.7,2.4,11.4a1.48,1.48,0,0,0,2.7-1.1c-.6-2.7-3.3-10.2-7.5-8.4-4.5,1.9.1,9,2.3,10.8a1.51,1.51,0,0,0,2.5-1.4c-.3-2.3-4.8-15.7-8.4-8.6-2.1,4.1,4.9,10.8,6.9,6.3,1.3-2.8-3.8-13.8-7.8-10.3-3.4,3,.9,13.7,5.3,13.2a1.5,1.5,0,0,0,1.4-1.1c1.1-4-1.9-8.4-4.9-10.7a1.51,1.51,0,0,0-2.5,1.4,31.35,31.35,0,0,0,3.3,9,1.47,1.47,0,0,0,2.7-1.1c-.7-2.7-1.9-9-5.6-8.7a1.39,1.39,0,0,0-1.4,1.1c-.7,3.3.9,6.9,2.3,9.9.9,1.7,3.3.2,2.6-1.5a17.75,17.75,0,0,0-5.6-7.1c-1.1-.8-2.4.5-2.2,1.7a12.39,12.39,0,0,0,2.1,4.7c.9,1.3,3.3.6,2.7-1.1-.7-2.1-1.8-7.3-5-6.4a1.43,1.43,0,0,0-1,1.8c.4,2.3,2.7,4.7,4.2,6.4,1.2,1.3,3-.4,2.3-1.8-1-2.2-3-8.6-6.3-8.1a1.54,1.54,0,0,0-1.5,1.5c-.1,3.3,2.8,6.1,5.3,7.9,1.2.9,2.4-.6,2.2-1.7a16.7,16.7,0,0,0-1.7-5.2c-.9.5-1.7,1-2.6,1.5a40.22,40.22,0,0,0,3.3,5.1c.9,1.2,3.3.6,2.7-1.1a10.83,10.83,0,0,0-3.5-5.4,1.47,1.47,0,0,0-2.3,1.8,44.5,44.5,0,0,0,4.5,6.8c1,1.3,2.8-.1,2.5-1.4a12.23,12.23,0,0,0-5-7.7c-1.2-.9-2.7.8-2,2,1.6,2.7,6.6,7.8,10.1,6.2a1.36,1.36,0,0,0,.7-1.3c.1-2.8-1.9-5.5-3.8-7.4a1.48,1.48,0,0,0-2.5.7c-.5,2.5.6,3.9,2.5,5.6,1.1,1,4.1,3.4,5.9,2.8,4.3-1.5-1.2-7.2-3.2-8.3a1.52,1.52,0,0,0-2.2.9c-.9,3.8,6.7,7.9,9.9,6.9,2.9-.9,3.5-6.5,1.6-8.6a1.47,1.47,0,0,0-2.5,1.1A19.67,19.67,0,0,0,89.1,127c.9,1.4,3.2.5,2.7-1.1-.9-3.2-1.9-6.3-2.8-9.5a1.48,1.48,0,0,0-2.9.4,24.53,24.53,0,0,0,2.8,11.6c.3-.7.6-1.5.9-2.2a10.77,10.77,0,0,1-4,.1v3a3,3,0,0,0,2.4-.7,1.52,1.52,0,0,0-.8-2.8,14.72,14.72,0,0,0-4.7.3c-1.7.4-1.2,2.9.4,2.9a4.35,4.35,0,0,0,2.9-.7,1.48,1.48,0,0,0-.4-2.7,13,13,0,0,0-6.5.2,1.48,1.48,0,0,0,.4,2.9h3.4c1.9,0,1.9-2.8,0-3a32,32,0,0,1-13.2-4.2c-1.2-.7-3,.8-2,2s1.8,1.9,3.5,1.8a1.53,1.53,0,0,0,1.1-2.5c-2.8-2.6-3.8-6-6.1-8.9-1-1.2-2.9.1-2.5,1.4a16.44,16.44,0,0,0,5.2,8,1.48,1.48,0,0,0,2.5-1.1,9.06,9.06,0,0,0-2-5.2c-1.8-2.8-2.3-5.4-3.2-8.5-.9.4-1.8.8-2.7,1.1a22.32,22.32,0,0,0,4.2,5c1,.9,3.1,0,2.5-1.4-.4-1-.8-2.1-1.3-3.1-.7-1.7-3.6-1-2.9.8,2.1,5.3,8.9,1.2,5.4-2.9-1.1-1.3-3.4-2.1-4.8-.8-2.1,2,.2,5.4,1.7,7a1.47,1.47,0,0,0,2.5-1.1,13,13,0,0,0-3.2-9.1,1.51,1.51,0,0,0-2.5.7c-.9,2.7,2.7,10.3,6.1,7.4,2.4-2,.7-9.6-3.1-8.2a1.5,1.5,0,0,0-1.1,1.4c.1,2.1,1.8,4.9,4,5.3a1.57,1.57,0,0,0,1.8-1,14.47,14.47,0,0,0-.9-10.8,1.48,1.48,0,0,0-2.7.4,28.27,28.27,0,0,0-.3,7.7c.2,1.9,3.1,2,3,0-.1-2.4-.2-4.8-.3-7.1-.1-2-2.7-1.9-3,0a82.58,82.58,0,0,0-.7,10h3a38.83,38.83,0,0,0-1.4-10.7,1.48,1.48,0,0,0-2.9.4,8.53,8.53,0,0,0,1.8,6.7,1.47,1.47,0,0,0,2.7-1.1,40.91,40.91,0,0,0-1.7-6.9c-.5-1.3-2.6-1.6-2.9,0-.8,4-1.5,8-2.3,11.9,1,.1,1.9.3,2.9.4l-.6-14.7c-.1-1.6-2.6-2.1-2.9-.4a42,42,0,0,0-.2,13.7c.2,1.3,2.2,1.4,2.7.4a2.44,2.44,0,0,0,.2-2.2c-1,.3-1.9.5-2.9.8.5,1.8.7,4.5,2.3,5.8a9.51,9.51,0,0,0,5.9,1.5c4.3-.8,2.6-9.8,2.4-12.8-1,.1-1.9.3-2.9.4A41.18,41.18,0,0,0,76,113.4a1.52,1.52,0,0,0,2.8-.8c.1-3.3.1-10.7-4-11.7a1.53,1.53,0,0,0-1.9,1.4A25.37,25.37,0,0,0,76,115.2a1.48,1.48,0,0,0,2.7-.4c1.9-7.7,3.4-15.2-.2-22.6l-2,2a24.31,24.31,0,0,0,8.1,3.5A1.47,1.47,0,0,0,85.7,95a8.89,8.89,0,0,0-4.1-1.5c-1.3-.2-2.7,1.4-1.4,2.5s2.9,2.3,4.3,3.5a1.49,1.49,0,0,0,2.1-2.1,5.9,5.9,0,0,0-3.5-2.2A1.46,1.46,0,0,0,81.3,97a25.91,25.91,0,0,0,3,6c.9,1.3,3.3.5,2.7-1.1-1-2.8-3.2-9.8-7.3-8.3a1.44,1.44,0,0,0-1,1c-.6,3.5,3.6,7.5,5.7,9.8,1,1,3,0,2.5-1.4a21,21,0,0,0-6.1-9.1A1.46,1.46,0,0,0,78.3,95c-.2,3.4,1.7,6.2,3.6,8.9a1.48,1.48,0,0,0,2.7-1.1c-.4-2.1-2.8-9.9-6.5-7.2-3.1,2.3,1.4,7.9,3.1,9.5a1.48,1.48,0,0,0,2.5-1.1,8.54,8.54,0,0,0-4.6-7.2,1.52,1.52,0,0,0-2.2,1.7,19.09,19.09,0,0,0,5.4,8.5,1.5,1.5,0,0,0,2.5-1.4,21.46,21.46,0,0,0-1.8-4.8c-.8-1.6-3.1-.4-2.7,1.1.8,3.8,1.6,7.7,2.4,11.5.4,1.7,2.9,1.2,2.9-.4a35.8,35.8,0,0,0-.2-5.7c-1,.1-1.9.3-2.9.4a19.79,19.79,0,0,0,1.8,6.3,1.48,1.48,0,0,0,2.7-.4c.4-1.9.8-3.8,1.1-5.7H85.2a28.64,28.64,0,0,0,.7,2.8,1.48,1.48,0,0,0,2.9-.4c0-.3.1-.5.1-.8.2-1.6-2.7-2.1-2.9-.4a24.94,24.94,0,0,0-.2,6.1,1.5,1.5,0,0,0,3,0,14.56,14.56,0,0,0-.6-4.6,1.48,1.48,0,0,0-2.9.4c0,1.7,0,3.3.1,4.9a1.5,1.5,0,0,0,3,0,15.7,15.7,0,0,0-.5-4.8,1.48,1.48,0,0,0-2.9.4,21.27,21.27,0,0,0,.7,7.5c.5,1.9,3.2,1.1,2.9-.8a47.67,47.67,0,0,0-1.7-6.2,1.51,1.51,0,0,0-2.9.8c.5,3,1,5.9,1.5,8.9,1-.3,1.9-.5,2.9-.8a68.67,68.67,0,0,0-2.7-8.8c-.6-1.4-3-1.4-2.9.4a24,24,0,0,0,2.3,9.1c.7,1.5,3.2.4,2.7-1.1-.4-1.2-.8-2.4-1.1-3.5-.9.4-1.8.8-2.7,1.1a50.93,50.93,0,0,1,3.4,8.4c.8.7,3.7-.1,3.2-1.9Z" transform="translate(-62.7 -27.32)"/><path class="cls-1" d="M67,51.6a8,8,0,0,0-.4,2.7h3V51.6h-3a10.89,10.89,0,0,0,.5,2.6,1.52,1.52,0,0,0,2.2.9c.3-.2.7-.5,1-.7-.7-.3-1.5-.6-2.2-.9,0,1,.1,2,.1,3-.1,1.8,2.3,1.9,2.9.4.5-1.2.9-2.4,1.3-3.6-1-.1-1.9-.3-2.9-.4a21.66,21.66,0,0,1-.1,3.6c-.1,1.7,2.5,2,2.9.4a7.1,7.1,0,0,1,1.3-3.1c-.9-.3-1.8-.5-2.8-.8A31.18,31.18,0,0,1,69,60.3c-.6,1.6,2,2.7,2.7,1.1A12.12,12.12,0,0,0,73,55.8a1.48,1.48,0,0,0-2.9-.4c-.4,1.7-.8,3.3-1.1,5-.3,1.9,2.5,2.7,2.9.8a6.52,6.52,0,0,0,.2-2.4c-.1-1.3-2.1-2.2-2.8-.8s-1.3,3.1-1.9,4.7c1,.1,1.9.3,2.9.4,0-1.5-.1-3-.1-4.4,0-1.6-2.5-2.1-2.9-.4-.3,1.5-.5,2.9-.7,4.4h3c0-1-.1-2-.1-3.1a1.48,1.48,0,0,0-2.9-.4,25.49,25.49,0,0,0-1.3,3.9c1,.3,1.9.5,2.9.8a14.28,14.28,0,0,0,.4-4.1c0-1.6-2.7-2.1-2.9-.4-.1.9-.3,1.9-.4,2.8-.2,1.6,1.8,2.7,2.7,1.1.6-1.1,1.2-2.1,1.8-3.2-.9-.3-1.8-.5-2.8-.8v4.3a1.48,1.48,0,0,0,2.9.4c.7-1.6,1.3-3.3,2-4.9-1-.1-1.9-.3-2.9-.4a50.68,50.68,0,0,1,.3,5.5,1.48,1.48,0,0,0,2.9.4c.4-1.2.7-2.4,1.1-3.7-1-.1-1.9-.3-2.9-.4a26.2,26.2,0,0,0,.1,2.8,1.48,1.48,0,0,0,2.9.4,16.92,16.92,0,0,0,.7-3.8c.2-1.7-2.6-2-2.9-.4-.1.6-.2,1.2-.3,1.9-.3,1.9,2.4,2.7,2.9.8a15.68,15.68,0,0,0,.5-3.7h-3c0,1.7,0,3.5.1,5.2.1,1.9,3,1.9,3,0,0-.6.1-1.3.1-1.9-1-.1-1.9-.3-2.9-.4-.2,2-.5,3.9-.9,5.9,1,.1,1.9.3,2.9.4,0-1.1,0-2.2.1-3.3h-3c0,2.2.1,4.4.1,6.6,0,1.9,2.9,1.9,3,0a41.7,41.7,0,0,0,0-5h-3c.2,2.5.3,4.9.3,7.4h3c-.1-1.7-.2-3.3-.3-5h-3a41.19,41.19,0,0,1,.1,6.1c1-.1,1.9-.3,2.9-.4-.4-2.1-.9-4.3-1.3-6.4-.3-1.7-2.9-1.2-2.9.4a36.57,36.57,0,0,1-.5,5.7c1,.1,1.9.3,2.9.4-.3-2.7-.6-5.3-.9-8-1,.1-1.9.3-2.9.4a13.27,13.27,0,0,1,.3,5.6c1-.1,1.9-.3,2.9-.4A34.88,34.88,0,0,1,69.8,64c-.9.3-1.8.5-2.8.8,1.1,2.5.5,4.8,0,7.3,1,.1,1.9.3,2.9.4a56.13,56.13,0,0,1,.1-5.8c.1-1.6-2.6-2.1-2.9-.4-.3,1.9-.6,3.8-1,5.7,1,.1,1.9.3,2.9.4,0-2.1,0-4.2-.1-6.4,0-1.6-2.7-2.1-2.9-.4-.2,1.1-.3,2.3-.5,3.4,1,.1,1.9.3,2.9.4-.1-1.5-.1-2.9-.1-4.4h-3a13.73,13.73,0,0,1-.2,3.5c1,.1,1.9.3,2.9.4.1-.8.2-1.5.3-2.3-1-.1-1.9-.3-2.9-.4a32.83,32.83,0,0,1-1,7,1.51,1.51,0,0,0,2.9.8l.9-3.3c-1-.1-1.9-.3-2.9-.4a7.58,7.58,0,0,1,0,3h3a15,15,0,0,1,0-3h-3a44.82,44.82,0,0,1,.5,6.4,1.48,1.48,0,0,0,2.9.4,37.24,37.24,0,0,0,1.1-4.8H66.9a28.31,28.31,0,0,1,1.4,7.6c.1,1.9,3.1,1.9,3,0a34,34,0,0,0-.9-6.4c-.9.4-1.8.8-2.7,1.1,1.8,3.4,2.3,7.2,3.1,10.9.4,1.9,3.2,1.1,2.9-.8-.6-2.8-1.1-5.6-1.7-8.5-1,.3-1.9.5-2.9.8.7,2.5,1.3,5.1,2,7.6a1.5,1.5,0,0,0,2.9-.8,23.94,23.94,0,0,1-.8-5.9c-.9.3-1.8.5-2.8.8a11.33,11.33,0,0,1,1.1,4.1c1-.3,1.9-.5,2.9-.8a20.74,20.74,0,0,1-.6-5c-1,.1-1.9.3-2.9.4.2,1.1.4,2.2.7,3.3,1-.1,1.9-.3,2.9-.4a47.06,47.06,0,0,1-1.2-5.4c-1,.3-1.9.5-2.9.8a12.41,12.41,0,0,1,.9,3.8c1-.1,1.9-.3,2.9-.4-.2-1.4-.4-2.7-.6-4.1-1,.3-1.9.5-2.9.8a7.84,7.84,0,0,1,.5,1.4,1.48,1.48,0,0,0,2.9-.4l.3-2.1c-1,.1-1.9.3-2.9.4a89.16,89.16,0,0,1,1.8,10.1c.9-.3,1.8-.5,2.8-.8A9.06,9.06,0,0,1,74.5,80c-1,.3-1.9.5-2.9.8.6,3.5,1.1,7.1,1.5,10.7,1-.1,1.9-.3,2.9-.4-.7-2.6-1.4-5.2-2.2-7.8-1,.3-1.9.5-2.9.8,1.1,2.7,2.3,5.4,3.4,8.2.9-.4,1.8-.8,2.7-1.1a35.06,35.06,0,0,1-3.3-6c-.7-1.7-3.5-1-2.9.8,1.2,3.5,2.5,6.9,3.9,10.3.9-.4,1.8-.8,2.7-1.1a46.67,46.67,0,0,1-5.3-11.3c-.6-1.8-3.5-1.1-2.9.8a83.74,83.74,0,0,0,4.3,10.8c.9-.5,1.7-1,2.6-1.5-1.7-3.4-3.4-6.7-4.9-10.2a1.51,1.51,0,0,0-2.9.8,23.17,23.17,0,0,1,.6,6.4c.9-.3,1.8-.5,2.8-.8a35.08,35.08,0,0,1-2.4-8.4c-1,.3-1.9.5-2.9.8a28.85,28.85,0,0,0,.4,2.9c1-.1,1.9-.3,2.9-.4-.6-2.1-1.2-4.3-1.8-6.4-.4-1.5-3.2-1.3-2.9.4a17.7,17.7,0,0,1,0,4.6c1-.1,1.9-.3,2.9-.4a23.91,23.91,0,0,1-1.7-7c-1,.1-1.9.3-2.9.4a26.29,26.29,0,0,1,.6,3.9c.1,1.9,3,1.9,3,0,.1-1.1.2-2.2.2-3.4-1-.1-1.9-.3-2.9-.4,0,.5.1,1,.1,1.5,1-.1,1.9-.3,2.9-.4,0-.9-.1-1.9-.1-2.8H64.2l2.4,9.6c.4,1.7,2.8,1.2,2.9-.4a38.39,38.39,0,0,0-.3-7.6c-.9.3-1.8.5-2.8.8a76.79,76.79,0,0,1,3.2,7.9,1.51,1.51,0,0,0,2.9-.8c-.4-2-.7-4.1-1.1-6.1-.9.4-1.8.8-2.7,1.1a31.37,31.37,0,0,1,2.2,7.8c1-.3,1.9-.5,2.9-.8-.4-2.1-.8-4.3-1.2-6.4-.4-1.9-3.2-1.1-2.9.8a30.65,30.65,0,0,1,.1,11.3c1,.1,1.9.3,2.9.4-.3-3-.6-6.1-.9-9.1-.2-1.9-3-1.9-3,0a76.46,76.46,0,0,1-.6,11.7c1-.1,1.9-.3,2.9-.4-.5-3.6-1-7.3-1.5-10.9-.2-1.7-3-1.3-2.9.4a38.71,38.71,0,0,1-.5,9.6h2.9c-.6-3.1-1.2-6.2-1.9-9.3-.3-1.7-2.9-1.2-2.9.4-.1,2.1-.2,4.3-.3,6.4h3a29.72,29.72,0,0,1,0-7.3c-1,.1-1.9.3-2.9.4-.1,1.2-.1,2.5-.2,3.7,1,.1,1.9.3,2.9.4-.2-2.1-.4-4.3-.5-6.4-.8.4-1.7.7-2.5,1.1,1.3,1.5,1.3,5.6,1.5,7.3.3,2.3.4,4.6.5,6.9,1-.1,1.9-.3,2.9-.4a21.16,21.16,0,0,1-.1-7.1c-1-.1-1.9-.3-2.9-.4a77,77,0,0,1,.5,8.3c1-.1,1.9-.3,2.9-.4-.5-2-1.1-4-1.6-6-1,.3-1.9.5-2.9.8.1,1,.1,1.9.2,2.9a11,11,0,0,1,1.8-.2,9.7,9.7,0,0,1,0-3.4h-3a6.16,6.16,0,0,1-.1,2.7c1-.1,1.9-.3,2.9-.4a10.3,10.3,0,0,1-.1-3.5h-3c0,.6.1,1.1.1,1.7,1-.1,1.9-.3,2.9-.4a28.25,28.25,0,0,1-.2-2.9c-.9.3-1.8.5-2.8.8,1.5,3.2,3.1,6.3,4.6,9.5.6,1.3,2.8.7,2.8-.8-.1-2.3-.2-4.5-.3-6.8-.7.4-1.5.9-2.2,1.3,1.6.9,3.4,7.1,4,8.5.7,1.7,3.4,1.1,2.9-.8-.8-2.8-1.6-5.6-2.5-8.4-.9.4-1.8.8-2.7,1.1,1.5,3,3,6.1,4.4,9.2.7,1.5,3.3.4,2.7-1.1-1.2-3.2-2.3-6.5-3.5-9.7-.9.4-1.8.8-2.7,1.1a26.08,26.08,0,0,1,3.4,6.9c.9-.4,1.8-.8,2.7-1.1-1-2.3-2-4.6-3-7l-2,2c2.1,1.6,2.9,4.6,4.8,6.5,1.3,1.3,3-.3,2.3-1.8-1.2-2.6-2.4-5.2-3.5-7.8-.9.5-1.7,1-2.6,1.5,1.1,1.6,2.1,3.1,3.2,4.7a1.5,1.5,0,0,0,2.6-1.5c-1.2-2-2.3-4-3.5-6l-2,2c1.6.8,3.4,3.8,4.5,5.2s3.6.2,2.6-1.5c-1.5-2.3-3-4.7-4.5-7-.8.6-1.6,1.2-2.3,1.8,1.5,1.7,3,3.5,4.5,5.2l2.1-2.1a59,59,0,0,1-5-6.2l-2,2a20.2,20.2,0,0,1,5.2,3.6l2.1-2.1c-1.5-1.2-3-2.5-4.5-3.7-.5.8-1,1.7-1.4,2.5a16.7,16.7,0,0,1,4.3,2.5c1.4,1,3-1.2,1.8-2.3s-2.5-2.3-3.7-3.5c-.5.8-1,1.7-1.4,2.5.5.3,1,.6,1.6.9.6-.8,1.2-1.6,1.8-2.3l-2.1-1.5c-1.4-1-3,1.2-1.8,2.3,2,1.9,4,3.7,6.1,5.4l2.1-2.1c-.7-.6-1.5-1.2-2.2-1.7-.6.8-1.2,1.6-1.8,2.3,1.9.9,3.8,1.9,5.7,2.9a1.5,1.5,0,0,0,1.5-2.6c-1.3-.8-2.6-1.6-3.9-2.3-1.6-1-3.1,1.6-1.5,2.6,1.3.8,2.7,1.6,4,2.4.4-.9.8-1.8,1.1-2.7-.2-.1-.5-.2-.7-.3-1.6-.6-2.6,1.9-1.1,2.7a3.79,3.79,0,0,1,2.2,2.1c.4,1.6,3,1.3,2.9-.4,0-.6-.1-1.3-.1-1.9-.1-1.9-3-1.9-3,0,0,3-.7,7.1,0,10,.3,1.3,2.5,5.4.1-.6-.6-1.6-1.2-3.3-1.8-5-.5-1.5-3.1-1.4-2.9.4,0,.5.8,8.7.8,8.7,1.4-.1-1-6.7-1.2-7.6-1,.3-1.9.5-2.9.8.2.4,2.8,8.5,2.6,8.5.2,0-.9-2.1-.9-2.2a13.88,13.88,0,0,1-1.2-6.3c-.7.4-1.5.9-2.2,1.3a4.35,4.35,0,0,0,.7.4c1.6,1,3.1-1.5,1.5-2.6a4.35,4.35,0,0,0-.7-.4,1.47,1.47,0,0,0-2.2,1.3c-.1,3.3,1.5,12.5,6.2,12.4,5.1-.1-.1-11.4-.8-13.2a1.51,1.51,0,0,0-2.9.8c.5,2.2,1.5,10.9,5.3,9.9s1.2-9.5,1-11.8c-1,.1-1.9.3-2.9.4.9,2.8,1.9,8.9,5.1,10a1.24,1.24,0,0,0,1.4-.4c1.1-1.2.9-2.4.9-3.9V93.9h-3c0,.6.1,1.3.1,1.9,1-.1,1.9-.3,2.9-.4-.6-2-1.7-2.9-3.6-3.9-.4.9-.8,1.8-1.1,2.7.2.1.5.2.7.3,1.6.6,2.5-1.9,1.1-2.7s-2.7-1.6-4-2.4c-.5.9-1,1.7-1.5,2.6,1.3.8,2.6,1.6,3.9,2.3.5-.9,1-1.7,1.5-2.6-1.9-1-3.8-1.9-5.7-2.9-1.4-.7-3.2,1.2-1.8,2.3.7.6,1.5,1.2,2.2,1.7,1.5,1.2,3.6-.9,2.1-2.1a77,77,0,0,1-6-5.4c-.6.8-1.2,1.6-1.8,2.3l2.1,1.5c1.4,1,3-1.2,1.8-2.3a4.82,4.82,0,0,0-2.9-1.7,1.49,1.49,0,0,0-1.4,2.5c1.2,1.2,2.5,2.3,3.7,3.5.6-.8,1.2-1.6,1.8-2.3a20.6,20.6,0,0,0-5-2.8c-1.4-.6-2.6,1.6-1.4,2.5,1.5,1.2,3,2.5,4.5,3.7s3.5-.8,2.1-2.1a26,26,0,0,0-5.8-4c-1.2-.6-3,.7-2,2a71.08,71.08,0,0,0,5.5,6.8c1.3,1.4,3.3-.7,2.1-2.1-1.5-1.7-3-3.5-4.5-5.2-1.1-1.3-3.2.4-2.3,1.8,1.5,2.3,3,4.7,4.5,7,.9-.5,1.7-1,2.6-1.5-1.6-2.1-3.2-5-5.6-6.3a1.46,1.46,0,0,0-2,2c1.2,2,2.3,4,3.5,6,.9-.5,1.7-1,2.6-1.5-1.1-1.6-2.1-3.1-3.2-4.7a1.5,1.5,0,0,0-2.6,1.5c1.2,2.6,2.4,5.2,3.5,7.8.8-.6,1.6-1.2,2.3-1.8-2.2-2.2-2.9-5-5.4-6.9-1.3-1-2.5.9-2,2,1,2.3,2,4.6,3,7,.7,1.5,3.2.4,2.7-1.1a29.76,29.76,0,0,0-3.7-7.6c-.9-1.3-3.3-.5-2.7,1.1,1.2,3.2,2.3,6.5,3.5,9.7.9-.4,1.8-.8,2.7-1.1-1.4-3.1-2.9-6.2-4.4-9.2a1.47,1.47,0,0,0-2.7,1.1c.8,2.8,1.6,5.6,2.5,8.4,1-.3,1.9-.5,2.9-.8-1.3-3.1-2.4-8.6-5.4-10.3A1.47,1.47,0,0,0,68,91.5c.1,2.3.2,4.5.3,6.8.9-.3,1.8-.5,2.8-.8-1.5-3.2-3.1-6.3-4.6-9.5-.7-1.4-2.7-.6-2.8.8a15.42,15.42,0,0,0,.3,3.7c.3,1.6,3.1,1.3,2.9-.4,0-.6-.1-1.1-.1-1.7a1.5,1.5,0,0,0-3,0,20.67,20.67,0,0,0,.2,4.3c.3,1.8,2.7,1.1,2.9-.4a8.17,8.17,0,0,0,.1-2.7,1.5,1.5,0,0,0-3,0c-.2,1.8-.6,5,1.5,5.9a1.51,1.51,0,0,0,1.8-.2c1.5-1.7,1.3-3.8.6-5.8a1.51,1.51,0,0,0-2.9.8c.5,2,1.1,4,1.6,6a1.48,1.48,0,0,0,2.9-.4,77,77,0,0,0-.5-8.3c-.2-1.5-2.7-2.2-2.9-.4a28.21,28.21,0,0,0,.1,8.7c.3,1.7,3,1.3,2.9-.4-.1-4.5.3-12.7-2.9-16.3a1.47,1.47,0,0,0-2.5,1.1c.1,2.1.3,4.3.5,6.4.2,1.5,2.6,2.2,2.9.4a15.75,15.75,0,0,0,.2-5.3c-.2-1.8-2.8-1.1-2.9.4a44.48,44.48,0,0,0,0,7.3,1.5,1.5,0,0,0,3,0c.1-2.1.2-4.3.3-6.4-1,.1-1.9.3-2.9.4.6,3.1,1.2,6.2,1.9,9.3a1.53,1.53,0,0,0,2.9,0,45.12,45.12,0,0,0,.6-10.4c-1,.1-1.9.3-2.9.4.5,3.6,1,7.3,1.5,10.9.2,1.8,2.7,1.1,2.9-.4a76.46,76.46,0,0,0,.6-11.7h-3c.3,3,.6,6.1.9,9.1.1,1.5,2.6,2.2,2.9.4A37.24,37.24,0,0,0,73,80.2c-1,.3-1.9.5-2.9.8.4,2.1.8,4.3,1.2,6.4.4,1.9,3.1,1.1,2.9-.8a30.87,30.87,0,0,0-2.5-8.5c-.7-1.7-3-.4-2.7,1.1.4,2,.7,4.1,1.1,6.1,1-.3,1.9-.5,2.9-.8a64.53,64.53,0,0,0-3.5-8.6c-.6-1.3-3-.7-2.8.8a48.32,48.32,0,0,1,.3,7.6c1-.1,1.9-.3,2.9-.4l-2.4-9.6a1.51,1.51,0,0,0-2.9,0,9.36,9.36,0,0,0,.1,4.4c.4,1.6,3,1.3,2.9-.4,0-.5-.1-1-.1-1.5-.1-1.6-2.7-2.1-2.9-.4a9.52,9.52,0,0,0-.6,4.1h3a24.22,24.22,0,0,0-.7-4.7c-.3-1.6-3.1-1.3-2.9.4A30.45,30.45,0,0,0,65.2,84a1.48,1.48,0,0,0,2.9-.4,17.7,17.7,0,0,0,0-4.6c-1,.1-1.9.3-2.9.4.6,2.1,1.2,4.3,1.8,6.4.4,1.6,3.1,1.3,2.9-.4a23.48,23.48,0,0,0-.5-3.7c-.3-1.9-3.2-1.1-2.9.8a36.61,36.61,0,0,0,2.7,9.1c.6,1.4,2.7.6,2.8-.8a28.86,28.86,0,0,0-.7-7.2c-1,.3-1.9.5-2.9.8a110.45,110.45,0,0,0,5.2,11c.9,1.7,3.4.2,2.6-1.5a73.15,73.15,0,0,1-4-10.1c-1,.3-1.9.5-2.9.8a52.51,52.51,0,0,0,5.6,12c.9,1.3,3.4.5,2.7-1.1-1.4-3.4-2.6-6.8-3.9-10.3-1,.3-1.9.5-2.9.8a33.22,33.22,0,0,0,3.6,6.7c.9,1.3,3.4.5,2.7-1.1-1.1-2.7-2.3-5.4-3.4-8.2-.7-1.7-3.5-1.1-2.9.8.8,2.6,1.5,5.2,2.2,7.8.4,1.6,3.1,1.3,2.9-.4-.4-3.9-.9-7.7-1.6-11.5-.3-1.9-3.2-1.1-2.9.8A10.85,10.85,0,0,0,73.3,86c.8,1,3,.9,2.8-.8-.5-3.7-1.1-7.3-1.9-10.9-.4-1.8-2.7-1.1-2.9.4L71,76.8c1-.1,1.9-.3,2.9-.4a7.84,7.84,0,0,1-.5-1.4,1.51,1.51,0,0,0-2.9.8c.2,1.4.4,2.7.6,4.1.2,1.6,3.1,1.3,2.9-.4a19,19,0,0,0-1-4.6,1.51,1.51,0,0,0-2.9.8,52.28,52.28,0,0,0,1.2,5.4c.4,1.6,3.1,1.3,2.9-.4a19.81,19.81,0,0,0-.8-4.1c-.4-1.6-3-1.3-2.9.4a38.25,38.25,0,0,0,.7,5.8c.4,1.9,3.1,1.1,2.9-.8a19,19,0,0,0-1.4-4.8c-.6-1.4-2.8-.6-2.8.8a25.17,25.17,0,0,0,.9,6.7c1-.3,1.9-.5,2.9-.8-.7-2.5-1.3-5.1-2-7.6-.5-1.9-3.2-1.1-2.9.8.6,2.8,1.1,5.6,1.7,8.5,1-.3,1.9-.5,2.9-.8-.8-4-1.5-8-3.4-11.7a1.48,1.48,0,0,0-2.7,1.1,27,27,0,0,1,.8,5.6h3a30.29,30.29,0,0,0-1.5-8.4c-.4-1.2-2.6-1.6-2.9,0a25.74,25.74,0,0,1-1.1,4.8c1,.1,1.9.3,2.9.4-.1-2.2-.2-4.3-.5-6.4a1.5,1.5,0,0,0-3,0,10.06,10.06,0,0,0,0,3c.1,2,2.7,1.9,3,0a5.11,5.11,0,0,0,0-3,1.48,1.48,0,0,0-2.9-.4l-.9,3.3c1,.3,1.9.5,2.9.8a34.13,34.13,0,0,0,1.1-7.8c.1-1.7-2.5-2-2.9-.4a8.28,8.28,0,0,0-.4,3.1c0,1.6,2.6,2.1,2.9.4a15.6,15.6,0,0,0,.3-4.3,1.5,1.5,0,0,0-3,0,32.33,32.33,0,0,0,.1,4.4c.1,1.5,2.7,2.2,2.9.4.2-1.1.3-2.3.5-3.4-1-.1-1.9-.3-2.9-.4,0,2.1,0,4.2.1,6.4,0,1.6,2.6,2.1,2.9.4.3-1.9.6-3.8,1-5.7-1-.1-1.9-.3-2.9-.4-.1,2-.1,3.8-.1,5.8.1,1.6,2.5,2.1,2.9.4.8-3.4,1.1-6.3-.3-9.6-.6-1.3-2.9-.7-2.8.8a42.25,42.25,0,0,0,1.7,8.6,1.48,1.48,0,0,0,2.9-.4,17.32,17.32,0,0,0-.4-6.4c-.4-1.6-3.1-1.3-2.9.4.3,2.7.6,5.3.9,8,.2,1.5,2.6,2.2,2.9.4a35.73,35.73,0,0,0,.6-6.5c-1,.1-1.9.3-2.9.4.4,2.1.9,4.3,1.3,6.4.3,1.7,2.8,1.2,2.9-.4a41.42,41.42,0,0,0-.1-6.1c-.2-1.9-3.1-1.9-3,0,.1,1.7.2,3.3.3,5,.1,1.9,3,1.9,3,0,0-2.5-.1-4.9-.3-7.4-.2-1.9-3.1-1.9-3,0a41.7,41.7,0,0,1,0,5h3c0-2.2-.1-4.4-.1-6.6,0-1.9-2.9-1.9-3,0,0,1.1,0,2.2-.1,3.3,0,1.6,2.6,2.1,2.9.4.4-2.2.7-4.4,1-6.6.2-1.6-2.7-2.1-2.9-.4a11.85,11.85,0,0,0-.2,2.7h3c-.1-1.7-.1-3.5-.1-5.2,0-1.9-2.9-1.9-3,0-.1,1-.3,2-.4,3,1,.3,1.9.5,2.9.8.1-.6.2-1.2.3-1.9-1-.1-1.9-.3-2.9-.4-.2,1-.4,2-.6,3.1,1,.1,1.9.3,2.9.4a26.2,26.2,0,0,0-.1-2.8,1.48,1.48,0,0,0-2.9-.4c-.4,1.2-.7,2.4-1.1,3.7,1,.1,1.9.3,2.9.4a49.33,49.33,0,0,0-.3-5.5,1.48,1.48,0,0,0-2.9-.4c-.7,1.6-1.3,3.3-2,4.9,1,.1,1.9.3,2.9.4V59.6a1.53,1.53,0,0,0-2.8-.8c-.6,1.1-1.2,2.1-1.8,3.2.9.4,1.8.8,2.7,1.1.1-.9.3-1.9.4-2.8-1-.1-1.9-.3-2.9-.4l-.3,3.3c-.4,1.9,2.4,2.7,2.9.8.4-1.4.8-2.6,1.3-3.9-1-.1-1.9-.3-2.9-.4,0,1,.1,2,.1,3.1a1.5,1.5,0,0,0,3,0,23.76,23.76,0,0,1,.6-3.7c-1-.1-1.9-.3-2.9-.4,0,1.5.1,3,.1,4.4a1.48,1.48,0,0,0,2.9.4c.5-1.3,1-2.7,1.6-4-.6-.2-1.6-.4-2.5-.7,0,.6-.1,1.1-.1,1.7,1,.3,1.9.5,2.9.8.3-1.7.7-3.3,1.1-5-1-.1-1.9-.3-2.9-.4-.3,1.4-.6,2.8-.9,4.1.9.4,1.8.8,2.7,1.1a31.12,31.12,0,0,0,1.9-8c.2-1.5-2.1-1.9-2.8-.8a13.36,13.36,0,0,0-1.6,3.9c1,.1,1.9.3,2.9.4a21.66,21.66,0,0,0,.1-3.6,1.48,1.48,0,0,0-2.9-.4c-.4,1.2-.8,2.4-1.3,3.6,1,.1,1.9.3,2.9.4a15.89,15.89,0,0,0-.2-3.8,1.52,1.52,0,0,0-2.2-.9c-.3.2-.7.5-1,.7.7.3,1.5.6,2.2.9-.1-.6-.3-1.2-.4-1.8-.2-1.9-3-2-3,0v2.7c0,1.9,2.9,1.9,3,0,.1-.6.2-1.2.3-1.9a1.47,1.47,0,0,0-2.8-.9Z" transform="translate(-62.7 -27.32)"/><path class="cls-1" d="M105.6,43.4c-.2-.1-.3-.2-.5-.3a1.46,1.46,0,0,0-2,.5,1.43,1.43,0,0,0,.5,2c.2.1.3.2.5.3a1.46,1.46,0,0,0,2-.5,1.48,1.48,0,0,0-.5-2Z" transform="translate(-62.7 -27.32)"/><path class="cls-1" d="M82.6,35a15.06,15.06,0,0,0-3.7-.6,23.07,23.07,0,0,1,1.4,1.9c.2-.1.3-.2.5-.3-.3-.7-.6-1.5-.9-2.2-.4.2-.8.5-1.2.7.4.8.7,1.7,1.1,2.5.6-.2,1.2-.5,1.8-.7-.3-.9-.5-1.8-.8-2.8-.4.1-.9.3-1.3.4a19.45,19.45,0,0,1,.5,2c.1-.1.1-.2.2-.3-.6.2-1.1.5-1.7.7a.35.35,0,0,1,.2.1,25.12,25.12,0,0,0-.4-2.7c-.1,0-.1.1-.2.1v2.9c1.4.3,2.8.5,4.2.8,1-.1,1.9-.3,2.9-.4.5.5,1.1.9,1.6,1.4.7.4,1.5.9,2.2,1.3,1-.6,2.1-1.1,3.1-1.7.6.2,1.1.5,1.7.7a1.4,1.4,0,0,1,.1,2.4h2.9c3.1-5,6.2-6.3,9.2-4a1.94,1.94,0,0,0,1.9.7c0-.3-2.3,1.4-2.6,1.6-2.1,1.2-4.4,1.6-6.2,3.2a1.52,1.52,0,0,0,.7,2.5,5.93,5.93,0,0,0,2.3.5c-.1-1-.3-1.9-.4-2.9-.4.2-.9.3-1.3.5.4.9.8,1.8,1.1,2.7.8-.6,7.4-1.2,7.8-.6l2-2a5.44,5.44,0,0,1-1.8-1.1c.2.6.5,1.1.7,1.7.8-2,2.7.8,3.2,1.3a23.35,23.35,0,0,1,.7-2.5c-.2,0-.4.1-.6.1.3,1,.5,1.9.8,2.9a4.45,4.45,0,0,1,4.2-.1c1.6.5,2.7-2,1.1-2.7-2.8-1.3-5.2-2.1-8.4-1.5a1.47,1.47,0,0,0-1,1.8c.6,1.5,1.8,2.6,3.4,1.6,2.5-1.5.3-4.2.1-6.1-.7.4-1.5.9-2.2,1.3a21.72,21.72,0,0,1,2.9,2.4,1.49,1.49,0,0,0,2.1-2.1c-1.2-1.4-2.3-2.8-3.4-4.2-.8.6-1.6,1.2-2.3,1.8a47.82,47.82,0,0,1,4.6,4.4c1.1,1.2,3.4-.4,2.3-1.8s-2.3-3-3.5-4.5c-.8.6-1.6,1.2-2.3,1.8,1.7,1.7,3.3,3.4,4.8,5.2,1.1,1.3,3.1-.4,2.3-1.8s-1.6-2.9-2.5-4.3c-.8.6-1.6,1.2-2.3,1.8,1.6,1.6,3.1,3.2,4.7,4.8,1.3,1.3,3-.3,2.3-1.8s-1.4-3-2.2-4.5c-.9.5-1.7,1-2.6,1.5,1.1,1.5,2.3,3,3.4,4.5s3.6.2,2.6-1.5c-.8-1.3-1.6-2.7-2.3-4-.8.6-1.6,1.2-2.3,1.8,1.2,1.4,2.3,2.8,3.5,4.3,1.1,1.3,3.1-.4,2.3-1.8-.9-1.7-1.8-3.3-2.7-5-.8.6-1.6,1.2-2.3,1.8,1.2,1.3,2.4,2.7,3.7,4,1.1,1.2,3.3-.4,2.3-1.8l-3.3-4.8c-.8.6-1.6,1.2-2.3,1.8,1.2,1.1,2.3,2.2,3.4,3.4,1.3,1.5,3.3-.6,2.1-2.1l-2.2-2.8-2.1,2.1c.6.6,1.1,1.2,1.7,1.9,1.1,1.2,3.3-.4,2.3-1.8-.3-.4-.6-.9-.9-1.3-.9-1.3-3.4-.5-2.7,1.1.4.9.6,1.3,1,2.1,1,1.6,3.6.1,2.6-1.5-.2-.5-.5-.9-.7-1.4-.9.4-1.8.8-2.7,1.1.3.4.6.9.9,1.3.8-.6,1.6-1.2,2.3-1.8-.6-.6-1.1-1.2-1.7-1.9-1.3-1.4-3.3.6-2.1,2.1l2.2,2.8,2.1-2.1c-1.1-1.2-2.2-2.3-3.4-3.4s-3.4.3-2.3,1.8l3.3,4.8c.8-.6,1.6-1.2,2.3-1.8-1.2-1.3-2.4-2.7-3.7-4s-3.1.4-2.3,1.8c.9,1.7,1.8,3.3,2.7,5,.8-.6,1.6-1.2,2.3-1.8-1.2-1.4-2.3-2.8-3.5-4.3-1.1-1.3-3.2.4-2.3,1.8s1.6,2.7,2.3,4c.9-.5,1.7-1,2.6-1.5-1.1-1.5-2.3-3-3.4-4.5a1.5,1.5,0,0,0-2.6,1.5c.8,1.5,1.5,2.9,2.2,4.5.8-.6,1.6-1.2,2.3-1.8-1.6-1.6-3.1-3.2-4.7-4.8a1.47,1.47,0,0,0-2.3,1.8c.8,1.4,1.6,2.9,2.5,4.3.8-.6,1.6-1.2,2.3-1.8a47.7,47.7,0,0,0-4.8-5.2c-1.2-1.1-3.4.4-2.3,1.8s2.3,3,3.5,4.5c.8-.6,1.6-1.2,2.3-1.8-1.5-1.5-3-3-4.6-4.4-1.2-1-3.4.3-2.3,1.8a44.52,44.52,0,0,0,3.8,4.8l2.1-2.1c-1.1-1-2.3-2-3.5-2.9a1.45,1.45,0,0,0-2.2,1.3,8.58,8.58,0,0,0,.3,1.7c.3.7,1.9,1.8,2,2-.3.6-.7,1.2-1,1.8a8.22,8.22,0,0,1,6.1,1.2c.4-.9.8-1.8,1.1-2.7a7.76,7.76,0,0,0-5.8.1,1.51,1.51,0,0,0,.8,2.9c.2,0,.4-.1.6-.1a1.54,1.54,0,0,0,.7-2.5,19.48,19.48,0,0,0-4-3.6,1.36,1.36,0,0,0-1.5,0c-1.5.9-2,2-2.7,3.6-.3.6.2,1.3.7,1.7a4.18,4.18,0,0,0,1.8,1.1c1.2.6,2.9-.7,2-2a4.06,4.06,0,0,0-4-2c-2.2,0-5.9.2-7.8,1.5-1.3.9-.5,3.4,1.1,2.7.4-.2.9-.3,1.3-.5a1.48,1.48,0,0,0-.4-2.9,8.33,8.33,0,0,1-1.5-.4,23.35,23.35,0,0,0,.7,2.5c2.9-2.5,10.4-2.8,11.2-7.6.5-3.3-3.5-4.5-5.6-2.4-1.9,2-1.5,6.4,2.1,5.4,3-.8,3.4-5.7.4-6.5-3.8-1.1-6.8,4.7-4.1,7.4,2.5,2.6,4.8-.6,4.9-3.2.3-11.6-15.3,1.2-7.7,3.6,3.6,1.1,5.2-5,2.4-6.7-3.8-2.4-7.3,3-5.8,6.3a1.21,1.21,0,0,0,1.3.7c3.4-.1,6.1-6.6,2.3-8.1-4-1.6-6.3,5.5-3.9,8.1a1.28,1.28,0,0,0,1.4.4c3.3-1.2,3.5-7.3-.5-7.6-3.2-.3-7.7,5.4-4.1,7.6s6-3.9,3.5-6.2c-3.5-3.1-5.6,3.5-5,6.1.3,1.6,2.4,1.3,2.9,0,.9-2.5,1.3-4.7.2-7.1a1.36,1.36,0,0,0-1.3-.7c-2.9-.2-6.3,3.2-4.5,6.1a1.62,1.62,0,0,0,1.7.7c2.3-.4,4.2-4.5,2.7-6.4-1.9-2.5-5.8-.3-6.6,2.1-.9,2.7,1.4,6.2,4.5,4.8a3.64,3.64,0,0,0,.5-6.4c-6.5-4.3-7.4,9.1-2.2,6.4,2.2-1.1,2.5-5.3.4-6.7-3.5-2.3-6.3,2.2-6.2,5.1a1.53,1.53,0,0,0,2.2,1.3c6-3.4-4.2-9.1-4.2-2.2s9,1.2,3.9-2.4c-5.8-4.2-4.8,8.4-.2,3.9,5.1-5.1-7.9-9.9-5.4-2.4a1.48,1.48,0,0,0,2.9-.4c.2-4.2-5.1-4.2-8-3.6-1.5.3-1.3,2.5,0,2.9a2.32,2.32,0,0,0,2.5-.4,1.48,1.48,0,0,0-.4-2.7.35.35,0,0,1-.2-.1,1.69,1.69,0,0,0-1.7.7c-.1.1-.1.2-.2.3a1.46,1.46,0,0,0,.5,2c1.4,1.1,3,.5,4.4-.4a1.52,1.52,0,0,0-.8-2.8,4,4,0,0,0-3.9,1.6,1.49,1.49,0,0,0,1.1,2.5,3.85,3.85,0,0,0,3.8-2.2,1.49,1.49,0,0,0-.9-2.2c-2.2-.3-3.3.4-4.1,2.4-.4,1,.6,1.8,1.4,1.9,1,.2,1.9.3,2.9.5,1.8.1,2.6-2.7.8-3.2Z" transform="translate(-62.7 -27.32)"/><path class="cls-1" d="M86.2,44.5c.1.1.2.1.3.2a1.52,1.52,0,0,0,2.2-.9,10.91,10.91,0,0,1,.6-1.1c.1.4.1.8.2,1.1a1.7,1.7,0,0,1-.7-.1c.1-.4.3-.7.4-1.1l-.3.3c.4-.1.7-.3,1.1-.4h-.4c.4.1.7.3,1.1.4-.1-.1-.2-.1-.3-.2.1.4.3.7.4,1.1.1-.5.1-1,.2-1.6.4.1.7.3,1.1.4l.1.1c-.1.4-.1.8-.2,1.1-.1-.1-.3-.1-.4-.2.1-.4.3-.7.4-1.1-.1.1-.2.2-.2.3.4-.1.7-.3,1.1-.4a8.75,8.75,0,0,1,.2,1.6,19.45,19.45,0,0,0,.5-2,.35.35,0,0,0-.2.1c.4-.1.8-.1,1.1-.2-.1,0-.2-.1-.3-.1.3.2.6.5.9.7-.1-.1-.1-.2-.2-.2.1.4.1.8.2,1.1,0-.1.1-.3.1-.4-.2.3-.5.6-.7.9-.1-.1-.3-.1-.4-.2.1-.4.3-.7.4-1.1l-.3.3c.4-.1.7-.3,1.1-.4h-.4c.4.1.7.3,1.1.4-.1-.1-.2-.2-.2-.3.1.4.3.7.4,1.1v-.4c-.1.4-.3.7-.4,1.1l.3-.3c-.4.1-.7.3-1.1.4V43c.6.2,1.1.5,1.7.7-.1-.1-.1-.2-.2-.3.1.4.1.8.2,1.1a1.76,1.76,0,0,1,.4-.5c1.4-1.3-.7-3.4-2.1-2.1-.9.8-1.6,2-.8,3.2a1.62,1.62,0,0,0,1.7.7c2.5-.4,1.9-4.4-.6-4.4-3.1.1-2,5,.7,3.8s.3-5-2.1-4.4c-2.9.7-1.3,5,1.3,3.5a1.38,1.38,0,0,0,.5-2c-.9-2-4-2.4-5-.3s1.8,4.4,3.4,2.4c1.8-2.2-1.2-4.1-3.3-3.5-2.4.7-2,4.4.6,4s2.2-3.7,0-4.3c-2-.5-5,2.2-3.1,4.1,1.8,1.7,4.3-.9,2.9-2.8-1.3-1.7-5.1-1-4.7,1.5.4,2.7,4.6,1.8,4.4-.8-.2-3.2-4.7-2.7-5.2.2.7-.3,1.5-.6,2.2-.9-.1-.1-.2-.1-.3-.2-1.6-.7-3.1,1.9-1.4,2.8Z" transform="translate(-62.7 -27.32)"/><path class="cls-1" d="M134.1,74.6l-.3-6c-.1-1.9-3.1-1.9-3,0l.3,6c.1,1.9,3.1,1.9,3,0Z" transform="translate(-62.7 -27.32)"/><path class="cls-1" d="M112.6,103.4c.1-2-.4-5.7.4-7.5s2.2-1.9,3.6-2.6a26,26,0,0,0,8-5.9c-.8-.5-1.7-1-2.5-1.4a9.54,9.54,0,0,1-5.1,7.3c.7.4,1.5.9,2.2,1.3a1.42,1.42,0,0,0,.2-.6c-.8-.4-1.7-.7-2.5-1.1.2.8.4,1.7.6,2.5-.9-.4-1.8-.8-2.7-1.1.1.4.3.9.4,1.3a17.1,17.1,0,0,1-1.4-1.1c-.1.2-.1.5-.2.7h2.6c-.1-.2-.2-.3-.3-.5a17.1,17.1,0,0,0-1.4,1.1.37.37,0,0,0-.1-.3,11,11,0,0,1,.2,1.8l.3-.6c-.9-.3-1.8-.5-2.8-.8a2.77,2.77,0,0,1-.1.9c.9-.3,1.8-.5,2.8-.8a2,2,0,0,0-.1-.7h-2.9a50.63,50.63,0,0,0,3.9,13.1c1.1,2.3,1.3,4.6,2.1,6.9.6,1.9,2.2,3.5,2.5,5.4.9-.4,1.8-.8,2.7-1.1-1.6-2.3,0-8,.3-10.6.4-3.6.8-7.2,1.5-10.8,1.1-5.2,3.7-9.9,4.3-15.3.2-1.8-2.4-1.9-2.9-.4-.7,1.8-1.3,3.5-2,5.3,1,.3,1.9.5,2.9.8.3-1.4.6-2.6,1-3.9.5-1.6-2-2.7-2.7-1.1-.5,1-1,2-1.5,3.1.9.4,1.8.8,2.7,1.1.5-1.4.9-2.9,1.4-4.3-1-.3-1.9-.5-2.9-.8-.3.7-.6,1.5-.9,2.2.9.4,1.8.8,2.7,1.1l.6-1.8a1.47,1.47,0,0,0-2.7-1.1,8.11,8.11,0,0,0-1,2.1c-.6,1.5,2,2.7,2.7,1.1A55.1,55.1,0,0,0,130.1,75c.4-1.9-2.4-2.7-2.9-.8q-1,3.75-1.8,7.5c-.4,1.9,2.4,2.7,2.9.8.3-1.4.7-2.8,1-4.2a1.51,1.51,0,0,0-2.9-.8c-.7,1.8-1.3,3.7-2,5.5,1,.3,1.9.5,2.9.8.4-1.5.9-3,1.3-4.4a1.47,1.47,0,0,0-2.7-1.1,5.09,5.09,0,0,0-.9,2.6,1.51,1.51,0,0,0,2.9.8,39.43,39.43,0,0,0,1.4-4.9,1.51,1.51,0,0,0-2.9-.8c-.4,1.1-.8,2.1-1.3,3.2,1,.3,1.9.5,2.9.8a36.81,36.81,0,0,0,1.7-8c.2-1.7-2.5-2-2.9-.4a39.74,39.74,0,0,1-1.5,4.9c1,.3,1.9.5,2.9.8a46.75,46.75,0,0,0,2-13.9c0-2.5.3-6.2-2.1-7.7a1.36,1.36,0,0,0-1.5,0c-2.7,2-1,5.8-.9,8.7.1,5.5-1.5,10.7-.5,16.3a1.51,1.51,0,0,0,2.7.4c.6-1.4,1.2-2.9,1.9-4.3-.9-.3-1.8-.5-2.8-.8q0,6-.6,12c-.1,1.2,1.3,1.7,2.2,1.3,2.7-1.2,2.2-7.7,2.6-10.2-1-.1-1.9-.3-2.9-.4a49.43,49.43,0,0,0,1.6,10.1c.4,1.3,2.6,1.5,2.9,0q.6-3.3.9-6.6c.2-1.9-2.8-1.9-3,0-.4,4-2.3,9.8-.5,13.5.7,1.4,2.7.6,2.8-.8.2-3.8.4-7.6.4-11.3h-3c.2,4.6.3,9.1.1,13.7,1-.1,1.9-.3,2.9-.4a48.33,48.33,0,0,1-1.2-9.3c-1,.1-1.9.3-2.9.4a35.49,35.49,0,0,1,.9,9.2c-.1,1.9,2.8,1.9,3,0,.2-2.3.4-4.7.5-7h-3a69.76,69.76,0,0,1,.3,9.1c1-.1,1.9-.3,2.9-.4-1-4.4.2-8.8-2.3-12.9-.6-1-2.5-1-2.7.4-.4,2.7-.8,5.4-1.1,8h2.9a20.62,20.62,0,0,1-.7-7h-3c0,.8-.1,1.6-.1,2.5,1,.1,1.9.3,2.9.4a18,18,0,0,1,1.1-5.7H128c.4,3,1.1,5.5,3.1,7.8.9,1.1,2.5.1,2.5-1.1a59,59,0,0,0-2.2-20.5c-.4-1.6-3.1-1.3-2.9.4.2,1.9.3,3.8.5,5.7.1,1.6,2.5,2.1,2.9.4.2-.7.4-1.5.6-2.2h-2.9c.2,1,.5,2,.7,3.1.4,1.6,3.1,1.3,2.9-.4-.8-9.6-2-19.1-3.6-28.6-.3-1.6-3.1-1.3-2.9.4.2,2.4.4,4.9.6,7.3.1,1.9,3.1,1.9,3,0-.2-2.4-.4-4.9-.6-7.3-1,.1-1.9.3-2.9.4,1.5,9.2,2.7,18.5,3.5,27.8,1-.1,1.9-.3,2.9-.4-.2-1-.5-2-.7-3.1a1.53,1.53,0,0,0-2.9,0c-.2.7-.4,1.5-.6,2.2,1,.1,1.9.3,2.9.4-.2-1.9-.3-3.8-.5-5.7-1,.1-1.9.3-2.9.4a57.11,57.11,0,0,1,2.1,19.7c.8-.4,1.7-.7,2.5-1.1-1.7-2-2-4.1-2.3-6.5-.2-1.6-2.4-1.2-2.9,0a18.24,18.24,0,0,0-1.2,6.5c-.1,1.7,2.6,2.1,2.9.4a5.83,5.83,0,0,0,.2-3.2,1.5,1.5,0,0,0-3,0,22.8,22.8,0,0,0,.8,7.8c.4,1.3,2.7,1.5,2.9,0,.4-2.7.8-5.4,1.1-8a25.12,25.12,0,0,0-2.7.4c2.2,3.6,1.1,8.2,2,12.2.4,1.7,2.9,1.2,2.9-.4a68.63,68.63,0,0,0-.3-9.1,1.5,1.5,0,0,0-3,0c-.2,2.3-.4,4.7-.5,7h3a37.35,37.35,0,0,0-1-10,1.48,1.48,0,0,0-2.9.4,37.61,37.61,0,0,0,1.3,10c.4,1.7,2.8,1.2,2.9-.4a125.23,125.23,0,0,0-.1-13.7,1.5,1.5,0,0,0-3,0c-.1,3.8-.2,7.6-.4,11.3.9-.3,1.8-.5,2.8-.8-1.2-2.6.6-9.2.9-12h-3a57.71,57.71,0,0,1-.8,5.8h2.9a36.86,36.86,0,0,1-1.5-9.3c-.1-1.6-2.7-2.1-2.9-.4-.2,1.1-.5,8.1-1.2,8.4.7.4,1.5.9,2.2,1.3q.6-6,.6-12c0-1.4-2.2-2.2-2.8-.8s-1.2,2.9-1.9,4.3a25.12,25.12,0,0,1,2.7.4c-.7-3.5-.2-6.7.2-10.1.3-2.4,1.1-5.9.1-8.2.1-.6-.1-1-.7-1.1-.9-.8-1.1-.4-.5,1.3-.2,1.4.1,2.9,0,4.3A46.28,46.28,0,0,1,125,76.5c-.6,1.9,2.2,2.6,2.9.8a39.73,39.73,0,0,0,1.5-4.9c-1-.1-1.9-.3-2.9-.4a44.07,44.07,0,0,1-1.6,7.2c-.6,1.9,2.2,2.5,2.9.8.4-1.1.8-2.1,1.3-3.2-1-.3-1.9-.5-2.9-.8a45,45,0,0,1-1.4,4.9c1,.3,1.9.5,2.9.8.2-.6.4-1.3.6-1.9-.9-.4-1.8-.8-2.7-1.1-.4,1.5-.9,3-1.3,4.4a1.5,1.5,0,0,0,2.9.8c.7-1.8,1.3-3.7,2-5.5-1-.3-1.9-.5-2.9-.8-.3,1.4-.7,2.8-1,4.2,1,.3,1.9.5,2.9.8q.75-3.75,1.8-7.5c-1-.3-1.9-.5-2.9-.8a50.06,50.06,0,0,1-3.3,10.6c.9.4,1.8.8,2.7,1.1.2-.4.5-.9.7-1.3-.9-.4-1.8-.8-2.7-1.1l-.6,1.8a1.47,1.47,0,0,0,2.7,1.1,10.47,10.47,0,0,0,1.2-2.9c.5-1.8-2.3-2.6-2.9-.8-.5,1.4-.9,2.9-1.4,4.3-.5,1.6,2,2.7,2.7,1.1.5-1,1-2,1.5-3.1-.9-.4-1.8-.8-2.7-1.1a27.92,27.92,0,0,0-1,3.9,1.51,1.51,0,0,0,2.9.8c.7-1.8,1.3-3.5,2-5.3-1-.1-1.9-.3-2.9-.4-.4,4-2.2,7.3-3.3,11a57.32,57.32,0,0,0-1.7,9.2c-.5,3.9-1,7.8-1.4,11.7-.2,2.3-.6,4.2.8,6.2a1.48,1.48,0,0,0,2.7-1.1c-.3-1.7-1.4-2.8-2.1-4.3-1-2.1-1.1-4.5-1.9-6.6s-2.3-4.1-3-6.3c-.8-2.6-1.1-5.4-1.7-8.1-.3-1.6-2.4-1.2-2.9,0-.5,1.4-.5,1.7.4,2.9a1.52,1.52,0,0,0,2.8-.8,2.77,2.77,0,0,1,.1-.9,1.53,1.53,0,0,0-2.8-.8l-.3.6a1.68,1.68,0,0,0,.2,1.8,2.65,2.65,0,0,1,.5.6,1.49,1.49,0,0,0,1.4.4c3-.9,4.3-6.2.2-5.8-.6.1-1.3.4-1.4,1.1a2.92,2.92,0,0,0,.6,2.8,1.54,1.54,0,0,0,2.6,0,3.9,3.9,0,0,0,.5-3,1.39,1.39,0,0,0-1.4-1.1c-6.7.9.9,8.9,2.5,2.4a1.47,1.47,0,0,0-2.7-1.1c-1.1,1.5-1.6,4.3,1.1,4.4s3.9-3.4,3.9-5.5a1.49,1.49,0,0,0-2.5-1.1,2.73,2.73,0,0,0-1.1,2.8,1.53,1.53,0,0,0,2.2,1.3,12.15,12.15,0,0,0,6.5-9c.2-1.4-1.4-2.6-2.5-1.4a25.47,25.47,0,0,1-6.1,4.7c-1.6.8-3.8,1.2-5.1,2.5-2.5,2.4-1.5,7.7-1.7,10.8a1.6,1.6,0,0,0,3.2.1Z" transform="translate(-62.7 -27.32)"/><path class="cls-1" d="M129,46c-.4-1.1-.7-2.2-1.1-3.3-1,.3-1.9.5-2.9.8a38.87,38.87,0,0,0,2.7,5.4c1,1.7,3.4.2,2.6-1.5a47.64,47.64,0,0,0-5-8.1c-.9-1.2-3.4-.6-2.7,1.1A71.91,71.91,0,0,1,126,52.2c1-.3,1.9-.5,2.9-.8a12.41,12.41,0,0,0-3.1-5c-1-1-3,0-2.5,1.4a18.83,18.83,0,0,0,1.6,3.9c.7,1.5,3.4.4,2.7-1.1a24.16,24.16,0,0,0-2.7-5,1.54,1.54,0,0,0-2.6,0c-.8,1.6.2,3.1.8,4.7,1.2,3.2,2.5,6.5,3.7,9.7a1.48,1.48,0,0,0,2.9-.4,21.09,21.09,0,0,0-.4-7.5c-1,.3-1.9.5-2.9.8.5,1.6,1.1,3.1,1.6,4.7a1.48,1.48,0,0,0,2.9-.4,27.22,27.22,0,0,0-.5-7c-.3-1.6-3-1.3-2.9.4a27.61,27.61,0,0,0,.6,4c.5,1.9,3.2,1.1,2.9-.8a27.44,27.44,0,0,0-.9-3.9c-.5-1.9-3.1-1.1-2.9.8.1,1,.3,1.9.4,2.9.3,1.9,3.2,1.1,2.9-.8-.1-1-.3-1.9-.4-2.9-1,.3-1.9.5-2.9.8a27.44,27.44,0,0,1,.9,3.9c1-.3,1.9-.5,2.9-.8a11.27,11.27,0,0,1-.5-3.2c-1,.1-1.9.3-2.9.4a25.88,25.88,0,0,1,.4,6.2c1-.1,1.9-.3,2.9-.4-.5-1.6-1.1-3.1-1.6-4.7a1.51,1.51,0,0,0-2.9.8,18.91,18.91,0,0,1,.3,6.7c1-.1,1.9-.3,2.9-.4-.9-2.3-1.8-4.6-2.6-6.9-.4-.9-.7-1.8-1.1-2.8-.2-.5-.8-3-1.1-2.4h-2.6a18.18,18.18,0,0,1,2.4,4.3c.9-.4,1.8-.8,2.7-1.1a30.54,30.54,0,0,1-1.3-3.2c-.8.5-1.7,1-2.5,1.4a9.13,9.13,0,0,1,2.4,3.7,1.51,1.51,0,0,0,2.9-.8,69.18,69.18,0,0,0-3.4-11.8c-.9.4-1.8.8-2.7,1.1a51.91,51.91,0,0,1,5,8.1c.9-.5,1.7-1,2.6-1.5a34.55,34.55,0,0,1-2.4-4.7c-.7-1.7-3.5-1.1-2.9.8.4,1.1.7,2.2,1.1,3.3.7,1.9,3.5,1.2,2.9-.7Z" transform="translate(-62.7 -27.32)"/><path class="cls-1" d="M88.3,35h-.2A17.1,17.1,0,0,0,87,33.6c-.7,0-1.4-.1-2-.1a23.35,23.35,0,0,1-.7,2.5c.3,0,.6-.1.9-.1-.5-.8-1-1.7-1.4-2.5-.7.7-1.3,1.4-2,2.2-.5-.8-1-1.7-1.4-2.5l-.1-.1v2.6a49.19,49.19,0,0,1,21.4-4.4c-.3-.9-.5-1.8-.8-2.8a9,9,0,0,1-7.3,1c-.3,1-.5,1.9-.8,2.9a43,43,0,0,1,7,2c-.3-.7-.6-1.5-.9-2.2-.2.3-6.2-.8-6.8-.8v3a30.52,30.52,0,0,1,6.8,1.5V32.9c-2.9.5-5-.4-7.5-1.4-.3,1-.5,1.9-.8,2.9,1.4.3,5.3,2.1,1.5-1.1a23.35,23.35,0,0,1-.7,2.5c1.2-.3,8.4-1.6,8.9.7l1.8-1.8c-1.2-.7-2.4-1.4-3.6-2.2-.3.7-.6,1.5-.9,2.2a11.08,11.08,0,0,1,8.1,1.7c.4-.9.8-1.8,1.1-2.7-2.3-.4-3.2-1.6-4.5-3.2-.5.8-1,1.7-1.4,2.5a20.65,20.65,0,0,1,5.6,2.7c.5-.9,1-1.7,1.5-2.6a21.18,21.18,0,0,1-4.4-3.5c-.5.8-1,1.7-1.4,2.5a6.2,6.2,0,0,1,3.9,1.6c.5-.9,1-1.7,1.5-2.6a11.84,11.84,0,0,1-3.3-3c-.4.8-.7,1.7-1.1,2.5,2.3,0,4.5,1.8,6.5,2.8,2.5,1.2,5,2,5.9,5.1.7-.6,1.5-1.1,2.2-1.7-2.6-1.2-5.1-2.3-7.7-3.5-1.7-.8-3.2,1.7-1.5,2.6a76.88,76.88,0,0,1,6.9,3.9c.5-.9,1-1.7,1.5-2.6a16.66,16.66,0,0,1-6-4.5c-.5.8-1,1.7-1.4,2.5a10.45,10.45,0,0,1,4.2,1.4,1.5,1.5,0,0,0,1.5-2.6c-2-1.4-5-2-6.5-4a19.45,19.45,0,0,0-.5,2c1.5-1.1,10,6.2,11.2,7.1,1.4,1,3-1.2,1.8-2.3a37.79,37.79,0,0,0-8.4-6.5c-.4.9-.8,1.8-1.1,2.7a18.87,18.87,0,0,1,10.6,9.6c.9,1.7,3.4.2,2.6-1.5a21.83,21.83,0,0,0-12.3-11c-1.6-.6-2.6,1.9-1.1,2.7a35.23,35.23,0,0,1,7.8,6c.6-.8,1.2-1.6,1.8-2.3-3.1-2.2-6.6-5.8-10.2-7.3-1.5-.6-2.7-.8-4,.2a1.46,1.46,0,0,0-.5,2c1.9,2.7,4.9,3.2,7.5,5,.5-.9,1-1.7,1.5-2.6a15.06,15.06,0,0,0-4.9-1.7,1.47,1.47,0,0,0-1.4,2.5,20.26,20.26,0,0,0,6.6,5,1.5,1.5,0,0,0,1.5-2.6c-2.2-1.4-4.6-2.7-6.9-3.9-.5.9-1,1.7-1.5,2.6,2.6,1.2,5.1,2.3,7.7,3.5a1.52,1.52,0,0,0,2.2-1.7c-.8-2.8-2.6-4.5-5.2-5.9-3.1-1.6-6.6-4.2-10.1-4.1a1.52,1.52,0,0,0-1.1,2.5,21.69,21.69,0,0,0,3.9,3.5c1.6,1.1,3.1-1.5,1.5-2.6a9.83,9.83,0,0,0-4.6-1.9c-1.4-.2-2.6,1.4-1.4,2.5a30.65,30.65,0,0,0,5,3.9c1.6,1,3.1-1.5,1.5-2.6a21.47,21.47,0,0,0-6.3-3c-1.5-.5-2.3,1.4-1.4,2.5,1.7,2,3.2,3.5,5.8,4a1.47,1.47,0,0,0,1.1-2.7,14.62,14.62,0,0,0-10.4-2,1.52,1.52,0,0,0-.9,2.2,8,8,0,0,0,5.3,3.5,1.49,1.49,0,0,0,1.8-1.8c-.9-4.6-9.6-3.5-12.5-2.8a1.56,1.56,0,0,0-.7,2.5c1.7,1.5,6.5,4.4,8.1,1.3,2-3.6-4.8-4.8-6.8-5.2a1.51,1.51,0,0,0-.8,2.9c3.2,1.3,5.7,1.9,9,1.4,1.6-.3,1.3-2.5,0-2.9A38,38,0,0,0,92,31.1c-1.9-.2-1.9,2.8,0,3,2.5.3,7.7,2.2,9.4-.6a1.52,1.52,0,0,0-.9-2.2,56,56,0,0,0-7-2c-1.9-.4-2.7,2.4-.8,2.9a12.83,12.83,0,0,0,9.6-1.3,1.52,1.52,0,0,0-.8-2.8,53.22,53.22,0,0,0-22.9,4.8c-1.1.5-.8,2,0,2.6a2.5,2.5,0,0,0,3.7-.4c1-1,0-3-1.4-2.5-3,1.1-1.7,5.2,1.5,4.4,3.4-.8,3.4-6.2-.3-5.1a1.28,1.28,0,0,0-1,1c-.7,3.1,2.6,4.7,4.8,2.5a1.5,1.5,0,0,0-1.4-2.5c-.3,0-.6.1-.9.1-1.2.2-1.3,1.7-.7,2.5,2.4,2.6,7,2.2,7.1-2a1.5,1.5,0,0,0-1.1-1.4c-2.4-.8-4.9,1.8-4.2,4.2,1,3.1,4.7,1.9,5.8-.5,3.6-7.6-10.1-3.6-4.3,1.2,1.5,1.3,3.6-.8,2.1-2Z" transform="translate(-62.7 -27.32)"/><path class="cls-2" d="M128.9,125c-6.1,3.4-13.2,4.4-20.2,4a.6.6,0,1,0,0,1.2c7.2.4,14.4-.6,20.8-4.1.6-.5,0-1.5-.6-1.1Z" transform="translate(-62.7 -27.32)"/><path class="cls-2" d="M69.1,124.9c6.3,3.6,13.6,4.7,20.8,4.2a.6.6,0,1,0,0-1.2c-7,.4-14-.6-20.2-4.1-.7-.3-1.3.7-.6,1.1Z" transform="translate(-62.7 -27.32)"/><path class="cls-2" d="M69.8,124c-7.8-8.9-6.1-23.3-5.8-34.3a308,308,0,0,1,3.5-38.3c.1-.7-1-1.1-1.1-.3a302,302,0,0,0-3.6,42.4c-.1,10.4-1.1,22.9,6.2,31.3.5.6,1.3-.3.8-.8Z" transform="translate(-62.7 -27.32)"/><path class="cls-2" d="M67.4,52.7a29.23,29.23,0,0,1,32.2-24c.8.1.8-1.1,0-1.2A30.41,30.41,0,0,0,66.2,52.3c-.1.8,1.1,1.2,1.2.4Z" transform="translate(-62.7 -27.32)"/><path class="cls-2" d="M80.4,94.5c-4.5-7.3-5.6-18.3-5.8-26.8a46.31,46.31,0,0,1,7.9-26.5c.4-.6-.6-1.2-1-.6a46.66,46.66,0,0,0-8.1,27.1c.2,8.8,1.3,19.8,5.9,27.4.4.6,1.5.1,1.1-.6Z" transform="translate(-62.7 -27.32)"/><path class="cls-2" d="M79.9,45.7c1.1,1.1,2.6.8,3.9.3.7-.3.4-1.4-.3-1.1-.9.3-2,.8-2.8,0-.5-.6-1.3.2-.8.8Z" transform="translate(-62.7 -27.32)"/><path class="cls-2" d="M83.9,46.4a5.61,5.61,0,0,0,4.4-.3c.7-.3.1-1.4-.6-1a4.27,4.27,0,0,1-3.5.2c-.7-.4-1,.8-.3,1.1Z" transform="translate(-62.7 -27.32)"/><path class="cls-2" d="M88.6,46.5c.8-.1,1.6.2,2.4.1a4.69,4.69,0,0,1,2.6-.3c.7.2,1.1-1,.3-1.1a5.23,5.23,0,0,0-2.5.2,4.88,4.88,0,0,1-1.7.1,3.3,3.3,0,0,0-1.4,0c-.8-.1-.5,1.1.3,1Z" transform="translate(-62.7 -27.32)"/><path class="cls-2" d="M93.4,45.9c1.4,1.8,3.4-.3,5-.1.8.1.8-1.1,0-1.2a4.92,4.92,0,0,0-2.1.4c-.7.3-1.6.7-2.1,0-.4-.5-1.2.3-.8.9Z" transform="translate(-62.7 -27.32)"/><path class="cls-2" d="M98,45.7c1.6.7,3.5,1.4,5.1.2.6-.4,0-1.5-.6-1-1.2.9-2.7.3-3.9-.2-.6-.3-1.3.7-.6,1Z" transform="translate(-62.7 -27.32)"/><path class="cls-2" d="M102.7,45.5a2.33,2.33,0,0,0,2,1c1.1-.1,2.4-1.3,3.5-.7a.58.58,0,1,0,.6-1,2.59,2.59,0,0,0-2.1-.2c-.8.2-2.3,1.3-2.9.3-.5-.6-1.6,0-1.1.6Z" transform="translate(-62.7 -27.32)"/><path class="cls-2" d="M108.7,46a2.83,2.83,0,0,0,4-1.6c.3-.7-.9-1-1.1-.3a1.61,1.61,0,0,1-2.3.8c-.7-.3-1.3.8-.6,1.1Z" transform="translate(-62.7 -27.32)"/><path class="cls-2" d="M132,52.4A30.19,30.19,0,0,0,98.6,27.6c-.8.1-.8,1.3,0,1.2a29.1,29.1,0,0,1,32.2,24c.1.7,1.3.3,1.2-.4Z" transform="translate(-62.7 -27.32)"/><path class="cls-2" d="M129.4,126.1c7.3-8.4,6.4-20.8,6.2-31.3A316.35,316.35,0,0,0,132,52.4c-.1-.8-1.3-.4-1.1.3A288.46,288.46,0,0,1,134.4,91c.3,11,1.9,25.4-5.8,34.3a.57.57,0,1,0,.8.8Z" transform="translate(-62.7 -27.32)"/><path class="cls-2" d="M120.8,94.9c4.7-7.6,5.7-18.6,5.9-27.4a46.88,46.88,0,0,0-8.1-27.1c-.4-.6-1.5,0-1,.6a44.65,44.65,0,0,1,7.9,26.5c-.2,8.5-1.2,19.4-5.8,26.8-.3.7.7,1.3,1.1.6Z" transform="translate(-62.7 -27.32)"/><path class="cls-2" d="M112.2,45.7a.6.6,0,1,0,0-1.2.6.6,0,0,0,0,1.2Z" transform="translate(-62.7 -27.32)"/><path class="cls-2" d="M111.8,45.3c1.2,1.4,3.7.7,5.2.6a.6.6,0,1,0,0-1.2c-.8.1-1.7.1-2.5.2s-1.4.1-1.9-.4-1.3.2-.8.8Z" transform="translate(-62.7 -27.32)"/><path class="cls-2" d="M116.8,44.2a1.61,1.61,0,0,0,.9,1.8c.9.4,1.9-.1,2.7.3s1.3-.7.6-1a3.65,3.65,0,0,0-1.5-.3c-.3,0-1.8.2-1.6-.4.2-.9-.9-1.2-1.1-.4Z" transform="translate(-62.7 -27.32)"/><path class="cls-2" d="M75.1,84.5c2.3,1.8,4.4,3.8,6.8,5.5,2.2,1.6,5,2.4,7.5,3.4.7.3,1-.9.3-1.1-2.4-1-5.1-1.8-7.2-3.3-2.3-1.6-4.4-3.6-6.6-5.3-.5-.5-1.4.3-.8.8Z" transform="translate(-62.7 -27.32)"/><path class="cls-2" d="M89,93.2c.2,3.7.2,7.5.1,11.2a.6.6,0,1,0,1.2,0c.1-3.8.1-7.5-.1-11.2-.1-.8-1.3-.8-1.2,0Z" transform="translate(-62.7 -27.32)"/><path class="cls-2" d="M110.3,103.5c-.2-.7.3-1.6.5-2.3a8.6,8.6,0,0,0,.1-1.6,37.43,37.43,0,0,1,0-5.8c.1-.7-1-1.1-1.1-.3a41.4,41.4,0,0,0,0,6.1,8.57,8.57,0,0,1-.5,2.7,2.21,2.21,0,0,0,0,1.6c.2.7,1.3.3,1-.4Z" transform="translate(-62.7 -27.32)"/><path class="cls-2" d="M123.9,82.9c-1.1,2.7-4.3,4.4-6.7,5.9a54.48,54.48,0,0,1-7.6,3.9c-.7.3-.4,1.4.3,1.1a49.45,49.45,0,0,0,9.6-5.2c2.1-1.5,4.5-3,5.5-5.5.4-.6-.8-.9-1.1-.2Z" transform="translate(-62.7 -27.32)"/><path class="cls-2" d="M109.1,129.1c-2.7-.4-.5-5-.1-6.8a53,53,0,0,0,1-5.5,62.81,62.81,0,0,0,.3-13,.6.6,0,1,0-1.2,0,64.72,64.72,0,0,1-.6,14.6c-.6,3.7-2.1,7.3-2.3,11.1a.58.58,0,0,0,.6.6l2.2.3a.66.66,0,0,0,.1-1.3Z" transform="translate(-62.7 -27.32)"/><path class="cls-2" d="M90.4,129.3l2.2-.3a.58.58,0,0,0,.6-.6c-.2-3.8-1.7-7.4-2.3-11.1a65,65,0,0,1-.6-14.6c.1-.8-1.1-.8-1.2,0a62.65,62.65,0,0,0,.3,13c.3,1.9.6,3.7,1,5.5s2.7,6.5-.1,6.8c-.6.2-.6,1.4.1,1.3Z" transform="translate(-62.7 -27.32)"/><path class="cls-1" d="M79.8,39.3c0,.1.1,0,0,0,.1-.1.2-.4.2-.3l.4-.4a1.52,1.52,0,0,0,.1-2,1.44,1.44,0,0,0-1.9-.4c-.1.1-.2.1-.3.2a1.46,1.46,0,0,0,1.5,2.5c.1-.1.2-.1.3-.2-.6-.8-1.2-1.6-1.8-2.3a4.87,4.87,0,0,0-1.4,2.1,1.47,1.47,0,0,0,1,1.8,1.39,1.39,0,0,0,1.9-1Z" transform="translate(-62.7 -27.32)"/><path class="cls-1" d="M81.3,118.8c0-1.1-.1-2.2-.1-3.3-.1-1.9-3.1-1.9-3,0,0,1.1.1,2.2.1,3.3.1,1.9,3.1,1.9,3,0Z" transform="translate(-62.7 -27.32)"/><path class="cls-1" d="M81.5,111.1c-.2-.2-.4-.5-.6-.7a1.38,1.38,0,0,0-1.6-.3,1.42,1.42,0,0,0-.9,1.4,9.7,9.7,0,0,1-.1,1.7,1.5,1.5,0,0,0,3,0,9.7,9.7,0,0,1,.1-1.7c-.8.4-1.7.7-2.5,1.1.2.2.4.5.6.7a1.54,1.54,0,0,0,2.1,0,1.81,1.81,0,0,0-.1-2.2Z" transform="translate(-62.7 -27.32)"/><path class="cls-1" d="M80.5,111.9a1.76,1.76,0,0,0-.4-.5c-.3.6-.7,1.2-1,1.8h.2c-.5-.1-1-.3-1.4-.4a6.94,6.94,0,0,1,.5,1.3,1.51,1.51,0,0,0,2.9-.8,7.72,7.72,0,0,1-.2-1.5l-1.5,1.5c-.7-.5-.8-.5-.3.1.2.3.3.6.5.9a7.74,7.74,0,0,1,.7,1.6c.2.5.3,1,.5,1.5.1.2.3,1.9.6,1.3.3-.2.6-.5.9-.7a4,4,0,0,1-1.5-.3l-1.9-.3c-1.9-.3-2.7,2.6-.8,2.9,1.4.2,3.4,1,4.8.7s1.4-1.9,1.1-3.1a21.91,21.91,0,0,0-1.7-4.9c-.6-1.2-1.3-2.9-2.8-2.8a1.54,1.54,0,0,0-1.5,1.5,9.08,9.08,0,0,0,.3,2.3c1-.3,1.9-.5,2.9-.8-.5-1.5-.9-3.4-2.9-3a1.43,1.43,0,0,0-1,1.8,3.07,3.07,0,0,0,1.1,1.8c1.2,1.4,3.4-.7,1.9-1.9Z" transform="translate(-62.7 -27.32)"/><path class="cls-1" d="M99.2,42.2h-.5a.22.22,0,0,1,.2.2c.3.3.2.6.1.9.1-.1.1-.1,0-.1h0c-.1,0-.2.1-.3,0s-.3-.1-.4-.3h0a.66.66,0,0,1,.1-.6c.4-.3.4-.4.2-.3a.37.37,0,0,1,.3-.1H99c.1,0,.2.1.3.1a1.48,1.48,0,0,0-2.1,2.1,2.36,2.36,0,1,0,2.3-3.9,2.78,2.78,0,0,0-3.3,2.6c0,1.7,1.5,2.4,3,2.3a1.54,1.54,0,0,0,1.5-1.5,1.61,1.61,0,0,0-1.5-1.4Z" transform="translate(-62.7 -27.32)"/><path class="cls-1" d="M124,44.2a1.5,1.5,0,0,0,0-3,1.5,1.5,0,0,0,0,3Z" transform="translate(-62.7 -27.32)"/><path class="cls-1" d="M127.8,53a1.5,1.5,0,0,0,0-3c-1.9.1-1.9,3,0,3Z" transform="translate(-62.7 -27.32)"/><path class="cls-1" d="M123.4,102.4c.2-1,.6-3.8,1.7-4.3-.6-.3-1.2-.7-1.8-1a8.57,8.57,0,0,1-.4,5.9c.7-.3,1.5-.6,2.2-.9-.4-.3.1-3.2.1-3.7a21.07,21.07,0,0,1,.9-3.6,23.35,23.35,0,0,0-2.5.7c.3.2.1,2.5.1,2.8,0,1,0,2-.1,3s-.1,2-.2,2.9c0,.3-.1.7-.1,1-.7,1.7-.4,2,1,1.1-1.9-.4-2.7,2.5-.8,2.9,3,.6,2.8-3.6,2.9-5.4.2-2.1.3-4.3.3-6.4,0-1.4.2-2.9-.9-3.9a1.51,1.51,0,0,0-2.5.7c-1,2.9-2.6,8.5.3,10.7a1.52,1.52,0,0,0,2.2-.9,11.39,11.39,0,0,0,.4-7.5,1.47,1.47,0,0,0-1.8-1c-2.5,1-3.3,3.9-3.7,6.4-.5,1.6,2.4,2.4,2.7.5Z" transform="translate(-62.7 -27.32)"/><path class="cls-1" d="M85.5,43.8c-.5.5-1.7-.1-1.1-1,.1-.1.2-.2.3-.2.3,0,.6.1,1,.1.1.1,0,.6.1.5-.1.2-.3.4-.3.6-.7.2-.8.3-.5.3h.3c-.1-.1-.1-.1.1,0-.2-.3-.4-.3-.3-.8.3-1.1,2.1-.8,1.3.5l-.5.5c.1,0,.2-.1.4-.1h.2q.6.15-.3-.3c-.1-.3-.1-.5-.2-.8,0-.1.1-.2.1-.4l.5-.5a.1.1,0,0,0,.1-.1h.8c.1.1.2.1.3.2a4.35,4.35,0,0,1,.4.7v-.1a1.51,1.51,0,0,0-2.9.8,1.89,1.89,0,0,0,3.4.5,1.65,1.65,0,0,0,0-1.9,2.75,2.75,0,0,0-1.6-1c-1.3-.2-3.1.1-3.5,1.6a2.35,2.35,0,0,0,2.2,2.7A2.09,2.09,0,0,0,88,43a2.68,2.68,0,0,0-2.3-2,2.25,2.25,0,0,0-1.8.2,1.94,1.94,0,0,0-1,1.7,2.4,2.4,0,0,0,2.6,2.3,2.24,2.24,0,0,0,1.6-3.3,2.32,2.32,0,0,0-3.6-.4,1.54,1.54,0,0,0,0,2.1,1.22,1.22,0,0,0,2,.2Z" transform="translate(-62.7 -27.32)"/><path class="cls-1" d="M80.8,41a4.62,4.62,0,0,1,.7-.7,4.35,4.35,0,0,0,.7-.4c.3-.1.2-.2-.2-.4v.2c-.5,1,1.3.3,1.3.3l-.2-.2c-.1-.3-.1-.3-.2.1a.27.27,0,0,1-.3.3c-.1-.1-.2-.2-.2-.3s-.3.3-.3.3h-.2c-.4-.1-.3,0,.2.3.1.4.1.8.2,1.1-.2.1-.3.3-.5.4.3.1.5-.1.5-.5.5-1,.2-.3-.1-.7.1.4.1.8.2,1.1,0-.1,0-.1.1-.2-.2.3-.5.6-.7.9.1,0,.1-.1.2-.1s.2-.1-.1-.2-.3-.3.1-.5c.1-.3.3-.4.4-.2-.3.7-.6,1.5-.9,2.2l1.2-1.2v1.5c0-.1.1-.1.1-.2-.3.2-.6.5-.9.7-.2-.1-.4-.3-.6-.4-.1-.4-.1-.8-.2-1.1,0,.1,0,.1-.1.2l1-1c.3.5.6,1.1.9,1.6,1.7-.9.2-3.5-1.5-2.6-2,1.1-.9,4.6,1.4,3.8a1.72,1.72,0,0,0,.7-2.8,2.27,2.27,0,0,0-2.9-.4c-2.3,1.4.5,4.5,2.5,2.8a2.17,2.17,0,0,0,.4-2.9,2.48,2.48,0,0,0-3-.9,1.52,1.52,0,0,0-.9,2.2c1.1,1.9,4.2,1.8,4.7-.5s-2.2-3.8-4.1-2.7c-2.5,1.5.3,4.2,2.3,4,2.9-.2,2.7-4.1.1-4.7a3.1,3.1,0,0,0-2.8.5,1.94,1.94,0,0,0,.2,3,3.54,3.54,0,0,0,5.1-2,2.74,2.74,0,0,0-3.7-3.3c-2.1,1-1.6,4,.2,5,2.8,1.6,4-2.9,2.8-4.7-1.7-2.7-5-.1-6.3,1.6a1.46,1.46,0,0,0,.5,2,1.51,1.51,0,0,0,2.2-.3Z" transform="translate(-62.7 -27.32)"/><path class="cls-3" d="M71.8,120a38.87,38.87,0,0,1-4.2-25.9c.2-1.1-1.5-1.6-1.7-.5a40.77,40.77,0,0,0,4.4,27.2.85.85,0,1,0,1.5-.8Z" transform="translate(-62.7 -27.32)"/><path class="cls-3" d="M89.7,124.9c-4.6-7.8-4.3-16.5-3.9-25.3.1-1.1-1.7-1.1-1.8,0-.5,9.1-.7,18.1,4.1,26.2.6,1,2.2.1,1.6-.9Z" transform="translate(-62.7 -27.32)"/><path class="cls-3" d="M78.6,103.1a30.15,30.15,0,0,1-6-15.2c-.1-1.1-1.9-1.1-1.8,0A32.57,32.57,0,0,0,77,104c.8.9,2.3,0,1.6-.9Z" transform="translate(-62.7 -27.32)"/><path class="cls-3" d="M70.9,58.2a30.07,30.07,0,0,1,5.3-16.7.87.87,0,0,0-1.5-.9,31.58,31.58,0,0,0-5.5,17.6.85.85,0,1,0,1.7,0Z" transform="translate(-62.7 -27.32)"/><path class="cls-3" d="M127.8,90.9A45,45,0,0,0,131.2,79c.6-4.4-.2-8.6.2-13,.1-1.1-1.7-1.1-1.8,0-.3,3.4.3,6.8.1,10.3A40.58,40.58,0,0,1,126.3,90c-.5,1.1,1.1,2,1.5.9Z" transform="translate(-62.7 -27.32)"/><path class="cls-3" d="M113.3,125.1a94,94,0,0,0,2.7-23.6.9.9,0,0,0-1.8,0,90,90,0,0,1-2.6,23.1c-.3,1.1,1.5,1.6,1.7.5Z" transform="translate(-62.7 -27.32)"/><path class="cls-3" d="M126.1,124.7a65.45,65.45,0,0,0,6.6-21.2c.1-1.1-1.6-1.1-1.8,0a63.09,63.09,0,0,1-6.3,20.3c-.6,1.1,1,2,1.5.9Z" transform="translate(-62.7 -27.32)"/><path class="cls-3" d="M120.8,40.6a24.21,24.21,0,0,1,7.3,11.5.89.89,0,0,0,1.7-.5A25.52,25.52,0,0,0,122,39.3a.89.89,0,0,0-1.2,1.3Z" transform="translate(-62.7 -27.32)"/></svg>