<?xml version="1.0" encoding="utf-8"?>
<!-- Generator: Adobe Illustrator 21.0.2, SVG Export Plug-In . SVG Version: 6.00 Build 0)  -->
<svg version="1.1" id="Layer_1" xmlns="http://www.w3.org/2000/svg" xmlns:xlink="http://www.w3.org/1999/xlink" x="0px" y="0px"
	 viewBox="0 0 200 600" style="enable-background:new 0 0 200 600;" xml:space="preserve">
<g>
	<g>
		<g>
			<g>
				<g>
					<path d="M60.1,573c9,0.7,18,0.7,27-0.1c0.8-0.1,0.8-1.3,0-1.2c-9,0.7-18,0.8-27,0.1C59.4,571.8,59.4,573,60.1,573L60.1,573z"/>
				</g>
			</g>
			<g>
				<g>
					<path d="M87.7,572.5c0.2-0.3,0.4-0.6,0.6-0.9c0.4-0.6-0.6-1.2-1-0.6c-0.2,0.3-0.4,0.6-0.6,0.9
						C86.3,572.6,87.3,573.2,87.7,572.5L87.7,572.5z"/>
				</g>
			</g>
			<g>
				<g>
					<path d="M87.8,571.8c0.6,0.3,1.2,0.7,1.8,1.1c0.6,0.5,1.4-0.3,0.8-0.8c-0.6-0.5-1.3-1-2-1.3C87.7,570.4,87.1,571.5,87.8,571.8
						L87.8,571.8z"/>
				</g>
			</g>
			<g>
				<g>
					<path d="M89.7,572.2C89.7,572.3,89.7,572.3,89.7,572.2c-0.1,0.3,0,0.7,0.3,0.8c0,0,0.1,0,0.1,0c0.3,0.1,0.7,0.1,0.8-0.2
						c0.5-1.1,0.3-2.5,0.3-3.7c0-1.7,0-3.4,0-5c0-0.8-1.2-0.8-1.2,0c0,1.4,0,2.7,0,4.1c0,1.1,0.2,3.1-0.2,4c0.3-0.1,0.5-0.1,0.8-0.2
						c0,0-0.1,0-0.1,0c0.1,0.2,0.2,0.5,0.3,0.7c0,0,0-0.1,0-0.1C91,571.8,89.9,571.5,89.7,572.2L89.7,572.2z"/>
				</g>
			</g>
			<g>
				<g>
					<path d="M60.2,571.7c-1.5,0-2-0.9-2.2-2.3c-0.2-1.1-0.1-2.2,0.2-3.4c0.2-0.7-0.9-1.1-1.2-0.3c-0.5,1.7-0.5,3.6,0.2,5.3
						c0.6,1.4,1.5,1.9,3,1.9C61,572.9,61,571.7,60.2,571.7L60.2,571.7z"/>
				</g>
			</g>
			<g>
				<g>
					<path d="M58.1,566.6c0.6-1.7,2.3-2.7,4-2.7c0.8,0,0.8-1.2,0-1.2c-2.3,0-4.3,1.5-5.2,3.6C56.7,567,57.8,567.3,58.1,566.6
						L58.1,566.6z"/>
				</g>
			</g>
			<g>
				<g>
					<path d="M61.5,563.3c-0.3,1.8,0,3.6,1.1,5c0.5,0.6,1.5,0,1-0.6c-0.9-1.2-1.3-2.6-1-4.1C62.8,562.9,61.7,562.6,61.5,563.3
						L61.5,563.3z"/>
				</g>
			</g>
			<g>
				<g>
					<path d="M62.8,568.5c4.8,3.5,12,2.8,17.6,1.9c4-0.7,8.3-2,9.8-6.1c0.3-0.7-0.9-1-1.2-0.3c-2.7,7.4-20.3,7.3-25.6,3.5
						C62.7,567,62.1,568,62.8,568.5L62.8,568.5z"/>
				</g>
			</g>
			<g>
				<g>
					<path d="M87.4,569.6c0.3,0.4,0.6,0.8,0.9,1.2c0.2-0.3,0.5-0.6,0.7-0.9c-0.2-0.1-0.4-0.1-0.5-0.2c-0.7-0.3-1,0.7-0.5,1.1
						c0.3,0.2,0.6,0.4,0.9,0.5c0.5,0.2,1-0.1,0.9-0.7c0-0.1,0-0.2-0.1-0.3c-0.2,0.2-0.5,0.5-0.7,0.7c0.1,0.1,0.2,0.1,0.3,0.2
						c0.2-0.3,0.4-0.7,0.6-1c-0.1-0.1-0.2-0.1-0.3-0.2c-0.6-0.4-1.1,0.5-0.7,0.9c0.3,0.4,0.7,0.6,1.1,0.9c0.4,0.2,0.9-0.1,0.9-0.5
						c0-1.7-0.1-3.4-0.1-5.2c0-0.8-1.2-0.8-1.2,0c0,1.2,0,2.3-0.1,3.5c0.1-0.2,0.2-0.3,0.3-0.5c0.5-0.2,0.3-1.1,0.4-1.6
						c-0.4,0-0.8,0-1.2,0c0.2,0.5,0.1,0.9-0.1,1.4c0.4,0,0.7,0.1,1.1,0.1c-0.1-0.7,0-1.2,0.1-1.9c0.2-0.7-0.7-1-1.1-0.5
						c-0.4,0.6-0.9,1.2-1.4,1.7c0.3,0.2,0.6,0.5,0.9,0.7c0.3-0.7,0.8-1.2,1.3-1.8c0.5-0.5-0.1-1.2-0.7-0.9c-0.4,0.2-0.7,0.4-1,0.7
						c0.3,0.2,0.6,0.5,0.9,0.7c0.2-0.3,0.4-0.6,0.7-0.8c-0.3-0.3-0.6-0.6-0.8-0.8c-0.2,0.2-0.4,0.4-0.6,0.7c0.3,0.2,0.6,0.5,0.9,0.7
						c0.2-0.5,0.5-0.8,0.9-1.2c-0.3-0.3-0.6-0.6-0.8-0.8c-0.8,0.9-1.6,1.7-2.5,2.4c-0.5,0.4,0.2,1.3,0.7,0.9
						c0.4-0.2,0.8-0.5,1.3-0.7c0.7-0.4,0.1-1.4-0.6-1c-0.8,0.5-1.7,1-2.5,1.4c0.2,0.3,0.4,0.7,0.6,1c0.5-0.4,1.1-0.8,1.6-1.1
						c-0.2-0.3-0.5-0.6-0.7-0.9c-0.4,0.3-0.7,0.6-1.1,0.9c-0.5,0.4,0.2,1.3,0.7,0.9c0,0,0.9-0.5,0.7-0.6c-0.1-0.2-0.2-0.5-0.3-0.7
						c-0.1,0.5-0.5,1.1-0.7,1.6c0.4,0.1,0.7,0.2,1.1,0.3c0-0.1,0-0.2,0.1-0.4c-0.4-0.1-0.8-0.1-1.2-0.2c0,0.3,0,0.5,0,0.8
						c0.4-0.1,0.7-0.2,1.1-0.3c0,0,0,0,0,0c-0.3,0-0.6,0-0.8,0c0.2,0.2,0.4,0.4,0.7,0.6c0.6,0.5,1.4-0.3,0.8-0.8
						c-0.8-0.6-2.1-1-2.4,0.3c-0.1,0.7,0.7,1.1,1.1,0.5c0.1-0.2,0.2-0.4,0.3-0.6c-0.4-0.1-0.7-0.2-1.1-0.3c0,0.6-0.1,1-0.5,1.4
						c0.3,0.2,0.6,0.5,0.9,0.7c0.2-0.4,0.5-0.8,0.8-1.2c-0.3-0.2-0.7-0.4-1-0.6c0,0.3-0.1,0.5-0.4,0.6c-0.5,0.5-0.9,0.3-1.4-0.7
						c0.4,0,0.8,0,1.2,0c-0.2,0-0.5,0.1-0.7,0.1c0.2,0,0.4,0,0.6,0c0-0.1,0-0.2,0-0.3c-0.6-0.5-1.4,0.4-0.8,0.8
						c1,0.8,2.7-0.2,1.7-1.4c-1-1.2-2.5,0.3-1.9,1.5c0.7,1.4,2-0.2,1.8-1.2c-0.1-0.6-0.6-1-1.2-0.8c-0.8,0.2-0.8,1-0.6,1.6
						c0.1,0.5,1.1,0.6,1.2,0c0.3-2.1-2.8-1.6-2.3,0.4c0.6,2.2,3.6,1.6,4.1-0.3c0.1-0.6-0.6-1-1-0.6c-0.4,0.4-0.7,0.9-1,1.4
						c-0.3,0.6,0.5,1.3,0.9,0.7c0.6-0.7,0.8-1.4,0.8-2.2c0-0.6-0.8-0.8-1.1-0.3c-0.1,0.2-0.2,0.4-0.3,0.6c0.4,0.2,0.7,0.3,1.1,0.5
						c0.1,0.1,0.2,0.1,0.4,0.2c0.3-0.3,0.6-0.6,0.8-0.8c-0.2-0.2-0.4-0.4-0.7-0.6c-0.2-0.2-0.6-0.3-0.8,0c-0.4,0.5-0.5,0.9-0.2,1.5
						c0.3,0.6,1.1,0.3,1.1-0.3c0-0.3,0-0.5,0-0.8c0-0.7-1-0.8-1.2-0.2c-0.1,0.3-0.1,0.4-0.1,0.7c0,0.6,0.9,0.9,1.1,0.3
						c0.3-0.6,0.7-1.3,0.8-1.9c0-0.2,0-0.6-0.3-0.7c-0.7-0.3-1.3,0.2-1.9,0.6c0.2,0.3,0.5,0.6,0.7,0.9c0.4-0.3,0.7-0.6,1.1-0.9
						c0.5-0.4-0.2-1.3-0.7-0.9c-0.5,0.4-1.1,0.8-1.6,1.1c-0.6,0.4-0.1,1.4,0.6,1c0.8-0.5,1.7-1,2.5-1.4c-0.2-0.3-0.4-0.7-0.6-1
						c-0.4,0.2-0.8,0.5-1.3,0.7c0.2,0.3,0.5,0.6,0.7,0.9c0.9-0.7,1.7-1.5,2.5-2.4c0.5-0.6-0.3-1.4-0.8-0.8c-0.5,0.4-0.8,0.9-1.1,1.4
						c-0.3,0.6,0.5,1.3,0.9,0.7c0.2-0.2,0.4-0.4,0.6-0.7c0.5-0.6-0.3-1.4-0.8-0.8c-0.4,0.3-0.6,0.7-0.9,1.1
						c-0.4,0.6,0.5,1.2,0.9,0.7c0.2-0.3,0.5-0.4,0.8-0.6c-0.2-0.3-0.5-0.6-0.7-0.9c-0.6,0.6-1,1.3-1.4,2c-0.3,0.6,0.5,1.2,0.9,0.7
						c0.6-0.6,1.1-1.2,1.6-1.9c-0.4-0.2-0.7-0.3-1.1-0.5c-0.3,0.8-0.3,1.6-0.1,2.5c0.1,0.5,0.9,0.6,1.1,0.1c0.4-0.8,0.5-1.5,0.2-2.3
						c-0.2-0.5-1-0.6-1.2,0c-0.2,0.9-0.4,3.8,1.3,3c0.2-0.1,0.3-0.3,0.3-0.5c0-1.2,0-2.3,0.1-3.5c-0.4,0-0.8,0-1.2,0
						c0,1.7,0.1,3.4,0.1,5.2c0.3-0.2,0.6-0.3,0.9-0.5c-0.3-0.2-0.6-0.4-0.9-0.7c-0.2,0.3-0.5,0.6-0.7,0.9c0.2,0.2,0.3,0.2,0.6,0.3
						c0.6,0.2,1-0.6,0.6-1c-0.3-0.3-0.4-0.4-0.8-0.5c-0.5-0.1-0.8,0.3-0.7,0.7c0,0.1,0,0.2,0.1,0.3c0.3-0.2,0.6-0.5,0.9-0.7
						c-0.4-0.2-0.6-0.3-0.9-0.5c-0.2,0.4-0.3,0.7-0.5,1.1c0.2,0.1,0.4,0.1,0.5,0.2c0.5,0.2,1-0.5,0.7-0.9c-0.3-0.4-0.6-0.8-0.9-1.2
						C88,568.4,87,569,87.4,569.6L87.4,569.6z"/>
				</g>
			</g>
			<g>
				<g>
					<path d="M88.2,570c-0.2,0-0.5,0-0.7,0c-0.8,0-0.8,1.2,0,1.2c0.2,0,0.5,0,0.7,0C89,571.2,89,570,88.2,570L88.2,570z"/>
				</g>
			</g>
			<g>
				<g>
					<path d="M59.7,570.8c-0.1,0.1-0.1,0.3-0.2,0.4c0.4,0,0.7-0.4,0.6-0.8c0-0.2-0.1-0.4-0.1-0.6c-0.3,0.2-0.6,0.5-0.9,0.7
						c0,0,0,0,0-0.1c0.2-0.3,0.4-0.5,0.6-0.8c-0.1-0.1-0.2-0.3-0.2-0.4c-0.2,0-0.5-0.1-0.7-0.1c0,0.3,0,0.7,0,1
						c0.2-0.1,0.4-0.3,0.6-0.4c0.1,0,0.1-0.1,0.2-0.1c-0.4,0-0.8,0-1.2,0c0,0.1,0,0.2,0,0.3c0.4,0,0.7,0.1,1.1,0.1
						c0.1-0.4,0.2-0.8,0.2-1.3c-0.3,0-0.7,0-1,0c0.6-0.5,1.2-1.1,1.9-1.6c-0.3-0.1-0.6-0.2-0.9-0.4c0.1,0,0.3,0,0.4,0
						c-0.4-0.1-0.8-0.1-1.2-0.2c0,0,0,0,0,0c0.3,0,0.6,0.1,0.9,0.1c0.3-0.4,0.6-0.8,1.1-1c-0.3-0.2-0.6-0.3-0.9-0.5
						c-0.1,0.7-0.2,1.3-0.5,1.9c0.4,0.2,0.7,0.3,1.1,0.5c0.3-0.9,0.7-1.8,1.2-2.6c-0.4,0-0.7-0.1-1.1-0.1c0.3,1.3,0.7,2.4,1.2,3.6
						c0.3-0.2,0.7-0.4,1-0.6c-0.3-0.7-0.6-1.2-1.2-1.7c-0.5-0.5-1.3,0.2-0.9,0.7c0.4,0.6,0.8,1.1,1.2,1.7c0.3-0.2,0.7-0.4,1-0.6
						c-0.8-1.2-1.1-2.3-0.8-3.8c0.1-0.6-0.8-1.1-1.1-0.5c-0.9,2.1-1.6,5.4,1.4,6.1c0.5,0.1,1.1-0.6,0.6-1c-0.8-0.6-1.5-1.1-2.5-1.5
						c-0.1,0.4-0.2,0.8-0.3,1.2c0.8,0.2,1.5,0.5,2.3,1c0.1-0.4,0.2-0.7,0.3-1.1c-0.7,0-1.4-0.1-2-0.3c-0.7-0.2-1,0.7-0.5,1.1
						c0.4,0.2,0.8,0.5,1.1,0.7c0-0.4,0.1-0.7,0.1-1.1c-0.3-0.1-0.6-0.1-1-0.2c0,0.4-0.1,0.7-0.1,1.1c0.5,0,0.9,0,1.4,0.1
						c0.1-0.4,0.2-0.8,0.3-1.2c-0.6,0-1.1-0.3-1.5-0.6c-0.2,0.4-0.3,0.7-0.5,1.1c0.8,0.3,1.6,0.6,2.4,1c0.1-0.4,0.1-0.8,0.2-1.2
						c-0.3-0.1-0.5-0.2-0.8-0.3c-0.2,0.3-0.4,0.7-0.6,1c0.6,0.1,1.1,0.3,1.7,0.6c0.6,0.3,1.3-0.5,0.7-0.9c-0.4-0.3-0.7-0.6-1.1-0.9
						c-0.6-0.5-1.4,0.3-0.8,0.8c0.5,0.4,1,0.8,1.5,1.1c0.6,0.3,1.2-0.5,0.7-0.9c-0.3-0.3-0.7-0.6-1-0.9c-0.2,0.3-0.5,0.6-0.7,0.9
						c0.7,0.4,1.4,0.7,2.1,1c0.6,0.3,1-0.8,0.5-1.1c-0.7-0.4-1.3-0.7-2-1.1c-0.2,0.4-0.3,0.7-0.5,1.1c0.8,0.3,1.6,0.6,2.4,0.9
						c0.1-0.4,0.2-0.8,0.3-1.2c-0.8-0.2-1.5-0.4-2.3-0.6c-0.5-0.1-1.1,0.6-0.6,1c0.9,0.7,1.8,1.3,2.9,1.6c0.1-0.4,0.2-0.8,0.3-1.2
						c-0.7-0.2-1.3-0.4-2-0.7c-0.1,0.4-0.2,0.8-0.3,1.2c1.1,0.3,2.2,0.5,3.3,0.8c0.8,0.2,1-0.9,0.3-1.2c-0.7-0.3-1.5-0.5-2.2-0.8
						c-0.1,0.4-0.2,0.8-0.3,1.2c1,0.2,2.1,0.5,3.1,0.8c0.1-0.4,0.2-0.8,0.3-1.2c-0.8-0.2-1.5-0.4-2.3-0.7c-0.1,0.4-0.2,0.8-0.3,1.2
						c1,0.2,1.9,0.5,2.8,0.8c0.1-0.4,0.1-0.8,0.2-1.2c-1.3,0.1-2.5,0.1-3.8,0c-0.7-0.1-0.8,1-0.2,1.2c0.6,0.2,1.1,0.3,1.8,0.2
						c0.6-0.1,0.9-1,0.2-1.2c-1.3-0.3-2.6-0.5-3.8-0.8c-0.1,0.4-0.1,0.8-0.2,1.2c0.9,0,1.8,0.2,2.7,0.4c0.1-0.4,0.1-0.8,0.2-1.2
						c-1.1-0.1-2.1-0.4-3.1-0.7c-0.1,0.4-0.2,0.8-0.3,1.2c0.8,0.2,1.7,0.5,2.5,0.7c0-0.4,0-0.8,0-1.2c-1,0.2-1.9,0.3-2.9,0.1
						c0,0.4,0,0.8,0,1.2c0.4,0.1,0.7,0.1,1.1,0.2c0.1-0.4,0.2-0.7,0.3-1.1c-1,0-2.9-0.5-3.5,0.5c-0.2,0.3,0,0.8,0.4,0.9
						c1.1,0.2,2.2,0.3,3.3,0.5c0.7,0.1,1.1-1,0.3-1.2c-0.5-0.1-0.7-0.1-1.2,0c-0.7,0.1-0.5,1.2,0.2,1.2c1.2,0,2.4,0,3.6,0.1
						c0.8,0,0.8-1.2,0-1.2c-1.2,0-2.4,0-3.6-0.1c0.1,0.4,0.1,0.8,0.2,1.2c0.2,0,0.4,0,0.5,0c0.1-0.4,0.2-0.8,0.3-1.2
						C61.9,571.1,60.8,570.9,59.7,570.8c0.1,0.2,0.2,0.5,0.4,0.8c0.1-0.2,2.2,0.1,2.5,0.1c0.6,0,0.9-0.9,0.3-1.1
						c-0.6-0.3-1.1-0.4-1.7-0.4c-0.8,0-0.7,1.1,0,1.2c1.1,0.1,2.1,0.1,3.2-0.2c0.6-0.1,0.5-1,0-1.2c-0.8-0.3-1.6-0.5-2.5-0.7
						c-0.8-0.2-1,0.9-0.3,1.2c1.1,0.4,2.2,0.6,3.4,0.7c0.7,0.1,0.8-1,0.2-1.2c-1-0.3-2-0.4-3-0.5c-0.7,0-0.8,1-0.2,1.2
						c1.3,0.3,2.6,0.5,3.8,0.8c0.1-0.4,0.1-0.8,0.2-1.2c-0.5,0.1-1,0.1-1.5-0.1c-0.1,0.4-0.1,0.8-0.2,1.2c1.3,0.1,2.5,0.1,3.8,0
						c0.7-0.1,0.8-0.9,0.2-1.2c-0.9-0.4-1.8-0.6-2.8-0.8c-0.8-0.1-1,0.9-0.3,1.2c0.8,0.3,1.5,0.5,2.3,0.7c0.7,0.2,1.1-0.9,0.3-1.2
						c-1-0.3-2-0.5-3.1-0.8c-0.8-0.2-1.1,0.9-0.3,1.2c0.7,0.3,1.5,0.5,2.2,0.8c0.1-0.4,0.2-0.8,0.3-1.2c-1.1-0.3-2.2-0.5-3.3-0.8
						c-0.8-0.2-1,0.9-0.3,1.2c0.7,0.3,1.3,0.5,2,0.7c0.7,0.2,1.1-0.9,0.3-1.2c-1-0.3-1.6-0.7-2.4-1.3c-0.2,0.3-0.4,0.7-0.6,1
						c0.8,0.2,1.5,0.4,2.3,0.6c0.8,0.2,1-0.9,0.3-1.2c-0.8-0.3-1.6-0.6-2.4-0.9c-0.6-0.2-1,0.8-0.5,1.1c0.7,0.4,1.3,0.7,2,1.1
						c0.2-0.4,0.3-0.7,0.5-1.1c-0.6-0.2-1.2-0.5-1.8-0.9c-0.6-0.3-1.3,0.5-0.7,0.9c0.3,0.3,0.7,0.6,1,0.9c0.2-0.3,0.5-0.6,0.7-0.9
						c-0.5-0.2-0.9-0.5-1.3-0.9c-0.3,0.3-0.6,0.6-0.8,0.8c0.4,0.3,0.7,0.6,1.1,0.9c0.2-0.3,0.5-0.6,0.7-0.9
						c-0.6-0.3-1.3-0.5-1.9-0.7c-0.6-0.1-1,0.6-0.6,1c0.5,0.5,0.9,0.6,1.6,0.7c0.7,0,0.7-0.9,0.2-1.2c-0.8-0.3-1.6-0.6-2.4-1
						c-0.7-0.3-1,0.7-0.5,1.1c0.6,0.4,1.1,0.6,1.8,0.8c0.8,0.2,1-0.9,0.3-1.2c-0.8-0.3-1.3-0.3-2.1-0.1c-0.5,0.1-0.6,0.9-0.1,1.1
						c0.7,0.3,1.1,0.4,1.9,0.3c0.5-0.1,0.5-0.9,0.1-1.1c-0.4-0.2-0.8-0.5-1.1-0.7c-0.2,0.4-0.3,0.7-0.5,1.1c0.8,0.2,1.5,0.3,2.3,0.4
						c0.6,0,0.8-0.8,0.3-1.1c-0.8-0.5-1.6-0.8-2.6-1.1c-0.8-0.2-1,0.9-0.3,1.2c0.7,0.2,1.4,0.6,2,1.2c0.2-0.3,0.4-0.7,0.6-1
						c-2.3-0.6-1.2-3.1-0.6-4.3c-0.4-0.2-0.7-0.3-1.1-0.5c-0.4,1.7-0.1,3.3,0.9,4.7c0.4,0.6,1.5,0,1-0.6c-0.4-0.6-0.8-1.1-1.2-1.7
						c-0.3,0.2-0.6,0.5-0.9,0.7c0.4,0.4,0.8,0.9,1,1.4c0.3,0.7,1.3,0.1,1-0.6c-0.5-1.1-0.8-2.2-1.1-3.3c-0.1-0.5-0.8-0.6-1.1-0.1
						c-0.6,0.9-1,1.9-1.3,2.9c-0.2,0.6,0.8,1.1,1.1,0.5c0.4-0.8,0.6-1.6,0.7-2.5c0.1-0.5-0.5-0.7-0.9-0.5c-1,0.6-2.1,1.4-1.5,2.6
						c0.2,0.4,0.7,0.4,0.9,0.1c0.3-0.3,0.4-0.5,0.4-0.9c0.1-0.7-1-0.8-1.2-0.2c-0.3,1,0.6,2.4,1.7,1.5c0.7-0.6,0.3-1.8-0.6-1.8
						c-1,0-1.3,1.2-0.5,1.8c1.1,0.7,1.7-0.6,1.4-1.5c-0.1-0.4-0.5-0.6-0.9-0.4c-0.7,0.4-1.5,1.6-0.6,2.3c0.6,0.4,1.2,0.1,1.4-0.5
						c0.4-2.1-3.7-1.2-1.8,0.9c0.1,0.2,0.4,0.2,0.6,0.2c2.1-0.5-0.5-3.4-1.4-1.1c-1,2.4,2.9,2.2,1.7,0.2c-0.2-0.4-0.8-0.4-1,0
						c-0.4,0.8-0.5,1.3-0.4,2.2c0.1,0.5,0.8,0.5,1.1,0.1c0.3-0.5,0.4-0.7,0.1-1.3c-0.2-0.6-1-0.6-1.2,0c-0.3,0.8,0,1.8,1,1.7
						c0.3,0,0.5-0.2,0.6-0.4c0.2-0.7,0.3-1.7-0.3-2.2c-0.2-0.2-0.5-0.2-0.7-0.1c-1.2,0.7-0.5,2.7,0.9,2.1c0.2-0.1,0.3-0.3,0.3-0.5
						c0-0.8-0.9-1.3-1.5-0.7C57.6,570,58.8,570.9,59.7,570.8c0.3,0.1,0.7-0.3,0.5-0.7c-0.1-0.3-0.2-0.5-0.6-0.7
						c-0.5-0.2-1,0.1-0.9,0.7c0,0.2,0.1,0.4,0.1,0.6c0.2-0.3,0.4-0.5,0.6-0.8c-1,0-1.4,1-0.6,1.6C59.4,572.1,60.3,571.3,59.7,570.8
						L59.7,570.8z"/>
				</g>
			</g>
			<g>
				<g>
					<path d="M68.9,571.2c-0.2,0-0.4,0-0.6,0c-0.8,0-0.8,1.1,0,1.2c0.4,0,0.8,0.1,1.3,0.1c0-0.4,0-0.8,0-1.2c-1.1,0-1,0-2.1,0.2
						c-0.6,0.1-0.6,1.1,0,1.2c0.7,0.1,0.8,0.1,1.5,0.1c-0.1-0.4-0.1-0.8-0.2-1.2c-0.5,0-1,0-1.6,0c0,0.4,0,0.8,0,1.2
						c1.1-0.1,2.2-0.1,3.3,0c0.7,0,0.8-1,0.2-1.2c-0.7-0.2-1.5-0.3-2.2-0.5c-0.1,0.4-0.1,0.8-0.2,1.2c1,0.1,2,0.2,2.9,0.2
						c0.7,0.1,0.8-1.1,0.2-1.2c-0.7-0.1-1.5-0.3-2.2-0.4c-0.1,0.4-0.1,0.8-0.2,1.2c0.8,0,1.6,0,2.4,0.2c0.7,0.1,0.8-1,0.2-1.2
						c-0.7-0.2-1.5-0.3-2.2-0.5c-0.1,0.4-0.1,0.8-0.2,1.2c1.1,0.1,2.1,0.3,3.2,0.4c0-0.4,0-0.8,0-1.2c-1,0.1-1.8,0.2-2.8,0.1
						c-0.8,0-0.8,1.1,0,1.2c1.3,0.1,2.5,0.2,3.7,0.5c0.1-0.4,0.1-0.8,0.2-1.2c-0.8,0-1.6,0-2.3,0c0,0.4,0,0.8,0,1.2
						c1.2-0.1,2.3-0.1,3.5-0.2c0.6,0,0.9-1,0.2-1.2c-1.1-0.2-0.9-0.2-2.1-0.2c0,0.4,0,0.8,0,1.2c0.7-0.1,1.4-0.2,2.2-0.2
						c0.6,0,0.9-1.1,0.2-1.2c-0.6-0.1-1.2-0.2-1.9-0.3c-0.1,0.4-0.1,0.8-0.2,1.2c0.9,0,1.9,0.1,2.8,0.1c0-0.4,0-0.8,0-1.2
						c-1,0.1-1.8,0.1-2.8,0c0.1,0.4,0.1,0.8,0.2,1.2c1.4-0.2,2.6-0.2,4,0c0-0.4,0-0.8,0-1.2c-0.4,0-0.7,0-1.1-0.1c0,0.4,0,0.8,0,1.2
						c0.9,0,1.8,0.1,2.7,0c0.8,0,0.8-1.1,0-1.2c-0.5,0-0.9-0.1-1.4-0.1c0,0.4,0,0.8,0,1.2c1,0,2.1,0,3.1,0c0.8,0,0.8-1.2,0-1.2
						c-0.7,0-1.4,0-2.1,0c0,0.4,0,0.8,0,1.2c1.5,0,2.8,0.1,4.3,0.4c0.1-0.4,0.1-0.8,0.2-1.2c-0.4,0-0.8,0-1.2,0
						c-0.8,0-0.8,1.2,0,1.2c0.9,0.1,1.8,0.1,2.7,0.2c0.7,0,0.8-1,0.2-1.2c-1.7-0.4-3.4-0.7-5.1-1c-0.1,0.4-0.1,0.8-0.2,1.2
						c0.9-0.1,1.9-0.2,2.8-0.4c0.7-0.1,0.8-1.2,0-1.2c-1.6-0.1-1.2-0.1-2.7,0.2c-0.7,0.1-0.5,1.2,0.2,1.2c1.7,0,3.6,0.4,4.7-1
						c0.4-0.6-0.5-1.1-0.9-0.7c-0.3,0.1-0.6,0.3-0.9,0.4c0.1,0.3,0.3,0.7,0.4,1c0.3-0.1,0.6-0.3,0.9-0.4c-0.1-0.4-0.2-0.8-0.3-1.2
						c-0.3,0.1-0.6,0.2-0.9,0.4c-0.7,0.3-0.4,1.4,0.3,1.2c0.2,0,0.4-0.1,0.6-0.1c0.7-0.2,0.4-1.3-0.3-1.2c-0.2,0-0.4,0.1-0.6,0.1
						c0.1,0.4,0.2,0.8,0.3,1.2c0.3-0.1,0.6-0.2,0.9-0.4c0.7-0.3,0.5-1.3-0.3-1.2c-0.9,0.2-0.8,0.2-1.5,0.8c-0.4,0.3-0.1,1.1,0.4,1
						c0.9-0.1,1-0.1,1.7-0.7c-0.3-0.2-0.6-0.5-0.9-0.7c-0.5,0.8-2.9,0.4-3.6,0.4c0.1,0.4,0.1,0.8,0.2,1.2c0.8-0.1,1.6-0.1,2.4-0.2
						c0-0.4,0-0.8,0-1.2c-0.9,0.1-1.9,0.2-2.8,0.4c-0.6,0.1-0.9,1.1-0.2,1.2c1.7,0.3,3.4,0.6,5.1,1c0.1-0.4,0.1-0.8,0.2-1.2
						c-0.9-0.1-1.8-0.1-2.7-0.2c0,0.4,0,0.8,0,1.2c0.4,0,0.8,0,1.2,0c0.6,0,0.9-1,0.2-1.2c-1.5-0.3-3-0.4-4.6-0.5
						c-0.8,0-0.8,1.2,0,1.2c0.7,0,1.4,0,2.1,0c0-0.4,0-0.8,0-1.2c-1,0-2.1,0-3.1,0c-0.8,0-0.8,1.1,0,1.2c0.5,0,0.9,0.1,1.4,0.1
						c0-0.4,0-0.8,0-1.2c-0.9,0-1.8,0-2.7,0c-0.8,0-0.8,1.2,0,1.2c0.4,0,0.7,0,1.1,0.1c0.8,0,0.8-1.1,0-1.2
						c-1.5-0.2-2.9-0.1-4.3,0.1c-0.7,0.1-0.5,1.1,0.2,1.2c1,0.1,1.8,0.1,2.8,0c0.8,0,0.8-1.2,0-1.2c-0.9,0-1.9-0.1-2.8-0.1
						c-0.7,0-0.8,1.1-0.2,1.2c0.6,0.1,1.2,0.2,1.9,0.3c0.1-0.4,0.1-0.8,0.2-1.2c-0.7,0-1.4,0.1-2.2,0.2c-0.7,0.1-0.8,1.2,0,1.2
						c0.6,0.1,1.2,0.1,1.7,0.2c0.1-0.4,0.1-0.8,0.2-1.2c-1.2,0.1-2.3,0.1-3.5,0.2c-0.8,0-0.8,1.2,0,1.2c0.8,0,1.6,0,2.3,0
						c0.7,0,0.8-1,0.2-1.2c-1.3-0.3-2.7-0.4-4-0.6c0,0.4,0,0.8,0,1.2c1,0.1,1.8,0,2.8-0.1c0.8-0.1,0.8-1.1,0-1.2
						c-1.1-0.1-2.1-0.3-3.2-0.4c-0.7-0.1-0.8,1-0.2,1.2c0.7,0.2,1.5,0.3,2.2,0.5c0.1-0.4,0.1-0.8,0.2-1.2c-0.8-0.1-1.6-0.2-2.4-0.2
						c-0.7,0-0.8,1.1-0.2,1.2c0.7,0.1,1.5,0.3,2.2,0.4c0.1-0.4,0.1-0.8,0.2-1.2c-1-0.1-2-0.2-2.9-0.2c-0.7-0.1-0.8,1-0.2,1.2
						c0.7,0.2,1.5,0.3,2.2,0.5c0.1-0.4,0.1-0.8,0.2-1.2c-1.1,0-2.2,0-3.3,0c-0.8,0-0.8,1.1,0,1.2c1,0.1,0.9,0.1,1.9-0.1
						c0.7-0.1,0.5-1.2-0.2-1.2c-0.4,0-0.8,0-1.2-0.1c0,0.4,0,0.8,0,1.2c0.6,0,1.2-0.1,1.8-0.1c0.8,0,0.8-1.1,0-1.2
						c-0.4,0-0.8-0.1-1.3-0.1c0,0.4,0,0.8,0,1.2c0.2,0,0.4,0,0.6,0C69.6,572.4,69.6,571.2,68.9,571.2L68.9,571.2z"/>
				</g>
			</g>
			<g>
				<g>
					<path d="M79.7,570.5c-0.3,0-0.6,0-0.9-0.1c0,0.4,0,0.8,0,1.2c0.4-0.1,0.8-0.2,1.3-0.2c0.7-0.1,0.5-1.3-0.2-1.2
						c-1.1,0.1-2.1,0.1-3.2,0.1c0,0.4,0,0.8,0,1.2c0.2,0,0.4,0,0.6,0c0.8,0,0.8-1.2,0-1.2c-0.2,0-0.4,0-0.6,0c-0.8,0-0.8,1.1,0,1.2
						c1.1,0.1,2.1,0.1,3.2-0.1c-0.1-0.4-0.1-0.8-0.2-1.2c-0.4,0.1-0.8,0.2-1.3,0.2c-0.6,0.1-0.5,1,0,1.2c0.4,0.1,0.8,0.2,1.2,0.2
						C80.5,571.7,80.5,570.5,79.7,570.5L79.7,570.5z"/>
				</g>
			</g>
			<g>
				<g>
					<path d="M87.8,572.1c0.3,0.1,0.7,0.1,1,0.1c-0.1-0.4-0.1-0.8-0.2-1.2c-0.3,0.1-0.7,0.2-1.1,0.2c-0.5,0.1-0.9,0.8-0.3,1.1
						c0.4,0.2,0.7,0.2,1.1,0.1c0.7-0.2,0.5-1.1-0.2-1.2c-0.5-0.1-1,0.1-1.4,0.5c-0.4,0.3-0.1,1,0.4,1c0.8,0,1.7,0,2.5,0
						c-0.1-0.4-0.1-0.8-0.2-1.2c-0.9,0.2-1.8,0.3-2.8,0.2c-0.8-0.1-0.8,1.1,0,1.2c1.1,0.1,2.1,0,3.1-0.2c0.7-0.2,0.5-1.2-0.2-1.2
						c-0.8,0-1.7,0-2.5,0c0.1,0.3,0.3,0.7,0.4,1c0.2-0.1,0.3-0.1,0.5-0.1c-0.1-0.4-0.1-0.8-0.2-1.2c-0.1,0-0.1,0-0.2,0
						c-0.1,0.4-0.2,0.7-0.3,1.1c0.5,0,0.9-0.1,1.4-0.3c0.6-0.2,0.5-1.2-0.2-1.2c-0.2,0-0.5,0-0.7-0.1
						C87.4,570.8,87.1,572,87.8,572.1L87.8,572.1z"/>
				</g>
			</g>
		</g>
		<g>
			<g>
				<path d="M61.1,569.3c0,0.1,0.1,0.1,0.1,0.2c0,0.3-0.1,0.6-0.1,0.9c0-0.1,0.1-0.1,0.1-0.2c-0.2,0.2-0.5,0.4-0.7,0.6
					c0.1-0.5,0.2-1,0.2-1.5c0.2,0.2,0.4,0.5,0.6,0.7c0,0.2-0.1,0.4-0.1,0.6c-0.3,0.1-0.6,0.2-0.8,0.4c-0.1,0-0.2-0.1-0.3-0.1
					c-0.2-0.2-0.4-0.5-0.6-0.7c0.1-0.3,0.2-0.5,0.3-0.8c0.3,0,0.6-0.1,0.9-0.1c0.3,0.2,0.3,0.1,0-0.2c-0.1-0.2-0.3-0.5-0.4-0.7
					c-0.1-0.1-0.4-0.9-0.4-0.6c0-0.2,0.5-0.9,0.7-1c0.3-0.4,0.7-0.7,1.1-1.1c1.2-1-0.5-2.7-1.7-1.7c-0.9,0.8-2.2,2.1-2.4,3.4
					c-0.1,0.7,0.2,1.3,0.5,1.9c0.3,0.6,0.6,1.3,1.1,1.8c0.8,0.8,2.1,0.7,2.6-0.4c0.4-1.1-0.5-2.3-1.7-2.1c-1.2,0.2-1.7,1.7-0.9,2.6
					c0.8,0.9,2.4,0.5,2.8-0.7c0.3-1.2-0.8-2.3-2-2.1c-1.3,0.3-1.4,1.8-0.6,2.6C60.5,572.1,62.2,570.4,61.1,569.3L61.1,569.3z"/>
			</g>
		</g>
		<g>
			<g>
				<path d="M64.4,572.4c1,0.4,2,0.4,3,0.2c0.6-0.1,1-0.9,0.8-1.5c-0.2-0.7-0.8-0.9-1.5-0.8c-0.6,0.1-1.2,0-1.7-0.2
					c-0.6-0.2-1.3,0.2-1.5,0.8C63.4,571.6,63.8,572.2,64.4,572.4L64.4,572.4z"/>
			</g>
		</g>
		<g>
			<g>
				<path d="M75.1,572.9c3.2,0.5,6.2,0,9.4-0.6c2.1-0.4,4.3-0.7,4.9-3.1c0.4-1.5-2-2.1-2.3-0.6c-0.3,1.4-3.6,1.5-4.7,1.7
					c-2.2,0.4-4.4,0.7-6.7,0.3C74.2,570.3,73.5,572.6,75.1,572.9L75.1,572.9z"/>
			</g>
		</g>
		<g>
			<g>
				<path d="M90.3,566c0.2,0,0.1,0.2,0.2,0.1c0,0,0-0.2,0-0.3c0-0.2,0-0.4-0.1-0.6c-0.2-0.3-0.6-0.5-0.9-0.4
					c-0.7,0.2-0.5,1.1,0.2,1.2c0.7,0,0.9-0.7,0.8-1.3c-0.2-0.7-1.4-0.4-1.2,0.3c0,0.2,0.2,0.1,0.4-0.2c0.1,0.4,0.1,0.8,0.2,1.2
					c-0.3-0.3-0.4-0.3-0.5-0.1c0,0.1,0,0.2,0,0.3c0,0.1,0,0.3,0,0.4c0.1,0.3,0.3,0.5,0.6,0.6C90.7,567.3,91,566.2,90.3,566L90.3,566
					z"/>
			</g>
		</g>
	</g>
	<g>
		<g>
			<g>
				<g>
					<path d="M141,570.7c-9,0.7-18,0.7-27-0.1c-0.8-0.1-0.8,1.1,0,1.2c9,0.7,18,0.8,27,0.1C141.8,571.9,141.8,570.7,141,570.7
						L141,570.7z"/>
				</g>
			</g>
			<g>
				<g>
					<path d="M114.4,570.9c-0.2-0.3-0.4-0.6-0.6-0.9c-0.4-0.6-1.5,0-1,0.6c0.2,0.3,0.4,0.6,0.6,0.9
						C113.9,572.1,114.9,571.5,114.4,570.9L114.4,570.9z"/>
				</g>
			</g>
			<g>
				<g>
					<path d="M112.7,569.7c-0.7,0.3-1.4,0.8-2,1.3c-0.6,0.5,0.3,1.4,0.8,0.8c0.5-0.5,1.1-0.8,1.8-1.1
						C114,570.4,113.4,569.4,112.7,569.7L112.7,569.7z"/>
				</g>
			</g>
			<g>
				<g>
					<path d="M110.3,571.5C110.3,571.5,110.3,571.5,110.3,571.5c0.1-0.1,0.2-0.4,0.3-0.6c0,0-0.1,0-0.1,0c0.3,0.1,0.5,0.1,0.8,0.2
						c-0.4-1-0.2-3-0.2-4c0-1.4,0-2.7,0-4.1c0-0.8-1.2-0.8-1.2,0c0,1.7,0,3.4,0,5c0,1.2-0.2,2.6,0.3,3.7c0.1,0.3,0.6,0.3,0.8,0.2
						c0,0,0.1,0,0.1,0c0.3-0.1,0.3-0.4,0.3-0.7c0,0,0-0.1,0-0.1C111.3,570.4,110.1,570.7,110.3,571.5L110.3,571.5z"/>
				</g>
			</g>
			<g>
				<g>
					<path d="M140.9,571.8c1.5,0,2.5-0.5,3-1.9c0.7-1.7,0.7-3.5,0.2-5.3c-0.2-0.7-1.4-0.4-1.2,0.3c0.3,1.1,0.4,2.2,0.2,3.4
						c-0.3,1.3-0.7,2.3-2.2,2.3C140.1,570.7,140.1,571.9,140.9,571.8L140.9,571.8z"/>
				</g>
			</g>
			<g>
				<g>
					<path d="M144.2,565.2c-0.8-2.2-2.8-3.6-5.2-3.6c-0.8,0-0.8,1.2,0,1.2c1.8,0,3.4,1.1,4,2.7C143.3,566.3,144.5,566,144.2,565.2
						L144.2,565.2z"/>
				</g>
			</g>
			<g>
				<g>
					<path d="M138.5,562.6c0.3,1.5-0.1,2.9-1,4.1c-0.5,0.6,0.6,1.2,1,0.6c1.1-1.5,1.5-3.2,1.1-5
						C139.5,561.5,138.3,561.8,138.5,562.6L138.5,562.6z"/>
				</g>
			</g>
			<g>
				<g>
					<path d="M137.8,566.4c-5.3,3.8-22.9,4-25.6-3.5c-0.3-0.7-1.4-0.4-1.2,0.3c1.5,4.1,5.7,5.4,9.8,6.1c5.5,0.9,12.8,1.6,17.6-1.9
						C139,566.9,138.4,565.9,137.8,566.4L137.8,566.4z"/>
				</g>
			</g>
			<g>
				<g>
					<path d="M112.7,567.9c-0.3,0.4-0.6,0.8-0.9,1.2c-0.3,0.4,0.2,1.1,0.7,0.9c0.2-0.1,0.4-0.1,0.5-0.2c-0.2-0.4-0.3-0.7-0.5-1.1
						c-0.3,0.2-0.6,0.4-0.9,0.5c0.3,0.2,0.6,0.5,0.9,0.7c0-0.1,0-0.2,0.1-0.3c0.1-0.4-0.3-0.9-0.7-0.7c-0.4,0.1-0.5,0.2-0.8,0.5
						c-0.4,0.4,0,1.2,0.6,1c0.3-0.1,0.4-0.1,0.6-0.3c-0.2-0.3-0.5-0.6-0.7-0.9c-0.3,0.3-0.5,0.5-0.9,0.7c0.3,0.2,0.6,0.3,0.9,0.5
						c0-1.7,0.1-3.4,0.1-5.2c-0.4,0-0.8,0-1.2,0c0,1.2,0,2.3,0.1,3.5c0,0.2,0.1,0.4,0.3,0.5c1.7,0.8,1.5-2.1,1.3-3
						c-0.1-0.6-1-0.5-1.2,0c-0.3,0.8-0.2,1.6,0.2,2.3c0.2,0.4,1,0.4,1.1-0.1c0.1-0.9,0.1-1.7-0.1-2.5c-0.4,0.2-0.7,0.3-1.1,0.5
						c0.5,0.7,1,1.3,1.6,1.9c0.5,0.5,1.3-0.1,0.9-0.7c-0.4-0.7-0.9-1.4-1.4-2c-0.2,0.3-0.5,0.6-0.7,0.9c0.3,0.1,0.6,0.3,0.8,0.6
						c0.5,0.5,1.3-0.1,0.9-0.7c-0.3-0.4-0.5-0.8-0.9-1.1c-0.6-0.5-1.3,0.3-0.8,0.8c0.2,0.2,0.4,0.4,0.6,0.7c0.5,0.5,1.2-0.1,0.9-0.7
						c-0.3-0.6-0.6-1-1.1-1.4c-0.6-0.5-1.4,0.3-0.8,0.8c0.8,0.9,1.6,1.7,2.5,2.4c0.2-0.3,0.5-0.6,0.7-0.9c-0.4-0.2-0.8-0.5-1.3-0.7
						c-0.2,0.3-0.4,0.7-0.6,1c0.8,0.5,1.7,1,2.5,1.4c0.7,0.4,1.2-0.6,0.6-1c-0.5-0.4-1.1-0.8-1.6-1.1c-0.5-0.4-1.3,0.5-0.7,0.9
						c0.4,0.3,0.7,0.6,1.1,0.9c0.2-0.3,0.5-0.6,0.7-0.9c-0.6-0.4-1.2-0.9-1.9-0.6c-0.3,0.1-0.3,0.4-0.3,0.7c0.1,0.7,0.6,1.3,0.8,1.9
						c0.3,0.6,1.1,0.3,1.1-0.3c0-0.3,0-0.4-0.1-0.7c-0.2-0.6-1.2-0.5-1.2,0.2c0,0.3,0,0.5,0,0.8c0,0.6,0.9,0.9,1.1,0.3
						c0.3-0.6,0.2-1-0.2-1.5c-0.2-0.3-0.6-0.2-0.8,0c-0.2,0.2-0.4,0.4-0.7,0.6c0.3,0.3,0.6,0.6,0.8,0.8c0.1-0.1,0.2-0.1,0.4-0.2
						c0.4-0.2,0.7-0.3,1.1-0.5c-0.1-0.2-0.2-0.4-0.3-0.6c-0.3-0.5-1.1-0.3-1.1,0.3c0,0.9,0.3,1.6,0.8,2.2c0.5,0.5,1.2-0.1,0.9-0.7
						c-0.3-0.5-0.6-1-1-1.4c-0.4-0.4-1.1,0-1,0.6c0.5,1.9,3.5,2.5,4.1,0.3c0.5-2-2.5-2.4-2.3-0.4c0.1,0.6,1,0.5,1.2,0
						c0.1-0.6,0.1-1.3-0.6-1.6c-0.5-0.2-1,0.1-1.2,0.6c-0.4,1.1,1.1,2.8,1.8,1.4c0.6-1.2-0.9-2.7-1.9-1.6c-1.1,1.2,0.6,2.4,1.7,1.5
						c0.6-0.5-0.3-1.3-0.8-0.8c0,0.1,0,0.2,0,0.3c0.2,0,0.4,0,0.6,0c-0.2,0-0.5-0.1-0.7-0.1c0.4,0,0.8,0,1.2,0
						c-0.5,0.9-0.9,1.2-1.4,0.7c-0.3-0.1-0.4-0.3-0.4-0.6c-0.3,0.2-0.7,0.4-1,0.6c0.3,0.4,0.6,0.7,0.8,1.2c0.3-0.2,0.6-0.5,0.9-0.7
						c-0.4-0.4-0.5-0.8-0.5-1.4c-0.4,0.1-0.7,0.2-1.1,0.3c0.1,0.2,0.2,0.4,0.3,0.6c0.4,0.6,1.2,0.2,1.1-0.5c-0.2-1.3-1.6-1-2.4-0.3
						c-0.6,0.5,0.3,1.3,0.8,0.8c0.2-0.2,0.4-0.4,0.7-0.6c-0.3,0-0.6,0-0.8,0c0,0,0,0,0,0c0.4,0.1,0.7,0.2,1.1,0.3c0-0.3,0-0.5,0-0.8
						c-0.4,0.1-0.8,0.1-1.2,0.2c0,0.1,0,0.2,0.1,0.4c0.4-0.1,0.7-0.2,1.1-0.3c-0.2-0.5-0.6-1.1-0.7-1.6c-0.1,0.2-0.2,0.5-0.3,0.7
						c-0.2,0.1,0.7,0.6,0.7,0.6c0.6,0.3,1.3-0.5,0.7-0.9c-0.4-0.3-0.7-0.6-1.1-0.9c-0.2,0.3-0.5,0.6-0.7,0.9
						c0.5,0.4,1.1,0.8,1.6,1.1c0.2-0.3,0.4-0.7,0.6-1c-0.8-0.5-1.7-1-2.5-1.4c-0.7-0.4-1.3,0.6-0.6,1c0.4,0.2,0.8,0.5,1.3,0.7
						c0.6,0.3,1.3-0.5,0.7-0.9c-0.9-0.7-1.7-1.5-2.5-2.4c-0.3,0.3-0.6,0.6-0.8,0.8c0.4,0.4,0.7,0.7,0.9,1.2c0.3-0.2,0.6-0.5,0.9-0.7
						c-0.2-0.2-0.4-0.4-0.6-0.7c-0.3,0.3-0.6,0.6-0.8,0.8c0.3,0.3,0.5,0.5,0.7,0.8c0.3-0.2,0.6-0.5,0.9-0.7c-0.3-0.3-0.6-0.5-1-0.7
						c-0.6-0.3-1.2,0.4-0.7,0.9c0.5,0.5,0.9,1.1,1.3,1.8c0.3-0.2,0.6-0.5,0.9-0.7c-0.5-0.5-1-1.1-1.4-1.7c-0.4-0.5-1.3-0.2-1.1,0.5
						c0.2,0.6,0.2,1.2,0.1,1.9c0.4,0,0.7-0.1,1.1-0.1c-0.2-0.5-0.3-0.9-0.1-1.4c-0.4,0-0.8,0-1.2,0c0.1,0.5-0.1,1.4,0.4,1.6
						c0.1,0.2,0.2,0.3,0.3,0.5c0-1.2,0-2.3-0.1-3.5c0-0.8-1.2-0.8-1.2,0c0,1.7-0.1,3.4-0.1,5.2c0,0.5,0.5,0.7,0.9,0.5
						c0.4-0.2,0.8-0.5,1.1-0.9c0.4-0.5-0.1-1.4-0.7-0.9c-0.1,0.1-0.2,0.1-0.3,0.2c0.2,0.3,0.4,0.7,0.6,1c0.1-0.1,0.2-0.1,0.3-0.2
						c-0.2-0.2-0.5-0.5-0.7-0.7c0,0.1,0,0.2-0.1,0.3c-0.1,0.5,0.4,0.9,0.9,0.7c0.4-0.2,0.6-0.3,0.9-0.5c0.5-0.4,0.2-1.4-0.5-1.1
						c-0.2,0.1-0.4,0.1-0.5,0.2c0.2,0.3,0.5,0.6,0.7,0.9c0.3-0.4,0.6-0.8,0.9-1.2C114.2,567.9,113.1,567.3,112.7,567.9L112.7,567.9z
						"/>
				</g>
			</g>
			<g>
				<g>
					<path d="M112.9,570.1c0.2,0,0.5,0,0.7,0c0.8,0,0.8-1.2,0-1.2c-0.2,0-0.5,0-0.7,0C112.1,568.9,112.1,570.1,112.9,570.1
						L112.9,570.1z"/>
				</g>
			</g>
			<g>
				<g>
					<path d="M142.3,570.6c0.8-0.6,0.3-1.7-0.6-1.6c0.2,0.3,0.4,0.5,0.6,0.8c0-0.2,0.1-0.4,0.1-0.6c0.1-0.5-0.4-0.9-0.9-0.7
						c-0.3,0.2-0.4,0.3-0.6,0.7c-0.1,0.4,0.2,0.8,0.6,0.8c0.8-0.1,2.1-0.9,1.1-1.8c-0.6-0.6-1.5-0.1-1.5,0.7c0,0.2,0.1,0.4,0.3,0.5
						c1.4,0.7,2.1-1.4,0.9-2.1c-0.2-0.1-0.5-0.1-0.7,0.1c-0.6,0.5-0.5,1.4-0.3,2.2c0.1,0.3,0.3,0.4,0.6,0.4c1,0.1,1.3-0.8,1-1.7
						c-0.2-0.6-1-0.6-1.2,0c-0.2,0.6-0.2,0.7,0.1,1.3c0.2,0.4,1,0.4,1.1-0.1c0.1-0.9,0.1-1.4-0.4-2.2c-0.2-0.4-0.8-0.4-1,0
						c-1.2,2,2.7,2.2,1.7-0.2c-1-2.3-3.5,0.6-1.4,1.1c0.2,0,0.4,0,0.6-0.2c1.9-2.1-2.2-3-1.8-0.9c0.1,0.7,0.8,1,1.4,0.5
						c0.9-0.7,0.1-1.9-0.6-2.3c-0.3-0.2-0.8,0-0.9,0.4c-0.3,0.9,0.3,2.2,1.4,1.5c0.8-0.5,0.4-1.8-0.5-1.8c-0.9,0-1.3,1.2-0.6,1.8
						c1.1,0.9,2-0.5,1.7-1.5c-0.2-0.6-1.2-0.5-1.2,0.2c0,0.4,0.1,0.6,0.4,0.9c0.3,0.2,0.8,0.2,0.9-0.1c0.6-1.2-0.5-2-1.5-2.6
						c-0.4-0.2-1,0.1-0.9,0.5c0.1,0.9,0.3,1.7,0.7,2.5c0.3,0.6,1.3,0.2,1.1-0.5c-0.3-1-0.8-2-1.3-2.9c-0.2-0.4-1-0.4-1.1,0.1
						c-0.3,1.2-0.6,2.3-1.1,3.3c-0.3,0.7,0.7,1.3,1,0.6c0.2-0.6,0.5-1,1-1.4c-0.3-0.2-0.6-0.5-0.9-0.7c-0.4,0.6-0.8,1.1-1.2,1.7
						c-0.5,0.6,0.6,1.2,1,0.6c1-1.4,1.3-3,0.9-4.7c-0.4,0.2-0.7,0.3-1.1,0.5c0.6,1.3,1.6,3.8-0.6,4.3c0.2,0.3,0.4,0.7,0.6,1
						c0.6-0.5,1.2-0.9,2-1.2c0.7-0.3,0.4-1.4-0.3-1.2c-0.9,0.2-1.7,0.6-2.6,1.1c-0.5,0.3-0.3,1.1,0.3,1.1c0.8,0,1.5-0.1,2.3-0.4
						c-0.2-0.4-0.3-0.7-0.5-1.1c-0.4,0.2-0.8,0.5-1.1,0.7c-0.4,0.2-0.4,1,0.1,1.1c0.7,0.1,1.2,0.1,1.9-0.3c0.5-0.2,0.3-1-0.1-1.1
						c-0.8-0.2-1.3-0.2-2.1,0.1c-0.7,0.3-0.4,1.3,0.3,1.2c0.7-0.1,1.2-0.4,1.8-0.8c0.5-0.4,0.2-1.4-0.5-1.1c-0.8,0.3-1.6,0.6-2.4,1
						c-0.6,0.2-0.6,1.2,0.2,1.2c0.7,0,1.1-0.2,1.6-0.7c0.5-0.4,0-1.1-0.6-1c-0.7,0.2-1.3,0.4-1.9,0.7c0.2,0.3,0.5,0.6,0.7,0.9
						c0.4-0.3,0.7-0.6,1.1-0.9c-0.3-0.3-0.6-0.6-0.8-0.8c-0.4,0.4-0.8,0.7-1.3,0.9c0.2,0.3,0.5,0.6,0.7,0.9c0.3-0.3,0.7-0.6,1-0.9
						c0.5-0.5-0.1-1.3-0.7-0.9c-0.6,0.3-1.2,0.6-1.8,0.9c0.2,0.4,0.3,0.7,0.5,1.1c0.7-0.4,1.3-0.7,2-1.1c0.6-0.3,0.2-1.3-0.5-1.1
						c-0.8,0.3-1.6,0.6-2.4,0.9c-0.7,0.3-0.4,1.4,0.3,1.2c0.8-0.2,1.5-0.4,2.3-0.6c-0.2-0.3-0.4-0.7-0.6-1c-0.8,0.7-1.4,1-2.4,1.3
						c-0.7,0.2-0.4,1.4,0.3,1.2c0.7-0.2,1.3-0.4,2-0.7c0.7-0.3,0.5-1.3-0.3-1.2c-1.1,0.3-2.2,0.5-3.3,0.8c0.1,0.4,0.2,0.8,0.3,1.2
						c0.7-0.3,1.5-0.5,2.2-0.8c0.7-0.2,0.4-1.3-0.3-1.2c-1,0.2-2.1,0.5-3.1,0.8c-0.7,0.2-0.4,1.3,0.3,1.2c0.8-0.2,1.5-0.4,2.3-0.7
						c0.7-0.3,0.4-1.3-0.3-1.2c-1,0.2-1.9,0.5-2.8,0.8c-0.6,0.2-0.5,1.1,0.2,1.2c1.3,0.1,2.5,0.1,3.8,0c-0.1-0.4-0.1-0.8-0.2-1.2
						c-0.5,0.2-1,0.3-1.5,0.1c0.1,0.4,0.1,0.8,0.2,1.2c1.3-0.3,2.6-0.5,3.8-0.8c0.7-0.1,0.5-1.2-0.2-1.2c-1.1,0-2,0.2-3,0.5
						c-0.6,0.2-0.5,1.3,0.2,1.2c1.2-0.1,2.3-0.4,3.4-0.7c0.7-0.2,0.4-1.3-0.3-1.2c-0.8,0.2-1.7,0.5-2.5,0.7c-0.5,0.2-0.6,1,0,1.2
						c1.1,0.2,2.1,0.3,3.2,0.2c0.7-0.1,0.8-1.2,0-1.2c-0.7,0-1.1,0.1-1.7,0.4c-0.6,0.3-0.3,1.1,0.3,1.1c0.3,0,2.4-0.2,2.5-0.1
						c0.1-0.3,0.2-0.6,0.4-0.9c-1.1,0.2-2.2,0.3-3.3,0.5c0.1,0.4,0.2,0.8,0.3,1.2c0.2,0,0.4,0,0.5,0c0.1-0.4,0.1-0.8,0.2-1.2
						c-1.2,0-2.4,0-3.6,0.1c-0.8,0-0.8,1.2,0,1.2c1.2,0,2.4,0,3.6-0.1c0.7,0,0.8-1.1,0.2-1.2c-0.5-0.1-0.7-0.1-1.2,0
						c-0.8,0.2-0.4,1.3,0.3,1.2c1.1-0.2,2.2-0.3,3.3-0.5c0.4-0.1,0.5-0.6,0.4-0.9c-0.6-1.1-2.5-0.6-3.5-0.5c0.1,0.4,0.2,0.7,0.3,1.1
						c0.4-0.1,0.7-0.1,1.1-0.2c0-0.4,0-0.8,0-1.2c-1,0.1-1.9,0.1-2.9-0.1c0,0.4,0,0.8,0,1.2c0.8-0.3,1.6-0.5,2.5-0.7
						c-0.1-0.4-0.2-0.8-0.3-1.2c-1,0.3-2,0.6-3.1,0.7c0.1,0.4,0.1,0.8,0.2,1.2c0.9-0.3,1.8-0.4,2.7-0.4c-0.1-0.4-0.1-0.8-0.2-1.2
						c-1.3,0.3-2.6,0.5-3.8,0.8c-0.7,0.1-0.5,1.1,0.2,1.2c0.7,0.1,1.2,0,1.8-0.2c0.6-0.2,0.6-1.2-0.2-1.2c-1.3,0.1-2.5,0.1-3.8,0
						c0.1,0.4,0.1,0.8,0.2,1.2c0.9-0.4,1.8-0.6,2.8-0.8c-0.1-0.4-0.2-0.8-0.3-1.2c-0.8,0.3-1.5,0.5-2.3,0.7c0.1,0.4,0.2,0.8,0.3,1.2
						c1-0.3,2-0.5,3.1-0.8c-0.1-0.4-0.2-0.8-0.3-1.2c-0.7,0.3-1.5,0.5-2.2,0.8c-0.7,0.2-0.4,1.3,0.3,1.2c1.1-0.3,2.2-0.5,3.3-0.8
						c-0.1-0.4-0.2-0.8-0.3-1.2c-0.7,0.3-1.3,0.5-2,0.7c0.1,0.4,0.2,0.8,0.3,1.2c1.1-0.4,2-0.9,2.9-1.6c0.5-0.4,0-1.1-0.6-1
						c-0.8,0.2-1.5,0.4-2.3,0.6c0.1,0.4,0.2,0.8,0.3,1.2c0.8-0.3,1.6-0.6,2.4-0.9c-0.2-0.4-0.3-0.7-0.5-1.1c-0.7,0.4-1.3,0.7-2,1.1
						c-0.6,0.3-0.2,1.4,0.5,1.1c0.7-0.3,1.4-0.6,2.1-1c-0.2-0.3-0.5-0.6-0.7-0.9c-0.3,0.3-0.7,0.6-1,0.9c-0.5,0.5,0.1,1.3,0.7,0.9
						c0.6-0.3,1-0.7,1.5-1.1c0.6-0.5-0.3-1.4-0.8-0.8c-0.4,0.3-0.7,0.6-1.1,0.9c-0.6,0.5,0.2,1.2,0.7,0.9c0.5-0.3,1.1-0.4,1.7-0.6
						c-0.2-0.3-0.4-0.7-0.6-1c-0.3,0.1-0.5,0.2-0.8,0.3c0.1,0.4,0.1,0.8,0.2,1.2c0.8-0.3,1.6-0.6,2.4-1c-0.2-0.4-0.3-0.7-0.5-1.1
						c-0.5,0.4-1,0.6-1.5,0.6c0.1,0.4,0.2,0.8,0.3,1.2c0.5,0,0.9,0,1.4-0.1c0-0.4-0.1-0.7-0.1-1.1c-0.3,0.1-0.6,0.1-1,0.2
						c0,0.4,0.1,0.7,0.1,1.1c0.4-0.2,0.8-0.5,1.1-0.7c0.6-0.4,0.2-1.3-0.5-1.1c-0.6,0.2-1.3,0.3-2,0.3c0.1,0.4,0.2,0.7,0.3,1.1
						c0.7-0.4,1.5-0.7,2.3-1c-0.1-0.4-0.2-0.8-0.3-1.2c-0.9,0.4-1.7,0.8-2.5,1.5c-0.5,0.4,0,1.1,0.6,1c3-0.7,2.3-4,1.4-6.1
						c-0.3-0.6-1.2-0.2-1.1,0.5c0.3,1.4,0,2.6-0.8,3.8c0.3,0.2,0.7,0.4,1,0.6c0.4-0.6,0.8-1.1,1.2-1.7c0.4-0.6-0.5-1.2-0.9-0.7
						c-0.5,0.5-0.8,1-1.2,1.7c0.3,0.2,0.7,0.4,1,0.6c0.5-1.2,0.9-2.4,1.2-3.6c-0.4,0-0.7,0.1-1.1,0.1c0.5,0.8,0.9,1.7,1.2,2.6
						c0.4-0.2,0.7-0.3,1.1-0.5c-0.3-0.6-0.5-1.2-0.5-1.9c-0.3,0.2-0.6,0.3-0.9,0.5c0.5,0.2,0.8,0.5,1.1,1c0.3,0,0.6-0.1,0.9-0.1
						c0,0,0,0,0,0c-0.4,0.1-0.8,0.1-1.2,0.2c0.1,0,0.3,0,0.4,0c-0.3,0.1-0.6,0.2-0.9,0.4c0.6,0.5,1.2,1.1,1.9,1.6c-0.3,0-0.7,0-1,0
						c0.1,0.4,0.2,0.8,0.2,1.3c0.4,0,0.7-0.1,1.1-0.1c0-0.1,0-0.2,0-0.3c-0.4,0-0.8,0-1.2,0c0.1,0,0.1,0.1,0.2,0.1
						c0.2,0.1,0.4,0.3,0.6,0.4c0-0.3,0-0.7,0-1c-0.2,0-0.5,0.1-0.7,0.1c-0.1,0.1-0.2,0.3-0.2,0.4c0.2,0.3,0.4,0.5,0.6,0.8
						c0,0,0,0,0,0.1c-0.3-0.2-0.6-0.5-0.9-0.7c0,0.2-0.1,0.4-0.1,0.6c-0.1,0.4,0.2,0.8,0.6,0.8c-0.1-0.1-0.1-0.3-0.2-0.4
						C140.9,570.2,141.7,571.1,142.3,570.6L142.3,570.6z"/>
				</g>
			</g>
			<g>
				<g>
					<path d="M132.3,571.3c0.2,0,0.4,0,0.6,0c0-0.4,0-0.8,0-1.2c-0.4,0-0.8,0.1-1.3,0.1c-0.8,0.1-0.8,1.2,0,1.2
						c0.6,0,1.2,0.1,1.8,0.1c0-0.4,0-0.8,0-1.2c-0.4,0-0.8,0-1.2,0.1c-0.7,0-0.8,1.1-0.2,1.2c1,0.2,0.9,0.2,1.9,0.1
						c0.8-0.1,0.8-1.2,0-1.2c-1.1-0.1-2.2-0.1-3.3,0c0.1,0.4,0.1,0.8,0.2,1.2c0.7-0.2,1.5-0.3,2.2-0.5c0.7-0.1,0.5-1.2-0.2-1.2
						c-1,0.1-2,0.2-2.9,0.2c0.1,0.4,0.1,0.8,0.2,1.2c0.7-0.1,1.5-0.3,2.2-0.4c0.7-0.1,0.5-1.2-0.2-1.2c-0.8,0-1.6,0-2.4,0.2
						c0.1,0.4,0.1,0.8,0.2,1.2c0.7-0.2,1.5-0.3,2.2-0.5c0.7-0.1,0.5-1.3-0.2-1.2c-1.1,0.1-2.1,0.3-3.2,0.4c-0.8,0.1-0.8,1.1,0,1.2
						c1,0.1,1.8,0.2,2.8,0.1c0-0.4,0-0.8,0-1.2c-1.4,0.1-2.7,0.3-4,0.6c-0.7,0.1-0.5,1.2,0.2,1.2c0.8,0,1.6,0,2.3,0
						c0.8,0,0.8-1.2,0-1.2c-1.2-0.1-2.3-0.1-3.5-0.2c0.1,0.4,0.1,0.8,0.2,1.2c0.6-0.1,1.2-0.1,1.7-0.2c0.8,0,0.7-1.1,0-1.2
						c-0.7-0.1-1.4-0.2-2.2-0.2c0.1,0.4,0.1,0.8,0.2,1.2c0.6-0.1,1.2-0.2,1.9-0.3c0.7-0.1,0.5-1.2-0.2-1.2c-0.9,0-1.9,0.1-2.8,0.1
						c-0.8,0-0.8,1.1,0,1.2c1,0.1,1.8,0.1,2.8,0c0.6,0,0.9-1.1,0.2-1.2c-1.5-0.2-2.9-0.2-4.3-0.1c-0.7,0.1-0.8,1.2,0,1.2
						c0.4,0,0.7,0,1.1-0.1c0.8,0,0.8-1.2,0-1.2c-0.9,0-1.8,0.1-2.7,0c0,0.4,0,0.8,0,1.2c0.5,0,0.9-0.1,1.4-0.1
						c0.8-0.1,0.8-1.2,0-1.2c-1,0-2.1,0-3.1,0c0,0.4,0,0.8,0,1.2c0.7,0,1.4,0,2.1,0c0.8,0,0.8-1.2,0-1.2c-1.6,0-3.1,0.2-4.6,0.5
						c-0.7,0.1-0.5,1.2,0.2,1.2c0.4,0,0.8,0,1.2,0c0-0.4,0-0.8,0-1.2c-0.9,0.1-1.8,0.1-2.7,0.2c0.1,0.4,0.1,0.8,0.2,1.2
						c1.7-0.4,3.4-0.7,5.1-1c0.7-0.1,0.4-1.1-0.2-1.2c-0.9-0.1-1.9-0.2-2.8-0.4c0,0.4,0,0.8,0,1.2c0.8,0.1,1.6,0.1,2.4,0.2
						c0.1-0.4,0.1-0.8,0.2-1.2c-0.7,0-3.1,0.3-3.6-0.4c-0.3,0.2-0.6,0.5-0.9,0.7c0.7,0.6,0.8,0.6,1.7,0.7c0.5,0.1,0.8-0.7,0.4-1
						c-0.7-0.6-0.6-0.6-1.5-0.8c-0.8-0.2-1,0.9-0.3,1.2c0.3,0.1,0.6,0.2,0.9,0.4c0.1-0.4,0.2-0.8,0.3-1.2c-0.2,0-0.4-0.1-0.6-0.1
						c-0.7-0.2-1.1,1-0.3,1.2c0.2,0,0.4,0.1,0.6,0.1c0.8,0.2,1-0.9,0.3-1.2c-0.3-0.1-0.6-0.2-0.9-0.4c-0.1,0.4-0.2,0.8-0.3,1.2
						c0.3,0.1,0.6,0.3,0.9,0.4c0.1-0.3,0.3-0.7,0.4-1c-0.3-0.1-0.6-0.3-0.9-0.4c-0.5-0.4-1.4,0.1-0.9,0.7c1.1,1.5,3,1,4.7,1
						c0.7,0,0.8-1.1,0.2-1.2c-1.5-0.3-1.1-0.3-2.7-0.2c-0.8,0-0.7,1.1,0,1.2c0.9,0.1,1.9,0.2,2.8,0.4c-0.1-0.4-0.1-0.8-0.2-1.2
						c-1.7,0.3-3.4,0.6-5.1,1c-0.6,0.2-0.5,1.2,0.2,1.2c0.9-0.1,1.8-0.1,2.7-0.2c0.8,0,0.8-1.2,0-1.2c-0.4,0-0.8,0-1.2,0
						c0.1,0.4,0.1,0.8,0.2,1.2c1.5-0.3,2.8-0.4,4.3-0.4c0-0.4,0-0.8,0-1.2c-0.7,0-1.4,0-2.1,0c-0.8,0-0.8,1.2,0,1.2c1,0,2.1,0,3.1,0
						c0-0.4,0-0.8,0-1.2c-0.5,0-0.9,0.1-1.4,0.1c-0.8,0.1-0.8,1.2,0,1.2c0.9,0,1.8,0,2.7,0c0-0.4,0-0.8,0-1.2c-0.4,0-0.7,0-1.1,0.1
						c0,0.4,0,0.8,0,1.2c1.4-0.2,2.6-0.2,4,0c0.1-0.4,0.1-0.8,0.2-1.2c-1,0.1-1.8,0.1-2.8,0c0,0.4,0,0.8,0,1.2
						c0.9,0,1.9-0.1,2.8-0.1c-0.1-0.4-0.1-0.8-0.2-1.2c-0.6,0.1-1.2,0.2-1.9,0.3c-0.7,0.1-0.5,1.2,0.2,1.2c0.7,0,1.4,0.1,2.2,0.2
						c0-0.4,0-0.8,0-1.2c-1.1,0-1,0-2.1,0.2c-0.7,0.1-0.5,1.1,0.2,1.2c1.2,0.1,2.3,0.1,3.5,0.2c0-0.4,0-0.8,0-1.2
						c-0.8,0-1.6,0-2.3,0c0.1,0.4,0.1,0.8,0.2,1.2c1.2-0.3,2.5-0.4,3.7-0.5c0.8-0.1,0.8-1.2,0-1.2c-1,0.1-1.8,0-2.8-0.1
						c0,0.4,0,0.8,0,1.2c1.1-0.1,2.1-0.3,3.2-0.4c-0.1-0.4-0.1-0.8-0.2-1.2c-0.7,0.2-1.5,0.3-2.2,0.5c-0.7,0.1-0.5,1.2,0.2,1.2
						c0.8-0.1,1.6-0.2,2.4-0.2c-0.1-0.4-0.1-0.8-0.2-1.2c-0.7,0.1-1.5,0.3-2.2,0.4c-0.7,0.1-0.5,1.2,0.2,1.2c1-0.1,2-0.2,2.9-0.2
						c-0.1-0.4-0.1-0.8-0.2-1.2c-0.7,0.2-1.5,0.3-2.2,0.5c-0.7,0.1-0.5,1.2,0.2,1.2c1.1,0,2.2,0,3.3,0c0-0.4,0-0.8,0-1.2
						c-0.5,0-1,0-1.6,0c-0.1,0.4-0.1,0.8-0.2,1.2c0.7,0,0.8,0,1.5-0.1c0.6-0.1,0.6-1.1,0-1.2c-1.1-0.2-1-0.2-2.1-0.2
						c0,0.4,0,0.8,0,1.2c0.4,0,0.8-0.1,1.3-0.1c0.8-0.1,0.8-1.2,0-1.2c-0.2,0-0.4,0-0.6,0C131.5,570.1,131.5,571.3,132.3,571.3
						L132.3,571.3z"/>
				</g>
			</g>
			<g>
				<g>
					<path d="M121.4,570.7c0.4,0,0.8,0,1.2-0.2c0.5-0.2,0.6-1,0-1.2c-0.4-0.1-0.8-0.2-1.3-0.2c-0.1,0.4-0.1,0.8-0.2,1.2
						c1.1,0.1,2.1,0.1,3.2,0.1c0.8-0.1,0.8-1.2,0-1.2c-0.2,0-0.4,0-0.6,0c-0.8,0-0.8,1.2,0,1.2c0.2,0,0.4,0,0.6,0c0-0.4,0-0.8,0-1.2
						c-1.1,0.1-2.1,0.1-3.2-0.1c-0.7-0.1-0.8,1.1-0.2,1.2c0.4,0.1,0.8,0.2,1.3,0.2c0-0.4,0-0.8,0-1.2c-0.3,0.1-0.6,0.2-0.9,0.1
						C120.6,569.4,120.6,570.6,121.4,570.7L121.4,570.7z"/>
				</g>
			</g>
			<g>
				<g>
					<path d="M113,569.9c-0.2,0.1-0.4,0.1-0.7,0.1c-0.7,0-0.8,1-0.2,1.2c0.5,0.2,0.9,0.2,1.4,0.3c-0.1-0.4-0.2-0.7-0.3-1.1
						c-0.1,0-0.1,0-0.2,0c-0.1,0.4-0.1,0.8-0.2,1.2c0.2,0,0.4,0,0.5,0.1c0.1-0.3,0.3-0.7,0.4-1c-0.8,0-1.7,0-2.5,0
						c-0.7,0-0.8,1-0.2,1.2c1,0.3,2.1,0.4,3.1,0.2c0.8-0.1,0.8-1.3,0-1.2c-1,0.1-1.9,0.1-2.8-0.2c-0.1,0.4-0.1,0.8-0.2,1.2
						c0.8,0,1.7,0,2.5,0c0.5,0,0.9-0.7,0.4-1c-0.4-0.3-0.8-0.5-1.4-0.5c-0.7,0.1-0.8,1-0.2,1.2c0.4,0.1,0.7,0.1,1.1-0.1
						c0.6-0.3,0.2-1.1-0.3-1.1c-0.4,0-0.7-0.1-1.1-0.2c-0.1,0.4-0.1,0.8-0.2,1.2c0.3,0,0.7,0,1-0.1
						C114.1,570.9,113.8,569.7,113,569.9L113,569.9z"/>
				</g>
			</g>
		</g>
		<g>
			<g>
				<path d="M141.7,569.9c0.8-0.8,0.7-2.3-0.6-2.6c-1.2-0.2-2.3,0.9-2,2.1c0.3,1.1,1.8,1.5,2.6,0.8c1-0.8,0.5-2.5-0.8-2.7
					c-1.1-0.2-2,0.8-1.7,1.9c0.4,1.2,1.8,1.4,2.6,0.5c0.5-0.5,0.8-1.2,1.1-1.8c0.3-0.6,0.6-1.2,0.5-1.9c-0.2-1.3-1.5-2.5-2.4-3.4
					c-1.2-1-2.9,0.7-1.7,1.7c0.4,0.3,1.8,1.4,1.7,2.1c0-0.2-0.4,0.6-0.4,0.6c-0.1,0.2-0.3,0.5-0.4,0.7c-0.3,0.4-0.3,0.4,0,0.2
					c0.3,0,0.6,0.1,0.9,0.1c0.1,0.3,0.2,0.5,0.3,0.8c-0.2,0.2-0.4,0.5-0.6,0.7c-0.1,0-0.2,0.1-0.3,0.1c-0.3-0.1-0.6-0.2-0.8-0.4
					c0-0.2-0.1-0.4-0.1-0.6c0.2-0.2,0.4-0.5,0.6-0.7c0.1,0.5,0.2,1,0.2,1.5c-0.2-0.2-0.5-0.4-0.7-0.6c0,0.1,0.1,0.1,0.1,0.2
					c0-0.3-0.1-0.6-0.1-0.9c0-0.1,0.1-0.1,0.1-0.2C139,569.3,140.7,571,141.7,569.9L141.7,569.9z"/>
			</g>
		</g>
		<g>
			<g>
				<path d="M136.1,569c-0.6,0.2-1.1,0.3-1.7,0.2c-0.6-0.1-1.3,0.2-1.5,0.8c-0.2,0.6,0.2,1.4,0.8,1.5c1,0.2,2,0.1,3-0.2
					c0.6-0.2,1-0.8,0.8-1.5C137.4,569.3,136.7,568.8,136.1,569L136.1,569z"/>
			</g>
		</g>
		<g>
			<g>
				<path d="M125.5,569.5c-2.2,0.3-4.4,0.1-6.7-0.3c-1.1-0.2-4.3-0.4-4.7-1.7c-0.4-1.5-2.7-0.9-2.3,0.6c0.6,2.4,2.8,2.7,4.9,3.1
					c3.2,0.6,6.2,1.1,9.4,0.6C127.6,571.6,127,569.3,125.5,569.5L125.5,569.5z"/>
			</g>
		</g>
		<g>
			<g>
				<path d="M111.2,566.1c0.3-0.1,0.5-0.3,0.6-0.6c0-0.1,0-0.3,0-0.4c0-0.1,0-0.2,0-0.3c0-0.2-0.2-0.2-0.5,0.1
					c0.1-0.4,0.1-0.8,0.2-1.2c0.2,0.3,0.3,0.4,0.4,0.2c0.2-0.7-0.9-1.1-1.2-0.3c-0.2,0.6,0,1.4,0.8,1.3c0.7,0,0.8-1,0.2-1.2
					c-0.4-0.1-0.7,0-0.9,0.4c-0.1,0.2-0.1,0.3-0.1,0.5c0,0.1,0,0.2,0,0.2c0.1,0.3-0.1,0.1,0.3,0
					C110.1,565.1,110.4,566.3,111.2,566.1L111.2,566.1z"/>
			</g>
		</g>
	</g>
</g>
</svg>
