<?xml version="1.0" encoding="utf-8"?>
<!-- Generator: Adobe Illustrator 21.0.2, SVG Export Plug-In . SVG Version: 6.00 Build 0)  -->
<svg version="1.1" id="Layer_1" xmlns="http://www.w3.org/2000/svg" xmlns:xlink="http://www.w3.org/1999/xlink" x="0px" y="0px"
	 viewBox="0 0 200 600" style="enable-background:new 0 0 200 600;" xml:space="preserve">
<style type="text/css">
	.st0{fill:#FF5458;}
	.st1{fill:#FF4358;}
</style>
<g>
	<g>
		<g id="XMLID_2_">
			<g>
				<path class="st0" d="M126,244.2c8.4,14.7,12.9,31.6,12.7,48.5l-0.4,0.1c1.4,19.2,1.1,38.6-0.9,57.7v0.1
					c-25.2,1.8-50.6,3.7-75.8,0.7l0.1-0.8c-2-19.2-2.3-38.5-0.9-57.7l-0.4-0.1c-0.2-16.9,4.3-33.9,12.7-48.5
					c1.9-3.3,4.1-6.9,3.7-10.7l0-0.4c-1.4-21.1-3.6-42.1-6.3-63l0.3-0.1c-0.1-0.3-0.1-0.5-0.2-0.8l0.2-0.3c-0.2-0.2-0.5-0.4-0.7-0.5
					c-4-3.3-6.7-8.2-7.4-13.3l-0.3,0c0.2-4,0.6-8.1,1.3-12c0.3-1.4,0.5-2.8,1.1-4c1-2.2,2.9-3.9,5.1-5.2c2.1-1.2,4.5-1.9,6.9-2.6
					l0.1-0.3c0.4-8.1,0.4-16.1,0-24.2l0-0.3c0.9,0.1,1.8,0.2,2.6,0.2l2.2,0.1c0.3,7.8,0.4,15.7,0.2,23.5H82c0,0.4,0.6,0.6,1,0.7
					c11.4,1.9,23-1.1,34.5-0.4l2.6-0.2c-0.2-7.9-0.1-15.8,0.2-23.7l0-0.7c1.5,0.1,3,0.2,4.6,0.3l0.2,0.4c-0.5,8-0.5,16.1,0,24.2
					l0.1,0.3c2.4,0.7,4.7,1.4,6.9,2.6c2.1,1.2,4,2.9,5.1,5.2c0.6,1.3,0.9,2.7,1.1,4c0.7,4,1.1,8,1.3,12l-0.3,0
					c-0.6,5.2-3.3,10.1-7.4,13.3c-0.8,0.7-1.8,1.3-2.7,1.7c-0.2,0.1-0.4,0.2-0.6,0.3c-2.8,20.8-4.9,41.7-6.3,62.6l0,0.4
					C121.8,237.3,124.1,240.8,126,244.2z"/>
			</g>
			<g>
			</g>
		</g>
	</g>
	<g>
		<g>
			<g>
				<path class="st1" d="M70.6,169.8c5.2,2.1,10.8,2.3,15.8-0.3c4.9-2.6,7.2-7.2,9-12.1c0.3-0.7-0.9-1-1.2-0.3
					c-3.8,10.4-12.3,16.1-23.4,11.6C70.2,168.4,69.8,169.5,70.6,169.8L70.6,169.8z"/>
			</g>
		</g>
		<g>
			<g>
				<path d="M77.2,131.2c1.5-8.2-0.5-16.4-0.5-24.6c0-0.8-1.2-0.8-1.2,0c-0.1,8.1,1.9,16.2,0.5,24.3C75.9,131.6,77.1,132,77.2,131.2
					L77.2,131.2z"/>
			</g>
		</g>
		<g>
			<g>
				<path d="M82.6,130.5c-0.3-7.8-0.6-15.7-0.9-23.5c0-0.8-1.2-0.8-1.2,0c0.3,7.8,0.6,15.7,0.9,23.5
					C81.4,131.3,82.6,131.3,82.6,130.5L82.6,130.5z"/>
			</g>
		</g>
		<g>
			<g>
				<path d="M76.5,106.9c0.4-0.4,1.7-0.2,2.1-0.2c0.7,0,1.4-0.1,2.1-0.1c0.8,0,0.8-1.2,0-1.2c-1.1,0-2.1,0.1-3.2,0.1
					c-0.7,0-1.4,0-1.9,0.5C75.1,106.6,76,107.4,76.5,106.9L76.5,106.9z"/>
			</g>
		</g>
		<g>
			<g>
				<path d="M63.3,155.7c-0.2-4.6-0.7-10.3,0.6-14.8c1.5-4.8,7.4-7.9,12.1-8.8c0.8-0.1,0.4-1.3-0.3-1.2c-4.1,0.8-9.8,3.3-12,7.1
					c-2.8,4.7-1.9,12.5-1.6,17.6C62.2,156.5,63.4,156.5,63.3,155.7L63.3,155.7z"/>
			</g>
		</g>
		<g>
			<g>
				<path d="M62.1,155.2c1.3,5.8,4.5,10.8,9.3,14.3c0.6,0.5,1.2-0.6,0.6-1c-4.5-3.3-7.5-8.1-8.8-13.6
					C63.1,154.1,61.9,154.4,62.1,155.2L62.1,155.2z"/>
			</g>
		</g>
		<g>
			<g>
				<path d="M70.1,169.6c2.4,10.6,3.1,21.8,4.2,32.6c1.2,11,2.4,22,2.3,33.1c0,0.8,1.2,0.8,1.2,0c0.1-11.7-1.2-23.4-2.5-35
					c-1.1-10.3-1.8-20.9-4.1-31C71.1,168.5,69.9,168.9,70.1,169.6L70.1,169.6z"/>
			</g>
		</g>
		<g>
			<g>
				<path d="M76.5,235.5c-0.1,3.5-2.7,7.2-4.2,10.2c-1.3,2.6-2.7,5.2-4,7.7c-2.2,4.3-4.2,8.5-5.3,13.2c-2.4,9.8-2.8,20.1-3.7,30.1
					c-0.1,0.8,1.1,0.8,1.2,0c1.1-11,1.2-22.6,4.6-33.2c1.7-5.4,4.8-10.4,7.4-15.5c2-3.8,5.2-8.1,5.3-12.5
					C77.7,234.7,76.5,234.7,76.5,235.5L76.5,235.5z"/>
			</g>
		</g>
		<g>
			<g>
				<path class="st1" d="M130.7,167.9c-10.6,4-19.3-0.7-23.4-10.9c-0.3-0.7-1.4-0.4-1.2,0.3c2,5,4.5,9.4,9.6,11.7
					c4.9,2.2,10.3,1.9,15.2,0C131.8,168.8,131.4,167.6,130.7,167.9L130.7,167.9z"/>
			</g>
		</g>
	</g>
	<g>
		<g>
			<path d="M59.3,296.2c0.1,10.2,0.1,20.3,0.3,30.5c0.2,7.9,0.4,16.2,2.1,24c0.2,0.8,1.3,0.4,1.2-0.3c-1.8-8-2-17-2.1-25.3
				c-0.1-9.6-0.2-19.2-0.3-28.9C60.5,295.4,59.3,295.4,59.3,296.2L59.3,296.2z"/>
		</g>
	</g>
	<g>
		<g>
			<path d="M61.8,352.4c24.9,2.1,50.8,2.2,75.6-1.2c0.8-0.1,0.4-1.3-0.3-1.2c-24.7,3.4-50.5,3.3-75.3,1.2
				C61.1,351.1,61.1,352.3,61.8,352.4L61.8,352.4z"/>
		</g>
	</g>
	<g>
		<g>
			<path d="M120.6,130c-0.3-8-0.2-15.9,0.3-23.8c0-0.8-1.2-0.8-1.2,0c-0.5,7.9-0.6,15.9-0.3,23.8C119.5,130.8,120.7,130.8,120.6,130
				L120.6,130z"/>
		</g>
	</g>
	<g>
		<g>
			<path d="M121.1,106.7c0.2-0.4,1.6-0.1,1.9,0c0.7,0.1,1.3,0.1,2,0.2c0.8,0.1,0.8-1.1,0-1.2c-1.1-0.1-2.2-0.2-3.3-0.3
				c-0.6,0-1.3,0.1-1.6,0.7C119.8,106.7,120.8,107.4,121.1,106.7L121.1,106.7z"/>
		</g>
	</g>
	<g>
		<g>
			<path d="M125.8,131.2c-0.1-8.2-0.1-16.4-0.2-24.7c0-0.8-1.2-0.8-1.2,0c0.1,8.2,0.1,16.4,0.2,24.7
				C124.6,131.9,125.8,131.9,125.8,131.2L125.8,131.2z"/>
		</g>
	</g>
	<g>
		<g>
			<path d="M82.1,131.6c1.9-0.2,4.2,0.7,6.2,0.6c3.5-0.1,6.9-0.5,10.4-0.7c6.9-0.4,13.9-0.6,20.8-0.7c0.8,0,0.8-1.2,0-1.2
				c-6.9,0.1-13.9,0.3-20.8,0.7c-3.2,0.2-6.4,0.5-9.6,0.6c-2.4,0.1-4.7-0.8-6.9-0.6C81.4,130.5,81.4,131.7,82.1,131.6L82.1,131.6z"
				/>
		</g>
	</g>
	<g>
		<g>
			<path d="M125.6,132c9.6,0.4,13.2,10.8,13.5,18.7c0.3,7.7-2.7,15.9-10.8,18c-0.7,0.2-0.4,1.4,0.3,1.2c17.1-4.5,15.6-38.2-3-39.1
				C124.8,130.7,124.8,131.9,125.6,132L125.6,132z"/>
		</g>
	</g>
	<g>
		<g>
			<path d="M128,169.8c-2.4,21.8-4.2,43.6-6.2,65.4c-0.1,0.8,1.1,0.8,1.2,0c2-21.8,3.8-43.6,6.2-65.4C129.3,169,128.1,169,128,169.8
				L128,169.8z"/>
		</g>
	</g>
	<g>
		<g>
			<path d="M122.1,234.5c-0.8,4.1,1.5,6.9,3.5,10.3c3.1,5.2,5.6,10.6,7.6,16.3c3.8,10.9,5.4,22.4,5,33.9c0,0.8,1.2,0.8,1.2,0
				c0.3-9.9-0.8-19.7-3.5-29.3c-1.2-4.2-2.7-8.3-4.5-12.3c-1.1-2.4-2.2-4.7-3.5-7c-1.8-3.3-5.5-7.6-4.7-11.7
				C123.5,234,122.3,233.7,122.1,234.5L122.1,234.5z"/>
		</g>
	</g>
	<g>
		<g>
			<path d="M138.3,294.8c-0.1,18.5-0.4,37-0.8,55.4c0,0.8,1.2,0.8,1.2,0c0.5-18.5,0.8-36.9,0.8-55.4
				C139.5,294,138.3,294,138.3,294.8L138.3,294.8z"/>
		</g>
	</g>
</g>
</svg>
