<svg id="Layer_1" data-name="Layer 1" xmlns="http://www.w3.org/2000/svg" viewBox="0 0 77.3 59.7"><defs><style>.cls-1{fill:#ef7a22;}.cls-2{fill:#130f11;}.cls-3{fill:#231f20;}</style></defs><title>Black</title><path class="cls-1" d="M143,80.3a3.12,3.12,0,0,0,.3-2.3.56.56,0,0,0-1.1,0l-.3,1.8H143c-.1-.5-.1-.9-.2-1.4-.1-.7-1.2-.5-1.2.2.1,1,.1,2.1.2,3.1a.6.6,0,1,0,1.2,0c0-1-.1-2.1-.2-3.1-.4.1-.8.1-1.2.2.1.5.1.9.2,1.4a.56.56,0,0,0,1.1,0l.3-1.8h-1.1a2.2,2.2,0,0,1-.2,1.4c-.2.6.8,1.2,1.1.5Z" transform="translate(-67.57 -25.88)"/><path class="cls-2" d="M72.6,51a7.86,7.86,0,0,0-2.8,3.2,9.55,9.55,0,0,1-1.2,1.6,3.81,3.81,0,0,0-.5,1.5c-.3,1-.1,2.1,1.1,2.2s2.6-1.1,3.6-1.8a1.21,1.21,0,0,0-1.2-2.1c-.8.5-.6.2-.5-.2V54.2a3.73,3.73,0,0,1,1.5-2.7,1.2,1.2,0,0,0-1.7-1.7,8,8,0,0,0-2,2.8,4.68,4.68,0,0,0-.2,1.6c0,.6-.2,1.2-.2,1.8,0,2.2,2.8,2.5,4.3,1.7l-1.2-2.1c-.5.3-1.8,1.5-2.4,1.5.3.2.7.4,1,.6,0-.1-.1-.2-.1-.3,0,.3.1.6.1.9.1-.4.3-.8.4-1.2s.5-.6.7-1c.8-1.2,1.1-2.5,2.4-3.2s.2-2.7-1.1-1.9Z" transform="translate(-67.57 -25.88)"/><path class="cls-1" d="M125.9,42.1c3.8,0,3.8-6,0-6s-3.9,6,0,6Z" transform="translate(-67.57 -25.88)"/><path class="cls-2" d="M124.9,41.2a10.32,10.32,0,0,0,.4,3,1.17,1.17,0,0,0,2.3-.3l.3-2.1h-2.4c0,1.1,0,2.2.1,3.2s.4,1.7.5,2.6c.2-.3.4-.7.6-1-.1-.1-.1-.3-.2-.4l-1.7,1.7a19.63,19.63,0,0,0,3.2,2.5c.9.6,1.9-.4,1.7-1.3-.3-1.4-.5-2.7-.8-4.1s-2.6-.9-2.3.6.5,2.7.8,4.1c.6-.4,1.2-.9,1.7-1.3a18.57,18.57,0,0,1-2.7-2.2,1.2,1.2,0,0,0-1.7,1.7c.7.7,2.1,1.5,3.1.8a1.33,1.33,0,0,0,.6-1c-.1-.9-.4-1.7-.5-2.6-.1-1.1-.1-2.2-.1-3.2,0-1.6-2.2-1.5-2.4,0l-.3,2.1,2.3-.3a9.86,9.86,0,0,1-.3-2.4c.2-1.6-2.2-1.6-2.2-.1Z" transform="translate(-67.57 -25.88)"/><path class="cls-2" d="M138.5,62.3c.4,2.9,2.1,5.3,2.7,8.1a1.17,1.17,0,0,0,2.3-.3c-.1-1.6-.3-3.3-.4-4.9l-2.3.3c0,.4.1.9.1,1.3l2.3-.3c-.2-1-.4-2.1-.5-3.1-.3-1.5-2.6-.9-2.3.6.1.8.3,1.5.4,2.3.2,1.2,2,1,2.3,0a7.34,7.34,0,0,0,.5-2h-2.3c.1.3.1.7.2,1a1.19,1.19,0,0,0,2.2.6,1.8,1.8,0,0,0,.2-1.6,1.17,1.17,0,0,0-2.3.3c-.1,2.2-.2,4.3-.3,6.5-.1,1.7.6,4,.3,5.6l2.3.3a70.88,70.88,0,0,0-.1-8c-.1-1.5-2.5-1.5-2.4,0,.1,2.7.1,5.4.1,8,0,1.3,2.1,1.7,2.3.3.4-1.9-.2-3.3-.2-5.2,0-2.5.2-5.1.4-7.6l-2.3.3a.37.37,0,0,1,.1-.3l2.2.6a9,9,0,0,0-.3-1.6,1.2,1.2,0,0,0-2.3,0,11.7,11.7,0,0,1-.5,2h2.3c-.1-.8-.3-1.5-.4-2.3l-2.3.6c.2,1,.4,2.1.5,3.1.2,1.4,2.3,1,2.3-.3a6.8,6.8,0,0,0-.2-2,1.17,1.17,0,0,0-2.3.3c.1,1.6.3,3.3.4,4.9l2.3-.3c-.7-2.8-2.3-5.3-2.7-8.1-.2-1.2-2.5-.6-2.3.9Z" transform="translate(-67.57 -25.88)"/><path class="cls-2" d="M123.6,41.4c.1-.3.1-.7.2-1-.9-.5-1.7-1-2.6-1.5.8-.6,1.7-1.2,2.5-1.8.5.9,1,1.7,1.5,2.6-.2.1-.5.3-.7.4-.7-1-1.5-1.9-2.2-2.9a8.27,8.27,0,0,0,1.3.7c-.7-1-1.5-1.9-2.2-2.9a2,2,0,0,1-.1.7c.5-.9,1-1.7,1.5-2.6h-.9c.5.9,1,1.7,1.5,2.6a10.91,10.91,0,0,0-1.1.6c-.7-1-1.5-1.9-2.2-2.9.5-.1,1.1-.1,1.6-.2.7-2-1.1-3.6-2.9-3.8-.6-.1-1.2-.1-1.9-.2v6c3.9-.5,8.5-1.6,12.4-.8,2.3.5,4.1,1.4,5.1,3.8,1.3.8,1.1.7-.6-.4a3.6,3.6,0,0,1-2.3-2.2c-1,1.3-1.9,2.5-2.9,3.8,1,.4,2,.8,3.1,1.2,1.2-1.6,2.4-3.1,3.6-4.7-.3-.2-.7-.5-1-.7-2.4-1.7-4.7,1.1-4.4,3.4.6,3.7,2.6,6.4,5,9.2,2.1,2.6,6.5-.8,4.7-3.6-1.2-1.9-2.8-2.9-4.3-4.5-2.6-2.9-6.7,1.3-4.2,4.2a12.36,12.36,0,0,1,3.2,5.4c1,3.8,6.4,2.1,5.7-1.6a8,8,0,0,0-3.9-5.6c-2.9-1.9-5.9,2.3-3.6,4.7,1.3,1.3,4.4,3.7,4.6,5.6.5,3.7,6.4,3.8,6,0a120.8,120.8,0,0,0-2.5-13.1c-.8-3.4-5.6-2.4-5.8.8a50.72,50.72,0,0,0,.1,10.3c.3,2.5,1.8,4.8,2.4,7.3.7,2.8,5.1,2.8,5.7,0a11.94,11.94,0,0,0,.4-3.3h-6c.2,2.4.6,4.9.8,7.3.3,3.8,6.2,3.8,6,0-.2-2.4-.5-4.8-.8-7.3-.4-3.7-5.9-3.9-6,0-.1.6-.1,1.2-.2,1.7h5.7c-.5-2.4-2-4.7-2.2-7.1a52.9,52.9,0,0,1,0-8.9c-1.9.3-3.9.5-5.8.8a90,90,0,0,1,2.3,11.5h6c-.5-4.3-3.5-6.8-6.4-9.8-1.2,1.6-2.4,3.1-3.6,4.7a19.83,19.83,0,0,1,1.1,2c1.9-.5,3.8-1.1,5.7-1.6a20.92,20.92,0,0,0-4.7-8l-4.2,4.2c.9,1,2.7,2.3,3.3,3.3,1.6-1.2,3.1-2.4,4.7-3.6-1.7-2.1-3-3.9-3.4-6.6-1.5,1.1-2.9,2.2-4.4,3.4.3.2.7.5,1,.7,2.8,2,6.1-2.4,3.6-4.7-2.2-2-4.2-3.3-7.3-2.9-1.9.2-3.5,1.7-2.9,3.8,2,6.8,15.3,11.7,14.7,1.2-.8-11.9-15.6-10-23.6-9.1a3,3,0,0,0,0,6c.6.1,1.2.1,1.9.2-1-1.3-1.9-2.5-2.9-3.8-2,6.1,9.6,8.7,10.1,1.8a3.09,3.09,0,0,0-2.2-2.9c-3.7-1.1-8.3,3.4-5.8,6.9,2.6,3.7,8.9,1.8,9.2-2.4a3,3,0,0,0-2.2-2.9c-4.2-1.1-8.9,2.5-6.2,6.9,2.4,3.9,9.6,3.4,9.3-1.8-.1-1.2-.9-2.7-2.2-2.9-3.8-.6-9.7,4-5.6,7.7,3.7,3.4,8.2-2.5,6-6.1a3,3,0,0,0-2.6-1.5,6,6,0,0,0-5.3,4c-1.3,3.2,3.8,6.3,5.3,2.8Z" transform="translate(-67.57 -25.88)"/><path class="cls-2" d="M87.2,41.1c.8-.3,1.5-.7,2.3-1-1-1.7-1.9-3.3-2.9-5-2.7,2.1-6.5,1.6-9.5,3.2a13.63,13.63,0,0,0-5.9,5.5l5.1,3a28,28,0,0,1,13-12.2c3.2-1.5.9-6.1-2.3-5.4a17.52,17.52,0,0,0-5.3,2.2c-3.3,2-.3,7.1,3,5.1,4.2-2.5,9.6-4.6,14.6-3.9,1.3.6,1.8.6,1.7,0a19.57,19.57,0,0,1-3.4,1.2,25.17,25.17,0,0,1-7.2.7l2.1,5.1,3.3-1.2c-.3-1.9-.5-3.9-.8-5.8a22.36,22.36,0,0,1-7.3,1.8c.5,1.8,1,3.7,1.5,5.5a17.94,17.94,0,0,1,3.9-2c.7-.2,2.4-.2,1.8-1-.2-1.2-.3-2.4-.5-3.6a35.13,35.13,0,0,0-4.2.6L92.3,39a9.78,9.78,0,0,1,4.8-2.3L95,34.6a4.33,4.33,0,0,0,.1.5c.3-1,.5-1.9.8-2.9a5.26,5.26,0,0,1-4.1,1.5l2.1,5.1a17.62,17.62,0,0,1,6.1-3.1c-.8-1.8-1.5-3.6-2.3-5.4-6.2,4-12.8,7.4-19,11.3-3.1,2-10.3,6.3-6.9,11C75,57,80.8,52,83.7,50c6.3-4.3,13.1-7.9,19.7-11.7,2.5-1.4,1.5-5.6-1.5-5.5-7.8.2-15.3,5.8-20.6,11.1-1.2,1.2-1.2,3.9.6,4.7,2.2,1,4,1.2,6.1-.3s1.9-4.6-.7-5.4C79.6,40,78.1,49,71.9,51c1,.3,1.9.5,2.9.8.4,1.1.5.9.5-.4a6.86,6.86,0,0,1,1.3-3.6,12.79,12.79,0,0,1,3.7-2.3,89.16,89.16,0,0,1,10-4.4c3.3-1.2,6.9-2.4,10.4-2.5s5.4,2,8.4,2.8a2.86,2.86,0,0,0,2.9-.8c1.5-1.8,2-3.8.7-5.9a20.7,20.7,0,0,0-5.8-6.7c-.8,1.8-1.5,3.6-2.3,5.4a47.41,47.41,0,0,1,5.1,2.4c3.4,1.8,6.1-3,3-5.1l-3-2.1-3,5.1c1.1.5,2.1,1.1,3.2,1.6,2.4,1.2,6-1.5,4.1-4.1-.2-.3-.5-.6-.7-.9-1.7-2.3-5.4-1.7-5.5,1.5a6.46,6.46,0,0,0,3.8,6.5c2.2,1.2,5.2-.8,4.4-3.4a17.35,17.35,0,0,0-1.3-3.6c-1.5,1.1-2.9,2.2-4.4,3.4.3.1,5,2.9,4.9,2.9,1.2-1.7.8-2.6-1.2-2.6l-2.2-.3a4.51,4.51,0,0,0-4.5,2.7,3,3,0,0,0,.5,3.6c1.3,1.4,2.8,1.1,4.1,2.1l3-5.1-.6-.3-3,5.1a55.88,55.88,0,0,0,7.8,2.8c3.7,1,5.3-4.7,1.6-5.7-.6-.2-1.2-.3-1.8-.5-.5,1.9-1.1,3.8-1.6,5.7a12.26,12.26,0,0,1,4.1,1.3V41.3c.5-.3,3.9.3,1.4-.7a8,8,0,0,0-1.5-.3,2.9,2.9,0,0,0-2.6,1.5c-.1.1-.1.2-.2.3a3,3,0,0,0,2.6,4.5c.7.2,1.3.4,2,.6l2.1-5.1h-.3c1,.7,1.9,1.5,2.9,2.2a.35.35,0,0,0-.1-.2c-1.4-3.5-7.1-2-5.7,1.6a.35.35,0,0,0,.1.2,3,3,0,0,0,2.9,2.2h.3c2.4-.2,4.1-3.2,2.1-5.1a7.46,7.46,0,0,0-6.2-2.3c.9,1.5,1.7,3,2.6,4.5.1-.1.1-.2.2-.3-.9.5-1.7,1-2.6,1.5-2.7-.2-.1.6.5.7a3.44,3.44,0,0,0,2.6-.5c1.7-1.2,2.2-4.1,0-5.1a21.08,21.08,0,0,0-5.5-1.9c-3.7-.7-5.3,4.7-1.6,5.7.6.2,1.2.3,1.8.5.5-1.9,1.1-3.8,1.6-5.7a53.86,53.86,0,0,1-6.4-2.2c-3.4-1.5-6.5,3.3-3,5.1l.6.3c3.5,1.8,6-2.9,3-5.1-.7-.5-2.5-.7-2.9-1.1.2,1.2.3,2.4.5,3.6-.1.3,8,2.7,9-1.9s-5.2-7.6-8.2-8.9c-2.1-.9-5.5.6-4.4,3.4.5,1.2.9,2.4,1.3,3.6,1.5-1.1,2.9-2.2,4.4-3.4-.3-.5-.5-.9-.8-1.4l-5.5,1.5c.2.3.5.6.7.9l4.1-4.1c-1.1-.5-2.1-1.1-3.2-1.6a3,3,0,0,0-3,5.1l3,2.1,3-5.1c-2.1-1.1-4.3-2.1-6.5-3-3.3-1.4-4.9,3.7-2.3,5.4,1.4.9,2.2,5.2,3.8,3.3,1-.3,1.9-.5,2.9-.8-2.2-.6-3.4-2.5-5.7-3a22.18,22.18,0,0,0-6.8.2c-5.9.8-11.4,3-16.8,5.5C77.7,40.3,73.2,42,71,46c-1.6,2.9-2.6,7.5-.2,10.2a2.86,2.86,0,0,0,2.9.8,15.87,15.87,0,0,0,5-3c1.8-1.4,4.8-6.2,7.5-5.3-.2-1.8-.5-3.6-.7-5.4a.37.37,0,0,1-.1.3c.2,1.6.4,3.1.6,4.7,4-4,10.5-9.2,16.4-9.4-.5-1.8-1-3.7-1.5-5.5-4.5,2.6-9,5.1-13.4,7.8-1.2.7-10.9,7.8-11.4,7.4.5.9,1,1.7,1.5,2.6-.2-2.7,9.7-7.1,11.7-8.2,4-2.3,8-4.6,11.9-7.1,2.8-1.8,1.1-6.4-2.3-5.4a24.32,24.32,0,0,0-8.7,4.6c-2,1.6-.3,5.2,2.1,5.1,3.9-.2,9.8-1.7,9-6.7a3.16,3.16,0,0,0-2.1-2.1c-3.9-.8-7.7,1.4-10.6,3.8-1.9,1.6-.4,5.3,2.1,5.1,3-.3,7.7-.6,9.3-3.5a3,3,0,0,0-.5-3.6c-2.9-3.7-10,.1-13,2-2.3,1.5-1.6,5.8,1.5,5.5a26.82,26.82,0,0,0,8.8-2c2.9-1.2,2.9-6-.8-5.8a11.52,11.52,0,0,0-7.5,2.9c-2.1,1.7-.2,5,2.1,5.1,4.9.2,21.8-2.2,16.7-11.1-1.8-3.1-7.3-2.8-10.2-2.6A33.43,33.43,0,0,0,82,31.9L85,37a8.59,8.59,0,0,1,3.8-1.6c-.8-1.8-1.5-3.6-2.3-5.4A32.23,32.23,0,0,0,71.4,44.3c-1.8,3.4,3.3,6.4,5.1,3,1.6-3,4.6-3.7,7.7-4.2A14.29,14.29,0,0,0,91,39.9c2.5-2-.3-5.6-2.9-5a11.07,11.07,0,0,0-4.9,2.6c-3.1,1.8,1.1,6,4,3.6Z" transform="translate(-67.57 -25.88)"/><path d="M68.8,59.7C68.3,48.6,73.8,37,83.3,31c9.8-6.2,20.6-4.4,30.8-.5.7.3,1-.9.3-1.1-11.1-4.2-22.7-5.7-33,1.5-9.1,6.4-14.3,17.9-13.8,28.9a.6.6,0,0,0,1.2-.1Z" transform="translate(-67.57 -25.88)"/><path d="M69,60.5c12.4-6.7,23.2-16,35.9-22.1.7-.3.1-1.4-.6-1C91.6,43.5,80.7,52.7,68.4,59.5c-.7.3-.1,1.3.6,1Z" transform="translate(-67.57 -25.88)"/><path d="M104.2,38.1c1.2,3.1,3.8,4.2,6.8,5.4s5.8,2.3,8.6,3.4c2.3.9,9.2,2.9,10.2,5.6.3.7,1.4.4,1.1-.3-.8-2.2-4.9-3.9-6.7-4.8-4.8-2.1-16.9-4.4-18.9-9.8-.2-.5-1.4-.2-1.1.5Z" transform="translate(-67.57 -25.88)"/><path d="M115.2,30.7c4.5-1.4,9.3-2.4,14-1.9,6.5.6,9.9,4.2,11.4,10.3a.57.57,0,0,0,1.1-.3c-1.2-4.7-3-8.5-7.9-10.2-6-2.2-13.1-.9-19,1-.7.2-.4,1.3.4,1.1Z" transform="translate(-67.57 -25.88)"/><path d="M126.6,40.5c6,4.8,8.5,12,10.7,19.1,2.3,7.4,4.4,16.1,3.9,23.9a.6.6,0,1,0,1.2,0c.5-8.5-1.9-17.8-4.5-25.8-2.2-6.8-4.9-13.4-10.5-18-.6-.5-1.4.3-.8.8Z" transform="translate(-67.57 -25.88)"/><path d="M142.8,85.1c3.8-15.1,1.7-31.8-1.1-46.8-.1-.8-1.3-.4-1.1.3,2.8,14.8,4.9,31.4,1.1,46.2a.57.57,0,1,0,1.1.3Z" transform="translate(-67.57 -25.88)"/><path d="M141.3,82.5a5.71,5.71,0,0,0,0,2.6.57.57,0,0,0,1.1-.3,3.08,3.08,0,0,1,0-1.9c.2-.8-1-1.1-1.1-.4Z" transform="translate(-67.57 -25.88)"/><path d="M127.6,39.9a11.74,11.74,0,0,0-4.8-5.3.58.58,0,1,0-.6,1,10.78,10.78,0,0,1,4.3,4.9c.4.7,1.4.1,1.1-.6Z" transform="translate(-67.57 -25.88)"/><path d="M130.8,52.7c-1-4.5-.8-9.2-3.2-13.3a.58.58,0,1,0-1,.6c2.3,4,2.1,8.6,3,13a.62.62,0,1,0,1.2-.3Z" transform="translate(-67.57 -25.88)"/><path d="M114,30.6a43.14,43.14,0,0,1,8.3,4.9c.6.5,1.2-.6.6-1a38.56,38.56,0,0,0-8.3-4.9.58.58,0,1,0-.6,1Z" transform="translate(-67.57 -25.88)"/><path class="cls-3" d="M71.6,56.3c1.4-9.9,7.6-17.4,15.6-23.1.6-.4,0-1.5-.6-1C78.3,38,71.9,45.8,70.4,56c-.1.8,1.1,1.1,1.2.3Z" transform="translate(-67.57 -25.88)"/><path class="cls-3" d="M71.8,56.8A101.73,101.73,0,0,1,96.3,39.7c.7-.3.1-1.4-.6-1A103.23,103.23,0,0,0,71,55.9c-.6.5.3,1.4.8.9Z" transform="translate(-67.57 -25.88)"/><path class="cls-3" d="M108.1,37.1a8.61,8.61,0,0,0,5.2,4.5c4.2,1.5,8.2,2.2,12.2,4.4.7.4,1.3-.7.6-1a39.08,39.08,0,0,0-8.2-3.3c-3.4-.9-7.2-1.4-8.8-5.1-.3-.8-1.4-.2-1,.5Z" transform="translate(-67.57 -25.88)"/><path class="cls-3" d="M122.9,31.7c5.1,0,9.7.8,12.7,5.3,2.1,3.3,2.2,8.5,3.1,12.3a.57.57,0,0,0,1.1-.3c-1.1-4.7-1-10.8-4.6-14.5-3.5-3.5-7.5-4-12.3-4.1-.8.1-.8,1.3,0,1.3Z" transform="translate(-67.57 -25.88)"/><path class="cls-3" d="M138,54.7c1.3,3.6,2.6,7.2,2.6,11.1a.6.6,0,1,0,1.2,0,34.54,34.54,0,0,0-2.7-11.4c-.2-.8-1.4-.4-1.1.3Z" transform="translate(-67.57 -25.88)"/><path class="cls-2" d="M111,42.8h1.1c-.1-.4-.2-.7-.3-1.1-.2.1-.3.2-.5.2-.7.3-.1,1.4.6,1,.2-.1.3-.2.5-.2a.58.58,0,0,0-.3-1.1H111c-.7,0-.7,1.2,0,1.2Z" transform="translate(-67.57 -25.88)"/><path class="cls-2" d="M112.7,43.6c.9.7,2.1.7,3.1,1.1a18.73,18.73,0,0,0,3.2.8.57.57,0,1,0,.3-1.1,5.85,5.85,0,0,0-1.3-.2,6,6,0,0,1-1.9-.6c-.9-.4-2-.4-2.8-1-.6-.5-1.2.5-.6,1Z" transform="translate(-67.57 -25.88)"/><path class="cls-2" d="M119.2,45c-.2.1-.7-.2-.9-.2l-1.1-.3c-.7-.2-1.1,1-.3,1.1.5.1,1.1.3,1.6.4a1.93,1.93,0,0,0,1.3,0c.7-.3.1-1.4-.6-1Z" transform="translate(-67.57 -25.88)"/><path class="cls-2" d="M127.4,44.1l.6.6c.4.5,1.1,0,1-.6,0-.2-.1-.4-.1-.6a.57.57,0,0,0-1.1.3c0,.2.1.4.1.6.3-.2.7-.4,1-.6l-.6-.6c-.6-.5-1.4.4-.9.9Z" transform="translate(-67.57 -25.88)"/><path class="cls-2" d="M143.2,78.8a1.27,1.27,0,0,0,.1-.6c-.4.1-.8.1-1.2.2l.3.9c0,.2.2.6.1.8a1.38,1.38,0,0,0,.3-.4h-.1a.9.9,0,0,0,.5-.1c.2.1,0-.4,0-.5v-.7a.6.6,0,1,0-1.2,0c0,.7.1,2.8,1.3,2.3.5-.2.5-.7.4-1.1a8.47,8.47,0,0,0-.4-1.7.62.62,0,0,0-1.2.2.37.37,0,0,1-.1.3c-.2.8,1,1.1,1.2.4Z" transform="translate(-67.57 -25.88)"/><path class="cls-2" d="M143.3,78.9c-.1-.9-.3-1.9-.4-2.8-.4.2-.7.3-1.1.5.2.4.4.8.7,1.3a.58.58,0,1,0,1-.6c-.2-.4-.4-.8-.7-1.3s-1.2-.2-1.1.5c.1.9.3,1.9.4,2.8.2.6,1.4.3,1.2-.4Z" transform="translate(-67.57 -25.88)"/></svg>