<svg id="Layer_1" data-name="Layer 1" xmlns="http://www.w3.org/2000/svg" viewBox="0 0 77.3 59.72"><defs><style>.cls-1{fill:#ef7a22;}.cls-2{fill:#ed8622;}</style></defs><title>Orange</title><path class="cls-1" d="M143.4,78.4a3.06,3.06,0,0,0,.3-2.3.57.57,0,0,0-.7-.4.78.78,0,0,0-.4.4l-.3,1.8h1.1l-.2-1.4c-.1-.7-1.2-.5-1.2.2.1,1,.1,2.1.2,3.1a.6.6,0,1,0,1.2,0c0-1-.1-2.1-.2-3.1l-1.2.2.2,1.4a.56.56,0,0,0,1.1,0l.3-1.8h-1.1a2.2,2.2,0,0,1-.2,1.4c-.2.6.8,1.2,1.1.5Z" transform="translate(-67.97 -23.88)"/><path class="cls-1" d="M73,49a7.86,7.86,0,0,0-2.8,3.2A17.68,17.68,0,0,1,69,53.9a8.8,8.8,0,0,0-.5,1.5c-.3,1-.1,2.1,1.1,2.2s2.6-1.1,3.6-1.8A1.21,1.21,0,0,0,72,53.7c-.8.5-.6.2-.6-.2V52.3a3.55,3.55,0,0,1,1.5-2.7,1.2,1.2,0,0,0-1.7-1.7,6.9,6.9,0,0,0-2,2.8,5,5,0,0,0-.2,1.7c0,.6-.2,1.2-.2,1.8,0,2.2,2.8,2.5,4.3,1.7l-1.2-2.1c-.5.3-1.8,1.5-2.3,1.5l1,.6-.1-.3.1.9c.1-.3.3-.8.4-1.2a8.65,8.65,0,0,1,.7-1c.8-1.2,1.1-2.5,2.4-3.2A1.19,1.19,0,0,0,73,49Z" transform="translate(-67.97 -23.88)"/><path class="cls-1" d="M126.3,40.2c3.8,0,3.8-6,0-6S122.4,40.2,126.3,40.2Z" transform="translate(-67.97 -23.88)"/><path class="cls-1" d="M125.3,39.3a10.32,10.32,0,0,0,.4,3,1.24,1.24,0,0,0,1.5.8A1.17,1.17,0,0,0,128,42l.3-2.1h-2.4c0,1.1,0,2.2.1,3.2s.4,1.7.5,2.6l.6-1-.2-.4L125.2,46a24.24,24.24,0,0,0,3.1,2.5c.9.6,1.9-.4,1.8-1.3l-.8-4.1c-.3-1.5-2.6-.9-2.3.6l.8,4.1,1.8-1.3a26.09,26.09,0,0,1-2.7-2.2c-1.1-1-2.8.6-1.7,1.7.8.7,2.1,1.5,3.1.8a1.1,1.1,0,0,0,.6-1c-.1-.9-.4-1.7-.5-2.6-.1-1.1-.1-2.2-.1-3.2a1.2,1.2,0,1,0-2.4,0l-.3,2.1,2.3-.3a9.86,9.86,0,0,1-.3-2.4,1.16,1.16,0,0,0-1.2-1.2,1,1,0,0,0-1.1,1.1Z" transform="translate(-67.97 -23.88)"/><path class="cls-1" d="M138.9,60.4c.4,2.9,2.1,5.3,2.7,8.1a1.17,1.17,0,0,0,2.3-.3l-.4-4.9-2.3.3.1,1.3,2.3-.3-.5-3.1c-.3-1.5-2.6-.9-2.3.6l.4,2.3c.2,1.2,2,1,2.3,0a11.69,11.69,0,0,0,.6-2h-2.4l.2,1a1.22,1.22,0,0,0,1.2,1.2,1.1,1.1,0,0,0,1-.6,1.76,1.76,0,0,0,.2-1.6,1.24,1.24,0,0,0-1.5-.8,1.17,1.17,0,0,0-.8,1.1c-.1,2.2-.2,4.3-.3,6.5-.1,1.7.6,4,.3,5.7l2.3.3a70.88,70.88,0,0,0-.1-8,1.2,1.2,0,0,0-2.4,0c.1,2.7.1,5.3.1,8,0,1.3,2.1,1.7,2.3.3.4-1.9-.2-3.3-.3-5.2,0-2.5.2-5.1.4-7.6L142,63l.1-.3,2.2.6a4.53,4.53,0,0,0-.3-1.6,1.24,1.24,0,0,0-1.5-.8,1.09,1.09,0,0,0-.8.8,6.64,6.64,0,0,1-.6,2h2.3l-.4-2.3-2.3.6.5,3.1c.2,1.4,2.3,1,2.3-.3a4.57,4.57,0,0,0-.2-2,1.24,1.24,0,0,0-1.5-.8,1.17,1.17,0,0,0-.8,1.1l.4,4.9,2.3-.3c-.6-2.8-2.3-5.3-2.7-8.1-.1-1.3-2.4-.7-2.1.8Z" transform="translate(-67.97 -23.88)"/><path class="cls-1" d="M124,39.4l.2-1-2.6-1.5,2.5-1.8,1.5,2.6-.8.4-2.2-2.9a8.27,8.27,0,0,0,1.3.7L121.7,33l-.1.7,1.5-2.6h-.9l1.5,2.6-1.1.6-2.2-2.9,1.6-.2c.7-2-1.1-3.6-2.9-3.8l-1.9-.2v6c3.9-.5,8.5-1.6,12.4-.8,2.3.5,4.1,1.4,5.1,3.8,1.3.8,1.1.7-.6-.4a3.58,3.58,0,0,1-2.3-2.2l-2.9,3.8,3.1,1.2,3.6-4.8-1-.7c-2.4-1.7-4.7,1.1-4.4,3.4.6,3.7,2.6,6.4,5,9.2,2.1,2.6,6.5-.8,4.7-3.6-1.2-1.9-2.8-2.9-4.3-4.5-2.6-2.9-6.7,1.3-4.2,4.2a12.36,12.36,0,0,1,3.2,5.4c1,3.8,6.4,2.1,5.7-1.6a8,8,0,0,0-3.9-5.6c-2.9-1.9-5.9,2.3-3.6,4.7,1.3,1.3,4.4,3.7,4.6,5.6.5,3.8,6.4,3.8,6,0a116.37,116.37,0,0,0-2.5-13.1c-.8-3.4-5.6-2.4-5.9.8a50.66,50.66,0,0,0,.1,10.3c.3,2.5,1.8,4.8,2.4,7.3.6,2.8,5.1,2.8,5.7,0a12.42,12.42,0,0,0,.4-3.3h-6c.2,2.4.6,4.9.8,7.3.3,3.8,6.2,3.8,6,0-.2-2.4-.6-4.8-.8-7.3-.4-3.7-5.9-3.9-6,0l-.2,1.7h5.7c-.5-2.3-2-4.7-2.2-7.1a44.11,44.11,0,0,1,0-8.9l-5.9.8a90,90,0,0,1,2.3,11.5h6c-.5-4.3-3.5-6.8-6.4-9.8l-3.6,4.7,1.1,2,5.7-1.6a20.92,20.92,0,0,0-4.7-8l-4.2,4.2c.9,1,2.7,2.3,3.3,3.3l4.6-3.6c-1.7-2.1-3-3.9-3.4-6.6l-4.4,3.4,1,.7c2.8,2,6.1-2.4,3.6-4.7-2.2-2-4.2-3.3-7.3-2.9-1.8.2-3.5,1.7-2.9,3.8,2,6.8,15.3,11.7,14.7,1.2-.8-11.9-15.6-10-23.6-9.1a3,3,0,0,0,0,6l1.9.2-2.9-3.8c-2,6.1,9.6,8.7,10.1,1.8a3.09,3.09,0,0,0-2.2-2.9c-3.7-1.1-8.3,3.4-5.8,6.9s8.9,1.8,9.3-2.4a3.09,3.09,0,0,0-2.2-2.9c-4.3-1.1-8.9,2.5-6.2,6.9,2.4,3.9,9.5,3.4,9.3-1.8a3.09,3.09,0,0,0-2.2-2.9c-3.8-.6-9.7,4-5.6,7.7,3.8,3.4,8.2-2.5,6-6.1a3,3,0,0,0-2.6-1.5,6.06,6.06,0,0,0-5.3,4c-1.5,3.5,3.6,6.5,5.1,3Z" transform="translate(-67.97 -23.88)"/><path class="cls-1" d="M87.6,39.1l2.3-1-2.9-5c-2.7,2.2-6.5,1.6-9.5,3.2a13.63,13.63,0,0,0-5.9,5.5l5.1,3a27.48,27.48,0,0,1,13-12.2c3.2-1.5.8-6.1-2.3-5.4a16.53,16.53,0,0,0-5.3,2.2c-3.3,2-.3,7.1,3,5.1,4.2-2.5,9.6-4.6,14.6-3.9,1.3.7,1.8.7,1.7,0A19.57,19.57,0,0,1,98,31.8a25.17,25.17,0,0,1-7.2.7l2.1,5,3.3-1.2-.8-5.8a23,23,0,0,1-7.3,1.8l1.5,5.5a17.94,17.94,0,0,1,3.9-2c.7-.2,2.4-.2,1.8-1L95,31.2c.1-.1-4.8.7-4.2.6l2.1,5.1a9.14,9.14,0,0,1,4.9-2.2l-2.1-2.1.1.5.8-2.9a5.26,5.26,0,0,1-4.1,1.5l2.1,5.1a17.39,17.39,0,0,1,6.1-3l-2.3-5.4c-6.2,4-12.8,7.4-19,11.3-3.1,2-10.3,6.3-6.9,11,3.2,4.4,9-.6,11.9-2.6,6.3-4.3,13.1-7.9,19.7-11.8a3,3,0,0,0-1.5-5.6c-7.8.2-15.3,5.8-20.6,11.1-1.2,1.2-1.2,3.9.6,4.7,2.2,1,4,1.2,6.1-.3a3,3,0,0,0,1-4.1A3.15,3.15,0,0,0,88,40.8c-7.9-2.7-9.4,6.3-15.7,8.3l2.9.8c.4,1.1.5.9.5-.4A6.57,6.57,0,0,1,77,45.9a12,12,0,0,1,3.7-2.3,89.16,89.16,0,0,1,10-4.4c3.3-1.2,6.9-2.4,10.4-2.5s5.4,2,8.4,2.8a2.92,2.92,0,0,0,2.9-.8,4.86,4.86,0,0,0,.8-5.9,20.7,20.7,0,0,0-5.8-6.7l-2.3,5.4c1.8.7,3.4,1.6,5.1,2.4,3.4,1.8,6.1-3,3-5.1l-3-2.1-3,5.1,3.2,1.6c2.4,1.2,6-1.5,4.1-4.1l-.7-.9c-1.7-2.3-5.4-1.7-5.6,1.5a6.38,6.38,0,0,0,3.8,6.5c2.2,1.2,5.2-.8,4.4-3.4a17.35,17.35,0,0,0-1.3-3.6l-4.4,3.3c.3.1,5,2.9,4.9,2.9,1.2-1.7.8-2.6-1.2-2.6l-2.2-.3a4.45,4.45,0,0,0-4.5,2.7,3.19,3.19,0,0,0,.5,3.6c1.3,1.4,2.8,1.1,4.1,2.1l3-5.1-.6-.3-3,5.1a51.64,51.64,0,0,0,7.8,2.8c3.7,1,5.3-4.7,1.6-5.7l-1.8-.5-1.6,5.7a12.26,12.26,0,0,1,4.1,1.3V39.3c.5-.3,3.9.3,1.4-.7a4,4,0,0,0-1.5-.3,3.11,3.11,0,0,0-2.6,1.5l-.2.3a3.06,3.06,0,0,0,1.1,4.1,3.26,3.26,0,0,0,1.4.4l2,.6,2.1-5.1h-.3l2.9,2.2-.1-.2c-1.4-3.5-7.1-2-5.7,1.6l.1.2a3,3,0,0,0,2.9,2.2h.3c2.4-.2,4.1-3.2,2.1-5.1a7.58,7.58,0,0,0-6.2-2.3l2.6,4.5.2-.3-2.6,1.5c-2.7-.2-.1.6.5.7a3.44,3.44,0,0,0,2.6-.5c1.7-1.2,2.2-4.1,0-5.1a21.08,21.08,0,0,0-5.5-1.9c-3.7-.7-5.3,4.7-1.6,5.7l1.8.5,1.6-5.7a48.34,48.34,0,0,1-6.4-2.2c-3.4-1.5-6.5,3.3-3,5.1l.6.3c3.5,1.8,6-2.9,3-5.1-.7-.5-2.5-.7-2.9-1.1l.5,3.6c-.1.3,8,2.7,9-1.9s-5.2-7.6-8.2-8.9c-2.1-.9-5.4.6-4.4,3.4.5,1.2.9,2.4,1.3,3.6l4.4-3.4-.8-1.4-5.6,1.5.7.9,4.1-4.1-3.2-1.6a3,3,0,0,0-3.9,1.6,3.05,3.05,0,0,0,.9,3.5l3,2.1,3-5.1c-2.1-1.1-4.3-2.1-6.5-3-3.3-1.4-4.9,3.7-2.3,5.4,1.4,1,2.2,5.2,3.8,3.3l2.9-.8c-2.2-.6-3.4-2.5-5.7-3a22.09,22.09,0,0,0-6.8.2,59.14,59.14,0,0,0-16.8,5.5C77.9,38.3,73.4,40,71.2,44c-1.6,2.9-2.6,7.5-.2,10.2a2.92,2.92,0,0,0,2.9.8,17.07,17.07,0,0,0,5-3c1.8-1.5,4.8-6.2,7.5-5.3l-.7-5.4-.1.3.6,4.7c4-4,10.5-9.2,16.4-9.4l-1.5-5.6c-4.5,2.6-9,5.1-13.4,7.8-1.1.6-10.9,7.7-11.4,7.3L77.8,49c-.2-2.7,9.7-7.1,11.7-8.3,4-2.3,8-4.6,11.9-7.1,2.8-1.8,1.1-6.4-2.3-5.4a23.52,23.52,0,0,0-8.7,4.6c-2,1.6-.3,5.2,2.1,5.1,3.9-.2,9.8-1.7,9-6.7a3.16,3.16,0,0,0-2.1-2.1c-3.9-.8-7.7,1.4-10.6,3.8-1.9,1.6-.4,5.3,2.1,5.1,3-.3,7.7-.6,9.3-3.5a3.19,3.19,0,0,0-.5-3.6c-2.9-3.7-10,.1-13,2-2.3,1.5-1.6,5.8,1.5,5.5a29.62,29.62,0,0,0,8.8-2c2.8-1.2,2.9-6-.8-5.9a12.07,12.07,0,0,0-7.5,2.9c-2.1,1.7-.2,5,2.1,5.1,4.9.2,21.8-2.2,16.7-11.1-1.8-3.1-7.3-2.8-10.3-2.6a32.61,32.61,0,0,0-15.1,4.7l3,5.1A8.59,8.59,0,0,1,88.9,33l-2.3-5.4A32.23,32.23,0,0,0,71.5,41.9c-1.8,3.4,3.3,6.4,5.1,3,1.6-3,4.7-3.8,7.7-4.2a13.42,13.42,0,0,0,6.8-3.2c2.5-2-.3-5.6-2.9-5a10.62,10.62,0,0,0-4.9,2.6c-2.9,2.2,1.4,6.4,4.3,4Z" transform="translate(-67.97 -23.88)"/><path d="M69.2,57.8C68.7,46.6,74.2,35,83.7,29c9.8-6.2,20.6-4.4,30.8-.5.7.3,1-.9.3-1.1-11.1-4.2-22.7-5.7-33,1.5C72.7,35.2,67.5,46.8,68,57.8,68,58.5,69.2,58.5,69.2,57.8Z" transform="translate(-67.97 -23.88)"/><path d="M69.3,58.5c12.4-6.7,23.2-16,35.9-22,.7-.3.1-1.4-.6-1-12.8,6-23.6,15.3-35.9,22-.6.4,0,1.4.6,1Z" transform="translate(-67.97 -23.88)"/><path d="M104.6,36.2c1.2,3.1,3.8,4.2,6.8,5.4s5.8,2.3,8.7,3.4c2.3.9,9.2,2.9,10.2,5.7.3.7,1.4.4,1.1-.3-.8-2.2-4.8-3.9-6.7-4.8-4.8-2.1-16.9-4.4-18.9-9.8-.3-.7-1.5-.3-1.2.4Z" transform="translate(-67.97 -23.88)"/><path d="M115.6,28.8a35,35,0,0,1,14-2c6.4.6,9.9,4.2,11.4,10.3a.55.55,0,0,0,.8.3.67.67,0,0,0,.4-.7c-1.2-4.7-3-8.5-7.9-10.2-6-2.2-13.1-.9-19,1-.8.3-.5,1.5.3,1.3Z" transform="translate(-67.97 -23.88)"/><path d="M127,38.5c6,4.8,8.5,12,10.7,19.1,2.3,7.4,4.4,16.1,3.9,23.9a.6.6,0,1,0,1.2,0c.5-8.5-1.9-17.8-4.5-25.8-2.2-6.8-4.9-13.4-10.6-18-.5-.5-1.3.4-.7.8Z" transform="translate(-67.97 -23.88)"/><path d="M143.2,83.2c3.8-15.1,1.7-31.8-1.1-46.8-.1-.8-1.3-.4-1.1.3,2.8,14.8,4.9,31.4,1.1,46.2-.1.3.2.6.5.7a.62.62,0,0,0,.6-.4Z" transform="translate(-67.97 -23.88)"/><path d="M141.7,80.6a5.7,5.7,0,0,0,0,2.6.55.55,0,0,0,.8.3.67.67,0,0,0,.4-.7,3.08,3.08,0,0,1,0-1.9c.1-.7-1.1-1.1-1.2-.3Z" transform="translate(-67.97 -23.88)"/><path d="M128,38a11.74,11.74,0,0,0-4.8-5.3.68.68,0,0,0-.8.4c-.1.2,0,.4.2.6a11.31,11.31,0,0,1,4.3,4.9c.4.6,1.4,0,1.1-.6Z" transform="translate(-67.97 -23.88)"/><path d="M131.2,50.8c-1-4.5-.8-9.2-3.2-13.3a.61.61,0,0,0-.8,0,.73.73,0,0,0-.2.6c2.3,4,2.1,8.6,3,13,.2.7,1.4.4,1.2-.3Z" transform="translate(-67.97 -23.88)"/><path d="M114.3,28.6a38.56,38.56,0,0,1,8.3,4.9c.6.5,1.2-.6.6-1a41.14,41.14,0,0,0-8.3-4.9c-.6-.3-1.3.7-.6,1Z" transform="translate(-67.97 -23.88)"/><path class="cls-2" d="M72,54.4c1.4-9.9,7.6-17.4,15.6-23.1.6-.4,0-1.5-.6-1-8.2,5.8-14.7,13.5-16.2,23.8-.1.7,1,1,1.2.3Z" transform="translate(-67.97 -23.88)"/><path class="cls-2" d="M72.2,54.8A101.73,101.73,0,0,1,96.7,37.7c.7-.3.1-1.4-.6-1A100.84,100.84,0,0,0,71.4,54c-.6.5.3,1.3.8.8Z" transform="translate(-67.97 -23.88)"/><path class="cls-2" d="M108.4,35.2a8.31,8.31,0,0,0,5.2,4.5c4.2,1.5,8.3,2.2,12.2,4.4.7.4,1.3-.7.6-1a41.37,41.37,0,0,0-8.2-3.3c-3.4-.9-7.2-1.5-8.8-5.1-.2-.8-1.3-.2-1,.5Z" transform="translate(-67.97 -23.88)"/><path class="cls-2" d="M123.3,29.7c5.1,0,9.7.8,12.7,5.3,2.1,3.3,2.2,8.5,3.1,12.3a.57.57,0,1,0,1.1-.3c-1.1-4.8-1-10.8-4.6-14.5s-7.5-4-12.3-4.1a.54.54,0,0,0-.5.7C122.8,29.5,123,29.7,123.3,29.7Z" transform="translate(-67.97 -23.88)"/><path class="cls-2" d="M138.4,52.7c1.3,3.6,2.6,7.2,2.6,11.1a.54.54,0,0,0,.7.5.47.47,0,0,0,.5-.5,34.54,34.54,0,0,0-2.7-11.4c-.2-.7-1.4-.4-1.1.3Z" transform="translate(-67.97 -23.88)"/></svg>