<?xml version="1.0" encoding="utf-8"?>
<!-- Generator: Adobe Illustrator 21.0.2, SVG Export Plug-In . SVG Version: 6.00 Build 0)  -->
<svg version="1.1" id="Layer_1" xmlns="http://www.w3.org/2000/svg" xmlns:xlink="http://www.w3.org/1999/xlink" x="0px" y="0px"
	 viewBox="0 0 200 600" style="enable-background:new 0 0 200 600;" xml:space="preserve">
<style type="text/css">
	.st0{fill:#B2A1A1;}
	.st1{fill:#FDFFEE;}
	.st2{fill:#060A00;}
	.st3{fill:#E1FFD7;}
	.st4{fill:#FFFFFF;}
	.st5{fill:#000B18;}
	.st6{fill:none;stroke:#060D00;stroke-width:0.1;stroke-miterlimit:10;}
	.st7{fill:none;stroke:#000000;stroke-width:0.5;stroke-miterlimit:10;}
</style>
<g>
	<g>
		<g>
			<g>
				<g>
					<path class="st0" d="M105.3,136.3c-0.4-0.4-0.3-1.2,0.2-1.4s1.1-0.1,1.6,0.2c0.4,0.3,0.8,0.8,0.8,1.4c0.1,0.5-0.2,1.1-0.6,1.4"
						/>
					<g>
						<path class="st1" d="M109.5,132.1l-0.1-0.1c0.3,0.4,0.6,0.8,0.9,1.2c0,0,0-0.1-0.1-0.1c0.2,0.5,0.4,1,0.6,1.4
							c0-0.1-0.1-0.2-0.1-0.3c0.1,0.5,0.1,1.1,0.2,1.6c0-0.1,0-0.2,0-0.3c-0.1,0.5-0.1,1.1-0.2,1.6c0-0.1,0-0.2,0.1-0.3
							c-0.2,0.5-0.4,1-0.6,1.4c0-0.1,0.1-0.2,0.2-0.2c-0.3,0.4-0.6,0.8-0.9,1.2l0.1-0.1c-0.4,0.3-0.8,0.6-1.2,0.9
							c0.1-0.1,0.2-0.1,0.3-0.2c-0.5,0.2-1,0.4-1.4,0.6c0.1,0,0.2-0.1,0.3-0.1c-0.5,0.1-1.1,0.1-1.6,0.2c0.1,0,0.2,0,0.3,0
							c-0.5-0.1-1.1-0.1-1.6-0.2c0.2,0,0.3,0.1,0.5,0.1c-0.5-0.2-1-0.4-1.4-0.6c0.1,0,0.2,0.1,0.3,0.2c-0.4-0.3-0.8-0.6-1.2-0.9
							c0.1,0.1,0.3,0.2,0.4,0.4c-0.3-0.4-0.6-0.8-0.9-1.2c0.1,0.2,0.2,0.3,0.3,0.5c-0.2-0.5-0.4-1-0.6-1.4c0.1,0.2,0.1,0.3,0.1,0.5
							c-0.1-0.5-0.1-1.1-0.2-1.6c0,0.1,0,0.2,0,0.3c0.1-0.5,0.1-1.1,0.2-1.6c0,0.2-0.1,0.3-0.1,0.5c0.2-0.5,0.4-1,0.6-1.4
							c0,0.1-0.1,0.2-0.2,0.3c0.3-0.4,0.6-0.8,0.9-1.2c-0.1,0.1-0.2,0.2-0.3,0.3c-1.1,0.9-1.8,2.9-1.8,4.2c0,1.5,0.7,3.2,1.8,4.2
							c1.1,1,2.6,1.8,4.2,1.8c0.5-0.1,1.1-0.1,1.6-0.2c1-0.3,1.9-0.8,2.6-1.5c2.1-1.7,2.8-5,2.1-7.4c-0.8-2.7-2.7-4.6-5.4-5.6
							c-3.1-1.1-6.5,0.3-8.2,3c-1.8,2.7-1.2,6.2,0.9,8.5c1,1.1,2.8,1.8,4.2,1.8c1.5,0,3.2-0.7,4.2-1.8s1.8-2.6,1.8-4.2
							C111.2,134.7,110.7,133.3,109.5,132.1L109.5,132.1z"/>
					</g>
				</g>
				<g>
					<path class="st0" d="M101.7,135.6c-0.7-0.2-1-1-0.8-1.7s0.8-1.1,1.4-1.4c0.4-0.2,0.8-0.4,1.2-0.3c1,0,1.9,1.1,1.9,2.1
						s-0.6,2-1.4,2.7"/>
					<g>
						<path class="st1" d="M103.3,129.8c-0.1,0-0.1-0.1-0.2-0.1c0.5,0.2,1,0.4,1.4,0.6c-0.1,0-0.1-0.1-0.2-0.1
							c0.4,0.3,0.8,0.6,1.2,0.9c-0.1-0.1-0.1-0.1-0.2-0.2c0.3,0.4,0.6,0.8,0.9,1.2c-0.1-0.1-0.2-0.3-0.2-0.4c0.2,0.5,0.4,1,0.6,1.4
							c0-0.1,0-0.1-0.1-0.2c0.1,0.5,0.1,1.1,0.2,1.6c0-0.2,0-0.3,0-0.5c-0.1,0.5-0.1,1.1-0.2,1.6c0-0.2,0.1-0.3,0.1-0.5
							c-0.2,0.5-0.4,1-0.6,1.4c0.1-0.2,0.2-0.3,0.3-0.4c-0.3,0.4-0.6,0.8-0.9,1.2c0.1-0.1,0.2-0.2,0.4-0.4c-0.4,0.3-0.8,0.6-1.2,0.9
							c0.3-0.2,0.6-0.4,1-0.6c-0.5,0.2-1,0.4-1.4,0.6c0.2-0.1,0.4-0.1,0.6-0.2c-0.5,0.1-1.1,0.1-1.6,0.2c0.2,0,0.4,0,0.6,0
							c-0.5-0.1-1.1-0.1-1.6-0.2c0.1,0,0.2,0,0.2,0.1c-0.5-0.2-1-0.4-1.4-0.6c0.2,0.1,0.3,0.1,0.5,0.2c-0.4-0.3-0.8-0.6-1.2-0.9
							c0.2,0.2,0.4,0.3,0.5,0.6c-0.3-0.4-0.6-0.8-0.9-1.2c0.1,0.1,0.2,0.3,0.3,0.5c-0.2-0.5-0.4-1-0.6-1.4c0.1,0.2,0.1,0.3,0.1,0.5
							c-0.1-0.5-0.1-1.1-0.2-1.6c0,0.3,0,0.5,0,0.8c0.1-0.5,0.1-1.1,0.2-1.6c0,0.2-0.1,0.4-0.2,0.5c0.2-0.5,0.4-1,0.6-1.4
							c-0.2,0.4-0.3,0.7-0.6,1c0.3-0.4,0.6-0.8,0.9-1.2c-0.2,0.2-0.4,0.4-0.6,0.6c-2.3,2.1-2.3,6.4,0,8.5c2.5,2.3,6,2.3,8.5,0
							c2.4-2.2,3.7-5.6,2.9-8.8c-0.9-3.5-4-6.2-7.7-6.2c-3.6,0-7.2,2.5-8.4,5.9c-0.6,1.9-0.4,4,0.5,5.8c1,1.8,2.5,2.8,4.4,3.5
							c3,1.1,6.7-1.2,7.4-4.2C108.3,133.8,106.5,130.9,103.3,129.8L103.3,129.8z"/>
					</g>
				</g>
				<g>
					<path class="st0" d="M93.2,146.2c-0.2-1.3,1-2.5,2.3-2.5s2.5,0.9,3.1,2c0.2,0.3,0.3,0.7,0.3,1c0,1.3-1.9,2-2.8,1.1
						s-0.4-2.7,0.8-3.1c1.2-0.4,2.7,0.4,3,1.7c0.3,1.2-0.3,2.6-1.4,3.3c-1.4,0.9-3.5,0.7-4.6-0.5c-1-1.1-1.3-2.7-1.2-4.2
						c0.1-2.9,1.1-5.8,2.8-8.1c0.4-0.6,0.9-1.1,1.6-1.4c1.1-0.5,2.3-0.1,3.4,0.5c1.4,0.7,2.6,1.8,3.3,3.2c0.7,1.4,0.7,3.2-0.3,4.5
						c-1.7,2.4-5.9,1.7-7.7-0.7c-1.8-2.4-1.8-5.6-1.4-8.6c0.3-2.1,0.8-4.3,1.9-6.1c1.1-1.8,2.9-3.4,5-3.8c2.3-0.4,4.8,0.6,6.3,2.4
						c1.5,1.8,2.3,4.1,2.5,6.5c0.1,1.4,0,2.8-0.6,4c-1.3,2.7-4.6,3.8-7.6,3.7c-2.3-0.1-4.8-0.9-5.8-2.9c-0.7-1.4-0.4-3.1,0.3-4.5
						c0.8-1.4,2-2.4,3.3-3.3c2.8-1.9,6.4-3,9.6-2c2.6,0.8,4.6,3,5.6,5.5s1.1,5.3,0.5,8c-0.3,1.3-0.8,2.7-1.7,3.7
						c-1,1-2.4,1.6-3.8,1.9c-2.5,0.5-5.3,0.3-7.7-0.6c-2.9-1.1-5.6-3.7-5.5-6.8c0.1-1.7,1.1-3.4,2.6-4.3c1.5-0.9,3.5-0.9,5-0.1
						c1.1,0.6,2,1.7,2.1,3c0,0.6-0.2,1.3-0.4,1.9c-2.7,6.8-9.7,11.6-17,11.7c-3.8,0.1-7.7-1.2-10.3-4c-2.6-2.8-3.4-7.3-1.3-10.5
						c0.7-1,1.7-2,2.9-2.2c1.2-0.2,2.5,0.3,3.5,1.1c2.3,2,2.6,5.6,1.2,8.2c-1.5,2.6-4.5,4.1-7.5,4.1c-2.2,0-4.6-0.9-5.6-2.9
						c-0.6-1.3-0.6-2.8-0.2-4.2c0.3-1.4,1.1-2.8,2.5-3.1c2-0.4,3.6,1.9,3.9,4c0.3,1.9,0.1,4.1-1,5.6c-1.1,1.6-3.4,2.5-5.2,1.6
						c-0.8-0.4-1.7-1-2.4-0.5c-0.4,0.3-0.5,0.8-0.5,1.3c-0.4,5,1.8,10.1,5.8,13.1c-1,0.5-2.3-0.5-2.4-1.6c-0.2-1.1,0.5-2.2,1.4-2.9
						c1.2-1.1,3-1.6,4.5-1.1c1.6,0.5,2.8,2,2.6,3.6s-1.9,2.9-3.4,2.5c-1.2-0.4-2-1.7-2-3s0.5-2.6,1.2-3.7c0.8-1.3,1.7-2.4,2.8-3.4
						c0.9-0.9,2.1-1.7,3.4-1.3c1.3,0.3,1.9,1.8,1.8,3.1c-0.2,3-3.6,4.7-6.6,5.2c-2.8,0.5-5.7,0.4-8.5,0.1c-2.7-0.4-5.5-1.1-7.7-2.9
						c-2.1-1.8-3.4-4.8-2.5-7.4c-0.4,0.6-0.8,1.2-1.2,1.8c0.7-6.8,1.4-13.7,2.1-20.5c0.3-3.3,0.7-6.7,2-9.7c1.3-3.1,3.6-5.9,6.8-6.9
						c-0.6,0.1-1.2,0.2-1.7,0.2c2.6-2,5.9-3.1,9.2-3.1c1.8,0,3.7,0.4,5.5,0.4c3.1-0.1,6.3-1.2,9.2-0.2c0.3,0.1,0.7,0.3,0.9,0.6
						c0.2,0.4,0,0.9-0.2,1.4c-4.5,8.6-11.8,15.6-20.5,19.8c-0.8,0.4-1.6,0.7-2.1,1.4c-0.4,0.5-0.7,1.1-0.9,1.7
						c-1,2.4-1.9,4.7-2.9,7.1c-0.3,0.7-0.6,1.5-0.4,2.3c0.2-5.2,2.3-10.2,4.7-14.9c1.2-2.3,2.5-4.6,4.4-6.5c1.9-1.8,4.3-3.2,7-3.3
						c0.9,0,1.8,0.1,2.4,0.8c0.4,0.4,0.6,1,0.6,1.5c0.2,1.7-0.8,3.3-2.1,4.3c-1.3,1-3,1.6-4.6,2c-0.9,0.2-2.1,0.4-2.7-0.3
						c-0.9-0.9-0.3-2.3,0.3-3.3c2.6-4.1,6.6-7.2,11.1-8.7c1.8-0.6,3.7-0.9,5.4-0.2c2,0.8,3.2,2.8,3.8,4.9c1.1,3.7,0.4,7.9-1.7,11.1
						c-0.8,1.2-1.8,2.3-3.1,2.8c-1.3,0.5-3,0.3-3.9-0.8c-0.5-0.6-0.7-1.4-0.7-2.3c-0.1-2,0.9-3.9,2.1-5.5c2-2.7,4.8-4.7,7.9-5.9
						c1.9-0.7,4.2-0.9,5.6,0.5c1,1,1.2,2.5,0.9,3.8c-0.6,2.9-3.5,5.2-6.4,5.1c-0.9,0-1.8-0.3-2.5-0.9c-1.1-1.1-1.1-2.8-0.7-4.3
						c1.1-4.6,4.8-8.4,9.3-9.7c0.6-0.2,1.3-0.3,1.9,0c0.8,0.5,0.9,1.5,0.8,2.4c-0.3,2.1-1.3,4.2-2.9,5.6c-0.8,0.8-1.9,1.4-3,1.4
						c-1.7-0.1-3-1.7-3.1-3.4c0-1.7,1-3.3,2.3-4.3c1.3-1.1,2.9-1.7,4.5-2.3c1-0.4,2.3-0.7,3.2-0.1c0.6,0.4,0.8,1.2,1,1.9
						c0.4,1.6,0.8,3.3,1.3,4.9c-1.3-0.8-2.6-1.6-3.9-2.5c-3.3-2-7-4.7-7-8.6c0-1.1,0.4-2.4,1.3-3s2.5-0.3,2.9,0.7
						c0.3,0.9-0.3,1.9-1.2,2.3c-0.9,0.4-1.9,0.3-2.8,0.1c-0.1,0-0.2-0.1-0.3-0.1c-0.3-0.3,0-0.8,0.2-1c1.7-1.6,4.3-2,6.4-0.9
						s3.2,3.5,2.8,5.8c1.8-0.5,3.6-1,5.4-1.6c-1.6-1.4-3.2-2.8-4.8-4.2c3,1.2,6.2,1.9,9.4,2.1c3.1,0.2,6.3,0,9.4,0.5
						c3.1,0.5,6.3,1.8,8,4.4c-0.3-0.5-0.6-1-0.9-1.6c1.9,2.1,3.4,4.5,4.3,7.2c0.2-0.5,0.5-1,0.7-1.4c-0.3,3.9,0,7.8,0.9,11.7
						c0.2-1.7,0.2-3.5,0.1-5.2c-0.1,2.6-0.1,5.2-0.2,7.8c-0.1,2-0.1,4.1-1,5.9c-1.6,3.3-5.6,4.9-9.2,4.6c-3.6-0.3-6.9-2.3-9.8-4.5
						c-2.7-2.1-5.3-4.6-6.9-7.6c-1.5-2.7-2-6.4,0-8.7c1-1.1,2.4-1.7,3.8-1.8c3-0.3,6.2,1.5,7.4,4.2c1,2.1,0.6,5.1-1.5,6.2
						c-1.4,0.7-3.2,0.4-4.5-0.5s-2.3-2.2-3.1-3.6c-0.5-0.7-0.9-1.5-0.7-2.4c0.2-0.5,0.6-0.9,1-1.2c2.6-2.2,6.2-4.1,9.4-2.7
						c1.9,0.8,3.2,2.6,4,4.5c0.9,1.9,1.3,4,1.4,6.1c0,1.6-0.2,3.2-0.9,4.6c-0.8,1.4-2.1,2.5-3.7,2.6c-2.1,0.2-4-1.5-5.1-3.3
						c-2-3.4-2-8.1,0.3-11.4c1.5-2.1,4.3-3.7,6.7-2.8c2.6,1,3.6,4.2,3.8,7c0.3,4.4-0.5,9-2.2,13"/>
					<g>
						<path class="st1" d="M99,147.8c-2.1-0.6-4.1-1.2-6.2-1.9c0.9-1.2,1.8-2.4,2.8-3.6c2.1,3.2,3.2,3.9,3.2,1.9
							c0.1-0.7,0.2-1.4,0.5-2c0.2-0.4,0.4-0.8,0.6-1.2c-3.6,0.4-3.3-0.2,0.7-1.9c0.2-0.5-0.3-1.9-0.3-2.6c0-1.2,0.2-2.6,0.6-3.8
							c0.1-0.3,0.8-2.5,1.7-2.4c0.9,0.1,1.7,2.2,1.7,2.9c-0.2,2.9-1.8,0.4-3.1,1.5c0.9,0.9,1.7,1,2.4,0.3c0.6-0.4,1.2-0.7,1.9-0.9
							c1.2-0.3,2.2-0.4,3.2,0.5c1.2,1,2.2,5.4,0.8,6.6c-0.8,0.7-3,0.4-4,0.1c-0.7-0.1-1.3-0.4-1.8-0.8c-0.5-0.5-0.9-0.4-1.4,0.3
							c-2.3-1.2-1-3.2-3-0.4c-0.8,1.2-1.8,2.2-3,3c-3.2,2.3-11.2,4.6-13.4-0.2c-0.2-0.4-0.2-2.4-0.3-2.5c-1.9-1.6-2.8,0.9-3.7,1.7
							c-1.2,1-6.3,1.6-6.5,1.5c2.5,0.4,0.6-0.5-0.8-0.7c-6.1-1-8.8,4.3-8.5,9.5c0.3,5.9,3.1,11.3,7.5,15.1c1.4-3.4,2.8-6.8,4.2-10.2
							c0.7,7.1,3,8,6.9,2.8c0.5-0.8,1.1-1.6,1.9-2.2c1.3-6.1-6.3-3.2-8.2-3.1c-1.6,0.2-11,0.2-10.3-2.9c1.5-6.6-7.3-10.5-11-4.6
							c-0.4,0.6-0.8,1.2-1.2,1.8c3.7,1,7.5,2,11.2,3c0.6-5.9,1.2-11.8,1.8-17.7c0.4-3.8,0.2-11.8,4.6-13.6c7.2-3,4.5-12.6-3.2-11.6
							c-0.6,0.1-1.2,0.2-1.7,0.2c1.5,3.7,3.1,7.3,4.6,11c3.3-2.3,6-2.1,9.8-1.9c1.9,0.1,7.3-1.5,8.8-0.3c-1-1.7-2-3.5-3-5.2
							c0.1,1.2-5.1,6.7-6.6,8.2c-2.7,2.7-5.8,5-9.1,6.8c-3.2,1.7-5.5,3-7.2,6.3c-1.9,3.6-4.1,8.3-4.1,12.4c-0.1,7.8,11.4,7.6,12,0
							c0.4-4.7,2.3-9.2,4.6-13.3c1.1-2,2.8-3.1,4-4.9c2.9-0.6,2.2-2-2.3-4.2c-1.7,0.6-2.1,0.7-1.2,0.2c1.2,0.9,2.4,1.8,3.6,2.8
							c-0.1-0.3-0.3-0.7-0.4-1c0.2,1.5,0.4,3.1,0.6,4.6c0.4-2.7,4.9-6.5,7.7-6.9c1.9-0.2,1.8-0.7,2.1,1.7c0.2,1.6-1.6,4.2-1.3,5.2
							c1.3,5.5,5.8-0.8,6.8-1.5c0.8-0.5,1.5-1,2.4-1.3c2.1-0.3,1.7-1.1-1.2-2.5c1.4,3,2.3,3.5,2.6,1.3c0.4-0.8,0.9-1.6,1.5-2.2
							c0.6-0.7,1.3-1.2,2.1-1.6c1.6-0.5,1.6-0.6-0.1-0.5c-1.2-0.9-2.4-1.8-3.6-2.8c-0.1-0.2-0.1-0.4-0.2-0.6
							c-1.7,1.4-1.2,2.2,1.5,2.4c1.1,1.2,2.2,1.4,3.3,0.7c0.6,0,0.9-0.1,0.8-0.4c-1.2-0.9-2.4-1.8-3.6-2.8c1,1.4,1.2,3.7,1.7,5.4
							c2.9-2.3,5.9-4.5,8.8-6.8c-1.7-1.1-3.5-2.1-5.2-3.2c-0.8-0.5-1.6-1.2-2.3-1.9c-1.3-2.3-3.5-1.9-6.6,1.2
							c-0.6-1.4-1.2-2.8-1.8-4.2c0,0.4-0.1,0.9-0.1,1.3c0.6-1.4,1.2-2.8,1.8-4.2c1.1,0,2.1,0,3.2,0c0.9,1.2,1.8,2.4,2.8,3.6
							c0-0.2-0.1-0.3-0.1-0.5c-0.2,1.5-0.4,3.1-0.6,4.6c-0.4,0.6-0.9,1.1-1.6,1.3c-0.1,3.9,3.9,6.8,7.6,5.8c1.8-0.5,3.6-1,5.4-1.6
							c4.1-1.2,6.1-6.9,2.6-10c-1.6-1.4-3.2-2.8-4.8-4.2c-1.9,3.3-3.9,6.7-5.8,10c4.2,1.5,8.4,2.2,12.9,2.4
							c4.2,0.2,8.5-0.4,11.3,3.1c4.3,5.4,12.7-1.5,9.4-7.3c-0.3-0.5-0.6-1-0.9-1.6c-3.1,2.4-6.3,4.8-9.4,7.3
							c1.2,1.4,2.1,2.9,2.7,4.6c1.7,4.3,8.5,6.5,11,1.4c0.2-0.5,0.5-1,0.7-1.4c-3.7-1-7.5-2-11.2-3c-0.2,4.5,0.2,8.9,1.1,13.3
							c1.5,7,11.2,4.7,11.8-1.6c0.2-1.8,0.2-3.4,0.1-5.2c-0.4-7.7-11.8-7.8-12,0c-0.1,2.6,1.1,9.6-1.1,11.6c-2.4,2.3-7-0.7-8.9-2.1
							c-1.8-1.3-6.7-5-6.4-7.5c0.3-2-0.2,1,0.8,0c0.9,0.8,1.9,0.2,2.8-1.7c-0.9-1.6-1.2-1.8-0.8-0.6c-0.6,1.4-1.2,2.8-1.8,4.2
							c2.3-2.9,4.5-3.2,5.3,0.8c0.2,1-0.6,3.8,0.8,2.7c1-0.8,0.2-2.2,0.2-3.7c0-0.6,0.3-1.2,0.7-1.7c-0.3-0.2-0.7-0.5-1-0.7
							c0.2,1.3,0.5,1.9,0.5,3.4c0.1,3.4-0.8,6.6-2.1,9.8c-2.9,7.2,8.7,10.3,11.6,3.2c3.1-7.6,5-21-3.3-26.3
							c-8.8-5.6-18,3.6-18.5,12.3c-0.5,8.6,7.2,19.4,16.7,14.7c8.9-4.4,7.7-17.9,2.2-24.5c-3-3.7-7.5-5.3-12.2-4.3
							c-4.2,0.9-9.8,4.1-11,8.5c-2.8,9.6,12,18.9,19.2,11.6c6.5-6.7,1.1-17.4-6.9-19.6c-10.3-2.8-17.7,7-14.4,16.5
							c3.2,9.2,14.6,17.9,24.4,17.8c4.7-0.1,9.7-2.4,12.3-6.4c3.4-5.1,2.6-12.1,2.8-17.9c-4,0-8,0-12,0c0.1,1.8,0,3.4-0.1,5.2
							c3.9-0.5,7.9-1.1,11.8-1.6c-0.7-3.4-0.9-6.6-0.7-10.1c0.3-5.8-8.6-8.4-11.2-3c-0.2,0.5-0.5,1-0.7,1.4c3.7,0.5,7.3,1,11,1.4
							c-1.5-3.8-3.2-6.8-5.8-9.9c-4.5-5.3-12.7,1.5-9.4,7.3c0.3,0.5,0.6,1,0.9,1.6c3.1-2.4,6.3-4.8,9.4-7.3
							c-7.2-9-19.9-5.2-29.5-8.6c-5.6-2-10.2,6.1-5.8,10c1.6,1.4,3.2,2.8,4.8,4.2c0.9-3.3,1.8-6.7,2.6-10c-1.8,0.5-3.6,1-5.4,1.6
							c2.5,1.9,5.1,3.9,7.6,5.8c0.3-9.6-11.1-16.5-18.8-9.6c-8.4,7.5,5,16.9,11.7,9.1c7.3-8.5-7.3-18-12.9-8.5
							c-5.8,9.7,5.7,17.2,12.6,21.5c4.5,2.8,10.1-1.8,8.8-6.8c-1.4-5.6-3-12.1-10.1-11.5c-6.2,0.5-13,5.2-13.7,11.7
							c-0.6,5.3,3.3,10.5,8.9,10.7c6.5,0.1,11.6-7,11.9-13c0.3-6.8-5.7-9.9-11.6-7.8c-5.4,1.9-10,6.6-11.8,12.1
							c-1.8,5.5-0.4,11.8,5.7,13.7c5.5,1.7,11.6-1.5,14.2-6.5c2.8-5.3,0.9-12.4-5-14.5c-5.7-2-12.4,1.6-16.5,5.5
							c-3.8,3.6-7,9.3-5.4,14.7c2.1,6.9,10.6,8.2,15.7,3.8c8.2-7.1,8.4-25.9-4.2-28.5c-9-1.9-27.7,9.7-22.8,20.5
							c6.7,14.7,32-8,16.4-15.4c-7-3.3-14.6,2.1-18.5,7.7c-4.4,6.4-7.3,14.2-7.9,22c4,0,8,0,12,0c0-3,2.1-6.8,4.7-8
							c3.2-1.4,6.2-3.8,8.8-6c5-4.2,10.3-9.9,12.8-16c3-7.5-4.1-11.1-10.6-10.6c-7.9,0.5-15.5-0.7-22.4,4c-5.9,4-2,11.9,4.6,11
							c0.6-0.1,1.2-0.2,1.7-0.2c-1.1-3.9-2.1-7.7-3.2-11.6c-7.3,3-11.2,8.9-12.4,16.7c-1.4,8.6-1.9,17.5-2.8,26.2
							c-0.6,6.3,8.3,7.6,11.2,3c0.4-0.6,0.8-1.2,1.2-1.8c-3.7-1.5-7.3-3.1-11-4.6c-3.7,16.5,19.7,22.4,31.2,15.7
							c5.9-3.4,8.3-12.2,2-16.6c-6.1-4.4-12.9,1.5-15.7,6.9c-3.2,5.9-1.3,14.5,6.3,15.1c7.2,0.7,11.8-7.8,8-13.7
							c-3.8-5.8-12.3-5.7-16.6-0.6c-4.6,5.4-1.6,14.3,6.1,13.9c4.8-0.2,8.4-6.7,4.2-10.2c-1.3-1.1-5.2-5.9-4.3-7.2
							c-1.7,1-3.5,2-5.2,3c-1.8,0.1,1.4,0.5,1.9,0.6c0.9,0.2,1.8,0.2,2.7,0.2c2.3-0.2,4.6-1.2,6.4-2.8c3.6-3.3,4.5-9,3-13.6
							s-6-8.1-11-6.9c-5.3,1.3-7.8,7.6-7,12.5c1.7,11.4,17,11.7,23.3,4.1c6.4-7.6,1.2-22.5-10.1-19.9c-11,2.6-9.9,17.5-3.2,23.7
							c7.5,6.9,19.5,5.7,27.3,0.2c6.7-4.8,14.9-17.4,4.5-23.1c-9.5-5.3-20.4,5.5-15.3,15.1c4.5,8.5,18.9,11.4,25.8,4.2
							c7.1-7.2,4.2-21.3-4.4-26c-8.6-4.8-22.5,1.3-23.7,11.4c-1.3,11.4,13.3,14.6,21.1,9.3c8.5-5.8,5.8-19.9-2.6-24.5
							c-10.7-5.8-19,4.7-20,14.4c-0.5,4.8,0.2,10.1,3.9,13.6c3.4,3.2,8.9,4.1,12.9,1.8c9.7-5.5,3.4-19.7-6.3-20.5
							c-11.3-0.9-16.7,18.7-8.2,25c4.3,3.2,10.8,2.2,13.7-2.5c3.2-5.1,0.3-12.1-5.7-13.1c-5.6-0.9-10.5,4.3-9.1,9.8
							c1.3,5.1,7.5,7.1,11.7,4.2c4.9-3.4,3.6-10-0.8-13.3c-4.9-3.6-12.4-1.1-13.4,5.2C86.2,152.2,97.8,155.5,99,147.8L99,147.8z"/>
					</g>
				</g>
				<g>
					<g>
						<path class="st0" d="M46.3,274.4c-1.2-0.4-2.6-0.1-3.5,0.8c-0.4,0.4-0.9,0.9-1.5,0.8c0-0.1,0.1-0.3,0.3-0.3
							c0.1,0,0.2,0.2,0.2,0.3c-0.3,0-0.6-0.1-0.9-0.1c0.7,0.7,1.9,0.4,2.9,0.3c2.1-0.1,4.1,1.2,6.2,1.1c0.2,0,0.4,0,0.6-0.2
							c0.2-0.2,0.3-0.5,0.3-0.9c0-1.4,0.1-2.9,0.1-4.3"/>
						<g>
							<path class="st1" d="M46.7,273.3c-0.9-0.2-1.8-0.3-2.7,0c-0.8,0.2-1.8,1.5-2.5,1.5c0.4,0.5,0.8,1,1.2,1.5
								c0-0.1,0-0.1,0.1-0.2c-0.3,0.3-0.6,0.6-0.8,0.8c-0.4-0.2-0.7-0.4-1.1-0.6c0.4-0.5,0.8-1,1.2-1.5c-0.3,0-0.6-0.1-0.9-0.1
								c-1.3-0.1-1.5,1.6-0.6,2.2c1.1,0.8,2.2,0.5,3.5,0.5c1.8,0,3.5,0.9,5.2,1c3.9,0.4,3-3.8,3.1-6.5c0-1.5-2.4-1.5-2.4,0
								c0,1.1,0.2,2.5-0.1,3.6c-0.2,0.9,0.2,0.5-0.7,0.5c-0.6,0-1.1-0.3-1.7-0.4c-0.8-0.2-1.6-0.5-2.5-0.5c-0.9-0.1-2.4,0.3-3.2-0.2
								c-0.2,0.7-0.4,1.5-0.6,2.2c0.3,0,0.6,0.1,0.9,0.1c0.8,0.1,1.3-0.8,1.2-1.5c-0.3-1.6-2.3-1.4-2.8,0c-0.3,0.7,0.4,1.6,1.2,1.5
								c1.8-0.2,2.7-2.1,4.6-1.6C47.5,276,48.2,273.6,46.7,273.3L46.7,273.3z"/>
						</g>
					</g>
					<g>
						<g>
							<path class="st0" d="M106.7,167.9c-0.7,0.7-2,0.4-2.7-0.4c-0.7-0.7-0.9-1.8-1-2.8c-0.2-1.4-0.3-2.9,0.4-4.2
								c0.8-1.6,2.4-2.5,3.9-3.3c6.1-3.1,12.8-4.9,19.7-5.5c1.1-0.1,2.4-0.1,3.2,0.7c0.9,1,0.7,2.6,0.2,3.8c-1,2.5-2.5,4.8-4.5,6.6
								c1.3,0.8,2.8-0.5,3.7-1.6c5-6.2,8.2-13.9,9.3-21.8c1.5,1.3,2.4,3.3,2.3,5.3c-0.5-2.1-1-4.2-1.4-6.3
								c-1.4,13-0.1,26.1,1.2,39.1c-1.9-3.3-3.6-6.8-4.9-10.4c1.1,6.1,2.6,12.1,4.5,18c0.3,0.9,0.6,1.7,1.2,2.4
								c0.6,0.7,1.6,1.1,2.4,0.8c1.2-0.5,1.5-2,1.5-3.2c0.1-2.6-0.1-5.3-0.5-7.9c0.6,1.6,1,3.2,1,4.9c-0.8-4.3-1.6-8.6-2.4-12.8
								c0.8,1.2,1.2,2.6,1,4c-1.2-7.6-2.3-15.2-3.5-22.8c1.2,2.2,1.7,4.7,1.6,7.2c-0.8-2.8-1.3-5.7-1.7-8.6c1.3,1,1,3.3-0.2,4.4
								s-3,1.4-4.7,1.3c-4.6-0.1-9.7-1.7-13.6,0.8c-2,1.2-3.3,3.3-4.5,5.4c-2.8,4.8-5.3,9.8-7.6,15c-0.3-5,2-9.8,2.9-14.7
								c0.1-0.3,0.1-0.7,0-1c-0.4-0.8-1.6-0.5-2.4,0c-4.4,2.9-7.6,7.6-12.5,9.5c-1.4,0.5-3.2,0.7-4.3-0.3c-0.7-0.7-1-1.7-1.1-2.6
								c-0.8-4.4-0.2-9.1,1.5-13.2c1.3,4.2,0.2,9-2.7,12.3c-1.2,1.4-3.4,2.5-4.8,1.3c-0.6-0.5-0.8-1.3-0.9-2.1
								c-0.7-3.9,0.7-8,3.6-10.7c1,3.3-1.3,6.7-3.5,9.4c-0.4,0.6-0.9,1.1-1.6,1.4c-1.3,0.5-2.7-0.3-4-0.6c-2-0.5-4.3,0.1-5.8,1.6
								c1.1,2.6,2.3,5.3,3.4,7.9c2.9,6.8,5.9,13.5,9.7,19.8c-0.1-5.1-0.2-10.2-0.3-15.3c0-1.6-0.1-3.3,0.5-4.8
								c4,5,6.3,11.2,6.6,17.6c0,0.5,0,1.1-0.3,1.6c-0.8,1.3-2.8,0.6-3.9-0.5c-3.9-3.7-5.1-10.1-2.6-15c0.8-1.6,2.1-3.2,3.9-3.4
								c1.5-0.2,3.1,0.5,4.2,1.7c1.1,1.1,1.7,2.6,2.2,4.1c1.8,5,2.6,10.4,2.3,15.7c-2.1-0.4-3.4-2.5-4-4.6c-1-3.5-0.7-7.3,0.8-10.5
								c0.8-1.8,2.5-3.6,4.4-3.3c2,0.3,3,2.6,3.4,4.5c1.1,5.3,0.6,11-1.4,16.1c-3-6.3-2-14.4,2.6-19.6c0.9,1.3,0.7,3.1,0.5,4.6
								c-0.5,3.8-1,7.7-1.6,11.5c1.2-5.7,3.3-11.3,5.9-16.5c-1.1,5.7-2.1,11.4-2.1,17.2c1.9-7.8,4.7-15.3,8.4-22.4
								c-0.2,3.6-0.8,7.2-1.8,10.7c1.2-5.5,3.2-10.8,6-15.7c0.3,1.5,0.3,3.2-0.2,4.7c0.4-1.3,0.8-2.5,1.2-3.8
								c-0.7,3.1-1.1,6.2-1.3,9.3c0.4-2.6,0.9-5.2,1.3-7.8c-1.6,4.8-2.4,9.9-2.6,14.9c0.3-1.9,0.7-3.8,1-5.7
								c-0.8,5.3-1.5,10.7-2.3,16c0.6-0.7,0.9-1.7,0.6-2.5c-0.4,3.1-0.8,6.1-1.1,9.2"/>
							<g>
								<path class="st1" d="M103.6,162.8c-0.3,0.1-0.6,0.2-0.9,0.4c1.5-0.2,3.1-0.4,4.6-0.6c0.8,0.1,1.1,0.6,1.8,0.6
									c0.8-0.1,2-1,2.7-1.4c2.4-1.1,4.9-1.9,7.4-2.6c1.6-0.4,5.7-0.4,6.8-1.3c1.4,0.1,1.3-0.4-0.4-1.6c-0.7-1.8-1.2-2-1.6-0.8
									c-0.6,0.3-2,2.7-2.5,3.2c-4,4.1-0.7,9.6,4.2,10.2c6.3,0.8,10.2-5.8,12.9-10.5c3-5.4,5-11.2,5.9-17.3
									c-3.3,0.9-6.7,1.8-10,2.6c0.2,0.3,0.4,0.7,0.6,1c3.9-0.5,7.9-1.1,11.8-1.6c-0.5-2.1-1-4.2-1.4-6.3c-1.6-7-11.2-4.7-11.8,1.6
									c-1.3,13.1-0.1,26.1,1.2,39.1c3.7-1,7.5-2,11.2-3c-1.6-2.9-3.1-5.8-4.3-9c-2.8-7.2-13-4.5-11.6,3.2c1,5.2,2.2,10.3,3.7,15.4
									c1.2,4.1,2.7,8.7,7.3,10c11.4,3.2,10.6-11.9,9.6-18.5c-3.9,1.1-7.7,2.1-11.6,3.2c0.4,1.1,0.7,2.2,0.8,3.3
									c3.9-0.5,7.9-1.1,11.8-1.6c-0.8-4.3-1.6-8.6-2.4-12.8c-3.7,1.5-7.3,3.1-11,4.6c0,0.3,0.1,0.7,0.1,1
									c3.9-0.5,7.9-1.1,11.8-1.6c-1.2-7.6-2.3-15.2-3.5-22.8c-3.7,1.5-7.3,3.1-11,4.6c0.6,1.4,0.8,2.7,0.8,4.2
									c3.9-0.5,7.9-1.1,11.8-1.6c-0.6-2.3-1.2-4.6-1.5-7c-3.7,1-7.5,2-11.2,3c2.1-2.5,2.2-3.6,0.3-3.3c-1,0-2.1-0.1-3.1-0.2
									c-1.6-0.1-3.1-0.4-4.7-0.4c-3.9,0-7.5,1-10.5,3.5c-6,5-9.4,14.3-12.5,21.2c3.7,1,7.5,2,11.2,3c0-5.2,3-10,2.9-15.2
									c0-4.8-4.6-7.9-9.1-6.7c-4,1.1-7.1,5-10.1,7.6c-0.5,0.4-2.4,1.5-2.8,2c-1,0.3-0.8,0.6,0.4,1c1.2,1.1,1.5,0.7,0.9-1.2
									c0.6-2.8,0.6-5.5,1.6-8.3c-3.9,0-7.7,0-11.6,0c0.3,1.2,0.4,2.2,0.2,3.4c-0.1,0.5-1.4,3-1.3,3.1c1.4,0.7,2.9,1.3,4.3,2
									c0-0.4,0-0.9,0-1.3c0.8-1.5,0.7-2.3,2-3.6c-3.3-0.9-6.7-1.8-10-2.6c-0.2,0.9-0.5,1.6-1.1,2.3c-1.4,1.4-1.2,1.7,0.7,0.9
									c-1.3,0-2.8-0.8-4.2-0.8c-3.4,0-6.2,1.4-8.8,3.5c-2.2,1.8-1.9,5-0.9,7.3c4.1,9.4,7.9,18.9,13.1,27.7c3,5,11.3,3,11.2-3
									c-0.1-5.8-1.3-12.9,0-18.5c-3.7,0.5-7.3,1-11,1.4c1.6,2.1,3.1,4.3,4.1,6.8c0.4,1,0.7,2,1,3s0.1,3.7,1.4,2.6
									c1.4-0.6,2.8-1.2,4.2-1.8c0.3,0-0.9-2.9-1-3.5c-0.1-0.8,0.3-1.7,0.1-2.4c0.1-0.4,0.2-0.7,0.3-1.1c-1.3-0.9-1.6-0.8-1,0.2
									c-0.2,1.5,1.7,5,2,6.7c0.5,2.7,0.6,5.4,0.5,8.1c2.5-1.9,5.1-3.9,7.6-5.8c0.9,0.4-0.2-2.1-0.1-3.4c0.1-1,0.3-2,0.6-2.9
									c-3-2.3-4.1-2.3-3.1-0.2c-0.5,1.7,0.5,4.7,0.3,6.6c-0.2,2.2-0.9,4.3-1.7,6.3c3.7-0.5,7.3-1,11-1.4c-1.7-4-1-9,1.7-12.4
									c-3.3-0.9-6.7-1.8-10-2.6c1.3,3.5-0.5,9.4-1,13c-1.1,7.4,9.8,10.9,11.6,3.2c1.2-5.3,2.9-10.2,5.3-15.1
									c-3.7-1.5-7.3-3.1-11-4.6c-1.2,6.2-2.2,12.4-2.3,18.8c0,6.7,10.1,8.2,11.8,1.6c1.9-7.3,4.4-14.3,7.8-21c-3.7-1-7.5-2-11.2-3
									c-0.2,3.1-0.8,6.1-1.6,9.1c3.9,1.1,7.7,2.1,11.6,3.2c1.2-5,2.9-9.7,5.4-14.2c-3.7-0.5-7.3-1-11-1.4c-0.1,0.5-0.1,1-0.2,1.5
									c-1.7,7.5,9.2,10.6,11.6,3.2c0.4-1.3,0.8-2.5,1.2-3.8c-3.9-1.1-7.7-2.1-11.6-3.2c-0.8,3.6-1.3,7.2-1.5,10.9
									c-0.5,6.7,10.6,8.3,11.8,1.6c0.4-2.6,0.9-5.2,1.3-7.8c1.3-7.5-9.3-10.7-11.6-3.2c-1.6,5.4-2.5,10.9-2.8,16.5
									c-0.3,6.7,10.6,8.3,11.8,1.6c0.3-1.9,0.7-3.8,1-5.7c-3.9-1.1-7.7-2.1-11.6-3.2c-0.8,5.3-1.5,10.7-2.3,16
									c-0.9,6.2,7.5,11.2,11,4.6c1-1.9,1.5-3.4,1.4-5.6c0-7.9-11.1-7.5-12,0c-0.4,3.1-0.8,6.1-1.1,9.2c-0.9,7.6,11.1,7.6,12,0
									c0.4-3.1,0.8-6.1,1.1-9.2c-4,0-8,0-12,0c0.1-0.2,0.1-0.3,0.2-0.5c3.7,1.5,7.3,3.1,11,4.6c0.8-5.3,1.5-10.7,2.3-16
									c1.1-7.5-10.2-10.9-11.6-3.2c-0.3,1.9-0.7,3.8-1,5.7c3.9,0.5,7.9,1.1,11.8,1.6c0.2-4.6,1-8.9,2.4-13.3
									c-3.9-1.1-7.7-2.1-11.6-3.2c-0.4,2.6-0.9,5.2-1.3,7.8c3.9,0.5,7.9,1.1,11.8,1.6c0.2-2.6,0.5-5.1,1.1-7.7
									c1.6-7.5-9.2-10.6-11.6-3.2c-0.4,1.3-0.8,2.5-1.2,3.8c3.9,1.1,7.7,2.1,11.6,3.2c0.6-2.8,0.6-5.1,0.2-7.9
									c-0.7-5.2-8.7-5.6-11-1.4c-2.9,5.4-5.2,11.1-6.6,17.1c-1.8,7.5,9.5,10.7,11.6,3.2c1.1-4,1.8-8.1,2-12.3
									c0.4-5.9-8.6-8.3-11.2-3c-3.8,7.6-6.9,15.6-9,23.9c3.9,0.5,7.9,1.1,11.8,1.6c0-5.3,0.9-10.4,1.9-15.6
									c1.2-6.2-7.7-11.1-11-4.6c-2.9,5.7-5.1,11.7-6.6,17.9c3.9,1.1,7.7,2.1,11.6,3.2c0.9-5.9,3.2-13.6,1-19.4
									c-1.4-3.7-6.9-6.6-10-2.6c-6.4,8.1-7.6,17.5-3.6,26.9c2.2,5.2,9.4,2.8,11-1.4c2.2-6,3-13,1.4-19.3
									c-1.5-5.9-6.5-10.7-12.9-8.3c-12,4.5-10.2,25.3,0.8,29.5c3.8,1.5,7.5-2.2,7.6-5.8c0.2-8.6-1.1-23.7-10.9-26.9
									c-10.1-3.3-15.9,8.3-14.9,16.8c0.9,7.2,8.9,19.2,17.1,12.4c7.4-6-0.2-21.2-4.6-27c-2.9-3.8-9.6-4.1-11,1.4
									c-1.7,6.9-0.6,14.7-0.5,21.7c3.7-1,7.5-2,11.2-3c-5.2-8.8-9.1-18.3-13.1-27.7c-0.3,2.4-0.6,4.8-0.9,7.3
									c0.2-0.2,4.5,0.9,5.6,0.8c2.8-0.3,4.5-1.7,6.3-3.8c3.7-4.4,5.5-9,4.6-14.6c-0.7-4.5-7.1-5.7-10-2.6
									c-5.3,5.6-9.8,21.8,1.9,23.4c11.1,1.4,14.9-13.4,13-21.6c-1.5-6.2-9.6-5.1-11.6,0c-2.7,7.1-4.6,21.5,5.3,23.9
									c3.9,1,8-0.8,11.1-3c1.6-1.1,3.1-2.4,4.5-3.7c0.9-0.8,1.8-1.7,2.7-2.4c0.3-0.3,0.7-0.6,1.1-0.9c1.6-1,0.5-1.1-3.1-0.4
									c-1-1.7-2-3.5-3-5.2c0.1,2.4-1.3,5.2-1.9,7.5c-0.7,2.7-1,5.4-1,8.2c0,5.6,8.7,8.7,11.2,3c2.1-4.8,4.5-9.6,7.1-14.2
									c1.1-1.8,1.9-3.9,4.1-4.5c2.1-0.5,4.9,0.2,6.9,0.4c3.9,0.3,8.3,0,11.3-3c3.1-3.1,3.7-8.1,1.1-11.7c-3-4.2-12.1-3.6-11.2,3
									c0.5,3.4,1,6.8,1.9,10.2c1.7,6.5,11.8,5.2,11.8-1.6c0-3.8-0.9-6.9-2.4-10.3c-3.1-6.7-11.9-1.5-11,4.6
									c1.2,7.6,2.3,15.2,3.5,22.8c1.1,6.8,11.7,5,11.8-1.6c0-2.7-0.6-4.7-1.8-7.1c-3.3-6.4-12.2-1.7-11,4.6
									c0.8,4.3,1.6,8.6,2.4,12.8c1.2,6.6,12.5,5.2,11.8-1.6c-0.2-2.3-0.5-4.4-1.3-6.5c-2.5-7.5-12.6-4.3-11.6,3.2
									c0.2,1.3,0.3,2.6,0.3,3.9c0,0.5,0,1.1,0,1.6c-0.1,1.1,0,1.1,0.3-0.2c1.4-0.6,2.8-1.2,4.2-1.8c2,1.8,2.6,1.9,1.9,0.4
									c-0.3-0.9-0.6-1.8-0.8-2.7c-0.4-1.5-0.9-3-1.2-4.5c-0.9-3.3-1.6-6.6-2.2-10c-3.9,1.1-7.7,2.1-11.6,3.2
									c1.6,4.1,3.4,8,5.5,11.8c2.8,4.9,11.8,3.1,11.2-3c-1.3-13-2.4-26.1-1.2-39.1c-3.9,0.5-7.9,1.1-11.8,1.6
									c0.5,2.1,1,4.2,1.4,6.3c1.5,6.5,12.5,5.2,11.8-1.6c-0.4-3.9-1.5-6.6-4.1-9.5c-2.8-3.1-9.4-1.8-10,2.6
									c-0.6,3.7-1.4,7.4-2.9,10.8c-0.6,1.5-1.4,2.9-2.2,4.3c-0.5,0.9-1.1,1.8-1.7,2.7c-1.2,1.1-1.4,1.5-0.4,1.2
									c1.4,3.4,2.8,6.8,4.2,10.2c4.7-4.8,10.5-14.7,3.1-19.9c-5.5-3.8-15.5-0.4-21.2,1.5c-6.5,2.3-14.3,5.3-15.1,13.1
									c-0.7,7.9,4.8,14.6,12.8,11.2c3-1.3,3.6-5.7,2.2-8.2C110.1,161.8,106.6,161.5,103.6,162.8L103.6,162.8z"/>
							</g>
						</g>
						<g>
							<path class="st0" d="M84.2,181.9c-0.5-2.7-1.8-5.2-3.6-7.3c-0.5-0.6-1.2-1.2-2-1.4s-1.8,0.2-1.9,1c-0.1,0.6,0.2,1.2,0.6,1.8
								c1.1,1.9,1.7,4.1,1.7,6.3c-0.5-1-0.7-2.1-0.6-3.3c0.2,1.4,0.3,2.7,0.5,4.1c0.5,4.2,1,8.4,1.9,12.5
								c3.5,15.7,13.3,29.4,18.1,44.8c-3.7-12-4.2-24.9-1.4-37.1c0.1-0.6,0.3-1.3,0.8-1.7c0.3-0.2,0.8-0.3,1.2-0.3
								c1.5,0.2,2.6,1.8,2.5,3.3s-1.1,2.9-2.3,3.7c-1.3,0.9-3,1.3-4.4,0.6c-1.3-0.6-2.1-1.9-2.5-3.3c-0.8-2.7-0.5-5.8,0.9-8.3
								c1,1.9,0.3,4.5-1.5,5.7c-0.6,0.4-1.4,0.5-1.7-0.1c-0.1-0.1-0.1-0.3-0.1-0.4c-0.2-2.4,1.9-4.5,4.2-4.9
								c2.3-0.4,4.8,0.7,6.4,2.3s2.7,3.9,3.5,6.1c1.9,5.4,2.4,11.2,2.7,16.9c0.5,8.9,0.4,17.7-0.3,26.6c-0.6-9.9,0.1-19.9,2-29.6
								c1.2-6,2.9-12,2.8-18.1c1.5,3.6,2.8,7.3,3.7,11.2c0.7-2.4,1.4-4.9,2.2-7.3c0,0.8,0,1.5,0,2.3c0.1-1.3,0.3-2.7,0.4-4
								c-0.6,3.7-0.9,7.5-0.7,11.3c-0.1-1.8,0.1-3.7,0.6-5.4c-0.2,3.5,0,7,0.4,10.5c0-1.2,0-2.4,0-3.6c0.3,0.6,0.4,1.4,0.5,2.1
								c0.4,4.8,0.8,9.6,1.2,14.4c0.2,2.6,0.4,5.2,0,7.7c-1.1,7.6-8.1,14-15.8,14.4c-2.4,0.1-4.8-0.2-7.1-0.6c-6.6-1-13.2-2-19.7-3
								c-0.3-0.1-0.7-0.1-0.9-0.4c-0.1-0.2-0.1-0.5-0.1-0.8c1-6.8,2.1-13.5,3.1-20.3c1.1-7.2,2.2-14.5,1.8-21.9
								c-0.1-2.5-0.4-5,0.2-7.4s2.4-4.7,4.8-5.1c2.2-0.3,4.3,1,5.6,2.8c1.2,1.8,1.7,4,2,6.2c0.8,6.1,0.2,12.2-0.4,18.3
								c-0.4,3.7-0.7,7.4-2.5,10.7c-0.4,0.8-1.2,1.7-2.1,1.5c-0.4-0.1-0.8-0.4-1.1-0.8c-1.4-1.7-1.6-4.2-0.6-6.2
								c0.3-0.6,0.8-1.3,1.5-1.4c1.4-0.2,2.3,1.4,2.5,2.8c0.5,3.2,0.1,6.5-1.2,9.4c-0.3,0.6-0.6,1.1-1,1.5c-0.9,0.7-2.4,0.5-3.3-0.2
								c-0.9-0.8-1.4-2-1.5-3.2c-0.2-2.3,0.5-4.6,2.1-6.3c0.3-0.3,0.7-0.7,1.1-0.8c1.2-0.2,2,1.1,2.4,2.3c0.6,2.1,0.6,4.3,0.2,6.5
								c-0.4,1.7-1.2,3.5-2.8,4.2c-1.6,0.7-3.9-0.6-3.6-2.3c0.2-1,1.1-1.7,2.1-2.2c0.8-0.4,1.7-0.7,2.6-0.5c1.3,0.3,2.1,1.8,2,3.1
								c0,1.3-0.6,2.6-1.2,3.8c4.5,2,8.9,4,13.4,6c0.6,0.2,1.1,0.5,1.8,0.4c1.3-0.2,1.9-1.7,2.2-3c1.4-5.9,2.8-12.2,7.1-16.5
								c-1.1,7.9,2.6,15.9,1.5,23.8c-0.1,0.5-0.2,1.1-0.5,1.4c-0.4,0.4-1,0.5-1.6,0.6c-7.5,0.9-15.1-0.1-22.7-1.1
								c-4.2-0.6-8.4-1.1-12.6-1.7c-1-0.1-2.4,0.1-2.3,1.1c0,0.8,1.1,1.1,1.8,1.1c1.8,0.1,3.5,0.3,5.3,0.4"/>
							<g>
								<path class="st1" d="M90,180.3c-1.4-5.7-5.5-13.8-12.5-13c-3,0.3-5.7,2.3-6.5,5.3c-1,3.6,1.8,6.3,2.1,9.7
									c3.9-0.5,7.9-1.1,11.8-1.6c-0.1-0.6-0.3-1.1-0.4-1.7c-4,0-8,0-12,0c1.3,11.1,2.8,21.6,7.2,32c4.4,10.4,10,20.2,13.5,31
									c2.3,7.3,13.8,4.3,11.6-3.2c-1.7-5.8-2.8-11.7-2.9-17.8c-0.1-2.7,0-5.4,0.2-8c0.2-2.1,0.2-6.6,1.5-8.3
									c-1.2,0.9-2.4,1.8-3.6,2.8c-1.9,0.4-1.4-6.1-0.9-7c-3.7-0.5-7.3-1-11-1.4c0.6-0.5,1.1-1,1.7-1.4c1.5,0.2,3.1,0.4,4.6,0.6
									c-0.3-0.1-0.5-0.3-0.8-0.4c0.9,1.2,1.8,2.4,2.8,3.6c-1,1.4-0.8,2.4,0.5,2.8c0.6,0.7,1.1,1.4,1.5,2.3c0.7,1.4,1.1,3,1.5,4.5
									c1,3.9,1.3,8,1.5,12c0.5,8.9,0.3,17.7-0.3,26.6c4,0,8,0,12,0c-0.4-8.1-0.2-16.3,1.1-24.4c1.3-7.8,3.6-15.4,3.7-23.4
									c-3.9,0.5-7.9,1.1-11.8,1.6c1.5,3.7,2.7,7.3,3.7,11.2c1.5,5.9,9.9,5.5,11.6,0c0.7-2.4,1.4-4.9,2.2-7.3
									c-3.9-0.5-7.9-1.1-11.8-1.6c0,0.8,0,1.5,0,2.3c-0.1,7.9,11.2,7.5,12,0c0.1-1.3,0.3-2.7,0.4-4c0.7-6.7-10.8-8.3-11.8-1.6
									c-0.7,4.3-1,8.5-0.9,12.9c0.3,7.7,12.1,7.8,12,0c-0.1-1.3,0-2.6,0.4-3.8c-3.9-0.5-7.9-1.1-11.8-1.6c-0.1,3.5,0,7,0.4,10.5
									c0.8,7.5,12.1,7.9,12,0c0-1.2,0-2.4,0-3.6c-3.9,0.5-7.9,1.1-11.8,1.6c1.5,4.4,1.1,10.3,1.4,14.9c0.4,5,0.5,9.8-3.6,13.4
									c-3.8,3.3-8,3-12.6,2.3c-3-0.4-5.9-0.9-8.9-1.3c-2.7-0.4-6.9-0.2-9.3-1.3c1,1.7,2,3.5,3,5.2c-0.2-3.3,0.9-7,1.4-10.2
									c0.5-3.4,1-6.8,1.6-10.1c1-6.9,2.1-13.8,2-20.7c0-1.9-0.3-3.7-0.3-5.6c0-0.9,0.6-2.9,0.1-2.8c0.4,0,1,7.4,1,8.6
									c0,3.7-0.3,7.3-0.6,11c-0.2,1.7-0.3,3.3-0.5,5c-0.1,0.8-1.5,3.8,0.1,3.3c1.5,0.2,3.1,0.4,4.6,0.6c1,0.6,0.9,1.3-0.2,2
									c-1.5,0.2-3.1,0.4-4.6,0.6c-1.6-2-2.2-1.9-1.7,0.2c0,0.8-0.2,1.6-0.4,2.4c-0.9,2.2,0.8,2.5,5.1,0.8c0.5-1.2,0.6-1.4,0.3-0.8
									c-1.5,0.2-3.1,0.4-4.6,0.6c-3.3-0.7-0.8,3.6-2,6c-1.3,2.7-1,6.8,2.2,8.2c4.4,2,8.9,4.2,13.4,6c3.5,1.4,6.9,1.8,9.9-0.9
									c5.3-4.7,3.7-13.8,8.4-19.2c-3.4-1.4-6.8-2.8-10.2-4.2c-0.4,4,0.1,7.9,0.7,11.8c0.6,3.8,1.9,8.2,0.5,11.9
									c0.9-1.2,1.8-2.4,2.8-3.6c-2,1.2-8.6,0.1-10.9-0.1c-4.1-0.3-8.1-0.9-12.2-1.4c-5.5-0.7-15.1-4-18.3,2.6
									c-0.9,1.8-1.3,4.3,0,6.1c3.3,4.3,7.3,4.1,12.3,4.6c7.7,0.6,7.7-11.4,0-12c-1.6-0.1-3.3-0.1-4.9-0.5c1.2,0.9,2.4,1.8,3.6,2.8
									c-0.2-0.3-0.4-0.6-0.6-0.8c0,2,0,4,0,6.1c0.1-0.2,0.2-0.5,0.4-0.7c-1.2,0.9-2.4,1.8-3.6,2.8c2-0.7,6.3,0.7,8.5,1
									c3.4,0.5,6.8,0.9,10.2,1.3c6,0.7,13,1.6,19,0.1c11.8-3,3.8-23.4,4.6-31.6c0.5-5.1-6.9-8-10.2-4.2c-3.8,4.3-6,9.2-7.5,14.7
									c-0.3,1.1-1,2.6-0.9,3.7c-0.6,1.8,0.4,1.4,3-1c-0.6-0.2-1.1-0.5-1.7-0.7c-2.8-2-6.9-3.1-10-4.5c0.7,2.7,1.4,5.5,2.2,8.2
									c2.1-4.3,3.3-9.7-0.6-13.5c-3.8-3.7-9.9-2.7-13.4,0.8c-8.2,8.2,5.2,19,12.8,10.9c5.9-6.4,3.4-26.9-8.5-21.1
									c-8.8,4.3-8.4,21,2.3,22.1c10.3,1.1,13.4-15.5,8.9-22.3c-2.7-4.1-8.3-5-12-1.5c-3.4,3.3-3.7,9.2-1.6,13.2
									c2.5,4.7,8.2,6.4,12.4,2.7c3.8-3.4,4.5-9.8,5-14.5c1.1-9.7,3.6-25.1-5-32.2c-4.6-3.8-11.1-3.5-15.3,0.8
									c-4.5,4.7-3.7,10.9-3.6,16.8c0.1,6.8-0.9,13.6-2,20.3c-0.6,3.7-1.1,7.4-1.7,11.1c-0.5,3.1-1.5,6.6-1.3,9.7
									c0.1,2,1,4.2,3,5.2c3.7,1.8,8.1,1.9,12.2,2.5c4.4,0.7,8.8,1.5,13.2,2c7,0.8,13.4-0.6,18.9-5.1c5.1-4.2,8.1-10.3,8.4-16.9
									c0.2-4.3-0.5-8.7-0.8-13c-0.3-3.6-0.1-7.5-1.3-10.9c-2.1-6.2-11.9-5.4-11.8,1.6c0,1.2,0,2.4,0,3.6c4,0,8,0,12,0
									c-0.4-3.5-0.5-7-0.4-10.5c0.2-6.7-10.2-8.2-11.8-1.6c-0.6,2.3-0.8,4.6-0.8,7c4,0,8,0,12,0c-0.1-3.3,0-6.5,0.4-9.7
									c-3.9-0.5-7.9-1.1-11.8-1.6c-0.1,1.3-0.3,2.7-0.4,4c4,0,8,0,12,0c0-0.8,0-1.5,0-2.3c0.1-6.9-9.9-8-11.8-1.6
									c-0.7,2.4-1.4,4.9-2.2,7.3c3.9,0,7.7,0,11.6,0c-1-3.8-2.2-7.5-3.7-11.2c-2.4-5.9-11.6-5.7-11.8,1.6
									c-0.2,8.1-2.8,15.9-3.9,23.8c-1.1,7.9-1.4,15.9-1,23.9c0.4,7.7,11.5,7.7,12,0c0.7-11.1,1-22.4-0.3-33.5
									c-1-8.6-3.2-20.1-12.4-23.6c-7.6-2.9-19.2,3.6-15.3,12.8c1.8,4.4,7.3,5,10.9,2.5c3.9-2.7,5.1-7.7,3.7-12
									c-1.5-4.5-8.6-6.4-11-1.4c-3.4,7.1-2.9,20.1,7.4,20.9c8.9,0.6,16.6-11.2,8.8-17.7c-3.3-2.7-8.3-2.9-11.2,0.5
									c-2.7,3.2-2.9,8.3-3.4,12.3c-1.5,9.7-0.4,20.5,2.6,30.7c3.9-1.1,7.7-2.1,11.6-3.2c-3.2-10.1-8.3-19.5-12.6-29.2
									c-4.5-9.9-6.3-19.9-7.6-30.6c-0.9-7.5-12.4-7.9-12,0c0.1,1.8,0.2,3.1,0.8,4.8c2.1,6,12.3,5.6,11.8-1.6
									c-0.1-1.9-0.3-3.8-0.9-5.7c-0.2-0.8-1.8-5.8-1.4-2.4c-0.6,1.4-1.2,2.8-1.8,4.2c0.2-0.3,0.5-0.6,0.7-0.9
									c-1.4,0.6-2.8,1.2-4.2,1.8c-1.5-0.9-1.5-0.6-0.1,1c0.5,1,0.9,2.1,1.1,3.2C80.3,191,91.9,187.8,90,180.3L90,180.3z"/>
							</g>
						</g>
						<g>
							<path class="st0" d="M119.8,256.7c-0.8-1.3-1.1-2.9-0.8-4.3c0.1-0.3,0.1-0.6,0.4-0.8c0.6-0.5,1.5,0,2,0.6
								c0.8,1,1.2,2.3,1.2,3.6c0,0.3,0,0.7-0.3,0.8c-0.2,0.1-0.5,0-0.8-0.2c-1-0.7-1.4-2.2-0.9-3.4c0.8,0.4,1.5,1.1,1.8,2
								c-0.5-1.4-0.4-2.8-0.4-4.3c0.1-5.2-0.4-10.5-1.5-15.6c0.6,0.9,1,1.9,1.2,2.9c-0.4-1.5-0.7-3.1-0.9-4.6c1,7.6,2,15.2,3.1,22.9
								c-0.3-1.1-0.4-2.2-0.3-3.4c0.6,1.8,1,3.6,1.1,5.5c-1.1-0.7-2.5-0.4-3.7-0.1c-3.7,0.7-7.7,0.6-11.3-0.4
								c0.6,1.3,2.5,1.7,3.6,0.8c-2-1.2-4.3-1.5-6.5-2c-3-0.6-5.9-1.5-9-1.7c-3-0.2-6.3,0.4-8.6,2.3c-0.5,0.4-0.9,0.9-1.5,1.2
								c-0.6,0.3-1.3,0.4-1.8,0c4.6-0.5,9.3,1.4,13.7,0.1c0.4-0.1,1.2,0.1,1,0.4c0.6,0,1.3-0.2,1.9-0.5"/>
							<g>
								<path class="st1" d="M124.9,253.7c-0.2,0.3-0.3,0.6-0.5,0.9c-1.7,1-3.5,2-5.2,3c0.3,0,0.7-0.1,1-0.1
									c-1.4-0.6-2.8-1.2-4.2-1.8c0.1-0.2,0.2-0.5,0.3-0.7c2.5-1.4,4.9-2.8,7.4-4.2c0.8,1.3,1.7,2.5,2.5,3.8
									c-2.9,1.2-5.9,2.4-8.8,3.6c-0.1-0.1-0.2-0.1-0.3-0.2c3.7,5.8,12.5,2.1,11-4.6c-0.7-3.1-0.1-6.5-0.4-9.7
									c-0.3-3.4-0.8-6.9-1.5-10.2c-3.7,1.5-7.3,3.1-11,4.6c0.2,0.5,0.4,1,0.6,1.5c2.1,7.4,13.4,4.3,11.6-3.2c-0.3-1-0.5-2-0.7-3
									c-4,0-8,0-12,0c1,7.6,2,15.2,3.1,22.9c3.9-0.5,7.9-1.1,11.8-1.6c0-0.6-0.1-1.2-0.1-1.8c-3.9,0.5-7.9,1.1-11.8,1.6
									c0.5,1.3,0.8,2.6,0.9,3.9c2.5-1.9,5.1-3.9,7.6-5.8c-4.8-1.7-10,0.7-15.1-0.5c-6-1.4-9.8,5.6-5.8,10c3,3.4,7.1,3.5,10.9,1.7
									c4-1.8,3.8-8.5,0-10.4c-5.3-2.6-11.8-3.9-17.7-4.4c-2.6-0.2-5.3-0.1-7.8,0.7c-1.2,0.4-2.4,0.8-3.5,1.5
									c-0.4,0.3-0.8,0.6-1.2,0.9c-2,1.2-1.6,1.4,1.3,0.5c-0.5,3.9-1.1,7.9-1.6,11.8c2.6-0.1,5.1,0.3,7.8,0.4
									c2.3,0.2,4.4-0.4,6.6-0.4c-1.7-1-3.5-2-5.2-3c0.1,0.1,0.1,0.3,0.2,0.4c1.3,2.5,4.2,3.2,6.8,2.8c0.7,0,1.3-0.2,1.9-0.5
									c7.2-2.6,4.1-14.2-3.2-11.6c-0.6,0.3-1.2,0.4-1.9,0.5c2.3,0.9,4.5,1.8,6.8,2.8c-0.1-0.1-0.1-0.3-0.2-0.4
									c-1-1.9-3.1-2.9-5.2-3c-2.2-0.1-4.4,0.5-6.6,0.4c-2.6-0.2-5.1-0.6-7.8-0.4c-6.8,0.3-8.2,9.7-1.6,11.8c5,1.5,6.4-2,10.6-3.1
									c2.2-0.6,4.7,0.1,6.8,0.5c2.8,0.6,6.1,0.9,8.7,2.2c0-3.5,0-6.9,0-10.4c1.2,0.1,2.4,0.1,3.6,0.2c-1.9,3.3-3.9,6.7-5.8,10
									c2.6,0.6,5.4,1.1,8.1,1.1c2.1,0,5.1-1.2,7-0.5c3.5,1.2,7.9-2,7.6-5.8c-0.2-2.5-0.6-4.8-1.3-7.1c-1.9-6.4-11.8-5.3-11.8,1.6
									c0,1.7,0.2,3.3,0.5,5c1.1,6.6,12.7,5.1,11.8-1.6c-1-7.6-2-15.2-3.1-22.9c-0.4-3.2-2.4-6-6-6c-2.9,0-6.4,2.8-6,6
									c0.3,2.1,0.6,4.2,1.1,6.2c3.9-1.1,7.7-2.1,11.6-3.2c-0.5-1.6-1-2.9-1.8-4.3c-3.5-6.2-12.2-1.8-11,4.6
									c1.3,6.6,0.4,13.4,1.9,19.9c3.7-1.5,7.3-3.1,11-4.6c-1.1-1.8-2.3-2.9-4-4.1c-2.9-2.2-8.2,0-8.8,3.6c-0.8,4.6,0.7,9.8,5.9,11
									c3.4,0.8,6.1-1,7.4-4.2c2.1-5.3-2.3-12.8-8.2-12.7c-7.9,0.2-7.7,9-5.2,14.2C117.8,266.7,128.2,260.6,124.9,253.7
									L124.9,253.7z"/>
							</g>
						</g>
						<g>
							<path class="st0" d="M147.8,206.8c0,0.5,0,1,0,1.4c-1.2-2.5-2-5.3-2.8-8c-0.3-1-0.6-2.1-0.9-3.1c-0.9-3.1-1.8-6.2-2.7-9.2
								c0.9,3.6,1.9,7.2,2.8,10.8c-0.9-2-1.4-4.1-1.7-6.3c0.9,4,1.9,8,2.8,12c-0.6-2-1.2-4-1.8-6.1c2.7,4.3,1.8,10,3.4,14.8
								c0.2-2.4,0.5-4.7,0.7-7.1c0.2-1.9,0.4-3.7,0.4-5.6c0-2-0.2-4-0.4-6c-0.3-2.8-0.5-5.7-1.1-8.5c0.1,8,0.2,16.1,0.4,24.1
								c0,2.4,0.1,4.8,0.4,7.1c0.6,5,2.4,9.7,2.7,14.7c0.1,2.2,0,4.3,0.1,6.5c0.1,3.3,0.7,6.6,1.3,9.9c-0.2-3.2-0.9-6.2-1.4-9.4
								c-0.8-5-0.9-10-1-15.1c-0.1-6.8-0.3-13.6-0.4-20.3c0.5,3.1,1,6.2,1,9.3c0,4.8-1,9.8,0.7,14.3c0-2.6-0.1-5.1-0.4-7.7
								c0.9,12,1.7,24,2.6,36.1c-0.2-0.9-0.3-1.8-0.5-2.7c0.9,3.8,1.2,7.8,0.8,11.8"/>
							<g>
								<path class="st1" d="M141.8,206.8c0,0.5,0,1,0,1.4c3.7-1,7.5-2,11.2-3c-2.6-5.9-4-12.6-5.8-18.9c-2.2-7.4-13.5-4.3-11.6,3.2
									c0.9,3.6,1.9,7.2,2.8,10.8c3.9-1.1,7.7-2.1,11.6-3.2c-0.8-2.1-1.3-4.1-1.7-6.3c-3.9,1.1-7.7,2.1-11.6,3.2
									c0.9,4,1.9,8,2.8,12c3.9-1.1,7.7-2.1,11.6-3.2c-0.6-2-1.2-4-1.8-6.1c-3.7,1.5-7.3,3.1-11,4.6c2.1,4,1.6,9.1,2.8,13.4
									c2,6.8,11.1,4.9,11.8-1.6c1-9.8,1.3-19-0.7-28.7c-1.3-6.7-11.9-5.1-11.8,1.6c0.2,10.8-0.6,22.1,0.9,32.8
									c0.8,5.2,2.5,10.2,2.6,15.6c0,5.3,0.6,10.3,1.5,15.5c1.2,6.6,12.4,5.2,11.8-1.6c-0.7-7.6-2.2-14.9-2.4-22.5
									c-0.2-7.4-0.3-14.8-0.4-22.2c-3.9,0.5-7.9,1.1-11.8,1.6c1.2,7.8-0.6,16,1.6,23.6c1.9,6.4,11.8,5.3,11.8-1.6
									c0-2.6-0.1-5.1-0.4-7.7c-0.7-7.6-12.6-7.8-12,0c0.9,12,1.7,24,2.6,36.1c3.9-0.5,7.9-1.1,11.8-1.6c-0.2-0.9-0.3-1.8-0.5-2.7
									c-3.9,1.1-7.7,2.1-11.6,3.2c0.7,3.4,0.8,6.7,0.6,10.2c-0.5,7.7,11.5,7.7,12,0c0.3-4.5-0.1-8.9-1.1-13.4
									c-1.6-7.6-12.9-4.3-11.6,3.2c0.2,0.9,0.3,1.8,0.5,2.7c1.2,6.6,12.3,5.2,11.8-1.6c-0.9-12-1.7-24-2.6-36.1c-4,0-8,0-12,0
									c0.2,2.6,0.4,5.1,0.4,7.7c3.9-0.5,7.9-1.1,11.8-1.6c-1.2-3.9-0.5-7.8-0.5-11.8s-0.6-7.9-1.2-11.8c-1-6.8-11.9-5-11.8,1.6
									c0.1,7.4,0.2,14.8,0.4,22.2c0.2,7.7,1.7,15,2.4,22.5c3.9-0.5,7.9-1.1,11.8-1.6c-0.9-4.7-0.9-9.2-1.1-14
									c-0.2-5.2-1.9-10.1-2.7-15.3c-1.6-10.2-0.6-21.2-0.8-31.5c-3.9,0.5-7.9,1.1-11.8,1.6c1.7,8.7,1.1,16.9,0.2,25.6
									c3.9-0.5,7.9-1.1,11.8-1.6c-1.6-5.5-1.3-11.1-4-16.3c-3.2-6-12.9-1.9-11,4.6c0.6,2,1.2,4,1.8,6.1c2.2,7.4,13.3,4.3,11.6-3.2
									c-0.9-4-1.9-8-2.8-12c-1.8-7.7-12.8-4.3-11.6,3.2c0.4,2.2,0.9,4.2,1.7,6.3c2.7,7.1,13.6,4.4,11.6-3.2
									c-0.9-3.6-1.9-7.2-2.8-10.8c-3.9,1.1-7.7,2.1-11.6,3.2c2.1,7.3,3.9,14.8,7,21.7c2.5,5.7,11.2,2.5,11.2-3c0-0.5,0-1,0-1.4
									C153.8,199,141.8,199,141.8,206.8L141.8,206.8z"/>
							</g>
						</g>
						<g>
							<path class="st0" d="M57.6,181.9c-1.3-5.5,0.8-11.4-0.9-16.8c-0.2,0.7-0.2,1.7,0.4,2c0.8,0.4,1.5-0.6,2.4-0.8
								c0.8-0.2,1.6,0.4,2.3,0.8c0.7,0.4,1.9,0.4,2.2-0.3c-0.8,1.7-1.6,3.5-2.3,5.2c0.5-0.9,1.1-1.9,1.6-2.8c-1,3-2.1,6-3.1,9
								c1-1.6,1.8-3.4,2.3-5.2c-1,3-1.8,6-2.5,9.1c0.5-1.8,1.1-3.6,1.6-5.3c-1.4,3.6-2.3,7.3-2.9,11.1c0.6-1.6,1.2-3.1,1.7-4.7
								c-1,5.3-2.5,10.5-4.2,15.5c0.2-0.3,0.4-0.5,0.6-0.8c-0.8,4.5-2,9-3.5,13.3c-0.3,0.8-1,1.8-1.7,1.4c-0.5-0.3-0.5-1-0.4-1.5
								c0.6-5.6,1.1-11.2,1.7-16.7c0.6-5.6,1.1-11.2,1.9-16.8c0.4-3.3,0.9-6.5,1.4-9.8c-1,9.3-2.3,18.5-3.6,27.7
								c-0.2-7.2,1.4-14.3,3-21.3c2.2,5-1.4,10.8-0.3,16.2c0.2,1.1,0.7,2.2,0.8,3.4c0.2,1.7-0.3,3.4-0.8,5c-1.4,4.7-2.4,9.5-3,14.4
								c-0.2-2.1-0.3-4.3-0.5-6.4c-0.5,5.1-0.9,10.3-1.3,15.5c1-2.3,1.8-4.6,2.3-7c-1,5.9-2,11.7-3,17.6c-0.2-3.4,0-6.7,0.5-10.1
								c0.6,8.2-2.3,16.4-1.9,24.6c1.4-8.1,2.5-16.3,3-24.5c-0.9,7.7-1.8,15.5-2.6,23.2"/>
							<g>
								<path class="st1" d="M63.4,180.3c-1-5.6,0.5-11.1-0.9-16.8c-1.8-6.9-11.3-4.9-11.8,1.6c-0.2,2,0.2,3.4,1.3,5
									c1.6,2.5,4,3.2,6.8,2.8c1.4-0.2,2.5-0.7,3.8-1.4c-1.5,0.2-3.1,0.4-4.6,0.6c4.1,0.7,6.8,2.3,10.4-1.1
									c-3.1-2.4-6.3-4.8-9.4-7.3c-0.8,1.7-1.6,3.5-2.3,5.2c-3.1,6.9,6.4,12.9,10.4,6.1c0.5-0.9,1.1-1.9,1.6-2.8
									c-3.7-1.5-7.3-3.1-11-4.6c-1,3-2.1,6-3.1,9c-2.3,6.5,7.6,10.4,11,4.6c1.2-2.1,2.2-4.3,2.9-6.7c2.3-7.4-9.2-10.5-11.6-3.2
									c-1,3-1.8,6-2.5,9.1c-1.7,7.5,9.3,10.6,11.6,3.2c0.5-1.8,1.1-3.6,1.6-5.3c2.3-7.5-9-10.4-11.6-3.2
									c-1.3,3.6-2.3,7.3-2.9,11.1c-1.3,7.6,8.9,10.5,11.6,3.2c0.6-1.6,1.2-3.1,1.7-4.7c-3.9-1.1-7.7-2.1-11.6-3.2
									c-1.1,5.3-2.5,10.4-4.2,15.5c-1.9,5.5,6.2,10.5,10,5.8c0.2-0.3,0.4-0.5,0.6-0.8c-3.3-1.9-6.7-3.9-10-5.8
									c-0.4,2.3-0.9,4.5-1.5,6.7c-0.3,1.1-0.7,4.6-1.5,5.3c1.4-0.6,2.8-1.2,4.2-1.8c-0.2,0-0.5,0-0.7,0c1.7,1,3.5,2,5.2,3
									c0.3,1.8,0.4,2,0.5,0.6c0.1-0.9,0.2-1.9,0.3-2.8c0.2-1.9,0.4-3.7,0.6-5.6c0.3-3.4,0.7-6.8,1-10.3c0.8-7.4,1.7-14.8,2.8-22.2
									c-3.9-0.5-7.9-1.1-11.8-1.6c-1,8.7-2.2,17.4-3.4,26.1c3.9,0.5,7.9,1.1,11.8,1.6c0-6.7,1.3-13.1,2.8-19.7
									c-3.9,0-7.7,0-11.6,0c1.6,4.9-1.1,10.9-0.3,16.2c0.9,6.3-2.1,13.2-3,19.6c3.9,0.5,7.9,1.1,11.8,1.6
									c-0.2-2.1-0.3-4.3-0.5-6.4c-0.6-7.8-11.3-7.7-12,0c-0.5,5.2-0.9,10.3-1.3,15.5c-0.5,7.3,9.5,7.4,11.8,1.6
									c0.9-2.3,1.7-4.6,2.3-7c-3.9-1.1-7.7-2.1-11.6-3.2c-1,5.9-2,11.7-3,17.6c3.9,0.5,7.9,1.1,11.8,1.6c-0.1-2.8-0.1-5.6,0.3-8.5
									c-3.9-0.5-7.9-1.1-11.8-1.6c0.4,8.3-2.1,16.3-1.9,24.6c0.1,6.5,10.6,8.5,11.8,1.6c1.5-8.6,2.6-17.3,3.2-26.1
									c0.6-7.8-11.1-7.5-12,0c-0.9,7.7-1.8,15.5-2.6,23.2c-0.9,7.7,11.1,7.6,12,0c0.9-7.7,1.8-15.5,2.6-23.2c-4,0-8,0-12,0
									c-0.6,7.7-1.5,15.3-2.8,22.9c3.9,0.5,7.9,1.1,11.8,1.6c-0.2-8.3,2.3-16.3,1.9-24.6c-0.3-6.4-10.7-8.6-11.8-1.6
									c-0.6,3.9-0.9,7.7-0.8,11.6c0.3,6.4,10.6,8.6,11.8,1.6c1-5.9,2-11.7,3-17.6c1.3-7.5-9.5-10.8-11.6-3.2
									c-0.6,2.4-1.4,4.7-2.3,7c3.9,0.5,7.9,1.1,11.8,1.6c0.3-5.2,0.8-10.3,1.3-15.5c-4,0-8,0-12,0c0.2,2.1,0.3,4.3,0.5,6.4
									c0.5,6.2,10.8,8.7,11.8,1.6c0.6-4,1.3-7.9,2.3-11.8c1-3.7,2.1-7,1.5-10.9c-0.5-3.4-0.7-5.7-0.2-9.1
									c0.6-3.6,0.8-6.9-0.4-10.4c-1.8-5.3-10.2-6.1-11.6,0c-1.7,7.5-3.2,15.1-3.2,22.9c0,6.5,10.8,8.5,11.8,1.6
									c1.4-9.8,2.7-19.5,3.8-29.3c0.7-6.7-10.8-8.3-11.8-1.6c-1.1,7.5-2.2,15-2.9,22.6c-0.8,7.3-2.3,15-2.2,22.4
									c0,6,6.5,10.1,11.4,5.8c4.2-3.7,5.1-12.2,6.1-17.4c1-5.3-5.9-10.9-10-5.8c-0.2,0.3-0.4,0.5-0.6,0.8c3.3,1.9,6.7,3.9,10,5.8
									c1.7-5.1,3.1-10.3,4.2-15.5c1.6-7.6-8.9-10.4-11.6-3.2c-0.6,1.6-1.2,3.1-1.7,4.7c3.9,1.1,7.7,2.1,11.6,3.2
									c0.7-3.8,1.6-7.5,2.9-11.1c-3.9-1.1-7.7-2.1-11.6-3.2c-0.5,1.8-1.1,3.6-1.6,5.3c3.9,1.1,7.7,2.1,11.6,3.2
									c0.7-3.1,1.5-6.1,2.5-9.1c-3.9-1.1-7.7-2.1-11.6-3.2c-0.4,1.4-0.9,2.5-1.7,3.8c3.7,1.5,7.3,3.1,11,4.6c1-3,2.1-6,3.1-9
									c2.3-6.5-7.6-10.4-11-4.6c-0.5,0.9-1.1,1.9-1.6,2.8c3.5,2,6.9,4,10.4,6.1c0.8-1.7,1.6-3.5,2.3-5.2c2.7-6-4.2-12.2-9.4-7.3
									c-0.2,0.2-0.4,0.3-0.5,0.5c1.4-0.6,2.8-1.2,4.2-1.8c0.4,0-2.5-0.8-3.2-0.9c-1.8-0.1-3,0.6-4.8,0.9c2.3,0.9,4.5,1.8,6.8,2.8
									c0.1,0.3,0.2,0.7,0.4,1c-3.9,0.5-7.9,1.1-11.8,1.6c1.4,5.4,0,11.2,0.9,16.8C53.1,191.1,64.7,187.9,63.4,180.3L63.4,180.3z"
									/>
							</g>
						</g>
						<g>
							<path class="st0" d="M49.1,246.1c-0.5,3-0.8,6-0.7,9c-0.7-2.2-0.9-4.5-0.5-6.8c1.3,4.1,0.5,8.5-0.3,12.7
								c-0.5-1.9-0.5-3.8-0.1-5.7c0.1,4.5,0,8.9-0.4,13.4c-0.6-0.9-0.7-2.2-0.2-3.1c-0.2,2.2-0.4,4.4-0.7,6.6"/>
							<g>
								<path class="st1" d="M43.3,244.5c-0.5,3.5-0.9,7-0.9,10.6c3.9-0.5,7.9-1.1,11.8-1.6c-0.5-1.9-0.5-3.3-0.3-5.2
									c-3.9,0.5-7.9,1.1-11.8,1.6c0.8,3.2,0.3,6.3-0.3,9.5c3.9,0,7.7,0,11.6,0c-0.2-0.8-0.2-1.7-0.1-2.5
									c-3.9-0.5-7.9-1.1-11.8-1.6c0.1,4.5-0.1,8.9-0.4,13.4c3.7-1,7.5-2,11.2-3c0.1,0.5,0.3,1,0.4,1.5c-3.9-0.5-7.9-1.1-11.8-1.6
									c-0.2,2.2-0.4,4.4-0.7,6.6c-0.8,7.7,11.2,7.6,12,0c0.2-2.2,0.4-4.4,0.7-6.6c0.7-6.9-10-7.9-11.8-1.6
									c-0.8,2.9-0.4,5.1,0.8,7.8c2.6,5.9,10.8,2.3,11.2-3c0.3-4.5,0.5-8.9,0.4-13.4c-0.1-6.5-10.6-8.5-11.8-1.6
									c-0.5,3.1-0.6,5.8,0.1,8.9c1.1,5.7,10.5,5.8,11.6,0c1-5.4,1.6-10.5,0.3-15.9c-1.8-7-11.1-4.8-11.8,1.6
									c-0.3,2.9,0,5.6,0.8,8.4c1.8,6.6,11.7,5.2,11.8-1.6c0-2.5,0.1-4.9,0.5-7.4C56,240.2,44.4,236.9,43.3,244.5L43.3,244.5z"/>
							</g>
						</g>
						<g>
							<path class="st0" d="M70.7,259.3c-0.9,0.8-1.2,2.2-0.8,3.3c1.2-0.3,2.5-0.2,3.7,0.1c1.3,0.4,2.6,1.1,3.9,0.7
								c-2.1-0.4-4-1.2-5.8-2.2c10.1-0.1,20.2-0.2,30.3-0.9c3.5-0.3,7-0.6,10.6-0.6c5.4,0,10.7,0.9,15.8,2.6c0.3,0.1,0.6,0.2,0.8,0
								c0.7-0.4,0-1.4,0.2-2.1c0.3,0.8,0.6,1.7,1,2.5c-0.1-0.5-0.2-1-0.3-1.6"/>
							<g>
								<path class="st1" d="M69.6,258.7c-1,1.5-1.1,2.5-0.9,4.2c0.1,0.7,0.9,0.9,1.5,0.8c2.6-0.4,4.8,1.1,7.3,0.9
									c1.3-0.1,1.7-2,0.3-2.4c-2-0.5-3.8-1.2-5.5-2.1c-0.2,0.7-0.4,1.5-0.6,2.2c10.1-0.1,20.2-0.2,30.3-0.9
									c4.7-0.3,9.4-0.8,14.2-0.4c4.5,0.3,8.7,2.3,13.1,2.5c0.4,0,0.8-0.2,1-0.6c0.5-1,0.4-1.6,0.4-2.7c-0.8,0.1-1.6,0.2-2.4,0.3
									c0.3,0.8,0.6,1.7,1,2.5c0.6,1.5,2.6,0.9,2.3-0.6c-0.1-0.5-0.2-1-0.3-1.6c-0.2-1.5-2.6-0.9-2.3,0.6c0.1,0.5,0.2,1,0.3,1.6
									c0.8-0.2,1.5-0.4,2.3-0.6c-0.3-0.8-0.6-1.7-1-2.5c-0.5-1.2-2.3-1.1-2.4,0.3c0,1.4-3.5-0.3-4.7-0.6c-1.8-0.4-3.7-0.7-5.6-0.9
									c-5-0.6-10-0.2-15.1,0.2c-10.4,0.8-20.8,0.9-31.2,1c-1.2,0-1.7,1.7-0.6,2.2c2,1.1,3.9,1.8,6.1,2.3c0.1-0.8,0.2-1.6,0.3-2.4
									c-2.8,0.2-5.1-1.2-7.9-0.8c0.5,0.3,1,0.6,1.5,0.8c0.2-0.8,0.4-1.6,0.6-2.4C72.6,258.6,70.5,257.4,69.6,258.7L69.6,258.7z"/>
							</g>
						</g>
					</g>
					<g>
						<path class="st0" d="M150.6,271.6c-0.1-0.9-0.3-1.8-0.7-2.6c-0.1,0.8-0.1,1.7,0,2.5c-0.8-0.9-1.2-2.1-1.2-3.3
							c0.6,0.9,0.8,2.1,0.6,3.1c-0.2-1-0.4-2-0.5-3.1c0.9,2.9-0.3,6.2,1,8.9c-0.2-0.1,0.1-0.4,0.3-0.4c2.7,0,5.4,0.6,8.1,0.5
							c0.1,0,0.3,0,0.4-0.1c0.1-0.1,0.2-0.3,0.2-0.5c0-3.7-0.3-7.4-1-11c0.1,2.5-0.4,5.1-1.5,7.4c-0.1,0.2-0.2,0.4-0.4,0.6
							s-0.5,0.2-0.8,0.2c-1.2,0-2.3-1-2.5-2.1c-0.1-0.6,0-1.2,0.5-1.6s1.3-0.1,1.7,0.3c0.4,0.5,0.5,1.2,0.4,1.8
							c-0.2,1.1-1,2.1-2,2.2c-1.1,0.1-2.2-0.9-1.9-2c0.2-0.5,0.6-0.9,1-1.1c0.3-0.1,0.6-0.2,0.9-0.1c0.4,0.2,0.6,0.7,0.5,1.1
							s-0.4,0.8-0.7,1.1c-0.6,0.6-1.3,1-2.1,1.3c-0.2,0.1-0.4,0.1-0.6,0.1c-0.6-0.1-0.6-1.1-0.3-1.6c0.4-0.7,1.1-1.3,1.9-1.6
							c0.3-0.1,0.5-0.2,0.8-0.1c0.7,0.2,0.9,1.1,0.6,1.7c-0.3,0.6-1,1-1.6,1.3c-0.2,0.1-0.5,0.2-0.7,0s0-0.5,0.1-0.7
							c0.7-0.9,1.9-1.3,2.9-0.9s1.5,1.9,0.7,2.7c-0.2,0.2-0.4,0.3-0.6,0.3c-0.6,0-0.9-0.8-0.9-1.4c0.1-1.3,0.9-2.4,2-3
							c0.4-0.2,0.9-0.2,1.2,0.1c0.1,0.2,0.1,0.3,0.1,0.5c0,0.8-0.2,1.5-0.6,2.2c-0.2,0.5-0.9,1-1.3,0.6c-0.2-0.2-0.2-0.4-0.2-0.7
							c0-1.1,0.6-2.1,1.4-2.8c0.2-0.2,0.5-0.3,0.7-0.2c0.3,0.1,0.4,0.4,0.5,0.6c0.3,0.8,0.2,1.7-0.1,2.5c-0.1,0.3-0.5,0.7-0.8,0.5
							c-0.1-0.1-0.2-0.2-0.3-0.3c-0.7-1.2-0.7-2.8,0-4c1.2,1,1.2,2.9,1,4.5c-0.6-1.1-0.8-2.3-0.6-3.5c0.2-1.1,0.7-2.3,0.2-3.3
							c-0.1-0.3-0.4-0.5-0.5-0.8c-0.6-1.1-0.5-2.4-0.3-3.7c0.2,0.8,0.3,1.6,0.3,2.3"/>
						<g>
							<path class="st1" d="M151.7,271.3c-0.2-0.9-0.4-1.7-0.7-2.6c-0.5-1.3-2.2-1.1-2.4,0.3c-0.1,0.9-0.1,1.6,0,2.5
								c0.7-0.2,1.5-0.4,2.2-0.6c-0.6-0.9-1-1.6-1.1-2.7c-0.7,0.2-1.5,0.4-2.2,0.6c0.5,0.8,0.6,1.6,0.4,2.5c0.8-0.1,1.6-0.2,2.4-0.3
								c-0.2-0.9-0.3-1.8-0.4-2.7c-0.8,0.1-1.6,0.2-2.4,0.3c0.7,3-0.1,6,1,8.9c0.5,1.2,2.3,1.1,2.4-0.3c0-0.1,0-0.1,0-0.2
								c-0.2,0.3-0.4,0.7-0.6,1c2.3-1,7.8,2.5,9.4-0.5c0.8-1.5,0.1-4.3,0-5.9c-0.2-2.1-0.5-4.2-0.9-6.3c-0.2-1.3-2.4-1-2.4,0.3
								c0,1.7-0.1,3.5-0.7,5.1c-0.1,0.4-0.2,0.7-0.4,1c-0.4,1.4-1.5,1.7-3.4,1c-0.2,0.1-0.3,1-0.8,0.9c0.3,0.3,0.6,0.6,0.8,0.8
								c0.4,0.2,0.9,0.4,1.3,0.6c0.4,0,0.8,0,1.2,0c-0.3-0.4-0.3-0.8,0.1-1.1c0.3-0.5,0.4-0.5,0.2,0.1c0.3,0.3,0.6,0.6,0.8,0.8
								c-0.3-0.5-0.2-0.8,0.1-0.9c0.4,0.1,0.8,0.2,1.2,0.3c-0.5-0.9-0.5-1.9,0-2.8c-0.6,0.1-1.3,0.2-1.9,0.2c1,1.1,0.8,2.4,0.6,3.7
								c0.7-0.2,1.5-0.4,2.2-0.6c-0.9-2.2,0.2-3.7-0.1-5.8c-0.3-1.8-1.3-2.5-1-4.6c-0.8,0-1.5,0-2.3,0c0.2,0.7,0.3,1.3,0.3,2
								c0,1.5,2.4,1.5,2.4,0c0-0.9-0.1-1.8-0.3-2.7c-0.3-1.1-2.2-1.2-2.3,0c-0.1,0.9-0.3,1.8-0.2,2.7c0.1,0.9,0.6,1.4,0.8,2.2
								c0.4,1.3-0.1,2.7-0.1,4c0,1.2,0.4,2.2,0.8,3.2c0.5,1.2,2.1,0.4,2.2-0.6c0.2-2,0.1-3.8-1.3-5.4c-0.5-0.5-1.6-0.4-1.9,0.2
								c-0.8,1.6-1.3,6.3,1.6,6c2.4-0.2,2.7-4.9,0.6-5.8c-2.4-1.1-4.7,3.2-3.7,5.1c1.4,2.8,3.8-0.6,4.1-2.2c0.5-3.2-2.5-3.6-4.4-1.5
								c-1.3,1.4-2,5.9,1.2,5.4c2.7-0.4,2.1-4.2,0.2-5.2c-2-1-5.2,0.6-4.7,3c0.1,0.4,0.5,0.7,0.8,0.8c1.9,0.5,4.2-1.7,3.9-3.6
								c-0.4-2.4-3.1-2.1-4.6-0.8c-1.2,1.1-2.3,3.9,0,4.5c2,0.5,5.3-2.1,4.8-4.2c-0.4-2.2-3-2.1-4.2-0.6c-1.5,1.9,0.2,4.5,2.5,4.4
								s3.8-2.9,3.1-5c-0.6-1.9-3.4-2.7-4.5-0.7c-1.3,2.4,1.3,5.3,3.7,5c3.3-0.4,3.7-6.8,3.6-9.3c-0.8,0.1-1.6,0.2-2.4,0.3
								c0.3,1.9,0.6,3.8,0.8,5.7c0.1,1.6,0.6,3.7,0.1,5.2c0.3-0.3,0.6-0.6,0.8-0.8c-2.9,0.8-6.3-1.3-9.1-0.1c-0.4,0.2-0.6,0.6-0.6,1
								c0,0.1,0,0.1,0,0.2c0.8-0.1,1.6-0.2,2.4-0.3c-1.1-2.8-0.3-6-1-8.9c-0.3-1.3-2.5-1.1-2.4,0.3c0.1,1.1,0.3,2.3,0.5,3.4
								c0.3,1.4,2.2,0.9,2.4-0.3c0.1-1.4-0.1-2.5-0.8-3.7c-0.5-1-2.3-0.6-2.2,0.6c0.1,1.5,0.5,2.7,1.4,3.9c0.6,0.8,2.4,0.7,2.2-0.6
								c-0.1-0.9-0.1-1.6,0-2.5c-0.8,0.1-1.6,0.2-2.4,0.3c0.4,0.9,0.6,1.6,0.7,2.6C149.7,273.5,152,272.8,151.7,271.3L151.7,271.3z"
								/>
						</g>
					</g>
				</g>
				<g>
					<path class="st2" d="M70.9,123.5c-0.3,0.3-0.4,0.6-0.4,1c0.7-1.1,1.1-2.3,1.4-3.6c-1.1,1.4-2.2,2.7-3.5,3.9
						c0.4-1.9,1.3-3.6,2.6-5c-1,2-2.1,3.9-3.1,5.9c0.7-1.3,1.3-2.5,2-3.8c-3.3,7.2-6.7,14.3-10.2,21.4c0.5-1.4,1-2.8,1.5-4.2
						c-1.9,5-3.6,10-5.3,15.1c0-1.1,0.2-2.2,0.5-3.2c-0.9,2.6-1.9,5.3-2.8,7.9c0.1-0.6,0.1-1.2,0.2-1.7c-0.3,1.8-0.8,3.6-1.5,5.3
						c0.4-1.9,0.8-3.8,1.2-5.8c-0.4,2.3-1,4.5-1.7,6.7c0.3-2.1,0.8-4.1,1.3-6.2c0,0.8,0,1.5,0,2.3c0.1-1.9,0.4-3.7,0.8-5.5
						c0,1.5-0.1,3-0.3,4.5c-0.5-1.2-0.6-2.5-0.2-3.7c0.6,2,1,4,1.1,6c0.2-1.2,0.4-2.4,0.6-3.5c0.2,0.7,0.2,1.5,0.1,2.2
						c-0.1-1,0.2-2,0.7-2.8c0.5,1.1,0.8,2.4,0.7,3.7"/>
					<g>
						<path class="st1" d="M65.1,121.9c-0.1,0.3-0.3,0.7-0.4,1c-2.6,6.3,7.9,10.6,11,4.6c0.9-1.6,1.5-3.3,2-5.1
							c1.3-5.4-6-10.8-10-5.8c-1.1,1.4-2.3,2.7-3.5,3.9c3.3,1.9,6.7,3.9,10,5.8c0.1-0.9,0.5-1.7,1-2.4c-3.1-2.4-6.3-4.8-9.4-7.3
							c-1,2-2.1,3.9-3.1,5.9c-3.6,6.8,6.7,12.9,10.4,6.1c0.7-1.3,1.3-2.5,2-3.8c-3.5-2-6.9-4-10.4-6.1c-3.3,7.2-6.7,14.3-10.2,21.4
							c3.7,1.5,7.3,3.1,11,4.6c0.5-1.4,1-2.8,1.5-4.2c2.6-7.3-8.9-10.4-11.6-3.2c-1.9,5-3.6,10-5.3,15.1c3.9,0.5,7.9,1.1,11.8,1.6
							c0.1-0.5,0.2-1.1,0.3-1.6c1.7-7.6-9-10.4-11.6-3.2c-0.9,2.6-1.9,5.3-2.8,7.9c3.9,0.5,7.9,1.1,11.8,1.6
							c0.1-0.6,0.1-1.2,0.2-1.7c0.6-6.7-10.4-8.2-11.8-1.6c-0.4,1.8-0.9,3.5-1.5,5.3c3.9,1.1,7.7,2.1,11.6,3.2
							c0.4-1.9,0.8-3.8,1.2-5.8c1.6-7.5-10-10.8-11.6-3.2c-0.5,2.3-1,4.5-1.7,6.7c3.9,1.1,7.7,2.1,11.6,3.2c0.4-2.1,0.8-4.1,1.3-6.2
							c-3.9-0.5-7.9-1.1-11.8-1.6c0,0.8,0,1.5,0,2.3c0,7.8,11.4,7.6,12,0c0-1.3,0.2-2.7,0.6-3.9c-3.9-0.5-7.9-1.1-11.8-1.6
							c0,1.5-0.1,3-0.3,4.5c3.9-0.5,7.9-1.1,11.8-1.6c-0.1-0.2-0.1-0.4-0.2-0.5c-3.9,0-7.7,0-11.6,0c0.4,1.5,0.8,2.9,0.9,4.4
							c0.6,6.2,10.6,8.8,11.8,1.6c0.2-1.2,0.4-2.4,0.6-3.5c-3.9,0-7.7,0-11.6,0c0,0.2,0,0.4-0.1,0.6c-0.2,7.9,11.3,7.5,12,0
							c0,0.1-0.1,0.1-0.1,0.2c-3.7-0.5-7.3-1-11-1.4c0.4,0.7,0.5,1.3,0.5,2.1c0.3,7.7,12.3,7.7,12,0c-0.1-1.8-0.3-3.5-0.9-5.3
							c-1.5-4.2-8.8-6.7-11-1.4c-0.9,2-1.3,3.7-1.5,5.9c4,0,8,0,12,0c0-1.3-0.2-2.5-0.4-3.8c-0.8-5.8-10.6-5.7-11.6,0
							c-0.2,1.2-0.4,2.4-0.6,3.5c3.9,0.5,7.9,1.1,11.8,1.6c-0.2-2.6-0.6-5.1-1.3-7.6c-1.5-5.4-10.5-6.1-11.6,0
							c-0.4,2.5-0.5,4.5,0.2,6.9c2,6.9,11,4.8,11.8-1.6c0.2-1.5,0.3-3,0.3-4.5c0.1-6.6-10.4-8.3-11.8-1.6c-0.5,2.4-0.8,4.7-1,7.1
							c4,0,8,0,12,0c0-0.8,0-1.5,0-2.3c0-6.7-10.2-8.3-11.8-1.6c-0.5,2-0.9,4.1-1.3,6.2c-1.3,7.5,9.3,10.7,11.6,3.2
							c0.7-2.2,1.2-4.4,1.7-6.7c-3.9-1.1-7.7-2.1-11.6-3.2c-0.4,1.9-0.8,3.8-1.2,5.8c-1.6,7.6,9,10.5,11.6,3.2
							c0.6-1.8,1.1-3.4,1.5-5.3c-3.9-0.5-7.9-1.1-11.8-1.6c-0.1,0.6-0.1,1.2-0.2,1.7c-0.6,7.1,9.6,7.6,11.8,1.6
							c0.9-2.6,1.9-5.3,2.8-7.9c-3.9-1.1-7.7-2.1-11.6-3.2c-0.4,1.6-0.6,3.2-0.7,4.8c-0.6,7,9.8,7.7,11.8,1.6
							c1.6-5.1,3.4-10.1,5.3-15.1c-3.9-1.1-7.7-2.1-11.6-3.2c-0.5,1.4-1,2.8-1.5,4.2c-2.2,6.4,8,10.7,11,4.6
							c3.5-7.1,6.9-14.2,10.2-21.4c3.2-6.9-6.7-13-10.4-6.1c-0.7,1.3-1.3,2.5-2,3.8c3.5,2,6.9,4,10.4,6.1c1-2,2.1-3.9,3.1-5.9
							c3-5.7-5-12.9-9.4-7.3c-1.9,2.4-3.2,4.7-4.1,7.7c-1.7,5.8,5.8,10,10,5.8c1.3-1.3,2.4-2.5,3.5-3.9c-3.3-1.9-6.7-3.9-10-5.8
							c-0.1,0.8-0.4,1.5-0.8,2.2c3.7,1.5,7.3,3.1,11,4.6c0.1-0.3,0.3-0.7,0.4-1C79.6,118,68,114.9,65.1,121.9L65.1,121.9z"/>
					</g>
				</g>
				<g>
					<path class="st0" d="M88.3,108.3c1-0.6,2-1.1,3-1.7c-1.1,0.6-2.2,1.1-3.4,1.4c0.8-1,1.8-1.9,3-2.5c-0.9,0.2-1.7,0.6-2.3,1.3
						c2.8-1.5,4-5.2,2.7-8.1c0.5,2.2,0.8,4.4,0.8,6.6c0.4-1,0.8-2,1.2-3c0.4,1.4,0.3,2.9-0.4,4.2c-0.1-1.2,0.1-2.3,0.7-3.4
						c0.1-0.2,0.4-0.5,0.6-0.3c0.1,0,0.2,0.2,0.2,0.3c0.3,0.7,0,1.7-0.6,2.1c-1.2-1.1-0.9-3.3,0.4-4.2c-0.5-0.4-0.9-0.8-1.4-1.2
						c2.1,0.7,4.2,1.2,6.4,1.4c-1.5-0.1-3-0.5-4.5-1.1c1.6,0,3.2,0.9,4.1,2.2c0.6,0.8,0.7,2.2-0.3,2.4c-0.3,0.1-0.6,0-0.8-0.1
						c-0.9-0.3-1.6-0.9-2.1-1.7c-0.2-0.3-0.4-0.7-0.3-1c0-0.4,0.3-0.7,0.6-0.9c0.9-0.6,2.4,0.1,2.6,1.1c0.2,1.1-0.9,2.2-1.9,2
						c-1.1-0.2-1.8-1.5-1.3-2.5s2-1.2,2.8-0.5c0.1,0.1,0.3,0.3,0.3,0.5c0,0.6-0.9,0.6-1.4,0.3c-1.4-0.7-2.6-1.7-3.5-3
						c2.1-0.1,4.1,0.6,6.1,1c3.3,0.7,6.8,0.5,10.1-0.4c0.1,2,0.2,4.1,0.4,6.1c-2.9-0.9-5.7-2.3-8.1-4.1c1.3,0.8,2.6,1.7,3.9,2.5
						c-1.6,0.6-3.6,0.1-4.7-1.2c1.3-0.4,2.8,0.1,3.7,1.1c-1,0.4-2.2,0.3-3-0.3c-0.2-0.2-0.5-0.5-0.3-0.8c0.1-0.2,0.3-0.2,0.5-0.3
						c1.5-0.3,3,0.5,3.7,1.8c-0.8-0.1-1-1.3-0.4-1.8s1.6-0.3,2.1,0.3c0.5,0.6,0.6,1.4,0.5,2.2c-0.5-1-0.6-2.1-0.4-3.2
						c0.6,0.7,0.7,1.8,0.4,2.7c-0.6-1.2-0.9-2.6-0.8-4c0.1,0.6,0.3,1.3,0.4,1.9c0.1,0.3,0.1,0.7-0.2,0.9c-0.2,0.1-0.4,0-0.6,0
						c-1.2-0.4-2.4-0.9-3.6-1.3c1.2-0.2,2.4-0.3,3.6-0.5c0.3,0,0.8-0.1,1,0.2c0.2,0.2,0.2,0.4,0.2,0.6c0.4,2.3,1.9,4.4,4,5.6
						c-0.4-1.1-1-2.2-1.7-3.2c0.6,0.8,1.2,1.6,1.8,2.4c-2.6-1-4.9-2.6-6.7-4.6c-0.3-0.3-0.6-0.8-0.4-1.2c0.2-0.3,0.7-0.4,1.1-0.3
						c0.4,0,1,0.2,0.9,0.6c0,0.3-0.3,0.5-0.6,0.5c-0.9,0.3-1.8,0.3-2.7,0"/>
					<g>
						<path class="st1" d="M88.9,109.4c1-0.6,2-1.1,3-1.7c1.3-0.8,0.1-2.8-1.2-2.1c-1,0.6-2,1-3.1,1.3c0.4,0.7,0.8,1.3,1.2,2
							c0.7-1,1.7-1.7,2.7-2.3c1.1-0.7,0.4-2.7-0.9-2.2c-1.5,0.5-1.6,0.6-2.9,1.6c-1,0.9,0.3,2.6,1.5,1.9c3.3-2.2,4.5-5.7,3.3-9.4
							c-0.5-1.5-2.6-0.9-2.3,0.6c0.4,2.1,0.7,4.1,0.8,6.2c0.1,1.4,1.9,1.5,2.4,0.3c0.4-1,0.8-2,1.2-3c-0.8,0-1.5,0-2.3,0
							c-0.1,1.2-0.2,2.4-0.4,3.5c0.8,0.1,1.6,0.2,2.4,0.3c-0.5-0.6-0.9-1.3-1.4-1.9c0.7,0,1.4,0,2.1,0c0.1-0.9,0.1-1.9,0.2-2.8
							c0.4-0.4,0.5-1.3,0-1.7c-0.5-0.4-0.9-0.8-1.4-1.2c-0.4,0.7-0.8,1.3-1.2,2c2.2,0.7,4.4,1.2,6.8,1.5c1.3,0.2,1.7-2.2,0.3-2.4
							c-1.6-0.2-2.9-0.6-4.5-1.1c-0.2,0.8-0.4,1.5-0.6,2.3c2.4,0.3,0.7-2-0.2-3.1c-0.3,0.7-0.6,1.4-0.8,2c5.9,0.2,10.5,2,16.5,0.6
							c-0.5-0.4-1-0.8-1.5-1.2c0.1,2,0.2,4.1,0.4,6.1c0.5-0.4,1-0.8,1.5-1.2c-2.8-1-5.4-2.3-7.9-4c-0.4,0.7-0.8,1.4-1.2,2.1
							c1.3,0.8,2.6,1.7,3.9,2.5c0.1-0.7,0.2-1.5,0.3-2.2c-1.2-0.3-2.3-0.6-3.5-0.9c-0.3,0.7-0.6,1.4-0.8,2c1,0.3,1.9,0.5,2.9,0.8
							c0.2-0.7,0.4-1.3,0.5-2c0,0.7,0.1,1.5,0.1,2.2c0.5-0.5,1.1-1.1,1.6-1.6c0.1,0.6,0.2,1.2,0.3,1.7c0.8-0.1,1.6-0.2,2.4-0.3
							c-0.1-1-0.3-1.9-0.4-2.9c-0.8,0.1-1.6,0.2-2.4,0.3c0.1,0.8,0.2,1.6,0.4,2.3c0.8-0.1,1.6-0.2,2.4-0.3c-0.6-1.1-0.8-2.3-0.8-3.6
							c-0.8,0.1-1.6,0.2-2.4,0.3c0.4,1.7-1.2,0.5-2.5,0c-0.1,0.8-0.2,1.6-0.3,2.4c0.1,0,3.4-0.7,3.7-0.6c0.2,0.1,0.6,2,0.8,2.3
							c0.9,1.8,2.1,2.9,3.7,4.1c0.8,0.6,2.2-0.4,1.8-1.4c-0.5-1.3-1.1-2.3-1.9-3.4c-0.7,0.4-1.4,0.8-2.1,1.2
							c0.6,0.8,1.2,1.6,1.8,2.4c0.5-0.5,1.1-1.1,1.6-1.6c-2.7-1.2-5.9-4.6-8.6-5c-1.5-0.2-2.2,2.1-0.6,2.3c1.8,0.3,3.1,0.4,4.4-0.9
							c0.4-0.3,0.5-1,0.2-1.5c-0.9-1.4-3.5-1.9-4.2,0c-1.2,3.1,5.9,6.4,7.7,7.1c0.9,0.4,2.5-0.6,1.6-1.6c-0.6-0.8-1.2-1.6-1.8-2.4
							c-0.9-1.2-3-0.1-2.1,1.2c0.7,0.9,1.2,1.8,1.6,2.9c0.6-0.5,1.2-0.9,1.8-1.4c-3.3-2.3-1.9-3.1-3.7-5.5c-0.2-0.3-0.2-0.5-0.6-0.7
							c-1.3-1-3.8,0-5.2,0.1c-1.3,0.2-1.7,1.9-0.3,2.4c1.5,0.5,2.9,1.3,4.5,1.4c0.4,0,0.8-0.2,1-0.6c0.7-1.2,0.2-2.4-0.1-3.7
							c-0.3-1.3-2.4-1-2.4,0.3c0,1.6,0.2,2.8,0.9,4.3c0.5,1.2,2.2,1.1,2.4-0.3c0.2-1.8,0.2-1.3-0.5-3c-0.5-1.2-2.3-1.1-2.4,0.3
							c-0.1,2-0.1,1.6,0.5,3.5c0.4,1.3,2.4,1.1,2.4-0.3c-0.2-7-8.1-2.4-4,0.3c1,0.6,2.4-0.7,1.6-1.6c-1.4-1.8-3.6-3.3-5.8-2
							c-0.4,0.2-0.6,0.6-0.6,1c0.1,2.4,3,2.7,4.9,2.3c0.8-0.2,1.3-1.4,0.5-2c-1.6-1.2-2.6-1.6-4.6-1.5c-0.9,0.1-1.7,1.3-0.8,2
							c1.9,1.6,3.4,2,5.9,1.5c1.1-0.2,1.1-1.7,0.3-2.2c-1.3-0.8-2.6-1.7-3.9-2.5s-2.5,1.2-1.2,2.1c2.7,1.8,5.4,3.2,8.4,4.2
							c0.7,0.2,1.6-0.4,1.5-1.2c-0.1-2-0.2-4.1-0.4-6.1c0-0.8-0.7-1.3-1.5-1.2c-5.6,1.3-10.4-0.5-15.8-0.7c-1.1,0-1.5,1.3-0.8,2
							c1.5,1.8,4.3,4.9,6.7,2.7c0.4-0.4,0.4-1,0.2-1.5c-2-3.7-7.7,0.3-4.6,3.4c3.2,3.2,7.4-3.4,2.8-4.7c-4.5-1.3-4,5.3,0,6
							c1.8,0.3,3-0.7,2.8-2.6c-0.2-2.6-3.2-4-5.4-4.3c-1.5-0.2-2.1,1.8-0.6,2.3c1.5,0.6,2.8,0.9,4.5,1.1c0.1-0.8,0.2-1.6,0.3-2.4
							c-2.2-0.3-4.1-0.7-6.1-1.4c-1.1-0.4-2.1,1.2-1.2,2c0.5,0.4,0.9,0.8,1.4,1.2c0-0.6,0-1.1,0-1.7c-1.7,1.7-1.9,3.7-0.6,5.7
							c0.5,0.8,1.5,0.7,2.1,0c0.9-1.2,1.3-2.5,0.3-3.8c-0.3-0.4-0.8-0.4-1.2-0.3c-2,0.3-2.2,3.3-2.2,4.9c0,1.4,1.9,1.5,2.4,0.3
							c0.6-1.7,0.7-3,0.4-4.8c-0.2-1.3-1.9-1-2.3,0s-0.8,2-1.2,3c0.8,0.1,1.6,0.2,2.4,0.3c-0.1-2.3-0.4-4.6-0.8-6.9
							c-0.8,0.2-1.5,0.4-2.3,0.6c0.9,2.6,0.2,5.1-2.2,6.7c0.5,0.6,1,1.3,1.5,1.9c0.6-0.3,1.2-0.7,1.8-1c-0.3-0.7-0.6-1.5-0.9-2.2
							c-1.3,0.8-2.2,1.6-3.2,2.7c-0.8,0.8,0,2.4,1.2,2c1.3-0.4,2.5-0.9,3.7-1.6c-0.4-0.7-0.8-1.4-1.2-2.1c-1,0.6-2,1.1-3,1.7
							C86.4,108.1,87.6,110.1,88.9,109.4L88.9,109.4z"/>
					</g>
				</g>
				<g>
					<path class="st0" d="M101,104.8c0.1,0,0.2-0.1,0.3-0.2c-0.1-0.1-0.2,0-0.2,0.1s0.1,0.2,0.1,0.2c0.1,0,0.1-0.2,0.1-0.2
						c0,0.1-0.1,0.2,0,0.3"/>
					<g>
						<path class="st1" d="M102.6,110.6c1.6-0.5,3-1.5,3.8-3c2-3.3,0.1-7.9-3.6-8.8c-2.8-0.7-5.4,0.4-6.9,2.8
							c-0.6,0.9-0.9,2.1-0.9,3.2c0,1.4,0.5,2.6,1.3,3.7s1.9,1.8,3.2,2.2c1.6,0.4,3.3,0.2,4.7-0.6c2.5-1.4,3.5-4.3,2.8-7
							c-0.2-0.5-0.4-1-0.6-1.4c-0.4-0.7-0.9-1.3-1.5-1.7c-1-0.8-2.3-1.3-3.6-1.3c-1.1,0-2.1,0.3-3,0.8c-1.4,0.7-2.2,2.2-2.8,3.6
							c-0.1,0.3-0.2,0.6-0.2,0.9c-0.1,0.3-0.1,0.6-0.1,0.9c0.1,1.6,0.6,3.1,1.8,4.2c1,1,2.7,1.8,4.2,1.8c1.6-0.1,3.2-0.6,4.2-1.8
							c1-1.1,1.8-2.6,1.8-4.2v-0.1c-0.1,0.5-0.1,1.1-0.2,1.6v-0.1c-3.9,0-7.7,0-11.6,0v0.1c0-1.1,0-2.1,0-3.2v0.1
							c0.9-1.2,1.8-2.4,2.8-3.6c0,0,0,0-0.1,0.1c1.5-0.2,3.1-0.4,4.6-0.6h-0.1c1.2,0.9,2.4,1.8,3.6,2.8c0,0,0-0.1-0.1-0.1
							c0.3,1,0.5,2,0.8,3v-0.1c-0.3,1-0.5,2-0.8,3v-0.1c-0.7,0.7-1.4,1.4-2.2,2.2h0.1c-1.5,0.2-3.1,0.4-4.6,0.6h0.1
							c-1.2-2.9-2.4-5.9-3.6-8.8c0,0,0,0.1-0.1,0.1c0.3-0.4,0.6-0.8,0.9-1.2c0,0-0.1,0-0.1,0.1c0.9-0.5,1.8-1,2.6-1.5h-0.1
							c-1.5,0.4-2.8,1.4-3.6,2.8c-0.8,1.3-1.1,3.2-0.6,4.6c0.5,1.5,1.4,2.9,2.8,3.6C99.4,110.7,101,111,102.6,110.6L102.6,110.6z"/>
					</g>
				</g>
				<g>
					<path class="st0" d="M98.4,251.1c-2.8,2.6-5.8,5.4-9.6,5.9c-0.9,0.1-1.9,0.1-2.8,0.2c-1,0.1-2,0.5-3,0.7
						c-2.2,0.5-4.5,0.4-6.6-0.2c8.1-2.2,16.6-3.2,25-3c-4.8,2.4-10.2,3.5-15.6,3.4c0.2-0.1,0.4-0.3,0.6-0.4"/>
					<g>
						<path class="st1" d="M94.2,246.8c-2.1,2-3.9,3.7-6.8,4.2c-2.9,0.6-6.5,1.5-9.5,0.8c0,3.9,0,7.7,0,11.6
							c7.7-2,15.4-2.9,23.4-2.8c-1-3.7-2-7.5-3-11.2c-4,1.8-8.2,2.6-12.6,2.6c1,3.7,2,7.5,3,11.2c0.2-0.1,0.4-0.3,0.6-0.4
							c6.3-4.4,0.3-14.8-6.1-10.4c-0.2,0.1-0.4,0.3-0.6,0.4c-4.7,3.2-3.3,11.2,3,11.2c6.6-0.1,12.6-1.5,18.6-4.3
							c5.7-2.6,2.5-11.1-3-11.2c-9-0.1-17.9,1-26.6,3.2c-5.6,1.4-5.9,10.3,0,11.6c10.2,2.2,20.5-1.1,27.9-8.1
							C108.3,250,99.8,241.5,94.2,246.8L94.2,246.8z"/>
					</g>
				</g>
				<g>
					<path class="st0" d="M156.3,268.3c-0.5-0.3-0.8-0.7-0.9-1.3c0.6,0.8,1.1,1.8,1.2,2.8c-0.5,0.3-1.2,0.2-1.6-0.3
						c0.4,0.4-0.1,1.2-0.6,1.2c-0.6,0.1-1.1-0.3-1.4-0.8c-0.3-0.4-0.5-1-0.3-1.4c0.3-0.5,1.1-0.6,1.5-0.3c0.5,0.4,0.6,1,0.5,1.6
						c-0.9,0-1.8-0.6-1.9-1.5s0.7-1.8,1.5-1.6s1.2,1.5,0.4,2c-0.3,0-0.6-0.1-0.8-0.1"/>
					<g>
						<path class="st1" d="M156.9,267.3c-0.2-0.1-0.3-0.3-0.3-0.5c-0.7,0.3-1.5,0.6-2.2,0.9c0.6,0.8,0.9,1.6,1.1,2.5
							c0.2-0.5,0.4-0.9,0.6-1.4c0,0-0.2-0.1-0.1-0.1c-1-0.9-2.6,0.3-1.9,1.5c-0.1-0.3,0-0.5,0.2-0.6c-0.1-0.1-0.2-0.1-0.3-0.2
							l-0.2-0.4l-0.2,0.3c-0.1-0.1-0.1-0.1,0,0.1c0,0.1,0,0.2,0,0.3c0.4-0.3,0.8-0.6,1.2-0.9c-0.2,0-0.5-0.1-0.6-0.2
							c-0.2-0.2,0-0.2-0.1-0.4l0.1-0.1L154,268c0.1,0.3,0,0,0.2-0.1c0.3,0,0.6-0.1,0.9-0.1c-0.3,0-0.6-0.1-0.8-0.1
							c-0.6-0.1-1.3,0.2-1.5,0.8c-0.2,0.6,0.2,1.4,0.8,1.5c0.8,0.1,1.5,0.3,2.2-0.3c0.4-0.4,0.6-1,0.6-1.6c-0.1-1.3-1.1-2.4-2.4-2.3
							c-1.4,0.1-2.5,1.6-2.3,3c0.2,1.5,1.6,2.4,3.1,2.5c0.5,0,1.1-0.4,1.2-0.9c0.2-1.4-0.3-3-1.8-3.3c-1.4-0.3-2.8,0.8-2.6,2.3
							c0.1,1.4,1.4,2.8,2.9,2.8s2.6-1.7,1.8-3c-0.6,0.5-1.3,1-1.9,1.5c0.9,0.8,2,0.9,3,0.5c0.5-0.2,0.6-0.9,0.6-1.4
							c-0.2-1.1-0.7-2.2-1.4-3.1c-0.8-1-2.5-0.5-2.2,0.9c0.2,0.9,0.7,1.5,1.4,2C157,270.2,158.2,268.1,156.9,267.3L156.9,267.3z"/>
					</g>
				</g>
			</g>
			<g>
				<g>
					<path class="st3" d="M70.2,169c7.2,3.7,17.4,3.8,20.4-5.3c0.2-0.7-0.9-1-1.2-0.3c-2.7,8.2-12.3,7.9-18.7,4.5
						C70.1,167.6,69.5,168.6,70.2,169L70.2,169z"/>
				</g>
			</g>
			<g>
				<g>
					<path class="st3" d="M128,169.2c-6.4,3.3-15.9,3.7-18.7-4.5c-0.2-0.7-1.4-0.4-1.2,0.3c3,9,13.3,9,20.4,5.3
						C129.3,169.9,128.7,168.8,128,169.2L128,169.2z"/>
				</g>
			</g>
			<g>
				<g>
					<path class="st4" d="M55.2,158.9c0.1,0.1,0.2,0.2,0.3,0.3c0,0.4,0,0.8,0,1.2c0.1-0.2,0.2-0.3,0.2-0.5c-0.7-0.2-1.5-0.4-2.2-0.6
						c0.1,0.5-0.1,1-0.4,1.5c0.7,0.1,1.5,0.2,2.2,0.3c-0.1-0.3-0.1-0.6-0.2-0.9c-0.8-0.1-1.6-0.2-2.4-0.3c0,0.4,0,0.9-0.2,1.3
						c0.7-0.2,1.3-0.4,2-0.5l0,0c-0.3-1.3-2.4-1-2.4,0.3c0.1,0.6-0.1,1.2-0.4,1.8c0.7,0.1,1.5,0.2,2.2,0.3c0-0.2-0.1-0.4-0.1-0.6
						c0.1-1.3-2.1-1.7-2.4-0.3c-0.1,0.2-0.2,0.5-0.2,0.7c0.7,0.1,1.5,0.2,2.2,0.3c0-0.2-0.1-0.5-0.1-0.7c0.1-1.5-1.9-1.5-2.4-0.3
						l0,0c0.7,0.3,1.4,0.6,2,0.8c0-0.2,0-0.4,0-0.6c-0.8-0.1-1.6-0.2-2.4-0.3c-0.1,0.4-0.1,0.8-0.2,1.3c0.7,0.3,1.5,0.6,2.2,0.9
						c0.5-2.9,1-5.8,1.5-8.6c-0.8-0.1-1.6-0.2-2.4-0.3c0.1,1.4,0.1,2.8,0.1,4.2c0,1.6,2.3,1.5,2.4,0c0.1-1.7,0.5-3.2,1.2-4.8
						c-0.7-0.2-1.5-0.4-2.2-0.6c0.1,1.2,0,2.4-0.4,3.6c0.8,0.1,1.6,0.2,2.4,0.3c0-0.9,0.1-1.6,0.4-2.5c-0.8,0-1.5,0-2.3,0
						c0.1,0.5,0.2,1.1,0.3,1.6c0.2,1.2,2.1,1.1,2.3,0c0.1-0.4,0.2-0.8,0.3-1.1c-0.7,0.2-1.3,0.4-2,0.5c0.1,0.1,0.2,0.3,0.3,0.4
						c1,1.2,2.6-0.5,1.7-1.7c-0.1-0.1-0.2-0.3-0.3-0.4c-0.6-0.8-1.7-0.2-2,0.5c-0.2,0.4-0.3,0.7-0.3,1.1c0.8,0,1.5,0,2.3,0
						c-0.1-0.5-0.2-1.1-0.3-1.6c-0.2-1.2-2-1-2.3,0c-0.4,1.1-0.5,2-0.5,3.1c0,1.3,2,1.6,2.4,0.3c0.4-1.4,0.6-2.7,0.5-4.2
						c-0.1-1.1-1.7-1.8-2.2-0.6c-0.9,1.9-1.4,3.9-1.5,6c0.8,0,1.6,0,2.4,0c0-1.4,0-2.8-0.1-4.2c-0.1-1.3-2.1-1.7-2.4-0.3
						c-0.5,2.9-1,5.8-1.5,8.6c-0.2,1.2,1.5,2.2,2.2,0.9c0.4-0.8,0.6-1.5,0.5-2.5c-0.1-1.3-2-1.7-2.4-0.3c-0.1,0.5-0.2,0.7-0.1,1.2
						c0.1,0.9,1.3,1.7,2,0.8c0.3-0.4,0.5-0.7,0.6-1.1c-0.8-0.1-1.6-0.2-2.4-0.3c0,0.6,0,0.8,0.2,1.4c0.3,0.9,1.7,1.2,2.2,0.3
						c0.3-0.5,0.4-0.7,0.5-1.3c-0.8-0.1-1.6-0.2-2.4-0.3c0,0.5,0,0.7,0.2,1.2c0.3,0.9,1.7,1.3,2.2,0.3s0.7-1.9,0.7-3
						c-0.8,0.1-1.6,0.2-2.4,0.3c0.1,0.5,0.3,0.7,0.6,1.1c0.6,0.7,1.8,0.3,2-0.5c0.2-0.7,0.3-1.3,0.2-1.9c0-1.3-2.1-1.7-2.4-0.3
						c-0.1,0.8-0.1,1.4,0.2,2.2c0.4,0.9,1.6,1.3,2.2,0.3c0.5-0.9,0.7-1.7,0.7-2.7c0-1.1-1.7-1.7-2.2-0.6c-0.5,1-0.6,2.4,0.9,2.6
						C56.1,161.4,56.7,159.1,55.2,158.9L55.2,158.9z"/>
				</g>
			</g>
			<g>
				<g>
					<path class="st4" d="M79,199.7c-0.1-0.4-0.2-0.7-0.4-1c-0.3-0.4-0.7-0.7-1.2-0.6c-0.4,0.1-0.9,0.4-1,0.9c0,0.1,0,0.3-0.1,0.4
						c0.7-0.1,1.5-0.2,2.2-0.3c-0.1-0.1-0.1-0.3-0.2-0.4c-0.3-0.5-1-0.7-1.5-0.5c-0.6,0.3-0.8,0.8-0.7,1.4c0,0.1,0,0.3,0.1,0.4
						c0.7-0.3,1.5-0.6,2.2-0.9c0,0,0.1-0.4,0-0.2c-0.8,0-1.6,0-2.4,0c0,0.2,0,0.3-0.1,0.5c0.5-0.3,1-0.6,1.5-0.8h-0.1
						c0.2,0.1,0.4,0.2,0.5,0.3c0,0.1,0,0.1,0.1,0.1c0,0.2,0,0.4,0,0.6v-0.1c-0.7,0.1-1.5,0.2-2.2,0.3c0-0.1,0-0.1-0.1-0.2
						c0.7-0.2,1.5-0.4,2.2-0.6c0.1,0.2,0,0.4-0.1,0.6c0.4-0.5,0.5-1.2,0-1.7c-0.4-0.4-1.3-0.5-1.7,0c-0.5,0.7-0.7,1.5-0.2,2.3
						c0.6,1,2.2,0.6,2.2-0.6c0-0.4-0.1-0.7-0.3-1c-0.4-0.9-2-0.7-2.2,0.3c-0.1,1,0.2,1.7,1.2,2.1c0.6,0.2,1.3-0.3,1.5-0.8
						c0.1-0.4,0.2-0.7,0.2-1.1c0-0.6-0.5-1.2-1.2-1.2s-1.1,0.6-1.2,1.2c-0.1,0.5,0.1,1,0.3,1.4c0.3,0.5,1,0.7,1.5,0.5
						c0.6-0.3,0.8-0.8,0.7-1.4c0-0.1,0-0.3-0.1-0.4c-0.7,0.3-1.5,0.6-2.2,0.9c0.1,0.1,0.1,0.3,0.2,0.4c0.5,0.9,2,0.7,2.2-0.3
						c0-0.1,0-0.3,0.1-0.4c-0.7,0.1-1.5,0.2-2.2,0.3c0.1,0.2,0.1,0.2,0.2,0.4c0.1,0.6,0.9,1,1.5,0.8C78.8,201,79.1,200.3,79,199.7
						L79,199.7z"/>
				</g>
			</g>
			<g>
				<g>
					<path class="st4" d="M153.3,199.3C153.3,199.3,153.3,199.2,153.3,199.3c0.2,0.2,0.4,0.4,0.6,0.5c0,0,0,0,0-0.1
						c0.1,0.2,0.1,0.4,0.2,0.6c-0.1,0.3-0.1,0.4,0,0.2c0-0.1,0.1-0.2,0.1-0.2c0.1-0.2,0-0.4,0-0.6c-0.1-0.5-0.3-0.7-0.7-1
						s-0.8-0.2-1.2,0c-0.6,0.2-0.8,0.9-0.6,1.5c0.7-0.3,1.5-0.6,2.2-0.9l0,0c-0.7,0.1-1.5,0.2-2.2,0.3c0.1,0.2,0.2,0.3,0.3,0.5
						c0.6,1,2.3,0.6,2.2-0.6c0-0.2,0-0.3,0-0.5c-0.6,0.3-1.2,0.7-1.8,1c-0.1-0.1-0.2-0.2-0.2-0.4c0,1.5,2.4,1.5,2.4,0
						c0-0.7-0.4-1.3-1-1.7c-0.8-0.5-1.8,0.1-1.8,1c0,0.2,0,0.3,0,0.5c0.7-0.2,1.5-0.4,2.2-0.6c-0.1-0.2-0.2-0.3-0.3-0.5
						c-0.5-0.8-2-0.7-2.2,0.3c-0.1,0.7-0.1,1.2,0.2,1.9c0.2,0.5,1,0.7,1.5,0.5s0.9-0.8,0.7-1.4c0,0,0,0,0-0.1c0,0.2,0,0.4,0,0.6
						c0,0,0,0,0-0.1c-0.2,0.2-0.4,0.5-0.6,0.7c0,0,0,0,0.1,0c-0.4,0-0.8,0-1.2,0c0,0,0,0,0.1,0c-0.2-0.2-0.4-0.5-0.6-0.7
						c0.1-0.6,0.2-0.7,0-0.4c0,0.1-0.1,0.2-0.1,0.3c-0.1,0.2-0.1,0.5,0,0.7c0.1,0.5,0.5,0.8,0.9,0.9c0.6,0.1,1.3-0.2,1.5-0.8
						C154.3,200.1,153.9,199.4,153.3,199.3L153.3,199.3z"/>
				</g>
			</g>
			<g>
				<g>
					<path class="st4" d="M127.6,260.5c0.2,0.1,0.4,0.3,0.7,0.4c1,0.7,2.3-0.7,1.6-1.6c0,0,0,0,0-0.1c0,0.3,0.1,0.6,0.1,0.9
						c0,0,0,0,0-0.1c-0.1,0.2-0.2,0.4-0.3,0.5c-0.7,0.6-0.9,0-0.5,0.3c0.1,0.1,0.3,0.1,0.5,0.2c0.6,0.3,1.3,0.1,1.6-0.4
						s0.1-1.3-0.4-1.6c-0.6-0.3-1.4-0.8-2.1-0.6c-0.9,0.2-1.4,1.2-0.9,2c0.5-0.5,1.1-1.1,1.6-1.6c-0.2-0.1-0.4-0.3-0.7-0.4
						c-0.5-0.4-1.3-0.1-1.6,0.4C126.8,259.5,127,260.2,127.6,260.5L127.6,260.5z"/>
				</g>
			</g>
			<g>
				<g>
					<g>
						<path d="M84.6,107.7c2.2-0.3,3.6-0.9,4.9-2.7c1.4-2,1-4.1,0.8-6.5c-0.1-0.8-1.3-0.8-1.2,0c0.1,1.6,0.6,3.5-0.1,5
							c-0.8,1.9-2.4,2.7-4.4,3C83.9,106.6,83.9,107.8,84.6,107.7L84.6,107.7z"/>
					</g>
				</g>
				<g>
					<g>
						<g>
							<path d="M89.7,98.9c6.9,0.1,13.8,1.3,20.7,0.2c0.8-0.1,0.4-1.3-0.3-1.2c-6.8,1.1-13.6-0.1-20.4-0.2
								C89,97.7,89,98.9,89.7,98.9L89.7,98.9z"/>
						</g>
					</g>
					<g>
						<g>
							<path d="M110.3,98.3c-0.3,2.1-0.5,4.7,0.5,6.7c0.8,1.6,2.4,2.1,4,2.6c0.7,0.2,1.1-1,0.3-1.2c-1.6-0.4-2.9-0.9-3.5-2.7
								c-0.5-1.6-0.4-3.5-0.1-5.1C111.6,97.8,110.4,97.5,110.3,98.3L110.3,98.3z"/>
						</g>
					</g>
					<g>
						<g>
							<g>
								<g>
									<g>
										<path d="M40,278.3c3.8,0.2,7.5,0.4,11.2,0.9c0.8,0.1,0.8-1.1,0-1.2c-3.7-0.4-7.5-0.7-11.2-0.9
											C39.2,277,39.2,278.2,40,278.3L40,278.3z"/>
									</g>
								</g>
								<g>
									<g>
										<path d="M40.5,277.8c1.3-21.6,3-43.1,4.8-64.6c0.1-0.8-1.1-0.8-1.2,0c-1.8,21.5-3.5,43.1-4.8,64.6
											C39.2,278.5,40.4,278.5,40.5,277.8L40.5,277.8z"/>
									</g>
								</g>
							</g>
							<g>
								<g>
									<g>
										<path d="M55,138.3c0.2-8.6,0.4-19,7.2-25.3c6.2-5.8,15.4-5.7,23.3-5.5c0.8,0,0.8-1.2,0-1.2c-8.3-0.2-17.7-0.2-24.2,5.8
											c-7,6.5-7.4,17.3-7.5,26.1C53.7,139,54.9,139,55,138.3L55,138.3z"/>
									</g>
								</g>
								<g>
									<g>
										<g>
											<path d="M52.4,278.2c2.4-21.8,4.5-43.7,7.3-65.5c0.1-0.8-1.1-0.8-1.2,0c-2.8,21.8-4.9,43.6-7.3,65.5
												C51.1,279,52.3,279,52.4,278.2L52.4,278.2z"/>
										</g>
									</g>
									<g>
										<g>
											<path d="M59.6,213.6c4-14.2,7.1-28.7,10.5-43.1c0.2-0.8-1-1.1-1.2-0.3c-3.3,14.4-6.4,28.9-10.5,43.1
												C58.2,214,59.4,214.3,59.6,213.6L59.6,213.6z"/>
										</g>
									</g>
									<g>
										<g>
											<path d="M62.7,157.2c2.1,5.2,4.1,11.3,9.9,13.3c0.7,0.2,1-0.9,0.3-1.2c-5.4-1.8-7.2-7.7-9.1-12.5
												C63.6,156.2,62.4,156.5,62.7,157.2L62.7,157.2z"/>
										</g>
									</g>
									<g>
										<g>
											<path d="M70.2,170.2c-0.1-0.2,0-0.4,0.1-0.5c0.4-0.6-0.6-1.2-1-0.6c-0.3,0.4-0.4,0.9-0.2,1.5
												C69.2,171.3,70.4,171,70.2,170.2L70.2,170.2z"/>
										</g>
									</g>
									<g>
										<g>
											<path d="M45.1,214c1.7-25.6,6.1-51,9.7-76.4c0.1-0.8-1-1.1-1.2-0.3c-3.6,25.5-8,51-9.7,76.7
												C43.9,214.8,45.1,214.8,45.1,214L45.1,214z"/>
										</g>
									</g>
									<g>
										<g>
											<path d="M68.7,263.5c3.1-16.2,5.6-32.4,7.4-48.8c0.1-0.8-1.1-0.8-1.2,0c-1.8,16.3-4.2,32.4-7.3,48.5
												C67.4,264,68.6,264.3,68.7,263.5L68.7,263.5z"/>
										</g>
									</g>
									<g>
										<g>
											<path d="M76.2,215.9c0.8-7.6-0.3-15-1.4-22.4c-1.1-7.9-2.3-15.9-3.4-23.8c-0.1-0.8-1.3-0.4-1.2,0.3
												c1,7.3,2.1,14.6,3.1,21.9c1.1,8,2.5,15.9,1.6,24C74.9,216.7,76.1,216.7,76.2,215.9L76.2,215.9z"/>
										</g>
									</g>
								</g>
							</g>
						</g>
						<g>
							<g>
								<g>
									<g>
										<g>
											<path d="M160.1,277.1c-3.8,0.2-7.5,0.4-11.2,0.9c-0.8,0.1-0.8,1.3,0,1.2c3.7-0.4,7.5-0.7,11.2-0.9
												C160.9,278.2,160.9,277,160.1,277.1L160.1,277.1z"/>
										</g>
									</g>
									<g>
										<g>
											<path d="M160.9,277.8c-1.3-21.6-3-43.1-4.8-64.6c-0.1-0.8-1.3-0.8-1.2,0c1.8,21.5,3.5,43.1,4.8,64.6
												C159.7,278.5,160.9,278.5,160.9,277.8L160.9,277.8z"/>
										</g>
									</g>
								</g>
								<g>
									<g>
										<g>
											<path d="M146.4,138.3c-0.2-8.9-0.5-19.6-7.5-26.1c-6.5-6-15.9-6-24.2-5.8c-0.8,0-0.8,1.2,0,1.2c8-0.2,17.1-0.4,23.3,5.5
												c6.7,6.3,7,16.7,7.2,25.3C145.2,139,146.4,139,146.4,138.3L146.4,138.3z"/>
										</g>
									</g>
									<g>
										<g>
											<g>
												<path d="M148.9,278.2c-2.4-21.8-4.5-43.7-7.3-65.5c-0.1-0.8-1.3-0.8-1.2,0c2.8,21.8,4.9,43.6,7.3,65.5
													C147.8,279,149,279,148.9,278.2L148.9,278.2z"/>
											</g>
										</g>
										<g>
											<g>
												<path d="M141.7,213.3c-4-14.2-7.1-28.7-10.5-43.1c-0.2-0.8-1.3-0.4-1.2,0.3c3.3,14.4,6.4,28.9,10.5,43.1
													C140.8,214.3,141.9,214,141.7,213.3L141.7,213.3z"/>
											</g>
										</g>
										<g>
											<g>
												<path d="M136.3,156.9c-1.9,4.8-3.7,10.6-9.1,12.5c-0.7,0.2-0.4,1.4,0.3,1.2c5.8-2,7.8-8.1,9.9-13.3
													C137.7,156.5,136.6,156.2,136.3,156.9L136.3,156.9z"/>
											</g>
										</g>
										<g>
											<g>
												<path d="M131.1,170.5c0.1-0.5,0.1-1-0.2-1.5c-0.4-0.6-1.5,0-1,0.6c0.1,0.2,0.2,0.3,0.1,0.5
													C129.8,171,130.9,171.3,131.1,170.5L131.1,170.5z"/>
											</g>
										</g>
										<g>
											<g>
												<path d="M156.2,214c-1.7-25.7-6.1-51.2-9.7-76.7c-0.1-0.8-1.3-0.4-1.2,0.3c3.6,25.4,7.9,50.8,9.7,76.4
													C155.1,214.8,156.3,214.8,156.2,214L156.2,214z"/>
											</g>
										</g>
										<g>
											<g>
												<path d="M132.6,263.2c-3.1-16-5.6-32.2-7.3-48.5c-0.1-0.8-1.3-0.8-1.2,0c1.8,16.4,4.2,32.6,7.4,48.8
													C131.6,264.3,132.7,264,132.6,263.2L132.6,263.2z"/>
											</g>
										</g>
										<g>
											<g>
												<path d="M125.2,215.9c-0.9-8.1,0.5-16,1.6-24c1-7.3,2.1-14.6,3.1-21.9c0.1-0.8-1-1.1-1.2-0.3
													c-1.1,7.9-2.3,15.9-3.4,23.8c-1.1,7.5-2.2,14.9-1.4,22.4C124,216.7,125.2,216.7,125.2,215.9L125.2,215.9z"/>
											</g>
										</g>
									</g>
								</g>
							</g>
							<g>
								<g>
									<path d="M68.3,264.3c20.9,1.5,42.3,2.2,63.2,0c0.8-0.1,0.8-1.3,0-1.2c-20.9,2.1-42.3,1.5-63.2,0
										C67.6,263,67.6,264.2,68.3,264.3L68.3,264.3z"/>
								</g>
							</g>
						</g>
					</g>
				</g>
			</g>
		</g>
		<g>
			<g id="XMLID_7_">
				<g>
					<path class="st5" d="M163.5,277.6c0,0.6-0.2,1.3-0.7,1.2l0,0c-0.6-0.2-1.3-0.1-1.9-0.1c-5,0.3-10.1,0.7-15.1,1l-0.3-0.3
						c-1.5-16.3-3-32.5-5.3-48.7c-1.8-12.5-4-24.9-6.5-37.2c-0.3-1.4-0.6-2.7-0.8-4.1c-0.8-4-1.6-7.9-2.4-11.9
						c-2.6,4.5-2.7,10-2.8,15.3c0,2.1,0,4.2-0.1,6.2c0,2.4,0,4.8,0,7.2c0.1,20.2,2.4,40.4,6.8,60.1c-9.4,0.9-18.8,1.2-28.2,0.9
						c-2.3-0.1-4.6-0.2-6.8-0.1c-2.3,0.1-4.6,0.4-6.8,0.5c-9.1,0.7-18.3-0.1-27.1-2.3l-0.1-0.3c4.5-19.5,6.8-39.5,6.9-59.5
						c0-2.4,0-4.7,0-7.1c0-2,0-4.1-0.1-6.1c-0.1-5.2-0.2-10.6-2.8-15c-0.8,4-1.6,7.9-2.4,11.9c-0.3,1.3-0.5,2.7-0.8,4.1
						c-2.5,12.4-4.8,24.8-6.5,37.2c-2.3,16.2-3.8,32.4-5.3,48.7l-0.3,0.3c-5-0.3-10.1-0.7-15.1-1c-0.6,0-1.3-0.1-1.9,0.1l0,0
						c-0.5,0.1-0.8-0.7-0.7-1.2c1.5-21.9,3-43.9,4.5-65.8h-0.2c-0.2-2.4-0.1-4.8,0.1-7.2c1.9-25,5.1-49.9,9.4-74.6
						c0.5-3,1.1-6,2.1-8.9h0.1c1.8-6.3,7-11.4,13.1-14.1c6.3-2.8,13.3-3.3,20.2-3l0,0c0.8-0.1,1.6-0.3,2.5-0.4
						c0.3,0,0.5-0.1,0.7-0.3c0.4-0.3,0.5-1,0.4-1.5c-0.1-1.1-0.1-2.2-0.2-3.3v-0.2c7.4,0,14.8-0.3,22.2-0.8v0.4
						c0.3,0.8,0.2,1.6,0.1,2.4s-0.1,1.7,0.3,2.4c0.3,0.6,1.1,1.1,1.8,0.9l0.1,0.3c7-0.4,14.3,0.1,20.7,3c6,2.7,11.3,7.8,13.1,14.1
						h0.1c1.1,2.9,1.6,5.9,2.1,8.9c4.3,24.7,7.5,49.6,9.4,74.6c0.2,2.4,0.4,4.8,0.1,7.2H159C160.5,233.8,162,255.7,163.5,277.6z"/>
				</g>
				<g>
					<path class="st6" d="M36.8,279c0.1,0,0.1,0,0.2-0.1c0.6-0.2,1.2-0.1,1.9-0.1c5,0.3,10.1,0.7,15.1,1"/>
					<path class="st6" d="M37,278.9c-0.5,0.1-0.8-0.7-0.7-1.2c1.5-21.9,3-43.9,4.5-65.8c0-0.3,0-0.6,0.1-0.9"/>
					<path class="st6" d="M40.6,211.8c-0.2-2.4-0.1-4.8,0.1-7.2c1.9-25,5.1-49.9,9.4-74.6c0.5-3,1.1-6,2.1-8.9"/>
					<path class="st6" d="M85.7,104.1c0.2,0,0.3,0,0.5,0"/>
					<path class="st6" d="M52.1,122.4c0.1-0.4,0.2-0.8,0.3-1.3c1.8-6.3,7-11.4,13.1-14.1c6.3-2.8,13.3-3.3,20.2-3"/>
					<path class="st6" d="M54.3,279.5c1.5-16.3,3-32.5,5.3-48.7c1.8-12.5,4-24.9,6.5-37.2c0.3-1.4,0.5-2.7,0.8-4.1
						c0.8-4,1.6-7.9,2.4-11.9c0.1-0.4,0.2-0.8,0.3-1.3"/>
					<path class="st6" d="M69,177.1c0.1,0.2,0.2,0.4,0.3,0.6c2.6,4.4,2.7,9.9,2.8,15c0,2,0,4.1,0.1,6.1c0,2.4,0,4.7,0,7.1
						c-0.1,20-2.4,40-6.9,59.5"/>
					<path class="st6" d="M65.4,265.6c8.8,2.2,18,3,27.1,2.3c2.3-0.2,4.5-0.5,6.8-0.5c2.3-0.1,4.6,0,6.8,0.1
						c9.4,0.3,18.9,0,28.2-0.9h0.1"/>
					<path class="st6" d="M163,279c-0.1,0-0.1,0-0.2-0.1c-0.6-0.2-1.3-0.1-1.9-0.1c-5,0.3-10.1,0.7-15.1,1"/>
					<path class="st6" d="M162.8,278.9c0.5,0.1,0.8-0.7,0.7-1.2c-1.5-21.9-3-43.9-4.5-65.8c0-0.3,0-0.6-0.1-0.9"/>
					<path class="st6" d="M159.2,211.8c0.2-2.4,0.1-4.8-0.1-7.2c-2-25-5.1-49.9-9.4-74.6c-0.5-3-1.1-6-2.1-8.9"/>
					<path class="st6" d="M147.7,122.4c-0.1-0.4-0.2-0.8-0.3-1.3c-1.8-6.3-7-11.4-13.1-14.1c-6.4-2.9-13.7-3.4-20.7-3"/>
					<path class="st6" d="M145.5,279.5c-1.5-16.3-3-32.5-5.3-48.7c-1.8-12.5-4-24.9-6.5-37.2c-0.3-1.4-0.6-2.7-0.8-4.1
						c-0.8-4-1.6-7.9-2.4-11.9c-0.1-0.4-0.2-0.9-0.3-1.3"/>
					<path class="st6" d="M130.8,177.1c-0.1,0.2-0.2,0.4-0.3,0.6c-2.6,4.5-2.7,10-2.8,15.3c0,2.1,0,4.2-0.1,6.2c0,2.4,0,4.8,0,7.2
						c0.1,20.2,2.4,40.4,6.8,60.1c0,0.1,0.1,0.3,0.1,0.4"/>
					<path class="st6" d="M85.7,104.1L85.7,104.1c0.8-0.1,1.6-0.3,2.5-0.4c0.3,0,0.5-0.1,0.7-0.3c0.4-0.3,0.5-1,0.4-1.5
						c-0.1-1.1-0.1-2.2-0.2-3.3"/>
					<path class="st6" d="M113.8,103.7c-0.1,0.1-0.2,0.1-0.3,0.1c-0.7,0.2-1.4-0.3-1.8-0.9c-0.4-0.7-0.4-1.6-0.3-2.4
						s0.2-1.6-0.1-2.4"/>
					<path class="st6" d="M89.2,98.5c7.4,0,14.8-0.3,22.2-0.8c0.1,0,0.2,0,0.3,0"/>
				</g>
			</g>
		</g>
		<g>
			<g>
				<path d="M89.6,97.9c0.2,0,0.5,0,0.7,0c-0.1,0.3-0.2,0.7-0.3,1c1.3-0.5,3.6,0.1,5,0.2c1.9,0.1,3.7,0.1,5.6,0.1
					c3.5,0,6.9-0.1,10.4-0.4c0.8-0.1,0.8-1.3,0-1.2c-4,0.3-8,0.4-12,0.4C96.4,98,92.1,96.9,89.6,97.9c-0.3,0.1-0.5,0.6-0.2,0.9
					l0.1,0.1c0.2,0.2,0.6,0.2,0.8,0c0,0,0,0,0.1-0.1C91,98.2,90.2,97.4,89.6,97.9L89.6,97.9z"/>
			</g>
		</g>
		<g>
			<g>
				<g>
					<path d="M109.9,98.2c0.2,2.1-1.2,4.4,0.9,5.9c2.4,1.7,8.1,0.8,10.8,1c6.2,0.5,13,0.9,17.9,5.2c4.1,3.6,6.4,8.8,8.3,13.8
						c0.3,0.7,1.4,0.4,1.2-0.3c-2.7-7.2-6.4-14.7-14-17.7c-3.6-1.4-7.7-1.8-11.5-2.1c-2.7-0.3-5.7-0.1-8.4-0.6
						c-2.2-0.4-3.4-0.4-4-3.3c0.1,0.7-0.2-3.5,0-2C111,97.4,109.8,97.4,109.9,98.2L109.9,98.2z"/>
				</g>
			</g>
			<g>
				<g>
					<path d="M147.4,123.6c1.6,8.4,2.1,17,4.2,25.2c2.4,9.4,3.3,18.7,3.8,28.3c0,0.8,1.2,0.8,1.2,0c-0.5-9.1-1.2-18.1-3.5-26.9
						c-2.3-8.8-2.8-18-4.6-26.9C148.4,122.5,147.2,122.8,147.4,123.6L147.4,123.6z"/>
				</g>
			</g>
			<g>
				<g>
					<path d="M155,175.4c1.9,23.9,4.4,47.7,4.9,71.7c0,0.8,1.2,0.8,1.2,0c-0.5-24-3-47.8-4.9-71.7C156.2,174.6,155,174.6,155,175.4
						L155,175.4z"/>
				</g>
			</g>
			<g>
				<g>
					<path d="M159.6,244.7c1.2,11.6,2.1,23.2,2.7,34.9c0,0.8,1.2,0.8,1.2,0c-0.5-11.7-1.4-23.3-2.7-34.9
						C160.7,243.9,159.5,243.9,159.6,244.7L159.6,244.7z"/>
				</g>
			</g>
			<g>
				<g>
					<path d="M162.6,278.3c-2.6,0.3-5.3,0-7.9,0.3c-2.8,0.3-5.6,0.6-8.5,0.6c-0.8,0-0.8,1.2,0,1.2c2.5,0,5-0.1,7.5-0.4
						c3-0.4,5.9-0.1,8.9-0.5C163.3,279.4,163.3,278.2,162.6,278.3L162.6,278.3z"/>
				</g>
			</g>
			<g>
				<g>
					<path d="M146.3,279.8c-0.7-16.2-2.8-32.2-5.3-48.1c-1.3-8-2.6-16-3.9-24c-1.3-7.5-2.1-15.3-4.2-22.7c-0.2-0.7-1.4-0.4-1.2,0.3
						c2,6.8,2.8,13.9,3.9,20.9c1.3,8,2.7,15.9,3.9,23.9c2.6,16.5,4.8,33.1,5.5,49.8C145.1,280.6,146.3,280.6,146.3,279.8
						L146.3,279.8z"/>
				</g>
			</g>
			<g>
				<g>
					<path d="M133.1,185.2c-0.6-2.7-1.2-5.3-1.8-8c-0.2-0.8-1.3-0.4-1.2,0.3c0.6,2.7,1.2,5.3,1.8,8
						C132.1,186.3,133.3,186,133.1,185.2L133.1,185.2z"/>
				</g>
			</g>
			<g>
				<g>
					<path d="M135.1,265.8c-2.8-17.9-4.5-36.1-4.9-54.4c0-0.8-0.9-0.8-0.9,0c0.4,18.4,2.1,36.7,4.9,54.7
						C134.4,266.8,135.3,266.5,135.1,265.8L135.1,265.8z"/>
				</g>
			</g>
			<g>
				<g>
					<path d="M130.1,212.1c0-10.9-1-24.1,1-33.8c0.1-0.7-0.2-1.3-0.3-0.6c-2.1,10.1-1.1,23.2-1.1,34.4
						C129.7,212.9,130.1,212.9,130.1,212.1L130.1,212.1z"/>
				</g>
			</g>
			<g>
				<g>
					<path d="M134,265.1c-10.8,3.4-22.4,1.3-33.5,1.6c-5.5,0.1-10.9,0.2-16.4,0c-2.9-0.1-5.8-0.3-8.7-0.5c-2.1-0.2-7.6,0.3-9.4-0.9
						c-0.6-0.4-1.2,0.6-0.6,1c1,0.7,3,0.4,4.2,0.6c3.2,0.3,6.4,0.6,9.6,0.8c6.8,0.4,13.5,0.4,20.3,0.2c11.5-0.3,23.6,1.8,34.8-1.7
						C135,266.1,134.7,264.9,134,265.1L134,265.1z"/>
				</g>
			</g>
		</g>
		<line class="st7" x1="101.2" y1="98.7" x2="100.5" y2="267.7"/>
		<g>
			<g>
				<path d="M104.8,226.2c1.5,0,1.5-2.4,0-2.4C103.2,223.8,103.2,226.2,104.8,226.2L104.8,226.2z"/>
			</g>
		</g>
		<g>
			<g>
				<path d="M106,182.4c1.5,0,1.5-2.4,0-2.4C104.5,180.1,104.5,182.4,106,182.4L106,182.4z"/>
			</g>
		</g>
		<g>
			<g>
				<path d="M106.5,141.4c1.5,0,1.5-2.4,0-2.4C105,139.1,105,141.4,106.5,141.4L106.5,141.4z"/>
			</g>
		</g>
		<g>
			<g>
				<g>
					<path d="M88.7,98c-0.1,0.4-0.1,0.9-0.1,1.3c-0.2,2-0.9,3.2-3,3.9c-2.4,0.7-5.9,0.3-8.4,0.5c-4.1,0.4-8.5,0.7-12.4,2.2
						c-7.5,3-11.3,10.5-14,17.7c-0.3,0.7,0.9,1,1.2,0.3c1.8-4.8,4-9.7,7.8-13.3c5-4.7,11.9-5.2,18.4-5.8c2.8-0.2,8.3,0.7,10.7-0.9
						c2.2-1.5,0.8-3.8,1-5.9C90,97.2,88.8,97.3,88.7,98L88.7,98z"/>
				</g>
			</g>
			<g>
				<g>
					<path d="M51.3,123.1c-1.8,9-2.3,18.1-4.6,26.9c-2.3,8.9-2.9,17.8-3.5,26.9c0,0.8,1.2,0.8,1.2,0c0.5-9.6,1.5-18.9,3.8-28.3
						c2.1-8.3,2.5-16.9,4.2-25.2C52.6,122.7,51.4,122.4,51.3,123.1L51.3,123.1z"/>
				</g>
			</g>
			<g>
				<g>
					<path d="M43.6,175.3c-1.9,23.9-4.4,47.7-4.9,71.7c0,0.8,1.2,0.8,1.2,0c0.5-24,3-47.8,4.9-71.7
						C44.8,174.5,43.6,174.5,43.6,175.3L43.6,175.3z"/>
				</g>
			</g>
			<g>
				<g>
					<path d="M39,244.5c-1.2,11.6-2.1,23.2-2.7,34.9c0,0.8,1.2,0.8,1.2,0c0.5-11.7,1.4-23.3,2.7-34.9C40.2,243.7,39,243.7,39,244.5
						L39,244.5z"/>
				</g>
			</g>
			<g>
				<g>
					<path d="M37.2,279.4c3,0.4,5.9,0.1,8.9,0.5c2.5,0.3,5,0.5,7.5,0.4c0.8,0,0.8-1.2,0-1.2c-2.9,0-5.6-0.2-8.5-0.6
						c-2.6-0.3-5.3,0-7.9-0.3C36.5,278.1,36.5,279.3,37.2,279.4L37.2,279.4z"/>
				</g>
			</g>
			<g>
				<g>
					<path d="M54.7,279.6c0.8-16.7,2.9-33.3,5.5-49.8c1.2-7.7,2.5-15.3,3.8-23c1.2-7.2,2-14.7,4.1-21.8c0.2-0.7-0.9-1.1-1.2-0.3
						c-2.1,7.3-3,15.1-4.2,22.7c-1.3,8-2.7,16-3.9,24c-2.5,16-4.5,32-5.3,48.1C53.4,280.4,54.6,280.4,54.7,279.6L54.7,279.6z"/>
				</g>
			</g>
			<g>
				<g>
					<path d="M67.8,185.4c0.6-2.7,1.2-5.3,1.8-8c0.2-0.8-1-1.1-1.2-0.3c-0.6,2.7-1.2,5.3-1.8,8C66.5,185.8,67.6,186.2,67.8,185.4
						L67.8,185.4z"/>
				</g>
			</g>
			<g>
				<g>
					<path d="M65.4,265.9c2.6-18,4.2-36.3,4.6-54.7c0-0.8-0.8-0.8-0.8,0c-0.4,18.3-1.9,36.5-4.6,54.4
						C64.6,266.4,65.4,266.7,65.4,265.9L65.4,265.9z"/>
				</g>
			</g>
			<g>
				<g>
					<path d="M70.2,212c0.1-11.3,1.7-24.3-1.7-34.4c-0.2-0.7-0.8-0.1-0.5,0.6c3.2,9.8,1.6,22.9,1.6,33.8
						C69.5,212.8,70.2,212.8,70.2,212L70.2,212z"/>
				</g>
			</g>
			<g>
				<g>
					<path d="M65.5,266.1c11.2,3.5,23.3,1.4,34.8,1.7c6.4,0.2,12.9,0.2,19.3-0.2c3.2-0.2,6.4-0.4,9.6-0.7c1.4-0.1,4,0.1,5.2-0.7
						c0.6-0.4,0-1.5-0.6-1c-1.8,1.2-6.3,0.7-8.4,0.9c-2.9,0.2-5.8,0.4-8.7,0.5c-5.8,0.2-11.6,0.1-17.4,0
						c-11.1-0.3-22.7,1.8-33.5-1.6C65.1,264.7,64.8,265.9,65.5,266.1L65.5,266.1z"/>
				</g>
			</g>
		</g>
		<g>
			<g>
				<path d="M63.5,169c2.8,5.7,5.9,8.2,12.2,9c5.6,0.8,11.5-0.7,14-6.3c0.3-0.7-0.7-1.3-1-0.6c-2.6,5.8-8.8,6.5-14.3,5.4
					c-4.9-1-7.6-3.8-9.8-8.2C64.2,167.7,63.2,168.3,63.5,169L63.5,169z"/>
			</g>
		</g>
		<g>
			<g>
				<path d="M135.3,168.3c-2.2,4.5-4.8,7.2-9.8,8.2c-5.6,1.1-11.8,0.4-14.3-5.4c-0.3-0.7-1.3-0.1-1,0.6c2.5,5.6,8.3,7,14,6.3
					c6.3-0.8,9.5-3.3,12.2-9C136.7,168.3,135.7,167.7,135.3,168.3L135.3,168.3z"/>
			</g>
		</g>
	</g>
	<g>
		<g>
			<path class="st5" d="M76.4,191.1c-0.1-0.1-0.1-0.3-0.2-0.4c-0.5,0.5-1,1-1.5,1.5c-0.3,0.1-0.7,0.2-1,0.4
				c-0.5-0.2-0.9-0.4-1.4-0.6c-0.6,0.2-1.1,0.4-1.7,0.6c0.6,0.3,1.2,0.7,1.8,1c-0.1-0.4-0.1-0.8,0-1.3c-0.7,0.2-1.5,0.4-2.2,0.6
				c0,0,0,0.1,0.1,0.1c0.2,0.3,0.6,0.6,1,0.6c0.1,0,0.1,0,0.2,0c0.6,0,1-0.3,1.2-0.9c0.4-1.2,0.2-2.9,0.2-4.2c0-1.6-2.3-1.5-2.4,0
				c-0.1,0.8-0.1,1.5,0,2.3c0.1,1.6,2.3,1.5,2.4,0c0.2-1.7,0.1-3.2-0.3-4.9c-0.3-1.4-2.3-1-2.4,0.3c-0.1,1-0.1,1.8,0,2.8
				c0.1,1.3,2.1,1.7,2.4,0.3c0.4-2,0.5-3.9,0.2-6c-0.1-1.2-2.1-1.8-2.4-0.3c-0.2,1.3-0.2,2.3,0,3.6c0.8-0.2,1.5-0.4,2.3-0.6
				c-0.1-0.6-0.2-1.1-0.3-1.7c0-1.3-2-1.6-2.4-0.3c-0.3,1-0.2,1.3,0.2,2.2c0.6,1.3,2.5,0.3,2.2-0.9c-0.4-2-0.9-4-1.5-5.9
				c-0.5-1.5-2.6-0.9-2.3,0.6c0.1,0.6,0.2,1.2,0.3,1.8c0.7-0.3,1.5-0.6,2.2-0.9c-0.6-1.1-1-2.2-1.4-3.5c-0.7,0.4-1.3,0.8-2,1.2
				c0.6,0.6,1.1,1.3,1.5,2.1c0.8,1.3,2.9,0.1,2.1-1.2c-0.6-0.9-1.2-1.7-1.9-2.6c-0.8-0.9-2.3,0-2,1.2c0.4,1.4,0.9,2.7,1.6,4
				c0.7,1.3,2.4,0.3,2.2-0.9c-0.1-0.6-0.2-1.2-0.3-1.8c-0.8,0.2-1.5,0.4-2.3,0.6c0.6,2,1.1,3.9,1.5,5.9c0.7-0.3,1.5-0.6,2.2-0.9
				c0-0.1,0-0.2,0-0.3c-0.8-0.1-1.6-0.2-2.4-0.3c0,1.2,0,1.2,0.4,2.3c0.5,1.5,2.6,0.9,2.3-0.6c0-0.8,0-1.6,0-2.3
				c-0.8-0.1-1.6-0.2-2.4-0.3c0.2,1.8,0.2,3.5-0.1,5.3c0.8,0.1,1.6,0.2,2.4,0.3c-0.1-1-0.1-1.8,0-2.8c-0.8,0.1-1.6,0.2-2.4,0.3
				c0.3,1.6,0.3,2.7,0.2,4.3c0.8,0,1.6,0,2.4,0c-0.1-0.8-0.1-1.6,0-2.3c-0.8,0-1.6,0-2.4,0c0,1,0.2,2.6-0.1,3.5
				c0.4-0.3,0.8-0.6,1.2-0.9c0.3,0.2,0.5,0.3,0.8,0.5c-0.6-1.1-2.1-0.5-2.2,0.6c-0.1,0.4-0.1,0.8,0,1.3c0.1,0.9,0.9,1.5,1.8,1
				c2.1-1,2.2-4.4-0.6-3.7c-0.4,0.1-0.8,0.5-0.8,0.8c-0.6,4.3,6.1,2.1,4-1c-0.3-0.5-0.8-0.7-1.4-0.6c-2.3,0.5-1.2,3.7,0.8,3.9
				c2.3,0.2,4.1-3.3,1.5-4.2c-0.9-0.3-1.8,0.6-1.5,1.5c0.2,0.6,0.4,1,0.8,1.5C75.6,194.1,77.3,192.3,76.4,191.1L76.4,191.1z"/>
		</g>
	</g>
	<g>
		<g>
			<path class="st5" d="M73.4,196.7c0-0.2,0-0.5,0-0.7c-0.8,0.1-1.6,0.2-2.4,0.3c0.2,0.7,0.1,1.3-0.1,1.9c0.8,0.1,1.6,0.2,2.4,0.3
				C73.3,197.9,73.3,197.3,73.4,196.7c0.5-1.4-1.8-2-2.2-0.5c-0.2,0.6-0.3,1.2-0.5,1.8c0.8,0.1,1.6,0.2,2.4,0.3
				c0.1-0.9,0.1-1.7,0.2-2.6c0.1-1.3-2.1-1.6-2.4-0.3c-0.2,0.7-0.2,1.5-0.2,2.3c0.1,1.6,2.2,1.5,2.4,0c0-0.4,0.2-0.8,0.3-1.2
				c-0.8-0.1-1.6-0.2-2.4-0.3c0,0.3,0,0.6,0,0.9c0,1.5,2.4,1.5,2.4,0c0-0.3,0-0.6,0-0.9c0-1.4-1.9-1.6-2.4-0.3
				c-0.2,0.6-0.3,1.2-0.4,1.9c0.8,0,1.6,0,2.4,0c0-0.5,0-1.1,0.1-1.6c-0.8-0.1-1.6-0.2-2.4-0.3c-0.1,0.9-0.1,1.7-0.2,2.6
				c-0.1,1.4,2,1.6,2.4,0.3C73.1,198,73.3,197.4,73.4,196.7c-0.7-0.1-1.5-0.3-2.2-0.5c-0.2,0.8-0.3,1.5-0.3,2.3
				c0,1.4,1.9,1.6,2.4,0.3c0.4-1,0.4-2.1,0.1-3.2c-0.3-1.4-2.3-1-2.4,0.3c0,0.2,0,0.5,0,0.7c0,0.6,0.6,1.2,1.2,1.2
				C72.9,197.9,73.3,197.3,73.4,196.7L73.4,196.7z"/>
		</g>
	</g>
	<g>
		<g>
			<path class="st5" d="M68.4,259c-0.6,0.6-1.2,1.1-1.7,1.8c0.7,0.2,1.3,0.4,2,0.5c0-0.8,0-1.5,0-2.3c-0.8-0.1-1.6-0.2-2.4-0.3
				c0.1,0.9,0.1,1.8-0.1,2.7c0.7-0.1,1.5-0.2,2.2-0.3c-0.1-0.1-0.2-0.3-0.3-0.4c-0.1-1.2-2-1.7-2.4-0.3c-0.1,0.3-0.2,0.7-0.2,1
				c0.8,0.1,1.6,0.2,2.4,0.3c0.4-6.3,0.5-12.6,1.9-18.7c0.3-1.5-2-2.1-2.3-0.6c-1.5,6.4-1.7,12.9-2,19.4c-0.1,1.3,2.1,1.6,2.4,0.3
				c0.1-0.3,0.2-0.7,0.2-1c-0.8-0.1-1.6-0.2-2.4-0.3c0.1,0.8,0.1,1,0.6,1.6c0.5,0.7,2,0.9,2.2-0.3c0.2-1.1,0.2-2.2,0.2-3.3
				c-0.1-1.3-2.1-1.7-2.4-0.3c-0.3,1.3-0.3,2.3,0,3.5c0.2,0.9,1.4,1.1,2,0.5c0.6-0.6,1.1-1.2,1.7-1.8C71.2,259.7,69.5,258,68.4,259
				L68.4,259z"/>
		</g>
	</g>
	<g>
		<g>
			<path class="st5" d="M69.2,238.8c-0.4,1-0.5,1.4-0.7,2.4c0.8,0,1.6,0,2.4,0c0-0.4,0-0.8,0-1.3c0-1.3-2.2-1.7-2.4-0.3
				c-0.1,0.6-0.2,1.1-0.2,1.7c-0.1,1,0.8,1.8,1.8,1.4c0.2-0.1,0.3-0.2,0.5-0.2c0.4-0.2,0.6-0.6,0.6-1c0-0.2,0-0.3,0-0.5
				c0-0.7-0.5-1.1-1.2-1.2c-0.2,0-0.3,0-0.5-0.1c-0.4-0.1-0.8,0.3-1,0.6c-0.1,0.1-0.2,0.3-0.3,0.4c0.7,0.2,1.5,0.4,2.2,0.6
				c1.7-13,3.2-26,4.6-39c0.2-1.5-2.2-1.5-2.4,0c-1.4,13-2.9,26-4.6,39c-0.2,1.3,1.7,1.5,2.2,0.6c-0.1,0.1-0.2,0.1-0.2,0.2
				c-0.4-0.4-0.8-0.8-1.2-1.2c0-0.1,0.1-0.2,0.1-0.3c0.6,0.5,1.2,0.9,1.8,1.4c0.1-0.6,0.2-1.1,0.2-1.7c-0.8-0.1-1.6-0.2-2.4-0.3
				c0,0.4,0,0.8,0,1.3c0.1,1.6,2.2,1.5,2.4,0c0.1-0.4,0.2-0.8,0.3-1.2C71.9,238.6,69.8,237.4,69.2,238.8L69.2,238.8z"/>
		</g>
	</g>
	<g>
		<g>
			<path class="st5" d="M73,191.6c-0.4,1.5-0.6,2.8-0.7,4.3c0.8-0.1,1.6-0.2,2.4-0.3c-0.1-0.6-0.3-1.2-0.4-1.9
				c-0.2-1.2-2.2-1.8-2.4-0.3c-0.1,0.8-0.2,1.7-0.3,2.5c0.8,0.1,1.6,0.2,2.4,0.3c-0.1-0.7-0.1-1.5-0.2-2.2c-0.2-1.5-2.3-1.5-2.4,0
				c0,0.4-0.1,0.9-0.1,1.3c0.8-0.1,1.6-0.2,2.4-0.3c-0.1-0.4-0.2-0.7-0.3-1.1c-0.3-1.1-2.1-1.2-2.3,0c-0.2,0.9-0.3,1.8-0.5,2.7
				c-0.1,0.6,0.2,1.3,0.8,1.5c0,0-0.3,7.5-0.3,8.2c0.8,0,1.6,0,2.4,0c-0.1-2.7-0.1-5.4-0.2-8.1c0-1.5-2.3-1.5-2.4,0
				c-0.2,5-0.4,10-0.6,15c-0.1,2.3-0.2,4.7-0.3,7c-0.1,1.3,0.5,7.7-0.6,8.5c0.6,0.3,1.2,0.7,1.8,1c0.1-10.7,0.9-21.4,2.3-32.1
				c0.2-1.2-1.7-1.6-2.2-0.6c-0.8,1.5-0.8,2.5-0.4,4.3c0.2,1.1,2.1,1.2,2.3,0c0.3-1.7,0.5-4-2-3.5c-0.7,0.1-1,0.9-0.8,1.5
				c0,0.1,0.1,0.2,0.1,0.4c0.1,0.5,0.7,0.9,1.2,0.9c0.1,0,0.2,0,0.3,0c1.5-0.1,1.5-2.5,0-2.4c0.3,0.2,0.5,0.4,0.8,0.5
				c-0.3,0.5-0.6,1-0.8,1.5c-0.3,0.2-0.6,0.3-1,0.5c0.8,0,1.5,0,2.3,0c0.1-0.8,0.1-1.6,0.2-2.4c-0.7-0.2-1.5-0.4-2.2-0.6
				c-1.4,10.7-2.1,21.4-2.3,32.1c0,0.8,1.1,1.6,1.8,1c3-2.2,1.7-8.3,1.9-11.5c0.3-7,0.5-14,0.8-21c-0.8,0-1.6,0-2.4,0
				c0.1,2.7,0.1,5.4,0.2,8.1c0,1.5,2.4,1.5,2.4,0c0-2.4,1.8-9.6-1.4-10.5c0.3,0.5,0.6,1,0.8,1.5c0.2-0.9,0.3-1.8,0.5-2.7
				c-0.8,0-1.5,0-2.3,0c0.1,0.4,0.2,0.7,0.3,1.1c0.4,1.4,2.2,1,2.4-0.3c0-0.4,0.1-0.9,0.1-1.3c-0.8,0-1.6,0-2.4,0
				c0.1,0.7,0.1,1.5,0.2,2.2c0.1,1.2,2.2,1.8,2.4,0.3c0.1-0.8,0.2-1.7,0.3-2.5c-0.8-0.1-1.6-0.2-2.4-0.3c0.1,1.1,0.2,1.4,0.5,2.5
				c0.4,1.3,2.3,1,2.4-0.3c0-1.3,0.2-2.5,0.6-3.7C75.6,190.8,73.3,190.1,73,191.6L73,191.6z"/>
		</g>
	</g>
	<g>
		<g>
			<path class="st5" d="M128,210.7c-0.2-1.9-0.5-3.8-0.9-5.7c-0.3-1.5-2.6-0.9-2.3,0.6c0.3,1.8,0.6,3.7,0.9,5.5
				c0.2,1.4,2.4,1,2.4-0.3c0-1.8-0.2-3.5-0.5-5.3c-0.8,0.2-1.5,0.4-2.3,0.6c0.4,1.2,0.8,2.4,1.2,3.7c0.4,1.3,2.4,1.1,2.4-0.3
				c0-1.8,0-3.6,0-5.4c-0.8,0-1.6,0-2.4,0c0.1,1.2,0.2,2.4,0.3,3.7c0.8,0,1.6,0,2.4,0c-0.1-0.8-0.2-1.6-0.3-2.4
				c-0.2-1.5-2.3-1.6-2.4,0c-0.1,1.4,0.1,2.4,0.6,3.8c0.6,1.4,2.6,0.9,2.3-0.6c-0.7-4.2-1.5-8.4-2.2-12.6c-0.8,0.2-1.5,0.4-2.3,0.6
				c0.7,2.1,1.4,4.1,2.1,6.2c0.4,1.3,2.3,1.1,2.4-0.3c0.1-1.9,0-3.5-0.4-5.4c-0.3-1.5-2.5-0.9-2.3,0.6c0.2,1.5,0.4,3.1,0.6,4.6
				c0.2,1.3,2.5,1,2.4-0.3c-0.3-2.5-0.5-5.1-0.6-7.6c-0.8,0.1-1.6,0.2-2.4,0.3c0.4,2,0.7,4.1,1.1,6.1c0.3,1.5,2.5,0.9,2.3-0.6
				c-1-7-1-13.9,0.2-20.8c-0.8-0.1-1.6-0.2-2.4-0.3c-0.1,3.8-0.4,7.5-0.8,11.3c-0.1,1.3,2.2,1.7,2.4,0.3c0.6-4.1,1.1-8.1,1.7-12.2
				c0.2-1.5-2-2.2-2.3-0.6c-1.3,6.1-1.9,12.3-2,18.6c0,1.5,2.4,1.5,2.4,0c0-6.1,0.6-12,1.9-17.9c-0.8-0.2-1.5-0.4-2.3-0.6
				c-0.6,4.1-1.1,8.1-1.7,12.2c0.8,0.1,1.6,0.2,2.4,0.3c0.4-3.8,0.7-7.5,0.8-11.3c0-1.3-2.1-1.7-2.4-0.3c-1.2,7.4-1.3,14.7-0.2,22.1
				c0.8-0.2,1.5-0.4,2.3-0.6c-0.4-2-0.7-4.1-1.1-6.1c-0.2-1.3-2.4-1-2.4,0.3c0.1,2.5,0.4,5.1,0.6,7.6c0.8-0.1,1.6-0.2,2.4-0.3
				c-0.2-1.5-0.4-3.1-0.6-4.6c-0.8,0.2-1.5,0.4-2.3,0.6c0.4,1.6,0.5,3.1,0.3,4.7c0.8-0.1,1.6-0.2,2.4-0.3c-0.7-2.1-1.4-4.1-2.1-6.2
				c-0.5-1.5-2.6-0.9-2.3,0.6c0.7,4.2,1.5,8.4,2.2,12.6c0.8-0.2,1.5-0.4,2.3-0.6c-0.5-1-0.7-2-0.6-3.1c-0.8,0-1.6,0-2.4,0
				c0.1,0.8,0.2,1.6,0.3,2.4c0.2,1.5,2.5,1.6,2.4,0c-0.1-1.2-0.2-2.4-0.3-3.7c-0.1-1.5-2.4-1.6-2.4,0c0,1.8,0,3.6,0,5.4
				c0.8-0.1,1.6-0.2,2.4-0.3c-0.4-1.2-0.8-2.4-1.2-3.7c-0.5-1.5-2.6-0.9-2.3,0.6c0.3,1.6,0.4,3.1,0.4,4.7c0.8-0.1,1.6-0.2,2.4-0.3
				c-0.3-1.8-0.6-3.7-0.9-5.5c-0.8,0.2-1.5,0.4-2.3,0.6c0.4,1.7,0.7,3.4,0.9,5.1C125.8,212.2,128.2,212.2,128,210.7L128,210.7z"/>
		</g>
	</g>
	<g>
		<g>
			<path class="st5" d="M130.3,222.4c-0.6-2.8-1.3-5.6-1.9-8.3c-0.3-1.3-2.5-1-2.4,0.3c0.3,2.1,0.6,4.2,0.8,6.3
				c0.2,1.5,2.4,1.6,2.4,0c-0.1-2.8-0.3-5.6-0.6-8.4c-0.2-1.5-2.5-1.6-2.4,0c0.2,2.3,0.5,4.6,0.9,6.9c0.3,1.3,2.4,1,2.4-0.3
				c-0.1-2.9-0.5-5.8-1-8.7c-0.3-1.3-2.5-1-2.4,0.3c0.2,2.1,0.6,4.2,1.1,6.2c0.3,1.3,2.4,1,2.4-0.3c0-1.5,0-3,0-4.6
				c-0.8,0-1.6,0-2.4,0c0,2.2,0.2,4.3,0.7,6.4c0.3,1.3,2.5,1,2.4-0.3c-0.5-4.7-1-9.5-1.5-14.2c-0.8,0.1-1.6,0.2-2.4,0.3
				c0.6,2.2,1,4.4,1.2,6.8c0.1,1.6,2.3,1.5,2.4,0c0.2-2.5,0.1-4.9-0.3-7.4c-0.2-1.3-2.5-1-2.4,0.3c0.1,1.6,0.2,3.2,0.4,4.7
				c0.1,1.5,2.3,1.5,2.4,0c0.2-2.2,0-4.2-0.4-6.3c-0.3-1.5-2.6-0.9-2.3,0.6c0.4,2.1,0.5,3.6,0.4,5.7c0.8,0,1.6,0,2.4,0
				c-0.1-1.6-0.2-3.2-0.4-4.7c-0.8,0.1-1.6,0.2-2.4,0.3c0.4,2.3,0.5,4.4,0.2,6.7c0.8,0,1.6,0,2.4,0c-0.2-2.5-0.6-4.9-1.3-7.4
				c-0.4-1.3-2.5-1.1-2.4,0.3c0.5,4.7,1,9.5,1.5,14.2c0.8-0.1,1.6-0.2,2.4-0.3c-0.4-2-0.5-3.8-0.6-5.8c0-1.5-2.4-1.5-2.4,0
				c0,1.5,0,3,0,4.6c0.8-0.1,1.6-0.2,2.4-0.3c-0.5-1.9-0.8-3.6-1-5.6c-0.8,0.1-1.6,0.2-2.4,0.3c0.5,2.7,0.8,5.4,0.9,8.1
				c0.8-0.1,1.6-0.2,2.4-0.3c-0.4-2.1-0.7-4.2-0.9-6.3c-0.8,0-1.6,0-2.4,0c0.3,2.8,0.5,5.6,0.6,8.4c0.8,0,1.6,0,2.4,0
				c-0.3-2.1-0.6-4.2-0.8-6.3c-0.8,0.1-1.6,0.2-2.4,0.3c0.6,2.8,1.3,5.6,1.9,8.3C128.3,224.5,130.6,223.9,130.3,222.4L130.3,222.4z"
				/>
		</g>
	</g>
	<g>
		<g>
			<path class="st5" d="M128.3,230.2c-0.3,0.3-0.5,0.7-0.8,1c0.7,0.3,1.4,0.6,2,0.8c0.1-2.1,0.1-4.3,0.2-6.4
				c-0.8,0.1-1.6,0.2-2.4,0.3c0.4,2.1,0.5,4,0.6,6.1c0.8,0,1.6,0,2.4,0c-0.3-2.5-0.6-5.1-0.9-7.6c-0.2-1.5-2.5-1.6-2.4,0
				c0.1,1.2,0.2,2.5,0.3,3.7c0.8-0.1,1.6-0.2,2.4-0.3c-0.2-1.4-0.4-2.7-0.6-4.1c-0.8,0.2-1.5,0.4-2.3,0.6c0.5,1.1,0.8,2.2,1,3.4
				c0.3,1.3,2.3,1,2.4-0.3c0.1-1.3,0-2.6-0.2-3.8c-0.8,0.1-1.6,0.2-2.4,0.3c0.3,0.7,0.5,1.5,0.6,2.3c0.2,1.3,2.5,1,2.4-0.3
				c-0.2-2.4-0.5-4.8-0.7-7.2c-0.1-1.5-2.5-1.6-2.4,0c0.5,9.4,0.9,18.8,1.3,28.2c0.1,1.5,2.5,1.5,2.4,0c-0.1-2.1-0.2-4.3-0.3-6.4
				c-0.8,0.1-1.6,0.2-2.4,0.3c0.5,1.3,0.8,2.6,1,4c0.8-0.1,1.6-0.2,2.4-0.3c-0.6-2.2-1-4.2-1.3-6.5c-0.8,0.1-1.6,0.2-2.4,0.3
				c0.1,1.1,0.4,2.1,0.8,3.1c0.4,1.2,2.3,1.1,2.4-0.3c0-0.8,0-1.5,0-2.3c-0.8,0.1-1.6,0.2-2.4,0.3c0.1,0.4,0.2,0.8,0.4,1.2
				c0.5,1.5,2.7,0.9,2.3-0.6c-0.2-0.6-0.3-1.3-0.5-1.9c-0.4-1.5-2.7-0.9-2.3,0.6c0.2,0.6,0.3,1.3,0.5,1.9c0.8-0.2,1.5-0.4,2.3-0.6
				c-0.1-0.4-0.2-0.8-0.4-1.2c-0.4-1.3-2.3-1.1-2.4,0.3c0,0.8,0,1.5,0,2.3c0.8-0.1,1.6-0.2,2.4-0.3c-0.4-1-0.7-2-0.8-3.1
				c-0.3-1.3-2.5-1-2.4,0.3c0.3,2.4,0.7,4.7,1.3,7.1c0.3,1.3,2.5,1.1,2.4-0.3c-0.2-1.6-0.5-3-1-4.6c-0.4-1.2-2.4-1.1-2.4,0.3
				c0.1,2.1,0.2,4.3,0.3,6.4c0.8,0,1.6,0,2.4,0c-0.4-9.4-0.9-18.8-1.3-28.2c-0.8,0-1.6,0-2.4,0c0.2,2.4,0.5,4.8,0.7,7.2
				c0.8-0.1,1.6-0.2,2.4-0.3c0-0.8-0.2-1.5-0.6-2.3c-0.4-1.2-2.5-1.1-2.4,0.3c0.3,1.3,0.3,2.6,0.2,3.8c0.8-0.1,1.6-0.2,2.4-0.3
				c-0.2-1.2-0.5-2.3-1-3.4c-0.6-1.5-2.5-0.9-2.3,0.6c0.2,1.4,0.4,2.7,0.6,4.1c0.2,1.3,2.5,1,2.4-0.3c-0.1-1.2-0.2-2.5-0.3-3.7
				c-0.8,0-1.6,0-2.4,0c0.3,2.5,0.6,5.1,0.9,7.6c0.2,1.5,2.5,1.6,2.4,0c-0.1-2.3-0.3-4.5-0.7-6.7c-0.2-1.4-2.3-1-2.4,0.3
				c-0.1,2.1-0.1,4.3-0.2,6.4c0,1,1.4,1.7,2,0.8c0.3-0.3,0.5-0.7,0.8-1C131,230.6,129.3,228.9,128.3,230.2L128.3,230.2z"/>
		</g>
	</g>
	<g>
		<g>
			<path class="st5" d="M132,250.8c0-1.1,0-2,0.1-3.1c-0.8,0-1.6,0-2.4,0c0,1.2,0.1,2.4,0.4,3.6c0.3,1.5,2.5,0.9,2.3-0.6
				c-0.2-1.4-0.4-2.7-0.6-4.1c-0.8,0.2-1.5,0.4-2.3,0.6c0,0.3,0.1,0.5,0.1,0.8c0.3,1.5,2.6,0.9,2.3-0.6c-0.2-1.1-0.4-2.2-0.5-3.4
				c-0.2-1.3-2.5-1-2.4,0.3c0.8,6.5,1.6,12.9,2.5,19.4c0.2,1.2,2.1,1.8,2.4,0.3c0.2-0.9,0.2-1.2-0.2-2c-0.5-1.4-2.9-0.8-2.3,0.6
				c0.1,0.3,0.1,0.5,0.2,0.8c0.8,0.1,1.6,0.2,2.4,0.3c-0.8-6.5-1.6-12.9-2.5-19.4c-0.8,0.1-1.6,0.2-2.4,0.3c0.2,1.1,0.4,2.2,0.5,3.4
				c0.8-0.2,1.5-0.4,2.3-0.6c0-0.3-0.1-0.5-0.1-0.8c-0.3-1.5-2.5-0.9-2.3,0.6c0.2,1.4,0.4,2.7,0.6,4.1c0.8-0.2,1.5-0.4,2.3-0.6
				c-0.2-1-0.3-2-0.3-3c0-1.6-2.2-1.5-2.4,0c-0.1,1.1-0.2,2-0.1,3.1C129.7,252.4,132.1,252.4,132,250.8L132,250.8z"/>
		</g>
	</g>
	<g>
		<g>
			<path class="st5" d="M118,251.6c-0.1-0.3-0.2-0.7-0.3-1c0-0.1,0-0.3,0-0.4c0-0.3-0.1-0.3-0.3,0c-0.3,0-0.6,0.1-0.9,0.1
				c0.3,0.1,0.6,1.5,0.7,1.8c0.2,0.7,0.1,1.4,0.1,2.1c0.7-0.3,1.4-0.6,2-0.8c-0.6-0.6-1.5-1.8-1.2-2.7c-0.2,0.2-0.4,0.5-0.6,0.7
				c-0.7-0.5-0.9-0.5-0.7,0c0,0.2,0,0.3,0.1,0.5c0,0.4-0.2,1.2-0.1,1.5c-0.1,0.4,0.1,0.4,0.7,0.1c-0.1-0.1-0.3-0.2-0.4-0.3
				c-0.3-0.3-0.4-0.6-0.4-1c-0.3-1.5-2.6-0.9-2.3,0.6c0.3,1.4,1.8,3.5,3.5,2.9c1.8-0.6,1.6-3.7,1.3-5.2c-0.2-0.8-0.7-1.4-1.5-1.6
				c-0.8-0.1-1.7,0.4-1.9,1.2c-0.4,1.7,0.7,3.7,1.9,4.8c0.8,0.8,1.9,0.2,2-0.8c0.2-1.8-0.2-5.3-2.2-6.2c-0.9-0.4-1.9,0.1-2.1,1.1
				c-0.3,1.2,0.1,2.5,0.6,3.6C116.5,254.2,118.6,253,118,251.6L118,251.6z"/>
		</g>
	</g>
	<g>
		<g>
			<path class="st5" d="M129.9,192.1c-0.1-0.2-0.2-0.4-0.2-0.7c-0.8,0.1-1.6,0.2-2.4,0.3c0.1,0.6,0.2,1.2,0.1,1.9c0.8,0,1.6,0,2.4,0
				c0-0.4,0-0.8,0.1-1.3c0.1-0.6-0.2-1.3-0.8-1.5c-0.6-0.2-1.4,0.2-1.5,0.8c-0.1,0.6-0.2,1.3-0.1,1.9c0.1,1.5,2.3,1.5,2.4,0
				c0.1-0.8,0-1.7-0.2-2.5c-0.3-1.4-2.3-1-2.4,0.3c0,0.7,0.2,1.3,0.5,1.9C128.6,194.6,130.7,193.4,129.9,192.1L129.9,192.1z"/>
		</g>
	</g>
</g>
</svg>
