<?xml version="1.0" encoding="utf-8"?>
<!-- Generator: Adobe Illustrator 21.0.2, SVG Export Plug-In . SVG Version: 6.00 Build 0)  -->
<svg version="1.1" id="Layer_1" xmlns="http://www.w3.org/2000/svg" xmlns:xlink="http://www.w3.org/1999/xlink" x="0px" y="0px"
	 viewBox="0 0 200 600" style="enable-background:new 0 0 200 600;" xml:space="preserve">
<style type="text/css">
	.st0{fill:#97D5CD;}
	.st1{fill:none;stroke:#000000;stroke-width:0.1;stroke-miterlimit:10;}
	.st2{fill:#70CACB;}
</style>
<g>
	<g>
		<g>
			<g id="XMLID_2_">
				<g>
					<path class="st0" d="M72.3,133.5c2.3-8.6,0.7-17.8,1.8-26.7l0.6,0.1c0.3,0.1,0.6,0.1,0.8,0.2c1-0.3,2.2-0.3,3.2-0.1l0,0
						c0.3,0.3,0.4,0.8,0.4,1.3c0.3,5.9,0,11.8-0.4,17.7c-0.1,1.5-0.2,2.9-0.2,4.4c-0.1,0.4-0.1,0.8-0.1,1.2c0.1,0.7,0.5,1.4,1,1.9
						c0.9,0.9,2.1,1.4,3.3,1.8c11.2,3.8,23.7,4.1,35.1,0.6c2.2-0.7,4.3-1.4,6.5-2l0.1-0.1c0.3-8.9,0.2-17.9-0.5-26.8l0.3-0.6
						c1.5,0,3,0.1,4.5,0.3l0.3,0.8c0.1,2,0,4.1,0,6.1c-0.1,2.4-0.1,4.9-0.1,7.3c-0.1,4.2-0.2,8.3-0.7,12.4l0.1,0c3.1,2,5.5,5,7,8.4
						c1.4,3.1,2.1,6.4,2.2,9.7h0.1c0.1,0.7,0.1,1.5-0.2,2.2c-0.1,0.2-0.2,0.5-0.3,0.7c-0.1,0.3,0,0.6,0,0.9c0.3,2.5-0.1,5.1-1.5,7.1
						c-0.5,0.7-1,1.4-1.6,2.1c-1.2,1.4-2.4,2.7-3.6,4.1l-0.6-0.4c-0.2,0.4-0.4,0.7-0.6,1.1c-0.3,5-0.6,10-0.9,15
						c-1.2,19.5-2.4,39.1-6.2,58.3l-0.1,0.2c-2.2-0.6-4.5-0.5-6.7-0.8c-2.3-0.2-4.6-0.9-6.9-1.1c-2.5-0.3-5-0.2-7.6,0
						c-8.1,0.4-16.2,0.8-24.1,2.2l-0.5,0c-1.1-16-2.3-31.9-3.4-47.9l-0.1,0c-1.5-8.9-0.7-18.1-2.3-26.9c0,0,0,0,0,0c0,0,0,0,0,0
						c-1.1-1.1-2.4-1.9-3.5-3c-3.9-3.8-5.3-10-3.4-15.1l0.3,0.1c1.2-6,3.6-12.1,8.5-15.8L72.3,133.5z"/>
				</g>
				<g>
					<path class="st1" d="M76.3,243c-1.1-16-2.3-31.9-3.4-47.9c0-0.3,0-0.5,0-0.8"/>
					<path class="st1" d="M76.8,243c7.9-1.5,16-1.8,24.1-2.2c2.5-0.1,5-0.2,7.6,0c2.3,0.3,4.6,0.9,6.9,1.1c2.3,0.2,4.6,0.1,6.7,0.8
						c0.1,0,0.1,0,0.2,0.1c0.2,0.1,0.5,0.1,0.6-0.1c0.1-0.2-0.3-0.3-0.3-0.1"/>
					<path class="st1" d="M130.6,168.4c1.2-1.4,2.4-2.7,3.6-4.1c0.6-0.7,1.2-1.3,1.6-2.1c1.3-2.1,1.7-4.7,1.5-7.1
						c0-0.3-0.1-0.6,0-0.9c0.1-0.3,0.2-0.5,0.3-0.7c0.3-0.7,0.4-1.5,0.2-2.2"/>
					<path class="st1" d="M72.3,133.5c2.3-8.6,0.7-17.8,1.8-26.7c0-0.1,0-0.1,0-0.2"/>
					<path class="st1" d="M78.4,133c0-0.5,0.1-1,0.1-1.5c0-0.4,0.1-0.8,0.1-1.2c0.1-1.5,0.2-2.9,0.2-4.4c0.3-5.9,0.6-11.8,0.4-17.7
						c0-0.4-0.1-1-0.4-1.3c0,0,0,0-0.1-0.1"/>
					<path class="st1" d="M78.7,129.9c-0.1,0.1-0.1,0.3-0.2,0.4c-0.1,0.4-0.1,0.8-0.1,1.2c0.1,0.7,0.5,1.4,1,1.9
						c0.9,0.9,2.1,1.4,3.3,1.8c11.2,3.8,23.7,4.1,35.1,0.6c2.2-0.7,4.3-1.4,6.5-2"/>
					<path class="st1" d="M124.4,133.7c0.3-8.9,0.2-17.9-0.5-26.8"/>
					<path class="st1" d="M128.2,133.4c0-0.1,0-0.1,0-0.2c0.5-4.1,0.6-8.3,0.7-12.4c0.1-2.4,0.1-4.9,0.1-7.3c0-2,0.1-4.1,0-6.1"/>
					<path class="st1" d="M137.6,152.4c0-0.4,0-0.7,0-1.1c-0.1-3.4-0.8-6.7-2.2-9.7c-1.5-3.4-3.9-6.4-7-8.4"/>
					<path class="st1" d="M63.4,153c0-0.8,0.1-1.6,0.2-2.5c0-0.2,0.1-0.3,0.1-0.5c1.2-6,3.6-12.1,8.5-15.8"/>
					<path class="st1" d="M75.5,107.1C75.5,107.1,75.6,107.1,75.5,107.1c1.1-0.3,2.2-0.4,3.2-0.1"/>
					<path class="st1" d="M124.3,106.2c1.5,0,3,0.1,4.5,0.3"/>
					<path class="st1" d="M72.8,195.1c-1.5-8.9-0.7-18.1-2.3-26.9c0,0,0,0,0,0"/>
					<path class="st1" d="M122.2,242.4c3.8-19.2,5-38.8,6.2-58.3c0.3-5,0.6-10,0.9-15c0,0,0-0.1,0-0.1"/>
					<path class="st1" d="M129.2,169.2c0,0,0.1-0.1,0.1-0.1c0.2-0.4,0.4-0.7,0.6-1.1c0.1-0.2,0.2-0.4,0.3-0.5"/>
					<path class="st1" d="M71,168.7c-0.2-0.2-0.4-0.4-0.6-0.6c0,0,0,0-0.1,0c-1.1-1.1-2.4-1.9-3.5-3c-3.9-3.8-5.3-10-3.4-15.1"/>
					<path class="st1" d="M70,168.4c-0.2-0.1,0.1-0.3,0.4-0.3c0,0,0,0,0,0c0,0,0,0,0.1,0c2.4,0.7,4.8,1.9,7.3,2.3
						c4.3,0.7,8.8-1,11.7-4.2"/>
					<path class="st1" d="M129.3,168.8c-1.9-0.1-3.6,1-5.4,1.5c-2.5,0.7-5.3,0.4-7.7-0.7c-2.4-1.1-4.4-2.8-6.1-4.9"/>
					<path class="st1" d="M75.8,107.1c-0.1,0-0.1,0-0.2,0c-0.3-0.1-0.5-0.1-0.8-0.2"/>
				</g>
			</g>
		</g>
		<g>
			<g>
				<path class="st0" d="M85,198.9c0.2,1.5,0.5-0.5,0.6-1.2c0.2-1,0.4-2.1,0.3-3.1c-0.1-2.3-1.1-4.2-2.7-5.8
					c-3.2-3.1-8.9-1.8-10,2.6c-0.7,2.9-0.7,5.3-0.2,8.2c1,6.8,11.9,5,11.8-1.6c0-2.2-0.2-4.3-0.5-6.5c-0.9-7.4-12-8-12,0
					c0,0.5,0,0.9,0,1.4c3.9-0.5,7.9-1.1,11.8-1.6c-0.2-0.5-0.3-1.1-0.5-1.6c-2-6.2-12.2-5.5-11.8,1.6c0.4,6.6,0.9,13.1,0.8,19.7
					c0,4.4,0.3,10.8,2.8,14.6c4.2,6.4,14.6,0.4,10.4-6.1c-0.6-0.9-0.7-3.5-0.9-4.7c-0.4-2.5-0.2-5.1-0.3-7.6
					c-0.1-5.3-0.5-10.6-0.8-15.9c-3.9,0.5-7.9,1.1-11.8,1.6c0.2,0.5,0.3,1.1,0.5,1.6c2,6.3,11.8,5.4,11.8-1.6c0-0.5,0-0.9,0-1.4
					c-4,0-8,0-12,0c0.3,2.2,0.4,4.3,0.5,6.5c3.9-0.5,7.9-1.1,11.8-1.6c0.1-0.6,0.2-1.2,0.2-1.9c-3.3,0.9-6.7,1.8-10,2.6
					c-0.4-2.4-0.7-3-1-1.6c-0.2,0.6-0.4,1.3-0.5,2c-0.2,1.6,0,2.9,0.2,4.5C74.7,209.7,86.3,206.4,85,198.9L85,198.9z"/>
			</g>
		</g>
		<g>
			<g>
				<path class="st0" d="M83.9,222.2c-0.5,0.6-0.1,0.1,0.2-0.1c0.3-0.2,1.7-0.3,1.1-0.3c-0.3,0-0.6,0-0.9,0
					c-3.3-0.2,4.6-0.7,3.3,5.4c0.6-3.1-0.9-6.6-4.2-7.4c-3.1-0.7-6.6,0.9-7.4,4.2c-0.1,0.4-0.3,0.9-0.4,1.3
					c-0.2,0.9,0.5-1.1-0.2,0.4c3.1-0.4,6.3-0.8,9.4-1.2c1.7,1.9,1.2,4.3,1.3,2.3c0-0.3,0.1-0.6,0.1-1c0-1.5-0.4-2.9-1.1-4.2
					c-1.5-2.7-5.5-3.9-8.2-2.2c-2.8,1.8-3.8,5.3-2.2,8.2c-1.1-2-0.4-2.6-0.5-1.2c0,0.4-0.1,0.9-0.1,1.3c0,2.1,0.8,3.8,2.2,5.3
					c2.5,2.7,7.7,2.2,9.4-1.2c0.7-1.5,1.4-3,1.8-4.6c-3.9-1.1-7.7-2.1-11.6-3.2c-0.5,2.2-0.3,4.3,0.9,6.2c1.5,2.3,3.8,3.2,6.5,3.5
					c3.2,0.4,6.8-0.5,9-3c2-2.4,2.5-6.2,0-8.5C90.2,220.2,86.1,219.7,83.9,222.2L83.9,222.2z"/>
			</g>
		</g>
		<g>
			<g>
				<path class="st0" d="M121.9,163.9c4.3-1.3,7.8-3.3,11.3-6c-3.4-1.4-6.8-2.8-10.2-4.2c0.3,1,0.1,1.9-0.5,2.7
					c-3.3,6.1,4.3,11.8,9.4,7.3c2.2-2,4-4.3,5.3-7c-3.7-0.5-7.3-1-11-1.4c-0.3-1.5-4.1-0.1-5.2-0.1c-1.9,0.1-4.1-0.5-6,0.1
					c-4.3,1.3-6.1,6.7-7.7,10.4c3.7,1,7.5,2,11.2,3c0-0.3,0-0.5,0-0.8c-3.7,0.5-7.3,1-11,1.4c0.5,1.2,1,2.5,1.3,3.7
					c1.4,4.5,8.7,6.4,11,1.4c0.5-1,0.9-2.1,1.4-3.1c-3.5,0-6.9,0-10.4,0c0.2,0.4,0.4,0.9,0.6,1.3c1.3,3.8,7,6.5,10,2.6
					c1.2-1.5,2.3-3,3.4-4.7c-3.7-0.5-7.3-1-11-1.4c0.4,1,0.7,2,0.8,3.1c0.7,3.6,5.8,5.7,8.8,3.6c1.6-1.1,2.7-2.1,3.7-3.8
					c-3.7-1-7.5-2-11.2-3c0,0.3,0,0.7,0,1c0.1,5.9,8.2,8.3,11.2,3c0.5-1,1.1-1.9,1.6-2.9c-3.7-0.5-7.3-1-11-1.4
					c0.1,0.5,0.2,0.9,0.3,1.4c1.5,7.1,11.1,4.7,11.8-1.6c0.8-7.3-8.5-7.7-13.3-6.3c-3,0.9-5.6,2.9-8.3,4.4c-1.6,0.9-6.7,4.3-8.1,4.2
					c1.4,0.6,2.8,1.2,4.2,1.8c0.8,1.8,1,2,0.6,0.6c-0.2-0.9-0.5-1.7-0.7-2.6c-1.2-4.6-6.7-5.5-10-2.6c2.8,1.2,3.9,1,3.4-0.6
					c-0.1-0.6-0.3-1.2-0.6-1.7c-0.5-1.3-1.1-2.2-2.2-3.1c-2.3-2-4.4-2.1-7.3-1.6c2.3,0.9,4.5,1.8,6.8,2.8c-0.1-0.2-0.2-0.3-0.3-0.5
					c-1.6-2.8-5.4-3.8-8.2-2.2c-2.2,1.3-4.4,2-7,2.3c1.7,1,3.5,2,5.2,3c-2.2-3.4-5.2-5.2-9.3-5.2c-7.7,0-7.7,12,0,12
					c-0.4-0.3-0.7-0.5-1.1-0.8c1.1,1.7,3,3.1,5.2,3c4.7-0.4,8.9-1.5,13-3.9c-2.7-0.7-5.5-1.4-8.2-2.2c0.1,0.2,0.2,0.3,0.3,0.5
					c1.4,2.5,4.1,3.2,6.8,2.8c0.4-0.1,0.7-0.1,1.1-0.2c-1.5-0.2-3.1-0.4-4.6-0.6c0.3,0.2,0.6,0.5,1,0.7c-0.9-1.2-1.8-2.4-2.8-3.6
					c1.6,4,2.4,7.6,6.7,9.6c3.8,1.7,7.5,0.6,10.5-2c-3.3-0.9-6.7-1.8-10-2.6c1.8,6.9,5.2,11,12.5,7.7c3.3-1.5,6.6-3.1,9.8-4.9
					c1.3-0.7,2.7-2,4.1-2.5c1.8-0.6,3.8-0.4,5.8-0.7c-1.5-0.2-3.1-0.4-4.6-0.6c0.2,0.1,0.3,0.3,0.5,0.4c-1-1.7-2-3.5-3-5.2
					c0,0.2,0,0.4-0.1,0.6c3.9-0.5,7.9-1.1,11.8-1.6c-0.1-0.5-0.2-0.9-0.3-1.4c-1.1-5.1-8.5-5.8-11-1.4c-0.5,1-1.1,1.9-1.6,2.9
					c3.7,1,7.5,2,11.2,3c0-0.3,0-0.7,0-1c-0.1-6.1-8-8-11.2-3c0.2-0.2,0.4-0.3,0.6-0.5c2.9,1.2,5.9,2.4,8.8,3.6
					c-0.1-1.1-0.4-2.1-0.8-3.1c-1.7-4.9-8.1-5.9-11-1.4c-0.5,0.8-1,1.5-1.5,2.2c3.3,0.9,6.7,1.8,10,2.6c-0.5-1.5-1.1-2.8-1.8-4.2
					c-2-3.7-8.5-4.1-10.4,0c-0.5,1-0.9,2.1-1.4,3.1c3.7,0.5,7.3,1,11,1.4c-0.7-2.3-1.6-4.4-2.5-6.6c-2.2-5-9.6-3-11,1.4
					c-0.4,1.4-0.6,2.5-0.5,4c0.5,5.2,8.6,9.1,11.2,3c0.9-2,1.7-4.8,3.2-6.4c-1.4,0.6-2.8,1.2-4.2,1.8c9.4-0.1,24-1.8,21.1-15
					c-1.1-4.8-8.8-6.1-11-1.4c-0.9,1.9-1.8,3.2-3.4,4.6c3.1,2.4,6.3,4.8,9.4,7.3c1.5-2.8,2.3-5.6,2.1-8.8c-0.2-5.6-6.2-7.4-10.2-4.2
					c-1.8,1.5-3.8,2.3-6,3C111.3,154.5,114.5,166.1,121.9,163.9L121.9,163.9z"/>
			</g>
		</g>
		<g>
			<g>
				<path class="st2" d="M71.4,169.2c2.7,0.9,5.5,2,8.4,1.8c3.4-0.3,6.4-2.1,9.2-3.7c0.7-0.4,0.1-1.4-0.6-1
					c-2.7,1.6-5.5,3.3-8.8,3.5c-2.8,0.2-5.3-0.8-7.9-1.7C70.9,167.8,70.6,168.9,71.4,169.2L71.4,169.2z"/>
			</g>
		</g>
		<g>
			<g>
				<path class="st2" d="M128.1,167.4c-2.6,0.8-5.2,1.9-7.9,1.7c-3.2-0.2-6-1.9-8.8-3.5c-0.7-0.4-1.3,0.6-0.6,1
					c2.8,1.7,5.8,3.4,9.2,3.7c2.9,0.3,5.7-0.9,8.4-1.8C129.2,168.3,128.9,167.2,128.1,167.4L128.1,167.4z"/>
			</g>
		</g>
	</g>
	<g>
		<g>
			<g>
				<path d="M122.9,242.8c3.9-24.7,5.9-49.4,6.8-74.4c0-0.8-1.2-0.8-1.2,0c-0.9,24.9-2.8,49.4-6.8,74
					C121.7,243.3,122.8,243.6,122.9,242.8L122.9,242.8z"/>
			</g>
		</g>
		<g>
			<g>
				<path d="M76.8,242.5c-3.3-24.7-5-49.4-5.7-74.4c0-0.8-1.2-0.8-1.2,0c0.8,25,2.4,49.8,5.8,74.7C75.7,243.6,76.9,243.3,76.8,242.5
					L76.8,242.5z"/>
			</g>
		</g>
		<g>
			<g>
				<path d="M72.1,133.7c-10.5,8-14,26.4-2.1,34.8c0.6,0.4,1.2-0.6,0.6-1c-11.1-7.9-7.6-25.2,2.1-32.7
					C73.3,134.3,72.7,133.2,72.1,133.7L72.1,133.7z"/>
			</g>
		</g>
		<g>
			<g>
				<path d="M130.3,168.8c13.9-6.7,8.9-28.3-1.4-35.9c-0.6-0.5-1.2,0.6-0.6,1c9.6,7.1,14.4,27.5,1.4,33.8
					C129,168.1,129.6,169.2,130.3,168.8L130.3,168.8z"/>
			</g>
		</g>
		<g>
			<g>
				<path d="M72.7,134.3c1.1-4,0.9-8.4,1.1-12.6c0.2-4.9,0.4-9.8,0.5-14.8c0-0.8-1.2-0.8-1.2,0c-0.1,4.3-0.3,8.6-0.4,12.9
					c-0.2,4.6,0.1,9.7-1.1,14.1C71.3,134.8,72.5,135.1,72.7,134.3L72.7,134.3z"/>
			</g>
		</g>
		<g>
			<g>
				<path d="M79.8,132.9c-1.2-4,0.3-9.3,0.5-13.5c0.2-4.4,0.2-8.8,0-13.2c0-0.8-1.2-0.8-1.2,0c0.2,5,0.2,10-0.1,15
					c-0.2,3.9-1.5,8.2-0.3,11.9C78.9,134,80.1,133.7,79.8,132.9L79.8,132.9z"/>
			</g>
		</g>
		<g>
			<g>
				<path d="M129.2,133.5c0.8-8.9,1-17.8,0.6-26.7c0-0.8-1.2-0.8-1.2,0c0.4,8.9,0.2,17.8-0.6,26.7
					C127.9,134.3,129.1,134.2,129.2,133.5L129.2,133.5z"/>
			</g>
		</g>
		<g>
			<g>
				<path d="M124.6,133.9c2.3-8.4,0.2-18.7-0.3-27.3c0-0.8-1.2-0.8-1.2,0c0.5,8.5,2.5,18.7,0.3,27
					C123.3,134.4,124.4,134.7,124.6,133.9L124.6,133.9z"/>
			</g>
		</g>
		<g>
			<g>
				<path d="M74.3,107.3c1.5,0,3.1,0,4.6-0.1c0.8-0.1,0.8-1.3,0-1.2c-1.5,0.1-3.1,0.2-4.6,0.1C73.5,106.1,73.5,107.3,74.3,107.3
					L74.3,107.3z"/>
			</g>
		</g>
		<g>
			<g>
				<path d="M124.1,106.7c1.6,0,3.2-0.1,4.7-0.2c0.8,0,0.8-1.2,0-1.2c-1.6,0.1-3.2,0.1-4.7,0.2C123.4,105.5,123.4,106.7,124.1,106.7
					L124.1,106.7z"/>
			</g>
		</g>
		<g>
			<g>
				<path d="M76.9,243.4c15.2-3.2,30.7-2.7,45.8,0.7c0.8,0.2,1.1-1,0.3-1.2c-15.3-3.5-30.9-4-46.4-0.7
					C75.8,242.4,76.1,243.5,76.9,243.4L76.9,243.4z"/>
			</g>
		</g>
		<g>
			<g>
				<path d="M79.2,134.2c5.8,3.9,14.3,4.7,21.1,4.6c8.3,0,16.4-1.7,24.2-4.3c0.2-0.1,0.5-0.3,0.4-0.6c0-0.2,0-0.4-0.1-0.7
					c-0.1-0.8-1.3-0.8-1.2,0c0.2,2.4-20,4.2-21.6,4.3c-7.2,0.2-16.2-0.3-22.3-4.4C79.2,132.8,78.6,133.8,79.2,134.2L79.2,134.2z"/>
			</g>
		</g>
		<g>
			<g>
				<path d="M112.9,137.5c3.8-0.4,7.5-1.3,11-2.7c0.7-0.3,0.4-1.4-0.3-1.2c-3.5,1.4-7,2.3-10.7,2.7
					C112.1,136.4,112.1,137.6,112.9,137.5L112.9,137.5z"/>
			</g>
		</g>
	</g>
</g>
</svg>
