<svg id="Layer_1" data-name="Layer 1" xmlns="http://www.w3.org/2000/svg" viewBox="0 0 80.7 110.81"><defs><style>.cls-1{fill:#602f13;}.cls-2{fill:none;stroke:#000;stroke-miterlimit:10;}.cls-3{fill:#613515;}</style></defs><title>Brown</title><g id="_Group_" data-name="&lt;Group&gt;"><path class="cls-1" d="M115.8,90.7a52.77,52.77,0,0,0,8.8-7.6l.3.1c.2-.6.4-1.3.6-1.9.5-2.1,0-4.4-.2-6.6a18.86,18.86,0,0,1,2.1-9.9l.2-.1a27.63,27.63,0,0,1-.4-9.5c.4-2.8,1.1-5.9-.2-8.4-1.5-2.8-4-4.3-6.5-6.1-1.8-1.3-3.3-3.4-5.1-4.7a15.16,15.16,0,0,0-9.5-2.3c-3,.3-5.9,2.7-8.7,3.7l-.1.1a8.3,8.3,0,0,0-3.4-1.3,22.16,22.16,0,0,0-6.3,0,17.88,17.88,0,0,0-6.9,1.6c-2.6,1.3-4.6,3.6-6.4,5.9a13.09,13.09,0,0,0-1.9,2.7c-1.3,2.9-.5,6.3-.7,9.5a12.85,12.85,0,0,1-.7,3.4,13.23,13.23,0,0,1-3.3,5.3l-2.9.5a11,11,0,0,1-.2-1.8c-.5-5,.4-10,1.4-15C67,41.8,68.5,35,72.9,30.4a31.5,31.5,0,0,1,5.6-4.2A34.05,34.05,0,0,1,85,22.7a20.51,20.51,0,0,1,6-1.1c2.6-.1,5.3,0,7.6,1.3a2.49,2.49,0,0,1,1.4-1.1,17.41,17.41,0,0,1,11.7,0,37.86,37.86,0,0,1,10.4,6.1,15.52,15.52,0,0,1,4.4,4.3,26.11,26.11,0,0,1,3.3,7.4,55.62,55.62,0,0,1,2,10.8l2.4,8.7c.6,2.4,1.3,4.9,1,7.3-.2,1.9-1,3.6-1.3,5.4-.8,4.3.7,8.6,2.7,12.6,1.3,1.6,2.5,3.5,2,5.5s-2.6,3.3-3.3,5.3c-.5,1.6-.1,3.4.2,5.1s.4,3.7-.7,5a11.22,11.22,0,0,1-2.2,1.6c-2.3,1.9-2.4,5.5-1.9,8.5a52.32,52.32,0,0,0,2.2,9.5l-.5.1a12.31,12.31,0,0,1-4.5-6,22.29,22.29,0,0,1-1.4-6.2h-.1a9.16,9.16,0,0,1-1.7,5.1c-.9,1.2-2,2-2.9,3.1-1.2,1.4-2.1,3-3.3,4.3s-3,2.3-4.6,1.7c-.1,0-.3-.1-.3-.2a.66.66,0,0,1,.1-.6c.9-1.5,2.1-2.9,3-4.4a10.33,10.33,0,0,0,1.7-5.1,4.94,4.94,0,0,0-2.4-4.5l-1.2.1a13.66,13.66,0,0,1-1.5-3.7,14.44,14.44,0,0,0-2.1-4.1,2.92,2.92,0,0,1-.7-1.2,4.78,4.78,0,0,1,0-2.9,36,36,0,0,0,.3-8h.2a1.62,1.62,0,0,1,1.1-.9c.5-.1,1,0,1.5-.1A2.8,2.8,0,0,0,115.8,90.7Z" transform="translate(-58.71 -20.38)"/><path class="cls-1" d="M73.8,80c3.1,3.6,6.2,7.3,10.2,9.7A54,54,0,0,0,88.9,92h.2c.1,3.1.2,6.1.2,9.2.1,1.8,0,3.8-1.1,5-.5,1.2-.6,2.6-1,3.8-.6,1.6-2.4,3.2-3.8,2.2-.4-.3-.8-.8-1.2-.9-.9-.3-1.8.6-2.2,1.6-1.2,2.9-.6,6.8-2.8,9a12.46,12.46,0,0,1-3.4,1.9,4.27,4.27,0,0,0-2.6,2.8c-.8-1.5-1.6-3.3-1.1-4.9a10.23,10.23,0,0,1,1.4-2.2,6.2,6.2,0,0,0,1.4-3.2,3.06,3.06,0,0,0-1.4-3c-.2,2-2.4,3-3.8,4.4a9,9,0,0,0-2.1,6.2,20.67,20.67,0,0,0,1.6,6.5,16.49,16.49,0,0,1-6.9-7.4l-.2.1a11.77,11.77,0,0,1-1-6.1c.4-2.7,2.2-4.9,3.2-7.4a13,13,0,0,0,.5-8.5c-.5-2.1-1.5-3.9-2-6s-.3-4.6,1.2-5.9l.1-.1a9.18,9.18,0,0,1-1.5-5.5,13.12,13.12,0,0,1,.9-3.4A16.88,16.88,0,0,1,64,75.4a5.72,5.72,0,0,1,.7-.8l-.2-.2c1-2.8.4-5.9-.1-8.9l2.9-.5a14,14,0,0,0,3.3-5.3l.4.1a11,11,0,0,0-.3,5.7c.6,3.1,2.4,5.8,2.8,8.9a14.7,14.7,0,0,1-.6,5.9Z" transform="translate(-58.71 -20.38)"/><path class="cls-2" d="M98.8,23.1a.1.1,0,0,1-.1-.1,13.25,13.25,0,0,0-7.6-1.3,20.51,20.51,0,0,0-6,1.1,29.27,29.27,0,0,0-6.5,3.5A29.27,29.27,0,0,0,73,30.5c-4.4,4.6-5.9,11.4-7.1,17.9-.9,4.9-1.9,10-1.4,15,.1.6.1,1.2.2,1.8.4,3,1,6.1.1,8.9" transform="translate(-58.71 -20.38)"/><path class="cls-2" d="M68.5,72.3a6.85,6.85,0,0,0-3.6,2,5,5,0,0,0-.7.8,16.88,16.88,0,0,0-2.5,4.8,13.12,13.12,0,0,0-.9,3.4,9.72,9.72,0,0,0,1.5,5.5,28.19,28.19,0,0,0,2.9,3.9" transform="translate(-58.71 -20.38)"/><path class="cls-2" d="M62.2,88.9c-1.5,1.4-1.7,3.9-1.2,5.9s1.5,4,2,6a14.51,14.51,0,0,1-.5,8.5c-1,2.5-2.8,4.7-3.2,7.4a11.77,11.77,0,0,0,1,6.1c.3.7.5,1.3.8,2" transform="translate(-58.71 -20.38)"/><path class="cls-2" d="M98.6,23.1h0a2.24,2.24,0,0,1,1.5-1.2,17.41,17.41,0,0,1,11.7,0A37.86,37.86,0,0,1,122.2,28a15.52,15.52,0,0,1,4.4,4.3,26.11,26.11,0,0,1,3.3,7.4,55.62,55.62,0,0,1,2,10.8c.1.7.1,1.5.2,2.3" transform="translate(-58.71 -20.38)"/><path class="cls-2" d="M131.8,50.1c0,.1.1.3.1.4l2.4,8.7c.6,2.4,1.3,4.9,1,7.3-.2,1.9-1,3.6-1.3,5.4-.8,4.3.7,8.6,2.7,12.6l1.5,2.7" transform="translate(-58.71 -20.38)"/><path class="cls-2" d="M136.2,83.9a4.35,4.35,0,0,1,.6.7c1.3,1.6,2.5,3.5,2,5.5s-2.6,3.3-3.3,5.3c-.5,1.6-.1,3.4.2,5.1s.4,3.7-.7,5a11.22,11.22,0,0,1-2.2,1.6c-2.3,1.9-2.4,5.5-1.9,8.5a52.32,52.32,0,0,0,2.2,9.5" transform="translate(-58.71 -20.38)"/><path class="cls-2" d="M60.4,122.7a16.53,16.53,0,0,0,6.9,7.4,21.36,21.36,0,0,1-1.6-6.5,8.13,8.13,0,0,1,2.1-6.2c1.4-1.4,3.6-2.4,3.8-4.4a3.06,3.06,0,0,1,1.4,3,6.2,6.2,0,0,1-1.4,3.2,10.23,10.23,0,0,0-1.4,2.2c-.5,1.6.3,3.4,1.1,4.9a4.78,4.78,0,0,1,2.6-2.8,14.13,14.13,0,0,0,3.4-1.9c2.2-2.2,1.6-6.1,2.8-9,.4-.9,1.3-1.9,2.2-1.6.5.2.8.7,1.2.9,1.4.9,3.2-.6,3.8-2.2.4-1.2.6-2.6,1-3.8a6.72,6.72,0,0,1,.6-1.2" transform="translate(-58.71 -20.38)"/><path class="cls-2" d="M133.5,125.8c-.3-.2-.6-.3-.9-.5a12.31,12.31,0,0,1-4.5-6,22.29,22.29,0,0,1-1.4-6.2c-.1-.8-.2-1.7-.3-2.5" transform="translate(-58.71 -20.38)"/><path class="cls-2" d="M116.3,112.4a4.94,4.94,0,0,1,2.4,4.5A10,10,0,0,1,117,122c-.9,1.5-2.1,2.9-3,4.4a.66.66,0,0,0-.1.6c.1.1.2.2.3.2,1.6.5,3.4-.4,4.6-1.7s2.1-3,3.3-4.3c.9-1.1,2-2,2.9-3.1a8.24,8.24,0,0,0,1.7-5.1" transform="translate(-58.71 -20.38)"/><path class="cls-2" d="M116.3,113.6a4.12,4.12,0,0,1-1.3-1,13.66,13.66,0,0,1-1.5-3.7,14.44,14.44,0,0,0-2.1-4.1,2.92,2.92,0,0,1-.7-1.2,4.78,4.78,0,0,1,0-2.9,36,36,0,0,0,.3-8" transform="translate(-58.71 -20.38)"/><path class="cls-2" d="M99.2,39.2a8.66,8.66,0,0,0-5.4-3.1,22.16,22.16,0,0,0-6.3,0,17.88,17.88,0,0,0-6.9,1.6C78,39,76,41.3,74.2,43.6a13.09,13.09,0,0,0-1.9,2.7c-1.3,2.9-.5,6.3-.7,9.5a12.85,12.85,0,0,1-.7,3.4,13.23,13.23,0,0,1-3.3,5.3" transform="translate(-58.71 -20.38)"/><path class="cls-2" d="M69,87.6c2.3-1.3,3.4-4.2,4.1-6.9.1-.2.1-.4.2-.6a21.27,21.27,0,0,0,.5-6.1c-.4-3.1-2.2-5.8-2.8-8.9a11,11,0,0,1,.3-5.7,4.87,4.87,0,0,1,.4-1.1" transform="translate(-58.71 -20.38)"/><path class="cls-2" d="M97.2,37.3c2.8-1,5.8-3.4,8.7-3.7a15.16,15.16,0,0,1,9.5,2.3c1.8,1.3,3.3,3.5,5.1,4.7,2.6,1.8,5,3.3,6.5,6.1,1.3,2.5.6,5.5.2,8.4a27.52,27.52,0,0,0,.4,9.5,24.37,24.37,0,0,0,2.5,7" transform="translate(-58.71 -20.38)"/><path class="cls-2" d="M126.2,91.5c-1-1.8-2.1-3.7-2-5.8a8.39,8.39,0,0,1,.7-2.6c.2-.6.4-1.3.6-1.9.5-2.1,0-4.4-.2-6.6a18.86,18.86,0,0,1,2.1-9.9" transform="translate(-58.71 -20.38)"/><path class="cls-2" d="M76.7,104.6c-1.3-.7-2.8-1.7-2.8-3.2a4.26,4.26,0,0,1,.6-1.8,17,17,0,0,0,2-5.3,7.75,7.75,0,0,0-.9-5.4" transform="translate(-58.71 -20.38)"/><path class="cls-2" d="M76.9,104.6c-.4-2,.9-3.8,2.1-5.3s2.5-3.4,2-5.4" transform="translate(-58.71 -20.38)"/><path class="cls-2" d="M121.7,106a3.75,3.75,0,0,0-.3-3.4,11.31,11.31,0,0,0-2.3-2.6c-1.4-1.3-2.9-2.6-4.3-3.9" transform="translate(-58.71 -20.38)"/><path class="cls-2" d="M121.8,106.8a17,17,0,0,0,1-1.4,11,11,0,0,0,.9-1.4,7.5,7.5,0,0,0,0-4.2,7.27,7.27,0,0,0-.6-2.1,10,10,0,0,0-1.4-1.5,8.12,8.12,0,0,1-1.9-3.4" transform="translate(-58.71 -20.38)"/><path class="cls-2" d="M88.3,106.2h0c1.2-1.3,1.2-3.3,1.1-5-.1-3.1-.2-6.1-.2-9.2" transform="translate(-58.71 -20.38)"/><path class="cls-2" d="M73.8,80c3.1,3.6,6.2,7.3,10.2,9.7A54,54,0,0,0,88.9,92" transform="translate(-58.71 -20.38)"/><path class="cls-2" d="M111.2,92.7a1.62,1.62,0,0,1,1.1-.9c.5-.1,1,0,1.5-.1a5.12,5.12,0,0,0,2.1-1,52.77,52.77,0,0,0,8.8-7.6" transform="translate(-58.71 -20.38)"/></g><path class="cls-3" d="M70.6,49.4c.2-1.1.3-2.2.5-3.3a.86.86,0,0,0-.6-1.1.91.91,0,0,0-1.1.6c-.2,1.1-.3,2.2-.5,3.3a.86.86,0,0,0,.6,1.1.91.91,0,0,0,1.1-.6Z" transform="translate(-58.71 -20.38)"/><path class="cls-3" d="M69.5,50.2a27,27,0,0,1,3.7-8.1c.6-1-.9-1.8-1.5-.9a26.81,26.81,0,0,0-3.9,8.6c-.4,1.1,1.4,1.5,1.7.4Z" transform="translate(-58.71 -20.38)"/><path class="cls-3" d="M70.8,46.1a16.24,16.24,0,0,1,4.6-5.8c.9-.7-.4-2-1.3-1.3a18.19,18.19,0,0,0-4.8,6.2c-.5,1,1,1.9,1.5.9Z" transform="translate(-58.71 -20.38)"/><path class="cls-3" d="M72.5,42.5a18.07,18.07,0,0,1,5.3-5.7c.9-.7,0-2.2-.9-1.5A20.1,20.1,0,0,0,71,41.7c-.6.8,1,1.7,1.5.8Z" transform="translate(-58.71 -20.38)"/><path class="cls-3" d="M64.9,120.5c-1-1.2-2-2.3-3-3.5-.7-.9-2,.4-1.3,1.3,1,1.2,2,2.3,3,3.5.8.8,2-.4,1.3-1.3Z" transform="translate(-58.71 -20.38)"/><path class="cls-3" d="M69.5,90.8c-2.7-1.9-5-3.9-4.8-7.5.2-2.9,2-3.8,3.7-5.9.7-.9-.5-2.2-1.3-1.3-1,1.2-2.5,2.1-3.3,3.5a9.45,9.45,0,0,0-.9,5.2c.3,3.5,3.1,5.6,5.7,7.5,1,.7,1.9-.8.9-1.5Z" transform="translate(-58.71 -20.38)"/><path class="cls-3" d="M68.4,85.8A14.18,14.18,0,0,0,72.2,76a.9.9,0,0,0-1.8,0,12.52,12.52,0,0,1-3.3,8.6c-.7.8.5,2.1,1.3,1.2Z" transform="translate(-58.71 -20.38)"/><path class="cls-3" d="M67.9,65.4A23.51,23.51,0,0,0,70.1,54a.9.9,0,0,0-1.8,0,21.22,21.22,0,0,1-2,10.5c-.4,1,1.1,1.9,1.6.9Z" transform="translate(-58.71 -20.38)"/><path class="cls-3" d="M65.4,119.8c-.7-3.8,2.5-7.6,5.5-9.6,1-.6.1-2.2-.9-1.5-3.8,2.4-7.2,6.9-6.3,11.6.2,1.1,1.9.6,1.7-.5Z" transform="translate(-58.71 -20.38)"/><path class="cls-3" d="M75.5,119.3c.4-.9,1.4-1.2,2-1.8a5.71,5.71,0,0,0,1.3-2.1,21,21,0,0,0,1.2-7,.9.9,0,0,0-1.8,0c0,2.2-.2,5.3-1.4,7.2-.9,1.4-2.4,1.7-3.1,3.3-.4,1,1.3,1.5,1.8.4Z" transform="translate(-58.71 -20.38)"/><path class="cls-3" d="M82.1,107.8c.7-.2,1.5.6,2.2.8a2.36,2.36,0,0,0,2-.3,3.78,3.78,0,0,0,1.7-3.9c-.1-1.1-1.9-1.1-1.8,0s-.4,3-1.9,2.2c-.9-.4-1.7-1-2.6-.6-1.1.5-.6,2.2.4,1.8Z" transform="translate(-58.71 -20.38)"/><path class="cls-3" d="M74.1,105c-2.1-3.2-1.2-6.7-.8-10.3.1-1.1-1.7-1.1-1.8,0-.4,4.1-1.3,7.6,1,11.2.7,1,2.2.1,1.6-.9Z" transform="translate(-58.71 -20.38)"/><path class="cls-3" d="M113,99.4c-.5,3.5,2.3,6.1,4.4,8.5.7.9,2-.4,1.3-1.3-1.5-1.8-4.3-4.2-3.9-6.8.1-1.1-1.7-1.5-1.8-.4Z" transform="translate(-58.71 -20.38)"/><path class="cls-3" d="M121.6,120.4c1.9-2.9,4.2-5.8,4.2-9.4a.9.9,0,0,0-1.8,0c0,3.2-2.3,5.9-3.9,8.5-.7.9.9,1.8,1.5.9Z" transform="translate(-58.71 -20.38)"/><path class="cls-3" d="M130.1,115.1c-.4-2.7-1.5-6.1-.3-8.6a53.49,53.49,0,0,1,3.9-5.8.87.87,0,1,0-1.5-.9c-1.6,2.3-4.1,5.1-4.7,7.9-.5,2.5.5,5.5.9,7.9.2,1.1,1.9.6,1.7-.5Z" transform="translate(-58.71 -20.38)"/><path class="cls-3" d="M122.2,93c1.1,1.2,2.4,1.9,3.6,3,1.9,1.8,1.4,4.3.9,6.6a.89.89,0,0,0,1.7.5c.6-2.2,1.1-4.9-.1-7-1.1-1.9-3.3-2.7-4.8-4.4-.8-.8-2,.4-1.3,1.3Z" transform="translate(-58.71 -20.38)"/><path class="cls-3" d="M131,89.1c-2.1-3.9-1-9.5-.9-13.8a.9.9,0,0,0-1.8,0c-.1,4.7-1.2,10.4,1.1,14.7a.92.92,0,0,0,1.6-.9Z" transform="translate(-58.71 -20.38)"/><path class="cls-3" d="M133.7,70.2a24.39,24.39,0,0,1-1.9-13.6c.2-1.1-1.6-1.6-1.7-.5a26.67,26.67,0,0,0,2.1,15c.4,1.1,1.9.1,1.5-.9Z" transform="translate(-58.71 -20.38)"/><path class="cls-3" d="M97.6,33.9c-1-1.8-2.8-2.8-4.5-3.9a10.56,10.56,0,0,0-6.2-1.9.9.9,0,0,0,0,1.8c3-.1,7.6,2.2,9.2,4.9.5,1,2,.1,1.5-.9Z" transform="translate(-58.71 -20.38)"/><path class="cls-3" d="M78.5,36.9a14.11,14.11,0,0,1,7.1-3c1.1-.2.7-1.9-.5-1.7a17.49,17.49,0,0,0-7.9,3.4c-.9.7.4,2,1.3,1.3Z" transform="translate(-58.71 -20.38)"/><path class="cls-3" d="M83.1,29.3a12.57,12.57,0,0,1,9.3-1.2.89.89,0,0,0,.5-1.7,14,14,0,0,0-10.6,1.3c-1.1.6-.2,2.2.8,1.6Z" transform="translate(-58.71 -20.38)"/><path class="cls-3" d="M100.6,32.8c3.1-3,9.1-2.1,12.7-.7,1.1.4,1.5-1.3.5-1.7-4.2-1.7-10.8-2.3-14.4,1.2-.9.8.3,2,1.2,1.2Z" transform="translate(-58.71 -20.38)"/><path class="cls-3" d="M117,34.7a8.67,8.67,0,0,0,3.7,5.1c2.9,1.7,6.2,1.5,7.5,5.2.4,1.1,2.1.6,1.7-.5a7.76,7.76,0,0,0-4.4-4.8c-3.1-1.3-5.8-1.8-6.7-5.5-.4-1-2.1-.6-1.8.5Z" transform="translate(-58.71 -20.38)"/><path class="cls-3" d="M105.6,26.6c3.3-.7,5.9,2.6,8.6,3.9,1,.5,1.9-1.1.9-1.5-3.4-1.5-5.9-4.9-10-4.1a.89.89,0,0,0,.5,1.7Z" transform="translate(-58.71 -20.38)"/></svg>