<svg id="Layer_1" data-name="Layer 1" xmlns="http://www.w3.org/2000/svg" viewBox="0 0 80.7 110.81"><defs><style>.cls-1{fill:#ef7a22;}.cls-2{fill:none;stroke:#000;stroke-miterlimit:10;}.cls-3{fill:#ed8622;}</style></defs><title>Orange</title><g id="_Group_" data-name="&lt;Group&gt;"><path class="cls-1" d="M126.7,113h0a9,9,0,0,1-1.8,5.1c-.9,1.2-2,2-2.9,3.1-1.2,1.4-2.1,3-3.3,4.3s-3,2.3-4.6,1.7c-.1,0-.3-.1-.3-.2a.66.66,0,0,1,.1-.6c.9-1.5,2.1-2.9,3-4.4a10.33,10.33,0,0,0,1.7-5.1,4.94,4.94,0,0,0-2.4-4.5l-1.2.1a13.66,13.66,0,0,1-1.5-3.7,14.44,14.44,0,0,0-2.1-4.1,2.92,2.92,0,0,1-.7-1.2,4.78,4.78,0,0,1,0-2.9,36,36,0,0,0,.3-8h.2a1.62,1.62,0,0,1,1.1-.9c.5-.1,1,0,1.5-.1a5.12,5.12,0,0,0,2.1-1,52.77,52.77,0,0,0,8.8-7.6l.3.1c.2-.6.4-1.3.6-1.9.5-2.1,0-4.4-.2-6.6a18.86,18.86,0,0,1,2.1-9.9l.2-.1a27.63,27.63,0,0,1-.4-9.5c.4-2.8,1.1-5.9-.2-8.4-1.5-2.8-4-4.3-6.5-6.1-1.8-1.3-3.3-3.4-5.1-4.7a15.16,15.16,0,0,0-9.5-2.3c-3,.3-5.9,2.7-8.7,3.7l-.1.1a8.3,8.3,0,0,0-3.4-1.3,22.16,22.16,0,0,0-6.3,0,17.88,17.88,0,0,0-6.9,1.6C78,39,76,41.3,74.2,43.6a13.09,13.09,0,0,0-1.9,2.7c-1.3,2.9-.5,6.3-.7,9.5a12.85,12.85,0,0,1-.7,3.4,13.23,13.23,0,0,1-3.3,5.3l-2.9.5a11,11,0,0,1-.2-1.8c-.5-5,.4-10,1.4-15,1.2-6.5,2.7-13.3,7.1-17.9a31.5,31.5,0,0,1,5.6-4.2,34.05,34.05,0,0,1,6.5-3.5,20.51,20.51,0,0,1,6-1.1c2.6-.1,5.3,0,7.6,1.3a2.49,2.49,0,0,1,1.4-1.1,17.41,17.41,0,0,1,11.7,0,37.86,37.86,0,0,1,10.4,6.1,15.52,15.52,0,0,1,4.4,4.3,26.11,26.11,0,0,1,3.3,7.4,55.62,55.62,0,0,1,2,10.8l2.4,8.7c.6,2.4,1.3,4.9,1,7.3-.2,1.9-1,3.6-1.3,5.4-.8,4.3.7,8.6,2.7,12.6,1.3,1.6,2.5,3.5,2,5.5s-2.6,3.3-3.3,5.3c-.5,1.6-.1,3.4.2,5.1s.4,3.7-.7,5a11.22,11.22,0,0,1-2.2,1.6c-2.3,1.9-2.4,5.5-1.9,8.5a52.32,52.32,0,0,0,2.2,9.5l-.5.1a12.31,12.31,0,0,1-4.5-6A28.79,28.79,0,0,1,126.7,113Z" transform="translate(-58.71 -20.38)"/><path class="cls-1" d="M62.3,88.8a9.18,9.18,0,0,1-1.5-5.5,13.12,13.12,0,0,1,.9-3.4,16.88,16.88,0,0,1,2.5-4.8,5.72,5.72,0,0,1,.7-.8l-.2-.2c1-2.8.4-5.9-.1-8.9l2.9-.5a14,14,0,0,0,3.3-5.3l.4.1a11,11,0,0,0-.3,5.7c.6,3.1,2.4,5.8,2.8,8.9a14.7,14.7,0,0,1-.6,5.9l.6.1c3.1,3.6,6.2,7.3,10.2,9.7a54,54,0,0,0,4.9,2.3H89c.1,3.1.2,6.1.2,9.2.1,1.8,0,3.8-1.1,5-.5,1.2-.6,2.6-1,3.8-.6,1.6-2.4,3.2-3.8,2.2-.4-.3-.8-.8-1.2-.9-.9-.3-1.8.6-2.2,1.6-1.2,2.9-.6,6.8-2.8,9a12.46,12.46,0,0,1-3.4,1.9,4.27,4.27,0,0,0-2.6,2.8c-.8-1.5-1.6-3.3-1.1-4.9a10.23,10.23,0,0,1,1.4-2.2,6.2,6.2,0,0,0,1.4-3.2,3.06,3.06,0,0,0-1.4-3c-.2,2-2.4,3-3.8,4.4a9,9,0,0,0-2.1,6.2,20.67,20.67,0,0,0,1.6,6.5,16.49,16.49,0,0,1-6.9-7.4l-.2.1a11.77,11.77,0,0,1-1-6.1c.4-2.7,2.2-4.9,3.2-7.4a13,13,0,0,0,.5-8.5c-.5-2.1-1.5-3.9-2-6s-.3-4.6,1.2-5.9Z" transform="translate(-58.71 -20.38)"/><path class="cls-2" d="M98.8,23.1a.1.1,0,0,1-.1-.1,13.25,13.25,0,0,0-7.6-1.3,20.51,20.51,0,0,0-6,1.1,29.27,29.27,0,0,0-6.5,3.5A29.27,29.27,0,0,0,73,30.5c-4.4,4.6-5.9,11.4-7.1,17.9-.9,4.9-1.9,10-1.4,15,.1.6.1,1.2.2,1.8.4,3,1,6.1.1,8.9" transform="translate(-58.71 -20.38)"/><path class="cls-2" d="M68.5,72.3a6.85,6.85,0,0,0-3.6,2,5,5,0,0,0-.7.8,16.88,16.88,0,0,0-2.5,4.8,13.12,13.12,0,0,0-.9,3.4,9.72,9.72,0,0,0,1.5,5.5,28.19,28.19,0,0,0,2.9,3.9" transform="translate(-58.71 -20.38)"/><path class="cls-2" d="M62.2,88.9c-1.5,1.4-1.7,3.9-1.2,5.9s1.5,4,2,6a14.51,14.51,0,0,1-.5,8.5c-1,2.5-2.8,4.7-3.2,7.4a11.77,11.77,0,0,0,1,6.1c.3.7.5,1.3.8,2" transform="translate(-58.71 -20.38)"/><path class="cls-2" d="M98.6,23.1h0a2.24,2.24,0,0,1,1.5-1.2,17.41,17.41,0,0,1,11.7,0A37.86,37.86,0,0,1,122.2,28a15.52,15.52,0,0,1,4.4,4.3,26.11,26.11,0,0,1,3.3,7.4,55.62,55.62,0,0,1,2,10.8c.1.7.1,1.5.2,2.3" transform="translate(-58.71 -20.38)"/><path class="cls-2" d="M131.8,50.1c0,.1.1.3.1.4l2.4,8.7c.6,2.4,1.3,4.9,1,7.3-.2,1.9-1,3.6-1.3,5.4-.8,4.3.7,8.6,2.7,12.6l1.5,2.7" transform="translate(-58.71 -20.38)"/><path class="cls-2" d="M136.2,83.9a4.35,4.35,0,0,1,.6.7c1.3,1.6,2.5,3.5,2,5.5s-2.6,3.3-3.3,5.3c-.5,1.6-.1,3.4.2,5.1s.4,3.7-.7,5a11.22,11.22,0,0,1-2.2,1.6c-2.3,1.9-2.4,5.5-1.9,8.5a52.32,52.32,0,0,0,2.2,9.5" transform="translate(-58.71 -20.38)"/><path class="cls-2" d="M60.4,122.7a16.53,16.53,0,0,0,6.9,7.4,21.36,21.36,0,0,1-1.6-6.5,8.13,8.13,0,0,1,2.1-6.2c1.4-1.4,3.6-2.4,3.8-4.4a3.06,3.06,0,0,1,1.4,3,6.2,6.2,0,0,1-1.4,3.2,10.23,10.23,0,0,0-1.4,2.2c-.5,1.6.3,3.4,1.1,4.9a4.78,4.78,0,0,1,2.6-2.8,14.13,14.13,0,0,0,3.4-1.9c2.2-2.2,1.6-6.1,2.8-9,.4-.9,1.3-1.9,2.2-1.6.5.2.8.7,1.2.9,1.4.9,3.2-.6,3.8-2.2.4-1.2.6-2.6,1-3.8a6.72,6.72,0,0,1,.6-1.2" transform="translate(-58.71 -20.38)"/><path class="cls-2" d="M133.5,125.8c-.3-.2-.6-.3-.9-.5a12.31,12.31,0,0,1-4.5-6,22.29,22.29,0,0,1-1.4-6.2c-.1-.8-.2-1.7-.3-2.5" transform="translate(-58.71 -20.38)"/><path class="cls-2" d="M116.3,112.4a4.94,4.94,0,0,1,2.4,4.5A10,10,0,0,1,117,122c-.9,1.5-2.1,2.9-3,4.4a.66.66,0,0,0-.1.6c.1.1.2.2.3.2,1.6.5,3.4-.4,4.6-1.7s2.1-3,3.3-4.3c.9-1.1,2-2,2.9-3.1a8.24,8.24,0,0,0,1.7-5.1" transform="translate(-58.71 -20.38)"/><path class="cls-2" d="M116.3,113.6a4.12,4.12,0,0,1-1.3-1,13.66,13.66,0,0,1-1.5-3.7,14.44,14.44,0,0,0-2.1-4.1,2.92,2.92,0,0,1-.7-1.2,4.78,4.78,0,0,1,0-2.9,36,36,0,0,0,.3-8" transform="translate(-58.71 -20.38)"/><path class="cls-2" d="M99.2,39.2a8.66,8.66,0,0,0-5.4-3.1,22.16,22.16,0,0,0-6.3,0,17.88,17.88,0,0,0-6.9,1.6C78,39,76,41.3,74.2,43.6a13.09,13.09,0,0,0-1.9,2.7c-1.3,2.9-.5,6.3-.7,9.5a12.85,12.85,0,0,1-.7,3.4,13.23,13.23,0,0,1-3.3,5.3" transform="translate(-58.71 -20.38)"/><path class="cls-2" d="M69,87.6c2.3-1.3,3.4-4.2,4.1-6.9.1-.2.1-.4.2-.6a21.27,21.27,0,0,0,.5-6.1c-.4-3.1-2.2-5.8-2.8-8.9a11,11,0,0,1,.3-5.7,4.87,4.87,0,0,1,.4-1.1" transform="translate(-58.71 -20.38)"/><path class="cls-2" d="M97.2,37.3c2.8-1,5.8-3.4,8.7-3.7a15.16,15.16,0,0,1,9.5,2.3c1.8,1.3,3.3,3.5,5.1,4.7,2.6,1.8,5,3.3,6.5,6.1,1.3,2.5.6,5.5.2,8.4a27.52,27.52,0,0,0,.4,9.5,24.37,24.37,0,0,0,2.5,7" transform="translate(-58.71 -20.38)"/><path class="cls-2" d="M126.2,91.5c-1-1.8-2.1-3.7-2-5.8a8.39,8.39,0,0,1,.7-2.6c.2-.6.4-1.3.6-1.9.5-2.1,0-4.4-.2-6.6a18.86,18.86,0,0,1,2.1-9.9" transform="translate(-58.71 -20.38)"/><path class="cls-2" d="M76.7,104.6c-1.3-.7-2.8-1.7-2.8-3.2a4.26,4.26,0,0,1,.6-1.8,17,17,0,0,0,2-5.3,7.75,7.75,0,0,0-.9-5.4" transform="translate(-58.71 -20.38)"/><path class="cls-2" d="M76.9,104.6c-.4-2,.9-3.8,2.1-5.3s2.5-3.4,2-5.4" transform="translate(-58.71 -20.38)"/><path class="cls-2" d="M121.7,106a3.75,3.75,0,0,0-.3-3.4,11.31,11.31,0,0,0-2.3-2.6c-1.4-1.3-2.9-2.6-4.3-3.9" transform="translate(-58.71 -20.38)"/><path class="cls-2" d="M121.8,106.8a17,17,0,0,0,1-1.4,11,11,0,0,0,.9-1.4,7.5,7.5,0,0,0,0-4.2,7.27,7.27,0,0,0-.6-2.1,10,10,0,0,0-1.4-1.5,8.12,8.12,0,0,1-1.9-3.4" transform="translate(-58.71 -20.38)"/><path class="cls-2" d="M88.3,106.2h0c1.2-1.3,1.2-3.3,1.1-5-.1-3.1-.2-6.1-.2-9.2" transform="translate(-58.71 -20.38)"/><path class="cls-2" d="M73.8,80c3.1,3.6,6.2,7.3,10.2,9.7A54,54,0,0,0,88.9,92" transform="translate(-58.71 -20.38)"/><path class="cls-2" d="M111.2,92.7a1.62,1.62,0,0,1,1.1-.9c.5-.1,1,0,1.5-.1a5.12,5.12,0,0,0,2.1-1,52.77,52.77,0,0,0,8.8-7.6" transform="translate(-58.71 -20.38)"/></g><path class="cls-3" d="M66.8,90.1A9.37,9.37,0,0,1,63.2,81c.1-.7-1-1.1-1.1-.3A10.71,10.71,0,0,0,66,90.9c.6.5,1.4-.4.8-.8Z" transform="translate(-58.71 -20.38)"/><path class="cls-3" d="M68.9,86.3a23.43,23.43,0,0,0,2.3-5.1.57.57,0,0,0-1.1-.3A20.57,20.57,0,0,1,68,85.7c-.5.6.5,1.2.9.6Z" transform="translate(-58.71 -20.38)"/><path class="cls-3" d="M76.1,102c-.5-1.4,1.5-2.7,2.3-3.7a13.45,13.45,0,0,0,1.7-3.1c.3-.7-.9-1-1.1-.3a14.65,14.65,0,0,1-3.2,4.6,2.86,2.86,0,0,0-.8,2.9c.2.7,1.4.3,1.1-.4Z" transform="translate(-58.71 -20.38)"/><path class="cls-3" d="M64.2,125c-1.8-1.3-3.5-5.9-2.4-7.8a8.86,8.86,0,0,0,1.6-3.4c.1-.8-1.1-.8-1.2,0-.3,2.5-2.6,3.4-1.9,6.2.5,2.1,1.5,4.7,3.3,6,.6.5,1.2-.5.6-1Z" transform="translate(-58.71 -20.38)"/><path class="cls-3" d="M72,123.6c.1-1.3,1.9-1.8,2.8-2.4a7.28,7.28,0,0,0,1.7-1.8,16.25,16.25,0,0,0,2-6.1c.1-.7-1-1.1-1.1-.3-.5,2.6-1,5.6-3.4,7.3-1.5,1-3,1.3-3.2,3.3-.1.8,1.1.8,1.2,0Z" transform="translate(-58.71 -20.38)"/><path class="cls-3" d="M66.4,104.5a16.27,16.27,0,0,0-2.5-8.6c-.4-.6-1.4,0-1,.6a15,15,0,0,1,2.4,8c-.1.7,1.1.7,1.1,0Z" transform="translate(-58.71 -20.38)"/><path class="cls-3" d="M66.9,62.4c2.4-3,2.1-7.5,2.4-11.1.1-.8-1.1-.8-1.2,0-.3,3.2.1,7.6-2,10.3-.5.6.3,1.4.8.8Z" transform="translate(-58.71 -20.38)"/><path class="cls-3" d="M78.1,30.5a15.38,15.38,0,0,1,8.4-4.7c2.8-.6,6.8-1.6,9.5-.8a.57.57,0,0,0,.3-1.1c-3.1-.9-7.1.2-10.1.8a15.65,15.65,0,0,0-8.9,5c-.6.5.3,1.3.8.8Z" transform="translate(-58.71 -20.38)"/><path class="cls-3" d="M98.7,35.1c3.9-1.8,9.6-5.4,13.9-2.4.6.4,1.2-.6.6-1-4.7-3.3-10.7.4-15.1,2.4-.7.3-.1,1.3.6,1Z" transform="translate(-58.71 -20.38)"/><path class="cls-3" d="M131.8,67.7a16.69,16.69,0,0,1-1-12.6.57.57,0,0,0-1.1-.3,18.07,18.07,0,0,0,1.1,13.5c.3.7,1.3.1,1-.6Z" transform="translate(-58.71 -20.38)"/><path class="cls-3" d="M128,89.5c-1.1-2.1-.5-3.7.2-5.8a12.21,12.21,0,0,0,.6-4.2.6.6,0,1,0-1.2,0c-.1,3.8-2.6,6.9-.7,10.6.4.6,1.5,0,1.1-.6Z" transform="translate(-58.71 -20.38)"/><path class="cls-3" d="M116.8,95.4a12.74,12.74,0,0,1,4.8,5.7c.3.7,1.4.4,1.1-.3a14.35,14.35,0,0,0-5.3-6.4c-.6-.4-1.2.6-.6,1Z" transform="translate(-58.71 -20.38)"/><path class="cls-3" d="M116.7,126.1c.9-2.3,3.3-4,4.6-6.1a19.92,19.92,0,0,0,2.4-6.7c.1-.7-1-1.1-1.1-.3a17.87,17.87,0,0,1-3.4,8c-1.2,1.6-2.8,2.8-3.6,4.8-.3.7.8,1,1.1.3Z" transform="translate(-58.71 -20.38)"/><path class="cls-3" d="M116.3,110.6c-1.3-2.5-1.4-5.5-3.2-7.9-.5-.6-1.5,0-1,.6,1.7,2.3,1.9,5.3,3.2,7.9a.58.58,0,1,0,1-.6Z" transform="translate(-58.71 -20.38)"/><path class="cls-3" d="M131,121.2c-1.3-3.6-2.5-7.4-1.8-11.3.1-.7-1-1.1-1.1-.3-.8,4.1.4,8,1.8,11.9a.57.57,0,0,0,1.1-.3Z" transform="translate(-58.71 -20.38)"/><path class="cls-3" d="M132,106.3c1.6-.6,1.8-2.3,1.6-3.9-.1-.8-1.3-.8-1.2,0s.3,2.3-.7,2.7c-.7.4-.4,1.5.3,1.2Z" transform="translate(-58.71 -20.38)"/><path class="cls-3" d="M137,88.3c-2.2-1.6-2.8-4.9-3.6-7.4-.2-.7-1.4-.4-1.1.3,1,2.8,1.6,6.2,4.2,8.1.5.5,1.1-.5.5-1Z" transform="translate(-58.71 -20.38)"/><path class="cls-3" d="M70.7,42.1a10.66,10.66,0,0,1,1.7-4.9c.4-.6-.6-1.2-1-.6a12.08,12.08,0,0,0-1.9,5.5c-.1.8,1.1.8,1.2,0Z" transform="translate(-58.71 -20.38)"/><path class="cls-3" d="M102,26.2a3.89,3.89,0,0,1,2.9-.9c.8.1.8-1.1,0-1.2a4.94,4.94,0,0,0-3.8,1.3c-.6.5.3,1.3.9.8Z" transform="translate(-58.71 -20.38)"/><path class="cls-3" d="M120.8,31.1a20.64,20.64,0,0,1,3.1,2.8,24.29,24.29,0,0,1,1.8,4c.3.7,1.4.4,1.1-.3a25.4,25.4,0,0,0-1.8-4.1,14.46,14.46,0,0,0-3.4-3.1.54.54,0,1,0-.8.7Z" transform="translate(-58.71 -20.38)"/><path class="cls-3" d="M84.6,110.8a9.13,9.13,0,0,0,2.9-5c.1-.7-1-1.1-1.1-.3a7.42,7.42,0,0,1-2.6,4.5c-.6.5.2,1.3.8.8Z" transform="translate(-58.71 -20.38)"/></svg>