<?xml version="1.0" encoding="utf-8"?>
<!-- Generator: Adobe Illustrator 21.0.2, SVG Export Plug-In . SVG Version: 6.00 Build 0)  -->
<svg version="1.1" id="Layer_1" xmlns="http://www.w3.org/2000/svg" xmlns:xlink="http://www.w3.org/1999/xlink" x="0px" y="0px"
	 viewBox="0 0 200 600" style="enable-background:new 0 0 200 600;" xml:space="preserve">
<style type="text/css">
	.st0{fill:#002CE3;}
	.st1{fill:#0052E3;}
	.st2{fill:#0087E3;}
</style>
<g>
	<g>
		<g>
			<g>
				<g>
					<path class="st0" d="M85.1,563.3c-0.2-1-0.5-2-0.7-3c-0.3-1.3-1.9-1-2.3,0c-0.3,0.7-0.6,1.5-0.7,2.2c0.8,0.1,1.6,0.2,2.4,0.3
						c0.1-0.6,0.1-1.2,0.2-1.8c0.2-1.3-2.1-1.6-2.4-0.3c-0.1,0.3-0.1,0.5-0.2,0.8c0.7-0.1,1.5-0.2,2.2-0.3c-0.2-0.4-0.3-0.8-0.5-1.3
						c-0.3-1.4-2.3-1-2.4,0.3c0,0.3,0,0.5,0,0.8c0.8,0,1.6,0,2.4,0c0.1-2.9,0-5.7-0.1-8.6c-0.1-1.3-2.1-1.7-2.4-0.3
						c-0.2,1.2-0.4,2.4-0.6,3.6c0.8,0.1,1.6,0.2,2.4,0.3c-0.3-5.4-0.6-10.8-1-16.3c-0.6,0.3-1.2,0.7-1.8,1c4,2,9.1-0.1,13.2,1.1
						c0.7,0.2,1.6-0.4,1.5-1.2c0-0.2,0-0.4,0-0.6c-0.1-1.5-2.5-1.5-2.4,0c0,0.2,0,0.4,0,0.6c0.5-0.4,1-0.8,1.5-1.2
						c-2.5-0.7-4.8,0.1-7.3-0.4c-0.9-0.2-4.7-0.2-5.3-0.4c-0.8-0.4-1.9,0.1-1.8,1c0.3,5.4,0.6,10.8,1,16.3c0.1,1.3,2.1,1.7,2.4,0.3
						c0.2-1.2,0.4-2.4,0.6-3.6c-0.8-0.1-1.6-0.2-2.4-0.3c0.1,2.9,0.2,5.7,0.1,8.6c0,1.6,2.3,1.5,2.4,0c0-0.3,0-0.5,0-0.8
						c-0.8,0.1-1.6,0.2-2.4,0.3c0.2,0.9,0.2,1,0.7,1.8c0.5,0.8,2,0.8,2.2-0.3c0.1-0.3,0.1-0.5,0.2-0.8c-0.8-0.1-1.6-0.2-2.4-0.3
						c-0.1,0.6-0.1,1.2-0.2,1.8c-0.2,1.3,2.1,1.6,2.4,0.3c0.1-0.8,0.4-1.5,0.7-2.2c-0.8,0-1.5,0-2.3,0c0.2,1,0.5,2,0.7,3
						C83.1,565.5,85.4,564.8,85.1,563.3L85.1,563.3z"/>
				</g>
			</g>
			<g>
				<g>
					<path class="st0" d="M92,539.5c0-0.1-0.1-0.2-0.1-0.2c-0.3-0.6-1.1-0.7-1.6-0.4c-0.6,0.3-0.7,1.1-0.4,1.6
						c0,0.1,0.1,0.2,0.1,0.2c0.3,0.6,1.1,0.7,1.6,0.4C92.2,540.8,92.3,540.1,92,539.5L92,539.5z"/>
				</g>
			</g>
			<g>
				<g>
					<path class="st0" d="M85.3,540.2c-0.1-0.4-0.2-0.7-0.3-1.1c-0.1-0.6-0.9-1-1.5-0.8c-0.6,0.2-1,0.8-0.8,1.5
						c0.1,0.4,0.2,0.7,0.3,1.1c0.1,0.6,0.9,1,1.5,0.8C85.1,541.5,85.4,540.8,85.3,540.2L85.3,540.2z"/>
				</g>
			</g>
			<g>
				<g>
					<path class="st0" d="M86.2,561.7c-0.4-1.9-0.6-3.9-0.8-5.9c-0.8,0.1-1.6,0.2-2.4,0.3c0.3,2.2,0.4,4.1,0.4,6.3
						c0.8,0,1.6,0,2.4,0c-0.4-3.2-0.7-6.4-1.1-9.6c-0.8,0.1-1.6,0.2-2.4,0.3c0.4,2.6,0.5,4.6,0.2,7.1c0.8,0,1.6,0,2.4,0
						c-0.2-2.4-0.2-4.4,0.1-6.9c-0.8-0.1-1.6-0.2-2.4-0.3c0.1,0.7,0.1,1.3,0,2c0.8-0.1,1.6-0.2,2.4-0.3c-0.8-4.3-1.3-8.5-1.6-12.8
						c-0.5,0.4-1,0.8-1.5,1.2c3.6,0.6,7.1,0.8,10.8,0.9c1.4,0,1.6-2,0.3-2.4c-2-0.6-4-1.1-6-1.7c-1.5-0.4-2.1,1.9-0.6,2.3
						c3.5,1,1.5,4.1,0.5,6.7c-1,2.6-2,5.2-3,7.9c0.8,0.2,1.5,0.4,2.3,0.6c1-4.4,2.3-8.7,1.9-13.3c-0.1-1.4-1.9-1.6-2.4-0.3
						c-0.9,2.5-1.8,4.9-2.7,7.4c0.8,0,1.5,0,2.3,0c-0.4-2.6-0.2-4.9,0.5-7.3c-0.8-0.1-1.6-0.2-2.4-0.3c0.1,2.3,0,3.9-0.5,6.2
						c0.7-0.1,1.5-0.2,2.2-0.3c-1.2-2.2-1.2-4.2-0.2-6.2c-0.8,0-1.5,0-2.3,0c0.6,2.2,0.7,4.3,0.5,6.6c-0.2,1.3,2.1,1.7,2.4,0.3
						c0.5-2.8,1.4-5.1,3.2-7.3c-0.7-0.3-1.4-0.6-2-0.8c0.3,2.9,0.1,5.4-1,8.2c0.8,0.2,1.5,0.4,2.3,0.6c0.4-2,0.9-3.8,1.8-5.8
						c-0.7-0.2-1.5-0.4-2.2-0.6c0,2.6-0.3,5.1-0.8,7.6c-0.3,1.5,1.9,2.1,2.3,0.6c0.8-2.8,1.7-5.6,2.7-8.4c-0.8-0.1-1.6-0.2-2.4-0.3
						c-0.1,2.8-0.5,5.5-1.2,8.3c0.8,0.2,1.5,0.4,2.3,0.6c0.6-2.8,1.4-5.5,2.2-8.3c-0.8-0.1-1.6-0.2-2.4-0.3
						c-0.2,1.4-0.3,2.8-0.5,4.2c-0.2,1.3,2.1,1.6,2.4,0.3c0.3-1.4,0.6-2.8,0.9-4.3c-0.8-0.2-1.5-0.4-2.3-0.6
						c-0.3,1.7-0.6,3.4-0.8,5.2c-0.2,1.5,1.9,2.2,2.3,0.6c0.6-2.5,1.2-5.1,1.8-7.6c-0.8-0.1-1.6-0.2-2.4-0.3
						c-0.4,3.8-0.8,7.7-1.3,11.5c-0.1,1.3,2.1,1.6,2.4,0.3c0.4-1.9,0.7-3.8,0.9-5.7c-0.8,0-1.6,0-2.4,0c0.2,1.9,0.2,3.6,0,5.5
						c0.8,0,1.6,0,2.4,0c0-3,0-6.1,0.2-9.1c-0.8,0-1.6,0-2.4,0c-0.1,6.9,0,13.7,0.5,20.6c0.8-0.1,1.6-0.2,2.4-0.3
						c-1-3.2-1.6-6.3-1.8-9.6c-0.1-1.3-2-1.7-2.4-0.3c-0.6,2.2-1.2,4.4-1.8,6.6c0.7-0.2,1.3-0.4,2-0.5c-0.8-0.8-0.6-4.8-0.6-6
						c0-1.3-2.1-1.7-2.4-0.3c-0.5,2.5-1.1,5.1-1.6,7.6c0.7-0.2,1.3-0.4,2-0.5c-0.8-0.7,0.6-4.9,0.9-6c-0.8-0.2-1.5-0.4-2.3-0.6
						c-0.3,1.9-0.8,3.4-1.5,5.2c0.8,0.1,1.6,0.2,2.4,0.3c-0.3-1.5-0.1-2.9,0.4-4.3c-0.8-0.2-1.5-0.4-2.3-0.6
						c-0.4,1.5-0.8,2.9-1.3,4.4c0.8,0.2,1.5,0.4,2.3,0.6c0.4-2.3,1-4.4,1.7-6.6c-0.8-0.1-1.6-0.2-2.4-0.3c-0.4,2.7-1,4.7-2.1,7.2
						C84.7,561.2,85.4,561.5,86.2,561.7c0.7-3,1.9-5.7,3.7-8.2c-0.7-0.2-1.5-0.4-2.2-0.6c0,2.9-0.3,5.7-0.8,8.6
						c0.8,0.2,1.5,0.4,2.3,0.6c0.5-3,1.1-5.9,2.2-8.8c-0.8-0.1-1.6-0.2-2.4-0.3c0,2.7-0.1,5.3-0.4,8c0.8,0,1.6,0,2.4,0
						c0-2.2,0.3-4.3,1-6.4c-0.8-0.1-1.6-0.2-2.4-0.3c0.2,2.6,0.2,5.1-0.2,7.8c0.8-0.1,1.6-0.2,2.4-0.3c-0.6-1.8-0.6-3.6-0.2-5.4
						c-0.8-0.1-1.6-0.2-2.4-0.3c0.4,3.8,0.5,7.4,0.2,11.2c-0.1,1.5,2.3,1.5,2.4,0c0.3-3.8,0.2-7.4-0.2-11.2
						c-0.1-1.2-2.1-1.8-2.4-0.3c-0.4,2.3-0.4,4.4,0.2,6.7c0.4,1.4,2.2,0.9,2.4-0.3c0.3-2.6,0.4-5.1,0.2-7.8
						c-0.1-1.3-1.9-1.7-2.4-0.3c-0.8,2.4-1.1,4.5-1.1,7c0,1.6,2.3,1.5,2.4,0c0.2-2.7,0.4-5.3,0.4-8c0-1.4-1.9-1.5-2.4-0.3
						c-1.1,2.9-1.7,5.8-2.2,8.8c-0.2,1.5,2,2.2,2.3,0.6c0.6-3.1,0.9-6.1,0.9-9.2c0-1.3-1.6-1.5-2.2-0.6c-2,2.8-3.2,5.5-4,8.9
						c-0.3,1.3,1.6,2.2,2.2,0.9c1.3-2.7,2-5.4,2.4-8.4c0.2-1.4-1.9-1.5-2.4-0.3c-0.7,2.2-1.3,4.3-1.7,6.6c-0.3,1.5,1.8,2.1,2.3,0.6
						c0.5-1.5,1-2.9,1.3-4.4c0.4-1.5-1.9-2.1-2.3-0.6c-0.5,1.7-0.7,3.1-0.5,4.9c0.1,1.4,1.8,1.6,2.4,0.3c0.7-1.8,1.2-3.3,1.5-5.2
						c0.2-1.5-1.9-2.2-2.3-0.6c-0.5,2-2.3,6.7-0.2,8.4c0.6,0.5,1.8,0.4,2-0.5c0.5-2.5,1.1-5.1,1.6-7.6c-0.8-0.1-1.6-0.2-2.4-0.3
						c0.1,2.5-0.6,5.8,1.3,7.7c0.6,0.6,1.8,0.3,2-0.5c0.6-2.2,1.2-4.4,1.8-6.6c-0.8-0.1-1.6-0.2-2.4-0.3c0.3,3.5,0.9,6.8,1.9,10.2
						c0.4,1.2,2.4,1.1,2.4-0.3c-0.4-6.9-0.6-13.7-0.5-20.6c0-1.6-2.3-1.5-2.4,0c-0.1,3-0.2,6.1-0.2,9.1c0,1.6,2.3,1.5,2.4,0
						c0.1-1.9,0.1-3.6,0-5.5c-0.1-1.5-2.3-1.5-2.4,0c-0.1,1.7-0.4,3.4-0.8,5.1c0.8,0.1,1.6,0.2,2.4,0.3c0.4-3.8,0.8-7.7,1.3-11.5
						c0.1-1.4-2-1.6-2.4-0.3c-0.6,2.5-1.2,5.1-1.8,7.6c0.8,0.2,1.5,0.4,2.3,0.6c0.3-1.7,0.6-3.4,0.8-5.2c0.2-1.5-2-2.2-2.3-0.6
						c-0.3,1.4-0.6,2.8-0.9,4.3c0.8,0.1,1.6,0.2,2.4,0.3c0.2-1.4,0.3-2.8,0.5-4.2c0.2-1.4-2-1.6-2.4-0.3c-0.8,2.7-1.5,5.5-2.2,8.3
						c-0.3,1.5,2,2.1,2.3,0.6c0.7-3,1.1-5.9,1.3-8.9c0.1-1.4-1.9-1.5-2.4-0.3c-1,2.8-1.9,5.5-2.7,8.4c0.8,0.2,1.5,0.4,2.3,0.6
						c0.6-2.8,0.9-5.4,0.9-8.2c0-1.1-1.8-1.7-2.2-0.6c-0.9,2.1-1.5,4.1-2,6.3c-0.3,1.5,1.8,2.1,2.3,0.6c1.1-3,1.4-5.7,1.1-8.9
						c-0.1-0.9-1.3-1.8-2-0.8c-2.1,2.6-3.3,5.1-3.8,8.4c0.8,0.1,1.6,0.2,2.4,0.3c0.3-2.6,0.1-4.7-0.5-7.3c-0.3-1.2-1.9-1-2.3,0
						c-1.2,2.9-1,5.3,0.4,8c0.5,0.9,2,0.7,2.2-0.3c0.5-2.3,0.7-4.5,0.6-6.9c-0.1-1.3-2-1.7-2.4-0.3c-0.8,3-1,5.6-0.5,8.6
						c0.2,1.3,2,1,2.3,0c0.9-2.5,1.8-4.9,2.7-7.4c-0.8-0.1-1.6-0.2-2.4-0.3c0.3,4.3-0.9,8.5-1.8,12.6c-0.3,1.5,1.8,2.1,2.3,0.6
						c1.8-4.6,5.1-10.2,5.5-15.1c0-0.4-0.3-0.8-0.6-1c-1.2-0.8-2.7-1-4.1-1.4c-0.2,0.8-0.4,1.5-0.6,2.3c2,0.6,4,1.1,6,1.7
						c0.1-0.8,0.2-1.6,0.3-2.4c-3.4,0-6.7-0.2-10.1-0.8c-0.7-0.1-1.6,0.3-1.5,1.2c0.2,4.5,0.8,9,1.6,13.5c0.3,1.4,2.2,0.9,2.4-0.3
						c0.1-0.7,0.2-1.3,0-2c-0.1-1.2-2.1-1.8-2.4-0.3c-0.4,2.5-0.5,4.9-0.2,7.5c0.2,1.5,2.3,1.5,2.4,0c0.3-2.7,0.1-5.1-0.3-7.8
						c-0.2-1.3-2.5-1-2.4,0.3c0.4,3.2,0.7,6.4,1.1,9.6c0.2,1.5,2.4,1.6,2.4,0c0.1-2.3-0.1-4.6-0.4-6.9c-0.2-1.3-2.5-1-2.4,0.3
						c0.2,2.2,0.4,4.3,0.8,6.5C84.1,563.9,86.5,563.2,86.2,561.7L86.2,561.7z"/>
				</g>
			</g>
			<g>
				<g>
					<path class="st0" d="M59.8,566c-2.7,1.7,0.2,4.6,1.9,5.9c4.5,3.5,10.4,3.4,15.6,1.9c-0.3-0.7-0.6-1.5-0.9-2.2
						c-0.7,0.3-1.3,0.6-2,0.9c-1.5,0.2-1.5,2.6,0,2.4c5.2-0.6,10.4-1.7,15.2-3.8c3-1.3,4.4-2.4,3-5.7c-0.6-1.4-2.6-0.9-2.3,0.6
						c0.2,0.9,0.3,1.9,0.5,2.8c0.2,1.2,2.1,1.1,2.3,0c0.1-0.7,0.3-1.5,0.4-2.2c-0.8,0-1.5,0-2.3,0c0.2,0.9,0.4,1.8,0.6,2.7
						c0.3,1.4,2.3,1,2.4-0.3c0-0.9,0.1-1.7,0.1-2.6c-0.7,0.2-1.5,0.4-2.2,0.6c0.2,0.6,0.4,1.2,0.6,1.9c0.8-0.2,1.5-0.4,2.3-0.6
						c-0.1-0.5-0.2-1.1-0.4-1.6c-0.4-1.5-2.6-0.9-2.3,0.6c0.1,0.9,0.9,3.4,0.2,4.3c0,0-2.3,0.4-2.3,0.4c0.5,0.4,1,0.8,1.5,1.2
						c0.1-1.2,0.1-2.3,0.2-3.5c-0.7,0.3-1.4,0.6-2,0.8c0.2,0.4,0.4,0.8,0.6,1.2c0.3,1,2.1,1.2,2.3,0c0.1-0.5,0.2-1,0.3-1.4
						c-0.8,0-1.5,0-2.3,0c0.2,0.5,0.4,1,0.5,1.5c0.5,1.4,2.7,0.9,2.3-0.6c-0.9-3.1-2-5.9-3.6-8.8c-0.7-1.2-2.5-0.4-2.2,0.9
						c0.4,1.6,1.1,4.4-1.6,4c-2-0.3-1.5-2.1-1.5-3.6c-0.5,0.4-1,0.8-1.5,1.2c-0.1,0,3.3,0.7,3.1,0.4c1.4,1.3-0.4,1-1.2,1
						c0.4,0.5,0.8,1,1.2,1.5c-1.3-1.9-2.5-2.4-3.6-1.4c0.9-1.5,1.3-3.1,1.1-4.8c0-0.8-0.8-1.3-1.5-1.2c-5,1-3.4,9.2-1.1,12.1
						c0.6-0.6,1.1-1.1,1.7-1.7c-2-1.8-2.4-4-1.2-6.5c0.5-1-0.3-1.9-1.4-1.8c-5.5,0.8-11.1,1.6-16.6,2.5c-2,0.3-4.2,0.4-3.9,2.9
						c0.2,2,3.6,3.4,5.2,4.1c4.4,1.8,9.4,1.6,14.1,1.4c0.7,0,1.4-0.7,1.2-1.5c-0.7-2.2,0.1-5.9-2.4-6.9c-4.2-1.8-9.9,2.4-14.2,1.7
						c-1.4-0.2-2,1.4-0.9,2.2c2.8,2.1,6,3,9.5,3.2c1.8,0.1,4.5,0.7,5.6-1.1c0.7-1.2,0.2-3.4-0.9-4.1c-2.2-1.5-7.4,0.3-10,0.3
						c-1.4,0-1.5,1.9-0.3,2.4c2.9,1.2,5.7,0.6,8.7,1.3c0.1-0.8,0.2-1.6,0.3-2.4c-1-0.1-2.1-0.3-3.1-0.4c0,0.8,0,1.6,0,2.4
						c2-0.1,4.1-0.1,6.1,0c1.5,0,1.5-2.4,0-2.4c-2,0-4.1,0-6.1,0c-1.6,0.1-1.5,2.2,0,2.4c1,0.1,2.1,0.3,3.1,0.4
						c1.3,0.2,1.6-2,0.3-2.4c-2.9-0.7-6-0.1-8.7-1.3c-0.1,0.8-0.2,1.6-0.3,2.4c0.9,0,7.8-0.2,7.5,0.2c-0.5,0.6-5.5-0.6-5.6-0.6
						c-1.8-0.5-3.4-1.3-4.9-2.4c-0.3,0.7-0.6,1.5-0.9,2.2c3.1,0.6,5.2-0.3,8.2-1c0.8-0.2,5.1-1.4,5.8-0.6c0.4,0.4,0.7,4.6,0.9,5.2
						c0.4-0.5,0.8-1,1.2-1.5c-3,0.1-5.9,0.3-8.8-0.2c-1.9-0.3-3.8-0.7-5.5-1.6c-0.8-0.5-1.5-1-2.3-1.5c0.3-0.2,0.7-0.2,1-0.2
						c1.7-1.1,6.3-0.9,8.3-1.2c3.1-0.5,6.1-0.9,9.2-1.4c-0.5-0.6-0.9-1.2-1.4-1.8c-1.6,3.4-1.2,6.7,1.6,9.4c1.1,1.1,2.6-0.5,1.7-1.7
						c-0.4-0.6-2.9-7.5,0-8.1c-0.5-0.4-1-0.8-1.5-1.2c0,1.8-0.5,4.7,1.5,5.7c0.5,0.2,1,0.2,1.5-0.2c1.3-1.2,1.7-4.1-0.5-4.7
						c-2.6-0.7-3.6,2.8-3.5,4.6c0.4,7.1,8.6,1,4.3-2.8c-0.3-0.3-0.8-0.5-1.2-0.3c-2.5,0.9-4.7,5.5-1.2,6.7c3,1.1,5.1-3.4,2.8-5.3
						c-0.4-0.4-0.9-0.4-1.5-0.2c-2.6,1.3-2.8,7.1,0.9,6.9c3.2-0.2,4-6.3,0.4-6.7c-3.5-0.4-4.2,4.6-0.9,5.4c3.1,0.7,5.2-3.8,2.7-5.7
						c-0.3-0.2-0.9-0.2-1.2,0c-2.6,2,1.1,5.1,3,2.5c0.3-0.4,0.2-1.1-0.2-1.5c-1.5-1.4-3.8-0.9-4.3,1.2c-0.2,0.8,0.4,1.5,1.2,1.5
						c3.6,0.2,5.9-0.6,4.1-5.1c-0.2-0.5-0.6-0.9-1.2-0.9c-1.4,0-2.7,0.3-4.2-0.1c-0.8-0.2-1.5,0.4-1.5,1.2c-0.2,7,1.5,6.3,7.9,5.5
						c0.5-0.1,0.9-0.7,0.9-1.2c-0.2-1.8-0.5-3.5-1-5.3c-0.7,0.3-1.5,0.6-2.2,0.9c1.4,2.6,2.5,5.3,3.3,8.2c0.8-0.2,1.5-0.4,2.3-0.6
						c-0.2-0.5-0.4-1-0.5-1.5c-0.4-1-2.1-1.3-2.3,0c-0.1,0.5-0.2,1-0.3,1.4c0.8,0,1.5,0,2.3,0c-0.4-1.1-0.5-1.4-1.3-2.3
						c-0.7-0.9-2-0.1-2,0.8c-0.1,1.2-0.1,2.3-0.2,3.5c0,0.7,0.8,1.4,1.5,1.2c1.6-0.6,3.3,0.1,4.4-1.5c0.9-1.4-0.3-4.7-0.5-6.1
						c-0.8,0.2-1.5,0.4-2.3,0.6c0.1,0.5,0.2,1.1,0.4,1.6c0.4,1.5,2.6,0.9,2.3-0.6c-0.3-1.2-0.3-1.3-0.8-2.4
						c-0.5-1.2-2.2-0.5-2.2,0.6c0,0.9-0.1,1.7-0.1,2.6c0.8-0.1,1.6-0.2,2.4-0.3c-0.2-0.9-0.4-1.8-0.6-2.7c-0.3-1.1-2.1-1.2-2.3,0
						c-0.1,0.7-0.3,1.5-0.4,2.2c0.8,0,1.5,0,2.3,0c-0.2-0.9-0.3-1.9-0.5-2.8c-0.8,0.2-1.5,0.4-2.3,0.6c1.7,4.1-13.1,6.1-15.9,6.5
						c0,0.8,0,1.6,0,2.4c1.8-0.2,1.7-0.1,3.2-1.2c1.1-0.8,0.5-2.6-0.9-2.2c-2.8,0.8-5.5,1.2-8.4,0.6c-1.4-0.1-2.8-0.6-4-1.4
						C63,569.9,62,569,61,568C62.3,567.2,61.1,565.2,59.8,566L59.8,566z"/>
				</g>
			</g>
			<g>
				<g>
					<path class="st0" d="M79.7,566.1c-0.6-0.3-1.2-0.8-1.6-1.4c-0.4,0.7-0.8,1.3-1.2,2c2.2,0.9,2.7,3.5,0.4,4.7
						c-1,0.5-0.6,1.8,0.3,2.2c1.4,0.5,3.3-0.6,4.6-1.2c2.4-1.1,4.7-2.3,7.3-2.6c1.5-0.2,1.5-2.6,0-2.4c-1.9,0.2-3.6,0.7-5.3,1.5
						c-1.2,0.5-4.7,2.9-5.9,2.4c0.1,0.7,0.2,1.5,0.3,2.2c2-1.1,3.3-2.5,2.8-4.9c-0.4-2.1-1.9-3.4-3.8-4.2c-1.2-0.5-1.8,1.2-1.2,2
						c0.6,0.7,1.2,1.3,2.1,1.8C79.7,569,81,566.9,79.7,566.1L79.7,566.1z"/>
				</g>
			</g>
			<g>
				<g>
					<path class="st0" d="M62.3,566.2c0.6-0.8,1.4-1.3,2.3-1.5c0.8-0.4,1.6-0.6,2.5-0.8c1.7-0.4,3.5-0.5,5.3-0.5
						c2.8,0,5.6,0.4,8.4,0.7c-0.2-0.7-0.4-1.5-0.6-2.2c-1.9,1.1-5.9,0.6-8.1,0.8c-2.5,0.2-5,0.3-7.5,0.5c-1.5,0.1-1.5,2.5,0,2.4
						c3.5-0.2,7-0.5,10.5-0.7c2-0.1,4.5,0.1,6.4-0.9c1.1-0.6,0.5-2.1-0.6-2.2c-6-0.7-12.2-1.4-17.9,1.1c-2.5,1.1-5.5,4.6-1.2,5.7
						C63.1,568.9,63.8,566.6,62.3,566.2L62.3,566.2z"/>
				</g>
			</g>
			<g>
				<g>
					<path class="st1" d="M84.7,535.3c-1,0.1-2.1,0.1-3.1-0.1c0,0.8,0,1.6,0,2.4c1.6,0.1,3.2,0.2,4.9,0.3c1.5,0.1,1.5-2.3,0-2.4
						c-1.6-0.1-3.2-0.2-4.9-0.3c-1.6-0.1-1.5,2.2,0,2.4c1,0.1,2.1,0.1,3.1,0.1C86.3,537.6,86.3,535.2,84.7,535.3L84.7,535.3z"/>
				</g>
			</g>
			<g>
				<g>
					<path class="st2" d="M83,535.6c-0.8,0-1.5-0.1-2.3-0.1c-1.5-0.3-2.1,1.8-0.6,2.3c0.4,0.2,0.9,0.3,1.4,0.4
						c0.1-0.8,0.2-1.6,0.3-2.4c-0.2,1,0.1,1.4,1.1,1.2c0.8,0.1,1.6,0.2,2.3,0.4c0.9,0.1,1.7,0.2,2.6,0.3c2.2,0.1,4.3-0.3,6.4-0.9
						c-0.5-0.4-1-0.8-1.5-1.2c0,0.7-0.1,1.3-0.4,1.9c0.5-0.3,1-0.6,1.5-0.8c-1.3-0.5-2.5-0.4-3.8-0.3c-1.5,0.1-3-0.3-4.5-0.2
						c-1.2,0-1.6,1.6-0.6,2.2c1.1,0.7,2.1,0.8,3.3,0.5c1.5-0.4,0.9-2.7-0.6-2.3c-0.5-0.1-1-0.2-1.5-0.3c-0.2,0.7-0.4,1.5-0.6,2.2
						c1.3,0,2.5,0.4,3.7,0.3c1.4-0.1,2.6-0.4,4,0.1c0.6,0.2,1.3-0.3,1.5-0.8c0.3-0.9,0.4-1.7,0.4-2.6c0-0.8-0.8-1.4-1.5-1.2
						c-2.9,0.9-5.6,0.9-8.6,0.5c-1.3-0.2-3.5-0.8-4.7-0.1c-1.9,1.2-0.4,3.6,1.5,3.5c1.3-0.1,1.7-2.1,0.3-2.4c-0.5,0-1-0.2-1.4-0.4
						c-0.2,0.8-0.4,1.5-0.6,2.3c1.3,0.3,2.3,0.3,3.6,0.1C85.2,537.7,84.5,535.4,83,535.6L83,535.6z"/>
				</g>
			</g>
			<g>
				<g>
					<path class="st2" d="M79.6,536c-0.8,0.9-0.4,2.3,0.8,2.6c0.6,0.1,1.2-0.1,1.8-0.3c0.6-0.1,1.2-0.3,1.8-0.4
						c1.5-0.4,0.9-2.7-0.6-2.3c-0.5,0.1-0.9,0.2-1.4,0.3c-0.2,0.1-0.4,0.1-0.6,0.2c-0.1,0-0.2,0-0.3,0.1c-0.3,0-0.3,0.1-0.1,0.1
						c0.1,0.1,0.3,0.3,0.4,0.4c0,0,0,0,0,0.1c0,0.2,0,0.4,0,0.6c0,0,0-0.1,0-0.1c-0.1,0.2-0.2,0.4-0.3,0.5c0,0,0-0.1,0.1-0.1
						c0.4-0.5,0.5-1.2,0-1.7C80.9,535.6,80,535.5,79.6,536L79.6,536z"/>
				</g>
			</g>
			<g>
				<g>
					<path class="st0" d="M93.2,565c0-0.2-0.1-0.4-0.1-0.6c-0.8,0.1-1.6,0.2-2.4,0.3c0.1,0.4,0.3,0.8,0.4,1.2
						c0.7-0.3,1.5-0.6,2.2-0.9c-0.1-0.2-0.2-0.5-0.3-0.8c-0.7,0.2-1.5,0.4-2.2,0.6c0.1,0.2,0.2,0.5,0.2,0.8c0.7-0.3,1.5-0.6,2.2-0.9
						c0,0.2,0.1,0.2,0.1,0c0.1-0.6-0.6-1.2-1.2-1.2c-0.7,0-1.1,0.6-1.2,1.2c0,0.4,0.1,0.8,0.3,1.2c0.2,0.5,1,0.7,1.5,0.5
						c0.6-0.3,0.8-0.8,0.7-1.4c-0.1-0.5-0.3-0.9-0.4-1.3c-0.5-1.1-2.4-0.6-2.2,0.6c0.1,0.7,0.2,1.4,0.6,2c0.6,1.2,2.6,0.4,2.2-0.9
						c-0.1-0.4-0.3-0.8-0.4-1.2c-0.2-0.6-0.7-1-1.3-0.9c-0.5,0.1-1.1,0.6-1,1.2c0,0.2,0.1,0.4,0.1,0.6c0.1,0.6,0.5,1.2,1.2,1.2
						C92.6,566.2,93.3,565.7,93.2,565L93.2,565z"/>
				</g>
			</g>
			<g>
				<g>
					<path class="st0" d="M92.3,541.3c-0.1,1.4-0.3,2.8-0.4,4.3c-0.1,1.4,1.9,1.5,2.4,0.3c0.6-1.7,1-3.3,1.2-5.1
						c0.2-1.5-2.2-1.5-2.4,0c-0.2,1.5-0.6,3-1.1,4.4c0.8,0.1,1.6,0.2,2.4,0.3c0.1-1.4,0.3-2.8,0.4-4.3
						C94.9,539.7,92.5,539.7,92.3,541.3L92.3,541.3z"/>
				</g>
			</g>
		</g>
		<g>
			<g>
				<g>
					<path d="M60,572c7.7,6.2,21,2.5,29.4,0.2c0.7-0.2,0.4-1.4-0.3-1.2c-8,2.1-20.9,6-28.2,0.1C60.3,570.7,59.4,571.5,60,572L60,572
						z"/>
				</g>
			</g>
			<g>
				<g>
					<path d="M88.6,571.9c0.1,0.9-0.2,2.7,0.9,3.1c0.5,0.2,1,0.1,1.5,0c0.7-0.1,1.4-0.2,2.1-0.3c0.8-0.1,0.8-1.3,0-1.2
						c-0.9,0.1-1.7,0.2-2.6,0.3c-0.5,0.1-0.6,0.1-0.7-0.4c-0.1-0.5-0.1-1-0.1-1.5C89.7,571.1,88.5,571.1,88.6,571.9L88.6,571.9z"/>
				</g>
			</g>
			<g>
				<g>
					<path d="M61.3,571.4c-3.2-2.6-1.5-6.8,1.6-8.5c2.5-1.3,5.4-1.3,8.1-1.3c3.4-0.1,6.8,0.1,10.1,0.3c0.8,0,0.8-1.2,0-1.2
						c-5.9-0.4-14.9-1.9-20,2c-3.2,2.4-4.1,6.9-0.7,9.6C61,572.7,61.9,571.9,61.3,571.4L61.3,571.4z"/>
				</g>
			</g>
			<g>
				<g>
					<path d="M81.1,561c-0.8-8.8-1.3-17.6-1.5-26.4c0-0.8-1.2-0.8-1.2,0c0.1,8.8,0.6,17.6,1.5,26.4C80,561.8,81.2,561.8,81.1,561
						L81.1,561z"/>
				</g>
			</g>
			<g>
				<g>
					<path d="M93.6,573.2c0,0-0.1,0-0.1,0c-0.8,0-0.8,1.2,0,1.2c0,0,0.1,0,0.1,0C94.4,574.4,94.4,573.2,93.6,573.2L93.6,573.2z"/>
				</g>
			</g>
			<g>
				<g>
					<path d="M93.3,574.8c1-0.3,1.9-0.1,2.5-1c0.6-1-0.2-3.7-0.2-4.7c-0.2-2.2-0.3-4.5-0.3-6.7c-0.3-9.3,0.3-18.5,0.9-27.8
						c0-0.8-1.2-0.8-1.2,0c-0.4,7.3-0.9,14.7-0.9,22c0,3.5,0.1,7,0.3,10.5c0.2,2.6,1.6,5.6-1.3,6.5
						C92.2,573.9,92.5,575.1,93.3,574.8L93.3,574.8z"/>
				</g>
			</g>
			<g>
				<g>
					<path d="M79.4,535.6c2.9-0.7,5.7-0.3,8.6-0.2c2.6,0.1,5.1-0.6,7.7-0.5c0.8,0,0.8-1.2,0-1.2c-3-0.1-5.9,0.6-8.9,0.4
						c-2.6-0.2-5.1-0.3-7.7,0.3C78.4,534.6,78.7,535.8,79.4,535.6L79.4,535.6z"/>
				</g>
			</g>
			<g>
				<g>
					<path d="M78.9,538c0.5,1.2,1.9,1.8,3,1c0.6-0.4,0-1.5-0.6-1c-0.4,0.3-1,0.2-1.2-0.3C79.8,537,78.6,537.3,78.9,538L78.9,538z"/>
				</g>
			</g>
			<g>
				<g>
					<path d="M81.7,538.8c0.9,0.6,2,0.7,3,0.1c0.7-0.4,0.1-1.4-0.6-1c-0.6,0.3-1.2,0.3-1.8-0.1C81.7,537.3,81.1,538.3,81.7,538.8
						L81.7,538.8z"/>
				</g>
			</g>
			<g>
				<g>
					<path d="M84.6,539.2c0.9,1.1,2.4,1.1,3.5,0.3c0.6-0.5-0.3-1.3-0.8-0.8c-0.6,0.4-1.3,0.2-1.8-0.3
						C84.9,537.7,84.1,538.6,84.6,539.2L84.6,539.2z"/>
				</g>
			</g>
			<g>
				<g>
					<path d="M87.9,539.8c1,0.2,2.1,0,3-0.6c0.6-0.4,0-1.5-0.6-1c-0.6,0.4-1.3,0.6-2,0.5C87.5,538.5,87.2,539.6,87.9,539.8
						L87.9,539.8z"/>
				</g>
			</g>
			<g>
				<g>
					<path d="M90.6,539.1c0.9,0.6,1.9,0.7,3,0.5c0.8-0.2,0.4-1.3-0.3-1.2c-0.7,0.1-1.4,0-2.1-0.4C90.6,537.6,90,538.7,90.6,539.1
						L90.6,539.1z"/>
				</g>
			</g>
			<g>
				<g>
					<path d="M93.9,539.7c0.4,0,0.7-0.1,1-0.4c0.6-0.5-0.3-1.4-0.8-0.8c0,0.1-0.1,0.1-0.2,0.1C93.1,538.5,93.1,539.7,93.9,539.7
						L93.9,539.7z"/>
				</g>
			</g>
			<g>
				<g>
					<path d="M81.6,546.9c0.8,0,0.8-1.2,0-1.2C80.8,545.7,80.8,546.9,81.6,546.9L81.6,546.9z"/>
				</g>
			</g>
			<g>
				<g>
					<path d="M81.2,550.1c0.1,0.1,0.2,0.2,0.3,0.2c0.5,0.5,1.4-0.3,0.8-0.8c-0.1-0.1-0.2-0.2-0.3-0.2
						C81.5,548.7,80.6,549.5,81.2,550.1L81.2,550.1z"/>
				</g>
			</g>
			<g>
				<g>
					<path d="M82.3,554.8c-0.2,0-0.3,0-0.5,0c-0.1-0.1-0.1-0.3-0.2-0.4c0,0,0,0.1,0,0.1c0.1,0.8,1.3,0.8,1.2,0
						c-0.1-0.7-0.9-1.1-1.4-0.5C80.9,554.5,81.8,555.4,82.3,554.8L82.3,554.8z"/>
				</g>
			</g>
			<g>
				<g>
					<path d="M69.6,561.9c0,1.1,0.4,2.1,1.3,2.8c0.6,0.5,1.4-0.4,0.8-0.8c-0.6-0.5-0.9-1.2-0.9-1.9
						C70.8,561.1,69.6,561.1,69.6,561.9L69.6,561.9z"/>
				</g>
			</g>
			<g>
				<g>
					<path d="M72.9,561.6c0.1,1.2,0.8,2.3,1.8,3c0.6,0.4,1.2-0.6,0.6-1c-0.7-0.4-1.1-1.2-1.2-2C74,560.9,72.8,560.9,72.9,561.6
						L72.9,561.6z"/>
				</g>
			</g>
			<g>
				<g>
					<path d="M76.5,561.8c-0.1,1.2,0.5,2.3,1.6,2.9c0.7,0.4,1.3-0.7,0.6-1c-0.7-0.4-1.1-1.1-1-1.8C77.8,561,76.6,561,76.5,561.8
						L76.5,561.8z"/>
				</g>
			</g>
		</g>
	</g>
	<g>
		<g>
			<g>
				<g>
					<path class="st0" d="M117.5,564.4c0.2-1,0.5-2,0.7-3c-0.8,0-1.5,0-2.3,0c0.3,0.7,0.6,1.5,0.7,2.2c0.3,1.3,2.5,1,2.4-0.3
						c-0.1-0.6-0.1-1.2-0.2-1.8c-0.8,0.1-1.6,0.2-2.4,0.3c0.1,0.3,0.1,0.5,0.2,0.8c0.2,1,1.7,1.1,2.2,0.3c0.5-0.8,0.5-0.9,0.7-1.8
						c-0.8-0.1-1.6-0.2-2.4-0.3c0,0.3,0,0.5,0,0.8c0.1,1.5,2.4,1.6,2.4,0c-0.1-2.9,0-5.7,0.1-8.6c-0.8,0.1-1.6,0.2-2.4,0.3
						c0.2,1.2,0.4,2.4,0.6,3.6c0.2,1.4,2.3,1,2.4-0.3c0.3-5.4,0.6-10.8,1-16.3c0.1-1-1-1.4-1.8-1c-0.7,0.3-4.4,0.3-5.3,0.4
						c-2.5,0.5-4.8-0.3-7.3,0.4c0.5,0.4,1,0.8,1.5,1.2c0-0.2,0-0.4,0-0.6c0.1-1.5-2.3-1.5-2.4,0c0,0.2,0,0.4,0,0.6
						c-0.1,0.8,0.8,1.4,1.5,1.2c4.1-1.2,9.2,0.9,13.2-1.1c-0.6-0.3-1.2-0.7-1.8-1c-0.3,5.4-0.6,10.8-1,16.3c0.8-0.1,1.6-0.2,2.4-0.3
						c-0.2-1.2-0.4-2.4-0.6-3.6c-0.2-1.4-2.3-1-2.4,0.3c-0.1,2.9-0.2,5.7-0.1,8.6c0.8,0,1.6,0,2.4,0c0-0.3,0-0.5,0-0.8
						c-0.1-1.3-2.1-1.7-2.4-0.3c-0.2,0.4-0.3,0.8-0.5,1.3c0.7,0.1,1.5,0.2,2.2,0.3c-0.1-0.3-0.1-0.5-0.2-0.8c-0.3-1.3-2.5-1-2.4,0.3
						c0.1,0.6,0.1,1.2,0.2,1.8c0.8-0.1,1.6-0.2,2.4-0.3c-0.1-0.8-0.4-1.5-0.7-2.2c-0.4-1-2-1.3-2.3,0c-0.2,1-0.5,2-0.7,3
						C114.8,565.3,117.2,565.9,117.5,564.4L117.5,564.4z"/>
				</g>
			</g>
			<g>
				<g>
					<path class="st0" d="M110.3,541.2c0-0.1,0.1-0.2,0.1-0.2c0.3-0.6,0.2-1.3-0.4-1.6c-0.5-0.3-1.3-0.1-1.6,0.4
						c0,0.1-0.1,0.2-0.1,0.2c-0.3,0.6-0.2,1.3,0.4,1.6C109.2,541.9,110,541.8,110.3,541.2L110.3,541.2z"/>
				</g>
			</g>
			<g>
				<g>
					<path class="st0" d="M117.3,541.3c0.1-0.4,0.2-0.7,0.3-1.1c0.1-0.6-0.2-1.3-0.8-1.5c-0.6-0.2-1.3,0.2-1.5,0.8
						c-0.1,0.4-0.2,0.7-0.3,1.1c-0.1,0.6,0.2,1.3,0.8,1.5C116.4,542.3,117.1,541.9,117.3,541.3L117.3,541.3z"/>
				</g>
			</g>
			<g>
				<g>
					<path class="st0" d="M116.4,562.8c0.4-2.2,0.7-4.3,0.8-6.5c0.1-1.3-2.2-1.7-2.4-0.3c-0.3,2.3-0.5,4.6-0.4,6.9
						c0,1.6,2.2,1.5,2.4,0c0.4-3.2,0.7-6.4,1.1-9.6c0.1-1.3-2.1-1.7-2.4-0.3c-0.4,2.6-0.6,5.1-0.3,7.8c0.1,1.5,2.2,1.5,2.4,0
						c0.3-2.6,0.2-5-0.2-7.5c-0.2-1.4-2.2-0.9-2.4,0.3c-0.1,0.7-0.1,1.3,0,2c0.1,1.2,2.1,1.8,2.4,0.3c0.9-4.5,1.4-8.9,1.6-13.5
						c0-0.9-0.8-1.3-1.5-1.2c-3.4,0.5-6.7,0.8-10.1,0.8c0.1,0.8,0.2,1.6,0.3,2.4c2-0.6,4-1.1,6-1.7c-0.2-0.8-0.4-1.5-0.6-2.3
						c-1.4,0.4-2.8,0.7-4.1,1.4c-0.3,0.2-0.6,0.6-0.6,1c0.4,4.9,3.7,10.5,5.5,15.1c0.5,1.4,2.7,0.9,2.3-0.6
						c-0.9-4.2-2.2-8.3-1.8-12.6c-0.8,0.1-1.6,0.2-2.4,0.3c0.9,2.5,1.8,4.9,2.7,7.4c0.4,1,2.1,1.3,2.3,0c0.5-3,0.3-5.6-0.5-8.6
						c-0.4-1.3-2.3-1-2.4,0.3c-0.1,2.4,0,4.6,0.6,6.9c0.2,1,1.7,1.2,2.2,0.3c1.4-2.8,1.6-5.1,0.4-8c-0.4-1-2-1.2-2.3,0
						c-0.7,2.5-0.9,4.7-0.5,7.3c0.8-0.1,1.6-0.2,2.4-0.3c-0.5-3.3-1.8-5.8-3.8-8.4c-0.7-0.9-1.9-0.1-2,0.8c-0.4,3.2-0.1,5.9,1.1,8.9
						c0.5,1.4,2.6,0.9,2.3-0.6c-0.5-2.2-1.1-4.3-2-6.3c-0.5-1.1-2.2-0.5-2.2,0.6c0,2.8,0.3,5.5,0.9,8.2c0.8-0.2,1.5-0.4,2.3-0.6
						c-0.8-2.8-1.7-5.6-2.7-8.4c-0.4-1.2-2.4-1.1-2.4,0.3c0.1,3,0.6,6,1.3,8.9c0.4,1.5,2.7,0.9,2.3-0.6c-0.6-2.8-1.4-5.5-2.2-8.3
						c-0.4-1.2-2.5-1.1-2.4,0.3c0.2,1.4,0.3,2.8,0.5,4.2c0.8-0.1,1.6-0.2,2.4-0.3c-0.3-1.4-0.6-2.8-0.9-4.3
						c-0.3-1.5-2.6-0.9-2.3,0.6c0.3,1.7,0.6,3.4,0.8,5.2c0.8-0.2,1.5-0.4,2.3-0.6c-0.6-2.5-1.2-5.1-1.8-7.6c-0.3-1.3-2.5-1-2.4,0.3
						c0.4,3.8,0.8,7.7,1.3,11.5c0.8-0.1,1.6-0.2,2.4-0.3c-0.4-1.7-0.7-3.4-0.8-5.1c-0.1-1.5-2.3-1.5-2.4,0c-0.2,1.9-0.2,3.6,0,5.5
						c0.1,1.5,2.4,1.6,2.4,0c0-3,0-6.1-0.2-9.1c-0.1-1.5-2.4-1.6-2.4,0c0.1,6.9,0,13.7-0.5,20.6c-0.1,1.4,2,1.6,2.4,0.3
						c1-3.4,1.6-6.7,1.9-10.2c-0.8,0.1-1.6,0.2-2.4,0.3c0.6,2.2,1.2,4.4,1.8,6.6c0.2,0.9,1.4,1.2,2,0.5c1.9-1.9,1.2-5.2,1.3-7.7
						c-0.8,0.1-1.6,0.2-2.4,0.3c0.5,2.5,1.1,5.1,1.6,7.6c0.2,1,1.4,1.1,2,0.5c2-1.7,0.3-6.3-0.2-8.4c-0.4-1.5-2.6-0.9-2.3,0.6
						c0.3,1.9,0.8,3.4,1.5,5.2c0.5,1.3,2.2,1.1,2.4-0.3c0.2-1.9,0-3.2-0.5-4.9c-0.5-1.5-2.7-0.9-2.3,0.6c0.4,1.5,0.8,2.9,1.3,4.4
						c0.5,1.5,2.6,0.9,2.3-0.6c-0.4-2.3-1-4.4-1.7-6.6c-0.4-1.2-2.5-1.1-2.4,0.3c0.4,3,1.2,5.7,2.4,8.4c0.6,1.3,2.5,0.3,2.2-0.9
						c-0.7-3.4-2-6.1-4-8.9c-0.7-0.9-2.2-0.7-2.2,0.6c0,3.1,0.3,6.1,0.9,9.2c0.3,1.5,2.6,0.9,2.3-0.6c-0.5-3-1.1-5.9-2.2-8.8
						c-0.5-1.2-2.4-1.1-2.4,0.3c0,2.7,0.1,5.3,0.4,8c0.1,1.5,2.4,1.6,2.4,0c0-2.5-0.3-4.7-1.1-7c-0.4-1.3-2.2-1-2.4,0.3
						c-0.2,2.6-0.2,5.1,0.2,7.8c0.2,1.2,2,1.7,2.4,0.3c0.6-2.3,0.6-4.4,0.2-6.7c-0.2-1.4-2.2-0.9-2.4,0.3c-0.4,3.8-0.5,7.4-0.2,11.2
						c0.1,1.5,2.5,1.5,2.4,0c-0.3-3.8-0.2-7.4,0.2-11.2c-0.8,0.1-1.6,0.2-2.4,0.3c0.4,1.8,0.4,3.6-0.2,5.4c0.8,0.1,1.6,0.2,2.4,0.3
						c-0.3-2.6-0.4-5.1-0.2-7.8c-0.8,0.1-1.6,0.2-2.4,0.3c0.7,2.1,1,4.2,1,6.4c0.8,0,1.6,0,2.4,0c-0.2-2.7-0.4-5.3-0.4-8
						c-0.8,0.1-1.6,0.2-2.4,0.3c1.1,2.9,1.7,5.8,2.2,8.8c0.8-0.2,1.5-0.4,2.3-0.6c-0.6-2.9-0.8-5.7-0.8-8.6
						c-0.7,0.2-1.5,0.4-2.2,0.6c1.9,2.6,3.1,5.2,3.7,8.3c0.7-0.3,1.5-0.6,2.2-0.9c-1.2-2.5-1.8-4.5-2.1-7.2
						c-0.8,0.1-1.6,0.2-2.4,0.3c0.7,2.2,1.3,4.3,1.7,6.6c0.8-0.2,1.5-0.4,2.3-0.6c-0.5-1.5-1-2.9-1.3-4.4c-0.8,0.2-1.5,0.4-2.3,0.6
						c0.6,1.4,0.7,2.8,0.4,4.3c0.8-0.1,1.6-0.2,2.4-0.3c-0.7-1.8-1.2-3.3-1.5-5.2c-0.8,0.2-1.5,0.4-2.3,0.6c0.3,1.1,1.6,5.4,0.9,6
						c0.7,0.2,1.3,0.4,2,0.5c-0.5-2.5-1.1-5.1-1.6-7.6c-0.3-1.4-2.3-1-2.4,0.3c0,1.2,0.2,5.2-0.6,6c0.7,0.2,1.3,0.4,2,0.5
						c-0.6-2.2-1.2-4.4-1.8-6.6c-0.4-1.4-2.3-1-2.4,0.3c-0.3,3.3-0.9,6.4-1.8,9.6c0.8,0.1,1.6,0.2,2.4,0.3
						c0.4-6.9,0.6-13.7,0.5-20.6c-0.8,0-1.6,0-2.4,0c0.1,3,0.2,6.1,0.2,9.1c0.8,0,1.6,0,2.4,0c-0.1-1.9-0.1-3.6,0-5.5
						c-0.8,0-1.6,0-2.4,0c0.2,2,0.5,3.8,0.9,5.7c0.3,1.3,2.5,1,2.4-0.3c-0.4-3.8-0.8-7.7-1.3-11.5c-0.8,0.1-1.6,0.2-2.4,0.3
						c0.6,2.5,1.2,5.1,1.8,7.6c0.4,1.5,2.6,0.9,2.3-0.6c-0.3-1.7-0.6-3.4-0.8-5.2c-0.8,0.2-1.5,0.4-2.3,0.6c0.3,1.4,0.6,2.8,0.9,4.3
						c0.3,1.3,2.5,1,2.4-0.3c-0.2-1.4-0.3-2.8-0.5-4.2c-0.8,0.1-1.6,0.2-2.4,0.3c0.8,2.7,1.5,5.5,2.2,8.3c0.8-0.2,1.5-0.4,2.3-0.6
						c-0.7-2.7-1-5.5-1.2-8.3c-0.8,0.1-1.6,0.2-2.4,0.3c1,2.8,1.9,5.5,2.7,8.4c0.4,1.5,2.6,0.9,2.3-0.6c-0.5-2.5-0.8-5-0.8-7.6
						c-0.7,0.2-1.5,0.4-2.2,0.6c0.8,2,1.3,3.7,1.8,5.8c0.8-0.2,1.5-0.4,2.3-0.6c-1-2.8-1.3-5.3-1-8.2c-0.7,0.3-1.4,0.6-2,0.8
						c1.8,2.2,2.8,4.5,3.2,7.3c0.2,1.3,2.5,1,2.4-0.3c-0.3-2.3-0.2-4.4,0.5-6.6c-0.8,0-1.5,0-2.3,0c1.1,1.9,1,4-0.2,6.2
						c0.7,0.1,1.5,0.2,2.2,0.3c-0.5-2.3-0.6-4-0.5-6.2c-0.8,0.1-1.6,0.2-2.4,0.3c0.7,2.5,0.9,4.7,0.5,7.3c0.8,0,1.5,0,2.3,0
						c-0.9-2.5-1.8-4.9-2.7-7.4c-0.5-1.3-2.3-1.1-2.4,0.3c-0.3,4.5,1,8.9,1.9,13.3c0.8-0.2,1.5-0.4,2.3-0.6c-1-2.6-2-5.2-3-7.9
						c-1-2.5-3.1-5.7,0.5-6.7c1.5-0.4,0.9-2.7-0.6-2.3c-2,0.6-4,1.1-6,1.7c-1.3,0.4-1,2.4,0.3,2.4c3.6,0,7.2-0.3,10.8-0.9
						c-0.5-0.4-1-0.8-1.5-1.2c-0.2,4.3-0.7,8.6-1.6,12.8c0.8,0.1,1.6,0.2,2.4,0.3c-0.1-0.7-0.2-1.3,0-2c-0.8,0.1-1.6,0.2-2.4,0.3
						c0.4,2.5,0.4,4.4,0.1,6.9c0.8,0,1.6,0,2.4,0c-0.2-2.5-0.2-4.5,0.2-7.1c-0.8-0.1-1.6-0.2-2.4-0.3c-0.4,3.2-0.7,6.4-1.1,9.6
						c0.8,0,1.6,0,2.4,0c-0.1-2.2,0-4.1,0.4-6.3c-0.8-0.1-1.6-0.2-2.4-0.3c-0.1,2-0.4,3.9-0.8,5.9
						C113.8,563.7,116.1,564.3,116.4,562.8L116.4,562.8z"/>
				</g>
			</g>
			<g>
				<g>
					<path class="st0" d="M139.3,568.5c-1,1-2.1,1.9-3.2,2.7c-1.2,0.8-2.6,1.2-4,1.4c-2.9,0.6-5.6,0.1-8.4-0.6
						c-1.4-0.4-2,1.4-0.9,2.2c1.5,1.1,1.4,1,3.2,1.2c0-0.8,0-1.6,0-2.4c-2.9-0.3-17.6-2.4-15.9-6.5c-0.8-0.2-1.5-0.4-2.3-0.6
						c-0.2,0.9-0.3,1.9-0.5,2.8c0.8,0,1.5,0,2.3,0c-0.1-0.7-0.3-1.5-0.4-2.2c-0.2-1.2-2.1-1.1-2.3,0c-0.2,0.9-0.4,1.8-0.6,2.7
						c0.8,0.1,1.6,0.2,2.4,0.3c0-0.9-0.1-1.7-0.1-2.6c-0.1-1.1-1.7-1.8-2.2-0.6c-0.5,1.1-0.6,1.2-0.8,2.4c-0.3,1.5,2,2.1,2.3,0.6
						c0.1-0.5,0.2-1.1,0.4-1.6c-0.8-0.2-1.5-0.4-2.3-0.6c-0.2,1.4-1.5,4.6-0.5,6.1c1,1.6,2.8,1,4.4,1.5c0.7,0.3,1.6-0.4,1.5-1.2
						c-0.1-1.2-0.1-2.3-0.2-3.5c0-0.9-1.3-1.7-2-0.8c-0.8,0.9-0.9,1.1-1.3,2.3c0.8,0,1.5,0,2.3,0c-0.1-0.5-0.2-1-0.3-1.4
						c-0.2-1.3-2-1-2.3,0c-0.2,0.5-0.4,1-0.5,1.5c0.8,0.2,1.5,0.4,2.3,0.6c0.8-2.9,1.9-5.6,3.3-8.2c-0.7-0.3-1.5-0.6-2.2-0.9
						c-0.4,1.8-0.7,3.5-1,5.3c-0.1,0.5,0.4,1.1,0.9,1.2c6.4,0.9,8.1,1.6,7.9-5.5c0-0.8-0.7-1.4-1.5-1.2c-1.5,0.4-2.8,0.1-4.2,0.1
						c-0.6,0-1,0.4-1.2,0.9c-1.7,4.5,0.5,5.3,4.1,5.1c0.8,0,1.4-0.7,1.2-1.5c-0.6-2.1-2.8-2.6-4.3-1.2c-0.4,0.3-0.5,1-0.2,1.5
						c1.9,2.7,5.7-0.4,3-2.5c-0.3-0.2-0.9-0.2-1.2,0c-2.3,1.7-0.8,5.9,2.1,5.8c3.8-0.1,3.5-5.9-0.4-5.5c-3.5,0.4-2.9,6.3,0.2,6.7
						c3.7,0.5,3.8-5.5,1.1-6.8c-0.5-0.3-1-0.2-1.5,0.2c-2.3,1.9-0.2,6.4,2.8,5.3c3.5-1.3,1.4-5.8-1.2-6.7c-0.4-0.2-0.9,0-1.2,0.3
						c-4.3,3.8,3.9,9.9,4.3,2.8c0.1-1.8-0.8-5.3-3.5-4.6c-2.2,0.6-1.8,3.5-0.5,4.7c0.4,0.4,1,0.4,1.5,0.2c2-0.9,1.5-3.9,1.5-5.7
						c-0.5,0.4-1,0.8-1.5,1.2c2.9,0.6,0.5,7.5,0,8.1c-0.9,1.2,0.6,2.8,1.7,1.7c2.7-2.7,3.2-6,1.6-9.4c-0.5,0.6-0.9,1.2-1.4,1.8
						c2.8,0.4,5.5,0.8,8.3,1.2c2,0.3,7.5,0.2,9.2,1.4c1.3,0.9,1.4-1-0.1,1c-1.1,1.4-3.5,1.8-5.2,2.2c-3.4,0.8-6.9,0.5-10.4,0.4
						c0.4,0.5,0.8,1,1.2,1.5c0.3-0.9,0.5-4.6,0.9-5.2c0.6-0.9,4.8,0.4,5.8,0.6c2.9,0.7,5.2,1.5,8.2,1c-0.3-0.7-0.6-1.5-0.9-2.2
						c-2.1,1.5-7.9,4.5-10.5,3c-1.1-0.6,4.5-0.4,2.6-0.4c1.6,0,3.3,0.2,4.9,0.2c-0.1-0.8-0.2-1.6-0.3-2.4c-2.8,1.2-5.8,0.6-8.7,1.3
						c-1.3,0.3-1,2.5,0.3,2.4c1-0.1,2.1-0.3,3.1-0.4c1.5-0.2,1.6-2.3,0-2.4c-2-0.1-4.1-0.1-6.1,0c-1.5,0-1.5,2.4,0,2.4
						c2,0,4.1,0,6.1,0c0-0.8,0-1.6,0-2.4c-1,0.1-2.1,0.3-3.1,0.4c0.1,0.8,0.2,1.6,0.3,2.4c3-0.7,5.9-0.1,8.7-1.3
						c1.2-0.5,1.1-2.3-0.3-2.4c-2.6,0-7.6-1.7-9.9-0.4c-1.2,0.7-1.8,3-1,4.2c1,1.6,3.2,1.2,4.9,1.1c3.8-0.2,7.2-1.1,10.2-3.3
						c1.1-0.8,0.4-2.4-0.9-2.2c-4.3,0.8-10-3.4-14.2-1.7c-2.5,1-1.6,4.8-2.4,6.9c-0.3,0.8,0.4,1.5,1.2,1.5c4.6,0.2,9.5,0.4,13.9-1.4
						c1.7-0.7,5-2.1,5.3-4.1c0.3-2-1.3-2.4-3-2.7c-5.8-1.2-11.7-1.8-17.5-2.6c-1.1-0.2-1.8,0.8-1.4,1.8c1.2,2.5,0.8,4.7-1.2,6.5
						c0.6,0.6,1.1,1.1,1.7,1.7c2.3-2.9,3.9-11.1-1.1-12.1c-0.8-0.2-1.5,0.3-1.5,1.2c-0.2,1.7,0.1,3.3,1.1,4.8
						c-1.1-1-2.4-0.5-3.6,1.4c0.4-0.5,0.8-1,1.2-1.5c-0.8,0-2.5,0.4-1.2-1c-0.3,0.3,3.2-0.4,3.1-0.4c-0.5-0.4-1-0.8-1.5-1.2
						c0,1.6,0.6,3.1-1.5,3.6c-2.6,0.6-1.9-2.5-1.6-4c0.3-1.3-1.5-2.2-2.2-0.9c-1.6,2.8-2.7,5.7-3.6,8.8c-0.4,1.5,1.8,2.1,2.3,0.6
						c0.2-0.5,0.4-1,0.5-1.5c-0.8,0-1.5,0-2.3,0c0.1,0.5,0.2,1,0.3,1.4c0.2,1.2,2,1,2.3,0c0.2-0.4,0.4-0.8,0.6-1.2
						c-0.7-0.3-1.4-0.6-2-0.8c0.1,1.2,0.1,2.3,0.2,3.5c0.5-0.4,1-0.8,1.5-1.2c0.4,0.1-2.8-0.9-2.3-0.4c-0.8-0.8,0-3.4,0.2-4.3
						c0.2-1.5-2-2.2-2.3-0.6c-0.1,0.5-0.2,1.1-0.4,1.6c0.8,0.2,1.5,0.4,2.3,0.6c0.2-0.6,0.4-1.2,0.6-1.9c-0.7-0.2-1.5-0.4-2.2-0.6
						c0,0.9,0.1,1.7,0.1,2.6c0.1,1.3,2,1.7,2.4,0.3c0.2-0.9,0.4-1.8,0.6-2.7c-0.8,0-1.5,0-2.3,0c0.1,0.7,0.3,1.5,0.4,2.2
						c0.2,1.1,2.1,1.2,2.3,0c0.2-0.9,0.3-1.9,0.5-2.8c0.3-1.5-1.7-2.1-2.3-0.6c-3.2,7.6,13.7,9,18.2,9.5c1.5,0.2,1.5-2.2,0-2.4
						c-0.7-0.3-1.3-0.6-2-0.9c-0.3,0.7-0.6,1.5-0.9,2.2c5.3,1.4,11.1,1.6,15.6-1.9c1.6-1.3,4.6-4.2,1.9-5.9
						C139.2,565.6,138,567.7,139.3,568.5L139.3,568.5z"/>
				</g>
			</g>
			<g>
				<g>
					<path class="st0" d="M121.8,568.6c0.8-0.5,1.4-1,2.1-1.8c0.7-0.8,0.1-2.5-1.2-2c-1.9,0.8-3.3,2.2-3.8,4.2
						c-0.5,2.3,0.8,3.8,2.8,4.9c0.1-0.7,0.2-1.5,0.3-2.2c-1.1,0.4-4.7-1.9-5.9-2.4c-1.7-0.8-3.5-1.3-5.3-1.5c-1.5-0.2-1.5,2.2,0,2.4
						c2.6,0.3,4.9,1.5,7.3,2.6c1.3,0.6,3.1,1.8,4.6,1.2c0.9-0.3,1.3-1.7,0.3-2.2c-2.4-1.3-1.7-3.8,0.4-4.7c-0.4-0.7-0.8-1.3-1.2-2
						c-0.4,0.6-0.9,1.1-1.6,1.4C119.3,567.4,120.5,569.4,121.8,568.6L121.8,568.6z"/>
				</g>
			</g>
			<g>
				<g>
					<path class="st0" d="M138.6,569c4.2-1.1,1.3-4.6-1.2-5.7c-5.6-2.5-11.9-1.9-17.9-1.1c-1.1,0.1-1.8,1.6-0.6,2.2
						c1.8,1,4.4,0.7,6.4,0.9c3.5,0.2,7,0.5,10.5,0.7c1.5,0.1,1.5-2.3,0-2.4c-2.5-0.2-5-0.3-7.5-0.5c-2.2-0.2-6.2,0.3-8.1-0.8
						c-0.2,0.7-0.4,1.5-0.6,2.2c2.8-0.3,5.6-0.7,8.4-0.7c1.8,0,3.5,0.1,5.3,0.5c0.5,0.1,0.9,0.2,1.4,0.4c1.4,0.2,2.6,0.9,3.5,1.9
						C136.5,567.1,137.1,569.4,138.6,569L138.6,569z"/>
				</g>
			</g>
			<g>
				<g>
					<path class="st1" d="M115.5,538.2c1,0.1,2.1,0.1,3.1-0.1c1.5-0.2,1.6-2.5,0-2.4c-1.6,0.1-3.2,0.2-4.9,0.3
						c-1.5,0.1-1.5,2.5,0,2.4c1.6-0.1,3.2-0.2,4.9-0.3c0-0.8,0-1.6,0-2.4c-1,0.1-2.1,0.1-3.1,0.1C114,535.7,114,538.1,115.5,538.2
						L115.5,538.2z"/>
				</g>
			</g>
			<g>
				<g>
					<path class="st2" d="M116.6,538.4c1.3,0.2,2.3,0.2,3.6-0.1c-0.2-0.8-0.4-1.5-0.6-2.3c-0.4,0.2-0.9,0.3-1.4,0.4
						c-1.4,0.2-1,2.3,0.3,2.4c1.9,0.1,3.5-2.3,1.5-3.5c-1.2-0.7-3.4-0.1-4.7,0.1c-3,0.4-5.7,0.4-8.6-0.5c-0.7-0.2-1.6,0.4-1.5,1.2
						c0,0.9,0.2,1.7,0.4,2.6c0.2,0.6,0.8,1.1,1.5,0.8c1.4-0.5,2.6-0.2,4-0.1c1.3,0.1,2.5-0.4,3.7-0.3c-0.2-0.7-0.4-1.5-0.6-2.2
						c-0.5,0.1-1,0.2-1.5,0.3c-1.5-0.4-2.1,1.9-0.6,2.3c1.3,0.3,2.2,0.2,3.3-0.5c1-0.6,0.6-2.2-0.6-2.2c-1.5,0-3,0.4-4.5,0.2
						c-1.4-0.1-2.5-0.2-3.8,0.3c0.5,0.3,1,0.6,1.5,0.8c-0.3-0.6-0.4-1.3-0.4-1.9c-0.5,0.4-1,0.8-1.5,1.2c2.1,0.6,4.2,1,6.4,0.9
						c0.9,0,1.7-0.1,2.6-0.3c0.8-0.1,1.6-0.3,2.3-0.4c0.9,0.2,1.3-0.1,1.1-1.2c0.1,0.8,0.2,1.6,0.3,2.4c0.5,0,1-0.2,1.4-0.4
						c1.4-0.5,0.9-2.6-0.6-2.3c-0.8,0-1.5,0.1-2.3,0.1C115.7,535.8,115.1,538.1,116.6,538.4L116.6,538.4z"/>
				</g>
			</g>
			<g>
				<g>
					<path class="st2" d="M118.9,538.2C119,538.2,119,538.2,118.9,538.2c0-0.1-0.1-0.3-0.2-0.4c0,0,0,0.1,0,0.1c0-0.2,0-0.4,0-0.6
						c0,0,0,0,0-0.1c0.1-0.1,0.3-0.3,0.4-0.4c0.2,0,0.2-0.1,0.1-0.1c-0.1,0-0.3-0.1-0.4-0.1c-0.2-0.1-0.4-0.1-0.6-0.2
						c-0.5-0.1-0.9-0.2-1.4-0.3c-1.5-0.4-2.1,1.9-0.6,2.3c0.6,0.1,1.2,0.3,1.8,0.4c0.6,0.1,1.2,0.4,1.8,0.3c1.3-0.3,1.6-1.6,0.8-2.6
						c-0.4-0.5-1.3-0.4-1.7,0C118.4,537,118.5,537.7,118.9,538.2L118.9,538.2z"/>
				</g>
			</g>
			<g>
				<g>
					<path class="st0" d="M109.5,565.5c0-0.2,0.1-0.4,0.1-0.6c0.1-0.6-0.5-1.1-1-1.2c-0.6-0.1-1.1,0.3-1.3,0.9
						c-0.1,0.4-0.3,0.8-0.4,1.2c-0.4,1.3,1.6,2.1,2.2,0.9c0.3-0.6,0.5-1.3,0.6-2c0.1-1.2-1.8-1.7-2.2-0.6c-0.2,0.4-0.4,0.9-0.4,1.3
						c-0.1,0.6,0.1,1.2,0.7,1.4c0.5,0.2,1.3,0.1,1.5-0.5c0.2-0.4,0.3-0.8,0.3-1.2c-0.1-0.6-0.5-1.2-1.2-1.2c-0.6,0-1.3,0.6-1.2,1.2
						c0,0.2,0,0.2,0.1,0c0.7,0.3,1.5,0.6,2.2,0.9c0-0.3,0.1-0.5,0.2-0.8c-0.7-0.2-1.5-0.4-2.2-0.6c0,0.3-0.1,0.6-0.3,0.8
						c0.7,0.3,1.5,0.6,2.2,0.9c0.1-0.4,0.3-0.8,0.4-1.2c-0.8-0.1-1.6-0.2-2.4-0.3c0,0.2-0.1,0.4-0.1,0.6c-0.1,0.6,0.6,1.2,1.2,1.2
						C109,566.7,109.4,566.1,109.5,565.5L109.5,565.5z"/>
				</g>
			</g>
			<g>
				<g>
					<path class="st0" d="M105.5,541.7c0.1,1.4,0.3,2.8,0.4,4.3c0.8-0.1,1.6-0.2,2.4-0.3c-0.5-1.4-0.9-2.9-1.1-4.4
						c-0.2-1.5-2.6-1.5-2.4,0c0.2,1.7,0.6,3.4,1.2,5.1c0.4,1.2,2.5,1.1,2.4-0.3c-0.1-1.4-0.3-2.8-0.4-4.3
						C107.8,540.2,105.4,540.2,105.5,541.7L105.5,541.7z"/>
				</g>
			</g>
		</g>
		<g>
			<g>
				<g>
					<path d="M139.4,571.6c-7.3,5.9-20.3,2-28.2-0.1c-0.7-0.2-1.1,1-0.3,1.2c8.5,2.2,21.7,6,29.4-0.2
						C140.8,572,140,571.1,139.4,571.6L139.4,571.6z"/>
				</g>
			</g>
			<g>
				<g>
					<path d="M110.5,572.3c0,0.5-0.1,0.9-0.1,1.4c0,0.6-0.1,0.7-0.7,0.6c-0.9-0.1-1.7-0.2-2.6-0.3c-0.8-0.1-0.8,1.1,0,1.2
						c0.7,0.1,1.3,0.2,2,0.2c0.5,0.1,1.2,0.2,1.7,0c1.1-0.4,0.8-2.2,0.9-3.1C111.7,571.6,110.5,571.6,110.5,572.3L110.5,572.3z"/>
				</g>
			</g>
			<g>
				<g>
					<path d="M139.8,572.7c3.4-2.7,2.5-7.2-0.7-9.6c-5.1-3.8-14.1-2.3-20-2c-0.8,0-0.8,1.2,0,1.2c3.4-0.2,6.8-0.3,10.1-0.3
						c2.3,0,4.6,0,6.8,0.9c3.5,1.4,6.9,5.7,2.9,8.9C138.4,572.3,139.2,573.2,139.8,572.7L139.8,572.7z"/>
				</g>
			</g>
			<g>
				<g>
					<path d="M120.3,561.5c0.8-8.8,1.3-17.6,1.5-26.4c0-0.8-1.2-0.8-1.2,0c-0.1,8.8-0.6,17.6-1.5,26.4
						C119.1,562.2,120.3,562.2,120.3,561.5L120.3,561.5z"/>
				</g>
			</g>
			<g>
				<g>
					<path d="M106.6,574.8c0,0,0.1,0,0.1,0c0.8,0,0.8-1.2,0-1.2c0,0-0.1,0-0.1,0C105.9,573.6,105.9,574.8,106.6,574.8L106.6,574.8z"
						/>
				</g>
			</g>
			<g>
				<g>
					<path d="M107.3,574.1c-2.7-0.9-1.4-4-1.3-6.5c0.2-3.5,0.3-7,0.3-10.5c0-7.4-0.5-14.7-0.9-22c0-0.8-1.2-0.8-1.2,0
						c0.6,9.2,1.1,18.5,0.9,27.8c-0.1,2.2-0.2,4.5-0.3,6.7c-0.1,1.1-0.8,3.7-0.3,4.6c0.6,1,1.5,0.8,2.5,1.1
						C107.7,575.5,108,574.4,107.3,574.1L107.3,574.1z"/>
				</g>
			</g>
			<g>
				<g>
					<path d="M121.1,534.9c-2.6-0.6-5.1-0.5-7.7-0.3c-3,0.2-5.9-0.6-8.9-0.4c-0.8,0-0.8,1.2,0,1.2c2.6-0.1,5.1,0.6,7.7,0.5
						c2.9-0.1,5.7-0.5,8.6,0.2C121.6,536.2,121.9,535.1,121.1,534.9L121.1,534.9z"/>
				</g>
			</g>
			<g>
				<g>
					<path d="M120.2,538.2c-0.2,0.5-0.9,0.6-1.2,0.3c-0.6-0.4-1.2,0.6-0.6,1c1.1,0.8,2.5,0.2,3-1
						C121.6,537.8,120.5,537.5,120.2,538.2L120.2,538.2z"/>
				</g>
			</g>
			<g>
				<g>
					<path d="M118,538.2c-0.5,0.4-1.2,0.5-1.8,0.1c-0.7-0.4-1.3,0.6-0.6,1c0.9,0.5,2.1,0.5,3-0.1C119.2,538.8,118.6,537.7,118,538.2
						L118,538.2z"/>
				</g>
			</g>
			<g>
				<g>
					<path d="M114.8,538.8c-0.4,0.5-1.2,0.7-1.8,0.3c-0.6-0.5-1.4,0.4-0.8,0.8c1,0.8,2.6,0.8,3.5-0.3
						C116.2,539,115.3,538.2,114.8,538.8L114.8,538.8z"/>
				</g>
			</g>
			<g>
				<g>
					<path d="M112,539c-0.7,0.1-1.4-0.1-2-0.5c-0.6-0.4-1.2,0.6-0.6,1c0.9,0.6,1.9,0.8,3,0.6C113.1,540.1,112.8,538.9,112,539
						L112,539z"/>
				</g>
			</g>
			<g>
				<g>
					<path d="M109,538.5c-0.6,0.4-1.3,0.5-2.1,0.4c-0.8-0.2-1.1,1-0.3,1.2c1,0.2,2.1,0.1,3-0.5C110.3,539.1,109.7,538.1,109,538.5
						L109,538.5z"/>
				</g>
			</g>
			<g>
				<g>
					<path d="M106.4,539c-0.1,0-0.2,0-0.2-0.1c-0.6-0.5-1.4,0.3-0.8,0.8c0.3,0.3,0.6,0.4,1,0.4C107.2,540.2,107.2,539,106.4,539
						L106.4,539z"/>
				</g>
			</g>
			<g>
				<g>
					<path d="M118.6,547.3c0.8,0,0.8-1.2,0-1.2C117.9,546.1,117.9,547.3,118.6,547.3L118.6,547.3z"/>
				</g>
			</g>
			<g>
				<g>
					<path d="M118.2,549.7c-0.1,0.1-0.2,0.2-0.3,0.2c-0.5,0.5,0.3,1.4,0.8,0.8c0.1-0.1,0.2-0.2,0.3-0.2
						C119.6,550,118.8,549.1,118.2,549.7L118.2,549.7z"/>
				</g>
			</g>
			<g>
				<g>
					<path d="M118.8,554.4c-0.5-0.6-1.3-0.1-1.4,0.5c-0.1,0.8,1.1,0.8,1.2,0c0,0,0-0.1,0-0.1c-0.1,0.1-0.1,0.3-0.2,0.4
						c-0.2,0-0.3,0-0.5,0C118.5,555.8,119.3,555,118.8,554.4L118.8,554.4z"/>
				</g>
			</g>
			<g>
				<g>
					<path d="M129.5,562.3c0,0.8-0.3,1.4-0.9,1.9c-0.6,0.5,0.3,1.3,0.8,0.8c0.8-0.7,1.3-1.7,1.3-2.8
						C130.7,561.6,129.5,561.6,129.5,562.3L129.5,562.3z"/>
				</g>
			</g>
			<g>
				<g>
					<path d="M126.2,562.1c-0.1,0.8-0.6,1.5-1.2,2c-0.6,0.4,0,1.5,0.6,1c1.1-0.7,1.7-1.8,1.8-3C127.5,561.3,126.3,561.3,126.2,562.1
						L126.2,562.1z"/>
				</g>
			</g>
			<g>
				<g>
					<path d="M122.6,562.2c0.1,0.8-0.3,1.5-1,1.8c-0.7,0.4-0.1,1.4,0.6,1c1-0.6,1.7-1.7,1.6-2.9
						C123.7,561.4,122.5,561.4,122.6,562.2L122.6,562.2z"/>
				</g>
			</g>
		</g>
	</g>
</g>
</svg>
