<svg id="Layer_1" data-name="Layer 1" xmlns="http://www.w3.org/2000/svg" viewBox="0 0 76.61 74.49"><defs><style>.cls-1{fill:#ffe329;}.cls-2{fill:#f9ee53;}.cls-3{fill:#010101;}</style></defs><title>Blond</title><path class="cls-1" d="M98.2,30.4c-.1-.1-.2-.3-.3-.4-.7,2.7-1.4,5.5-2.2,8.2a4.88,4.88,0,0,1,.7-.3H90.3c.2.1.4.3.6.4-.9-2.3-1.8-4.5-2.8-6.8-.1.2-.1.5-.2.7L92.1,28a1.85,1.85,0,0,1-.7.2c2.5,1.4,4.9,2.8,7.4,4.2-.1-.2-.1-.3-.2-.5-.2,1.5-.4,3.1-.6,4.6.1-.2.2-.3.3-.5-1.2.9-2.4,1.8-3.6,2.8l-3.3-.6c-.5-1.9-1-3.9-1.5-5.8,0,.3-.1.6-.1.9.9-1.2,1.8-2.4,2.8-3.6-.3.1-.5.3-.8.4h6.1a2.09,2.09,0,0,1-.6-.4c.9,1.2,1.8,2.4,2.8,3.6,0,.6.1,1.1.1,1.7-.9,1.2-1.8,2.4-2.8,3.6-1.4-.5-2.7-1-4.1-1.4-.2-1.5-.4-3.1-.6-4.6-.1.2-.1.5-.2.7l4.2-4.2c-.3.1-.5.1-.8.2l5.8,1.5a3,3,0,0,0-.7-.5l1.8,4.2c-2.1,1.1-4.1,2.2-6.2,3.3l-1.8-4.2c.1-.6.3-1.2.4-1.8,1.2-.9,2.4-1.8,3.6-2.8-.2,0-.4.1-.6.1l5.8,1.5-.5-.5,1.8,4.2v-.7l-1.8,4.2-2.8.3c-1.2-.9-2.4-1.8-3.6-2.8l.6.9c-.2-1.5-.4-3.1-.6-4.6-.1.3-.2.7-.3,1l4.2-4.2c-.2,0-.4.1-.6.1l5.8,1.5a1.38,1.38,0,0,1-.3-.4l1.8,4.2v-.5l-1.8,4.2c-.9.3-1.8.6-2.7,1L99,34.3V32.6l4.2-4.2c-.2.1-.5.2-.7.3l5.8,1.5c-.2-.2-.4-.5-.6-.7.5,1.9,1,3.9,1.5,5.8a4.18,4.18,0,0,1,.4-1l-4.2,4.2a27.59,27.59,0,0,0-2.7-.8l-1.8-4.2v.7l1.8-4.2c-.2.1-.3.3-.5.4l9.4,1.2c-.1-.2-.3-.5-.4-.7.2,1.5.4,3.1.6,4.6a6.89,6.89,0,0,1,.3-.8c-.9,1.2-1.8,2.4-2.8,3.6-1.4-.3-2.8-.6-4.2-.8-.5-1.9-1-3.9-1.5-5.8a4.33,4.33,0,0,1-.1.5c.9-1.2,1.8-2.4,2.8-3.6-.2.1-.3.2-.5.3h6.1c-.1-.1-.3-.1-.4-.2,1,1.7,2,3.5,3,5.2v-.6l-1.8,4.2c.3-.2.5-.4.8-.6l-4.2,1.8c.3,0,.6.1,1,.1-1.7-1-3.5-2-5.2-3a5.58,5.58,0,0,0,.5.8c-.2-1.5-.4-3.1-.6-4.6a2.92,2.92,0,0,0-.2.9c3.9,1.1,7.7,2.1,11.6,3.2.1-.3.1-.6.2-.9-.9,1.2-1.8,2.4-2.8,3.6a3,3,0,0,1,.7-.5l-4.6.6c.3.1.6.1.9.2-1.2-.9-2.4-1.8-3.6-2.8.2.3.3.5.5.8,2.3-2.9,4.5-5.9,6.8-8.8a28.53,28.53,0,0,0-9.2-.9c-1.6.1-3.2.1-4.8.2-.8,0-1.6.1-2.4.1q-3.45-.45,0,2.1c-.2,1.5-.4,3.1-.6,4.6-2.1,1.3-2.1,1.8.1,1.2,1.1-.1,2.2-.1,3.3-.1a28,28,0,0,1,5,.3c3.9.7,7,3,10.7,4.3.5-3.9,1.1-7.9,1.6-11.8-4.7.4-9.4.7-14.1,1-2.6.2-5.2.3-7.7.4-1.3.1-2.6.1-3.9.1-2.3-.2-2.6-.1-.9.5l1.8,4.2a3.75,3.75,0,0,1,.1-1.1l-1.8,4.2c.7-.5,1.5-1,2.3-1.5,6.6-4.3.9-13.5-6.1-10.4a69.13,69.13,0,0,0-9.2,5.1c-6.4,4.3-.4,14.7,6.1,10.4A58.55,58.55,0,0,1,94,36.1c-2-3.5-4-6.9-6.1-10.4-3.3,2.2-6.8,4.2-6.5,8.8.3,4.3,3.9,6.8,7.9,7.3,9.3,1,19.6-.9,28.9-1.6a6,6,0,0,0,1.6-11.8c-3.1-1.1-5.8-3.1-9.1-4a36.75,36.75,0,0,0-8.1-1.1c-4.9-.2-12.5-.6-15.3,4.3-2.9,5.3,1.2,10.9,6.7,11.7,5.7.9,11.7-1.4,17.3.2,4.8,1.4,9.8-4.4,6.8-8.8-3.5-5.1-12-5.2-13.3,1.9-1.3,7.5,9.7,10.8,11.6,3.2,2.5-10.6-13.3-12.9-13.8-2.3a5.88,5.88,0,0,0,3,5.2c7.4,3.2,14.1-6.1,7.1-11.2-6.5-4.6-15.3,2.6-11.2,9.8a6,6,0,0,0,9.4,1.2c5-4.5.9-11.8-5.1-12.3-7.4-.6-9.9,7.1-5.8,12.2a5.67,5.67,0,0,0,5.8,1.5c6.6-2.5,7.3-12.2-.5-13.7-6.9-1.4-12.8,6.3-7.6,11.9a6,6,0,0,0,5.8,1.5c9.4-2.3,4.6-16.3-4.5-13.6-9.5,2.9-5.6,17.5,3.6,13.6,8.7-3.7,2.1-15.7-6.2-13.5-9.2,2.4-6.2,16.3,3.3,13.9a5.94,5.94,0,0,0,4.2-4.2c1.7-6.2-4.3-11-10.3-9.4a7.3,7.3,0,0,0-2,13.4,6,6,0,0,0,6.1,0,7.21,7.21,0,0,0-1.1-13.1c-5-1.9-11.7,2.4-9.4,8.2,1.2,2.9,4,5.3,7.4,4.2,2.6-.9,4.4-2.3,5.1-5.2a6.19,6.19,0,0,0-2.8-6.8c-2.5-1.6-4.8-1.4-7.4-.1s-3.9,5.7-2.2,8.2c.1.1.2.3.3.4,4.7,7.1,15.1,1.2,10.6-5.2Z" transform="translate(-62.32 -23.16)"/><path class="cls-1" d="M79.7,87.8c-.4-.3-.9-.5-1.3-.8-.6-.3-1.2.5-.7.9l.8.8c.2-.3.5-.6.7-.9a6.93,6.93,0,0,1-2.5-2l-.8.8c.3.3.7.6,1,.9.6.5,1.4-.3.8-.8a4.49,4.49,0,0,0-1.3-1.1.58.58,0,0,0-.6,1c.4.3.8.7,1.2,1l.8-.8-.7-.7c-.2.3-.5.6-.7.9a1.76,1.76,0,0,1,.5.4c.5.4,1.1-.3.8-.8a4.44,4.44,0,0,0-.8-1.1l-.8.8c.2.2.4.3.5.5.6.5,1.4-.3.8-.8a4.35,4.35,0,0,0-.7-.6c-.1.3-.3.7-.4,1-.2-.1-.3-.3-.5-.4.3-.2.5-.4.8-.6-1.9-.6-4.3-4.5-5.3-5.9-.3.2-.6.5-.9.7a45.86,45.86,0,0,0,3.7,3.9c.6.5,1.4-.3.8-.8A28.78,28.78,0,0,1,72.1,80c-.3.2-.6.5-.9.7.9,1,1.8,2,2.7,3.1.5.6,1.3-.3.8-.8-.5-.7-1.1-1.3-1.6-2l-.8.8a31.46,31.46,0,0,0,3.6,3.7c.2-.3.5-.6.7-.9a8.11,8.11,0,0,1-4-4.7c-.4.2-.7.3-1.1.5.6.8,1.1,1.5,1.7,2.3a.58.58,0,0,0,1-.6c-.5-.8-1-1.6-1.5-2.5-.3.2-.7.4-1,.6.4.6.9,1.3,1.3,1.9s1.5,0,1-.6l-1.2-1.8c-.4-.5-1.4-.2-1.1.5,1.3,3.5,4.9,5.6,5.9,9.2.3-.2.6-.5.9-.7-.3-.2-.6-.5-.9-.7-.4-.5-1.3.2-.9.7.6.9,1.1,1.7,1.6,2.6.3-.2.6-.5.9-.7-.2-.2-.5-.4-.7-.6-.6-.5-1.4.3-.8.8.2.3.5.5.7.8.4.5,1.4-.2.9-.7a17.1,17.1,0,0,0-1.1-1.4c-.3.2-.6.5-.9.7A13.39,13.39,0,0,1,80,93.3a.58.58,0,0,0,1-.6,4.67,4.67,0,0,1-.5-1l-.8.8a4.05,4.05,0,0,0,.9.5c.6.4,1.3-.5.7-.9l-1.6-1.3c-.2.3-.5.6-.7.9.5.4,1.1.8,1.6,1.2a.57.57,0,0,0,.7-.9c-.8-.8-1.7-1.5-2.5-2.3-.2.3-.5.6-.7.9,1,.7,2,1.4,3.1,2.1.2-.3.4-.7.6-1A16.38,16.38,0,0,1,78.6,89c-.2.3-.5.6-.7.9a10.43,10.43,0,0,1,3.2,1.9c.2-.3.5-.6.7-.9a31.89,31.89,0,0,1-3.2-2.3c-.2.3-.5.6-.7.9a27.06,27.06,0,0,1,3.7,2.1c.2-.3.4-.7.6-1a16.1,16.1,0,0,1-3-2.1c-.2.3-.5.6-.7.9l3.9,1.8c.2-.4.3-.7.5-1.1a6.82,6.82,0,0,1-2.6-1.2c-.2.4-.3.7-.5,1.1a8.67,8.67,0,0,1,2.7,1.4c.2-.4.3-.7.5-1.1a9,9,0,0,1-2.4-1.2c-.2.3-.4.7-.6,1,1.6.8,3.1,1.7,4.6,2.6.1-.4.2-.7.3-1.1a5.83,5.83,0,0,1-2.6-.6c-.6-.3-1.1.8-.5,1.1a8.78,8.78,0,0,1,2.1,1.2c.2-.4.3-.7.5-1.1a5.37,5.37,0,0,1-2.1-.5c-.5-.2-1.1.6-.6,1,.3.2.5.4.8.6.2-.3.4-.7.6-1-.4-.2-.8-.3-1.3-.5-.2.3-.4.7-.6,1A17.39,17.39,0,0,0,83,93.9c.2-.3.5-.6.7-.9a5,5,0,0,0-2-.8c-.1.4-.1.8-.2,1.2,1,.3,2,.7,3.1,1,.2-.4.3-.7.5-1.1a13.36,13.36,0,0,1-1.8-.7c-.2.4-.3.7-.5,1.1a8.3,8.3,0,0,1,2.1.6l.3-1.2c-.4-.1-.8-.3-1.2-.4l-.3,1.2c1.8.6,3.6,1.3,5.5,1.9.5.2.8-.3.7-.7-.8-3.3-4.2-2.9-6.7-4.5-.2.3-.4.7-.6,1a44.49,44.49,0,0,0,4.8,2.6c.2-.4.3-.7.5-1.1a13.68,13.68,0,0,1-4.4-1.6c-.2.4-.3.7-.5,1.1l1.1.3a.61.61,0,0,0,.5-1.1,21.84,21.84,0,0,1-4-3.5c-.2.3-.5.6-.7.9l4.4,3.2c.2-.4.3-.7.5-1.1A17.6,17.6,0,0,1,79,88.8a.57.57,0,0,0-.7.9,14.34,14.34,0,0,0,2.3,2c.2-.3.4-.7.6-1a16.37,16.37,0,0,1-2.6-1.6.57.57,0,0,0-.7.9c.2.3.4.5.6.8a.73.73,0,0,0,.2.6l.3.3c.2-.3.5-.6.7-.9a5.55,5.55,0,0,1-.8-.6c-.5-.6-1.4.3-.8.8a2.26,2.26,0,0,0,1.1.8c.6.3,1.3-.5.7-.9-.1-.1-1.1-1.7-1.1-1.6-.2.3-.5.6-.7.9a18.26,18.26,0,0,0,2.6,1.6.58.58,0,0,0,.6-1A18.11,18.11,0,0,1,79.2,89c-.2.3-.5.6-.7.9a16.58,16.58,0,0,0,6.1,2.6.61.61,0,0,0,.5-1.1l-4.4-3.2a.57.57,0,0,0-.7.9,23.59,23.59,0,0,0,4.2,3.6c.2-.4.3-.7.5-1.1l-1.1-.3c-.6-.2-1.1.8-.5,1.1a18.83,18.83,0,0,0,4.7,1.7c.6.1,1.1-.8.5-1.1a44.49,44.49,0,0,1-4.8-2.6.58.58,0,0,0-.6,1c1.8,1.2,5.5,1.3,6.1,3.8l.7-.7c-1.8-.6-3.6-1.3-5.5-1.9-.7-.3-1,.9-.3,1.2.4.1.8.3,1.2.4.7.3,1-.9.3-1.2a8.3,8.3,0,0,0-2.1-.6c-.6-.1-1.1.8-.5,1.1a8.36,8.36,0,0,0,2,.8c.6.2,1.1-.8.5-1.1a8.34,8.34,0,0,0-3.7-1.1c-.7-.1-.8,1-.2,1.2s1.1.5,1.7.7,1.3-.5.7-.9a4.18,4.18,0,0,0-2.1-1.3c-.7-.3-1.3.6-.6,1a2.83,2.83,0,0,0,1.6.6c.5.1,1.1-.6.6-1-.3-.2-.5-.4-.8-.6-.2.3-.4.7-.6,1a8,8,0,0,0,2.1.5c.7.1,1.1-.7.5-1.1A7.19,7.19,0,0,0,82.4,91c-.2.4-.3.7-.5,1.1a9.47,9.47,0,0,0,2.9.7.59.59,0,0,0,.3-1.1,41.72,41.72,0,0,0-4.6-2.6c-.7-.3-1.3.6-.6,1a9.6,9.6,0,0,0,2.7,1.3.61.61,0,0,0,.5-1.1,12,12,0,0,0-3-1.5c-.7-.2-1,.8-.5,1.1a12.34,12.34,0,0,0,2.9,1.3c.6.2,1.1-.8.5-1.1l-3.9-1.8c-.6-.3-1.3.5-.7.9a24.42,24.42,0,0,0,3.3,2.3.58.58,0,0,0,.6-1,27.06,27.06,0,0,0-3.7-2.1c-.6-.3-1.3.5-.7.9,1.1.9,2.2,1.7,3.4,2.5.6.3,1.3-.5.7-.9a14.84,14.84,0,0,0-3.4-2.1.57.57,0,0,0-.7.9,23.66,23.66,0,0,0,3.4,2.9.58.58,0,0,0,.6-1c-1-.7-2-1.4-3.1-2.1a.57.57,0,0,0-.7.9c.8.8,1.7,1.5,2.5,2.3.2-.3.5-.6.7-.9-.5-.4-1.1-.8-1.6-1.2s-1.3.5-.7.9l1.6,1.3c.2-.3.5-.6.7-.9a4.05,4.05,0,0,0-.9-.5.59.59,0,0,0-.8.8,4.67,4.67,0,0,1,.5,1c.3-.2.7-.4,1-.6a22.85,22.85,0,0,0-2.9-3.3c-.5-.4-1.4.2-.9.7a17.1,17.1,0,0,0,1.1,1.4c.3-.2.6-.5.9-.7-.2-.3-.5-.5-.7-.8l-.8.8c.2.2.5.4.7.6.5.4,1.3-.1.9-.7-.5-.9-1-1.7-1.6-2.6-.3.2-.6.5-.9.7.5.7.4.5,1.1.9a.62.62,0,0,0,.9-.7c-1-3.7-4.6-5.7-5.9-9.2-.4.2-.7.3-1.1.5L73.1,82c.3-.2.7-.4,1-.6-.4-.6-.9-1.3-1.3-1.9a.58.58,0,0,0-1,.6c.5.8,1,1.6,1.5,2.5.3-.2.7-.4,1-.6-.6-.8-1.1-1.5-1.7-2.3a.61.61,0,0,0-1.1.5,9.76,9.76,0,0,0,4.6,5.4c.6.3,1.2-.5.7-.9A41.73,41.73,0,0,1,73.2,81c-.5-.6-1.3.3-.8.8.5.7,1.1,1.3,1.6,2l.8-.8c-.9-1-1.8-2-2.7-3.1-.4-.5-1.3.2-.9.7a20.48,20.48,0,0,0,3,3.6l.8-.8a45.86,45.86,0,0,1-3.7-3.9c-.4-.5-1.3.2-.9.7,1.5,2.1,3.5,5.6,6,6.5a.64.64,0,0,0,.8-.6v-.2a.65.65,0,0,0-.6-.6h-.1c-.5,0-.8.7-.4,1a4.35,4.35,0,0,0,.7.6l.8-.8c-.2-.2-.4-.3-.5-.5-.6-.5-1.4.3-.8.8a5.55,5.55,0,0,0,.6.8l.8-.8a1.76,1.76,0,0,1-.5-.4.57.57,0,0,0-.7.9l.7.7c.5.5,1.4-.3.8-.8a8.06,8.06,0,0,0-1.4-1.2c-.2.3-.4.7-.6,1,.4.3.7.6,1.1.9l.8-.8c-.3-.3-.7-.6-1-.9-.6-.5-1.4.3-.8.8a11.33,11.33,0,0,0,2.7,2.2c.6.3,1.2-.5.7-.9l-.8-.8c-.2.3-.5.6-.7.9.4.3.9.5,1.3.8s1-.6.4-1Z" transform="translate(-62.32 -23.16)"/><path class="cls-1" d="M73.6,90.7c.5.5,1,.9,1.5,1.4s1.4-.3.8-.8l-.6-.6-.8.8a18,18,0,0,1,2,1.9c.2-.3.4-.7.6-1-.3-.2-.7-.4-1-.6-.2.3-.5.6-.7.9a3.45,3.45,0,0,1,1.2,1.2c.4.5,1.3-.2.9-.7-.1-.3-.3-.5-.4-.8l-.8.8a4.62,4.62,0,0,1,1.5.9c.6.5,1.4-.3.8-.8-.2-.2-.4-.3-.6-.5-.5-.4-1.4.1-.9.7a1.76,1.76,0,0,0,.4.5c.3-.2.6-.5.9-.7a15.84,15.84,0,0,1-2.9-3.9c-.3.2-.6.5-.9.7.8.9,1.6,1.9,2.4,2.8.4.5,1.3-.2.9-.7-.8-1.2-1.6-2.5-2.3-3.7-.3.2-.6.5-.9.7A22,22,0,0,1,76.1,91c.4.5,1.3-.2.9-.7-.8-1.3-1.6-2.5-2.4-3.8-.3.2-.7.4-1,.6.7,1,1.5,2.1,2.2,3.1.3-.2.7-.4,1-.6-.9-1.2-1.9-2.4-2.8-3.7-.3.2-.6.5-.9.7a19.52,19.52,0,0,1,1.7,2.3c.3-.2.7-.4,1-.6a45.3,45.3,0,0,1-3-4.6c-.3.2-.7.4-1,.6.8,1.1,1.7,2.2,2.5,3.3.5.6,1.5,0,1-.6a48.75,48.75,0,0,1-3.4-5.8c-.3.2-.7.4-1,.6a37.18,37.18,0,0,0,3.3,4.5l.8-.8a14,14,0,0,1-2.1-2.7c-.3.2-.7.4-1,.6a19.86,19.86,0,0,1,2.6,5c.3-.2.6-.5.9-.7a19.63,19.63,0,0,1-3.2-2.5.57.57,0,0,0-.9.7c1.1,2,2.3,3.9,3.4,5.9.3-.2.6-.5.9-.7l-2.3-2c-.2.3-.4.7-.6,1a5.58,5.58,0,0,1,.8.5c.2-.3.5-.6.7-.9-.2-.1-.5-.2-.7-.3-.6-.3-1.2.5-.7.9A15.37,15.37,0,0,0,74.7,92l.8-.8a23.67,23.67,0,0,1-2.8-2.7l-.8.8c.4.5.8.9,1.2,1.4.1-.3.2-.7.3-1-.1.1-.3.1-.4.2a.59.59,0,0,0-.1,1.1,10.47,10.47,0,0,1,1.1.8c.2-.3.5-.6.7-.9a7,7,0,0,1-2.1-1.4c-.2.3-.5.6-.7.9.9.7,1.8,1.3,2.7,2a.57.57,0,0,0,.7-.9,18.33,18.33,0,0,0-2.6-2.1c-.2.3-.4.7-.6,1A12.23,12.23,0,0,1,74,91.6c.2-.3.4-.7.6-1a7.23,7.23,0,0,1-3.4-3.5c-.3.2-.6.5-.9.7a5.67,5.67,0,0,1,1.2,1.8c.3-.2.6-.5.9-.7a5.72,5.72,0,0,1-1.5-1.6c-.3.2-.6.5-.9.7a2.58,2.58,0,0,1,.8,1.3c.3-.2.6-.5.9-.7a15.58,15.58,0,0,1-1.6-2,.61.61,0,0,0-1.1.5c.1.5.2.9.3,1.4.4-.2.7-.3,1.1-.5-.6-1.1-1.2-2.3-1.7-3.4a.58.58,0,1,0-1,.6c.3.5.5,1.1.8,1.6.3.7,1.4.1,1-.6s-.7-1.5-1-2.3c-.3.2-.6.5-.9.7A75.52,75.52,0,0,1,73,90.5c.4.5,1.3-.2.9-.7a29.76,29.76,0,0,0-4.4-5c-.5-.4-1.4.2-.9.7.8,1.1,1.6,2.1,2.4,3.2l.8-.8c-.4-.2-.7-.3-1.1-.5s-1.2.3-.8.8a18.63,18.63,0,0,0,2.3,2.6A.57.57,0,0,0,73,90c-.8-.9-1.6-1.9-2.4-2.8l-.8.8a16.47,16.47,0,0,0,3.8,2.7.59.59,0,0,0,.8-.8A53.61,53.61,0,0,0,71,85c-.3.2-.6.5-.9.7,1.7,1.4,3.4,2.9,5.1,4.3.6.5,1.4-.3.8-.8l-4.4-5-.8.8,5.1,4.2c.6.5,1.4-.3.8-.8A27.3,27.3,0,0,0,73.3,85c-.2.3-.5.6-.7.9q2.1,1.35,4.2,3c.2-.3.4-.7.6-1C76.2,87,75,86,73.9,85c-.2.3-.5.6-.7.9a17.36,17.36,0,0,1,4.6,3c.6.5,1.4-.3.8-.8l-3.7-3.4c-.2.3-.5.6-.7.9A21.24,21.24,0,0,1,78,88.5c.2-.3.5-.6.7-.9a13.68,13.68,0,0,1-2.2-1.9l-.8.8c.8.7,1.6,1.4,2.4,2.2.5.5,1.4-.2.9-.7a14.82,14.82,0,0,0-2.4-2.6c-.6-.5-1.4.3-.8.8.2.2,2.9,3.1,2.9,3.1-.2.2-3-1.8-3.4-2.1a.57.57,0,0,0-.7.9l3.2,3.5c.5.5,1.3-.2.9-.7a9.58,9.58,0,0,0-2.2-2.3c-.5-.4-1.3.1-.9.7,0,0,.9,1.3,1,1-.1.2-2.4-.6-2.6-.7a9,9,0,0,1-3.3-2.5.61.61,0,0,0-1,.6,5.85,5.85,0,0,0,4.4,3.8.62.62,0,1,0,.3-1.2c-3.5-1-3.7-5.1-4.4-8-.4.2-.7.3-1.1.5.5.8.9,1.6,1.3,2.4.3-.2.7-.4,1-.6a15.66,15.66,0,0,1-1.2-3c-.4.2-.7.3-1.1.5.5.9,1.1,1.8,1.6,2.6.3.6,1.4.2,1.1-.5s-.5-1.3-.7-1.9c-.4.2-.7.3-1.1.5.7,1,1.3,2,2,2.9a.58.58,0,0,0,1-.6c-.7-1.3-1.5-2.5-2.2-3.8-.3.2-.6.5-.9.7l2.8,3.4c.4.5,1.3-.2.9-.7-.7-1.1-1.3-2.2-2-3.4-.3.2-.6.5-.9.7,1,1.3,2.1,2.6,3.1,4,.5.6,1.3-.2.8-.8-1-1.3-2.1-2.6-3.1-4-.4-.5-1.3.2-.9.7.7,1.1,1.3,2.2,2,3.4.3-.2.6-.5.9-.7l-2.8-3.4c-.4-.5-1.3.2-.9.7.7,1.3,1.5,2.5,2.2,3.8.3-.2.7-.4,1-.6-.7-1-1.3-2-2-2.9-.4-.5-1.4-.2-1.1.5s.5,1.3.7,1.9c.4-.2.7-.3,1.1-.5-.5-.9-1.1-1.8-1.6-2.6-.3-.6-1.3-.2-1.1.5a11.32,11.32,0,0,0,1.3,3.2.58.58,0,1,0,1-.6c-.4-.8-.8-1.6-1.3-2.4a.61.61,0,0,0-1.1.5c.9,3.5,1.3,7.7,5.3,8.9l.3-1.2a4.77,4.77,0,0,1-3.6-3c-.3.2-.7.4-1,.6,1.3,1.4,5.6,4.9,7.6,3.2.2-.1.2-.4.2-.6a11.08,11.08,0,0,0-.9-1.9c-.3.2-.6.5-.9.7a10,10,0,0,1,2,2.1c.3-.2.6-.5.9-.7l-3.2-3.5c-.2.3-.5.6-.7.9,1.3.8,3.9,3.3,5.5,2.1.2-.1.2-.4.2-.6-.6-1.7-2.4-3.2-3.7-4.4l-.8.8a12,12,0,0,1,2.2,2.3c.3-.2.6-.5.9-.7-.8-.8-1.6-1.5-2.4-2.2-.6-.5-1.4.3-.8.8a12.06,12.06,0,0,0,2.4,2.1.57.57,0,0,0,.7-.9,28.66,28.66,0,0,0-4-3.1.57.57,0,0,0-.7.9l3.7,3.4.8-.8a18.78,18.78,0,0,0-4.8-3.1c-.6-.3-1.3.4-.7.9,1.2,1.1,2.4,2.1,3.7,3.1.6.5,1.2-.6.6-1-1.4-1-2.7-2-4.2-3a.57.57,0,0,0-.7.9c1.2,1.1,2.3,2.2,3.4,3.4l.8-.8-5.1-4.2c-.6-.5-1.4.3-.8.8l4.4,5,.8-.8c-1.7-1.4-3.4-2.9-5.1-4.3-.5-.4-1.4.1-.9.7,1.2,1.6,2.3,3.2,3.4,4.9l.8-.8a17.18,17.18,0,0,1-3.5-2.5.57.57,0,0,0-.8.8c.8.9,1.6,1.9,2.4,2.8l.8-.8a24,24,0,0,1-2.1-2.4l-.8.8c.4.2.7.3,1.1.5s1.2-.3.8-.8c-.8-1.1-1.6-2.1-2.4-3.2-.3.2-.6.5-.9.7a27.29,27.29,0,0,1,4.2,4.8c.3-.2.6-.5.9-.7a75.52,75.52,0,0,0-5.4-5.9.57.57,0,0,0-.9.7c.3.8.7,1.5,1,2.3.3-.2.7-.4,1-.6-.3-.5-.5-1.1-.8-1.6-.3.2-.7.4-1,.6.6,1.1,1.2,2.3,1.7,3.4.3.6,1.3.2,1.1-.5-.1-.5-.2-.9-.3-1.4-.4.2-.7.3-1.1.5a19.16,19.16,0,0,0,1.8,2.2.57.57,0,0,0,.9-.7,7.84,7.84,0,0,0-1-1.5c-.5-.5-1.3.2-.9.7a10.08,10.08,0,0,0,1.7,1.9c.5.4,1.3-.1.9-.7A26.13,26.13,0,0,1,71,87c-.5-.6-1.2.2-.9.7a8.21,8.21,0,0,0,3.8,4,.58.58,0,0,0,.6-1,12.23,12.23,0,0,0-1.9-1.2.58.58,0,0,0-.6,1,21.1,21.1,0,0,1,2.3,1.9c.2-.3.5-.6.7-.9-.9-.7-1.8-1.3-2.7-2-.5-.4-1.2.5-.7.9a7,7,0,0,0,2.3,1.5c.6.3,1.3-.5.7-.9a7.1,7.1,0,0,0-1.4-1c0,.4-.1.7-.1,1.1.1-.1.3-.1.4-.2.4-.2.6-.7.3-1-.4-.5-.8-.9-1.2-1.4s-1.3.3-.8.8A14.38,14.38,0,0,0,74.6,92c.6.5,1.4-.3.8-.8a15.37,15.37,0,0,0-1.9-1.7c-.2.3-.5.6-.7.9l1,.5a.62.62,0,0,0,.7-.9,2.36,2.36,0,0,0-1.6-1.1c-.5-.1-1.1.6-.6,1l2.3,2c.5.4,1.3-.1.9-.7-1.1-2-2.3-3.9-3.4-5.9-.3.2-.6.5-.9.7a28.75,28.75,0,0,0,3.4,2.7c.4.3,1-.2.9-.7a17.71,17.71,0,0,0-2.7-5.3c-.4-.6-1.5-.1-1,.6a16.3,16.3,0,0,0,2.3,2.9c.5.6,1.4-.3.8-.8a25.29,25.29,0,0,1-3.1-4.2.58.58,0,1,0-1,.6,48.75,48.75,0,0,0,3.4,5.8c.3-.2.7-.4,1-.6-.8-1.1-1.7-2.2-2.5-3.3-.5-.6-1.4-.1-1,.6a45.3,45.3,0,0,0,3,4.6c.4.6,1.5,0,1-.6-.6-.9-1.2-1.7-1.9-2.6-.4-.5-1.4.2-.9.7.9,1.2,1.9,2.4,2.8,3.7.5.6,1.5,0,1-.6-.7-1-1.5-2.1-2.2-3.1-.4-.6-1.5-.1-1,.6.8,1.3,1.6,2.5,2.4,3.8.3-.2.6-.5.9-.7a22,22,0,0,1-1.4-1.8c-.4-.5-1.3.2-.9.7.8,1.2,1.6,2.5,2.3,3.7.3-.2.6-.5.9-.7-.8-.9-1.6-1.9-2.4-2.8a.57.57,0,0,0-.9.7A20.11,20.11,0,0,0,77.5,94c.5.5,1.3-.2.9-.7a1.76,1.76,0,0,0-.4-.5c-.3.2-.6.5-.9.7.2.2.4.3.6.5l.8-.8a6.19,6.19,0,0,0-1.7-1.1c-.5-.1-1.1.4-.8.9.1.3.3.5.4.8.3-.2.6-.5.9-.7a8.64,8.64,0,0,0-1.4-1.3c-.5-.4-1.2.5-.7.9a3.19,3.19,0,0,0,1.6.9.61.61,0,0,0,.6-1,18,18,0,0,0-2-1.9c-.6-.5-1.4.3-.8.8l.6.6.8-.8c-.5-.5-1-.9-1.5-1.4s-1.5.2-.9.8Z" transform="translate(-62.32 -23.16)"/><path class="cls-1" d="M112.9,93.9V94c.1-.6-.8-1.1-1.1-.5l-.1.1c-.1.3-.2.7-.3,1l3.4-.9c-.2-.4-.3-.7-.5-1.1-.8.2-1.6.3-2.3.5v1.2c1-.3,2-.5,3-.8.8-.2.4-1.3-.3-1.2h-2.1c.1.4.1.8.2,1.2a33.58,33.58,0,0,0,6.8-2.8c.6-.3.2-1.4-.5-1.1a4.15,4.15,0,0,0-2,1.2c-.6.5-.1,1.5.6,1,1-.6,2-1.3,3-1.9-.2-.3-.5-.6-.7-.9-.5.4-.9.8-1.4,1.2s.2,1.3.7.9c1.3-.9,2.5-1.8,3.8-2.7-.2-.3-.5-.6-.7-.9a4.89,4.89,0,0,1-1.8,1.4c.2.3.4.7.6,1a25.1,25.1,0,0,0,3.5-3.1c.5-.6-.3-1.4-.8-.8a13.44,13.44,0,0,1-1.4,1.1c.2.3.5.6.7.9l.5-.5c.5-.5-.2-1.3-.7-.9-.7.5-1.4,1-2.2,1.5.2.3.4.7.6,1a23.52,23.52,0,0,0,3.3-3c-.3-.2-.6-.5-.9-.7-.1.2-.3.5-.4.7a.58.58,0,0,0,1,.6c.5-.7,1-1.3,1.5-2-.2-.3-.4-.5-.6-.8l.6-.3a3.55,3.55,0,0,0,.4.9c.9-1.3,1.7-2.6,2.6-3.9-.3-.2-.7-.4-1-.6l-.3.6c-.3.7.7,1.3,1,.6.1-.3.3-.6.4-.9-.4-.2-.7-.3-1.1-.5a14.76,14.76,0,0,1-1.2,2.9c.4.2.7.3,1.1.5.2-.5.5-1,.7-1.6-.4-.2-.7-.3-1.1-.5a33.65,33.65,0,0,1-1.9,3.8c.4.2.7.3,1.1.5.3-.7.7-1.4,1-2.1-.3-.2-.6-.5-.9-.7-.8,1.5-1.6,2.8-2.5,4.2.4.2.7.3,1.1.5.4-.6.7-1.3,1.1-1.9-.3-.2-.7-.4-1-.6a19.19,19.19,0,0,1-3.6,6c.3.2.7.4,1,.6-.5.5-1,.9-1.6,1.4.2.3.3.6.5.9,0,.1-.1.3-.1.4.3-.2.6-.5.9-.7v.1c-.3,0-.6-.1-.9-.1l.3.6c.2-.3.3-.6.5-.9-.9,0-1.8.1-2.6.1a.6.6,0,1,0,0,1.2h.7c.8,0,.7-1.1,0-1.2a11.31,11.31,0,0,0-4.5.3.62.62,0,0,0,.2,1.2h.9a.6.6,0,1,0,0-1.2,8.42,8.42,0,0,0-2.7.4.62.62,0,0,0,0,1.2,2.26,2.26,0,0,0,1.6.2c.5,0,.9-.9.3-1.1a4.88,4.88,0,0,0-.7-.3c0,.4-.1.7-.1,1.1l1.8-.3c.7-.1.5-1.1-.2-1.2s-1.2-.1-1.8-.2c.1.4.1.8.2,1.2.8-.1,1.6-.3,2.5-.4l-.3-1.2c-.3,0-.5-.1-.8-.1,0,.3.1.6.1.9.7-.4,1.5-.8,2.2-1.2l-.7-.7a1.22,1.22,0,0,0,1.8.7c-.2-.3-.5-.6-.7-.9h.8c.2.3.3.6.5.9a3.71,3.71,0,0,1,2.7-2.3c-.2-.3-.5-.6-.7-.9a4.33,4.33,0,0,1-2.4,2.2l.8.8a10.52,10.52,0,0,1,3.6-4.2c-.3-.2-.6-.5-.9-.7a5.94,5.94,0,0,1-2.6,3.2l.8.8a3.45,3.45,0,0,1,1.9-2.2c-.2-.3-.5-.6-.7-.9l-3,3.6c-.5.6.3,1.4.8.8.5-.3.9-.5,1.4-.8-.2-.3-.4-.7-.6-1a3.75,3.75,0,0,1-2.5,1.4c.2.4.3.7.5,1.1.7,0,1.4-.1,2.1-.1.1-.4.1-.8.2-1.2q-3.15.3-6.3.3v1.2c.9,0,1.8-.1,2.8-.1a.6.6,0,1,0,0-1.2,17.37,17.37,0,0,0-3.9.5c-.7.1-.5,1.3.2,1.2a26.28,26.28,0,0,0,4.7-1c.7-.2.4-1.4-.3-1.2-.4.1-.9.3-1.3.4.2.3.4.7.6,1a22.41,22.41,0,0,1,5.1-4.1l-.8-.8a22,22,0,0,1-1.8,1.4c.2.3.4.7.6,1a39,39,0,0,1,4.8-4.2l-.8-.8a24.4,24.4,0,0,1-3.2,4.7c.3.2.6.5.9.7,1.3-1.6,2.5-3.3,3.8-4.9-.3-.2-.7-.4-1-.6a20.56,20.56,0,0,1-2.3,4.1c.4.2.7.3,1.1.5.4-.7.8-1.4,1.2-2-.3-.2-.7-.4-1-.6a5.82,5.82,0,0,1-1.2,2.5l1.1.3a5.68,5.68,0,0,1,1.1-3.8.57.57,0,0,0-.9-.7c-.4.5-.9.9-1.3,1.4.3.2.6.5.9.7a7.42,7.42,0,0,0,.7-2.1c.1-.5-.6-1.1-1-.6s-.6.7-.9,1.1l.8.8a8.64,8.64,0,0,1,1.3-1.4c.6-.5-.3-1.4-.8-.8-1.8,1.6-2.5,4.5-4.8,5.6-.3.2-.4.7-.1.9a6.65,6.65,0,0,0,3.2,1.7V92a7,7,0,0,1-3.8-.2c-.4-.1-.9.3-.7.7a3.29,3.29,0,0,0,.7,1.3c.1-.3.2-.7.3-1-1.3.3-2.6.6-3.9.8-.7.1-.5,1.2.2,1.2.9-.1,1.7-.1,2.6-.2a.6.6,0,1,0,0-1.2c-1.2,0-2.5,0-3.7-.1v1.2a18.6,18.6,0,0,0,11-4.5c.5-.4,0-1.1-.6-1-1.5.3-2,1.1-2.7,2.5-.3.7.6,1.3,1,.6.4-.5.8-1.1,1.2-1.6-.3-.1-.7-.3-1-.4-.1.2-.1.5-.2.7-.4.6.6,1.2,1,.6a1.26,1.26,0,0,0,.3-1.3c-.1-.5-.6-.8-1-.4a8.47,8.47,0,0,0-1.4,1.9c.3.2.7.4,1,.6a2.94,2.94,0,0,1,2-1.9c-.2-.3-.4-.7-.6-1A17.51,17.51,0,0,1,115,93.5a.6.6,0,1,0,0,1.2c1.2,0,2.5,0,3.7.1V93.6c-.9.1-1.7.1-2.6.2.1.4.1.8.2,1.2a27,27,0,0,0,3.9-.8.6.6,0,0,0,.3-1c-.1-.2-.3-.5-.4-.7l-.7.7a9.38,9.38,0,0,0,4.4.2c.6-.1.5-1,0-1.2a5.85,5.85,0,0,1-2.7-1.4c0,.3-.1.6-.1.9,2.5-1.1,3-4,5-5.8l-.8-.8a8.64,8.64,0,0,0-1.3,1.4c-.5.6.3,1.4.8.8.3-.4.6-.7.9-1.1-.3-.2-.7-.4-1-.6l-.6,1.8a.57.57,0,0,0,.9.7c.4-.5.9-.9,1.3-1.4-.3-.2-.6-.5-.9-.7a5.91,5.91,0,0,0-1.3,4.4.6.6,0,0,0,1.1.3,10.17,10.17,0,0,0,1.3-2.8.61.61,0,0,0-1-.6,5.26,5.26,0,0,0-1.5,2.6.61.61,0,0,0,1.1.5,16.57,16.57,0,0,0,2.3-4.1.58.58,0,0,0-1-.6c-1.3,1.6-2.5,3.3-3.8,4.9-.4.5.5,1.2.9.7a28.47,28.47,0,0,0,3.4-4.9c.3-.5-.3-1.2-.8-.8a41.45,41.45,0,0,0-5,4.4.61.61,0,0,0,.6,1,3.77,3.77,0,0,0,2.6-2,.59.59,0,0,0-.8-.8,24.37,24.37,0,0,0-5.3,4.3.61.61,0,0,0,.6,1c.4-.1.9-.3,1.3-.4l-.3-1.2a31.17,31.17,0,0,1-4.4.9c.1.4.1.8.2,1.2a14.72,14.72,0,0,1,3.6-.4V92.4c-.9,0-1.8.1-2.8.1a.6.6,0,1,0,0,1.2q3.15,0,6.3-.3a.62.62,0,0,0,.2-1.2,3.43,3.43,0,0,0-3.1.3c-.6.3-.2,1.3.5,1.1a6.34,6.34,0,0,0,3.1-1.7.61.61,0,0,0-.6-1c-1.2.3-1,.2-1.9,1.1l.8.8,3-3.6c.4-.5-.1-1.3-.7-.9a4.85,4.85,0,0,0-2.3,2.6c-.2.5.3,1.2.8.8a8.18,8.18,0,0,0,3.2-3.9.62.62,0,0,0-.9-.7,13.94,13.94,0,0,0-4,4.7.59.59,0,0,0,.8.8,6.39,6.39,0,0,0,2.8-2.6c.3-.4-.2-1-.7-.9a5.16,5.16,0,0,0-3.4,2.9.59.59,0,0,0,.5.9c2.5,0,.2-4.7-2-.7-.1.3-.1.7.2.8a1.4,1.4,0,0,0,2.1-.7.62.62,0,0,0-.7-.9c-1.2.2-3.4.6-3.3,2.1a.82.82,0,0,0,.4.6,2.33,2.33,0,0,0,2.6-1.9.57.57,0,0,0-.7-.7,4.22,4.22,0,0,0-2.7,1.6.56.56,0,0,0,.1.9c.8.5.8.5,1.7.2s.4-1.3-.3-1.2-1.6.3-2.5.4c-.7.1-.4,1.1.2,1.2s1.2.1,1.8.2c-.1-.4-.1-.8-.2-1.2l-1.8.3a.59.59,0,0,0-.1,1.1,4.88,4.88,0,0,0,.7.3c.1-.4.2-.7.3-1.1-.4,0-.9-.1-1.3-.1v1.2a6.05,6.05,0,0,1,2.4-.4V93.7h-.9c.1.4.1.8.2,1.2a10,10,0,0,1,4.2-.3V93.4h-.7v1.2c.9,0,1.8-.1,2.6-.1a.59.59,0,0,0,.5-.9l-.3-.6a.52.52,0,0,0-.9-.1,1.08,1.08,0,0,0,.2,1.8.62.62,0,0,0,.9-.7,4.18,4.18,0,0,0-.4-1,.57.57,0,0,0-.7-.4,1.09,1.09,0,0,0-1,.7c-.2.4,0,1,.5.9.7-.1.8-.1,1.2-.8a.64.64,0,0,0,0-.6c-.4-.6-.5-.7-1.2-.7a.65.65,0,0,0-.6.6c.1,2.5,3.5,1.2,1.9-.8a.52.52,0,0,0-.8,0l-.1.1a.62.62,0,0,0-.1.7c0,.1.1.1.1.2a.54.54,0,0,0,.8.2c1.1-.6,1.7-1.7.7-2.7a1.42,1.42,0,0,0-.6-.2c-.1,0-.3.1-.4.1s-.4.2-.4.4a.6.6,0,0,1-.1.4c-.1.5.6,1.1,1,.6a21,21,0,0,0,3.9-6.6.61.61,0,0,0-1-.6,4.93,4.93,0,0,0-1.4,2.4.61.61,0,0,0,1.1.5c.9-1.4,1.7-2.8,2.5-4.2.3-.6-.5-1.3-.9-.7a5,5,0,0,0-1.3,2.6.61.61,0,0,0,1.1.5,31.07,31.07,0,0,0,2-4.1c.3-.6-.8-1-1.1-.5a11.08,11.08,0,0,0-.9,1.9c-.2.6.8,1.1,1.1.5.5-1.1,1-2.1,1.4-3.2.2-.6-.8-1.1-1.1-.5-.1.3-.3.6-.4.9.3.2.7.4,1,.6l.3-.6c.3-.7-.6-1.3-1-.6-.9,1.3-1.7,2.6-2.6,3.9a.63.63,0,0,0,.4.9h.1c.3.1.7-.1.7-.4v-.1a.64.64,0,0,0-.6-.8c-1.2.1-1.9,1.8-2.5,2.6.3.2.7.4,1,.6.1-.2.3-.5.4-.7a.57.57,0,0,0-.9-.7,28,28,0,0,1-3.1,2.8c-.6.5,0,1.5.6,1s1.4-1,2.2-1.5c-.2-.3-.5-.6-.7-.9l-.5.5c-.5.5.2,1.3.7.9a10.1,10.1,0,0,0,1.6-1.3l-.8-.8a22.06,22.06,0,0,1-3.2,2.9c-.6.5-.1,1.4.6,1a16.6,16.6,0,0,0,2.1-1.6c.5-.5-.2-1.3-.7-.9-1.3.9-2.5,1.8-3.8,2.7.2.3.5.6.7.9.5-.4.9-.8,1.4-1.2s-.2-1.3-.7-.9c-1,.6-2,1.3-3,1.9.2.3.4.7.6,1,.6-.3,1.2-.7,1.8-1-.2-.4-.3-.7-.5-1.1a37.1,37.1,0,0,1-6.5,2.7c-.7.2-.5,1.1.2,1.2a6.47,6.47,0,0,0,2.4-.1l-.3-1.2c-1,.3-2,.5-3,.8-.6.1-.6,1,0,1.2a3.56,3.56,0,0,0,3.3-.6.61.61,0,0,0-.5-1.1l-3.4.9a.64.64,0,0,0-.3,1c.8.6,1.6.6,2-.4-.4-.2-.7-.3-1.1-.5a.76.76,0,0,1-.1.4c0,.2,0,.6.3.7.1.1.2.1.3.2-.1.4.5-.6-.2-1Z" transform="translate(-62.32 -23.16)"/><path class="cls-1" d="M87.8,39.6a.6.6,0,0,1-.4-.1.63.63,0,0,0-.9.4,10.93,10.93,0,0,0-.8,1.5c-.4.2-.7.3-1.1.5l-.9.8a.6.6,0,0,0,.6,1c.9-.1,1.7-.1,2.6-.2V42.3c-.4-.1-.7-.1-1.1-.2,0,.4-.1.7-.1,1.1.4,0,.9.1,1.3.1.6.2,1.3-.5.7-.9l1.4,1.1.8-.8a1.27,1.27,0,0,1-.1.6c.2.3.7.4.9.1a.1.1,0,0,1-.1-.1c.4-.1.8-.1,1.2-.2l-.3.3c-.1.6.7,1.1,1.1.5.1.2.1.4.2.6.2.5,1,.3,1.1-.1a3,3,0,0,0,.2-1c-.4,0-.7.1-1.1.1a2.51,2.51,0,0,0,.4.7c.2.4,1,.4,1.1-.1-.1.9,3.1-1,2.4-.6.6-.3.2-1.1-.3-1.1s-1.2-.1-1.8-.2v1.2a9.53,9.53,0,0,1,4.1.3c.1-.4.1-.8.2-1.2l-1.7-.3c-.1.4-.1.8-.2,1.2a4.35,4.35,0,0,0,.6-.7c-.2.4-.3.7-.5,1.1a5.86,5.86,0,0,0,3.7-.1.62.62,0,0,0-.3-1.2c-.6.1-1.2.1-1.8.2.1.4.1.8.2,1.2,1-.2,2-.4,3.1-.6l-.3-1.2a5,5,0,0,1-3.8.4c.1.4.1.8.2,1.2,3.1-1.3,1.4.5,5.8-.1a4.14,4.14,0,0,0,2.3-.9c.7-.4.1-1.3-.6-1-.5.2-.9.4-1.4.6.2.3.4.7.6,1,.5-.1,1.1-.3,1.6-.4-.1-.4-.1-.8-.2-1.2a5,5,0,0,1,2.7-.2c-.1-.4-.2-.7-.3-1.1-.5.1-1,.3-1.5.4-.7,0-.8,1.1-.2,1.2a2.09,2.09,0,0,1-.6-.4c0,.4.1.7.1,1.1.8.1,1.5.1,2.3.2.2-.4.3-.7.5-1.1-.4-.1-.8-.3-1.2-.4-.6-.2-1.1.8-.5,1.1s.9.5,1.4.8c.2-.4.3-.7.5-1.1-.4-.1-.9-.3-1.3-.4-.1.4-.1.8-.2,1.2,2.5.2,1.5.5,4.2.3V42.1c-.5.1-1.1.1-1.6.2.1.4.2.7.3,1.1.4-.1.8-.3,1.1-.4-.1-.4-.1-.8-.2-1.2-3.2,1,2,.4,1.7.3.6.3,1-.8.5-1.1s-.7-.4-1.1-.6c0,.4-.1.7-.1,1.1.6,0,1.2-.1,1.9-.1V40.2a6.85,6.85,0,0,0-3,1.1c-.5.3-.3,1.2.3,1.1a5,5,0,0,0,2.9-.7c-.2-.3-.5-.6-.7-.9-.5.2-1,.5-1.4.7.2.4.3.7.5,1.1-1,.5,2.7-1.4,2.3-1.2.3.2.6.5.9.7a6,6,0,0,1,.8.8l.8-.8c-.1.1-.1.2-.2.3,0-.4-.1-.7-.1-1.1-.4,0-.8.1-1.2.1a.64.64,0,0,0-.9-.7c-.2-.5-.4-1-.6-1.6s-1.3-.1-1,.6c1.8,4.1,4.9.3,2.2-.5s-2.9,3.9.1,2.5c-.3-.2-.6-.5-.9-.7-.1.2-.1.5-.2.7s0,.4.2.6c1.1,1,1.7.9,3-.1.4-.3.4-1-.1-1.1-.2,0-.5-.1-.7-.1-.4-.1-.7.2-.8.6v.3a.55.55,0,0,0,.3.5c.1,0,.2.1.3.1.3.1.7.1.8-.2a.35.35,0,0,1,.1-.2.62.62,0,0,0-.1-.7l-.2-.2a.49.49,0,0,0-.7-.1c-.9.7-.5,1.3.3,1.9.5.4,1.1-.3.8-.8-.8-1.2-.7-1.1-2.1-1.7-.5-.2-.8.3-.7.7s.1.5.1.8a.63.63,0,0,0,.9.4,1,1,0,0,0,.5-.4c.2-.2.4-.5.2-.8a1.36,1.36,0,0,0-1.1-.7c-.3-.1-.7.1-.7.4s-.1.6-.1.8a.62.62,0,0,0,.9.7l.6-.3a.55.55,0,0,0,.3-.5V41a.68.68,0,0,0-.4-.6c-.2-.1-.4-.1-.6-.2s-.4,0-.6.2c.6-.6-3.2,1.5-2.7,1.2-.6.3-.2,1.2.5,1.1,1.3-.3,1-.1,2-1a.57.57,0,0,0-.7-.9l-2.3.6c.1.4.2.7.3,1.1.9-.3,1.8-.6,2.7-1a.63.63,0,0,0,0-1.2,3.59,3.59,0,0,0-2.5.1.59.59,0,0,0-.1,1.1c.4.2.7.4,1.1.6.2-.4.3-.7.5-1.1-1.7-.7-4.4-.2-5,1.8a.64.64,0,0,0,.6.8,6.46,6.46,0,0,0,2.7-.5.62.62,0,0,0-.2-1.2,2.38,2.38,0,0,0-1.8.5c-.5.3-.3,1.2.3,1.1s1.1-.1,1.6-.2c.7-.1.8-1.3,0-1.2a28.64,28.64,0,0,1-4.2-.3c-.7-.1-.8,1-.2,1.2.4.1.9.3,1.3.4.6.2,1.1-.8.5-1.1s-.9-.5-1.4-.8c-.2.4-.3.7-.5,1.1.4.1.8.3,1.2.4.7.2,1-.8.5-1.1a3.18,3.18,0,0,0-3.5-.2c-.5.2-.3.9.1,1.1a2.16,2.16,0,0,0,2.7-.7.6.6,0,0,0-.3-1c-.4-.1-.8-.1-1.2-.2-.1.4-.1.8-.2,1.2,1.3.1,1,.2,2.1-.6a.59.59,0,0,0-.3-1.1,9.11,9.11,0,0,0-5.4,1.1.61.61,0,0,0,0,1,2.57,2.57,0,0,0,3.1.4.61.61,0,0,0-.2-1.2,4.28,4.28,0,0,0-2.2.6c-.7.3-.1,1.3.6,1,.5-.2.9-.4,1.4-.6-.2-.3-.4-.7-.6-1a10.64,10.64,0,0,1-2.5.9.57.57,0,0,0-.4.7c0,.1,0,.1.1.2a.57.57,0,0,0,.7.4h.2a.64.64,0,0,0,.3-1c-2.2-2.1-3.4-1.5-6.1-.4a.62.62,0,0,0,.2,1.2,7.2,7.2,0,0,0,4.1-.5.62.62,0,0,0-.3-1.2c-1,.2-2,.4-3.1.6-.7.1-.5,1.2.2,1.2a8.2,8.2,0,0,0,2.2-.2l-.3-1.2c-1,0-2,.1-3.1.1-.6-.2-1.1.8-.5,1.1.8.4.9.4,1.7-.1a.57.57,0,0,0,0-1c-.8-.6-.7-.6-1.7-.5a.62.62,0,0,0-.2,1.2,3.4,3.4,0,0,0,2,.3.62.62,0,0,0,.2-1.2,16,16,0,0,0-4.4-.3.6.6,0,1,0,0,1.2c.6.1,1.2.1,1.8.2-.1-.4-.2-.7-.3-1.1-.8.1-1.5.3-2.3.4a.82.82,0,0,0-.6.4.9.9,0,0,1-.1.5c.4,0,.7-.1,1.1-.1a2.51,2.51,0,0,0-.4-.7.59.59,0,0,0-1.1.1,3,3,0,0,0-.2,1c.4,0,.7-.1,1.1-.1a10.37,10.37,0,0,1-.4-1,.55.55,0,0,0-.5-.3H93a.55.55,0,0,0-.5.3.76.76,0,0,0-.2.4c.4.2.7.3,1.1.5.3-1.8-1.5-2.6-2.3-.9-.2.4,0,1,.5.9a.75.75,0,0,0,.5-.1.68.68,0,0,0,.6-.4c.1-.2.1-.3.2-.5a.54.54,0,0,0-.7-.7c-.1.1-.3.1-.4.2a.57.57,0,0,0-.4.7c0,.2.1.3.1.5.1.7,1.2.5,1.2-.2A1.24,1.24,0,0,0,91.2,42a.91.91,0,0,0-.7-.3c-.2,0-.5.1-.7.1s-.4.3-.4.6c0,.5,0,.7.4,1a.57.57,0,1,0,.8-.8c-.7-.8-1.5-1.3-2.1-.2a.52.52,0,0,0,.2.8c.1.1.2.1.3.2a.54.54,0,0,0,.8-.2c.1-.1.1-.2.2-.2a.63.63,0,0,0-.4-.9,4.23,4.23,0,0,0-1.8-.3.68.68,0,0,0-.6.4c0,.1-.1.2-.1.3a.48.48,0,0,0,.2.6l.2.2c.2-.3.5-.6.7-.9a2.19,2.19,0,0,0-2.2-.2.59.59,0,0,0-.1,1.1,2.1,2.1,0,0,0,2,.3.63.63,0,0,0,0-1.2c-2.6-.4-2-.4-3.9.1.2.3.4.7.6,1,.9-.8.8-.3,1.3-1.3a.64.64,0,0,0,0-.6,1.38,1.38,0,0,1-.3-.4.61.61,0,0,0-1.1.5c.1.2.1.4.2.6.1.4.5.5.9.4,1.7-.8,1.3-1.5,2.5-2a.57.57,0,1,0-.3-1.1Z" transform="translate(-62.32 -23.16)"/><path class="cls-1" d="M76.8,46.2c.4-1,.7-2,1.1-3-.9-.5-1.7-1-2.6-1.5A7.92,7.92,0,0,1,73,45.1c.8.5,1.7,1,2.5,1.5.6-1.1,1.2-2.2,1.7-3.2-.8-.5-1.7-1-2.5-1.5a11.14,11.14,0,0,1-.8,3c-.6,1.7,1.8,2.5,2.7,1.2.7-1,1.4-2,2.1-2.9-.9-.5-1.7-1-2.6-1.5a22.11,22.11,0,0,1-1.8,3.4,1.5,1.5,0,0,0,2.6,1.5,27.14,27.14,0,0,1,2.4-3.5l-2.4-1.8a27.54,27.54,0,0,1-2,3.8c.9.5,1.7,1,2.6,1.5a11.55,11.55,0,0,1,2.1-3.3l-2.4-1.8c-.6,1.2-1.2,2.3-1.8,3.4-1,1.7,1.5,3.1,2.6,1.5A47,47,0,0,1,81.4,42L79,40.2a31.35,31.35,0,0,1-3.7,6.4c.9.5,1.7,1,2.6,1.5,1.2-2,2.4-3.9,3.6-5.9-.9-.5-1.7-1-2.6-1.5-2.5,4.3-6.3,7.6-8.6,12,.9.5,1.7,1,2.6,1.5.9-1.8,1.7-3.6,2.6-5.4l-2.7-1.2A64,64,0,0,1,68.9,56l2.7,1.2c.5-2.1,1-4.3,1.5-6.4-1-.3-1.9-.5-2.9-.8-.6,3.2-1.3,6.3-2.1,9.4,1,.1,2,.3,2.9.4a48.74,48.74,0,0,1-.2-5.4h-3a41.12,41.12,0,0,1-1,11.6,23.35,23.35,0,0,0,2.5-.7c-.2-.1-.3-.3-.5-.4a1.51,1.51,0,0,0-2.5,1.5A107.74,107.74,0,0,1,68,85.2c.9-.4,1.7-.7,2.6-1.1-3.4-2.8-3.8-10-4.5-14-.8-4.8-1.2-9.2.1-13.9A44.5,44.5,0,0,1,80.3,34.9l-2.4-1.8C74.3,39.2,70.6,45.3,67,51.4l2.7,1.2a55,55,0,0,1,5.7-10.7c-.9-.5-1.7-1-2.6-1.5a102.76,102.76,0,0,1-6.2,10.7c.9.5,1.7,1,2.6,1.5a42.49,42.49,0,0,1,5.6-9.4L72.1,42c-1.6,4-3.4,7.9-5.3,11.7.9.3,1.9.5,2.8.8,0-.8-.1-1.6-.1-2.4-.1-1.6-2.6-2.1-2.9-.4-.7,3.2-.6,6.6-.8,9.8h3a25.88,25.88,0,0,0-.4-6.2,1.53,1.53,0,0,0-2.9,0c-.6,3.1-1.1,6.2-1.7,9.4,1,.1,2,.3,2.9.4q0-3.3.3-6.6H64a56.53,56.53,0,0,0,.1,9.2c.2,1.9,3.1,1.9,3,0a28.11,28.11,0,0,1,0-5.8h-3a67,67,0,0,0,.5,10c1-.1,2-.3,2.9-.4-.3-1.6-.5-3.2-.8-4.7-1,.3-1.9.5-2.9.8.6,3.4,1.1,6.8,1.7,10.2.3,1.6,3.2,1.3,2.9-.4-.3-2.3-.7-4.5-1.2-6.7-1,.3-1.9.5-2.9.8,1,2.4,1.9,4.8,2.9,7.2.7,1.7,3.4,1.1,2.9-.8-.4-1.4-.8-2.9-1.1-4.3l-2.7,1.2A49,49,0,0,1,68.7,80c.6,1.5,3.1,1.4,2.9-.4,0-.4-.1-.8-.1-1.2a20.68,20.68,0,0,0-2.4.6c.2.4.3.8.5,1.2.7,1.6,3.3.4,2.7-1.2a18.16,18.16,0,0,1-1.1-4.6c-1,.1-2,.3-2.9.4a36,36,0,0,1,1.2,4.4c1-.3,1.9-.5,2.9-.8-.6-2.3-1.1-4.6-1.5-7-.4-1.9-3.2-1.1-2.9.8.1.8.2,1.6.4,2.5.3,1.7,2.9,1.2,2.9-.4.1-1.9.2-3.6.4-5.5h-3c0,2,.1,4,.2,6,1-.1,2-.3,2.9-.4a31.7,31.7,0,0,1,.7-13.7c-1-.1-2-.3-2.9-.4-.4,3.1-.8,6.1-1.2,9.2h3A54.88,54.88,0,0,1,74.6,53c-1-.3-1.9-.5-2.9-.8a43.29,43.29,0,0,0-1.9,7.9c1,.3,1.9.5,2.9.8.6-4.3,2.5-7.9,4.6-11.6,1-1.7-1.5-3.1-2.6-1.5a32.21,32.21,0,0,0-4.2,9c-.5,1.6,1.9,2.7,2.7,1.2,1.9-3.6,3.9-7.2,5.8-10.8a1.5,1.5,0,0,0-2.6-1.5,8.34,8.34,0,0,0-.8,1.2c-1.1,1.6,1.5,3.1,2.6,1.5a8.34,8.34,0,0,0,.8-1.2c-.9-.5-1.7-1-2.6-1.5-1.9,3.6-3.9,7.2-5.8,10.8l2.7,1.2a33.08,33.08,0,0,1,3.9-8.3c-.9-.5-1.7-1-2.6-1.5-2.2,3.9-4.3,7.8-4.9,12.3-.3,1.9,2.6,2.7,2.9.8a53.45,53.45,0,0,1,1.9-7.9c.6-1.8-2.3-2.6-2.9-.8a60.22,60.22,0,0,0-3.3,17.3c-.1,2,2.8,1.9,3,0,.4-3.1.8-6.1,1.2-9.2.2-1.7-2.5-2-2.9-.4A38.82,38.82,0,0,0,69,75.2c.3,1.7,3.1,1.3,2.9-.4-.1-2-.2-4-.2-6s-2.8-1.9-3,0a49.07,49.07,0,0,0-.4,5.5c1-.1,2-.3,2.9-.4-.1-.8-.2-1.6-.4-2.5-.8.3-1.8.6-2.8.9.4,2.3.9,4.7,1.5,7,.5,1.9,3.3,1.1,2.9-.8a31.66,31.66,0,0,0-1.2-4.4c-.5-1.5-3.2-1.4-2.9.4a24.82,24.82,0,0,0,1.2,5.4l2.7-1.2c-.2-.4-.3-.8-.5-1.2-.6-1.4-2.9-.7-2.8.8,0,.4.1.8.1,1.2,1-.1,2-.3,2.9-.4a62.84,62.84,0,0,0-2.7-5.9,1.49,1.49,0,0,0-2.7,1.2c.4,1.4.8,2.9,1.1,4.3,1-.3,1.9-.5,2.9-.8-1-2.4-1.9-4.8-2.9-7.2a1.51,1.51,0,0,0-2.9.8c.5,2,.8,3.9,1.1,5.9,1-.1,2-.3,2.9-.4-.6-3.4-1.1-6.8-1.7-10.2-.3-1.9-3.2-1.1-2.9.8.3,1.6.5,3.2.8,4.7s3.2,1.3,2.9-.4a66.35,66.35,0,0,1-.5-10c.1-1.9-2.9-1.9-3,0a56.11,56.11,0,0,0,0,5.8h3a70.62,70.62,0,0,1-.1-9.2c.1-1.9-2.8-1.9-3,0q-.3,3.3-.3,6.6c0,1.6,2.6,2.1,2.9.4.6-3.1,1.1-6.2,1.7-9.4H65.6a25,25,0,0,1,.4,5.4c-.1,1.9,2.9,1.9,3,0a54.45,54.45,0,0,1,.6-9c-1-.1-2-.3-2.9-.4,0,.8.1,1.6.1,2.4.1,1.4,2.1,2.2,2.8.8,2.1-4.1,3.9-8.2,5.6-12.5.7-1.7-1.8-2.4-2.7-1.2A44.9,44.9,0,0,0,66.9,51a1.5,1.5,0,0,0,2.6,1.5,114.28,114.28,0,0,0,6.2-10.7,1.5,1.5,0,0,0-2.6-1.5,53.94,53.94,0,0,0-6,11.4c-.6,1.6,1.9,2.6,2.7,1.2,3.7-6.1,7.3-12.2,10.9-18.3.9-1.5-1.1-2.9-2.4-1.8-7.7,6.6-13.8,15.8-15.6,25.9-.9,4.6.1,9.4,1,14,.9,4.4,1.3,10.6,5,13.6a1.55,1.55,0,0,0,2.6-1.1,117.23,117.23,0,0,0-1.9-19.6c-.8.5-1.7,1-2.5,1.5.2.1.3.3.5.4a1.51,1.51,0,0,0,2.5-.7A47,47,0,0,0,71,54.4a1.5,1.5,0,0,0-3,0,48.74,48.74,0,0,0,.2,5.4c.2,1.6,2.5,2.1,2.9.4.8-3.1,1.5-6.2,2.1-9.4.3-1.9-2.5-2.7-2.9-.8-.5,2.1-1,4.3-1.5,6.4-.4,1.6,1.9,2.7,2.7,1.2,1.6-3,2.9-6,4.2-9.1.6-1.6-2-2.7-2.7-1.2-.9,1.8-1.7,3.6-2.6,5.4s1.7,3.2,2.6,1.5c2.3-4.4,6.1-7.7,8.6-12A1.5,1.5,0,0,0,79,40.7c-1.2,2-2.4,3.9-3.6,5.9-1,1.7,1.5,3,2.6,1.5a31.35,31.35,0,0,0,3.7-6.4c.6-1.4-1.1-3.2-2.4-1.8a36.6,36.6,0,0,0-3.8,5c.9.5,1.7,1,2.6,1.5A27.93,27.93,0,0,0,79.9,43c.7-1.4-1.2-3.2-2.4-1.8A19.91,19.91,0,0,0,75,45.1c-.8,1.7,1.6,3.2,2.6,1.5a22.8,22.8,0,0,0,2-3.8c.6-1.4-1.2-3.3-2.4-1.8a42.67,42.67,0,0,0-2.9,4.1c.9.5,1.7,1,2.6,1.5a36.52,36.52,0,0,0,1.8-3.4,1.5,1.5,0,0,0-2.6-1.5c-.7,1-1.4,2-2.1,2.9l2.7,1.2a11.14,11.14,0,0,0,.8-3c.3-1.3-1.5-2.7-2.5-1.5a10.39,10.39,0,0,0-2.5,4.6A1.54,1.54,0,0,0,75,47.4a16,16,0,0,0,2.8-4c.8-1.7-1.6-3.2-2.6-1.5a10.45,10.45,0,0,0-1.5,4.5c-.2,1.8,2.8,1.7,3.1-.2Z" transform="translate(-62.32 -23.16)"/><path class="cls-1" d="M127.8,44a33.54,33.54,0,0,0-4.3-4.9,1.52,1.52,0,0,0-2.4,1.8c1.1,1.7,2.2,3.5,3.3,5.2s3.6.1,2.6-1.5a32.09,32.09,0,0,0-3.9-5.2L121,41.5c.9.8,1.8,1.7,2.7,2.5.5-.8,1-1.7,1.5-2.5a12.72,12.72,0,0,1-5.7-2.8c-.4.9-.7,1.7-1.1,2.6,2.5.3,4.4,3.7,5.4,5.6.9-.5,1.7-1,2.6-1.5-1-1.5-1.9-3.1-2.9-4.6-.9.5-1.7,1-2.6,1.5,1.4,1.9,2.8,3.8,4,5.7a1.5,1.5,0,0,0,2.6-1.5c-1.8-3.3-3.6-6.6-5.3-9.9l-2.1,2.1c2.6,1.2,4.1,3.2,5.8,5.5a1.5,1.5,0,0,0,2.6-1.5c-1.2-2.7-2.5-5.4-3.7-8.1l-2.4,1.8a17.32,17.32,0,0,1,3.3,4.7c.9-.5,1.7-1,2.6-1.5-1.7-2.7-3.4-5.5-5.1-8.2l-2.1,2.1c4,2.9,6,7.1,7.6,11.6l2.7-1.2c-3.6-4.8-7.5-9.5-10.5-14.7l-2.1,2.1c5.1,2.7,6.5,8.2,8.4,13.3a105.81,105.81,0,0,1,4.2,14.6c2.2,11.2-3.7,24.7-10.2,33.7-1,1.4.9,2.6,2.1,2.1.3-.1.6-.3.9-.4l-1.8-2.4c-.3.4-.6.7-.9,1.1-.9,1-.1,3,1.5,2.5,3.3-1.1,3.8-4.6,6.1-6.9-.8-.5-1.7-1-2.5-1.5a5.11,5.11,0,0,1-2.2,3.1l2.4,1.8a50.28,50.28,0,0,1,4.1-7.1L128.2,84l-.6,2.1c-.8,1.7,1.6,3.2,2.6,1.5a82.82,82.82,0,0,0,4.5-8.3,1.56,1.56,0,0,0-2.1-2.1,9.68,9.68,0,0,0-2.9,2.8c.9.3,1.9.5,2.8.8.1-2,.3-4,.5-5.9.2-1.5-2.2-2.1-2.8-.8-.5,1-.9,2-1.4,3l2.7,1.2c1.2-5.3,2.1-10.8,1.4-16.3-.7-5.7-3.6-10.7-6.1-15.8L124.4,48a25.84,25.84,0,0,1,5.3,11.8l2.7-1.2a7.58,7.58,0,0,1-1.6-4.3c-1,.3-1.9.5-2.9.8.2.9.4,1.8.6,2.6,1-.3,1.9-.5,2.9-.8-1-2.9-2-5.9-2.9-8.9-1,.3-1.9.5-2.9.8a73.54,73.54,0,0,0,3.2,7.7c.8,1.6,3.1.4,2.7-1.2-.8-3.2-1.5-6.4-2.3-9.5L126.5,47a24.66,24.66,0,0,1,3.3,7.4,1.5,1.5,0,0,0,2.9-.8c-.7-2.4-2.3-6-1.6-8.5a25.12,25.12,0,0,0-2.7.4c2.6,4.2,2.6,9.3,4.2,13.9a1.51,1.51,0,0,0,2.9-.8c-.6-3.2-1.2-6.5-1.8-9.7-1,.3-1.9.5-2.9.8a28.53,28.53,0,0,1,1.7,8.2h3c-.2-2-.5-4-.7-6-1,.1-2,.3-2.9.4.7,2.2,1.2,4.5,1.8,6.8.4,1.9,3.2,1.1,2.9-.8-.2-1.4-.5-2.8-.7-4.2-1,.3-1.9.5-2.9.8l1.2,4.5a1.48,1.48,0,0,0,2.9-.4,19.58,19.58,0,0,0-1.4-8c-.7-1.8-3.5-1.1-2.9.8a37.42,37.42,0,0,1,1.2,4.8c.3,1.7,3,1.3,2.9-.4a37,37,0,0,0-.7-5.7c-.4-1.9-3.2-1.1-2.9.8a9.4,9.4,0,0,0,1.1,3.6c.7,1.6,3.3.4,2.7-1.2a60,60,0,0,0-7-14.4l-2.4,1.8c.3.5.6,1.1.9,1.6l2.7-1.2-1.8-3c-.9.5-1.7,1-2.6,1.5a28.87,28.87,0,0,1,5.9,19.4c-.5,6.5-4,13-3.6,19.5a1.56,1.56,0,0,0,2.6,1.1,9.55,9.55,0,0,0,3-5.1,1.51,1.51,0,0,0-2.9-.8c-.4,1.2-.8,2.5-1.2,3.7-.5,1.6,2,2.7,2.7,1.2,1-2.1,2-4.1,2.9-6.2l-2.7-1.2c-.7,2-1.4,3.9-2.2,5.9-.6,1.6,2,2.7,2.7,1.2a38.37,38.37,0,0,0,3.4-22.1c-.2-1.9-3-2-3,0-.1,4.3-.3,8.4-1.9,12.5,1,.1,2,.3,2.9.4.3-1,.5-2.1.8-3.1h-2.6c.1.7.1,1.4.2,2.1,1-.1,2-.3,2.9-.4.1-1.5.1-3,.2-4.6h-2.9c0,1.2-.1,2.5-.1,3.7h2.9a12.55,12.55,0,0,1-.9-5.4c-1,.1-2,.3-2.9.4.1,1,.2,2,.2,3,1-.1,2-.3,2.9-.4a91.72,91.72,0,0,0-4.9-14.2c-.7-1.5-3.3-.5-2.7,1.2a48,48,0,0,1,2.2,11.4c1-.1,2-.3,2.9-.4-1.6-4.8-2.9-9.9-4.7-14.7a8.25,8.25,0,0,0-5-5.3c-1.3-.5-2.3,1.2-1.7,2.2.5.8.9,1.6,1.4,2.4l2.1-2.1-2.1-1.8-2.1,2.1c.5.4.9.8,1.4,1.2,1.4,1.3,3.6-.8,2.1-2.1-.5-.4-.9-.8-1.4-1.2-1.4-1.3-3.5.8-2.1,2.1a28.77,28.77,0,0,0,2.7,2.2c1.3.9,2.8-.8,2.1-2.1-.5-.8-.9-1.6-1.4-2.4-.6.7-1.1,1.5-1.7,2.2,3.2,1.2,3.8,5.8,4.7,8.8s1.9,6.1,3,9.1c.5,1.5,3.1,1.4,2.9-.4a50.57,50.57,0,0,0-2.3-12.2L128.9,52a88.24,88.24,0,0,1,4.6,13.4c.4,1.6,3,1.3,2.9-.4a24.33,24.33,0,0,0-.3-3.8c-.2-1.7-2.9-1.2-2.9.4a14.46,14.46,0,0,0,1,6.2,1.53,1.53,0,0,0,2.9,0,7.45,7.45,0,0,0,.1-5.3,1.51,1.51,0,0,0-2.9,0,16.13,16.13,0,0,0-.2,6.2c.3,1.8,2.8,1.1,2.9-.4a5.08,5.08,0,0,0-.6-3.6,1.5,1.5,0,0,0-2.6,0,14.89,14.89,0,0,0-1.2,4.6c-.2,1.8,2.4,1.8,2.9.4,1.7-4.3,1.9-8.7,2-13.2h-3a37.35,37.35,0,0,1-3,20.6l2.7,1.2c.7-2,1.4-3.9,2.2-5.9.6-1.6-2-2.7-2.7-1.2-1,2.1-2,4.1-2.9,6.2l2.7,1.2c.4-1.2.8-2.5,1.2-3.7-1-.3-1.9-.5-2.9-.8a5.64,5.64,0,0,1-2.3,3.7c.9.4,1.7.7,2.6,1.1-.5-7.7,4-15.1,3.6-23a31.7,31.7,0,0,0-6.4-17.5c-1.1-1.5-3.6-.2-2.6,1.5l1.8,3c.8,1.4,3.4.5,2.7-1.2a6.57,6.57,0,0,0-1.7-2.9c-1.1-1.3-3.3.4-2.4,1.8a62.17,62.17,0,0,1,6.7,13.7l2.7-1.2c-.3-.9-.5-1.9-.8-2.8-1,.3-1.9.5-2.9.8a26.27,26.27,0,0,1,.6,4.9c1-.1,2-.3,2.9-.4a37.42,37.42,0,0,0-1.2-4.8c-1,.3-1.9.5-2.9.8a18.17,18.17,0,0,1,1.3,7.3c1-.1,2-.3,2.9-.4L135.2,54c-.5-1.9-3.2-1.1-2.9.8.2,1.4.5,2.8.7,4.2,1-.3,1.9-.5,2.9-.8-.5-2.3-1.1-4.5-1.8-6.8-.5-1.6-3.2-1.3-2.9.4.2,2,.5,4,.7,6s3.1,2,3,0a35.07,35.07,0,0,0-1.8-9,1.51,1.51,0,0,0-2.9.8c.6,3.2,1.2,6.5,1.8,9.7,1-.3,1.9-.5,2.9-.8-1.7-4.9-1.7-10.1-4.5-14.6a1.48,1.48,0,0,0-2.7.4c-1,3.4.7,6.8,1.6,10.1,1-.3,1.9-.5,2.9-.8a29.48,29.48,0,0,0-3.6-8.1,1.5,1.5,0,0,0-2.7,1.2c.8,3.2,1.5,6.4,2.3,9.5l2.7-1.2c-1.1-2.3-2-4.6-2.9-7-.6-1.8-3.5-1.1-2.9.8.9,3,1.9,5.9,2.9,8.9a1.51,1.51,0,0,0,2.9-.8c-.2-.9-.4-1.8-.6-2.6-.4-1.9-3.2-1.1-2.9.8a12.68,12.68,0,0,0,1.9,5,1.49,1.49,0,0,0,2.7-1.2,28.58,28.58,0,0,0-6.1-13.2c-1.1-1.4-3.1.4-2.4,1.8,2.3,4.7,5,9.4,5.7,14.7.7,5.1-.2,10.1-1.3,15.1-.4,1.6,2,2.8,2.7,1.2.5-1,.9-2,1.4-3-.9-.3-1.9-.5-2.8-.8a58.68,58.68,0,0,0-.5,5.9c-.1,1.6,2,1.9,2.8.8.6-.6,1.2-1.2,1.8-1.7l-2.1-2.1a66.56,66.56,0,0,1-4.5,8.3c.9.5,1.7,1,2.6,1.5a13.32,13.32,0,0,0,1-2.8,1.5,1.5,0,0,0-2.7-1.2,50.28,50.28,0,0,0-4.1,7.1,1.52,1.52,0,0,0,2.4,1.8,8.59,8.59,0,0,0,3-4.5,1.52,1.52,0,0,0-2.5-1.5c-1.3,1.3-3.2,5.6-4.8,6.1.5.8,1,1.7,1.5,2.5.3-.4.6-.7.9-1.1a1.53,1.53,0,0,0-1.8-2.4c-.3.1-.6.3-.9.4l2.1,2.1c7-9.6,13.1-24,10.5-36a119.48,119.48,0,0,0-5.6-18.5c-1.8-4.7-3.6-8.7-8.3-11.2a1.56,1.56,0,0,0-2.1,2.1c2.9,5.2,6.9,9.9,10.5,14.7.9,1.2,3.4.6,2.7-1.2-1.9-5.3-4.3-10-9-13.4-1.2-.9-2.8.8-2.1,2.1,1.7,2.7,3.4,5.5,5.1,8.2,1,1.7,3.4.2,2.6-1.5a16.64,16.64,0,0,0-3.8-5.3c-1.3-1.3-3,.3-2.4,1.8,1.2,2.7,2.5,5.4,3.7,8.1.9-.5,1.7-1,2.6-1.5-1.9-2.7-3.8-5.1-6.8-6.6a1.57,1.57,0,0,0-2.1,2.1c1.8,3.3,3.6,6.6,5.3,9.9.9-.5,1.7-1,2.6-1.5a58.07,58.07,0,0,0-4-5.7c-1.1-1.5-3.7-.2-2.6,1.5,1,1.5,1.9,3.1,2.9,4.6a1.5,1.5,0,0,0,2.6-1.5c-1.8-3.3-4.1-6.6-8-7.1-1.3-.2-2,1.8-1.1,2.6a17.34,17.34,0,0,0,7,3.6,1.53,1.53,0,0,0,1.5-2.5c-.9-.8-1.8-1.7-2.7-2.5a1.49,1.49,0,0,0-2.1,2.1,26.07,26.07,0,0,1,3.4,4.6c.9-.5,1.7-1,2.6-1.5-1.1-1.7-2.2-3.5-3.3-5.2L120.6,41a38.94,38.94,0,0,1,3.8,4.3c1.9,1.8,4.5.3,3.4-1.3Z" transform="translate(-62.32 -23.16)"/><path class="cls-2" d="M75.7,89.1c-4.9-2.3-6.5-9.1-8-13.9-1.7-5.6-2.3-11.3-.4-16.9.2-.7-.9-1-1.2-.3C64,64.4,65,70.8,67.2,77.2c1.6,4.7,3.1,10.6,8,12.9.6.3,1.2-.7.5-1Z" transform="translate(-62.32 -23.16)"/><path class="cls-2" d="M72.3,56.8c1.1-5.9,6.2-12.3,9.9-16.8.5-.6-.4-1.5-.8-.8-3.9,4.8-9,11.1-10.2,17.3-.2.7,1,1,1.1.3Z" transform="translate(-62.32 -23.16)"/><path class="cls-2" d="M121.8,38.5c5.1,5,9.4,11.5,10.9,18.5.2.8,1.3.4,1.2-.3-1.6-7.2-5.9-13.8-11.2-19-.6-.6-1.5.2-.9.8Z" transform="translate(-62.32 -23.16)"/><path class="cls-2" d="M125.3,93c2.9-4.9,5.6-9.8,8.3-14.8.4-.7-.7-1.3-1-.6-2.7,5-5.5,9.9-8.3,14.8-.5.7.6,1.3,1,.6Z" transform="translate(-62.32 -23.16)"/><path class="cls-1" d="M93.9,43.3c.1-.1.3-.2.4-.3a.56.56,0,0,0-.1-.9,1,1,0,0,1-.5-.4c-.2.3-.5.6-.7.9.1.1.3.2.4.3.2-.3.4-.7.6-1l-1.2-.6c-.6-.3-1.3.5-.7.9.4.3.7.7,1.1,1,.1-.3.3-.7.4-1h-.1c-.5-.6-1.4.3-.8.8a1.28,1.28,0,0,0,1,.4c.5,0,.8-.7.4-1s-.7-.7-1.1-1c-.2.3-.5.6-.7.9l1.2.6a.58.58,0,0,0,.6-1c-.1-.1-.3-.2-.4-.3a.57.57,0,0,0-.7.9,5.55,5.55,0,0,0,.8.6c0-.3-.1-.6-.1-.9-.1.1-.3.2-.4.3-.9.4,0,1.2.6.8Z" transform="translate(-62.32 -23.16)"/><path class="cls-1" d="M76.5,39.3c0,.2-.1.3-.1.5-.1.7.7,1.1,1.1.5.2-.3.3-.5.6-.6l-.8-.8c-.3.6-.7,1.2-1,1.8.3.2.7.4,1,.6a5.94,5.94,0,0,1,.4-.8l-1.1-.3a5.27,5.27,0,0,1-.3,1.2c-.3.7.9,1,1.2.3a3.13,3.13,0,0,1,.5-1c-.4,0-.7-.1-1.1-.1l-.1.1c-.6.5.3,1.4.8.8a1.25,1.25,0,0,0,.4-1.3c0-.6-.7-.6-1-.2a5.39,5.39,0,0,0-.7,1.3l1.2.3a4,4,0,0,0,.3-1.5c.1-.6-.9-.8-1.1-.3a5.94,5.94,0,0,1-.4.8c-.3.7.7,1.3,1,.6s.7-1.2,1-1.8-.3-1.2-.8-.8a2.66,2.66,0,0,0-1,1.1c.4.2.7.3,1.1.5,0-.2.1-.3.1-.5.2-.8-1-1.1-1.2-.4Z" transform="translate(-62.32 -23.16)"/><path class="cls-1" d="M110.3,40.6a2.41,2.41,0,0,1-2,.3c-.1.4-.1.8-.2,1.2.5,0,.9.1,1.4.1a.62.62,0,0,0,.2-1.2,2,2,0,0,0-.8-.1.62.62,0,0,0-.2,1.2c.2.1.3.2.5.3.1-.3.3-.7.4-1-1.2,0-2.5.1-3.7.2a20.76,20.76,0,0,0-2.4.6v.6c.2.1.4.1.4-.1-.5.6.3,1.4.8.8,1.4-1.5-2.1-3-2.3-1.2-.1.9.8,1.2,1.5,1a9.3,9.3,0,0,1,2.4-.5c1.1-.1,2.2-.1,3.3-.1.5,0,.8-.7.4-1a3.33,3.33,0,0,0-1-.6c-.1.4-.1.8-.2,1.2.1,0,.3.1.4.1.1-.4.1-.8.2-1.2a6.6,6.6,0,0,1-1.4-.1c-.7-.1-.7,1-.2,1.2a3,3,0,0,0,3-.4c.8-.7.2-1.7-.5-1.3Z" transform="translate(-62.32 -23.16)"/><path class="cls-3" d="M77.1,93.9c-3.2-1.8-6.6-3.6-8.7-6.7s-2.9-7.4-3.7-11.1a44.71,44.71,0,0,1,.4-22.4A41.44,41.44,0,0,1,76.3,35.1c4.9-4.7,14.1-11.5,21.4-10a.62.62,0,0,0,.3-1.2c-6.8-1.3-14.6,3.7-19.6,7.8a43.05,43.05,0,0,0-14,20.1,47.35,47.35,0,0,0-.9,24.5c.9,4.3,1.8,9.1,4.7,12.5,2.2,2.7,5.3,4.4,8.3,6,.7.5,1.3-.6.6-.9Z" transform="translate(-62.32 -23.16)"/><path class="cls-3" d="M75.4,94.3a14.87,14.87,0,0,0,4.5,1.9.62.62,0,0,0,.6-1c-2.5-2.6-3.7-6.1-4.8-9.5-.2-.7-1.4-.4-1.2.3,1.2,3.6,2.4,7.2,5.1,10,.2-.3.4-.7.6-1A15.67,15.67,0,0,1,76,93.2c-.6-.4-1.2.7-.6,1.1Z" transform="translate(-62.32 -23.16)"/><path class="cls-3" d="M83.6,40.8c-10.1,10-12.8,24-11.3,37.7.1.8,1.3.8,1.2,0-1.5-13.4,1.1-27.1,11-36.9.5-.5-.4-1.4-.9-.8Z" transform="translate(-62.32 -23.16)"/><path class="cls-3" d="M77.7,92.7a16.83,16.83,0,0,1,2.9,2.4.6.6,0,0,0,1-.3c0-.3.1-.5.1-.8a3.55,3.55,0,0,0-.9.4c.5.2,1,.5,1.5.7s1,0,.9-.5a1.27,1.27,0,0,0-.1-.6c-.3.2-.6.3-.9.5a7.61,7.61,0,0,1,1.9,1.2.52.52,0,0,0,.8-.2c-.1.3,3.7,1.3,3.8,1.3.7.2,1.1-1,.3-1.2a12.37,12.37,0,0,1-2.9-1c-.4-.2-.5-.4-1-.4a1.21,1.21,0,0,0-1.2.7c.3-.1.5-.1.8-.2a12.23,12.23,0,0,0-1.9-1.2c-.4-.2-1,0-.9.5a1.27,1.27,0,0,0,.1.6c.3-.2.6-.3.9-.5-.5-.2-1-.5-1.5-.7-.3-.1-.8-.1-.9.4,0,.3-.1.5-.1.8.3-.1.7-.2,1-.3a15.85,15.85,0,0,0-3.2-2.6c-.6-.5-1.2.6-.5,1Z" transform="translate(-62.32 -23.16)"/><path class="cls-3" d="M94.5,24.9c8.3-1.6,18.5,0,25.7,4.7,6.6,4.3,13.4,13.4,15.8,20.8s3,19.7-.4,26.5-7.3,15.9-14.2,19.6c.3.2.6.5.9.7a103.38,103.38,0,0,1,4.9-10.7c.4-.7-.7-1.3-1-.6a109,109,0,0,0-5,11c-.2.5.5.9.9.7,7.5-4,12.1-14.1,15.4-21.5,1.9-4.3,1.4-8.9,1.3-13.5s-.4-9.5-2.1-14c-2.8-7.1-9.3-15.8-15.8-20-7.5-4.8-18-6.5-26.6-4.8-.8.1-.5,1.3.2,1.1Z" transform="translate(-62.32 -23.16)"/><path class="cls-3" d="M116.5,40.2c11.1,10.6,14.3,23.6,11.1,38.5a.62.62,0,0,0,1.2.3c3.3-15.4,0-28.8-11.4-39.7-.6-.5-1.5.3-.9.9Z" transform="translate(-62.32 -23.16)"/><path class="cls-3" d="M82.5,42.5a3.36,3.36,0,0,0,.4,2.2.58.58,0,1,0,1-.6,2.77,2.77,0,0,1-.3-1.3c.2-.8-1-1.1-1.1-.3Z" transform="translate(-62.32 -23.16)"/><path class="cls-3" d="M84,45.1c.8-.2,1.5-.5,2.3-.7s.4-1.4-.3-1.2-1.5.5-2.3.7-.4,1.4.3,1.2Z" transform="translate(-62.32 -23.16)"/><path class="cls-3" d="M86.2,44.6a2.42,2.42,0,0,0,2.8-.5c.6-.5-.3-1.4-.8-.8a1.44,1.44,0,0,1-1.4.3.63.63,0,0,0-.8.2.52.52,0,0,0,.2.8Z" transform="translate(-62.32 -23.16)"/><path class="cls-3" d="M88.6,44a3.21,3.21,0,0,0,2,1,1.8,1.8,0,0,0,1.6-.9c.4-.7-.7-1.3-1-.6s-1.3-.1-1.6-.4c-.7-.5-1.6.4-1,.9Z" transform="translate(-62.32 -23.16)"/><path class="cls-3" d="M92.3,44.5a1,1,0,0,1,1.2.7c.3.7,1.4.1,1-.6a2.36,2.36,0,0,0-2.3-1.3c-.7.1-.7,1.3.1,1.2Z" transform="translate(-62.32 -23.16)"/><path class="cls-3" d="M94.8,45.6a6.1,6.1,0,0,0,1.6-1.2c.6-.5-.3-1.4-.8-.8a7.1,7.1,0,0,1-1.4,1,.58.58,0,1,0,.6,1Z" transform="translate(-62.32 -23.16)"/><path class="cls-3" d="M96.3,44.6c.8.2,1.5.5,2.3.7a.62.62,0,0,0,.3-1.2c-.8-.2-1.5-.5-2.3-.7s-1,.9-.3,1.2Z" transform="translate(-62.32 -23.16)"/><path class="cls-3" d="M99.7,45.2c.6-.3,1.2-.6,1.7-.9a.58.58,0,1,0-.6-1c-.6.3-1.2.6-1.7.9-.7.3-.1,1.3.6,1Z" transform="translate(-62.32 -23.16)"/><path class="cls-3" d="M101.5,44.3a1.7,1.7,0,0,1,.7.1.62.62,0,0,0,.3-1.2,5.7,5.7,0,0,0-1.3-.1c-.8.1-.4,1.3.3,1.2Z" transform="translate(-62.32 -23.16)"/><path class="cls-3" d="M102.6,44.4a2.59,2.59,0,0,0,1.1.7.62.62,0,0,0,.3-1.2,3.33,3.33,0,0,1-.6-.3c-.5-.6-1.4.3-.8.8Z" transform="translate(-62.32 -23.16)"/><path class="cls-3" d="M104.7,45.2a3,3,0,0,0,.8-.4c.7-.3.1-1.4-.6-1a3,3,0,0,0-.8.4c-.7.3-.1,1.4.6,1Z" transform="translate(-62.32 -23.16)"/><path class="cls-3" d="M106.2,44.4c.3-.2.7-.3,1-.5.7-.3.1-1.4-.6-1-.3.2-.7.3-1,.5-.7.3-.1,1.4.6,1Z" transform="translate(-62.32 -23.16)"/><path class="cls-3" d="M106.8,44c.7.2,1.3.4,2,.6a.62.62,0,0,0,.3-1.2c-.7-.2-1.3-.4-2-.6s-1,.9-.3,1.2Z" transform="translate(-62.32 -23.16)"/><path class="cls-3" d="M109.3,44.7h1a.6.6,0,1,0,0-1.2h-1a.6.6,0,1,0,0,1.2Z" transform="translate(-62.32 -23.16)"/><path class="cls-3" d="M110.9,44.6a4,4,0,0,1,1.5-.3.6.6,0,1,0,0-1.2,5.66,5.66,0,0,0-1.8.3c-.7.2-.4,1.4.3,1.2Z" transform="translate(-62.32 -23.16)"/><path class="cls-3" d="M113.2,44c.3-.2.5-.4.8-.6.6-.5-.2-1.3-.8-.8-.3.2-.5.4-.8.6-.7.5.2,1.3.8.8Z" transform="translate(-62.32 -23.16)"/><path class="cls-3" d="M113.7,43.4c.3-.2.7-.3,1-.5.7-.3.1-1.4-.6-1-.3.2-.7.3-1,.5-.7.3-.1,1.4.6,1Z" transform="translate(-62.32 -23.16)"/><path class="cls-3" d="M114.5,43.1a1,1,0,0,1,.9.2.58.58,0,1,0,.6-1,2.89,2.89,0,0,0-1.8-.3c-.7,0-.4,1.2.3,1.1Z" transform="translate(-62.32 -23.16)"/><path class="cls-3" d="M115.9,43.4a2.09,2.09,0,0,1,.6.4.58.58,0,1,0,.6-1,2.09,2.09,0,0,1-.6-.4c-.6-.4-1.2.6-.6,1Z" transform="translate(-62.32 -23.16)"/><path class="cls-3" d="M117.4,44.1l1-.3c.7-.2.4-1.3-.3-1.2l-1,.3c-.8.2-.4,1.4.3,1.2Z" transform="translate(-62.32 -23.16)"/><path class="cls-3" d="M118.8,43.8a.35.35,0,0,0,.2-.1c.7-.3.1-1.4-.6-1a.35.35,0,0,0-.2.1c-.7.3-.1,1.3.6,1Z" transform="translate(-62.32 -23.16)"/><path class="cls-3" d="M120.2,96.1c.2-.4.7-.6,1-.3.6.5,1.4-.4.8-.8a1.87,1.87,0,0,0-2.9.6c-.3.6.8,1.2,1.1.5Z" transform="translate(-62.32 -23.16)"/><path class="cls-3" d="M111.7,96.7c.4-1,1.3-.7,2.1-.7.1-.1.3-.2.4-.3a.86.86,0,0,1,.6.3c.2,0,.5.2.7.2.7-.1.9-.8,1.4-.9a11.27,11.27,0,0,0,1.8.3.56.56,0,0,0,.9-.1c.4.1.8.1,1.3.2.7.4,1.3-.7.6-1-1.1-.6-2.1-.9-2.9.3.3,0,.6-.1.9-.1a1.39,1.39,0,0,0-1-.5c-.5-.1-.7,0-1.1-.1-1.1-.2-.9-.1-1.8.4-.4.2-.1.2-.6.2-.1,0-.5-.3-.6-.3-.4,0-.7.2-1.1.2-1.5.1-2-.1-2.7,1.5-.2.5.8,1.1,1.1.4Z" transform="translate(-62.32 -23.16)"/></svg>