<svg id="Layer_1" data-name="Layer 1" xmlns="http://www.w3.org/2000/svg" viewBox="0 0 73.16 103.51"><defs><style>.cls-1{fill:#ef7a22;}.cls-2{fill:#100d0c;}.cls-3{fill:#ed8622;}</style></defs><title>Orange</title><path class="cls-1" d="M115.4,97.8c3.8,0,3.8-6,0-6s-3.8,6,0,6Z" transform="translate(-63.19 -27.09)"/><path class="cls-1" d="M127.5,63.8h0a3.17,3.17,0,0,0,3,3.1,3.08,3.08,0,0,0,3-3v-.1a3.08,3.08,0,0,0-3-3,3,3,0,0,0-3,3Z" transform="translate(-63.19 -27.09)"/><path class="cls-1" d="M115.9,91.9a8.55,8.55,0,0,1-1.6,0c.3,0,.5.1.8.1-.2,0-.5-.1-.7-.1a3.15,3.15,0,0,0-3.4,1.4,4.19,4.19,0,0,0-.4,1.5,3.33,3.33,0,0,0,.9,2.1l.2.2a2.72,2.72,0,0,0,2.1.9,2.88,2.88,0,0,0,2.1-.9,2.9,2.9,0,0,0,0-4.2l-.2-.2c-1,1.7-1.9,3.3-2.9,5a10.8,10.8,0,0,0,3.1.2,3.08,3.08,0,0,0,3-3,3.08,3.08,0,0,0-3-3Z" transform="translate(-63.19 -27.09)"/><path class="cls-1" d="M89.8,121.1c-.4-.1-.7-.3-1.1-.4-2.7-1-5.2,3.2-2.9,5a8,8,0,0,1,2.3,2.2c1-1.7,1.9-3.3,2.9-5a32.56,32.56,0,0,0-6.2-.6c-3.6,0-3.7,4.6-.8,5.8a2.93,2.93,0,0,0,3.1-.4c2.2-1.5,1.7-5.8-1.5-5.5-4.7.3-10.8,1.1-11.8-4.6a12.41,12.41,0,0,1-.3-2.7,9.86,9.86,0,0,1,.7-3.8c-1.8-2.7-2.2-2.4-1.3.9-.5,2.9-.6,3.6-.1,2.2,1-.3,1.9-.5,2.9-.8a9.65,9.65,0,0,0,1.4-3.8c-1.1.5-2.2.9-3.4,1.4,0,0,.7,4.9.6,5,1.2-.2,2.4-.3,3.6-.5a1.45,1.45,0,0,0-.7-1.8c-1-.3-1.9-.5-2.9-.8.3,1.1.6,2.1.8,3.2h2.8c-.9-.5-1.7-1-2.6-1.5,1.2,1.6.7,3.9.2,5.6,1.7-.4,3.3-.9,5-1.3-4.3-4.9-1.9.6-1.8,3l5.1-2.1c-3.6-1.7-4.9-1.6-3.8.4a8.78,8.78,0,0,1,.7,2.3c1.8-.8,3.6-1.5,5.4-2.3a4.43,4.43,0,0,1-1.1-2c-.9.5-1.7,1-2.6,1.5a1.27,1.27,0,0,1,.6.1c-.9-.5-1.7-1-2.6-1.5,1.1,1.4,1.6,3.5,2.1,5.2,1,3,6.1,2.7,5.8-.8l-.3-3.9-5.5,1.5c.8,1.4,1.7,2.8,2.5,4.1,1.6,2.7,5.2,1.3,5.5-1.5a15,15,0,0,0,.2-2.2l-5.5,1.5c.2.5.4.9.6,1.4,1.9-.5,3.8-1.1,5.7-1.6a28.44,28.44,0,0,1-1.9-9.1c-1.9.3-3.9.5-5.8.8a13.59,13.59,0,0,1,.7,3.5h6a112.32,112.32,0,0,1-.4-16.4c.1-4,.3-7.2-3.6-9.3-.5,1.8-1,3.7-1.5,5.5a25.12,25.12,0,0,1,2.7.4c-.3-1.9-.5-3.9-.8-5.8-2.8.5-7.7-4.2-9.5-5.8a3,3,0,0,0-4.7,3.6c1.7,3.5,4.7,8.1,5,12l5.5-1.5a8.9,8.9,0,0,1-1.5-5L76.6,97c2.5,3.2,2.1,8.2,1.8,11.9,1.9-.3,3.9-.5,5.8-.8a23.59,23.59,0,0,1,0-7.5c-1.8.2-3.6.5-5.4.7,1.3,2.2,1.2,4.2.9,6.7,1.9-.3,3.9-.5,5.8-.8a10.54,10.54,0,0,1-.3-7.8c-1.9-.3-3.9-.5-5.8-.8a77.5,77.5,0,0,1-.2,11.8h6c.1-1.1.1-2.3.2-3.4-1.9.3-3.9.5-5.8.8a26.52,26.52,0,0,1,.5,5.6c-.1,3.9,5.7,3.8,6,0a7.49,7.49,0,0,0-2.3-6c-3.1-3.5-5-6-6.4-10.5-1.1-3.7-6.6-2.2-5.7,1.6.4,1.8,1,3.5,1.5,5.3.9,3.6.3,4.5-1.7,7.4-.4.6-3.8,6.7-1.4,6.5.9.5,1.7,1,2.6,1.5-1.8-3.2-2.1-8.7-2.4-12.2-1.9.3-3.9.5-5.8.8-.1.7-.1,1.5-.2,2.2,1.9.3,3.9.5,5.8.8a83,83,0,0,1,2.3-16.6c-1.9-.3-3.9-.5-5.8-.8a52.09,52.09,0,0,0,.8,10.4c.6,3.3,5.9,2.5,5.8-.8a30.25,30.25,0,0,1,.3-5.2H67.8a32.32,32.32,0,0,1,.7,6.9c.1,3.8,6,3.8,6,0,0-2.9-.2-5.7-.4-8.6-.3-3.8-6-3.9-6,0a17.4,17.4,0,0,0,.8,5c1,3.2,5.8,2.6,5.8-.8,0-2.3.1-4.6.1-7-1.9.3-3.9.5-5.8.8l.6,3.3c.6,3.3,5.9,2.5,5.8-.8a38,38,0,0,0-.6-5.8c-.6-3.3-6.1-2.6-5.8.8.3,4.3-2.7,7.2-4.5,10.8l5.5,1.5c.1-.4.1-.8.2-1.2,1.6-3.4-3-6.2-5.1-3a6.07,6.07,0,0,1-.7,1l4.7-.6c1.1,1.1.2,1.4.7-.7a39.06,39.06,0,0,0,.5-4.8c.3-2.9.6-5.8,1-8.7.4-3.8-5.5-3.7-6,0a26.75,26.75,0,0,0-.1,4.9,3,3,0,0,0,6,0,61.83,61.83,0,0,1,1.3-7.5H66.8a24.16,24.16,0,0,1,.5,4.7c.3,3.8,5.9,3.9,6,0,0-1.5,0-3.1.1-4.6-1.9.3-3.9.5-5.8.8.3,1.6.5,3.3.7,4.9.4,3.8,5.8,3.9,6,0,.1-1.8.1-3.6.2-5.5-1.9.3-3.9.5-5.8.8.2,1.3.4,2.6.7,4,.6,3.3,5.9,2.5,5.8-.8,0-1.3-.1-2.7-.1-4h-6a31,31,0,0,0,.8,4.2c.9,3.4,5.6,2.4,5.8-.8.1-.8.1-1.6.2-2.4-1.9.3-3.9.5-5.8.8.2.6.3,1.1.5,1.7.9,3.1,6.2,2.7,5.8-.8-.4-3.2-.9-6.4-1.6-9.5-.8-3.7-6.6-2.2-5.7,1.6a70.36,70.36,0,0,1,1.4,8c1.9-.3,3.9-.5,5.8-.8-.2-.6-.3-1.1-.5-1.7-1-3.3-5.6-2.5-5.8.8-.1.8-.1,1.6-.2,2.4,1.9-.3,3.9-.5,5.8-.8-.2-.9-.4-1.7-.6-2.6-.5-3.7-6-4-6,0,0,1.3.1,2.7.1,4,1.9-.3,3.9-.5,5.8-.8-.2-1.3-.4-2.6-.7-4-.6-3.4-5.7-2.4-5.8.8-.1,1.8-.1,3.6-.2,5.5h6c-.2-2.2-.5-4.3-.9-6.5-.6-3.4-5.8-2.5-5.8.8,0,1.5,0,3.1-.1,4.6h6a61.73,61.73,0,0,0-.8-6.2c-.5-2.9-5.1-2.7-5.7,0A69.07,69.07,0,0,0,65.4,91h6a15.35,15.35,0,0,1-.2-5.2h-6c-.5,4.2-.9,8.4-1.4,12.5-.2,2.2-.8,4.2.9,5.9a3,3,0,0,0,4.7-.6,6.07,6.07,0,0,1,.7-1l-5.1-3a7.69,7.69,0,0,0-1,4.2c0,2.9,4.2,4.2,5.5,1.5,2.4-4.8,5.8-8.1,5.4-13.8-2,.3-3.9.5-5.9.8a19.92,19.92,0,0,1,.4,4.2c1.9-.3,3.9-.5,5.8-.8l-.6-3.3c-.7-3.4-5.8-2.5-5.8.8,0,2.3-.1,4.6-.1,7,1.9-.3,3.9-.5,5.8-.8a7.89,7.89,0,0,1-.6-3.4h-6c.2,2.9.4,5.7.4,8.6h6a58.33,58.33,0,0,0-.9-8.4c-.5-2.8-5.3-2.9-5.7,0a50.35,50.35,0,0,0-.5,6.7c1.9-.3,3.9-.5,5.8-.8a43.43,43.43,0,0,1-.6-8.8c.1-3.3-5-4.1-5.8-.8a86.68,86.68,0,0,0-2.5,18.2c-.1,3.5,4.8,3.8,5.8.8a9.89,9.89,0,0,0,.2-5.4c-.5-3.3-6.1-2.5-5.8.8.4,4.8.8,11,3.2,15.2a3.11,3.11,0,0,0,2.6,1.5c2.1-.2,2.9-.9,3.9-2.7,1.4-2.6,1.5-4.8,3.3-7.1,4.1-5.4,1.7-11,.2-16.9-1.9.5-3.8,1.1-5.7,1.6a32.94,32.94,0,0,0,3.1,7.5c1.2,2,5.5,5.4,5.4,7.5h6a34.48,34.48,0,0,0-.7-7.2c-.7-3.4-5.7-2.4-5.8.8-.1,1.1-.1,2.3-.2,3.4-.2,3.9,5.7,3.8,6,0a77.5,77.5,0,0,0,.2-11.8,3,3,0,0,0-5.8-.8,15,15,0,0,0,.3,11c1.3,3.1,5.5,2.7,5.8-.8a14.93,14.93,0,0,0-1.8-9.7c-1.2-2-5-1.9-5.4.7a34.25,34.25,0,0,0,0,10.6c.5,3.5,5.6,2.3,5.8-.8.5-5.7,0-11.5-3.6-16.1-1.6-2-5.2-.3-5.1,2.1a17.24,17.24,0,0,0,2.3,8c1.4,2.4,5.8,1.5,5.5-1.5-.5-5.2-3.6-10.3-5.8-15-1.6,1.2-3.1,2.4-4.7,3.6,4.2,3.6,9.4,8.4,15.3,7.3,3.6-.6,2.2-5.5-.8-5.8a25.12,25.12,0,0,1-2.7-.4c-3-.4-3.9,4.2-1.5,5.5,1.8,1,.6,8.8.6,10.7a79.5,79.5,0,0,0,.4,9.8c.5,3.7,6.3,3.9,6,0a21.81,21.81,0,0,0-.9-5.1c-.9-3.2-6-2.6-5.8.8A35.66,35.66,0,0,0,86,123.5c1.3,3.5,6.8,2.2,5.7-1.6a8.79,8.79,0,0,0-1.2-2.8c-1.6-2.7-5.2-1.3-5.5,1.5a15,15,0,0,0-.2,2.2l5.5-1.5c-.8-1.4-1.7-2.8-2.5-4.1-1.4-2.4-5.8-1.6-5.5,1.5l.3,3.9c1.9-.3,3.9-.5,5.8-.8-1.1-3.3-1.8-7.8-5.9-8.1a2.79,2.79,0,0,0-2.6,1.5c-1.3,2.7-.6,5.7,1.1,8.1,2,2.7,6.2,1.2,5.4-2.3-.7-3.2-2.7-8.9-7.1-6.9s-2.3,7.6.3,10c1.8,1.7,5.2.6,5.1-2.1-.2-3.8-1-11.8-6.8-10-5.1,1.6-4.4,8.1-1.6,11.3,1.6,1.8,4.3.7,5-1.3,1.3-4.2.2-15.7-6.7-10.5-4.1,3-2.2,12.4,3.6,10,4.9-2,3.9-13.1-1.7-13.4-6.3-.3-5.3,10.3-1.6,12.8a2.89,2.89,0,0,0,3.6-.5c2.8-3.5,2.4-14.1-3.2-14.9a3.31,3.31,0,0,0-3.4,1.4c-2.1,3.1-1.9,15.5,4.5,12.2,4.4-2.2,3.4-13.4-1.4-14.7-7-1.8-7.8,10.2-7.1,14.3,1.6,9.2,9.5,10.2,17.7,9.7-.5-1.8-1-3.7-1.5-5.5.5-.1,1-.1,1.5-.2-.3,1.9-.5,3.9-.8,5.8a15,15,0,0,1,4.7.4,3,3,0,0,0,2.9-5,8,8,0,0,0-2.3-2.2c-1,1.7-1.9,3.3-2.9,5,.4.1.7.3,1.1.4,3.5,1.1,5.1-4.7,1.5-6Z" transform="translate(-63.19 -27.09)"/><path class="cls-1" d="M78.3,93a10,10,0,0,0-1-1.1c-2-3.3-6.8-.4-5.1,3,0,.1,0,.1.1.2.7-1.2,1.4-2.4,2.1-3.7-.2,0-.3.1-.5.1,1,.3,1.9.5,2.9.8-1.4-1.1-2.1-3.3-2.6-4.8-1-2.7-4.9-3-5.7,0-1,1.7-.2,2.8,2.3,3.2l-.6-2.1c-.6-2.3-4.3-3.1-5.4-.7-.3.7-.7,1.4-1,2.2l5.5,1.5c.8-8.4,3.9-16.8,4.2-25.2a3.08,3.08,0,0,0-3-3c-3.8.2-4.8,2.9-5.2,6.3-.4,3.6-2.2,9.1.6,12.1a2.86,2.86,0,0,0,2.9.8c3.1-.9,3.6-4.4,4.3-7.2H67.4a19.57,19.57,0,0,1,1.2,3.4c.9,3.5,5.4,2.3,5.8-.8.5-4.1-.1-8.1.1-12.2.2-3.8-5.7-3.8-6,0-.3,4.1.4,8.1-.1,12.2,1.9-.3,3.9-.5,5.8-.8A10.63,10.63,0,0,0,73,73.8c-1-2.5-4.9-3.1-5.7,0-.1.3-1.4,3.4-.2,3,1,.3,1.9.5,2.9.8.1.1.7-4,.8-4.5.1-.8.2-1.7.3-2.5.7-1.9.5-2.3-.7-1.2l-3-3c-.1,4.4-1.7,8.9-2.5,13.2-.7,4-1.3,8-1.7,12-.3,2.9,4.4,4.2,5.5,1.5.3-.7.6-1.4,1-2.2-1.8-.2-3.6-.5-5.4-.7.7,2.5,1.4,5.6,4.7,5.6,3.6,0,4.3-3.9,5.1-6.7H68.4c1.2,3.3,3,9.2,7.6,8.1a3.11,3.11,0,0,0,2.1-3.7,4.59,4.59,0,0,0-.7-1.6l-5.1,3a8.34,8.34,0,0,0,1.9,2.3c2.8,2.5,7-1.7,4.1-4.2Z" transform="translate(-63.19 -27.09)"/><path class="cls-1" d="M97.8,40.8a9.67,9.67,0,0,0,.5,3.4c.7,2.2,4.4,3.2,5.4.7.6-1.4.8-.8,2.2-.4l1.7.3c.6.2.9.5,1.6.8,3.4,1.7,6.4-3.4,3-5.1a12.37,12.37,0,0,0-3.3-1.5c-1.3-.2-2.5-.7-3.8-.9a6.18,6.18,0,0,0-6.6,3.7c1.8.2,3.6.5,5.4.7a5.66,5.66,0,0,1-.3-1.8c.3-3.7-5.7-3.7-5.8.1Z" transform="translate(-63.19 -27.09)"/><path class="cls-1" d="M131.6,80.2a59.33,59.33,0,0,0,.2-23,43,43,0,0,0-3.1-10c-1.7-3.5-4.2-6.4-5.4-10.2-1.8.8-3.6,1.5-5.4,2.3,1.5,2.4,3.8,4,5.1,6.5a36.18,36.18,0,0,1,2.7,9.6c.6,3.3,5.9,2.5,5.8-.8a16.87,16.87,0,0,0-.8-5c-1-3.7-6.6-2.1-5.7,1.6,2.5,10.8,2,21.8,4.1,32.6.7,3.8,6.3,2.1,5.7-1.6-.4-2.8-.8-5.6-1.2-8.3-1.8.8-3.6,1.5-5.4,2.3,1,1.6.4,3.4.6,5.1s.8,3.2.6,4.9c1.5-.9,3-1.7,4.5-2.6L133,83c-2.1-1.4-5.3.9-4.4,3.4.2.4.3.9.5,1.3,1-1.3,1.9-2.5,2.9-3.8.3,0,.5.1.8.1-.7-3.8-6.3-2.1-5.7,1.6-.5-2.8,2-1.7-.3-1-.2.1-1.2,1.3-.8,1.1,1.2.2,2.4.3,3.6.5.8.8,1.9-3.8,2.2-4.6,1.6-3.5-3.6-6.5-5.1-3-1.5,3.2-4.3,8.7-1.3,11.8a3,3,0,0,0,3.6.5,4.69,4.69,0,0,0,2.7-3.4l-2.1,2.1c2.7-1,3.6-2.8,3.2-5.5-1.9.5-3.8,1.1-5.7,1.6.5,2.6,2.2,4.4,4.9,4.3,1.8-.1,3.6-1.8,2.9-3.8-.2-.4-.3-.9-.5-1.3-1.5,1.1-2.9,2.2-4.4,3.4l.9.6c2,1.3,4.3-.5,4.5-2.6.2-2.7-.4-5.7-.7-8.4a9.56,9.56,0,0,0-1.4-4.7c-1.9-3.1-5.9-.9-5.4,2.3.4,2.8.8,5.6,1.2,8.3,1.9-.5,3.8-1.1,5.7-1.6-2.1-10.8-1.6-21.8-4.1-32.6-1.9.5-3.8,1.1-5.7,1.6a10.16,10.16,0,0,1,.6,3.4c1.9-.3,3.9-.5,5.8-.8a43.32,43.32,0,0,0-2.7-9.8c-1.4-3.2-3.9-5-5.7-7.8s-6.5-1-5.4,2.3c1.8,6,6.1,10.6,7.7,16.7a52.41,52.41,0,0,1,.6,23.3c-.7,3.9,5,5.5,5.7,1.7Z" transform="translate(-63.19 -27.09)"/><path class="cls-1" d="M125.6,83.4a50,50,0,0,1-10.1,7.7c-2.7,1.5-4.1,1.8-4.5,5-1.1,8.1,1.6,17.3-1,25,1.9.3,3.9.5,5.8.8.3-2.4.5-4.8.8-7.2.4-3.3-5.3-4.1-5.8-.8-.7,4.3-1.6,8.4-2.7,12.6a3.08,3.08,0,0,0,3.7,3.7c1.6-.4,3.3-.8,4.9-1.1-.8-1.8-1.5-3.6-2.3-5.4-.3.2-.7.3-1,.5-3.1,1.5-.9,6.2,2.3,5.4,2-.5,3.9-.9,5.9-1.2-.5-1.9-1.1-3.8-1.6-5.7a27.73,27.73,0,0,0-2.6,1l3.7,3.7c.9-1.5.6-1.9-1-1.3-.5-.9-1-1.7-1.5-2.6-.2.6-.3,1.3-.5,1.9-.5,2.3,2.1,5.1,4.4,3.4a6.78,6.78,0,0,1,3.5-1.7c-1.1-1.5-2.2-2.9-3.4-4.4.2-.1.4-.3.6-.4.8,1.8,1.5,3.6,2.3,5.4,1-.8,2-1.6,3.1-2.4-1.5-1.1-2.9-2.2-4.4-3.4-.1.4-.1.9-.2,1.3-.5,3.2,3.5,5.4,5.4,2.3a28.82,28.82,0,0,0,3-6.4c-1.9-.3-3.9-.5-5.8-.8l-.6,2.1c-1.2,3.1,4.1,5.4,5.4,2.3a40.38,40.38,0,0,0,3.2-8.8c.8-4,.2-8.1.8-12.1-1.9-.3-3.9-.5-5.8-.8a23.63,23.63,0,0,1,.2,4.6h6c-.2-5.6-.3-11.1-.4-16.7,0-3.1-3.9-3.8-5.5-1.5a74,74,0,0,0-8.8,16.7c1.9.3,3.9.5,5.8.8a19.06,19.06,0,0,1,2.4-8.1c-1.8-.8-3.6-1.5-5.4-2.3a39.42,39.42,0,0,1-4.4,12.3l5.5,1.5c-.5-4.1.8-7.6,2.4-11.4,1.2-2.8-3.1-5-5-2.9-1.7,1.8-2.5,4.4-4.4,6l5.1,2.1a9.69,9.69,0,0,1,2.6-6.5c-1.7-1-3.3-1.9-5-2.9a13.74,13.74,0,0,1-3.8,6.3c1.7,1,3.3,1.9,5,2.9.4-2.4,1.7-3.9,3.4-5.6-1.6-1.2-3.1-2.4-4.7-3.6a12.48,12.48,0,0,1-3.3,3.9c1.7,1,3.3,1.9,5,2.9a3.71,3.71,0,0,1,1.8-2.8c-1.7-1-3.3-1.9-5-2.9-.5.7-1,1.5-1.5,2.2l4.1,4.1a13.91,13.91,0,0,1,5.8-6.2c-1.5-1.1-2.9-2.2-4.4-3.4a5.61,5.61,0,0,1-2.6,4.1c1.5,1.1,2.9,2.2,4.4,3.4a4.52,4.52,0,0,1,1.7-3.4c-1.1-.5-2.2-.9-3.4-1.4.5.7-2.5,7.1-3,8.4-1.3,3.2-2.5,6.4-3.8,9.6,1.9.3,3.9.5,5.8.8a42.88,42.88,0,0,1,2.4-10.6c-1.9-.5-3.8-1.1-5.7-1.6a102,102,0,0,0-3.2,13.5c1.9.3,3.9.5,5.8.8a106.18,106.18,0,0,1,.5-12.6c.4-3.8-5.5-3.7-6,0-.5,4.3-1,8.5-1.6,12.8,1.9-.3,3.9-.5,5.8-.8-.5-3.4-.9-6.6-.1-10-1.9-.3-3.9-.5-5.8-.8,0,3.1.1,6.1.1,9.2,0,2.8.5,6.4-.2,9.1l2.1-2.1c-.1,0-.2.1-.3.1,1,.3,1.9.5,2.9.8-.1-.1-.2-.1-.3-.2-1,1.7-1.9,3.3-2.9,5-.5-.8-1-1.6-1.4-2.4,1.9.3,3.9.5,5.8.8.2-1.4,1-6.8,2.8-7.5l-3.8-2.9a29.12,29.12,0,0,1-1.6,8.8c1.9.3,3.9.5,5.8.8a39,39,0,0,1,5.5-16.2c-1.8-.8-3.6-1.5-5.4-2.3-1.2,5.1-2.3,10.3-3.5,15.4,1.9.5,3.8,1.1,5.7,1.6.5-3.8,1.1-7.4,3-10.8-1.8-.8-3.6-1.5-5.4-2.3q-1,4.8-1.8,9.6c-.4,2.1.8,3.5,2.9,3.8,4.1.5,4.4-4.5,4.8-7.3.9-6.3,1.6-12.6,2.2-18.9.5-6,1.6-11.7,2.4-17.5.3-2.1,1.1-3.9.9-6a69.91,69.91,0,0,0-1.9-7.9c-.9-3.7-6.7-2.1-5.7,1.6a48.49,48.49,0,0,1,1.6,6.3c.2,1.9-.7,3.7-.9,5.6-.4,3.9-1.5,7.6-1.8,11.5-.4,4.4-.6,8.8-1.1,13.2-.3,2.6-.6,5.1-.9,7.6-.2,1.6-.4,3.3-.7,4.9-.8,2.2-.4,2.5,1.2,1,1,1.3,1.9,2.5,2.9,3.8l1.8-9.6c.7-3.2-3.7-5.4-5.4-2.3a35,35,0,0,0-3.6,12.2c-.5,3.7,4.9,5.4,5.7,1.6,1.2-5.1,2.3-10.3,3.5-15.4.7-3.2-3.7-5.3-5.4-2.3a48.36,48.36,0,0,0-6.3,19.2c-.4,3.5,4.8,3.8,5.8.8a33.42,33.42,0,0,0,1.8-10.4c0-1.8-2-3.6-3.8-2.9-5,1.9-6.6,8.5-7.2,13.3-.4,3.6,4.7,3.7,5.8.8.9-2.3-.5-4.3-2.7-4.9-2.7-.7-5.3,3.1-2.9,5s5,1,5.8-1.9c.7-2.4.2-5.6.2-8.1V103c0-3.3-5.1-4.1-5.8-.8-1,4.5-.6,8.7.1,13.2.6,3.6,5.5,2.2,5.8-.8.5-4.3,1-8.5,1.6-12.8h-6a106.18,106.18,0,0,0-.5,12.6c.1,3.2,5.3,4.2,5.8.8a88.36,88.36,0,0,1,3.2-13.5c1.2-3.7-4.5-5.2-5.7-1.6a51.05,51.05,0,0,0-2.6,12.2c-.3,3.6,4.7,3.6,5.8.8,1.8-4.5,3.8-9,5.3-13.6.8-2.4,2.7-6.6.9-9a3.09,3.09,0,0,0-3.4-1.4c-3.4.9-5.1,4.3-5.8,7.5-.5,2.3,2.1,5,4.4,3.4a12.66,12.66,0,0,0,5.3-7.7,3.05,3.05,0,0,0-4.4-3.4,19.19,19.19,0,0,0-7.9,8.3c-1.2,2.4,1.4,5.9,4.1,4.1a9.54,9.54,0,0,0,4.2-5.8c.9-3.1-2.8-4.7-5-2.9a9.33,9.33,0,0,0-3.3,5.4c-.8,3.1,2.7,4.7,5,2.9a17.46,17.46,0,0,0,4.3-5.1c1.6-2.9-2.2-6.1-4.7-3.6s-4.4,4.8-4.9,8.2c-.4,2.8,2.7,5.1,5,2.9a19.31,19.31,0,0,0,5.3-8.9c.8-2.8-2.9-5.1-5-2.9a16.33,16.33,0,0,0-4.4,10.7c-.1,2.8,3.2,3.6,5.1,2.1,2.1-1.6,2.7-4,4.4-6-1.7-1-3.3-1.9-5-2.9-1.8,4.3-3.2,8.3-2.6,13,.3,2.7,4,4.3,5.5,1.5a46.9,46.9,0,0,0,5-13.7c.6-3.1-3.7-5.4-5.4-2.3a26.86,26.86,0,0,0-3.2,11.1c-.2,3.6,4.7,3.7,5.8.8a75.15,75.15,0,0,1,8.2-15.3L129.4,89c0,5.6.2,11.1.4,16.7.1,3.8,5.8,3.8,6,0a35.4,35.4,0,0,0-.2-4.6c-.4-3-5.3-4.5-5.8-.8-.5,3.1-.3,6.2-.5,9.3-.2,3.7-1.4,6.8-2.9,10.2,1.8.8,3.6,1.5,5.4,2.3a11.8,11.8,0,0,0,.9-3.7c.4-3.5-4.8-3.7-5.8-.8a32.74,32.74,0,0,1-2.4,5c1.8.8,3.6,1.5,5.4,2.3.1-.4.1-.9.2-1.3.3-2.2-2-5.1-4.4-3.4-1,.8-2,1.6-3.1,2.4-2.5,1.9-1.2,6.4,2.3,5.4a4.39,4.39,0,0,0,3-2.3,3,3,0,0,0-3.4-4.4,13,13,0,0,0-4.9,2.3c1.5,1.1,2.9,2.2,4.4,3.4.6-2.7,1.3-5.9-2.2-6.9-3.8-1.1-5.5,2.9-6.4,5.7-.6,2,1.5,4.5,3.7,3.7a27.73,27.73,0,0,0,2.6-1,3,3,0,0,0-1.6-5.7,56,56,0,0,0-5.9,1.2c.8,1.8,1.5,3.6,2.3,5.4.3-.2.7-.3,1-.5,3.2-1.5.8-6.1-2.3-5.4-1.7.3-3.3.7-4.9,1.1l3.7,3.7c1.1-4.2,2-8.3,2.7-12.6-1.9-.3-3.9-.5-5.8-.8-.3,2.4-.5,4.8-.8,7.2-.4,3.5,4.8,3.8,5.8.8,1.5-4.4,1.1-8.6.9-13.1a138.49,138.49,0,0,1,.4-14.4c-.5.9-1,1.7-1.5,2.6A55.28,55.28,0,0,0,130,87.9c2.6-2.9-1.6-7.1-4.4-4.5Z" transform="translate(-63.19 -27.09)"/><path class="cls-1" d="M72.3,65.7c.1-1.8.1-3.6.2-5.5.1-3.3-5.2-4.1-5.8-.8a54.34,54.34,0,0,0-.9,5.6c1.9-.3,3.9-.5,5.8-.8a8.12,8.12,0,0,1,.7-5.1H66.6c.5,2.7.9,5.4,1.4,8,.5,2.8,5.3,2.8,5.7,0A98.55,98.55,0,0,1,76.5,54c.7-2.4,1.8-4.7,2.7-7,1.1-2.5,1.1-2.2,3.8-1.9v-6c-.5,0-.9-.1-1.4-.1-2.3-.2-3.6,2.7-2.6,4.5,2.7,4.7,10.7,1.7,15.1,1.8v-6c-1.8.1-3.5.1-5.3.2.3,1.9.5,3.9.8,5.8,2.7-.9,5.3-1.7,8-2.4L93.8,40a5.5,5.5,0,0,1-.9.7c-2.3,1.8.2,6,2.9,5a14.26,14.26,0,0,1,2.7-.9c2.3-.1,2.7-.3,1-.8V39.8c1.3-1.5-.7-.8-1.7-.5-3.1.8-2.6,6.2.8,5.8.7-.1,3.8-1,4.2-.5.2-1.6.4-3.1.6-4.7-.1.1-.2.1-.2.2,1.2.2,2.4.3,3.6.5l-.2-.2c-.4,1.7-.9,3.3-1.3,5,.9-.3,11-.9,10.8-1.5l3.7-3.7c-2-.8-3.7,0-5.5-1.2s-2.7-2.3-4.8-2.9a17.27,17.27,0,0,0-6,0c-1.8.2-10.5.1-10.5,2.1-.5.9-1,1.7-1.5,2.6.2.1.5.1.7.2V35.3a34.71,34.71,0,0,1-4.6,1.3l-2.4.3c-1.8,0-2.1.1-.9.2.5.9,1,1.7,1.5,2.6-.1.3-.3.6-.4.9l-2.1-5.1a7.5,7.5,0,0,1-4.1,2.4l3.7,3.7,1.8-1.8-4.1-4.1a3.44,3.44,0,0,1-3,2.4l3.7,3.7.9-.9-4.1-4.1a10.63,10.63,0,0,1-.9,1.1c1,.3,1.9.5,2.9.8-.1-.2-.3-.3-.4-.5.3,1,.5,1.9.8,2.9l-.5.5c-1.1-1.5-2.2-2.9-3.4-4.4a1.76,1.76,0,0,0-.5.4c1.5.9,3,1.7,4.5,2.6-.2.4-.5.7-.7,1.1l-3.7-3.7-1.6,1.6c1.5,1.1,2.9,2.2,4.4,3.4.2-.3.3-.5.5-.8-1.2-1.6-2.4-3.1-3.6-4.7a12.74,12.74,0,0,1-2.7,2.5l4.1,4.1c.2-.2.5-.4.7-.6L73.9,39c-.5.6-.9,1.2-1.4,1.8,1.6,1.2,3.1,2.4,4.7,3.6.3-.5.6-.9.9-1.4l-4.2-4.2A4.77,4.77,0,0,0,72.7,41c1.2-.7,2.4-1.4,3.7-2.1-.1,0-.1,0-.2-.1.7,1.2,1.4,2.4,2.1,3.7v-.2c.6-3.2-3.7-5.4-5.4-2.3a25.38,25.38,0,0,1-2.3,3.4c1.8.8,3.6,1.5,5.4,2.3a12.2,12.2,0,0,1,.7-1.7c1.7-3.4-3.2-6.3-5.1-3a36.52,36.52,0,0,0-1.8,3.4c1.8.8,3.6,1.5,5.4,2.3l.6-.9c-1.8-.8-3.6-1.5-5.4-2.3a35.23,35.23,0,0,1-1.5,4.2c-1.3,3.1,3.8,5.2,5.4,2.3a7.46,7.46,0,0,1,.7-1.2c-1.8-.8-3.6-1.5-5.4-2.3-.5,1.4-1,2.8-1.6,4.2,1.9.5,3.8,1.1,5.7,1.6.3-.7.5-1.4.8-2.2-1.9-.5-3.8-1.1-5.7-1.6a14.9,14.9,0,0,1-2.3,5.7c1.8.8,3.6,1.5,5.4,2.3,2.1-6.3,6.8-10.7,11.5-15.1,2.1-1.9-.1-6.1-2.9-5a10.93,10.93,0,0,1-1.7.5c.9,1.5,1.7,3,2.6,4.5a4,4,0,0,1,2.5-2.7l-3-5.1c-.2.1-.5.2-.7.3,1,.3,1.9.5,2.9.8a2.65,2.65,0,0,1-.5-.6c.2,1.2.3,2.4.5,3.6l.3-.6c1.1-2.4-1.4-6-4.1-4.1a16.38,16.38,0,0,0-2.5,2.1c-2.1,2.4.8,6.8,3.6,4.7a28.18,28.18,0,0,1,11.3-5.4c1.9-.4,4.4,0,6.2-.6q2.25.9,1.8-1.5a9.37,9.37,0,0,1-3.7-.7v5.7c-.3-.1-.6-.3-.9-.4-.5-.9-1-1.7-1.5-2.6v.5c.5-.9,1-1.7,1.5-2.6-1.9,1.4-6.7.1-9.2,1,.5,1.9,1.1,3.8,1.6,5.7,4.7-1.8,8.9-3,13.9-1.6a15,15,0,0,0,4.6.9c1.8-.1,3.2-1.1,5-.9,2.9.3,4.1-4.3,1.5-5.5a82.44,82.44,0,0,1-7.7-4.2c-.8,1.8-1.5,3.6-2.3,5.4,2.3.4,4.6.8,6.8,1.4,1,.3,2,.6,3,1a7.74,7.74,0,0,1,1.6.7c1.3.9,2.7.8,4.3-.2-3.7-.6-5.4,5.1-1.6,5.7,4.7.8,6.7-3.8,4.1-7.4-3.6-4.9-11.2-6-16.7-7-3.2-.6-5.3,3.6-2.3,5.4,2.5,1.5,5.1,2.9,7.7,4.2.5-1.8,1-3.7,1.5-5.5-1.8-.2-2.9.6-4.5.7-2.5.3-5.1-1.1-7.5-1.4-4.5-.5-8.9.8-13.1,2.4-3.5,1.4-2,7.1,1.6,5.7,3.3-1.3,10,1.2,11.8-3,1.5-3.3-2.1-5.4-4.9-4.4a3,3,0,0,0,0,5.7c3.2,1.1,8.9,1.8,11.5-1.2,2.2-2.6.6-6.1-2.2-7.4-8-3.7-19.9,1.1-26.3,5.9,1.2,1.6,2.4,3.1,3.6,4.7.4-.4.9-.8,1.3-1.2l-4.1-4.1-.3.6a3,3,0,0,0,.5,3.6,4,4,0,0,0,5.6.4c3-2.2.4-7-3-5.1a10,10,0,0,0-4.6,4.9c-.9,1.8.1,4.8,2.6,4.5a13,13,0,0,0,3.3-.7c-1-1.7-1.9-3.3-2.9-5C74,42.7,69,48,66.5,55.3c-1.1,3.3,3.7,5,5.4,2.3a18.23,18.23,0,0,0,2.9-7.2,3,3,0,0,0-5.7-1.6c-.3.7-.5,1.4-.8,2.2-1.3,3.7,4.3,5,5.7,1.6.6-1.4,1.1-2.8,1.6-4.2,1.1-3.2-3.8-5.2-5.4-2.3a7.46,7.46,0,0,1-.7,1.2c1.8.8,3.6,1.5,5.4,2.3.6-1.4,1-2.7,1.5-4.2,1-3.4-3.6-5-5.4-2.3a17.91,17.91,0,0,0-1.2,2.4c-1.2,3.1,4,5.4,5.4,2.3A22.11,22.11,0,0,1,77,44.4l-5.1-3a28.8,28.8,0,0,0-1.3,3.1c-1.1,3.5,3.5,4.8,5.4,2.3a40.47,40.47,0,0,0,2.3-3.4c-1.8-.8-3.6-1.5-5.4-2.3v.2A3.07,3.07,0,0,0,75,45c.1,0,.1,0,.2.1A3.07,3.07,0,0,0,78.9,43c-.1.1-.2.3-.4.4,2.4-2.9-1.7-7.2-4.2-4.2a12,12,0,0,0-1.8,2.6c-1.5,2.9,2.3,6.1,4.7,3.6a17,17,0,0,0,2.3-3c1.6-2.4-1.6-5.7-4.1-4.1a11,11,0,0,0-2.9,2.8c-1.8,2.4,1.7,5.8,4.1,4.1a31.68,31.68,0,0,0,3.9-3.4c2.1-2.4-.7-6.8-3.6-4.7a8.12,8.12,0,0,0-3.3,4.4c-.8,2.6,2.2,4.6,4.4,3.4a8.86,8.86,0,0,0,4.3-5.2c.9-2.2-1.7-4.2-3.7-3.7-2.5.6-3.5,2.2-3.7,4.6s2.6,3.6,4.5,2.6A6.27,6.27,0,0,0,82,40.7c1.3-2.1-.9-5.3-3.4-4.4-3.3,1.2-4.8,4.1-2.5,7.1a3.09,3.09,0,0,0,2.9.8c2.1-.4,3.5-2.1,4.5-3.9a3,3,0,0,0-4.1-4.1,6.35,6.35,0,0,0-3.6,4.5,3,3,0,0,0,3.7,3.7,9.75,9.75,0,0,0,6.6-5.1c1.5-2.8-1.4-5.2-4.1-4.1a7.47,7.47,0,0,0-4.5,5.4c-.7,2.3,1.5,4.1,3.7,3.7a12.11,12.11,0,0,0,6.7-3.9c1.5-1.7.7-5.4-2.1-5.1-3.1.3-7.4,3.3-4.9,6.8s10.3.5,13.3-.5a3,3,0,0,0,0-5.7c-6.8-2.7-9.5,6.8-1.9,7.6a36.41,36.41,0,0,0,8.1-.3c2.3-.2,5.2-1.2,7.5-.7,2.6.5,3,2.6,5.1,3.7,1.8.9,3.9-.3,5.6.4,2.2.9,4.2-1.7,3.7-3.7-.7-2.6-2.5-3.3-5.1-3.5-4.2-.3-9.1-.3-13.1.9a3,3,0,0,0-1.3,5l.2.2a3,3,0,0,0,3.6.5c.1-.1.2-.1.2-.2a3.11,3.11,0,0,0,.6-4.7c-2.5-2.8-5.3-1.6-8.5-1.2.3,1.9.5,3.9.8,5.8,1.7-.5,2.6,1,4.3-1a3.09,3.09,0,0,0,0-4.2c-2.4-2.5-6.7-.9-9.5.1,1,1.7,1.9,3.3,2.9,5,1.8-1.5,2.6-2.6,2.6-5a3.06,3.06,0,0,0-3.8-2.9c-2.7.7-5.4,1.5-8,2.4-3.1,1-2.7,6,.8,5.8,1.8-.1,3.5-.1,5.3-.2,3.8-.1,3.8-5.9,0-6-.4,0-10.4.4-10,1.1-.9,1.5-1.7,3-2.6,4.5.5,0,.9.1,1.4.1,3.8.4,3.7-5.5,0-6-2.2-.3-4.1-.7-6,.6-2.2,1.5-3.4,4.9-4.4,7.2C70.2,53.1,69,59.4,68,65.7h5.7c-.5-2.7-.9-5.4-1.4-8-.5-3.1-4.9-2.5-5.7,0a16.44,16.44,0,0,0-.7,8.2c.5,3.6,5.5,2.3,5.8-.8a25.68,25.68,0,0,1,.6-4c-1.9-.3-3.9-.5-5.8-.8-.1,1.8-.1,3.6-.2,5.5-.1,3.7,5.9,3.7,6-.1Z" transform="translate(-63.19 -27.09)"/><path class="cls-2" d="M129.5,125.2c-6.1,3.4-13.2,4.4-20.2,4a.6.6,0,1,0,0,1.2c7.2.4,14.4-.6,20.8-4.1.7-.4.1-1.5-.6-1.1Z" transform="translate(-63.19 -27.09)"/><path class="cls-2" d="M69.7,125.1c6.3,3.6,13.6,4.7,20.8,4.2a.6.6,0,1,0,0-1.2c-7,.4-14-.6-20.2-4.1-.6-.3-1.2.7-.6,1.1Z" transform="translate(-63.19 -27.09)"/><path class="cls-2" d="M70.4,124.2c-7.8-8.9-6.1-23.3-5.8-34.3a326.38,326.38,0,0,1,3.5-38.3c.1-.7-1-1.1-1.1-.3a302,302,0,0,0-3.6,42.4c-.1,10.4-1.1,22.9,6.2,31.3.5.6,1.3-.3.8-.8Z" transform="translate(-63.19 -27.09)"/><path class="cls-2" d="M68,52.9a29.23,29.23,0,0,1,32.2-24c.8.1.8-1.1,0-1.2A30.32,30.32,0,0,0,66.9,52.6c-.2.8,1,1.1,1.1.3Z" transform="translate(-63.19 -27.09)"/><path class="cls-2" d="M81,94.7c-4.5-7.3-5.6-18.3-5.8-26.8a46.31,46.31,0,0,1,7.9-26.5c.4-.6-.6-1.2-1-.6A46.66,46.66,0,0,0,74,67.9c.2,8.8,1.3,19.8,5.9,27.4a.63.63,0,0,0,1.1-.6Z" transform="translate(-63.19 -27.09)"/><path class="cls-2" d="M80.6,45.9c1.1,1.1,2.6.8,3.9.3.7-.3.4-1.4-.3-1.1-.9.3-2,.8-2.8,0-.5-.6-1.4.3-.8.8Z" transform="translate(-63.19 -27.09)"/><path class="cls-2" d="M84.6,46.6a5.61,5.61,0,0,0,4.4-.3c.7-.3.1-1.4-.6-1a4.27,4.27,0,0,1-3.5.2c-.7-.3-1,.8-.3,1.1Z" transform="translate(-63.19 -27.09)"/><path class="cls-2" d="M89.2,46.7c.8-.1,1.6.2,2.4.1a4.69,4.69,0,0,1,2.6-.3c.7.2,1.1-1,.3-1.1a5.23,5.23,0,0,0-2.5.2,4.88,4.88,0,0,1-1.7.1,3.3,3.3,0,0,0-1.4,0c-.7,0-.4,1.1.3,1Z" transform="translate(-63.19 -27.09)"/><path class="cls-2" d="M94.1,46.1c1.4,1.8,3.4-.3,5-.1.8.1.8-1.1,0-1.2a4.92,4.92,0,0,0-2.1.4c-.7.3-1.6.7-2.1,0-.5-.5-1.3.3-.8.9Z" transform="translate(-63.19 -27.09)"/><path class="cls-2" d="M98.7,45.9c1.6.7,3.5,1.4,5.1.2.6-.4,0-1.5-.6-1-1.2.9-2.7.3-3.9-.2-.7-.3-1.3.7-.6,1Z" transform="translate(-63.19 -27.09)"/><path class="cls-2" d="M103.3,45.7a2.33,2.33,0,0,0,2,1c1.1-.1,2.4-1.3,3.5-.7a.58.58,0,1,0,.6-1,2.59,2.59,0,0,0-2.1-.2c-.8.2-2.3,1.3-2.9.3-.5-.6-1.5,0-1.1.6Z" transform="translate(-63.19 -27.09)"/><path class="cls-2" d="M109.3,46.2a2.83,2.83,0,0,0,4-1.6c.3-.7-.9-1-1.1-.3a1.61,1.61,0,0,1-2.3.8c-.7-.2-1.3.8-.6,1.1Z" transform="translate(-63.19 -27.09)"/><path class="cls-2" d="M132.6,52.6A30.19,30.19,0,0,0,99.2,27.8c-.8.1-.8,1.3,0,1.2a29.1,29.1,0,0,1,32.2,24c.2.7,1.3.4,1.2-.4Z" transform="translate(-63.19 -27.09)"/><path class="cls-2" d="M130,126.3c7.3-8.4,6.4-20.8,6.2-31.3a316.35,316.35,0,0,0-3.6-42.4c-.1-.8-1.3-.4-1.1.3A288.46,288.46,0,0,1,135,91.2c.3,11,1.9,25.4-5.8,34.3a.57.57,0,1,0,.8.8Z" transform="translate(-63.19 -27.09)"/><path class="cls-2" d="M121.4,95.2c4.7-7.6,5.7-18.6,5.9-27.4a46.88,46.88,0,0,0-8.1-27.1c-.4-.6-1.5,0-1,.6a44.65,44.65,0,0,1,7.9,26.5c-.2,8.5-1.2,19.4-5.8,26.8-.3.6.7,1.2,1.1.6Z" transform="translate(-63.19 -27.09)"/><path class="cls-2" d="M112.8,45.9a.6.6,0,1,0,0-1.2c-.7,0-.7,1.2,0,1.2Z" transform="translate(-63.19 -27.09)"/><path class="cls-2" d="M112.5,45.5c1.2,1.4,3.7.7,5.2.6a.6.6,0,1,0,0-1.2c-.8.1-1.7.1-2.5.2s-1.4.1-1.9-.4-1.3.2-.8.8Z" transform="translate(-63.19 -27.09)"/><path class="cls-2" d="M117.4,44.4a1.61,1.61,0,0,0,.9,1.8c.9.4,1.9-.1,2.7.3s1.3-.7.6-1a3.65,3.65,0,0,0-1.5-.3c-.3,0-1.8.2-1.6-.4.2-.9-.9-1.2-1.1-.4Z" transform="translate(-63.19 -27.09)"/><path class="cls-2" d="M75.8,84.7c2.3,1.8,4.4,3.8,6.8,5.5,2.2,1.6,5,2.4,7.5,3.4.7.3,1-.9.3-1.1-2.4-1-5.1-1.8-7.2-3.3-2.3-1.6-4.4-3.6-6.6-5.3-.6-.5-1.4.3-.8.8Z" transform="translate(-63.19 -27.09)"/><path class="cls-2" d="M89.6,93.4c.2,3.7.2,7.5.1,11.2a.6.6,0,1,0,1.2,0c.1-3.8.1-7.5-.1-11.2a.6.6,0,1,0-1.2,0Z" transform="translate(-63.19 -27.09)"/><path class="cls-2" d="M111,103.7c-.2-.7.3-1.6.5-2.3a8.6,8.6,0,0,0,.1-1.6,37.43,37.43,0,0,1,0-5.8c.1-.7-1-1.1-1.1-.3a41.4,41.4,0,0,0,0,6.1,8.57,8.57,0,0,1-.5,2.7,2.21,2.21,0,0,0,0,1.6c.1.7,1.2.4,1-.4Z" transform="translate(-63.19 -27.09)"/><path class="cls-2" d="M124.6,83.1c-1.1,2.7-4.3,4.4-6.7,5.9a54.48,54.48,0,0,1-7.6,3.9c-.7.3-.4,1.4.3,1.1a49.45,49.45,0,0,0,9.6-5.2c2.1-1.5,4.5-3,5.5-5.5.3-.6-.9-.9-1.1-.2Z" transform="translate(-63.19 -27.09)"/><path class="cls-2" d="M109.7,129.3c-2.7-.4-.5-5-.1-6.8a53,53,0,0,0,1-5.5,62.81,62.81,0,0,0,.3-13,.6.6,0,1,0-1.2,0,64.72,64.72,0,0,1-.6,14.6c-.6,3.7-2.1,7.3-2.3,11.1a.58.58,0,0,0,.6.6l2.2.3a.65.65,0,0,0,.1-1.3Z" transform="translate(-63.19 -27.09)"/><path class="cls-2" d="M91.1,129.5l2.2-.3a.58.58,0,0,0,.6-.6c-.2-3.8-1.7-7.4-2.3-11.1a65,65,0,0,1-.6-14.6c.1-.8-1.1-.8-1.2,0a62.65,62.65,0,0,0,.3,13c.3,1.9.6,3.7,1,5.5s2.7,6.5-.1,6.8c-.7.2-.7,1.4.1,1.3Z" transform="translate(-63.19 -27.09)"/><path class="cls-1" d="M113.7,39.9c3.8,0,3.8-6,0-6s-3.9,6,0,6Z" transform="translate(-63.19 -27.09)"/><path class="cls-3" d="M73.6,120.4c-4.8-5.5-5.9-12.2-6.7-19.2-.1-.8-1.3-.8-1.2,0,.8,7.3,2,14.3,7,20a.6.6,0,1,0,.9-.8Z" transform="translate(-63.19 -27.09)"/><path class="cls-3" d="M88.3,125.1A50.51,50.51,0,0,1,86,98.7c.1-.7-1-1.1-1.1-.3a52.68,52.68,0,0,0,2.3,27,.57.57,0,0,0,1.1-.3Z" transform="translate(-63.19 -27.09)"/><path class="cls-3" d="M78.6,96.8A51.15,51.15,0,0,1,71.2,73,.6.6,0,1,0,70,73a52.92,52.92,0,0,0,7.6,24.4.58.58,0,1,0,1-.6Z" transform="translate(-63.19 -27.09)"/><path class="cls-3" d="M111.3,126.5c3.4-9.5,2.1-19.1,3-28.9.1-.8-1.1-.8-1.2,0-.9,9.8.4,19.2-3,28.6-.2.7.9,1,1.2.3Z" transform="translate(-63.19 -27.09)"/><path class="cls-3" d="M125.1,125.2c7.3-10.4,4.3-23.4,7-35.1.2-.7-1-1.1-1.1-.3-2.7,11.6.3,24.5-6.9,34.8-.5.7.6,1.3,1,.6Z" transform="translate(-63.19 -27.09)"/><path class="cls-3" d="M122.1,98.9c.2-1.5,1.6-2.9,2.3-4.2a28.75,28.75,0,0,0,1.8-4c.3-.7-.9-1-1.1-.3a40.2,40.2,0,0,1-2.2,4.7c-.6,1.1-1.6,2.2-1.8,3.4-.2.8.9,1.2,1,.4Z" transform="translate(-63.19 -27.09)"/><path class="cls-3" d="M130.2,58.2c.4-2.8-1-5.1-2.1-7.6-1.3-2.8-2.4-5.7-4.5-8-.5-.6-1.4.3-.8.8a18.84,18.84,0,0,1,3.4,5.8c1.2,2.6,3.3,5.9,2.9,8.7-.1.7,1,1.1,1.1.3Z" transform="translate(-63.19 -27.09)"/><path class="cls-3" d="M73.1,56.1c1.7-5.3,3.5-10.5,7.6-14.5.6-.5-.3-1.4-.8-.8-4.2,4.1-6.1,9.5-7.9,15a.57.57,0,0,0,1.1.3Z" transform="translate(-63.19 -27.09)"/><path class="cls-3" d="M89.7,34.2a12.36,12.36,0,0,1,5.4-.6c.8.1.8-1.1,0-1.2a13.91,13.91,0,0,0-5.7.6c-.8.3-.5,1.5.3,1.2Z" transform="translate(-63.19 -27.09)"/><path class="cls-3" d="M103.7,31.8a33.47,33.47,0,0,1,10.9,5.3c.6.4,1.2-.6.6-1A38.67,38.67,0,0,0,104,30.7a.57.57,0,1,0-.3,1.1Z" transform="translate(-63.19 -27.09)"/></svg>