<?xml version="1.0" encoding="utf-8"?>
<!-- Generator: Adobe Illustrator 21.0.2, SVG Export Plug-In . SVG Version: 6.00 Build 0)  -->
<svg version="1.1" id="Layer_1" xmlns="http://www.w3.org/2000/svg" xmlns:xlink="http://www.w3.org/1999/xlink" x="0px" y="0px"
	 viewBox="0 0 200 600" style="enable-background:new 0 0 200 600;" xml:space="preserve">
<style type="text/css">
	.st0{fill:#141113;}
	.st1{fill:#292728;}
</style>
<g>
	<g>
		<g>
			<g>
				<g>
					<g>
						<g>
							<path class="st0" d="M77.9,45.6c0.4-0.7,0.6-1.4,0.9-2.1c0.3-1-1.2-1.6-1.6-0.7c-0.2,0.5-0.4,0.9-0.5,1.4
								c-0.2,0.8,0.9,1.6,1.5,0.9c0.4-0.5,0.7-0.9,1.1-1.4c-0.5-0.3-1-0.6-1.5-0.9c-0.1,0.6-0.4,1.2-0.7,1.8c-0.5,1,0.9,1.9,1.6,0.9
								s1.3-2,2-3c-0.5-0.3-1-0.6-1.6-0.9c-0.3,0.6-0.5,1.2-0.8,1.8c-0.4,0.9,0.6,1.9,1.4,1.1c0.5-0.5,1-1.1,1.5-1.6
								c-0.4-0.4-0.8-0.8-1.3-1.3c-0.4,0.4-0.8,0.9-1.1,1.3c-0.7,0.9,0.5,2.1,1.3,1.3c0.5-0.5,1-1.1,1.6-1.6
								c-0.4-0.4-0.8-0.8-1.3-1.3c-1.9,2.1-3.7,4.3-5.4,6.4c-0.9,1.1-3.1,2.9-2.7,4.5c0.3,1.1,2.1,0.6,1.7-0.5
								c-0.1-0.2,1.5-1.9,1.7-2.1c0.6-0.8,1.3-1.6,1.9-2.4c1.3-1.6,2.6-3.1,4-4.7c0.8-0.9-0.5-2.1-1.3-1.3c-0.5,0.5-1,1.1-1.6,1.6
								c0.4,0.4,0.8,0.8,1.3,1.3c0.4-0.4,0.8-0.9,1.1-1.3c0.7-0.9-0.5-2.1-1.3-1.3c-0.5,0.5-1,1.1-1.5,1.6c0.5,0.4,0.9,0.7,1.4,1.1
								c0.3-0.6,0.5-1.2,0.8-1.8c0.4-1-0.9-1.9-1.6-0.9s-1.3,2-2,3c0.5,0.3,1,0.6,1.6,0.9c0.4-0.7,0.7-1.4,0.9-2.2
								c0.2-0.8-0.9-1.6-1.5-0.9c-0.4,0.5-0.7,0.9-1.1,1.4c0.5,0.3,1,0.6,1.5,0.9c0.1-0.3,0.2-0.7,0.4-1c-0.5-0.2-1.1-0.5-1.6-0.7
								c-0.2,0.6-0.4,1.2-0.7,1.7C75.9,45.7,77.4,46.7,77.9,45.6L77.9,45.6z"/>
						</g>
					</g>
					<g>
						<g>
							<path class="st0" d="M73.4,51.7c-0.2,0.1-0.3,0.2-0.5,0.3c-1,0.6-0.1,2.2,0.9,1.6c0.2-0.1,0.3-0.2,0.5-0.3
								C75.3,52.6,74.4,51.1,73.4,51.7L73.4,51.7z"/>
						</g>
					</g>
					<g>
						<g>
							<path class="st0" d="M74,51.3c1.2-0.7,2-1.5,2.6-2.8c-0.5-0.2-1.1-0.5-1.6-0.7c-0.4,0.9-0.8,1.8-1.2,2.7
								c0.5,0.2,1.1,0.5,1.6,0.7c0.3-0.8,0.6-1.6,1.1-2.3c-0.5-0.3-1-0.6-1.6-0.9c-0.6,1.2-1.3,2.5-1.9,3.7c0.5,0.2,1.1,0.5,1.6,0.7
								c0.2-0.4,0.4-0.7,0.6-1.1c-0.5-0.2-1.1-0.5-1.6-0.7c-0.3,0.7-0.5,1.3-0.8,2c-0.4,1,1.2,1.6,1.6,0.7c0.6-1,1.2-2.1,1.8-3.1
								c-0.5-0.2-1.1-0.5-1.6-0.7c-0.2,0.5-0.4,1.1-0.6,1.6c-0.4,1,1.2,1.6,1.6,0.7c0.7-1.4,1.4-2.8,2.2-4.2
								c-0.5-0.2-1.1-0.5-1.6-0.7c-0.4,1.2-0.8,2.4-1.4,3.5c0.5,0.2,1.1,0.5,1.6,0.7c0.5-1.3,1.1-2.7,1.7-3.9
								c-0.5-0.2-1.1-0.5-1.6-0.7c-0.2,0.7-0.4,1.4-0.6,2.1c-0.3,1.1,1.3,1.5,1.7,0.5c0.6-1.6,1.3-3.1,2.1-4.5
								c-0.5-0.2-1.1-0.5-1.6-0.7c-0.2,0.9-0.3,1.7-0.7,2.6c0.5,0.2,1.1,0.5,1.6,0.7c0.4-1.2,0.9-2.3,1.6-3.3
								c-0.5-0.2-1.1-0.5-1.6-0.7c-0.2,0.7-0.6,1.4-1,2c0.5,0.3,1,0.6,1.6,0.9c0.2-0.4,0.4-0.7,0.6-1.1c0.5-0.9-0.7-1.9-1.4-1.1
								c-1.4,1.6-2.1,3.5-3.1,5.4c-0.5,1-1.3,1.8-1.9,2.7c-0.3,0.4-0.8,2.4-1.1,2.5c0.4,0.3,0.9,0.7,1.3,1c0.7-2,1.5-4,2.4-5.9
								c0.5-1-1.1-2-1.6-0.9c-0.9,2.1-1.8,4.2-2.6,6.3c-0.3,0.8,0.7,1.3,1.3,1c0.5-0.3,0.8-0.6,1-1.1c0.5-1.2,1-2.2,1.8-3.3
								c1.5-2,1.9-4.6,3.6-6.5c-0.5-0.4-0.9-0.7-1.4-1.1c-0.2,0.4-0.4,0.7-0.6,1.1c-0.6,1,0.9,1.9,1.6,0.9c0.5-0.8,0.8-1.5,1.2-2.4
								c0.4-1-1.1-1.5-1.6-0.7c-0.8,1.2-1.4,2.4-1.8,3.8c-0.3,1,1.2,1.6,1.6,0.7c0.4-1,0.7-1.9,0.9-3c0.2-0.9-1.1-1.7-1.6-0.7
								c-0.9,1.6-1.6,3.3-2.3,5c0.6,0.2,1.2,0.3,1.7,0.5c0.2-0.7,0.4-1.4,0.6-2.1c0.3-1-1.2-1.6-1.6-0.7c-0.7,1.4-1.3,2.9-1.9,4.4
								c-0.4,1,1.2,1.6,1.6,0.7c0.7-1.3,1.2-2.6,1.6-3.9c0.3-1-1.2-1.6-1.6-0.7c-0.7,1.4-1.4,2.8-2.2,4.2c0.5,0.2,1.1,0.5,1.6,0.7
								c0.2-0.5,0.4-1.1,0.6-1.6c0.4-1-1.2-1.6-1.6-0.7c-0.6,1-1.2,2.1-1.8,3.1c0.5,0.2,1.1,0.5,1.6,0.7c0.3-0.7,0.5-1.3,0.8-2
								c0.4-1-1.1-1.5-1.6-0.7c-0.4,0.6-0.5,0.8-0.8,1.5c-0.4,0.9,1.2,1.6,1.6,0.7c0.6-1.2,1.3-2.5,1.9-3.7c0.5-1-0.9-1.9-1.6-0.9
								c-0.6,0.9-1,1.7-1.3,2.7s1.2,1.6,1.6,0.7c0.5-1,1-2.1,1.4-3.2c0.4-0.9-1.2-1.6-1.6-0.7c-0.4,0.9-1.1,1.6-2,2.1
								C72.1,50.3,73,51.8,74,51.3L74,51.3z"/>
						</g>
					</g>
					<g>
						<g>
							<path class="st0" d="M74.4,50.1c0.4-1.2,0.9-2.4,1.5-3.6c-0.5-0.2-1.1-0.5-1.6-0.7c-0.2,1.3-0.7,2.6-1.5,3.7
								C73.3,49.7,73.9,49.8,74.4,50.1c0.3-1.1,0.7-2.2,1-3.2c-0.6-0.2-1.1-0.3-1.7-0.5c0,0.6-0.1,1.3-0.1,1.9
								c0,0.9,1.3,1.3,1.7,0.5c0.8-1.9,1.6-3.7,2.5-5.6c-0.5-0.2-1.1-0.5-1.6-0.7c-0.1,1.4-0.5,2.8-1.2,4c0.5,0.2,1.1,0.5,1.6,0.7
								c0.5-1.6,1.3-3.1,2.4-4.4c-0.5-0.3-1-0.6-1.5-0.9c-0.4,1.5-0.9,3-1.7,4.4c0.5,0.2,1.1,0.5,1.6,0.7c0.8-2,1.7-3.6,2.9-5.4
								c-0.5-0.2-1.1-0.5-1.6-0.7c-0.6,1.6-1.2,3.2-2,4.7c0.5,0.3,1,0.6,1.6,0.9c1.2-2.5,2.6-4.7,4.4-6.8c-0.5-0.4-0.9-0.7-1.4-1.1
								c-1,1.4-1.9,2.8-2.9,4.2c0.5,0.3,1,0.6,1.6,0.9c0.9-1.7,1.7-3,2.9-4.5c-0.5-0.4-0.9-0.7-1.4-1.1c-0.8,1.6-1.6,2.9-2.8,4.3
								c0.5,0.4,0.9,0.7,1.4,1.1c0.8-1.5,1.7-2.8,2.9-4.1c-0.5-0.4-0.9-0.7-1.4-1.1c-0.9,1.5-1.9,2.9-2.8,4.4c0.5,0.3,1,0.6,1.6,0.9
								c1.2-1.9,2.6-3.5,4.3-5c-0.5-0.4-0.9-0.7-1.4-1.1c-0.8,1.7-1.9,3.1-3.3,4.3c0.5,0.4,0.9,0.7,1.4,1.1c0.8-1.4,1.7-2.6,2.9-3.7
								c-0.5-0.4-0.9-0.7-1.4-1.1c-0.5,0.7-1.1,1.5-1.6,2.2s0.5,1.8,1.2,1.2c1.2-0.9,2.4-1.8,3.6-2.7c-0.4-0.5-0.7-0.9-1.1-1.4
								c-1.2,1-2.5,2.1-3.7,3.1c0.4,0.4,0.8,0.8,1.3,1.3c1.4-1.7,2.9-3,4.7-4.2c-0.4-0.5-0.7-0.9-1.1-1.4c-0.6,0.7-1.2,1.4-2,1.9
								c0.4,0.4,0.8,0.8,1.3,1.3c1.1-0.5,2.2-1.1,3.2-1.6c-0.2-0.6-0.3-1.2-0.5-1.7c-0.6,0.3-1.3,0.5-1.9,0.6
								c-0.8,0.2-0.9,1.6,0,1.7c2,0.3,4.1,0.6,6.1,0.8c0-0.6,0-1.2,0-1.8c-1.9,0.2-3.4,0.2-5.4-0.1c0,0.6,0,1.2,0,1.7
								c2.2-0.5,4.3-0.4,6.5,0.2c0.2-0.6,0.3-1.2,0.5-1.7c-0.8-0.1-1.6-0.3-2.5-0.4c-1.1-0.2-1.6,1.3-0.5,1.7
								c1.9,0.7,3.7,1.2,5.6,1.5c1.1,0.2,1.6-1.4,0.5-1.7c-1-0.3-2.1-0.6-3.1-1c-1.1-0.4-1.5,1.3-0.5,1.7c1.2,0.5,2.3,1,3.5,1.5
								c0.1-0.6,0.2-1.2,0.2-1.8c-1.1-0.1-2.2-0.3-3.4-0.4c-1-0.1-1.2,1.5-0.2,1.8c1.1,0.3,2.1,0.5,3.2,0.8c1,0.2,1.6-1.2,0.7-1.6
								c-1.4-0.7-2.8-1.5-4.2-2.2c-0.8-0.4-1.6,0.4-1.2,1.2c0.5,1,0.6,1.1,1.7,1.5c0.2-0.6,0.3-1.2,0.5-1.7c-1-0.3-2-0.6-3.1-0.9
								c-1.1-0.3-1.6,1.4-0.5,1.7c1.3,0.4,1.2,0.4,2.6,0.5c0.7,0.1,1.2-0.8,0.8-1.4c-0.5-0.7-0.6-0.8-1.3-1.1c-1-0.5-2,1.1-0.9,1.6
								c0.2,0.2,0.4,0.3,0.7,0.5c0.3-0.5,0.5-0.9,0.8-1.4c-0.7-0.2-1.4-0.3-2.1-0.5c-0.2,0.6-0.3,1.2-0.5,1.7c1,0.3,2,0.6,3.1,0.9
								c1.1,0.3,1.5-1.3,0.5-1.7c-0.2-0.2-0.4-0.4-0.6-0.7c-0.4,0.4-0.8,0.8-1.2,1.2c1.4,0.7,2.8,1.5,4.2,2.2
								c0.2-0.5,0.5-1.1,0.7-1.6c-1.1-0.3-2.1-0.5-3.2-0.8c-0.1,0.6-0.2,1.2-0.2,1.8c1.1,0.1,2.2,0.3,3.4,0.4
								c1.1,0.1,1.1-1.4,0.2-1.8c-1.2-0.5-2.3-1-3.5-1.5c-0.2,0.6-0.3,1.2-0.5,1.7c1,0.3,2.1,0.6,3.1,1c0.2-0.6,0.3-1.2,0.5-1.7
								c-1.9-0.4-3.8-0.9-5.6-1.5c-0.2,0.6-0.3,1.2-0.5,1.7c0.8,0.1,1.6,0.3,2.5,0.4c1.1,0.2,1.6-1.5,0.5-1.7
								c-2.6-0.6-4.8-0.6-7.4-0.2c-0.9,0.1-0.9,1.6,0,1.7c2,0.3,3.9,0.4,5.9,0.2c1.2-0.1,1.2-1.7,0-1.8c-1.9-0.2-3.8-0.4-5.7-0.8
								c0,0.6,0,1.2,0,1.7c0.7-0.1,1.3-0.3,1.9-0.6c1.1-0.4,0.7-2-0.5-1.7c-1.7,0.3-2.7,0.9-4,2.1c-0.9,0.8,0.4,2,1.3,1.3
								c0.8-0.5,1.4-1.2,2-1.9c0.7-0.7-0.2-2-1.1-1.4c-2,1.3-3.6,2.7-5.1,4.5c-0.7,0.9,0.4,2,1.3,1.3c1.2-1,2.5-2.1,3.7-3.1
								c0.8-0.6-0.3-2-1.1-1.4c-1.2,0.9-2.4,1.8-3.6,2.7c0.4,0.4,0.8,0.8,1.2,1.2c0.5-0.7,1.1-1.5,1.6-2.2c0.6-0.9-0.7-1.7-1.4-1.1
								c-1.4,1.2-2.3,2.4-3.2,4c-0.5,0.9,0.6,1.8,1.4,1.1c1.6-1.4,2.7-2.8,3.6-4.7c0.4-0.9-0.6-1.8-1.4-1.1
								c-1.8,1.6-3.2,3.4-4.5,5.4c-0.6,1,0.9,1.9,1.6,0.9c0.9-1.5,1.9-2.9,2.8-4.4c0.6-0.9-0.7-1.8-1.4-1.1
								c-1.4,1.4-2.3,2.7-3.2,4.4c-0.4,0.9,0.7,1.9,1.4,1.1c1.2-1.5,2.2-3,3-4.7c0.4-0.9-0.7-1.9-1.4-1.1c-1.2,1.5-2.3,3.1-3.2,4.8
								c-0.5,1,0.9,1.9,1.6,0.9c1-1.4,1.9-2.8,2.9-4.2c0.6-0.8-0.7-1.9-1.4-1.1c-1.9,2.2-3.4,4.5-4.7,7.2c-0.5,1,1,1.9,1.6,0.9
								c0.9-1.7,1.6-3.4,2.2-5.2c0.3-1-1.1-1.5-1.6-0.7c-1.2,1.9-2.2,3.8-3,5.8c-0.4,0.9,1.2,1.6,1.6,0.7c0.8-1.6,1.4-3.1,1.9-4.9
								c0.2-0.8-0.9-1.6-1.5-0.9c-1.3,1.6-2.2,3.3-2.9,5.2c-0.3,1,1.2,1.6,1.6,0.7c0.7-1.5,1.1-2.8,1.4-4.4c0.1-0.9-1.2-1.7-1.6-0.7
								c-0.8,1.9-1.6,3.7-2.5,5.6c0.6,0.2,1.1,0.3,1.7,0.5c0-0.6,0.1-1.3,0.1-1.9c0-1-1.2-1.1-1.7-0.5c-1,1.4-1.3,2.3-1.2,4
								c0,0.9,1.2,1.3,1.7,0.5c0.8-1.4,1.3-2.6,1.7-4.1c0.2-0.9-1.2-1.7-1.6-0.7c-0.6,1.3-1.2,2.6-1.6,4
								C72.3,50.7,74,51.2,74.4,50.1L74.4,50.1z"/>
						</g>
					</g>
					<g>
						<g>
							<path class="st0" d="M81.2,42.2c1-2.3,2.5-3.9,4.7-5.1c-0.4-0.5-0.7-0.9-1.1-1.4c-1.8,1.4-3.5,2.9-5.3,4.3
								c0.5,0.3,1,0.6,1.5,0.9c0.3-1,0.9-1.8,1.6-2.4c-0.4-0.4-0.8-0.8-1.3-1.3c-1.6,2.1-3.3,4-5.1,5.9c-0.8,0.9,0.4,2,1.3,1.3
								c1-0.8,1.6-1.5,2.2-2.5c-0.5-0.3-1-0.6-1.6-0.9c-0.7,1.7-1.6,3.3-2.6,4.8c0.5,0.2,1.1,0.5,1.6,0.7c0.3-1,0.6-2.1,1.1-3
								c0.5-1-1-2-1.6-0.9c-0.4,0.9-1,1.7-1.8,2.2c0.5,0.3,1,0.6,1.5,0.9c0.2-0.6,0.5-1.3,0.7-1.9c-0.5-0.3-1-0.6-1.6-0.9
								c-0.5,1.1-0.9,1.7-1.7,2.6c0.5,0.2,1,0.4,1.5,0.6c0.1-0.4,0.2-0.9,0.3-1.3c-0.5-0.2-1.1-0.5-1.6-0.7
								c-0.2,0.7-0.4,1.4-0.6,2.2c-0.3,1.1,1.3,1.5,1.7,0.5c0.3-1,0.8-2,1.3-3c-0.5-0.3-1-0.6-1.6-0.9c-0.3,0.7-0.7,1.5-1.2,2.1
								c0.5,0.3,1,0.6,1.6,0.9c0.7-1.5,1.5-2.9,2.3-4.2c-0.6-0.2-1.1-0.3-1.7-0.5c-0.2,0.6-0.4,1.1-0.6,1.7c0.5,0.3,1,0.6,1.6,0.9
								c0.6-1.5,1.4-2.7,2.4-3.9c-0.5-0.3-1-0.6-1.5-0.9c-0.2,1-0.7,1.9-1.4,2.7c0.5,0.2,1.1,0.5,1.6,0.7c0.4-1.3,0.8-2.1,1.6-3.2
								c-0.5-0.2-1.1-0.5-1.6-0.7c-0.1,1-0.6,1.9-1.4,2.7c0.5,0.3,1,0.6,1.5,0.9c0-0.7,0.2-1.3,0.7-1.8c0.6-0.9-0.7-1.8-1.4-1.1
								c-0.5,0.5-1,1-1.5,1.5c0.5,0.3,1,0.6,1.5,0.9c0.4-0.6,0.7-1.3,1.1-1.9c-0.5-0.4-0.9-0.7-1.4-1.1c-0.3,0.6-0.7,1.2-1,1.8
								c0.5,0.3,1,0.6,1.6,0.9c0.2-0.7,0.6-1.2,1-1.8c-0.4-0.4-0.8-0.8-1.3-1.3c-0.2,0.2-0.5,0.4-0.7,0.6c0.4,0.4,0.8,0.8,1.2,1.2
								c0.6-1.2,1.6-2.1,2.8-2.6c-0.4-0.5-0.7-0.9-1.1-1.4c-0.5,0.5-1,1-1.4,1.5c-0.8,0.8,0.4,2.1,1.3,1.3c1-0.9,1.9-1.9,2.9-2.8
								c-0.4-0.4-0.8-0.8-1.3-1.3c-0.9,1.1-1.8,2.1-2.6,3.2c0.5,0.4,0.9,0.7,1.4,1.1c0.4-1,1.1-1.9,2.1-2.5
								c-0.4-0.5-0.7-0.9-1.1-1.4c-0.9,0.9-1.7,1.6-2.8,2.2c0.4,0.4,0.8,0.8,1.2,1.2c1.2-1.7,2.7-2.9,4.6-3.9
								c-0.3-0.5-0.6-1-0.9-1.6c-0.6,0.4-1.2,0.8-1.7,1.2c0.4,0.5,0.7,0.9,1.1,1.4c1.5-1.4,3.1-2.6,4.9-3.6c0.9-0.5,0.3-2-0.7-1.6
								c-1.3,0.4-2.4,0.9-3.5,1.6c0.3,0.5,0.6,1,0.9,1.6c1.7-1.2,3.5-2.1,5.5-2.9c-0.2-0.5-0.5-1.1-0.7-1.6
								c-1.5,0.8-2.8,1.7-4.1,2.9c-0.8,0.7,0.2,1.9,1.1,1.4c1.3-0.7,2.6-1.4,3.9-2.1c-0.4-0.5-0.7-0.9-1.1-1.4
								c-3.3,2.7-6.5,5.5-9.5,8.5c0.5,0.4,0.9,0.7,1.4,1.1c1.3-1.8,2.8-3.3,4.5-4.7c-0.5-0.4-0.9-0.7-1.4-1.1
								c-1.1,1.5-2.3,3-3.5,4.5c0.5,0.4,0.9,0.7,1.4,1.1c1.3-2,2.8-3.6,4.7-5c-0.4-0.4-0.8-0.8-1.3-1.3c-2.1,2.3-4.2,4.7-6.3,7
								c0.5,0.4,0.9,0.7,1.4,1.1c1.1-1.9,2.5-3.3,4.3-4.5c-0.4-0.5-0.7-0.9-1.1-1.4c-1.4,1.7-3,3-4.9,4.1c0.4,0.4,0.8,0.8,1.2,1.2
								c0.5-0.7,4.9-6.6,5.9-6.2c-0.2-0.4-0.4-0.9-0.5-1.3c-0.9,1.5-2,2.8-3.3,4c0.4,0.4,0.8,0.8,1.3,1.3c1.2-1.2,2.4-2.2,3.8-3.2
								c-0.4-0.3-0.9-0.7-1.3-1c-0.4,0.7-0.7,1.3-1.1,2c0.5,0.4,0.9,0.7,1.4,1.1c0.7-1.3,1.6-2.2,2.8-3.1c-0.4-0.3-0.9-0.7-1.3-1
								c-0.5,1.7-1.2,2.7-2.5,3.8c0.5,0.2,1,0.4,1.5,0.6c0.3-0.9,0.7-1.8,1-2.7c0.8-0.9-0.5-2.1-1.3-1.3c-1.1,1.2-1.5,2.3-1.6,4
								c0,0.9,1,1.1,1.5,0.6c1.6-1.2,2.5-2.6,3-4.6c0.2-0.7-0.7-1.5-1.3-1c-1.5,1-2.6,2.1-3.5,3.7c-0.5,0.9,0.7,1.8,1.4,1.1
								c0.8-0.9,1.3-1.6,1.6-2.7c0.2-0.7-0.7-1.5-1.3-1c-1.5,1.1-2.9,2.2-4.2,3.5c-0.8,0.8,0.4,2.1,1.3,1.3c1.4-1.3,2.6-2.7,3.6-4.4
								c0.3-0.5,0-1.1-0.5-1.3c-2.6-1-6.8,5.4-7.9,7c-0.5,0.8,0.5,1.7,1.2,1.2c2.1-1.2,3.8-2.6,5.3-4.4c0.6-0.7-0.2-2-1.1-1.4
								c-2.1,1.4-3.7,3-5,5.2c-0.5,0.9,0.7,1.9,1.4,1.1c2.1-2.3,4.2-4.7,6.3-7c0.8-0.9-0.4-2-1.3-1.3c-2,1.6-3.5,3.3-4.9,5.4
								c-0.6,0.8,0.8,1.9,1.4,1.1c1.3-1.6,2.6-3.2,3.8-4.9c0.7-0.9-0.7-1.7-1.4-1.1c-1.8,1.5-3.4,3.2-4.7,5.1
								c-0.6,0.8,0.7,1.8,1.4,1.1c3-3,6.2-5.8,9.5-8.5c0.8-0.7-0.2-1.9-1.1-1.4c-1.3,0.7-2.6,1.4-3.9,2.1c0.4,0.5,0.7,0.9,1.1,1.4
								c1.1-1.1,2.4-1.9,3.8-2.6c0.9-0.5,0.3-2-0.7-1.6c-2.2,0.8-4.1,1.7-6,3c-0.9,0.7-0.1,2.2,0.9,1.6c1-0.6,2-1.1,3.1-1.5
								c-0.2-0.5-0.5-1.1-0.7-1.6c-1.9,1.1-3.6,2.4-5.3,3.9c-0.7,0.7,0.2,2,1.1,1.4c0.6-0.4,1.2-0.8,1.7-1.2c1-0.6,0.1-2.1-0.9-1.6
								c-2.1,1.1-3.8,2.6-5.2,4.5c-0.5,0.7,0.5,1.7,1.2,1.2c1.2-0.7,2.2-1.5,3.1-2.5c0.7-0.7-0.2-2-1.1-1.4c-1.3,0.9-2,1.7-2.7,3.1
								c-0.4,0.9,0.7,1.9,1.4,1.1c0.9-1.1,1.8-2.1,2.6-3.2c0.7-0.9-0.4-2.1-1.3-1.3c-0.9,1-1.9,1.9-2.9,2.8c0.4,0.4,0.8,0.8,1.3,1.3
								c0.5-0.5,1-1,1.4-1.5c0.7-0.8-0.2-1.8-1.1-1.4c-1.6,0.8-2.6,1.7-3.4,3.3c-0.4,0.8,0.4,1.7,1.2,1.2c0.6-0.4,0.6-0.4,1.1-0.9
								c0.7-0.9-0.5-2.2-1.3-1.3c-0.6,0.7-1,1.3-1.3,2.1c-0.5,1,1,1.9,1.6,0.9c0.3-0.6,0.7-1.2,1-1.8c0.5-0.9-0.7-1.9-1.4-1.1
								c-0.8,0.9-1.2,1.6-1.6,2.7c-0.3,0.9,0.9,1.5,1.5,0.9c0.5-0.5,1-1,1.5-1.5c-0.5-0.4-0.9-0.7-1.4-1.1c-0.5,0.8-0.7,1.4-0.9,2.3
								c-0.1,0.8,0.8,1.6,1.5,0.9c1-1.1,1.5-2,1.8-3.5c0.2-1-1.1-1.5-1.6-0.7c-0.8,1.1-1.3,2.3-1.8,3.6c-0.3,1,1.1,1.5,1.6,0.7
								c0.7-1,1.2-2,1.6-3.2c0.3-0.8-0.9-1.6-1.5-0.9c-1.1,1.3-2,2.7-2.7,4.2c-0.5,1,0.9,1.9,1.6,0.9c0.6-0.9,0.8-1.6,0.8-2.6
								c0-0.9-1.2-1.2-1.7-0.5c-0.9,1.4-1.6,2.8-2.3,4.2c-0.5,1,0.9,1.9,1.6,0.9c0.5-0.7,0.9-1.4,1.2-2.1c0.5-1-1-1.9-1.6-0.9
								c-0.6,1.1-1.1,2.3-1.5,3.4c0.6,0.2,1.2,0.3,1.7,0.5c0.2-0.7,0.4-1.4,0.6-2.2c0.3-1-1.2-1.6-1.6-0.7c-0.5,1-0.6,1-0.5,2.2
								c0,0.8,1,1.2,1.5,0.6c0.9-0.9,1.5-1.8,2-3c0.4-1-1.1-2-1.6-0.9s-0.5,1.2-0.9,2.3c-0.3,0.9,0.8,1.4,1.5,0.9
								c0.9-0.8,1.5-1.5,2.1-2.6c-0.5-0.3-1-0.6-1.6-0.9c-0.5,1.1-0.9,2.3-1.3,3.5c-0.3,1,1.1,1.5,1.6,0.7c1.1-1.5,1.9-3.1,2.6-4.8
								c0.4-1-1-1.9-1.6-0.9c-0.4,0.9-1,1.7-1.9,2.2c0.4,0.4,0.8,0.8,1.3,1.3c1.8-1.9,3.5-3.9,5.1-5.9c0.7-0.9-0.4-2.1-1.3-1.3
								c-1,1-1.6,1.9-2.1,3.2c-0.3,0.9,0.9,1.4,1.5,0.9c1.8-1.4,3.5-2.9,5.3-4.3c0.8-0.7-0.2-1.9-1.1-1.4c-2.6,1.4-4.4,3.4-5.5,6.1
								C79,42.8,80.7,43.2,81.2,42.2L81.2,42.2z"/>
						</g>
					</g>
				</g>
				<g>
					<g>
						<path class="st0" d="M88.4,36c0-0.2,0-0.3,0-0.5c0.1-0.3,0.3-0.6,0.5-0.8c0.2-0.3,0.4-0.6,0.7-0.8c1.6-1,1.5,0.6,1.2,1.5
							c-0.2,0.6-0.3,0.9-0.9,1.1c-0.4,0.3-0.6,0.2-0.5-0.3c-0.1-0.3,0-0.7,0.2-1c0.3-0.6,0.8-1.2,1.3-1.6c0.3-0.2,0.6-0.4,0.9-0.6
							c0.2-0.1,0.4-0.2,0.5-0.2l-0.1,0.1c0.2,0.6-0.9,1.4-1.4,1.6c-0.4,0.1-0.9,0.2-1.3,0c0,0-0.3,0.4,0-0.1s1.7-2,2.4-1.2
							c1.1,1.3-2.5,4.1-3,2.7c-0.2-0.5,0.6-1.5,0.9-1.8c0.5-0.4,1.1-0.8,1.8-0.8c0.9,0,1.8,0.7,1,1.6c-0.5,0.5-1.4,0.7-2.1,0.6
							c-1-0.2-1.3-1-0.9-1.9c0.4-0.8,1.2-1.3,2-1.5c-0.3-0.1-0.7-0.3-1-0.4c0.1-0.3,0-0.3-0.3,0.2c-0.2,0.2-0.5,0.4-0.8,0.6
							c-0.1,0.1-1.4,0.8-1.5,0.7c0.1,0.3,0.2,0.6,0.2,0.9c0.2-0.6,2.3-1.1,2.8-1.3c1-0.3,2-0.4,3.1-0.5c1.2-0.1,1.2-1.9,0-1.8
							c-1.9,0.1-3.8,0.5-5.5,1.3c-0.9,0.4-3.1,1.6-1.7,2.9c1.6,1.4,6.5-1.7,5.2-3.8c-0.2-0.3-0.6-0.5-1-0.4c-1.6,0.5-3,1.6-3.4,3.3
							c-0.4,1.5,0.3,2.9,1.8,3.5c2.5,0.9,7.2-1.8,4.7-4.6c-2.2-2.4-6.1-0.2-6.9,2.5c-0.4,1.3,0.1,3,1.6,3.3c1.5,0.2,3.2-1,4-2.1
							c0.9-1.2,1.3-2.9,0.2-4.1c-1.1-1.3-2.7-0.8-3.8,0.1c-1,0.7-2.5,2.4-1.5,3.6c0.9,1.1,2.9,1,4,0.4c1.3-0.7,2.3-2.3,2-3.8
							c-0.3-1.8-2.4-1.2-3.5-0.5c-1.4,0.8-2.6,2.3-2.9,3.9c-0.2,1.4,0.5,3,2,3c3.5,0.2,4.7-7.2,0.8-7c-1.8,0.1-3.5,2.1-3.8,3.8
							c-0.3,1.6,1.2,3.1,2.7,2.1C90.3,36.9,89.4,35.3,88.4,36L88.4,36z"/>
					</g>
				</g>
				<g>
					<g>
						<path class="st0" d="M122.6,39.8c-1-0.5-1.8-0.9-2.9-1.1c-0.9-0.2-1.5,0.8-0.9,1.5c0.9,1,1.9,2,2.8,3c0.4-0.5,0.7-0.9,1.1-1.4
							c-1.1-0.8-2.2-1.7-3.4-2.5c-0.9-0.7-1.7,0.7-1.1,1.4c0.9,1.1,1.8,2.1,2.9,3c0.4-0.5,0.7-0.9,1.1-1.4c-0.8-0.3-1.6-0.8-2.2-1.5
							c-0.3,0.5-0.6,1-0.9,1.5c1.4,0.4,2.7,1.1,3.7,2.2c0.4-0.5,0.7-0.9,1.1-1.4c-0.3-0.3-0.7-0.5-1-0.8c-0.4,0.5-0.7,0.9-1.1,1.4
							c0.9,0.6,1.7,1.3,2.5,2c0.9,0.7,2.1-0.4,1.3-1.3c-0.3-0.3-0.7-0.7-1-1c-0.8-0.8-1.8,0.2-1.4,1.1c0.4,0.8,0.7,1.6,1.1,2.4
							c0.4-0.4,0.8-0.8,1.2-1.2c-0.9-0.5-1.7-1.1-2.4-1.9c-0.4,0.5-0.7,0.9-1.1,1.4c1,0.6,1.9,1.2,2.7,1.9c0.9,0.7,2.1-0.4,1.3-1.3
							c-0.4-0.5-0.9-1-1.3-1.5c-0.7-0.8-1.9,0.2-1.4,1.1c0.3,0.7,0.7,1.4,1.2,2c0.5,0.8,1.6,0.4,1.7-0.5c0-0.2,0-0.4,0.1-0.6
							c-0.5,0.2-1,0.4-1.5,0.6c0.2,0.3,0.4,0.6,0.6,0.9c0.4,1,1.6,0.7,1.8-0.2c0-0.2,0.1-0.4,0.1-0.7c-0.6,0.2-1.1,0.3-1.7,0.5
							c0.2,0.6,0.5,1.2,0.7,1.8c0.4,1.1,2.1,0.6,1.7-0.5c-0.1-0.3-0.2-0.6-0.3-1c-0.5,0.2-1.1,0.5-1.6,0.7c0.3,0.4,0.5,0.9,0.8,1.3
							c0.5-0.4,0.9-0.7,1.4-1.1c-0.7-0.7-1.3-1.5-1.9-2.3c-0.5,0.4-0.9,0.7-1.4,1.1c0.5,0.5,0.9,1.1,1.2,1.8
							c0.4,0.8,1.7,0.4,1.7-0.5c0-1.4-0.2-2.6-0.5-4c-0.6,0.2-1.2,0.3-1.7,0.5c0.1,0.7,0.2,1.3,0.2,2c0.6-0.1,1.2-0.2,1.8-0.2
							c-0.2-0.7-0.4-1.5-0.6-2.2c-0.6,0.2-1.2,0.3-1.7,0.5c0.1,0.3,0.3,0.7,0.4,1c0.5-0.2,1.1-0.5,1.6-0.7c-0.9-1.5-1.9-2.9-3-4.2
							c-0.4,0.4-0.8,0.8-1.3,1.3c0.3,0.6,0.6,1.1,1,1.7c0.4-0.3,0.9-0.7,1.3-1c-1.8-1.3-3.3-2.8-4.7-4.4c-0.4,0.4-0.8,0.8-1.3,1.3
							c1.3,1.2,2.6,2.4,3.9,3.6c0.4-0.5,0.7-0.9,1.1-1.4c-1.6-0.8-2.7-1.8-3.6-3.3c-0.4,0.4-0.8,0.8-1.2,1.2c1.5,0.8,2.7,1.7,3.9,3
							c0.8,0.9,2-0.4,1.3-1.3c-1.1-1.2-2.1-2.4-3.2-3.6c-0.4,0.5-0.7,0.9-1.1,1.4c1.5,0.9,2.7,1.9,3.8,3.3c0.7,0.9,2.2,0.1,1.6-0.9
							c-0.7-1-1.4-1.9-2.2-2.8c-0.4,0.5-0.7,0.9-1.1,1.4c1.6,1.2,2.4,2.7,2.8,4.6c0.6-0.2,1.2-0.3,1.7-0.5c-0.2-0.6-0.3-1.1-0.5-1.7
							c-0.5,0.2-1.1,0.5-1.6,0.7c0.1,0.4,0.3,0.8,0.4,1.2c0.5-0.3,1-0.6,1.5-0.9c-2.2-2.2-3.4-4.9-5.8-7c-0.4,0.5-0.7,0.9-1.1,1.4
							c1.1,0.5,1.9,1.1,2.8,2c0.4-0.5,0.7-0.9,1.1-1.4c-1.6-1.1-3-2.3-4.2-3.7c-0.4,0.5-0.7,0.9-1.1,1.4c1.3,0.8,2.4,1.7,3.4,2.9
							c0.4-0.5,0.7-0.9,1.1-1.4c-1.2-0.7-2.1-1.5-2.9-2.7c-0.4,0.4-0.8,0.8-1.2,1.2c1,0.8,1.9,1.6,2.9,2.4c0.4-0.5,0.7-0.9,1.1-1.4
							c-0.8-0.5-1.5-1.1-1.9-2c-0.4,0.4-0.8,0.8-1.2,1.2c0.7,0.5,1.4,1.1,1.9,1.8c0.4-0.4,0.8-0.8,1.3-1.3c-0.6-0.7-1.2-1.3-1.8-2
							c-0.6-0.8-2,0.3-1.4,1.1s1.2,1.5,1.8,2.2c0.4-0.5,0.7-0.9,1.1-1.4c-1.7-1.2-3.2-2.5-4.5-4.1c-0.4,0.4-0.8,0.8-1.3,1.3
							c0.6,0.6,1.2,1.1,1.7,1.7c0.8,0.8,2.1-0.4,1.3-1.3c-0.8-0.8-1.5-1.6-2.3-2.4c-0.4,0.4-0.8,0.8-1.3,1.3
							c0.7,0.7,1.2,1.3,1.8,2.1c0.4-0.4,0.8-0.8,1.3-1.3c-0.8-1-1.3-1.9-1.9-2.9c-0.5,0.4-0.9,0.7-1.4,1.1c1.1,0.8,2,1.7,2.9,2.8
							c0.7,0.8,2-0.3,1.4-1.1c-0.8-1-1.5-1.9-2.4-2.8c-0.4,0.5-0.7,0.9-1.1,1.4c0.8,0.4,1.4,1,1.9,1.7c0.4-0.4,0.8-0.8,1.3-1.3
							c-0.7-0.7-0.7-0.7-1.5-1.2s-1.7,0.5-1.2,1.2c0.7,1.1,1.4,2.1,2.2,3.1c0.4-0.5,0.7-0.9,1.1-1.4c-0.3-0.1-0.6-0.3-0.9-0.4
							c-1-0.5-1.9,0.9-0.9,1.6c0.4,0.3,0.9,0.7,1.3,1c0.9,0.8,2.1-0.5,1.3-1.3c-0.2-0.2-0.5-0.5-0.7-0.7c-0.4,0.5-0.7,0.9-1.1,1.4
							c0.6,0.4,1.2,0.8,1.7,1.3c0.8,0.8,2.1-0.5,1.3-1.3c-0.7-0.6-1.3-1.1-2.1-1.6c-0.9-0.5-1.8,0.7-1.1,1.4
							c0.2,0.2,0.5,0.5,0.7,0.7c0.4-0.4,0.8-0.8,1.3-1.3c-0.7-0.6-0.9-0.8-1.6-1.3c-0.3,0.5-0.6,1-0.9,1.6c0.3,0.1,0.6,0.3,0.9,0.4
							c0.9,0.5,1.7-0.6,1.1-1.4c-0.7-0.9-1.4-1.8-2-2.7c-0.4,0.4-0.8,0.8-1.2,1.2c0.4,0.3,0.7,0.6,1.1,0.9c0.8,0.9,2-0.4,1.3-1.3
							c-0.7-0.8-1.4-1.4-2.2-2c-0.9-0.6-1.8,0.7-1.1,1.4c0.8,0.8,1.5,1.6,2.1,2.5c0.5-0.4,0.9-0.7,1.4-1.1c-0.9-1-1.8-1.9-2.9-2.8
							c-0.8-0.6-1.9,0.1-1.4,1.1c0.7,1.2,1.4,2.2,2.2,3.3c0.7,0.9,2-0.4,1.3-1.3c-0.6-0.7-1.2-1.4-1.8-2.1c-0.8-0.8-2.1,0.4-1.3,1.3
							c0.8,0.8,1.5,1.6,2.3,2.4c0.4-0.4,0.8-0.8,1.3-1.3c-0.6-0.6-1.2-1.1-1.7-1.7c-0.8-0.8-2,0.4-1.3,1.3c1.4,1.7,3,3.1,4.9,4.4
							c0.9,0.6,1.7-0.7,1.1-1.4c-0.5-0.6-1-1.2-1.5-1.9c-0.5,0.4-0.9,0.7-1.4,1.1c0.6,0.7,1.1,1.4,1.8,2c0.8,0.9,2-0.4,1.3-1.3
							c-0.7-0.8-1.4-1.4-2.3-2.1c-0.8-0.5-1.7,0.5-1.2,1.2c0.7,1.1,1.4,1.9,2.5,2.6c0.9,0.6,1.8-0.7,1.1-1.4c-1-1-2.1-1.9-3.2-2.7
							c-0.7-0.5-1.7,0.5-1.2,1.2c1,1.4,2.1,2.4,3.6,3.3c0.9,0.6,1.7-0.7,1.1-1.4c-1.1-1.3-2.3-2.3-3.7-3.1c-0.9-0.6-1.7,0.7-1.1,1.4
							c1.4,1.6,2.9,2.9,4.6,4c0.9,0.6,1.7-0.7,1.1-1.4c-0.9-1.1-1.8-1.7-3.1-2.3c-0.9-0.4-1.9,0.7-1.1,1.4c2.4,2,3.7,4.8,5.8,7
							c0.7,0.7,1.7,0,1.5-0.9s-0.2-0.9-0.6-1.7c-0.5-0.9-1.9-0.3-1.6,0.7c0.2,0.6,0.3,1.1,0.5,1.7c0.3,1.1,2,0.6,1.7-0.5
							c-0.5-2.4-1.7-4.2-3.7-5.7c-0.8-0.6-1.8,0.7-1.1,1.4c0.8,0.7,1.4,1.5,2,2.5c0.5-0.3,1-0.6,1.6-0.9c-1.3-1.7-2.6-2.9-4.4-3.9
							c-0.9-0.5-1.7,0.7-1.1,1.4c1.1,1.2,2.1,2.4,3.2,3.6c0.4-0.4,0.8-0.8,1.3-1.3c-1.3-1.4-2.6-2.4-4.3-3.3
							c-0.8-0.4-1.7,0.4-1.2,1.2c1.1,1.8,2.4,3,4.3,3.9c0.9,0.4,1.9-0.7,1.1-1.4c-1.3-1.2-2.6-2.4-3.9-3.6c-0.9-0.8-2,0.4-1.3,1.3
							c1.5,1.8,3.2,3.3,5.1,4.7c0.6,0.5,1.5-0.3,1.3-1c-0.3-1-0.7-1.7-1.4-2.5c-0.8-0.9-2,0.4-1.3,1.3c1,1.2,1.9,2.5,2.7,3.9
							c0.5,0.9,2,0.3,1.6-0.7c-0.1-0.3-0.3-0.7-0.4-1c-0.4-1.1-2-0.7-1.7,0.5c0.2,0.8,0.4,1.5,0.6,2.2c0.3,1,1.8,0.8,1.8-0.2
							c0-1.3,0-1.2-0.3-2.5c-0.2-1.1-2-0.7-1.7,0.5s0.4,2.3,0.4,3.5c0.6-0.2,1.1-0.3,1.7-0.5c-0.4-0.9-0.8-1.5-1.5-2.1
							c-0.7-0.7-2,0.3-1.4,1.1c0.7,0.9,1.4,1.8,2.2,2.7c0.7,0.8,1.9-0.2,1.4-1.1c-0.3-0.4-0.5-0.9-0.8-1.3c-0.5-0.9-2-0.3-1.6,0.7
							c0.1,0.3,0.2,0.6,0.3,1c0.6-0.2,1.2-0.3,1.7-0.5c-0.3-1-0.4-1.2-0.9-2.2c-0.4-0.9-1.6-0.3-1.7,0.5c0,0.2-0.1,0.4-0.1,0.7
							c0.6-0.1,1.2-0.2,1.8-0.2c-0.3-0.9-0.4-1-1-1.7c-0.6-0.6-1.5-0.1-1.5,0.6c0,0.2,0,0.4-0.1,0.6c0.6-0.2,1.1-0.3,1.7-0.5
							c-0.5-0.6-0.9-1.3-1.2-2c-0.5,0.4-0.9,0.7-1.4,1.1c0.4,0.5,0.9,1,1.3,1.5c0.4-0.4,0.8-0.8,1.3-1.3c-1-0.8-2-1.5-3.1-2.2
							c-0.9-0.6-1.8,0.7-1.1,1.4c0.9,0.9,1.7,1.6,2.8,2.2c0.8,0.5,1.6-0.5,1.2-1.2c-0.4-0.8-0.7-1.6-1.1-2.4
							c-0.5,0.4-0.9,0.7-1.4,1.1c0.3,0.3,0.7,0.7,1,1c0.4-0.4,0.8-0.8,1.3-1.3c-1-0.8-1.9-1.5-2.9-2.3c-0.9-0.7-1.7,0.7-1.1,1.4
							s0.5,0.7,1.4,1.1c0.9,0.5,1.8-0.7,1.1-1.4c-1.3-1.4-2.7-2.1-4.5-2.6c-0.9-0.2-1.5,0.9-0.9,1.5c0.8,0.8,1.5,1.3,2.5,1.8
							c0.9,0.4,1.9-0.7,1.1-1.4c-1.1-0.9-2-1.9-2.9-3c-0.4,0.5-0.7,0.9-1.1,1.4c1.1,0.8,2.2,1.7,3.4,2.5c0.8,0.6,1.8-0.7,1.1-1.4
							c-1-1-1.9-2-2.8-3c-0.3,0.5-0.6,1-0.9,1.5c0.9,0.1,1.7,0.4,2.5,0.9C122.7,41.9,123.6,40.3,122.6,39.8L122.6,39.8z"/>
					</g>
				</g>
				<g>
					<g>
						<path class="st0" d="M123.4,38.7c-1.7-0.9-3.3-1.9-4.7-3.2c-0.9-0.8-2.1,0.5-1.3,1.3c1.2,1.2,2.5,2.2,4,3.1
							c0.9,0.6,1.8-0.7,1.1-1.4c-1-1.1-2-2.3-2.9-3.5c-0.5,0.4-0.9,0.7-1.4,1.1c1.4,1.2,2.7,2.5,3.8,3.9
							C122.4,39.6,122.8,39.2,123.4,38.7c-1-1.1-2-2.1-3.1-3.1c-0.4,0.4-0.8,0.8-1.3,1.3c1.4,1.3,2.9,2.6,4.3,3.9
							c0.4-0.4,0.8-0.8,1.3-1.3c-1.6-1.3-3.1-2.7-4.7-4c-0.4,0.5-0.7,0.9-1.1,1.4c1.5,1,3,2,4.3,3.2c0.9,0.7,2.1-0.5,1.3-1.3
							c-1.4-1.2-2.8-2.5-4.2-3.7c-0.4,0.4-0.8,0.8-1.3,1.3c1.6,1.3,3.1,2.6,4.7,3.8c0.9,0.7,2.2-0.5,1.3-1.3
							c-1.6-1.3-3.1-2.6-4.7-3.8c-0.9-0.7-2.2,0.5-1.3,1.3c1.4,1.2,2.8,2.5,4.2,3.7c0.4-0.4,0.8-0.8,1.3-1.3
							c-1.5-1.3-3.1-2.4-4.7-3.5c-0.8-0.5-1.9,0.7-1.1,1.4c1.6,1.3,3.1,2.7,4.7,4c0.9,0.7,2.1-0.5,1.3-1.3c-1.4-1.3-2.9-2.6-4.3-3.9
							c-0.9-0.8-2.1,0.5-1.3,1.3c1,1,2,2,3,3.1C122.8,40.8,124,39.5,123.4,38.7c-1.2-1.5-2.5-2.8-3.9-4c-0.7-0.6-2,0.2-1.4,1.1
							c1,1.4,2,2.7,3.2,3.9c0.4-0.5,0.7-0.9,1.1-1.4c-1.3-0.8-2.5-1.8-3.6-2.8c-0.4,0.4-0.8,0.8-1.3,1.3c1.6,1.4,3.3,2.5,5.1,3.5
							C123.5,40.7,124.4,39.2,123.4,38.7L123.4,38.7z"/>
					</g>
				</g>
				<g>
					<g>
						<path class="st0" d="M101.3,32.8c-1.8,0-3.3-0.4-4.9-1.2c-0.1,0.5-0.1,1.1-0.2,1.6c0.8-0.3,1.7-0.5,2.6-0.4
							c1,1.5,0.7,2.1-0.9,1.9c-2.4-1.3,1.5-2.2,2-1.9c0.8,1.1,0.2,1.8-1.5,2.2c-0.7,0.2-1.3,0.2-1.9,0c-3.6-1,0.7-2.3,1.5-1.6
							c1.1,1-2.4,2.5-3,2.3c-2-0.7,1.3-1.6,1.1-1.5c-0.6,0.5-3.2,1.8-3.8,1c0.7-1.3,0.7-1.6,0.1-1c0,0.6,0.4,0.7,1.3,0.3
							c-0.2-0.5-0.4-1-0.6-1.5c-0.6,0.7-0.3,0.9,0.9,0.5c-0.2-0.6-0.3-1.1-0.5-1.7c-0.5,0.4-2.9,1.7-3.5,1c-0.6,0-0.4-0.1,0.6-0.4
							c0.5-0.5,1.1-0.7,1.8-0.6c-0.1-0.3-0.3-0.7-0.4-1c-0.8,0.3-1,0.7-0.5,1.1c0.1,0.5,0.5,0.6,1,0.3c-0.3-0.5-0.6-1-0.9-1.5
							c-2.1,1.1-2.4,1.3-1.1,0.6c0.9-0.5,1.9-0.7,2.8-0.5c-0.2-0.6-0.3-1.1-0.5-1.7c-0.6,0.1-1.1,0.3-1.7,0.4
							c0.2,0.6,0.3,1.1,0.5,1.7c1-0.5,2-0.7,3.1-0.6c-0.1-0.6-0.2-1.2-0.2-1.8c-1.9,0.6-3.6,1-5.6,0.9c0.2,0.5,0.4,1,0.6,1.5
							c1.3-1,2.6-1.6,4.2-1.8c-0.2-0.5-0.5-1.1-0.7-1.6c-1.1,0.5-2.1,0.9-3.2,1.2c-1.1,0.4-0.6,1.9,0.5,1.7c1.3-0.2,2.6-0.4,3.8-0.6
							c-0.3-0.5-0.6-1-0.9-1.5c-0.3,0.1-0.5,0.2-0.8,0.3c0,0.6,0,1.2,0,1.7c1.2-0.3,2.3-0.5,3.4-0.6s1.2-1.8,0-1.8
							c-0.8,0-1.7,0-2.5,0c0,0.6,0,1.2,0,1.8c1.4-0.1,2.9-0.2,4.3-0.3c-0.1-0.6-0.2-1.2-0.2-1.8c-0.2,0-0.3,0-0.5,0.1
							c-0.4,0.1-0.6,0.5-0.7,0.9c0,0.2,0,0.3-0.1,0.5c-0.1,1.1,1.7,1.1,1.8,0c0-0.2,0-0.3,0.1-0.5c-0.2,0.3-0.4,0.6-0.7,0.9
							c0.2,0,0.3,0,0.5-0.1c1-0.1,0.8-1.8-0.2-1.8c-1.4,0.1-2.9,0.2-4.3,0.3c-1.1,0.1-1.2,1.8,0,1.8c0.8,0,1.7,0,2.5,0
							c0-0.6,0-1.2,0-1.8c-1.3,0.2-2.6,0.4-3.9,0.7c-0.8,0.2-0.9,1.6,0,1.7c1.1,0.2,1.7,0,2.5-0.7c0.7-0.7-0.1-1.6-0.9-1.5
							c-1.3,0.2-2.6,0.4-3.8,0.6c0.2,0.6,0.3,1.2,0.5,1.7c1.2-0.4,2.4-0.9,3.6-1.4c1-0.4,0.2-1.8-0.7-1.6c-1.9,0.3-3.5,1.1-5,2.3
							c-0.7,0.5-0.1,1.5,0.6,1.5c2.1,0.1,4.1-0.4,6.1-1c1-0.3,0.8-1.8-0.2-1.8c-1.5,0-2.7,0.2-4,0.9c-0.9,0.4-0.4,1.7,0.5,1.7
							c1,0,1.7-0.2,2.6-0.6c0.8-0.5,0.4-1.6-0.5-1.7c-2-0.2-4.2,0.6-5.7,2c-0.2,0.2-0.3,0.6-0.2,0.9c0.6,2.5,4.1,1.2,5.4,0.2
							c0.8-0.6-0.1-1.6-0.9-1.5c-0.9,0.1-4.8,1.5-2.8,3.1c1.2,1.1,4.4-1,4.6-2.3c0.1-0.4,0-0.8-0.4-1c-1.7-0.9-4.5,0.7-5.7,1.8
							c-0.2,0.2-0.3,0.6-0.2,0.9c0.8,2.9,5.4,1.5,7.1,0.4c0.8-0.5,0.4-1.6-0.5-1.7c-1.6-0.2-4.8,0.9-4.2,3c0.7,2.4,3.6,0.6,4.6-0.5
							c0.6-0.6,0.1-1.5-0.6-1.5c-1.2-0.1-3.6,0.3-3.9,1.8c-0.2,1.2,0.8,1.7,1.8,1.7c1.7,0,6.3-3.3,3-4.2c-2.7-0.8-7.5,2.7-3.7,4.6
							c2.2,1.1,8.3-0.2,7.3-3.6c-0.1-0.3-0.3-0.6-0.6-0.6c-1.7-0.3-5.2,0.7-5.6,2.7c-0.5,2.6,3.4,2.6,4.9,2.1c1.7-0.6,4.7-3,2.8-4.8
							c-1.4-1.4-5.4-0.8-6.4,0.9c-2.3,3.6,8.9,6,9.1-0.2c0.2-4.8-10.8-0.6-6.8,2.7c1.8,1.5,6.3,0.8,7-1.6c1.2-3.7-5-3.1-6.8-2.6
							c-0.7,0.2-0.9,1.3-0.2,1.6c1.9,0.9,3.7,1.4,5.8,1.4C102.5,34.6,102.5,32.8,101.3,32.8L101.3,32.8z"/>
					</g>
				</g>
				<g>
					<g>
						<path class="st0" d="M99.7,33.4c-0.8-0.4-1.5-0.8-2.3-1.2c-0.2,0.6-0.3,1.1-0.5,1.7c0.8-0.1,6.4,0,4.6,0.6
							c-1.6,0.5,2.6-1.8,1.1-1.4c0.3,0.4,0.7,0.9,1,1.3c0.5-0.3,0.9-0.6,1.4-0.9c-0.3-0.4-0.7-0.9-1-1.3c-0.4,0.4-0.7,0.8-1.1,1.3
							c0.4,0.5,0.7,0.9,1.1,1.4c0.3-0.2,0.6-0.4,0.9-0.7c-0.3-0.4-0.7-0.9-1-1.3c-0.1,0.4-0.3,0.8-0.4,1.2c-0.4-0.5-0.7-0.9-1.1-1.4
							c-1.4,1.7-2.9,2.3-4.5,1.7c-0.9-0.4-1-0.2-0.3,0.5c-0.3-0.4-0.7-0.9-1-1.3c1.4-2.9,0.5-3.4,4.3-2.2c-0.1-0.5-0.1-1.1-0.2-1.6
							c-1.6,0.2-3.1,0.5-4.7,0.7c0,0.6,0,1.2,0,1.7c1.2-0.6,2.5-0.8,3.8-0.5c-0.2-0.5-0.4-1-0.6-1.5c-1.2,0.2-2.3,0.4-3.5,0.6
							c0.1,0.5,0.1,1.1,0.2,1.6c1.6-1.2,3.4-1.6,5.3-1.3c-0.1-0.6-0.2-1.2-0.2-1.8c-2,0.6-3.9,0.9-6,0.9c0.2,0.6,0.3,1.1,0.5,1.7
							c1.4-0.1,2.8-0.2,4.1-0.4c-0.1-0.5-0.3-1-0.4-1.5c-1.9,2-4,2.4-6.2,1.3c0,0.6,0,1.2,0,1.7c2.1-0.9,4.1-1.3,6.4-1.5
							s-3.2,0.3-4.2,0.2c0.2,0.6,0.3,1.1,0.5,1.7c3.2-1.5,6.2-1.8,9.6-1.2c-0.1-0.5-0.1-1.1-0.2-1.6c-1.5,0.1-3,0.1-4.5,0.2
							c-0.1,0.5-0.1,1.1-0.2,1.6c3.6-1.3,6.9-1.3,10.5,0c0-0.6,0-1.2,0-1.7c-2.2,0.9-4.4,0.7-6.6-0.4c-0.2,0.6-0.3,1.1-0.5,1.7
							c1.5,0.1,4.2-0.3,5.2,0.6c1,0.1,1,0.2,0.1,0.3c-1,0.3-2,0-2.9-0.9c-0.2,0.6-0.3,1.1-0.5,1.7c3.2-0.3,5.6,0.2,8.4,1.8
							c0.2-0.6,0.3-1.1,0.5-1.7c-3.1,0-5.9-0.5-8.8-1.6c0,0.6,0,1.2,0,1.7c3.4-0.7,6.2,0,8.9,2.1c0.2-0.5,0.5-1.1,0.7-1.6
							c-1.1-0.7-2.3-1.4-3.4-2.1c-0.3,0.5-0.6,1-0.9,1.5c2.5,0.8,4.2,2,5.8,4.1c0.4-0.4,0.8-0.8,1.2-1.2c-0.8-0.5-1.7-1-2.5-1.5
							c-0.9-0.5-1.8,0.7-1.1,1.4c1.1,1.1,2.2,2,3.5,2.8c0.7,0.5,1.8-0.5,1.2-1.2c-0.9-1.2-1-1.3-2.1-2.5c-0.4,0.4-0.8,0.8-1.3,1.3
							c0.9,0.6,1.7,1.3,2.4,2.1c0.4-0.4,0.8-0.8,1.3-1.3c-0.9-0.8-1-0.8-2-1.4c-0.9-0.5-1.9,0.7-1.1,1.4c0.5,0.5,1.1,1,1.6,1.5
							c0.3-0.5,0.6-1,0.9-1.5c-0.8-0.4-1.7-0.9-2.5-1.3c-1-0.6-1.9,0.9-0.9,1.6c0.7,0.5,1.4,1,2.1,1.5c0.2-0.5,0.5-1.1,0.7-1.6
							c-0.9-0.4-1.8-0.7-2.7-1.1c-0.2,0.5-0.5,1.1-0.7,1.6c1.2,0.4,2.3,0.7,3.5,1.1c0.2-0.6,0.3-1.2,0.5-1.7
							c-0.8-0.3-1.5-0.5-2.3-0.8c-0.9-0.5-1.9,0.7-1.1,1.4c1,0.8,1.9,1.6,2.9,2.4c0.4-0.4,0.8-0.8,1.3-1.3c-0.3-0.3-0.7-0.6-1-0.8
							c-0.4,0.5-0.7,0.9-1.1,1.4c0.3,0.1,0.7,0.3,1,0.4c0.6,0.3,1.6-0.2,1.3-1c-0.2-0.4-0.3-0.8-0.5-1.3c-0.4,0.4-0.7,0.7-1.1,1.1
							c0.4,0.1,0.9,0.3,1.3,0.4c0.6,0.2,1.3-0.5,1.1-1.1c-0.2-0.7-0.4-1.4-0.6-2.1c-0.4,0.3-0.9,0.7-1.3,1c0.4,0.3,0.8,0.6,1.2,0.9
							c0.6,0.4,1.6-0.3,1.3-1c-0.1-0.4-0.3-0.8-0.4-1.1c-0.4,0.3-0.9,0.7-1.3,1c0.2,0.1,0.4,0.3,0.7,0.4c0.3-0.5,0.6-1,0.9-1.6
							c-5.3-3-10.8-5.1-16.7-6.5c-0.1,0.6-0.2,1.2-0.2,1.8c2.4,0.3,4.8,0.6,7.2,0.9c1,0.1,1.1-1.2,0.5-1.7c-0.3-0.2-0.5-0.3-0.8-0.5
							c-1-0.6-1.9,0.9-0.9,1.6c0.3,0.2,0.5,0.3,0.8,0.5c0.2-0.6,0.3-1.1,0.5-1.7c-2.4-0.3-4.8-0.6-7.2-0.9c-1-0.1-1.2,1.5-0.2,1.8
							c5.7,1.4,11.1,3.4,16.2,6.4c1,0.6,1.9-1,0.9-1.6c-0.2-0.1-0.4-0.3-0.7-0.4c-0.6-0.4-1.6,0.3-1.3,1c0.1,0.4,0.3,0.8,0.4,1.1
							c0.4-0.3,0.9-0.7,1.3-1c-0.4-0.3-0.8-0.6-1.2-0.9c-0.6-0.5-1.5,0.3-1.3,1s0.4,1.4,0.6,2.1c0.4-0.4,0.7-0.7,1.1-1.1
							c-0.4-0.1-0.9-0.3-1.3-0.4c-0.6-0.2-1.4,0.5-1.1,1.1c0.2,0.4,0.3,0.8,0.5,1.3c0.4-0.3,0.9-0.7,1.3-1c-0.3-0.1-0.7-0.3-1-0.4
							c-0.8-0.4-2,0.7-1.1,1.4c0.3,0.3,0.7,0.6,1,0.8c0.9,0.7,2.2-0.5,1.3-1.3c-1-0.8-1.9-1.6-2.9-2.4c-0.4,0.5-0.7,0.9-1.1,1.4
							c1.5,0.8,1.1,0.7,2.7,1c1.1,0.2,1.6-1.4,0.5-1.7c-1.2-0.4-2.3-0.7-3.5-1.1c-1-0.3-1.6,1.1-0.7,1.6c1.7,1,1.2,0.8,3.1,1.3
							c1,0.3,1.5-1.1,0.7-1.6c-0.7-0.5-1.4-1-2.1-1.5c-0.3,0.5-0.6,1-0.9,1.6c1.6,1,1.2,0.8,3,1.5c0.8,0.3,1.5-0.9,0.9-1.5
							c-0.5-0.5-1.1-1-1.6-1.5c-0.4,0.5-0.7,0.9-1.1,1.4c0.6,0.4,1.1,0.7,1.7,1.1c0.9,0.7,2.1-0.5,1.3-1.3c-0.7-0.8-1.5-1.4-2.4-2.1
							c-0.9-0.7-2.1,0.4-1.3,1.3c0.6,0.7,1.2,1.4,1.8,2.1c0.4-0.4,0.8-0.8,1.2-1.2c-1.2-0.7-2.2-1.6-3.1-2.5
							c-0.4,0.5-0.7,0.9-1.1,1.4c0.8,0.5,1.7,1,2.5,1.5c0.7,0.4,1.8-0.5,1.2-1.2c-1.8-2.5-3.9-4-6.9-5c-0.9-0.3-1.5,0.9-0.9,1.5
							c1.3,1.4,2.4,2,4.2,2.5c1.1,0.3,1.5-1.1,0.7-1.6c-3.1-2.4-6.5-3.1-10.3-2.3c-0.9,0.2-0.8,1.5,0,1.7c3.1,1.1,6,1.6,9.3,1.6
							c0.9,0,1.2-1.2,0.5-1.7c-3-1.7-5.9-2.3-9.3-2c-0.8,0.1-1.3,1.2-0.5,1.7c2.4,1.3,4.5,1.6,7.2,1.1c0.4-0.1,0.8-0.7,0.6-1.1
							c-1.3-3.5-6.2-3.2-9.4-3.4c-0.9,0-1.3,1.3-0.5,1.7c2.7,1.2,5.1,1.4,8,0.5c0.9-0.3,0.8-1.5,0-1.7c-3.9-1.3-7.6-1.3-11.4,0
							c-0.7,0.2-0.9,1.2-0.2,1.6c2.2,1.3,4.2,1.2,6.3-0.2c0.6-0.4,0.6-1.5-0.2-1.6c-3.9-0.7-7.4-0.3-11,1.4
							c-0.9,0.4-0.3,1.6,0.5,1.7c2.3,0.3,7.4,0.8,8.2-2.2c0.1-0.4-0.1-0.8-0.4-1c-3.1-1.5-7.3-0.2-10.4,1c-0.8,0.3-0.9,1.4,0,1.7
							c3,1.2,5.7,0.5,7.9-1.8c0.5-0.5,0.3-1.3-0.4-1.5c-2.1-0.6-3.6-0.5-5.5,0.5c-1,0.4-0.6,1.7,0.3,1.7c2.3,0,4.2-0.3,6.4-1
							c1-0.3,0.8-1.7-0.2-1.8C98.8,29,97,29.5,95,30.8c-0.7,0.4-0.5,1.4,0.2,1.6c2.1,0.9,3.6,0.5,5.3-1.1c0.6-0.6,0.1-1.5-0.6-1.5
							c-1.6-0.1-2.7,0-4.3,0.6c-0.7,0.3-1,1.6,0,1.7c2.3,0.4,3.9,0.1,6.1-0.9c0.7-0.4,0.5-1.4-0.2-1.6c-1.8-0.5-9.7-1-6.3,3.2
							c1.7,2,6.8,0.6,5.6-2.4c-1.1-2.8-7.2-0.5-7.6,1.8c-0.8,4.1,4.6,2.6,6.1,0.6c0.2-0.2,0.2-0.7,0-0.9c-1.5-2.2-5.4-0.8-5.1,2
							c0.3,2.5,3.1,2.8,4.1,0.7c0.4-0.7-0.2-1.4-1-1.3c-6.1,1-0.1,6.7,3,3c2.9-3.4-4.5-5.5-6-2.7c-0.1,0.3-0.2,0.7,0,0.9
							c2.4,3.2,7.2,2,9.6-0.5c0.7-0.7-0.2-2-1.1-1.4c-2.5,1.6,0.6,4.6,2.9,1.3c0.4-0.6-0.3-1.6-1-1.3c-1,0.3-1,0.3-1.7,1.1
							s0.2,1.9,1.1,1.4c1.3-0.7,1.2-0.6,1.8-1.9c0.3-0.7-0.2-1.5-1-1.3c-1.5,0.4-1.5,0.4-2.4,1.7c-0.5,0.7,0.3,1.5,1,1.3
							c1.9-0.5,2.8-0.8,3-2.7c0.1-0.5-0.5-0.9-0.9-0.9c-1.8,0.2-6.7,2.5-3.3,4.7c2.6,1.6,5-2.6,4.8-4.7c0-0.4-0.3-0.8-0.7-0.9
							c-2-0.4-7.1,0.9-6.2,3.7c1,2.9,6.4,1.2,7.2-0.9c1.7-4.4-4.7-3.3-6.7-1.7c-2.5,2-1,5.1,2.1,4.7c2.8-0.3,5.4-4.1,2.5-6.1
							c-2.3-1.6-8.8,0.8-8,4.2c0.6,2.4,6.7,4,8,1.6c2.1-3.9-6.3-3.9-8.1-3.7c-0.9,0.1-1.2,1.2-0.5,1.7c1.4,0.9,1.1,0.8,2.7,1.3
							C100.4,35.6,100.8,33.8,99.7,33.4L99.7,33.4z"/>
					</g>
				</g>
				<g>
					<g>
						<path class="st0" d="M115.9,33.1c-0.6-0.3-1.2-0.6-1.7-1c-1-0.7-1.8,0.9-0.9,1.6c1.6,1.2,3.3,2.3,5,3.2c0.3-0.5,0.6-1,0.9-1.6
							c-1.6-0.7-3.2-1.6-4.7-2.6c-0.8-0.6-1.9,0.7-1.1,1.4c1.4,1.3,2.9,2.4,4.4,3.4c0.3-0.5,0.6-1,0.9-1.6c-2-1.3-3.9-2.8-5.6-4.5
							c-0.4,0.5-0.7,0.9-1.1,1.4c1.9,0.9,3.8,1.7,5.7,2.4c1,0.3,1.5-1.1,0.7-1.6c-1.6-1-3.1-2-4.7-3c-0.2,0.5-0.5,1.1-0.7,1.6
							c1.3,0.4,2.6,0.7,3.9,1.1c1,0.3,1.5-1.1,0.7-1.6c-1.1-0.8-2.3-1.5-3.4-2.3c-0.3,0.5-0.6,1-0.9,1.6c0.9,0.5,1.8,0.9,2.7,1.4
							c0.2-0.5,0.5-1.1,0.7-1.6c-1.5-0.5-3-1.1-4.5-1.6c-0.2,0.6-0.3,1.2-0.5,1.7c1.3,0.5,2.5,0.9,3.8,1.4c0.1-0.6,0.2-1.2,0.2-1.8
							c-1.1-0.1-2.1-0.3-3.1-0.6c-0.9-0.3-1.5,0.9-0.9,1.5c1.2,1.2,2.4,2.2,3.8,3.2c0.2-0.5,0.5-1.1,0.7-1.6
							c-2.3-0.4-4.4-1.3-6.2-2.8c-0.3,0.5-0.6,1-0.9,1.5c2.4,0.3,4.7,0.8,7,1.4c0.1-0.6,0.2-1.2,0.2-1.8c-2.3-0.3-4.3-1.9-6.5-1.8
							c-1.2,0-1.2,1.8,0,1.8s2.3,0.8,3.5,1.2c1,0.4,2,0.5,3.1,0.7c1,0.1,1.2-1.5,0.2-1.8c-2.3-0.6-4.6-1-7-1.4
							c-0.8-0.1-1.7,0.9-0.9,1.5c2.1,1.6,4.4,2.7,7,3.2c1,0.2,1.5-1,0.7-1.6c-1.2-0.9-2.4-1.8-3.4-2.9c-0.3,0.5-0.6,1-0.9,1.5
							c1.2,0.4,2.4,0.6,3.6,0.7c1.1,0.1,1.1-1.4,0.2-1.8c-1.3-0.5-2.5-0.9-3.8-1.4c-1.1-0.4-1.6,1.3-0.5,1.7c1.5,0.5,3,1.1,4.5,1.6
							c1,0.3,1.6-1.2,0.7-1.6c-0.9-0.5-1.8-0.9-2.7-1.4c-1-0.5-1.9,0.9-0.9,1.6c1.1,0.8,2.3,1.5,3.4,2.3c0.2-0.5,0.5-1.1,0.7-1.6
							c-1.3-0.4-2.6-0.7-3.9-1.1c-1-0.3-1.5,1.1-0.7,1.6c1.6,1,3.1,2,4.7,3c0.2-0.5,0.5-1.1,0.7-1.6c-1.8-0.6-3.6-1.3-5.3-2.2
							c-0.9-0.4-1.8,0.7-1.1,1.4c1.8,1.8,3.8,3.4,6,4.7c1,0.6,1.9-0.9,0.9-1.6c-1.5-0.9-2.8-2-4.1-3.1c-0.4,0.5-0.7,0.9-1.1,1.4
							c1.5,1,3,1.9,4.7,2.6c1,0.5,1.9-1,0.9-1.6c-1.7-1-3.4-2.1-5-3.2c-0.3,0.5-0.6,1-0.9,1.6c0.6,0.4,1.1,0.7,1.7,1
							C116,35.1,116.9,33.6,115.9,33.1L115.9,33.1z"/>
					</g>
				</g>
				<g>
					<g>
						<path class="st0" d="M96.9,30.1c0.2,0.1,0.3,0.1,0.5,0.2c-0.2,0.4-0.4,0.9-0.5,1.3c1.6-0.6,3.2-0.7,4.8-0.4
							c-0.1-0.6-0.2-1.2-0.2-1.8c-2.6,0.8-5,1-7.7,0.6c0.1,0.5,0.3,1,0.4,1.5c0.7-0.3,1.4-0.7,2.2-1c-0.2-0.5-0.4-1-0.6-1.5
							c-0.9,0.4-1.7,0.7-2.6,1.1c0.3,0.5,0.5,0.9,0.8,1.4c-1.5,0.2-3,0.5-4.5,0.9c0.2,0.6,0.3,1.1,0.5,1.7c1-0.1,2-0.2,3-0.3
							c-0.1-0.5-0.1-1.1-0.2-1.6c-1.2,0.4-2.5,0.8-3.7,1.2c-1.1,0.1-1.2,1.9,0,1.8c0.3-0.2,0.6-0.4,0.8-0.7
							c-0.1,0.5-0.1,1.1-0.2,1.6c4.7,0.5,5.8,0.4,3.3-0.3c-0.1,0.5-0.1,1.1-0.2,1.6c2.8-1.1,5.3-1.2,8.2-0.3
							c-0.1-0.5-0.1-1.1-0.2-1.6c-1.8,1.2-3.7,1.4-5.6,0.5c0.1,0.5,0.1,1.1,0.2,1.6c1-0.3,2-0.5,2.9-0.8c-0.2-0.6-0.3-1.1-0.5-1.7
							c-1.3,0.1-2.5,0.2-3.8,0.3c-1.2-0.3-1.5,1.3-0.5,1.7c0.7,0.4,1.3,0.8,2,1.2c0.2-0.5,0.4-1,0.6-1.5c-1.2-0.2-2.5-0.4-3.7-0.6
							c-0.2,0.5-0.5,1.1-0.7,1.6c1.1,0.3,2.2,0.7,3.3,1.2c0.2-0.6,0.3-1.2,0.5-1.7c-1.3-0.2-2.4-0.7-3.3-1.6
							c-0.2,0.6-0.3,1.1-0.5,1.7c1.8-0.1,3.2,0.5,4.4,1.6c0.3-0.5,0.6-1,0.9-1.6c-0.7-0.3-1.4-0.7-2.1-1c-0.2,0.5-0.5,1.1-0.7,1.6
							c2.9,0.6,5.6,0.8,8.6,0.8c1,0,1.3-1.6,0.2-1.8c-1.9-0.3-3.8-0.5-5.7-0.8c0,0.6,0,1.2,0,1.7c2.2-0.8,4.2-1.1,6.5-1
							c-0.1-0.6-0.2-1.2-0.2-1.8c-1.4,0.1-2.9,0.2-4.3,0.3c0.1,0.5,0.1,1.1,0.2,1.6c1.7-0.9,3.5-1.3,5.5-1.3c-0.2-0.5-0.4-1-0.6-1.5
							c-1.1,1.4-2.5,2.2-4.3,2.5c0.3,0.5,0.6,1,0.9,1.5c1.4-0.5,2.7-1,4.1-1.5c-0.3-0.5-0.5-0.9-0.8-1.4c-0.8,0.7-1.5,1.3-2.3,2
							c0.3,0.4,0.7,0.9,1,1.3c1.2-0.8,2.4-1.7,3.6-2.5c-0.3-0.4-0.7-0.9-1-1.3c0.6,0,1.2,0,1.8,0.1c-0.4-0.4-0.7-0.7-1.1-1.1
							c2.1,0.9,4.1,1.8,6.2,2.7c0.2-0.5,0.4-1,0.6-1.5c-1.7,0-3.3-0.3-4.8-1.1c-0.2,0.6-0.3,1.1-0.5,1.7c1.6,0.5,3.3,1,4.9,1.6
							c0.2-0.5,0.4-1,0.6-1.5c-0.9-0.3-1.9-0.5-2.8-0.8c-0.2,0.5-0.5,1.1-0.7,1.6c1.4,0.3,2.8,0.7,4.2,1.1c1,0.3,1.6-1.2,0.7-1.6
							c-0.5-0.2-1-0.4-1.5-0.6c-1-0.4-2,1-0.9,1.6c0.7,0.3,1.3,0.7,1.8,1.1c0.2-0.5,0.5-1.1,0.7-1.6c-0.7-0.3-1.4-0.6-2.1-1
							c-0.3,0.5-0.6,1-0.9,1.6c0.9,0.5,1.8,0.9,2.7,1.4c0.3-0.5,0.6-1,0.9-1.6c-0.6-0.3-1.1-0.5-1.7-0.8c-0.2,0.5-0.5,1.1-0.7,1.6
							c0.6,0.3,1.2,0.5,1.9,0.6c0.8,0.2,1.6-0.9,0.9-1.5c-0.5-0.5-1.1-1-1.6-1.5c-0.8-0.8-2.1,0.5-1.3,1.3c1.1,1.1,0.8,0.9,2.2,1.5
							c1.1,0.5,1.8-0.8,0.9-1.6c-0.7-0.6-1.5-1.1-2.2-1.7c-0.3,0.5-0.6,1-0.9,1.6c1.5,0.7,1.1,0.6,2.8,0.9c1,0.2,1.5-1,0.7-1.6
							c-0.8-0.7-1.7-1.3-2.7-1.7c-0.2,0.5-0.5,1.1-0.7,1.6c0.9,0.3,1.8,0.5,2.7,0.8c1,0.3,1.6-1.1,0.7-1.6s-1.8-1.1-2.7-1.6
							c-0.2,0.5-0.5,1.1-0.7,1.6c0.9,0.2,1.7,0.5,2.6,0.7c1.1,0.3,1.6-1.4,0.5-1.7c-0.9-0.2-1.7-0.5-2.6-0.7c-1-0.3-1.6,1.1-0.7,1.6
							s1.8,1.1,2.7,1.6c0.2-0.5,0.5-1.1,0.7-1.6c-0.9-0.3-1.8-0.5-2.7-0.8c-1-0.3-1.6,1.2-0.7,1.6c1,0.4,1.9,0.9,2.7,1.7
							c0.2-0.5,0.5-1.1,0.7-1.6c-0.8-0.2-1.6-0.5-2.3-0.7c-1.1-0.5-1.8,0.9-0.9,1.6c0.7,0.6,1.5,1.1,2.2,1.7c0.3-0.5,0.6-1,0.9-1.6
							c-0.6-0.4-1.2-0.8-1.9-1.2c-0.4,0.4-0.8,0.8-1.3,1.3c0.5,0.5,1.1,1,1.6,1.5c0.3-0.5,0.6-1,0.9-1.5c-0.7-0.1-1.3-0.3-1.9-0.6
							c-0.9-0.4-1.6,1.2-0.7,1.6c0.6,0.3,1.1,0.5,1.7,0.8c1,0.5,2-1,0.9-1.6c-0.9-0.5-1.8-0.9-2.7-1.4c-1-0.5-1.9,1-0.9,1.6
							c1.3,0.7,1.2,0.7,2.6,1.1c1,0.3,1.5-1.1,0.7-1.6c-0.6-0.4-1.2-0.8-1.8-1.1c-0.3,0.5-0.6,1-0.9,1.6c0.5,0.2,1,0.4,1.5,0.6
							c0.2-0.5,0.5-1.1,0.7-1.6c-1.4-0.4-2.8-0.8-4.2-1.1c-0.9-0.2-1.7,1.2-0.7,1.6c1.9,0.9,1.6,0.8,3.7,1c0.7,0.1,1.2-1.1,0.6-1.5
							c-2-1.6-3.6-2.2-6.2-2.1c-0.8,0-1.3,1.3-0.5,1.7c1.9,0.8,3.6,1.3,5.7,1.3c0.8,0,1.2-1,0.6-1.5c-1.7-1.7-5.8-4-7.7-1.1
							c-0.9,1.3,0,4.2,2,3.6c3.9-1.1-2.2-8.3-4.3-1.6c-0.2,0.5,0.2,0.9,0.6,1.1c2,0.8,3.4-1.1,3.7-3c0.1-0.7-0.4-1.2-1.1-1.1
							c-2.1,0.3-5.3,2.4-3.3,4.7c0.2,0.2,0.6,0.3,0.9,0.2c1.6-0.3,2.9-1.7,3.5-3.2c0.1-0.3,0-0.7-0.2-0.9c-2.7-2.4-6.2,1.1-5.7,4.1
							c0.1,0.5,0.7,0.8,1.1,0.6c1.9-0.6,2.9-1.4,4-3c0.5-0.7-0.3-1.4-1-1.3c-2.3,0.4-3.6,1.3-4.6,3.4c-0.3,0.6,0.2,1.6,1,1.3
							c1.6-0.6,2.4-1.2,3.4-2.8c0.4-0.6-0.1-1.3-0.8-1.4c-2.3,0-3.7,0.5-5.4,2c-0.7,0.6,0,1.7,0.9,1.5c2.1-0.5,3.6-1.4,5.1-2.9
							c0.5-0.5,0.2-1.6-0.6-1.5c-2.3,0.1-4.3,0.6-6.4,1.6c-0.7,0.3-0.5,1.5,0.2,1.6c2,0.3,3.4,0.3,5.3-0.3c1-0.3,0.8-1.7-0.2-1.8
							c-2.5-0.1-4.6,0.2-7,1c-0.7,0.3-1,1.6,0,1.7c1.9,0.3,3.8,0.5,5.7,0.8c0.1-0.6,0.2-1.2,0.2-1.8c-2.7,0-5.4-0.2-8.1-0.8
							c-0.9-0.2-1.7,1.2-0.7,1.6c0.7,0.3,1.4,0.7,2.1,1c1.1,0.5,1.8-0.9,0.9-1.6c-1.7-1.3-3.2-1.8-5.4-1.8c-1,0-1.1,1.2-0.5,1.7
							c1.3,1,2.3,1.4,3.8,1.8c1.2,0.3,1.5-1.3,0.5-1.7c-1.1-0.5-2.1-0.9-3.3-1.2c-1-0.3-1.6,1.2-0.7,1.6c1.6,0.7,2.8,1,4.6,0.8
							c0.7-0.1,1.3-1,0.6-1.5c-1.3-1.1-1.2-1-2.8-1.7c-0.2,0.6-0.3,1.2-0.5,1.7c2.1,0.5,3.2,0.3,5.2-0.5c0.8-0.4,0.4-1.7-0.5-1.7
							c-1.5,0-2.5,0.3-3.8,1c-0.7,0.4-0.5,1.4,0.2,1.6c2.6,0.8,4.7,0.6,7-0.7c0.7-0.4,0.5-1.4-0.2-1.6c-3.2-1.1-6.1-1-9.2,0.3
							c-0.7,0.3-0.9,1.2-0.2,1.6c1.2,0.8,5.3,2.1,5.6-0.6c0.3-3.3-6.8-2.7-8.4-2.4c-0.8,0.1-0.8,1.3-0.2,1.6c1.7,0.9,4,1.1,4.7-1.1
							c0.1-0.4-0.1-0.8-0.4-1c-1.2-0.8-2.8-0.7-4.3-0.5c0,0.6,0,1.2,0,1.8c1.8-0.2,3.1-0.5,4.7-1.4c0.7-0.4,0.5-1.4-0.2-1.6
							c-1.8-0.5-2.8-0.4-4.4,0.5c-0.8,0.4-0.4,1.7,0.5,1.7c1.8,0,7.4-1.2,6.8-4.1c-0.5-2.4-3-0.8-3.9,0.5c-0.4,0.5,0.1,1.4,0.8,1.4
							c1.7-0.2,2.6-0.6,3.9-1.7c0.6-0.5,0.1-1.6-0.6-1.5C95,28.7,94.2,29,93.1,30c-0.5,0.4-0.3,1.4,0.4,1.5c3.1,0.4,5.7,0.3,8.7-0.6
							c1-0.3,0.7-1.7-0.2-1.8c-2-0.2-3.4-0.1-5.3,0.4c-0.6,0.2-0.8,0.8-0.5,1.3c0.1,0.1,0.1,0.2,0.2,0.3c0.2,0.4,0.6,0.5,1,0.4
							c0.1,0,0.2,0,0.3,0C98.5,31.7,98,30,96.9,30.1L96.9,30.1z"/>
					</g>
				</g>
				<g>
					<g>
						<path class="st0" d="M102.9,37.3c2.1-0.5,4.2-0.9,6.4-1.2c-0.3-0.4-0.6-0.8-0.9-1.1c-0.1,0.8-1.7,0.6-1.8,1.5
							c-0.2,1.4,1.3-0.8,1.8-0.4c-0.1-0.3-0.3-0.7-0.4-1c-0.3,0.8-0.9,1.4-1.8,1.6c0.2,0.5,0.5,1.1,0.7,1.6c1-0.6,2.1-1,3.2-1.4
							c-0.3-0.4-0.7-0.9-1-1.3c-0.5,1.1-1.3,1.5-2.4,1.4c0.2,0.6,0.3,1.1,0.5,1.7c1.1-0.6,2.2-1,3.5-1.3c-0.3-0.5-0.6-1-0.9-1.5
							c-0.6,0.7-1.4,1.2-2.4,1.4c0.2,0.5,0.5,1.1,0.7,1.6c0.9-0.7,1.8-1.2,2.9-1.7c-0.4-0.3-0.9-0.7-1.3-1c-0.1,0.3-0.1,0.5-0.2,0.8
							c-0.1,0.6,0.4,1.4,1.1,1.1c0.8-0.3,1.5-0.6,2.3-1.1c-0.4-0.5-0.7-0.9-1.1-1.4c-0.7,0.7-1.5,1.3-2.4,1.8c-1,0.6-0.1,2,0.9,1.6
							c1-0.5,1.9-0.7,2.9-0.9c-0.3-0.5-0.6-1-0.9-1.5c-0.5,0.3-1,0.5-1.4,0.8c0.2,0.6,0.3,1.2,0.5,1.7c1.3-0.4,2.5-0.7,3.9-0.8
							c1.1-0.1,1.2-1.9,0-1.8c-1.5,0.2-2.9,0.5-4.4,0.9c-1.1,0.3-0.6,2.1,0.5,1.7c0.9-0.3,1.5-0.6,2.2-1.2c0.7-0.6-0.1-1.7-0.9-1.5
							c-1.2,0.2-2.3,0.6-3.4,1.1c0.3,0.5,0.6,1,0.9,1.6c1-0.6,1.9-1.2,2.7-2.1c0.7-0.7-0.2-1.9-1.1-1.4c-0.6,0.4-1.2,0.7-1.9,0.9
							c0.4,0.4,0.7,0.7,1.1,1.1c0.1-0.3,0.1-0.5,0.2-0.8c0.2-0.8-0.6-1.3-1.3-1c-1.1,0.5-2,1-2.9,1.7c-0.8,0.6-0.4,1.9,0.7,1.6
							c1.3-0.3,2.3-0.9,3.2-1.9c0.6-0.7,0-1.7-0.9-1.5c-1.4,0.3-2.6,0.8-3.9,1.5c-0.8,0.4-0.4,1.7,0.5,1.7c1.8,0,3.1-0.8,4-2.3
							c0.4-0.7-0.2-1.6-1-1.3c-1.3,0.4-2.5,0.9-3.6,1.6c-0.9,0.5-0.3,2,0.7,1.6c1.3-0.5,2.7-1.4,3-2.9c0.1-0.4-0.1-0.8-0.4-1
							c-1.4-1.1-6.4,1.4-5.1,3.5c0.2,0.3,0.5,0.5,0.8,0.4c1.6-0.1,4.9-1.2,5.2-3c0.1-0.5-0.2-1.2-0.9-1.1c-2.3,0.3-4.6,0.7-6.9,1.2
							C101.3,35.9,101.8,37.6,102.9,37.3L102.9,37.3z"/>
					</g>
				</g>
				<g>
					<g>
						<path class="st0" d="M98.8,37.9c-0.3,0-0.5,0-0.8,0.1c-1.1-0.2-1.6,1.5-0.5,1.7c0.5,0.1,0.9,0.2,1.4,0.3
							c0.1-0.6,0.2-1.2,0.2-1.8c-0.7,0-1.3-0.2-1.9-0.5c-0.2,0.6-0.3,1.2-0.5,1.7c1.2,0.4,2.4,0.7,3.6,1.1c0-0.6,0-1.2,0-1.7
							c-0.8-0.1-1.6-0.2-2.4-0.3c-1-0.5-1.7,0.6-1.1,1.4c0.5,0.7,0.5,0.6,1.3,1.1c0.2-0.5,0.5-1.1,0.7-1.6c-0.6-0.1-1.2-0.3-1.8-0.4
							c-0.8-0.2-1.6,0.9-0.9,1.5c0.6,0.5,0.7,0.6,1.5,1c0.2-0.6,0.3-1.1,0.5-1.7c-0.2,0-0.4,0-0.6,0c-0.9,0.1-1.3,1.6-0.2,1.8
							c0.9,0.1,1.7,0.2,2.6,0.4c0.1-0.6,0.2-1.2,0.2-1.8c-0.4,0-0.7,0-1.1-0.1c-1-0.1-1.2,1.6-0.2,1.8c1.5,0.3,3.2,0.6,4.8,0.3
							c1.6-0.4,2.7-1.6,4.4-1.8c-0.2-0.6-0.3-1.2-0.5-1.7c-0.8,0.2-1.5,0.4-2.3,0.6c0.2,0.5,0.5,1.1,0.7,1.6c1.4-1,2.9-1.9,4.5-2.7
							c-0.4-0.4-0.8-0.8-1.2-1.2c-0.3,0.3-0.7,0.5-1,0.8c0.3,0.5,0.6,1,0.9,1.6c0.4-0.2,0.8-0.4,1.3-0.5c-0.3-0.4-0.7-0.9-1-1.3
							c-0.2,0.2-0.4,0.5-0.6,0.7c0.4,0.5,0.7,0.9,1.1,1.4c0.1,0,0.2-0.1,0.3-0.1c-0.3-0.5-0.6-1-0.9-1.5c-1.5,1.2-3.2,1.9-5.1,2.2
							c0.2,0.5,0.5,1.1,0.7,1.6c1.5-0.8,3-1.5,4.5-2.2c1-0.4,0.3-1.8-0.7-1.6c-2.6,0.6-5.2,1.1-7.9,0.6c0,0.6,0,1.2,0,1.7
							c1.4-0.3,2.4-0.3,3.8,0c0-0.6,0-1.2,0-1.7c-1.5,0.3-2.8,0.4-4.3,0.2c-1.1-0.1-1.1,1.5-0.2,1.8c1,0.3,2,0.7,3,1
							c0.1-0.6,0.2-1.2,0.2-1.8c-0.6,0-1.2,0.1-1.8,0.1c-1,0-1.2,1.5-0.2,1.8c0.3,0.1,0.7,0.2,1,0.3c1.1,0.3,1.5-1.3,0.5-1.7
							c-0.6-0.3-1.2-0.5-1.8-0.6c-0.1,0.6-0.2,1.2-0.2,1.8c1.5,0,3,0,4.5-0.1c1,0,1.2-1.5,0.2-1.8c-0.5-0.1-0.9-0.3-1.4-0.4
							c-0.1,0.6-0.2,1.2-0.2,1.8c0.9,0.1,1.6,0.1,2.5-0.1c0.7-0.1,0.8-1.1,0.4-1.5c-0.6-0.6-0.6-0.6-1.3-1.1
							c-0.2,0.6-0.3,1.1-0.5,1.7c0.6-0.1,1.1-0.1,1.7-0.2c0.8-0.1,1.3-1.2,0.5-1.7c-0.7-0.4-1.3-0.7-2-1c-0.2,0.6-0.3,1.2-0.5,1.7
							c1,0.2,1.7,0.2,2.7,0c0.9-0.1,0.8-1.5,0-1.7c-0.8-0.3-1.5-0.5-2.3-0.5c-0.3,0-0.6,0.2-0.8,0.4c0,0.1-0.1,0.2-0.1,0.2
							c-0.1,0.3-0.2,0.6,0,0.9c0,0.1,0.1,0.1,0.1,0.2c0.4-0.4,0.8-0.8,1.2-1.2c-0.8-0.4-1-0.5-1.8-0.7c-1.1-0.3-1.6,1.4-0.5,1.7
							c0.5,0.2,0.9,0.3,1.4,0.5c0.7,0.4,1.8-0.4,1.2-1.2c-0.1,0.9,0.2,1.4,1,1.4c0-0.6,0-1.2,0-1.7c-0.6,0-1.2,0-1.8,0
							c-1.1-0.2-1.6,1.3-0.5,1.7c0.6,0.2,1.1,0.5,1.6,0.8c0.2-0.6,0.3-1.1,0.5-1.7c-0.6,0.1-1.1,0.1-1.7,0.2
							c-0.9,0.1-1.3,1.2-0.5,1.7c0.3,0.3,0.6,0.5,0.9,0.8c0.1-0.5,0.3-1,0.4-1.5c-0.7,0.1-1.4,0.1-2,0c-1-0.1-1.2,1.5-0.2,1.8
							c0.5,0.1,0.9,0.3,1.4,0.4c0.1-0.6,0.2-1.2,0.2-1.8c-1.5,0-3,0-4.5,0.1c-1,0-1.2,1.5-0.2,1.8c0.6,0.2,1.2,0.4,1.8,0.6
							c0.2-0.6,0.3-1.2,0.5-1.7c-0.3-0.1-0.7-0.2-1-0.3c-0.1,0.6-0.2,1.2-0.2,1.8c0.6,0,1.2-0.1,1.8-0.1c1,0,1.2-1.4,0.2-1.8
							c-1-0.3-2-0.7-3-1c-0.1,0.6-0.2,1.2-0.2,1.8c1.6,0.2,3.2,0.1,4.8-0.2c0.9-0.2,0.9-1.6,0-1.7c-1.7-0.3-3.1-0.3-4.8,0
							c-0.8,0.2-0.9,1.6,0,1.7c3,0.5,5.9,0,8.9-0.6c-0.2-0.5-0.5-1.1-0.7-1.6c-1.5,0.7-3,1.4-4.5,2.2c-0.9,0.5-0.3,1.8,0.7,1.6
							c2.2-0.4,4.1-1.3,5.9-2.7c0.8-0.6-0.1-1.6-0.9-1.5c-0.5,0.1-0.7,0.2-1.1,0.5c-0.8,0.6,0.3,2,1.1,1.4c0.7-0.5,0.8-0.6,1.3-1.4
							c0.4-0.7-0.3-1.6-1-1.3c-0.8,0.3-1,0.3-1.7,0.7c-1,0.6-0.1,2.1,0.9,1.6c0.7-0.4,1.2-0.8,1.6-1.4c0.6-0.8-0.5-1.6-1.2-1.2
							c-1.6,0.8-3,1.7-4.5,2.7c-0.8,0.6-0.3,1.9,0.7,1.6c0.8-0.2,1.5-0.4,2.3-0.6c1.2-0.3,0.6-1.9-0.5-1.7s-1.8,0.6-2.7,1.1
							c-1.9,0.9-3.4,0.9-5.5,0.5c-0.1,0.6-0.2,1.2-0.2,1.8c0.4,0,0.7,0,1.1,0.1c1,0.1,1.3-1.6,0.2-1.8c-0.9-0.1-1.7-0.2-2.6-0.4
							c-0.1,0.6-0.2,1.2-0.2,1.8c0.2,0,0.4,0,0.6,0c0.8,0,1.3-1.2,0.5-1.7c-0.4-0.2-0.7-0.4-1.1-0.7c-0.3,0.5-0.6,1-0.9,1.5
							c0.6,0.1,1.2,0.3,1.8,0.4c1,0.2,1.6-1.1,0.7-1.6c-0.3-0.3-0.6-0.5-0.9-0.8c-0.4,0.5-0.7,0.9-1.1,1.4c1.3,0.7,2.4,0.8,3.8,0.4
							c0.9-0.2,0.8-1.5,0-1.7c-1.2-0.4-2.4-0.7-3.6-1.1c-1.1-0.3-1.5,1.3-0.5,1.7c0.8,0.3,1.5,0.5,2.4,0.5c1,0.1,1.2-1.5,0.2-1.8
							c-0.5-0.1-0.9-0.2-1.4-0.3c-0.2,0.6-0.3,1.2-0.5,1.7c0.8,0.1,1,0.2,1.8-0.1C100.3,39.4,99.9,37.6,98.8,37.9L98.8,37.9z"/>
					</g>
				</g>
				<g>
					<g>
						<path class="st0" d="M96.9,30.6c0.7-0.2,0.9-0.4,1.5,0.1c0.4,0.4,0.5,0.7,0.7,1.2c0.3,0.8,0.7,1.5,1.1,2.2
							c0.6,0.9,2.1,3.3,3.5,3.2c0.3,0.3,0.6,0.6,0.9,0.9v0.1c-0.3,0.1-0.7,0.3-1,0.4c0.2,0.2,0.5,0.4,0.7,0.5
							c0.1-0.4,0.2-0.8,0.3-1.2c-0.1-0.1-0.2-0.1-0.3-0.2c0,0.4-0.1,0.7-0.1,1.1c-0.1,0-0.1,0.1-0.2,0.1c-0.3-0.1-0.5-0.3-0.8-0.4
							c0-0.1,0-0.1,0-0.2c0.4-0.2,0.9-0.4,1.3-0.5c-1.2-0.6-2.1-1.5-2.6-2.8c-0.4-1.1-2.2-0.6-1.7,0.5c0.7,1.7,1.8,3.1,3.5,3.9
							c0.5,0.3,1.2,0.1,1.3-0.5c0.3-1.4-1-2.1-2.1-1.2c-0.3,0.3-0.3,0.8-0.1,1.1c0.6,1.1,1.7,1.3,2.8,0.8c0.4-0.2,0.6-0.9,0.3-1.2
							c-0.5-0.7-1-1-1.8-1.4c-0.4-0.2-0.8,0.1-1,0.4c-0.2,0.3-0.2,0.5-0.3,0.8c0,0.5,0.4,0.9,0.9,0.9c1,0,1.7-0.7,1.6-1.8
							c-0.2-1.7-2.2-2.3-3-3.4c-0.6-0.9-1.2-1.8-1.5-2.8c-0.2-0.6-0.4-1.3-0.8-1.9c-0.9-1-2.3-0.8-3.5-0.4
							C95.3,29.2,95.8,31,96.9,30.6L96.9,30.6z"/>
					</g>
				</g>
				<g>
					<g>
						<path class="st0" d="M102.3,30.8c-1-0.2-2-0.7-2.8-1.4c-0.2,0.5-0.4,1-0.6,1.5c2.1,0.1,3.9,0.4,5.9,1.1c0-0.6,0-1.2,0-1.7
							c-2.1,0.4-3.5-0.1-5.1-1.2c-0.1,0.5-0.1,1.1-0.2,1.6c2.4-0.4,4.5-0.3,6.9,0.3c0-0.6,0-1.2,0-1.7c-2,0.4-3.6,0.1-5.4-1
							c-0.1,0.5-0.1,1.1-0.2,1.6c2.5-0.4,4.7,0,7,1.1c0.1-0.5,0.1-1.1,0.2-1.6c-1.6,0.3-3,0-4.3-1c-0.1,0.5-0.1,1.1-0.2,1.6
							c2-0.5,3.7-0.3,5.6,0.4c0.2-0.6,0.3-1.2,0.5-1.7c-1.4-0.3-2.5-0.6-3.8-1.2c-0.2,0.5-0.5,1.1-0.7,1.6c1.5,0.2,3,0.5,4.4,0.9
							c0.1-0.6,0.2-1.2,0.2-1.8c-0.4,0-0.8-0.1-1.1-0.1c-0.9-0.1-1.2,1.3-0.5,1.7c1,0.5,2.1,1.1,3.1,1.6c0.2-0.5,0.5-1.1,0.7-1.6
							c-1.3-0.3-2.5-0.6-3.8-0.9c-0.9-0.2-1.6,1.2-0.7,1.6c1,0.5,2.1,1,3.1,1.5c0.2-0.6,0.3-1.1,0.5-1.7c-1.8,0.2-3.4,0.1-5.1-0.5
							c0.1,0.5,0.1,1.1,0.2,1.6c1.6-0.9,3.3-0.9,4.9,0c0.2-0.6,0.3-1.1,0.5-1.7c-0.9-0.3-1.8-0.6-2.7-0.9c-0.2,0.6-0.3,1.1-0.5,1.7
							c1.1,0.3,2.2,0.5,3.2,0.8c0.3-0.5,0.6-1,0.9-1.6c-0.6-0.3-1.2-0.5-1.8-0.8c-0.2,0.5-0.5,1.1-0.7,1.6c0.7,0.1,1.4,0.2,2,0.4
							c1,0.2,1.6-1.1,0.7-1.6c-1.5-1-2.9-1.4-4.7-1.6c-1.1-0.1-1.1,1.4-0.2,1.8c0.6,0.2,1.2,0.4,1.8,0.7c0.2-0.6,0.3-1.2,0.5-1.7
							c-2.7-0.4-5.3-0.4-8.1-0.3c0.1,0.6,0.2,1.2,0.2,1.8c2.2-0.5,4.2-0.6,6.4-0.5c-0.1-0.6-0.2-1.2-0.2-1.8
							c-2.5,0.7-4.8-0.1-7.3-0.1c-2.3,0-4.5,0.9-6.8,1.1c0.2,0.6,0.3,1.1,0.5,1.7c1.1-0.7,2.2-1,3.4-1.1c-0.2-0.6-0.3-1.2-0.5-1.7
							c-1.4,0.5-2.8,0.8-4.3,0.8c0.2,0.6,0.3,1.1,0.5,1.7c1.3-0.6,2.6-0.9,4-0.8c-0.1-0.6-0.2-1.2-0.2-1.8c-0.3,0.1-0.5,0.1-0.8,0.2
							c0.2,0.6,0.3,1.2,0.5,1.7c1.6-0.5,4.6,0.7,6.3,0.8c1.1,0.1,1.1-1.4,0.2-1.8c-2.1-0.8-4-1.2-6.3-1.2c0.2,0.6,0.3,1.1,0.5,1.7
							c2.2-1,4.2-0.3,6.2,0.5c1.1,0.4,1.5-1.3,0.5-1.7c-0.4-0.2-0.9-0.3-1.3-0.5c-0.1,0.6-0.2,1.2-0.2,1.8c1.3,0.1,2.6,0.3,3.8,0.4
							c1,0.1,1.2-1.6,0.2-1.8c-1.1-0.2-2-0.4-3-0.7c-0.2,0.6-0.3,1.2-0.5,1.7c0.4,0.1,0.9,0.3,1.3,0.4c1.1,0.3,1.6-1.4,0.5-1.7
							c-0.4-0.1-0.9-0.3-1.3-0.4c-1.1-0.3-1.6,1.4-0.5,1.7c1,0.3,2,0.6,3,0.7c0.1-0.6,0.2-1.2,0.2-1.8c-1.3-0.1-2.6-0.3-3.8-0.4
							c-1.1-0.1-1.1,1.4-0.2,1.8c0.4,0.2,0.9,0.3,1.3,0.5c0.2-0.6,0.3-1.2,0.5-1.7c-2.7-1-5-1.5-7.6-0.3c-0.9,0.4-0.4,1.7,0.5,1.7
							c2.1,0.1,3.9,0.4,5.8,1.2c0.1-0.6,0.2-1.2,0.2-1.8c-2.2-0.1-4.6-1.4-6.8-0.7c-1.1,0.3-0.7,2,0.5,1.7c0.3-0.1,0.5-0.1,0.8-0.2
							c1-0.2,0.8-1.8-0.2-1.8c-1.8,0-3.2,0.3-4.9,1c-0.8,0.4-0.4,1.7,0.5,1.7c1.7,0,3.2-0.3,4.8-0.9c1.1-0.4,0.7-1.9-0.5-1.7
							c-1.5,0.2-2.6,0.6-3.9,1.3c-0.8,0.4-0.4,1.7,0.5,1.7c2.7-0.2,5.2-1.2,7.9-1c2.4,0.1,4.3,0.6,6.6,0c1-0.3,0.7-1.7-0.2-1.8
							c-2.4-0.2-4.5,0-6.9,0.5c-1,0.2-0.8,1.8,0.2,1.8c2.6-0.1,5-0.1,7.6,0.3c1.1,0.2,1.6-1.3,0.5-1.7c-0.6-0.2-1.2-0.4-1.8-0.7
							c-0.1,0.6-0.2,1.2-0.2,1.8c1.5,0,2.7,0.4,3.8,1.3c0.2-0.5,0.5-1.1,0.7-1.6c-0.7-0.1-1.4-0.2-2-0.4c-0.9-0.2-1.7,1.2-0.7,1.6
							c0.6,0.3,1.2,0.5,1.8,0.8c1,0.5,2-1.1,0.9-1.6c-1.4-0.7-2.6-0.9-4.1-1c-0.9,0-1.2,1.2-0.5,1.7c1.2,0.7,2.2,1,3.6,1.2
							c0.9,0.1,1.3-1.3,0.5-1.7c-2.3-1.1-4.4-1.1-6.8,0c-0.7,0.4-0.5,1.4,0.2,1.6c1.9,0.6,3.5,0.8,5.5,0.5c0.8-0.1,1.4-1.3,0.5-1.7
							c-1-0.5-2.1-1-3.1-1.5c-0.2,0.5-0.5,1.1-0.7,1.6c1.3,0.3,2.5,0.6,3.8,0.9c1,0.2,1.6-1.2,0.7-1.6c-1-0.5-2.1-1.1-3.1-1.6
							c-0.2,0.6-0.3,1.1-0.5,1.7c0.4,0,0.8,0.1,1.1,0.1c1,0.1,1.2-1.5,0.2-1.8c-1.5-0.3-2.9-0.6-4.4-0.9c-0.9-0.2-1.7,1.2-0.7,1.6
							c1.4,0.7,2.7,1.1,4.2,1.4c1.1,0.2,1.6-1.3,0.5-1.7c-2.3-0.8-4.2-0.9-6.6-0.4c-0.8,0.2-0.8,1.2-0.2,1.6
							c1.8,1.2,3.5,1.5,5.7,1.1c0.7-0.1,0.9-1.3,0.2-1.6c-2.7-1.3-5.4-1.7-8.4-1.3c-0.8,0.1-0.8,1.3-0.2,1.6
							c2.2,1.3,4.3,1.7,6.7,1.2c0.9-0.2,0.8-1.5,0-1.7c-2.7-0.7-5.2-0.8-7.9-0.3c-0.8,0.2-0.8,1.2-0.2,1.6c2,1.5,4.1,1.9,6.5,1.4
							c0.9-0.2,0.8-1.5,0-1.7c-2.1-0.7-4.1-1.1-6.4-1.1c-0.8,0-1.2,1-0.6,1.5c1.1,1.1,2.1,1.5,3.6,1.9
							C102.9,32.9,103.4,31.2,102.3,30.8L102.3,30.8z"/>
					</g>
				</g>
				<g>
					<g>
						<path class="st0" d="M104.2,30.3c-2-1-2.4-1.1-1.1-0.4c0.3-0.6,0.8-0.6,1.2,0c0.2-0.6,0.3-1.1,0.5-1.7c0,0.2,0,0.3,0,0.5
							c0.5,0,1.1,0,1.6,0.1c0.8,0.1,1.6,0.3,2.4,0.6c0.2-0.6,0.3-1.2,0.5-1.7c-1.8-0.6-3.6-1.2-5.5-1.8c-0.2,0.6-0.3,1.2-0.5,1.7
							c2.7,0.4,7.5,0.8,9.3,3.1c0.7,0.9,2-0.4,1.3-1.3c-2.1-2.6-7-3.1-10.1-3.6c-1.1-0.2-1.6,1.4-0.5,1.7c1.8,0.6,3.6,1.2,5.5,1.8
							c1.1,0.4,1.6-1.3,0.5-1.7c-1.5-0.6-5.5-1.8-6.8,0c-1.1,1.6,1.2,2.3,2.3,2.3c0.9,0,1.2-1.2,0.5-1.7c-0.9-0.5-2-1-2.9-0.3
							c-0.8,0.6-0.9,1.5-0.3,2.3c0.8,1.1,3.3,1.7,3.5-0.1c0.2-1.9-3.5-3-4.7-1.8c-1.7,1.8,2.1,3.7,3.5,3.7
							C105.3,32.1,105.3,30.3,104.2,30.3L104.2,30.3z"/>
					</g>
				</g>
				<g>
					<g>
						<path class="st0" d="M111.4,36.9c1.8-0.3,3.6,0,5.1,0.9c1,0.6,1.9-1,0.9-1.6c-2-1.2-4.3-1.5-6.5-1.1
							C109.8,35.4,110.3,37.1,111.4,36.9L111.4,36.9z"/>
					</g>
				</g>
				<g>
					<g>
						<path class="st0" d="M122.1,38.8c-0.5-0.2-1-0.6-1.3-1.1c-0.6-1-2.2-0.1-1.6,0.9c0.6,0.9,1.4,1.5,2.4,1.9
							c0.5,0.2,1-0.2,1.1-0.6C122.8,39.4,122.5,39,122.1,38.8L122.1,38.8z"/>
					</g>
				</g>
			</g>
			<g>
				<g>
					<path class="st0" d="M73.2,54.4c0.4-0.4,0.6-0.8,0.6-1.4c-0.1-1.1-1.8-1.2-1.8,0c0.1,0.4,0,0.8-0.3,1.1
						c0.5,0.1,1.1,0.1,1.6,0.2c-0.1-0.5-0.1-1,0-1.5c-0.6,0-1.2,0-1.8,0c0,0.7-0.1,1.4-0.3,2.2c0.6,0.2,1.2,0.3,1.7,0.5
						c0-0.2,0.1-0.4,0.1-0.6c-0.6-0.1-1.2-0.2-1.8-0.2c0,0.5,0,0.9,0,1.4c0.6,0,1.2,0,1.8,0c0-0.2,0-0.4,0-0.6c-0.6,0-1.2,0-1.8,0
						c0,0.3,0,0.5,0,0.8c0,1,1.5,1.3,1.8,0.2c0.5-1.9,0.9-3.9,1.2-5.9c-0.6-0.1-1.2-0.2-1.8-0.2c0,1.2-0.1,2.3-0.6,3.4
						c0.5,0.1,1.1,0.1,1.6,0.2c-0.1-0.9,0.1-1.7,0.6-2.5c-0.6-0.2-1.1-0.3-1.7-0.5c0,1.9-0.3,3.8-0.9,5.6c0.6,0,1.2,0,1.7,0
						c-0.2-0.3-0.2-0.6,0-0.9c0.4-1.1-1.4-1.6-1.7-0.5c-0.2,0.6-0.2,1.2,0,1.8c0.3,0.8,1.5,0.9,1.7,0c0.6-2,0.9-4,0.9-6.1
						c0-0.9-1.2-1.2-1.7-0.5c-0.8,1.2-1,2.5-0.8,3.9c0.1,0.7,1.4,0.9,1.6,0.2c0.6-1.4,0.9-2.8,0.8-4.3c0-1-1.6-1.3-1.8-0.2
						c-0.4,2-0.8,3.9-1.2,5.9c0.6,0.1,1.2,0.2,1.8,0.2c0-0.3,0-0.5,0-0.8c0-1.2-1.8-1.2-1.8,0c0,0.2,0,0.4,0,0.6
						c0,1.2,1.8,1.2,1.8,0C73.1,55.4,73.1,54.9,73.2,54.4c-0.1-0.9-1.7-1.2-1.9-0.2c0,0.2-0.1,0.4-0.1,0.6c-0.2,1.1,1.5,1.6,1.7,0.5
						c0.2-0.9,0.3-1.7,0.3-2.6c0-1.2-1.7-1.1-1.8,0c0,0.7,0,1.3,0.1,2c0.1,0.8,1.3,0.8,1.6,0.2c0.4-0.6,0.5-1.2,0.5-2
						c-0.6,0-1.2,0-1.8,0V53C71,53.9,72.3,55.1,73.2,54.4L73.2,54.4z"/>
				</g>
			</g>
		</g>
		<g>
			<g>
				<path class="st0" d="M125.3,48.6c0.4,0.7,0.7,1.5,1.1,2.2c0.3-0.4,0.7-0.9,1-1.3c0.1,0.1,0.2,0.2,0.3,0.2
					c-0.3,0.5-0.5,0.9-0.8,1.4c0.1,0,0.1,0,0.2,0c-0.3-0.1-0.5-0.3-0.8-0.4c0.3,0.4,0.4,1.1,0.5,1.5c0.3,1,1.7,0.7,1.8-0.2
					c0.2-1.7,0-3.3-0.5-5c-0.3-0.9-1.8-0.8-1.8,0.2c0.1,1.6,0.3,3.1,0.6,4.7c0.5-0.2,1.1-0.5,1.6-0.7c-0.7-1.7-0.5-3.6-1.2-5.3
					c-0.5-1.4-1.3-2.6-2.3-3.8c-0.7-0.9-2,0.4-1.3,1.3c1.1,1.4,2,3,2.3,4.8c0.3,1.4,0.3,2.7,0.9,4c0.4,1,1.8,0.2,1.6-0.7
					c-0.3-1.4-0.4-2.8-0.5-4.2c-0.6,0.1-1.2,0.2-1.8,0.2c0.5,1.5,0.6,3,0.5,4.5c0.6-0.1,1.2-0.2,1.8-0.2c-0.2-0.6-0.3-1.4-0.7-1.9
					c-0.2-0.2-0.4-0.5-0.8-0.4c-0.1,0-0.1,0-0.2,0c-0.7,0.1-1.1,0.7-0.8,1.4c0.2,0.4,0.4,0.5,0.8,0.6c0.8,0.2,1.4-0.6,1-1.3
					c-0.4-0.7-0.7-1.5-1.1-2.2C126.3,46.7,124.7,47.6,125.3,48.6L125.3,48.6z"/>
			</g>
		</g>
	</g>
	<g>
		<g>
			<g>
				<path d="M72.3,57.2c-0.1-7,2.7-16,7.4-21.2c5.3-5.9,13.1-8.4,20.9-8.7c8.3-0.3,14.4,1.9,19.7,8.2c2.5,2.9,5.6,6.2,6.5,10
					c0.9,3.9,0.7,8.3,1,12.3c0.1,0.8,1.3,0.8,1.2,0c-0.3-4.3,0-9.2-1.2-13.3c-1-3.5-3.8-6.4-6-9.2c-5.9-7-11.9-9.6-21.1-9.3
					c-17.2,0.6-29.8,13.6-29.5,31.1C71.1,57.9,72.3,57.9,72.3,57.2L72.3,57.2z"/>
			</g>
		</g>
		<g>
			<g>
				<path d="M72.7,58c3-5.3,6.2-11.9,10.6-16.1c4.6-4.4,11.4,0.3,16.9,0.6c2.3,0.1,4.6,0.1,6.8-0.7c2.8-1.1,3.3-2.2,6.5-2.1
					c7,0.3,12.3,9.8,14.5,15.7c0.3,0.7,1.4,0.4,1.2-0.3c-2.2-5.9-5.8-11.6-11-15.3c-6.5-4.6-9.9,1.7-17,1.6c-2.8,0-5.3-0.5-7.8-1.6
					c-1.3-0.5-2.4-1.3-3.7-1.6c-1.8-0.3-3.3,0.1-4.9,1.1c-2.3,1.5-4,4.2-5.5,6.4c-2.7,3.8-5.1,7.8-7.4,11.8
					C71.3,58.1,72.3,58.7,72.7,58L72.7,58z"/>
			</g>
		</g>
	</g>
	<g>
		<g>
			<path class="st1" d="M93.2,36c2.7,1.9,5.7,2.9,9,3c0.8,0,0.8-1.2,0-1.2c-3.1-0.1-5.9-1.1-8.4-2.9C93.2,34.5,92.6,35.6,93.2,36
				L93.2,36z"/>
		</g>
	</g>
	<g>
		<g>
			<path class="st1" d="M74.6,52c2.4-6.4,4.7-13.2,10.8-16.9c0.7-0.4,0.1-1.4-0.6-1c-3.1,1.9-5,3.7-6.7,7c-1.7,3.4-3.2,7-4.6,10.6
				C73.2,52.4,74.3,52.7,74.6,52L74.6,52z"/>
		</g>
	</g>
	<g>
		<g>
			<path class="st1" d="M111.8,31.4c2.7,1.9,5.4,3.8,7.6,6.2c2.1,2.2,3.3,5.1,5.6,7c0.6,0.5,1.4-0.3,0.8-0.8
				c-2.5-2.1-3.9-5.3-6.2-7.7c-2.2-2.2-4.7-4-7.3-5.8C111.7,30,111.1,31,111.8,31.4L111.8,31.4z"/>
		</g>
	</g>
	<g>
		<g>
			<path class="st1" d="M97.7,31.8c2.5,1.4,5.1,2.3,7.9,2.9c0.8,0.1,1.1-1,0.3-1.2c-2.7-0.5-5.2-1.4-7.6-2.7
				C97.7,30.4,97.1,31.4,97.7,31.8L97.7,31.8z"/>
		</g>
	</g>
</g>
</svg>
