<svg id="Layer_1" data-name="Layer 1" xmlns="http://www.w3.org/2000/svg" viewBox="0 0 57.1 57.6"><defs><style>.cls-1{fill:#feee40; position:absolute; animation: spin 20s infinite; transform-origin:50% 50%;}@keyframes spin{from {transform:rotate(0deg);}to {transform:rotate(360deg);}}</style></defs><title>Sun</title><circle class="cls-1" cx="28.5" cy="29" r="17.1"/><polygon class="cls-1" points="23.8 12.5 28.6 0 33.4 12.5 23.8 12.5"/><polygon class="cls-1" points="23.8 45.1 28.6 57.6 33.4 45.1 23.8 45.1"/><polygon class="cls-1" points="44.6 33.6 57.1 28.9 44.6 24.1 44.6 33.6"/><polygon class="cls-1" points="12.6 33.6 0 28.9 12.6 24.1 12.6 33.6"/><polygon class="cls-1" points="14.3 22.2 7.2 10.8 20.1 14.5 14.3 22.2"/><polygon class="cls-1" points="42.7 21.6 49.8 10.3 36.9 14 42.7 21.6"/><polygon class="cls-1" points="43.4 35.8 50.6 47.1 37.7 43.4 43.4 35.8"/><polygon class="cls-1" points="13.3 35.6 6.1 46.9 19 43.2 13.3 35.6"/></svg>