<?xml version="1.0" encoding="utf-8"?>
<!-- Generator: Adobe Illustrator 21.0.2, SVG Export Plug-In . SVG Version: 6.00 Build 0)  -->
<svg version="1.1" id="Layer_1" xmlns="http://www.w3.org/2000/svg" xmlns:xlink="http://www.w3.org/1999/xlink" x="0px" y="0px"
	 viewBox="0 0 200 600" style="enable-background:new 0 0 200 600;" xml:space="preserve">
<style type="text/css">
	.st0{fill:#602F13;}
	.st1{fill:#613515;}
</style>
<g>
	<path class="st0" d="M70.9,87.3c0.7,0.8,1.4,1.6,2.2,2.4l0.6-1l-1.6-1c-0.5-0.4-1.4,0.2-0.9,0.7l0.7,0.9l0.9-0.7l-1.3-1.2
		c-0.4-0.4-1.2,0-1,0.6c0.2,0.5,0.4,1,0.8,1.4l0.8-0.8l-0.7-0.8l-0.8,0.8c2.2,2.2,4.8,4,7.7,5.2c0.3,0.1,0.7,0,0.8-0.3
		c0.1-0.2,0.1-0.5-0.1-0.7l-1.4-1.8l-0.6,1c2.2,0.6,4.3,0.9,6.6,1.2c0.3,0,0.6-0.3,0.6-0.6c0-0.2-0.1-0.4-0.3-0.5
		c-1.1-0.5-2.3-1-3.4-1.5c-0.6-0.3-1,0.8-0.5,1.1c0.9,0.5,2,0.9,3.1,1c0.3,0,0.6-0.3,0.6-0.6c0-0.1-0.1-0.3-0.2-0.4
		c-1.2-1-2.5-1.8-3.8-2.7l-0.6,1l3.6,1.5c0.3,0.1,0.7-0.1,0.8-0.4c0.1-0.2,0-0.4-0.2-0.6c-2.9-2.1-5.5-4.5-7.8-7.2
		c-0.5-0.6-1.3,0.3-0.8,0.8c2.7,3,5.7,5.6,9.1,7.7l0.5-1.1c-0.9-0.1-1.8-0.5-2.6-1l-0.6,1l3.6,2l0.3-1.1l-2.4-0.2
		c-0.7-0.2-1.1,1-0.3,1.2c0.9,0.3,1.8,0.4,2.7,0.5l0.2-1.2h-1.8c-0.7,0-0.7,0.9-0.2,1.2c0.5,0.3,1,0.4,1.6,0.5l0.2-1.2
		c-0.5-0.1-1,0-1.5,0.2c-0.6,0.2-0.5,1.3,0.2,1.2c1.1-0.2,2.3-0.2,3.4,0l0.2-1.2l-3.1,0.3V94c1.3-0.2,2.7-0.2,4-0.2v-1.3h-2.6
		c-0.3-0.1-0.7,0.2-0.7,0.5c-0.1,0.3,0.2,0.7,0.5,0.7c1.2,0.3,2.5,0.4,3.8,0.3c0.3,0,0.6-0.3,0.6-0.6c0-0.2-0.1-0.4-0.3-0.5
		c-1.9-1.1-3.8-2.1-5.9-2.9c-0.6-0.2-1.1,0.8-0.5,1.1c1.8,0.7,3.6,1.5,5.3,2.4c0.2,0.1,0.2,0.6,0.4,0.7c0.2,0.2,0.5,0.2,0.7,0.1
		l0.1-0.1c0.7-0.3,0.1-1.4-0.6-1c0.6-0.3,0.9,0.2,0.2-0.7c-0.8-1.1-4.4-2-5.6-2.5L83,91.2c1.9,0.7,3.8,1.6,5.6,2.7l0.3-1.1
		c-1.2,0.2-2.4,0.1-3.5-0.2l-0.1,1.2h2.6c0.3,0,0.6-0.3,0.5-0.7c0-0.3-0.2-0.5-0.5-0.5c-1.3,0-2.7,0-4,0.2c-0.8,0.1-0.8,1.3,0,1.2
		l3.1-0.3c0.6-0.1,0.9-1.1,0.2-1.2c-1.2-0.2-2.5-0.2-3.7,0l0.2,1.1l1.2-0.1c0.3,0,0.6-0.3,0.6-0.6c0-0.3-0.2-0.5-0.4-0.5
		c-0.6-0.1-1.1-0.2-1.6-0.5L83.2,93h1.8c0.7,0,0.8-1.1,0.2-1.2c-0.9-0.1-1.8-0.2-2.6-0.5l-0.3,1.2c0.9,0.2,1.8,0.3,2.7,0.3
		c0.3,0,0.6-0.3,0.6-0.6c0-0.2-0.1-0.4-0.3-0.5l-3.6-2c-0.3-0.1-0.7,0.1-0.8,0.4c-0.1,0.2,0,0.4,0.2,0.6c0.9,0.5,1.8,0.9,2.8,1.1
		c0.3,0,0.6-0.2,0.6-0.6c0-0.2-0.1-0.4-0.2-0.5c-3.3-2.1-6.3-4.7-8.9-7.6L74.7,84c2.4,2.8,5,5.3,8,7.4l0.6-1l-3.6-1.5
		c-0.3-0.1-0.7,0.1-0.8,0.4c-0.1,0.2,0,0.4,0.2,0.6c1.2,0.8,2.4,1.6,3.5,2.5l0.4-1l-2.5-0.8l-0.5,1.1c1.1,0.4,2.1,0.9,3.1,1.4
		l0.3-1.1c-2.1-0.2-4.2-0.6-6.2-1.1c-0.3-0.1-0.6,0.1-0.7,0.4c-0.1,0.2,0,0.4,0.2,0.6l1.4,1.8l0.7-0.9c-2.8-1.2-5.3-2.9-7.5-5
		c-0.6-0.6-1.3,0.3-0.8,0.8l0.7,0.8c0.5,0.6,1.3-0.3,0.8-0.8l-0.5-0.9l-1,0.6l1.3,1.2c0.5,0.4,1.4-0.2,0.9-0.7l-0.7-0.9l-0.9,0.7
		c0.6,0.6,1.3,1.1,2.2,1.3c0.6,0.2,1-0.6,0.6-1c-0.8-0.7-1.5-1.5-2.2-2.4C71.3,85.8,70.4,86.7,70.9,87.3L70.9,87.3z"/>
	<path class="st0" d="M86.1,36.7l-1.5,0.2l1.5,5.5l1.1-0.6l-2.3-5.4L80,38.5l4.1,4.1l0.5-1c1.1-2.5-1.3-5.8-4.1-4.1
		c-3.8,2.3-7.3,5.1-10.5,8.3l5,2.9c0.6-3.3,2.2-6.4,4.6-8.7l-4.7-3.6L74.4,37c-2.2,2.9,2.3,5.5,4.7,3.6c0.9-0.8,2-1.5,3.2-1.9
		L80,33.3c-0.5,0.4-1,0.8-1.7,1l3,5.1l1-0.7c1.8-1.3,2.1-5-0.7-5.4l-1.1-0.2l0.7,5.4c2.6-1.3,5.2-2.6,7.8-3.8
		c3.1-1.4,0.9-6.3-2.3-5.4c-0.8,0.2-1.6,0.5-2.3,1c-1.4,0.9-1.8,2.8-0.9,4.2c0.7,1,1.9,1.6,3.2,1.3c1.7-0.4,3.3-0.8,5-1.3
		c3.8-1.1,2.1-6.4-1.6-5.7L88.1,29l1.5,5.8c2.8-1.1,5.3-2,8.4-1.8l-2.9-3.8c-0.2,1-7.1,2.9-8.2,3.4c-2.7,1.1-5,2.8-7,4.9
		c-1.2,1.2-1.1,3.1,0,4.2c0.8,0.7,1.8,1,2.9,0.8c3.7-1.1,7.2-2.6,10.6-4.5l-3.6-4.7c-2.1,2.1-4.8,4.2-6.2,6.8
		c-0.6,1.2-0.4,2.6,0.5,3.6c2.3,2.7,6.3,1.2,8.7-0.5l-3.6-4.7c-0.9,0.6-1.7,1.4-2.3,2.3c-1.6,1.8-0.7,5.3,2.1,5.1
		c1.8,0,3.5-0.8,4.8-2.1c2.7-2.8-1.3-6.5-4.2-4.2l-2.1,1.7c-2.2,1.8-0.2,4.9,2.1,5.1c3.8,0.3,6.9-3.8,9.4-6.2l-4.7-3.6L93,38.1
		c-2.2,2.8,2.3,5.8,4.7,3.6l4.4-4l-4.2-4.2l-1.9,1.9l5,2.9c0.4-1.8,0.2-3.4-1.5-4.5c-1.9-1.2-3.2-0.2-5.1-0.2l2.1,5.1
		c0.5-0.7,1.2-1.3,2.1-1.5l-3.6-4.7c-0.8,0.9-1.8,1.5-3,1.7l2.9,5l1.1-1l-2.9-5c-3,2.4-6.1,4.6-9.3,6.7l4.1,4.1l1-0.8l-3.6-4.7
		c-1.7,1.4-3.5,2.5-5.5,3.5l4.1,4.1l0.8-0.6l-2.9-5c-1.3,1.4-2.8,2.6-4.4,3.6l3.6,4.7l1.2-1.1l-2.9-5c-1.4,1.5-2.9,2.8-4.5,4l4.1,4
		l0.9-0.8l-4.1-4.1c-2.1,2.8-4.8,3.3-5,7.1c-0.1,1.8,2,3.6,3.8,2.9c5.8-2.4,11.1-5.8,15.7-10l-4.7-3.6l-1.4,1.5l3.6,4.7
		c0.7-0.6,1.5-1,2.4-1.4l-3.6-4.7c-5.2,4.4-12.8,0.2-16.9,6.9l5.4,2.3l0.4-2.5c0.5-3.1-3.9-5.6-5.4-2.3c-1.7,3.4-2.5,7.1-2.4,10.9
		c0.1,3.1,3.8,3.8,5.6,1.5c0.9-1.2,1.6-2.5,2.1-3.9l-5.7-1.6L68.7,57c-0.6,3.2,3.6,5.3,5.4,2.3c0.6-1,1.1-2,1.5-3.1l-5.7-1.6
		c-0.3,1.2-0.6,2.3-0.7,3.5c-0.3,2.9,4.3,4.1,5.6,1.5c0.5-1.1,0.9-2.2,1.3-3.3c0.4-1.6-0.5-3.2-2.1-3.7c-1-0.3-2.1,0-2.9,0.8
		c-3,3-1.9,6.8-2.9,10.6c-1.1,4.1-2.3,7.4-1.7,11.7l1.4-3.4L67,72.9l4.1,1.1c-2.7-4.5,0.5-12.8,1.9-17.4l-5.8-0.8
		c-0.6,6.2-0.4,12.5,0.6,18.7c0.5,3.3,6.1,2.6,5.8-0.8l-0.5-6.1c0-1.7-1.3-3-3-3s-3,1.3-3,3c-0.3,4.3,0.1,8.6,1,12.8l5.9-1.6
		c-0.3-1.2-0.5-2.4-0.5-3.6L67.6,76l2.2,10.1l2.9-3.8c1.4-0.1-1.3-4.8-1.3-4.7l-5.4,2.3c2.4,3.8,4.5,8.3,8.6,10.5
		c2.9,1.6,6.1-2.2,3.6-4.7l-2.2-2.2l-4.2,4.2l4.4,4.3c2.8,2.7,7-1.6,4.2-4.2l-4.4-4.3c-2.8-2.7-6.9,1.5-4.2,4.2l2.2,2.2l3.6-4.7
		c-3-1.6-4.7-5.6-6.5-8.3s-6.8-1-5.4,2.3c1.2,2.9,2.9,9.5,7.1,9.1c1.7,0,3-1.4,3-3c0-0.3,0-0.5-0.1-0.7l-2.2-10.1
		c-0.7-3.3-6-2.6-5.8,0.8c0.1,1.7,0.3,3.5,0.7,5.2c0.8,3.7,6.6,2.2,5.7-1.6c-0.8-3.7-1.1-7.5-0.8-11.3h-6l0.5,6.1l5.9-0.8
		c-0.9-5.7-1-11.4-0.4-17.1c0.3-3.4-4.9-3.9-5.8-0.8c-1.9,6.5-5.1,15.7-1.3,22c0.8,1.4,2.6,1.9,4.1,1.1l0.9-0.4
		c1.1-0.7,1.7-2.1,1.4-3.4c-0.5-3.3,1.1-6.3,1.9-9.3c0.4-1.7,0-6.2,1.1-7.3l-5-2.9l-0.7,1.8l5.6,1.5l0.5-2c1.1-3.7-4.4-5.1-5.7-1.6
		L69,56.1l5.4,2.3l0.6-3.2c0.2-1.6-0.9-3.2-2.5-3.4c-1.4-0.2-2.7,0.6-3.2,1.8c-0.4,0.9-0.9,1.8-1.5,2.5l5.6,1.5
		c-0.1-2.7,0.4-5.4,1.6-7.8l-5.4-2.3l-0.4,2.5c-0.6,3.2,3.6,5.3,5.4,2.3c1.7-2.8,6.5-1.5,9.2-2.1c2.5-0.6,4.9-1.8,6.8-3.6
		c2.7-2.3-0.7-6-3.6-4.7c-1.3,0.6-2.5,1.4-3.6,2.3c-2.6,2.1,0.8,6.5,3.6,4.7c1.5-0.8,2.7-2.1,3.5-3.5c0.7-1.5,0.1-3.3-1.4-4
		c-1.1-0.5-2.3-0.3-3.2,0.4c-3.8,3.6-8.3,6.4-13.1,8.4l3.8,2.9c0-0.1,3.8-3.5,4.2-4.1c1.8-2.4-1.7-5.6-4.1-4.1
		c-1.2,0.7-2.2,1.7-3,2.9c-1.7,2.4,1.7,5.8,4.1,4.1c2-1.5,3.9-3.1,5.7-4.8c1.9-1.9,0-6.2-2.9-5c-1.5,0.5-2.8,1.5-3.8,2.7
		c-2,2.5,0.5,6.6,3.6,4.7c2.1-1.3,4-2.8,5.7-4.5c1.9-2,0-6-2.9-5c-1.8,0.6-3.3,1.8-4.4,3.3c-1.9,2.6,1.7,5.3,4.1,4.1
		c2.4-1.2,4.6-2.7,6.7-4.4c2.6-2.2-0.8-6.4-3.6-4.7c-1.3,0.7-2.3,1.7-3.1,2.9c-1.8,2.4,1.7,5.7,4.1,4.1c3.7-2.4,7.1-4.9,10.5-7.6
		c2.3-1.8-0.2-5.9-2.9-5c-1.5,0.4-2.8,1.3-3.7,2.5c-1.7,2.2-0.2,5.9,2.9,5c2.1-0.6,4-1.7,5.6-3.2c2.7-2.5-0.7-5.9-3.6-4.7
		c-1.3,0.5-2.4,1.3-3.3,2.4c-1.1,1.2-1.1,3.1,0.1,4.2c0.5,0.5,1.3,0.8,2,0.8c1.1,0,2.7,0.3,1.8-0.7l-0.8-2.9l-0.2,0.7
		c-0.6,2.8,2.8,5.1,5,2.9l1.9-2c2.7-2.8-1.4-6.8-4.2-4.2l-4.4,4l4.7,3.6l1.1-1.5c2.1-2.7-2.3-5.9-4.7-3.6c-0.9,0.8-3.8,4.5-5.2,4.4
		l2.1,5.1l2.1-1.7l-4.2-4.3L88.9,40l2.1,5.1c0.6-0.9,1.4-1.6,2.3-2.3c2.6-2.2-0.9-6.7-3.6-4.7c-1.8,0.3-2.3,0.8-1.5,1.4l0.5,3.6
		c1.1-2.1,3.6-3.9,5.3-5.6c2.4-2.5-0.6-6.3-3.6-4.7c-2.9,1.6-5.9,2.9-9.1,3.8l2.9,5c2.9-3.2,6.7-4.3,10.5-5.9c2.5-1.1,5.5-2.1,6.2-5
		c0.4-1.6-0.5-3.2-2.1-3.7c-0.2-0.1-0.5-0.1-0.7-0.1c-3.6-0.3-6.6,0.7-9.9,2c-1.5,0.7-2.1,2.5-1.4,4c0.5,1.1,1.7,1.8,3,1.7l2.1-0.3
		l-1.6-5.8c-1.6,0.5-3.3,0.9-5,1.3l2.3,5.4l0.9-0.4L86,29.5c-2.7,1.2-5.3,2.5-7.8,3.8c-2.1,1.1-1.9,5,0.7,5.4L80,39l-0.7-5.4l-1,0.7
		c-1.3,1-1.6,2.9-0.5,4.2c0.8,1.1,2.3,1.5,3.5,0.9c0.6-0.2,1.2-0.6,1.7-1c2.4-1.8,1.1-6.8-2.3-5.4c-2.1,0.8-4.1,2-5.8,3.4l4.8,3.6
		l0.5-0.7c2.1-2.8-2.3-5.9-4.7-3.6c-3.2,3-5.4,7-6.2,11.3c-0.6,2.8,2.8,5.1,5,2.9c2.8-2.8,5.9-5.3,9.3-7.4l-4.1-4.1l-0.5,1
		c-0.8,1.5-0.3,3.3,1.2,4.1c0.9,0.5,2,0.5,2.9,0l4.9-2.1c3.1-1.3,0.8-6.7-2.3-5.4c-0.9,0.3-1.7,0.7-2.6,1.2c-2.4,1.4-1.5,6,1.5,5.6
		l1.5-0.2C89.8,42.1,89.9,36.2,86.1,36.7L86.1,36.7z"/>
	<path class="st0" d="M129.6,40.7c-0.3,0-0.6-0.7-0.8-0.9l-0.6-0.8l-1.3-1.7l-0.9,0.7l1.3,1.5c0.5,0.6,1.3-0.3,0.8-0.8l-1.3-1.5
		c-0.4-0.5-1.3,0.2-0.9,0.7l1.9,2.5c0.5,0.6,0.9,1.3,1.8,1.4c0.3,0,0.6-0.3,0.5-0.7C130.1,41,129.9,40.7,129.6,40.7L129.6,40.7z"/>
	<path class="st0" d="M104.7,37.4c0.2,1.5,1.2,2.3,2.3,3.2s1.6,2.2,3.1,2.5V42c-1.1,0.3-2.3-0.9-3.5-0.9c-0.3,0-0.6,0.3-0.6,0.6
		c0,0.2,0.1,0.4,0.3,0.5c1.3,0.7,3,2.3,4.6,1.8c0.3-0.1,0.5-0.5,0.3-0.8c-0.1-0.3-0.4-0.4-0.7-0.4c-1.1,0.3-2.8-1.2-3.7-1.7
		l-0.3,1.1c1.4,0,2.3,1.3,3.8,0.8c0.5-0.2,0.6-1,0-1.2c-1.2-0.2-1.5-1.2-2.3-1.9s-2.1-1.4-2.3-2.6C105.8,36.7,104.7,36.7,104.7,37.4
		L104.7,37.4z"/>
	<path class="st0" d="M119,90.2c-0.6,0.3-1.3,0.6-2,0.9c-0.3,0.1-0.5,0.5-0.3,0.8c0.1,0.3,0.4,0.4,0.7,0.4l1.3-0.3
		c0.7-0.1,0.5-1.3-0.2-1.2c-2,0.3-3.9,0.9-5.8,1.8c-0.6,0.3-0.2,1.3,0.5,1.1c2.4-0.9,4.8-2,7-3.3c0.5-0.3,0.3-1.2-0.3-1.1
		c-0.7,0.1-1.3,0.4-1.7,0.9c-0.2,0.2-0.2,0.6,0,0.8c0.1,0.1,0.2,0.1,0.4,0.2h0.7l-0.5-0.9c-0.4,0.5-0.9,0.9-1.6,1
		c-0.3,0.1-0.5,0.4-0.4,0.7c0,0,0,0.1,0.1,0.1c0.2,0.3,0.5,0.5,0.8,0.6l0.3-1.2c-0.3-0.1-0.7-0.1-1-0.1c-0.3,0-0.6,0.3-0.5,0.7
		c0,0.3,0.2,0.5,0.5,0.5l0.7,0.1c0.3,0.1,0.6-0.2,0.7-0.5c0-0.3-0.1-0.6-0.4-0.7h-0.1l-0.4,0.9c0.9-0.2,1.7-0.8,2.3-1.6
		c0.3-0.4-0.1-0.9-0.5-0.9h-0.7l0.4,1c0.2-0.3,0.5-0.5,0.8-0.6l-0.3-1.1c-2.1,1.2-4.4,2.3-6.7,3.2l0.5,1.1c1.6-0.8,3.4-1.3,5.2-1.6
		l-0.2-1.2L117,91l0.3,1.2c0.8-0.3,1.5-0.6,2.3-1C120.3,90.8,119.7,89.8,119,90.2L119,90.2z"/>
	<path class="st0" d="M135.6,64.4l-0.5-3.5l-1.1,0.3l0.6,2c0.1,0.3,0.4,0.5,0.8,0.4c0.2-0.1,0.4-0.3,0.4-0.5
		c-0.1-1.4-0.3-2.8-0.6-4.2c-0.2-0.6-1.2-0.5-1.2,0.2c0.1,0.7,0.2,1.4,0.3,2.1c0.1,0.3,0.4,0.5,0.8,0.4c0.2-0.1,0.4-0.3,0.4-0.5
		c0-1-0.1-2.1-0.6-3c-0.1-0.3-0.5-0.5-0.8-0.3c-0.3,0.1-0.4,0.4-0.4,0.7l0.3,2.8c0,0.3,0.3,0.6,0.7,0.5c0.3,0,0.5-0.2,0.5-0.5
		l0.2-2.4l-1.1,0.3l0.5,1.9c0,0.3,0.3,0.6,0.7,0.5c0.3,0,0.5-0.2,0.5-0.5c0.1-0.9,0.1-1.7,0-2.6l-1.2,0.2l0.3,1.1l1.1-0.3
		c-0.2-0.7-0.5-1.3-0.9-1.9c-0.2-0.3-0.5-0.4-0.8-0.2c-0.2,0.1-0.3,0.4-0.3,0.6l0.2,2h1.2l-0.1-1.4l-1.2,0.2
		c0.6,1.4,0.9,2.9,0.8,4.4l1.2-0.2l-0.1-0.9c-0.1-0.3-0.4-0.5-0.7-0.4c-0.2,0.1-0.3,0.2-0.4,0.4l-0.5,2.3h1.1
		c-0.7,0.7-1.1,1.7-1,2.8l1.2-0.2l-0.2-1.7c-0.1-0.6-1.1-0.6-1.1,0l-0.6,3.5c-0.1,0.3,0.2,0.6,0.5,0.7c0.3,0,0.6-0.1,0.7-0.4l0.8-2
		l-1.2-0.2c0.3,1.3,0.2,2.7-0.1,4l1.2,0.2l0.2-2.3c0.1-0.8-1.1-0.8-1.2,0l-0.3,2.3c-0.1,0.7,1.1,0.8,1.2,0.2l0.3-2.4
		c0.1-0.7-1-1.1-1.1-0.3c-0.5,2.9-0.8,5.9-0.9,8.8c0,0.3,0.3,0.6,0.7,0.5c0.3,0,0.5-0.2,0.5-0.5c0.1-0.9,0.1-1.7-0.1-2.5
		c0-0.3-0.3-0.6-0.7-0.5c-0.3,0-0.5,0.2-0.5,0.5c0,1.6-0.2,3.2-0.5,4.8c-0.1,0.8,1,1.1,1.1,0.3c0.3-1.7,0.5-3.4,0.6-5.1h-1.2
		c0.2,0.8,0.2,1.7,0.1,2.5h1.2c0-2.9,0.3-5.7,0.8-8.5l-1.1-0.3l-0.3,2.4l1.2,0.2l0.3-2.3h-1.2l-0.3,2.3c-0.1,0.7,1.1,0.8,1.2,0.2
		c0.3-1.4,0.3-2.9,0.1-4.3c0-0.3-0.3-0.6-0.6-0.6c-0.3,0-0.5,0.2-0.5,0.4l-0.8,2l1.1,0.3l0.6-3.5h-1.1l0.2,1.7
		c0.1,0.7,1.1,0.5,1.2-0.2c0.2-1,0.2-2,0-3c-0.1-0.3-0.4-0.5-0.7-0.4l-0.2,0.1c-0.3,0.1-0.5,0.4-0.4,0.7v0.2
		c0.1,0.3,0.4,0.5,0.7,0.4c0.2-0.1,0.3-0.2,0.4-0.4l0.5-2.3h-1.1l0.1,0.9c0.1,0.7,1.1,0.5,1.2-0.2c0.1-1.6-0.2-3.3-0.9-4.8
		c-0.2-0.5-1.2-0.6-1.2,0.2l0.1,1.4c0.1,0.8,1.2,0.8,1.2,0c0-0.8-0.1-1.5-0.3-2.3l-1.1,0.5l0.8,1.6c0.1,0.3,0.5,0.5,0.8,0.3
		c0.3-0.1,0.4-0.4,0.4-0.7l-0.3-1.1c-0.1-0.3-0.4-0.5-0.8-0.4c-0.2,0.1-0.4,0.3-0.4,0.5c0.1,0.9,0.1,1.7,0,2.6h1.2
		c0-0.9-0.3-1.7-0.7-2.5c-0.3-0.6-1.1-0.2-1.1,0.3l-0.2,2.4h1.2c0.1-1.1-0.1-2.1-0.4-3.1l-1.1,0.3l0.5,2.7l1.2-0.2l-0.3-1.8
		l-1.2,0.2c0.4,1.3,0.6,2.6,0.6,3.9l1.2-0.2l-0.6-2c-0.2-0.8-1.3-0.4-1.1,0.3l0.5,3.5C134.5,65.5,135.6,65.2,135.6,64.4L135.6,64.4z
		"/>
	<path class="st0" d="M113.5,35.8c-3.6-1-5.5-4.1-9.4-3.5c-2.3,0.4-2.7,3.5-1.3,5l2.9,3l2.9-5c-1.8-0.9-3.7-1.5-5.7-1.9
		c-1.1,0-2,0.6-2.6,1.5c-4.3,6.3,8.4,7.2,11,9l-0.6-4.7l-0.1,0.1h4.2l-0.1-0.1l-2.9,5c1.8,0.4,3.7,0.5,5.6,0.6
		c3.5,0.1,3.8-4.8,0.8-5.8c-1-0.4-2.2-0.4-3.3,0c-3.3,1.2-2.5,5.5,0.8,5.8c3.6,0.4,6.1,2.4,9.7,1.6c2.8-0.6,2.6-4,0.7-5.4
		c-4.2-3.2-8.4-6.4-13.2-8.5c-4.1-1.8-8.6-2.6-12.2-5.3l-2.3,5.4c3.2,0.7,6.3,1.4,9.4,2.2c3.7,1,5.2-4.5,1.6-5.7
		c-1.2-0.4-2.5-0.8-3.8-1c-3.1-0.5-5.6,3.9-2.3,5.4c2.8,1.4,5.9,2.2,9,2.5c2.9,0.3,4.1-4.3,1.5-5.5c-2.3-1.1-4.7-2.2-7-3.2l-2.4,5.5
		c4.1,1.2,7.9,2.9,11.5,5.2c2.9,1.9,5.8-2.3,3.6-4.7c-1.2-1.3-2.6-2.2-4.2-2.8c-3.1-1.3-5.4,4-2.3,5.4c0.9,0.4,1.8,0.8,2.8,1
		c1.6,0.4,3.2-0.5,3.7-2.1c0.3-1,0-2.1-0.8-2.9c-0.8-0.8-1.7-1.6-2.7-2.2l-3,5.1c2.7,1.5,5,2.3,7.2,4.5c2.2,2,4,4.5,5.3,7.3
		c1.2,2.8,6.1,2.9,5.8-0.8c-0.1-2-0.6-3.8-1.7-5.5c-2-3.3-7-0.3-5.1,3c1.2,2.2,2.1,4.2,1.8,6.7l5.6-1.5l-2.3-5.1l-5.1,3
		c1.4,2.5,2.3,5.3,2.4,8.2l5.9-0.8c-0.9-3.1-2.1-6.4-1.7-9.7l-3.8,2.9c2,0.7,2.1,7.6,2.3,9.1c0.3,3.8,6.3,3.8,6,0
		c-0.4-5.3-0.7-12.9-6.6-14.9c-2-0.7-3.6,1.1-3.8,2.9c-0.5,3.8,1,7.6,1.9,11.3c0.8,3.2,6.1,2.6,5.8-0.8c-0.2-3.9-1.3-7.8-3.3-11.2
		c-1.9-3.4-6.7-0.4-5.1,3l2.3,5.1c1.3,3.1,5.2,1,5.6-1.5c0.5-3.7-0.8-6.5-2.6-9.7l-5.1,3l0.9,2.5l5.9-0.8c-1.4-3.3-3.3-6.2-5.8-8.8
		c-3-3.2-5.7-4.5-9.4-6.6c-3.4-1.8-6.2,3.1-3,5.1l1.4,1.2l2.9-5l-1.4-0.4l-2.3,5.4l1.6,1.3l3.6-4.7c-4-2.6-8.3-4.5-12.9-5.8
		c-3.1-0.9-5.5,4.1-2.3,5.4c2.4,1,4.7,2.1,7,3.2l1.5-5.5c-2.1-0.2-4.1-0.8-6-1.7l-2.3,5.4c1.3,0.2,2.5,0.6,3.8,1l1.6-5.7
		c-3.1-0.9-6.3-1.6-9.4-2.2c-3.4-0.7-5,3.4-2.3,5.4c3.4,2.6,7.4,3.4,11.3,4.9c5.2,2,9.7,5.5,14.1,8.9l0.7-5.4
		c-2.1,0.5-5.8-1.5-8.1-1.8l0.8,5.8h0.1l0.8-5.8c-1.3,0-2.7-0.1-4-0.4c-2.8-0.5-5.1,2.7-2.9,5l0.1,0.1c1.2,1.1,3,1.1,4.2,0l0.1-0.1
		c1.6-1.3,0.8-3.7-0.6-4.7c-1.2-0.8-2.7-0.9-4.1-1.3c-1-0.3-2-0.6-3-1c-2.3-1.7-2.9-1.2-1.8,1.5l-2.6,1.5c1.2,0.1,3,1.2,4.1,1.7
		c2.9,1.2,4.7-3,2.9-5l-2.9-3l-1.3,5c2,1.3,4.1,2.4,6.3,3.5C115.6,42.6,117.2,36.9,113.5,35.8L113.5,35.8z"/>
	<path class="st0" d="M130.2,81c-0.8-1.3,1.4-5.2,1.8-6.5c0.4-1.5,0.7-3,0.8-4.6c0-0.7-0.9-0.7-1.2-0.2l-2.8,6.9l1.2,0.2
		c0-3.1,0.4-6.1,1.1-9.1l-1.2-0.2l-0.7,7.1h1.2c0.3-3.8,0.2-7.6-0.3-11.3c-0.1-0.7-1.1-0.5-1.2,0.2c-0.1,1.5,0,3.1,0.3,4.6
		c0.1,0.7,1.2,0.5,1.2-0.2c0-2.5-0.1-5-0.3-7.5h-1.2l0.3,3c0,0.3,0.3,0.6,0.7,0.5c0.3,0,0.5-0.2,0.5-0.5l0.1-5.4
		c0-0.3-0.3-0.6-0.6-0.6c-0.3,0-0.5,0.2-0.5,0.4c-0.3,1.1-0.5,2.3-0.5,3.4l1.2-0.2c-0.6-1.3-1-2.7-1.3-4.2c-0.1-0.7-1.3-0.5-1.2,0.2
		l0.9,7.8c0.1,0.6,1,0.9,1.2,0.2c0.6-2.4,0.8-4.9,0.3-7.4l-1.1,0.3c0.6,1.8,0.9,3.7,0.9,5.6h1.2c-0.1-1.8-0.1-3.6,0-5.4l-1.2,0.2
		c0.7,2.9,1.1,5.9,1.1,8.9c0,0.3,0.3,0.6,0.7,0.5c0.3,0,0.5-0.2,0.5-0.5l0.3-7.3H131c0.1,2.6,0.2,5.2,0.3,7.8l1.2-0.2l-1.4-6.1
		c-0.1-0.5-1.1-0.6-1.1,0l-1,7l1.2,0.2l0.8-7.7h-1.2c0.2,2.1,0.1,4.2-0.3,6.3c-0.1,0.7,1,1.1,1.1,0.3c0.6-2.4,1-4.8,1.5-7.2h-1.1
		c0.4,2.6,0.4,5.2,0,7.8h1.2c0.2-3.1,0.3-6.2,0.3-9.3h-1.2l0.2,6.8l1.2-0.2l0.5-5.7l-1.1-0.1c0.1,0.7-0.3,9.5-0.4,9.4
		c-0.2-0.2-0.6-0.2-0.8,0c-0.1,0.1-0.1,0.2-0.2,0.3c-0.8,4.1-3.3,7.1-4.8,10.8c-0.8,1.9-0.8,3.9-1.4,5.8c-1,3.1-3.2,4.7-5.8,6.3
		c-0.3,0.2-0.4,0.5-0.2,0.8c0.1,0.2,0.4,0.3,0.6,0.3c1.7-0.5,2.4-3.2,3.2-4.5l-1.1-0.5l-1,2.3c-0.3,0.7,0.7,1,1.1,0.5
		c0.7-1.1,1.3-2.2,1.5-3.5c0.1-0.3-0.2-0.6-0.5-0.7c-0.3,0-0.6,0.1-0.7,0.4l-0.5,1.3c-0.3,0.6,0.8,1,1.1,0.5c4-6.8,7.2-14,9.6-21.5
		c0.1-0.3-0.1-0.6-0.4-0.7c-0.2-0.1-0.5,0-0.6,0.3c-0.8,1.6-1.5,3.3-2.1,5l1.2,0.2l0.3-4.6c0-0.8-1.1-0.8-1.2,0l-0.1,1.7h1.2
		c0.1-0.9,0.1-1.8,0-2.6c0-0.3-0.3-0.6-0.7-0.5c-0.3,0-0.5,0.2-0.5,0.5c-1.1,8.7-3.8,17.1-7.7,24.9c-0.2,0.3,0,0.7,0.3,0.8
		c0.2,0.1,0.4,0.1,0.6,0c0.9-0.4,1.7-0.9,2.4-1.6c0.6-0.4-0.2-1.2-0.7-0.9l-3.3,1.6c-0.7,0.3-0.1,1.3,0.6,1c1.9-0.9,3.8-2.1,5.4-3.4
		l-0.9-0.7l-1.3,1.1c-0.6,0.3-0.2,1.3,0.5,1.1c2.4-1,3.3-3.2,5.4-4.6l-0.7-0.9c-1.9,2-4.1,3.7-6.5,5.1l0.8,0.8
		c0.3-0.9,0.8-1.8,1.4-2.5l-1-0.6l-0.7,0.6c0.1-0.3-0.2-0.6-0.5-0.7c-0.3,0-0.6,0.1-0.7,0.4l-0.3,0.8c-0.3,0.7,0.7,1,1.1,0.5l1.6-2
		l-1-0.6l-0.8,1.7l1,0.6c1-2.4,2.3-4.6,3.9-6.6l-1-0.6c-0.7,1.6-1.5,3.2-2.5,4.7l1.1,0.5c1.1-3,2.8-5.8,5.1-8.1l-0.9-0.7
		c-1.5,2.7-2.9,5.4-4.2,8.2l1.1,0.5c1-2.4,2.3-4.7,4-6.8l-0.9-0.7c-1.3,2.6-2.6,5.2-4.1,7.7l1.1,0.5c0.6-1.7,1.6-3.3,3-4.5l-0.9-0.7
		c-0.9,1.6-1.9,3.1-3.2,4.4l0.9,0.7l2.4-2.4l-0.8-0.8c-0.9,1.5-2,2.8-3.3,4l0.8,0.8c1-1.2,2.1-2.2,3.4-3l-0.8-0.8
		c-0.7,1-1.5,2-2.4,2.8l0.9,0.7c0.7-1.3,1.6-2.4,2.7-3.2l-0.8-0.8c-0.6,0.8-1.2,1.5-2,2.2l0.9,0.7c0.4-1,1-1.9,1.9-2.6l-1-0.6
		l-0.5,1.7c-0.2,0.5,0.6,1.1,1,0.6c0.5-0.8,1.2-1.5,2-2.1l-1-0.6l-0.9,1.8c-0.4,0.7,0.6,1.2,1,0.6c1.2-1.8,2.3-3.6,3.5-5.4l-1-0.6
		l-2.7,4.4c-0.4,0.6,0.5,1.2,0.9,0.7c2.5-2.8,3.9-6.2,4.2-9.9c0.1-0.7-1-0.8-1.2-0.2c-0.9,2.8-2.3,5.5-3.9,8l1.1,0.5
		c0.4-2,1.1-3.9,2.1-5.7l-1-0.6l-3.3,5.8l1.1,0.5c0.4-2,0.9-4,1.5-5.9c0.2-0.6-0.8-1.1-1.1-0.5l-2.4,4.9l1,0.6l2.7-6.1
		c0.3-0.7-0.6-1.3-1-0.6l-2.4,4.2L129,81l0.7-2.5l-1.1-0.5l-1.2,3.2l1.2,0.3l1-2.7l-1-0.5l-1,2.1l1.1,0.5c0.3-1.3,0.8-2.5,1.4-3.7
		c0.1-0.3-0.1-0.7-0.4-0.8c-0.2-0.1-0.4,0-0.6,0.2c-0.7,0.9-1.2,2-1.4,3.1c-0.1,0.3,0.1,0.6,0.4,0.7c0.2,0.1,0.5,0,0.6-0.3l1.8-2.4
		l-0.9-0.7c-0.7,1.4-1.7,2.7-2.9,3.8l0.9,0.7c0.6-1.4,1.6-2.6,2.9-3.4l-1-0.6l-1.7,2.8l1,0.6c0.7-1.9,1.7-3.7,2.8-5.4l-1.1-0.3
		c-0.1,1.7-0.4,3.4-1,5c-0.2,0.7,0.9,1,1.1,0.3l2.4-7l-1.1-0.3l-1.1,4.8c-0.1,0.3,0.2,0.6,0.5,0.7c0.3,0,0.6-0.1,0.7-0.4l1.5-4.2
		l-1.1-0.3l-0.5,3.5c-0.1,0.8,1,1.1,1.1,0.3c0.1-1.1,0.3-2.1,0.7-3.1l-1.2-0.2c0.2,0.9,0.2,1.9,0,2.8c-0.1,0.7,1.1,0.8,1.2,0.2
		c0.1-0.9,0.3-1.9,0.7-2.7l-1.2-0.2l-0.2,2.6c0,0.7,1.1,0.8,1.2,0.2c0.1-0.8,0.2-1.7,0.5-2.5l-1.2-0.2l-0.1,1.8l1.1,0.3
		c0.1-1,0.3-1.9,0.7-2.8l-1.1-0.2l-0.4,2.2l1.2,0.2l0.4-3.9h-1.2l-0.4,3.3l1.2,0.2l-0.8-6.5c0-0.3-0.3-0.6-0.7-0.5
		c-0.3,0-0.5,0.2-0.5,0.5l-0.6,4.8h1.2c0.3-2.8,0.3-5.7,0-8.5c-0.1-0.8-1.2-0.8-1.2,0c0.1,2.8,0.1,5.7-0.2,8.5h1.2L133,61.2
		l-1.2,0.2c0.5,3.4,0.6,6.8,0.4,10.2h1.2c-0.4-4.1-0.7-8.2-0.7-12.3l-1.2,0.2c0.4,2.3,0.4,4.7,0.2,7h1.2c-0.1-2.7-0.1-5.4-0.1-8.1
		h-1.2c0.2,1.8,0.2,3.7,0,5.5l1.2-0.2c-0.6-2.1-0.7-4.3-0.5-6.5H131l0.1,2.6h1.2L132,56l-1.2,0.2l1.4,9.2c0.1,0.3,0.4,0.5,0.7,0.4
		c0.2-0.1,0.3-0.2,0.4-0.4c0.4-2.4,0.6-4.9,0.4-7.4h-1.2c0.3,3.7,0.4,7.3,0.4,11c0,0.3,0.3,0.6,0.7,0.5c0.3,0,0.5-0.2,0.5-0.5
		l0.3-9.5h-1.2c0.3,3.2,0.3,6.4,0.1,9.7c-0.1,0.8,1.1,0.8,1.2,0c0.1-1.7,0.2-3.3,0.1-5l-1.2,0.2c0.4,2,0.5,4.1,0.3,6.2l1.2-0.2
		l-0.1-1.6l-1.2-0.1l-0.1,2.5c-0.1,0.4,0.4,1,0.9,0.7c-0.6,0.5-1,0.5-0.3,1.3c0.3,0.4,1,0,1-0.4l0.1-3.7c0-0.3-0.3-0.6-0.7-0.5
		c-0.3,0-0.5,0.2-0.5,0.5l-0.1,3.7l1-0.4c0-0.3,0.1-0.6,0.3-0.8c0.1-0.3,0-0.5-0.3-0.7l-0.3-0.2c-0.2-0.1-0.4-0.1-0.6,0l-0.2,0.2
		l0.9,0.7c0.3-0.9,0.3-1.9,0.1-2.8c-0.1-0.6-1.1-0.9-1.2-0.2c-0.2,0.7-0.2,1.5,0.1,2.2c0.1,0.3,0.4,0.5,0.8,0.4
		c0.2-0.1,0.4-0.3,0.4-0.5c0.2-2.2,0.1-4.4-0.4-6.6c-0.1-0.3-0.4-0.5-0.8-0.4c-0.2,0.1-0.4,0.3-0.4,0.5c0.1,1.7,0.1,3.3-0.1,5h1.2
		c0.2-3.2,0.2-6.5-0.1-9.7c0-0.3-0.3-0.6-0.7-0.5c-0.3,0-0.5,0.2-0.5,0.5l-0.3,9.5h1.2c0-3.7-0.1-7.3-0.4-11c-0.1-0.8-1.2-0.8-1.2,0
		c0.2,2.4,0,4.7-0.4,7.1h1.1L132,56c-0.1-0.7-1.2-0.5-1.2,0.2l0.3,3.9c0.1,0.8,1.2,0.8,1.2,0l-0.1-2.6c0-0.3-0.3-0.6-0.7-0.5
		c-0.3,0-0.5,0.2-0.5,0.5c-0.2,2.3,0,4.6,0.5,6.8c0.2,0.7,1.1,0.5,1.2-0.2c0.2-1.8,0.2-3.7,0-5.5c0-0.3-0.3-0.6-0.7-0.5
		c-0.3,0-0.5,0.2-0.5,0.5c0,2.7,0,5.4,0.1,8.1c0,0.3,0.3,0.6,0.7,0.5c0.3,0,0.5-0.2,0.5-0.5c0.2-2.5,0.2-4.9-0.2-7.4
		c-0.1-0.7-1.2-0.5-1.2,0.2c0.1,4.1,0.3,8.2,0.7,12.2c0,0.3,0.3,0.6,0.7,0.5c0.3,0,0.5-0.2,0.5-0.5c0.2-3.5,0.1-7.1-0.4-10.5
		c-0.1-0.7-1.2-0.5-1.2,0.2l0.4,12.7c0,0.3,0.3,0.6,0.7,0.5c0.3,0,0.5-0.2,0.5-0.5c0.3-2.8,0.3-5.7,0.2-8.5h-1.2
		c0.3,2.8,0.3,5.7,0,8.5c-0.1,0.8,1.1,0.8,1.2,0l0.6-4.8h-1.2l0.8,6.5c0.1,0.6,1,0.9,1.2,0.2c0.4-1.1,0.6-2.4,0.4-3.6
		c0-0.3-0.3-0.6-0.7-0.5c-0.3,0-0.5,0.2-0.5,0.5l-0.4,3.9c-0.1,0.7,1,0.8,1.2,0.2c0.2-0.8,0.4-1.6,0.4-2.5c0.1-0.7-1-0.7-1.2-0.2
		c-0.4,0.9-0.7,1.8-0.7,2.8c-0.1,0.7,1,1.1,1.1,0.3c0.2-0.7,0.3-1.4,0.1-2.1c0-0.3-0.3-0.6-0.6-0.6c-0.3,0-0.5,0.2-0.5,0.4
		c-0.3,0.8-0.5,1.7-0.6,2.5l1.2,0.2l0.2-2.6c0.1-0.7-1-0.8-1.2-0.2c-0.4,0.9-0.6,1.8-0.7,2.7l1.2,0.2c0.2-0.9,0.2-1.9,0-2.8
		c0-0.3-0.3-0.6-0.6-0.6c-0.3,0-0.5,0.2-0.5,0.4c-0.4,1-0.6,2.1-0.7,3.1l1.1,0.3l0.5-3.5c0.1-0.3-0.2-0.6-0.5-0.7
		c-0.3,0-0.6,0.1-0.7,0.4l-1.5,4.2l1.1,0.3l1.1-4.8c0.1-0.3-0.2-0.6-0.5-0.7c-0.3,0-0.6,0.1-0.7,0.4l-2.4,7l1.1,0.3
		c0.5-1.7,0.9-3.5,1-5.3c0.1-0.6-0.8-0.8-1.1-0.3c-1.2,1.8-2.2,3.7-3,5.7c-0.2,0.6,0.6,1,1,0.6c1-0.9,1.6-2,2-3.3
		c0.2-0.6-0.6-0.9-1-0.6c-1.3,1-2.3,2.3-3.1,3.7c-0.1,0.3,0,0.7,0.3,0.8c0.2,0.1,0.5,0.1,0.7-0.1c1.2-1.2,2.2-2.5,3.1-4
		c0.1-0.3,0-0.7-0.3-0.8c-0.2-0.1-0.5-0.1-0.7,0.1c-0.8,0.7-1.5,1.6-1.8,2.6l1.1,0.5l1.3-2.8l-1-0.6c-0.6,1.3-1.1,2.6-1.5,4
		c-0.1,0.3,0.1,0.6,0.4,0.7c0.2,0.1,0.5,0,0.6-0.3c0.5-0.8,0.8-1.6,1.1-2.4c0.2-0.6-0.8-1.1-1.1-0.5c-0.5,0.9-0.9,1.9-1.1,2.9
		c-0.1,0.3,0.2,0.6,0.5,0.7c0.3,0,0.6-0.1,0.7-0.4l1.1-3.2c0.2-0.6-0.8-1.1-1.1-0.5c-0.5,0.9-0.8,2-0.8,3.1
		c-0.1,0.6,0.8,0.8,1.1,0.3l2.4-4.2l-1-0.6l-2.8,6.1c-0.3,0.7,0.7,1.3,1,0.6l2.4-4.9l-1-0.5c-0.7,1.9-1.2,3.9-1.5,5.9
		c-0.1,0.6,0.7,1.1,1.1,0.5l3.3-5.8c0.1-0.3-0.1-0.7-0.4-0.8c-0.2-0.1-0.4,0-0.6,0.2c-1.1,1.8-1.8,3.9-2.2,6
		c-0.1,0.3,0.1,0.6,0.4,0.7c0.2,0.1,0.5,0,0.6-0.3c1.7-2.5,3-5.3,4-8.2l-1.2-0.2c-0.2,3.4-1.6,6.6-3.9,9.1l0.9,0.7l2.7-4.4
		c0.4-0.7-0.6-1.3-1-0.6c-1.1,1.8-2.3,3.6-3.5,5.4l1,0.6c0.5-0.6,0.8-1.3,1-2.1c0.2-0.6-0.6-0.9-1-0.6c-0.8,0.6-1.5,1.3-2,2.1l1,0.6
		l0.5-1.7c0.1-0.3-0.1-0.6-0.4-0.7c-0.2-0.1-0.4,0-0.6,0.2c-0.9,0.8-1.6,1.7-2.1,2.8c-0.1,0.3,0,0.7,0.3,0.8
		c0.2,0.1,0.5,0.1,0.7-0.1c0.8-0.6,1.4-1.4,2-2.2c0.2-0.3,0.1-0.6-0.1-0.8c-0.2-0.2-0.5-0.2-0.7,0c-1.2,1-2.1,2.2-2.9,3.5
		c-0.4,0.6,0.4,1.2,0.9,0.7c1-0.9,1.9-1.9,2.6-3c0.3-0.5-0.3-1.2-0.8-0.8c-1.3,0.9-2.6,2-3.7,3.2c-0.5,0.6,0.3,1.4,0.8,0.8
		c1.3-1.3,2.4-2.8,3.4-4.3c0.4-0.5-0.3-1-0.8-0.8c-1.3,0.5-2.3,1.5-2.8,2.8c-0.3,0.6,0.4,1.3,0.9,0.7c1.3-1.4,2.5-3,3.4-4.7
		c0.3-0.6-0.4-1.2-0.9-0.7c-1.4,1.4-2.5,3.1-3.3,5c-0.3,0.6,0.8,1,1.1,0.5c1.5-2.5,2.9-5.1,4.1-7.7c0.3-0.6-0.5-1.3-0.9-0.7
		c-1.8,2.2-3.2,4.7-4.3,7.3c-0.3,0.6,0.8,1.1,1.1,0.5c1.3-2.8,2.7-5.5,4.2-8.2c0.3-0.6-0.5-1.2-0.9-0.7c-2.4,2.5-4.2,5.4-5.4,8.6
		c-0.3,0.7,0.7,1,1.1,0.5c1-1.5,1.9-3.1,2.6-4.7c0.1-0.3-0.1-0.7-0.4-0.8c-0.2-0.1-0.4,0-0.6,0.2c-1.6,2-2.9,4.3-3.9,6.6
		c-0.1,0.3,0.1,0.7,0.4,0.8c0.2,0.1,0.4,0,0.6-0.2c0.5-0.6,0.9-1.2,1-2c0.1-0.3-0.1-0.6-0.4-0.7c-0.2-0.1-0.4,0-0.6,0.2
		c-0.7,0.6-1.3,1.3-1.8,2.2l1.1,0.5l0.3-0.8l-1.2-0.3c-0.5,3.2,1.6,2.4,2.9,0.3c0.4-0.7-0.6-1.2-1-0.6c-0.7,0.7-1.1,1.6-1.4,2.5
		c-0.2,0.5,0.3,1.2,0.8,0.8c2.5-1.4,4.7-3.2,6.7-5.3c0.5-0.5-0.1-1.3-0.7-0.9c-1.9,1.3-3,3.6-5.2,4.5l0.5,1.1
		c1.2-0.7,0.9-0.5,1.7-1.6c0.4-0.6-0.4-1.1-0.9-0.7c-1.6,1.3-3.3,2.4-5.2,3.3l0.6,1l3.3-1.6l-0.7-0.9l-2.2,1.4l0.8,0.8
		c4-8,6.7-16.6,7.9-25.5h-1.2c0.1,0.9,0.1,1.8,0,2.6c0,0.8,1.1,0.8,1.2,0l0.1-1.7h-1.2l-0.3,4.6c0,0.7,1,0.8,1.2,0.2
		c0.4-1.6,1.1-3.2,1.9-4.7l-1.1-0.5c-2.4,7.4-5.6,14.5-9.5,21.2l1.1,0.5l0.5-1.3l-1.2-0.3c-0.2,1.2-0.7,2.3-1.4,3.2l1.1,0.5l1-2.3
		c0.3-0.6-0.8-1-1.1-0.5s-1.8,3.8-2.5,4l0.5,1.1c3.6-2.3,5.7-4.4,6.6-8.5c0.7-2.9,1.8-5.6,3.3-8.2c0.5-0.9,3.2-5,2.3-6.1
		c0.2,0.2,0.6,0.2,0.8,0c0.1-0.1,0.1-0.2,0.2-0.3c1.2-3.5,1.5-7.3,0.8-11c-0.1-0.3-0.4-0.5-0.7-0.4c-0.1,0-0.3,0.1-0.3,0.3
		c-1,2.1-1.2,4.4-0.7,6.6c0.1,0.7,1.2,0.5,1.2-0.2l-0.2-6.8c0-0.3-0.3-0.6-0.7-0.5c-0.3,0-0.5,0.2-0.5,0.5c0,3.1,0,6.2-0.3,9.3
		c-0.1,0.8,1.1,0.7,1.2,0c0.4-2.7,0.4-5.4,0-8.1c-0.1-0.3-0.4-0.5-0.7-0.4c-0.2,0.1-0.3,0.2-0.4,0.4c-0.4,2.4-0.9,4.8-1.5,7.2
		l1.1,0.3c0.4-2.2,0.5-4.4,0.4-6.7c0-0.3-0.3-0.6-0.7-0.5c-0.3,0-0.5,0.2-0.5,0.5l-0.8,7.7c-0.1,0.7,1.1,0.8,1.2,0.2l1-7h-1.1
		l1.4,6.1c0.1,0.3,0.4,0.5,0.8,0.4c0.2-0.1,0.4-0.3,0.4-0.5c0-2.6-0.1-5.2-0.3-7.8c0-0.3-0.3-0.6-0.7-0.5c-0.3,0-0.5,0.2-0.5,0.5
		l-0.3,7.3h1.2c0-3.1-0.4-6.2-1.1-9.3c-0.2-0.7-1.1-0.5-1.2,0.2c-0.1,1.8-0.1,3.6,0,5.4c0,0.3,0.3,0.6,0.7,0.5
		c0.3,0,0.5-0.2,0.5-0.5c0-2-0.3-4-0.9-5.9c-0.1-0.3-0.5-0.5-0.8-0.3c-0.3,0.1-0.4,0.4-0.4,0.7c0.5,2.2,0.4,4.6-0.3,6.8l1.2,0.2
		l-1.2-7.7l-1.2,0.2c0.3,1.4,0.7,2.8,1.2,4.2c0.1,0.3,0.4,0.5,0.8,0.4c0.2-0.1,0.4-0.3,0.4-0.5l0.5-3.1l-1.2-0.2l-0.1,5.4h1.2
		l-0.3-3c-0.1-0.8-1.3-0.8-1.2,0c0.2,2.5,0.3,5,0.3,7.5l1.2-0.2c-0.3-1.4-0.3-2.9-0.2-4.3l-1.2,0.2c0.5,3.6,0.6,7.3,0.3,11
		c-0.1,0.8,1.1,0.8,1.2,0l0.7-7.1c0.1-0.7-1-0.8-1.2-0.2c-0.7,3.1-1.1,6.3-1.1,9.4c0,0.7,0.9,0.8,1.2,0.2l2.8-6.9l-1.1-0.1
		c-0.2,3.4-1.9,6-2.5,9.3c-0.2,1-0.5,1.4,0.1,2.4c0.2,0.2,0.6,0.2,0.8,0C130.2,81.5,130.3,81.2,130.2,81L130.2,81z"/>
	<path d="M71.7,89.3c-8.5-10.3-6.7-28.7-2.7-40.5c2.3-6.8,5.3-12.7,11.7-16.3c6.4-3.8,13.7-5.6,21.2-5.1c0.8,0,0.8-1.1,0-1.2
		c-7.6-0.5-15.2,1.3-21.8,5.3c-6.1,3.5-9.2,8.9-11.6,15.4c-4.6,12.5-6.8,32.2,2.4,43.3C71.3,90.8,72.2,89.9,71.7,89.3z"/>
	<path d="M69.5,88.8c2.7,3.1,6.2,5.5,10.2,6.7c0.5,0.2,0.9-0.4,0.7-0.9c-5.6-11-8.4-26.2-3.3-37.8c0.3-0.7-0.7-1.3-1-0.6
		c-5.3,12.1-2.5,27.6,3.3,39l0.7-0.9c-3.7-1.2-7.1-3.4-9.6-6.4C69.9,87.3,69,88.2,69.5,88.8L69.5,88.8z"/>
	<path d="M72.4,57c5.4-0.4,10.6-4.6,15.2-7.3c5.6-3.2,10.8-6.7,15-11.7c0.5-0.6-0.3-1.4-0.8-0.8c-3.7,4.5-8.3,7.7-13.3,10.7
		c-4.5,2.7-10.7,7.5-16,8C71.6,55.9,71.6,57.1,72.4,57L72.4,57z"/>
	<path d="M77.2,56.7c0.1-0.4,0.3-0.8,0.7-1.1c0.6-0.5-0.3-1.3-0.8-0.8c-0.5,0.4-0.9,1-1,1.6C75.9,57.1,77.1,57.4,77.2,56.7
		L77.2,56.7z"/>
	<path d="M79.1,93.4c3.6,0.8,6.7,1.8,10.4,1.9c0.3,0,0.6-0.3,0.6-0.6c0-0.3-0.3-0.6-0.6-0.6c-3.6-0.1-6.7-1.1-10.1-1.8
		C78.6,92.1,78.3,93.2,79.1,93.4L79.1,93.4z"/>
	<path d="M101.1,27.5c7.2,0.7,14.7,2.1,20.8,6.3c6.8,4.7,11,10.5,12.8,18.5c1.7,7.8,1.4,15.9,0.1,23.7c-1.3,8-8.7,16.1-17.2,16.6
		l0.4,1c4.3-5.1,7.1-11.6,9.3-17.9c2.5-7.1,1.7-13.9,0.1-21.1c-0.2-0.8-1.3-0.4-1.2,0.3c1.5,7,2.3,13.6-0.1,20.5
		c-2.1,6-4.9,12.4-9,17.4c-0.3,0.4-0.1,1.1,0.4,1c6.8-0.4,14-6,17-12.1c1.6-3.4,1.8-8.1,2.1-11.8c0.5-4.8,0.4-9.7-0.3-14.5
		c-1.4-9.5-5-15.9-12.6-21.7c-6.5-5-14.8-6.7-22.8-7.5C100.3,26.2,100.3,27.4,101.1,27.5L101.1,27.5z"/>
	<path d="M111.6,94.2c2,0.1,4-0.4,5.8-1.3c0.7-0.3,0.1-1.4-0.6-1c-1.6,0.8-3.4,1.2-5.1,1.1C110.8,93,110.8,94.2,111.6,94.2z"/>
	<path d="M100.2,40.5c4.5,2.6,9.3,4.4,14.4,5.4c2,0.4,4.1,0.2,6.1,0.7c4.1,1,4.3,5,5.5,8.5c0.2,0.7,1.4,0.4,1.2-0.3
		c-0.9-2.9-1.3-7.9-4.1-9.3c-1.1-0.6-3.8-0.1-5.1-0.2c-2.2-0.2-4.4-0.6-6.5-1.2c-3.8-1-7.4-2.6-10.8-4.5c-0.3-0.1-0.7,0.1-0.8,0.4
		C100,40.1,100,40.3,100.2,40.5L100.2,40.5z"/>
	<path class="st0" d="M124,89.7c0.4-0.7,1-1.3,1.6-1.9l-1-0.4c0,0.2-0.1,0.5-0.3,0.6c-0.6,0.5,0.3,1.3,0.8,0.8
		c0.3-0.3,0.6-0.6,0.8-0.9l-1.1-0.1l0.1-0.2c-0.3,0.1-0.5,0.5-0.3,0.8c0.1,0.3,0.4,0.4,0.7,0.4c0.6-0.1,0.9-0.7,0.8-1.3c0,0,0,0,0,0
		c-0.1-0.3-0.4-0.5-0.7-0.4c-0.1,0-0.3,0.1-0.3,0.3c-0.2,0.3-0.4,0.5-0.6,0.7l0.8,0.8c0.4-0.4,0.6-0.9,0.6-1.5
		c0-0.3-0.3-0.6-0.6-0.6c-0.1,0-0.3,0.1-0.4,0.2c-0.7,0.6-1.3,1.3-1.8,2.1C122.6,89.8,123.6,90.4,124,89.7L124,89.7z"/>
	<path class="st0" d="M87.7,94c0.5,0,1.1,0,1.6,0.2c0.3,0.1,0.6-0.1,0.7-0.4c0-0.1,0-0.2,0-0.3c-0.1-0.2-0.2-0.5-0.3-0.7
		c-0.4-0.6-1.5,0-1,0.6c0.1,0.1,0.2,0.3,0.2,0.4l0.7-0.7c-0.6-0.2-1.3-0.3-1.9-0.2C87,92.8,87,94,87.7,94L87.7,94z"/>
	<path class="st1" d="M73.4,53c8.5-4,16.3-9.4,23.1-15.9c0.6-0.5-0.3-1.4-0.8-0.8C89,42.7,81.3,48,72.8,52
		C72.1,52.3,72.7,53.3,73.4,53L73.4,53z"/>
	<path class="st1" d="M104.5,39.6c2.5,0.8,4.8,2.2,7.4,2.6c3.1,0.5,6.2,0.1,9.2,0.8c0.8,0.2,1.1-1,0.3-1.2c-2.6-0.6-5.1-0.4-7.7-0.6
		c-3.3-0.2-5.9-1.8-9-2.7C104,38.2,103.7,39.4,104.5,39.6L104.5,39.6z"/>
	<path class="st1" d="M122.4,91.5c4.6-6.8,9-15.5,8.9-23.9c0-0.3-0.3-0.6-0.7-0.5c-0.3,0-0.5,0.2-0.5,0.5c0.1,8.2-4.2,16.6-8.7,23.3
		C121,91.6,122,92.1,122.4,91.5L122.4,91.5z"/>
	<path class="st1" d="M75.7,88.2c-4.7-6.5-7.1-14.4-6.8-22.5c0-0.3-0.3-0.6-0.7-0.5c-0.3,0-0.5,0.2-0.5,0.5
		c-0.3,8.3,2.2,16.4,7,23.1C75.1,89.4,76.1,88.8,75.7,88.2L75.7,88.2z"/>
	<path class="st1" d="M72.7,47c2.5-10.6,13.1-14.5,22.5-17.3c0.3-0.1,0.5-0.5,0.3-0.8c-0.1-0.3-0.4-0.4-0.7-0.4
		c-9.8,3-20.7,7.1-23.3,18.1C71.4,47.4,72.6,47.7,72.7,47L72.7,47z"/>
</g>
</svg>
