<?xml version="1.0" encoding="utf-8"?>
<!-- Generator: Adobe Illustrator 21.0.2, SVG Export Plug-In . SVG Version: 6.00 Build 0)  -->
<svg version="1.1" id="Layer_1" xmlns="http://www.w3.org/2000/svg" xmlns:xlink="http://www.w3.org/1999/xlink" x="0px" y="0px"
	 viewBox="0 0 200 600" style="enable-background:new 0 0 200 600;" xml:space="preserve">
<style type="text/css">
	.st0{fill:#EE7A22;}
	.st1{fill:#EC8622;}
</style>
<g>
	<g>
		<g>
			<path class="st0" d="M125.9,52.2c0.8,1.4,1.3,2.8,1.5,4.4c0.4-0.1,0.8-0.2,1.2-0.3c-0.5-1.3-1-2.5-1.6-3.8
				c-0.4,0.2-0.7,0.3-1.1,0.5c0.7,1.7,1.2,3.4,1.6,5.1c0.4-0.1,0.8-0.2,1.2-0.3c-0.4-1.2-0.7-2.4-1.1-3.6c-0.4,0.1-0.8,0.2-1.2,0.3
				c0.4,1,0.7,2,0.9,3c0.4-0.1,0.8-0.2,1.2-0.3c-0.9-2.3-1.5-4.9-2.6-7.1c-0.7-1.3-2.1-2-2.6-3.4c-0.3,0.2-0.6,0.5-0.9,0.7
				c1.1,0.7,2.1,1.4,3.1,2.4c0.5,0.5,1.3-0.1,0.9-0.7c-0.6-0.9-1.2-1.8-1.8-2.8c-0.3,0.2-0.6,0.5-0.9,0.7c1.1,1.1,2,2.3,2.9,3.6
				c0.3-0.2,0.6-0.5,0.9-0.7c-0.7-0.8-1.5-1.6-2.2-2.5c-0.5-0.5-1.3,0.1-0.9,0.7c0.6,1,1.2,2,1.8,3c0.3,0.6,1.3,0.2,1.1-0.5
				c-0.2-0.6-0.4-1.2-0.6-1.7c-0.3-0.7-1.4-0.4-1.2,0.3c0.2,0.7,0.4,1.5,0.5,2.2c0.4-0.1,0.8-0.2,1.2-0.3c0-0.2,0.1-0.4,0.1-0.6
				c-0.4,0-0.7-0.1-1.1-0.1c0.1,0.3,0.2,0.7,0.3,1c0.1,0.6,1,0.6,1.2,0c1.1-4.5-1.1-8.1-3.7-11.6c-0.3,0.2-0.6,0.5-0.9,0.7
				c2.5,2,4,4.4,4.6,7.6c0.4-0.2,0.7-0.3,1.1-0.5c-0.3-0.6-0.6-1.2-1-1.8c-0.3-0.7-1.4-0.4-1.2,0.3c0.5,1.2,0.4,1,1.1,2.1
				c0.4,0.6,1.2,0.2,1.1-0.5c-0.6-3.3-2.2-6-4.9-8.1c-0.5-0.4-1.4,0.1-0.9,0.7c2.4,3.2,4.6,6.5,3.6,10.7c0.4,0,0.8,0,1.2,0
				c-0.1-0.3-0.2-0.7-0.3-1c-0.1-0.5-0.8-0.6-1.1-0.1c-0.4,0.6-0.4,0.7-0.2,1.5c0.2,0.8,1.3,0.4,1.2-0.3c-0.1-0.8-0.2-1.5-0.5-2.2
				c-0.4,0.1-0.8,0.2-1.2,0.3c0.2,0.6,0.4,1.2,0.6,1.7c0.4-0.2,0.7-0.3,1.1-0.5c-0.6-1-1.2-2-1.8-3c-0.3,0.2-0.6,0.5-0.9,0.7
				c0.7,0.8,1.5,1.6,2.2,2.5c0.4,0.5,1.3-0.2,0.9-0.7c-0.9-1.4-1.9-2.6-3-3.8c-0.5-0.5-1.3,0.1-0.9,0.7c0.6,0.9,1.2,1.8,1.8,2.8
				c0.3-0.2,0.6-0.5,0.9-0.7c-1-1-2-1.8-3.3-2.6c-0.4-0.2-1.1,0.2-0.9,0.7c0.5,1.4,1.5,2,2.3,3.2c1.4,2.1,2.1,4.9,2.9,7.3
				c0.3,0.7,1.3,0.4,1.2-0.3c-0.2-1.1-0.5-2-0.9-3c-0.3-0.7-1.4-0.4-1.2,0.3c0.4,1.2,0.7,2.4,1.1,3.6c0.2,0.7,1.3,0.4,1.2-0.3
				c-0.4-1.9-1-3.7-1.8-5.4c-0.3-0.6-1.4-0.2-1.1,0.5c0.5,1.3,1,2.5,1.6,3.8c0.3,0.7,1.3,0.4,1.2-0.3c-0.3-1.8-0.7-3.1-1.7-4.7
				C126.5,50.9,125.5,51.5,125.9,52.2L125.9,52.2z"/>
		</g>
	</g>
	<g>
		<g>
			<g>
				<path class="st0" d="M73.8,49.5c-0.6,2.1-1.3,4.2-1.9,6.4c0.4,0,0.8,0,1.2,0c-0.4-2.2-2,2.9-1.9,2.4c-0.4,1.7,0.1,3.9,0.4,5.6
					c0.4-0.1,0.8-0.2,1.2-0.3c-0.7-3.6-0.4-7,1-10.4c-0.4-0.1-0.8-0.1-1.2-0.2c0.1,1.3-0.2,2.6-0.8,3.7c-0.2,0.6,0.6,1,1,0.6
					c-0.2,0-0.5,0-0.7,0c-0.2,0.7,0.7,1.1,1.1,0.5c0.9-1.5,0.7-1,1.2-2.6c-0.4-0.1-0.8-0.1-1.2-0.2c0,0.3,0,0.6,0,0.9
					c0,0.6,0.8,0.9,1.1,0.3c0.8-1.6,1.4-3,1.9-4.7c0.2-0.8-0.9-1-1.2-0.3c-0.4,1-0.8,2.1-1.1,3.1c0.4,0.1,0.8,0.2,1.2,0.3
					c0.4-2.1,0.6-4.1,0.7-6.2c0-0.7-1-0.8-1.2-0.2c-0.4,1.9-1,3.8-1.7,5.6c0.4,0.1,0.8,0.1,1.2,0.2c-0.3-2,0-3.9,1.1-5.7
					c-0.4-0.1-0.7-0.2-1.1-0.3c0.1,1.9-0.3,3.7-1.2,5.4c0.4,0,0.7,0.1,1.1,0.1c-0.1-0.3-0.1-0.5-0.2-0.8c-0.1-0.6-1-0.6-1.2,0
					c-0.2,0.5-0.5,1-0.7,1.5c0.4,0.1,0.7,0.2,1.1,0.3c0-1.5-0.8-7.7,2.1-7.6c-0.1-0.3-0.3-0.7-0.4-1c-1.4,1.2-2,2.2-2.6,3.9
					c-0.2,0.5,0.6,1.1,1,0.6c0.9-1.1,1.6-2.2,2.2-3.4c-0.4-0.1-0.7-0.2-1.1-0.3c-0.1,0.7-0.1,1.3-0.2,2c0.4-0.1,0.7-0.2,1.1-0.3
					c0-0.1,0-0.2,0-0.2c0.3,0.2,0.7,0.4,1,0.6c0.8-1,1.6-2,2.4-3.1c-0.3-0.3-0.5-0.5-0.8-0.8c-0.9,1.9-2,3.6-3.2,5.3
					c-0.4,0.5,0.3,1.1,0.8,0.8c1.2-0.7,2.2-1.4,3.3-2.3c0.5-0.4-0.2-1.4-0.7-0.9c-0.4,0.3-0.8,0.6-1.2,0.9c-0.6,0.5-0.1,1.4,0.6,1
					c0.7-0.3,1.3-0.6,2-0.9c-0.2-0.3-0.4-0.7-0.6-1c-0.7,0.5-1.4,1.1-2.2,1.6c-0.7,0.4-0.1,1.3,0.6,1c3-1.3,5.1-3,7.1-5.6
					c-0.3-0.2-0.7-0.4-1-0.6c-1.2,2.4-3.2,3.6-5.4,4.8c0.2,0.3,0.4,0.7,0.6,1c1.9-1.4,3.8-2.8,5.7-4.1c-0.2-0.3-0.5-0.6-0.7-0.9
					c-0.3,0.3-0.6,0.5-0.9,0.8c0.3,0.3,0.6,0.6,0.8,0.8c0.9-0.9,1.8-1.9,2.6-2.8c-0.3-0.2-0.6-0.5-0.9-0.7c-2.5,3.3-5.5,5.5-9.3,6.9
					c0.2,0.4,0.3,0.7,0.5,1.1c3.6-2.1,7-4.3,10.3-6.9c0.5-0.4-0.2-1.3-0.7-0.9c-1.6,1-3.2,2-4.9,2.7c-4.7,2-1-2.1,0.6-3.8
					c-0.3-0.1-0.7-0.3-1-0.4c-0.4,1.4-0.7,2.7-1.1,4.1c0.4,0.2,0.7,0.3,1.1,0.5c0.6-1.1,1.2-2.2,1.9-3.3c-0.3-0.2-0.7-0.4-1-0.6
					c-0.2,1.5-0.7,2.8-1.5,4c0.4,0.2,0.7,0.3,1.1,0.5c0.5-1.1,1-2.2,1.6-3.3c-0.3-0.2-0.7-0.4-1-0.6c0.2,2-0.2,2.7-1.4,2.1
					c-0.4-0.1-0.8-0.1-1.2-0.2c-1.1-0.3-2.2-0.6-3.3-0.8c-0.4-0.1-0.8-0.1-1.2-0.2c0,0.4,2.2-3.1,2.2-3.1c-0.3-0.2-0.7-0.4-1-0.6
					c-0.5,1-0.9,2-1.4,3c-0.3,0.7,0.7,1.3,1,0.6c1-1.8,2.5-3.4,4.3-4.4c0.6-0.3,0.2-1.3-0.5-1.1c-0.5,0.2-1,0.3-1.5,0.5
					c-0.7,0.3-0.4,1.3,0.3,1.2c0.5-0.1,1.1-0.3,1.6-0.4c-0.1-0.4-0.2-0.8-0.3-1.2c-1.9,0.7-3,1.6-4,3.4c-0.3,0.6,0.5,1.3,0.9,0.7
					c2.4-2.9-0.1,2-0.5,2.7c0.4,0.2,0.7,0.3,1.1,0.5c0.4-1.6,1.2-3,2.4-4.2c-0.3-0.1-0.7-0.3-1-0.4c-0.8,2.1-0.5,2.1,0.8,0.1
					c-0.3-0.1-0.7-0.3-1-0.4c0.4-0.1,0.8-0.1,1.2-0.2c-0.3-0.2-0.6-0.5-0.9-0.7c-0.3,2.2-1.1,3.8-2.7,5.4c0.3,0.2,0.7,0.4,1,0.6
					c0.1-1.5,0.8-2.8,2-3.9c-0.3-0.2-0.6-0.5-0.9-0.7c-0.7,0.7-1.4,1.5-2.1,2.2c0.3,0.2,0.6,0.5,0.9,0.7c-0.6,0-1.1,0.1-1.7,0.1
					c0.3,0.2,0.6,0.5,0.9,0.7c1.7-1.4,3.4-2.9,5.1-4.3c0.3-0.2,0.6-0.5,0.9-0.7c-0.3-0.6-0.6-1.1-0.8-1.7c-0.4,0-0.8,0-1.2,0
					c0.2,1.7-0.1,3.3-0.7,4.9c0.4,0,0.8,0,1.2,0c0.4,0.6,0.7,1.3,1.1,1.9c0.3-0.1,0.7-0.3,1-0.4c0.8-2.3,1.6-4.6,2.4-6.9
					c-0.3-0.1-0.7-0.3-1-0.4c-0.3,0.3-0.7,0.5-1,0.8c-0.3-0.2-0.7-0.4-1-0.6c-0.4,0.9-0.7,1.8-1.1,2.7c0.4,0,0.7,0.1,1.1,0.1
					c0-0.2-0.1-0.4-0.1-0.6c-0.1-0.8-1.3-0.4-1.2,0.3c0,0.2,0.1,0.4,0.1,0.6c0.1,0.6,0.8,0.5,1.1,0.1c1.2-1.7,0.9-0.9,1.2-2.9
					c0.1-0.6-0.5-1-1-0.6c-0.8,0.7-1.5,1.4-1.8,2.5c-0.1,0.2,0,0.4,0.2,0.6c1.9,2.1,3.6-0.4,3.3-2.6c0-0.3-0.2-0.5-0.4-0.6
					c-1.9-0.5-3.4,2.7-1.9,4c2.3,2,3.7-2.2,3.8-3.7c0-0.6-0.7-0.7-1-0.4c-1.2,1-3.3,3.9-0.6,4.9c2.6,1,3.7-2.7,3.7-4.4
					c0-0.4-0.5-0.8-0.9-0.5c-2.1,1.4-3.3,6,0.6,5.6c2.5-0.3,2.7-4.2,0-4.2c-1.8,0-2.6,2.9-0.7,3.5c1.7,0.5,2.7-3.5,0.7-4.1
					c-2-0.6-3.4,3.1-2.3,4.5c1.7,2.1,5-0.4,3.5-2.6c-1.3-1.9-4.3-0.6-3.9,1.6c0.6,3.1,4.5,1.5,3.6-1.4c-0.1-0.3-0.4-0.5-0.7-0.4
					c-3.9,0.8-2.7,5.5-0.2,3.5c3.3-2.6-2.1-6.7-2.9-3.4c-0.6,2.9,5,2.4,3.8-0.1c-1.3-2.7-6.5,2.5-3.1,4.3c0.2,0.1,0.5,0.1,0.7-0.1
					c1.2-1.2,0.3-3.9-1.7-3.5c-2.1,0.5-1.7,3.9,0.4,4.2c1.7,0.2,2.8-2,1.6-3.2c-2.5-2.4-3.9,2.3-3.2,4c0.1,0.2,0.3,0.3,0.5,0.3
					c2.5-0.1,2.4-2.5,2-4.5c-0.1-0.4-0.6-0.5-0.9-0.4c-1.8,1-2.3,2.9-1,4.5c0.2,0.3,0.7,0.4,0.9,0.1c1.2-1.3,2.9-5.1-0.1-5.4
					c-1.9-0.2-3,3-2.3,4.4c2.2,4.2,6-5.2,1.6-5.4c-2.1-0.1-3.5,4-2.5,5.4c1,1.5,2.9,0.7,3.4-0.9c0.4-1.4-1-4.5-2.7-4
					c-2.8,0.8-1.1,5.1,0.1,6.3c0.4,0.4,1,0.1,1-0.4c0.2-1.8,0.2-5.2-2.4-5.6c-1.5-0.2-2.8,1-2.3,2.5c0.9,3.2,6.7,0.1,2.9-2.9
					c-0.3-0.2-0.7-0.2-0.9,0.1c-1,1.6-1.1,2.4-0.7,4.2c0.1,0.6,1,0.5,1.2,0c0.6-1.8,0.8-3.3,0.8-5.2c0-0.8-1.1-0.8-1.2,0
					c-0.1,1.4,0.2,2,1.4,2.7c0.5,0.3,1-0.2,0.9-0.7c-1-5-7.7-0.7-6.3,3.6c0.2,0.5,0.6,0.6,1,0.3c1.2-1,1.1-0.8,1.2-2.4
					c0-0.5-0.5-0.7-0.9-0.5c-1.6,0.9-2.1,1.5-2.4,3.4c-0.1,0.5,0.4,0.9,0.9,0.7c1.7-0.9,2.5-1.8,3.1-3.6c0.1-0.4-0.3-0.9-0.7-0.7
					c-1.6,0.6-2.2,1.2-2.5,2.9c-0.1,0.5,0.4,1,0.9,0.7c1.2-0.7,1.8-1.4,2.5-2.6c0.3-0.6-0.5-1.2-0.9-0.7c-1.3,1.4-1.9,2.6-2.3,4.5
					c-0.1,0.6,0.6,1,1,0.6c1.7-1.8,2.6-3.5,3-5.9c0.1-0.5-0.4-1-0.9-0.7c-1.6,1-2.1,2.2-1.7,4.1c0.1,0.5,0.7,0.6,1,0.3
					c1-1,1.3-1.7,1.4-3.1c0-0.5-0.7-0.8-1-0.4c-1,0.9-1.6,1.7-1.8,3c0,0.2,0.1,0.4,0.3,0.5c0.2,0.2,0.5,0.3,0.7,0.5
					c0.2,0.1,0.4,0.1,0.6,0c1.5-0.9,1.5-1.7,0.7-3.3c-0.2-0.4-0.7-0.4-0.9-0.1c-0.9,0.8-3.9,3.7-1.7,4.8c2.2,1.2,3.2-3.6,3.3-4.8
					c0.1-0.5-0.7-0.8-1-0.4c-1.2,1.5-2.1,2.9-2.7,4.7c-0.2,0.7,0.7,1,1.1,0.5c0.6-1,3.7-4.5,2.6-5.9c-1.3-1.6-3.2,1-3.9,1.8
					c0.3,0.2,0.6,0.5,0.9,0.7c1.1-0.9,2.2-1.9,3.3-2.8c0.7-0.3,0.4-1.3-0.3-1.2c-0.5,0.1-1.1,0.3-1.6,0.4c0.1,0.4,0.2,0.8,0.3,1.2
					c0.5-0.2,1-0.3,1.5-0.5c-0.2-0.4-0.3-0.7-0.5-1.1c-2.2,1.2-3.5,2.6-4.7,4.8c0.3,0.2,0.7,0.4,1,0.6c0.5-1,0.9-2,1.4-3
					c0.3-0.7-0.7-1.3-1-0.6c-1,1.9-3.1,4.4-1.8,6.4c0.2,0.4,0.8,0.4,1,0c0.9-1.5,0.8-1,0.8-2.8c0-0.7-1-0.8-1.2-0.2
					c-1.5,5.1,5.4,5.5,5.7,1.2c0-0.7-1-0.8-1.2-0.2c-0.6,1.7-0.6,1.2,0,2.9c0.2,0.4,0.6,0.6,1,0.3c1.5-1.3,2.3-2.6,2.7-4.6
					c0.1-0.5-0.6-1.1-1-0.6c-1.1,1.2-1.6,2.1-1.9,3.8c-0.1,0.6,0.7,1.1,1.1,0.5c0.9-1.4,1.3-2.6,1.7-4.3c0.1-0.5-0.6-1.1-1-0.6
					c-1.1,1.2-1.7,2.3-2.2,3.9c-0.2,0.6,0.8,1.1,1.1,0.5c0.9-1.6,1.2-2.9,1.3-4.7c0-0.5-0.7-0.8-1-0.4c-1.9,2-3,4-3.6,6.6
					c-0.1,0.4,0.3,0.9,0.7,0.7c3-1.3,5.9-2.7,8.7-4.4c-0.2-0.3-0.5-0.6-0.7-0.9c-3.2,2.5-6.5,4.7-10,6.7c-0.6,0.3-0.2,1.3,0.5,1.1
					c4.2-1.5,7.4-3.9,10.1-7.4c0.4-0.5-0.5-1.2-0.9-0.7c-0.9,0.9-1.8,1.9-2.6,2.8c-0.5,0.6,0.3,1.4,0.8,0.8c0.3-0.3,0.6-0.5,0.9-0.8
					c0.5-0.5-0.2-1.4-0.7-0.9c-1.9,1.4-3.8,2.8-5.7,4.1c-0.6,0.4-0.1,1.4,0.6,1c2.5-1.3,4.6-2.6,5.9-5.2c0.4-0.7-0.6-1.2-1-0.6
					c-1.8,2.4-3.9,4-6.7,5.2c0.2,0.3,0.4,0.7,0.6,1c1.5-0.9,1.1-0.6,2.4-1.8c0.4-0.4,0-1.2-0.6-1c-1.3,0.5-1.1,0.4-2.3,1.1
					c0.2,0.3,0.4,0.7,0.6,1c0.4-0.3,0.8-0.6,1.2-0.9c-0.2-0.3-0.5-0.6-0.7-0.9c-0.9,0.9-1.9,1.6-3,2.1c0.3,0.3,0.5,0.5,0.8,0.8
					c1.2-1.7,2.3-3.4,3.2-5.3c0.2-0.5-0.3-1.2-0.8-0.8c-1.6,1.1-2.2,2-3,3.8c-0.3,0.6,0.6,0.9,1,0.6c3.3-2.6-3.8-4.4-1.8,0
					c0.3,0.6,1.1,0.2,1.1-0.3c0.1-0.7,0.1-1.3,0.2-2c0.1-0.6-0.9-0.8-1.1-0.3c-0.5,1.2-1.2,2.2-2,3.2c0.3,0.2,0.7,0.4,1,0.6
					c0.8-1.1,1.5-2.3,2.3-3.4c0.4-0.4,0.1-1-0.4-1c-4.5-0.2-3.3,5.9-3.3,8.8c0,0.6,0.8,0.8,1.1,0.3c0.7-1,0.6-0.6,0.8-1.8
					c-0.4,0-0.8,0-1.2,0c0.1,0.3,0.1,0.5,0.2,0.8c0.1,0.5,0.9,0.6,1.1,0.1c0.9-2,1.3-3.8,1.4-6c0-0.6-0.9-0.8-1.1-0.3
					c-1.1,2.2-1.4,3.8-1.2,6.3c0.1,0.7,0.9,0.8,1.2,0.2c0.7-1.9,1.3-3.7,1.7-5.6c-0.4-0.1-0.8-0.1-1.2-0.2c0,2-0.2,4-0.6,5.9
					c-0.1,0.8,0.9,1,1.2,0.3c0.4-1,0.8-2.1,1.1-3.1c-0.4-0.1-0.8-0.2-1.2-0.3c-0.4,1.6-1,3-1.8,4.4c0.4,0.1,0.7,0.2,1.1,0.3
					c0-0.3,0-0.6,0-0.9c0-0.7-1-0.8-1.2-0.2c-0.4,0.8-0.7,1.6-1.1,2.3c0.4,0.2,0.7,0.3,1.1,0.5c0-0.2,0.1-0.4,0.1-0.6
					c0.1-0.2,0-0.6-0.3-0.7c-0.1,0-0.2-0.1-0.3-0.1c-0.2-0.1-0.5-0.1-0.7,0.1c-0.1,0.1-0.1,0.1-0.2,0.2c0.3,0.2,0.7,0.4,1,0.6
					c0.6-1.4,0.8-2.5,0.9-4.1c0-0.7-0.9-0.7-1.2-0.2c-1.5,3.7-1.8,7.2-1,11c0.2,0.8,1.3,0.4,1.2-0.3c-0.7-2.4-0.5-4.7,0.4-7
					c0.3-0.3,0.6-0.6,0.8-1c0-0.3,0.3-0.7,0.2-1c-0.1-0.9-0.5-1.2-1.2-1.5c-0.2-0.1-0.6,0.1-0.7,0.3c-0.8,1.4-0.7,1.2-0.4,2.9
					c0.1,0.6,1,0.5,1.2,0c0.6-2.1,1.3-4.2,1.9-6.4C75.2,49.1,74,48.8,73.8,49.5L73.8,49.5z"/>
			</g>
		</g>
		<g>
			<g>
				<path class="st0" d="M73,50.9C73,50.9,73,50.9,73,50.9c-0.3-0.2-0.5-0.4-0.8-0.6c0.1,0.4,0.1,0.8,0,1.2c0.4-0.1,0.8-0.1,1.2-0.2
					c0-0.3,0.1-0.6,0.1-0.9c-0.4-0.1-0.8-0.1-1.2-0.2c0.1,0.5,0.1,0.9,0.1,1.4c0,0.7,0.9,0.8,1.2,0.2c0.9-2.3,2-4.5,3.3-6.6
					c-0.4-0.2-0.7-0.3-1.1-0.5c-0.1,0.9-0.4,1.6-0.9,2.4c0.4,0.2,0.7,0.3,1.1,0.5c0.3-1.1,0.6-2.2,1.3-3c1.1-1.3-0.3,1.6-0.5,2
					c0.4,0.1,0.8,0.2,1.2,0.3c0.4-1.2,1.2-2,2.5-2.4c-0.2-0.2-0.5-0.5-0.7-0.7c-0.4,1.3-1.2,1.8-2.4,1.8c0.3-0.3,0.6-0.6,1-0.8
					c0.4-0.3,2.3-1.6,1.3-0.2c-0.4,0.6,0.5,1.2,0.9,0.7c0.5-0.5,1.1-0.9,1.7-1.2c-0.2-0.3-0.5-0.6-0.7-0.9c-0.6,0.9-1.1,1.7-1.7,2.6
					c-0.4,0.6,0.5,1.1,0.9,0.7c0.7-0.6,1.5-1.3,2.2-1.9c-0.3-0.3-0.6-0.6-0.8-0.8c-0.4,0.5-0.8,1-1.2,1.6c-0.5,0.6,0.3,1.4,0.8,0.8
					c1-1.1,1.9-2.1,2.9-3.2c0.5-0.6-0.3-1.4-0.8-0.8c-1,1-2,2.1-2.9,3.2c0.3,0.3,0.6,0.6,0.8,0.8c0.4-0.5,0.8-1,1.2-1.6
					c0.5-0.6-0.2-1.4-0.8-0.8c-0.7,0.6-1.5,1.3-2.2,1.9c0.3,0.2,0.6,0.5,0.9,0.7c0.6-0.8,1.2-1.7,1.7-2.6c0.3-0.4-0.2-1.1-0.7-0.9
					c-0.9,0.4-1.5,0.9-2.3,1.5c0.3,0.2,0.6,0.5,0.9,0.7c0.4-0.6,0.8-1.1,1-1.8c0.1-0.3-0.1-0.5-0.3-0.7c-1.6-1.2-5,1.6-5.7,3
					c-0.1,0.2-0.1,0.4,0,0.6c1.5,2.1,4.4-0.6,5.1-2.2c0.2-0.4-0.3-0.9-0.7-0.7c-1.6,0.6-2.7,1.6-3.3,3.2c-0.3,0.7,0.9,1,1.2,0.3
					c0.3-0.7,1.5-3.9-0.2-4.2c-1.7-0.2-2.7,3.5-3,4.5c-0.2,0.7,0.7,1.1,1.1,0.5c0.5-0.9,0.8-1.7,1-2.7c0.1-0.6-0.7-1.1-1.1-0.5
					c-1.3,2.2-2.5,4.5-3.4,6.8c0.4,0.1,0.8,0.1,1.2,0.2c0-0.5,0-0.9-0.1-1.4c-0.1-0.7-0.9-0.8-1.2-0.2c-0.3,0.7-0.2,0.7-0.1,1.5
					c0.1,0.7,1.1,0.5,1.2-0.2c0.1-0.4,0-0.8,0-1.2c0-0.4-0.4-0.7-0.8-0.6c-0.4,0.1-0.5,0.2-0.7,0.5C71.7,51,72.7,51.6,73,50.9
					L73,50.9z"/>
			</g>
		</g>
		<g>
			<g>
				<path class="st0" d="M79,38.9c0.1-0.7,0.1-1.3,0.2-2c0.1-0.7-1.1-0.8-1.2-0.2c0,0.5-0.2,0.9-0.6,1.3c0.4,0.1,0.7,0.2,1.1,0.3
					c0-1,1-1.8,1.1-2.9c0-0.5-0.7-0.8-1-0.4c-0.2,0.3-0.5,0.6-0.7,0.8c-0.5,0.6,0.3,1.4,0.8,0.8c1.1-1.2,2.2-2.8,3.6-3.7
					c1.8-1.2,4.8-0.5,6.8,0c0.7,0.2,1.1-1,0.3-1.2c-2-0.5-4.6-1.2-6.7-0.5c-2,0.7-3.5,2.9-4.8,4.4c0.3,0.3,0.6,0.6,0.8,0.8
					c0.2-0.3,0.5-0.6,0.7-0.8c-0.3-0.1-0.7-0.3-1-0.4c-0.1,1.1-1.1,1.7-1.1,2.9c0,0.6,0.8,0.8,1.1,0.3c0.4-0.5,0.6-0.9,0.7-1.6
					C78.8,37,78.4,37,78,36.9c-0.1,0.7-0.1,1.3-0.2,2C77.7,39.6,78.9,39.6,79,38.9L79,38.9z"/>
			</g>
		</g>
		<g>
			<g>
				<path class="st0" d="M81.9,38.3c0.4-1.1,1-1.8,2-2.3c-0.3-0.2-0.6-0.5-0.9-0.7c-0.2,0.6-0.5,1.2-0.9,1.6
					c-0.4-0.2-0.3-0.5,0.5-0.9c0.3-0.2,0.5-0.5,0.8-0.7c-0.6-0.1-0.9,0.2-1.1,1c-0.3,0.3-0.6,0.5-0.9,0.7c-0.5,0.4-0.5,0,0.2-1.1
					c-0.5,0.2-0.9,0.5-1.2,1c0.1-0.6-0.2-0.5-0.7,0.2c0.2,0.1,0.4,0.3,0.6,0.4c0.3-0.7,0.9-1.2,1.6-1.4c-0.2-0.2-0.5-0.5-0.7-0.7
					c-0.1,0.8-0.4,1.4-0.9,2c0.3,0,0.6,0.1,0.9,0.1c-0.2-0.2,0.4-1.3,0.6-1.5c0.1-0.1,1.2-1.7,0.7-1c-0.5,0.8,0.3-0.4,0.3-0.3
					c0.3,0,0.2,0.1-0.2,0.4c-0.3,0.5-0.4,0.5-0.3,0c-0.2-0.1-0.4-0.3-0.6-0.4c0.1,0.7-2.1,1.5-2.6,1.7c0.3,0.2,0.6,0.3,0.9,0.5
					c0.1-1.1,2.1-2.6,2.9-3c1.2-0.5,2.4-0.2,3.6-0.1c0-0.4,0-0.8,0-1.2c-1.3,0.1-2.5,0.1-3.8,0c0,0.4,0,0.8,0,1.2
					c1.9,0.2,3.8,0.4,5.7,0.5c0.7,0.1,0.8-1.1,0.2-1.2c-1.3-0.2-2.7-0.4-4-0.6c-0.1,0.4-0.1,0.8-0.2,1.2c1.4,0.2,2.7,0.4,4,0.8
					c0.1-0.4,0.1-0.8,0.2-1.2c-1.3,0.1-2.4,0-3.6-0.6c0.1,0.3,0.1,0.5,0.2,0.8c0.5-0.7,3-0.2,3.7-0.1c0.4,0.1,0.7-0.2,0.8-0.6
					c0.1-0.6-0.2-1-0.8-1.1c-0.6-0.1-1,0.6-0.6,1c0.2,0.2-4,3-4.4,3.2c0.3,0.2,0.6,0.5,0.9,0.7c0.3-1.1,0.9-2,1.8-2.8
					c-0.3-0.2-0.7-0.4-1-0.6c-0.2,1.2-0.6,2.2-1.3,3.1c0.3-0.1,0.5-0.1,0.8-0.2c0.4-0.6,0.5-1.1,0.3-1.7c-0.2,0.5-0.4,0.9-0.6,1.3
					c-0.1,0,1.1-2.1,0.4,0.1c-0.8,2.5-0.4,0,0-0.6c0.4-0.7,1-1.3,1.5-1.9c0.5-0.6-0.6-1.2-1-0.6c-0.9,1.2-3.2,3.3-1.7,5
					c0.9,1,1.8-0.1,2.2-1c0.4-0.9,0.8-3.4-0.8-3.2c-1.5,0.1-2.3,2.6-2,3.8c0.1,0.2,0.2,0.4,0.4,0.4c1.5,0.3,4-3.3,2.3-4.2
					c-1.5-0.9-3.1,3-1.6,3.8c0.3,0.2,0.6,0.1,0.8-0.2c0.8-1.1,1.2-2.1,1.4-3.4c0.1-0.6-0.5-1-1-0.6c-1,0.9-1.7,2-2.1,3.3
					c-0.1,0.5,0.4,1,0.9,0.7c1.4-1,3.5-1.9,4.6-3.2c0.6-0.7,0.6-1.3,0-2c-0.2,0.3-0.4,0.7-0.6,1c0,0,0,0-0.1,0
					c0.3-0.2,0.5-0.4,0.8-0.6c-1.5-0.3-4-0.8-5,0.6c-0.2,0.2-0.1,0.7,0.2,0.8c1.4,0.7,2.7,0.9,4.2,0.7c0.6-0.1,0.9-1,0.2-1.2
					c-1.4-0.3-2.9-0.6-4.3-0.8c-0.7-0.1-0.8,1.1-0.2,1.2c1.3,0.2,2.7,0.4,4,0.6c0.1-0.4,0.1-0.8,0.2-1.2c-1.9-0.2-3.8-0.4-5.7-0.5
					c-0.8-0.1-0.8,1.1,0,1.2c1.3,0.1,2.5,0.1,3.8,0c0.8-0.1,0.8-1.2,0-1.2c-2-0.1-3.4-0.5-5.2,0.8c-1,0.8-2.4,2.1-2.6,3.5
					c0,0.5,0.5,0.7,0.9,0.5c1.2-0.6,3.5-1.3,3.2-3C83,34.1,82.7,34,82.5,34c-1.6-0.2-2.6,2.3-0.9,3c1.6,0.7,3.4-2,2.8-3.3
					c-0.1-0.2-0.3-0.3-0.5-0.3c-1.3-0.2-4.2,1.9-2.7,3.3c1.4,1.3,3.2-1.6,3-2.9c0-0.2-0.2-0.4-0.4-0.4c-1.7-0.3-4.3,3.3-3.3,4.8
					c0.2,0.3,0.7,0.4,0.9,0.1c0.6-0.8,1-1.5,1.2-2.6c0.1-0.4-0.3-0.9-0.7-0.7c-1,0.4-3,1.5-2.4,2.9c0.1,0.3,0.3,0.4,0.6,0.4
					c1.1,0.1,2.8-1,2.5-2.2c-0.2-1.2-1.6-1-2.4-0.5c-0.8,0.5-1.6,1.7-0.7,2.5c1.1,1,3-0.7,3.4-1.7c1.3-2.7-3.8-1.6-3,1
					c0.8,2.9,5.1-0.7,4.6-2.8c0-0.2-0.2-0.4-0.4-0.4c-1.4-0.4-4.1,2.6-3.3,4c1.2,2,3.4-1.7,3.7-2.6c0.2-0.5-0.4-0.9-0.9-0.7
					c-1.3,0.7-2.1,1.7-2.6,3.1C80.5,38.7,81.7,39,81.9,38.3L81.9,38.3z"/>
			</g>
		</g>
		<g>
			<g>
				<path class="st0" d="M87.6,33.4c0.2-1.1,0.7-1.8,1.6-2.2c0.6-0.3,0.2-1.3-0.5-1.1c-0.7,0.3-0.7,0.2-1.3,0.7
					c-0.6,0.4-0.1,1.5,0.6,1c4-2.5,8.8-2.5,12.8,0.1c0.6,0.4,1.2-0.6,0.6-1c-4.3-2.8-9.6-2.9-14-0.1c0.2,0.3,0.4,0.7,0.6,1
					c0.4-0.2,0.7-0.4,1.1-0.5c-0.2-0.4-0.3-0.7-0.5-1.1c-1.5,0.8-2.5,1.8-2.1,3.6C86.6,34.5,87.8,34.1,87.6,33.4L87.6,33.4z"/>
			</g>
		</g>
		<g>
			<g>
				<path class="st0" d="M101.1,29c-0.5-0.5-1.1-1-1.6-1.5c-0.2-0.6-0.9-0.6-1.2,0c-0.4,1-0.4,1.4,0.2,2.2c0.4,0.5,1.3-0.2,0.9-0.7
					c-1.2-2.2,3.5-3.1,4.4-3.1c1.4,0,2.6,0.4,3.8,1.1c0.7,0.4,1.2-0.6,0.6-1c-0.8-0.5-1.5-0.9-2.4-1.3c-0.6-0.3-1.1,0.8-0.5,1.1
					c2.6,1.1,3.4,3.5,5.4,5.2c0.5,0.4,1.3-0.1,0.9-0.7c-0.7-1.3-1.5-2.6-2.2-3.8c-0.3,0.2-0.6,0.5-0.9,0.7c1.2,1.2,2.3,2.4,3.4,3.7
					c0.3-0.3,0.6-0.6,0.8-0.8c-0.9-0.7-1.8-1.5-2.7-2.4c-0.5-0.5-1.3,0.1-0.9,0.7c0.8,1.3,1.7,2.5,2.6,3.7c0.3-0.3,0.5-0.5,0.8-0.8
					c-0.6-0.4-1.1-0.9-1.7-1.3c-0.3,0.3-0.5,0.5-0.8,0.8c0.8,0.6,1.6,1.2,2.2,2c0.3-0.3,0.6-0.6,0.8-0.8c-0.6-0.5-1.2-1-1.6-1.7
					c-0.3,0.3-0.5,0.5-0.8,0.8c0.9,0.4,1.6,1,2.3,1.7c0.5,0.6,1.4-0.3,0.8-0.8c-0.8-0.8-1.5-1.4-2.5-1.9c-0.5-0.2-1.2,0.3-0.8,0.8
					c0.5,0.8,1,1.3,1.8,1.9c0.6,0.5,1.4-0.3,0.8-0.8c-0.8-0.8-1.6-1.5-2.5-2.2c-0.5-0.4-1.2,0.3-0.8,0.8c0.6,0.8,1.2,1.3,2.1,1.7
					c0.5,0.2,1.2-0.3,0.8-0.8c-0.9-1.2-1.8-2.4-2.6-3.7c-0.3,0.2-0.6,0.5-0.9,0.7c0.9,0.8,1.7,1.6,2.7,2.4c0.6,0.5,1.3-0.2,0.8-0.8
					c-1-1.3-2.2-2.6-3.4-3.7c-0.5-0.5-1.3,0.1-0.9,0.7c0.8,1.3,1.5,2.5,2.2,3.8c0.3-0.2,0.6-0.5,0.9-0.7c-2.2-1.9-2.7-4.2-5.6-5.4
					c-0.2,0.4-0.3,0.7-0.5,1.1c0.8,0.3,1.5,0.7,2.1,1.2c0.2-0.3,0.4-0.7,0.6-1c-2.3-1.3-4.9-1.7-7.3-0.7c-1.9,0.8-3.7,2.2-2.5,4.3
					c0.3-0.2,0.6-0.5,0.9-0.7c0-0.3,0.1-0.7,0.1-1c-0.4,0-0.8,0-1.2,0c0.5,1.3,1.2,1.9,2.5,2.4C101.6,30.4,101.9,29.2,101.1,29
					L101.1,29z"/>
			</g>
		</g>
		<g>
			<g>
				<path class="st0" d="M102.1,30.6c-1.1-1.2-0.8-1.7,0.9-1.4c0.3,1-0.3,1.4-1.8,1.1c-0.1-1.9,0.4-2.1,1.5-0.6
					c-0.7,0.9-1.5,1-2.3,0.1c0.8-0.7,1-0.7,0.4-0.3c-0.4,0.1-0.5,0-0.5-0.3c0.1-0.5,0.3-0.9,0.6-1.3c0.2-0.7,0.2-0.7-0.1-0.2
					c0.3-0.2,0.4-0.7,0.1-0.9c0,0,0,0,0,0c-0.2-0.2-0.6-0.3-0.8,0c0,0,0,0,0,0c-0.3,0.3-0.2,0.9,0.3,1c0.5,0.2,1.2-0.1,1.7-0.2
					c1-0.2,2.1-0.4,3.1-0.6c-0.2-0.4-0.3-0.7-0.5-1.1c-0.9,0.4-1.9,0.4-2.9,0.4c-0.7,0-0.8,1.1-0.2,1.2c1.6,0.3,3.4-0.4,4.9,0.3
					c0.1-0.4,0.1-0.8,0.2-1.2c-1.5,0-2.9-0.2-4.3-0.5c0,0.4,0,0.8,0,1.2c1.6-0.2,3.1-0.4,4.7,0.2c0.1-0.4,0.1-0.8,0.2-1.2
					c-1,0.1-1.9,0-2.8-0.3c-0.1,0.4-0.1,0.8-0.2,1.2c1.1,0,2.2,0.1,3.3,0.3c0-0.4,0-0.8,0-1.2c-2,0.3-4.4-0.3-6.4-0.5
					c0.1,0.4,0.1,0.8,0.2,1.2c1.9-0.7,3.8-0.6,5.6,0.2c0.1-0.4,0.2-0.7,0.3-1.1c-1,0-3.6-0.5-4.3,0.6c-0.7,1.2,1.1,1.7,1.8,2
					c0.7,0.3,1.3-0.7,0.6-1c-0.3-0.1-0.5-0.3-0.8-0.4c-0.5-0.2-0.4-0.1,0,0c0.9,0.1,1.8,0,2.6,0c0.6,0,0.9-0.9,0.3-1.1
					c-2.1-1-4.3-1.1-6.5-0.3c-0.7,0.2-0.5,1.1,0.2,1.2c2.1,0.2,4.6,0.9,6.7,0.5c0.6-0.1,0.6-1,0-1.2c-1.2-0.2-2.4-0.4-3.6-0.4
					c-0.7,0-0.8,1-0.2,1.2c1,0.4,2,0.5,3.1,0.4c0.7-0.1,0.8-0.9,0.2-1.2c-1.7-0.7-3.5-0.5-5.3-0.2c-0.6,0.1-0.5,1,0,1.2
					c1.5,0.4,3,0.6,4.6,0.6c0.7,0,0.8-0.9,0.2-1.2c-1.6-0.7-3.3,0-4.9-0.3c-0.1,0.4-0.1,0.8-0.2,1.2c1.3,0,2.3,0,3.5-0.5
					c0.6-0.3,0.2-1.2-0.5-1.1c-0.7,0.2-1.4,0.3-2.2,0.4c-0.5,0.1-1.5,0.5-2,0.3c0.1,0.3,0.2,0.7,0.3,1c0,0,0,0,0,0
					c-0.3,0-0.6,0-0.8,0c0,0,0,0,0,0c0-0.3,0.1-0.6,0.1-0.9c-0.8,0.6-1.8,1.7-0.9,2.7c0.9,0.9,2.3,0.2,2.7-0.8
					c0.3-0.7,0.4-1.8-0.4-2.2c-1.3-0.7-2.3,1.6-2.5,2.5c-0.8,3.1,3.2,2,2.9-0.4c-0.1-0.9-1.2-1.7-2.1-1.2c-0.9,0.6-0.9,2.5-0.2,3.2
					c1.5,1.6,4.3-2.5,2-3.6c-2.5-1.1-3.8,3.3-1.3,4.4c2.4,1,5.1-2.5,2.8-4.1c-2.4-1.7-4.3,2.7-2.7,4.4c2.3,2.5,5.2-2.4,2.6-4.2
					c-2.7-1.9-4.6,4.3-1.2,4.3C102.9,31.8,102.9,30.6,102.1,30.6L102.1,30.6z"/>
			</g>
		</g>
		<g>
			<g>
				<path class="st0" d="M114.5,33.9c-0.1-0.7,1.2-1.6,1.6-2.1c0.4-0.5-0.3-1.1-0.8-0.8c-0.4,0.2-0.8,0.4-1.2,0.6
					c0.2,0.3,0.4,0.7,0.6,1c0.7-0.5,1.4-1,2.2-1.4c0.4-0.2,0.8-0.3,0.9-0.8c0.1-0.2-0.1-0.6-0.3-0.7c0,0-0.1,0-0.1-0.1
					c-0.3-0.2-0.7-0.1-0.8,0.2c-0.3,0.5-0.1,0.9,0.3,1.2c0.6,0.4,1.2,0.4,1.7,0.9c0.6,0.5,1,1.2,1.4,1.9c0.4,0.7,1.4,0.1,1-0.6
					c-0.5-1-1.1-1.9-1.8-2.8c-0.3,0.2-0.6,0.5-0.9,0.7c1,1,2,2,2.1,3.4c0.4-0.1,0.7-0.2,1.1-0.3c-1.2-2.5-3.8-4.6-6.7-3.5
					c-0.5,0.2-0.6,1,0,1.2c1.3,0.3,2.6-0.1,3.8,0.4c0-0.4,0-0.8,0-1.2c-0.8,0.3-1.6,0.4-2.5,0.4c0,0.4,0,0.8,0,1.2
					c0.9,0,1.8,0.2,2.6,0.6c0.1-0.4,0.2-0.7,0.3-1.1c-0.6,0-1-0.1-1.4-0.5c-0.1,0.4-0.2,0.7-0.3,1.1c0.8,0,1.5,0.2,2.3,0.6
					c0.1-0.4,0.2-0.7,0.3-1.1c-0.3,0-0.6-0.1-0.9-0.1c-0.7-0.3-1.3,0.7-0.6,1c0.5,0.2,1,0.3,1.6,0.3c0.6,0,0.9-0.8,0.3-1.1
					c-0.9-0.5-1.9-0.7-2.9-0.8c-0.6,0-0.8,0.8-0.3,1.1c0.7,0.4,1.2,0.6,2,0.6c0.6,0,0.9-0.9,0.3-1.1c-1.1-0.5-2.1-0.7-3.2-0.8
					c-0.8,0-0.8,1.2,0,1.2c1,0.1,1.9-0.1,2.8-0.4c0.6-0.2,0.5-0.9,0-1.2c-1.2-0.5-2.5,0-3.8-0.4c0,0.4,0,0.8,0,1.2
					c2.4-1,4.3,0.9,5.3,2.9c0.3,0.5,1.2,0.3,1.1-0.3c-0.1-1.8-1.2-3.1-2.5-4.3c-0.5-0.5-1.4,0.2-0.9,0.7c0.7,0.9,1.3,1.9,1.8,2.8
					c0.3-0.2,0.7-0.4,1-0.6c-1-1.7-2-2.6-3.8-3.3c0.1,0.1,0.3,0.3,0.4,0.4c0,0.1,0,0.1,0,0.2c-0.3,0.1-0.5,0.1-0.8,0.2
					c0,0,0.1,0,0.1,0.1c-0.1-0.2-0.2-0.5-0.3-0.7c0-0.1-1.1,0.5-1.2,0.6c-0.5,0.3-0.9,0.6-1.4,1c-0.6,0.5-0.1,1.4,0.6,1
					c0.4-0.2,0.8-0.4,1.2-0.6c-0.3-0.3-0.5-0.5-0.8-0.8c-0.8,1.1-2,1.5-1.7,3.1C113.5,34.9,114.7,34.6,114.5,33.9L114.5,33.9z"/>
			</g>
		</g>
		<g>
			<g>
				<path class="st0" d="M116,31.2c0.4,0.2,0.4,0.1,0.8-0.2c0.2-0.1,0.5-0.3,0.8-0.4c0.5-0.2,1-0.2,1.5,0c0.7,0.4,1.3-0.7,0.6-1
					c-1.2-0.7-2.5-0.2-3.6,0.4c-0.5,0.3-1,0.6-1.1,1.2c-0.1,0.5,0.2,0.9,0.7,1.1C116.4,32.7,116.8,31.5,116,31.2L116,31.2z"/>
			</g>
		</g>
		<g>
			<g>
				<path class="st0" d="M120.9,36.8c0.3-0.1,1.5,0.9,1.6,1c0.5,0.4,0.9,0.9,1.2,1.3c0.4,0.6,1.2-0.2,0.9-0.7
					c-0.6-1.2-1.4-2.1-2.5-2.8c-0.6-0.4-1.2,0.5-0.7,0.9c1.2,1.1,2.3,2.3,2.8,3.8c0.3-0.2,0.7-0.4,1-0.6c-1.7-1.9-3.4-3.7-5.4-5.4
					c-0.2,0.3-0.4,0.7-0.6,1c1.1,0.4,2,1.1,2.8,2c0.3-0.3,0.6-0.6,0.8-0.8c-0.9-0.8-1.7-1.7-2.4-2.8c-0.3,0.3-0.5,0.5-0.8,0.8
					c0.6,0.5,1.3,1,1.9,1.4c0.4,0.3,1-0.2,0.9-0.7c-0.1-0.5-0.3-0.9-0.6-1.4c-0.3,0.3-0.5,0.5-0.8,0.8c0.4,0.2,0.6,0.4,0.7,0.8
					c0.3-0.2,0.7-0.4,1-0.6c-0.2-0.3-0.5-0.5-0.7-0.8c-0.2,0.3-0.5,0.6-0.7,0.9c0.4,0.3,0.7,0.5,1.1,0.8c0.6,0.5,1.2-0.6,0.6-1
					c-0.7-0.5-1.4-1.1-2.1-1.6c-0.2,0.4-0.3,0.7-0.5,1.1c0.8,0.2,1.3,0.5,1.8,1.1c0.4,0.6,1.5,0,1-0.6c-0.6-0.9-1.4-1.5-2.5-1.7
					c-0.7-0.1-1,0.7-0.5,1.1c0.7,0.5,1.4,1.1,2.1,1.6c0.2-0.3,0.4-0.7,0.6-1c-0.4-0.3-0.7-0.5-1.1-0.8c-0.6-0.4-1.2,0.5-0.7,0.9
					c0.2,0.3,0.5,0.5,0.7,0.8c0.4,0.4,1.2,0,1-0.6c-0.2-0.7-0.6-1.2-1.3-1.5c-0.5-0.3-1.2,0.3-0.8,0.8c0.2,0.4,0.4,0.7,0.5,1.1
					c0.3-0.2,0.6-0.5,0.9-0.7c-0.6-0.5-1.3-1-1.9-1.4c-0.5-0.4-1.2,0.3-0.8,0.8c0.8,1.1,1.6,2.1,2.6,3c0.6,0.5,1.3-0.3,0.8-0.8
					c-0.9-1.1-2-1.8-3.3-2.3c-0.6-0.2-1,0.6-0.6,1c1.9,1.7,3.7,3.5,5.4,5.4c0.4,0.5,1.2,0,1-0.6c-0.5-1.8-1.8-3.1-3.1-4.4
					c-0.2,0.3-0.5,0.6-0.7,0.9c0.9,0.6,1.6,1.4,2.1,2.4c0.3-0.2,0.6-0.5,0.9-0.7c-0.9-1.1-2.7-3.3-4.3-2.6
					C119.6,36,120.2,37.1,120.9,36.8L120.9,36.8z"/>
			</g>
		</g>
		<g>
			<g>
				<path class="st0" d="M124.8,44.8c-0.7-0.6-1.2-1.2-1.5-2.1c-0.3,0.2-0.6,0.5-0.9,0.7c1.5,0.7,2.5,1.7,3.1,3.2
					c0.3-0.2,0.6-0.5,0.9-0.7c-1.2-1.3-1.9-2.7-2.3-4.4c-0.4,0.2-0.7,0.3-1.1,0.5c1,1.3,1.8,2.6,2.4,4c0.1-0.3,0.2-0.6,0.4-0.9
					c-2.7,0.4-4.5-0.3-6.7-1.8c-0.6-0.4-1.2,0.5-0.7,0.9c0.6,0.7,1.1,1,1.9,1.2c0.6,0.2,1.1-0.8,0.5-1.1c-1.3-0.6-1.5-2.3-2.5-3.3
					c-0.4-0.4-1.2,0-1,0.6c0.2,0.8,0.5,1.5,0.9,2.2c0.3-0.2,0.6-0.5,0.9-0.7c-0.3-0.3-0.7-0.7-1-1c-0.6-0.5-1.3,0.3-0.8,0.8
					c0.1,0.2,0.3,0.3,0.4,0.5c0.4,0.5,1.3-0.2,0.9-0.7c-0.8-1.3-1.7-2.5-2.9-3.6c-0.2,0.3-0.5,0.6-0.7,0.9c2.4,1.4,4.4,3.2,6.1,5.5
					c0.3-0.2,0.6-0.5,0.9-0.7c-1.2-1-2.3-2.1-3.3-3.4c-0.3,0.3-0.5,0.5-0.8,0.8c1.9,1.1,3.6,2.4,5.3,3.8c0.2-0.3,0.5-0.6,0.7-0.9
					c-1.2-0.6-2.2-1.4-3.2-2.3c-0.2,0.3-0.5,0.6-0.7,0.9c1.7,0.8,3.1,1.8,4.5,3c0.2-0.3,0.5-0.6,0.7-0.9c-0.7-0.3-1.2-0.8-1.6-1.4
					c-0.3,0.3-0.5,0.5-0.8,0.8c1,0.5,1.8,1,2.5,1.8c0.4,0.4,1.2,0,1-0.6c-0.1-0.2-0.1-0.5-0.2-0.7c-0.3,0.2-0.6,0.5-0.9,0.7
					c0.5,0.3,0.9,0.6,1.5,0.6c0.3,0,0.6-0.3,0.6-0.6c0,0,0-0.1,0-0.1c0-0.3-0.2-0.6-0.6-0.6c0,0,0,0-0.1,0c-0.5,0-0.7,0.5-0.5,0.9
					c0,0.3,0.1,0.7,0.1,1c0.3-0.1,0.6-0.2,0.9-0.4c-0.2-0.1-0.3-0.2-0.5-0.3c-0.6-0.4-1.2,0.6-0.6,1c0.2,0.1,0.3,0.2,0.5,0.3
					c0.3,0.2,0.8,0,0.9-0.4c0.2-0.7,0.1-1.2-0.2-1.9c-0.2,0.3-0.3,0.6-0.5,0.9c0,0,0,0,0.1,0c-0.2-0.2-0.4-0.4-0.6-0.6
					c0,0,0,0.1,0,0.1c0.2-0.2,0.4-0.4,0.6-0.6c-0.3-0.1-0.6-0.3-0.9-0.4c-0.5-0.2-1,0.1-0.9,0.7c0.1,0.2,0.1,0.5,0.2,0.7
					c0.3-0.2,0.7-0.4,1-0.6c-0.8-0.9-1.7-1.5-2.8-2c-0.5-0.2-1.2,0.3-0.8,0.8c0.6,0.8,1.2,1.4,2.1,1.8c0.6,0.3,1.3-0.5,0.7-0.9
					c-1.5-1.3-3-2.4-4.8-3.2c-0.6-0.3-1.3,0.5-0.7,0.9c1.1,1,2.2,1.8,3.4,2.5c0.6,0.3,1.3-0.5,0.7-0.9c-1.7-1.5-3.5-2.9-5.5-4
					c-0.5-0.3-1.2,0.3-0.8,0.8c1,1.4,2.2,2.6,3.5,3.6c0.5,0.4,1.4-0.1,0.9-0.7c-1.8-2.4-3.9-4.4-6.5-5.9c-0.6-0.3-1.2,0.5-0.7,0.9
					c1,1,1.9,2.1,2.7,3.3c0.3-0.2,0.6-0.5,0.9-0.7c-0.1-0.2-0.3-0.3-0.4-0.5c-0.3,0.3-0.6,0.6-0.8,0.8c0.3,0.3,0.7,0.7,1,1
					c0.5,0.5,1.3-0.1,0.9-0.7c-0.4-0.6-0.6-1.2-0.8-1.9c-0.3,0.2-0.7,0.4-1,0.6c1.1,1.1,1.2,2.8,2.8,3.5c0.2-0.4,0.3-0.7,0.5-1.1
					c-0.5-0.3-0.9-0.6-1.4-0.9c-0.2,0.3-0.5,0.6-0.7,0.9c2.6,1.7,4.6,2.3,7.6,1.9c0.4-0.1,0.5-0.6,0.4-0.9c-0.7-1.4-1.4-2.7-2.4-4
					c-0.4-0.5-1.2-0.2-1.1,0.5c0.4,1.9,1.2,3.5,2.6,4.9c0.5,0.5,1.2-0.1,0.9-0.7c-0.7-1.7-1.9-2.8-3.6-3.6c-0.4-0.2-1.1,0.1-0.9,0.7
					c0.4,1.1,0.9,1.9,1.9,2.6C124.5,46.1,125.4,45.2,124.8,44.8L124.8,44.8z"/>
			</g>
		</g>
		<g>
			<g>
				<path class="st0" d="M123.6,47c-0.2-0.8-0.5-1.4-1.1-2c-0.2,0.3-0.5,0.6-0.7,0.9c0.3,0.1,0.4,0.4,0.4,0.7
					c0.2-0.2,0.5-0.5,0.7-0.7c-1.5-0.3-2.8-1.8-3.9-2.7c-0.6-0.5-1.4,0.3-0.8,0.8c0.6,0.6,1.1,1.2,1.7,1.8c0.1-0.3,0.2-0.7,0.3-1
					c-0.3,0-0.5-0.1-0.6-0.4c-0.2-0.7-1.4-0.4-1.2,0.3c0.3,1,1.1,1.4,2.1,1.3c0.5-0.1,0.5-0.7,0.3-1c-0.6-0.6-1.1-1.2-1.7-1.8
					c-0.3,0.3-0.6,0.6-0.8,0.8c1.3,1.1,2.7,2.6,4.4,3c0.5,0.1,0.8-0.3,0.7-0.7c-0.1-0.6-0.4-1-1-1.4c-0.6-0.4-1.2,0.5-0.7,0.9
					c0.4,0.4,0.6,0.9,0.8,1.5C122.6,48,123.7,47.7,123.6,47L123.6,47z"/>
			</g>
		</g>
		<g>
			<g>
				<path class="st0" d="M93.5,44.7c-0.6,0.5-1.1,0.7-1.8,0.9c0.1,0.4,0.2,0.8,0.3,1.2c1.7-0.5,3-1.6,3.9-3.2
					c-0.4-0.1-0.7-0.2-1.1-0.3c-0.1,0.6-0.3,1.1-0.7,1.4c-0.5,0.6,0.3,1.4,0.8,0.8c0.7-0.7,1.4-1.6,1.9-2.5c0.3-0.6,0.9-3,1.7-2.9
					c-0.1-0.4-0.2-0.7-0.3-1.1c-1,0.6-1.9,1.2-2.5,2.1C94.9,42.3,94.3,43.6,93.5,44.7c0.3,0.2,0.6,0.4,1,0.6c0.3-1.6,0.7-3.3,1-4.9
					c-0.4,0-0.8,0-1.2,0c0.1,0.7,0.2,1.5,0.3,2.2c0.1,0.6,1,0.5,1.2,0c0.2-0.6,0.5-1.1,0.8-1.7c-0.4,0-0.7-0.1-1.1-0.1
					c0,0.2-0.1,0.3-0.1,0.5c0.4,0,0.7,0.1,1.1,0.1c-0.2-0.6,2.1-2.8,2.7-2.7c0.8,0.1,1.1-1,0.3-1.2c-1.2-0.2-1.8,0.5-2.6,1.3
					c-0.7,0.8-1.9,1.7-1.5,2.9c0.2,0.5,0.8,0.6,1.1,0.1c0.3-0.5,0.4-0.9,0.3-1.4c-0.1-0.5-0.8-0.6-1.1-0.1c-0.4,0.6-0.7,1.3-1,2
					c0.4,0,0.8,0,1.2,0c-0.1-0.7-0.2-1.5-0.3-2.2c-0.1-0.6-1-0.6-1.2,0c-0.3,1.6-0.7,3.3-1,4.9c-0.1,0.5,0.6,1.1,1,0.6
					c0.6-0.8,1.2-1.5,1.7-2.4c0.8-1.4,1.4-2.3,2.9-3.1c0.5-0.3,0.3-1.1-0.3-1.1c-0.9-0.1-1.5,0.5-1.8,1.3c-0.7,1.7-1.3,3.1-2.6,4.4
					c0.3,0.3,0.6,0.6,0.8,0.8c0.6-0.7,1.1-1.3,1.1-2.3c0-0.6-0.8-0.8-1.1-0.3c-0.7,1.3-1.8,2.2-3.2,2.6c-0.7,0.2-0.4,1.4,0.3,1.2
					c0.9-0.3,1.6-0.6,2.3-1.2C94.9,45.1,94,44.2,93.5,44.7L93.5,44.7z"/>
			</g>
		</g>
		<g>
			<g>
				<path class="st0" d="M85.4,44.1c0.6-0.1,1.2-0.2,1.7-0.4c-0.2-0.4-0.3-0.7-0.5-1.1c-0.5,0.2-0.9,0.5-1.4,0.7
					c-0.6,0.3-0.2,1.2,0.5,1.1c1-0.2,2.1-0.5,3.1-0.7c-0.1-0.4-0.2-0.8-0.3-1.2c-0.7,0.1-1.4,0.3-2.1,0.7c-0.7,0.3-0.4,1.4,0.3,1.2
					c2.9-0.9,5.6-2,8.3-3.5c-0.2-0.3-0.4-0.7-0.6-1c-1.6,1.3-3.3,2-5.4,2.4c0.1,0.4,0.2,0.8,0.3,1.2c2.8-1,5.4-2.3,8-3.8
					c-0.3-0.2-0.6-0.5-0.9-0.7c-0.2,0.4-0.3,0.8-0.5,1.2c-0.2,0.5,0.5,1,0.9,0.7c2.4-1.7,4.6-3.2,8-2.4c0-0.4,0-0.8,0-1.2
					c-1.6,0.4-3.3,0.7-5,0.7c0.1,0.4,0.2,0.7,0.3,1.1c2,0.1,3.9,0.3,5.9,0.4c0.2-0.4,0.3-0.7,0.5-1.1c-1.2-0.3-2.3-0.6-3.5-0.9
					c-0.1,0.4-0.1,0.8-0.2,1.2c2,0,3.2,1.5,5,1.8c2.5,0.4,3.8-1.4,7.2-0.9c0.7,0.1,1.1-0.9,0.3-1.2c-3.2-1-6.2-1.1-9.5-0.5
					c-0.7,0.1-0.5,1.2,0.2,1.2c1.3-0.1,2.7-0.3,4-0.4c0.8-0.1,0.8-1.3,0-1.2c-1.3,0.2-2.6,0.2-3.9,0.1c-0.7,0-0.8,0.9-0.2,1.2
					c0.7,0.3,1.4,0.6,2.2,0.7c0.8,0.2,1-0.9,0.3-1.2c-0.5-0.2-1-0.3-1.5-0.5c-0.1,0.4-0.2,0.8-0.3,1.2c0.7,0,1.3,0.2,2,0.5
					c0.6,0.2,1.1-0.8,0.5-1.1c-0.7-0.3-1.3-0.6-1.8-1.1c-0.1,0.4-0.2,0.7-0.3,1.1c0.7,0,1.4,0,2.1,0c0-0.4,0-0.8,0-1.2
					c-0.2,0-0.5,0.1-0.7,0.1c-0.7,0.1-0.5,1.1,0.2,1.2c0.7,0.1,1.4,0.1,2.1,0.1c0.8,0,0.8-1.2,0-1.2c-0.7,0.1-1.4,0-2.1-0.1
					c0.1,0.4,0.1,0.8,0.2,1.2c0.2,0,0.5-0.1,0.7-0.1c0.6-0.1,0.6-1.1,0-1.2c-1.4-0.2-1-0.2-2.4-0.1c-0.6,0.1-0.8,0.8-0.3,1.1
					c0.6,0.5,1.2,0.8,1.8,1.1c0.2-0.4,0.3-0.7,0.5-1.1c-0.6-0.3-1.3-0.5-2-0.5c-0.8-0.1-1.1,0.9-0.3,1.2c0.5,0.2,1,0.3,1.5,0.5
					c0.1-0.4,0.2-0.8,0.3-1.2c-0.8-0.1-1.5-0.4-2.2-0.7c-0.1,0.4-0.1,0.8-0.2,1.2c1.3,0.1,2.6,0.1,3.9-0.1c0-0.4,0-0.8,0-1.2
					c-1.3,0.1-2.7,0.3-4,0.4c0.1,0.4,0.1,0.8,0.2,1.2c3.1-0.6,5.8-0.4,8.8,0.5c0.1-0.4,0.2-0.8,0.3-1.2c-2.6-0.4-5.6,1.1-7.9,0.5
					c-1.7-0.4-2.5-1.5-4.5-1.5c-0.7,0-0.8,1-0.2,1.2c1.2,0.3,2.3,0.6,3.5,0.9c0.7,0.2,1-0.7,0.5-1.1c-2.4-1.6-4.5-1.7-7.1-0.4
					c-0.5,0.3-0.3,1.2,0.3,1.1c1.8-0.1,3.6-0.4,5.4-0.8c0.6-0.1,0.6-1,0-1.2c-3.5-0.7-6,0.6-8.9,2.6c0.3,0.2,0.6,0.5,0.9,0.7
					c0.2-0.4,0.3-0.8,0.5-1.2c0.2-0.5-0.5-0.9-0.9-0.7c-2.5,1.5-5,2.7-7.7,3.7c-0.7,0.3-0.4,1.3,0.3,1.2c2.3-0.4,3.8-1.1,5.6-2.5
					c0.6-0.5,0.1-1.4-0.6-1c-2.6,1.4-5.2,2.5-8,3.4c0.1,0.4,0.2,0.8,0.3,1.2c0.7-0.3,1.3-0.5,2.1-0.7c0.8-0.2,0.4-1.3-0.3-1.2
					c-1,0.2-2.1,0.5-3.1,0.7c0.2,0.4,0.3,0.7,0.5,1.1c0.5-0.2,0.9-0.5,1.4-0.7c0.6-0.3,0.2-1.2-0.5-1.1c-0.6,0.1-1.2,0.2-1.7,0.4
					C84.4,43.1,84.7,44.3,85.4,44.1L85.4,44.1z"/>
			</g>
		</g>
		<g>
			<g>
				<path class="st0" d="M88.4,43.6c0.6-0.2,1.3-0.4,2-0.4c-0.1-0.3-0.3-0.7-0.4-1c-0.5,0.5-1,0.7-1.6,0.8c-0.6,0.1-0.6,1,0,1.2
					c0.9,0.2,1.5-0.1,2.3-0.5c0.6-0.3,0.2-1.4-0.5-1.1c-0.4,0.2-0.7,0.3-1.1,0.3c0.1,0.4,0.2,0.8,0.3,1.2c1.3-0.3,2.6-0.7,3.8-1
					c0.7-0.2,0.4-1.3-0.3-1.2c-1.3,0.3-2.6,0.7-3.8,1c-0.8,0.2-0.4,1.3,0.3,1.2c0.4-0.1,0.8-0.2,1.1-0.3c-0.2-0.4-0.3-0.7-0.5-1.1
					c-0.4,0.2-0.8,0.5-1.4,0.4c0,0.4,0,0.8,0,1.2c0.8-0.2,1.5-0.5,2.1-1.1c0.3-0.4,0.1-1-0.4-1c-0.8,0-1.5,0.2-2.3,0.5
					C87.4,42.7,87.7,43.8,88.4,43.6L88.4,43.6z"/>
			</g>
		</g>
		<g>
			<g>
				<path class="st0" d="M108.5,39.3c1.1-0.1,2.1-0.3,3.1-0.7c-0.2-0.3-0.4-0.7-0.6-1c-0.5,0.3-0.9,0.5-1.5,0.6
					c0.1,0.4,0.2,0.7,0.3,1.1c1.6-0.7,3.2-0.8,4.9-0.4c0.7,0.2,1.1-1,0.3-1.2c-2-0.5-4-0.3-5.8,0.5c-0.5,0.2-0.3,1.2,0.3,1.1
					c0.8-0.1,1.4-0.3,2.1-0.7c0.6-0.5,0.1-1.3-0.6-1c-0.8,0.3-1.6,0.5-2.5,0.6C107.7,38.1,107.7,39.3,108.5,39.3L108.5,39.3z"/>
			</g>
		</g>
	</g>
	<g>
		<g>
			<path class="st0" d="M107.9,33.7c-0.4-1.3-0.8-2.7-1.3-4c-0.8-0.1-1.6-0.2-2.4-0.3c1.1-0.3,2-0.1,2.7,0.7
				c1.1,0.3,1.5,1.1,1.3,2.2c0.4-0.5,0.7-1,1.1-1.4c-1.2-0.5-1.8-1.4-1.7-2.9c-0.8,0.2-1.7,0.4-2.5,0.7c2,1.5,3.3,3.2,4.3,5.5
				c0.6-0.7,1.1-1.5,1.7-2.2c-1.5-0.4-2.7-1.1-3.7-2.3c-0.6,0.8-1.2,1.6-1.8,2.4c2.5,1.6,4.4,3.5,5.9,6.1c0.6-0.7,1.1-1.5,1.7-2.2
				c-2-0.4-3.6-1-5.3-2.2c-0.3,0.9-0.5,1.9-0.8,2.8c2.5,0.1,4.3,0.7,6.3,2.1c0.4-0.9,0.8-1.8,1.2-2.7c-1.4-0.1-2.7-0.7-3.7-1.8
				c-0.1,0.8-0.2,1.6-0.3,2.4c0.7-0.6,4.3,2.2,5,2.7c0.5-0.9,1-1.7,1.5-2.6c-1.9-1.3-3.7-2.6-5.6-3.9c-0.3,0.9-0.5,1.9-0.8,2.8
				c2.5,0,5.5,3,7.4,4.4c0.5-0.9,1-1.7,1.5-2.6c-2.5-1.7-4.6-3.5-6.6-5.8c-0.6,0.8-1.2,1.6-1.8,2.4c3,1.4,5.7,3.2,8.4,5.1
				c0.5-0.9,1-1.7,1.5-2.6c-2.6-1.3-5.1-2.8-7.5-4.4c-0.4,0.9-0.8,1.8-1.2,2.7c0.9,0.3,1.9,0.7,2.8,1c1,0.4,1.8-0.6,1.9-1.4
				c0.2-0.3,0.4-0.5,0.6-0.8c-0.4-0.9-0.8-1.8-1.2-2.7c-0.2,0-0.4,0-0.6-0.1c0.2,0.7,0.4,1.4,0.5,2.1c-0.4,0.7,3,5.5,3.4,6
				c0.9-0.5,1.7-1,2.6-1.5c-1.1-1.5-2.2-3-3.3-4.6c-0.9,0.5-1.7,1-2.6,1.5c1.9,2.6,3.9,5.1,5.8,7.7c0.8-0.6,1.6-1.2,2.4-1.8
				c-1.5-1.3-2.8-2.7-4-4.2c-0.6,0.8-1.2,1.6-1.8,2.4c1.3,0.6,2.4,1.5,3.2,2.7c0.7-0.7,1.4-1.4,2.1-2.1c-1.8-0.8-3.6-1.6-5.3-2.3
				c-1.6-0.7-2.9,1-1.8,2.4c1.3,1.6,2.7,3,4.3,4.4c0.5-0.8,1-1.7,1.5-2.5c-0.9-0.7-1.9-1.4-2.8-2.1c-0.7,0.7-1.4,1.4-2.1,2.1
				c1.4,0.9,2.8,1.8,4.3,2.7c0.4-0.9,0.8-1.8,1.2-2.7c-2.2-0.7-4.1-1.7-6-3c-0.3,0.9-0.5,1.9-0.8,2.8c0.3,0.1,0.6,0.1,0.9,0.2
				c0.6-0.8,1.2-1.6,1.8-2.4c-3-1.6-3.2-2.6-0.8-3c0.6-0.2,1.1-0.5,1.7-0.7c-0.1,0.1-0.1,0.3-0.2,0.4c0.7-0.7,1.4-1.4,2.1-2.1
				c-0.6-0.5-1.2-1-1.8-1.5c-0.6,0.8-1.2,1.6-1.8,2.4c0.9,0.6,1.7,1.3,2.4,2.2c0.2-0.8,0.4-1.7,0.7-2.5c-4,1.3-8.2,0.9-12.4,1.4
				c-4.9,0.6-8.3,0.6-13-1.1c-2-0.7-4.1-1.2-6.1-0.3c-1.4,0.6-5.7,7.7-2.5,7.2c-0.6-0.2-1.1-0.5-1.7-0.7c0.7-1,1.4-2,2.1-3
				c-0.6-0.1-1.2-0.2-1.8-0.2c-0.3,0.5-0.5,1-0.8,1.5c-0.2-0.6-0.5-1.1-0.7-1.7c-0.2,0.2-0.3,0.5-0.5,0.7c0.7,0.6,1.5,1.1,2.2,1.7
				c1.4-4.9,5.5-7.5,10.6-7.1c-0.1-1-0.3-2-0.4-2.9c-2.1,0.8-4.2,1.5-6.3,2.3c0.4,0.9,0.8,1.8,1.2,2.7c1.4-1.2,3-1.7,5-1.6
				c-0.1-1-0.3-2-0.4-2.9c-2.3,0.9-8.5,4.8-10.8,2.8c-0.2,0.8-0.4,1.7-0.7,2.5c0.8-0.1,1.5-0.2,2.3-0.2c0-1,0-2,0-3
				c-0.4,0-0.8,0.1-1.2,0.1c-1.4,0.1-2.2,2.1-0.8,2.8c2,0.9,3.7,2.3,5.1,4.1c-0.1,1-0.3,2-0.4,2.9c2.5-0.1,5-0.5,7.3-1.6
				c2.4-1.1,3.4-1.7,6.2-2.3c1.1-0.2,1.9-0.2,3-0.6c1.7-0.6,1.2-2.7-0.4-2.9c-2.6-0.3-5-1-7.4-1.9c-0.1,1-0.3,2-0.4,2.9
				c1.9,0,3.6,0.5,5.2,1.5c1.7,0.9,3.2-1.6,1.5-2.6c-1.7-1-3.3-2.1-4.9-3.3c-0.4,0.9-0.8,1.8-1.2,2.7c1.8,0.5,3.3,1.2,4.8,2.2
				c0.5-0.9,1-1.7,1.5-2.6c-1.4-0.8-2.7-1.7-3.8-2.8c-0.5,0.8-1,1.7-1.5,2.5c0.8,0.4,1.7,0.8,2.5,1.2c0.6-0.8,1.2-1.6,1.8-2.4
				c-2.8-1.2-5.3-3.1-8.2-1.1c-2.5,1.8-3.1,4.7-2.6,7.6c0.2,1.4,2.6,1.4,2.9,0c0.5-0.9,1-1.8,1.6-2.7c-0.5-0.4-1-0.7-1.4-1.1
				c-0.2,0.5-0.5,1-0.7,1.5c0.7,0.6,1.5,1.1,2.2,1.7c-0.3-0.4-0.6-0.9-1-1.3c-0.4,1.2,1.1,2.4,2.2,1.7c0.8-0.2,1.6-0.5,2.3-0.7
				c1.9,0,1.9-3,0-3c-2.5,0-6.3,0.4-7.9,2.6c-0.4,0.6-0.8,1-0.9,1.7c-0.2,1.5,0.3,0.9,0.7,0.7c-0.9,0.4-0.9,1.7-0.3,2.4
				c0.2,0.2,0.4,0.5,0.6,0.7c0.5-0.8,1-1.7,1.5-2.5c0.1,0,0.1,0.1,0.2,0.1c-0.8-1.7-3.4-0.2-2.6,1.5c0.4,0.8,0.8,1.1,1.6,1.3
				c1.5,0.3,2.4-1.4,1.5-2.5c-0.2-0.2-0.4-0.5-0.6-0.7c-0.1,0.8-0.2,1.6-0.3,2.4c0.2-0.1,0.3-0.1,0.5-0.2c0.5-0.2,0.7-0.8,0.7-1.3
				c0.1-2.8,2.2-3.1,5.4-3.1c0-1,0-2,0-3c-1.5,0-2.6,0.3-3.8,1.1c0.7,0.6,1.5,1.1,2.2,1.7c1.1-3.7-3.8-3.8-4.8-0.3
				c-0.4,1.3,1.1,2.4,2.2,1.7c1.8-1,2.6-2.8,2.1-4.9c-0.2-0.7-0.8-1-1.4-1.1c-3-0.3-4.7,5.1-1.6,6.3c3.8,1.5,3.9-4.3,2.4-6.3
				c-0.3-0.4-1-0.5-1.5-0.4c-2.4,0.8-3.4,2.9-3.8,5.3c1,0,1.9,0,2.9,0c-1.2-7.1,4.6-3.9,6.4-3.1c1.4,0.6,3.2-1.1,1.8-2.4
				c-1.2-1.2-2.2-1.7-3.9-2c-1.3-0.2-2.7,1.4-1.5,2.5c1.4,1.3,2.8,2.3,4.5,3.3c1.7,1,3.1-1.5,1.5-2.6c-1.8-1.2-3.5-1.9-5.5-2.6
				c-1.7-0.5-2.4,1.8-1.2,2.7c1.6,1.2,3.2,2.3,4.9,3.3c0.5-0.9,1-1.7,1.5-2.6c-2.2-1.2-4.2-1.8-6.7-1.9c-1.8-0.1-1.9,2.4-0.4,2.9
				c2.7,1.1,5.3,1.7,8.2,2c-0.1-1-0.3-2-0.4-2.9c-1.9,0.6-3.8,0.2-5.7,0.8c-3.6,1.2-6,3.3-10,3.4c-1.6,0-2.1,2.6-0.4,2.9
				c3.3,0.6,6.6-0.8,7.1-4.4c0.5-3.1-1.5-5.2-4.4-3.4c-2.2,1.3-4.3,5.2-1.9,7.3c2.7,2.3,5.7-1.5,5.6-4.2c-0.4-8.7-12.3,2.9-5,4.4
				c6.7,1.4,1.5-14-3.5-4.7c-1.1,2.1-0.3,7.1,2.9,5.1c4.6-2.8-1.1-8.3-3.7-9.6c-0.3,0.9-0.5,1.9-0.8,2.8c0.4,0,0.8-0.1,1.2-0.1
				c1.9-0.2,2-2.9,0-3c-1.6,0-1.6,0-3.1,0.4c-1,0.3-1.5,1.8-0.7,2.5c4.1,3.5,9.6-0.3,13.7-2c1.5-0.6,1.4-3-0.4-2.9
				c-2.6,0-4.4,0.5-6.5,2c-1.3,0.9-0.6,3.4,1.2,2.7c2.1-0.8,4.2-1.5,6.3-2.3c1.6-0.6,1.3-2.8-0.4-2.9c-6.5-0.5-11.6,3.1-13.5,9.3
				c-0.4,1.2,1.1,2.4,2.2,1.7c1.2-0.8,1.6-1,1.9-2.5c0.1-0.6-0.1-1.4-0.7-1.7c-3.7-1.7-6.7,3.7-3.3,5.9c3.8,2.4,7.8-4.3,4.7-6.9
				c-0.5-0.4-1.2-0.6-1.8-0.2c-2.3,1.3-5.2,5.9-1.6,7.7c2.1,1.1,5.2-1.4,3.6-3.6c-0.4-0.6-1-0.8-1.7-0.7c-2.3,0.3-4,3.6-1.7,5.1
				c2.6,1.6,4.9-1.9,4.5-4.2c-0.1-0.5-0.6-0.9-1-1C83.9,36,83.2,44.9,89,43c5.4-1.8,3.1-10.6-1.9-7.9c-1.4,0.8-2.4,2.7-1.1,4
				c1.8,1.9,3-0.3,4.1-1.3c2.9-2.7,4.7-1.2,7.9-0.1c2.4,0.8,4.6,0.9,7.2,0.7c5.6-0.5,11.9-0.3,17.3-2c1.1-0.3,1.5-1.7,0.7-2.5
				c-1-1-1.9-1.8-3-2.6c-1.4-1-3.1,1.3-1.8,2.4c0.6,0.5,1.2,1,1.8,1.5c1.5,1.2,3.3-0.6,2.1-2.1c-3.6-4.5-8,3.6-2.8,4.6
				c0.6,0.1,1.4-0.1,1.7-0.7c1.3-3.1-1.8-8.6-5.5-6.2c-4,2.7-1,8.6,2.2,10.2c1.4,0.8,3.2-1.2,1.8-2.4c-1.2-1-1.4-1.2-3-1.1
				c-1.5,0.1-2,1.9-0.8,2.8c2.1,1.5,4.3,2.5,6.7,3.4c1.7,0.6,2.5-1.9,1.2-2.7c-1.4-0.9-2.8-1.8-4.3-2.7c-1.3-0.8-2.8,0.8-2.1,2.1
				c1.1,2,2.4,3,4.6,3.5c1.4,0.3,2.6-1.5,1.5-2.5c-1.6-1.4-2.9-2.8-4.3-4.4c-0.6,0.8-1.2,1.6-1.8,2.4c1.8,0.8,3.6,1.6,5.3,2.3
				c1.2,0.5,3.1-0.7,2.1-2.1c-1.2-1.7-2.4-2.8-4.3-3.8c-1.6-0.9-2.9,1.1-1.8,2.4c1.2,1.5,2.6,2.9,4,4.2c1.2,1,3.4-0.4,2.4-1.8
				c-1.9-2.6-3.9-5.1-5.8-7.7c-1.1-1.5-3.7-0.1-2.6,1.5c1.1,1.5,2.2,3,3.3,4.6c1.1,1.5,3.7,0.1,2.6-1.5c-1.3-1.9-5.1-11.7-8.5-6
				c-0.4,0.8-0.1,1.6,0.5,2.1c1.2,0.9,2.3,0.9,3.6,0.1c1.3-0.9,0.5-3.4-1.2-2.7c-1.9,0.7-2.6,1.6-2.8,3.6c0.6-0.5,1.3-1,1.9-1.4
				c-0.9-0.3-1.9-0.7-2.8-1c-1.7-0.6-2.5,1.8-1.2,2.7c2.4,1.6,4.9,3.1,7.5,4.4c1.7,0.9,3.1-1.5,1.5-2.6c-2.7-1.9-5.3-3.8-8.4-5.1
				c-1.5-0.7-3,1-1.8,2.4c2.1,2.5,4.5,4.5,7.2,6.3c1.6,1.1,3.1-1.5,1.5-2.6c-2.7-2-5.4-4.9-8.9-4.8c-1.6,0-1.9,2-0.8,2.8
				c1.9,1.3,3.7,2.6,5.6,3.9c1.6,1.1,3-1.4,1.5-2.6c-1.7-1.3-5.7-4.4-8-2.7c-0.7,0.6-1.1,1.6-0.3,2.4c1.5,1.4,2.9,2.2,5,2.6
				c1.7,0.3,2.6-1.7,1.2-2.7c-2.5-1.7-4.8-2.4-7.8-2.5c-1.6-0.1-1.9,2-0.8,2.8c1.9,1.4,3.7,2.1,6,2.5c1.2,0.2,2.4-1,1.7-2.2
				c-1.8-3-4-5.3-7-7.1c-1.5-0.9-3,1.1-1.8,2.4c1.5,1.5,3,2.4,5,3.1c1.4,0.4,2.2-1.1,1.7-2.2c-1.1-2.6-2.6-4.4-4.8-6.2
				c-0.8-0.6-2.3-0.6-2.5,0.7c-0.6,2.9,1.7,7.9,5.4,6.6c0.7-0.2,1.1-0.7,1.1-1.4c0.1-3-3.3-8.6-6.7-5.2c-2,2-0.3,6.7,2.7,6.6
				c4.1-0.1,1.9-5.5,0.2-7.2c-2.8-2.8-6.9-0.3-6.3,3.5c0.5,3.5,4.4,2.8,5.5-0.1c1.2-3.3-1.4-5.5-4.3-3.6c-2.7,1.9-3.1,7.1,1.1,7.4
				c3.2,0.2,4.8-4.1,2.1-6c-3.2-2.2-6.7,2.3-4,5c3.4,3.4,6.7-1.6,5.3-4.8c-0.4-0.9-1.8-0.9-2.4-0.3c-4.7,4.9,3,11,4.7,5.9
				c1.5-4.8-6.7-5.7-5.6-0.2c1.2,6.1,9,0.7,5.4-2.1c-2.9-2.2-6.4,5.3-1.1,5.6C109.8,36.8,109.8,33.8,107.9,33.7L107.9,33.7z"/>
		</g>
	</g>
	<g>
		<g>
			<path class="st0" d="M89.7,32.7c0,0,0,0.1,0,0.1c0.1,0.5,0.3,1,0.4,1.5c0.2-0.2,0.4-0.5,0.6-0.7c-0.6-0.2-1.1-0.5-1.7-0.7
				c0,0.1,0.1,0.1,0.1,0.2c0-0.5,0-1,0-1.5c-0.1,0.1-0.1,0.2-0.2,0.2c0.4-0.1,0.8-0.1,1.2-0.2c0.1,0.1,0.3,0.2,0.4,0.3
				c0.1,0.4,0.1,0.8,0.2,1.2c0.1-0.1,0.3-0.2,0.4-0.4c-0.4,0.1-0.8,0.1-1.2,0.2c-0.1-0.1-0.2-0.2-0.3-0.2c0-0.5,0-1,0-1.5
				c0.2,0.2,0.4,0.4,0.7,0.6c0.1,0.4,0.1,0.8,0.2,1.2c-0.1,0.7,3.4-0.1,3.7-0.2c1.7-0.3,3.6,0.7,5.3,1.2c1.8,0.6,2.6-2.3,0.8-2.9
				c-1.9-0.6-4.2-1.7-6.2-1.4c-1.2,0.2-2.2,0.3-3.5,0.3c-0.8,0-1.6,0.2-2.2,0.8c-2.6,2.4,2.1,5.4,3.9,2c1.7-3.2-4.1-3.9-4.4-0.3
				c-0.2,3.4,5.4,2,3.9-1.2c-0.3-0.6-1.1-0.8-1.7-0.7c-2.9,0.4-3.9,5.4-0.2,5C91.6,35.5,91.7,32.5,89.7,32.7L89.7,32.7z"/>
		</g>
	</g>
	<g>
		<g>
			<path class="st0" d="M96.1,37.9c1.3,0.9,3.2,0.6,4.2-0.5c0.5-0.6,0.6-1.5,0-2.1c-0.5-0.5-1.6-0.6-2.1,0c-0.1,0.1-0.1,0.1-0.2,0.2
				c0.1-0.1,0.1-0.1,0,0c0.2-0.1,0.2-0.1,0,0c-0.2,0-0.2,0-0.1,0c0.1,0,0.1,0-0.1,0c-0.2,0-0.2,0,0,0c-0.2-0.1-0.2,0,0,0
				c-0.1,0-0.2-0.1-0.2-0.1c-0.7-0.5-1.7-0.1-2.1,0.5C95.1,36.6,95.4,37.5,96.1,37.9L96.1,37.9z"/>
		</g>
	</g>
	<g>
		<g>
			<path class="st0" d="M107.6,32.4c-0.7-0.2-1.3-0.4-1.9-0.9c-0.4,0.9-0.7,1.7-1.1,2.6c0.6-0.1,1-0.1,1.6,0.1
				c0.2,0.1,0.3,0.2,0.5,0.3c0.4,0.6,0.5,0.6,0.4-0.1c0.3-0.2,0.6-0.5,0.9-0.7c-0.8,0.3-1.4-1.3,0.1-0.2c0.6,0.5,1.1,1.2,1.6,1.8
				c0.8,1,2.7,0.2,2.6-1.1c-0.1-0.9-0.3-1.7-0.7-2.6c-0.2,0.7-0.4,1.4-0.5,2.1c0.1,0,0.2-0.1,0.3-0.1c-0.4,0.1-0.8,0.1-1.2,0.2
				c0.8,0.2,1.6,0.6,2.4,1c1.5,0.6,3.1-1,1.8-2.4c-0.8-0.8-1.6-1.7-2.4-2.5c-0.6,0.8-1.2,1.6-1.8,2.4c0.8,0.5,1.5,1,2.1,1.6
				c1.5,1.3,3.6-0.9,2.1-2.1c-0.9-0.8-1.8-1.4-2.7-2.1c-1.5-1-3,1.2-1.8,2.4c0.8,0.8,1.6,1.7,2.4,2.5c0.6-0.8,1.2-1.6,1.8-2.4
				c-1.5-0.6-3-1.7-4.6-1c-0.8,0.4-0.9,1.4-0.5,2.1c0.2,0.3,0.3,0.7,0.3,1.1c0.9-0.4,1.7-0.7,2.6-1.1c-1.5-1.8-3.7-4.1-6.3-2.8
				c-2.3,1.2-2.2,4-0.3,5.4c1.5,1.1,5.2,1.7,4.8-1.3c-0.3-2.4-3.2-3.7-5.4-3.4c-1.1,0.2-2.2,1.6-1.1,2.6c1,0.8,2,1.4,3.2,1.7
				C108.7,35.8,109.5,32.9,107.6,32.4L107.6,32.4z"/>
		</g>
	</g>
	<g>
		<g>
			<path class="st0" d="M109.3,28.2C109.2,28.1,109.1,28.1,109.3,28.2c-0.1,0-0.2-0.1-0.3-0.1c-0.1,0-0.2-0.1-0.2-0.2
				c0.2,0.1,0,0-0.1-0.1c0,0-0.2-0.2-0.1-0.1c0.1,0.1-0.1-0.1-0.1-0.1c0,0-0.1-0.3-0.1-0.1c0.1,0.1-0.1-0.2-0.1-0.2
				c-0.5,0.6-1,1.3-1.4,1.9c0.4,0,0.7,0.1,1.2,0.3c0.3-1,0.5-1.9,0.8-2.9c-0.7-0.3-1.4-0.5-2.1-0.8c-0.8-0.3-1.6,0.3-1.8,1
				c-0.2,0.9,0.3,1.5,1,1.8c0.7,0.3,1.4,0.5,2.1,0.8c0.8,0.3,1.6-0.3,1.8-1c0.2-0.9-0.3-1.5-1-1.8c-0.6-0.3-1.3-0.4-2-0.4
				c-1,0-1.7,1-1.4,1.9c0.4,1.5,1.6,2.6,3,3.1c0.8,0.2,1.6-0.3,1.8-1C110.5,29.2,110.1,28.4,109.3,28.2L109.3,28.2z"/>
		</g>
	</g>
	<g>
		<g>
			<g>
				<path d="M78.1,37.8c0.9-5,5.4-5.7,9.7-4.8c0.7,0.2,1.1-1,0.3-1.1c-2.6-0.6-5.3-1-7.7,0.5c-1.9,1.1-3.1,3-3.5,5.2
					C76.8,38.3,78,38.6,78.1,37.8L78.1,37.8z"/>
			</g>
		</g>
		<g>
			<g>
				<path d="M85.8,32.4c4-4.4,9.1-3.7,14.1-1.5c0.7,0.3,1.3-0.7,0.6-1C95,27.4,89.5,26.7,85,31.5C84.5,32.1,85.3,32.9,85.8,32.4
					L85.8,32.4z"/>
			</g>
		</g>
		<g>
			<g>
				<path d="M114.5,31.8c0.9-1.3,2.5-2.1,4.1-1.6c1.5,0.5,2,1.7,2.6,3c0.6,1.3,1.5,2.1,2.8,2.8c0.7,0.4,1.3-0.7,0.6-1
					c-2.6-1.4-2.6-4.7-5.4-5.8c-2.2-0.8-4.4,0.1-5.7,2C113.1,31.9,114.1,32.4,114.5,31.8L114.5,31.8z"/>
			</g>
		</g>
		<g>
			<g>
				<path d="M98.8,29c-2.4-2.2,3-3.9,4.2-3.9c1.6-0.1,3.3,0.2,4.8,0.8c2.6,1.2,3.8,3.6,5.1,6c0.4,0.7,1.4,0.1,1-0.6
					c-2.5-4.9-5.9-8.1-11.9-7.4c-2.2,0.3-6.9,3.4-4.1,5.9C98.5,30.3,99.3,29.5,98.8,29L98.8,29z"/>
			</g>
		</g>
		<g>
			<g>
				<path d="M112.4,34.3c-1.4-1.8-3.3-3.4-5.7-3.7c-2.7-0.3-3.8,2.4-5.9,3.5c-0.7,0.4-0.1,1.4,0.6,1c0.7-0.4,1.3-0.8,1.9-1.3
					c0.5-0.4,0.9-1.2,1.5-1.5c2.4-1.6,5.3,0.8,6.6,2.6C111.9,35.5,112.9,34.9,112.4,34.3L112.4,34.3z"/>
			</g>
		</g>
		<g>
			<g>
				<g>
					<path d="M73,58.5c-1-2-1.4-4.2-1-6.4c0.1-0.7-1-1.1-1.1-0.3c-0.5,2.5-0.1,5,1.1,7.3C72.3,59.8,73.4,59.2,73,58.5L73,58.5z"/>
				</g>
			</g>
			<g>
				<g>
					<path d="M72.1,51.6c-1.2-2.4-0.3-4.4,2.2-5.1c0.7-0.2,0.4-1.4-0.3-1.1c-1.4,0.4-2.7,1.2-3.3,2.5c-0.7,1.4-0.3,3,0.3,4.4
						C71.4,52.8,72.5,52.2,72.1,51.6L72.1,51.6z"/>
				</g>
			</g>
			<g>
				<g>
					<path d="M73.4,45.9c-0.5-0.7,1-3.7,1.3-4.3c0.7-1.4,1.8-2.5,3.3-3.1c0.7-0.3,0.4-1.4-0.3-1.1c-2.1,0.8-3.4,2.4-4.3,4.4
						c-0.6,1.4-1.8,3.6-0.8,5C73,47.4,73.9,46.5,73.4,45.9L73.4,45.9z"/>
				</g>
			</g>
			<g>
				<g>
					<path d="M73.8,58.5c0.1,0,2.1-3.4,2.3-3.8c0.6-1.1,1-2.3,1-3.6c0-0.8-1.2-0.8-1.2,0c0,2.2-1.4,3.8-2.4,5.7
						c-0.4,0.7-1.3,2.1-0.2,2.7C73.9,59.9,74.5,58.9,73.8,58.5L73.8,58.5z"/>
				</g>
			</g>
			<g>
				<g>
					<path d="M76.6,51.3c3.4-0.8,6.4-2.7,8.7-5.3c0.5-0.6-0.3-1.4-0.8-0.8c-2.2,2.5-4.9,4.2-8.1,5C75.6,50.3,75.9,51.5,76.6,51.3
						L76.6,51.3z"/>
				</g>
			</g>
			<g>
				<g>
					<path d="M84.3,45.4c3.6,0.2,6.9-0.8,9.9-2.8c0.6-0.4,0-1.5-0.6-1c-2.8,1.9-5.9,2.8-9.3,2.6C83.6,44.2,83.6,45.4,84.3,45.4
						L84.3,45.4z"/>
				</g>
			</g>
			<g>
				<g>
					<path d="M92.6,42.8c-0.1,1.6-1.4,2.9-3,3.3c-0.8,0.2-0.4,1.3,0.3,1.1c2.1-0.4,3.7-2.3,3.8-4.4C93.9,42.1,92.7,42.1,92.6,42.8
						L92.6,42.8z"/>
				</g>
			</g>
			<g>
				<g>
					<path d="M89.5,47.6c3.9,0.5,7.6-1.9,8.8-5.6c0.2-0.7-0.9-1-1.1-0.3c-1.1,3.2-4.3,5.2-7.6,4.7C88.7,46.3,88.8,47.5,89.5,47.6
						L89.5,47.6z"/>
				</g>
			</g>
			<g>
				<g>
					<path d="M97.9,43c0.7-4.7,7.2-3.7,9.9-1.8c0.6,0.4,1.2-0.6,0.6-1c-3.4-2.4-10.9-3-11.7,2.5C96.6,43.4,97.8,43.8,97.9,43
						L97.9,43z"/>
				</g>
			</g>
			<g>
				<g>
					<path d="M108.6,41.7c1.9-1.3,4-2,6-0.5c1.3,1,1.5,2,2.5,3.2c1.2,1.5,2.9,2.4,4.8,2.8c0.7,0.2,1.1-1,0.3-1.1
						c-2.4-0.5-3.8-1.8-5-3.8c-0.7-1.1-1.2-2.1-2.4-2.7c-2.3-1.1-4.7-0.2-6.7,1.1C107.4,41.1,108,42.1,108.6,41.7L108.6,41.7z"/>
				</g>
			</g>
			<g>
				<g>
					<path d="M121.8,47.6c1.1-0.1,2.2-0.2,3.3-0.5c0.7-0.2,0.4-1.3-0.3-1.1c-1,0.2-2,0.4-3,0.4C121.1,46.4,121.1,47.6,121.8,47.6
						L121.8,47.6z"/>
				</g>
			</g>
			<g>
				<g>
					<path d="M121.4,47.8c1.9,2.6,4.9,4.3,6.4,7.2c0.3,0.7,1.4,0.1,1-0.6c-1.4-3-4.5-4.6-6.4-7.2C122,46.6,121,47.2,121.4,47.8
						L121.4,47.8z"/>
				</g>
			</g>
			<g>
				<g>
					<path d="M128.9,55.3c-1.2-5.9,2-11.9-4.1-15.8c-0.7-0.4-1.2,0.6-0.6,1c5.6,3.5,2.5,9.8,3.6,15.1
						C127.9,56.4,129.1,56.1,128.9,55.3L128.9,55.3z"/>
				</g>
			</g>
			<g>
				<g>
					<path d="M126.5,41c0.1-4.2-4.9-7.6-8.5-8.5c-0.7-0.2-1.1,1-0.3,1.1c3.1,0.8,7.7,3.8,7.7,7.4C125.3,41.8,126.5,41.8,126.5,41
						L126.5,41z"/>
				</g>
			</g>
			<g>
				<g>
					<path d="M88.9,36.8c0.2,3.4-4.2,3.7-6.4,4.9c-1.5,0.8-2.6,2.1-2.7,3.8c-0.1,0.8,1.1,0.8,1.2,0c0.3-3.3,4.7-3.3,6.8-4.7
						c1.4-0.9,2.4-2.3,2.3-4C90,36.1,88.9,36.1,88.9,36.8L88.9,36.8z"/>
				</g>
			</g>
			<g>
				<g>
					<path d="M72.8,64.9c-2.8-3.5-1.1-7.1-1.4-11.1c-0.1-0.8-1.3-0.8-1.2,0c0.2,2.5-0.7,5.1-0.3,7.6c0.3,1.7,1,3.1,2,4.4
						C72.4,66.4,73.2,65.5,72.8,64.9L72.8,64.9z"/>
				</g>
			</g>
			<g>
				<g>
					<path d="M73.4,65.2c-0.5-2.1-0.6-4.2-0.5-6.3c0-0.8-1.1-0.8-1.2,0c-0.1,2.2,0.1,4.5,0.6,6.7C72.4,66.2,73.6,65.9,73.4,65.2
						L73.4,65.2z"/>
				</g>
			</g>
			<g>
				<g>
					<path d="M129.1,60.7c-1.1-2.9-2.2-5.8-3.1-8.7c-0.2-0.7-1.4-0.4-1.1,0.3c0.9,2.9,1.9,5.8,3.1,8.7
						C128.3,61.7,129.4,61.4,129.1,60.7L129.1,60.7z"/>
				</g>
			</g>
			<g>
				<g>
					<path d="M129.1,60.3c0.4-2.7,0.3-5.4-0.2-8.1c-0.1-0.8-1.3-0.4-1.1,0.3c0.5,2.5,0.5,5,0.2,7.5
						C127.8,60.8,128.9,61.1,129.1,60.3L129.1,60.3z"/>
				</g>
			</g>
		</g>
	</g>
	<g>
		<g>
			<g>
				<path class="st1" d="M103.3,29.1c-0.3-0.3-0.8-0.5-1-0.7c-0.7-1,1.5-0.8,2.1-0.8c1.6,0.1,3,0.7,4,1.9c0.5,0.6,1.3-0.2,0.8-0.8
					c-1.7-2.1-4.4-2.6-6.9-2.1c-0.7,0.1-1.6,0.3-1.7,1.2c-0.1,1.2,1.2,1.5,1.8,2.2C103,30.5,103.9,29.7,103.3,29.1L103.3,29.1z"/>
			</g>
		</g>
		<g>
			<g>
				<path class="st1" d="M102.5,37.2c0.8-0.3,1.7-0.6,2.4-1.2c0.9-0.7,1.2-1.6,2.4-1.8c0.8-0.1,0.4-1.3-0.3-1.1
					c-0.9,0.2-1.5,0.6-2.1,1.3c-0.7,0.9-1.6,1.3-2.7,1.7C101.5,36.3,101.8,37.4,102.5,37.2L102.5,37.2z"/>
			</g>
		</g>
		<g>
			<g>
				<path class="st1" d="M79.1,44c0.4-1.8,1.5-3.3,3.2-4.2c0.7-0.4,1.5-0.5,2.2-1c0.6-0.4,0.9-1,1.3-1.6c0.4-0.7-0.6-1.3-1-0.6
					c-1,1.7-3,1.9-4.5,3.2c-1.1,1-1.9,2.4-2.3,3.9C77.8,44.5,78.9,44.8,79.1,44L79.1,44z"/>
			</g>
		</g>
		<g>
			<g>
				<path class="st1" d="M74.4,54.5c-0.2-0.9-0.2-1.8,0.1-2.7c0.2-0.7-0.9-1-1.1-0.3c-0.3,1.1-0.4,2.2-0.1,3.3
					C73.5,55.5,74.6,55.2,74.4,54.5L74.4,54.5z"/>
			</g>
		</g>
		<g>
			<g>
				<path class="st1" d="M114,38.1c2.7-0.3,3.6,2.9,5.2,4.4c1.3,1.2,2.8,1.2,4.5,1.1c0.8,0,0.8-1.2,0-1.2c-1.6,0.1-2.9,0-4.1-1.2
					c-0.7-0.7-1.1-1.6-1.7-2.4c-1-1.3-2.3-2.1-3.9-1.9C113.2,37,113.2,38.2,114,38.1L114,38.1z"/>
			</g>
		</g>
	</g>
</g>
</svg>
