<svg id="Layer_1" data-name="Layer 1" xmlns="http://www.w3.org/2000/svg" viewBox="0 0 68.99 37.45"><defs><style>.cls-1{fill:#000e41;}.cls-2{fill:#000e2e;}</style></defs><title>Cap</title><path class="cls-1" d="M93.3,34.1h-.4v3.1c-2.7,1.6-6.9-.3-9.8,0a10.73,10.73,0,0,0-3.8,1.3c-4.8,2.8-9.2,6.6-13.5,9.9-1.3,1-1.1,3.5.9,3.4a38.44,38.44,0,0,0,15.9-4.6c2.1-1.1.3-4.1-1.8-3.1-.8.4-1.6.7-2.3,1.1-1.9.9-.5,3.7,1.4,3.3A43.24,43.24,0,0,1,97.8,48c.2-1.2.3-2.4.5-3.5-.3,0-.5-.1-.8-.1-.5,1.1-.9,2.2-1.4,3.3,4.6,1.2,8.5-1.7,13-1.2V42.9a6.2,6.2,0,0,1-3.3-.2c-2.3-.6-3.1,2.7-1,3.5,6.8,2.4,13.4.5,20.4,1V43.6c-1.5.1-3,.1-4.5.2a1.8,1.8,0,0,0,0,3.6,54.47,54.47,0,0,1,10.6,1.7,1.77,1.77,0,0,0,2-2.6,50.68,50.68,0,0,1-4.2-8.4c-1.1.5-2.2.9-3.3,1.4a11.65,11.65,0,0,1,1.7,2.8c.7-.9,1.4-1.8,2-2.6-11.4-2.6-23.7-4-35.3-2.3-5.2.7-10.2,2.5-15.4,3.3A17.35,17.35,0,0,0,67,47l3,1.8c.3-.5.6-.9.9-1.4a1.79,1.79,0,0,0-.8-3,3.15,3.15,0,0,0-2.5.4l2.5,2.5a33,33,0,0,1,2.3-4.1c1.1-1.7-1.4-3.7-2.8-2.2-.4.4-.7.8-1.1,1.2l2.8,2.2a30.14,30.14,0,0,1,8-9.4l-2.2-2.8A37.47,37.47,0,0,0,70,43a1.79,1.79,0,0,0,3.1,1.8c1-1.6,2.9-4.2,4.9-4.7-.7-.3-1.4-.6-2-.8.6,1.9-.1,3.2-2,3.9a25.29,25.29,0,0,1,2.2,1.3c0,1.3.4,1.4,1.1.4-1.2-.1-2.4-.2-3.6-.4.3,1.1.6,2.2.9,3.4,4-2,8-4.5,12.5-5s9.4-.2,14-.2c-.2-1.2-.3-2.4-.5-3.5a79.87,79.87,0,0,1-17.5,2.2V45c4.2-.2,8.4-.4,12.6-.5V40.9a52.25,52.25,0,0,1-13.1-.3,25.29,25.29,0,0,0,1.3,2.2,9.13,9.13,0,0,1,2.4-3.7,7.74,7.74,0,0,1,2.8-1.9c1.7-.7,1.3-.7-1.1-.3-3.7,1.4-3.9,1.2-.5-.4-.7-.9-1.4-1.8-2-2.6a7.92,7.92,0,0,1-7.4,4c.5.9,1,1.8,1.6,2.7a11.42,11.42,0,0,1,6.5-4.9c-.7-.9-1.4-1.8-2-2.6-.6,1.2-2,2.2-2,3.5,0,1,2.1-1.6,2.8-2.2-1-.4-2-.8-3.1-1.3-.8,1.3-1.7,2.6-2.5,3.9l2.2,2.8c1.8-1.8,5.5-5.3,8.2-5.1,1.6.1,1.8,1.1,3.3,1.8a1.18,1.18,0,0,0,2,.2c1.8-1.1,2.1-.1.8,3,.4.6.9,1.2,1.3,1.7q3.15-5.25,3-1.8c-.2,1.7.8,2.3,3.1,1.9-.8-.6-1.5-1.2-2.3-1.7.3.8.5,1.6.8,2.4-.5-.9-1-1.8-1.6-2.7-2.3,2.9-2.8,2.8-1.7-.6-2-2.3-1.6-2.8,1-1.4a1.8,1.8,0,0,0,1.6,2.7,71,71,0,0,0,10.3-.4,6.05,6.05,0,0,0,1.9,0c1.2-.5,1.4-.1.7,1.1.7-.5,1.4-1.1,2.1-1.6.2.2.4.3.6.5-1.7.4-1.1.7,1.6,1.1a20.62,20.62,0,0,1,5.7,2.5c.9-.5,1.8-1,2.7-1.6-.6-.6-1.2-1.2-1.7-1.8l-2.2,2.2a3.84,3.84,0,0,1,3.6,2.4l2.5-2.5c-.1.2-.3.4-.4.6a1.84,1.84,0,0,0,1.8-3l-5.2-5.8-2.2,2.8c.8.8,1.6,1.7,2.4,2.5l2.8-2.2c-7-8.8-21.8-3.3-30.5-.8-3.3.9-6.8,2.2-10.2,2.6-2.5.3-9.6-.2-6.8-4.7,1.4-2.2,5.5-3.6,7.8-4.7,1.8-.9,3.5-1.8,5.4-2.6a14.76,14.76,0,0,1,2.7-1,21.74,21.74,0,0,0,.2,3.6,1.83,1.83,0,0,0-2.2-1.3c-2.4.9-4.9,1.7-7.4,2.4.5,1.1.9,2.2,1.4,3.3a6.09,6.09,0,0,1,3.1-1.3l-1.8-3a6.87,6.87,0,0,1-4.9,1.9c-2.3.1-2.3,3.7,0,3.6a12.64,12.64,0,0,0,7.4-2.9c1.5-1.2-.1-3.4-1.8-3a10.11,10.11,0,0,0-4,1.7c-1.7,1.1-.6,3.9,1.4,3.3,2.5-.7,4.9-1.5,7.4-2.4a25.29,25.29,0,0,1-2.2-1.3c1.2,4.6,7.1.2,7.6-2.8.5-3.2-3.2-6.3-5.7-3.4-2.7,3.2,2,6,4.9,4.5,4.7-2.5,1.6-7-2.8-6.7-3.5.3-6.8,2.3-9.9,3.8s-6.9,3-9.4,5.7c-1.3,1.5-2.6,3.6-2.4,5.7.2,2.4,1.8,2.6,3.5,3.6,2.8,1.7,4,2.3,7.4,1.8a93.89,93.89,0,0,0,11.9-2.9c7.5-2.1,21.1-7.6,27-.1,1.3,1.6,3.8-.5,2.8-2.2a9.66,9.66,0,0,0-3.7-3.8c-1.8-1.1-3.5,1.3-2.2,2.8l5.2,5.8,1.8-3c-4.1-1-6.4,4.2-2.3,6a1.85,1.85,0,0,0,2.5-2.5,7.35,7.35,0,0,0-5.8-4.1c-1.2-.2-2.8.8-2.2,2.2a6.42,6.42,0,0,0,3.4,4,1.81,1.81,0,0,0,2.7-1.6c0-2.6-1.1-5.3-4-5.9a4.54,4.54,0,0,0-5.2,2.8c-1.2,3.7,3.8,7.5,5.6,3.3,1.9-4.4-2.5-9.5-6.8-5.9-3.5,3-1.9,10.1,3.3,7.2,4.4-2.4,3.1-11.1-2.7-9.3-3.5,1.1-7,8.4-1.5,9.3,4.3.7,7.2-7,3-8.9-3.7-1.7-11.3,3.4-7.8,7.5s9.5-1.2,9.2-5.4c-.4-5.9-8.8-1.9-9.8,1.8-1.3,4.5,3.8,7.6,6,3,2.4-5-.5-10.7-6-6.7-1.8,1.3-3.4,3.3-2.6,5.6a3.41,3.41,0,0,0,5.1,1.8c4.6-2.5,3.2-10.3-2.6-8.4-3.7,1.2-8.1,8.8-2.4,10.3,4.8,1.3,6.8-6.8,3.4-9.4-4.2-3.3-13.1,3.3-8.6,7.4,4,3.5,11.4-2.9,6.6-6.4s-10.4,5.3-5,6.6c2,.5,3.5-1.4,3.4-3.2-.1-3.5-4.5-3.9-7.2-4,.5.9,1,1.8,1.6,2.7,3.8-6.2-6.4-8.8-9.5-3.2-3.6,6.3,6.7,9.4,9.7,3.7,3.4-6.4-6.3-6.3-8.5-.9-.8,2-.8,5.5,1.6,6.5,2.8,1.2,5.9-2.1,7.4-4.1.8-1.1-.3-2.7-1.6-2.7-2.8.1-7.9,2.9-4.3,6,3.1,2.8,6.8-2,7.1-4.9a1.78,1.78,0,0,0-2.3-1.7c-2.4.7-5.7,2.5-4.4,5.6,1.1,2.6,4.2,2.2,5.7.3,5.2-6.1-3.6-11.1-7.2-4.6-3,5.4,6.8,7,7.5-.2.7-7.5-11.2-3.5-10.4,2.2a1.83,1.83,0,0,0,1.3,1.7c5.2,1.8,9.8-7.6,4.9-10.3-3.2-1.7-14,2.5-10.1,6.9,3.7,4.2,7.3-2.9,5.4-6.4-3.4-6.5-13,.8-16.1,3.9-1.4,1.4.4,4,2.2,2.8a8.71,8.71,0,0,0,4.3-7c.2-1.7-2-2.1-3.1-1.3-1.8,1.4-6.7,6-3.5,8.4s7.4-3.2,8.4-5.4c.6-1.3-.4-3.2-2-2.6a16.14,16.14,0,0,0-8.6,6.6A1.81,1.81,0,0,0,77.9,41a11.86,11.86,0,0,0,10.5-5.8c.9-1.4-.6-2.9-2-2.6-2.8.5-8.1,3.8-5.3,7.1,2.5,3,8.4.7,10.5-1.7,1.8-2,2-5.3-1.4-5.4-4.6-.2-8.3,5.2-9.8,8.8a1.83,1.83,0,0,0,1.3,2.2,60.37,60.37,0,0,0,14.1.5c2.3-.2,2.4-3.7,0-3.6-4.2.2-8.4.4-12.6.5-2.3.1-2.3,3.6,0,3.6a88.36,88.36,0,0,0,18.5-2.3c2-.5,1.5-3.5-.5-3.5-5.1,0-10.6-.5-15.6.4-4.5.8-8.7,3.3-12.6,5.4-1.8.9-.7,3.2.9,3.4,2.1.3,4.5-.1,5.6-2.1.9-1.5.8-3.8-.8-4.7-2.7-1.6-7.2,3.2-5.8,6,1.8,3.7,6.7.1,6.1-3.1a3.22,3.22,0,1,0-6.3,1.3,1.88,1.88,0,0,0,2.2,1.3c3.3-1.3,6.8-5.6,4.1-9.2a1.68,1.68,0,0,0-2-.8c-3.1.8-5.4,3.8-7,6.4,1,.6,2.1,1.2,3.1,1.8,1.8-3.7,3.6-7.2,6.5-10.1,1.4-1.4-.5-4.1-2.2-2.8a34.9,34.9,0,0,0-9.3,10.6c-1,1.7,1.4,3.7,2.8,2.2.4-.4.7-.8,1.1-1.2l-2.8-2.2a27.1,27.1,0,0,0-2.3,4.1A1.86,1.86,0,0,0,69.4,48h-.3c-.3-1-.5-2-.8-3a4.63,4.63,0,0,0-1.9,3,1.83,1.83,0,0,0,3,1.8c3.5-4.1,7.5-5,12.6-5.9s9.9-2.7,15.1-3.2c10.4-1,21.3.2,31.4,2.5a1.76,1.76,0,0,0,2-2.6,10,10,0,0,0-1.7-2.8c-1.1-1.5-4.1-.7-3.3,1.4a52.25,52.25,0,0,0,4.5,9.2c.7-.9,1.4-1.8,2-2.6A56.2,56.2,0,0,0,120.5,44v3.6c1.5-.1,3-.1,4.5-.2a1.8,1.8,0,0,0,0-3.6c-6.6-.5-13,1.4-19.4-.9-.3,1.2-.6,2.3-1,3.5a12.35,12.35,0,0,0,4.3.4,1.8,1.8,0,0,0,0-3.6c-4.1-.4-8,2.4-12,1.4a1.81,1.81,0,0,0-1.4,3.3,3.4,3.4,0,0,0,2.6.6c1.8-.2,2.6-3.1.5-3.5a47.2,47.2,0,0,0-19.8.5c.5,1.1.9,2.2,1.4,3.3.8-.4,1.6-.7,2.3-1.1-.6-1-1.2-2.1-1.8-3.1a33.32,33.32,0,0,1-14.1,4.1c.3,1.1.6,2.2.9,3.4,4.2-3.2,8.5-7.1,13.1-9.6,3.7-2,7.3.4,10.9-1.3,3.9-1.9,1.8-8.2-2-6-3.5,2.1.3,6.2,3.6,4.4s1.5-7.1-2-5.1c-1.1.6-1.3,2.6,0,3.1a4.45,4.45,0,0,0,3.2.4c2.3-.9,1.3-4.4-1-3.9Z" transform="translate(-64.98 -15.2)"/><path class="cls-1" d="M100,31.1a1.8,1.8,0,0,0,0-3.6,1.8,1.8,0,0,0,0,3.6Z" transform="translate(-64.98 -15.2)"/><path class="cls-1" d="M103.2,34a1.8,1.8,0,0,0,0-3.6c-2.3,0-2.4,3.6,0,3.6Z" transform="translate(-64.98 -15.2)"/><path class="cls-1" d="M103.3,32.7l-2.6-2.9c-1.1-.5-2.2-.9-3.3-1.4-1.1,2.8-5.3,1.6-7.3,1.6s-3.7.9-5.6,1.1c.5.9,1,1.8,1.6,2.7a9.28,9.28,0,0,1,5.1-3.6c-.7-.9-1.4-1.8-2-2.6a7,7,0,0,0-.8,1c.6,1,1.2,2.1,1.8,3.1,1.1-.8,8.5-5,7.8-6.8-.6.8-1.2,1.5-1.7,2.3,2.5.9,3.6,2.6,3.1,5,1.1-.3,2.2-.6,3.4-.9a4.87,4.87,0,0,1-.6-5.4c-1.1.1-2.2.3-3.3.4l-1.2,2.4a27,27,0,0,1-2.8-.4c-.1.2-.1.4-.2.5l2.5,2.5a7.15,7.15,0,0,1,2.9-3.3c2.5.4,3.6,1.7,3.3,4,.9-.5,1.8-1,2.7-1.6-2.2-1.6-2-2-2.3-4.1.2,1.6,1.6,2.7,1.9,4.4l2.2-2.2c-2.4-.6-.1,4.4,0,4.9a1.89,1.89,0,0,0,1.3,1.3,26.67,26.67,0,0,0,8.9.8,1.85,1.85,0,0,0,.9-3.4,14.78,14.78,0,0,0-6.7-2.8c-.2,1.2-.3,2.4-.5,3.5a15.35,15.35,0,0,1,10,2.5c.5-1.1.9-2.2,1.4-3.3-.6-.4-1.2-.9-1.8-1.3l-1.8,3c.9.8,1.7,1.6,2.6,2.4l2.8-2.2a27.46,27.46,0,0,0-8.2-5.7c-2.6-1.1-8-1.2-9.7-3.5-.7.9-1.4,1.8-2,2.6a64.67,64.67,0,0,1,13.5,5.1c2.1,1,3.9-2.1,1.8-3.1A80.72,80.72,0,0,0,106,23.8c-1.4-.4-3,1.3-2,2.6,1.7,2.3,3.7,2.8,6.5,3.5a24.42,24.42,0,0,1,12,6.5c1.5,1.5,3.7-.4,2.8-2.2a7.38,7.38,0,0,0-4.7-4.1c-1.9-.6-2.8,1.7-1.8,3a6,6,0,0,0,3.4,2.2c2,.6,3.1-2.2,1.4-3.3a19,19,0,0,0-11.8-3c-1.9.1-2.6,3.2-.5,3.5a13.52,13.52,0,0,1,5.8,2.4c.3-1.1.6-2.2.9-3.4-2.1.2-5.4.7-7-.8-.8-.8-1.4-3.3-2.2-4.2-1.1-1.4-2.7-3.1-4.7-2.8a3,3,0,0,0-2.4,3.5c.4,2.5,3,3.9,5.1,4.4a1.82,1.82,0,0,0,2.2-2.2c-.5-2.7-6.2-10.9-8.9-5.7-1.6,3.2,3.4,12.4,7.6,9.5,3.8-2.7-.9-10.1-4.6-10.2-6.9-.3-1.4,8.5,1,10.3a1.81,1.81,0,0,0,2.7-1.6c-.3-3.4-1.3-7.6-5.4-8-3.3-.3-6,2.8-7.5,5.4a1.85,1.85,0,0,0,2.5,2.5,3.52,3.52,0,0,0,1.4-5.5,1.89,1.89,0,0,0-2.8-.4c-2.5,2.6-1.4,7.3,2.7,7.4,5.1.1,5.9-5.5,4.2-9.1-.7-1.5-2.8-.9-3.3.4a8.57,8.57,0,0,0,1,8.2,1.85,1.85,0,0,0,3.4-.9c-.2-4.3-1.6-9-6.7-8.6-1.1.1-2.2,1.1-1.7,2.3.6,1.6,1.6,3.4,3.6,3.4a3,3,0,0,0,2.9-3c-.4-7.4-11,1.2-12.7,2.4-1.9,1.3-.2,4.3,1.8,3.1A3.68,3.68,0,0,0,92.3,29c.6-1.3-.4-3.2-2-2.6A14.16,14.16,0,0,0,83,31.6a1.81,1.81,0,0,0,1.6,2.7c2.3-.1,4.1-1,6.4-1.1,1.7,0,3.3.4,5.1,0a6.33,6.33,0,0,0,4.9-4.3c.7-2-2.2-3-3.3-1.4-1.6,2.4-.9,6.2,2.3,6.8,2.8.6,5.4-2.5,3.8-5.1a3.42,3.42,0,0,0-6.1.8c-1.2,3.8,2.8,5.4,5.7,5.7,2.2.8,2.2-2.8-.1-3Z" transform="translate(-64.98 -15.2)"/><path class="cls-1" d="M97.8,22.8c-1.4-.5-4.4-1-5.2-2.5a1.1,1.1,0,0,0-1-.6H90.4l1.2,1.2c2.7-.5,3.4-.3,2.1.5.7-.3,1.5-.6,2.2-.9,1.6-2.4,3.4-2.3,5.3.4.5.1,1,.1,1.5.2a4.87,4.87,0,0,1,.1-1.2l1.5-1.5a14.7,14.7,0,0,0-1.3-1l-2.1,1.2v-.5a1.22,1.22,0,0,0,.7,1.8c.5.8,1,1.7,1.5,2.5.5.1,1,.1,1.5.2-.3-.2-.6-.5-.9-.7.7.3,1.4.6,2,.8,0-.6-.1-1.1-.1-1.7a12.25,12.25,0,0,0,1.9.2c-.1-.4-.3-.8-.4-1.2-.6.3-1.2.7-1.8,1,1.8.9.5,4.4,3.3,4a2.11,2.11,0,0,0,1.2-3.5c-1.4-1.8-3.6-.8-5.2-.1-3.3,1.3-6,2.4-9.6,2.4a34.27,34.27,0,0,1-5.5-.6c-2.8-.5-.3-.7.3.7.2-.6.5-1.2.7-1.8-.2-.1-.4-.1-.5-.2-.2.6-.5,1.2-.7,1.8a19.45,19.45,0,0,0,2,.5,14.62,14.62,0,0,0,.5-2c-.8-.1-1.5-.3-2.3-.4-.2.7-.4,1.5-.6,2.2a18.61,18.61,0,0,1,4.1.8,1.19,1.19,0,0,0,.6-2.3,19.39,19.39,0,0,0-4.8-.9,1.19,1.19,0,0,0-.6,2.2,5.62,5.62,0,0,0,4.2.7,1.2,1.2,0,0,0,.5-2,4.76,4.76,0,0,0-4.4-1.2,1.26,1.26,0,0,0-.7,1.8,2.63,2.63,0,0,0,3.3,1.3,1.26,1.26,0,0,0,.7-1.8c-2.6-6.2-8.5.1-5.3,2.4,1.4.9,4.2.8,5.8,1a21.08,21.08,0,0,0,8.3-.5c1-.3,2-.8,3-1.1,1.8-.7,4.9-.5,4.7-2.7a3.29,3.29,0,0,0-2.1-2.7,1.21,1.21,0,0,0-1.8,1,3,3,0,0,0,.7,2.4,1.18,1.18,0,0,0,1.9.2l.3-.3a1.31,1.31,0,0,0,.3-1.2c-.1-.2-.1-.3-.2-.5a1.44,1.44,0,0,0-1.2-.9c-2.5-.2-3.1,3.6-.8,4.3a1.31,1.31,0,0,0,1.2-.3c2.8-2.7-3.8-6.1-3.7-1.2a1.16,1.16,0,0,0,2,.8c1.4-1.2,1-3.7-1.2-3.6-2.5.1-2.6,2.9-1.3,4.3a1.37,1.37,0,0,0,1.5.2c3.6-1.6.3-6-2.1-6.9.2.6.5,1.2.7,1.8.1-.1.2-.2.2-.3a1.28,1.28,0,0,0,0-1.2.52.52,0,0,1-.2-.4,1.21,1.21,0,0,0-2.1,1.2,3.12,3.12,0,0,0,2.7,2.1c.8.1,1.8-.5,1.5-1.5-1.6-4.3-7,.6-4.1,3.5a1.37,1.37,0,0,0,1.5.2c1.6-.8,2.3-3.9.3-4.8S98,20.2,99.1,22s3.6.4,3.5-1.6c-.2-2.6-3.6-3.4-5.4-1.9-1.6,1.3-1.4,4.3,1,4.4a2.34,2.34,0,0,0,1.5-4.2c-2-1.6-4.7.3-4.6,2.7.2,3.1,3.7,3.1,5.3,1.2s2-7-1.2-7.2c-2.4-.1-7,3.4-5.8,6a1.2,1.2,0,0,0,2.2-.9c-.9-2.7-4.8-2.8-3.7.3,1.1,3.4,6.3,1,4.5-2a1.33,1.33,0,0,0-1-.6c-6.1.5-2.2,7.5.4,4.1,3.7-4.9-6.4-7.6-7-1.7-.1.6.6,1.2,1.2,1.2s1.5.8,2,1.1a28.19,28.19,0,0,0,4.8,1.9c1.8.8,2.5-1.5,1-2Z" transform="translate(-64.98 -15.2)"/><path class="cls-1" d="M88.8,22c-.3-.1-.6-.1-.8-.3h0c0,.1.1.1,0,.2v-.2c0,.1-.1.2-.2.3s-.4,0-.1.1a2.25,2.25,0,0,0,1.4.1,1.2,1.2,0,1,0-.7-2.3c.4-.1.1-.1-.1-.1a1.27,1.27,0,0,0-.6-.1,2,2,0,0,0-1.1.2,2.16,2.16,0,0,0-1,1.7c0,1.5,1.3,2.3,2.6,2.7s2.1-1.9.6-2.3Z" transform="translate(-64.98 -15.2)"/><path d="M66.1,51.8c2.3-16.6,18.7-28.6,35.3-27.9a.6.6,0,1,0,0-1.2c-8.4-.4-18.5,3.4-25.1,8.6A30.88,30.88,0,0,0,65,51.4c-.2.9,1,1.2,1.1.4Z" transform="translate(-64.98 -15.2)"/><path d="M66.1,52.6c3.1-1.2,6.2-1.1,9.5-1.7,2.3-.4,4.3-1.6,6.6-2.1,5.1-1.3,10.8-.2,15.8.3,2.7.2,5-1.5,7.6-1.6,2.4-.1,4.6,1.1,7,.9a41,41,0,0,1,10.5,0c3.4.5,6.8,1.1,10.1,1.6a.62.62,0,0,0,.3-1.2c-5.7-.9-11.7-2.5-17.5-2.2a78.53,78.53,0,0,1-9.7-.2c-3.3-.2-6,1.7-9.5,1.2a50,50,0,0,0-13.4-.4c-3.3.4-6.2,2.2-9.5,2.7-2.9.4-5.4.4-8.2,1.5-.7.4-.4,1.5.4,1.2Z" transform="translate(-64.98 -15.2)"/><path d="M133.9,49.3C131.6,33.2,115.2,22,99.3,22.7a.6.6,0,1,0,0,1.2c15.4-.7,31.2,10.1,33.5,25.7,0,.8,1.2.5,1.1-.3Z" transform="translate(-64.98 -15.2)"/><path d="M87.9,24.8a2.83,2.83,0,0,1-1.6-.6.85.85,0,0,1-.1-1.3c.6-.5-.3-1.4-.8-.8a2,2,0,0,0-.3,2.5A3.23,3.23,0,0,0,87.6,26c.7.1,1-1,.3-1.2Z" transform="translate(-64.98 -15.2)"/><path d="M86.3,22.3c-.4-1.5,1.6-2,2.7-2,.8-.1.8-1.3,0-1.2a5.53,5.53,0,0,0-3,.9,2.61,2.61,0,0,0-.9,2.6c.2.7,1.4.4,1.2-.3Z" transform="translate(-64.98 -15.2)"/><path d="M89.4,20.1a4.51,4.51,0,0,1,5.1-1.8c.7.3,1-.9.3-1.2-2.5-.9-4.9.4-6.4,2.3-.5.7.5,1.3,1,.7Z" transform="translate(-64.98 -15.2)"/><path d="M95,18.4c1-1.2,3.6-2.9,5-1.5.5.5,1.4-.3.8-.8-2-2-5.3-.3-6.7,1.5-.4.5.4,1.4.9.8Z" transform="translate(-64.98 -15.2)"/><path d="M101,17.6c.7-1.3,3.1.1,3.4,1,.3.7,1.4.4,1.2-.3-.7-1.9-4.4-3.7-5.6-1.3a.58.58,0,1,0,1,.6Z" transform="translate(-64.98 -15.2)"/><path d="M105.4,19.6a1.85,1.85,0,0,1,2.6,1.1c.2.7,1.4.4,1.2-.3a3.1,3.1,0,0,0-4.4-1.8c-.7.3-.1,1.4.6,1Z" transform="translate(-64.98 -15.2)"/><path d="M108.5,21.6a1.21,1.21,0,0,1,1.1,1.6c-.3.7.9,1,1.2.3a2.32,2.32,0,0,0-2.2-3.1.6.6,0,1,0-.1,1.2Z" transform="translate(-64.98 -15.2)"/><path d="M109.2,23.8V24a.6.6,0,1,0,1.2,0v-.2c0-.7-1.2-.7-1.2,0Z" transform="translate(-64.98 -15.2)"/><path class="cls-2" d="M72.9,45.9c3.9-4.1,6.7-9.2,9.7-13.9a.58.58,0,1,0-1-.6c-3,4.6-5.7,9.7-9.5,13.7a.57.57,0,1,0,.8.8Z" transform="translate(-64.98 -15.2)"/><path class="cls-2" d="M80.4,44.6c3.8-5.1,7.4-10.2,10.9-15.5.4-.6-.6-1.2-1-.6C86.7,33.8,83.1,39,79.3,44a.63.63,0,0,0,1.1.6Z" transform="translate(-64.98 -15.2)"/><path class="cls-2" d="M113.2,32.8a159.87,159.87,0,0,1,14.5,12.8c.5.5,1.4-.3.8-.8A159.87,159.87,0,0,0,114,32c-.5-.5-1.4.3-.8.8Z" transform="translate(-64.98 -15.2)"/><path class="cls-2" d="M106.9,32.4a32.19,32.19,0,0,0,13.4,12.2c.7.3,1.3-.7.6-1a30.65,30.65,0,0,1-13-11.7c-.4-.7-1.4-.1-1,.5Z" transform="translate(-64.98 -15.2)"/><path class="cls-2" d="M89.8,22.7h0c.3-.8-.7-1.4-1.1-.7a1.19,1.19,0,0,0,.2,1.5.6.6,0,1,0,.9-.8Z" transform="translate(-64.98 -15.2)"/><path class="cls-2" d="M93.3,20.4a2.82,2.82,0,0,0,2.9.6c.7-.3.4-1.4-.3-1.2a1.54,1.54,0,0,1-1.7-.3c-.6-.5-1.5.4-.9.9Z" transform="translate(-64.98 -15.2)"/><path class="cls-2" d="M101.3,20a5.22,5.22,0,0,0,3.2,2.2.62.62,0,0,0,.3-1.2,3.8,3.8,0,0,1-2.5-1.6.58.58,0,1,0-1,.6Z" transform="translate(-64.98 -15.2)"/></svg>