<svg id="Layer_1" data-name="Layer 1" xmlns="http://www.w3.org/2000/svg" viewBox="0 0 137.31 31.14"><defs><style>.cls-1{fill:#002256;}.cls-2{fill:#00000a;}</style></defs><title>Gloves</title><path class="cls-1" d="M41.2,293.1c-5.1,1.9-4.8-5.2-3.4-7,.3-.4,1.3-.3,1.6-.8a7.73,7.73,0,0,0,1.2-3.7c.6-3.7,1.3-3.4,4.5-3.6,2.2-.1,4.6-.9,4.8,2.6.1,1.7-.8,9.2-2,3.6l-1.2,1.5L44,281.8H42.3c1-.8,2-1.6,2.9-2.4-.3-.7-.6-1.4-.8-2-.5.2-1.1.4-1.6.6l.3,2.4c1.4.9,2.9,1.9,4.3,2.8l1.2-1.5c-.4-.7-.7-1.4-1.1-2.2H45.4c1.1,2.3,2.1,4.7,3,7.1.7-.3,1.5-.6,2.2-.9a6.93,6.93,0,0,1-1.1-6.4,10.93,10.93,0,0,1-1.5.8c-.2.1-.3.2-.5.3a12.25,12.25,0,0,0,1.9.2v-.5c-.5-.1-1.1-.3-1.6-.4.2.3.3.7.5,1,.7,1.4,2.7.2,2.1-1.2-1-2.3-2.4,6-2.4,6.4-.2,1.5.1,5.6-.8,6.7-4.8,2.7-7.2.7-7.1-5.9,1.7-2.2,2.1-1.7,1.3,1.6a10.93,10.93,0,0,1,1.5-.8c-.6-.8-1.2-1.5-1.8-2.3l-1.2,1.2c1.4,0,2.6,4.2,2.9,5.2l1.5-1.5c-.4.6-.9,1.3-1.3,1.9.7-.3,1.4-.6,2-.8-.2.8-.4,1.7-.6,2.5l2.2-.3c-1-4-1-4-.2,0,.7-.4,1.3-.8,2-1.2a1.42,1.42,0,0,1,.6-.2c.4,1,2,1.2,2.3,0a4.68,4.68,0,0,0-.5-4l-2.1,1.2c.8,1.2,1.6,2.3,2.4,3.5a1.21,1.21,0,0,0,2.1-1.2c-.5-1.1-1-2.1-1.5-3.2l-2.1,1.2a9.49,9.49,0,0,1,.3,9.1,23.07,23.07,0,0,0-1.4,1.9c-2.3,2.7-3.4,1.6-3.2-3.2a12.25,12.25,0,0,0-1.9-.2c.1.6.1,1.2.2,1.9.7.3,1.5.6,2.2.9a1.76,1.76,0,0,1,.4-.5c-.6-.2-1.2-.5-1.8-.7,0,1.1,0,2.2.1,3.3-.1,1,.8,2,1.8,1.4,3.6-2.2,2.5-7.4,2.6-11l-2.4.3a10.81,10.81,0,0,1,.8,5.6h2.4a13.67,13.67,0,0,1,.9-4H48.3c.1,1.1.2,2.2.4,3.3l2.4-.3c0-1.1-.1-2.2-.1-3.3-.7.3-1.4.6-2,.8l.3.6c.7-.3,1.5-.6,2.2-.9-.3-.8-.5-1.7-.8-2.5l-1.2,1.5c1.3-.1,1.5-.1,2.2-1.2l-2.2-.3c.5,1.8,1.5,6.5-1,6.3-1,0-1.6-.6-1.9-1.7a4.8,4.8,0,0,0,1.4,2.5c.5-.6,1-1.3,1.5-1.9-.6-.5-1.3-1-1.9-1.5-.6.5-1.3,1-1.9,1.5a7.29,7.29,0,0,1,2.6,2.9c.3-.6.7-1.2,1-1.8-2.6-.2-4.2,1-6.6,1.7-4.5,1.4-7.1-.6-7.2-5.4,0-1.5.5-2.8.3-4.4H33.4a7.72,7.72,0,0,1,0,3.7l2.2-.6a.37.37,0,0,1,.1-.3c-.6.2-1.2.5-1.8.7l3.6,2.4a10.93,10.93,0,0,1-1.5.8c.5.6,1,1.2,1.6,1.8l1.5-1.5c-.5-.4-1.1-.8-1.6-1.2L36,297.5l.7.7,1.5-1.5L36.8,295c-.7.3-1.5.6-2.2.9a21.41,21.41,0,0,0,2.8,3.2c1.1,1,2.8-.7,1.7-1.7a10.15,10.15,0,0,1-2.4-2.7,1.21,1.21,0,0,0-2.2.9c.4,2,1.2,2.7,3.1,3.3a1.23,1.23,0,0,0,1.5-1.5c-.6-1.7-.7-1.8-2.4-2.4a1.26,1.26,0,0,0-1.5,1.5c.6,1.8,1.4,2.6,3.3,2.8a1.26,1.26,0,0,0,1.5-1.5,4,4,0,0,0-3.3-3.4,1.2,1.2,0,0,0-1.5.8c0,.2-.1.4-.1.6a1.34,1.34,0,0,0,.6,1.4c.2.1.3.3.5.4a1.05,1.05,0,0,0,1.2,0c3.4-1.7-.4-5-2.2-6.1a1.28,1.28,0,0,0-1.8.7,2.23,2.23,0,0,0,.2,2.1c.5,1.2,2.1.4,2.2-.6a7.72,7.72,0,0,0,0-3.7c-.2-1.5-2.6-1.5-2.4,0,.5,4.5-1.8,8.3,2.6,11.5,4.8,3.5,8.4-1.5,13.3-1a1.18,1.18,0,0,0,1-1.8,13.84,13.84,0,0,0-3-3.4c-1-.8-2.7.2-1.9,1.5a6.56,6.56,0,0,0,2.8,2.4,1.23,1.23,0,0,0,1.5-1.9c-1.4-1.8-3.8-4.7-6.1-2.9a1.25,1.25,0,0,0-.3,1.2c.7,1.9,3.6,7.6,6.5,6.5,3.5-1.3,2.7-8.2,2.1-10.8a1.25,1.25,0,0,0-2.2-.3h-.2a1.25,1.25,0,0,0-1.2,1.5,8.67,8.67,0,0,0,1,3.1c.6,1.3,2.5.3,2.2-.9a2.6,2.6,0,0,0-.9-1.6,1.18,1.18,0,0,0-2,.8,8.6,8.6,0,0,0,.2,3.9c.2,1.3,2.4,1,2.4-.3a16.66,16.66,0,0,0-.5-3.9c-.2-1.2-2-1.1-2.3,0a18.62,18.62,0,0,0-.9,4.7c-.2,1.5,2.2,1.5,2.4,0a11,11,0,0,0-.9-6.2,1.23,1.23,0,0,0-2.4.3c0,2.1.8,7.6-1.4,8.9.6.5,1.2.9,1.8,1.4a14.21,14.21,0,0,0-.1-4.6,1.2,1.2,0,0,0-1.8-.7,3.48,3.48,0,0,0-1.5,1.9c-.5,1.3,1.6,2.1,2.2.9a3.76,3.76,0,0,0-.2-4.3,1.17,1.17,0,0,0-1.9-.2c-1.4,1.3-3,3.2-1.6,5.2a2.61,2.61,0,0,0,3.6.8c3.4-2.4-1.5-7.8-4.8-4.9-2.7,2.3.1,7,2.7,4.2a2.2,2.2,0,1,0-3.6-2.4,1.28,1.28,0,0,0,0,1.2c1.1,1.7,3,2.6,4.8,1.3.3-.2.7-.6.6-1-.4-3.4-5.4-3.7-5.6,0a3.16,3.16,0,0,0,5.7,1.9c1.8-2.5-.8-6.6-3.8-5.4s-2,6.8,1.4,6.4c3.6-.4,2.6-6.1.2-7.4-4-2.2-6.9,2.8-5.5,6.2,1.9,4.6,7.9,4.1,11.3,1.6,4.9-3.6,5.5-9.9,2.7-15-.7-1.4-2.7-.2-2.1,1.2.5,1.1,1,2.1,1.5,3.2l2.1-1.2c-.8-1.2-1.6-2.3-2.4-3.5a1.21,1.21,0,0,0-2.1,1.2c.1.7.2,1.4.3,2.2h2.3c-1.9-4.8-7.8-1.3-4.6,2.6.8,1,2.3-.1,2-1.2-.6-2.7-4-4.5-4.6-.8-.3,1.9,1.5,4.7,3.5,3.1,1.7-1.3,1.3-6.6-1-7.3-4-1.1-2.9,5-2,6.7a1.22,1.22,0,0,0,2.2-.3c.4-2.2.4-8.4-3.4-7.7s-1.5,4.7,0,6.2a1.18,1.18,0,0,0,2-.8c.2-2.7-1.9-6.6-5-4.7a1.45,1.45,0,0,0-.6,1.4c.3,2.2,1.9,3.2,3.9,3.7a1.23,1.23,0,0,0,1.5-1.5c-.8-2.5-2-7.1-5.2-7a1.16,1.16,0,0,0-1.2,1.2,5,5,0,0,0,3.6,4.6,1.2,1.2,0,0,0,1.5-.8c.5-2.5.8-7.2-3-6-1.8.6-7.8,6.7-3.6,8.3,2.3.8,4.1-2.3,2.2-3.8s-4.4.7-3.6,2.8c1,2.8,4.9,1.8,5.4-.8s-1.7-3.9-3.8-2.6c-2.3,1.4-2.4,5.7.8,5.9,3,.3,3.2-3.2,1.2-4.6a1.27,1.27,0,0,0-1.2,0c-2.2,1.1-3.1,4.9-.1,5.8,2.1.7,4.1-1.7,2.5-3.5-1.9-2-4.7.3-4.3,2.6a3.48,3.48,0,0,0,6.3,1.3c1.2-1.8.4-4.9-2.1-4.5-2.8.5-2.8,4.5-1.1,6.1,2.3,2.1,6.4.2,6.2-2.9-.1-2.1-2.6-3.8-4.3-2.1-2.4,2.4,0,8.2,3.3,8.4,3.8.3,3.7-4.5,2-6.6a1.31,1.31,0,0,0-1.2-.3c-2.6.5-3.8,5-1.5,6.7,3.8,2.8,5.4-3.2,5.8-5.6.3-2.2.5-4.5.8-6.7.3-2.5,1.2-4.7,1.7-7.1.2-1,.7-1.7-.4-2.5-2.5-2-4,1.6-3.2,3.5l2.1-1.2c-.2-.3-.3-.7-.5-1a1.16,1.16,0,0,0-1.6-.4c-1.5,1.1-1.8,2.2-.9,3.8a1.24,1.24,0,0,0,1.9.2c1.6-1.7,1.6-3.8-.8-4.6a1.2,1.2,0,0,0-1.4.6,4.35,4.35,0,0,0-.4.7,1.28,1.28,0,0,0,0,1.2c2.2,2.9,5-.9,2-2.2a1.35,1.35,0,0,0-1.5.8,10.28,10.28,0,0,0,1.3,8.2c.7,1.1,2.7.4,2.2-.9-.7-1.8-1.7-6.8-4.7-6-1.6.4-1.9,2-1.4,3.5s2.1,3,3.7,2c2.3-1.5.2-5.6-.8-7.2a1.22,1.22,0,0,0-2.1,0c-1.8,2.8-.1,5.7,3.2,5.8a1.29,1.29,0,0,0,1.2-1.5A5.78,5.78,0,0,0,43,278c-1.4.3-.9,2.2.3,2.4a3.27,3.27,0,0,0,3.3-1.3,1.18,1.18,0,0,0-.8-2c-2.3-.2-7.9,2.6-4.2,5.2,2.3,1.6,4.2-1.3,2.5-3.1a1.31,1.31,0,0,0-1.2-.3c-2.3.6-2.4,3.9.2,4.1,3.1.3,2.7-3,1-4.4a1.23,1.23,0,0,0-1.5.2c-1.5,1.6-2.9,5.8.8,5.8,2.7,0,2.9-3,1.1-4.4a1.24,1.24,0,0,0-1.7,0c-1.7,1.8-2.6,6.4,1.5,6.2a2.41,2.41,0,0,0,1.1-4.5,1.27,1.27,0,0,0-1.2,0c-2.2,1.5-2.3,5.4.8,6,3.3.6,4.2-3.5,1.5-4.9a1.37,1.37,0,0,0-1.5.2c-2.3,2.3-1.2,7.1,2.7,5.8,2.8-.9,2.6-5.3-.5-5.4a1.29,1.29,0,0,0-1.2,1.5c.4,1.7,2.1,6,4.5,5.3.9-.3,1.2-1,1.5-1.8a9.42,9.42,0,0,0,.1-2.9,43.74,43.74,0,0,1,.9-5c.6-2.8.7-4.5-2.6-5-2.6-.4-9.4-.8-11.4,1.7-.9,1.1-.6,1.8-.7,3.1-.3,2.2,1,.6-2,3.8-.4.4-1.1.5-1.4,1-2,3.1-.2,6.9,1.8,9.7,4.2,6.2,7.9-2.5,3.6-2.4a1.4,1.4,0,0,0-1.2.9c-1.2,4,6.1,3.6,3.9-.6a1.1,1.1,0,0,0-1-.6c-1.3-.1-1.5.1-2.2,1.2A1.23,1.23,0,0,0,40,295c.2.2.3.4.5.5a1.1,1.1,0,0,0,1.2.3,1.42,1.42,0,0,1,.6-.2c1-.8.4-3.1-1.1-2.5Z" transform="translate(-31.55 -275.4)"/><path class="cls-1" d="M40,299a1.2,1.2,0,0,0,0-2.4,1.2,1.2,0,0,0,0,2.4Z" transform="translate(-31.55 -275.4)"/><path class="cls-1" d="M39.8,298.7a1.2,1.2,0,0,0,0-2.4,1.2,1.2,0,0,0,0,2.4Z" transform="translate(-31.55 -275.4)"/><path class="cls-1" d="M38.8,299.4a6,6,0,0,1-1.1-3c-.6.3-1.2.7-1.8,1,.5.5.9,1,1.4,1.5.6-.5,1.2-.9,1.8-1.4a14,14,0,0,1-2.7-2.1c-1-.9-.6.5-1.1-1.5a4,4,0,0,1,1.2-4.3c.4-.4,1.1-.6,1.5-1.1,1.2-1.4,1.5-5.3,3.7-5.6,1.5-.2.9-2.5-.6-2.3-2.2.3-3.1,1.8-3.8,3.8a5.85,5.85,0,0,1-1.4,2.7,14.63,14.63,0,0,0-1.3.9,3.63,3.63,0,0,0-1.3,1.9c-.5,1.5-1.4,4.7-.4,6.3.5.8,1.1.8,1.7,1.2,1.1.7,2.3,1.6,3.5,2.3a1.26,1.26,0,0,0,1.8-1.4,4.5,4.5,0,0,0-2.5-2.9c-.7-.4-1.9.1-1.8,1a9.12,9.12,0,0,0,1.4,4.2c.6,1.4,2.6.2,1.8-1.2Z" transform="translate(-31.55 -275.4)"/><path class="cls-2" d="M37.7,278a15.07,15.07,0,0,1,.3,5.2c-.1.8,1.1.8,1.2,0a14.5,14.5,0,0,0-.4-5.5c-.1-.8-1.3-.4-1.1.3Z" transform="translate(-31.55 -275.4)"/><path class="cls-2" d="M38.2,283c-2,.1-4.3.4-5.3,2.4a6.88,6.88,0,0,0-.3,2.5c-.1,2.2-.7,4.2-1,6.4-.6,5.6,4.4,9.6,9.5,10.7a.62.62,0,0,0,.3-1.2c-5-1.1-9.4-5.1-8.4-10.6.6-3.5.1-8.7,5.1-9,.8,0,.8-1.2.1-1.2Z" transform="translate(-31.55 -275.4)"/><path class="cls-2" d="M41,305.5a8.13,8.13,0,0,0,5.1-1c1.4-.9,2.4-2.1,3.9-2.9a4.31,4.31,0,0,0,1.7-1.3c3.1-3.7,1.7-11,.1-15-.3-.7-1.4-.4-1.2.3,1.6,4.1,2.7,9.8-.2,13.5-1.9,2.4-6.5,5.4-9.5,5.2-.7,0-.7,1.2.1,1.2Z" transform="translate(-31.55 -275.4)"/><path class="cls-2" d="M51.8,285.5a26,26,0,0,1,1.1-6.3.62.62,0,0,0-1.2-.3,30.25,30.25,0,0,0-1.1,6.7c0,.7,1.2.7,1.2-.1Z" transform="translate(-31.55 -275.4)"/><path class="cls-2" d="M38.6,278.7c0-1.2,2.9-1.9,3.8-1.9a27.15,27.15,0,0,1,2.8.1c.9,0,7.7-.2,6.8,2-.3.7.9,1,1.2.3,1.6-3.9-4.9-3.4-6.9-3.4-2.6-.1-9-1.3-8.9,3,.1.6,1.3.6,1.2-.1Z" transform="translate(-31.55 -275.4)"/><path class="cls-1" d="M158.6,296.4a1.42,1.42,0,0,0,.6.2,1.31,1.31,0,0,0,1.2-.3c.2-.2.3-.4.5-.5a1.37,1.37,0,0,0,.2-1.5c-.7-1-.9-1.2-2.2-1.2a1.1,1.1,0,0,0-1,.6c-2.2,4.2,5.2,4.6,3.9.6a1.29,1.29,0,0,0-1.2-.9c-4.4,0-1,8.1,3.2,3.1,1.8-2.2,4.4-7.5,2.2-10.3-.4-.5-1-.6-1.4-1.1a2,2,0,0,1-1.3-1.4,1.64,1.64,0,0,1-.8-2.5c-.2-1.4.2-1.9-.7-3.1-2.1-2.5-7.9-1.8-10.6-1.7-3.1.1-4.3,1.2-3.6,4.4.3,1.5,1,3.1,1.2,4.7.1,1.1-.3,2.7.1,3.8.3.7.5,1.4,1.3,1.7,2.6.8,4.3-3.4,4.7-5.2a1.19,1.19,0,0,0-1.2-1.5c-3.1.1-3.3,4.5-.5,5.4,3.9,1.3,5-3.5,2.7-5.8a1.37,1.37,0,0,0-1.5-.2c-2.7,1.4-1.9,5.5,1.5,4.9,3.1-.6,3-4.5.8-6a1.27,1.27,0,0,0-1.2,0,2.44,2.44,0,0,0,1.1,4.5c4,.3,3.1-4.4,1.5-6.2a1.24,1.24,0,0,0-1.7,0c-1.8,1.5-1.6,4.4,1.1,4.4,3.7.1,2.3-4.2.8-5.8a1.34,1.34,0,0,0-1.5-.2c-1.7,1.3-2.1,4.7,1,4.4,2.6-.3,2.5-3.5.2-4.1a1.31,1.31,0,0,0-1.2.3c-1.6,1.8.3,4.8,2.5,3.1,3.7-2.6-2-5.4-4.2-5.2a1.16,1.16,0,0,0-.8,2,3.47,3.47,0,0,0,3.3,1.3c1.2-.1,1.8-2,.3-2.4a5.78,5.78,0,0,0-7.3,4.5,1.24,1.24,0,0,0,1.2,1.5c3.3-.1,5-2.9,3.2-5.8a1.22,1.22,0,0,0-2.1,0c-1,1.6-3,5.5-.9,7.1,1.5,1.1,3.3-.5,3.8-1.9s.3-3-1.2-3.4c-3.1-1-4.2,4.2-4.9,5.9-.5,1.3,1.5,2,2.2.9a10,10,0,0,0,1.3-8.2,1.13,1.13,0,0,0-1.5-.8c-3,1.2-.2,5.1,2,2.2a1.28,1.28,0,0,0,0-1.2,4.35,4.35,0,0,1-.4-.7,1.45,1.45,0,0,0-1.4-.6c-2.4.8-2.3,2.9-.8,4.6a1.24,1.24,0,0,0,1.9-.2c1-1.6.6-2.7-.9-3.8a1.14,1.14,0,0,0-1.6.4c-.2.3-.3.7-.5,1l2.1,1.2c.8-1.8-.5-5.3-3.1-3.6-.9.6-.8,1.4-.7,2.2a23.94,23.94,0,0,1,1.3,2.8c.2,1.6.4,3.2.6,4.7.3,2.2.5,4.5.8,6.7.3,2.4,1.8,8.2,5.6,5.7,2.5-1.6,1.3-6.3-1.4-6.8a1.31,1.31,0,0,0-1.2.3c-1.6,1.9-2,5.6,1,6.4,3.4.9,5.3-3.4,5-6.1-.3-2.3-2.6-4.2-4.4-1.7-2,2.6,1.2,6.2,4.1,5.5,7.3-1.8-1.2-11-2.3-4.8-.6,3.4,3.8,5.2,6,2.8,1.6-1.7,1-5.1-1.7-5.1a2.19,2.19,0,0,0-.6,4.3c3.7,1,4-4.5,1.3-5.9a1.27,1.27,0,0,0-1.2,0c-2.1,1.4-1.8,4.9,1.2,4.6,3.2-.3,3.1-4.5.8-5.9-2.1-1.3-4.3.1-3.8,2.6s4.4,3.5,5.4.8c.7-2-1.8-4.2-3.6-2.8a2.24,2.24,0,0,0,2.2,3.8c4.3-1.6-1.7-7.7-3.6-8.3-3.8-1.2-3.5,3.5-3,6a1.2,1.2,0,0,0,1.5.8,4.92,4.92,0,0,0,3.6-4.6,1.16,1.16,0,0,0-1.2-1.2c-3.2-.1-4.5,4.5-5.2,7a1.23,1.23,0,0,0,1.5,1.5c2-.5,3.6-1.5,3.9-3.7a1.34,1.34,0,0,0-.6-1.4c-3.1-1.9-5.2,1.9-5,4.7a1.17,1.17,0,0,0,2,.8c1.5-1.5,3.7-5.5,0-6.2s-3.8,5.5-3.4,7.7a1.22,1.22,0,0,0,2.2.3c.9-1.7,2-7.8-2-6.7-2.2.6-2.6,6-1,7.3,2,1.6,3.8-1.3,3.5-3.1-.6-3.8-4-2-4.6.8-.2,1.1,1.2,2.2,2,1.2,3.2-3.8-2.7-7.4-4.6-2.6h2.3c.1-.7.2-1.4.3-2.2a1.21,1.21,0,0,0-2.1-1.2c-.8,1.2-1.6,2.3-2.4,3.5l2.1,1.2c.5-1.1,1-2.1,1.5-3.2a1.21,1.21,0,0,0-2.1-1.2c-2.8,5.1-2.2,11.4,2.7,15,3.4,2.5,9.4,3,11.3-1.6,1.4-3.4-1.5-8.4-5.5-6.2-2.4,1.3-3.4,7,.2,7.4,3.3.4,4.2-5.2,1.4-6.4-3-1.3-5.7,2.9-3.8,5.4a3.16,3.16,0,0,0,5.7-1.9c-.2-3.7-5.1-3.4-5.6,0-.1.4.3.8.6,1,1.8,1.3,3.7.4,4.8-1.3a1.28,1.28,0,0,0,0-1.2c-1.6-3.1-5.9-.4-3.7,2.3,2.4,3,5.7-1.5,2.8-4-3.2-2.8-8.2,2.2-5,4.8a2.57,2.57,0,0,0,3.6-.6c1.5-1.9-.1-4-1.5-5.3a1.31,1.31,0,0,0-1.9.2c-1.1,1.6-1,2.6-.2,4.3.6,1.2,2.7.3,2.2-.9a3.17,3.17,0,0,0-1.5-1.9,1.22,1.22,0,0,0-1.8.7,14.21,14.21,0,0,0-.1,4.6c.6-.5,1.2-.9,1.8-1.4-2.2-1.3-1.4-6.9-1.4-8.9,0-1.4-1.9-1.5-2.4-.3a12.07,12.07,0,0,0-.9,6.2c.2,1.5,2.6,1.5,2.4,0a38.9,38.9,0,0,0-.9-4.7c-.3-1.1-2.1-1.2-2.3,0a26,26,0,0,0-.5,3.9,1.23,1.23,0,0,0,2.4.3,8.6,8.6,0,0,0,.2-3.9,1.17,1.17,0,0,0-2-.8,2.6,2.6,0,0,0-.9,1.6c-.3,1.3,1.6,2.2,2.2.9a8.67,8.67,0,0,0,1-3.1,1.2,1.2,0,0,0-1.2-1.5H151a1.25,1.25,0,0,0-2.2.3c-.7,2.7-1.4,9.5,2.1,10.8,2.9,1.1,5.8-4.7,6.5-6.5a1.31,1.31,0,0,0-.3-1.2c-2.4-1.8-4.7,1.1-6.1,2.9a1.23,1.23,0,0,0,1.5,1.9,6,6,0,0,0,2.8-2.4c.8-1.2-.9-2.2-1.9-1.5a12.24,12.24,0,0,0-3,3.4c-.4.7.1,1.9,1,1.8,4.9-.5,8.5,4.6,13.3,1,4.4-3.2,2.1-7,2.6-11.5.2-1.5-2.2-1.5-2.4,0a7.72,7.72,0,0,0,0,3.7c.1,1,1.7,1.8,2.2.6a2.26,2.26,0,0,0,.2-2.1,1.26,1.26,0,0,0-1.8-.7c-1.9,1.1-5.6,4.4-2.2,6.1a1.05,1.05,0,0,0,1.2,0c.2-.1.3-.3.5-.4a1.28,1.28,0,0,0,.6-1.4c0-.2-.1-.4-.1-.6a1.2,1.2,0,0,0-1.5-.8,4.42,4.42,0,0,0-3.3,3.4c-.3,1,.6,1.6,1.5,1.5,1.9-.3,2.6-1.1,3.3-2.8a1.23,1.23,0,0,0-1.5-1.5c-1.7.6-1.8.7-2.4,2.4a1.26,1.26,0,0,0,1.5,1.5,3.82,3.82,0,0,0,3.1-3.3,1.2,1.2,0,0,0-2.2-.9,12.53,12.53,0,0,1-2.4,2.7c-1.1,1,.6,2.7,1.7,1.7a16.92,16.92,0,0,0,2.8-3.2c-.7-.3-1.5-.6-2.2-.9l-1.4,1.7L164,299l.7-.7-1.5-1.5c-.5.4-1.1.8-1.6,1.2l1.5,1.5c.5-.6,1-1.2,1.6-1.8a10.93,10.93,0,0,0-1.5-.8l3.6-2.4c-.6-.2-1.2-.5-1.8-.7a.37.37,0,0,0,.1.3l2.2.6a7.72,7.72,0,0,1,0-3.7h-2.4a10.75,10.75,0,0,0,.1,3.1c.5,5-1.6,8.3-7,6.6-2.4-.7-3.9-1.9-6.6-1.7.3.6.7,1.2,1,1.8a8,8,0,0,1,2.6-2.9c-.6-.5-1.3-1-1.9-1.5-.6.5-1.3,1-1.9,1.5.5.6,1,1.3,1.5,1.9a4.8,4.8,0,0,0,1.4-2.5,2,2,0,0,1-1.9,1.7c-2.5.1-1.5-4.5-1-6.3l-2.2.3c.7,1.1.9,1.2,2.2,1.2l-1.2-1.5c-.3.8-.5,1.7-.8,2.5.7.3,1.5.6,2.2.9l.3-.6c-.7-.3-1.4-.6-2-.8,0,1.1-.1,2.2-.1,3.3l2.4.3c.1-1.1.2-2.2.4-3.3h-2.3a13.67,13.67,0,0,1,.9,4h2.4a10.81,10.81,0,0,1,.8-5.6l-2.4-.3c0,3.6-1,8.8,2.6,11,1,.6,1.9-.4,1.8-1.4s0-2.2.1-3.3c-.6.2-1.2.5-1.8.7a1.76,1.76,0,0,0,.4.5c.7-.3,1.5-.6,2.2-.9.1-.6.1-1.2.2-1.9a12.25,12.25,0,0,1-1.9.2c.3,4.5-.4,5.8-2.2,3.9a6.71,6.71,0,0,1-2.4-2.6c-1.6-2.9-1.2-6.2.3-9.1L149,289c-.5,1.1-1,2.1-1.5,3.2a1.21,1.21,0,0,0,2.1,1.2c.8-1.2,1.6-2.3,2.4-3.5l-2.1-1.2a4.68,4.68,0,0,0-.5,4c.3,1.2,1.9,1,2.3,0a1.42,1.42,0,0,0,.6.2c.7.4,1.3.8,2,1.2.8-4,.7-4-.2,0l2.2.3c-.2-.8-.4-1.7-.6-2.5.7.3,1.4.6,2,.8-.4-.6-.9-1.3-1.3-1.9l1.5,1.5c.3-1,1.5-5.2,2.9-5.2l-1.2-1.2c-.6.8-1.2,1.5-1.8,2.3a10.93,10.93,0,0,0,1.5.8c-.8-3.3-.4-3.9,1.3-1.6.1,6.6-2.2,8.6-7.1,5.9-.9-1.1-.6-5.3-.8-6.7-.1-.4-1.5-8.7-2.4-6.4-.6,1.4,1.4,2.6,2.1,1.2.2-.3.3-.7.5-1-.5.1-1.1.3-1.6.4v.5a12.25,12.25,0,0,1,1.9-.2c-.2-.1-.3-.2-.5-.3a10.93,10.93,0,0,0-1.5-.8,6.93,6.93,0,0,1-1.1,6.4c.7.3,1.5.6,2.2.9.9-2.4,1.9-4.8,3-7.1h-2.1c-.4.7-.7,1.4-1.1,2.2l1.2,1.5c1.4-.9,2.9-1.9,4.3-2.8l.3-2.4c-.5-.2-1.1-.4-1.6-.6-.3.7-.6,1.4-.8,2,1,.8,2,1.6,2.9,2.4h-1.7l-2.7,3.9-1.2-1.5c-1.2,5.6-2.2-1.9-2-3.6.2-3.4,2.6-2.7,4.8-2.6,3.2.1,3.9-.1,4.5,3.6.3,1.8.2,2.1,1.2,3.7.3.5,1.3.4,1.6.8,1.5,1.9,1.7,9-3.4,7a1.39,1.39,0,0,0-.9,2.6Z" transform="translate(-31.55 -275.4)"/><path class="cls-1" d="M160.5,300a1.2,1.2,0,0,0,0-2.4,1.2,1.2,0,1,0,0,2.4Z" transform="translate(-31.55 -275.4)"/><path class="cls-1" d="M160.6,299.7a1.2,1.2,0,0,0,0-2.4,1.2,1.2,0,0,0,0,2.4Z" transform="translate(-31.55 -275.4)"/><path class="cls-1" d="M163.7,301.6a9.12,9.12,0,0,0,1.4-4.2c.1-1-1.1-1.4-1.8-1a4.8,4.8,0,0,0-2.5,2.9c-.4,1,.9,1.8,1.8,1.4,1.1-.6,1.9-1.6,3.1-2.2.8-.4,1.4-.2,2-1.1,1-1.6.2-4.8-.3-6.4a3.67,3.67,0,0,0-1-1.7c-1.2-1.2-2.2-1.3-2.9-3.3s-1.5-3.9-4-4.2c-1.5-.2-2.2,2.1-.6,2.3,1.1.2,2.1,2.6,2.6,3.5a8,8,0,0,0,.8,1.6c.5.7,1.2.9,1.8,1.5a5.33,5.33,0,0,1,1.5,3.2c.1,1.4-.6,1.8-1.3,2.5a22.05,22.05,0,0,1-2.9,2.2c.6.5,1.2.9,1.8,1.4.5-.5.9-1,1.4-1.5-.6-.3-1.2-.7-1.8-1a5.5,5.5,0,0,1-1.1,3c-.9,1.2,1.2,2.4,2,1.1Z" transform="translate(-31.55 -275.4)"/><path class="cls-2" d="M161.6,278.7a14.5,14.5,0,0,0-.4,5.5c.1.8,1.3.8,1.2,0a15.21,15.21,0,0,1,.3-5.2.57.57,0,1,0-1.1-.3Z" transform="translate(-31.55 -275.4)"/><path class="cls-2" d="M162.3,285.2c5,.4,4.5,5.6,5.1,9,.9,5.4-3.4,9.5-8.4,10.6-.8.2-.4,1.3.3,1.2,5.1-1.1,10.2-5.1,9.5-10.7-.2-1.8-.8-3.4-.9-5.2a16.68,16.68,0,0,0-.2-3.2c-.8-2.4-3.3-2.7-5.5-2.9-.7,0-.7,1.2.1,1.2Z" transform="translate(-31.55 -275.4)"/><path class="cls-2" d="M159.4,305.3c-3,.2-7.6-2.8-9.5-5.2-2.9-3.7-1.8-9.4-.2-13.5.3-.7-.9-1-1.2-.3-1.5,4-3,11.3.1,15a5.5,5.5,0,0,0,1.7,1.3c1.4.9,2.5,2,3.9,2.9,1.6,1.1,3.2,1.1,5.1,1a.6.6,0,1,0,.1-1.2Z" transform="translate(-31.55 -275.4)"/><path class="cls-2" d="M149.9,286.5a30.25,30.25,0,0,0-1.1-6.7c-.2-.7-1.4-.4-1.2.3a27.77,27.77,0,0,1,1.1,6.3.6.6,0,1,0,1.2.1Z" transform="translate(-31.55 -275.4)"/><path class="cls-2" d="M163,279.6c.2-4.3-6.3-3.1-8.9-3-1.9,0-8.4-.4-6.9,3.4.3.7,1.4.4,1.2-.3.8-.6,1.6-1.2,2.4-1.9h1.7a27.15,27.15,0,0,0,2.8-.1c1.4,0,6.7-.8,6.6,1.8a.56.56,0,1,0,1.1.1Z" transform="translate(-31.55 -275.4)"/></svg>