<svg id="Layer_1" data-name="Layer 1" xmlns="http://www.w3.org/2000/svg" viewBox="0 0 13.9 26.7"><defs><style>.cls-1{fill:#fff200;}.cls-2{fill:#344fa2;}.cls-3{fill:none;stroke:#231f20;stroke-miterlimit:10;}.cls-4{fill:#231f20;}.cls-5{fill:#f8cd0e;}.cls-6{fill:#fdee42;}</style></defs><title>Suncreme</title><path class="cls-1" d="M41.29,296.75l-.34-.17-.17.63-.46-.71-.22.55-.14-.44c-.36-.27-.71.29-.45.59h0l.38-.37h-.21l.27.64-.25.05.19-.7-.21.37.59-.45-.7-.71.69-.09-.25-.43-.69.29.15.28.59-.45-.22-.43-.69.29a5.36,5.36,0,0,0,.63,1l.42-.55-.44-.41-.55.42A19.75,19.75,0,0,1,41,297.06l.38-.65a3.3,3.3,0,0,1-1.08-.62l-.27.64a3.81,3.81,0,0,1,1.94.65l.29-.69a7.59,7.59,0,0,1-1.82-.79l-.29.69a19,19,0,0,1,3,.68l.1-.74a4.37,4.37,0,0,1-2.06-.66l-.19.7a10.51,10.51,0,0,1,2.56.46l.2-.72a16.28,16.28,0,0,1-2.35-.7l-.2.72a13.58,13.58,0,0,1,2.69.65l.2-.72a2.65,2.65,0,0,1-1.27-.39l-.19.7,3.32.21v-.75a5,5,0,0,1-2.27-.41l-.19.7c.38,0,2.55-.32,2.75,0,0,.06-.62,1.11-.69,1.45s.26.64.55.42a2.1,2.1,0,0,0,.93-1.4l-.74-.1c0,.76-.94.62-1.33.51l-1.2-.34c-.4-.11-.68.5-.29.69l1.41.65.29-.69c-1.17-.19-2.31-.61-3.47-.8-.39-.06-.81-.12-1.08.25-.68,1,.92,1.37,1.52,1.5s.67-.62.2-.72a15.74,15.74,0,0,1-1.88-.54c-.4-.14-.68.51-.29.69l.39.23.36-.63a3,3,0,0,1-.6-.15c-.34-.1-.67.39-.36.63,1.93,1.52,4.19,1,6.43.66a.38.38,0,0,0,.1-.74,36.39,36.39,0,0,0-4.24-1.13.38.38,0,0,0-.36.63,3.52,3.52,0,0,0,1.5.92v-.72c3.07-1.15,1.91-.45,2.42.35a.38.38,0,0,0,.42.17c.66-.25,1.63-1.5,1.41-2.26s-1.19-.59-1.82-.5c-.42.06-.32.77.1.74s.08,1.89.1,1.73c0,.32.36.69.63.36l.29-.35-.64-.27,0,.45.7-.19a6,6,0,0,0-2.6-2.28c-1.59-.7-3.2-.21-4.82-.64a.38.38,0,0,0-.2.72,16.85,16.85,0,0,0,3.15.19,5.09,5.09,0,0,1,3.83,2.39.38.38,0,0,0,.7-.19l0-.45a.38.38,0,0,0-.64-.27l-.29.35.63.36c.12-.8.54-2.78-.83-2.68l.1.74c.68-.1.58,1.3.41,1.3,0,0-.09-.42-.21-.46-.35-.11-.44-.4-.87-.2a.8.8,0,0,0,0,1.42c1.71.72.5-3.25-.79-1.28-.38.57,0,1.59.86,1.29s.53-1.2,0-1.54c-1.75-1.23-1.9,2.38-.37,1.57a.37.37,0,0,0,.19-.32c-.06-.89-1.42-1.68-1.94-.63-.37.73.56,1.55,1.18.95s-.49-1.26-1.12-1.14c-.92.19-1.05,1.16-.19,1.5a.37.37,0,0,0,.36-.1.81.81,0,0,0-1-1.24c-1,.69.33,1.4,1.08,1.12a.38.38,0,0,0,0-.72,2.16,2.16,0,0,1-1.17-.73l-.36.63a36.39,36.39,0,0,1,4.24,1.13l.1-.74c-2,.26-4.18.91-5.9-.44l-.36.63a3,3,0,0,0,.6.15c.33.06.68-.37.36-.63a1.79,1.79,0,0,0-.54-.34l-.29.69a15.74,15.74,0,0,0,1.88.54l.2-.72a1,1,0,0,1-.68-.27q.54.17,1.09.31c.73.19,1.47.33,2.22.45.38.06.71-.49.29-.69l-1.41-.65-.29.69c1.43.41,3.51,1.38,3.48-.89,0-.41-.65-.53-.74-.1l-.58,1,.55.42c.13-.74.92-1.18.94-1.93a.37.37,0,0,0-.19-.32,7.77,7.77,0,0,0-3.54-.18c-.33,0-.57.54-.19.7a5.82,5.82,0,0,0,2.65.51.38.38,0,0,0,0-.75l-3.32-.21a.38.38,0,0,0-.19.7,4.14,4.14,0,0,0,1.45.47.38.38,0,0,0,.2-.72,13.58,13.58,0,0,0-2.69-.65.38.38,0,0,0-.2.72,16.28,16.28,0,0,0,2.35.7.38.38,0,0,0,.2-.72,11.25,11.25,0,0,0-2.76-.48.38.38,0,0,0-.19.7,5.16,5.16,0,0,0,2.44.76c.44,0,.49-.61.1-.74a19,19,0,0,0-3-.68.38.38,0,0,0-.29.69,8.19,8.19,0,0,0,2,.87.38.38,0,0,0,.29-.69,4.54,4.54,0,0,0-2.31-.76.38.38,0,0,0-.27.64,5.16,5.16,0,0,0,1.23.74.38.38,0,0,0,.38-.65,19.75,19.75,0,0,0-1.88-1.16c-.26-.14-.67.1-.55.42a1.28,1.28,0,0,0,1,.93c.29.09.62-.28.42-.55a5.36,5.36,0,0,1-.63-1,.38.38,0,0,0-.69.29,1.68,1.68,0,0,0,.41.76c.28.34.78-.09.59-.45l-.15-.28c-.2-.36-.85-.11-.69.29a2.22,2.22,0,0,0,.33.61.38.38,0,0,0,.69-.09.54.54,0,0,0-1-.45c-.43.59.29,1.57.94,1.07a.39.39,0,0,0,.17-.42l-.06-.2a.37.37,0,0,0-.26-.26l-.22,0a.38.38,0,0,0-.36.1c-.42.51-.24.83.21,1.25a.38.38,0,0,0,.59-.45c-.67-1.28-1.9.8-.44.76a.38.38,0,0,0,.19-.7l-.1-.08a.38.38,0,0,0-.45.06l-.1.09a.38.38,0,0,0,.27.64h.21a.38.38,0,0,0,.38-.38.57.57,0,0,0-.19-.52l-.45.59c.37.28.43.29.87.14a.39.39,0,0,0,.28-.36c0-.55-.31-.78-.82-.71-.26,0-.31.36-.22.55a.78.78,0,0,0,1,.47.37.37,0,0,0,.28-.36v-.16a.39.39,0,0,0-.28-.36l-.16-.06a.36.36,0,0,0-.36.1c-.67.86.67,1.49,1.18.64a.37.37,0,0,0,0-.38l-.13-.17a.39.39,0,0,0-.42-.17l-.18.05a.38.38,0,0,0-.17.63,1.24,1.24,0,0,0,.67.36.38.38,0,0,0,.2-.72Z" transform="translate(-35.87 -272.38)"/><path class="cls-1" d="M40.88,295.31h-.05a.38.38,0,0,0-.32.19l0,0a.38.38,0,0,0,.06.45l0,0a.38.38,0,0,0,.36.1H41c.38-.08.33-.62,0-.72a2.66,2.66,0,0,1-.57-.25l-.29.69a1.88,1.88,0,0,1,.6.24l.19-.7a1.26,1.26,0,0,1-.63-.19l-.29.69a4.65,4.65,0,0,1,.68.28c.43.22.81-.43.38-.65a5.92,5.92,0,0,0-.86-.35.38.38,0,0,0-.29.69,2.06,2.06,0,0,0,1,.3.38.38,0,0,0,.19-.7,2.5,2.5,0,0,0-.78-.32.38.38,0,0,0-.29.69,3.53,3.53,0,0,0,.75.32v-.72h-.05l.36.1,0,0,.06.45,0,0-.32.19h.05c.48,0,.48-.71,0-.75Z" transform="translate(-35.87 -272.38)"/><path class="cls-1" d="M40.63,297.8a1.19,1.19,0,0,1-.4-.31l-.27.64.23.05.1-.74c-.41,0-.37-.24-.29-.57l.22-.89a.38.38,0,0,0-.72-.2l-.39,1.05.69-.09,0-.09h-.65a.37.37,0,0,1,.12.34.38.38,0,0,0,.75,0,1.07,1.07,0,0,0-.22-.72.38.38,0,0,0-.65,0,.74.74,0,0,0,0,.85.38.38,0,0,0,.69-.09l.39-1.05-.72-.2c-.12.51-.5,1.3-.3,1.81a1.17,1.17,0,0,0,1.1.6c.44,0,.48-.61.1-.74a1.57,1.57,0,0,0-.43-.08c-.35,0-.46.42-.27.64a1.71,1.71,0,0,0,.55.43c.43.22.81-.43.38-.65Z" transform="translate(-35.87 -272.38)"/><path class="cls-2" d="M41.17,288.9c-.11-1.29-.08-3.21,1.53-3.6q1.27-1,.42,1a5.14,5.14,0,0,1-1,1.88H43a4.68,4.68,0,0,1,.65-5.75l-.85-.35a9.27,9.27,0,0,1-.63,4.51h1a3.78,3.78,0,0,1,.07-2.47q.4,1.25-.53.91h-1a8.09,8.09,0,0,1-.1,2.75l-.93.25-.15,1.45.84.22q.2-2.21-.08-1-.21.62,0,.12l-.62-.35c.43,1.89-2.78,4.1-1.31,5.83s5.68.6,7.39.48c.64,0,.64-1,0-1-1.26.09-2.52.21-3.79.28a5.68,5.68,0,0,1-1.38,0c-1.46-.31-1.58-1-1-2.11.66-1.42,1.46-2.18,1.1-3.77a.51.51,0,0,0-.62-.35,1.4,1.4,0,0,0,.07,2.71.53.53,0,0,0,.56-.23c.54-.77,1.29-2.57.45-3.36a.5.5,0,0,0-.49-.13c-1.32.5-1.53,1.95-1.25,3.15a.5.5,0,0,0,.84.22,2.09,2.09,0,0,0,.3-2.66c-.26-.48-.88-.2-.93.25-.08.77.14,2,1.29,1.52,1.32-.56,1-3.51.78-4.54-.09-.53-.82-.42-1,0-.36,1-.08,3.73,1.66,3,1.07-.45,1.22-4.73.47-5.37a.51.51,0,0,0-.61-.08c-1.37,1-1.35,3-1.05,4.54.11.54.8.41,1,0a9.61,9.61,0,0,0,.67-4.77.51.51,0,0,0-.85-.35,5.7,5.7,0,0,0-.8,7,.51.51,0,0,0,.86,0c.67-.93,2.71-5.89,0-5.53-2.22.29-2.57,4.21-1.19,5.47a.5.5,0,0,0,.49.13c1.3-.51,1.57-3.91.24-4.51-2.11-1-2.48,3.47-2.38,4.64.06.64,1.06.64,1,0Z" transform="translate(-35.87 -272.38)"/><path class="cls-2" d="M38.11,273.71l-.64-.62-.61.79a12.6,12.6,0,0,0,2.45.9c.53.13.91-.66.39-.91l-1.69-.8-.39.91,3.78.73a.5.5,0,0,0,.27-1l-2.5-.95-.27,1a15.62,15.62,0,0,0,4.42.68c.55,0,.7-.88.13-1L41.11,273c-.62-.12-.9.81-.27,1,1.47.35,2.94.63,4.43.85.52.08.93-.62.39-.91a9,9,0,0,0-2.78-1c-.63-.12-.9.85-.27,1l3.27.62a.5.5,0,0,0,.27-1l-1.6-.47c-.63-.18-.86.74-.27,1a9.52,9.52,0,0,1,1.74.79c.48.26,1-.39.61-.79l-.86-.78-.49.84,1.18.54a.5.5,0,0,0,.61-.79l-.65-.8-.49.84,2.86.57a.51.51,0,0,0,.63-.48l0-.31a.49.49,0,0,0-.25-.43c-.68-.39-1.12-.15-1.51.51l.86.5.24-.23-.73-.56-.59.61c-.63.08-.64,1.08,0,1,.92-.12,1.34-.4,1.56-1.35a.51.51,0,0,0-.73-.56.85.85,0,0,0-.6.59.5.5,0,0,0,.86.5l-.13-.27.63-.48-2.86-.57a.5.5,0,0,0-.49.84l.65.8.61-.79a9.41,9.41,0,0,0-1.42-.64c-.47-.18-.84.51-.49.84l.86.78.61-.79a16.07,16.07,0,0,0-2-.89l-.27,1,1.6.47.27-1-3.27-.62-.27,1a7.6,7.6,0,0,1,2.54.89l.39-.91c-1.49-.22-3-.5-4.43-.85l-.27,1,2.34.43.13-1a14.78,14.78,0,0,1-4.15-.64c-.63-.19-.86.74-.27,1l2.5.95.27-1L37.89,273c-.52-.1-.93.66-.39.91l1.69.8.39-.91a7.87,7.87,0,0,1-2.22-.8c-.49-.24-1,.37-.61.79l.64.62c.46.45,1.17-.26.71-.71Z" transform="translate(-35.87 -272.38)"/><path class="cls-2" d="M39.44,293.58l-.1,0,.3.23-.06-.09-.08.61a2.34,2.34,0,0,0,.31-.41.5.5,0,0,0-.86-.5.68.68,0,0,1-.15.21.51.51,0,0,0-.08.61.85.85,0,0,0,.47.36c.61.22.87-.75.27-1Z" transform="translate(-35.87 -272.38)"/><path class="cls-2" d="M44.57,283.72c-.89-.57.38-1.67-.93.37l1.86.5A9.13,9.13,0,0,1,47,279.44l-1.86-.5a9.2,9.2,0,0,1-.18,3l2,.27a11.7,11.7,0,0,1,.93-4.35l-2-.27a13.1,13.1,0,0,1-.36,3.59c-.25,1.25,1.65,1.8,1.93.53l.9-4.14-2-.27-.22,1.9,2,.27a7.36,7.36,0,0,1,.41-2.67l-1.93-.53-.47,2.57c-.23,1.25,1.63,1.8,1.93.53l.65-2.71-2-.27-.17,1.74c-.11,1.13,1.71,1.35,2,.27a33.19,33.19,0,0,1,1-3.5c.43-1.22-1.49-1.73-1.93-.53a66.14,66.14,0,0,0-2.27,7.5,1,1,0,0,0,1.93.53l1.11-2.91-2-.27-.4,3.37c-.13,1.11,1.76,1.37,2,.27l.54-2.92a1,1,0,0,0-1.93-.53q-1.09,4-1.92,8c-.21,1,1.35,1.87,1.83.77a27.8,27.8,0,0,0,1.69-4.77l-1.93-.53-.7,4,2,.27a27.81,27.81,0,0,1,.82-4l-2-.27c-.12,3-2.25,8.06-.93,10.9a1,1,0,0,0,1.83-.24c.3-1.3.54-2.57.74-3.89s-1.74-1.8-1.93-.53-.43,2.59-.74,3.89l1.83-.24c-.66-1.42.54-4.33.79-5.89a32.15,32.15,0,0,0,.41-4,1,1,0,0,0-2-.27,32,32,0,0,0-.89,4.5c-.14,1.11,1.77,1.37,2,.27l.7-4c.22-1.25-1.63-1.8-1.93-.53a24.09,24.09,0,0,1-1.49,4.29l1.83.77q.83-4,1.92-8l-1.93-.53L46,282.36l2,.27.4-3.37c.14-1.2-1.6-1.24-2-.27l-1.11,2.91,1.93.53a66.14,66.14,0,0,1,2.27-7.5l-1.93-.53a33.19,33.19,0,0,0-1,3.5l2,.27.17-1.74c.11-1.13-1.71-1.35-2-.27l-.65,2.71,1.93.53.47-2.57c.23-1.25-1.58-1.79-1.93-.53a13.15,13.15,0,0,0-.48,3.2c0,1.1,1.79,1.4,2,.27.13-.88.22-1.55.3-2.43.1-1.12-1.73-1.36-2-.27l-.9,4.14,1.93.53a22.19,22.19,0,0,0,.43-4.12c0-1.2-1.57-1.26-2-.27a14.16,14.16,0,0,0-1,4.88c0,1.1,1.76,1.39,2,.27a15.33,15.33,0,0,0,.25-3.58,1,1,0,0,0-1.86-.5,10.09,10.09,0,0,0-1.72,6.17,1,1,0,0,0,1.86.5c.76-1.18,3-6,0-6.09-2.74-.13-3.86,4.46-2.54,6.18a1,1,0,0,0,1.13.46c2.44-.63,2.5-5.45-.22-5.63a1,1,0,0,0-.86.5c-.78,1.49-.82,3.94.71,4.93,1.09.7,2.09-1,1-1.73Z" transform="translate(-35.87 -272.38)"/><path class="cls-2" d="M39.45,287c.21-1.46.52-3.79,1.69-4.79H39.73a12.79,12.79,0,0,1,.71,3.22c-.64-.71-2.06,0-1.67,1,.64,1.55-.08,3.32-.54,4.78l2,.27a24.75,24.75,0,0,1,.33-3l-2-.27a14.26,14.26,0,0,1-.2,4.46l2,.27a45.4,45.4,0,0,0,.25-5.59c0-1.1-1.71-1.4-2-.27l-.29,1.31h1.93l-.12-1.21h-2l0,.65a1,1,0,0,0,2,.27,29.69,29.69,0,0,1,3.11-6.4l-1.86-.5a7.91,7.91,0,0,1-1.14,4.26l1.83.77a8.37,8.37,0,0,1,3.26-5.64l-1.67-1a6.71,6.71,0,0,1-2.32,3.23l1.71.71a3.37,3.37,0,0,1,.74-2.93q1.52-1.43-.36-1.34l1.23.7v-1.32l1.83.77c.35-1.68,2.71-4.1.85-5.57-.79-.62-2.08-.43-3-.45-2.48-.06-4.53-.84-7-.64a1,1,0,0,0-1,1.27,63.78,63.78,0,0,1,1.28,10.53c.06,1.28,2,1.29,2,0a7.86,7.86,0,0,1,1.56-5c-1.4,1.65,1.82-1,2.44-1.12l-1.23-.7a3.15,3.15,0,0,1-3.54.28l1.83.24.09-2.14-1.47.6.31.5L41,275.79l-1.51-1.67-1.13,1.47c.42.11,3.28.69,3.46,1.13L43,275.48a5.66,5.66,0,0,1-2.84-1.18l-.77,1.83a12.44,12.44,0,0,1,4.33,1.7l1-1.73-.45-.41-.6,1.47,1-.83,1.57.2.1.1H44.63V276l1.37-.36.19.42-1.83.24.2.31c.7,1.07,2.44.07,1.73-1l-.2-.31a1,1,0,0,0-1.83.24l-.12.48a1,1,0,0,0,.46,1.13l.39.23a1,1,0,0,0,1.37-.36l.13-.2a1,1,0,0,0,0-1l-.12-.19a1,1,0,0,0-1.73,0l-.32.42a1,1,0,0,0,0,1l.22.48a1,1,0,0,0,1.57.2,1.77,1.77,0,0,0,.59-2,1,1,0,0,0-.7-.7,8.74,8.74,0,0,0-2.83.19,1,1,0,0,0-.6,1.47,2.41,2.41,0,0,0,1.17,1.13,1,1,0,0,0,1-1.73,13.47,13.47,0,0,0-4.81-1.9,1,1,0,0,0-.77,1.83,9.45,9.45,0,0,0,3.32,1.38c.67.15,1.53-.47,1.23-1.23-.74-1.87-3.09-2.05-4.85-2.52a1,1,0,0,0-1.13,1.47A8.44,8.44,0,0,0,40,277.51c.9.68,1.71-.58,1.37-1.37a2.48,2.48,0,0,0-1-1.21c-.56-.43-1.27.07-1.47.6a4.49,4.49,0,0,0-.09,3.2,1,1,0,0,0,1.83.24,3,3,0,0,0,.7-3,1,1,0,0,0-1-.73c-3,.19-2.56,3.77-1.08,5.46a1,1,0,0,0,1,.26c4.09-1,1-7.9-1-4.46-2.21,3.67,5.64,4.64,4.24.4a1,1,0,0,0-1-.73c-2.15.11-4.05,3.61-1.91,5.1S45,279,44.32,277.14a1,1,0,0,0-1.23-.7c-1.92.36-5.31,5.49-2.51,6.7,3,1.28,2.69-4.76,1.45-6.12a1,1,0,0,0-1.21-.16c-2.18,1.62-3.27,5-3.21,7.6h2a63.56,63.56,0,0,0-1.35-11.06l-1,1.27a16.78,16.78,0,0,1,6,.79c1,.3,1.33-1.6,2,1.25,0,0-.83,2.11-.83,2.1a1,1,0,0,0,1.83.77,3.55,3.55,0,0,0,.81-2.79,1,1,0,0,0-1-.73c-2.08,0-3.78,2.43-3.51,4.37.08.57.76.78,1.23.7A2.79,2.79,0,0,0,46,277.72a1,1,0,0,0-1-.73c-2.95.31-4.09,4-4,6.47a1,1,0,0,0,1.71.71,10.22,10.22,0,0,0,2.83-4.11c.42-1-1-1.52-1.67-1a10,10,0,0,0-3.78,6.53c-.16,1,1.27,1.87,1.83.77a12.36,12.36,0,0,0,1.42-5.27c.05-1.05-1.35-1.28-1.86-.5a31.91,31.91,0,0,0-3.31,6.87l2,.27,0-.65a1,1,0,0,0-2,0,3.67,3.67,0,0,0,.19,1.75,1,1,0,0,0,1.93,0l.29-1.31-2-.27a45.4,45.4,0,0,1-.25,5.59c-.12,1.12,1.72,1.36,2,.27a16.66,16.66,0,0,0,.27-5c-.07-1-1.78-1.45-2-.27s-.32,2.35-.4,3.54,1.64,1.3,2,.27c.63-2,1.37-3.86.54-5.85l-1.67,1c2.81,3.12,4.21-4,2.12-6.05a1,1,0,0,0-1.41,0c-1.48,1.27-1.95,3.9-2.2,5.68-.18,1.26,1.75,1.8,1.93.53Z" transform="translate(-35.87 -272.38)"/><path class="cls-2" d="M44.44,273.77c-.87-.49-1.85-1.3-2.89-1.1a1,1,0,0,0-.7,1.23,1,1,0,0,0,1.23.7l.16,0H41.7a3.8,3.8,0,0,1,.82.43l.9.5c1.13.63,2.14-1.1,1-1.73Z" transform="translate(-35.87 -272.38)"/><path class="cls-2" d="M42.7,292.25l-1.69.22.86-.5a1.52,1.52,0,0,0,1.9.29l.5.86-.27-.71-1.37,1.37a6,6,0,0,0,2.37.73c.68.07,1.1-.7,1-1.27a7,7,0,0,1,.15-3.88l-1.93-.53q-.72,1.08,0,.55a.94.94,0,0,0,.6-.69,10.89,10.89,0,0,1,1.45-1.53l-1.67-1a5,5,0,0,1-2.36,3.27l1.21.16a16.34,16.34,0,0,1,2.17-2.38L44,286a10.36,10.36,0,0,1-2.44,2.82l1.57.2s1.55-1.76,1.68-1.9c.62-.64,1.28-1.22,2-1.8l-1.57-1.21a8.25,8.25,0,0,1-1.28,1.39l1.71.71.21-.57a1,1,0,0,0-1.73-1,3.08,3.08,0,0,0-.49,1.57c-.1.93,1.12,1.23,1.71.71a10.8,10.8,0,0,0,1.59-1.8c.7-1-.76-1.92-1.57-1.21-1.3,1.14-5.17,4.07-3.95,6.13a1,1,0,0,0,1.57.2A11.83,11.83,0,0,0,45.73,287c.61-1-.73-1.91-1.57-1.21-1.28,1.06-3.6,3.53-2.17,5.21a1,1,0,0,0,1.21.16,6.85,6.85,0,0,0,3.28-4.47,1,1,0,0,0-1.67-1c-1.18,1-3.67,3.67-2.25,5.36s3.2-.34,3.55-1.74a1,1,0,0,0-1.93-.53,9.06,9.06,0,0,0-.15,4.94l1-1.27a2.74,2.74,0,0,1-1.36-.46c-.83-.46-1.95.5-1.37,1.37s1.57,1.74,2.69,1.05A1.45,1.45,0,0,0,45,292c-2.51-2-3.84,2.55-1.27,2.22,2.84-.36.89-5-1.69-3.28s1.32,4.53,2.17,1.87c.78-2.44-3.77-4-4.28-1.26-.56,3.06,4.1,2.87,2.9.3-1.38-3-5.13.52-2.38,2,3,1.59,3.1-3.88.51-2.7a1.55,1.55,0,0,0-.19,2.69,1.79,1.79,0,0,0,2.74-1.41,1.5,1.5,0,0,0-2.56-1c-1,1.16.06,2.38,1.18,2.78s1.73-1.49.53-1.93Z" transform="translate(-35.87 -272.38)"/><line class="cls-3" x1="0.5" y1="0.71" x2="2.77" y2="22.17"/><line class="cls-3" x1="13.4" y1="0.81" x2="11.62" y2="22.32"/><path class="cls-4" d="M38.56,294.93c2.44,1.42,6.39.76,9,.24.63-.13.36-1.09-.27-1-2.25.45-6.12,1.09-8.24-.14a.5.5,0,0,0-.5.86Z" transform="translate(-35.87 -272.38)"/><path class="cls-4" d="M38,294.51a24.24,24.24,0,0,1,.25,2.87c0,.64,1,.64,1,0a26.48,26.48,0,0,0-.29-3.13c-.09-.63-1.06-.36-1,.27Z" transform="translate(-35.87 -272.38)"/><path class="cls-4" d="M38.71,298.21a14.57,14.57,0,0,0,8.86.35c.63-.14.36-1.1-.27-1a13.6,13.6,0,0,1-8.33-.35c-.59-.25-.85.72-.27,1Z" transform="translate(-35.87 -272.38)"/><path class="cls-4" d="M47,294.87a26.48,26.48,0,0,0-.29,3.13c0,.64,1,.64,1,0a24.24,24.24,0,0,1,.25-2.87c.09-.63-.87-.9-1-.27Z" transform="translate(-35.87 -272.38)"/><line class="cls-3" x1="0.13" y1="0.62" x2="13.88" y2="0.5"/><circle class="cls-5" cx="43.08" cy="280.26" r="1.96" transform="translate(-273.39 48.64) rotate(-89.53)"/><polygon class="cls-6" points="7.74 9.78 7.18 11.21 6.64 9.77 7.74 9.78"/><polygon class="cls-6" points="7.77 6.04 7.23 4.6 6.67 6.03 7.77 6.04"/><polygon class="cls-6" points="5.38 7.34 3.94 7.87 5.37 8.43 5.38 7.34"/><polygon class="cls-6" points="9.04 7.37 10.48 7.92 9.04 8.46 9.04 7.37"/><polygon class="cls-6" points="8.84 8.68 9.64 9.99 8.17 9.55 8.84 8.68"/><polygon class="cls-6" points="5.58 8.72 4.76 10.01 6.24 9.59 5.58 8.72"/><polygon class="cls-6" points="5.51 7.09 4.7 5.79 6.17 6.22 5.51 7.09"/><polygon class="cls-6" points="8.96 7.14 9.8 5.85 8.32 6.26 8.96 7.14"/><path class="cls-2" d="M39.84,291.19q0,.43.13-.29t0-.31a2.52,2.52,0,0,0,.9,3.42,2.56,2.56,0,0,0,3.42-.9,3.14,3.14,0,0,0,.51-1.92,2.5,2.5,0,0,0-5,0Z" transform="translate(-35.87 -272.38)"/></svg>