<svg id="Layer_1" data-name="Layer 1" xmlns="http://www.w3.org/2000/svg" viewBox="0 0 77.3 59.62"><defs><style>.cls-1{fill:#ffe329;}.cls-2{fill:#f9ee53;}</style></defs><title>Blond</title><path class="cls-1" d="M106.3,29.9h.7a1.16,1.16,0,0,0,1.2-1.2v-.3a5.39,5.39,0,0,0-.7-1.3c-.1-.2-.3-.3-.4-.5l-.2-.2c-.3-.3-.3-.2-.1.3l-1.5,1.1a6.46,6.46,0,0,1,3.8,1.3l1.4-1.9-2.1-1.1-.9,2.2a2.19,2.19,0,0,1,1.4.8c1.2,1,2.8-.7,1.7-1.7a4.8,4.8,0,0,0-2.5-1.4,1.2,1.2,0,0,0-.9,2.2l2.1,1.1a1.19,1.19,0,0,0,1.4-1.9,8.73,8.73,0,0,0-4.8-1.9,1.22,1.22,0,0,0-1.5.9v.3c0,1.1,1.1,1.4,1.5,2.3l1.2-1.5h-.7c-1.6.2-1.6,2.6-.1,2.4Z" transform="translate(-68.07 -24.08)"/><path class="cls-1" d="M118.5,29.4a44.4,44.4,0,0,0-6.1-2.2c-4.4-1.3-8.4,3-7.3,7.3s3.9,4.8,7.2,6.8l6-10.3a5.07,5.07,0,0,1-1.6-.9l-3,11.1a33.6,33.6,0,0,0,6.3-.6c4.9-.9,5.9-8.8,1.4-10.9l-1.5-.7-1.4,10.9a35.4,35.4,0,0,1,4.5-.8c6.2-1.4,5.1-9.6,0-11.5l-.9-.3L120.5,39a38.44,38.44,0,0,1,4.8,0c7.1.4,7.6-9.5,1.6-11.7a8.59,8.59,0,0,0-3.9-.5c-7.5.9-7.8,11.3,0,11.9a23.15,23.15,0,0,0,5.9-.4c5.7-1,5.7-10.5,0-11.5l-1.7-.3C119.5,25.1,117,35.1,124,38a42.09,42.09,0,0,0,4.8,1.2c6.9,1.8,9.8-7,4.6-10.9l-.9-.7-4.6,10.9c2.3.9.7.7.4-.7l9.9-5.8-.6-.6c-5.4-5.4-13.8,3-8.4,8.4a9.93,9.93,0,0,1,1.4,2.7c3.4,6.9,13.7.8,10.3-6a19.67,19.67,0,0,0-3.2-5.2l-8.4,8.4.6.6c4.3,4.3,11.3-.1,9.9-5.8-1.1-4.6-4.8-6-8.7-7.6-6.7-2.8-9.5,7.2-4.6,10.9l.9.7L132,27.6c-1.6-.3-3.2-.7-4.8-1.1L124,38l1.7.3V26.7a12.19,12.19,0,0,1-2.7,0V38.6h.7l1.6-11.7a38.44,38.44,0,0,0-4.8,0,6,6,0,0,0-1.6,11.7l.9.3V27.5a35.4,35.4,0,0,0-4.5.8c-4.3,1.6-6.5,8.5-1.4,10.9l1.5.7L116.8,29a10.8,10.8,0,0,1-3.1.2c-6.2,0-7.7,7.9-3,11.1a5.07,5.07,0,0,0,1.6.9c6.8,3.2,12.8-6.4,6-10.3a12.44,12.44,0,0,0-2-1c-1.2-.7-1.1-.2.2,1.4l-7.3,7.3a29.92,29.92,0,0,1,3.2,1c7.1,3.1,13.1-7.1,6.1-10.2Z" transform="translate(-68.07 -24.08)"/><path class="cls-1" d="M108.3,39.2c2.3,3.7,7.4,2.5,10.8,4.3l.9-2.2-2.8-1.1a1.22,1.22,0,0,0-1.5.9,1.41,1.41,0,0,0,.1.9c1.4,1.9,3.9,1.8,6,2.6,1.7.7,2.8,2.1,4.3,2.9.7.4,2,.5,2.5,1.1s2.1.3,2-.8a27.25,27.25,0,0,0-1.5-5.6c-.4-1.3-.7-3.6-1.8-4.6-1.7-1.4-4.1.5-5.7,1.4a1.17,1.17,0,0,0,1.2,2l1.7-.8-1.5-.8-2,.2,1.2.9.7.4-.8-2,.1,2.3-.8-2-.6,2.3-.9-1.2-.6.7a1.11,1.11,0,0,0-1.1,1.3,4.33,4.33,0,0,0,.1.5c.9,2,2.8,1.7,4.7,2.6,1.3.6,2.2,1.5,3.7.9a1.1,1.1,0,0,0,.6-1c0-1.8-1.5-3.5-2.6-4.8a1.15,1.15,0,0,0-1.7,0,1.13,1.13,0,0,0-.3,1.1,11,11,0,0,0,.9,2.3l1.9-1.4-1.2-1.4-2.1,1.2.4.9,2.2-.9-1-2.4c-.6-1.3-2.4-.3-2.2.9a4.19,4.19,0,0,0,.4,1.6c.3.8,1.7,1.3,2.2.3a6.63,6.63,0,0,1,.9-1.9l-1.3.5a24.69,24.69,0,0,0,1,2.9c.6,1.4,2.8.9,2.3-.6a19.82,19.82,0,0,1-.8-3.5l-2.2.9a13.69,13.69,0,0,1,1.5,3.8,1.2,1.2,0,0,0,2.3-.7l-.8-3.9-2.2.9a5.85,5.85,0,0,1,1.3,4,1.2,1.2,0,0,0,2.4,0,9.65,9.65,0,0,0-1.6-5.2,1.28,1.28,0,0,0-1.7-.4,1.3,1.3,0,0,0-.5,1.3l.8,3.9,2.3-.6a18.54,18.54,0,0,0-1.8-4.4,1.28,1.28,0,0,0-1.7-.4,1.3,1.3,0,0,0-.5,1.3c.2,1.2.5,2.3.8,3.5l2.3-.6c-.5-1.3-.9-4.3-2.6-4.6a1.23,1.23,0,0,0-1.3.5,6.63,6.63,0,0,0-.9,1.9l2.2.3A3.17,3.17,0,0,1,124,40l-2.2.9,1,2.4c.5,1.3,2.5.3,2.2-.9a4,4,0,0,0-.6-1.5,1.17,1.17,0,0,0-2,1.2h0a7,7,0,0,0,1.5,1.9,1.24,1.24,0,0,0,1.7-.1,1.2,1.2,0,0,0,.1-1.5l-.6-1.7-2,1.2c2.1,2.5,1.5,1.3-.3.4-.7-.3-1.9,0-2.4-1l-1,1.8a2.8,2.8,0,0,0,3-2.6v-.6a1.4,1.4,0,0,0-.9-1.2,3,3,0,0,0-3.6,1.2,1.28,1.28,0,0,0,0,1.2c1.3,2,4,.5,5.3-.7a1.19,1.19,0,0,0-.8-2,3.14,3.14,0,0,0-3.1,1.3,1.28,1.28,0,0,0,0,1.2c1.1,1.9,3.7.6,4.7-.7a1.24,1.24,0,0,0-.1-1.7,1.08,1.08,0,0,0-.7-.3c-1.5-.1-3.7.7-2.9,2.6a1.29,1.29,0,0,0,1.2.9c1.6-.1,4.8-1.2,4.3-3.2a1.2,1.2,0,0,0-1.5-.8,14.72,14.72,0,0,0-2.2,1l1.2,2.1c2.2-1.3,2.9-1.3,3.7,1.1a27.52,27.52,0,0,1,1.6,5.6l2-.8c-.7-.7-1-.5-1.8-1s-1.5-1.6-2.4-2.1c-2-1.3-7-1.2-8.3-2.9l-1.3,1.8,2.8,1c1.3.5,2.1-1.6.9-2.2a14,14,0,0,0-3.5-1c-1-.2-5.9-1.6-6.4-2.5-1.1-1.1-3.1.1-2.3,1.4Z" transform="translate(-68.07 -24.08)"/><path class="cls-1" d="M114.6,42.8a20.36,20.36,0,0,0,2.2.9,1.2,1.2,0,1,0,.7-2.3,7.74,7.74,0,0,1-1.6-.7,1.23,1.23,0,0,0-1.6.4,1.1,1.1,0,0,0,.3,1.7Z" transform="translate(-68.07 -24.08)"/><path class="cls-1" d="M133.1,43.3c1,6.7,5.8,12.5,6.8,19.2.2,1.3,2.4,1,2.3-.3a11.5,11.5,0,0,0-.8-4.1,1.24,1.24,0,0,0-1.5-.8,1.17,1.17,0,0,0-.8,1.1c-.3,2,.5,3.6,1,5.5a47.72,47.72,0,0,1,1.7,9.9,1.2,1.2,0,1,0,2.4,0c.3-5.9,1.3-12.1-.3-17.9a1.24,1.24,0,0,0-1.5-.8,1.17,1.17,0,0,0-.8,1.1c0,1.3,0,2.7-.1,4l2.3-.3c-1.3-5.4-.6-10.9-1.8-16.3a1.24,1.24,0,0,0-1.5-.8,1.17,1.17,0,0,0-.8,1.1,26,26,0,0,1-.3,5.6h2.3l-1.9-5.8c-.4-1.2-2.5-1.1-2.3.3.2,1.6.3,3.1.4,4.7l2.2-.6a24.82,24.82,0,0,1-2-4.4c-.5-1.4-2.8-.8-2.3.6a47.45,47.45,0,0,1,1.6,6.5l2.3-.6a21.62,21.62,0,0,1-1-4.4l-2.3.6a46.4,46.4,0,0,1,1.6,5.3,1.24,1.24,0,0,0,1.5.8,1.17,1.17,0,0,0,.8-1.1l-.1-3.2-2.3.3a30.51,30.51,0,0,1,.7,6.7H141l-.1-4.1h-2.4l.7,5.3c.2,1.5,2.5,1.6,2.4,0l-.2-4.9L139,52c.4,1.7.4,5.1,2.2,6a1.14,1.14,0,0,0,1.6-.4c.7-1.1.6-1.6.8-3l-2.3.3.3,1.5a1.24,1.24,0,0,0,1.5.8,1.17,1.17,0,0,0,.8-1.1A144.67,144.67,0,0,0,141.8,40c-.3-1.5-2.6-.9-2.3.6a135.21,135.21,0,0,1,2,15.4l2.3-.3-.3-1.5c-.3-1.5-2.2-.9-2.3.3l-.4,1.9,1.6-.4c-.4-.2-1-4.2-1.1-4.6a1.24,1.24,0,0,0-1.5-.8,1.17,1.17,0,0,0-.8,1.1l.2,4.9h2.4l-.7-5.3c-.2-1.5-2.4-1.6-2.4,0l.1,4.1a1.2,1.2,0,1,0,2.4,0h0a37.24,37.24,0,0,0-.8-7.4,1.24,1.24,0,0,0-1.5-.8,1.17,1.17,0,0,0-.8,1.1l.1,3.2,2.3-.3a46.4,46.4,0,0,0-1.6-5.3,1.2,1.2,0,0,0-2.3.7,21.62,21.62,0,0,0,1,4.4,1.2,1.2,0,0,0,2.3-.7,47.44,47.44,0,0,0-1.6-6.5l-2.3.6a31.65,31.65,0,0,0,2.2,5,1.25,1.25,0,0,0,1.7.4,1.33,1.33,0,0,0,.6-1c-.1-1.6-.2-3.1-.4-4.7l-2.3.3,1.9,5.8c.3,1,2.1,1.2,2.3,0a33.35,33.35,0,0,0,.4-6.3l-2.3.3c1.2,5.4.5,10.9,1.8,16.3a1.17,1.17,0,0,0,2.3-.3c0-1.3.1-2.7.1-4l-2.3.3c1.5,5.5.5,11.6.2,17.2h2.4a40.77,40.77,0,0,0-.9-6.9c-.5-2.7-2.1-5.9-1.8-8.6l-2.3.3a6.15,6.15,0,0,1,.7,3.5l2.3-.3c-1-6.7-5.9-12.6-6.8-19.2-.4-1.3-2.7-.7-2.5.8Z" transform="translate(-68.07 -24.08)"/><path class="cls-1" d="M144,79.6c1.9-7.4-.9-14.8.8-22.2a1.19,1.19,0,0,0-2.3-.6c-1.8,7.4,1.1,14.9-.8,22.2a1.24,1.24,0,0,0,.8,1.5A1.35,1.35,0,0,0,144,79.6Z" transform="translate(-68.07 -24.08)"/><path class="cls-1" d="M81,32.3c-1,1.4-3.1,2.4-4.3,3.8a51.19,51.19,0,0,0-4,5.5c-3.8,5.8,4.6,11.8,9.3,7.2,5.9-5.7,13-8.9,20.4-12.3,6.7-3.1,1.4-11.7-4.6-10.9-2.2.2-4.3.5-6.5.9a20,20,0,0,0-2.6,1c-1.6.7-1.3,1,.9.8L91,39.2l1.2-.9c6-4.6,1-13.7-6-10.3-1.7.8-3.3,1.7-4.9,2.6L88.5,40a33,33,0,0,1,3.2-1.8c6.3-4.5,1-13.3-6-10.3a23,23,0,0,0-3.2,1.5l6,10.3a22.81,22.81,0,0,1,4.5-2c7.3-2.4,4.3-13.1-3.2-11.5a16.07,16.07,0,0,0-3.3,1.2c-6.1,2.7-1.8,13.1,4.6,10.9a22.19,22.19,0,0,1,6.3-1.4c6.4-.4,8.5-10.2,1.6-11.7-12.7-2.8-24.4,8.6-28.3,19.6-1.7,4.8,4.6,9.6,8.8,6.7,7.7-5.2,15.9-11.6,24.7-14.7,5.2-1.8,6.1-10,0-11.5-1.5-.4-3.1-.6-4.6-.9-3-.4-5.8.5-7,3.5-1,2.5-.3,6.2,2.4,7.4a12.82,12.82,0,0,0,5.1,1.3c7.7-.1,7.7-12,0-11.9l.9.4L96.3,36a34,34,0,0,1,4.6.9V25.4C91,28.9,82,35.5,73.4,41.3L82.2,48c1.6-4.5,8-12.5,13.7-11.3L97.5,25a37.24,37.24,0,0,0-9.4,1.8l4.6,10.9h.5L90,26.2a36.72,36.72,0,0,0-7.3,3.2c-6.6,4-.8,13.7,6,10.3a31.33,31.33,0,0,1,3.2-1.5l-6-10.3c-1.9,1.3-3.8,2.2-5.6,3.7-5.2,4.5,1.5,12.7,7.2,9.4,1.6-.9,3.2-1.8,4.9-2.6l-6-10.3-1.3.9c-4.1,3.2-3.7,9,1.4,10.9,2.4.9,4.5-.1,6.7-1,2.5-1.1,5-1.3,7.8-1.7L96.4,26.3c-8.2,3.8-16.2,7.8-22.8,14.1L83,47.6c2.4-3.6,5.8-5.9,8.3-9.3C95.9,32.1,85.5,26.2,81,32.3Z" transform="translate(-68.07 -24.08)"/><path class="cls-1" d="M73.4,51.1a4.83,4.83,0,0,0,.8-3.1,1.09,1.09,0,0,0-.8-.8c-1.2-.2-1.8.7-2.5,1.5l2,1.2.3-1.4a1.22,1.22,0,0,0-.9-1.5,1.41,1.41,0,0,0-.9.1A4,4,0,0,0,70,48.6l2.2.9.4-1.4a1.09,1.09,0,0,0-.9-1.4,1.3,1.3,0,0,0-1.3.5,8.37,8.37,0,0,0-1.4,4,14.92,14.92,0,0,0-.2,2.1,11.45,11.45,0,0,1-.1,3.2A1.26,1.26,0,0,0,70.2,58c2.7-1,5.1-2.9,7.4-4.5a1.25,1.25,0,0,0,.4-1.7,1.33,1.33,0,0,0-1-.6,7.21,7.21,0,0,0-3.8,1l-.5.3c-.7.3-.5.5.5.6l-1.4-.2a2.83,2.83,0,0,0,1.8-.4l-.9-.1-.2-.1c-.9.9.3,2.7,1.4,1.9a7.34,7.34,0,0,1,3.5-1.5c1.5-.3.9-2.5-.6-2.3a8.77,8.77,0,0,0-4.1,1.7L74.1,54c1-1,1.3-2.9-.3-3.6s-3.5.9-3.9,2.5A1.66,1.66,0,0,0,71.1,55a2,2,0,0,0,1.3-.1c1.2-.8,2.2-2.8,1-3.8a1.6,1.6,0,0,0-1.5-.2c-1.4.6-2.4,2.7-1,3.8a2.23,2.23,0,0,0,2.1.2c1.4-.5,2.3-1.3,3.9-1.4l-.6-2.2c-2.2,1.4-4.4,3.3-6.8,4.2L71,57c.4-1.4,0-2.9.2-4.4a8.32,8.32,0,0,1,1.3-4.3l-2.2-.9L70,48.8a1.09,1.09,0,0,0,.9,1.4,1.3,1.3,0,0,0,1.3-.5l.6-.6L71,47.8l-.3,1.4c-.3,1.1,1.2,2.1,2,1.2a4.74,4.74,0,0,1,1-1l-.9.1H73l-.9-.8a5,5,0,0,1-.5,1.3,1.23,1.23,0,0,0,.4,1.6c.3.3,1.1.1,1.4-.5Z" transform="translate(-68.07 -24.08)"/><path d="M69.3,57.9c-.5-11.1,5-22.7,14.5-28.7,9.8-6.2,20.6-4.4,30.8-.5.7.3,1-.9.3-1.1-11.1-4.2-22.7-5.7-33,1.5C72.8,35.5,67.6,47,68.1,58,68.1,58.6,69.3,58.6,69.3,57.9Z" transform="translate(-68.07 -24.08)"/><path d="M69.4,58.6c12.4-6.7,23.2-16,35.9-22,.7-.3.1-1.4-.6-1-12.8,6-23.6,15.3-35.9,22-.6.4,0,1.4.6,1Z" transform="translate(-68.07 -24.08)"/><path d="M104.7,36.3c1.2,3.1,3.8,4.2,6.8,5.4s5.8,2.3,8.7,3.4c2.3.9,9.2,2.9,10.2,5.7.3.7,1.4.4,1.1-.3-.8-2.2-4.8-3.9-6.7-4.8-4.8-2.1-16.9-4.4-18.9-9.8-.3-.7-1.5-.3-1.2.4Z" transform="translate(-68.07 -24.08)"/><path d="M115.7,28.9a35,35,0,0,1,14-2c6.4.6,9.9,4.2,11.4,10.3a.55.55,0,0,0,.8.3.67.67,0,0,0,.4-.7c-1.2-4.7-3-8.5-7.9-10.2-6-2.2-13.1-.9-19,1-.8.3-.5,1.5.3,1.3Z" transform="translate(-68.07 -24.08)"/><path d="M127.1,38.6c6,4.8,8.5,12,10.7,19.1,2.3,7.4,4.4,16.1,3.9,23.9a.6.6,0,1,0,1.2,0c.5-8.5-1.9-17.8-4.5-25.8-2.2-6.8-4.9-13.4-10.6-18-.5-.5-1.3.4-.7.8Z" transform="translate(-68.07 -24.08)"/><path d="M143.3,83.3c3.8-15.1,1.7-31.8-1.1-46.8-.1-.8-1.3-.4-1.1.3,2.8,14.8,4.9,31.4,1.1,46.2-.1.3.2.6.5.7a.62.62,0,0,0,.6-.4Z" transform="translate(-68.07 -24.08)"/><path d="M141.8,80.7a5.7,5.7,0,0,0,0,2.6.55.55,0,0,0,.8.3.67.67,0,0,0,.4-.7,3.08,3.08,0,0,1,0-1.9c.1-.7-1.1-1.1-1.2-.3Z" transform="translate(-68.07 -24.08)"/><path d="M128.1,38.1a11.74,11.74,0,0,0-4.8-5.3.68.68,0,0,0-.8.4c-.1.2,0,.4.2.6a11.31,11.31,0,0,1,4.3,4.9c.4.6,1.4,0,1.1-.6Z" transform="translate(-68.07 -24.08)"/><path d="M131.3,50.9c-1-4.5-.8-9.2-3.2-13.3a.61.61,0,0,0-.8,0,.73.73,0,0,0-.2.6c2.3,4,2.1,8.6,3,13,.2.7,1.4.4,1.2-.3Z" transform="translate(-68.07 -24.08)"/><path d="M114.4,28.7a38.56,38.56,0,0,1,8.3,4.9c.6.5,1.2-.6.6-1a41.14,41.14,0,0,0-8.3-4.9c-.6-.3-1.3.7-.6,1Z" transform="translate(-68.07 -24.08)"/><path class="cls-1" d="M138.6,41.3h0a1.08,1.08,0,0,0-1.7.2,1.36,1.36,0,0,0,0,1.5l.1.1a1.24,1.24,0,0,0,1.7-.1,1.51,1.51,0,0,0-.1-1.7Z" transform="translate(-68.07 -24.08)"/><path class="cls-1" d="M122.9,42.6l.1-.2-.6.2h.1l-.6-.2.1.1-.4-.4.1-.8.5-.3h.3l.5.3-.1-.1.3.5v.1l-.2.6.1-.1a1.17,1.17,0,1,0-2-1.2,1.46,1.46,0,0,0,.5,2c.1.1.2.1.4.2a1.61,1.61,0,0,0,1.9-1.2v-.2a1.48,1.48,0,0,0-1.2-1.7h-.2c-.9,0-1.5,1-1.8,1.8a1.24,1.24,0,0,0,.8,1.5A1.37,1.37,0,0,0,122.9,42.6Z" transform="translate(-68.07 -24.08)"/><path class="cls-1" d="M135.3,45.3l1,2.6,2-1.2a3.7,3.7,0,0,1-1.2-2.2l-2.2.9,1.9,3.1c.8,1.3,2.9.1,2.1-1.2l-2-3.1a1.28,1.28,0,0,0-1.7-.4,1.3,1.3,0,0,0-.5,1.3,5.72,5.72,0,0,0,1.8,3.2,1.21,1.21,0,0,0,2-1.2l-1-2.6a1.2,1.2,0,0,0-1.5-.8,1.42,1.42,0,0,0-.7,1.6Z" transform="translate(-68.07 -24.08)"/><path class="cls-2" d="M71.5,54.8c.9-8.2,6.3-16.2,13.2-20.6a.58.58,0,1,0-.6-1A30.55,30.55,0,0,0,70.3,54.8a.6.6,0,1,0,1.2,0Z" transform="translate(-68.07 -24.08)"/><path class="cls-2" d="M71.6,55.1c6.7-4.4,13.2-9,19.7-13.6.6-.4,0-1.5-.6-1-6.5,4.7-13,9.2-19.7,13.6C70.4,54.6,71,55.6,71.6,55.1Z" transform="translate(-68.07 -24.08)"/><path class="cls-2" d="M107.5,35.1a7.15,7.15,0,0,0,4.7,4.1c4.4,1.5,8.3,2.3,12.2,5.3.6.5,1.4-.4.8-.8a26.18,26.18,0,0,0-6-3.7c-3.4-1.4-8.9-1.3-10.5-5.2-.4-.7-1.5-.4-1.2.3Z" transform="translate(-68.07 -24.08)"/><path class="cls-2" d="M123.1,30c6.7-.4,14.2,1.7,14.2,9.6a.54.54,0,0,0,.7.5.47.47,0,0,0,.5-.5c0-8.6-8-11.3-15.4-10.8A.6.6,0,0,0,123.1,30Z" transform="translate(-68.07 -24.08)"/><path class="cls-2" d="M137.4,48.5c2.3,3.2,2.6,7.8,3.4,11.5a.57.57,0,0,0,1.1-.3c-.8-3.9-1.1-8.5-3.6-11.8a.54.54,0,1,0-.9.6Z" transform="translate(-68.07 -24.08)"/></svg>