<?xml version="1.0" encoding="utf-8"?>
<!-- Generator: Adobe Illustrator 23.0.1, SVG Export Plug-In . SVG Version: 6.00 Build 0)  -->
<svg version="1.1" id="Layer_1" xmlns="http://www.w3.org/2000/svg" xmlns:xlink="http://www.w3.org/1999/xlink" x="0px" y="0px"
	 viewBox="0 0 200 600" style="enable-background:new 0 0 200 600;" xml:space="preserve">
<style type="text/css">
	.st0{fill:#4370B7;}
</style>
<g>
	<g>
		<g>
			<g>
				<path class="st0" d="M88.8,171c-2.7-1-5.4-1.8-8.1-2.3c-1.6,0.2-2.3-0.6-2-2.3c-0.2-1.3-1.9-1.7-2.4-0.3
					c-0.1,0.3-0.2,0.6-0.3,0.9c0.8,0,1.5,0,2.3,0c-0.9-2.2-1.9-4.3-3.2-6.3c-0.6-1-1.8-0.6-2.2,0.3c-0.5,1.3-0.9,2.4-1.2,3.8
					c0.7-0.1,1.5-0.2,2.2-0.3c-0.8-1.4-1.3-2.7-1.5-4.3c-0.3-1.5-2.5-0.9-2.3,0.6c0.2,1.1,0.2,2.1,0,3.2c0.8-0.1,1.6-0.2,2.4-0.3
					c-0.4-1.2-0.7-2.2-0.8-3.5c-0.2-1.2-2-1.1-2.3,0s-0.3,1.3-0.3,2.4c0.8-0.1,1.6-0.2,2.4-0.3c-0.1-0.7-0.2-1.4-0.3-2.1
					c-0.2-1.5-2.2-0.9-2.4,0.3c-0.1,0.7-0.2,1.4-0.3,2.1c0.8,0,1.6,0,2.4,0c-0.1-1,0-2,0.1-3.1c0.1-1.3-2.1-1.6-2.4-0.3
					c-0.1,0.7-0.2,1.3-0.4,2c0.8,0.1,1.6,0.2,2.4,0.3c0-0.8,0.1-1.6,0.1-2.5c-0.8,0-1.6,0-2.4,0c0.4,3.5,0.9,7,1.3,10.5
					c0.2,1.5,2.3,1.6,2.4,0c0.1-1.3,0.2-2.5,0.3-3.8c-0.8,0-1.6,0-2.4,0c0.1,1,0.1,1.2,0.5,2.1c0.6,1.5,2.5,0.9,2.3-0.6
					c-0.2-1.8-0.5-3.5-0.7-5.3c-0.2-1.4-2.4-1-2.4,0.3c0,2.6,0.3,5.1,0.9,7.6c0.3,1.1,2.1,1.2,2.3,0c0.1-0.5,0.1-1,0.2-1.5
					c-0.8-0.1-1.6-0.2-2.4-0.3c0,1.3-0.1,2.6-0.3,4c0.8-0.1,1.6-0.2,2.4-0.3c-0.4-0.8-0.5-1.7-0.3-2.6c-0.8,0-1.6,0-2.4,0
					c-0.1,1.2-0.1,2.4-0.2,3.6c-0.1,1.6,2.3,1.5,2.4,0c0.2-1,0.2-2.1,0-3.1c-0.1-1.2-2.2-1.7-2.4-0.3c-0.2,1.3-0.2,1.6-0.2,2.9
					c0.8,0,1.6,0,2.4,0c0-0.7,0-1.3-0.1-2c0-1.3-2-1.7-2.4-0.3c-0.1,0.3-0.2,0.7-0.2,1c0.8,0.1,1.6,0.2,2.4,0.3
					c0.1-0.5,0.1-1.1,0.2-1.6c0.2-1.3-2.1-1.7-2.4-0.3c-0.1,0.8-0.2,1.4-0.2,2.2c0.8-0.1,1.6-0.2,2.4-0.3c-0.1-0.5-0.1-1.1-0.2-1.6
					c0-1.3-2.1-1.7-2.4-0.3c0,0.3-0.1,0.6-0.1,1c-0.2,1.3,1.4,2.1,2.2,0.9c0.5-0.7,0.5-0.9,0.8-1.7c-0.8,0-1.5,0-2.3,0
					c0.6,2.2,0.8,4.4,0.8,6.8c0,1.3,2.1,1.7,2.4,0.3c0.2-1,0.2-1.2,0.2-2.3c-0.1-1.4-1.9-1.6-2.4-0.3c-0.2,0.6-0.4,1.2-0.6,1.8
					c0.8,0.1,1.6,0.2,2.4,0.3c-0.1-1.2-0.2-2.4-0.2-3.6c-0.1-1.6-2.2-1.5-2.4,0c-0.2,0.9-0.2,1.8-0.1,2.7c0,1.6,2.2,1.5,2.4,0
					c0.1-0.6,0.2-1.2,0.2-1.8c-0.8,0-1.6,0-2.4,0c0.1,0.7,0.1,1.4,0.2,2.1c0.8,0,1.6,0,2.4,0c-0.1-0.6-0.2-1.3-0.3-1.9
					c-0.2-1.5-2.5-1.6-2.4,0c0.1,1.5,0.2,3,0.3,4.4c0.1,1.2,1.5,1.6,2.2,0.6c0.4-0.5,0.4-0.8,0.4-1.5c-0.8,0-1.6,0-2.4,0
					c0,0.6,0,1.2,0,1.8c0,1,1.4,1.7,2,0.8c0.5-0.5,0.6-0.9,0.6-1.6c-0.1-1.3-2-1.7-2.4-0.3c-0.3,1-0.3,1.2-0.3,2.2
					c0,1.5,2.4,1.5,2.4,0c0-0.9,0-1.8,0-2.7c0-1.3-2.1-1.7-2.4-0.3s-0.3,1.4-0.3,2.8c0,1.5,2.4,1.6,2.4,0c0-0.9,0-1.8,0-2.7
					c0-1.5-1.9-1.5-2.4-0.3c-0.6,1.5-0.6,1.2-0.5,2.8c0.1,1.3,2.1,1.7,2.4,0.3c0.2-1,0.2-1.3,0.2-2.3c0-1.1-1.7-1.7-2.2-0.6
					c-0.1,0.2-0.2,0.5-0.4,0.7c0.7,0.1,1.5,0.2,2.2,0.3c-0.1-1-0.3-2-0.4-2.9c-0.2-1.5-2.5-0.9-2.3,0.6c0.1,1,0.3,2,0.4,2.9
					c0.1,1,1.8,1.2,2.2,0.3c0.1-0.2,0.2-0.5,0.4-0.7c-0.7-0.2-1.5-0.4-2.2-0.6c0,0.6-0.1,1.1-0.1,1.7c0.8,0.1,1.6,0.2,2.4,0.3
					c0.1-0.7,0.3-1.4,0.4-2.2c-0.8-0.1-1.6-0.2-2.4-0.3c0,0.9,0,1.8,0,2.7c0.8,0,1.6,0,2.4,0c0.1-0.7,0.1-1.4,0.2-2.2
					c-0.8-0.1-1.6-0.2-2.4-0.3c0,0.9,0,1.8,0,2.7c0.8,0,1.6,0,2.4,0c0.1-0.5,0.1-1.1,0.2-1.6c-0.8-0.1-1.6-0.2-2.4-0.3l0.1-0.1
					c0.7,0.3,1.4,0.6,2,0.8c0-0.6,0-1.2,0-1.8c0-1.5-2.4-1.5-2.4,0c0,0.1-0.1,0.2-0.1,0.3c0.7,0.2,1.5,0.4,2.2,0.6
					c-0.1-1.5-0.2-3-0.3-4.4c-0.8,0-1.6,0-2.4,0c0.1,0.6,0.2,1.3,0.3,1.9c0.2,1.5,2.5,1.6,2.4,0c-0.1-0.7-0.1-1.4-0.2-2.1
					c-0.1-1.6-2.2-1.5-2.4,0c-0.1,0.6-0.2,1.2-0.2,1.8c0.8,0,1.6,0,2.4,0c-0.1-0.9,0-1.8,0.1-2.7c-0.8,0-1.6,0-2.4,0
					c0.1,1.2,0.2,2.4,0.2,3.6c0.1,1.3,1.9,1.6,2.4,0.3c0.2-0.6,0.4-1.2,0.6-1.8c-0.8-0.1-1.6-0.2-2.4-0.3c0,0.5-0.1,1.1-0.1,1.6
					c0.8,0.1,1.6,0.2,2.4,0.3c0-2.6-0.3-4.9-0.9-7.4c-0.3-1.2-2-1.1-2.3,0c-0.2,0.4-0.4,0.8-0.5,1.2c0.7,0.3,1.5,0.6,2.2,0.9
					c0-0.3,0.1-0.6,0.1-1c-0.8-0.1-1.6-0.2-2.4-0.3c0,1,0.1,1.3,0.3,2.2c0.3,1.4,2.3,1,2.4-0.3c0.1-0.5,0.1-1,0.2-1.6
					c-0.8-0.1-1.6-0.2-2.4-0.3c-0.1,0.5-0.1,1.1-0.2,1.6c-0.2,1.3,2.1,1.6,2.4,0.3c0.1-0.3,0.2-0.7,0.2-1c-0.8-0.1-1.6-0.2-2.4-0.3
					c0,0.7,0,1.3,0.1,2c0.1,1.5,2.4,1.5,2.4,0c0-0.7,0.1-1.5,0.1-2.2c-0.8-0.1-1.6-0.2-2.4-0.3c0.2,1,0.2,2.1,0,3.1
					c0.8,0,1.6,0,2.4,0c0.1-1.2,0.1-2.4,0.2-3.6c0.1-1.6-2.2-1.5-2.4,0c-0.1,1.2,0,2.1,0.3,3.2c0.4,1.4,2.2,1,2.4-0.3
					c0.2-1.3,0.3-2.6,0.3-4c0-1.3-2.2-1.7-2.4-0.3c-0.1,0.5-0.1,1-0.2,1.5c0.8,0,1.5,0,2.3,0c-0.6-2.3-0.8-4.6-0.9-7
					c-0.8,0.1-1.6,0.2-2.4,0.3c0.2,1.8,0.5,3.5,0.7,5.3c0.8-0.2,1.5-0.4,2.3-0.6c-0.1-0.5-0.3-1-0.4-1.5c-0.2-1.5-2.3-1.6-2.4,0
					c-0.1,1.3-0.2,2.5-0.3,3.8c0.8,0,1.6,0,2.4,0c-0.4-3.5-0.9-7-1.3-10.5c-0.2-1.5-2.3-1.6-2.4,0c0,0.8-0.1,1.6-0.1,2.5
					c-0.1,1.3,2.1,1.7,2.4,0.3c0.1-0.7,0.2-1.3,0.4-2c-0.8-0.1-1.6-0.2-2.4-0.3c-0.1,1-0.2,2-0.1,3.1c0,1.6,2.2,1.5,2.4,0
					c0.1-0.7,0.2-1.4,0.3-2.1c-0.8,0.1-1.6,0.2-2.4,0.3c0.1,0.7,0.2,1.4,0.3,2.1c0.2,1.4,2.3,1,2.4-0.3c0.1-0.6,0.2-1.2,0.3-1.8
					c-0.8,0-1.5,0-2.3,0c0.2,1.2,0.4,2.3,0.8,3.5c0.5,1.3,2.2,1,2.4-0.3c0.2-1.3,0.1-2.5-0.1-3.8c-0.8,0.2-1.5,0.4-2.3,0.6
					c0.3,1.8,0.9,3.3,1.8,4.8c0.5,0.9,2,0.7,2.2-0.3c0.3-1.3,0.7-2.5,1.2-3.8c-0.7,0.1-1.5,0.2-2.2,0.3c1.1,1.8,2.1,3.7,2.9,5.7
					c0.4,1.1,1.9,1.2,2.3,0c0.1-0.3,0.2-0.6,0.3-0.9c-0.8-0.1-1.6-0.2-2.4-0.3c0.3,2.7,1,6,4.2,6.6c2.5,0.4,4.2-1.4,4.2-3.8
					c0-1.6-0.9-4.5-3.1-3.7c-2,0.7-1.8,4.3-1.1,5.8c2.4,5.2,10.5,1.8,8.1-3.5c-0.7-1.5-2.3-2.6-3.7-1.1c-2,2.2,1,5.4,2.8,6.5
					C88.9,173.9,90.1,171.8,88.8,171L88.8,171z"/>
			</g>
		</g>
		<g>
			<g>
				<path class="st0" d="M72.5,265c-0.1,0.1-0.1,0.3-0.2,0.4c-0.3,0.6-0.2,1.3,0.4,1.6c0.1,0.1,0.2,0.1,0.4,0.2c0-0.7,0-1.4,0-2.1
					c-1.2,0.4-2.4,0.7-3.7,1.1c0.3,0.6,0.7,1.2,1,1.8c0.7-1.7,1.5-3.3,2.2-5c0.5-1.2-0.9-2.5-1.9-1.5c-0.3,0.3-0.6,0.6-0.9,0.9
					c0.7,0.4,1.3,0.8,2,1.2c0.8-3.1,1.5-6.3,2.1-9.5c0.3-1.5-1.8-2.1-2.3-0.6c-0.3,1.1-0.7,2.2-1,3.3c0.8,0.2,1.5,0.4,2.3,0.6
					c1.5-10.2,2-20.3,1.4-30.6c-0.8,0-1.6,0-2.4,0c0.2,2.9,0.4,5.9,0.6,8.8c0.1,1.5,2.5,1.5,2.4,0c-0.2-2.9-0.4-5.9-0.6-8.8
					c-0.1-1.5-2.5-1.5-2.4,0c0.6,10,0.2,20-1.3,29.9c-0.2,1.5,1.8,2.2,2.3,0.6c0.3-1.1,0.7-2.2,1-3.3c-0.8-0.2-1.5-0.4-2.3-0.6
					c-0.6,3.2-1.3,6.3-2.1,9.5c-0.3,1.1,1.2,2.1,2,1.2c0.3-0.3,0.6-0.6,0.9-0.9c-0.6-0.5-1.3-1-1.9-1.5c-0.7,1.7-1.5,3.3-2.2,5
					c-0.4,0.8,0.1,1.8,1,1.8c2,0.1,3.2-0.3,4.9-1.4c0.7-0.5,0.8-1.6,0-2.1c-0.1-0.1-0.2-0.1-0.4-0.2c0.1,0.5,0.3,1.1,0.4,1.6
					c0.1-0.1,0.1-0.3,0.2-0.4C75.2,264.8,73.2,263.6,72.5,265L72.5,265z"/>
			</g>
		</g>
		<g>
			<g>
				<path class="st0" d="M74.9,227c-0.2,0.1-0.4,0.3-0.6,0.4c0.6,0.2,1.2,0.5,1.8,0.7c-0.1-0.7-0.1-1.4-0.2-2.1
					c0-1.1-1.7-1.7-2.2-0.6c-0.2,0.3-0.4,0.7-0.5,1c0.7,0.1,1.5,0.2,2.2,0.3c-0.2-1.3-0.5-2.7-0.7-4c-0.2-1.4-2.3-1-2.4,0.3
					s-0.1,2.6-0.2,3.9c0.8,0,1.6,0,2.4,0c-0.7-6.8,0.1-13.6,0-20.4c0-1.3-2-1.7-2.4-0.3c-0.7,2.6-0.7,4.9-0.2,7.6
					c0.3,1.3,2.5,1,2.4-0.3c-0.3-3-0.6-6-0.9-9.1c-0.1-1.5-2.5-1.5-2.4,0c0.2,3,0.5,6,0.9,9.1c0.8-0.1,1.6-0.2,2.4-0.3
					c-0.5-2.2-0.4-4.1,0.2-6.3c-0.8-0.1-1.6-0.2-2.4-0.3c0.1,6.8-0.7,13.6,0,20.4c0.2,1.5,2.3,1.6,2.4,0c0.1-1.3,0.1-2.6,0.2-3.9
					c-0.8,0.1-1.6,0.2-2.4,0.3c0.2,1.3,0.5,2.7,0.7,4c0.2,1,1.7,1.2,2.2,0.3c0.2-0.3,0.4-0.7,0.5-1c-0.7-0.2-1.5-0.4-2.2-0.6
					c0,1.1,0.1,1.7,0.2,2.8c0.1,0.7,1.2,1.1,1.8,0.7c0.2-0.1,0.4-0.3,0.6-0.4C77.4,228.2,76.2,226.1,74.9,227L74.9,227z"/>
			</g>
		</g>
		<g>
			<g>
				<path class="st0" d="M76,203.7c-0.2-1.1-0.5-2.2-0.7-3.3c-0.3-1.3-1.9-1-2.3,0c-0.5,1.3-0.9,2.6-1.2,4c0.8,0,1.5,0,2.3,0
					c-0.3-1-0.5-2-0.8-3c-0.8,0.1-1.6,0.2-2.4,0.3c0,0.7,0.1,1.3,0.1,2c-0.1,1.5,2.3,1.5,2.4,0c0.4-4.8-0.7-9.6-0.7-14.5
					c0.1-4.2-0.2-8.3-0.8-12.5c-0.2-1.5-2.5-0.9-2.3,0.6c0.7,4.7,0.6,9.1,0.7,13.8c0.1,4.2,1.1,8.3,0.7,12.5c0.8,0,1.6,0,2.4,0
					c0.1-1.3,0.1-1.3-0.2-2.6c-0.3-1.3-2.5-1-2.4,0.3c0.2,2.1,0.1,1.7,0.9,3.6c0.4,1,2,1.3,2.3,0c0.3-1.4,0.7-2.6,1.2-4
					c-0.8,0-1.5,0-2.3,0c0.2,1.1,0.5,2.2,0.7,3.3C74,205.9,76.3,205.2,76,203.7L76,203.7z"/>
			</g>
		</g>
		<g>
			<g>
				<path class="st0" d="M75.6,170.2c-0.3-0.2-0.5-0.3-0.8-0.5c-0.7-0.4-1.5,0-1.8,0.7c-0.2,0.6-0.6,1-1,1.5
					c0.6,0.1,1.3,0.2,1.9,0.2c-0.1-0.3-0.3-0.6-0.4-1c-0.3-0.7-1.4-0.8-1.9-0.2c-0.2,0.3-0.4,0.5-0.6,0.8c0.7,0.2,1.3,0.4,2,0.5
					c0-0.2-0.1-0.5-0.1-0.7c-0.2-1-1.7-1.2-2.2-0.3c-0.2,0.4-0.5,0.9-0.7,1.3c0.7,0,1.4,0,2.1,0c0-0.1,0-0.2,0-0.3
					c-0.7-0.3-1.5-0.6-2.2-0.9c-0.2,0.5-0.3,0.9-0.5,1.4c-0.5,1.5,1.8,2.1,2.3,0.6c0.7-1.8-1.9-2.8-2.6-1c-0.6,1.5,1.7,2,2.3,0.6
					c0.5-1.1,0.6-2.3,0.5-3.5c-0.2-1.5-2.6-1.5-2.4,0c0.1,1,0,1.9-0.4,2.9c0.8,0.2,1.5,0.4,2.3,0.6v-0.1c-0.3,0.3-0.6,0.6-0.8,0.8
					h0.1c-0.3,0-0.6-0.1-0.9-0.1c0,0,0.1,0,0.1,0.1c-0.2-0.3-0.4-0.7-0.6-1v0.1c0.8,0.2,1.5,0.4,2.3,0.6c0.2-0.5,0.3-0.9,0.5-1.4
					c0.4-1.3-1.6-2.1-2.2-0.9c-0.5,0.9-0.5,1.8,0,2.7c0.4,0.8,1.7,0.7,2.1,0c0.2-0.4,0.5-0.9,0.7-1.3c-0.7-0.1-1.5-0.2-2.2-0.3
					c0,0.2,0.1,0.5,0.1,0.7c0.1,0.9,1.5,1.2,2,0.5c0.2-0.3,0.4-0.5,0.6-0.8c-0.6-0.1-1.3-0.2-1.9-0.2c0.1,0.3,0.3,0.6,0.4,1
					c0.3,0.7,1.4,0.7,1.9,0.2c0.8-0.7,1.3-1.5,1.6-2.5c-0.6,0.2-1.2,0.5-1.8,0.7c0.3,0.2,0.5,0.3,0.8,0.5
					C75.7,173.1,76.9,171,75.6,170.2L75.6,170.2z"/>
			</g>
		</g>
		<g>
			<g>
				<path class="st0" d="M48.4,173.9c-0.2-0.2-0.5-0.4-0.7-0.6c-0.3-0.4-1.1-0.5-1.5-0.2c-0.1,0-0.2,0-0.3,0.1
					c-0.4-0.2-1.2,0.1-1.4,0.6c-0.2-0.1-0.3-0.2-0.5-0.2c-0.8-0.6-1.7,0.2-1.8,1c-0.2,2,0.8,3.4,2.8,3.7c1.3,0.2,2.2-1.4,0.9-2.2
					c-1.1-0.7-1.2-0.7-2.4-1.1c-1.2-0.4-2,1.2-1.2,2c1.6,1.7,4.4,1.8,6.6,2.3c1.5,0.3,2.1-1.9,0.6-2.3c-0.8-0.2-1.6-0.5-2.4-0.7
					c-0.2,0.8-0.4,1.5-0.6,2.3c5.6,1.2,10.9,2.9,16.2,5.2c0.9,0.4,1.7-0.1,1.8-1c0.1-0.8,0.2-1.6,0.1-2.4c0-1.5-2.4-1.5-2.4,0
					c0.1,0.8,0,1.6-0.1,2.4c0.6-0.3,1.2-0.7,1.8-1c-5.4-2.4-11-4.2-16.7-5.4c-1.5-0.3-2.1,1.9-0.6,2.3c0.8,0.2,1.6,0.5,2.4,0.7
					c0.2-0.8,0.4-1.5,0.6-2.3c-1.6-0.4-4.4-0.4-5.6-1.7c-0.4,0.7-0.8,1.3-1.2,2c0.6,0.3,1.2,0.6,1.8,0.9c0.3-0.7,0.6-1.5,0.9-2.2
					c-0.4-0.5-0.7-0.9-1.1-1.4c-0.6,0.3-1.2,0.7-1.8,1c1.4,0.9,3,1.1,3.8-0.6c-0.5,0.2-0.9,0.4-1.4,0.6c1,0.3,1.3,0.3,2.2-0.3
					c-0.5-0.1-1-0.1-1.5-0.2c0.5,0.6,0.5,0.6,1.2,1C48.5,176.7,49.7,174.7,48.4,173.9L48.4,173.9z"/>
			</g>
		</g>
		<g>
			<g>
				<path class="st0" d="M62.3,178.5c-0.1-1.7,0.2-3.4,0.7-5c-0.8-0.1-1.6-0.2-2.4-0.3c-0.1,1.8-0.2,3.6-0.3,5.4
					c-0.1,1.2,1.7,1.6,2.2,0.6c0.7-1.4,1.3-2.8,1.8-4.3c-0.8-0.2-1.5-0.4-2.3-0.6c-0.3,1.5-0.5,3.1-0.5,4.7c0,1.4,1.9,1.5,2.4,0.3
					c0.4-1.1,0.8-2.1,1.2-3.2c-0.8-0.2-1.5-0.4-2.3-0.6c-0.2,1.2-0.4,2.3-0.6,3.5c-0.2,1.5,1.8,2.1,2.3,0.6c0.2-0.6,0.4-1.2,0.6-1.8
					c-0.8-0.1-1.6-0.2-2.4-0.3c0,0.5-0.1,0.9-0.1,1.4c-0.1,1.6,2.2,1.5,2.4,0c0.3-2.4,0.8-4.7,1.6-7c-0.8-0.1-1.6-0.2-2.4-0.3
					c0,0.4,0,0.8,0.1,1.2c0.1,1.5,2.5,1.5,2.4,0c0-0.4,0-0.8-0.1-1.2c-0.1-1.4-1.9-1.6-2.4-0.3c-0.8,2.5-1.4,5-1.7,7.6
					c0.8,0,1.6,0,2.4,0c0-0.5,0.1-0.9,0.1-1.4c0.1-1.4-1.9-1.5-2.4-0.3c-0.2,0.6-0.4,1.2-0.6,1.8c0.8,0.2,1.5,0.4,2.3,0.6
					c0.2-1.2,0.4-2.3,0.6-3.5c0.2-1.5-1.8-2.1-2.3-0.6c-0.4,1.1-0.8,2.1-1.2,3.2c0.8,0.1,1.6,0.2,2.4,0.3c0-1.4,0.2-2.7,0.4-4
					c0.3-1.5-1.8-2.1-2.3-0.6c-0.4,1.3-0.9,2.5-1.6,3.7c0.7,0.2,1.5,0.4,2.2,0.6c0.1-1.8,0.2-3.6,0.3-5.4c0.1-1.4-1.9-1.6-2.4-0.3
					c-0.6,1.8-0.9,3.7-0.8,5.6C59.9,180.1,62.3,180.1,62.3,178.5L62.3,178.5z"/>
			</g>
		</g>
		<g>
			<g>
				<path class="st0" d="M65.2,175.3c0.5-2.8,1.1-5.6,1.6-8.4c-0.8-0.2-1.5-0.4-2.3-0.6c-0.2,1.6-0.5,3.2-0.9,4.8
					c-0.4,1.5,1.8,2.1,2.3,0.6c0.9-2.6,1.4-5.2,1.8-7.9c0.2-1.4-2-1.5-2.4-0.3c-0.6,1.7-1,3.4-1.4,5.1c-0.3,1.5,2,2.2,2.3,0.6
					c0.6-2.6,1.2-5.2,1.8-7.9c0.3-1.5-1.9-2.1-2.3-0.6c-0.3,1.3-0.7,2.5-1,3.8c0.8,0.2,1.5,0.4,2.3,0.6c0.3-2,0.8-3.9,1.4-5.8
					c0.5-1.5-1.8-2-2.3-0.6c-0.5,1.3-0.9,2.6-1.2,4c0.8,0.2,1.5,0.4,2.3,0.6c0.1-0.5,0.2-1.1,0.3-1.6c0.2-1.5-2.1-2.2-2.3-0.6
					c-0.1,0.5-0.2,1.1-0.3,1.6c-0.2,1.5,2,2.2,2.3,0.6c0.3-1.4,0.7-2.7,1.2-4c-0.8-0.2-1.5-0.4-2.3-0.6c-0.6,1.9-1,3.8-1.4,5.8
					c-0.2,1.5,1.9,2.2,2.3,0.6c0.3-1.3,0.7-2.5,1-3.8c-0.8-0.2-1.5-0.4-2.3-0.6c-0.6,2.6-1.2,5.2-1.8,7.9c0.8,0.2,1.5,0.4,2.3,0.6
					c0.4-1.7,0.8-3.4,1.4-5.1c-0.8-0.1-1.6-0.2-2.4-0.3c-0.3,2.5-0.9,4.9-1.7,7.3c0.8,0.2,1.5,0.4,2.3,0.6c0.4-1.6,0.7-3.2,0.9-4.8
					c0.2-1.5-2-2.2-2.3-0.6c-0.5,2.8-1.1,5.6-1.6,8.4C62.6,176.2,64.9,176.8,65.2,175.3L65.2,175.3z"/>
			</g>
		</g>
		<g>
			<g>
				<path class="st0" d="M57.6,177.7c-0.2-0.2-0.3-0.5-0.5-0.7c-0.5,0.6-0.9,1.2-1.4,1.8c1.9,0.7,3.8,1.4,5.7,2.1
					c0.9,0.3,1.7-0.7,1.5-1.5c-0.1-0.4-0.3-0.8-0.4-1.2c-0.7,0.4-1.3,0.8-2,1.2c0.1,0.2,0.2,0.4,0.3,0.5c0.7-0.3,1.5-0.6,2.2-0.9
					c-1.4-2.9-4.4-2.3-7-3c-3.1-0.8-5.4-2.5-8.8-2.1c-0.6,0.1-1,0.9-0.8,1.5c0.4,1.3,1,1.9,2.2,2.4c0.2-0.8,0.4-1.5,0.6-2.3
					c-0.7-0.2-1.4-0.4-2-0.9c-0.3,0.7-0.6,1.5-0.9,2.2c1.1,0.2,2.2,0.4,3.3,0.6c1.2,0.2,2.3-1.6,0.9-2.2c-1-0.5-2-0.9-3.1-1.2
					c-1.5-0.4-2.1,1.8-0.6,2.3c2.5,0.8,5.1,1.6,7.6,2.5c1.4,0.4,2-1.5,0.9-2.2c-0.7-0.5-1.4-0.9-2.1-1.4c-0.3,0.7-0.6,1.5-0.9,2.2
					c1,0.3,2,0.4,3.1,0.5c0.9,0.1,1.6-1.1,1-1.8c-1-1.3-2-2.2-3.6-2.9c-0.2,0.7-0.4,1.5-0.6,2.2c0.5,0.1,1.1,0.3,1.6,0.4
					c1.4,0.7,2.6-1.4,1.2-2.1c-1-0.5-1.7-0.7-2.8-0.7s-1.7,1.7-0.6,2.2c1.1,0.5,2,1.1,2.7,2.1c0.3-0.6,0.7-1.2,1-1.8
					c-0.8,0-1.7-0.1-2.5-0.4c-1.4-0.3-2,1.4-0.9,2.2c0.7,0.5,1.4,0.9,2.1,1.4c0.3-0.7,0.6-1.5,0.9-2.2c-2.5-0.8-5.1-1.6-7.6-2.5
					c-0.2,0.8-0.4,1.5-0.6,2.3c0.9,0.2,1.7,0.5,2.6,0.9c0.3-0.7,0.6-1.5,0.9-2.2c-1.1-0.2-2.2-0.4-3.3-0.6c-1.3-0.2-2.2,1.5-0.9,2.2
					c0.8,0.5,1.7,0.8,2.6,1.1c1.5,0.5,2-1.8,0.6-2.3c-0.2-0.2-0.4-0.5-0.6-0.7c-0.3,0.5-0.6,1-0.8,1.5c2.4-0.3,4.4,1,6.6,1.8
					c1.9,0.6,5.6,0.2,6.5,2.2c0.6,1.3,2.4,0.3,2.2-0.9c-0.1-0.9-0.2-1-0.9-1.6c-0.8-0.7-2.4-0.1-2,1.2c0.1,0.4,0.3,0.8,0.4,1.2
					c0.5-0.5,1-1,1.5-1.5c-1.9-0.7-3.8-1.4-5.7-2.1c-1.1-0.4-1.7,0.9-1.4,1.8c0.4,0.9,0.6,1,1.4,1.6
					C57.7,180.6,58.9,178.6,57.6,177.7L57.6,177.7z"/>
			</g>
		</g>
		<g>
			<g>
				<path class="st0" d="M57.8,175.3c0.3-1.1,0.5-2.2,0.9-3.3c-0.8-0.2-1.5-0.4-2.3-0.6c-0.3,1.5-0.7,3-1.1,4.5
					c-0.5,1.5,1.8,2.1,2.3,0.6c0.9-2.5,1.9-4.7,3.2-7c-0.7-0.3-1.5-0.6-2.2-0.9c-0.8,2.4-3.1,5.7-1.4,8c0.2,0.3,0.8,0.4,1.2,0.3
					c2.6-0.9,3.7-5.5,4.9-7.7c-0.7-0.3-1.5-0.6-2.2-0.9c-0.6,2.7-1.4,5.3-2.4,7.9c0.8,0.2,1.5,0.4,2.3,0.6
					c0.9-5.4,3.9-10.3,3.6-15.9c-0.1-1.4-1.9-1.6-2.4-0.3c-1.6,4.4-3.1,8.7-4,13.3c0.8,0.2,1.5,0.4,2.3,0.6c1-5,2-10.1,3-15.1
					c-0.8-0.1-1.6-0.2-2.4-0.3c0.3,4.3,0.4,8.6-0.4,12.8c0.8,0.1,1.6,0.2,2.4,0.3c0.3-4.6,1-9,2.2-13.4c-0.8-0.1-1.6-0.2-2.4-0.3
					c-0.1,4.2-0.5,8.3-1.3,12.4c0.8,0.2,1.5,0.4,2.3,0.6c0.6-4.1,1.5-8.1,2.8-12c-0.8-0.1-1.6-0.2-2.4-0.3
					c-0.4,3.4-0.9,6.8-1.6,10.2c0.8,0.2,1.5,0.4,2.3,0.6c0.5-3.8,1.1-7.6,1.6-11.4c0.2-1.2-1.6-2.3-2.2-0.9c-1.3,3.1-2.7,6.2-4,9.3
					c-0.6,1.4,1.5,2.6,2.1,1.2c1.3-3.1,2.7-6.2,4-9.3c-0.7-0.3-1.5-0.6-2.2-0.9c-0.5,3.8-1.1,7.6-1.6,11.4c-0.2,1.5,2,2.2,2.3,0.6
					c0.7-3.6,1.3-7.2,1.7-10.9c0.2-1.4-2-1.5-2.4-0.3c-1.3,3.9-2.3,7.9-2.8,12c-0.2,1.5,2,2.2,2.3,0.6c0.8-4.3,1.3-8.6,1.4-13
					c0-1.4-2-1.6-2.4-0.3c-1.2,4.6-2,9.3-2.2,14.1c-0.1,1.3,2.1,1.7,2.4,0.3c0.9-4.5,0.8-8.9,0.5-13.5c-0.1-1.3-2.1-1.7-2.4-0.3
					c-1,5-2,10.1-3,15.1c-0.3,1.5,2,2.2,2.3,0.6c1-4.5,2.5-8.9,4-13.3c-0.8-0.1-1.6-0.2-2.4-0.3c0.3,5.4-2.7,10.1-3.5,15.3
					c-0.2,1.5,1.7,2.1,2.3,0.6c1-2.6,1.8-5.2,2.4-7.9c0.3-1.3-1.5-2.2-2.2-0.9s-1.3,2.6-2,3.9c-0.4,0.7-2,2.6-0.8,2.7
					c1.1,0.1,2.1-4.2,2.5-5.4c0.5-1.3-1.5-2.1-2.2-0.9c-1.4,2.4-2.5,4.9-3.4,7.6c0.8,0.2,1.5,0.4,2.3,0.6c0.5-1.5,0.8-2.9,1.1-4.5
					c0.3-1.5-1.9-2.1-2.3-0.6c-0.3,1.1-0.6,2.2-0.9,3.3C55.2,176.2,57.5,176.8,57.8,175.3L57.8,175.3z"/>
			</g>
		</g>
		<g>
			<g>
				<path class="st0" d="M62.6,172.8c0-0.4,0.1-0.6,0.4-0.9c-0.7-0.2-1.3-0.4-2-0.5c0.2,1,0.1,2-0.3,2.9c-0.2,0.6,0.3,1.3,0.8,1.5
					c0.7,0.2,1.2-0.2,1.5-0.8c0.2-0.5,0.4-1.1,0.6-1.6c-0.7,0.2-1.3,0.4-2,0.5c0-0.2,0-0.4,0-0.7c0.7,0.3,1.4,0.6,2,0.8
					c0-0.7,0.1-1.3,0.3-1.9c-0.8,0-1.5,0-2.3,0c0.2,0.6,0.2,1.1,0.1,1.7c0.8,0,1.6,0,2.4,0c0-0.7,0-1.3,0.2-2
					c-0.8-0.2-1.5-0.4-2.3-0.6c-0.1,0.4-0.2,0.8-0.4,1.1c-0.7,1.4,1.3,2.6,2.1,1.2c0.3-0.5,0.5-1.1,0.6-1.7c0.3-1.5-1.9-2.1-2.3-0.6
					c-0.2,0.9-0.3,1.7-0.3,2.6c0.1,1.6,2.3,1.5,2.4,0c0.1-0.8,0-1.6-0.2-2.3c-0.3-1.2-1.9-1.1-2.3,0c-0.3,0.8-0.4,1.7-0.4,2.6
					c0,0.9,1.3,1.7,2,0.8s0.7-1.9,0-2.7c-0.7-0.7-1.7-0.2-2,0.5c-0.2,0.5-0.4,1.1-0.6,1.6c0.8,0.2,1.5,0.4,2.3,0.6
					c0.5-1.3,0.6-2.8,0.3-4.2c-0.2-0.9-1.4-1.1-2-0.5c-0.7,0.7-1.1,1.6-1.1,2.6C60.2,174.4,62.6,174.4,62.6,172.8L62.6,172.8z"/>
			</g>
		</g>
		<g>
			<g>
				<path class="st0" d="M48.1,173.2c0-0.4-0.1-0.7-0.1-1.1c0.3-1.5-1.9-2.1-2.3-0.6c-0.3,0.6-0.5,1.1-0.8,1.7
					c-0.7-0.4-1.3-0.8-2-1.2c-0.1,0.4-0.2,0.7-0.3,1.1c0.8,0.1,1.6,0.2,2.4,0.3c-0.6-0.2-1.1-0.3-1.7-0.5c0.1,1.3,2,1.7,2.4,0.3
					c0.5-1.7,1.1-3.4,1.7-5c0.6-1.4-1.8-2.1-2.3-0.6c-0.4,1.1-0.8,2.2-1.3,3.2c0.8,0.1,1.6,0.2,2.4,0.3c0.2-0.7,0.3-1.4,0.5-2.2
					c-0.8-0.2-1.5-0.4-2.3-0.6c-0.2,0.6-0.4,1.3-0.5,1.9c0.7,0.3,1.5,0.6,2.2,0.9c0.1-1,0.3-2,0.6-2.9c0.5-1.5-1.7-2-2.3-0.6
					c-0.3,0.6-0.5,1.2-0.8,1.8c0.8,0.2,1.5,0.4,2.3,0.6c0.4-1.6,0.8-3.3,1.3-4.9c0.3-1.3-1.6-2.2-2.2-0.9c-0.5,1.2-1,2.4-1.5,3.6
					c0.7,0.3,1.5,0.6,2.2,0.9c0.9-2.3,1.7-4.7,2.6-7c-0.8-0.2-1.5-0.4-2.3-0.6c-1,3.1-2.1,6.2-3.1,9.3c-0.5,1.5,1.7,2,2.3,0.6
					s1.2-2.9,1.8-4.3c-0.8-0.2-1.5-0.4-2.3-0.6c-0.3,1.1-0.6,2.1-0.9,3.2c-0.4,1.5,1.9,2.1,2.3,0.6c0.8-2.7,1.6-5.4,2.4-8.1
					c-0.8-0.2-1.5-0.4-2.3-0.6c-0.2,0.9-0.5,1.8-0.7,2.7c0.7,0.3,1.5,0.6,2.2,0.9c0.3-1.6,0.6-3.2,1-4.8c0.2-1.2-1.6-2.2-2.2-0.9
					c-0.5,1.1-0.7,1.4-1,2.6c0.8,0.2,1.5,0.4,2.3,0.6c0.2-0.7,0.4-1.4,0.6-2.2c0.4-1.5-1.8-2.1-2.3-0.6c-0.6,1.6-1,3.1-1.3,4.8
					c0.8,0.1,1.6,0.2,2.4,0.3c0.2-1.7,0.6-3.5,1-5.2c0.2-1.1-1.2-2.1-2-1.2c-0.7,0.8-0.8,0.9-1,1.9c-0.3,1.5,2,2.2,2.3,0.6
					c0.2-1,0.5-1.9,0.7-2.9c0.4-1.5-1.9-2.1-2.3-0.6c-0.1,0.3-0.2,0.6-0.3,0.9c0.8,0.2,1.5,0.4,2.3,0.6c0.3-1.4,0.6-2.7,0.9-4.1
					c0.3-1.5-2-2.2-2.3-0.6c-0.1,0.6-0.3,1.2-0.4,1.8c0.8,0.2,1.5,0.4,2.3,0.6c0.3-1.3,0.5-2.6,0.8-3.9c0.3-1.5-1.8-2.1-2.3-0.6
					c-0.5,0.9-0.7,1.9-0.8,2.9c-0.3,1.5,2,2.2,2.3,0.6c0.3-1.4,0.7-2.9,1-4.3c0.4-1.5-1.9-2.1-2.3-0.6c-0.2,0.9-0.5,1.8-0.7,2.7
					c0.8,0.1,1.6,0.2,2.4,0.3c0.1-0.7,0.2-1.4,0.3-2.2c-0.5,0.3-1,0.6-1.5,0.8c0.1,0,0.2,0.1,0.3,0.1c-0.3-0.5-0.6-1-0.8-1.5
					c0,0.1,0,0.2-0.1,0.4c0.5-0.3,1-0.6,1.5-0.8c0.9,0.2,0.6-0.2,0.6-1.1c0-1.3-2.1-1.7-2.4-0.3c-0.1,0.4-0.1,0.8-0.2,1.2
					c-0.3,1.5,1.8,2.1,2.3,0.6c0.3-0.8,0.5-1.7,0.7-2.6c-0.8-0.2-1.5-0.4-2.3-0.6c-0.3,2-0.6,4-0.9,6c-0.2,1.2,1.6,2.3,2.2,0.9
					c0.6-1.3,1.2-2.7,1.9-4c-0.7-0.3-1.5-0.6-2.2-0.9c-0.7,4.2-1.1,8.4-1,12.7c0,1.3,2.1,1.7,2.4,0.3c0.4-1.9,1-3.8,1.7-5.6
					c-0.8-0.1-1.6-0.2-2.4-0.3c-0.3,3.7-0.6,7.4-1.1,11.1c0.7-0.3,1.4-0.6,2-0.8c-0.2-0.9-0.5-1.9-0.7-2.8c-0.7,0.2-1.3,0.4-2,0.5
					c2.9,2.4,1.7,4.5,1.6,7.2c0,0.4,0.2,0.8,0.6,1c0.3,0.7,0.6,1.3,0.9,2c0.5-0.4,1-0.8,1.5-1.2c0.1-0.2,0.1-0.4,0.2-0.7
					c0.8,0,1.5,0,2.3,0c0.4-1.1,0.9-2.2,1.3-3.3c-0.6-0.3-1.2-0.7-1.8-1c-0.1,1.7-0.6,3.3-1.3,4.9c0.8,0.1,1.6,0.2,2.4,0.3
					c-0.8-1-1.7-2-2.5-3.1c-0.5,0.6-0.9,1.2-1.4,1.8c2.6,0.4,4.4,1.3,6.3,3.2c0.3-0.7,0.6-1.4,0.8-2c-2.9,0-4.9-0.8-7-2.9
					c-0.8-0.8-2-0.2-2,0.8c0.1,0.4,0.2,0.8,0.3,1.3c0.5,0.4,1,0.8,1.5,1.2c-0.2-2.3,0.6-4.3,2.4-6c-0.7-0.3-1.4-0.6-2-0.8
					c1,1.3,1.3,0.7,1-1.8c-0.8-0.1-1.6-0.2-2.4-0.3c-0.2,0.7-0.3,1.4-0.5,2.1c0.8,0.1,1.6,0.2,2.4,0.3c0.1-1.7,0.6-3.3,1.3-4.8
					c-0.8-0.1-1.6-0.2-2.4-0.3c0.2,1.2,0.2,2.5,0,3.7c-0.2,1.5,1.8,2.1,2.3,0.6c0.4-0.9,0.8-1.9,1.1-2.8c-0.7-0.1-1.5-0.2-2.2-0.3
					c0.5,1.4,0.6,2.9,0.3,4.4c-0.1,1.4,1.9,1.5,2.4,0.3c0.7-1.9,1.4-3.7,2.1-5.6c-0.8-0.2-1.5-0.4-2.3-0.6c-0.3,1.9-0.6,3.9-0.9,5.8
					c-0.2,1.5,1.7,2.1,2.3,0.6c0.9-2.2,1.8-4.5,2.8-6.7c-0.8-0.2-1.5-0.4-2.3-0.6c-0.7,3.1-1.3,6.2-2,9.3c-0.3,1.5,1.8,2.1,2.3,0.6
					c0.9-2.4,1.8-4.7,2.9-7c-0.7-0.3-1.5-0.6-2.2-0.9c-0.4,2.5-1,5-1.6,7.5c-0.4,1.5,1.7,2,2.3,0.6c1-2.5,2-5,3-7.4
					c-0.8-0.2-1.5-0.4-2.3-0.6c-0.5,2-1.1,4-1.6,6c-0.4,1.5,1.8,2.1,2.3,0.6c1-2.6,1.9-5.3,2.9-7.9c-0.8-0.1-1.6-0.2-2.4-0.3
					c-0.3,2-0.7,3.7-1.4,5.6c0.8,0.2,1.5,0.4,2.3,0.6c0.8-3.8,1.5-7.6,2-11.4c0.2-1.2-1.8-1.7-2.2-0.6c-1.1,2.6-1.7,5-1.9,7.8
					c-0.1,1.3,2.2,1.7,2.4,0.3c0.2-1.3,0.5-2.5,0.8-3.8c0.4-1.5-1.8-2.1-2.3-0.6c-0.4,1.1-0.7,2.3-1.1,3.4c0.8,0.1,1.6,0.2,2.4,0.3
					c0.1-1.8,0.3-3.7,0.7-5.5c0.2-1-1.2-2.2-2-1.2c-0.6,0.8-1.3,1.6-1.9,2.4c0.7,0.4,1.3,0.8,2,1.2c0.1-0.9,0.4-1.8,0.8-2.6
					c-0.8-0.2-1.5-0.4-2.3-0.6c-0.5,1.9-1,3.7-1.8,5.6c0.8,0.2,1.5,0.4,2.3,0.6c0.9-2.5,1.8-5,2.7-7.6c0.5-1.3-1.5-2-2.2-0.9
					c-1.5,2.2-2.8,4.5-3.9,6.9c0.7,0.3,1.5,0.6,2.2,0.9c0.6-2.4,1.4-4.5,2.4-6.7c-0.7-0.3-1.5-0.6-2.2-0.9c-0.8,2.4-1.8,4.6-3,6.8
					c0.7,0.3,1.5,0.6,2.2,0.9c0.7-2.3,1.5-4.5,2.5-6.7c0.6-1.4-1.2-2.5-2.1-1.2c-1.2,1.8-2.4,3.6-3.7,5.4c0.7,0.2,1.5,0.4,2.2,0.6
					c0.1-1.7,0.5-3.4,1.3-4.9c-0.7-0.3-1.5-0.6-2.2-0.9c-0.9,2.2-1.8,4.4-2.7,6.6c0.8,0.2,1.5,0.4,2.3,0.6c0.8-2.2,1.6-4.5,2.5-6.7
					c-0.8-0.2-1.5-0.4-2.3-0.6c-0.8,2.7-1.8,5.3-3,7.9c0.7,0.3,1.5,0.6,2.2,0.9c0.4-2.5,1-4.7,2.1-7.1c-0.7-0.3-1.5-0.6-2.2-0.9
					c-0.7,1.7-1.3,3.5-2,5.2c0.8,0,1.5,0,2.3,0c-0.4-1.9-0.3-3.8,0.4-5.6c0.4-1.5-1.8-2.1-2.3-0.6c-0.7,1.9-1.4,3.8-2,5.6
					c0.8,0.1,1.6,0.2,2.4,0.3c0-2.1,0.5-4.1,1.5-5.9c-0.7-0.3-1.5-0.6-2.2-0.9c-0.4,2.5-0.8,4.9-1.2,7.4c0.8,0.1,1.6,0.2,2.4,0.3
					c0.1-3,0.4-5.9,0.8-8.8c-0.8,0-1.5,0-2.3,0c0,1.4-0.1,2.7-0.1,4.1c0.8,0,1.5,0,2.3,0c-0.3-2-0.3-3.6-0.1-5.5
					c0.1-1.4-1.9-1.5-2.4-0.3c-0.4,1-0.7,1.9-1.1,2.9c0.8,0.1,1.6,0.2,2.4,0.3c-0.1-0.8-0.1-1.6-0.2-2.4c-0.1-1.1-1.7-1.7-2.2-0.6
					c-0.7,1.3-1.2,2.6-1.7,4c0.8,0.2,1.5,0.4,2.3,0.6c0.3-1.1,0.8-2.2,1.5-3.1c-0.7,0-1.4,0-2.1,0c0.1,0.4,0.1,0.8,0.2,1.2
					c-0.2,1.2,1.6,2.3,2.2,0.9c0.2-0.4,0.4-0.9,0.6-1.3c-0.7-0.2-1.5-0.4-2.2-0.6c-0.1,0.8-0.2,1.7-0.3,2.5
					c-0.4,1.5,1.9,2.1,2.3,0.6c0.5-1.7,0.5-1.4,0.4-3.2c0-1.1-1.7-1.8-2.2-0.6c-0.2,0.4-0.4,0.9-0.6,1.3c0.7,0.3,1.5,0.6,2.2,0.9
					c0.2-1.5,0.2-1.7-0.5-3c-0.4-0.8-1.6-0.7-2.1,0c-0.8,1.2-1.3,2.4-1.8,3.7c-0.5,1.5,1.8,2.1,2.3,0.6c0.4-1.2,0.9-2.4,1.5-3.4
					c-0.7-0.2-1.5-0.4-2.2-0.6c0.1,0.8,0.1,1.6,0.2,2.4c0.1,1.4,1.9,1.6,2.4,0.3c0.4-1,0.7-1.9,1.1-2.9c-0.8-0.1-1.6-0.2-2.4-0.3
					c-0.2,2.1-0.1,4.1,0.2,6.2c0.2,1.2,2,1.1,2.3,0c0.5-1.9,0.5-3.4,0.1-5.3c-0.2-1.1-2.1-1.2-2.3,0c-0.4,3.1-0.7,6.3-0.9,9.4
					c-0.1,1.3,2.1,1.7,2.4,0.3c0.4-2.5,0.8-4.9,1.2-7.4c0.2-1.2-1.6-2.3-2.2-0.9c-1.1,2.3-1.7,4.5-1.8,7.1c-0.1,1.4,1.9,1.5,2.4,0.3
					c0.7-1.9,1.4-3.8,2-5.6c-0.8-0.2-1.5-0.4-2.3-0.6c-0.7,2.4-0.8,4.5-0.4,6.9c0.2,1.3,1.9,1,2.3,0c0.7-1.7,1.3-3.5,2-5.2
					c0.5-1.3-1.6-2.2-2.2-0.9c-1.2,2.5-1.9,4.9-2.4,7.6c-0.2,1.2,1.6,2.3,2.2,0.9c1.3-2.8,2.3-5.5,3.2-8.4c0.5-1.5-1.8-2.1-2.3-0.6
					c-0.8,2.2-1.6,4.5-2.5,6.7c-0.5,1.5,1.7,2,2.3,0.6c0.9-2.2,1.8-4.4,2.7-6.6c0.5-1.2-1.6-2.2-2.2-0.9c-0.9,2-1.4,3.9-1.6,6.1
					c-0.1,1.3,1.6,1.5,2.2,0.6c1.2-1.8,2.4-3.6,3.7-5.4c-0.7-0.4-1.4-0.8-2.1-1.2c-1,2.4-1.9,4.8-2.7,7.3c-0.4,1.3,1.5,2.1,2.2,0.9
					c1.4-2.4,2.4-4.8,3.3-7.4c0.4-1.3-1.6-2.2-2.2-0.9c-1.1,2.4-2,4.8-2.6,7.3c-0.3,1.3,1.6,2.2,2.2,0.9c1.2-2.4,2.5-4.7,3.9-6.9
					c-0.7-0.3-1.5-0.6-2.2-0.9c-0.9,2.5-1.8,5-2.7,7.6c-0.5,1.5,1.7,2,2.3,0.6c0.7-1.8,1.3-3.6,1.8-5.6c0.4-1.5-1.8-2.1-2.3-0.6
					c-0.4,0.8-0.7,1.7-0.8,2.6c-0.2,1.1,1.2,2.2,2,1.2c0.6-0.8,1.3-1.6,1.9-2.4c-0.7-0.4-1.3-0.8-2-1.2c-0.4,2-0.6,4-0.7,6.1
					c-0.1,1.4,2,1.6,2.4,0.3c0.4-1.1,0.7-2.3,1.1-3.4c-0.8-0.2-1.5-0.4-2.3-0.6c-0.4,1.3-0.6,2.5-0.8,3.8c0.8,0.1,1.6,0.2,2.4,0.3
					c0.1-2.5,0.5-4.3,1.5-6.6c-0.7-0.2-1.5-0.4-2.2-0.6c-0.5,3.6-1.1,7.2-1.9,10.8c-0.3,1.5,1.8,2.1,2.3,0.6
					c0.7-2.1,1.2-4.1,1.5-6.2c0.2-1.4-1.9-1.5-2.4-0.3c-1,2.6-1.9,5.3-2.9,7.9c0.8,0.2,1.5,0.4,2.3,0.6c0.5-2,1.1-4,1.6-6
					c0.4-1.5-1.7-2-2.3-0.6c-1,2.5-2,5-3,7.4c0.8,0.2,1.5,0.4,2.3,0.6c0.7-2.5,1.2-5,1.6-7.5c0.2-1.2-1.6-2.3-2.2-0.9
					c-1.1,2.5-2.2,5-3.1,7.5c0.8,0.2,1.5,0.4,2.3,0.6c0.7-3.1,1.3-6.2,2-9.3c0.3-1.5-1.7-2-2.3-0.6c-0.9,2.2-1.8,4.5-2.8,6.7
					c0.8,0.2,1.5,0.4,2.3,0.6c0.3-1.9,0.6-3.9,0.9-5.8c0.2-1.5-1.8-2.1-2.3-0.6c-0.7,1.9-1.4,3.7-2.1,5.6c0.8,0.1,1.6,0.2,2.4,0.3
					c0.1-1.8,0-3.3-0.4-5c-0.2-1-1.7-1.2-2.2-0.3c-0.8,1.6-0.8,1.7-1.4,3.3c0.8,0.2,1.5,0.4,2.3,0.6c0.2-1.5,0.3-2.8,0.1-4.4
					c-0.2-1.4-1.8-1.6-2.4-0.3c-0.8,1.9-1.1,3.5-1.4,5.4c-0.2,1.4,2,1.5,2.4,0.3s0.4-1.4,0.6-2.7c0.2-1.4-2-1.6-2.4-0.3
					c-0.4,1.6-1.4,5.6,0.9,6.4c2.3,0.7,2.9-2.4,2.8-3.9c-0.1-1-1.3-1.6-2-0.8c-2.1,2.2-3.1,4.5-3.1,7.7c0,0.8,0.8,1.3,1.5,1.2
					c5.2-1.1,0.8-9.9-2.5-5.3c-3,4.2,3.8,7.8,4,1.8c-0.7,0.3-1.4,0.6-2,0.8c2.5,2.5,5.2,3.6,8.7,3.6c1,0,1.6-1.3,0.8-2
					c-2.2-2.1-4.4-3.3-7.4-3.8c-0.9-0.2-2,0.8-1.4,1.8c1.1,1.6,2.7,3.6,4.9,3.5c1.7,0,2.9-1.2,2.7-3c-0.6-4-5.4-2.1-5.4,1.3
					c0,1.4,1.9,1.5,2.4,0.3c0.8-1.9,1.1-3.5,1.4-5.5c0.1-0.9-1.1-1.5-1.8-1c-2.2,1.5-3,3.4-2.4,6.1c0.3,1.2,1.9,1,2.3,0
					c1.1-3-1-7.8-4.5-4.6c-2.1,1.9-0.7,8.3,2.7,7.2c2.6-0.8,1.7-4.8-0.9-4.9c-3.2-0.1-3.4,3.9-0.5,4.7c0.8,0.2,1.5-0.4,1.5-1.2
					c0.2-1.8-1.7-6.5-4.2-6c-3.1,0.7-1.3,5.5,1.7,4c2.7-1.3,1.4-7-1.6-6.3c-3.2,0.7-2.3,7,1.1,7c0.6,0,1-0.4,1.2-0.9
					c1.4-3.4,0.8-7.4-2-9.8c-0.7-0.6-1.6-0.3-2,0.5c-0.9,2.1-0.4,3.7,1.3,5.1c0.9,0.7,1.9,0.2,2-0.8c0.5-3.7,0.8-7.4,1.1-11.1
					c0.1-1.5-1.9-1.5-2.4-0.3c-0.7,1.9-1.3,3.7-1.7,5.6c0.8,0.1,1.6,0.2,2.4,0.3c0-4.1,0.3-8.1,0.9-12.1c0.2-1.2-1.6-2.3-2.2-0.9
					c-0.6,1.3-1.2,2.7-1.9,4c0.7,0.3,1.5,0.6,2.2,0.9c0.3-2,0.6-4,0.9-6c0.2-1.5-2-2.2-2.3-0.6c-0.2,0.9-0.4,1.8-0.7,2.6
					c0.8,0.2,1.5,0.4,2.3,0.6c0.1-0.4,0.1-0.8,0.2-1.2c-0.8-0.1-1.6-0.2-2.4-0.3c0,1.4-0.8,2.9,1.1,3.4c0.6,0.1,1.4-0.2,1.5-0.8
					c0-0.1,0-0.2,0.1-0.4c0.1-0.6-0.2-1.3-0.8-1.5c-0.1,0-0.2-0.1-0.3-0.1c-0.6-0.2-1.3,0.2-1.5,0.8c-0.4,1.5-0.4,1.3-0.4,2.8
					c0,1.3,2,1.6,2.4,0.3c0.2-0.9,0.5-1.8,0.7-2.7c-0.8-0.2-1.5-0.4-2.3-0.6c-0.3,1.4-0.7,2.9-1,4.3c0.8,0.2,1.5,0.4,2.3,0.6
					c0.1-1,0.4-2,0.8-2.9c-0.8-0.2-1.5-0.4-2.3-0.6c-0.3,1.3-0.5,2.6-0.8,3.9c-0.3,1.5,2,2.2,2.3,0.6c0.1-0.6,0.3-1.2,0.4-1.8
					c-0.8-0.2-1.5-0.4-2.3-0.6c-0.3,1.4-0.6,2.7-0.9,4.1c-0.3,1.5,1.9,2.1,2.3,0.6c0.1-0.3,0.2-0.6,0.3-0.9
					c-0.8-0.2-1.5-0.4-2.3-0.6c-0.2,1-0.5,1.9-0.7,2.9c0.8,0.2,1.5,0.4,2.3,0.6c0.1-0.3,0.2-0.6,0.4-0.9c-0.7-0.4-1.3-0.8-2-1.2
					c-0.4,2-0.9,3.8-1.1,5.8c-0.1,1.3,2.1,1.6,2.4,0.3c0.3-1.7,0.7-3.2,1.3-4.8c-0.8-0.2-1.5-0.4-2.3-0.6c-0.2,0.7-0.4,1.4-0.6,2.2
					c-0.4,1.5,1.9,2.1,2.3,0.6c0.3-0.7,0.5-1.3,0.8-2c-0.7-0.3-1.5-0.6-2.2-0.9c-0.3,1.6-0.6,3.2-1,4.8c-0.2,1.2,1.6,2.3,2.2,0.9
					c0.7-1.7,0.7-1.4,1-3.3c0.2-1.5-1.9-2.2-2.3-0.6c-0.8,2.7-1.6,5.4-2.4,8.1c0.8,0.2,1.5,0.4,2.3,0.6c0.3-1.1,0.6-2.1,0.9-3.2
					c0.4-1.5-1.7-2-2.3-0.6s-1.2,2.9-1.8,4.3c0.8,0.2,1.5,0.4,2.3,0.6c1-3.1,2.1-6.2,3.1-9.3c0.5-1.5-1.8-2.1-2.3-0.6
					c-0.9,2.3-1.7,4.7-2.6,7c-0.5,1.3,1.7,2.2,2.2,0.9c0.5-1.2,1-2.4,1.5-3.6c-0.7-0.3-1.5-0.6-2.2-0.9c-0.4,1.6-0.8,3.3-1.3,4.9
					c-0.4,1.5,1.7,2,2.3,0.6c0.3-0.6,0.5-1.2,0.8-1.8c-0.8-0.2-1.5-0.4-2.3-0.6c-0.4,0.9-0.6,1.9-0.6,2.9c-0.2,1.2,1.6,2.3,2.2,0.9
					c0.5-1.2,0.6-1.2,0.8-2.5c0.3-1.5-1.7-2.1-2.3-0.6c-0.6,1.4-0.5,1.3-0.6,2.8s1.9,1.5,2.4,0.3c0.4-1.1,0.8-2.2,1.3-3.2
					c-0.8-0.2-1.5-0.4-2.3-0.6c-0.6,1.7-1.2,3.3-1.7,5c0.8,0.1,1.6,0.2,2.4,0.3c0-0.1,0-0.2,0-0.4c0-0.5-0.3-1.1-0.9-1.2
					c-0.1,0-0.3,0-0.4-0.1c-0.5-0.1-1.1,0-1.4,0.6c-0.3,0.6-0.4,0.9-0.4,1.5c0,1.3,2,1.7,2.4,0.3c0.1-0.4,0.2-0.7,0.3-1.1
					c0.3-1.2-1.1-1.9-2-1.2c-3.2,2.6,3,6.7,4.8,0.7c-0.8-0.2-1.5-0.4-2.3-0.6c-0.2,1.1-0.2,1.3,0.1,2.4
					C46.2,175.3,48.6,174.7,48.1,173.2L48.1,173.2z"/>
			</g>
		</g>
		<g>
			<g>
				<path class="st0" d="M49,157.3c0-1.4,0-2.9,0-4.3c0-1.1-1.3-1.5-2-0.8c-0.5,0.5-0.7,0.7-0.8,1.4c0.8,0.2,1.5,0.4,2.3,0.6
					c0.1-0.4,0.2-0.8,0.2-1.3c0.3-1.5-1.9-2.2-2.3-0.6c-0.1,0.6-0.3,1.2-0.4,1.8c0.8,0.2,1.5,0.4,2.3,0.6c0.1-0.4,0.1-0.7,0.2-1.1
					c0.2-1.2-1.5-2.3-2.2-0.9c-0.5,1-0.6,1.2-0.6,2.4c0,1.3,2.1,1.7,2.4,0.3c0.9-3.9,1.7-7.7,2.6-11.6c-0.8-0.2-1.5-0.4-2.3-0.6
					c-0.3,1.6-0.5,3.3-0.8,4.9c0.8,0.1,1.6,0.2,2.4,0.3c-0.2-1.5-0.1-2.9,0.3-4.4c0.3-1.5-2-2.2-2.3-0.6c-0.4,1.6-0.8,3.2-1.1,4.8
					c0.8,0.1,1.6,0.2,2.4,0.3c0-1.4,0.2-2.8,0.6-4.2c0.4-1.5-1.9-2.1-2.3-0.6c-0.3,1.1-0.6,2.1-0.8,3.2c0.8,0.2,1.5,0.4,2.3,0.6
					c0.2-1,0.3-1.9,0.5-2.9c-0.8-0.1-1.6-0.2-2.4-0.3c-0.2,0.6-0.3,1.3-0.5,1.9c0.8,0.2,1.5,0.4,2.3,0.6c0.3-2.3,0.7-4.5,1-6.8
					c0.2-1.5-1.9-2.2-2.3-0.6c-0.3,0.9-0.5,1.8-0.8,2.7c0.8,0.2,1.5,0.4,2.3,0.6c0.3-1.7,0.5-3.4,0.8-5.1c-0.8-0.1-1.6-0.2-2.4-0.3
					c-0.2,1.3-0.3,2.6-0.5,3.9c-0.2,1.3,2.1,1.6,2.4,0.3c0.6-2.7,1.1-5.4,1.7-8.1c-0.8-0.1-1.6-0.2-2.4-0.3c0.1,1.3,0,2.6-0.4,3.9
					c0.8,0.2,1.5,0.4,2.3,0.6c0.3-1.7,0.5-3.4,0.8-5.1c-0.8-0.1-1.6-0.2-2.4-0.3c0,1.2-0.3,2.4-0.8,3.5c0.8,0.1,1.6,0.2,2.4,0.3
					c0.1-0.9,0.2-1.7,0.3-2.6c0.4-1.5-1.8-2.1-2.3-0.6c-0.4,1.1-0.8,2.1-1.1,3.2c0.8,0.1,1.6,0.2,2.4,0.3c0.2-2.1,0.4-4.2,0.6-6.2
					c0.1-1.4-2-1.6-2.4-0.3c-0.7,2.5-1.2,5.1-1.6,7.7c-0.2,1.2,1.5,2.2,2.2,0.9c0.6-1.2,0.6-1.2,0.9-2.5c0.3-1.5-2-2.2-2.3-0.6
					c-0.2,0.6-0.4,1.3-0.6,1.9c0.7,0.3,1.5,0.6,2.2,0.9c0.4-2.6,1-5.1,1.6-7.7c-0.8-0.1-1.6-0.2-2.4-0.3c-0.2,2.1-0.4,4.2-0.6,6.2
					c-0.1,1.4,1.9,1.5,2.4,0.3c0.4-1.1,0.8-2.1,1.1-3.2c-0.8-0.2-1.5-0.4-2.3-0.6c-0.5,1.7-0.4,1.4-0.3,3.2c0.1,1.4,1.9,1.6,2.4,0.3
					c0.5-1.4,0.8-2.7,0.9-4.2c0.1-1.3-2.2-1.7-2.4-0.3c-0.3,1.7-0.5,3.4-0.8,5.1c-0.2,1.5,1.9,2.2,2.3,0.6c0.4-1.6,0.6-2.9,0.5-4.5
					c0-1.3-2.1-1.7-2.4-0.3c-0.6,2.7-1.1,5.4-1.7,8.1c0.8,0.1,1.6,0.2,2.4,0.3c0.2-1.3,0.3-2.6,0.5-3.9c0.2-1.3-2.2-1.7-2.4-0.3
					c-0.3,1.7-0.5,3.4-0.8,5.1c-0.2,1.5,1.9,2.2,2.3,0.6c0.3-0.9,0.5-1.8,0.8-2.7c-0.8-0.2-1.5-0.4-2.3-0.6c-0.3,2.3-0.7,4.5-1,6.8
					c-0.2,1.5,1.8,2.1,2.3,0.6c0.4-1.2,0.4-1.3,0.6-2.6c0.1-1.3-2.1-1.7-2.4-0.3c-0.2,1-0.3,1.9-0.5,2.9c-0.2,1.5,1.9,2.2,2.3,0.6
					c0.3-1.1,0.6-2.1,0.8-3.2c-0.8-0.2-1.5-0.4-2.3-0.6c-0.4,1.6-0.6,3.1-0.7,4.8c-0.1,1.3,2,1.6,2.4,0.3c0.4-1.6,0.8-3.2,1.1-4.8
					c-0.8-0.2-1.5-0.4-2.3-0.6c-0.3,1.7-0.5,3.2-0.4,5c0.1,1.3,2.1,1.7,2.4,0.3c0.3-1.6,0.5-3.3,0.8-4.9c0.2-1.5-2-2.2-2.3-0.6
					c-0.9,3.9-1.7,7.7-2.6,11.6c0.8,0.1,1.6,0.2,2.4,0.3c0.1-0.4,0.2-0.8,0.2-1.2c-0.7-0.3-1.5-0.6-2.2-0.9
					c-0.1,0.4-0.1,0.7-0.2,1.1c-0.2,1.5,1.9,2.2,2.3,0.6c0.1-0.6,0.3-1.2,0.4-1.8c-0.8-0.2-1.5-0.4-2.3-0.6
					c-0.1,0.4-0.2,0.8-0.2,1.3c-0.3,1.5,2,2.2,2.3,0.6c0.1-0.1,0.1-0.2,0.2-0.4c-0.7-0.3-1.4-0.6-2-0.8c0,1.4,0,2.9,0,4.3
					C46.5,158.8,48.9,158.8,49,157.3L49,157.3z"/>
			</g>
		</g>
		<g>
			<g>
				<path class="st0" d="M52.1,130.1c-0.1-0.8-0.2-1.6-0.3-2.4c0.3-1.3-1.5-2.2-2.2-0.9c-0.3,0.5-0.6,1-0.9,1.6
					c0.7,0.2,1.5,0.4,2.2,0.6c0.3-1,0.5-2,0.8-3c-0.7-0.2-1.5-0.4-2.2-0.6c-0.4,1.1-0.8,2.2-1.2,3.3c0.7,0.2,1.5,0.4,2.2,0.6
					c0.1-0.8,0.1-1.5,0.2-2.3c0.4-1.5-1.8-2.1-2.3-0.6c-0.4,1-0.8,2-1.2,3.1c0.8,0.2,1.5,0.4,2.3,0.6c0.8-2.3,1.6-4.6,2.4-7
					c-0.8-0.1-1.6-0.2-2.4-0.3c-0.2,0.5-0.4,1.1-0.6,1.6c0.7,0.3,1.5,0.6,2.2,0.9c0.3-1.2,0.6-2.3,0.8-3.5c-0.8-0.2-1.5-0.4-2.3-0.6
					c-0.1,1.1-0.5,2.2-1.1,3.2c0.7,0.3,1.5,0.6,2.2,0.9c0.7-2.9,1.8-5.4,3.4-7.8c-0.7-0.4-1.4-0.8-2.1-1.2c-0.7,1.1-1.4,2.2-2,3.2
					c0.7,0.4,1.4,0.8,2.1,1.2c1.3-2.2,2.9-4.1,4.6-5.9c-0.6-0.6-1.1-1.1-1.7-1.7c-0.8,1.2-1.9,2.2-3.3,2.9c0.5,0.5,1.1,1.1,1.6,1.6
					c0.6-1.9,2-3.1,4.3-3.6c1.3-0.3,1-2.4-0.3-2.4c-1.7,0-1.7,0.1-3.2,0.7c0.5,0.6,1,1.3,1.5,1.9c1.4-1.4,3-2.6,4.7-3.6
					c1.2-0.7,0.4-2.5-0.9-2.2c-2.2,0.5-3.4,1.4-4.5,3.4c-0.7,1.2,0.9,2.3,1.9,1.5c1.9-1.6,3.4-2.4,5.8-3.2c1.3-0.4,1-2.3-0.3-2.4
					c-1.4-0.1-1.4-0.1-2.7,0.2c-1.3,0.3-1,2.5,0.3,2.4c2-0.2,3.9-0.3,6-0.3c1.6,0,1.5-2.2,0-2.4c-1.3-0.2-2.7-0.3-4-0.5
					c0,0.8,0,1.6,0,2.4c2.3-0.1,4.5-0.3,6.8-0.4c1.5-0.1,1.6-2.3,0-2.4c-1.4-0.1-2.9-0.1-4.3-0.2c0,0.8,0,1.6,0,2.4
					c3-0.2,6-0.3,9-0.5c-0.1-0.8-0.2-1.6-0.3-2.4c-0.9,0.1-1.8,0.2-2.7,0.3c-0.1,0.8-0.2,1.6-0.3,2.4c2.4,0.1,4.8,0.2,7.2,0.3
					c0-0.8,0-1.6,0-2.4c-1.5,0.2-3,0-4.5-0.5c-0.1,0.8-0.2,1.6-0.3,2.4c2.4,0,4.9,0,7.3,0c1.3,0,1.7-2,0.3-2.4
					c-1.6-0.4-3-0.5-4.7-0.4c-1.5,0.1-1.6,2.4,0,2.4c2.9-0.3,5.4,0.8,7.6,3.4c0.7-0.3,1.5-0.6,2.2-0.9c-1-1.9-2.1-3.3-3.7-4.8
					c-1.1-1-2.8,0.6-1.7,1.7c1.5,1.4,2.8,2.8,4.1,4.4c0.8,1.1,2.7-0.4,1.9-1.5c-1.1-1.5-2.3-3-3.4-4.5c-0.6,0.5-1.3,1-1.9,1.5
					c1,0.7,1.7,1.5,2.3,2.6c0.8,1.3,2.8,0.1,2.1-1.2c-0.5-0.9-1-1.7-1.4-2.6c-0.6,0.5-1.3,1-1.9,1.5c1.8,2,2.8,3.9,3.4,6.5
					c0.7-0.3,1.5-0.6,2.2-0.9c-0.5-1-1.1-2-1.6-3c-0.6,0.5-1.3,1-1.9,1.5c2,2.2,3.6,4.6,5,7.2c0.6-0.5,1.3-1,1.9-1.5
					c-1.2-1.2-2.3-2.5-3.2-3.9c-0.6,0.5-1.3,1-1.9,1.5c2.3,2.4,4.3,4.9,6.1,7.7c0.6-0.5,1.3-1,1.9-1.5c-1.1-1.3-2.2-2.7-3.1-4.1
					c-0.6,0.5-1.3,1-1.9,1.5c2.1,1.8,4.1,3.7,5.9,5.8c0.6-0.6,1.1-1.1,1.7-1.7c-0.9-1-1.9-1.9-2.8-2.9c-0.6,0.6-1.1,1.1-1.7,1.7
					c1.9,1.9,3.8,3.9,5.8,5.8c0.5-0.6,1-1.3,1.5-1.9c-0.8-0.6-1.7-1.3-2.5-1.9c-1.1-0.8-2.5,1-1.5,1.9c0.7,0.5,1.3,1,2,1.6
					c1.2,1,2.7-0.5,1.7-1.7c-0.3-0.4-0.6-0.7-1-1.1c-0.6,0.6-1.1,1.1-1.7,1.7c0.5,0.6,1.1,1.2,1.6,1.8c1,1.2,2.7-0.5,1.7-1.7
					c-0.5-0.6-1.1-1.2-1.6-1.8c-1-1.2-2.7,0.5-1.7,1.7c0.3,0.4,0.6,0.7,1,1.1c0.6-0.6,1.1-1.1,1.7-1.7c-0.7-0.5-1.3-1-2-1.6
					c-0.5,0.6-1,1.3-1.5,1.9c0.8,0.6,1.7,1.3,2.5,1.9c1.1,0.8,2.4-0.9,1.5-1.9c-1.9-1.9-3.8-3.9-5.8-5.8c-1.1-1.1-2.8,0.6-1.7,1.7
					c0.9,1,1.9,1.9,2.8,2.9c1.1,1.1,2.7-0.5,1.7-1.7c-1.8-2.1-3.7-4-5.9-5.8c-1-0.8-2.7,0.3-1.9,1.5c1.1,1.6,2.3,3.1,3.5,4.6
					c0.9,1,2.6-0.3,1.9-1.5c-1.9-3-4-5.6-6.5-8.2c-0.9-0.9-2.7,0.3-1.9,1.5c1.1,1.6,2.3,3,3.6,4.4c1,1,2.5-0.3,1.9-1.5
					c-1.5-2.8-3.3-5.3-5.4-7.6c-0.9-1-2.5,0.3-1.9,1.5c0.5,1,1.1,2,1.6,3c0.7,1.2,2.5,0.4,2.2-0.9c-0.7-3-1.9-5.3-4-7.6
					c-0.9-1-2.5,0.3-1.9,1.5c0.5,0.9,1,1.7,1.4,2.6c0.7-0.4,1.4-0.8,2.1-1.2c-0.8-1.3-1.5-2.2-2.7-3.1c-1-0.8-2.8,0.3-1.9,1.5
					c1.1,1.5,2.3,3,3.4,4.5c0.6-0.5,1.3-1,1.9-1.5c-1.3-1.6-2.6-3-4.1-4.4c-0.6,0.6-1.1,1.1-1.7,1.7c1.4,1.3,2.4,2.6,3.3,4.3
					c0.7,1.3,2.4,0.3,2.2-0.9c-0.8-5-5.7-5.2-9.9-5.1c0,0.8,0,1.6,0,2.4c1.4-0.2,2.7-0.1,4.1,0.3c0.1-0.8,0.2-1.6,0.3-2.4
					c-2.4,0-4.9,0-7.3,0c-1.3,0-1.7,2-0.3,2.4c1.8,0.4,3.3,0.6,5.1,0.5c1.5-0.1,1.5-2.3,0-2.4c-2.4-0.1-4.8-0.2-7.2-0.3
					c-1.3-0.1-1.7,2.1-0.3,2.4c1.5,0.3,2.5,0.3,3.9-0.3c1.2-0.4,1.1-2.4-0.3-2.4c-3,0.2-6,0.3-9,0.5c-1.5,0.1-1.5,2.3,0,2.4
					c1.4,0.1,2.9,0.1,4.3,0.2c0-0.8,0-1.6,0-2.4c-2.3,0.1-4.5,0.3-6.8,0.4c-1.6,0.1-1.5,2.2,0,2.4c1.3,0.2,2.7,0.3,4,0.5
					c0-0.8,0-1.6,0-2.4c-2,0-4,0.1-6,0.3c0.1,0.8,0.2,1.6,0.3,2.4c0.7,0,1.4-0.1,2.1-0.1c-0.1-0.8-0.2-1.6-0.3-2.4
					c-2.6,0.8-4.8,2-6.9,3.8c0.6,0.5,1.3,1,1.9,1.5c1-0.8,2-1.5,3-2.3c-0.3-0.7-0.6-1.5-0.9-2.2c-2,1.1-3.6,2.4-5.2,4
					c-1,1,0.3,2.4,1.5,1.9c0.7-0.1,1.3-0.3,2-0.4c-0.1-0.8-0.2-1.6-0.3-2.4c-2.8,0.6-4.5,2-5.7,4.7c-0.5,1,0.5,2.3,1.6,1.6
					c1.5-1,2.6-1.9,3.8-3.3c1-1.2-0.6-2.8-1.7-1.7c-1.9,2-3.5,4-5,6.4c-0.8,1.3,1.3,2.5,2.1,1.2c0.7-1.1,1.4-2.2,2-3.2
					c0.8-1.3-1.2-2.5-2.1-1.2c-1.8,2.7-2.9,5.3-3.7,8.4c-0.3,1.3,1.5,2.2,2.2,0.9c0.7-1.3,1.1-2.3,1.4-3.8c0.3-1.5-2-2.2-2.3-0.6
					c-0.3,1.2-0.6,2.3-0.8,3.5c-0.3,1.3,1.5,2.1,2.2,0.9c0.8-1.3,0.8-1.3,0.9-2.8c0.1-1.4-1.9-1.5-2.4-0.3c-0.8,2.3-1.6,4.6-2.4,7
					c-0.5,1.5,1.8,2.1,2.3,0.6c0.4-1,0.8-2,1.2-3.1c-0.8-0.2-1.5-0.4-2.3-0.6c-0.4,1.6-0.4,1.3-0.2,2.9c0.1,1.1,1.5,1.7,2.2,0.6
					c1-1.5,1.3-2.7,1.6-4.5c0.1-1.2-1.7-1.6-2.2-0.6c-0.7,1.4-1,2.6-1.1,4.2c-0.1,1.2,1.7,1.6,2.2,0.6c0.3-0.5,0.6-1,0.9-1.6
					c-0.7-0.3-1.5-0.6-2.2-0.9c-0.4,1.7-0.2,2.7,0.6,4.2C50.7,132.6,52.8,131.4,52.1,130.1L52.1,130.1z"/>
			</g>
		</g>
		<g>
			<g>
				<path class="st0" d="M100.3,126.8c0.7-0.3,1.4-0.5,2.1-0.8c1.4-0.5,0.8-2.8-0.6-2.3c-0.7,0.1-1.4,0.2-2.1,0.4
					c0.2,0.7,0.4,1.5,0.6,2.2c0.4-0.2,0.9-0.5,1.3-0.7c-0.4-0.7-0.8-1.4-1.2-2.1c-1,0.3-1.9,0.6-2.9,0.9c0.2,0.7,0.4,1.5,0.6,2.2
					c2.4-1.3,4.8-2.5,7.1-3.8c-0.5-0.6-1-1.3-1.5-1.9c-0.6,0.5-1.2,1.1-1.8,1.6c-1,0.9,0.3,2.7,1.5,1.9c1.4-1.1,2.9-2.1,4.3-3.2
					c1.2-0.9,0-3-1.2-2.1c-0.8,0.6-1.6,1.2-2.4,1.8c0.5,0.6,1,1.3,1.5,1.9c2.1-1.7,4.3-3.5,6.4-5.2c-0.6-0.6-1.1-1.1-1.7-1.7
					c-0.4,0.3-0.8,0.7-1.1,1c0.6,0.6,1.1,1.1,1.7,1.7c1.8-2.3,3.5-4.7,5.3-7c-0.7-0.4-1.4-0.8-2.1-1.2c-0.4,0.6-0.8,1.3-1.2,1.9
					c0.7,0.3,1.5,0.6,2.2,0.9c1.6-8.7,20-4.3,25-1.5c0.3-0.7,0.6-1.5,0.9-2.2c-0.5-0.4-1-0.8-1.5-1.1c-0.5,0.6-1,1.3-1.5,1.9
					c4.4,2.4,7.1,6.1,8.4,10.9c0.8-0.2,1.5-0.4,2.3-0.6c-0.7-2.2-1.5-4.2-2.6-6.2c-0.7,0.4-1.4,0.8-2.1,1.2c1,1.7,2.1,3.5,3.1,5.2
					c0.7,1.1,2.7,0.4,2.2-0.9s-1-2.6-1.5-3.9c-0.7,0.3-1.5,0.6-2.2,0.9c1.4,3,2.3,6.1,2.8,9.4c0.8-0.2,1.5-0.4,2.3-0.6
					c-0.3-1.2-0.6-2.5-0.9-3.7c-0.3-1.3-2.5-1-2.4,0.3c0.2,1.9,0.5,3.8,0.7,5.7c0.8-0.1,1.6-0.2,2.4-0.3c-0.2-1.5-0.5-3-0.7-4.5
					c-0.8,0.2-1.5,0.4-2.3,0.6c0.4,1.5,0.8,3,1.2,4.5c0.4,1.5,2.6,0.9,2.3-0.6c-0.2-1.3-0.5-2.6-0.7-3.9c-0.8,0.2-1.5,0.4-2.3,0.6
					c0.4,1.3,0.7,2.6,1.1,3.9c0.3,1.1,2,1.2,2.3,0c0.5-2.1,0.5-3.4-0.2-5.4c-0.5-1.4-2.7-0.9-2.3,0.6c0.9,3.5,1.3,6.9,1.2,10.5
					c0,1.5,2.4,1.5,2.4,0c0.1-3.9-0.3-7.4-1.3-11.1c-0.8,0.2-1.5,0.4-2.3,0.6c0.1,1.4,0.2,2.8,0.2,4.1c0.8,0,1.5,0,2.3,0
					c-0.4-1.3-0.7-2.6-1.1-3.9c-0.4-1.5-2.6-0.9-2.3,0.6c0.2,1.3,0.5,2.6,0.7,3.9c0.8-0.2,1.5-0.4,2.3-0.6c-0.4-1.5-0.8-3-1.2-4.5
					s-2.6-0.9-2.3,0.6c0.2,1.5,0.5,3,0.7,4.5c0.2,1.3,2.5,1,2.4-0.3c-0.2-1.9-0.5-3.8-0.7-5.7c-0.8,0.1-1.6,0.2-2.4,0.3
					c0.3,1.2,0.6,2.5,0.9,3.7c0.4,1.5,2.5,0.9,2.3-0.6c-0.5-3.5-1.5-6.7-3-9.9c-0.6-1.2-2.7-0.3-2.2,0.9c0.5,1.3,1,2.6,1.5,3.9
					c0.7-0.3,1.5-0.6,2.2-0.9c-1-1.7-2.1-3.5-3.1-5.2c-0.8-1.3-2.8-0.1-2.1,1.2c1,1.8,1.8,3.7,2.4,5.6c0.5,1.5,2.7,0.9,2.3-0.6
					c-1.4-5.4-4.6-9.6-9.5-12.3c-1.2-0.7-2.3,0.9-1.5,1.9c1.1,1.3,1.1,1.2,2.6,1.8c1.3,0.5,2.1-1.5,0.9-2.2c-5.4-3-11.8-3.7-18-3.7
					c-4.8,0-9.6,1.4-10.6,6.6c-0.2,1.3,1.4,2.1,2.2,0.9c0.4-0.6,0.8-1.3,1.2-1.9c0.9-1.3-1.2-2.4-2.1-1.2c-1.6,2.2-3.2,4.4-4.9,6.6
					c-0.9,1.2,0.5,2.8,1.7,1.7c0.4-0.3,0.8-0.7,1.1-1c1.2-1-0.5-2.7-1.7-1.7c-2.1,1.7-4.3,3.5-6.4,5.2c-1,0.9,0.4,2.7,1.5,1.9
					c0.8-0.6,1.6-1.2,2.4-1.8c-0.4-0.7-0.8-1.4-1.2-2.1c-1.4,1.1-2.9,2.1-4.3,3.2c0.5,0.6,1,1.3,1.5,1.9c0.6-0.5,1.2-1.1,1.8-1.6
					c1-0.9-0.3-2.5-1.5-1.9c-2.4,1.3-4.8,2.5-7.1,3.8c-1,0.5-0.6,2.3,0.6,2.2c1.6-0.1,2.7-0.4,4.1-1.2c1.3-0.8,0.2-2.8-1.2-2.1
					c-0.4,0.2-0.9,0.5-1.3,0.7c-1.1,0.6-0.6,2.3,0.6,2.2c1.5,0,1.3,0,2.7-0.5c-0.2-0.8-0.4-1.5-0.6-2.3c-0.7,0.3-1.4,0.5-2.1,0.8
					C98.2,125,98.8,127.4,100.3,126.8L100.3,126.8z"/>
			</g>
		</g>
		<g>
			<g>
				<path class="st0" d="M119.4,109.7c-0.2-0.8-0.6-1.6-1.1-2.3c-0.1,0.5-0.1,1-0.2,1.5c0.5-0.6,0.7-1.1,0.8-1.9
					c0.1-0.6-0.6-1.2-1.2-1.2c-0.7,0-1.1,0.6-1.2,1.2c0,0-0.1,0.1-0.1,0.2c-0.3,0.4-0.5,1-0.2,1.5c0.4,0.5,0.7,1.1,0.8,1.7
					C117.5,111.8,119.8,111.2,119.4,109.7L119.4,109.7z"/>
			</g>
		</g>
		<g>
			<g>
				<path class="st0" d="M150,147.4c0.7-2.5,1.4-5,2-7.5c-0.8-0.1-1.6-0.2-2.4-0.3c0.1,2.8,0.1,5.5,0.2,8.3c0,1.3,2,1.7,2.4,0.3
					c0.7-3,1.1-6,1.1-9.1c0-1.3-2.1-1.7-2.4-0.3c-0.5,2.1-0.6,4.2-0.4,6.4c0.1,1.5,2.4,1.6,2.4,0c0.1-2.5,0.1-5,0.2-7.5
					c0-1.4-1.9-1.6-2.4-0.3c-0.4,1.1-0.6,2.2-0.6,3.3c0.8-0.1,1.6-0.2,2.4-0.3c-0.3-1.5-0.4-2.5-0.1-4c0.3-1.5-1.8-2.1-2.3-0.6
					c-0.3,0.9-0.3,0.9-0.3,1.9c0.1,1.5,2.4,1.6,2.4,0c0-1.1,0-2.3,0-3.4c-0.8,0-1.6,0-2.4,0c0,1,0,1.9,0,2.9
					c0.8-0.1,1.6-0.2,2.4-0.3c-0.2-0.5-0.3-0.9-0.5-1.4c-0.5-1.4-2.8-0.8-2.3,0.6c0.1,0.2,0.1,0.5,0.2,0.7c0.5,1.5,2.8,0.8,2.3-0.6
					c-0.1-0.2-0.1-0.5-0.2-0.7c-0.8,0.2-1.5,0.4-2.3,0.6c0.2,0.5,0.3,0.9,0.5,1.4c0.4,1.2,2.4,1.1,2.4-0.3c0-1,0-1.9,0-2.9
					c0-1.5-2.4-1.5-2.4,0c0,1.1,0,2.3,0,3.4c0.8,0,1.6,0,2.4,0c0.1-0.4,0.1-0.8,0.2-1.2c-0.8-0.2-1.5-0.4-2.3-0.6
					c-0.3,1.8-0.3,3.5,0.1,5.3c0.3,1.4,2.3,1,2.4-0.3c0-1,0.2-1.8,0.5-2.7c-0.8-0.1-1.6-0.2-2.4-0.3c-0.1,2.5-0.1,5-0.2,7.5
					c0.8,0,1.6,0,2.4,0c-0.2-2-0.1-3.8,0.4-5.7c-0.8-0.1-1.6-0.2-2.4-0.3c0,2.9-0.4,5.7-1,8.4c0.8,0.1,1.6,0.2,2.4,0.3
					c-0.1-2.8-0.1-5.5-0.2-8.3c0-1.3-2-1.7-2.4-0.3c-0.7,2.5-1.4,5-2,7.5C147.3,148.2,149.6,148.8,150,147.4L150,147.4z"/>
			</g>
		</g>
		<g>
			<g>
				<path class="st0" d="M136.1,166.9c-0.3-2-0.7-4-1.3-6c-0.4-1.3-2.4-1.1-2.4,0.3c0,1.8,0.2,3.4,0.5,5.1c0.3,1.4,2.2,0.9,2.4-0.3
					c0.2-2,0.2-3.7-0.1-5.7c-0.2-1.2-2.1-1.1-2.3,0c-0.3,1.9-0.3,3.4,0.2,5.3c0.4,1.5,2.6,0.9,2.3-0.6s-0.6-2.9-1.1-4.4
					s-2.5-0.9-2.3,0.6s0.4,2.9,0.7,4.4c0.8-0.2,1.5-0.4,2.3-0.6c-0.3-1.5-0.6-2.9-0.9-4.4c-0.3-1.3-2.4-1-2.4,0.3s0,2.5,0,3.8
					c0.8-0.1,1.6-0.2,2.4-0.3c-0.2-0.9-0.3-1.9-0.5-2.8c-0.2-1.3-2.5-1-2.4,0.3c0.2,1.7,0.4,3.3,0.9,5c0.3,1.1,2.1,1.2,2.3,0
					c0.1-0.6,0.2-1.1,0.3-1.7c-0.8,0-1.5,0-2.3,0c0.4,1.4,0.7,2.8,0.9,4.3s2.5,0.9,2.3-0.6c-0.1-0.7-0.2-1.5-0.3-2.2
					c-0.2-1.3-2.5-1-2.4,0.3c0.1,1.1,0.3,2.3,0.4,3.4c0.2,1.5,2.5,1.6,2.4,0c-0.1-1.7-0.1-1.9-0.4-3.5c-0.2-1.3-2.5-1-2.4,0.3
					c0.2,1.6,0.2,2,0.6,3.6c0.3,1.5,2.6,0.9,2.3-0.6c-0.2-0.9-0.3-1.8-0.5-2.7c-0.3-1.3-2.4-1-2.4,0.3c0,1.2,0.1,1.5,0.3,2.7
					c0.3,1.5,2.6,0.9,2.3-0.6c-0.2-1.1-0.5-2.2-0.7-3.3c-0.3-1.4-2.3-1-2.4,0.3c0,1.1,0,2.3-0.1,3.4c0,1.5,2.3,1.5,2.4,0
					c0-0.8,0.1-1.6,0.1-2.4c-0.8,0.1-1.6,0.2-2.4,0.3c0.4,1,0.7,2.1,0.9,3.2c0.4,1.5,2.7,0.9,2.3-0.6c-0.1-0.4-0.2-0.7-0.2-1.1
					c-0.8,0.2-1.5,0.4-2.3,0.6c0.4,1.4,0.6,2.9,0.6,4.4c0.8,0,1.6,0,2.4,0c-0.1-0.7-0.2-1.5-0.2-2.2c-0.2-1.5-2.5-1.6-2.4,0
					c0.1,0.7,0.1,1.4,0.2,2.2c0.8-0.1,1.6-0.2,2.4-0.3c-0.2-1.3-0.5-2.5-0.7-3.8c-0.3-1.5-2.6-0.9-2.3,0.6c0.2,1.1,0.4,2.1,0.5,3.2
					c0.7-0.3,1.5-0.6,2.2-0.9c-0.2-0.6-0.4-1.1-0.6-1.7c-0.4-1.5-2.7-0.9-2.3,0.6c0.9,3.8,1.8,7.5,2.7,11.3c0.4,1.5,2.7,0.9,2.3-0.6
					c-0.5-2.4-1.1-4.7-1.6-7.1c-0.3-1.3-2.5-1-2.4,0.3c0.2,2.2,0.5,4.2,1.3,6.2c0.4,1.1,1.9,1.2,2.3,0c0.1-0.3,3-0.4,3.5-0.6
					c1.5-0.5,0.9-2.5-0.6-2.3s-2.3,0.7-3.2,1.9c-0.8,1,0.2,2.7,1.5,1.9c1.9-1.3,3.8-2.3,5.9-3.2c1.4-0.6,0.8-2.9-0.6-2.3
					c-0.9,0.4-1.9,0.7-2.8,1.1c-1.5,0.6-0.9,2.5,0.6,2.3s2.7-0.5,4.1-1c1.5-0.5,0.9-2.7-0.6-2.3c-1.6,0.4-2.9,0.9-4.3,1.8
					c-1.3,0.8-0.2,2.8,1.2,2.1c2.3-1.2,4.6-1.9,7.1-2.4c1.5-0.3,0.9-2.6-0.6-2.3c-2.8,0.5-5.2,1.4-7.7,2.6c0.4,0.7,0.8,1.4,1.2,2.1
					c1.1-0.8,2.4-1.4,3.8-1.6c-0.2-0.8-0.4-1.5-0.6-2.3c-1.4,0.5-2.7,0.8-4.1,1c0.2,0.8,0.4,1.5,0.6,2.3c0.9-0.4,1.9-0.7,2.8-1.1
					c-0.2-0.8-0.4-1.5-0.6-2.3c-2.3,0.9-4.4,2-6.5,3.4c0.5,0.6,1,1.3,1.5,1.9c0.7-0.4,1.5-0.8,2.2-1.2c-0.2-0.8-0.4-1.5-0.6-2.3
					c-2.2,0.7-4.3-0.4-5.2,2.3c0.8,0,1.5,0,2.3,0c-0.7-1.9-1.1-3.5-1.2-5.6c-0.8,0.1-1.6,0.2-2.4,0.3c0.5,2.4,1.1,4.7,1.6,7.1
					c0.8-0.2,1.5-0.4,2.3-0.6c-0.9-3.8-1.8-7.5-2.7-11.3c-0.8,0.2-1.5,0.4-2.3,0.6c0.3,1.1,0.4,1.2,0.9,2.2c0.7,1.3,2.4,0.3,2.2-0.9
					c-0.2-1.1-0.4-2.1-0.5-3.2c-0.8,0.2-1.5,0.4-2.3,0.6c0.2,1.3,0.5,2.5,0.7,3.8c0.3,1.3,2.5,1,2.4-0.3c-0.1-0.7-0.1-1.4-0.2-2.2
					c-0.8,0-1.6,0-2.4,0c0.1,0.7,0.2,1.5,0.2,2.2c0.2,1.5,2.5,1.6,2.4,0c-0.1-1.7-0.3-3.3-0.7-5c-0.4-1.5-2.7-0.9-2.3,0.6
					c0.1,0.4,0.2,0.7,0.2,1.1c0.8-0.2,1.5-0.4,2.3-0.6c-0.2-1.1-0.5-2.2-0.9-3.2c-0.4-1.3-2.3-1.1-2.4,0.3c0,0.8-0.1,1.6-0.1,2.4
					c0.8,0,1.6,0,2.4,0c0-1.1,0-2.3,0.1-3.4c-0.8,0.1-1.6,0.2-2.4,0.3c0.2,1.1,0.5,2.2,0.7,3.3c0.8-0.2,1.5-0.4,2.3-0.6
					c-0.1-0.7-0.2-1.4-0.2-2c-0.8,0.1-1.6,0.2-2.4,0.3c0.2,0.9,0.3,1.8,0.5,2.7c0.8-0.2,1.5-0.4,2.3-0.6c-0.2-1-0.3-2-0.5-3
					c-0.8,0.1-1.6,0.2-2.4,0.3c0.1,1,0.2,1.9,0.3,2.9c0.8,0,1.6,0,2.4,0c-0.1-1.1-0.3-2.3-0.4-3.4c-0.8,0.1-1.6,0.2-2.4,0.3
					c0.1,0.7,0.2,1.5,0.3,2.2c0.8-0.2,1.5-0.4,2.3-0.6c-0.2-1.5-0.5-2.9-0.9-4.3c-0.3-1.1-2.1-1.2-2.3,0c-0.1,0.6-0.2,1.1-0.3,1.7
					c0.8,0,1.5,0,2.3,0c-0.4-1.4-0.7-2.9-0.8-4.4c-0.8,0.1-1.6,0.2-2.4,0.3c0.2,0.9,0.3,1.9,0.5,2.8c0.2,1.3,2.4,1,2.4-0.3
					s0-2.5,0-3.8c-0.8,0.1-1.6,0.2-2.4,0.3c0.3,1.5,0.6,2.9,0.9,4.4c0.3,1.5,2.5,0.9,2.3-0.6s-0.4-2.9-0.7-4.4
					c-0.8,0.2-1.5,0.4-2.3,0.6c0.4,1.5,0.8,2.9,1.1,4.4c0.8-0.2,1.5-0.4,2.3-0.6c-0.1-1.4-0.2-2.7-0.2-4.1c-0.8,0-1.5,0-2.3,0
					c0.3,1.8,0.2,3.3,0,5c0.8-0.1,1.6-0.2,2.4-0.3c-0.3-1.5-0.5-3-0.4-4.5c-0.8,0.1-1.6,0.2-2.4,0.3c0.6,2,1,3.9,1.3,6
					C134,169.1,136.3,168.5,136.1,166.9L136.1,166.9z"/>
			</g>
		</g>
		<g>
			<g>
				<path class="st0" d="M134.3,156.2c0,0.4-0.2,0.8-0.4,1.2c0.6-0.1,1.3-0.2,1.9-0.2c-0.7-0.7-1-1.5-1.3-2.5
					c-0.3-1.2-1.9-1.1-2.3,0c-0.4,1.2-0.6,2.4-0.4,3.7c0.6-0.3,1.2-0.7,1.8-1c-0.1-0.1-0.1-0.2-0.2-0.3c-0.7,0.3-1.5,0.6-2.2,0.9
					c0.2,0.4,0.4,0.8,0.4,1.2c0.6-0.5,1.2-0.9,1.8-1.4c-0.1-0.1-0.2-0.1-0.3-0.2c-0.8-0.7-1.9-0.2-2,0.8c-0.1,0.7,0,1.4,0.1,2.1
					c0.8-0.2,1.5-0.4,2.3-0.6c-0.2-0.6-0.4-1.2-0.6-1.9c-0.3-0.9-1.7-1.3-2.2-0.3c-0.1,0.3-0.3,0.6-0.4,0.9c0.7,0,1.4,0,2.1,0
					c-0.2-0.4-0.3-0.9-0.4-1.4c-0.7,0.3-1.4,0.6-2,0.8c0.5,0.5,0.8,1.1,1.2,1.7c0.6,1.1,2.1,0.5,2.2-0.6
					C133.5,158.1,133.8,157.1,134.3,156.2c-0.7,0-1.4,0-2.1,0c0.6,1.5,1.1,3,1.6,4.6c0.4,1.4,2.2,1,2.4-0.3c0.2-1.9,0.1-3.7-0.1-5.6
					c-0.7,0.3-1.5,0.6-2.2,0.9c1.2,1.9,0.2,4.3,1.9,6.1c0.6,0.6,1.9,0.4,2-0.5c0.3-1.9,0.8-3.8,1.4-5.6c-0.8-0.1-1.6-0.2-2.4-0.3
					c0.2,1.5,0.3,2.9,0.5,4.4s2.5,1.6,2.4,0c-0.1-1.4-0.2-2.7-0.3-4.1c-0.1-1.5-2.5-1.5-2.4,0c0.1,1.4,0.2,2.7,0.3,4.1
					c0.8,0,1.6,0,2.4,0c-0.2-1.5-0.3-2.9-0.5-4.4c-0.1-1.3-1.9-1.6-2.4-0.3c-0.6,1.8-1.1,3.7-1.4,5.6c0.7-0.2,1.3-0.4,2-0.5
					c-0.7-0.8-0.6-2-0.7-3c-0.1-1-0.3-1.8-0.8-2.6c-0.8-1.2-2.4-0.4-2.2,0.9c0.2,1.7,0.2,3.3,0,5c0.8-0.1,1.6-0.2,2.4-0.3
					c-0.5-1.7-1.1-3.5-1.8-5.1c-0.4-0.8-1.7-0.7-2.1,0c-0.7,1.3-1.1,2.7-1.3,4.2c0.7-0.2,1.5-0.4,2.2-0.6c-0.4-0.8-1-1.5-1.5-2.2
					c-0.6-0.8-2.2-0.2-2,0.8c0.1,0.9,0.3,1.7,0.7,2.6c0.4,0.8,1.7,0.8,2.1,0c0.1-0.3,0.3-0.6,0.4-0.9c-0.7-0.1-1.5-0.2-2.2-0.3
					c0.2,0.6,0.4,1.2,0.6,1.9c0.5,1.5,2.6,0.9,2.3-0.6c-0.1-0.5-0.1-0.9,0-1.4c-0.7,0.3-1.4,0.6-2,0.8c0.3,0.2,0.5,0.4,0.8,0.5
					c1,0.5,2-0.3,1.8-1.4c-0.1-0.6-0.3-1.2-0.7-1.8c-0.7-1.3-2.5-0.4-2.2,0.9c0.2,0.8,0.6,1.3,1.3,1.8s1.9-0.2,1.8-1
					c-0.1-1.1,0-2,0.3-3.1c-0.8,0-1.5,0-2.3,0c0.3,1.4,1,2.5,1.9,3.5c0.5,0.6,1.5,0.4,1.9-0.2c0.3-0.6,0.5-1.1,0.6-1.8
					C136.9,155.3,134.6,154.7,134.3,156.2L134.3,156.2z"/>
			</g>
		</g>
		<g>
			<g>
				<path class="st0" d="M151.7,158.8c0.3-2.6,0.6-5.3,0.9-7.9c-0.8,0-1.6,0-2.4,0c0.1,1.8,0.3,3.6,0.4,5.3c0.1,1.5,2.5,1.6,2.4,0
					c-0.1-2.1,0-4.1,0.2-6.2c-0.8,0-1.6,0-2.4,0c0.2,1.6,0.4,3.1,0.6,4.7c0.2,1.5,2.5,1.6,2.4,0c-0.2-2.1-0.4-4.2-0.5-6.2
					c-0.1-1.5-2.4-1.6-2.4,0c0,1.5,0.1,2.9,0.3,4.4s2.6,1.5,2.4,0c-0.2-1.9-0.4-3.7-0.6-5.6c-0.8,0-1.6,0-2.4,0
					c0.2,1.5,0.4,2.9,0.6,4.4c0.2,1.5,2.5,1.6,2.4,0c-0.2-2-0.3-4.1-0.5-6.1c-0.1-1.5-2.5-1.5-2.4,0c0.2,2.6,0.3,5.2,0.5,7.8
					c0.1,1.5,2.5,1.6,2.4,0c-0.1-1.8-0.2-3.7-0.3-5.5c-0.1-1.5-2.4-1.6-2.4,0c0,1.3,0.2,2.4,0.5,3.6c0.4,1.3,2.4,1.1,2.4-0.3
					c0-1.8-0.2-3.6-0.5-5.4c-0.2-1.3-2.4-1-2.4,0.3c0.1,4,0.2,7.9,0.3,11.9c0.7-0.2,1.5-0.4,2.2-0.6c-0.2-0.9-0.4-1.8-0.6-2.7
					c-0.8,0.1-1.6,0.2-2.4,0.3c0.5,2.4,0.7,4.7,0.7,7.2c0.8-0.1,1.6-0.2,2.4-0.3c-0.2-1.6-0.4-3.1-0.7-4.7c-0.8,0.2-1.5,0.4-2.3,0.6
					c0.5,1.9,0.9,3.8,1.2,5.7c0.2,1.3,2.4,1,2.4-0.3c-0.1-2.2-0.2-4.5-0.3-6.7c-0.8,0.1-1.6,0.2-2.4,0.3c0.3,1.7,0.6,3.4,0.9,5.1
					c0.2,1.3,2.5,1,2.4-0.3c-0.2-1.9-0.5-3.8-0.7-5.7c-0.2-1.5-2.4-1.6-2.4,0c0.1,2.3,0.3,4.6,0.8,6.8c0.3,1.3,2.5,1,2.4-0.3
					c-0.4-3.2-0.8-6.3-1.3-9.5c-0.2-1.5-2.6-1.5-2.4,0c0.2,1.7,0.4,3.4,0.6,5.2c0.2,1.5,2.4,1.6,2.4,0c0-2-0.2-4-0.6-6
					c-0.3-1.5-2.6-0.9-2.3,0.6c0.3,1.8,0.5,3.5,0.5,5.3c0.8,0,1.6,0,2.4,0c-0.2-1.7-0.4-3.4-0.6-5.2c-0.8,0-1.6,0-2.4,0
					c0.4,3.2,0.8,6.3,1.3,9.5c0.8-0.1,1.6-0.2,2.4-0.3c-0.4-2.1-0.6-4.1-0.7-6.2c-0.8,0-1.6,0-2.4,0c0.2,1.9,0.5,3.8,0.7,5.7
					c0.8-0.1,1.6-0.2,2.4-0.3c-0.3-1.7-0.6-3.4-0.9-5.1c-0.2-1.3-2.4-1-2.4,0.3c0.1,2.2,0.2,4.5,0.3,6.7c0.8-0.1,1.6-0.2,2.4-0.3
					c-0.3-1.9-0.7-3.8-1.2-5.7c-0.4-1.5-2.5-0.8-2.3,0.6c0.2,1.6,0.4,3.1,0.7,4.7c0.2,1.4,2.4,1,2.4-0.3c0-2.7-0.3-5.2-0.8-7.8
					c-0.3-1.3-2.4-1-2.4,0.3c0.1,1.4,0.4,2.6,0.9,3.9c0.5,1.1,2.3,0.5,2.2-0.6c-0.1-4-0.2-7.9-0.3-11.9c-0.8,0.1-1.6,0.2-2.4,0.3
					c0.3,1.6,0.4,3.1,0.4,4.7c0.8-0.1,1.6-0.2,2.4-0.3c-0.3-1-0.5-2-0.4-3c-0.8,0-1.6,0-2.4,0c0.1,1.8,0.2,3.7,0.3,5.5
					c0.8,0,1.6,0,2.4,0c-0.2-2.6-0.3-5.2-0.5-7.8c-0.8,0-1.6,0-2.4,0c0.2,2,0.3,4.1,0.5,6.1c0.8,0,1.6,0,2.4,0
					c-0.2-1.5-0.4-2.9-0.6-4.4c-0.2-1.5-2.6-1.5-2.4,0c0.2,1.9,0.4,3.7,0.6,5.6c0.8,0,1.6,0,2.4,0c-0.2-1.5-0.3-2.9-0.3-4.4
					c-0.8,0-1.6,0-2.4,0c0.2,2.1,0.4,4.2,0.5,6.2c0.8,0,1.6,0,2.4,0c-0.2-1.6-0.4-3.1-0.6-4.7c-0.2-1.5-2.2-1.6-2.4,0
					c-0.2,2.1-0.3,4.1-0.2,6.2c0.8,0,1.6,0,2.4,0c-0.1-1.8-0.3-3.6-0.4-5.3c-0.1-1.6-2.2-1.5-2.4,0c-0.3,2.6-0.6,5.3-0.9,7.9
					C149.1,160.3,151.5,160.3,151.7,158.8L151.7,158.8z"/>
			</g>
		</g>
		<g>
			<g>
				<path class="st0" d="M147.7,179.3c1.3,0.1,2.6,0.2,3.9,0.2c-0.1-0.8-0.2-1.6-0.3-2.4c-0.5,0.1-1,0.3-1.5,0.4
					c0.2,0.8,0.4,1.5,0.6,2.3c2-0.6,6.1-0.6,6.3-3.3c0.1-2-0.7-4.6-1-6.6c-0.4-2.5-0.8-5-1.1-7.5c-0.8,0.2-1.5,0.4-2.3,0.6
					c0.7,3.2,0.9,6.3,0.5,9.6c-0.2,1.5,2.2,1.5,2.4,0c0.4-3.5,0.2-6.8-0.6-10.2c-0.4-1.5-2.5-0.9-2.3,0.6c0.5,3.1,1,6.2,1.4,9.4
					c0.2,1.2,0.9,3,0,3.9c-0.6,0.6-3.1,0.8-4,1.1c-1.5,0.4-0.9,2.7,0.6,2.3c0.5-0.1,1-0.3,1.5-0.4c1.3-0.3,1-2.4-0.3-2.4
					s-2.6-0.1-3.9-0.2C146.2,176.8,146.2,179.2,147.7,179.3L147.7,179.3z"/>
			</g>
		</g>
		<g>
			<g>
				<path class="st0" d="M154.7,177.1c0.4,0,0.7,0.2,0.9,0.6c0.6-0.5,1.3-1,1.9-1.5c-0.6-0.5-1.2-1-1.8-1.5c-0.5-0.4-1.2-0.5-1.7,0
					c-0.4,0.4-0.5,1.3,0,1.7c0.6,0.5,1.2,1,1.8,1.5c1,0.9,2.5-0.2,1.9-1.5c-0.5-1.1-1.7-1.8-3-1.8
					C153.2,174.7,153.2,177.1,154.7,177.1L154.7,177.1z"/>
			</g>
		</g>
		<g>
			<g>
				<path class="st0" d="M117.5,251.5c1.5,3.5,2.7,7.2,4.4,10.5c1.4,2.8,3.2,3.7,5.5,5.7c0.2-0.7,0.4-1.3,0.5-2c-1,0.2-2,0.4-3,0.6
					c-1.6,0.1-1.5,2.2,0,2.4c1.6,0.2,3.2,0.4,4.8,0.5c-0.1-0.8-0.2-1.6-0.3-2.4c-1.2,0.3-2.4,0.6-3.6,0.8c0.2,0.8,0.4,1.5,0.6,2.3
					c1.1-0.1,2.2-0.2,3.2-0.4c-0.2-0.7-0.4-1.5-0.6-2.2c-0.4,0.2-0.9,0.4-1.3,0.7c-1.1,0.6-0.5,2.2,0.6,2.2s1.2,0,2.2-0.3
					c0.8-0.2,1-1.1,0.7-1.8c-0.7-1.6-1.4-3.1-2.1-4.6c-0.6-1.2-2.6-0.4-2.2,0.9c0.1,0.5,0.2,1,0.3,1.6c0.8-0.1,1.6-0.2,2.4-0.3
					c-0.5-2.8-1.2-5.4-2-8.1c-0.5-1.5-2.7-0.9-2.3,0.6c0.7,2.4,1.5,4.7,2.5,7c0.5,1.1,2.4,0.6,2.2-0.6c-0.3-2.3-0.7-4.4-1.3-6.7
					c-0.4-1.5-2.5-0.8-2.3,0.6c0.2,1.3,0.4,2.6,0.6,4c0.8-0.2,1.5-0.4,2.3-0.6c-0.7-3.4-1.3-6.9-1.6-10.4c-0.2-1.5-2.5-1.5-2.4,0
					c0.2,2,0.4,4,0.6,6c0.1,1.5,2.5,1.6,2.4,0c-0.2-3.3-0.6-6.5-1.1-9.8c-0.3-1.5-2.5-0.9-2.3,0.6c0.3,2,0.6,4,0.9,6
					c0.2,1.3,2.5,1,2.4-0.3c-0.3-2.2-0.4-4.3-0.5-6.5c-0.8,0.1-1.6,0.2-2.4,0.3c0.6,3.7,1.3,7.4,1.9,11.2c0.2,1.3,2.5,1,2.4-0.3
					c-0.7-6.2-1.3-12.5-2-18.7c-0.2-1.5-2.6-1.5-2.4,0c0.7,6.2,1.3,12.5,2,18.7c0.8-0.1,1.6-0.2,2.4-0.3c-0.6-3.7-1.3-7.4-1.9-11.2
					c-0.2-1.3-2.4-1-2.4,0.3c0.1,2.2,0.2,4.3,0.5,6.5c0.8-0.1,1.6-0.2,2.4-0.3c-0.3-2-0.6-4-0.9-6c-0.8,0.2-1.5,0.4-2.3,0.6
					c0.5,3,0.9,6.1,1.1,9.1c0.8,0,1.6,0,2.4,0c-0.2-2-0.4-4-0.6-6c-0.8,0-1.6,0-2.4,0c0.4,3.7,1,7.4,1.7,11c0.3,1.5,2.5,0.9,2.3-0.6
					c-0.2-1.3-0.4-2.6-0.6-4c-0.8,0.2-1.5,0.4-2.3,0.6c0.6,2,1,3.9,1.2,6c0.7-0.2,1.5-0.4,2.2-0.6c-0.9-2.2-1.6-4.2-2.2-6.5
					c-0.8,0.2-1.5,0.4-2.3,0.6c0.9,2.7,1.6,5.3,2,8.1c0.2,1.3,2.4,1,2.4-0.3c0-1.1,0-1.2-0.4-2.2c-0.7,0.3-1.5,0.6-2.2,0.9
					c0.7,1.5,1.5,3.1,2.1,4.6c0.2-0.6,0.5-1.2,0.7-1.8c-0.5,0.1-1.1,0.1-1.6,0.2c0.2,0.7,0.4,1.5,0.6,2.2c0.4-0.2,0.9-0.4,1.3-0.7
					c1.1-0.6,0.5-2.2-0.6-2.2c-2.1,0-1.8-0.1-3.9,0.4c-1.5,0.4-0.9,2.7,0.6,2.3c1.2-0.3,2.4-0.6,3.6-0.8c1.4-0.3,0.9-2.2-0.3-2.4
					c-1.6-0.2-3.2-0.4-4.8-0.5c0,0.8,0,1.6,0,2.4c2-0.1,1.7-0.1,3.7-0.7c0.8-0.2,1.2-1.4,0.5-2c-1.9-1.7-3.8-3-5.1-5.2
					c-1.7-3.1-2.8-6.7-4.2-10C119.3,249.5,116.9,250.1,117.5,251.5L117.5,251.5z"/>
			</g>
		</g>
		<g>
			<g>
				<path class="st0" d="M127.8,167.6c1.1-2,2.1-4,2.9-6.2c0.5-1.3-1.6-2.2-2.2-0.9c-1.2,2.5-2.1,5.1-2.8,7.8
					c-0.4,1.5,1.7,2,2.3,0.6c0.9-2.3,1.9-4.6,2.8-6.8c-0.8-0.2-1.5-0.4-2.3-0.6c-0.7,2-1.1,4-1.4,6.2c-0.1,1.3,1.7,1.5,2.2,0.6
					c0.9-1.4,1.5-2.7,2-4.4c-0.8-0.1-1.6-0.2-2.4-0.3c-0.1,0.8-0.2,1.5-0.3,2.3c-0.2,1.4,2,1.6,2.4,0.3c0.4-1.2,0.7-2.4,1.1-3.6
					c0.4-1.4-1.5-2-2.2-0.9c-0.2,0.4-0.5,0.7-0.7,1.1c0.7,0.3,1.5,0.6,2.2,0.9c0.2-1.4,0.5-2.8,0.7-4.3c0.2-1.2-1.6-2.3-2.2-0.9
					c-1.2,2.6-2.1,5.2-2.6,8c0.8,0,1.5,0,2.3,0c0-0.5-0.1-1.1-0.1-1.6c0.3-1.5-2-2.2-2.3-0.6c-0.5,2.5-1,4.9-1.5,7.4
					c-0.3,1.5,1.9,2.1,2.3,0.6c0.4-1.5,0.8-2.9,1.2-4.4s-1.9-2.1-2.3-0.6c-0.6,2.1-1,4.2-1.1,6.4c-0.1,1.4,2,1.6,2.4,0.3
					c0.5-1.8,1-3.6,1.5-5.4c-0.8,0-1.5,0-2.3,0c0.3,1.6,0.3,3.1,0,4.6c-0.2,1.4,2,1.6,2.4,0.3c0.4-1.7,0.9-3.4,1.3-5.1
					c-0.8-0.2-1.5-0.4-2.3-0.6c-0.2,1.4-0.5,2.7-0.7,4.1c0.8,0.1,1.6,0.2,2.4,0.3c0.1-2.1,0.2-4.2,0.3-6.4c0.1-1.3-2.1-1.7-2.4-0.3
					c-1.3,6.1-2,12.2-2.3,18.4c-0.1,1.6,2.2,1.5,2.4,0c0.4-3.4,0.8-6.8,1.2-10.3c0.2-1.3-2.1-1.7-2.4-0.3c-0.5,3.3-0.8,6.5-0.7,9.8
					c0,1.3,2,1.6,2.4,0.3c0.9-3,1.4-6,1.7-9.1c0.1-1.5-2.2-1.5-2.4,0c-0.8,7.4-1.6,14.8-2.4,22.2c0.8,0,1.6,0,2.4,0
					c0.2-3,0.4-6,0.5-9c-0.8,0-1.6,0-2.4,0c0,3.9,0.2,7.7,0.4,11.5c0.8-0.1,1.6-0.2,2.4-0.3c-0.1-0.8-0.2-1.7-0.3-2.5
					c-0.2-1.3-2-1-2.3,0c-0.5,1.5-0.7,2.7-0.5,4.3c0.1,1.5,2.3,1.6,2.4,0c0.1-2,0.2-3.9,0.3-5.9c-0.8,0-1.6,0-2.4,0
					c-0.1,3-0.1,5.9,0.1,8.9c0.1,1.5,2.4,1.6,2.4,0c0-1.2,0-2.4,0-3.6c0-1.5-2.4-1.5-2.4,0c0,1.2,0,2.4,0,3.6c0.8,0,1.6,0,2.4,0
					c-0.2-3-0.2-5.9-0.1-8.9c0.1-1.5-2.3-1.5-2.4,0c-0.1,2-0.2,3.9-0.3,5.9c0.8,0,1.6,0,2.4,0c-0.3-1.3-0.1-2.5,0.4-3.7
					c-0.8,0-1.5,0-2.3,0c0.1,0.8,0.2,1.7,0.3,2.5c0.2,1.3,2.5,1,2.4-0.3c-0.3-3.8-0.4-7.7-0.4-11.5c0-1.6-2.3-1.5-2.4,0
					c-0.2,3-0.4,6-0.5,9c-0.1,1.6,2.2,1.5,2.4,0c0.8-7.4,1.6-14.8,2.4-22.2c-0.8,0-1.6,0-2.4,0c-0.3,2.9-0.8,5.6-1.6,8.4
					c0.8,0.1,1.6,0.2,2.4,0.3c-0.1-3.1,0.1-6.1,0.6-9.2c-0.8-0.1-1.6-0.2-2.4-0.3c-0.4,3.4-0.8,6.8-1.2,10.3c0.8,0,1.6,0,2.4,0
					c0.3-6,1-11.9,2.2-17.7c-0.8-0.1-1.6-0.2-2.4-0.3c-0.1,2.1-0.2,4.2-0.3,6.4c-0.1,1.3,2.1,1.7,2.4,0.3c0.2-1.4,0.5-2.7,0.7-4.1
					c0.3-1.5-1.9-2.2-2.3-0.6c-0.4,1.7-0.9,3.4-1.3,5.1c0.8,0.1,1.6,0.2,2.4,0.3c0.2-1.9,0.2-3.4-0.1-5.3c-0.2-1.2-2-1.1-2.3,0
					c-0.5,1.8-1,3.6-1.5,5.4c0.8,0.1,1.6,0.2,2.4,0.3c0.1-2.1,0.5-3.8,1.1-5.8c-0.8-0.2-1.5-0.4-2.3-0.6c-0.4,1.5-0.8,2.9-1.2,4.4
					c0.8,0.2,1.5,0.4,2.3,0.6c0.5-2.5,1-4.9,1.5-7.4c-0.8-0.2-1.5-0.4-2.3-0.6c-0.2,1.4-0.3,1.5,0.1,2.9c0.3,1.1,2.1,1.2,2.3,0
					c0.5-2.7,1.2-5,2.4-7.4c-0.7-0.3-1.5-0.6-2.2-0.9c-0.2,1.4-0.5,2.8-0.7,4.3c-0.2,1.3,1.4,2.1,2.2,0.9c0.2-0.4,0.5-0.7,0.7-1.1
					c-0.7-0.3-1.5-0.6-2.2-0.9c-0.4,1.2-0.7,2.4-1.1,3.6c0.8,0.1,1.6,0.2,2.4,0.3c0.1-0.8,0.2-1.5,0.3-2.3c0.2-1.4-2-1.6-2.4-0.3
					c-0.3,1.4-0.9,2.7-1.7,3.8c0.7,0.2,1.5,0.4,2.2,0.6c0.2-2,0.6-3.6,1.3-5.5c0.5-1.5-1.7-2-2.3-0.6c-0.9,2.3-1.9,4.6-2.8,6.8
					c0.8,0.2,1.5,0.4,2.3,0.6c0.6-2.5,1.5-4.9,2.6-7.3c-0.7-0.3-1.5-0.6-2.2-0.9c-0.8,2-1.6,3.8-2.7,5.6
					C125,167.7,127,169,127.8,167.6L127.8,167.6z"/>
			</g>
		</g>
		<g>
			<g>
				<path class="st0" d="M129.2,202.1c0.3-2.1,0.7-4.2,0.8-6.3c0.1-1.2-0.6-2.5-2-2.2c-1.5,0.4-0.9,2.7,0.6,2.3c0.1,0,0.1,0,0.2-0.1
					c-0.4-0.1-0.8-0.2-1.2-0.3c0.1,0.1-0.4,2.3-0.4,2.7c-0.1,1.1-0.3,2.1-0.4,3.2C126.6,202.9,128.9,203.6,129.2,202.1L129.2,202.1z
					"/>
			</g>
		</g>
		<g>
			<g>
				<path class="st0" d="M123.4,234.1c0.2,1.3,0.5,2.7,0.7,4c0.7-0.3,1.5-0.6,2.2-0.9c-0.1-0.4-0.2-0.8-0.2-1.3
					c-0.8-0.1-1.6-0.2-2.4-0.3c0.1,1.4,0.2,2.9,0.3,4.3c0.1,1.6,2.2,1.5,2.4,0c0.1-0.9,0.2-1.9,0.3-2.8c-0.8,0-1.6,0-2.4,0
					c0.1,1.3,0.2,2.6,0.4,3.8c0.1,1.5,2.2,1.5,2.4,0c0.1-1.4,0.2-2.6,0.1-4c-0.8,0-1.6,0-2.4,0c0.1,0.9,0.1,1.8,0.2,2.7
					c0.8,0,1.6,0,2.4,0c-0.2-1-0.2-2-0.1-3.1c-0.8,0.1-1.6,0.2-2.4,0.3c0,0.8-0.1,1.6-0.1,2.4c0.8,0.1,1.6,0.2,2.4,0.3
					c0.6-13,1.3-25.9,2.2-38.9c0.1-1.5-2.3-1.5-2.4,0c-0.9,12.9-1.7,25.9-2.2,38.9c-0.1,1.3,2.1,1.6,2.4,0.3
					c0.4-1.8,0.4-1.8,0.1-3.7c-0.2-1.4-2.3-1-2.4,0.3c-0.1,1,0,2,0.1,3.1c0.2,1.5,2.5,1.6,2.4,0c-0.1-0.9-0.1-1.8-0.2-2.7
					c-0.1-1.5-2.5-1.6-2.4,0c0.1,1.4,0,2.6-0.1,4c0.8,0,1.6,0,2.4,0c-0.1-1.3-0.2-2.6-0.4-3.8c-0.1-1.6-2.2-1.5-2.4,0
					c-0.1,0.9-0.2,1.9-0.3,2.8c0.8,0,1.6,0,2.4,0c-0.1-1.4-0.2-2.9-0.3-4.3c-0.1-1.3-2.2-1.7-2.4-0.3c-0.2,1.5-0.2,1.7,0.5,3.1
					c0.7,1.3,2.4,0.3,2.2-0.9c-0.2-1.3-0.5-2.7-0.7-4C125.4,231.9,123.1,232.5,123.4,234.1L123.4,234.1z"/>
			</g>
		</g>
		<g>
			<g>
				<path class="st0" d="M125.3,234.2c0.1-1.2,0.1-2.4,0.2-3.6c-0.8-0.1-1.6-0.2-2.4-0.3c0.4,3.6,0.3,7-0.5,10.6
					c0.7-0.1,1.5-0.2,2.2-0.3c-1.2-2.8,0.4-7.4,0.9-10.3c0.5-3,1.1-5.9,1.8-8.9c-0.8-0.2-1.5-0.4-2.3-0.6c-0.7,3.4-1.1,6.9-1.2,10.4
					c0.8,0,1.6,0,2.4,0c-0.1-3.6,0-7.2,0.3-10.8c0.1-1.4-2.1-1.6-2.4-0.3c-0.4,1.8-0.7,3.6-0.8,5.5c-0.1,1.5,2.3,1.5,2.4,0
					c0.1-1.6,0.3-3.2,0.7-4.8c-0.8-0.1-1.6-0.2-2.4-0.3c-0.3,3.6-0.4,7.2-0.3,10.8c0,1.5,2.4,1.5,2.4,0c0.1-3.3,0.4-6.5,1.1-9.8
					c0.3-1.5-2-2.2-2.3-0.6c-0.9,4.2-1.7,8.4-2.3,12.6c-0.4,2.8-1.3,5.8-0.1,8.4c0.4,0.9,2,0.7,2.2-0.3c0.8-3.7,1-7.4,0.6-11.2
					c-0.1-1.3-2-1.7-2.4-0.3c-0.4,1.7-0.5,3.1-0.2,4.9C123.2,236.4,125.5,235.7,125.3,234.2L125.3,234.2z"/>
			</g>
		</g>
		<g>
			<g>
				<path class="st0" d="M70.9,265.9c1.5,0.5,2.9,1,4.4,1.5c0.2-0.8,0.4-1.5,0.6-2.3c-1.6-0.3-2.9-0.3-4.5,0c-0.9,0.1-1.2,1.5-0.5,2
					c1.5,1.2,2.4,1.6,4.4,1.5c1.3-0.1,1.7-2,0.3-2.4c-1.9-0.5-1.4-0.5-3.4-0.2c-1.1,0.1-1.7,1.6-0.6,2.2c1.4,0.9,1.3,0.8,2.9,1.3
					c1.3,0.4,2.2-1.6,0.9-2.2c-1.5-0.7-2.6-1-4.2-1s-1.5,2.2,0,2.4c1.8,0.2,3.6,0.5,5.5,0.7c-0.1-0.8-0.2-1.6-0.3-2.4
					c-0.6,0.2-1.1,0.5-1.7,0.7c-1.1,0.5-1.2,2.5,0.3,2.4c3.6-0.3,7.1-0.6,10.7-1c-0.1-0.8-0.2-1.6-0.3-2.4c-1.4,0.1-2.8,0.3-4.1,0.4
					c-0.1,0.8-0.2,1.6-0.3,2.4c3.8-0.4,7.5-0.7,11.3-1.1c1.6-0.1,1.5-2.2,0-2.4c-2.7-0.3-5-0.1-7.6,0.5c-1.4,0.3-1,2.3,0.3,2.4
					c3.6,0.2,7.1,0.1,10.7-0.3c-0.1-0.8-0.2-1.6-0.3-2.4c-1.4,0.8-2.9,1-4.5,0.7c0,0.8,0,1.6,0,2.4c1.3-0.1,2.6,0,3.9,0.2
					c0.1-0.8,0.2-1.6,0.3-2.4c-1,0.1-2,0.1-3.1,0.2c-1.5,0.1-1.6,2.5,0,2.4c11-0.5,22-0.9,32.9,0.4c1.4,0.2,1.6-2,0.3-2.4
					c-4.6-1.4-9.2-2.5-13.6,0.2c-1,0.6-0.6,2.4,0.6,2.2c0.8-0.1,1.6-0.1,2.4-0.2c1.5-0.1,1.5-2.5,0-2.4c-0.8,0.1-1.6,0.1-2.4,0.2
					c0.2,0.7,0.4,1.5,0.6,2.2c3.7-2.3,7.8-1.1,11.7,0.1c0.1-0.8,0.2-1.6,0.3-2.4c-11-1.3-21.9-0.9-32.9-0.4c0,0.8,0,1.6,0,2.4
					c1-0.1,2-0.1,3.1-0.2c1.2-0.1,1.7-2.2,0.3-2.4c-1.5-0.2-3-0.3-4.5-0.3c-1.6,0-1.5,2.3,0,2.4c2,0.2,3.3,0,5.2-0.8
					c1.1-0.4,1.1-2.5-0.3-2.4c-3.6,0.4-7.1,0.5-10.7,0.3c0.1,0.8,0.2,1.6,0.3,2.4c2.6-0.6,4.4-0.7,6.9-0.4c0-0.8,0-1.6,0-2.4
					c-3.8,0.4-7.5,0.7-11.3,1.1c-1.2,0.1-1.8,2.1-0.3,2.4c2,0.3,3.5,0.3,5.4-0.4c1.2-0.4,1.1-2.5-0.3-2.4c-3.6,0.3-7.1,0.6-10.7,1
					c0.1,0.8,0.2,1.6,0.3,2.4c0.6-0.2,1.1-0.5,1.7-0.7c1.3-0.5,1.1-2.2-0.3-2.4c-1.8-0.2-3.6-0.5-5.5-0.7c0,0.8,0,1.6,0,2.4
					c1,0.2,2,0.4,3,0.6c0.3-0.7,0.6-1.5,0.9-2.2c-0.8-0.4-1.5-0.7-2.3-1.1c-0.2,0.7-0.4,1.5-0.6,2.2c0.9,0,1.8,0.1,2.8,0.1
					c0.1-0.8,0.2-1.6,0.3-2.4c-0.9-0.3-1.8-0.6-2.7-0.8c-0.2,0.7-0.4,1.3-0.5,2c1.1,0,2.2,0,3.3,0c1.5,0.3,2.1-1.8,0.6-2.3
					s-2.9-1-4.4-1.5C70.1,263.1,69.5,265.4,70.9,265.9L70.9,265.9z"/>
			</g>
		</g>
		<g>
			<g>
				<path class="st0" d="M115.4,267.9c0.5,1,1.4,1.5,2.5,1.5c-0.1-0.8-0.2-1.6-0.3-2.4c-0.5,0.2-1.1,0.2-1.7,0.2
					c0.1,0.8,0.2,1.6,0.3,2.4c1.7-0.4,3.7-0.1,3.8-2.5c0.1-2.5-2.3-3-3.5-4.7c-0.5,0.6-0.9,1.2-1.4,1.8c1.9,0.7,3.9,1.2,5.9,1.4
					c0.9,0.1,1.5-1.1,1-1.8c-0.7-1.1-1.5-1.8-2.7-2.4c-0.3,0.7-0.6,1.5-0.9,2.2c1.6,0.5,3.3,1,4.9,1.5c1.2,0.4,2-1.2,1.2-2
					c-0.9-0.9-1.7-1.3-3-1.4c-0.9-0.1-1.6,1.1-1,1.8c0.3,0.5,0.7,0.9,1,1.4c0.3,0.4,0.4,1,0.6,0.6c0.4-0.3,0.8-0.6,1.2-0.9
					c-0.9,0.1-2-0.2-3-0.3c-1.2-0.2-1.6,1.7-0.6,2.2c1.6,0.8,3.3,1.4,5.1,1.7c0.1-0.8,0.2-1.6,0.3-2.4c-1.3,0-2.5-0.2-3.7-0.6
					c-0.1,0.8-0.2,1.6-0.3,2.4c1.7,0,3.3,0.1,5,0.1c1.1,0,1.7-1.8,0.6-2.2c-1-0.4-1.9-0.8-2.9-1.2c-0.2,0.7-0.4,1.5-0.6,2.2
					c0.6,0,1.1,0,1.7-0.1c1,0,1.4-1,1-1.8c-0.3-0.7-0.7-1.1-1.4-1.6c-0.3,0.7-0.6,1.5-0.9,2.2c0.3,0.1,0.6,0.1,0.9,0.2
					c1.5,0.3,2.1-2,0.6-2.3c-0.3-0.1-0.6-0.1-0.9-0.2c-1.4-0.3-2,1.4-0.9,2.2c0.2,0.2,0.3,0.5,0.5,0.7c0.3-0.6,0.7-1.2,1-1.8
					c-0.6,0-1.1,0-1.7,0.1c-1.1,0-1.8,1.7-0.6,2.2c1,0.4,1.9,0.8,2.9,1.2c0.2-0.7,0.4-1.5,0.6-2.2c-1.7,0-3.3-0.1-5-0.1
					c-1.4,0-1.5,1.9-0.3,2.4c1.4,0.5,2.8,0.7,4.3,0.7c1.3,0,1.7-2.1,0.3-2.4c-1.6-0.3-3-0.7-4.5-1.4c-0.2,0.7-0.4,1.5-0.6,2.2
					c1,0.1,2,0.4,3,0.3c0.6-0.1,1-0.3,1.2-0.9c0.5-1.4-1.1-2.8-1.9-3.8c-0.3,0.6-0.7,1.2-1,1.8c0.4,0.2,0.9,0.5,1.3,0.7
					c0.4-0.7,0.8-1.3,1.2-2c-1.6-0.5-3.3-1-4.9-1.5c-1.3-0.4-2.1,1.6-0.9,2.2c0.8,0.4,1.3,0.8,1.8,1.6c0.3-0.6,0.7-1.2,1-1.8
					c-1.8-0.2-3.6-0.7-5.3-1.3c-1-0.4-1.9,0.9-1.4,1.8c0.5,0.8,1.1,1.3,1.8,1.8c0.4,0.3,1.7,1,0.7,1.7c-0.1,0.1-1.3,0.1-1.5,0.2
					c-1.3,0.3-1,2.4,0.3,2.4c0.8,0,1.5-0.1,2.3-0.3c1.3-0.3,1-2.4-0.3-2.4c-0.1-0.1-0.3-0.2-0.4-0.3
					C116.7,265.3,114.7,266.5,115.4,267.9L115.4,267.9z"/>
			</g>
		</g>
	</g>
	<g>
		<g>
			<g>
				<path class="st0" d="M102.4,147.2l-0.3-1.2c0.1,0.9,0.1,1.1,0.1,0.4c0,0.3-0.1,0.6-0.1,0.9c-0.2,0.6-0.5,1.1-0.9,1.6
					c-1.1,0.4-2.1,0.9-3.2,1.3c-2,0.3-3.8-1.5-4.1-3.3c-0.1-0.4-0.1-0.9,0-1.3c-0.2,0.5-0.1,0.5,0.1,0s0.2-0.5,0-0.1
					c-0.3,0.4-0.2,0.4,0.1-0.1c0.8-0.7,1.3-1.1,2.4-1.3c0.9-0.2,1.8,0,2.7,0.5c3.4,3.7,3.1,6.6-1.1,8.8c1.4-0.2,2.9-1.6,3.6-2.8
					c0.8-1.3,1.1-3.2,0.6-4.6c-1.1-3.3-4.1-4.8-7.4-4.2c-3.1,0.5-5.3,3.8-5.3,6.8c-0.1,2.7,1.5,5.1,3.8,6.4c2.4,1.4,5.8,1.2,8-0.4
					c2-1.4,3.4-3.4,4.1-5.8c1.6-5.6-2.6-11.4-8.6-10.6c-3,0.4-5.4,2.7-6.3,5.5c-0.7,2.1-0.4,4.4,0.3,6.5c1,3,4.2,5.2,7.4,4.2
					C101.2,153.6,103.5,150.4,102.4,147.2L102.4,147.2z"/>
			</g>
		</g>
		<g>
			<g>
				<path class="st0" d="M75.7,137.8c-0.3,2.8-0.6,5.6-0.9,8.4c-2,0-4,0-6.1,0c0.3,0.1,0.5,0.3,0.8,0.4c-0.9-1.2-1.8-2.4-2.8-3.6
					c1.1,1.9,2.2,3.9,3.4,5.8c-1.4,0.6-2.8,1.2-4.2,1.8c-3.4-1.8-4-2.9-1.7-3.5c1.9,1.5,3.9,2.9,5.8,4.4c-0.6,0.3-1.1,0.5-1.7,0.8
					c-3.3-1.9-6.7-3.9-10-5.8c0.5,2.1,1,4.2,1.6,6.3c-1.4-2.5-2.8-4.9-4.2-7.4c0.7,2,1.4,3.9,2.1,5.9c-2.3-0.9-4.5-1.8-6.8-2.8
					c0.4-0.9,0.8-1.9,1.2-2.8c1.9,0.5,3.9,1,5.8,1.5c-0.2-0.2-0.3-0.4-0.5-0.6c0.6,1.4,1.2,2.8,1.8,4.2c-0.1-1.6,0.8-2.6,1.9-3.6
					c-3.4-1.4-6.8-2.8-10.2-4.2c0.2,0.6,0,1.1-0.5,1.4c3.3,0.9,6.7,1.8,10,2.6c-0.5-1.5-0.9-2.6,0.3-3.9c-3.3-0.9-6.7-1.8-10-2.6
					c0,0.4,0.1,0.8,0.1,1.1c0.6-1.4,1.2-2.8,1.8-4.2c0.4-0.2,0.8-0.4,1.2-0.6c1.5,0.2,3.1,0.4,4.6,0.6c-0.2-0.1-0.5-0.3-0.7-0.4
					c0.9,1.2,1.8,2.4,2.8,3.6c0.4-0.8,0.9-1.4,1.6-2c-3.3-0.9-6.7-1.8-10-2.6c0.2-0.3,0.4-0.6,0.6-0.9c1.5-0.2,3.1-0.4,4.6-0.6
					c-0.3-0.1-0.7-0.2-1-0.3c1.4,1.4,2.8,2.8,4.2,4.2c-0.3-0.8,0.6-1.8,1.3-2.1c-2.5-1.9-5.1-3.9-7.6-5.8c-0.2,0.5-0.6,0.9-1.1,1
					c2.7,0.7,5.5,1.4,8.2,2.2c-0.6-1.4,1.2-2.2,2-2.6c-2.4-3.1-4.8-6.3-7.3-9.4c-0.7,0.9-0.9,1.2-0.6,0.7c1.5,0.2,3.1,0.4,4.6,0.6
					c-0.2-0.1-0.4-0.2-0.6-0.3c1,1.7,2,3.5,3,5.2c0.5-0.5,0.9-1,1.1-1.7c3.2-5.8-4.7-12.5-9.4-7.3c-1.1,1.2-2.3,2.5-3.4,3.7
					c3.1,2.4,6.3,4.8,9.4,7.3c1.5-2.8,3.5-5.1,6.5-6.3c7-2.8,4.5-13.5-3.2-11.6c-2.7,0.7-5.4,1.5-8,2.6c2.3,2.9,4.5,5.9,6.8,8.8
					c2.5-5.3,13.3-3.2,16.3,0.4c2.8-2.8,5.7-5.7,8.5-8.5c-2-2.4-4-4.7-6-7.1c-4.4-5.2-13.3,1.7-9.4,7.3c5,7.2,8.4,15.3,13.4,22.4
					c3.1-2.4,6.3-4.8,9.4-7.3c-2.2-2.6-3.9-5.4-5.5-8.4c-3.1,2.4-6.3,4.8-9.4,7.3c4.3,4.1,7.9,8.6,10.8,13.8
					c3.8,6.7,14,0.7,10.4-6.1c-2.8-5.2-5.6-10.3-8.4-15.5c-3.5,2-6.9,4-10.4,6.1c3.9,5.1,8,10.1,12.1,15c4.4,5.2,13-1.5,9.4-7.3
					c-3.7-5.9-7.9-11.5-12.5-16.7c-2.8,2.8-5.7,5.7-8.5,8.5c6,4.7,10.9,10.2,15,16.7c2.3-2.9,4.5-5.9,6.8-8.8
					c-4.6-1.8-9.1-3.6-13.6-5.4c-3.1-1.3-8.7-2.7-10.9-5.5c-3.1,2.4-6.3,4.8-9.4,7.3c0.8,0.5,1.4,1.2,1.9,1.9
					c0.4,0.7,0.6,1.6,0.6,2.4c3.5-1.3,4.4-2.3,2.7-3.1c-0.6-0.5-1.1-1-1.5-1.7c0-2.2-1.6-3.4-5-3.5c-0.4,0.7-0.9,1.3-1.5,1.9
					c-0.6,0.7-1.3,1.2-2.2,1.6c-2.1,0.6-1.5,1,1.7,1.2c0.6,1.4,1.2,2.8,1.8,4.2c0.4-3.8,4.7-7.6,7.4-9.8c-3.4-1.4-6.8-2.8-10.2-4.2
					c0.1,1.2,0.2,2.2-0.3,3.4c-0.2,0.3-0.4,0.6-0.6,0.9c-1.2,0.9-1,1.1,0.7,0.5c1.2,0.9,2.4,1.8,3.6,2.8c-1.4,3.7-1,4.8,1.3,3.4
					c0.5-0.1,1-0.3,1.5-0.4c0.9-0.3,1.9-0.4,2.8-0.4c-0.9-1.1-1.2-1.1-0.9,0c-1.1,2.4,1.6,7.8-1,10c1.4-0.6,2.8-1.2,4.2-1.8
					c-0.5,0-0.9-0.1-1.4-0.1c1.4,0.6,2.8,1.2,4.2,1.8c-0.5,0.8-0.9,1.6-1.4,2.3c0.3,0.4,0.6,0.7,0.9,1.1c0.3,1.1,0.9,1.9,1.1,3.1
					c0.2,1.6,0.1,4.5-1.7,5.3c1.5-0.2,3.1-0.4,4.6-0.6c1,1.1,1.2,1.2,0.8,0.1c-0.2-0.7-0.4-1.3-0.5-2c-1-3.1-0.1,1.7-0.1,1.5
					c-0.1,0.5-0.1,1.1-0.2,1.6c-1.1,2.3,0.1,2.9,3.6,2c0.4-0.3-0.5-1.6,0.5-2.2c-1.5,0.2-3.1,0.4-4.6,0.6c0.3,0.1,0.6,0.1,0.9,0.2
					c-1.4-1.4-2.8-2.8-4.2-4.2c0.9,0.6,1.9,1.2,2.8,1.8c-3.7,0.5-7.3,1-11,1.4c0.5,0.9,0.9,1.9,0.5,2.9c0.9-1.2,1.8-2.4,2.8-3.6
					c-0.2,0.1-0.4,0.3-0.6,0.4c1.5-0.2,3.1-0.4,4.6-0.6c1,0.6,1.2,0.4,0.5-0.7c-3,1.7-6,3.5-9,5.2c0.9,0.5,1-0.5,0.3,1.3
					c3.3-0.9,6.7-1.8,10-2.6c0.2-0.1,0.3-0.1,0.5-0.2c-3.9,0-7.7,0-11.6,0c0.6,4.3,0.9,8.5,1.1,12.8c0.2,6.4,10.6,8.6,11.8,1.6
					c0.4-2.5,1-5,2-7.4c-3.7-1-7.5-2-11.2-3c0.1,4.6,0.3,9.2,0.4,13.7c3.9-0.5,7.9-1.1,11.8-1.6c-0.5-2.2-0.4-4.2,0.6-6.3
					c-3.7-1-7.5-2-11.2-3c-0.2,5.8-0.7,11.5-1.5,17.2c-0.9,6.3,7.4,11.1,11,4.6c3.7-6.7,3.8-16,8.8-21.8c-3.4-1.4-6.8-2.8-10.2-4.2
					c0.9,8.4-1.8,16.7-0.9,25.1c0.6,6.1,10.7,8.9,11.8,1.6c1.3-8.9,2.7-17.9,7.4-25.8c-3.7-0.5-7.3-1-11-1.4c1.5,3.9-1.5,11-2.4,15
					c-1.2,5.3-2.5,10.6-3.9,15.8c3.9,1.1,7.7,2.1,11.6,3.2c2.5-14,5.1-29.3,14.6-40.5c-3.3-1.9-6.7-3.9-10-5.8
					c-2.1,12.9-5.5,25.6-9,38.2c3.9,0.5,7.9,1.1,11.8,1.6c0.8-6.6,1.7-13.2,3.3-19.7c1.4-5.7,2.9-12.1,7.2-16.4
					c-3.3-0.9-6.7-1.8-10-2.6c0.8,3.3-1.5,9.1-2.3,12.4c-0.9,4-1.9,7.9-2.9,11.8c-2.1,8.2-4.4,16.3-7,24.3c3.9,0.5,7.9,1.1,11.8,1.6
					c0.2-7.9,3.2-15.4,5.6-22.8c2.5-7.7,5.1-15.4,8.1-22.9c-3.9-0.5-7.9-1.1-11.8-1.6c-0.6,17.9-7.8,34.6-10.9,52.1
					c3.9,0.5,7.9,1.1,11.8,1.6c1.5-15.8,6.5-31,14.4-44.8c-3.7-1-7.5-2-11.2-3c-1.1,14.5-4.2,28.7-7.3,42.9
					c3.9,0.5,7.9,1.1,11.8,1.6c0.7-13.7,3.4-27.1,7.7-40.2c-3.9-0.5-7.9-1.1-11.8-1.6c-0.6,8.3-1.4,16.5-2.7,24.7
					c-1,6.5-3.9,14.3-1.7,20.8c1.8,5.2,10.3,6.2,11.6,0c2.6-12.2,5.2-24.4,7.8-36.6c-3.9-0.5-7.9-1.1-11.8-1.6
					c-1.3,12.1-2.6,24.2-4,36.3c4,0,8,0,12,0c1-10.2,2.1-20.3,3.1-30.5c-4,0-8,0-12,0c0.1,10,0.3,20,0.4,30c0.1,7.9,11.2,7.5,12,0
					c1.1-9.9,2.1-19.9,3.2-29.8c-4,0-8,0-12,0c0,7.2-0.4,14.4-1,21.6c4,0,8,0,12,0c0.5-7.8,1.1-15.6,1.6-23.3c-4,0-8,0-12,0
					c0.4,5.6,0.8,11.2-0.5,16.7c3.9,0.5,7.9,1.1,11.8,1.6c-1-8.9,0-17.6,3.9-25.8c-3.7-1.5-7.3-3.1-11-4.6c-0.8,3.7-2,7-4.5,10
					c3.3,1.9,6.7,3.9,10,5.8c1.7-7.2,4.3-13.9,8-20.4c-3.5-2-6.9-4-10.4-6.1c-2.2,4.5-4.8,9.5-8.8,12.6c1.4-0.6,2.8-1.2,4.2-1.8
					c-0.4,0-0.7,0-1.1,0c1.7,1,3.5,2,5.2,3c1,1.8,0.8,0.7,1.5-0.7c0.5-1.1,1.1-2.2,1.8-3.1c1.4-1.9,3.1-3.6,5.1-4.9
					c-2.7-2.7-5.5-5.5-8.2-8.2c-1.7,2.3-3.7,4.4-5.7,6.3c-0.8,0.8-1.6,1.5-2.5,2.3c-0.6,0.6-1.3,1.1-2,1.6c-0.9,0.6-1,0.7-0.2,0.3
					c1.7,1,3.5,2,5.2,3c-0.1,2.5,0.1,2.6,0.6,0.4c0.2-0.5,0.3-1.1,0.5-1.6c0.6-1.9,1.4-3.7,2.3-5.5c0.7-1.3,3.6-7.6,4.9-7.9
					c-2.5-2.5-4.9-4.9-7.4-7.4c-0.7,1.6-1.6,3.2-2.6,4.5c-0.4,0.6-0.9,1.2-1.5,1.7c-1.5,1.1-1.5,1.4,0,0.8c1.7,1,3.5,2,5.2,3
					c-0.1-0.3-0.3-0.6-0.4-0.9c0.2,1.5,0.4,3.1,0.6,4.6c0.2-1,0.7-1.7,1.5-2.5c0.5-0.5,2.6-1.2,0.9-1c-1.4-0.6-2.8-1.2-4.2-1.8
					c0.2,0.2,0.4,0.4,0.5,0.5c-0.6-1.4-1.2-2.8-1.8-4.2c0.2,2.6-4,0.1,0,3.3c2.7,2.1,1.6,0.3,3.7-1.5c5.2-4.3-1.7-13.4-7.3-9.4
					c-0.8,0.6-2.4,1.1-2.9,1.7c-1.4,0.3-1.2,1.2,0.8,2.8c0.1,2.1,0.8,2.9,2.1,2.5c-1.9-3.3-3.9-6.7-5.8-10c-0.3,1-0.8,1.2-1.5,0.7
					c1.4,0.6,2.8,1.2,4.2,1.8c-1.1,3.6-0.7,4.7,1.1,3.2c-2.9-2.3-5.9-4.5-8.8-6.8c-0.1,0.3-0.2,0.6-0.3,0.9c0.9-1.2,1.8-2.4,2.8-3.6
					c0.4-0.1,0.8-0.3,1.3-0.4c1.4,0.6,2.8,1.2,4.2,1.8c0.3,1.1,0.7,2.2,1,3.3c-0.9,1.2-1.8,2.4-2.8,3.6c-1.1-0.1-2.3-0.1-3.4-0.2
					c-0.4-3.1-0.8-6.3-1.2-9.4c-0.2,0.2-0.4,0.4-0.7,0.6c2,0,4,0,6.1,0c-0.3-0.1-0.5-0.3-0.8-0.4c1,1.7,2,3.5,3,5.2
					c0-0.3,0-0.6,0-0.8c-0.6,1.4-1.2,2.8-1.8,4.2c-0.6,0.4-1.2,0.7-1.8,1.1c-1.4-3.4-2.8-6.8-4.2-10.2c0.6-0.1,1.2-0.2,1.9-0.3
					c-1.4,3.4-2.8,6.8-4.2,10.2c3.6-0.2,6.6-1,9.9-2.4c7.1-3.1,1-13.4-6.1-10.4c-1.2,0.6-2.5,0.8-3.8,0.8c-5.3,0.2-7.8,6.4-4.2,10.2
					c4.2,4.5,10.7,4.3,15.1,0.3c4.2-3.9,0.5-9.7-4.2-10.2c-4.8-0.5-8.3,2.8-8.5,7.5c-0.1,2,1.2,4.2,3,5.2c3.7,2,7.3,1.2,10-2
					c2.2-2.7,2.6-7.7-1.2-9.4c-6-2.8-14.1,1.3-11.6,8.8c2.6,7.7,11.8,5.8,14.3-0.6c2-5-4.6-9.3-8.8-6.8c-5,3.1-8.8,8.9-4.7,14.5
					c3.9,5.4,11.8,3.1,15.5-1.2c3.8-4.5,0.2-11.5-5.8-10c-5.9,1.4-12,8.3-8.4,14.6c3.7,6.5,12.8,3.7,17.6,0.3
					c-2.4-3.1-4.8-6.3-7.3-9.4c-5,4.2-8.2,13.7-2.5,18.8c6.2,5.4,14.1-0.4,17.5-6c4.1-6.9-0.7-14.8-8.8-11.6
					c-6.5,2.6-12.1,10-8.9,16.9c0.9,2,3.2,2.8,5.2,3c7.8,0.6,13.2-9.9,15.6-15.9c1.8-4.4-3.4-8.4-7.4-7.4
					c-5.6,1.4-9.1,7.9-11.7,12.7c-2.4,4.5-6,11.3-5,16.6c1.3,6.9,8.6,6.9,13.3,3.5c5.4-4,9.8-8.8,13.9-14.1
					c3.7-4.8-3.5-11.5-8.2-8.2c-6.8,4.8-17.5,16.2-12.7,25.2c1,1.8,3.1,3,5.2,3c7.7-0.1,13-10.8,16-16.8c3.4-6.9-6.5-12.8-10.4-6.1
					c-4.2,7.3-7.3,15.1-9.2,23.2c-1.3,5.4,6,10.8,10,5.8c3.7-4.6,6.4-9.5,7.5-15.3c1.3-6.2-7.9-11.1-11-4.6
					c-4.7,10-6.8,20.8-5.5,31.9c0.7,6.2,10.1,8.8,11.8,1.6c1.5-6.6,1.4-13.1,0.9-19.9c-0.5-7.7-11.5-7.7-12,0
					c-0.5,7.8-1.1,15.6-1.6,23.3s11.4,7.6,12,0c0.6-7.2,0.9-14.4,1-21.6c0-7.9-11.2-7.5-12,0c-1.1,9.9-2.1,19.9-3.2,29.8
					c4,0,8,0,12,0c-0.1-10-0.3-20-0.4-30c-0.1-7.9-11.2-7.5-12,0c-1,10.2-2.1,20.3-3.1,30.5c-0.8,7.7,11.2,7.6,12,0
					c1.3-12.1,2.6-24.2,4-36.3c0.7-6.7-10.4-8.2-11.8-1.6c-2.6,12.2-5.2,24.4-7.8,36.6c3.9,0,7.7,0,11.6,0c-1-3,0.4-6.6,0.9-9.6
					c0.6-3.5,1.1-7.1,1.6-10.7c1-7.3,1.8-14.7,2.3-22.1c0.5-7-9.8-7.8-11.8-1.6c-4.6,14.1-7.3,28.6-8.1,43.4
					c-0.4,6.7,10.3,8.2,11.8,1.6c3.3-15.2,6.5-30.5,7.7-46.1c0.5-6.1-8.4-8-11.2-3c-9,15.7-14.3,32.8-16,50.8
					c-0.6,6.7,10.6,8.3,11.8,1.6c3.3-18.6,10.6-36.3,11.3-55.3c0.3-7.2-9.5-7.5-11.8-1.6c-3.2,8.2-6,16.4-8.7,24.8
					c-2.6,7.9-5.2,15.7-5.4,24.1c-0.2,6.9,9.8,7.9,11.8,1.6c2.9-9.2,5.6-18.5,7.9-27.9c1.1-4.5,2.2-9.1,3.2-13.7
					c1-4.5,2.2-8.8,1.1-13.3c-1.1-4.4-6.9-5.8-10-2.6c-10.9,11.2-12.1,29.9-14,44.6c-0.9,6.8,10,7.9,11.8,1.6
					c3.5-12.6,6.9-25.2,9-38.2c0.9-5.3-5.7-10.9-10-5.8c-11.4,12.8-15,29.1-18,45.5c-1.3,7.5,9.6,10.8,11.6,3.2
					c1.7-6.5,3.3-13,4.8-19.5c1.2-5.5,3.7-12.1,1.6-17.6c-1.8-4.7-8.1-6.1-11-1.4c-5.3,8.8-7.1,18.6-8.6,28.6
					c3.9,0.5,7.9,1.1,11.8,1.6c-0.9-8.4,1.8-16.7,0.9-25.1c-0.5-4.6-6.5-8.6-10.2-4.2c-6.2,7.2-6.2,16.3-10.6,24.3
					c3.7,1.5,7.3,3.1,11,4.6c1-6.8,1.7-13.6,2-20.4c0.2-5.7-8.6-8.5-11.2-3c-2.4,5.1-3,10-1.8,15.5c1.5,6.6,12,5.2,11.8-1.6
					c-0.1-4.6-0.3-9.2-0.4-13.7c-0.2-5.4-8.7-8.9-11.2-3c-1.4,3.4-2.6,6.6-3.2,10.3c3.9,0.5,7.9,1.1,11.8,1.6
					c-0.2-5.4-0.8-10.7-1.5-16c-0.9-6.5-9.8-4.9-11.6,0c-1.6,4.4-0.3,8.4,2.6,11.8c3.2,3.9,8.5,1.1,10-2.6
					c2.3-5.6-0.4-12.2-5.8-14.9c-3.7-1.8-9.5,0.3-9,5.2c0.6,5.6,4.9,14.8,12.2,11.9c6.6-2.7,4.9-11.6,2.3-16.5
					c-2.6-4.8-9.4-3.2-11,1.4c-4.6,13.5,16.1,18.1,20.3,5.2c1.6-5.1-0.3-11.8-6.6-11.6c-6,0.2-9.5,7.3-9.6,12.5
					c0,5.1,3,10.9,8.5,11.9c6.4,1.2,10.5-4.4,11.7-10c1.2-5.5,0.5-11.7-3.8-15.7c-4.2-3.9-10.9-4.6-15.3-0.7
					c-7.5,6.7-3.8,28.4,8.9,23c11.2-4.8,9.1-22.8,1-29.2c-4.3-3.4-10.2-4.1-14.7-0.5c-4.6,3.7-4.8,10.7-0.9,15.1
					c4,4.4,10.6,3.5,13.2-1.8c2.7-5.4,3.2-13,1.9-18.8c-1.5-6.7-7.2-9.3-13.6-8.5c-5.8,0.8-14.1,3.5-14.5,10.5s7.4,9.7,12.7,6.5
					c5.3-3.1,8.1-9.5,7.6-15.4c-0.4-5.4-6.2-7.6-10.2-4.2c-4.9,4-9.5,9.9-10.7,16.3c-1.3,6.8,5.2,10.3,11,8.4
					c5.4-1.7,10.9-6.5,12.5-12.1c1.6-5.6-1.5-12-7.9-12c-6,0-10.6,5.5-10.8,11.3c-0.2,5.6,3.5,11,8.4,13.6
					c4.9,2.7,11.6,1.6,13.7-4.1c2.3-5.8-0.6-12.7-5.2-16.5c-4.8-4-13.9,1.5-9.4,7.3c3.6,4.6,7.9,6.8,13.2,9c6.1,2.6,12.3,5,18.4,7.5
					c5,2,9.4-4.6,6.8-8.8c-4.5-7.3-10.1-13.8-16.8-19.1c-5.9-4.7-13.8,2.6-8.5,8.5c4,4.4,7.5,9.1,10.7,14.2c3.1-2.4,6.3-4.8,9.4-7.3
					c-3.5-4.1-7-8.3-10.3-12.6c-4.6-5.9-14.2-1-10.4,6.1c2.8,5.2,5.6,10.3,8.4,15.5c3.5-2,6.9-4,10.4-6.1c-3.4-6-7.7-11.5-12.7-16.2
					c-5-4.8-12.6,1.2-9.4,7.3c2,3.9,4.5,7.4,7.4,10.8c4.3,5.1,13.4-1.7,9.4-7.3c-5.1-7.1-8.5-15.3-13.4-22.4
					c-3.1,2.4-6.3,4.8-9.4,7.3c2,2.4,4,4.7,6,7.1c5,5.9,13.3-2.6,8.5-8.5c-7.7-9.4-29.3-10.1-35.1,2c-2,4.1,1.4,11.1,6.8,8.8
					c2.6-1.1,5.2-2,8-2.6c-1.1-3.9-2.1-7.7-3.2-11.6c-5.9,2.4-10.6,6.1-13.7,11.8c-3.1,5.8,4.7,12.5,9.4,7.3
					c1.1-1.2,2.3-2.5,3.4-3.7c-3.1-2.4-6.3-4.8-9.4-7.3c-1.4,2.5-2.5,4.9-2.8,7.8c-0.2,2.1,1.3,4.2,3,5.2c4,2.3,8.4,0.5,11.1-2.8
					c4.4-5.4-1-12.2-7.3-9.4c-7.5,3.3-9.4,12-6.3,19c1.3,3,5.7,3.7,8.2,2.2c4.4-2.6,6.4-6.4,7.1-11.4c0.5-3.6-4.3-7.2-7.6-5.8
					c-6.4,2.6-14.9,12.8-8.1,19.5c7.2,7.2,16-3.9,13.2-11.3c-1.6-4.2-6.6-6-10-2.6c-4.3,4.1-8.3,13.5-1.6,17.4
					c7.1,4.1,12.2-4,10.4-10.2c-1.2-4.1-7-6.2-10-2.6c-3.8,4.4-5.4,10-3.3,15.6c1.5,4.1,6.7,6.1,10,2.6c2.7-2.8,4-6,4.1-9.9
					c0.1-5.3-6.5-7.8-10.2-4.2c-4.6,4.3-7.6,11.5-3.2,16.9c1.4,1.7,3.9,1.9,5.8,1.5c6.7-1.3,8.2-9.6,6-14.8
					c-0.9-2.2-4.6-3.7-6.8-2.8c-6.4,2.6-9.3,10.6-3.2,15.6s14.6,0.4,15.8-6.7c0.6-3.5-0.9-6.1-4.2-7.4c-7.4-2.9-13.9,6.1-9.5,12.4
					c4.8,7,14.8,3.7,16.3-4c1.2-5.8-5.5-10.1-10-5.8c-3.8,3.6-4.1,10,0,13.6c4.7,4,12,1.8,14.2-3.8c2-5.3-2-11.6-7.9-11.2
					c-6.6,0.4-8.6,6.8-7.7,12.3c0.4,2.4,3.4,4.6,5.8,4.4c7.4-0.7,14-8.7,10.1-16.1c-3.8-7.2-14.8-5.2-15.3,3.1
					c-0.5,8.6,10.2,11.3,15.7,6c4.8-4.6,6.6-17-2.9-17c-8.3,0-8.7,11.3-3.6,15.5c6.1,5.1,16.4,0.6,15.8-7.8
					c-0.5-7.2-10.1-12.5-15.4-6.2C63,144.3,71.7,153,79.4,150C86,146.6,82.9,135,75.7,137.8L75.7,137.8z"/>
			</g>
		</g>
		<g>
			<g>
				<path class="st0" d="M136.2,136.6c-6.7-0.2-4.9,3.5-4.6,6.8c0.2,2.4-0.3,4.5-1.1,6.7c2.9-1.2,5.9-2.4,8.8-3.6
					c0.3,0.4,0.6,0.9,0.8,1.3c-3.5,0-6.9,0-10.4,0c1.5,3.5,1.4,7,0.3,10.5c3.7-0.5,7.3-1,11-1.4c-0.8-1.1-1.2-1.5-0.9-2.8
					c-3.7,0.5-7.3,1-11,1.4c1.3,2.6,1.9,5.3,2,8.2c0.2,6.4,10.8,8.6,11.8,1.6c0.2-1.2,0.4-2.5,0.6-3.7c-3.9,0-7.7,0-11.6,0
					c0.5,1.4,0.8,2.6,1,4.1c0.5,6.1,7.6,7.9,11.2,3c0.1-0.1,0.2-0.2,0.2-0.3c-2.3,0.9-4.5,1.8-6.8,2.8c0.1,0,0.3,0,0.4,0.1
					c-1.4-1.4-2.8-2.8-4.2-4.2c0.8,2.7,0.1,6.6,0.1,9.3c0,3.7,3.8,7.1,7.6,5.8c3.3-1.1,6.6-2.3,9.9-3.4c2.5-0.8,4.5-3,4.4-5.8
					c-0.2-6.9-1-13.8-2.5-20.6c-1.3-6-10-5.5-11.6,0c-1.4,5-1.9,10.2-1.4,15.4c0.6,6.1,10.7,8.8,11.8,1.6c1.5-9.8,2.1-19.7,1.3-29.6
					c-0.6-8.4-1.4-18.1-7.1-24.8c-5.2-6.1-13.6-8.3-21.4-8.1c-10,0.2-14.9,8-21.1,14.8c-3.6,4-0.1,12.5,5.8,10
					c2.6-1.1,5.2-2.1,7.8-3.2c1.2-0.5,2.3-0.9,3.5-1.4c2.1-0.9,3.3-0.3,0.7-1.6c-0.9-1.2-1.8-2.4-2.8-3.6c0.2-1.3,0-1-0.6,0.7
					c-0.5,0.9-1,1.8-1.6,2.7c-0.6,0.9-1.3,1.7-2.1,2.5c-1.6,1-1.6,1.3-0.1,1c1.4,0.6,2.8,1.2,4.2,1.8c0.4,0.9,0.8,1.8,1.2,2.8
					c0.3-0.4,0.5-0.8,0.8-1.3c0.9-0.6,1.6-2,2.5-2.7c0.7-0.7,1.5-1.2,2.4-1.7c1.8-1.1,2.6-0.4,0.2-1c-1.2-0.9-2.4-1.8-3.6-2.8
					c0.1,0.3,0.2,0.5,0.3,0.8c-0.2-1.5-0.4-3.1-0.6-4.6c-0.6,3.8-3.5,6.6-6.7,8.4c2.9,2.3,5.9,4.5,8.8,6.8c0.4-2.4,1.5-1.7,3.1-3.2
					c2.5-0.4,2.1-1.2-1.2-2.5c-0.2,0.9-0.6,1.6-1.2,2.3c3.5,0,6.9,0,10.4,0c-0.6-2.5-2.1-1.7-4.5,2.4c0.4,0.5,0.4,1.1,0.2,1.8
					c3.7-1,7.5-2,11.2-3c-0.3-0.5-0.5-1.1-0.6-1.7c-0.2-1.6-0.9-0.9-1.9,2.3c-1.5,0.2-3.1,0.4-4.6,0.6c-0.9-1-1.2-1-0.9,0.2
					c3.7-1,7.5-2,11.2-3c-2.4-5.1-1.3-11.5-5.8-15.6c-3.8-3.5-9.3-3.8-13.8-1.3c-6.7,3.8-0.7,14.1,6.1,10.4
					c-0.8,0.4-0.2,2.8,0.1,4.2c0.6,2.9,1.7,5.7,3,8.4c2.6,5.7,11.1,2.5,11.2-3c0.1-5.9-4.8-14.1-11.8-11.5c-6.9,2.6-5.1,11-2.5,16.1
					c2.9,5.7,10.8,2.5,11.2-3c0.4-6.5-4.4-13.8-11.4-13.8c-9,0-9.4,9.6-6.6,15.7c2,4.4,8.1,3.4,10.4,0c4.1-6.1,4.5-17.5-5-18.4
					c-7.4-0.7-16.4,5-17.7,12.6c-0.8,5,3.9,9.6,8.8,6.8c4.8-2.7,8.7-6.7,10.9-11.8c2-4.5,2-10.8-4-12.1
					c-8.8-1.8-22.2,11.6-20.4,20.3c1.1,5.5,7.3,7,11.6,4.3c4.7-3,8.5-8.4,10.5-13.5c1.9-4.9,0.8-10.9-5.2-11.8
					c-2.8-0.4-5.3,0.9-7.8,1.9c-3.5,1.4-6.9,2.8-10.4,4.3c1.9,3.3,3.9,6.7,5.8,10c2.2-2.4,4.4-4.9,6.7-7.3c2.5-2.7,3.6-4.1,7.4-3.9
					c5.6,0.2,10.6,1.8,12.8,7.4c2.3,5.8,2.4,12.9,2.6,19.1c0.2,7-0.2,13.9-1.2,20.8c3.9,0.5,7.9,1.1,11.8,1.6
					c-0.4-4.3-0.2-8.1,1-12.2c-3.9,0-7.7,0-11.6,0c1.2,5.8,1.9,11.5,2,17.4c1.5-1.9,2.9-3.9,4.4-5.8c-3.3,1.1-6.6,2.3-9.9,3.4
					c2.5,1.9,5.1,3.9,7.6,5.8c0-4,0.6-8.6-0.5-12.5c-0.5-1.8-2.2-3.9-4.2-4.2c-0.1,0-0.3,0-0.4-0.1c-2.9-0.5-5.1,0.4-6.8,2.8
					c-0.1,0.1-0.2,0.2-0.2,0.3c3.7,1,7.5,2,11.2,3c-0.2-2.5-0.6-4.9-1.4-7.3c-1.7-5-10.6-6.4-11.6,0c-0.2,1.2-0.4,2.5-0.6,3.7
					c3.9,0.5,7.9,1.1,11.8,1.6c-0.1-5.1-1.4-9.7-3.6-14.3c-2.3-4.6-9.8-3.5-11,1.4c-1,4.3-0.5,8.5,2.1,12.1c3,4.1,9.4,3.8,11-1.4
					c2.1-6.8,1.3-13.3-1.5-19.8c-1.9-4.4-8.2-3.4-10.4,0c-3.5,5.4-1.5,11.5,3.5,15.1c3.4,2.4,7.7-0.3,8.8-3.6
					c2.8-8.2,1.5-28.1-11.9-24.8c-5,1.2-7.4,6.7-6,11.4c1.6,5.5,6.6,8.5,12.1,8.7C144,148.9,144,136.9,136.2,136.6L136.2,136.6z"/>
			</g>
		</g>
		<g>
			<g>
				<path class="st0" d="M86.3,196.7c-0.1,0.1-0.2,0.3-0.3,0.4c1.9-0.5,3.9-1,5.8-1.5c-0.2,0-0.4-0.1-0.6-0.1
					c1.2,0.9,2.4,1.8,3.6,2.8c-1.3-2.7-0.9-7.3-1.4-10.2c-0.6-3.5-1.8-6.7-3.6-9.8c-3.1-5.2-11-2.9-11.2,3c-0.1,4.7-0.1,9.5,0,14.2
					c3.7-1,7.5-2,11.2-3c-2.3-3.8-2.4-8.1-2.4-12.4c-0.1-5.6-8.5-8.6-11.2-3c-1.7,3.6-2.6,6.9-3,10.9c4,0,8,0,12,0
					c-0.4-4.4-0.6-8.7-0.7-13.1c-0.1-7.2-9.4-7.6-11.8-1.6c-0.4,1-0.8,2-1.2,3c3.9,0,7.7,0,11.6,0c-0.3-1.1-0.6-2.3-0.9-3.4
					c-1.7-6.6-11.7-5.1-11.8,1.6c-0.2,15.3,1.7,30.6,5.4,45.5c1.6,6.2,9.6,5.2,11.6,0c2.2-5.8,4.1-11.7,5.7-17.7
					c-3.9-0.5-7.9-1.1-11.8-1.6c-0.5,6.9-1.1,13.7-1.6,20.6c-0.4,5-2,12.1,4.2,14.1c5.8,1.9,8.9-3.2,10.2-7.8
					c1.9-6.7,3.5-13.5,5.3-20.2c-3.9-0.5-7.9-1.1-11.8-1.6c0.9,7.3,1.1,14.5,0.8,21.8c4,0,8,0,12,0c-0.1-7,1-13.7,3.2-20.4
					c-3.7,0.5-7.3,1-11,1.4c1.7,2.3,0.7,8.8,0.8,11.5c0.1,4.2,0.1,8.4,0,12.7c-0.1,7.8,11.6,7.7,12,0c0.2-3.9,0.6-7.8,1.4-11.7
					c0.3-1.7,0.7-3.5,1.2-5.2c0.3-1.3,1.8-3.6,0.4-2.6c-2.7-0.7-5.5-1.4-8.2-2.2c1.6,2.5-0.4,8.9-0.7,11.8
					c-0.5,4.6-1.1,9.2-1.6,13.9c-0.8,6.7,10.5,8.2,11.8,1.6c1.8-9.1,4.6-17.8,8.6-26.1c-3.7-1-7.5-2-11.2-3
					c0.3,8.6-1.6,16.8-3.6,25.2c3.9,1.1,7.7,2.1,11.6,3.2c1.3-9,3.6-17.7,6.9-26.2c-3.9-0.5-7.9-1.1-11.8-1.6
					c-0.1,9.3-3.5,18.1-3.6,27.4c0,6.7,10.1,8.2,11.8,1.6c2.3-8.7,4.1-17.5,5.5-26.3c-3.9-0.5-7.9-1.1-11.8-1.6
					c0,3.3,0.1,6.6,0.1,9.9c0.1,7.9,11.1,7.5,12,0c0.9-7.7,1.3-15.5,1.3-23.3c-4,0-8,0-12,0c0.1,5.9,0.2,11.7,0.3,17.6
					c0.1,6.6,10.2,8.3,11.8,1.6c1.6-6.8,2.3-13.6,1.8-20.6c-4,0-8,0-12,0c0.6,7.1,0.6,14.1-0.1,21.1c-0.8,7.7,11.2,7.6,12,0
					c0.4-3.6,0.6-7.3,0.6-10.9c0.1-7.9-11.3-7.5-12,0c-1,10.6-3.1,21.1-6.1,31.3c3.9,0.5,7.9,1.1,11.8,1.6
					c-0.6-5.6,0.1-10.7,2.2-15.9c-3.9-0.5-7.9-1.1-11.8-1.6c-0.4,8.7-1.2,17.3-2.3,25.9c4,0,8,0,12,0c0.1-2.8,0.4-5.4,1-8.1
					c-3.9,0-7.7,0-11.6,0c0.6,4.3,0.6,8.7,0.2,13c4,0,8,0,12,0c0.2-2.8,0.6-5.4,1.2-8.2c-3.9-0.5-7.9-1.1-11.8-1.6
					c0.4,4.3,0.5,8.6,0.4,12.9c-0.3,7.7,11.7,7.7,12,0c0.1-3.8,0.3-7.6,0.4-11.3c-3.9,0.5-7.9,1.1-11.8,1.6
					c1.1,6.3,2.5,12.5,3.9,18.7c2.5-2.5,4.9-4.9,7.4-7.4c-7.7-1.8-15.4,0.9-23.2,0.3c-8.8-0.7-17.5-0.8-26.2-0.4
					c1.9,2.5,3.9,5.1,5.8,7.6c4.5-15.1,8.5-30.6,4.7-46.3c-1.5-6.1-9.7-5.2-11.6,0c-2.8,7.8,0,15.6-1.6,23.5
					c3.9,0.5,7.9,1.1,11.8,1.6c0.6-12.1,4-23.1-1-34.7c-2.3-5.4-11.8-2.7-11.2,3c0.8,7.1,2.1,14,4.4,20.8c1.8,5.5,7.7,14.2,5.6,20.2
					c0.9-1.2,1.8-2.4,2.8-3.6c-0.2,0.2-0.5,0.3-0.7,0.5c2,0,4,0,6.1,0c-0.3-0.2-0.6-0.3-0.9-0.5c0.9,1.2,1.8,2.4,2.8,3.6
					c-0.3-0.8-0.1-5.1,1.2-5.3c-1.5-0.2-3.1-0.4-4.6-0.6c-0.6-1-1.2-2-1.8-3c0.1,0.9-0.1,1.7-0.4,2.5c-0.6,2-1.9,1.8,0.7,2.9
					c2.7,1.1,1.7,0,2.3-2c0.4-1.2,1-2.3,1.8-3.4c0.3-0.4,0.6-0.8,1-1.2c0.8-0.5,0.7-0.7-0.2-0.7c-0.9-1.4,0,2.2,0.1,2.5
					c0.2,0.9,0.1,1.9,0.1,2.9c0,0.7,0,1.5,0,2.2c-0.1,1.1,0,1,0.2-0.3c1.2-0.9,2.4-1.8,3.6-2.8c1.9,0.8,2.5,0.5,1.9-0.7
					c0-0.3,0-0.5,0-0.8c0.8-1.6,0.9-2.1-0.6-2.6c-2.5-0.9-0.7,2.4-0.6,4.2c0.1,1.3-1.3,5.2,0.5,4.2c1.5-0.2,3.1-0.4,4.6-0.6
					c-0.3-0.1-0.5-0.2-0.8-0.3c1.2,0.9,2.4,1.8,3.6,2.8c-1.3-2.2,1.3-4.5-0.8-5.5c-1.9-0.9-0.9,0.6-1,2.2c-0.1,1.5-0.5,3.1-1.2,4.5
					c3.5,0,6.9,0,10.4,0c-0.7-1.3-1.4-3.3,0-4.4c-1.4,0.6-2.8,1.2-4.2,1.8c-2.9-3.3-4-3.3-3.2-0.1c0.1,1.2-0.1,2.3-0.6,3.4
					c0.9-1.2,1.8-2.4,2.8-3.6c-0.3,0.2-0.6,0.4-0.9,0.6c1.5-0.2,3.1-0.4,4.6-0.6c-0.3-0.1-0.5-0.2-0.8-0.3c1.2,0.9,2.4,1.8,3.6,2.8
					c-0.2-0.3-0.2-0.5-0.2-0.8c0-2.4-2-2.3-6.1,0.3c-0.2-1.5-0.4-3.1-0.6-4.6c-0.1,0.3-0.1,0.6-0.2,0.9c-1.2,7.6,10.3,10.8,11.6,3.2
					c1.6-9.7-10.7-14.2-15.5-5.4c-3.8,7,2.4,21.2,11,13.8c5.8-4.9,4.5-21.3-4.7-21.7c-10.6-0.5-10.5,14.6-7.1,20.8
					c2,3.7,8.4,4.1,10.4,0c3.5-7.6,5.4-22.8-6.4-24c-11-1.1-15.3,11.9-12.4,20.6c1.5,4.6,6.7,7.1,11,4.2c4.3-3,4.8-10.1,4.6-14.9
					c-0.3-4.9-1.5-10.9-6-13.7c-4.2-2.6-9.3-1-12.6,2.3c-6.1,6.2-5.9,18.6,2.1,23.2c4.1,2.4,9.6,0.7,11.2-3.8
					c1.6-4.4,0.9-10.9-0.7-15.2c-1.6-4.4-5-8.5-10-8.7c-5.5-0.2-9.8,4.2-12.4,8.6c-4.3,7.1-5.9,24,7.2,21.9
					c9.1-1.5,17.5-21.2,5.7-24.5c-11-3.1-18.7,18.9-9.1,24.1c1.7,0.9,4.3,1.3,6.1,0c7.1-5.2,3.9-15.4,1.1-22.2
					c-3.4-8.5-6.1-16.9-7.2-26.1c-3.7,1-7.5,2-11.2,3c3.7,8.8-0.3,19.6-0.7,28.7c-0.3,6.7,10.4,8.3,11.8,1.6
					c1.6-7.7-1.1-16.1,1.6-23.5c-3.9,0-7.7,0-11.6,0c3.3,13.5-0.8,27-4.7,39.9c-1.1,3.6,1.9,7.8,5.8,7.6c8.1-0.4,16.2-0.4,24.3,0.2
					c3.8,0.3,7.4,0.6,11.3,0.1c3.6-0.4,7.2-1.5,10.7-0.7c4.5,1.1,8.5-2.8,7.4-7.4c-1.5-6.2-2.8-12.4-3.9-18.7
					c-1.3-6.9-11.5-4.9-11.8,1.6c-0.1,3.8-0.3,7.6-0.4,11.3c4,0,8,0,12,0c0.1-4.3,0-8.6-0.4-12.9c-0.6-6.3-10.1-8.6-11.8-1.6
					c-0.9,3.7-1.4,7.5-1.6,11.4c-0.4,7.8,11.4,7.6,12,0c0.5-5.5,0.1-10.8-0.6-16.2c-0.8-6-10.3-5.5-11.6,0
					c-0.8,3.7-1.3,7.5-1.5,11.3c-0.3,7.9,11.1,7.4,12,0c1.1-8.6,1.8-17.2,2.3-25.9c0.4-7.2-9.5-7.5-11.8-1.6
					c-2.4,6.1-3.3,12.6-2.6,19.1c0.7,6.4,9.8,8.5,11.8,1.6c3.2-11.3,5.3-22.8,6.5-34.5c-4,0-8,0-12,0c0,3.7-0.2,7.3-0.6,10.9
					c4,0,8,0,12,0c0.7-7,0.7-14,0.1-21.1c-0.7-7.6-12.5-7.8-12,0c0.4,5.9,0,11.6-1.4,17.4c3.9,0.5,7.9,1.1,11.8,1.6
					c-0.1-5.9-0.2-11.7-0.3-17.6c-0.1-7.7-12.1-7.7-12,0c0.1,7.8-0.4,15.6-1.3,23.3c4,0,8,0,12,0c0-3.3-0.1-6.6-0.1-9.9
					c-0.1-6.5-10.7-8.5-11.8-1.6c-1.4,8.9-3.2,17.7-5.5,26.3c3.9,0.5,7.9,1.1,11.8,1.6c0.1-9.3,3.5-18.1,3.6-27.4
					c0.1-7.2-9.5-7.6-11.8-1.6c-3.3,8.5-5.6,17.2-6.9,26.2c-1.1,7.4,9.7,10.9,11.6,3.2c2.3-9.3,4.4-18.7,4.1-28.4
					c-0.2-5.6-8.4-8.7-11.2-3c-4.5,9.2-7.8,18.9-9.8,29c3.9,0.5,7.9,1.1,11.8,1.6c0.7-5.8,1.4-11.7,2.1-17.5c0.6-5,1.5-9.8-1.3-14.2
					c-1.6-2.6-5.5-4.1-8.2-2.2c-4.3,3-5.4,7.5-6.5,12.4c-1.3,5.7-2,11.6-2.4,17.5c4,0,8,0,12,0c0.1-5.5,0-11-0.1-16.6
					c-0.1-4.5,0.4-9.8-2.3-13.7c-3-4.2-9.3-3.7-11,1.4c-2.5,7.6-3.7,15.5-3.6,23.6c0.1,7.8,11.6,7.7,12,0c0.4-7.3,0.1-14.6-0.8-21.8
					c-0.8-6.3-9.9-8.7-11.8-1.6c-1,3.7-1.9,7.4-2.9,11c-0.6,2.1-1.1,8.9-2.8,10.4c1.9-0.5,3.9-1,5.8-1.5c-0.3-0.1-0.6-0.1-0.9-0.2
					c1.2,0.9,2.4,1.8,3.6,2.8c0.5,2.2,0.7,2.1,0.6-0.4c0.1-1.3,0.2-2.6,0.3-3.9c0.2-2.3,0.4-4.6,0.5-6.9c0.4-4.9,0.8-9.8,1.2-14.7
					c0.5-6.8-10.1-8-11.8-1.6c-1.6,6-3.5,11.9-5.7,17.7c3.9,0,7.7,0,11.6,0c-3.5-13.9-5.2-28-5-42.3c-3.9,0.5-7.9,1.1-11.8,1.6
					c0.3,1.1,0.6,2.3,0.9,3.4c1.6,6.2,9.5,5.1,11.6,0c0.4-1,0.8-2,1.2-3c-3.9-0.5-7.9-1.1-11.8-1.6c0,4.4,0.3,8.7,0.7,13.1
					c0.7,7.7,11.3,7.7,12,0c0.2-1.7,0.6-3.3,1.4-4.9c-3.7-1-7.5-2-11.2-3c0.1,6.5,0.6,12.8,4,18.5c3,5,11.3,3,11.2-3
					c-0.1-4.7-0.1-9.5,0-14.2c-3.7,1-7.5,2-11.2,3c3.2,5.5,2.1,11.7,3.9,17.6c1.5,4.9,7.6,7.7,11.4,3.4
					C99.9,199.5,91.5,190.9,86.3,196.7L86.3,196.7z"/>
			</g>
		</g>
		<g>
			<g>
				<path class="st0" d="M93.8,247.2c-2.9-0.4-5.6-0.1-7.7,2.2c-1.7,1.8-2.3,4.2-3,6.5c-0.8,2.5,0.5,5.5,2.8,6.8
					c0.3,0.2,0.7,0.4,1,0.6c1-3.7,2-7.5,3-11.2c-1-0.1-2-0.1-3,0c-2.4,0.3-4.5,1.3-5.5,3.7c-0.8,2.1-0.6,5,1.2,6.6
					c1.9,1.7,3.8,2.8,6.2,3.6c1.1-3.9,2.1-7.7,3.2-11.6c-1.5-0.4-3.1-0.7-4.7-0.7c-5.8-0.1-8.3,8.4-3,11.2c1.8,0.9,3.6,1.7,5.5,2
					c3.2,0.5,6.4-0.8,7.4-4.2c0.8-2.9-1-6.8-4.2-7.4c-2.9-0.5-6.4-1.7-9,0.2c-1.6,1.2-3.2,3-3,5.2c0.3,2.5,1.1,4.5,3.5,5.8
					c1.6,0.9,3.6,1.3,5.3,1.8c0.5-3.9,1.1-7.9,1.6-11.8c-1.3,0.1-1.6,0.1-2.8-0.4c-6.3-2.2-10.8,8.1-4.6,11c1.6,0.7,3.1,1.4,4.8,1.6
					c0-3.9,0-7.7,0-11.6c-0.9,0.3-1.8,0.7-2.6,1c-2.8,1-4.8,3.5-4.3,6.6c0.4,2.7,2.9,5.6,5.9,5.2c1.4-0.2,2.8-0.3,4.2-0.5
					c3-0.4,5.5-2,5.9-5.2c0.3-2.7-1.3-6.1-4.3-6.6c-2.1-0.3-4.2-0.6-6.2-0.9c-3.2-0.5-6.4,0.8-7.4,4.2c-0.8,2.8,1,6.9,4.2,7.4
					c2.1,0.3,4.2,0.6,6.2,0.9c0.5-3.9,1.1-7.9,1.6-11.8c-1.4,0.2-2.8,0.3-4.2,0.5c0.5,3.9,1.1,7.9,1.6,11.8c0.9-0.3,1.8-0.7,2.6-1
					c2.5-0.9,4.4-3,4.4-5.8c0-2.4-1.8-5.4-4.4-5.8c-0.5-0.1-1.9-0.4-1.9-0.4c-1.5,3.7-3.1,7.3-4.6,11c1.9,0.7,4,0.9,6,0.8
					c6.6-0.5,8.3-9.7,1.6-11.8c-0.6-0.2-1.2-0.4-1.9-0.6c-1.2-0.4-1.6-1,0.2,0.6c0.6,1.4,1.2,2.8,1.8,4.2c0-0.1,0-0.2,0-0.3
					c-1,1.7-2,3.5-3,5.2c0.1-0.1,0.2-0.2,0.3-0.2c-1,0.3-2,0.5-3,0.8c-0.9,0,0.3,0.1,0.7,0.1c0.6,0.1,1.2,0.2,1.8,0.3
					c1.1-3.9,2.1-7.7,3.2-11.6c-1.1-0.2-1.9-0.3-2.7-0.7c-1,3.7-2,7.5-3,11.2c1.1,0,0.4-0.1,1.5,0.3c3.1,0.9,6.5-1.1,7.4-4.2
					c0.9-3.3-1.1-6.3-4.2-7.4c0.7,0.2-1.4-0.9-0.9-0.5c-1.4,3.4-2.8,6.8-4.2,10.2c1-0.1,2-0.1,3,0c6.1,0.5,7.9-8.3,3-11.2
					c-0.3-0.2-0.7-0.4-1-0.6c0.9,2.3,1.8,4.5,2.8,6.8c0.2-0.5,0.4-1.1,0.5-1.6c0.1-1-0.1,0.9-1.9,1.3c-1.1,0-2.1,0-3.2,0
					c0.2,0,0.3,0,0.5,0.1c3.2,0.4,6.4-0.8,7.4-4.2C98.7,251.7,97,247.6,93.8,247.2L93.8,247.2z"/>
			</g>
		</g>
		<ellipse class="st0" cx="71.4" cy="267.9" rx="3.1" ry="1.2"/>
		<circle class="st0" cx="126" cy="268.8" r="1.2"/>
		<ellipse class="st0" cx="74.1" cy="269.1" rx="1.2" ry="0.6"/>
		<ellipse class="st0" cx="61.9" cy="179.7" rx="3.5" ry="2.8"/>
		<ellipse class="st0" cx="65.6" cy="169.5" rx="1" ry="2.1"/>
		<ellipse class="st0" cx="45.6" cy="161.4" rx="1.1" ry="7.5"/>
		<ellipse class="st0" cx="46.5" cy="167.9" rx="2.8" ry="5"/>
		<ellipse class="st0" cx="48.2" cy="145.3" rx="2.3" ry="8.2"/>
		<circle class="st0" cx="71.8" cy="137.4" r="2.5"/>
		<ellipse class="st0" cx="48.4" cy="131.7" rx="1.2" ry="2"/>
		<ellipse class="st0" cx="48.6" cy="126.2" rx="0.7" ry="1.1"/>
		<ellipse class="st0" cx="47.7" cy="152.4" rx="2" ry="3.4"/>
		<circle class="st0" cx="95.4" cy="141.9" r="2.1"/>
		<ellipse class="st0" cx="74" cy="106.4" rx="2.2" ry="0.7"/>
	</g>
	<g>
		<g>
			<g>
				<path d="M67.7,268.8c3.5,1.7,7,1.7,10.8,1.7c5.9,0,11.8,0,17.8,0c11.6,0,23.3,0,34.9,0.4c0.8,0,0.8-1.2,0-1.2
					c-10.4-0.3-20.8-0.4-31.2-0.4c-5,0-10,0-15,0c-5.3,0-11.8,0.9-16.8-1.5C67.7,267.4,67,268.4,67.7,268.8L67.7,268.8z"/>
			</g>
		</g>
		<g>
			<g>
				<g>
					<path d="M68.7,268.5c4.8-16.6,3.9-33.9,3.4-51c-0.5-18-1.9-36-2.9-54c0-0.8-1.2-0.8-1.2,0c1,17.4,2.3,34.7,2.9,52.1
						c0.5,17.6,1.7,35.5-3.3,52.6C67.3,269,68.5,269.3,68.7,268.5L68.7,268.5z"/>
				</g>
			</g>
			<g>
				<g>
					<path d="M64.6,185.7c2.1-8.6,3.5-17.3,4.4-26.2c0.1-0.8-1.1-0.8-1.2,0c-0.8,8.7-2.3,17.3-4.3,25.9
						C63.2,186.1,64.4,186.4,64.6,185.7L64.6,185.7z"/>
				</g>
			</g>
			<g>
				<g>
					<path d="M64.1,184.1c-6.2-4-14-5.2-21-7.1c-0.7-0.2-1.1,1-0.3,1.2c6.9,1.9,14.6,3.1,20.7,7C64.2,185.6,64.8,184.5,64.1,184.1
						L64.1,184.1z"/>
				</g>
			</g>
			<g>
				<g>
					<path d="M42.7,177.4c2.1-11.7,3.5-23.4,4.2-35.3c0.7-12,0.6-26.7,12.7-33.2c0.7-0.4,0.1-1.4-0.6-1c-9.3,5-12,15.2-12.7,25.1
						c-1.2,14.8-2.1,29.5-4.7,44.2C41.4,177.8,42.6,178.2,42.7,177.4L42.7,177.4z"/>
				</g>
			</g>
			<g>
				<g>
					<path d="M59,109.2c3.6-2.4,8.5-2.4,12.7-2.8c3.9-0.3,7.7-0.4,11.6-0.3c0.8,0,0.8-1.2,0-1.2c-5.2-0.1-10.3,0.1-15.5,0.7
						c-3.3,0.4-6.6,0.6-9.4,2.5C57.7,108.6,58.3,109.6,59,109.2L59,109.2z"/>
				</g>
			</g>
			<g>
				<g>
					<path d="M82.6,106.3c3,2.8,4.1,6.7,6.5,9.9c2.5,3.4,6.1,6.1,9.2,8.9c0.6,0.5,1.4-0.3,0.8-0.8c-3.5-3.3-7.6-6.4-10.2-10.5
						c-1.8-2.9-3-5.9-5.5-8.3C82.9,105,82.1,105.8,82.6,106.3L82.6,106.3z"/>
				</g>
			</g>
		</g>
		<g>
			<g>
				<g>
					<path d="M132.1,269c-4.9-17.1-3.8-35-3.3-52.6c0.5-17.4,1.8-34.8,2.9-52.1c0-0.8-1.2-0.8-1.2,0c-1.1,18-2.4,36-2.9,54
						c-0.5,17.1-1.5,34.4,3.4,51C131.2,270,132.3,269.7,132.1,269L132.1,269z"/>
				</g>
			</g>
			<g>
				<g>
					<path d="M136.3,186.1c-2.1-8.5-3.5-17.1-4.3-25.9c-0.1-0.8-1.3-0.8-1.2,0c0.8,8.8,2.3,17.5,4.4,26.2
						C135.3,187.2,136.4,186.8,136.3,186.1L136.3,186.1z"/>
				</g>
			</g>
			<g>
				<g>
					<path d="M136.1,185.9c6.1-3.9,13.8-5.1,20.7-7c0.7-0.2,0.4-1.4-0.3-1.2c-7,1.9-14.8,3.2-21,7.1
						C134.9,185.3,135.5,186.3,136.1,185.9L136.1,185.9z"/>
				</g>
			</g>
			<g>
				<g>
					<path d="M158.1,177.8c-2.6-14.7-3.5-29.3-4.7-44.2c-0.8-9.8-3.5-20.1-12.7-25.1c-0.7-0.4-1.3,0.7-0.6,1
						c12.1,6.5,12,21.2,12.7,33.2c0.7,11.8,2.1,23.6,4.2,35.3C157.1,178.9,158.2,178.6,158.1,177.8L158.1,177.8z"/>
				</g>
			</g>
			<g>
				<g>
					<path d="M141.3,108.9c-2.8-1.9-6.1-2.1-9.4-2.5c-5.1-0.6-10.3-0.8-15.5-0.7c-0.8,0-0.8,1.2,0,1.2c3.9-0.1,7.8,0,11.6,0.3
						c4.2,0.3,9.1,0.3,12.7,2.8C141.3,110.4,141.9,109.3,141.3,108.9L141.3,108.9z"/>
				</g>
			</g>
			<g>
				<g>
					<path d="M116.2,106.2c-3,2.4-4.5,5.8-6.8,8.8c-2.9,3.6-7.1,6.2-10.7,9.1c-0.6,0.5,0.2,1.3,0.8,0.8c3.5-2.7,7.6-5.3,10.5-8.7
						c2.5-3,4-6.6,7.1-9.1C117.6,106.6,116.8,105.8,116.2,106.2L116.2,106.2z"/>
				</g>
			</g>
		</g>
	</g>
</g>
</svg>
