<?xml version="1.0" encoding="utf-8"?>
<!-- Generator: Adobe Illustrator 21.0.2, SVG Export Plug-In . SVG Version: 6.00 Build 0)  -->
<svg version="1.1" id="Layer_1" xmlns="http://www.w3.org/2000/svg" xmlns:xlink="http://www.w3.org/1999/xlink" x="0px" y="0px"
	 viewBox="0 0 200 600" style="enable-background:new 0 0 200 600;" xml:space="preserve">
<style type="text/css">
	.st0{fill:#FFE329;}
	.st1{fill:none;stroke:#000000;stroke-miterlimit:10;}
	.st2{fill:#F9EE53;}
</style>
<g>
	<g id="XMLID_2_">
		<g>
			<path class="st0" d="M98.9,23c0.3-0.6,0.9-0.9,1.4-1.1c3.7-1.5,7.9-1.2,11.7,0.1c3.8,1.3,7.1,3.6,10.4,6c1.5,1.1,2.4,1.6,4.4,4.4
				c1.5,2.1,2.5,4.8,3.3,7.4c1,3.5,1.7,7.1,2,10.8c0.8,2.9,1.6,5.8,2.4,8.7c0.6,2.4,1.3,4.9,1,7.4c-0.2,1.8-1,3.6-1.3,5.4
				c-0.8,4.3,0.7,8.6,2.7,12.6c1.3,1.6,2.5,3.5,2.1,5.5c-0.5,2.1-2.6,3.3-3.3,5.3c-0.5,1.6-0.1,3.4,0.2,5.1c0.3,1.7,0.4,3.7-0.7,5
				c-0.6,0.7-1.5,1-2.2,1.6c-2.3,1.9-2.4,5.5-1.9,8.5c0.4,3.2,1.2,6.4,2.2,9.5l-0.5,0.1c-2.1-1.4-3.6-3.6-4.5-6
				c-0.8-2-1.2-4.1-1.4-6.2l-0.1,0c0,1.8-0.7,3.7-1.7,5.1c-0.9,1.2-2,2-2.9,3.1c-1.2,1.4-2.1,3-3.3,4.3c-1.2,1.3-3,2.3-4.6,1.7
				c-0.1,0-0.3-0.1-0.3-0.2c-0.1-0.2,0-0.4,0.1-0.6c0.9-1.5,2.1-2.9,3-4.4c0.9-1.5,1.7-3.3,1.7-5.1c0-1.9-0.9-3.8-2.4-4.5l-1.2,0.1
				c-0.7-1-1.1-2.4-1.5-3.7c-0.5-1.5-1.2-2.9-2.1-4.1c-0.3-0.4-0.6-0.7-0.7-1.2c-0.4-0.9-0.2-1.9,0-2.9c0.4-2.7,0.5-5.4,0.3-8l0.2,0
				c0.2-0.5,0.7-0.8,1.1-0.9c0.5-0.1,1,0,1.5-0.1c0.8-0.1,1.5-0.6,2.1-1c3.2-2.2,6.1-4.8,8.8-7.6l0.3,0.1c0.2-0.6,0.4-1.3,0.6-1.9
				c0.5-2.2,0-4.4-0.2-6.6c-0.2-3.4,0.5-6.9,2.1-9.9l0.2-0.1c-0.7-3.1-0.8-6.4-0.4-9.5c0.4-2.8,1.1-5.9-0.2-8.4
				c-1.5-2.8-4-4.3-6.5-6.1c-1.8-1.3-3.3-3.4-5.1-4.7c-2.5-1.8-6.5-2.6-9.5-2.3c-3,0.3-5.9,2.7-8.7,3.7l-0.1,0.1
				c-1-0.7-2.2-1.1-3.4-1.3c-2.1-0.4-4.2-0.2-6.3,0c-2.4,0.2-4.8,0.5-6.9,1.6c-2.6,1.3-4.6,3.6-6.4,5.9c-0.7,0.8-1.4,1.7-1.9,2.7
				c-1.3,2.9-0.5,6.3-0.7,9.5c-0.1,1.2-0.3,2.3-0.7,3.4c-0.7,2-1.8,3.9-3.3,5.3l-2.9,0.5c-0.1-0.6-0.2-1.2-0.2-1.8
				c-0.5-5,0.4-10,1.4-15c1.2-6.5,2.7-13.3,7.1-17.9c1.7-1.7,3.7-3,5.6-4.2c2.1-1.3,4.2-2.7,6.5-3.5c1.9-0.7,4-1,6-1.1
				C93.9,21.6,96.6,21.7,98.9,23z"/>
			<path class="st0" d="M88.6,106.1c-0.5,1.2-0.6,2.5-1,3.8c-0.6,1.6-2.4,3.2-3.8,2.3c-0.4-0.3-0.8-0.8-1.2-1
				c-0.9-0.3-1.8,0.6-2.2,1.6c-1.2,2.9-0.6,6.8-2.8,9c-0.9,0.9-2.2,1.3-3.4,1.9c-1.2,0.6-2.3,1.5-2.6,2.8c-0.8-1.5-1.6-3.3-1.1-4.9
				c0.3-0.8,0.9-1.5,1.4-2.2c0.7-0.9,1.3-2,1.4-3.2c0.1-1.2-0.4-2.5-1.4-3c-0.2,2-2.4,3-3.8,4.4c-1.5,1.6-2.1,3.9-2.1,6.2
				c0.1,2.3,0.8,4.4,1.6,6.5c-3-1.6-5.4-4.3-6.9-7.4l-0.2,0.1c-0.8-2-1.3-4-1-6.1c0.4-2.7,2.2-4.9,3.2-7.4c1.1-2.6,1.3-5.7,0.5-8.5
				c-0.5-2.1-1.5-3.9-2-6c-0.5-2.1-0.3-4.6,1.2-5.9l0.1-0.1c-1-1.7-1.7-3.6-1.5-5.5c0.1-1.2,0.5-2.3,0.9-3.4
				c0.6-1.7,1.4-3.4,2.5-4.8c0.2-0.3,0.5-0.6,0.7-0.8l-0.2-0.2c1-2.8,0.4-5.9-0.1-8.9l2.9-0.5c1.5-1.5,2.6-3.3,3.3-5.3l0.4,0.1
				c-0.6,1.8-0.7,3.8-0.3,5.7c0.6,3.1,2.4,5.8,2.8,8.9c0.3,2-0.1,4-0.6,5.9L74,80c3.1,3.6,6.2,7.3,10.2,9.7c1.6,0.9,3.3,1.6,4.9,2.3
				h0.2c0.1,3.1,0.2,6.1,0.2,9.2C89.7,102.9,89.7,104.9,88.6,106.1z"/>
		</g>
		<g>
			<path class="st1" d="M99,23.1c0,0-0.1,0-0.1-0.1c-2.3-1.3-5-1.5-7.6-1.3c-2,0.1-4.1,0.4-6,1.1c-2.3,0.8-4.4,2.1-6.5,3.5
				c-2,1.3-4,2.5-5.6,4.2C68.7,35.1,67.3,42,66,48.4c-0.9,4.9-1.9,10-1.4,15c0.1,0.6,0.1,1.2,0.2,1.8c0.4,3,1,6.1,0.1,8.9"/>
			<path class="st1" d="M68.7,72.3c-1.3,0.2-2.6,1-3.6,2c-0.3,0.3-0.5,0.5-0.7,0.8c-1.1,1.4-1.9,3.1-2.5,4.8
				c-0.4,1.1-0.8,2.2-0.9,3.4c-0.1,2,0.5,3.8,1.5,5.5c0.8,1.4,1.9,2.7,2.9,3.9"/>
			<path class="st1" d="M62.4,88.9c-1.5,1.4-1.7,3.9-1.2,5.9c0.5,2.1,1.5,4,2,6c0.7,2.8,0.5,5.8-0.5,8.5c-1,2.5-2.8,4.7-3.2,7.4
				c-0.3,2.1,0.2,4.1,1,6.1c0.3,0.7,0.5,1.3,0.8,2"/>
			<path class="st1" d="M98.8,23.1C98.8,23.1,98.9,23.1,98.8,23.1c0.3-0.7,0.9-1,1.5-1.2c3.7-1.5,7.9-1.2,11.7,0.1
				c3.8,1.3,7.1,3.6,10.4,6c1.5,1.1,2.4,1.6,4.4,4.4c1.5,2.1,2.5,4.8,3.3,7.4c1,3.5,1.7,7.1,2,10.8c0.1,0.8,0.1,1.5,0.2,2.3"/>
			<path class="st1" d="M132,50.1c0,0.1,0.1,0.3,0.1,0.4c0.8,2.9,1.6,5.8,2.4,8.7c0.6,2.4,1.3,4.9,1,7.4c-0.2,1.8-1,3.6-1.3,5.4
				c-0.8,4.3,0.7,8.6,2.7,12.6c0.5,0.9,1,1.8,1.5,2.7"/>
			<path class="st1" d="M136.4,83.9c0.2,0.2,0.4,0.4,0.6,0.7c1.3,1.6,2.5,3.5,2.1,5.5c-0.5,2.1-2.6,3.3-3.3,5.3
				c-0.5,1.6-0.1,3.4,0.2,5.1c0.3,1.7,0.4,3.7-0.7,5c-0.6,0.7-1.5,1-2.2,1.6c-2.3,1.9-2.4,5.5-1.9,8.5c0.4,3.2,1.2,6.4,2.2,9.5"/>
			<path class="st1" d="M60.6,122.7c1.5,3.2,4,5.8,6.9,7.4c-0.8-2.1-1.5-4.3-1.6-6.5c-0.1-2.3,0.5-4.6,2.1-6.2
				c1.4-1.4,3.6-2.4,3.8-4.4c1,0.5,1.5,1.8,1.4,3c-0.1,1.2-0.7,2.3-1.4,3.2c-0.5,0.7-1.1,1.4-1.4,2.2c-0.5,1.6,0.3,3.4,1.1,4.9
				c0.3-1.3,1.5-2.2,2.6-2.8c1.2-0.6,2.4-1,3.4-1.9c2.2-2.2,1.6-6,2.8-9c0.4-0.9,1.3-1.9,2.2-1.6c0.5,0.2,0.8,0.7,1.2,1
				c1.4,0.9,3.2-0.6,3.8-2.3c0.4-1.2,0.6-2.6,1-3.8c0.2-0.4,0.3-0.8,0.6-1.2"/>
			<path class="st1" d="M133.7,125.8c-0.3-0.1-0.6-0.3-0.9-0.5c-2.1-1.4-3.6-3.6-4.5-6c-0.8-2-1.2-4.1-1.4-6.2
				c-0.1-0.8-0.2-1.7-0.3-2.5"/>
			<path class="st1" d="M116.5,112.4c1.5,0.7,2.4,2.6,2.4,4.5c0,1.9-0.8,3.6-1.7,5.1c-0.9,1.5-2.1,2.9-3,4.4
				c-0.1,0.2-0.2,0.4-0.1,0.6c0.1,0.1,0.2,0.2,0.3,0.2c1.6,0.5,3.4-0.4,4.6-1.7c1.2-1.3,2.1-3,3.3-4.3c0.9-1.1,2-2,2.9-3.1
				c1.1-1.4,1.7-3.3,1.7-5.1"/>
			<path class="st1" d="M116.5,113.6c-0.5-0.2-0.9-0.6-1.3-1c-0.7-1-1.1-2.4-1.5-3.7c-0.5-1.5-1.2-2.9-2.1-4.1
				c-0.3-0.4-0.6-0.7-0.7-1.2c-0.4-0.9-0.2-1.9,0-2.9c0.4-2.7,0.5-5.4,0.3-8"/>
			<path class="st1" d="M99.4,39.2c-0.6-0.7-1.3-1.4-2-1.8c-1-0.7-2.2-1.1-3.4-1.3c-2.1-0.4-4.2-0.2-6.3,0c-2.4,0.2-4.8,0.5-6.9,1.6
				c-2.6,1.3-4.6,3.6-6.4,5.9c-0.7,0.8-1.4,1.7-1.9,2.7c-1.3,2.9-0.5,6.3-0.7,9.5c-0.1,1.2-0.3,2.3-0.7,3.4c-0.7,2-1.8,3.9-3.3,5.3"
				/>
			<path class="st1" d="M69.2,87.6c2.3-1.3,3.4-4.2,4.1-6.9c0.1-0.2,0.1-0.4,0.2-0.6C73.9,78,74.2,76,74,74
				c-0.4-3.1-2.2-5.8-2.8-8.9c-0.4-1.9-0.3-3.9,0.3-5.7c0.1-0.4,0.2-0.7,0.4-1.1"/>
			<path class="st1" d="M97.4,37.3c2.8-1,5.8-3.4,8.7-3.7c3-0.3,7,0.5,9.5,2.3c1.8,1.3,3.3,3.5,5.1,4.7c2.6,1.8,5,3.3,6.5,6.1
				c1.3,2.5,0.6,5.5,0.2,8.4c-0.4,3.2-0.3,6.4,0.4,9.5c0.5,2.4,1.3,4.8,2.5,7"/>
			<path class="st1" d="M126.4,91.5c-1-1.8-2.1-3.7-2-5.8c0.1-0.9,0.3-1.7,0.7-2.6c0.2-0.6,0.4-1.3,0.6-1.9c0.5-2.2,0-4.4-0.2-6.6
				c-0.2-3.4,0.5-6.9,2.1-9.9"/>
			<path class="st1" d="M76.9,104.6c-1.3-0.7-2.8-1.7-2.8-3.2c0-0.6,0.3-1.2,0.6-1.8c0.9-1.7,1.7-3.4,2-5.3c0.3-1.9,0.1-3.8-0.9-5.4
				"/>
			<path class="st1" d="M77.1,104.6c-0.4-2,0.9-3.8,2.1-5.3c1.2-1.5,2.5-3.4,2-5.4"/>
			<path class="st1" d="M121.9,105.9c0.5-1,0.3-2.4-0.3-3.4c-0.6-1-1.4-1.8-2.3-2.6c-1.4-1.3-2.9-2.6-4.3-3.9"/>
			<path class="st1" d="M122,106.8c0.3-0.5,0.7-0.9,1-1.4c0.3-0.4,0.7-0.9,0.9-1.4c0.5-1.3,0.3-2.8,0-4.2c-0.1-0.7-0.3-1.4-0.6-2.1
				c-0.4-0.6-0.9-1-1.4-1.5c-0.9-0.9-1.5-2.1-1.9-3.4"/>
			<path class="st1" d="M88.5,106.2C88.6,106.2,88.6,106.2,88.5,106.2c1.2-1.3,1.2-3.3,1.1-5c-0.1-3.1-0.2-6.1-0.2-9.2"/>
			<path class="st1" d="M74,80c3.1,3.6,6.2,7.3,10.2,9.7c1.6,0.9,3.3,1.6,4.9,2.3"/>
			<path class="st1" d="M111.4,92.7c0.2-0.5,0.7-0.8,1.1-0.9c0.5-0.1,1,0,1.5-0.1c0.8-0.1,1.5-0.6,2.1-1c3.2-2.2,6.1-4.8,8.8-7.6"/>
		</g>
	</g>
	<g>
		<g>
			<path class="st2" d="M64.3,123.7c-1.4-1.5-2.5-3.4-2.6-5.5c-0.1-1.8,1-3.2,1.3-4.8c0.1-0.7-1-1.1-1.1-0.3
				c-0.4,2.2-1.7,3.7-1.3,6.1c0.4,2.1,1.4,3.9,2.9,5.4C64,125.1,64.8,124.3,64.3,123.7L64.3,123.7z"/>
		</g>
	</g>
	<g>
		<g>
			<path class="st2" d="M65.2,124.2c-2.5-3.4-0.1-7.2,1.9-10.1c0.4-0.6-0.6-1.2-1-0.6c-2.3,3.3-4.7,7.5-1.9,11.3
				C64.6,125.4,65.7,124.8,65.2,124.2L65.2,124.2z"/>
		</g>
	</g>
	<g>
		<g>
			<path class="st2" d="M66.6,105.2c-0.4-0.6-0.3-1.5-0.4-2.2c-0.1-0.8-0.4-1.6-0.7-2.3c-0.3-0.7-0.7-1.4-1.1-2.1
				c-0.7-1.4-0.8-2.6-0.8-4.1c0-0.8-1.1-0.8-1.2,0c-0.1,2.2,0.3,3.4,1.3,5.4c0.6,1.1,1,2.3,1.2,3.5c0.2,0.9,0,1.7,0.5,2.5
				C66,106.4,67.1,105.8,66.6,105.2L66.6,105.2z"/>
		</g>
	</g>
	<g>
		<g>
			<path class="st2" d="M67.5,91.1c-1.5-2.3-3.2-3-3.8-6c-0.9-4.6,1.3-7.3,4.8-10c0.6-0.5,0-1.5-0.6-1c-2.6,2-5.3,4.2-5.6,7.8
				c-0.1,1.7,0.1,4,0.7,5.5c0.7,1.8,2.4,2.7,3.5,4.3C66.9,92.3,68,91.7,67.5,91.1L67.5,91.1z"/>
		</g>
	</g>
	<g>
		<g>
			<path class="st2" d="M67.7,86.3c-0.3-1.2,2-3.2,2.6-4c0.7-1,1.4-2.1,1.8-3.2c0.9-2.2,0.8-4.4-0.1-6.6c-0.3-0.7-1.3-0.1-1,0.6
				c1.6,3.7-0.6,7.5-3.1,10.2c-1,1.1-1.8,1.8-1.4,3.4C66.7,87.3,67.9,87,67.7,86.3L67.7,86.3z"/>
		</g>
	</g>
	<g>
		<g>
			<path class="st2" d="M76.3,101.9c0-1.2,1.4-2.2,2.1-3c0.4-0.5,0.7-1.1,1-1.8c0.6-1.6,0.7-3.2,0.4-4.8c-0.1-0.8-1.3-0.4-1.1,0.3
				c0.4,2.3-0.3,4.6-1.9,6.3c-0.9,0.9-1.7,1.6-1.7,3C75.1,102.6,76.3,102.6,76.3,101.9L76.3,101.9z"/>
		</g>
	</g>
	<g>
		<g>
			<path class="st2" d="M72.7,122.1c1.9-0.5,3.5-1.6,4.3-3.4c0.4-0.8,0.5-1.7,0.6-2.6c0.3-2.2,0.7-3.8,2.2-5.5
				c0.5-0.6-0.3-1.4-0.8-0.8c-1.2,1.4-2.1,3-2.4,4.8c-0.5,3-0.9,5.5-4.3,6.3C71.6,121.2,71.9,122.3,72.7,122.1L72.7,122.1z"/>
		</g>
	</g>
	<g>
		<g>
			<path class="st2" d="M84.1,109.2c5.3,1,2.9-9,2.6-11.5c-0.1-0.8-1.3-0.8-1.2,0c0.2,1.4,1.9,10.9-1.1,10.3
				C83.6,107.9,83.3,109,84.1,109.2L84.1,109.2z"/>
		</g>
	</g>
	<g>
		<g>
			<path class="st2" d="M66.9,62.9c1.6-1.1,2.1-2.6,2.3-4.5c0.3-3.9-0.1-7.6,2.1-11c0.4-0.6-0.6-1.2-1-0.6c-1.2,1.8-1.8,3.6-2,5.7
				c-0.4,2.7,0.7,7.7-2,9.4C65.7,62.3,66.3,63.3,66.9,62.9L66.9,62.9z"/>
		</g>
	</g>
	<g>
		<g>
			<path class="st2" d="M74,35c0.8-2.4,4.5-5.3,6.5-6.7c3.1-2.1,8.4-3.9,12.1-3.1c0.7,0.1,1.1-1,0.3-1.1c-4.2-0.8-9.2,0.7-12.7,3
				c-2.6,1.7-6.3,4.7-7.3,7.7C72.6,35.4,73.8,35.8,74,35L74,35z"/>
		</g>
	</g>
	<g>
		<g>
			<path class="st2" d="M84.1,34.7C88,33.2,92,33,96,34.3c0.7,0.2,1-0.9,0.3-1.1c-4.2-1.3-8.5-1.2-12.5,0.4
				C83,33.8,83.3,34.9,84.1,34.7L84.1,34.7z"/>
		</g>
	</g>
	<g>
		<g>
			<path class="st2" d="M132.1,69.9c-2-6.1-2.2-12.2-0.5-18.4c0.2-0.7-0.9-1.1-1.1-0.3c-1.8,6.3-1.6,12.8,0.5,19
				C131.1,71,132.3,70.7,132.1,69.9L132.1,69.9z"/>
		</g>
	</g>
	<g>
		<g>
			<path class="st2" d="M129.6,90.2c-0.8-1-1.7-2.2-2-3.4c-0.6-2,0.3-4,0.8-5.9c0.4-1.8,0.5-3.3-0.3-5c-0.3-0.7-1.3-0.1-1,0.6
				c1.4,3.1-1,6.1-0.9,9.2c0.1,2,1.2,3.6,2.4,5.2C129.1,91.4,130.1,90.8,129.6,90.2L129.6,90.2z"/>
		</g>
	</g>
	<g>
		<g>
			<path class="st2" d="M130.7,120.3c-1.6-3.1-1.4-6.6-1.2-10c0-0.8-1.1-0.8-1.2,0c-0.2,3.6-0.3,7.3,1.4,10.6
				C130,121.6,131.1,121,130.7,120.3L130.7,120.3z"/>
		</g>
	</g>
	<g>
		<g>
			<path class="st2" d="M131.1,107.2c0.8-2.4,3.7-4.1,2.5-6.9c-0.3-0.7-1.3-0.1-1,0.6c0.9,2-2,4.2-2.6,6
				C129.7,107.6,130.8,107.9,131.1,107.2L131.1,107.2z"/>
		</g>
	</g>
	<g>
		<g>
			<path class="st2" d="M117,94.2c-0.5,1.1,0.1,2.1,1.2,2.6c0.8,0.4,1.6,0.6,2.1,1.5c0.5,0.7,0.7,1.6,0.9,2.4
				c0.2,0.7,1.4,0.4,1.1-0.3c-0.3-1.1-0.6-2.2-1.3-3.1c-0.3-0.4-0.7-0.7-1.1-1c-0.5-0.3-2.2-0.7-1.9-1.5
				C118.4,94.1,117.3,93.5,117,94.2L117,94.2z"/>
		</g>
	</g>
	<g>
		<g>
			<path class="st2" d="M118.1,125.5c0.7-2.7,2.6-5.2,4-7.6c1-1.6,2.3-3.2,2.1-5.2c-0.1-0.8-1.3-0.8-1.2,0c0.2,2.4-2.4,5.2-3.5,7.2
				c-1,1.7-2.1,3.3-2.6,5.3C116.7,126,117.9,126.3,118.1,125.5L118.1,125.5z"/>
		</g>
	</g>
	<g>
		<g>
			<path class="st2" d="M117.5,110.7c-0.4-1.3-0.9-2.6-1.6-3.7c-0.8-1.3-2.9-2.6-2.5-4.3c0.1-0.7-1-1.1-1.1-0.3
				c-0.2,1.2,0.2,2.2,1,3.2c1.5,1.8,2.4,3.3,3.1,5.5C116.6,111.8,117.7,111.4,117.5,110.7L117.5,110.7z"/>
		</g>
	</g>
	<g>
		<g>
			<path class="st2" d="M116.3,34.6c1.1,1.3,2.4,2.3,3.9,3c1.7,0.8,3.9,1,5,2.8c0.4,0.7,1.4,0.1,1-0.6c-0.8-1.3-1.9-2-3.3-2.5
				c-2.3-0.8-4.1-1.6-5.7-3.5C116.6,33.1,115.8,34,116.3,34.6L116.3,34.6z"/>
		</g>
	</g>
	<g>
		<g>
			<path class="st2" d="M100,34.1c2.3-1.2,4.8-1.9,7.4-2.2c0.8-0.1,0.8-1.3,0-1.2c-2.8,0.3-5.5,1-8,2.3
				C98.7,33.4,99.3,34.4,100,34.1L100,34.1z"/>
		</g>
	</g>
	<g>
		<g>
			<path class="st2" d="M102.8,24c1.9-0.1,3.9-0.2,5.8-0.3c0.8,0,0.8-1.2,0-1.2c-1.9,0.1-3.9,0.2-5.8,0.3C102,22.8,102,24,102.8,24
				L102.8,24z"/>
		</g>
	</g>
</g>
</svg>
