<?xml version="1.0" encoding="utf-8"?>
<!-- Generator: Adobe Illustrator 21.0.2, SVG Export Plug-In . SVG Version: 6.00 Build 0)  -->
<svg version="1.1" id="Layer_1" xmlns="http://www.w3.org/2000/svg" xmlns:xlink="http://www.w3.org/1999/xlink" x="0px" y="0px"
	 viewBox="0 0 200 600" style="enable-background:new 0 0 200 600;" xml:space="preserve">
<style type="text/css">
	.st0{fill:#602F13;}
	.st1{fill:none;stroke:#000000;stroke-miterlimit:10;}
	.st2{fill:#613515;}
</style>
<g>
	<g id="XMLID_2_">
		<g>
			<path class="st0" d="M115.8,90.7c3.2-2.2,6.1-4.7,8.8-7.6l0.3,0.1c0.2-0.6,0.4-1.3,0.6-1.9c0.5-2.1,0-4.4-0.2-6.6
				c-0.2-3.4,0.5-6.9,2.1-9.9l0.2-0.1c-0.7-3.1-0.8-6.4-0.4-9.5c0.4-2.8,1.1-5.9-0.2-8.4c-1.5-2.8-4-4.3-6.5-6.1
				c-1.8-1.3-3.3-3.4-5.1-4.7c-2.5-1.8-6.5-2.6-9.5-2.3c-3,0.3-5.9,2.7-8.7,3.7l-0.1,0.1c-1-0.7-2.2-1.1-3.4-1.3
				c-2.1-0.4-4.2-0.2-6.3,0c-2.4,0.2-4.8,0.5-6.9,1.6c-2.6,1.3-4.6,3.6-6.4,5.9c-0.7,0.8-1.4,1.7-1.9,2.7c-1.3,2.9-0.5,6.3-0.7,9.5
				c-0.1,1.2-0.3,2.3-0.7,3.4c-0.7,2-1.8,3.9-3.3,5.3l-2.9,0.5c-0.1-0.6-0.2-1.2-0.2-1.8c-0.5-5,0.4-10,1.4-15
				c1.2-6.5,2.7-13.3,7.1-17.9c1.7-1.7,3.7-3,5.6-4.2c2.1-1.3,4.2-2.7,6.5-3.5c1.9-0.7,4-1,6-1.1c2.6-0.1,5.3,0,7.6,1.3
				c0.3-0.6,0.9-0.9,1.4-1.1c3.7-1.5,7.9-1.2,11.7,0c3.8,1.3,7.1,3.6,10.4,6.1c1.5,1.1,2.4,1.6,4.4,4.3c1.5,2.1,2.5,4.8,3.3,7.4
				c1,3.5,1.7,7.1,2,10.8c0.8,2.9,1.6,5.8,2.4,8.7c0.6,2.4,1.3,4.9,1,7.3c-0.2,1.9-1,3.6-1.3,5.4c-0.8,4.3,0.7,8.6,2.7,12.6
				c1.3,1.6,2.5,3.5,2,5.5c-0.5,2.1-2.6,3.3-3.3,5.3c-0.5,1.6-0.1,3.4,0.2,5.1c0.3,1.7,0.4,3.7-0.7,5c-0.6,0.7-1.5,1.1-2.2,1.6
				c-2.3,1.9-2.4,5.5-1.9,8.5c0.4,3.2,1.2,6.4,2.2,9.5l-0.5,0.1c-2.1-1.4-3.6-3.6-4.5-6c-0.8-2-1.2-4.1-1.4-6.2l-0.1,0
				c0,1.8-0.7,3.7-1.7,5.1c-0.9,1.2-2,2-2.9,3.1c-1.2,1.4-2.1,3-3.3,4.3c-1.2,1.3-3,2.3-4.6,1.7c-0.1,0-0.3-0.1-0.3-0.2
				c-0.1-0.2,0-0.4,0.1-0.6c0.9-1.5,2.1-2.9,3-4.4c0.9-1.5,1.7-3.3,1.7-5.1c0-1.9-0.9-3.8-2.4-4.5l-1.2,0.1c-0.7-1-1.1-2.4-1.5-3.7
				c-0.5-1.5-1.2-2.9-2.1-4.1c-0.3-0.4-0.6-0.7-0.7-1.2c-0.4-0.9-0.2-1.9,0-2.9c0.4-2.7,0.5-5.4,0.3-8l0.2,0
				c0.2-0.5,0.7-0.8,1.1-0.9c0.5-0.1,1,0,1.5-0.1C114.5,91.6,115.2,91.1,115.8,90.7z"/>
			<path class="st0" d="M73.8,80c3.1,3.6,6.2,7.3,10.2,9.7c1.6,0.9,3.3,1.6,4.9,2.3h0.2c0.1,3.1,0.2,6.1,0.2,9.2
				c0.1,1.8,0,3.8-1.1,5c-0.5,1.2-0.6,2.6-1,3.8c-0.6,1.6-2.4,3.2-3.8,2.2c-0.4-0.3-0.8-0.8-1.2-0.9c-0.9-0.3-1.8,0.6-2.2,1.6
				c-1.2,2.9-0.6,6.8-2.8,9c-0.9,0.9-2.2,1.3-3.4,1.9c-1.2,0.6-2.3,1.4-2.6,2.8c-0.8-1.5-1.6-3.3-1.1-4.9c0.3-0.8,0.9-1.5,1.4-2.2
				c0.7-0.9,1.3-2,1.4-3.2c0.1-1.2-0.4-2.5-1.4-3c-0.2,2-2.4,3-3.8,4.4c-1.5,1.6-2.1,3.9-2.1,6.2c0.1,2.3,0.8,4.4,1.6,6.5
				c-3-1.6-5.4-4.3-6.9-7.4l-0.2,0.1c-0.8-2-1.3-4-1-6.1c0.4-2.7,2.2-4.9,3.2-7.4c1.1-2.6,1.3-5.7,0.5-8.5c-0.5-2.1-1.5-3.9-2-6
				c-0.5-2.1-0.3-4.6,1.2-5.9l0.1-0.1c-1-1.7-1.7-3.6-1.5-5.5c0.1-1.2,0.5-2.3,0.9-3.4c0.6-1.7,1.4-3.4,2.5-4.8
				c0.2-0.3,0.5-0.6,0.7-0.8l-0.2-0.2c1-2.8,0.4-5.9-0.1-8.9l2.9-0.5c1.5-1.5,2.6-3.3,3.3-5.3l0.4,0.1c-0.6,1.8-0.7,3.8-0.3,5.7
				c0.6,3.1,2.4,5.8,2.8,8.9c0.3,2-0.1,4-0.6,5.9L73.8,80z"/>
		</g>
		<g>
			<path class="st1" d="M98.8,23.1c0,0-0.1,0-0.1-0.1c-2.3-1.3-5-1.5-7.6-1.3c-2,0.1-4.1,0.4-6,1.1c-2.3,0.8-4.4,2.1-6.5,3.5
				c-2,1.3-4,2.5-5.6,4.2c-4.4,4.6-5.9,11.4-7.1,17.9c-0.9,4.9-1.9,10-1.4,15c0.1,0.6,0.1,1.2,0.2,1.8c0.4,3,1,6.1,0.1,8.9"/>
			<path class="st1" d="M68.5,72.3c-1.3,0.2-2.6,1-3.6,2c-0.3,0.3-0.5,0.5-0.7,0.8c-1.1,1.4-1.9,3.1-2.5,4.8
				c-0.4,1.1-0.8,2.2-0.9,3.4c-0.1,2,0.5,3.8,1.5,5.5c0.8,1.4,1.9,2.7,2.9,3.9"/>
			<path class="st1" d="M62.2,88.9c-1.5,1.4-1.7,3.9-1.2,5.9c0.5,2.1,1.5,4,2,6c0.7,2.8,0.5,5.8-0.5,8.5c-1,2.5-2.8,4.7-3.2,7.4
				c-0.3,2.1,0.2,4.1,1,6.1c0.3,0.7,0.5,1.3,0.8,2"/>
			<path class="st1" d="M98.6,23.1C98.6,23.1,98.7,23.1,98.6,23.1c0.3-0.7,0.9-1,1.5-1.2c3.7-1.5,7.9-1.2,11.7,0
				c3.8,1.3,7.1,3.6,10.4,6.1c1.5,1.1,2.4,1.6,4.4,4.3c1.5,2.1,2.5,4.8,3.3,7.4c1,3.5,1.7,7.1,2,10.8c0.1,0.7,0.1,1.5,0.2,2.3"/>
			<path class="st1" d="M131.8,50.1c0,0.1,0.1,0.3,0.1,0.4c0.8,2.9,1.6,5.8,2.4,8.7c0.6,2.4,1.3,4.9,1,7.3c-0.2,1.9-1,3.6-1.3,5.4
				c-0.8,4.3,0.7,8.6,2.7,12.6c0.5,0.9,1,1.8,1.5,2.7"/>
			<path class="st1" d="M136.2,83.9c0.2,0.2,0.4,0.4,0.6,0.7c1.3,1.6,2.5,3.5,2,5.5c-0.5,2.1-2.6,3.3-3.3,5.3
				c-0.5,1.6-0.1,3.4,0.2,5.1c0.3,1.7,0.4,3.7-0.7,5c-0.6,0.7-1.5,1.1-2.2,1.6c-2.3,1.9-2.4,5.5-1.9,8.5c0.4,3.2,1.2,6.4,2.2,9.5"/>
			<path class="st1" d="M60.4,122.7c1.5,3.2,4,5.8,6.9,7.4c-0.8-2.1-1.5-4.3-1.6-6.5c-0.1-2.3,0.5-4.6,2.1-6.2
				c1.4-1.4,3.6-2.4,3.8-4.4c1,0.5,1.5,1.8,1.4,3c-0.1,1.2-0.7,2.3-1.4,3.2c-0.5,0.7-1.1,1.4-1.4,2.2c-0.5,1.6,0.3,3.4,1.1,4.9
				c0.3-1.3,1.5-2.2,2.6-2.8c1.2-0.6,2.4-1,3.4-1.9c2.2-2.2,1.6-6.1,2.8-9c0.4-0.9,1.3-1.9,2.2-1.6c0.5,0.2,0.8,0.7,1.2,0.9
				c1.4,0.9,3.2-0.6,3.8-2.2c0.4-1.2,0.6-2.6,1-3.8c0.2-0.4,0.3-0.8,0.6-1.2"/>
			<path class="st1" d="M133.5,125.8c-0.3-0.2-0.6-0.3-0.9-0.5c-2.1-1.4-3.6-3.6-4.5-6c-0.8-2-1.2-4.1-1.4-6.2
				c-0.1-0.8-0.2-1.7-0.3-2.5"/>
			<path class="st1" d="M116.3,112.4c1.5,0.7,2.4,2.6,2.4,4.5c0,1.9-0.8,3.6-1.7,5.1c-0.9,1.5-2.1,2.9-3,4.4
				c-0.1,0.2-0.2,0.4-0.1,0.6c0.1,0.1,0.2,0.2,0.3,0.2c1.6,0.5,3.4-0.4,4.6-1.7c1.2-1.3,2.1-3,3.3-4.3c0.9-1.1,2-2,2.9-3.1
				c1.1-1.4,1.7-3.2,1.7-5.1"/>
			<path class="st1" d="M116.3,113.6c-0.5-0.2-0.9-0.6-1.3-1c-0.7-1-1.1-2.4-1.5-3.7c-0.5-1.5-1.2-2.9-2.1-4.1
				c-0.3-0.4-0.6-0.7-0.7-1.2c-0.4-0.9-0.2-1.9,0-2.9c0.4-2.7,0.5-5.4,0.3-8"/>
			<path class="st1" d="M99.2,39.2c-0.6-0.7-1.3-1.4-2-1.8c-1-0.7-2.2-1.1-3.4-1.3c-2.1-0.4-4.2-0.2-6.3,0c-2.4,0.2-4.8,0.5-6.9,1.6
				c-2.6,1.3-4.6,3.6-6.4,5.9c-0.7,0.8-1.4,1.7-1.9,2.7c-1.3,2.9-0.5,6.3-0.7,9.5c-0.1,1.2-0.3,2.3-0.7,3.4c-0.7,2-1.8,3.9-3.3,5.3"
				/>
			<path class="st1" d="M69,87.6c2.3-1.3,3.4-4.2,4.1-6.9c0.1-0.2,0.1-0.4,0.2-0.6C73.7,78,74,76,73.8,74c-0.4-3.1-2.2-5.8-2.8-8.9
				c-0.4-1.9-0.3-3.9,0.3-5.7c0.1-0.4,0.2-0.7,0.4-1.1"/>
			<path class="st1" d="M97.2,37.3c2.8-1,5.8-3.4,8.7-3.7c3-0.3,7,0.5,9.5,2.3c1.8,1.3,3.3,3.5,5.1,4.7c2.6,1.8,5,3.3,6.5,6.1
				c1.3,2.5,0.6,5.5,0.2,8.4c-0.4,3.2-0.3,6.4,0.4,9.5c0.5,2.5,1.3,4.8,2.5,7"/>
			<path class="st1" d="M126.2,91.5c-1-1.8-2.1-3.7-2-5.8c0.1-0.9,0.3-1.7,0.7-2.6c0.2-0.6,0.4-1.3,0.6-1.9c0.5-2.1,0-4.4-0.2-6.6
				c-0.2-3.4,0.5-6.9,2.1-9.9"/>
			<path class="st1" d="M76.7,104.6c-1.3-0.7-2.8-1.7-2.8-3.2c0-0.6,0.3-1.2,0.6-1.8c0.9-1.7,1.7-3.4,2-5.3s0.1-3.8-0.9-5.4"/>
			<path class="st1" d="M76.9,104.6c-0.4-2,0.9-3.8,2.1-5.3c1.2-1.5,2.5-3.4,2-5.4"/>
			<path class="st1" d="M121.7,106c0.5-1,0.3-2.4-0.3-3.4c-0.6-1-1.4-1.8-2.3-2.6c-1.4-1.3-2.9-2.6-4.3-3.9"/>
			<path class="st1" d="M121.8,106.8c0.3-0.4,0.7-0.9,1-1.4c0.3-0.5,0.7-0.9,0.9-1.4c0.5-1.3,0.3-2.8,0-4.2
				c-0.1-0.7-0.3-1.5-0.6-2.1c-0.4-0.6-0.9-1-1.4-1.5c-0.9-0.9-1.5-2.1-1.9-3.4"/>
			<path class="st1" d="M88.3,106.2C88.4,106.2,88.4,106.2,88.3,106.2c1.2-1.3,1.2-3.3,1.1-5c-0.1-3.1-0.2-6.1-0.2-9.2"/>
			<path class="st1" d="M73.8,80c3.1,3.6,6.2,7.3,10.2,9.7c1.6,0.9,3.3,1.6,4.9,2.3"/>
			<path class="st1" d="M111.2,92.7c0.2-0.5,0.7-0.8,1.1-0.9c0.5-0.1,1,0,1.5-0.1c0.8-0.1,1.5-0.6,2.1-1c3.2-2.2,6.1-4.7,8.8-7.6"/>
		</g>
	</g>
	<g>
		<g>
			<path class="st2" d="M70.6,49.4c0.2-1.1,0.3-2.2,0.5-3.3c0.1-0.5-0.1-1-0.6-1.1c-0.4-0.1-1,0.1-1.1,0.6c-0.2,1.1-0.3,2.2-0.5,3.3
				c-0.1,0.5,0.1,1,0.6,1.1C69.9,50.1,70.5,49.9,70.6,49.4L70.6,49.4z"/>
		</g>
	</g>
	<g>
		<g>
			<path class="st2" d="M69.5,50.2c0.8-2.9,2-5.6,3.7-8.1c0.6-1-0.9-1.8-1.5-0.9c-1.8,2.6-3.1,5.5-3.9,8.6
				C67.4,50.9,69.2,51.3,69.5,50.2L69.5,50.2z"/>
		</g>
	</g>
	<g>
		<g>
			<path class="st2" d="M70.8,46.1c1.1-2.3,2.6-4.2,4.6-5.8c0.9-0.7-0.4-2-1.3-1.3c-2,1.7-3.7,3.8-4.8,6.2
				C68.8,46.2,70.3,47.1,70.8,46.1L70.8,46.1z"/>
		</g>
	</g>
	<g>
		<g>
			<path class="st2" d="M72.5,42.5c1.4-2.3,3.1-4.2,5.3-5.7c0.9-0.7,0-2.2-0.9-1.5c-2.4,1.7-4.4,3.8-5.9,6.4
				C70.4,42.5,72,43.4,72.5,42.5L72.5,42.5z"/>
		</g>
	</g>
	<g>
		<g>
			<path class="st2" d="M64.9,120.5c-1-1.2-2-2.3-3-3.5c-0.7-0.9-2,0.4-1.3,1.3c1,1.2,2,2.3,3,3.5C64.4,122.6,65.6,121.4,64.9,120.5
				L64.9,120.5z"/>
		</g>
	</g>
	<g>
		<g>
			<path class="st2" d="M69.5,90.8c-2.7-1.9-5-3.9-4.8-7.5c0.2-2.9,2-3.8,3.7-5.9c0.7-0.9-0.5-2.2-1.3-1.3c-1,1.2-2.5,2.1-3.3,3.5
				c-0.8,1.5-1.1,3.6-0.9,5.2c0.3,3.5,3.1,5.6,5.7,7.5C69.6,93,70.5,91.5,69.5,90.8L69.5,90.8z"/>
		</g>
	</g>
	<g>
		<g>
			<path class="st2" d="M68.4,85.8c2.5-2.7,3.8-6.1,3.8-9.8c0-1.1-1.8-1.2-1.8,0c0,3.2-1.1,6.2-3.3,8.6
				C66.4,85.4,67.6,86.7,68.4,85.8L68.4,85.8z"/>
		</g>
	</g>
	<g>
		<g>
			<path class="st2" d="M67.9,65.4c1.8-3.8,2.3-7.2,2.2-11.4c0-1.1-1.8-1.2-1.8,0c0.1,3.8-0.3,7-2,10.5
				C65.9,65.5,67.4,66.4,67.9,65.4L67.9,65.4z"/>
		</g>
	</g>
	<g>
		<g>
			<path class="st2" d="M65.4,119.8c-0.7-3.8,2.5-7.6,5.5-9.6c1-0.6,0.1-2.2-0.9-1.5c-3.8,2.4-7.2,6.9-6.3,11.6
				C63.9,121.4,65.6,120.9,65.4,119.8L65.4,119.8z"/>
		</g>
	</g>
	<g>
		<g>
			<path class="st2" d="M75.5,119.3c0.4-0.9,1.4-1.2,2-1.8c0.6-0.6,1-1.3,1.3-2.1c0.8-2.2,1.2-4.7,1.2-7c0-1.1-1.8-1.2-1.8,0
				c0,2.2-0.2,5.3-1.4,7.2c-0.9,1.4-2.4,1.7-3.1,3.3C73.3,119.9,75,120.4,75.5,119.3L75.5,119.3z"/>
		</g>
	</g>
	<g>
		<g>
			<path class="st2" d="M82.1,107.8c0.7-0.2,1.5,0.6,2.2,0.8c0.7,0.2,1.4,0.1,2-0.3c1.4-0.8,1.9-2.4,1.7-3.9c-0.1-1.1-1.9-1.1-1.8,0
				c0.2,1.2-0.4,3-1.9,2.2c-0.9-0.4-1.7-1-2.6-0.6C80.6,106.5,81.1,108.2,82.1,107.8L82.1,107.8z"/>
		</g>
	</g>
	<g>
		<g>
			<path class="st2" d="M74.1,105c-2.1-3.2-1.2-6.7-0.8-10.3c0.1-1.1-1.7-1.1-1.8,0c-0.4,4.1-1.3,7.6,1,11.2
				C73.2,106.9,74.7,106,74.1,105L74.1,105z"/>
		</g>
	</g>
	<g>
		<g>
			<path class="st2" d="M113,99.4c-0.5,3.5,2.3,6.1,4.4,8.5c0.7,0.9,2-0.4,1.3-1.3c-1.5-1.8-4.3-4.2-3.9-6.8
				C114.9,98.7,113.1,98.3,113,99.4L113,99.4z"/>
		</g>
	</g>
	<g>
		<g>
			<path class="st2" d="M121.6,120.4c1.9-2.9,4.2-5.8,4.2-9.4c0-1.1-1.8-1.2-1.8,0c0,3.2-2.3,5.9-3.9,8.5
				C119.4,120.4,121,121.3,121.6,120.4L121.6,120.4z"/>
		</g>
	</g>
	<g>
		<g>
			<path class="st2" d="M130.1,115.1c-0.4-2.7-1.5-6.1-0.3-8.6c1-2,2.6-3.9,3.9-5.8c0.6-1-0.9-1.9-1.5-0.9c-1.6,2.3-4.1,5.1-4.7,7.9
				c-0.5,2.5,0.5,5.5,0.9,7.9C128.6,116.7,130.3,116.2,130.1,115.1L130.1,115.1z"/>
		</g>
	</g>
	<g>
		<g>
			<path class="st2" d="M122.2,93c1.1,1.2,2.4,1.9,3.6,3c1.9,1.8,1.4,4.3,0.9,6.6c-0.3,1.1,1.4,1.6,1.7,0.5c0.6-2.2,1.1-4.9-0.1-7
				c-1.1-1.9-3.3-2.7-4.8-4.4C122.7,90.9,121.5,92.1,122.2,93L122.2,93z"/>
		</g>
	</g>
	<g>
		<g>
			<path class="st2" d="M131,89.1c-2.1-3.9-1-9.5-0.9-13.8c0-1.1-1.8-1.1-1.8,0c-0.1,4.7-1.2,10.4,1.1,14.7
				C130,91,131.5,90.1,131,89.1L131,89.1z"/>
		</g>
	</g>
	<g>
		<g>
			<path class="st2" d="M133.7,70.2c-1.9-4.3-2.6-8.9-1.9-13.6c0.2-1.1-1.6-1.6-1.7-0.5c-0.7,5.2-0.1,10.2,2.1,15
				C132.6,72.2,134.1,71.2,133.7,70.2L133.7,70.2z"/>
		</g>
	</g>
	<g>
		<g>
			<path class="st2" d="M97.6,33.9c-1-1.8-2.8-2.8-4.5-3.9c-1.9-1.2-3.9-2-6.2-1.9c-1.1,0-1.2,1.8,0,1.8c3-0.1,7.6,2.2,9.2,4.9
				C96.6,35.8,98.1,34.9,97.6,33.9L97.6,33.9z"/>
		</g>
	</g>
	<g>
		<g>
			<path class="st2" d="M78.5,36.9c2-1.7,4.5-2.6,7.1-3c1.1-0.2,0.7-1.9-0.5-1.7c-2.9,0.5-5.6,1.6-7.9,3.4
				C76.3,36.3,77.6,37.6,78.5,36.9L78.5,36.9z"/>
		</g>
	</g>
	<g>
		<g>
			<path class="st2" d="M83.1,29.3c2.9-1.6,6.1-2,9.3-1.2c1.1,0.3,1.6-1.4,0.5-1.7c-3.6-1-7.3-0.5-10.6,1.3
				C81.2,28.3,82.1,29.9,83.1,29.3L83.1,29.3z"/>
		</g>
	</g>
	<g>
		<g>
			<path class="st2" d="M100.6,32.8c3.1-3,9.1-2.1,12.7-0.7c1.1,0.4,1.5-1.3,0.5-1.7c-4.2-1.7-10.8-2.3-14.4,1.2
				C98.5,32.4,99.7,33.6,100.6,32.8L100.6,32.8z"/>
		</g>
	</g>
	<g>
		<g>
			<path class="st2" d="M117,34.7c0.6,2.1,1.8,3.9,3.7,5.1c2.9,1.7,6.2,1.5,7.5,5.2c0.4,1.1,2.1,0.6,1.7-0.5
				c-0.8-2.2-2.2-3.9-4.4-4.8c-3.1-1.3-5.8-1.8-6.7-5.5C118.4,33.2,116.7,33.6,117,34.7L117,34.7z"/>
		</g>
	</g>
	<g>
		<g>
			<path class="st2" d="M105.6,26.6c3.3-0.7,5.9,2.6,8.6,3.9c1,0.5,1.9-1.1,0.9-1.5c-3.4-1.5-5.9-4.9-10-4.1
				C104,25.2,104.5,26.9,105.6,26.6L105.6,26.6z"/>
		</g>
	</g>
</g>
</svg>
