<svg id="Layer_1" data-name="Layer 1" xmlns="http://www.w3.org/2000/svg" viewBox="0 0 8.44 8.35"><defs><style>.cls-1,.cls-2{fill:#4fb848;}.cls-1{stroke:#fff;stroke-miterlimit:10;stroke-width:0.75px;}.cls-3{fill:#fff;}</style></defs><title>Selected</title><ellipse class="cls-1" cx="4.2" cy="4.17" rx="3.83" ry="3.8"/><path class="cls-2" d="M99.17,301.26a13.28,13.28,0,0,0,1.34,1.1" transform="translate(-96.01 -296)"/><path class="cls-3" d="M98.82,301.62a15.81,15.81,0,0,0,1.44,1.17c.52.38,1-.49.5-.86a13.63,13.63,0,0,1-1.24-1c-.47-.44-1.18.27-.71.71Z" transform="translate(-96.01 -296)"/><path class="cls-2" d="M100.58,302.39a44.79,44.79,0,0,1,3.37-3.91" transform="translate(-96.01 -296)"/><path class="cls-3" d="M101,302.65a46.23,46.23,0,0,1,3.29-3.81c.45-.46-.26-1.17-.71-.71a48.53,48.53,0,0,0-3.44,4c-.39.51.48,1,.86.5Z" transform="translate(-96.01 -296)"/></svg>