<?xml version="1.0" encoding="utf-8"?>
<!-- Generator: Adobe Illustrator 21.0.2, SVG Export Plug-In . SVG Version: 6.00 Build 0)  -->
<svg version="1.1" id="Layer_1" xmlns="http://www.w3.org/2000/svg" xmlns:xlink="http://www.w3.org/1999/xlink" x="0px" y="0px"
	 viewBox="0 0 200 600" style="enable-background:new 0 0 200 600;" xml:space="preserve">
<style type="text/css">
	.st0{fill:#FFE329;}
	.st1{fill:#F9EE53;}
</style>
<g>
	<g>
		<g>
			<g>
				<g>
					<path class="st0" d="M81.1,39.9c-0.1-0.6-0.3-1.2-0.4-1.7c0.1-1.8-2.4-1.9-2.9-0.4c0.3,0.5,0.5,0.9,0.8,1.4
						c-0.8-0.4-1.7-0.7-2.5-1.1c-0.1,0.1-0.2,0.3-0.3,0.4c0.7,0.6,1.5,1.1,2.2,1.7c0.2-0.4,0.4-0.8,0.6-1.2
						c-0.8-0.6-1.6-1.2-2.3-1.8c-0.2,0.1-0.4,0.3-0.5,0.4c0.7,0.6,1.5,1.1,2.2,1.7c0.2-0.5,0.4-1,0.7-1.6c-0.9-0.5-1.7-1-2.6-1.5
						c-0.4,0.5-0.8,0.9-1.2,1.4c0.7,0.7,1.4,1.4,2,2c0.4-0.6,0.9-1.2,1.3-1.8c-0.8-0.5-1.7-1-2.5-1.4c0.3-0.3,0.5-0.5,0.8-0.8
						c0.6,0.5,1.3,1,1.9,1.4c0-0.1,0-0.2,0-0.4c0-1.4-2.1-2.1-2.8-0.8c-0.2,0.3-0.4,0.7-0.5,1c0.9,0.4,1.8,0.8,2.7,1.1
						c2.1-5,12.6-7.8,18-7.8c2,0,3.7-0.3,5.5-0.4c3.2-0.2,5.1,1.5,7.8,2.7c0.3-1,0.5-1.9,0.8-2.9c-0.7-0.4-1.3-0.7-2-1.1
						c-0.3,0.9-0.5,1.8-0.8,2.8c3.4,0.2,8.3-0.3,10.7,2.1c2.5,2.5,3.1,4.3,6.2,6c1.9,1.1,3.4,1.8,4.7,3.7c1.1,1.6,3.2,6.1-2,5.6
						c-0.4,0-0.9-1.1-1.4-1.3c-2-0.8-2.7-2.2-4-3.7c-1.7-1.9-2.7-2-4.9-3c-2.5-1.2-3.8-3.5-6.2-4.7c-2-1-5.5-1.6-7.7-1.3
						c-2.5,0.3-3.9,3.5-6.4,3.4c-0.9,0-1.7,1-1.4,1.9c0.3,1,0.7,1.4,1.7,1.7c0.3-1,0.5-1.9,0.8-2.9c-4.1-0.7-10.3-2.4-14-0.1
						c-3,1.8-4.3,4.8-7.7,6.2c-0.2,0.4-0.4,0.7-0.6,1.1c0.5-0.9,1.1-1.7,1.7-2.4c1.2-1.6,2.6-3.1,4.2-4.5c-0.8-0.4-1.7-0.7-2.5-1.1
						c-0.5,0.9-1,1.8-1.5,2.7c0.7,0.7,1.4,1.4,2.1,2.1c0.4-0.2,0.8-0.4,1.1-0.6c-0.5-0.5-1-1-1.5-1.5c-0.5,0.4-0.9,0.8-1.4,1.2
						c0.7,0.6,1.5,1.1,2.2,1.7c0.4-0.6,0.7-1.1,1.1-1.7c-0.7-0.7-1.4-1.4-2.1-2.1c-1.1,1.2-2.3,2.1-3.7,2.7c0.6,0.2,1.1,0.5,1.7,0.7
						c-0.1,0.8,0.1,0.2,0.6-1.7c0.4-1.3-1.1-2.3-2.2-1.7c-1,0.5-2,1.1-3,1.6c0.7,0.6,1.5,1.1,2.2,1.7c0.4-0.8,0.8-1.7,1.2-2.5
						c-0.9-0.4-1.8-0.8-2.7-1.1c-0.2,0.4-0.3,0.8-0.5,1.2c-0.5,1.4,1.6,2.6,2.5,1.4c2.1-2.6,5.4-7.2,8.9-7.8
						c-0.6-0.2-1.1-0.5-1.7-0.7c0.1,0.2-4.4,3.8-3.9,3.4c0.6,0.8,1.2,1.6,1.8,2.3c2-2,4-3.5,6.6-4.6c-0.7-0.7-1.4-1.4-2-2
						c-1,2-2.2,3.5-3.8,4.9c0.7,0.7,1.4,1.4,2.1,2.1c1.2-1.4,2.4-2.3,4-3.1c-0.7-0.7-1.4-1.4-2-2c-1.3,2.1-2.7,3.4-4.9,4.6
						c0.7,0.7,1.4,1.4,2,2c0.8-1.1,1.7-2.1,2.7-3c0.7-0.5,1.4-1,2.1-1.5c-1.2,1-1.2,1,0,0c1.5-1.1,2.6-1.7,4.3-2.6
						c6.9-3.6-3.1,1.5-2-0.2c0.6-1-0.2-2.1-1.3-2.2c-0.5,0-0.9-0.1-1.4-0.1c0.3,0.9,0.5,1.8,0.8,2.8c1-0.6,2-1,3-1.4
						c1.2-0.4,2.4-0.3,3.4,0.4c1.3,1.1,2.5,0.8,3.6-0.9c-1.6,1.7-1.5,3.1,0.2,4.1c-0.4-0.5-0.7-1-1.1-1.4c-0.4,1.4-0.7,1.5-0.9,0.5
						c0.6,0.2,1.1,0.5,1.7,0.7c0.9-2.6,2.9-4,6-4.2c-0.5-0.4-1-0.7-1.4-1.1c-0.3,0.7-0.6,1.4-0.9,2.1c0.8,0.4,1.7,0.7,2.5,1.1
						c0.2-0.4,0.5-0.9,0.7-1.3c-0.5-0.5-1-1-1.5-1.5c-0.2,0.5-0.4,1-0.6,1.4c0.6,0.1,1.2,0.2,1.8,0.2c-0.2,0.2-0.4,0.3-0.5,0.5
						c0.8,0.2,1.7,0.4,2.5,0.7c0-0.2-0.1-0.4-0.1-0.7c0.6,0.1,1.2,0.2,1.8,0.2c-0.3-0.9-0.6-1.8-0.8-2.7c-0.7,0.4-1.5,0.9-2.2,1.3
						c0.3,0.4,0.6,0.7,0.9,1.1c0.4-0.5,0.7-1,1.1-1.4c-0.7,0.7-1.3,1.5-2,2.2c0.7-0.3,1.5-0.6,2.2-0.9c-4.4-2.4-1.2-2.2-3.4-2.4
						c0.5,0.5,1,1,1.5,1.5c-0.8,1.1,0.2,1.8,3,1.9c0.6,0.2,1.1,0.5,1.7,0.7c5.2,0.1,6.6,1.2,4.2,3.4c0.9,0.1,1.8,0.2,2.7,0.4
						c-0.1-0.7-0.2-1.4-0.2-2.1c0.7,0,1.4,0,2.1,0c-0.8-1.2-0.9-1.1-0.2,0.2c0.8-0.5,1.7-1,2.5-1.4c-0.3-0.3-0.6-0.7-0.9-1
						c-1.3-1.4-3.4,0.7-2.1,2.1c0.3,0.3,0.6,0.7,0.9,1c1,1.1,3,0,2.5-1.4c-0.9-2.2-2.3-6-5.3-4.2c-2.9,1.7-1,5,0.6,6.8
						c0.5,0.6,1.6,0.6,2.1,0c1.5-1.8,1.6-5.9-1.4-6.4c-3.7-0.6-4,5.1-3.4,7.3c0.4,1.3,2,1.3,2.7,0.4c1.5-1.9,4-7.7-1-7.2
						c-2.9,0.3-3.7,4.1-2.2,6.2c0.3,0.4,0.7,0.8,1.3,0.7c9-1.1-0.6-13.3-3.5-5.8c-0.9,2.5,1.4,5.3,4,3.8c2.4-1.4,2.5-5.1-0.4-6
						c-2.7-0.8-6.7,2.5-5.4,5.3c1.5,3.2,4.6-0.1,5.4-1.9c3.9-8.2-10.6-4.1-7.7,1.5c0.3,0.6,1.1,0.8,1.7,0.7c6.9-1.8,1.4-11-4.8-5.9
						c-0.4,0.3-0.5,1-0.4,1.4c1.3,4,7.3,1.5,6-2.1c-1.3-3.6-7.7-1.6-7.5,1.7c0,0.9,0.7,1.4,1.5,1.5c3.7,0.3,6.5-5.5,1.8-6
						c-5.8-0.6-5.7,6.4-0.7,7.7c2,0.5,5,0.1,6.1-1.9c0.7-1.4,0.3-3.6-1.4-4.1c-4.1-1.4-4.9,5.7-1.4,7c0.5,0.2,1.1,0,1.4-0.4
						c1.9-2.3,0.7-6.4-2.7-6.4c-3.8,0-4.3,4.5-1.3,6.1c0.8,0.4,2,0.1,2.2-0.9c0.5-2.1,0.8-4.7-1.2-6.2c-1.3-0.9-4.2-1-5.2,0.4
						c-2.6,3.2,3.6,6.7,6.4,5.7c0.7-0.2,1-0.7,1.1-1.4c0.1-1.8-1-2.8-2.4-3.7c-1-0.6-2.3,0.2-2.2,1.3c0,1.7,0.3,3.6,1.7,4.8
						c0.5,0.4,1.2,0.6,1.8,0.2c5.5-3.7-5.9-8.9-4.2-1.1c0.3,1.1,1.7,1.4,2.5,0.7c2.1-1.9,1.8-5.4-1.5-5.5c-2.6-0.1-4,3.1-2.1,4.9
						c0.5,0.5,1.2,0.6,1.8,0.2c1.4-0.8,2.3-2.3,2.1-4c-0.1-0.8-0.6-1.5-1.5-1.5c-2.5,0.1-3.5,2-3.7,4.3c-0.1,1.2,1.8,2,2.5,1.1
						c1.2-1.4,2.2-3.1,1.7-5c-0.2-0.7-0.8-1-1.4-1.1c-2.8-0.3-6.7,3.5-5.5,6.3c1.3,3.1,4.6,1,5.4-1.3c3.1-8.4-12.6-2.1-8.5,3.7
						c0.4,0.6,1,0.8,1.7,0.7c2.6-0.5,4.8-3,3.6-5.5c-0.2-0.5-0.8-0.8-1.3-0.7c-2.5,0.1-9.4,2.9-6.5,6.3c2.4,2.9,7.8,0.1,7.3-3.4
						c-0.1-0.6-0.4-1.3-1.1-1.4c-7.7-1.2-3.9,9.8,1,2.6c4.7-6.9-8.2-4.9-5.1,1c0.2,0.4,0.8,0.8,1.3,0.7c6.8-0.3,5.8-12.7-1.4-7.4
						c-2,1.5-4,5.6-0.6,6.9c3,1.1,5.4-2.8,5.2-5.3c-0.8-8.9-16.1,2.2-9.4,4.9c2.5,1,5.8-2.2,5.3-4.7c-0.8-4.4-6.4-1.8-8.7-0.6
						c-1.4,0.8-0.6,2.6,0.8,2.8c0.5,0,0.9,0.1,1.4,0.1c-0.4-0.7-0.9-1.5-1.3-2.2c-2.5,4,2.2,6.3,5.6,4.8c2.1-0.9,7.9-6.7,2.9-7.8
						c-3.3-0.7-9.2,5.3-6.1,8.3c2.7,2.7,6.9-1.7,6-4.7c-1.3-4.5-8.4-1.4-9.2,1.9c-1,3.9,4.4,4.1,6.6,2.3c2.8-2.3,1.8-6.1-2-5.6
						c-2.4,0.4-10.5,4.9-7.9,8.3c2.3,2.9,9.3-2,8.4-5.1c-1.7-5.7-10.1,3.3-11.4,5c-1,1.3,0.8,2.7,2,2c2.6-1.4,4.4-3.1,5.9-5.7
						c0.8-1.3-0.8-2.7-2-2c-1.9,0.9-3.3,2-4.6,3.6c-1.3,1.5,0.6,3.4,2.1,2.1c1.9-1.6,3.2-3.3,4.3-5.5c0.7-1.4-0.7-2.6-2-2
						c-2.8,1.3-5.1,2.9-7.2,5.1c-1.1,1.2,0.4,3.4,1.8,2.3c2.2-1.6,6.6-4.3,5-7.5c-0.3-0.6-1.1-0.8-1.7-0.7
						c-4.2,0.7-7.7,5.5-10.2,8.5c0.8,0.5,1.7,1,2.5,1.4c0.2-0.4,0.3-0.8,0.5-1.2c0.6-1.6-1.9-2.6-2.7-1.1c-0.7,1.3-1,1.9-1.5,3.2
						c-0.5,1.3,1.1,2.2,2.2,1.7c1-0.5,2-1.1,3-1.6c-0.7-0.6-1.5-1.1-2.2-1.7c-0.5,1.5-1.1,2.6-0.3,4c0.4,0.6,1,0.8,1.7,0.7
						c2-0.4,3.6-2.2,5-3.5c1.4-1.3-0.7-3.4-2.1-2.1c-1.3,1.2-1.3,1.3-1.9,3c-0.4,1.3,1.1,2.3,2.2,1.7c1.5-0.9,2.9-1.9,2.8-3.8
						c0-0.9-0.7-1.4-1.5-1.5c-1.3-0.1-2.3,0.6-3.2,1.4c-1.5,1.3,0.6,3.3,2.1,2.1c1.7-1.3,2.3-2.7,2.3-4.8c0-1.3-1.6-1.9-2.5-1.1
						c-1.5,1.3-10.8,10-4.7,11.2c2.5,0.5,5.6-1.8,7.3-3.4c1.4-1.3,2.9-3.4,4.9-4c2.8-0.9,7.6,0.4,10.4,0.9c1.9,0.3,2.7-2.3,0.8-2.9
						c0.1,0.1,0.2,0.3,0.4,0.4c-0.5,0.6-1,1.3-1.4,1.9c1.4,0.1,2.1-0.1,3.3-0.9c0.7-0.4,1.2-1.4,1.9-1.7c1.7-0.7,4.8-0.7,6.5-0.1
						c2.1,0.7,2.7,2.6,4.4,3.9c1.6,1.1,3.5,1.4,5.1,2.4c3.1,1.9,5.6,5.5,8.6,7.8c1.9,1.4,4,1.5,5.7-0.2c4.5-4.4-0.5-12.2-4.7-14.7
						c-2.4-1.4-3.9-2.4-5.4-4.8c-0.8-1.2-1.5-2.3-2.8-3c-3.1-1.8-8.1-1.2-11.5-1.4c-1.6-0.1-1.9,2-0.8,2.8c1.2,0.8,1.4,0.9,2.7,1.4
						c1.8,0.7,2.5-2.2,0.8-2.9c-3-1.2-4.7-3.6-8.2-3.2c-1.1,0.6-2.4,0.9-3.6,1c-1-0.2-2-0.3-3.1-0.2c-1.4,0.1-2.7,0.4-4,0.7
						c-6.9,1.7-13.2,2.2-16.1,9.2c-0.6,1.6,1.9,2.6,2.7,1.1c0.2-0.3,0.4-0.7,0.5-1c-0.9-0.3-1.8-0.5-2.8-0.8c0,0.1,0,0.2,0,0.4
						c0,0.9,1,1.7,1.9,1.4c0.1,0,0.1,0,0.2-0.1c0.5-0.1,0.9-0.5,1-1c0-0.1,0-0.1,0-0.2c0.3-1.3-1.5-2.7-2.5-1.4
						c-0.8,0.9-1.1,1.4-1.8,2.4c-0.8,1.2,0.8,2.9,2,2c1.3-0.9,1.5-1.1,2.3-2.5c1-1.7-1.4-3-2.6-1.5c-0.8,1.1-0.8,1-1,2.3
						c-0.2,1.3,1,2.3,2.2,1.7c0.9-0.4,1.1-0.7,1.6-1.5c0.9-1.4-1.1-3-2.3-1.8c-1,1-1.1,1.1-1.3,2.5c-0.2,1.2,1,2.5,2.2,1.7
						c1.4-1,1.6-1.2,1.8-3c0.2-1.3-1.7-1.9-2.5-1.1c-4.3,4.2,2.3,6.9,4.2,1.5c-1-0.1-1.9-0.3-2.9-0.4c-0.1,1.7-0.1,1.8,0.8,3.2
						C79.6,43,82.1,41.5,81.1,39.9L81.1,39.9z"/>
				</g>
			</g>
			<g>
				<g>
					<path class="st0" d="M123.9,44.7c1.9,0,1.9-3,0-3C122,41.8,122,44.7,123.9,44.7L123.9,44.7z"/>
				</g>
			</g>
			<g>
				<g>
					<path class="st0" d="M124.3,42.1c-1.1-1.8-2.4-3.1-4.2-4.4c-1.2-0.9-2.9,0.9-2,2c0.4,0.6,0.9,1.2,1.3,1.8c0.7-0.7,1.4-1.4,2-2
						c-0.1,0-5.4-1.7-4.8-0.8c-0.1,0.6-0.2,1.2-0.2,1.8c0.3-0.2,0.6-0.5,0.9-0.7c0.5-0.4,0.6-1.3,0.2-1.8c-1.9-2.8,0-7.2-4.4-7.5
						c-1.2-0.1-1.8,1.3-1.3,2.2c1.9,3.5,5.4,5.6,7.6,9c0.6-0.7,1.1-1.5,1.7-2.2c-2.4-0.8-4.5-2.4-6.6-0.2c-0.9,1-0.2,2.4,1.1,2.5
						c3.1,0.2,5.5,1.2,7.9,3.1c0.6-0.8,1.2-1.6,1.8-2.3c-1.2-0.9-2.3-1.8-3.3-2.9c-1.2-1.2-3.3,0.4-2.3,1.8c0.8,1.3,1.6,2.5,2.3,3.8
						c0.9-0.5,1.7-1,2.6-1.5c-0.9-1.5-1.7-3-2.4-4.6c-0.9,0.5-1.7,1-2.6,1.5c1.1,1.8,2.1,3.7,3,5.6c0.9-0.5,1.7-1,2.6-1.5
						c-1.1-2.3-1.9-4.6-2.6-7c-0.8,0.5-1.7,1-2.5,1.4c1.7,1.4,3.2,2.9,4.6,4.6c0.7-0.7,1.4-1.4,2.1-2.1c-2.2-2.7-4.2-5-7.3-6.7
						c-1.5-0.8-2.9,1.1-1.8,2.3c2.3,2.5,9.5,7.1,8.7,11c0.8-0.2,1.7-0.4,2.5-0.7c-0.5-0.9-0.9-1.7-1.4-2.6c-0.8,0.5-1.7,1-2.5,1.4
						c0.5,0.8,0.9,1.6,1.4,2.5c0.7-0.6,1.5-1.1,2.2-1.7c0.1,0.1-6.1-6-6.1-5.6c-0.6,0.3-1.2,0.7-1.8,1c3,0.7,7.4,0.5,7.7,4.9
						c0.8-0.4,1.7-0.7,2.5-1.1c-1.8-2.3-3.1-4.6-4.2-7.2c-0.8,0.6-1.6,1.2-2.3,1.8c1.9,1.5,2.1,5.3,2.6,7.6c0.9,3.5,0.2,5.8-1.1,9.2
						c1,0.1,1.9,0.3,2.9,0.4c-0.1-1.7,0.1-3.3,0.4-5c-1,0-1.9,0-2.9,0c0.6,2.8,1.1,5.6,1.3,8.5c0.1,1.9,3,1.9,3,0
						c-0.1-2.7,0.2-5.3,0.8-8c-1,0-1.9,0-2.9,0c0.6,1.6,1,3,1.3,4.7c0.3,1.6,3,1.3,2.9-0.4c-0.1-2.1-0.2-4.2-0.2-6.3
						c-0.9,0.3-1.8,0.5-2.8,0.8c1.4,2.8,4.1,6.2,1.4,8.9c0.8,0.6,1.6,1.2,2.3,1.8c0.8-1.4,1.1-2.5,1.2-4c0.1-1.8-2.4-1.9-2.9-0.4
						c-0.4,1.2-0.9,2.5-1.3,3.7c1,0.1,1.9,0.3,2.9,0.4c0.1-1.2,0.1-2.4,0.2-3.6c0.1-1.5-2.1-2-2.8-0.8c-0.8,1.6-1.4,3-1.8,4.7
						c-0.4,1.9,2.3,2.6,2.9,0.8c0.2-0.5,0.3-1.1,0.5-1.6c0.5-1.7-1.8-2.5-2.7-1.1c-0.5,0.8-1,1.6-1.6,2.4c0.9,0.3,1.8,0.5,2.8,0.8
						c-0.1-1.9-0.5-3.1-1.5-4.7c-0.9,0.5-1.7,1-2.6,1.5c2.2,3-2,5.5-1.2,8.5c0.5,2.1,4.4,3.5,4.3,5.5c1-0.1,1.9-0.3,2.9-0.4
						c-0.8-3.2-0.7-6,0.1-9.2c-1-0.1-1.9-0.3-2.9-0.4c0.2,1.1,0,2.2-0.4,3.2c1,0,1.9,0,2.9,0c0.1-1,0.3-2.1,0.4-3.1
						c-0.9-0.1-1.8-0.2-2.7-0.4c0,0,0.9,3.5,1.3,2.4c0.6-1.5-1.5-2.4-2.5-1.4c-3.1,2.9,1.7,5.6,1.8,8.8c0,0.9,0.9,1.8,1.9,1.4
						c0-0.1-0.1-0.2-0.1-0.3c0.6,0.6,1.5,0.5,2.1,0c2.4-2.2,0.6-4.5-0.5-6.9c-0.8,0.6-1.6,1.2-2.3,1.8c0.4,0.7,0.8,1.4,1.3,2
						c0.7,1.5,3.2,0.5,2.7-1.1c-0.3-0.8-0.5-1.4-0.8-2.2c-0.5-1.2-2.4-0.8-2.7,0.4c-1.1,4.1-5.3,9.5-1.7,13.3
						c1.1,1.2,2.7-0.1,2.5-1.4c-0.2-1.1-0.4-2.1-0.6-3.2c-0.9,0.4-1.8,0.8-2.7,1.1c0.6,1.2,2,2.9,2.2,4.1c0.2,1.5-0.4,2-1.4,3.6
						c0.9,0.3,1.8,0.5,2.8,0.8c0.3-1.1,0.6-2.1,1-3.2c0.4-0.5,0.2-1.4-0.2-1.8c-1-0.9-1.3-1-2.6-1.4c-1-0.3-2.3,0.7-1.8,1.8
						c1.5,3.8-2.3,8.2,2.5,10.1c1.6,0.6,2.6-1.9,1.1-2.7c-1.4-0.8-3.8-2.7-5.5-2.6c-0.7,0-1.2,0.5-1.9,0.8c-1.3-0.1-2.3,0.3-3,1.2
						c-0.3,0.3-0.3,0.4,0.1,0c0.3-1.3,3.8-3.1,4.7-4.6c1.8-3,3.1-6.6,4.5-9.8c-0.9-0.1-1.8-0.2-2.7-0.4c1,2.6-2.3,9.4-3.2,11.9
						c1,0.3,1.9,0.5,2.9,0.8c0.1-1.8,0.9-3.3,2.3-4.5c-0.8-0.4-1.7-0.7-2.5-1.1c0,0.5-0.1,0.9-0.1,1.4c0.5,0.4,1,0.7,1.4,1.1
						c-0.5-0.1-1-0.2-1.5-0.3c0.8,0.4,1.7,0.7,2.5,1.1c-1,0.6-2.1,1.2-3.1,1.7c0.8,0.2,1.7,0.4,2.5,0.7c0.1-0.5,0.1-1,0.2-1.5
						c-0.9-0.4-1.8-0.8-2.7-1.1c-0.5,2.4-3.4,3.4-5.3,4.4c0.7,0.6,1.5,1.1,2.2,1.7c0.6-1.8,1.5-3.5,2.8-4.9
						c-0.8-0.6-1.6-1.2-2.3-1.8c-0.6,0.8-1.2,1.7-1.8,2.5c0.9,0.4,1.8,0.8,2.7,1.1c0.2-0.6,0.4-1.3,0.6-1.9c0.6-1.2-0.7-3-2-2
						c-0.4,0.3-0.8,0.6-1.2,0.8c0.6,0.8,1.2,1.6,1.8,2.3c1.2-1.3,2.4-2.5,3.8-3.6c-0.7-0.3-1.5-0.6-2.2-0.9c0,1.1,0.1,2.2,0.1,3.4
						c-0.3,1.9,2.3,2.7,2.9,0.8c0.4-0.8,0.8-1.6,1.2-2.4c1.2-1.5-0.9-3.6-2.1-2.1c-0.9,1.2-1.5,2.3-2,3.7c1,0.3,1.9,0.5,2.9,0.8
						c0.3-1.8,0.3-3.2-0.1-5c-0.2-0.9-1.4-1.5-2.2-0.9c-1.6,1.2-3.1,2.5-4.4,4c-1.1,1.2,0.4,3.4,1.8,2.3c0.4-0.3,0.8-0.6,1.2-0.8
						c-0.7-0.7-1.4-1.4-2-2c-0.6,1.2-0.6,1.3-0.9,2.6c-0.3,1.7,1.7,2.5,2.7,1.1c0.6-0.8,1.2-1.7,1.8-2.5c1-1.3-1.3-3.1-2.3-1.8
						c-1.6,2-2.7,3.9-3.5,6.2c-0.5,1.3,1.1,2.3,2.2,1.7c3-1.6,5.9-2.5,6.6-6.1c0.3-1.5-1.9-2.8-2.7-1.1c-0.8,1.7-0.8,2-0.5,3.8
						c0.2,1.1,1.8,1.5,2.5,0.7c1.7-2.1,3.6-4.3,0.8-6.2c-0.4-0.3-1.1-0.3-1.5,0c-0.2,0.1-0.4,0.3-0.6,0.4c-0.4,0.2-0.8,0.8-0.7,1.3
						c0,0.2,0.1,0.5,0.1,0.7c0.1,1.1,1.6,2.2,2.5,1.1c1.5-1.9,2.6-4.3,0.3-5.9c-0.4-0.3-1.1-0.2-1.5,0c-1.8,0.9-2.7,2.9-2.2,4.9
						c0.2,0.7,0.8,1,1.4,1.1c2.4,0.3,3.1-2.4,3.1-4.4c0-1.3-1.6-2-2.5-1.1c-1.7,1.7-2.6,3.3-3.1,5.8c-0.3,1.9,2.3,2.6,2.9,0.8
						c1.2-3.5,4.7-9.8,3.2-13.5c-0.4-1-2.1-1.7-2.7-0.4c-1.9,4.2-3.4,8.7-6.8,11.8c-1.1,1.1-3.8,2.6-3.5,4.6
						c0.3,1.7,2.3,2.2,3.7,2.2c1.2,0,2-0.4,3.2-0.7c2.4-0.5,3.3,0,5.5,1.2c0.4-0.9,0.8-1.8,1.1-2.7c0.5,0.2-0.3-7.5-0.4-8
						c-0.6,0.6-1.2,1.2-1.8,1.8c0.4,0.2,0.8,0.4,1.3,0.6c-0.1-0.6-0.2-1.2-0.2-1.8c-1.2,1.6-1.5,2.8-1.4,4.7c0.1,1.5,2,2.1,2.8,0.8
						c3-4.9,1.9-5.4-0.8-10.7c-0.8-1.6-3-0.4-2.7,1.1c0.2,1.1,0.4,2.1,0.6,3.2c0.8-0.5,1.7-1,2.5-1.4c-1.3-1.4,2-8.7,2.5-10.4
						c-0.9,0.1-1.8,0.2-2.7,0.4c0.2,0.5,0.4,1,0.5,1.5c0.9-0.4,1.8-0.8,2.7-1.1c-0.7-1.4-0.7-1.4-1.7-2.6c-1.1-1.4-3,0.4-2.3,1.8
						c0.6,1,1,2.1,1,3.3c0.7,0,1.4,0,2.1,0c-0.1-0.1-0.3-0.3-0.4-0.4c-0.4-0.4-0.9-0.6-1.4-0.4c-0.3,0.1-0.6,0.2-0.9,0.3
						c0.6,0.5,1.3,1,1.9,1.4c0-0.4-1.6-7.6-2.7-6.6c-0.8-0.5-1.7-1-2.5-1.4c-0.9,2.2,0.1,6.3,3.3,5.8c3.9-0.5,1.9-6.3,1.1-8.3
						c-0.4-1.1-2.2-1.6-2.7-0.4c-0.8,2-1,3.3-0.7,5.4c0.2,1.6,2.4,1.2,2.9,0c0.5-1.4,0.6-2.6,0.5-4c-0.1-1.6-2.5-2.1-2.9-0.4
						c-1,3.7-1,7.1-0.1,10.8c0.4,1.7,2.8,1.2,2.9-0.4c0.1-1.4,0-2.2-1-3.4c-1.5-1.9-3.7-1.5-2.6-4.6c1.1-2.9,2.3-4.5,0.1-7.5
						c-1.1-1.5-3.6-0.1-2.6,1.5c0.4,1.1,0.7,2.1,1.1,3.2c0.1,1.5,1.9,2,2.8,0.8c0.5-0.8,1-1.6,1.6-2.4c-0.9-0.4-1.8-0.8-2.7-1.1
						c-0.2,0.5-0.3,1.1-0.5,1.6c1,0.3,1.9,0.5,2.9,0.8c0.2-1.4,0.7-2.8,1.5-4c-0.9-0.3-1.8-0.5-2.8-0.8c-0.1,1.2-0.1,2.4-0.2,3.6
						c-0.1,1.8,2.4,1.9,2.9,0.4c0.4-1.2,0.9-2.5,1.3-3.7c-1-0.1-1.9-0.3-2.9-0.4c-0.3,0.8-0.5,1.7-0.8,2.5c-0.9,1.5,1.1,3,2.3,1.8
						c1.1-1.1,2.9-2.3,3-4c0.1-2.6-2.8-6.4-3.9-8.5c-0.7-1.4-2.8-0.7-2.8,0.8c0,2.1,0,4.2,0.2,6.3c1-0.1,1.9-0.3,2.9-0.4
						c-0.3-1.7-0.7-3.1-1.3-4.7c-0.5-1.3-2.5-1.5-2.9,0c-0.7,2.9-1,5.7-0.9,8.7c1,0,2,0,3,0c-0.2-3.1-0.7-6.2-1.4-9.3
						c-0.3-1.4-2.6-1.5-2.9,0c-0.4,2-0.5,3.8-0.5,5.8c0,1.8,2.4,1.9,2.9,0.4c1.7-4.6,2.2-7,0.8-11.5c-0.9-2.9-0.6-6.2-3.2-8.2
						c-1.4-1.1-3,0.2-2.3,1.8c1.2,2.9,2.8,5.3,4.7,7.8c0.8,1,2.6,0.2,2.5-1.1c-0.5-6.4-4.2-6.5-9.9-7.7c-0.7-0.2-1.7,0.2-1.8,1
						c-0.3,1.8,0.4,2.1,1.6,3.3c1.9,1.8,3.6,4.4,5.9,5.7c1.2,0.7,2.4-0.4,2.2-1.7c-0.3-1.7-0.8-2.7-2.2-3.8c-1.2-1-2.7,0-2.5,1.4
						c0.2,1.8,0.8,2.7,2.1,3.9c0.8,0.7,2.2,0.5,2.5-0.7c1.4-6.3-5.8-9.8-9.5-13.9c-0.6,0.8-1.2,1.6-1.8,2.3c2.8,1.6,4.7,3.8,6.6,6.2
						c1.2,1.5,3.3-0.6,2.1-2.1c-1.4-1.8-2.9-3.2-4.6-4.6c-1.1-0.9-2.9-0.1-2.5,1.4c0.7,2.7,1.7,5.2,2.9,7.7c0.8,1.7,3.3,0.2,2.6-1.5
						c-0.9-2-1.9-3.8-3-5.6c-1-1.7-3.4-0.2-2.6,1.5c0.7,1.6,1.5,3.1,2.4,4.6c1,1.6,3.5,0.2,2.6-1.5c-0.7-1.3-1.5-2.6-2.3-3.8
						c-0.8,0.6-1.6,1.2-2.3,1.8c1.2,1.3,2.5,2.3,3.9,3.4c1.3,1,3.1-1.3,1.8-2.3c-3-2.4-6.1-3.6-10-3.9c0.4,0.8,0.7,1.7,1.1,2.5
						c0.2-0.3,3.2,0.8,3.7,1c1.2,0.4,2.4-1.1,1.7-2.2c-2.1-3.3-5.8-5.6-7.6-9c-0.4,0.7-0.9,1.5-1.3,2.2c-0.7-0.1,1.5,5.7,1.8,6.1
						c0.1-0.6,0.2-1.2,0.2-1.8c-0.3,0.2-0.6,0.5-0.9,0.7c-0.5,0.4-0.6,1.3-0.2,1.8c1.6,2.2,3.5,0.7,5.8,1.9c1.2,0.6,3-0.7,2-2
						c-0.4-0.6-0.9-1.2-1.3-1.8c-0.7,0.7-1.4,1.4-2,2c1.3,0.9,2.3,2,3.1,3.3C122.7,45.2,125.3,43.7,124.3,42.1L124.3,42.1z"/>
				</g>
			</g>
			<g>
				<g>
					<path class="st0" d="M70.6,54c0.2-1,0.4-1.9,0.5-2.9c-0.9-0.3-1.8-0.5-2.8-0.8c-0.1,1.1-0.2,2.2-0.3,3.3c1,0.3,1.9,0.5,2.9,0.8
						c0.3-2.3,0.8-3.9,1.9-6c-0.9-0.4-1.8-0.8-2.7-1.1c-0.3,0.9-0.7,1.9-1,2.8c0.9,0.4,1.8,0.8,2.7,1.1c0.3-0.9,0.6-1.8,1-2.7
						c-0.5,0.4-1,0.7-1.4,1.1c1.2-0.1,1.6-0.3,2.3-1.3c-0.9-0.4-1.8-0.8-2.7-1.1c-0.8,2.3-0.8,4.2,0.1,6.4c0.7,1.8,3.2,1.1,2.9-0.8
						c-0.1-0.8-0.1-1.6-0.2-2.4c-1,0-2,0-3,0c0.1,1.2,0.7,2.4,0.6,3.5c-0.3,2.1-2.9,4.8-4.2,6.3c0.8,0.2,1.7,0.4,2.5,0.7
						c-1.1-3.3-2.2-5.6-1.3-9.1c0.9-3.6,3-5.3,5.5-7.9c1.3-1.4-0.8-3.5-2.1-2.1c-3.6,3.6-5.2,8-4.6,13.1c0.2,1.7,2.3,2,2.9,0.4
						c0.6-1.7,0.5-2.7-0.2-4.3c-0.7-1.7-3-0.4-2.7,1.1c0.6,3.7-0.2,7.4-0.8,11.1c1,0.1,1.9,0.3,2.9,0.4c0-1.2,0-2.5,0.1-3.7
						c0-2-2.8-1.9-3,0c-0.4,3-0.8,6-1.5,8.9c1,0.1,1.9,0.3,2.9,0.4c0-0.9,0.1-1.9,0.1-2.8c0.1-1.7-2.5-2-2.9-0.4
						c-1.2,4.7,1.8,8,2.6,12.5c0.3,1.7,2.9,1.3,2.9-0.4c0-4.5-0.1-9-0.1-13.5c0-1.9-2.8-1.9-3,0c-0.2,1.9,0.1,3.1,1,4.8
						c0.7,1.3,2.8,0.7,2.8-0.8c0-1.7,0-1.6-0.5-3.3c-0.8,0.5-1.7,1-2.5,1.4c1,0.9,2,1.8,2.9,2.8c0.7-0.7,1.4-1.4,2.1-2.1
						c-1.6-1.6-2.9-2.8-2.7-5.4c-1,0-2,0-3,0c0,2.7,1.2,3.5,1.9,5.7c0.8,2.3-1.1,5.3-1.2,8c0,3.3,0.4,6.8,0.7,10
						c-0.3,1.3-0.1,2.4,0.6,3.5c0-0.6,0-1.2,0.1-1.9c1-2.4,0.7-6.1,1.4-8.8c-0.9,0.1-1.8,0.2-2.7,0.4c0.9,2,1.9,4,3.1,5.9
						c0.9,1.4,3.2,0.5,2.7-1.1c-0.6-2.2-1.4-4.2-2.4-6.2c-0.8-1.5-3.2-0.5-2.7,1.1c1,3.6,1.5,7.1,1.4,10.8c0,0.5,0.3,1.1,0.7,1.3
						c3.4,1.6,7,4.2,10.1,0.9c0.6-0.7,0.6-1.9-0.3-2.3C77.9,88,69.1,85,70.1,91c0.3,1.7,2.9,1.2,2.9-0.4c0-1.4-0.1-3.3,0.4-4.6
						c-0.6,0.3-1.2,0.7-1.8,1c1.2,0.3,2.1,1.7,2.9,2.6c0.7-0.7,1.4-1.4,2.1-2.1c-1.3-1.4-2.6-2.8-3.8-4.4c-0.7,0.7-1.4,1.4-2,2
						c1.5,1,3,2,4.5,3c1.4,1,3-1.2,1.8-2.3c-0.8-0.8-1.7-1.6-2.5-2.4c-1.4-1.3-3.4,0.7-2.1,2.1c1.8,1.9,3.7,3.6,5.8,5.1
						c1.5,1.1,3-1.4,1.5-2.6c-1.9-1.4-3.6-2.9-5.2-4.6c-0.7,0.7-1.4,1.4-2.1,2.1c0.8,0.8,1.7,1.6,2.5,2.4c0.6-0.8,1.2-1.6,1.8-2.3
						c-1.5-1-3-2-4.5-3c-1.2-0.7-3,0.8-2,2c1.3,1.7,2.7,3.4,4.2,5c1.4,1.4,3.3-0.6,2.1-2.1c-1.1-1.5-2.3-2.9-4.2-3.4
						c-0.9-0.2-1.5,0.3-1.8,1c-0.7,1.6-0.5,3.6-0.5,5.4c1-0.1,1.9-0.3,2.9-0.4c-0.1-0.9,6.5,1.8,6.3,1.7c-0.1-0.8-0.2-1.6-0.3-2.3
						c-0.5,0.5-4.5,0-5.2-0.7c-0.9-1-0.6-2.8-0.7-4c-0.2-2.3-0.7-4.6-1.4-6.8c-0.9,0.4-1.8,0.8-2.7,1.1c0.9,1.8,1.6,3.6,2.1,5.5
						c0.9-0.4,1.8-0.8,2.7-1.1c-1.1-1.9-2.2-3.9-3.1-5.9c-0.5-1.2-2.4-0.8-2.7,0.4c-0.7,3.1-3.1,10.6-1,13.4
						c1.3,1.7,3.2,1.1,4.1-0.6c2.3-4.3-0.2-10.3,0-14.8c0.1-2.4,2-4.4,2.1-6.6c0.1-2.9-2.9-3.7-2.9-7.1c0-2-2.8-1.9-3,0
						c-0.3,3.2,1.4,5.4,3.5,7.5c1.4,1.3,3.5-0.8,2.1-2.1c-1-0.9-1.9-1.9-2.9-2.8c-1.1-1-2.9,0-2.5,1.4c0.1,0.8,0.2,1.6,0.4,2.5
						c0.9-0.3,1.8-0.5,2.8-0.8c-0.2-1.1-0.4-2.2-0.6-3.3c-1,0-2,0-3,0c0,4.5,0.1,9,0.1,13.5c1-0.1,1.9-0.3,2.9-0.4
						c-0.6-3.6-3.6-7.1-2.6-10.9c-1-0.1-1.9-0.3-2.9-0.4c0,0.9-0.1,1.9-0.1,2.8c-0.1,1.7,2.6,2.1,2.9,0.4c0.7-3.2,1.2-6.5,1.6-9.7
						c-1,0-2,0-3,0c0,1.2,0,2.5-0.1,3.7c0,1.6,2.7,2.1,2.9,0.4c0.6-4.3,1.5-8.4,0.8-12.6c-0.9,0.4-1.8,0.8-2.7,1.1
						c0,0.7,0,1.4-0.1,2c1,0.1,1.9,0.3,2.9,0.4c-0.5-4.3,0.7-7.9,3.8-11c-0.7-0.7-1.4-1.4-2.1-2.1c-2.4,2.6-6.3,5.5-7.2,9
						c-0.9,3.6,1.1,7.5,2.2,10.9c0.3,1,1.7,1.6,2.5,0.7c1.7-2,4-4.3,4.8-6.8c0.7-2-0.1-2.7-0.3-5c-0.2-1.9-3-2-3,0
						c0,1.3,0.1,1.9,0.3,3.2c1-0.3,1.9-0.5,2.9-0.8c-0.8-1.6-0.9-3.2-0.1-4.9c0.6-1.7-1.8-2.5-2.7-1.1c0.1-0.1,0.2-0.1,0.3-0.2
						c-0.7,0.1-1.2,0.4-1.4,1.1c-0.3,0.9-0.6,1.8-1,2.7c-0.6,1.6,2,2.7,2.7,1.1c0.8-1.6,0.9-1.8,1.3-3.5c0.4-1.6-2-2.7-2.7-1.1
						c-1.1,2.2-1.8,4.3-2.2,6.7c-0.3,1.8,2.5,2.7,2.9,0.8c0.4-2,0.4-2,0.4-4.1c0-1.4-2.1-2.1-2.8-0.8c-0.7,1.5-1,2.7-1,4.4
						C67.7,55.9,70.7,55.9,70.6,54L70.6,54z"/>
				</g>
			</g>
			<g>
				<g>
					<path class="st0" d="M74.7,86.2c-2.2-1.7-3.7-3.8-4.6-6.5c-0.3,0.2-0.7,0.4-1,0.6c1.1,1.2,2.2,2.4,3.2,3.7
						c0.4,0.6,1.2-0.2,0.9-0.7c-0.7-1.4-1.5-2.8-2.4-4.1c-0.3,0.2-0.6,0.5-0.9,0.7c0.8,1.1,1.7,2.1,2.5,3.2c0.4,0.5,1.3-0.2,0.9-0.7
						c-0.8-1.5-1.7-3-2.5-4.4c-0.3,0.2-0.6,0.5-0.9,0.7c0.6,0.5,1.2,1.2,1.6,1.9c0.4,0.7,1.4,0.1,1-0.6c-0.6-0.9-1-1.9-1.2-3
						c-0.4,0.2-0.7,0.3-1.1,0.5c0.4,0.5,0.7,1.1,1.1,1.6c0.4,0.6,1.4,0.1,1-0.6c-0.2-0.4-0.5-0.9-0.7-1.3c-0.4-0.7-1.3-0.1-1,0.6
						c0.3,0.6,0.5,1.2,0.8,1.8c0.3-0.2,0.7-0.4,1-0.6c-0.7-1.1-1.2-2.2-1.4-3.5c-0.4,0.2-0.7,0.3-1.1,0.5c0.5,0.9,1,1.8,1.5,2.7
						c0.3,0.6,1.3,0.2,1.1-0.5c-0.3-1.1-0.1-0.8-0.8-1.7c-0.4-0.5-1.3-0.2-1.1,0.5c0.5,2.1,1.4,3.6,2.8,5.3c0.5,0.6,1.3-0.3,0.8-0.8
						c-0.5-0.6-0.9-1.1-1.4-1.7c-0.4-0.5-1.3,0.2-0.9,0.7c0.6,1,1.3,1.8,2,2.7c0.2-0.3,0.5-0.6,0.7-0.9c-0.3-0.3-0.7-0.5-1-0.8
						c-0.5-0.4-1.2,0.3-0.8,0.8c0.7,1,1.5,1.9,2.4,2.8c0.5,0.5,1.3-0.3,0.8-0.8c-0.7-0.8-1.4-1.6-2.1-2.4c-0.3,0.3-0.6,0.6-0.8,0.8
						c0.7,0.7,1.4,1.5,2.1,2.2c0.3-0.3,0.6-0.6,0.8-0.8c-0.5-0.5-0.9-0.9-1.4-1.4c-0.3,0.2-0.6,0.5-0.9,0.7c2.5,2.8,5,5.5,7.9,7.7
						c0.2-0.4,0.3-0.7,0.5-1.1c-0.6-0.3-1.2-0.5-1.9-0.8c-0.6-0.3-1.1,0.8-0.5,1.1c0.7,0.4,1.4,0.7,2.2,1.1c0-0.4,0.1-0.7,0.1-1.1
						c-0.3,0.1-0.6,0.1-1,0.2c-0.6,0.1-0.5,1,0,1.1c0.3,0.1,0.7,0.2,1,0.4c0.1-0.4,0.1-0.8,0.2-1.2c-1.2,0.1-1,0-2,0.7
						c-0.5,0.4-0.2,1.3,0.5,1.1c2.6-0.7,4.9,1.2,7.3,1.6c0.1-0.4,0.1-0.8,0.2-1.2c-2.3-0.3-4-1.1-5.6-2.6c-0.2,0.3-0.4,0.7-0.6,1
						c2,0.8,4,1.6,5.9,2.4c0.7,0.3,1-0.9,0.3-1.1c-2-0.8-4-1.6-5.9-2.4c-0.6-0.2-1,0.6-0.6,1c1.9,1.7,3.9,2.6,6.5,3
						c0.7,0.1,0.8-1.1,0.2-1.2c-3.1-0.5-4.7-2.5-8-1.6c0.2,0.4,0.3,0.7,0.5,1.1c0.5-0.2,0.9-0.4,1.4-0.6c0.7-0.1,0.8-0.9,0.2-1.2
						c-0.3-0.1-0.7-0.2-1-0.4c0,0.4,0,0.8,0,1.1c0.3-0.1,0.6-0.1,1-0.2c0.5-0.1,0.6-0.9,0.1-1.1c-0.7-0.4-1.4-0.7-2.2-1.1
						c-0.2,0.4-0.3,0.7-0.5,1.1c0.6,0.3,1.2,0.5,1.9,0.8c0.7,0.3,0.9-0.7,0.5-1.1c-2.9-2.2-5.3-4.8-7.7-7.5
						c-0.4-0.5-1.3,0.2-0.9,0.7c0.8,1.1,0.5,0.8,1.6,1.7c0.6,0.5,1.4-0.3,0.8-0.8c-0.7-0.7-1.4-1.5-2.1-2.2
						c-0.5-0.6-1.3,0.3-0.8,0.8c0.7,0.8,1.4,1.6,2.1,2.4c0.3-0.3,0.6-0.6,0.8-0.8c-0.8-0.8-1.6-1.6-2.2-2.6
						c-0.3,0.3-0.5,0.5-0.8,0.8c0.3,0.3,0.7,0.5,1,0.8c0.6,0.4,1.1-0.5,0.7-0.9c-0.7-0.7-1.3-1.5-1.8-2.4c-0.3,0.2-0.6,0.5-0.9,0.7
						c0.5,0.6,0.9,1.1,1.4,1.7c0.3-0.3,0.6-0.6,0.8-0.8c-1.2-1.5-2-2.9-2.5-4.7c-0.4,0.2-0.7,0.3-1.1,0.5c0.2,0.5,0.5,1,0.7,1.4
						c0.4-0.2,0.7-0.3,1.1-0.5c-0.5-0.9-1-1.8-1.5-2.7c-0.3-0.6-1.3-0.2-1.1,0.5c0.4,1.4,0.8,2.5,1.5,3.8c0.4,0.7,1.3,0.1,1-0.6
						c-0.3-0.6-0.5-1.2-0.8-1.8c-0.3,0.2-0.7,0.4-1,0.6c0.2,0.4,0.5,0.9,0.7,1.3c0.3-0.2,0.7-0.4,1-0.6c-0.4-0.5-0.7-1.1-1.1-1.6
						c-0.4-0.5-1.3-0.2-1.1,0.5c0.4,1.2,0.8,2.2,1.4,3.3c0.3-0.2,0.7-0.4,1-0.6c-0.5-0.8-1-1.5-1.7-2.2c-0.5-0.5-1.3,0.1-0.9,0.7
						c0.8,1.5,1.7,3,2.5,4.4c0.3-0.2,0.6-0.5,0.9-0.7c-0.8-1.1-1.7-2.1-2.5-3.2c-0.4-0.5-1.3,0.2-0.9,0.7c0.9,1.3,1.7,2.7,2.4,4.1
						c0.3-0.2,0.6-0.5,0.9-0.7c-1-1.3-2.1-2.5-3.2-3.7c-0.4-0.4-1.2,0-1,0.6c0.9,2.9,2.5,5.2,4.9,7C74.5,87.5,75.3,86.6,74.7,86.2
						L74.7,86.2z"/>
				</g>
			</g>
			<g>
				<g>
					<path class="st0" d="M121.2,90.2c-1.9-0.3-3,1-4.8,1.5c-1.8,0.5-3.6,0.7-5.3,1.5c-0.6,0.3-0.2,1.2,0.5,1.1
						c3.1-0.8,5.8-2.3,8.5-3.9c0.7-0.4,0.1-1.4-0.6-1c-0.8,0.4-1.5,0.9-2.2,1.5c-0.4,0.4,0,1.2,0.6,1c1.1-0.3,1.9-1.1,2.9-1.5
						c0.7-0.3,1.2-0.4,2-1c-0.2-0.3-0.5-0.6-0.7-0.9c-1.2,1.2-2.5,2.3-3.9,3.3c0.3,0.3,0.5,0.5,0.8,0.8c0.2-0.2,0.5-0.5,0.7-0.7
						c0.6-0.5,0.1-1.3-0.6-1c-2,0.9-2.7,2.8-5.3,2.4c0.1,0.3,0.2,0.6,0.4,0.9c0.2-0.3,2.3-0.6,2.7-0.8c0.6-0.2,2.2-1.5,0.9-0.9
						c-0.7,0.3-0.1,1.3,0.6,1c0.6-0.3,1.1-0.5,1.5-0.9c0.2-0.2,0.2-0.4,0.2-0.6c-0.3-1-1.1-0.9-1.9-0.5c-1.2,0.6-2.3,1.1-3.7,1.4
						c-0.7,0.2-0.9,0.1-1.3,0.7c-0.2,0.3,0,0.8,0.4,0.9c1,0.2,2.2,0.4,3.2-0.1c1.2-0.6,1.7-1.9,3-2.4c-0.2-0.3-0.4-0.7-0.6-1
						c-0.6,0.4-0.7,0.5-1.1,1.1c-0.4,0.5,0.3,1.1,0.8,0.8c1.5-1,2.9-2.2,4.2-3.5c0.5-0.5-0.2-1.4-0.7-0.9c-0.5,0.3-0.8,0.6-1.3,0.7
						c-0.2,0-0.4,0-0.5,0c-1,0.4-1.7,1.3-2.8,1.6c0.2,0.3,0.4,0.7,0.6,1c0.6-0.6,1.2-1,1.9-1.3c-0.2-0.3-0.4-0.7-0.6-1
						c-2.6,1.6-5.3,3.1-8.2,3.8c0.2,0.4,0.3,0.7,0.5,1.1c1.5-0.7,3.1-0.9,4.7-1.3c1.2-0.3,3.3-1.8,4.5-1.6
						C121.6,91.5,122,90.4,121.2,90.2L121.2,90.2z"/>
				</g>
			</g>
			<g>
				<g>
					<path class="st0" d="M133.9,84.6c-0.1-0.4-0.1-0.8-0.2-1.2c-0.3,0.2-0.7,0.4-1,0.6c0.3,0.3,0.5,0.6,0.6,1
						c0.4-0.1,0.8-0.2,1.1-0.3c-0.1-0.2-0.2-0.4-0.2-0.6c-0.1,0.1-0.1,0.3-0.2,0.4c-0.4-0.1-0.5,0-0.3,0.2c0,0.1,0.1,0.2,0.1,0.3
						c0.1,0.2,0.2,0.4,0.2,0.7c0.2-0.2,0.5-0.5,0.7-0.7c-0.2-0.1-0.2-0.3-0.4-0.1c-0.2,0.2-0.1,0.2-0.1,0.5c0.1-0.2,0.3-0.4,0.4-0.6
						c0.1,0.1,0.1,0.1,0,0.2c-0.1,0.1-0.2,0.1-0.2,0.1c-0.2,0.1-0.4,0.2-0.6,0.3c-0.4,0.3-0.5,0.7-0.4,1.2c0.1,0.8,1.3,0.4,1.1-0.3
						c0,0.1,0.9-0.5,0.9-0.5c0.2-0.2,0.3-0.5,0.3-0.8c0-0.7-0.5-1.2-1.2-1.2c-0.6,0-1.2,0.6-1.1,1.2c0.1,0.7,0.8,1.1,1.4,0.9
						c0.2,0,0.5-0.3,0.4-0.6c0-0.5-0.1-1-0.5-1.3c-0.3-0.3-0.8-0.4-1.2-0.1c-0.4,0.2-0.5,0.7-0.4,1.2c0.2,0.5,0.6,0.8,1.1,1
						c0.4,0.2,0.9-0.3,0.7-0.7c-0.2-0.7-0.4-1.9-1.3-2c-0.3,0-0.6,0.1-0.8,0.4c-0.2,0.4,0,0.8,0.1,1.2c0.2,0.7,1.3,0.4,1.1-0.3
						c-0.1-0.6-0.4-1.1-0.9-1.5c-0.5-0.4-1.1,0-1,0.6c0.1,0.4,0.1,0.8,0.2,1.2C132.8,85.7,134,85.3,133.9,84.6L133.9,84.6z"/>
				</g>
			</g>
		</g>
		<g>
			<g>
				<path class="st0" d="M70.5,56.7c-0.2,0.3-0.4,0.7-0.6,1c0.3,0.2,0.7,0.4,1,0.6c0.9-1.5-0.2-3.2,0.3-4.7c0.2-0.7-0.9-1-1.1-0.3
					c-0.1,0.3-0.2,0.7-0.4,1c0.3-0.1,0.7-0.2,1-0.3c0,0,0,0,0-0.1c0,0.2,0.1,0.5,0.1,0.7c-0.1,0.1-0.2,0.1-0.2,0.2
					c-0.2-0.1-0.4-0.1-0.6-0.2c-0.1-0.2-0.1-0.2-0.1,0c0,0.2,0,0.3-0.1,0.5c-0.1,0.3-0.3,0.6-0.4,0.9c0.4,0.1,0.7,0.2,1.1,0.3
					c0-0.2,0.1-0.5,0.3-0.7c0.4-0.7-0.6-1.2-1-0.6c-0.3,0.4-0.4,0.8-0.4,1.3c-0.1,0.6,0.8,0.7,1.1,0.3c0.5-0.7,1.1-2,0.4-2.8
					c-0.1-0.2-0.4-0.2-0.6-0.2c-0.2,0.1-0.4,0.2-0.5,0.4c-0.1,0.3-0.1,0.5,0.1,0.7c0,0,0,0,0,0.1c0.3,0.3,0.8,0.1,1-0.3
					c0.1-0.3,0.2-0.7,0.4-1c-0.4-0.1-0.8-0.2-1.1-0.3c-0.5,1.4,0.5,3.1-0.2,4.5c-0.4,0.7,0.6,1.3,1,0.6c0.2-0.3,0.4-0.7,0.6-1
					C71.9,56.6,70.9,56.1,70.5,56.7L70.5,56.7z"/>
			</g>
		</g>
		<g>
			<g>
				<path class="st0" d="M100.6,31.4c-1,0.2-1.9,0.2-2.9,0c0.1,0.3,0.2,0.7,0.3,1c0.5-0.5,1.1-0.7,1.8-0.7c-0.2-0.3-0.3-0.6-0.5-0.9
					c-0.1,0.2-0.2,0.3-0.3,0.5c-0.3,0.5,0.3,1.1,0.8,0.8c0.6-0.4,1.2-0.7,1.8-1.1c0.7-0.4,0.1-1.3-0.6-1c-0.9,0.4-1.8,0.6-2.8,0.6
					c0.2,0.3,0.3,0.6,0.5,0.9c0.2-0.3,0.4-0.4,0.7-0.5c-0.2-0.2-0.5-0.5-0.7-0.7c0,0,0-0.1,0.1-0.1c0.2,0.3,0.4,0.6,0.7,0.9
					c0.1,0,0.1-0.1,0.2-0.1c-0.2-0.3-0.4-0.7-0.6-1c-0.2,0.3-0.4,0.4-0.8,0.4c0.2,0.2,0.4,0.4,0.6,0.6c0,0,0,0,0,0
					c0.7-0.2,0.4-1.4-0.3-1.1c-0.5,0.2-0.9,0.6-0.9,1.2c0,0.3,0.3,0.6,0.6,0.6c0.6,0,1.2-0.2,1.6-0.7c0.4-0.5,0-1.1-0.6-1
					c-0.4,0.1-0.7,0.3-0.9,0.6c-0.3,0.4,0.2,1,0.7,0.9c0.4-0.1,0.6-0.3,0.8-0.7c0.2-0.4-0.3-0.9-0.7-0.7c-0.6,0.2-1,0.5-1.4,1
					c-0.3,0.4,0.1,0.9,0.5,0.9c1.2,0,2.3-0.3,3.4-0.7c-0.2-0.3-0.4-0.7-0.6-1c-0.6,0.4-1.2,0.7-1.8,1.1c0.3,0.3,0.5,0.5,0.8,0.8
					c0.1-0.2,0.2-0.3,0.3-0.5c0.3-0.4-0.1-0.9-0.5-0.9c-1-0.1-2,0.3-2.7,1c-0.3,0.3-0.2,0.9,0.3,1c1.2,0.3,2.3,0.3,3.5,0
					C101.7,32.4,101.4,31.2,100.6,31.4L100.6,31.4z"/>
			</g>
		</g>
	</g>
	<g>
		<g>
			<path class="st1" d="M69.7,88.8c-0.5-0.9,0.5-2.2,0.6-3.2c0.1-1-0.2-2-0.3-2.9c-0.4-2.4-0.6-4.8-1.6-7c-0.3-0.7-1.3-0.1-1,0.6
				c1,2.3,1.7,5.6,1.7,8.1c0.1,1.9-1.3,3.3-0.4,5C69.1,90.1,70.1,89.5,69.7,88.8L69.7,88.8z"/>
		</g>
	</g>
	<g>
		<g>
			<path class="st1" d="M68.7,60.5c-1.1-4-2-7.9,0.3-11.7c1.5-2.5,3.4-4.8,5.1-7.1c0.5-0.6-0.6-1.2-1-0.6c-2.1,2.9-5.1,5.9-6.3,9.4
				c-1.2,3.4-0.2,7,0.7,10.3C67.7,61.6,68.9,61.3,68.7,60.5L68.7,60.5z"/>
		</g>
	</g>
	<g>
		<g>
			<path class="st1" d="M82.5,40.9c2.9-4.5,9.9-0.9,14.2-2.1c0.7-0.2,0.4-1.4-0.3-1.1c-4.8,1.4-11.5-2.6-14.9,2.6
				C81,41,82.1,41.6,82.5,40.9L82.5,40.9z"/>
		</g>
	</g>
	<g>
		<g>
			<path class="st1" d="M98.6,30.4c0.2,0.2,0.4,0.3,0.8,0.2c0.2,0,0.4-0.2,0.4-0.4c0.1-0.3,0-0.5-0.2-0.8c-0.3,0.3-0.6,0.6-0.8,0.8
				c0.6,0.5,1.2,0.8,1.9,1c0.7,0.2,1.1-1,0.3-1.1c-0.3-0.1-0.6-0.2-0.9-0.2c-0.1,0.4-0.2,0.8-0.3,1.1c0.3,0,0.5,0.1,0.7,0.3
				c0.2-0.4,0.3-0.7,0.5-1.1c-0.2-0.1-0.4-0.1-0.6-0.2c-0.5-0.1-1,0.4-0.7,0.9c0.4,0.7,0.9,1.2,1.6,1.6c0-0.4,0.1-0.7,0.1-1.1
				c-0.1,0-0.1,0-0.2,0c-0.4-0.3-0.9,0.1-0.9,0.5c0,0.3,0,0.5,0.2,0.8c0.2-0.3,0.4-0.6,0.7-0.9c-0.3-0.1-0.5-0.2-0.8-0.3
				c-0.4-0.2-0.9,0.3-0.7,0.7c0.3,0.8,0.8,1.4,1.7,1.6c-0.1-0.2-0.3-0.4-0.4-0.6c0.1,1.1,1.2,2.3,2.1,1c-0.3,0-0.7,0-1,0
				c0.1,0.2,0.2,0.5,0.3,0.7c0.2,0.5,1,0.3,1.1-0.1c0.1-0.7,0.5-1.6-0.1-2.1c-0.5-0.4-1.1-0.1-1.6,0.3c0.3,0.2,0.7,0.4,1,0.6
				c0.2-0.8,1-2.5,0.1-3.2c-0.6-0.5-1.3,0-1.4,0.7c0.3-0.2,0.6-0.3,0.9-0.5c0,0,0.1,0.1,0.1,0.1c0.1-0.4-0.2-0.7-0.6-0.8
				c-0.1-0.1-0.2-0.3-0.3-0.4c0.1-0.6-0.7-1.1-1.1-0.5c0,0,0.1,0,0.1,0c0.4-0.7-0.6-1.2-1-0.6c-0.9,1.4,1.1,2.5,1.9,1.2
				c-0.4-0.2-0.7-0.3-1.1-0.5c-0.2,1,0.4,1.8,1.4,1.9c-0.2-0.3-0.4-0.5-0.6-0.8c-0.2,0.5,0,0.9,0.4,1.2c0.4,0.3,0.8-0.1,0.9-0.5
				c0-0.1,0-0.1,0-0.2c-0.1,0.2-0.2,0.3-0.3,0.5c-0.1,0-0.2,0.1-0.3,0.1c-0.1,0.2-0.1,0.4-0.2,0.6c-0.1,0.4-0.2,0.7-0.3,1.1
				c-0.2,0.6,0.5,0.9,1,0.6c-0.2,0.1-0.2,0.4-0.2,0.7c0.4,0,0.7-0.1,1.1-0.1c-0.1-0.2-0.2-0.5-0.3-0.7c-0.2-0.5-0.8-0.3-1,0
				c0-0.1,0-0.3,0.1-0.4c0-0.3-0.2-0.5-0.4-0.6c-0.4-0.1-0.7-0.4-0.8-0.8c-0.2,0.2-0.5,0.5-0.7,0.7c0.3,0.1,0.5,0.2,0.8,0.3
				c0.5,0.2,0.9-0.5,0.7-0.9c0-0.1,0-0.1,0-0.2c-0.3,0.2-0.6,0.3-0.9,0.5c0.4,0.2,0.7,0.3,1.1,0.1c0.5-0.2,0.6-0.8,0.1-1.1
				c-0.5-0.3-0.8-0.7-1.2-1.2c-0.2,0.3-0.4,0.6-0.7,0.9c0.2,0.1,0.4,0.1,0.6,0.2c0.7,0.2,1-0.7,0.5-1.1c-0.3-0.2-0.6-0.3-1-0.4
				c-0.7-0.2-1.1,1-0.3,1.1c0.3,0.1,0.6,0.2,0.9,0.2c0.1-0.4,0.2-0.8,0.3-1.1c-0.6-0.1-1-0.3-1.4-0.7c-0.6-0.5-1.4,0.3-0.8,0.8
				c0,0,0.1,0.1,0.1,0.1c-0.1-0.2-0.1-0.4-0.2-0.6c0,0,0,0.1,0,0.1c0.1-0.1,0.3-0.3,0.4-0.4c0,0-0.1,0-0.1,0
				c0.2,0.1,0.4,0.1,0.6,0.2c0,0-0.1-0.1-0.1-0.1C98.9,29,98.1,29.9,98.6,30.4L98.6,30.4z"/>
		</g>
	</g>
	<g>
		<g>
			<path class="st1" d="M130.9,71.5c-1.9-0.8-0.8-4.1-0.3-5.4c0.4-1.1,0.7-2.1,0.6-3.3c-0.2-2-1.6-3.5-2.8-5
				c-0.5-0.6-1.4,0.3-0.8,0.8c1.7,1.9,3,3.7,2.2,6.4c-0.4,1.2-1,2.4-1,3.7c-0.1,1.6,0.3,3.3,1.9,3.9C131.3,73,131.6,71.8,130.9,71.5
				L130.9,71.5z"/>
		</g>
	</g>
	<g>
		<g>
			<path class="st1" d="M112.9,33.9c2.3-2.5,4.8,1.4,6.2,2.9c1,1.1,2.2,1.8,3.7,1.9c0.8,0.1,0.8-1.1,0-1.2
				c-3.4-0.4-6.7-8.9-10.7-4.5C111.6,33.7,112.4,34.5,112.9,33.9L112.9,33.9z"/>
		</g>
	</g>
	<g>
		<g>
			<path class="st1" d="M131.1,90.4c-0.6-0.8-1.2-1.7-1.2-2.8c-0.1-1.1,0.6-1.7,1.1-2.6c0.6-1,0.4-2-0.1-3c-0.3-0.7-1.4-0.4-1.1,0.3
				c0.5,1.2-0.1,2-0.5,3.1c-0.3,0.7-0.5,1.3-0.5,2c0,1.5,0.7,2.7,1.6,3.9C130.7,91.9,131.6,91,131.1,90.4L131.1,90.4z"/>
		</g>
	</g>
</g>
<g>
	<g>
		<g>
			<path d="M68.5,93.4c2-2.1,4.8-1.2,6.9,0.2c0.7,0.4,1.3-0.6,0.6-1c-2.6-1.7-6-2.5-8.3,0C67.1,93.2,68,94,68.5,93.4L68.5,93.4z"/>
		</g>
	</g>
	<g>
		<g>
			<path d="M99.3,27.3c-3.2-1-6.1-1-9.2,0.1c-2.7,0.9-5.1,2-7.9,2.5c-1.5,0.3-2.9,0.6-4.1,1.4c-3.1,1.9-3.7,5.4-5.7,8.2
				c-2.5,3.5-6.7,5.8-8.2,10c-1.2,3.4,0.4,6.3,0.8,9.7c0.5,4.4-2.1,7.9-1,12.3c1.1,4.6,3.6,8,2.2,12.9c-1,3.5-1,5.3,1.3,8.3
				c0.5,0.6,1.5,0,1-0.6c-3.1-4.2-0.5-6.7-0.4-10.7c0.1-2.5-1-4.8-1.9-7.1c-0.5-1.2-1-2.5-1.2-3.8c-0.5-3.4,0.6-3.9,1.3-6.8
				c0.6-2.5-0.1-4.7-0.7-7.2c-1.5-6.7,1.5-9.5,5.7-13.8c2-2.1,2.8-4,4.3-6.5c1.3-2.3,2.9-4.1,5.5-4.9c1.5-0.5,3.2-0.3,4.7-0.8
				c4.7-1.4,8.1-3.7,13.3-2.1C99.7,28.7,100,27.5,99.3,27.3L99.3,27.3z"/>
		</g>
	</g>
	<g>
		<g>
			<path d="M75.3,93.7c2.1,1.5,4.4,0.4,6.3-0.8c0.7-0.4,0.1-1.4-0.6-1c-1.5,0.9-3.4,2-5.1,0.8C75.3,92.3,74.7,93.3,75.3,93.7
				L75.3,93.7z"/>
		</g>
	</g>
	<g>
		<g>
			<path d="M81.8,93c2.3-1.3,3.5,1.9,5.7,1.9c0.8,0,0.8-1.2,0-1.2c-1.4,0-2.1-1.5-3.3-2c-1-0.5-2.1-0.3-3.1,0.2
				C80.5,92.3,81.1,93.4,81.8,93L81.8,93z"/>
		</g>
	</g>
	<g>
		<g>
			<path d="M87.3,94.9c0.9,0.2,1.6,0,2.3-0.6c0.6-0.5-0.2-1.3-0.8-0.8c-0.3,0.3-0.8,0.4-1.2,0.3C86.9,93.6,86.6,94.7,87.3,94.9
				L87.3,94.9z"/>
		</g>
	</g>
	<g>
		<g>
			<path d="M99.1,39.5c-1.2,2.4-3.2,2-5.3,1.6c-1.5-0.3-3-0.4-4.6-0.5c-0.8,0-0.8,1.2,0,1.2c3.6,0.2,8.8,2.6,10.9-1.7
				C100.5,39.5,99.5,38.8,99.1,39.5L99.1,39.5z"/>
		</g>
	</g>
	<g>
		<g>
			<path d="M99.1,28c4.9-2.9,6.9,1,11,1.8c1.2,0.3,2.4,0,3.6,0.1c2.2-0.3,4.3,0.3,6.2,1.7c0.7,1.1,1.3,2.2,1.7,3.3c1,1.7,1.3,2,3,3
				c1.9,1.1,3.9,1.5,5.4,3.3c2.1,2.5,2.5,5.6,2.4,8.8c0,0.8,1.2,0.8,1.2,0c0.1-3.9-0.5-7.9-3.5-10.7c-1.2-1.1-2.5-1.3-3.8-2.1
				c-3.6-2.3-3.3-4.6-6-6.8c-0.9-0.8-1.9-1.3-3.2-1.6c-3.6-0.9-5.8,0.3-9.6-1.5c-3.3-1.5-5.5-2.4-9-0.4C97.9,27.4,98.5,28.4,99.1,28
				L99.1,28z"/>
		</g>
	</g>
	<g>
		<g>
			<path d="M132.2,49.8c-0.3,1.7,0,3.1,0.8,4.7c1.2,2.5,3.9,5.8,1.1,8.2c-0.6,0.5,0.3,1.4,0.8,0.8c4.6-4-2.4-9-1.6-13.4
				C133.5,49.3,132.3,49,132.2,49.8L132.2,49.8z"/>
		</g>
	</g>
	<g>
		<g>
			<path d="M134.8,62.5c-1.7,0.4-2.4,1.8-2.1,3.4c0.2,1.3,1.1,2.3,1.8,3.3c1.5,2.4,1.6,4.4-0.1,6.8c-0.5,0.6,0.6,1.2,1,0.6
				c1.1-1.6,2.1-3.1,1.5-5.1c-0.4-1.5-5.2-7.2-1.9-7.9C135.9,63.5,135.6,62.3,134.8,62.5L134.8,62.5z"/>
		</g>
	</g>
	<g>
		<g>
			<path d="M134.2,75.9c-1.5,0.5-2.2,1.5-2,3.1c0.2,1.5,1.1,2.7,2.3,3.6c0.6,0.4,1.2-0.6,0.6-1c-1.4-1-2.8-3.7-0.6-4.5
				C135.3,76.8,134.9,75.6,134.2,75.9L134.2,75.9z"/>
		</g>
	</g>
	<g>
		<g>
			<path d="M134.1,82.4c0.5,0.7,1.2,1.5,1.1,2.4c-0.1,1.5-0.9,1.4-1.7,2c-0.5,0.4-0.9,0.9-1.1,1.6c-0.6,1.8,0.3,3.4,1.5,4.7
				c0.5,0.6,1.4-0.3,0.8-0.8c-1.7-1.8-1.7-3.3,0.3-5c0.4-0.4,0.8-0.6,1.1-1.1c0.7-1.5-0.1-3.1-1-4.3
				C134.7,81.2,133.7,81.8,134.1,82.4L134.1,82.4z"/>
		</g>
	</g>
	<g>
		<g>
			<path d="M134.1,93c-1.1,0.6-2.3,0.7-3.5,0.2c-0.9-0.3-1.4-1.2-2.3-1.6c-1.3-0.5-2.8,0.5-4,1.1c-0.7,0.3-0.1,1.4,0.6,1
				c1.5-0.7,2.4-1,4.1-0.1c0.6,0.3,1,0.6,1.7,0.8c1.4,0.4,2.7,0.2,4-0.5C135.4,93.7,134.8,92.7,134.1,93L134.1,93z"/>
		</g>
	</g>
	<g>
		<g>
			<path d="M123.9,92.8c-0.8-0.1-1.6,0.2-2.4,0.1c-0.7-0.1-1.3-0.5-2-0.6c-1.2-0.2-2,0.3-2.8,1.2c-0.5,0.6,0.3,1.4,0.8,0.8
				c1.1-1.3,2-0.8,3.4-0.4c1,0.3,1.9-0.1,2.9,0C124.7,94.1,124.7,92.9,123.9,92.8L123.9,92.8z"/>
		</g>
	</g>
	<g>
		<g>
			<path d="M116.6,93.8c-0.6,0.1-1.1,0.5-1.7,0.5c-0.7,0-1.2-0.4-1.9-0.6c-0.8-0.2-1.7-0.1-2.2,0.5c-0.5,0.6,0.3,1.4,0.8,0.8
				c0.7-0.8,2.1,0.3,2.8,0.4c0.9,0.1,1.6-0.3,2.4-0.5C117.7,94.7,117.3,93.6,116.6,93.8L116.6,93.8z"/>
		</g>
	</g>
	<g>
		<g>
			<path d="M127.9,72.2c-3.7-2.5,0.3-5.5,0.6-8.5c0.2-1.7-0.5-3.3-1.8-4.5c-0.6-0.5-1.4,0.3-0.8,0.8c3.3,3.1-0.3,5.5-0.8,8.7
				c-0.3,1.9,0.7,3.4,2.2,4.4C127.9,73.7,128.5,72.6,127.9,72.2L127.9,72.2z"/>
		</g>
	</g>
	<g>
		<g>
			<path d="M126.7,59.5c-1.2-2.6,0.4-5.2-0.7-7.7c-0.8-1.7-2.6-2.6-4-3.6c-0.6-0.5-1.2,0.6-0.6,1c0.8,0.6,1.6,1.1,2.4,1.7
				c1.4,1.2,1.4,2.6,1.2,4.4c-0.2,1.8-0.1,3.1,0.7,4.7C126,60.8,127,60.2,126.7,59.5L126.7,59.5z"/>
		</g>
	</g>
	<g>
		<g>
			<path d="M122,48.3c-1.4-1-1.9-1.9-2.7-3.4c-0.4-0.7-0.7-1.1-1.4-1.5c-0.6-0.3-1.3-0.5-1.9-0.6c-2.1-0.4-3.5-0.4-4.9-2.3
				c-0.5-0.6-1.5,0-1,0.6c1.4,1.9,2.9,2.5,5.1,2.8c1.7,0.2,2.2,0.5,3.2,2.1c0.3,0.5,0.4,0.9,0.7,1.3c0.6,0.8,1.5,1.4,2.3,2
				C122,49.8,122.6,48.7,122,48.3L122,48.3z"/>
		</g>
	</g>
	<g>
		<g>
			<path d="M110.8,40.9c-0.1-1.1-0.7-1.8-1.8-2.2c-1.8-0.7-4.1,0.2-4.9-2.1c-0.3-0.7-1.4-0.4-1.2,0.3c0.4,1,1,1.9,2.1,2.4
				c1.1,0.5,4.4-0.1,4.6,1.6C109.6,41.7,110.8,41.7,110.8,40.9L110.8,40.9z"/>
		</g>
	</g>
	<g>
		<g>
			<path d="M100.1,40.2c0.5-1,1.5-1.7,2.6-1.7c0.8,0,0.8-1.2,0-1.2c-1.6,0.1-3,0.9-3.7,2.3C98.7,40.2,99.7,40.8,100.1,40.2
				L100.1,40.2z"/>
		</g>
	</g>
	<g>
		<g>
			<path d="M104.4,37.7c0,0-0.1-0.1-0.1-0.1c-0.5-0.5-1.4,0.3-0.8,0.8c0,0,0.1,0.1,0.1,0.1C104.1,39.1,105,38.2,104.4,37.7
				L104.4,37.7z"/>
		</g>
	</g>
	<g>
		<g>
			<path d="M127.3,73.7c1.2,0.4,2.7,1.3,2.3,2.7c-0.2,0.7,1,1.1,1.2,0.3c0.5-2.2-1.3-3.6-3.2-4.2C126.9,72.2,126.5,73.4,127.3,73.7
				L127.3,73.7z"/>
		</g>
	</g>
	<g>
		<g>
			<path d="M89.8,40.6c-2.2-0.7-4.4-0.6-6.3,0.8c-0.9,0.7-1.4,1.5-2,2.4c-0.8,1-1.5,1.8-2.7,2.2c-0.9,0.3-1.9,0.3-2.8,0.6
				c-0.7,0.2-0.4,1.4,0.3,1.2c1.9-0.5,4.2-0.4,5.6-2c0.5-0.6,0.6-1.3,1.1-1.9c1.5-2.2,4.2-2.7,6.6-1.9C90.2,42,90.5,40.9,89.8,40.6
				L89.8,40.6z"/>
		</g>
	</g>
	<g>
		<g>
			<path d="M76.6,46.4c-1.9,0.2-4.1,1.2-3.9,3.5c0.1,0.7,0.3,0.9,0.5,1.5c0.7,1.7,0.8,3.3-0.2,5c-0.9,1.4-2,2.4-2.6,4
				c-0.3,0.7,0.9,1,1.2,0.3c0.8-2.1,2.9-3.4,3.3-5.7c0.1-0.7,0.2-1.4,0-2.1c-0.1-0.5-0.3-0.9-0.4-1.3c-0.1-0.1-0.1-0.3-0.2-0.4
				c-0.8-1.3,0-2.5,2.2-3.5C77.4,47.5,77.4,46.3,76.6,46.4L76.6,46.4z"/>
		</g>
	</g>
	<g>
		<g>
			<path d="M70.2,60.2c-0.4,1.2-0.9,2.6-0.5,3.9c0.4,1.3,1.7,1.7,2.4,2.8c1.9,3-1.6,5-2.1,7.6c-0.2,1.4,0.2,2.7,0.9,3.9
				c0.4,0.7,1.4,0.1,1-0.6c-2.7-4.3,3-6.2,1.9-10.1c-0.2-0.6-0.6-1.1-1-1.6c-1.5-1.8-2.3-3.2-1.6-5.6C71.6,59.8,70.4,59.4,70.2,60.2
				L70.2,60.2z"/>
		</g>
	</g>
</g>
</svg>
