<?xml version="1.0" encoding="utf-8"?>
<!-- Generator: Adobe Illustrator 21.0.2, SVG Export Plug-In . SVG Version: 6.00 Build 0)  -->
<svg version="1.1" id="Layer_1" xmlns="http://www.w3.org/2000/svg" xmlns:xlink="http://www.w3.org/1999/xlink" x="0px" y="0px"
	 viewBox="0 0 200 600" style="enable-background:new 0 0 200 600;" xml:space="preserve">
<style type="text/css">
	.st0{fill:#141113;}
	.st1{fill:#292728;}
</style>
<g>
	<g>
		<g>
			<path class="st0" d="M126.6,48.2c0.8,1.4,1.3,2.8,1.5,4.4c0.4-0.1,0.8-0.2,1.2-0.3c-0.5-1.3-1-2.5-1.6-3.8
				c-0.4,0.2-0.7,0.3-1.1,0.5c0.7,1.7,1.2,3.4,1.6,5.1c0.4-0.1,0.8-0.2,1.2-0.3c-0.4-1.2-0.7-2.4-1.1-3.6c-0.4,0.1-0.8,0.2-1.2,0.3
				c0.4,1,0.7,2,0.9,3c0.4-0.1,0.8-0.2,1.2-0.3c-0.9-2.3-1.5-4.9-2.6-7.1c-0.7-1.3-2.1-2-2.6-3.4c-0.3,0.2-0.6,0.5-0.9,0.7
				c1.1,0.7,2.1,1.4,3.1,2.4c0.5,0.5,1.3-0.1,0.9-0.7c-0.6-0.9-1.2-1.8-1.8-2.8c-0.3,0.2-0.6,0.5-0.9,0.7c1.1,1.1,2,2.3,2.9,3.6
				c0.3-0.2,0.6-0.5,0.9-0.7c-0.7-0.8-1.5-1.6-2.2-2.5c-0.5-0.5-1.3,0.1-0.9,0.7c0.6,1,1.2,2,1.8,3c0.3,0.6,1.3,0.2,1.1-0.5
				c-0.2-0.6-0.4-1.2-0.6-1.7c-0.3-0.7-1.4-0.4-1.2,0.3c0.2,0.7,0.4,1.5,0.5,2.2c0.4-0.1,0.8-0.2,1.2-0.3c0-0.2,0.1-0.4,0.1-0.6
				c-0.4,0-0.7-0.1-1.1-0.1c0.1,0.3,0.2,0.7,0.3,1c0.1,0.6,1,0.6,1.2,0c1.1-4.5-1.1-8.1-3.7-11.6c-0.3,0.2-0.6,0.5-0.9,0.7
				c2.5,2,4,4.4,4.6,7.6c0.4-0.2,0.7-0.3,1.1-0.5c-0.3-0.6-0.6-1.2-1-1.8c-0.3-0.7-1.4-0.4-1.2,0.3c0.5,1.2,0.4,1,1.1,2.1
				c0.4,0.6,1.2,0.2,1.1-0.5c-0.6-3.3-2.2-6-4.9-8.1c-0.5-0.4-1.4,0.1-0.9,0.7c2.4,3.2,4.6,6.5,3.6,10.7c0.4,0,0.8,0,1.2,0
				c-0.1-0.3-0.2-0.7-0.3-1c-0.1-0.5-0.8-0.6-1.1-0.1c-0.4,0.6-0.4,0.7-0.2,1.5c0.2,0.8,1.3,0.4,1.2-0.3c-0.1-0.8-0.2-1.5-0.5-2.2
				c-0.4,0.1-0.8,0.2-1.2,0.3c0.2,0.6,0.4,1.2,0.6,1.7c0.4-0.2,0.7-0.3,1.1-0.5c-0.6-1-1.2-2-1.8-3c-0.3,0.2-0.6,0.5-0.9,0.7
				c0.7,0.8,1.5,1.6,2.2,2.5c0.4,0.5,1.3-0.2,0.9-0.7c-0.9-1.4-1.9-2.6-3-3.8c-0.5-0.5-1.3,0.1-0.9,0.7c0.6,0.9,1.2,1.8,1.8,2.8
				c0.3-0.2,0.6-0.5,0.9-0.7c-1-1-2-1.8-3.3-2.6c-0.4-0.2-1.1,0.2-0.9,0.7c0.5,1.4,1.5,2,2.3,3.2c1.4,2.1,2.1,4.9,2.9,7.3
				c0.3,0.7,1.3,0.4,1.2-0.3c-0.2-1.1-0.5-2-0.9-3c-0.3-0.7-1.4-0.4-1.2,0.3c0.4,1.2,0.7,2.4,1.1,3.6c0.2,0.7,1.3,0.4,1.2-0.3
				c-0.4-1.9-1-3.7-1.8-5.4c-0.3-0.6-1.4-0.2-1.1,0.5c0.5,1.3,1,2.5,1.6,3.8c0.3,0.7,1.3,0.4,1.2-0.3c-0.3-1.8-0.7-3.1-1.7-4.7
				C127.2,47,126.2,47.6,126.6,48.2L126.6,48.2z"/>
		</g>
	</g>
	<g>
		<g>
			<g>
				<path class="st0" d="M74.5,45.6c-0.6,2.1-1.3,4.2-1.9,6.4c0.4,0,0.8,0,1.2,0c-0.4-2.2-2,2.9-1.9,2.4c-0.4,1.7,0.1,3.9,0.4,5.6
					c0.4-0.1,0.8-0.2,1.2-0.3c-0.7-3.6-0.4-7,1-10.4c-0.4-0.1-0.8-0.1-1.2-0.2c0.1,1.3-0.2,2.6-0.8,3.7c-0.2,0.6,0.6,1,1,0.6
					c-0.2,0-0.5,0-0.7,0c-0.2,0.7,0.7,1.1,1.1,0.5c0.9-1.5,0.7-1,1.2-2.6c-0.4-0.1-0.8-0.1-1.2-0.2c0,0.3,0,0.6,0,0.9
					c0,0.6,0.8,0.9,1.1,0.3c0.8-1.6,1.4-3,1.9-4.7c0.2-0.8-0.9-1-1.2-0.3c-0.4,1-0.8,2.1-1.1,3.1c0.4,0.1,0.8,0.2,1.2,0.3
					c0.4-2.1,0.6-4.1,0.7-6.2c0-0.7-1-0.8-1.2-0.2c-0.4,1.9-1,3.8-1.7,5.6c0.4,0.1,0.8,0.1,1.2,0.2c-0.3-2,0-3.9,1.1-5.7
					c-0.4-0.1-0.7-0.2-1.1-0.3c0.1,1.9-0.3,3.7-1.2,5.4c0.4,0,0.7,0.1,1.1,0.1c-0.1-0.3-0.1-0.5-0.2-0.8c-0.1-0.6-1-0.6-1.2,0
					c-0.2,0.5-0.5,1-0.7,1.5c0.4,0.1,0.7,0.2,1.1,0.3c0-1.5-0.8-7.7,2.1-7.6c-0.1-0.3-0.3-0.7-0.4-1c-1.4,1.2-2,2.2-2.6,3.9
					c-0.2,0.5,0.6,1.1,1,0.6c0.9-1.1,1.6-2.2,2.2-3.4c-0.4-0.1-0.7-0.2-1.1-0.3c-0.1,0.7-0.1,1.3-0.2,2c0.4-0.1,0.7-0.2,1.1-0.3
					c0-0.1,0-0.2,0-0.2c0.3,0.2,0.7,0.4,1,0.6c0.8-1,1.6-2,2.4-3.1c-0.3-0.3-0.5-0.5-0.8-0.8c-0.9,1.9-2,3.6-3.2,5.3
					c-0.4,0.5,0.3,1.1,0.8,0.8c1.2-0.7,2.2-1.4,3.3-2.3c0.5-0.4-0.2-1.4-0.7-0.9c-0.4,0.3-0.8,0.6-1.2,0.9c-0.6,0.5-0.1,1.4,0.6,1
					c0.7-0.3,1.3-0.6,2-0.9c-0.2-0.3-0.4-0.7-0.6-1c-0.7,0.5-1.4,1.1-2.2,1.6c-0.7,0.4-0.1,1.3,0.6,1c3-1.3,5.1-3,7.1-5.6
					c-0.3-0.2-0.7-0.4-1-0.6c-1.2,2.4-3.2,3.6-5.4,4.8c0.2,0.3,0.4,0.7,0.6,1c1.9-1.4,3.8-2.8,5.7-4.1c-0.2-0.3-0.5-0.6-0.7-0.9
					c-0.3,0.3-0.6,0.5-0.9,0.8c0.3,0.3,0.6,0.6,0.8,0.8c0.9-0.9,1.8-1.9,2.6-2.8c-0.3-0.2-0.6-0.5-0.9-0.7c-2.5,3.3-5.5,5.5-9.3,6.9
					c0.2,0.4,0.3,0.7,0.5,1.1c3.6-2.1,7-4.3,10.3-6.9c0.5-0.4-0.2-1.3-0.7-0.9c-1.6,1-3.2,2-4.9,2.7c-4.7,2-1-2.1,0.6-3.8
					c-0.3-0.1-0.7-0.3-1-0.4c-0.4,1.4-0.7,2.7-1.1,4.1c0.4,0.2,0.7,0.3,1.1,0.5c0.6-1.1,1.2-2.2,1.9-3.3c-0.3-0.2-0.7-0.4-1-0.6
					c-0.2,1.5-0.7,2.8-1.5,4c0.4,0.2,0.7,0.3,1.1,0.5c0.5-1.1,1-2.2,1.6-3.3c-0.3-0.2-0.7-0.4-1-0.6c0.2,2-0.2,2.7-1.4,2.1
					c-0.4-0.1-0.8-0.1-1.2-0.2c-1.1-0.3-2.2-0.6-3.3-0.8c-0.4-0.1-0.8-0.1-1.2-0.2c0,0.4,2.2-3.1,2.2-3.1c-0.3-0.2-0.7-0.4-1-0.6
					c-0.5,1-0.9,2-1.4,3c-0.3,0.7,0.7,1.3,1,0.6c1-1.8,2.5-3.4,4.3-4.4c0.6-0.3,0.2-1.3-0.5-1.1c-0.5,0.2-1,0.3-1.5,0.5
					c-0.7,0.3-0.4,1.3,0.3,1.2c0.5-0.1,1.1-0.3,1.6-0.4c-0.1-0.4-0.2-0.8-0.3-1.2c-1.9,0.7-3,1.6-4,3.4c-0.3,0.6,0.5,1.3,0.9,0.7
					c2.4-2.9-0.1,2-0.5,2.7c0.4,0.2,0.7,0.3,1.1,0.5c0.4-1.6,1.2-3,2.4-4.2c-0.3-0.1-0.7-0.3-1-0.4c-0.8,2.1-0.5,2.1,0.8,0.1
					c-0.3-0.1-0.7-0.3-1-0.4c0.4-0.1,0.8-0.1,1.2-0.2c-0.3-0.2-0.6-0.5-0.9-0.7c-0.3,2.2-1.1,3.8-2.7,5.4c0.3,0.2,0.7,0.4,1,0.6
					c0.1-1.5,0.8-2.8,2-3.9c-0.3-0.2-0.6-0.5-0.9-0.7c-0.7,0.7-1.4,1.5-2.1,2.2c0.3,0.2,0.6,0.5,0.9,0.7c-0.6,0-1.1,0.1-1.7,0.1
					c0.3,0.2,0.6,0.5,0.9,0.7c1.7-1.4,3.4-2.9,5.1-4.3c0.3-0.2,0.6-0.5,0.9-0.7c-0.3-0.6-0.6-1.1-0.8-1.7c-0.4,0-0.8,0-1.2,0
					c0.2,1.7-0.1,3.3-0.7,4.9c0.4,0,0.8,0,1.2,0c0.4,0.6,0.7,1.3,1.1,1.9c0.3-0.1,0.7-0.3,1-0.4c0.8-2.3,1.6-4.6,2.4-6.9
					c-0.3-0.1-0.7-0.3-1-0.4c-0.3,0.3-0.7,0.5-1,0.8c-0.3-0.2-0.7-0.4-1-0.6c-0.4,0.9-0.7,1.8-1.1,2.7c0.4,0,0.7,0.1,1.1,0.1
					c0-0.2-0.1-0.4-0.1-0.6c-0.1-0.8-1.3-0.4-1.2,0.3c0,0.2,0.1,0.4,0.1,0.6c0.1,0.6,0.8,0.5,1.1,0.1c1.2-1.7,0.9-0.9,1.2-2.9
					c0.1-0.6-0.5-1-1-0.6c-0.8,0.7-1.5,1.4-1.8,2.5c-0.1,0.2,0,0.4,0.2,0.6c1.9,2.1,3.6-0.4,3.3-2.6c0-0.3-0.2-0.5-0.4-0.6
					c-1.9-0.5-3.4,2.7-1.9,4c2.3,2,3.7-2.2,3.8-3.7c0-0.6-0.7-0.7-1-0.4c-1.2,1-3.3,3.9-0.6,4.9c2.6,1,3.7-2.7,3.7-4.4
					c0-0.4-0.5-0.8-0.9-0.5c-2.1,1.4-3.3,6,0.6,5.6c2.5-0.3,2.7-4.2,0-4.2c-1.8,0-2.6,2.9-0.7,3.5c1.7,0.5,2.7-3.5,0.7-4.1
					s-3.4,3.1-2.3,4.5c1.7,2.1,5-0.4,3.5-2.6c-1.3-1.9-4.3-0.6-3.9,1.6c0.6,3.1,4.5,1.5,3.6-1.4c-0.1-0.3-0.4-0.5-0.7-0.4
					c-3.9,0.8-2.7,5.5-0.2,3.5c3.3-2.6-2.1-6.7-2.9-3.4c-0.6,2.9,5,2.4,3.8-0.1c-1.3-2.7-6.5,2.5-3.1,4.3c0.2,0.1,0.5,0.1,0.7-0.1
					c1.2-1.2,0.3-3.9-1.7-3.5c-2.1,0.5-1.7,3.9,0.4,4.2c1.7,0.2,2.8-2,1.6-3.2c-2.5-2.4-3.9,2.3-3.2,4c0.1,0.2,0.3,0.3,0.5,0.3
					c2.5-0.1,2.4-2.5,2-4.5c-0.1-0.4-0.6-0.5-0.9-0.4c-1.8,1-2.3,2.9-1,4.5c0.2,0.3,0.7,0.4,0.9,0.1c1.2-1.3,2.9-5.1-0.1-5.4
					c-1.9-0.2-3,3-2.3,4.4c2.2,4.2,6-5.2,1.6-5.4c-2.1-0.1-3.5,4-2.5,5.4c1,1.5,2.9,0.7,3.4-0.9c0.4-1.4-1-4.5-2.7-4
					c-2.8,0.8-1.1,5.1,0.1,6.3c0.4,0.4,1,0.1,1-0.4c0.2-1.8,0.2-5.2-2.4-5.6c-1.5-0.2-2.8,1-2.3,2.5c0.9,3.2,6.7,0.1,2.9-2.9
					c-0.3-0.2-0.7-0.2-0.9,0.1c-1,1.6-1.1,2.4-0.7,4.2c0.1,0.6,1,0.5,1.2,0c0.6-1.8,0.8-3.3,0.8-5.2c0-0.8-1.1-0.8-1.2,0
					c-0.1,1.4,0.2,2,1.4,2.7c0.5,0.3,1-0.2,0.9-0.7c-1-5-7.7-0.7-6.3,3.6c0.2,0.5,0.6,0.6,1,0.3c1.2-1,1.1-0.8,1.2-2.4
					c0-0.5-0.5-0.7-0.9-0.5c-1.6,0.9-2.1,1.5-2.4,3.4c-0.1,0.5,0.4,0.9,0.9,0.7c1.7-0.9,2.5-1.8,3.1-3.6c0.1-0.4-0.3-0.9-0.7-0.7
					c-1.6,0.6-2.2,1.2-2.5,2.9c-0.1,0.5,0.4,1,0.9,0.7c1.2-0.7,1.8-1.4,2.5-2.6c0.3-0.6-0.5-1.2-0.9-0.7c-1.3,1.4-1.9,2.6-2.3,4.5
					c-0.1,0.6,0.6,1,1,0.6c1.7-1.8,2.6-3.5,3-5.9c0.1-0.5-0.4-1-0.9-0.7c-1.6,1-2.1,2.2-1.7,4.1c0.1,0.5,0.7,0.6,1,0.3
					c1-1,1.3-1.7,1.4-3.1c0-0.5-0.7-0.8-1-0.4c-1,0.9-1.6,1.7-1.8,3c0,0.2,0.1,0.4,0.3,0.5c0.2,0.2,0.5,0.3,0.7,0.5
					c0.2,0.1,0.4,0.1,0.6,0c1.5-0.9,1.5-1.7,0.7-3.3c-0.2-0.4-0.7-0.4-0.9-0.1c-0.9,0.8-3.9,3.7-1.7,4.8c2.2,1.2,3.2-3.6,3.3-4.8
					c0.1-0.5-0.7-0.8-1-0.4c-1.2,1.5-2.1,2.9-2.7,4.7c-0.2,0.7,0.7,1,1.1,0.5c0.6-1,3.7-4.5,2.6-5.9c-1.3-1.6-3.2,1-3.9,1.8
					c0.3,0.2,0.6,0.5,0.9,0.7c1.1-0.9,2.2-1.9,3.3-2.8c0.7-0.3,0.4-1.3-0.3-1.2c-0.5,0.1-1.1,0.3-1.6,0.4c0.1,0.4,0.2,0.8,0.3,1.2
					c0.5-0.2,1-0.3,1.5-0.5c-0.2-0.4-0.3-0.7-0.5-1.1c-2.2,1.2-3.5,2.6-4.7,4.8c0.3,0.2,0.7,0.4,1,0.6c0.5-1,0.9-2,1.4-3
					c0.3-0.7-0.7-1.3-1-0.6c-1,1.9-3.1,4.4-1.8,6.4c0.2,0.4,0.8,0.4,1,0c0.9-1.5,0.8-1,0.8-2.8c0-0.7-1-0.8-1.2-0.2
					c-1.5,5.1,5.4,5.5,5.7,1.2c0-0.7-1-0.8-1.2-0.2c-0.6,1.7-0.6,1.2,0,2.9c0.2,0.4,0.6,0.6,1,0.3c1.5-1.3,2.3-2.6,2.7-4.6
					c0.1-0.5-0.6-1.1-1-0.6c-1.1,1.2-1.6,2.1-1.9,3.8c-0.1,0.6,0.7,1.1,1.1,0.5c0.9-1.4,1.3-2.6,1.7-4.3c0.1-0.5-0.6-1.1-1-0.6
					c-1.1,1.2-1.7,2.3-2.2,3.9c-0.2,0.6,0.8,1.1,1.1,0.5c0.9-1.6,1.2-2.9,1.3-4.7c0-0.5-0.7-0.8-1-0.4c-1.9,2-3,4-3.6,6.6
					c-0.1,0.4,0.3,0.9,0.7,0.7c3-1.3,5.9-2.7,8.7-4.4c-0.2-0.3-0.5-0.6-0.7-0.9c-3.2,2.5-6.5,4.7-10,6.7c-0.6,0.3-0.2,1.3,0.5,1.1
					c4.2-1.5,7.4-3.9,10.1-7.4c0.4-0.5-0.5-1.2-0.9-0.7c-0.9,0.9-1.8,1.9-2.6,2.8c-0.5,0.6,0.3,1.4,0.8,0.8c0.3-0.3,0.6-0.5,0.9-0.8
					c0.5-0.5-0.2-1.4-0.7-0.9c-1.9,1.4-3.8,2.8-5.7,4.1c-0.6,0.4-0.1,1.4,0.6,1c2.5-1.3,4.6-2.6,5.9-5.2c0.4-0.7-0.6-1.2-1-0.6
					c-1.8,2.4-3.9,4-6.7,5.2c0.2,0.3,0.4,0.7,0.6,1c1.5-0.9,1.1-0.6,2.4-1.8c0.4-0.4,0-1.2-0.6-1c-1.3,0.5-1.1,0.4-2.3,1.1
					c0.2,0.3,0.4,0.7,0.6,1c0.4-0.3,0.8-0.6,1.2-0.9c-0.2-0.3-0.5-0.6-0.7-0.9c-0.9,0.9-1.9,1.6-3,2.1c0.3,0.3,0.5,0.5,0.8,0.8
					c1.2-1.7,2.3-3.4,3.2-5.3c0.2-0.5-0.3-1.2-0.8-0.8c-1.6,1.1-2.2,2-3,3.8c-0.3,0.6,0.6,0.9,1,0.6c3.3-2.6-3.8-4.4-1.8,0
					c0.3,0.6,1.1,0.2,1.1-0.3c0.1-0.7,0.1-1.3,0.2-2c0.1-0.6-0.9-0.8-1.1-0.3c-0.5,1.2-1.2,2.2-2,3.2c0.3,0.2,0.7,0.4,1,0.6
					c0.8-1.1,1.5-2.3,2.3-3.4c0.4-0.4,0.1-1-0.4-1c-4.5-0.2-3.3,5.9-3.3,8.8c0,0.6,0.8,0.8,1.1,0.3c0.7-1,0.6-0.6,0.8-1.8
					c-0.4,0-0.8,0-1.2,0c0.1,0.3,0.1,0.5,0.2,0.8c0.1,0.5,0.9,0.6,1.1,0.1c0.9-2,1.3-3.8,1.4-6c0-0.6-0.9-0.8-1.1-0.3
					c-1.1,2.2-1.4,3.8-1.2,6.3c0.1,0.7,0.9,0.8,1.2,0.2c0.7-1.9,1.3-3.7,1.7-5.6c-0.4-0.1-0.8-0.1-1.2-0.2c0,2-0.2,4-0.6,5.9
					c-0.1,0.8,0.9,1,1.2,0.3c0.4-1,0.8-2.1,1.1-3.1c-0.4-0.1-0.8-0.2-1.2-0.3c-0.4,1.6-1,3-1.8,4.4c0.4,0.1,0.7,0.2,1.1,0.3
					c0-0.3,0-0.6,0-0.9c0-0.7-1-0.8-1.2-0.2c-0.4,0.8-0.7,1.6-1.1,2.3c0.4,0.2,0.7,0.3,1.1,0.5c0-0.2,0.1-0.4,0.1-0.6
					c0.1-0.2,0-0.6-0.3-0.7c-0.1,0-0.2-0.1-0.3-0.1c-0.2-0.1-0.5-0.1-0.7,0.1c-0.1,0.1-0.1,0.1-0.2,0.2c0.3,0.2,0.7,0.4,1,0.6
					c0.6-1.4,0.8-2.5,0.9-4.1c0-0.7-0.9-0.7-1.2-0.2c-1.5,3.7-1.8,7.2-1,11c0.2,0.8,1.3,0.4,1.2-0.3c-0.7-2.4-0.5-4.7,0.4-7
					c0.3-0.3,0.6-0.6,0.8-1c0-0.3,0.3-0.7,0.2-1c-0.1-0.9-0.5-1.2-1.2-1.5c-0.2-0.1-0.6,0.1-0.7,0.3c-0.8,1.4-0.7,1.2-0.4,2.9
					c0.1,0.6,1,0.5,1.2,0c0.6-2.1,1.3-4.2,1.9-6.4C75.9,45.2,74.7,44.8,74.5,45.6L74.5,45.6z"/>
			</g>
		</g>
		<g>
			<g>
				<path class="st0" d="M73.8,47C73.7,47,73.7,47,73.8,47c-0.3-0.2-0.5-0.4-0.8-0.6c0.1,0.4,0.1,0.8,0,1.2c0.4-0.1,0.8-0.1,1.2-0.2
					c0-0.3,0.1-0.6,0.1-0.9c-0.4-0.1-0.8-0.1-1.2-0.2c0.1,0.5,0.1,0.9,0.1,1.4c0,0.7,0.9,0.8,1.2,0.2c0.9-2.3,2-4.5,3.3-6.6
					c-0.4-0.2-0.7-0.3-1.1-0.5c-0.1,0.9-0.4,1.6-0.9,2.4c0.4,0.2,0.7,0.3,1.1,0.5c0.3-1.1,0.6-2.2,1.3-3c1.1-1.3-0.3,1.6-0.5,2
					c0.4,0.1,0.8,0.2,1.2,0.3c0.4-1.2,1.2-2,2.5-2.4c-0.2-0.2-0.5-0.5-0.7-0.7c-0.4,1.3-1.2,1.8-2.4,1.8c0.3-0.3,0.6-0.6,1-0.8
					c0.4-0.3,2.3-1.6,1.3-0.2c-0.4,0.6,0.5,1.2,0.9,0.7c0.5-0.5,1.1-0.9,1.7-1.2c-0.2-0.3-0.5-0.6-0.7-0.9c-0.6,0.9-1.1,1.7-1.7,2.6
					c-0.4,0.6,0.5,1.1,0.9,0.7c0.7-0.6,1.5-1.3,2.2-1.9c-0.3-0.3-0.6-0.6-0.8-0.8c-0.4,0.5-0.8,1-1.2,1.6c-0.5,0.6,0.3,1.4,0.8,0.8
					c1-1.1,1.9-2.1,2.9-3.2c0.5-0.6-0.3-1.4-0.8-0.8c-1,1-2,2.1-2.9,3.2c0.3,0.3,0.6,0.6,0.8,0.8c0.4-0.5,0.8-1,1.2-1.6
					c0.5-0.6-0.2-1.4-0.8-0.8c-0.7,0.6-1.5,1.3-2.2,1.9c0.3,0.2,0.6,0.5,0.9,0.7c0.6-0.8,1.2-1.7,1.7-2.6c0.3-0.4-0.2-1.1-0.7-0.9
					c-0.9,0.4-1.5,0.9-2.3,1.5c0.3,0.2,0.6,0.5,0.9,0.7c0.4-0.6,0.8-1.1,1-1.8c0.1-0.3-0.1-0.5-0.3-0.7c-1.6-1.2-5,1.6-5.7,3
					c-0.1,0.2-0.1,0.4,0,0.6c1.5,2.1,4.4-0.6,5.1-2.2c0.2-0.4-0.3-0.9-0.7-0.7C79.1,40,78,41,77.4,42.6c-0.3,0.7,0.9,1,1.2,0.3
					c0.3-0.7,1.5-3.9-0.2-4.2c-1.7-0.2-2.7,3.5-3,4.5c-0.2,0.7,0.7,1.1,1.1,0.5c0.5-0.9,0.8-1.7,1-2.7c0.1-0.6-0.7-1.1-1.1-0.5
					c-1.3,2.2-2.5,4.5-3.4,6.8c0.4,0.1,0.8,0.1,1.2,0.2c0-0.5,0-0.9-0.1-1.4c-0.1-0.7-0.9-0.8-1.2-0.2c-0.1,1.1,0,1.1,0.1,1.9
					c0.1,0.7,1.1,0.5,1.2-0.2c0.1-0.4,0-0.8,0-1.2s-0.4-0.7-0.8-0.6c-0.4,0.1-0.5,0.2-0.7,0.5C72.4,47.1,73.4,47.7,73.8,47L73.8,47z
					"/>
			</g>
		</g>
		<g>
			<g>
				<path class="st0" d="M79.7,34.9c0.1-0.7,0.1-1.3,0.2-2s-1.1-0.8-1.2-0.2c0,0.5-0.2,0.9-0.6,1.3c0.4,0.1,0.7,0.2,1.1,0.3
					c0-1,1-1.8,1.1-2.9c0-0.5-0.7-0.8-1-0.4c-0.2,0.3-0.5,0.6-0.7,0.8c-0.5,0.6,0.3,1.4,0.8,0.8c1.1-1.2,2.2-2.8,3.6-3.7
					c1.8-1.2,4.8-0.5,6.8,0c0.7,0.2,1.1-1,0.3-1.2c-2-0.5-4.6-1.2-6.7-0.5c-2,0.7-3.5,2.9-4.8,4.4c0.3,0.3,0.6,0.6,0.8,0.8
					c0.2-0.3,0.5-0.6,0.7-0.8c-0.3-0.1-0.7-0.3-1-0.4C79,32.3,78,32.9,78,34.1c0,0.6,0.8,0.8,1.1,0.3c0.4-0.5,0.6-0.9,0.7-1.6
					c-0.4-0.1-0.8-0.1-1.2-0.2c-0.1,0.7-0.1,1.3-0.2,2C78.4,35.7,79.6,35.7,79.7,34.9L79.7,34.9z"/>
			</g>
		</g>
		<g>
			<g>
				<path class="st0" d="M82.6,34.3c0.4-1.1,1-1.8,2-2.3c-0.3-0.2-0.6-0.5-0.9-0.7c-0.2,0.6-0.5,1.2-0.9,1.6
					c-0.4-0.2-0.3-0.5,0.5-0.9c0.3-0.2,0.5-0.5,0.8-0.7c-0.6-0.1-0.9,0.2-1.1,1c-0.3,0.3-0.6,0.5-0.9,0.7c-0.5,0.4-0.5,0,0.2-1.1
					c-0.5,0.2-0.9,0.5-1.2,1c0.1-0.6-0.2-0.5-0.7,0.2c0.2,0.1,0.4,0.3,0.6,0.4c0.3-0.7,0.9-1.2,1.6-1.4c-0.2-0.2-0.5-0.5-0.7-0.7
					c-0.1,0.8-0.4,1.4-0.9,2c0.3,0,0.6,0.1,0.9,0.1c-0.2-0.2,0.4-1.3,0.6-1.5c0.1-0.1,1.2-1.7,0.7-1c-0.5,0.8,0.3-0.4,0.3-0.3
					c0.3,0,0.2,0.1-0.2,0.4c-0.3,0.5-0.4,0.5-0.3,0c-0.2-0.1-0.4-0.3-0.6-0.4c0.1,0.7-2.1,1.5-2.6,1.7c0.3,0.2,0.6,0.3,0.9,0.5
					c0.1-1.1,2.1-2.6,2.9-3c1.2-0.5,2.4-0.2,3.6-0.1c0-0.4,0-0.8,0-1.2c-1.3,0.1-2.5,0.1-3.8,0c0,0.4,0,0.8,0,1.2
					c1.9,0.2,3.8,0.4,5.7,0.5c0.7,0.1,0.8-1.1,0.2-1.2c-1.3-0.2-2.7-0.4-4-0.6c-0.1,0.4-0.1,0.8-0.2,1.2c1.4,0.2,2.7,0.4,4,0.8
					c0.1-0.4,0.1-0.8,0.2-1.2c-1.3,0.1-2.4,0-3.6-0.6c0.1,0.3,0.1,0.5,0.2,0.8c0.5-0.7,3-0.2,3.7-0.1c0.4,0.1,0.7-0.2,0.8-0.6
					c0.1-0.6-0.2-1-0.8-1.1c-0.6-0.1-1,0.6-0.6,1c0.2,0.2-4,3-4.4,3.2c0.3,0.2,0.6,0.5,0.9,0.7c0.3-1.1,0.9-2,1.8-2.8
					c-0.3-0.2-0.7-0.4-1-0.6c-0.2,1.2-0.6,2.2-1.3,3.1c0.3-0.1,0.5-0.1,0.8-0.2c0.4-0.6,0.5-1.1,0.3-1.7c-0.2,0.5-0.4,0.9-0.6,1.3
					c-0.1,0,1.1-2.1,0.4,0.1c-0.8,2.5-0.4,0,0-0.6c0.4-0.7,1-1.3,1.5-1.9s-0.6-1.2-1-0.6c-0.9,1.2-3.2,3.3-1.7,5
					c0.9,1,1.8-0.1,2.2-1c0.4-0.9,0.8-3.4-0.8-3.2c-1.5,0.1-2.3,2.6-2,3.8c0.1,0.2,0.2,0.4,0.4,0.4c1.5,0.3,4-3.3,2.3-4.2
					c-1.5-0.9-3.1,3-1.6,3.8c0.3,0.2,0.6,0.1,0.8-0.2c0.8-1.1,1.2-2.1,1.4-3.4c0.1-0.6-0.5-1-1-0.6c-1,0.9-1.7,2-2.1,3.3
					c-0.1,0.5,0.4,1,0.9,0.7c1.4-1,3.5-1.9,4.6-3.2c0.6-0.7,0.6-1.3,0-2c-0.2,0.3-0.4,0.7-0.6,1c0,0,0,0-0.1,0
					c0.3-0.2,0.5-0.4,0.8-0.6c-1.5-0.3-4-0.8-5,0.6c-0.2,0.2-0.1,0.7,0.2,0.8c1.4,0.7,2.7,0.9,4.2,0.7c0.6-0.1,0.9-1,0.2-1.2
					c-1.4-0.3-2.9-0.6-4.3-0.8c-0.7-0.1-0.8,1.1-0.2,1.2c1.3,0.2,2.7,0.4,4,0.6c0.1-0.4,0.1-0.8,0.2-1.2c-1.9-0.2-3.8-0.4-5.7-0.5
					c-0.8-0.1-0.8,1.1,0,1.2c1.3,0.1,2.5,0.1,3.8,0c0.8-0.1,0.8-1.2,0-1.2c-2-0.1-3.4-0.5-5.2,0.8c-1,0.8-2.4,2.1-2.6,3.5
					c0,0.5,0.5,0.7,0.9,0.5c1.2-0.6,3.5-1.3,3.2-3c-0.1-0.3-0.3-0.4-0.6-0.4c-1.6-0.2-2.6,2.3-0.9,3c1.6,0.7,3.4-2,2.8-3.3
					c-0.1-0.2-0.3-0.3-0.5-0.3c-1.3-0.2-4.2,1.9-2.7,3.3c1.4,1.3,3.2-1.6,3-2.9c0-0.2-0.2-0.4-0.4-0.4C82.6,29,80,32.6,81,34.1
					c0.2,0.3,0.7,0.4,0.9,0.1c0.6-0.8,1-1.5,1.2-2.6c0.1-0.4-0.3-0.9-0.7-0.7c-1,0.4-3,1.5-2.4,2.9c0.1,0.3,0.3,0.4,0.6,0.4
					c1.1,0.1,2.8-1,2.5-2.2c-0.2-1.2-1.6-1-2.4-0.5S79.1,33.2,80,34c1.1,1,3-0.7,3.4-1.7c1.3-2.7-3.8-1.6-3,1
					c0.8,2.9,5.1-0.7,4.6-2.8c0-0.2-0.2-0.4-0.4-0.4c-1.4-0.4-4.1,2.6-3.3,4c1.2,2,3.4-1.7,3.7-2.6c0.2-0.5-0.4-0.9-0.9-0.7
					c-1.3,0.7-2.1,1.7-2.6,3.1C81.2,34.8,82.4,35.1,82.6,34.3L82.6,34.3z"/>
			</g>
		</g>
		<g>
			<g>
				<path class="st0" d="M88.3,29.4c0.2-1.1,0.7-1.8,1.6-2.2c0.6-0.3,0.2-1.3-0.5-1.1c-0.7,0.3-0.7,0.2-1.3,0.7
					c-0.6,0.4-0.1,1.5,0.6,1c4-2.5,8.8-2.5,12.8,0.1c0.6,0.4,1.2-0.6,0.6-1c-4.3-2.8-9.6-2.9-14-0.1c0.2,0.3,0.4,0.7,0.6,1
					c0.4-0.2,0.7-0.4,1.1-0.5c-0.2-0.4-0.3-0.7-0.5-1.1c-1.5,0.8-2.5,1.8-2.1,3.6C87.4,30.5,88.5,30.2,88.3,29.4L88.3,29.4z"/>
			</g>
		</g>
		<g>
			<g>
				<path class="st0" d="M101.9,25c-0.5-0.5-1.1-1-1.6-1.5c-0.2-0.6-0.9-0.6-1.2,0c-0.4,1-0.4,1.4,0.2,2.2c0.4,0.5,1.3-0.2,0.9-0.7
					c-1.2-2.2,3.5-3.1,4.4-3.1c1.4,0,2.6,0.4,3.8,1.1c0.7,0.4,1.2-0.6,0.6-1c-0.8-0.5-1.5-0.9-2.4-1.3c-0.6-0.3-1.1,0.8-0.5,1.1
					c2.6,1.1,3.4,3.5,5.4,5.2c0.5,0.4,1.3-0.1,0.9-0.7c-0.7-1.3-1.5-2.6-2.2-3.8c-0.3,0.2-0.6,0.5-0.9,0.7c1.2,1.2,2.3,2.4,3.4,3.7
					c0.3-0.3,0.6-0.6,0.8-0.8c-0.9-0.7-1.8-1.5-2.7-2.4c-0.5-0.5-1.3,0.1-0.9,0.7c0.8,1.3,1.7,2.5,2.6,3.7c0.3-0.3,0.5-0.5,0.8-0.8
					c-0.6-0.4-1.1-0.9-1.7-1.3c-0.3,0.3-0.5,0.5-0.8,0.8c0.8,0.6,1.6,1.2,2.2,2c0.3-0.3,0.6-0.6,0.8-0.8c-0.6-0.5-1.2-1-1.6-1.7
					c-0.3,0.3-0.5,0.5-0.8,0.8c0.9,0.4,1.6,1,2.3,1.7c0.5,0.6,1.4-0.3,0.8-0.8c-0.8-0.8-1.5-1.4-2.5-1.9c-0.5-0.2-1.2,0.3-0.8,0.8
					c0.5,0.8,1,1.3,1.8,1.9c0.6,0.5,1.4-0.3,0.8-0.8c-0.8-0.8-1.6-1.5-2.5-2.2c-0.5-0.4-1.2,0.3-0.8,0.8c0.6,0.8,1.2,1.3,2.1,1.7
					c0.5,0.2,1.2-0.3,0.8-0.8c-0.9-1.2-1.8-2.4-2.6-3.7c-0.3,0.2-0.6,0.5-0.9,0.7c0.9,0.8,1.7,1.6,2.7,2.4c0.6,0.5,1.3-0.2,0.8-0.8
					c-1-1.3-2.2-2.6-3.4-3.7c-0.5-0.5-1.3,0.1-0.9,0.7c0.8,1.3,1.5,2.5,2.2,3.8c0.3-0.2,0.6-0.5,0.9-0.7c-2.2-1.9-2.7-4.2-5.6-5.4
					c-0.2,0.4-0.3,0.7-0.5,1.1c0.8,0.3,1.5,0.7,2.1,1.2c0.2-0.3,0.4-0.7,0.6-1c-2.3-1.3-4.9-1.7-7.3-0.7c-1.9,0.8-3.7,2.2-2.5,4.3
					c0.3-0.2,0.6-0.5,0.9-0.7c0-0.3,0.1-0.7,0.1-1c-0.4,0-0.8,0-1.2,0c0.5,1.3,1.2,1.9,2.5,2.4C102.3,26.4,102.6,25.3,101.9,25
					L101.9,25z"/>
			</g>
		</g>
		<g>
			<g>
				<path class="st0" d="M102.9,26.7c-1.1-1.2-0.8-1.7,0.9-1.4c0.3,1-0.3,1.4-1.8,1.1c-0.1-1.9,0.4-2.1,1.5-0.6
					c-0.7,0.9-1.5,1-2.3,0.1c0.8-0.7,1-0.7,0.4-0.3c-0.4,0.1-0.5,0-0.5-0.3c0.1-0.5,0.3-0.9,0.6-1.3c0.2-0.7,0.2-0.7-0.1-0.2
					c0.3-0.2,0.4-0.7,0.1-0.9l0,0c-0.2-0.2-0.6-0.3-0.8,0l0,0c-0.3,0.3-0.2,0.9,0.3,1c0.5,0.2,1.2-0.1,1.7-0.2
					c1-0.2,2.1-0.4,3.1-0.6c-0.2-0.4-0.3-0.7-0.5-1.1c-0.9,0.4-1.9,0.4-2.9,0.4c-0.7,0-0.8,1.1-0.2,1.2c1.6,0.3,3.4-0.4,4.9,0.3
					c0.1-0.4,0.1-0.8,0.2-1.2c-1.5,0-2.9-0.2-4.3-0.5c0,0.4,0,0.8,0,1.2c1.6-0.2,3.1-0.4,4.7,0.2c0.1-0.4,0.1-0.8,0.2-1.2
					c-1,0.1-1.9,0-2.8-0.3c-0.1,0.4-0.1,0.8-0.2,1.2c1.1,0,2.2,0.1,3.3,0.3c0-0.4,0-0.8,0-1.2c-2,0.3-4.4-0.3-6.4-0.5
					c0.1,0.4,0.1,0.8,0.2,1.2c1.9-0.7,3.8-0.6,5.6,0.2c0.1-0.4,0.2-0.7,0.3-1.1c-1,0-3.6-0.5-4.3,0.6c-0.7,1.2,1.1,1.7,1.8,2
					c0.7,0.3,1.3-0.7,0.6-1c-0.3-0.1-0.5-0.3-0.8-0.4c-0.5-0.2-0.4-0.1,0,0c0.9,0.1,1.8,0,2.6,0c0.6,0,0.9-0.9,0.3-1.1
					c-2.1-1-4.3-1.1-6.5-0.3c-0.7,0.2-0.5,1.1,0.2,1.2c2.1,0.2,4.6,0.9,6.7,0.5c0.6-0.1,0.6-1,0-1.2c-1.2-0.2-2.4-0.4-3.6-0.4
					c-0.7,0-0.8,1-0.2,1.2c1,0.4,2,0.5,3.1,0.4c0.7-0.1,0.8-0.9,0.2-1.2c-1.7-0.7-3.5-0.5-5.3-0.2c-0.6,0.1-0.5,1,0,1.2
					c1.5,0.4,3,0.6,4.6,0.6c0.7,0,0.8-0.9,0.2-1.2c-1.6-0.7-3.3,0-4.9-0.3c-0.1,0.4-0.1,0.8-0.2,1.2c1.3,0,2.3,0,3.5-0.5
					c0.6-0.3,0.2-1.2-0.5-1.1c-0.7,0.2-1.4,0.3-2.2,0.4c-0.5,0.1-1.5,0.5-2,0.3c0.1,0.3,0.2,0.7,0.3,1l0,0c-0.3,0-0.6,0-0.8,0l0,0
					c0-0.3,0.1-0.6,0.1-0.9c-0.8,0.6-1.8,1.7-0.9,2.7c0.9,0.9,2.3,0.2,2.7-0.8c0.3-0.7,0.4-1.8-0.4-2.2c-1.3-0.7-2.3,1.6-2.5,2.5
					c-0.8,3.1,3.2,2,2.9-0.4c-0.1-0.9-1.2-1.7-2.1-1.2c-0.9,0.6-0.9,2.5-0.2,3.2c1.5,1.6,4.3-2.5,2-3.6c-2.5-1.1-3.8,3.3-1.3,4.4
					c2.4,1,5.1-2.5,2.8-4.1c-2.4-1.7-4.3,2.7-2.7,4.4c2.3,2.5,5.2-2.4,2.6-4.2c-2.7-1.9-4.6,4.3-1.2,4.3
					C103.6,27.9,103.6,26.7,102.9,26.7L102.9,26.7z"/>
			</g>
		</g>
		<g>
			<g>
				<path class="st0" d="M115.3,29.9c-0.1-0.7,1.2-1.6,1.6-2.1s-0.3-1.1-0.8-0.8c-0.4,0.2-0.8,0.4-1.2,0.6c0.2,0.3,0.4,0.7,0.6,1
					c0.7-0.5,1.4-1,2.2-1.4c0.4-0.2,0.8-0.3,0.9-0.8c0.1-0.2-0.1-0.6-0.3-0.7c0,0-0.1,0-0.1-0.1c-0.3-0.2-0.7-0.1-0.8,0.2
					c-0.3,0.5-0.1,0.9,0.3,1.2c0.6,0.4,1.2,0.4,1.7,0.9c0.6,0.5,1,1.2,1.4,1.9c0.4,0.7,1.4,0.1,1-0.6c-0.5-1-1.1-1.9-1.8-2.8
					c-0.3,0.2-0.6,0.5-0.9,0.7c1,1,2,2,2.1,3.4c0.4-0.1,0.7-0.2,1.1-0.3c-1.2-2.5-3.8-4.6-6.7-3.5c-0.5,0.2-0.6,1,0,1.2
					c1.3,0.3,2.6-0.1,3.8,0.4c0-0.4,0-0.8,0-1.2c-0.8,0.3-1.6,0.4-2.5,0.4c0,0.4,0,0.8,0,1.2c0.9,0,1.8,0.2,2.6,0.6
					c0.1-0.4,0.2-0.7,0.3-1.1c-0.6,0-1-0.1-1.4-0.5c-0.1,0.4-0.2,0.7-0.3,1.1c0.8,0,1.5,0.2,2.3,0.6c0.1-0.4,0.2-0.7,0.3-1.1
					c-0.3,0-0.6-0.1-0.9-0.1c-0.7-0.3-1.3,0.7-0.6,1c0.5,0.2,1,0.3,1.6,0.3s0.9-0.8,0.3-1.1c-0.9-0.5-1.9-0.7-2.9-0.8
					c-0.6,0-0.8,0.8-0.3,1.1c0.7,0.4,1.2,0.6,2,0.6c0.6,0,0.9-0.9,0.3-1.1c-1.1-0.5-2.1-0.7-3.2-0.8c-0.8,0-0.8,1.2,0,1.2
					c1,0.1,1.9-0.1,2.8-0.4c0.6-0.2,0.5-0.9,0-1.2c-1.2-0.5-2.5,0-3.8-0.4c0,0.4,0,0.8,0,1.2c2.4-1,4.3,0.9,5.3,2.9
					c0.3,0.5,1.2,0.3,1.1-0.3c-0.1-1.8-1.2-3.1-2.5-4.3c-0.5-0.5-1.4,0.2-0.9,0.7c0.7,0.9,1.3,1.9,1.8,2.8c0.3-0.2,0.7-0.4,1-0.6
					c-1-1.7-2-2.6-3.8-3.3c0.1,0.1,0.3,0.3,0.4,0.4c0,0.1,0,0.1,0,0.2c-0.3,0.1-0.5,0.1-0.8,0.2c0,0,0.1,0,0.1,0.1
					c-0.1-0.2-0.2-0.5-0.3-0.7c0-0.1-1.1,0.5-1.2,0.6c-0.5,0.3-0.9,0.6-1.4,1c-0.6,0.5-0.1,1.4,0.6,1c0.4-0.2,0.8-0.4,1.2-0.6
					c-0.3-0.3-0.5-0.5-0.8-0.8c-0.8,1.1-2,1.5-1.7,3.1C114.2,31,115.4,30.7,115.3,29.9L115.3,29.9z"/>
			</g>
		</g>
		<g>
			<g>
				<path class="st0" d="M116.8,27.3c0.4,0.2,0.4,0.1,0.8-0.2c0.2-0.1,0.5-0.3,0.8-0.4c0.5-0.2,1-0.2,1.5,0c0.7,0.4,1.3-0.7,0.6-1
					c-1.2-0.7-2.5-0.2-3.6,0.4c-0.5,0.3-1,0.6-1.1,1.2c-0.1,0.5,0.2,0.9,0.7,1.1C117.2,28.7,117.5,27.6,116.8,27.3L116.8,27.3z"/>
			</g>
		</g>
		<g>
			<g>
				<path class="st0" d="M121.7,32.8c0.3-0.1,1.5,0.9,1.6,1c0.5,0.4,0.9,0.9,1.2,1.3c0.4,0.6,1.2-0.2,0.9-0.7
					c-0.6-1.2-1.4-2.1-2.5-2.8c-0.6-0.4-1.2,0.5-0.7,0.9c1.2,1.1,2.3,2.3,2.8,3.8c0.3-0.2,0.7-0.4,1-0.6c-1.7-1.9-3.4-3.7-5.4-5.4
					c-0.2,0.3-0.4,0.7-0.6,1c1.1,0.4,2,1.1,2.8,2c0.3-0.3,0.6-0.6,0.8-0.8c-0.9-0.8-1.7-1.7-2.4-2.8c-0.3,0.3-0.5,0.5-0.8,0.8
					c0.6,0.5,1.3,1,1.9,1.4c0.4,0.3,1-0.2,0.9-0.7s-0.3-0.9-0.6-1.4c-0.3,0.3-0.5,0.5-0.8,0.8c0.4,0.2,0.6,0.4,0.7,0.8
					c0.3-0.2,0.7-0.4,1-0.6c-0.2-0.3-0.5-0.5-0.7-0.8c-0.2,0.3-0.5,0.6-0.7,0.9c0.4,0.3,0.7,0.5,1.1,0.8c0.6,0.5,1.2-0.6,0.6-1
					c-0.7-0.5-1.4-1.1-2.1-1.6c-0.2,0.4-0.3,0.7-0.5,1.1c0.8,0.2,1.3,0.5,1.8,1.1c0.4,0.6,1.5,0,1-0.6c-0.6-0.9-1.4-1.5-2.5-1.7
					c-0.7-0.1-1,0.7-0.5,1.1c0.7,0.5,1.4,1.1,2.1,1.6c0.2-0.3,0.4-0.7,0.6-1c-0.4-0.3-0.7-0.5-1.1-0.8c-0.6-0.4-1.2,0.5-0.7,0.9
					c0.2,0.3,0.5,0.5,0.7,0.8c0.4,0.4,1.2,0,1-0.6c-0.2-0.7-0.6-1.2-1.3-1.5c-0.5-0.3-1.2,0.3-0.8,0.8c0.2,0.4,0.4,0.7,0.5,1.1
					c0.3-0.2,0.6-0.5,0.9-0.7c-0.6-0.5-1.3-1-1.9-1.4c-0.5-0.4-1.2,0.3-0.8,0.8c0.8,1.1,1.6,2.1,2.6,3c0.6,0.5,1.3-0.3,0.8-0.8
					c-0.9-1.1-2-1.8-3.3-2.3c-0.6-0.2-1,0.6-0.6,1c1.9,1.7,3.7,3.5,5.4,5.4c0.4,0.5,1.2,0,1-0.6c-0.5-1.8-1.8-3.1-3.1-4.4
					c-0.2,0.3-0.5,0.6-0.7,0.9c0.9,0.6,1.6,1.4,2.1,2.4c0.3-0.2,0.6-0.5,0.9-0.7c-0.9-1.1-2.7-3.3-4.3-2.6
					C120.4,32.1,121,33.1,121.7,32.8L121.7,32.8z"/>
			</g>
		</g>
		<g>
			<g>
				<path class="st0" d="M125.5,40.8c-0.7-0.6-1.2-1.2-1.5-2.1c-0.3,0.2-0.6,0.5-0.9,0.7c1.5,0.7,2.5,1.7,3.1,3.2
					c0.3-0.2,0.6-0.5,0.9-0.7c-1.2-1.3-1.9-2.7-2.3-4.4c-0.4,0.2-0.7,0.3-1.1,0.5c1,1.3,1.8,2.6,2.4,4c0.1-0.3,0.2-0.6,0.4-0.9
					c-2.7,0.4-4.5-0.3-6.7-1.8c-0.6-0.4-1.2,0.5-0.7,0.9c0.6,0.7,1.1,1,1.9,1.2c0.6,0.2,1.1-0.8,0.5-1.1c-1.3-0.6-1.5-2.3-2.5-3.3
					c-0.4-0.4-1.2,0-1,0.6c0.2,0.8,0.5,1.5,0.9,2.2c0.3-0.2,0.6-0.5,0.9-0.7c-0.3-0.3-0.7-0.7-1-1c-0.6-0.5-1.3,0.3-0.8,0.8
					c0.1,0.2,0.3,0.3,0.4,0.5c0.4,0.5,1.3-0.2,0.9-0.7c-0.8-1.3-1.7-2.5-2.9-3.6c-0.2,0.3-0.5,0.6-0.7,0.9c2.4,1.4,4.4,3.2,6.1,5.5
					c0.3-0.2,0.6-0.5,0.9-0.7c-1.2-1-2.3-2.1-3.3-3.4c-0.3,0.3-0.5,0.5-0.8,0.8c1.9,1.1,3.6,2.4,5.3,3.8c0.2-0.3,0.5-0.6,0.7-0.9
					c-1.2-0.6-2.2-1.4-3.2-2.3c-0.2,0.3-0.5,0.6-0.7,0.9c1.7,0.8,3.1,1.8,4.5,3c0.2-0.3,0.5-0.6,0.7-0.9c-0.7-0.3-1.2-0.8-1.6-1.4
					c-0.3,0.3-0.5,0.5-0.8,0.8c1,0.5,1.8,1,2.5,1.8c0.4,0.4,1.2,0,1-0.6c-0.1-0.2-0.1-0.5-0.2-0.7c-0.3,0.2-0.6,0.5-0.9,0.7
					c0.5,0.3,0.9,0.6,1.5,0.6c0.3,0,0.6-0.3,0.6-0.6v-0.1c0-0.3-0.2-0.6-0.6-0.6c0,0,0,0-0.1,0c-0.5,0-0.7,0.5-0.5,0.9
					c0,0.3,0.1,0.7,0.1,1c0.3-0.1,0.6-0.2,0.9-0.4c-0.2-0.1-0.3-0.2-0.5-0.3c-0.6-0.4-1.2,0.6-0.6,1c0.2,0.1,0.3,0.2,0.5,0.3
					c0.3,0.2,0.8,0,0.9-0.4c0.2-0.7,0.1-1.2-0.2-1.9c-0.2,0.3-0.3,0.6-0.5,0.9c0,0,0,0,0.1,0c-0.2-0.2-0.4-0.4-0.6-0.6v0.1
					c0.2-0.2,0.4-0.4,0.6-0.6c-0.3-0.1-0.6-0.3-0.9-0.4c-0.5-0.2-1,0.1-0.9,0.7c0.1,0.2,0.1,0.5,0.2,0.7c0.3-0.2,0.7-0.4,1-0.6
					c-0.8-0.9-1.7-1.5-2.8-2c-0.5-0.2-1.2,0.3-0.8,0.8c0.6,0.8,1.2,1.4,2.1,1.8c0.6,0.3,1.3-0.5,0.7-0.9c-1.5-1.3-3-2.4-4.8-3.2
					c-0.6-0.3-1.3,0.5-0.7,0.9c1.1,1,2.2,1.8,3.4,2.5c0.6,0.3,1.3-0.5,0.7-0.9c-1.7-1.5-3.5-2.9-5.5-4c-0.5-0.3-1.2,0.3-0.8,0.8
					c1,1.4,2.2,2.6,3.5,3.6c0.5,0.4,1.4-0.1,0.9-0.7c-1.8-2.4-3.9-4.4-6.5-5.9c-0.6-0.3-1.2,0.5-0.7,0.9c1,1,1.9,2.1,2.7,3.3
					c0.3-0.2,0.6-0.5,0.9-0.7c-0.1-0.2-0.3-0.3-0.4-0.5c-0.3,0.3-0.6,0.6-0.8,0.8c0.3,0.3,0.7,0.7,1,1c0.5,0.5,1.3-0.1,0.9-0.7
					c-0.4-0.6-0.6-1.2-0.8-1.9c-0.3,0.2-0.7,0.4-1,0.6c1.1,1.1,1.2,2.8,2.8,3.5c0.2-0.4,0.3-0.7,0.5-1.1c-0.5-0.3-0.9-0.6-1.4-0.9
					c-0.2,0.3-0.5,0.6-0.7,0.9c2.6,1.7,4.6,2.3,7.6,1.9c0.4-0.1,0.5-0.6,0.4-0.9c-0.7-1.4-1.4-2.7-2.4-4c-0.4-0.5-1.2-0.2-1.1,0.5
					c0.4,1.9,1.2,3.5,2.6,4.9c0.5,0.5,1.2-0.1,0.9-0.7c-0.7-1.7-1.9-2.8-3.6-3.6c-0.4-0.2-1.1,0.1-0.9,0.7c0.4,1.1,0.9,1.9,1.9,2.6
					C125.2,42.1,126.1,41.3,125.5,40.8L125.5,40.8z"/>
			</g>
		</g>
		<g>
			<g>
				<path class="st0" d="M124.3,43c-0.2-0.8-0.5-1.4-1.1-2c-0.2,0.3-0.5,0.6-0.7,0.9c0.3,0.1,0.4,0.4,0.4,0.7
					c0.2-0.2,0.5-0.5,0.7-0.7c-1.5-0.3-2.8-1.8-3.9-2.7c-0.6-0.5-1.4,0.3-0.8,0.8c0.6,0.6,1.1,1.2,1.7,1.8c0.1-0.3,0.2-0.7,0.3-1
					c-0.3,0-0.5-0.1-0.6-0.4c-0.2-0.7-1.4-0.4-1.2,0.3c0.3,1,1.1,1.4,2.1,1.3c0.5-0.1,0.5-0.7,0.3-1c-0.6-0.6-1.1-1.2-1.7-1.8
					c-0.3,0.3-0.6,0.6-0.8,0.8c1.3,1.1,2.7,2.6,4.4,3c0.5,0.1,0.8-0.3,0.7-0.7c-0.1-0.6-0.4-1-1-1.4s-1.2,0.5-0.7,0.9
					c0.4,0.4,0.6,0.9,0.8,1.5C123.3,44.1,124.5,43.8,124.3,43L124.3,43z"/>
			</g>
		</g>
		<g>
			<g>
				<path class="st0" d="M94.2,40.8c-0.6,0.5-1.1,0.7-1.8,0.9c0.1,0.4,0.2,0.8,0.3,1.2c1.7-0.5,3-1.6,3.9-3.2
					c-0.4-0.1-0.7-0.2-1.1-0.3c-0.1,0.6-0.3,1.1-0.7,1.4c-0.5,0.6,0.3,1.4,0.8,0.8c0.7-0.7,1.4-1.6,1.9-2.5c0.3-0.6,0.9-3,1.7-2.9
					c-0.1-0.4-0.2-0.7-0.3-1.1c-1,0.6-1.9,1.2-2.5,2.1C95.6,38.4,95,39.7,94.2,40.8c0.3,0.2,0.6,0.4,1,0.6c0.3-1.6,0.7-3.3,1-4.9
					c-0.4,0-0.8,0-1.2,0c0.1,0.7,0.2,1.5,0.3,2.2c0.1,0.6,1,0.5,1.2,0c0.2-0.6,0.5-1.1,0.8-1.7c-0.4,0-0.7-0.1-1.1-0.1
					c0,0.2-0.1,0.3-0.1,0.5c0.4,0,0.7,0.1,1.1,0.1c-0.2-0.6,2.1-2.8,2.7-2.7c0.8,0.1,1.1-1,0.3-1.2c-1.2-0.2-1.8,0.5-2.6,1.3
					c-0.7,0.8-1.9,1.7-1.5,2.9c0.2,0.5,0.8,0.6,1.1,0.1c0.3-0.5,0.4-0.9,0.3-1.4s-0.8-0.6-1.1-0.1c-0.4,0.6-0.7,1.3-1,2
					c0.4,0,0.8,0,1.2,0c-0.1-0.7-0.2-1.5-0.3-2.2c-0.1-0.6-1-0.6-1.2,0c-0.3,1.6-0.7,3.3-1,4.9c-0.1,0.5,0.6,1.1,1,0.6
					c0.6-0.8,1.2-1.5,1.7-2.4c0.8-1.4,1.4-2.3,2.9-3.1c0.5-0.3,0.3-1.1-0.3-1.1c-0.9-0.1-1.5,0.5-1.8,1.3c-0.7,1.7-1.3,3.1-2.6,4.4
					c0.3,0.3,0.6,0.6,0.8,0.8c0.6-0.7,1.1-1.3,1.1-2.3c0-0.6-0.8-0.8-1.1-0.3c-0.7,1.3-1.8,2.2-3.2,2.6c-0.7,0.2-0.4,1.4,0.3,1.2
					c0.9-0.3,1.6-0.6,2.3-1.2C95.6,41.1,94.8,40.3,94.2,40.8L94.2,40.8z"/>
			</g>
		</g>
		<g>
			<g>
				<path class="st0" d="M86.2,40.2c0.6-0.1,1.2-0.2,1.7-0.4c-0.2-0.4-0.3-0.7-0.5-1.1c-0.5,0.2-0.9,0.5-1.4,0.7
					c-0.6,0.3-0.2,1.2,0.5,1.1c1-0.2,2.1-0.5,3.1-0.7c-0.1-0.4-0.2-0.8-0.3-1.2c-0.7,0.1-1.4,0.3-2.1,0.7c-0.7,0.3-0.4,1.4,0.3,1.2
					c2.9-0.9,5.6-2,8.3-3.5c-0.2-0.3-0.4-0.7-0.6-1c-1.6,1.3-3.3,2-5.4,2.4c0.1,0.4,0.2,0.8,0.3,1.2c2.8-1,5.4-2.3,8-3.8
					c-0.3-0.2-0.6-0.5-0.9-0.7c-0.2,0.4-0.3,0.8-0.5,1.2c-0.2,0.5,0.5,1,0.9,0.7c2.4-1.7,4.6-3.2,8-2.4c0-0.4,0-0.8,0-1.2
					c-1.6,0.4-3.3,0.7-5,0.7c0.1,0.4,0.2,0.7,0.3,1.1c2,0.1,3.9,0.3,5.9,0.4c0.2-0.4,0.3-0.7,0.5-1.1c-1.2-0.3-2.3-0.6-3.5-0.9
					c-0.1,0.4-0.1,0.8-0.2,1.2c2,0,3.2,1.5,5,1.8c2.5,0.4,3.8-1.4,7.2-0.9c0.7,0.1,1.1-0.9,0.3-1.2c-3.2-1-6.2-1.1-9.5-0.5
					c-0.7,0.1-0.5,1.2,0.2,1.2c1.3-0.1,2.7-0.3,4-0.4c0.8-0.1,0.8-1.3,0-1.2c-1.3,0.2-2.6,0.2-3.9,0.1c-0.7,0-0.8,0.9-0.2,1.2
					c0.7,0.3,1.4,0.6,2.2,0.7c0.8,0.2,1-0.9,0.3-1.2c-0.5-0.2-1-0.3-1.5-0.5c-0.1,0.4-0.2,0.8-0.3,1.2c0.7,0,1.3,0.2,2,0.5
					c0.6,0.2,1.1-0.8,0.5-1.1c-0.7-0.3-1.3-0.6-1.8-1.1c-0.1,0.4-0.2,0.7-0.3,1.1c0.7,0,1.4,0,2.1,0c0-0.4,0-0.8,0-1.2
					c-0.2,0-0.5,0.1-0.7,0.1c-0.7,0.1-0.5,1.1,0.2,1.2c0.7,0.1,1.4,0.1,2.1,0.1c0.8,0,0.8-1.2,0-1.2c-0.7,0.1-1.4,0-2.1-0.1
					c0.1,0.4,0.1,0.8,0.2,1.2c0.2,0,0.5-0.1,0.7-0.1c0.6-0.1,0.6-1.1,0-1.2c-1.4-0.2-1-0.2-2.4-0.1c-0.6,0.1-0.8,0.8-0.3,1.1
					c0.6,0.5,1.2,0.8,1.8,1.1c0.2-0.4,0.3-0.7,0.5-1.1c-0.6-0.3-1.3-0.5-2-0.5c-0.8-0.1-1.1,0.9-0.3,1.2c0.5,0.2,1,0.3,1.5,0.5
					c0.1-0.4,0.2-0.8,0.3-1.2c-0.8-0.1-1.5-0.4-2.2-0.7c-0.1,0.4-0.1,0.8-0.2,1.2c1.3,0.1,2.6,0.1,3.9-0.1c0-0.4,0-0.8,0-1.2
					c-1.3,0.1-2.7,0.3-4,0.4c0.1,0.4,0.1,0.8,0.2,1.2c3.1-0.6,5.8-0.4,8.8,0.5c0.1-0.4,0.2-0.8,0.3-1.2c-2.6-0.4-5.6,1.1-7.9,0.5
					c-1.7-0.4-2.5-1.5-4.5-1.5c-0.7,0-0.8,1-0.2,1.2c1.2,0.3,2.3,0.6,3.5,0.9c0.7,0.2,1-0.7,0.5-1.1c-2.4-1.6-4.5-1.7-7.1-0.4
					c-0.5,0.3-0.3,1.2,0.3,1.1c1.8-0.1,3.6-0.4,5.4-0.8c0.6-0.1,0.6-1,0-1.2c-3.5-0.7-6,0.6-8.9,2.6c0.3,0.2,0.6,0.5,0.9,0.7
					c0.2-0.4,0.3-0.8,0.5-1.2c0.2-0.5-0.5-0.9-0.9-0.7c-2.5,1.5-5,2.7-7.7,3.7c-0.7,0.3-0.4,1.3,0.3,1.2c2.3-0.4,3.8-1.1,5.6-2.5
					c0.6-0.5,0.1-1.4-0.6-1c-2.6,1.4-5.2,2.5-8,3.4c0.1,0.4,0.2,0.8,0.3,1.2c0.7-0.3,1.3-0.5,2.1-0.7c0.8-0.2,0.4-1.3-0.3-1.2
					c-1,0.2-2.1,0.5-3.1,0.7c0.2,0.4,0.3,0.7,0.5,1.1c0.5-0.2,0.9-0.5,1.4-0.7c0.6-0.3,0.2-1.2-0.5-1.1c-0.6,0.1-1.2,0.2-1.7,0.4
					C85.1,39.2,85.4,40.3,86.2,40.2L86.2,40.2z"/>
			</g>
		</g>
		<g>
			<g>
				<path class="st0" d="M89.1,39.6c0.6-0.2,1.3-0.4,2-0.4c-0.1-0.3-0.3-0.7-0.4-1c-0.5,0.5-1,0.7-1.6,0.8s-0.6,1,0,1.2
					c0.9,0.2,1.5-0.1,2.3-0.5c0.6-0.3,0.2-1.4-0.5-1.1c-0.4,0.2-0.7,0.3-1.1,0.3c0.1,0.4,0.2,0.8,0.3,1.2c1.3-0.3,2.6-0.7,3.8-1
					c0.7-0.2,0.4-1.3-0.3-1.2c-1.3,0.3-2.6,0.7-3.8,1c-0.8,0.2-0.4,1.3,0.3,1.2c0.4-0.1,0.8-0.2,1.1-0.3c-0.2-0.4-0.3-0.7-0.5-1.1
					c-0.4,0.2-0.8,0.5-1.4,0.4c0,0.4,0,0.8,0,1.2c0.8-0.2,1.5-0.5,2.1-1.1c0.3-0.4,0.1-1-0.4-1c-0.8,0-1.5,0.2-2.3,0.5
					C88.1,38.7,88.4,39.9,89.1,39.6L89.1,39.6z"/>
			</g>
		</g>
		<g>
			<g>
				<path class="st0" d="M109.2,35.3c1.1-0.1,2.1-0.3,3.1-0.7c-0.2-0.3-0.4-0.7-0.6-1c-0.5,0.3-0.9,0.5-1.5,0.6
					c0.1,0.4,0.2,0.7,0.3,1.1c1.6-0.7,3.2-0.8,4.9-0.4c0.7,0.2,1.1-1,0.3-1.2c-2-0.5-4-0.3-5.8,0.5c-0.5,0.2-0.3,1.2,0.3,1.1
					c0.8-0.1,1.4-0.3,2.1-0.7c0.6-0.5,0.1-1.3-0.6-1c-0.8,0.3-1.6,0.5-2.5,0.6C108.5,34.2,108.5,35.4,109.2,35.3L109.2,35.3z"/>
			</g>
		</g>
	</g>
	<g>
		<g>
			<path class="st0" d="M108.6,29.8c-0.4-1.3-0.8-2.7-1.3-4c-0.8-0.1-1.6-0.2-2.4-0.3c1.1-0.3,2-0.1,2.7,0.7
				c1.1,0.3,1.5,1.1,1.3,2.2c0.4-0.5,0.7-1,1.1-1.4c-1.2-0.5-1.8-1.4-1.7-2.9c-0.8,0.2-1.7,0.4-2.5,0.7c2,1.5,3.3,3.2,4.3,5.5
				c0.6-0.7,1.1-1.5,1.7-2.2c-1.5-0.4-2.7-1.1-3.7-2.3c-0.6,0.8-1.2,1.6-1.8,2.4c2.5,1.6,4.4,3.5,5.9,6.1c0.6-0.7,1.1-1.5,1.7-2.2
				c-2-0.4-3.6-1-5.3-2.2c-0.3,0.9-0.5,1.9-0.8,2.8c2.5,0.1,4.3,0.7,6.3,2.1c0.4-0.9,0.8-1.8,1.2-2.7c-1.4-0.1-2.7-0.7-3.7-1.8
				c-0.1,0.8-0.2,1.6-0.3,2.4c0.7-0.6,4.3,2.2,5,2.7c0.5-0.9,1-1.7,1.5-2.6c-1.9-1.3-3.7-2.6-5.6-3.9c-0.3,0.9-0.5,1.9-0.8,2.8
				c2.5,0,5.5,3,7.4,4.4c0.5-0.9,1-1.7,1.5-2.6c-2.5-1.7-4.6-3.5-6.6-5.8c-0.6,0.8-1.2,1.6-1.8,2.4c3,1.4,5.7,3.2,8.4,5.1
				c0.5-0.9,1-1.7,1.5-2.6c-2.6-1.3-5.1-2.8-7.5-4.4c-0.4,0.9-0.8,1.8-1.2,2.7c0.9,0.3,1.9,0.7,2.8,1c1,0.4,1.8-0.6,1.9-1.4
				c0.2-0.3,0.4-0.5,0.6-0.8c-0.4-0.9-0.8-1.8-1.2-2.7c-0.2,0-0.4,0-0.6-0.1c0.2,0.7,0.4,1.4,0.5,2.1c-0.4,0.7,3,5.5,3.4,6
				c0.9-0.5,1.7-1,2.6-1.5c-1.1-1.5-2.2-3-3.3-4.6c-0.9,0.5-1.7,1-2.6,1.5c1.9,2.6,3.9,5.1,5.8,7.7c0.8-0.6,1.6-1.2,2.4-1.8
				c-1.5-1.3-2.8-2.7-4-4.2c-0.6,0.8-1.2,1.6-1.8,2.4c1.3,0.6,2.4,1.5,3.2,2.7c0.7-0.7,1.4-1.4,2.1-2.1c-1.8-0.8-3.6-1.6-5.3-2.3
				c-1.6-0.7-2.9,1-1.8,2.4c1.3,1.6,2.7,3,4.3,4.4c0.5-0.8,1-1.7,1.5-2.5c-0.9-0.7-1.9-1.4-2.8-2.1c-0.7,0.7-1.4,1.4-2.1,2.1
				c1.4,0.9,2.8,1.8,4.3,2.7c0.4-0.9,0.8-1.8,1.2-2.7c-2.2-0.7-4.1-1.7-6-3c-0.3,0.9-0.5,1.9-0.8,2.8c0.3,0.1,0.6,0.1,0.9,0.2
				c0.6-0.8,1.2-1.6,1.8-2.4c-3-1.6-3.2-2.6-0.8-3c0.6-0.2,1.1-0.5,1.7-0.7c-0.1,0.1-0.1,0.3-0.2,0.4c0.7-0.7,1.4-1.4,2.1-2.1
				c-0.6-0.5-1.2-1-1.8-1.5c-0.6,0.8-1.2,1.6-1.8,2.4c0.9,0.6,1.7,1.3,2.4,2.2c0.2-0.8,0.4-1.7,0.7-2.5c-4,1.3-8.2,0.9-12.4,1.4
				c-4.9,0.6-8.3,0.6-13-1.1c-2-0.7-4.1-1.2-6.1-0.3c-1.4,0.6-5.7,7.7-2.5,7.2c-0.6-0.2-1.1-0.5-1.7-0.7c0.7-1,1.4-2,2.1-3
				c-0.6-0.1-1.2-0.2-1.8-0.2c-0.3,0.5-0.5,1-0.8,1.5c-0.2-0.6-0.5-1.1-0.7-1.7c-0.2,0.2-0.3,0.5-0.5,0.7c0.7,0.6,1.5,1.1,2.2,1.7
				c1.4-4.9,5.5-7.5,10.6-7.1c-0.1-1-0.3-2-0.4-2.9c-2.1,0.8-4.2,1.5-6.3,2.3c0.4,0.9,0.8,1.8,1.2,2.7c1.4-1.2,3-1.7,5-1.6
				c-0.1-1-0.3-2-0.4-2.9c-2.3,0.9-8.5,4.8-10.8,2.8c-0.2,0.8-0.4,1.7-0.7,2.5c0.8-0.1,1.5-0.2,2.3-0.2c0-1,0-2,0-3
				c-0.4,0-0.8,0.1-1.2,0.1c-1.4,0.1-2.2,2.1-0.8,2.8c2,0.9,3.7,2.3,5.1,4.1c-0.1,1-0.3,2-0.4,2.9c2.5-0.1,5-0.5,7.3-1.6
				c2.4-1.1,3.4-1.7,6.2-2.3c1.1-0.2,1.9-0.2,3-0.6c1.7-0.6,1.2-2.7-0.4-2.9c-2.6-0.3-5-1-7.4-1.9c-0.1,1-0.3,2-0.4,2.9
				c1.9,0,3.6,0.5,5.2,1.5c1.7,0.9,3.2-1.6,1.5-2.6s-3.3-2.1-4.9-3.3c-0.4,0.9-0.8,1.8-1.2,2.7c1.8,0.5,3.3,1.2,4.8,2.2
				c0.5-0.9,1-1.7,1.5-2.6c-1.4-0.8-2.7-1.7-3.8-2.8c-0.5,0.8-1,1.7-1.5,2.5c0.8,0.4,1.7,0.8,2.5,1.2c0.6-0.8,1.2-1.6,1.8-2.4
				c-2.8-1.2-5.3-3.1-8.2-1.1c-2.5,1.8-3.1,4.7-2.6,7.6c0.2,1.4,2.6,1.4,2.9,0c0.5-0.9,1-1.8,1.6-2.7c-0.5-0.4-1-0.7-1.4-1.1
				c-0.2,0.5-0.5,1-0.7,1.5c0.7,0.6,1.5,1.1,2.2,1.7c-0.3-0.4-0.6-0.9-1-1.3c-0.4,1.2,1.1,2.4,2.2,1.7c0.8-0.2,1.6-0.5,2.3-0.7
				c1.9,0,1.9-3,0-3c-2.5,0-6.3,0.4-7.9,2.6c-0.4,0.6-0.8,1-0.9,1.7c-0.2,1.5,0.3,0.9,0.7,0.7c-0.9,0.4-0.9,1.7-0.3,2.4
				c0.2,0.2,0.4,0.5,0.6,0.7c0.5-0.8,1-1.7,1.5-2.5c0.1,0,0.1,0.1,0.2,0.1c-0.8-1.7-3.4-0.2-2.6,1.5c0.4,0.8,0.8,1.1,1.6,1.3
				c1.5,0.3,2.4-1.4,1.5-2.5c-0.2-0.2-0.4-0.5-0.6-0.7c-0.1,0.8-0.2,1.6-0.3,2.4c0.2-0.1,0.3-0.1,0.5-0.2c0.5-0.2,0.7-0.8,0.7-1.3
				c0.1-2.8,2.2-3.1,5.4-3.1c0-1,0-2,0-3c-1.5,0-2.6,0.3-3.8,1.1c0.7,0.6,1.5,1.1,2.2,1.7c1.1-3.7-3.8-3.8-4.8-0.3
				c-0.4,1.3,1.1,2.4,2.2,1.7c1.8-1,2.6-2.8,2.1-4.9c-0.2-0.7-0.8-1-1.4-1.1c-3-0.3-4.7,5.1-1.6,6.3c3.8,1.5,3.9-4.3,2.4-6.3
				c-0.3-0.4-1-0.5-1.5-0.4c-2.4,0.8-3.4,2.9-3.8,5.3c1,0,1.9,0,2.9,0c-1.2-7.1,4.6-3.9,6.4-3.1c1.4,0.6,3.2-1.1,1.8-2.4
				c-1.2-1.2-2.2-1.7-3.9-2c-1.3-0.2-2.7,1.4-1.5,2.5c1.4,1.3,2.8,2.3,4.5,3.3s3.1-1.5,1.5-2.6c-1.8-1.2-3.5-1.9-5.5-2.6
				c-1.7-0.5-2.4,1.8-1.2,2.7c1.6,1.2,3.2,2.3,4.9,3.3c0.5-0.9,1-1.7,1.5-2.6c-2.2-1.2-4.2-1.8-6.7-1.9c-1.8-0.1-1.9,2.4-0.4,2.9
				c2.7,1.1,5.3,1.7,8.2,2c-0.1-1-0.3-2-0.4-2.9c-1.9,0.6-3.8,0.2-5.7,0.8c-3.6,1.2-6,3.3-10,3.4c-1.6,0-2.1,2.6-0.4,2.9
				c3.3,0.6,6.6-0.8,7.1-4.4c0.5-3.1-1.5-5.2-4.4-3.4c-2.2,1.3-4.3,5.2-1.9,7.3c2.7,2.3,5.7-1.5,5.6-4.2c-0.4-8.7-12.3,2.9-5,4.4
				c6.7,1.4,1.5-14-3.5-4.7c-1.1,2.1-0.3,7.1,2.9,5.1c4.6-2.8-1.1-8.3-3.7-9.6c-0.3,0.9-0.5,1.9-0.8,2.8c0.4,0,0.8-0.1,1.2-0.1
				c1.9-0.2,2-2.9,0-3c-1.6,0-1.6,0-3.1,0.4c-1,0.3-1.5,1.8-0.7,2.5c4.1,3.5,9.6-0.3,13.7-2c1.5-0.6,1.4-3-0.4-2.9
				c-2.6,0-4.4,0.5-6.5,2c-1.3,0.9-0.6,3.4,1.2,2.7c2.1-0.8,4.2-1.5,6.3-2.3c1.6-0.6,1.3-2.8-0.4-2.9C91.1,24.4,86,28,84.1,34.2
				c-0.4,1.2,1.1,2.4,2.2,1.7c1.2-0.8,1.6-1,1.9-2.5c0.1-0.6-0.1-1.4-0.7-1.7c-3.7-1.7-6.7,3.7-3.3,5.9c3.8,2.4,7.8-4.3,4.7-6.9
				c-0.5-0.4-1.2-0.6-1.8-0.2c-2.3,1.3-5.2,5.9-1.6,7.7c2.1,1.1,5.2-1.4,3.6-3.6c-0.4-0.6-1-0.8-1.7-0.7c-2.3,0.3-4,3.6-1.7,5.1
				c2.6,1.6,4.9-1.9,4.5-4.2c-0.1-0.5-0.6-0.9-1-1c-4.6-1.6-5.3,7.3,0.4,5.4c5.4-1.8,3.1-10.6-1.9-7.9c-1.4,0.8-2.4,2.7-1.1,4
				c1.8,1.9,3-0.3,4.1-1.3c2.9-2.7,4.7-1.2,7.9-0.1c2.4,0.8,4.6,0.9,7.2,0.7c5.6-0.5,11.9-0.3,17.3-2c1.1-0.3,1.5-1.7,0.7-2.5
				c-1-1-1.9-1.8-3-2.6c-1.4-1-3.1,1.3-1.8,2.4c0.6,0.5,1.2,1,1.8,1.5c1.5,1.2,3.3-0.6,2.1-2.1c-3.6-4.5-8,3.6-2.8,4.6
				c0.6,0.1,1.4-0.1,1.7-0.7c1.3-3.1-1.8-8.6-5.5-6.2c-4,2.7-1,8.6,2.2,10.2c1.4,0.8,3.2-1.2,1.8-2.4c-1.2-1-1.4-1.2-3-1.1
				c-1.5,0.1-2,1.9-0.8,2.8c2.1,1.5,4.3,2.5,6.7,3.4c1.7,0.6,2.5-1.9,1.2-2.7c-1.4-0.9-2.8-1.8-4.3-2.7c-1.3-0.8-2.8,0.8-2.1,2.1
				c1.1,2,2.4,3,4.6,3.5c1.4,0.3,2.6-1.5,1.5-2.5c-1.6-1.4-2.9-2.8-4.3-4.4c-0.6,0.8-1.2,1.6-1.8,2.4c1.8,0.8,3.6,1.6,5.3,2.3
				c1.2,0.5,3.1-0.7,2.1-2.1c-1.2-1.7-2.4-2.8-4.3-3.8c-1.6-0.9-2.9,1.1-1.8,2.4c1.2,1.5,2.6,2.9,4,4.2c1.2,1,3.4-0.4,2.4-1.8
				c-1.9-2.6-3.9-5.1-5.8-7.7c-1.1-1.5-3.7-0.1-2.6,1.5c1.1,1.5,2.2,3,3.3,4.6c1.1,1.5,3.7,0.1,2.6-1.5c-1.3-1.9-5.1-11.7-8.5-6
				c-0.4,0.8-0.1,1.6,0.5,2.1c1.2,0.9,2.3,0.9,3.6,0.1c1.3-0.9,0.5-3.4-1.2-2.7c-1.9,0.7-2.6,1.6-2.8,3.6c0.6-0.5,1.3-1,1.9-1.4
				c-0.9-0.3-1.9-0.7-2.8-1c-1.7-0.6-2.5,1.8-1.2,2.7c2.4,1.6,4.9,3.1,7.5,4.4c1.7,0.9,3.1-1.5,1.5-2.6c-2.7-1.9-5.3-3.8-8.4-5.1
				c-1.5-0.7-3,1-1.8,2.4c2.1,2.5,4.5,4.5,7.2,6.3c1.6,1.1,3.1-1.5,1.5-2.6c-2.7-2-5.4-4.9-8.9-4.8c-1.6,0-1.9,2-0.8,2.8
				c1.9,1.3,3.7,2.6,5.6,3.9c1.6,1.1,3-1.4,1.5-2.6c-1.7-1.3-5.7-4.4-8-2.7c-0.7,0.6-1.1,1.6-0.3,2.4c1.5,1.4,2.9,2.2,5,2.6
				c1.7,0.3,2.6-1.7,1.2-2.7c-2.5-1.7-4.8-2.4-7.8-2.5c-1.6-0.1-1.9,2-0.8,2.8c1.9,1.4,3.7,2.1,6,2.5c1.2,0.2,2.4-1,1.7-2.2
				c-1.8-3-4-5.3-7-7.1c-1.5-0.9-3,1.1-1.8,2.4c1.5,1.5,3,2.4,5,3.1c1.4,0.4,2.2-1.1,1.7-2.2c-1.1-2.6-2.6-4.4-4.8-6.2
				c-0.8-0.6-2.3-0.6-2.5,0.7c-0.6,2.9,1.7,7.9,5.4,6.6c0.7-0.2,1.1-0.7,1.1-1.4c0.1-3-3.3-8.6-6.7-5.2c-2,2-0.3,6.7,2.7,6.6
				c4.1-0.1,1.9-5.5,0.2-7.2c-2.8-2.8-6.9-0.3-6.3,3.5c0.5,3.5,4.4,2.8,5.5-0.1c1.2-3.3-1.4-5.5-4.3-3.6c-2.7,1.9-3.1,7.1,1.1,7.4
				c3.2,0.2,4.8-4.1,2.1-6c-3.2-2.2-6.7,2.3-4,5c3.4,3.4,6.7-1.6,5.3-4.8c-0.4-0.9-1.8-0.9-2.4-0.3c-4.7,4.9,3,11,4.7,5.9
				c1.5-4.8-6.7-5.7-5.6-0.2c1.2,6.1,9,0.7,5.4-2.1c-2.9-2.2-6.4,5.3-1.1,5.6C110.5,32.9,110.5,29.9,108.6,29.8L108.6,29.8z"/>
		</g>
	</g>
	<g>
		<g>
			<path class="st0" d="M90.5,28.8v0.1c0.1,0.5,0.3,1,0.4,1.5c0.2-0.2,0.4-0.5,0.6-0.7c-0.6-0.2-1.1-0.5-1.7-0.7
				c0,0.1,0.1,0.1,0.1,0.2c0-0.5,0-1,0-1.5c-0.1,0.1-0.1,0.2-0.2,0.2c0.4-0.1,0.8-0.1,1.2-0.2c0.1,0.1,0.3,0.2,0.4,0.3
				c0.1,0.4,0.1,0.8,0.2,1.2c0.1-0.1,0.3-0.2,0.4-0.4c-0.4,0.1-0.8,0.1-1.2,0.2C90.6,28.9,90.5,28.8,90.5,28.8
				c-0.1-0.5-0.1-1-0.1-1.5c0.2,0.2,0.4,0.4,0.7,0.6c0.1,0.4,0.1,0.8,0.2,1.2c-0.1,0.7,3.4-0.1,3.7-0.2c1.7-0.3,3.6,0.7,5.3,1.2
				c1.8,0.6,2.6-2.3,0.8-2.9c-1.9-0.6-4.2-1.7-6.2-1.4c-1.2,0.2-2.2,0.3-3.5,0.3c-0.8,0-1.6,0.2-2.2,0.8c-2.6,2.4,2.1,5.4,3.9,2
				c1.7-3.2-4.1-3.9-4.4-0.3c-0.2,3.4,5.4,2,3.9-1.2c-0.3-0.6-1.1-0.8-1.7-0.7c-2.9,0.4-3.9,5.4-0.2,5
				C92.4,31.6,92.4,28.6,90.5,28.8L90.5,28.8z"/>
		</g>
	</g>
	<g>
		<g>
			<path class="st0" d="M96.8,34c1.3,0.9,3.2,0.6,4.2-0.5c0.5-0.6,0.6-1.5,0-2.1c-0.5-0.5-1.6-0.6-2.1,0c-0.1,0.1-0.1,0.1-0.2,0.2
				c0.1-0.1,0.1-0.1,0,0c0.2-0.1,0.2-0.1,0,0c-0.2,0-0.2,0-0.1,0s0.1,0-0.1,0s-0.2,0,0,0c-0.2-0.1-0.2,0,0,0c-0.1,0-0.2-0.1-0.2-0.1
				c-0.7-0.5-1.7-0.1-2.1,0.5C95.9,32.7,96.2,33.5,96.8,34L96.8,34z"/>
		</g>
	</g>
	<g>
		<g>
			<path class="st0" d="M108.4,28.5c-0.7-0.2-1.3-0.4-1.9-0.9c-0.4,0.9-0.7,1.7-1.1,2.6c0.6-0.1,1-0.1,1.6,0.1
				c0.2,0.1,0.3,0.2,0.5,0.3c0.4,0.6,0.5,0.6,0.4-0.1c0.3-0.2,0.6-0.5,0.9-0.7c-0.8,0.3-1.4-1.3,0.1-0.2c0.6,0.5,1.1,1.2,1.6,1.8
				c0.8,1,2.7,0.2,2.6-1.1c-0.1-0.9-0.3-1.7-0.7-2.6c-0.2,0.7-0.4,1.4-0.5,2.1c0.1,0,0.2-0.1,0.3-0.1c-0.4,0.1-0.8,0.1-1.2,0.2
				c0.8,0.2,1.6,0.6,2.4,1c1.5,0.6,3.1-1,1.8-2.4c-0.8-0.8-1.6-1.7-2.4-2.5c-0.6,0.8-1.2,1.6-1.8,2.4c0.8,0.5,1.5,1,2.1,1.6
				c1.5,1.3,3.6-0.9,2.1-2.1c-0.9-0.8-1.8-1.4-2.7-2.1c-1.5-1-3,1.2-1.8,2.4c0.8,0.8,1.6,1.7,2.4,2.5c0.6-0.8,1.2-1.6,1.8-2.4
				c-1.5-0.6-3-1.7-4.6-1c-0.8,0.4-0.9,1.4-0.5,2.1c0.2,0.3,0.3,0.7,0.3,1.1c0.9-0.4,1.7-0.7,2.6-1.1c-1.5-1.8-3.7-4.1-6.3-2.8
				c-2.3,1.2-2.2,4-0.3,5.4c1.5,1.1,5.2,1.7,4.8-1.3c-0.3-2.4-3.2-3.7-5.4-3.4c-1.1,0.2-2.2,1.6-1.1,2.6c1,0.8,2,1.4,3.2,1.7
				C109.5,31.8,110.3,28.9,108.4,28.5L108.4,28.5z"/>
		</g>
	</g>
	<g>
		<g>
			<path class="st0" d="M110,24.2C109.9,24.2,109.8,24.2,110,24.2c-0.1,0-0.2-0.1-0.3-0.1c-0.1,0-0.2-0.1-0.2-0.2
				c0.2,0.1,0,0-0.1-0.1c0,0-0.2-0.2-0.1-0.1s-0.1-0.1-0.1-0.1s-0.1-0.3-0.1-0.1c0.1,0.1-0.1-0.2-0.1-0.2c-0.5,0.6-1,1.3-1.4,1.9
				c0.4,0,0.7,0.1,1.2,0.3c0.3-1,0.5-1.9,0.8-2.9c-0.7-0.3-1.4-0.5-2.1-0.8c-0.8-0.3-1.6,0.3-1.8,1c-0.2,0.9,0.3,1.5,1,1.8
				s1.4,0.5,2.1,0.8c0.8,0.3,1.6-0.3,1.8-1c0.2-0.9-0.3-1.5-1-1.8c-0.6-0.3-1.3-0.4-2-0.4c-1,0-1.7,1-1.4,1.9c0.4,1.5,1.6,2.6,3,3.1
				c0.8,0.2,1.6-0.3,1.8-1C111.3,25.3,110.8,24.5,110,24.2L110,24.2z"/>
		</g>
	</g>
	<g>
		<g>
			<g>
				<path d="M78.8,33.9c0.9-5,5.4-5.7,9.7-4.8c0.7,0.2,1.1-1,0.3-1.1c-2.6-0.6-5.3-1-7.7,0.5c-1.9,1.1-3.1,3-3.5,5.2
					C77.5,34.3,78.7,34.6,78.8,33.9L78.8,33.9z"/>
			</g>
		</g>
		<g>
			<g>
				<path d="M86.6,28.4c4-4.4,9.1-3.7,14.1-1.5c0.7,0.3,1.3-0.7,0.6-1c-5.5-2.4-11.1-3.1-15.6,1.7C85.2,28.1,86.1,29,86.6,28.4
					L86.6,28.4z"/>
			</g>
		</g>
		<g>
			<g>
				<path d="M115.3,27.9c0.9-1.3,2.5-2.1,4.1-1.6c1.5,0.5,2,1.7,2.6,3s1.5,2.1,2.8,2.8c0.7,0.4,1.3-0.7,0.6-1
					c-2.6-1.4-2.6-4.7-5.4-5.8c-2.2-0.8-4.4,0.1-5.7,2C113.8,27.9,114.8,28.5,115.3,27.9L115.3,27.9z"/>
			</g>
		</g>
		<g>
			<g>
				<path d="M99.5,25c-2.4-2.2,3-3.9,4.2-3.9c1.6-0.1,3.3,0.2,4.8,0.8c2.6,1.2,3.8,3.6,5.1,6c0.4,0.7,1.4,0.1,1-0.6
					c-2.5-4.9-5.9-8.1-11.9-7.4c-2.2,0.3-6.9,3.4-4.1,5.9C99.2,26.4,100.1,25.5,99.5,25L99.5,25z"/>
			</g>
		</g>
		<g>
			<g>
				<path d="M113.2,30.4c-1.4-1.8-3.3-3.4-5.7-3.7c-2.7-0.3-3.8,2.4-5.9,3.5c-0.7,0.4-0.1,1.4,0.6,1s1.3-0.8,1.9-1.3
					c0.5-0.4,0.9-1.2,1.5-1.5c2.4-1.6,5.3,0.8,6.6,2.6C112.6,31.6,113.6,31,113.2,30.4L113.2,30.4z"/>
			</g>
		</g>
		<g>
			<g>
				<g>
					<path d="M73.7,54.6c-1-2-1.4-4.2-1-6.4c0.1-0.7-1-1.1-1.1-0.3c-0.5,2.5-0.1,5,1.1,7.3C73.1,55.9,74.1,55.3,73.7,54.6L73.7,54.6
						z"/>
				</g>
			</g>
			<g>
				<g>
					<path d="M72.9,47.6c-1.2-2.4-0.3-4.4,2.2-5.1c0.7-0.2,0.4-1.4-0.3-1.1c-1.4,0.4-2.7,1.2-3.3,2.5c-0.7,1.4-0.3,3,0.3,4.4
						C72.2,48.9,73.2,48.3,72.9,47.6L72.9,47.6z"/>
				</g>
			</g>
			<g>
				<g>
					<path d="M74.1,42c-0.5-0.7,1-3.7,1.3-4.3c0.7-1.4,1.8-2.5,3.3-3.1c0.7-0.3,0.4-1.4-0.3-1.1c-2.1,0.8-3.4,2.4-4.3,4.4
						c-0.6,1.4-1.8,3.6-0.8,5C73.8,43.5,74.6,42.6,74.1,42L74.1,42z"/>
				</g>
			</g>
			<g>
				<g>
					<path d="M74.5,54.6c0.1,0,2.1-3.4,2.3-3.8c0.6-1.1,1-2.3,1-3.6c0-0.8-1.2-0.8-1.2,0c0,2.2-1.4,3.8-2.4,5.7
						c-0.4,0.7-1.3,2.1-0.2,2.7C74.6,56,75.2,54.9,74.5,54.6L74.5,54.6z"/>
				</g>
			</g>
			<g>
				<g>
					<path d="M77.4,47.4c3.4-0.8,6.4-2.7,8.7-5.3c0.5-0.6-0.3-1.4-0.8-0.8c-2.2,2.5-4.9,4.2-8.1,5C76.3,46.4,76.6,47.5,77.4,47.4
						L77.4,47.4z"/>
				</g>
			</g>
			<g>
				<g>
					<path d="M85.1,41.5c3.6,0.2,6.9-0.8,9.9-2.8c0.6-0.4,0-1.5-0.6-1c-2.8,1.9-5.9,2.8-9.3,2.6C84.3,40.3,84.3,41.4,85.1,41.5
						L85.1,41.5z"/>
				</g>
			</g>
			<g>
				<g>
					<path d="M93.4,38.9c-0.1,1.6-1.4,2.9-3,3.3c-0.8,0.2-0.4,1.3,0.3,1.1c2.1-0.4,3.7-2.3,3.8-4.4C94.6,38.1,93.4,38.1,93.4,38.9
						L93.4,38.9z"/>
				</g>
			</g>
			<g>
				<g>
					<path d="M90.2,43.6c3.9,0.5,7.6-1.9,8.8-5.6c0.2-0.7-0.9-1-1.1-0.3c-1.1,3.2-4.3,5.2-7.6,4.7C89.5,42.4,89.5,43.5,90.2,43.6
						L90.2,43.6z"/>
				</g>
			</g>
			<g>
				<g>
					<path d="M98.6,39.1c0.7-4.7,7.2-3.7,9.9-1.8c0.6,0.4,1.2-0.6,0.6-1c-3.4-2.4-10.9-3-11.7,2.5C97.3,39.5,98.5,39.8,98.6,39.1
						L98.6,39.1z"/>
				</g>
			</g>
			<g>
				<g>
					<path d="M109.4,37.7c1.9-1.3,4-2,6-0.5c1.3,1,1.5,2,2.5,3.2c1.2,1.5,2.9,2.4,4.8,2.8c0.7,0.2,1.1-1,0.3-1.1
						c-2.4-0.5-3.8-1.8-5-3.8c-0.7-1.1-1.2-2.1-2.4-2.7c-2.3-1.1-4.7-0.2-6.7,1.1C108.1,37.2,108.7,38.2,109.4,37.7L109.4,37.7z"/>
				</g>
			</g>
			<g>
				<g>
					<path d="M122.6,43.6c1.1-0.1,2.2-0.2,3.3-0.5c0.7-0.2,0.4-1.3-0.3-1.1c-1,0.2-2,0.4-3,0.4C121.8,42.5,121.8,43.7,122.6,43.6
						L122.6,43.6z"/>
				</g>
			</g>
			<g>
				<g>
					<path d="M122.2,43.9c1.9,2.6,4.9,4.3,6.4,7.2c0.3,0.7,1.4,0.1,1-0.6c-1.4-3-4.5-4.6-6.4-7.2C122.7,42.6,121.7,43.2,122.2,43.9
						L122.2,43.9z"/>
				</g>
			</g>
			<g>
				<g>
					<path d="M129.7,51.4c-1.2-5.9,2-11.9-4.1-15.8c-0.7-0.4-1.2,0.6-0.6,1c5.6,3.5,2.5,9.8,3.6,15.1
						C128.7,52.5,129.8,52.1,129.7,51.4L129.7,51.4z"/>
				</g>
			</g>
			<g>
				<g>
					<path d="M127.2,37.1c0.1-4.2-4.9-7.6-8.5-8.5c-0.7-0.2-1.1,1-0.3,1.1c3.1,0.8,7.7,3.8,7.7,7.4C126,37.8,127.2,37.8,127.2,37.1
						L127.2,37.1z"/>
				</g>
			</g>
			<g>
				<g>
					<path d="M89.6,32.9c0.2,3.4-4.2,3.7-6.4,4.9c-1.5,0.8-2.6,2.1-2.7,3.8c-0.1,0.8,1.1,0.8,1.2,0c0.3-3.3,4.7-3.3,6.8-4.7
						c1.4-0.9,2.4-2.3,2.3-4C90.8,32.1,89.6,32.1,89.6,32.9L89.6,32.9z"/>
				</g>
			</g>
			<g>
				<g>
					<path d="M73.5,61c-2.8-3.5-1.1-7.1-1.4-11.1c-0.1-0.8-1.3-0.8-1.2,0c0.2,2.5-0.7,5.1-0.3,7.6c0.3,1.7,1,3.1,2,4.4
						C73.1,62.4,74,61.6,73.5,61L73.5,61z"/>
				</g>
			</g>
			<g>
				<g>
					<path d="M74.2,61.2c-0.5-2.1-0.6-4.2-0.5-6.3c0-0.8-1.1-0.8-1.2,0c-0.1,2.2,0.1,4.5,0.6,6.7C73.2,62.3,74.3,62,74.2,61.2
						L74.2,61.2z"/>
				</g>
			</g>
			<g>
				<g>
					<path d="M129.9,56.8c-1.1-2.9-2.2-5.8-3.1-8.7c-0.2-0.7-1.4-0.4-1.1,0.3c0.9,2.9,1.9,5.8,3.1,8.7
						C129,57.8,130.2,57.5,129.9,56.8L129.9,56.8z"/>
				</g>
			</g>
			<g>
				<g>
					<path d="M129.8,56.4c0.4-2.7,0.3-5.4-0.2-8.1c-0.1-0.8-1.3-0.4-1.1,0.3c0.5,2.5,0.5,5,0.2,7.5
						C128.5,56.8,129.7,57.1,129.8,56.4L129.8,56.4z"/>
				</g>
			</g>
		</g>
	</g>
	<g>
		<g>
			<g>
				<path class="st1" d="M104.1,25.2c-0.3-0.3-0.8-0.5-1-0.7c-0.7-1,1.5-0.8,2.1-0.8c1.6,0.1,3,0.7,4,1.9c0.5,0.6,1.3-0.2,0.8-0.8
					c-1.7-2.1-4.4-2.6-6.9-2.1c-0.7,0.1-1.6,0.3-1.7,1.2c-0.1,1.2,1.2,1.5,1.8,2.2C103.8,26.6,104.6,25.7,104.1,25.2L104.1,25.2z"/>
			</g>
		</g>
		<g>
			<g>
				<path class="st1" d="M103.3,33.2c0.8-0.3,1.7-0.6,2.4-1.2c0.9-0.7,1.2-1.6,2.4-1.8c0.8-0.1,0.4-1.3-0.3-1.1
					c-0.9,0.2-1.5,0.6-2.1,1.3c-0.7,0.9-1.6,1.3-2.7,1.7C102.2,32.4,102.5,33.5,103.3,33.2L103.3,33.2z"/>
			</g>
		</g>
		<g>
			<g>
				<path class="st1" d="M79.9,40.1c0.4-1.8,1.5-3.3,3.2-4.2c0.7-0.4,1.5-0.5,2.2-1c0.6-0.4,0.9-1,1.3-1.6c0.4-0.7-0.6-1.3-1-0.6
					c-1,1.7-3,1.9-4.5,3.2c-1.1,1-1.9,2.4-2.3,3.9C78.5,40.5,79.7,40.8,79.9,40.1L79.9,40.1z"/>
			</g>
		</g>
		<g>
			<g>
				<path class="st1" d="M75.1,50.5c-0.2-0.9-0.2-1.8,0.1-2.7c0.2-0.7-0.9-1-1.1-0.3c-0.3,1.1-0.4,2.2-0.1,3.3
					C74.2,51.6,75.3,51.3,75.1,50.5L75.1,50.5z"/>
			</g>
		</g>
		<g>
			<g>
				<path class="st1" d="M114.7,34.2c2.7-0.3,3.6,2.9,5.2,4.4c1.3,1.2,2.8,1.2,4.5,1.1c0.8,0,0.8-1.2,0-1.2c-1.6,0.1-2.9,0-4.1-1.2
					c-0.7-0.7-1.1-1.6-1.7-2.4c-1-1.3-2.3-2.1-3.9-1.9C114,33.1,114,34.2,114.7,34.2L114.7,34.2z"/>
			</g>
		</g>
	</g>
</g>
</svg>
