<svg id="Layer_1" data-name="Layer 1" xmlns="http://www.w3.org/2000/svg" viewBox="0 0 71.85 97.36"><defs><style>.cls-1{fill:#603015;}.cls-2{fill:#100d0c;}.cls-3{fill:#613617;}</style></defs><title>Brown</title><g id="_Group_" data-name="&lt;Group&gt;"><path class="cls-1" d="M82.5,120.3a7.07,7.07,0,0,0,2.5,1.1,2.16,2.16,0,0,1-1.1-.1,5.67,5.67,0,0,1-1.3-.8C82.7,120.5,82.6,120.4,82.5,120.3Z" transform="translate(-63.39 -25.54)"/><path class="cls-1" d="M80,120.6a6.42,6.42,0,0,1-4.2,1l.1-.3a4,4,0,0,0-4.1-.3c-.6.3-1.3.8-1.8.4h0a3.79,3.79,0,0,0-3.1-.8,5,5,0,0,1-1.3.3,1,1,0,0,1-1-.7V120c0-8.9-.1-17.8-.1-26.7,0-4.5,0-9,.2-13.5h.1c-.2-5.8-.4-11.7-.6-17.5a90,90,0,0,1,.1-10.4,27.22,27.22,0,0,1,1.6-7.4,21.49,21.49,0,0,1,2.8-4.9A32.69,32.69,0,0,1,82.1,28a21.46,21.46,0,0,1,17.2-.4,21.46,21.46,0,0,1,17.2.4,32.69,32.69,0,0,1,13.4,11.6,26.82,26.82,0,0,1,2.8,4.9,26.44,26.44,0,0,1,1.6,7.4,90.22,90.22,0,0,1,.1,10.4c-.2,6.4-.4,12.9-.6,19.3h-.1c-.2,4.5-.2,9-.2,13.5,0,8.8.1,17.7.1,26.5h-.1c0,.3-.5.4-.9.4a5.55,5.55,0,0,1-2.2-.6l-.6-.3a2,2,0,0,0-1.3.4c-.4.2-1,.3-1.3-.1h-1.8l-.9.3a3.75,3.75,0,0,1-2.1,0l-.8.1c-1.4,0-2.8-.1-4.2-.2h-1.2a4.48,4.48,0,0,0-1.2-.1,3.47,3.47,0,0,1-2.5-1l-.6-.1a2.29,2.29,0,0,1-1.2-1.5l.3-.2c-.2-.3-.1-.8-.1-1.2a57.76,57.76,0,0,0-.3-14.4h.1a26.1,26.1,0,0,1-.1-5.6c.1-1.4.1-2.7.2-4.1h.2a2.13,2.13,0,0,1,.7-1.2,6.08,6.08,0,0,1,1.8-.9,26.44,26.44,0,0,0,12-9.1h.2c.2-1.2.3-2.5.5-3.7.4-2.6.9-5.1,1.2-7.7a82.48,82.48,0,0,0-.2-17.9,19.9,19.9,0,0,0-1.1-5.5,12.35,12.35,0,0,0-3.5-4.7,16.69,16.69,0,0,0-11.2-4.1,17,17,0,0,0-11.1,4.5H100a17,17,0,0,0-11.1-4.5,16.33,16.33,0,0,0-11.2,4.1,12.35,12.35,0,0,0-3.5,4.7,19.9,19.9,0,0,0-1.1,5.5A91.34,91.34,0,0,0,73,71c.3,2.6.8,5.2,1.2,7.7.1.8.3,1.7.4,2.5A33.82,33.82,0,0,0,88.5,91.5a2.92,2.92,0,0,1,1.2.7l.2.2-.1.1a30.29,30.29,0,0,1-.2,10.4,5.46,5.46,0,0,1-.6,1.8,1.89,1.89,0,0,1-1.6.9l-.3.4c-.3,3.4.4,6.9.1,10.4-.1.7-.1,1.4-.2,2l-.3,2.1a.76.76,0,0,1-.2.4c-.1.1-.3,0-.4.1a.66.66,0,0,0-.5.4c-.2.2-.4.2-.6.3a7.07,7.07,0,0,1-2.5-1.1l.2.2h0a2.62,2.62,0,0,0-2.7-.2Z" transform="translate(-63.39 -25.54)"/></g><path class="cls-2" d="M65.8,120c-1.7-1.9-.5-9.4-.5-11.9V95.5c0-8.4.1-16.8.3-25.3a.6.6,0,1,0-1.2,0c-.1,9.7-.2,19.4-.3,29.2V113c0,2.5-.9,5.8.9,7.9.5.5,1.3-.3.8-.9Z" transform="translate(-63.39 -25.54)"/><path class="cls-2" d="M65.6,71.2c-.6-7.5-1.7-16,0-23.5,1.6-7.2,8.5-14.4,15-17.7.7-.3.1-1.4-.6-1-5.8,2.9-12,9-14.6,15.1-3.3,8.1-1.7,18.6-1,27.1,0,.7,1.2.8,1.2,0Z" transform="translate(-63.39 -25.54)"/><path class="cls-2" d="M79.5,30.5a23.54,23.54,0,0,1,9.6-3.4c2.7-.3,7.8-.7,9.9,1.3.6.5,1.4-.3.8-.8-2.2-2.1-6.8-2-9.5-1.8a24.53,24.53,0,0,0-11.4,3.8c-.6.3,0,1.3.6.9Z" transform="translate(-63.39 -25.54)"/><path class="cls-2" d="M99.5,28.4c8.2-3.3,18.4-1.7,24.3,5.1.5.6,1.3-.3.8-.8-6.1-7.2-16.8-8.9-25.4-5.4-.7.2-.4,1.4.3,1.1Z" transform="translate(-63.39 -25.54)"/><path class="cls-2" d="M65.8,121.6c1.5-.4,3.2-.9,4.4.4.5.6,1.3-.3.8-.8-1.5-1.6-3.7-1.3-5.5-.8a.62.62,0,0,0,.3,1.2Z" transform="translate(-63.39 -25.54)"/><path class="cls-2" d="M71,122.3a3.69,3.69,0,0,1,2.4-1,2.26,2.26,0,0,1,1.9,1.1c.5.6,1.4-.3.8-.8a3.93,3.93,0,0,0-2.8-1.5,5.48,5.48,0,0,0-3.2,1.4c-.5.5.4,1.3.9.8Z" transform="translate(-63.39 -25.54)"/><path class="cls-2" d="M76.4,122.5a19.64,19.64,0,0,1,4.6-1.7c1.7-.4,2.4.6,3.8,1.1a.57.57,0,0,0,.3-1.1c-1.5-.5-2.1-1.5-3.9-1.2a17.6,17.6,0,0,0-5.4,2c-.7.3-.1,1.3.6.9Z" transform="translate(-63.39 -25.54)"/><path class="cls-2" d="M85,122.2c3-.9,2.5-3.5,2.4-6.1a47.15,47.15,0,0,1,.4-7.5c.4-2,1.5-3.6,1.7-5.7.1-.8-1.1-.8-1.2,0,.1-.7-1.6,3.6-1.6,4.1a23,23,0,0,0-.2,3.7c-.1,2.1.8,9.5-1.8,10.3a.62.62,0,1,0,.3,1.2Z" transform="translate(-63.39 -25.54)"/><path class="cls-2" d="M89.1,103.9a41.93,41.93,0,0,0,1.1-5.1,31,31,0,0,0,.2-6.8c-.1-.8-1.3-.8-1.2,0a30.09,30.09,0,0,1-.1,6,50.41,50.41,0,0,1-1.1,5.6c-.3.7.9,1,1.1.3Z" transform="translate(-63.39 -25.54)"/><path class="cls-2" d="M89.9,91.2c-5.3-2-12.1-5.1-15.1-10.2a.58.58,0,1,0-1,.6C77,87.1,84,90.2,89.6,92.4a.62.62,0,0,0,.3-1.2Z" transform="translate(-63.39 -25.54)"/><path class="cls-2" d="M125.1,82.1a29.14,29.14,0,0,1-8.3,6.9c-2.3,1.3-5.1,1.8-6.5,4.2a.58.58,0,1,0,1,.6c1.5-2.6,5.9-3.5,8.4-5.2a33.08,33.08,0,0,0,6.2-5.6c.6-.6-.3-1.4-.8-.9Z" transform="translate(-63.39 -25.54)"/><path class="cls-2" d="M112.6,120.3c-1.8-1.6-1-5-.9-7,.1-2.5.1-5,.1-7.4,0-4.1-.3-8.2-.3-12.3a.6.6,0,1,0-1.2,0c0,5.4.3,10.7.3,16.1,0,3.4-1.7,8.9,1.2,11.5.6.4,1.4-.4.8-.9Z" transform="translate(-63.39 -25.54)"/><path class="cls-2" d="M111.9,121.4a2,2,0,0,0,1.6.7c1.1,0,2-.4,3,.1.7.3,1.3-.7.6-1a3.44,3.44,0,0,0-2-.4c-.8,0-1.8.6-2.4-.1-.4-.8-1.2.1-.8.7Z" transform="translate(-63.39 -25.54)"/><path class="cls-2" d="M117,122.5a3.58,3.58,0,0,0,2.5,0,9.19,9.19,0,0,1,3.7-.4c.8.1.8-1.1,0-1.2a8.68,8.68,0,0,0-2.8.1c-.5.1-.9.3-1.4.4a2.92,2.92,0,0,1-1.6-.1c-.8-.1-1.2,1-.4,1.2Z" transform="translate(-63.39 -25.54)"/><path class="cls-2" d="M123.2,122.1a2.34,2.34,0,0,0,2,.1c.3-.1.7-.5,1.1-.4s.6.4.9.6c.6.4,1.2-.6.6-1s-.8-.9-1.5-.9c-.9,0-1.6,1.1-2.5.6a.58.58,0,1,0-.6,1Z" transform="translate(-63.39 -25.54)"/><path class="cls-2" d="M127.2,122.8a1.24,1.24,0,0,0,1.4-.3c.4-.3.4-.7,1.1-.7a3.36,3.36,0,0,1,1.4.5c1,.5,2.1.7,2.9-.4.4-.6-.6-1.2-1-.6s-2.4-.7-3.1-.7a2.15,2.15,0,0,0-1.1.2c-.3.2-.9,1-1.3.9-.7-.3-1,.8-.3,1.1Z" transform="translate(-63.39 -25.54)"/><path class="cls-2" d="M133.8,122a61.57,61.57,0,0,0,.2-9.6c-.3-3.3.4-6.5.1-9.8-.1-.8-1.3-.8-1.2,0,.3,3.3-.4,6.5-.1,9.8a51.52,51.52,0,0,1-.2,9.6.6.6,0,1,0,1.2,0Z" transform="translate(-63.39 -25.54)"/><path class="cls-2" d="M134.2,103.3c-1.1-7.2-.2-15.1,0-22.4a.6.6,0,1,0-1.2,0c-.1,7.4-1.1,15.3,0,22.7.2.7,1.3.4,1.2-.3Z" transform="translate(-63.39 -25.54)"/><path class="cls-2" d="M134.2,82c.3-9.2.6-18.3.8-27.5a.6.6,0,1,0-1.2,0c-.3,9.2-.6,18.3-.8,27.5a.6.6,0,1,0,1.2,0Z" transform="translate(-63.39 -25.54)"/><path class="cls-2" d="M123.5,33.4c7,4.7,11,13.7,10.5,22a.6.6,0,1,0,1.2,0c.5-8.7-3.7-18.1-11.1-23-.6-.5-1.2.6-.6,1Z" transform="translate(-63.39 -25.54)"/><path class="cls-2" d="M75,81.6c-1.6-9.7-2.4-18.7-.9-28.5.8-4.9,2.5-9,7.1-11.4,5.3-2.9,14.7-3,18.4,2.6.4.6,1.5,0,1-.6-5.3-7.9-19.2-6-24.6.8-3.7,4.7-3.7,12.1-3.9,17.8a99.2,99.2,0,0,0,1.7,19.6.62.62,0,0,0,1.2-.3Z" transform="translate(-63.39 -25.54)"/><path class="cls-2" d="M100.5,44.4c2.5-4.4,10.6-5.1,15.1-4.1a14,14,0,0,1,10.8,9.5c.2.7,1.4.4,1.1-.3-1.9-6-6.9-9.7-13.1-10.6-4.8-.6-12.3.3-15,4.9-.3.7.7,1.3,1.1.6Z" transform="translate(-63.39 -25.54)"/><path class="cls-2" d="M125.9,82.9A90,90,0,0,0,127.3,49c-.1-.8-1.3-.4-1.1.3a86.83,86.83,0,0,1-1.4,33.3c-.2.8,1,1.1,1.1.3Z" transform="translate(-63.39 -25.54)"/><path class="cls-2" d="M73.6,80.6c.3,5.5.7,11.1,1.3,16.6.1.8,1.3.8,1.2,0-.6-5.5-1.1-11-1.3-16.6,0-.7-1.2-.7-1.2,0Z" transform="translate(-63.39 -25.54)"/><path class="cls-2" d="M125.4,80.6c-1.1,6.2-1.2,12.5-1.5,18.7a.6.6,0,1,0,1.2,0c.3-6.1.3-12.4,1.4-18.4a.57.57,0,0,0-1.1-.3Z" transform="translate(-63.39 -25.54)"/><path class="cls-2" d="M128.8,116.7a76.19,76.19,0,0,1-.2-11.7c.3-4,1.1-8,.9-12a.6.6,0,1,0-1.2,0c.2,4.1-.7,8-.9,12a91.4,91.4,0,0,0,.2,11.7.6.6,0,1,0,1.2,0Z" transform="translate(-63.39 -25.54)"/><path class="cls-2" d="M75.7,97.1a62.39,62.39,0,0,1-3.5-9.4.57.57,0,0,0-1.1.3,56.57,56.57,0,0,0,3.6,9.7c.3.7,1.4.1,1-.6Z" transform="translate(-63.39 -25.54)"/><path class="cls-2" d="M124.9,100a49,49,0,0,0,4.2-7.8c.3-.7-.9-1-1.1-.3a38.73,38.73,0,0,1-4.1,7.5.58.58,0,1,0,1,.6Z" transform="translate(-63.39 -25.54)"/><path class="cls-2" d="M71.1,88.7a103.58,103.58,0,0,1,.8,12.5.6.6,0,1,0,1.2,0,104.9,104.9,0,0,0-.8-12.5c-.1-.7-1.3-.7-1.2,0Z" transform="translate(-63.39 -25.54)"/><path class="cls-2" d="M73.6,110.4c-.1-1.8-.2-3.7-.4-5.5a.6.6,0,1,0-1.2,0c.1,1.8.2,3.7.4,5.5.1.7,1.3.8,1.2,0Z" transform="translate(-63.39 -25.54)"/><path class="cls-2" d="M73.2,105.2v-3.7a.6.6,0,1,0-1.2,0v3.7a.6.6,0,1,0,1.2,0Z" transform="translate(-63.39 -25.54)"/><path class="cls-3" d="M76.9,113.3c-.7-4-1.3-8-2-12-.2-1.1-1.9-.7-1.7.5.7,4,1.3,8,2,12,.1,1.1,1.9.6,1.7-.5Z" transform="translate(-63.39 -25.54)"/><path class="cls-3" d="M124.8,102.2a30.37,30.37,0,0,0,.4,5.2,19.94,19.94,0,0,1-.4,6.9c-.3,1.1,1.5,1.6,1.7.5a21.43,21.43,0,0,0,.6-6.2c-.1-2.2-.7-4.3-.5-6.4,0-1.1-1.7-1.1-1.8,0Z" transform="translate(-63.39 -25.54)"/><path class="cls-3" d="M115.7,115.9c-.7-5.9-1.3-11.9-1.7-17.8-.1-1.1-1.9-1.1-1.8,0,.4,6,1,11.9,1.7,17.8.1,1.1,1.9,1.1,1.8,0Z" transform="translate(-63.39 -25.54)"/><path class="cls-3" d="M83.9,114.3c.6-4.3,1.2-8.7,1.8-13,.2-1.1-1.6-1.6-1.7-.5-.6,4.3-1.2,8.7-1.8,13-.1,1.1,1.6,1.6,1.7.5Z" transform="translate(-63.39 -25.54)"/><path class="cls-3" d="M73.5,85.1c-.7-2.9-1.3-5.8-1.8-8.8-.2-1.1-1.9-.7-1.7.5a65.36,65.36,0,0,0,1.8,8.8.89.89,0,0,0,1.7-.5Z" transform="translate(-63.39 -25.54)"/><path class="cls-3" d="M68.8,117.5a67.67,67.67,0,0,1-.1-7.8c0-1.1-1.7-1.1-1.8,0-.1,2.6,0,5.2.1,7.8.1,1.2,1.9,1.2,1.8,0Z" transform="translate(-63.39 -25.54)"/><path class="cls-3" d="M132.2,118.4a31.14,31.14,0,0,1-.2-6.8c.1-1.1-1.7-1.1-1.8,0a30.78,30.78,0,0,0,.2,6.8c.1,1.1,1.9,1.1,1.8,0Z" transform="translate(-63.39 -25.54)"/><path class="cls-3" d="M127.6,92a10.21,10.21,0,0,1,.7-3.8c.4-1.1-1.4-1.6-1.7-.5a12.34,12.34,0,0,0-.7,4.2.86.86,0,1,0,1.7.1Z" transform="translate(-63.39 -25.54)"/><path class="cls-3" d="M68,52.9a18.14,18.14,0,0,1,4.4-12,.92.92,0,0,0-1.3-1.3,19.55,19.55,0,0,0-4.9,13.3.9.9,0,0,0,1.8,0Z" transform="translate(-63.39 -25.54)"/><path class="cls-3" d="M81.5,39c1.1-1.6,3.4-1.6,5.1-1.8l5.4-.6c1.1-.1,1.1-1.9,0-1.8-2.6.3-5.2.4-7.8.8A6.35,6.35,0,0,0,80,38.1c-.7.9.9,1.8,1.5.9Z" transform="translate(-63.39 -25.54)"/><path class="cls-3" d="M98.8,31.4c-1.2,1.3-.2,3.7,1.7,2.9s.9-3.1-.8-3.3a.9.9,0,0,0-.9,1.1,7.77,7.77,0,0,1,.2,1.6c.2.6.5,2.7.1,3.3a.93.93,0,0,0,.3,1.2,3.81,3.81,0,0,0,1,.3c-.2-.4-.4-.7-.6-1.1-.3,1-.5,2-.8,3s1.3,1.5,1.7.5a6.9,6.9,0,0,0,.4-2.5c-.1-1.1-1.9-1.1-1.8,0a3.52,3.52,0,0,1-.3,2c.6.2,1.1.3,1.7.5.3-1,.5-2,.8-3a.91.91,0,0,0-.6-1.1,4.33,4.33,0,0,1-.5-.1l.3,1.2a5.33,5.33,0,0,0,.4-2.8,12.5,12.5,0,0,0-.3-1.9,7.77,7.77,0,0,0-.2-1.6,10.63,10.63,0,0,1-.9,1.1c.1,0,.2-.1.3-.1a.85.85,0,1,0-1.2-1.2Z" transform="translate(-63.39 -25.54)"/><path class="cls-3" d="M100,33.5a4.62,4.62,0,0,1,.7-2.6.87.87,0,0,0-1.5-.9,1.16,1.16,0,0,1-.7.5,10.63,10.63,0,0,1,1.1.9,2.48,2.48,0,0,1,.8-1.4l-1.5-.6a.46.46,0,0,1-.3.5,6.94,6.94,0,0,0,1.3.5v-.1c-.1.3-.3.7-.4,1a.1.1,0,0,0,.1-.1c-.2,0-.5.1-.7.1H99l-.6-.6c.1-.2.1-.1-.1.2,0,.2-.1.3-.1.5-.1.4-.2.8-.3,1.1a.88.88,0,0,0,1.3,1c.3-.2.7-.3,1-.5l-1.3-1c-.2.5-.3,1.1-.5,1.6-.4,1.1,1.4,1.6,1.7.5.2-.5.3-1.1.5-1.6.3-.8-.7-1.3-1.3-1-.3.2-.7.3-1,.5l1.3,1c.2-.8.8-1.9.5-2.7a1.05,1.05,0,0,0-1.6-.6.86.86,0,0,0-.4,1v.1c.1.6.9.7,1.3.5a1.88,1.88,0,0,0,1.2-2,.88.88,0,0,0-1.5-.6,3.85,3.85,0,0,0-1.3,2.6c-.1.6.6,1,1.1.9a2.83,2.83,0,0,0,1.7-1.3L99.1,30a6.32,6.32,0,0,0-.9,3.5.9.9,0,0,0,1.8,0Z" transform="translate(-63.39 -25.54)"/><path class="cls-3" d="M98.6,36.2a1,1,0,0,1,.2.9.87.87,0,0,0,1.5.9,2.62,2.62,0,0,0-.2-2.7.86.86,0,0,0-1.2-.3.84.84,0,0,0-.3,1.2Z" transform="translate(-63.39 -25.54)"/><path class="cls-3" d="M100.9,38.7c0,.2.1,0,.2-.1s.3-.2.5-.3c1-.5.1-2.1-.9-1.5a2.5,2.5,0,0,0-1.6,2.5.91.91,0,0,0,1.1.6,1.09,1.09,0,0,0,.7-1.2Z" transform="translate(-63.39 -25.54)"/><path class="cls-3" d="M100.6,38.4a.9.9,0,0,0,0-1.8.9.9,0,1,0,0,1.8Z" transform="translate(-63.39 -25.54)"/><path class="cls-3" d="M101.4,35.6a.9.9,0,0,0,0-1.8.9.9,0,0,0,0,1.8Z" transform="translate(-63.39 -25.54)"/><path class="cls-3" d="M101.2,35.3a.9.9,0,0,0,0-1.8.9.9,0,0,0,0,1.8Z" transform="translate(-63.39 -25.54)"/><path class="cls-3" d="M100.9,35.4a.9.9,0,0,0,0-1.8c-1.1.1-1.1,1.8,0,1.8Z" transform="translate(-63.39 -25.54)"/><path class="cls-3" d="M102,34.5c.1-.1.1-.2.2-.3.5-1-1-1.9-1.5-.9-.1.1-.1.2-.2.3-.5,1,1,1.9,1.5.9Z" transform="translate(-63.39 -25.54)"/><path class="cls-3" d="M97.8,36.2l.3.3a.92.92,0,0,0,1.3-1.3l-.3-.3a.92.92,0,0,0-1.3,1.3Z" transform="translate(-63.39 -25.54)"/><path class="cls-3" d="M108.8,37.2a13.51,13.51,0,0,1,11.5,2.3c.9.7,2.2-.6,1.3-1.3a14.94,14.94,0,0,0-13.2-2.8.92.92,0,0,0,.4,1.8Z" transform="translate(-63.39 -25.54)"/><path class="cls-3" d="M128.7,45.3A18.84,18.84,0,0,1,130.3,57c-.2,1.1,1.5,1.6,1.7.5a21.23,21.23,0,0,0-1.8-13.1c-.5-1-2-.1-1.5.9Z" transform="translate(-63.39 -25.54)"/><path class="cls-3" d="M129.1,65.7a37.73,37.73,0,0,1-.9,10.6c-.3,1.1,1.5,1.6,1.7.5a37.69,37.69,0,0,0,1-11.1.9.9,0,0,0-1.8,0Z" transform="translate(-63.39 -25.54)"/><path class="cls-3" d="M69,98c-.1-1.4-.1-2.8-.2-4.2-.1-1.1-1.8-1.2-1.8,0,.1,1.4.1,2.8.2,4.2A.9.9,0,1,0,69,98Z" transform="translate(-63.39 -25.54)"/></svg>