<svg id="Layer_1" data-name="Layer 1" xmlns="http://www.w3.org/2000/svg" viewBox="0 0 68.39 90.92"><defs><style>.cls-1{fill:#ef7a22;}.cls-2{fill:#231f20;}.cls-3{fill:#060706;}.cls-4{fill:#ed8622;}</style></defs><title>Orange</title><g id="_Group_" data-name="&lt;Group&gt;"><path class="cls-1" d="M90.3,8.4h0a4.64,4.64,0,0,1,1.6-1.8A10.15,10.15,0,0,1,96.4,5a11,11,0,0,1,6.7.7A6.44,6.44,0,0,1,106.3,9h.4a7.88,7.88,0,0,1,5.8,1.1,7.19,7.19,0,0,1,3,5.1,16.72,16.72,0,0,1-.7,5.4,11.28,11.28,0,0,1-2.8,5.8l-.1.3A27.78,27.78,0,0,0,100.1,25a30.36,30.36,0,0,0-11.2,1.5l-.2-.5a9.05,9.05,0,0,1-6.8-6.9,9.22,9.22,0,0,1,3.5-9A8.8,8.8,0,0,1,90.3,8.4Z" transform="translate(-66.06 -4.13)"/><path class="cls-1" d="M85.9,46c-.3-.6-1.2-.6-1.9-.3a10.41,10.41,0,0,1-1.6.6l-.6-.3a1.08,1.08,0,0,0-1.4-.4,4.42,4.42,0,0,1-1.5.5c-.5.1-1.1-.3-1.1-.7h-.5c-2,2.6-2.7,6-3.3,9.2a87.54,87.54,0,0,0-1.8,12.5,76.08,76.08,0,0,0,1.5,17.1c.6,3.3,1.2,6.7,1.9,10a10.82,10.82,0,0,1-3.1-3.3h0a97.64,97.64,0,0,1-5.6-33.4H67c-.8-3.4.3-7,1.6-10.2,3.4-8.2,9.3-15.8,17.3-19.6a18.77,18.77,0,0,1,3-1.2A28.41,28.41,0,0,1,100.1,25a29.69,29.69,0,0,1,11.8,1.7,24.43,24.43,0,0,1,2.4,1c8,3.9,13.9,11.4,17.3,19.6a17.94,17.94,0,0,1,1.8,8.7h0a97.64,97.64,0,0,1-5.6,33.4l-.1.4a10.56,10.56,0,0,1-3.7,4.4c.7-3.3,1.3-6.6,1.9-10a75.08,75.08,0,0,0,1.5-17.1,104.33,104.33,0,0,0-1.7-12.5c-.6-3.2-1.3-6.6-3.3-9.2h-.9a1.5,1.5,0,0,1-1.3.1c-.2-.1-.4-.3-.6-.4-.7-.3-1.3.4-1.9.8a2.42,2.42,0,0,1-2.8-.2h-.1a1.48,1.48,0,0,0-1.6-.7,5.31,5.31,0,0,0-1.7.8,2.34,2.34,0,0,1-1.8.3c-.8-.2-1.4-1.1-2.3-1a1.42,1.42,0,0,0-.6.2c-.8.3-1.6.7-2.4,1l-.1-.2a2.46,2.46,0,0,1-2.6-.3,2.65,2.65,0,0,0-.6-.5c-.9-.4-1.9.9-2.9.7-.4,0-.7-.3-1-.4a2,2,0,0,0-2.3.6h-.3a3.38,3.38,0,0,0-3.6-.4,3.18,3.18,0,0,1-.9.3c-.3,0-.5-.3-.8-.4a1.91,1.91,0,0,0-1.8,0,2.62,2.62,0,0,1-.9.5c-.3.4-.7.2-.7-.2Z" transform="translate(-66.06 -4.13)"/></g><path class="cls-2" d="M76,93.7c-5.7-7.6-7.2-16.7-8.1-25.9-.1-.8-1.3-.8-1.2,0,1,9.4,2.5,18.7,8.3,26.5.5.6,1.5,0,1-.6Z" transform="translate(-66.06 -4.13)"/><path class="cls-2" d="M68,68.3c-.5-5.5-1.3-11.8,0-17.2,1.3-5.8,5.6-11.3,9.4-15.8,8.9-10.4,22.4-10.8,34.8-7.9.7.2,1.1-1,.3-1.1-12.1-2.9-25.8-2.8-34.9,6.9-3.8,4-7.7,9.2-9.8,14.3-2.6,6.4-1.7,14.1-1,20.8.1.8,1.3.8,1.2,0Z" transform="translate(-66.06 -4.13)"/><path class="cls-2" d="M76,93.8c-1.8-8.1-3.4-16.2-2.9-24.5.5-8,2.4-15.8,4.5-23.6a.57.57,0,1,0-1.1-.3c-2.1,7.8-4.1,15.8-4.5,23.9-.5,8.5,1.1,16.6,2.9,24.9.1.7,1.2.3,1.1-.4Z" transform="translate(-66.06 -4.13)"/><path class="cls-2" d="M77,45.8a3.66,3.66,0,0,0,2.5.9,2,2,0,0,0,1.1-.3c.2-.1.5-.4.7-.4s.7.7.8.8c.6.5,1.4-.3.8-.8s-1.3-1.5-2.1-1.1a6,6,0,0,1-1.1.6,1.9,1.9,0,0,1-1.9-.5c-.5-.5-1.3.3-.8.8Z" transform="translate(-66.06 -4.13)"/><path class="cls-2" d="M82.8,47.6c.7-.4,1.4-.9,2.1-1.3.9-.4.8,0,1.4.4a1.21,1.21,0,0,0,1,.3c.6,0,1.6-1,2-.8.7.3,1.3-.7.6-1a1.72,1.72,0,0,0-1.7,0c-.6.3-.8.7-1.6.2-.2-.1-.3-.4-.5-.5a1.23,1.23,0,0,0-1.3-.1c-1,.5-1.8,1.3-2.8,1.8-.5.3.1,1.4.8,1Z" transform="translate(-66.06 -4.13)"/><path class="cls-2" d="M89.3,46.6a1.29,1.29,0,0,0,1.2.9,2.47,2.47,0,0,0,1.6-.8c.5-.5-.3-1.4-.8-.8-.1.1-.7.7-.8.4-.2-.7-1.4-.4-1.2.3Z" transform="translate(-66.06 -4.13)"/><path class="cls-2" d="M91.9,47.1c1.1-1.3,2.2.4,3.5.2.3,0,.5-.2.8-.3a1.43,1.43,0,0,1,1.2-.6,8.79,8.79,0,0,1,1,.6c.6.4,1.2-.6.6-1a3.23,3.23,0,0,0-2.1-.8,1.42,1.42,0,0,0-.6.2c-.6.3-.4.5-1.2.5s-1.5-.6-2.4-.6a2.36,2.36,0,0,0-1.6.9c-.6.7.3,1.5.8.9Z" transform="translate(-66.06 -4.13)"/><path class="cls-2" d="M98.3,47.3c.8.1,1-.2,1.7-.4,1.3-.4,1.8.3,2.9.6a4.14,4.14,0,0,0,2.7-.1c.8-.3,2-1.3,2.8-1.3-.2-.1-.4-.3-.6-.4v.1a.57.57,0,0,0,1.1-.3v-.1a.55.55,0,0,0-.6-.4,2.45,2.45,0,0,0-1.6.6,5.58,5.58,0,0,1-2.1.9,5.43,5.43,0,0,1-2.7-.9c-.5-.2-.8-.5-1.3-.4-.7.1-1.5,1.1-2.1,1s-.9,1-.2,1.1Z" transform="translate(-66.06 -4.13)"/><path class="cls-3" d="M108.1,46.4c1.7,1,2.8,1.2,4.5.2.7-.4,1.1-.8,2-.4.4.1.7.5,1.1.7a3.32,3.32,0,0,0,2.4-.1c.7-.3.4-1.4-.3-1.1-1.8.7-2.6-1.1-4.2-1a2.46,2.46,0,0,0-1.1.4,4,4,0,0,1-1.6.8,2.22,2.22,0,0,1-2.3-.5c-.6-.4-1.2.6-.5,1Z" transform="translate(-66.06 -4.13)"/><path class="cls-2" d="M118.2,46.9a7.46,7.46,0,0,0,1.2-.7c.3-.2.6-.8,1-.9s.8.3,1.1.3a3.19,3.19,0,0,0,1.4-.3c.7-.3.1-1.3-.6-1-1,.4-1.7-.6-2.6-.2a2.18,2.18,0,0,0-.5.4,3,3,0,0,1-1.4,1.1c-.7.5-.4,1.6.4,1.3Z" transform="translate(-66.06 -4.13)"/><path class="cls-2" d="M90,25.6c-1.6-.9-3.9-1.7-5.2-3.1-1.9-2-1.8-5.7-1-8.2,1.9-5.2,6.8-5.4,11.5-4.1.7.2,1.1-1,.3-1.1-5.3-1.4-10.8-1.1-13,4.8a10.49,10.49,0,0,0,.1,7.6c1.2,2.7,4.2,3.8,6.6,5.1.8.4,1.4-.6.7-1Z" transform="translate(-66.06 -4.13)"/><path class="cls-2" d="M106.9,9.8c5.3-1.3,9.1,2.9,8.6,8-.3,3.4-2.2,6.2-4,9-.4.6.6,1.2,1,.6,2.6-4.1,5.7-9.1,3.7-14.1-1.5-3.9-5.7-5.5-9.6-4.6-.8.1-.5,1.3.3,1.1Z" transform="translate(-66.06 -4.13)"/><path class="cls-2" d="M124.5,94.5c3-16.3,6.5-34-1.4-49.6-.3-.7-1.4-.1-1,.6,7.8,15.3,4.2,32.7,1.3,48.7-.2.8,1,1.1,1.1.3Z" transform="translate(-66.06 -4.13)"/><path class="cls-2" d="M124.1,94.9c5.4-4.7,7-12.1,8.5-18.8a74.28,74.28,0,0,0,1.3-25.3c-.1-.8-1.3-.4-1.1.3a70.83,70.83,0,0,1-1.3,24.7c-1.4,6.5-3,13.8-8.2,18.3-.6.5.3,1.3.8.8Z" transform="translate(-66.06 -4.13)"/><path class="cls-2" d="M134,51.2c-2.6-9.9-11-22.8-21.9-25-.7-.2-1.1,1-.3,1.1,10.4,2.1,18.6,14.7,21,24.2a.62.62,0,1,0,1.2-.3Z" transform="translate(-66.06 -4.13)"/><path class="cls-2" d="M91.6,8.8c-.8-2.3,6.1-3.4,7.4-3.5a7.61,7.61,0,0,1,7,3.8.58.58,0,1,0,1-.6,9.13,9.13,0,0,0-9.2-4.3c-2.2.2-8.6,1.5-7.4,4.9.3.8,1.5.5,1.2-.3Z" transform="translate(-66.06 -4.13)"/><path class="cls-4" d="M72,78.3c-2-7.9-4.7-21.8.3-29,.4-.6-.6-1.2-1-.6-2.7,3.9-2.9,8.2-2.6,12.8a91,91,0,0,0,2.2,17.2c.1.6,1.3.3,1.1-.4Z" transform="translate(-66.06 -4.13)"/><path class="cls-4" d="M128.7,84.2c3.5-10.9,6.8-27.3.1-37.7-.4-.6-1.4,0-1,.6,6.5,10,3.2,26.2-.2,36.7a.59.59,0,1,0,1.1.4Z" transform="translate(-66.06 -4.13)"/><path class="cls-4" d="M92.1,23.4c-2.7-2.8-6.5-6-3.6-10.1.4-.6-.6-1.2-1-.6a6.46,6.46,0,0,0-1,5.7c.7,2.3,3.1,4.1,4.7,5.8.6.6,1.4-.3.9-.8Z" transform="translate(-66.06 -4.13)"/><path class="cls-4" d="M112.9,22.3c3.7-4,1.5-8.6-2.2-11.6-.6-.5-1.4.3-.8.8,3.1,2.6,5.5,6.4,2.2,9.9-.6.6.3,1.5.8.9Z" transform="translate(-66.06 -4.13)"/><path class="cls-4" d="M96.7,7.9a9.23,9.23,0,0,1,6.8,1.7c.6.5,1.2-.6.6-1a10.12,10.12,0,0,0-7.7-1.9c-.7.2-.4,1.3.3,1.2Z" transform="translate(-66.06 -4.13)"/></svg>