<?xml version="1.0" encoding="utf-8"?>
<!-- Generator: Adobe Illustrator 22.1.0, SVG Export Plug-In . SVG Version: 6.00 Build 0)  -->
<svg version="1.1" id="Layer_1" xmlns="http://www.w3.org/2000/svg" xmlns:xlink="http://www.w3.org/1999/xlink" x="0px" y="0px"
	 viewBox="0 0 200 600" style="enable-background:new 0 0 200 600;" xml:space="preserve">
<style type="text/css">
	.st0{fill:#193C73;}
	.st1{fill:none;stroke:#1A3D70;stroke-miterlimit:10;}
	.st2{fill:#010101;}
	.st3{fill:#142F5E;}
	.st4{fill:#1C4179;}
	.st5{fill:#322D14;}
</style>
<g>
	<g>
		<g>
			<g>
				<g>
					<path class="st0" d="M78.6,293.4c-0.5-1.1-0.9-2.2-1-3.4c-0.4-3-5.3-4.5-5.9-0.8c-1.2,7.1-3.2,13.9-6,20.6
						c-0.8,1.9,1.1,3.8,2.9,3.8c5,0,10,0,14.9-0.2c2.9-0.1,8.7,1,11.2-1c2.4-1.8,0.7-4.7,1.3-7.1c0.7-2.6,3.1-4.5,5.8-3.5
						c3.5,1.3,2.6,5.3,1.9,8.1c-0.6,2.3,1.4,4.2,3.7,3.7c8.5-1.9,8-11.5,7-18.4c-1.4-9.1-5.8-15.3-13.2-20.7
						c-2.4-1.8-5.7,1.7-4.1,4.1c4.2,6.4,6.3,13.5,8.4,20.7c1,3.7,6.7,2.2,5.8-1.6c-1.4-5.7-3.8-11.4-9.4-14.1
						c-5.4-2.6-11.5-1.2-16.6,1.2c-5.8,2.7-10.8,5.7-13.4,11.7c-1.3,3.1-2.1,6.2-4.6,8.6c-1.9,1.9-3.2,2.8-3.4,5.7
						c-0.3,3.9,5.6,3.8,6,0c0.2-2,0.3-4.1,0.2-6.1c-0.1-3.3-5-4.2-5.9-0.8c-0.1,0.5-0.3,1.1-0.4,1.6c2,0.3,3.9,0.5,5.9,0.8
						c-0.6-8.7-2-18-1.1-26.7c0.9-8.9,4.6-17.4,8-25.5c-1.4,0.4-2.7,0.7-4.1,1.1c9.1,6.1,23.7,5.4,34,4.3c2.7-0.3,5.4-0.7,8-1.2
						c2.2-0.4,6.8-2.6,8.9-2.2c-0.8-0.9-0.9-0.8-0.2,0.1c0.4,0.7,0.8,1.5,1.2,2.3c0.8,1.6,1.4,3.2,2.1,4.8c1.1,2.9,1.9,6,2.6,8.9
						c0.8,3.8,6.6,2.2,5.8-1.6c-1.3-5.8-3.2-11.5-6.1-16.7c-2.9-5.3-6.1-3.7-11.3-2.4c-6.9,1.7-13.9,2.5-21,2.5
						c-6.8-0.1-15.1-0.1-20.9-4c-1.2-0.8-3.5-0.4-4.1,1.1c-3.6,8.4-7.2,16.9-8.5,25.9c-1.4,9.6,0.1,19.6,0.8,29.3
						c0.2,3.2,5,4.2,5.9,0.8c0.1-0.5,0.3-1.1,0.4-1.6c-2-0.3-3.9-0.5-5.9-0.8c0.1,2.1,0,4.1-0.2,6.1c2,0,4,0,6,0
						c0-0.7,2.9-2.7,3.4-3.3c1-1.3,1.7-2.7,2.3-4.1c1.9-4.5,2.9-8,7.4-10.5c4.1-2.4,9.2-5.4,14.2-4.4c5.4,1.1,7.1,6.2,8.3,10.9
						c1.9-0.5,3.9-1.1,5.8-1.6c-2.2-7.8-4.5-15.4-9-22.2c-1.4,1.4-2.7,2.7-4.1,4.1c4.7,3.4,8.1,7.2,9.7,12.9c1,3.7,3.4,14-2,15.2
						c1.2,1.2,2.5,2.5,3.7,3.7c1.3-5.1,1.7-10.5-3-14c-3.6-2.6-8.6-2.8-12.2-0.2c-1.9,1.4-3.4,3.4-4.1,5.7c-0.3,0.9-1.4,6.1-0.2,6.7
						c1.4-2,1.4-2.9-0.2-2.6c-0.9,0-1.8,0-2.7,0.1c-1.9,0.1-3.7,0.1-5.6,0.1c-4.4,0.1-8.7,0.1-13.1,0.1c1,1.3,1.9,2.5,2.9,3.8
						c2.7-6.7,4.7-13.4,6-20.6c-2-0.3-3.9-0.5-5.9-0.8c0.2,1.8,0.5,3.3,1.2,5C74.3,298.5,80.1,296.9,78.6,293.4L78.6,293.4z"/>
				</g>
			</g>
			<g>
				<g>
					<path class="st0" d="M112.4,304.9c-0.3,0.4-0.5,0.8-0.8,1.3c-0.8,1.3-0.3,3.4,1.1,4.1c1.5,0.8,3.2,0.4,4.1-1.1
						c0.3-0.4,0.5-0.8,0.8-1.3c0.8-1.3,0.3-3.4-1.1-4.1C115.1,303.1,113.3,303.5,112.4,304.9L112.4,304.9z"/>
				</g>
			</g>
			<g>
				<g>
					<path class="st0" d="M111,306.1c-0.8,1.1-1.7,2.1-2.6,3c-1.7,1.8-0.6,5.2,2.1,5.1c2-0.1,4.8-0.7,6.7-0.3
						c-0.7-0.7-1.4-1.4-2.1-2.1c0,0.1,0,0.2,0.1,0.3c0.5-1.1,0.9-2.3,1.4-3.4c-0.1,0-0.1,0.1-0.2,0.1c-1.8,1.4-2.1,4.9,0.7,5.5
						c5.6,1.1,11.3,0.4,17,1c2.1,0.3,3.2-2.1,2.9-3.8c-1.1-6.7,0.2-13.5,0.2-20.2c0-3-0.2-6.1-0.5-9c-0.3-3.1-2.1-7.7-1-10.5
						c1.3-3.6-4.5-5.2-5.8-1.6c-1,2.9-0.2,5.5,0.3,8.4c0.7,4.3,1,8.5,1.1,12.8c0,7.4-1.1,14.5,0,21.8c1-1.3,1.9-2.5,2.9-3.8
						c-5.1-0.6-10.3,0.2-15.4-0.8c0.2,1.8,0.5,3.7,0.7,5.5c0.1,0,0.1-0.1,0.2-0.1c1.1-0.9,1.7-1.9,1.4-3.4c0-0.1,0-0.2-0.1-0.3
						c-0.2-1-1.1-1.9-2.1-2.1c-2.6-0.6-5.7,0-8.3,0.1c0.7,1.7,1.4,3.4,2.1,5.1c1.3-1.4,2.4-2.8,3.5-4.2
						C118.5,306,113.3,303,111,306.1L111,306.1z"/>
				</g>
			</g>
			<g>
				<g>
					<path class="st0" d="M78.4,284.1c-0.3,0.3-0.6,0.6-0.9,1c1.7,0.4,3.3,0.9,5,1.3c0.2-1.1,0.1-2.1-0.1-3.1c-1,0-2,0-3,0
						c-0.7,1.3-0.4,1.8,0.9,1.4c1,1.3,1.9,2.5,2.9,3.8c0.4-1.9,0.8-7.2,2.4-8.2c-1.5-0.6-2.9-1.2-4.4-1.8c0.6,2.7,0.4,4.9-0.8,7.4
						c1.6-0.2,3.1-0.4,4.7-0.6c-0.6-0.6,3.2-5.2,3.8-5.8c-1.7-0.7-3.4-1.4-5.1-2.1c0.3,2.8-0.1,5.1-1.6,7.6c1.8,0.8,3.7,1.5,5.5,2.3
						c0.4-2.7,1.3-4.7,3.5-6.3c-1.5-0.6-2.9-1.2-4.4-1.8c0.6,1.3,0.5,2.2-0.5,2.9c1.4,1.4,2.7,2.7,4.1,4.1c0.5-0.9,2.7-5,3.9-4.8
						c0.4,0.7,0.8,1.5,1.2,2.2c0.5-1.3,1.4-2.1,2.6-2.5c-1.5-0.6-2.9-1.2-4.4-1.8c-0.4,0.5-0.8,1.1-1.3,1.6c1.1,0.5,2.3,0.9,3.4,1.4
						c0.1-0.1,0.1-0.3,0.2-0.4c-1.3-1-2.5-1.9-3.8-2.9c-0.4,0.9-0.8,1.7-1.3,2.6c1.6,0.2,3.1,0.4,4.7,0.6c-0.1-0.4-0.2-0.7-0.3-1.1
						c-0.7-0.7-1.4-1.4-2.1-2.1c0.3,0.8-1.9,3.2-2.4,3.5c-1.9,1.5-3,0.7-4.9-0.3c-1.4-0.7-2.2-1.5-3.9-1.2c-4,0.7-6.2,8.1-7.8,11.1
						c1.6-0.2,3.1-0.4,4.7-0.6c-1.8-1.9-4.5-5-7.5-4c-3.6,1.3-3.6,7.6-4.3,10.5c1.9,0,3.9,0,5.8,0c-0.6-2-0.9-3.8-0.6-5.9
						c-2-0.3-3.9-0.5-5.9-0.8c-0.1,2.3-0.4,4.5-0.8,6.7c1.9,0,3.9,0,5.8,0c-0.3-1.3-0.2-2.6,0.3-3.8c-2-0.3-3.9-0.5-5.9-0.8
						c0.3,2.5,0.4,4.9,0.3,7.5c2,0,4,0,6,0c-1.1-10.6-0.7-21.4,1.7-31.9c0.7-3.3,1.4-6.3,4.8-7.5c2.9-1,5.8,0.3,8.6,1.2
						c5,1.6,9.9,2.1,15.2,1.6c5.2-0.4,10.5-2.2,15.7-2.1c3.1,0,2.7,1.3,3.2,4.2c0.5,3.1,0.9,6.2,1.3,9.3c1.3,11,2.1,22.2,3,33.2
						c0.3,3.9,5.5,3.8,6,0c1.5-11.4,1.4-23.3-2.7-34.1c-0.2-0.6-0.7-3.1-1.2-3.4c-3.1-0.6-4,0-2.8,1.8c0.4,0.6,0.6,1.3,0.8,2.1
						c0.9,3.3,0.5,6.7,0,9.9c-0.4,3-0.9,6-1.3,8.9c-0.2,1.1-1,11.7-4.8,7.6c-1,1.7-1.9,3.3-2.9,5c0.5,0.1,0.9,0.2,1.4,0.3
						c0.7-0.7,1.4-1.4,2.1-2.1c0.6,1.3,0.9,2.7,1,4.2c0.6-1.5,1.2-2.9,1.8-4.4c0.1,0,0.1,0,0.2,0c-0.4,1.7-0.9,3.3-1.3,5
						c0.2,0,0.3,0,0.5,0c1.2-1.2,2.5-2.5,3.7-3.7c-8.1-2.5-7.7-13-8.6-19.6c-0.5-3.6-1.1-7.2-1.8-10.6c-0.5-2.6-2.6-9.4,2.7-7.4
						c-0.7-0.7-1.4-1.4-2.1-2.1c2,4.9,2.1,11.4,3,16.6c0.5,2.9,0.9,5.8,1.4,8.7c0.2,1.2,0.1,2.9,0.6,4.1c-0.3,0.9,0,1.4,0.9,1.4
						c1,0.6,1.3,0.2,0.8-1.2c1-4-7.1-29.1-3.8-29.9c-0.5-1.9-1.1-3.9-1.6-5.8c-5.7,2-12.3,2-18.3,2.2c-3.1,0.1-6.3,0.1-9.4-0.2
						c-3.2-0.3-6.4-1.7-9.6-1.7c-4.4,0.1-5.8,3.4-6.4,7.2c-0.5,2.8-0.6,5.6-0.9,8.3c-0.2,1.4-0.8,9.4-2.1,10.1
						c1.5,0.9,3,1.7,4.5,2.6c0.5-4.2,1.3-8.4,2.3-12.5c0.8-3.4,1.8-6.1,5.6-6.4c2.2-0.2,4.6,0.8,6.7,1.2c3.7,0.7,7.5,1.3,11.3,1.6
						c1.5,0.1,4.1-0.3,5.3,0.3c1.7,0.2,2.4,1.2,2,3.1c0.1,1.3,0,2.6-0.2,3.9c1,0,2,0,3,0c-1.4-0.8-2.4-2.6-3.2-4
						c-2-3.4-6.7-0.4-5.2,3c1.4,3.3,4,8.3,7.9,9.3c3.2,0.8,5.9-1.7,5.6-4.8c-0.9-8.7-17-10.3-23.4-10.4c-2.3,0-6.8-0.6-8.4,1.2
						c-1.6,1.7,1.7,0.7,3.1,0.7c1.7-0.1,3.3-0.1,5-0.2c3.2-0.1,6.5-0.4,9.6,0.1c-0.1,0,4.2,1.2,3.2-0.3c-0.3-0.4-2.9-0.1-3.2-0.1
						c-3.4,0.3-6.4,2.4-6.5,6c-0.1,4.6,6.7,11.2,5.7,14.1c0.7-0.7,1.4-1.4,2.1-2.1c-4.1,1.1-7.8,0.8-11.3,3.6
						c-4,3.3-4.6,8.4-10.7,8.6c-1,0-2.1,0-3.1-0.1c-2.5-0.7-2.9-0.6-1.2,0.3c0.7,0.9,1.2,0.8,1.6-0.2c2.2-1.4,3.5-5.7,5.4-7.7
						c2.2-2.3,5-3.6,8-4.4c0.9-0.2,6.8-1.8,7.1-1.3c0-1,0-2,0-3c-0.5,1.2-3.2,2.4-4.4,3.2c-1.9,1.3-3.7,2.6-5.6,3.9
						c-1.6,1.1-3.2,2.2-4.8,3.3c-0.8,0.6-1.6,1.1-2.4,1.7c-2.2,0.9-2.1,1.4,0.1,1.5c0.3,1,0.5,1.9,0.8,2.9c1-3.6,7.2-7.4,9.9-9.5
						c1.9-1.6,3.5-3.1,2.4-5.7c-1.3-3-5.5-4.3-8.1-5.8c-2.3-1.3-3.8-2.4-4.5-4.9c-0.5-1.8-0.8-3.3-1.7-4.9c-0.8-1.4-2.7-1.9-4.1-1.1
						c-3.4,2.1-3.5,6.2-3.9,9.8c-0.8,5.9-1.2,11.7-3.9,17.2c-1.7,3.5,3.5,6.5,5.2,3c1.9-3.9,3-7.9,3.6-12.1c0.3-1.9,0.5-3.8,0.7-5.6
						c0.1-1.1,0.2-6.4,1.3-7.1c-1.4-0.4-2.7-0.7-4.1-1.1C77.2,279.3,77.1,281.9,78.4,284.1c1,1.6,2.6,3,4.3,4.1c1,0.7,2,1.2,3.1,1.7
						c0.5,0.2,0.9,0.5,1.4,0.7c0.8,1,1.5,1,2.2,0.2c0.3-0.2,0.5-0.4,0.8-0.6c-0.9,0.7-1.7,1.4-2.6,2.1c-1.3,1.1-2.5,2.2-3.8,3.3
						c-2.2,2.1-7.7,6.1-6.2,9.8c1.5,3.9,5.5,1.9,7.8,0.4c5.7-3.7,11.3-7.7,16.7-11.6c2.3-1.7,4.4-4.3,1.7-7c-3-2.9-8.7-1.1-12.2-0.3
						c-5,1.2-9.3,3.4-12.6,7.4c-1.9,2.4-3.5,5-5.2,7.5c-1,1.5-2.5,3.1-2.3,5c0.5,3.9,5.8,3.9,8.7,4c4.4,0.1,8.7-0.8,11.7-4.3
						c1.5-1.8,2.4-4.1,4.2-5.6c2.6-2.2,5.3-1.6,8.3-2.3c4.1-1,3.5-4.5,2.4-7.7c-0.9-2.6-2.2-4.8-3.3-7.3c-0.2-0.3-0.3-0.5-0.5-0.8
						c-1.3-2.1-1-3,1.1-2.5c1.2-0.4,3,0.2,4.3-0.3c2.9-1,4.6-4.1,3.1-7c-1.9-3.7-7.5-4.4-11.1-4.6c-3.5-0.2-7,0.1-10.5,0.2
						c-2.9,0.1-6.4-0.4-9.1,0.8c-3.6,1.6-4,6-1,8.3c2.2,1.8,4.9,1.3,7.6,1.1c3.3-0.2,6.7-0.4,10.1,0c1.4,0.1,2.8,0.4,4.1,0.7
						c2.4,0.5,4.7,2.2,7,2.6c0.9,0.2,3.2,3.3,3.7-0.4c0-0.4-3.5-5.3-3.9-6.3c-1.7,1-3.5,2-5.2,3c1.3,2.3,3.4,6.2,6.4,6.5
						c3.1,0.3,4.4-2.7,4.8-5.2c0.6-3.2,0.5-7.7-1.4-10.4c-2.1-3.1-5.7-2.8-9-3c-5.4-0.3-10.6-1.2-15.8-2.3
						c-3.7-0.8-7.3-1.5-10.7,0.8c-3.2,2.2-4.7,5.7-5.5,9.3c-1.1,4.7-2,9.4-2.5,14.1c-0.3,2.4,2.7,3.5,4.5,2.6
						c3.9-2.1,4.1-8.4,4.7-12.2c0.4-2.7,0.6-5.3,0.9-8c0.2-1.7,0.1-3.9,1.6-4.4c1-0.3,3.6,0.7,4.4,0.8c5.5,1,11.2,1,16.8,0.7
						s11.7-0.4,17.1-2.3c3.6-1.3,2.2-6.7-1.6-5.8c-6.8,1.6-5.5,9.2-4.5,14.4c0.7,4,1.9,7.9,2.8,11.8c1,4.4,0.4,8.8,1.2,13.1
						c0.9,4.3,5.5,6.8,8.5,2.9c2.1-2.8,1.7-6.3,1.3-9.4c-0.7-4.6-1.5-9-2.2-13.5c-0.7-4.4-0.9-9.3-2.2-13.5
						c-0.8-2.6-2.3-3.6-4.9-3.6c-2,0-5.5,0.2-7.1,1.7c-2,1.9-1.9,5.7-1.6,8.1c0.5,4.6,1.8,9,2.5,13.6c0.6,4.2,0.5,8.6,1.4,12.7
						c1.3,5.6,6.1,11.6,11.7,13.3c2.1,0.7,4.4-1.5,3.7-3.7c-1.1-3.5-4.2-5.4-7.8-4.2c-2,0.6-3.1,3.4-1.3,5c1.8,1.6,3.3,2,5.7,1.6
						c1.9-0.3,2.8-2.9,1.8-4.4c-1.9-3-5.9-5.7-9.6-4.1c-3.3,1.5-3.4,5.6-0.6,7.7c2.3,1.8,6.5,2,7.7-1.2c1.4-3.7-2.4-6.9-5.6-7.7
						c-3-0.7-4.9,2.8-2.9,5c2.1,2.4,5.2,3.6,8.4,2.6c3.9-1.2,5.2-4.7,5.8-8.3c1.4-9.1,4.9-20.8,0.8-29.6c-3-6.3-10.5-4.8-8.4,2.5
						c1.7,6.1,3.9,11.1,4.4,17.6c0.4,6.1,0.1,12.1-0.6,18.2c2,0,4,0,6,0c-1.2-14.1-2.1-28.3-4.3-42.2c-0.6-4.1-0.4-10.1-5.6-10.6
						c-6.9-0.7-14.3,2.1-21.2,2.5c-3.7,0.2-7.3-0.2-10.9-1.3c-2.9-0.9-5.6-2-8.7-2.1c-5.1-0.2-9.5,2.5-11.5,7.2
						c-2.2,5.1-2.8,11.2-3.4,16.7c-0.8,7.3-0.7,14.6,0,21.9c0.4,3.8,5.9,3.9,6,0c0.1-2.5,0-5-0.3-7.5c-0.4-3.2-4.9-4.3-5.9-0.8
						c-0.7,2.4-0.7,4.5-0.3,6.9c0.5,2.9,5.3,2.9,5.8,0c0.5-2.8,0.8-5.5,1-8.2c0.2-3.3-5.3-4.2-5.9-0.8c-0.5,3.2-0.4,6,0.6,9
						c0.9,2.7,5.1,3,5.8,0c0.6-2.4,0.8-5.6,1.9-7.8c-0.9,0.5-1.7,1-2.6,1.5c0.6-0.1,2.2,2.1,2.5,2.3c1.3,1.4,3.8,1,4.7-0.6
						c1.1-2,3.1-7.8,5-8.7c-1,0-2,0-3,0c3.8,1.7,5.6,4.5,10.3,2.7c3.4-1.3,7.9-6.2,7.9-10c0-3.8-4-4.9-6.9-3.3
						c-3.6,1.9-4,6.2-2.1,9.3c1,1.8,3.3,1.9,4.7,0.6c2.2-1.9,3-4,3-6.8c0-1.8-2-3.6-3.8-2.9c-4.1,1.6-5.5,5.2-3.8,9.1
						c0.5,1.2,2.2,1.7,3.4,1.4c4.2-1.4,6-4.7,5.4-8.9c-0.3-2.1-2.9-2.5-4.4-1.8c-3.5,1.6-6.6,5.7-5.5,9.7c1,3.8,5.5,4.8,7.9,1.6
						c2.2-3,2.8-9.5-1-11.5c-4.7-2.5-9.5,4.1-11.3,7.5c-1.3,2.4,1.5,6.1,4.1,4.1c3.1-2.4,4.6-5.8,3.2-9.5c-0.6-1.7-2.7-3-4.4-1.8
						c-3.5,2.5-5.7,5.6-6.3,9.8c-0.4,3.1,3.6,5.5,5.5,2.3c1.9-3.3,2.8-6.7,2.4-10.5c-0.2-2.5-3.1-4-5.1-2.1
						c-3.3,3.1-7.8,10.1-3.8,14.2c1.3,1.3,3.8,1.1,4.7-0.6c2-4,2.4-7.7,1.4-11.9c-0.4-1.8-2.8-2.9-4.4-1.8
						c-3.7,2.6-4.4,7.7-5.2,11.8c-0.4,1.8,0.8,3.9,2.9,3.8c5.7-0.2,6.9-10.2,2.1-12.5c-0.9-0.4-2.1-0.6-3,0
						c-3.2,2.2-3.2,6.4-2.6,9.8c0.3,2.2,3.6,2.9,5,1.3c0.3-0.3,0.6-0.6,0.9-1C85.2,285.5,81,281.2,78.4,284.1L78.4,284.1z"/>
				</g>
			</g>
			<g>
				<g>
					<path class="st0" d="M67.2,309.9c-0.6,0.6-1.2,1.1-1.8,1.7c-0.5,0.2-0.6,0.6-0.3,1c1.4,1.8,11.9-1.7,14-2.1
						c2.4-0.5,4.9-1,7.4-1c1.6-0.1,3.2,0,4.8,0.3c1.2,0.2,2.4,0.6,3.4,1.4c0.2,0.3,0.4,0.7,0.6,1c-1.3-1.8-1.9-3.9-1.8-6.1
						c0.1-0.9,0.2-1.9,0.3-2.8c0.3-2,1-4.3,2.5-5.7c3.2-3.1,10-3.6,14-2.9c5.5,0.9,10.2,4.6,5.7,10c-2.8,3.5-6.3,8.4-11.4,7.4
						c-0.1,0.4-0.1,0.8-0.2,1.2c2.1-0.2,4.2-0.5,6.3-0.7c0.9-0.1,1.8-0.2,2.7-0.3c2.2-0.3,2.4-0.3,0.6,0.1c-0.1,0.4-0.1,0.8-0.2,1.2
						c2.8,0.2,5.1-0.2,5.9-3.2c0.8-2.9,0.1-6.7,0.3-9.6c0.2-3.8,0.4-7.5,0.7-11.2c0.3-3.4,0.6-6.9,1.1-10.2c0.2-2,0.1-4.8,0.9-6.6
						c0.5-1.3,1.2-2.2,2.3-2.7c0.3-0.1,0.6-0.3,0.9-0.4c1.5-2.9,0.2-5.6-1.6-8.2c-0.3,0.2-0.6,0.5-0.9,0.7c1.2,1,2.1,2.2,2.6,3.8
						c0.2,0.6,1.2,0.6,1.2-0.2c0-0.5,0-0.9,0-1.4c-0.4,0.1-0.7,0.2-1.1,0.3c0.3,0.9,0.5,1.9,0.8,2.8c0.4-0.1,0.7-0.2,1.1-0.3
						c-1-1.9-1.1-4.1-1.9-6.1c-0.3-0.7-0.6-1.4-1-2.1c-0.3-0.5-2.1-3.1-0.6-1c0.3-0.2,0.6-0.5,0.9-0.7c-0.5-0.6-1-1.2-1.5-1.8
						c-0.3-0.4-0.9-0.1-1,0.3c0,0.2,0,0.4,0.1,0.5c-0.3,0.2-0.6,0.5-0.9,0.7c0.7,0.5,1.5,1,2.2,1.5c0.3,0.2,0.8,0,0.9-0.4
						c0.8-2.6,0.9-4.9,0.4-7.6c-0.4,0.2-0.7,0.3-1.1,0.5c2.2,4.1,3.8,8.2,4.9,12.8c0.2,0.8,1.3,0.4,1.2-0.3c-1.1-4.6-2.8-8.9-5-13.1
						c-0.3-0.6-1.2-0.2-1.1,0.5c0.4,1.7,1.6,7.2-1.7,5.1c-0.4-0.3-1.1,0.2-0.9,0.7c0.3,0.7,0.3,0.8,0.9,1.3c0.3,0.2,0.8,0,0.9-0.4
						c0.3-0.6,0.6-0.3,0.9,0.7c0.4,0.5,1.4-0.2,0.9-0.7c-0.9-1.2-1.5-1.6-3-1.8c-0.4-0.1-0.8,0.6-0.5,0.9c2.7,3.5,2.9,7.6,4.9,11.2
						c0.3,0.5,1.2,0.3,1.1-0.3c-0.2-2.1,0-1.5-1-3.4c-0.3-0.5-1.1-0.3-1.1,0.3c0,0.5,0,0.9,0,1.4c0.4-0.1,0.8-0.1,1.2-0.2
						c-0.7-1.8-1.5-3-2.9-4.3c-0.5-0.4-1.3,0.1-0.9,0.7c1.7,2.7,2.1,4.5,0.3,7.4c-0.5,0.8-1.2,0.9-1.7,1.9
						c-1.5,2.9-1.4,7.9-1.7,10.9c-0.6,5-1,9.9-1.2,14.9c-0.2,4.2,1.4,15.7-5.1,15.4c-0.7,0-0.8,1-0.2,1.2c2,0.6,3.2-0.2,3.9-2.1
						c0.1-0.3-0.2-0.8-0.6-0.8c-4.2,0.5-8.4,1-12.5,1.5c-0.6,0.1-0.9,1-0.2,1.2c3.4,0.7,6-0.7,8.4-3c1.7-1.6,3.2-3.6,4.7-5.4
						c0.8-1,2.6-2.4,2.8-3.8c0.6-6.1-9.7-8.1-13.8-7.9c-7.7,0.4-13.1,3.2-13.9,11.1c-0.2,1.9-0.5,6.3,1.4,7.7c0.7,0.5,1.5,1.1,2,0
						c0.1-0.3,0.1-0.6-0.2-0.8c-0.1-0.1-0.2-0.1-0.3-0.2c-0.2-0.1-0.5-0.1-0.7,0.1c-0.1,0.1-0.1,0.1-0.2,0.2c-0.4,0.4,0,1.1,0.6,1
						c0.2,0,0.4-0.1,0.5-0.1c0.2,0,0.4-0.2,0.4-0.4c1.9-7.4-29.1,0-31.2,0.4c-0.4,0.1-0.6,0.7-0.3,1c0.6,0.5,0.7,0.6,1.4,0.4
						c0.2,0,0.4-0.2,0.4-0.4c0.4-1.4,1.3-1.1,2.1-3C68.6,309.5,67.5,309.2,67.2,309.9L67.2,309.9z"/>
				</g>
			</g>
			<g>
				<g>
					<path class="st0" d="M115.5,272.9c1.6,5.5,1.7,11.1,0,16.6c-0.7,2.3-1.9,4.5-2.8,6.7c-0.4,1.1-0.8,2.2-1.1,3.3
						c-0.1,2.9-1.6,4-4.6,3.6c-0.1-0.5-1.1-0.6-1.2,0c-0.1,0.9-0.3,1.8-0.4,2.6c0.4,0.1,0.8,0.1,1.2,0.2c-0.1-0.9-0.3-1.7-1.4-1.4
						c-0.3,0.1-0.5,0.4-0.4,0.7c0,0.1,0,0.2,0.1,0.3c0,0.3,0.3,0.4,0.6,0.4c0.1,0,0.2,0,0.3,0c0.3,0,0.6-0.3,0.6-0.6
						c0.3-3.7-2.2-6.1-5.8-6.3c0.1,0.4,0.1,0.8,0.2,1.2c1.7-1.1,3.1-0.3,4,2.2c2.6,0.9,3.4,2.3,2.2,4.1c-0.2,1.4-1.2,3-1.7,4.3
						c0.4,0,0.7-0.1,1.1-0.1c0.8,1.1,4.7-2.7,5-3c2.4-3,3.9-6.9,5.5-10.2c1.9-4.2,11-27.6,16-15.5c0.3,0.6,1.1,0.6,1.2-0.2
						c0.2-3.1,0.2-6.2,0.1-9.2c-0.4,0.1-0.7,0.2-1.1,0.3c0.7,1.2,1.3,2.3,2,3.5c0.3,0.6,1.2,0.2,1.1-0.5c-0.1-0.6-0.3-1.2-0.4-1.8
						c-0.2-0.8-1.3-0.4-1.2,0.3c0.1,0.6,0.2,1.3,0.4,1.9c0.1,0.7,1.3,0.5,1.2-0.2c-0.1-0.9-0.2-1.8-0.3-2.7
						c-0.4,0.1-0.8,0.1-1.2,0.2c0.1,0.4,0.2,0.8,0.3,1.2c0.2,0.6,1.3,0.5,1.2-0.2c-0.1-0.5-0.1-0.9-0.2-1.4
						c-0.4,0.1-0.8,0.1-1.2,0.2c0.2,0.7,0.4,1.5,0.7,2.2c0.2,0.6,1.3,0.5,1.2-0.2c-0.1-0.7-0.2-1.3-0.3-2c-0.4,0.1-0.8,0.1-1.2,0.2
						c0.6,3.5,0.8,6.9,0.6,10.4c0,0.7,1,0.8,1.2,0.2c0.6-1.8,0.9-3.3,0.9-5.2c-0.4,0.1-0.8,0.1-1.2,0.2c0.4,3-1.5,0.3-2.5-0.3
						c-1.2-0.8-2.5-1.5-3.9-2c-2.6-1-5.3-1.5-8-1.6c-7.3-0.3-15.1,1.5-21.9,4c-6,2.2-12.3,5.5-16.8,10.1c-2.1,2.3-2.7,4.4-3.8,7.2
						c-1,2.7-2.8,3.9-4.5,6c-0.3,0.4-0.6,0.9-0.9,1.3c-0.9,2.8-2.9,2.6-6.2-0.8c-0.4-0.1-0.8-0.1-1.2-0.2c0.1,2.5-1,7.5,2,8.4
						c2.9,1,9.1-3.4,11-5c2-1.6,3.5-3.5,5.4-5.2c2.9-2.7,6.5-4.3,10.1-5.7c5-2,10-2.7,12.2,3.3c0.7,1.7,1.2,3.1,2.4,4.5
						c0.5,0.6,1.3-0.3,0.8-0.8c-2.4-2.8-2.2-7.5-5.8-9.1c-3.9-1.9-8.7,0.5-12.3,2.1c-4.2,1.8-7.3,4-10.5,7.2
						c-2.3,2.3-4.7,4.4-7.6,5.8c-2.1,1-4.6,2.7-6.4-0.5c-0.6-1-0.2-3.7-0.3-4.8c0-0.6-1.1-0.9-1.2-0.2c-0.6,3.7,1.3,9.2,5.9,5.7
						c1.1-0.8,1.2-1.6,1.8-2.7c1-1.5,2.2-2.9,3.4-4.3c2.8-3.3,2.9-7.4,5.7-10.7c5.5-6.8,15.6-10.6,23.9-12.6c10-2.4,21-3.4,29,4.2
						c0.3,0.3,0.9,0.2,1-0.3c0.4-2,0.4-1.5,0.1-3.4c-0.1-0.7-1.2-0.5-1.2,0.2c0.1,1.7-0.2,3.3-0.9,4.9c0.4,0.1,0.8,0.1,1.2,0.2
						c0.2-3.7,0-7.2-0.6-10.7c-0.1-0.7-1.3-0.5-1.2,0.2s0.2,1.3,0.3,2c0.4-0.1,0.8-0.1,1.2-0.2c-0.2-0.7-0.4-1.5-0.7-2.2
						c-0.2-0.6-1.3-0.5-1.2,0.2c0.1,0.5,0.1,0.9,0.2,1.4c0.4-0.1,0.8-0.1,1.2-0.2c-0.1-0.4-0.2-0.8-0.3-1.2
						c-0.2-0.6-1.3-0.5-1.2,0.2c0.1,0.9,0.2,1.8,0.3,2.7c0.4-0.1,0.8-0.1,1.2-0.2c-0.1-0.6-0.2-1.3-0.4-1.9
						c-0.4,0.1-0.8,0.2-1.2,0.3c0.1,0.6,0.3,1.2,0.4,1.8c0.4-0.2,0.7-0.3,1.1-0.5c-0.7-1.2-1.3-2.3-2-3.5c-0.3-0.5-1.1-0.3-1.1,0.3
						c0.1,3.1,0.1,6.2-0.1,9.2c0.4-0.1,0.8-0.1,1.2-0.2c-0.8-2.1-1.2-5.3-3.8-5.3c-3.2,0-6.4,4-7.9,6.4c-3.4,5.4-5.3,11.7-8.1,17.4
						c-1.2,2.5-2.5,6-4.6,7.9c-1.3,1.1-3.8,0.9-4.5,2.4c-0.1,0.2-0.1,0.4,0,0.6c0.1,0.1,0.2,0.2,0.3,0.4c0.3,0.4,0.9,0.4,1.1-0.1
						c1.2-2.9,4.1-7.5,2.1-10.6c-1.8-2.8-5.4-2.3-8.1-1.4c-0.6,0.2-0.5,1.2,0.2,1.2c1.6,1.9,3.3,3.7,4.9,5.6
						c0.1,0.6,1.1,0.9,1.2,0.2c0.1-0.9,0.3-1.8,0.4-2.6c-0.4,0-0.8,0-1.2,0c0.4,1.6,0.2,1.1,0.9,2.6c0.1,0.2,0.4,0.3,0.7,0.3
						c1.9-0.6,3.1-1.5,4.1-3.2c2-3.3,3.1-7.8,4.5-11.3c2.4-6.2,2.5-12.6,0.7-19C116.4,271.8,115.3,272.2,115.5,272.9L115.5,272.9z"
						/>
				</g>
			</g>
		</g>
		<g>
			<g>
				<path class="st0" d="M94.4,273.8c4.1,5.1,9,9.3,12.1,15.1c2.6,4.8,3.8,7.3,1.5,13.1c-0.1,0.2-1.8,3.8-1.7,3.9
					c0.2,0.1,0.2-1.5,0.2-1.4c0-0.6-0.8-0.8-1.1-0.3c-0.8,1.4-0.6,0.9-1,2.4c0.4,0,0.8,0,1.2,0c-0.1-0.5-0.2-1-0.4-1.5
					c-0.1-0.6-1-0.6-1.2,0c-0.1,0.6-0.2,1.1-0.3,1.7c0.4,0,0.8,0,1.2,0c-0.1-0.5-0.1-0.9-0.2-1.4c-0.1-0.7-1.1-0.5-1.2,0.2
					c0,0.4,0,0.7-0.1,1.1c0.4,0,0.8,0,1.2,0c0.3-4.5-1.6-6.4-6.1-6.2c0.1,0.4,0.1,0.8,0.2,1.2c3.5-1.2,8.2,0.3,7,5.8
					c-0.2,0.8-1.1,1.6-1.3,2.5c-0.9,3,0.5,0.8,1,2.1c-0.3-0.7-1.4-0.4-1.2,0.3v0.1c0.1,0.4,0.5,0.6,0.9,0.4l0.1-0.1
					c0.3-0.1,0.4-0.6,0.2-0.8c-1.5-2,3.8-6,1.6-9.2c-1.8-2.6-6-3.1-8.7-2.2c-0.6,0.2-0.6,1.2,0.2,1.2c2.1-0.1,5.1,2.8,4.9,5
					c0,0.8,1.2,0.8,1.2,0c0-0.4,0-0.7,0.1-1.1c-0.4,0.1-0.8,0.1-1.2,0.2c0.1,0.5,0.1,0.9,0.2,1.4c0.1,0.6,1.1,0.6,1.2,0
					s0.2-1.1,0.3-1.7c-0.4,0-0.8,0-1.2,0c0.1,0.5,0.2,1,0.4,1.5c0.1,0.6,1,0.6,1.2,0c0.3-0.7,0.6-1.4,0.9-2.1
					c-0.4-0.1-0.7-0.2-1.1-0.3c0,1.3-0.6,1.9,0.4,2.8c0.2,0.2,0.5,0.2,0.7,0.1c1.9-1,2.9-5.2,3.6-7.1c1-2.4,1.1-3.8,0.2-6.2
					c-3.3-8.7-9.4-14.1-15.1-21.2C94.7,272.4,93.9,273.2,94.4,273.8L94.4,273.8z"/>
			</g>
		</g>
		<g>
			<g>
				<path class="st0" d="M76.3,305.5c-2.2,2.2-4.1,4.1-7.6,4.1c-0.2,0-0.5,0.2-0.6,0.4c-0.8-0.2-1.6-0.4-2.4-0.6
					c-0.3-0.4-0.8-0.4-1,0c-0.3,0.5-0.6,0.9-0.9,1.4c0.4,0,0.7,0.1,1.1,0.1c-0.1-1.1-0.3-2.1-0.8-3c-0.3-0.7-1.3-0.4-1.2,0.3
					c0.5,2.3,1,4,1.9,6c0.2,0.3,0.7,0.4,0.9,0.1c6.6-7.9,12.7-18,23.2-21c5.5-1.6,13.2-2.4,16.1,3.4c1.2,2.5,1.9,5.5,2.1,8.3
					c0.1,1.9,0.6,4.4-1.1,5.6c-0.9,1.1-1.2,1-0.9-0.3c0-1,0-1.9,0-2.9c0-0.6-0.8-0.9-1.1-0.3c-0.5,1.1-0.5,1-0.2,2.2
					c0.2,0.7,1.4,0.4,1.2-0.3c0-0.4,0.1-0.8,0.1-1.3c-0.4-0.1-0.7-0.2-1.1-0.3c0,2,0,3.9-0.2,5.8c0,0.3,0.3,0.6,0.6,0.6
					c5.6-0.4,4.4-8.6,3.5-12.4c-0.6-2.5-1.5-7.4-3.4-9.2c-1.8-1.7-4.9-1.1-7.2-1.1c-7.7,0.1-14.1,2.6-19.8,7.7
					c-3.4,3.1-6.3,6.9-9.2,10.5c-0.3,0.4-2.9,3.7-2.7,3.7c-1.1-0.4-1.3-4.2-1.5-5.2c-0.4,0.1-0.8,0.2-1.2,0.3c0.5,0.9,0.7,2,0.8,3
					c0.1,0.5,0.8,0.5,1.1,0.1c0.6-1,1.5,0.7,2.1,0.7c1.3,0,0.9-0.3,2-0.7c3.2-1.2,5.6-2.5,8.1-5.1C77.6,305.8,76.8,305,76.3,305.5
					L76.3,305.5z"/>
			</g>
		</g>
		<line class="st1" x1="95.8" y1="276.5" x2="79" y2="294.2"/>
		<line class="st1" x1="70.1" y1="313.6" x2="64.8" y2="314.2"/>
		<line class="st1" x1="64.2" y1="304.1" x2="63.9" y2="310.9"/>
		<line class="st1" x1="64.2" y1="314.2" x2="63.9" y2="310.9"/>
		<line class="st1" x1="96.6" y1="302.2" x2="101.6" y2="301.3"/>
		<line class="st1" x1="107.4" y1="313.7" x2="128.9" y2="314.5"/>
		<line class="st1" x1="135.1" y1="315.7" x2="135" y2="309.9"/>
		<line class="st1" x1="116.4" y1="295.9" x2="114.3" y2="307"/>
		<line class="st1" x1="136.9" y1="288.3" x2="136.7" y2="282.2"/>
	</g>
	<g>
		<g>
			<g>
				<g>
					<path class="st2" d="M64.7,315.2c5.4-1,11-0.4,16.5-0.9c4.7-0.4,9.7-1.1,14.4-0.5c0.7,0.1,0.8-1.1,0.2-1.2
						c-0.2,0-0.4-0.1-0.5-0.1c-0.8-0.1-1.1,1-0.3,1.2c0.2,0,0.4,0.1,0.5,0.1c0.1-0.4,0.1-0.8,0.2-1.2c-5.3-0.6-10.9,0.2-16.1,0.7
						c-5,0.4-10.1-0.1-15.1,0.8C63.6,314.2,63.9,315.4,64.7,315.2L64.7,315.2z"/>
				</g>
			</g>
			<g>
				<g>
					<path class="st2" d="M64.9,314.5c-1.5-1.4-1-6.8-1.1-8.8c-0.1-2.8-0.3-5.5-0.4-8.3c-0.2-5.2-0.7-10.5-0.4-15.8
						c0.7-11.3,5-21.9,10.3-31.8c0.4-0.7-0.7-1.3-1-0.6c-5.6,10.3-10,21.5-10.5,33.3c-0.3,6.5,0.3,13,0.6,19.5
						c0.1,3.1,0.3,6.2,0.4,9.2c0.1,1.8-0.1,2.9,1.2,4.1C64.6,315.9,65.5,315,64.9,314.5L64.9,314.5z"/>
				</g>
			</g>
			<g>
				<g>
					<path class="st2" d="M97.3,313c-0.8-0.8-0.2-3.5-0.2-4.5c0-1.5,0.1-2.9,0.1-4.4c0-0.8-1.2-0.8-1.2,0c-0.1,2.1-0.1,4.2-0.2,6.2
						c0,1.3-0.3,2.6,0.6,3.6C96.9,314.4,97.8,313.5,97.3,313L97.3,313z"/>
				</g>
			</g>
		</g>
		<g>
			<g>
				<g>
					<path class="st2" d="M135.6,315.3c-5-0.9-10-0.3-15.1-0.8c-5.3-0.4-10.9-1.3-16.1-0.7c0.1,0.4,0.1,0.8,0.2,1.2
						c0.2,0,0.4-0.1,0.5-0.1c0.8-0.1,0.4-1.3-0.3-1.2c-0.2,0-0.4,0.1-0.5,0.1c-0.7,0.1-0.5,1.3,0.2,1.2c4.7-0.6,9.7,0.1,14.4,0.5
						c5.5,0.5,11.1-0.1,16.5,0.9C136,316.6,136.3,315.4,135.6,315.3L135.6,315.3z"/>
				</g>
			</g>
			<g>
				<g>
					<path class="st2" d="M135.8,316.5c1.1-1,1-1.7,1.2-3.1c0.3-3.4,0.3-6.8,0.5-10.2c0.3-6.5,0.9-13,0.6-19.5
						c-0.5-11.8-4.9-23-10.5-33.3c-0.4-0.7-1.4-0.1-1,0.6c5.3,9.9,9.6,20.5,10.3,31.8c0.3,4.9-0.1,9.9-0.3,14.9
						c-0.1,2.8-0.3,5.5-0.4,8.3c-0.1,2.2,0.4,8.2-1.1,9.7C134.4,316.2,135.3,317.1,135.8,316.5L135.8,316.5z"/>
				</g>
			</g>
			<g>
				<g>
					<path class="st2" d="M103.5,315c0.9-1,0.6-2.3,0.6-3.6c-0.1-2.1-0.1-4.2-0.2-6.2c0-0.8-1.2-0.8-1.2,0c0,1.5,0.1,2.9,0.1,4.4
						c0,1,0.5,3.8-0.2,4.5C102.1,314.7,102.9,315.6,103.5,315L103.5,315z"/>
				</g>
			</g>
		</g>
		<g>
			<g>
				<path class="st2" d="M97.2,305.4c-0.9-2.6,5.8-3.5,6.1,0.1c0.1,0.8,1.3,0.8,1.2,0c-0.2-2.6-2.3-3.5-4.6-3.5
					c-2,0-4.8,1.2-3.9,3.7C96.3,306.5,97.4,306.2,97.2,305.4L97.2,305.4z"/>
			</g>
		</g>
		<g>
			<g>
				<path class="st2" d="M72.4,249.7c8.5,3.4,17.4,5.2,26.5,5.3c4.1,0,8.2-0.3,12.3-1c2.3-0.4,4.6-0.9,6.8-1.5
					c0.6-0.2,8.1-2.7,7.8-1.2c-0.1,0.8,1,1.1,1.2,0.3c0.3-1.7-0.4-2.5-2.3-2.5c-1.8,0-4.4,1.5-6.2,2c-2.8,0.8-5.6,1.4-8.5,1.8
					c-12.6,1.9-25.5,0.3-37.3-4.4C72,248.3,71.7,249.4,72.4,249.7L72.4,249.7z"/>
			</g>
		</g>
	</g>
	<g>
		<g>
			<path class="st3" d="M68.1,268.1c7-0.6,14.4-3.8,15.6-11.5c0.1-0.8-1-1.1-1.2-0.3c-1.2,7.1-8,10.1-14.5,10.6
				C67.3,267,67.3,268.2,68.1,268.1L68.1,268.1z"/>
		</g>
	</g>
	<g>
		<g>
			<path class="st3" d="M98.1,259c0.7,2.9,1,5.9,1,8.9c0,2.4-0.5,4.7-0.4,7.1c0,0.8,1.2,0.8,1.2,0c-0.1-2.8,0.5-5.5,0.4-8.3
				c0-2.7-0.4-5.3-1-8C99.1,258,98,258.3,98.1,259L98.1,259z"/>
		</g>
	</g>
	<g>
		<g>
			<path class="st3" d="M132.1,266.9c-6.5-0.5-13.3-3.5-14.5-10.6c-0.1-0.8-1.3-0.4-1.2,0.3c1.3,7.7,8.6,10.9,15.6,11.5
				C132.9,268.2,132.9,267,132.1,266.9L132.1,266.9z"/>
		</g>
	</g>
	<g>
		<g>
			<path class="st4" d="M68.2,310.6c-0.6-1.1-0.4-2.8-0.6-4c-0.1-1.3-0.2-2.5-0.4-3.8c-0.1-0.8-1.3-0.8-1.2,0
				c0.2,1.7,0.3,3.4,0.5,5.1c0.1,1.1,0,2.4,0.6,3.4C67.6,311.9,68.6,311.3,68.2,310.6L68.2,310.6z"/>
		</g>
	</g>
	<g>
		<g>
			<path class="st4" d="M133.1,311.7c0.7-3.8,1.1-7.6,1.2-11.4c0-0.8-1.2-0.8-1.2,0c-0.1,3.7-0.4,7.4-1.1,11.1
				C131.8,312.1,133,312.4,133.1,311.7L133.1,311.7z"/>
		</g>
	</g>
	<g>
		<g>
			<path class="st4" d="M93,310.9c0.5-1.4,0.7-2.7,0.8-4.2c0.1-1.6-0.5-3.2-0.1-4.8c0.2-0.8-1-1.1-1.2-0.3c-0.3,1.3,0,2.5,0.1,3.9
				c0.1,1.8-0.2,3.5-0.8,5.1C91.6,311.4,92.8,311.7,93,310.9L93,310.9z"/>
		</g>
	</g>
	<g>
		<g>
			<path class="st4" d="M109.9,312c-2.2-3-2.4-6.7-2.6-10.3c0-0.8-1.2-0.8-1.2,0c0.1,3.8,0.4,7.7,2.7,10.9
				C109.4,313.3,110.4,312.7,109.9,312L109.9,312z"/>
		</g>
	</g>
	<g>
		<g>
			<path class="st5" d="M97,260.4c0.8,0,0.8-1.2,0-1.2C96.2,259.2,96.2,260.4,97,260.4L97,260.4z"/>
		</g>
	</g>
	<g>
		<g>
			<path class="st5" d="M97.6,260.5c0.1-0.5-0.1-0.9-0.5-1.1c0.1,0.2,0.2,0.5,0.3,0.7c-0.1-0.1-0.2-0.2-0.4-0.2
				c-0.7,0.4-0.1,1.4,0.6,1c0.6-0.3,0.8-1.2,0.2-1.7c-0.6-0.5-1.4-0.1-1.6,0.6c-0.1,0.3,0.1,0.5,0.3,0.7c0-0.1,0-0.1-0.1-0.2
				C96.3,260.9,97.4,261.3,97.6,260.5L97.6,260.5z"/>
		</g>
	</g>
</g>
</svg>
