<?xml version="1.0" encoding="utf-8"?>
<!-- Generator: Adobe Illustrator 22.1.0, SVG Export Plug-In . SVG Version: 6.00 Build 0)  -->
<svg version="1.1" id="Layer_1" xmlns="http://www.w3.org/2000/svg" xmlns:xlink="http://www.w3.org/1999/xlink" x="0px" y="0px"
	 viewBox="0 0 200 600" style="enable-background:new 0 0 200 600;" xml:space="preserve">
<style type="text/css">
	.st0{fill:#4670B7;}
	.st1{fill:none;stroke:#4670B7;stroke-miterlimit:10;}
	.st2{fill:#000005;}
	.st3{fill:#3C5F9C;}
	.st4{fill:#000010;}
</style>
<g>
	<g>
		<g>
			<g>
				<g>
					<path class="st0" d="M79.2,293.6c-0.5-1.1-0.9-2.2-1-3.3c-0.4-3-5.3-4.4-5.9-0.8c-1.2,7-3.2,13.8-6,20.4
						c-0.8,1.9,1.1,3.7,2.9,3.7c5,0,10,0,14.9-0.2c2.9-0.1,8.7,1,11.2-1c2.4-1.8,0.7-4.6,1.3-7c0.7-2.6,3.1-4.4,5.8-3.4
						c3.5,1.3,2.6,5.2,1.9,8.1c-0.6,2.3,1.4,4.1,3.7,3.6c8.5-1.9,8-11.4,7-18.2c-1.4-9.1-5.8-15.2-13.2-20.5c-2.4-1.8-5.7,1.7-4.1,4
						c4.2,6.3,6.3,13.4,8.4,20.5c1,3.6,6.7,2.2,5.8-1.6c-1.4-5.6-3.8-11.3-9.4-14c-5.4-2.6-11.5-1.2-16.6,1.2
						c-5.8,2.7-10.8,5.6-13.4,11.6c-1.3,3.1-2.1,6.1-4.6,8.6c-1.9,1.9-3.2,2.8-3.4,5.6c-0.3,3.8,5.6,3.7,6,0c0.2-2,0.3-4,0.2-6
						c-0.1-3.3-5-4.1-5.9-0.8c-0.1,0.5-0.3,1.1-0.4,1.6c2,0.3,3.9,0.5,5.9,0.8c-0.6-8.7-2-17.8-1.1-26.5c0.9-8.9,4.6-17.2,8-25.3
						c-1.4,0.4-2.7,0.7-4.1,1.1c9.1,6,23.7,5.3,34,4.2c2.7-0.3,5.4-0.7,8-1.2c2.2-0.4,6.8-2.6,8.9-2.2c-0.8-0.9-0.9-0.8-0.2,0.1
						c0.4,0.7,0.8,1.5,1.2,2.3c0.8,1.6,1.4,3.2,2.1,4.7c1.1,2.9,1.9,5.9,2.6,8.9c0.8,3.7,6.6,2.2,5.8-1.6
						c-1.3-5.7-3.2-11.4-6.1-16.6c-2.9-5.2-6.1-3.6-11.3-2.4c-6.9,1.7-13.9,2.5-21,2.5c-6.8-0.1-15.1-0.1-20.9-3.9
						c-1.2-0.8-3.5-0.4-4.1,1.1c-3.6,8.4-7.2,16.7-8.5,25.7c-1.4,9.6,0.1,19.4,0.8,29.1c0.2,3.2,5,4.1,5.9,0.8
						c0.1-0.5,0.3-1.1,0.4-1.6c-2-0.3-3.9-0.5-5.9-0.8c0.1,2.1,0,4-0.2,6c2,0,4,0,6,0c0-0.7,2.9-2.7,3.4-3.3c1-1.3,1.7-2.7,2.3-4
						c1.9-4.4,2.9-7.9,7.4-10.4c4.1-2.4,9.2-5.3,14.2-4.3c5.4,1.1,7.1,6.1,8.3,10.8c1.9-0.5,3.9-1.1,5.8-1.6c-2.2-7.7-4.5-15.3-9-22
						c-1.4,1.4-2.7,2.7-4.1,4c4.7,3.3,8.1,7.1,9.7,12.8c1,3.6,3.4,13.9-2,15.1c1.2,1.2,2.5,2.5,3.7,3.6c1.3-5,1.7-10.4-3-13.9
						c-3.6-2.6-8.6-2.8-12.2-0.2c-1.9,1.4-3.4,3.3-4.1,5.6c-0.3,0.9-1.4,6-0.2,6.6c1.4-2,1.4-2.9-0.2-2.6c-0.9,0-1.8,0-2.7,0.1
						c-1.9,0.1-3.7,0.1-5.6,0.1c-4.4,0.1-8.7,0.1-13.1,0.1c1,1.3,1.9,2.5,2.9,3.7c2.7-6.6,4.7-13.3,6-20.4c-2-0.3-3.9-0.5-5.9-0.8
						c0.2,1.8,0.5,3.3,1.2,4.9C74.8,298.8,80.6,297.2,79.2,293.6L79.2,293.6z"/>
				</g>
			</g>
			<g>
				<g>
					<path class="st0" d="M113,305.1c-0.3,0.4-0.5,0.8-0.8,1.3c-0.8,1.3-0.3,3.3,1.1,4c1.5,0.8,3.2,0.4,4.1-1.1
						c0.3-0.4,0.5-0.8,0.8-1.3c0.8-1.3,0.3-3.3-1.1-4C115.6,303.3,113.9,303.7,113,305.1L113,305.1z"/>
				</g>
			</g>
			<g>
				<g>
					<path class="st0" d="M111.6,306.2c-0.8,1.1-1.7,2.1-2.6,3c-1.7,1.8-0.6,5.1,2.1,5c2-0.1,4.8-0.7,6.7-0.3
						c-0.7-0.7-1.4-1.4-2.1-2.1c0,0.1,0,0.2,0.1,0.3c0.5-1.1,0.9-2.3,1.4-3.3c-0.1,0-0.1,0.1-0.2,0.1c-1.8,1.4-2.1,4.8,0.7,5.4
						c5.6,1.1,11.3,0.4,17,1c2.1,0.3,3.2-2.1,2.9-3.7c-1.1-6.6,0.2-13.4,0.2-20c0-3-0.2-6-0.5-9c-0.3-3.1-2.1-7.6-1-10.4
						c1.3-3.5-4.5-5.1-5.8-1.6c-1,2.9-0.2,5.4,0.3,8.4c0.7,4.2,1,8.5,1.1,12.7c0,7.3-1.1,14.4,0,21.6c1-1.3,1.9-2.5,2.9-3.7
						c-5.1-0.6-10.3,0.2-15.4-0.8c0.2,1.8,0.5,3.6,0.7,5.4c0.1,0,0.1-0.1,0.2-0.1c1.1-0.9,1.7-1.9,1.4-3.3c0-0.1,0-0.2-0.1-0.3
						c-0.2-1-1.1-1.9-2.1-2.1c-2.6-0.6-5.7,0-8.3,0.1c0.7,1.7,1.4,3.3,2.1,5c1.3-1.4,2.4-2.8,3.5-4.1
						C119.1,306.2,113.9,303.2,111.6,306.2L111.6,306.2z"/>
				</g>
			</g>
			<g>
				<g>
					<path class="st0" d="M79,284.4c-0.3,0.3-0.6,0.6-0.9,1c1.7,0.4,3.3,0.9,5,1.3c0.2-1.1,0.1-2.1-0.1-3.1c-1,0-2,0-3,0
						c-0.7,1.3-0.4,1.8,0.9,1.4c1,1.3,1.9,2.5,2.9,3.7c0.4-1.9,0.8-7.1,2.4-8.2c-1.5-0.6-2.9-1.2-4.4-1.8c0.6,2.7,0.4,4.8-0.8,7.3
						c1.6-0.2,3.1-0.4,4.7-0.6c-0.6-0.6,3.2-5.1,3.8-5.7c-1.7-0.7-3.4-1.4-5.1-2.1c0.3,2.8-0.1,5-1.6,7.5c1.8,0.8,3.7,1.5,5.5,2.3
						c0.4-2.7,1.3-4.6,3.5-6.2c-1.5-0.6-2.9-1.2-4.4-1.8c0.6,1.3,0.5,2.2-0.5,2.9c1.4,1.4,2.7,2.7,4.1,4c0.5-0.9,2.7-4.9,3.9-4.7
						c0.4,0.7,0.8,1.5,1.2,2.2c0.5-1.3,1.4-2.1,2.6-2.5c-1.5-0.6-2.9-1.2-4.4-1.8c-0.4,0.5-0.8,1.1-1.3,1.6c1.1,0.5,2.3,0.9,3.4,1.4
						c0.1-0.1,0.1-0.3,0.2-0.4c-1.3-1-2.5-1.9-3.8-2.9c-0.4,0.9-0.8,1.7-1.3,2.6c1.6,0.2,3.1,0.4,4.7,0.6c-0.1-0.4-0.2-0.7-0.3-1.1
						c-0.7-0.7-1.4-1.4-2.1-2.1c0.3,0.8-1.9,3.2-2.4,3.4c-1.9,1.5-3,0.7-4.9-0.3c-1.4-0.7-2.2-1.5-3.9-1.2c-4,0.7-6.2,8.1-7.8,11
						c1.6-0.2,3.1-0.4,4.7-0.6c-1.8-1.9-4.5-4.9-7.5-3.9c-3.6,1.3-3.6,7.5-4.3,10.4c1.9,0,3.9,0,5.8,0c-0.6-2-0.9-3.7-0.6-5.8
						c-2-0.3-3.9-0.5-5.9-0.8c-0.1,2.3-0.4,4.4-0.8,6.6c1.9,0,3.9,0,5.8,0c-0.3-1.3-0.2-2.6,0.3-3.7c-2-0.3-3.9-0.5-5.9-0.8
						c0.3,2.5,0.4,4.8,0.3,7.4c2,0,4,0,6,0c-1.1-10.5-0.7-21.2,1.7-31.6c0.7-3.3,1.4-6.2,4.8-7.4c2.9-1,5.8,0.3,8.6,1.2
						c5,1.6,9.9,2.1,15.2,1.6c5.2-0.4,10.5-2.2,15.7-2.1c3.1,0,2.7,1.3,3.2,4.1c0.5,3.1,0.9,6.1,1.3,9.3c1.3,10.9,2.1,22,3,32.9
						c0.3,3.8,5.5,3.7,6,0c1.5-11.3,1.4-23.1-2.7-33.8c-0.2-0.6-0.7-3.1-1.2-3.3c-3.1-0.6-4,0-2.8,1.8c0.4,0.6,0.6,1.3,0.8,2.1
						c0.9,3.3,0.5,6.6,0,9.9c-0.4,3-0.9,5.9-1.3,8.9c-0.2,1.1-1,11.6-4.8,7.5c-1,1.7-1.9,3.3-2.9,4.9c0.5,0.1,0.9,0.2,1.4,0.3
						c0.7-0.7,1.4-1.4,2.1-2.1c0.6,1.3,0.9,2.7,1,4.1c0.6-1.5,1.2-2.9,1.8-4.3c0.1,0,0.1,0,0.2,0c-0.4,1.7-0.9,3.3-1.3,4.9
						c0.2,0,0.3,0,0.5,0c1.2-1.2,2.5-2.5,3.7-3.6c-8.1-2.5-7.7-12.9-8.6-19.4c-0.5-3.5-1.1-7.1-1.8-10.5c-0.5-2.6-2.6-9.4,2.7-7.3
						c-0.7-0.7-1.4-1.4-2.1-2.1c2,4.8,2.1,11.3,3,16.5c0.5,2.9,0.9,5.7,1.4,8.7c0.2,1.2,0.1,2.9,0.6,4c-0.3,0.9,0,1.4,0.9,1.4
						c1,0.6,1.3,0.2,0.8-1.2c1-3.9-7.1-28.9-3.8-29.7c-0.5-1.9-1.1-3.8-1.6-5.7c-5.7,2-12.3,2-18.3,2.2c-3.1,0.1-6.3,0.1-9.4-0.2
						c-3.2-0.3-6.4-1.7-9.6-1.7c-4.4,0.1-5.8,3.3-6.4,7.1c-0.5,2.8-0.6,5.5-0.9,8.3c-0.2,1.4-0.8,9.4-2.1,10c1.5,0.9,3,1.7,4.5,2.6
						c0.5-4.1,1.3-8.4,2.3-12.4c0.8-3.3,1.8-6,5.6-6.3c2.2-0.2,4.6,0.8,6.7,1.2c3.7,0.7,7.5,1.3,11.3,1.6c1.5,0.1,4.1-0.3,5.3,0.3
						c1.7,0.2,2.4,1.2,2,3.1c0.1,1.3,0,2.6-0.2,3.8c1,0,2,0,3,0c-1.4-0.8-2.4-2.6-3.2-3.9c-2-3.3-6.7-0.4-5.2,3
						c1.4,3.3,4,8.3,7.9,9.3c3.2,0.8,5.9-1.7,5.6-4.7c-0.9-8.7-17-10.2-23.4-10.3c-2.3,0-6.8-0.6-8.4,1.2c-1.6,1.7,1.7,0.7,3.1,0.7
						c1.7-0.1,3.3-0.1,5-0.2c3.2-0.1,6.5-0.4,9.6,0.1c-0.1,0,4.2,1.2,3.2-0.3c-0.3-0.4-2.9-0.1-3.2-0.1c-3.4,0.3-6.4,2.4-6.5,5.9
						c-0.1,4.5,6.7,11.1,5.7,14c0.7-0.7,1.4-1.4,2.1-2.1c-4.1,1.1-7.8,0.8-11.3,3.5c-4,3.3-4.6,8.4-10.7,8.6c-1,0-2.1,0-3.1-0.1
						c-2.5-0.7-2.9-0.6-1.2,0.3c0.7,0.9,1.2,0.8,1.6-0.2c2.2-1.4,3.5-5.6,5.4-7.6c2.2-2.3,5-3.5,8-4.3c0.9-0.2,6.8-1.8,7.1-1.3
						c0-1,0-2,0-3c-0.5,1.2-3.2,2.4-4.4,3.2c-1.9,1.3-3.7,2.6-5.6,3.8c-1.6,1.1-3.2,2.2-4.8,3.3c-0.8,0.6-1.6,1.1-2.4,1.7
						c-2.2,0.9-2.1,1.4,0.1,1.5c0.3,1,0.5,1.9,0.8,2.9c1-3.5,7.2-7.3,9.9-9.5c1.9-1.6,3.5-3.1,2.4-5.6c-1.3-3-5.5-4.2-8.1-5.7
						c-2.3-1.3-3.8-2.4-4.5-4.8c-0.5-1.8-0.8-3.3-1.7-4.8c-0.8-1.4-2.7-1.9-4.1-1.1c-3.4,2.1-3.5,6.1-3.9,9.8
						c-0.8,5.8-1.2,11.6-3.9,17c-1.7,3.4,3.5,6.4,5.2,3c1.9-3.8,3-7.8,3.6-12c0.3-1.9,0.5-3.7,0.7-5.5c0.1-1.1,0.2-6.3,1.3-7
						c-1.4-0.4-2.7-0.7-4.1-1.1C77.8,279.7,77.7,282.2,79,284.4c1,1.6,2.6,3,4.3,4c1,0.7,2,1.2,3.1,1.7c0.5,0.2,0.9,0.5,1.4,0.7
						c0.8,1,1.5,1,2.2,0.2c0.3-0.2,0.5-0.4,0.8-0.6c-0.9,0.7-1.7,1.4-2.6,2.1c-1.3,1.1-2.5,2.2-3.8,3.3c-2.2,2.1-7.7,6-6.2,9.8
						c1.5,3.8,5.5,1.9,7.8,0.4c5.7-3.6,11.3-7.6,16.7-11.5c2.3-1.7,4.4-4.2,1.7-6.9c-3-2.9-8.7-1.1-12.2-0.3
						c-5,1.2-9.3,3.3-12.6,7.3c-1.9,2.4-3.5,4.9-5.2,7.4c-1,1.5-2.5,3.1-2.3,4.9c0.5,3.8,5.8,3.8,8.7,3.9c4.4,0.1,8.7-0.8,11.7-4.2
						c1.5-1.8,2.4-4,4.2-5.5c2.6-2.2,5.3-1.6,8.3-2.3c4.1-1,3.5-4.4,2.4-7.6c-0.9-2.6-2.2-4.7-3.3-7.2c-0.2-0.3-0.3-0.5-0.5-0.8
						c-1.3-2.1-1-3,1.1-2.5c1.2-0.4,3,0.2,4.3-0.3c2.9-1,4.6-4,3.1-6.9c-1.9-3.6-7.5-4.3-11.1-4.5c-3.5-0.2-7,0.1-10.5,0.2
						c-2.9,0.1-6.4-0.4-9.1,0.8c-3.6,1.6-4,5.9-1,8.3c2.2,1.8,4.9,1.3,7.6,1.1c3.3-0.2,6.7-0.4,10.1,0c1.4,0.1,2.8,0.4,4.1,0.7
						c2.4,0.5,4.7,2.2,7,2.6c0.9,0.2,3.2,3.3,3.7-0.4c0-0.4-3.5-5.2-3.9-6.2c-1.7,1-3.5,2-5.2,3c1.3,2.3,3.4,6.1,6.4,6.4
						c3.1,0.3,4.4-2.7,4.8-5.1c0.6-3.2,0.5-7.6-1.4-10.3c-2.1-3.1-5.7-2.8-9-3c-5.4-0.3-10.6-1.2-15.8-2.3
						c-3.7-0.8-7.3-1.5-10.7,0.8c-3.2,2.2-4.7,5.6-5.5,9.3c-1.1,4.6-2,9.4-2.5,14c-0.3,2.4,2.7,3.4,4.5,2.6
						c3.9-2.1,4.1-8.4,4.7-12.1c0.4-2.7,0.6-5.2,0.9-7.9c0.2-1.7,0.1-3.8,1.6-4.3c1-0.3,3.6,0.7,4.4,0.8c5.5,1,11.2,1,16.8,0.7
						c5.6-0.3,11.7-0.4,17.1-2.3c3.6-1.3,2.2-6.6-1.6-5.7c-6.8,1.6-5.5,9.2-4.5,14.3c0.7,3.9,1.9,7.8,2.8,11.7c1,4.3,0.4,8.8,1.2,13
						c0.9,4.2,5.5,6.7,8.5,2.9c2.1-2.8,1.7-6.2,1.3-9.4c-0.7-4.5-1.5-9-2.2-13.4c-0.7-4.3-0.9-9.3-2.2-13.4
						c-0.8-2.6-2.3-3.5-4.9-3.5c-2,0-5.5,0.2-7.1,1.7c-2,1.9-1.9,5.6-1.6,8.1c0.5,4.5,1.8,9,2.5,13.5c0.6,4.1,0.5,8.6,1.4,12.6
						c1.3,5.5,6.1,11.5,11.7,13.2c2.1,0.7,4.4-1.5,3.7-3.6c-1.1-3.4-4.2-5.3-7.8-4.1c-2,0.6-3.1,3.3-1.3,4.9c1.8,1.6,3.3,2,5.7,1.6
						c1.9-0.3,2.8-2.9,1.8-4.3c-1.9-3-5.9-5.6-9.6-4c-3.3,1.5-3.4,5.5-0.6,7.6c2.3,1.8,6.5,2,7.7-1.2c1.4-3.6-2.4-6.8-5.6-7.6
						c-3-0.7-4.9,2.8-2.9,4.9c2.1,2.4,5.2,3.5,8.4,2.6c3.9-1.2,5.2-4.6,5.8-8.3c1.4-9.1,4.9-20.6,0.8-29.4c-3-6.2-10.5-4.7-8.4,2.5
						c1.7,6,3.9,11,4.4,17.4c0.4,6,0.1,12-0.6,18c2,0,4,0,6,0c-1.2-14-2.1-28.1-4.3-41.9c-0.6-4-0.4-10-5.6-10.5
						c-6.9-0.7-14.3,2.1-21.2,2.5c-3.7,0.2-7.3-0.2-10.9-1.3c-2.9-0.9-5.6-2-8.7-2.1c-5.1-0.2-9.5,2.5-11.5,7.1
						c-2.2,5-2.8,11.1-3.4,16.6c-0.8,7.2-0.7,14.5,0,21.7c0.4,3.7,5.9,3.8,6,0c0.1-2.5,0-4.9-0.3-7.4c-0.4-3.2-4.9-4.2-5.9-0.8
						c-0.7,2.4-0.7,4.4-0.3,6.8c0.5,2.9,5.3,2.9,5.8,0c0.5-2.8,0.8-5.4,1-8.2c0.2-3.3-5.3-4.1-5.9-0.8c-0.5,3.2-0.4,5.9,0.6,9
						c0.9,2.7,5.1,3,5.8,0c0.6-2.4,0.8-5.5,1.9-7.7c-0.9,0.5-1.7,1-2.6,1.5c0.6-0.1,2.2,2.1,2.5,2.3c1.3,1.4,3.8,1,4.7-0.6
						c1.1-2,3.1-7.7,5-8.7c-1,0-2,0-3,0c3.8,1.7,5.6,4.4,10.3,2.7c3.4-1.3,7.9-6.1,7.9-10c0-3.7-4-4.8-6.9-3.3
						c-3.6,1.9-4,6.1-2.1,9.3c1,1.8,3.3,1.9,4.7,0.6c2.2-1.9,3-3.9,3-6.7c0-1.8-2-3.5-3.8-2.9c-4.1,1.6-5.5,5.1-3.8,9.1
						c0.5,1.2,2.2,1.7,3.4,1.4c4.2-1.4,6-4.6,5.4-8.9c-0.3-2.1-2.9-2.5-4.4-1.8c-3.5,1.6-6.6,5.6-5.5,9.7c1,3.7,5.5,4.7,7.9,1.6
						c2.2-3,2.8-9.5-1-11.4c-4.7-2.5-9.5,4-11.3,7.4c-1.3,2.4,1.5,6,4.1,4c3.1-2.4,4.6-5.7,3.2-9.5c-0.6-1.7-2.7-3-4.4-1.8
						c-3.5,2.5-5.7,5.5-6.3,9.8c-0.4,3.1,3.6,5.4,5.5,2.3c1.9-3.3,2.8-6.6,2.4-10.4c-0.2-2.5-3.1-3.9-5.1-2.1
						c-3.3,3.1-7.8,10-3.8,14.1c1.3,1.3,3.8,1.1,4.7-0.6c2-3.9,2.4-7.6,1.4-11.8c-0.4-1.8-2.8-2.9-4.4-1.8
						c-3.7,2.6-4.4,7.6-5.2,11.7c-0.4,1.8,0.8,3.8,2.9,3.7c5.7-0.2,6.9-10.1,2.1-12.4c-0.9-0.4-2.1-0.6-3,0
						c-3.2,2.2-3.2,6.3-2.6,9.8c0.3,2.2,3.6,2.9,5,1.3c0.3-0.3,0.6-0.6,0.9-1C85.8,285.8,81.6,281.6,79,284.4L79,284.4z"/>
				</g>
			</g>
			<g>
				<g>
					<path class="st0" d="M67.7,310.1c-0.6,0.6-1.2,1.1-1.8,1.7c-0.5,0.2-0.6,0.6-0.3,1c1.4,1.8,11.9-1.7,14-2.1
						c2.4-0.5,4.9-1,7.4-1c1.6-0.1,3.2,0,4.8,0.3c1.2,0.2,2.4,0.6,3.4,1.4c0.2,0.3,0.4,0.7,0.6,1c-1.3-1.8-1.9-3.8-1.8-6
						c0.1-0.9,0.2-1.9,0.3-2.8c0.3-2,1-4.2,2.5-5.6c3.2-3.1,10-3.5,14-2.9c5.5,0.9,10.2,4.5,5.7,10c-2.8,3.4-6.3,8.4-11.4,7.3
						c-0.1,0.4-0.1,0.8-0.2,1.2c2.1-0.2,4.2-0.5,6.3-0.7c0.9-0.1,1.8-0.2,2.7-0.3c2.2-0.3,2.4-0.3,0.6,0.1c-0.1,0.4-0.1,0.8-0.2,1.2
						c2.8,0.2,5.1-0.2,5.9-3.2c0.8-2.9,0.1-6.6,0.3-9.6c0.2-3.7,0.4-7.4,0.7-11.1c0.3-3.3,0.6-6.8,1.1-10.1c0.2-2,0.1-4.7,0.9-6.5
						c0.5-1.3,1.2-2.2,2.3-2.7c0.3-0.1,0.6-0.3,0.9-0.4c1.5-2.9,0.2-5.5-1.6-8.2c-0.3,0.2-0.6,0.5-0.9,0.7c1.2,1,2.1,2.2,2.6,3.7
						c0.2,0.6,1.2,0.6,1.2-0.2c0-0.5,0-0.9,0-1.4c-0.4,0.1-0.7,0.2-1.1,0.3c0.3,0.9,0.5,1.9,0.8,2.8c0.4-0.1,0.7-0.2,1.1-0.3
						c-1-1.9-1.1-4-1.9-6c-0.3-0.7-0.6-1.4-1-2.1c-0.3-0.5-2.1-3.1-0.6-1c0.3-0.2,0.6-0.5,0.9-0.7c-0.5-0.6-1-1.2-1.5-1.8
						c-0.3-0.4-0.9-0.1-1,0.3c0,0.2,0,0.4,0.1,0.5c-0.3,0.2-0.6,0.5-0.9,0.7c0.7,0.5,1.5,1,2.2,1.5c0.3,0.2,0.8,0,0.9-0.4
						c0.8-2.6,0.9-4.8,0.4-7.5c-0.4,0.2-0.7,0.3-1.1,0.5c2.2,4,3.8,8.2,4.9,12.7c0.2,0.8,1.3,0.4,1.2-0.3c-1.1-4.5-2.8-8.9-5-13
						c-0.3-0.6-1.2-0.2-1.1,0.5c0.4,1.7,1.6,7.1-1.7,5c-0.4-0.3-1.1,0.2-0.9,0.7c0.3,0.7,0.3,0.8,0.9,1.3c0.3,0.2,0.8,0,0.9-0.4
						c0.3-0.6,0.6-0.3,0.9,0.7c0.4,0.5,1.4-0.2,0.9-0.7c-0.9-1.2-1.5-1.6-3-1.8c-0.4-0.1-0.8,0.6-0.5,0.9c2.7,3.4,2.9,7.5,4.9,11.1
						c0.3,0.5,1.2,0.3,1.1-0.3c-0.2-2.1,0-1.5-1-3.3c-0.3-0.5-1.1-0.3-1.1,0.3c0,0.5,0,0.9,0,1.4c0.4-0.1,0.8-0.1,1.2-0.2
						c-0.7-1.8-1.5-3-2.9-4.2c-0.5-0.4-1.3,0.1-0.9,0.7c1.7,2.7,2.1,4.4,0.3,7.3c-0.5,0.8-1.2,0.9-1.7,1.9
						c-1.5,2.9-1.4,7.8-1.7,10.8c-0.6,4.9-1,9.9-1.2,14.8c-0.2,4.1,1.4,15.6-5.1,15.3c-0.7,0-0.8,1-0.2,1.2c2,0.6,3.2-0.2,3.9-2.1
						c0.1-0.3-0.2-0.8-0.6-0.8c-4.2,0.5-8.4,1-12.5,1.5c-0.6,0.1-0.9,1-0.2,1.2c3.4,0.7,6-0.7,8.4-3c1.7-1.6,3.2-3.5,4.7-5.3
						c0.8-1,2.6-2.4,2.8-3.7c0.6-6-9.7-8-13.8-7.8c-7.7,0.4-13.1,3.2-13.9,11c-0.2,1.9-0.5,6.2,1.4,7.6c0.7,0.5,1.5,1.1,2,0
						c0.1-0.3,0.1-0.6-0.2-0.8c-0.1-0.1-0.2-0.1-0.3-0.2c-0.2-0.1-0.5-0.1-0.7,0.1c-0.1,0.1-0.1,0.1-0.2,0.2c-0.4,0.4,0,1.1,0.6,1
						c0.2,0,0.4-0.1,0.5-0.1c0.2-0.1,0.4-0.2,0.4-0.4c1.9-7.3-29.1,0-31.2,0.4c-0.4,0.1-0.6,0.7-0.3,1c0.6,0.5,0.7,0.6,1.4,0.4
						c0.2,0,0.4-0.2,0.4-0.4c0.4-1.4,1.3-1.1,2.1-3C69.2,309.7,68,309.4,67.7,310.1L67.7,310.1z"/>
				</g>
			</g>
			<g>
				<g>
					<path class="st0" d="M116,273.4c1.6,5.4,1.7,11,0,16.5c-0.7,2.3-1.9,4.4-2.8,6.6c-0.4,1.1-0.8,2.2-1.1,3.3
						c-0.1,2.9-1.6,3.9-4.6,3.5c-0.1-0.5-1.1-0.6-1.2,0c-0.1,0.9-0.3,1.8-0.4,2.6c0.4,0.1,0.8,0.1,1.2,0.2c-0.1-0.9-0.3-1.7-1.4-1.4
						c-0.3,0.1-0.5,0.4-0.4,0.7c0,0.1,0,0.2,0.1,0.3c0,0.3,0.3,0.4,0.6,0.4c0.1,0,0.2,0,0.3,0c0.3,0,0.6-0.3,0.6-0.6
						c0.3-3.6-2.2-6-5.8-6.2c0.1,0.4,0.1,0.8,0.2,1.2c1.7-1.1,3.1-0.3,4,2.2c2.6,0.9,3.4,2.3,2.2,4c-0.2,1.4-1.2,3-1.7,4.2
						c0.4,0,0.7-0.1,1.1-0.1c0.8,1.1,4.7-2.7,5-3c2.4-3,3.9-6.8,5.5-10.1c1.9-4.1,11-27.4,16-15.4c0.3,0.6,1.1,0.6,1.2-0.2
						c0.2-3.1,0.2-6.1,0.1-9.2c-0.4,0.1-0.7,0.2-1.1,0.3c0.7,1.2,1.3,2.3,2,3.4c0.3,0.6,1.2,0.2,1.1-0.5c-0.1-0.6-0.3-1.2-0.4-1.8
						c-0.2-0.8-1.3-0.4-1.2,0.3c0.1,0.6,0.2,1.3,0.4,1.9c0.1,0.7,1.3,0.5,1.2-0.2c-0.1-0.9-0.2-1.8-0.3-2.7
						c-0.4,0.1-0.8,0.1-1.2,0.2c0.1,0.4,0.2,0.8,0.3,1.2c0.2,0.6,1.3,0.5,1.2-0.2c-0.1-0.5-0.1-0.9-0.2-1.4
						c-0.4,0.1-0.8,0.1-1.2,0.2c0.2,0.7,0.4,1.5,0.7,2.2c0.2,0.6,1.3,0.5,1.2-0.2c-0.1-0.7-0.2-1.3-0.3-2c-0.4,0.1-0.8,0.1-1.2,0.2
						c0.6,3.4,0.8,6.8,0.6,10.3c0,0.7,1,0.8,1.2,0.2c0.6-1.8,0.9-3.3,0.9-5.1c-0.4,0.1-0.8,0.1-1.2,0.2c0.4,3-1.5,0.3-2.5-0.3
						c-1.2-0.8-2.5-1.5-3.9-2c-2.6-1-5.3-1.5-8-1.6c-7.3-0.3-15.1,1.5-21.8,3.9c-6,2.2-12.3,5.4-16.8,10c-2.1,2.3-2.7,4.3-3.8,7.1
						c-1,2.7-2.8,3.8-4.5,5.9c-0.3,0.4-0.6,0.9-0.9,1.3c-0.9,2.8-2.9,2.6-6.2-0.8c-0.4-0.1-0.8-0.1-1.2-0.2c0.1,2.5-1,7.4,2,8.4
						c2.9,1,9.1-3.3,11-4.9c2-1.6,3.5-3.4,5.4-5.1c2.9-2.7,6.5-4.2,10.1-5.6c5-2,10-2.7,12.2,3.3c0.7,1.7,1.2,3.1,2.4,4.4
						c0.5,0.6,1.3-0.3,0.8-0.8c-2.4-2.8-2.2-7.4-5.8-9.1c-3.9-1.9-8.7,0.5-12.3,2.1c-4.2,1.8-7.3,3.9-10.5,7.1
						c-2.3,2.3-4.7,4.3-7.6,5.7c-2.1,1-4.6,2.7-6.4-0.5c-0.6-1-0.2-3.6-0.3-4.7c0-0.6-1.1-0.9-1.2-0.2c-0.6,3.6,1.3,9.2,5.9,5.6
						c1.1-0.8,1.2-1.6,1.8-2.7c1-1.5,2.2-2.9,3.4-4.2c2.8-3.3,2.9-7.3,5.7-10.6c5.5-6.7,15.6-10.5,23.8-12.5c10-2.4,21-3.3,28.9,4.1
						c0.3,0.3,0.9,0.2,1-0.3c0.4-2,0.4-1.5,0.1-3.3c-0.1-0.7-1.2-0.5-1.2,0.2c0.1,1.7-0.2,3.3-0.9,4.8c0.4,0.1,0.8,0.1,1.2,0.2
						c0.2-3.6,0-7.1-0.6-10.6c-0.1-0.7-1.3-0.5-1.2,0.2c0.1,0.7,0.2,1.3,0.3,2c0.4-0.1,0.8-0.1,1.2-0.2c-0.2-0.7-0.4-1.5-0.7-2.2
						c-0.2-0.6-1.3-0.5-1.2,0.2c0.1,0.5,0.1,0.9,0.2,1.4c0.4-0.1,0.8-0.1,1.2-0.2c-0.1-0.4-0.2-0.8-0.3-1.2
						c-0.2-0.6-1.3-0.5-1.2,0.2c0.1,0.9,0.2,1.8,0.3,2.7c0.4-0.1,0.8-0.1,1.2-0.2c-0.1-0.6-0.2-1.3-0.4-1.9
						c-0.4,0.1-0.8,0.2-1.2,0.3c0.1,0.6,0.3,1.2,0.4,1.8c0.4-0.2,0.7-0.3,1.1-0.5c-0.7-1.2-1.3-2.3-2-3.4c-0.3-0.5-1.1-0.3-1.1,0.3
						c0.1,3.1,0.1,6.1-0.1,9.2c0.4-0.1,0.8-0.1,1.2-0.2c-0.8-2.1-1.2-5.2-3.8-5.2c-3.2,0-6.4,3.9-7.9,6.3
						c-3.4,5.3-5.3,11.6-8.1,17.2c-1.2,2.5-2.5,5.9-4.6,7.8c-1.3,1.1-3.8,0.9-4.5,2.4c-0.1,0.2-0.1,0.4,0,0.6
						c0.1,0.1,0.2,0.2,0.3,0.4c0.3,0.4,0.9,0.4,1.1-0.1c1.2-2.9,4.1-7.4,2.1-10.5c-1.8-2.8-5.4-2.3-8.1-1.4
						c-0.6,0.2-0.5,1.2,0.2,1.2c1.6,1.9,3.3,3.6,4.9,5.5c0.1,0.6,1.1,0.9,1.2,0.2c0.1-0.9,0.3-1.8,0.4-2.6c-0.4,0-0.8,0-1.2,0
						c0.4,1.6,0.2,1.1,0.9,2.6c0.1,0.2,0.4,0.3,0.7,0.3c1.9-0.6,3.1-1.5,4.1-3.2c2-3.3,3.1-7.7,4.5-11.2c2.4-6.1,2.5-12.5,0.7-18.8
						C116.9,272.3,115.8,272.6,116,273.4L116,273.4z"/>
				</g>
			</g>
		</g>
		<g>
			<g>
				<path class="st0" d="M96,274.5c3.9,5.1,8.5,9.3,11.4,15.1c2.4,4.8,3.6,7.3,1.4,13.1c-0.1,0.2-1.7,3.8-1.6,3.9
					c0.2,0.1,0.2-1.5,0.2-1.4c0-0.6-0.8-0.8-1-0.3c-0.8,1.4-0.6,0.9-0.9,2.4c0.4,0,0.8,0,1.1,0c-0.1-0.5-0.2-1-0.4-1.5
					c-0.1-0.6-0.9-0.6-1.1,0c-0.1,0.6-0.2,1.1-0.3,1.7c0.4,0,0.8,0,1.1,0c-0.1-0.5-0.1-0.9-0.2-1.4c-0.1-0.7-1-0.5-1.1,0.2
					c0,0.4,0,0.7-0.1,1.1c0.4,0,0.8,0,1.1,0c0.3-4.5-1.5-6.4-5.7-6.2c0.1,0.4,0.1,0.8,0.2,1.2c3.3-1.2,7.7,0.3,6.6,5.8
					c-0.2,0.8-1,1.6-1.2,2.5c-0.8,3,0.5,0.8,0.9,2.1c-0.3-0.7-1.3-0.4-1.1,0.3v0.1c0.1,0.4,0.5,0.6,0.8,0.4l0.1-0.1
					c0.3-0.1,0.4-0.6,0.2-0.8c-1.4-2,3.6-6,1.5-9.2c-1.7-2.6-5.6-3.1-8.2-2.2c-0.6,0.2-0.6,1.2,0.2,1.2c2-0.1,4.8,2.8,4.6,5
					c0,0.8,1.1,0.8,1.1,0c0-0.4,0-0.7,0.1-1.1c-0.4,0.1-0.8,0.1-1.1,0.2c0.1,0.5,0.1,0.9,0.2,1.4c0.1,0.6,1,0.6,1.1,0
					c0.1-0.6,0.2-1.1,0.3-1.7c-0.4,0-0.8,0-1.1,0c0.1,0.5,0.2,1,0.4,1.5c0.1,0.6,0.9,0.6,1.1,0c0.3-0.7,0.6-1.4,0.8-2.1
					c-0.4-0.1-0.7-0.2-1-0.3c0,1.3-0.6,1.9,0.4,2.8c0.2,0.2,0.5,0.2,0.7,0.1c1.8-1,2.7-5.2,3.4-7.1c0.9-2.4,1-3.8,0.2-6.2
					c-3.1-8.7-8.8-14.1-14.2-21.2C96.3,273.1,95.5,273.9,96,274.5L96,274.5z"/>
			</g>
		</g>
		<g>
			<g>
				<path class="st0" d="M76.8,306.2c-2.2,2.2-4.1,4.1-7.6,4.1c-0.2,0-0.5,0.2-0.6,0.4c-0.8-0.2-1.6-0.4-2.4-0.6
					c-0.3-0.4-0.8-0.4-1,0c-0.3,0.5-0.6,0.9-0.9,1.4c0.4,0,0.7,0.1,1.1,0.1c-0.1-1.1-0.3-2.1-0.8-3c-0.3-0.7-1.3-0.4-1.2,0.3
					c0.5,2.3,1,4,1.9,6c0.2,0.3,0.7,0.4,0.9,0.1c6.6-7.9,12.7-18,23.2-21c5.5-1.6,13.2-2.4,16.1,3.4c1.2,2.5,1.9,5.5,2.1,8.3
					c0.1,1.9,0.6,4.4-1.1,5.6c-0.9,1.1-1.2,1-0.9-0.3c0-1,0-1.9,0-2.9c0-0.6-0.8-0.9-1.1-0.3c-0.5,1.1-0.5,1-0.2,2.2
					c0.2,0.7,1.4,0.4,1.2-0.3c0-0.4,0.1-0.8,0.1-1.3c-0.4-0.1-0.7-0.2-1.1-0.3c0,2,0,3.9-0.2,5.8c0,0.3,0.3,0.6,0.6,0.6
					c5.6-0.4,4.4-8.6,3.5-12.4c-0.6-2.5-1.5-7.4-3.4-9.2c-1.8-1.7-4.9-1.1-7.2-1.1c-7.7,0.1-14.1,2.6-19.8,7.7
					c-3.4,3.1-6.3,6.9-9.2,10.5c-0.3,0.4-2.9,3.7-2.7,3.7c-1.1-0.4-1.3-4.2-1.5-5.2c-0.4,0.1-0.8,0.2-1.2,0.3c0.5,0.9,0.7,2,0.8,3
					c0.1,0.5,0.8,0.5,1.1,0.1c0.6-1,1.5,0.7,2.1,0.7c1.3,0,0.9-0.3,2-0.7c3.2-1.2,5.6-2.5,8.1-5.1C78.2,306.5,77.4,305.6,76.8,306.2
					L76.8,306.2z"/>
			</g>
		</g>
		<ellipse class="st0" cx="86.2" cy="283.5" rx="3.7" ry="6.1"/>
		<ellipse class="st0" cx="65" cy="309.5" rx="1.1" ry="4.2"/>
		<ellipse class="st0" cx="114" cy="302" rx="4.1" ry="7.6"/>
		<ellipse class="st0" cx="100.3" cy="302.5" rx="2.5" ry="0.7"/>
		<ellipse class="st0" cx="137.4" cy="285.6" rx="0.1" ry="2.6"/>
		<ellipse class="st0" cx="136" cy="275.3" rx="0.5" ry="3.3"/>
		<ellipse class="st0" cx="137.7" cy="285.3" rx="0.3" ry="2.9"/>
		<ellipse class="st0" cx="65.5" cy="313.6" rx="1.3" ry="1.2"/>
		<ellipse class="st0" cx="103.8" cy="281.3" rx="9.8" ry="6.1"/>
		<line class="st1" x1="67" y1="314.3" x2="88" y2="313.6"/>
		<line class="st1" x1="99.5" y1="301.8" x2="96.5" y2="304"/>
		<line class="st1" x1="65.5" y1="314.4" x2="70" y2="314.4"/>
		<line class="st1" x1="68.1" y1="309.9" x2="68.9" y2="314"/>
		<line class="st1" x1="96.6" y1="313.3" x2="90.8" y2="312.9"/>
		<line class="st1" x1="104.8" y1="313.8" x2="136.3" y2="315.5"/>
		<line class="st1" x1="136.1" y1="308.8" x2="136.3" y2="315.5"/>
		<line class="st1" x1="122.9" y1="314.5" x2="115.4" y2="313.9"/>
		<line class="st1" x1="125" y1="315.6" x2="119.5" y2="315.5"/>
	</g>
	<g>
		<g>
			<g>
				<g>
					<g>
						<path class="st2" d="M65.2,315.9c5.4-1,11-0.4,16.5-0.9c4.7-0.4,9.7-1.1,14.4-0.5c0.7,0.1,0.8-1.1,0.2-1.2
							c-0.2,0-0.4-0.1-0.5-0.1c-0.8-0.1-1.1,1-0.3,1.2c0.2,0,0.4,0.1,0.5,0.1c0.1-0.4,0.1-0.8,0.2-1.2c-5.3-0.6-10.9,0.2-16.1,0.7
							c-5,0.4-10.1-0.1-15.1,0.8C64.2,314.9,64.5,316.1,65.2,315.9L65.2,315.9z"/>
					</g>
				</g>
				<g>
					<g>
						<path class="st2" d="M65.5,315.2c-1.5-1.4-1-6.8-1.1-8.8c-0.1-2.8-0.3-5.5-0.4-8.3c-0.2-5.2-0.7-10.5-0.4-15.8
							c0.7-11.3,5-21.9,10.3-31.8c0.4-0.7-0.7-1.3-1-0.6c-5.6,10.3-10,21.5-10.5,33.3c-0.3,6.5,0.3,13,0.6,19.5
							c0.1,3.1,0.3,6.2,0.4,9.2c0.1,1.8-0.1,2.9,1.2,4.1C65.2,316.5,66.1,315.7,65.5,315.2L65.5,315.2z"/>
					</g>
				</g>
				<g>
					<g>
						<path class="st2" d="M97.8,313.6c-0.8-0.8-0.2-3.5-0.2-4.5c0-1.5,0.1-2.9,0.1-4.4c0-0.8-1.2-0.8-1.2,0
							c-0.1,2.1-0.1,4.2-0.2,6.2c0,1.3-0.3,2.6,0.6,3.6C97.5,315,98.4,314.2,97.8,313.6L97.8,313.6z"/>
					</g>
				</g>
			</g>
			<g>
				<g>
					<g>
						<path class="st2" d="M136.1,316c-5-0.9-10-0.3-15.1-0.8c-5.3-0.4-10.9-1.3-16.1-0.7c0.1,0.4,0.1,0.8,0.2,1.2
							c0.2,0,0.4-0.1,0.5-0.1c0.8-0.1,0.4-1.3-0.3-1.2c-0.2,0-0.4,0.1-0.5,0.1c-0.7,0.1-0.5,1.3,0.2,1.2c4.7-0.6,9.7,0.1,14.4,0.5
							c5.5,0.5,11.1-0.1,16.5,0.9C136.6,317.3,136.9,316.1,136.1,316L136.1,316z"/>
					</g>
				</g>
				<g>
					<g>
						<path class="st2" d="M136.4,317.2c1.1-1,1-1.7,1.2-3.1c0.3-3.4,0.3-6.8,0.5-10.2c0.3-6.5,0.9-13,0.6-19.5
							c-0.5-11.8-4.9-23-10.5-33.3c-0.4-0.7-1.4-0.1-1,0.6c5.3,9.9,9.6,20.5,10.3,31.8c0.3,4.9-0.1,9.9-0.3,14.9
							c-0.1,2.8-0.3,5.5-0.4,8.3c-0.1,2.2,0.4,8.2-1.1,9.7C135,316.9,135.8,317.7,136.4,317.2L136.4,317.2z"/>
					</g>
				</g>
				<g>
					<g>
						<path class="st2" d="M104.1,315.7c0.9-1,0.6-2.3,0.6-3.6c-0.1-2.1-0.1-4.2-0.2-6.2c0-0.8-1.2-0.8-1.2,0c0,1.5,0.1,2.9,0.1,4.4
							c0,1,0.5,3.8-0.2,4.5C102.7,315.4,103.5,316.2,104.1,315.7L104.1,315.7z"/>
					</g>
				</g>
			</g>
			<g>
				<g>
					<path class="st2" d="M97.8,306.1c-0.9-2.6,5.8-3.5,6.1,0.1c0.1,0.8,1.3,0.8,1.2,0c-0.2-2.6-2.3-3.5-4.6-3.5
						c-2,0-4.8,1.2-3.9,3.7C96.9,307.2,98,306.8,97.8,306.1L97.8,306.1z"/>
				</g>
			</g>
			<g>
				<g>
					<path class="st2" d="M72.6,250.4c8.5,3.4,17.4,5.2,26.5,5.3c4.1,0,8.2-0.3,12.3-1c2.3-0.4,4.6-0.9,6.8-1.5
						c0.6-0.2,8.1-2.7,7.8-1.2c-0.1,0.8,1,1.1,1.2,0.3c0.3-1.7-0.4-2.5-2.3-2.5c-1.8,0-4.4,1.5-6.2,2c-2.8,0.8-5.6,1.4-8.5,1.8
						c-12.6,1.9-25.5,0.3-37.3-4.4C72.2,249,71.9,250.1,72.6,250.4L72.6,250.4z"/>
				</g>
			</g>
		</g>
		<g>
			<g>
				<path class="st3" d="M68.7,268.8c7-0.6,14.4-3.8,15.6-11.5c0.1-0.8-1-1.1-1.2-0.3c-1.2,7.1-8,10.1-14.5,10.6
					C67.9,267.7,67.9,268.9,68.7,268.8L68.7,268.8z"/>
			</g>
		</g>
		<g>
			<g>
				<path class="st3" d="M98.7,259.7c0.7,2.9,1,5.9,1,8.9c0,2.4-0.5,4.7-0.4,7.1c0,0.8,1.2,0.8,1.2,0c-0.1-2.8,0.5-5.5,0.4-8.3
					c0-2.7-0.4-5.3-1-8C99.7,258.7,98.5,259,98.7,259.7L98.7,259.7z"/>
			</g>
		</g>
		<g>
			<g>
				<path class="st3" d="M132.7,267.6c-6.5-0.5-13.3-3.5-14.5-10.6c-0.1-0.8-1.3-0.4-1.2,0.3c1.3,7.7,8.6,10.9,15.6,11.5
					C133.5,268.9,133.5,267.7,132.7,267.6L132.7,267.6z"/>
			</g>
		</g>
		<g>
			<g>
				<path class="st3" d="M68.8,311.3c-0.6-1.1-0.4-2.8-0.6-4c-0.1-1.3-0.2-2.5-0.4-3.8c-0.1-0.8-1.3-0.8-1.2,0
					c0.2,1.7,0.3,3.4,0.5,5.1c0.1,1.1,0,2.4,0.6,3.4C68.1,312.6,69.2,312,68.8,311.3L68.8,311.3z"/>
			</g>
		</g>
		<g>
			<g>
				<path class="st3" d="M133.7,312.4c0.7-3.8,1.1-7.6,1.2-11.4c0-0.8-1.2-0.8-1.2,0c-0.1,3.7-0.4,7.4-1.1,11.1
					C132.4,312.8,133.6,313.1,133.7,312.4L133.7,312.4z"/>
			</g>
		</g>
		<g>
			<g>
				<path class="st3" d="M93.6,311.6c0.5-1.4,0.7-2.7,0.8-4.2c0.1-1.6-0.5-3.2-0.1-4.8c0.2-0.8-1-1.1-1.2-0.3
					c-0.3,1.3,0,2.5,0.1,3.9c0.1,1.8-0.2,3.5-0.8,5.1C92.2,312,93.4,312.4,93.6,311.6L93.6,311.6z"/>
			</g>
		</g>
		<g>
			<g>
				<path class="st3" d="M110.5,312.7c-2.2-3-2.4-6.7-2.6-10.3c0-0.8-1.2-0.8-1.2,0c0.1,3.8,0.4,7.7,2.7,10.9
					C109.9,313.9,111,313.3,110.5,312.7L110.5,312.7z"/>
			</g>
		</g>
		<g>
			<g>
				<path class="st3" d="M97.6,261.1c0.8,0,0.8-1.2,0-1.2C96.8,259.9,96.8,261.1,97.6,261.1L97.6,261.1z"/>
			</g>
		</g>
		<g>
			<g>
				<path class="st4" d="M98.2,261.2c0.1-0.5-0.1-0.9-0.5-1.1c0.1,0.2,0.2,0.5,0.3,0.7c-0.1-0.1-0.2-0.2-0.4-0.2
					c-0.7,0.4-0.1,1.4,0.6,1c0.6-0.3,0.8-1.2,0.2-1.7c-0.6-0.5-1.4-0.1-1.6,0.6c-0.1,0.3,0.1,0.5,0.3,0.7c0-0.1,0-0.1-0.1-0.2
					C96.8,261.6,98,261.9,98.2,261.2L98.2,261.2z"/>
			</g>
		</g>
	</g>
</g>
</svg>
