<?xml version="1.0" encoding="utf-8"?>
<!-- Generator: Adobe Illustrator 21.0.2, SVG Export Plug-In . SVG Version: 6.00 Build 0)  -->
<svg version="1.1" id="Layer_1" xmlns="http://www.w3.org/2000/svg" xmlns:xlink="http://www.w3.org/1999/xlink" x="0px" y="0px"
	 viewBox="0 0 200 600" style="enable-background:new 0 0 200 600;" xml:space="preserve">
<style type="text/css">
	.st0{fill:#EEEE93;}
</style>
<g>
	<g>
		<g>
			<g>
				<path class="st0" d="M93.9,152.2c0,0-0.1,0-0.1,0c0.5,0.1,1.1,0.1,1.6,0.2c-0.1,0-0.2,0-0.3-0.1c0.5,0.2,1,0.4,1.4,0.6
					c0,0-0.1-0.1-0.1-0.1c0.4,0.3,0.8,0.6,1.2,0.9c0,0-0.1-0.1-0.1-0.1c0.3,0.4,0.6,0.8,0.9,1.2c-0.1-0.1-0.1-0.2-0.1-0.2
					c0.2,0.5,0.4,1,0.6,1.4c0,0,0-0.1,0-0.1c0.1,0.5,0.1,1.1,0.2,1.6c0-0.1,0-0.2,0-0.3c-0.1,0.5-0.1,1.1-0.2,1.6c0,0,0-0.1,0-0.1
					c-0.2,0.5-0.4,1-0.6,1.4c0,0,0-0.1,0.1-0.1c-0.3,0.4-0.6,0.8-0.9,1.2c0.1-0.1,0.1-0.1,0.2-0.2c-0.4,0.3-0.8,0.6-1.2,0.9
					c0.1-0.1,0.2-0.1,0.2-0.1c-0.5,0.2-1,0.4-1.4,0.6c0.1,0,0.2-0.1,0.3-0.1c-0.5,0.1-1.1,0.1-1.6,0.2c0.1,0,0.2,0,0.3,0
					c-0.5-0.1-1.1-0.1-1.6-0.2c0.1,0,0.2,0,0.3,0.1c-0.5-0.2-1-0.4-1.4-0.6c0.1,0,0.2,0.1,0.3,0.2c-0.4-0.3-0.8-0.6-1.2-0.9
					c0.1,0.1,0.2,0.1,0.2,0.2c-0.3-0.4-0.6-0.8-0.9-1.2c0.1,0.1,0.1,0.2,0.2,0.3c-0.2-0.5-0.4-1-0.6-1.4c0.1,0.2,0.1,0.4,0.2,0.6
					c-0.1-0.5-0.1-1.1-0.2-1.6c0,0.1,0,0.2,0,0.3c0.1-0.5,0.1-1.1,0.2-1.6c0,0.2-0.1,0.3-0.1,0.4c0.2-0.5,0.4-1,0.6-1.4
					c-0.1,0.1-0.1,0.3-0.2,0.4c0.3-0.4,0.6-0.8,0.9-1.2c-0.1,0.1-0.2,0.2-0.3,0.3c0.4-0.3,0.8-0.6,1.2-0.9c-0.1,0.1-0.2,0.1-0.2,0.1
					c0.5-0.2,1-0.4,1.4-0.6c0,0-0.1,0-0.1,0c0.5-0.1,1.1-0.1,1.6-0.2c-0.1,0-0.2,0-0.3,0c0.5,0.1,1.1,0.1,1.6,0.2
					c-0.1,0-0.2,0-0.2-0.1c0.5,0.2,1,0.4,1.4,0.6c0,0-0.1,0-0.1-0.1c0.4,0.3,0.8,0.6,1.2,0.9c-0.1-0.1-0.1-0.1-0.2-0.2
					c0.3,0.4,0.6,0.8,0.9,1.2c-0.1-0.1-0.1-0.1-0.1-0.2c0.2,0.5,0.4,1,0.6,1.4c0-0.1-0.1-0.2-0.1-0.3c0.1,0.5,0.1,1.1,0.2,1.6
					c0-0.1,0-0.2,0-0.3c-0.1,0.5-0.1,1.1-0.2,1.6c0-0.1,0-0.2,0.1-0.3c-0.2,0.5-0.4,1-0.6,1.4c0-0.1,0.1-0.2,0.1-0.2
					c-0.3,0.4-0.6,0.8-0.9,1.2c0,0,0.1-0.1,0.1-0.1c-0.4,0.3-0.8,0.6-1.2,0.9c0.1-0.1,0.1-0.1,0.2-0.1c-0.5,0.2-1,0.4-1.4,0.6
					c0.1,0,0.2-0.1,0.3-0.1c-0.5,0.1-1.1,0.1-1.6,0.2c0.1,0,0.2,0,0.3,0c-0.5-0.1-1.1-0.1-1.6-0.2c0.1,0,0.2,0,0.3,0.1
					c-0.5-0.2-1-0.4-1.4-0.6c0.1,0,0.2,0.1,0.2,0.1c-0.4-0.3-0.8-0.6-1.2-0.9c0.1,0.1,0.1,0.1,0.2,0.2c-0.3-0.4-0.6-0.8-0.9-1.2
					c0,0,0,0.1,0.1,0.1c-0.2-0.5-0.4-1-0.6-1.4c0,0.1,0.1,0.2,0.1,0.3c-0.1-0.5-0.1-1.1-0.2-1.6c0,0.1,0,0.2,0,0.3
					c0.1-0.5,0.1-1.1,0.2-1.6c0,0.1,0,0.2-0.1,0.3c0.2-0.5,0.4-1,0.6-1.4c0,0.1-0.1,0.2-0.1,0.2c0.3-0.4,0.6-0.8,0.9-1.2
					c-0.1,0.1-0.1,0.1-0.2,0.2c0.4-0.3,0.8-0.6,1.2-0.9c-0.1,0.1-0.2,0.1-0.3,0.1c-1.3,0.5-2.4,2.3-2.8,3.6
					c-0.4,1.4-0.2,3.3,0.6,4.6c0.8,1.3,2.1,2.4,3.6,2.8c0.5,0.1,1.1,0.1,1.6,0.2c1.1,0,2.1-0.3,3-0.8c0.5-0.2,1.1-0.7,1.5-1.1
					c0.4-0.4,0.9-1,1.2-1.5c0.6-1.1,1-2.4,1-3.6c0-3-2.1-5.9-5-6.6c-2.7-0.7-5.6,0.1-7.3,2.4c-0.8,1-1.2,2-1.4,3.3
					c-0.2,1.5,0.1,3,0.8,4.4c0.6,1,1.5,2,2.6,2.6c1.4,0.8,2.8,1,4.4,0.8c2.8-0.4,5-2.5,5.9-5.2c0.6-2,0.3-4.3-0.7-6.1
					c-1.3-2.2-3.7-3.6-6.3-3.6c-1.8,0-3.6,0.8-4.8,2c-1.2,1.2-2.1,3.1-2,4.8c0.1,1.8,0.7,3.5,2,4.8c0.8,0.8,1.8,1.4,2.9,1.7
					c0.6,0.2,1.4,0.3,2,0.3c0.8,0,1.6-0.1,2.3-0.5c0.7-0.2,1.4-0.7,1.9-1.2c1-1,1.8-2.7,1.8-4.2c-0.1-1.6-0.6-3.2-1.8-4.2
					C97.1,153,95.5,152,93.9,152.2L93.9,152.2z"/>
			</g>
		</g>
		<g>
			<g>
				<path class="st0" d="M95.3,146.8c1.1,1.8,1.9,2.1,2.4,0.8c0.4-0.6,0.9-1.2,1.4-1.7c-1.4-0.6-2.7-1.3-4.1-1.9
					c0,0.8,0,1.6-0.1,2.4c-0.1,1-1.2,3-1,3.9c3.5,3.3,5.6,3.7,6.2,1.3c0.2-0.7,0.5-1.3,0.9-1.9c1.4-2.5,4-3.2,5.5-5.2
					c1.6-0.6,1-1.4-2-2.5c0.1,0.5,0.2,0.9,0.3,1.4c-0.4,1.6-0.4,2.7-1.1,4.3c-0.5,1.2-1.7,2.2-2.1,3.4c-0.8,2.3,3.2,4.4,5,2.6
					c0.6-0.6,1.1-2.7,1.7-3.5c0.8-1.1,1.9-2,2.9-2.9c0.8-0.7,2.3-1.2,2.9-2c1.5-0.6,0.9-1.5-1.7-2.6c0,0.4,0,0.9,0,1.3
					c-1,3.3,0,6.7-2.3,9.8c1.7-1,3.5-2,5.2-3c-0.3,0-0.7,0-1,0.1c1.4,0.6,2.8,1.2,4.2,1.8c0.5,1.8,0.9,2,1.1,0.7
					c0.2-0.8,0.5-1.5,0.8-2.2c0.2-0.5,2.5-4.4,0.8-2.5c-2,0.1-1.4,0.4,1.9,0.9c2,1.6,3,1.5,3.2-0.2c0.2-0.3,0.4-0.6,0.6-0.8
					c-3.1-0.4-3.6-1.5-1.5-3.2c1.5-0.2,3.1-0.4,4.6-0.6c-0.3-0.1-0.6-0.1-0.9-0.2c1.2,0.9,2.4,1.8,3.6,2.8c-0.5,1.8-0.9,3.5-1.4,5.3
					c-1.5,0.2-3.1,0.4-4.6,0.6c-0.6-1.5-1.2-3-1.8-4.4c3.3,1.9,6.7,3.9,10,5.8c0.2-0.4,0.3-0.8,0.5-1.3c-0.9,1.2-1.8,2.4-2.8,3.6
					c0.4-0.2,0.8-0.5,1.2-0.7c-2.9-1.2-5.9-2.4-8.8-3.6c0.2,1,0.5,1.9,0.7,2.9c1.4,5.5,10.5,5.9,11.6,0c0-0.2,0.1-0.4,0.1-0.6
					c-1.4,1.4-2.8,2.8-4.2,4.2c0.2,0,0.5-0.1,0.7-0.1c-1.9-0.5-3.9-1-5.8-1.5c-0.3-0.5-0.6-0.9-0.9-1.4c0.9,3.6,5.6,5.7,8.8,3.6
					c2.3-1.5,4.5-3,6.8-4.5c1-0.7,2-1.3,3-2c0.8-0.5,2.2-1.2,2.1-1.2c-1.4-3.4-2.8-6.8-4.2-10.2c-0.3,0.2-0.5,0.4-0.8,0.6
					c-6.9,3.7-0.8,13.5,6.1,10.4c0.6-0.3,1.2-0.5,1.8-0.8c3-1.4,3.6-5.6,2.2-8.2c-2.3-4.2-4.3-8.5-6.1-13c-3.7,1.5-7.3,3.1-11,4.6
					c1.4,3.2,2.9,6.2,4.8,9.2c3.1,5,11.2,3.1,11.2-3c0-3-0.4-5.9-0.9-8.9c-3.9,1.1-7.7,2.1-11.6,3.2c0.6,2,1.2,4,1.8,6.1
					c1.8,6.2,12.5,5.4,11.8-1.6c-0.2-1.6-0.3-3-0.9-4.6c-3.9,1.1-7.7,2.1-11.6,3.2c0.4,1.3,0.9,2.6,1.3,3.9
					c2.4,7.3,13.6,4.3,11.6-3.2c-1.1-4.1-2.4-8-4.1-11.8c-2.9-6.9-14-4.4-11.6,3.2c0.5,1.5,1,3,1.5,4.6c2.4,7.3,13.6,4.3,11.6-3.2
					c-0.7-2.6-1.4-5.2-2.1-7.8c-3.9,1.1-7.7,2.1-11.6,3.2c0.6,1.6,1.1,3.2,1.7,4.8c2.5,7.3,13.3,4.4,11.6-3.2
					c-0.6-2.4-1.1-4.9-1.7-7.3c-3.9,1.1-7.7,2.1-11.6,3.2c0.9,2.6,1.7,5.2,2.6,7.8c2.5,7.3,13.3,4.4,11.6-3.2
					c-1.3-5.8-3.4-11.3-6-16.7c-3.5-7-13.4-0.9-10.4,6.1c1.4,3.2,2.8,6.4,4.2,9.6c2.5,5.7,11.2,2.5,11.2-3c0-3.3-0.8-6-2.1-9
					c-3.2-7-13.6-0.9-10.4,6.1c0.5,0.9,0.6,1.9,0.5,2.9c3.7-1,7.5-2,11.2-3c-1.4-3.2-2.8-6.4-4.2-9.6c-3.5,2-6.9,4-10.4,6.1
					c2.2,4.4,3.7,9,4.8,13.8c3.9-1.1,7.7-2.1,11.6-3.2c-0.9-2.6-1.7-5.2-2.6-7.8c-2.5-7.3-13.3-4.4-11.6,3.2
					c0.6,2.4,1.1,4.9,1.7,7.3c3.9-1.1,7.7-2.1,11.6-3.2c-0.6-1.6-1.1-3.2-1.7-4.8c-2.5-7.2-13.6-4.4-11.6,3.2
					c0.7,2.6,1.4,5.2,2.1,7.8c3.9-1.1,7.7-2.1,11.6-3.2c-0.5-1.5-1-3-1.5-4.6c-3.9,1.1-7.7,2.1-11.6,3.2c1.6,3.9,3,7.8,4.1,11.8
					c3.9-1.1,7.7-2.1,11.6-3.2c-0.4-1.3-0.9-2.6-1.3-3.9c-2.4-7.3-14-4.2-11.6,3.2c0.1,0.5,0.3,0.9,0.4,1.4
					c3.9-0.5,7.9-1.1,11.8-1.6c-0.6-2-1.2-4-1.8-6.1c-2.2-7.5-13-4.3-11.6,3.2c0.4,2,0.5,3.7,0.5,5.7c3.7-1,7.5-2,11.2-3
					c-1.8-2.9-3.4-6-4.8-9.2c-2.6-6.2-13.4-1.7-11,4.6c2.1,5.4,4.5,10.7,7.3,15.9c0.7-2.7,1.4-5.5,2.2-8.2c-0.6,0.3-1.2,0.5-1.8,0.8
					c2,3.5,4,6.9,6.1,10.4c1.3-0.7,2.2-1.4,3.2-2.5c3.7-4.2,0.9-9.6-4.2-10.2c-6.1-0.8-13.1,6.1-17.9,9.3c2.9,1.2,5.9,2.4,8.8,3.6
					c-0.4-1.6-1.1-2.7-2.2-3.9c-1.4-1.7-3.8-1.9-5.8-1.5c-0.2,0-0.5,0.1-0.7,0.1c-1.9,0.3-3.8,2.3-4.2,4.2c0,0.2-0.1,0.4-0.1,0.6
					c3.9,0,7.7,0,11.6,0c-0.2-1-0.5-1.9-0.7-2.9c-1-3.8-5.5-5.5-8.8-3.6c-2.5,1.5-3.4,2.9-4.4,5.5c-2.3,5.8,6.1,9.8,10,5.8
					c2.8-2.8,4.4-6.5,2.9-10.4c-1.6-4-6.1-6.6-10.3-4.9c-8.4,3.2-5,16.6,4.1,14.4c8.5-2.1,7.5-14.2,1.5-18.4
					c-7-4.8-15.5,2.3-17.1,9.3c-1.8,7.8,5.3,17.8,13.4,11.3c6.2-5.1,6.1-16.8-1.3-20.7c-8.8-4.7-16.4,4.9-18.5,12.5
					c-1,3.7-1.3,7.7,1.6,10.6c3.2,3.1,8.2,2.7,10.8-0.9c4.1-5.7,6.3-18.7,1.4-24.5c-6.1-7.2-16.4,0.3-21.3,5.3
					c-4.7,4.9-9.3,14.5-3.6,20.4c7.1,7.3,14.9-2.7,17.7-8.8c2.9-6.3,3.7-18.2-5.2-20.1c-7.9-1.7-16.3,6.3-19.6,12.7
					c-1.7,3.5-3,7.6-1.6,11.4c1.4,3.8,5.4,6.4,9.5,5.5c8-1.8,11-15.2,8.5-22c-4-11.1-16.8-4-20,3.7c-3.7,8.7,6.2,19.3,14.1,11.6
					c6.8-6.7,0.5-18.6-8.9-16.8c-9.4,1.8-11.2,15-2.3,18.9C96.2,160.3,102.3,149.9,95.3,146.8L95.3,146.8z"/>
			</g>
		</g>
		<g>
			<g>
				<path class="st0" d="M122.4,141.1c-0.1-1-0.3-2.1,0-3.1c0.1-0.4,1.2-2.3,1.2-2.3c-0.8-0.4-1.6-0.8-2.3-1.2c0,0.4,0,0.7,0.1,1.1
					c-0.2,0.5,0.1,2.4-0.4,2.8c1.4-0.6,2.8-1.2,4.2-1.8c-0.3,0-0.6,0-0.9-0.1c1.4,0.6,2.8,1.2,4.2,1.8c-1.6-1.3,0.1-3.5,0.3-5
					c0.2-0.4,0.5-0.7,0.8-1c-2.4-2.2-3.3-2.5-2.9-0.8c0.1,0.7,0.1,1.4,0,2.1c-1.1,2.9,0.2,2.5,4.1-1c1.2,0.9,2.4,1.8,3.6,2.8
					c0.2,1.1,0.3,0.9,0.2-0.4c0.1-0.8,0.5-1.5,1.1-2c1.2-0.5,0.5-0.9-2.1-1.5c-0.1,2.7,1.6,4.5,5.2,5.5c-1.5,0.2-3.1,0.4-4.6,0.6
					c0.3,0,0.6,0.1,0.9,0.1c-1.2-0.9-2.4-1.8-3.6-2.8c-0.1-1.9-0.3-2.3-0.7-1.2c-0.2,0.6-0.5,1.2-1,1.7c3.5,2,6.9,4,10.4,6.1
					c-0.6,0.5-1.3,1-1.9,1.5c-1.5-0.2-3.1-0.4-4.6-0.6c0.2,0.1,0.4,0.3,0.6,0.4c-1-1.7-2-3.5-3-5.2c0.2,0.7,0.6,0.3,1.2-1
					c2.7,0.7,5.5,1.4,8.2,2.2c0.1,1.1,0.1,2.3,0.2,3.4c-3.7-1.5-7.3-3.1-11-4.6c-0.1,0.3-0.2,0.6-0.4,0.9c-1.2,3,1.3,6.6,4.2,7.4
					c3.4,1,6.2-1.2,7.4-4.2c0.1-0.3,0.2-0.6,0.4-0.9c2.6-6.4-7.6-10.3-11-4.6c-1.8,3-1.6,5.6-0.2,8.7c1.3,2.8,5.8,3.9,8.2,2.2
					c3.8-2.6,6.7-8.7,3.5-13c-3.5-4.5-9.4-2.9-12.1,1.4c-4.2,6.5,6,12.3,10.4,6.1c2.2-3.1,3.8-7.5,2.3-11.2
					c-1.6-4.1-6.4-5.7-10.2-3.4c-8.3,4.9-2.2,17.8,6.9,15.1c8.3-2.5,8.2-15.5,1.5-19.7c-7.4-4.6-15.9,2.3-17.7,9.6
					c-0.8,3.4-0.7,8.2,1.9,10.9c3.1,3.1,8.3,2.4,11-0.8c4.8-5.8,4-19.1-4.3-21.3c-8.5-2.3-15.2,7.3-15.7,14.7
					c-0.4,6.8,5.6,18.1,13.4,11.6c6.1-5.1,5.4-19.3-2.1-22.7c-10-4.5-17.9,8.4-16.8,16.9c0.4,3.2,2.5,6,6,6
					C119.3,147.1,122.8,144.3,122.4,141.1L122.4,141.1z"/>
			</g>
		</g>
		<g>
			<g>
				<path class="st0" d="M72,139.7c-1.2-0.6-2.3-1.1-3.3-2.1c-0.5-0.6-0.9-2.2-1.3-2.4c-0.2-1.2-0.9-0.8-2.2,1.1
					c-2.3,0.6-2.7,1.5-1.2,2.7c0.2,0.5,0.4,0.9,0.6,1.4c0.1,1.8,0.2,1.9,0.5,0.2c1.2-0.9,2.4-1.8,3.6-2.8c1.9,1.8,2.7,2.1,2.6,1
					c0-0.3,0-0.7,0-1c0.7-0.9,0.2-2.5,1.6-3.1c1.9-0.8,3,3.7,3.3,5.2c0.3,1.2,0,2.7,0.4,3.8c0.9,2.7,6.1-0.7,4.2-3.2
					c0.1-1.2-0.3-1.5-1.1-0.9c-1.2,0.1-1.2,0.5,0,1.3c0.2,0.8,1.2,3.2,1.6,3.6c0.1,1.2,0.8,1.3,2.2,0.2c1.6,0.1,2.4-0.6,2.5-2.1
					c0.3-0.4,2-2.6,2-2.9c1-0.7,0.5-1-1.4-1c0.1,0.3,0.2,0.5,0.3,0.8c-0.1,1.3,0.7,1.4,2.4,0.4c1.9,0.5,2.7,0.2,2.2-1
					c0-0.2,0-0.5,0.1-0.7c-2.3,2.2-2.3,2,0.2-0.5c4.7-4.9,0.3-1.3,0.9-3.3c0.2-0.7,2.5-4.3,3.6-4.2c-1.4-0.6-2.8-1.2-4.2-1.8
					c1.7-1.6,2.7-1.5,3.1,0.3c0.2,1.3,0.9,1.7,2,1.2c2.1,1,5.2,2,7.3,0.7c0.4-0.2,0.8-0.3,1.3-0.3c1.9,0.1,1.7-1.3-0.6-4.2
					c-0.6,0-2.1,2-2.8,2.3c2,0,4,0,6.1,0c-0.2-0.1-0.4-0.2-0.7-0.4c0.9,1.2,1.8,2.4,2.8,3.6c1.9,2.3,0.7,0.7-3.5-4.9
					c-0.6,0.3-1.2,0.6-1.8,0.9c-7,3.2-0.9,13.6,6.1,10.4c5.1-2.4,8.9-7.5,6.2-13.2c-3.2-6.8-11.8-4.8-15.9-0.1
					c-3.5,4-4.8,11.3,0.8,14.1c5.4,2.7,11.4-3,13.7-7.6c2.8-5.7-0.8-11.2-6.6-12.6c-5.9-1.4-13.6,1.1-16.7,6.6
					c-2.7,4.7-0.7,10.7,4.5,12.6c6,2.1,12.2-2.6,12.1-8.8c0-13.4-21.4-14.8-25.3-3c-4.5,13.5,17.3,18.3,20.1,4.2
					c1.1-5.5-2-11.5-7.8-12.1c-6.5-0.8-13,6.1-14.5,12.1C78.5,142.8,96,151.5,103,140c7.2-11.9-10.2-23.4-18.9-12.6
					c-3.5,4.3-3.5,10.6-0.5,15.2c3.4,5.1,11,6.8,15.4,2.1C109,134,87,118.9,80.5,133.1c-2.1,4.5-1.4,10.7,2,14.5
					c4.7,5.2,12.8,3.2,15.3-3.1c2-5,0.6-11.3-3.6-14.8c-4.8-4-11.3-2.4-15.4,1.9c-4,4.2-6.7,10.8-5,16.5c1.8,6,8.4,9.4,14.2,6.8
					c11.3-5.2,3.2-25-6.7-27.1c-14.1-3-16.2,17.4-6.5,23.8c6.2,4.2,13.3-0.2,13.7-7.3c0.4-6.7-2-14.8-7.1-19.3
					c-11.8-10.5-27.5,7.8-20.5,19.9c3.5,6,13.4,7,15.6-0.7c1.7-5.9-2-13.7-7.1-16.8c-6.1-3.7-14.2-0.4-14.2,7.3
					c0,6.6,4.9,12.7,10.7,15.3C72.9,153.2,79,142.9,72,139.7L72,139.7z"/>
			</g>
		</g>
		<g>
			<g>
				<path class="st0" d="M116,130c-1-0.4-1.9-0.8-2.9-1.2c-0.6-1.4-1.2-2.8-1.8-4.2c0.5,0.7,1,1.4,1.5,2.1c-1.2-0.9-2.4-1.8-3.6-2.8
					c4.5-2.9,5.5-4.9,2.8-5.9c-0.7-0.4-1.5-0.7-2.2-1c-1.2-0.5-2.4-0.8-3.7-1.1c-2.9-0.5-5.7-0.5-8.6-0.4c0.5,3.9,1.1,7.9,1.6,11.8
					c5.9-1,11.9-1.9,17.8-2.9c-1.1-3.9-2.1-7.7-3.2-11.6c-1.5,0.4-2.9,0.7-4.5,0.9c1,3.7,2,7.5,3,11.2c5-2.8,10.1-5.6,15.1-8.4
					c4.1-2.3,3.7-8,0-10.4c-1.5-0.9-2.8-1.4-4.6-1.2c-3.5,0.4-7.3,3.6-5.8,7.6c0.8,2.2,3.1,5.9,2.9,8.2c0.6-1.4,1.2-2.8,1.8-4.2
					c-0.2,0.2-0.4,0.4-0.7,0.6c1.9-0.5,3.9-1,5.8-1.5c-0.3-0.1-0.6-0.2-0.9-0.2c1.2,0.9,2.4,1.8,3.6,2.8c-0.8,3.5-0.6,4.4,0.7,2.5
					c-1.5-0.2-3.1-0.4-4.6-0.6c-0.7-0.1-1.4-0.3-2.1-0.4c3.3-0.9,6.7-1.8,10-2.6c-0.2-0.3-0.5-0.6-0.7-0.8c0.6,1.4,1.2,2.8,1.8,4.2
					c-2.5,0.3-5,0.7-7.4,1c-0.4,5.7,6.6,7.2,10.2,4.2c3-2.5,3.8-6.9,2.1-10.4c-2.1-4.4-6.4-4.9-10-7.4c-1,3.7-2,7.5-3,11.2
					c1.5,0.1,3.1,0.2,4.6,0.3c6.3,0.4,7.7-8.1,3-11.2c-2.4-1.6-4.7-2.1-7.5-2.3c0,4,0,8,0,12c2.9,0.1,5.4,0.3,7.9,1.9
					c1.5-3.7,3.1-7.3,4.6-11c-4.6-1-10.9-3.8-15.6-2.2c-7.2,2.5-4.1,14.1,3.2,11.6c1.6-0.6,7.5,1.8,9.2,2.2c6.7,1.5,10.3-7.2,4.6-11
					c-4.2-2.8-9-3.3-13.9-3.5c-7.7-0.3-7.7,11.6,0,12c0.5,0.2,1,0.4,1.4,0.7c1-3.7,2-7.5,3-11.2c-1.5-0.1-3.1-0.2-4.6-0.3
					c-6.4-0.4-7.5,8.1-3,11.2c1.1,0.7,2.1,1.3,3.3,1.8c0.5,0.2,0.9,0.4,1.4,0.6c1.6,0.9,1.8-0.2,0.8-3.4c3.4,1.4,6.8,2.8,10.2,4.2
					c0.4-5.8-4.7-11.1-10.8-9.6c-6.5,1.7-7.2,9.2-3.3,13.6c3.3,3.8,8.5,1.2,10-2.6c2.1-5.2,0.6-13.8-6.5-13.9
					c-5.3-0.1-10.6,5.9-10.7,11c-0.1,6,6.9,9.8,11.6,5.8c5.1-4.3,1-11.4-0.9-16.2c-1.9,2.5-3.9,5.1-5.8,7.6c-0.5-0.2-1-0.3-1.5-0.5
					c0-3.5,0-6.9,0-10.4c-5,2.8-10.1,5.6-15.1,8.4c-4.9,2.7-3.1,11.8,3,11.2c2.6-0.3,5.1-0.7,7.6-1.3c7.6-2.1,4.3-12.8-3.2-11.6
					c-5.9,1-11.9,1.9-17.8,2.9c-6.7,1.1-5.1,12,1.6,11.8c2.5-0.1,5.2-0.3,7.7,0.5c2.5,0.8,4.5,2.3,7.2,2.4c4.8,0,9-3.8,8.7-8.7
					c-0.9-12.1-19.3-6.4-16.2,5.1c2.8,10.4,20.1,7.9,18.3-3.1c-0.8-5.1-6.3-6.5-10.7-5.3c-5.3,1.5-8.1,6.2-8.6,11.5
					C103.3,137.7,115.3,137.7,116,130L116,130z"/>
			</g>
		</g>
		<g>
			<g>
				<path class="st0" d="M86.1,142.7c0.2,0.7,0.4,1.3,0.6,2c-1,1.7-2,3.5-3,5.2c0.2-0.1,0.4-0.3,0.6-0.4c-1.5,0.2-3.1,0.4-4.6,0.6
					c0.5,0.1,1.6,2,1.7,2.2c0.2,0.4,0.4,0.8,0.5,1.1c0.2,1.9,0.6,1.8,1.2-0.4c1.4-0.6,2.8-1.2,4.2-1.8c-1,0-2-2.2-1.9-1.2
					c-0.6,1.4-1.2,2.8-1.8,4.2c-4.6,1.6-6.6,0.8-6.2-2.4c0.9-1.2,1.8-2.4,2.8-3.6c-0.2,0.1-0.5,0.2-0.7,0.3c1.5-0.2,3.1-0.4,4.6-0.6
					c-1.3-0.2-1.6-1-1.9-2.2c-3.3,1.9-6.7,3.9-10,5.8c0.1-0.7,0.2-1.4,0.2-2.1c1.2-0.9,2.4-1.8,3.6-2.8c3.2,1.7,4.3,1.5,3.3-0.7
					c-0.2-1-0.4-1.9-0.6-2.9c-0.4-1.9-0.7-3.8-1.3-5.7c-1.1-3.8-2.9-7-5.6-9.9c-1.4,3.4-2.8,6.8-4.2,10.2c3.7,0.5,7.4,1.2,11,2.1
					c6.7,1.6,10.4-7.3,4.6-11c-3.6-2.3-6.8-4.8-10-7.7c-1.9,3.3-3.9,6.7-5.8,10c4.3,0.8,8,2.1,11.8,4.4c6.7,3.9,12.6-6.3,6.1-10.4
					c-3-1.8-6-3.6-8-6.6c-2.3,2.9-4.5,5.9-6.8,8.8c4.6,1.6,9.3,3.2,13.9,4.9c6.9,2.4,9.7-7.2,4.6-11c-4-3-8.2-5.8-12.5-8.3
					c-1.5,3.7-3.1,7.3-4.6,11c4.9,1.3,9.8,2.6,14.7,3.9c6.4,1.7,10.9-8,4.6-11c-3.6-1.7-7.3-3.4-10.9-5.2c-1.5,3.7-3.1,7.3-4.6,11
					c3.7,0.7,7.2,1.7,10.7,3c6.3,2.3,10.9-8.3,4.6-11c-1.7-0.7-3.5-1.5-5.2-2.2c-1.5,3.7-3.1,7.3-4.6,11c3.9,0.7,7.6,1.6,11.4,2.8
					c7.4,2.3,10.5-9.3,3.2-11.6c-3.7-1.2-7.5-2.1-11.4-2.8c-6.1-1.1-11.3,8.1-4.6,11c1.7,0.7,3.5,1.5,5.2,2.2
					c1.5-3.7,3.1-7.3,4.6-11c-3.5-1.3-7-2.3-10.7-3c-6.2-1.2-11.2,7.8-4.6,11c3.6,1.7,7.3,3.4,10.9,5.2c1.5-3.7,3.1-7.3,4.6-11
					c-4.9-1.3-9.8-2.6-14.7-3.9c-6.5-1.7-10.6,7.5-4.6,11c4.3,2.5,8.5,5.3,12.5,8.3c1.5-3.7,3.1-7.3,4.6-11
					c-4.6-1.6-9.3-3.2-13.9-4.9c-4.9-1.7-9.6,4.5-6.8,8.8c3.2,4.8,7.5,7.9,12.3,10.9c2-3.5,4-6.9,6.1-10.4
					c-4.6-2.7-9.4-4.6-14.7-5.6c-5.5-1-10.6,5.6-5.8,10c3.8,3.6,8,6.8,12.4,9.6c1.5-3.7,3.1-7.3,4.6-11c-4.7-1.1-9.4-1.9-14.2-2.5
					c-5.5-0.7-7.4,6.8-4.2,10.2c5.5,5.9,1.9,18.1,9.9,22c3.7,1.8,8.4,0.4,10.3-3.4c2.1-4.2,0.3-8.4-2.8-11.4
					c-4.3-4.3-11.5,0.1-10,5.8c1.3,5.2,5.9,11,11.8,10.8c5.8-0.2,8-5.9,6.1-10.7c-2.1-5.4-9.2-8.2-13.4-3.2
					c-4,4.7-0.3,11.3,3.9,14.5c4.2,3.2,10.9,4.7,14.2-0.6c2.8-4.6,0.1-11.3-2.7-15.3c-2.8-4-8-8.3-12.9-4.9
					c-5.3,3.7-2.8,11.1,2.3,13.6C87,156.4,93.1,146,86.1,142.7L86.1,142.7z"/>
			</g>
		</g>
		<g>
			<g>
				<path class="st0" d="M63.5,120.9c-0.3,0-0.5,0-0.8-0.1c1,0.3,2,0.5,3,0.8c-0.2-0.2-0.4-0.3-0.6-0.5c0.7,0.7,1.4,1.4,2.2,2.2
					c-0.1-0.2-0.2-0.5-0.4-0.7c0.3,1,0.5,2,0.8,3c-0.2,0.4-0.4,0.8-0.7,1.1c-1,0.3-2,0.5-3,0.8c0.3,0,0.5,0,0.8,0
					c-1-0.3-2-0.5-3-0.8c-1.6-1.2-2-2.4-1.2-3.6c3.3-1.7,4.3-0.1,2.9,5.1c-1.1,0-2.1,0-3.2,0c0.1,0,0.3,0.1,0.4,0.1
					c-1.2-0.9-2.4-1.8-3.6-2.8c0.1,0.2,0.2,0.3,0.3,0.5c-0.3-1-0.5-2-0.8-3c0,1.2-0.4,0.7,0.1,0.5c1-0.3,2-0.5,3-0.8
					c0,0-0.1,0.1-0.1,0.1c0.9,0.5,1.8,1,2.6,1.5c0,0-0.1-0.1-0.1-0.1c0.3,1,0.5,2,0.8,3c0-0.3,0-0.6,0-0.8c-0.6,1.4-1.2,2.8-1.8,4.2
					c0.2-0.2,0.4-0.4,0.6-0.6c-1.9,0.5-3.9,1-5.8,1.5c0.2,0,0.4,0.1,0.7,0.1c-1.2-0.9-2.4-1.8-3.6-2.8c0.1,0.2,0.3,0.4,0.4,0.6
					c-0.3-1-0.5-2-0.8-3c0.1-0.1,0.2-0.1,0.1-0.2c0.7-0.7,1.4-1.4,2.2-2.2c-0.2,0.1-0.4,0.2-0.6,0.4c1-0.3,2-0.5,3-0.8
					c-0.2,0-0.4,0-0.6,0c1,0.3,2,0.5,3,0.8c0.9,1.9,1.4,2.4,1.3,1.5c0.1-0.7,0.3-1.4,0.5-2.1c0.4-1,0.8-1.7,1.5-2.5
					c1.1-1.1,2.7-2,4.2-1.5c-0.9-0.5-1.8-1-2.6-1.5c0.2,0.2,0.4,0.4,0.7,0.6c2.5,2.1,6,2.4,8.5,0c2.1-2.1,2.5-6.4,0-8.5
					c-11.1-9.3-27.2,5.9-24.5,18.2c1.7,7.6,12.1,9.8,14.8,1.6c1-3,0.7-6.3-1.7-8.6c-3.2-3.2-8.5-2-10.7,1.7c-1.8,3.2-0.6,7.2,2,9.4
					c3.1,2.8,7.9,2.5,11-0.2c4.4-3.9,6.2-14.1-1.2-15.9c-7.1-1.7-12.5,7.3-9.2,13.1c3.4,6,11.8,5.9,15.8,0.6c2.2-2.9,3-7.1,1.3-10.4
					c-1.8-3.6-5.8-5.3-9.6-3.9c-3.4,1.3-6,5.1-6,8.8c-0.1,4.7,3.4,7.7,7.8,8c3.2,0.3,6-2.9,6-6C69.5,123.5,66.7,121.2,63.5,120.9
					L63.5,120.9z"/>
			</g>
		</g>
		<g>
			<g>
				<path class="st0" d="M78.7,112.2c-0.1,0-0.2-0.3-0.2-0.3c-0.7-1.3-1.6-2.5-2.9-3.4c-1.3-0.9-2.7-1.3-4.3-1.3
					c-0.8,0-1.6,0.2-2.3,0.4c-0.8,0.4-0.9,0.4-0.3,0c0.9,3.3,1.8,6.7,2.6,10c-1.7,0.4-1.7,0.6-0.2,0.5c0.6,0,1.1,0,1.7,0
					c1.1,0,2.1-0.3,3.1-0.2c-1-0.3-2-0.5-3-0.8c1.8,0.8,3.3,2.3,4.8,3.5c2.5,2,6,2.5,8.5,0c2.1-2.1,2.6-6.5,0-8.5
					c-3.5-2.8-6.8-6.4-11.6-6.3c-4.3,0.1-8.6,0.1-11.8,3.2c-3.5,3.4-1.4,8.4,2.6,10c1.4,0.5,2.8,0.7,4.3,0.6c0.6,0,2.4-0.5,2.3-0.5
					c-1-0.3-2-0.5-3-0.8c0.2,0.1,0.4,0.3,0.6,0.4c-0.7-0.7-1.4-1.4-2.2-2.2c1.4,2,2.4,3.8,4.5,5.2c2.1,1.5,4.3,2,6.8,2.2
					c3.2,0.3,6-3,6-6C84.7,114.7,82,112.5,78.7,112.2L78.7,112.2z"/>
			</g>
		</g>
		<g>
			<g>
				<path class="st0" d="M63.5,137.8c0,0.2,0.1,0.3,0.1,0.5c-1.5,1.9-2.9,3.9-4.4,5.8c0.2-0.1,0.5-0.1,0.7-0.2
					c-1.5-0.2-3.1-0.4-4.6-0.6c-0.4-0.4-0.8-0.8-1.2-1.1c0.2-1.5,0.4-3.1,0.6-4.6c5,1.2,6.8,0.5,5.2-2c-1-2.2-4.5-3.6-6.8-2.8
					c-0.2,0.1-0.4,0.2-0.6,0.2c1.5,0.2,3.1,0.4,4.6,0.6c-0.2-0.1-0.4-0.2-0.6-0.4c0.9,1.2,1.8,2.4,2.8,3.6c-0.3-2.1,1.1-5.3,1.8-7.2
					c-3.9,0-7.7,0-11.6,0c0.4,1,0.1,10.7-1,11.2c3,1.7,6,3.5,9,5.2c0-0.8,0.2-1.6,0.6-2.3c-3.7-1-7.5-2-11.2-3
					c-0.1,2-0.4,3.4-1.1,5.3c-1.7,4.5,3.3,8.3,7.4,7.4c-2.3,0.5,0,0.5,1.4,1.2c1.2,0.5,2.3,1,3.4,1.6c2.5,1.3,4.5,2.8,6.3,5
					c2.8-2.8,5.7-5.7,8.5-8.5c-2.1-1.6-4.2-3.2-6.4-4.6c-6.8-4.2-12,5.8-6.1,10.4c0.5,0.3,0.9,0.7,1.4,1c6.1,4.7,12.1-5.7,6.1-10.4
					c-0.5-0.3-0.9-0.7-1.4-1c-2,3.5-4,6.9-6.1,10.4c1.4,0.8,2.7,1.7,4,2.7c6,4.7,13.6-2.5,8.5-8.5c-3-3.4-6.7-5.9-10.8-7.9
					c-3.8-1.8-7.8-4-12.1-3c2.5,2.5,4.9,4.9,7.4,7.4c1-2.8,1.5-5.5,1.5-8.5c0.1-5.7-8.6-8.6-11.2-3c-1.3,2.8-2,5.3-2.2,8.3
					c-0.4,5,5.3,6.9,9,5.2c4.2-1.9,5.6-5.9,6.2-10.2c0.6-4.6,2-10.2,0.4-14.6c-2.1-5.6-9.6-5.8-11.6,0c-1.3,3.9-3.2,9.5-1.8,13.6
					c1.2,3.5,5,5.7,8.6,4.3c-2.3-0.9-4.5-1.8-6.8-2.8c2.6,5.9,10.9,9.2,15.1,2.8c3.8-5.8-2.1-13.7-8.7-11.9
					c-2.8,0.8-4.1,3.1-4.4,5.8c-0.4,3,1.5,5.9,3.4,8C60.3,151.9,68.8,143.4,63.5,137.8L63.5,137.8z"/>
			</g>
		</g>
		<g>
			<g>
				<path class="st0" d="M102.6,206.5c-0.4,1-1.1,1.8-2.1,2.3c3.3,0.9,6.7,1.8,10,2.6c-2.5-6-1.3-13.9-0.9-20.3
					c0.5-7.1,1.4-14.1,2.8-21.1c-3.9-0.5-7.9-1.1-11.8-1.6c0.6,12.3-0.4,24.5-1.6,36.7c4,0,8,0,12,0c-0.3-11.5-0.5-22.9,2.7-34.1
					c-3.9,0-7.7,0-11.6,0c2.5,9.4,4.5,18.9,5.6,28.6c3.9-0.5,7.9-1.1,11.8-1.6c-1.9-8.8-2.6-17.6-2.3-26.7
					c-3.9,0.5-7.9,1.1-11.8,1.6c1.7,7.5,2.6,15,2.9,22.7c3.9-0.5,7.9-1.1,11.8-1.6c-2.9-10.6-2.1-21.9-6-32.2
					c-2.4-6.4-11.2-5.3-11.8,1.6c-0.3,3.3-0.5,6.5-0.8,9.8c-0.1,1.3-0.2,2.6-0.3,3.9c-0.1,1.6-1.3,4.5,0.9,3.3
					c2.9,1.2,5.9,2.4,8.8,3.6c-1.8-7.6-1.7-15.1,0.2-22.6c-3.9,0-7.7,0-11.6,0c1.6,9.7,2.9,20.2,7.2,29c2.8,5.8,10.8,2.4,11.2-3
					c0.6-8.6,1.2-17.3,1.8-25.9c-4,0-8,0-12,0c0.8,7.5,1.7,15.1,2.5,22.6c4,0,8,0,12,0c-0.8-7-0.8-14-0.2-21.1
					c-3.9,0.5-7.9,1.1-11.8,1.6c0.8,5,1.2,10,1.4,15.1c0.3,7.7,11.6,7.7,12,0c0.3-5.7,0.5-11.3,0.8-17c-4,0-8,0-12,0
					c0.6,5,0.7,10,0.4,15.1c4,0,8,0,12,0c0.1-4.2,0.7-8.2,1.7-12.3c-3.9-0.5-7.9-1.1-11.8-1.6c0.1,2.6,0.1,5.1-0.1,7.6c4,0,8,0,12,0
					c-0.2-2.3-0.1-4.5,0.4-6.7c-3.9,0-7.7,0-11.6,0c0.2,0.8,0.2,1.5,0.2,2.3c0.3,7.7,11.9,7.8,12,0c0-1.1,0-2.3,0.2-3.4
					c-3.7,0.5-7.3,1-11,1.4c0.2,0.4,0.3,0.7,0.5,1.1c-0.2-1.5-0.4-3.1-0.6-4.6c-0.1,0.4-0.1,0.8-0.2,1.2c3.9,0.5,7.9,1.1,11.8,1.6
					c-0.2-0.7-0.1-1.4,0.2-2.1c-3.9-0.5-7.9-1.1-11.8-1.6c0.5,7.2,0.3,14.4-0.5,21.6c4,0,8,0,12,0c-0.3-7.7-0.2-15.4,0.3-23.1
					c-4,0-8,0-12,0c0.2,1.9,0.4,3.8,0.6,5.6c0.7,6.1,10.7,8.9,11.8,1.6c0.3-1.9,0.6-3.9,0.9-5.8c-3.9-0.5-7.9-1.1-11.8-1.6
					c0.1,1.1,0.1,2.3,0.2,3.4c3.4-1.4,6.8-2.8,10.2-4.2c-0.3-0.4-0.6-0.8-1-1.2c-3.4-4.3-10.2-0.5-10.2,4.2
					c-0.1,4.2-0.1,8.5-0.2,12.7c-0.1,7.7,11.9,7.7,12,0c0.1-4.2,0.1-8.5,0.2-12.7c-3.4,1.4-6.8,2.8-10.2,4.2c0.3,0.4,0.6,0.8,1,1.2
					c3.2,4.1,10.6,0.7,10.2-4.2c-0.1-1.1-0.1-2.3-0.2-3.4c-0.4-6.3-10.7-8.7-11.8-1.6c-0.3,1.9-0.6,3.9-0.9,5.8
					c3.9,0.5,7.9,1.1,11.8,1.6c-0.2-1.9-0.4-3.8-0.6-5.6c-0.8-7.6-11.6-7.9-12,0c-0.4,7.7-0.5,15.4-0.3,23.1c0.3,7.9,11.2,7.5,12,0
					c0.8-7.2,1-14.4,0.5-21.6c-0.4-6.5-10-8.4-11.8-1.6c-0.5,1.8-0.7,3.5-0.6,5.3c0.4,6.3,10.8,8.7,11.8,1.6
					c0.4-2.8,0.2-4.4-0.9-6.9c-2.1-4.5-10.2-3.6-11,1.4c-0.4,2.2-0.6,4.3-0.7,6.6c4,0,8,0,12,0c-0.1-1.9-0.3-3.7-0.6-5.5
					c-1.1-5.8-10.3-5.6-11.6,0c-0.7,3.3-1.1,6.5-0.8,9.9c0.6,7.7,11.5,7.7,12,0c0.2-2.6,0.2-5.1,0.1-7.6c-0.2-6.6-10.1-8.4-11.8-1.6
					c-1.3,5.1-2,10.2-2.2,15.5c-0.2,7.8,11.6,7.7,12,0c0.3-5.1,0.1-10-0.4-15.1c-0.9-7.5-11.6-7.9-12,0c-0.3,5.7-0.5,11.3-0.8,17
					c4,0,8,0,12,0c-0.2-6.1-0.8-12.2-1.8-18.3c-1.1-7.2-11.2-4.6-11.8,1.6c-0.7,7-0.6,14,0.2,21.1c0.8,7.6,12.8,7.7,12,0
					c-0.8-7.5-1.7-15.1-2.5-22.6c-0.8-7.6-11.5-7.8-12,0c-0.6,8.6-1.2,17.3-1.8,25.9c3.7-1,7.5-2,11.2-3c-3.8-7.7-4.7-17.8-6-26.2
					c-1-6-10.2-5.4-11.6,0c-2.4,9.6-2.5,19.3-0.2,29c0.9,3.9,5.5,5.3,8.8,3.6c4.2-2.3,4.5-6.4,4.8-10.8c0.4-5.5,0.9-11.1,1.3-16.6
					c-3.9,0.5-7.9,1.1-11.8,1.6c3.8,10.4,3.1,21.6,6,32.2c1.7,6.4,12,5.3,11.8-1.6c-0.3-8.7-1.4-17.4-3.3-25.9
					c-1.5-6.8-11.6-5-11.8,1.6c-0.4,10.1,0.6,20,2.7,29.8c1.4,6.5,12.6,5.2,11.8-1.6c-1.3-10.7-3.3-21.3-6.1-31.7
					c-1.6-5.8-9.9-5.6-11.6,0c-3.6,12.1-3.5,24.7-3.2,37.3c0.2,7.8,11.3,7.6,12,0c1.2-12.2,2.3-24.4,1.6-36.7
					c-0.3-6.4-10.5-8.6-11.8-1.6c-1.5,8-2.6,16.1-3.2,24.3c-0.5,7.5-1.6,16.4,1.3,23.5c1.8,4.4,6.2,5.6,10,2.6
					c1.7-1.3,2.9-2.9,4-4.8C116.8,205.8,106.4,199.8,102.6,206.5L102.6,206.5z"/>
			</g>
		</g>
		<g>
			<g>
				<path class="st0" d="M101.8,222.9c-2.4-11.5-3.7-23.1-3.9-34.9c-0.1-6.5-10.6-8.5-11.8-1.6c-1.6,9.4,0.3,19.3,1,28.7
					c3.7-1,7.5-2,11.2-3c-3.6-5.9-3.1-15.5-3.6-22.3c-0.6-8.2-0.8-16.5-0.6-24.8c-4,0-8,0-12,0c1.1,9.3,2.1,18.6,3.2,27.8
					c0.9,7.5,11.7,7.9,12,0c0.5-13.5,2.1-26.8,4.8-40c-3.9,0-7.7,0-11.6,0c1.5,9.2,1.8,18.4,1.2,27.7c3.9-0.5,7.9-1.1,11.8-1.6
					c-1.9-6.7-2.3-13.5-1-20.3c-3.9-0.5-7.9-1.1-11.8-1.6c1.2,14.1-1.6,27.7-4.5,41.4c3.9,0.5,7.9,1.1,11.8,1.6
					c0.6-10.7,1.2-21.3,1.8-32c0.4-7.8-11.2-7.5-12,0c-0.8,8.1-1.8,16.1-4,24c3.9,0,7.7,0,11.6,0c-2.8-8.2-5-16.5-6.5-25.1
					c-3.7,1.5-7.3,3.1-11,4.6c2,4.3,2.6,8.6,2.3,13.3c3.7-1,7.5-2,11.2-3c-2.4-3.1-2.2-6.6-2.6-10.4c-0.4-4-1.2-7.8-3.5-11.1
					c-3.1-4.6-11.5-3.3-11.2,3c0.2,3.9-0.3,7.3-1.6,11c3.9,0.5,7.9,1.1,11.8,1.6c-0.6-5.1-0.9-10.3-1-15.4c-4,0-8,0-12,0
					c0.1,2.4,0.1,4.8,0.2,7.2c3.7-1,7.5-2,11.2-3c-0.7-1.4-1-2.7-1.2-4.2c-1.2-6.6-12.1-5.1-11.8,1.6c0.1,1.9,0.2,3.8,0.3,5.7
					c0.3,6.4,10.6,8.6,11.8,1.6c0.4-2.6,0.5-4.7-0.1-7.2c-3.9,1.1-7.7,2.1-11.6,3.2c0.4,0.6,0.3,1.1-0.2,1.7
					c3.9,0.5,7.9,1.1,11.8,1.6c-0.2-2.1-0.4-4.3-0.5-6.4c-0.6-7.6-12.6-7.7-12,0c0.2,2.1,0.4,4.3,0.5,6.4c0.6,7,9.2,7.9,11.8,1.6
					c1.1-2.6,1.1-5.4,0.2-8.1c-2.2-7.4-13.3-4.3-11.6,3.2c0,0.3,0.1,0.6,0.1,0.9c3.9,0.5,7.9,1.1,11.8,1.6c-0.1-1.9-0.2-3.8-0.3-5.7
					c-3.9,0.5-7.9,1.1-11.8,1.6c0.5,2.5,1.3,4.8,2.4,7.1c2.6,5.5,11.3,2.7,11.2-3c-0.1-2.4-0.1-4.8-0.2-7.2c-0.2-7.7-12.1-7.7-12,0
					c0.1,5.2,0.4,10.3,1,15.4c0.7,6.6,9.5,8.3,11.8,1.6c1.6-4.6,2.2-9.3,2-14.2c-3.7,1-7.5,2-11.2,3c4.3,6.3,1.1,15,6.1,21.5
					c3.6,4.6,10.8,3.3,11.2-3c0.4-6.9-1-13.2-4-19.4c-3.1-6.6-12-1.6-11,4.6c1.5,8.5,3.6,16.9,6.5,25.1c1.9,5.4,9.9,6,11.6,0
					c2.5-8.9,3.5-18,4.4-27.2c-4,0-8,0-12,0c-0.6,10.7-1.2,21.3-1.8,32c-0.4,6.7,10.4,8.2,11.8,1.6c3.1-14.7,6.2-29.5,4.9-44.6
					c-0.5-6.3-10.4-8.7-11.8-1.6c-1.7,9-1.5,17.8,1,26.7c1.9,6.7,11.3,5,11.8-1.6c0.7-10.4,0.1-20.6-1.6-30.9
					c-1-5.8-10.4-5.6-11.6,0c-2.9,14.3-4.6,28.7-5.2,43.2c4,0,8,0,12,0c-1.1-9.3-2.1-18.6-3.2-27.8c-0.9-7.5-11.8-7.9-12,0
					c-0.2,9.5,0.1,19.1,0.9,28.6c0.7,7.9,0.7,17.6,4.9,24.5c2.9,4.8,11.7,3.2,11.2-3c-0.7-8-2.8-17.5-1.5-25.5
					c-3.9-0.5-7.9-1.1-11.8-1.6c0.2,12.8,1.7,25.5,4.3,38.1C91.8,233.7,103.4,230.5,101.8,222.9L101.8,222.9z"/>
			</g>
		</g>
		<g>
			<g>
				<path class="st0" d="M90,203.7c0.5,1,0.4,0.7-0.3-1.1c-0.3-1-0.6-2.1-0.8-3.1c-0.3-2.2-0.2-4.4,0.2-6.5c-3.9,0-7.7,0-11.6,0
					c2.1,9.9,2.8,20,2.4,30.1c3.9-0.5,7.9-1.1,11.8-1.6c-1.7-10.7-3.3-21.6,0.1-32.2c-3.9,0-7.7,0-11.6,0c2.6,8,3.7,16.4,2.5,24.8
					c3.7-0.5,7.3-1,11-1.4c-3.3-4.6-5.6-11.8-2.3-17.2c-1.2,0.9-2.4,1.8-3.6,2.8c0.4-0.1,0.7-0.3,1.1-0.4c-1.9-0.5-3.9-1-5.8-1.5
					c1.8,1.4,2,4.4,2.4,6.4c0.7,3.1,1.2,6.2,1.5,9.3c0.6,6.1,0.6,12.3,0.1,18.4c3.7-1,7.5-2,11.2-3c-0.9-1.6-1.4-3.1-1.6-4.9
					c-0.1-0.7,0.8-4.8,0.7-5.1c-2.9-0.9-3.9-0.6-3.1,0.8c0.3,0.7,0.6,1.5,0.8,2.3c0.5,1.6,1,3.3,1.2,5c0.4,2.3,0.5,4.7,0.4,7
					c0,1.1-1,4.6-0.6,5.3c5.5-0.2,7.3-0.9,5.2-2c-0.5-0.3-0.9-0.7-1.3-1.1c-0.7-0.9-1.2-2.2-1.3-3.3c-0.1-0.4-0.1-0.9-0.1-1.3
					c0.9-2.3-0.3-2.3-3.7,0c-0.4,0.7,0.7,4.1,0.6,5.1c-0.1,0.9-0.3,1.7-0.6,2.6c-0.8,1.5,0.2,2.4,2.8,2.7c-0.3-1.1-0.4-2.1-0.2-3.2
					c1.1-2,0.5-2.3-1.7-0.9c-2.4-0.1-2.9,0.6-1.5,2c0.5,0.8,0.9,1.7,1.1,2.7c0.4,1.4,0.6,2.8,0.7,4.3c0,1.2-0.8,3.2-0.6,4.3
					c-0.9,1.8,0,1.9,2.8,0.4c-0.1-0.5,0.1-1,0.5-1.4c-2.7,0.7-5.5,1.4-8.2,2.2c0,0-1.1-0.8-1-0.2c1.4,2.9,2,3.4,1.8,1.5
					c0-0.7,0-1.3-0.1-2c-0.1-3-0.2-5.9-0.2-8.9c-0.1-5.9-0.1-11.9-0.1-17.8c-4,0-8,0-12,0c0.3,8.6-1,17.1-4.5,25.1
					c3.7,1,7.5,2,11.2,3c1.1-24.4,0.3-48.7-2.1-73c-0.8-7.6-12.8-7.7-12,0c2.5,24.3,3.2,48.6,2.1,73c-0.2,5.6,8.8,8.6,11.2,3
					c4.3-10,6.5-20.3,6.1-31.2c-0.3-7.7-11.9-7.8-12,0c-0.1,7.9,0,15.8,0.2,23.7c0.2,6.1-0.3,13.5,7,15.3
					c13.3,3.2,21.6-14.1,10.5-22c-2.7-1.9-6.6-0.4-8.2,2.2c-4.6,7.4-0.7,20.2,9.5,19.4c10.1-0.8,11.2-15.2,9.5-22.7
					C106,231.6,97.1,218.6,89,228c-5.6,6.5-4.6,22.1,5.6,23.3c11.4,1.3,14.3-14.6,12.5-22.8c-1-4.3-3.4-9.2-8-10.5
					c-5.1-1.5-9.4,2.1-11.1,6.5c-3.1,7.9,0.3,17.9,7.8,22c11.1,6.1,13.3-9.1,13-16.5c-0.3-8-3.1-26.4-14.9-24.2
					c-11.8,2.2-10.2,20-6,27.7c3,5.6,10.7,2.5,11.2-3c0.7-8.5,0.3-17-1-25.5c-0.9-5.6-1.9-15.1-7.8-18.1c-7.6-3.9-11.2,5.4-12,11.2
					c-1,7.3,0.8,14.6,5,20.7c2.6,3.7,10.2,4.2,11-1.4c1.5-10.6,0.9-21-2.5-31.2c-1.8-5.7-9.7-5.7-11.6,0c-4,12.7-2.2,25.7-0.1,38.6
					c1.1,6.9,11.5,4.9,11.8-1.6c0.4-11.2-0.6-22.3-2.9-33.3c-1.2-5.7-10.5-5.8-11.6,0c-1.3,7.1-1.6,20.7,6.4,24.3
					C91,217.1,97.1,206.8,90,203.7L90,203.7z"/>
			</g>
		</g>
		<g>
			<g>
				<path class="st0" d="M120.4,252.9c-1.7-3.8-0.7-9.6-1.1-13.8c-0.6-5.1-1.6-10.2-2.5-15.3c-2-10.2-3.7-20.5-0.8-30.7
					c-3.9,0-7.7,0-11.6,0c2.7,12.4,4.5,25,5.4,37.6c0.6,7.8,11.3,7.7,12,0c1.3-13.2-1.2-26.3-0.4-39.5c-4,0-8,0-12,0
					c0.7,6,1,12,0.8,18.1c-0.3,6.7,10.4,8.3,11.8,1.6c1.4-6.8,2.2-13.6,2.5-20.5c-3.9,0.5-7.9,1.1-11.8,1.6c0.6,2.8,1,5.5,1.3,8.3
					c0.6,7.6,11.7,7.8,12,0c0.1-4.2,0.6-8.3,1.5-12.4c-3.9-0.5-7.9-1.1-11.8-1.6c0,1.6-0.1,3.2-0.1,4.7c-0.2,7.8,11.5,7.6,12,0
					c0.2-2.3,0.3-4.6,0.5-6.9c-4,0-8,0-12,0c0.1,1.2,0.2,2.5,0.3,3.7c0.7,7.7,11.3,7.7,12,0c0.1-1.4,0.2-2.7,0.1-4.2c-4,0-8,0-12,0
					c0.1,1,0.2,2,0.2,3c0.5,6.2,10.6,8.7,11.8,1.6c0.7-3.9,1-7.6,0.8-11.5c-0.4-7.7-12.4-7.7-12,0c0.1,2.8,0.1,5.6-0.4,8.3
					c3.9,0.5,7.9,1.1,11.8,1.6c-0.1-1-0.2-2-0.2-3c-0.6-7.6-12.4-7.8-12,0c0.1,1.4,0,2.8-0.1,4.2c4,0,8,0,12,0
					c-0.1-1.2-0.2-2.5-0.3-3.7c-0.7-7.6-11.5-7.8-12,0c-0.2,2.3-0.3,4.6-0.5,6.9c4,0,8,0,12,0c0-1.6,0.1-3.2,0.1-4.7
					c0.2-6.7-10.3-8.3-11.8-1.6c-1.1,5.1-1.8,10.4-2,15.6c4,0,8,0,12,0c-0.3-3.9-0.9-7.7-1.7-11.5c-1.5-6.8-11.5-5-11.8,1.6
					c-0.2,5.9-0.9,11.6-2.1,17.3c3.9,0.5,7.9,1.1,11.8,1.6c0.2-6.1,0-12-0.8-18.1c-0.9-7.5-11.5-7.9-12,0
					c-0.8,13.2,1.6,26.4,0.4,39.5c4,0,8,0,12,0c-1-13.7-3-27.4-5.9-40.8c-1.3-6-10-5.5-11.6,0c-3.3,11.7-1.8,23.5,0.5,35.2
					c1.1,5.8,2.4,11.7,2.8,17.6c0.4,5.7,0.1,10.8,2.4,16.1C113.1,266,123.5,259.9,120.4,252.9L120.4,252.9z"/>
			</g>
		</g>
		<g>
			<g>
				<path class="st0" d="M126.2,233.3c-1.9-4.9-2.4-9.9-2.8-15.1c-0.6-7.6-12-7.8-12,0c0,5,0.6,10,1.8,14.9
					c1.5,6.5,12.3,5.2,11.8-1.6c-0.3-4.3-0.4-8.5,0-12.8c-3.9,0.5-7.9,1.1-11.8,1.6c1.2,3,2.1,6,2.7,9.2c1.4,7,11.3,4.8,11.8-1.6
					c0.2-2.1,0.3-4.2,0.5-6.2c-4,0-8,0-12,0c0.2,2.7,0.5,5.4,0.7,8.1c3.9-0.5,7.9-1.1,11.8-1.6c0-0.6-0.1-1.1-0.1-1.7c-4,0-8,0-12,0
					c0,2.3,0.1,4.5,0.1,6.8c3.9-0.5,7.9-1.1,11.8-1.6c-1.1-7.5-2.1-14.9-3.2-22.4c-3.9,1.1-7.7,2.1-11.6,3.2c0.5,1.8,1,3.5,1.2,5.3
					c3.9-0.5,7.9-1.1,11.8-1.6c-0.5-3.1-0.3-6.3,0-9.4c-3.9,0.5-7.9,1.1-11.8,1.6c0.5,3.6,1,7.3,1.5,10.9c3.9-1.1,7.7-2.1,11.6-3.2
					c-0.2-1-0.2-2,0-2.9c-3.9,0.5-7.9,1.1-11.8,1.6c0,0,0,0,0,0c3.9,0.5,7.9,1.1,11.8,1.6c-0.2-3.5-0.6-6.9-1.1-10.4
					c-1-6.5-9.7-4.8-11.6,0c0,0.1-0.1,0.2-0.1,0.3c-0.9,2.3,0.6,5.7,2.8,6.8c0.1,0.1,0.2,0.1,0.3,0.2c3,1.5,6.4,0.7,8.2-2.2
					c2.1-3.3,0.5-7.7,0-11.3c-3.9,1.1-7.7,2.1-11.6,3.2c0.3,1.2,0.6,2.4,0.9,3.6c1.6,6.5,12.1,5.2,11.8-1.6
					c-0.2-4.2-0.2-8.4-0.1-12.6c-3.7,1-7.5,2-11.2,3c0.2,0.4,0.4,0.8,0.6,1.3c4,0,8,0,12,0c-0.2-1.5-0.3-3.1-0.1-4.6
					c-3.9-0.5-7.9-1.1-11.8-1.6c-0.3,7.6-0.6,15.1-0.9,22.7c-0.3,7.7,11.7,7.7,12,0c0.3-7.6,0.6-15.1,0.9-22.7
					c0.3-6.6-10.8-8.4-11.8-1.6c-0.4,2.7-0.6,5.1-0.3,7.8c0.9,7.5,12.7,7.7,12,0c-0.3-2.8-0.8-4.9-2.2-7.3c-3.1-5.2-11-2.9-11.2,3
					c-0.1,4.2-0.1,8.4,0.1,12.6c3.9-0.5,7.9-1.1,11.8-1.6c-0.3-1.2-0.6-2.4-0.9-3.6c-1.9-7.7-12.6-4.2-11.6,3.2
					c0.1,1,0.3,1.9,0.4,2.9c0.1,1.6,0.3,1.3,0.8-0.9c2.7-0.7,5.5-1.4,8.2-2.2c-0.1-0.1-0.2-0.1-0.3-0.2c0.9,2.3,1.8,4.5,2.8,6.8
					c0-0.1,0.1-0.2,0.1-0.3c-3.9,0-7.7,0-11.6,0c0.4,2.4,0.5,4.8,0.6,7.2c0.3,6.4,10.5,8.6,11.8,1.6c0.4-2.3,0.4-4.1,0-6.4
					c-0.5-2.9-3.9-4.7-6.6-4.3c-3.2,0.4-4.8,2.9-5.2,5.9c-0.3,2.1-0.1,4,0.4,6.1c1.7,7.7,12.6,4.2,11.6-3.2c-0.5-3.6-1-7.3-1.5-10.9
					c-1-7.2-11.1-4.5-11.8,1.6c-0.5,4.3-0.2,8.3,0.4,12.6c1,6.6,12.5,5.1,11.8-1.6c-0.3-2.9-0.8-5.7-1.6-8.5
					c-2.3-7.6-12.6-4.3-11.6,3.2c1.1,7.5,2.1,14.9,3.2,22.4c1,6.8,11.9,5,11.8-1.6c0-2.3-0.1-4.5-0.1-6.8c-0.1-7.8-11.3-7.6-12,0
					c-0.2,1.9,0,3.1,0.5,4.9c1.9,6.2,12.4,5.4,11.8-1.6c-0.2-2.7-0.5-5.4-0.7-8.1c-0.7-7.7-11.4-7.8-12,0c-0.2,2.1-0.3,4.2-0.5,6.2
					c3.9-0.5,7.9-1.1,11.8-1.6c-0.6-3.2-1.5-6.2-2.7-9.2c-2.5-6.2-11.3-5.5-11.8,1.6c-0.3,4.3-0.3,8.5,0,12.8
					c3.9-0.5,7.9-1.1,11.8-1.6c-0.9-3.9-1.3-7.7-1.3-11.7c-4,0-8,0-12,0c0.5,6.2,1,12.4,3.3,18.3
					C117.3,243.7,128.9,240.6,126.2,233.3L126.2,233.3z"/>
			</g>
		</g>
		<g>
			<g>
				<path class="st0" d="M89.2,216.3c-0.7-2.3-1.3-4.5-1.6-6.9c-0.6-5.9-7.7-8.2-11.2-3c-2,2.9-2.8,6.1-2.6,9.6c4,0,8,0,12,0
					c-0.2-1.8-0.4-3.5-0.5-5.3c-0.7-6.4-9.9-8.5-11.8-1.6c-0.3,1.2-0.7,2.4-1,3.6c3.9,0,7.7,0,11.6,0c-0.2-0.8-0.3-1.6-0.5-2.4
					c-1.3-6.5-12.6-5.1-11.8,1.6c0.2,0.8,0.2,1.6,0.1,2.4c3.9-0.5,7.9-1.1,11.8-1.6c-0.1-1-0.3-1.9-0.4-2.9c-1-6.8-11.8-5-11.8,1.6
					c0.1,0.9,0,1.9-0.1,2.8c4,0,8,0,12,0c-0.7-7.9-1-15.8-0.9-23.7c0.1-6.9,1.4-14.2-0.6-20.9c-1.6-5.3-10.4-6.1-11.6,0
					c-0.6,3.5-0.7,6.5,0.2,9.9c1.5,6.4,12.5,5.2,11.8-1.6c-0.3-2.6-0.6-5.2-0.9-7.7c-0.8-7.5-12.3-7.9-12,0
					c0.2,4.1,0.3,8.3,0.5,12.4c0.3,7.7,12.3,7.7,12,0c-0.2-4.1-0.3-8.3-0.5-12.4c-4,0-8,0-12,0c0.3,2.6,0.6,5.2,0.9,7.7
					c3.9-0.5,7.9-1.1,11.8-1.6c-0.4-1.2-0.4-2.3-0.2-3.5c-3.9,0-7.7,0-11.6,0c1.8,6,0.1,13.5,0.1,19.7c0,7.3,0.3,14.5,0.9,21.7
					c0.7,7.7,11.2,7.7,12,0c0.1-0.9,0.2-1.9,0.1-2.8c-3.9,0.5-7.9,1.1-11.8,1.6c0.1,1,0.3,1.9,0.4,2.9c1.1,7,11.4,4.8,11.8-1.6
					c0.1-0.8,0.1-1.6-0.1-2.4c-3.9,0.5-7.9,1.1-11.8,1.6c0.2,0.8,0.3,1.6,0.5,2.4c1.2,6,10.1,5.4,11.6,0c0.3-1.2,0.7-2.4,1-3.6
					c-3.9-0.5-7.9-1.1-11.8-1.6c0.2,1.8,0.4,3.5,0.5,5.3c0.8,7.5,12.5,7.8,12,0c-0.1-1.7,0-2.1,0.9-3.5c-3.7-1-7.5-2-11.2-3
					c0.3,3.5,0.9,6.8,2,10.1C80,226.8,91.6,223.6,89.2,216.3L89.2,216.3z"/>
			</g>
		</g>
		<g>
			<g>
				<path class="st0" d="M89.2,222.8c1.7,1.4,3.5,2.9,5.2,4.3c-3.7-0.5-7.3-1-11-1.4c0.6,3.3,0.3,6.6-1.1,9.6c3.5,0,6.9,0,10.4,0
					c-2.4-4.5-1.9-9.8-6.3-12.9c-1.8-1.3-4.3-0.9-6.1,0c-3.3,1.7-4.2,5.6-5.5,8.8c3.9,0,7.7,0,11.6,0c-0.5-1.9-1.1-3.7-1.3-5.7
					c-0.8-5.7-7.7-8.5-11.2-3c-1.3,2-1.7,3.9-1.9,6.3c4,0,8,0,12,0c0-1.9-0.2-3.8-0.6-5.7c-1.5-6.9-11.4-4.9-11.8,1.6
					c0,0.5-0.1,1-0.1,1.4c4,0,8,0,12,0c-0.3-2.4-0.5-4.9-0.8-7.3c-3.9,0.5-7.9,1.1-11.8,1.6c0.7,1.9,1.3,3.7,1.4,5.8c4,0,8,0,12,0
					c-0.1-1.7-0.2-3.3-0.4-5c-3.9,0.5-7.9,1.1-11.8,1.6c0.9,5.2,0.8,10.5-0.1,15.6c3.9,0.5,7.9,1.1,11.8,1.6
					c-0.2-3.7-0.5-7.4-0.7-11.2c-0.5-7.6-12.2-7.8-12,0c0.2,10.3,0.3,20.6,0.1,30.8c3.7-1,7.5-2,11.2-3c-0.1-0.2-0.1-0.3-0.2-0.5
					c-3.9-0.5-7.9-1.1-11.8-1.6c0.6,4.8,0.7,10.3,6.3,12c5.4,1.6,12.5,0.2,17.9-0.7c-1.5-3.7-3.1-7.3-4.6-11c0,0.1,0,0.1,0,0.2
					c-7.5-1.9-10.7,9.6-3.2,11.6c3.3,0.9,6.3,0.5,9.2-1.4c5.8-4,2.1-12.1-4.6-11c-2.9,0.5-5.8,0.7-8.7,0.7c-0.6,0-3-0.4-3.4-0.1
					c2.7,3.2,3.8,3.8,3.4,1.8c-0.1-0.7-0.2-1.4-0.3-2.1c-0.8-6.1-10.2-8.9-11.8-1.6c-0.8,3.6-0.4,6.5,1.4,9.7
					c2.9,5.3,11.1,2.8,11.2-3c0.2-10.3,0.1-20.6-0.1-30.8c-4,0-8,0-12,0c0.2,3.7,0.5,7.4,0.7,11.2c0.4,6.3,10.5,8.6,11.8,1.6
					c1.4-7.4,1.4-14.6,0.1-22c-1.1-6.6-12.3-5.1-11.8,1.6c0.1,1.7,0.2,3.3,0.4,5c0.6,7.6,12.5,7.7,12,0c-0.2-3.1-0.7-6-1.9-9
					c-2.2-5.7-12.6-5.7-11.8,1.6c0.3,2.4,0.5,4.9,0.8,7.3c0.8,7.6,11.5,7.8,12,0c0-0.5,0.1-1,0.1-1.4c-3.9,0.5-7.9,1.1-11.8,1.6
					c0.2,0.8,0.3,1.6,0.2,2.5c-0.1,7.8,11.5,7.6,12,0c0.1-0.1,0.2-0.1,0.2-0.2c-3.7-1-7.5-2-11.2-3c0.4,3,0.9,5.9,1.7,8.9
					c1.8,6.1,9.5,5.3,11.6,0c0.3-0.7,0.6-1.4,0.8-2.1c0.6-1.2,0.3-1-0.9,0.5c-2,0-4,0-6.1,0c0.2,0.2,0.4,0.3,0.7,0.5
					c-0.9-1.2-1.8-2.4-2.8-3.6c1.2,4.1,2.1,7.9,4.1,11.7c2,3.7,8.5,4.1,10.4,0c2.8-6.2,3.6-12.1,2.3-18.8c-0.9-5-8.7-5.8-11-1.4
					c-4.7,9,6.4,18,13.6,10.2C102.9,225.7,94.4,217.2,89.2,222.8L89.2,222.8z"/>
			</g>
		</g>
		<g>
			<g>
				<path class="st0" d="M107.5,249.3c0.3,0.1,0.5,0.3,0.8,0.4c0.9,1.2,1.8,2.4,2.8,3.6c-0.1-0.2-0.1-0.5-0.2-0.7
					c-0.5,1.9-1,3.9-1.5,5.8c0-1.7-0.1-3.4-0.1-5.1c-1.2,2.9-2.4,5.9-3.6,8.8c0.3-0.1,0.5-0.2,0.8-0.3c-1.9-0.5-3.9-1-5.8-1.5
					c0.2,0.2,0.5,0.4,0.7,0.6c-0.5-1.9-1-3.9-1.5-5.8c3.5-2.2,3.9-2.9,1.2-2.2c-0.7,0.1-1.3,0.2-1.9,0.4c-1.6,0.5-3,1.2-4.4,2
					c-6.2,3.8-1.8,11.9,4.6,11c0.5,0,1.1,0,1.6,0.1c0-3.9,0-7.7,0-11.6c-2.7,0.5-5.2,0.6-7.9,0.5c0,4,0,8,0,12
					c6.4,0.1,12.8-0.8,18.9-2.5c-1.9-3.3-3.9-6.7-5.8-10c-0.6,0.5-1.3,0.8-2.1,0.8c0.5,3.9,1.1,7.9,1.6,11.8
					c3.3-1.1,6.6-1.9,10.1-2.1c-1.4-3.4-2.8-6.8-4.2-10.2c-0.7,0.3-1.4,0.5-2.1,0.6c1.1,3.9,2.1,7.7,3.2,11.6c1.5-0.5,3-0.9,4.5-1.3
					c0.5-0.1,3.8-0.5,2.1-0.8c-1.5-1.9-2.9-3.9-4.4-5.8c0,0.1,0,0.2,0,0.3c1.5-1.9,2.9-3.9,4.4-5.8c-0.1,0-0.2,0.1-0.3,0.1
					c1.5,3.7,3.1,7.3,4.6,11c0.7-0.2,1.5-0.4,2.2-0.5c4.5-0.9,5.7-7,2.6-10c-2.7-2.6-1.9-9.2-1.8-12.7c-4,0-8,0-12,0
					c0.1,4.3,0.7,8.5,1.8,12.6c1.4,5.4,10.5,6,11.6,0c1.2-6.6-1.4-12.8-0.5-19.3c-3.9,0.5-7.9,1.1-11.8,1.6c0.7,1.9,1,3.1,1,5.1
					c4,0,8,0,12,0c0-1.2,0-2.5,0-3.7c-4,0-8,0-12,0c0,1,0,2,0,3c0,7.7,12,7.7,12,0c0-1,0-2,0-3c0-7.7-12-7.7-12,0c0,1.2,0,2.5,0,3.7
					c0,7.7,11.8,7.7,12,0c0.1-2.9-0.3-5.6-1.4-8.3c-2.5-6.5-10.9-5.1-11.8,1.6c-0.7,5.4,1.9,10.8,0.9,16.1c3.9,0,7.7,0,11.6,0
					c-0.8-3.2-1.3-6.2-1.4-9.5c-0.2-7.7-11.8-7.7-12,0c-0.2,7.1-0.1,15.8,5.3,21.2c0.9-3.3,1.8-6.7,2.6-10c-1.8,0.4-3.4,1-5.1,1.7
					c-6.3,2.7-1.8,12.9,4.6,11c0.1,0,0.2-0.1,0.3-0.1c2.5-0.8,4.4-3.1,4.4-5.8c0-0.1,0-0.2,0-0.3c0-2.4-1.8-5.3-4.4-5.8
					c-4.3-0.8-8.8,0.8-12.9,2.1c-7.5,2.4-4.3,12.9,3.2,11.6c2.9-0.5,5.1-1.8,7.4-3.6c4.1-3.2,0.6-10.5-4.2-10.2
					c-4.6,0.2-9,1-13.3,2.5c-6,2-5.5,12.5,1.6,11.8c4.2-0.4,7.3-1.7,10.6-4.4c4.8-3.9-0.4-11.6-5.8-10c-5.2,1.5-10.3,2.2-15.7,2.1
					c-7.8-0.1-7.7,11.6,0,12c3.8,0.2,7.4-0.2,11.1-0.9c5.7-1.1,5.8-10.5,0-11.6c-2.8-0.5-5.2-0.5-8-0.1c1.5,3.7,3.1,7.3,4.6,11
					c2.9-1.8,6.4-1,8.9-3.8c2.7-3,2.5-7.3-0.5-10.1c-1.5-1.4-3.8-2.3-5.8-1.5c-0.3,0.1-0.5,0.2-0.8,0.3c-3.6,1.3-5.6,5.2-3.6,8.8
					c6.2,10.9,21.9-0.8,13-9.5c-3.4-3.4-9.5-3.1-12,1.3c-3.1,5.6,2.3,10.4,7.6,10.2C115.2,260.9,115.2,248.8,107.5,249.3
					L107.5,249.3z"/>
			</g>
		</g>
	</g>
	<g>
		<g>
			<g>
				<g>
					<path class="st0" d="M72.5,153.6c-1.1-0.1-2.8-0.6-3.6,0.4c-0.8,1,0.2,3-1.8,2.9c0.3,0.1,0.6,0.2,0.8,0.4
						c-0.3-0.3-0.6-0.5-0.9-0.8c-0.8-0.7-2-0.2-2,0.8c-0.1,0.8,0,1.5,0.2,2.3c0.5-0.5,1-1,1.5-1.5c-0.1-0.1-0.2-0.2-0.4-0.4
						c-0.7,0.3-1.5,0.6-2.2,0.9c0.7,1.1,1.4,2.3,2.1,3.4c0.6-0.5,1.3-1,1.9-1.5c-0.2-0.2-0.2-0.4,0-0.6c-0.6-0.1-1.3-0.2-1.9-0.2
						c0.5,1,1.9,1.2,2.6,0.3c1-1.2-0.7-2.9-1.7-1.7c0.2-0.1,0.4-0.1,0.6-0.2c0.2,0.2,0.5,0.4,0.7,0.6c0-0.1-0.1-0.1-0.1-0.2
						c-0.4-0.7-1.3-0.8-1.9-0.2c-1.1,1.1-1.1,2.8,0,4c0.9,1,2.6-0.3,1.9-1.5c-0.7-1.1-1.4-2.3-2.1-3.4c-0.7-1.1-2.7-0.4-2.2,0.9
						c0.4,1,1,1.6,2,2c0.9,0.3,1.7-0.7,1.5-1.5c-0.2-0.6-0.2-1-0.1-1.7c-0.7,0.3-1.4,0.6-2,0.8c1.2,1,2.3,1.6,3.9,0.6
						c0.6-0.4,1.1-1,1.4-1.6c0.4-0.7,0.1-1.5,0.4-2.2c-0.2,0.2-0.4,0.5-0.6,0.7c0.2-0.1,1.7,0.2,2.1,0.2
						C74,156.2,74,153.8,72.5,153.6L72.5,153.6z"/>
				</g>
			</g>
			<g>
				<g>
					<path class="st0" d="M131.8,156.1c0,0.3,0,0.7,0,1c0.6,0.2,1.2,0.5,1.8,0.7c0,0,0,0.1,0,0.1c-0.7,0-1.4,0-2.1,0
						c0.3,0.6,0.7,1.2,1,1.8c0.7-0.4,1.3-0.8,2-1.2c-0.1-0.3-0.2-0.5-0.3-0.8c-0.7,0.3-1.5,0.6-2.2,0.9c0,0.3-0.1,0.6-0.1,0.9
						c0.6,0.2,1.2,0.5,1.8,0.7c0.6-1.2,1.2-2.3,1.7-3.5c-0.5-0.4-1-0.8-1.5-1.2c-0.2,0.8-0.5,1.6-0.7,2.4c-0.8,1.1,1,2.4,1.9,1.5
						c0.4-0.5,0.8-0.9,1.3-1.4c-0.7-0.4-1.3-0.8-2-1.2c-0.1,0.7-0.3,1.4-0.6,2.1c-0.5,1.2,1.2,1.9,2,1.2
						c3.2-2.7,11.3-16.8,16.7-12.6c1.2,0.9,2.9-0.7,1.7-1.7c-1-0.7-1.7-1.6-2.1-2.8c-0.6-1.4-2.9-0.8-2.3,0.6
						c0.7,1.6,1.4,2.7,2.7,3.9c0.6-0.6,1.1-1.1,1.7-1.7c-8-6.3-15.4,8.5-20.1,12.6c0.7,0.4,1.3,0.8,2,1.2c0.3-0.7,0.5-1.3,0.6-2.1
						c0.2-1.1-1.1-2.1-2-1.2c-0.4,0.5-0.8,0.9-1.3,1.4c0.6,0.5,1.3,1,1.9,1.5c0.9-1.2,1.2-2.1,1-3.6c-0.1-0.8-0.7-1.3-1.5-1.2
						c-3.2,0.7-4.6,3.4-3.4,6.4c0.2,0.6,1.1,1.2,1.8,0.7c1.5-1.1,1.9-2.5,1-4.2c-0.7-1.3-2.4-0.3-2.2,0.9c0.1,1,0.3,1.1,0.9,1.8
						c0.8,0.8,2.5,0,2-1.2c-0.5-1.2-0.5-1.3-1.3-2.4c-0.5-0.8-1.6-0.8-2.1,0c-0.4,0.6-0.4,1-0.3,1.7c0.1,0.7,1.2,1.1,1.8,0.7
						c1.7-1.2,2.1-3.3,0.5-4.8C132.3,153.3,130.6,155,131.8,156.1L131.8,156.1z"/>
				</g>
			</g>
			<g>
				<g>
					<path class="st0" d="M47.7,145.2c-0.6,0.2-1.2,0.5-1.8,0.7c-0.6,0.2-1,0.8-0.8,1.5c0.2,0.6,0.9,1.1,1.5,0.8
						c0.6-0.2,1.2-0.5,1.8-0.7c0.6-0.2,1-0.8,0.8-1.5C49,145.5,48.3,145,47.7,145.2L47.7,145.2z"/>
				</g>
			</g>
			<g>
				<g>
					<path class="st0" d="M73.2,264.5c0-0.3,0-0.6,0-0.8c-0.3,0.4-0.6,0.8-0.9,1.2c-0.2-0.2-0.4-0.3-0.5-0.5
						c0.2-0.2,0.5-0.4,0.7-0.6c0.2,0.1,0.4,0.2,0.6,0.3c-0.5-0.7-1.6-0.8-2.1,0c-0.6,1,0.1,2.1,1.2,2.4c1.6,0.4,3.5,0.5,5.2,0.7
						c0-0.8,0-1.6,0-2.4c-0.9,0-1.9-0.1-2.8-0.1C74.1,264.6,73.5,264.6,73.2,264.5c-0.7-0.1-0.6,0-0.6-0.5c0-1.2,0.4-2.4-0.4-3.5
						c-0.8-1.1-2.5-0.5-2.2,0.9c0.1,0.6,0.3,1.2,0.4,1.8c0.2,1.1,2.1,1.2,2.3,0c0.1-0.5,0.2-0.9,0.5-1.3c1-1.2-0.7-2.9-1.7-1.7
						c-0.6,0.7-1,1.4-1.2,2.4c0.8,0,1.5,0,2.3,0c-0.1-0.6-0.3-1.2-0.4-1.8c-0.7,0.3-1.5,0.6-2.2,0.9c0.4,0.6,0.1,1.4,0.1,2.1
						c0,0.8,0.1,1.6,0.6,2.2c0.6,0.8,1.6,0.9,2.5,0.9c1.3,0.1,2.7,0.1,4,0.2c1.6,0.1,1.5-2.2,0-2.4c-0.8-0.1-1.6-0.2-2.4-0.3
						c-0.3,0-2-0.2-1.9-0.2c0,0.4,0,0.8,0,1.2c0-0.1,0.1-0.1,0.1-0.2c-0.7,0-1.4,0-2.1,0c1,1.6,3.5,0.9,3.2-1.1
						c-0.3-1.9-3-1.8-3.4,0c-0.5,1.9,2,2.8,3.2,1.5c1.5-1.6-0.4-3.5-2.2-3.2c-0.5,0.1-0.9,0.7-0.9,1.2c0,0.3,0,0.6,0,0.8
						C70.7,266,73.1,266,73.2,264.5L73.2,264.5z"/>
				</g>
			</g>
			<g>
				<g>
					<path class="st0" d="M123.8,262c0.6,1,1.4,1.8,2.5,2.3c-0.1-0.6-0.2-1.3-0.2-1.9c-0.2,0.2-0.4,0.3-0.7,0.3
						c0.2,0.8,0.4,1.5,0.6,2.3c1-0.4,2.5-0.6,2.4-2c-0.1-1.5-2.4-1.6-2.6-0.1c-0.1,0.6,0.2,1.3,0.8,1.5c0.6,0.2,1.4-0.2,1.5-0.8
						c0,0,0-0.1,0-0.1c-0.1,0.2-0.2,0.4-0.3,0.5c0,0,0.1-0.1,0.1-0.1c-0.3,0.1-0.6,0.2-0.8,0.4c0,0,0.1,0,0.1,0
						c-0.3-0.1-0.6-0.2-0.8-0.4c0,0,0,0,0.1,0.1c-0.1-0.2-0.2-0.4-0.3-0.5c0,0,0,0.1,0,0.1c0-0.2,0-0.4,0-0.6c0,0,0,0.1,0,0.1
						c0.1-0.2,0.2-0.4,0.3-0.5c0,0,0,0-0.1,0.1c0.2-0.1,0.4-0.2,0.5-0.3c-0.5,0.2-1,0.4-1.4,0.5c-0.6,0.2-1,0.8-0.8,1.5
						c0.2,0.6,0.8,1,1.5,0.8c0.7-0.2,1.2-0.5,1.8-0.9c0.5-0.5,0.4-1.6-0.2-1.9c-0.7-0.3-1.2-0.8-1.6-1.4
						C125.1,259.4,123,260.6,123.8,262L123.8,262z"/>
				</g>
			</g>
		</g>
		<g>
			<g>
				<path class="st0" d="M64.6,157.6c-0.9,1.8-0.4,3.9,1.3,4.9c0-0.7,0-1.4,0-2.1c-1.6,0.8-1.1,2.5-0.1,3.5c1.1,1.1,2.7-0.6,1.7-1.7
					c-1.1-1.2-2.1-2.3-3.2-3.5c-0.8-0.9-2.3,0-2,1.2c0.5,1.8,1.8,3.4,3.5,4.3c1.4,0.7,2.6-1.3,1.2-2.1c-1.2-0.6-2-1.6-2.4-2.9
					c-0.7,0.4-1.3,0.8-2,1.2c1.1,1.2,2.1,2.3,3.2,3.5c0.6-0.6,1.1-1.1,1.7-1.7c-0.2-0.3-0.3-0.2-0.4,0.2c0.8-0.4,0.7-1.6,0-2.1
					c-0.5-0.3-0.8-1.1-0.5-1.7C67.3,157.4,65.3,156.2,64.6,157.6L64.6,157.6z"/>
			</g>
		</g>
		<g>
			<g>
				<path class="st0" d="M131.7,159.5c0.2,0.6,0.4,1.3,0.6,1.9c-0.7,0.2-1.5,0.4-2.2,0.6c0.5,0.6,0.9,1.2,1.2,2
					c0.4,0.8,1.7,0.8,2.1,0c1.7-3.4,4.1-6,7-8.4c3.9-3.3,7-5,12.1-4.8c1.5,0.1,1.5-2.3,0-2.4c-4.9-0.2-7.9,0.8-11.7,3.8
					c-3.8,3-7.3,6.2-9.5,10.6c0.7,0,1.4,0,2.1,0c-0.3-0.7-0.7-1.4-1.2-2c-0.7-1-2.1-0.6-2.2,0.6c-0.5,3.8,6.1,2.8,4.1-2.6
					C133.5,157.5,131.2,158.1,131.7,159.5L131.7,159.5z"/>
			</g>
		</g>
	</g>
	<g>
		<g>
			<g>
				<path d="M70.3,267.4c0.6-1.2,0.9-2.5,0.8-3.9c0-0.8-1.2-0.8-1.2,0c0.1,1.2-0.1,2.3-0.6,3.3C69,267.5,70,268.1,70.3,267.4
					L70.3,267.4z"/>
			</g>
		</g>
		<g>
			<g>
				<path d="M69.9,267.4c11.2,0.9,22.4,1.1,33.6,0.5c5.4-0.3,10.9-0.7,16.3-1.4c2.5-0.3,7.1,0,9-1.7c0.2-0.1,0.2-0.4,0.2-0.6
					c0-0.2-0.1-0.3-0.1-0.5c0-0.2-0.2-0.4-0.4-0.4c-0.1,0-0.3,0-0.4-0.1c-0.8-0.1-1.1,1-0.3,1.2c-2.5-0.4-5.4,0.6-7.9,0.9
					c-2.5,0.3-5.1,0.6-7.6,0.8c-4.5,0.4-8.9,0.7-13.4,0.8c-9.6,0.3-19.2,0.1-28.8-0.7C69.1,266.1,69.1,267.3,69.9,267.4L69.9,267.4z
					"/>
			</g>
		</g>
		<g>
			<g>
				<g>
					<path d="M45.2,151.4c7.9,2.8,16.9,7.3,21.4,14.6c0.4,0.7,1.4,0.1,1-0.6c-4.7-7.7-13.8-12.2-22.1-15.2
						C44.8,150,44.4,151.2,45.2,151.4L45.2,151.4z"/>
				</g>
			</g>
			<g>
				<g>
					<path d="M68.1,165.7c1.2-5.7,2.2-11.5,3-17.3c0.1-0.8-1.1-1.1-1.2-0.3c-0.8,5.8-1.8,11.6-3,17.3
						C66.8,166.1,68,166.4,68.1,165.7L68.1,165.7z"/>
				</g>
			</g>
			<g>
				<g>
					<path d="M68.2,157.8c0.3,17.7,2,35.3,2.4,53c0.4,18.1-0.1,36.4-0.9,54.5c0,0.8,1.2,0.8,1.2,0c0.8-18.1,1.3-36.4,0.9-54.5
						c-0.4-17.7-2.1-35.3-2.4-53C69.3,157,68.1,157,68.2,157.8L68.2,157.8z"/>
				</g>
			</g>
			<g>
				<g>
					<path d="M45.7,150.6c1.6-9.9,2.3-20.4,4.9-30c3.3-12.5,16.1-14,27.2-14.5c0.8,0,0.8-1.2,0-1.2c-9.1,0.4-20.2,1.1-25.9,9.5
						c-2.8,4.2-3.2,9.6-4,14.5c-1.1,7.1-2.2,14.3-3.4,21.4C44.4,151.1,45.6,151.4,45.7,150.6L45.7,150.6z"/>
				</g>
			</g>
			<g>
				<g>
					<path d="M77.4,106.2c6.9,5.8,14.6,9.9,23.8,9.6c0.8,0,0.8-1.2,0-1.2c-8.9,0.3-16.3-3.6-23-9.2
						C77.7,104.9,76.8,105.8,77.4,106.2L77.4,106.2z"/>
				</g>
			</g>
		</g>
		<g>
			<g>
				<g>
					<path d="M153.7,149.8c-8.3,2.9-17.4,7.5-22.1,15.2c-0.4,0.7,0.6,1.3,1,0.6c4.4-7.4,13.5-11.8,21.4-14.6
						C154.7,150.7,154.4,149.5,153.7,149.8L153.7,149.8z"/>
				</g>
			</g>
			<g>
				<g>
					<path d="M132.2,164.9c-1.2-5.7-2.2-11.5-3-17.3c-0.1-0.8-1.3-0.4-1.2,0.3c0.8,5.8,1.8,11.6,3,17.3
						C131.2,165.9,132.3,165.6,132.2,164.9L132.2,164.9z"/>
				</g>
			</g>
			<g>
				<g>
					<path d="M129.8,157.3c-0.3,17.7-2,35.3-2.4,53c-0.4,18.1,0.1,36.4,0.9,54.5c0,0.8,1.2,0.8,1.2,0c-0.8-18.1-1.3-36.4-0.9-54.5
						c0.4-17.7,2.1-35.3,2.4-53C131,156.5,129.8,156.5,129.8,157.3L129.8,157.3z"/>
				</g>
			</g>
			<g>
				<g>
					<path d="M154.6,149.8c-1.1-6.8-2.1-13.6-3.2-20.4c-0.8-5.2-1.1-11-4.1-15.5c-5.6-8.4-16.8-9.1-25.9-9.5c-0.8,0-0.8,1.2,0,1.2
						c11,0.4,23.9,2,27.2,14.5c2.6,9.7,3.3,20.1,4.9,30C153.6,150.9,154.7,150.6,154.6,149.8L154.6,149.8z"/>
				</g>
			</g>
			<g>
				<g>
					<path d="M120.9,104.9c-5.9,5.4-12.6,9.5-20.9,9.2c-0.8,0-0.8,1.2,0,1.2c8.6,0.4,15.6-3.9,21.7-9.6
						C122.3,105.2,121.4,104.4,120.9,104.9L120.9,104.9z"/>
				</g>
			</g>
		</g>
	</g>
</g>
</svg>
