<?xml version="1.0" encoding="utf-8"?>
<!-- Generator: Adobe Illustrator 21.0.2, SVG Export Plug-In . SVG Version: 6.00 Build 0)  -->
<svg version="1.1" id="Layer_1" xmlns="http://www.w3.org/2000/svg" xmlns:xlink="http://www.w3.org/1999/xlink" x="0px" y="0px"
	 viewBox="0 0 30 30" style="enable-background:new 0 0 30 30;" xml:space="preserve">
<style type="text/css">
	.st0{fill:none;stroke:#C1E7F1;stroke-width:1.25;stroke-miterlimit:10;}
	.st1{fill:none;stroke:#C4E7EE;stroke-width:1.25;stroke-miterlimit:10;}
	.st2{fill:#AEBBD3;}
</style>
<g>
	<line class="st0" x1="11.4" y1="11.2" x2="11.4" y2="11.1"/>
	<line class="st0" x1="11.4" y1="11.2" x2="11.4" y2="11.3"/>
	<g>
		<line class="st0" x1="10.8" y1="10.6" x2="10.8" y2="11.8"/>
		<line class="st0" x1="11.2" y1="11.6" x2="10.4" y2="10.8"/>
		<line class="st0" x1="10.3" y1="11.2" x2="11.4" y2="11.2"/>
		<line class="st0" x1="10.5" y1="11.6" x2="11.2" y2="10.8"/>
		<line class="st0" x1="10.4" y1="10.8" x2="10.5" y2="10.7"/>
		<line class="st0" x1="10.4" y1="10.8" x2="10.3" y2="10.8"/>
		<line class="st0" x1="10.6" y1="11" x2="10.7" y2="10.9"/>
		<line class="st0" x1="10.6" y1="11" x2="10.5" y2="11"/>
		<line class="st0" x1="11.2" y1="11.6" x2="11.3" y2="11.6"/>
		<line class="st0" x1="11.2" y1="11.6" x2="11.2" y2="11.7"/>
		<line class="st0" x1="11" y1="11.4" x2="11.1" y2="11.4"/>
		<line class="st0" x1="11.2" y1="10.9" x2="11.2" y2="10.8"/>
		<line class="st0" x1="11" y1="11.4" x2="11" y2="11.5"/>
		<line class="st0" x1="11.2" y1="10.9" x2="11.3" y2="10.9"/>
		<line class="st0" x1="11" y1="11" x2="11" y2="10.9"/>
		<line class="st0" x1="10.3" y1="11.2" x2="10.2" y2="11.1"/>
		<line class="st0" x1="10.3" y1="11.2" x2="10.2" y2="11.2"/>
		<line class="st0" x1="10.5" y1="11.2" x2="10.5" y2="11.1"/>
		<line class="st0" x1="11.1" y1="11.2" x2="11.2" y2="11.1"/>
		<line class="st0" x1="10.5" y1="11.2" x2="10.5" y2="11.3"/>
		<line class="st0" x1="11.1" y1="11.2" x2="11.2" y2="11.3"/>
		<line class="st0" x1="10.8" y1="11.7" x2="10.8" y2="11.8"/>
		<line class="st0" x1="10.8" y1="11.5" x2="10.8" y2="11.6"/>
		<line class="st0" x1="10.8" y1="11.7" x2="10.9" y2="11.8"/>
		<line class="st0" x1="10.8" y1="11.5" x2="10.9" y2="11.6"/>
		<line class="st0" x1="10.5" y1="11.6" x2="10.5" y2="11.6"/>
		<line class="st0" x1="10.6" y1="11.4" x2="10.6" y2="11.5"/>
		<line class="st0" x1="10.5" y1="11.6" x2="10.4" y2="11.6"/>
		<line class="st0" x1="10.6" y1="11.4" x2="10.5" y2="11.4"/>
		<line class="st0" x1="10.8" y1="10.6" x2="10.8" y2="10.6"/>
		<line class="st0" x1="10.8" y1="10.9" x2="10.7" y2="10.8"/>
		<line class="st0" x1="10.8" y1="10.6" x2="10.9" y2="10.6"/>
		<line class="st0" x1="10.8" y1="10.9" x2="10.9" y2="10.8"/>
		<line class="st1" x1="11" y1="11" x2="11.1" y2="11"/>
		
			<animateMotion  accumulate="none" additive="replace" calcMode="paced" dur="1200ms" fill="remove" repeatCount="indefinite" restart="always" values="0,0; 0,12;">
			</animateMotion>
	</g>
</g>
<g>
	<line class="st0" x1="7.2" y1="11.5" x2="7.2" y2="12.6"/>
	<line class="st0" x1="7.5" y1="12.4" x2="6.8" y2="11.7"/>
	<line class="st0" x1="6.7" y1="12.1" x2="7.7" y2="12.1"/>
	<line class="st0" x1="6.8" y1="12.4" x2="7.5" y2="11.7"/>
	<line class="st0" x1="6.8" y1="11.7" x2="6.9" y2="11.6"/>
	<line class="st0" x1="6.8" y1="11.7" x2="6.7" y2="11.7"/>
	<line class="st0" x1="7" y1="11.9" x2="7" y2="11.8"/>
	<line class="st0" x1="7" y1="11.9" x2="6.9" y2="11.9"/>
	<line class="st0" x1="7.5" y1="12.4" x2="7.6" y2="12.4"/>
	<line class="st0" x1="7.5" y1="12.4" x2="7.5" y2="12.5"/>
	<line class="st0" x1="7.3" y1="12.2" x2="7.4" y2="12.2"/>
	<line class="st0" x1="7.5" y1="11.8" x2="7.5" y2="11.7"/>
	<line class="st0" x1="7.3" y1="12.2" x2="7.3" y2="12.3"/>
	<line class="st0" x1="7.5" y1="11.8" x2="7.6" y2="11.8"/>
	<line class="st0" x1="7.3" y1="11.9" x2="7.3" y2="11.8"/>
	<line class="st0" x1="6.7" y1="12.1" x2="6.6" y2="12"/>
	<line class="st0" x1="7.7" y1="12.1" x2="7.7" y2="12"/>
	<line class="st0" x1="6.7" y1="12.1" x2="6.6" y2="12.1"/>
	<line class="st0" x1="6.9" y1="12.1" x2="6.9" y2="12"/>
	<line class="st0" x1="7.4" y1="12.1" x2="7.5" y2="12"/>
	<line class="st0" x1="6.9" y1="12.1" x2="6.9" y2="12.1"/>
	<line class="st0" x1="7.4" y1="12.1" x2="7.5" y2="12.1"/>
	<line class="st0" x1="7.6" y1="12.1" x2="7.7" y2="12.1"/>
	<line class="st0" x1="7.2" y1="12.6" x2="7.1" y2="12.6"/>
	<line class="st0" x1="7.2" y1="12.4" x2="7.1" y2="12.4"/>
	<line class="st0" x1="7.2" y1="12.6" x2="7.2" y2="12.6"/>
	<line class="st0" x1="7.2" y1="12.4" x2="7.2" y2="12.4"/>
	<line class="st0" x1="6.9" y1="12.4" x2="6.9" y2="12.5"/>
	<line class="st0" x1="7" y1="12.3" x2="7" y2="12.4"/>
	<line class="st0" x1="6.9" y1="12.4" x2="6.8" y2="12.4"/>
	<line class="st0" x1="7" y1="12.2" x2="6.9" y2="12.2"/>
	<line class="st0" x1="7.2" y1="11.6" x2="7.1" y2="11.5"/>
	<line class="st0" x1="7.2" y1="11.8" x2="7.1" y2="11.7"/>
	<line class="st0" x1="7.2" y1="11.6" x2="7.2" y2="11.5"/>
	<line class="st0" x1="7.2" y1="11.8" x2="7.3" y2="11.7"/>
	<line class="st1" x1="7.3" y1="11.9" x2="7.4" y2="11.9"/>
	
		<animateMotion  accumulate="none" additive="replace" calcMode="paced" dur="1500ms" fill="remove" repeatCount="indefinite" restart="always" values="0,0; 0,12;">
		</animateMotion>
</g>
<g>
	<line class="st0" x1="13.5" y1="12.5" x2="13.5" y2="13.6"/>
	<line class="st0" x1="13.9" y1="13.4" x2="13.2" y2="12.7"/>
	<line class="st0" x1="13" y1="13" x2="14.1" y2="13"/>
	<line class="st0" x1="13.2" y1="13.4" x2="13.9" y2="12.7"/>
	<line class="st0" x1="13.2" y1="12.7" x2="13.2" y2="12.6"/>
	<line class="st0" x1="13.2" y1="12.7" x2="13" y2="12.7"/>
	<line class="st0" x1="13.3" y1="12.9" x2="13.4" y2="12.8"/>
	<line class="st0" x1="13.3" y1="12.9" x2="13.2" y2="12.9"/>
	<line class="st0" x1="13.9" y1="13.4" x2="14" y2="13.4"/>
	<line class="st0" x1="13.9" y1="13.4" x2="13.9" y2="13.5"/>
	<line class="st0" x1="13.7" y1="13.2" x2="13.8" y2="13.2"/>
	<line class="st0" x1="13.9" y1="12.7" x2="13.9" y2="12.6"/>
	<line class="st0" x1="13.7" y1="13.2" x2="13.7" y2="13.3"/>
	<line class="st0" x1="13.9" y1="12.7" x2="13.9" y2="12.7"/>
	<line class="st0" x1="13.7" y1="12.9" x2="13.7" y2="12.8"/>
	<line class="st0" x1="13" y1="13" x2="12.9" y2="13"/>
	<line class="st0" x1="14.1" y1="13" x2="14.1" y2="13"/>
	<line class="st0" x1="13" y1="13" x2="12.9" y2="13.1"/>
	<line class="st0" x1="13.2" y1="13" x2="13.2" y2="13"/>
	<line class="st0" x1="13.8" y1="13" x2="13.9" y2="13"/>
	<line class="st0" x1="13.2" y1="13" x2="13.2" y2="13.1"/>
	<line class="st0" x1="13.8" y1="13" x2="13.9" y2="13.1"/>
	<line class="st0" x1="14" y1="13" x2="14.1" y2="13.1"/>
	<line class="st0" x1="13.5" y1="13.6" x2="13.5" y2="13.7"/>
	<line class="st0" x1="13.5" y1="13.4" x2="13.5" y2="13.4"/>
	<line class="st0" x1="13.5" y1="13.6" x2="13.6" y2="13.7"/>
	<line class="st0" x1="13.5" y1="13.4" x2="13.6" y2="13.4"/>
	<line class="st0" x1="13.2" y1="13.4" x2="13.2" y2="13.5"/>
	<line class="st0" x1="13.4" y1="13.3" x2="13.4" y2="13.3"/>
	<line class="st0" x1="13.2" y1="13.4" x2="13.1" y2="13.4"/>
	<line class="st0" x1="13.4" y1="13.2" x2="13.2" y2="13.2"/>
	<line class="st0" x1="13.5" y1="12.5" x2="13.5" y2="12.4"/>
	<line class="st0" x1="13.5" y1="12.7" x2="13.4" y2="12.7"/>
	<line class="st0" x1="13.5" y1="12.5" x2="13.6" y2="12.4"/>
	<line class="st0" x1="13.5" y1="12.7" x2="13.6" y2="12.7"/>
	<line class="st1" x1="13.7" y1="12.9" x2="13.8" y2="12.9"/>
	
		<animateMotion  accumulate="none" additive="replace" calcMode="paced" dur="1400ms" fill="remove" repeatCount="indefinite" restart="always" values="0,0; 0,10;">
		</animateMotion>
</g>
<g>
	<line class="st0" x1="15.5" y1="8.6" x2="15.5" y2="8.6"/>
	<line class="st0" x1="15.4" y1="8.6" x2="15.5" y2="8.7"/>
	<g>
		<line class="st0" x1="15" y1="8.2" x2="15" y2="9.1"/>
		<line class="st0" x1="15.3" y1="9" x2="14.7" y2="8.4"/>
		<line class="st0" x1="14.6" y1="8.6" x2="15.5" y2="8.6"/>
		<line class="st0" x1="14.7" y1="9" x2="15.3" y2="8.4"/>
		<line class="st0" x1="14.7" y1="8.4" x2="14.8" y2="8.3"/>
		<line class="st0" x1="14.7" y1="8.4" x2="14.6" y2="8.4"/>
		<line class="st0" x1="14.9" y1="8.5" x2="14.9" y2="8.4"/>
		<line class="st0" x1="14.9" y1="8.5" x2="14.8" y2="8.5"/>
		<line class="st0" x1="15.3" y1="8.9" x2="15.4" y2="9"/>
		<line class="st0" x1="15.3" y1="8.9" x2="15.3" y2="9"/>
		<line class="st0" x1="15.2" y1="8.8" x2="15.2" y2="8.8"/>
		<line class="st0" x1="15.3" y1="8.4" x2="15.3" y2="8.3"/>
		<line class="st0" x1="15.2" y1="8.8" x2="15.2" y2="8.9"/>
		<line class="st0" x1="15.3" y1="8.4" x2="15.4" y2="8.4"/>
		<line class="st0" x1="15.2" y1="8.5" x2="15.2" y2="8.4"/>
		<line class="st0" x1="14.6" y1="8.6" x2="14.6" y2="8.6"/>
		<line class="st0" x1="14.6" y1="8.6" x2="14.6" y2="8.7"/>
		<line class="st0" x1="14.8" y1="8.6" x2="14.8" y2="8.6"/>
		<line class="st0" x1="15.3" y1="8.6" x2="15.3" y2="8.6"/>
		<line class="st0" x1="14.8" y1="8.6" x2="14.7" y2="8.7"/>
		<line class="st0" x1="15.3" y1="8.6" x2="15.3" y2="8.7"/>
		<line class="st0" x1="15" y1="9.1" x2="15" y2="9.1"/>
		<line class="st0" x1="15" y1="8.9" x2="15" y2="8.9"/>
		<line class="st0" x1="15" y1="9.1" x2="15.1" y2="9.1"/>
		<line class="st0" x1="15" y1="8.9" x2="15.1" y2="8.9"/>
		<line class="st0" x1="14.8" y1="8.9" x2="14.8" y2="9"/>
		<line class="st0" x1="14.9" y1="8.8" x2="14.9" y2="8.9"/>
		<line class="st0" x1="14.8" y1="8.9" x2="14.7" y2="8.9"/>
		<line class="st0" x1="14.9" y1="8.8" x2="14.8" y2="8.8"/>
		<line class="st0" x1="15" y1="8.2" x2="15" y2="8.2"/>
		<line class="st0" x1="15" y1="8.4" x2="15" y2="8.4"/>
		<line class="st0" x1="15" y1="8.2" x2="15.1" y2="8.2"/>
		<line class="st0" x1="15" y1="8.4" x2="15.1" y2="8.4"/>
		<line class="st1" x1="15.2" y1="8.5" x2="15.2" y2="8.5"/>
		
			<animateMotion  accumulate="none" additive="replace" calcMode="paced" dur="1600ms" fill="remove" repeatCount="indefinite" restart="always" values="0,0; 0,12;">
			</animateMotion>
	</g>
</g>
<g>
	<line class="st0" x1="22.3" y1="7.8" x2="22.3" y2="9"/>
	<line class="st0" x1="22.7" y1="8.8" x2="22" y2="8.1"/>
	<line class="st0" x1="21.8" y1="8.4" x2="22.9" y2="8.4"/>
	<line class="st0" x1="22" y1="8.8" x2="22.7" y2="8.1"/>
	<line class="st0" x1="22" y1="8.1" x2="22" y2="8"/>
	<line class="st0" x1="22" y1="8.1" x2="21.9" y2="8"/>
	<line class="st0" x1="22.1" y1="8.3" x2="22.2" y2="8.1"/>
	<line class="st0" x1="22.1" y1="8.3" x2="22" y2="8.3"/>
	<line class="st0" x1="22.7" y1="8.8" x2="22.8" y2="8.8"/>
	<line class="st0" x1="22.7" y1="8.8" x2="22.7" y2="8.9"/>
	<line class="st0" x1="22.5" y1="8.6" x2="22.6" y2="8.6"/>
	<line class="st0" x1="22.7" y1="8.1" x2="22.7" y2="8"/>
	<line class="st0" x1="22.5" y1="8.6" x2="22.5" y2="8.7"/>
	<line class="st0" x1="22.7" y1="8.1" x2="22.8" y2="8.1"/>
	<line class="st0" x1="22.5" y1="8.3" x2="22.5" y2="8.1"/>
	<line class="st0" x1="21.8" y1="8.4" x2="21.8" y2="8.4"/>
	<line class="st0" x1="22.9" y1="8.4" x2="22.9" y2="8.4"/>
	<line class="st0" x1="21.8" y1="8.4" x2="21.8" y2="8.5"/>
	<line class="st0" x1="22" y1="8.4" x2="22" y2="8.4"/>
	<line class="st0" x1="22.6" y1="8.4" x2="22.7" y2="8.4"/>
	<line class="st0" x1="22" y1="8.4" x2="22" y2="8.5"/>
	<line class="st0" x1="22.6" y1="8.4" x2="22.7" y2="8.5"/>
	<line class="st0" x1="22.9" y1="8.4" x2="22.9" y2="8.5"/>
	<line class="st0" x1="22.3" y1="8.9" x2="22.3" y2="9"/>
	<line class="st0" x1="22.3" y1="8.8" x2="22.3" y2="8.8"/>
	<line class="st0" x1="22.3" y1="8.9" x2="22.4" y2="9"/>
	<line class="st0" x1="22.3" y1="8.8" x2="22.4" y2="8.8"/>
	<line class="st0" x1="22" y1="8.8" x2="22" y2="8.9"/>
	<line class="st0" x1="22.2" y1="8.6" x2="22.2" y2="8.7"/>
	<line class="st0" x1="22" y1="8.8" x2="21.9" y2="8.8"/>
	<line class="st0" x1="22.2" y1="8.6" x2="22" y2="8.6"/>
	<line class="st0" x1="22.3" y1="7.9" x2="22.3" y2="7.8"/>
	<line class="st0" x1="22.3" y1="8.1" x2="22.3" y2="8"/>
	<line class="st0" x1="22.3" y1="7.9" x2="22.4" y2="7.8"/>
	<line class="st0" x1="22.4" y1="8.1" x2="22.4" y2="8.1"/>
	<line class="st1" x1="22.5" y1="8.3" x2="22.6" y2="8.2"/>
	
		<animateMotion  accumulate="none" additive="replace" calcMode="paced" dur="1200ms" fill="remove" repeatCount="indefinite" restart="always" values="0,0; 0,10;">
		</animateMotion>
</g>
<g>
	<line class="st0" x1="18.3" y1="12.1" x2="18.3" y2="13.3"/>
	<line class="st0" x1="18.7" y1="13.1" x2="18" y2="12.3"/>
	<line class="st0" x1="17.8" y1="12.7" x2="18.9" y2="12.7"/>
	<line class="st0" x1="18" y1="13.1" x2="18.7" y2="12.3"/>
	<line class="st0" x1="18" y1="12.3" x2="18" y2="12.2"/>
	<line class="st0" x1="18" y1="12.3" x2="17.9" y2="12.3"/>
	<line class="st0" x1="18.1" y1="12.5" x2="18.2" y2="12.4"/>
	<line class="st0" x1="18.1" y1="12.5" x2="18" y2="12.6"/>
	<line class="st0" x1="18.7" y1="13.1" x2="18.8" y2="13.1"/>
	<line class="st0" x1="18.7" y1="13.1" x2="18.7" y2="13.2"/>
	<line class="st0" x1="18.5" y1="12.9" x2="18.6" y2="12.9"/>
	<line class="st0" x1="18.7" y1="12.4" x2="18.7" y2="12.3"/>
	<line class="st0" x1="18.5" y1="12.9" x2="18.5" y2="13"/>
	<line class="st0" x1="18.7" y1="12.4" x2="18.7" y2="12.4"/>
	<line class="st0" x1="18.5" y1="12.5" x2="18.5" y2="12.4"/>
	<line class="st0" x1="17.8" y1="12.7" x2="17.7" y2="12.6"/>
	<line class="st0" x1="18.9" y1="12.7" x2="18.9" y2="12.6"/>
	<line class="st0" x1="17.8" y1="12.7" x2="17.7" y2="12.7"/>
	<line class="st0" x1="18" y1="12.7" x2="18" y2="12.6"/>
	<line class="st0" x1="18.6" y1="12.7" x2="18.7" y2="12.6"/>
	<line class="st0" x1="18" y1="12.7" x2="18" y2="12.8"/>
	<line class="st0" x1="18.6" y1="12.7" x2="18.7" y2="12.8"/>
	<line class="st0" x1="18.8" y1="12.7" x2="18.9" y2="12.7"/>
	<line class="st0" x1="18.3" y1="13.2" x2="18.3" y2="13.3"/>
	<line class="st0" x1="18.3" y1="13" x2="18.3" y2="13.1"/>
	<line class="st0" x1="18.3" y1="13.2" x2="18.4" y2="13.3"/>
	<line class="st0" x1="18.3" y1="13" x2="18.4" y2="13.1"/>
	<line class="st0" x1="18" y1="13.1" x2="18" y2="13.2"/>
	<line class="st0" x1="18.2" y1="12.9" x2="18.2" y2="13"/>
	<line class="st0" x1="18" y1="13.1" x2="17.9" y2="13.1"/>
	<line class="st0" x1="18.2" y1="12.9" x2="18" y2="12.9"/>
	<line class="st0" x1="18.3" y1="12.2" x2="18.3" y2="12.1"/>
	<line class="st0" x1="18.3" y1="12.4" x2="18.2" y2="12.3"/>
	<line class="st0" x1="18.3" y1="12.2" x2="18.4" y2="12.1"/>
	<line class="st0" x1="18.3" y1="12.4" x2="18.4" y2="12.3"/>
	<line class="st1" x1="18.5" y1="12.5" x2="18.6" y2="12.5"/>
	
		<animateMotion  accumulate="none" additive="replace" calcMode="paced" dur="1800ms" fill="remove" repeatCount="indefinite" restart="always" values="0,0; 0,10;">
		</animateMotion>
</g>
<g>
	<line class="st0" x1="18.6" y1="8.4" x2="18.6" y2="9.6"/>
	<line class="st0" x1="19" y1="9.4" x2="18.2" y2="8.6"/>
	<line class="st0" x1="18.1" y1="9" x2="19.2" y2="9"/>
	<line class="st0" x1="18.3" y1="9.4" x2="19" y2="8.6"/>
	<line class="st0" x1="18.2" y1="8.6" x2="18.3" y2="8.5"/>
	<line class="st0" x1="18.2" y1="8.6" x2="18.1" y2="8.6"/>
	<line class="st0" x1="18.4" y1="8.8" x2="18.5" y2="8.7"/>
	<line class="st0" x1="18.4" y1="8.9" x2="18.3" y2="8.9"/>
	<line class="st0" x1="19" y1="9.4" x2="19.1" y2="9.4"/>
	<line class="st0" x1="19" y1="9.4" x2="19" y2="9.5"/>
	<line class="st0" x1="18.8" y1="9.2" x2="18.9" y2="9.2"/>
	<line class="st0" x1="19" y1="8.7" x2="19" y2="8.6"/>
	<line class="st0" x1="18.8" y1="9.2" x2="18.8" y2="9.3"/>
	<line class="st0" x1="19" y1="8.7" x2="19" y2="8.7"/>
	<line class="st0" x1="18.8" y1="8.8" x2="18.8" y2="8.7"/>
	<line class="st0" x1="18.1" y1="9" x2="18" y2="9"/>
	<line class="st0" x1="19.2" y1="9" x2="19.2" y2="9"/>
	<line class="st0" x1="18.1" y1="9" x2="18" y2="9.1"/>
	<line class="st0" x1="18.3" y1="9" x2="18.3" y2="8.9"/>
	<line class="st0" x1="18.9" y1="9" x2="19" y2="8.9"/>
	<line class="st0" x1="18.3" y1="9" x2="18.3" y2="9.1"/>
	<line class="st0" x1="18.9" y1="9" x2="19" y2="9.1"/>
	<line class="st0" x1="19.1" y1="9" x2="19.2" y2="9.1"/>
	<line class="st0" x1="18.6" y1="9.5" x2="18.6" y2="9.6"/>
	<line class="st0" x1="18.6" y1="9.3" x2="18.6" y2="9.4"/>
	<line class="st0" x1="18.6" y1="9.5" x2="18.7" y2="9.6"/>
	<line class="st0" x1="18.6" y1="9.3" x2="18.7" y2="9.4"/>
	<line class="st0" x1="18.3" y1="9.4" x2="18.3" y2="9.5"/>
	<line class="st0" x1="18.5" y1="9.2" x2="18.5" y2="9.3"/>
	<line class="st0" x1="18.3" y1="9.4" x2="18.2" y2="9.4"/>
	<line class="st0" x1="18.5" y1="9.2" x2="18.3" y2="9.2"/>
	<line class="st0" x1="18.6" y1="8.5" x2="18.6" y2="8.4"/>
	<line class="st0" x1="18.6" y1="8.7" x2="18.5" y2="8.6"/>
	<line class="st0" x1="18.6" y1="8.5" x2="18.7" y2="8.4"/>
	<line class="st0" x1="18.6" y1="8.7" x2="18.7" y2="8.6"/>
	<line class="st1" x1="18.8" y1="8.8" x2="18.9" y2="8.8"/>
	
		<animateMotion  accumulate="none" additive="replace" calcMode="paced" dur="1300ms" fill="remove" repeatCount="indefinite" restart="always" values="0,0; 0,15;">
		</animateMotion>
</g>
<g>
	<line class="st0" x1="15.5" y1="10.8" x2="15.5" y2="11.9"/>
	<line class="st0" x1="15.8" y1="11.7" x2="15.1" y2="11"/>
	<line class="st0" x1="14.9" y1="11.4" x2="16" y2="11.4"/>
	<line class="st0" x1="15.1" y1="11.7" x2="15.8" y2="11"/>
	<line class="st0" x1="15.1" y1="11" x2="15.1" y2="10.9"/>
	<line class="st0" x1="15.1" y1="11" x2="15" y2="11"/>
	<line class="st0" x1="15.3" y1="11.2" x2="15.3" y2="11.1"/>
	<line class="st0" x1="15.3" y1="11.2" x2="15.2" y2="11.2"/>
	<line class="st0" x1="15.8" y1="11.7" x2="15.9" y2="11.7"/>
	<line class="st0" x1="15.8" y1="11.7" x2="15.8" y2="11.8"/>
	<line class="st0" x1="15.6" y1="11.6" x2="15.7" y2="11.5"/>
	<line class="st0" x1="15.8" y1="11" x2="15.8" y2="11"/>
	<line class="st0" x1="15.6" y1="11.6" x2="15.6" y2="11.6"/>
	<line class="st0" x1="15.8" y1="11" x2="15.9" y2="11"/>
	<line class="st0" x1="15.7" y1="11.2" x2="15.7" y2="11.1"/>
	<line class="st0" x1="14.9" y1="11.4" x2="14.9" y2="11.3"/>
	<line class="st0" x1="16" y1="11.4" x2="16" y2="11.3"/>
	<line class="st0" x1="14.9" y1="11.4" x2="14.9" y2="11.4"/>
	<line class="st0" x1="15.2" y1="11.4" x2="15.1" y2="11.3"/>
	<line class="st0" x1="15.8" y1="11.4" x2="15.8" y2="11.3"/>
	<line class="st0" x1="15.2" y1="11.4" x2="15.1" y2="11.4"/>
	<line class="st0" x1="15.8" y1="11.4" x2="15.8" y2="11.4"/>
	<line class="st0" x1="16" y1="11.4" x2="16.1" y2="11.4"/>
	<line class="st0" x1="15.5" y1="11.9" x2="15.4" y2="12"/>
	<line class="st0" x1="15.5" y1="11.7" x2="15.4" y2="11.7"/>
	<line class="st0" x1="15.5" y1="11.9" x2="15.5" y2="12"/>
	<line class="st0" x1="15.5" y1="11.7" x2="15.5" y2="11.7"/>
	<line class="st0" x1="15.1" y1="11.7" x2="15.1" y2="11.8"/>
	<line class="st0" x1="15.3" y1="11.6" x2="15.3" y2="11.7"/>
	<line class="st0" x1="15.1" y1="11.7" x2="15" y2="11.7"/>
	<line class="st0" x1="15.3" y1="11.5" x2="15.2" y2="11.6"/>
	<line class="st0" x1="15.5" y1="10.8" x2="15.4" y2="10.7"/>
	<line class="st0" x1="15.5" y1="11" x2="15.4" y2="11"/>
	<line class="st0" x1="15.5" y1="10.8" x2="15.5" y2="10.7"/>
	<line class="st0" x1="15.5" y1="11" x2="15.6" y2="11"/>
	<line class="st1" x1="15.7" y1="11.2" x2="15.7" y2="11.2"/>
	
		<animateMotion  accumulate="none" additive="replace" calcMode="paced" dur="1400ms" fill="remove" repeatCount="indefinite" restart="always" values="0,0; 0,13;">
		</animateMotion>
</g>
<g>
	<line class="st0" x1="12.6" y1="7.4" x2="12.6" y2="8.5"/>
	<line class="st0" x1="13" y1="8.3" x2="12.3" y2="7.6"/>
	<line class="st0" x1="12.1" y1="7.9" x2="13.2" y2="7.9"/>
	<line class="st0" x1="12.3" y1="8.3" x2="13" y2="7.6"/>
	<line class="st0" x1="12.3" y1="7.6" x2="12.3" y2="7.5"/>
	<line class="st0" x1="12.3" y1="7.6" x2="12.2" y2="7.6"/>
	<line class="st0" x1="12.5" y1="7.8" x2="12.5" y2="7.7"/>
	<line class="st0" x1="12.5" y1="7.8" x2="12.4" y2="7.8"/>
	<line class="st0" x1="13" y1="8.3" x2="13.1" y2="8.3"/>
	<line class="st0" x1="13" y1="8.3" x2="13" y2="8.4"/>
	<line class="st0" x1="12.8" y1="8.1" x2="12.9" y2="8.1"/>
	<line class="st0" x1="13" y1="7.6" x2="13" y2="7.5"/>
	<line class="st0" x1="12.8" y1="8.1" x2="12.8" y2="8.2"/>
	<line class="st0" x1="13" y1="7.6" x2="13.1" y2="7.6"/>
	<line class="st0" x1="12.8" y1="7.8" x2="12.8" y2="7.7"/>
	<line class="st0" x1="12.1" y1="7.9" x2="12.1" y2="7.9"/>
	<line class="st0" x1="13.2" y1="7.9" x2="13.2" y2="7.9"/>
	<line class="st0" x1="12.1" y1="7.9" x2="12.1" y2="8"/>
	<line class="st0" x1="12.3" y1="7.9" x2="12.3" y2="7.9"/>
	<line class="st0" x1="12.9" y1="7.9" x2="13" y2="7.9"/>
	<line class="st0" x1="12.3" y1="7.9" x2="12.3" y2="8"/>
	<line class="st0" x1="12.9" y1="7.9" x2="13" y2="8"/>
	<line class="st0" x1="13.2" y1="7.9" x2="13.2" y2="8"/>
	<line class="st0" x1="12.6" y1="8.5" x2="12.6" y2="8.5"/>
	<line class="st0" x1="12.6" y1="8.3" x2="12.6" y2="8.3"/>
	<line class="st0" x1="12.6" y1="8.5" x2="12.7" y2="8.5"/>
	<line class="st0" x1="12.6" y1="8.3" x2="12.7" y2="8.3"/>
	<line class="st0" x1="12.3" y1="8.3" x2="12.3" y2="8.4"/>
	<line class="st0" x1="12.5" y1="8.2" x2="12.5" y2="8.2"/>
	<line class="st0" x1="12.3" y1="8.3" x2="12.2" y2="8.3"/>
	<line class="st0" x1="12.5" y1="8.1" x2="12.4" y2="8.1"/>
	<line class="st0" x1="12.6" y1="7.4" x2="12.6" y2="7.3"/>
	<line class="st0" x1="12.6" y1="7.6" x2="12.6" y2="7.6"/>
	<line class="st0" x1="12.6" y1="7.4" x2="12.7" y2="7.3"/>
	<line class="st0" x1="12.7" y1="7.6" x2="12.7" y2="7.6"/>
	<line class="st1" x1="12.8" y1="7.8" x2="12.9" y2="7.8"/>
	
		<animateMotion  accumulate="none" additive="replace" calcMode="paced" dur="1700ms" fill="remove" repeatCount="indefinite" restart="always" values="0,0; 0,10;">
		</animateMotion>
</g>
<g>
	<line class="st0" x1="21.9" y1="11.1" x2="21.9" y2="12.3"/>
	<line class="st0" x1="22.3" y1="12.1" x2="21.6" y2="11.3"/>
	<line class="st0" x1="21.4" y1="11.7" x2="22.5" y2="11.7"/>
	<line class="st0" x1="21.6" y1="12.1" x2="22.3" y2="11.3"/>
	<line class="st0" x1="21.6" y1="11.3" x2="21.6" y2="11.2"/>
	<line class="st0" x1="21.6" y1="11.3" x2="21.5" y2="11.3"/>
	<line class="st0" x1="21.8" y1="11.5" x2="21.8" y2="11.4"/>
	<line class="st0" x1="21.8" y1="11.5" x2="21.7" y2="11.6"/>
	<line class="st0" x1="22.3" y1="12.1" x2="22.4" y2="12.1"/>
	<line class="st0" x1="22.3" y1="12.1" x2="22.3" y2="12.2"/>
	<line class="st0" x1="22.1" y1="11.9" x2="22.2" y2="11.9"/>
	<line class="st0" x1="22.3" y1="11.4" x2="22.3" y2="11.3"/>
	<line class="st0" x1="22.1" y1="11.9" x2="22.1" y2="12"/>
	<line class="st0" x1="22.3" y1="11.4" x2="22.4" y2="11.4"/>
	<line class="st0" x1="22.2" y1="11.5" x2="22.2" y2="11.4"/>
	<line class="st0" x1="21.4" y1="11.7" x2="21.4" y2="11.6"/>
	<line class="st0" x1="22.5" y1="11.7" x2="22.5" y2="11.6"/>
	<line class="st0" x1="21.4" y1="11.7" x2="21.4" y2="11.7"/>
	<line class="st0" x1="21.6" y1="11.7" x2="21.6" y2="11.6"/>
	<line class="st0" x1="22.3" y1="11.7" x2="22.3" y2="11.6"/>
	<line class="st0" x1="21.6" y1="11.7" x2="21.6" y2="11.8"/>
	<line class="st0" x1="22.3" y1="11.7" x2="22.3" y2="11.8"/>
	<line class="st0" x1="22.5" y1="11.7" x2="22.5" y2="11.7"/>
	<line class="st0" x1="21.9" y1="12.2" x2="21.9" y2="12.3"/>
	<line class="st0" x1="21.9" y1="12" x2="21.9" y2="12.1"/>
	<line class="st0" x1="21.9" y1="12.2" x2="22" y2="12.3"/>
	<line class="st0" x1="21.9" y1="12" x2="22" y2="12.1"/>
	<line class="st0" x1="21.6" y1="12.1" x2="21.6" y2="12.2"/>
	<line class="st0" x1="21.8" y1="11.9" x2="21.8" y2="12"/>
	<line class="st0" x1="21.6" y1="12.1" x2="21.5" y2="12.1"/>
	<line class="st0" x1="21.8" y1="11.9" x2="21.7" y2="11.9"/>
	<line class="st0" x1="21.9" y1="11.2" x2="21.9" y2="11.1"/>
	<line class="st0" x1="21.9" y1="11.4" x2="21.9" y2="11.3"/>
	<line class="st0" x1="21.9" y1="11.2" x2="22" y2="11.1"/>
	<line class="st0" x1="22" y1="11.4" x2="22.1" y2="11.3"/>
	<line class="st1" x1="22.2" y1="11.5" x2="22.2" y2="11.5"/>
	
		<animateMotion  accumulate="none" additive="replace" calcMode="paced" dur="1500ms" fill="remove" repeatCount="indefinite" restart="always" values="0,0; 0,12;">
		</animateMotion>
</g>
<g>
	<line class="st0" x1="9.8" y1="7.7" x2="9.8" y2="8.9"/>
	<line class="st0" x1="10.1" y1="8.7" x2="9.4" y2="7.9"/>
	<line class="st0" x1="9.2" y1="8.3" x2="10.3" y2="8.3"/>
	<line class="st0" x1="9.4" y1="8.7" x2="10.1" y2="7.9"/>
	<line class="st0" x1="9.4" y1="7.9" x2="9.4" y2="7.8"/>
	<line class="st0" x1="9.4" y1="7.9" x2="9.3" y2="7.9"/>
	<line class="st0" x1="9.6" y1="8.1" x2="9.6" y2="8"/>
	<line class="st0" x1="9.6" y1="8.1" x2="9.5" y2="8.2"/>
	<line class="st0" x1="10.1" y1="8.7" x2="10.2" y2="8.7"/>
	<line class="st0" x1="10.1" y1="8.7" x2="10.1" y2="8.8"/>
	<line class="st0" x1="10" y1="8.5" x2="10" y2="8.5"/>
	<line class="st0" x1="10.1" y1="8" x2="10.1" y2="7.9"/>
	<line class="st0" x1="10" y1="8.5" x2="9.9" y2="8.6"/>
	<line class="st0" x1="10.1" y1="8" x2="10.2" y2="8"/>
	<line class="st0" x1="10" y1="8.1" x2="10" y2="8"/>
	<line class="st0" x1="9.2" y1="8.3" x2="9.2" y2="8.2"/>
	<line class="st0" x1="10.3" y1="8.3" x2="10.3" y2="8.2"/>
	<line class="st0" x1="9.2" y1="8.3" x2="9.2" y2="8.3"/>
	<line class="st0" x1="9.5" y1="8.3" x2="9.4" y2="8.2"/>
	<line class="st0" x1="10.1" y1="8.3" x2="10.1" y2="8.2"/>
	<line class="st0" x1="9.5" y1="8.3" x2="9.4" y2="8.4"/>
	<line class="st0" x1="10.1" y1="8.3" x2="10.1" y2="8.4"/>
	<line class="st0" x1="10.3" y1="8.3" x2="10.4" y2="8.3"/>
	<line class="st0" x1="9.8" y1="8.8" x2="9.7" y2="8.9"/>
	<line class="st0" x1="9.8" y1="8.6" x2="9.7" y2="8.7"/>
	<line class="st0" x1="9.8" y1="8.8" x2="9.8" y2="8.9"/>
	<line class="st0" x1="9.8" y1="8.6" x2="9.8" y2="8.7"/>
	<line class="st0" x1="9.4" y1="8.7" x2="9.4" y2="8.8"/>
	<line class="st0" x1="9.6" y1="8.5" x2="9.6" y2="8.6"/>
	<line class="st0" x1="9.4" y1="8.7" x2="9.3" y2="8.7"/>
	<line class="st0" x1="9.6" y1="8.5" x2="9.5" y2="8.5"/>
	<line class="st0" x1="9.8" y1="7.8" x2="9.7" y2="7.7"/>
	<line class="st0" x1="9.8" y1="8" x2="9.7" y2="7.9"/>
	<line class="st0" x1="9.8" y1="7.8" x2="9.8" y2="7.7"/>
	<line class="st0" x1="9.8" y1="8" x2="9.9" y2="7.9"/>
	<line class="st1" x1="10" y1="8.1" x2="10.1" y2="8.1"/>
	
		<animateMotion  accumulate="none" additive="replace" calcMode="paced" dur="1200ms" fill="remove" repeatCount="indefinite" restart="always" values="0,0; 0,13;">
		</animateMotion>
</g>
<g>
	<g>
		<ellipse class="st2" cx="9.2" cy="10.8" rx="5.3" ry="5.5"/>
		<ellipse class="st2" cx="14.4" cy="10.8" rx="5.3" ry="5.5"/>
		<ellipse class="st2" cx="19.8" cy="10.8" rx="5.3" ry="5.5"/>
		<ellipse class="st2" cx="20.8" cy="11.5" rx="6.3" ry="3.6"/>
		<ellipse class="st2" cx="8.2" cy="11.5" rx="6.3" ry="3.6"/>
	</g>
	<path class="st2" d="M23.2,7.3c-0.1,0.2-0.8-0.4-2-0.9c-1.3-0.4-2.4-0.6-2.3-0.8s1.4-0.2,2.7,0.2C22.9,6.3,23.4,7.1,23.2,7.3z"/>
	<path class="st2" d="M2.1,11.3c0,0.9,0.5,1.6,0.9,1.6s-0.2-0.7-0.2-1.6S3.3,9.7,3,9.7S2.1,10.4,2.1,11.3z"/>
</g>
</svg>
