<?xml version="1.0" encoding="utf-8"?>
<!-- Generator: Adobe Illustrator 21.0.2, SVG Export Plug-In . SVG Version: 6.00 Build 0)  -->
<svg version="1.1" id="Layer_1" xmlns="http://www.w3.org/2000/svg" xmlns:xlink="http://www.w3.org/1999/xlink" x="0px" y="0px"
	 viewBox="0 0 30 30" style="enable-background:new 0 0 30 30;" xml:space="preserve">
<style type="text/css">
	.st0{fill:#1C76BC;}
	.st1{fill:#59ABBF;}
	.st2{fill:#72B1BF;}
</style>
<g>
	<g>
		<path class="st0" d="M8.6,9.3C8.5,9.7,8.2,10,8,10.4c-0.2,0.2,0.2,0.5,0.4,0.4c0.3-0.4,0.5-0.7,0.7-1.1C9.2,9.3,8.8,9.1,8.6,9.3
			L8.6,9.3z"/>
	</g>
	
		<animateMotion  accumulate="none" additive="replace" calcMode="paced" dur="1400ms" fill="remove" repeatCount="indefinite" restart="always" values="0,03; 0,10;">
		</animateMotion>
</g>
<g>
	<g>
		<path class="st0" d="M10.3,11.1c-0.2,0.3-0.4,0.5-0.6,0.8c-0.2,0.2,0.1,0.5,0.4,0.4c0.2-0.3,0.4-0.5,0.6-0.8
			C10.8,11.2,10.5,10.8,10.3,11.1L10.3,11.1z"/>
	</g>
	
		<animateMotion  accumulate="none" additive="replace" calcMode="paced" dur="1500ms" fill="remove" repeatCount="indefinite" restart="always" values="0,00; 0,10;">
		</animateMotion>
</g>
<g>
	<g>
		<path class="st0" d="M13.3,9.8c-0.3,0.3-0.4,0.6-0.5,1c-0.1,0.3,0.4,0.4,0.4,0.1s0.3-0.5,0.4-0.8C13.8,9.9,13.5,9.5,13.3,9.8
			L13.3,9.8z"/>
	</g>
	
		<animateMotion  accumulate="none" additive="replace" calcMode="paced" dur="1000ms" fill="remove" repeatCount="indefinite" restart="always" values="0,00; 0,10;">
		</animateMotion>
</g>
<g>
	<g>
		<path class="st0" d="M14.8,12.4c-0.2,0.4-0.4,0.7-0.5,1.1c-0.2,0.3,0.3,0.4,0.4,0.3c0.3-0.4,0.4-0.7,0.6-1.1
			C15.3,12.3,14.9,12.2,14.8,12.4L14.8,12.4z"/>
	</g>
	
		<animateMotion  accumulate="none" additive="replace" calcMode="paced" dur="1200ms" fill="remove" repeatCount="indefinite" restart="always" values="0,00; 0,10;">
		</animateMotion>
</g>
<g>
	<g>
		<path class="st0" d="M16.8,10c-0.1,0.3-0.2,0.5-0.4,0.8c-0.2,0.3,0.3,0.4,0.4,0.3c0.2-0.3,0.3-0.5,0.4-0.9
			C17.4,9.9,16.9,9.7,16.8,10L16.8,10z"/>
	</g>
	
		<animateMotion  accumulate="none" additive="replace" calcMode="paced" dur="1600ms" fill="remove" repeatCount="indefinite" restart="always" values="0,00; 0,10;">
		</animateMotion>
</g>
<g>
	<g>
		<path class="st0" d="M20,10.7c0.2-0.4,0.4-0.6,0.6-0.9c0.2-0.2-0.1-0.5-0.4-0.4c-0.3,0.3-0.5,0.6-0.7,1
			C19.5,10.8,19.9,10.9,20,10.7L20,10.7z"/>
	</g>
	
		<animateMotion  accumulate="none" additive="replace" calcMode="paced" dur="1000ms" fill="remove" repeatCount="indefinite" restart="always" values="0,00; 0,10;">
		</animateMotion>
</g>
<g>
	<g>
		<path class="st0" d="M18.3,13.9c0.2-0.4,0.4-0.7,0.5-1.1c0.1-0.3-0.4-0.4-0.4-0.1c-0.1,0.4-0.3,0.6-0.4,0.9
			C17.7,13.9,18.1,14.1,18.3,13.9L18.3,13.9z"/>
	</g>
	
		<animateMotion  accumulate="none" additive="replace" calcMode="paced" dur="1000ms" fill="remove" repeatCount="indefinite" restart="always" values="0,00; 0,10;">
		</animateMotion>
</g>
<g>
	<g>
		<path class="st0" d="M21.1,13c0.2-0.4,0.4-0.8,0.7-1.1c0.2-0.3-0.2-0.5-0.4-0.4c-0.3,0.4-0.5,0.8-0.8,1.2C20.6,13,21,13.2,21.1,13
			L21.1,13z"/>
	</g>
	
		<animateMotion  accumulate="none" additive="replace" calcMode="paced" dur="1800ms" fill="remove" repeatCount="indefinite" restart="always" values="0,00; 0,10;">
		</animateMotion>
</g>
<g>
	<g>
		<path class="st0" d="M24.3,11c0.1-0.3,0.2-0.4,0.4-0.5c0.2-0.2-0.1-0.5-0.4-0.4c-0.3,0.2-0.4,0.4-0.4,0.7
			C23.9,11.2,24.3,11.3,24.3,11L24.3,11z"/>
	</g>
	
		<animateMotion  accumulate="none" additive="replace" calcMode="paced" dur="1400ms" fill="remove" repeatCount="indefinite" restart="always" values="0,00; 0,10;">
		</animateMotion>
</g>
<g>
	<g>
		<path class="st0" d="M22.3,15c0.1-0.4,0.2-0.6,0.4-0.8c0.2-0.2-0.1-0.5-0.4-0.4c-0.3,0.3-0.4,0.6-0.5,1.1
			C21.8,15.1,22.2,15.3,22.3,15L22.3,15z"/>
	</g>
	
		<animateMotion  accumulate="none" additive="replace" calcMode="paced" dur="1000ms" fill="remove" repeatCount="indefinite" restart="always" values="0,00; 0,10;">
		</animateMotion>
</g>
<g>
	<g>
		<path class="st0" d="M11.3,13.9c0.1-0.2,0.2-0.3,0.3-0.4c0.1-0.3-0.3-0.4-0.4-0.3s-0.2,0.3-0.3,0.4C10.8,14,11.1,14.2,11.3,13.9
			L11.3,13.9z"/>
	</g>
	
		<animateMotion  accumulate="none" additive="replace" calcMode="paced" dur="1500ms" fill="remove" repeatCount="indefinite" restart="always" values="0,00; 0,10;">
		</animateMotion>
</g>
<g>
	<g>
		<path class="st0" d="M6.3,13.5c0.2-0.4,0.4-0.6,0.5-0.9c0.2-0.2-0.1-0.5-0.4-0.4c-0.3,0.3-0.4,0.6-0.6,1
			C5.8,13.5,6.2,13.8,6.3,13.5L6.3,13.5z"/>
	</g>
	
		<animateMotion  accumulate="none" additive="replace" calcMode="paced" dur="1200ms" fill="remove" repeatCount="indefinite" restart="always" values="0,03; 0,10;">
		</animateMotion>
</g>
<g>
	<g>
		<path class="st0" d="M15.2,8c0.2-0.4,0.4-0.6,0.6-0.9C16,7,15.7,6.6,15.4,6.8c-0.3,0.3-0.5,0.6-0.7,1C14.6,8.1,15.1,8.3,15.2,8
			L15.2,8z"/>
	</g>
	
		<animateMotion  accumulate="none" additive="replace" calcMode="paced" dur="1800ms" fill="remove" repeatCount="indefinite" restart="always" values="0,00; 0,10;">
		</animateMotion>
</g>
<g>
	<g>
		<path class="st0" d="M19.1,8.7c0.2-0.4,0.4-0.6,0.6-0.9c0.2-0.2-0.1-0.5-0.4-0.4c-0.3,0.3-0.5,0.6-0.7,1C18.5,8.8,19,9,19.1,8.7
			L19.1,8.7z"/>
	</g>
	
		<animateMotion  accumulate="none" additive="replace" calcMode="paced" dur="2200ms" fill="remove" repeatCount="indefinite" restart="always" values="0,00; 0,10;">
		</animateMotion>
</g>
<g>
	<g>
		<path class="st0" d="M12,9.7c0.2-0.4,0.4-0.6,0.6-0.9c0.2-0.2-0.1-0.5-0.4-0.4c-0.3,0.3-0.5,0.6-0.7,1C11.5,9.8,11.9,10,12,9.7
			L12,9.7z"/>
	</g>
	
		<animateMotion  accumulate="none" additive="replace" calcMode="paced" dur="2000ms" fill="remove" repeatCount="indefinite" restart="always" values="0,00; 0,10;">
		</animateMotion>
</g>
<g>
	<g>
		<path class="st0" d="M22.8,10.8c0.2-0.4,0.4-0.6,0.6-0.9c0.2-0.2-0.1-0.5-0.4-0.4c-0.3,0.3-0.5,0.6-0.7,1
			C22.2,10.9,22.7,11.1,22.8,10.8L22.8,10.8z"/>
	</g>
	
		<animateMotion  accumulate="none" additive="replace" calcMode="paced" dur="1000ms" fill="remove" repeatCount="indefinite" restart="always" values="0,00; 0,10;">
		</animateMotion>
</g>
<g>
	<g>
		<path class="st0" d="M13.4,13.1c0.2-0.4,0.4-0.6,0.6-0.9c0.2-0.2-0.1-0.5-0.4-0.4c-0.3,0.3-0.5,0.6-0.7,1
			C12.9,13.1,13.3,13.3,13.4,13.1L13.4,13.1z"/>
	</g>
	
		<animateMotion  accumulate="none" additive="replace" calcMode="paced" dur="1500ms" fill="remove" repeatCount="indefinite" restart="always" values="0,00; 0,10;">
		</animateMotion>
</g>
<g>
	<g>
		<ellipse class="st1" cx="9.3" cy="9.3" rx="6.1" ry="7.3"/>
		<ellipse class="st1" cx="15.3" cy="9.3" rx="6.1" ry="7.3"/>
		<ellipse class="st1" cx="21.4" cy="9.3" rx="6.1" ry="7.3"/>
		<ellipse class="st1" cx="22.7" cy="10.1" rx="7.3" ry="4.9"/>
		<ellipse class="st1" cx="8" cy="10.1" rx="7.3" ry="4.9"/>
	</g>
	<path class="st2" d="M25.5,4.5c-0.1,0.3-0.9-0.5-2.3-1.1c-1.5-0.5-2.7-0.8-2.6-1.1C20.6,2,22.1,2,23.6,2.5S25.6,4.2,25.5,4.5z"/>
	<path class="st2" d="M1,9.9c0,1.2,0.6,2.2,1.1,2.2s-0.2-1-0.2-2.2s0.5-2.2,0.2-2.2S1,8.6,1,9.9z"/>
</g>
</svg>
