<?xml version="1.0" encoding="utf-8"?>
<!-- Generator: Adobe Illustrator 21.0.2, SVG Export Plug-In . SVG Version: 6.00 Build 0)  -->
<svg version="1.1" id="Layer_1" xmlns="http://www.w3.org/2000/svg" xmlns:xlink="http://www.w3.org/1999/xlink" x="0px" y="0px"
	 viewBox="0 0 283.5 283.5" style="enable-background:new 0 0 283.5 283.5;" xml:space="preserve">
<style type="text/css">
	.st0{fill:none;stroke:#C0E6F0;stroke-width:1.25;stroke-miterlimit:10;}
	.st1{fill:none;stroke:#C3E7EE;stroke-width:1.25;stroke-miterlimit:10;}
	.st2{fill:#8299C4;}
	.st3{fill:#6F83A9;}
</style>
<g>
	<line class="st0" x1="93.9" y1="115.4" x2="94" y2="115.1"/>
	<line class="st0" x1="93.8" y1="115.4" x2="94.1" y2="115.8"/>
	<g>
		<line class="st0" x1="90.7" y1="112.1" x2="90.7" y2="118.7"/>
		<line class="st0" x1="92.9" y1="117.7" x2="88.5" y2="113.4"/>
		<line class="st0" x1="87.5" y1="115.4" x2="93.9" y2="115.4"/>
		<line class="st0" x1="88.6" y1="117.7" x2="92.9" y2="113.4"/>
		<line class="st0" x1="88.5" y1="113.4" x2="88.7" y2="112.8"/>
		<line class="st0" x1="88.5" y1="113.4" x2="87.9" y2="113.3"/>
		<line class="st0" x1="89.7" y1="114.4" x2="89.8" y2="113.8"/>
		<line class="st0" x1="89.6" y1="114.5" x2="89" y2="114.6"/>
		<line class="st0" x1="92.8" y1="117.6" x2="93.4" y2="117.7"/>
		<line class="st0" x1="92.8" y1="117.6" x2="92.7" y2="118.2"/>
		<line class="st0" x1="91.8" y1="116.6" x2="92.3" y2="116.6"/>
		<line class="st0" x1="92.7" y1="113.5" x2="92.7" y2="113"/>
		<line class="st0" x1="91.8" y1="116.6" x2="91.7" y2="117.1"/>
		<line class="st0" x1="92.7" y1="113.5" x2="93.2" y2="113.5"/>
		<line class="st0" x1="91.8" y1="114.4" x2="91.9" y2="113.8"/>
		<line class="st0" x1="87.7" y1="115.4" x2="87.3" y2="115.1"/>
		<line class="st0" x1="87.7" y1="115.4" x2="87.3" y2="115.7"/>
		<line class="st0" x1="88.9" y1="115.4" x2="88.7" y2="115"/>
		<line class="st0" x1="92.5" y1="115.4" x2="92.7" y2="115"/>
		<line class="st0" x1="89" y1="115.4" x2="88.6" y2="115.8"/>
		<line class="st0" x1="92.5" y1="115.4" x2="92.7" y2="115.8"/>
		<line class="st0" x1="90.7" y1="118.5" x2="90.3" y2="118.9"/>
		<line class="st0" x1="90.7" y1="117.4" x2="90.3" y2="117.6"/>
		<line class="st0" x1="90.7" y1="118.5" x2="91.1" y2="119"/>
		<line class="st0" x1="90.7" y1="117.4" x2="91.1" y2="117.6"/>
		<line class="st0" x1="88.7" y1="117.6" x2="88.7" y2="118.1"/>
		<line class="st0" x1="89.7" y1="116.7" x2="89.7" y2="117.2"/>
		<line class="st0" x1="88.7" y1="117.6" x2="88.1" y2="117.6"/>
		<line class="st0" x1="89.7" y1="116.5" x2="89.1" y2="116.6"/>
		<line class="st0" x1="90.7" y1="112.3" x2="90.4" y2="111.9"/>
		<line class="st0" x1="90.6" y1="113.6" x2="90.2" y2="113.3"/>
		<line class="st0" x1="90.7" y1="112.2" x2="91.1" y2="111.9"/>
		<line class="st0" x1="90.8" y1="113.5" x2="91.3" y2="113.3"/>
		<line class="st1" x1="91.8" y1="114.4" x2="92.3" y2="114.4"/>
			<animateMotion dur="3000ms" 
    			  values="0,0; 0,12;" 
     			 repeatCount="indefinite" />
	</g>
</g>
<g>
	<line class="st0" x1="110.2" y1="112.5" x2="110.2" y2="119.2"/>
	<line class="st0" x1="112.4" y1="118.1" x2="108.1" y2="113.8"/>
	<line class="st0" x1="107.1" y1="115.9" x2="113.5" y2="115.9"/>
	<line class="st0" x1="108.1" y1="118.1" x2="112.4" y2="113.8"/>
	<line class="st0" x1="108.1" y1="113.8" x2="108.2" y2="113.2"/>
	<line class="st0" x1="108" y1="113.8" x2="107.5" y2="113.7"/>
	<line class="st0" x1="109.2" y1="114.9" x2="109.3" y2="114.3"/>
	<line class="st0" x1="109.1" y1="115" x2="108.5" y2="115"/>
	<line class="st0" x1="112.4" y1="118" x2="113" y2="118.1"/>
	<line class="st0" x1="112.3" y1="118.1" x2="112.2" y2="118.7"/>
	<line class="st0" x1="111.3" y1="117" x2="111.9" y2="117"/>
	<line class="st0" x1="112.2" y1="114" x2="112.2" y2="113.5"/>
	<line class="st0" x1="111.3" y1="117" x2="111.2" y2="117.5"/>
	<line class="st0" x1="112.2" y1="114" x2="112.7" y2="114"/>
	<line class="st0" x1="111.4" y1="114.9" x2="111.4" y2="114.3"/>
	<line class="st0" x1="107.2" y1="115.9" x2="106.9" y2="115.6"/>
	<line class="st0" x1="113.4" y1="115.9" x2="113.6" y2="115.6"/>
	<line class="st0" x1="107.2" y1="115.9" x2="106.9" y2="116.2"/>
	<line class="st0" x1="108.5" y1="115.8" x2="108.2" y2="115.5"/>
	<line class="st0" x1="112" y1="115.9" x2="112.2" y2="115.4"/>
	<line class="st0" x1="108.5" y1="115.9" x2="108.2" y2="116.3"/>
	<line class="st0" x1="112" y1="115.9" x2="112.2" y2="116.3"/>
	<line class="st0" x1="113.3" y1="115.9" x2="113.7" y2="116.2"/>
	<line class="st0" x1="110.2" y1="119" x2="109.9" y2="119.4"/>
	<line class="st0" x1="110.2" y1="117.8" x2="109.8" y2="118.1"/>
	<line class="st0" x1="110.2" y1="119" x2="110.6" y2="119.4"/>
	<line class="st0" x1="110.2" y1="117.8" x2="110.7" y2="118.1"/>
	<line class="st0" x1="108.2" y1="118" x2="108.2" y2="118.5"/>
	<line class="st0" x1="109.2" y1="117.1" x2="109.3" y2="117.7"/>
	<line class="st0" x1="108.2" y1="118" x2="107.6" y2="118"/>
	<line class="st0" x1="109.2" y1="117" x2="108.6" y2="117"/>
	<line class="st0" x1="110.2" y1="112.8" x2="109.9" y2="112.3"/>
	<line class="st0" x1="110.2" y1="114" x2="109.7" y2="113.7"/>
	<line class="st0" x1="110.2" y1="112.7" x2="110.6" y2="112.3"/>
	<line class="st0" x1="110.3" y1="114" x2="110.8" y2="113.8"/>
	<line class="st1" x1="111.4" y1="114.9" x2="111.9" y2="114.8"/>
		<animateMotion dur="3200ms" 
    			  values="0,0; 0,12;" 
     			 repeatCount="indefinite" />
</g>
<g>
	<line class="st0" x1="100.2" y1="112" x2="100.2" y2="118.8"/>
	<line class="st0" x1="102.4" y1="117.7" x2="98" y2="113.3"/>
	<line class="st0" x1="97" y1="115.4" x2="103.5" y2="115.4"/>
	<line class="st0" x1="98.1" y1="117.7" x2="102.4" y2="113.3"/>
	<line class="st0" x1="98" y1="113.3" x2="98.1" y2="112.7"/>
	<line class="st0" x1="98" y1="113.3" x2="97.4" y2="113.2"/>
	<line class="st0" x1="99.1" y1="114.4" x2="99.3" y2="113.8"/>
	<line class="st0" x1="99.1" y1="114.5" x2="98.5" y2="114.6"/>
	<line class="st0" x1="102.4" y1="117.6" x2="103" y2="117.7"/>
	<line class="st0" x1="102.3" y1="117.6" x2="102.2" y2="118.2"/>
	<line class="st0" x1="101.3" y1="116.6" x2="101.8" y2="116.5"/>
	<line class="st0" x1="102.2" y1="113.5" x2="102.2" y2="113"/>
	<line class="st0" x1="101.3" y1="116.6" x2="101.2" y2="117.1"/>
	<line class="st0" x1="102.2" y1="113.5" x2="102.7" y2="113.5"/>
	<line class="st0" x1="101.4" y1="114.4" x2="101.4" y2="113.8"/>
	<line class="st0" x1="97.1" y1="115.4" x2="96.8" y2="115.1"/>
	<line class="st0" x1="103.4" y1="115.4" x2="103.6" y2="115.1"/>
	<line class="st0" x1="97.1" y1="115.4" x2="96.8" y2="115.7"/>
	<line class="st0" x1="98.4" y1="115.4" x2="98.1" y2="115"/>
	<line class="st0" x1="102" y1="115.4" x2="102.2" y2="115"/>
	<line class="st0" x1="98.4" y1="115.4" x2="98.1" y2="115.8"/>
	<line class="st0" x1="102" y1="115.4" x2="102.2" y2="115.8"/>
	<line class="st0" x1="103.3" y1="115.4" x2="103.7" y2="115.7"/>
	<line class="st0" x1="100.2" y1="118.5" x2="99.8" y2="119"/>
	<line class="st0" x1="100.2" y1="117.4" x2="99.8" y2="117.6"/>
	<line class="st0" x1="100.2" y1="118.5" x2="100.6" y2="119"/>
	<line class="st0" x1="100.2" y1="117.4" x2="100.6" y2="117.6"/>
	<line class="st0" x1="98.1" y1="117.6" x2="98.1" y2="118.1"/>
	<line class="st0" x1="99.2" y1="116.7" x2="99.2" y2="117.2"/>
	<line class="st0" x1="98.1" y1="117.6" x2="97.6" y2="117.6"/>
	<line class="st0" x1="99.2" y1="116.5" x2="98.5" y2="116.6"/>
	<line class="st0" x1="100.2" y1="112.3" x2="99.9" y2="111.8"/>
	<line class="st0" x1="100.2" y1="113.5" x2="99.7" y2="113.2"/>
	<line class="st0" x1="100.2" y1="112.2" x2="100.6" y2="111.8"/>
	<line class="st0" x1="100.3" y1="113.5" x2="100.8" y2="113.3"/>
	<line class="st1" x1="101.4" y1="114.4" x2="101.9" y2="114.3"/>
			<animateMotion dur="2900ms" 
    			  values="0,0; 0,10;" 
     			 repeatCount="indefinite" />
</g>
<g>
	<g>
		<ellipse class="st2" cx="93.8" cy="112.4" rx="6.9" ry="8.3"/>
		<ellipse class="st2" cx="100.7" cy="112.4" rx="6.9" ry="8.3"/>
		<ellipse class="st2" cx="107.7" cy="112.4" rx="6.9" ry="8.3"/>
		<ellipse class="st2" cx="109" cy="113.4" rx="8.3" ry="5.5"/>
		<ellipse class="st2" cx="92.5" cy="113.4" rx="8.3" ry="5.5"/>
	</g>
	<path class="st3" d="M112.2,107c-0.1,0.3-1-0.6-2.6-1.3c-1.7-0.6-3.1-0.9-3-1.2c0.1-0.3,1.8-0.3,3.5,0.3
		C111.8,105.5,112.4,106.7,112.2,107z"/>
	<path class="st3" d="M84.5,113.1c0,1.4,0.7,2.5,1.2,2.5s-0.2-1.1-0.2-2.5s0.6-2.5,0.2-2.5S84.5,111.7,84.5,113.1z"/>
</g>
</svg>
