<?xml version="1.0" encoding="utf-8"?>
<!-- Generator: Adobe Illustrator 21.0.2, SVG Export Plug-In . SVG Version: 6.00 Build 0)  -->
<svg version="1.1" id="Layer_1" xmlns="http://www.w3.org/2000/svg" xmlns:xlink="http://www.w3.org/1999/xlink" x="0px" y="0px"
	 viewBox="0 0 30 30" style="enable-background:new 0 0 30 30;" xml:space="preserve">
<style type="text/css">
	.st0{fill:none;stroke:#C1E7F1;stroke-width:1.25;stroke-miterlimit:10;}
	.st1{fill:none;stroke:#C4E7EE;stroke-width:1.25;stroke-miterlimit:10;}
	.st2{fill:#8299C4;}
	.st3{fill:#7084A9;}
</style>
<g>
	<line class="st0" x1="9.2" y1="12.7" x2="9.3" y2="12.4"/>
	<line class="st0" x1="9.1" y1="12.7" x2="9.4" y2="13"/>
	<g>
		<line class="st0" x1="6.4" y1="9.8" x2="6.4" y2="15.6"/>
		<line class="st0" x1="8.3" y1="14.7" x2="4.5" y2="11"/>
		<line class="st0" x1="3.6" y1="12.7" x2="9.2" y2="12.7"/>
		<line class="st0" x1="4.6" y1="14.7" x2="8.3" y2="11"/>
		<line class="st0" x1="4.5" y1="11" x2="4.7" y2="10.4"/>
		<line class="st0" x1="4.5" y1="11" x2="4" y2="10.9"/>
		<line class="st0" x1="5.5" y1="11.8" x2="5.6" y2="11.3"/>
		<line class="st0" x1="5.4" y1="11.9" x2="4.9" y2="12"/>
		<line class="st0" x1="8.2" y1="14.6" x2="8.7" y2="14.7"/>
		<line class="st0" x1="8.2" y1="14.6" x2="8.1" y2="15.1"/>
		<line class="st0" x1="7.4" y1="13.7" x2="7.8" y2="13.7"/>
		<line class="st0" x1="8.1" y1="11" x2="8.1" y2="10.6"/>
		<line class="st0" x1="7.4" y1="13.7" x2="7.3" y2="14.2"/>
		<line class="st0" x1="8.1" y1="11" x2="8.6" y2="11"/>
		<line class="st0" x1="7.4" y1="11.8" x2="7.4" y2="11.3"/>
		<line class="st0" x1="3.8" y1="12.7" x2="3.5" y2="12.4"/>
		<line class="st0" x1="3.8" y1="12.7" x2="3.5" y2="13"/>
		<line class="st0" x1="4.8" y1="12.7" x2="4.7" y2="12.3"/>
		<line class="st0" x1="8" y1="12.7" x2="8.1" y2="12.3"/>
		<line class="st0" x1="4.9" y1="12.7" x2="4.6" y2="13"/>
		<line class="st0" x1="8" y1="12.7" x2="8.1" y2="13"/>
		<line class="st0" x1="6.4" y1="15.4" x2="6.1" y2="15.7"/>
		<line class="st0" x1="6.4" y1="14.4" x2="6.1" y2="14.6"/>
		<line class="st0" x1="6.4" y1="15.4" x2="6.7" y2="15.8"/>
		<line class="st0" x1="6.4" y1="14.4" x2="6.7" y2="14.6"/>
		<line class="st0" x1="4.7" y1="14.6" x2="4.7" y2="15"/>
		<line class="st0" x1="5.5" y1="13.8" x2="5.5" y2="14.3"/>
		<line class="st0" x1="4.7" y1="14.6" x2="4.1" y2="14.6"/>
		<line class="st0" x1="5.5" y1="13.6" x2="5" y2="13.7"/>
		<line class="st0" x1="6.4" y1="10" x2="6.1" y2="9.7"/>
		<line class="st0" x1="6.3" y1="11.1" x2="6" y2="10.9"/>
		<line class="st0" x1="6.4" y1="9.9" x2="6.7" y2="9.7"/>
		<line class="st0" x1="6.5" y1="11" x2="6.9" y2="10.9"/>
		<line class="st1" x1="7.4" y1="11.8" x2="7.8" y2="11.8"/>
		
			<animateMotion  accumulate="none" additive="replace" calcMode="paced" dur="3000ms" fill="remove" repeatCount="indefinite" restart="always" values="0,0; 0,12;">
			</animateMotion>
	</g>
</g>
<g>
	<line class="st0" x1="23.3" y1="10.2" x2="23.3" y2="16"/>
	<line class="st0" x1="25.2" y1="15" x2="21.5" y2="11.3"/>
	<line class="st0" x1="20.6" y1="13.1" x2="26.2" y2="13.1"/>
	<line class="st0" x1="21.5" y1="15" x2="25.2" y2="11.3"/>
	<line class="st0" x1="21.5" y1="11.3" x2="21.6" y2="10.8"/>
	<line class="st0" x1="21.4" y1="11.3" x2="21" y2="11.2"/>
	<line class="st0" x1="22.5" y1="12.3" x2="22.5" y2="11.7"/>
	<line class="st0" x1="22.4" y1="12.3" x2="21.8" y2="12.3"/>
	<line class="st0" x1="25.2" y1="14.9" x2="25.7" y2="15"/>
	<line class="st0" x1="25.1" y1="15" x2="25.1" y2="15.6"/>
	<line class="st0" x1="24.3" y1="14.1" x2="24.8" y2="14.1"/>
	<line class="st0" x1="25.1" y1="11.5" x2="25.1" y2="11"/>
	<line class="st0" x1="24.3" y1="14.1" x2="24.2" y2="14.5"/>
	<line class="st0" x1="25.1" y1="11.5" x2="25.5" y2="11.5"/>
	<line class="st0" x1="24.4" y1="12.3" x2="24.4" y2="11.7"/>
	<line class="st0" x1="20.7" y1="13.1" x2="20.5" y2="12.9"/>
	<line class="st0" x1="26.1" y1="13.1" x2="26.3" y2="12.9"/>
	<line class="st0" x1="20.7" y1="13.1" x2="20.5" y2="13.4"/>
	<line class="st0" x1="21.8" y1="13" x2="21.6" y2="12.8"/>
	<line class="st0" x1="24.9" y1="13.1" x2="25.1" y2="12.7"/>
	<line class="st0" x1="21.8" y1="13.1" x2="21.6" y2="13.5"/>
	<line class="st0" x1="24.9" y1="13.1" x2="25.1" y2="13.5"/>
	<line class="st0" x1="26" y1="13.1" x2="26.4" y2="13.4"/>
	<line class="st0" x1="23.3" y1="15.8" x2="23.1" y2="16.2"/>
	<line class="st0" x1="23.3" y1="14.8" x2="23" y2="15"/>
	<line class="st0" x1="23.3" y1="15.8" x2="23.7" y2="16.2"/>
	<line class="st0" x1="23.3" y1="14.8" x2="23.8" y2="15"/>
	<line class="st0" x1="21.6" y1="14.9" x2="21.6" y2="15.4"/>
	<line class="st0" x1="22.5" y1="14.2" x2="22.5" y2="14.7"/>
	<line class="st0" x1="21.6" y1="14.9" x2="21.1" y2="14.9"/>
	<line class="st0" x1="22.5" y1="14.1" x2="21.9" y2="14.1"/>
	<line class="st0" x1="23.3" y1="10.4" x2="23.1" y2="10"/>
	<line class="st0" x1="23.3" y1="11.5" x2="22.9" y2="11.2"/>
	<line class="st0" x1="23.3" y1="10.4" x2="23.7" y2="10"/>
	<line class="st0" x1="23.4" y1="11.5" x2="23.8" y2="11.3"/>
	<line class="st1" x1="24.4" y1="12.3" x2="24.8" y2="12.2"/>
	
		<animateMotion  accumulate="none" additive="replace" calcMode="paced" dur="3200ms" fill="remove" repeatCount="indefinite" restart="always" values="0,0; 0,12;">
		</animateMotion>
</g>
<g>
	<line class="st0" x1="14.6" y1="9.7" x2="14.6" y2="15.6"/>
	<line class="st0" x1="16.6" y1="14.7" x2="12.7" y2="10.9"/>
	<line class="st0" x1="11.9" y1="12.7" x2="17.5" y2="12.7"/>
	<line class="st0" x1="12.8" y1="14.7" x2="16.6" y2="10.9"/>
	<line class="st0" x1="12.7" y1="10.9" x2="12.8" y2="10.4"/>
	<line class="st0" x1="12.7" y1="10.9" x2="12.2" y2="10.8"/>
	<line class="st0" x1="13.7" y1="11.8" x2="13.9" y2="11.3"/>
	<line class="st0" x1="13.7" y1="11.9" x2="13.2" y2="12"/>
	<line class="st0" x1="16.6" y1="14.6" x2="17.1" y2="14.7"/>
	<line class="st0" x1="16.5" y1="14.6" x2="16.4" y2="15.1"/>
	<line class="st0" x1="15.6" y1="13.7" x2="16" y2="13.6"/>
	<line class="st0" x1="16.4" y1="11" x2="16.4" y2="10.6"/>
	<line class="st0" x1="15.6" y1="13.7" x2="15.5" y2="14.2"/>
	<line class="st0" x1="16.4" y1="11" x2="16.8" y2="11"/>
	<line class="st0" x1="15.7" y1="11.8" x2="15.7" y2="11.3"/>
	<line class="st0" x1="12" y1="12.7" x2="11.7" y2="12.4"/>
	<line class="st0" x1="17.4" y1="12.7" x2="17.6" y2="12.4"/>
	<line class="st0" x1="12" y1="12.7" x2="11.7" y2="13"/>
	<line class="st0" x1="13.1" y1="12.7" x2="12.8" y2="12.3"/>
	<line class="st0" x1="16.2" y1="12.7" x2="16.4" y2="12.3"/>
	<line class="st0" x1="13.1" y1="12.7" x2="12.8" y2="13"/>
	<line class="st0" x1="16.2" y1="12.7" x2="16.4" y2="13"/>
	<line class="st0" x1="17.3" y1="12.7" x2="17.7" y2="13"/>
	<line class="st0" x1="14.6" y1="15.4" x2="14.3" y2="15.8"/>
	<line class="st0" x1="14.6" y1="14.4" x2="14.3" y2="14.6"/>
	<line class="st0" x1="14.6" y1="15.4" x2="15" y2="15.8"/>
	<line class="st0" x1="14.6" y1="14.4" x2="15" y2="14.6"/>
	<line class="st0" x1="12.8" y1="14.6" x2="12.8" y2="15"/>
	<line class="st0" x1="13.8" y1="13.8" x2="13.8" y2="14.3"/>
	<line class="st0" x1="12.8" y1="14.6" x2="12.4" y2="14.6"/>
	<line class="st0" x1="13.8" y1="13.6" x2="13.2" y2="13.7"/>
	<line class="st0" x1="14.6" y1="10" x2="14.4" y2="9.6"/>
	<line class="st0" x1="14.6" y1="11" x2="14.2" y2="10.8"/>
	<line class="st0" x1="14.6" y1="9.9" x2="15" y2="9.6"/>
	<line class="st0" x1="14.7" y1="11" x2="15.2" y2="10.9"/>
	<line class="st1" x1="15.7" y1="11.8" x2="16.1" y2="11.7"/>
	
		<animateMotion  accumulate="none" additive="replace" calcMode="paced" dur="2900ms" fill="remove" repeatCount="indefinite" restart="always" values="0,0; 0,10;">
		</animateMotion>
</g>
<g>
	<g>
		<ellipse class="st2" cx="9.1" cy="10.1" rx="6" ry="7.2"/>
		<ellipse class="st2" cx="15.1" cy="10.1" rx="6" ry="7.2"/>
		<ellipse class="st2" cx="21.1" cy="10.1" rx="6" ry="7.2"/>
		<ellipse class="st2" cx="22.3" cy="11" rx="7.2" ry="4.8"/>
		<ellipse class="st2" cx="8" cy="11" rx="7.2" ry="4.8"/>
	</g>
	<path class="st3" d="M25.1,5.4c-0.1,0.3-0.9-0.5-2.3-1.1c-1.5-0.5-2.7-0.8-2.6-1c0.1-0.3,1.6-0.3,3,0.3C24.7,4.1,25.2,5.1,25.1,5.4
		z"/>
	<path class="st3" d="M1,10.7c0,1.2,0.6,2.2,1,2.2s-0.2-1-0.2-2.2s0.5-2.2,0.2-2.2S1,9.5,1,10.7z"/>
</g>
</svg>
