<?xml version="1.0" encoding="utf-8"?>
<!-- Generator: Adobe Illustrator 21.0.2, SVG Export Plug-In . SVG Version: 6.00 Build 0)  -->
<svg version="1.1" id="Layer_1" xmlns="http://www.w3.org/2000/svg" xmlns:xlink="http://www.w3.org/1999/xlink" x="0px" y="0px"
	 viewBox="0 0 30 30" style="enable-background:new 0 0 30 30;" xml:space="preserve">
<style type="text/css">

@-webkit-keyframes Ani1{
 		 0%   { opacity: 0; }
		 90%  {opacity:0; }
 		 100% { opacity: 1; }
		}
		@-webkit-keyframes Ani2{
 		 0%   { opacity: 0; }
		 90%  {opacity:0; }
 		 100% { opacity: 1; }
		}
		@-webkit-keyframes Ani3{
 		 0%   { opacity: 0; }
		 90%  {opacity:0; }
 		 100% { opacity: 1; }
		}
		@-webkit-keyframes Ani4{
 		 0%   { opacity: 0; }
		 90%  {opacity:0; }
 		 100% { opacity: 1; }
		}
	.st0{fill:#70CCDA;}
	.st1{fill:#FCEE23;}
	.st2{fill:#4C5A77;}
	.st3{fill:#44516B;}


	#Blitz_1_{Animation: Ani1 4s infinite;}
	#Links{Animation: Ani2 2s infinite;}
	#Rechts{Animation: Ani3 3.5s infinite;}
	#Mitte{Animation: Ani4 3s infinite;}
</style>
<g>
	<g>
		<path class="st0" d="M8.1,10.1c-0.2,0.3-0.4,0.7-0.6,1c-0.2,0.2,0.2,0.5,0.3,0.3c0.3-0.3,0.5-0.7,0.7-1.1
			C8.6,10.1,8.2,9.9,8.1,10.1L8.1,10.1z"/>
	</g>
	
		<animateMotion  accumulate="none" additive="replace" calcMode="paced" dur="1400ms" fill="remove" repeatCount="indefinite" restart="always" values="0,03; 0,10;">
		</animateMotion>
</g>
<g>
	<g>
		<path class="st0" d="M9.7,11.8c-0.2,0.3-0.4,0.5-0.6,0.8c-0.2,0.2,0.1,0.5,0.3,0.3c0.2-0.3,0.4-0.5,0.6-0.8
			C10.1,11.9,9.8,11.6,9.7,11.8L9.7,11.8z"/>
	</g>
	
		<animateMotion  accumulate="none" additive="replace" calcMode="paced" dur="1500ms" fill="remove" repeatCount="indefinite" restart="always" values="0,00; 0,10;">
		</animateMotion>
</g>
<g>
	<g>
		<path class="st0" d="M12.5,10.6c-0.3,0.3-0.4,0.6-0.5,0.9c-0.1,0.3,0.3,0.3,0.4,0.1c0.1-0.3,0.3-0.5,0.4-0.8
			C12.9,10.6,12.7,10.3,12.5,10.6L12.5,10.6z"/>
	</g>
	
		<animateMotion  accumulate="none" additive="replace" calcMode="paced" dur="1000ms" fill="remove" repeatCount="indefinite" restart="always" values="0,00; 0,10;">
		</animateMotion>
</g>
<g>
	<g>
		<path class="st0" d="M13.9,13.1c-0.2,0.3-0.3,0.7-0.5,1c-0.2,0.3,0.3,0.4,0.3,0.3c0.3-0.3,0.4-0.7,0.6-1.1
			C14.4,13,14,12.8,13.9,13.1L13.9,13.1z"/>
	</g>
	
		<animateMotion  accumulate="none" additive="replace" calcMode="paced" dur="1200ms" fill="remove" repeatCount="indefinite" restart="always" values="0,00; 0,10;">
		</animateMotion>
</g>
<g>
	<g>
		<path class="st0" d="M15.9,10.7c-0.1,0.3-0.2,0.5-0.3,0.8c-0.2,0.3,0.3,0.4,0.3,0.3c0.2-0.3,0.3-0.5,0.3-0.8
			C16.4,10.6,15.9,10.5,15.9,10.7L15.9,10.7z"/>
	</g>
	
		<animateMotion  accumulate="none" additive="replace" calcMode="paced" dur="1600ms" fill="remove" repeatCount="indefinite" restart="always" values="0,00; 0,10;">
		</animateMotion>
</g>
<g>
	<g>
		<path class="st0" d="M18.9,11.4c0.2-0.3,0.3-0.6,0.6-0.8c0.2-0.2-0.1-0.5-0.3-0.3c-0.3,0.3-0.5,0.6-0.7,0.9
			C18.4,11.5,18.8,11.6,18.9,11.4L18.9,11.4z"/>
	</g>
	
		<animateMotion  accumulate="none" additive="replace" calcMode="paced" dur="1000ms" fill="remove" repeatCount="indefinite" restart="always" values="0,00; 0,10;">
		</animateMotion>
</g>
<g>
	<g>
		<path class="st0" d="M17.2,14.5c0.2-0.3,0.3-0.7,0.5-1c0.1-0.3-0.3-0.3-0.4-0.1c-0.1,0.3-0.3,0.6-0.4,0.8
			C16.7,14.5,17,14.7,17.2,14.5L17.2,14.5z"/>
	</g>
	
		<animateMotion  accumulate="none" additive="replace" calcMode="paced" dur="1000ms" fill="remove" repeatCount="indefinite" restart="always" values="0,00; 0,10;">
		</animateMotion>
</g>
<g>
	<g>
		<path class="st0" d="M19.9,13.6c0.2-0.3,0.4-0.8,0.7-1.1c0.2-0.3-0.2-0.5-0.3-0.3c-0.3,0.3-0.5,0.8-0.8,1.2
			C19.5,13.6,19.8,13.8,19.9,13.6L19.9,13.6z"/>
	</g>
	
		<animateMotion  accumulate="none" additive="replace" calcMode="paced" dur="1800ms" fill="remove" repeatCount="indefinite" restart="always" values="0,00; 0,10;">
		</animateMotion>
</g>
<g>
	<g>
		<path class="st0" d="M23,11.7c0.1-0.3,0.2-0.3,0.3-0.5c0.2-0.2-0.1-0.5-0.3-0.3c-0.3,0.2-0.3,0.4-0.4,0.7
			C22.6,11.9,22.9,12,23,11.7L23,11.7z"/>
	</g>
	
		<animateMotion  accumulate="none" additive="replace" calcMode="paced" dur="1400ms" fill="remove" repeatCount="indefinite" restart="always" values="0,00; 0,10;">
		</animateMotion>
</g>
<g>
	<g>
		<path class="st0" d="M21,15.5c0.1-0.3,0.2-0.6,0.4-0.8c0.2-0.2-0.1-0.5-0.3-0.3c-0.3,0.3-0.4,0.6-0.5,1C20.5,15.6,21,15.7,21,15.5
			L21,15.5z"/>
	</g>
	
		<animateMotion  accumulate="none" additive="replace" calcMode="paced" dur="1000ms" fill="remove" repeatCount="indefinite" restart="always" values="0,00; 0,10;">
		</animateMotion>
</g>
<g>
	<g>
		<path class="st0" d="M10.6,14.5c0.1-0.2,0.2-0.3,0.3-0.4c0.1-0.3-0.3-0.4-0.3-0.3c-0.1,0.2-0.2,0.3-0.3,0.4
			C10.1,14.6,10.4,14.7,10.6,14.5L10.6,14.5z"/>
	</g>
	
		<animateMotion  accumulate="none" additive="replace" calcMode="paced" dur="1500ms" fill="remove" repeatCount="indefinite" restart="always" values="0,00; 0,10;">
		</animateMotion>
</g>
<g>
	<g>
		<path class="st0" d="M5.9,14.1c0.2-0.3,0.3-0.6,0.5-0.8c0.2-0.2-0.1-0.5-0.3-0.3c-0.3,0.3-0.4,0.6-0.6,0.9
			C5.4,14.1,5.8,14.3,5.9,14.1L5.9,14.1z"/>
	</g>
	
		<animateMotion  accumulate="none" additive="replace" calcMode="paced" dur="1200ms" fill="remove" repeatCount="indefinite" restart="always" values="0,03; 0,10;">
		</animateMotion>
</g>
<g id="Links">
	<g>
		<g>
			<path class="st1" d="M22.6,14.7c-0.6,0.9-1.3,1.8-1.9,2.7c-0.2,0.3,0.2,0.4,0.3,0.3c0.7-0.8,1.3-1.8,1.9-2.7
				C23.1,14.7,22.8,14.5,22.6,14.7L22.6,14.7z"/>
		</g>
	</g>
	<g>
		<g>
			<path class="st1" d="M21,17.8c0.7,0,1.4,0,2.1,0c0.3,0,0.3-0.4,0-0.4c-0.7-0.1-1.4-0.1-2.1,0C20.6,17.3,20.6,17.8,21,17.8
				L21,17.8z"/>
		</g>
	</g>
	<g>
		<g>
			<path class="st1" d="M23.1,17.3c-0.8,0.7-1.3,1.6-2,2.3c-0.2,0.2,0.1,0.5,0.3,0.3c0.7-0.8,1.3-1.6,2-2.3
				C23.6,17.5,23.2,17.2,23.1,17.3L23.1,17.3z"/>
		</g>
	</g>
</g>
<g id="Blitz_1_">
	<g>
		<g>
			<path class="st1" d="M8.4,16c-0.6,0.9-1.3,1.8-1.9,2.7c-0.2,0.3,0.2,0.4,0.3,0.3c0.7-0.8,1.3-1.8,1.9-2.7C8.9,16,8.6,15.7,8.4,16
				L8.4,16z"/>
		</g>
	</g>
	<g>
		<g>
			<path class="st1" d="M6.7,19c0.7,0,1.4,0,2.1,0c0.3,0,0.3-0.4,0-0.4c-0.7-0.1-1.4-0.1-2.1,0C6.5,18.6,6.5,19,6.7,19L6.7,19z"/>
		</g>
	</g>
	<g>
		<g>
			<path class="st1" d="M8.8,18.6c-0.8,0.7-1.3,1.6-2,2.3c-0.2,0.2,0.1,0.5,0.3,0.3c0.7-0.8,1.3-1.6,2-2.3C9.3,18.8,9,18.4,8.8,18.6
				L8.8,18.6z"/>
		</g>
	</g>
</g>
<g id="Rechts">
	<g>
		<g>
			<path class="st1" d="M12.3,19.7c-0.6,0.9-1.3,1.8-1.9,2.7c-0.2,0.3,0.2,0.4,0.3,0.3c0.7-0.8,1.3-1.8,1.9-2.7
				C12.8,19.7,12.4,19.4,12.3,19.7L12.3,19.7z"/>
		</g>
	</g>
	<g>
		<g>
			<path class="st1" d="M10.6,22.7c0.7,0,1.4,0,2.1,0c0.3,0,0.3-0.4,0-0.4c-0.7-0.1-1.4-0.1-2.1,0C10.3,22.3,10.3,22.7,10.6,22.7
				L10.6,22.7z"/>
		</g>
	</g>
	<g>
		<g>
			<path class="st1" d="M12.7,22.3c-0.8,0.7-1.3,1.6-2,2.3c-0.2,0.2,0.1,0.5,0.3,0.3c0.7-0.8,1.3-1.6,2-2.3
				C13.2,22.4,12.8,22.1,12.7,22.3L12.7,22.3z"/>
		</g>
	</g>
</g>
<g id="Mitte">
	<g>
		<g>
			<path class="st1" d="M17.2,16.9c-0.6,0.9-1.3,1.8-1.9,2.7c-0.2,0.3,0.2,0.4,0.3,0.3c0.7-0.8,1.3-1.8,1.9-2.7
				C17.7,16.9,17.4,16.7,17.2,16.9L17.2,16.9z"/>
		</g>
	</g>
	<g>
		<g>
			<path class="st1" d="M15.5,19.9c0.7,0,1.4,0,2.1,0c0.3,0,0.3-0.4,0-0.4c-0.7-0.1-1.4-0.1-2.1,0C15.3,19.5,15.3,19.9,15.5,19.9
				L15.5,19.9z"/>
		</g>
	</g>
	<g>
		<g>
			<path class="st1" d="M17.6,19.5c-0.8,0.7-1.3,1.6-2,2.3c-0.2,0.2,0.1,0.5,0.3,0.3c0.7-0.8,1.3-1.6,2-2.3
				C18.1,19.7,17.8,19.3,17.6,19.5L17.6,19.5z"/>
		</g>
	</g>
</g>
<g>
	<g>
		<ellipse class="st2" cx="9.8" cy="10" rx="5.8" ry="6.9"/>
		<ellipse class="st2" cx="15.6" cy="10" rx="5.8" ry="6.9"/>
		<ellipse class="st2" cx="21.3" cy="10" rx="5.8" ry="6.9"/>
		<ellipse class="st2" cx="22.5" cy="10.9" rx="6.9" ry="4.6"/>
		<ellipse class="st2" cx="8.6" cy="10.9" rx="6.9" ry="4.6"/>
	</g>
	<path class="st3" d="M25.2,5.5C25.1,5.8,24.3,5,23,4.4c-1.4-0.5-2.6-0.8-2.5-1c0.1-0.3,1.5-0.3,2.9,0.3C24.8,4.2,25.3,5.3,25.2,5.5
		z"/>
	<path class="st3" d="M2,10.6c0,1.2,0.6,2.1,1,2.1s-0.2-0.9-0.2-2.1S3.3,8.5,3,8.5S2,9.5,2,10.6z"/>
</g>
</svg>
