<svg id="Layer_1" data-name="Layer 1" xmlns="http://www.w3.org/2000/svg" viewBox="0 0 59.55 42.19"><defs><style>.cls-1{fill:#603218;}.cls-2{fill:#61381a;}</style></defs><title>Brown</title><path class="cls-1" d="M125.9,52.2a11.51,11.51,0,0,1,1.5,4.4l1.2-.3c-.5-1.3-1-2.5-1.6-3.8-.4.2-.7.3-1.1.5a33.32,33.32,0,0,1,1.6,5.1l1.2-.3c-.4-1.2-.7-2.4-1.1-3.6l-1.2.3a17.1,17.1,0,0,1,.9,3l1.2-.3c-.9-2.3-1.5-4.9-2.6-7.1-.7-1.3-2.1-2-2.6-3.4-.3.2-.6.5-.9.7a17.22,17.22,0,0,1,3.1,2.4.57.57,0,0,0,.9-.7c-.6-.9-1.2-1.8-1.8-2.8-.3.2-.6.5-.9.7a25.38,25.38,0,0,1,2.9,3.6c.3-.2.6-.5.9-.7-.7-.8-1.5-1.6-2.2-2.5a.57.57,0,0,0-.9.7l1.8,3c.3.6,1.3.2,1.1-.5s-.4-1.2-.6-1.7c-.3-.7-1.4-.4-1.2.3a17.42,17.42,0,0,1,.5,2.2l1.2-.3c0-.2.1-.4.1-.6-.4,0-.7-.1-1.1-.1.1.3.2.7.3,1,.1.6,1,.6,1.2,0,1.1-4.5-1.1-8.1-3.7-11.6-.3.2-.6.5-.9.7a12.13,12.13,0,0,1,4.6,7.6c.4-.2.7-.3,1.1-.5a16.18,16.18,0,0,0-1-1.8c-.3-.7-1.4-.4-1.2.3a8.42,8.42,0,0,0,1.1,2.1c.4.6,1.2.2,1.1-.5a12.81,12.81,0,0,0-4.9-8.1c-.5-.4-1.4.1-.9.7,2.4,3.2,4.6,6.5,3.6,10.7h1.2c-.1-.3-.2-.7-.3-1a.59.59,0,0,0-1.1-.1c-.4.6-.4.7-.2,1.5s1.3.4,1.2-.3a7.85,7.85,0,0,0-.5-2.2l-1.2.3c.2.6.4,1.2.6,1.7.4-.2.7-.3,1.1-.5l-1.8-3c-.3.2-.6.5-.9.7.7.8,1.5,1.6,2.2,2.5.4.5,1.3-.2.9-.7a27.87,27.87,0,0,0-3-3.8.57.57,0,0,0-.9.7c.6.9,1.2,1.8,1.8,2.8.3-.2.6-.5.9-.7a17.22,17.22,0,0,0-3.3-2.6c-.4-.2-1.1.2-.9.7.5,1.4,1.5,2,2.3,3.2,1.4,2.1,2.1,4.9,2.9,7.3a.62.62,0,0,0,1.2-.3,14.88,14.88,0,0,0-.9-3c-.3-.7-1.4-.4-1.2.3.4,1.2.7,2.4,1.1,3.6.2.7,1.3.4,1.2-.3a24.48,24.48,0,0,0-1.8-5.4c-.3-.6-1.4-.2-1.1.5.5,1.3,1,2.5,1.6,3.8a.62.62,0,0,0,1.2-.3,11.6,11.6,0,0,0-1.7-4.7c-.7-.8-1.7-.2-1.3.5Z" transform="translate(-69.8 -23.8)"/><path class="cls-1" d="M73.8,49.5c-.6,2.1-1.3,4.2-1.9,6.4h1.2c-.4-2.2-2,2.9-1.9,2.4-.4,1.7.1,3.9.4,5.6l1.2-.3a17.64,17.64,0,0,1,1-10.4c-.4-.1-.8-.1-1.2-.2a6.71,6.71,0,0,1-.8,3.7.61.61,0,0,0,1,.6h-.7a.61.61,0,0,0,1.1.5,6.82,6.82,0,0,0,1.2-2.6c-.4-.1-.8-.1-1.2-.2v.9a.58.58,0,0,0,1.1.3,27.2,27.2,0,0,0,1.9-4.7c.2-.8-.9-1-1.2-.3-.4,1-.8,2.1-1.1,3.1l1.2.3a43.59,43.59,0,0,0,.7-6.2.62.62,0,0,0-1.2-.2,36.18,36.18,0,0,1-1.7,5.6c.4.1.8.1,1.2.2a8.22,8.22,0,0,1,1.1-5.7L74.1,48a10.2,10.2,0,0,1-1.2,5.4c.4,0,.7.1,1.1.1-.1-.3-.1-.5-.2-.8-.1-.6-1-.6-1.2,0s-.5,1-.7,1.5l1.1.3c0-1.5-.8-7.7,2.1-7.6-.1-.3-.3-.7-.4-1a7.94,7.94,0,0,0-2.6,3.9c-.2.5.6,1.1,1,.6A17.91,17.91,0,0,0,75.3,47l-1.1-.3c-.1.7-.1,1.3-.2,2l1.1-.3v-.2c.3.2.7.4,1,.6.8-1,1.6-2,2.4-3.1l-.8-.8a35.54,35.54,0,0,1-3.2,5.3c-.4.5.3,1.1.8.8a24.42,24.42,0,0,0,3.3-2.3c.5-.4-.2-1.4-.7-.9l-1.2.9c-.6.5-.1,1.4.6,1s1.3-.6,2-.9c-.2-.3-.4-.7-.6-1-.7.5-1.4,1.1-2.2,1.6s-.1,1.3.6,1a16.93,16.93,0,0,0,7.1-5.6c-.3-.2-.7-.4-1-.6C82,46.6,80,47.8,77.8,49c.2.3.4.7.6,1,1.9-1.4,3.8-2.8,5.7-4.1-.2-.3-.5-.6-.7-.9-.3.3-.6.5-.9.8l.8.8c.9-.9,1.8-1.9,2.6-2.8-.3-.2-.6-.5-.9-.7A19.86,19.86,0,0,1,75.7,50c.2.4.3.7.5,1.1a88.08,88.08,0,0,0,10.3-6.9c.5-.4-.2-1.3-.7-.9A33.6,33.6,0,0,1,80.9,46c-4.7,2-1-2.1.6-3.8-.3-.1-.7-.3-1-.4-.4,1.4-.7,2.7-1.1,4.1.4.2.7.3,1.1.5.6-1.1,1.2-2.2,1.9-3.3-.3-.2-.7-.4-1-.6a9.24,9.24,0,0,1-1.5,4c.4.2.7.3,1.1.5.5-1.1,1-2.2,1.6-3.3-.3-.2-.7-.4-1-.6.2,2-.2,2.7-1.4,2.1-.4-.1-.8-.1-1.2-.2-1.1-.3-2.2-.6-3.3-.8-.4-.1-.8-.1-1.2-.2,0,.4,2.2-3.1,2.2-3.1-.3-.2-.7-.4-1-.6-.5,1-.9,2-1.4,3-.3.7.7,1.3,1,.6a11.36,11.36,0,0,1,4.3-4.4c.6-.3.2-1.3-.5-1.1-.5.2-1,.3-1.5.5a.62.62,0,0,0,.3,1.2c.5-.1,1.1-.3,1.6-.4l-.3-1.2a6.73,6.73,0,0,0-4,3.4c-.3.6.5,1.3.9.7,2.4-2.9-.1,2-.5,2.7.4.2.7.3,1.1.5a8.9,8.9,0,0,1,2.4-4.2c-.3-.1-.7-.3-1-.4-.8,2.1-.5,2.1.8.1-.3-.1-.7-.3-1-.4.4-.1.8-.1,1.2-.2-.3-.2-.6-.5-.9-.7a8.76,8.76,0,0,1-2.7,5.4c.3.2.7.4,1,.6a5.73,5.73,0,0,1,2-3.9c-.3-.2-.6-.5-.9-.7-.7.7-1.4,1.5-2.1,2.2.3.2.6.5.9.7-.6,0-1.1.1-1.7.1.3.2.6.5.9.7,1.7-1.4,3.4-2.9,5.1-4.3.3-.2.6-.5.9-.7a13,13,0,0,1-.8-1.7H79.6a10.28,10.28,0,0,1-.7,4.9h1.2c.4.6.7,1.3,1.1,1.9.3-.1.7-.3,1-.4l2.4-6.9c-.3-.1-.7-.3-1-.4-.3.3-.7.5-1,.8-.3-.2-.7-.4-1-.6-.4.9-.7,1.8-1.1,2.7.4,0,.7.1,1.1.1,0-.2-.1-.4-.1-.6-.1-.8-1.3-.4-1.2.3,0,.2.1.4.1.6.1.6.8.5,1.1.1,1.2-1.7.9-.9,1.2-2.9a.61.61,0,0,0-1-.6,5.07,5.07,0,0,0-1.8,2.5c-.1.2,0,.4.2.6,1.9,2.1,3.6-.4,3.3-2.6a.68.68,0,0,0-.4-.6c-1.9-.5-3.4,2.7-1.9,4,2.3,2,3.7-2.2,3.8-3.7a.59.59,0,0,0-1-.4c-1.2,1-3.3,3.9-.6,4.9S87,39.4,87,37.7a.59.59,0,0,0-.9-.5c-2.1,1.4-3.3,6,.6,5.6,2.5-.3,2.7-4.2,0-4.2-1.8,0-2.6,2.9-.7,3.5,1.7.5,2.7-3.5.7-4.1s-3.4,3.1-2.3,4.5c1.7,2.1,5-.4,3.5-2.6A2.17,2.17,0,0,0,84,41.5c.6,3.1,4.5,1.5,3.6-1.4a.57.57,0,0,0-.7-.4c-3.9.8-2.7,5.5-.2,3.5,3.3-2.6-2.1-6.7-2.9-3.4-.6,2.9,5,2.4,3.8-.1-1.3-2.7-6.5,2.5-3.1,4.3a.62.62,0,0,0,.7-.1c1.2-1.2.3-3.9-1.7-3.5s-1.7,3.9.4,4.2a1.93,1.93,0,0,0,1.6-3.2c-2.5-2.4-3.9,2.3-3.2,4a.55.55,0,0,0,.5.3c2.5-.1,2.4-2.5,2-4.5a.7.7,0,0,0-.9-.4,2.84,2.84,0,0,0-1,4.5c.2.3.7.4.9.1,1.2-1.3,2.9-5.1-.1-5.4-1.9-.2-3,3-2.3,4.4,2.2,4.2,6-5.2,1.6-5.4-2.1-.1-3.5,4-2.5,5.4s2.9.7,3.4-.9c.4-1.4-1-4.5-2.7-4-2.8.8-1.1,5.1.1,6.3a.58.58,0,0,0,1-.4c.2-1.8.2-5.2-2.4-5.6a2,2,0,0,0-2.3,2.5c.9,3.2,6.7.1,2.9-2.9a.63.63,0,0,0-.9.1,4.54,4.54,0,0,0-.7,4.2c.1.6,1,.5,1.2,0a15.28,15.28,0,0,0,.8-5.2.6.6,0,1,0-1.2,0,2.37,2.37,0,0,0,1.4,2.7.62.62,0,0,0,.9-.7c-1-5-7.7-.7-6.3,3.6a.6.6,0,0,0,1,.3c1.2-1,1.1-.8,1.2-2.4a.59.59,0,0,0-.9-.5,3.83,3.83,0,0,0-2.4,3.4.64.64,0,0,0,.9.7A5.56,5.56,0,0,0,78.6,42c.1-.4-.3-.9-.7-.7a3.19,3.19,0,0,0-2.5,2.9.62.62,0,0,0,.9.7,6.27,6.27,0,0,0,2.5-2.6c.3-.6-.5-1.2-.9-.7a8.47,8.47,0,0,0-2.3,4.5.62.62,0,0,0,1,.6,10.47,10.47,0,0,0,3-5.9.62.62,0,0,0-.9-.7A3.41,3.41,0,0,0,77,44.2a.6.6,0,0,0,1,.3,4.1,4.1,0,0,0,1.4-3.1c0-.5-.7-.8-1-.4a4.74,4.74,0,0,0-1.8,3,.55.55,0,0,0,.3.5c.2.2.5.3.7.5a.64.64,0,0,0,.6,0c1.5-.9,1.5-1.7.7-3.3a.52.52,0,0,0-.9-.1c-.9.8-3.9,3.7-1.7,4.8s3.2-3.6,3.3-4.8c.1-.5-.7-.8-1-.4a14.75,14.75,0,0,0-2.7,4.7.61.61,0,0,0,1.1.5c.6-1,3.7-4.5,2.6-5.9-1.3-1.6-3.2,1-3.9,1.8.3.2.6.5.9.7,1.1-.9,2.2-1.9,3.3-2.8a.62.62,0,0,0-.3-1.2c-.5.1-1.1.3-1.6.4l.3,1.2c.5-.2,1-.3,1.5-.5-.2-.4-.3-.7-.5-1.1a10.9,10.9,0,0,0-4.7,4.8c.3.2.7.4,1,.6.5-1,.9-2,1.4-3,.3-.7-.7-1.3-1-.6-1,1.9-3.1,4.4-1.8,6.4a.57.57,0,0,0,1,0c.9-1.5.8-1,.8-2.8a.62.62,0,0,0-1.2-.2c-1.5,5.1,5.4,5.5,5.7,1.2a.62.62,0,0,0-1.2-.2c-.6,1.7-.6,1.2,0,2.9a.64.64,0,0,0,1,.3A7.52,7.52,0,0,0,83,43.8c.1-.5-.6-1.1-1-.6A6.58,6.58,0,0,0,80.1,47c-.1.6.7,1.1,1.1.5a12.49,12.49,0,0,0,1.7-4.3c.1-.5-.6-1.1-1-.6a9.43,9.43,0,0,0-2.2,3.9c-.2.6.8,1.1,1.1.5a9.77,9.77,0,0,0,1.3-4.7c0-.5-.7-.8-1-.4a13.45,13.45,0,0,0-3.6,6.6c-.1.4.3.9.7.7a70.93,70.93,0,0,0,8.7-4.4c-.2-.3-.5-.6-.7-.9a83,83,0,0,1-10,6.7c-.6.3-.2,1.3.5,1.1a21.37,21.37,0,0,0,10.1-7.4c.4-.5-.5-1.2-.9-.7-.9.9-1.8,1.9-2.6,2.8-.5.6.3,1.4.8.8.3-.3.6-.5.9-.8.5-.5-.2-1.4-.7-.9-1.9,1.4-3.8,2.8-5.7,4.1a.58.58,0,0,0,.6,1c2.5-1.3,4.6-2.6,5.9-5.2a.58.58,0,0,0-1-.6A15.65,15.65,0,0,1,77.4,50c.2.3.4.7.6,1a8.4,8.4,0,0,0,2.4-1.8.61.61,0,0,0-.6-1,9.73,9.73,0,0,0-2.3,1.1c.2.3.4.7.6,1l1.2-.9c-.2-.3-.5-.6-.7-.9a10.19,10.19,0,0,1-3,2.1l.8.8a35.54,35.54,0,0,0,3.2-5.3c.2-.5-.3-1.2-.8-.8a7.56,7.56,0,0,0-3,3.8c-.3.6.6.9,1,.6,3.3-2.6-3.8-4.4-1.8,0,.3.6,1.1.2,1.1-.3.1-.7.1-1.3.2-2s-.9-.8-1.1-.3a13.24,13.24,0,0,1-2,3.2c.3.2.7.4,1,.6.8-1.1,1.5-2.3,2.3-3.4a.58.58,0,0,0-.4-1c-4.5-.2-3.3,5.9-3.3,8.8a.59.59,0,0,0,1.1.3c.7-1,.6-.6.8-1.8H73.5c.1.3.1.5.2.8a.59.59,0,0,0,1.1.1,15.5,15.5,0,0,0,1.4-6c0-.6-.9-.8-1.1-.3a10.53,10.53,0,0,0-1.2,6.3.62.62,0,0,0,1.2.2,39.82,39.82,0,0,0,1.7-5.6c-.4-.1-.8-.1-1.2-.2A28.8,28.8,0,0,1,75,55a.62.62,0,0,0,1.2.3c.4-1,.8-2.1,1.1-3.1l-1.2-.3a17,17,0,0,1-1.8,4.4l1.1.3v-.9a.62.62,0,0,0-1.2-.2c-.4.8-.7,1.6-1.1,2.3.4.2.7.3,1.1.5,0-.2.1-.4.1-.6A.55.55,0,0,0,74,57c-.1,0-.2-.1-.3-.1a.62.62,0,0,0-.7.1l-.2.2c.3.2.7.4,1,.6a11.15,11.15,0,0,0,.9-4.1c0-.7-.9-.7-1.2-.2a18.11,18.11,0,0,0-1,11c.2.8,1.3.4,1.2-.3a10.52,10.52,0,0,1,.4-7,3.92,3.92,0,0,0,.8-1c0-.3.3-.7.2-1a1.62,1.62,0,0,0-1.2-1.5.67.67,0,0,0-.7.3c-.8,1.4-.7,1.2-.4,2.9.1.6,1,.5,1.2,0,.6-2.1,1.3-4.2,1.9-6.4-.7-1.4-1.9-1.7-2.1-1Z" transform="translate(-69.8 -23.8)"/><path class="cls-1" d="M73,50.9h0c-.3-.2-.5-.4-.8-.6a2.44,2.44,0,0,1,0,1.2c.4-.1.8-.1,1.2-.2,0-.3.1-.6.1-.9-.4-.1-.8-.1-1.2-.2a6.6,6.6,0,0,1,.1,1.4.62.62,0,0,0,1.2.2,40.67,40.67,0,0,1,3.3-6.6c-.4-.2-.7-.3-1.1-.5a5.42,5.42,0,0,1-.9,2.4c.4.2.7.3,1.1.5a7.41,7.41,0,0,1,1.3-3c1.1-1.3-.3,1.6-.5,2l1.2.3a3.56,3.56,0,0,1,2.5-2.4l-.7-.7a2.26,2.26,0,0,1-2.4,1.8,3.92,3.92,0,0,1,1-.8c.4-.3,2.3-1.6,1.3-.2a.57.57,0,0,0,.9.7,6.57,6.57,0,0,1,1.7-1.2c-.2-.3-.5-.6-.7-.9-.6.9-1.1,1.7-1.7,2.6-.4.6.5,1.1.9.7L83,44.6l-.8-.8c-.4.5-.8,1-1.2,1.6s.3,1.4.8.8L84.7,43c.5-.6-.3-1.4-.8-.8-1,1-2,2.1-2.9,3.2l.8.8c.4-.5.8-1,1.2-1.6s-.2-1.4-.8-.8L80,45.7c.3.2.6.5.9.7a23.26,23.26,0,0,0,1.7-2.6.62.62,0,0,0-.7-.9,11.36,11.36,0,0,0-2.3,1.5c.3.2.6.5.9.7a6.37,6.37,0,0,0,1-1.8c.1-.3-.1-.5-.3-.7-1.6-1.2-5,1.6-5.7,3a.64.64,0,0,0,0,.6c1.5,2.1,4.4-.6,5.1-2.2a.54.54,0,0,0-.7-.7,5.25,5.25,0,0,0-3.3,3.2c-.3.7.9,1,1.2.3s1.5-3.9-.2-4.2-2.7,3.5-3,4.5a.61.61,0,0,0,1.1.5,8.8,8.8,0,0,0,1-2.7c.1-.6-.7-1.1-1.1-.5a47.94,47.94,0,0,0-3.4,6.8c.4.1.8.1,1.2.2a6.6,6.6,0,0,0-.1-1.4.62.62,0,0,0-1.2-.2c-.3.7-.2.7-.1,1.5s1.1.5,1.2-.2a4.82,4.82,0,0,0,0-1.2.64.64,0,0,0-.8-.6.94.94,0,0,0-.7.5c0,1.2,1,1.8,1.3,1.1Z" transform="translate(-69.8 -23.8)"/><path class="cls-1" d="M79,38.9c.1-.7.1-1.3.2-2s-1.1-.8-1.2-.2a1.76,1.76,0,0,1-.6,1.3l1.1.3c0-1,1-1.8,1.1-2.9,0-.5-.7-.8-1-.4a5.72,5.72,0,0,1-.7.8c-.5.6.3,1.4.8.8a21,21,0,0,1,3.6-3.7c1.8-1.2,4.8-.5,6.8,0,.7.2,1.1-1,.3-1.2-2-.5-4.6-1.2-6.7-.5s-3.5,2.9-4.8,4.4l.8.8a5.72,5.72,0,0,1,.7-.8c-.3-.1-.7-.3-1-.4-.1,1.1-1.1,1.7-1.1,2.9a.59.59,0,0,0,1.1.3,2.93,2.93,0,0,0,.7-1.6,1.38,1.38,0,0,1-1.1.1c-.1.7-.1,1.3-.2,2s1.1.7,1.2,0Z" transform="translate(-69.8 -23.8)"/><path class="cls-1" d="M81.9,38.3a3.82,3.82,0,0,1,2-2.3c-.3-.2-.6-.5-.9-.7a4.17,4.17,0,0,1-.9,1.6c-.4-.2-.3-.5.5-.9.3-.2.5-.5.8-.7-.6-.1-.9.2-1.1,1a5.5,5.5,0,0,1-.9.7c-.5.4-.5,0,.2-1.1a2.34,2.34,0,0,0-1.2,1c.1-.6-.2-.5-.7.2.2.1.4.3.6.4a2.48,2.48,0,0,1,1.6-1.4l-.7-.7a3.67,3.67,0,0,1-.9,2c.3,0,.6.1.9.1-.2-.2.4-1.3.6-1.5s1.2-1.7.7-1,.3-.4.3-.3c.3,0,.2.1-.2.4q-.45.75-.3,0c-.2-.1-.4-.3-.6-.4.1.7-2.1,1.5-2.6,1.7.3.2.6.3.9.5.1-1.1,2.1-2.6,2.9-3a7.32,7.32,0,0,1,3.6-.1V32.6a24.1,24.1,0,0,1-3.8,0v1.2c1.9.2,3.8.4,5.7.5.7.1.8-1.1.2-1.2l-4-.6c-.1.4-.1.8-.2,1.2a25.75,25.75,0,0,1,4,.8c.1-.4.1-.8.2-1.2a6.41,6.41,0,0,1-3.6-.6c.1.3.1.5.2.8.5-.7,3-.2,3.7-.1.4.1.7-.2.8-.6a.88.88,0,0,0-.8-1.1.62.62,0,0,0-.6,1c.2.2-4,3-4.4,3.2.3.2.6.5.9.7a5.66,5.66,0,0,1,1.8-2.8c-.3-.2-.7-.4-1-.6a6.63,6.63,0,0,1-1.3,3.1c.3-.1.5-.1.8-.2a1.79,1.79,0,0,0,.3-1.7c-.2.5-.4.9-.6,1.3-.1,0,1.1-2.1.4.1-.8,2.5-.4,0,0-.6a13.93,13.93,0,0,1,1.5-1.9c.5-.6-.6-1.2-1-.6-.9,1.2-3.2,3.3-1.7,5,.9,1,1.8-.1,2.2-1s.8-3.4-.8-3.2-2.3,2.6-2,3.8c.1.2.2.4.4.4,1.5.3,4-3.3,2.3-4.2-1.5-.9-3.1,3-1.6,3.8a.54.54,0,0,0,.8-.2,7.26,7.26,0,0,0,1.4-3.4.61.61,0,0,0-1-.6,7.21,7.21,0,0,0-2.1,3.3.62.62,0,0,0,.9.7c1.4-1,3.5-1.9,4.6-3.2a1.34,1.34,0,0,0,0-2c-.2.3-.4.7-.6,1h-.1c.3-.2.5-.4.8-.6-1.5-.3-4-.8-5,.6a.54.54,0,0,0,.2.8,6.85,6.85,0,0,0,4.2.7c.6-.1.9-1,.2-1.2-1.4-.3-2.9-.6-4.3-.8-.7-.1-.8,1.1-.2,1.2l4,.6c.1-.4.1-.8.2-1.2-1.9-.2-3.8-.4-5.7-.5-.8-.1-.8,1.1,0,1.2a24.1,24.1,0,0,0,3.8,0,.6.6,0,1,0,0-1.2c-2-.1-3.4-.5-5.2.8-1,.8-2.4,2.1-2.6,3.5a.59.59,0,0,0,.9.5c1.2-.6,3.5-1.3,3.2-3,.1-.2-.2-.3-.4-.3-1.6-.2-2.6,2.3-.9,3s3.4-2,2.8-3.3a.55.55,0,0,0-.5-.3c-1.3-.2-4.2,1.9-2.7,3.3s3.2-1.6,3-2.9a.43.43,0,0,0-.4-.4c-1.7-.3-4.3,3.3-3.3,4.8.2.3.7.4.9.1a5.68,5.68,0,0,0,1.2-2.6c.1-.4-.3-.9-.7-.7-1,.4-3,1.5-2.4,2.9a.55.55,0,0,0,.6.4c1.1.1,2.8-1,2.5-2.2s-1.6-1-2.4-.5-1.6,1.7-.7,2.5c1.1,1,3-.7,3.4-1.7,1.3-2.7-3.8-1.6-3,1,.8,2.9,5.1-.7,4.6-2.8a.43.43,0,0,0-.4-.4c-1.4-.4-4.1,2.6-3.3,4,1.2,2,3.4-1.7,3.7-2.6.2-.5-.4-.9-.9-.7A5.33,5.33,0,0,0,81,38c-.5.7.7,1,.9.3Z" transform="translate(-69.8 -23.8)"/><path class="cls-1" d="M87.6,33.4a2.7,2.7,0,0,1,1.6-2.2c.6-.3.2-1.3-.5-1.1a3.29,3.29,0,0,0-1.3.7c-.6.4-.1,1.5.6,1a11.67,11.67,0,0,1,12.8.1c.6.4,1.2-.6.6-1a12.72,12.72,0,0,0-14-.1c.2.3.4.7.6,1a5.36,5.36,0,0,1,1.1-.5c-.2-.4-.3-.7-.5-1.1-1.5.8-2.5,1.8-2.1,3.6.1.7,1.3.3,1.1-.4Z" transform="translate(-69.8 -23.8)"/><path class="cls-1" d="M101.1,29c-.5-.5-1.1-1-1.6-1.5-.2-.6-.9-.6-1.2,0a1.79,1.79,0,0,0,.2,2.2c.4.5,1.3-.2.9-.7-1.2-2.2,3.5-3.1,4.4-3.1a7.3,7.3,0,0,1,3.8,1.1.58.58,0,0,0,.6-1,18.34,18.34,0,0,0-2.4-1.3c-.6-.3-1.1.8-.5,1.1,2.6,1.1,3.4,3.5,5.4,5.2.5.4,1.3-.1.9-.7-.7-1.3-1.5-2.6-2.2-3.8-.3.2-.6.5-.9.7,1.2,1.2,2.3,2.4,3.4,3.7l.8-.8a29.11,29.11,0,0,1-2.7-2.4.57.57,0,0,0-.9.7c.8,1.3,1.7,2.5,2.6,3.7l.8-.8c-.6-.4-1.1-.9-1.7-1.3l-.8.8a10.48,10.48,0,0,1,2.2,2l.8-.8a6.48,6.48,0,0,1-1.6-1.7l-.8.8a7.64,7.64,0,0,1,2.3,1.7c.5.6,1.4-.3.8-.8a9.2,9.2,0,0,0-2.5-1.9c-.5-.2-1.2.3-.8.8a6.49,6.49,0,0,0,1.8,1.9c.6.5,1.4-.3.8-.8a26.22,26.22,0,0,0-2.5-2.2.57.57,0,0,0-.8.8,5,5,0,0,0,2.1,1.7c.5.2,1.2-.3.8-.8-.9-1.2-1.8-2.4-2.6-3.7-.3.2-.6.5-.9.7.9.8,1.7,1.6,2.7,2.4a.57.57,0,1,0,.8-.8,29.84,29.84,0,0,0-3.4-3.7.57.57,0,0,0-.9.7c.8,1.3,1.5,2.5,2.2,3.8.3-.2.6-.5.9-.7-2.2-1.9-2.7-4.2-5.6-5.4-.2.4-.3.7-.5,1.1a7.19,7.19,0,0,1,2.1,1.2c.2-.3.4-.7.6-1a8.23,8.23,0,0,0-7.3-.7c-1.9.8-3.7,2.2-2.5,4.3.3-.2.6-.5.9-.7,0-.3.1-.7.1-1H98a3.75,3.75,0,0,0,2.5,2.4c1.1,0,1.4-1.2.6-1.4Z" transform="translate(-69.8 -23.8)"/><path class="cls-1" d="M102.1,30.6c-1.1-1.2-.8-1.7.9-1.4.3,1-.3,1.4-1.8,1.1q-.15-2.85,1.5-.6a1.32,1.32,0,0,1-2.3.1c.8-.7,1-.7.4-.3-.4.1-.5,0-.5-.3a3.1,3.1,0,0,1,.6-1.3c.2-.7.2-.7-.1-.2.3-.2.4-.7.1-.9h0a.52.52,0,0,0-.8,0h0a.6.6,0,0,0,.3,1c.5.2,1.2-.1,1.7-.2l3.1-.6c-.2-.4-.3-.7-.5-1.1a7,7,0,0,1-2.9.4c-.7,0-.8,1.1-.2,1.2,1.6.3,3.4-.4,4.9.3.1-.4.1-.8.2-1.2a20.24,20.24,0,0,1-4.3-.5v1.2a9.38,9.38,0,0,1,4.7.2c.1-.4.1-.8.2-1.2a6.55,6.55,0,0,1-2.8-.3c-.1.4-.1.8-.2,1.2a18.41,18.41,0,0,1,3.3.3V26.3c-2,.3-4.4-.3-6.4-.5.1.4.1.8.2,1.2a7.25,7.25,0,0,1,5.6.2c.1-.4.2-.7.3-1.1-1,0-3.6-.5-4.3.6s1.1,1.7,1.8,2,1.3-.7.6-1c-.3-.1-.5-.3-.8-.4-.5-.2-.4-.1,0,0a22.53,22.53,0,0,0,2.6,0c.6,0,.9-.9.3-1.1a8.17,8.17,0,0,0-6.5-.3c-.7.2-.5,1.1.2,1.2,2.1.2,4.6.9,6.7.5.6-.1.6-1,0-1.2a22,22,0,0,0-3.6-.4.62.62,0,0,0-.2,1.2,6.5,6.5,0,0,0,3.1.4.62.62,0,0,0,.2-1.2,9.54,9.54,0,0,0-5.3-.2c-.6.1-.5,1,0,1.2a17.59,17.59,0,0,0,4.6.6.62.62,0,0,0,.2-1.2c-1.6-.7-3.3,0-4.9-.3-.1.4-.1.8-.2,1.2a8.28,8.28,0,0,0,3.5-.5c.6-.3.2-1.2-.5-1.1a14.35,14.35,0,0,1-2.2.4c-.5.1-1.5.5-2,.3.1.3.2.7.3,1h-.8c0-.3.1-.6.1-.9-.8.6-1.8,1.7-.9,2.7a1.71,1.71,0,0,0,2.7-.8c.3-.7.4-1.8-.4-2.2-1.3-.7-2.3,1.6-2.5,2.5-.8,3.1,3.2,2,2.9-.4a1.51,1.51,0,0,0-2.1-1.2,2.44,2.44,0,0,0-.2,3.2c1.5,1.6,4.3-2.5,2-3.6-2.5-1.1-3.8,3.3-1.3,4.4s5.1-2.5,2.8-4.1-4.3,2.7-2.7,4.4c2.3,2.5,5.2-2.4,2.6-4.2s-4.6,4.3-1.2,4.3c1-.1,1-1.3.2-1.3Z" transform="translate(-69.8 -23.8)"/><path class="cls-1" d="M114.5,33.9c-.1-.7,1.2-1.6,1.6-2.1s-.3-1.1-.8-.8l-1.2.6c.2.3.4.7.6,1a16.44,16.44,0,0,1,2.2-1.4c.4-.2.8-.3.9-.8a.67.67,0,0,0-.3-.7.1.1,0,0,1-.1-.1.52.52,0,0,0-.8.2.84.84,0,0,0,.3,1.2c.6.4,1.2.4,1.7.9a6.69,6.69,0,0,1,1.4,1.9.58.58,0,1,0,1-.6,16.65,16.65,0,0,0-1.8-2.8c-.3.2-.6.5-.9.7,1,1,2,2,2.1,3.4l1.1-.3c-1.2-2.5-3.8-4.6-6.7-3.5a.64.64,0,0,0,0,1.2c1.3.3,2.6-.1,3.8.4V31.1a6.9,6.9,0,0,1-2.5.4v1.2a5.83,5.83,0,0,1,2.6.6c.1-.4.2-.7.3-1.1a1.74,1.74,0,0,1-1.4-.5c-.1.4-.2.7-.3,1.1a4.93,4.93,0,0,1,2.3.6c.1-.4.2-.7.3-1.1-.3,0-.6-.1-.9-.1-.7-.3-1.3.7-.6,1a4.15,4.15,0,0,0,1.6.3.58.58,0,0,0,.3-1.1,7.4,7.4,0,0,0-2.9-.8.59.59,0,0,0-.3,1.1,3.61,3.61,0,0,0,2,.6c.6,0,.9-.9.3-1.1a9.41,9.41,0,0,0-3.2-.8.6.6,0,1,0,0,1.2,6.58,6.58,0,0,0,2.8-.4c.6-.2.5-.9,0-1.2-1.2-.5-2.5,0-3.8-.4v1.2c2.4-1,4.3.9,5.3,2.9.3.5,1.2.3,1.1-.3-.1-1.8-1.2-3.1-2.5-4.3-.5-.5-1.4.2-.9.7a22,22,0,0,1,1.8,2.8c.3-.2.7-.4,1-.6a6.84,6.84,0,0,0-3.8-3.3l.4.4v.2c-.3.1-.5.1-.8.2a.1.1,0,0,1,.1.1c-.1-.2-.2-.5-.3-.7a4.45,4.45,0,0,0-1.2.6,12.13,12.13,0,0,0-1.4,1c-.6.5-.1,1.4.6,1l1.2-.6-.8-.8c-.8,1.1-2,1.5-1.7,3.1.2.7,1.4.4,1.2-.3Z" transform="translate(-69.8 -23.8)"/><path class="cls-1" d="M116,31.2c.4.2.4.1.8-.2a5.94,5.94,0,0,1,.8-.4,2,2,0,0,1,1.5,0c.7.4,1.3-.7.6-1-1.2-.7-2.5-.2-3.6.4-.5.3-1,.6-1.1,1.2a1,1,0,0,0,.7,1.1c.7.4,1.1-.8.3-1.1Z" transform="translate(-69.8 -23.8)"/><path class="cls-1" d="M120.9,36.8c.3-.1,1.5.9,1.6,1a7.1,7.1,0,0,1,1.2,1.3c.4.6,1.2-.2.9-.7a6.78,6.78,0,0,0-2.5-2.8.57.57,0,0,0-.7.9,9.42,9.42,0,0,1,2.8,3.8c.3-.2.7-.4,1-.6a55,55,0,0,0-5.4-5.4c-.2.3-.4.7-.6,1a6.9,6.9,0,0,1,2.8,2l.8-.8a13.12,13.12,0,0,1-2.4-2.8l-.8.8a23.07,23.07,0,0,0,1.9,1.4c.4.3,1-.2.9-.7a4.24,4.24,0,0,0-.6-1.4l-.8.8a1.12,1.12,0,0,1,.7.8c.3-.2.7-.4,1-.6-.2-.3-.5-.5-.7-.8-.2.3-.5.6-.7.9l1.1.8c.6.5,1.2-.6.6-1s-1.4-1.1-2.1-1.6c-.2.4-.3.7-.5,1.1a3.07,3.07,0,0,1,1.8,1.1c.4.6,1.5,0,1-.6a3.7,3.7,0,0,0-2.5-1.7.62.62,0,0,0-.5,1.1c.7.5,1.4,1.1,2.1,1.6.2-.3.4-.7.6-1l-1.1-.8a.57.57,0,0,0-.7.9c.2.3.5.5.7.8a.61.61,0,0,0,1-.6,2.17,2.17,0,0,0-1.3-1.5c-.5-.3-1.2.3-.8.8a5.36,5.36,0,0,1,.5,1.1c.3-.2.6-.5.9-.7a23.07,23.07,0,0,0-1.9-1.4.57.57,0,0,0-.8.8,18.67,18.67,0,0,0,2.6,3,.57.57,0,0,0,.8-.8,7.62,7.62,0,0,0-3.3-2.3.61.61,0,0,0-.6,1,68.78,68.78,0,0,1,5.4,5.4.6.6,0,0,0,1-.6,10.43,10.43,0,0,0-3.1-4.4c-.2.3-.5.6-.7.9a6.11,6.11,0,0,1,2.1,2.4c.3-.2.6-.5.9-.7-.9-1.1-2.7-3.3-4.3-2.6-.6.6,0,1.7.7,1.4Z" transform="translate(-69.8 -23.8)"/><path class="cls-1" d="M124.8,44.8a4.53,4.53,0,0,1-1.5-2.1c-.3.2-.6.5-.9.7a5.73,5.73,0,0,1,3.1,3.2c.3-.2.6-.5.9-.7a9.36,9.36,0,0,1-2.3-4.4c-.4.2-.7.3-1.1.5a18.46,18.46,0,0,1,2.4,4,3.55,3.55,0,0,1,.4-.9c-2.7.4-4.5-.3-6.7-1.8a.57.57,0,0,0-.7.9,3.27,3.27,0,0,0,1.9,1.2c.6.2,1.1-.8.5-1.1-1.3-.6-1.5-2.3-2.5-3.3a.61.61,0,0,0-1,.6,8.49,8.49,0,0,0,.9,2.2c.3-.2.6-.5.9-.7l-1-1a.57.57,0,0,0-.8.8c.1.2.3.3.4.5.4.5,1.3-.2.9-.7a16.38,16.38,0,0,0-2.9-3.6c-.2.3-.5.6-.7.9a20,20,0,0,1,6.1,5.5c.3-.2.6-.5.9-.7a21.29,21.29,0,0,1-3.3-3.4l-.8.8a39.41,39.41,0,0,1,5.3,3.8c.2-.3.5-.6.7-.9a14.43,14.43,0,0,1-3.2-2.3c-.2.3-.5.6-.7.9a19.62,19.62,0,0,1,4.5,3c.2-.3.5-.6.7-.9a3.64,3.64,0,0,1-1.6-1.4l-.8.8a7.63,7.63,0,0,1,2.5,1.8.61.61,0,0,0,1-.6c-.1-.2-.1-.5-.2-.7-.3.2-.6.5-.9.7a2.81,2.81,0,0,0,1.5.6.65.65,0,0,0,.6-.6v-.1a.58.58,0,0,0-.6-.6h-.1a.59.59,0,0,0-.5.9c0,.3.1.7.1,1a3.55,3.55,0,0,0,.9-.4c-.2-.1-.3-.2-.5-.3-.6-.4-1.2.6-.6,1,.2.1.3.2.5.3a.63.63,0,0,0,.9-.4,2.54,2.54,0,0,0-.2-1.9c-.2.3-.3.6-.5.9h.1l-.6-.6v.1l.6-.6c-.3-.1-.6-.3-.9-.4a.62.62,0,0,0-.9.7c.1.2.1.5.2.7.3-.2.7-.4,1-.6a8,8,0,0,0-2.8-2c-.5-.2-1.2.3-.8.8a5.2,5.2,0,0,0,2.1,1.8c.6.3,1.3-.5.7-.9a19.16,19.16,0,0,0-4.8-3.2c-.6-.3-1.3.5-.7.9a19.78,19.78,0,0,0,3.4,2.5c.6.3,1.3-.5.7-.9a30.93,30.93,0,0,0-5.5-4c-.5-.3-1.2.3-.8.8a17.1,17.1,0,0,0,3.5,3.6c.5.4,1.4-.1.9-.7a21.56,21.56,0,0,0-6.5-5.9c-.6-.3-1.2.5-.7.9a21.58,21.58,0,0,1,2.7,3.3c.3-.2.6-.5.9-.7-.1-.2-.3-.3-.4-.5l-.8.8,1,1a.57.57,0,0,0,.9-.7,6.39,6.39,0,0,1-.8-1.9c-.3.2-.7.4-1,.6,1.1,1.1,1.2,2.8,2.8,3.5.2-.4.3-.7.5-1.1-.5-.3-.9-.6-1.4-.9-.2.3-.5.6-.7.9a10,10,0,0,0,7.6,1.9.7.7,0,0,0,.4-.9,23.55,23.55,0,0,0-2.4-4,.62.62,0,0,0-1.1.5,9.39,9.39,0,0,0,2.6,4.9.57.57,0,0,0,.9-.7,6.68,6.68,0,0,0-3.6-3.6c-.4-.2-1.1.1-.9.7a4.93,4.93,0,0,0,1.9,2.6c.5.6,1.4-.3.8-.7Z" transform="translate(-69.8 -23.8)"/><path class="cls-1" d="M123.6,47a4,4,0,0,0-1.1-2c-.2.3-.5.6-.7.9a.67.67,0,0,1,.4.7l.7-.7c-1.5-.3-2.8-1.8-3.9-2.7-.6-.5-1.4.3-.8.8s1.1,1.2,1.7,1.8c.1-.3.2-.7.3-1a.55.55,0,0,1-.6-.4c-.2-.7-1.4-.4-1.2.3a1.8,1.8,0,0,0,2.1,1.3c.5-.1.5-.7.3-1-.6-.6-1.1-1.2-1.7-1.8l-.8.8c1.3,1.1,2.7,2.6,4.4,3a.57.57,0,0,0,.7-.7,2,2,0,0,0-1-1.4.57.57,0,0,0-.7.9,3.61,3.61,0,0,1,.8,1.5c.1.7,1.2.4,1.1-.3Z" transform="translate(-69.8 -23.8)"/><path class="cls-1" d="M93.5,44.7a4.37,4.37,0,0,1-1.8.9l.3,1.2a6.5,6.5,0,0,0,3.9-3.2l-1.1-.3a2.1,2.1,0,0,1-.7,1.4c-.5.6.3,1.4.8.8A11.78,11.78,0,0,0,96.8,43c.3-.6.9-3,1.7-2.9-.1-.4-.2-.7-.3-1.1a7.38,7.38,0,0,0-2.5,2.1c-.8,1.2-1.4,2.5-2.2,3.6a8.79,8.79,0,0,0,1,.6c.3-1.6.7-3.3,1-4.9H94.3c.1.7.2,1.5.3,2.2s1,.5,1.2,0a13,13,0,0,1,.8-1.7c-.4,0-.7-.1-1.1-.1,0,.2-.1.3-.1.5.4,0,.7.1,1.1.1-.2-.6,2.1-2.8,2.7-2.7a.62.62,0,0,0,.3-1.2c-1.2-.2-1.8.5-2.6,1.3s-1.9,1.7-1.5,2.9a.59.59,0,0,0,1.1.1,1.82,1.82,0,0,0,.3-1.4.59.59,0,0,0-1.1-.1,12.45,12.45,0,0,0-1,2h1.2c-.1-.7-.2-1.5-.3-2.2s-1-.6-1.2,0c-.3,1.6-.7,3.3-1,4.9-.1.5.6,1.1,1,.6a20.71,20.71,0,0,0,1.7-2.4A6.69,6.69,0,0,1,99,40.1a.59.59,0,0,0-.3-1.1,1.72,1.72,0,0,0-1.8,1.3,12.23,12.23,0,0,1-2.6,4.4l.8.8a3.36,3.36,0,0,0,1.1-2.3.59.59,0,0,0-1.1-.3,5.18,5.18,0,0,1-3.2,2.6c-.7.2-.4,1.4.3,1.2a6.32,6.32,0,0,0,2.3-1.2c.4-.4-.5-1.3-1-.8Z" transform="translate(-69.8 -23.8)"/><path class="cls-1" d="M85.4,44.1a8.47,8.47,0,0,0,1.7-.4c-.2-.4-.3-.7-.5-1.1-.5.2-.9.5-1.4.7s-.2,1.2.5,1.1c1-.2,2.1-.5,3.1-.7l-.3-1.2a5.79,5.79,0,0,0-2.1.7c-.7.3-.4,1.4.3,1.2A43,43,0,0,0,95,40.9c-.2-.3-.4-.7-.6-1A11.54,11.54,0,0,1,89,42.3l.3,1.2a48.75,48.75,0,0,0,8-3.8c-.3-.2-.6-.5-.9-.7-.2.4-.3.8-.5,1.2a.62.62,0,0,0,.9.7c2.4-1.7,4.6-3.2,8-2.4V37.3a20.8,20.8,0,0,1-5,.7c.1.4.2.7.3,1.1,2,.1,3.9.3,5.9.4.2-.4.3-.7.5-1.1l-3.5-.9c-.1.4-.1.8-.2,1.2,2,0,3.2,1.5,5,1.8,2.5.4,3.8-1.4,7.2-.9a.62.62,0,0,0,.3-1.2,19.12,19.12,0,0,0-9.5-.5c-.7.1-.5,1.2.2,1.2,1.3-.1,2.7-.3,4-.4.8-.1.8-1.3,0-1.2a17,17,0,0,1-3.9.1.62.62,0,0,0-.2,1.2,8.08,8.08,0,0,0,2.2.7c.8.2,1-.9.3-1.2-.5-.2-1-.3-1.5-.5l-.3,1.2a4.92,4.92,0,0,1,2,.5c.6.2,1.1-.8.5-1.1a5.44,5.44,0,0,1-1.8-1.1c-.1.4-.2.7-.3,1.1h2.1V37.2c-.2,0-.5.1-.7.1-.7.1-.5,1.1.2,1.2a14.77,14.77,0,0,0,2.1.1.6.6,0,1,0,0-1.2,7.41,7.41,0,0,1-2.1-.1c.1.4.1.8.2,1.2.2,0,.5-.1.7-.1a.63.63,0,0,0,0-1.2,6.47,6.47,0,0,0-2.4-.1.6.6,0,0,0-.3,1.1,8.71,8.71,0,0,0,1.8,1.1c.2-.4.3-.7.5-1.1a4.55,4.55,0,0,0-2-.5.62.62,0,0,0-.3,1.2c.5.2,1,.3,1.5.5l.3-1.2a8.08,8.08,0,0,1-2.2-.7c-.1.4-.1.8-.2,1.2a17,17,0,0,0,3.9-.1V37.4c-1.3.1-2.7.3-4,.4.1.4.1.8.2,1.2a17.51,17.51,0,0,1,8.8.5l.3-1.2c-2.6-.4-5.6,1.1-7.9.5-1.7-.4-2.5-1.5-4.5-1.5a.62.62,0,0,0-.2,1.2l3.5.9a.61.61,0,0,0,.5-1.1,6.34,6.34,0,0,0-7.1-.4c-.5.3-.3,1.2.3,1.1a33.53,33.53,0,0,0,5.4-.8c.6-.1.6-1,0-1.2-3.5-.7-6,.6-8.9,2.6.3.2.6.5.9.7.2-.4.3-.8.5-1.2s-.5-.9-.9-.7a45.38,45.38,0,0,1-7.7,3.7.62.62,0,0,0,.3,1.2,11.43,11.43,0,0,0,5.6-2.5c.6-.5.1-1.4-.6-1a46.88,46.88,0,0,1-8,3.4l.3,1.2a12.93,12.93,0,0,1,2.1-.7c.8-.2.4-1.3-.3-1.2-1,.2-2.1.5-3.1.7.2.4.3.7.5,1.1.5-.2.9-.5,1.4-.7s.2-1.2-.5-1.1a8.47,8.47,0,0,0-1.7.4c-.9.2-.6,1.4.1,1.2Z" transform="translate(-69.8 -23.8)"/><path class="cls-1" d="M88.4,43.6a6.47,6.47,0,0,1,2-.4c-.1-.3-.3-.7-.4-1a2.72,2.72,0,0,1-1.6.8c-.6.1-.6,1,0,1.2a3.15,3.15,0,0,0,2.3-.5c.6-.3.2-1.4-.5-1.1a2.28,2.28,0,0,1-1.1.3l.3,1.2c1.3-.3,2.6-.7,3.8-1,.7-.2.4-1.3-.3-1.2-1.3.3-2.6.7-3.8,1-.8.2-.4,1.3.3,1.2.4-.1.8-.2,1.1-.3-.2-.4-.3-.7-.5-1.1a2.12,2.12,0,0,1-1.4.4v1.2a4.27,4.27,0,0,0,2.1-1.1.6.6,0,0,0-.4-1,6.35,6.35,0,0,0-2.3.5c-.6,0-.3,1.1.4.9Z" transform="translate(-69.8 -23.8)"/><path class="cls-1" d="M108.5,39.3a10.76,10.76,0,0,0,3.1-.7c-.2-.3-.4-.7-.6-1a4,4,0,0,1-1.5.6c.1.4.2.7.3,1.1a7.5,7.5,0,0,1,4.9-.4c.7.2,1.1-1,.3-1.2a8.85,8.85,0,0,0-5.8.5c-.5.2-.3,1.2.3,1.1a5.22,5.22,0,0,0,2.1-.7.58.58,0,0,0-.6-1,10.15,10.15,0,0,1-2.5.6c-.8-.1-.8,1.1,0,1.1Z" transform="translate(-69.8 -23.8)"/><path class="cls-1" d="M107.9,34.5,106.4,30a12.25,12.25,0,0,0-1.9-.2,3.48,3.48,0,0,1,3.9,1.6,5.6,5.6,0,0,1-1-2.9,14.62,14.62,0,0,1-2,.5,15,15,0,0,1,4.4,5.6c.5-.6.9-1.2,1.4-1.8a7.31,7.31,0,0,1-3.8-2.4c-.5.6-1,1.3-1.5,1.9a16.24,16.24,0,0,1,6,6.2c.5-.6.9-1.2,1.4-1.8a11.28,11.28,0,0,1-5.4-2.2c-.2.7-.4,1.5-.6,2.2a11.23,11.23,0,0,1,6.4,2.2c.3-.7.6-1.5.9-2.2a5.21,5.21,0,0,1-3.8-1.9,12.25,12.25,0,0,0-.2,1.9c.9-.7,4.5,2.1,5.3,2.7l1.2-2.1c-1.9-1.3-3.7-2.6-5.6-3.9-.2.7-.4,1.5-.6,2.2,2.6,0,5.5,3,7.6,4.5l1.2-2.1a33.49,33.49,0,0,1-6.6-5.8c-.5.6-1,1.3-1.5,1.9a55.32,55.32,0,0,1,8.4,5.1l1.2-2.1a70.08,70.08,0,0,1-7.5-4.4c-.3.7-.6,1.5-.9,2.2.9.3,1.9.7,2.8,1s1.4-.4,1.5-1.2c.3-.3.5-.7.8-1-.3-.7-.6-1.5-.9-2.2a2.77,2.77,0,0,1-.9-.1c.1.5.3,1.1.4,1.6l3.9,6,2.1-1.2c-1.1-1.5-2.2-3-3.3-4.6l-2.1,1.2c1.9,2.6,3.9,5.1,5.8,7.7.6-.5,1.3-1,1.9-1.5a31.64,31.64,0,0,1-4-4.2c-.5.6-1,1.3-1.5,1.9a7.54,7.54,0,0,1,3.3,2.8l1.6-1.6c-1.8-.8-3.6-1.6-5.3-2.3a1.23,1.23,0,0,0-1.5,1.9,35.67,35.67,0,0,0,4.3,4.4c.4-.7.8-1.3,1.2-2-1-.8-2-1.5-3-2.3l-1.6,1.6c1.4.9,2.8,1.8,4.3,2.7.3-.7.6-1.5.9-2.2a23.39,23.39,0,0,1-6.1-3.1c-.2.7-.4,1.5-.6,2.2l1.1.3c.5-.6,1-1.3,1.5-1.9-3.6-2.3-3.2-3.5,1.1-3.7l1.7-1.7-1.8-1.5c-.5.6-1,1.3-1.5,1.9a13.15,13.15,0,0,1,2.5,2.2,14.62,14.62,0,0,0,.5-2c-4,1.3-8.2.9-12.4,1.4-4.9.6-8.4.6-13.2-1.1-1.9-.7-4-1.2-6-.3a11,11,0,0,0-1.4.9,7.63,7.63,0,0,0-.8,1.1c-.5,1.3-1.7,1.9-3.7,1.7.6.5,1.2.9,1.8,1.4,1.5-5,5.6-7.7,10.9-7.3l-.3-2.4c-2.1.8-4.2,1.5-6.3,2.3.3.7.6,1.5.9,2.2a6.57,6.57,0,0,1,5.1-1.6l-.3-2.4c-2.4,1-8.6,4.8-11.1,2.7a14.62,14.62,0,0,0-.5,2l2.4-.3V31.9c-.4,0-.8.1-1.2.1-1.1.1-1.8,1.7-.6,2.2a9,9,0,0,1,4.9,4.7l-.3,2.4a19.21,19.21,0,0,0,7.1-1.5,23,23,0,0,1,6.4-2.3,29.31,29.31,0,0,0,2.9-.5,1.23,1.23,0,0,0-.3-2.4,27.73,27.73,0,0,1-7.5-2L98.1,35a9.88,9.88,0,0,1,5.3,1.5,1.21,1.21,0,0,0,1.2-2.1,52.5,52.5,0,0,1-4.9-3.3c-.3.7-.6,1.5-.9,2.2a18.27,18.27,0,0,1,4.9,2.3l1.2-2.1a18,18,0,0,1-3.9-2.9c-.4.7-.8,1.3-1.2,2,.9.4,1.8.8,2.7,1.3.5-.6,1-1.3,1.5-1.9-2.7-1.2-5.1-3-7.9-1.1-2.4,1.7-3,4.5-2.5,7.2a1.2,1.2,0,0,0,2.3,0c-.1-.7-.1-1.3-.2-2,.6.5,1.2.9,1.8,1.4-.1-.4-.3-.8-.4-1.2a1.26,1.26,0,0,0,1.8,1.4c.8-.3,1.7-.5,2.5-.8a1.2,1.2,0,0,0,0-2.4c-2.4,0-6.1.4-7.7,2.5-.3.4-1.5,3-.2,2.5-.8.3-.7,1.4-.2,1.9.2.2.4.5.6.7.4-.7.8-1.3,1.2-2h0c-.7-1.4-2.7-.2-2.1,1.2a1.77,1.77,0,0,0,1.4,1.1,1.21,1.21,0,0,0,1.2-2c-.2-.2-.4-.5-.6-.7a12.25,12.25,0,0,0-.2,1.9c.2-.1.3-.1.5-.2a1.1,1.1,0,0,0,.6-1c.1-3,2.6-3.4,5.7-3.4V34.6a6,6,0,0,0-3.7,1.1c.6.5,1.2.9,1.8,1.4,1-3.3-3.4-3.2-4.2-.1a1.26,1.26,0,0,0,1.8,1.4,4,4,0,0,0,2-4.6c-.1-.6-.6-.8-1.2-.9-2.7-.3-4.4,4.7-1.5,5.7,3.4,1.2,3.4-4.1,2-5.8a1.25,1.25,0,0,0-1.2-.3c-2.3.8-3.2,2.8-3.6,5.1h2.3c-1.3-7.7,4.9-4.3,6.9-3.4,1.2.5,2.5-.9,1.5-1.9a6.62,6.62,0,0,0-3.7-1.9c-1.1-.2-2.2,1.1-1.2,2a28.08,28.08,0,0,0,4.4,3.3c1.3.8,2.5-1.2,1.2-2.1a18.9,18.9,0,0,0-5.4-2.5,1.2,1.2,0,0,0-.9,2.2,52.5,52.5,0,0,0,4.9,3.3l1.2-2.1a14.84,14.84,0,0,0-6.5-1.9c-1.5-.1-1.5,1.9-.3,2.4a33.11,33.11,0,0,0,8.1,2l-.3-2.4c-1.8.6-3.8.2-5.6.8-3.7,1.2-6,3.4-10.2,3.5-1.3,0-1.7,2.1-.3,2.4,3.1.6,6.2-.7,6.8-4.1.4-2.9-1.2-4.8-3.9-3.2-2,1.2-4,4.9-1.9,6.8,2.5,2.2,5.3-1.5,5.1-4-.5-7.9-11.1,2.8-4.6,4.1,6,1.3,1.4-12.9-3.2-4.3-1,1.9-.6,6.4,2.4,4.7,4.6-2.5-1.4-8-3.7-9.1-.2.7-.4,1.5-.6,2.2.4,0,.8-.1,1.2-.1a1.2,1.2,0,0,0,0-2.4,7.69,7.69,0,0,0-3,.3,1.2,1.2,0,0,0-.5,2c3.9,3.4,9.4-.4,13.4-2.1,1.2-.5,1.1-2.4-.3-2.4a10,10,0,0,0-6.4,2c-1,.7-.4,2.7.9,2.2,2.1-.8,4.2-1.5,6.3-2.3a1.23,1.23,0,0,0-.3-2.4,12.22,12.22,0,0,0-13.2,9.1,1.26,1.26,0,0,0,1.8,1.4c1.2-.8,1.4-.9,1.7-2.3a1.34,1.34,0,0,0-.6-1.4c-3.4-1.5-6.1,3.4-2.9,5.4,3.5,2.2,7.1-4,4.3-6.5a1.37,1.37,0,0,0-1.5-.2c-2,1.2-5,5.5-1.6,7.2,1.9.9,4.7-1.2,3.2-3.2a1.54,1.54,0,0,0-1.4-.6c-2,.3-3.7,3.1-1.6,4.5,2.4,1.6,4.4-1.9,4.1-3.9a1.27,1.27,0,0,0-.8-.8c-4.1-1.4-4.8,6.6.4,4.8,5-1.6,2.9-9.9-1.6-7.3-1.2.7-2.2,2.4-1.1,3.6,1.6,1.7,2.7-.3,3.6-1.2,3.1-2.9,4.9-1.4,8.3-.2a17.07,17.07,0,0,0,7.1.7c5.6-.5,11.8-.3,17.2-2a1.17,1.17,0,0,0,.5-2,18.67,18.67,0,0,0-3-2.6c-1.1-.8-2.5,1-1.5,1.9l1.8,1.5a1.2,1.2,0,0,0,1.7-1.7c-3.3-4.1-7.2,3.2-2.5,4.1a1.2,1.2,0,0,0,1.4-.6c1.2-2.8-1.7-8.1-5.1-5.8-3.8,2.6-.8,8.1,2.2,9.7,1.1.6,2.6-1,1.5-1.9s-1.3-1.1-2.8-1a1.19,1.19,0,0,0-.6,2.2,23.26,23.26,0,0,0,6.7,3.3c1.3.4,2-1.5.9-2.2-1.4-.9-2.8-1.8-4.3-2.7-1-.7-2.2.6-1.6,1.6a6.55,6.55,0,0,0,4.5,3.4c1.1.3,2.1-1.2,1.2-2a44.66,44.66,0,0,1-4.3-4.4c-.5.6-1,1.3-1.5,1.9,1.8.8,3.6,1.6,5.3,2.3,1,.4,2.4-.6,1.6-1.6a12.49,12.49,0,0,0-4.2-3.7,1.23,1.23,0,0,0-1.5,1.9,39.71,39.71,0,0,0,4,4.2c1,.8,2.8-.3,1.9-1.5-1.9-2.6-3.9-5.1-5.8-7.7-.9-1.2-3,0-2.1,1.2,1.1,1.5,2.2,3,3.3,4.6.9,1.2,3,.1,2.1-1.2-1.1-1.6-4.9-11.4-8-6a1.14,1.14,0,0,0,.4,1.6,2.7,2.7,0,0,0,3.3.1c1.1-.7.4-2.7-.9-2.2a3.54,3.54,0,0,0-2.6,3.4l1.5-1.2c-.9-.3-1.9-.7-2.8-1-1.3-.5-2,1.5-.9,2.2a70.09,70.09,0,0,0,7.5,4.4,1.21,1.21,0,0,0,1.2-2.1,44.81,44.81,0,0,0-8.4-5.1,1.23,1.23,0,0,0-1.5,1.9,32.3,32.3,0,0,0,7.1,6.2c1.3.9,2.4-1.2,1.2-2.1-2.7-1.9-5.3-4.8-8.8-4.8a1.19,1.19,0,0,0-.6,2.2c1.9,1.3,3.7,2.6,5.6,3.9,1.3.9,2.4-1.2,1.2-2.1-1.6-1.2-5.5-4.3-7.7-2.7a1.17,1.17,0,0,0-.2,1.9,8.89,8.89,0,0,0,4.9,2.5,1.2,1.2,0,0,0,.9-2.2,13,13,0,0,0-7.6-2.5A1.19,1.19,0,0,0,107,36a12.91,12.91,0,0,0,5.9,2.5,1.26,1.26,0,0,0,1.4-1.8,19,19,0,0,0-6.8-7,1.23,1.23,0,0,0-1.5,1.9,10.58,10.58,0,0,0,4.8,3c1.1.4,1.7-.9,1.4-1.8a14.79,14.79,0,0,0-4.7-6.1c-.6-.5-1.8-.5-2,.5-.5,2.7,1.6,7.4,5,6.2a1.29,1.29,0,0,0,.9-1.2c.1-2.7-3.1-8.3-6.2-5-1.8,1.9-.2,6.1,2.6,6,3.8-.2,1.5-5.1,0-6.6a3.43,3.43,0,0,0-5.8,3.2c.5,3.3,3.9,2.5,4.9-.2,1.1-3-1.2-5-3.9-3.2-2.4,1.7-3,6.6.9,6.8,2.9.1,4.5-3.7,2-5.4-2.9-2-6,2.1-3.6,4.5,3.1,3.2,6.1-1.5,4.8-4.5a1.23,1.23,0,0,0-1.9-.2c-4.4,4.6,2.7,10.2,4.2,5.5,1.3-4.3-6.1-5.1-5-.1,1.2,5.8,8.1.3,4.8-1.9-2.6-1.8-5.4,4.9-.9,5.1,1.1.8,1.1-1.6-.4-1.7Z" transform="translate(-69.8 -23.8)"/><path class="cls-1" d="M89.7,33h-.2l.3,1.2a6.47,6.47,0,0,0,.8-.9c-.5-.2-.9-.4-1.4-.6,0,.1.1.1.1.2V31.7c.1.3.3.5.4.8V31.3c-1.3,2.3,3.6,1.2,4.2,1.1,1.8-.3,3.7.7,5.4,1.2,1.5.5,2.1-1.9.6-2.3C98.2,30.8,96,29.7,94,30a21.86,21.86,0,0,1-3.6.3,2.88,2.88,0,0,0-2,.7c-2.3,2.1,1.9,4.7,3.4,1.7,1.4-2.8-3.7-3.2-3.8-.1-.1,2.9,4.6,1.6,3.4-1-.2-.5-.9-.6-1.4-.6-2.6.4-3.7,4.8-.3,4.4,1.6-.1,1.6-2.5,0-2.4Z" transform="translate(-69.8 -23.8)"/><path class="cls-1" d="M96.3,37.7a2.91,2.91,0,0,0,3.8-.5,1.2,1.2,0,1,0-1.7-1.7,1,1,0,0,1-.4.3c-.2,0-.2,0-.5-.2a1.16,1.16,0,0,0-1.6.4,1.19,1.19,0,0,0,.4,1.7Z" transform="translate(-69.8 -23.8)"/><path class="cls-1" d="M107.6,32.7a4.72,4.72,0,0,1-2-1c-.3.7-.6,1.4-.8,2a2.05,2.05,0,0,1,1.1,0,6.12,6.12,0,0,1,1.2.5c.1.2.3.3.4.5.6-.6.4-.9-.3-1-.1-.9.2-1.2.7-.9a2.36,2.36,0,0,1,.9.6,10.1,10.1,0,0,1,1.3,1.6c.6.8,2.2.2,2-.8a6.65,6.65,0,0,0-.7-2.4c-.1.5-.3,1.1-.4,1.6.1,0,.2-.1.3-.1-.3,0-.6.1-.9.1a18.61,18.61,0,0,1,2.5,1c1.2.5,2.5-.8,1.5-1.9-.8-.8-1.6-1.7-2.4-2.5-.5.6-1,1.3-1.5,1.9a11.78,11.78,0,0,1,2.2,1.7c1.2,1,2.9-.7,1.7-1.7a26.93,26.93,0,0,0-2.7-2c-1.2-.8-2.4.9-1.5,1.9.8.8,1.6,1.7,2.4,2.5.5-.6,1-1.3,1.5-1.9-1.3-.6-2.8-1.7-4.2-1a1.16,1.16,0,0,0-.4,1.6,2.66,2.66,0,0,1,.3,1.2c.7-.3,1.4-.6,2-.8-1.4-1.7-3.5-4-6-2.7a2.82,2.82,0,0,0-.3,4.9c1.4,1,4.6,1.6,4.4-1-.2-2.3-3.2-3.4-5.1-3.1-.9.1-1.7,1.3-.8,2a7.08,7.08,0,0,0,3.1,1.6,1.24,1.24,0,0,0,.5-2.4Z" transform="translate(-69.8 -23.8)"/><path class="cls-1" d="M109.2,28.4a1.8,1.8,0,0,1-1.2-1.2l-1.2,1.5a3.45,3.45,0,0,1,1.3.3c.2-.8.4-1.5.6-2.3-.7-.3-1.4-.5-2.1-.8a1.35,1.35,0,0,0-1.5.8,1.24,1.24,0,0,0,.8,1.5c.7.3,1.4.5,2.1.8a1.35,1.35,0,0,0,1.5-.8,1.24,1.24,0,0,0-.8-1.5,4.06,4.06,0,0,0-1.9-.4,1.24,1.24,0,0,0-1.2,1.5,4.49,4.49,0,0,0,2.8,2.9,1.22,1.22,0,1,0,.8-2.3Z" transform="translate(-69.8 -23.8)"/><path d="M78.1,37.8c.9-5,5.4-5.7,9.7-4.8.7.2,1.1-1,.3-1.1-2.6-.6-5.3-1-7.7.5a7.39,7.39,0,0,0-3.5,5.2c-.1.7,1.1,1,1.2.2Z" transform="translate(-69.8 -23.8)"/><path d="M85.8,32.4c4-4.4,9.1-3.7,14.1-1.5.7.3,1.3-.7.6-1-5.5-2.5-11-3.2-15.5,1.6-.5.6.3,1.4.8.9Z" transform="translate(-69.8 -23.8)"/><path d="M114.5,31.8a3.71,3.71,0,0,1,4.1-1.6c1.5.5,2,1.7,2.6,3A5.86,5.86,0,0,0,124,36c.7.4,1.3-.7.6-1-2.6-1.4-2.6-4.7-5.4-5.8a4.81,4.81,0,0,0-5.7,2,.58.58,0,0,0,1,.6Z" transform="translate(-69.8 -23.8)"/><path d="M98.8,29c-2.4-2.2,3-3.9,4.2-3.9a11.3,11.3,0,0,1,4.8.8c2.6,1.2,3.8,3.6,5.1,6a.58.58,0,1,0,1-.6c-2.5-4.9-5.9-8.1-11.9-7.4-2.2.3-6.9,3.4-4.1,5.9.6.5,1.4-.3.9-.8Z" transform="translate(-69.8 -23.8)"/><path d="M112.4,34.3a8.88,8.88,0,0,0-5.7-3.7c-2.7-.3-3.8,2.4-5.9,3.5a.58.58,0,1,0,.6,1,12.74,12.74,0,0,0,1.9-1.3c.5-.4.9-1.2,1.5-1.5,2.4-1.6,5.3.8,6.6,2.6.5.6,1.5,0,1-.6Z" transform="translate(-69.8 -23.8)"/><path d="M73,58.5a10.16,10.16,0,0,1-1-6.4c.1-.7-1-1.1-1.1-.3A10.94,10.94,0,0,0,72,59.1c.3.7,1.4.1,1-.6Z" transform="translate(-69.8 -23.8)"/><path d="M72.1,51.6c-1.2-2.4-.3-4.4,2.2-5.1.7-.2.4-1.4-.3-1.1a5,5,0,0,0-3.3,2.5,5.24,5.24,0,0,0,.3,4.4c.4.5,1.5-.1,1.1-.7Z" transform="translate(-69.8 -23.8)"/><path d="M73.4,45.9c-.5-.7,1-3.7,1.3-4.3A6.25,6.25,0,0,1,78,38.5c.7-.3.4-1.4-.3-1.1a7.75,7.75,0,0,0-4.3,4.4c-.6,1.4-1.8,3.6-.8,5,.4.6,1.3-.3.8-.9Z" transform="translate(-69.8 -23.8)"/><path d="M73.8,58.5c.1,0,2.1-3.4,2.3-3.8a7.49,7.49,0,0,0,1-3.6.6.6,0,1,0-1.2,0c0,2.2-1.4,3.8-2.4,5.7-.4.7-1.3,2.1-.2,2.7.6.4,1.2-.6.5-1Z" transform="translate(-69.8 -23.8)"/><path d="M76.6,51.3A16.79,16.79,0,0,0,85.3,46c.5-.6-.3-1.4-.8-.8a15.69,15.69,0,0,1-8.1,5c-.8.1-.5,1.3.2,1.1Z" transform="translate(-69.8 -23.8)"/><path d="M84.3,45.4a15.9,15.9,0,0,0,9.9-2.8c.6-.4,0-1.5-.6-1a14.64,14.64,0,0,1-9.3,2.6c-.7,0-.7,1.2,0,1.2Z" transform="translate(-69.8 -23.8)"/><path d="M92.6,42.8a3.82,3.82,0,0,1-3,3.3.57.57,0,1,0,.3,1.1,4.78,4.78,0,0,0,3.8-4.4c.2-.7-1-.7-1.1,0Z" transform="translate(-69.8 -23.8)"/><path d="M89.5,47.6A8.2,8.2,0,0,0,98.3,42a.57.57,0,0,0-1.1-.3,7,7,0,0,1-7.6,4.7c-.9-.1-.8,1.1-.1,1.2Z" transform="translate(-69.8 -23.8)"/><path d="M97.9,43c.7-4.7,7.2-3.7,9.9-1.8.6.4,1.2-.6.6-1-3.4-2.4-10.9-3-11.7,2.5-.1.7,1.1,1.1,1.2.3Z" transform="translate(-69.8 -23.8)"/><path d="M108.6,41.7c1.9-1.3,4-2,6-.5,1.3,1,1.5,2,2.5,3.2a8.14,8.14,0,0,0,4.8,2.8c.7.2,1.1-1,.3-1.1a7.21,7.21,0,0,1-5-3.8,6.29,6.29,0,0,0-2.4-2.7c-2.3-1.1-4.7-.2-6.7,1.1-.7.4-.1,1.4.5,1Z" transform="translate(-69.8 -23.8)"/><path d="M121.8,47.6a18.81,18.81,0,0,0,3.3-.5.57.57,0,0,0-.3-1.1,15.44,15.44,0,0,1-3,.4c-.7,0-.7,1.2,0,1.2Z" transform="translate(-69.8 -23.8)"/><path d="M121.4,47.8c1.9,2.6,4.9,4.3,6.4,7.2.3.7,1.4.1,1-.6-1.4-3-4.5-4.6-6.4-7.2-.4-.6-1.4,0-1,.6Z" transform="translate(-69.8 -23.8)"/><path d="M128.9,55.3c-1.2-5.9,2-11.9-4.1-15.8a.58.58,0,0,0-.6,1c5.6,3.5,2.5,9.8,3.6,15.1.1.8,1.3.5,1.1-.3Z" transform="translate(-69.8 -23.8)"/><path d="M126.5,41c.1-4.2-4.9-7.6-8.5-8.5-.7-.2-1.1,1-.3,1.1,3.1.8,7.7,3.8,7.7,7.4-.1.8,1.1.8,1.1,0Z" transform="translate(-69.8 -23.8)"/><path d="M88.9,36.8c.2,3.4-4.2,3.7-6.4,4.9a4.67,4.67,0,0,0-2.7,3.8c-.1.8,1.1.8,1.2,0,.3-3.3,4.7-3.3,6.8-4.7a4.49,4.49,0,0,0,2.3-4c-.1-.7-1.2-.7-1.2,0Z" transform="translate(-69.8 -23.8)"/><path d="M72.8,64.9c-2.8-3.5-1.1-7.1-1.4-11.1-.1-.8-1.3-.8-1.2,0,.2,2.5-.7,5.1-.3,7.6a9.85,9.85,0,0,0,2,4.4c.5.6,1.3-.3.9-.9Z" transform="translate(-69.8 -23.8)"/><path d="M73.4,65.2a22.37,22.37,0,0,1-.5-6.3.6.6,0,1,0-1.2,0,25.35,25.35,0,0,0,.6,6.7c.1.6,1.3.3,1.1-.4Z" transform="translate(-69.8 -23.8)"/><path d="M129.1,60.7c-1.1-2.9-2.2-5.8-3.1-8.7-.2-.7-1.4-.4-1.1.3.9,2.9,1.9,5.8,3.1,8.7.3.7,1.4.4,1.1-.3Z" transform="translate(-69.8 -23.8)"/><path d="M129.1,60.3a24.49,24.49,0,0,0-.2-8.1c-.1-.8-1.3-.4-1.1.3A23.61,23.61,0,0,1,128,60a.57.57,0,1,0,1.1.3Z" transform="translate(-69.8 -23.8)"/><path class="cls-2" d="M103.3,29.1c-.3-.3-.7-.5-.9-.7-.7-.9,1.1-.8,1.7-.8a4.75,4.75,0,0,1,4,1.8c.5.6,1.5,0,1-.6-1.6-2.1-4-2.6-6.5-2.3-.8.1-1.8.3-1.9,1.2-.1,1.1,1.1,1.5,1.7,2.2a.6.6,0,1,0,.9-.8Z" transform="translate(-69.8 -23.8)"/><path class="cls-2" d="M102.5,37.2a7.72,7.72,0,0,0,2.4-1.2c.9-.7,1.2-1.6,2.4-1.8.8-.1.4-1.3-.3-1.1a3.6,3.6,0,0,0-2.1,1.3,5.45,5.45,0,0,1-2.7,1.7.57.57,0,0,0,.3,1.1Z" transform="translate(-69.8 -23.8)"/><path class="cls-2" d="M79.1,44a6.18,6.18,0,0,1,3.2-4.2,21.4,21.4,0,0,0,2.2-1,5.09,5.09,0,0,0,1.3-1.6.58.58,0,1,0-1-.6c-1,1.7-3,1.9-4.5,3.2A8.13,8.13,0,0,0,78,43.7a.57.57,0,1,0,1.1.3Z" transform="translate(-69.8 -23.8)"/><path class="cls-2" d="M74.4,54.5a5,5,0,0,1,.1-2.7.57.57,0,0,0-1.1-.3,6.17,6.17,0,0,0-.1,3.3.57.57,0,0,0,1.1-.3Z" transform="translate(-69.8 -23.8)"/><path class="cls-2" d="M114,38.1c2.7-.3,3.6,2.9,5.2,4.4,1.3,1.2,2.8,1.2,4.5,1.1a.6.6,0,1,0,0-1.2c-1.6.1-2.9,0-4.1-1.2a20.71,20.71,0,0,1-1.7-2.4,4.19,4.19,0,0,0-3.9-1.9c-.8.1-.8,1.3,0,1.2Z" transform="translate(-69.8 -23.8)"/></svg>