<svg id="Layer_1" data-name="Layer 1" xmlns="http://www.w3.org/2000/svg" viewBox="0 0 58.63 33.22"><defs><style>.cls-1{fill:#ffe322;}.cls-2{fill:#f7ed56;}</style></defs><title>Blond</title><path class="cls-1" d="M78.8,46.9a16,16,0,0,0,1-2.3c.5-1.6-2-2.7-2.7-1.2-.2.5-.4,1-.6,1.6-.4,1.4,1.5,2.7,2.5,1.5l1.1-1.4c-.8-.5-1.7-1-2.5-1.5a5.78,5.78,0,0,1-.6,1.7,1.5,1.5,0,0,0,2.6,1.5c.7-1,1.3-2,2-3-.9-.5-1.7-1-2.6-1.5-.3.6-.5,1.2-.8,1.8-.6,1.4,1.1,3.2,2.4,1.8.5-.5,1-1.1,1.5-1.6L80,42.2a12.67,12.67,0,0,0-1.1,1.3c-1.2,1.5.8,3.5,2.1,2.1.5-.5,1-1.1,1.6-1.6l-2.1-2.1c-1.9,2.1-3.7,4.3-5.4,6.4-1,1.3-3.4,3.2-2.8,5.1a1.5,1.5,0,0,0,2.9-.8c0-.1-.1-.2-.1-.3-.1.4-.1.8-.2,1.2a28.62,28.62,0,0,1,3.8-4.8c1.3-1.6,2.6-3.1,4-4.7,1.3-1.4-.8-3.5-2.1-2.1-.5.5-1,1.1-1.6,1.6l2.1,2.1a12.67,12.67,0,0,0,1.1-1.3c1.2-1.5-.8-3.5-2.1-2.1-.5.5-1,1.1-1.5,1.6L81,45.6c.3-.6.5-1.2.8-1.8a1.5,1.5,0,0,0-2.6-1.5c-.7,1-1.3,2-2,3,.9.5,1.7,1,2.6,1.5a9.89,9.89,0,0,0,.9-2.4c.4-1.4-1.5-2.7-2.5-1.5l-1.1,1.4c.8.5,1.7,1,2.5,1.5l.3-.9-2.7-1.2a11.11,11.11,0,0,1-.7,1.6c-1.2,1.8,1.4,3.3,2.3,1.6Z" transform="translate(-70.9 -26.18)"/><path class="cls-1" d="M73.4,52.2c-.2.1-.3.2-.5.3a1.47,1.47,0,0,0-.5,2.1,1.49,1.49,0,0,0,2.1.5c.2-.1.3-.2.5-.3a1.47,1.47,0,0,0,.5-2.1,1.69,1.69,0,0,0-2.1-.5Z" transform="translate(-70.9 -26.18)"/><path class="cls-1" d="M74.7,52.8a5.86,5.86,0,0,0,2.8-3l-2.7-1.2c-.3.9-.7,1.7-1.1,2.6l2.7,1.2a8.11,8.11,0,0,1,1-2.1c-.9-.5-1.7-1-2.6-1.5-.6,1.2-1.3,2.5-1.9,3.7l2.7,1.2c.2-.3.3-.6.5-.9l-2.7-1.2c-.3.7-.5,1.3-.8,2-.7,1.6,1.9,2.6,2.7,1.2.6-1,1.2-2.1,1.8-3.1l-2.7-1.2c-.2.5-.4,1.1-.6,1.6-.6,1.6,2,2.7,2.7,1.2s1.4-2.8,2.2-4.2L76,47.9a14.34,14.34,0,0,1-1.4,3.4l2.7,1.2c.5-1.3,1.1-2.6,1.7-3.8l-2.7-1.2-.6,2.1c-.6,1.9,2.2,2.6,2.9.8a34.89,34.89,0,0,1,2-4.4l-2.7-1.2a7.83,7.83,0,0,1-.7,2.5l2.7,1.2a12,12,0,0,1,1.6-3.2l-2.7-1.2a5.08,5.08,0,0,1-.9,1.8c.9.5,1.7,1,2.6,1.5.2-.4.4-.7.6-1.1.8-1.4-1.2-3.1-2.4-1.8C77.1,46,76.4,48,75.4,50a24,24,0,0,1-1.8,2.6,18.63,18.63,0,0,0-.9,2.4c.7.6,1.5,1.1,2.2,1.7a58.92,58.92,0,0,1,2.4-5.8c.8-1.7-1.8-3.3-2.6-1.5-1,2.1-1.9,4.3-2.7,6.5-.5,1.3,1.1,2.2,2.2,1.7a2.43,2.43,0,0,0,1.3-1.5,14.09,14.09,0,0,1,1.7-3.2c1.4-2,1.9-4.5,3.6-6.4l-2.4-1.8c-.2.4-.4.7-.6,1.1a1.5,1.5,0,0,0,2.6,1.5,11.51,11.51,0,0,0,1.2-2.5c.6-1.7-1.8-2.5-2.7-1.2A17.62,17.62,0,0,0,77,47.5c-.5,1.6,2.1,2.7,2.7,1.2a15,15,0,0,0,1-3.2c.3-1.6-1.9-2.8-2.7-1.2a33.22,33.22,0,0,0-2.3,5.1c1,.3,1.9.5,2.9.8l.6-2.1c.5-1.6-2-2.7-2.7-1.2s-1.4,3-2,4.5,1.9,2.6,2.7,1.2a18.63,18.63,0,0,0,1.7-4.1c.5-1.6-2-2.7-2.7-1.2s-1.4,2.8-2.2,4.2l2.7,1.2c.2-.5.4-1.1.6-1.6.6-1.6-1.9-2.6-2.7-1.2-.6,1-1.2,2.1-1.8,3.1l2.7,1.2c.3-.7.5-1.3.8-2,.7-1.6-1.9-2.5-2.7-1.2a6,6,0,0,0-.8,1.6c-.6,1.6,2,2.7,2.7,1.2.6-1.2,1.3-2.5,1.9-3.7a1.5,1.5,0,0,0-2.6-1.5,9.53,9.53,0,0,0-1.3,2.9c-.5,1.6,2,2.7,2.7,1.2.5-1.1,1-2.2,1.4-3.3.6-1.6-2-2.7-2.7-1.2a3.7,3.7,0,0,1-1.8,1.9,1.58,1.58,0,0,0,1.6,2.7Z" transform="translate(-70.9 -26.18)"/><path class="cls-1" d="M75.3,51.2a34.54,34.54,0,0,1,1.4-3.4L74,46.6a9.34,9.34,0,0,1-1.4,3.6c.9.3,1.9.5,2.8.8.3-.9.6-1.9.9-2.8-.9-.3-1.9-.5-2.8-.8,0,.6-.1,1.3-.1,1.9-.1,1.4,2.2,2.1,2.8.8.8-1.9,1.6-3.7,2.5-5.6L76,43.3a8.78,8.78,0,0,1-1.1,3.9l2.7,1.2a11.12,11.12,0,0,1,2.3-4.1c-.8-.5-1.7-1-2.5-1.5a22.26,22.26,0,0,1-1.6,4.3l2.7,1.2A26.87,26.87,0,0,1,81.3,43l-2.7-1.2a26.68,26.68,0,0,1-2,4.6c.9.5,1.7,1,2.6,1.5a29.44,29.44,0,0,1,4.3-6.7l-2.4-1.8c-1,1.4-1.9,2.8-2.9,4.2.9.5,1.7,1,2.6,1.5a29.61,29.61,0,0,1,2.8-4.4l-2.4-1.8a27.17,27.17,0,0,1-2.7,4.2l2.4,1.8A13.87,13.87,0,0,1,83.7,41l-2.4-1.8c-.9,1.5-1.9,2.9-2.8,4.4.9.5,1.7,1,2.6,1.5a27.92,27.92,0,0,1,4.2-4.9l-2.4-1.8a12.06,12.06,0,0,1-3.2,4.2l2.4,1.8a10.58,10.58,0,0,1,2.8-3.5l-2.4-1.8c-.5.7-1.1,1.5-1.6,2.2-.9,1.2.9,2.9,2.1,2.1l3.6-2.7-1.8-2.4-3.7,3.1,2.1,2.1a19.91,19.91,0,0,1,4.6-4.1L86,37a9,9,0,0,1-2,1.9L86.1,41l3-1.5c-.3-1-.5-1.9-.8-2.9a7,7,0,0,1-1.9.6,1.51,1.51,0,0,0,0,2.9c2.1.3,4.2.6,6.3.8v-3a18.13,18.13,0,0,1-5.2-.1v2.9a12.57,12.57,0,0,1,6.1.2c.3-1,.5-1.9.8-2.9-.8-.1-1.6-.3-2.5-.4a1.51,1.51,0,0,0-.8,2.9A29.06,29.06,0,0,0,96.7,42a1.5,1.5,0,0,0,.8-2.9c-1-.3-2.1-.6-3.1-1-1.9-.6-2.5,2.2-.8,2.9,1.2.5,2.3,1,3.5,1.5.1-1,.3-2,.4-2.9-1.1-.1-2.2-.3-3.4-.4-1.7-.2-2,2.6-.4,2.9,1.1.3,2.1.5,3.2.8,1.6.4,2.7-1.9,1.2-2.7s-2.8-1.5-4.2-2.2a1.56,1.56,0,0,0-2.1,2.1c.5,1.1.9,1.3,2,1.8.3-1,.5-1.9.8-2.9-1-.3-2-.6-3.1-.9a1.51,1.51,0,0,0-.8,2.9,12.66,12.66,0,0,0,2.8.6,1.55,1.55,0,0,0,1.3-2.3A2.73,2.73,0,0,0,93.3,38c-1.7-.8-3.3,1.8-1.5,2.6.1.1.3.2.4.3.4-.8.9-1.5,1.3-2.3-.7-.2-1.3-.3-2-.5-.3,1-.5,1.9-.8,2.9,1,.3,2,.6,3.1.9,1.9.5,2.5-2.2.8-2.9-.1-.1-.1-.3-.2-.4l-2.1,2.1c1.4.7,2.8,1.5,4.2,2.2l1.2-2.7c-1.1-.3-2.1-.5-3.2-.8-.1,1-.3,2-.4,2.9,1.1.1,2.2.3,3.4.4,1.8.2,1.8-2.4.4-2.9-1.2-.5-2.3-1-3.5-1.5-.3,1-.5,1.9-.8,2.9,1,.3,2.1.6,3.1,1,.3-1,.5-1.9.8-2.9a51.18,51.18,0,0,1-5.6-1.5c-.3,1-.5,1.9-.8,2.9.8.1,1.6.3,2.5.4,1.9.3,2.7-2.5.8-2.9a20,20,0,0,0-7.7-.2c-1.4.2-1.4,2.7,0,2.9a24.29,24.29,0,0,0,6,.2,1.5,1.5,0,0,0,0-3c-1.8-.2-3.7-.4-5.5-.7v2.9a6,6,0,0,0,1.9-.6,1.51,1.51,0,0,0-.8-2.9A8.86,8.86,0,0,0,84,39c-1.4,1.3.7,3.3,2.1,2.1a9,9,0,0,0,2-1.9c1.1-1.2-.3-3.3-1.8-2.4a20.73,20.73,0,0,0-5.2,4.6,1.49,1.49,0,0,0,2.1,2.1l3.7-3.1c1.3-1.1-.5-3.4-1.8-2.4l-3.6,2.7,2.1,2.1c.5-.7,1.1-1.5,1.6-2.2,1.1-1.5-1.1-2.9-2.4-1.8a14.54,14.54,0,0,0-3.3,4.1,1.52,1.52,0,0,0,2.4,1.8,14.4,14.4,0,0,0,3.7-4.8,1.52,1.52,0,0,0-2.4-1.8,29.86,29.86,0,0,0-4.6,5.5c-1.1,1.6,1.5,3.1,2.6,1.5.9-1.5,1.9-2.9,2.8-4.4s-1.2-3-2.4-1.8a16.83,16.83,0,0,0-3.3,4.6c-.7,1.4,1.2,3.2,2.4,1.8a30.26,30.26,0,0,0,3.1-4.8c.7-1.4-1.2-3.2-2.4-1.8a27,27,0,0,0-3.3,5,1.5,1.5,0,0,0,2.6,1.5c1-1.4,1.9-2.8,2.9-4.2a1.52,1.52,0,0,0-2.4-1.8,31.77,31.77,0,0,0-4.8,7.3c-.8,1.7,1.7,3.2,2.6,1.5a49.88,49.88,0,0,0,2.3-5.3c.6-1.7-1.8-2.5-2.7-1.2a28.46,28.46,0,0,0-3.1,6c-.6,1.6,2,2.7,2.7,1.2a27.2,27.2,0,0,0,1.9-5c.4-1.3-1.6-2.7-2.5-1.5a18.35,18.35,0,0,0-3,5.5c-.6,1.6,2,2.7,2.7,1.2a12.31,12.31,0,0,0,1.4-4.6c.2-1.5-2-2.9-2.7-1.2-.8,1.9-1.6,3.7-2.5,5.6.9.3,1.9.5,2.8.8,0-.6.1-1.3.1-1.9.1-1.6-2-1.8-2.8-.8a5.68,5.68,0,0,0-1.3,4.3,1.54,1.54,0,0,0,2.8.8,16.08,16.08,0,0,0,1.7-4.3c.4-1.6-2-2.8-2.7-1.2-.6,1.4-1.2,2.7-1.7,4.1-.6,1.8,2.3,2.5,2.9.7Z" transform="translate(-70.9 -26.18)"/><path class="cls-1" d="M82.1,43.3a9.18,9.18,0,0,1,4.4-4.7l-1.8-2.4c-1.8,1.4-3.5,2.9-5.3,4.3.8.5,1.7,1,2.5,1.5a4.82,4.82,0,0,1,1.5-2.2l-2.1-2.1a71.92,71.92,0,0,1-5.1,5.9c-1.4,1.4.6,3.3,2.1,2.1A8.19,8.19,0,0,0,80.5,43c-.9-.5-1.7-1-2.6-1.5a27.73,27.73,0,0,1-2.6,4.8L78,47.5a14.19,14.19,0,0,1,1-2.9c.8-1.7-1.7-3.3-2.6-1.5a4.43,4.43,0,0,1-1.7,2.1c.8.5,1.7,1,2.5,1.5.2-.6.4-1.2.6-1.7-.9-.5-1.7-1-2.6-1.5A6.69,6.69,0,0,1,73.6,46c.9.4,1.7.7,2.6,1.1.1-.3.1-.7.2-1l-2.7-1.2c-.2.7-.4,1.4-.6,2.2a1.5,1.5,0,0,0,2.9.8A12.34,12.34,0,0,1,77.3,45c-.9-.5-1.7-1-2.6-1.5a8.78,8.78,0,0,1-1.2,2.1c.9.5,1.7,1,2.6,1.5a41.61,41.61,0,0,1,2.3-4.2c-.9-.3-1.9-.5-2.8-.8-.2.5-.3.9-.5,1.4.9.5,1.7,1,2.6,1.5A14.84,14.84,0,0,1,80,41.2c-.8-.5-1.7-1-2.5-1.5a6.38,6.38,0,0,1-1.3,2.6l2.7,1.2a10.55,10.55,0,0,1,1.5-3l-2.7-1.2a4,4,0,0,1-1.2,2.4c.8.5,1.7,1,2.5,1.5a2.72,2.72,0,0,1,.6-1.7c.9-1.4-1.2-3-2.4-1.8l-1.5,1.5c.8.5,1.7,1,2.5,1.5a14,14,0,0,1,1-1.6l-2.4-1.8c-.3.6-.7,1.2-1,1.8.9.5,1.7,1,2.6,1.5a5.56,5.56,0,0,1,.9-1.7l-2.1-2.1-.6.6,2.1,2.1a5.28,5.28,0,0,1,2.5-2.4l-1.8-2.4A19.2,19.2,0,0,0,78,38.2c-1.3,1.4.7,3.5,2.1,2.1,1-.9,1.9-1.9,2.9-2.8l-2.1-2.1c-.9,1.1-1.8,2.1-2.6,3.2l2.4,1.8a4.75,4.75,0,0,1,1.9-2.3l-1.8-2.4a17.09,17.09,0,0,1-2.6,2.1l2.1,2.1a12.12,12.12,0,0,1,4.4-3.7c-.5-.9-1-1.7-1.5-2.6-.6.4-1.2.8-1.7,1.2l1.8,2.4a23.62,23.62,0,0,1,4.8-3.5c1.4-.8.5-3.3-1.2-2.7a17.64,17.64,0,0,0-3.7,1.7c.5.9,1,1.7,1.5,2.6a21.3,21.3,0,0,1,5.4-2.8l-1.2-2.7a15.39,15.39,0,0,0-4.2,3c-1.3,1.2.4,3.2,1.8,2.4l3.9-2.1-1.8-2.4c-3.3,2.7-6.5,5.5-9.5,8.5L81.5,41a24,24,0,0,1,4.4-4.6l-2.4-1.8c-1.1,1.5-2.3,3-3.4,4.4l2.4,1.8a21.44,21.44,0,0,1,4.6-4.9L85,33.8c-2.1,2.3-4.2,4.7-6.3,7l2.4,1.8a13,13,0,0,1,4.1-4.3l-1.8-2.4a16.81,16.81,0,0,1-4.8,4L80.7,42a26,26,0,0,1,3-3.6l1.2-1.2c1.7-1,2.1-1.4,1-1.1-.3-.7-.6-1.5-.9-2.2a20.17,20.17,0,0,1-3.2,3.9l2.1,2.1a21.74,21.74,0,0,1,3.7-3.1c-.7-.6-1.5-1.1-2.2-1.7a15.05,15.05,0,0,1-1,1.7l2.4,1.8a8,8,0,0,1,2.6-2.9c-.7-.6-1.5-1.1-2.2-1.7a5.75,5.75,0,0,1-2.4,3.5c.9.4,1.7.7,2.6,1.1.3-.8.6-1.5.9-2.3,1.3-1.4-.8-3.6-2.1-2.1a6.66,6.66,0,0,0-1.8,4.4A1.58,1.58,0,0,0,87,39.7a8.1,8.1,0,0,0,3.1-4.8,1.53,1.53,0,0,0-2.2-1.7,11.83,11.83,0,0,0-3.7,4A1.51,1.51,0,0,0,86.6,39a6,6,0,0,0,1.7-3c.3-1.2-1.1-2.5-2.2-1.7a48.23,48.23,0,0,0-4.3,3.6c-1.4,1.4.7,3.4,2.1,2.1a19.72,19.72,0,0,0,3.7-4.5,1.47,1.47,0,0,0-.9-2.2c-3-1.1-7.3,5.4-8.6,7.3-.9,1.3.8,2.8,2.1,2.1a19.36,19.36,0,0,0,5.4-4.5c1-1.2-.3-3.4-1.8-2.4a16.77,16.77,0,0,0-5.2,5.4A1.52,1.52,0,0,0,81,43c2.1-2.3,4.2-4.7,6.3-7a1.49,1.49,0,0,0-2.1-2.1,23.75,23.75,0,0,0-5,5.5c-.9,1.4,1.3,3.1,2.4,1.8,1.3-1.6,2.6-3.3,3.9-5,1.1-1.5-1.1-2.8-2.4-1.8a29.34,29.34,0,0,0-4.8,5.2c-1,1.4,1.2,3,2.4,1.8,3-3,6.2-5.8,9.5-8.5,1.4-1.1-.4-3.1-1.8-2.4l-3.9,2.1L87.3,35a17.83,17.83,0,0,1,3.6-2.5,1.49,1.49,0,0,0-1.2-2.7,23.39,23.39,0,0,0-6.1,3.1c-1.6,1.1-.1,3.6,1.5,2.6a11.69,11.69,0,0,1,3-1.4l-1.2-2.7a26,26,0,0,0-5.4,4c-1.2,1.1.4,3.3,1.8,2.4.6-.4,1.2-.8,1.7-1.2A1.5,1.5,0,0,0,83.5,34a15.35,15.35,0,0,0-5.4,4.7c-.9,1.2.8,2.8,2.1,2.1a26.91,26.91,0,0,0,3.3-2.6c1.2-1.2-.4-3.4-1.8-2.4a8,8,0,0,0-2.9,3.4c-.7,1.4,1.2,3.2,2.4,1.8.9-1.1,1.8-2.1,2.6-3.2,1.2-1.5-.7-3.5-2.1-2.1A9,9,0,0,0,78,38l2.1,2.1a19.2,19.2,0,0,0,1.4-1.5,1.52,1.52,0,0,0-1.8-2.4,7.22,7.22,0,0,0-3.6,3.5,1.56,1.56,0,0,0,2.1,2.1,2.94,2.94,0,0,0,1.2-1c1.2-1.5-.9-3.6-2.1-2.1A8.84,8.84,0,0,0,75.9,41c-.8,1.7,1.6,3.2,2.6,1.5.3-.6.7-1.2,1-1.8a1.52,1.52,0,0,0-2.4-1.8,6.91,6.91,0,0,0-1.7,3c-.5,1.4,1.5,2.5,2.5,1.5l1.5-1.5L77,40.1a5.42,5.42,0,0,0-.9,2.4c-.2,1.3,1.4,2.7,2.5,1.5a6.76,6.76,0,0,0,2-3.7,1.5,1.5,0,0,0-2.7-1.2,13.26,13.26,0,0,0-1.8,3.8c-.6,1.7,1.8,2.5,2.7,1.2a11.18,11.18,0,0,0,1.6-3.3,1.53,1.53,0,0,0-2.5-1.5,14.36,14.36,0,0,0-2.8,4.4,1.5,1.5,0,0,0,2.6,1.5,5.21,5.21,0,0,0,.9-2.9c.1-1.5-2-2-2.8-.8a43.6,43.6,0,0,0-2.3,4.2,1.5,1.5,0,0,0,2.6,1.5,11.25,11.25,0,0,0,1.2-2.1c.8-1.7-1.7-3.2-2.6-1.5a39.22,39.22,0,0,0-1.6,3.6c1,.3,1.9.5,2.9.8.2-.7.4-1.4.6-2.2.5-1.6-1.9-2.7-2.7-1.2a4.23,4.23,0,0,0-.6,2.5,1.55,1.55,0,0,0,2.6,1.1A9.45,9.45,0,0,0,78,45.1c.7-1.7-1.8-3.3-2.6-1.5a10.64,10.64,0,0,0-.9,2.5A1.53,1.53,0,0,0,77,47.6a8.19,8.19,0,0,0,2.2-2.7c-.9-.5-1.7-1-2.6-1.5A22,22,0,0,0,75.3,47,1.5,1.5,0,0,0,78,48.2a22.31,22.31,0,0,0,2.6-4.8c.7-1.7-1.6-3.2-2.6-1.5A4.63,4.63,0,0,1,76.2,44l2.1,2.1c1.8-1.9,3.5-3.9,5.1-5.9,1.2-1.5-.7-3.5-2.1-2.1A9.29,9.29,0,0,0,79,41.6c-.6,1.5,1.5,2.3,2.5,1.5,1.8-1.4,3.5-2.9,5.3-4.3,1.4-1.1-.4-3.1-1.8-2.4a12.3,12.3,0,0,0-5.8,6.5c-.7,1.4,2.2,2.2,2.9.4Z" transform="translate(-70.9 -26.18)"/><path class="cls-1" d="M88.5,36.5c.5.4.9.4,1,0a2.09,2.09,0,0,1,.4-.6c.1-.1.7-.9.9-.8s-.5,2.1-.5,2.2c-.1.3.1-.5.2-.6a1.83,1.83,0,0,1,.7-1,3.92,3.92,0,0,1,1-.8c.1-.1.2-.1.4-.2.5-.1.5-.2.2-.2-.2-.3-.5-.6-.7-.9.3,1.2-.8,1.3-1.5,1.6a.37.37,0,0,1-.3-.1c0,1.2.1,1.4.4.7a7.64,7.64,0,0,1,.9-.9c1-.6,0,.9-.3,1.2s-.9.9-1.2.8V37a1.42,1.42,0,0,1,.2-.6A2.5,2.5,0,0,1,92,35.1c.8-.1,1.4.2.4.8-.4.3-1.5.5-1.8-.1-.4-.9,1.2-1.8,1.7-2-.6-.2-1.1-.5-1.7-.7.2-.8.1-1-.2-.6a2.65,2.65,0,0,1-.6.5c-.2.1-.5.3-.7.4-.5,0-.5.2,0,.4.1.5.3,1,.4,1.5,0,.2,1-.4,1-.4a12.13,12.13,0,0,1,1.4-.5,14.68,14.68,0,0,1,2.9-.5c1.9-.1,1.9-3.1,0-3a15.44,15.44,0,0,0-5.9,1.4c-1.4.6-3.6,2.2-1.8,3.8,2.1,1.8,7.9-1.8,6.1-4.5a1.48,1.48,0,0,0-1.7-.7,5.11,5.11,0,0,0-3.8,3.7,3.46,3.46,0,0,0,2.2,4.2,4.69,4.69,0,0,0,4.8-1,3.21,3.21,0,0,0,.4-4.6c-2.6-2.7-7-.4-7.9,2.7-.5,1.6.2,3.7,2,4s3.7-1,4.7-2.4,1.4-3.4.2-4.8-3.2-1.1-4.7,0c-1.3.9-2.8,2.9-1.6,4.4,1.1,1.3,3.4,1.2,4.8.5a4.52,4.52,0,0,0,2.3-4.5c-.5-2.3-2.9-1.8-4.4-.9a7,7,0,0,0-3.2,4.3,3,3,0,0,0,2.6,3.6c4.3.3,5.7-8.3.9-8.2-2.1.1-4,2.3-4.4,4.2C86,38.3,88,40.3,90,39c1.6-1,.1-3.6-1.5-2.5Z" transform="translate(-70.9 -26.18)"/><path class="cls-1" d="M123.2,40.2a8.21,8.21,0,0,0-3.1-1.1,1.53,1.53,0,0,0-1.5,2.5c.9,1,1.9,2,2.8,3l1.8-2.4c-1.1-.8-2.2-1.7-3.4-2.5-1.5-1.1-2.8,1.1-1.8,2.4a20.57,20.57,0,0,0,2.9,3l1.8-2.4a6,6,0,0,1-2.1-1.4c-.5.8-1,1.7-1.5,2.5a7.34,7.34,0,0,1,3.4,2l1.8-2.4c-.3-.2-.6-.5-.9-.7l-1.8,2.4c.8.6,1.6,1.2,2.4,1.9,1.5,1.2,3.5-.7,2.1-2.1l-1-1a1.52,1.52,0,0,0-2.4,1.8c.4.8.7,1.6,1.1,2.4l2.1-2.1a5.78,5.78,0,0,1-2.3-1.8l-1.8,2.4a11.53,11.53,0,0,1,2.6,1.9,1.49,1.49,0,0,0,2.1-2.1c-.4-.5-.9-1-1.3-1.5-1.2-1.3-3.1.4-2.4,1.8a8.18,8.18,0,0,0,1.2,2,1.52,1.52,0,0,0,2.8-.8,1.27,1.27,0,0,1,.1-.6c-.9.4-1.7.7-2.6,1.1.1.2.3.4.4.6a1.48,1.48,0,0,0,2.9-.4c0-.2.1-.4.1-.7-.9.3-1.9.5-2.8.8a11.11,11.11,0,0,0,.7,1.6c.6,1.8,3.5,1.1,2.9-.8-.1-.3-.2-.6-.3-1l-2.7,1.2c.3.4.5.9.8,1.3l2.4-1.8a12.39,12.39,0,0,1-1.8-2.2l-2.4,1.8a3.86,3.86,0,0,1,1.1,1.7c.6,1.4,2.8.7,2.8-.8a27,27,0,0,0-.5-4.1c-1,.3-1.9.5-2.9.8.1.6.1,1.2.2,1.8,1-.1,2-.3,2.9-.4-.2-.7-.4-1.5-.6-2.2-1,.3-1.9.5-2.9.8.1.3.3.7.4,1l2.7-1.2a42.7,42.7,0,0,0-3-4.4l-2.1,2.1c.3.5.5.9.8,1.4.7-.6,1.5-1.1,2.2-1.7a31.25,31.25,0,0,1-4.6-4.3l-2.1,2.1,3.9,3.6,1.8-2.4a7.83,7.83,0,0,1-3.4-3.1l-2.1,2.1a13.69,13.69,0,0,1,3.8,2.9c1.3,1.4,3.4-.7,2.1-2.1-1.1-1.2-2.1-2.4-3.2-3.6L120,41.2a11.68,11.68,0,0,1,3.6,3.1c1.1,1.5,3.7.2,2.6-1.5a16.3,16.3,0,0,0-2.3-2.9l-1.8,2.4a6.7,6.7,0,0,1,2.6,4.3c1-.3,1.9-.5,2.9-.8-.2-.6-.3-1.1-.5-1.7l-2.7,1.2c.1.4.3.7.4,1.1.8-.5,1.7-1,2.5-1.5-2.2-2.2-3.4-4.9-5.8-7l-1.8,2.4a7.31,7.31,0,0,1,2.6,1.9l1.8-2.4a17.68,17.68,0,0,1-4.1-3.6l-1.8,2.4a10.78,10.78,0,0,1,3.2,2.8l1.8-2.4a9.17,9.17,0,0,1-2.7-2.5l-2.1,2.1a20.41,20.41,0,0,1,2.7,2.3l1.8-2.4a4.24,4.24,0,0,1-1.7-1.8l-2.1,2.1a7.28,7.28,0,0,1,1.8,1.7l2.1-2.1c-.6-.7-1.2-1.3-1.8-2-1-1.3-3.4.5-2.4,1.8.6.8,1.2,1.6,1.9,2.4l1.8-2.4a18.56,18.56,0,0,1-4.4-4L116,36.3c.6.6,1.2,1.1,1.7,1.7a1.48,1.48,0,1,0,2.1-2.1c-.8-.8-1.5-1.6-2.3-2.4l-2.1,2.1a18.11,18.11,0,0,1,1.8,2.1l2.1-2.1a16.65,16.65,0,0,1-1.8-2.8l-2.4,1.8a15.33,15.33,0,0,1,2.9,2.8c1.1,1.3,3.4-.4,2.4-1.8-.8-1-1.6-2-2.5-3L116.1,35a5.48,5.48,0,0,1,1.8,1.6l2.1-2.1a6.53,6.53,0,0,0-1.6-1.3,1.56,1.56,0,0,0-2.1,2.1,37.12,37.12,0,0,0,2.3,3.2l1.8-2.4c-.3-.1-.6-.3-.9-.4a1.5,1.5,0,0,0-1.5,2.6l1.2.9c1.4,1.3,3.5-.8,2.1-2.1l-.7-.7-1.8,2.4a6.1,6.1,0,0,1,1.6,1.2c1.4,1.3,3.5-.8,2.1-2.1a18.4,18.4,0,0,0-2.2-1.7c-1.4-.9-3,1.2-1.8,2.4l.7.7,2.1-2.1a8.62,8.62,0,0,0-1.8-1.4c-.5.9-1,1.7-1.5,2.6.3.1.6.3.9.4a1.51,1.51,0,0,0,1.8-2.4,24.76,24.76,0,0,1-1.9-2.6l-2.1,2.1a7,7,0,0,0,1,.8c1.3,1.4,3.3-.7,2.1-2.1a8.09,8.09,0,0,0-2.4-2.1c-1.5-1-3,1.2-1.8,2.4a22,22,0,0,1,2,2.3l2.4-1.8a25.72,25.72,0,0,0-2.9-2.8,1.52,1.52,0,0,0-2.4,1.8,25.38,25.38,0,0,0,2.3,3.4c1.2,1.5,3.3-.6,2.1-2.1l-1.8-2.1a1.48,1.48,0,1,0-2.1,2.1c.8.8,1.5,1.6,2.3,2.4l2.1-2.1c-.6-.6-1.2-1.1-1.7-1.7-1.4-1.4-3.3.7-2.1,2.1a23.72,23.72,0,0,0,5,4.5c1.5,1,2.8-1.1,1.8-2.4a22,22,0,0,1-1.4-1.8l-2.4,1.8a17.11,17.11,0,0,0,1.8,2c1.3,1.4,3.4-.7,2.1-2.1a12.56,12.56,0,0,0-2.4-2.2c-1.3-.9-2.8.8-2.1,2.1a9.36,9.36,0,0,0,2.7,2.9,1.52,1.52,0,0,0,1.8-2.4c-1.1-1-2.2-1.9-3.3-2.8s-2.9.9-2.1,2.1a11.55,11.55,0,0,0,3.8,3.5c1.5.9,2.9-1.1,1.8-2.4a16.57,16.57,0,0,0-3.8-3.2c-1.5-.9-2.9,1.1-1.8,2.4a23.08,23.08,0,0,0,4.7,4.1c1.5,1,2.9-1.1,1.8-2.4a9.3,9.3,0,0,0-3.2-2.4c-1.4-.7-3.2,1.2-1.8,2.4,2.4,2,3.7,4.8,5.8,7a1.51,1.51,0,0,0,2.5-1.5,5.63,5.63,0,0,0-.7-1.8,1.49,1.49,0,0,0-2.7,1.2c.2.6.3,1.1.5,1.7.5,1.9,3.3,1.1,2.9-.8a9.54,9.54,0,0,0-3.9-6c-1.4-1.1-3,1.2-1.8,2.4a13.65,13.65,0,0,1,1.9,2.3c.9-.5,1.7-1,2.6-1.5a13.9,13.9,0,0,0-4.6-4.1c-1.5-.9-2.9,1.1-1.8,2.4s2.1,2.4,3.2,3.6l2.1-2.1a16.22,16.22,0,0,0-4.4-3.4,1.56,1.56,0,0,0-2.1,2.1,10.76,10.76,0,0,0,4.5,4.2c1.4.7,3.1-1.1,1.8-2.4l-3.9-3.6a1.49,1.49,0,0,0-2.1,2.1,33.65,33.65,0,0,0,5.2,4.8A1.5,1.5,0,0,0,126,45a5.74,5.74,0,0,0-1.6-2.7c-1.3-1.4-3.3.7-2.1,2.1a25.47,25.47,0,0,1,2.6,3.8c.8,1.4,3.3.5,2.7-1.2-.1-.3-.3-.7-.4-1a1.5,1.5,0,0,0-2.9.8c.2.8.4,1.5.6,2.2.5,1.6,3,1.3,2.9-.4a10.9,10.9,0,0,0-.3-2.6c-.4-1.9-3.3-1.1-2.9.8a12.42,12.42,0,0,1,.4,3.3c.9-.3,1.9-.5,2.8-.8a9.13,9.13,0,0,0-1.5-2.3c-1.1-1.2-3.4.4-2.4,1.8a31.12,31.12,0,0,0,2.3,2.8c1.1,1.3,3.2-.4,2.4-1.8-.3-.4-.5-.9-.8-1.3-.9-1.4-3.3-.5-2.7,1.2.1.3.2.6.3,1,1-.3,1.9-.5,2.9-.8a9.43,9.43,0,0,0-1-2.3c-.7-1.5-2.6-.5-2.8.8,0,.2-.1.4-.1.7,1-.1,2-.3,2.9-.4a4.15,4.15,0,0,0-1.2-2c-1-1-2.4-.2-2.6,1.1a1.27,1.27,0,0,1-.1.6c.9-.3,1.9-.5,2.8-.8a8.17,8.17,0,0,1-1.2-2l-2.4,1.8c.4.5.9,1,1.3,1.5l2.1-2.1a37.12,37.12,0,0,0-3.2-2.3,1.51,1.51,0,0,0-1.8,2.4,16.3,16.3,0,0,0,2.9,2.3,1.56,1.56,0,0,0,2.1-2.1c-.4-.8-.7-1.6-1.1-2.4l-2.4,1.8,1,1,2.1-2.1-3-2.4c-1.4-1.1-2.8,1.1-1.8,2.4a3.49,3.49,0,0,0,1.5,1.2,1.52,1.52,0,0,0,1.8-2.4,9.74,9.74,0,0,0-4.8-2.8,1.52,1.52,0,0,0-1.5,2.5,8.77,8.77,0,0,0,2.7,1.9c1.4.7,3.2-1.2,1.8-2.4a20.57,20.57,0,0,1-2.9-3l-1.8,2.4c1.1.8,2.2,1.7,3.4,2.5,1.4,1,3-1.2,1.8-2.4-1-1-1.9-2-2.8-3-.5.8-1,1.7-1.5,2.5a6.81,6.81,0,0,1,2.4.8c2.5.6,4-2,2.3-3Z" transform="translate(-70.9 -26.18)"/><path class="cls-1" d="M124,39.1a20.63,20.63,0,0,1-4.6-3.1c-1.4-1.3-3.5.8-2.1,2.1a25.14,25.14,0,0,0,4.1,3.2,1.51,1.51,0,0,0,1.8-2.4c-1-1.1-1.9-2.2-2.8-3.4L118,37.3a28,28,0,0,1,3.8,3.9,21.31,21.31,0,0,0,2.2-2.1l-3-3-2.1,2.1c1.4,1.3,2.9,2.6,4.3,3.9l2.1-2.1c-1.6-1.3-3.1-2.7-4.7-4l-1.8,2.4a32.53,32.53,0,0,1,4.2,3.1c1.5,1.2,3.6-.8,2.1-2.1s-2.8-2.5-4.2-3.7l-2.1,2.1c1.6,1.3,3.1,2.6,4.7,3.8s3.6-.9,2.1-2.1-3.1-2.6-4.7-3.8-3.6.8-2.1,2.1,2.8,2.5,4.2,3.7l2.1-2.1a42.91,42.91,0,0,0-4.8-3.6,1.52,1.52,0,0,0-1.8,2.4c1.6,1.3,3.1,2.7,4.7,4s3.6-.8,2.1-2.1-2.9-2.6-4.3-3.9-3.5.8-2.1,2.1c1,1,2,2,3,3.1,1.2,1.4,3.2-.7,2.1-2.3a46.83,46.83,0,0,0-3.9-3.8c-1.2-1-3.4.3-2.4,1.8s2.1,2.7,3.2,4l1.8-2.4a18.71,18.71,0,0,1-3.5-2.8L117.1,38a26.78,26.78,0,0,0,5.2,3.6c1.9,1,3.5-1.6,1.7-2.5Z" transform="translate(-70.9 -26.18)"/><path class="cls-1" d="M101.7,33.2a9.2,9.2,0,0,1-4.6-1.1,25.12,25.12,0,0,1-.4,2.7c.1,0,3.2-.8,2.8.1-.1.1-1.7.2-1.6,0,.3-.6,2.3-.2,2.1-.6.3,1-2.9,1.1-3.2,1.1-.6,0-2.8.2-.2-.3,1-.2,1.8-.4.6.3a24,24,0,0,1-2.3,1.1c.7-.3,1.5-.9,2.3-.8l-1-1c.1.3-2.3,1-2.4,1-1.7.3-.4-.6.9-.3l-1-1c-1-.1-1.3.2-.9,1,0,.8.4,1.1,1.3.7-.4-.9-.7-1.7-1.1-2.6-.3,1.4.2,1.9,1.3,1.6-.3-.9-.5-1.9-.8-2.8-.3.2-3.4,1.6-3.6,1.1-.1.5-.3,1-.4,1.5.5-.3,1.1-.6,1.7-.9,1.4-.3,1.8-.5,1.1-.6-.2-.6-.5-1.1-.7-1.7a3.46,3.46,0,0,1-1.6.8c.4.2.9.5,1.3.7a1,1,0,0,0,1.5.6c-.5-.8-1-1.7-1.5-2.5-.5.3-.9.6-1.4.9-.1.5-.3,1-.4,1.5a5.39,5.39,0,0,1,4-1.3c-.3-.9-.5-1.9-.8-2.8l-1.4.3c.3.9.5,1.9.8,2.8a4.55,4.55,0,0,1,2.8-.5c-.1-1-.3-2-.4-2.9a14.45,14.45,0,0,1-5.5.9c.4.9.7,1.7,1.1,2.6A8.07,8.07,0,0,1,94,31.1l-1.2-2.7a28.27,28.27,0,0,1-3.1,1.1,1.5,1.5,0,0,0,.8,2.9c1.3-.2,2.6-.4,3.8-.6-.5-.8-1-1.7-1.5-2.5-.1,0-.1.1-.2.1v2.9a19.09,19.09,0,0,1,3.3-.6c1.9-.2,2-3,0-3H93.4v3l4.3-.3c-.1-1-.3-2-.4-2.9a.9.9,0,0,0-.5.1c-.7.1-1,.8-1.1,1.4a.9.9,0,0,1-.1.5c-.2,1.9,2.8,1.9,3,0a.9.9,0,0,1,.1-.5,17.1,17.1,0,0,1-1.1,1.4.9.9,0,0,0,.5-.1c1.7-.2,1.3-3-.4-2.9l-4.3.3c-1.9.1-1.9,3,0,3h2.5v-3c-1.4.2-2.7.4-4.1.7a1.51,1.51,0,0,0,0,2.9,3.26,3.26,0,0,0,3.1-.9c1.2-1.1-.1-2.7-1.5-2.5s-2.6.4-3.8.6c.3,1,.5,1.9.8,2.9,1.3-.4,2.5-.9,3.8-1.4,1.7-.7.4-3-1.2-2.7a10.85,10.85,0,0,0-5.3,2.5c-1.1.9-.1,2.5,1.1,2.6a19.32,19.32,0,0,0,6.3-1,1.48,1.48,0,0,0-.4-2.9,10.36,10.36,0,0,0-4.3.9c-1.4.6-.6,2.8.8,2.8a5.92,5.92,0,0,0,2.9-.7,1.52,1.52,0,0,0-.8-2.8,8.25,8.25,0,0,0-6.1,2.2,1.67,1.67,0,0,0-.4,1.5c.8,3,4.8,1.7,6.4.4,1.3-1-.2-2.7-1.5-2.5-1.5.2-5.4,2-3.1,4.1,1.6,1.4,5.3-.8,5.6-2.6a1.62,1.62,0,0,0-.7-1.7c-1.9-1.1-5,.6-6.5,1.9a1.67,1.67,0,0,0-.4,1.5c.9,3.3,5.9,2.1,8,.7a1.52,1.52,0,0,0-.8-2.8c-2-.2-5.4,1.2-4.8,3.7.7,3,4.3,1.3,5.6-.2a1.57,1.57,0,0,0-1.1-2.6c-1.5-.1-4.1.4-4.5,2.3-.3,1.6,1,2.5,2.4,2.4a5.52,5.52,0,0,0,4.5-2.5,2,2,0,0,0-1.3-2.9c-3.3-.9-8.7,3.4-4.2,5.7,2.7,1.4,9.4-.3,8.2-4.3a1.17,1.17,0,0,0-1-1c-2.1-.3-6,.8-6.4,3.2-.5,3.1,3.7,3.4,5.8,2.7s5.2-3.6,3-5.8c-1.7-1.7-5.9-1-7.3.9-3.1,4.3,9.5,7.6,10.2.4.6-6.2-12.8-1-7.7,3.1,2.1,1.7,7,.9,8-1.8,1.5-4.3-5.2-4.1-7.5-3.4a1.48,1.48,0,0,0-.4,2.7,13.1,13.1,0,0,0,6.1,1.5c2.2-.3,2.2-3.3.3-3.3Z" transform="translate(-70.9 -26.18)"/><path class="cls-1" d="M100.2,33.9c-.7-.4-1.4-.7-2.2-1.1-.3.9-.5,1.9-.8,2.8a34,34,0,0,1,4.6,0c1.3-.5,1.6-2.4,3.9-1.9a17.1,17.1,0,0,0-1.1-1.4,22.5,22.5,0,0,1,.8,2.4l-1.5-1.5c-.4.1-.8.3-1.3.4.6.7,1.1,1.5,1.7,2.2.3-.2.7-.4,1-.6-.6-.7-1.1-1.5-1.7-2.2-.3.3-.6.7-.9,1l1.8,2.4c.2-.2.5-.3.7-.5-.6-.7-1.1-1.5-1.7-2.2.1.7.3,1.3.4,2l-1.8-2.4c2-2.1-7,3.7-4.2,3.2-.6-.7-1.1-1.5-1.7-2.2,1.1-2.3,2.6-2,4.6-1.4a25.12,25.12,0,0,0-.4-2.7l-4.2.6v2.9a5.82,5.82,0,0,1,3.7-.5c-.4-.9-.7-1.7-1.1-2.6-1,.1-2,.3-2.9.4a25.12,25.12,0,0,0,.4,2.7,5.72,5.72,0,0,1,5-1.2c-.1-1-.3-2-.4-2.9a19,19,0,0,1-5.8.9c.3.9.5,1.9.8,2.8l3.7-.3a23.35,23.35,0,0,0-.7-2.5c-1.7,1.8-3.6,2.2-5.6,1.2v2.9c2.2-.9,6.1-2.4,8.5-1.2-.2-.6-.5-1.1-.7-1.7-.3,1.1-5.2.5-5.8.4.3.9.5,1.9.8,2.8a15.28,15.28,0,0,1,9.2-1.2,25.12,25.12,0,0,0-.4-2.7c-1.3.1-2.6.1-3.9.2a25.12,25.12,0,0,1-.4,2.7,14.9,14.9,0,0,1,10.2,0V31a7.23,7.23,0,0,1-6.1-.3c-.3.9-.5,1.9-.8,2.8,1.4.1,6.4-.2,7.1,1.6.3-.6.7-1.2,1-1.8a6.55,6.55,0,0,1-5.3-.8c-.3.9-.5,1.9-.8,2.8A12.73,12.73,0,0,1,114,37c.3-.9.5-1.9.8-2.8a25.11,25.11,0,0,1-8.6-1.5v2.9a9.71,9.71,0,0,1,8.5,2l1.2-2.7c-1-.6-2.1-1.3-3.1-1.9-.5.8-1,1.7-1.5,2.5a10,10,0,0,1,5.4,3.8l2.1-2.1c-.8-.5-1.7-1-2.5-1.5a1.52,1.52,0,0,0-1.8,2.4,32.64,32.64,0,0,0,3.6,2.9c1.2.8,3-.9,2.1-2.1a17.84,17.84,0,0,0-2.2-2.6l-2.1,2.1a12.06,12.06,0,0,1,2.4,2.1l2.1-2.1c-.9-.7-1.2-.9-2.1-1.5-1.4-.8-3.1,1.2-1.8,2.4.5.5,1.1,1,1.6,1.5.5-.8,1-1.7,1.5-2.5-.8-.4-1.6-.9-2.4-1.3-1.6-1.1-3.1,1.5-1.5,2.6l2.1,1.5,1.2-2.7c-.8-.3-1.7-.7-2.5-1l-1.2,2.7c1.2.4,2.3.7,3.5,1.1.3-1,.5-1.9.8-2.9-.7-.3-1.4-.5-2.2-.8-1.4-.8-3.2,1.2-1.8,2.4,1,.8,1.9,1.6,2.9,2.4l2.1-2.1a7,7,0,0,0-1-.8l-1.8,2.4c.3.1.7.3,1,.4,1.1.5,2.7-.3,2.2-1.7-.2-.4-.3-.8-.5-1.3L118.7,41c.4.1.9.3,1.3.4a1.46,1.46,0,0,0,1.8-1.8l-.6-2.1c-.7.6-1.5,1.1-2.2,1.7l1.2.9c1,.7,2.7-.5,2.2-1.7-.1-.4-.3-.8-.4-1.1-.7.6-1.5,1.1-2.2,1.7a4.35,4.35,0,0,0,.7.4c.5-.9,1-1.7,1.5-2.6a63.88,63.88,0,0,0-16.8-6.6c-.1,1-.3,2-.4,2.9l7.2.9c1.6.2,1.9-2.1.8-2.8-.3-.2-.5-.3-.8-.5-1.6-1.1-3.1,1.5-1.5,2.6.3.2.5.3.8.5.3-.9.5-1.9.8-2.8l-7.2-.9c-1.7-.2-2,2.6-.4,2.9a58.63,58.63,0,0,1,16.1,6.3,1.5,1.5,0,0,0,1.5-2.6,4.35,4.35,0,0,0-.7-.4c-1-.6-2.7.4-2.2,1.7.1.4.3.8.4,1.1.7-.6,1.5-1.1,2.2-1.7l-1.2-.9a1.5,1.5,0,0,0-2.2,1.7l.6,2.1,1.8-1.8c-.4-.1-.9-.3-1.3-.4-1-.3-2.3.8-1.8,1.8.2.4.3.8.5,1.3.7-.6,1.5-1.1,2.2-1.7-.3-.1-.7-.3-1-.4-1.4-.6-3.3,1.2-1.8,2.4a7,7,0,0,0,1,.8c1.5,1.2,3.6-.9,2.1-2.1-1-.8-1.9-1.6-2.9-2.4L116,40.2a6.06,6.06,0,0,0,2.9,1.1,1.5,1.5,0,0,0,.8-2.9c-1.2-.4-2.3-.7-3.5-1.1A1.5,1.5,0,0,0,115,40a8,8,0,0,0,3.2,1.3,1.5,1.5,0,0,0,1.2-2.7l-2.1-1.5c-.5.9-1,1.7-1.5,2.6a11.39,11.39,0,0,0,3.1,1.6c1.4.6,2.5-1.5,1.5-2.5-.5-.5-1.1-1-1.6-1.5L117,39.7c.5.3,1,.7,1.5,1,1.5,1.2,3.6-.8,2.1-2.1a16.41,16.41,0,0,0-2.4-2.1c-1.5-1.2-3.5.7-2.1,2.1l1.7,2,2.1-2.1a14.25,14.25,0,0,1-3-2.5l-1.8,2.4c.8.5,1.7,1,2.5,1.5,1.2.7,3-.8,2.1-2.1a13.52,13.52,0,0,0-7.2-5.2,1.52,1.52,0,0,0-1.5,2.5,9.91,9.91,0,0,0,4.5,2.7c1.8.5,2.4-1.8,1.2-2.7a12.36,12.36,0,0,0-10.8-2.3c-1.6.3-1.3,2.4,0,2.9a27.32,27.32,0,0,0,9.4,1.6,1.52,1.52,0,0,0,.8-2.8,16.17,16.17,0,0,0-9.6-2.1,1.52,1.52,0,0,0-.8,2.8,10.8,10.8,0,0,0,7.7,1.2,1.43,1.43,0,0,0,1-1.8c-1.4-3.8-6.5-3.6-9.9-3.8-1.4-.1-2.1,2.2-.8,2.8a11.37,11.37,0,0,0,8.5.6,1.51,1.51,0,0,0,0-2.9,17.1,17.1,0,0,0-11.8,0A1.51,1.51,0,0,0,100,34a6,6,0,0,0,6.9-.2c1-.7,1-2.5-.4-2.7A18.28,18.28,0,0,0,95,32.6c-1.5.7-.5,2.6.8,2.8,2.6.3,7.9.7,8.7-2.6a1.62,1.62,0,0,0-.7-1.7c-3.3-1.6-7.6-.4-10.8.9a1.53,1.53,0,0,0,0,2.9,7.55,7.55,0,0,0,8.5-1.9,1.51,1.51,0,0,0-.7-2.5,7,7,0,0,0-6,.6,1.52,1.52,0,0,0,.8,2.8,21.14,21.14,0,0,0,6.6-1,1.48,1.48,0,0,0-.4-2.9,9.91,9.91,0,0,0-6.5,1.6,1.48,1.48,0,0,0,.4,2.7,5.06,5.06,0,0,0,5.9-1.2,1.55,1.55,0,0,0-1.1-2.6,11.66,11.66,0,0,0-4.5.6c-1.2.4-1.6,2.6,0,2.9a9.81,9.81,0,0,0,6.5-1,1.48,1.48,0,0,0-.4-2.7c-1.9-.6-5.1-1.5-6.8.1a3,3,0,0,0-.1,4.1c2.2,2.4,8.2.6,6.6-3.2-1.5-3.4-8.1-.7-8.7,2.1-1,4.8,5.5,3.3,7.2.9a1.36,1.36,0,0,0,0-1.5A3.54,3.54,0,0,0,94,35.1a2.7,2.7,0,0,0,5.2,1.1A1.53,1.53,0,0,0,97.5,34c-6.8,1.1-.5,8.4,3.5,4.1,3.8-4-5-7-6.9-3.5a1.59,1.59,0,0,0,0,1.5c2.6,3.6,7.8,2.4,10.5-.3a1.52,1.52,0,0,0-1.8-2.4c-3.4,2.1.8,6.3,3.7,2.1a1.52,1.52,0,0,0-1.7-2.2,3.36,3.36,0,0,0-2,1.3,1.52,1.52,0,0,0,1.8,2.4,3.22,3.22,0,0,0,2-2.1,1.52,1.52,0,0,0-1.7-2.2c-1.6.4-1.8.7-2.8,2-.8,1.1.5,2.5,1.7,2.2,2.2-.5,3.2-1.1,3.5-3.3a1.47,1.47,0,0,0-1.5-1.5c-2.4.2-7.4,3-3.7,5.7,3,2.1,6.1-2.5,5.9-5.1a1.39,1.39,0,0,0-1.1-1.4c-2.4-.5-8.2,1.2-6.9,4.6s7.3,1.5,8.3-1.1c2-5-5.2-4.2-7.6-2.4-3,2.3-1.2,6.3,2.5,5.8,3.3-.4,6.2-5,2.8-7.2-2.7-1.8-9.7.8-8.9,4.7.6,3,7.3,4.7,9,2,2.9-4.5-6.3-5-8.5-4.7a1.54,1.54,0,0,0-.8,2.8,9.75,9.75,0,0,0,2.9,1.4c1.6.2,2.3-2.7.5-3.3Z" transform="translate(-70.9 -26.18)"/><path class="cls-1" d="M116.5,33.6a9.5,9.5,0,0,1-1.7-1c-1.6-1.1-3,1.5-1.5,2.6a38.37,38.37,0,0,0,5,3.2c.5-.9,1-1.7,1.5-2.6a31,31,0,0,1-4.7-2.6,1.52,1.52,0,0,0-1.8,2.4,32.73,32.73,0,0,0,4.6,3.5c.5-.9,1-1.7,1.5-2.6a33.18,33.18,0,0,1-5.5-4.4l-1.8,2.4a33.2,33.2,0,0,0,5.9,2.4c1.7.6,2.5-1.9,1.2-2.7-1.6-1-3.1-2-4.7-3l-1.2,2.7c1.3.4,2.6.7,3.9,1.1a1.5,1.5,0,0,0,1.2-2.7c-1.1-.8-2.3-1.5-3.4-2.3-.5.9-1,1.7-1.5,2.6.9.5,1.8.9,2.7,1.4l1.2-2.7c-1.5-.5-3-1.1-4.5-1.6-.3,1-.5,1.9-.8,2.9,1.3.5,2.5.9,3.8,1.4.1-1,.3-2,.4-2.9a15.94,15.94,0,0,1-3-.6,1.54,1.54,0,0,0-1.5,2.5,30.92,30.92,0,0,0,3.9,3.3l1.2-2.7a14.66,14.66,0,0,1-6-2.6c-.5.8-1,1.7-1.5,2.5a54.19,54.19,0,0,1,7,1.4c.1-1,.3-2,.4-2.9-2.3-.3-4.2-1.9-6.5-1.8-1.9.1-1.9,3.1,0,3,1.2,0,2.2.8,3.3,1.1a18.34,18.34,0,0,0,3.2.7c1.7.2,2-2.5.4-2.9-2.3-.6-4.6-1-7-1.4-1.3-.2-2.8,1.5-1.5,2.5a16.89,16.89,0,0,0,7.3,3.4,1.5,1.5,0,0,0,1.2-2.7,22.2,22.2,0,0,1-3.3-2.8c-.5.8-1,1.7-1.5,2.5a16,16,0,0,0,3.8.7c1.8.2,1.9-2.4.4-2.9-1.3-.5-2.5-.9-3.8-1.4-1.8-.7-2.6,2.2-.8,2.9,1.5.5,3,1.1,4.5,1.6s2.7-2,1.2-2.7c-.9-.5-1.8-.9-2.7-1.4a1.5,1.5,0,0,0-1.5,2.6c1.1.8,2.3,1.5,3.4,2.3l1.2-2.7c-1.3-.4-2.6-.7-3.9-1.1a1.5,1.5,0,0,0-1.2,2.7c1.6,1,3.1,2,4.7,3l1.2-2.7a47.07,47.07,0,0,1-5.2-2.1,1.52,1.52,0,0,0-1.8,2.4,40.27,40.27,0,0,0,6.1,4.8c1.6,1,3.1-1.6,1.5-2.6a37.92,37.92,0,0,1-4-3l-1.8,2.4a26.83,26.83,0,0,0,4.7,2.6c1.7.8,3.2-1.6,1.5-2.6s-3.4-2.1-5-3.2c-.5.9-1,1.7-1.5,2.6a15.05,15.05,0,0,0,1.7,1c1.7.1,3.2-2.4,1.4-3.2Z" transform="translate(-70.9 -26.18)"/><path class="cls-1" d="M97.1,30.6h-.3c.6.2,1.1.5,1.7.7-.1-.1-.1-.2-.2-.3-.3.7-.6,1.5-.9,2.2a9.07,9.07,0,0,1,4.6-.4c-.1-1-.3-2-.4-2.9a15.48,15.48,0,0,1-7.4.6,23.35,23.35,0,0,0,.7,2.5c.6-.3,1.2-.5,1.7-.8-.4-.9-.7-1.7-1.1-2.6-.7.3-1.5.6-2.2.9.4.8.9,1.5,1.3,2.3a5,5,0,0,0-5,0c.3.9.5,1.9.8,2.8a22.75,22.75,0,0,1,2.6-.2,25.12,25.12,0,0,0-.4-2.7c-1.1.4-2.3.7-3.4,1.1-1.9.2-1.9,3.2,0,3,1,.1,2,.1,3,.2-.2-.6-.5-1.1-.7-1.7L90.3,35a25.12,25.12,0,0,1-.4,2.7c3.8,1.3,5,.8,3.5-1.4A25.12,25.12,0,0,1,93,39a10.78,10.78,0,0,1,7.9-.3,25.12,25.12,0,0,0-.4-2.7,5,5,0,0,1-5.1.5,25.12,25.12,0,0,0,.4,2.7,25,25,0,0,0,2.6-.7c-.3-.9-.5-1.9-.8-2.8-1.1.1-2.2.2-3.3.2-1.9-.5-2.5,2.2-.8,2.9.6.4,1.2.7,1.7,1.1.4-.9.7-1.7,1.1-2.6-1.1-.2-2.3-.3-3.4-.5l-1.2,2.7A21.9,21.9,0,0,1,95,40.7c.3-1,.5-1.9.8-2.9a6,6,0,0,1-3.2-1.5c-.3.9-.5,1.9-.8,2.8a5.14,5.14,0,0,1,4.1,1.5c.5-.9,1-1.7,1.5-2.6-.7-.3-1.4-.7-2.1-1l-1.2,2.7a42.12,42.12,0,0,0,8.7.9c1.6,0,2.1-2.7.4-2.9-1.9-.3-3.8-.5-5.7-.8v2.9a16.9,16.9,0,0,1,6.3-.9c-.1-1-.3-2-.4-2.9l-4,.3a25.12,25.12,0,0,0,.4,2.7,12.87,12.87,0,0,1,5.2-1.3c-.4-.9-.7-1.7-1.1-2.6a5.9,5.9,0,0,1-4,2.3c.5.8,1,1.7,1.5,2.5,1.2-.4,2.5-.9,3.7-1.3-.4-.8-.9-1.5-1.3-2.3-.6.6-1.3,1.1-1.9,1.7.6.7,1.1,1.5,1.7,2.2l3.2-2.3c-.6-.7-1.1-1.5-1.7-2.2-.9.6-1.7,1.3-2.6,1.9.6.3,1.2.7,1.8,1,1.1-.7,2.1-1.4,3.2-2l-1.8-1.8c-.3.4-.5.9-.8,1.3.3.6.7,1.2,1,1.8,2,.1,4,.1,6,.2.4-.9.7-1.7,1.1-2.6a9.88,9.88,0,0,1-4.5-1c-.3.9-.5,1.9-.8,2.8,1.5.5,3,.9,4.5,1.4.4-.9.7-1.7,1.1-2.6-.8-.2-1.7-.5-2.5-.7l-1.2,2.7c1.4.3,2.8.7,4.2,1.1,1.6.5,2.7-2.1,1.2-2.7l-1.5-.6c-1.7-.7-3.3,1.6-1.5,2.6a7.84,7.84,0,0,1,1.8,1.1l1.2-2.7c-.7-.3-1.3-.6-2-.9-.5.9-1,1.7-1.5,2.6.9.5,1.8.9,2.7,1.4.5-.9,1-1.7,1.5-2.6-.6-.3-1.1-.5-1.7-.8l-1.2,2.7a6,6,0,0,0,1.9.6,1.53,1.53,0,0,0,1.5-2.5c-.5-.5-1.1-1-1.6-1.5-1.4-1.3-3.5.8-2.1,2.1a5.65,5.65,0,0,0,2.4,1.6,1.5,1.5,0,0,0,1.5-2.6c-.7-.6-1.5-1.1-2.2-1.7-.5.9-1,1.7-1.5,2.6a10,10,0,0,0,2.9,1,1.5,1.5,0,0,0,1.2-2.7,9.48,9.48,0,0,0-2.7-1.7l-1.2,2.7c.9.3,1.8.5,2.7.8a1.5,1.5,0,0,0,1.2-2.7c-.9-.5-1.8-1.1-2.7-1.6l-1.2,2.7c.9.2,1.7.5,2.6.7a1.5,1.5,0,0,0,.8-2.9c-.9-.2-1.7-.5-2.6-.7-1.6-.4-2.6,1.9-1.2,2.7.9.5,1.8,1.1,2.7,1.6l1.2-2.7c-.9-.3-1.8-.5-2.7-.8-1.6-.5-2.7,2-1.2,2.7a7.71,7.71,0,0,1,2.7,1.7l1.2-2.7a18.66,18.66,0,0,1-2.2-.7,1.5,1.5,0,0,0-1.5,2.6c.7.6,1.5,1.1,2.2,1.7.5-.9,1-1.7,1.5-2.6-.6-.4-1.2-.7-1.7-1.1L112.6,38c.5.5,1.1,1,1.6,1.5.5-.8,1-1.7,1.5-2.5a6,6,0,0,1-1.9-.6c-1.6-.6-2.7,2-1.2,2.7.6.3,1.1.5,1.7.8,1.7.8,3.3-1.7,1.5-2.6-.9-.5-1.8-.9-2.7-1.4a1.5,1.5,0,0,0-1.5,2.6,13.07,13.07,0,0,0,2.7,1.2c1.7.6,2.5-1.8,1.2-2.7a17.39,17.39,0,0,0-1.8-1.1c-.5.9-1,1.7-1.5,2.6l1.5.6,1.2-2.7c-1.4-.4-2.8-.8-4.2-1.1-1.6-.4-2.8,2-1.2,2.7a9.59,9.59,0,0,0,4,1.1c1.2.2,2-1.8,1.1-2.6a8.94,8.94,0,0,0-6.6-2.3c-1.4,0-2.2,2.1-.8,2.8a15.5,15.5,0,0,0,6,1.4,1.56,1.56,0,0,0,1.1-2.6c-2-1.9-6.4-4.2-8.6-1.1-1.3,1.8-.1,5.1,2.5,4.6,2.3-.4,2.4-3.4.9-4.7-2.2-1.9-5.2.1-5.9,2.4a1.47,1.47,0,0,0,1,1.8c2.3,1,4.1-1.3,4.4-3.4a1.46,1.46,0,0,0-1.8-1.8c-2.6.4-5.9,3.1-3.6,5.7a1.67,1.67,0,0,0,1.5.4,5.64,5.64,0,0,0,3.9-3.6,1.44,1.44,0,0,0-.4-1.5c-3.2-2.8-7.3,1.2-6.7,4.7a1.36,1.36,0,0,0,1.8,1,7.67,7.67,0,0,0,4.4-3.3c.8-1.2-.5-2.4-1.7-2.2a6,6,0,0,0-5,3.6c-.5,1,.4,2.7,1.7,2.2a6.31,6.31,0,0,0,3.7-3.1,1.57,1.57,0,0,0-1.3-2.3,7.83,7.83,0,0,0-5.8,2.2c-1.2,1,.1,2.8,1.5,2.5a9.9,9.9,0,0,0,5.4-3.1,1.56,1.56,0,0,0-1.1-2.6,17.46,17.46,0,0,0-6.7,1.7,1.48,1.48,0,0,0,.4,2.7,10.63,10.63,0,0,0,5.6-.3,1.48,1.48,0,0,0-.4-2.9,18.82,18.82,0,0,0-7.1,1c-1.2.4-1.6,2.7,0,2.9,1.9.3,3.8.5,5.7.8.1-1,.3-2,.4-2.9a41.46,41.46,0,0,1-7.9-.7c-1.6-.3-2.8,2-1.2,2.7.7.3,1.4.7,2.1,1a1.5,1.5,0,0,0,1.5-2.6,9.52,9.52,0,0,0-5.7-1.9c-1.6,0-1.8,2-.8,2.8a8.68,8.68,0,0,0,3.9,1.8c1.9.5,2.5-2.2.8-2.9a18.54,18.54,0,0,0-3.3-1.2c-1.6-.5-2.7,2.1-1.2,2.7a8.3,8.3,0,0,0,4.9.9,1.56,1.56,0,0,0,1.1-2.6,7.46,7.46,0,0,0-3.1-1.8c-.3,1-.5,1.9-.8,2.9a8.27,8.27,0,0,0,5.6-.5c1.4-.6.6-2.8-.8-2.8A7.44,7.44,0,0,0,94,36.1a1.48,1.48,0,0,0,.4,2.7,8.4,8.4,0,0,0,7.4-.8,1.48,1.48,0,0,0-.4-2.7,13,13,0,0,0-9.5.3,1.51,1.51,0,0,0-.4,2.7c1.6,1,6.3,2.2,6.5-1.1.2-3.9-7-3.3-9.2-3-1.3.2-1.4,2.2-.4,2.7C90.5,38,93.1,38,94,35.4a1.62,1.62,0,0,0-.7-1.7c-1.3-.9-3-.7-4.6-.6v3a12.61,12.61,0,0,0,5-1.5,1.48,1.48,0,0,0-.4-2.7,5.66,5.66,0,0,0-4.9.5,1.52,1.52,0,0,0,.8,2.8c2.3-.1,8-1.5,7.4-4.8-.5-3-3.9-1.3-5,.3A1.55,1.55,0,0,0,92.9,33a6.93,6.93,0,0,0,4.3-1.8,1.54,1.54,0,0,0-1.1-2.6,6.56,6.56,0,0,0-3.9,1.7,1.48,1.48,0,0,0,.7,2.5,21,21,0,0,0,9-.6,1.48,1.48,0,0,0-.4-2.9,14,14,0,0,0-5.4.5,1.49,1.49,0,0,0-.9,2.2c.1.1.1.2.2.3a1.62,1.62,0,0,0,1.7.7h.3c2.4.2,1.6-2.7-.3-2.4Z" transform="translate(-70.9 -26.18)"/><path class="cls-1" d="M103.4,38.9c2.1-.5,4.1-.9,6.2-1.2a23.07,23.07,0,0,1-1.4-1.9c-.1.3-3,1.3-2.9,1.3.4.2.9.5,1.3.7.9,1.5,1.4-.5,1.8-.2-.2-.6-.5-1.1-.7-1.7a2.19,2.19,0,0,1-1.3,1.2l1.2,2.7a12,12,0,0,1,3.1-1.3c-.6-.7-1.1-1.5-1.7-2.2a1.65,1.65,0,0,1-1.9,1.1c.3.9.5,1.9.8,2.8a10.1,10.1,0,0,1,3.3-1.2c-.5-.8-1-1.7-1.5-2.5a3.6,3.6,0,0,1-2.1,1.3l1.2,2.7a13.81,13.81,0,0,1,2.9-1.7c-.7-.6-1.5-1.1-2.2-1.7-.1.3-.1.5-.2.8-.2,1,.7,2.3,1.8,1.8a17.55,17.55,0,0,0,2.4-1.1l-1.8-2.4a9.8,9.8,0,0,1-2.3,1.7c-1.7,1-.2,3.4,1.5,2.6a13.09,13.09,0,0,1,2.8-.9c-.5-.8-1-1.7-1.5-2.5l-1.2.6c.3,1,.5,1.9.8,2.9a15.25,15.25,0,0,1,3.7-.8c1.9-.2,1.9-3.2,0-3a35.83,35.83,0,0,0-4.5.9c-1.8.6-1.1,3.5.8,2.9a6.21,6.21,0,0,0,2.5-1.4c1.2-1-.1-2.8-1.5-2.5a20.63,20.63,0,0,0-3.5,1.2c.5.9,1,1.7,1.5,2.6a12.34,12.34,0,0,0,2.9-2.2,1.52,1.52,0,0,0-1.8-2.4,5.31,5.31,0,0,1-1.7.8l1.8,1.8c.1-.3.1-.5.2-.8A1.52,1.52,0,0,0,110,36a13.81,13.81,0,0,0-2.9,1.7,1.49,1.49,0,0,0,1.2,2.7,6.21,6.21,0,0,0,3.4-2,1.53,1.53,0,0,0-1.5-2.5,14.93,14.93,0,0,0-4,1.5,1.52,1.52,0,0,0,.8,2.8,4.83,4.83,0,0,0,4.5-2.6,1.52,1.52,0,0,0-1.7-2.2A18,18,0,0,0,106,37c-1.4.8-.4,3.4,1.2,2.7s3.1-1.6,3.4-3.3a1.48,1.48,0,0,0-.7-1.7c-1.9-1.4-7.6,1.6-5.9,4.3a1.46,1.46,0,0,0,1.3.7c1.8-.1,5.4-1.4,5.7-3.5.1-.9-.4-2-1.4-1.9a54,54,0,0,0-7,1.3c-1.8.9-1,3.8.8,3.3Z" transform="translate(-70.9 -26.18)"/><path class="cls-1" d="M98.9,38.4a.9.9,0,0,0-.5.1c-1.9-.4-2.7,2.5-.8,2.9l1.4.3c.1-1,.3-2,.4-2.9a4.71,4.71,0,0,1-1.7-.4c-.3,1-.5,1.9-.8,2.9,1.2.4,2.4.7,3.6,1.1V39.5c-.7-.1-1.3-.1-2-.2-1.6-.8-2.8,1-1.8,2.4a3.23,3.23,0,0,0,1.4,1.2l1.2-2.7c-.6-.1-1.2-.3-1.8-.4C96,39.1,94.7,41,95.9,42a5.37,5.37,0,0,0,1.6,1c.3-.9.5-1.9.8-2.8h-.6c-1.6.1-2.2,2.7-.4,2.9a23.36,23.36,0,0,1,2.6.4c.1-1,.3-2,.4-2.9a4.1,4.1,0,0,1-1.1-.1c-1.7-.1-2.1,2.6-.4,2.9a12.58,12.58,0,0,0,5.1.3c1.6-.4,2.7-1.6,4.4-1.8-.3-1-.5-1.9-.8-2.9l-2.3.6,1.2,2.7a33.5,33.5,0,0,1,4.5-2.7l-2.1-2.1a3.51,3.51,0,0,1-.8.5c.5.9,1,1.7,1.5,2.6.4-.2.7-.3,1.1-.5-.6-.7-1.1-1.5-1.7-2.2-.1.2-.3.3-.4.5l1.8,2.4v.1c-.5-.8-1-1.7-1.5-2.5a11.56,11.56,0,0,1-4.8,2.1l1.2,2.7c1.5-.8,3-1.5,4.5-2.2s.4-3.1-1.2-2.7a21.57,21.57,0,0,1-7.6.6v2.9a6.92,6.92,0,0,1,3.5,0V38.9a11.81,11.81,0,0,1-4.2.1c-1.8-.2-1.9,2.4-.4,2.9,1,.3,2,.7,3,1,.1-1,.3-2,.4-2.9-.6,0-1.2.1-1.8.1A1.48,1.48,0,0,0,101,43l1,.3c1.9.5,2.5-2.2.8-2.9a6.36,6.36,0,0,0-1.8-.6c-.1,1-.3,2-.4,2.9,1.5,0,3,0,4.5-.1a1.48,1.48,0,0,0,.4-2.9c-.5-.1-.9-.3-1.4-.4-.1,1-.3,2-.4,2.9a8.17,8.17,0,0,0,2.7-.1c1.2-.2,1.3-1.8.7-2.5a5.26,5.26,0,0,0-1.4-1.2c-.3.9-.5,1.9-.8,2.8.6-.1,1.1-.1,1.7-.2a1.54,1.54,0,0,0,.8-2.8,20,20,0,0,0-2.1-1c-.3,1-.5,1.9-.8,2.9a7.57,7.57,0,0,0,3,0c1.6-.2,1.3-2.5,0-2.9a10.15,10.15,0,0,0-2.5-.6,1.56,1.56,0,0,0-1.3.7.35.35,0,0,1-.1.2,1.59,1.59,0,0,0,0,1.5c0,.1.1.1.1.2l2.1-2.1a15.38,15.38,0,0,0-1.9-.8,1.5,1.5,0,0,0-.8,2.9c.4.2.8.3,1.2.5,1.2.6,3-.7,2.1-2.1,0-.1-.1-.1-.1-.2v1.5a.35.35,0,0,1,.1-.2c-.4.2-.9.5-1.3.7a10.93,10.93,0,0,1,1.7.5V37h-1.4a1.51,1.51,0,0,0-.8,2.9,6.11,6.11,0,0,1,1.4.7c.3-.9.5-1.9.8-2.8-.6.1-1.1.1-1.7.2a1.54,1.54,0,0,0-.8,2.8c.3.2.5.5.8.7a23.35,23.35,0,0,1,.7-2.5,6.05,6.05,0,0,1-1.9,0c-1.7-.2-2,2.5-.4,2.9.5.1.9.3,1.4.4.1-1,.3-2,.4-2.9-1.5,0-3,0-4.5.1a1.48,1.48,0,0,0-.4,2.9l1.8.6c.3-1,.5-1.9.8-2.9l-1-.3c-.1,1-.3,2-.4,2.9.6,0,1.2-.1,1.8-.1a1.48,1.48,0,0,0,.4-2.9c-1-.3-2-.7-3-1-.1,1-.3,2-.4,2.9a13.39,13.39,0,0,0,4.9-.3,1.53,1.53,0,0,0,0-2.9,11,11,0,0,0-5.1,0c-1.4.3-1.5,2.7,0,2.9a25.87,25.87,0,0,0,9.2-.6L108.2,38c-1.5.7-3,1.4-4.5,2.2s-.4,3,1.2,2.7a13.65,13.65,0,0,0,6.1-2.8c1.3-1-.2-2.7-1.5-2.5a2.67,2.67,0,0,0-1.4.7c-1.3,1.1.4,3.4,1.8,2.4a4.63,4.63,0,0,0,1.5-1.6,1.52,1.52,0,0,0-1.7-2.2,7.1,7.1,0,0,0-1.8.8c-1.7.9-.2,3.4,1.5,2.6a5.81,5.81,0,0,0,1.9-1.6c1-1.3-.9-2.7-2.1-2.1a41.22,41.22,0,0,0-4.5,2.7,1.49,1.49,0,0,0,1.2,2.7l2.3-.6c1.9-.5,1.1-3.2-.8-2.9a8.62,8.62,0,0,0-2.8,1.1,7.14,7.14,0,0,1-5,.4c-.1,1-.3,2-.4,2.9a4.1,4.1,0,0,1,1.1.1c1.7.1,2.1-2.7.4-2.9a23.36,23.36,0,0,1-2.6-.4c-.1,1-.3,2-.4,2.9h.6c1.4-.1,2.2-2.1.8-2.8a8.79,8.79,0,0,0-1-.6c-.5.8-1,1.7-1.5,2.5.6.1,1.2.3,1.8.4,1.6.4,2.7-1.9,1.2-2.7-.3-.2-.5-.5-.8-.7L97,41.1a5.86,5.86,0,0,0,4.3.5,1.51,1.51,0,0,0,0-2.9c-1.2-.4-2.4-.7-3.6-1.1-1.9-.6-2.5,2.2-.8,2.9a7.6,7.6,0,0,0,2.5.6c1.7.1,2-2.6.4-2.9l-1.4-.3c-.3,1-.5,1.9-.8,2.9a3,3,0,0,0,2.1-.1c1.9.1,1.1-2.8-.8-2.3Z" transform="translate(-70.9 -26.18)"/><path class="cls-1" d="M97.4,32.2c1.1-.4,1.1-.1,1.5.8a13.44,13.44,0,0,0,1.2,2.4c.5.7,2.3,3.6,3.3,2.8.4-.1.7-.3,1.1-.4h-.4l1.5,1.5a.6.6,0,0,1-.1.4c-.6.2-1.1.5-1.7.7a1.38,1.38,0,0,0,.4.3,16,16,0,0,0,.5-2.1.9.9,0,0,1,.5.1,11,11,0,0,0-.2,1.8l.2-.2c-.4.1-.7.3-1.1.4h.3c-.4-.2-.9-.5-1.3-.7a.35.35,0,0,0,.1.2c-.1-.4-.1-.8-.2-1.2a.37.37,0,0,1-.1.3c.7-.3,1.5-.6,2.2-.9a4.88,4.88,0,0,1-2.4-2.5c-.7-1.8-3.6-1-2.9.8a7.82,7.82,0,0,0,3.7,4.3,1.52,1.52,0,0,0,2.2-.9,1.83,1.83,0,0,0-3.1-1.8,1.38,1.38,0,0,0-.2,1.8,2.54,2.54,0,0,0,3.6,1,1.47,1.47,0,0,0,.5-2.1,4,4,0,0,0-2.2-1.6c-.7-.3-1.3.2-1.7.7a1.43,1.43,0,0,0-.3,1.1,1.54,1.54,0,0,0,1.5,1.5,2.18,2.18,0,0,0,2.2-2.5c-.3-1.9-2.1-2.3-3.1-3.6a11.74,11.74,0,0,1-1.5-2.7,7.84,7.84,0,0,0-.9-2.1c-1.1-1.2-2.7-1.1-4.1-.6-1.6.7-.9,3.6,1,3Z" transform="translate(-70.9 -26.18)"/><path class="cls-1" d="M102.7,31.3a4.66,4.66,0,0,1-2.5-1.3c-.4.9-.7,1.7-1.1,2.6a22,22,0,0,1,5.7,1V30.7a5.66,5.66,0,0,1-4.7-1.2,25.12,25.12,0,0,1-.4,2.7,14.75,14.75,0,0,1,6.6.3V29.6a6,6,0,0,1-4.9-.9,25.12,25.12,0,0,1-.4,2.7,11.21,11.21,0,0,1,6.5,1,25.12,25.12,0,0,1,.4-2.7,4.34,4.34,0,0,1-3.8-.9,25.12,25.12,0,0,1-.4,2.7,8.73,8.73,0,0,1,5.3.4c.3-1,.5-1.9.8-2.9a13,13,0,0,1-3.7-1.1l-1.2,2.7a31.17,31.17,0,0,1,4.4.9c.1-1,.3-2,.4-2.9-.4,0-.8-.1-1.1-.1-1.5-.2-2,2.1-.8,2.8,1,.5,2.1,1.1,3.1,1.6l1.2-2.7-3.8-.9c-1.6-.4-2.7,2-1.2,2.7,1,.5,2.1,1,3.1,1.5.3-.9.5-1.9.8-2.8a10.31,10.31,0,0,1-4.9-.5,25.12,25.12,0,0,0,.4,2.7,4.15,4.15,0,0,1,4.3,0c.3-.9.5-1.9.8-2.8a22.5,22.5,0,0,0-2.4-.8c-.3.9-.5,1.9-.8,2.8a24.6,24.6,0,0,1,2.9.7c.5-.9,1-1.7,1.5-2.6-.6-.3-1.2-.5-1.8-.8l-1.2,2.7a11.8,11.8,0,0,1,2,.4,1.5,1.5,0,0,0,1.2-2.7,10,10,0,0,0-5-1.7c-1.8-.1-1.9,2.4-.4,2.9a13.36,13.36,0,0,1,1.8.7c.3-1,.5-1.9.8-2.9a37.54,37.54,0,0,0-8.2-.3,7.68,7.68,0,0,1,.7,2.8,21.68,21.68,0,0,1,6.2-.5c-.1-1-.3-2-.4-2.9-2.5.7-4.7-.1-7.2-.1-2.3,0-4.5.9-6.8,1.1.3.9.5,1.9.8,2.8a7.6,7.6,0,0,1,3.3-1.1c-.3-1-.5-1.9-.8-2.9a14.89,14.89,0,0,1-4.1.8c.3.9.5,1.9.8,2.8a6.82,6.82,0,0,1,3.7-.7c-.1-1-.3-2-.4-2.9-.3.1-.5.1-.8.2.3,1,.5,1.9.8,2.9,1.5-.5,4.5.7,6.2.8s1.9-2.4.4-2.9A19.72,19.72,0,0,0,98,27.4c.3.9.5,1.9.8,2.8,2-.9,3.9-.1,5.7.5s2.6-2.2.8-2.9c-.4-.2-.9-.3-1.3-.5-.1,1-.3,2-.4,2.9,1.3.1,2.6.3,3.8.4,1.7.2,2.1-2.7.4-2.9a26.35,26.35,0,0,1-3-.7c-.3,1-.5,1.9-.8,2.9.4.1.9.3,1.3.4a1.51,1.51,0,0,0,.8-2.9c-.4-.1-.9-.3-1.3-.4a1.51,1.51,0,0,0-.8,2.9,16.28,16.28,0,0,0,3,.7c.1-1,.3-2,.4-2.9-1.3-.1-2.6-.3-3.8-.4-1.8-.2-1.8,2.4-.4,2.9.4.2.9.3,1.3.5.3-1,.5-1.9.8-2.9-2.8-1-5.3-1.5-8.1-.2-1.4.6-.6,2.8.8,2.8a13.42,13.42,0,0,1,5.6,1.2c.1-1,.3-2,.4-2.9-2.3-.1-4.7-1.4-7-.7a1.51,1.51,0,0,0,.8,2.9c.3-.1.5-.1.8-.2a1.48,1.48,0,0,0-.4-2.9A11.58,11.58,0,0,0,93,28.9c-1.4.6-.6,2.8.8,2.8a15.77,15.77,0,0,0,4.9-.9,1.51,1.51,0,0,0-.8-2.9,13.58,13.58,0,0,0-4,1.4,1.52,1.52,0,0,0,.8,2.8c2.7-.2,5.2-1.2,7.9-1,2.4.2,4.4.6,6.8-.1a1.48,1.48,0,0,0-.4-2.9,23.41,23.41,0,0,0-7,.5c-1.6.4-1.3,3,.4,2.9a36.64,36.64,0,0,1,7.4.2,1.51,1.51,0,0,0,.8-2.9,13.36,13.36,0,0,1-1.8-.7c-.1,1-.3,2-.4,2.9a5.5,5.5,0,0,1,3.5,1.2l1.2-2.7a11.8,11.8,0,0,1-2-.4c-1.5-.3-2.8,2-1.2,2.7.6.3,1.2.5,1.8.8,1.7.8,3.3-1.8,1.5-2.6a11.42,11.42,0,0,0-4.4-1.1,1.53,1.53,0,0,0-.8,2.8,9,9,0,0,0,3.9,1.3c1.5.1,2.1-2.2.8-2.8a8.06,8.06,0,0,0-7.4,0,1.48,1.48,0,0,0,.4,2.7,13.91,13.91,0,0,0,5.7.6c1.3-.1,2.3-2.1.8-2.8-1-.5-2.1-1-3.1-1.5l-1.2,2.7,3.8.9c1.6.4,2.7-1.9,1.2-2.7-1-.5-2.1-1.1-3.1-1.6-.3.9-.5,1.9-.8,2.8.4,0,.8.1,1.1.1,1.7.2,2-2.6.4-2.9l-4.4-.9c-1.5-.3-2.8,1.9-1.2,2.7a13.33,13.33,0,0,0,4.4,1.4,1.51,1.51,0,0,0,.8-2.9,12.46,12.46,0,0,0-6.9-.4,1.51,1.51,0,0,0-.4,2.7,8,8,0,0,0,6.2,1.2,1.51,1.51,0,0,0,.4-2.7,14.18,14.18,0,0,0-8.8-1.3c-1.3.2-1.4,2.1-.4,2.7a9.16,9.16,0,0,0,7.2,1.2,1.51,1.51,0,0,0,0-2.9,18.94,18.94,0,0,0-8.2-.3,1.51,1.51,0,0,0-.4,2.7,8.39,8.39,0,0,0,7,1.5c1.6-.3,1.3-2.5,0-2.9a20.63,20.63,0,0,0-6.5-1.1,1.56,1.56,0,0,0-1.1,2.6,8.68,8.68,0,0,0,3.9,2.1c1.7.8,2.5-2.1.6-2.6Z" transform="translate(-70.9 -26.18)"/><path class="cls-1" d="M104.5,30.7c-1-1-1.5-1.1-1.4-.3l-1,1a1.21,1.21,0,0,1,1.3.1c.1-.5.3-1,.4-1.5.7-.5.8-.1.5,1.2.3-.9.5-1.9.8-2.8-.2,0-.4-.1-.6-.1.1.5.3,1,.4,1.5,0,.2,3.5.9,4,1.1.3-1,.5-1.9.8-2.9-1.8-.6-3.6-1.2-5.5-1.8-.3,1-.5,1.9-.8,2.9,2.6.4,7.3.8,9,2.9,1.2,1.5,3.3-.6,2.1-2.1-2.2-2.7-7.2-3.2-10.4-3.7a1.5,1.5,0,0,0-.8,2.9c1.8.6,3.6,1.2,5.5,1.8s2.6-2.2.8-2.9-5.9-1.8-7.4.2,1.1,3.2,2.8,3.3a1.53,1.53,0,0,0,.8-2.8c-1.2-.7-2.5-1.1-3.7-.2a2.1,2.1,0,0,0-.4,3c1.1,1.6,4.4,2.1,4.7-.4s-4.2-3.8-5.7-2.2c-2.2,2.3,2,4.7,3.9,4.7s1.8-2.9-.1-2.9Z" transform="translate(-70.9 -26.18)"/><path class="cls-1" d="M111.9,38.5a7.09,7.09,0,0,1,4.7.8,1.5,1.5,0,0,0,1.5-2.6,10.11,10.11,0,0,0-7-1.1c-1.9.3-1.1,3.2.8,2.9Z" transform="translate(-70.9 -26.18)"/><path class="cls-1" d="M122.6,39.2c.2.1-.1-.1-.2-.1s-.2-.1-.3-.2h0l-.3-.3h0c-.1-.1-.1-.2-.2-.3a1.47,1.47,0,0,0-2.1-.5,1.49,1.49,0,0,0-.5,2.1,5.23,5.23,0,0,0,2.7,2.2,1.43,1.43,0,0,0,1.8-1,1.49,1.49,0,0,0-.9-1.9Z" transform="translate(-70.9 -26.18)"/><path class="cls-1" d="M73.9,55.8a2.09,2.09,0,0,0,.7-1.8c-.2-1.9-3-2-3,0a.78.78,0,0,1-.2.8,25.12,25.12,0,0,1,2.7.4,6.55,6.55,0,0,1,0-1.4h-3a13.55,13.55,0,0,1-.2,2c1,.3,1.9.5,2.9.8a2.2,2.2,0,0,0,.1-.8c-.9-.1-1.9-.2-2.9-.4v1.4h3v-.6H71V57c.1,1.6,2.5,2.1,2.9.4a56,56,0,0,0,1.2-5.9c-1-.1-2-.3-2.9-.4a8.08,8.08,0,0,1-.5,3.1,25.12,25.12,0,0,1,2.7.4,2.81,2.81,0,0,1,.6-2c-.9-.3-1.9-.5-2.8-.8a20.32,20.32,0,0,1-.8,5.5h2.9a.38.38,0,0,1,0-.6c.6-1.8-2.3-2.6-2.9-.8a3.32,3.32,0,0,0,0,2.2,1.53,1.53,0,0,0,2.9,0,25.92,25.92,0,0,0,1-6.3,1.52,1.52,0,0,0-2.8-.8,6,6,0,0,0-.9,4.3c.2,1.2,2.3,1.5,2.7.4a10.23,10.23,0,0,0,.9-4.6c-.1-1.6-2.6-2.1-2.9-.4-.4,2-.8,3.9-1.2,5.9,1,.1,2,.3,2.9.4v-.8c-.1-1.9-3-1.9-3,0v.6a1.5,1.5,0,0,0,3,0V55.4c0-1.6-2.6-2.1-2.9-.4,0,.2-.1.4-.1.6-.4,1.9,2.4,2.7,2.9.8a12.65,12.65,0,0,0,.3-2.8c0-1.9-2.9-1.9-3,0a17,17,0,0,0,.1,2.2c.2,1.3,2.1,1.4,2.7.4a4.38,4.38,0,0,0,.6-2.3h-3c0-.1.1-.2.1-.3-1.3,1.3.8,3.5,2.2,2.2Z" transform="translate(-70.9 -26.18)"/><path class="cls-1" d="M125.1,49.9c.4.7.7,1.5,1.1,2.2.6-.7,1.1-1.5,1.7-2.2h-.2c.3.2.6.5.9.7a.1.1,0,0,0-.1-.1c-.4.8-.9,1.5-1.3,2.3h.2c-.4-.2-.9-.5-1.3-.7a6.47,6.47,0,0,1,.4,1.3,1.48,1.48,0,0,0,2.9-.4,13,13,0,0,0-.5-5.2c-.5-1.6-3-1.4-2.9.4a39.34,39.34,0,0,0,.6,4.8l2.7-1.2c-.7-1.6-.5-3.5-1.1-5.2a16.94,16.94,0,0,0-2.4-4.1c-1.2-1.5-3.3.6-2.1,2.1a10.55,10.55,0,0,1,2.2,4.5,18.74,18.74,0,0,0,.9,4.1c.7,1.7,3,.4,2.7-1.2a27.33,27.33,0,0,1-.5-4c-1,.1-2,.3-2.9.4a10.84,10.84,0,0,1,.4,4.4c1-.1,2-.3,2.9-.4a5.91,5.91,0,0,0-.7-2,1.36,1.36,0,0,0-1.3-.7h-.2a1.55,1.55,0,0,0-1.3,2.3,1.59,1.59,0,0,0,1.2.9,1.52,1.52,0,0,0,1.7-2.2c-.4-.7-.7-1.5-1.1-2.2-.9-1.8-3.5-.3-2.6,1.4Z" transform="translate(-70.9 -26.18)"/><path d="M72.6,58.2c-.1-7,2.7-16,7.4-21.2,5.3-5.9,13.1-8.4,20.9-8.7,8.3-.3,14.4,1.9,19.7,8.2,2.5,2.9,5.6,6.2,6.5,10s.7,8.3,1,12.3c.1.8,1.3.8,1.2,0-.3-4.3,0-9.2-1.2-13.3-1-3.5-3.8-6.4-6-9.2-5.9-7-11.9-9.6-21.1-9.3-17.2.6-29.8,13.6-29.5,31.1a.55.55,0,1,0,1.1.1Z" transform="translate(-70.9 -26.18)"/><path d="M73,59c3-5.3,6.2-11.9,10.6-16.1,4.6-4.4,11.4.3,16.9.6a17.37,17.37,0,0,0,6.8-.7c2.8-1.1,3.3-2.2,6.5-2.1,7,.3,12.3,9.8,14.5,15.7.3.7,1.4.4,1.2-.3-2.2-5.9-5.8-11.6-11-15.3-6.5-4.6-9.9,1.7-17,1.6a18.79,18.79,0,0,1-7.8-1.6A29.54,29.54,0,0,0,90,39.2a6.65,6.65,0,0,0-4.9,1.1c-2.3,1.5-4,4.2-5.5,6.4-2.7,3.8-5.1,7.8-7.4,11.8-.6.6.4,1.2.8.5Z" transform="translate(-70.9 -26.18)"/><path class="cls-2" d="M93.5,37a16.17,16.17,0,0,0,9,3,.6.6,0,1,0,0-1.2,14.94,14.94,0,0,1-8.4-2.9c-.6-.4-1.2.7-.6,1.1Z" transform="translate(-70.9 -26.18)"/><path class="cls-2" d="M74.9,53c2.4-6.4,4.7-13.2,10.8-16.9a.58.58,0,1,0-.6-1,16.18,16.18,0,0,0-6.7,7c-1.7,3.4-3.2,7-4.6,10.6-.3.7.8,1,1.1.3Z" transform="translate(-70.9 -26.18)"/><path class="cls-2" d="M112.1,32.4a45.71,45.71,0,0,1,7.6,6.2c2.1,2.2,3.3,5.1,5.6,7,.6.5,1.4-.3.8-.8-2.5-2.1-3.9-5.3-6.2-7.7a51.66,51.66,0,0,0-7.3-5.8c-.5-.3-1.1.7-.5,1.1Z" transform="translate(-70.9 -26.18)"/><path class="cls-2" d="M98.1,32.8a27.79,27.79,0,0,0,7.9,2.9.62.62,0,0,0,.3-1.2,25.54,25.54,0,0,1-7.6-2.7.58.58,0,1,0-.6,1Z" transform="translate(-70.9 -26.18)"/></svg>