<svg id="Layer_1" data-name="Layer 1" xmlns="http://www.w3.org/2000/svg" viewBox="0 0 58.68 37.35"><defs><style>.cls-1{fill:#141113;}.cls-2{fill:#292728;}</style></defs><title>Black</title><path class="cls-1" d="M83.8,38.2c.2-.1-3.8,2.5-1.7,2.4-.4-.9-.7-1.7-1.1-2.6-.4,0-.8-.1-1.2-.1a1.48,1.48,0,0,0-1.7-.7c-.5.2-1,.3-1.5.5a23.07,23.07,0,0,0,1.9,1.4h.6c1.6-.1,2.1-2.5.4-2.9a19.45,19.45,0,0,0-2-.5v2.9A5.72,5.72,0,0,1,83.7,40c.4-.9.7-1.7,1.1-2.6a25.35,25.35,0,0,1-2.9-.4v2.9c-2.4.7-3.7,2-5.5,4-.6.7-2.9,4.6-3.4,4.8.6.2,1.1.5,1.7.7-.1-.1-.1-.2-.2-.3a16,16,0,0,0-.5,2.1.35.35,0,0,0,.2-.1c-.8-.4-1.5-.9-2.3-1.3-.1,1.5-.2,3-.4,4.6h3c-.2-2.5-.8-13.7,3-14.4-.6-.3-1.2-.7-1.8-1,.3,1.7-2.8,5.7-3.6,7.2-1,1.7,1.5,3.1,2.6,1.5,1.6-2.4,3.3-4.9,5-7.2L77,39.3A21.19,21.19,0,0,1,74.4,46l2.7,1.2a14.73,14.73,0,0,1,3.4-5.1c-.8-.5-1.7-1-2.5-1.5-.6,2.6-2.2,4.4-3.3,6.7-1,2-1.4,4.3-2.8,6.1l2.4,1.8a6.4,6.4,0,0,1,3.5-2.6c-.5-.9-1-1.7-1.5-2.6-1,.6-1.9,1.2-2.9,1.8-1.4.9-.5,3.3,1.2,2.7,6.7-2.1,8.3-9.2,14-12.7l-1.8-2.4c-3.9,3.5-7.7,7-11.6,10.5l2.4,1.8a42,42,0,0,1,9-10.7l-2.1-2.1L83.4,40c-1.4,1.4.6,3.3,2.1,2.1s5.3-5.2,7.2-5.2c-.4-.9-.7-1.7-1.1-2.6-.7.7-3.9,4.1-5,3.6.1-1,.2-2,.3-3.1a20.91,20.91,0,0,1,2.9-2.3,1.5,1.5,0,0,0-1.5-2.6,14.29,14.29,0,0,0-3.7,2.3c-1.5,1.3.6,3.3,2.1,2.1s3.2-2.5,4.8-3.7c1.4-1.1-.4-3.1-1.8-2.4a10.15,10.15,0,0,0-3.8,3A1.49,1.49,0,0,0,88,33.3c1.4-1.2,3.6-3.7,5.5-4,3.1-.5,5.7,2.3,6.8,4.8a16,16,0,0,0,.5-2.1c-.9.3-1.8.5-2.7.8l1.5,1.5c0-.5-10.1,4-4-.4-.7-.6-1.5-1.1-2.2-1.7-.4,1.4-3.4,4-3.4,4.5-.7.8-.3.5,1.1-.9a5.18,5.18,0,0,1,2.7-1.9c-.7-.6-1.5-1.1-2.2-1.7-.3,1.5-2.6,6.1-3.6,4.9-.4-.6,5.2-4,6.1-4.5-.7-.6-1.5-1.1-2.2-1.7a5.71,5.71,0,0,1-3.4,4c-2.5.7-2.9,1-1.3.8,1.7-.9,3.7-2.1,5.6-3-.7-.6-1.5-1.1-2.2-1.7-1.1,1-2.2,2-3.4,3,.4.8.9,1.5,1.3,2.3a13.8,13.8,0,0,1,3.6-4c.4-.3,4.2-2.6.9-1.7l1.8,1.8c-.2-.5-.3-1-.5-1.5a17.1,17.1,0,0,0,1.1,1.4l1.5-.3c.9.4,1.7.7,2.6,1.1.3-.6.6-1.2.8-1.7-.6-.3-1.2-.7-1.8-1,.2.7,8.5,2.4,9.7,2.9a23.45,23.45,0,0,0,5.3,1.7c1.8.2,3.3.2,4.3-1.3a1.36,1.36,0,0,0,0-1.5,12.25,12.25,0,0,0-2.4-2.7,23.35,23.35,0,0,1-.7,2.5c4.2-1.4,7.2,1.2,9.2,4.6.6-.7,1.1-1.5,1.7-2.2a23.69,23.69,0,0,0-7.5-.4l1.5,1.5a6.92,6.92,0,0,0-1.9-5.1l-1.8,2.4c1.5.9,3.1,1.8,4.6,2.8l1.2-2.7a13.55,13.55,0,0,1-4.4-2l-1.2,2.7c1.9.5,3.7,1,5.6,1.6.3-1,.5-1.9.8-2.9-.9-.3-1.7-.6-2.6-.9-.3.9-.5,1.9-.8,2.8l2.7.6c.3-1,.5-1.9.8-2.9-2.4-.7-8.6-2.4-9.3,1.6-.6,3.4,4.8,6.1,7.2,7,1.7.6,2.5-1.8,1.2-2.7a49.18,49.18,0,0,1-5.2-4.1c-.5.8-1,1.7-1.5,2.5a13,13,0,0,1,6.3,3.9l2.1-2.1a11.43,11.43,0,0,1-3.1-3.1L118.2,37a14.4,14.4,0,0,1,5.5,6.7c.9-.5,1.7-1,2.6-1.5-.5-1-.9-1.9-1.4-2.9-.9.5-1.7,1-2.6,1.5a25.9,25.9,0,0,1,3.2,9.2l2.7-1.2c-2-4.1-6.4-7-9.7-10-1.4-1.3-3.5.8-2.1,2.1,1.1,1,2.1,2,3.2,3l1.8-2.4a11.37,11.37,0,0,0-3-1.3,1.5,1.5,0,0,0-1.7,2.2,7.74,7.74,0,0,0,2.8,2.6,1.51,1.51,0,0,0,1.8-2.4c-.9-.9-1.7-1.8-2.6-2.7l-1.8,2.4a24.14,24.14,0,0,1,5.3,3.2c1.5,1.2,3.5-.7,2.1-2.1a35.85,35.85,0,0,1-3.2-3.6l-1.8,2.4a8,8,0,0,1,3.6,2.7l2.1-2.1c-.7-.8-1.3-1.7-2-2.5-.6.7-1.1,1.5-1.7,2.2.3.2.7.4,1,.6.4-.9.7-1.7,1.1-2.6-7.3-.8-13.1-6.1-20.5-6.6v3a33.77,33.77,0,0,1,9.5,1.6c1.9.6,2.6-2.3.8-2.9q-6.75-2.1-13.2-4.8c-.1,1-.3,2-.4,2.9A43.85,43.85,0,0,1,113.9,37c.3-1,.5-1.9.8-2.9-2.7-.6-10.7-1.2-12.4-3.5-.6.7-1.1,1.5-1.7,2.2A32.08,32.08,0,0,1,113.8,38l1.2-2.7c-2.7-1.1-10.9-3.3-12.2-5.9-.4.8-.9,1.5-1.3,2.3,7.7.8,13.1,6.7,19,11.2.5-.9,1-1.7,1.5-2.6l-8.7-4.2a25.12,25.12,0,0,1-.4,2.7h2.6c.3-1,.5-1.9.8-2.9-4.9-1.6-10.2-3.3-15.5-2.7A16.89,16.89,0,0,0,94.9,35c-.7.4-5.8,4.5-6.3,4.4-.1,1-.3,2-.4,2.9a181.92,181.92,0,0,0,26.6-.8,1.5,1.5,0,0,0,0-3l-6.8-.9c-1.9-.2-1.9,2.8,0,3l6.8.9v-3a181.91,181.91,0,0,1-26.6.8c-1.7-.1-2.1,2.6-.4,2.9,3.6.7,6.1-3.6,9.1-5,6-2.7,12.6-.6,18.5,1.4,1.9.6,2.5-2.2.8-2.9a5.13,5.13,0,0,0-4.2,0c-1.1.4-1.6,2.1-.4,2.7l8.7,4.2c1.8.9,3-1.4,1.5-2.6-6.5-4.9-12-10.7-20.5-11.6-1.2-.1-1.7,1.3-1.3,2.3.7,1.5,1.7,1.9,3,2.7,3.4,1.8,7.3,3.1,10.9,4.6,1.6.7,2.5-1.8,1.2-2.7a33.57,33.57,0,0,0-13.9-5.5c-1.1-.2-2.6,1-1.7,2.2,2.8,3.8,9.9,4,14.2,4.9a1.51,1.51,0,0,0,.8-2.9,46.06,46.06,0,0,0-15.1-3.4c-1.8-.1-1.8,2.4-.4,2.9,4.4,1.8,8.8,3.3,13.2,4.8.3-1,.5-1.9.8-2.9a35.83,35.83,0,0,0-10.3-1.7c-1.9-.1-1.9,2.9,0,3,7.3.5,13.2,5.8,20.5,6.6a1.55,1.55,0,0,0,1.1-2.6,4.46,4.46,0,0,0-2.3-1.3,1.52,1.52,0,0,0-1.7,2.2,24.24,24.24,0,0,0,2.5,3.1c1.3,1.5,3.3-.7,2.1-2.1a10.27,10.27,0,0,0-4.2-3.2,1.52,1.52,0,0,0-1.8,2.4c1,1.3,2.1,2.4,3.2,3.6l2.1-2.1a27.84,27.84,0,0,0-5.9-3.7,1.51,1.51,0,0,0-1.8,2.4c.9.9,1.7,1.8,2.6,2.7l1.8-2.4c-.6-.5-1.2-1-1.8-1.6-.6.7-1.1,1.5-1.7,2.2.7.3,1.5.7,2.2,1a1.51,1.51,0,0,0,1.8-2.4c-1.1-1-2.1-2-3.2-3l-2.1,2.1c3.1,2.8,7.4,5.6,9.3,9.4.8,1.6,3,.4,2.7-1.2a29.3,29.3,0,0,0-3.5-9.9c-1-1.7-3.4-.2-2.6,1.5.5,1,.9,1.9,1.4,2.9.8,1.8,3.3.2,2.6-1.5a17.27,17.27,0,0,0-6.6-7.8c-1.2-.8-3,.8-2.1,2.1a24.4,24.4,0,0,0,3.5,3.7c1.5,1.2,3.5-.7,2.1-2.1a15.11,15.11,0,0,0-7.6-4.7,1.53,1.53,0,0,0-1.5,2.5,36,36,0,0,0,5.8,4.5l1.2-2.7c-1.1-.4-4.7-1.7-4-3.1.6-1.2,3.2-.2,4.5.2a1.5,1.5,0,0,0,.8-2.9,7.1,7.1,0,0,0-3.5-.7,1.53,1.53,0,0,0-.8,2.8,5.8,5.8,0,0,0,3.3,1.2,1.5,1.5,0,0,0,.8-2.9c-1.9-.6-3.7-1.1-5.6-1.6-1.6-.4-2.6,1.9-1.2,2.7a25.79,25.79,0,0,0,5.1,2.3,1.5,1.5,0,0,0,1.2-2.7c-1.5-.9-3.1-1.8-4.6-2.8s-2.9,1.1-1.8,2.4c.4,1,.7,2,1.1,2.9,0,.7.7,1.6,1.5,1.5a19,19,0,0,1,6.7.2,1.5,1.5,0,0,0,1.7-2.2c-2.7-4.7-7.1-7.8-12.6-6a1.55,1.55,0,0,0-.7,2.5c1.8,1.7-.2.4-1.5-.1l-3.9-1.5a20.3,20.3,0,0,0-4.8-1.4c-1.8-.2-5.6-.1-6.1,2.2-.8,3.5,5.8,3.8,4.4-1.3-.2-.7-1.1-1.4-1.8-1-2.1.9-3.3,2.2-3,4.6a1.56,1.56,0,0,0,2.6,1.1c5.4-5.1-7-8.8-6.7-1.8A1.39,1.39,0,0,0,93,33.3c2.7.9,6.5-2.3,5.1-5.2-2-4.1-6.2.5-6.7,3-.2,1.1.7,2.2,1.8,1.8,2.5-.6,5.2-2.9,3.4-5.6a1.46,1.46,0,0,0-1.3-.7c-4.3.6-7.7,4.2-10,7.7a1.57,1.57,0,0,0,1.3,2.3,6.35,6.35,0,0,0,6.3-5.2,1.52,1.52,0,0,0-2.2-1.7c-2.5,1.1-7.6,3.6-7.2,6.9.1.5.2,1.1.7,1.3,4.1,1.8,9-3,10-6.7A1.52,1.52,0,0,0,92,29.5c-2.4,1.3-11.6,6.7-7.9,10.3,3.9,3.9,9.2-4.2,9.9-7.3a1.54,1.54,0,0,0-2.2-1.7c-2,.9-9.2,6.3-5,8.6,3.8,2.1,8.1-4,9-6.8a1.5,1.5,0,0,0-2.2-1.7c-2.4,1.8-6,4.7-4.5,8a1.36,1.36,0,0,0,1.3.7c3.5.1,7-3.4,7.1-6.9a1.56,1.56,0,0,0-.7-1.3c-3.7-1.9-9,4.4-4.7,6.7,3.8,2,12.4-3.7,7-6.7a1.36,1.36,0,0,0-1.5,0c-.2.1-.5.3-.7.4a1.46,1.46,0,0,0-.7,1.3v.8a1.47,1.47,0,0,0,1.5,1.5,10.18,10.18,0,0,0,4.2-1.2,1.58,1.58,0,0,0,.5-2.1A10,10,0,0,0,94.7,26c-4.2-.7-6.3,2.2-9.3,4.7l2.1,2.1a6.56,6.56,0,0,1,3.2-2.5l-1.8-2.4c-1.6,1.2-3.2,2.5-4.8,3.7l2.1,2.1a7.77,7.77,0,0,1,3-1.8c-.5-.9-1-1.7-1.5-2.6-2.6,1.8-8.3,6.3-5.1,10,2.9,3.4,8.5-1.4,10.5-3.5A1.54,1.54,0,0,0,92,33.2c-3.4,0-6.9,4.1-9.3,6l2.1,2.1,1.1-1.1a1.45,1.45,0,1,0-2.1-2,42.54,42.54,0,0,0-9.5,11.2,1.51,1.51,0,0,0,2.4,1.8c3.9-3.5,7.7-7,11.6-10.5,1.3-1.1-.4-3.2-1.8-2.4-5.2,3.2-7.3,10.5-13.3,12.4l1.2,2.7c1-.6,1.9-1.2,2.9-1.8A1.5,1.5,0,0,0,75.8,49a11.14,11.14,0,0,0-4.6,3.7c-1,1.3,1.3,3.1,2.4,1.8,1.6-2,2.1-4,3.1-6.3,1.3-2.7,3.1-4.8,3.8-7.8A1.53,1.53,0,0,0,78,38.9a18,18,0,0,0-4.1,6.4c-.7,1.6,1.9,2.5,2.7,1.2a19.75,19.75,0,0,0,2.9-7.4,1.5,1.5,0,0,0-2.7-1.2c-1.7,2.4-3.4,4.8-5,7.2.9.5,1.7,1,2.6,1.5,1.6-2.9,4.6-6.1,3.9-9.5a1.47,1.47,0,0,0-1.8-1c-6,1.1-5.6,12.9-5.2,17.3a1.5,1.5,0,0,0,3,0c.2-1.5.3-3,.4-4.6a1.53,1.53,0,0,0-2.3-1.3.35.35,0,0,0-.2.1,1.55,1.55,0,0,0-.5,2.1c.1.1.1.2.2.3a1.48,1.48,0,0,0,1.7.7c1.7-.6,2.3-2.4,3.3-3.7,1.8-2.4,5.1-4.3,6.6-6.8,1.3-2.1,0-4.7-2.6-4a1.51,1.51,0,0,0,0,2.9,7.92,7.92,0,0,0,3.7.5A1.55,1.55,0,0,0,85.7,37a8.21,8.21,0,0,0-9.1-2.2,1.53,1.53,0,0,0,0,2.9,19.45,19.45,0,0,0,2,.5c.1-1,.3-2,.4-2.9-2.1.2-3.6.6-3.6,3a1.48,1.48,0,0,0,1.9,1.4c.5-.2,1-.3,1.5-.5-.6-.2-1.1-.5-1.7-.7,1.3,2.7,4,3.1,5.9.7a1.54,1.54,0,0,0-1.1-2.6c-1.9,0-3.7,1.8-2.6,3.8,1.6,2.7,3.4.3,5.1-.3,2,.3,1.2-2.6-.6-1.9Z" transform="translate(-70.95 -23.27)"/><path class="cls-1" d="M88.8,34.3c4.4-4.3,7.7-7.3,14.1-7.5,5-.2,10,.3,14,3.7a23.35,23.35,0,0,1,.7-2.5c-7.1,2.1-14.2-1-21.4-.6.1,1,.3,2,.4,2.9a18,18,0,0,1,8.9-.8V26.6c-1.3.1-2.7.2-4,.2-.1,1-.3,2-.4,2.9,3-.4,6.2-.8,8.6,1.4.5-.8,1-1.7,1.5-2.5a25.18,25.18,0,0,1-6.8-3.3L103.2,28a10.53,10.53,0,0,1,8,5.5c.6-.7,1.1-1.5,1.7-2.2a8.53,8.53,0,0,1-5.1-3.8c-.3.7-.6,1.5-.9,2.2a8.23,8.23,0,0,1,6.1,1.4c.4-.8.9-1.5,1.3-2.3-1.2-.8-2.4-1.7-3.6-2.5-.4.8-.9,1.5-1.3,2.3,1.4.6,2.8,1.2,4.1,1.8.5-.8,1-1.7,1.5-2.5-3.5-.9-7-1.8-10.5-2.9-.1,1-.3,2-.4,2.9a17.44,17.44,0,0,1,6.4.6c.1-1,.3-2,.4-2.9-4.2-.4-8.1-.5-12.1.9a23.07,23.07,0,0,0,1.9,1.4c-.4,3.2-5.8,5.2-8.5,5.7-1.6.3-1.3,2.5,0,2.9A27.16,27.16,0,0,0,102,38c-.1-1-.3-2-.4-2.9-2.8.5-5.7,1.1-8.5,1.6-1.7.3-1.2,2.9.4,2.9,2.8.2,5.7.3,8.5.5v-3a42.1,42.1,0,0,1-7.1.1c-1.7-.1-2.1,2.7-.4,2.9a21.66,21.66,0,0,1,2.5.4c.1-1,.3-2,.4-2.9a47.54,47.54,0,0,1-5.4.3c.1,1,.3,2,.4,2.9a67.49,67.49,0,0,1,16.2-.2v-3c-2.1-.2-4.2-.4-6.3-.5.1,1,.3,2,.4,2.9.4-.1.8-.3,1.3-.4a1.56,1.56,0,0,0,.7-2.5c-.5-.5-1-.9-1.5-1.4-.4.9-.7,1.7-1.1,2.6a8.57,8.57,0,0,1,4.2.5c1.6.4,2.7-2,1.2-2.7-.8-.4-1.7-.8-2.5-1.2l-1.2,2.7c3.5.5,6.5,1.9,9.7,3.4,2.2,1.1,5.7,1.9,7.2,4,.4-.8.9-1.5,1.3-2.3a1.45,1.45,0,0,0-.7-.2l-1.2,2.7a14,14,0,0,1,2.9.9c1.8.7,2.6-2.2.8-2.9a14,14,0,0,0-2.9-.9,1.5,1.5,0,0,0-1.2,2.7,3.34,3.34,0,0,0,2.2.6,1.5,1.5,0,0,0,1.3-2.3c-1.8-2.5-4.7-3.4-7.4-4.7-3.7-1.8-7.2-3.6-11.2-4.2-1.5-.2-2.8,2-1.2,2.7.8.4,1.7.8,2.5,1.2l1.2-2.7a14,14,0,0,0-5-.6,1.55,1.55,0,0,0-1.1,2.6c.5.5,1,.9,1.5,1.4a23.35,23.35,0,0,1,.7-2.5c-.4.1-.8.3-1.3.4a1.48,1.48,0,0,0,.4,2.9c2.1.2,4.2.4,6.3.5,1.9.2,1.9-2.8,0-3a69.1,69.1,0,0,0-17,.3c-1.7.2-1.3,3,.4,2.9a48.86,48.86,0,0,0,5.4-.3c1.5-.2,2.2-2.7.4-2.9a21.66,21.66,0,0,1-2.5-.4c-.1,1-.3,2-.4,2.9a33.71,33.71,0,0,0,7.1-.1,1.5,1.5,0,0,0,0-3c-2.8-.2-5.7-.3-8.5-.5.1,1,.3,2,.4,2.9,2.8-.5,5.7-1.1,8.5-1.6,1.7-.3,1.3-3-.4-2.9a23.25,23.25,0,0,1-9-1.4v2.9c3.6-.6,11.3-4.1,9.9-9-.9-3.2-4.8-2.8-5.2.4a1.52,1.52,0,0,0,1.9,1.4c3.8-1.3,7.4-1.1,11.3-.7,1.7.2,2-2.5.4-2.9a21.79,21.79,0,0,0-7.2-.7,1.48,1.48,0,0,0-.4,2.9c3.5,1.1,7,2,10.5,2.9a1.53,1.53,0,0,0,1.5-2.5,7.83,7.83,0,0,0-6.2-2.6,1.55,1.55,0,0,0-1.3,2.3,6.94,6.94,0,0,0,6.2,4,1.55,1.55,0,0,0,1.3-2.3c-1.4-1.9-5.1-5.1-7.3-2.2s1.8,6.6,4.4,7.1a1.67,1.67,0,0,0,1.5-.4c3.8-4.7-4.1-8.4-8.1-7.2a1.47,1.47,0,0,0-.9,2.2,13.32,13.32,0,0,0,6.9,5.2,1.52,1.52,0,0,0,1.7-2.2,13.49,13.49,0,0,0-9.8-6.9,1.5,1.5,0,0,0-1.2,2.7,30.46,30.46,0,0,0,7.5,3.6,1.53,1.53,0,0,0,1.5-2.5c-3.1-2.8-6.8-2.8-10.8-2.3-1.5.2-2.2,2.7-.4,2.9a15.09,15.09,0,0,0,5.6-.2c1.4-.3,1.5-2.7,0-2.9a20.76,20.76,0,0,0-10.5.8c-1.5.5-1.4,3,.4,2.9,7.5-.4,14.8,2.8,22.2.5a1.51,1.51,0,0,0,.7-2.5c-4.6-3.9-10.2-4.8-16.1-4.6-7.5.3-11,3.3-16.3,8.4-1.4,1.8.8,3.9,2.1,2.6Z" transform="translate(-70.95 -23.27)"/><path class="cls-1" d="M121.7,46.3a6.2,6.2,0,0,1,4,3.1c.9,1.3.6,3,1,4.5s3,1.3,2.9-.4c-.1-4.4-2.1-8.3-4.2-12.1l-2.1,2.1a6.91,6.91,0,0,1,2.1,3.2c.7,1.5,3.3.4,2.7-1.2a19.8,19.8,0,0,0-2.3-4.6c-1.1-1.6-3.7-.1-2.6,1.5a14.4,14.4,0,0,1,2,3.9l2.7-1.2a10.36,10.36,0,0,0-3.2-4.3c-1.3-.9-2.7.8-2.1,2.1,1.9,3.3,3.7,6.7,3.8,10.6,1-.1,2-.3,2.9-.4-.6-2.3-.3-4-1.9-6-1.4-1.7-2.9-3.3-5.2-3.6-1.6-.4-2.4,2.5-.5,2.8Z" transform="translate(-70.95 -23.27)"/><path class="cls-2" d="M89.6,35.7c-3.9-2.9,3.7-6,5.4-6.6.9-.4,7.5-1.9,7.6-2.2-.2.7,1,1.1,1.2.3V27c.1-.3,0-.5-.3-.7-1.3-.8-4,.1-5.4.4a30.58,30.58,0,0,0-7.7,3.2c-2.5,1.5-4.2,4.7-1.4,6.8.6.5,1.2-.5.6-1Z" transform="translate(-70.95 -23.27)"/><path class="cls-2" d="M117.6,31.3a8,8,0,0,1,5.6,2.6c.5.6,1.4-.3.8-.8a8.83,8.83,0,0,0-6.4-3,.6.6,0,0,0,0,1.2Z" transform="translate(-70.95 -23.27)"/><path class="cls-2" d="M117.7,40.8c2.5,2.6,6.7,3.2,8.8,6.2.4.6,1.5,0,1-.6-2.2-3.2-6.4-3.7-9-6.5-.4-.5-1.3.3-.8.9Z" transform="translate(-70.95 -23.27)"/><path class="cls-2" d="M93.4,40.3c6-.8,12.1-.2,18.1-1.8.7-.2.4-1.4-.3-1.2-5.9,1.7-12,1-18.1,1.8a.62.62,0,0,0,.3,1.2Z" transform="translate(-70.95 -23.27)"/><path class="cls-2" d="M75.1,52.2c.2-2.3.1-10.9,3.3-11.6.8-.2.4-1.3-.3-1.2-2,.4-2.6,2.1-3,4a64.23,64.23,0,0,0-1.2,8.8c0,.7,1.2.7,1.2,0Z" transform="translate(-70.95 -23.27)"/><path class="cls-2" d="M71.7,56a4.88,4.88,0,0,1,.3.7c.3.7,1.4.1,1-.6a4.88,4.88,0,0,1-.3-.7c-.3-.7-1.3-.1-1,.6Z" transform="translate(-70.95 -23.27)"/><path d="M72.3,58.8c-.1-4.8-.1-27.1,9.6-22.4.7.3,1.3-.7.6-1C71.1,29.9,71,53.2,71.1,58.8a.6.6,0,0,0,1.2,0Z" transform="translate(-70.95 -23.27)"/><path d="M72.9,59.9c-1.6-4.6,5.7-6.6,7.9-9,.9-1.1,1.5-2.4,2.4-3.5.3-.4,4.6-5.1,4.9-4.9.6.4,1.2-.6.6-1-1-.7-2,.7-2.6,1.3a45.68,45.68,0,0,0-5.8,6.7c-2.4,3.2-10.4,5.4-8.6,10.8.3.6,1.5.3,1.2-.4Z" transform="translate(-70.95 -23.27)"/><path d="M88.2,43c5.1,0,10.1.1,15.2.1,4.4,0,8.6-.9,13-1.1a.6.6,0,1,0,0-1.2c-4.4.2-8.6,1.1-13,1.1-5.1,0-10.1-.1-15.2-.1-.7-.1-.7,1.1,0,1.2Z" transform="translate(-70.95 -23.27)"/><path d="M115.8,42.2c2.2,2.8,5.1,3.7,7.6,6.1a17.47,17.47,0,0,1,4.8,9.9c.1.8,1.3.4,1.2-.3a21.31,21.31,0,0,0-3.8-8.9c-2.5-3.2-6.4-4.4-8.9-7.6-.5-.6-1.3.2-.9.8Z" transform="translate(-70.95 -23.27)"/><path d="M129.5,58.6c.6-7.4-.6-17.6-7-22.5-.6-.5-1.2.6-.6,1,6,4.6,7,14.5,6.4,21.4a.6.6,0,1,0,1.2.1Z" transform="translate(-70.95 -23.27)"/><path d="M115.7,29.6c4.4-1.3,8.7,3.2,10.3,6.8.3.7,1.3.1,1-.6-1.8-4.2-6.7-8.8-11.6-7.4-.7.2-.4,1.4.3,1.2Z" transform="translate(-70.95 -23.27)"/><path d="M126.6,36.8a31.7,31.7,0,0,0-6.1-.7.6.6,0,1,0,0,1.2,22.47,22.47,0,0,1,5.8.7c.7.1,1-1,.3-1.2Z" transform="translate(-70.95 -23.27)"/><path d="M125.6,36.8v.3a.6.6,0,1,0,1.2,0v-.3a.6.6,0,1,0-1.2,0Z" transform="translate(-70.95 -23.27)"/><path d="M83.7,35.9C84.1,29.9,94,26,99,25.1a27.66,27.66,0,0,1,18.9,3.2c.7.4,1.3-.7.6-1-6.8-3.7-14.7-5-22.2-2.7C91.2,26.1,82.9,30,82.5,36c-.1.7,1.1.7,1.2-.1Z" transform="translate(-70.95 -23.27)"/><path d="M85.9,38.4a3.08,3.08,0,0,1-1.8-2.8.6.6,0,1,0-1.2,0,4.26,4.26,0,0,0,2.3,3.8c.8.4,1.4-.7.7-1Z" transform="translate(-70.95 -23.27)"/></svg>