<svg id="Layer_1" data-name="Layer 1" xmlns="http://www.w3.org/2000/svg" viewBox="0 0 58.55 37.17"><defs><style>.cls-1{fill:#ffe429;}.cls-2{fill:#f07a22;}.cls-3{fill:#faef53;}</style></defs><title>Blond</title><path class="cls-1" d="M42.39,13.16c1.1-2.25-.92-3.08-2.56-4l-.61,2.24L51,11.59a1.2,1.2,0,0,0,0-2.4L39.22,9a1.21,1.21,0,0,0-.61,2.24c.16.09,1.61.88,1.7.7-.68,1.38,1.39,2.6,2.07,1.21Z" transform="translate(-12.17 0)"/><path class="cls-1" d="M24,16.52a12.81,12.81,0,0,0-6.83,4.34c-1.84,2.07-3.89,4.4-4.55,7.14-.36,1.5,2,2.14,2.31.64.56-2.32,2.37-4.33,3.93-6.08a10.76,10.76,0,0,1,5.77-3.73c1.51-.32.87-2.64-.64-2.31Z" transform="translate(-12.17 0)"/><path class="cls-1" d="M29.7,12.45a28.08,28.08,0,0,0-3.5-.56c-1.37-.14-1.59,2-.32,2.36l.6.16-.84-1.48-.23,1.61h2.31c-.42-1.79-.7-3.12.43-4.68A10.58,10.58,0,0,1,31.77,6.8C33.69,6,37.53,4,39.49,5c1.38.69,2.59-1.37,1.21-2.07a6,6,0,0,0-5.27-.11c-2,.76-4.55,1.33-6.22,2.58a17.46,17.46,0,0,0-3.94,4c-1,1.69-.29,4,.13,5.73.26,1.09,2.15,1.2,2.31,0l.23-1.61a1.23,1.23,0,0,0-.84-1.48l-.6-.16-.32,2.36a15.45,15.45,0,0,1,2.86.48c1.5.34,2.15-2,.64-2.31Z" transform="translate(-12.17 0)"/><path class="cls-1" d="M31.59,10.16H30.21a1.2,1.2,0,0,0,0,2.4A10.54,10.54,0,0,1,34.3,13L34,10.76a5.31,5.31,0,0,1-4.36,1l-.32,2.4a4.15,4.15,0,0,1,3.34.91V13c-1.08.83-3.68.9-5.06,1.09a1.21,1.21,0,0,0-.32,2.36A4.81,4.81,0,0,0,29,17l.32-2.36c-1.66,0-3.53.47-4.16-1.16A1.23,1.23,0,0,0,24,12.56c-1.37.09-2.55-.84-3.93-.55a10.29,10.29,0,0,0-3.38,1.82c-2.52,2.07-2.43,6.87-3,9.83-.28,1.51,2,2.16,2.31.64.51-2.74.43-7.41,3.08-9,1.74-1,3-.19,4.9-.32l-1.17-.9c.42,1.1,0,1.83,1.24,2.55S28,17,29.32,17s1.68-2.12.32-2.36a4.81,4.81,0,0,1-1.71-.48l-.32,2.36c2-.27,4.6-.13,6.27-1.41a1.22,1.22,0,0,0,0-2.07,7.32,7.32,0,0,0-4.55-1.23C28,11.86,27.61,14,29,14.17a8.59,8.59,0,0,0,6.21-1.26,1.21,1.21,0,0,0-.29-2.19,17.63,17.63,0,0,0-4.73-.48v2.4h1.38a1.2,1.2,0,0,0,0-2.4Z" transform="translate(-12.17 0)"/><path class="cls-1" d="M27,20.24a5.62,5.62,0,0,1,1.45-2.48l-1.7-1.7c-2.3,2.87-6,4.75-8.9,7-1.5,1.2-5.3,3.7-2.76,5.85,1.17,1,2.88-.7,1.7-1.7-.12-.1,6.09-5,6.63-5.37a23.47,23.47,0,0,0,5-4.13c.94-1.18-.61-2.85-1.7-1.7a8.74,8.74,0,0,0-2.07,3.54c-.46,1.48,1.85,2.11,2.31.64Z" transform="translate(-12.17 0)"/><path class="cls-1" d="M14.44,29.16c1.94,3.19,5.58-2.73,7.19-3.51l-1.45-1.88L18,25.86a1.21,1.21,0,0,0,.85,2,3.67,3.67,0,0,0,3-2.12c.38-.66.7-1.35,1.1-2s1.07-2.07,1.72-2.34c1.4-.59.79-2.91-.64-2.31a5.94,5.94,0,0,0-2.52,2.47c-.56.81-1.64,3.79-2.7,3.9l.85,2,2.14-2a1.2,1.2,0,0,0-1.45-1.88,7.08,7.08,0,0,0-2.2,1.82c-.38.43-.76.86-1.18,1.25l-.45.4q-1.38.55-.08.89a1.2,1.2,0,0,0-2,1.2Z" transform="translate(-12.17 0)"/><path class="cls-1" d="M28.76,18.16a1.2,1.2,0,1,0-1.2-1.2A1.2,1.2,0,0,0,28.76,18.16Z" transform="translate(-12.17 0)"/><path class="cls-1" d="M23.16,22.26l.17.17a1.2,1.2,0,0,0,1.7-1.7h0l-.19-.17a1.2,1.2,0,0,0-1.7,1.7Z" transform="translate(-12.17 0)"/><path class="cls-1" d="M28,16.33c-1.39,1.93,1.64,2.22,2.72,2.17l13.92-.66c1.54-.07,1.55-2.47,0-2.4l-8,.38L33.22,16l-2,.1q-1.52-.36-1.09,1.46c.9-1.26-1.18-2.46-2.07-1.21Z" transform="translate(-12.17 0)"/><path class="cls-1" d="M42.08,18.68c4.39.78,8.54-.39,12.82-1.28,1.51-.31.87-2.63-.64-2.31-3.8.79-7.63,2-11.54,1.28C41.21,16.1,40.56,18.37,42.08,18.68Z" transform="translate(-12.17 0)"/><path class="cls-1" d="M35.59,18.86a1.2,1.2,0,1,0-1.2-1.2A1.2,1.2,0,0,0,35.59,18.86Z" transform="translate(-12.17 0)"/><path class="cls-1" d="M56.69,12.16a15.17,15.17,0,0,0,1.29,4l1.36-1.76c-.68-.27-1.36-.55-2-.86s-1.17-1.1-1.06.18c.08,1,.44.9,1.21,1.32a15.54,15.54,0,0,1,1.63,1c1.54,1.12,2.89,3.4,4.86,3.82,1.34.29,2.16-.79,1.91-2.06a6.78,6.78,0,0,0-3.33-4.25,1.2,1.2,0,0,0-1.21,2.07c.24.14,2.57,2,2.19,2.49l1-.59c-.84,0-2-1.63-2.52-2.15a18,18,0,0,0-2.26-1.77c-1.11-.73-3.06-2.11-4.5-1.75a1.66,1.66,0,0,0-1.07,2.42c.77,1.3,3.17,1.89,4.5,2.41,1.07.42,1.75-.92,1.36-1.76A13,13,0,0,1,59,11.47c-.26-1.52-2.57-.88-2.31.64Z" transform="translate(-12.17 0)"/><path class="cls-1" d="M60.29,16.81a1.48,1.48,0,0,0-1.06,1.8,1.68,1.68,0,0,0,.59.88,3.39,3.39,0,0,0,.34.23c.11.07,0,0,.16.13a1.21,1.21,0,0,0,1.7,0,1.23,1.23,0,0,0,0-1.7,1.85,1.85,0,0,0-.48-.4l-.17-.1q-.35-.22.16.27v.64l-.17.27-.52.33h.1a1.2,1.2,0,0,0-.64-2.31Z" transform="translate(-12.17 0)"/><path class="cls-1" d="M57,10.55a18.67,18.67,0,0,1,1.78,2l1.88-1.45a16.84,16.84,0,0,1-1.47-1.79l-1.88,1.45a41.19,41.19,0,0,1,2.58,3.46A1.21,1.21,0,0,0,62,13.3l-.16-.79q0-.76-.25,0l-1,.59a6.49,6.49,0,0,1,1.44.4,5,5,0,0,0,1.54.1c1.52-.14,1.54-2.54,0-2.4-1.13.1-2.71-1-3.7-.25s-.33,2.1-.14,3L62,13a47.06,47.06,0,0,0-3-4c-.88-1-2.68.34-1.88,1.45a21.36,21.36,0,0,0,1.85,2.28c.91,1,2.72-.35,1.88-1.45a22.86,22.86,0,0,0-2.16-2.47c-1.1-1.08-2.8.61-1.7,1.7Z" transform="translate(-12.17 0)"/><path class="cls-1" d="M59.21,7.44a4.91,4.91,0,0,0-2-.82A1.21,1.21,0,0,0,55.73,8.1c.72,2.4,4.54,1.15,5.86,3,.89,1.25,3,0,2.07-1.21A5.21,5.21,0,0,0,61.07,8c-1.1-.4-2.54-.35-3.52-1l.55.72L58,7.48,56.56,9a3.26,3.26,0,0,1,1.38.58c1.27.89,2.47-1.19,1.21-2.07Z" transform="translate(-12.17 0)"/><path class="cls-1" d="M61.42,6.07H60.18a1.21,1.21,0,0,0-.61,2.24,12.74,12.74,0,0,1,2.66,2.21,12.19,12.19,0,0,0,1.25,1c.38.27,1,.5,1.26.91.81,1.32,2.88.11,2.07-1.21-.67-1.1-2-1.57-2.88-2.44a15.07,15.07,0,0,0-3.09-2.62L60.23,8.4h1.24C63,8.46,63,6.06,61.47,6Z" transform="translate(-12.17 0)"/><path class="cls-1" d="M66.18,10.92a3.12,3.12,0,0,0-1.09-1.61,5.31,5.31,0,0,1-1.16-1.45c-.74-1.36-2.81-.15-2.07,1.21A7.22,7.22,0,0,0,63,10.65c.27.28.78.6.85.91A1.2,1.2,0,0,0,66.2,11l0-.12Z" transform="translate(-12.17 0)"/><path class="cls-1" d="M40.67,9.16A1.2,1.2,0,1,0,39.47,8,1.2,1.2,0,0,0,40.67,9.16Z" transform="translate(-12.17 0)"/><path class="cls-1" d="M54.48,14.37l-.17.08a1.2,1.2,0,0,0,1.21,2.07l.17-.08a1.2,1.2,0,0,0-1.21-2.07Z" transform="translate(-12.17 0)"/><path class="cls-1" d="M36.64,12.44a11,11,0,0,1-3.06,1.72l1.76,1.36c.49-1.51,1-4.07,2.32-5.12s4.23-1.28,6-1.42c3-.23,15.14,1.07,9.91,6.52a1.22,1.22,0,0,0,.85,2,23.91,23.91,0,0,1,4.85.87v-2.3l-1,.26a1.2,1.2,0,0,0,.64,2.31l1-.26a1.21,1.21,0,0,0,0-2.31,23.65,23.65,0,0,0-5.49-1l.85,2c1.23-1.28,3.47-3.85,2.84-5.87-.7-2.25-6.22-3.81-8.28-4.38-3.42-.93-8.76-1-12,.26-2.74,1-3.94,5.18-4.74,7.66-.35,1.09.88,1.75,1.76,1.36a11,11,0,0,0,3-1.59c1.28-.85.08-2.92-1.21-2.07Z" transform="translate(-12.17 0)"/><path class="cls-1" d="M58.09,18.66c1.13.64,2,1.67,3.12,2.32a8.5,8.5,0,0,1,3,3.11c.83,1.29,2.87.12,2.07-1.21l-.2-.33A1.2,1.2,0,0,0,64,23.76l.2.33,2.07-1.21a11.54,11.54,0,0,0-3.16-3.59,17.65,17.65,0,0,1-2-1.28,11.18,11.18,0,0,0-1.78-1.41,1.2,1.2,0,0,0-1.21,2.07Z" transform="translate(-12.17 0)"/><path class="cls-1" d="M63.74,20.26a6.55,6.55,0,0,1-1.38-.62,1.2,1.2,0,0,0-1.21,2.07,9.38,9.38,0,0,0,2,.87c1.48.47,2.11-1.85.64-2.31Z" transform="translate(-12.17 0)"/><path class="cls-1" d="M62.84,17.09a9.07,9.07,0,0,1,3.45,4.6c.27.8.24,1.68.45,2.5A8.46,8.46,0,0,1,67.37,27l2.36-.32c-.61-2.65-3.4-4-3.91-6.66-.29-1.51-2.61-.87-2.31.64.53,2.71,3.31,4,3.91,6.66.32,1.38,2.28,1,2.36-.32a10.69,10.69,0,0,0-.71-3.5,18,18,0,0,0-.83-3.39A11.44,11.44,0,0,0,64,15a1.21,1.21,0,1,0-1.2,2.1Z" transform="translate(-12.17 0)"/><path class="cls-1" d="M66.19,24.06a4.92,4.92,0,0,1,1.15,2.87A18.64,18.64,0,0,0,68.13,30a1.2,1.2,0,0,0,2.31-.64c-.74-2.45-.8-5-2.56-7-1-1.16-2.72.54-1.7,1.7Z" transform="translate(-12.17 0)"/><path class="cls-1" d="M64.34,12.27a3.68,3.68,0,0,1,1.24.91c1.06,1.12,2.76-.58,1.7-1.7A6.45,6.45,0,0,0,65,10a1.21,1.21,0,0,0-1.48.84,1.23,1.23,0,0,0,.84,1.48Z" transform="translate(-12.17 0)"/><path class="cls-1" d="M59.44,5.82l-.82-1L56.62,6l.9.87L59,5c-2.5-1.72-5.79-2.51-8.74-3-1.56-.29-4.74-1.11-5.94.3A1.21,1.21,0,0,0,44,3.4c.73,2,3.59,1.45,5.19,2,2.75,1,4.67,3.1,7.79,2.74a1.2,1.2,0,0,0,0-2.4l-1.29-.81c-.72-1.36-2.8-.15-2.07,1.21a3.44,3.44,0,0,0,3.36,2V5.74C54.45,6,52.8,4.36,50.66,3.4c-.33-.15-4.58-1.26-4.36-.67L46,3.9a20.69,20.69,0,0,1,3.12.23A27.79,27.79,0,0,1,52,4.78,17.82,17.82,0,0,1,57.76,7c1.13.78,2.42-1,1.45-1.88l-.9-.87a1.21,1.21,0,0,0-2,1.17,3.48,3.48,0,0,0,1.92,2.4c1.36.73,2.57-1.34,1.21-2.07Z" transform="translate(-12.17 0)"/><path class="cls-1" d="M39.21,4.61C40.48,2.54,45.78,3,47.86,3.19c2.77.3,5.44,1.51,8.24,1.91,1.51.21,2.16-2.1.64-2.31-4.34-.62-8-2-12.44-2-3,0-5.45-.17-7.16,2.61C36.33,4.72,38.4,5.92,39.21,4.61Z" transform="translate(-12.17 0)"/><path class="cls-2" d="M14.75,30.16a.76.76,0,0,0-.53.87" transform="translate(-12.17 0)"/><path class="cls-2" d="M14.35,28.75a2.29,2.29,0,0,0-1.63,2.31,1.54,1.54,0,0,0,1.5,1.5,1.5,1.5,0,0,0,1.5-1.5h0a.75.75,0,0,1-.54.55,1.54,1.54,0,0,0,1-1.85,1.51,1.51,0,0,0-1.85-1Z" transform="translate(-12.17 0)"/><path class="cls-1" d="M38.68,5.09c-2.14.07-4.27.09-6.41,0-7.8-.18-7.61,11.4,0,12,4,.32,6.54-1.33,10.08-2.77,2.56-1,4.81.52,7.08,1.77V5.77c.17-.09-2.86,0-2.85,0-1.44.16-2.85.4-4.27.7a12.93,12.93,0,0,1-6.58.21C28.22,4.92,25,16.49,32.54,18.25a24.68,24.68,0,0,0,11.71.1c3.73-.84,7.82-.48,11.25-2.26,4-2.07,3.84-8.25,0-10.36-3.56-2-7.33-3.8-11.47-3.85a14.53,14.53,0,0,0-6,1.24C36,4,34.6,5.27,32.27,5.12v12h6.41c7.7-.27,7.74-12.27,0-12Z" transform="translate(-12.17 0)"/><path class="cls-1" d="M35.84,17.82c2-.55,3.39-2,4.85-3.39l3-2.79a6,6,0,0,0,0-8.49,6.12,6.12,0,0,0-8.49,0L32.81,5.41,31.64,6.48,31.08,7c-1,1-.42-.21,1.57-.76a6,6,0,1,0,3.19,11.57Z" transform="translate(-12.17 0)"/><path class="cls-1" d="M49.92,17c2,.16,4,.26,6,.5A6,6,0,0,0,60.16,7.26h0A7,7,0,0,0,55.92,5.5c-2-.25-4-.35-6-.5-3.14-.24-6.14,2.93-6,6a6.15,6.15,0,0,0,6,6Z" transform="translate(-12.17 0)"/><path class="cls-1" d="M18.53,16.66a2.78,2.78,0,0,0-.94,1c-.14.24-.28,1.26-.46,1.32l1.52,1.16a10.09,10.09,0,0,1,.42-2.53A1.59,1.59,0,0,1,20.62,16h.22q1-1,.06-.19c-1.42.82-2.67,1.79-4.16,2.52l1.5,1.84A17.47,17.47,0,0,1,22,17.37a1.2,1.2,0,0,0-.92-2.19,15.6,15.6,0,0,0-2,.54l1.17,2c.57-.6,4.56-3.85,3.9-1.32-.41,1.6-2.72,3.24-4,4.07l1.21,2.07a8.33,8.33,0,0,1,1.75-1l-1.81-1L21.16,24c0,1.32,2.13,1.67,2.36.32.32-1.9,1.59-2.39,3-3.44a35.74,35.74,0,0,0,3-2.58c1.13-1.06-.57-2.75-1.7-1.7-2.39,2.25-6,3.6-6.57,7.08l2.36.32.13-3.47a1.21,1.21,0,0,0-1.81-1,8.33,8.33,0,0,0-1.75,1c-1.18.91-.12,2.94,1.21,2.07,2.23-1.45,6.82-5.16,5.22-8.33-1.72-3.39-6.43.14-8,1.8a1.21,1.21,0,0,0,1.17,2,15.6,15.6,0,0,1,2-.54l-.92-2.19a19.84,19.84,0,0,0-4.24,3.17,1.2,1.2,0,0,0,1.45,1.88c1.77-.87,8.78-4.44,4.24-6.47C18,12,16.5,16.71,16.31,20.1a1.21,1.21,0,0,0,1.52,1.16A2.12,2.12,0,0,0,19,20.57c.38-.41.45-1.58.8-1.83,1.23-.9,0-3-1.21-2.07Z" transform="translate(-12.17 0)"/><path class="cls-1" d="M29.06,15.47c-1.06-1.79-3.55-1.1-5.16-.56S20,16.61,20.84,18.8c.51,1.45,2.83.82,2.31-.64-.22-.63,1.55-1,2-1.12a8.2,8.2,0,0,1,1.18-.28c.22,0,.74,0,.68-.08a1.2,1.2,0,0,0,2.07-1.21Z" transform="translate(-12.17 0)"/><path class="cls-1" d="M13.29,28.88a2.71,2.71,0,0,0-.45,1.28,2.37,2.37,0,0,0,0,.48v.13q.22-.29,0-.07l1.7,1.7a13.35,13.35,0,0,0,3-3.55,1.2,1.2,0,0,0-2.07-1.21,11.43,11.43,0,0,1-2.63,3.1,1.21,1.21,0,0,0,0,1.7,1.23,1.23,0,0,0,1.7,0,2.06,2.06,0,0,0,.64-1.28c.06-.35,0-.8.18-1.06a1.2,1.2,0,0,0-2.07-1.21Z" transform="translate(-12.17 0)"/><path class="cls-1" d="M15.21,22a2.65,2.65,0,0,0-1.89,1.81,9.89,9.89,0,0,0-.1,3c-.06,1.54,2.34,1.54,2.4,0,0-.62-.1-1.23-.08-1.84a1.69,1.69,0,0,1,.05-.41c.06-.27.1-.21.26-.24,1.51-.31.87-2.63-.64-2.31Z" transform="translate(-12.17 0)"/><path class="cls-1" d="M61,15c1.2-.94,2.44-1.83,4-1.64l-.61-2.24c-1,.5-2.25.38-3.31.83-.9.39-.65,1.62,0,2.07a12,12,0,0,1,2.81,2.71c.91,1.23,3,0,2.07-1.21a15.48,15.48,0,0,0-3.67-3.57V14c1.06-.46,2.24-.31,3.31-.83S66,11.06,65,10.93c-2.24-.27-4.06,1-5.73,2.34a1.21,1.21,0,0,0,0,1.7,1.23,1.23,0,0,0,1.7,0Z" transform="translate(-12.17 0)"/><path class="cls-3" d="M30.68,12.24c-3.9-2.9,3.7-6,5.4-6.6.9-.4,7.5-1.9,7.6-2.2-.2.7,1,1.1,1.2.3v-.2c.1-.3,0-.5-.3-.7-1.3-.8-4,.1-5.4.4a30.58,30.58,0,0,0-7.7,3.2c-2.5,1.5-4.2,4.7-1.4,6.8C30.68,13.74,31.28,12.74,30.68,12.24Z" transform="translate(-12.17 0)"/><path class="cls-3" d="M58.68,7.84a8,8,0,0,1,5.6,2.6c.5.6,1.4-.3.8-.8a8.83,8.83,0,0,0-6.4-3,.6.6,0,0,0,0,1.2Z" transform="translate(-12.17 0)"/><path class="cls-3" d="M58.84,17.24c2.5,2.6,6.7,3.2,8.8,6.2.4.6,1.5,0,1-.6-2.2-3.2-6.4-3.7-9-6.5C59.14,15.84,58.24,16.74,58.84,17.24Z" transform="translate(-12.17 0)"/><path class="cls-3" d="M34.48,16.84c6-.8,12.1-.2,18.1-1.8.7-.2.4-1.4-.3-1.2-5.9,1.7-12,1-18.1,1.8a.62.62,0,0,0,.3,1.2Z" transform="translate(-12.17 0)"/><path class="cls-3" d="M16.18,28.64c.2-2.3.1-10.9,3.3-11.6.8-.2.4-1.3-.3-1.2-2,.4-2.6,2.1-3,4a64.23,64.23,0,0,0-1.2,8.8.6.6,0,1,0,1.2,0Z" transform="translate(-12.17 0)"/><path d="M13.38,35.34c-.1-4.8-.1-27.1,9.6-22.4.7.3,1.3-.7.6-1-11.4-5.6-11.5,17.8-11.4,23.4C12.28,36,13.48,36.14,13.38,35.34Z" transform="translate(-12.17 0)"/><path d="M14,36.44c-1.6-4.6,5.7-6.6,7.9-9,.9-1.1,1.5-2.4,2.4-3.5.3-.4,4.6-5.1,4.9-4.9.6.4,1.2-.6.6-1-1-.7-2,.7-2.6,1.3a45.68,45.68,0,0,0-5.8,6.7c-2.4,3.2-10.4,5.4-8.6,10.8C13.08,37.44,14.28,37.14,14,36.44Z" transform="translate(-12.17 0)"/><path d="M29.38,19.44c5.1,0,10.1.1,15.2.1,4.4,0,8.6-.9,13-1.1a.6.6,0,0,0,0-1.2c-4.4.2-8.6,1.1-13,1.1-5.1,0-10.1-.1-15.2-.1a.6.6,0,0,0,0,1.2Z" transform="translate(-12.17 0)"/><path d="M57,18.74c2.2,2.8,5.1,3.7,7.6,6.1a17.47,17.47,0,0,1,4.8,9.9c.1.8,1.3.4,1.2-.3a21.31,21.31,0,0,0-3.8-8.9c-2.5-3.2-6.4-4.4-8.9-7.6a.6.6,0,1,0-.9.8Z" transform="translate(-12.17 0)"/><path d="M70.58,35.16c.6-7.4-.6-17.6-7-22.5-.6-.5-1.2.6-.6,1,6,4.6,7,14.5,6.4,21.4a.6.6,0,0,0,1.2.1Z" transform="translate(-12.17 0)"/><path d="M56.84,6.16c4.4-1.3,8.7,3.2,10.3,6.8.3.7,1.3.1,1-.6-1.8-4.2-6.7-8.8-11.6-7.4a.62.62,0,1,0,.22,1.22Z" transform="translate(-12.17 0)"/><path d="M67.68,13.34a31.7,31.7,0,0,0-6.1-.7.6.6,0,0,0,0,1.2,22.47,22.47,0,0,1,5.8.7C68.08,14.64,68.38,13.54,67.68,13.34Z" transform="translate(-12.17 0)"/><path d="M66.78,13.34v.3a.6.6,0,1,0,1.2,0h0v-.3a.6.6,0,0,0-1.2,0Z" transform="translate(-12.17 0)"/><path d="M24.78,12.44c.4-6,10.4-9.9,15.3-10.8A27.66,27.66,0,0,1,59,4.84c.7.4,1.3-.7.6-1-6.8-3.7-14.7-5-22.2-2.7-5.1,1.5-13.4,5.4-13.8,11.4C23.48,13.14,24.68,13.14,24.78,12.44Z" transform="translate(-12.17 0)"/><path d="M27,14.94a3.08,3.08,0,0,1-1.8-2.8.6.6,0,1,0-1.2,0h0a4.26,4.26,0,0,0,2.3,3.8C27.08,16.34,27.68,15.24,27,14.94Z" transform="translate(-12.17 0)"/></svg>