<svg id="Layer_1" data-name="Layer 1" xmlns="http://www.w3.org/2000/svg" viewBox="0 0 58.55 37.17"><defs><style>.cls-1{fill:#603117;}.cls-2{fill:#f07a22;}.cls-3{fill:#613719;}</style></defs><title>Brown</title><path class="cls-1" d="M42.39,13.16c1.1-2.25-.92-3.08-2.56-4l-.61,2.24L51,11.59a1.2,1.2,0,0,0,0-2.4L39.22,9a1.21,1.21,0,0,0-.61,2.24c.16.09,1.61.88,1.7.7-.68,1.38,1.39,2.6,2.07,1.21Z" transform="translate(-12.17 0)"/><path class="cls-1" d="M24,16.52a12.81,12.81,0,0,0-6.83,4.34c-1.84,2.07-3.89,4.4-4.55,7.14-.36,1.5,2,2.14,2.31.64.56-2.32,2.37-4.33,3.93-6.08a10.76,10.76,0,0,1,5.77-3.73c1.51-.32.87-2.64-.64-2.31Z" transform="translate(-12.17 0)"/><path class="cls-1" d="M29.7,12.45a28.08,28.08,0,0,0-3.5-.56c-1.37-.14-1.59,2-.32,2.36l.6.16-.84-1.48-.23,1.61h2.31c-.42-1.79-.7-3.12.43-4.68A10.58,10.58,0,0,1,31.77,6.8C33.69,6,37.53,4,39.49,5c1.38.69,2.59-1.37,1.21-2.07a6,6,0,0,0-5.27-.11c-2,.76-4.55,1.33-6.22,2.58a17.46,17.46,0,0,0-3.94,4c-1,1.69-.29,4,.13,5.73.26,1.09,2.15,1.2,2.31,0l.23-1.61a1.23,1.23,0,0,0-.84-1.48l-.6-.16-.32,2.36a15.45,15.45,0,0,1,2.86.48c1.5.34,2.15-2,.64-2.31Z" transform="translate(-12.17 0)"/><path class="cls-1" d="M31.59,10.16H30.21a1.2,1.2,0,0,0,0,2.4A10.54,10.54,0,0,1,34.3,13L34,10.76a5.31,5.31,0,0,1-4.36,1l-.32,2.4a4.15,4.15,0,0,1,3.34.91V13c-1.08.83-3.68.9-5.06,1.09a1.21,1.21,0,0,0-.32,2.36A4.81,4.81,0,0,0,29,17l.32-2.36c-1.66,0-3.53.47-4.16-1.16A1.23,1.23,0,0,0,24,12.56c-1.37.09-2.55-.84-3.93-.55a10.29,10.29,0,0,0-3.38,1.82c-2.52,2.07-2.43,6.87-3,9.83-.28,1.51,2,2.16,2.31.64.51-2.74.43-7.41,3.08-9,1.74-1,3-.19,4.9-.32l-1.17-.9c.42,1.1,0,1.83,1.24,2.55S28,17,29.32,17s1.68-2.12.32-2.36a4.81,4.81,0,0,1-1.71-.48l-.32,2.36c2-.27,4.6-.13,6.27-1.41a1.22,1.22,0,0,0,0-2.07,7.32,7.32,0,0,0-4.55-1.23C28,11.86,27.61,14,29,14.17a8.59,8.59,0,0,0,6.21-1.26,1.21,1.21,0,0,0-.29-2.19,17.63,17.63,0,0,0-4.73-.48v2.4h1.38a1.2,1.2,0,0,0,0-2.4Z" transform="translate(-12.17 0)"/><path class="cls-1" d="M27,20.24a5.62,5.62,0,0,1,1.45-2.48l-1.7-1.7c-2.3,2.87-6,4.75-8.9,7-1.5,1.2-5.3,3.7-2.76,5.85,1.17,1,2.88-.7,1.7-1.7-.12-.1,6.09-5,6.63-5.37a23.47,23.47,0,0,0,5-4.13c.94-1.18-.61-2.85-1.7-1.7a8.74,8.74,0,0,0-2.07,3.54c-.46,1.48,1.85,2.11,2.31.64Z" transform="translate(-12.17 0)"/><path class="cls-1" d="M14.44,29.16c1.94,3.19,5.58-2.73,7.19-3.51l-1.45-1.88L18,25.86a1.21,1.21,0,0,0,.85,2,3.67,3.67,0,0,0,3-2.12c.38-.66.7-1.35,1.1-2s1.07-2.07,1.72-2.34c1.4-.59.79-2.91-.64-2.31a5.94,5.94,0,0,0-2.52,2.47c-.56.81-1.64,3.79-2.7,3.9l.85,2,2.14-2a1.2,1.2,0,0,0-1.45-1.88,7.08,7.08,0,0,0-2.2,1.82c-.38.43-.76.86-1.18,1.25l-.45.4q-1.38.55-.08.89a1.2,1.2,0,0,0-2,1.2Z" transform="translate(-12.17 0)"/><path class="cls-1" d="M28.76,18.16a1.2,1.2,0,1,0-1.2-1.2A1.2,1.2,0,0,0,28.76,18.16Z" transform="translate(-12.17 0)"/><path class="cls-1" d="M23.16,22.26l.17.17a1.2,1.2,0,0,0,1.7-1.7h0l-.19-.17a1.2,1.2,0,0,0-1.7,1.7Z" transform="translate(-12.17 0)"/><path class="cls-1" d="M28,16.33c-1.39,1.93,1.64,2.22,2.72,2.17l13.92-.66c1.54-.07,1.55-2.47,0-2.4l-8,.38L33.22,16l-2,.1q-1.52-.36-1.09,1.46c.9-1.26-1.18-2.46-2.07-1.21Z" transform="translate(-12.17 0)"/><path class="cls-1" d="M42.08,18.68c4.39.78,8.54-.39,12.82-1.28,1.51-.31.87-2.63-.64-2.31-3.8.79-7.63,2-11.54,1.28C41.21,16.1,40.56,18.37,42.08,18.68Z" transform="translate(-12.17 0)"/><path class="cls-1" d="M35.59,18.86a1.2,1.2,0,1,0-1.2-1.2A1.2,1.2,0,0,0,35.59,18.86Z" transform="translate(-12.17 0)"/><path class="cls-1" d="M56.69,12.16a15.17,15.17,0,0,0,1.29,4l1.36-1.76c-.68-.27-1.36-.55-2-.86s-1.17-1.1-1.06.18c.08,1,.44.9,1.21,1.32a15.54,15.54,0,0,1,1.63,1c1.54,1.12,2.89,3.4,4.86,3.82,1.34.29,2.16-.79,1.91-2.06a6.78,6.78,0,0,0-3.33-4.25,1.2,1.2,0,0,0-1.21,2.07c.24.14,2.57,2,2.19,2.49l1-.59c-.84,0-2-1.63-2.52-2.15a18,18,0,0,0-2.26-1.77c-1.11-.73-3.06-2.11-4.5-1.75a1.66,1.66,0,0,0-1.07,2.42c.77,1.3,3.17,1.89,4.5,2.41,1.07.42,1.75-.92,1.36-1.76A13,13,0,0,1,59,11.47c-.26-1.52-2.57-.88-2.31.64Z" transform="translate(-12.17 0)"/><path class="cls-1" d="M60.29,16.81a1.48,1.48,0,0,0-1.06,1.8,1.68,1.68,0,0,0,.59.88,3.39,3.39,0,0,0,.34.23c.11.07,0,0,.16.13a1.21,1.21,0,0,0,1.7,0,1.23,1.23,0,0,0,0-1.7,1.85,1.85,0,0,0-.48-.4l-.17-.1q-.35-.22.16.27v.64l-.17.27-.52.33h.1a1.2,1.2,0,0,0-.64-2.31Z" transform="translate(-12.17 0)"/><path class="cls-1" d="M57,10.55a18.67,18.67,0,0,1,1.78,2l1.88-1.45a16.84,16.84,0,0,1-1.47-1.79l-1.88,1.45a41.19,41.19,0,0,1,2.58,3.46A1.21,1.21,0,0,0,62,13.3l-.16-.79q0-.76-.25,0l-1,.59a6.49,6.49,0,0,1,1.44.4,5,5,0,0,0,1.54.1c1.52-.14,1.54-2.54,0-2.4-1.13.1-2.71-1-3.7-.25s-.33,2.1-.14,3L62,13a47.06,47.06,0,0,0-3-4c-.88-1-2.68.34-1.88,1.45a21.36,21.36,0,0,0,1.85,2.28c.91,1,2.72-.35,1.88-1.45a22.86,22.86,0,0,0-2.16-2.47c-1.1-1.08-2.8.61-1.7,1.7Z" transform="translate(-12.17 0)"/><path class="cls-1" d="M59.21,7.44a4.91,4.91,0,0,0-2-.82A1.21,1.21,0,0,0,55.73,8.1c.72,2.4,4.54,1.15,5.86,3,.89,1.25,3,0,2.07-1.21A5.21,5.21,0,0,0,61.07,8c-1.1-.4-2.54-.35-3.52-1l.55.72L58,7.48,56.56,9a3.26,3.26,0,0,1,1.38.58c1.27.89,2.47-1.19,1.21-2.07Z" transform="translate(-12.17 0)"/><path class="cls-1" d="M61.42,6.07H60.18a1.21,1.21,0,0,0-.61,2.24,12.74,12.74,0,0,1,2.66,2.21,12.19,12.19,0,0,0,1.25,1c.38.27,1,.5,1.26.91.81,1.32,2.88.11,2.07-1.21-.67-1.1-2-1.57-2.88-2.44a15.07,15.07,0,0,0-3.09-2.62L60.23,8.4h1.24C63,8.46,63,6.06,61.47,6Z" transform="translate(-12.17 0)"/><path class="cls-1" d="M66.18,10.92a3.12,3.12,0,0,0-1.09-1.61,5.31,5.31,0,0,1-1.16-1.45c-.74-1.36-2.81-.15-2.07,1.21A7.22,7.22,0,0,0,63,10.65c.27.28.78.6.85.91A1.2,1.2,0,0,0,66.2,11l0-.12Z" transform="translate(-12.17 0)"/><path class="cls-1" d="M40.67,9.16A1.2,1.2,0,1,0,39.47,8,1.2,1.2,0,0,0,40.67,9.16Z" transform="translate(-12.17 0)"/><path class="cls-2" d="M55.09,15.41l-.17.08" transform="translate(-12.17 0)"/><path class="cls-2" d="M54.48,14.37l-.17.08a1.2,1.2,0,0,0,1.21,2.07l.17-.08a1.2,1.2,0,0,0-1.21-2.07Z" transform="translate(-12.17 0)"/><path class="cls-1" d="M36.64,12.44a11,11,0,0,1-3.06,1.72l1.76,1.36c.49-1.51,1-4.07,2.32-5.12s4.23-1.28,6-1.42c3-.23,15.14,1.07,9.91,6.52a1.22,1.22,0,0,0,.85,2,23.91,23.91,0,0,1,4.85.87v-2.3l-1,.26a1.2,1.2,0,0,0,.64,2.31l1-.26a1.21,1.21,0,0,0,0-2.31,23.65,23.65,0,0,0-5.49-1l.85,2c1.23-1.28,3.47-3.85,2.84-5.87-.7-2.25-6.22-3.81-8.28-4.38-3.42-.93-8.76-1-12,.26-2.74,1-3.94,5.18-4.74,7.66-.35,1.09.88,1.75,1.76,1.36a11,11,0,0,0,3-1.59c1.28-.85.08-2.92-1.21-2.07Z" transform="translate(-12.17 0)"/><path class="cls-1" d="M58.09,18.66c1.13.64,2,1.67,3.12,2.32a8.5,8.5,0,0,1,3,3.11c.83,1.29,2.87.12,2.07-1.21l-.2-.33A1.2,1.2,0,0,0,64,23.76l.2.33,2.07-1.21a11.54,11.54,0,0,0-3.16-3.59,17.65,17.65,0,0,1-2-1.28,11.18,11.18,0,0,0-1.78-1.41,1.2,1.2,0,0,0-1.21,2.07Z" transform="translate(-12.17 0)"/><path class="cls-1" d="M63.74,20.26a6.55,6.55,0,0,1-1.38-.62,1.2,1.2,0,0,0-1.21,2.07,9.38,9.38,0,0,0,2,.87c1.48.47,2.11-1.85.64-2.31Z" transform="translate(-12.17 0)"/><path class="cls-1" d="M62.84,17.09a9.07,9.07,0,0,1,3.45,4.6c.27.8.24,1.68.45,2.5A8.46,8.46,0,0,1,67.37,27l2.36-.32c-.61-2.65-3.4-4-3.91-6.66-.29-1.51-2.61-.87-2.31.64.53,2.71,3.31,4,3.91,6.66.32,1.38,2.28,1,2.36-.32a10.69,10.69,0,0,0-.71-3.5,18,18,0,0,0-.83-3.39A11.44,11.44,0,0,0,64,15a1.21,1.21,0,1,0-1.2,2.1Z" transform="translate(-12.17 0)"/><path class="cls-1" d="M66.19,24.06a4.92,4.92,0,0,1,1.15,2.87A18.64,18.64,0,0,0,68.13,30a1.2,1.2,0,0,0,2.31-.64c-.74-2.45-.8-5-2.56-7-1-1.16-2.72.54-1.7,1.7Z" transform="translate(-12.17 0)"/><path class="cls-1" d="M64.34,12.27a3.68,3.68,0,0,1,1.24.91c1.06,1.12,2.76-.58,1.7-1.7A6.45,6.45,0,0,0,65,10a1.21,1.21,0,0,0-1.48.84,1.23,1.23,0,0,0,.84,1.48Z" transform="translate(-12.17 0)"/><path class="cls-1" d="M59.44,5.82l-.82-1L56.62,6l.9.87L59,5c-2.5-1.72-5.79-2.51-8.74-3-1.56-.29-4.74-1.11-5.94.3A1.21,1.21,0,0,0,44,3.4c.73,2,3.59,1.45,5.19,2,2.75,1,4.67,3.1,7.79,2.74a1.2,1.2,0,0,0,0-2.4l-1.29-.81c-.72-1.36-2.8-.15-2.07,1.21a3.44,3.44,0,0,0,3.36,2V5.74C54.45,6,52.8,4.36,50.66,3.4c-.33-.15-4.58-1.26-4.36-.67L46,3.9a20.69,20.69,0,0,1,3.12.23A27.79,27.79,0,0,1,52,4.78,17.82,17.82,0,0,1,57.76,7c1.13.78,2.42-1,1.45-1.88l-.9-.87a1.21,1.21,0,0,0-2,1.17,3.48,3.48,0,0,0,1.92,2.4c1.36.73,2.57-1.34,1.21-2.07Z" transform="translate(-12.17 0)"/><path class="cls-1" d="M39.21,4.61C40.48,2.54,45.78,3,47.86,3.19c2.77.3,5.44,1.51,8.24,1.91,1.51.21,2.16-2.1.64-2.31-4.34-.62-8-2-12.44-2-3,0-5.45-.17-7.16,2.61C36.33,4.72,38.4,5.92,39.21,4.61Z" transform="translate(-12.17 0)"/><path class="cls-1" d="M17.6,17.91c0,.28-.3,1.72-.13,1.9.53.59,2.1-2.11,2.26-2.27a11.34,11.34,0,0,1,1.85-1,23.87,23.87,0,0,1-2.67.8l.93,2.23a15.53,15.53,0,0,0,4.29-2.92,1.21,1.21,0,0,0-.53-2c-3.18-1.18-5.05,3.86-6.48,5.73S14,23.5,13.17,25.69A14.74,14.74,0,0,0,12.73,32a1.22,1.22,0,0,0,2,.85q2-2,3.8-4.15c1-1.17-.69-2.87-1.7-1.7Q15,29.16,13.08,31.16l2,.85c-.16-2-.42-4.26.56-6.16a20.35,20.35,0,0,1,3-3.51c.73-.88,3.13-5.82,4.32-5.38l-.53-2a13.74,13.74,0,0,1-3.8,2.54c-1.25.58-.36,2.55.92,2.19,2-.54,7.33-1.4,5.25-4.73-1.64-2.63-4.92-1.29-6.52.51-1.27,1.43-4.42,5.92-1.69,7.59,3.25,2,3.3-3.63,3.41-5.16s-2.29-1.54-2.4,0Z" transform="translate(-12.17 0)"/><path class="cls-1" d="M22.23,23.53l1.16-.11-1.16-.88c.05.37-4.93,4.06-5.22,4.28-1,.73-.45,2.75.92,2.19a4.85,4.85,0,0,0,3.28-3.6c.34-1.63-.06-2.5.52-4.2.91-2.67,3.1-4.38,5.6-5.65l-1.75-1.4c-.29,1.89-4.23,4.1-5.6,5.23-1,.86.34,2.68,1.45,1.88l3.78-2.71c1.78-1.28,1.73-1.47-.1,0L27,20c1.16-2.54,3-6.17,5.62-7.43Q34,10.83,35.8,13a5.75,5.75,0,0,1-2.25,2.19q-2.18,1.22.13.39A18.08,18.08,0,0,1,37,15.06c1.53-.13,1.54-2.53,0-2.4-2.16.18-7,.19-7.72,2.84a1.19,1.19,0,0,0,.31,1.17,4.5,4.5,0,0,0,5.88.2c1.7-1.27,4.24-4.1,3.1-6.33-3.52-6.89-12.33,5.38-13.64,8.27a1.21,1.21,0,0,0,1.9,1.45c1.35-1,4.17-3.69,1.51-5.23-2.43-1.41-6.4,3-8.11,4.22l1.43,1.91c2-1.67,5.79-3.52,6.22-6.29a1.22,1.22,0,0,0-1.76-1.36,17.79,17.79,0,0,0-6.37,5.3c-1.45,2.08-.18,7-2.46,7.91l.92,2.19c2-1.5,6.74-4.09,6.32-7-.08-.56-.68-.82-1.16-.88a4.38,4.38,0,0,0-1.8.2c-1.51.32-.87,2.64.64,2.31Z" transform="translate(-12.17 0)"/><path class="cls-1" d="M38.5,14.48a10.91,10.91,0,0,1,8.08-2.64l-.85-2c-2.11,2.13-6.18,2.64-8.9,3.94-1.43.68-5.68,2.12-5.31,4.34.34,2,2.44,1.13,3.71.86,3.62-.78,7.42.06,11.09-.48,1.52-.22.88-2.53-.64-2.31a57.36,57.36,0,0,1-7.44.11,21.33,21.33,0,0,0-2.24.14c-.91.11-2.22.73-3.1.62l1,.59c.21.3,7.42-3.21,8.16-3.46,2-.68,3.83-1.15,5.33-2.66a1.21,1.21,0,0,0-.85-2,13.35,13.35,0,0,0-9.7,3.25c-1.18,1,.53,2.7,1.7,1.7Z" transform="translate(-12.17 0)"/><path class="cls-1" d="M62.36,13V14l-1,.59c.42,0,1.13.66,1.43.9.49.4.95.84,1.4,1.28a1.21,1.21,0,0,0,1.88-1.45l-1.44-3.19-1,1.81a12.5,12.5,0,0,1,2.08-.06c1.54.09,1.54-2.32,0-2.4a12.5,12.5,0,0,0-2.08.06,1.22,1.22,0,0,0-1,1.81L64,16.52l1.79-1.41c-1.19-1.16-2.76-2.79-4.53-2.88a1.2,1.2,0,0,0-1,.59v.07a1.21,1.21,0,0,0,0,1.21v.07A1.2,1.2,0,0,0,62.38,13Z" transform="translate(-12.17 0)"/><path class="cls-1" d="M58.94,10.83l1.09.44.92-2.19a14.8,14.8,0,0,1-4.66-2,1.21,1.21,0,0,0-1.64,1.64A5.29,5.29,0,0,0,56,10.32l1.45-1.88L51.49,5.92A1.2,1.2,0,0,0,50.28,8L53,9.78l.92-2.19A54.52,54.52,0,0,1,42.92,3c-1.63-1-3.13-.77-4.77-1.59-1.38-.68-2.6,1.39-1.21,2.07A124.84,124.84,0,0,0,53.25,9.89c1.34.44,2-1.47.92-2.19L51.45,5.91,50.24,8l5.93,2.52c1.14.49,2.56-.88,1.45-1.88l-.94-1.11-1.6,1.65a16.29,16.29,0,0,0,5.24,2.2,1.21,1.21,0,0,0,.92-2.2,3,3,0,0,0-1.66-.68c-1.51-.27-2.16,2-.64,2.31Z" transform="translate(-12.17 0)"/><path class="cls-1" d="M47.17,5.56a16.27,16.27,0,0,0-7.45,1c-.74.28-1.31,1.39-.53,2,3.47,2.73,7.94,2.13,11.65,4.28l.61-2.24a42.56,42.56,0,0,1-6.17-1.07,1.21,1.21,0,0,0-.92,2.19c1.42.81,2.86,1.55,4.35,2.23l.92-2.19q-1.67-.64-3.31-1.32v2.31c-.44.11,3.87,2.32,4.12,2.4l.32-2.36a123.19,123.19,0,0,0-12.65,1.68,1.21,1.21,0,0,0,.32,2.36l5.78-.45c1.33-.1,5.23-1,6.26-.09l-.19-1.45c-.33.63-4.39,1.07-5,1l1.16.88c-.06-.39,6.62-.86,7.11-.83a1.21,1.21,0,0,0,.61-2.24,8.29,8.29,0,0,1-3.47-3.53l-1.36,1.76a39.79,39.79,0,0,1,4.74,2,1.21,1.21,0,0,0,1.64-1.64,11.41,11.41,0,0,0-3.52-3.75c-1.13-.79-2.41,1-1.45,1.88a6.91,6.91,0,0,1,1.09,1.2c1,1.2,2.66-.5,1.7-1.7a6.91,6.91,0,0,0-1.09-1.2L51,10.55a8.69,8.69,0,0,1,2.66,2.88l1.64-1.64A44.59,44.59,0,0,0,50,9.53a1.21,1.21,0,0,0-1.36,1.76A10.47,10.47,0,0,0,53,15.68l.61-2.24c-2.43-.19-10,.07-9.43,3.86a1.22,1.22,0,0,0,1.16.88c1.75.21,6.15-.43,7.07-2.18a1.23,1.23,0,0,0-.19-1.45c-1.37-1.26-3.34-1-5.07-.83-2.89.21-5.78.45-8.67.68l.32,2.36a117,117,0,0,1,12-1.59,1.21,1.21,0,0,0,.32-2.36c-1.56-.45-2.62-1.76-4-2.25a1.91,1.91,0,0,0-1.36-.15,1.21,1.21,0,0,0,0,2.31c1,.41,2.2.9,3.31,1.32s2.16-1.63.92-2.19c-1.49-.68-2.93-1.42-4.35-2.23l-.92,2.19A46.91,46.91,0,0,0,51.49,13c1.23.12,1.58-1.67.61-2.24-3.45-2-8-1.43-11.16-3.91l-.53,2a14.81,14.81,0,0,1,6.81-.9c1.54.15,1.53-2.25,0-2.4Z" transform="translate(-12.17 0)"/><path class="cls-1" d="M44.94,12.25a13.13,13.13,0,0,1-3.76.33l.61,2.24a29.46,29.46,0,0,1,8.12-2c1.29-.18,1-2,0-2.31L46.42,9.25c-.54-.19-3-.7-3.27-1.18V9.28c.66-1.23,5.19-.49,6.31-.37a1.21,1.21,0,0,0,.61-2.24C48.41,5.84,46.72,5.1,45,4.42l-.64,2.31,5.44,1.63c.95.29,2-.89,1.36-1.76a13.63,13.63,0,0,0-2.09-2.38L47.59,6.16l1.23.62.61-2.24c-1.63-.13-5-.63-5.89-2.3l-1,1.81a7.18,7.18,0,0,0,4-.9,1.23,1.23,0,0,0,.55-1.36C46.65.52,46,.57,44.78.35c-1.51-.28-2.16,2-.64,2.31a9.55,9.55,0,0,1,1.34.22L44.64,2l.13.38.55-1.36a5.09,5.09,0,0,1-2.8.57,1.21,1.21,0,0,0-1,1.81C42.8,6,47,6.72,49.52,6.92a1.21,1.21,0,0,0,.61-2.24l-1.29-.62c-1.15-.58-2.53.93-1.45,1.88a10.61,10.61,0,0,1,1.72,1.89l1.36-1.76L45,4.44C43.52,4,43,6.2,44.39,6.75s3,1.27,4.51,2l.61-2.24C47.65,6.32,41.6,5.43,41,8.36c-.2,1,.54,1.57,1.33,2a73.25,73.25,0,0,0,7,2.52V10.53a31.29,31.29,0,0,0-8.69,2.21c-1.16.52-.47,2.18.61,2.24a15.4,15.4,0,0,0,4.4-.41c1.5-.35.87-2.67-.64-2.31Z" transform="translate(-12.17 0)"/><path class="cls-1" d="M47.56,7.37c-.78.4-1.58.77-2.4,1.1-1,.41-1.26,2,0,2.31a21.51,21.51,0,0,0,4.34.58,1.2,1.2,0,0,0,0-2.4,18.23,18.23,0,0,1-3.7-.49v2.31c1-.41,2-.85,3-1.34,1.38-.7.16-2.77-1.21-2.07Z" transform="translate(-12.17 0)"/><path class="cls-1" d="M28.73,13.41c4.3-3.12,9.13-5,14.13-6.73a1.21,1.21,0,0,0-.32-2.36c-2.8-.35-6.84-.6-9.39,1-1.09.66-1.92,1.63-3.06,2.28a10.07,10.07,0,0,0-3.25,2.39c-1,1.2.73,2.9,1.7,1.7,1.23-1.48,3.3-2.35,4.93-3.48,2.72-1.88,5.82-1.87,9.07-1.47l-.32-2.36C37,6.08,32,8.07,27.51,11.33c-1.24.9,0,3,1.21,2.07Z" transform="translate(-12.17 0)"/><path class="cls-1" d="M41.26,6.8a19.65,19.65,0,0,1-3.88-.08V9.16a32.27,32.27,0,0,1,8.49.64,1.2,1.2,0,0,0,.64-2.31,34.7,34.7,0,0,0-9.13-.73,1.2,1.2,0,0,0,0,2.4,19.65,19.65,0,0,0,3.88.08c1.53-.12,1.54-2.52,0-2.4Z" transform="translate(-12.17 0)"/><path class="cls-3" d="M30.68,12.24c-3.9-2.9,3.7-6,5.4-6.6.9-.4,7.5-1.9,7.6-2.2-.2.7,1,1.1,1.2.3v-.2c.1-.3,0-.5-.3-.7-1.3-.8-4,.1-5.4.4a30.58,30.58,0,0,0-7.7,3.2c-2.5,1.5-4.2,4.7-1.4,6.8C30.68,13.74,31.28,12.74,30.68,12.24Z" transform="translate(-12.17 0)"/><path class="cls-3" d="M58.68,7.84a8,8,0,0,1,5.6,2.6c.5.6,1.4-.3.8-.8a8.83,8.83,0,0,0-6.4-3,.6.6,0,0,0,0,1.2Z" transform="translate(-12.17 0)"/><path class="cls-3" d="M58.84,17.24c2.5,2.6,6.7,3.2,8.8,6.2.4.6,1.5,0,1-.6-2.2-3.2-6.4-3.7-9-6.5C59.14,15.84,58.24,16.74,58.84,17.24Z" transform="translate(-12.17 0)"/><path class="cls-3" d="M34.48,16.84c6-.8,12.1-.2,18.1-1.8.7-.2.4-1.4-.3-1.2-5.9,1.7-12,1-18.1,1.8a.62.62,0,0,0,.3,1.2Z" transform="translate(-12.17 0)"/><path class="cls-3" d="M16.18,28.64c.2-2.3.1-10.9,3.3-11.6.8-.2.4-1.3-.3-1.2-2,.4-2.6,2.1-3,4a64.23,64.23,0,0,0-1.2,8.8.6.6,0,1,0,1.2,0Z" transform="translate(-12.17 0)"/><path class="cls-3" d="M12.78,32.44a4.88,4.88,0,0,1,.3.7c.3.7,1.4.1,1-.6a4.88,4.88,0,0,1-.3-.7C13.48,31.14,12.48,31.84,12.78,32.44Z" transform="translate(-12.17 0)"/><path d="M13.38,35.34c-.1-4.8-.1-27.1,9.6-22.4.7.3,1.3-.7.6-1-11.4-5.6-11.5,17.8-11.4,23.4C12.28,36,13.48,36.14,13.38,35.34Z" transform="translate(-12.17 0)"/><path d="M14,36.44c-1.6-4.6,5.7-6.6,7.9-9,.9-1.1,1.5-2.4,2.4-3.5.3-.4,4.6-5.1,4.9-4.9.6.4,1.2-.6.6-1-1-.7-2,.7-2.6,1.3a45.68,45.68,0,0,0-5.8,6.7c-2.4,3.2-10.4,5.4-8.6,10.8C13.08,37.44,14.28,37.14,14,36.44Z" transform="translate(-12.17 0)"/><path d="M29.38,19.44c5.1,0,10.1.1,15.2.1,4.4,0,8.6-.9,13-1.1a.6.6,0,0,0,0-1.2c-4.4.2-8.6,1.1-13,1.1-5.1,0-10.1-.1-15.2-.1a.6.6,0,0,0,0,1.2Z" transform="translate(-12.17 0)"/><path d="M57,18.74c2.2,2.8,5.1,3.7,7.6,6.1a17.47,17.47,0,0,1,4.8,9.9c.1.8,1.3.4,1.2-.3a21.31,21.31,0,0,0-3.8-8.9c-2.5-3.2-6.4-4.4-8.9-7.6a.6.6,0,1,0-.9.8Z" transform="translate(-12.17 0)"/><path d="M70.58,35.16c.6-7.4-.6-17.6-7-22.5-.6-.5-1.2.6-.6,1,6,4.6,7,14.5,6.4,21.4a.6.6,0,0,0,1.2.1Z" transform="translate(-12.17 0)"/><path d="M56.84,6.16c4.4-1.3,8.7,3.2,10.3,6.8.3.7,1.3.1,1-.6-1.8-4.2-6.7-8.8-11.6-7.4a.62.62,0,1,0,.22,1.22Z" transform="translate(-12.17 0)"/><path d="M67.68,13.34a31.7,31.7,0,0,0-6.1-.7.6.6,0,0,0,0,1.2,22.47,22.47,0,0,1,5.8.7C68.08,14.64,68.38,13.54,67.68,13.34Z" transform="translate(-12.17 0)"/><path d="M66.78,13.34v.3a.6.6,0,1,0,1.2,0h0v-.3a.6.6,0,0,0-1.2,0Z" transform="translate(-12.17 0)"/><path d="M24.78,12.44c.4-6,10.4-9.9,15.3-10.8A27.66,27.66,0,0,1,59,4.84c.7.4,1.3-.7.6-1-6.8-3.7-14.7-5-22.2-2.7-5.1,1.5-13.4,5.4-13.8,11.4C23.48,13.14,24.68,13.14,24.78,12.44Z" transform="translate(-12.17 0)"/><path d="M27,14.94a3.08,3.08,0,0,1-1.8-2.8.6.6,0,1,0-1.2,0h0a4.26,4.26,0,0,0,2.3,3.8C27.08,16.34,27.68,15.24,27,14.94Z" transform="translate(-12.17 0)"/></svg>