<svg id="Layer_1" data-name="Layer 1" xmlns="http://www.w3.org/2000/svg" viewBox="0 0 58.55 37.17"><defs><style>.cls-1{fill:#f07a22;}.cls-2{fill:#ee8722;}</style></defs><title>Orange</title><path class="cls-1" d="M41.35,12.59c.44-.44.07-1.23-.45-1.55s-1.18-.42-1.68-.79L51,10.44" transform="translate(-12.16 0)"/><path class="cls-1" d="M46.54,15.62a7.09,7.09,0,0,0,0-7.08,6.93,6.93,0,0,0-2-2.21c-.3-.22-3.24-1.79-2.29-1.26l-3,11.18L51,16.44c7.72.13,7.73-11.87,0-12L39.25,4.25c-5.89-.1-8.24,8.31-3,11.18a6.68,6.68,0,0,0,1.26.6q2.13,1-1.14-1.23l-.82-3,.05.44.82-3-.19.38a6.16,6.16,0,0,0,2.15,8.21c2.64,1.54,6.78.77,8.21-2.15Z" transform="translate(-12.16 0)"/><path class="cls-1" d="M24.27,17.68a9.67,9.67,0,0,0-4.69,2.41,28.84,28.84,0,0,0-3.54,4,10,10,0,0,0-2.31,4.24" transform="translate(-12.16 0)"/><path class="cls-1" d="M23.84,16.23a13.08,13.08,0,0,0-7,4.42c-1.87,2.11-4,4.48-4.63,7.27-.45,1.88,2.44,2.68,2.89.8.55-2.27,2.33-4.24,3.86-6a10.49,10.49,0,0,1,5.71-3.56c1.89-.41,1.09-3.3-.8-2.89Z" transform="translate(-12.16 0)"/><path class="cls-1" d="M29.38,13.6a17.26,17.26,0,0,0-3.18-.52.8.8,0,0,1,.6.16l-.23,1.61A22.42,22.42,0,0,1,26,11.67,2.52,2.52,0,0,1,26,10.52a2.67,2.67,0,0,1,.65-.89l2.45-2.47A5.49,5.49,0,0,1,30.61,6a9.41,9.41,0,0,1,1.73-.49c1.33-.35,2.51-1.11,3.8-1.59a4.35,4.35,0,0,1,4,.15" transform="translate(-12.16 0)"/><path class="cls-1" d="M29.78,12.16a28.74,28.74,0,0,0-3.58-.57c-1.71-.17-2,2.51-.4,3l.6.16-1-1.85-.23,1.61h2.89c-.4-1.72-.7-2.9.35-4.39a10.3,10.3,0,0,1,3.49-3c1.79-.8,5.66-2.72,7.49-1.8s3.24-1.72,1.51-2.59a6.35,6.35,0,0,0-5.5-.14c-2,.76-4.61,1.35-6.29,2.61a17.67,17.67,0,0,0-4,4.13c-1.09,1.77-.34,4.1.1,6,.32,1.36,2.68,1.5,2.89,0l.23-1.61a1.54,1.54,0,0,0-1-1.85l-.6-.16-.4,3a15,15,0,0,1,2.78.46c1.88.43,2.68-2.46.8-2.89Z" transform="translate(-12.16 0)"/><path class="cls-1" d="M31.59,11.38H30.21a11.57,11.57,0,0,1,4.41.44A6.45,6.45,0,0,1,29.33,13,5.19,5.19,0,0,1,33.28,14a2,2,0,0,1-1.52.69l-4.15.56a4.81,4.81,0,0,0,1.74.48l-3.82-.07c-.53,0-1.21-.13-1.33-.65s.26-1.13-.18-1.32a.78.78,0,0,0-.49,0,2.51,2.51,0,0,1-1.85-.25,3.56,3.56,0,0,0-.74-.31c-.88-.25-1.61.67-2.41,1.11-.35.2-.74.31-1.08.52a4,4,0,0,0-1.35,2.77L14.9,24" transform="translate(-12.16 0)"/><path class="cls-1" d="M31.59,9.88H30.21c-1.93.06-1.93,3.06,0,3a10.28,10.28,0,0,1,4,.38l-.37-2.69a5,5,0,0,1-4.13,1l-.4,3a3.9,3.9,0,0,1,3.19.86V12.77c-1,.81-3.58.87-4.91,1a1.51,1.51,0,0,0-.4,3,4.81,4.81,0,0,0,1.74.48l.4-3c-1.7,0-3.27.62-3.88-.94A1.54,1.54,0,0,0,24,12.21c-1.38.09-2.54-.79-3.93-.55a10,10,0,0,0-3.56,1.88c-2.6,2.09-2.52,7-3.09,10-.35,1.89,2.54,2.7,2.89.8.5-2.66.42-7.26,2.94-8.83,1.67-1,2.84-.15,4.75-.28l-1.41-1.07c.43,1.12.11,2,1.37,2.73s3.93.39,5.39.41c1.65,0,2.1-2.65.4-3A4.81,4.81,0,0,1,28,13.87l-.4,3c2-.27,4.71-.14,6.42-1.46a1.52,1.52,0,0,0,0-2.59,7.6,7.6,0,0,0-4.7-1.27c-1.59.06-2.15,2.71-.4,3a8.91,8.91,0,0,0,6.44-1.29A1.52,1.52,0,0,0,35,10.42a18,18,0,0,0-4.81-.49v3h1.38c1.93-.06,1.93-3.06,0-3Z" transform="translate(-12.16 0)"/><path class="cls-1" d="M25.84,19.92a6.27,6.27,0,0,1,1.76-3,14.63,14.63,0,0,1-3.76,3.19,90.71,90.71,0,0,0-7.48,5.77,2.66,2.66,0,0,0-.86,1.06.93.93,0,0,0,.34,1.16" transform="translate(-12.16 0)"/><path class="cls-1" d="M27.24,20.32A5.33,5.33,0,0,1,28.62,18L26.5,15.85c-2.3,2.87-6,4.75-8.9,7-1.66,1.36-5.49,4-2.76,6.31,1.47,1.24,3.6-.87,2.12-2.12.34.29,5.93-4.45,6.57-4.9A23.78,23.78,0,0,0,28.62,18c1.18-1.47-.77-3.56-2.12-2.12a9.07,9.07,0,0,0-2.15,3.67C23.77,21.37,26.67,22.16,27.24,20.32Z" transform="translate(-12.16 0)"/><path class="cls-1" d="M15.47,28.57a.41.41,0,0,0,.45.34,1.13,1.13,0,0,0,.56-.25,12.72,12.72,0,0,0,2.24-2,6.39,6.39,0,0,1,2.29-2l-2.17,2.06a1.74,1.74,0,0,0,1.42-.63,6.09,6.09,0,0,0,.84-1.37,22.39,22.39,0,0,1,2.53-3.89,1.16,1.16,0,0,1,.76-.52" transform="translate(-12.16 0)"/><path class="cls-1" d="M14.18,29.33c2.17,3.57,5.8-2.53,7.6-3.4L20,23.57l-2.12,2.09c-.87.85-.27,2.69,1.06,2.56A4,4,0,0,0,22.2,26c.38-.66.7-1.35,1.1-2,.29-.47,1-2,1.54-2.2,1.76-.73,1-3.64-.8-2.89a6.26,6.26,0,0,0-2.7,2.61c-.5.68-1.65,3.68-2.5,3.74l1.06,2.56L22,25.69c1.27-1.24-.34-3.07-1.82-2.36A7.31,7.31,0,0,0,18,25.16c-.38.43-.76.86-1.18,1.25s-1.46.72-.8.91l.9.69-.15-.25c-1-1.65-3.6-.14-2.59,1.51Z" transform="translate(-12.16 0)"/><path class="cls-1" d="M28.76,17" transform="translate(-12.16 0)"/><path class="cls-1" d="M28.76,18.49a1.5,1.5,0,1,0-1.5-1.5A1.5,1.5,0,0,0,28.76,18.49Z" transform="translate(-12.16 0)"/><path class="cls-1" d="M24,21.41l.17.17" transform="translate(-12.16 0)"/><path class="cls-1" d="M23,22.47l.17.17a1.5,1.5,0,0,0,2.12-2.12l-.17-.17A1.5,1.5,0,0,0,23,22.47Z" transform="translate(-12.16 0)"/><path class="cls-1" d="M29,16.94c-.14,0-.14.25,0,.34a.59.59,0,0,0,.41.08l2.62-.12,12.62-.6" transform="translate(-12.16 0)"/><path class="cls-1" d="M27.76,16.16c-1.55,2.15,1.65,2.68,3,2.62l13.9-.62c1.92-.09,1.93-3.09,0-3l-8,.38c-2.24.11-5,.75-7.21.31l1,1-.12.81C31.48,16.16,28.84,14.62,27.76,16.16Z" transform="translate(-12.16 0)"/><path class="cls-1" d="M42.4,17.52c4,.87,8.15-.47,12.18-1.28" transform="translate(-12.16 0)"/><path class="cls-1" d="M42,19c4.45.79,8.64-.38,13-1.28,1.89-.39,1.09-3.28-.8-2.89-3.75.78-7.53,2-11.39,1.28-1.89-.33-2.7,2.56-.8,2.89Z" transform="translate(-12.16 0)"/><path class="cls-1" d="M35.59,17.66" transform="translate(-12.16 0)"/><path class="cls-1" d="M35.59,19.16a1.5,1.5,0,1,0-1.5-1.5A1.5,1.5,0,0,0,35.59,19.16Z" transform="translate(-12.16 0)"/><path class="cls-1" d="M57.84,11.84A12,12,0,0,0,59,15.58,30.17,30.17,0,0,1,55.58,14c-.19-.1-.4-.23-.44-.44a.5.5,0,0,1,.43-.53,1.37,1.37,0,0,1,.74.14,15.79,15.79,0,0,1,5.33,3.52,6.85,6.85,0,0,0,2.62,2,.45.45,0,0,0,.28,0c.21-.08.21-.38.16-.6a5.57,5.57,0,0,0-2.77-3.54" transform="translate(-12.16 0)"/><path class="cls-1" d="M56.4,12.24a15.45,15.45,0,0,0,1.32,4.1l1.69-2.2c-.66-.26-1.31-.53-1.95-.83-.22-.1-1.21-.76-1-.46L56.61,14l.11-.34-.69.9A22.39,22.39,0,0,1,58.42,16,17.23,17.23,0,0,1,61,18.21c.92.92,2.31,2.33,3.77,2.06s1.63-1.83,1.23-3a7.27,7.27,0,0,0-3.29-3.88A1.5,1.5,0,0,0,61.19,16c.19.12,2.26,1.84,2.08,2.08l1.3-.74c-.71,0-1.83-1.62-2.3-2.06A18.45,18.45,0,0,0,60,13.44c-1.19-.79-3.2-2.18-4.74-1.78A2,2,0,0,0,54,14.52c.82,1.38,3.27,2,4.68,2.55s2.19-1.15,1.69-2.2a12.73,12.73,0,0,1-1-3.38c-.32-1.9-3.21-1.09-2.89.8Z" transform="translate(-12.16 0)"/><path class="cls-1" d="M60.61,18a.28.28,0,0,0-.22.38.73.73,0,0,0,.38.34.93.93,0,0,1,.41.31" transform="translate(-12.16 0)"/><path class="cls-1" d="M60.21,16.52a1.78,1.78,0,0,0-1.27,2.17,2,2,0,0,0,.7,1,1.94,1.94,0,0,0,.38.26c.26.12-.08-.15.1.08a1.51,1.51,0,0,0,2.12,0,1.54,1.54,0,0,0,0-2.12,2.07,2.07,0,0,0-.54-.45l-.17-.1q-.44-.28.29.45v.8l-.25.4-.66.39H61a1.5,1.5,0,0,0-.8-2.89Z" transform="translate(-12.16 0)"/><path class="cls-1" d="M57.84,9.7a17.88,17.88,0,0,1,2,2.23,16.45,16.45,0,0,1-1.66-2A40.19,40.19,0,0,1,61,13.64l-.32-1.57v-.19a.17.17,0,0,1,.13,0,7.36,7.36,0,0,0,2.84.51" transform="translate(-12.16 0)"/><path class="cls-1" d="M56.73,10.76a18.15,18.15,0,0,1,1.74,1.93l2.37-1.82A16.28,16.28,0,0,1,59.4,9.16L57,11a40.46,40.46,0,0,1,2.57,3.41,1.51,1.51,0,0,0,2.74-1.16l-.16-.79q-.08-.88-.28.18l-1.3.74a6.42,6.42,0,0,1,1.36.39,5.21,5.21,0,0,0,1.62.12c1.91-.18,1.92-3.18,0-3-1.25.12-2.75-1.06-3.88-.18s-.47,2.27-.25,3.34l2.74-1.16a47.79,47.79,0,0,0-3-4c-1.1-1.27-3.35.42-2.36,1.82A21.93,21.93,0,0,0,58.74,13c1.14,1.21,3.41-.44,2.36-1.82a23.39,23.39,0,0,0-2.26-2.55c-1.38-1.35-3.5.77-2.12,2.12Z" transform="translate(-12.16 0)"/><path class="cls-1" d="M58.6,8.48a3.44,3.44,0,0,0-1.67-.7.4.4,0,0,0,.26.34,17.6,17.6,0,0,0,2.94.79,4.06,4.06,0,0,1,2.53,1.58" transform="translate(-12.16 0)"/><path class="cls-1" d="M59.36,7.16a5.13,5.13,0,0,0-2-.85,1.52,1.52,0,0,0-1.87,1.85c.79,2.61,4.54,1.17,5.89,3.07,1.11,1.56,3.71.06,2.59-1.51A5.56,5.56,0,0,0,61.2,7.66c-1.07-.39-2.5-.34-3.44-1l.69.9-.06-.2L56.54,9.21a3,3,0,0,1,1.31.55c1.59,1.11,3.09-1.49,1.51-2.59Z" transform="translate(-12.16 0)"/><path class="cls-1" d="M61.42,7.27H60.18c1.68.82,2.73,2.56,4.32,3.53a2.94,2.94,0,0,1,1.28,1.06" transform="translate(-12.16 0)"/><path class="cls-1" d="M61.42,5.77H60.18a1.51,1.51,0,0,0-.76,2.8A12.45,12.45,0,0,1,62,10.74a12.61,12.61,0,0,0,1.31,1.09c.32.23.94.46,1.15.8,1,1.64,3.6.14,2.59-1.51-.7-1.14-2-1.61-2.93-2.5A15.37,15.37,0,0,0,60.93,6l-.76,2.8h1.24c1.93.08,1.93-2.93,0-3Z" transform="translate(-12.16 0)"/><path class="cls-1" d="M65,11.24c-.07-.5-.52-.84-.9-1.18A5.73,5.73,0,0,1,62.9,8.47" transform="translate(-12.16 0)"/><path class="cls-1" d="M66.47,10.84A3.39,3.39,0,0,0,65.3,9.1a4.84,4.84,0,0,1-1.11-1.39A1.5,1.5,0,0,0,61.6,9.22a7.52,7.52,0,0,0,1.24,1.64c.18.18.37.34.55.51a2.73,2.73,0,0,1,.27.27c-.06-.08-.12-.31-.05,0a1.5,1.5,0,0,0,2.89-.8Z" transform="translate(-12.16 0)"/><path class="cls-1" d="M40.67,7.91" transform="translate(-12.16 0)"/><path class="cls-1" d="M40.67,13.91c7.72,0,7.73-12,0-12S32.94,13.91,40.67,13.91Z" transform="translate(-12.16 0)"/><path class="cls-1" d="M55.09,15.41l-.17.08" transform="translate(-12.16 0)"/><path class="cls-1" d="M54.48,14.37l-.17.08a1.2,1.2,0,0,0,1.21,2.07l.17-.08a1.2,1.2,0,0,0-1.21-2.07Z" transform="translate(-12.16 0)"/><path class="cls-1" d="M37.24,13.48a11,11,0,0,1-3.06,1.68,19.7,19.7,0,0,1,2.44-5.41,3.24,3.24,0,0,1,1.6-1.48,5.65,5.65,0,0,1,1.82,0,16.37,16.37,0,0,0,3.39-.58,13.85,13.85,0,0,1,6.86.64,34.1,34.1,0,0,1,6.27,3,.77.77,0,0,1,.33.29.74.74,0,0,1,0,.51,8.4,8.4,0,0,1-2.53,4.19l3.88.45a2,2,0,0,1,1.29.46,2.13,2.13,0,0,1-1,.26" transform="translate(-12.16 0)"/><path class="cls-1" d="M36.64,12.44a11,11,0,0,1-3.06,1.72l1.76,1.36c.49-1.51,1-4.07,2.32-5.12s4.23-1.28,6-1.42c3-.23,15.14,1.07,9.91,6.52a1.22,1.22,0,0,0,.85,2,23.91,23.91,0,0,1,4.85.87v-2.3l-1,.26a1.2,1.2,0,0,0,.64,2.31l1-.26a1.21,1.21,0,0,0,0-2.31,23.65,23.65,0,0,0-5.49-1l.85,2c1.23-1.28,3.47-3.85,2.84-5.87-.7-2.25-6.22-3.81-8.28-4.38-3.42-.93-8.76-1-12,.26-2.74,1-3.94,5.18-4.74,7.66-.35,1.09.88,1.75,1.76,1.36a11,11,0,0,0,3-1.59c1.28-.85.08-2.92-1.21-2.07Z" transform="translate(-12.16 0)"/><path class="cls-1" d="M58.69,17.63a15.55,15.55,0,0,1,2.15,1.74c.51.37,1.11.61,1.64,1a10,10,0,0,1,2.73,3.16L65,23.2" transform="translate(-12.16 0)"/><path class="cls-1" d="M58.09,18.66c1.13.64,2,1.67,3.12,2.32a8.5,8.5,0,0,1,3,3.11c.83,1.29,2.87.12,2.07-1.21l-.2-.33A1.2,1.2,0,0,0,64,23.76l.2.33,2.07-1.21a11.54,11.54,0,0,0-3.16-3.59,17.65,17.65,0,0,1-2-1.28,11.18,11.18,0,0,0-1.78-1.41,1.2,1.2,0,0,0-1.21,2.07Z" transform="translate(-12.16 0)"/><path class="cls-1" d="M63.42,21.41a7.22,7.22,0,0,1-1.67-.75" transform="translate(-12.16 0)"/><path class="cls-1" d="M63.74,20.26a6.55,6.55,0,0,1-1.38-.62,1.2,1.2,0,0,0-1.21,2.07,9.38,9.38,0,0,0,2,.87c1.48.47,2.11-1.85.64-2.31Z" transform="translate(-12.16 0)"/><path class="cls-1" d="M63.43,16.06a8.55,8.55,0,0,1,3.18,3.65,7.2,7.2,0,0,1,1,2.27c.08.42.08.84.14,1.26.21,1.3,1.07,2.53.82,3.83-.4-2.58-3.6-4.06-3.91-6.66" transform="translate(-12.16 0)"/><path class="cls-1" d="M62.84,17.09a9.07,9.07,0,0,1,3.45,4.6c.27.8.24,1.68.45,2.5A8.46,8.46,0,0,1,67.37,27l2.36-.32c-.61-2.65-3.4-4-3.91-6.66-.29-1.51-2.61-.87-2.31.64.53,2.71,3.31,4,3.91,6.66.32,1.38,2.28,1,2.36-.32a10.69,10.69,0,0,0-.71-3.5,18,18,0,0,0-.83-3.39A11.44,11.44,0,0,0,64,15a1.21,1.21,0,1,0-1.2,2.1Z" transform="translate(-12.16 0)"/><path class="cls-1" d="M67,23.21a5.42,5.42,0,0,1,1.44,3.07,2.77,2.77,0,0,0,.09.86,6.82,6.82,0,0,0,.21.84l.5,1.68" transform="translate(-12.16 0)"/><path class="cls-1" d="M66.19,24.06a4.92,4.92,0,0,1,1.15,2.87A18.64,18.64,0,0,0,68.13,30a1.2,1.2,0,0,0,2.31-.64c-.74-2.45-.8-5-2.56-7-1-1.16-2.72.54-1.7,1.7Z" transform="translate(-12.16 0)"/><path class="cls-1" d="M64.66,11.11a4.76,4.76,0,0,1,1.77,1.21" transform="translate(-12.16 0)"/><path class="cls-1" d="M64.34,12.27a3.68,3.68,0,0,1,1.24.91c1.06,1.12,2.76-.58,1.7-1.7A6.45,6.45,0,0,0,65,10a1.21,1.21,0,0,0-1.48.84,1.23,1.23,0,0,0,.84,1.48Z" transform="translate(-12.16 0)"/><path class="cls-1" d="M58.84,6.86a1.94,1.94,0,0,1-1.37-1.7l.9.87a11.66,11.66,0,0,0-4.12-1.82c-2.85-.84-5.79-1.69-8.74-1.34-.15,0-.34.07-.37.22s.14.27.28.33A19.48,19.48,0,0,0,48.81,4a15.08,15.08,0,0,1,3.95,2A5.94,5.94,0,0,0,57,7a2.09,2.09,0,0,1-2.32-1.41" transform="translate(-12.16 0)"/><path class="cls-1" d="M59.44,5.82l-.82-1L56.62,6l.9.87L59,5c-2.5-1.72-5.79-2.51-8.74-3-1.56-.29-4.74-1.11-5.94.3A1.21,1.21,0,0,0,44,3.4c.73,2,3.59,1.45,5.19,2,2.75,1,4.67,3.1,7.79,2.74a1.2,1.2,0,0,0,0-2.4l-1.29-.81c-.72-1.36-2.8-.15-2.07,1.21a3.44,3.44,0,0,0,3.36,2V5.74C54.45,6,52.8,4.36,50.66,3.4c-.33-.15-4.58-1.26-4.36-.67L46,3.9a20.69,20.69,0,0,1,3.12.23A27.79,27.79,0,0,1,52,4.78,17.82,17.82,0,0,1,57.76,7c1.13.78,2.42-1,1.45-1.88l-.9-.87a1.21,1.21,0,0,0-2,1.17,3.48,3.48,0,0,0,1.92,2.4c1.36.73,2.57-1.34,1.21-2.07Z" transform="translate(-12.16 0)"/><path class="cls-1" d="M38.18,4a3.26,3.26,0,0,1,2.07-1.84A6.44,6.44,0,0,1,42,2h4.61a11.6,11.6,0,0,1,2.5.17,20.68,20.68,0,0,1,2.32.78,26.39,26.39,0,0,0,5,1" transform="translate(-12.16 0)"/><path class="cls-1" d="M39.21,4.61C40.48,2.54,45.78,3,47.86,3.19c2.77.3,5.44,1.51,8.24,1.91,1.51.21,2.16-2.1.64-2.31-4.34-.62-8-2-12.44-2-3,0-5.45-.17-7.16,2.61C36.33,4.72,38.4,5.92,39.21,4.61Z" transform="translate(-12.16 0)"/><path class="cls-2" d="M30.68,12.24c-3.9-2.9,3.7-6,5.4-6.6.9-.4,7.5-1.9,7.6-2.2-.2.7,1,1.1,1.2.3v-.2c.1-.3,0-.5-.3-.7-1.3-.8-4,.1-5.4.4a30.58,30.58,0,0,0-7.7,3.2c-2.5,1.5-4.2,4.7-1.4,6.8C30.68,13.74,31.28,12.74,30.68,12.24Z" transform="translate(-12.16 0)"/><path class="cls-2" d="M58.68,7.84a8,8,0,0,1,5.6,2.6c.5.6,1.4-.3.8-.8a8.83,8.83,0,0,0-6.4-3,.6.6,0,0,0,0,1.2Z" transform="translate(-12.16 0)"/><path class="cls-2" d="M58.84,17.24c2.5,2.6,6.7,3.2,8.8,6.2.4.6,1.5,0,1-.6-2.2-3.2-6.4-3.7-9-6.5C59.14,15.84,58.24,16.74,58.84,17.24Z" transform="translate(-12.16 0)"/><path class="cls-2" d="M34.48,16.84c6-.8,12.1-.2,18.1-1.8.7-.2.4-1.4-.3-1.2-5.9,1.7-12,1-18.1,1.8a.62.62,0,0,0,.3,1.2Z" transform="translate(-12.16 0)"/><path class="cls-2" d="M16.18,28.64c.2-2.3.1-10.9,3.3-11.6.8-.2.4-1.3-.3-1.2-2,.4-2.6,2.1-3,4a64.23,64.23,0,0,0-1.2,8.8.6.6,0,1,0,1.2,0Z" transform="translate(-12.16 0)"/><path class="cls-2" d="M12.78,32.44a4.88,4.88,0,0,1,.3.7c.3.7,1.4.1,1-.6a4.88,4.88,0,0,1-.3-.7C13.48,31.14,12.48,31.84,12.78,32.44Z" transform="translate(-12.16 0)"/><path class="cls-1" d="M14.75,30.16a.76.76,0,0,0-.53.87" transform="translate(-12.16 0)"/><path class="cls-1" d="M14.35,28.75a2.29,2.29,0,0,0-1.63,2.31,1.54,1.54,0,0,0,1.5,1.5,1.5,1.5,0,0,0,1.5-1.5h0a.75.75,0,0,1-.54.55,1.54,1.54,0,0,0,1-1.85,1.51,1.51,0,0,0-1.85-1Z" transform="translate(-12.16 0)"/><path d="M13.38,35.34c-.1-4.8-.1-27.1,9.6-22.4.7.3,1.3-.7.6-1-11.4-5.6-11.5,17.8-11.4,23.4C12.28,36,13.48,36.14,13.38,35.34Z" transform="translate(-12.16 0)"/><path d="M14,36.44c-1.6-4.6,5.7-6.6,7.9-9,.9-1.1,1.5-2.4,2.4-3.5.3-.4,4.6-5.1,4.9-4.9.6.4,1.2-.6.6-1-1-.7-2,.7-2.6,1.3a45.68,45.68,0,0,0-5.8,6.7c-2.4,3.2-10.4,5.4-8.6,10.8C13.08,37.44,14.28,37.14,14,36.44Z" transform="translate(-12.16 0)"/><path d="M29.38,19.44c5.1,0,10.1.1,15.2.1,4.4,0,8.6-.9,13-1.1a.6.6,0,0,0,0-1.2c-4.4.2-8.6,1.1-13,1.1-5.1,0-10.1-.1-15.2-.1a.6.6,0,0,0,0,1.2Z" transform="translate(-12.16 0)"/><path d="M57,18.74c2.2,2.8,5.1,3.7,7.6,6.1a17.47,17.47,0,0,1,4.8,9.9c.1.8,1.3.4,1.2-.3a21.31,21.31,0,0,0-3.8-8.9c-2.5-3.2-6.4-4.4-8.9-7.6a.6.6,0,1,0-.9.8Z" transform="translate(-12.16 0)"/><path d="M70.58,35.16c.6-7.4-.6-17.6-7-22.5-.6-.5-1.2.6-.6,1,6,4.6,7,14.5,6.4,21.4a.6.6,0,0,0,1.2.1Z" transform="translate(-12.16 0)"/><path d="M56.84,6.16c4.4-1.3,8.7,3.2,10.3,6.8.3.7,1.3.1,1-.6-1.8-4.2-6.7-8.8-11.6-7.4a.62.62,0,1,0,.22,1.22Z" transform="translate(-12.16 0)"/><path d="M67.68,13.34a31.7,31.7,0,0,0-6.1-.7.6.6,0,0,0,0,1.2,22.47,22.47,0,0,1,5.8.7C68.08,14.64,68.38,13.54,67.68,13.34Z" transform="translate(-12.16 0)"/><path d="M66.78,13.34v.3a.6.6,0,1,0,1.2,0h0v-.3a.6.6,0,0,0-1.2,0Z" transform="translate(-12.16 0)"/><path d="M24.78,12.44c.4-6,10.4-9.9,15.3-10.8A27.66,27.66,0,0,1,59,4.84c.7.4,1.3-.7.6-1-6.8-3.7-14.7-5-22.2-2.7-5.1,1.5-13.4,5.4-13.8,11.4C23.48,13.14,24.68,13.14,24.78,12.44Z" transform="translate(-12.16 0)"/><path d="M27,14.94a3.08,3.08,0,0,1-1.8-2.8.6.6,0,1,0-1.2,0h0a4.26,4.26,0,0,0,2.3,3.8C27.08,16.34,27.68,15.24,27,14.94Z" transform="translate(-12.16 0)"/></svg>