<?xml version="1.0" encoding="utf-8"?>
<!-- Generator: Adobe Illustrator 21.0.2, SVG Export Plug-In . SVG Version: 6.00 Build 0)  -->
<svg version="1.1" id="Layer_1" xmlns="http://www.w3.org/2000/svg" xmlns:xlink="http://www.w3.org/1999/xlink" x="0px" y="0px"
	 viewBox="0 0 200 600" style="enable-background:new 0 0 200 600;" xml:space="preserve">
<style type="text/css">
	.st0{fill:#99D09C;}
	.st1{fill:none;stroke:#000000;stroke-width:0.1;stroke-miterlimit:10;}
	.st2{fill:#85CA9C;}
</style>
<g>
	<g>
		<g id="XMLID_2_">
			<g>
				<path class="st0" d="M103.4,146.7c2.5-3.2,6.3-5.4,10.3-5.9c2.5-0.3,5-0.1,7.5,0.2c3.9,0.5,7.8,1.3,11.6,2.3
					c1.3,1.2,2.1,2.9,2.7,4.5c1.1,2.9,1.8,5.9,2.1,8.9l0,0c0.1,0.5,0.1,1.1,0,1.6c-0.4,5-3.6,9.8-8.2,11.9c0,0.2-0.1,0.4-0.1,0.6
					l-0.6-0.1c-2.2,14.1-3.6,28.3-4.2,42.6c-0.2,3.7-0.3,7.5,0.7,11.1l0.1,0c1.3,13.3,2.8,26.7,7.7,39.1l0,0.9
					c-3.7,2.6-8.3,3.3-12.8,4c-1.7,0.3-3.4,0.5-5.1,0.8c-2,0.3-3.9,0.6-5.9,0.7c-2,0.1-4.1,0-6.1-0.1c-2.7-0.1-5.4-0.3-8.1-0.4
					c-6-0.3-12.1-0.7-17.9-2.1c-3.4-0.8-6.6-2-9.8-3.6l0.1-0.2c4.8-12.4,6.4-25.8,7.7-39.1l0.1,0c1-3.6,0.9-7.4,0.7-11.1
					c-0.6-14.1-2-28.2-4.1-42.2l-0.6,0.1c-0.1-0.3-0.1-0.6-0.1-0.9c-4.6-2.1-7.8-6.9-8.2-11.9c0-0.5,0-1,0-1.4h0
					c0.3-3.1,1-6.1,2.1-9c0.6-1.7,1.4-3.3,2.7-4.5c3.8-1,7.7-1.8,11.6-2.3c2.5-0.3,5-0.6,7.5-0.2c4.3,0.6,8.3,3,10.7,6.6l0.1,0
					c1,1.1,1.8,2.3,2.4,3.7l0.2,0.1C101,149.5,102.1,148,103.4,146.7L103.4,146.7z"/>
			</g>
			<g>
				<path class="st1" d="M67.3,263.4c4.8-12.4,6.4-25.8,7.7-39.1c0.1-0.6,0.1-1.3,0.2-1.9"/>
				<path class="st1" d="M71,171.2c-0.1-0.3-0.1-0.6-0.1-0.9c-0.1-0.4-0.1-0.8-0.2-1.2"/>
				<path class="st1" d="M63.5,154.5c-0.5,0.7-0.7,1.5-0.7,2.4c0,0.5,0,1,0,1.4c0.4,5,3.6,9.8,8.2,11.9c0,0,0,0,0.1,0"/>
				<path class="st1" d="M62.6,158.2c0-0.4,0.1-0.9,0.1-1.3c0.3-3.1,1-6.1,2.1-9c0.6-1.7,1.4-3.3,2.7-4.5c0.1-0.1,0.1-0.1,0.2-0.2"
					/>
				<path class="st1" d="M67.2,143.4c0.1,0,0.1,0,0.2-0.1c3.8-1,7.7-1.8,11.6-2.3c2.5-0.3,5-0.6,7.5-0.2c4.3,0.6,8.3,3,10.7,6.6"/>
				<path class="st1" d="M75.1,224.3c1-3.6,0.9-7.4,0.7-11.1c-0.6-14.1-2-28.2-4.1-42.2c0-0.1,0-0.3-0.1-0.4"/>
				<path class="st1" d="M132.9,263.4c-4.8-12.4-6.4-25.8-7.7-39.1c-0.1-0.6-0.1-1.3-0.2-1.9"/>
				<path class="st1" d="M129.2,171.2c0-0.1,0-0.3,0.1-0.4c0-0.2,0.1-0.4,0.1-0.6c0.1-0.4,0.1-0.8,0.2-1.2"/>
				<path class="st1" d="M136.8,154.5c0.4,0.7,0.6,1.4,0.7,2.2c0.1,0.5,0.1,1.1,0,1.6c-0.4,5-3.6,9.8-8.2,11.9c0,0,0,0-0.1,0"/>
				<path class="st1" d="M137.6,158.2c0-0.5-0.1-1-0.1-1.5c-0.3-3-1-6-2.1-8.9c-0.6-1.7-1.4-3.3-2.7-4.5c-0.1-0.1-0.1-0.1-0.2-0.2"
					/>
				<path class="st1" d="M133,143.4c-0.1,0-0.1,0-0.2-0.1c-3.8-1-7.7-1.8-11.6-2.3c-2.5-0.3-5-0.6-7.5-0.2c-4,0.6-7.8,2.7-10.3,5.9
					c-0.2,0.2-0.3,0.4-0.5,0.7"/>
				<path class="st1" d="M125.2,224.3c-1-3.6-0.9-7.4-0.7-11.1c0.6-14.3,2-28.5,4.2-42.6"/>
				<path class="st1" d="M67.1,263.6C67.2,263.6,67.2,263.6,67.1,263.6c3.2,1.6,6.5,2.8,9.8,3.6c5.8,1.4,11.9,1.8,17.9,2.1
					c2.7,0.1,5.4,0.3,8.1,0.4c2,0.1,4,0.2,6.1,0.1c2-0.1,4-0.4,5.9-0.7c1.7-0.3,3.4-0.5,5.1-0.8c4.5-0.7,9.1-1.4,12.8-4"/>
				<path class="st1" d="M97.4,147.3c1,1.1,1.8,2.3,2.4,3.7"/>
				<path class="st1" d="M99.5,151.9c0.1-0.2,0.3-0.5,0.5-0.7c1-1.6,2.1-3.1,3.4-4.5c0-0.1,0.1-0.1,0.1-0.1"/>
			</g>
		</g>
		<g>
			<g>
				<path class="st0" d="M81.8,157.1c-0.9-0.3-1.2-1-1.7-1.9c-0.4-0.7-0.7-1.4-1-2.2c-0.4,1.3-0.4,1.4,0,0.4
					c0.7-1.6,0.9-3.2,0.6-4.9c-0.3-1.1-1.3-2.6-1.5-3.3c0,1.1,0,2.1,0,3.2c0.1-0.2,0.1-0.4,0.2-0.7c-1.4,1.4-2.8,2.8-4.2,4.2
					c3-0.5,5.7,0.8,8.7,0.1c4.2-1.1,5.9-6.9,2.6-9.9c-2.5-2.3-4.7-2.7-8.1-2.2c-3.2,0.5-4.9,4.5-4.2,7.3c0.9,3.4,4.1,4.7,7.3,4.2
					c0.3,0,0.6-0.1,0.8-0.1c-1.1,0-2.1,0-3.2,0c0.3,0.1,0.5,0.2,0.8,0.2c-0.9-0.5-1.8-1-2.6-1.5c0.2,0.2,0.4,0.4,0.6,0.6
					c0.9-3.3,1.8-6.6,2.6-9.9c-0.9,0.2-2.8-0.5-3.8-0.6c-1.7,0-3.3,0.2-4.9,0.5c-2,0.4-3.6,2.3-4.2,4.2c-1,3.2,0.4,4.4,1.3,7.1
					c0-1.1,0-2.1,0-3.2c-0.5,1.9-1.1,3.5-0.9,5.5c0.2,2.3,1.3,4.5,2.3,6.6c1.9,3.8,4.9,6.7,9.1,7.9C86,170.6,89.2,159.1,81.8,157.1
					L81.8,157.1z"/>
			</g>
		</g>
		<g>
			<g>
				<path class="st0" d="M119.2,157c0,0.4,0.1-0.1,0.5-0.3c0.7-0.4,1.6-0.9,2.3-1.4c0.9-0.5,1.8-1,2.6-1.6c0.6-0.4,1.3-0.8,1.8-1.4
					c0.4-0.5,0,0.4-1.5,0.3c-1.7-1-3.4-2-5.1-2.9c0.1,0.1,0.2,0.2,0.2,0.4c0-2,0-4,0-6c-0.1,0.1-0.1,0.2-0.2,0.3
					c-3.8,6.6,6.4,12.7,10.3,6c0.1-0.1,0.1-0.2,0.2-0.3c1-1.8,1.1-4.2,0-6c-1.9-3-5.3-4.1-8.6-2.7c-2.1,0.9-3.5,2.4-5.4,3.5
					c-4.6,2.7-9.3,6.2-9.1,12.2c0.1,3.2,2.7,6,6,6C116.4,163,119.3,160.2,119.2,157L119.2,157z"/>
			</g>
		</g>
		<g>
			<g>
				<path class="st0" d="M85.1,255.4c-4.4,1.8-8.8,3.5-13.2,5.3c-0.6,0.2-1,0.8-0.8,1.5c0.1,0.3,0.2,0.7,0.3,1
					c0.3-0.5,0.6-1,0.8-1.5c-0.9,0.2-1.7,0.3-2.6,0.5c-1.1,0.2-1.1,1.6-0.3,2.2c1.4,0.9,2.5,1.4,4.1,1.8c0.1-0.8,0.2-1.6,0.3-2.3
					c-0.3-0.1-0.6-0.1-1-0.2c-0.3,0.7-0.6,1.5-0.9,2.2c1.9,0.3,3.8,0.6,5.7,1c0-0.8,0-1.5,0-2.3c-0.9,0.1-1.8,0.2-2.6,0.4
					c0,0.8,0,1.6,0,2.4c2.4-0.3,4.5-0.1,6.8,0.6c0-0.8,0-1.5,0-2.3c-0.8,0-1.7,0.1-2.5,0.1c0,0.8,0,1.5,0,2.3c2-0.5,3.9-0.3,5.8,0.7
					c0.2-0.7,0.4-1.5,0.6-2.2c-1.2-0.1-2.4-0.2-3.6-0.3c0.1,0.8,0.2,1.6,0.3,2.3c2.8-0.6,5-0.5,7.7,0.3c0.1-0.8,0.2-1.6,0.3-2.3
					c-1.5-0.1-2.9-0.2-4.3-0.1c-1.3,0-1.7,2.1-0.3,2.3c4.5,0.9,9,1.2,13.6,1.1c-0.1-0.8-0.2-1.6-0.3-2.3c-1,0.1-1.9,0.2-2.9,0.4
					c0,0.8,0,1.6,0,2.4c2.6,0,5.2,0,7.9,0.1c1.5,0,1.5-2.3,0-2.4c-3.2-0.1-6.3,0.1-9.5,0.7c0.4,0.6,0.9,1.2,1.3,1.7
					c0.3-0.6,2.5-0.8,3.2-1.2c0.4-0.2,0.5-0.7,0.8-1c2.9-2,5.6-2.2,9-1.1c-0.1-0.7-0.2-1.5-0.3-2.2c-1.6,1.2-3.2,1.9-5.2,2.2
					c-1.2,0.2-1,2,0,2.3c2.1,0.7,3.9,0.7,6.1,0.1c-0.3-0.7-0.6-1.5-0.9-2.2c-0.6,0.3-1.2,0.5-1.8,0.8c-1.5,0.4-0.8,2.5,0.6,2.3
					c3.7-0.5,7.4-1,11.1-1.6c3.5-0.6,9.3-3.5,12.6-2.5c0.7,0.2,1.6-0.4,1.5-1.1c-0.1-1.1-0.2-1.4-1.1-2.1c-0.7-0.5-1.9,0.2-1.8,1
					c0.1,0.5,0.1,1,0.2,1.6c0.1,0.9,0.9,1.5,1.8,1c1.5-0.9,1.7-2.3,0.5-3.6c-0.4-0.4-1.3-0.5-1.7,0c-4,4.8-9.9,2.3-11.6-3.1
					c-1-3.2-1.2-6.9-1.5-10.2c-0.5-6.2-0.5-12.5-0.8-18.8c-0.6-11.4-2.7-22.8-4.3-34.2c-0.8,0.2-1.5,0.4-2.3,0.6
					c1.9,11,4,21.9,9.3,31.8c0.6,1.1,2.1,0.5,2.2-0.6c0.2-2.5,0.5-5,0.7-7.4c-0.7,0.2-1.5,0.4-2.2,0.6c0.7,1.3,1.2,2.6,1.6,4
					c0.4,1.3,2.3,1,2.3-0.3c0-0.7,0.1-1.4,0.1-2.1c-0.8,0.1-1.6,0.2-2.3,0.3c0.2,0.6,0.3,1.2,0.5,1.8c0.4,1.5,2.6,0.9,2.3-0.6
					c-0.4-0.4-0.8-0.8-1.1-1.2c-0.8,0-1.4,0.8-1.1,1.5c0.1,0.5,0.3,0.9,0.4,1.4c0.4,1.5,2.7,0.9,2.3-0.6c-0.2-0.7-0.4-1.5-0.6-2.2
					c-0.8,0.2-1.5,0.4-2.3,0.6c1,2.2,0.5,3.7-1.7,4.6c-2.2,3-4.4,2.2-6.4-2.3c1-1.5,2-2.9,3-4.4c3-0.5,4.7,0.5,5.2,3
					c0.7-0.2,1.5-0.4,2.2-0.6c-1.4-3.2-5.8-4.3-6.7-7.7c-0.4-1.5-2.7-0.9-2.3,0.6c1,3.9,5.4,4.7,6.9,8.2c0.5,1.1,2.2,0.5,2.2-0.6
					c-0.2-8.5-14.9-6.2-12.7,2.8c2.1,8.8,15.5,4.7,12.6-4.3c-0.5-1.5-2.7-0.9-2.3,0.6c0.2,0.7,0.4,1.5,0.6,2.2
					c0.8-0.2,1.5-0.4,2.3-0.6c-0.1-0.5-0.3-0.9-0.4-1.4c-0.4,0.5-0.8,1-1.1,1.5c1.3,0.1,2.1-0.5,2.4-1.8c0.1-0.6-0.1-1-0.5-1.3
					c-0.2-0.2-0.5-0.4-0.7-0.5c-0.4-0.3-0.8-0.2-1.2,0c-0.3,0.1-0.6,0.2-0.8,0.4c-0.5,0.2-0.6,0.9-0.5,1.3c0.1,0.5,0.2,1,0.3,1.5
					c0.8-0.2,1.5-0.4,2.3-0.6c-0.2-0.6-0.3-1.2-0.5-1.8c-0.3-1.3-2.3-1-2.3,0.3c0,0.7-0.1,1.4-0.1,2.1c0.8-0.1,1.6-0.2,2.3-0.3
					c-0.5-1.6-1.1-3.1-1.8-4.6c-0.6-1.2-2.1-0.5-2.2,0.6c-0.2,2.5-0.5,5-0.7,7.4c0.7-0.2,1.5-0.4,2.2-0.6
					c-5.2-9.7-7.2-20.5-9.1-31.2c-0.3-1.5-2.5-0.9-2.3,0.6c1.2,8.8,2.7,17.5,3.6,26.3c0.9,8.6,0.7,17.3,1.4,26
					c0.4,5.4,0.4,13.5,5.4,17c4,2.8,8.8,1.6,11.8-2c-0.6,0-1.1,0-1.7,0c0-0.1,0-0.1,0-0.2c0.6,0.3,1.2,0.7,1.8,1
					c-0.1-0.5-0.1-1-0.2-1.6c-0.6,0.3-1.2,0.7-1.8,1c0,0,0,0,0,0c0.5-0.4,1-0.8,1.5-1.1c-3.8-1.2-7,1.1-10.8,1.9
					c-4.6,1.1-9.5,1.5-14.2,2.1c0.2,0.8,0.4,1.5,0.6,2.3c1.4-0.3,1.2-0.2,2.4-1.1c1.1-0.7,0.4-2.5-0.9-2.2c-1.6,0.6-3.2,0.5-4.8-0.1
					c0,0.8,0,1.5,0,2.3c2.3-0.3,3.9-1,5.8-2.4c0.8-0.6,0.8-1.8-0.3-2.2c-3.4-1.1-7.1-1.3-10.3,0.6c-1.2,0.7-2.7,1.7-3.7,2.4
					c-0.9,0.6-1.2,0.4-1.7,1.4c-0.5,1,0.3,1.9,1.3,1.7c3-0.6,5.8-0.8,8.9-0.6c0-0.8,0-1.6,0-2.4c-2.6,0-5.2,0-7.9-0.1
					c-1.5,0-1.5,2.4,0,2.4c2,0,1.6,0.1,3.6-0.4c1.3-0.3,1-2.4-0.3-2.3c-4.4,0.1-8.6-0.2-12.9-1c-0.1,0.8-0.2,1.6-0.3,2.3
					c1.5-0.1,2.9,0,4.3,0.1c1.4,0.1,1.6-2,0.3-2.3c-3.1-0.9-5.8-1-9-0.3c-1.4,0.3-0.9,2.2,0.3,2.3c1.2,0.1,2.4,0.2,3.6,0.3
					c1.2,0.1,1.6-1.7,0.6-2.2c-2.6-1.2-4.8-1.5-7.6-1c-1.1,0.2-1.2,2.1,0,2.3c1.9,0.3,1.9,0.3,3.7-0.1c1.2-0.3,1.1-2,0-2.3
					c-2.6-0.8-4.7-1-7.4-0.7c-1.5,0.2-1.6,2.4,0,2.4c1.7-0.1,1.6,0,3.3-0.5c1.1-0.3,1.2-2.1,0-2.3c-1.9-0.3-3.8-0.6-5.7-1
					c-1.3-0.2-2,1.4-0.9,2.2c0.9,0.7,1,0.7,2.2,0.5c1.2-0.2,1.7-2,0.3-2.3c-1.3-0.2-2.5-0.7-3.5-1.6c-0.1,0.7-0.2,1.5-0.3,2.2
					c0.9-0.2,1.7-0.3,2.6-0.5c0.6-0.1,1-0.9,0.8-1.5c-0.1-0.3-0.2-0.7-0.3-1c-0.3,0.5-0.6,1-0.8,1.5c4.4-1.8,8.8-3.5,13.2-5.3
					C87.1,257.1,86.5,254.8,85.1,255.4L85.1,255.4z"/>
			</g>
		</g>
	</g>
	<g>
		<g>
			<path class="st0" d="M81.4,228.3c0-0.6,0.1-1.3,0.2-1.9c0.1-0.5-0.4-0.9-0.9-0.7c-0.6,0.4-1,0.9-1.2,1.5c0.3-0.1,0.7-0.2,1-0.3
				c-0.1-0.2-0.1-0.3-0.2-0.5c0.1-0.6-0.7-1.1-1.1-0.5c-0.2,0.1-0.3,0.3-0.5,0.4c0.3,0.2,0.5,0.4,0.8,0.6c0.1-0.8,0-1.5-0.2-2.3
				c-0.2-0.6-1-0.6-1.1,0c-0.1,0.2-0.1,0.3-0.2,0.5c0.4,0.1,0.8,0.1,1.2,0.2c0-0.4-0.1-0.7-0.4-0.9c-0.1-0.1-1-0.6-1-0.7
				c-0.4-0.1-0.8-0.2-1.1-0.3c0,0.3-0.1,0.6-0.4,0.9c0.3,0.1,0.7,0.3,1,0.4c0-0.4,0-0.8,0-1.1c0-0.6-1.1-0.8-1.2-0.2
				c-0.1,0.8-0.3,1.6-0.4,2.4c-0.1,0.7,0.9,1,1.1,0.3c0.3-1,0.5-1.9,0.5-3c0-0.6-0.9-0.8-1.1-0.3c-0.3,0.7-0.5,1.4-0.6,2.1
				c0.4,0,0.8,0,1.2,0c0-0.2,0-0.5,0-0.7c0-0.8-1.2-0.8-1.2,0c0,0.1,0,0.3,0,0.4c0,0.8,1.2,0.8,1.2,0c0-0.1,0-0.3,0-0.4
				c-0.4,0-0.8,0-1.2,0c0,0.2,0,0.5,0,0.7c0,0.8,1.1,0.8,1.2,0c0-0.6,0.2-1,0.4-1.5c-0.4-0.1-0.7-0.2-1.1-0.3c0,0.9-0.2,1.8-0.5,2.6
				c0.4,0.1,0.8,0.2,1.1,0.3c0.1-0.8,0.3-1.6,0.4-2.4c-0.4-0.1-0.8-0.1-1.2-0.2c0,0.4,0,0.8,0,1.1c0,0.5,0.7,0.8,1,0.4
				c0.4-0.4,0.6-0.8,0.7-1.4c0.1-0.7-1-1.1-1.1-0.3c-0.1,0.4-0.1,0.7,0.2,1c0.2,0.2,1.2,0.7,1.2,0.9c0,0.7,0.9,0.8,1.2,0.2
				c0.1-0.2,0.1-0.3,0.2-0.5c-0.4,0-0.8,0-1.1,0c0.2,0.7,0.3,1.3,0.2,2c0,0.4,0.4,0.7,0.8,0.6c0.6-0.2,0.9-0.4,1.2-1
				c-0.4-0.2-0.7-0.3-1.1-0.5c-0.1,0.7,0,1.2,0.5,1.7c0.3,0.3,0.9,0.1,1-0.3c0.1-0.4,0.3-0.6,0.7-0.8c-0.3-0.2-0.6-0.4-0.9-0.7
				c-0.1,0.7-0.2,1.5-0.2,2.2C80.2,229.1,81.4,229.1,81.4,228.3L81.4,228.3z"/>
		</g>
	</g>
	<g>
		<g>
			<path class="st0" d="M123.1,229.7c-0.1-1.4-0.2-2.8-0.3-4.1c-0.4,0-0.8,0-1.2,0c0.1,0.9,0.3,1.8,0.6,2.6c0.2,0.6,1,0.6,1.1,0
				c0.3-0.8,0.4-1.6,0.5-2.5c-0.4,0-0.8,0-1.2,0c0,0.8,0.1,1.5,0.3,2.2c0.1,0.5,1.1,0.6,1.1,0c0.1-1,0.1-1.8-0.1-2.8
				c-0.1-0.7-1.2-0.5-1.2,0.2c0,0.3,0,0.7,0,1c0.4-0.1,0.8-0.1,1.2-0.2c-0.2-0.5-0.2-1,0-1.5c-0.4-0.1-0.8-0.1-1.2-0.2
				c0,0.4,0,0.8,0,1.3c0,0.6,0.8,0.8,1.1,0.3c0.3-0.5,0.3-0.9,0.2-1.4c-0.2-0.6-1.2-0.5-1.2,0.2c0,0.5,0,1,0.1,1.5
				c0,0.8,1.2,0.8,1.2,0c0-0.3,0-0.6,0-0.9c-0.4,0-0.8,0-1.2,0c0.1,0.6,0.1,1.3,0.2,1.9c0.1,0.6,1,0.9,1.2,0.2
				c0.1-0.6,0.2-1.2,0.1-1.9c-0.4,0-0.8,0-1.2,0c0,0.4,0.1,0.7,0.1,1.1c0.4,0,0.8,0,1.2,0c-0.1-1.1-0.3-2.1-0.4-3.2
				c-0.1-0.7-1.3-0.8-1.2,0c0.2,2.3,0.4,4.7,0.5,7.1c0,0.8,1.2,0.8,1.2,0c-0.1-2.4-0.3-4.7-0.5-7.1c-0.4,0-0.8,0-1.2,0
				c0.1,1.1,0.3,2.1,0.4,3.2c0.1,0.7,1.3,0.8,1.2,0c0-0.4-0.1-0.7-0.1-1.1c-0.1-0.7-1.3-0.8-1.2,0c0.1,0.6,0,1-0.1,1.6
				c0.4,0.1,0.8,0.1,1.2,0.2c-0.1-0.6-0.1-1.3-0.2-1.9c-0.1-0.7-1.2-0.8-1.2,0c0,0.3,0,0.6,0,0.9c0.4,0,0.8,0,1.2,0
				c0-0.5,0-1-0.1-1.5c-0.4,0.1-0.8,0.1-1.2,0.2c0,0.2,0,0.3,0,0.5c0.4,0.1,0.7,0.2,1.1,0.3c0-0.4,0-0.8,0-1.3c0-0.7-1-0.8-1.2-0.2
				c-0.2,0.7-0.2,1.4,0,2.1c0.2,0.6,1.2,0.5,1.2-0.2c0-0.3,0-0.7,0-1c-0.4,0.1-0.8,0.1-1.2,0.2c0.2,0.8,0.2,1.4,0.1,2.1
				c0.4,0,0.8,0,1.1,0c-0.2-0.6-0.2-1.2-0.2-1.9c0-0.8-1.2-0.8-1.2,0c0,0.8-0.2,1.4-0.4,2.2c0.4,0,0.8,0,1.1,0
				c-0.2-0.8-0.4-1.5-0.5-2.3c-0.1-0.7-1.2-0.8-1.2,0c0.1,1.4,0.2,2.8,0.3,4.1C121.9,230.4,123.1,230.4,123.1,229.7L123.1,229.7z"/>
		</g>
	</g>
	<g>
		<g>
			<path class="st0" d="M124.2,226.7c-0.1-0.4-0.1-0.9-0.2-1.3c-0.4,0.1-0.8,0.1-1.2,0.2c0.2,0.6,0.3,1.3,0.3,1.9
				c0,0.8,1.2,0.8,1.2,0c0-0.7,0-1.4,0-2.1c-0.4,0.1-0.7,0.2-1.1,0.3c0.1,0.2,0.1,0.4,0.1,0.6c0.4,0,0.8,0,1.1,0
				c-0.2-0.7-0.3-1.4-0.4-2.1c0-0.8-1.2-0.8-1.2,0c0.1,0.8,0.2,1.6,0.4,2.4c0.2,0.5,1,0.6,1.1,0c0.1-0.5,0-1-0.2-1.5
				c-0.2-0.6-1.1-0.2-1.1,0.3c0,0.7,0,1.4,0,2.1c0.4,0,0.8,0,1.2,0c0-0.8-0.2-1.5-0.4-2.2c-0.2-0.6-1.3-0.5-1.2,0.2
				c0.1,0.4,0.1,0.9,0.2,1.3C123.2,227.4,124.3,227.4,124.2,226.7L124.2,226.7z"/>
		</g>
	</g>
	<g>
		<g>
			<path class="st2" d="M71.2,170.8c6,4.7,15.8,2.1,21.8-1.4c0.7-0.4,0.1-1.4-0.6-1c-5.4,3.2-14.8,5.9-20.3,1.6
				C71.4,169.5,70.6,170.3,71.2,170.8L71.2,170.8z"/>
		</g>
	</g>
	<g>
		<g>
			<path class="st2" d="M128.8,170.4c-5.5,4.3-14.9,1.6-20.3-1.6c-0.7-0.4-1.3,0.6-0.6,1c5.9,3.5,15.8,6,21.8,1.4
				C130.3,170.7,129.4,169.9,128.8,170.4L128.8,170.4z"/>
		</g>
	</g>
	<g>
		<g>
			<g>
				<path d="M71.7,170.3c-4.1-4.1-8.4-7.6-8.2-13.9c0.1-4.8,1.3-9.6,4.8-13c0.5-0.5-0.3-1.4-0.8-0.8c-3.8,3.7-5,8.7-5.2,13.8
					c-0.3,6.7,4,10.4,8.5,14.8C71.4,171.7,72.2,170.9,71.7,170.3L71.7,170.3z"/>
			</g>
		</g>
		<g>
			<g>
				<path d="M67.5,144.2c5.2-4.7,13.3-4.2,19.8-2.9c6,1.2,9.6,5.3,12.1,10.7c0.3,0.7,1.3,0.1,1-0.6c-2.9-6.3-7.2-10.4-14.3-11.5
					c-6.8-1-14.1-1.5-19.6,3.4C66.1,143.8,66.9,144.7,67.5,144.2L67.5,144.2z"/>
			</g>
		</g>
		<g>
			<g>
				<path d="M75.5,225.5c1.4-18-1.5-36-3.8-53.8c-0.1-0.7-1.3-0.8-1.2,0c2.3,17.8,5.2,35.8,3.8,53.8
					C74.2,226.3,75.4,226.3,75.5,225.5L75.5,225.5z"/>
			</g>
		</g>
		<g>
			<g>
				<path d="M74.7,224.4c-1.7,6.4-1.4,13.1-2.9,19.5c-1.6,6.8-3.4,13.6-5.2,20.4c-0.2,0.7,1,1.1,1.1,0.3c1.7-6.8,3.6-13.6,5.2-20.4
					c1.5-6.4,1.2-13.1,2.9-19.5C76.1,224,74.9,223.6,74.7,224.4L74.7,224.4z"/>
			</g>
		</g>
		<g>
			<g>
				<path d="M133.5,144.1c-5.4-4.9-12.7-4.4-19.6-3.4c-7,1-11.3,5.2-14.3,11.5c-0.3,0.7,0.7,1.3,1,0.6c2.5-5.4,6.1-9.5,12.1-10.7
					c6.5-1.3,14.6-1.8,19.8,2.9C133.2,145.4,134,144.6,133.5,144.1L133.5,144.1z"/>
			</g>
		</g>
		<g>
			<g>
				<g>
					<path d="M129.3,171.9c4.5-4.4,8.8-8.1,8.5-14.8c-0.2-5.1-1.4-10.2-5.2-13.8c-0.5-0.5-1.4,0.3-0.8,0.8c3.5,3.4,4.7,8.2,4.8,13
						c0.2,6.3-4,9.9-8.2,13.9C127.9,171.6,128.8,172.5,129.3,171.9L129.3,171.9z"/>
				</g>
			</g>
			<g>
				<g>
					<path d="M125.8,226.3c-1.4-18,1.5-36,3.8-53.8c0.1-0.8-1.1-0.8-1.2,0c-2.3,17.8-5.2,35.8-3.8,53.8
						C124.7,227,125.9,227,125.8,226.3L125.8,226.3z"/>
				</g>
			</g>
		</g>
		<g>
			<g>
				<path d="M124.2,225.4c1.7,6.4,1.4,13.1,2.9,19.5c1.6,6.8,3.4,13.6,5.2,20.4c0.2,0.7,1.3,0.4,1.1-0.3c-1.7-6.8-3.6-13.6-5.2-20.4
					c-1.5-6.4-1.2-13.1-2.9-19.5C125.2,224.4,124,224.7,124.2,225.4L124.2,225.4z"/>
			</g>
		</g>
		<g>
			<g>
				<path d="M67.5,264.7c3.3,3,8,3.1,12.2,3.8c5.6,1,11.2,2,16.9,2.4c12.2,0.9,24.4-0.7,36.1-4.5c0.7-0.2,0.4-1.4-0.3-1.1
					c-10.4,3.3-21.2,5-32.1,4.6c-5.4-0.2-10.6-0.9-15.9-1.8c-4.7-0.8-12.3-0.8-16-4.2C67.8,263.4,66.9,264.2,67.5,264.7L67.5,264.7z
					"/>
			</g>
		</g>
	</g>
</g>
</svg>
