<?xml version="1.0" encoding="utf-8"?>
<!-- Generator: Adobe Illustrator 21.0.2, SVG Export Plug-In . SVG Version: 6.00 Build 0)  -->
<svg version="1.1" id="Layer_1" xmlns="http://www.w3.org/2000/svg" xmlns:xlink="http://www.w3.org/1999/xlink" x="0px" y="0px"
	 viewBox="0 0 200 600" style="enable-background:new 0 0 200 600;" xml:space="preserve">
<style type="text/css">
	.st0{fill:#B21340;}
</style>
<g>
	<g>
		<g>
			<path d="M121.1,106.7c0.2-0.4,1.6-0.1,1.9,0c0.7,0.1,1.3,0.1,2,0.2c0.8,0.1,0.8-1.1,0-1.2c-1.1-0.1-2.2-0.2-3.3-0.3
				c-0.6,0-1.3,0.1-1.6,0.7C119.8,106.7,120.8,107.4,121.1,106.7L121.1,106.7z"/>
		</g>
	</g>
	<g>
		<g>
			<g>
				<g id="XMLID_2_">
					<g>
						<path class="st0" d="M81.8,130.2H82c0,0.4,0.6,0.6,1,0.7c11.4,1.9,23-1.1,34.5-0.4l2.6-0.2c-0.2-7.9-0.1-15.8,0.2-23.7l0-0.7
							c1.5,0.1,3,0.2,4.6,0.3l0.2,0.4c-0.5,8-0.5,16.1,0,24.2l0.1,0.3c2.4,0.7,4.7,1.4,6.9,2.6c2.1,1.2,4,2.9,5.1,5.2
							c0.6,1.3,0.9,2.7,1.1,4c0.7,4,1.1,8,1.3,12l-0.3,0c-0.6,5.2-3.3,10.1-7.4,13.3c-0.8,0.7-1.8,1.3-2.7,1.7
							c-0.2,0.1-0.4,0.2-0.6,0.3c-2.8,20.8-4.9,41.7-6.3,62.6l0,0.4c-0.5,3.8,1.8,7.4,3.7,10.7c8.4,14.7,12.9,31.6,12.7,48.5
							l-0.4,0.1c1.4,19.2,1.1,38.6-0.9,57.7v0.1c-25.2,1.8-50.6,3.7-75.8,0.7l0.1-0.8c-2-19.2-2.3-38.5-0.9-57.7l-0.4-0.1
							c-0.2-16.9,4.3-33.9,12.7-48.5c1.9-3.3,4.1-6.9,3.7-10.7l0-0.4c-1.4-21.1-3.6-42.1-6.3-63l0.3-0.1c-0.1-0.3-0.1-0.5-0.2-0.8
							l0.2-0.3c-0.2-0.2-0.5-0.4-0.7-0.5c-4-3.3-6.7-8.2-7.4-13.3l-0.3,0c0.2-4,0.6-8.1,1.3-12c0.3-1.4,0.5-2.8,1.1-4
							c1-2.2,2.9-3.9,5.1-5.2c2.1-1.2,4.5-1.9,6.9-2.6l0.1-0.3c0.4-8.1,0.4-16.1,0-24.2l0-0.3c0.9,0.1,1.8,0.2,2.6,0.2l2.2,0.1
							C81.9,114.5,82,122.3,81.8,130.2z"/>
					</g>
					<g>
					</g>
				</g>
			</g>
			<g>
				<path class="st0" d="M70.8,354.8c-0.2-1.4-1.3-2.6-2.7-2.9c1.7,12.2,3.8,24.4,6.4,36.4c-1.1-1-1.7-2.6-1.5-4.1
					c1.5,3.1,2.5,6.5,2.8,9.9c-1.1-1.4-1.8-3.1-1.9-4.8c1.1,4.3,2.2,8.6,3.3,12.9c2.5-0.1,4.9-0.2,7.4-0.4c0.3,0,0.7,0,0.9-0.2
					c0.4-0.3,0.5-0.9,0.5-1.4c0.5-9.1-4.7-17.5-7.5-26.2c-1.4-4.5-2.2-9.2-2.5-13.9c-0.2-3.3,0.1-7.1,2.7-9.1
					c1.5-1.1,3.4-1.4,5.3-1.2c1.8,0.2,3.6,0.8,5.4,1.2c7.7,2.1,15.9,2.1,23.6,0.2c2.1-0.5,4.1-1.1,6.2-1.2c2-0.1,4.1,0.4,6.1,0.4
					c2.1,0,4.3-0.4,6.4-0.9c-1.7,11.6-3.3,23.3-5,34.9c-0.7,5-1.4,10-2.7,14.9c-0.1,0.3-0.2,0.5-0.3,0.8c-0.4,0.5-1.2,0.4-1.9,0.3
					c-5.8-1-11.6,0-17.5,0c-5.8,0-12.1-1.2-16.1-5.5c-1.6-1.8-2.7-4-3.7-6.1c-3-6.9-5-14.1-6.7-21.4c-0.4-1.5-0.7-3.2,0.1-4.6
					c0.4-0.8,1.2-1.4,2-2c2.4-1.7,5.7-3,8.2-1.4c2.3,1.5,2.7,4.7,2.6,7.5c-0.3,4.9-1.3,9.7-3.2,14.1c-0.4,0.9-0.8,1.8-1.7,2.2
					c-0.9,0.4-2.1,0-2.8-0.7s-1.1-1.7-1.4-2.7c-2.1-7.9,1.1-16.4,6.4-22.6c0.6-0.7,1.4-1.5,2.3-1.4c0.7,0.1,1.3,0.7,1.7,1.3
					c3.7,5.1,3.1,12.2,1,18.2c-0.4,1.1-0.8,2.2-1.7,3c-0.9,0.8-2.2,1.1-3.2,0.4c-0.6-0.4-0.9-1.1-1.2-1.8c-0.7-2.3-0.6-4.7,0-7.1
					c0.9-3.5,2.6-6.7,5.1-9.3c0.7-0.7,1.6-1.5,2.6-1.3c1.1,0.1,1.8,1.2,2.2,2.2c1.3,3.1,1.5,6.5,1.5,9.8c0,5.8-0.5,11.7-1.6,17.4
					c-0.2,0.9-0.5,1.9-1.3,2.1c-1.4-2.5-1.5-5.5-1.4-8.3c0.1-5.1,0.8-10.5,4-14.5c0.4-0.5,0.8-0.9,1.4-0.9c0.8,0,1.3,0.7,1.6,1.4
					c1.2,2.8,0.9,5.9,0.3,8.8c-0.9,5.1-2.4,10-4.5,14.8c-0.2,0.4-0.5,0.9-0.9,1c-0.7,0.1-1.1-0.8-1.3-1.6c-1.1-7.1,0-14.5,3.2-20.9
					c0.4-0.9,1.1-1.9,2.1-1.8c1.2,0.1,1.6,1.6,1.6,2.8c0.1,5-1.1,10-3.5,14.3c-0.1,0.2-0.2,0.4-0.4,0.4c-0.5,0.2-0.9-0.4-1-0.8
					c-1.6-4.8-0.4-10.1,1.3-14.9c1.5-4.3,3.4-8.4,5.6-12.3c0.3-0.5,0.8-1.2,1.4-0.9c0.4,0.2,0.6,0.7,0.6,1.2
					c0.7,5.6-0.3,11.5-2.9,16.5c-0.6-0.8-0.5-1.8-0.4-2.7c0.6-5.8,2.6-11.4,5.8-16.3c2.1,4,1.2,8.9,0.1,13.4c0.6-4.5,1.9-8.9,3.8-13
					c0.3,1.1,0.1,2.2-0.4,3.2c0.1-1.7,0.9-3.3,2-4.5c-0.8,4.6-1.6,9.2-2.3,13.8c-0.4-4.9,0.7-10,3.3-14.3c0.1,5.2-0.4,10.4-1.3,15.5
					c0.7-5,1.4-10.1,2.8-15c1,1,0.9,2.5,0.7,3.9c-0.4,3.2-0.9,6.4-1.5,9.6c1-4.8,2-9.7,3.9-14.3c0.7,4,0.5,8.1-0.5,12
					c0.3-3.4,0.9-6.7,2-9.9c0.6,1.9,0.3,4,0,5.9c-0.5,3.5-1.1,7.1-1.6,10.6c0-4.1,0.7-8.2,2-12.1c-0.3,7.5-1,14.9-2.3,22.3
					c-0.1-3,0.3-6,1.1-8.9c0.5,4.8,0,9.6-1.5,14.2c-1.8-2.2-1.8-5.7-0.1-8c0.4,3-0.4,6.1-2.1,8.6c-0.6,0.8-1.6,1.7-2.5,1.2
					c-0.4-0.2-0.6-0.6-0.8-1c-1.3-2.6-1.2-5.9,0.4-8.4c0.2-0.3,0.5-0.7,0.9-0.6c0.6,0,0.8,0.8,0.7,1.4c-0.2,3.3-1.5,6.6-3.7,9.2
					c-0.4,0.5-0.9,1-1.6,1c-0.7,0-1.2-0.5-1.5-1.1c-1.4-2.1-1.7-4.9-1.1-7.4c0.6-2.5,1.9-4.8,3.4-6.8c0.6-0.9,1.4-1.8,2.5-1.7
					c-1,5.1-3.1,10-6.2,14.2c-0.7-5.2,0.6-10.6,3.7-14.8c0,5.9-1.6,11.7-4.5,16.8c-0.2,0.4-0.7,0.9-1.1,0.7
					c-0.2-0.1-0.3-0.3-0.4-0.5c-0.4-1.2-0.1-2.6,0.7-3.5c0.9,0.7,0.9,2.3,0,3.2s-2.2,1.1-3.3,0.9c-0.1-0.5-0.1-1-0.2-1.5
					c-1.6,1.1-4.2,0.1-4.6-1.8"/>
			</g>
			<g>
				<path class="st0" d="M89.8,401.5"/>
			</g>
			<g>
				<path class="st0" d="M85.8,392.1c-1.7,1.5-0.7,4.4,1,5.7c0.3,0.2,0.7,0.5,0.9,0.8c0.6,1-0.6,2.2-1.6,2.9
					c0.2,0.5,0.7,0.9,1.3,0.9c-0.6,0.3-1.3,0.4-2,0.4c2-0.4,4.2-0.5,6.2,0c-0.7,0.1-1.5,0.1-2.2,0.2c10.2,0.5,20.5,0,30.6-1.3"/>
			</g>
			<g>
				<path class="st0" d="M116.2,395.8c0.1,0.1,0.2,0.2,0.3,0.3"/>
			</g>
			<g>
				<path class="st0" d="M77.9,402.3c-0.2,0-0.5,0-0.7,0c-0.2,0-0.4,0-0.3,0.1"/>
			</g>
			<g>
				<path class="st0" d="M119.6,402c1.2-0.7,2.8,0.3,3.7-0.8c0.4-0.4,0.5-1.1,0.6-1.7c0.2-1.2,0.4-2.4,0.6-3.6"/>
			</g>
		</g>
		<g>
			<g>
				<path class="st0" d="M85.9,349.1c0.9,1.3,1.7,2.7,2.6,4c-2.9,1.2-5.9,2.4-8.8,3.6c1.5-1.2,3-2.4,4.5-3.5
					c-0.2,1.5-0.4,3.1-0.6,4.6c0.2-0.3,0.3-0.6,0.5-0.9c-1.2,0.9-2.4,1.8-3.6,2.8c0.2-1,0.4-2,0.6-3c-2.3,0.9-4.5,1.8-6.8,2.8
					c0.3,0.1,0.6,0.3,1,0.4c-1.2-0.9-2.4-1.8-3.6-2.8c2.2-0.7,4.4-1.5,6.7-2.2c-3.3,0.9-6.7,1.8-10,2.6c0.7-2.4,1.3-4.8,2-7.2
					c2.3,0.9,4.5,1.8,6.8,2.8c0,0.3,0,0.6-0.1,0.8c1.1-6.9-6.8-10.1-11-4.6c-0.4,0.6-0.9,1.1-1.3,1.7c3.7,0.5,7.3,1,11,1.4
					c-0.4-0.9-0.7-1.8-1.1-2.8c-2.3-5.8-12.1-5.7-11.8,1.6c0.7,13.9,2.4,27.9,5.2,41.5c1.1,5.3,1.6,12.5,7.5,14.7
					c2.5,0.9,5.2,0.4,7.7,0.2c3.6-0.3,7.3-0.6,10.9-0.9c4.2-0.3,7.9-5,5.2-9c-4.9-7.4-10.8-14.7-14.5-22.8c-1.5-3.2-3.1-7.8-1-11.2
					c1.7-2.7,5.2-3,8.1-3.4c3.5-0.4,7.1-0.6,10.5-1.6c1.9-0.6,4-2.2,6-2.3c1.9-0.2,3.5,0.8,5.3,1.4c7.9,2.9,15.9,1.2,22.1-4.5
					c-3.4-1.4-6.8-2.8-10.2-4.2c0.8,10.5-5.3,20-4.3,30.7c0.6,6.7,9.5,8.2,11.8,1.6c1.2-3.6,2.1-7.2,2.7-10.9
					c1.1-7.5-9.3-10.8-11.6-3.2c-2.6,8.7-5.1,17.5-7.4,26.3c-0.8,2.9,1,6.8,4.2,7.4c10.1,1.9,10.4-9.4,11.5-16.4
					c1-6.3-7.4-11-11-4.6c-3.7,6.6-5.4,13.7-5,21.2c0.3,5.1,6.4,8,10.2,4.2c2.4-2.4,3.5-5.1,3.6-8.5c0.1-4.8-5.1-7.1-9-5.2
					c-7.8,3.8-16.1,5.1-24.8,4.3c-7.7-0.7-7.6,11.3,0,12c10.8,1,21.2-1.2,30.8-5.9c-3-1.7-6-3.5-9-5.2c0,0,0,0,0,0
					c3.4,1.4,6.8,2.8,10.2,4.2c-0.3-5.5,0.7-10.4,3.3-15.2c-3.7-1.5-7.3-3.1-11-4.6c-0.3,1.9-0.6,3.9-0.9,5.8
					c-0.2,1.6-2,4.7,0.5,2.9c1.5-0.2,3.1-0.4,4.6-0.6c-0.3-0.1-0.6-0.1-0.9-0.2c1.4,2.5,2.8,4.9,4.2,7.4c2.3-8.8,4.7-17.6,7.4-26.3
					c-3.9-1.1-7.7-2.1-11.6-3.2c-0.6,3.8-1.5,7.3-2.7,10.9c3.9,0.5,7.9,1.1,11.8,1.6c-1-10.5,5.1-20.1,4.3-30.7
					c-0.4-5.2-6.3-7.9-10.2-4.2c-4.2,3.8-8,2-12.6,0.5c-4.8-1.6-8.7-0.8-13.3,1c-7.8,3.1-16.8,1.2-23.7,6.6
					c-17.8,13.8,2.8,38.2,11.3,50.8c1.7-3,3.5-6,5.2-9c-4.5,0.4-10.3-0.1-14.6,1.2c1.7-0.5,1.4,2.6,1.2-0.7
					c-0.1-1.2-0.6-2.5-0.8-3.7c-0.6-2.8-1.2-5.6-1.7-8.5c-1.9-10.5-3-21.1-3.5-31.8c-3.9,0.5-7.9,1.1-11.8,1.6
					c0.4,0.9,0.7,1.8,1.1,2.8c2,5.1,7.7,5.7,11,1.4c0.4-0.6,0.9-1.1,1.3-1.7c-3.7-1.5-7.3-3.1-11-4.6c-0.5,3.2-0.3,5.5,1.3,8.4
					c1.3,2.4,4.2,3.4,6.8,2.8c5.6-1.4,7.9-9,3.3-12.8c-3.2-2.7-9-2.1-10,2.6c-1.5,6.7,3.7,14.5,11.3,11.8c8.1-2.9,6.3-12.7-0.6-15.6
					c-2.3-0.9-5.7,0.6-6.8,2.8c-3.6,7.5,2.4,16.9,11.2,13.5c8.5-3.3,7.2-17.7-2.9-16.5c-10,1.3-7.3,15.3,2,15.6c4,0.1,7.8-2.3,9-6.2
					c1.4-4.4-0.9-8.2-4.3-10.7c-3.3-2.5-7.7,0.3-8.8,3.6c-1.6,5,1.2,9.1,5.8,10.8C90,363.4,93.1,351.8,85.9,349.1L85.9,349.1z"/>
			</g>
		</g>
		<g>
			<g>
				<path class="st0" d="M99,405.5c-3.9-1.4-7.7-1-11.8-0.6c-1.5,0.1-13.9,1.8-13.9-0.5c-0.6,0.3-1.2,0.7-1.8,1
					c10,4.7,22,3.7,32.8,3.2c6.3-0.3,12.5-0.9,18.7-1.7c2.4-0.3,5.9-0.3,5.8-3.4c-0.1-1.5-2.5-1.5-2.4,0c0.1,1.9-24.2,2.8-26.8,2.9
					c-8.9,0.3-18.6,0.8-26.9-3c-0.8-0.4-1.8,0.1-1.8,1c-0.1,3.9,3.8,3.5,6.7,3.5c6.7-0.1,14.3-2.3,20.7-0.1
					C99.8,408.4,100.4,406,99,405.5L99,405.5z"/>
			</g>
		</g>
	</g>
	<g>
		<g>
			<g>
				<g>
					<path d="M70.6,169.8c5.2,2.1,10.8,2.3,15.8-0.3c4.9-2.6,7.2-7.2,9-12.1c0.3-0.7-0.9-1-1.2-0.3c-3.8,10.4-12.3,16.1-23.4,11.6
						C70.2,168.4,69.8,169.5,70.6,169.8L70.6,169.8z"/>
				</g>
			</g>
			<g>
				<g>
					<path d="M77.2,131.2c1.5-8.2-0.5-16.4-0.5-24.6c0-0.8-1.2-0.8-1.2,0c-0.1,8.1,1.9,16.2,0.5,24.3
						C75.9,131.6,77.1,132,77.2,131.2L77.2,131.2z"/>
				</g>
			</g>
			<g>
				<g>
					<path d="M82.6,130.5c-0.3-7.8-0.6-15.7-0.9-23.5c0-0.8-1.2-0.8-1.2,0c0.3,7.8,0.6,15.7,0.9,23.5
						C81.4,131.3,82.6,131.3,82.6,130.5L82.6,130.5z"/>
				</g>
			</g>
			<g>
				<g>
					<path d="M76.5,106.9c0.4-0.4,1.7-0.2,2.1-0.2c0.7,0,1.4-0.1,2.1-0.1c0.8,0,0.8-1.2,0-1.2c-1.1,0-2.1,0.1-3.2,0.1
						c-0.7,0-1.4,0-1.9,0.5C75.1,106.6,76,107.4,76.5,106.9L76.5,106.9z"/>
				</g>
			</g>
			<g>
				<g>
					<path d="M63.3,155.7c-0.2-4.6-0.7-10.3,0.6-14.8c1.5-4.8,7.4-7.9,12.1-8.8c0.8-0.1,0.4-1.3-0.3-1.2c-4.1,0.8-9.8,3.3-12,7.1
						c-2.8,4.7-1.9,12.5-1.6,17.6C62.2,156.5,63.4,156.5,63.3,155.7L63.3,155.7z"/>
				</g>
			</g>
			<g>
				<g>
					<path d="M62.1,155.2c1.3,5.8,4.5,10.8,9.3,14.3c0.6,0.5,1.2-0.6,0.6-1c-4.5-3.3-7.5-8.1-8.8-13.6
						C63.1,154.1,61.9,154.4,62.1,155.2L62.1,155.2z"/>
				</g>
			</g>
			<g>
				<g>
					<path d="M70.1,169.6c2.4,10.6,3.1,21.8,4.2,32.6c1.2,11,2.4,22,2.3,33.1c0,0.8,1.2,0.8,1.2,0c0.1-11.7-1.2-23.4-2.5-35
						c-1.1-10.3-1.8-20.9-4.1-31C71.1,168.5,69.9,168.9,70.1,169.6L70.1,169.6z"/>
				</g>
			</g>
			<g>
				<g>
					<path d="M76.5,235.5c-0.1,3.5-2.7,7.2-4.2,10.2c-1.3,2.6-2.7,5.2-4,7.7c-2.2,4.3-4.2,8.5-5.3,13.2c-2.4,9.8-2.8,20.1-3.7,30.1
						c-0.1,0.8,1.1,0.8,1.2,0c1.1-11,1.2-22.6,4.6-33.2c1.7-5.4,4.8-10.4,7.4-15.5c2-3.8,5.2-8.1,5.3-12.5
						C77.7,234.7,76.5,234.7,76.5,235.5L76.5,235.5z"/>
				</g>
			</g>
			<g>
				<g>
					<path d="M130.7,167.9c-10.6,4-19.3-0.7-23.4-10.9c-0.3-0.7-1.4-0.4-1.2,0.3c2,5,4.5,9.4,9.6,11.7c4.9,2.2,10.3,1.9,15.2,0
						C131.8,168.8,131.4,167.6,130.7,167.9L130.7,167.9z"/>
				</g>
			</g>
		</g>
		<g>
			<g>
				<path d="M59.3,296.2c0.1,10.2,0.1,20.3,0.3,30.5c0.2,7.9,0.4,16.2,2.1,24c0.2,0.8,1.3,0.4,1.2-0.3c-1.8-8-2-17-2.1-25.3
					c-0.1-9.6-0.2-19.2-0.3-28.9C60.5,295.4,59.3,295.4,59.3,296.2L59.3,296.2z"/>
			</g>
		</g>
		<g>
			<g>
				<path d="M72.4,408.4c18.2,2.1,37.7,2,55.8-1.2c0.8-0.1,0.4-1.3-0.3-1.2c-18,3.3-37.3,3.3-55.5,1.2
					C71.6,407.1,71.6,408.3,72.4,408.4L72.4,408.4z"/>
			</g>
		</g>
		<g>
			<g>
				<path d="M120.6,130c-0.3-8-0.2-15.9,0.3-23.8c0-0.8-1.2-0.8-1.2,0c-0.5,7.9-0.6,15.9-0.3,23.8
					C119.5,130.8,120.7,130.8,120.6,130L120.6,130z"/>
			</g>
		</g>
		<g>
			<g>
				<path d="M125.8,131.2c-0.1-8.2-0.1-16.4-0.2-24.7c0-0.8-1.2-0.8-1.2,0c0.1,8.2,0.1,16.4,0.2,24.7
					C124.6,131.9,125.8,131.9,125.8,131.2L125.8,131.2z"/>
			</g>
		</g>
		<g>
			<g>
				<path d="M82.1,131.6c1.9-0.2,4.2,0.7,6.2,0.6c3.5-0.1,6.9-0.5,10.4-0.7c6.9-0.4,13.9-0.6,20.8-0.7c0.8,0,0.8-1.2,0-1.2
					c-6.9,0.1-13.9,0.3-20.8,0.7c-3.2,0.2-6.4,0.5-9.6,0.6c-2.4,0.1-4.7-0.8-6.9-0.6C81.4,130.5,81.4,131.7,82.1,131.6L82.1,131.6z"
					/>
			</g>
		</g>
		<g>
			<g>
				<path d="M125.6,132c9.6,0.4,13.2,10.8,13.5,18.7c0.3,7.7-2.7,15.9-10.8,18c-0.7,0.2-0.4,1.4,0.3,1.2c17.1-4.5,15.6-38.2-3-39.1
					C124.8,130.7,124.8,131.9,125.6,132L125.6,132z"/>
			</g>
		</g>
		<g>
			<g>
				<path d="M128,169.8c-2.4,21.8-4.2,43.6-6.2,65.4c-0.1,0.8,1.1,0.8,1.2,0c2-21.8,3.8-43.6,6.2-65.4
					C129.3,169,128.1,169,128,169.8L128,169.8z"/>
			</g>
		</g>
		<g>
			<g>
				<path d="M122.1,234.5c-0.8,4.1,1.5,6.9,3.5,10.3c3.1,5.2,5.6,10.6,7.6,16.3c3.8,10.9,5.4,22.4,5,33.9c0,0.8,1.2,0.8,1.2,0
					c0.3-9.9-0.8-19.7-3.5-29.3c-1.2-4.2-2.7-8.3-4.5-12.3c-1.1-2.4-2.2-4.7-3.5-7c-1.8-3.3-5.5-7.6-4.7-11.7
					C123.5,234,122.3,233.7,122.1,234.5L122.1,234.5z"/>
			</g>
		</g>
		<g>
			<g>
				<path d="M138.3,294.8c-0.1,18.5-0.4,37-0.8,55.4c0,0.8,1.2,0.8,1.2,0c0.5-18.5,0.8-36.9,0.8-55.4
					C139.5,294,138.3,294,138.3,294.8L138.3,294.8z"/>
			</g>
		</g>
		<g>
			<g>
				<path d="M61,344.5c0.8,10.8,2.5,21.4,4.2,32c1.7,10.6,3.2,21.2,6.6,31.5c0.2,0.7,1.4,0.4,1.2-0.3c-3.2-9.6-4.7-19.5-6.3-29.5
					c-1.8-11.2-3.6-22.4-4.4-33.7C62.1,343.7,60.9,343.7,61,344.5L61,344.5z"/>
			</g>
		</g>
		<g>
			<g>
				<path d="M137.4,345.8c-0.7,10.5-2.4,21-4,31.4c-1.5,9.9-2.9,19.7-6,29.3c-0.2,0.7,0.9,1.1,1.2,0.3c3.3-10.2,4.7-20.6,6.3-31.1
					c1.5-9.9,3.1-19.8,3.7-29.8C138.7,345,137.5,345,137.4,345.8L137.4,345.8z"/>
			</g>
		</g>
	</g>
</g>
</svg>
