<svg id="Layer_1" data-name="Layer 1" xmlns="http://www.w3.org/2000/svg" viewBox="0 0 71.23 41.76"><defs><style>.cls-1{fill:#7c006c;}.cls-2{fill:#000e41;}.cls-3{fill:#66006c;}</style></defs><title>Cap</title><path class="cls-1" d="M93.8,31.1h-.4v3.5c-2.8,1.8-7.1-.3-10.1,0A11.44,11.44,0,0,0,79.4,36c-5,3.1-9.5,7.4-13.9,11-1.3,1.1-1.1,3.9.9,3.8a36.65,36.65,0,0,0,16.4-5.1c2.2-1.2.3-4.6-1.9-3.5-.8.4-1.7.8-2.4,1.2-2,1-.5,4.1,1.4,3.7a41.33,41.33,0,0,1,18.5-.6c.2-1.3.3-2.7.5-3.9-.3,0-.5-.1-.8-.1-.5,1.2-.9,2.5-1.4,3.7,4.8,1.3,8.8-1.9,13.4-1.3v-4a6.57,6.57,0,0,1-3.4-.2c-2.4-.7-3.2,3-1,3.9,7,2.7,13.8.6,21.1,1.1v-4c-1.5.1-3.1.1-4.6.2-2.4.1-2.4,3.9,0,4a50.82,50.82,0,0,1,10.9,1.9,2,2,0,0,0,2.1-2.9,50.15,50.15,0,0,1-4.3-9.4c-1.1.6-2.3,1-3.4,1.6a19.23,19.23,0,0,1,1.8,3.1c.7-1,1.4-2,2.1-2.9-11.8-2.9-24.5-4.5-36.5-2.6-5.4.8-10.5,2.8-15.9,3.7a17.71,17.71,0,0,0-12.2,7c1,.7,2.1,1.3,3.1,2,.3-.6.6-1,.9-1.6,1-1,.5-3.1-.8-3.3a3.39,3.39,0,0,0-2.6.4c.8.9,1.7,1.8,2.6,2.8a28.8,28.8,0,0,1,2.4-4.6c1.1-1.9-1.4-4.1-2.9-2.5-.4.4-.7.9-1.1,1.3.9.8,2,1.7,2.9,2.5a34.18,34.18,0,0,1,8.3-10.5c-.7-1-1.5-2.1-2.3-3.1a42,42,0,0,0-7.3,12c-1,2.3,1.9,4.2,3.2,2,1-1.8,3-4.7,5.1-5.2a18.94,18.94,0,0,0-2.1-.9c.6,2.1-.1,3.6-2.1,4.3.7.4,1.5.9,2.3,1.4,0,1.4.4,1.6,1.1.4-1.2-.1-2.5-.2-3.7-.4.3,1.2.6,2.5.9,3.8,4.1-2.2,8.3-5,12.9-5.6,4.8-.7,9.7-.2,14.5-.2-.2-1.3-.3-2.7-.5-3.9A79.72,79.72,0,0,1,83.5,39v4l13-.6v-4A55.47,55.47,0,0,1,83,38.1c.4.8.8,1.7,1.3,2.5a9.12,9.12,0,0,1,2.5-4.1,7.46,7.46,0,0,1,2.9-2.1c1.8-.8,1.3-.8-1.1-.3-3.8,1.6-4,1.3-.5-.4-.7-1-1.4-2-2.1-2.9a8.12,8.12,0,0,1-7.6,4.5,22.8,22.8,0,0,0,1.7,3,12,12,0,0,1,6.7-5.5c-.7-1-1.4-2-2.1-2.9-.6,1.3-2.1,2.5-2.1,3.9,0,1.1,2.2-1.8,2.9-2.5-1-.4-2.1-.9-3.2-1.4-.8,1.4-1.8,2.9-2.6,4.3.7,1,1.5,2.1,2.3,3.1,1.9-2,5.7-5.9,8.5-5.7,1.7.1,1.9,1.2,3.4,2a1.19,1.19,0,0,0,2.1.2c1.9-1.2,2.2-.1.8,3.3.4.7.9,1.3,1.3,1.9,2.2-3.9,3.2-4.6,3.1-2-.2,1.9.8,2.6,3.2,2.1a22.26,22.26,0,0,0-2.4-1.9c.3.9.5,1.8.8,2.7a22.8,22.8,0,0,0-1.7-3c-2.4,3.2-2.9,3.1-1.8-.7-2.1-2.6-1.7-3.1,1-1.6a2,2,0,0,0,1.7,3,75.16,75.16,0,0,0,10.6-.4,6.69,6.69,0,0,0,2,0c1.2-.6,1.4-.1.7,1.2.7-.6,1.4-1.2,2.2-1.8a3.39,3.39,0,0,1,.6.6c-1.8.4-1.1.8,1.7,1.2a22.76,22.76,0,0,1,5.9,2.8c.9-.6,1.9-1.1,2.8-1.8-.6-.7-1.2-1.3-1.8-2-.7.8-1.5,1.7-2.3,2.5a3.89,3.89,0,0,1,3.7,2.7c.8-.9,1.7-1.8,2.6-2.8a4.35,4.35,0,0,0-.4.7c1.9.6,3-1.9,1.9-3.3-1.8-2.1-3.6-4.3-5.4-6.5-.7,1-1.5,2.1-2.3,3.1l2.5,2.8c.9-.8,2-1.7,2.9-2.5-7.2-9.8-22.5-3.7-31.5-.9-3.4,1-7,2.5-10.5,2.9-2.6.3-9.9-.2-7-5.2,1.4-2.5,5.7-4,8.1-5.2,1.9-1,3.6-2,5.6-2.9a16.24,16.24,0,0,1,2.8-1.1,26.8,26.8,0,0,0,.2,4,1.8,1.8,0,0,0-2.3-1.4c-2.5,1-5.1,1.9-7.6,2.7.5,1.2.9,2.5,1.4,3.7a5.77,5.77,0,0,1,3.2-1.4c-.6-1.1-1.2-2.2-1.9-3.3a6.94,6.94,0,0,1-5.1,2.1c-2.4.1-2.4,4.1,0,4a12.1,12.1,0,0,0,7.6-3.2c1.5-1.3-.1-3.8-1.9-3.3a9.6,9.6,0,0,0-4.1,1.9c-1.8,1.2-.6,4.3,1.4,3.7,2.6-.8,5.1-1.7,7.6-2.7-.7-.4-1.5-.9-2.3-1.4,1.2,5.1,7.3.2,7.8-3.1.5-3.6-3.3-7-5.9-3.8-2.8,3.6,2.1,6.7,5.1,5,4.9-2.8,1.7-7.8-2.9-7.5-3.6.3-7,2.6-10.2,4.2-3.3,1.8-7.1,3.3-9.7,6.3-1.3,1.7-2.7,4-2.5,6.3.2,2.7,1.9,2.9,3.6,4,2.9,1.9,4.1,2.6,7.6,2a100.88,100.88,0,0,0,12.3-3.2c7.7-2.3,21.8-8.5,27.9-.1,1.3,1.8,3.9-.6,2.9-2.5a10.32,10.32,0,0,0-3.8-4.2c-1.9-1.2-3.6,1.4-2.3,3.1,1.8,2.1,3.6,4.3,5.4,6.5.6-1.1,1.2-2.2,1.9-3.3a3.56,3.56,0,0,0-2.4,6.7,2,2,0,0,0,2.6-2.8,7.66,7.66,0,0,0-6-4.6c-1.2-.2-2.9.9-2.3,2.5a7.16,7.16,0,0,0,3.5,4.5,1.88,1.88,0,0,0,2.8-1.8c0-2.9-1.1-5.9-4.1-6.6a4.76,4.76,0,0,0-5.4,3.1c-1.2,4.1,3.9,8.4,5.8,3.7,2-4.9-2.6-10.6-7-6.6-3.6,3.3-2,11.3,3.4,8,4.5-2.7,3.2-12.4-2.8-10.4-3.6,1.2-7.2,9.4-1.5,10.4,4.4.8,7.4-7.8,3.1-9.9-3.8-1.9-11.7,3.8-8.1,8.4s9.8-1.3,9.5-6c-.4-6.6-9.1-2.1-10.1,2-1.3,5,3.9,8.5,6.2,3.3,2.5-5.6-.5-11.9-6.2-7.5-1.9,1.4-3.5,3.7-2.7,6.2s3.2,3.2,5.3,2c4.8-2.8,3.3-11.5-2.7-9.4-3.8,1.3-8.4,9.8-2.5,11.5,5,1.4,7-7.6,3.5-10.5-4.3-3.7-13.5,3.7-8.9,8.2,4.1,3.9,11.8-3.2,6.8-7.1s-10.7,5.9-5.2,7.4c2.1.6,3.6-1.6,3.5-3.6-.1-3.9-4.6-4.3-7.4-4.5a22.8,22.8,0,0,0,1.7,3c3.9-6.9-6.6-9.8-9.8-3.6-3.7,7,6.9,10.5,10,4.1,3.5-7.1-6.5-7-8.8-1-.8,2.2-.8,6.1,1.7,7.2,2.9,1.3,6.1-2.3,7.6-4.6a2.05,2.05,0,0,0-1.7-3c-2.9.1-8.2,3.2-4.4,6.7,3.2,3.1,7-2.2,7.3-5.5a1.9,1.9,0,0,0-2.4-1.9c-2.5.8-5.9,2.8-4.5,6.2,1.1,2.9,4.3,2.5,5.9.3,5.4-6.8-3.7-12.4-7.4-5.1-3.1,6,7,7.8,7.7-.2.7-8.4-11.6-3.9-10.7,2.5A2,2,0,0,0,95,40.4c5.4,2,10.1-8.5,5.1-11.5-3.3-1.9-14.5,2.8-10.4,7.7,3.8,4.7,7.5-3.2,5.6-7.1-3.5-7.2-13.4.9-16.6,4.3-1.4,1.6.4,4.5,2.3,3.1,2.8-1.9,4-4.2,4.4-7.8.2-1.9-2.1-2.3-3.2-1.4-1.9,1.6-6.9,6.7-3.6,9.4s7.6-3.6,8.7-6c.6-1.4-.4-3.6-2.1-2.9a16.88,16.88,0,0,0-8.9,7.4,2,2,0,0,0,1.7,3,11.89,11.89,0,0,0,10.8-6.5,2,2,0,0,0-2.1-2.9c-2.9.6-8.4,4.2-5.5,7.9,2.6,3.3,8.7.8,10.8-1.9,1.9-2.2,2.1-5.9-1.4-6C85.8,29,82,35,80.5,39a2.17,2.17,0,0,0,1.3,2.5,59.38,59.38,0,0,0,14.6.6c2.4-.2,2.5-4.1,0-4l-13,.6c-2.4.1-2.4,4,0,4a82.13,82.13,0,0,0,19.1-2.6c2.1-.6,1.5-3.9-.5-3.9-5.3,0-10.9-.6-16.1.4-4.6.9-9,3.7-13,6-1.9,1-.7,3.6.9,3.8,2.2.3,4.6-.1,5.8-2.3.9-1.7.8-4.2-.8-5.2-2.8-1.8-7.4,3.6-6,6.7,1.9,4.1,6.9.1,6.3-3.5-1-4.8-7.2-3.5-6.5,1.4a1.84,1.84,0,0,0,2.3,1.4c3.4-1.4,7-6.2,4.2-10.2a1.71,1.71,0,0,0-2.1-.9c-3.2.9-5.6,4.2-7.2,7.1,1,.7,2.2,1.3,3.2,2,1.9-4.1,3.7-8,6.7-11.3,1.4-1.6-.5-4.6-2.3-3.1a38.06,38.06,0,0,0-9.6,11.8c-1,1.9,1.4,4.1,2.9,2.5.4-.4.7-.9,1.1-1.3-.9-.8-2-1.7-2.9-2.5a28.43,28.43,0,0,0-2.4,4.6c-.7,1.8.8,3.7,2.6,2.8h-.3c-.3-1.1-.5-2.2-.8-3.3a6,6,0,0,0-2,3.3c-.5,1.9,1.9,3.5,3.1,2,3.6-4.6,7.7-5.6,13-6.6s10.2-3,15.6-3.6c10.7-1.1,22,.2,32.4,2.8a1.94,1.94,0,0,0,2.1-2.9,9.68,9.68,0,0,0-1.8-3.1c-1.1-1.7-4.2-.8-3.4,1.6a58.79,58.79,0,0,0,4.6,10.2c.7-1,1.4-2,2.1-2.9a52.89,52.89,0,0,0-11.9-2v4c1.5-.1,3.1-.1,4.6-.2,2.4-.1,2.4-3.8,0-4-6.8-.6-13.4,1.6-20-1-.3,1.3-.6,2.6-1,3.9a10.84,10.84,0,0,0,4.4.4,2,2,0,0,0,0-4c-4.2-.4-8.3,2.7-12.4,1.6-2.1-.6-3.3,2.5-1.4,3.7a3.21,3.21,0,0,0,2.7.7c1.9-.2,2.7-3.5.5-3.9a45.35,45.35,0,0,0-20.4.6c.5,1.2.9,2.5,1.4,3.7.8-.4,1.7-.8,2.4-1.2-.6-1.1-1.2-2.3-1.9-3.5a32.94,32.94,0,0,1-14.6,4.6c.3,1.2.6,2.5.9,3.8,4.3-3.6,8.8-7.9,13.5-10.7,3.8-2.2,7.5.4,11.3-1.4,4-2.1,1.9-9.1-2.1-6.7-3.6,2.3.3,6.9,3.7,4.9s1.5-7.9-2.1-5.7c-1.1.7-1.3,2.9,0,3.5a3.85,3.85,0,0,0,3.3.4c2.7-.9,1.6-4.8-.8-4.3Z" transform="translate(-64.58 -10.02)"/><path class="cls-2" d="M100.8,27.8c2.4,0,2.4-4,0-4s-2.4,4,0,4Z" transform="translate(-64.58 -10.02)"/><path class="cls-2" d="M104.1,31c2.4,0,2.4-4,0-4s-2.5,4,0,4Z" transform="translate(-64.58 -10.02)"/><path class="cls-1" d="M104.2,29.6c-.9-1.1-1.8-2.1-2.7-3.2-1.1-.6-2.3-1-3.4-1.6-1.1,3.1-5.5,1.8-7.5,1.8s-3.8,1-5.8,1.2a22.8,22.8,0,0,0,1.7,3,9.6,9.6,0,0,1,5.3-4c-.7-1-1.4-2-2.1-2.9a7.63,7.63,0,0,0-.8,1.1c.6,1.1,1.2,2.3,1.9,3.5,1.1-.9,8.8-5.6,8.1-7.6-.6.9-1.2,1.7-1.8,2.6a4.59,4.59,0,0,1,3.2,5.6c1.1-.3,2.3-.7,3.5-1a5.9,5.9,0,0,1-.6-6c-1.1.1-2.3.3-3.4.4l-1.2,2.7a28.86,28.86,0,0,1-2.9-.4c-.1.2-.1.4-.2.6.8.9,1.7,1.8,2.6,2.8a7.86,7.86,0,0,1,3-3.7c2.6.4,3.7,1.9,3.4,4.5.9-.6,1.9-1.1,2.8-1.8-2.3-1.8-2.1-2.2-2.4-4.6.2,1.8,1.7,3,2,4.9.7-.8,1.5-1.7,2.3-2.5-2.5-.7-.1,4.9,0,5.5a1.85,1.85,0,0,0,1.3,1.4,26,26,0,0,0,9.2.9,2.08,2.08,0,0,0,.9-3.8,14,14,0,0,0-6.9-3.1c-.2,1.3-.3,2.7-.5,3.9a15.26,15.26,0,0,1,10.3,2.8c.5-1.2.9-2.5,1.4-3.7-.6-.4-1.2-1-1.9-1.4-.6,1.1-1.2,2.2-1.9,3.3l2.7,2.7c.9-.8,2-1.7,2.9-2.5a27.28,27.28,0,0,0-8.5-6.3c-2.7-1.2-8.3-1.3-10-3.9-.7,1-1.4,2-2.1,2.9A58.12,58.12,0,0,1,120,29.4c2.2,1.1,4-2.3,1.9-3.5A74.1,74.1,0,0,0,107,19.8a2,2,0,0,0-2.1,2.9c1.8,2.6,3.8,3.1,6.7,3.9A24.87,24.87,0,0,1,124,33.8c1.5,1.7,3.8-.4,2.9-2.5a7.71,7.71,0,0,0-4.9-4.6c-2-.7-2.9,1.9-1.9,3.3a6.72,6.72,0,0,0,3.5,2.5c2.1.7,3.2-2.5,1.4-3.7a17.87,17.87,0,0,0-12.2-3.3c-2,.1-2.7,3.6-.5,3.9a12.58,12.58,0,0,1,6,2.7c.3-1.2.6-2.5.9-3.8-2.2.2-5.6.8-7.2-.9-.8-.9-1.4-3.7-2.3-4.7-1.1-1.6-2.8-3.5-4.9-3.1a3.33,3.33,0,0,0-2.5,3.9c.4,2.8,3.1,4.3,5.3,4.9a2,2,0,0,0,2.3-2.5c-.5-3-6.4-12.1-9.2-6.3-1.7,3.6,3.5,13.8,7.8,10.6,3.9-3-.9-11.3-4.8-11.4-7.1-.3-1.4,9.5,1,11.5,1.1.9,2.9-.3,2.8-1.8-.3-3.8-1.3-8.5-5.6-8.9-3.4-.3-6.2,3.1-7.7,6a2,2,0,0,0,2.6,2.8,4,4,0,0,0,1.4-6.1,1.86,1.86,0,0,0-2.9-.4c-2.6,2.9-1.4,8.1,2.8,8.2,5.3.1,6.1-6.1,4.3-10.1-.7-1.7-2.9-1-3.4.4a10.41,10.41,0,0,0,1,9.1,1.87,1.87,0,0,0,3.5-1c-.2-4.8-1.7-10-6.9-9.6a2,2,0,0,0-1.8,2.6c.6,1.8,1.7,3.8,3.7,3.8a3.21,3.21,0,0,0,3-3.3c-.4-8.2-11.4,1.3-13.1,2.7-2,1.4-.2,4.8,1.9,3.5a4.41,4.41,0,0,0,2.2-2.6c.6-1.4-.4-3.6-2.1-2.9a14.29,14.29,0,0,0-7.5,5.8,2,2,0,0,0,1.7,3c2.4-.1,4.2-1.1,6.6-1.2,1.8,0,3.4.4,5.3,0a6.88,6.88,0,0,0,5.1-4.8c.7-2.2-2.3-3.3-3.4-1.6-1.7,2.7-.9,6.9,2.4,7.6,2.9.7,5.6-2.8,3.9-5.7-1.5-2.8-5.5-2-6.3.9-1.2,4.2,2.9,6,5.9,6.3,2.5.8,2.5-3.2.1-3.4Z" transform="translate(-64.58 -10.02)"/><path class="cls-1" d="M98.5,18.5c-1.4-.6-4.5-1.1-5.4-2.8a1.2,1.2,0,0,0-1-.7H90.9c.4.4.8.9,1.2,1.3,2.8-.6,3.5-.3,2.2.6.7-.3,1.5-.7,2.3-1,1.7-2.7,3.5-2.6,5.5.4.5.1,1,.1,1.5.2a5.7,5.7,0,0,1,.1-1.3c.5-.6,1-1.1,1.5-1.7a15,15,0,0,0-1.3-1.1c-.7.4-1.4.9-2.2,1.3v-.6a1.4,1.4,0,0,0,.7,2c.5.9,1,1.9,1.5,2.8.5.1,1,.1,1.5.2-.3-.2-.6-.6-.9-.8a18.94,18.94,0,0,0,2.1.9c0-.7-.1-1.2-.1-1.9a12.31,12.31,0,0,0,2,.2c-.1-.4-.3-.9-.4-1.3-.6.3-1.2.8-1.9,1.1,1.9,1,.5,4.9,3.4,4.5,1.8-.2,2.3-2.5,1.2-3.9-1.4-2-3.7-.9-5.4-.1-3.4,1.4-6.2,2.7-9.9,2.7a27.76,27.76,0,0,1-5.7-.7c-2.9-.6-.3-.8.3.8.2-.7.5-1.3.7-2-.2-.1-.4-.1-.5-.2-.2.7-.5,1.3-.7,2l2.1.6a17.42,17.42,0,0,0,.5-2.2c-.8-.1-1.5-.3-2.4-.4-.2.8-.4,1.7-.6,2.5a15,15,0,0,1,4.2.9c1.5.4,2.2-2.1.6-2.6a17.09,17.09,0,0,0-5-1c-1.2-.1-1.7,1.9-.6,2.5a5.47,5.47,0,0,0,4.3.8,1.38,1.38,0,0,0,.5-2.2A4.52,4.52,0,0,0,88.7,17c-.7.1-1.1,1.3-.7,2,.9,1.4,1.8,1.9,3.4,1.4.8-.2,1-1.2.7-2-2.7-6.9-8.8.1-5.5,2.7,1.4,1,4.3.9,6,1.1a20.8,20.8,0,0,0,8.6-.6c1-.3,2.1-.9,3.1-1.2,1.9-.8,5.1-.6,4.9-3a3.52,3.52,0,0,0-2.2-3,1.3,1.3,0,0,0-1.9,1.1,3.7,3.7,0,0,0,.7,2.7,1.17,1.17,0,0,0,2,.2l.3-.3a1.52,1.52,0,0,0,.3-1.3,4.17,4.17,0,0,1-.2-.6,1.39,1.39,0,0,0-1.2-1c-2.6-.2-3.2,4-.8,4.8a1.31,1.31,0,0,0,1.2-.3c2.9-3-3.9-6.8-3.8-1.3a1.21,1.21,0,0,0,2.1.9c1.4-1.3,1-4.1-1.2-4-2.6.1-2.7,3.2-1.3,4.8a1.37,1.37,0,0,0,1.5.2c3.7-1.8.3-6.7-2.2-7.7.2.7.5,1.3.7,2,.1-.1.2-.2.2-.3a1.48,1.48,0,0,0,0-1.3.52.52,0,0,1-.2-.4,1.28,1.28,0,0,0-2.2,1.3,3.2,3.2,0,0,0,2.8,2.3,1.33,1.33,0,0,0,1.5-1.7c-1.7-4.8-7.2.7-4.2,3.9a1.37,1.37,0,0,0,1.5.2c1.7-.9,2.4-4.3.3-5.3s-4.4,2.6-3.3,4.6,3.7.4,3.6-1.8c-.2-2.9-3.7-3.8-5.6-2.1-1.7,1.4-1.4,4.8,1,4.9s3.4-3.1,1.5-4.7c-2.1-1.8-4.9.3-4.8,3,.2,3.5,3.8,3.5,5.5,1.3,1.5-2,2.1-7.8-1.2-8-2.5-.1-7.2,3.8-6,6.7.6,1.3,2.7.4,2.3-1-.9-3-5-3.1-3.8.3,1.1,3.8,6.5,1.1,4.6-2.2a1.45,1.45,0,0,0-1-.7c-6.3.6-2.3,8.4.4,4.6,3.8-5.5-6.6-8.5-7.2-1.9a1.24,1.24,0,0,0,1.2,1.3c.6,0,1.5.9,2.1,1.2a22.05,22.05,0,0,0,5,2.1c2.1.8,2.8-1.8,1.3-2.4Z" transform="translate(-64.58 -10.02)"/><path class="cls-1" d="M89.2,17.6c-.3-.1-.6-.1-.8-.3h0c0,.1.1.1,0,.2v-.2c0,.1-.1.2-.2.3s-.4,0-.1.1a2.25,2.25,0,0,0,1.4.1c.6-.1,1-1,.8-1.7a1.18,1.18,0,0,0-1.5-.9c.4-.1.1-.1-.1-.1a1.27,1.27,0,0,0-.6-.1,2,2,0,0,0-1.1.2,2.39,2.39,0,0,0-1,1.9c0,1.7,1.3,2.6,2.7,3,1.3.7,2.1-2,.5-2.5Z" transform="translate(-64.58 -10.02)"/><path d="M65.8,50.8c2.4-18.5,19.3-31.9,36.5-31.1a.65.65,0,0,0,0-1.3c-8.8-.4-19.2,3.8-26,9.6A35.61,35.61,0,0,0,64.6,50.4c-.2,1,1.1,1.3,1.2.4Z" transform="translate(-64.58 -10.02)"/><path d="M65.8,51.7c3.2-1.3,6.4-1.2,9.8-1.9,2.4-.4,4.4-1.8,6.8-2.3,5.3-1.4,11.2-.2,16.3.3,2.8.2,5.2-1.7,7.8-1.8s4.8,1.2,7.2,1c3.8-.3,7-.7,10.8,0,3.5.6,7,1.2,10.4,1.8.8.1,1.1-1.1.3-1.3-5.9-1-12.1-2.8-18.1-2.5a83.46,83.46,0,0,1-10-.2c-3.4-.2-6.2,1.9-9.8,1.3a45.57,45.57,0,0,0-13.8-.4c-3.4.4-6.4,2.5-9.8,3-3,.4-5.6.4-8.5,1.7-.6.4-.3,1.7.6,1.3Z" transform="translate(-64.58 -10.02)"/><path d="M135.8,48.1c-2.4-17.9-19.3-30.4-35.7-29.6a.65.65,0,0,0,0,1.3c15.9-.8,32.2,11.3,34.6,28.6-.1.9,1.2.6,1.1-.3Z" transform="translate(-64.58 -10.02)"/><path d="M88.3,20.8a2.84,2.84,0,0,1-1.7-.7,1,1,0,0,1-.1-1.4c.6-.6-.3-1.6-.8-.9a2.4,2.4,0,0,0-.3,2.8A3.65,3.65,0,0,0,88,22.2c.7,0,1-1.2.3-1.4Z" transform="translate(-64.58 -10.02)"/><path d="M86.6,18c-.4-1.7,1.7-2.2,2.8-2.2.8-.1.8-1.4,0-1.3a5.2,5.2,0,0,0-3.1,1,3.14,3.14,0,0,0-.9,2.9c.2.7,1.4.4,1.2-.4Z" transform="translate(-64.58 -10.02)"/><path d="M89.8,15.5a4.45,4.45,0,0,1,5.3-2c.7.3,1-1,.3-1.3-2.6-1-5.1.4-6.6,2.6a.61.61,0,1,0,1,.7Z" transform="translate(-64.58 -10.02)"/><path d="M95.6,13.6c1-1.3,3.7-3.2,5.2-1.7.5.6,1.4-.3.8-.9-2.1-2.2-5.5-.3-6.9,1.7-.4.6.4,1.6.9.9Z" transform="translate(-64.58 -10.02)"/><path d="M101.8,12.7c.7-1.4,3.2.1,3.5,1.1a.62.62,0,0,0,1.2-.3c-.7-2.1-4.5-4.1-5.8-1.4-.3.8.7,1.4,1.1.6Z" transform="translate(-64.58 -10.02)"/><path d="M106.3,15a1.87,1.87,0,0,1,2.7,1.2c.2.8,1.4.4,1.2-.3a3.11,3.11,0,0,0-4.5-2c-.7.3-.1,1.5.6,1.1Z" transform="translate(-64.58 -10.02)"/><path d="M109.5,17.2a1.35,1.35,0,0,1,1.1,1.8c-.3.8.9,1.1,1.2.3a2.59,2.59,0,0,0-2.3-3.5c-.8.1-.8,1.4,0,1.4Z" transform="translate(-64.58 -10.02)"/><path d="M110.3,19.7v.2a.6.6,0,1,0,1.2,0v-.2a.6.6,0,1,0-1.2,0Z" transform="translate(-64.58 -10.02)"/><path class="cls-3" d="M72.8,44.3c4-4.6,6.9-10.2,10-15.5.4-.8-.6-1.4-1-.7-3.1,5.1-5.9,10.8-9.8,15.3-.7.5.2,1.5.8.9Z" transform="translate(-64.58 -10.02)"/><path class="cls-3" d="M80.5,42.8c3.9-5.7,7.6-11.4,11.3-17.3.4-.7-.6-1.3-1-.7-3.7,5.9-7.4,11.7-11.4,17.3-.4.8.6,1.5,1.1.7Z" transform="translate(-64.58 -10.02)"/><path class="cls-3" d="M114.4,29.7a168.25,168.25,0,0,1,15,14.3c.5.6,1.4-.3.8-.9a183.86,183.86,0,0,0-15-14.3c-.5-.6-1.4.3-.8.9Z" transform="translate(-64.58 -10.02)"/><path class="cls-3" d="M107.9,29.2a34.69,34.69,0,0,0,13.8,13.6c.7.3,1.3-.8.6-1.1a32.87,32.87,0,0,1-13.4-13,.56.56,0,1,0-1,.5Z" transform="translate(-64.58 -10.02)"/><path class="cls-3" d="M90.2,18.4h0c.3-.9-.7-1.6-1.1-.8a1.49,1.49,0,0,0,.2,1.7c.6.7,1.5-.2.9-.9Z" transform="translate(-64.58 -10.02)"/><path class="cls-3" d="M93.8,15.9a2.83,2.83,0,0,0,3,.7c.7-.3.4-1.6-.3-1.3a1.73,1.73,0,0,1-1.8-.3c-.5-.7-1.5.3-.9.9Z" transform="translate(-64.58 -10.02)"/><path class="cls-3" d="M102.1,15.4a5.9,5.9,0,0,0,3.3,2.5c.8.1,1.1-1.1.3-1.3a3.93,3.93,0,0,1-2.6-1.8c-.4-.8-1.4-.2-1,.6Z" transform="translate(-64.58 -10.02)"/><path class="cls-1" d="M99.7,36.7" transform="translate(-64.58 -10.02)"/><path class="cls-1" d="M102.3,31.7" transform="translate(-64.58 -10.02)"/><path class="cls-1" d="M104.3,32" transform="translate(-64.58 -10.02)"/><path class="cls-1" d="M102,40.3a4.88,4.88,0,0,0,.7.3" transform="translate(-64.58 -10.02)"/><path class="cls-1" d="M104.4,39.4c-.2.2-.5.4-.7.6" transform="translate(-64.58 -10.02)"/></svg>