<svg id="Layer_1" data-name="Layer 1" xmlns="http://www.w3.org/2000/svg" viewBox="0 0 101.21 107.45"><defs><style>.cls-1{fill:#bed731;}.cls-2{fill:#a7be2b;}</style></defs><title>Croptop</title><path class="cls-1" d="M105.6,142.1c-2.2,1.7-4.4,3.3-6.6,5l3.6-8.7,3.5.9c.5,1.9,1,3.9,1.5,5.8.1-.3.1-.6.2-.8l-4.2,4.2a1.85,1.85,0,0,1,.7-.2l-4.6-.6c-.4-.3-.7-.7-1.1-1-.2-1.5-.4-3.1-.6-4.6.7-.6.6-.6-.2.1a3,3,0,0,1-2,1c1.4.6,2.8,1.2,4.2,1.7,1.6,2.5,1.5,3.8-.1,3.8-1.7-1-3.4-2-5.1-2.9.1.3.3.6.4.9-.2-1.5-.4-3.1-.6-4.6.3-.8-.1-.7-1.1.5a6.5,6.5,0,0,0-5.3,4.7c-.6-1.4-1.2-2.8-1.7-4.2.9-1.4.7-1.4-.5,0a6.53,6.53,0,0,0-2.6,5.9l-4.2-4.2c-.9-2.4.2-.6-1.3.3-1,.5-3.2.2-4.5.8-3,1.3-5.9,3.7-8.5,5.6-5.1,3.7-7.2,9.8-3.8,15.6,1,1.6,3.1,3.2,5.1,2.9,4.5-.5,5.5-3.1,8.9-5.3,1.2-.7,12-2.3,12.1-1.7,1.4-2.4,2.8-4.9,4.2-7.3a3.65,3.65,0,0,1-2.9,0c.6,1.4,1.2,2.8,1.7,4.2V159c-1,1.7-2,3.4-2.9,5.1,3-1.4,8.1-1.4,11.4-2,4-.7,7.9-1.5,11.9-2.2,5.7-1.1,5.7-10.4,0-11.5-10-1.9-21-.6-31.2-.5-5.1,0-10.2-.1-15.3.1-5.3.3-6.8,2.2-9.3,6.5l3.6-2.7c-.4.1-.7.3-1.1.4,2.4,1.4,4.9,2.8,7.3,4.2-1.3-3.8,1-9.7,1.7-13.6.7-4.2.9-8.3,1.3-12.5.4-3.8,2-8.1,5.2-10.6s7.2.3,10.8,1.4c8.1,2.4,16.8,3.7,25.2,2.7,3.7-.4,7.5-1,10.8-2.7a14.67,14.67,0,0,0,3.7-2.4c1.5-1.1,1.4-1.3-.3-.5l3.2.9c4.9,1.4,5.6,1.4,5.4,6.6-.2,4.4-.3,8.8-.1,13.2.1,1.2.6,4.4.1,5.1-.7.9-4.4,1.3-5.4,1.6-4.2,1.2-8.4,2.6-12.6,3.6-4.5,1.1-8.4,1.3-12.5-1.1-3.3-1.9-6.1-4.3-9.6-5.8a35.47,35.47,0,0,0-11.7-2.5c-2.4-.2-4.7-.1-7.1-.2-1.2,0-2.4,0-3.5-.1-1.7-.3-1.7,0,0,.8.2,1.5.4,3.1.6,4.6.4-2.9,4-6.2,5.5-8.7s2.4-7.1,4.4-9c1.4-1.4,6.6.2,9.1.6a94.07,94.07,0,0,0,10.5,1.3c7.9.4,15.9.1,23.8,0,6,0,14.8-1.5,12.1-9.9-1.7-5.3-10.1-6-11.5,0s-1,12.4-2.1,18.5c-.2,1.2-.9,5.6-2.2,6.1-1.7.7-6.8-2.3-8.4-3-6-2.4-11.9-2-18.2-2.5a40.57,40.57,0,0,1-9.1-1.7,29.56,29.56,0,0,1-4.2-1.4c-.6-.3-2.2-2-1.9-1-.2,1.5-.4,3.1-.6,4.6,5.5-7.5,16.4-4.8,23.8-3.3a60.62,60.62,0,0,0,12,1.5c3.6-.1,9.1-.7,10.8,1.6v-6c-3.9,6.7-11.8-.8-16.5-2.3-6.4-2-13.2-.8-19.7-2.5-3.1-.8-5.6-1.6-8.3.8-2.4,2.1-2.9,5.3-2,8.3,1.9,6.7,8.4,10,14.8,11.1,7.3,1.2,14.5,2,21.6,4.1,3.5,1,6.6,1.9,8.9,4.8s4.3,6.4,6.3,9.5c3.4,5.1,7.3,9.1,13.8,6.1s7.7-10.2,5.1-16.4c-1.3-3-5.6-3.6-8.1-2.1-3.1,1.8-3.4,5.2-2.1,8.1l-.5-.5c1.4.6,2.8,1.2,4.2,1.7-3.6-2.8-6-9.2-8.8-13-3.1-4.2-6.9-6.6-11.7-8.4a92.59,92.59,0,0,0-16.5-4.1c-2.3-.4-15.6-.8-15.4-4.2-.6,1.4-1.2,2.8-1.7,4.2a4.62,4.62,0,0,1,.7-.7l-5.8,1.5a105.93,105.93,0,0,0,13.9,2.2,31.25,31.25,0,0,1,14.3,4.2c8.4,4.3,18.8,2.3,23.9-6.3a5.87,5.87,0,0,0,0-6c-4.7-6.4-12-8.1-19.4-7.6-8.3.5-16.1-2.8-24.3-3.1-7.5-.3-13.8,2.1-19.6,6.8-2.8,2.3-5.3,4.8-4.5,8.7.6,3.2,3.5,5.8,6.1,7.4,6.2,3.8,14.3,5,21.4,5.4,4,.2,8-.1,11.8,1.2,3.6,1.1,6.9,3.1,10.7,3.9,19,3.8,16.4-21.7,19-32.9H123.7c.1.3.2.6.3,1,.2-1.5.4-3.1.6-4.6l-.6.9,3.6-2.7c-2.4.9-5.9.3-8.5.3h-10a131.07,131.07,0,0,1-20.7-1.5c-4.7-.8-10.5-2.5-14.8.4-4.5,3.1-5.7,8.8-8.2,13.3-2.4,4.2-7.5,8.7-7.4,13.9.1,6.1,6.1,7.8,11,8.1,5.7.3,12-.6,17.5,1.7s9.2,6.7,15,8.2c5.6,1.4,11.3.4,16.8-1.1,6.1-1.7,13.2-2.9,18.9-5.7,4.9-2.4,6.3-6.6,6.1-11.8-.2-6.4-.1-12.8-.1-19.2,0-4.8-1.2-9.5-5.2-12.4-3.6-2.6-11.2-5.2-15.8-4.9-2.8.2-4.5,1.5-6.6,3.1a13.83,13.83,0,0,1-6.9,2.6,52,52,0,0,1-19.6-1.5C83,109,77,105.3,70.5,107.4c-5.5,1.8-10,7.1-12.4,12.3-2.9,6.2-2.5,12.6-3.5,19.2s-4,14.4-1.8,20.9c1,2.9,4.1,5.3,7.3,4.2,2-.7,3.4-1.3,4.6-3.1a11.88,11.88,0,0,0,1.3-2.5,22.63,22.63,0,0,1-1.3,2c.1.5,13.1-.1,14.4-.1,4.5,0,8.9-.1,13.4-.1,4.7,0,9.9-.7,14.6.2V148.9c-4.6.9-9.2,1.7-13.8,2.6-4.1.8-8.6,1.1-12.4,2.9a5.64,5.64,0,0,0-2.9,5.1c.2,8.2,9.8,9.8,16.2,8.2,3.3-.8,4.8-4.2,4.2-7.3-1.5-7.6-10.1-8.8-16.5-8.4a36.41,36.41,0,0,0-10.3,1.7,20.17,20.17,0,0,0-4.1,2.2c-.8.6-4.8,3.1-1.6,2.7,1.7,1,3.4,2,5.1,2.9-.2-.8-.2-.7.1.3l2.7-1.8a21.6,21.6,0,0,1,4-2.7,20.22,20.22,0,0,0,4-.6,12.48,12.48,0,0,0,3.8-2.3c4.8-4.2,8.8-13.1.7-16.4-6.5-2.6-12.5,3.6-11.3,10.1,1.3,7,9.7,9.4,15.5,6.5,5.5-2.8,11-10.1,5.6-15.7-4.9-5.2-12.7-.9-13.7,5.3-2.8,17.5,29.9,11.3,22.6-4a5.56,5.56,0,0,0-5.1-2.9c-5.2.7-10.5,3.7-11.1,9.5a8.07,8.07,0,0,0,9.3,8.8c4.6-.6,10.5-5.1,11.3-9.8.9-5.2-3.9-9.9-9.1-8.2a6.12,6.12,0,0,0-4.2,4.2c-1.2,5.9,3.5,10.7,9.5,8.8,4-1.3,5.2-5.2,3.6-8.7-2.1-4.7-8.9-5.4-12.4-1.9-4.1,4.2-1.9,10.5,2.7,13.2,6.7,3,12.7-7.2,6.1-11.1Z" transform="translate(-49.6 -104.05)"/><path class="cls-1" d="M146.6,153.6a16.68,16.68,0,0,1-1.2-6.2c-3.9.5-7.8,1.1-11.7,1.6a59.92,59.92,0,0,1,.4,9.5c-.1,5.9,8.2,8.2,11.1,3,2.6-4.8,2.4-9.5,1.8-14.8-.7-6.1-1.5-12.2-2.2-18.2-.5-4.5-4.6-7.4-9-5.1s-8.6,4.8-11.4,8.9c-3,4.5-3.8,9.9-5.5,14.9-3.2,9.1-11.5,21.9-6.3,31.5,2.1,3.8,8.2,3.9,10.3,0a145.24,145.24,0,0,0,6.4-13.9c-3.9-.5-7.8-1.1-11.7-1.6-.6,13.4-6.8,27.2-3.3,40.5,1.3,5,8.3,5.7,10.9,1.4,2-3.3,1.5-6,.8-9.5-.7-3.3-.4-6.8-1.3-10.1a21.9,21.9,0,0,0-5.2-8.8,32.6,32.6,0,0,0-3.3-3.1c-.9-.7-3.2-2-3.6-3-1.1-2.3.1-5.1-1.7-7.6s-4.6-3.5-7.7-3.6c-8.5-.2-17.3,1.2-25.7,1.7-3,.2-6.3,2.6-6,6,.6,6.2,1.2,12.5,1.8,18.7.5,5,2.3,11.7.8,16.6-1.4,4.7,3.1,8.1,7.3,7.3,9.9-1.7,29.3-1.7,26.3-16.9-1.1-5.4-5.3-10.3-9.5-13.7a13.76,13.76,0,0,0-3.6-2.3,6.53,6.53,0,0,0-2-.5q-2.7-.6,1.8,1.8c.9-.6-2.7-5.3-3.2-5.7-4.8-4-10.9-.1-9.9,5.8s.3,18.3,7.1,21.1c3.7,1.5,5.9-.8,9.3-1.1,3.8-.4,7.8,1.6,10.9,3.6,5.5,3.6,10.3-3.2,8.1-8.1a76.66,76.66,0,0,0-6.4-12q-1.8-2.7-3.9-5.4c-.7-.9-3.3-5.1-4.4-5.2q-3.75,7.2,0,4.5c.9-.5,1.7-.9,2.6-1.3,1.7-.9,3.6-1.6,5.3-2.5a25.81,25.81,0,0,0,8.6-7.5l-11.1-3c.7,7.4,2.7,15.8-.3,22.9-2.5,6.1-7.3,12.3-14.4,12.8a6,6,0,0,0-1.6,11.7c4.3,1.5,8,.2,12.3-.3s9,.1,13.4.6c3.2.4,5.9-3,6-6,0-3.6-2.8-5.5-6-6a63.56,63.56,0,0,0-11.5-.8c-3.3.2-7.9,2-11,.9-.5,3.9-1.1,7.8-1.6,11.7,10.3-.8,18.3-6.9,23.3-15.9,5.7-10.3,4.4-20.4,3.3-31.8-.6-6.1-7.5-7.8-11.1-3-4.5,6-19,5.9-17.5,16,.7,4.5,5.4,7.9,7.9,11.4a74.48,74.48,0,0,1,7.8,14.1l8.1-8.1a32,32,0,0,0-12.3-4.8,23.39,23.39,0,0,0-5.9-.3c-1.7.1-4.1,1.7-5.7,1.5,1.4.6,2.8,1.2,4.2,1.7-.6-.5-.8-5.7-.9-6.5L92.7,175c-3.3,1.9-6.6,3.9-9.9,5.8-.6-.5.7,2.2,1,2.8a8.85,8.85,0,0,0,1.8,2.5c1.7,1.5,3.1,1.2,4.9,2a10.37,10.37,0,0,1,3,2.9c.6.7,3,3.1,2.6,4.2.1-.1-3.5.4-4,.5l-13.8,2.4,7.3,7.3c1.8-5.7.4-12-.2-17.8-.7-6.9-1.4-13.8-2-20.7l-6,6c6.4-.4,12.9-.9,19.3-1.3a17.11,17.11,0,0,0,3.9-.3q3.3.45.9-1.2c-.8-1.3-1.2-1.5-1.1-.4-1.1,1.3,1,5.6,1.6,6.6,2.5,4,7.2,5.9,9.9,9.8,1.7,2.5,1.4,4.9,1.7,7.8.1,1.1.3,2.3.5,3.4a14.62,14.62,0,0,1,.5,2c.2,1,.3.9.2-.3,3.6.5,7.3.9,10.9,1.4-1.6-6.2.2-12.3,1.4-18.4a132,132,0,0,0,2.4-18.9c.3-7.3-9.3-7.3-11.7-1.6-1.6,3.8-3.4,7.4-5.2,11h10.3c-1.1-2,2.1-8.4,2.9-10.6,1.5-3.9,3.2-7.8,4.6-11.7,1.2-3.4,1.7-7.7,3.5-10.8,1.8-2.9,5-4.4,8-5.9l-9-5.1c.6,4.9,1.2,9.7,1.8,14.6.4,3.6,2.1,9.1.3,12.4l11.1,3a77.51,77.51,0,0,0-.9-12.7c-.9-6.8-11.7-4.9-11.7,1.6a27.73,27.73,0,0,0,1.6,9.4c2.7,7.2,14.2,4.1,11.5-3.1Z" transform="translate(-49.6 -104.05)"/><path class="cls-1" d="M75.7,168.1a17.14,17.14,0,0,0-2.2-2.5,1.48,1.48,0,0,0-2.3,1.8c.3.6.6,1.1.9,1.7.6-.7,1.1-1.5,1.7-2.2-.3-.2-.7-.4-1-.6a1.47,1.47,0,0,0-2.3,1.8,12.71,12.71,0,0,1,1.4,6.6c1-.1,1.9-.3,2.9-.4,0-.8-.1-1.7-.1-2.5h-3a201,201,0,0,0,2.2,25.8c1-.3,1.9-.5,2.9-.8-.4-2.5-.8-5.1-1.2-7.6-.3-1.6-3.1-1.3-2.9.4a165.91,165.91,0,0,1,1.1,19.9,1.44,1.44,0,0,0,1.9,1.4c8.2-1.3,16.4-1.3,24.7-1.5,4.1-.1,8.2-.2,12.3-.2a46.43,46.43,0,0,1,5.3.1c2,.1,3.9.9,5.9.8a1.39,1.39,0,0,0,1.4-1.1,22.66,22.66,0,0,0-.2-5.2c-1,.1-1.9.3-2.9.4a1.7,1.7,0,0,1-.1.7c1,.3,1.9.5,2.9.8.9-4,.5-8.1.8-12.2.1-1.7-.2-3.4-.1-5.2.1-3.4,1.4-6.5,2.7-9.6-.9-.3-1.8-.5-2.8-.8.1,6.1-2.9,11.6-3.5,17.7-.2,1.9,2.8,1.9,3,0,.6-6.1,3.6-11.5,3.5-17.7,0-1.4-2.2-2.2-2.8-.8-1.8,4.1-3.3,8.1-3.1,12.6s.4,10.6-.6,15a1.51,1.51,0,0,0,2.9.8,3.06,3.06,0,0,0,.1-2.3c-.4-1.6-3.1-1.3-2.9.4a21.72,21.72,0,0,1,.3,4.4,17.09,17.09,0,0,0,1.4-1.1c-1.8,0-4.1-.7-5.9-.8-2.4-.1-4.8-.1-7.1-.1-4.1,0-8.1.1-12.2.2-8,.2-15.9.3-23.8,1.5a23.07,23.07,0,0,0,1.9,1.4,188.09,188.09,0,0,0-1.1-19.9c-1,.1-1.9.3-2.9.4.4,2.5.8,5.1,1.2,7.6.3,1.9,3.2,1.1,2.9-.8a190.16,190.16,0,0,1-2.1-25c0-1.9-2.9-1.9-3,0a12.22,12.22,0,0,0,.2,3.3c.3,1.7,2.8,1.2,2.9-.4a14.41,14.41,0,0,0-1.8-8.1c-.8.6-1.6,1.2-2.3,1.8a6.78,6.78,0,0,0,2.3,1.4c1.3.5,2.2-1.2,1.7-2.2-.3-.6-.6-1.1-.9-1.7-.8.6-1.6,1.2-2.3,1.8a17.87,17.87,0,0,1,2.2,2.5c1,1.9,3.1-.2,1.9-1.7Z" transform="translate(-49.6 -104.05)"/><path class="cls-1" d="M67.9,172.8c.6-.8,1.2-1.7,1.8-2.5-.9-.4-1.8-.8-2.7-1.1a8.8,8.8,0,0,0-.5,1.5,1.5,1.5,0,0,0,2.6,1.5,6,6,0,0,0,1-2.3c.4-1.6-1.9-2.7-2.7-1.1a24.5,24.5,0,0,0-2.3,6.4c-.3,1.5,2,2.8,2.7,1.1a6.12,6.12,0,0,0,.5-1.2c-.9-.4-1.8-.8-2.7-1.1-.4,1.4.5.4-.5,0-1.2-.5-2.2-1.3-3.4-1.8-2-.8-4.2-.9-6.1-1.7-1.3-.5-1.8-.7-2-2.5a16.92,16.92,0,0,1,.7-3.8,73,73,0,0,0,.6-9.4,1.48,1.48,0,0,0-2.9-.4c-.7,3.1-2.6,8.7-.7,11.7a4.18,4.18,0,0,0,2.3,1.8c.4.2,1.2-.2,1.5,0,1.3.8,3.1,3.8,3.6,5.4.8-.5,1.7-1,2.5-1.4-.1.4-.2.7-.3,1.1.7-.3,1.5-.6,2.2-.9-2.2-3-3-3.6-2.3-1.8a13.76,13.76,0,0,1,2.3,3.6c.8-.6,1.6-1.2,2.3-1.8A13.85,13.85,0,0,1,62,167c-.8.5-1.7,1-2.5,1.4a16.6,16.6,0,0,1,3.5,6.2c.5,1.5,3.1,1.4,2.9-.4a17.9,17.9,0,0,1-.2-4,17.09,17.09,0,0,0-1.4,1.1v.9c1-.1,1.9-.3,2.9-.4-.3-1.6-.5-1.6-1.7-2.8-2.3-2.1-4.3-3.6-6.1-6.2l-2,2a9.15,9.15,0,0,1,2.5,2.3c.5-.8,1-1.7,1.4-2.5a5.78,5.78,0,0,1-5.1-3.7c-.7-1.6-3.1-.4-2.7,1.1a2.59,2.59,0,0,0,1.3,1.9A1.47,1.47,0,0,0,57,163a23.55,23.55,0,0,0-1.5-14.8,1.48,1.48,0,0,0-2.3-.3l1.8-1.5c.2-1.5.4-2.9.6-4.4s.6-3.1.8-4.6c.5-2.9,1.1-5.7,1.6-8.6.3-1.5-2-2.8-2.7-1.1a24.65,24.65,0,0,0-1.8,5.2c1,.3,1.9.5,2.9.8.7-3.4,1.5-6.9,2.3-10.3a1.47,1.47,0,0,0-2.7-1.1,13.66,13.66,0,0,0-2.5,7.8c-.1,1.6,2.7,2.1,2.9.4a47.28,47.28,0,0,1,3.3-12.1c.7-1.7-1.8-2.4-2.7-1.1a12,12,0,0,0-1.8,3.8c-.6,1.9,2.2,2.5,2.9.8a22.59,22.59,0,0,0,1.1-3.7c.3-1.5-1.9-2.8-2.7-1.1-1.4,3-1.3,5.7-.7,9,.3,1.9,3.2,1.1,2.9-.8a10.27,10.27,0,0,1,.4-6.7c-.9-.4-1.8-.8-2.7-1.1a17.32,17.32,0,0,1-1.1,3.7c1,.3,1.9.5,2.9.8a8.14,8.14,0,0,1,1.5-3.1c-.9-.4-1.8-.8-2.7-1.1a50.43,50.43,0,0,0-3.3,12.1c1,.1,1.9.3,2.9.4a11.86,11.86,0,0,1,2.1-6.3c-.9-.4-1.8-.8-2.7-1.1-.8,3.4-1.6,6.9-2.3,10.3-.4,1.9,2.4,2.7,2.9.8a17,17,0,0,1,1.5-4.5c-.9-.4-1.8-.8-2.7-1.1-.8,4.1-1.6,8.1-2.3,12.2-.5,2.9-1.5,6.4-.8,9.3a1.44,1.44,0,0,0,1,1c.1,0,.3.1.4.1a1.42,1.42,0,0,0,1.4-.4c.1-.1.2-.2.2-.3L53,150a20.65,20.65,0,0,1,1.2,12.5c.7-.3,1.5-.6,2.2-.9a.1.1,0,0,1,.1-.1c-.9.4-1.8.8-2.7,1.1,1.4,3.1,3.6,4.5,6.9,5.1a1.49,1.49,0,0,0,1.4-2.5,16.7,16.7,0,0,0-3.1-2.8,1.45,1.45,0,0,0-2,2,29.49,29.49,0,0,0,3.1,3.9c.9.9,4.1,3,4.3,4.3.3,1.6,3.1,1.3,2.9-.4s-.8-4-3-3.8a1.39,1.39,0,0,0-1.4,1.1c-.4,1.6,0,3.2.1,4.8,1-.1,1.9-.3,2.9-.4a21.59,21.59,0,0,0-4.3-7.5c-.9-1.1-3,.1-2.5,1.4a18.26,18.26,0,0,0,4.2,6.4,1.47,1.47,0,0,0,2.3-1.8c-.9-1.9-4.9-8.5-7.9-5.6-2.6,2.5,2.1,6.7,3.8,7.9a1.55,1.55,0,0,0,2.2-.9c.4-2.3-1.4-5.7-4.2-5.4-3.4.4-2.3,4.2-.5,5.6,1.1.8,3,.1,2.5-1.4-.7-2.2-2.1-5.2-4.7-5.5-1.6-.2-3.5.9-3.4,2.7.3,3.6,5.7,2.4,4.3-1.6-1.8-5.2-7.9-1.3-5.7,2.7,2.4,4.2,7.3-2.2,5.3-5.2s-7,1.4-4.7,4.1c3.2,3.8,9.3-3.6,5.8-6.7-3.3-2.9-7.8,3.7-4.1,6.2,3.9,2.5,7.7-5,4-6.9-4.6-2.4-8,8-2.3,8a2.8,2.8,0,0,0,2.5-3.9c-.5-1-1.1-.8-2-1.4-1.5-.9.7,1.6-2-1.3-2.1-2.3-.6-5.5.1-8.3-1-.1-1.9-.3-2.9-.4,0,4.8-1.3,9.4-1.6,14.2-.1,1.7-.1,2.4,1.5,3.5,2.7,1.7,6.7,1.4,9.7,2.9,1.9.9,3.1,2.3,5.3,2a1.44,1.44,0,0,0,1-1c.2-.5.4-1,.6-1.6.5-1.6-2-2.7-2.7-1.1a6.12,6.12,0,0,0-.5,1.2c.9.4,1.8.8,2.7,1.1a20.41,20.41,0,0,1,2-5.7c-.9-.4-1.8-.8-2.7-1.1a10.09,10.09,0,0,1-.7,1.5c.9.5,1.7,1,2.6,1.5a9.75,9.75,0,0,0,.8-2.2c.5-1.7-1.8-2.4-2.7-1.1-.6.8-1.2,1.7-1.8,2.5-1,1.1,1.6,2.6,2.7,1.1Z" transform="translate(-49.6 -104.05)"/><path class="cls-1" d="M128.8,169.1c1.9,0,3.9,5.9,4.4,7.1.8-.5,1.7-1,2.5-1.4-.2-.3-.3-.6-.5-.9-.9.3-1.8.5-2.8.8.1.4.1.8.2,1.2a1.44,1.44,0,0,0,1.9,1.4c4.6-1.6,11.2-2.8,15.1-5.7a1.62,1.62,0,0,0,.7-1.7c-.3-2.1-.8-3.9-.5-6.1h-3c-.2,4.5-.9,5.2-4.9,6.2-.3.1-5.2,1.6-5.4,1.4.2.3,1.5-4.7,1.7-5.3.4-2.1.7-4.3,1.1-6.5.3-1.9.2-4.8,1.1-6.5.2-2.9.9-2.5,2.2,1.3a13.32,13.32,0,0,1,.5,1.9,10.62,10.62,0,0,0,3.7,5.8,1.47,1.47,0,0,0,2.2-1.3c.3-7.5-.3-17.2-3.5-24.1-.9-2.1-2.1-3.9-2.7-6.1-.1-.3-.8-8.5-.5-3.7.2,4.2.3,8.4,1.4,12.5a1.48,1.48,0,0,0,2.9-.4,30.52,30.52,0,0,0-.5-5.2c-.3-1.6-3.1-1.3-2.9.4a34,34,0,0,0,1.8,8.4c.6,1.8,3.5,1,2.9-.8-1.4-4.2-.7-9-1.4-13.4-.6-3.9-1-8.3-3.1-11.7-.9.5-1.7,1-2.6,1.5a12.75,12.75,0,0,1,2.1,5.6c.3,1.9,3.2,1.1,2.9-.8a16.16,16.16,0,0,0-2.4-6.3c-1-1.6-3.6-.2-2.6,1.5,4.4,7.4,1.6,16.6,4.2,24.4,1-.3,1.9-.5,2.9-.8a33.4,33.4,0,0,1-1.7-7.6c-1,.1-1.9.3-2.9.4a12.93,12.93,0,0,1,.4,4.4c1-.1,1.9-.3,2.9-.4-1-3.9-1-7.7-1.3-11.7-.1-1.6.1-4.3-1-5.8-1.6-2-3.8-1.1-4.6,1-1.9,5.3.9,10.8,3,15.4,3.1,6.8,3.6,16,3.4,23.3.7-.4,1.5-.9,2.2-1.3-2.4-1.9-3.2-12.8-8.4-11.4-1.8.5-2,2.7-2.4,4.2-1,4.6-1.4,9.3-2.4,13.9-.8,3.6-3.1,8.4,2.2,8.1,2.5-.1,8.1-1.2,10.2-2.8s2.1-5.2,2.2-7.6c.1-2-2.7-1.8-3,0-.3,2.6.3,4.4.7,6.9.2-.6.5-1.1.7-1.7-3.7,2.8-10,3.8-14.4,5.4a23.07,23.07,0,0,0,1.9,1.4,5.1,5.1,0,0,0-.6-2.7c-.6-1.4-2.9-.7-2.8.8a3.25,3.25,0,0,0,1.4,3c1,.9,3.1,0,2.5-1.4-1.4-3.5-3-9.3-7.3-9.3-1.9-.2-1.9,2.8,0,2.8Z" transform="translate(-49.6 -104.05)"/><path class="cls-1" d="M59.6,117.5c.6.1,1.1.3,1.7.4l-1.8-1.8c-.1,0-.2,0-.2-.1a17.1,17.1,0,0,0,1.1,1.4v-.2c-.4-.7-.9-1.5-1.3-2.2-.3.1-.6.1-.9.2a25.12,25.12,0,0,0,.4,2.7c.7-.3,1.4-.7,2.1-1-.4-.9-.8-1.8-1.1-2.7-.4.2-.8.5-1.2.7.7.3,1.5.6,2.2.9,0,.1-.1.3-.1.4-.6-.7-1.1-1.5-1.7-2.2l-2.4,2.4,2,2c4.1-8.6,13.6-10.2,22.3-9.5a1.44,1.44,0,0,0,1.4-1.9c-1.2-3-4.1-2.5-6.9-2.2s-8.4.7-10.4,3.1c-5.3,6.2,8.9,13.2,12.1,15.3,3.5,2.2,6.5,5.1,10.8,4.6a54.18,54.18,0,0,0,14.7-4.4c2.8-1.2,8-2.8,8-6.7,0-3.1-2.9-4.6-5.4-5.4v2.9c6.4-1,12.5-2.2,17.6-6.4,1.3-1-.1-2.7-1.4-2.5a5.49,5.49,0,0,0-3.8,2.3c.8.6,1.6,1.2,2.3,1.8,2.2-2.9,7.3-1.6,10.3-.7a11.8,11.8,0,0,1,7.7,5.9c.9,1.6,2.3,6.2,5.1,5.2,2.1-.7,1.9-4,1.2-5.6-1.5-3.8-5.2-6.1-8.9-7.2-1.8-.6-2.6,2.3-.8,2.9,2,.6,7.3,3,7.2,5.8,0-1.3-2.1-4.2-2.9-5.1a13.45,13.45,0,0,0-5.9-4.1c-5.2-2-11.9-3.4-15.6,1.5-1,1.3,1.3,3.1,2.3,1.8.8-.5,1.7-1,2.5-1.5-.5-.8-1-1.7-1.4-2.5-4.7,3.8-10.5,4.8-16.3,5.6-1.6.2-1.3,2.5,0,2.9,2.6,2.7,2.6,4.4-.1,5.1l-4.5,2.1a51.73,51.73,0,0,1-5.1,1.8c-5.7,1.8-9.1,2-14.5-1.4-1.7-1.1-3.3-2.1-5-3.2-1.4-.9-5.7-2.8-6.4-4.5.2-1.7.3-3.3.5-5a29.92,29.92,0,0,1,3.2-.8c.9-.2,6.4-1.5,6.9-.4a23.07,23.07,0,0,0,1.4-1.9c-9.7-.8-20.2,1.4-24.8,11a1.48,1.48,0,0,0,2,2,7.43,7.43,0,0,0,3.5-3.5,1.53,1.53,0,0,0-1.7-2.2,2.38,2.38,0,0,0-2,3.2,1.52,1.52,0,0,0,2.2.9c.4-.2.8-.5,1.2-.7a1.47,1.47,0,0,0-1.1-2.7,4.86,4.86,0,0,0-2.8,1.3,1.48,1.48,0,0,0,.4,2.7c2,.5,3,0,4.2-1.5.7-.9-.3-2.2-1.3-2.2-2,0-3.2,1.1-3,3.2a1.5,1.5,0,0,0,1.1,1.4c2,.8,3.3-.1,3.9-2a1.46,1.46,0,0,0-1.8-1.8c-4.7.7-4.2,7-.1,5.3,1.6-.8.8-3.7-.9-3Z" transform="translate(-49.6 -104.05)"/><path class="cls-1" d="M64.5,112.1c.1-.4.4-.6.9-.7-.5-.8-1-1.7-1.4-2.5-.1.1-.1.1,0,.1s.7,0,.8.2.1.5.2.8a.76.76,0,0,1-.2.4c.1-.1.2-.1.3-.2s.5-.2.7-.3a19.45,19.45,0,0,0-2-.5.1.1,0,0,0,.1.1c-.1-.3-.1-.5-.2-.8.2-.3.5-.6.7-.9.4.9.8,1.8,1.1,2.7.1-.1.2-.2.3-.2h-.5l-.5-.5.1.1a1.39,1.39,0,0,0,2,.5,1.48,1.48,0,0,0,.5-2A2.25,2.25,0,0,0,64,108a1.53,1.53,0,0,0-.6,1.9,1.61,1.61,0,0,0,1.8.9c1.4-.3,1.7-1.7,1.3-2.9a1.46,1.46,0,0,0-2-.5,5.37,5.37,0,0,0-1.6,1,2.27,2.27,0,0,0-.4,2.6,2.39,2.39,0,0,0,3.9.2,1.51,1.51,0,0,0-1.4-2.5,3.93,3.93,0,0,0-3,2.7c-.9,1.8,1.9,2.6,2.5.7Z" transform="translate(-49.6 -104.05)"/><path class="cls-1" d="M122,106.2a.64.64,0,0,1,.5.5c-.2.4-.5.9-.7,1.3h.1c-.3.1-.5.1-.8.2h.1c-.3-.1-.5-.1-.8-.2l-.1-.1a4.35,4.35,0,0,1-.4-.7v-.8l.5-.5c.9.2,1.1.2.7,0a.1.1,0,0,1,.1.1.35.35,0,0,1,.1.2,1.22,1.22,0,0,1-.3.9c-.3.1-.5.1-.8.2a1.28,1.28,0,0,1-1-1c.1-.3.1-.5.2-.8l.1-.1c.4-.1.7-.3,1.1-.4h.2a4.35,4.35,0,0,0,.7.4l-.1-.1a1.48,1.48,0,0,0-2.1,2.1,1.75,1.75,0,0,0,2.5,0,2,2,0,0,0,.2-2.3,1.92,1.92,0,0,0-2.4-.7,2.14,2.14,0,0,0-1.1,1.9c0,1.5,1.8,2.9,3.2,2.2a1.84,1.84,0,0,0,1-2.4,1.75,1.75,0,0,0-2.5-.8,1.36,1.36,0,0,0-.7,1.3,2.48,2.48,0,0,0,2.5,2.5,1.45,1.45,0,1,0,0-2.9Z" transform="translate(-49.6 -104.05)"/><path class="cls-1" d="M124.1,208c.1-.1.1-.2,0,0a.52.52,0,0,1-.4.2,1.4,1.4,0,0,0,1-1.8,1.47,1.47,0,0,0-1.8-1,2.11,2.11,0,0,0-1.4,1.2,1.55,1.55,0,0,0,.5,2,1.68,1.68,0,0,0,2.1-.6Z" transform="translate(-49.6 -104.05)"/><path class="cls-1" d="M112.5,172.4c.2-.4.3-.8.5-1.2a11,11,0,0,0-1.8-.2c1.3,1.4.8,4.7.6,6.3s2.1,2,2.8.8c1.8-3.6,2.6,2.2,2.7,3.7.2,1.9.1,3.8.4,5.7.4,2.4,1,5,2.8,6.9,3.8,4.1,5-1,5.5-4.4-1-.1-1.9-.3-2.9-.4a38.66,38.66,0,0,1,.3,4.8,1.48,1.48,0,0,0,2.9.4,38.08,38.08,0,0,0,1.5-4.4c.5-1.8-2.3-2.6-2.9-.8a4.81,4.81,0,0,0-.4,2.9c.1,1.6,2.7,2.1,2.9.4.5-3.8.6-7.6.8-11.4.1-2,.2-4,.3-6.1v-3.1c1.7-2.7,2.5-2.1,2.5,1.7a1.5,1.5,0,0,0,3,0c.2-3.6-1.9-10.9-6.9-10.2-4.4.6-5.5,8.1-6.4,11.4-1.6,6-4.2,13.6-3,19.8.7,3.7,3.2,6.6,4.2,10.2.6,2.2.4,3.7,2.4,5.1,1.2.8,2.4-.5,2.2-1.7a13,13,0,0,1-.2-4.8c-1,.1-1.9.3-2.9.4,0,.7.1,1.3.1,2h3a97.59,97.59,0,0,1,.9-13.2c-1-.3-1.9-.5-2.9-.8-.2,1.2-.3,2.3-.5,3.5-.3,1.9,2.6,2.7,2.9.8.2-1.2.3-2.3.5-3.5.3-1.9-2.6-2.7-2.9-.8a81.28,81.28,0,0,0-1,13.9c0,1.9,2.8,1.9,3,0a6.66,6.66,0,0,0-.2-2.8c-.3-1.7-2.8-1.2-2.9.4a17.61,17.61,0,0,0,.3,5.6c.7-.6,1.5-1.1,2.2-1.7-1.1-.7-2-5.8-2.7-7.3-2.4-5.1-2.9-8.3-1.9-13.7.6-3.6,1.5-7.2,2.4-10.7.4-1.7.9-3.3,1.4-5,.3-3,2.1-3.6,5.2-1.8a7.09,7.09,0,0,1,.8,4.7h3c-.3-2.9-3.3-10.9-7.3-6.7-2,2.1-1.1,6.4-1.2,9-.2,5.3-.2,10.7-.9,15.9,1,.1,1.9.3,2.9.4l.3-2.1c-1-.3-1.9-.5-2.9-.8a38.08,38.08,0,0,1-1.5,4.4c1,.1,1.9.3,2.9.4,0-1.6-.2-3.2-.3-4.8s-2.6-2.2-2.9-.4c-.3,2.2-.5,4.5-1.9.6a26.72,26.72,0,0,1-.9-6.4c-.2-2.7-.2-5.6-1.4-8.1-2.2-4.7-5.1-2.2-7,1.4.9.3,1.8.5,2.8.8.3-2.7.5-6.2-1.5-8.4a1.51,1.51,0,0,0-1.8-.2c-1.5.7-1.8,2.3-2,3.8-.2,1.7,2.8,1.7,3-.2Z" transform="translate(-49.6 -104.05)"/><path class="cls-2" d="M63.4,160.1a18.39,18.39,0,0,0,16,10.3c5.8.1,11.6-2.8,13.5-8.5a.57.57,0,0,0-1.1-.3c-2,6.4-9.3,8.5-15.3,7.3a17.1,17.1,0,0,1-12-9.4c-.5-.6-1.5,0-1.1.6Z" transform="translate(-49.6 -104.05)"/><path d="M50.1,171.6c.2,1.8,3.5,1.9,4.8,2.3,4,1.2,7.9,2.7,11.8,4.3.7.3,1-.9.3-1.1q-3.9-1.65-7.8-3c-1-.4-7.9-2-7.9-2.4-.1-.9-1.3-.9-1.2-.1Z" transform="translate(-49.6 -104.05)"/><path d="M67.8,178.5c1.3-3.2,2.4-6.5,3.4-9.9a.57.57,0,0,0-1.1-.3c-1,3.3-2.2,6.6-3.4,9.9-.3.7.8,1,1.1.3Z" transform="translate(-49.6 -104.05)"/><path d="M50.8,171.7c.7-12.1,1.8-24.1,3.3-36.2.1-.8-1.1-.8-1.2,0-1.5,12-2.6,24.1-3.3,36.2a.6.6,0,1,0,1.2,0Z" transform="translate(-49.6 -104.05)"/><path d="M54,135.9c.7-7.7.2-16.7,5.1-23.1,5.5-7.1,13.9-7.6,22.2-7.5a.6.6,0,1,0,0-1.2c-8.4-.1-16.9.5-22.7,7.4-5.6,6.7-5,16.2-5.8,24.4a.6.6,0,1,0,1.2,0Z" transform="translate(-49.6 -104.05)"/><path d="M74.6,210.8c-.3-8.5-1-16.9-1.7-25.4-.3-4.5-.6-8.9-1-13.4-.1-1.6.1-2.8-1.3-3.7-.6-.4-1.2.6-.6,1,1.7,1.1,1.2,9.3,1.4,11.2.3,3.6.5,7.1.8,10.7.5,6.5,1,13,1.2,19.5a.6.6,0,1,0,1.2.1Z" transform="translate(-49.6 -104.05)"/><path d="M149.2,171.6c0,.3-7.1,2.1-7.9,2.4q-3.9,1.35-7.8,3c-.7.3-.4,1.4.3,1.1,3.9-1.6,7.8-3,11.8-4.3,1.4-.4,4.6-.5,4.8-2.3,0-.7-1.1-.7-1.2.1Z" transform="translate(-49.6 -104.05)"/><path d="M133.8,178.2c-1.3-3.2-2.4-6.5-3.4-9.9-.2-.7-1.4-.4-1.1.3,1,3.3,2.2,6.6,3.4,9.9.2.7,1.4.4,1.1-.3Z" transform="translate(-49.6 -104.05)"/><path d="M150.8,171.7c-.7-12.1-1.8-24.1-3.3-36.2-.1-.7-1.3-.8-1.2,0,1.5,12,2.6,24.1,3.3,36.2.1.8,1.3.8,1.2,0Z" transform="translate(-49.6 -104.05)"/><path d="M147.6,135.9c-.8-8.2-.2-17.7-5.8-24.4-5.7-6.9-14.3-7.5-22.7-7.4a.6.6,0,1,0,0,1.2c8.3-.1,16.7.4,22.2,7.5,4.9,6.4,4.4,15.4,5.1,23.1.1.8,1.3.8,1.2,0Z" transform="translate(-49.6 -104.05)"/><path d="M127.1,210.8c.2-6.5.7-13,1.2-19.5.2-3.2.5-6.5.7-9.7.2-2.1-.3-11,1.4-12.2.6-.4,0-1.5-.6-1-1.4.9-1.2,2.1-1.3,3.7-.3,4.5-.7,8.9-1,13.4-.6,8.4-1.4,16.9-1.7,25.4a.66.66,0,0,0,1.3-.1Z" transform="translate(-49.6 -104.05)"/><path d="M80.5,105.4c2.9,6.6,12.8,7,19,6.9,7.4-.2,16.1-.9,20.7-7.4.4-.6-.6-1.2-1-.6-4.3,6.2-12.8,6.7-19.7,6.9-5.6.1-15.4-.3-18-6.3-.3-.8-1.3-.2-1,.5Z" transform="translate(-49.6 -104.05)"/><path d="M73.9,211.5c3.8.1,7.5-1,11.3-.9,4.4.1,8.6.1,13.1-.2,9.1-.5,19-.8,28,.5.7.1,1.1-1,.3-1.1-8.7-1.2-17.9-.9-26.6-.6-4.4.1-8.7.5-13.1.3s-8.6.9-13,.8a.6.6,0,1,0,0,1.2Z" transform="translate(-49.6 -104.05)"/><path class="cls-2" d="M133.7,160.5a17.36,17.36,0,0,1-12,9.4c-6.1,1.2-13.3-.9-15.3-7.3-.2-.7-1.4-.4-1.1.3,1.8,5.8,7.7,8.6,13.5,8.5a18.33,18.33,0,0,0,16-10.3c.3-.6-.7-1.2-1.1-.6Z" transform="translate(-49.6 -104.05)"/></svg>