<svg id="Layer_1" data-name="Layer 1" xmlns="http://www.w3.org/2000/svg" viewBox="0 0 88.61 21.53"><defs><style>.cls-1{fill:#fff;}.cls-2{fill:#000038;}</style></defs><title>Everyday</title><path class="cls-1" d="M58.2,572.3l.6-.3c.2.7.4,1.5.6,2.2,1.4-.2,2.8-.5,4.2-.7l-.3-2.4c-.8.2-1.7.3-2.5.5l.3,2.4c3.8-1.2,8.5-.8,12.5-.9l-.3-2.4a10.46,10.46,0,0,0-1.7.4v2.4c3.3-.2,6.6-.5,9.9-.7-.2-.7-.4-1.5-.6-2.2-.4.2-.8.3-1.3.5l.3,2.4L90.1,572c1.5-.2.9-2.5-.6-2.3l-10.2,1.5c-1.3.2-1,2.4.3,2.4a3.29,3.29,0,0,0,2.5-.8c.9-.6.7-2.3-.6-2.2-3.3.2-6.6.5-9.9.7-1.5.1-1.6,2.5,0,2.4a8.52,8.52,0,0,0,2.3-.4c1.2-.4,1.1-2.4-.3-2.4-4.3.1-9-.3-13.1,1-1.2.4-1.1,2.5.3,2.4a15.47,15.47,0,0,0,3.1-.6,1.24,1.24,0,0,0-.3-2.4,10.12,10.12,0,0,0-5.4,1.1,1.17,1.17,0,0,0,.6,2.2,1.65,1.65,0,0,0,1.5-.9c.7-1.6-1.4-2.8-2.1-1.4Z" transform="translate(-56.24 -553.39)"/><path class="cls-2" d="M84.3,564.3a1.2,1.2,0,0,0,0-2.4,1.2,1.2,0,0,0,0,2.4Z" transform="translate(-56.24 -553.39)"/><path d="M70.8,566.5a3.55,3.55,0,0,0-1-.2,1.16,1.16,0,0,0-1.5,1.2c-.1-.4-5.4,1.4-5.8,1.4-2.1.9-2.3.4-.4-1.6a2.88,2.88,0,0,1,2.8-2.4c4.1-2,9.9-1.4,14.4-1.5,3.9-.1,5.9-.6,3.9-4.7a1.2,1.2,0,0,0-2.2.9,9.36,9.36,0,0,0,.4,1.6c.2,1.5,2.4,1.6,2.4,0a13.49,13.49,0,0,0-.7-4.4,10.93,10.93,0,0,0-.8,1.5c2.1-.3,5-1.6,6.3.7.5.8.6,4,.3,5-1.3,4-3.8,4.5-7.5,4.9-2.6.3-5.2.4-7.8.5-3.9.1-7.4-.8-11.3-1l-1.2-1.5a.1.1,0,0,0-.1.1c.3.7.6,1.4.8,2a15.71,15.71,0,0,1-2.3-.4c.6.5,1.2.9,1.8,1.4.9-.6,1.8-1.1,2.6-1.7v-2.4a5.93,5.93,0,0,1-.8-.4,14.62,14.62,0,0,0-.5,2c4-.8,6.5-1.7,10.3-1.9,2.1-.1,4.2-.3,6.3-.4,1.5-.1,1.6-2.5,0-2.4-5.3.3-9.9,3.8-15.3,3.2l.3,2.4a8.3,8.3,0,0,1,5.6-.4v-2.3a5.52,5.52,0,0,1-5.9-1v2.1c2.4-1.4,4.6-1.1,6.3.9a14.62,14.62,0,0,0,.5-2c-.7.1-1.3.3-2,.4.3.7.6,1.4.8,2l-.3-.6a1.19,1.19,0,0,0,.6,2.3,43.33,43.33,0,0,1,10.8-.7l-.3-2.4a57.62,57.62,0,0,1-8.2,1.1c.3.7.6,1.4.8,2,.9-1.1,2.9-4.2,4.7-3.5a14.62,14.62,0,0,1-.5-2l-.6.6a1.21,1.21,0,0,0,1.2,2c-.8-.5-1.6-.9-2.4-1.4.3.7.6,1.4.8,2a6.44,6.44,0,0,1,5.4.9c.2-.7.4-1.5.6-2.2-.4.1-.7.1-1.1.2.2.6.5,1.2.7,1.8-.2-1.3-.4-2.6-.6-3.8a14.61,14.61,0,0,0,2,.5c-.2-.3-.4-.7-.6-1L81,562.7c.4.5.8,1.1,1.2,1.6.6-1.4-1.5-2.6-2.1-1.2-.1.2-.1.3-.2.5a1.39,1.39,0,0,0,.2,1.5l.4.4a1.31,1.31,0,0,0,1.2.3c1.7-.5,1.8-1.5,1.7-3.1a1.29,1.29,0,0,0-1.5-1.2c-5.4,1.7.3,7.4,2.4,3.6,1.7-3.2-4.4-5.4-3.5.4a1.16,1.16,0,0,0,2,.5c.1-.1.2-.3.4-.4a1.1,1.1,0,0,0,.3-1.2c-.1-.2-.1-.4-.2-.6-.1-.4-.4-.8-.8-.8-4-.6-4,6-.2,6a1.29,1.29,0,0,0,1.2-.9c.1-.3.2-.5.3-.8a1.1,1.1,0,0,0-.3-1.2,4.35,4.35,0,0,1-.6-.7,1.31,1.31,0,0,0-1.2-.3,2.49,2.49,0,0,0-2,1.7,1.28,1.28,0,0,0,.7,1.8c4.1,1.4,5.2-4.4,1.6-4.5-3.2,0-2.7,4,.1,4.3,1.2.1,1.7-1.8.6-2.2-2.8-1.2-5.7-2.7-8.3-.5-.9.7-.1,2,.8,2a7.39,7.39,0,0,0,4.4-.5,1.1,1.1,0,0,0,.6-1c0-2.1-1.5-2.2-3.2-1.8.4.7.8,1.3,1.2,2l.6-.6a1.2,1.2,0,0,0-.5-2c-3.3-1.3-5.1,1.8-7,4.1-.6.7-.3,2.1.8,2a67.89,67.89,0,0,0,8.9-1.2c1.4-.3,1-2.3-.3-2.4a43.49,43.49,0,0,0-11.4.7c.2.8.4,1.5.6,2.3,4.6-1.1.8-7.1-2.1-3.5-.6.8-.3,2.1.8,2a4.68,4.68,0,0,0,2.6-.5,1.2,1.2,0,0,0,.5-2,7.19,7.19,0,0,0-9.2-1.3,1.26,1.26,0,0,0,0,2.1,8.55,8.55,0,0,0,7.7,1.3c1.1-.3,1.2-2.1,0-2.3a11.65,11.65,0,0,0-6.9.4,1.24,1.24,0,0,0,.3,2.4c5.5.6,9.9-2.9,15.3-3.2v-2.4c-3.7.2-7.7.2-11.4.7-1.2.2-2.6.4-3.3,1.5-1,1.7,0,4.7,2.3,3.9,5.2-1.6-5.9-7-2.9-.3a1.1,1.1,0,0,0,1,.6c2,0,3.6-2.1,1.6-3.7-2.2-1.8-4.1.9-3.5,3a1.29,1.29,0,0,0,1.2.9,1.75,1.75,0,0,0,1.8-1,1.28,1.28,0,0,0,0-1.2,3.63,3.63,0,0,0-4.1-2,1.2,1.2,0,0,0-.5,2c.9,1.1,1.1,1.1,2.5,1.1a1.2,1.2,0,0,0,0-2.4,4.68,4.68,0,0,0-4.9,3.4c-.4,1,.9,1.8,1.8,1.4a3.16,3.16,0,0,0,1.9-2.3,1.2,1.2,0,0,0-.6-1.4c-.1,0-.2-.1-.3-.1a1.39,1.39,0,0,0-1.5.2l-.2.2a1.18,1.18,0,0,0,.8,2A2,2,0,0,0,63,567a1.2,1.2,0,0,0-1.2-1.5c-1.9-.1-4,2.3-2.4,4.1,1.8,2.1,4.2-.3,4.5-2.2a1.2,1.2,0,0,0-.6-1.4c-2.6-1.1-4.3,1.7-2.6,3.8,1.4,1.7,5.6,1.4,7.4,1.4a103.38,103.38,0,0,0,14.7-.7c2.2-.3,5-.2,6.6-2,1.9-2.1,1.5-6.2,1.2-8.6-.7-7.1-3.4-5.5-9.5-4.4a1.2,1.2,0,0,0-.8,1.5,7.81,7.81,0,0,1,.6,3.7h2.4a7.85,7.85,0,0,0-.5-2.2c-.7.3-1.5.6-2.2.9.7,1.5-7.8,1.2-9.1,1.3a42.06,42.06,0,0,0-8.6,1.6c-2.8.9-7.5,3.4-6.5,7.2.6,2.4,2.4,1.9,4.5,1.5,1.8-.4,9.6-1.1,9.2-4.1l-1.5,1.2a3.55,3.55,0,0,0,1,.2c2.1.8,2.7-1.5,1.2-1.8Z" transform="translate(-56.24 -553.39)"/><path d="M84.9,568.9c.5-2.1-3.3-.6-3.8-.6a12.86,12.86,0,0,1-3.9.3c-.8-.1-4.3-.1-2.4-1.8.4-.3,2.3,0,2.8,0,2,0,6.6,1.6,8.3-.3a2.94,2.94,0,0,0,.6-2.4c-.1-.9-2.1-5,0-4.2,1.8.7-.2,4.6.2,5.1,1.2,1.3,1.2-.6,1.2-1.1.1-1.9-1.2-3.1-1.5-5-.6.3-1.2.7-1.8,1,.5.9,1,1.9,1.5,2.8.1,1.5,2.5,1.5,2.4,0a6.3,6.3,0,0,0-2.7-4.9,1.21,1.21,0,0,0-1.8,1c.2,2,1.5,3.6,1.3,5.8-.1,1.1-.5,1.7,0,2.7a1.1,1.1,0,0,0,1,.6c4.7,0,3.6-8.9.8-10.8a2.78,2.78,0,0,0-4.2.8c-.6,1.1-.2,2.3.1,3.4.1.5,1,1.9.8,2.4-.5,1.4-1.6.8-2.6.7-2.5-.3-7.6-1.2-9.7.7a2.68,2.68,0,0,0,.3,4.3c2.9,2.3,13,2.5,14.3-1.6a1.31,1.31,0,0,0-.3-1.2c-1.6-1.2-3-.4-3.4,1.4-.1,1.7,2.2,2.4,2.5.9Z" transform="translate(-56.24 -553.39)"/><path d="M79.9,556.4l.3,4.8c.1.8,1.3.8,1.2,0l-.3-4.8c-.1-.8-1.3-.8-1.2,0Z" transform="translate(-56.24 -553.39)"/><path d="M80.1,562.3a.6.6,0,0,0,0-1.2c-.7.1-.7,1.2,0,1.2Z" transform="translate(-56.24 -553.39)"/><path d="M80.8,560.8c-6.2.7-27.6-1.6-24.2,10.5.2.7,1.4.4,1.2-.3-2.9-10.3,17.4-8.3,23-8.9.7-.2.7-1.4,0-1.3Z" transform="translate(-56.24 -553.39)"/><path d="M57.3,572.5c6.1-1.3,12.8.1,19-.2,4.7-.2,9.3-.1,13.8-1.8.7-.3.4-1.4-.3-1.2-5.3,2-11.4,1.8-17,1.9-5.3.1-10.5-1-15.7.1a.61.61,0,1,0,.2,1.2Z" transform="translate(-56.24 -553.39)"/><path d="M90.2,570.3c1.6-1.3,1.1-3.1,1.2-5,0-1.3.2-2.7.3-4,.1-1.7-.3-3.3-.3-5a.6.6,0,0,0-1.2,0c0,2,.3,4,.2,6-.1,1.7.3,6.1-1,7.2-.7.4.2,1.3.8.8Z" transform="translate(-56.24 -553.39)"/><path d="M80.5,556.6c3.2-.2,6.3-.6,9.5-1,.8-.1.8-1.3,0-1.2-3.2.3-6.3.8-9.5,1a.6.6,0,0,0,0,1.2Z" transform="translate(-56.24 -553.39)"/><path d="M57,571.7a3.66,3.66,0,0,0,.3,2.5.58.58,0,1,0,1-.6,2,2,0,0,1-.2-1.5c.2-.8-.9-1.1-1.1-.4Z" transform="translate(-56.24 -553.39)"/><path d="M58.3,574.9c5.9-1.5,12.1-.4,18.1-.7a100.51,100.51,0,0,0,14.5-1.6c.8-.1.4-1.3-.3-1.2A106.13,106.13,0,0,1,72.8,573c-5,0-9.9-.6-14.8.6-.8.3-.5,1.5.3,1.3Z" transform="translate(-56.24 -553.39)"/><path d="M91.5,572c-.1-1-.1-2.1-.1-3.1a.6.6,0,0,0-1.2,0,16.08,16.08,0,0,0,.1,3.1c.1.8,1.3.8,1.2,0Z" transform="translate(-56.24 -553.39)"/><path d="M91.1,556.7a4.87,4.87,0,0,1-.1-1.2c.1-.8-1.1-.8-1.2,0a3.81,3.81,0,0,0,.1,1.5.62.62,0,0,0,1.2-.3Z" transform="translate(-56.24 -553.39)"/><path class="cls-1" d="M140.8,572.5a1.65,1.65,0,0,0,1.5.9,1.17,1.17,0,0,0,.6-2.2,10.12,10.12,0,0,0-5.4-1.1,1.23,1.23,0,0,0-.3,2.4,17,17,0,0,0,3.1.6c1.4.2,1.6-2,.3-2.4-4.1-1.3-8.8-.8-13.1-1-1.4,0-1.5,1.9-.3,2.4a4.68,4.68,0,0,0,2.3.4c1.5.1,1.5-2.3,0-2.4-3.3-.2-6.6-.5-9.9-.7-1.3-.1-1.5,1.6-.6,2.2a2.94,2.94,0,0,0,2.5.8c1.3.1,1.7-2.2.3-2.4l-10.2-1.5c-1.5-.2-2.2,2.1-.6,2.3l10.2,1.5.3-2.4c-.4-.2-.8-.3-1.3-.5-.2.7-.4,1.5-.6,2.2,3.3.2,6.6.5,9.9.7v-2.4a10.46,10.46,0,0,1-1.7-.4l-.3,2.4c4,.1,8.6-.3,12.5.9l.3-2.4c-.8-.2-1.7-.3-2.5-.5l-.3,2.4c1.4.2,2.8.5,4.2.7.2-.7.4-1.5.6-2.2l.6.3c-.7-1.1-2.8.1-2.1,1.4Z" transform="translate(-56.24 -553.39)"/><path class="cls-2" d="M116.9,563.4a1.2,1.2,0,0,0,0-2.4,1.2,1.2,0,0,0,0,2.4Z" transform="translate(-56.24 -553.39)"/><path d="M130.9,567.8a3.55,3.55,0,0,1,1-.2l-1.5-1.2c-.3,2.8,6.6,3.5,8.4,3.9,2.2.5,4.6,1.4,5.3-1.3,1-3.5-3.1-6.1-5.7-7a38.1,38.1,0,0,0-9.4-1.8c-1-.1-9.7.1-9.1-1.3-.7-.3-1.5-.6-2.2-.9a17.42,17.42,0,0,0-.5,2.2h2.4a7.81,7.81,0,0,1,.6-3.7,1.2,1.2,0,0,0-.8-1.5c-6.2-1-8.8-2.7-9.5,4.4-.2,2.4-.6,6.5,1.2,8.6,1.6,1.8,4.4,1.7,6.6,2a90.49,90.49,0,0,0,14.7.7c1.9-.1,5.9.3,7.4-1.4,1.7-2.1,0-5-2.6-3.8-.5.2-.6.9-.6,1.4.4,1.9,2.8,4.3,4.5,2.2,1.5-1.8-.6-4.2-2.4-4.1a1.25,1.25,0,0,0-1.2,1.5,2,2,0,0,0,2.4,1.8c1-.1,1.7-1.3.8-2l-.2-.2a1.34,1.34,0,0,0-1.5-.2c-.1,0-.2.1-.3.1-.5.2-.6.9-.6,1.4a3.16,3.16,0,0,0,1.9,2.3c.8.4,2.2-.3,1.8-1.4-1-2.4-2.4-3.4-4.9-3.4a1.2,1.2,0,0,0,0,2.4c1.4,0,1.6,0,2.5-1.1a1.2,1.2,0,0,0-.5-2,3.47,3.47,0,0,0-4.1,2,1.28,1.28,0,0,0,0,1.2,1.68,1.68,0,0,0,1.8,1,1.4,1.4,0,0,0,1.2-.9c.6-2.1-1.3-4.7-3.5-3-1.9,1.6-.3,3.7,1.6,3.7a1,1,0,0,0,1-.6c3-6.7-8.1-1.3-2.9.3,2.3.7,3.4-2.3,2.3-3.9-.6-1-1.8-1.2-2.8-1.4-3.7-.9-8.1-.6-11.9-.8v2.4c5.4.3,9.8,3.8,15.3,3.2a1.23,1.23,0,0,0,.3-2.4,12.51,12.51,0,0,0-6.9-.4c-1.2.2-1.1,2,0,2.3a8.18,8.18,0,0,0,7.7-1.3,1.26,1.26,0,0,0,0-2.1,7.19,7.19,0,0,0-9.2,1.3,1.2,1.2,0,0,0,.5,2,5.75,5.75,0,0,0,2.6.5,1.16,1.16,0,0,0,.8-2c-2.9-3.6-6.7,2.4-2.1,3.5.2-.8.4-1.5.6-2.3a43.49,43.49,0,0,0-11.4-.7c-1.3.1-1.7,2.1-.3,2.4a67.9,67.9,0,0,0,8.9,1.2c1.1.1,1.4-1.3.8-2-1.9-2.3-3.7-5.4-7-4.1a1.2,1.2,0,0,0-.5,2l.6.6c.4-.7.8-1.3,1.2-2-1.7-.5-3.2-.3-3.2,1.8a1.1,1.1,0,0,0,.6,1,6.69,6.69,0,0,0,4.4.5c.9-.1,1.7-1.3.8-2-2.7-2.2-5.5-.7-8.3.5-1.1.5-.6,2.4.6,2.2,2.8-.4,3.3-4.4.1-4.3-3.6,0-2.5,5.9,1.6,4.5a1.2,1.2,0,0,0,.7-1.8,2.49,2.49,0,0,0-2-1.7,1.31,1.31,0,0,0-1.2.3,4.35,4.35,0,0,0-.6.7,1.1,1.1,0,0,0-.3,1.2c.1.3.2.5.3.8a1.29,1.29,0,0,0,1.2.9c3.8-.1,3.8-6.7-.2-6a1.27,1.27,0,0,0-.8.8c-.1.2-.1.4-.2.6a1.31,1.31,0,0,0,.3,1.2c.1.1.2.3.4.4.6.6,1.9.4,2-.5.9-5.7-5.2-3.6-3.5-.4,2,3.8,7.9-1.9,2.4-3.6a1.16,1.16,0,0,0-1.5,1.2c-.1,1.6,0,2.7,1.7,3.1a1.31,1.31,0,0,0,1.2-.3l.4-.4a1.34,1.34,0,0,0,.2-1.5c-.1-.2-.1-.3-.2-.5-.6-1.4-2.7-.2-2.1,1.2.4-.5.8-1.1,1.2-1.6l-1.5,1.2c-.2.3-.4.7-.6,1a14.61,14.61,0,0,1,2-.5c-.2,1.3-.4,2.6-.6,3.8.2-.6.5-1.2.7-1.8-.4-.1-.7-.1-1.1-.2.2.7.4,1.5.6,2.2a6.5,6.5,0,0,1,5.4-.9c.3-.7.6-1.4.8-2-.8.5-1.6.9-2.4,1.4a1.21,1.21,0,0,0,1.2-2l-.6-.6a14.62,14.62,0,0,0-.5,2c1.8-.7,3.8,2.4,4.7,3.5.3-.7.6-1.4.8-2a73.51,73.51,0,0,1-8.2-1.1l-.3,2.4a43.33,43.33,0,0,1,10.8.7c1.5.3,2.2-2,.6-2.3l-.3.6c.3-.7.6-1.4.8-2-.7-.1-1.3-.3-2-.4a14.62,14.62,0,0,1,.5,2q2.7-3,6.3-.9v-2.1a5.52,5.52,0,0,1-5.9,1v2.3a8.21,8.21,0,0,1,5.6.4l.3-2.4c-5.3.6-10-2.9-15.3-3.2-1.5-.1-1.5,2.3,0,2.4,2.1.1,4.2.3,6.3.4,3.9.2,6.3,1.1,10.3,1.9a14.62,14.62,0,0,1-.5-2,5.93,5.93,0,0,0-.8.4v2.4c.9.6,1.8,1.1,2.6,1.7.6-.5,1.2-.9,1.8-1.4a15.71,15.71,0,0,0-2.3.4c.3-.7.6-1.4.8-2a.1.1,0,0,1-.1-.1l-1.2,1.5c-3.5.2-6.7,1.1-10.3,1a86.52,86.52,0,0,1-8.8-.5c-3.1-.3-4.2,0-6-2.7-1.4-2.1-1.9-3.1-1.3-5.5.9-3.9,3.2-2.8,6.5-2.3a10.93,10.93,0,0,1-.8-1.5,13.08,13.08,0,0,0-.7,4.4c0,1.6,2.2,1.5,2.4,0a9.36,9.36,0,0,1,.4-1.6c.4-1.3-1.6-2.2-2.2-.9-1.9,4.1.1,4.6,3.9,4.7,4.6.1,10.1-.4,14.4,1.5.5.2,1.1.3,1.6.5,3.5,3.4,3.7,4.6.9,3.5-.5,0-5.8-1.8-5.8-1.4.1-.8-.8-1.3-1.5-1.2a3.55,3.55,0,0,1-1,.2c-1.1-.2-.5,2.1,1,1.7Z" transform="translate(-56.24 -553.39)"/><path d="M118.5,567.3c-.4-1.9-1.9-2.7-3.4-1.4a1.25,1.25,0,0,0-.3,1.2c1.4,4.1,11.5,3.9,14.3,1.6a2.73,2.73,0,0,0,.3-4.3c-2.1-1.9-7.2-1.1-9.7-.7-.9.1-1.3.4-2-.3-.9-.8-.3-1.4.1-2.4.4-1.2,1-2.6.3-3.9a2.8,2.8,0,0,0-4.2-.8c-2.8,1.9-3.8,10.8.8,10.8a1,1,0,0,0,1-.6c.5-1.1,0-1.6,0-2.7-.1-2.1,1.1-3.8,1.3-5.8a1.15,1.15,0,0,0-1.8-1,6.3,6.3,0,0,0-2.7,4.9c-.1,1.5,2.3,1.5,2.4,0,.5-.9,1-1.9,1.5-2.8-.6-.3-1.2-.7-1.8-1-.2,1.8-1.5,3.1-1.5,5,0,.4.4,2.8,1.2,1.1.6-1.1-1.4-3-.1-4.4q.15-1.5,1.5-.3c-.2.5-.3,1-.5,1.5a14.13,14.13,0,0,0-.6,2.2,3.17,3.17,0,0,0,.6,2.5c1.7,1.8,5.8.4,7.7.3a18.18,18.18,0,0,1,3.3,0c2.1,1.8-2,1.8-2.4,1.8a12.86,12.86,0,0,1-3.9-.3c-.6-.1-4.2-1.5-3.8.6.4,1.3,2.7.7,2.4-.8Z" transform="translate(-56.24 -553.39)"/><path d="M120,555.4l-.3,4.8c-.1.8,1.1.8,1.2,0l.3-4.8c.1-.8-1.1-.7-1.2,0Z" transform="translate(-56.24 -553.39)"/><path d="M121,561.4a.6.6,0,0,0,0-1.2.6.6,0,0,0,0,1.2Z" transform="translate(-56.24 -553.39)"/><path d="M120.3,561c5.8.7,25.9-1.3,23,8.9-.2.7,1,1.1,1.2.3,3.3-12.1-18.1-9.8-24.2-10.5-.7,0-.7,1.2,0,1.3Z" transform="translate(-56.24 -553.39)"/><path d="M144.1,570.4c-5.2-1.1-10.5,0-15.7-.1-5.6-.2-11.8.1-17-1.9-.7-.3-1,.9-.3,1.2,4.4,1.7,9.1,1.6,13.8,1.8,6.2.3,12.9-1.1,19,.2.7.1,1-1.1.2-1.2Z" transform="translate(-56.24 -553.39)"/><path d="M111.8,568.5c-1.4-1.2-.9-5.4-1-7.2-.1-2,.2-4,.2-6a.6.6,0,0,0-1.2,0c0,1.5-.3,3-.3,4.5s.3,3,.3,4.5c0,1.9-.4,3.7,1.2,5,.5.5,1.4-.3.8-.8Z" transform="translate(-56.24 -553.39)"/><path d="M120.6,554.4c-3.2-.2-6.3-.6-9.5-1-.8-.1-.8,1.1,0,1.2,3.2.3,6.3.8,9.5,1,.8.1.8-1.1,0-1.2Z" transform="translate(-56.24 -553.39)"/><path d="M143,571.1a2,2,0,0,1-.2,1.5c-.4.7.7,1.3,1,.6a3.59,3.59,0,0,0,.3-2.5c-.2-.7-1.3-.4-1.1.4Z" transform="translate(-56.24 -553.39)"/><path d="M143.1,572.8c-4.9-1.2-9.8-.6-14.8-.6a106.13,106.13,0,0,1-17.8-1.6.62.62,0,0,0-.3,1.2,116.9,116.9,0,0,0,14.5,1.6c6,.2,12.2-.8,18.1.7.8,0,1.1-1.1.3-1.3Z" transform="translate(-56.24 -553.39)"/><path d="M110.8,571.1c.1-1,.1-2.1.1-3.1a.6.6,0,0,0-1.2,0,16.08,16.08,0,0,1-.1,3.1c-.1.7,1.1.7,1.2,0Z" transform="translate(-56.24 -553.39)"/><path d="M111.2,556.1a3.81,3.81,0,0,0,.1-1.5c-.1-.8-1.3-.8-1.2,0a4.87,4.87,0,0,1-.1,1.2c-.2.7,1,1,1.2.3Z" transform="translate(-56.24 -553.39)"/></svg>