<svg id="Layer_1" data-name="Layer 1" xmlns="http://www.w3.org/2000/svg" viewBox="0 0 93.45 90.93"><defs><style>.cls-1{fill:#9a53a0;}.cls-2{fill:#090003;}.cls-3{fill:#86478c;}</style></defs><title>Skirt</title><path class="cls-1" d="M65.4,327.1c2.4.2,1.5,1.6,2.8-.4a14.49,14.49,0,0,0,1.2-3.5,26.24,26.24,0,0,0,1.2-6.8c.1-4.3-2.4-9.6.7-13.4,3.9-4.8-1.2-13.7-7.3-9.4a8.34,8.34,0,0,1-1.2.8c3,1.7,6,3.5,9,5.2-.1-2.1-1.3-6.9-.1-8.5,2-2.6.4-6.7-2.2-8.2-.2-.1-.5-.3-.7-.4.9,1.2,1.8,2.4,2.8,3.6.4,2.4,1-1.5,1.2-2.2a46.44,46.44,0,0,0,1.1-5.1,44.24,44.24,0,0,0,.4-10.3l-7.6,5.8c10.5,2.8,21.3,5.5,32.2,5.7,11.4.2,22.8-2.3,33.9-4.8l-7.4-7.4c-1.2,3.6-.9,6.9-2.6,10.3a64,64,0,0,0-3.6,9.5,48.65,48.65,0,0,1-9.2,18.3c-4.6,5.6-10.3,9.2-16.4,12.9-3.3,2-6.2,4.3-9.3,6.4a23.39,23.39,0,0,1-3.9,2.5,7.86,7.86,0,0,1-2.6.8c1.1.8,1.5.7,1.3-.3.8-1,.3-5.1.4-6.4l.3-5.7c.2-4.1.4-8.2.6-12.4s.3-8.3.5-12.4a56.13,56.13,0,0,0,.1-5.8c-.1-1.2-.2-2.4-.4-3.5q-3.75,3.15-.9,2.7c1.4.6,4.5,0,6.1.2a50.31,50.31,0,0,1,5.6.9c3.9.7,7.7,1.5,11.6,1.9,7.9.7,15.5-1.1,22.6-4.3-2.9-2.3-5.9-4.5-8.8-6.8-1.4,4.3-6,7.3-8.5,10.9-3.1,4.5-5.3,9.3-8.9,13.5-7.3,8.4-14.7,17.1-24.2,22.9,2.9,2.3,5.9,4.5,8.8,6.8,1.7-10.1,3.1-20.3,4-30.5.2-2.4.9-5.4.6-7.7.5-2.2.3-2.5-.7-1,1.3-.1,2.5-.1,3.8-.2a80.14,80.14,0,0,1,15.5.5c-1.2-2.9-2.4-5.9-3.6-8.8-2.7,4.9-8.5,8.6-12.2,12.8a135.73,135.73,0,0,0-11.3,14.9c3.7,1.5,7.3,3.1,11,4.6.5-1.8,2.8-15.4,4.3-15.5l-6-6c-.4,3.6-4.4,6.9-6.4,9.7a91.38,91.38,0,0,0-5.8,9.4c-1.8,3.2-3.5,6.5-5.4,9.6a36.11,36.11,0,0,1-3.6,5.1c-.7.8-1.4,1.6-2.1,2.3-1.8,1.1-1.4,1.9,1.1,2.5-3.1-6-12.9-1.9-11,4.6-.6-2.1-.2,1.3-.1,2a7.54,7.54,0,0,0,2.1,4.7c2.3,2.4,6.2,3.2,9.2,4.3.5-3.9,1.1-7.9,1.6-11.8-1.1-.1-2.1-.2-3.2-.4-6.7-.8-8.3,10.7-1.6,11.8,14.7,2.5,29.2-4.3,43-8.5a6.14,6.14,0,0,0,4.2-7.4c-1.4-4.9-6.5-6.6-10.9-4.5-4.9,2.4-6.7,7.9-12.8,7.4s-7.9,8.3-3,11.2c7.4,4.4,15.8,6.8,23.7,2.1,6.6-3.9.6-14.3-6.1-10.4-4,2.4-8.1,0-11.6-2.1-1,3.7-2,7.5-3,11.2a18.44,18.44,0,0,0,10.8-2.3,25.67,25.67,0,0,0,3.7-2.8l2.1-2.1c1.6-1.1,1.4-1.4-.5-.9l-4.2-4.2c.1.2.1.5.2.7,1.4-2.5,2.8-4.9,4.2-7.4-6.3,1.9-12.5,3.9-18.8,5.8-5.9,1.8-11.5,3.8-17.8,2.7-.5,3.9-1.1,7.9-1.6,11.8,1.1.1,2.1.2,3.2.4,7.1.8,7.5-9.7,1.6-11.8-.8-.3-3.6-.9-4.3-1.7l1.8,4.2a18.21,18.21,0,0,0-.3-5.2c-3.7,1.5-7.3,3.1-11,4.6,2.8,5.5,9.4,6.1,14.3,2.9,5.2-3.4,9.1-9.6,12.2-14.9s5.9-11.2,9.6-16.3c3.9-5.4,7.7-9.5,8.5-16.4.3-3.1-3-6.2-6-6-12.7.8-13.4,14.4-15.9,24.3-1.7,6.7,7.3,10.3,11,4.6a112,112,0,0,1,11.7-15c3.9-4.2,8.9-7.7,11.8-12.7,1.7-3.1.4-8.2-3.6-8.8a101.59,101.59,0,0,0-20.6-.9c-5.6.3-11,1.4-12.6,7.6-1.6,6-1.1,12.9-1.8,19-.8,7.2-1.8,14.3-3,21.5-.8,4.8,4,9.7,8.8,6.8,10.9-6.7,19.5-16.3,27.7-26,3.8-4.6,6.1-9.9,9.7-14.6s8-7.9,9.8-13.9c1.7-5.5-4.4-8.8-8.8-6.8-7.6,3.4-15.2,3.1-23.2,1.5-6.8-1.3-14.8-3.1-21.7-1.3-8.1,2.2-5.6,10.9-5.7,17.1-.2,8.3-.6,16.5-1,24.8-.3,6.3-2.7,15.4,1.2,21,4.1,5.9,11.8,4.9,17.4,2,6.1-3.1,11.7-7.9,17.6-11.5a60.9,60.9,0,0,0,14.9-12.8A61.83,61.83,0,0,0,130,293.8a86.74,86.74,0,0,1,4.5-12c1.8-3.6,1.4-7.3,2.6-11,1.5-4.6-3.2-8.3-7.4-7.4-10.1,2.3-20.3,4.6-30.7,4.4-9.9-.2-19.5-2.7-29-5.2-3.5-.9-7.9,1.8-7.6,5.8A38.19,38.19,0,0,1,60.5,283c-1.2,4-.8,7.9,3.1,10.2-.7-2.7-1.4-5.5-2.2-8.2-3.1,4.1-1.8,9.8-1.5,14.6.3,4.1,5,8,9,5.2a8.34,8.34,0,0,1,1.2-.8c-2.4-3.1-4.8-6.3-7.3-9.4-2.7,3.4-4.6,6.9-4.9,11.3-.4,4.9,1.4,9.4,0,14.2-1.2,4-3.1,7.9-1.7,12.2s4.9,6.5,9.2,6.9c7.7.7,7.6-11.3,0-12.1Z" transform="translate(-52.98 -261.28)"/><path class="cls-1" d="M110.8,323.7c.7-.5,1.4-1,2.1-1.6l4.2,1.8c.2,1,.4,1.9.6,2.9-.9,1.2-1.8,2.4-2.8,3.6.2-.1.5-.3.7-.4l-4.6.6-1.1-.8-1.8-4.2v1.3l1.8-4.2,4.8,4.2c-.9,1.2-1.8,2.4-2.8,3.6.3-.2.6-.3.9-.5l-4.6.6.9.3-4.2-4.2c2.9-2.8,3.1-4.3.6-4.4a22.51,22.51,0,0,1-2.4-.8,4.19,4.19,0,0,1-1.6-1.1c-.8-.9-.9-.4-.5,1.7.2.2,11-3.6,11.9-3.9,1.3-.3,12.5-1.7,12.5-1.5-.8-.8-1.6-1.6-2.4-2.3-.3,1.1-.8,2.1-1.2,3.2a15.85,15.85,0,0,1-3.3,5.2l4.2-1.8c-.3,0-.6.1-.9.1l4.2,1.8c.5.6-.4-2.3-.3-2.8-.9,1.2-1.8,2.4-2.8,3.6.3-.1.5-.3.8-.4-2.9-1.2-5.9-2.4-8.8-3.6a5.93,5.93,0,0,1-1,4.7c1.2-.9,2.4-1.8,3.6-2.8-.3.1-.6.1-.9.2l5.8,1.5c0-.3-.1-.7-.1-1-3.7-.5-7.3-1-11-1.4,1.4,3.6-.2,6.4-2.1,9.6-.9,1.5-1.9,3-2.7,4.6-.3.6-.7,1.3-1,1.9-.7,1-.6,1.1.2.3,1.1,3.9,2.1,7.7,3.2,11.6,4.6-1.6,8.8.1,13.3,1.2a32.62,32.62,0,0,0,13.2.6c6.6-1.1,5.1-12.5-1.6-11.8a37.83,37.83,0,0,0-5.7,1c2.5,1.4,4.9,2.8,7.4,4.2a93.09,93.09,0,0,1-4.7-15.3c-1-4.8-8.9-6.2-11-1.4a23.58,23.58,0,0,1-3,5.1c3.7.5,7.3,1,11,1.4-.1.4-.3.9-.4,1.3-3.7-.5-7.3-1-11-1.4a35.29,35.29,0,0,0,1.4,5.6c1.9,5.5,9.8,5.9,11.6,0,1.4-4.8,2.9-9.4,5.7-13.7l-11.2-3a68,68,0,0,0,1.4,13.5c1.3,6.6,12.3,5.2,11.8-1.6a32.21,32.21,0,0,1-.1-7.6H125.4l1.8,11.4c.5,2.9,3.9,4.7,6.6,4.3,3.2-.4,4.8-2.9,5.2-5.9.7-5.6-.5-11.1-1.3-16.6-.8-6-1.4-12-2-18-.5-5.2-1.8-10.9-.3-15.9.7-2.3.6-4.1.9-6.4s1.3-4.4,1.1-6.9c-.6-6.3-10.2-8.7-11.8-1.6a46,46,0,0,0-1.1,9.8c0,6.7,10.1,8.2,11.8,1.6.4-1.5.7-2.9,1.1-4.4-3.9-.5-7.9-1.1-11.8-1.6a58.46,58.46,0,0,0-.3,8.4h12c-.1-1.5-.1-2.9-.2-4.4-3.9.5-7.9,1.1-11.8,1.6.8,2,2.6,5.6,2.5,7.3-.1,1.3-1.8,4.2-1.9,6.3-.3,4.9,7,8.3,10.2,4.2a22.31,22.31,0,0,0,3.8-6.7c2.4-7.4-8.9-10.3-11.6-3.2a46.59,46.59,0,0,0-2.3,8.1c-1.4,7.6,9.1,10.6,11.6,3.2.6-1.7,1.2-3.5,1.8-5.2,2.5-7.4-8.7-10.2-11.6-3.2a27.59,27.59,0,0,0-.4,19.8,6,6,0,0,0,11.8-1.6c.3-4.7.6-9.4,1-14.1.5-6.6-10.8-8.3-11.8-1.6a29.3,29.3,0,0,0,.4,11.8c1.6,6.4,12.3,5.3,11.8-1.6l-.3-4.2c-3.9.5-7.9,1.1-11.8,1.6a12.31,12.31,0,0,1,.9,5c-.2,6.8,10,8.1,11.8,1.6a17.59,17.59,0,0,0,.6-4.6c0-7.8-11.3-7.6-12,0-.2,2.2-.4,4.4-.8,6.6-1,6.2,7.6,11.2,11,4.6a26.82,26.82,0,0,0,2.4-6.7c1.3-6.5-7.3-10.7-11-4.6a16.87,16.87,0,0,0-2.2,11.8c.6,4-.5,7.4,2,11.2,3,4.7,11.6,3.2,11.2-3-.1-.9-.1-1.8-.2-2.7l-11.2,3c1.1,2,1,3.4.3,5.5-2.3,6.7,7.4,10.1,11,4.6a13.59,13.59,0,0,0,2-4.8c1.6-7.5-9.9-10.8-11.6-3.2-1.1,5-4.3,11-3.1,16.1,1.1,4.7,6.2,8,10.7,5.3,4.2-2.5,4-8.6,4.5-12.9.6-6-1.2-10.5-6.9-12.8-7.2-2.8-10.3,8.8-3.2,11.6-1.3-2-1.8-2.2-1.7-.6a24.77,24.77,0,0,1-.3,2.7c-.1,1.1,0,3-.6,3.8,1.2-.9,2.4-1.8,3.6-2.8-.2.1-.5.1-.7.2l5.8,1.5c.6,1.5.9,1.4,1.1-.4a19.75,19.75,0,0,0,.8-2.6,60.35,60.35,0,0,0,1.5-6.1c-3.9-1.1-7.7-2.1-11.6-3.2a2.24,2.24,0,0,1-.8,1.9c3.7,1.5,7.3,3.1,11,4.6a17.63,17.63,0,0,0-1.5-14.7c-2.8-5.1-11.5-3-11.2,3,.1.9.1,1.8.2,2.7l11.2-3c-.9-1.3,0-4.5-.2-6.1-.4-2-.7-2.9.4-4.8-3.7-1.5-7.3-3.1-11-4.6a15.35,15.35,0,0,1-1.2,3.8c3.7,1.5,7.3,3.1,11,4.6.5-3.2,1-6.5,1.2-9.8h-12c-.1.5-.1.9-.2,1.4,3.9.5,7.9,1.1,11.8,1.6a20.77,20.77,0,0,0-1.3-8.2c-2.2-5.9-12.3-5.7-11.8,1.6l.3,4.2c3.9-.5,7.9-1.1,11.8-1.6a12.74,12.74,0,0,1-.4-5.5c-3.9-.5-7.9-1.1-11.8-1.6-.3,4.7-.6,9.4-1,14.1,3.9-.5,7.9-1.1,11.8-1.6a18.25,18.25,0,0,1,.4-13.4c-3.9-1.1-7.7-2.1-11.6-3.2-.6,1.7-1.2,3.5-1.8,5.2,3.9,1.1,7.7,2.1,11.6,3.2a46.59,46.59,0,0,1,2.3-8.1c-3.9-1.1-7.7-2.1-11.6-3.2a6.11,6.11,0,0,1-.7,1.4l10.2,4.2c0-.8,1.1-2.1,1.4-2.9a12,12,0,0,0,.4-4.6,33.71,33.71,0,0,0-2.8-9.2c-2.4-5.7-12.1-5.8-11.8,1.6.1,1.5.1,2.9.2,4.4.3,7.7,12.3,7.7,12,0a59,59,0,0,1,.3-8.4c.8-6.8-10.2-8-11.8-1.6-.4,1.5-.7,2.9-1.1,4.4,3.9.5,7.9,1.1,11.8,1.6a29,29,0,0,1,.7-6.6c-3.9-.5-7.9-1.1-11.8-1.6.3,3.8-1.3,8.6-2.1,12.3-1.3,5.4,0,11.5.5,17,.5,5.7,1.1,11.3,1.9,17,.8,5.9,2.1,11.8,1.4,17.7,3.9-.5,7.9-1.1,11.8-1.6l-1.8-11.4c-.9-5.7-10.7-5.7-11.6,0a42.75,42.75,0,0,0-.3,10.7c3.9-.5,7.9-1.1,11.8-1.6a50.6,50.6,0,0,1-.9-10.3c0-6.1-8-7.9-11.2-3-3.3,5.1-5.2,10.8-6.9,16.5h11.6a38.21,38.21,0,0,1-1.4-5.6c-.8-4.9-8.9-6-11-1.4-1.2,2.7-1.8,5-.8,7.9,1.8,5.2,7.8,5.5,11,1.4a23.58,23.58,0,0,0,3-5.1c-3.7-.5-7.3-1-11-1.4a90.22,90.22,0,0,0,4.7,15.3c1.2,3,3.9,5.1,7.4,4.2a11.36,11.36,0,0,1,2.5-.6c-.5-3.9-1.1-7.9-1.6-11.8-4.5.8-9-1.4-13.4-2.2a25.3,25.3,0,0,0-13.1.4c-7.3,2.4-4.3,13.8,3.2,11.6,6-1.8,8.2-8.1,11.1-13.1,3.2-5.5,5.3-11.8,2.8-18.1-1.8-4.6-8.1-6.2-11-1.4-3.1,5.1-1.6,11.2,2,15.6a5.73,5.73,0,0,0,5.8,1.5c7.2-1.5,7.5-11.1,6.6-16.9-.6-4.1-5.7-5.1-8.8-3.6-7,3.5-4.6,19,3.2,20.1s13.1-11.1,14-17.4c1.5-10.5-8.8-11.5-16.6-10.6a69.84,69.84,0,0,0-13.7,3.1c-3.9,1.3-8.8,2.4-12,5.2-16.1,13.9,22.5,32.1,24.3,13.4.9-9.9-14.2-10.1-14.2-.4,0,8.5,13,11.1,16.8,3.7,5-9.8-11.3-15.8-13.5-5.5a8.21,8.21,0,0,0,6.1,9.7c5.3,1.1,8.5-2.7,10.3-7.1,1.3-3-1.4-6.6-4.2-7.4-3.1-.8-5.8,1.4-7.1,4.3Z" transform="translate(-52.98 -261.28)"/><path class="cls-1" d="M59.4,340.9h0l.9.3-.2-.2.3,1.2v-.3a10.93,10.93,0,0,1-1.5.8c.1,0,.2.1.3.1-.2-.2-.5-.4-.7-.6.2-.1.4-.3.6-.4,0,.3.1.6.1.9,0-.1,0-.1.1-.2-.2.2-.4.5-.6.7a.35.35,0,0,0,.2-.1c-.3,0-.6.1-.9.1.1,0,.2,0,.2.1-.2-.2-.5-.4-.7-.6.1.1.1.2.2.3,0-.3-.1-.6-.1-.9h-.5a2,2,0,0,0-.8.4,13.63,13.63,0,0,0-2.4,2.4c.7.4,1.3.8,2,1.2.2-1.1.3-2.2.5-3.2s.1-2.3.8-3.1c-.7-.3-1.4-.6-2-.8a15,15,0,0,1-.3,3.7,3,3,0,0,0,.4,2.6c1.2,1.8,3.4,1.8,5.2,1.4a1.17,1.17,0,0,0,.5-2,2.54,2.54,0,0,0-1-.8c-.2.7-.4,1.5-.6,2.2a11.79,11.79,0,0,1,2.7.6c1.5.5,2.1-1.8.6-2.3a12.85,12.85,0,0,0-3.4-.7,1.19,1.19,0,0,0-.6,2.2,1.2,1.2,0,0,1,.5.5,14.62,14.62,0,0,0,.5-2c-.7.1-1.9.4-2.4-.2s-.1-1.3,0-1.8a12.72,12.72,0,0,0,.2-3.4,1.14,1.14,0,0,0-2-.8c-1.7,1.9-1.6,5-1.9,7.4-.2,1.1,1.1,2.1,2,1.2.6-.6,1.2-1.1,1.7-1.7s.1-.3.9-.4a1.81,1.81,0,0,0,1.6-1.4c.6-1.6-1.5-3.2-2.7-1.7s1,2.8,2.4,2.4a1.82,1.82,0,0,0,0-3.5,1.2,1.2,0,0,0-1.5.8c-.3,1.6,1.1,2.3,2.5,1.7s.2-2.7-1.1-2.1Z" transform="translate(-52.98 -261.28)"/><path class="cls-1" d="M137.7,348.6a.76.76,0,0,1-.4.2c.3,0,.6-.1.9-.1h-.3l-.3,2.4a18.74,18.74,0,0,0,4.1-.9,5.82,5.82,0,0,0,2.6-1.3,5.14,5.14,0,0,0,.7-3,12.67,12.67,0,0,0-.5-4.3l-2.3.6a17.55,17.55,0,0,1,.5,4.6v.9c-.1.7-.1.8.1.3a.75.75,0,0,0-.9,0,.66.66,0,0,1,.6-.1,2,2,0,0,0-.4-.8v.3c.2,1.5,2.6,1.5,2.4,0-.5-4.2-7.7-.4-4,2.4,1.3,1,3.8,1.3,4.4-.7a15.43,15.43,0,0,0-.4-7.4,1.19,1.19,0,0,0-2.3.6c.3,1.1,1,4.2,0,5.1s-3.5,1.1-4.7,1.3-1.8,2.1-.3,2.4a2.38,2.38,0,0,0,2.1-.7c1.3-1.1-.4-2.8-1.6-1.8Z" transform="translate(-52.98 -261.28)"/><path class="cls-1" d="M58.9,339.7c-.3-.7-.6-1.5-.9-2.2a1.22,1.22,0,0,0-2.2-.3c-.2.5-.4.9-.6,1.4l2.2.6c.3-3.5-.4-7-.4-10.5,0-4.2,1.6-6.8,3.4-10.3,3.1-5.9-1.4-10.3,0-16.3.4-1.9,1.5-3.5,1.7-5.6.2-3.6-1.1-6.7.1-10.4.8-2.3,2.2-3.8,2.6-6.4.4-3.1-.4-6.2,0-9.3.2-1.3-1.6-1.5-2.2-.6a5.9,5.9,0,0,0-.9,5.3c.2.9,1.8,1.3,2.2.3a85.88,85.88,0,0,0,4.1-9.9c.4-1.5.8-2.4-.4-3.4s-2.9.7-1.7,1.7c.8.7-3.6,9.6-4,10.4l2.2.3c.2-1.2.4-2.3.6-3.5l-2.2-.6c-.5,3.4.7,7.1-.2,10.5-.7,2.6-2.8,4.6-3.2,7.3-.3,2.5.8,5,.8,7.5,0,3.2-2.4,5.6-2.6,8.7-.2,2.4,1.4,4.3,1.9,6.5,1.1,4.6-1.3,6.7-3.1,10.5-2.6,5.5-.4,11.9-.9,17.7a1.17,1.17,0,0,0,2.2.6c.2-.5.4-.9.6-1.4l-2.2-.3a9.61,9.61,0,0,0,1.1,2.8c.7,1.4,2.7.2,2-1.1Z" transform="translate(-52.98 -261.28)"/><path class="cls-2" d="M54.6,347.2c-1.4-4.1,1.5-8.5,1.2-12.7-.2-4.5-1.1-7.9.8-12.3,1.1-2.6,2.2-4.8,2.1-7.7-.1-4.2-2-7.7-.7-11.9.9-2.9,2.2-5,1.9-8.2-.4-3.7-.8-6.7.5-10.3a25.31,25.31,0,0,0,1.7-8.6,20.33,20.33,0,0,1,4.6-13.3c.5-.6-.6-1.2-1-.6-2,2.7-4,5.4-4.7,8.7-.8,4.4,0,8.4-1.5,12.8-.9,2.5-1.8,4.8-1.6,7.4.2,3,1.3,5,.4,8.1-.5,1.8-1.5,3.3-1.9,5.1-.8,3.8,1,7,1.1,10.8.1,4.3-2.9,7.5-3.5,11.6-.6,3.4.9,6.6.7,10-.2,4.1-2.7,7.3-1.3,11.4.3.7,1.5.4,1.2-.3Z" transform="translate(-52.98 -261.28)"/><path class="cls-2" d="M66.2,262.5c21.4,8.3,45.4,7.6,67.1.9.7-.2.4-1.4-.3-1.2-21.5,6.6-45.3,7.3-66.4-.9a.63.63,0,0,0-.4,1.2Z" transform="translate(-52.98 -261.28)"/><path class="cls-2" d="M146,348.4c1.4-4.1-1.1-7.2-1.3-11.4-.1-3.4,1.3-6.6.7-10-.7-4.1-3.6-7.3-3.5-11.6.1-3.7,1.9-7,1.1-10.8-.4-1.8-1.4-3.4-1.9-5.1-.9-3.1.2-5.2.4-8.1.2-2.6-.8-5-1.6-7.4-1.5-4.4-.7-8.4-1.5-12.8-.6-3.4-2.6-6.1-4.7-8.7-.5-.6-1.5,0-1,.6,3.3,4.4,4.6,7.8,4.6,13.3a23.47,23.47,0,0,0,1.4,7.9c1.4,3.9,1.3,7,.8,11-.4,3.1,1,5.3,1.9,8.2,1.3,4.3-.5,7.8-.7,11.9-.1,2.6.8,4.7,1.8,7,2.1,4.9,1.4,8.1,1.1,13-.2,4.3,2.7,8.6,1.2,12.7-.2.7.9,1,1.2.3Z" transform="translate(-52.98 -261.28)"/><path class="cls-2" d="M55,348c3.5-2.8,9.6,1.1,13.7,1.4s7.9-.9,12-1.6c5.8-1,9,2.2,14.2,3.5a19.57,19.57,0,0,0,10.2-.5c5.8-1.7,9.9-3.5,16-.9,3.2,1.3,6.1,2.4,9.6,2.3a29.19,29.19,0,0,0,5-.9c2.6-.7,4.7-.4,7.4-.9,1.7-.3,2.4-.1,2.8-2a.62.62,0,1,0-1.2-.3c-.3,1.5-3.7.7-4.6.9-2.2.4-4.3,1.1-6.5,1.6-5.9,1.2-9.7-1.4-15.1-3-8.1-2.3-15.2,4.5-23.5,2.6-3.5-.8-6.3-3.4-10-3.8-3.3-.4-6.5.8-9.6,1.4a22.84,22.84,0,0,1-10.4-.1c-2.1-.5-4.1-1.7-6.2-1.9a6.22,6.22,0,0,0-4.9,1.4c-.3.4.5,1.3,1.1.8Z" transform="translate(-52.98 -261.28)"/><path class="cls-3" d="M64,342c.7-2.5.2-4.2-.4-6.8a21.39,21.39,0,0,1,.5-13c.9-2.7,2.3-5.3,2.8-8.1s-.4-4.8-1.1-7.4c-1.7-6.7,3.5-12.6,2.7-19.3-.5-4.5-1.2-7.3.8-11.5a7.08,7.08,0,0,0,1-4.9c-.1-.8-1.3-.4-1.2.3.5,3.3-2.4,5.8-2.8,8.9-.2,1.9.4,3.7.7,5.5.8,4.7-.3,7.8-1.7,12.1a17.66,17.66,0,0,0-1.1,6.8c.2,2.7,1.7,5,1.6,7.8-.1,3.5-2.1,6.9-3.2,10.2a20.13,20.13,0,0,0-1.3,7.7c.2,3.9,2.6,7.2,1.5,11.3-.1.8,1,1.2,1.2.4Z" transform="translate(-52.98 -261.28)"/><path class="cls-3" d="M138.8,342.2c-1.9-3.6-1-7.2-1.1-11.1a23.68,23.68,0,0,0-1.8-7.3,18.13,18.13,0,0,1-.8-11.5,58,58,0,0,0,1.7-7.2c.6-5.9-3.5-8.7-5.1-14-1.5-4.9.6-9.9-2.2-14.5a.58.58,0,1,0-1,.6c3,4.8.4,10.7,2.7,15.7,1.4,3.2,3.9,5.5,4.4,9.2s-.9,7.1-1.7,10.6c-1.3,5.7.7,9,2.2,14.5,1.4,5.2-.7,10.6,1.9,15.5.1.8,1.1.2.8-.5Z" transform="translate(-52.98 -261.28)"/><path class="cls-3" d="M75.1,328.4c-3.2-4.6,1.1-9.5.7-14.4-.3-4.2-3-7.8-2.7-12.1.2-4.9,3.1-9.2,3.7-14.1a27.14,27.14,0,0,0-.9-10.6c-.2-.7-1.4-.4-1.2.3,1.7,6,1,11.4-1,17.2-1.2,3.4-2.2,6.8-1.5,10.4.4,2.1,1.4,4,1.9,6a16.88,16.88,0,0,1-.5,9.2c-.9,3.1-1.3,5.9.6,8.6.3.7,1.3.1.9-.5Z" transform="translate(-52.98 -261.28)"/><path class="cls-3" d="M128.6,330.8c-5-4.6-2.6-11.2-1.9-17,.5-4.3-.5-7.8-1.6-11.9-2.2-8,1.3-16.1-5.8-22.3-.6-.5-1.4.3-.8.8,5.5,4.7,3.9,9.7,4.4,16,.3,4.6,2.7,8.9,2.9,13.6.3,7.3-4.4,15.7,2,21.6a.57.57,0,1,0,.8-.8Z" transform="translate(-52.98 -261.28)"/></svg>