<svg id="Layer_1" data-name="Layer 1" xmlns="http://www.w3.org/2000/svg" viewBox="0 0 75.53 131.9"><defs><style>.cls-1{fill:#99d09c;}.cls-2{fill:none;stroke:#000;stroke-miterlimit:10;stroke-width:0.1px;}.cls-3{fill:#85ca9c;}</style></defs><title>Straplesstop</title><g id="_Group_" data-name="&lt;Group&gt;"><path class="cls-1" d="M103.4,146.7a15.79,15.79,0,0,1,10.3-5.9,31.4,31.4,0,0,1,7.5.2,91.52,91.52,0,0,1,11.6,2.3,11.54,11.54,0,0,1,2.7,4.5,34.92,34.92,0,0,1,2.1,8.9h0a4.3,4.3,0,0,1,0,1.6,14.6,14.6,0,0,1-8.2,11.9c0,.2-.1.4-.1.6l-.6-.1a379.23,379.23,0,0,0-4.2,42.6,34.48,34.48,0,0,0,.7,11.1h.1c1.3,13.3,2.8,26.7,7.7,39.1v.9c-3.7,2.6-8.3,3.3-12.8,4-1.7.3-3.4.5-5.1.8a59.29,59.29,0,0,1-5.9.7c-2,.1-4.1,0-6.1-.1-2.7-.1-5.4-.3-8.1-.4a97.24,97.24,0,0,1-17.9-2.1,44.47,44.47,0,0,1-9.8-3.6l.1-.2c4.8-12.4,6.4-25.8,7.7-39.1h.1a34.47,34.47,0,0,0,.7-11.1,399.06,399.06,0,0,0-4.1-42.2l-.6.1a2.77,2.77,0,0,1-.1-.9,14.6,14.6,0,0,1-8.2-11.9V157h0a34.68,34.68,0,0,1,2.1-9,10.87,10.87,0,0,1,2.7-4.5,91.52,91.52,0,0,1,11.6-2.3,26.94,26.94,0,0,1,7.5-.2,15.5,15.5,0,0,1,10.7,6.6h.1a13.09,13.09,0,0,1,2.4,3.7l.2.1a14.48,14.48,0,0,1,3.2-4.7Z" transform="translate(-62.29 -139.24)"/><path class="cls-2" d="M67.3,263.4c4.8-12.4,6.4-25.8,7.7-39.1.1-.6.1-1.3.2-1.9" transform="translate(-62.29 -139.24)"/><path class="cls-2" d="M71,171.2a2.77,2.77,0,0,1-.1-.9c-.1-.4-.1-.8-.2-1.2" transform="translate(-62.29 -139.24)"/><path class="cls-2" d="M63.5,154.5a4,4,0,0,0-.7,2.4v1.4A14.6,14.6,0,0,0,71,170.2h.1" transform="translate(-62.29 -139.24)"/><path class="cls-2" d="M62.6,158.2c0-.4.1-.9.1-1.3a34.68,34.68,0,0,1,2.1-9,10.87,10.87,0,0,1,2.7-4.5l.2-.2" transform="translate(-62.29 -139.24)"/><path class="cls-2" d="M67.2,143.4c.1,0,.1,0,.2-.1A91.52,91.52,0,0,1,79,141a26.94,26.94,0,0,1,7.5-.2,15.5,15.5,0,0,1,10.7,6.6" transform="translate(-62.29 -139.24)"/><path class="cls-2" d="M75.1,224.3a34.47,34.47,0,0,0,.7-11.1A399.06,399.06,0,0,0,71.7,171a.6.6,0,0,0-.1-.4" transform="translate(-62.29 -139.24)"/><path class="cls-2" d="M132.9,263.4c-4.8-12.4-6.4-25.8-7.7-39.1-.1-.6-.1-1.3-.2-1.9" transform="translate(-62.29 -139.24)"/><path class="cls-2" d="M129.2,171.2a.6.6,0,0,1,.1-.4c0-.2.1-.4.1-.6.1-.4.1-.8.2-1.2" transform="translate(-62.29 -139.24)"/><path class="cls-2" d="M136.8,154.5a5.68,5.68,0,0,1,.7,2.2,4.3,4.3,0,0,1,0,1.6,14.6,14.6,0,0,1-8.2,11.9h-.1" transform="translate(-62.29 -139.24)"/><path class="cls-2" d="M137.6,158.2c0-.5-.1-1-.1-1.5a34.92,34.92,0,0,0-2.1-8.9,10.87,10.87,0,0,0-2.7-4.5l-.2-.2" transform="translate(-62.29 -139.24)"/><path class="cls-2" d="M133,143.4c-.1,0-.1,0-.2-.1a91.52,91.52,0,0,0-11.6-2.3,26.94,26.94,0,0,0-7.5-.2,16.21,16.21,0,0,0-10.3,5.9,4.23,4.23,0,0,0-.5.7" transform="translate(-62.29 -139.24)"/><path class="cls-2" d="M125.2,224.3a34.47,34.47,0,0,1-.7-11.1,379.23,379.23,0,0,1,4.2-42.6" transform="translate(-62.29 -139.24)"/><path class="cls-2" d="M67.1,263.6h0a46.4,46.4,0,0,0,9.8,3.6,97.25,97.25,0,0,0,17.9,2.1c2.7.1,5.4.3,8.1.4,2,.1,4,.2,6.1.1a56,56,0,0,0,5.9-.7c1.7-.3,3.4-.5,5.1-.8,4.5-.7,9.1-1.4,12.8-4" transform="translate(-62.29 -139.24)"/><path class="cls-2" d="M97.4,147.3a13.09,13.09,0,0,1,2.4,3.7" transform="translate(-62.29 -139.24)"/><path class="cls-2" d="M99.5,151.9a3,3,0,0,1,.5-.7,29.53,29.53,0,0,1,3.4-4.5.1.1,0,0,1,.1-.1" transform="translate(-62.29 -139.24)"/></g><path class="cls-1" d="M81.8,157.1c-.9-.3-1.2-1-1.7-1.9a14.72,14.72,0,0,1-1-2.2c-.4,1.3-.4,1.4,0,.4a8.27,8.27,0,0,0,.6-4.9c-.3-1.1-1.3-2.6-1.5-3.3v3.2a6.37,6.37,0,0,0,.2-.7l-4.2,4.2c3-.5,5.7.8,8.7.1,4.2-1.1,5.9-6.9,2.6-9.9-2.5-2.3-4.7-2.7-8.1-2.2-3.2.5-4.9,4.5-4.2,7.3.9,3.4,4.1,4.7,7.3,4.2.3,0,.6-.1.8-.1H78.1a2.35,2.35,0,0,0,.8.2c-.9-.5-1.8-1-2.6-1.5l.6.6c.9-3.3,1.8-6.6,2.6-9.9-.9.2-2.8-.5-3.8-.6a26.26,26.26,0,0,0-4.9.5,6.12,6.12,0,0,0-4.2,4.2c-1,3.2.4,4.4,1.3,7.1v-3.2c-.5,1.9-1.1,3.5-.9,5.5a20,20,0,0,0,2.3,6.6,14.6,14.6,0,0,0,9.1,7.9c7.6,1.9,10.8-9.6,3.4-11.6Z" transform="translate(-62.29 -139.24)"/><path class="cls-1" d="M119.2,157c0,.4.1-.1.5-.3.7-.4,1.6-.9,2.3-1.4a22.6,22.6,0,0,0,2.6-1.6,7.94,7.94,0,0,0,1.8-1.4c.4-.5,0,.4-1.5.3-1.7-1-3.4-2-5.1-2.9a.52.52,0,0,1,.2.4v-6c-.1.1-.1.2-.2.3-3.8,6.6,6.4,12.7,10.3,6,.1-.1.1-.2.2-.3a6.11,6.11,0,0,0,0-6,6.73,6.73,0,0,0-8.6-2.7c-2.1.9-3.5,2.4-5.4,3.5-4.6,2.7-9.3,6.2-9.1,12.2a6.15,6.15,0,0,0,6,6,6.24,6.24,0,0,0,6-6.1Z" transform="translate(-62.29 -139.24)"/><path class="cls-1" d="M85.1,255.4c-4.4,1.8-8.8,3.5-13.2,5.3a1.2,1.2,0,0,0-.8,1.5c.1.3.2.7.3,1a10.93,10.93,0,0,0,.8-1.5c-.9.2-1.7.3-2.6.5-1.1.2-1.1,1.6-.3,2.2a12.52,12.52,0,0,0,4.1,1.8c.1-.8.2-1.6.3-2.3-.3-.1-.6-.1-1-.2-.3.7-.6,1.5-.9,2.2,1.9.3,3.8.6,5.7,1v-2.3a20.24,20.24,0,0,0-2.6.4v2.4a15.65,15.65,0,0,1,6.8.6v-2.3c-.8,0-1.7.1-2.5.1v2.3a7.86,7.86,0,0,1,5.8.7c.2-.7.4-1.5.6-2.2l-3.6-.3c.1.8.2,1.6.3,2.3a14.37,14.37,0,0,1,7.7.3c.1-.8.2-1.6.3-2.3a31.23,31.23,0,0,0-4.3-.1c-1.3,0-1.7,2.1-.3,2.3a62,62,0,0,0,13.6,1.1c-.1-.8-.2-1.6-.3-2.3a28.86,28.86,0,0,0-2.9.4v2.4c2.6,0,5.2,0,7.9.1a1.2,1.2,0,0,0,0-2.4,43.46,43.46,0,0,0-9.5.7c.4.6.9,1.2,1.3,1.7.3-.6,2.5-.8,3.2-1.2.4-.2.5-.7.8-1,2.9-2,5.6-2.2,9-1.1-.1-.7-.2-1.5-.3-2.2a11,11,0,0,1-5.2,2.2c-1.2.2-1,2,0,2.3a9.78,9.78,0,0,0,6.1.1c-.3-.7-.6-1.5-.9-2.2-.6.3-1.2.5-1.8.8-1.5.4-.8,2.5.6,2.3,3.7-.5,7.4-1,11.1-1.6,3.5-.6,9.3-3.5,12.6-2.5.7.2,1.6-.4,1.5-1.1a2.26,2.26,0,0,0-1.1-2.1,1.21,1.21,0,0,0-1.8,1c.1.5.1,1,.2,1.6a1.18,1.18,0,0,0,1.8,1,2.13,2.13,0,0,0,.5-3.6,1.24,1.24,0,0,0-1.7,0c-4,4.8-9.9,2.3-11.6-3.1-1-3.2-1.2-6.9-1.5-10.2-.5-6.2-.5-12.5-.8-18.8-.6-11.4-2.7-22.8-4.3-34.2l-2.3.6c1.9,11,4,21.9,9.3,31.8a1.19,1.19,0,0,0,2.2-.6c.2-2.5.5-5,.7-7.4l-2.2.6a19.66,19.66,0,0,1,1.6,4,1.17,1.17,0,0,0,2.3-.3c0-.7.1-1.4.1-2.1l-2.3.3c.2.6.3,1.2.5,1.8a1.19,1.19,0,0,0,2.3-.6,12,12,0,0,1-1.1-1.2,1.13,1.13,0,0,0-1.1,1.5c.1.5.3.9.4,1.4a1.19,1.19,0,0,0,2.3-.6c-.2-.7-.4-1.5-.6-2.2l-2.3.6c1,2.2.5,3.7-1.7,4.6-2.2,3-4.4,2.2-6.4-2.3,1-1.5,2-2.9,3-4.4,3-.5,4.7.5,5.2,3l2.2-.6c-1.4-3.2-5.8-4.3-6.7-7.7a1.19,1.19,0,0,0-2.3.6c1,3.9,5.4,4.7,6.9,8.2.5,1.1,2.2.5,2.2-.6-.2-8.5-14.9-6.2-12.7,2.8,2.1,8.8,15.5,4.7,12.6-4.3a1.19,1.19,0,0,0-2.3.6c.2.7.4,1.5.6,2.2l2.3-.6c-.1-.5-.3-.9-.4-1.4a14.31,14.31,0,0,0-1.1,1.5,2.07,2.07,0,0,0,2.4-1.8,1.23,1.23,0,0,0-.5-1.3,3,3,0,0,0-.7-.5,1.05,1.05,0,0,0-1.2,0,2,2,0,0,0-.8.4,1.14,1.14,0,0,0-.5,1.3l.3,1.5,2.3-.6c-.2-.6-.3-1.2-.5-1.8a1.18,1.18,0,0,0-2.3.3c0,.7-.1,1.4-.1,2.1l2.3-.3a36.56,36.56,0,0,0-1.8-4.6c-.6-1.2-2.1-.5-2.2.6-.2,2.5-.5,5-.7,7.4l2.2-.6c-5.2-9.7-7.2-20.5-9.1-31.2-.3-1.5-2.5-.9-2.3.6,1.2,8.8,2.7,17.5,3.6,26.3.9,8.6.7,17.3,1.4,26,.4,5.4.4,13.5,5.4,17,4,2.8,8.8,1.6,11.8-2h-1.7v-.2c.6.3,1.2.7,1.8,1-.1-.5-.1-1-.2-1.6-.6.3-1.2.7-1.8,1h0A14.31,14.31,0,0,1,132,264c-3.8-1.2-7,1.1-10.8,1.9A135,135,0,0,1,107,268c.2.8.4,1.5.6,2.3a3.81,3.81,0,0,0,2.4-1.1,1.21,1.21,0,0,0-.9-2.2,6.63,6.63,0,0,1-4.8-.1v2.3a11.45,11.45,0,0,0,5.8-2.4,1.22,1.22,0,0,0-.3-2.2c-3.4-1.1-7.1-1.3-10.3.6-1.2.7-2.7,1.7-3.7,2.4s-1.2.4-1.7,1.4a1.15,1.15,0,0,0,1.3,1.7,33.1,33.1,0,0,1,8.9-.6v-2.4c-2.6,0-5.2,0-7.9-.1a1.2,1.2,0,0,0,0,2.4,8.89,8.89,0,0,0,3.6-.4,1.17,1.17,0,0,0-.3-2.3,61.83,61.83,0,0,1-12.9-1c-.1.8-.2,1.6-.3,2.3a30.51,30.51,0,0,1,4.3.1,1.17,1.17,0,0,0,.3-2.3,17.17,17.17,0,0,0-9-.3c-1.4.3-.9,2.2.3,2.3l3.6.3a1.19,1.19,0,0,0,.6-2.2,11.76,11.76,0,0,0-7.6-1,1.2,1.2,0,0,0,0,2.3,6.63,6.63,0,0,0,3.7-.1,1.2,1.2,0,0,0,0-2.3,16.88,16.88,0,0,0-7.4-.7c-1.5.2-1.6,2.4,0,2.4a9.46,9.46,0,0,0,3.3-.5c1.1-.3,1.2-2.1,0-2.3-1.9-.3-3.8-.6-5.7-1a1.21,1.21,0,0,0-.9,2.2c.9.7,1,.7,2.2.5s1.7-2,.3-2.3a6.63,6.63,0,0,1-3.5-1.6c-.1.7-.2,1.5-.3,2.2.9-.2,1.7-.3,2.6-.5a1.2,1.2,0,0,0,.8-1.5c-.1-.3-.2-.7-.3-1a10.93,10.93,0,0,0-.8,1.5c4.4-1.8,8.8-3.5,13.2-5.3.9-.4.3-2.7-1.1-2.1Z" transform="translate(-62.29 -139.24)"/><path class="cls-1" d="M81.4,228.3a12.25,12.25,0,0,1,.2-1.9.64.64,0,0,0-.9-.7,2.89,2.89,0,0,0-1.2,1.5c.3-.1.7-.2,1-.3-.1-.2-.1-.3-.2-.5.1-.6-.7-1.1-1.1-.5-.2.1-.3.3-.5.4.3.2.5.4.8.6a6,6,0,0,0-.2-2.3.56.56,0,0,0-1.1,0c-.1.2-.1.3-.2.5.4.1.8.1,1.2.2a1,1,0,0,0-.4-.9c-.1-.1-1-.6-1-.7-.4-.1-.8-.2-1.1-.3a1.22,1.22,0,0,1-.4.9c.3.1.7.3,1,.4v-1.1c0-.6-1.1-.8-1.2-.2-.1.8-.3,1.6-.4,2.4s.9,1,1.1.3a9.93,9.93,0,0,0,.5-3c0-.6-.9-.8-1.1-.3a8.3,8.3,0,0,0-.6,2.1h1.2v-.7a.6.6,0,1,0-1.2,0v.4a.6.6,0,1,0,1.2,0v-.4H75.6v.7a.6.6,0,1,0,1.2,0,3.71,3.71,0,0,1,.4-1.5l-1.1-.3a7.51,7.51,0,0,1-.5,2.6c.4.1.8.2,1.1.3.1-.8.3-1.6.4-2.4-.4-.1-.8-.1-1.2-.2v1.1c0,.5.7.8,1,.4a2.35,2.35,0,0,0,.7-1.4c.1-.7-1-1.1-1.1-.3a.92.92,0,0,0,.2,1c.2.2,1.2.7,1.2.9a.62.62,0,0,0,1.2.2c.1-.2.1-.3.2-.5H78.2a4.57,4.57,0,0,1,.2,2,.64.64,0,0,0,.8.6,1.72,1.72,0,0,0,1.2-1c-.4-.2-.7-.3-1.1-.5a1.77,1.77,0,0,0,.5,1.7.64.64,0,0,0,1-.3,1.12,1.12,0,0,1,.7-.8,5.5,5.5,0,0,1-.9-.7,16.35,16.35,0,0,0-.2,2.2c-.2,1.1,1,1.1,1,.3Z" transform="translate(-62.29 -139.24)"/><path class="cls-1" d="M123.1,229.7c-.1-1.4-.2-2.8-.3-4.1h-1.2a11,11,0,0,0,.6,2.6.56.56,0,0,0,1.1,0,10.08,10.08,0,0,0,.5-2.5h-1.2a7.8,7.8,0,0,0,.3,2.2c.1.5,1.1.6,1.1,0a8.78,8.78,0,0,0-.1-2.8c-.1-.7-1.2-.5-1.2.2v1c.4-.1.8-.1,1.2-.2a2,2,0,0,1,0-1.5c-.4-.1-.8-.1-1.2-.2v1.3a.59.59,0,0,0,1.1.3,1.76,1.76,0,0,0,.2-1.4.62.62,0,0,0-1.2.2,7.57,7.57,0,0,0,.1,1.5.6.6,0,1,0,1.2,0v-.9h-1.2c.1.6.1,1.3.2,1.9s1,.9,1.2.2a5.92,5.92,0,0,0,.1-1.9h-1.2c0,.4.1.7.1,1.1h1.2c-.1-1.1-.3-2.1-.4-3.2-.1-.7-1.3-.8-1.2,0,.2,2.3.4,4.7.5,7.1a.6.6,0,1,0,1.2,0c-.1-2.4-.3-4.7-.5-7.1h-1.2c.1,1.1.3,2.1.4,3.2.1.7,1.3.8,1.2,0,0-.4-.1-.7-.1-1.1-.1-.7-1.3-.8-1.2,0a4.33,4.33,0,0,1-.1,1.6c.4.1.8.1,1.2.2-.1-.6-.1-1.3-.2-1.9s-1.2-.8-1.2,0v.9h1.2a7.57,7.57,0,0,0-.1-1.5c-.4.1-.8.1-1.2.2v.5l1.1.3v-1.3a.62.62,0,0,0-1.2-.2,3.75,3.75,0,0,0,0,2.1.62.62,0,0,0,1.2-.2v-1c-.4.1-.8.1-1.2.2a5,5,0,0,1,.1,2.1h1.1a5.84,5.84,0,0,1-.2-1.9.6.6,0,1,0-1.2,0,8.51,8.51,0,0,1-.4,2.2h1.1a18.92,18.92,0,0,1-.5-2.3c-.1-.7-1.2-.8-1.2,0,.1,1.4.2,2.8.3,4.1.1.7,1.3.7,1.3,0Z" transform="translate(-62.29 -139.24)"/><path class="cls-1" d="M124.2,226.7c-.1-.4-.1-.9-.2-1.3-.4.1-.8.1-1.2.2a6.28,6.28,0,0,1,.3,1.9.6.6,0,1,0,1.2,0v-2.1l-1.1.3a1.27,1.27,0,0,1,.1.6h1.1a15.52,15.52,0,0,1-.4-2.1.6.6,0,1,0-1.2,0,20,20,0,0,0,.4,2.4c.2.5,1,.6,1.1,0a2.62,2.62,0,0,0-.2-1.5c-.2-.6-1.1-.2-1.1.3v2.1h1.2a7.8,7.8,0,0,0-.4-2.2c-.2-.6-1.3-.5-1.2.2.1.4.1.9.2,1.3.4.6,1.5.6,1.4-.1Z" transform="translate(-62.29 -139.24)"/><path class="cls-3" d="M71.2,170.8c6,4.7,15.8,2.1,21.8-1.4a.58.58,0,1,0-.6-1c-5.4,3.2-14.8,5.9-20.3,1.6-.7-.5-1.5.3-.9.8Z" transform="translate(-62.29 -139.24)"/><path class="cls-3" d="M128.8,170.4c-5.5,4.3-14.9,1.6-20.3-1.6a.58.58,0,1,0-.6,1c5.9,3.5,15.8,6,21.8,1.4.6-.5-.3-1.3-.9-.8Z" transform="translate(-62.29 -139.24)"/><path d="M71.7,170.3c-4.1-4.1-8.4-7.6-8.2-13.9.1-4.8,1.3-9.6,4.8-13,.5-.5-.3-1.4-.8-.8-3.8,3.7-5,8.7-5.2,13.8-.3,6.7,4,10.4,8.5,14.8a.64.64,0,0,0,.9-.9Z" transform="translate(-62.29 -139.24)"/><path d="M67.5,144.2c5.2-4.7,13.3-4.2,19.8-2.9,6,1.2,9.6,5.3,12.1,10.7.3.7,1.3.1,1-.6-2.9-6.3-7.2-10.4-14.3-11.5-6.8-1-14.1-1.5-19.6,3.4-.4.5.4,1.4,1,.9Z" transform="translate(-62.29 -139.24)"/><path d="M75.5,225.5c1.4-18-1.5-36-3.8-53.8-.1-.7-1.3-.8-1.2,0,2.3,17.8,5.2,35.8,3.8,53.8-.1.8,1.1.8,1.2,0Z" transform="translate(-62.29 -139.24)"/><path d="M74.7,224.4c-1.7,6.4-1.4,13.1-2.9,19.5-1.6,6.8-3.4,13.6-5.2,20.4-.2.7,1,1.1,1.1.3,1.7-6.8,3.6-13.6,5.2-20.4,1.5-6.4,1.2-13.1,2.9-19.5.3-.7-.9-1.1-1.1-.3Z" transform="translate(-62.29 -139.24)"/><path d="M133.5,144.1c-5.4-4.9-12.7-4.4-19.6-3.4s-11.3,5.2-14.3,11.5c-.3.7.7,1.3,1,.6,2.5-5.4,6.1-9.5,12.1-10.7,6.5-1.3,14.6-1.8,19.8,2.9.7.4,1.5-.4,1-.9Z" transform="translate(-62.29 -139.24)"/><path d="M129.3,171.9c4.5-4.4,8.8-8.1,8.5-14.8-.2-5.1-1.4-10.2-5.2-13.8-.5-.5-1.4.3-.8.8,3.5,3.4,4.7,8.2,4.8,13,.2,6.3-4,9.9-8.2,13.9-.5.6.4,1.5.9.9Z" transform="translate(-62.29 -139.24)"/><path d="M125.8,226.3c-1.4-18,1.5-36,3.8-53.8.1-.8-1.1-.8-1.2,0-2.3,17.8-5.2,35.8-3.8,53.8.1.7,1.3.7,1.2,0Z" transform="translate(-62.29 -139.24)"/><path d="M124.2,225.4c1.7,6.4,1.4,13.1,2.9,19.5,1.6,6.8,3.4,13.6,5.2,20.4a.57.57,0,0,0,1.1-.3c-1.7-6.8-3.6-13.6-5.2-20.4-1.5-6.4-1.2-13.1-2.9-19.5-.1-.7-1.3-.4-1.1.3Z" transform="translate(-62.29 -139.24)"/><path d="M67.5,264.7c3.3,3,8,3.1,12.2,3.8a159.83,159.83,0,0,0,16.9,2.4,94.24,94.24,0,0,0,36.1-4.5c.7-.2.4-1.4-.3-1.1a94.59,94.59,0,0,1-32.1,4.6,120.89,120.89,0,0,1-15.9-1.8c-4.7-.8-12.3-.8-16-4.2-.6-.5-1.5.3-.9.8Z" transform="translate(-62.29 -139.24)"/></svg>