<svg id="Layer_1" data-name="Layer 1" xmlns="http://www.w3.org/2000/svg" viewBox="0 0 81.25 304.42"><defs><style>.cls-1{fill:#b76bf1;}.cls-2{fill:none;stroke:#b76bf1;stroke-miterlimit:10;}</style></defs><title>Straplong</title><path d="M121.1,106.7c.2-.4,1.6-.1,1.9,0,.7.1,1.3.1,2,.2s.8-1.1,0-1.2l-3.3-.3a1.64,1.64,0,0,0-1.6.7c-.3.6.7,1.3,1,.6Z" transform="translate(-59.29 -105.4)"/><g id="_Group_" data-name="&lt;Group&gt;"><path class="cls-1" d="M81.8,130.2H82c0,.4.6.6,1,.7,11.4,1.9,23-1.1,34.5-.4l2.6-.2c-.2-7.9-.1-15.8.2-23.7v-.7l4.6.3.2.4a195.4,195.4,0,0,0,0,24.2l.1.3a33.76,33.76,0,0,1,6.9,2.6,12.19,12.19,0,0,1,5.1,5.2,14.94,14.94,0,0,1,1.1,4,97.79,97.79,0,0,1,1.3,12h-.3a19.91,19.91,0,0,1-7.4,13.3,11.1,11.1,0,0,1-2.7,1.7l-.6.3q-4.2,31.2-6.3,62.6v.4c-.5,3.8,1.8,7.4,3.7,10.7a96.05,96.05,0,0,1,12.7,48.5l-.4.1a327,327,0,0,1-.9,57.7v.1c-25.2,1.8-50.6,3.7-75.8.7l.1-.8a327.16,327.16,0,0,1-.9-57.7l-.4-.1a95.79,95.79,0,0,1,12.7-48.5c1.9-3.3,4.1-6.9,3.7-10.7v-.4c-1.4-21.1-3.6-42.1-6.3-63l.3-.1c-.1-.3-.1-.5-.2-.8l.2-.3a3,3,0,0,0-.7-.5,21.25,21.25,0,0,1-7.4-13.3h-.3a95.72,95.72,0,0,1,1.3-12,16.82,16.82,0,0,1,1.1-4,12.17,12.17,0,0,1,5.1-5.2,31.7,31.7,0,0,1,6.9-2.6l.1-.3c.4-8.1.4-16.1,0-24.2v-.3a24.62,24.62,0,0,0,2.6.2l2.2.1C81.9,114.5,82,122.3,81.8,130.2Z" transform="translate(-59.29 -105.4)"/><path class="cls-2" d="M70.5,170q4.2,31.35,6.3,63" transform="translate(-59.29 -105.4)"/><path class="cls-2" d="M76.8,233.4c.5,3.8-1.8,7.4-3.7,10.7a96.05,96.05,0,0,0-12.7,48.5" transform="translate(-59.29 -105.4)"/><path class="cls-2" d="M60.8,292.8a327,327,0,0,0,.9,57.7" transform="translate(-59.29 -105.4)"/><path class="cls-2" d="M61.4,351.3h.2c25.1,3,50.5,1.1,75.8-.7" transform="translate(-59.29 -105.4)"/><path class="cls-2" d="M128.6,170v.3q-4.2,31.2-6.3,62.6" transform="translate(-59.29 -105.4)"/><path class="cls-2" d="M122.3,233.4c-.5,3.8,1.8,7.4,3.7,10.7a96.05,96.05,0,0,1,12.7,48.5" transform="translate(-59.29 -105.4)"/><path class="cls-2" d="M138.3,292.8a327,327,0,0,1-.9,57.7" transform="translate(-59.29 -105.4)"/><path class="cls-2" d="M70.8,170.5a4.33,4.33,0,0,0-.1-.5c-.1-.3-.1-.5-.2-.8" transform="translate(-59.29 -105.4)"/><path class="cls-2" d="M62.6,155A19.91,19.91,0,0,0,70,168.3a3,3,0,0,0,.7.5,8.18,8.18,0,0,0,2,1.2,9.94,9.94,0,0,0,3.4.8,18,18,0,0,0,12.5-3.3,16.42,16.42,0,0,0,6.5-11.1" transform="translate(-59.29 -105.4)"/><path class="cls-2" d="M62.3,155.7V155a95.72,95.72,0,0,1,1.3-12,16.82,16.82,0,0,1,1.1-4,12.17,12.17,0,0,1,5.1-5.2,31.7,31.7,0,0,1,6.9-2.6" transform="translate(-59.29 -105.4)"/><path class="cls-2" d="M76.8,130.8c.4-8.1.4-16.1,0-24.2" transform="translate(-59.29 -105.4)"/><path class="cls-2" d="M81.8,130.3v-.2c.2-7.8.1-15.7-.2-23.5" transform="translate(-59.29 -105.4)"/><path class="cls-2" d="M82,130.2c0,.4.6.6,1,.7,11.4,1.9,23-1.1,34.5-.4a6.15,6.15,0,0,1,1.3.1" transform="translate(-59.29 -105.4)"/><path class="cls-2" d="M139.3,155a19.91,19.91,0,0,1-7.4,13.3,11.1,11.1,0,0,1-2.7,1.7l-.6.3a13.1,13.1,0,0,1-2.7.6,18,18,0,0,1-12.5-3.3,16.42,16.42,0,0,1-6.5-11.1" transform="translate(-59.29 -105.4)"/><path class="cls-2" d="M139.7,155.7V155a95.72,95.72,0,0,0-1.3-12,16.82,16.82,0,0,0-1.1-4,12.17,12.17,0,0,0-5.1-5.2,31.7,31.7,0,0,0-6.9-2.6" transform="translate(-59.29 -105.4)"/><path class="cls-2" d="M125.2,130.8c-.4-8.1-.4-16.1,0-24.2" transform="translate(-59.29 -105.4)"/><path class="cls-2" d="M120.2,130.3c-.2-7.9-.1-15.8.2-23.7" transform="translate(-59.29 -105.4)"/><path class="cls-2" d="M76.5,106.3h.3a24.62,24.62,0,0,0,2.6.2,8.6,8.6,0,0,0,1.6-.1" transform="translate(-59.29 -105.4)"/><path class="cls-2" d="M120.3,106h.2l4.6.3" transform="translate(-59.29 -105.4)"/></g><path class="cls-1" d="M70.8,354.8a3.52,3.52,0,0,0-2.7-2.9c1.7,12.2,3.8,24.4,6.4,36.4a4.82,4.82,0,0,1-1.5-4.1,28.77,28.77,0,0,1,2.8,9.9,8.73,8.73,0,0,1-1.9-4.8l3.3,12.9c2.5-.1,4.9-.2,7.4-.4a1.34,1.34,0,0,0,.9-.2,1.74,1.74,0,0,0,.5-1.4c.5-9.1-4.7-17.5-7.5-26.2A59.68,59.68,0,0,1,76,360.1c-.2-3.3.1-7.1,2.7-9.1a7.51,7.51,0,0,1,5.3-1.2,52.28,52.28,0,0,1,5.4,1.2,47.17,47.17,0,0,0,23.6.2,33.92,33.92,0,0,1,6.2-1.2c2-.1,4.1.4,6.1.4a28.21,28.21,0,0,0,6.4-.9c-1.7,11.6-3.3,23.3-5,34.9a125.78,125.78,0,0,1-2.7,14.9c-.1.3-.2.5-.3.8-.4.5-1.2.4-1.9.3-5.8-1-11.6,0-17.5,0s-12.1-1.2-16.1-5.5a25.5,25.5,0,0,1-3.7-6.1,123.49,123.49,0,0,1-6.7-21.4c-.4-1.5-.7-3.2.1-4.6a6.36,6.36,0,0,1,2-2c2.4-1.7,5.7-3,8.2-1.4,2.3,1.5,2.7,4.7,2.6,7.5A42,42,0,0,1,87.5,381a3.8,3.8,0,0,1-1.7,2.2,2.7,2.7,0,0,1-2.8-.7,6.34,6.34,0,0,1-1.4-2.7c-2.1-7.9,1.1-16.4,6.4-22.6.6-.7,1.4-1.5,2.3-1.4a2.74,2.74,0,0,1,1.7,1.3c3.7,5.1,3.1,12.2,1,18.2a6.91,6.91,0,0,1-1.7,3,2.59,2.59,0,0,1-3.2.4,3.82,3.82,0,0,1-1.2-1.8,13.17,13.17,0,0,1,0-7.1,20.77,20.77,0,0,1,5.1-9.3c.7-.7,1.6-1.5,2.6-1.3s1.8,1.2,2.2,2.2a25.16,25.16,0,0,1,1.5,9.8,92.35,92.35,0,0,1-1.6,17.4c-.2.9-.5,1.9-1.3,2.1-1.4-2.5-1.5-5.5-1.4-8.3.1-5.1.8-10.5,4-14.5a1.84,1.84,0,0,1,1.4-.9c.8,0,1.3.7,1.6,1.4,1.2,2.8.9,5.9.3,8.8A64.8,64.8,0,0,1,96.8,392c-.2.4-.5.9-.9,1-.7.1-1.1-.8-1.3-1.6a35,35,0,0,1,3.2-20.9c.4-.9,1.1-1.9,2.1-1.8,1.2.1,1.6,1.6,1.6,2.8A28.33,28.33,0,0,1,98,385.8c-.1.2-.2.4-.4.4-.5.2-.9-.4-1-.8-1.6-4.8-.4-10.1,1.3-14.9a76,76,0,0,1,5.6-12.3c.3-.5.8-1.2,1.4-.9a1.31,1.31,0,0,1,.6,1.2,28.52,28.52,0,0,1-2.9,16.5,3.64,3.64,0,0,1-.4-2.7A36.78,36.78,0,0,1,108,356c2.1,4,1.2,8.9.1,13.4a45.22,45.22,0,0,1,3.8-13,4.45,4.45,0,0,1-.4,3.2,7.45,7.45,0,0,1,2-4.5c-.8,4.6-1.6,9.2-2.3,13.8a24,24,0,0,1,3.3-14.3,80.45,80.45,0,0,1-1.3,15.5,110,110,0,0,1,2.8-15c1,1,.9,2.5.7,3.9q-.6,4.8-1.5,9.6a79.69,79.69,0,0,1,3.9-14.3,28.56,28.56,0,0,1-.5,12,41.43,41.43,0,0,1,2-9.9,13.06,13.06,0,0,1,0,5.9c-.5,3.5-1.1,7.1-1.6,10.6a38.37,38.37,0,0,1,2-12.1,166.88,166.88,0,0,1-2.3,22.3,29.78,29.78,0,0,1,1.1-8.9,34.19,34.19,0,0,1-1.5,14.2,6.75,6.75,0,0,1-.1-8,12.51,12.51,0,0,1-2.1,8.6c-.6.8-1.6,1.7-2.5,1.2a2,2,0,0,1-.8-1,8.67,8.67,0,0,1,.4-8.4c.2-.3.5-.7.9-.6.6,0,.8.8.7,1.4a15.88,15.88,0,0,1-3.7,9.2,2.14,2.14,0,0,1-1.6,1,1.74,1.74,0,0,1-1.5-1.1,9.54,9.54,0,0,1-1.1-7.4,18.92,18.92,0,0,1,3.4-6.8c.6-.9,1.4-1.8,2.5-1.7a35.46,35.46,0,0,1-6.2,14.2,20.48,20.48,0,0,1,3.7-14.8,34.08,34.08,0,0,1-4.5,16.8c-.2.4-.7.9-1.1.7a1,1,0,0,1-.4-.5,3.67,3.67,0,0,1,.7-3.5,2.23,2.23,0,0,1,0,3.2,3.71,3.71,0,0,1-3.3.9c-.1-.5-.1-1-.2-1.5a3.12,3.12,0,0,1-4.6-1.8" transform="translate(-59.29 -105.4)"/><path class="cls-1" d="M76.6,353.2c-1.1-3-2.5-5.1-5.4-6.5-5.1-2.4-9.5,1.5-8.8,6.8,1.7,12.2,3.8,24.4,6.4,36.4,3.3-1.9,6.7-3.9,10-5.8.1.1.2.1.3.2l-11.2,3a23.77,23.77,0,0,1,2,6.9l11.2-3a6.22,6.22,0,0,1-1.3-3.4c-3.9,1.1-7.7,2.1-11.6,3.2l3.3,12.9a6.12,6.12,0,0,0,5.8,4.4c4.5-.2,10.6.7,13.5-3.5,2.3-3.3,1.4-8.2.7-11.9-1.9-10.4-8-19.3-9.1-29.9-.2-1.5-.9-4.8-.1-6.1,1-1.7,3.9-.2,5.6.2a54.5,54.5,0,0,0,16.1,1.7c5-.2,9.6-1.8,14.5-2.4,2.3-.3,4.6.3,6.9.3a42.8,42.8,0,0,0,8-1.1l-7.4-7.4c-2,13.8-3.7,27.7-6,41.5-.2,1.4-1,3.3-.9,4.7-1,2.1-.6,2.4,1.1,1.1,2.2-.7,2-1-.4-1-2.8-.9-6.8-.1-9.7.1-5.3.3-12.2,1.1-16.6-2.5-4.2-3.4-5.8-11-7.3-15.9-.7-2.4-3.1-7.5-2.6-10-.2.1-.4.1-.6.2a7.68,7.68,0,0,1,1.8-1c.7-.6-.1-1.3-.1-.1a42,42,0,0,1-1,8.6c-.2.7-1.6,3.7-1.3,4.4,4,2,5.6,1.9,4.9-.3a7.61,7.61,0,0,1-.3-2.1,18.17,18.17,0,0,1,1.3-7.3,31.68,31.68,0,0,1,2.1-4.1c.4-.6,2.3-2.6,1.5-2.3l-4.6-.6c1.3.6,1.4,3.8,1.4,4.9.1,2.1-1.5,5.2-1.2,7q-1,2.1,2.4.6c2,.7,2.9.4,2.8-1.1a24.91,24.91,0,0,0,.8-3.2c.5-1.3,2-4.1,2.8-4.3l-4.6-.6c1.4.6.7,9.4.7,10.7-.1,1.9-.2,3.9-.4,5.8a30.34,30.34,0,0,1-.6,4.2c-.5,2.1-.6,2.5-.1,1.4l9.4,1.2c-1.1-2.6-.7-6.4-.3-9.1a22.09,22.09,0,0,1,.8-3.7c.5-1.4,2.6-3.1,0-2.1l-4.6-.6q-1.2-1.65-.6.6a7.57,7.57,0,0,1-.1,1.5,26.44,26.44,0,0,1-1.1,5.6,39.74,39.74,0,0,1-1.5,4.9l-.9,2.4c-1.1,2.1-1,2.3.5.6H99c-.3-.2-.6-.3-.9-.5.9,1.2,1.8,2.4,2.8,3.6-1-2.9-.7-6.4-.3-9.4a37.42,37.42,0,0,1,1.2-4.8c.2-.5.4-1,.6-1.6,1.2-1.9,1-2.1-.7-.6l-4.6-.6c-1.2-3-1.7-3.2-1.4-.7a12.42,12.42,0,0,1-.4,3.3c-.3,1.4-.7,4.5-1.7,5.5l5.8-1.5c-.2-.1-.4-.1-.6-.2,1.2.9,2.4,1.8,3.6,2.8-1.6-2.7.6-8.2,1.5-10.9.6-1.6,1.2-3.3,1.9-4.8.5-1,1-2,1.5-3.1q2-2.25-.6-1.2l-5.8-1.5q-1.5-3-.9.3c0,1.2-.1,2.3-.2,3.5a25.4,25.4,0,0,1-2.1,6.6c3.7.5,7.3,1,11,1.4-1.5-4.1,2.6-11,4.7-14.4H103c1.2,2.7.1,6.1-.5,8.7,3.9,1.1,7.7,2.1,11.6,3.2a42.55,42.55,0,0,1,3.2-11.6l-11.2-3c-.1.5-.1,1.1-.2,1.6,3.9,1.1,7.7,2.1,11.6,3.2a4.14,4.14,0,0,1,.5-1.9c-3.3-1.9-6.7-3.9-10-5.8-.8,4.6-1.6,9.2-2.3,13.8,3.9.5,7.9,1.1,11.8,1.6a20.67,20.67,0,0,1,2.4-11.2l-11.2-3a80.62,80.62,0,0,1-1.1,13.9c3.9,1.1,7.7,2.1,11.6,3.2a124,124,0,0,1,2.8-15c-3.7.5-7.3,1-11,1.4,0-.8,0-.7-.1.2a25.35,25.35,0,0,1-.4,2.9c-.3,1.9-.6,3.8-1,5.7-1.4,7.5,10,10.8,11.6,3.2a89,89,0,0,1,3.9-14.3H113.4a24.32,24.32,0,0,1-.5,8.9c3.9.5,7.9,1.1,11.8,1.6a38.36,38.36,0,0,1,1.8-8.3H114.9c.8,4-1,9.3-1.6,13.4,3.9.5,7.9,1.1,11.8,1.6a38.62,38.62,0,0,1,1.8-10.6c-3.9-.5-7.9-1.1-11.8-1.6a181.19,181.19,0,0,1-2,20.7c3.9.5,7.9,1.1,11.8,1.6a30.39,30.39,0,0,1,.9-7.3c-3.9-.5-7.9-1.1-11.8-1.6a31.76,31.76,0,0,1-1.3,12.6c3.7-.5,7.3-1,11-1.4a1.17,1.17,0,0,1-.1-1.9l-11.2-3a9.4,9.4,0,0,1,0,2.9c-1,1.7-.5,1.9,1.4.9l4.2,1.8c.2.5.3.4.1-.3.1-1.3-.7-1.2-2.3.4l-5.8-1.5c.2.2.4.3.6.5l-1.8-4.2c.2,1.7-.6,2.7-.9,4.3-.3.5-.6,1-.8,1.4,4,1.9,5.9,1.6,5.7-.7.5-1,.5-2.4,1.1-3.6.3-.4.5-.9.8-1.3.9-1.1.8-1.2-.2-.2l-7.4-7.4a34.08,34.08,0,0,1-5.6,12.8l11.2,3a16.55,16.55,0,0,1,2.9-11.8l-11.2-3a29,29,0,0,1-1,7.1c-.3,1.1-.7,2.2-1.1,3.3-1.4,1.9-1.1,2.3.9,1.3,2.3.9,4.5,1.8,6.8,2.8a14.16,14.16,0,0,0,.4,2H100c.6-1.6,1.2-3.3,1.9-4.9l6,6c-.1-.5-.1-1-.2-1.5-.4-3.3-3.6-7.5-7.6-5.8.7.3,1.5.7,2.2,1-3.2-7-13.6-.9-10.4,6.1a8.88,8.88,0,0,0,11.3,4.5l-7.6-5.8c.1.5.1,1,.2,1.5.4,3.3,2.4,5.9,6,6,7.1.2,12.6-6.6,8.5-13.2a6.13,6.13,0,0,0-10.4,0c-1.8,3-2.5,7.1-.4,10.1a6.49,6.49,0,0,0,6.8,2.8c4.2-.7,5.8-5.4,7.2-8.8a44.37,44.37,0,0,0,2.8-14.4c.2-6.3-8-7.7-11.2-3a26.84,26.84,0,0,0-4.5,17.8c.6,6,7.7,8.1,11.2,3a42.68,42.68,0,0,0,6.8-15.6,6.09,6.09,0,0,0-7.4-7.4c-9.9,2.2-14.7,21-6.2,27.2,10,7.3,21-13.8,13.3-20.3-1.5-1.3-3.8-2.4-5.8-1.5-7.6,3-9,15.5-2.5,20.5,8.8,6.7,14.8-7.9,14.3-14.5-.4-5.7-8.1-8.5-11.2-3a13.32,13.32,0,0,0,.1,14c2.7,4.5,9.4,3.5,11-1.4a40.1,40.1,0,0,0,1.7-15.8c-.5-6.4-10.1-8.6-11.8-1.6a46.43,46.43,0,0,0-1.3,10.5c0,6.5,10.7,8.4,11.8,1.6a212.74,212.74,0,0,0,2.5-23.9c.3-6.9-9.9-7.9-11.8-1.6a49.63,49.63,0,0,0-2.2,13.7c-.2,6.6,10.7,8.4,11.8,1.6,1-6.4,2.9-13.3,1.6-19.7-1.2-6.1-9.9-5.3-11.6,0a57,57,0,0,0-2.2,11.5c-.7,6.8,10.3,8.1,11.8,1.6a38.94,38.94,0,0,0,.5-15.2c-1-6.6-9.7-4.7-11.6,0a77.49,77.49,0,0,0-3.9,14.3c3.9,1.1,7.7,2.1,11.6,3.2,1.1-5.8,3.2-12.7.2-18.1-2.5-4.5-9.7-3.5-11,1.4a127.73,127.73,0,0,0-2.8,15c-1.1,7.5,10.3,10.9,11.6,3.2a97.93,97.93,0,0,0,1.5-17.1c0-5.8-8.3-8.3-11.2-3a32.56,32.56,0,0,0-4.1,17.3c.3,6.4,10.6,8.6,11.8,1.6.8-4.6,1.6-9.2,2.3-13.8.9-5.2-5.9-11.1-10-5.8a13.94,13.94,0,0,0-3.5,7.2c-1.2,7.5,9.2,10.7,11.6,3.2a13,13,0,0,0,.6-4.8c-.3-5.4-8.5-8.9-11.2-3a53.24,53.24,0,0,0-4.4,14.4c-1.1,7.4,9.8,10.9,11.6,3.2,1.4-6.3,1.9-11.9-.7-18-1.9-4.3-8.2-3.5-10.4,0-3.7,6.1-8.6,16.4-5.9,23.7,1.6,4.4,8.5,6.4,11,1.4,3.1-6.3,5.3-14.1,3.6-21.1-1.6-6.7-9.5-7-13-1.6a57.49,57.49,0,0,0-8,20.3c-1,5.6-1.2,14.7,5.6,16.5a6.12,6.12,0,0,0,5.8-1.5c4-4.6,5.8-12.2,5.6-18.2s-5-12.3-11.5-8.6c-4.9,2.9-6.6,11.1-7.3,16.2-.8,5.7-1.8,15,4.1,18.2a6.05,6.05,0,0,0,6.1,0c5.5-3.5,7.2-13.4,8.2-19.3,1-5.6,1.5-14.2-4.7-17.1-6.8-3.1-11.2,4.4-13,9.9-2.2,7-2.2,15.4.7,22.1,1.6,3.8,6.9,3.5,9.4,1.2,4.7-4.3,4.4-13.9,4.6-19.9s.6-14.6-4.1-19.3c-4.8-4.9-10.9-1.7-14.3,2.9-4,5.2-6.5,12.4-4.9,19,1.4,5.6,6.7,9.2,12.3,6.4s7-11,7.3-16.6c.2-5.2-1-11.9-5.1-15.5-6.2-5.5-12.1.5-15.5,5.8-4.7,7.5-10.2,28.7,3.1,31.3,6.6,1.3,9.6-4.7,11.3-10,1.9-6,3.7-14.2.8-20.2a11.14,11.14,0,0,0-12.9-6c-6.9,1.7-11.7,7.1-10.6,14.3a92.76,92.76,0,0,0,5.6,19.5c2.4,6.2,5.2,12.4,11.2,15.9s13,3.8,19.7,3.5c4.6-.2,9,0,13.6.1,3.2,0,5.9-1,7.4-4,3.4-6.9,3.4-16.6,4.4-24.1,1.3-9.1,2.6-18.1,3.9-27.2.7-4.6-2.5-8.4-7.4-7.4-4.5,1-8.8-.1-13.3.5-5,.7-9.7,2.2-14.8,2.3-8.7.1-20-6.5-27.6.1-6.7,5.8-4.6,16.9-2.9,24.5a86,86,0,0,0,4.9,14,63.37,63.37,0,0,1,2.6,7.3c.3,1,1.6,5.4,1.3,5.9,1.2-.9,2.4-1.8,3.6-2.8-2.1.5-4.6.3-6.7.4,1.9,1.5,3.9,2.9,5.8,4.4l-3.3-12.9c-1.9-7.6-12.8-4.3-11.6,3.2a15.75,15.75,0,0,0,2.5,6.3c3,4.3,12,3.4,11.2-3a45.75,45.75,0,0,0-3.6-13c-2.5-5.5-11.4-2.7-11.2,3a12.85,12.85,0,0,0,3.2,8.3c4,5.1,11.2-.6,10-5.8-2.6-12.1-4.7-24.2-6.4-36.4-2.9,2.3-5.9,4.5-8.8,6.8,0-.2-.1-.4-.1-.7,2.7,6.6,14.3,3.5,11.7-3.8Z" transform="translate(-59.29 -105.4)"/><path class="cls-1" d="M89.8,401.5" transform="translate(-59.29 -105.4)"/><path class="cls-1" d="M89.8,407.5c7.7,0,7.7-12,0-12s-7.7,12,0,12Z" transform="translate(-59.29 -105.4)"/><path class="cls-1" d="M85.8,392.1c-1.7,1.5-.7,4.4,1,5.7a3.45,3.45,0,0,1,.9.8c.6,1-.6,2.2-1.6,2.9a1.42,1.42,0,0,0,1.3.9,4.48,4.48,0,0,1-2,.4,14.41,14.41,0,0,1,6.2,0c-.7.1-1.5.1-2.2.2a173.8,173.8,0,0,0,30.6-1.3" transform="translate(-59.29 -105.4)"/><path class="cls-1" d="M80.6,389.1c-3.5,4.7-.9,10.3,2.9,13.8l-1.8-4.2c.1-.5.1-.9.2-1.4-1.8,1.5-2.4,5.3-.9,7.3s2.6,3,4.9,3.7V396.7c-.1.1-.3.1-.4.2.5,3.9,1.1,7.9,1.6,11.8a7.57,7.57,0,0,1,3,0c.5-3.9,1.1-7.9,1.6-11.8-.7.1-1.5.1-2.2.2-7.6.6-7.8,11.7,0,12a184.42,184.42,0,0,0,30.6-1.3c3.2-.4,6-2.5,6-6,0-2.9-2.8-6.4-6-6a174.21,174.21,0,0,1-30.6,1.3v12c.7-.1,1.5-.1,2.2-.2,6.2-.5,8.8-10.7,1.6-11.8a29.64,29.64,0,0,0-9.4,0c-6.6,1.1-5.1,12.4,1.6,11.8a20.81,20.81,0,0,0,3.6-.6,6.06,6.06,0,0,0,0-11.6,2.35,2.35,0,0,0-.8-.2c1.2.9,2.4,1.8,3.6,2.8a4.23,4.23,0,0,1-.5-.7c-.3,2.4-.6,4.8-.9,7.3a8.34,8.34,0,0,0,3.4-6.6,7.68,7.68,0,0,0-.9-3.6l-.9-1.2c-1-1.3-1.3-1-1,.8,4.5-6.4-5.9-12.4-10.5-6.2Z" transform="translate(-59.29 -105.4)"/><path class="cls-1" d="M116.2,395.8l.3.3" transform="translate(-59.29 -105.4)"/><path class="cls-1" d="M111.9,400.1l.3.3a6.17,6.17,0,0,0,4.2,1.8,6,6,0,0,0,4.2-1.8,6.44,6.44,0,0,0,1.8-4.2,6,6,0,0,0-1.8-4.2l-.3-.3a6.17,6.17,0,0,0-4.2-1.8,6,6,0,0,0-4.2,1.8,6.44,6.44,0,0,0-1.8,4.2,6.9,6.9,0,0,0,1.8,4.2Z" transform="translate(-59.29 -105.4)"/><path class="cls-1" d="M77.9,402.3h-.7c-.2,0-.4,0-.3.1" transform="translate(-59.29 -105.4)"/><path class="cls-1" d="M77.9,396.3h-.7a12.37,12.37,0,0,0-1.8.2,10.41,10.41,0,0,0-1.6.6,6.61,6.61,0,0,0-2.2,2.2,4.39,4.39,0,0,0-.7,2.2,4.89,4.89,0,0,0,.1,2.4,6.14,6.14,0,0,0,1.5,2.6h0a3.87,3.87,0,0,0,1.9,1.2,4.56,4.56,0,0,0,2.3.5,6,6,0,0,0,4.2-1.8,6.44,6.44,0,0,0,1.8-4.2c-.1-.5-.1-1.1-.2-1.6A6.14,6.14,0,0,0,81,398h0c-.4,3.1-.8,6.3-1.2,9.4h.1c-.5.2-1,.4-1.4.6h.1c-.5.1-1.1.1-1.6.2h.9a4.56,4.56,0,0,0,2.3-.5,4.74,4.74,0,0,0,1.9-1.2,6.44,6.44,0,0,0,1.8-4.2,5.81,5.81,0,0,0-1.8-4.2l-1.2-.9a5.29,5.29,0,0,0-3-.9Z" transform="translate(-59.29 -105.4)"/><path class="cls-1" d="M119.6,402c1.2-.7,2.8.3,3.7-.8a3.16,3.16,0,0,0,.6-1.7l.6-3.6" transform="translate(-59.29 -105.4)"/><path class="cls-1" d="M122.6,407.1c-2.4,1.1-2.7.5-1.2.6h.9a7.45,7.45,0,0,0,5.7-2.9c1.7-2.2,1.8-4.8,2.2-7.4a6.19,6.19,0,0,0-.6-4.6A6.73,6.73,0,0,0,126,390c-2.9-.7-6.9.9-7.4,4.2-.1.9-.3,1.8-.4,2.7-.1.4-.1.7-.2,1.1,0,.2-.1.4-.1.6a2.62,2.62,0,0,1,1.7-1.7,2.48,2.48,0,0,1,2.3-1.1h-1.2a8.77,8.77,0,0,0-4.2,1.1c-2.9,1.3-3.8,5.7-2.2,8.2a6.33,6.33,0,0,0,8.3,2Z" transform="translate(-59.29 -105.4)"/><path d="M70.6,169.8c5.2,2.1,10.8,2.3,15.8-.3s7.2-7.2,9-12.1c.3-.7-.9-1-1.2-.3-3.8,10.4-12.3,16.1-23.4,11.6-.6-.3-1,.8-.2,1.1Z" transform="translate(-59.29 -105.4)"/><path d="M77.2,131.2c1.5-8.2-.5-16.4-.5-24.6a.6.6,0,1,0-1.2,0c-.1,8.1,1.9,16.2.5,24.3-.1.7,1.1,1.1,1.2.3Z" transform="translate(-59.29 -105.4)"/><path d="M82.6,130.5c-.3-7.8-.6-15.7-.9-23.5a.6.6,0,1,0-1.2,0c.3,7.8.6,15.7.9,23.5a.6.6,0,1,0,1.2,0Z" transform="translate(-59.29 -105.4)"/><path d="M76.5,106.9c.4-.4,1.7-.2,2.1-.2.7,0,1.4-.1,2.1-.1a.6.6,0,1,0,0-1.2c-1.1,0-2.1.1-3.2.1a2.51,2.51,0,0,0-1.9.5c-.5.6.4,1.4.9.9Z" transform="translate(-59.29 -105.4)"/><path d="M63.3,155.7c-.2-4.6-.7-10.3.6-14.8,1.5-4.8,7.4-7.9,12.1-8.8.8-.1.4-1.3-.3-1.2-4.1.8-9.8,3.3-12,7.1-2.8,4.7-1.9,12.5-1.6,17.6.1.9,1.3.9,1.2.1Z" transform="translate(-59.29 -105.4)"/><path d="M62.1,155.2a23.94,23.94,0,0,0,9.3,14.3c.6.5,1.2-.6.6-1a23.26,23.26,0,0,1-8.8-13.6c-.1-.8-1.3-.5-1.1.3Z" transform="translate(-59.29 -105.4)"/><path d="M70.1,169.6c2.4,10.6,3.1,21.8,4.2,32.6,1.2,11,2.4,22,2.3,33.1a.6.6,0,1,0,1.2,0c.1-11.7-1.2-23.4-2.5-35-1.1-10.3-1.8-20.9-4.1-31-.1-.8-1.3-.4-1.1.3Z" transform="translate(-59.29 -105.4)"/><path d="M76.5,235.5c-.1,3.5-2.7,7.2-4.2,10.2-1.3,2.6-2.7,5.2-4,7.7A57.87,57.87,0,0,0,63,266.6c-2.4,9.8-2.8,20.1-3.7,30.1-.1.8,1.1.8,1.2,0,1.1-11,1.2-22.6,4.6-33.2,1.7-5.4,4.8-10.4,7.4-15.5,2-3.8,5.2-8.1,5.3-12.5-.1-.8-1.3-.8-1.3,0Z" transform="translate(-59.29 -105.4)"/><path d="M130.7,167.9c-10.6,4-19.3-.7-23.4-10.9-.3-.7-1.4-.4-1.2.3,2,5,4.5,9.4,9.6,11.7a19.55,19.55,0,0,0,15.2,0c.9-.2.5-1.4-.2-1.1Z" transform="translate(-59.29 -105.4)"/><path d="M59.3,296.2c.1,10.2.1,20.3.3,30.5.2,7.9.4,16.2,2.1,24,.2.8,1.3.4,1.2-.3-1.8-8-2-17-2.1-25.3-.1-9.6-.2-19.2-.3-28.9a.6.6,0,1,0-1.2,0Z" transform="translate(-59.29 -105.4)"/><path d="M72.4,408.4c18.2,2.1,37.7,2,55.8-1.2.8-.1.4-1.3-.3-1.2-18,3.3-37.3,3.3-55.5,1.2-.8-.1-.8,1.1,0,1.2Z" transform="translate(-59.29 -105.4)"/><path d="M120.6,130a235.85,235.85,0,0,1,.3-23.8.6.6,0,1,0-1.2,0,236.22,236.22,0,0,0-.3,23.8c.1.8,1.3.8,1.2,0Z" transform="translate(-59.29 -105.4)"/><path d="M125.8,131.2c-.1-8.2-.1-16.4-.2-24.7a.6.6,0,1,0-1.2,0c.1,8.2.1,16.4.2,24.7,0,.7,1.2.7,1.2,0Z" transform="translate(-59.29 -105.4)"/><path d="M82.1,131.6c1.9-.2,4.2.7,6.2.6,3.5-.1,6.9-.5,10.4-.7,6.9-.4,13.9-.6,20.8-.7a.6.6,0,1,0,0-1.2c-6.9.1-13.9.3-20.8.7-3.2.2-6.4.5-9.6.6-2.4.1-4.7-.8-6.9-.6-.8.2-.8,1.4-.1,1.3Z" transform="translate(-59.29 -105.4)"/><path d="M125.6,132c9.6.4,13.2,10.8,13.5,18.7.3,7.7-2.7,15.9-10.8,18-.7.2-.4,1.4.3,1.2,17.1-4.5,15.6-38.2-3-39.1-.8-.1-.8,1.1,0,1.2Z" transform="translate(-59.29 -105.4)"/><path d="M128,169.8c-2.4,21.8-4.2,43.6-6.2,65.4-.1.8,1.1.8,1.2,0,2-21.8,3.8-43.6,6.2-65.4.1-.8-1.1-.8-1.2,0Z" transform="translate(-59.29 -105.4)"/><path d="M122.1,234.5c-.8,4.1,1.5,6.9,3.5,10.3a89.46,89.46,0,0,1,7.6,16.3,93.05,93.05,0,0,1,5,33.9.6.6,0,0,0,1.2,0,96.85,96.85,0,0,0-3.5-29.3,90.57,90.57,0,0,0-4.5-12.3c-1.1-2.4-2.2-4.7-3.5-7-1.8-3.3-5.5-7.6-4.7-11.7.3-.7-.9-1-1.1-.2Z" transform="translate(-59.29 -105.4)"/><path d="M138.3,294.8c-.1,18.5-.4,37-.8,55.4a.6.6,0,0,0,1.2,0c.5-18.5.8-36.9.8-55.4a.6.6,0,0,0-1.2,0Z" transform="translate(-59.29 -105.4)"/><path d="M61,344.5c.8,10.8,2.5,21.4,4.2,32s3.2,21.2,6.6,31.5c.2.7,1.4.4,1.2-.3-3.2-9.6-4.7-19.5-6.3-29.5-1.8-11.2-3.6-22.4-4.4-33.7-.2-.8-1.4-.8-1.3,0Z" transform="translate(-59.29 -105.4)"/><path d="M137.4,345.8c-.7,10.5-2.4,21-4,31.4-1.5,9.9-2.9,19.7-6,29.3a.62.62,0,0,0,1.2.3c3.3-10.2,4.7-20.6,6.3-31.1,1.5-9.9,3.1-19.8,3.7-29.8a.6.6,0,1,0-1.2-.1Z" transform="translate(-59.29 -105.4)"/></svg>