<svg id="Layer_1" data-name="Layer 1" xmlns="http://www.w3.org/2000/svg" viewBox="0 0 99.71 140.82"><defs><style>.cls-1{fill:#b8bfc4;}.cls-2{fill:#a2a9ad;}</style></defs><title>T-Shirt</title><path class="cls-1" d="M64.7,159.1a2.42,2.42,0,0,1,1.3,1.8c1.2-2.9,2.4-5.9,3.6-8.8h1.7c-6.9-4-12,5.8-6.1,10.4,1.3,1,2.5,2,3.8,2.9,1.5-3.7,3.1-7.3,4.6-11-.6-.1-1-1.2-1.4-1.6a9.73,9.73,0,0,0-3.5-1.8,35.94,35.94,0,0,0-7.9-1.7c1.5,1.9,2.9,3.9,4.4,5.8.4-6.4.7-12.8,1.1-19.2.3-5.2-.5-13.3,3.6-17.3l-4.2,1.8a4.87,4.87,0,0,0,1.2-.1c-1.7-1-3.5-2-5.2-3,1.3,2,2,4.6,2.8,6.8,2.2,5.8,12.4,5.7,11.8-1.6a16.93,16.93,0,0,1,.8-7.4c-3.9-.5-7.9-1.1-11.8-1.6.2,9.3,1.9,19.1,10.8,23.9s22,6.6,31.8,4.5c7-1.5,4.8-11.3-1.6-11.8-8.6-.7-17.3-1.4-25.2-5.3-1.5,3.7-3.1,7.3-4.6,11a87.07,87.07,0,0,0,47.7-2.9l-7.6-5.8q1-1.5-.6.6l-2.3,2.6c-1.6,1.7-3.2,3.4-4.8,5-1.3,1.3-2.3,2.7-3.9,2.8-1.8.1-4.9-1.6-6.8-2-4.3-.8-8.9-.8-13-2.4s-5.3-4.8-5.9-9l-7.4,7.4a15.62,15.62,0,0,1,10.6,8.8,10.66,10.66,0,0,1,.7,1.9c.2,1.6.6,1.4,1.1-.8-1-.3-2.6.4-3.9.1a9.34,9.34,0,0,1-4.7-2.9c-2.5-2.8-3.2-6.6-3.2-10.1-3.9.5-7.9,1.1-11.8,1.6a51.6,51.6,0,0,1,2.5,11c.3,3.6-.1,7.4,1.8,10.7,1.5,2.4,3.8,3.8,5.9,5.5a30.51,30.51,0,0,1,7,8.2c2.4,4,10.2,3.9,11-1.4a25.06,25.06,0,0,1,2.7-8.4c-3.7-.5-7.3-1-11-1.4.7,3.5,1.4,6.9,2.1,10.4,1,5.1,8.6,5.8,11,1.4,1.7-3.1,3.4-6.2,5.2-9.3-3.7-.5-7.3-1-11-1.4a38.39,38.39,0,0,1,.3,7.6c-.4,7.1,9.6,7.6,11.8,1.6,1.3-3.7,2.7-7.4,4-11-3.9-.5-7.9-1.1-11.8-1.6-.2.6-.3,1.2-.5,1.8,3.7.5,7.3,1,11,1.4a3.85,3.85,0,0,1,1.2-3l-9.4-1.2a24.15,24.15,0,0,1,3.4,12c.1,6.5,10.6,8.5,11.8,1.6a37.48,37.48,0,0,1,1.9-7.5,23,23,0,0,1,1.5-3.2c.7-1.2,2-2,.3-2.2-1.7-1-3.5-2-5.2-3,0-1.4.1-1,0,1,0,1.2-.1,2.4-.2,3.6a57.25,57.25,0,0,1-1.4,7.2c3.9,1.1,7.7,2.1,11.6,3.2a52.32,52.32,0,0,1,2.2-9.5,32,32,0,0,1,1.7-4.3c.3-.5.5-1.1.8-1.6,1.6-2.3.9-2.3-2.1.1l-6-6a26,26,0,0,1-2.7,9.4c3.7,1.5,7.3,3.1,11,4.6a41.06,41.06,0,0,1,3.2-10.3c1.5-3.3,3.7-5.9,5.4-9s1.4-5.9,1.1-9.3a49.11,49.11,0,0,1,.3-13.8c-2.5,1.4-4.9,2.8-7.4,4.2,2.7.7,5.8.9,6.5,3.9.8,3.5.6,6.6,2.2,10,2.9,6.3,12.6,1.8,11-4.6-.3-1.2-.6-2.4-.9-3.5-1.2-4.7-8.7-6.2-11-1.4a210.23,210.23,0,0,0-10.1,25.2c.9-1.2,1.8-2.4,2.8-3.6a11.71,11.71,0,0,0-7.2,12.3,8.46,8.46,0,0,0,3.5,5.8c2.5,1.8,4.4.8,7,1.3-1.4-2.5-2.8-4.9-4.2-7.4l.6-.9c-5.2,3.6-2.1,13.7,4.6,11,1.7-.7,3.5-1.4,5.2-2.1-1.9-3.3-3.9-6.7-5.8-10l-1.5,1.2c-4.7,3.7.4,11.9,5.8,10,2.5-.9,5-1.8,7.6-2.6a6,6,0,0,0,2.6-10c-4.2-4.9-1.3-12.3.4-17.6H133.2c.5,3.3,2.5,8.8,1.6,12.1-.6,2.3-4.3,2-6.5,2.3-6.6.9-13.1,3.9-14.1,11.1-.5,3.8.3,7.7-.1,11.6-.5,4.5-1.2,9-2,13.5-1.5,8.8-3.5,17.6-5.8,26.2,2.9-1.2,5.9-2.4,8.8-3.6-1-.7-1-6.9-1.2-8.3-.5-4.1-.8-8.1-1-12.2a204.73,204.73,0,0,1,.2-23.5h-12c-.2,13.1-.2,26.2.2,39.3.2,7.7,12.1,7.7,12,0a178.1,178.1,0,0,1,2.1-29.1c-3.9-.5-7.9-1.1-11.8-1.6-1.1,8.4-1.8,16.9-2.3,25.4h12a115.16,115.16,0,0,1,3.2-30.4c-3.3.9-6.7,1.8-10,2.6,1.7,1.6,3.4,3.2,5.1,4.9,1.9-3.3,3.9-6.7,5.8-10a205.91,205.91,0,0,0-39.1-5.6c-4.1-.2-6.6,4-5.8,7.6a240.9,240.9,0,0,1,5.8,39.6c.3,5.5,1.2,11.1,7.1,13.3,4.9,1.8,12.1,1.2,17.1,0,13.1-3.3,3-21.4,2.2-29.7-.5-5.7.2-11.5-3.6-16.2a12.21,12.21,0,0,0-13.5-4.4,6.1,6.1,0,0,0-4.2,7.4,90.05,90.05,0,0,1,3.8,30.5c-.3,6.6,10.9,8.4,11.8,1.6,1.1-7.7,2.1-15.4,3.2-23.1.2-1.4,1.1-4.4.8-5.8.7-1.6-.1-2.3-2.5-1.9-2.2-1.5-3.1-1.3-2.7.5-.5,1.1-.2,4.5-.3,5.7-.1,1.9-.3,3.8-.4,5.7-1.2,15.2-2.9,30.1-.3,45.3,1,5.7,10.6,5.7,11.6,0,1.2-6.7,2.7-13.4,4.5-20-3.9-.5-7.9-1.1-11.8-1.6.5,5.3.7,10.6.7,15.9l11.2-3c-3.6-7.2-11-4.5-16.5-1.7a46,46,0,0,1-6.1,2.5c-1.2.4-3.8.4-4.8,1.1-2.1.1-1.6.6,1.6,1.7-.2-1.2-.4-2.3-.6-3.5-.3-2.1-.6-4.2-.8-6.3-1.7-18.2-1.2-36.8-.8-55,.1-5.7-6.4-7.2-10.2-4.2a9.68,9.68,0,0,0-3.6,8.1c.2,7.7,11.8,7.7,12,0,0-1.2.1-2.4.1-3.6h-12a239.94,239.94,0,0,0,2.3,38.8c.4,3.2,4.5,4.9,7.4,4.2,3.5-.9,4.6-4.2,4.2-7.4A223,223,0,0,1,83.3,167c.2-7.7-11.8-7.7-12,0,0,1.2-.1,2.4-.1,3.6h12c0,.1.1.3.1.4l-10.2-4.2c-.4,19.1-1.2,38.7,1.1,57.7.8,6.9,1,17.6,10.4,17.6a34.54,34.54,0,0,0,10.6-2.2q3-1,6-2.4c1-.5,1.9-1,2.9-1.5,2-.7,1.6-1.3-1.3-1.8,2.7,5.5,11.1,2.7,11.2-3,0-5.3-.2-10.6-.7-15.9-.6-6.4-9.9-8.5-11.8-1.6-1.8,6.6-3.3,13.2-4.5,20h11.6c-1.8-10.4-1.1-21.1-.2-31.6.4-5.1.9-10.2,1.3-15.3.3-4.2,1-9.1-1-13-4-7.8-13.8-5.2-16.4,2.1-1.6,4.6-1.7,10.1-2.4,15-.8,5.5-1.5,10.9-2.3,16.4,3.9.5,7.9,1.1,11.8,1.6a101.1,101.1,0,0,0-4.3-33.7c-1.4,2.5-2.8,4.9-4.2,7.4,2.2-.7,1.8,6.2,1.8,7.3a64.93,64.93,0,0,0,1.7,11.6c.3,1.2,2.4,10.9,2.9,10.9,2-2.3,1.7-3.1-.8-2.3-.6,0-1.3.1-1.9.1-.8,0-5.3-.4-4.4.4s.2-2.5.1-3.5c-.1-2.2-.3-4.4-.5-6.6-.3-3.8-.8-7.5-1.3-11.3-1.1-8.1-2.5-16-4.4-24-1.9,2.5-3.9,5.1-5.8,7.6a189.56,189.56,0,0,1,35.9,5.2c5.7,1.4,10.3-5.8,5.8-10-1.7-1.6-3.4-3.2-5.1-4.9-3.2-3-9-1.9-10,2.6a131.11,131.11,0,0,0-3.6,33.6c.2,7.8,11.6,7.7,12,0,.5-8.5,1.2-17,2.3-25.4.8-6.6-10.7-8.3-11.8-1.6a193.25,193.25,0,0,0-2.5,32.2h12c-.4-13.1-.4-26.2-.2-39.3.1-7.8-11.5-7.6-12,0a188.78,188.78,0,0,0,.3,31c.7,8,.5,18.2,7.6,23.3,3.2,2.3,7.9-.1,8.8-3.6,2.5-9.3,4.5-18.7,6.1-28.1.8-4.9,1.6-9.9,2.1-14.8.2-2.1-.6-9.2.1-10,1.7-1.7,6.6-1.2,8.9-1.6a14.59,14.59,0,0,0,9.2-5.4c4.6-6.5,1.5-16.1.3-23.3-1-6.3-9.9-5.1-11.6,0-3.3,10.2-4.9,20.6,2.6,29.2.9-3.3,1.8-6.7,2.6-10-2.5.9-5,1.8-7.6,2.6,1.9,3.3,3.9,6.7,5.8,10l1.5-1.2c4.6-3.6-.4-12.3-5.8-10-1.7.7-3.5,1.4-5.2,2.1,1.5,3.7,3.1,7.3,4.6,11a11.87,11.87,0,0,0,4.9-6.3c1.1-2.9-1.2-6.8-4.2-7.4-1.1-.2-2.8-.7-3.9-.3-1.8-.1-1.7.5.4,1.8.5,1.6,1.1,2.1,1.9,1.5,2.9.1,4.2-4.8,4.8-6.7a198.05,198.05,0,0,1,8-19.7c-3.7-.5-7.3-1-11-1.4.3,1.2.6,2.4.9,3.5,3.7-1.5,7.3-3.1,11-4.6-.9-2-.4-4.8-.9-7a13.7,13.7,0,0,0-3.1-6.4c-3.1-3.5-7.5-5-11.9-6-2.9-.7-6.9.9-7.4,4.2a64.28,64.28,0,0,0-1,13.1c.2,3.7,1.4,6.3-.4,8.9A54.69,54.69,0,0,0,111,154c-1.2,6.2,7.8,11.1,11,4.6a44.27,44.27,0,0,0,4.3-15.5c.3-3.3-3-5.9-6-6-9.8-.4-13.1,16.9-14.1,24.1-1.1,7.4,9.6,10.9,11.6,3.2,1.7-6.7,5.9-23.7-5.4-24.1-9.3-.3-13.6,14.7-14.8,21.8,3.9.5,7.9,1.1,11.8,1.6a36,36,0,0,0-5-18.1c-1.9-3.2-6.8-4.1-9.4-1.2-3.9,4.3-5.1,9-4.3,14.7.7,5,8.9,5.9,11,1.4a23.79,23.79,0,0,0,2.1-7.8c.8-7.1-9.6-7.5-11.8-1.6-1.3,3.7-2.7,7.4-4,11,3.9.5,7.9,1.1,11.8,1.6a48.66,48.66,0,0,0-.7-10.8c-.8-5.2-8.6-5.6-11-1.4-1.7,3.1-3.4,6.2-5.2,9.3,3.7.5,7.3,1,11,1.4-.7-3.5-1.4-6.9-2.1-10.4-1-5.1-8.6-5.8-11-1.4a32.52,32.52,0,0,0-3.9,11.2c3.7-.5,7.3-1,11-1.4a49.33,49.33,0,0,0-5.8-7.8c-1.8-1.9-5-3.5-6.5-5.6-1.4-1.9-.8-6-1.2-8.5a58.28,58.28,0,0,0-2.5-10.8c-2-6.2-11.9-5.4-11.8,1.6.2,7.8,2.7,15.5,8.9,20.5,5.7,4.6,14.5,6.5,21.1,2.6,7-4.1,5.1-12.6,1.8-18.5a28,28,0,0,0-17.2-13.1c-4.8-1.3-8,3-7.4,7.4,1,6.6,4.3,12.3,10.2,15.6,6.7,3.7,14.4,2.9,21.5,5.3,3.3,1.1,6.3,2.3,9.7,1.1,3-1,5.3-3.4,7.6-5.5,4.4-4.3,12.4-10.5,11.9-17.3-.3-3.6-3.7-7.2-7.6-5.8a74.57,74.57,0,0,1-41.3,2.9c-6.3-1.3-11,7.8-4.6,11,9.8,4.9,20.4,6,31.2,6.9-.5-3.9-1.1-7.9-1.6-11.8-6.6,1.4-14.8-.4-21.1-2.7-6.1-2.3-6.2-8.5-6.3-14.2-.2-6.8-9.7-8.1-11.8-1.6a27.1,27.1,0,0,0-1.2,10.6c3.9-.5,7.9-1.1,11.8-1.6-1.8-4.7-3.1-12.2-9.2-12.6-5.7-.4-8.7,5.5-10.4,10.1-1.9,5.3-1.8,11.1-2.1,16.6-.4,6.7-.8,13.5-1.2,20.2-.1,2.3,1.9,5.4,4.4,5.8a53.35,53.35,0,0,1,8.8,2c-1.2-.9-2.4-1.8-3.6-2.8a10.65,10.65,0,0,0,7.6,5.9c7,1.5,9.9-6.9,4.6-11-1.3-1-2.5-2-3.8-2.9-2,3.5-4,6.9-6.1,10.4,2.5,1.5,4.7,1.6,7.6,1.2,4.3-.6,4.9-5.8,3.6-8.8a11.3,11.3,0,0,0-3.2-4.3c-5.3-5.1-13.8,3.4-8,8.4Z" transform="translate(-50.09 -105.3)"/><path class="cls-1" d="M92.5,231.2c7.7,0,7.7-12,0-12s-7.7,12,0,12Z" transform="translate(-50.09 -105.3)"/><path class="cls-1" d="M105.7,215.9a47.7,47.7,0,0,0-.3,13.6c1.5-1.9,2.9-3.9,4.4-5.8-6,1.6-13.7-2.4-18.6-5.9.9,1.2,1.8,2.4,2.8,3.6-.1-.2-.1-.5-.2-.7-.2,1.5-.4,3.1-.6,4.6l.3-.6-11.2-3a10.83,10.83,0,0,1-2.2,7.2c-2.2,3.3.1,7.8,3.6,8.8,1.6.7,1.6.3-.1-1.3a6,6,0,0,0,4.4,5.8c5.1,1.3,10.3-.7,15.5-.5-.5-3.9-1.1-7.9-1.6-11.8l-3.7.6c1.1,3.9,2.1,7.7,3.2,11.6a14,14,0,0,1,5-.1c.5-3.9,1.1-7.9,1.6-11.8-1.1.1-2.1.2-3.2.4.5,3.9,1.1,7.9,1.6,11.8a8.6,8.6,0,0,1,5,.4V231.2a14.77,14.77,0,0,0-2.1.1c.5,3.9,1.1,7.9,1.6,11.8,2.7-.6,5.4,1.4,8.3.5a5.94,5.94,0,0,0,4.2-4.2c1.1-5.4-.5-11.7-1.1-17.1-.7-6.2-1.3-12.3-1.8-18.5-.5-5.8-.9-11.7-1-17.6-.1-3.8-1.7-12,4-12.2l-6-6c-1.4,21.1-2.2,42.4-6.1,63.3-1.4,7.5,10.1,10.8,11.6,3.2,4.1-21.9,5.1-44.3,6.6-66.5.2-3.1-2.9-6.1-6-6-5.8.3-11.3,3-14.1,8.3-3.1,5.8-2,13.5-1.8,19.8.3,7.8,1,15.6,1.8,23.4.4,3.6.7,7.1,1.1,10.7.2,1.9.4,3.9.6,5.8.2,1.7,1.1,4.5.7,6.1l4.2-4.2c-.3.1-3.4-.9-3.8-.9a14.36,14.36,0,0,0-4.6.4c-6.6,1.5-5.2,11.9,1.6,11.8a47.48,47.48,0,0,0,5.3-.5c6.3-.9,5-9.9,0-11.6a19.79,19.79,0,0,0-11.3-.4c-6.4,1.5-5.2,12.6,1.6,11.8,1.1-.1,2.1-.2,3.2-.4,6.1-.7,8.9-10.5,1.6-11.8a29.16,29.16,0,0,0-11.4.1c-7.7,1.5-4.3,12.8,3.2,11.6l3.7-.6c6.9-1.1,4.9-11.6-1.6-11.8a37.18,37.18,0,0,0-6.7.3c-1.7.2-3.9,1.1-5.6.7,1.5,1.9,2.9,3.9,4.4,5.8.3-5.6-3.9-8.8-8.8-10.2,1.2,2.9,2.4,5.9,3.6,8.8a22.45,22.45,0,0,0,3.8-13.3c-.1-5.5-8.6-8.7-11.2-3-3.4,7.6,3.5,10.5,9.3,13.3,6.9,3.3,13,5.4,20.7,3.3,2.3-.6,4.7-3.2,4.4-5.8a40.23,40.23,0,0,1-.1-10.4c.9-7.5-10.6-10.8-11.7-3.2Z" transform="translate(-50.09 -105.3)"/><path class="cls-1" d="M75.9,164.1l-6.5-1.2a1.5,1.5,0,0,0-.8,2.9,22.63,22.63,0,0,1,4.3,1.7l1.2-2.7c-.8-.1-1.6-.3-2.5-.4a1.53,1.53,0,0,0-1.5,2.5l.7.7,1.8-2.4a39.94,39.94,0,0,0-20.4-5.9,23.07,23.07,0,0,1,1.4,1.9c.4-1.2.9-2.5,1.3-3.7-1-.1-2-.3-2.9-.4-.1.3-.3.6-.4.9.7.6,1.5,1.1,2.2,1.7a109.26,109.26,0,0,0,2.9-18.9c-.8.4-1.5.9-2.3,1.3,2.6,1.7.8,16.2-1.6,17.4a1.54,1.54,0,0,0,0,2.6,7.44,7.44,0,0,0,2.9,1.2c.1-1,.3-2,.4-2.9-.7-.2-1.4-.5-2.1-.7-.3.9-.5,1.9-.8,2.8a13.23,13.23,0,0,1,5.8,2.2c.5-.9,1-1.7,1.5-2.6-.6-.4-1.3-.7-1.9-1.1l-1.2,2.7a46,46,0,0,1,9.4,3.4l1.2-2.7c-2.6-.7-5.3-1.4-7.9-2.2a1.5,1.5,0,0,0-.8,2.9c2.6.7,5.3,1.4,7.9,2.2,1.6.4,2.7-1.9,1.2-2.7a43.8,43.8,0,0,0-10.1-3.8c-1.6-.4-2.7,1.9-1.2,2.7.6.4,1.3.7,1.9,1.1,1.7,1,3.1-1.5,1.5-2.6a15.66,15.66,0,0,0-7.3-2.6c-1.5-.2-1.9,2.1-.8,2.8a6.63,6.63,0,0,0,3.6,1.1c1.7.2,2-2.6.4-2.9l-2.1-.9v2.6c3.9-1.9,3.6-7.7,3.8-11.4.2-3.4,1.1-9-2.2-11.2a1.53,1.53,0,0,0-2.3,1.3,101.64,101.64,0,0,1-2.8,18.1c-.3,1.2,1.1,2.5,2.2,1.7a3.67,3.67,0,0,0,1.9-3.5,1.48,1.48,0,0,0-2.9-.4c-.4,1.2-.9,2.5-1.3,3.7a1.52,1.52,0,0,0,1.4,1.9A35.9,35.9,0,0,1,71,167.8c1.4.9,3-1.2,1.8-2.4l-.7-.7c-.5.8-1,1.7-1.5,2.5.8.1,1.6.3,2.5.4,1.5.3,2.8-2,1.2-2.7a52.09,52.09,0,0,0-5-2c-.3,1-.5,1.9-.8,2.9L75,167c2,.3,2.8-2.6.9-2.9Z" transform="translate(-50.09 -105.3)"/><path class="cls-1" d="M129.4,169.3c1.8-1.1,3.6-2.2,5.4-3.2l-2.1-2.1c-.3.5-.7.9-1,1.4-1,1.3.8,2.7,2.1,2.1a13.38,13.38,0,0,1,5.1-1.7l-1.2-2.7c-.9.5-1.9,1-2.8,1.6-1.4.8-.4,3.4,1.2,2.7,1.1-.5,9.6-4.9,10.6-4.3s2.7-.4,2.2-1.7a34.47,34.47,0,0,1-2.2-10c-1,.1-2,.3-2.9.4.7,2.6,1.4,5.3,2.1,7.9,1-.3,1.9-.5,2.9-.8a53.56,53.56,0,0,1-2.2-9.8c-.9.3-1.9.5-2.8.8.4.7.7,1.3,1.1,2l2.7-1.2c-2.4-3.5-1.5-7.9-1.6-11.9a94.53,94.53,0,0,0-1-10.7c-1,.3-1.9.5-2.9.8a11.25,11.25,0,0,1,.9,5.1c1-.1,2-.3,2.9-.4-.2-1.4-.4-2.9-.7-4.3-.3-1.9-3.2-1.1-2.9.8.2,1.4.4,2.9.7,4.3.3,1.7,2.9,1.2,2.9-.4a17,17,0,0,0-1-5.9,1.51,1.51,0,0,0-2.9.8,91.92,91.92,0,0,1,.9,14.8c0,3.2.2,5.9,2,8.6.9,1.3,3.3.6,2.7-1.2a5.85,5.85,0,0,0-1.4-2.7c-.8-1-3-.9-2.8.8a64.66,64.66,0,0,0,2.3,10.6,1.51,1.51,0,0,0,2.9-.8c-.7-2.6-1.4-5.3-2.1-7.9-.4-1.6-3.1-1.3-2.9.4a39.25,39.25,0,0,0,2.3,10.8c.7-.6,1.5-1.1,2.2-1.7-1.3-.7-1.9-.4-3.3.1-3.3,1.1-6.5,2.7-9.6,4l1.2,2.7c.9-.5,1.9-1,2.8-1.6,1.6-.9.4-3-1.2-2.7a17.4,17.4,0,0,0-5.8,2l2.1,2.1c.3-.5.7-.9,1-1.4,1-1.3-.8-2.7-2.1-2.1-1.8,1-3.6,2.1-5.4,3.2-1.5.9,0,3.5,1.6,2.4Z" transform="translate(-50.09 -105.3)"/><path class="cls-1" d="M78.4,238.8c-.1.1-2.2,2.6-1.2,2.7.1,1,.3,2,.4,2.9a49.6,49.6,0,0,1,10.8-1.7c1.6-.1,2.1-2.6.4-2.9a17.91,17.91,0,0,0-8.3.1,1.47,1.47,0,0,0-1,1.8c.1.3.1.5.2.8a23.07,23.07,0,0,0,1.4-1.9l-2.3-.6a1.56,1.56,0,0,0-2.6,1.1v.4a17.09,17.09,0,0,1,1.1-1.4c-.2,0-.3.1-.5.1.6.2,1.1.5,1.7.7-1-1.3-.8-4.9,1.1-5.6,1.1-.4,4,1,5.3,1.3,3.4.6,6.8.2,10.2.7,6.6.9,12.7,4,19.4,4.9-.1-1-.3-2-.4-2.9-1.8.2-3.7.5-5.5.7s-1.3,3.1.4,2.9c4.4-.5,8.3,1.7,12.5,2.4a1.49,1.49,0,0,0,1.8-1.8c-.8-3.2-2.8-10.3-.4-13.2a23.35,23.35,0,0,1-2.5-.7c.2,1.1.4,2.1.6,3.2.2,1.8,3,2,3,0-.1-2.5-.1-4.9-.2-7.4-.9.4-1.7.7-2.6,1.1l.9,1.5a1.48,1.48,0,0,0,2.9-.4,32.53,32.53,0,0,0-.3-4.4c-.3-1.9-3.2-1.1-2.9.8a14.52,14.52,0,0,1,.2,3.6c1-.1,2-.3,2.9-.4a9.7,9.7,0,0,0-1.6-2.8c-.8-1-2.6-.2-2.6,1.1.1,2.5.1,4.9.2,7.4h3a27.94,27.94,0,0,0-.7-4,1.55,1.55,0,0,0-2.5-.7c-3.5,4.1-1.5,11.4-.4,16.1l1.8-1.8c-4.6-.7-8.6-3-13.3-2.5.1,1,.3,2,.4,2.9,1.8-.2,3.7-.5,5.5-.7s1.1-2.8-.4-2.9c-5.8-.8-10.8-3-16.4-4.4-5.2-1.3-10.6-.6-15.9-1.9-2-.5-5.3-1.9-6.9.3-1.3,1.8-.7,7.6.6,9.3a1.62,1.62,0,0,0,1.7.7c.2,0,.3-.1.5-.1a1.6,1.6,0,0,0,1.1-1.4v-.4c-.9.4-1.7.7-2.6,1.1a5.55,5.55,0,0,0,4.4,1.5,1.47,1.47,0,0,0,1.4-1.9c-.1-.3-.1-.5-.2-.8-.3.6-.7,1.2-1,1.8a13.79,13.79,0,0,1,6.7-.1c.1-1,.3-2,.4-2.9a57.15,57.15,0,0,0-11.6,1.8,1.48,1.48,0,0,0,.4,2.9c2.8.2,1.8-2.2,3.3-3.5,1.8-1.7-.3-3.8-1.8-2.5Z" transform="translate(-50.09 -105.3)"/><path class="cls-1" d="M68.7,113.8c.6-2.7.2-4.8-2.7-5.6a23.35,23.35,0,0,0,.7,2.5c2.1-2.3,9-1.5,11.8-1.7a23.07,23.07,0,0,1-1.4-1.9,40.39,40.39,0,0,0-.9,15.5c1-.1,2-.3,2.9-.4a50.84,50.84,0,0,1-1.9-14c-1,.1-2,.3-2.9.4,1.9,9.3-1.8,20.2,4.8,28.4,2.3,2.9,5.5,3.6,9,4.5,5,1.2,10.1,2.7,15.3,2.9,7.4.3,15.1-3.2,18.7-9.9a25.75,25.75,0,0,0,2.5-11.9,77.42,77.42,0,0,0-.7-8.3c-.1-.7-.8-3.1-.4-3.7.8-1.4,1.5-.8,3.1-.5,1.9.3,2.7-2.5.8-2.9-1.6-.3-4.7-1.6-6.2-.4-1.9,1.5-.5,5.6-.3,7.5,1.1,10,1.4,21.6-9.8,25.9-5,1.9-10,1.1-15.1,0-4.1-.9-10.5-1.2-13.6-4.1-7.5-6.7-3.4-19.7-5.1-28.4-.3-1.7-3-1.3-2.9.4.2,5.1.5,10,2.1,14.8.5,1.5,3.2,1.4,2.9-.4a38.33,38.33,0,0,1,.8-14.7,1.52,1.52,0,0,0-1.4-1.9c-4.2.2-10.9-.9-14,2.6a1.51,1.51,0,0,0,.7,2.5c.2.6.4,1.3.6,1.9a1.38,1.38,0,1,0,2.6.9Z" transform="translate(-50.09 -105.3)"/><path class="cls-2" d="M70.2,168.4c6.3,3,17.2,4.7,21.7-2,.4-.6-.6-1.2-1-.6-4,5.9-14.5,4.3-20.1,1.6-.7-.4-1.3.7-.6,1Z" transform="translate(-50.09 -105.3)"/><path class="cls-2" d="M128.4,167.6c-5.6,2.7-16.1,4.4-20.1-1.6-.4-.6-1.5,0-1,.6,4.5,6.7,15.5,5,21.7,2,.7-.3.1-1.3-.6-1Z" transform="translate(-50.09 -105.3)"/><path d="M122.9,245.7a666.58,666.58,0,0,0,6.8-77.2.6.6,0,1,0-1.2,0c-.9,25.8-2.8,51.3-6.8,76.9,0,.7,1.1,1,1.2.3Z" transform="translate(-50.09 -105.3)"/><path d="M76.8,245.5c-3.3-25.7-5-51.5-5.8-77.4a.6.6,0,1,0-1.2,0,772.79,772.79,0,0,0,5.8,77.4c.1.8,1.3.8,1.2,0Z" transform="translate(-50.09 -105.3)"/><path d="M72.1,133.7c-10.5,8-14,26.4-2.1,34.8.6.4,1.2-.6.6-1-11.1-7.9-7.6-25.2,2.1-32.7.6-.5,0-1.6-.6-1.1Z" transform="translate(-50.09 -105.3)"/><path d="M130.3,168.8c13.9-6.7,8.9-28.3-1.4-35.9-.6-.5-1.2.6-.6,1,9.6,7.1,14.4,27.5,1.4,33.8-.7.4-.1,1.5.6,1.1Z" transform="translate(-50.09 -105.3)"/><path d="M76.9,245.4a107.19,107.19,0,0,1,45.8.7.62.62,0,1,0,.3-1.2,106.8,106.8,0,0,0-46.4-.7.62.62,0,0,0,.3,1.2Z" transform="translate(-50.09 -105.3)"/><path d="M80.6,121.1c-2-1.4-1-5.4-.9-7.6s.2-4.3.3-6.5a.6.6,0,1,0-1.2,0c-.2,3.4-.3,6.9-.5,10.3-.1,2,0,3.6,1.7,4.8a.58.58,0,1,0,.6-1Z" transform="translate(-50.09 -105.3)"/><path d="M120,122.7c1.7-1.2,1.8-2.8,1.7-4.8-.1-3.4-.3-6.9-.5-10.3a.6.6,0,1,0-1.2,0c.1,2.2.2,4.3.3,6.5s1,6.2-.9,7.6c-.6.4,0,1.4.6,1Z" transform="translate(-50.09 -105.3)"/><path d="M79.4,105.9h0c-.6-.5-1.4.4-.8.9a1.35,1.35,0,0,0,1.7,0,.64.64,0,0,0-.9-.9Z" transform="translate(-50.09 -105.3)"/><path d="M79.3,105.3c-5.6.4-13,.3-17.7,3.9-4.3,3.3-6.1,9.3-7.2,14.3a.62.62,0,0,0,1.2.3c1.2-5.1,3-11.5,7.9-14.4,4.5-2.7,10.8-2.6,15.9-2.9.7,0,.7-1.2-.1-1.2Z" transform="translate(-50.09 -105.3)"/><path d="M54.7,123c-1.5,5.5-1.2,11.5-1.7,17.1-.7,7.2-1.7,14.5-2.9,21.6a.62.62,0,0,0,1.2.3c1.1-6,1.9-12.1,2.6-18.1.7-6.7.2-14.1,2-20.6a.62.62,0,0,0-1.2-.3Z" transform="translate(-50.09 -105.3)"/><path d="M50.6,162.6c6,2.1,12.1,4.1,18.2,6a.61.61,0,0,0,.5-1.1,2.09,2.09,0,0,1-.6-.4c-.6-.4-1.3.6-.6,1a2.09,2.09,0,0,1,.6.4c.2-.4.3-.7.5-1.1-6.1-1.9-12.2-3.9-18.2-6a.63.63,0,1,0-.4,1.2Z" transform="translate(-50.09 -105.3)"/><path d="M119.6,107.4a1.24,1.24,0,0,0,1.7,0c.6-.5-.3-1.3-.8-.8h0c-.6-.6-1.5.2-.9.8Z" transform="translate(-50.09 -105.3)"/><path d="M120.5,107.1c5.1.4,11.4.3,15.9,2.9,4.9,2.9,6.7,9.2,7.9,14.4.2.8,1.3.4,1.2-.3-1.1-5-2.9-11-7.2-14.3-4.7-3.6-12-3.5-17.7-3.9a.6.6,0,1,0-.1,1.2Z" transform="translate(-50.09 -105.3)"/><path d="M144,123.9c1.8,6.5,1.3,13.9,2,20.6.6,6.1,1.5,12.1,2.6,18.1.1.8,1.3.4,1.2-.3-1.3-7.2-2.3-14.4-2.9-21.6-.5-5.6-.2-11.6-1.7-17.1a.62.62,0,0,0-1.2.3Z" transform="translate(-50.09 -105.3)"/><path d="M149,162.1c-6,2.1-12.1,4.1-18.2,6,.2.4.3.7.5,1.1a2.09,2.09,0,0,0,.6-.4c.6-.4,0-1.5-.6-1a2.09,2.09,0,0,0-.6.4.61.61,0,0,0,.5,1.1c6.1-1.9,12.2-3.9,18.2-6,.6-.3.3-1.5-.4-1.2Z" transform="translate(-50.09 -105.3)"/><path d="M79.5,122.1c10.9,8.4,29,5.1,40.8.6.7-.3.4-1.4-.3-1.2-11.5,4.4-29.2,7.7-39.9-.4-.6-.5-1.2.5-.6,1Z" transform="translate(-50.09 -105.3)"/></svg>