<svg id="Layer_1" data-name="Layer 1" xmlns="http://www.w3.org/2000/svg" viewBox="0 0 74.96 295.01"><defs><style>.cls-1{fill:#fff;}.cls-2{fill:none;stroke:#fff;stroke-miterlimit:10;}.cls-3{fill:#040217;}.cls-4{fill:#040200;}.cls-5{fill:#221;}</style></defs><title>Trouserslong</title><path class="cls-1" d="M111.6,552.5c-.6.3-1.2.5-1.7.8-1.1.5-.5,2.2.6,2.2,2.6,0,5.3,0,7.9-.2,1.5-.1,1.5-2.5,0-2.4-2.6.1-5.3.2-7.9.2.2.7.4,1.5.6,2.2.6-.3,1.2-.5,1.7-.8,1.4-.6.2-2.6-1.2-2Z" transform="translate(-62.67 -261.59)"/><g id="_Group_" data-name="&lt;Group&gt;"><path class="cls-1" d="M132.9,364.7a244.89,244.89,0,0,1-9.1,50.9h0c-1.1,6.2-.8,12.6-.6,18.9.1,6.1.1,12.2.1,18.3v20c-.1,16.4-.8,32.9-2.1,49.3h-.1a63.63,63.63,0,0,1-.1,10.7c-.5,6.9-.9,13.9-1.4,20.8-3.1.1-6.1.1-9.2.2l-1-.1a4.52,4.52,0,0,1-.7-2.8c-.6-11.2-1.3-22.3-1.9-33.5-.1-2.2-.3-4.4-.4-6.6-.1-2.7-.2-5.4-.3-8-.1-3.3-.3-6.6-.4-9.9-.3-7.2-.6-14.4-.8-21.7h.2c-.1-9.4-.1-18.7-.2-28.1,0-7.1-.1-14.3-.1-21.4h-.2c-.2-11.6-.3-23.1-.5-34.6l-.3-22.8c0-1.6,0-3.1-.1-4.7-.1-5.7-.1-11.5-.2-17.2l-.1-.2c.2-11.7.4-23.4.8-35.1a1.48,1.48,0,0,0,0-1.3h0a2.75,2.75,0,0,0-1-1.6,5.23,5.23,0,0,0-3-1.1,3.68,3.68,0,0,0-2.5.5,4,4,0,0,0-1.3,4.5h0c.4,11.9.6,23.7.8,35.6l-.1.2c-.1,5.7-.2,11.5-.2,17.2,0,1.5,0,3.1-.1,4.7l-.3,22.8c-.2,11.5-.3,23.1-.5,34.6h-.2c0,7.1-.1,14.3-.1,21.4-.1,9.4-.1,18.7-.2,28.1h.1c-.3,7.2-.6,14.5-.8,21.7-.1,3.3-.3,6.6-.4,9.9-.1,2.7-.2,5.4-.3,8-.1,2.2-.2,4.4-.4,6.6-.7,11.2-1.3,22.3-1.9,33.5a5.3,5.3,0,0,1-.7,2.8l-1,.1c-3.1-.1-6.1-.1-9.2-.2-.5-6.9-.9-13.9-1.3-20.8a63.82,63.82,0,0,1-.1-10.7h-.1c-1.3-16.4-1.9-32.8-2.1-49.3v-20c0-6.1,0-12.2.1-18.3.1-6.3.4-12.7-.6-18.9h0a244.89,244.89,0,0,1-9.1-50.9c-3-21.5-3.5-43.2-4.1-64.9-.3-12.7-.6-25.8,4.3-37.5l.2.1c.2-.5,1-.5,1.6-.4,5,.7,10,1.4,15,1.7,4.3.3,8.6.4,12.8.3,3.2-.1,6.4-.3,9.5-.6,5.2-.4,10.5-1,15.7-1.6,3.2-.3,6.5-.7,9.7-1l.5-.2c4.9,11.8,4.7,25,4.4,37.8C136.4,321.5,135.9,343.2,132.9,364.7Z" transform="translate(-62.67 -261.59)"/><path class="cls-2" d="M67.8,263.4c-.1.1-.1.3-.2.4-4.8,11.7-4.6,24.8-4.3,37.5.6,21.7,1.1,43.4,4.1,64.9.1.4.1.8.2,1.2" transform="translate(-62.67 -261.59)"/><path class="cls-2" d="M67.5,365.8v.3A244.89,244.89,0,0,0,76.6,417c0,.1.1.3.1.4" transform="translate(-62.67 -261.59)"/><path class="cls-2" d="M76.6,417.1c1.1,6.2.8,12.6.6,18.9-.1,6.1-.1,12.2-.1,18.3v20c.1,16.4.8,32.9,2.1,49.3" transform="translate(-62.67 -261.59)"/><path class="cls-2" d="M79.5,522.5c0,.3-.1.7-.1,1a63.63,63.63,0,0,0,.1,10.7c.4,6.9.9,13.9,1.3,20.8v.1" transform="translate(-62.67 -261.59)"/><path class="cls-2" d="M80.7,555.1h.1c3.1.1,6.1.1,9.2.2" transform="translate(-62.67 -261.59)"/><path class="cls-2" d="M91,555.1a4.52,4.52,0,0,0,.7-2.8c.6-11.2,1.3-22.3,1.9-33.5.1-2.2.3-4.4.4-6.6.1-2.7.2-5.4.3-8,.1-3.3.3-6.6.4-9.9.3-7.2.5-14.5.8-21.7v-.5" transform="translate(-62.67 -261.59)"/><path class="cls-2" d="M95.4,472.7c0-9.4.1-18.7.2-28.1,0-7.1.1-14.3.1-21.4" transform="translate(-62.67 -261.59)"/><path class="cls-2" d="M95.9,423.5v-.4c.2-11.6.3-23.1.5-34.6l.3-22.8c0-1.5,0-3.1.1-4.7.1-5.7.2-11.5.2-17.2" transform="translate(-62.67 -261.59)"/><path class="cls-2" d="M96.3,308.1a19.27,19.27,0,0,0-.1-2.4" transform="translate(-62.67 -261.59)"/><path class="cls-2" d="M97.1,343.7c-.2-11.9-.4-23.7-.8-35.6" transform="translate(-62.67 -261.59)"/><path class="cls-2" d="M132.6,261.9v.1c4.9,11.8,4.7,25,4.4,37.8-.6,21.7-1.1,43.4-4.1,64.9a5,5,0,0,1-.2,1.2" transform="translate(-62.67 -261.59)"/><path class="cls-2" d="M132.9,364.3v.3a244.89,244.89,0,0,1-9.1,50.9c0,.1-.1.3-.1.4" transform="translate(-62.67 -261.59)"/><path class="cls-2" d="M123.8,415.6c-1.1,6.2-.8,12.6-.6,18.9.1,6.1.1,12.2.1,18.3v20c-.1,16.4-.8,32.9-2.1,49.3" transform="translate(-62.67 -261.59)"/><path class="cls-2" d="M120.9,521c0,.3.1.7.1,1a63.63,63.63,0,0,1-.1,10.7c-.5,6.9-.9,13.9-1.4,20.8v.1" transform="translate(-62.67 -261.59)"/><path class="cls-2" d="M119.7,553.6h-.1c-3.1.1-6.1.1-9.2.2" transform="translate(-62.67 -261.59)"/><path class="cls-2" d="M109.4,553.7a4.52,4.52,0,0,1-.7-2.8c-.6-11.2-1.3-22.3-1.9-33.5-.1-2.2-.3-4.4-.4-6.6-.1-2.7-.2-5.4-.3-8-.1-3.3-.3-6.6-.4-9.9-.3-7.2-.6-14.4-.8-21.7v-.5" transform="translate(-62.67 -261.59)"/><path class="cls-2" d="M105,471.2c-.1-9.4-.1-18.7-.2-28.1,0-7.1-.1-14.3-.1-21.4" transform="translate(-62.67 -261.59)"/><path class="cls-2" d="M104.5,422v-.3c-.2-11.6-.3-23.1-.5-34.6l-.3-22.8c0-1.6,0-3.1-.1-4.7-.1-5.7-.1-11.5-.2-17.2" transform="translate(-62.67 -261.59)"/><path class="cls-2" d="M104.1,305.8a8.6,8.6,0,0,1,.1-1.6" transform="translate(-62.67 -261.59)"/><path class="cls-2" d="M103.3,342.2c.2-11.7.4-23.4.8-35.1v-1.3" transform="translate(-62.67 -261.59)"/><path class="cls-2" d="M67.8,264c0-.1,0-.1.1-.2.2-.5,1-.5,1.6-.4,5,.7,10,1.4,15,1.7,4.3.3,8.6.4,12.8.3,3.2-.1,6.4-.3,9.5-.6,5.2-.4,10.5-1,15.7-1.6,3.2-.3,6.5-.7,9.7-1" transform="translate(-62.67 -261.59)"/><path class="cls-2" d="M96.5,308.5c-.1-.1-.1-.3-.2-.4h0a4,4,0,0,1,1.3-4.5,5.1,5.1,0,0,1,2.5-.5,5.23,5.23,0,0,1,3,1.1,3.36,3.36,0,0,1,1,1.6h0a2.85,2.85,0,0,1,0,1.3" transform="translate(-62.67 -261.59)"/></g><path d="M79,268.2a8.3,8.3,0,0,1-.2,3.5c-.6,1.6-2,2.1-3.5,2.6-2.3.8-4.7,1.6-7,2.4-.7.2-.4,1.4.3,1.2,1.8-.6,3.6-1.2,5.5-1.8a20.5,20.5,0,0,0,4.1-1.6c2.1-1.4,2.2-3.8,2.1-6.1-.1-1-1.3-1-1.3-.2Z" transform="translate(-62.67 -261.59)"/><path d="M119.7,266.8c-.2,2.3,0,4.7,2.1,6.1,2.7,1.8,6.5,2.5,9.5,3.5.7.2,1-.9.3-1.2-2.3-.8-4.7-1.5-7-2.4a5.58,5.58,0,0,1-3.3-2.1c-.7-1.2-.5-2.7-.4-4,0-.6-1.2-.6-1.2.1Z" transform="translate(-62.67 -261.59)"/><path class="cls-3" d="M97,268.4a.6.6,0,0,0,0-1.2.6.6,0,0,0,0,1.2Z" transform="translate(-62.67 -261.59)"/><path class="cls-3" d="M97,268.3a.6.6,0,0,0,0-1.2.6.6,0,0,0,0,1.2Z" transform="translate(-62.67 -261.59)"/><path class="cls-3" d="M97,268.3a.6.6,0,0,0,0-1.2.6.6,0,0,0,0,1.2Z" transform="translate(-62.67 -261.59)"/><path class="cls-4" d="M99,267.2a15.46,15.46,0,0,1-.1,4.8.62.62,0,0,0,1.2.3,22.51,22.51,0,0,0,.1-5.2c-.1-.7-1.3-.7-1.2.1Z" transform="translate(-62.67 -261.59)"/><path class="cls-5" d="M76.6,415.8c-.3,1.5.8,2.8,1.7,3.8a4.74,4.74,0,0,0,3.9,2,.6.6,0,0,0,0-1.2,3.13,3.13,0,0,1-2.8-1.4c-.6-.6-1.8-2-1.6-2.9.1-.7-1.1-1-1.2-.3Z" transform="translate(-62.67 -261.59)"/><path class="cls-5" d="M122.5,417.2c.2.9-1.1,2.3-1.6,2.9a4,4,0,0,1-2.8,1.4.6.6,0,0,0,0,1.2,4.74,4.74,0,0,0,3.9-2c.9-1.1,2-2.4,1.7-3.8-.2-.8-1.4-.4-1.2.3Z" transform="translate(-62.67 -261.59)"/><path d="M67.5,263c-4.5,12.8-4.8,26.1-4.7,39.6q.3,21.3,2.7,42.3c.1.8,1.3.8,1.2,0-1.5-13.4-2.4-26.9-2.7-40.4-.2-14-.1-27.9,4.6-41.2.3-.7-.9-1-1.1-.3Z" transform="translate(-62.67 -261.59)"/><path d="M80.6,555.8c3.5,0,6.9,0,10.4.2a.6.6,0,0,0,0-1.2c-3.5-.1-6.9-.2-10.4-.2-.7.1-.7,1.3,0,1.2Z" transform="translate(-62.67 -261.59)"/><path d="M65.2,342.2c1.3,25.2,4.2,50.3,11.1,74.6.2.7,1.4.4,1.2-.3-6.8-24.3-9.8-49.2-11.1-74.3,0-.7-1.2-.7-1.2,0Z" transform="translate(-62.67 -261.59)"/><path d="M76.2,416.7c2.8,8.6,1.1,19.7.9,28.7-.2,9.3-.4,18.5.2,27.8a.6.6,0,0,0,1.2,0c-.5-9.9-.3-19.8-.1-29.7.2-8.7,1.7-18.7-1-27.1-.3-.8-1.5-.5-1.2.3Z" transform="translate(-62.67 -261.59)"/><path d="M77.4,472.2c-.1,22.7.8,45.3,1.5,68a.6.6,0,0,0,1.2,0c-.7-22.7-1.7-45.3-1.5-68,0-.7-1.2-.7-1.2,0Z" transform="translate(-62.67 -261.59)"/><path d="M81.1,555.4c-.3-5-.7-10.1-1-15.1-.1-.8-1.3-.8-1.2,0,.3,5,.7,10.1,1,15.1,0,.7,1.2.7,1.2,0Z" transform="translate(-62.67 -261.59)"/><path d="M91.7,555.4c.9-16.9,2-33.8,3-50.7a.6.6,0,0,0-1.2,0c-1,16.9-2.1,33.8-3,50.7-.1.7,1.1.7,1.2,0Z" transform="translate(-62.67 -261.59)"/><path d="M94.8,505.3c-.6-15.2.6-30.7,1-45.9a.6.6,0,0,0-1.2,0c-.3,15.2-1.5,30.7-1,45.9a.6.6,0,1,0,1.2,0Z" transform="translate(-62.67 -261.59)"/><path d="M95.8,459.8c.1-12,.2-23.9.3-35.9a.6.6,0,0,0-1.2,0c-.1,12-.3,23.9-.3,35.9-.1.7,1.1.7,1.2,0Z" transform="translate(-62.67 -261.59)"/><path d="M96.2,424.4c.4-16.2.8-32.5,1.2-48.7a.6.6,0,0,0-1.2,0c-.4,16.2-.8,32.5-1.2,48.7,0,.7,1.2.7,1.2,0Z" transform="translate(-62.67 -261.59)"/><path d="M97.6,376.2c-.2-23.3-.5-46.6-1.4-69.9a.6.6,0,0,0-1.2,0c.9,23.3,1.2,46.6,1.4,69.9a.6.6,0,0,0,1.2,0Z" transform="translate(-62.67 -261.59)"/><path d="M96.2,307.8a3.91,3.91,0,0,1,2.6-3.9c1.9-.7,4.6-.1,4.7,2.4a.6.6,0,0,0,1.2,0c-.1-2.7-2.6-4.2-5.1-3.8a5.14,5.14,0,0,0-4.5,5.3c-.1.7,1.1.7,1.1,0Z" transform="translate(-62.67 -261.59)"/><path d="M68,263.8c21.5,3.5,42.5,1,64-1,.8-.1.8-1.3,0-1.2-21.4,2-42.3,4.4-63.7,1-.7-.1-1.1,1-.3,1.2Z" transform="translate(-62.67 -261.59)"/><path d="M131.6,263.9c4.7,13.3,4.8,27.2,4.6,41.2a389.62,389.62,0,0,1-2.7,40.4c-.1.8,1.1.8,1.2,0q2.4-21.15,2.7-42.3c.2-13.5-.1-26.7-4.7-39.6a.57.57,0,1,0-1.1.3Z" transform="translate(-62.67 -261.59)"/><path d="M119.6,555.2c-3.5,0-6.9,0-10.4.2a.6.6,0,0,0,0,1.2c3.5-.1,6.9-.2,10.4-.2a.6.6,0,0,0,0-1.2Z" transform="translate(-62.67 -261.59)"/><path d="M133.8,342.8c-1.3,25.1-4.2,50.1-11.1,74.3a.62.62,0,0,0,1.2.3c6.9-24.4,9.8-49.4,11.1-74.6a.6.6,0,0,0-1.2,0Z" transform="translate(-62.67 -261.59)"/><path d="M122.9,416.9c-2.7,8.4-1.2,18.4-1,27.1.2,9.9.4,19.8-.1,29.7a.6.6,0,0,0,1.2,0c.5-9.3.4-18.5.2-27.8-.2-9-1.9-20.1.9-28.7.2-.7-.9-1-1.2-.3Z" transform="translate(-62.67 -261.59)"/><path d="M121.7,472.8c.1,22.7-.8,45.3-1.5,68a.6.6,0,0,0,1.2,0c.7-22.7,1.7-45.3,1.5-68a.6.6,0,0,0-1.2,0Z" transform="translate(-62.67 -261.59)"/><path d="M120.4,555.9c.3-5,.7-10.1,1-15.1.1-.8-1.1-.8-1.2,0-.3,5-.7,10.1-1,15.1-.1.8,1.1.8,1.2,0Z" transform="translate(-62.67 -261.59)"/><path d="M109.7,555.9c-.9-16.9-2-33.8-3-50.7a.6.6,0,0,0-1.2,0c1,16.9,2.1,33.8,3,50.7.1.8,1.3.8,1.2,0Z" transform="translate(-62.67 -261.59)"/><path d="M106.7,505.8c.6-15.2-.6-30.7-1-45.9a.6.6,0,0,0-1.2,0c.3,15.2,1.5,30.7,1,45.9-.1.8,1.1.8,1.2,0Z" transform="translate(-62.67 -261.59)"/><path d="M105.7,460.3c-.1-12-.2-23.9-.3-35.9a.6.6,0,0,0-1.2,0c.1,12,.3,23.9.3,35.9a.6.6,0,1,0,1.2,0Z" transform="translate(-62.67 -261.59)"/><path d="M105.2,424.9c-.4-16.2-.8-32.5-1.2-48.7a.6.6,0,0,0-1.2,0c.4,16.2.8,32.5,1.2,48.7.1.8,1.3.8,1.2,0Z" transform="translate(-62.67 -261.59)"/><path d="M103.9,376.8c.2-23.3.5-46.6,1.4-69.9a.6.6,0,0,0-1.2,0c-.9,23.3-1.2,46.6-1.4,69.9a.6.6,0,1,0,1.2,0Z" transform="translate(-62.67 -261.59)"/></svg>