<?xml version="1.0" encoding="utf-8"?>
<!-- Generator: Adobe Illustrator 21.0.2, SVG Export Plug-In . SVG Version: 6.00 Build 0)  -->
<svg version="1.1" id="Layer_1" xmlns="http://www.w3.org/2000/svg" xmlns:xlink="http://www.w3.org/1999/xlink" x="0px" y="0px"
	 viewBox="0 0 200 600" style="enable-background:new 0 0 200 600;" xml:space="preserve">
<style type="text/css">
	.st0{fill:#FFE322;}
	.st1{fill:#F7ED56;}
</style>
<g>
	<g>
		<path class="st0" d="M81.9,44.1c-1.1,0.1-1.7,1.1-2.3,2c-0.2,0.4-0.4,0.7-0.6,1.1c0.6-3.3,2.7-6.4,5.5-8.3
			c-1.1,1.3-2.2,2.5-3.2,3.8c0.8-0.7,1.6-1.3,2.4-2c-0.1,1.1-0.7,2.1-1.5,2.8"/>
		<g>
			<path class="st0" d="M81.6,43c-1.9,0.4-2.7,2.1-3.6,3.6c0.7,0.3,1.5,0.6,2.2,0.9c0.6-3.1,2.3-5.8,5-7.6c-0.5-0.6-1-1.3-1.5-1.9
				c-1.1,1.3-2.2,2.5-3.2,3.8c-1,1.2,0.5,2.7,1.7,1.7c0.8-0.7,1.6-1.3,2.4-2c-0.7-0.4-1.3-0.8-2-1.2c-0.2,0.9-0.5,1.6-1.2,2.3
				c-1.1,1.1,0.6,2.8,1.7,1.7c1-0.9,1.6-2,1.8-3.3c0.2-1.2-1.1-1.9-2-1.2c-0.8,0.7-1.6,1.3-2.4,2c0.6,0.6,1.1,1.1,1.7,1.7
				c1.1-1.3,2.2-2.5,3.2-3.8c0.8-1-0.3-2.7-1.5-1.9c-3.1,2.1-5.3,5.3-6.1,9c-0.3,1.3,1.5,2.2,2.2,0.9c0.5-0.9,1-2.3,2.2-2.5
				C83.7,45,83.1,42.7,81.6,43L81.6,43z"/>
		</g>
	</g>
	<g>
		<path class="st0" d="M77.5,45.9c-0.4,0.1-0.9,0.1-1.3,0.2c-0.2,0-0.3,0-0.4-0.1s0-0.3,0-0.4c0.3-1.1,0.7-2.2,1.5-3
			c0.4-0.4,0.8-0.7,1.2-1.1c0.6-0.7,0.9-1.6,1.5-2.3c0.9-1.1,2.3-1.6,3.3-2.6c1-0.9,1.9-2.4,3.3-2.4"/>
		<g>
			<path class="st0" d="M77.5,44.7c-0.2,0-1.5,0-1.1,0.2c0.2,0.3,0.4,0.7,0.6,1c0-1.7,1.3-2.6,2.3-3.6c0.8-0.9,1.1-2,2-2.8
				c0.8-0.7,1.8-1.2,2.6-1.8c1-0.8,1.7-2.1,3-2.3c1.5-0.3,0.9-2.6-0.6-2.3s-2.3,1.3-3.4,2.3c-1.2,1.1-2.7,1.8-3.7,3
				c-0.5,0.6-0.8,1.4-1.3,2c-0.5,0.7-1.3,1.2-1.9,1.9c-0.8,1-1.4,2.5-1.4,3.7c0,0.4,0.2,0.8,0.6,1c0.8,0.4,1.5,0.2,2.4,0.1
				C79,46.9,79,44.5,77.5,44.7L77.5,44.7z"/>
		</g>
	</g>
	<g>
		<path class="st0" d="M80.2,41.5c-2.8,3.5-4.8,7.7-5.5,12.2c0-1.2,0.9-2.1,1.6-3c0.8-1,1.4-2.2,2-3.3"/>
		<g>
			<path class="st0" d="M79.3,40.6c-3,3.8-4.9,8-5.9,12.7c0.8,0.1,1.6,0.2,2.4,0.3c0.1-1.1,1.3-2.1,1.9-3c0.6-0.8,1.1-1.8,1.6-2.7
				c0.7-1.4-1.3-2.6-2.1-1.2C76,49,73.8,51,73.4,53.6c-0.2,1.3,2.1,1.6,2.4,0.3c0.8-4.3,2.5-8.2,5.2-11.6
				C82,41.1,80.3,39.4,79.3,40.6L79.3,40.6z"/>
		</g>
	</g>
	<g>
		<path class="st0" d="M76,50.9c-0.2,0.6-0.5,1.2-0.7,1.7"/>
		<g>
			<path class="st0" d="M74.8,50.6c-0.2,0.6-0.5,1.2-0.7,1.7c-0.2,0.6,0.3,1.3,0.8,1.5c0.7,0.2,1.2-0.2,1.5-0.8
				c0.2-0.6,0.5-1.2,0.7-1.7c0.2-0.6-0.3-1.3-0.8-1.5C75.6,49.6,75.1,50,74.8,50.6L74.8,50.6z"/>
		</g>
	</g>
	<g>
		<path class="st0" d="M74.8,51.2c-0.1-0.9,0-1.8,0.1-2.7c0.1-0.6,0.3-1.3,0.8-1.6"/>
		<g>
			<path class="st0" d="M76,51.2c0-0.7,0-1.4,0-2c0-0.3,0-1,0.3-1.2c1.3-0.8,0.1-2.9-1.2-2.1c-1.7,1-1.6,3.6-1.5,5.3
				C73.6,52.7,76,52.7,76,51.2L76,51.2z"/>
		</g>
	</g>
	<g>
		<path class="st0" d="M73.6,53.9c0.2-0.5,0.4-1,0.6-1.5c0.1-0.2,0.1-0.3,0.1-0.5c0-0.4-0.3-0.8-0.6-1c-0.7,0.8-1,2-0.8,3.1"/>
		<g>
			<path class="st0" d="M74.7,54.2c0.3-0.7,0.7-1.4,0.8-2.1c0.1-0.8-0.4-1.5-0.9-2.1c-0.4-0.4-1.3-0.5-1.7,0c-1,1.3-1.4,2.7-1.1,4.2
				c0.1,0.6,0.9,1,1.5,0.8c0.7-0.2,0.9-0.8,0.8-1.5c-0.1-0.6,0.1-1.4,0.5-1.9c-0.6,0-1.1,0-1.7,0l0.3,0.3c0-0.3,0-0.4-0.1-0.1
				c0,0.1-0.1,0.2-0.1,0.3c-0.2,0.5-0.4,0.9-0.6,1.4c-0.2,0.6,0.3,1.3,0.8,1.5C73.9,55.3,74.5,54.8,74.7,54.2L74.7,54.2z"/>
		</g>
	</g>
	<g>
		<path class="st0" d="M75.4,52c-0.8,0.6-1.6,1.4-1.7,2.3c0,0.2,0,0.5-0.1,0.7c-0.2,0.8-1.1,1.5-0.9,2.3"/>
		<g>
			<path class="st0" d="M74.5,51.1c-0.9,0.8-1.8,1.7-2,3c-0.2,1.1-1.1,2-0.9,3.2c0.2,1.5,2.6,1.5,2.4,0c-0.1-0.7,0.7-1.5,0.8-2.2
				c0.1-0.5,0.1-0.9,0.4-1.3c0.3-0.4,0.7-0.7,1.1-1.1C77.4,51.8,75.7,50.1,74.5,51.1L74.5,51.1z"/>
		</g>
	</g>
	<g>
		<path class="st0" d="M75,53.3c0,0.5-0.2,1-0.5,1.3"/>
		<g>
			<path class="st0" d="M73.8,53.3c0,0.2,0,0.4-0.1,0.5c-0.4,0.5-0.5,1.2,0,1.7c0.4,0.4,1.3,0.5,1.7,0c0.5-0.7,0.8-1.3,0.9-2.2
				c0-0.6-0.6-1.2-1.2-1.2C74.3,52.1,73.8,52.7,73.8,53.3L73.8,53.3z"/>
		</g>
	</g>
	<g>
		<path class="st0" d="M82.4,40.6c0.8-1.3,1.5-2.7,2.7-3.7c0.7-0.6,1.6-1.1,2.4-1.6c1.9-1,3.8-2,5.9-2.4c3.2-0.5,6.4,0.7,9.5,1.9
			c-2.7,0.6-5.4,0.8-8.1,0.6c2.3-0.1,4.5-0.1,6.8,0.2c-2.2-0.2-4.4-0.4-6.5-0.6c1.5,0.2,3.1,0.3,4.6,0.4c-1.6-1.1-3.6-1.6-5.5-1.4
			c0.4,1.1,1.1,2.1,1.8,2.9c-1.9-0.3-3.8-0.6-5.7-0.8c0.9,1,2,1.8,3.2,2.4c-1.1-0.9-2.3-1.6-3.7-2.1c1.4-0.4,2.9-0.8,4.3-1.2
			c-0.5-0.3-1.2-0.3-1.8-0.3c-2,0.1-4.1,0.4-5.6,1.7c-0.6,0.5-1,1.2-1.5,1.8c-0.6,0.9-1.2,1.9-1,3c1.1-0.6,2.2-1.2,3.4-1.5
			c0.9-0.2,1.9-0.3,2.8-0.3c1.8-0.1,3.6-0.2,5.4,0c-3.1-0.5-6.1-1.3-9-2.3c1.7,0.6,3.5,1.1,5.2,1.7c-1.8-0.5-3.7-0.7-5.5-0.6
			c1.4,0.6,2.9,0.7,4.4,1.1c1.5,0.3,3,0.9,3.9,2.2c-1.7-0.1-3.4-0.6-4.9-1.5c2.1-0.3,4.3,0.1,6.1,1.1"/>
		<g>
			<path class="st0" d="M83.4,41.2c1.8-3.2,4.6-5.2,8.1-6.4c4-1.4,7.4-0.2,11.1,1.2c0-0.8,0-1.5,0-2.3c-2.6,0.5-5.2,0.7-7.8,0.6
				c0,0.8,0,1.6,0,2.4c2.3-0.1,4.5,0,6.8,0.2c0-0.8,0-1.6,0-2.4c-2.2-0.2-4.4-0.4-6.5-0.6c-1.6-0.1-1.5,2.2,0,2.4s3.1,0.3,4.6,0.4
				c1.2,0,1.6-1.7,0.6-2.2c-2-1.1-3.8-1.6-6.1-1.6c-1,0-1.4,1-1,1.8c0.6,1.2,1.2,2.1,2,3.1c0.4-0.7,0.8-1.3,1.2-2
				c-1.9-0.3-3.8-0.6-5.7-0.8c-1.1-0.2-2.1,1.1-1.2,2c1.1,1.1,2.1,1.8,3.4,2.6c1.4,0.8,2.4-1.2,1.2-2.1c-1.2-0.9-2.3-1.5-3.7-2.1
				c-0.1,0.7-0.2,1.5-0.3,2.2c1.4-0.4,2.9-0.8,4.3-1.2c1.2-0.3,1.1-2,0-2.3c-5-1.6-11.1,2-11.4,7.4c-0.1,0.9,1.1,1.5,1.8,1
				c3.5-1.9,7.2-1.9,11.1-1.7c1.3,0.1,1.7-2.1,0.3-2.4c-3.1-0.6-6-1.3-9-2.3c-1.5-0.5-2.1,1.8-0.6,2.3c1.7,0.6,3.5,1.1,5.2,1.7
				c0.2-0.8,0.4-1.5,0.6-2.3c-2-0.5-3.8-0.7-5.8-0.7c-1.4,0-1.6,1.9-0.3,2.4c2.6,0.9,5.8,0.7,7.8,2.9c0.3-0.7,0.6-1.4,0.8-2
				c-1.5-0.1-3-0.6-4.3-1.3c-0.2,0.7-0.4,1.5-0.6,2.2c2-0.2,3.6,0.1,5.5,1c1.4,0.7,2.6-1.4,1.2-2.1c-2.2-1.1-4.2-1.5-6.7-1.3
				c-1.1,0.1-1.8,1.6-0.6,2.2c1.8,0.9,3.5,1.4,5.5,1.7c1.1,0.1,1.5-1.4,0.8-2c-2.4-2.6-5.7-2.5-8.9-3.6c-0.1,0.8-0.2,1.6-0.3,2.4
				c1.8,0,3.5,0.2,5.2,0.6c1.5,0.4,2.1-1.8,0.6-2.3c-1.7-0.6-3.5-1.1-5.2-1.7c-0.2,0.8-0.4,1.5-0.6,2.3c3,1,5.9,1.7,9,2.3
				c0.1-0.8,0.2-1.6,0.3-2.4c-4.4-0.3-8.4-0.1-12.3,2c0.6,0.3,1.2,0.7,1.8,1c0.2-3.8,5-6.1,8.4-5.1c0-0.8,0-1.5,0-2.3
				c-1.4,0.4-2.9,0.8-4.3,1.2c-0.9,0.3-1.3,1.8-0.3,2.2c1.4,0.6,2.4,1.2,3.7,2.1c0.4-0.7,0.8-1.4,1.2-2.1c-1.1-0.5-2.1-1.3-2.9-2.2
				c-0.4,0.7-0.8,1.3-1.2,2c1.9,0.3,3.8,0.6,5.7,0.8c1.2,0.2,2-1,1.2-2c-0.7-0.8-1.3-1.7-1.7-2.6c-0.3,0.6-0.7,1.2-1,1.8
				c1.9,0,3.3,0.3,4.9,1.3c0.2-0.7,0.4-1.5,0.6-2.2c-1.6-0.1-3.1-0.2-4.6-0.4c0,0.8,0,1.6,0,2.4c2.2,0.2,4.4,0.4,6.5,0.6
				c1.5,0.1,1.5-2.2,0-2.4c-2.3-0.2-4.5-0.3-6.8-0.2c-1.5,0.1-1.5,2.3,0,2.4c2.9,0.1,5.6-0.1,8.4-0.7c1.3-0.2,1-1.9,0-2.3
				c-4.3-1.6-8.3-2.8-12.7-1.1c-4.1,1.5-7,3.7-9.2,7.4C80.6,41.3,82.7,42.6,83.4,41.2L83.4,41.2z"/>
		</g>
	</g>
	<g>
		<path class="st0" d="M92.8,40.6c-2.2-0.1-4.3-0.1-6.5,0"/>
		<g>
			<path class="st0" d="M92.8,39.4c-2.2-0.1-4.3-0.1-6.5,0c-1.5,0-1.5,2.4,0,2.4c2.2-0.1,4.3,0,6.5,0C94.3,41.9,94.3,39.5,92.8,39.4
				L92.8,39.4z"/>
		</g>
	</g>
	<g>
		<path class="st0" d="M97.9,38.6c0.9-0.5,2.1-0.5,2.9,0.1c-2.5,0.5-5.1,0.1-7.3-1.1c2.9-1.3,6.3-1.3,9.1,0
			c-2.4,0.3-4.8-0.2-6.9-1.3c3.2-1,6.7-1.1,10-0.2c0.2,0.1,0.5,0.2,0.5,0.4s-0.1,0.4-0.3,0.5c-0.9,0.6-2,0.7-3,0.6
			c-1-0.1-2-0.5-3-0.9c-0.3-0.1-0.6-0.3-0.7-0.6s0.2-0.6,0.5-0.9c1.6-1.3,3.8-2,5.9-1.7c0.8,0.1,1.7,0.4,2.3,0.9
			c0.6,0.6,1,1.5,0.7,2.3c-0.3,1-1.4,1.4-2.5,1.6c-1.3,0.2-2.6,0-3.7-0.4c-0.6-0.2-1.3-0.7-1.3-1.4c0-0.3,0.2-0.5,0.4-0.8
			c1-1.2,2.6-1.8,4.1-1.6s2.9,1.3,3.4,2.7c0.2,0.5,0.3,1.1,0,1.5c-0.2,0.4-0.7,0.6-1.2,0.7c-0.9,0.3-1.9,0.4-2.9,0.1
			c-0.9-0.3-1.8-1-1.9-2c-0.2-1.1,0.6-2.2,1.7-2.5s2.3,0.1,3,0.9s1,2,0.9,3.1c0,0.6-0.2,1.2-0.6,1.7c-0.3,0.4-0.8,0.6-1.2,0.8
			c-1.9,0.8-4.1,0.5-6.2,0.1s-4.1-1-6.2-0.9c3.7-0.7,7.5-0.8,11.2-0.4c-1.5,0.1-2.9,0.1-4.4-0.1"/>
		<g>
			<path class="st0" d="M98.2,39.8c0.7,0,1.3,0,2,0c0.1-0.7,0.2-1.5,0.3-2.2c-2.3,0.3-4.3,0-6.4-0.9c-0.1,0.7-0.2,1.5-0.3,2.2
				c2.9-1.1,5.6-1.1,8.5,0c0.1-0.8,0.2-1.6,0.3-2.4c-2.3,0.2-4.3-0.2-6.3-1.1c-0.1,0.7-0.2,1.5-0.3,2.2c1.7-0.5,3.4-0.8,5.2-0.8
				c1,0,6.8,1,2.5-0.3c-1-0.3-4.4-0.2-1.4-1.3c0.8-0.3,1.5-0.4,2.3-0.4c2-0.2,2.1,0.6,0.5,2.6c-1.7,0.3-2.1-0.3-1.1-1.8
				c2.4-0.4,3.5,0.5,3.4,2.5c-0.3-1.6-1-0.8-2,2.4c-0.9,0.2-1.9,0.2-2.8,0.1c-2.8-0.2-5.4-1.2-8.3-1.2c0.1,0.8,0.2,1.6,0.3,2.4
				c3.6-0.6,7.2-0.7,10.9-0.3c0-0.8,0-1.6,0-2.4c-1.5,0.1-2.9,0-4.4-0.1s-1.5,2.3,0,2.4c1.5,0.1,2.9,0.1,4.4,0.1
				c1.6-0.1,1.5-2.2,0-2.4c-3.9-0.4-7.7-0.3-11.5,0.4c-1.4,0.2-1,2.3,0.3,2.4c4.2,0,10.1,3.1,13.9,0.1c2.6-2,1.8-6.4-1-7.8
				c-2.7-1.3-6.3,0.8-5.3,4c0.9,2.8,5.1,3.5,7.3,1.8c2.9-2.3-0.9-6.2-3.5-6.7c-2.3-0.4-7.2,1.5-5.7,4.6c1.3,2.7,6.6,2.6,8.6,0.9
				c2.8-2.4-0.1-5.6-2.9-6.1c-1.9-0.3-9.3,0.9-7.7,4.3c0.6,1.4,3.3,1.9,4.6,2c1.7,0.2,3.5-0.1,4.5-1.6c0.2-0.3,0.2-0.9,0-1.2
				c-2-3-9.1-1.5-11.9-0.8c-0.9,0.3-1.2,1.7-0.3,2.2c2.4,1.2,4.8,1.7,7.5,1.5c1.4-0.1,1.6-1.9,0.3-2.4c-3.2-1.3-6.5-1.3-9.8,0
				c-0.9,0.3-1.3,1.7-0.3,2.2c2.7,1.3,5.3,1.6,8.3,1.2c1-0.1,1.2-1.8,0.3-2.2c-1.3-0.7-2.4-0.8-3.8-0.2C96.2,38,96.8,40.3,98.2,39.8
				L98.2,39.8z"/>
		</g>
	</g>
	<g>
		<path class="st0" d="M93.5,40.5c1.3,0.3,2.6,0.6,4,0.9c-0.9,0.5-2.1,0.2-3.1-0.1c1.3,1.3,3.3,1.7,5.2,2c1.3,0.2,2.7,0.4,4.1,0.3
			c2.1-0.2,4-1.1,5.9-2.1"/>
		<g>
			<path class="st0" d="M93.2,41.7c1.3,0.3,2.6,0.6,4,0.9c0-0.8,0-1.5,0-2.3c-0.8,0-1.6-0.1-2.4-0.1c-1.1-0.3-2.1,1.2-1.2,2
				c4.7,4,11.5,2.9,16.6,0.4c1.4-0.7,0.2-2.7-1.2-2.1c-4,1.9-9.9,3.1-13.7-0.1c-0.4,0.7-0.8,1.3-1.2,2c1.4,0.4,2.3,0.5,3.7,0.1
				c1.1-0.3,1.2-2.1,0-2.3c-1.3-0.3-2.6-0.6-4-0.9C92.3,39,91.7,41.3,93.2,41.7L93.2,41.7z"/>
		</g>
	</g>
	<g>
		<path class="st0" d="M108,37.9c1.4-0.2,2.9-0.1,4.3,0.3c-1.4-0.3-2.9-0.6-4.4-0.8c1.5,0.7,2.9,1.4,4.3,2.2c-1,0.3-2,0.6-3,0.7
			c2.2,0.1,4.5-0.2,6.7-0.1s4.6,0.9,5.9,2.7c-1.1-0.5-2.1-1.3-3.2-2c-3-2.2-6-4.3-9.1-6.4c2.2,0.7,4,2.1,5.8,3.4
			c-2.6-1.6-5-3.4-7.2-5.4c3.3,1.4,6.3,3.8,8.4,6.7c-2,0.2-4-0.1-5.8-1"/>
		<g>
			<path class="st0" d="M108,39.1c1.4-0.2,2.6-0.1,4,0.3c0.2-0.8,0.4-1.5,0.6-2.3c-1.5-0.3-2.9-0.6-4.4-0.8
				c-1.2-0.2-2.3,1.6-0.9,2.2c1.5,0.7,2.9,1.4,4.3,2.2c0.1-0.7,0.2-1.5,0.3-2.2c-1,0.3-2,0.5-3,0.7c-1.4,0.2-1,2.3,0.3,2.4
				c3.9,0.1,8.9-1.2,11.7,2.3c0.5-0.6,1-1.3,1.5-1.9c-4.3-2.3-8.2-5.7-12.2-8.4c-0.3,0.7-0.6,1.5-0.9,2.2c2,0.7,3.6,1.9,5.2,3.1
				c0.5-0.6,1-1.3,1.5-1.9c-2.5-1.5-4.8-3.3-6.9-5.2c-0.5,0.6-1,1.3-1.5,1.9c3.3,1.5,6,3.6,8.2,6.5c0.3-0.7,0.6-1.4,0.8-2
				c-2,0.1-3.7-0.2-5.5-1c-1.4-0.6-2,1.7-0.6,2.3c2,0.9,3.9,1.2,6.1,1c1.1-0.1,1.5-1.2,0.8-2c-2.3-3-5.2-5.3-8.7-6.9
				c-1.2-0.5-2.5,0.9-1.5,1.9c2.3,2.1,4.8,4,7.4,5.6c1.1,0.7,2.5-1,1.5-1.9c-2-1.5-3.9-2.9-6.3-3.8c-1.3-0.5-2,1.5-0.9,2.2
				c4,2.7,7.9,6.2,12.2,8.4c1.2,0.7,2.3-0.8,1.5-1.9c-3.4-4.1-8.8-2.9-13.4-3c0.1,0.8,0.2,1.6,0.3,2.4c1-0.2,2-0.4,3-0.7
				c0.9-0.3,1.2-1.7,0.3-2.2c-1.4-0.8-2.9-1.5-4.3-2.2c-0.3,0.7-0.6,1.5-0.9,2.2c1.5,0.2,2.9,0.5,4.4,0.8s2.1-1.9,0.6-2.3
				c-1.6-0.4-3-0.5-4.6-0.4C106.5,36.9,106.5,39.3,108,39.1L108,39.1z"/>
		</g>
	</g>
	<g>
		<path class="st0" d="M116.4,40.4c1.4,0.7,2.8,1.4,4,2.4c0.6,0.4,1.1,0.9,1.7,1.3c0.6,0.4,1.3,0.7,1.9,1.1c0.8,0.6,1.3,1.6,1.6,2.5
			c-1-1.4-2.1-2.6-3.4-3.8c0.8,0.9,1.5,1.9,2.3,2.8c-1-1-2-2-3-3c1.4,2.7,4.5,4.4,5.3,7.3"/>
		<g>
			<path class="st0" d="M115.8,41.4c1.8,0.9,3.3,1.9,4.9,3.1c1.5,1.1,3.1,1.6,3.8,3.5c0.7-0.3,1.5-0.6,2.2-0.9
				c-1.1-1.4-2.3-2.8-3.6-4c-1.1-1.1-2.6,0.5-1.7,1.7c0.8,0.9,1.5,1.9,2.3,2.8c0.6-0.6,1.1-1.1,1.7-1.7c-1-1-2-2-3-3
				s-2.5,0.3-1.9,1.5c1.4,2.5,4.2,4.3,5.1,7.1c0.5,1.5,2.8,0.8,2.3-0.6c-1-3.1-3.8-4.8-5.4-7.6c-0.6,0.5-1.3,1-1.9,1.5c1,1,2,2,3,3
				c1.1,1.1,2.6-0.5,1.7-1.7c-0.8-0.9-1.5-1.9-2.3-2.8c-0.6,0.6-1.1,1.1-1.7,1.7c1.1,1.1,2.2,2.3,3.2,3.5c0.7,1,2.7,0.5,2.2-0.9
				c-0.8-1.9-1.7-2.9-3.4-4c-2.2-1.3-4-2.9-6.3-4C115.7,38.7,114.5,40.7,115.8,41.4L115.8,41.4z"/>
		</g>
	</g>
	<g>
		<path class="st0" d="M127.3,52.5c0-1.4-0.5-2.8-0.9-4.2c-0.3-0.9-0.6-1.9-1-2.8c-0.4-0.9-1-1.8-1.6-2.6c-2.9-3.8-6.9-6.7-11.4-8.3
			"/>
		<g>
			<path class="st0" d="M128.5,52.5c-0.7-9.2-7.5-15.8-15.8-18.9c-1.4-0.6-2.1,1.8-0.6,2.3c7.2,2.7,13.4,8.6,14,16.6
				C126.2,54,128.6,54,128.5,52.5L128.5,52.5z"/>
		</g>
	</g>
	<g>
		<path class="st0" d="M119.1,38.5c0.1,0.1,0.1,0.2,0.2,0.4c-0.3-1.9-1.6-3.6-3.2-4.7c-1.6-1.1-3.4-1.8-5.2-2.5
			c-2.6-0.9-5.2-1.8-7.9-1.6c-1,0.1-2,0.3-3.1,0.4c-1.6,0.1-3.3-0.1-4.9,0.3c-0.9,0.3-1.7,0.8-2.7,1c-1.5,0.5-3.3,0.3-4.5,1.4"/>
		<g>
			<path class="st0" d="M118,39.1c0.1,0.1,0.1,0.2,0.2,0.4c0.6,1.2,2.6,0.4,2.2-0.9c-1.8-6-9-8.8-14.8-9.6c-2.9-0.4-6.5-0.1-9.4,0.3
				c-2.8,0.4-6.6,1.3-9,2.8c-1.3,0.8-0.1,2.9,1.2,2.1c3.8-2.3,9.5-2.6,13.7-2.9C107.5,31,116.4,33.5,118,39.1
				c0.8-0.2,1.5-0.5,2.3-0.8c-0.1-0.1-0.1-0.2-0.2-0.4C119.4,36.5,117.3,37.8,118,39.1L118,39.1z"/>
		</g>
	</g>
	<g>
		<path class="st0" d="M106.6,33c-2.7-0.3-5.3-0.5-8-0.6"/>
		<g>
			<path class="st0" d="M106.6,31.8c-2.7-0.3-5.3-0.5-8-0.6c-1.5-0.1-1.5,2.3,0,2.4c2.7,0.2,5.3,0.4,8,0.6
				C108.1,34.4,108.1,32,106.6,31.8L106.6,31.8z"/>
		</g>
	</g>
	<g>
		<path class="st0" d="M107.2,36.3c-1.9-0.2-3.8-0.5-5.7-1c6.6,0.1,13.5,0.3,19.2,3.5c-0.8-1.4-2-2.7-3.3-3.7"/>
		<g>
			<path class="st0" d="M107.2,35.1c-1.8-0.2-3.6-0.6-5.4-0.9c-0.1,0.8-0.2,1.6-0.3,2.4c6.4,0.1,12.8,0.4,18.6,3.4
				c1,0.5,2.3-0.6,1.6-1.6c-1-1.5-2.1-2.8-3.5-3.9c-1.2-1-2.9,0.7-1.7,1.7c1.3,1.1,2.2,2,3.1,3.4c0.5-0.5,1.1-1.1,1.6-1.6
				c-6.2-3.2-13-3.6-19.8-3.7c-1.3,0-1.7,2.1-0.3,2.4c2,0.4,4,0.8,6.1,1C108.8,37.7,108.8,35.3,107.2,35.1L107.2,35.1z"/>
		</g>
	</g>
	<g>
		<g>
			<g>
				<g>
					<path d="M72.4,59.5c-0.1-7,2.7-16,7.4-21.2c5.3-5.9,13.1-8.4,20.9-8.7c8.3-0.3,14.4,1.9,19.7,8.2c2.5,2.9,5.6,6.2,6.5,10
						c0.9,3.9,0.7,8.3,1,12.3c0.1,0.8,1.3,0.8,1.2,0c-0.3-4.3,0-9.2-1.2-13.3c-1-3.5-3.8-6.4-6-9.2c-5.9-7-11.9-9.6-21.1-9.3
						C83.6,28.9,71,41.9,71.3,59.4C71.2,60.2,72.4,60.2,72.4,59.5L72.4,59.5z"/>
				</g>
			</g>
			<g>
				<g>
					<path d="M72.8,60.3c3-5.3,6.2-11.9,10.6-16.1c4.6-4.4,11.4,0.3,16.9,0.6c2.3,0.1,4.6,0.1,6.8-0.7c2.8-1.1,3.3-2.2,6.5-2.1
						c7,0.3,12.3,9.8,14.5,15.7c0.3,0.7,1.4,0.4,1.2-0.3c-2.2-5.9-5.8-11.6-11-15.3c-6.5-4.6-9.9,1.7-17,1.6c-2.8,0-5.3-0.5-7.8-1.6
						c-1.3-0.5-2.4-1.3-3.7-1.6c-1.8-0.3-3.3,0.1-4.9,1.1c-2.3,1.5-4,4.2-5.5,6.4c-2.7,3.8-5.1,7.8-7.4,11.8
						C71.4,60.4,72.4,61,72.8,60.3L72.8,60.3z"/>
				</g>
			</g>
		</g>
		<g>
			<g>
				<path class="st1" d="M93.3,38.3c2.7,1.9,5.7,2.9,9,3c0.8,0,0.8-1.2,0-1.2c-3.1-0.1-5.9-1.1-8.4-2.9
					C93.3,36.8,92.7,37.9,93.3,38.3L93.3,38.3z"/>
			</g>
		</g>
		<g>
			<g>
				<path class="st1" d="M74.7,54.3c2.4-6.4,4.7-13.2,10.8-16.9c0.7-0.4,0.1-1.4-0.6-1c-3.1,1.9-5,3.7-6.7,7
					c-1.7,3.4-3.2,7-4.6,10.6C73.3,54.7,74.4,55,74.7,54.3L74.7,54.3z"/>
			</g>
		</g>
		<g>
			<g>
				<path class="st1" d="M111.9,33.7c2.7,1.9,5.4,3.8,7.6,6.2c2.1,2.2,3.3,5.1,5.6,7c0.6,0.5,1.4-0.3,0.8-0.8
					c-2.5-2.1-3.9-5.3-6.2-7.7c-2.2-2.2-4.7-4-7.3-5.8C111.9,32.3,111.3,33.3,111.9,33.7L111.9,33.7z"/>
			</g>
		</g>
		<g>
			<g>
				<path class="st1" d="M97.9,34.1c2.5,1.4,5.1,2.3,7.9,2.9c0.8,0.1,1.1-1,0.3-1.2c-2.7-0.5-5.2-1.4-7.6-2.7
					C97.8,32.7,97.2,33.7,97.9,34.1L97.9,34.1z"/>
			</g>
		</g>
	</g>
</g>
</svg>
