<?xml version="1.0" encoding="utf-8"?>
<!-- Generator: Adobe Illustrator 21.0.2, SVG Export Plug-In . SVG Version: 6.00 Build 0)  -->
<svg version="1.1" id="Layer_1" xmlns="http://www.w3.org/2000/svg" xmlns:xlink="http://www.w3.org/1999/xlink" x="0px" y="0px"
	 viewBox="0 0 200 600" style="enable-background:new 0 0 200 600;" xml:space="preserve">
<style type="text/css">
	.st0{fill:#603218;}
	.st1{fill:#61381A;}
</style>
<g>
	<g>
		<g>
			<g>
				<g>
					<g>
						<g>
							<path class="st0" d="M78,46.5c0.3-0.7,0.6-1.3,0.9-2.1c0.2-0.6-0.8-1.1-1.1-0.5c-0.3,0.6-0.3,0.7-0.5,1.4
								c-0.2,0.5,0.6,1.1,1,0.6c0.4-0.5,0.7-0.9,1.1-1.4c-0.3-0.2-0.7-0.4-1-0.6c-0.2,0.7-0.4,1.3-0.7,1.9c-0.3,0.7,0.6,1.3,1,0.6
								c0.7-1,1.3-2,2-3c-0.3-0.2-0.7-0.4-1-0.6c-0.3,0.6-0.5,1.2-0.8,1.8c-0.2,0.6,0.4,1.3,0.9,0.7c0.5-0.5,1-1.1,1.5-1.6
								c-0.3-0.3-0.6-0.6-0.8-0.8c-0.4,0.4-0.8,0.9-1.1,1.3c-0.5,0.6,0.3,1.4,0.8,0.8c0.5-0.5,1-1.1,1.6-1.6
								c-0.3-0.3-0.6-0.6-0.8-0.8c-1.9,2.1-3.7,4.3-5.4,6.4c-0.8,1-3,2.8-2.6,4.2c0.2,0.7,1.4,0.4,1.2-0.3c-0.1-0.4,1.5-2.1,1.8-2.4
								c0.6-0.8,1.3-1.6,1.9-2.4c1.3-1.6,2.6-3.1,4-4.7c0.5-0.6-0.3-1.4-0.8-0.8c-0.5,0.5-1,1.1-1.6,1.6c0.3,0.3,0.6,0.6,0.8,0.8
								c0.4-0.4,0.8-0.9,1.1-1.3c0.5-0.6-0.3-1.4-0.8-0.8c-0.5,0.5-1,1.1-1.5,1.6c0.3,0.2,0.6,0.5,0.9,0.7c0.3-0.6,0.5-1.2,0.8-1.8
								c0.3-0.7-0.6-1.3-1-0.6c-0.7,1-1.3,2-2,3c0.3,0.2,0.7,0.4,1,0.6c0.4-0.7,0.6-1.4,0.9-2.2c0.2-0.5-0.6-1.1-1-0.6
								c-0.4,0.5-0.7,0.9-1.1,1.4c0.3,0.2,0.7,0.4,1,0.6c0.1-0.4,0.3-0.7,0.4-1.1c-0.4-0.2-0.7-0.3-1.1-0.5
								c-0.2,0.6-0.4,1.2-0.7,1.8C76.6,46.6,77.7,47.2,78,46.5L78,46.5z"/>
						</g>
					</g>
					<g>
						<g>
							<path class="st0" d="M73.9,53c-0.2,0.1-0.3,0.2-0.5,0.3c-0.6,0.4,0,1.5,0.6,1c0.2-0.1,0.3-0.2,0.5-0.3
								C75.1,53.6,74.5,52.6,73.9,53L73.9,53z"/>
						</g>
					</g>
					<g>
						<g>
							<path class="st0" d="M74.2,52c1.2-0.6,1.9-1.4,2.5-2.6c-0.4-0.2-0.7-0.3-1.1-0.5c-0.4,1-0.8,1.9-1.2,2.8
								c0.4,0.2,0.7,0.3,1.1,0.5c0.3-0.9,0.6-1.6,1.1-2.4c-0.3-0.2-0.7-0.4-1-0.6c-0.6,1.2-1.3,2.5-1.9,3.7c0.4,0.2,0.7,0.3,1.1,0.5
								c0.2-0.4,0.4-0.8,0.6-1.1c-0.4-0.2-0.7-0.3-1.1-0.5c-0.3,0.7-0.5,1.3-0.8,2c-0.3,0.6,0.8,1,1.1,0.5c0.6-1,1.2-2.1,1.8-3.1
								c-0.4-0.2-0.7-0.3-1.1-0.5c-0.2,0.5-0.4,1.1-0.6,1.6c-0.2,0.6,0.8,1.1,1.1,0.5c0.7-1.4,1.4-2.8,2.2-4.2
								c-0.4-0.2-0.7-0.3-1.1-0.5c-0.4,1.3-0.9,2.4-1.5,3.6c0.4,0.2,0.7,0.3,1.1,0.5c0.5-1.4,1.1-2.7,1.8-4
								c-0.4-0.2-0.7-0.3-1.1-0.5c-0.2,0.7-0.4,1.4-0.6,2.1c-0.2,0.8,0.9,1,1.2,0.3c0.6-1.6,1.3-3.1,2.1-4.6
								c-0.4-0.2-0.7-0.3-1.1-0.5c-0.2,1-0.4,1.7-0.8,2.7c0.4,0.2,0.7,0.3,1.1,0.5c0.4-1.2,0.9-2.3,1.7-3.4
								c-0.4-0.2-0.7-0.3-1.1-0.5c-0.2,0.7-0.6,1.4-1,2c0.3,0.2,0.7,0.4,1,0.6c0.2-0.4,0.4-0.7,0.6-1.1c0.3-0.6-0.5-1.3-0.9-0.7
								c-1.4,1.6-2.1,3.5-3,5.4c-0.5,1-1.3,1.8-1.9,2.7c-0.3,0.5-0.8,2.4-1.2,2.6c0.3,0.2,0.6,0.5,0.9,0.7c0.7-2,1.6-4,2.4-6
								c0.3-0.7-0.7-1.3-1-0.6c-0.9,2.1-1.8,4.1-2.6,6.3c-0.2,0.5,0.5,0.9,0.9,0.7c0.5-0.3,0.6-0.4,0.9-0.9c0.5-1.2,1-2.3,1.8-3.4
								c1.5-2.1,2-4.7,3.7-6.6c-0.3-0.2-0.6-0.5-0.9-0.7c-0.2,0.4-0.4,0.7-0.6,1.1c-0.4,0.7,0.6,1.3,1,0.6c0.5-0.8,0.8-1.5,1.1-2.3
								c0.2-0.7-0.7-1-1.1-0.5c-0.8,1.2-1.4,2.3-1.8,3.7c-0.2,0.6,0.8,1.1,1.1,0.5c0.4-1,0.7-1.9,0.9-3c0.1-0.6-0.7-1.1-1.1-0.5
								c-0.9,1.6-1.6,3.2-2.2,4.9c0.4,0.1,0.8,0.2,1.2,0.3c0.2-0.7,0.4-1.4,0.6-2.1c0.2-0.6-0.8-1.1-1.1-0.5
								c-0.7,1.4-1.3,2.8-1.9,4.3c-0.2,0.6,0.8,1.1,1.1,0.5c0.7-1.3,1.2-2.5,1.6-3.9c0.2-0.6-0.8-1.1-1.1-0.5
								c-0.7,1.4-1.4,2.8-2.2,4.2c0.4,0.2,0.7,0.3,1.1,0.5c0.2-0.5,0.4-1.1,0.6-1.6c0.2-0.6-0.8-1-1.1-0.5c-0.6,1-1.2,2.1-1.8,3.1
								c0.4,0.2,0.7,0.3,1.1,0.5c0.3-0.7,0.5-1.3,0.8-2c0.3-0.7-0.7-1-1.1-0.5c-0.4,0.7-0.4,0.7-0.7,1.4c-0.3,0.6,0.8,1.1,1.1,0.5
								c0.6-1.2,1.3-2.5,1.9-3.7c0.4-0.7-0.6-1.2-1-0.6c-0.6,0.8-1,1.7-1.2,2.6c-0.2,0.6,0.8,1.1,1.1,0.5c0.5-1,0.9-2,1.4-3.1
								c0.2-0.6-0.8-1.1-1.1-0.5c-0.4,0.9-1.2,1.7-2.1,2.2C72.9,51.4,73.5,52.4,74.2,52L74.2,52z"/>
						</g>
					</g>
					<g>
						<g>
							<path class="st0" d="M74.4,51c0.4-1.2,0.9-2.5,1.5-3.6c-0.4-0.2-0.7-0.3-1.1-0.5c-0.2,1.4-0.7,2.6-1.5,3.8
								C73.7,50.8,74.1,50.9,74.4,51c0.3-1.1,0.7-2.2,1-3.3c-0.4-0.1-0.7-0.2-1.1-0.3c0,0.6-0.1,1.3-0.1,1.9c0,0.6,0.9,0.9,1.1,0.3
								c0.8-1.9,1.6-3.7,2.5-5.6c-0.4-0.2-0.7-0.3-1.1-0.5c-0.1,1.4-0.5,2.8-1.2,4.1c0.4,0.2,0.7,0.3,1.1,0.5
								c0.5-1.7,1.3-3.2,2.5-4.5c-0.3-0.2-0.7-0.4-1-0.6c-0.4,1.6-1,3.1-1.7,4.5c0.4,0.2,0.7,0.3,1.1,0.5c0.8-2.1,1.7-3.7,2.9-5.5
								c-0.4-0.2-0.7-0.3-1.1-0.5c-0.6,1.7-1.3,3.2-2.1,4.8c0.3,0.2,0.7,0.4,1,0.6c1.2-2.5,2.6-4.8,4.5-6.9
								c-0.3-0.2-0.6-0.5-0.9-0.7c-1,1.4-1.9,2.8-2.9,4.2c0.3,0.2,0.7,0.4,1,0.6c0.9-1.7,1.8-3,3-4.5c-0.3-0.2-0.6-0.5-0.9-0.7
								c-0.8,1.6-1.6,2.9-2.8,4.4c0.3,0.2,0.6,0.5,0.9,0.7c0.8-1.6,1.7-2.9,3-4.1c-0.3-0.2-0.6-0.5-0.9-0.7
								c-0.9,1.5-1.9,2.9-2.8,4.4c0.3,0.2,0.7,0.4,1,0.6c1.2-1.9,2.6-3.6,4.3-5.1c-0.3-0.2-0.6-0.5-0.9-0.7
								c-0.8,1.7-1.9,3.1-3.4,4.4c0.3,0.2,0.6,0.5,0.9,0.7c0.8-1.5,1.7-2.6,3-3.7c-0.3-0.2-0.6-0.5-0.9-0.7
								c-0.5,0.7-1.1,1.5-1.6,2.2c-0.3,0.5,0.3,1.2,0.8,0.8c1.2-0.9,2.4-1.8,3.6-2.7c-0.2-0.3-0.5-0.6-0.7-0.9
								c-1.2,1-2.5,2.1-3.7,3.1c0.3,0.3,0.6,0.6,0.8,0.8c1.4-1.7,2.9-3.1,4.8-4.3c-0.2-0.3-0.5-0.6-0.7-0.9c-0.6,0.7-1.2,1.4-2,1.9
								c0.3,0.3,0.6,0.6,0.8,0.8c1.1-0.6,2.2-1.1,3.4-1.7c-0.1-0.4-0.2-0.8-0.3-1.2c-0.6,0.3-1.3,0.5-1.9,0.6
								c-0.5,0.1-0.6,1.1,0,1.2c2,0.3,4,0.6,6.1,0.8c0-0.4,0-0.8,0-1.2c-1.9,0.2-3.5,0.2-5.5-0.1c0,0.4,0,0.8,0,1.2
								c2.2-0.5,4.4-0.4,6.6,0.2c0.1-0.4,0.2-0.8,0.3-1.2c-0.8-0.1-1.6-0.3-2.5-0.4c-0.8-0.1-1.1,0.9-0.3,1.2
								c1.9,0.7,3.7,1.2,5.6,1.5c0.8,0.1,1.1-0.9,0.3-1.2c-1-0.3-2.1-0.6-3.1-1c-0.8-0.2-1,0.9-0.3,1.2c1.2,0.5,2.3,1,3.5,1.5
								c0.1-0.4,0.1-0.8,0.2-1.2c-1.1-0.1-2.2-0.3-3.4-0.4c-0.7-0.1-0.8,1-0.2,1.2c1.1,0.3,2.1,0.5,3.2,0.8c0.6,0.2,1.1-0.8,0.5-1.1
								c-1.4-0.7-2.8-1.5-4.2-2.2c-0.6-0.3-1.1,0.3-0.8,0.8c0.4,1,0.5,0.9,1.5,1.4c0.1-0.4,0.2-0.8,0.3-1.2c-1-0.3-2-0.6-3.1-0.9
								c-0.7-0.2-1.1,0.9-0.3,1.2c1.4,0.5,1.1,0.4,2.5,0.5c0.4,0,0.8-0.6,0.5-0.9c-0.5-0.7-0.4-0.7-1.2-1c-0.7-0.3-1.3,0.7-0.6,1
								c-0.3-0.3-0.6-0.5-0.9-0.8c-0.1,0.4-0.2,0.8-0.3,1.2c1,0.3,2,0.6,3.1,0.9c0.8,0.2,1-0.9,0.3-1.2c-0.3-0.3-0.5-0.5-0.8-0.8
								c-0.3,0.3-0.5,0.5-0.8,0.8c1.4,0.7,2.8,1.5,4.2,2.2c0.2-0.4,0.3-0.7,0.5-1.1c-1.1-0.3-2.1-0.5-3.2-0.8
								c-0.1,0.4-0.1,0.8-0.2,1.2c1.1,0.1,2.2,0.3,3.4,0.4c0.7,0.1,0.7-0.9,0.2-1.2c-1.2-0.5-2.3-1-3.5-1.5
								c-0.1,0.4-0.2,0.8-0.3,1.2c1,0.3,2.1,0.6,3.1,1c0.1-0.4,0.2-0.8,0.3-1.2c-1.9-0.4-3.8-0.9-5.6-1.5c-0.1,0.4-0.2,0.8-0.3,1.2
								c0.8,0.1,1.6,0.3,2.5,0.4c0.7,0.1,1.1-1,0.3-1.2c-2.5-0.5-4.7-0.6-7.3-0.2c-0.6,0.1-0.6,1.1,0,1.2c2,0.3,3.8,0.4,5.8,0.2
								c0.8-0.1,0.8-1.1,0-1.2c-1.9-0.2-3.8-0.5-5.7-0.8c0,0.4,0,0.8,0,1.2c0.7-0.1,1.3-0.3,1.9-0.6c0.7-0.3,0.5-1.3-0.3-1.2
								c-1.7,0.3-2.6,0.8-3.9,2c-0.6,0.5,0.3,1.3,0.8,0.8c0.8-0.5,1.4-1.2,2-1.9c0.4-0.5-0.1-1.3-0.7-0.9c-1.9,1.3-3.5,2.7-5,4.4
								c-0.5,0.6,0.3,1.3,0.8,0.8c1.2-1,2.5-2.1,3.7-3.1c0.5-0.4-0.2-1.4-0.7-0.9c-1.2,0.9-2.4,1.8-3.6,2.7c0.3,0.3,0.5,0.5,0.8,0.8
								c0.5-0.7,1.1-1.5,1.6-2.2c0.4-0.6-0.5-1.1-0.9-0.7c-1.4,1.2-2.3,2.3-3.2,4c-0.3,0.6,0.4,1.2,0.9,0.7c1.6-1.4,2.6-2.7,3.5-4.6
								c0.3-0.6-0.4-1.2-0.9-0.7C82,40.3,80.6,42,79.3,44c-0.4,0.6,0.6,1.3,1,0.6c0.9-1.5,1.9-2.9,2.8-4.4c0.4-0.6-0.5-1.2-0.9-0.7
								c-1.3,1.4-2.3,2.7-3.2,4.4c-0.3,0.6,0.5,1.3,0.9,0.7c1.2-1.5,2.1-2.9,3-4.6c0.3-0.6-0.5-1.3-0.9-0.7
								c-1.2,1.5-2.3,3.1-3.2,4.8c-0.4,0.7,0.6,1.2,1,0.6c1-1.4,1.9-2.8,2.9-4.2c0.4-0.6-0.5-1.2-0.9-0.7c-1.9,2.2-3.4,4.5-4.7,7.1
								c-0.3,0.7,0.7,1.3,1,0.6c0.9-1.7,1.6-3.3,2.2-5.1c0.2-0.7-0.7-1-1.1-0.5c-1.2,1.9-2.2,3.7-3,5.8c-0.2,0.6,0.8,1.1,1.1,0.5
								c0.8-1.6,1.4-3.1,1.9-4.8c0.2-0.5-0.6-1.1-1-0.6c-1.2,1.6-2.1,3.2-2.8,5.1c-0.2,0.6,0.8,1.1,1.1,0.5c0.7-1.5,1.1-2.7,1.3-4.4
								c0.1-0.6-0.8-1.1-1.1-0.5c-0.8,1.9-1.6,3.7-2.5,5.6c0.4,0.1,0.7,0.2,1.1,0.3c0-0.6,0.1-1.3,0.1-1.9c0-0.7-0.8-0.7-1.1-0.3
								c-1,1.3-1.2,2.2-1.2,3.9c0,0.6,0.8,0.8,1.1,0.3c0.8-1.4,1.3-2.5,1.6-4.1c0.2-0.6-0.8-1.1-1.1-0.5c-0.6,1.3-1.1,2.6-1.6,3.9
								C73,51.4,74.2,51.7,74.4,51L74.4,51z"/>
						</g>
					</g>
					<g>
						<g>
							<path class="st0" d="M81.2,43.1c1-2.4,2.6-4,4.8-5.3c-0.2-0.3-0.5-0.6-0.7-0.9c-1.8,1.4-3.5,2.9-5.3,4.3
								c0.3,0.2,0.7,0.4,1,0.6c0.3-1.1,0.9-1.9,1.7-2.6c-0.3-0.3-0.6-0.6-0.8-0.8c-1.6,2.1-3.3,4-5.1,5.9c-0.5,0.6,0.3,1.3,0.8,0.8
								c1-0.8,1.5-1.4,2.1-2.5c-0.3-0.2-0.7-0.4-1-0.6c-0.7,1.7-1.6,3.3-2.6,4.8c0.4,0.2,0.7,0.3,1.1,0.5c0.3-1.1,0.6-2.1,1.1-3.1
								c0.3-0.7-0.7-1.3-1-0.6c-0.4,0.9-1,1.7-1.8,2.3c0.3,0.2,0.7,0.4,1,0.6c0.2-0.7,0.5-1.3,0.7-2c-0.3-0.2-0.7-0.4-1-0.6
								c-0.5,1.1-0.9,1.8-1.8,2.7c0.3,0.1,0.7,0.3,1,0.4c0.1-0.5,0.2-1,0.3-1.4c-0.4-0.2-0.7-0.3-1.1-0.5c-0.2,0.7-0.4,1.4-0.6,2.2
								c-0.2,0.8,0.9,1,1.2,0.3c0.4-1.1,0.8-2.1,1.3-3.1c-0.3-0.2-0.7-0.4-1-0.6c-0.3,0.7-0.7,1.5-1.2,2.1c0.3,0.2,0.7,0.4,1,0.6
								c0.7-1.5,1.5-2.9,2.3-4.2c-0.4-0.1-0.7-0.2-1.1-0.3c-0.2,0.6-0.4,1.2-0.6,1.9c0.3,0.2,0.7,0.4,1,0.6c0.6-1.5,1.4-2.7,2.5-3.9
								c-0.3-0.2-0.7-0.4-1-0.6c-0.3,1.1-0.7,2-1.4,2.8c0.4,0.2,0.7,0.3,1.1,0.5c0.4-1.3,0.9-2.2,1.6-3.3c-0.4-0.2-0.7-0.3-1.1-0.5
								c-0.1,1.1-0.6,2-1.5,2.8c0.3,0.2,0.7,0.4,1,0.6c0-0.7,0.3-1.3,0.7-1.9c0.4-0.6-0.5-1.2-0.9-0.7c-0.5,0.5-1,1-1.5,1.5
								c0.3,0.2,0.7,0.4,1,0.6c0.4-0.7,0.8-1.4,1.2-2c-0.3-0.2-0.6-0.5-0.9-0.7c-0.3,0.6-0.7,1.2-1,1.8c0.3,0.2,0.7,0.4,1,0.6
								c0.2-0.7,0.6-1.3,1.1-1.8c-0.3-0.3-0.6-0.6-0.8-0.8c-0.3,0.2-0.5,0.5-0.8,0.7c0.3,0.3,0.5,0.5,0.8,0.8
								c0.6-1.2,1.6-2.2,2.9-2.8c-0.2-0.3-0.5-0.6-0.7-0.9c-0.5,0.5-1,1-1.4,1.5c-0.5,0.6,0.3,1.4,0.8,0.8c1-0.9,1.9-1.9,2.9-2.8
								c-0.3-0.3-0.6-0.6-0.8-0.8c-0.9,1.1-1.8,2.1-2.6,3.2c0.3,0.2,0.6,0.5,0.9,0.7c0.4-1.1,1.2-2,2.2-2.6
								c-0.2-0.3-0.5-0.6-0.7-0.9c-0.9,0.9-1.8,1.6-2.8,2.3c0.3,0.3,0.5,0.5,0.8,0.8c1.3-1.7,2.8-3,4.7-4c-0.2-0.3-0.4-0.7-0.6-1
								c-0.6,0.4-1.2,0.8-1.7,1.2c0.2,0.3,0.5,0.6,0.7,0.9c1.5-1.4,3.2-2.6,5-3.6c0.6-0.3,0.2-1.3-0.5-1.1c-1.3,0.4-2.3,0.9-3.5,1.6
								c0.2,0.3,0.4,0.7,0.6,1c1.8-1.2,3.6-2.2,5.6-2.9c-0.2-0.4-0.3-0.7-0.5-1.1c-1.5,0.8-2.8,1.7-4.1,2.8
								c-0.5,0.5,0.1,1.3,0.7,0.9c1.3-0.7,2.6-1.4,3.9-2.1c-0.2-0.3-0.5-0.6-0.7-0.9c-3.3,2.7-6.5,5.5-9.5,8.5
								c0.3,0.2,0.6,0.5,0.9,0.7c1.3-1.8,2.8-3.4,4.5-4.8c-0.3-0.2-0.6-0.5-0.9-0.7c-1.2,1.6-2.4,3.1-3.6,4.6
								c0.3,0.2,0.6,0.5,0.9,0.7c1.3-2,2.9-3.6,4.7-5.1c-0.3-0.3-0.6-0.6-0.8-0.8c-2.1,2.3-4.2,4.7-6.3,7c0.3,0.2,0.6,0.5,0.9,0.7
								c1.2-1.9,2.6-3.4,4.4-4.6c-0.2-0.3-0.5-0.6-0.7-0.9c-1.5,1.7-3,3-5,4.2c0.3,0.3,0.5,0.5,0.8,0.8c0.5-0.8,4.9-6.8,6.2-6.3
								c-0.1-0.3-0.2-0.6-0.4-0.9c-1,1.5-2,2.9-3.4,4.1c0.3,0.3,0.6,0.6,0.8,0.8c1.2-1.2,2.5-2.3,3.9-3.3c-0.3-0.2-0.6-0.5-0.9-0.7
								c-0.4,0.7-0.8,1.4-1.2,2.1c0.3,0.2,0.6,0.5,0.9,0.7c0.8-1.3,1.6-2.3,2.9-3.2c-0.3-0.2-0.6-0.5-0.9-0.7
								c-0.5,1.7-1.2,2.8-2.6,3.9c0.3,0.1,0.7,0.3,1,0.4c0.4-1,0.8-1.9,1.1-2.9c0.5-0.6-0.3-1.4-0.8-0.8c-1.1,1.2-1.5,2.2-1.5,3.8
								c0,0.6,0.6,0.7,1,0.4c1.6-1.2,2.4-2.5,2.9-4.4c0.1-0.5-0.4-1-0.9-0.7c-1.5,1-2.5,2.1-3.4,3.6c-0.3,0.6,0.5,1.2,0.9,0.7
								c0.8-0.8,1.2-1.5,1.5-2.6c0.1-0.5-0.4-1-0.9-0.7c-1.5,1-2.8,2.2-4.1,3.4c-0.5,0.5,0.3,1.4,0.8,0.8c1.4-1.3,2.5-2.7,3.6-4.4
								c0.2-0.4,0-0.7-0.4-0.9c-2.4-0.9-6.5,5.3-7.6,6.8c-0.4,0.5,0.3,1.1,0.8,0.8c2-1.2,3.7-2.6,5.2-4.4c0.4-0.5-0.1-1.3-0.7-0.9
								c-2,1.3-3.6,3-4.9,5.1c-0.3,0.6,0.5,1.2,0.9,0.7c2.1-2.3,4.2-4.7,6.3-7c0.5-0.6-0.3-1.3-0.8-0.8c-1.9,1.6-3.5,3.3-4.9,5.4
								c-0.4,0.6,0.5,1.3,0.9,0.7c1.3-1.6,2.6-3.2,3.8-4.8c0.4-0.6-0.5-1.1-0.9-0.7c-1.8,1.5-3.3,3.1-4.7,5
								c-0.4,0.6,0.5,1.2,0.9,0.7c3-3,6.2-5.8,9.5-8.5c0.5-0.4-0.2-1.3-0.7-0.9c-1.3,0.7-2.6,1.4-3.9,2.1c0.2,0.3,0.5,0.6,0.7,0.9
								c1.2-1.1,2.4-1.9,3.8-2.6c0.6-0.3,0.2-1.3-0.5-1.1c-2.1,0.7-4,1.7-5.9,3c-0.6,0.4-0.1,1.5,0.6,1c1-0.6,2-1.1,3.2-1.5
								c-0.2-0.4-0.3-0.7-0.5-1.1c-1.9,1.1-3.6,2.3-5.2,3.8c-0.5,0.5,0.2,1.3,0.7,0.9c0.6-0.4,1.2-0.8,1.7-1.2
								c0.6-0.4,0.1-1.4-0.6-1c-2.1,1.1-3.7,2.5-5.1,4.4c-0.4,0.5,0.3,1.1,0.8,0.8c1.1-0.7,2.1-1.5,3.1-2.5c0.5-0.5-0.2-1.3-0.7-0.9
								c-1.2,0.9-2,1.7-2.6,3c-0.3,0.6,0.5,1.3,0.9,0.7c0.9-1.1,1.8-2.1,2.6-3.2c0.5-0.6-0.3-1.4-0.8-0.8c-0.9,1-1.9,1.9-2.9,2.8
								c0.3,0.3,0.6,0.6,0.8,0.8c0.5-0.5,1-1,1.4-1.5c0.5-0.5-0.1-1.2-0.7-0.9c-1.6,0.7-2.5,1.7-3.3,3.2c-0.3,0.5,0.3,1.1,0.8,0.8
								c0.7-0.4,0.6-0.3,1-0.9c0.5-0.6-0.4-1.5-0.8-0.8c-0.5,0.7-0.9,1.3-1.3,2.1c-0.3,0.7,0.7,1.3,1,0.6c0.3-0.6,0.7-1.2,1-1.8
								c0.3-0.6-0.5-1.2-0.9-0.7c-0.8,0.8-1.2,1.5-1.5,2.6c-0.2,0.6,0.6,1,1,0.6c0.5-0.5,1-1,1.5-1.5c-0.3-0.2-0.6-0.5-0.9-0.7
								c-0.5,0.7-0.7,1.3-0.8,2.2c-0.1,0.5,0.5,1.1,1,0.6c1-1,1.5-1.9,1.8-3.3c0.1-0.7-0.7-1-1.1-0.5c-0.8,1.1-1.3,2.3-1.7,3.5
								c-0.2,0.7,0.7,1,1.1,0.5c0.7-1,1.2-1.9,1.5-3.1c0.2-0.6-0.6-1-1-0.6c-1.1,1.3-2,2.6-2.6,4.2c-0.3,0.7,0.6,1.3,1,0.6
								c0.6-0.8,0.7-1.5,0.8-2.5c0-0.6-0.8-0.8-1.1-0.3c-0.9,1.4-1.6,2.8-2.3,4.2c-0.3,0.7,0.6,1.3,1,0.6c0.5-0.7,0.9-1.4,1.2-2.1
								c0.3-0.7-0.7-1.3-1-0.6c-0.6,1.1-1,2.2-1.5,3.4c0.4,0.1,0.8,0.2,1.2,0.3c0.2-0.7,0.4-1.4,0.6-2.2c0.2-0.6-0.8-1.1-1.1-0.5
								c-0.6,1-0.5,0.9-0.5,2c0,0.5,0.7,0.8,1,0.4c0.9-0.9,1.5-1.8,2-2.9c0.3-0.7-0.7-1.3-1-0.6c-0.5,1.2-0.5,1-0.8,2.2
								c-0.2,0.6,0.6,1,1,0.6c0.9-0.8,1.5-1.5,2-2.5c-0.3-0.2-0.7-0.4-1-0.6c-0.5,1.1-0.9,2.2-1.2,3.4c-0.2,0.7,0.7,1,1.1,0.5
								c1.1-1.5,1.9-3.1,2.6-4.8c0.3-0.7-0.6-1.3-1-0.6c-0.4,0.9-1.1,1.7-1.9,2.2c0.3,0.3,0.6,0.6,0.8,0.8c1.8-1.9,3.5-3.9,5.1-5.9
								c0.5-0.6-0.3-1.4-0.8-0.8c-1,0.9-1.6,1.8-2,3.1c-0.2,0.6,0.6,0.9,1,0.6c1.8-1.4,3.5-2.9,5.3-4.3c0.5-0.4-0.1-1.3-0.7-0.9
								c-2.5,1.4-4.3,3.3-5.4,6C79.8,43.5,80.9,43.8,81.2,43.1L81.2,43.1z"/>
						</g>
					</g>
				</g>
				<g>
					<g>
						<path class="st0" d="M88.9,37.2c-0.1-0.3-0.3-0.6-0.4-0.9c0.1-0.3,0.3-0.6,0.5-0.9c0.2-0.3,0.5-0.6,0.8-0.9
							c2-1.4,2,0.8,1.6,1.8c-0.3,0.8-0.3,1-1.2,1.1c-0.6,0.4-0.9,0.2-0.8-0.4c-0.1-0.4-0.1-0.8,0.2-1.1c0.3-0.7,0.8-1.3,1.4-1.7
							c0.4-0.4,1.7-1.4,1.8-0.4c0.1,0.8-0.9,1.6-1.5,1.8c-0.4,0.1-1.1,0.3-1.5,0c-0.4-0.2-0.3-0.2-0.1-0.6c0.3-0.8,2.1-2.1,2.9-1.2
							c0.6,0.8-0.3,2.1-0.8,2.6c-0.2,0.2-0.5,0.5-0.8,0.6c-0.2,0.2-0.5,0.3-0.8,0.4c-0.4-0.2-0.8-0.5-1.1-0.7c-0.3-0.6,0.7-1.7,1-2
							c0.5-0.5,1.3-0.9,2-0.9c1.1,0,2.2,1,1.2,2.1c-0.6,0.6-1.5,0.8-2.3,0.7c-1.2-0.2-1.7-1.3-1.1-2.4c0.4-0.9,1.3-1.4,2.2-1.7
							c-0.2-0.1-0.5-0.2-0.7-0.3c0.3,0.4-2.6,2.3-3,1.8c0.1,0.2,0.1,0.4,0.2,0.6c0.2-0.8,2.4-1.3,3.1-1.5c1-0.3,2.1-0.5,3.1-0.5
							c0.8,0,0.8-1.2,0-1.2c-1.9,0.1-3.7,0.5-5.4,1.3c-0.7,0.3-2.9,1.4-1.6,2.4c1.4,1.1,5.9-1.6,4.7-3.4c-0.1-0.2-0.4-0.4-0.7-0.3
							c-1.5,0.4-2.8,1.5-3.2,3.1c-0.3,1.3,0.3,2.6,1.6,3.1c2.3,0.9,6.6-1.6,4.4-4.1c-2-2.3-5.7-0.1-6.4,2.3c-0.3,1.2,0,2.7,1.4,2.9
							c1.4,0.2,2.9-1,3.7-2c0.8-1.1,1.3-2.7,0.3-3.8c-1-1.1-2.4-0.6-3.4,0.1c-0.8,0.6-2.3,2.1-1.4,3.2c0.8,0.9,2.6,0.8,3.6,0.3
							c1.2-0.6,2.1-2.1,1.9-3.5c-0.3-1.6-2.1-0.9-3-0.3c-1.3,0.8-2.5,2.2-2.8,3.7c-0.2,1.2,0.4,2.6,1.8,2.7c3,0.2,4.3-6.6,0.7-6.4
							c-1.7,0.1-3.2,2-3.5,3.6c-0.2,1.3,1,2.7,2.3,1.8C90.2,37.8,89.6,36.8,88.9,37.2L88.9,37.2z"/>
					</g>
				</g>
				<g>
					<g>
						<path class="st0" d="M122.8,41c-1-0.5-1.8-0.8-2.9-1.1c-0.6-0.1-1,0.5-0.6,1c0.9,1,1.9,2,2.8,3c0.2-0.3,0.5-0.6,0.7-0.9
							c-1.1-0.8-2.2-1.7-3.4-2.5c-0.6-0.4-1.1,0.5-0.7,0.9c0.9,1.1,1.8,2.1,2.9,3c0.2-0.3,0.5-0.6,0.7-0.9c-0.9-0.3-1.6-0.9-2.2-1.6
							c-0.2,0.3-0.4,0.7-0.6,1c1.5,0.4,2.8,1.2,3.8,2.2c0.2-0.3,0.5-0.6,0.7-0.9c-0.4-0.3-0.7-0.6-1.1-0.9c-0.2,0.3-0.5,0.6-0.7,0.9
							c0.9,0.7,1.8,1.3,2.6,2.1c0.6,0.5,1.4-0.3,0.8-0.8c-0.3-0.3-0.7-0.7-1-1c-0.5-0.5-1.2,0.1-0.9,0.7c0.4,0.8,0.7,1.6,1.1,2.4
							c0.3-0.3,0.5-0.5,0.8-0.8c-1-0.5-1.8-1.1-2.5-1.9c-0.2,0.3-0.5,0.6-0.7,0.9c1,0.6,1.9,1.2,2.8,2c0.6,0.5,1.4-0.3,0.8-0.8
							c-0.4-0.5-0.9-1-1.3-1.5c-0.5-0.5-1.2,0.1-0.9,0.7c0.3,0.7,0.7,1.4,1.2,2c0.4,0.5,1.1,0.3,1.1-0.3c0-0.2,0-0.4,0.1-0.6
							c-0.3,0.1-0.7,0.3-1,0.4c0.2,0.3,0.4,0.7,0.6,1c0.2,0.7,1.1,0.5,1.2-0.2c0-0.2,0.1-0.4,0.1-0.7c-0.4,0.1-0.7,0.2-1.1,0.3
							c0.3,0.6,0.5,1.2,0.8,1.8c0.2,0.7,1.4,0.4,1.2-0.3c-0.1-0.3-0.2-0.6-0.3-1c-0.4,0.2-0.7,0.3-1.1,0.5c0.3,0.4,0.5,0.9,0.8,1.3
							c0.3-0.2,0.6-0.5,0.9-0.7c-0.7-0.7-1.4-1.5-2-2.4c-0.3,0.2-0.6,0.5-0.9,0.7c0.6,0.5,1,1.1,1.2,1.8c0.2,0.6,1.1,0.3,1.1-0.3
							c0-1.3-0.2-2.6-0.5-3.9c-0.4,0.1-0.8,0.2-1.2,0.3c0.1,0.7,0.2,1.4,0.2,2.1c0.4-0.1,0.8-0.1,1.2-0.2c-0.2-0.7-0.4-1.5-0.6-2.2
							c-0.4,0.1-0.8,0.2-1.2,0.3c0.1,0.3,0.3,0.7,0.4,1c0.4-0.2,0.7-0.3,1.1-0.5c-0.9-1.5-1.8-2.9-2.9-4.2c-0.3,0.3-0.6,0.6-0.8,0.8
							c0.3,0.6,0.7,1.2,1,1.8c0.3-0.2,0.6-0.5,0.9-0.7c-1.8-1.3-3.3-2.8-4.8-4.5c-0.3,0.3-0.6,0.6-0.8,0.8c1.3,1.2,2.6,2.4,3.9,3.6
							c0.2-0.3,0.5-0.6,0.7-0.9c-1.7-0.8-2.8-1.8-3.7-3.4c-0.3,0.3-0.5,0.5-0.8,0.8c1.5,0.8,2.8,1.7,4,3c0.5,0.6,1.4-0.3,0.8-0.8
							c-1.1-1.2-2.1-2.4-3.2-3.6c-0.2,0.3-0.5,0.6-0.7,0.9c1.6,0.9,2.8,1.9,3.9,3.4c0.5,0.6,1.5,0.1,1-0.6c-0.7-1-1.3-1.9-2.2-2.8
							c-0.2,0.3-0.5,0.6-0.7,0.9c1.6,1.3,2.5,2.8,3,4.8c0.4-0.1,0.8-0.2,1.2-0.3c-0.2-0.6-0.3-1.1-0.5-1.7c-0.4,0.2-0.7,0.3-1.1,0.5
							c0.2,0.4,0.3,0.9,0.5,1.3c0.3-0.2,0.7-0.4,1-0.6c-2.2-2.2-3.4-4.9-5.8-7c-0.2,0.3-0.5,0.6-0.7,0.9c1.1,0.5,2,1.2,2.8,2.1
							c0.2-0.3,0.5-0.6,0.7-0.9c-1.6-1.1-3-2.3-4.3-3.8c-0.2,0.3-0.5,0.6-0.7,0.9c1.3,0.8,2.4,1.7,3.4,2.9c0.2-0.3,0.5-0.6,0.7-0.9
							c-1.2-0.7-2.2-1.6-3-2.8c-0.3,0.3-0.5,0.5-0.8,0.8c1,0.8,2,1.6,2.9,2.5c0.2-0.3,0.5-0.6,0.7-0.9c-0.9-0.5-1.5-1.2-2-2.1
							c-0.3,0.3-0.5,0.5-0.8,0.8c0.8,0.5,1.4,1.1,2,1.8c0.3-0.3,0.6-0.6,0.8-0.8c-0.6-0.7-1.2-1.3-1.8-2c-0.4-0.5-1.4,0.2-0.9,0.7
							c0.6,0.7,1.1,1.5,1.7,2.2c0.2-0.3,0.5-0.6,0.7-0.9c-1.7-1.2-3.2-2.5-4.5-4.1c-0.3,0.3-0.6,0.6-0.8,0.8
							c0.6,0.6,1.2,1.1,1.7,1.7c0.6,0.5,1.4-0.3,0.8-0.8c-0.8-0.8-1.5-1.6-2.3-2.4c-0.3,0.3-0.6,0.6-0.8,0.8
							c0.7,0.7,1.2,1.3,1.8,2.1c0.3-0.3,0.6-0.6,0.8-0.8c-0.8-1-1.4-1.9-2-3c-0.3,0.2-0.6,0.5-0.9,0.7c1.1,0.8,2,1.7,2.9,2.8
							c0.4,0.5,1.4-0.2,0.9-0.7c-0.7-1-1.5-1.9-2.4-2.8c-0.2,0.3-0.5,0.6-0.7,0.9c0.8,0.4,1.4,1,1.9,1.7c0.3-0.3,0.6-0.6,0.8-0.8
							c-0.7-0.8-0.6-0.6-1.4-1.2c-0.5-0.3-1.1,0.3-0.8,0.8c0.7,1.1,1.4,2.1,2.2,3c0.2-0.3,0.5-0.6,0.7-0.9c-0.3-0.1-0.6-0.3-0.9-0.4
							c-0.7-0.3-1.2,0.6-0.6,1c0.4,0.4,0.9,0.7,1.3,1.1c0.6,0.5,1.4-0.3,0.8-0.8c-0.2-0.2-0.5-0.5-0.7-0.7c-0.2,0.3-0.5,0.6-0.7,0.9
							c0.7,0.4,1.3,0.8,1.8,1.4c0.6,0.5,1.4-0.3,0.8-0.8c-0.6-0.6-1.3-1.1-2-1.6c-0.6-0.4-1.2,0.5-0.7,0.9c0.2,0.2,0.5,0.5,0.7,0.7
							c0.3-0.3,0.6-0.6,0.8-0.8c-0.7-0.7-0.7-0.7-1.6-1.2c-0.2,0.3-0.4,0.7-0.6,1c0.3,0.1,0.6,0.3,0.9,0.4c0.6,0.3,1.2-0.4,0.7-0.9
							c-0.8-0.9-1.4-1.8-2-2.8c-0.3,0.3-0.5,0.5-0.8,0.8c0.4,0.3,0.8,0.7,1.2,1c0.5,0.6,1.3-0.3,0.8-0.8c-0.7-0.8-1.3-1.4-2.2-1.9
							c-0.6-0.4-1.2,0.5-0.7,0.9c0.8,0.8,1.5,1.6,2.2,2.5c0.3-0.2,0.6-0.5,0.9-0.7c-0.9-1-1.8-1.9-2.9-2.8c-0.5-0.4-1.3,0.1-0.9,0.7
							c0.6,1.1,1.4,2.2,2.2,3.2c0.5,0.6,1.3-0.2,0.8-0.8c-0.6-0.7-1.2-1.4-1.8-2.1c-0.5-0.6-1.4,0.3-0.8,0.8
							c0.8,0.8,1.5,1.6,2.3,2.4c0.3-0.3,0.6-0.6,0.8-0.8c-0.6-0.6-1.2-1.1-1.7-1.7c-0.6-0.6-1.3,0.3-0.8,0.8c1.4,1.7,3,3.1,4.8,4.3
							c0.6,0.4,1.1-0.5,0.7-0.9c-0.5-0.6-1.1-1.3-1.6-1.9c-0.3,0.2-0.6,0.5-0.9,0.7c0.6,0.7,1.1,1.4,1.8,2c0.5,0.6,1.3-0.3,0.8-0.8
							c-0.7-0.8-1.4-1.4-2.2-2c-0.5-0.4-1.1,0.3-0.8,0.8c0.6,1.1,1.4,1.8,2.4,2.5c0.6,0.4,1.2-0.5,0.7-0.9c-1-0.9-2.1-1.8-3.2-2.7
							c-0.5-0.4-1.2,0.3-0.8,0.8c1,1.4,2,2.3,3.4,3.2c0.6,0.4,1.2-0.4,0.7-0.9c-1.1-1.3-2.2-2.2-3.7-3.1c-0.6-0.4-1.2,0.4-0.7,0.9
							c1.4,1.6,2.8,2.8,4.5,4c0.6,0.4,1.2-0.5,0.7-0.9c-0.9-1-1.8-1.7-3.1-2.3c-0.6-0.3-1.3,0.5-0.7,0.9c2.4,2,3.7,4.8,5.8,7
							c0.4,0.4,1.1,0,1-0.6c-0.2-0.9-0.1-0.8-0.6-1.6c-0.3-0.6-1.3-0.2-1.1,0.5c0.2,0.6,0.3,1.1,0.5,1.7c0.2,0.7,1.3,0.4,1.2-0.3
							c-0.5-2.3-1.6-4.1-3.5-5.5c-0.6-0.4-1.2,0.5-0.7,0.9c0.8,0.7,1.5,1.6,2,2.5c0.3-0.2,0.7-0.4,1-0.6c-1.2-1.6-2.5-2.8-4.3-3.8
							c-0.6-0.4-1.2,0.4-0.7,0.9c1.1,1.2,2.1,2.4,3.2,3.6c0.3-0.3,0.6-0.6,0.8-0.8c-1.2-1.4-2.5-2.4-4.2-3.2
							c-0.5-0.3-1.2,0.3-0.8,0.8c1.1,1.7,2.4,2.9,4.2,3.8c0.6,0.3,1.3-0.5,0.7-0.9c-1.3-1.2-2.6-2.4-3.9-3.6
							c-0.6-0.5-1.4,0.3-0.8,0.8c1.5,1.8,3.2,3.3,5,4.7c0.4,0.3,1-0.2,0.9-0.7c-0.3-1-0.7-1.6-1.3-2.3c-0.5-0.6-1.3,0.3-0.8,0.8
							c1,1.3,1.9,2.5,2.7,3.9c0.3,0.6,1.3,0.2,1.1-0.5c-0.1-0.3-0.3-0.7-0.4-1c-0.3-0.7-1.3-0.4-1.2,0.3c0.2,0.8,0.4,1.5,0.6,2.2
							c0.2,0.6,1.2,0.5,1.2-0.2c0-1.4,0-1.1-0.3-2.4c-0.2-0.8-1.3-0.4-1.2,0.3c0.3,1.2,0.4,2.4,0.4,3.6c0.4-0.1,0.7-0.2,1.1-0.3
							c-0.4-0.8-0.8-1.4-1.4-2.1c-0.5-0.5-1.4,0.2-0.9,0.7c0.7,0.9,1.4,1.8,2.1,2.6c0.5,0.5,1.3-0.1,0.9-0.7
							c-0.3-0.4-0.5-0.9-0.8-1.3c-0.3-0.6-1.3-0.2-1.1,0.5c0.1,0.3,0.2,0.6,0.3,1c0.4-0.1,0.8-0.2,1.2-0.3c-0.4-1.1-0.4-1.1-0.9-2.1
							c-0.3-0.6-1-0.2-1.1,0.3c0,0.2-0.1,0.4-0.1,0.7c0.4-0.1,0.8-0.1,1.2-0.2c-0.3-0.9-0.3-0.9-0.9-1.6c-0.4-0.4-1-0.1-1,0.4
							c0,0.2,0,0.4-0.1,0.6c0.4-0.1,0.7-0.2,1.1-0.3c-0.5-0.6-0.9-1.3-1.2-2c-0.3,0.2-0.6,0.5-0.9,0.7c0.4,0.5,0.9,1,1.3,1.5
							c0.3-0.3,0.6-0.6,0.8-0.8c-1-0.8-1.9-1.5-3-2.2c-0.6-0.4-1.2,0.5-0.7,0.9c0.9,0.9,1.6,1.5,2.7,2.1c0.6,0.3,1.1-0.3,0.8-0.8
							c-0.4-0.8-0.7-1.6-1.1-2.4c-0.3,0.2-0.6,0.5-0.9,0.7c0.3,0.3,0.7,0.7,1,1c0.3-0.3,0.6-0.6,0.8-0.8c-0.9-0.8-1.9-1.5-2.8-2.2
							c-0.6-0.4-1.1,0.5-0.7,0.9c0.6,0.7,0.4,0.6,1.3,1c0.6,0.3,1.2-0.4,0.7-0.9c-1.3-1.3-2.6-2.1-4.4-2.5c-0.6-0.2-1,0.6-0.6,1
							c0.8,0.8,1.5,1.2,2.5,1.7c0.6,0.3,1.3-0.5,0.7-0.9c-1.1-0.9-2-1.9-2.9-3c-0.2,0.3-0.5,0.6-0.7,0.9c1.1,0.8,2.2,1.7,3.4,2.5
							c0.6,0.4,1.2-0.5,0.7-0.9c-1-1-1.9-2-2.8-3c-0.2,0.3-0.4,0.7-0.6,1c0.9,0.1,1.8,0.4,2.6,0.9C122.8,42.4,123.5,41.4,122.8,41
							L122.8,41z"/>
					</g>
				</g>
				<g>
					<g>
						<path class="st0" d="M123.6,39.9c-1.7-0.9-3.3-1.9-4.8-3.2c-0.6-0.5-1.4,0.3-0.8,0.8c1.2,1.2,2.5,2.2,3.9,3.1
							c0.6,0.4,1.2-0.5,0.7-0.9c-1.1-1.1-2-2.3-2.9-3.6c-0.3,0.2-0.6,0.5-0.9,0.7c1.4,1.2,2.7,2.5,3.8,3.9c0.3-0.3,0.6-0.6,0.8-0.8
							c-0.9-1.1-1.9-2.1-3-3.1c-0.3,0.3-0.6,0.6-0.8,0.8c1.4,1.3,2.9,2.6,4.3,3.9c0.3-0.3,0.6-0.6,0.8-0.8c-1.6-1.3-3.1-2.7-4.7-4
							c-0.2,0.3-0.5,0.6-0.7,0.9c1.5,1,3,2.1,4.4,3.3c0.6,0.5,1.4-0.3,0.8-0.8c-1.4-1.2-2.8-2.5-4.2-3.7c-0.3,0.3-0.6,0.6-0.8,0.8
							c1.6,1.3,3.1,2.6,4.7,3.8c0.6,0.5,1.4-0.4,0.8-0.8c-1.6-1.3-3.1-2.6-4.7-3.8c-0.6-0.5-1.4,0.3-0.8,0.8
							c1.4,1.2,2.8,2.5,4.2,3.7c0.3-0.3,0.6-0.6,0.8-0.8c-1.5-1.3-3-2.4-4.7-3.4c-0.6-0.4-1.3,0.5-0.7,0.9c1.6,1.3,3.1,2.7,4.7,4
							c0.6,0.5,1.4-0.3,0.8-0.8c-1.4-1.3-2.9-2.6-4.3-3.9c-0.6-0.5-1.4,0.3-0.8,0.8c1,1,2,2,3,3.1c0.5,0.6,1.3-0.3,0.8-0.8
							c-1.1-1.4-2.4-2.7-3.8-3.9c-0.5-0.4-1.4,0.1-0.9,0.7c0.9,1.3,2,2.6,3.1,3.8c0.2-0.3,0.5-0.6,0.7-0.9c-1.3-0.8-2.5-1.8-3.7-2.9
							c-0.3,0.3-0.6,0.6-0.8,0.8c1.5,1.3,3.2,2.5,5.1,3.4C123.7,41.3,124.3,40.3,123.6,39.9L123.6,39.9z"/>
					</g>
				</g>
				<g>
					<g>
						<path class="st0" d="M101.7,34.1c-1.9,0-3.4-0.4-5.1-1.2c0,0.4-0.1,0.7-0.1,1.1c0.9-0.3,1.7-0.5,2.7-0.5
							c1.3,1.9,1,2.7-0.9,2.5c-3.1-1.3,1.2-3,2-2.5c2.5,1.4-2.1,3.3-3.5,2.8c-4.1-1.4,0.8-3.1,1.6-2.2c1.3,1.5-2.1,3.4-3.1,2.9
							c-2.6-1.3,1.3-2.7,1.3-1.6c0,0.8-3.6,1.5-4.1,1.1c0.5-2.1,0.6-2.4,0.3-1c-0.3-0.6,0.1-0.7,1.2-0.3c-0.1-0.3-0.3-0.7-0.4-1
							c-1,0.1-0.8,0.1,0.7,0c-0.1-0.4-0.2-0.7-0.3-1.1c-0.8,0.5-4.7,1.7-3.6,0.3c0.4-0.2,0.8-0.4,1.2-0.5c0.9-0.4,1-0.4,0.4-0.2
							c-0.4,0-0.3,0.5,0.7,0.3c-0.2-0.3-0.4-0.7-0.6-1c-2.4,0.8-2.9,0.8-1.4,0.1c1-0.6,2-0.7,3-0.5c-0.1-0.4-0.2-0.7-0.3-1.1
							c-0.6,0.1-1.2,0.3-1.8,0.4c0.1,0.4,0.2,0.7,0.3,1.1c1-0.5,2.1-0.8,3.3-0.6c-0.1-0.4-0.1-0.8-0.2-1.2c-1.9,0.6-3.7,1-5.7,0.9
							c0.1,0.3,0.3,0.7,0.4,1c1.3-1.1,2.7-1.6,4.3-1.9c-0.2-0.4-0.3-0.7-0.5-1.1c-1.1,0.5-2.2,0.9-3.3,1.2c-0.8,0.2-0.4,1.3,0.3,1.2
							c1.3-0.2,2.6-0.4,3.8-0.6c-0.2-0.3-0.4-0.7-0.6-1c-0.4,0.1-0.7,0.2-1.1,0.3c0,0.4,0,0.8,0,1.2c1.2-0.3,2.3-0.5,3.5-0.6
							c0.7-0.1,0.8-1.2,0-1.2c-0.8,0-1.7,0-2.5,0c0,0.4,0,0.8,0,1.2c1.4-0.1,2.9-0.2,4.3-0.3c-0.1-0.4-0.1-0.8-0.2-1.2
							c-0.2,0-0.3,0-0.5,0.1c-0.3,0-0.4,0.3-0.4,0.6c0,0.2,0,0.3-0.1,0.5c-0.1,0.8,1.1,0.8,1.2,0c0,0,0.1,0,0.1,0
							c0.7-0.1,0.5-1.2-0.2-1.2c-1.4,0.1-2.9,0.2-4.3,0.3c-0.8,0-0.8,1.2,0,1.2c0.8,0,1.7,0,2.5,0c0-0.4,0-0.8,0-1.2
							c-1.3,0.2-2.6,0.4-3.8,0.7c-0.6,0.1-0.6,1.1,0,1.2c1,0.2,1.5,0,2.2-0.7c0.5-0.5,0-1.1-0.6-1c-1.3,0.2-2.6,0.4-3.8,0.6
							c0.1,0.4,0.2,0.8,0.3,1.2c1.2-0.4,2.4-0.8,3.6-1.4c0.7-0.3,0.2-1.2-0.5-1.1c-1.9,0.3-3.4,1-4.9,2.2c-0.4,0.4,0,1,0.4,1
							c2.1,0.1,4-0.4,6-1c0.6-0.2,0.5-1.2-0.2-1.2c-1.4,0-2.6,0.2-3.9,0.8c-0.6,0.3-0.2,1.1,0.3,1.1c1,0,1.6-0.2,2.4-0.6
							c0.6-0.3,0.2-1.1-0.3-1.1c-1.9-0.2-4.1,0.6-5.5,1.9c-0.2,0.1-0.2,0.4-0.2,0.6c0.6,2.2,3.8,0.9,4.9,0c0.5-0.4-0.1-1.1-0.6-1
							c-0.8,0.1-4.2,1.1-2.7,2.6c1,1,3.9-1.1,4.1-2.2c0-0.3,0-0.5-0.3-0.7c-1.5-0.8-4.2,0.8-5.4,1.8c-0.2,0.1-0.2,0.4-0.2,0.6
							c0.7,2.7,5.1,1.2,6.6,0.2c0.5-0.3,0.3-1.1-0.3-1.1c-1.3-0.1-4.5,0.7-3.9,2.7c0.7,2,3.3,0.2,4.1-0.7c0.4-0.4,0.1-1-0.4-1
							c-1.1-0.1-3.4,0.2-3.6,1.6c-0.2,1,0.7,1.3,1.5,1.3c1.4,0,5.8-2.7,3-3.7c-2.3-0.8-6.9,2.3-3.5,4.1c2,1,7.8-0.2,6.8-3.3
							c-0.1-0.2-0.2-0.4-0.4-0.4c-1.5-0.2-4.8,0.6-5.2,2.4c-0.5,2.4,3.2,2.3,4.5,1.8c1.5-0.5,4.4-2.7,2.7-4.4
							c-1.3-1.3-5.1-0.7-6,0.9c-1.8,3.3,8.6,5.1,8.6-0.5c0-4-9.8-0.4-6.3,2.6c1.6,1.4,5.9,0.7,6.6-1.5c1-3.4-4.9-2.6-6.4-2.2
							c-0.5,0.1-0.6,0.9-0.1,1.1c1.8,0.9,3.6,1.4,5.7,1.4C102.4,35.3,102.4,34.1,101.7,34.1L101.7,34.1z"/>
					</g>
				</g>
				<g>
					<g>
						<path class="st0" d="M100,34.7c-0.8-0.4-1.6-0.8-2.4-1.2c-0.1,0.4-0.2,0.7-0.3,1.1c1-0.1,6.6,0.5,4.6,0.9
							c-0.6,1.2-0.4,1,0.4-0.7c0.6-1.8,0.9-1.9,0.8-0.4c0.2,0.3,0.5,0.6,0.7,0.9c0.5-0.4,1-0.7,1.5-1.1c-0.2-0.3-0.5-0.6-0.7-0.9
							c-0.4,0.5-0.8,0.9-1.2,1.4c0.2,0.3,0.5,0.6,0.7,0.9c0.4-0.3,0.7-0.5,1.1-0.8c-0.2-0.3-0.5-0.6-0.7-0.9
							c-0.3,0.3-0.6,0.5-0.8,0.8c-0.2-0.3-0.5-0.6-0.7-0.9c-1.6,2.2-3.2,2.7-4.7,1.5c-0.9-0.7-1-0.6-0.4,0.3
							c-0.2-0.3-0.5-0.6-0.7-0.9c1.5-3.1-0.5-4.1,4.1-2.7c0-0.4-0.1-0.7-0.1-1.1c-1.6,0.2-3.3,0.5-4.9,0.7c0,0.4,0,0.8,0,1.2
							c1.2-0.6,2.5-0.8,3.9-0.5c-0.1-0.3-0.3-0.7-0.4-1c-1.3,0.2-2.5,0.4-3.8,0.7c0,0.4,0.1,0.7,0.1,1.1c1.6-1.2,3.4-1.7,5.5-1.4
							c-0.1-0.4-0.1-0.8-0.2-1.2c-2,0.6-3.9,0.9-6,0.9c0.1,0.4,0.2,0.7,0.3,1.1c0.2,1.3-0.6,1.3-2.4,0c0,0.4,0,0.8,0,1.2
							c2-0.8,4.2-1.7,6.4-1.5c2.7,0.2-2.9,1-4.2,0.8c0.1,0.4,0.2,0.7,0.3,1.1c3.3-1.5,6.3-1.9,9.9-1.2c0-0.4-0.1-0.7-0.1-1.1
							c-1.6,0.1-3.2,0.1-4.8,0.2c0,0.4-0.1,0.7-0.1,1.1c3.7-1.3,7-1.3,10.6,0c0-0.4,0-0.8,0-1.2c-2.3,0.9-4.6,0.7-6.8-0.4
							c-0.1,0.4-0.2,0.7-0.3,1.1c1.4,0.1,4.7-0.3,5.3,0.6c1,0,1,0.2,0,0.6c-1,0.8-2,0.6-3.1-0.6c-0.1,0.4-0.2,0.7-0.3,1.1
							c3.2-0.3,5.7,0.2,8.6,1.8c0.1-0.4,0.2-0.7,0.3-1.1c-3.1,0-5.9-0.5-8.9-1.6c0,0.4,0,0.8,0,1.2c3.5-0.7,6.3,0,9.2,2.1
							c0.2-0.4,0.3-0.7,0.5-1.1c-1.2-0.7-2.4-1.4-3.5-2.1c-0.2,0.3-0.4,0.7-0.6,1c2.6,0.8,4.4,2.1,6,4.3c0.3-0.3,0.5-0.5,0.8-0.8
							c-0.8-0.5-1.7-1-2.5-1.5c-0.6-0.3-1.2,0.5-0.7,0.9c1.1,1,2.2,1.9,3.4,2.8c0.5,0.3,1.2-0.3,0.8-0.8c-1-1.4-0.9-1.2-2-2.4
							c-0.3,0.3-0.6,0.6-0.8,0.8c0.9,0.6,1.7,1.3,2.4,2.1c0.3-0.3,0.6-0.6,0.8-0.8c-1-0.8-0.8-0.7-2-1.3c-0.6-0.3-1.2,0.5-0.7,0.9
							c0.5,0.5,1.1,1,1.6,1.5c0.2-0.3,0.4-0.7,0.6-1c-0.9-0.5-1.7-0.9-2.6-1.4c-0.6-0.4-1.2,0.6-0.6,1c0.7,0.5,1.4,1,2.1,1.5
							c0.2-0.4,0.3-0.7,0.5-1.1c-0.9-0.4-1.8-0.7-2.7-1.1c-0.2,0.4-0.3,0.7-0.5,1.1c1.2,0.4,2.3,0.7,3.5,1.1
							c0.1-0.4,0.2-0.8,0.3-1.2c-0.8-0.3-1.6-0.6-2.4-0.9c-0.6-0.3-1.3,0.5-0.7,0.9c1,0.8,1.9,1.6,2.9,2.4c0.3-0.3,0.6-0.6,0.8-0.8
							c-0.3-0.3-0.7-0.6-1-0.8c-0.2,0.3-0.5,0.6-0.7,0.9c0.3,0.1,0.7,0.3,1,0.4c0.4,0.2,1.1-0.1,0.9-0.7c0-0.1,0.1-0.1,0.1-0.2
							c0.4,0.1,0.9-0.3,0.7-0.7c-0.2-0.7-0.4-1.4-0.6-2.1c-0.3,0.2-0.6,0.5-0.9,0.7c0.4,0.3,0.8,0.6,1.2,0.9
							c0.4,0.3,1.1-0.2,0.9-0.7c-0.1-0.4-0.3-0.8-0.4-1.1c-0.3,0.2-0.6,0.5-0.9,0.7c0.2,0.1,0.4,0.3,0.7,0.4c0.2-0.3,0.4-0.7,0.6-1
							c-5.3-3-10.7-5.1-16.6-6.5c-0.1,0.4-0.1,0.8-0.2,1.2c2.4,0.3,4.8,0.6,7.2,0.9c0.6,0.1,0.7-0.8,0.3-1.1
							c-0.3-0.2-0.5-0.3-0.8-0.5c-0.6-0.4-1.2,0.6-0.6,1c0.3,0.2,0.5,0.3,0.8,0.5c0.1-0.4,0.2-0.7,0.3-1.1c-2.4-0.3-4.8-0.6-7.2-0.9
							c-0.7-0.1-0.8,1-0.2,1.2c5.8,1.4,11.2,3.5,16.3,6.4c0.7,0.4,1.3-0.7,0.6-1c-0.2-0.1-0.4-0.3-0.7-0.4c-0.4-0.2-1.1,0.2-0.9,0.7
							c0.1,0.4,0.3,0.8,0.4,1.1c0.3-0.2,0.6-0.5,0.9-0.7c-0.4-0.3-0.8-0.6-1.2-0.9c-0.4-0.3-1,0.2-0.9,0.7c0.6,0.9,0.6,1.2,0.1,1
							c-0.4-0.1-0.9,0.3-0.7,0.7c0.2,0.4,0.3,0.8,0.5,1.3c0.3-0.2,0.6-0.5,0.9-0.7c-0.3-0.1-0.7-0.3-1-0.4c-0.6-0.2-1.3,0.5-0.7,0.9
							c0.3,0.3,0.7,0.6,1,0.8c0.6,0.5,1.4-0.3,0.8-0.8c-1-0.8-1.9-1.6-2.9-2.4c-0.2,0.3-0.5,0.6-0.7,0.9c1.5,0.9,0.9,0.7,2.7,1
							c0.8,0.1,1.1-0.9,0.3-1.2c-1.2-0.4-2.3-0.7-3.5-1.1c-0.7-0.2-1,0.8-0.5,1.1c1.7,1,1.1,0.7,3,1.2c0.7,0.2,1-0.7,0.5-1.1
							c-0.7-0.5-1.4-1-2.1-1.5c-0.2,0.3-0.4,0.7-0.6,1c1.6,1.1,1.1,0.8,2.9,1.5c0.6,0.2,1-0.6,0.6-1c-0.5-0.5-1.1-1-1.6-1.5
							c-0.2,0.3-0.5,0.6-0.7,0.9c0.6,0.4,1.1,0.8,1.7,1.1c0.6,0.5,1.4-0.3,0.8-0.8c-0.7-0.8-1.5-1.4-2.4-2.1
							c-0.6-0.5-1.4,0.3-0.8,0.8c0.6,0.7,1.2,1.4,1.9,2.1c0.3-0.3,0.5-0.5,0.8-0.8c-1.2-0.7-2.2-1.6-3.2-2.6
							c-0.2,0.3-0.5,0.6-0.7,0.9c0.8,0.5,1.7,1,2.5,1.5c0.5,0.3,1.2-0.3,0.8-0.8c-1.8-2.4-3.8-3.9-6.7-4.8c-0.6-0.2-1,0.6-0.6,1
							c1.3,1.3,2.3,1.9,4.1,2.5c0.7,0.2,1-0.7,0.5-1.1c-3.1-2.4-6.3-3-10.1-2.2c-0.6,0.1-0.5,1,0,1.2c3.1,1.1,5.9,1.6,9.2,1.6
							c0.6,0,0.8-0.8,0.3-1.1c-2.9-1.7-5.8-2.3-9.2-2c-0.5,0.1-0.9,0.8-0.3,1.1c2.3,1.2,4.4,1.5,7,1.1c0.3-0.1,0.5-0.5,0.4-0.7
							c-1.2-3.3-6.1-3-9.1-3.2c-0.6,0-0.9,0.9-0.3,1.1c2.7,1.2,5,1.3,7.8,0.5c0.6-0.2,0.6-1,0-1.2c-3.8-1.3-7.5-1.3-11.3,0
							c-0.5,0.2-0.6,0.8-0.1,1.1c2.1,1.2,4,1.2,6-0.2c0.4-0.3,0.4-1-0.1-1.1c-3.8-0.7-7.2-0.3-10.8,1.4c-0.6,0.3-0.2,1.1,0.3,1.1
							c2.1,0.3,7.2,0.9,7.9-2c0.1-0.2,0-0.6-0.3-0.7c-3-1.5-7.2-0.2-10.1,1c-0.6,0.2-0.6,0.9,0,1.2c2.9,1.1,5.5,0.5,7.6-1.7
							c0.3-0.3,0.2-0.9-0.3-1c-2-0.6-3.4-0.5-5.3,0.5c-0.5,0.3-0.3,1.1,0.3,1.1c2.3,0,4.2-0.3,6.4-1c0.7-0.2,0.5-1.1-0.2-1.2
							c-2.3-0.2-4.1,0.3-6.1,1.5c-0.5,0.3-0.3,0.9,0.1,1.1c2,0.8,3.4,0.5,5-1c0.4-0.4,0.1-1-0.4-1c-1.6-0.1-2.7,0-4.2,0.6
							c-0.5,0.2-0.6,1.1,0,1.2c2.2,0.3,3.8,0.1,5.8-0.9c0.5-0.2,0.3-1-0.1-1.1c-1.5-0.5-9-1.2-6,2.7c1.4,1.8,6.3,0.6,5.2-2.1
							c-1.1-2.5-6.6-0.4-7.1,1.6c-0.8,3.8,4.2,2.2,5.5,0.4c0.1-0.2,0.1-0.4,0-0.6c-1.4-1.9-5-0.6-4.6,1.9c0.3,2.2,2.7,2.3,3.6,0.5
							c0.2-0.5-0.1-1-0.7-0.9c-5.9,0.9,0.3,5.8,2.7,2.5c2.3-3.2-4.3-4.7-5.6-2.3c-0.1,0.2-0.1,0.4,0,0.6c2.3,3.1,6.9,1.8,9.1-0.5
							c0.5-0.5-0.1-1.3-0.7-0.9c-2.1,1.3,0.5,3.8,2.5,0.9c0.3-0.4-0.2-1-0.7-0.9c-1,0.4-0.9,0.3-1.6,1.1c-0.4,0.5,0.1,1.3,0.7,0.9
							c1.3-0.7,1.1-0.4,1.6-1.8c0.2-0.5-0.1-1-0.7-0.9c-1.5,0.4-1.3,0.3-2.3,1.6c-0.3,0.4,0.2,1,0.7,0.9c1.8-0.5,2.6-0.6,2.8-2.4
							c0-0.3-0.3-0.6-0.6-0.6c-1.6,0.1-6.2,2.2-3.1,4.1c2.3,1.5,4.5-2.7,4.3-4.5c0-0.3-0.2-0.5-0.4-0.6c-1.8-0.4-6.6,0.8-5.9,3.3
							c0.8,2.7,5.9,1,6.7-0.9c1.6-3.9-4.6-3.1-6.3-1.4c-1.9,1.9-1.1,4.5,1.9,4.2c2.6-0.2,5-3.7,2.4-5.6c-2.1-1.5-8.4,0.8-7.6,3.9
							c0.6,2.1,6.4,3.6,7.5,1.4c1.7-3.5-6.3-3.4-7.9-3.2c-0.6,0.1-0.8,0.8-0.3,1.1c1.5,1,1,0.7,2.7,1.3
							C100.4,36.2,100.7,35,100,34.7L100,34.7z"/>
					</g>
				</g>
				<g>
					<g>
						<path class="st0" d="M116.1,34.3c-0.6-0.3-1.2-0.6-1.7-1c-0.6-0.4-1.2,0.6-0.6,1c1.6,1.2,3.3,2.3,5,3.2c0.2-0.3,0.4-0.7,0.6-1
							c-1.6-0.7-3.2-1.6-4.7-2.6c-0.6-0.4-1.2,0.5-0.7,0.9c1.4,1.2,2.8,2.3,4.4,3.3c0.2-0.3,0.4-0.7,0.6-1c-2.1-1.3-3.9-2.8-5.7-4.5
							c-0.2,0.3-0.5,0.6-0.7,0.9c1.8,0.9,3.7,1.7,5.7,2.4c0.7,0.2,1-0.7,0.5-1.1c-1.6-1-3.1-2-4.7-3c-0.2,0.4-0.3,0.7-0.5,1.1
							c1.3,0.4,2.6,0.7,3.9,1.1c0.7,0.2,1-0.7,0.5-1.1c-1.1-0.8-2.3-1.5-3.4-2.3c-0.2,0.3-0.4,0.7-0.6,1c0.9,0.5,1.8,0.9,2.7,1.4
							c0.2-0.4,0.3-0.7,0.5-1.1c-1.5-0.5-3-1.1-4.5-1.6c-0.1,0.4-0.2,0.8-0.3,1.2c1.3,0.5,2.5,0.9,3.8,1.4c0.1-0.4,0.1-0.8,0.2-1.2
							c-1.1-0.1-2.1-0.3-3.2-0.6c-0.6-0.2-1,0.6-0.6,1c1.2,1.1,2.4,2.2,3.7,3.1c0.2-0.4,0.3-0.7,0.5-1.1c-2.3-0.5-4.5-1.4-6.4-2.9
							c-0.2,0.3-0.4,0.7-0.6,1c2.4,0.3,4.7,0.8,7,1.4c0.1-0.4,0.1-0.8,0.2-1.2c-1.5-0.2-2.8-0.6-4.1-1.2c-0.8-0.4-1.5-0.6-2.4-0.6
							c-0.8,0-0.8,1.2,0,1.2c1.3,0,2.4,0.8,3.5,1.2c1,0.3,2,0.5,3,0.6c0.7,0.1,0.8-1,0.2-1.2c-2.3-0.6-4.6-1-7-1.4
							c-0.5-0.1-1.1,0.6-0.6,1c2.1,1.6,4.3,2.7,6.9,3.2c0.7,0.1,1-0.7,0.5-1.1c-1.3-0.9-2.4-1.9-3.5-2.9c-0.2,0.3-0.4,0.7-0.6,1
							c1.2,0.4,2.3,0.6,3.5,0.7c0.7,0.1,0.8-1,0.2-1.2c-1.3-0.5-2.5-0.9-3.8-1.4c-0.7-0.3-1,0.9-0.3,1.2c1.5,0.5,3,1.1,4.5,1.6
							c0.6,0.2,1.1-0.8,0.5-1.1c-0.9-0.5-1.8-0.9-2.7-1.4c-0.7-0.3-1.2,0.6-0.6,1c1.1,0.8,2.3,1.5,3.4,2.3c0.2-0.4,0.3-0.7,0.5-1.1
							c-1.3-0.4-2.6-0.7-3.9-1.1c-0.7-0.2-1,0.7-0.5,1.1c1.6,1,3.1,2,4.7,3c0.2-0.4,0.3-0.7,0.5-1.1c-1.8-0.6-3.6-1.4-5.4-2.2
							c-0.6-0.3-1.2,0.4-0.7,0.9c1.8,1.8,3.8,3.3,5.9,4.7c0.7,0.4,1.3-0.6,0.6-1c-1.5-0.9-2.8-2-4.1-3.2c-0.2,0.3-0.5,0.6-0.7,0.9
							c1.5,1,3,1.9,4.7,2.6c0.7,0.3,1.3-0.7,0.6-1c-1.7-1-3.4-2.1-5-3.2c-0.2,0.3-0.4,0.7-0.6,1c0.6,0.4,1.1,0.7,1.7,1
							C116.2,35.7,116.8,34.7,116.1,34.3L116.1,34.3z"/>
					</g>
				</g>
				<g>
					<g>
						<path class="st0" d="M97.3,31.4c1.6,0.2,3.1,0.4,4.7,0.5c-0.1-0.4-0.1-0.8-0.2-1.2c-1.8,0.6-3.6,0.4-5.2,0.6
							c-0.1-0.3-0.3-0.7-0.4-1c-1.6,2.3-3.8,3.4-6.5,3.5c0.1,0.4,0.2,0.7,0.3,1.1c1.1-0.1,2.2-0.2,3.3-0.3c0-0.4-0.1-0.7-0.1-1.1
							c-1.3,0.4-2.6,0.8-3.9,1.2c-0.8,0.1-0.8,1.3,0,1.2c0.2,0,0.5-0.1,0.7-0.1c0,0.4-0.1,0.7-0.1,1.1c5-0.2,6.1-0.1,3.2,0.3
							c0,0.4-0.1,0.7-0.1,1.1c2.9-1.2,5.5-1.2,8.4-0.3c0-0.4-0.1-0.7-0.1-1.1c-1.9,1.2-3.8,1.4-5.8,0.6c0,0.4,0.1,0.7,0.1,1.1
							c1-0.3,2.1-0.5,3.1-0.8c-0.1-0.4-0.2-0.7-0.3-1.1c-1.3,0.1-2.7,0.2-4,0.3c-0.8-0.2-1,0.9-0.3,1.2c0.7,0.4,1.4,0.9,2.1,1.3
							c0.1-0.3,0.3-0.7,0.4-1c-1.3-0.2-2.6-0.4-3.9-0.6c-0.2,0.4-0.3,0.7-0.5,1.1c1.1,0.3,2.2,0.7,3.3,1.2c0.1-0.4,0.2-0.8,0.3-1.2
							c-1.3-0.2-2.5-0.7-3.4-1.6c-0.1,0.4-0.2,0.7-0.3,1.1c1.8-0.1,3.4,0.5,4.6,1.6c0.2-0.3,0.4-0.7,0.6-1c-0.7-0.3-1.4-0.7-2.1-1
							c-0.2,0.4-0.3,0.7-0.5,1.1c2.8,0.6,5.6,0.8,8.5,0.8c0.7,0,0.8-1.1,0.2-1.2c-1.9-0.3-3.8-0.5-5.7-0.8c0,0.4,0,0.8,0,1.2
							c2.2-0.8,4.3-1.1,6.6-1c-0.1-0.4-0.1-0.8-0.2-1.2c-1.5,0.1-3,0.2-4.5,0.3c0,0.4,0.1,0.7,0.1,1.1c1.8-0.9,3.6-1.4,5.6-1.4
							c-0.1-0.3-0.3-0.7-0.4-1c-1.1,1.4-2.6,2.3-4.4,2.6c0.2,0.3,0.4,0.7,0.6,1c0.4-0.1,0.9-0.3,1.3-0.4c0.2,0.3,0.5,0.6,0.7,0.9
							c1.3-0.9,2.5-1.8,3.8-2.7c-0.2-0.3-0.5-0.6-0.7-0.9c2.3,0.4,4.5,0.9,6.8,1.3c0.1-0.3,0.3-0.7,0.4-1c-1.7,0-3.4-0.3-5-1.1
							c-0.1,0.4-0.2,0.7-0.3,1.1c1.7,0.6,3.4,1.1,5.1,1.7c0.1-0.3,0.3-0.7,0.4-1c-1-0.3-2-0.6-2.9-0.8c-0.2,0.4-0.3,0.7-0.5,1.1
							c1.4,0.3,2.8,0.7,4.2,1.1c0.6,0.2,1.1-0.8,0.5-1.1c-0.5-0.2-1-0.4-1.5-0.6c-0.7-0.3-1.3,0.7-0.6,1c0.7,0.3,1.3,0.7,1.8,1.1
							c0.2-0.4,0.3-0.7,0.5-1.1c-0.7-0.3-1.5-0.7-2.2-1c-0.2,0.3-0.4,0.7-0.6,1c0.9,0.5,1.8,0.9,2.7,1.4c0.2-0.3,0.4-0.7,0.6-1
							c-0.6-0.3-1.1-0.5-1.7-0.8c-0.2,0.4-0.3,0.7-0.5,1.1c0.6,0.3,1.2,0.5,1.9,0.6c0.6,0.1,1-0.6,0.6-1c-0.5-0.5-1.1-1-1.6-1.5
							c-0.6-0.5-1.4,0.3-0.8,0.8c1.2,1.1,0.7,0.8,2.2,1.4c0.7,0.3,1.2-0.6,0.6-1c-0.7-0.6-1.5-1.1-2.2-1.7c-0.2,0.3-0.4,0.7-0.6,1
							c1.5,0.7,1,0.6,2.7,0.9c0.7,0.1,1-0.7,0.5-1.1c-0.8-0.7-1.7-1.3-2.7-1.7c-0.2,0.4-0.3,0.7-0.5,1.1c0.9,0.3,1.8,0.5,2.7,0.8
							c0.7,0.2,1-0.7,0.5-1.1c-0.9-0.5-1.8-1.1-2.7-1.6c-0.2,0.4-0.3,0.7-0.5,1.1c0.9,0.2,1.7,0.5,2.6,0.7c0.7,0.2,1.1-1,0.3-1.2
							c-0.9-0.2-1.7-0.5-2.6-0.7c-0.7-0.2-1,0.7-0.5,1.1c0.9,0.5,1.8,1.1,2.7,1.6c0.2-0.4,0.3-0.7,0.5-1.1c-0.9-0.3-1.8-0.5-2.7-0.8
							c-0.6-0.2-1.1,0.8-0.5,1.1c1,0.4,1.9,0.9,2.7,1.7c0.2-0.4,0.3-0.7,0.5-1.1c-0.8-0.2-1.6-0.5-2.4-0.7c-0.7-0.3-1.2,0.6-0.6,1
							c0.7,0.6,1.5,1.1,2.2,1.7c0.2-0.3,0.4-0.7,0.6-1c-0.6-0.4-1.3-0.8-1.9-1.3c-0.3,0.3-0.6,0.6-0.8,0.8c0.5,0.5,1.1,1,1.6,1.5
							c0.2-0.3,0.4-0.7,0.6-1c-0.7-0.1-1.3-0.3-1.9-0.6c-0.6-0.2-1.1,0.8-0.5,1.1c0.6,0.3,1.1,0.5,1.7,0.8c0.7,0.3,1.3-0.7,0.6-1
							c-0.9-0.5-1.8-0.9-2.7-1.4c-0.7-0.4-1.3,0.7-0.6,1c1.4,0.8,1,0.6,2.5,1.1c0.7,0.2,1-0.7,0.5-1.1c-0.6-0.4-1.2-0.8-1.8-1.1
							c-0.2,0.3-0.4,0.7-0.6,1c0.5,0.2,1,0.4,1.5,0.6c0.2-0.4,0.3-0.7,0.5-1.1c-1.4-0.4-2.8-0.8-4.2-1.1c-0.6-0.1-1.1,0.8-0.5,1.1
							c2,0.9,1.4,0.7,3.5,1c0.5,0.1,0.8-0.7,0.4-1c-2-1.6-3.5-2.1-6-2c-0.5,0-0.9,0.9-0.3,1.1c1.8,0.8,3.5,1.2,5.6,1.3
							c0.5,0,0.8-0.7,0.4-1c-1.5-1.5-5.6-3.9-7.3-1.1c-0.7,1.2,0,3.6,1.8,3.1c3.3-0.9-2.1-7.3-4-1.2c-0.1,0.3,0.1,0.6,0.4,0.7
							c1.9,0.8,3.1-1.1,3.3-2.8c0.1-0.5-0.3-0.8-0.7-0.7c-1.8,0.3-5,2.1-3.2,4.2c0.1,0.2,0.4,0.2,0.6,0.2c1.5-0.3,2.8-1.5,3.3-3
							c0.1-0.2,0-0.5-0.2-0.6c-2.5-2.2-5.6,1.1-5.2,3.8c0.1,0.3,0.5,0.5,0.7,0.4c1.8-0.6,2.8-1.3,3.9-2.9c0.3-0.5-0.2-1-0.7-0.9
							c-2.3,0.4-3.4,1.2-4.5,3.2c-0.2,0.4,0.2,1.1,0.7,0.9c1.6-0.6,2.3-1.2,3.2-2.6c0.2-0.4-0.1-0.9-0.5-0.9c-2.2,0-3.5,0.5-5.2,2
							c-0.5,0.4,0,1.1,0.6,1c2.1-0.5,3.5-1.3,5-2.9c0.3-0.4,0.1-1.1-0.4-1c-2.2,0.1-4.2,0.6-6.2,1.5c-0.5,0.2-0.3,1,0.1,1.1
							c1.9,0.3,3.3,0.3,5.1-0.3c0.7-0.2,0.5-1.1-0.2-1.2c-2.5-0.1-4.5,0.2-6.9,1c-0.5,0.2-0.6,1.1,0,1.2c1.9,0.3,3.8,0.5,5.7,0.8
							c0.1-0.4,0.1-0.8,0.2-1.2c-2.8,0-5.4-0.2-8.2-0.8c-0.6-0.1-1.1,0.8-0.5,1.1c0.7,0.3,1.4,0.7,2.1,1c0.7,0.3,1.2-0.6,0.6-1
							c-1.7-1.3-3.1-1.7-5.2-1.8c-0.7,0-0.7,0.8-0.3,1.1c1.2,1,2.2,1.4,3.7,1.7c0.8,0.2,1-0.9,0.3-1.2c-1.1-0.5-2.1-0.9-3.3-1.2
							c-0.6-0.2-1.1,0.8-0.5,1.1c1.6,0.7,2.7,0.9,4.5,0.8c0.5,0,0.9-0.7,0.4-1c-1.4-1.2-1-0.9-2.7-1.6c-0.1,0.4-0.2,0.8-0.3,1.2
							c2,0.5,3.1,0.3,4.9-0.5c0.6-0.2,0.3-1.1-0.3-1.1c-1.4,0-2.4,0.3-3.7,1c-0.5,0.3-0.3,0.9,0.1,1.1c2.5,0.8,4.5,0.6,6.8-0.7
							c0.5-0.3,0.3-0.9-0.1-1.1c-3.2-1.1-5.9-1-9,0.3c-0.5,0.2-0.6,0.8-0.1,1.1c1,0.6,4.9,2.1,5.1-0.3c0.3-3-6.6-2.4-8.1-2.2
							c-0.5,0.1-0.6,0.9-0.1,1.1c1.5,0.8,3.6,1,4.3-1c0.1-0.3-0.1-0.5-0.3-0.7c-1.2-0.8-2.7-0.6-4.1-0.5c0,0.4,0,0.8,0,1.2
							c1.8-0.2,3-0.5,4.5-1.4c0.5-0.3,0.3-1-0.1-1.1c-1.7-0.5-2.6-0.4-4.2,0.5c-0.5,0.3-0.3,1.1,0.3,1.1c1.6,0,7-1.1,6.5-3.7
							c-0.4-2.1-2.6-0.5-3.3,0.5c-0.2,0.4,0.1,1,0.5,0.9c1.6-0.2,2.4-0.5,3.7-1.6c0.4-0.3,0.1-1.1-0.4-1c-1.4,0.1-2.1,0.4-3.2,1.4
							c-0.3,0.3-0.2,0.9,0.3,1c3,0.4,5.6,0.3,8.5-0.6c0.7-0.2,0.5-1.1-0.2-1.2c-1.9-0.2-3.3-0.1-5.2,0.4c-0.4,0.1-0.5,0.5-0.4,0.9
							c0.1,0.1,0.1,0.2,0.2,0.3c0.1,0.3,0.4,0.3,0.7,0.3c0.1,0,0.2,0,0.3,0C98.4,32.5,98.1,31.3,97.3,31.4L97.3,31.4z"/>
					</g>
				</g>
				<g>
					<g>
						<path class="st0" d="M103.2,38c2.1-0.6,4.3-1,6.5-1.2c-0.2-0.3-0.4-0.5-0.6-0.8c-0.2,1-2,0.9-2.4,1.6c0.3-0.6,3.4-1.1,0,0.3
							c0.2,0.4,0.3,0.7,0.5,1.1c1.1-0.6,2.1-1.1,3.3-1.4c-0.2-0.3-0.5-0.6-0.7-0.9c-0.5,1.1-1.4,1.7-2.7,1.6
							c0.1,0.4,0.2,0.7,0.3,1.1c1.1-0.6,2.3-1,3.5-1.3c-0.2-0.3-0.4-0.7-0.6-1c-0.7,0.8-1.5,1.3-2.5,1.5c0.2,0.4,0.3,0.7,0.5,1.1
							c0.9-0.7,1.8-1.2,2.9-1.7c-0.3-0.2-0.6-0.5-0.9-0.7c-0.1,0.3-0.1,0.5-0.2,0.8c-0.1,0.4,0.3,0.9,0.7,0.7c0.8-0.3,1.5-0.6,2.2-1
							c-0.2-0.3-0.5-0.6-0.7-0.9c-0.7,0.7-1.5,1.3-2.4,1.9c-0.7,0.4-0.1,1.4,0.6,1c1-0.5,1.9-0.7,3-1c-0.2-0.3-0.4-0.7-0.6-1
							c-0.5,0.3-1,0.6-1.6,0.9c0.1,0.4,0.2,0.8,0.3,1.2c1.3-0.4,2.6-0.7,4-0.9c0.8-0.1,0.8-1.3,0-1.2c-1.5,0.2-2.9,0.5-4.3,0.9
							c-0.7,0.2-0.4,1.4,0.3,1.2c0.9-0.3,1.4-0.6,2.1-1.2c0.5-0.4,0-1.1-0.6-1c-1.2,0.2-2.2,0.6-3.3,1.1c0.2,0.3,0.4,0.7,0.6,1
							c1-0.6,1.8-1.2,2.7-2c0.5-0.5-0.1-1.3-0.7-0.9c-0.6,0.4-1.3,0.7-1.9,0.9c0.2,0.2,0.5,0.5,0.7,0.7c0.1-0.3,0.1-0.5,0.2-0.8
							c0.1-0.5-0.4-0.9-0.9-0.7c-1.1,0.5-2,1-2.9,1.7c-0.5,0.4-0.2,1.3,0.5,1.1c1.3-0.3,2.2-0.8,3-1.8c0.4-0.5,0-1.1-0.6-1
							c-1.4,0.3-2.6,0.8-3.8,1.4c-0.5,0.3-0.3,1.1,0.3,1.1c1.7,0,2.9-0.7,3.7-2.2c0.2-0.4-0.2-1-0.7-0.9c-1.3,0.4-2.4,0.9-3.6,1.5
							c-0.6,0.3-0.2,1.4,0.5,1.1c1.2-0.5,2.5-1.3,2.8-2.7c0.1-0.3,0-0.5-0.3-0.7c-1.2-0.9-5.8,1.2-4.7,3.1c0.1,0.2,0.3,0.3,0.5,0.3
							c1.5-0.1,4.6-1.2,4.9-2.8c0.1-0.3-0.2-0.8-0.6-0.8c-2.3,0.3-4.5,0.7-6.8,1.2C102.1,37.1,102.4,38.2,103.2,38L103.2,38z"/>
					</g>
				</g>
				<g>
					<g>
						<path class="st0" d="M99.2,39.2c-0.3,0-0.6,0-1,0.1c-0.7-0.1-1.1,1-0.3,1.2c0.5,0.1,0.9,0.2,1.4,0.3c0.1-0.4,0.1-0.8,0.2-1.2
							c-0.7,0-1.4-0.2-2-0.5c-0.1,0.4-0.2,0.8-0.3,1.2c1.2,0.4,2.4,0.7,3.6,1.1c0-0.4,0-0.8,0-1.2c-0.9-0.1-1.8-0.2-2.7-0.3
							c-0.6-0.3-1.1,0.4-0.7,0.9c0.6,0.7,0.4,0.6,1.2,1c0.2-0.4,0.3-0.7,0.5-1.1c-0.6-0.1-1.2-0.3-1.8-0.4c-0.5-0.1-1.1,0.6-0.6,1
							c0.7,0.5,0.6,0.5,1.4,0.9c0.1-0.4,0.2-0.7,0.3-1.1c-0.2,0-0.4,0-0.6,0c-0.6,0-0.9,1.1-0.2,1.2c0.9,0.1,1.7,0.2,2.6,0.4
							c0.1-0.4,0.1-0.8,0.2-1.2c-0.4,0-0.7,0-1.1-0.1c-0.7,0-0.8,1.1-0.2,1.2c1.5,0.3,3.1,0.6,4.6,0.3c1.6-0.4,2.7-1.6,4.4-1.8
							c-0.1-0.4-0.2-0.8-0.3-1.2c-0.8,0.2-1.5,0.4-2.3,0.6c0.2,0.4,0.3,0.7,0.5,1.1c1.4-1,2.9-1.9,4.5-2.7c-0.3-0.3-0.5-0.5-0.8-0.8
							c-0.4,0.3-0.7,0.6-1.1,0.9c0.2,0.3,0.4,0.7,0.6,1c0.4-0.2,0.9-0.4,1.3-0.6c-0.2-0.3-0.5-0.6-0.7-0.9c-0.2,0.3-0.5,0.5-0.7,0.8
							c0.2,0.3,0.5,0.6,0.7,0.9c0.1-0.1,0.3-0.1,0.4-0.2c-0.2-0.3-0.4-0.7-0.6-1c-1.6,1.2-3.3,2-5.2,2.3c0.2,0.4,0.3,0.7,0.5,1.1
							c1.5-0.8,3-1.5,4.5-2.2c0.7-0.3,0.2-1.2-0.5-1.1c-2.7,0.6-5.3,1.1-8.1,0.6c0,0.4,0,0.8,0,1.2c1.5-0.3,2.5-0.4,4,0
							c0-0.4,0-0.8,0-1.2c-1.5,0.3-2.9,0.4-4.4,0.2c-0.7-0.1-0.8,1-0.2,1.2c1,0.3,2,0.7,3,1c0.1-0.4,0.1-0.8,0.2-1.2
							c-0.6,0-1.2,0.1-1.8,0.1c-0.7,0-0.8,1-0.2,1.2c0.3,0.1,0.7,0.2,1,0.3c0.8,0.2,1-0.9,0.3-1.2c-0.6-0.3-1.2-0.5-1.8-0.6
							c-0.1,0.4-0.1,0.8-0.2,1.2c1.5,0,3,0,4.5-0.1c0.7,0,0.8-1,0.2-1.2c-0.5-0.1-0.9-0.3-1.4-0.4c-0.1,0.4-0.1,0.8-0.2,1.2
							c0.9,0.1,1.6,0.1,2.4,0c0.5-0.1,0.5-0.7,0.3-1c-0.6-0.7-0.5-0.6-1.2-1.1c-0.1,0.4-0.2,0.7-0.3,1.1c0.6-0.1,1.1-0.1,1.7-0.2
							c0.6-0.1,0.9-0.8,0.3-1.1c-0.6-0.4-1.2-0.7-1.9-0.9c-0.1,0.4-0.2,0.8-0.3,1.2c0.9,0.2,1.6,0.2,2.5,0c0.6-0.1,0.5-1,0-1.2
							c-0.8-0.2-1.4-0.5-2.2-0.5c-0.2,0-0.4,0.1-0.5,0.3c0,0.1-0.1,0.2-0.1,0.2c-0.1,0.2-0.1,0.4,0,0.6c0,0.1,0.1,0.1,0.1,0.2
							c0.3-0.3,0.5-0.5,0.8-0.8c-0.8-0.4-0.8-0.4-1.7-0.7c-0.7-0.2-1.1,0.9-0.3,1.2c0.5,0.2,1,0.4,1.4,0.5c0.5,0.2,1.2-0.3,0.8-0.8
							c0.3,0.6,0.7,0.9,1.4,1c0-0.4,0-0.8,0-1.2c-0.6,0-1.3,0-1.9,0c-0.8-0.1-1,0.9-0.3,1.2c0.6,0.2,1.1,0.5,1.6,0.8
							c0.1-0.4,0.2-0.7,0.3-1.1c-0.6,0.1-1.1,0.1-1.7,0.2c-0.6,0.1-0.8,0.8-0.3,1.1c0.3,0.3,0.7,0.6,1,0.9c0.1-0.3,0.2-0.7,0.3-1
							c-0.7,0.2-1.4,0.2-2.1,0c-0.7-0.1-0.8,1-0.2,1.2c0.5,0.1,0.9,0.3,1.4,0.4c0.1-0.4,0.1-0.8,0.2-1.2c-1.5,0-3,0-4.5,0.1
							c-0.7,0-0.8,1-0.2,1.2c0.6,0.2,1.2,0.4,1.8,0.6c0.1-0.4,0.2-0.8,0.3-1.2c-0.3-0.1-0.7-0.2-1-0.3c-0.1,0.4-0.1,0.8-0.2,1.2
							c0.6,0,1.2-0.1,1.8-0.1c0.7,0,0.8-1,0.2-1.2c-1-0.3-2-0.7-3-1c-0.1,0.4-0.1,0.8-0.2,1.2c1.6,0.2,3.1,0.1,4.7-0.2
							c0.6-0.1,0.6-1,0-1.2c-1.6-0.3-3-0.3-4.6,0c-0.6,0.1-0.6,1.1,0,1.2c3,0.5,5.8,0,8.7-0.6c-0.2-0.4-0.3-0.7-0.5-1.1
							c-1.5,0.7-3,1.4-4.5,2.2c-0.6,0.3-0.2,1.2,0.5,1.1c2.2-0.4,4-1.2,5.8-2.6c0.5-0.4-0.1-1.1-0.6-1c-0.5,0.1-0.6,0.2-1,0.5
							c-0.5,0.4,0.2,1.3,0.7,0.9c0.7-0.5,0.7-0.5,1.2-1.2c0.3-0.4-0.2-1-0.7-0.9c-0.9,0.3-0.8,0.3-1.6,0.7c-0.7,0.4-0.1,1.4,0.6,1
							c0.7-0.3,1.1-0.7,1.5-1.3c0.4-0.5-0.3-1.1-0.8-0.8c-1.6,0.8-3,1.7-4.5,2.7c-0.5,0.4-0.2,1.3,0.5,1.1c0.8-0.2,1.5-0.4,2.3-0.6
							c0.8-0.2,0.4-1.3-0.3-1.2c-1.1,0.2-1.7,0.6-2.6,1c-2,0.9-3.6,0.9-5.7,0.5c-0.1,0.4-0.1,0.8-0.2,1.2c0.4,0,0.7,0,1.1,0.1
							c0.7,0,0.8-1.1,0.2-1.2c-0.9-0.1-1.7-0.2-2.6-0.4c-0.1,0.4-0.1,0.8-0.2,1.2c0.2,0,0.4,0,0.6,0c0.6,0,0.9-0.8,0.3-1.1
							c-0.4-0.2-0.8-0.5-1.2-0.7c-0.2,0.3-0.4,0.7-0.6,1c0.6,0.1,1.2,0.3,1.8,0.4c0.6,0.2,1.1-0.8,0.5-1.1c-0.3-0.3-0.6-0.6-1-0.8
							c-0.2,0.3-0.5,0.6-0.7,0.9c1.3,0.6,2.2,0.8,3.6,0.4c0.6-0.1,0.6-1,0-1.2c-1.2-0.4-2.4-0.7-3.6-1.1c-0.8-0.2-1,0.9-0.3,1.2
							c0.8,0.3,1.5,0.5,2.3,0.5c0.7,0,0.8-1,0.2-1.2c-0.5-0.1-0.9-0.2-1.4-0.3c-0.1,0.4-0.2,0.8-0.3,1.2c0.8,0.2,0.8,0.2,1.6-0.1
							C100.2,40.2,99.9,39,99.2,39.2L99.2,39.2z"/>
					</g>
				</g>
				<g>
					<g>
						<path class="st0" d="M97.1,31.3c0.8-0.3,1.1-0.4,1.7,0.2c0.6,0.5,0.6,0.7,0.8,1.3c0.3,0.8,0.7,1.5,1.1,2.2
							c0.4,0.6,0.8,1.2,1.3,1.7c0.2,0.3,2,2,1.9,2c0.2,0.2,0.4,0.4,0.6,0.6c0,0,0,0,0.1-0.1c-0.2,0.1-0.5,0.2-0.7,0.3
							c0.3,0.2,0.6,0.4,0.9,0.7c0.1-0.3,0.1-0.5,0.2-0.8c-0.2-0.1-0.5-0.2-0.7-0.3c0,0.2-0.1,0.5-0.1,0.7c-0.1-0.1-0.3-0.2-0.4-0.2
							c0.3-0.1,0.6-0.2,0.9-0.4c-1.3-0.7-2.2-1.6-2.8-3c-0.3-0.7-1.4-0.4-1.2,0.3c0.6,1.7,1.7,2.9,3.3,3.7c0.3,0.2,0.8,0,0.9-0.4
							c0.3-1.1-0.7-1.6-1.6-0.9c-0.2,0.2-0.2,0.5-0.1,0.7c0.5,0.9,1.4,1.1,2.4,0.7c0.3-0.1,0.4-0.6,0.2-0.8
							c-0.5-0.6-0.9-0.9-1.6-1.2c-0.3-0.1-0.5,0.1-0.7,0.3c-0.2,0.2-0.2,0.4-0.2,0.7c0,0.3,0.3,0.6,0.6,0.6c0.8,0,1.4-0.5,1.3-1.4
							c-0.1-1.6-2.2-2.3-3-3.4c-0.6-0.9-1.2-1.8-1.6-2.9c-0.2-0.6-0.3-1.3-0.8-1.8c-0.8-0.9-2.1-0.6-3.2-0.3
							C96.1,30.4,96.4,31.6,97.1,31.3L97.1,31.3z"/>
					</g>
				</g>
				<g>
					<g>
						<path class="st0" d="M102.5,32.1c-1.1-0.2-2.1-0.7-2.9-1.5c-0.1,0.3-0.3,0.7-0.4,1c2.1,0.1,4,0.4,6,1.1c0-0.4,0-0.8,0-1.2
							c-2.2,0.4-3.7-0.1-5.4-1.3c0,0.4-0.1,0.7-0.1,1.1c2.5-0.4,4.6-0.4,7.1,0.3c0-0.4,0-0.8,0-1.2c-2.1,0.4-3.8,0.1-5.6-1
							c0,0.4-0.1,0.7-0.1,1.1c2.6-0.4,4.9,0,7.2,1.1c0-0.4,0.1-0.7,0.1-1.1c-1.7,0.4-3.2,0-4.5-1c0,0.4-0.1,0.7-0.1,1.1
							c2.1-0.5,3.8-0.3,5.8,0.4c0.1-0.4,0.2-0.8,0.3-1.2c-1.4-0.3-2.5-0.6-3.9-1.2c-0.2,0.4-0.3,0.7-0.5,1.1c1.5,0.2,3,0.5,4.4,0.9
							c0.1-0.4,0.1-0.8,0.2-1.2c-0.4,0-0.8-0.1-1.1-0.1c-0.6-0.1-0.8,0.9-0.3,1.1c1,0.5,2.1,1.1,3.1,1.6c0.2-0.4,0.3-0.7,0.5-1.1
							c-1.3-0.3-2.5-0.6-3.8-0.9c-0.6-0.2-1.1,0.8-0.5,1.1c1,0.5,2.1,1,3.1,1.5c0.1-0.4,0.2-0.7,0.3-1.1c-1.8,0.2-3.4,0-5.1-0.5
							c0,0.4,0.1,0.7,0.1,1.1c1.7-0.9,3.5-1,5.2,0c0.1-0.4,0.2-0.7,0.3-1.1c-0.9-0.3-1.9-0.6-2.8-1c-0.1,0.4-0.2,0.7-0.3,1.1
							c1.1,0.3,2.3,0.5,3.4,0.8c0.2-0.3,0.4-0.7,0.6-1c-0.6-0.3-1.2-0.5-1.8-0.8c-0.2,0.4-0.3,0.7-0.5,1.1c0.7,0.1,1.4,0.2,2,0.4
							c0.7,0.1,1-0.7,0.5-1.1c-1.5-1-2.8-1.4-4.6-1.5c-0.7,0-0.8,1-0.2,1.2c0.6,0.2,1.2,0.4,1.8,0.7c0.1-0.4,0.2-0.8,0.3-1.2
							c-2.7-0.4-5.3-0.4-8-0.3c0.1,0.4,0.1,0.8,0.2,1.2c2.2-0.5,4.3-0.7,6.5-0.5c-0.1-0.4-0.1-0.8-0.2-1.2c-2.6,0.7-4.8-0.1-7.4-0.1
							c-2.3,0-4.5,0.9-6.8,1.1c0.1,0.4,0.2,0.7,0.3,1.1c1.1-0.7,2.3-1.1,3.5-1.2c-0.1-0.4-0.2-0.8-0.3-1.2c-1.4,0.5-2.8,0.8-4.4,0.8
							c0.1,0.4,0.2,0.7,0.3,1.1c1.3-0.7,2.7-0.9,4.2-0.8c-0.1-0.4-0.1-0.8-0.2-1.2c-0.3,0.1-0.5,0.1-0.8,0.2
							c0.1,0.4,0.2,0.8,0.3,1.2c1.6-0.5,4.6,0.6,6.4,0.7c0.7,0,0.7-0.9,0.2-1.2c-2.1-0.8-4-1.2-6.2-1.2c0.1,0.4,0.2,0.7,0.3,1.1
							c2.4-1.1,4.3-0.3,6.4,0.4c0.7,0.3,1-0.9,0.3-1.2c-0.4-0.2-0.9-0.3-1.3-0.5c-0.1,0.4-0.1,0.8-0.2,1.2c1.3,0.1,2.6,0.3,3.8,0.4
							c0.7,0.1,0.8-1.1,0.2-1.2c-1.1-0.2-2-0.4-3-0.7c-0.1,0.4-0.2,0.8-0.3,1.2c0.4,0.1,0.9,0.3,1.3,0.4c0.7,0.2,1.1-0.9,0.3-1.2
							c-0.4-0.1-0.9-0.3-1.3-0.4c-0.7-0.2-1.1,0.9-0.3,1.2c1,0.3,2,0.6,3,0.7c0.1-0.4,0.1-0.8,0.2-1.2c-1.3-0.1-2.6-0.3-3.8-0.4
							c-0.7-0.1-0.7,1-0.2,1.2c0.4,0.2,0.9,0.3,1.3,0.5c0.1-0.4,0.2-0.8,0.3-1.2c-2.6-0.9-4.8-1.5-7.4-0.3c-0.6,0.3-0.2,1.1,0.3,1.1
							c2.1,0.1,3.9,0.4,5.9,1.2c0.1-0.4,0.1-0.8,0.2-1.2c-2.2-0.1-4.6-1.4-6.7-0.7c-0.7,0.2-0.4,1.3,0.3,1.2
							c0.3-0.1,0.5-0.1,0.8-0.2c0.7-0.2,0.5-1.2-0.2-1.2c-1.8,0-3.1,0.3-4.8,1c-0.6,0.2-0.3,1.1,0.3,1.1c1.7,0,3.1-0.3,4.7-0.9
							c0.7-0.3,0.4-1.3-0.3-1.2c-1.4,0.2-2.5,0.6-3.8,1.3c-0.5,0.3-0.3,1.2,0.3,1.1c2.7-0.2,5.2-1.2,7.9-1c2.3,0.1,4.3,0.6,6.6,0
							c0.7-0.2,0.5-1.1-0.2-1.2c-2.4-0.2-4.5,0-6.8,0.5c-0.7,0.2-0.5,1.2,0.2,1.2c2.6-0.1,5.1-0.1,7.7,0.3c0.8,0.1,1.1-0.9,0.3-1.2
							c-0.6-0.2-1.2-0.4-1.8-0.7c-0.1,0.4-0.1,0.8-0.2,1.2c1.5,0,2.8,0.5,4,1.4c0.2-0.4,0.3-0.7,0.5-1.1c-0.7-0.1-1.4-0.2-2-0.4
							c-0.6-0.1-1.1,0.8-0.5,1.1c0.6,0.3,1.2,0.5,1.8,0.8c0.7,0.3,1.3-0.7,0.6-1c-1.4-0.6-2.5-0.9-4-1c-0.6,0-0.8,0.8-0.3,1.1
							c1.2,0.7,2.1,1,3.4,1.1c0.6,0.1,0.8-0.9,0.3-1.1c-2.2-1-4.2-1-6.5,0c-0.5,0.2-0.3,1,0.1,1.1c1.9,0.6,3.5,0.8,5.5,0.5
							c0.5-0.1,0.9-0.8,0.3-1.1c-1-0.5-2.1-1-3.1-1.5c-0.2,0.4-0.3,0.7-0.5,1.1c1.3,0.3,2.5,0.6,3.8,0.9c0.6,0.2,1.1-0.8,0.5-1.1
							c-1-0.5-2.1-1.1-3.1-1.6c-0.1,0.4-0.2,0.7-0.3,1.1c0.4,0,0.8,0.1,1.1,0.1c0.7,0.1,0.8-1,0.2-1.2c-1.5-0.3-2.9-0.6-4.4-0.9
							c-0.6-0.1-1.1,0.8-0.5,1.1c1.4,0.7,2.7,1.1,4.2,1.4c0.8,0.1,1.1-0.9,0.3-1.2c-2.2-0.8-4.1-0.9-6.4-0.4
							c-0.5,0.1-0.6,0.8-0.1,1.1c1.8,1.1,3.4,1.4,5.5,1.1c0.5-0.1,0.6-0.9,0.1-1.1c-2.7-1.3-5.2-1.6-8.1-1.2
							c-0.5,0.1-0.5,0.9-0.1,1.1c2.1,1.3,4.1,1.6,6.5,1.1c0.6-0.1,0.6-1,0-1.2c-2.6-0.7-5.1-0.8-7.7-0.3c-0.6,0.1-0.5,0.8-0.1,1.1
							c2,1.4,3.9,1.8,6.3,1.4c0.6-0.1,0.5-1,0-1.2c-2.1-0.7-4.1-1.1-6.3-1.1c-0.5,0-0.8,0.7-0.4,1c1,1,2,1.4,3.5,1.8
							C102.9,33.5,103.2,32.3,102.5,32.1L102.5,32.1z"/>
					</g>
				</g>
				<g>
					<g>
						<path class="st0" d="M104.5,31.6c-2.4-0.6-2.7-1-1.1-1c0.4,0.2,0.9,0.2,1.3,0c0.1-0.4,0.2-0.7,0.3-1.1c1.2,0,2.6,0.1,4,0.6
							c0.1-0.4,0.2-0.8,0.3-1.2c-1.8-0.6-3.6-1.2-5.5-1.8c-0.1,0.4-0.2,0.8-0.3,1.2c2.7,0.4,7.6,0.9,9.4,3.2
							c0.5,0.6,1.3-0.3,0.8-0.8c-2.1-2.6-7-3-10-3.5c-0.8-0.1-1.1,0.9-0.3,1.2c1.8,0.6,3.6,1.2,5.5,1.8c0.7,0.2,1-0.9,0.3-1.2
							c-1.3-0.5-5.4-1.8-6.4-0.1c-0.9,1.4,1.2,1.8,2.1,1.9c0.6,0,0.8-0.8,0.3-1.1c-0.8-0.5-1.7-0.9-2.6-0.3
							c-0.7,0.5-0.8,1.3-0.3,1.9c0.6,0.9,2.7,1.5,3,0c0.3-1.7-3.3-2.6-4.2-1.6c-1.5,1.6,2.1,3.2,3.2,3.2
							C105.3,32.8,105.3,31.6,104.5,31.6L104.5,31.6z"/>
					</g>
				</g>
				<g>
					<g>
						<path class="st0" d="M111.7,37.6c1.9-0.4,3.7,0,5.4,0.9c0.7,0.4,1.3-0.7,0.6-1c-1.9-1.1-4.1-1.5-6.3-1
							C110.6,36.6,110.9,37.7,111.7,37.6L111.7,37.6z"/>
					</g>
				</g>
				<g>
					<g>
						<path class="st0" d="M122.3,40.1c-0.6-0.2-1.1-0.7-1.5-1.2c-0.4-0.7-1.4-0.1-1,0.6c0.5,0.8,1.3,1.4,2.2,1.8
							C122.7,41.5,123,40.4,122.3,40.1L122.3,40.1z"/>
					</g>
				</g>
			</g>
			<g>
				<g>
					<path class="st0" d="M73.3,55.1c0.4-0.3,0.5-0.7,0.5-1.2c-0.1-0.7-1.2-0.8-1.2,0c0.1,0.5,0,0.9-0.3,1.2c0.4,0,0.7,0.1,1.1,0.1
						c-0.1-0.6-0.1-1.1-0.1-1.6c-0.4,0-0.8,0-1.2,0c0,0.8-0.1,1.5-0.3,2.2c0.4,0.1,0.8,0.2,1.2,0.3c0-0.2,0.1-0.4,0.1-0.6
						c-0.4-0.1-0.8-0.1-1.2-0.2c0,0.5,0,0.9,0,1.4c0.4,0,0.8,0,1.2,0c0-0.2,0-0.4,0-0.6c-0.4,0-0.8,0-1.2,0c0,0.3,0,0.5,0,0.8
						c0,0.7,1,0.8,1.2,0.2c0.5-1.9,0.9-3.9,1.2-5.9c-0.4-0.1-0.8-0.1-1.2-0.2c0,1.2-0.1,2.4-0.6,3.5c0.4,0,0.7,0.1,1.1,0.1
						c-0.1-1,0.1-1.9,0.7-2.7c-0.4-0.1-0.7-0.2-1.1-0.3c0,2-0.3,3.8-0.9,5.7c0.4,0,0.8,0,1.2,0c-0.2-0.3-0.2-0.7,0-1
						c0.3-0.7-0.9-1-1.2-0.3c-0.2,0.6-0.2,1.1,0,1.7c0.2,0.5,1,0.6,1.2,0c0.6-2,0.9-4,0.9-6c0-0.6-0.8-0.8-1.1-0.3
						c-0.7,1.1-1,2.3-0.8,3.6c0.1,0.5,0.9,0.6,1.1,0.1c0.6-1.3,0.8-2.7,0.8-4.1c0-0.6-1.1-0.9-1.2-0.2c-0.4,2-0.8,3.9-1.2,5.9
						c0.4,0.1,0.8,0.1,1.2,0.2c0-0.3,0-0.5,0-0.8c0-0.8-1.2-0.8-1.2,0c0,0.2,0,0.4,0,0.6c0,0.8,1.2,0.8,1.2,0c0-0.5,0-0.9,0-1.4
						c0-0.7-1-0.8-1.2-0.2c0,0.2-0.1,0.4-0.1,0.6c-0.1,0.7,1,1.1,1.2,0.3c0.2-0.8,0.3-1.7,0.3-2.5c0-0.8-1.2-0.8-1.2,0
						c0,0.7,0,1.3,0.1,1.9c0.1,0.5,0.9,0.5,1.1,0.1c0.4-0.6,0.5-1.1,0.5-1.8c-0.4,0-0.8,0-1.2,0c0,0.1-0.1,0.2-0.1,0.4
						C71.9,54.8,72.7,55.7,73.3,55.1L73.3,55.1z"/>
				</g>
			</g>
		</g>
		<g>
			<g>
				<path class="st0" d="M125.9,49.4c0.4,0.7,0.7,1.5,1.1,2.2c0.2-0.3,0.5-0.6,0.7-0.9c0,0,0.1,0.1,0.1,0.1
					c-0.2,0.3-0.3,0.6-0.5,0.9c-0.3,0,0.1,1.2,0.2,1.2c0.2,0.7,1.1,0.5,1.2-0.2c0.2-1.7,0-3.3-0.5-4.9c-0.2-0.6-1.2-0.5-1.2,0.2
					c0.1,1.5,0.3,3.1,0.6,4.6c0.4-0.2,0.7-0.3,1.1-0.5c-0.7-1.7-0.6-3.7-1.2-5.4c-0.5-1.4-1.3-2.6-2.2-3.7c-0.5-0.6-1.3,0.3-0.8,0.8
					c1.2,1.4,2,3.1,2.4,4.9c0.3,1.4,0.3,2.6,0.8,3.9c0.3,0.7,1.2,0.2,1.1-0.5c-0.3-1.4-0.4-2.8-0.5-4.3c-0.4,0.1-0.8,0.1-1.2,0.2
					c0.5,1.5,0.6,3,0.5,4.6c0.4-0.1,0.8-0.1,1.2-0.2c-0.2-0.6-0.3-1.3-0.6-1.8c-0.1-0.2-0.3-0.3-0.5-0.3c-0.1,0-0.1,0-0.2,0
					c-0.5,0.1-0.7,0.5-0.5,0.9c0.1,0.3,0.3,0.4,0.6,0.5c0.5,0.1,0.9-0.4,0.7-0.9c-0.4-0.7-0.7-1.5-1.1-2.2
					C126.5,48.2,125.5,48.8,125.9,49.4L125.9,49.4z"/>
			</g>
		</g>
	</g>
	<g>
		<g>
			<g>
				<path d="M72.6,58.2c-0.1-7,2.7-16,7.4-21.2c5.3-5.9,13.1-8.4,20.9-8.7c8.3-0.3,14.4,1.9,19.7,8.2c2.5,2.9,5.6,6.2,6.5,10
					c0.9,3.9,0.7,8.3,1,12.3c0.1,0.8,1.3,0.8,1.2,0c-0.3-4.3,0-9.2-1.2-13.3c-1-3.5-3.8-6.4-6-9.2c-5.9-7-11.9-9.6-21.1-9.3
					c-17.2,0.6-29.8,13.6-29.5,31.1C71.4,58.9,72.6,58.9,72.6,58.2L72.6,58.2z"/>
			</g>
		</g>
		<g>
			<g>
				<path d="M73,59c3-5.3,6.2-11.9,10.6-16.1c4.6-4.4,11.4,0.3,16.9,0.6c2.3,0.1,4.6,0.1,6.8-0.7c2.8-1.1,3.3-2.2,6.5-2.1
					c7,0.3,12.3,9.8,14.5,15.7c0.3,0.7,1.4,0.4,1.2-0.3c-2.2-5.9-5.8-11.6-11-15.3c-6.5-4.6-9.9,1.7-17,1.6c-2.8,0-5.3-0.5-7.8-1.6
					c-1.3-0.5-2.4-1.3-3.7-1.6c-1.8-0.3-3.3,0.1-4.9,1.1c-2.3,1.5-4,4.2-5.5,6.4c-2.7,3.8-5.1,7.8-7.4,11.8
					C71.6,59.1,72.6,59.7,73,59L73,59z"/>
			</g>
		</g>
	</g>
	<g>
		<g>
			<path class="st1" d="M93.5,37c2.7,1.9,5.7,2.9,9,3c0.8,0,0.8-1.2,0-1.2c-3.1-0.1-5.9-1.1-8.4-2.9C93.5,35.5,92.9,36.6,93.5,37
				L93.5,37z"/>
		</g>
	</g>
	<g>
		<g>
			<path class="st1" d="M74.9,53c2.4-6.4,4.7-13.2,10.8-16.9c0.7-0.4,0.1-1.4-0.6-1c-3.1,1.9-5,3.7-6.7,7c-1.7,3.4-3.2,7-4.6,10.6
				C73.5,53.4,74.6,53.7,74.9,53L74.9,53z"/>
		</g>
	</g>
	<g>
		<g>
			<path class="st1" d="M112.1,32.4c2.7,1.9,5.4,3.8,7.6,6.2c2.1,2.2,3.3,5.1,5.6,7c0.6,0.5,1.4-0.3,0.8-0.8
				c-2.5-2.1-3.9-5.3-6.2-7.7c-2.2-2.2-4.7-4-7.3-5.8C112.1,31,111.5,32,112.1,32.4L112.1,32.4z"/>
		</g>
	</g>
	<g>
		<g>
			<path class="st1" d="M98.1,32.8c2.5,1.4,5.1,2.3,7.9,2.9c0.8,0.1,1.1-1,0.3-1.2c-2.7-0.5-5.2-1.4-7.6-2.7
				C98,31.4,97.4,32.4,98.1,32.8L98.1,32.8z"/>
		</g>
	</g>
</g>
</svg>
