<svg id="Layer_1" data-name="Layer 1" xmlns="http://www.w3.org/2000/svg" viewBox="0 0 73.35 69.67"><defs><style>.cls-1{fill:#ffe329;}.cls-2{fill:#f9ee53;}</style></defs><title>Blond</title><path class="cls-1" d="M81.1,39.9c-.1-.6-.3-1.2-.4-1.7.1-1.8-2.4-1.9-2.9-.4.3.5.5.9.8,1.4-.8-.4-1.7-.7-2.5-1.1-.1.1-.2.3-.3.4.7.6,1.5,1.1,2.2,1.7l.6-1.2c-.8-.6-1.6-1.2-2.3-1.8a2.18,2.18,0,0,0-.5.4c.7.6,1.5,1.1,2.2,1.7.2-.5.4-1,.7-1.6-.9-.5-1.7-1-2.6-1.5-.4.5-.8.9-1.2,1.4l2,2c.4-.6.9-1.2,1.3-1.8-.8-.5-1.7-1-2.5-1.4l.8-.8A23.07,23.07,0,0,0,78.4,37v-.4c0-1.4-2.1-2.1-2.8-.8a4.67,4.67,0,0,0-.5,1c.9.4,1.8.8,2.7,1.1,2.1-5,12.6-7.8,18-7.8,2,0,3.7-.3,5.5-.4,3.2-.2,5.1,1.5,7.8,2.7.3-1,.5-1.9.8-2.9-.7-.4-1.3-.7-2-1.1-.3.9-.5,1.8-.8,2.8,3.4.2,8.3-.3,10.7,2.1s3.1,4.3,6.2,6c1.9,1.1,3.4,1.8,4.7,3.7,1.1,1.6,3.2,6.1-2,5.6-.4,0-.9-1.1-1.4-1.3-2-.8-2.7-2.2-4-3.7-1.7-1.9-2.7-2-4.9-3-2.5-1.2-3.8-3.5-6.2-4.7a15.7,15.7,0,0,0-7.7-1.3c-2.5.3-3.9,3.5-6.4,3.4a1.52,1.52,0,0,0-1.4,1.9,2.13,2.13,0,0,0,1.7,1.7c.3-1,.5-1.9.8-2.9-4.1-.7-10.3-2.4-14-.1-3,1.8-4.3,4.8-7.7,6.2-.2.4-.4.7-.6,1.1a14.65,14.65,0,0,1,1.7-2.4A29.52,29.52,0,0,1,80.8,39c-.8-.4-1.7-.7-2.5-1.1l-1.5,2.7,2.1,2.1a10.91,10.91,0,0,0,1.1-.6l-1.5-1.5c-.5.4-.9.8-1.4,1.2.7.6,1.5,1.1,2.2,1.7.4-.6.7-1.1,1.1-1.7l-2.1-2.1a10.69,10.69,0,0,1-3.7,2.7c.6.2,1.1.5,1.7.7-.1.8.1.2.6-1.7a1.52,1.52,0,0,0-2.2-1.7c-1,.5-2,1.1-3,1.6.7.6,1.5,1.1,2.2,1.7.4-.8.8-1.7,1.2-2.5-.9-.4-1.8-.8-2.7-1.1-.2.4-.3.8-.5,1.2-.5,1.4,1.6,2.6,2.5,1.4,2.1-2.6,5.4-7.2,8.9-7.8-.6-.2-1.1-.5-1.7-.7.1.2-4.4,3.8-3.9,3.4.6.8,1.2,1.6,1.8,2.3a20.15,20.15,0,0,1,6.6-4.6l-2-2a15.38,15.38,0,0,1-3.8,4.9l2.1,2.1a12,12,0,0,1,4-3.1l-2-2a12.07,12.07,0,0,1-4.9,4.6l2,2a19.28,19.28,0,0,1,2.7-3l2.1-1.5h0A30.7,30.7,0,0,1,90.6,34c6.9-3.6-3.1,1.5-2-.2a1.49,1.49,0,0,0-1.3-2.2c-.5,0-.9-.1-1.4-.1.3.9.5,1.8.8,2.8a20.18,20.18,0,0,1,3-1.4,3.71,3.71,0,0,1,3.4.4q2,1.65,3.6-.9c-1.6,1.7-1.5,3.1.2,4.1a17.1,17.1,0,0,0-1.1-1.4c-.4,1.4-.7,1.5-.9.5.6.2,1.1.5,1.7.7q1.35-3.9,6-4.2a17.1,17.1,0,0,1-1.4-1.1l-.9,2.1c.8.4,1.7.7,2.5,1.1.2-.4.5-.9.7-1.3L102,31.4c-.2.5-.4,1-.6,1.4a11,11,0,0,0,1.8.2c-.2.2-.4.3-.5.5a23.35,23.35,0,0,1,2.5.7c0-.2-.1-.4-.1-.7a11,11,0,0,0,1.8.2,27.59,27.59,0,0,1-.8-2.7c-.7.4-1.5.9-2.2,1.3.3.4.6.7.9,1.1a17.1,17.1,0,0,1,1.1-1.4c-.7.7-1.3,1.5-2,2.2.7-.3,1.5-.6,2.2-.9-4.4-2.4-1.2-2.2-3.4-2.4l1.5,1.5c-.8,1.1.2,1.8,3,1.9.6.2,1.1.5,1.7.7,5.2.1,6.6,1.2,4.2,3.4a25.12,25.12,0,0,1,2.7.4,14.92,14.92,0,0,1-.2-2.1h2.1c-.8-1.2-.9-1.1-.2.2.8-.5,1.7-1,2.5-1.4-.3-.3-.6-.7-.9-1-1.3-1.4-3.4.7-2.1,2.1.3.3.6.7.9,1a1.49,1.49,0,0,0,2.5-1.4c-.9-2.2-2.3-6-5.3-4.2s-1,5,.6,6.8a1.45,1.45,0,0,0,2.1,0c1.5-1.8,1.6-5.9-1.4-6.4-3.7-.6-4,5.1-3.4,7.3a1.53,1.53,0,0,0,2.7.4c1.5-1.9,4-7.7-1-7.2-2.9.3-3.7,4.1-2.2,6.2a1.36,1.36,0,0,0,1.3.7c9-1.1-.6-13.3-3.5-5.8-.9,2.5,1.4,5.3,4,3.8,2.4-1.4,2.5-5.1-.4-6-2.7-.8-6.7,2.5-5.4,5.3,1.5,3.2,4.6-.1,5.4-1.9,3.9-8.2-10.6-4.1-7.7,1.5a1.62,1.62,0,0,0,1.7.7c6.9-1.8,1.4-11-4.8-5.9a1.49,1.49,0,0,0-.4,1.4c1.3,4,7.3,1.5,6-2.1s-7.7-1.6-7.5,1.7a1.54,1.54,0,0,0,1.5,1.5c3.7.3,6.5-5.5,1.8-6-5.8-.6-5.7,6.4-.7,7.7,2,.5,5,.1,6.1-1.9.7-1.4.3-3.6-1.4-4.1-4.1-1.4-4.9,5.7-1.4,7a1.24,1.24,0,0,0,1.4-.4c1.9-2.3.7-6.4-2.7-6.4-3.8,0-4.3,4.5-1.3,6.1a1.52,1.52,0,0,0,2.2-.9c.5-2.1.8-4.7-1.2-6.2-1.3-.9-4.2-1-5.2.4-2.6,3.2,3.6,6.7,6.4,5.7a1.5,1.5,0,0,0,1.1-1.4c.1-1.8-1-2.8-2.4-3.7a1.45,1.45,0,0,0-2.2,1.3c0,1.7.3,3.6,1.7,4.8a1.51,1.51,0,0,0,1.8.2c5.5-3.7-5.9-8.9-4.2-1.1a1.55,1.55,0,0,0,2.5.7c2.1-1.9,1.8-5.4-1.5-5.5a2.86,2.86,0,0,0-2.1,4.9,1.38,1.38,0,0,0,1.8.2,4.05,4.05,0,0,0,2.1-4,1.54,1.54,0,0,0-1.5-1.5c-2.5.1-3.5,2-3.7,4.3-.1,1.2,1.8,2,2.5,1.1,1.2-1.4,2.2-3.1,1.7-5a1.6,1.6,0,0,0-1.4-1.1c-2.8-.3-6.7,3.5-5.5,6.3,1.3,3.1,4.6,1,5.4-1.3,3.1-8.4-12.6-2.1-8.5,3.7a1.62,1.62,0,0,0,1.7.7c2.6-.5,4.8-3,3.6-5.5a1.21,1.21,0,0,0-1.3-.7c-2.5.1-9.4,2.9-6.5,6.3,2.4,2.9,7.8.1,7.3-3.4-.1-.6-.4-1.3-1.1-1.4-7.7-1.2-3.9,9.8,1,2.6,4.7-6.9-8.2-4.9-5.1,1a1.36,1.36,0,0,0,1.3.7c6.8-.3,5.8-12.7-1.4-7.4-2,1.5-4,5.6-.6,6.9,3,1.1,5.4-2.8,5.2-5.3-.8-8.9-16.1,2.2-9.4,4.9,2.5,1,5.8-2.2,5.3-4.7-.8-4.4-6.4-1.8-8.7-.6-1.4.8-.6,2.6.8,2.8.5,0,.9.1,1.4.1-.4-.7-.9-1.5-1.3-2.2-2.5,4,2.2,6.3,5.6,4.8,2.1-.9,7.9-6.7,2.9-7.8C91.7,29,85.8,35,88.9,38c2.7,2.7,6.9-1.7,6-4.7-1.3-4.5-8.4-1.4-9.2,1.9-1,3.9,4.4,4.1,6.6,2.3,2.8-2.3,1.8-6.1-2-5.6-2.4.4-10.5,4.9-7.9,8.3,2.3,2.9,9.3-2,8.4-5.1-1.7-5.7-10.1,3.3-11.4,5-1,1.3.8,2.7,2,2a14.09,14.09,0,0,0,5.9-5.7,1.47,1.47,0,0,0-2-2A12.52,12.52,0,0,0,80.7,38a1.48,1.48,0,1,0,2.1,2.1,16.44,16.44,0,0,0,4.3-5.5,1.47,1.47,0,0,0-2-2,23,23,0,0,0-7.2,5.1c-1.1,1.2.4,3.4,1.8,2.3,2.2-1.6,6.6-4.3,5-7.5a1.62,1.62,0,0,0-1.7-.7c-4.2.7-7.7,5.5-10.2,8.5.8.5,1.7,1,2.5,1.4.2-.4.3-.8.5-1.2.6-1.6-1.9-2.6-2.7-1.1a23,23,0,0,0-1.5,3.2c-.5,1.3,1.1,2.2,2.2,1.7s2-1.1,3-1.6c-.7-.6-1.5-1.1-2.2-1.7-.5,1.5-1.1,2.6-.3,4a1.62,1.62,0,0,0,1.7.7c2-.4,3.6-2.2,5-3.5s-.7-3.4-2.1-2.1a5.05,5.05,0,0,0-1.9,3,1.52,1.52,0,0,0,2.2,1.7c1.5-.9,2.9-1.9,2.8-3.8a1.54,1.54,0,0,0-1.5-1.5,4.31,4.31,0,0,0-3.2,1.4c-1.5,1.3.6,3.3,2.1,2.1a5.38,5.38,0,0,0,2.3-4.8,1.52,1.52,0,0,0-2.5-1.1c-1.5,1.3-10.8,10-4.7,11.2,2.5.5,5.6-1.8,7.3-3.4,1.4-1.3,2.9-3.4,4.9-4,2.8-.9,7.6.4,10.4.9a1.5,1.5,0,0,0,.8-2.9c.1.1.2.3.4.4a23.07,23.07,0,0,0-1.4,1.9,4.41,4.41,0,0,0,3.3-.9c.7-.4,1.2-1.4,1.9-1.7a11.08,11.08,0,0,1,6.5-.1c2.1.7,2.7,2.6,4.4,3.9,1.6,1.1,3.5,1.4,5.1,2.4,3.1,1.9,5.6,5.5,8.6,7.8,1.9,1.4,4,1.5,5.7-.2,4.5-4.4-.5-12.2-4.7-14.7-2.4-1.4-3.9-2.4-5.4-4.8a8.08,8.08,0,0,0-2.8-3c-3.1-1.8-8.1-1.2-11.5-1.4-1.6-.1-1.9,2-.8,2.8a9.93,9.93,0,0,0,2.7,1.4c1.8.7,2.5-2.2.8-2.9-3-1.2-4.7-3.6-8.2-3.2a9.25,9.25,0,0,1-3.6,1,10.57,10.57,0,0,0-3.1-.2,25.69,25.69,0,0,0-4,.7c-6.9,1.7-13.2,2.2-16.1,9.2-.6,1.6,1.9,2.6,2.7,1.1a4.67,4.67,0,0,0,.5-1c-.9-.3-1.8-.5-2.8-.8V37A1.52,1.52,0,0,0,78,38.4c.1,0,.1,0,.2-.1a1.28,1.28,0,0,0,1-1v-.2c.3-1.3-1.5-2.7-2.5-1.4a21.45,21.45,0,0,0-1.8,2.4c-.8,1.2.8,2.9,2,2a5.58,5.58,0,0,0,2.3-2.5c1-1.7-1.4-3-2.6-1.5a3.45,3.45,0,0,0-1,2.3,1.53,1.53,0,0,0,2.2,1.7,2.94,2.94,0,0,0,1.6-1.5,1.48,1.48,0,0,0-2.3-1.8,3.13,3.13,0,0,0-1.3,2.5c-.2,1.2,1,2.5,2.2,1.7,1.4-1,1.6-1.2,1.8-3,.2-1.3-1.7-1.9-2.5-1.1-4.3,4.2,2.3,6.9,4.2,1.5-1-.1-1.9-.3-2.9-.4a3.67,3.67,0,0,0,.8,3.2c.2,1.8,2.7.3,1.7-1.3Z" transform="translate(-63.73 -25.74)"/><path class="cls-1" d="M123.9,44.7a1.5,1.5,0,0,0,0-3c-1.9.1-1.9,3,0,3Z" transform="translate(-63.73 -25.74)"/><path class="cls-1" d="M124.3,42.1a14.64,14.64,0,0,0-4.2-4.4c-1.2-.9-2.9.9-2,2,.4.6.9,1.2,1.3,1.8l2-2c-.1,0-5.4-1.7-4.8-.8a11,11,0,0,0-.2,1.8c.3-.2.6-.5.9-.7a1.38,1.38,0,0,0,.2-1.8c-1.9-2.8,0-7.2-4.4-7.5a1.47,1.47,0,0,0-1.3,2.2c1.9,3.5,5.4,5.6,7.6,9,.6-.7,1.1-1.5,1.7-2.2-2.4-.8-4.5-2.4-6.6-.2a1.49,1.49,0,0,0,1.1,2.5,13.4,13.4,0,0,1,7.9,3.1c.6-.8,1.2-1.6,1.8-2.3a22.85,22.85,0,0,1-3.3-2.9c-1.2-1.2-3.3.4-2.3,1.8.8,1.3,1.6,2.5,2.3,3.8.9-.5,1.7-1,2.6-1.5a40.18,40.18,0,0,1-2.4-4.6c-.9.5-1.7,1-2.6,1.5a60.23,60.23,0,0,1,3,5.6c.9-.5,1.7-1,2.6-1.5a45.43,45.43,0,0,1-2.6-7c-.8.5-1.7,1-2.5,1.4a33.33,33.33,0,0,1,4.6,4.6l2.1-2.1c-2.2-2.7-4.2-5-7.3-6.7a1.48,1.48,0,0,0-1.8,2.3c2.3,2.5,9.5,7.1,8.7,11a23.35,23.35,0,0,0,2.5-.7c-.5-.9-.9-1.7-1.4-2.6-.8.5-1.7,1-2.5,1.4.5.8.9,1.6,1.4,2.5.7-.6,1.5-1.1,2.2-1.7.1.1-6.1-6-6.1-5.6-.6.3-1.2.7-1.8,1,3,.7,7.4.5,7.7,4.9.8-.4,1.7-.7,2.5-1.1a30.78,30.78,0,0,1-4.2-7.2c-.8.6-1.6,1.2-2.3,1.8,1.9,1.5,2.1,5.3,2.6,7.6.9,3.5.2,5.8-1.1,9.2,1,.1,1.9.3,2.9.4a21.11,21.11,0,0,1,.4-5h-2.9a60.11,60.11,0,0,1,1.3,8.5c.1,1.9,3,1.9,3,0a31.06,31.06,0,0,1,.8-8h-2.9a25.16,25.16,0,0,1,1.3,4.7c.3,1.6,3,1.3,2.9-.4-.1-2.1-.2-4.2-.2-6.3-.9.3-1.8.5-2.8.8,1.4,2.8,4.1,6.2,1.4,8.9.8.6,1.6,1.2,2.3,1.8a8.44,8.44,0,0,0,1.2-4c.1-1.8-2.4-1.9-2.9-.4-.4,1.2-.9,2.5-1.3,3.7,1,.1,1.9.3,2.9.4.1-1.2.1-2.4.2-3.6a1.53,1.53,0,0,0-2.8-.8,20.7,20.7,0,0,0-1.8,4.7,1.51,1.51,0,0,0,2.9.8c.2-.5.3-1.1.5-1.6a1.47,1.47,0,0,0-2.7-1.1c-.5.8-1,1.6-1.6,2.4.9.3,1.8.5,2.8.8a8.73,8.73,0,0,0-1.5-4.7c-.9.5-1.7,1-2.6,1.5,2.2,3-2,5.5-1.2,8.5.5,2.1,4.4,3.5,4.3,5.5,1-.1,1.9-.3,2.9-.4a17.94,17.94,0,0,1,.1-9.2c-1-.1-1.9-.3-2.9-.4a5.82,5.82,0,0,1-.4,3.2h2.9c.1-1,.3-2.1.4-3.1a25.12,25.12,0,0,1-2.7-.4s.9,3.5,1.3,2.4c.6-1.5-1.5-2.4-2.5-1.4-3.1,2.9,1.7,5.6,1.8,8.8a1.44,1.44,0,0,0,1.9,1.4c0-.1-.1-.2-.1-.3a1.54,1.54,0,0,0,2.1,0c2.4-2.2.6-4.5-.5-6.9-.8.6-1.6,1.2-2.3,1.8a13.73,13.73,0,0,0,1.3,2c.7,1.5,3.2.5,2.7-1.1-.3-.8-.5-1.4-.8-2.2-.5-1.2-2.4-.8-2.7.4-1.1,4.1-5.3,9.5-1.7,13.3,1.1,1.2,2.7-.1,2.5-1.4-.2-1.1-.4-2.1-.6-3.2-.9.4-1.8.8-2.7,1.1.6,1.2,2,2.9,2.2,4.1.2,1.5-.4,2-1.4,3.6.9.3,1.8.5,2.8.8.3-1.1.6-2.1,1-3.2a1.51,1.51,0,0,0-.2-1.8,5.1,5.1,0,0,0-2.6-1.4c-1-.3-2.3.7-1.8,1.8,1.5,3.8-2.3,8.2,2.5,10.1,1.6.6,2.6-1.9,1.1-2.7s-3.8-2.7-5.5-2.6c-.7,0-1.2.5-1.9.8a3.23,3.23,0,0,0-3,1.2c-.3.3-.3.4.1,0,.3-1.3,3.8-3.1,4.7-4.6a86.81,86.81,0,0,0,4.5-9.8,25.12,25.12,0,0,1-2.7-.4c1,2.6-2.3,9.4-3.2,11.9,1,.3,1.9.5,2.9.8a6.22,6.22,0,0,1,2.3-4.5c-.8-.4-1.7-.7-2.5-1.1,0,.5-.1.9-.1,1.4a17.09,17.09,0,0,1,1.4,1.1l-1.5-.3c.8.4,1.7.7,2.5,1.1-1,.6-2.1,1.2-3.1,1.7a23.35,23.35,0,0,1,2.5.7c.1-.5.1-1,.2-1.5-.9-.4-1.8-.8-2.7-1.1-.5,2.4-3.4,3.4-5.3,4.4.7.6,1.5,1.1,2.2,1.7A13.32,13.32,0,0,1,128,87c-.8-.6-1.6-1.2-2.3-1.8-.6.8-1.2,1.7-1.8,2.5.9.4,1.8.8,2.7,1.1.2-.6.4-1.3.6-1.9.6-1.2-.7-3-2-2a8.34,8.34,0,0,1-1.2.8c.6.8,1.2,1.6,1.8,2.3a32.36,32.36,0,0,1,3.8-3.6c-.7-.3-1.5-.6-2.2-.9,0,1.1.1,2.2.1,3.4a1.5,1.5,0,0,0,2.9.8l1.2-2.4c1.2-1.5-.9-3.6-2.1-2.1a13.28,13.28,0,0,0-2,3.7c1,.3,1.9.5,2.9.8a12,12,0,0,0-.1-5,1.47,1.47,0,0,0-2.2-.9,27.89,27.89,0,0,0-4.4,4c-1.1,1.2.4,3.4,1.8,2.3a8.34,8.34,0,0,1,1.2-.8l-2-2a8,8,0,0,0-.9,2.6,1.47,1.47,0,0,0,2.7,1.1c.6-.8,1.2-1.7,1.8-2.5,1-1.3-1.3-3.1-2.3-1.8a20.17,20.17,0,0,0-3.5,6.2c-.5,1.3,1.1,2.3,2.2,1.7,3-1.6,5.9-2.5,6.6-6.1.3-1.5-1.9-2.8-2.7-1.1a4.64,4.64,0,0,0-.5,3.8,1.51,1.51,0,0,0,2.5.7c1.7-2.1,3.6-4.3.8-6.2a1.36,1.36,0,0,0-1.5,0c-.2.1-.4.3-.6.4a1.36,1.36,0,0,0-.7,1.3c0,.2.1.5.1.7.1,1.1,1.6,2.2,2.5,1.1,1.5-1.9,2.6-4.3.3-5.9a1.59,1.59,0,0,0-1.5,0,4.25,4.25,0,0,0-2.2,4.9,1.6,1.6,0,0,0,1.4,1.1c2.4.3,3.1-2.4,3.1-4.4a1.49,1.49,0,0,0-2.5-1.1,10.31,10.31,0,0,0-3.1,5.8,1.51,1.51,0,0,0,2.9.8c1.2-3.5,4.7-9.8,3.2-13.5-.4-1-2.1-1.7-2.7-.4-1.9,4.2-3.4,8.7-6.8,11.8-1.1,1.1-3.8,2.6-3.5,4.6.3,1.7,2.3,2.2,3.7,2.2a12.26,12.26,0,0,0,3.2-.7c2.4-.5,3.3,0,5.5,1.2.4-.9.8-1.8,1.1-2.7.5.2-.3-7.5-.4-8l-1.8,1.8c.4.2.8.4,1.3.6a11,11,0,0,1-.2-1.8,6.27,6.27,0,0,0-1.4,4.7,1.52,1.52,0,0,0,2.8.8c3-4.9,1.9-5.4-.8-10.7-.8-1.6-3-.4-2.7,1.1.2,1.1.4,2.1.6,3.2.8-.5,1.7-1,2.5-1.4-1.3-1.4,2-8.7,2.5-10.4a25.12,25.12,0,0,0-2.7.4,8.8,8.8,0,0,1,.5,1.5c.9-.4,1.8-.8,2.7-1.1a9,9,0,0,0-1.7-2.6c-1.1-1.4-3,.4-2.3,1.8a6.39,6.39,0,0,1,1,3.3h2.1l-.4-.4a1.28,1.28,0,0,0-1.4-.4l-.9.3a23.07,23.07,0,0,0,1.9,1.4c0-.4-1.6-7.6-2.7-6.6-.8-.5-1.7-1-2.5-1.4-.9,2.2.1,6.3,3.3,5.8,3.9-.5,1.9-6.3,1.1-8.3-.4-1.1-2.2-1.6-2.7-.4a9.16,9.16,0,0,0-.7,5.4c.2,1.6,2.4,1.2,2.9,0a9.21,9.21,0,0,0,.5-4c-.1-1.6-2.5-2.1-2.9-.4a20.82,20.82,0,0,0-.1,10.8c.4,1.7,2.8,1.2,2.9-.4a4,4,0,0,0-1-3.4c-1.5-1.9-3.7-1.5-2.6-4.6,1.1-2.9,2.3-4.5.1-7.5-1.1-1.5-3.6-.1-2.6,1.5.4,1.1.7,2.1,1.1,3.2a1.53,1.53,0,0,0,2.8.8c.5-.8,1-1.6,1.6-2.4-.9-.4-1.8-.8-2.7-1.1-.2.5-.3,1.1-.5,1.6,1,.3,1.9.5,2.9.8a9.74,9.74,0,0,1,1.5-4c-.9-.3-1.8-.5-2.8-.8-.1,1.2-.1,2.4-.2,3.6-.1,1.8,2.4,1.9,2.9.4.4-1.2.9-2.5,1.3-3.7-1-.1-1.9-.3-2.9-.4-.3.8-.5,1.7-.8,2.5a1.47,1.47,0,0,0,2.3,1.8c1.1-1.1,2.9-2.3,3-4,.1-2.6-2.8-6.4-3.9-8.5a1.51,1.51,0,0,0-2.8.8c0,2.1,0,4.2.2,6.3,1-.1,1.9-.3,2.9-.4a25.16,25.16,0,0,0-1.3-4.7,1.53,1.53,0,0,0-2.9,0,31.79,31.79,0,0,0-.9,8.7h3a59.72,59.72,0,0,0-1.4-9.3,1.51,1.51,0,0,0-2.9,0,28.42,28.42,0,0,0-.5,5.8,1.48,1.48,0,0,0,2.9.4c1.7-4.6,2.2-7,.8-11.5-.9-2.9-.6-6.2-3.2-8.2a1.47,1.47,0,0,0-2.3,1.8,34.45,34.45,0,0,0,4.7,7.8,1.47,1.47,0,0,0,2.5-1.1c-.5-6.4-4.2-6.5-9.9-7.7a1.43,1.43,0,0,0-1.8,1c-.3,1.8.4,2.1,1.6,3.3,1.9,1.8,3.6,4.4,5.9,5.7a1.51,1.51,0,0,0,2.2-1.7,5.37,5.37,0,0,0-2.2-3.8,1.51,1.51,0,0,0-2.5,1.4,5.45,5.45,0,0,0,2.1,3.9,1.51,1.51,0,0,0,2.5-.7c1.4-6.3-5.8-9.8-9.5-13.9-.6.8-1.2,1.6-1.8,2.3a23,23,0,0,1,6.6,6.2c1.2,1.5,3.3-.6,2.1-2.1a28.59,28.59,0,0,0-4.6-4.6,1.5,1.5,0,0,0-2.5,1.4,42,42,0,0,0,2.9,7.7c.8,1.7,3.3.2,2.6-1.5a49.74,49.74,0,0,0-3-5.6c-1-1.7-3.4-.2-2.6,1.5a40.18,40.18,0,0,0,2.4,4.6,1.5,1.5,0,0,0,2.6-1.5c-.7-1.3-1.5-2.6-2.3-3.8-.8.6-1.6,1.2-2.3,1.8a31.68,31.68,0,0,0,3.9,3.4c1.3,1,3.1-1.3,1.8-2.3a17.25,17.25,0,0,0-10-3.9c.4.8.7,1.7,1.1,2.5.2-.3,3.2.8,3.7,1a1.52,1.52,0,0,0,1.7-2.2c-2.1-3.3-5.8-5.6-7.6-9-.4.7-.9,1.5-1.3,2.2-.7-.1,1.5,5.7,1.8,6.1a11,11,0,0,0,.2-1.8c-.3.2-.6.5-.9.7a1.38,1.38,0,0,0-.2,1.8c1.6,2.2,3.5.7,5.8,1.9,1.2.6,3-.7,2-2-.4-.6-.9-1.2-1.3-1.8l-2,2a10.82,10.82,0,0,1,3.1,3.3c.5,1.7,3.1.2,2.1-1.4Z" transform="translate(-63.73 -25.74)"/><path class="cls-1" d="M70.6,54a29.31,29.31,0,0,0,.5-2.9c-.9-.3-1.8-.5-2.8-.8L68,53.6c1,.3,1.9.5,2.9.8a16.2,16.2,0,0,1,1.9-6c-.9-.4-1.8-.8-2.7-1.1-.3.9-.7,1.9-1,2.8.9.4,1.8.8,2.7,1.1.3-.9.6-1.8,1-2.7a17.1,17.1,0,0,0-1.4,1.1,2.45,2.45,0,0,0,2.3-1.3c-.9-.4-1.8-.8-2.7-1.1a8.35,8.35,0,0,0,.1,6.4,1.51,1.51,0,0,0,2.9-.8c-.1-.8-.1-1.6-.2-2.4h-3c.1,1.2.7,2.4.6,3.5-.3,2.1-2.9,4.8-4.2,6.3a23.35,23.35,0,0,1,2.5.7c-1.1-3.3-2.2-5.6-1.3-9.1s3-5.3,5.5-7.9c1.3-1.4-.8-3.5-2.1-2.1a15.24,15.24,0,0,0-4.6,13.1,1.48,1.48,0,0,0,2.9.4,5,5,0,0,0-.2-4.3c-.7-1.7-3-.4-2.7,1.1.6,3.7-.2,7.4-.8,11.1,1,.1,1.9.3,2.9.4,0-1.2,0-2.5.1-3.7,0-2-2.8-1.9-3,0a87,87,0,0,1-1.5,8.9c1,.1,1.9.3,2.9.4,0-.9.1-1.9.1-2.8.1-1.7-2.5-2-2.9-.4-1.2,4.7,1.8,8,2.6,12.5.3,1.7,2.9,1.3,2.9-.4,0-4.5-.1-9-.1-13.5,0-1.9-2.8-1.9-3,0a7.38,7.38,0,0,0,1,4.8,1.52,1.52,0,0,0,2.8-.8,7.6,7.6,0,0,0-.5-3.3c-.8.5-1.7,1-2.5,1.4a38.33,38.33,0,0,1,2.9,2.8l2.1-2.1c-1.6-1.6-2.9-2.8-2.7-5.4h-3c0,2.7,1.2,3.5,1.9,5.7s-1.1,5.3-1.2,8c0,3.3.4,6.8.7,10a4.31,4.31,0,0,0,.6,3.5,12.75,12.75,0,0,1,.1-1.9c1-2.4.7-6.1,1.4-8.8a25.12,25.12,0,0,0-2.7.4,47.5,47.5,0,0,0,3.1,5.9c.9,1.4,3.2.5,2.7-1.1a33.17,33.17,0,0,0-2.4-6.2A1.47,1.47,0,0,0,69,78.6a36,36,0,0,1,1.4,10.8,1.56,1.56,0,0,0,.7,1.3c3.4,1.6,7,4.2,10.1.9a1.46,1.46,0,0,0-.3-2.3C77.9,88,69.1,85,70.1,91c.3,1.7,2.9,1.2,2.9-.4a14.12,14.12,0,0,1,.4-4.6c-.6.3-1.2.7-1.8,1,1.2.3,2.1,1.7,2.9,2.6l2.1-2.1a54.62,54.62,0,0,1-3.8-4.4l-2,2,4.5,3c1.4,1,3-1.2,1.8-2.3-.8-.8-1.7-1.6-2.5-2.4a1.49,1.49,0,0,0-2.1,2.1,40,40,0,0,0,5.8,5.1c1.5,1.1,3-1.4,1.5-2.6a38,38,0,0,1-5.2-4.6l-2.1,2.1c.8.8,1.7,1.6,2.5,2.4.6-.8,1.2-1.6,1.8-2.3l-4.5-3c-1.2-.7-3,.8-2,2,1.3,1.7,2.7,3.4,4.2,5,1.4,1.4,3.3-.6,2.1-2.1s-2.3-2.9-4.2-3.4a1.51,1.51,0,0,0-1.8,1c-.7,1.6-.5,3.6-.5,5.4,1-.1,1.9-.3,2.9-.4-.1-.9,6.5,1.8,6.3,1.7-.1-.8-.2-1.6-.3-2.3-.5.5-4.5,0-5.2-.7-.9-1-.6-2.8-.7-4A31.61,31.61,0,0,0,71.7,78c-.9.4-1.8.8-2.7,1.1a28.3,28.3,0,0,1,2.1,5.5c.9-.4,1.8-.8,2.7-1.1a66.27,66.27,0,0,1-3.1-5.9c-.5-1.2-2.4-.8-2.7.4-.7,3.1-3.1,10.6-1,13.4,1.3,1.7,3.2,1.1,4.1-.6,2.3-4.3-.2-10.3,0-14.8.1-2.4,2-4.4,2.1-6.6.1-2.9-2.9-3.7-2.9-7.1,0-2-2.8-1.9-3,0-.3,3.2,1.4,5.4,3.5,7.5,1.4,1.3,3.5-.8,2.1-2.1-1-.9-1.9-1.9-2.9-2.8a1.5,1.5,0,0,0-2.5,1.4c.1.8.2,1.6.4,2.5.9-.3,1.8-.5,2.8-.8l-.6-3.3h-3c0,4.5.1,9,.1,13.5,1-.1,1.9-.3,2.9-.4-.6-3.6-3.6-7.1-2.6-10.9-1-.1-1.9-.3-2.9-.4,0,.9-.1,1.9-.1,2.8-.1,1.7,2.6,2.1,2.9.4.7-3.2,1.2-6.5,1.6-9.7H66c0,1.2,0,2.5-.1,3.7,0,1.6,2.7,2.1,2.9.4.6-4.3,1.5-8.4.8-12.6-.9.4-1.8.8-2.7,1.1a12.75,12.75,0,0,1-.1,2c1,.1,1.9.3,2.9.4a12.61,12.61,0,0,1,3.8-11l-2.1-2.1c-2.4,2.6-6.3,5.5-7.2,9s1.1,7.5,2.2,10.9a1.51,1.51,0,0,0,2.5.7c1.7-2,4-4.3,4.8-6.8.7-2-.1-2.7-.3-5-.2-1.9-3-2-3,0a17.33,17.33,0,0,0,.3,3.2c1-.3,1.9-.5,2.9-.8a5.3,5.3,0,0,1-.1-4.9c.6-1.7-1.8-2.5-2.7-1.1.1-.1.2-.1.3-.2A1.5,1.5,0,0,0,69.7,48c-.3.9-.6,1.8-1,2.7-.6,1.6,2,2.7,2.7,1.1a11.42,11.42,0,0,0,1.3-3.5c.4-1.6-2-2.7-2.7-1.1a22.92,22.92,0,0,0-2.2,6.7c-.3,1.8,2.5,2.7,2.9.8a14,14,0,0,0,.4-4.1c0-1.4-2.1-2.1-2.8-.8a9.47,9.47,0,0,0-1,4.4c.4,1.7,3.4,1.7,3.3-.2Z" transform="translate(-63.73 -25.74)"/><path class="cls-1" d="M74.7,86.2a13.2,13.2,0,0,1-4.6-6.5c-.3.2-.7.4-1,.6,1.1,1.2,2.2,2.4,3.2,3.7.4.6,1.2-.2.9-.7a33.76,33.76,0,0,0-2.4-4.1c-.3.2-.6.5-.9.7.8,1.1,1.7,2.1,2.5,3.2.4.5,1.3-.2.9-.7-.8-1.5-1.7-3-2.5-4.4-.3.2-.6.5-.9.7a7.35,7.35,0,0,1,1.6,1.9.58.58,0,1,0,1-.6,7.89,7.89,0,0,1-1.2-3c-.4.2-.7.3-1.1.5.4.5.7,1.1,1.1,1.6a.58.58,0,0,0,1-.6c-.2-.4-.5-.9-.7-1.3-.4-.7-1.3-.1-1,.6s.5,1.2.8,1.8c.3-.2.7-.4,1-.6A8.9,8.9,0,0,1,71,75.5c-.4.2-.7.3-1.1.5l1.5,2.7c.3.6,1.3.2,1.1-.5-.3-1.1-.1-.8-.8-1.7a.61.61,0,0,0-1.1.5,12.37,12.37,0,0,0,2.8,5.3c.5.6,1.3-.3.8-.8l-1.4-1.7c-.4-.5-1.3.2-.9.7a26.93,26.93,0,0,0,2,2.7c.2-.3.5-.6.7-.9-.3-.3-.7-.5-1-.8a.57.57,0,0,0-.8.8,20.94,20.94,0,0,0,2.4,2.8c.5.5,1.3-.3.8-.8l-2.1-2.4-.8.8c.7.7,1.4,1.5,2.1,2.2l.8-.8-1.4-1.4c-.3.2-.6.5-.9.7a57.36,57.36,0,0,0,7.9,7.7c.2-.4.3-.7.5-1.1-.6-.3-1.2-.5-1.9-.8s-1.1.8-.5,1.1,1.4.7,2.2,1.1c0-.4.1-.7.1-1.1-.3.1-.6.1-1,.2-.6.1-.5,1,0,1.1a4.18,4.18,0,0,1,1,.4c.1-.4.1-.8.2-1.2a2.49,2.49,0,0,0-2,.7.61.61,0,0,0,.5,1.1c2.6-.7,4.9,1.2,7.3,1.6.1-.4.1-.8.2-1.2a9.44,9.44,0,0,1-5.6-2.6c-.2.3-.4.7-.6,1,2,.8,4,1.6,5.9,2.4.7.3,1-.9.3-1.1-2-.8-4-1.6-5.9-2.4a.61.61,0,0,0-.6,1,11.87,11.87,0,0,0,6.5,3c.7.1.8-1.1.2-1.2-3.1-.5-4.7-2.5-8-1.6.2.4.3.7.5,1.1.5-.2.9-.4,1.4-.6a.62.62,0,0,0,.2-1.2,4.18,4.18,0,0,1-1-.4v1.1c.3-.1.6-.1,1-.2a.59.59,0,0,0,.1-1.1c-.7-.4-1.4-.7-2.2-1.1-.2.4-.3.7-.5,1.1.6.3,1.2.5,1.9.8s.9-.7.5-1.1a54.6,54.6,0,0,1-7.7-7.5c-.4-.5-1.3.2-.9.7a5.17,5.17,0,0,0,1.6,1.7c.6.5,1.4-.3.8-.8-.7-.7-1.4-1.5-2.1-2.2-.5-.6-1.3.3-.8.8L75.3,85l.8-.8a13.77,13.77,0,0,1-2.2-2.6l-.8.8c.3.3.7.5,1,.8.6.4,1.1-.5.7-.9A10.77,10.77,0,0,1,73,79.9c-.3.2-.6.5-.9.7l1.4,1.7.8-.8a12.59,12.59,0,0,1-2.5-4.7c-.4.2-.7.3-1.1.5.2.5.5,1,.7,1.4.4-.2.7-.3,1.1-.5L71,75.5c-.3-.6-1.3-.2-1.1.5a17.68,17.68,0,0,0,1.5,3.8c.4.7,1.3.1,1-.6s-.5-1.2-.8-1.8c-.3.2-.7.4-1,.6.2.4.5.9.7,1.3.3-.2.7-.4,1-.6-.4-.5-.7-1.1-1.1-1.6a.61.61,0,0,0-1.1.5,19.24,19.24,0,0,0,1.4,3.3c.3-.2.7-.4,1-.6a11.78,11.78,0,0,0-1.7-2.2.57.57,0,0,0-.9.7c.8,1.5,1.7,3,2.5,4.4.3-.2.6-.5.9-.7-.8-1.1-1.7-2.1-2.5-3.2-.4-.5-1.3.2-.9.7a33.76,33.76,0,0,1,2.4,4.1c.3-.2.6-.5.9-.7-1-1.3-2.1-2.5-3.2-3.7a.61.61,0,0,0-1,.6,13.44,13.44,0,0,0,4.9,7c.6.2,1.4-.7.8-1.1Z" transform="translate(-63.73 -25.74)"/><path class="cls-1" d="M121.2,90.2c-1.9-.3-3,1-4.8,1.5a32.07,32.07,0,0,0-5.3,1.5c-.6.3-.2,1.2.5,1.1a32.78,32.78,0,0,0,8.5-3.9.58.58,0,1,0-.6-1,10.71,10.71,0,0,0-2.2,1.5.61.61,0,0,0,.6,1,26.39,26.39,0,0,0,2.9-1.5,7.45,7.45,0,0,0,2-1c-.2-.3-.5-.6-.7-.9a30.92,30.92,0,0,1-3.9,3.3l.8.8.7-.7a.58.58,0,0,0-.6-1c-2,.9-2.7,2.8-5.3,2.4a3.55,3.55,0,0,0,.4.9c.2-.3,2.3-.6,2.7-.8.6-.2,2.2-1.5.9-.9-.7.3-.1,1.3.6,1a5.43,5.43,0,0,0,1.5-.9.73.73,0,0,0,.2-.6c-.3-1-1.1-.9-1.9-.5a14.91,14.91,0,0,1-3.7,1.4c-.7.2-.9.1-1.3.7a.63.63,0,0,0,.4.9,5,5,0,0,0,3.2-.1c1.2-.6,1.7-1.9,3-2.4-.2-.3-.4-.7-.6-1a2.91,2.91,0,0,0-1.1,1.1c-.4.5.3,1.1.8.8a27.86,27.86,0,0,0,4.2-3.5c.5-.5-.2-1.4-.7-.9a4.15,4.15,0,0,1-1.3.7h-.5c-1,.4-1.7,1.3-2.8,1.6.2.3.4.7.6,1a5.86,5.86,0,0,1,1.9-1.3c-.2-.3-.4-.7-.6-1a29.06,29.06,0,0,1-8.2,3.8c.2.4.3.7.5,1.1a25.16,25.16,0,0,1,4.7-1.3c1.2-.3,3.3-1.8,4.5-1.6.4,0,.8-1.1,0-1.3Z" transform="translate(-63.73 -25.74)"/><path class="cls-1" d="M133.9,84.6c-.1-.4-.1-.8-.2-1.2-.3.2-.7.4-1,.6a2.07,2.07,0,0,1,.6,1c.4-.1.8-.2,1.1-.3a1.42,1.42,0,0,1-.2-.6c-.1.1-.1.3-.2.4-.4-.1-.5,0-.3.2,0,.1.1.2.1.3a1.45,1.45,0,0,1,.2.7l.7-.7c-.2-.1-.2-.3-.4-.1s-.1.2-.1.5c.1-.2.3-.4.4-.6.1.1.1.1,0,.2a.31.31,0,0,1-.2.1l-.6.3a1.09,1.09,0,0,0-.4,1.2c.1.8,1.3.4,1.1-.3,0,.1.9-.5.9-.5a1.14,1.14,0,0,0,.3-.8,1.16,1.16,0,0,0-1.2-1.2,1.13,1.13,0,0,0-1.1,1.2,1.09,1.09,0,0,0,1.4.9.49.49,0,0,0,.4-.6,1.54,1.54,0,0,0-.5-1.3.91.91,0,0,0-1.2-.1,1,1,0,0,0-.4,1.2,1.82,1.82,0,0,0,1.1,1,.54.54,0,0,0,.7-.7c-.2-.7-.4-1.9-1.3-2a.91.91,0,0,0-.8.4c-.2.4,0,.8.1,1.2a.57.57,0,0,0,1.1-.3,2.37,2.37,0,0,0-.9-1.5.61.61,0,0,0-1,.6c.1.4.1.8.2,1.2.5.7,1.7.3,1.6-.4Z" transform="translate(-63.73 -25.74)"/><path class="cls-1" d="M70.5,56.7c-.2.3-.4.7-.6,1,.3.2.7.4,1,.6.9-1.5-.2-3.2.3-4.7a.57.57,0,0,0-1.1-.3,4.18,4.18,0,0,1-.4,1l1-.3v-.1c0,.2.1.5.1.7s-.2.1-.2.2c-.2-.1-.4-.1-.6-.2s-.1-.2-.1,0a.9.9,0,0,1-.1.5c-.1.3-.3.6-.4.9l1.1.3a1.08,1.08,0,0,1,.3-.7.58.58,0,0,0-1-.6,2,2,0,0,0-.4,1.3c-.1.6.8.7,1.1.3.5-.7,1.1-2,.4-2.8-.1-.2-.4-.2-.6-.2a1,1,0,0,0-.5.4.59.59,0,0,0,.1.7v.1c.3.3.8.1,1-.3a4.18,4.18,0,0,1,.4-1c-.4-.1-.8-.2-1.1-.3-.5,1.4.5,3.1-.2,4.5a.58.58,0,1,0,1,.6c.2-.3.4-.7.6-1a.63.63,0,0,0-1.1-.6Z" transform="translate(-63.73 -25.74)"/><path class="cls-1" d="M100.6,31.4a7.08,7.08,0,0,1-2.9,0c.1.3.2.7.3,1a2.41,2.41,0,0,1,1.8-.7c-.2-.3-.3-.6-.5-.9-.1.2-.2.3-.3.5a.59.59,0,0,0,.8.8c.6-.4,1.2-.7,1.8-1.1s.1-1.3-.6-1a6.71,6.71,0,0,1-2.8.6c.2.3.3.6.5.9a1.16,1.16,0,0,1,.7-.5l-.7-.7a.1.1,0,0,1,.1-.1,5.5,5.5,0,0,0,.7.9c.1,0,.1-.1.2-.1-.2-.3-.4-.7-.6-1a.81.81,0,0,1-.8.4l.6.6h0c.7-.2.4-1.4-.3-1.1a1.29,1.29,0,0,0-.9,1.2.65.65,0,0,0,.6.6,2,2,0,0,0,1.6-.7.61.61,0,0,0-.6-1,1.46,1.46,0,0,0-.9.6c-.3.4.2,1,.7.9a1.12,1.12,0,0,0,.8-.7.54.54,0,0,0-.7-.7,2.81,2.81,0,0,0-1.4,1,.59.59,0,0,0,.5.9,9.83,9.83,0,0,0,3.4-.7c-.2-.3-.4-.7-.6-1-.6.4-1.2.7-1.8,1.1l.8.8c.1-.2.2-.3.3-.5a.59.59,0,0,0-.5-.9,3.39,3.39,0,0,0-2.7,1,.6.6,0,0,0,.3,1,6.92,6.92,0,0,0,3.5,0c.7-.4.4-1.6-.4-1.4Z" transform="translate(-63.73 -25.74)"/><path class="cls-2" d="M69.7,88.8c-.5-.9.5-2.2.6-3.2a13.58,13.58,0,0,0-.3-2.9c-.4-2.4-.6-4.8-1.6-7-.3-.7-1.3-.1-1,.6a22.58,22.58,0,0,1,1.7,8.1c.1,1.9-1.3,3.3-.4,5a.58.58,0,1,0,1-.6Z" transform="translate(-63.73 -25.74)"/><path class="cls-2" d="M68.7,60.5c-1.1-4-2-7.9.3-11.7,1.5-2.5,3.4-4.8,5.1-7.1.5-.6-.6-1.2-1-.6C71,44,68,47,66.8,50.5s-.2,7,.7,10.3a.62.62,0,0,0,1.2-.3Z" transform="translate(-63.73 -25.74)"/><path class="cls-2" d="M82.5,40.9c2.9-4.5,9.9-.9,14.2-2.1.7-.2.4-1.4-.3-1.1-4.8,1.4-11.5-2.6-14.9,2.6-.5.7.6,1.3,1,.6Z" transform="translate(-63.73 -25.74)"/><path class="cls-2" d="M98.6,30.4a.72.72,0,0,0,.8.2.43.43,0,0,0,.4-.4.83.83,0,0,0-.2-.8l-.8.8a5,5,0,0,0,1.9,1c.7.2,1.1-1,.3-1.1a2.92,2.92,0,0,0-.9-.2c-.1.4-.2.8-.3,1.1a.91.91,0,0,1,.7.3c.2-.4.3-.7.5-1.1-.2-.1-.4-.1-.6-.2a.62.62,0,0,0-.7.9,4.1,4.1,0,0,0,1.6,1.6c0-.4.1-.7.1-1.1h-.2a.59.59,0,0,0-.9.5,1.2,1.2,0,0,0,.2.8,5.5,5.5,0,0,1,.7-.9c-.3-.1-.5-.2-.8-.3a.54.54,0,0,0-.7.7,2.3,2.3,0,0,0,1.7,1.6c-.1-.2-.3-.4-.4-.6.1,1.1,1.2,2.3,2.1,1h-1c.1.2.2.5.3.7.2.5,1,.3,1.1-.1.1-.7.5-1.6-.1-2.1s-1.1-.1-1.6.3c.3.2.7.4,1,.6.2-.8,1-2.5.1-3.2-.6-.5-1.3,0-1.4.7.3-.2.6-.3.9-.5l.1.1c.1-.4-.2-.7-.6-.8-.1-.1-.2-.3-.3-.4.1-.6-.7-1.1-1.1-.5h.1a.58.58,0,0,0-1-.6,1.13,1.13,0,1,0,1.9,1.2c-.4-.2-.7-.3-1.1-.5a1.52,1.52,0,0,0,1.4,1.9c-.2-.3-.4-.5-.6-.8a1,1,0,0,0,.4,1.2c.4.3.8-.1.9-.5v-.2c-.1.2-.2.3-.3.5-.1,0-.2.1-.3.1-.1.2-.1.4-.2.6-.1.4-.2.7-.3,1.1-.2.6.5.9,1,.6-.2.1-.2.4-.2.7.4,0,.7-.1,1.1-.1-.1-.2-.2-.5-.3-.7-.2-.5-.8-.3-1,0a.6.6,0,0,1,.1-.4.68.68,0,0,0-.4-.6,1.09,1.09,0,0,1-.8-.8l-.7.7c.3.1.5.2.8.3.5.2.9-.5.7-.9v-.2c-.3.2-.6.3-.9.5a1.1,1.1,0,0,0,1.1.1.59.59,0,0,0,.1-1.1,4.56,4.56,0,0,1-1.2-1.2,5.5,5.5,0,0,1-.7.9c.2.1.4.1.6.2a.61.61,0,0,0,.5-1.1,3,3,0,0,0-1-.4c-.7-.2-1.1,1-.3,1.1a2.92,2.92,0,0,0,.9.2c.1-.4.2-.8.3-1.1a2.35,2.35,0,0,1-1.4-.7c-.6-.5-1.4.3-.8.8l.1.1c-.1-.2-.1-.4-.2-.6v.1l.4-.4h-.1c.2.1.4.1.6.2l-.1-.1c-.7-.1-1.5.8-1,1.3Z" transform="translate(-63.73 -25.74)"/><path class="cls-2" d="M130.9,71.5c-1.9-.8-.8-4.1-.3-5.4a7.45,7.45,0,0,0,.6-3.3c-.2-2-1.6-3.5-2.8-5-.5-.6-1.4.3-.8.8,1.7,1.9,3,3.7,2.2,6.4a12,12,0,0,0-1,3.7c-.1,1.6.3,3.3,1.9,3.9.6.4.9-.8.2-1.1Z" transform="translate(-63.73 -25.74)"/><path class="cls-2" d="M112.9,33.9c2.3-2.5,4.8,1.4,6.2,2.9a5.37,5.37,0,0,0,3.7,1.9c.8.1.8-1.1,0-1.2-3.4-.4-6.7-8.9-10.7-4.5-.5.7.3,1.5.8.9Z" transform="translate(-63.73 -25.74)"/><path class="cls-2" d="M131.1,90.4a4.74,4.74,0,0,1-1.2-2.8c-.1-1.1.6-1.7,1.1-2.6a2.94,2.94,0,0,0-.1-3c-.3-.7-1.4-.4-1.1.3.5,1.2-.1,2-.5,3.1a4.92,4.92,0,0,0-.5,2,6.43,6.43,0,0,0,1.6,3.9c.3.6,1.2-.3.7-.9Z" transform="translate(-63.73 -25.74)"/><path d="M68.5,93.4c2-2.1,4.8-1.2,6.9.2a.58.58,0,1,0,.6-1c-2.6-1.7-6-2.5-8.3,0a.57.57,0,1,0,.8.8Z" transform="translate(-63.73 -25.74)"/><path d="M99.3,27.3a13.82,13.82,0,0,0-9.2.1,55.69,55.69,0,0,1-7.9,2.5,11.08,11.08,0,0,0-4.1,1.4c-3.1,1.9-3.7,5.4-5.7,8.2-2.5,3.5-6.7,5.8-8.2,10-1.2,3.4.4,6.3.8,9.7.5,4.4-2.1,7.9-1,12.3,1.1,4.6,3.6,8,2.2,12.9-1,3.5-1,5.3,1.3,8.3.5.6,1.5,0,1-.6-3.1-4.2-.5-6.7-.4-10.7.1-2.5-1-4.8-1.9-7.1A16.8,16.8,0,0,1,65,70.5c-.5-3.4.6-3.9,1.3-6.8.6-2.5-.1-4.7-.7-7.2-1.5-6.7,1.5-9.5,5.7-13.8,2-2.1,2.8-4,4.3-6.5a9.48,9.48,0,0,1,5.5-4.9c1.5-.5,3.2-.3,4.7-.8,4.7-1.4,8.1-3.7,13.3-2.1.6.3.9-.9.2-1.1Z" transform="translate(-63.73 -25.74)"/><path d="M75.3,93.7c2.1,1.5,4.4.4,6.3-.8a.58.58,0,1,0-.6-1c-1.5.9-3.4,2-5.1.8-.6-.4-1.2.6-.6,1Z" transform="translate(-63.73 -25.74)"/><path d="M81.8,93c2.3-1.3,3.5,1.9,5.7,1.9a.6.6,0,1,0,0-1.2c-1.4,0-2.1-1.5-3.3-2a3.41,3.41,0,0,0-3.1.2c-.6.4,0,1.5.7,1.1Z" transform="translate(-63.73 -25.74)"/><path d="M87.3,94.9a2.44,2.44,0,0,0,2.3-.6c.6-.5-.2-1.3-.8-.8a1.31,1.31,0,0,1-1.2.3.57.57,0,0,0-.3,1.1Z" transform="translate(-63.73 -25.74)"/><path d="M99.1,39.5c-1.2,2.4-3.2,2-5.3,1.6a34.08,34.08,0,0,0-4.6-.5.6.6,0,1,0,0,1.2c3.6.2,8.8,2.6,10.9-1.7.4-.6-.6-1.3-1-.6Z" transform="translate(-63.73 -25.74)"/><path d="M99.1,28c4.9-2.9,6.9,1,11,1.8a21.66,21.66,0,0,0,3.6.1,8.33,8.33,0,0,1,6.2,1.7,17.26,17.26,0,0,1,1.7,3.3,6.25,6.25,0,0,0,3,3c1.9,1.1,3.9,1.5,5.4,3.3,2.1,2.5,2.5,5.6,2.4,8.8a.6.6,0,1,0,1.2,0c.1-3.9-.5-7.9-3.5-10.7-1.2-1.1-2.5-1.3-3.8-2.1-3.6-2.3-3.3-4.6-6-6.8a6.93,6.93,0,0,0-3.2-1.6c-3.6-.9-5.8.3-9.6-1.5-3.3-1.5-5.5-2.4-9-.4-.6.5,0,1.5.6,1.1Z" transform="translate(-63.73 -25.74)"/><path d="M132.2,49.8a7.09,7.09,0,0,0,.8,4.7c1.2,2.5,3.9,5.8,1.1,8.2-.6.5.3,1.4.8.8,4.6-4-2.4-9-1.6-13.4.2-.8-1-1.1-1.1-.3Z" transform="translate(-63.73 -25.74)"/><path d="M134.8,62.5a2.72,2.72,0,0,0-2.1,3.4,8.19,8.19,0,0,0,1.8,3.3c1.5,2.4,1.6,4.4-.1,6.8-.5.6.6,1.2,1,.6,1.1-1.6,2.1-3.1,1.5-5.1-.4-1.5-5.2-7.2-1.9-7.9a.57.57,0,1,0-.2-1.1Z" transform="translate(-63.73 -25.74)"/><path d="M134.2,75.9a2.62,2.62,0,0,0-2,3.1,5.44,5.44,0,0,0,2.3,3.6c.6.4,1.2-.6.6-1-1.4-1-2.8-3.7-.6-4.5.8-.3.4-1.5-.3-1.2Z" transform="translate(-63.73 -25.74)"/><path d="M134.1,82.4c.5.7,1.2,1.5,1.1,2.4-.1,1.5-.9,1.4-1.7,2a3.09,3.09,0,0,0-1.1,1.6c-.6,1.8.3,3.4,1.5,4.7.5.6,1.4-.3.8-.8-1.7-1.8-1.7-3.3.3-5a5.73,5.73,0,0,0,1.1-1.1c.7-1.5-.1-3.1-1-4.3-.4-.7-1.4-.1-1,.5Z" transform="translate(-63.73 -25.74)"/><path d="M134.1,93a3.92,3.92,0,0,1-3.5.2c-.9-.3-1.4-1.2-2.3-1.6-1.3-.5-2.8.5-4,1.1-.7.3-.1,1.4.6,1,1.5-.7,2.4-1,4.1-.1a8.87,8.87,0,0,0,1.7.8,5.11,5.11,0,0,0,4-.5c.7-.2.1-1.2-.6-.9Z" transform="translate(-63.73 -25.74)"/><path d="M123.9,92.8c-.8-.1-1.6.2-2.4.1s-1.3-.5-2-.6a2.87,2.87,0,0,0-2.8,1.2c-.5.6.3,1.4.8.8,1.1-1.3,2-.8,3.4-.4,1,.3,1.9-.1,2.9,0s.9-1,.1-1.1Z" transform="translate(-63.73 -25.74)"/><path d="M116.6,93.8c-.6.1-1.1.5-1.7.5a7,7,0,0,1-1.9-.6,2.16,2.16,0,0,0-2.2.5c-.5.6.3,1.4.8.8.7-.8,2.1.3,2.8.4a6.44,6.44,0,0,0,2.4-.5.56.56,0,1,0-.2-1.1Z" transform="translate(-63.73 -25.74)"/><path d="M127.9,72.2c-3.7-2.5.3-5.5.6-8.5a5.26,5.26,0,0,0-1.8-4.5c-.6-.5-1.4.3-.8.8,3.3,3.1-.3,5.5-.8,8.7a4.39,4.39,0,0,0,2.2,4.4c.6.6,1.2-.5.6-.9Z" transform="translate(-63.73 -25.74)"/><path d="M126.7,59.5c-1.2-2.6.4-5.2-.7-7.7-.8-1.7-2.6-2.6-4-3.6-.6-.5-1.2.6-.6,1,.8.6,1.6,1.1,2.4,1.7,1.4,1.2,1.4,2.6,1.2,4.4a7.58,7.58,0,0,0,.7,4.7c.3.8,1.3.2,1-.5Z" transform="translate(-63.73 -25.74)"/><path d="M122,48.3a8.19,8.19,0,0,1-2.7-3.4,3.39,3.39,0,0,0-1.4-1.5,7,7,0,0,0-1.9-.6c-2.1-.4-3.5-.4-4.9-2.3-.5-.6-1.5,0-1,.6a6.65,6.65,0,0,0,5.1,2.8c1.7.2,2.2.5,3.2,2.1.3.5.4.9.7,1.3a11,11,0,0,0,2.3,2c.6.5,1.2-.6.6-1Z" transform="translate(-63.73 -25.74)"/><path d="M110.8,40.9a2.44,2.44,0,0,0-1.8-2.2c-1.8-.7-4.1.2-4.9-2.1-.3-.7-1.4-.4-1.2.3a4.12,4.12,0,0,0,2.1,2.4c1.1.5,4.4-.1,4.6,1.6a.6.6,0,0,0,1.2,0Z" transform="translate(-63.73 -25.74)"/><path d="M100.1,40.2a3,3,0,0,1,2.6-1.7.6.6,0,1,0,0-1.2A4.3,4.3,0,0,0,99,39.6c-.3.6.7,1.2,1.1.6Z" transform="translate(-63.73 -25.74)"/><path d="M104.4,37.7l-.1-.1c-.5-.5-1.4.3-.8.8l.1.1c.5.6,1.4-.3.8-.8Z" transform="translate(-63.73 -25.74)"/><path d="M127.3,73.7c1.2.4,2.7,1.3,2.3,2.7-.2.7,1,1.1,1.2.3.5-2.2-1.3-3.6-3.2-4.2-.7-.3-1.1.9-.3,1.2Z" transform="translate(-63.73 -25.74)"/><path d="M89.8,40.6a6.74,6.74,0,0,0-6.3.8,9.14,9.14,0,0,0-2,2.4A5.77,5.77,0,0,1,78.8,46c-.9.3-1.9.3-2.8.6-.7.2-.4,1.4.3,1.2,1.9-.5,4.2-.4,5.6-2,.5-.6.6-1.3,1.1-1.9A5.61,5.61,0,0,1,89.6,42a.75.75,0,0,0,.2-1.4Z" transform="translate(-63.73 -25.74)"/><path d="M76.6,46.4c-1.9.2-4.1,1.2-3.9,3.5a6.61,6.61,0,0,0,.5,1.5,5.23,5.23,0,0,1-.2,5c-.9,1.4-2,2.4-2.6,4-.3.7.9,1,1.2.3.8-2.1,2.9-3.4,3.3-5.7a5,5,0,0,0,0-2.1c-.1-.5-.3-.9-.4-1.3-.1-.1-.1-.3-.2-.4-.8-1.3,0-2.5,2.2-3.5.9-.2.9-1.4.1-1.3Z" transform="translate(-63.73 -25.74)"/><path d="M70.2,60.2a6.54,6.54,0,0,0-.5,3.9c.4,1.3,1.7,1.7,2.4,2.8,1.9,3-1.6,5-2.1,7.6a6,6,0,0,0,.9,3.9.58.58,0,1,0,1-.6c-2.7-4.3,3-6.2,1.9-10.1a5.37,5.37,0,0,0-1-1.6c-1.5-1.8-2.3-3.2-1.6-5.6.4-.7-.8-1.1-1-.3Z" transform="translate(-63.73 -25.74)"/></svg>