<svg id="Layer_1" data-name="Layer 1" xmlns="http://www.w3.org/2000/svg" viewBox="0 0 73.35 69.67"><defs><style>.cls-1{fill:#602f13;}.cls-2{fill:#613515;}</style></defs><title>Brown</title><path class="cls-1" d="M79.9,92c.8-.1,1.6-.1,2.4-.2-.2-.3-.3-.6-.5-.9-.3.5-1.6.3-2.1.5a.57.57,0,1,0,.3,1.1,2.73,2.73,0,0,0,1.2-.6c.4-.4.5-1.3,1.3-.9,0-.4.1-.7.1-1.1a2.25,2.25,0,0,1-1.4.1.57.57,0,1,0-.3,1.1,20.11,20.11,0,0,1,4.4,2.2c.6.4,1.2-.6.6-1A22,22,0,0,0,81.3,90c-.1.4-.2.8-.3,1.1a4.52,4.52,0,0,0,2-.1.59.59,0,0,0,.1-1.1,1.94,1.94,0,0,0-1.8-.3c-.8.3-.7,1.5-1.5,1.7.1.4.2.8.3,1.1,1.1-.3,2.2.1,2.9-1a.63.63,0,0,0-.5-.9c-.8.1-1.6.1-2.4.2-1,.2-1,1.4-.2,1.3Z" transform="translate(-63.73 -25.74)"/><path class="cls-1" d="M74.2,85.9a12.25,12.25,0,0,1-2.4-3.1c-.3.2-.7.4-1,.6.7,1,1.4,1.9,2,2.9l.8-.8c-.5-.5-.9-1-1.4-1.5-.3.2-.6.5-.9.7l2.1,2.4a.57.57,0,0,0,.9-.7c-.6-1.2-1.3-2.5-1.9-3.7-.3.2-.7.4-1,.6.5.7,1,1.5,1.6,2.2a.58.58,0,0,0,1-.6,18.93,18.93,0,0,1-1.7-3.5c-.4.2-.7.3-1.1.5.5.9,1,1.7,1.5,2.6a.58.58,0,1,0,1-.6c-.6-1.1-1.1-2.3-1.7-3.4-.3.2-.7.4-1,.6l1.8,2.4c.3-.2.7-.4,1-.6A10.24,10.24,0,0,1,72.2,80c-.4.2-.7.3-1.1.5a15.1,15.1,0,0,0,1.8,2.6.57.57,0,0,0,.9-.7c-1-2.2-2-4.4-2.8-6.6-.4.2-.7.3-1.1.5.5,1,1.1,2.1,1.6,3.1.3-.2.7-.4,1-.6a11.08,11.08,0,0,1-1.4-2.9.61.61,0,0,0-1.2.2,10.76,10.76,0,0,0,1.3,4.3c.3.6,1.2.2,1.1-.5a12.34,12.34,0,0,0-1.2-3.7c-.3.2-.7.4-1,.6a4.23,4.23,0,0,1,.5.7c.3.4,1.2.4,1.1-.3a7.79,7.79,0,0,0-.4-2.1.57.57,0,0,0-1.1.3A57.57,57.57,0,0,0,72,81.3c.3.7,1.4.4,1.1-.3a13.32,13.32,0,0,1-.5-1.9c-.4.2-.7.3-1.1.5a16.18,16.18,0,0,0,1,1.8c.4-.2.7-.3,1.1-.5a5.67,5.67,0,0,1-.8-1.3c-.3.2-.7.4-1,.6a7.46,7.46,0,0,1,.7,1.2c.2.5,1,.3,1.1-.1v-.1a.57.57,0,0,0-.4-.7c-.1,0-.1,0-.2-.1a.57.57,0,0,0-.7.4c-.4,1.3,1.3,3.6,1.8,4.7.3-.2.6-.5.9-.7-.3-.4-.7-.8-1-1.2-.3.2-.6.5-.9.7a10.77,10.77,0,0,1,1.8,2.4c.3-.2.7-.4,1-.6A12,12,0,0,1,74.1,83c-.3.2-.7.4-1,.6a12.39,12.39,0,0,1,1.8,2.2.58.58,0,0,0,1-.6c-.5-1-1-1.9-1.5-2.9-.3.2-.6.5-.9.7.4.5.7,1,1.1,1.5.3-.2.6-.5.9-.7A10.8,10.8,0,0,1,73.1,81c-.4-.6-1.4,0-1,.6A66.46,66.46,0,0,1,76.2,89c.3-.2.7-.4,1-.6-1.2-2-2.3-4.1-3.3-6.2-.3.2-.6.5-.9.7l.5.5.8-.8a8.74,8.74,0,0,0-1-.8c-.4-.3-1.2,0-1,.6.4,1.3.9,2.6,1.3,3.8l.7-.7c-.1-.1-.3-.2-.4-.3-.3.2-.6.5-.9.7.4,1,.2,1.2-.5.7-.4-.2-1.1.1-.9.7.1.3.3.5.4.8l-.7.7c.1-.2.3-.3.4-.5a5.5,5.5,0,0,1-.7.9l1.5,1.2a.6.6,0,0,0,1-.6c-.3-1-.6-1.9-.8-2.9-.3.2-.7.4-1,.6.9.8,1.8,1.6,2.8,2.4a.57.57,0,0,0,.9-.7q-1.2-2.7-2.1-5.4c-.3.2-.7.4-1,.6.9,1,1.8,1.9,2.7,2.9a.61.61,0,0,0,1-.6c-.5-1.3-1-2.6-1.6-3.8l-.8.8a5.72,5.72,0,0,1,.8.7c.2-.3.5-.6.7-.9A4.48,4.48,0,0,1,72.9,81c-.3.2-.7.4-1,.6.4.5.8,1,1.2,1.6s1.4.2,1.1-.5c-.2-.4-.3-.8-.5-1.2-.3.2-.7.4-1,.6.2.3.4.5.6.8.3-.2.7-.4,1-.6a4.23,4.23,0,0,1-.5-.7.58.58,0,0,0-1,.6L75.5,87a5.5,5.5,0,0,1,.7-.9,5.94,5.94,0,0,1-.8-.4c-.5-.4-1.3.1-.9.7L76,88.8c.3.5,1.3.2,1.1-.5-.4-1.1-.9-2.2-1.3-3.3-.3.2-.7.4-1,.6a15.1,15.1,0,0,1,1.8,2.6c.3-.2.7-.4,1-.6A21,21,0,0,1,76.3,85c-.3.2-.7.4-1,.6.5.8.9,1.5,1.3,2.3.3-.2.7-.4,1-.6a6.38,6.38,0,0,1-.8-1.4c-.3.2-.6.5-.9.7a14.7,14.7,0,0,1,1,1.3l.8-.8c-.3-.3-.6-.5-.9-.8a.61.61,0,0,0-1,.6,20.59,20.59,0,0,0,1.7,3.3c.3-.2.6-.5.9-.7a2.18,2.18,0,0,1-.5-.4.57.57,0,1,0-.8.8c.4.5.9,1,1.3,1.5s1.3-.2.9-.7c-.7-1.1-1.4-2.1-2.1-3.2-.3.2-.7.4-1,.6.6.8,1.2,1.6,1.7,2.4a5.5,5.5,0,0,1,.7-.9,57.7,57.7,0,0,0-5.8-2.2c-.4-.1-1.5-.2-1.8-.3,0,0-4.6,1.3-2.1-1.6l-.8-.8a6.38,6.38,0,0,0-1.5,2.8c.4.1.8.2,1.1.3a11.52,11.52,0,0,1,1.4-3.2.57.57,0,0,0-.9-.7c-2.8,2.5-.6,4.2,2.3,3.7.2,0,.5-.7.6-.6.4,0,2.2,2.3,2.5,2.6a6.48,6.48,0,0,0,2,1.7A1.35,1.35,0,0,0,77.5,90c-.3.1-.7.3-1,.4a14.48,14.48,0,0,0,1.8,1.7c.5.4,1.3-.1.9-.7-.8-1.3-1.6-2.6-2.3-3.9l-.8.8a6.34,6.34,0,0,1,2.3,1.6l.8-.8a18.78,18.78,0,0,1-2.5-2.4c-.2.3-.5.6-.7.9A16.09,16.09,0,0,1,79.4,90c.6.5,1.4-.3.8-.8a38.33,38.33,0,0,1-2.9-2.8c-.2.3-.5.6-.7.9L78,88.4c.2-.3.5-.6.7-.9A6.48,6.48,0,0,1,77,85.9l-.8.8A43.54,43.54,0,0,1,79.4,91c.3-.2.6-.5.9-.7-.3-.3-.6-.5-.9-.8-.2.3-.5.6-.7.9V90c-.6.3-.2,1,.3,1.1a2.18,2.18,0,0,0,.4.5c.3-.2.7-.4,1-.6a8.74,8.74,0,0,1-.8-1c-.2.3-.5.6-.7.9a6.47,6.47,0,0,1,.8.9l.8-.8c-.2-.3-.5-.5-.7-.8a.58.58,0,1,0-1,.6c.4.7.4.7,1.2,1.2a.59.59,0,0,0,.8-.8,2.74,2.74,0,0,0-1.3-1.3c-.6-.4-1.1.4-.7.9a8.74,8.74,0,0,1,.8,1c.4.5,1.1-.1,1-.6-.1-1-.6-1.3-1.6-1.4.1.4.2.7.3,1.1a.85.85,0,0,0,0-1.6c-.5-.4-1.2.5-.7.9.3.3.6.5.9.8.5.4,1.3-.1.9-.7-1.1-1.6-2.2-3.1-3.4-4.6-.5-.6-1.3.3-.8.8a16.18,16.18,0,0,0,1.9,1.8.57.57,0,0,0,.7-.9,6.53,6.53,0,0,0-1.6-1.3.57.57,0,0,0-.7.9,38.33,38.33,0,0,0,2.9,2.8l.8-.8a16.39,16.39,0,0,0-3.7-2.6.57.57,0,0,0-.7.9,28.34,28.34,0,0,0,2.5,2.4c.6.5,1.4-.3.8-.8a9.31,9.31,0,0,0-2.6-1.8.59.59,0,0,0-.8.8c.8,1.3,1.6,2.6,2.3,3.9.3-.2.6-.5.9-.7-.6-.6-1.2-1.1-1.8-1.7a.58.58,0,0,0-1,.4c0,.4-3-2.3-3.2-2.6a9,9,0,0,0-1.8-1.6.64.64,0,0,0-.6,0c-.9.6-3.4.7-1.7-.9-.3-.2-.6-.5-.9-.7a10.91,10.91,0,0,0-1.5,3.5.57.57,0,0,0,1.1.3c.4-.8.8-1.5,1.2-2.3.5-.6-.3-1.4-.8-.8-1,1.1-1.2,2.7.2,3.6.9.6,1.3.2,2.2.2,2.8,0,5.3,1.3,7.8,2.3a.62.62,0,0,0,.7-.9c-.6-.8-1.2-1.6-1.7-2.4a.58.58,0,0,0-1,.6c.7,1.1,1.4,2.1,2.1,3.2.3-.2.6-.5.9-.7-.4-.5-.9-1-1.3-1.5l-.8.8a2.18,2.18,0,0,1,.5.4c.5.4,1.3-.1.9-.7a16.81,16.81,0,0,1-1.5-3c-.3.2-.7.4-1,.6.3.3.6.5.9.8a.57.57,0,0,0,.8-.8,14.7,14.7,0,0,1-1-1.3c-.5-.6-1.2.2-.9.7a3.92,3.92,0,0,0,.8,1.4.58.58,0,0,0,1-.6c-.4-.8-.8-1.5-1.3-2.3s-1.3-.1-1,.6c.4.9.8,1.7,1.3,2.6a.58.58,0,1,0,1-.6,27.5,27.5,0,0,0-1.9-2.8.6.6,0,0,0-1,.6c.4,1.1.9,2.2,1.3,3.3.4-.2.7-.3,1.1-.5l-1.5-2.4c-.3.2-.6.5-.9.7a2.35,2.35,0,0,0,1.4.7.64.64,0,0,0,.7-.9L74,81.6c-.3.2-.7.4-1,.6a4.23,4.23,0,0,1,.5.7.58.58,0,0,0,1-.6,3.92,3.92,0,0,0-.8-1,.61.61,0,0,0-1,.6c.2.4.3.8.5,1.2.4-.2.7-.3,1.1-.5-.4-.5-.8-1-1.2-1.6s-1.4-.1-1,.6a6.36,6.36,0,0,0,2.6,3c.6.4,1.1-.4.7-.9a2.44,2.44,0,0,0-1.1-.9.59.59,0,0,0-.8.8A22.77,22.77,0,0,1,75,87.2c.3-.2.7-.4,1-.6-.9-1-1.8-1.9-2.7-2.9a.61.61,0,0,0-1,.6c.7,1.9,1.4,3.8,2.2,5.7.3-.2.6-.5.9-.7-.9-.8-1.8-1.6-2.8-2.4a.61.61,0,0,0-1,.6c.3,1,.6,1.9.8,2.9.3-.2.7-.4,1-.6a5.38,5.38,0,0,0-2.1-1.5c-.5-.2-.9.5-.7.9,1.6,2.7,4-.3.9-1.2-.4-.1-.9.3-.7.7.6,1.9,2.6.4,1.9-1.4a5.5,5.5,0,0,0-.9.7c1.2.5,1.9,1.1,3,.2.2-.1.2-.4.2-.6a4.77,4.77,0,0,0-1.2-2.2.57.57,0,0,0-.9.7c.4.6.4.7,1.1.9.4.1.9-.3.7-.7-.4-1.3-.9-2.6-1.3-3.8-.3.2-.7.4-1,.6a8.74,8.74,0,0,0,1,.8c.6.5,1.4-.3.8-.8l-.5-.5a.57.57,0,0,0-.9.7,45.9,45.9,0,0,0,3.3,6.2.58.58,0,1,0,1-.6A53.48,53.48,0,0,0,73,81.5c-.3.2-.7.4-1,.6a15.29,15.29,0,0,0,2.6,3.1c.5.4,1.3-.1.9-.7a5.94,5.94,0,0,0-1.3-1.8.57.57,0,0,0-.9.7c.5,1,1,1.9,1.5,2.9.3-.2.7-.4,1-.6a24.33,24.33,0,0,0-2-2.5.61.61,0,0,0-1,.6,16.33,16.33,0,0,0,1.9,3.4.58.58,0,0,0,1-.6,17.13,17.13,0,0,0-2-2.7c-.4-.5-1.3.2-.9.7A8.06,8.06,0,0,0,74,86a.57.57,0,0,0,.9-.7c-.1-.2-2.5-4.6-2.7-3.9.4,0,.7-.1,1.1-.1a7.46,7.46,0,0,0-.7-1.2.58.58,0,0,0-1,.6,3.53,3.53,0,0,0,.8,1.3c.4.5,1.4.2,1.1-.5a6.44,6.44,0,0,0-1.1-2,.61.61,0,0,0-1.1.5,13.32,13.32,0,0,1,.5,1.9c.4-.1.8-.2,1.1-.3a30.88,30.88,0,0,1-1.8-5.9c-.4.1-.8.2-1.1.3.1.6.3,1.2.4,1.8l1.1-.3a4.23,4.23,0,0,1-.5-.7c-.5-.6-1.4-.1-1,.6a10.8,10.8,0,0,1,1,3.5c.4-.2.7-.3,1.1-.5A8.34,8.34,0,0,1,71,76.7c-.4.1-.8.1-1.2.2a15.7,15.7,0,0,0,1.5,3.2.58.58,0,1,0,1-.6c-.5-1-1.1-2.1-1.6-3.1-.3-.6-1.3-.2-1.1.5q1.35,3.45,3,6.9c.3-.2.6-.5.9-.7a7.33,7.33,0,0,1-1.6-2.3c-.3-.6-1.3-.2-1.1.5a12.27,12.27,0,0,0,1.7,3.2c.5.6,1.5,0,1-.6l-1.8-2.4c-.5-.6-1.4-.1-1,.6.6,1.1,1.1,2.3,1.7,3.4.3-.2.7-.4,1-.6-.5-.9-1-1.7-1.5-2.6-.3-.6-1.3-.2-1.1.5a18.83,18.83,0,0,0,1.8,3.8c.3-.2.7-.4,1-.6-.5-.7-1-1.5-1.6-2.2a.58.58,0,0,0-1,.6c.6,1.2,1.3,2.5,1.9,3.7.3-.2.6-.5.9-.7L71.7,85c-.4-.5-1.3.2-.9.7a8.13,8.13,0,0,0,1.8,1.9c.5.4,1.1-.3.8-.8a29.77,29.77,0,0,0-2-2.9.58.58,0,0,0-1,.6A11.86,11.86,0,0,0,73,87.8c.9-.5,1.8-1.3,1.2-1.9Z" transform="translate(-63.73 -25.74)"/><path class="cls-1" d="M129.8,87.5l1.2-3.3c-.3-.1-.7-.3-1-.4-.1.6-.2,1.2-.3,1.9l1.1.3a6.16,6.16,0,0,1,.6-3.8c-.4-.1-.8-.1-1.2-.2,0,1.1-.1,2.3-.1,3.4h1.1a9.23,9.23,0,0,1-.5-3.7l-1.1.3c.4,1.2.7,2.4,1.1,3.7.4-.1.8-.1,1.2-.2a39.16,39.16,0,0,1-1.3-4.9c-.4.2-.7.3-1.1.5a14.69,14.69,0,0,1,1.9,4.9.57.57,0,0,0,1.1-.3c-.3-1.3-.5-2.6-.8-3.9-.4.1-.8.2-1.1.3a30.3,30.3,0,0,1,1.2,4.3c.3-.2.7-.4,1-.6-.7-.6-1.5-1.2-2.2-1.9-.3-.2-.8-.3-.9.1a6.82,6.82,0,0,0,1,7.8c.1-.3.3-.7.4-1l-1.8-.3c-.5-.2-.9.5-.7.9s.5.9.8,1.4,1.2.2,1.1-.5c0-.2-.1-.5-.1-.7-.4.2-.7.3-1.1.5.2.3.5.6.7.9.5.6,1.4.1,1-.6a5.94,5.94,0,0,0-.4-.8,5.5,5.5,0,0,1-.7.9,2.19,2.19,0,0,1,.5.3c.3-.2.6-.5.9-.7-.1.3-.1.6-.2.9.4,0,.7-.1,1.1-.1-.2-.1-.3-.3-.5-.4.3-.2.6-.5.9-.7a7,7,0,0,0-1-.8c-.6-.5-1.4.3-.8.8.4.5.8.9,1.2,1.4.3-.2.6-.5.9-.7-.3-.2-.6-.5-.9-.7a.58.58,0,0,0-.9.7c.5,1.1.3.8,1.2,1.6.4.3,1.2,0,1-.6s-.5-1.2-.7-1.8a5.5,5.5,0,0,0-.9.7c.4.4.9.7,1.3,1.1.6.5,1.4-.3.8-.8l-1.5-1.5a.57.57,0,0,0-.9.7c.5,1,.3.8,1.1,1.5.6.6,1.3-.3.8-.8-.6-.7-1.1-1.5-1.7-2.2-.4-.5-1.3.2-.9.7.2.3.3.6.5.9.4.7,1.3.1,1-.6-.6-1.4-.5-1.9-1.7-2.6-.4-.2-8.2,2.3-5.4.8a5.5,5.5,0,0,1,.9.7l2.7-3.6-.8-.8c-.7.7-1.4,1.3-2.1,2a5.5,5.5,0,0,0,.7.9A12.72,12.72,0,0,1,130,85l-.8-.8a10.91,10.91,0,0,1-3.9,3.8l.8.8a7,7,0,0,1,2.9-3.7c-.2-.3-.5-.6-.7-.9a15.28,15.28,0,0,1-4.5,3.9l.8.8a13.23,13.23,0,0,1,4.7-4.7c-.2-.3-.5-.6-.7-.9a23.27,23.27,0,0,1-5.1,4.8c.2.3.5.6.7.9.7-.5,1.3-.9,2-1.4a5.5,5.5,0,0,0-.7-.9c-2.4,3.9-7.4,5-11.4,6.5a.62.62,0,0,0-.1,1.1,3.88,3.88,0,0,0,1.9.6c.7.1,1.1-1,.3-1.1s-1.3-.3-2-.5c-.4-.1-.7.2-.8.6a1.7,1.7,0,0,0-.7.1c-.7.1-.8,1.2,0,1.2,1.8-.1,1.6-.1,3.3-.3-.1-.4-.2-.8-.3-1.1a2.92,2.92,0,0,1-.9.2c.2.4.3.7.5,1.1a21.81,21.81,0,0,0,3.8-3l-.8-.8a15.93,15.93,0,0,0-1.3,1.3.58.58,0,0,0,.6,1l2.1-.9c-.2-.3-.4-.7-.6-1-.4.2-.8.5-1.2.7-.6.2-.6,1.3.2,1.2,1.4.1,2.8.2,4.2.2a.6.6,0,1,0,0-1.2c-.9-.1-1.7-.3-2.6-.4-.1.4-.2.8-.3,1.1a18.59,18.59,0,0,0,3.3.4c-.1-.4-.1-.8-.2-1.2-.3.1-.5.2-.8.3.1.4.2.8.3,1.1a14.19,14.19,0,0,1,2.9-1c-.2-.4-.3-.7-.5-1.1-.8.5-1.5,1-2.3,1.5a.58.58,0,0,0,.6,1c1-.5,1.9-1,2.9-1.5-.2-.3-.5-.6-.7-.9a10,10,0,0,0-1.1,1l.8.8c.9-.3,1.8-.7,2.7-1a.6.6,0,0,0,0-1.2h-2.1c.1.4.1.8.2,1.2l3.5.3c.1-.4.1-.8.2-1.2a12.09,12.09,0,0,0-1.8-.5.58.58,0,0,0-.6,1,4.72,4.72,0,0,0,2,1,.61.61,0,0,0,.6-1c-.5-.4-1.1-.7-1.6-1.1.1.6,1,.5,1.1,0,.3-.8.5-1.5.8-2.3-.4-.2-.7-.3-1.1-.5-.2.6-.4,1.1-.6,1.7s.6,1.3,1,.6V88.9c.3-.7-.6-1.3-1-.6-2,2.3-2.2,2.1-.7-.6.3-.5-.3-1.2-.8-.8-1.2.8-2.5,1.5-3.8,2.2l.8.8c.5-.6,1.1-1.2,1.6-1.8l-.8-.8a9.31,9.31,0,0,1-3.7,3.4l.8.8c.8-.9,1.6-1.7,2.4-2.6l-.8-.8a10.05,10.05,0,0,1-3.4,3.4l.8.8c1.2-.9,2.3-1.8,3.5-2.8-.2-.3-.4-.7-.6-1a14,14,0,0,1-3.8,3c.2.3.5.6.7.9.6-.5,1.1-1,1.7-1.5-.2-.3-.5-.6-.7-.9-.3.4-.7.7-1,1.1-.5.6.3,1.4.8.8.8-.7,1.6-1.5,2.4-2.2.6-.5-.3-1.3-.8-.8-1.2.6-2.4,1.2-3.6,1.9.2.4.3.7.5,1.1q3.6-2.55,7.2-4.8c-.2-.3-.5-.6-.7-.9a17,17,0,0,1-4.4,3.6c.2.3.5.6.7.9,1.5-1.6,3.1-3.1,4.8-4.6-.3-.2-.6-.5-.9-.7a5.78,5.78,0,0,1-1.9,2.5c.3.2.6.5.9.7l2.7-4.2c.4-.6-.5-1.3-.9-.7l-1.1,1.4c.3.2.6.5.9.7a7.76,7.76,0,0,1,1.6-2.4c.4-.5-.5-1.2-.9-.7-1.3,1.5-2.5,3-3.8,4.5.3.2.6.5.9.7l1.9-2.2-.8-.8c-1.5,1.8-3,3.6-4.4,5.4-.5.6.3,1.4.8.8a18,18,0,0,0,2-1.9l-.8-.8a6.86,6.86,0,0,1-2.7,2.9c.3.2.6.5.9.7.6-.6,1.3-1.2,1.9-1.7a5.5,5.5,0,0,1-.9-.7c-.2.5-.5.9-.7,1.4s.3,1.2.8.8c.9-.2,1.7-.5,2.6-.7-.1-.4-.1-.8-.2-1.2a18.06,18.06,0,0,0-3.7,1.8.58.58,0,1,0,.6,1,7.89,7.89,0,0,0,2.9-1.8l-.8-.8c-.6.7-1.2,1.3-1.8,2,.3.2.6.5.9.7l.9-1.8a5.5,5.5,0,0,0,.7.9,1.38,1.38,0,0,0-.4-.3c.3.1.7.3,1,.4a10.93,10.93,0,0,0,.8-1.5c-.3-.2-.6-.5-.9-.7-.1,0-.2,0-.2-.1l.8.8a16.47,16.47,0,0,1,2.2-2.4l-.8-.8c-.7.7-1.3,1.4-2,2.1-.5.6.3,1.4.8.8,3.4-3.3,4.7-5.9,5.1-10.7.1-1.7.7-4,.1-5.6s-4.4-3.4-4.2-4.4c.1-.7-.9-1.1-1.1-.3a3.68,3.68,0,0,0,2.1,4.9c.7.3,1.3-.7.6-1-.5-1.2-1.1-2.4-1.6-3.5-.4-.1-.8-.2-1.1-.3-.3,2,.7,2.1,2,3.3,4.8,4.6,1.4,13-2.7,16.9l.8.8c.7-.7,1.3-1.4,2-2.1.5-.6-.3-1.4-.8-.8a17,17,0,0,0-2.2,2.4.57.57,0,0,0,.8.8c1-.9,1.8-1.6,1.7-3a.65.65,0,0,0-.6-.6c-2.2.2-5.6,3.4-4,5.6a.91.91,0,0,0,.7.3,3.65,3.65,0,0,0,2.6-2.5.57.57,0,0,0-.9-.7c-1.2,1-1.1.8-1.2,2.4,0,.5.7.8,1,.4.5-.6.6-.7.5-1.5a.64.64,0,0,0-.8-.6c-.8.2-.8.3-1.3,1-.3.4.2,1,.7.9,1.2-.4,1.6-1,1.2-2.2-.1-.4-.5-.5-.9-.4a4.2,4.2,0,0,0-2.6,2.6.57.57,0,0,0,.9.7c1-.9,2-1.8,1.9-3.3a.58.58,0,0,0-.6-.6c-1.7,0-2.4,1.5-2.8,3-.1.4.3.9.7.7a5.14,5.14,0,0,0,2.7-2.1c.3-.5-.3-1.2-.8-.8a12.68,12.68,0,0,1-2.9,1.8c.2.3.4.7.6,1a10.61,10.61,0,0,1,3.4-1.6c.7-.2.5-1.1-.2-1.2a3.67,3.67,0,0,0-3.2.8l.8.8a3.81,3.81,0,0,0,.8-1.7c.2-.5-.4-.9-.9-.7-1.6,1-1.2.7-2.3,2.2-.4.6.5,1.1.9.7a11.77,11.77,0,0,0,2.8-3.1c.3-.5-.3-1.2-.8-.8a9,9,0,0,0-2.3,2l.8.8c1.5-1.8,3-3.6,4.4-5.4a.57.57,0,0,0-.8-.8,5.77,5.77,0,0,0-2.1,2.5c-.3.6.5,1.3.9.7,1.3-1.5,2.5-3,3.8-4.5-.3-.2-.6-.5-.9-.7a10,10,0,0,0-1.6,2.4c-.3.6.5,1.3.9.7l1.1-1.4c-.3-.2-.6-.5-.9-.7l-2.7,4.2a.57.57,0,0,0,.9.7,7.89,7.89,0,0,0,2.1-2.7.57.57,0,0,0-.9-.7c-1.6,1.5-3.2,3-4.8,4.6a.57.57,0,0,0,.7.9,14,14,0,0,0,4.6-3.8c.4-.5-.1-1.3-.7-.9q-3.75,2.25-7.2,4.8a.61.61,0,0,0,.5,1.1,8.24,8.24,0,0,0,4.1-2.2l-.8-.8c-.8.7-1.6,1.5-2.4,2.2l.8.8c.3-.4.7-.7,1-1.1s-.1-1.3-.7-.9a4.44,4.44,0,0,0-1.9,1.7c-.4.5.1,1.3.7.9a20.08,20.08,0,0,0,4-3.2.61.61,0,0,0-.6-1,8,8,0,0,0-4.2,3.3.59.59,0,0,0,.8.8,11.5,11.5,0,0,0,3.8-3.8.59.59,0,0,0-.8-.8,7.34,7.34,0,0,0-2.8,3,.59.59,0,0,0,.8.8,13,13,0,0,0,4.2-3.9c.3-.5-.3-1.2-.8-.8a5.23,5.23,0,0,0-2.1,2.3.59.59,0,0,0,.8.8c1.3-.7,2.6-1.4,3.8-2.2l-.8-.8a24.64,24.64,0,0,0-1.4,3.8c-.1.4.3.9.7.7a4.94,4.94,0,0,0,3.4-2.6c-.3-.2-.7-.4-1-.6-.6,1.2-1,2.2.4,2.9a.62.62,0,0,0,.7-.1l.4-.4a.62.62,0,0,0,.1-.7c-.1-.2-.2-.3-.2-.5a.57.57,0,0,0-1,0c-.1.2-.3.5-.4.7.3.2.7.4,1,.6a3.72,3.72,0,0,0,.7-2c.1-.6-.8-1.1-1.1-.5a6.22,6.22,0,0,0-.9,2.6H128c-.4-2.6-3.8-1.1-.4,2.3.2-.3.4-.7.6-1-.6-.3-1.1-.6-1.7-.9-.2.3-.4.7-.6,1a4.81,4.81,0,0,0,2.4.7c.7.1.8-1,.2-1.2a7.21,7.21,0,0,0-4.1-.3c-.7.1-.5,1.2.2,1.2h2.1V91.5a4.47,4.47,0,0,0-3.6,1.4c-.6.5.3,1.3.8.8a10,10,0,0,0,1.1-1,.57.57,0,0,0-.7-.9c-1,.5-1.9,1-2.9,1.5.2.3.4.7.6,1,.8-.5,1.5-1,2.3-1.5a.61.61,0,0,0-.5-1.1,10,10,0,0,0-2.9,1c-.7.3-.4,1.4.3,1.1.3-.1.5-.2.8-.3.7-.2.5-1.1-.2-1.2l-3-.3c-.7-.1-1.1.9-.3,1.1a9.29,9.29,0,0,0,2.9.5V92.4a10.63,10.63,0,0,0-3.1.1.59.59,0,0,0-.5.9.35.35,0,0,0,.1.2.61.61,0,0,0,.7.3c.1,0,.2-.1.3-.1a.57.57,0,0,0,.4-.7c-.3-1.1-1.1-1-2.1-.9.1.4.1.8.2,1.2a4.78,4.78,0,0,0,1.7-1,.61.61,0,0,0-.6-1,8,8,0,0,0-2.3,1c.2.3.4.7.6,1,1.1-.7.8-.5,1.6-1.5.5-.6-.3-1.4-.8-.8a12.46,12.46,0,0,1-3.6,2.8.61.61,0,0,0,.5,1.1,2.92,2.92,0,0,1,.9-.2.57.57,0,1,0-.3-1.1l-3,.3v1.2c.4,0,.9-.1,1.3-.1a.58.58,0,0,0,.6-.6,1.31,1.31,0,0,0,1.2.6c.1-.4.2-.8.3-1.1-.5-.2-1.1-.3-1.6-.5,0,.4-.1.7-.1,1.1,4.4-1.6,9.5-2.8,12.1-7a.62.62,0,0,0-.7-.9c-1.7.7-1.3.4-2.5,1.7-.5.5.2,1.3.7.9a23.29,23.29,0,0,0,5.4-5c.4-.5-.1-1.3-.7-.9a16.88,16.88,0,0,0-5.1,5.2.59.59,0,0,0,.8.8,15.66,15.66,0,0,0,4.8-4.1c.4-.5-.1-1.4-.7-.9a9.16,9.16,0,0,0-3.3,4.2c-.2.5.3,1.2.8.8a14.69,14.69,0,0,0,4.3-4.3c.3-.5-.3-1.2-.8-.8a17.79,17.79,0,0,0-4,4.2.62.62,0,0,0,.7.9,4.27,4.27,0,0,0,2.8-2.6.59.59,0,0,0-.8-.8,5.89,5.89,0,0,0-3.2,4.3.64.64,0,0,0,.9.7c1.6-.9,2.9-2.1,2.6-4.1,0-.3-.3-.4-.6-.4-2-.1-2.7,2.7-1.6,4.1,1.7,2.2,3.9-1.1,5.1,1.8.3-.2.7-.4,1-.6-.2-.3-.3-.6-.5-.9-.3.2-.6.5-.9.7.6.7,1.1,1.5,1.7,2.2l.8-.8c-.3-.4-.6-.9-.9-1.3-.3.2-.6.5-.9.7l1.5,1.5.8-.8a10.1,10.1,0,0,0-1.6-1.3.62.62,0,0,0-.9.7c.2.6.5,1.2.7,1.8.3-.2.7-.4,1-.6l-1-1.3c-.3.2-.6.5-.9.7.3.2.6.5.9.7.5.4,1.3-.1.9-.7a5.39,5.39,0,0,0-1.4-1.6l-.8.8a7,7,0,0,0,1,.8c.5.4,1.3-.1.9-.7a2.17,2.17,0,0,0-1-1.1.63.63,0,0,0-.9.4c-.4,1.3-.4,1.2.4,2.4.3.4,1,.4,1.1-.1.9-3.5-3.9-2.1-2.5-.1s4.2-1.8.7-2.2a.65.65,0,0,0-.6.6,1.3,1.3,0,0,0,.5,1.3c.5.5,1.3-.2.9-.7a1.6,1.6,0,0,0-1.3-.9.64.64,0,0,0-.7.9,5.94,5.94,0,0,0,.4.8c.3-.2.7-.4,1-.6-.2-.3-.5-.6-.7-.9a.62.62,0,0,0-1.1.5c0,.2.1.5.1.7.4-.2.7-.3,1.1-.5-.3-.5-.5-.9-.8-1.4a5.5,5.5,0,0,1-.7.9,3.08,3.08,0,0,0,2.1.4c.6,0,.7-.6.4-1-1.8-5.1-1.7-6.6.5-4.3a.61.61,0,0,0,1-.6,34.52,34.52,0,0,0-1.2-4.3.57.57,0,0,0-1.1.3c.3,1.3.5,2.6.8,3.9.4-.1.8-.2,1.1-.3a14.61,14.61,0,0,0-2.1-5.2c-.4-.6-1.2-.2-1.1.5.4,1.7.8,3.3,1.3,4.9.2.6,1.3.5,1.2-.2a13.35,13.35,0,0,0-1.3-4.3.59.59,0,0,0-1.1.3,13.86,13.86,0,0,0,.6,4c.1.5,1.1.6,1.1,0a11.53,11.53,0,0,0,.2-3.7.62.62,0,0,0-1.2-.2,10,10,0,0,0-.7,4.2.59.59,0,0,0,1.1.3c.7-1.3.6-1,.5-2.5a.58.58,0,0,0-1-.4,5.21,5.21,0,0,0-1.6,4.1c1.1,0,2.2,0,2.2-.8Z" transform="translate(-63.73 -25.74)"/><path class="cls-1" d="M68.5,74.4c-2.2-4.4.2-7.2.5-11.4.2-3.1-1.1-6.1-1.1-9.2,0-4.4,3.3-6.8,6-9.8a28.27,28.27,0,0,0,4.7-7.1,1.48,1.48,0,0,0-2.3-1.8,8.79,8.79,0,0,0-2.4,3.6c-.6,1.6,2,2.6,2.7,1.1,1.6-3.2,3.1-5.9,7-6.6,2.2-.4,3.9-.1,6.1-1.1a1.48,1.48,0,0,0-.4-2.7,6.06,6.06,0,0,0-3,.1c.4.9.8,1.8,1.1,2.7a15.84,15.84,0,0,1,8-1.7c1.1,0,2,.4,3.1.2s1.9-.9,2.8-1.1c2.4-.4,4.1.9,6.2,1.6,2.3.8,4.6,0,6.8.5,4.7,1.1,4.7,6,6.6,9.4a1.54,1.54,0,0,0,2.6,0,6.11,6.11,0,0,0-.3-6.5c-.9.5-1.7,1-2.6,1.5a19.85,19.85,0,0,0,6,5.9,1.47,1.47,0,0,0,2.2-1.3,2.29,2.29,0,0,0-1.3-2.3c-.4.9-.8,1.8-1.1,2.7,4.3,1.1,3.8,10,5,13.6.6,2,.8,1.5.9,4.4.2,3.4-.3,2.1-.7,4.3a6.09,6.09,0,0,0,0,3c.3,1.2,1.4,2.3,1.6,3.4.5,3.2-1.4,3.8-2.7,6a4.31,4.31,0,0,0-.6,3.5c.3,1.4,3.1,4.2,1.9,5.6a1.48,1.48,0,0,0,1.8,2.3,3.07,3.07,0,0,0,1.9-1.8c.7-1.2-.8-2.9-2-2a8.41,8.41,0,0,0-3.9,5.9h2.9c-1.2-3.3-2.8-6.9-2-10.5.8-3.3,2-6.4,2.5-9.8-1-.1-1.9-.3-2.9-.4,0-2.3,1.8-4.2,1.2-6.6-.3-1.2-1.3-2-1.7-3.1-1.1-2.6,0-5.7.4-8.4h-2.9a31.47,31.47,0,0,1,1.8,8.5c.1,1.9,3,1.9,3,0V55.3c-1,.1-1.9.3-2.9.4.4,2.5.7,4.9,1.1,7.4.3,1.7,2.9,1.2,2.9-.4,0-1,.1-2.1.1-3.1-1,.1-1.9.3-2.9.4.1,1,.3,2,.4,3,0,1.4,2.1,2.2,2.8.8a6.21,6.21,0,0,0-.6-6.8,1.52,1.52,0,0,0-2.8.8c0,3.9-.7,7.6-.7,11.5a6.85,6.85,0,0,0,1.9,5.3,1.46,1.46,0,0,0,2.3-.3c.3-.5.6-1.1.9-1.6a25.12,25.12,0,0,1-2.7-.4l.3.9a1.51,1.51,0,0,0,2.9-.8l-5.7-18.9c-.5-1.5-.7-3.5-1.8-4.8-1.8-2.2-4.3-2.8-5.3-6a1.51,1.51,0,0,0-2.9,0,3.1,3.1,0,0,0,.9,3.7c1.3,1.3,3-.4,2.3-1.8a6.06,6.06,0,0,0-3.2-3.1c-1.5-.7-3.2-1-4.7-1.8-.7-.5-1.4-.9-2-1.4.2-2.9,1.8-2.7,4.9.5a23.07,23.07,0,0,0,1.9,1.4,18,18,0,0,0-.8,2.1h2.6c-.4.1-.7.3-1.1.4a11,11,0,0,1,1.8-.2,15.05,15.05,0,0,0,1,1.7c.7.4,1.5.9,2.2,1.3a15.38,15.38,0,0,1-1.3,1.2l2.3-.3c-.6.1-1.1.1-1.7.2.7-.3,1.5-.6,2.2-.9-.7,0-1.4.1-2.2.1.9-.3,1.8-.5,2.8-.8-1.2-1.9-2.4-3.8-3.7-5.7-.4.7-.9,1.5-1.3,2.2,3.2,0,4.5,5.6,4.6,7.8h3a12.55,12.55,0,0,1,.2-5.1H127l1.5,4.5c.9-.4,1.8-.8,2.7-1.1a58.12,58.12,0,0,1-4.3-7.7l-2,2c.8,1,1.6,2,2.4,3.1.3-.6.7-1.2,1-1.8a28.85,28.85,0,0,0-2.9.4c-1.9-.1-1.9,2.9,0,3a6.83,6.83,0,0,0,3.7-.5,1.43,1.43,0,0,0,1-1.8,6.45,6.45,0,0,0-3.8-4.8,1.47,1.47,0,0,0-2,2,44.59,44.59,0,0,0,4.3,7.7c.9,1.3,3.3.5,2.7-1.1l-1.5-4.5c-.4-1.3-2.6-1.5-2.9,0a19.53,19.53,0,0,0-.3,5.9c.2,1.9,3.1,1.9,3,0-.4-4.1-2.6-10.9-7.6-10.8a1.49,1.49,0,0,0-1.3,2.2c1.3,1.9,2.5,3.8,3.7,5.7.8,1.4,2.6.7,2.8-.8.3-2.3-1.5-5.3-4-3.5s-.1,4.8,1.7,5.9a1.52,1.52,0,0,0,2.2-.9c.9-2.4.4-7.9-3.7-6-3,1.4-1.2,5.4.4,7.1a1.47,1.47,0,0,0,2.3-.3c4.7-6.4-4.5-9.5-4.3-2.7a1.47,1.47,0,0,0,2.2,1.3c3.4-1.6,1.9-5.9-1.6-6.1-2.6-.2-5.5,2.8-2.4,4.4a1.68,1.68,0,0,0,1.8-.2c5.8-5.6-7.2-7.1-3.6-1a1.5,1.5,0,0,0,2.6,0c.9-2,1.7-5.4-1.2-6.3-2-.7-3.3.9-3.5,2.7a1.44,1.44,0,0,0,1.9,1.4c7-2.7-.8-10.5-3.6-5.4-3.5,6.4,9.8,4.5,4-.5a1.49,1.49,0,0,0-1.4-.4c-2,.7-2.8,2.2-1.7,4.1a1.36,1.36,0,0,0,1.3.7c2.3,0,3.9-3,1.6-4.4-2.5-1.6-6.4,1.5-5.7,4.3.9,3.4,5,2.4,6.1-.3,1.2-2.9-1.3-6.6-4.5-5-2.3,1.1-2.6,4.8.4,5s5.5-4.2,3.2-6.4c-2.6-2.6-7.4.2-8.4,3.1-2.3,6.1,8.9,5.9,10.5,9.6.8-.6,1.6-1.2,2.3-1.8,0-.3-.1-.5-.1-.8h-2.9c1.5,4.6,5.7,6.3,7.1,10.8l5.7,18.9c1-.3,1.9-.5,2.9-.8l-.3-.9a1.51,1.51,0,0,0-2.7-.4c-.3.5-.6,1.1-.9,1.6l2.3-.3c-1.9-1.9-.7-5.2-.5-7.5s.2-4.8.2-7.2c-.9.3-1.8.5-2.8.8.2,1.3.4,2.6.6,3.8.9.3,1.8.5,2.8.8a10,10,0,0,0-.5-3.8,1.48,1.48,0,0,0-2.9.4c0,1-.1,2.1-.1,3.1,1-.1,1.9-.3,2.9-.4-.4-2.5-.7-4.9-1.1-7.4-.3-1.7-2.9-1.2-2.9.4V59h3a32.06,32.06,0,0,0-1.9-9.3c-.4-1.2-2.6-1.6-2.9,0-.4,2.7-1.6,6.4-.8,9.2.3,1,1.2,1.7,1.4,2.5,1.1,3.2-.3,3-1,5.4-.9,3.1.8,6.6,4.1,7a1.46,1.46,0,0,0,1.3-.7c1-1.3,1-2.9,1-4.5s-2.6-2.1-2.9-.4a52.25,52.25,0,0,1-1.5,6.6c-.4,1.5-1.6,3.5-1.7,5-.2,3.3,1.5,7.3,2.6,10.3.5,1.2,2.6,1.6,2.9,0a5.09,5.09,0,0,1,2.6-4.1l-2-2c-.3.2-.5.5-.8.7.6.8,1.2,1.6,1.8,2.3a4.1,4.1,0,0,0,1.1-3.9c-.3-1.3-1.4-2.2-1.7-3.3-.5-2.4,1-3,2.2-4.6,3.3-4-1.4-6.6-.8-10.6.4-2.6,1.9-3.6,1.3-6.5-.7-3.5-2.7-6.1-3-9.8-.4-4.3-1-8.7-5.8-9.9a1.47,1.47,0,0,0-1.1,2.7c-.1-.1-.1-.2-.2-.3.7-.4,1.5-.9,2.2-1.3a14.36,14.36,0,0,1-4.9-4.9c-1.1-1.6-3.6-.1-2.6,1.5.1,1.2.2,2.3.3,3.5h2.6c-1.6-2.8-1.9-6.7-4.3-9-3.2-3-8.4-1.3-12.2-2.9-1.4-.6-2.6-1.5-4.1-1.6-1.7-.1-3.3.9-4.9,1.2-1.9.3-3.7-.1-5.6.1a23.59,23.59,0,0,0-6.3,2.2c-1.6.7-.4,3.2,1.1,2.7.5,0,1-.1,1.5-.1a25.12,25.12,0,0,0-.4-2.7c-3.1,1.4-6.4.1-9.3,2.2-2.3,1.6-3.6,4.2-4.8,6.6.9.4,1.8.8,2.7,1.1.6-.8,1.1-1.5,1.7-2.3-.8-.6-1.6-1.2-2.3-1.8C72.9,41.8,64.8,46,64.9,53.7a40.13,40.13,0,0,0,.7,5c.6,3.5-.2,5.4-.9,8.6a12,12,0,0,0,1.2,8.5c.8,1.8,3.4.3,2.6-1.4Z" transform="translate(-63.73 -25.74)"/><path class="cls-1" d="M73,48a5.5,5.5,0,0,0,.9-.7c-.5-.8-1-1.7-1.4-2.5l-1.6,1.3c-1.3,1.1.4,3.2,1.8,2.3,2.6-1.6,5.8-1.2,8.3-3.1a10.63,10.63,0,0,0,1.5-1.5c2.7-2.6,4.5-3.6,8.1-2.9,2.4.4,5,1.4,7.3.4a7.07,7.07,0,0,0,1.8-1.2c3.2-2.3,5.6-2.4,9.4-1.3a1.53,1.53,0,0,0,1.7-.7,9.29,9.29,0,0,1,3.2-3.6l-2-2c-.9.5-1.8,1-2.6,1.4a23.07,23.07,0,0,1,1.4,1.9c.7-.6,1.3-1.2,2-1.7-.4-.8-.7-1.7-1.1-2.5a3.79,3.79,0,0,1-2.3,1.8l2,2c1.2.3,2.5.5,3.7.8.3.7.7,1.4,1,2.1a22.88,22.88,0,0,1,1,2.3c.3.5,3.5,5.2,3.3,5.3l2.3.3c-.6-1.3.1-3.1-.7-4.7a26,26,0,0,0-4.4-5.5,12.83,12.83,0,0,0-4.8-3.1,8.53,8.53,0,0,0-3.1-.6s-5.2.6-3.2,1.9c.2.6.5,1.1.7,1.7l2.4-2.7c-.7-.4-1.5-.9-2.2-1.3-.5.7-1,1.5-1.5,2.2a23.07,23.07,0,0,1-1.4-1.9c.6-1.6,2.8-.4.8-2.1a4.62,4.62,0,0,0-2.6-.7c-3.4-.2-7.4,1.7-10.5,2.8A68.46,68.46,0,0,0,70.4,44.6c-1.4,1.2.4,3,1.8,2.3a33.68,33.68,0,0,0,8.1-5.4c-.8-.6-1.6-1.2-2.3-1.8-.4.7-.8,1.4-1.2,2.2a1.5,1.5,0,0,0,2.6,1.5A21.5,21.5,0,0,0,82.2,37c-1-.1-1.9-.3-2.9-.4-.6,1.3-1.3,2.5-1.9,3.8.8.4,1.7.7,2.5,1.1a5.72,5.72,0,0,1,1.2-5c-.9-.5-1.7-1-2.6-1.5a6.11,6.11,0,0,1-2.1,2.4c.8.6,1.6,1.2,2.3,1.8a9.81,9.81,0,0,1,4.5-4.5c-.7-.6-1.5-1.1-2.2-1.7-.3.4-.5.9-.8,1.3l2.1,2.1a14.62,14.62,0,0,1,4.9-3.3l-1.8-1.8a7,7,0,0,1-3.1,4.1c.6.8,1.2,1.6,1.8,2.3a17.26,17.26,0,0,1,5.8-4.9c-.6-.8-1.2-1.6-1.8-2.3a21.8,21.8,0,0,1-4,3.4c.6.8,1.2,1.6,1.8,2.3a14.41,14.41,0,0,1,6-3.4c-.6-.7-1.1-1.5-1.7-2.2A13.76,13.76,0,0,1,86.3,35l2.1,2.1a13.67,13.67,0,0,1,6.5-4.6c-.5-.8-1-1.7-1.4-2.5a31,31,0,0,1-7.3,6.7c.6.8,1.2,1.6,1.8,2.3a35.66,35.66,0,0,1,7.2-5l-2-2A16,16,0,0,1,89,36.8l2.1,2.1a9.68,9.68,0,0,1,5.1-3.3c-.6-.7-1.1-1.5-1.7-2.2a11.48,11.48,0,0,1-4,3.9c.5.9,1,1.7,1.5,2.6,0-.2-.1-.4-.1-.6.6.7,1.1,1.5,1.7,2.2a5.47,5.47,0,0,1,3.9-3.6l-1.8-1.8c-.6.7-1.1,1.4-1.7,2.1l2,2c1.4-.9,2.7-1.7,4.1-2.6-.4-.7-.9-1.5-1.3-2.2-1.1.9-2.2,1.8-3.3,2.6.6.7,1.1,1.5,1.7,2.2a12.14,12.14,0,0,1,4.7-4l-2-2-1.5,1.2,1.8,1.8a5.72,5.72,0,0,0,.8-.7c-.4-.8-.7-1.7-1.1-2.5.2.5.3.9.5,1.4-.4-.8-.7-1.7-1.1-2.5a6.89,6.89,0,0,0-1,.4c.4.8.7,1.7,1.1,2.5.9-.6,1.8-1.1,2.8-1.7-.4-.9-.8-1.8-1.1-2.7-.9.4-3.4-1.4-4.7-1.4a12.16,12.16,0,0,0-4.9,1.5,76.61,76.61,0,0,0-13.1,7.3c-2.5,1.8-13.5,11-9,14.5a1.51,1.51,0,0,0,2.5-.7c.5-1.2.9-2.4,1.4-3.6-1-.1-1.9-.3-2.9-.4,0,1.8.5,3.2.6,5,0,2.7-1.1,4.2-2.6,6.3a25.12,25.12,0,0,1,2.7.4c-.1-.7-1.6-7-.9-7.2a23.07,23.07,0,0,0-1.9-1.4,10.75,10.75,0,0,1-.1,3.1c-.2,1.2,1.4,1.7,2.2,1.3.4-.2.7-.3,1.1-.5l-2-2a16.38,16.38,0,0,0-1.2,11.9c.5,1.7.8,1,1.1,3.5.3,2.7-.1,1.9-.4,3.9a18.86,18.86,0,0,0-.1,6.7c.8-.5,1.7-1,2.5-1.4-3.4-3.5-1.3-9-1.2-13.3-1,.1-1.9.3-2.9.4.2,1.3.7,9.1,4.1,5.8-.8-.6-1.6-1.2-2.3-1.8a8.2,8.2,0,0,0-.6,7,15.35,15.35,0,0,1,.9,7.7c-.1.7-.4,5.5-1,5.8.6.3,1.2.7,1.8,1-.7-4.5,2-8.2.1-12.6-.9.5-1.7,1-2.6,1.5a19.75,19.75,0,0,1,2,10.7,1.32,1.32,0,0,0,1.1,1.4c3,.9,5.9,2.4,9,1.8a1.55,1.55,0,0,0,.7-2.5c-2.1-1.7-4.3-3.3-6.5-4.9-1.5-1.1-3,1.4-1.5,2.6,2,1.5,3.9,3,5.9,4.5a23.35,23.35,0,0,1,.7-2.5c-2.3.5-5.3-1.1-7.4-1.8a17.1,17.1,0,0,0,1.1,1.4,23.27,23.27,0,0,0-2.4-12.2c-.9-1.8-3.3-.2-2.6,1.5,1.5,3.5-1,8.1-.4,11.9a1.43,1.43,0,0,0,1.8,1c3.3-1.3,2.8-5.7,3.2-8.8a19.92,19.92,0,0,0,.4-4.2c-.3-3.2-2.9-5.1-1.1-8.8.7-1.5-1.1-3-2.3-1.8,1.6.5,2,.1,1.3-1.5-.1-1-.3-2-.4-3-.2-1.7-2.9-1.2-2.9.4-.1,5.4-2.1,11,2.1,15.4A1.51,1.51,0,0,0,72,78.9c-.6-3.3.5-4.9,1.3-7.9.4-1.4.7-2,.3-3.4a10,10,0,0,0-1.2-1.9c-2.2-3.7-1.8-6.7,0-10.5a1.47,1.47,0,0,0-2-2c-.4.2-.7.3-1.1.5.7.4,1.5.9,2.2,1.3a8.1,8.1,0,0,0,.1-3.1,1.44,1.44,0,0,0-1.9-1.4c-4.5,1.3-1.7,7.7-1.1,10.8.3,1.4,2,1.3,2.7.4a15.17,15.17,0,0,0,3.2-6c.5-2.4-.8-4.3-.7-6.8a1.48,1.48,0,0,0-2.9-.4c-.5,1.2-.9,2.4-1.4,3.6a23.35,23.35,0,0,0,2.5-.7c-.9-.7,5.2-7.2,5.7-7.7a45.39,45.39,0,0,1,9.2-6.3c3.5-1.9,7.8-4.6,11.7-3.6,2.2.5,2.3,1.2,4.4.2,1.6-.7.4-3.1-1.1-2.7a7.17,7.17,0,0,0-4.1,2.4c-.8.9-.3,2.7,1.1,2.5,2.2-.2,6.1-3.1,2.7-5.1-3-1.7-6.7,2-6.1,4.8a1.44,1.44,0,0,0,1,1c2.3.5,3.9-.4,5.5-2.1a1.48,1.48,0,0,0-1.1-2.5c-7.4.2-3,9.3,1.6,3.7.7-.9.4-2.7-1.1-2.5a3.66,3.66,0,0,0-3.7,2.9,1.46,1.46,0,0,0,1.8,1.8,5.86,5.86,0,0,0,3.2-2.6c.9-1.3-.8-2.7-2-2A16.42,16.42,0,0,0,95,38.7a1.53,1.53,0,0,0,1.7,2.2,9,9,0,0,0,5-4,1.45,1.45,0,0,0-1.3-2.2,8.45,8.45,0,0,0-6.6,4.1c-.8,1.2.8,2.9,2,2a6.85,6.85,0,0,0,3-3.9A1.46,1.46,0,0,0,97,35.1a9.12,9.12,0,0,0-5.7,5c-.5,1.1.3,2.7,1.7,2.2,6.3-2.2,3.9-9.3-2.1-4.8-1.5,1.1-.2,3.6,1.5,2.6a15,15,0,0,0,5.1-4.9A1.52,1.52,0,0,0,95.8,33a12.9,12.9,0,0,0-6.4,4.1,1.49,1.49,0,0,0,2.1,2.1,16,16,0,0,0,4.6-5.4,1.46,1.46,0,0,0-2-2,38,38,0,0,0-7.8,5.5c-1.3,1.1.4,3.3,1.8,2.3A30.19,30.19,0,0,0,96,32.4c.8-1,.1-3-1.4-2.5a16.48,16.48,0,0,0-7.8,5.4,1.49,1.49,0,0,0,2.1,2.1,17.62,17.62,0,0,0,4.4-5,1.52,1.52,0,0,0-1.7-2.2,18.4,18.4,0,0,0-7.3,4.2,1.48,1.48,0,0,0,1.8,2.3,21.68,21.68,0,0,0,4.7-3.9A1.48,1.48,0,0,0,89,30.5a20.41,20.41,0,0,0-6.4,5.3c-.9,1.2.3,3.4,1.8,2.3a11.26,11.26,0,0,0,4.5-5.8,1.46,1.46,0,0,0-1.8-1.8,17.45,17.45,0,0,0-6.2,4c-1.4,1.4.6,3.3,2.1,2.1A3.21,3.21,0,0,0,84.6,34a1.52,1.52,0,0,0-2.2-1.7,12.64,12.64,0,0,0-5.6,5.6,1.47,1.47,0,0,0,2.3,1.8,12.49,12.49,0,0,0,2.6-3c1-1.6-1.6-3.1-2.6-1.5a9.91,9.91,0,0,0-1.6,6.5A1.5,1.5,0,0,0,80,42.8a8.9,8.9,0,0,0,2.8-5.9c.2-1.7-2.5-2-2.9-.4a17.1,17.1,0,0,1-2.5,5.7c.9.5,1.7,1,2.6,1.5.4-.7.8-1.4,1.2-2.2a1.48,1.48,0,0,0-2.3-1.8,31.29,31.29,0,0,1-7.5,4.9c.6.8,1.2,1.6,1.8,2.3a66.12,66.12,0,0,1,21.3-12c2.9-1,7.1-3.2,9.9-1.9.9.4.6,1.4,2,1.3a2.19,2.19,0,0,0,1.2-3.7c-1.6-1.6-4.8-.4-4.9,1.8a2.37,2.37,0,0,0,3.7,2c2.1-1.4.9-4.8-1.6-4.8-6.3,0,.1,11,3.1,3.4.4-1-.6-1.8-1.4-1.9a2.69,2.69,0,0,0-1.7,5c3.1,2,6.1-1.3,6.2-4.2a1.53,1.53,0,0,0-2.2-1.3c-1.8,1-3.4,2.3-3.8,4.4a1.62,1.62,0,0,0,.7,1.7c6.4,4.3,5.7-9.7.9-5.3-1.8,1.7-.3,3.7,1.6,4,2.6.4,2.2-1,5.5.7a13.88,13.88,0,0,1,3.5,2.9c2.4,2.6,2.4,5.6,3.7,8.5a1.47,1.47,0,0,0,2.3.3c1.5-1.4,1.1-2.7.2-4.4-.8-1.4-1.9-2.5-2.6-3.9-.9-1.6-1.3-3.5-2.4-5.1-2.2-3.2-6.6-4.9-8.9-.8a1.45,1.45,0,0,0,2,2,8,8,0,0,0,2.9-2.3,1.48,1.48,0,0,0-1.1-2.5c-2.7,0-4.4,1.3-4.9,3.9a1.52,1.52,0,0,0,1.4,1.9,5.43,5.43,0,0,0,5.2-2.9c.7-1.2-.8-3-2-2a17.48,17.48,0,0,0-4.3,4.7c.6-.2,1.1-.5,1.7-.7-2.7-.7-5.7-1.5-8.5-.5s-4.5,2.9-7.9,3c-1.7,0-3.5-.8-5.2-.9a7.63,7.63,0,0,0-6.6,2.4c-2,1.8-3.3,3.4-5.9,4.3a24.47,24.47,0,0,0-4.5,1.7c.6.8,1.2,1.6,1.8,2.3l1.6-1.3c1.2-1-.1-2.8-1.4-2.5a3.64,3.64,0,0,0-3,2.7C69.5,49,72.4,49.8,73,48Z" transform="translate(-63.73 -25.74)"/><path d="M99.3,27.3a13.82,13.82,0,0,0-9.2.1,55.69,55.69,0,0,1-7.9,2.5,11.08,11.08,0,0,0-4.1,1.4c-3.1,1.9-3.7,5.4-5.7,8.2-2.5,3.5-6.7,5.8-8.2,10-1.2,3.4.4,6.3.8,9.7.5,4.4-2.1,7.9-1,12.3,1.1,4.6,3.6,8,2.2,12.9-1,3.5-1,5.3,1.3,8.3.5.6,1.5,0,1-.6-3.1-4.2-.5-6.7-.4-10.7.1-2.5-1-4.8-1.9-7.1A16.8,16.8,0,0,1,65,70.5c-.5-3.4.6-3.9,1.3-6.8.6-2.5-.1-4.7-.7-7.2-1.5-6.7,1.5-9.5,5.7-13.8,2-2.1,2.8-4,4.3-6.5a9.48,9.48,0,0,1,5.5-4.9c1.5-.5,3.2-.3,4.7-.8,4.7-1.4,8.1-3.7,13.3-2.1.6.3.9-.9.2-1.1Z" transform="translate(-63.73 -25.74)"/><path d="M68.5,93.4c2-2.1,4.8-1.2,6.9.2a.58.58,0,1,0,.6-1c-2.6-1.7-6-2.5-8.3,0a.57.57,0,1,0,.8.8Z" transform="translate(-63.73 -25.74)"/><path d="M75.3,93.7c2.1,1.5,4.4.4,6.3-.8a.58.58,0,1,0-.6-1c-1.5.9-3.4,2-5.1.8-.6-.4-1.2.6-.6,1Z" transform="translate(-63.73 -25.74)"/><path d="M81.8,93c2.3-1.3,3.5,1.9,5.7,1.9a.6.6,0,1,0,0-1.2c-1.4,0-2.1-1.5-3.3-2a3.41,3.41,0,0,0-3.1.2c-.6.4,0,1.5.7,1.1Z" transform="translate(-63.73 -25.74)"/><path d="M87.3,94.9a2.44,2.44,0,0,0,2.3-.6c.6-.5-.2-1.3-.8-.8a1.31,1.31,0,0,1-1.2.3.57.57,0,0,0-.3,1.1Z" transform="translate(-63.73 -25.74)"/><path d="M99.1,39.5c-1.2,2.4-3.2,2-5.3,1.6a34.08,34.08,0,0,0-4.6-.5.6.6,0,1,0,0,1.2c3.6.2,8.8,2.6,10.9-1.7.4-.6-.6-1.3-1-.6Z" transform="translate(-63.73 -25.74)"/><path d="M99.1,28c4.9-2.9,6.9,1,11,1.8a21.66,21.66,0,0,0,3.6.1,8.33,8.33,0,0,1,6.2,1.7,17.26,17.26,0,0,1,1.7,3.3,6.25,6.25,0,0,0,3,3c1.9,1.1,3.9,1.5,5.4,3.3,2.1,2.5,2.5,5.6,2.4,8.8a.6.6,0,1,0,1.2,0c.1-3.9-.5-7.9-3.5-10.7-1.2-1.1-2.5-1.3-3.8-2.1-3.6-2.3-3.3-4.6-6-6.8a6.93,6.93,0,0,0-3.2-1.6c-3.6-.9-5.8.3-9.6-1.5-3.3-1.5-5.5-2.4-9-.4-.6.5,0,1.5.6,1.1Z" transform="translate(-63.73 -25.74)"/><path d="M132.2,49.8a7.09,7.09,0,0,0,.8,4.7c1.2,2.5,3.9,5.8,1.1,8.2-.6.5.3,1.4.8.8,4.6-4-2.4-9-1.6-13.4.2-.8-1-1.1-1.1-.3Z" transform="translate(-63.73 -25.74)"/><path d="M134.8,62.5a2.72,2.72,0,0,0-2.1,3.4,8.19,8.19,0,0,0,1.8,3.3c1.5,2.4,1.6,4.4-.1,6.8-.5.6.6,1.2,1,.6,1.1-1.6,2.1-3.1,1.5-5.1-.4-1.5-5.2-7.2-1.9-7.9a.57.57,0,1,0-.2-1.1Z" transform="translate(-63.73 -25.74)"/><path d="M134.2,75.9a2.62,2.62,0,0,0-2,3.1,5.44,5.44,0,0,0,2.3,3.6c.6.4,1.2-.6.6-1-1.4-1-2.8-3.7-.6-4.5.8-.3.4-1.5-.3-1.2Z" transform="translate(-63.73 -25.74)"/><path d="M134.1,82.4c.5.7,1.2,1.5,1.1,2.4-.1,1.5-.9,1.4-1.7,2a3.09,3.09,0,0,0-1.1,1.6c-.6,1.8.3,3.4,1.5,4.7.5.6,1.4-.3.8-.8-1.7-1.8-1.7-3.3.3-5a5.73,5.73,0,0,0,1.1-1.1c.7-1.5-.1-3.1-1-4.3-.4-.7-1.4-.1-1,.5Z" transform="translate(-63.73 -25.74)"/><path d="M134.1,93a3.92,3.92,0,0,1-3.5.2c-.9-.3-1.4-1.2-2.3-1.6-1.3-.5-2.8.5-4,1.1-.7.3-.1,1.4.6,1,1.5-.7,2.4-1,4.1-.1a8.87,8.87,0,0,0,1.7.8,5.11,5.11,0,0,0,4-.5c.7-.2.1-1.2-.6-.9Z" transform="translate(-63.73 -25.74)"/><path d="M123.9,92.8c-.8-.1-1.6.2-2.4.1s-1.3-.5-2-.6a2.87,2.87,0,0,0-2.8,1.2c-.5.6.3,1.4.8.8,1.1-1.3,2-.8,3.4-.4,1,.3,1.9-.1,2.9,0s.9-1,.1-1.1Z" transform="translate(-63.73 -25.74)"/><path d="M116.6,93.8c-.6.1-1.1.5-1.7.5a7,7,0,0,1-1.9-.6,2.16,2.16,0,0,0-2.2.5c-.5.6.3,1.4.8.8.7-.8,2.1.3,2.8.4a6.44,6.44,0,0,0,2.4-.5.56.56,0,1,0-.2-1.1Z" transform="translate(-63.73 -25.74)"/><path d="M127.9,72.2c-3.7-2.5.3-5.5.6-8.5a5.26,5.26,0,0,0-1.8-4.5c-.6-.5-1.4.3-.8.8,3.3,3.1-.3,5.5-.8,8.7a4.39,4.39,0,0,0,2.2,4.4c.6.6,1.2-.5.6-.9Z" transform="translate(-63.73 -25.74)"/><path d="M126.7,59.5c-1.2-2.6.4-5.2-.7-7.7-.8-1.7-2.6-2.6-4-3.6-.6-.5-1.2.6-.6,1,.8.6,1.6,1.1,2.4,1.7,1.4,1.2,1.4,2.6,1.2,4.4a7.58,7.58,0,0,0,.7,4.7c.3.8,1.3.2,1-.5Z" transform="translate(-63.73 -25.74)"/><path d="M122,48.3a8.19,8.19,0,0,1-2.7-3.4,3.39,3.39,0,0,0-1.4-1.5,7,7,0,0,0-1.9-.6c-2.1-.4-3.5-.4-4.9-2.3-.5-.6-1.5,0-1,.6a6.65,6.65,0,0,0,5.1,2.8c1.7.2,2.2.5,3.2,2.1.3.5.4.9.7,1.3a11,11,0,0,0,2.3,2c.6.5,1.2-.6.6-1Z" transform="translate(-63.73 -25.74)"/><path d="M110.8,40.9a2.44,2.44,0,0,0-1.8-2.2c-1.8-.7-4.1.2-4.9-2.1-.3-.7-1.4-.4-1.2.3a4.12,4.12,0,0,0,2.1,2.4c1.1.5,4.4-.1,4.6,1.6a.6.6,0,0,0,1.2,0Z" transform="translate(-63.73 -25.74)"/><path d="M100.1,40.2a3,3,0,0,1,2.6-1.7.6.6,0,1,0,0-1.2A4.3,4.3,0,0,0,99,39.6c-.3.6.7,1.2,1.1.6Z" transform="translate(-63.73 -25.74)"/><path d="M104.4,37.7l-.1-.1c-.5-.5-1.4.3-.8.8l.1.1c.5.6,1.4-.3.8-.8Z" transform="translate(-63.73 -25.74)"/><path d="M127.3,73.7c1.2.4,2.7,1.3,2.3,2.7-.2.7,1,1.1,1.2.3.5-2.2-1.3-3.6-3.2-4.2-.7-.3-1.1.9-.3,1.2Z" transform="translate(-63.73 -25.74)"/><path d="M89.8,40.6a6.74,6.74,0,0,0-6.3.8,9.14,9.14,0,0,0-2,2.4A5.77,5.77,0,0,1,78.8,46c-.9.3-1.9.3-2.8.6-.7.2-.4,1.4.3,1.2,1.9-.5,4.2-.4,5.6-2,.5-.6.6-1.3,1.1-1.9A5.61,5.61,0,0,1,89.6,42a.75.75,0,0,0,.2-1.4Z" transform="translate(-63.73 -25.74)"/><path d="M76.6,46.4c-1.9.2-4.1,1.2-3.9,3.5a6.61,6.61,0,0,0,.5,1.5,5.23,5.23,0,0,1-.2,5c-.9,1.4-2,2.4-2.6,4-.3.7.9,1,1.2.3.8-2.1,2.9-3.4,3.3-5.7a5,5,0,0,0,0-2.1c-.1-.5-.3-.9-.4-1.3-.1-.1-.1-.3-.2-.4-.8-1.3,0-2.5,2.2-3.5.9-.2.9-1.4.1-1.3Z" transform="translate(-63.73 -25.74)"/><path d="M70.2,60.2a6.54,6.54,0,0,0-.5,3.9c.4,1.3,1.7,1.7,2.4,2.8,1.9,3-1.6,5-2.1,7.6a6,6,0,0,0,.9,3.9.58.58,0,1,0,1-.6c-2.7-4.3,3-6.2,1.9-10.1a5.37,5.37,0,0,0-1-1.6c-1.5-1.8-2.3-3.2-1.6-5.6.4-.7-.8-1.1-1-.3Z" transform="translate(-63.73 -25.74)"/><path class="cls-1" d="M84.4,37.6A1.72,1.72,0,0,0,82,36a3.89,3.89,0,0,0-2,1.6,1.48,1.48,0,0,0,2.1,2.1,4.62,4.62,0,0,1,.7-.7l.2-.1.1-.1a.75.75,0,0,1-.9,0l-.5-.5v.1c-.1-.3-.1-.5-.2-.8v.1A1.54,1.54,0,0,0,83,39.2a1.82,1.82,0,0,0,1.4-1.6Z" transform="translate(-63.73 -25.74)"/><path class="cls-1" d="M78.6,89.7c.6.2,1.1.5,1.7.7s1-.8.5-1.1a7,7,0,0,1-1.6-1.4c-.2.3-.5.6-.7.9a10.71,10.71,0,0,1,2.2,1.5c.2-.3.5-.6.7-.9a7.63,7.63,0,0,1-1.7-1.3c-.2.3-.5.6-.7.9a11.91,11.91,0,0,1,1.5.9c.2-.3.4-.7.6-1a7.64,7.64,0,0,1-2.3-1.7L78,88c1.4,1.1,2.8,2.1,4.3,3.1.2-.3.4-.7.6-1-.8-.5-1.5-.9-2.3-1.4-.2.3-.4.7-.6,1,1.3.7,2.6,1.4,3.9,2,.2-.4.3-.7.5-1.1a6.36,6.36,0,0,1-1.8-.6c-.1.4-.2.7-.3,1.1a12.26,12.26,0,0,1,3.3.8c0-.4-.1-.7-.1-1.1h-.3c-.6-.1-.8.9-.3,1.1.8.4,1.5.7,2.3,1.1.2-.4.3-.7.5-1.1-.6-.2-1.2-.5-1.8-.7s-1,.7-.5,1.1a18.57,18.57,0,0,0,1.9,1.1c.2-.4.3-.7.5-1.1-.5-.1-1-.1-1.4-.2-.6-.1-1.1.8-.5,1.1a4.92,4.92,0,0,0,2.9.6c.4,0,.9-.7.4-1a3.73,3.73,0,0,0-2.3-1c-.7-.1-1.1,1-.3,1.1a3.12,3.12,0,0,1,1.8.7c.1-.3.3-.7.4-1a3.1,3.1,0,0,1-2.3-.4c-.2.4-.3.7-.5,1.1.5.1,1,.1,1.4.2.6.1,1.1-.7.5-1.1s-1.3-.7-1.9-1.1c-.2.4-.3.7-.5,1.1.6.2,1.2.5,1.8.7s1.1-.8.5-1.1c-.8-.4-1.5-.7-2.3-1.1-.1.4-.2.7-.3,1.1a1.49,1.49,0,0,0,.9-.2c.5-.2.3-.9-.1-1.1a15.53,15.53,0,0,0-3.6-.8c-.6-.1-.8.8-.3,1.1a7.61,7.61,0,0,0,2.1.8c.6.1,1.1-.8.5-1.1-1.3-.6-2.6-1.3-3.9-2a.58.58,0,1,0-.6,1c.8.5,1.5.9,2.3,1.4a.58.58,0,1,0,.6-1A38.07,38.07,0,0,1,79,87.2c-.6-.5-1.4.3-.8.8a7.9,7.9,0,0,0,2.5,1.9.58.58,0,0,0,.6-1,7.46,7.46,0,0,0-1.5-.9.57.57,0,0,0-.7.9A9,9,0,0,0,81,90.4c.6.3,1.2-.5.7-.9a13.09,13.09,0,0,0-2.4-1.7.57.57,0,0,0-.7.9,7,7,0,0,0,1.9,1.5c.2-.4.3-.7.5-1.1-.6-.2-1.1-.5-1.7-.7-1.1-.1-1.4,1-.7,1.3Z" transform="translate(-63.73 -25.74)"/><path class="cls-1" d="M106.6,34.2c-.4-.6-1-1.8-1.8-1.6-.4.1-.6.4-.9.7a2.79,2.79,0,0,1-1.8.6c.1.4.2.7.3,1.1.2-.1,1.4-.5.9-.1-.2.1-.8.3-1,.1.1.1.1.3.2.4,0,.3,1,.2,1.2.2.5-.1.5-.8.1-1.1l-.1-.1a1.38,1.38,0,0,1,.3.4,1.27,1.27,0,0,1-.6-.1,1.38,1.38,0,0,0,.4.3c-.1.1-.2.3-.3.4a.75.75,0,0,1,.5.1,2.54,2.54,0,0,1,.7.2c.7.3,1-.9.3-1.1s-2.4-.8-2.5.5c-.1,1,1.2,1.2,1.8.6a1,1,0,0,0-.7-1.7c-1,0-1.1,1.2-.4,1.7,0-.4.1-.7.1-1.1-.6.1-1-.3-1.5,0a.83.83,0,0,0-.5,1c.2,1,1.5.9,2.3.7a1.46,1.46,0,0,0,1-2c-.5-1-2-.7-2.8-.2a.59.59,0,0,0,.3,1.1,3.84,3.84,0,0,0,2.1-.5c.2-.1.6-.7.8-.7,0,0,.5.8.6.9.5.5,1.5-.1,1-.7Z" transform="translate(-63.73 -25.74)"/><path class="cls-1" d="M132.3,50.3a2.84,2.84,0,0,1-.4-1.3c-.1-.7-1.2-.5-1.2.2,0,1.3.1,2.6.1,3.9.3-.1.7-.3,1-.4a4.08,4.08,0,0,1-1.3-2.7c-.4.1-.8.2-1.1.3a14,14,0,0,1,1,3.5c.1.5.7.5,1,.3.5-.5.4-1.2.4-1.9v-3h-1.2a23.48,23.48,0,0,1,.1,2.6.6.6,0,1,0,1.2,0,11.11,11.11,0,0,0-.1-2.6c-.1-.7-1.2-.8-1.2,0v2.1c0,.3.2,1.7-.1,1.9l1,.3a14,14,0,0,0-1-3.5.57.57,0,0,0-1.1.3,6.49,6.49,0,0,0,1.6,3.2.58.58,0,0,0,1-.4c0-1.3-.1-2.6-.1-3.9-.4.1-.8.1-1.2.2a4.42,4.42,0,0,0,.6,1.6c.3.5,1.4-.1,1-.7Z" transform="translate(-63.73 -25.74)"/><path class="cls-1" d="M113.3,92.6a3.81,3.81,0,0,0-1.8.3.57.57,0,1,0,.3,1.1c1.3-.2,2.5-.5,3.8-.8.5-.1.6-1,0-1.1a2.21,2.21,0,0,0-1.6,0c.1.4.2.8.3,1.1a21.76,21.76,0,0,0,2.7-1.1c.7-.3.1-1.3-.6-1-.4.2-.9.4-1.3.6-.6.3-.2,1.3.5,1.1a17.1,17.1,0,0,0,3.3-1.7c.7-.4.1-1.3-.6-1-.2.1-.5.2-.7.3.2.3.4.7.6,1a25.43,25.43,0,0,0,2.8-1.6c-.2-.3-.5-.6-.7-.9l-.6.6c.3.2.6.5.9.7,1.5-2,4-3.8,5.7-5.6l-.8-.8a16.61,16.61,0,0,1-1.3,1.4c.3.2.6.5.9.7a21.88,21.88,0,0,1,2.5-3.7c-.3-.2-.6-.5-.9-.7-.5.9-.9,1.9-1.4,2.8-.3.7.7,1.3,1,.6.5-.9.9-1.9,1.4-2.8.3-.6-.5-1.3-.9-.7a27,27,0,0,0-2.7,3.9c-.3.6.5,1.2.9.7a16.61,16.61,0,0,1,1.3-1.4c.5-.6-.3-1.4-.8-.8-1.9,2-4.3,3.6-5.9,5.8a.57.57,0,0,0,.9.7l.6-.6a.57.57,0,0,0-.7-.9,25.43,25.43,0,0,1-2.8,1.6c-.7.3-.1,1.3.6,1,.2-.1.5-.2.7-.3-.2-.3-.4-.7-.6-1a17.28,17.28,0,0,1-3,1.6c.2.4.3.7.5,1.1.4-.2.9-.4,1.3-.6-.2-.3-.4-.7-.6-1a24.43,24.43,0,0,1-2.4,1,.57.57,0,0,0,.3,1.1h1V92.2c-1.2.3-2.5.6-3.8.8.1.4.2.8.3,1.1a7.72,7.72,0,0,1,1.5-.2c.6-.2.6-1.3-.1-1.3Z" transform="translate(-63.73 -25.74)"/><path class="cls-1" d="M124.7,91a3.17,3.17,0,0,0-1.5-.6c-.7,0-1.3.5-2,.5a.6.6,0,1,0,0,1.2l.6.3c0-.3.1-.6.1-.9a2.77,2.77,0,0,1-.9-.1c-.1.3-.2.7-.3,1a30.05,30.05,0,0,0,3.2-.7,14.24,14.24,0,0,0,1.6-.5c.2-.1,1.6-.4.8-.1a5.5,5.5,0,0,0,.7.9c.3-.2.6-.3.9-.5.7.1,1.1-1,.3-1.1-2.3-.4-1.4,2.6-.1,1.7a1,1,0,0,0,.1-1.5c-.8-.6-1.8.1-2.3.7-.3.4.2,1,.7.9,1-.3,1.9-2,.5-2.6-.7-.3-1.8.4-2.4.6a20.69,20.69,0,0,1-4.3,1,.64.64,0,0,0-.3,1,1.82,1.82,0,0,0,2.3.2c.3-.2.4-.7.1-.9a2,2,0,0,0-1.4-.6v1.2c1.1,0,1.8-.8,2.9-.1.7.5,1.3-.6.7-1Z" transform="translate(-63.73 -25.74)"/><path class="cls-1" d="M117.9,37.5a11.69,11.69,0,0,1-1.4-3,4.23,4.23,0,0,0-.4-1.2c0-.5-.3-.7-.8-.5a4.35,4.35,0,0,1-.7-.6c-.1.3-.2.7-.3,1,.1,0,.3.1.4.1.2-.3.4-.7.6-1a1.07,1.07,0,0,1-.9-.7l-.7.7a2.13,2.13,0,0,1,1.1,1,5.5,5.5,0,0,1,.7-.9c-.1-.1-.2-.2-.2-.3-.3.2-.6.3-.9.5a13.3,13.3,0,0,1,1.9,1.4c.6.5,1.4-.3.8-.8s-1.4-1.1-2.1-1.6a.63.63,0,0,0-.9.5,1.32,1.32,0,0,0,1.1,1.4.64.64,0,0,0,.7-.9,3.14,3.14,0,0,0-1.8-1.6.54.54,0,0,0-.7.7,2.44,2.44,0,0,0,1.8,1.6.61.61,0,0,0,.6-1,1.34,1.34,0,0,0-1.6-.4c-.5.1-.5.7-.3,1,.5.6,1.8,1.6,2.7.9.7-.5.3-1.6-.4-1.9s-1.3.4-1.2,1.1a12.58,12.58,0,0,0,2.1,4.9c.2.9,1.2.3.8-.4Z" transform="translate(-63.73 -25.74)"/><path class="cls-2" d="M100,30.2l.5-.5-.8-.8c-.1.1-.2.3-.3.4a.6.6,0,0,0,.4,1,1.27,1.27,0,0,1,.6.1c-.2-.3-.4-.5-.6-.8-.1.3-.2.6-.3,1s.4.9.9.7a2.19,2.19,0,0,0,.5-.3,2.36,2.36,0,0,0-.9-.8,11,11,0,0,1-.9,1.4.59.59,0,0,0,.5.9c-.1,0,1,0,.9-.2s-.1-.4-.2-.6a3.55,3.55,0,0,1-.4.9c-.2.4,0,1,.5.9a1.27,1.27,0,0,0,.6-.1l-.6-.6a1.69,1.69,0,0,1-.3,1,.54.54,0,0,0,.7.7,6.89,6.89,0,0,0,.8-.3l-.7-.7a3.55,3.55,0,0,1-.4.9.54.54,0,0,0,.7.7c.3-.1.5-.2.8-.3a5.5,5.5,0,0,0-.7-.9c-.2.3-.3.7-.5,1a.57.57,0,0,0,.9.7c.2-.1.4-.3.6-.4a5.5,5.5,0,0,1-.9-.7,3.55,3.55,0,0,1-.4.9.58.58,0,0,0,1,.6,6.39,6.39,0,0,0,.8-1.9.61.61,0,0,0-1-.6,2.28,2.28,0,0,1-1.2.6l.7.7c.2-1.1.5-2.2.8-3.3a.64.64,0,0,0-.6-.8,4.53,4.53,0,0,0-1.6.3l.7.7c.2-.7.5-1.3.7-2,.2-.5-.3-.8-.7-.7a4.25,4.25,0,0,1-1.1.2c.3.2.5.4.8.6.1-.3.1-.6.2-.9.3-.6-.3-1-.8-.8a3.55,3.55,0,0,0-.9.4c-.7.3-.1,1.3.6,1a3.55,3.55,0,0,0,.9-.4l-.8-.8a2.6,2.6,0,0,0-.4,1.5.64.64,0,0,0,.8.6,4.25,4.25,0,0,1,1.1-.2l-.7-.7c-.2.7-.5,1.3-.7,2-.1.4.3.9.7.7a1.91,1.91,0,0,1,1.3-.2c-.2-.3-.4-.5-.6-.8-.3,1.1-.6,2.2-.8,3.3-.1.4.3.9.7.7a4.61,4.61,0,0,0,1.7-.9c-.3-.2-.7-.4-1-.6a4.42,4.42,0,0,1-.6,1.6c.3.2.7.4,1,.6a4.33,4.33,0,0,0,.5-1.2c.2-.5-.5-.9-.9-.7a4.7,4.7,0,0,0-.9.6c.3.2.6.5.9.7.2-.3.3-.7.5-1s-.1-1.1-.7-.9c-.3.1-.5.2-.8.3l.7.7a3.55,3.55,0,0,1,.4-.9.54.54,0,0,0-.7-.7,6.89,6.89,0,0,0-.8.3l.7.7a3.53,3.53,0,0,0,.3-1.4.65.65,0,0,0-.6-.6,1.27,1.27,0,0,0-.6.1c.2.3.3.6.5.9.3-.5.8-1.3.3-1.8s-1,0-1.6,0c.2.3.3.6.5.9a7.1,7.1,0,0,1,1-1.4.59.59,0,0,0-.8-.8,2.19,2.19,0,0,0-.5.3,5.5,5.5,0,0,1,.9.7c.1-.3.2-.6.3-1s-.2-.7-.6-.8a1.27,1.27,0,0,1-.6-.1c.1.3.3.7.4,1a1.79,1.79,0,0,0,.5-.7c.3-.5-.3-1.2-.8-.8a5,5,0,0,0-.8.7c0,.9.9,1.8,1.3,1.2Z" transform="translate(-63.73 -25.74)"/><path class="cls-2" d="M75.7,45.3c1.3-.5,2.7-.2,3.6-1.3,1.4-1.6,2.6-5.4,5.5-4.6a.57.57,0,1,0,.3-1.1c-1.9-.5-3.3.6-4.6,1.8a12.42,12.42,0,0,0-1.7,2.3c-.9,1.4-2.1,1.2-3.5,1.8-.7.3-.3,1.4.4,1.1Z" transform="translate(-63.73 -25.74)"/><path class="cls-2" d="M70.3,88.9c-1-2.6.6-5.6-.3-8.3-1.3-4.2-3.4-7.2-2.6-11.9.1-.7-1-1.1-1.1-.3a14.93,14.93,0,0,0,1.1,9.1,14.72,14.72,0,0,1,1.5,8.3,6.61,6.61,0,0,0,.3,3.4c.2.7,1.4.4,1.1-.3Z" transform="translate(-63.73 -25.74)"/><path class="cls-2" d="M68.9,61.3c-.3-2.8,2-4.1,2.7-6.5.6-2.2-1.6-6.2,1.1-7.6.7-.3.1-1.4-.6-1-1.8.9-2,2.7-1.8,4.6.2,1.6.5,3-.2,4.6a22.63,22.63,0,0,1-1.3,2,6.12,6.12,0,0,0-1.1,3.9c.1.7,1.3.8,1.2,0Z" transform="translate(-63.73 -25.74)"/><path class="cls-2" d="M131.3,90.9a3.48,3.48,0,0,1-1.1-2.7c.2-1.5,1.2-1.1,1.8-1.8a3.39,3.39,0,0,0,.9-1.4c.5-1.8-1.1-3.5-1.3-5.2-.1-.8-1.3-.4-1.1.3.3,1.9,2.2,3.7.5,5.6-.5.6-1.1.7-1.5,1.5-.9,1.6-.1,3.3,1.1,4.5.4.6,1.3-.2.7-.8Z" transform="translate(-63.73 -25.74)"/><path class="cls-2" d="M132.5,72.8c-1.4-1.9-2.7-2.6-2-6,.3-1.4,1.2-2.4,1.4-3.7.7-3.7-3.4-5.3-2.6-9.2.2-.7-1-1.1-1.1-.3a5.54,5.54,0,0,0,.1,3.6c.1.4.5.8.6,1.2a3.64,3.64,0,0,1,.9,3.9,3.41,3.41,0,0,1,.1,3.1c-.2,1.4-1.1,2.4-.9,4,.2,1.8,1.6,2.7,2.6,4.1.3.6,1.3,0,.9-.7Z" transform="translate(-63.73 -25.74)"/><path class="cls-2" d="M118.7,35.7c-.2,2.4,1.2,4,3.1,5.1,1.2.7,2.9.9,3.9,1.7,1.7,1.2,2.5,3.4,2.8,5.4.1.8,1.3.4,1.1-.3a9.53,9.53,0,0,0-2.7-5.7c-2.4-2.1-7.6-1.7-7.2-6.2.3-.7-.9-.7-1,0Z" transform="translate(-63.73 -25.74)"/></svg>