<svg id="Layer_1" data-name="Layer 1" xmlns="http://www.w3.org/2000/svg" viewBox="0 0 63.12 63.01"><defs><style>.cls-1,.cls-4{fill:#fff;}.cls-1,.cls-2{stroke:#231f20;}.cls-1,.cls-2,.cls-3,.cls-5{stroke-miterlimit:10;}.cls-2{fill:none;stroke-width:0.1px;}.cls-3{stroke:#000;stroke-width:2px;}.cls-5{fill:#231f20;stroke:#e6e7e8;}</style></defs><title>Boxershort</title><g id="_Group_" data-name="&lt;Group&gt;"><path class="cls-1" d="M98.8,306.9a128.66,128.66,0,0,1-.3,21.5l-2.7.1c-4.5-.1-9.1,1.1-13.7,1-3.9-.1-7.8-1.1-11.6-.7-.2-8.2-.5-16.4-.7-24.6,0-1.2-.1-2.4-.2-3.6s-.3-2.5-.4-3.7a47,47,0,0,1,0-6.5l.3-6.6a79.06,79.06,0,0,1,.6-8.4c.3-2,.6-4,1.1-6v-.6a131.17,131.17,0,0,0,15.3,1.1c4.5.1,9.1-.1,13.6-.2s9,0,13.5.1c5,.1,10,.3,15,.7a37.13,37.13,0,0,1,1.1,5.8c.3,2.7.4,5.5.6,8.3.1,2.2.2,4.3.3,6.5a45.57,45.57,0,0,1,0,6.4c-.1,1.2-.3,2.4-.4,3.6s-.1,2.4-.2,3.5c-.2,7.9-.4,15.9-.7,23.8-8.6,2.4-17.9-.4-26.9.5l-.4-.2a2.29,2.29,0,0,1-.1-1.4c.2-6.7.3-13.4.5-20.1l.1-.2a3.21,3.21,0,0,0-2.1-2.4c-1.1-.2-2.4.6-2.3,1.7,0,.3.1.5.1.8Z" transform="translate(-68.58 -266.99)"/><path class="cls-2" d="M98.1,307.4a.75.75,0,0,0,.1-.5c0-.2-.1-.5-.1-.8a2,2,0,0,1,2.3-1.7,3.21,3.21,0,0,1,2.1,2.4" transform="translate(-68.58 -266.99)"/><path class="cls-2" d="M70.3,328.7h.2c3.9-.3,7.7.7,11.6.7,4.6.1,9.1-1.1,13.7-1a12.1,12.1,0,0,1,1.9.1" transform="translate(-68.58 -266.99)"/><path class="cls-2" d="M102.4,328.8c9-.9,18.2,1.9,26.9-.5.1,0,.2-.1.3-.1" transform="translate(-68.58 -266.99)"/><path class="cls-2" d="M71.3,268.6a131.17,131.17,0,0,0,15.3,1.1c4.5.1,9.1-.1,13.6-.2s9,0,13.5.1c5,.1,10,.3,15,.7h.3" transform="translate(-68.58 -266.99)"/><path class="cls-2" d="M70.5,328.8v-.1c-.2-8.2-.5-16.4-.7-24.6,0-1.2-.1-2.4-.2-3.6s-.3-2.5-.4-3.7a47,47,0,0,1,0-6.5l.3-6.6a79.06,79.06,0,0,1,.6-8.4c.3-2,.6-4,1.1-6" transform="translate(-68.58 -266.99)"/><path class="cls-2" d="M129.3,328.7v-.5c.2-7.9.4-15.9.7-23.8,0-1.2.1-2.4.2-3.5s.3-2.4.4-3.6a45.56,45.56,0,0,0,0-6.4c-.1-2.2-.2-4.3-.3-6.5a77.2,77.2,0,0,0-.6-8.3c-.3-1.9-.6-3.9-1.1-5.8v-.1" transform="translate(-68.58 -266.99)"/><path class="cls-2" d="M98.5,328.4a128.52,128.52,0,0,0,.3-21.5" transform="translate(-68.58 -266.99)"/><path class="cls-2" d="M102.1,328.5a2.29,2.29,0,0,1-.1-1.4c.2-6.7.3-13.4.5-20.1" transform="translate(-68.58 -266.99)"/></g><path d="M71.1,328.3c-.9-8.9-.8-18-.9-27a.6.6,0,0,0-1.2,0c.1,9,0,18,.9,27,.1.8,1.3.8,1.2,0Z" transform="translate(-68.58 -266.99)"/><path d="M70.1,301.2c-.2-11-.3-21.4,1.8-32.3a.62.62,0,0,0-1.2-.3c-2.2,10.9-2.1,21.5-1.9,32.6.1.7,1.3.7,1.3,0Z" transform="translate(-68.58 -266.99)"/><path d="M70.6,329.1c4.2.3,8.5.8,12.7.8,4.9-.1,9.7-.8,14.6-.4.8.1.8-1.1,0-1.2-4.9-.4-9.7.3-14.6.4a108.26,108.26,0,0,1-12.7-.8c-.8-.1-.8,1.1,0,1.2Z" transform="translate(-68.58 -266.99)"/><path d="M99.1,328.8c.1-7.4.2-14.7.3-22.1a.6.6,0,0,0-1.2,0c-.1,7.4-.2,14.7-.3,22.1-.1.8,1.1.8,1.2,0Z" transform="translate(-68.58 -266.99)"/><path d="M99.4,306.9a3.35,3.35,0,0,1,0-1c.1-.4.5-.5.9-.6a.76.76,0,0,1,.9.2,1.18,1.18,0,0,1,.1,1,.62.62,0,0,0,1.2.3,2.36,2.36,0,0,0-.3-2,1.9,1.9,0,0,0-1.7-.7,2.5,2.5,0,0,0-1.8.8c-.6.6-.3,1.4-.4,2.1s1,.7,1.1-.1Z" transform="translate(-68.58 -266.99)"/><path class="cls-3" d="M72.12,269.2c8.81,1.7,18.1.9,27.1.8a.6.6,0,0,0,0-1.2c-8.81.1-18.1.9-26.81-.8-.77-.1-1.06,1.1-.29,1.2Z" transform="translate(-68.58 -266.99)"/><path class="cls-3" d="M99.79,270.08c4.85.17,9.7.17,14.55.25,4.56.08,9.41.76,14,.34.78-.08.78-1.1,0-1-4.56.42-9.41-.25-14-.34-4.85-.08-9.7-.08-14.55-.25a.51.51,0,1,0,0,1Z" transform="translate(-68.58 -266.99)"/><path d="M131.6,302.8c.2-11.1.3-21.6-1.9-32.6-.1-.8-1.3-.4-1.2.3,2.1,10.9,2.1,21.3,1.8,32.3.1.8,1.3.8,1.3,0Z" transform="translate(-68.58 -266.99)"/><path d="M130.8,327.9c.9-8.9.8-18,.9-27a.6.6,0,0,0-1.2,0c-.1,9,0,18-.9,27-.1.7,1.1.7,1.2,0Z" transform="translate(-68.58 -266.99)"/><path d="M129.7,327.8c-4.2.3-8.5.8-12.7.8-4.9-.1-9.7-.8-14.6-.4-.8.1-.8,1.3,0,1.2,4.9-.4,9.7.3,14.6.4a108.26,108.26,0,0,0,12.7-.8c.7,0,.8-1.2,0-1.2Z" transform="translate(-68.58 -266.99)"/><path d="M102.3,329c.1-7.4.2-14.7.3-22.1a.6.6,0,0,0-1.2,0c-.1,7.4-.2,14.7-.3,22.1a.6.6,0,0,0,1.2,0Z" transform="translate(-68.58 -266.99)"/><path class="cls-4" d="M126.8,316.4l.8-.8c-.3-.2-.6-.3-.9-.5a4.19,4.19,0,0,0,.4,1.6c.2.5,1,.3,1.1-.1.2-.9.2-1.1.4-2-.4.1-.8.1-1.2.2a11.63,11.63,0,0,1,.4,1.8c.1.6,1,.5,1.2,0a8.08,8.08,0,0,0,.5-2.7c-.4.1-.8.1-1.2.2l.3,2.1c.1.7,1.1.5,1.2-.2a7.39,7.39,0,0,0,0-2.1c-.4.1-.8.1-1.2.2,0,.2.1.3.1.5.1.7,1.1.5,1.2-.2.1-2.4.3-4.8.4-7.2s-.6-5-.2-7.4c-.4-.1-.8-.1-1.2-.2-.1,1.2-.3,2.4-.4,3.7-.1.7,1,.8,1.2.2a9.67,9.67,0,0,0,.4-2.9h-1.2c.1.8.2,1.7.3,2.5a.6.6,0,0,0,1.2,0,24.1,24.1,0,0,0,0-3.8c-.4.1-.8.1-1.2.2,0,.4.1.8.1,1.2a.6.6,0,0,0,1.2,0,7.08,7.08,0,0,0-.1-1.5c-.1-.7-1.2-.5-1.2.2a24.1,24.1,0,0,1,0,3.8h1.2c-.1-.8-.2-1.7-.3-2.5a.6.6,0,1,0-1.2,0,5.82,5.82,0,0,1-.3,2.6c.4.1.8.1,1.2.2.1-1.2.3-2.4.4-3.7.1-.7-1.1-.8-1.2-.2-.4,2.2.1,4.2.2,6.4,0,2.8-.2,5.6-.4,8.4.4-.1.8-.1,1.2-.2,0-.2-.1-.3-.1-.5-.1-.7-1.2-.5-1.2.2a7.39,7.39,0,0,1,0,2.1c.4-.1.8-.1,1.2-.2l-.3-2.1c-.1-.7-1.1-.5-1.2.2s-.3,1.6-.5,2.3h1.2a11.63,11.63,0,0,0-.4-1.8c-.2-.7-1.1-.5-1.2.2s-.2,1.1-.3,1.7c.4,0,.7-.1,1.1-.1-.1-.3-.2-.7-.3-1a.59.59,0,0,0-.9-.5c-.6.5-.6.4-1,1-.7.5.2,1.3.7.7Z" transform="translate(-68.58 -266.99)"/><path class="cls-4" d="M128.2,321.7a24.6,24.6,0,0,0,1.1-4.5h-1.2a10.93,10.93,0,0,0,.5,1.7c.2.4.9.4,1,0a2.59,2.59,0,0,0-.4-3c-.3-.4-1.1-.1-1,.4.1,2,.2,4.1.1,6.1h1.2V321h-1.2a44.22,44.22,0,0,1-.2,6.3c-.1.6.9.8,1.1.3a1.16,1.16,0,0,0,.2-1c-.1-.8-1.3-.8-1.2,0v.4l1.1.3a44.22,44.22,0,0,0,.2-6.3.6.6,0,1,0-1.2,0,6.55,6.55,0,0,0,0,1.4.6.6,0,0,0,1.2,0,41.41,41.41,0,0,0-.1-6.1c-.3.1-.7.3-1,.4.1.5.1,1,.2,1.5h1a3.26,3.26,0,0,1-.4-1.4.62.62,0,0,0-1.2,0,24.6,24.6,0,0,1-1.1,4.5c-.1.9,1.1,1.2,1.3.4Z" transform="translate(-68.58 -266.99)"/><path class="cls-4" d="M106,276.3c.9-.3,1.8-.6,2.8-.9.3-.1.8-.3,1.2-.4s.4-.2.5.1c.1-.4,0-.5-.2-.3-.2-.3-.4-.5-.6-.8h-.2c-.3.2-.6.5-.9.7a1.27,1.27,0,0,0,.1.6l.4-.4H109c-.7-.2-1.1,1-.3,1.2a.85.85,0,0,0,.7,0,.43.43,0,0,0,.4-.4c.2-.8.2-1.6-.6-2a.64.64,0,0,0-.9.7,1.27,1.27,0,0,0,2.5,0c.1-.4-.2-.7-.6-.8-2.3-.1-.3,5.1,1.6,2.4a1.43,1.43,0,0,0-.8-2.3,6.35,6.35,0,0,0-2.3.5l-3,.9c-.8.3-.4,1.5.3,1.2Z" transform="translate(-68.58 -266.99)"/><path class="cls-5" d="M74.41,279.08c0,10.27.3,18.59.67,18.59" transform="translate(-68.58 -266.99)"/><path class="cls-5" d="M126.18,279.08c0,10.27-.3,18.59-.67,18.59" transform="translate(-68.58 -266.99)"/><path class="cls-5" d="M81,275.63c0,10.27.3,18.59.67,18.59" transform="translate(-68.58 -266.99)"/><path class="cls-5" d="M120.19,275.19c0,10.27-.3,18.59-.67,18.59" transform="translate(-68.58 -266.99)"/></svg>