<svg id="Layer_1" data-name="Layer 1" xmlns="http://www.w3.org/2000/svg" viewBox="0 0 66.19 46"><defs><style>.cls-1{fill:#2e1018;}.cls-2{fill:#381e24;}</style></defs><title>Cap</title><path class="cls-1" d="M116.7,32.1c-.7-.2-1.4-.3-2.1-.5-.3,1.2-.6,2.3-1,3.5-.2.1-.4.3-.6.4-.5.9-1,1.8-1.6,2.7.6-.1,1.2-.1,1.8-.2l-2.5,2.5c.5.6,1,1.1,1.5,1.7.5-.9,1-1.8,1.6-2.7-.6-.2-1.1-.3-1.7-.5-1.7-.9-3.8,1.5-2.2,2.8.7.6,1.5,1.2,2.2,1.8l1.8-3a12.09,12.09,0,0,0-1.8-.5c-2.1-.9-3.9,2.1-1.8,3.1,8.2,3.8,17.6,13.3,17.2,22.9a1.85,1.85,0,0,0,3.1,1.3c5.7-6.4,3.8-14.4,1.1-21.7-1.1.5-2.2.9-3.3,1.4a27.58,27.58,0,0,1,.8,2.7c1.2-.2,2.4-.3,3.5-.5-.1-.3-.2-.5-.3-.8-.8-2.2-4.3-1.2-3.5,1,.1.3.2.5.3.8.6,1.8,3.8,1.7,3.5-.5a11.69,11.69,0,0,0-1.3-4.5c-.9-1.8-4-.6-3.3,1.4,2.1,5.9,4.6,12.9-.2,18.2,1,.4,2,.8,3.1,1.3.4-10.9-9.7-21.7-19-26-.6,1-1.2,2.1-1.8,3.1a9,9,0,0,0,2.6.9c1.6.4,3.2-1.8,1.8-3-.7-.6-1.5-1.2-2.2-1.8l-2.2,2.8a6.43,6.43,0,0,0,3.5,1,1.85,1.85,0,0,0,1.6-2.7,8.09,8.09,0,0,0-2.1-2.4,1.77,1.77,0,0,0-2.5,2.5c1.9,2,5.4,2.9,6.4-.5,1.1-3.7-2.7-5.2-5.6-5.5-1.4-.1-2.1,1.6-1.6,2.7,1.5,2.9,6.3,5.3,8.1,1.1,1.3-3.1-1.9-8.4-5.3-5.7a3.22,3.22,0,0,0,2.5,5.7c4.4-.6,3.2-6.2-.5-6.8a1.82,1.82,0,0,0-1,3.5,5.42,5.42,0,0,0,3.1.6c2.2.1,2.2-3.5-.1-3.6Z" transform="translate(-68.12 -23.1)"/><path class="cls-1" d="M131.9,54.6a5.94,5.94,0,0,0-.4-.8c-.8-1.5-3.5-.9-3.4.9.1,1.1.2,2.3.2,3.4,1.1-.3,2.2-.6,3.4-.9,0-.6-.1-1.2-.1-1.8-1.2-.2-2.4-.3-3.5-.5,0,1.6.1,3.2.1,4.8,0,2.3,3.5,2.3,3.6,0a26.92,26.92,0,0,0-2.9-13.3c-1-1.9-3.6-.5-3.3,1.4a44.52,44.52,0,0,0,2.3,7.9c1.2-.3,2.3-.6,3.5-1-2.1-5.2-3.8-11.5-8.4-14.9-1.5-1.1-3.3,1-2.5,2.5l5.4,9.3,2.8-2.2a53,53,0,0,1-6.5-7.7l-2.8,2.2a32.15,32.15,0,0,1,4.5,7l2.8-2.2c-2.9-3.5-5.7-7.1-8.6-10.6l-2.5,2.5A95.85,95.85,0,0,1,124.3,51l2.8-2.2c-3.7-3.6-7.4-7.1-11.2-10.7l-2.2,2.8a40.8,40.8,0,0,1,9.8,9.2l2.5-2.5a31.87,31.87,0,0,1-6.5-6.2l-2.2,2.8c3.8,2.4,6.2,6,8.6,9.7,1-.6,2.1-1.2,3.1-1.8a22.48,22.48,0,0,1-3.5-6.9c-1.1.5-2.2.9-3.3,1.4,1.4,1.9,2.7,3.8,4.1,5.7a1.79,1.79,0,0,0,3.1-1.8A92.56,92.56,0,0,0,120.3,35l-2.8,2.2c2.8,3.2,5.5,6.4,8.3,9.6l2.5-2.5c-3.6-3.4-7.1-6.9-10.4-10.6l-2.2,2.8a26.39,26.39,0,0,1,10.9,10.3l2.8-2.2a29.78,29.78,0,0,1-5.2-8.3l-3,1.8c2.8,2.2,4.2,5.1,5.4,8.3,1.1-.5,2.2-.9,3.3-1.4a32.25,32.25,0,0,1-3.2-7.1c-1.1.5-2.2.9-3.3,1.4a32.33,32.33,0,0,1,3.1,5.8c1.1-.5,2.2-.9,3.3-1.4a12.15,12.15,0,0,1-2.2-4.4c-1.1.5-2.2.9-3.3,1.4a19,19,0,0,1,2.1,4c.8,2,3.7.5,3.3-1.4l-.3-1.5c-1.1.5-2.2.9-3.3,1.4.5,1,.9,2.1,1.4,3.1.7,1.6,3.6.8,3.4-.9a18,18,0,0,0-.6-3.2c-1.1.5-2.2.9-3.3,1.4.4.9.9,1.7,1.3,2.6.9,1.8,3.9.6,3.3-1.4a30,30,0,0,0-11.3-16c-.6,1-1.2,2.1-1.8,3.1a10.41,10.41,0,0,1,3.2,3.4l2.5-2.5c-3-1.5-5.9-3.1-8.8-4.8-1.8-1-3.7,1.4-2.2,2.8a49.56,49.56,0,0,0,7.6,6.1c1.7,1.1,3.6-1.4,2.2-2.8-1.8-1.8-3.7-3.6-5.7-5.3l-1.8,3c1.9.7,3.7,1.4,5.5,2.2a1.79,1.79,0,0,0,1.8-3.1,55.48,55.48,0,0,0-7.4-4.4c-1.7-.8-3.9,1.5-2.2,2.8a14.52,14.52,0,0,0,2.6,1.7c.6-1,1.2-2.1,1.8-3.1-.8-.4-1.6-.7-2.4-1.1-2.1-.9-3.9,2.2-1.8,3.1.8.4,1.6.7,2.4,1.1,2.1.9,3.9-2,1.8-3.1l-1.8-1.2-2.2,2.8a49.79,49.79,0,0,1,7.4,4.4c.6-1,1.2-2.1,1.8-3.1-2.1-1-4.2-1.8-6.4-2.6a1.82,1.82,0,0,0-1.8,3c2,1.7,3.9,3.5,5.7,5.3l2.2-2.8a40.65,40.65,0,0,1-6.9-5.5L113.4,31c2.9,1.7,5.8,3.3,8.8,4.8,1.5.8,3.5-.9,2.5-2.5a17.87,17.87,0,0,0-4.4-4.7c-1.9-1.4-3.7,1.7-1.8,3.1a26.41,26.41,0,0,1,9.6,13.8c1.1-.5,2.2-.9,3.3-1.4-.4-.9-.9-1.7-1.3-2.6-.9-1.8-3.9-.6-3.3,1.4.2.7.3,1.5.5,2.2,1.1-.3,2.2-.6,3.4-.9-.5-1-.9-2.1-1.4-3.1-.9-1.9-3.7-.5-3.3,1.4l.3,1.5c1.1-.5,2.2-.9,3.3-1.4a30.47,30.47,0,0,0-2.1-4c-1.1-1.6-3.9-.7-3.3,1.4a16.92,16.92,0,0,0,2.6,5.2c1.1,1.5,4.1.7,3.3-1.4a35.65,35.65,0,0,0-3.5-6.7c-1.1-1.6-3.9-.6-3.3,1.4a35.74,35.74,0,0,0,3.6,8c1,1.7,4.1.6,3.3-1.4-1.5-3.8-3.1-7.4-6.4-9.9-1.2-.9-3.8-.1-3,1.8a34.82,34.82,0,0,0,6.1,9.9c1.4,1.6,3.8-.4,2.8-2.2a29,29,0,0,0-12.2-11.6,1.81,1.81,0,0,0-2.2,2.8c3.3,3.7,6.8,7.2,10.4,10.6a1.77,1.77,0,0,0,2.5-2.5c-2.8-3.2-5.5-6.4-8.3-9.6-1.3-1.5-4,.5-2.8,2.2a86.22,86.22,0,0,1,9.1,15.5c1-.6,2.1-1.2,3.1-1.8-1.4-1.9-2.7-3.8-4.1-5.7-1.1-1.6-4-.7-3.3,1.4a24.33,24.33,0,0,0,3.9,7.7c1.3,1.8,4.4.2,3.1-1.8-2.7-4.3-5.5-8.3-9.9-11-1.9-1.2-3.4,1.3-2.2,2.8a32.61,32.61,0,0,0,7.2,6.7c1.4,1,3.6-1,2.5-2.5a48.12,48.12,0,0,0-11.1-10.5c-1.7-1.1-3.6,1.4-2.2,2.8,3.7,3.6,7.4,7.1,11.2,10.7,1.4,1.4,4.1-.5,2.8-2.2a97.65,97.65,0,0,0-9.3-11.1c-1.6-1.7-4,.8-2.5,2.5,2.9,3.5,5.7,7.1,8.6,10.6,1.3,1.7,3.7-.5,2.8-2.2a39.57,39.57,0,0,0-5.1-7.7c-1.3-1.5-4,.5-2.8,2.2a51.78,51.78,0,0,0,7.1,8.4,1.8,1.8,0,0,0,2.8-2.2l-5.4-9.3-2.5,2.5c3.4,2.6,5.2,9,6.7,12.8.9,2.1,4.3,1.2,3.5-1a35.83,35.83,0,0,1-2.3-7.9c-1.1.5-2.2.9-3.3,1.4a21.57,21.57,0,0,1,2.4,11.4h3.6c0-1.6-.1-3.2-.1-4.8a1.8,1.8,0,0,0-3.5-.5,5.43,5.43,0,0,0,.4,4.5c.8,1.6,3.5.8,3.4-.9-.1-1.1-.2-2.3-.2-3.4-1.1.3-2.2.6-3.4.9a5.94,5.94,0,0,0,.4.8c1.4,2.8,4.5.9,3.4-1.1Z" transform="translate(-68.12 -23.1)"/><path class="cls-1" d="M70.3,52.7a23.93,23.93,0,0,0,.2,13c.5,1.6,3.2,1.9,3.5,0a36.53,36.53,0,0,1,5.5-14.6c-1-.6-2.1-1.2-3.1-1.8-.6,1-1.2,1.9-1.8,2.9-1.3,2,1.7,3.6,3.1,1.8a35.83,35.83,0,0,1,11.4-9.8l-2.2-2.8a9.68,9.68,0,0,1-3.1,1.8c-2.1.9-.3,4,1.8,3.1,7.8-3.3,17-9.7,25.2-4.2.3-1.1.6-2.2.9-3.4-1.2-.4-2.3-.8-3.5-1.2l-1.8,3c.7.3,1.4.6,2.2.9,1.9.8,3.2-2.4,1.4-3.3a20.55,20.55,0,0,0-11.7-2c-1.8.2-2.7,3.2-.5,3.5a51.56,51.56,0,0,0,7.9.6,1.8,1.8,0,0,0,0-3.6c-1.7-.1-3.5-.3-5.2-.4-2-.1-2.4,3-.5,3.5l2.3.6c.2-1.2.3-2.4.5-3.5a14.88,14.88,0,0,1-5.5-.7c-2.2-.7-3.2,2.8-1,3.5a17.35,17.35,0,0,0,6.4.8c2-.1,2.5-3,.5-3.5l-2.3-.6c-.2,1.2-.3,2.4-.5,3.5,1.7.1,3.5.3,5.2.4V36.6a32,32,0,0,1-6.9-.4c-.2,1.2-.3,2.4-.5,3.5a17.74,17.74,0,0,1,9.9,1.5c.5-1.1.9-2.2,1.4-3.3-.7-.3-1.4-.6-2.2-.9-1.7-.7-3,1.8-1.8,3a7,7,0,0,0,6.1,2.3,1.84,1.84,0,0,0,.9-3.4c-9.6-6.3-19.8.3-28.9,4.2.6,1,1.2,2.1,1.8,3.1a13.6,13.6,0,0,0,3.8-2.4c1.6-1.3-.5-3.8-2.2-2.8A43.49,43.49,0,0,0,74.3,52.1c1,.6,2.1,1.2,3.1,1.8.6-1,1.2-1.9,1.8-2.9,1.2-2-1.9-3.8-3.1-1.8a39.61,39.61,0,0,0-5.9,15.5h3.5a19.94,19.94,0,0,1-.2-11.1c.8-2.2-2.6-3.2-3.2-.9Z" transform="translate(-68.12 -23.1)"/><path class="cls-1" d="M108.4,40.1a13.22,13.22,0,0,0-2.2-2.6l-1.8,3,1.6.3a1.75,1.75,0,0,0,2.2-1.3,2.59,2.59,0,0,0-1.6-3,1.75,1.75,0,0,0-2.2,1.3,1.88,1.88,0,0,0,1.3,2.2l-.9-1.5a25.29,25.29,0,0,0,2.2-1.3l-1.6-.3a1.9,1.9,0,0,0-2,.8,1.82,1.82,0,0,0,.3,2.2,9.43,9.43,0,0,1,1,1s.4.5.2.3c.1.2.3.4.4.6a1.79,1.79,0,0,0,2.5.6,1.7,1.7,0,0,0,.6-2.3Z" transform="translate(-68.12 -23.1)"/><path class="cls-1" d="M109.5,32.6a3.47,3.47,0,0,1-2.8-.6c-.4,0-.4,0-.1-.1a.9.9,0,0,1,.5-.1,3.33,3.33,0,0,1,1.4.1c1,.8-.4,1.9-.4,1.1,0-.5.5-.7.8-1s.6-.8,0,0c-.5.6-.8,1.2-1.3,1.7-.6.1-.6.2-.3.3s.3.1.5-.1a9.13,9.13,0,0,0,1.3-.8c.6-.1.6-.4,0-1l-.3.3c-.3.1-.7.6-.9.8a16.37,16.37,0,0,1-2.2,1.2,7.63,7.63,0,0,1,.8,1.1c-.5-1.1,2.3-3.4,2.4-1.3a2.1,2.1,0,0,1-.4,1.1q-1,.15-.3.3c.5-.1,1.7-1.1,2.2-.8-1-.6-1,1.7-1.7.2a2.62,2.62,0,0,1,.4-2.1,2.66,2.66,0,0,1,3.9-.5l1.8-3a18.27,18.27,0,0,1-5.5-2.5c-.5,1.1-.9,2.2-1.4,3.3a20.4,20.4,0,0,1,5.4,1.9c2,1.1,3.8-2,1.8-3.1l-4.8-2.7c-1.7-.9-3.9,1.5-2.2,2.8a19.89,19.89,0,0,0,3.6,2.3c2.1,1,3.9-2.1,1.8-3.1a17.48,17.48,0,0,1-2.9-1.8l-2.2,2.8,4.8,2.7c.6-1,1.2-2.1,1.8-3.1a20.56,20.56,0,0,0-6.3-2.2,1.82,1.82,0,0,0-1.4,3.3,21.2,21.2,0,0,0,6.3,2.9c1.6.4,3.2-1.8,1.8-3a6.35,6.35,0,0,0-7.4-.8,6.54,6.54,0,0,0-2.9,6.9c2.1,8,12.6-1.1,7-4.3-2.2-1.3-6,.3-7.4,2.2-1.9,2.6,1,5.4,3.7,5.2s4.5-3.2,4-5.8a4.17,4.17,0,0,0-5.9-3.1c-2.2.9-4.3,3.8-3.5,6.3,1,3.1,5.2,1.1,6.9-.1,1.9-1.3,4.2-4.2,1.8-6.2-2.2-1.8-5.8.3-7.1,2.2-1.5,2.1-.8,5.2,2.1,5.4,2.7.2,4.9-2.2,5.8-4.6s-.5-5.5-3.6-4.8c-2.7.6-5,3.2-4.3,6.1.9,3.3,4.7,3.6,6.8,1.2a4.38,4.38,0,0,0-1.9-7.1c-2.4-.7-6.5,0-6.5,3.2s4.7,5.3,7.5,4.4c2.2-.8,1.2-4.3-1-3.6Z" transform="translate(-68.12 -23.1)"/><path class="cls-1" d="M73.3,52.1c.2-.5.5-1,.7-1.5-1.1-.5-2.2-.9-3.3-1.4a23.47,23.47,0,0,1-2.2,4.5c1.1.5,2.2.9,3.3,1.4.1-.3.3-.5.4-.8l-3-1.8c-.3,1.6-.6,3.2-.8,4.9-.4,2.3,3,3.2,3.5,1A43.25,43.25,0,0,1,77.3,44c-1-.6-2.1-1.2-3.1-1.8a36.48,36.48,0,0,1-4,6.9c1.1.3,2.2.6,3.4.9.1-.4.1-.9.2-1.3-1.1-.5-2.2-.9-3.3-1.4a9.7,9.7,0,0,1-1.7,3.9c1.1.5,2.2.9,3.3,1.4a37.24,37.24,0,0,1,2.7-5.7c-1.1-.5-2.2-.9-3.3-1.4a25.36,25.36,0,0,1-2,5.2c1.1.5,2.2.9,3.3,1.4a49.42,49.42,0,0,1,4.3-9.7c-1.1-.5-2.2-.9-3.3-1.4-.4,1-.9,2.1-1.3,3.1l3,1.8a8.53,8.53,0,0,1,2.7-5.1l-3-1.8a10.23,10.23,0,0,1-2.7,4.6l3,1.8c.4-.9.8-1.9,1.1-2.8l-3-1.8a4.42,4.42,0,0,1-2.1,3.4l3,1.8a22.31,22.31,0,0,1,2.6-4.8c-1-.6-2.1-1.2-3.1-1.8a12.47,12.47,0,0,1-1.5,2.8c1.1.5,2.2.9,3.3,1.4,1.6-4.7,5.5-7.5,9.5-10.2a1.79,1.79,0,0,0-1.8-3.1,54.82,54.82,0,0,0-5.2,3.1l2.2,2.8A17,17,0,0,1,85,33.6c1.9-.8.5-3.7-1.4-3.3a8.36,8.36,0,0,0-3.1,1.2c.6,1,1.2,2.1,1.8,3.1a22.59,22.59,0,0,1,6.4-3.2,12.81,12.81,0,0,0,4.2-1.7,1.82,1.82,0,0,0-1.4-3.3c-1.2.3-2.3.5-3.5.8.5,1.1.9,2.2,1.4,3.3a26.66,26.66,0,0,1,25,.5c2,1.1,3.9-2,1.8-3.1a30.69,30.69,0,0,0-28.7-.5c-1.9.9-.5,3.7,1.4,3.3,1.2-.3,2.3-.5,3.5-.8-.5-1.1-.9-2.2-1.4-3.3-1.7,1.1-3.1.8-4.8,1.5-2,.7-4,2.4-5.8,3.4a1.79,1.79,0,0,0,1.8,3.1c.7-.3,1.5-.6,2.2-.9-.5-1.1-.9-2.2-1.4-3.3a19.67,19.67,0,0,0-5.2,3.2c-1.6,1.3.5,4,2.2,2.8a39.61,39.61,0,0,1,5.2-3.1c-.6-1-1.2-2.1-1.8-3.1-4.8,3.2-9.2,6.6-11.1,12.3-.7,2,2.2,3,3.3,1.4a8.48,8.48,0,0,0,1.5-2.8A1.79,1.79,0,0,0,74,39.3a29.73,29.73,0,0,0-2.9,5.6c-.7,1.9,1.8,2.7,3,1.8a8.57,8.57,0,0,0,3.1-5c.3-1.6-1.8-3.3-3-1.8a9,9,0,0,0-2.1,4.4,1.84,1.84,0,0,0,3,1.8,12.33,12.33,0,0,0,3.7-6.2,1.84,1.84,0,0,0-3-1.8,11.36,11.36,0,0,0-3.6,6.7c-.3,1.6,1.7,3.3,3,1.8a10.37,10.37,0,0,0,2.3-4.7c.4-1.9-2.2-3.3-3.3-1.4a58.58,58.58,0,0,0-4.6,10.6,1.82,1.82,0,0,0,3.3,1.4,26.41,26.41,0,0,0,2.3-6.1A1.82,1.82,0,0,0,71.9,45a32.27,32.27,0,0,0-3.1,6.5c-.7,2,2.2,3,3.3,1.4a16.52,16.52,0,0,0,2.1-4.7c.5-1.9-2.3-3.3-3.3-1.4a4.24,4.24,0,0,0-.7,3.1,1.84,1.84,0,0,0,3.4.9,36.48,36.48,0,0,0,4-6.9c.9-2.1-1.9-3.9-3.1-1.8a46.38,46.38,0,0,0-5.7,15.3c1.2.3,2.3.6,3.5,1,.3-1.6.6-3.2.8-4.9s-1.7-3.1-3-1.8a3.83,3.83,0,0,0-1.3,2.4,1.82,1.82,0,0,0,3.3,1.4,26.06,26.06,0,0,0,2.6-5.3c.7-1.9-2.4-3.2-3.3-1.4-.2.5-.5,1-.7,1.5a1.6,1.6,0,1,0,2.6,1.8Z" transform="translate(-68.12 -23.1)"/><path class="cls-1" d="M76.1,45.8a6.19,6.19,0,0,1,2.4-2.9l-3-1.8a35.23,35.23,0,0,1-3.5,7c-1.1,1.9,1.3,3.4,2.8,2.2a19.21,19.21,0,0,0,2.9-2.8l-3-1.8a17.83,17.83,0,0,1-3,5.4c1,.6,2.1,1.2,3.1,1.8a6.17,6.17,0,0,1,2.5-3c-.9-.7-1.8-1.4-2.6-2a9,9,0,0,1-3,5.1l2.8,2.2a51.1,51.1,0,0,1,8.6-13.7l-3-1.8a18,18,0,0,1-1.6,5.6c-.4.8-3.6,5.4-1.7,2.9,2.1-2.7,3.4-6.6,5.7-9.5l-3-1.8c-.6.6-1.3,1.2-1.9,1.7.7.3,1.4.6,2,.8.1-.6.1-1.3.2-1.9A1.84,1.84,0,0,0,77.3,35c-.5.4-1.1.7-1.6,1.1.9.7,1.8,1.4,2.6,2,.3-.4.6-.9.9-1.3l-2.8-2.2c-.2.3-.5.6-.7.9l2.2,2.8a21.49,21.49,0,0,1,9.2-6.2c-.7-.9-1.4-1.8-2-2.6a17.86,17.86,0,0,1-5.6,6.3L82.3,38a24.16,24.16,0,0,1,8.1-6.8l-2.5-2.5A27.18,27.18,0,0,1,78.6,39l2.5,2.5a19.72,19.72,0,0,1,10.1-9.2L89,30.1a9.77,9.77,0,0,1-5.8,7.1L85.4,40a18,18,0,0,1,7.2-5c-.7-.9-1.4-1.8-2-2.6A19.57,19.57,0,0,1,82,39.9l2.5,2.5c2-3.5,4.4-4.9,7.5-7.3s-2.9,1.5-2.8,1.3A21.83,21.83,0,0,1,84,39.2c.7.9,1.4,1.8,2,2.6,1.3-2.2,4.5-5.7,7.5-5-.4-.6-.9-1.2-1.3-1.7.1.9-4.2,2-4.8,2l1.8,3A9.89,9.89,0,0,1,96.8,37c-.4-1-.8-2-1.3-3.1a4.65,4.65,0,0,1-4.8,1.7c.3,1.1.6,2.2.9,3.4a10.75,10.75,0,0,1,7.5-2.4c-.4-1-.8-2-1.3-3.1a4.48,4.48,0,0,1-3.1,1.9c.6.4,1.2.9,1.7,1.3-.1-.2,5.1-1.1,5.7-1.1-.4-1-.8-2-1.3-3.1-.6,1.3-1.1,1.2-1.2-.3.1,1.8.5,1,1-2.4-1.3-.2-.6-.1,2,.2a12.16,12.16,0,0,1,3.6,1.8c.5-1.1.9-2.2,1.4-3.3a19.71,19.71,0,0,1-6.2-2.5c-.3,1.1-.6,2.2-.9,3.4l9.2,1.2V27c-4.4-.2-9.5-1.2-13.9-.7-2.2.3-3.3,1.1-4,3.2-.5,1.6,1.3,2.6,2.6,2,3-1.4,5.8-2.6,9.1-1.4.2-1.2.3-2.4.5-3.5-3.4-.1-9.5-1.9-11.8,1.4-1.3,1.9,1.8,3.7,3.1,1.8.4-.5,7.7.4,8.7.4,2.1.1,2.3-2.9.5-3.5-4.2-1.5-8,0-11.9,1.8.9.7,1.8,1.4,2.6,2,.5-1.6,12.8.1,14.4.2,2.4.1,2.2-3.3,0-3.6l-9.2-1.2c-1.9-.2-2.3,2.5-.9,3.4a20.67,20.67,0,0,0,7.1,2.8,1.82,1.82,0,0,0,1.4-3.3c-2.8-2-10.6-4.9-12.9-.5s4.2,6.1,7.2,4.7c3.3-1.6,2.8-5.4-.8-6.2-3.3-.8-7.7,1.7-5.6,5.4,1.8,3.1,8.4,3.5,8.1-1.1-.3-4.2-7.8-3.8-9.8-1.3-3.3,4.1,2.6,7,6,6.7s7.8-3.7,4-6.9c-3.3-2.9-11.1-.1-11.3,4.5-.4,6.4,7.9,4,10.3,1.1a1.84,1.84,0,0,0-1.3-3.1c-3.1-.1-10.2,1.1-9.1,5.6A1.8,1.8,0,0,0,94.5,39c2.3,0,4.1-1.5,5.6-3,1.2-1.1.2-3-1.3-3.1a13.61,13.61,0,0,0-9.3,2.9,1.85,1.85,0,0,0,.9,3.4,8.26,8.26,0,0,0,7.3-2.7,1.85,1.85,0,0,0-1.3-3.1,13.21,13.21,0,0,0-10.1,4.1c-1.4,1.4.1,3.2,1.8,3,2.6-.4,7.6-2.2,7.4-5.5-.1-.8-.5-1.6-1.3-1.7-4.7-1.1-9.4,2.9-11.6,6.7-.7,1.2.5,3.3,2,2.6,3.9-1.6,11.7-5.1,11-10.3A1.89,1.89,0,0,0,94.3,31c-5.1-1.9-11.2,5.6-13.3,9.4a1.85,1.85,0,0,0,2.5,2.5,23.42,23.42,0,0,0,9.9-8.8c.8-1.2-.5-3.3-2-2.6a25.08,25.08,0,0,0-8.8,6,1.81,1.81,0,0,0,2.2,2.8A13.11,13.11,0,0,0,92.3,31c.3-1.2-.9-2.8-2.2-2.2A23.66,23.66,0,0,0,77.8,39.6c-.8,1.5.9,3.5,2.5,2.5A30.29,30.29,0,0,0,90.9,30.5,1.85,1.85,0,0,0,88.4,28,28.18,28.18,0,0,0,79,36.1c-1.3,1.8,1.4,3.3,2.8,2.2,2.6-2,4.8-4,6.2-7,.6-1.3-.4-3.2-2-2.6a26.81,26.81,0,0,0-10.8,7.1c-1.3,1.4.4,4,2.2,2.8a4.26,4.26,0,0,0,2-2.2c.8-1.8-1.3-3.7-2.8-2.2a5.52,5.52,0,0,0-1.8,2.9c-.5,1.4,1.4,2.9,2.6,2,.5-.4,1.1-.7,1.6-1.1l-2.5-2.5a5.17,5.17,0,0,0-.2,5.6,1.76,1.76,0,0,0,2,.8,5.58,5.58,0,0,0,4.4-4.2c.5-1.6-1.9-3.2-3-1.8-2,2.5-9.7,13-4.9,15.7s8.1-8.5,8.5-11.3c.2-1.6-1.7-3.3-3-1.8a56,56,0,0,0-9.2,14.4,1.81,1.81,0,0,0,2.8,2.2,10.3,10.3,0,0,0,3.9-6.6c.3-1.4-1.3-3-2.6-2a12.08,12.08,0,0,0-3.8,4.3,1.79,1.79,0,0,0,3.1,1.8,25.6,25.6,0,0,0,3.4-6.3c.6-1.7-1.9-3.1-3-1.8A19.21,19.21,0,0,1,72,47.3l2.8,2.2a44.23,44.23,0,0,0,3.8-7.9c.7-1.9-1.8-2.8-3-1.8a11.55,11.55,0,0,0-3,3.6c-.7,2.6,2.4,4.4,3.5,2.4Z" transform="translate(-68.12 -23.1)"/><path d="M73.6,67.4c-7.3-6.3-3.8-21.6.4-28.8,5.2-8.9,18.1-14.2,28.2-14.2a.6.6,0,1,0,0-1.2c-11.1.1-24.7,5.9-30,16.2-3.9,7.6-7,22.5.5,29,.6.3,1.4-.5.9-1Z" transform="translate(-68.12 -23.1)"/><path d="M129.6,68.8c7.7-6.7,4.3-22.2.2-30C124.5,29,111,23.1,100.2,23.1a.6.6,0,1,0,0,1.2c9.8,0,22.6,5.3,27.8,13.8,4.5,7.3,8.3,23.3.8,29.9-.6.4.3,1.3.8.8Z" transform="translate(-68.12 -23.1)"/><path d="M74.1,67.2c.3-13.8,13.4-24.4,26.6-25.6.8-.1.8-1.3,0-1.2C86.8,41.6,73.2,52.6,72.9,67.2a.6.6,0,1,0,1.2,0Z" transform="translate(-68.12 -23.1)"/><path d="M129.1,68.5c-.3-15-14.2-27.1-28.8-28.3-.8-.1-.8,1.1,0,1.2,13.9,1.1,27.3,12.7,27.6,27.1a.6.6,0,0,0,1.2,0Z" transform="translate(-68.12 -23.1)"/><path class="cls-1" d="M85,41.6c.6.9.5,1.6-.2,2.1-.5-.1-1.1-.1-1.6-.2a1.06,1.06,0,0,1-.2-1.3c.1-.3.3-.4.6-.5h.3c-.1,0-.2-.1-.3-.1.1,1.1.3,2.2.4,3.3a6.12,6.12,0,0,1,1.2-.5,1.82,1.82,0,0,0-1.9-3.1,6.12,6.12,0,0,1-1.2.5,2.14,2.14,0,0,0-.9,1.8,1.83,1.83,0,0,0,1.3,1.5,2.76,2.76,0,0,0,3-.6,2.58,2.58,0,0,0,.3-3.3,2.25,2.25,0,0,0-3.2-.4,2.2,2.2,0,0,0-.3,3.3,1.75,1.75,0,0,0,2.5,0,1.61,1.61,0,0,0,.2-2.5Z" transform="translate(-68.12 -23.1)"/><path class="cls-1" d="M106,36.2l-3.5.3A1.79,1.79,0,0,0,102,40a16.81,16.81,0,0,0,3.2.9c.2-1.2.3-2.4.5-3.5h-1.8c.3,1.1.6,2.2.9,3.4l-.1.1a5,5,0,0,0-1.3-.5c.1.1.2.2.3.2l1.8-3a12.29,12.29,0,0,0-7.1-.5c.3,1.2.6,2.3,1,3.5,3.6-.9,7.3-1.7,10.6.6a7.63,7.63,0,0,1-.8-1.1.6.6,0,0,0,.1.4c.3-.7.6-1.4.8-2-.3,0-.6-.1-.8-.1-2.2-.3-3.2,2.8-1,3.5a5.94,5.94,0,0,1,.8.4c.1-1.1.3-2.2.4-3.3-.1,0-.2.1-.3.1a1.85,1.85,0,0,0-1.1,2.6.1.1,0,0,0,.1.1,1.68,1.68,0,0,0,2,.8h.1c2.2-.7,1.3-4.2-1-3.5h-.1c.7.3,1.4.6,2,.8a.1.1,0,0,0-.1-.1c-.4.9-.7,1.8-1.1,2.6.1,0,.2-.1.3-.1a1.81,1.81,0,0,0,.4-3.3,5.31,5.31,0,0,0-1.7-.8c-.3,1.2-.6,2.3-1,3.5a5.55,5.55,0,0,0,3.6-.3,1.68,1.68,0,0,0,.8-2c-.4-2.2-4.2-3-6-3.3-2.9-.5-5.5.3-8.3.9-2.3.6-1.3,3.9,1,3.5a8.44,8.44,0,0,1,5.2.5c1.6.6,3.2-1.9,1.8-3a2.72,2.72,0,0,0-3.3-.4c-1.7.8-.8,3.4.9,3.4h1.8c2,0,2.5-3.1.5-3.5a19.16,19.16,0,0,1-3.2-.9c-.2,1.2-.3,2.4-.5,3.5l3.5-.3c2.5-.2,2.5-3.8.2-3.6Z" transform="translate(-68.12 -23.1)"/><path class="cls-2" d="M72.6,58.9a28.62,28.62,0,0,1,4.5-21.1c.4-.6-.6-1.2-1-.6a29.54,29.54,0,0,0-4.6,22c.1.7,1.2.4,1.1-.3Z" transform="translate(-68.12 -23.1)"/><path class="cls-2" d="M113,29.1c8.1.7,14.6,10.9,16.9,17.8.2.7,1.4.4,1.2-.3-2.5-7.5-9.3-17.9-18-18.7a.6.6,0,1,0-.1,1.2Z" transform="translate(-68.12 -23.1)"/><path class="cls-2" d="M73.3,58.8A32.83,32.83,0,0,1,85.8,42.2c.6-.4,0-1.5-.6-1A34.28,34.28,0,0,0,72.1,58.5c-.2.7,1,1,1.2.3Z" transform="translate(-68.12 -23.1)"/></svg>