<svg id="Layer_1" data-name="Layer 1" xmlns="http://www.w3.org/2000/svg" viewBox="0 0 85.57 23.72"><defs><style>.cls-1{fill:#06203a;}.cls-2{fill:#fff;}.cls-3{fill:#010101;}</style></defs><title>Sneakers</title><path class="cls-1" d="M88.9,563.4c0-.2.1-.5.1-.7l-2.2.3v-.2h2.3c-.6.3-1.1.6-1.7.9l2.4.3c.1-.7.1-1.3.2-2l-2.2-.3a10.88,10.88,0,0,1,.7,3c.2,1.4,2.3,1,2.4-.3.1-1,.1-1.9.2-2.9l-2.4.3c.1.9.3,1.9.4,2.8.2,1.3,2.5,1,2.4-.3-.1-.7-.1-1.5-.2-2.2l-2.4.3c.1.7.2,1.5.3,2.2.2,1.3,2.5,1,2.4-.3a22.75,22.75,0,0,1-.2-2.6H89c.1.7.1,1.4.2,2.2l2.4-.3-.3-2.4c-.1-1.5-2.5-1.5-2.4,0,0,.6.1,1.3.1,1.9h2.4c-.1-1-.1-2-.2-3a1.2,1.2,0,0,0-2.4,0v1.8c0,1.3,2.2,1.7,2.4.3.3-2.1,1-4.8.5-6.9a1.24,1.24,0,0,0-1.5-.8,20.94,20.94,0,0,1-5.6-.1c-1.4-.1-1.6,2-.3,2.4a9.38,9.38,0,0,0,5.5.1,1.23,1.23,0,0,0-.3-2.4c-4.2-.5-4,3.8-4.9,7h2.3l-.3-3a1.2,1.2,0,0,0-2.4,0l-.3,3.3h2.4a17,17,0,0,1,.1-3.9l-2.4.3c.1.6.1,1.2.2,1.8l2.4-.3c-.2-.9-.3-1.7-.5-2.6l-2.4.3a17.85,17.85,0,0,1,.2,2.3l2.4-.3a9,9,0,0,1-.8-2.8c-.6.5-1.2.9-1.8,1.4a11.08,11.08,0,0,1,1.5,3.7,1.24,1.24,0,0,0,2.4-.3,9.75,9.75,0,0,1,.6-4.1l-2.4-.3c.1,1.5.2,3,.2,4.6,0,1.3,2.1,1.7,2.4.3s.5-2.5.7-3.7l-2.4-.3c.1,1.1.3,2.2.4,3.4a1.2,1.2,0,0,0,2.4,0c.1-.9.2-1.9.3-2.8l-2.4-.3c.1,1,.1,2,.2,3.1a1.2,1.2,0,0,0,2.4,0l.3-3-2.4.3c.4,2.5.3,5.2.5,7.8.1,1.5,2.5,1.5,2.4,0v-1.9l-2.4-.3c.3,2.7.6,2.2.6-1.4l-2.4-.3,1.5,1.8c-.7-.3-1.4-.6-2-.8-.2,2.5.1,5.8-2.8,7.1-1.3.6-4.3.5-5.8.6q-5,.3-9.9.3c.3.6.7,1.2,1,1.8a7.28,7.28,0,0,0,.9-4.1c0-1.3-2.1-1.7-2.4-.3-.1.5-.3,1-.4,1.5.7.3,1.5.6,2.2.9a9.71,9.71,0,0,0,.3-6.3,1.24,1.24,0,0,0-2.4.3,14.05,14.05,0,0,1,0,2.9h2.4c-.2-1.2-.3-2.3-.5-3.4l-1.2,1.5c3.7-.3,7.4-.5,11.1-.7,2.6-.1,4.7,0,7-1.1,1.2-.6.3-2.7-.9-2.2a3.23,3.23,0,0,0-2,1.4c.6.5,1.3,1,1.9,1.5.2-.2.3-.5.5-.7.8-1.1-.9-2.4-1.9-1.5l-.6.6c.7.4,1.3.8,2,1.2a1.76,1.76,0,0,1,.4-.5c1.2-1.1-.5-2.6-1.7-1.7a4.87,4.87,0,0,0-1.1.4c.3.7.6,1.5.9,2.2a7.19,7.19,0,0,0,2.1-1.2c1.3-.8.1-2.9-1.2-2.1a11.25,11.25,0,0,1-2.1,1.2c-1.3.6-.3,2.4.9,2.2a3.46,3.46,0,0,0,2.1-1l-1.7-1.7a2.94,2.94,0,0,0-1,1.6,1.21,1.21,0,0,0,2,1.2l.6-.6c-.6-.5-1.3-1-1.9-1.5-.2.2-.3.5-.5.7-.8,1.1,1,2.5,1.9,1.5.3-.3.7-.5,1-.8-.3-.7-.6-1.5-.9-2.2-2.5,1.2-6.5.8-9.2.9s-5.1.3-7.7.5a1.29,1.29,0,0,0-1.2,1.5c.1.9.3,1.9.4,2.8a1.2,1.2,0,0,0,2.4,0,14.05,14.05,0,0,0,0-2.9l-2.4.3a7.1,7.1,0,0,1-.3,5,1.2,1.2,0,0,0,2.2.9,7.42,7.42,0,0,0,.7-2.1l-2.4-.3c-.2.9-.4,1.9-.6,2.8a1.21,1.21,0,0,0,1,1.8c3.8,0,7.7-.1,11.5-.4,2.2-.2,5.4-.1,7.2-1.6,2.3-1.8,2.8-7.5.2-9.3a1.27,1.27,0,0,0-1.2,0c-1.6.8-3,4.4-1,5.6,2.7,1.5,3.9-3,4-4.7a1.16,1.16,0,0,0-2-.8c-1.4,1.5-2.9,4.4-.6,5.8a1.23,1.23,0,0,0,1.5-.2c1.7-1.4,1.8-3.7,1.8-5.7a1.23,1.23,0,0,0-2.4-.3c-.7,2.1-.9,4.8.8,6.5a1.31,1.31,0,0,0,1.2.3c1.9-.6,2-3,2.1-4.7.1-1.3-2.2-1.7-2.4-.3a7.48,7.48,0,0,0-.1,2.6h2.4c-.3-2.8-.2-5.6-.6-8.4-.2-1.4-2.3-.9-2.4.3l-.3,3h2.4c-.1-1-.1-2-.2-3.1-.1-1.3-2.1-1.7-2.4-.3s-.3,2-.4,3.5h2.4c-.1-1.1-.3-2.2-.4-3.4s-2-1.7-2.4-.3c-.3,1.2-.5,2.5-.7,3.7l2.4.3c0-1.5-.1-3-.2-4.6a1.23,1.23,0,0,0-2.4-.3,14.87,14.87,0,0,0-.7,4.7l2.4-.3c-.4-1.7-.9-4.2-2.6-5.1a1.26,1.26,0,0,0-1.8,1.4,22.88,22.88,0,0,0,.8,2.8,1.24,1.24,0,0,0,2.4-.3,4.14,4.14,0,0,0-.3-2.9c-.4-1.2-2.5-1.1-2.4.3a18,18,0,0,0,.6,3.2,1.24,1.24,0,0,0,2.4-.3,21.05,21.05,0,0,0-.2-2.5c-.2-1.5-2.2-.9-2.4.3a17,17,0,0,0-.1,3.9,1.2,1.2,0,0,0,2.4,0l.3-3.3H83.5a14.21,14.21,0,0,0,.3,3.6c.2,1.2,2,1.1,2.3,0s.8-5.5,2.5-5.3l-.3-2.4a5.13,5.13,0,0,1-4.2-.1l-.3,2.4a26.55,26.55,0,0,0,6.3,0,10.93,10.93,0,0,0-1.5-.8c.3,1.3-.3,4.4-.5,5.6l2.4.3v-1.8H88.1c.1,1,.1,2,.2,3,.1,1.5,2.5,1.5,2.4,0,0-.6-.1-1.3-.1-1.9H88.2a16.45,16.45,0,0,0,.4,3.1c.3,1.3,2.5,1,2.4-.3-.1-.7-.1-1.4-.2-2.2-.1-1.5-2.5-1.6-2.4,0a21.11,21.11,0,0,0,.2,2.6l2.4-.3c-.1-.7-.2-1.5-.3-2.2-.2-1.3-2.5-1-2.4.3.1.7.1,1.5.2,2.2l2.4-.3c-.1-.9-.3-1.9-.4-2.8-.2-1.4-2.3-.9-2.4.3-.1,1-.1,1.9-.2,2.9l2.4-.3a16.28,16.28,0,0,0-.7-3,1.22,1.22,0,0,0-2.2-.3c-.7,1.6-.8,1.5-.6,3.2.2,1.2,2.1,1.8,2.4.3a3.33,3.33,0,0,0-.4-2.9,1.33,1.33,0,0,0-1-.6c-1.6.1-1.9,1.2-1.6,2.7a1.2,1.2,0,0,0,2.3,0,1.72,1.72,0,0,0-.2-1.7,1.22,1.22,0,0,0-2.2.3c0,.2-.1.5-.1.7.3,1.2,2.6,1.9,2.9.3Z" transform="translate(-56.95 -551.69)"/><path class="cls-1" d="M83.6,573c2.4-.2,6.1-.3,8.1-2s.8-4.8.5-7a1.23,1.23,0,0,0-2.4-.3,12.3,12.3,0,0,1-1.7,4.1c-.1.7-.2,1.5-.3,2.2a3,3,0,0,1,.7-.5c.1-.5.3-1.1.4-1.6,1.8-1.3.9-3.9,1.1-5.9a40.13,40.13,0,0,0,.7-5H88.3a68.26,68.26,0,0,1,.6,7.8c0,1.3,2.1,1.7,2.4.3a10.48,10.48,0,0,0,.4-3.5l-2.4.3c.1.6.1,1.2.2,1.9a1.2,1.2,0,0,0,2.4,0,18.19,18.19,0,0,0,0-3.3c0-1.1-1.7-1.7-2.2-.6-2,3.7-5.7,5.1-9.5,6.1.3.7.6,1.5.9,2.2,1.2-.3,2.3-.5,3.5-.8l1.2,1.5-.6-.3c-.2-.5-.4-.9-.6-1.4-.6-.3-1.3-.5-1.9-.8.7-.6.2-2.2-.8-2l-4.5.6c-.6.1-1.3.5-1.2,1.2.6,5,.6,6.9,6.3,5.5a1.2,1.2,0,0,0,.5-2c-1.3-1.3-1.8-2.7-3.3-3.8-1-.7-1.9.4-1.8,1.4.5,3.2.6,1.7-1.2,1.7a3.39,3.39,0,0,0-1.9.5c.6.5,1.2.9,1.8,1.4.5-1.8,1-4-.1-5.7a1.45,1.45,0,0,0-1.4-.6c-3.8.5-3,3-2.9,6.2a1.2,1.2,0,0,0,1.5,1.2c4.2-1.1,1.3-9.7-3.6-7-1.6.9-2,3.5-1.6,5.3.5,2.1,1.2,1.5,3,1.8,1,.2,1.6-.5,1.5-1.5V568c.2-1.5-2.1-2.2-2.3-.6a12.75,12.75,0,0,0,0,3.9l1.5-1.5c-1.3-.2-1.6.9-1.1-.7,1.2-3.7,2.1.7,2,.7l1.5,1.2c0-1.1-.6-3.6,1.1-3.8-.5-.2-.9-.4-1.4-.6a4.6,4.6,0,0,1-.2,3.8c-.3,1.1.8,1.8,1.8,1.4s2.5.4,3.7.2a1.27,1.27,0,0,0,.8-.8,9.08,9.08,0,0,0-.3-4.3c-.6.5-1.2.9-1.8,1.4,1.1.8,1.8,2.4,2.8,3.4a14.62,14.62,0,0,0,.5-2c-3.3.8-2.9-.6-3.3-3.2l-1.2,1.2,4.5-.6c-.3-.7-.6-1.4-.8-2-3.6,3.2,5.2,8,6,3.1a1.34,1.34,0,0,0-.6-1.4c-1.7-.9-2.6.2-2.9,1.8a1.16,1.16,0,0,0,1.2,1.5c3.6-.5.4-7.7-3.2-3.5-3.5,4,4.8,5.9,3.5,1.1s-8,1.2-3.1,3.2a2.41,2.41,0,0,0,3.3-2.6c-.4-2.6-3.4-2.6-5.2-1.8-1.3.5-.4,2.5.9,2.2,4.5-1.2,8.6-2.9,10.9-7.2l-2.2-.6a18.19,18.19,0,0,1,0,3.3h2.4a10.55,10.55,0,0,0-.2-2.5c-.3-1.4-2.3-1-2.4.3-.1,1-.2,1.9-.3,2.9l2.4.3q-.15-3.9-.6-7.8c-.2-1.5-2.4-1.6-2.4,0s-2.5,15.9,1.8,13a1.16,1.16,0,0,0,.4-1.6c-.6-1.4-2.3-1-3.4-.6a1.22,1.22,0,0,0-.3,2.2c3.3,2.2,4.7-3.4,5.2-5.5l-2.4-.3c.2,1.9,1,3.7-.3,5s-4.2,1.4-5.9,1.5c-1.3-.3-1.3,2.1.2,1.9Z" transform="translate(-56.95 -551.69)"/><path class="cls-2" d="M61.1,568.6c-.1,0-.1-.1-.2-.1.2.3.4.7.6,1v-.2c-.6.3-1.2.7-1.8,1h0c0-.3-.1-.6-.1-.9a.37.37,0,0,1-.1.3c.2-.2.4-.5.6-.7h0a2,2,0,0,1,.8.4c-.1-.1-.2-.1-.2-.2-.4.7-.8,1.3-1.2,2,.1,0,.2,0,.2.1l-.8-.8v-.1c.2-.2.4-.5.6-.7-.9.6-1.6.5-2,1.6l2.4.3a4.68,4.68,0,0,1,5.2-5,2,2,0,0,1-.8-.4s-.3,1.5-.3,1.6c-.1.5-.2.9-.3,1.4a27,27,0,0,0-.4,2.8c-.1,1.1,1.8,1.7,2.2.6a19.66,19.66,0,0,0,1-3.2,1.19,1.19,0,1,0-2.3-.6l-.9,3.3c-.5,1.5,1.8,2.1,2.3.6a8,8,0,0,0,.5-2.6c.1-1.4-2-1.6-2.4-.3-.3,1-.7,1.4-1.8,1.4H59.3c-1.3,0-1.7,2.1-.3,2.4s3.7,1.2,5.2.6c1-.4,1.3-2.1,0-2.3-.7-.1-2-.1-2-1a2.5,2.5,0,0,1,1.3-1.7c-.3,0-.6.1-.9.1h.3c-.2-.2-.5-.4-.7-.6.2.3.4,1.5,1.1.9.2-.2-.1-1.2.3-1.5-.3,0-.6.1-.9.1h.2c-.2-.2-.5-.4-.7-.6v.3c0,.3-.1.6-.1.9a6.7,6.7,0,0,1-.7,1.8l2.2.6a5.6,5.6,0,0,1,1.1-3.5H62.6c0,.1.1.1.1.2l1.2.3c-.1-.1-.1-.2-.2-.2a2,2,0,0,0,.4.8,1.15,1.15,0,0,1,.5-1.2H63.4a.35.35,0,0,1,.2.1c-.2-.2-.4-.5-.6-.7a.37.37,0,0,0,.1.3c0-.3.1-.6.1-.9-.1.1-.1.2-.2.2.7.3,1.4.6,2,.8.1-.2.2-.3.3-.5-.7-.3-1.4-.6-2-.8v.4c-.1,1.5,2.3,1.5,2.4,0v-.4a1.15,1.15,0,0,0-2-.8,3,3,0,0,0-1,2.2,1.16,1.16,0,0,0,2,.8c1.1-1.1.6-3.5-1.3-2.8-1.6.5-2.4,3.2-1.2,4.4a1.31,1.31,0,0,0,1.2.3c1.6-.4,2-2.3,1.3-3.7-.4-.9-1.6-.7-2.1,0a8.63,8.63,0,0,0-1.4,4.7c0,1.1,1.7,1.7,2.2.6.7-1.3,1.6-3.5,1.1-5a1.54,1.54,0,0,0-2.7-.5,4.28,4.28,0,0,0-.7,4.2c.4,1.2,1.8,2.2,3,1.3,2.3-1.6.1-7.1-2.6-4.4a4.38,4.38,0,0,0-1.6,4.1c.4,1.8,2.1,2.1,3.7,2.4v-2.3c-.8.3-3-.4-3.9-.6l-.3,2.4c1.5,0,3.3.2,4.6-.3a3.73,3.73,0,0,0,2.1-2.9l-2.4-.3a14.16,14.16,0,0,1-.4,2l2.3.6.9-3.3-2.3-.6a11.22,11.22,0,0,1-.8,2.6l2.2.6c.1-2,1.3-4.4.8-6.5-.4-1.8-2.1-1.5-3.6-1.1a6.94,6.94,0,0,0-5.4,7.2,1.23,1.23,0,0,0,2.4.3c-.4.3-.3.4.2.1a2.51,2.51,0,0,0,.7-.4,2.07,2.07,0,0,0,.6-1,1.51,1.51,0,0,0-1.2-1.8c-1.1-.3-2.1,1.2-1.2,2a1.64,1.64,0,1,0,1.9-2.6c-.7-.3-1.9,0-1.8,1a1.44,1.44,0,0,0,.8,1.3c1.5,1.2,2.7-.9,1.3-1.7Z" transform="translate(-56.95 -551.69)"/><path class="cls-1" d="M78.6,568.2l1.5-.6c1-.4,1.2-2,0-2.3l-.6-.3a14.62,14.62,0,0,0-.5,2,9.17,9.17,0,0,0,2.3-.9,1.45,1.45,0,0,0,.6-1.4c-.3-.8-1.2-1.1-1.3-1.2-.2.6-.5,1.2-.7,1.8,1.7-.4,5-1,5.9-2.8s-.3-5.5-.8-7.4a1.19,1.19,0,0,0-2.3.6l.6,2.4c.1.7.6,2.4.4,3-.5,1.2-3.2,1.6-4.4,1.8a1.2,1.2,0,0,0-.7,1.8c.5.8.9.8,1.7,1.2l-.8-.8c0,.1.1.2.1.3.2-.5.4-.9.6-1.4a13.36,13.36,0,0,1-1.8.7,1.17,1.17,0,0,0-.5,2,3.67,3.67,0,0,0,1.6.9v-2.3l-1.5.6c-1.5.6-.9,2.9.6,2.3Z" transform="translate(-56.95 -551.69)"/><path class="cls-3" d="M91,558.6c.4,4.3.9,8.5,1.2,12.8.1.8,1.3.8,1.2,0-.3-4.3-.8-8.5-1.2-12.8-.1-.8-1.3-.8-1.2,0Z" transform="translate(-56.95 -551.69)"/><path class="cls-3" d="M92.5,571.4c-5.4.6-10.5,2.5-16,2.7-2.8.1-5.5-.4-8.3-.3s-5.4.6-8.1.4a.6.6,0,0,0,0,1.2c2.4.1,4.8-.3,7.2-.4,3.1-.1,6.2.4,9.2.3,5.4-.1,10.6-2,16-2.7.7-.1.8-1.3,0-1.2Z" transform="translate(-56.95 -551.69)"/><path class="cls-3" d="M59.7,574.1c-2.6,0-1.6-5.3-.7-6.7,1.3-1.9,3.7-2.4,5.9-2.8.8-.1.4-1.3-.3-1.2-3.3.6-6.5,1.7-7.4,5.3a11.86,11.86,0,0,0,.1,5.3c.4,1.4,1.1,1.2,2.4,1.2.8.1.8-1.1,0-1.1Z" transform="translate(-56.95 -551.69)"/><path class="cls-3" d="M64.4,564.8c6.1-1.2,12.4-1,18.4-2.2.8-.2.4-1.3-.3-1.2-6,1.3-12.4,1-18.4,2.2-.7.2-.4,1.3.3,1.2Z" transform="translate(-56.95 -551.69)"/><path class="cls-3" d="M84,561.8c-.3-2.4-.6-4.7-.9-7.1-.1-.8-1.3-.8-1.2,0,.3,2.4.6,4.7.9,7.1.1.7,1.3.7,1.2,0Z" transform="translate(-56.95 -551.69)"/><path class="cls-3" d="M82.3,555a49.24,49.24,0,0,0,9.4-.2c.8-.1.4-1.3-.3-1.2-3,.5-6,.2-9.1.2a.6.6,0,0,0,0,1.2Z" transform="translate(-56.95 -551.69)"/><path class="cls-3" d="M92.4,558.3a25.41,25.41,0,0,0,.1-3.9.6.6,0,0,0-1.2,0c0,1.3,0,2.6-.1,3.9a.6.6,0,0,0,1.2,0Z" transform="translate(-56.95 -551.69)"/><path class="cls-3" d="M58,573.6c1.3,0,2.5.6,3.8.4.8-.1.8-1.3,0-1.2-1.3.2-2.5-.4-3.8-.4a.6.6,0,0,0,0,1.2Z" transform="translate(-56.95 -551.69)"/><path class="cls-3" d="M57.9,573.2a66.34,66.34,0,0,0,10,.8.6.6,0,0,0,0-1.2,62,62,0,0,1-9.6-.7c-.8-.2-1.1,1-.4,1.1Z" transform="translate(-56.95 -551.69)"/><path class="cls-3" d="M67.1,573.9a95.66,95.66,0,0,0,13.1.5c4-.4,8.1-1.6,12-2.4.8-.2.4-1.3-.3-1.2-4.2.9-8.5,2.2-12.8,2.4-4,.2-8-.3-12-.5-.7,0-.7,1.2,0,1.2Z" transform="translate(-56.95 -551.69)"/><path class="cls-3" d="M58.1,573.8a10.31,10.31,0,0,0,7.5.9c.7-.2.4-1.4-.3-1.2a8.87,8.87,0,0,1-6.6-.8c-.7-.4-1.3.7-.6,1.1Z" transform="translate(-56.95 -551.69)"/><path class="cls-3" d="M64.6,575a28.13,28.13,0,0,0,7.1-.1c.8-.1.8-1.3,0-1.2a25.06,25.06,0,0,1-6.7.1c-.8,0-1.1,1.1-.4,1.2Z" transform="translate(-56.95 -551.69)"/><path class="cls-3" d="M64,572.7a10.1,10.1,0,0,0-1.7-.3.62.62,0,0,0-.2,1.2,10.46,10.46,0,0,0,1.7.4c.1-.4.1-.8.2-1.2a9.7,9.7,0,0,1-1.7-.1v1.2h.8a.62.62,0,0,0,.3-1.2,7.49,7.49,0,0,1-1.6-.4c-.7-.2-1,.9-.3,1.2a9.37,9.37,0,0,0,1.6.4l.3-1.2a3.3,3.3,0,0,0-1.4,0,.63.63,0,0,0,0,1.2,13.41,13.41,0,0,0,2,.1c.6,0,.9-1.1.2-1.2a10.46,10.46,0,0,1-1.7-.4c-.1.4-.1.8-.2,1.2a6.75,6.75,0,0,1,1.4.2.57.57,0,1,0,.3-1.1Z" transform="translate(-56.95 -551.69)"/><path class="cls-3" d="M69.4,574.9a7.79,7.79,0,0,0,2.1.4,20.84,20.84,0,0,1,2.5,0c.8.1,1.1-1.1.3-1.2-1.6-.2-3.1.1-4.6-.4-.7-.2-1,1-.3,1.2Z" transform="translate(-56.95 -551.69)"/><path class="cls-3" d="M76.9,574c5.2.4,10.3-.7,15.4-1.8.8-.2.4-1.3-.3-1.2-5,1-10,2.2-15.1,1.7-.7.1-.7,1.3,0,1.3Z" transform="translate(-56.95 -551.69)"/><path class="cls-3" d="M72.6,574.1c6.5.3,13.6-1,19.8-2.7.7-.2.4-1.4-.3-1.2-6.2,1.6-13,2.9-19.5,2.6-.7.1-.7,1.3,0,1.3Z" transform="translate(-56.95 -551.69)"/><path class="cls-3" d="M73.3,564.4a1.81,1.81,0,0,1,.7,1.7.62.62,0,0,0,1.2.3,3.12,3.12,0,0,0-1-2.9c-.7-.5-1.5.4-.9.9Z" transform="translate(-56.95 -551.69)"/><path class="cls-3" d="M77.6,563.8a1.87,1.87,0,0,1,.4,1.9c-.2.7,1,1.1,1.2.3a3.49,3.49,0,0,0-.7-3.1.64.64,0,1,0-.9.9Z" transform="translate(-56.95 -551.69)"/><path class="cls-3" d="M81.4,563.2a1.39,1.39,0,0,1,.4,1.7c-.3.7.7,1.3,1,.6a2.74,2.74,0,0,0-.6-3.2c-.5-.4-1.4.4-.8.9Z" transform="translate(-56.95 -551.69)"/><path class="cls-3" d="M65.8,564.3c1.1,2.8.5,5.6-.1,8.5a.62.62,0,0,0,1.2.3c.7-3,1.2-6.1.1-9.1-.3-.7-1.5-.4-1.2.3Z" transform="translate(-56.95 -551.69)"/><path class="cls-3" d="M83.7,559.6a4,4,0,0,0,3.5-.7c.6-.4,0-1.5-.6-1a3.4,3.4,0,0,1-2.6.6.57.57,0,1,0-.3,1.1Z" transform="translate(-56.95 -551.69)"/><path class="cls-1" d="M112.9,560.9c0-.2-.1-.5-.1-.7a1.22,1.22,0,0,0-2.2-.3,1.72,1.72,0,0,0-.2,1.7,1.2,1.2,0,0,0,2.3,0c.3-1.4.1-2.5-1.6-2.7a1.33,1.33,0,0,0-1,.6,4.17,4.17,0,0,0-.4,2.9c.2,1.5,2.2.9,2.4-.3.2-1.7.2-1.6-.6-3.2-.4-1-1.9-.6-2.2.3a10.88,10.88,0,0,0-.7,3l2.4.3c-.1-1-.1-1.9-.2-2.9-.1-1.3-2.1-1.7-2.4-.3-.1.9-.3,1.9-.4,2.8l2.4.3c.1-.7.1-1.5.2-2.2a1.23,1.23,0,0,0-2.4-.3c-.1.7-.2,1.5-.3,2.2l2.4.3a22.75,22.75,0,0,0,.2-2.6c.1-1.5-2.3-1.5-2.4,0-.1.7-.1,1.4-.2,2.2-.1,1.3,2.1,1.6,2.4.3a16.45,16.45,0,0,0,.4-3.1h-2.4c0,.6-.1,1.3-.1,1.9-.1,1.5,2.3,1.5,2.4,0,.1-1,.1-2,.2-3h-2.4v1.8l2.4-.3c-.2-1.1-.8-4.2-.5-5.6a10.93,10.93,0,0,1-1.5.8,22.15,22.15,0,0,0,6.3,0l-.3-2.4a5.56,5.56,0,0,1-4.2.1l-.3,2.4c1.8-.2,2.3,4.2,2.5,5.3s2.1,1.2,2.3,0a8.68,8.68,0,0,0,.3-3.6H113l.3,3.3a1.2,1.2,0,0,0,2.4,0,17,17,0,0,0-.1-3.9c-.2-1.2-2.1-1.8-2.4-.3a10.15,10.15,0,0,0-.2,2.5,1.23,1.23,0,0,0,2.4.3c.3-1.4.4-1.8.6-3.2s-2-1.6-2.4-.3a4.2,4.2,0,0,0-.3,2.9,1.23,1.23,0,0,0,2.4.3,9,9,0,0,0,.8-2.8,1.27,1.27,0,0,0-1.8-1.4c-1.7.9-2.1,3.4-2.6,5.1l2.4.3a14.87,14.87,0,0,0-.7-4.7,1.23,1.23,0,0,0-2.4.3c-.1,1.5-.2,3-.2,4.6l2.4-.3c-.2-1.3-.5-2.5-.7-3.7-.3-1.4-2.2-.9-2.4.3s-.3,2.2-.4,3.4h2.4c-.1-1.4-.2-2.1-.4-3.5s-2.3-1-2.4.3c-.1,1-.1,2-.2,3.1h2.4l-.3-3c-.1-1.2-2.1-1.8-2.4-.3-.4,2.8-.3,5.6-.6,8.4H111a7.67,7.67,0,0,0-.1-2.6c-.2-1.3-2.5-1-2.4.3.2,1.7.2,4.1,2.1,4.7a1.31,1.31,0,0,0,1.2-.3c1.7-1.7,1.5-4.4.8-6.5a1.24,1.24,0,0,0-2.4.3c-.1,2,.1,4.3,1.8,5.7a1.37,1.37,0,0,0,1.5.2c2.3-1.4.8-4.3-.6-5.8-.7-.7-2.1-.2-2,.8.1,1.6,1.3,6.4,4,4.7,2-1.2.7-4.8-1-5.6a1.27,1.27,0,0,0-1.2,0c-2.6,1.7-2,7.4.2,9.3,1.7,1.4,4.4,1.3,6.4,1.5,4.1.4,8.2.5,12.3.5a1.18,1.18,0,0,0,1-1.8c-.2-.9-.4-1.9-.6-2.8l-2.4.3a5.22,5.22,0,0,0,.7,2.1c.6,1.2,2.7.4,2.2-.9a6.22,6.22,0,0,1-.3-5l-2.4-.3a14.05,14.05,0,0,0,0,2.9,1.2,1.2,0,0,0,2.4,0c.1-.9.3-1.9.4-2.8a1.2,1.2,0,0,0-1.2-1.5c-2.6-.2-5.1-.4-7.7-.5-2.8-.2-6.7.3-9.2-.9-.3.7-.6,1.5-.9,2.2.3.3.7.5,1,.8.9,1,2.7-.3,1.9-1.5-.2-.2-.3-.5-.5-.7-.6.5-1.3,1-1.9,1.5l.6.6a1.21,1.21,0,0,0,2-1.2,3.36,3.36,0,0,0-1-1.6l-1.7,1.7a3.46,3.46,0,0,0,2.1,1c1.2.2,2.3-1.6.9-2.2a7.19,7.19,0,0,1-2.1-1.2c-1.3-.8-2.5,1.3-1.2,2.1a11.25,11.25,0,0,0,2.1,1.2c.3-.7.6-1.5.9-2.2a4.87,4.87,0,0,1-1.1-.4c-1.2-.9-2.9.6-1.7,1.7a1.76,1.76,0,0,0,.4.5c.7-.4,1.3-.8,2-1.2l-.6-.6c-.9-.9-2.7.3-1.9,1.5.2.2.3.5.5.7.6-.5,1.3-1,1.9-1.5a4.57,4.57,0,0,0-2-1.4c-1.3-.5-2.1,1.6-.9,2.2,2.3,1.1,4.4,1,7,1.1,3.7.1,7.4.4,11.1.7l-1.2-1.5c-.2,1.2-.3,2.3-.5,3.4h2.4a14.05,14.05,0,0,1,0-2.9c.1-1.3-2.1-1.6-2.4-.3a10.45,10.45,0,0,0,.3,6.3c.7-.3,1.5-.6,2.2-.9-.1-.5-.3-1-.4-1.5-.2-1.4-2.3-1-2.4.3a8.22,8.22,0,0,0,.9,4.1c.3-.6.7-1.2,1-1.8q-5,0-9.9-.3c-1.5-.1-4.5.1-5.8-.6-2.7-1.6-2.6-4.4-2.8-7.1-.7.3-1.4.6-2,.8l1.5-1.8-2.4.3c.1,3.7.3,4.2.6,1.4l-2.4.3v1.9c-.1,1.5,2.3,1.5,2.4,0,.2-2.5.1-5.3.5-7.8l-2.4-.3.3,3a1.2,1.2,0,0,0,2.4,0c.1-1,.1-2,.2-3.1l-2.4.3c.1.9.2,1.9.3,2.8a1.2,1.2,0,0,0,2.4,0c.1-1.1.3-2.2.4-3.4l-2.4.3c.3,1.2.5,2.5.7,3.7.2,1.4,2.4,1,2.4-.3,0-1.5.1-3,.2-4.6l-2.4.3a9.52,9.52,0,0,1,.6,4.1,1.23,1.23,0,0,0,2.4.3,10.7,10.7,0,0,1,1.5-3.7c-.6-.5-1.2-.9-1.8-1.4a22.88,22.88,0,0,1-.8,2.8l2.4.3a17.85,17.85,0,0,0,.2-2.3l-2.4-.3c-.2.9-.3,1.7-.5,2.6l2.4.3c.1-.6.1-1.2.2-1.8l-2.4-.3a17,17,0,0,1,.1,3.9H115l-.3-3.3a1.2,1.2,0,0,0-2.4,0l-.3,3h2.3c-.9-3.3-.7-7.5-4.9-7a1.23,1.23,0,0,0-.3,2.4,8.63,8.63,0,0,0,5.5-.1c1.2-.4,1.1-2.5-.3-2.4a26.33,26.33,0,0,1-5.6.1,1.24,1.24,0,0,0-1.5.8c-.5,2.1.2,4.8.5,6.9.2,1.4,2.4,1,2.4-.3v-1.8a1.2,1.2,0,0,0-2.4,0c-.1,1-.1,2-.2,3h2.4c0-.6.1-1.3.1-1.9.1-1.5-2.3-1.5-2.4,0l-.3,2.4,2.4.3c.1-.7.1-1.4.2-2.2h-2.4a21.11,21.11,0,0,1-.2,2.6c-.2,1.3,2.1,1.7,2.4.3.1-.7.2-1.5.3-2.2l-2.4-.3c-.1.7-.1,1.5-.2,2.2a1.23,1.23,0,0,0,2.4.3c.1-.9.3-1.9.4-2.8l-2.4-.3c.1,1,.1,1.9.2,2.9.1,1.3,2.1,1.7,2.4.3a16.28,16.28,0,0,1,.7-3l-2.2.3c.1.7.1,1.3.2,2l2.4-.3c-.6-.3-1.1-.6-1.7-.9h2.3v.2l-2.2-.3c0,.2.1.5.1.7.8,1.8,3.1,1.2,2.9-.3Z" transform="translate(-56.95 -551.69)"/><path class="cls-1" d="M115.8,568.7c-1.7-.1-4.6-.2-5.9-1.5s-.5-3.2-.3-5l-2.4.3c.6,2.2,2,7.7,5.2,5.5a1.22,1.22,0,0,0-.3-2.2c-1.2-.5-2.8-.8-3.4.6a1.25,1.25,0,0,0,.4,1.6c4.3,2.9,1.8-11.6,1.8-13,0-1.6-2.2-1.5-2.4,0a68.26,68.26,0,0,0-.6,7.8l2.4-.3c-.1-1-.2-1.9-.3-2.9,0-1.3-2.1-1.7-2.4-.3a10.55,10.55,0,0,0-.2,2.5h2.4a18.19,18.19,0,0,1,0-3.3l-2.2.6c2.3,4.3,6.4,6,10.9,7.2,1.3.3,2.2-1.6.9-2.2-1.8-.8-4.6-.9-5.2,1.6a2.47,2.47,0,0,0,3.3,2.8c4.9-2.1-1.9-8.1-3.1-3.2s7,3,3.5-1.1-6.8,3-3.2,3.5c.8.1,1.3-.8,1.2-1.5-.4-1.6-1.3-2.7-2.9-1.8a1.45,1.45,0,0,0-.6,1.4c.8,4.9,9.6.1,6-3.1-.3.7-.6,1.4-.8,2l4.5.6-1.2-1.2c-.3,2.7,0,4-3.3,3.2a14.62,14.62,0,0,1,.5,2c1-1,1.7-2.6,2.8-3.4-.6-.5-1.2-.9-1.8-1.4-.2,1.4-.7,2.9-.3,4.3.1.4.4.8.8.8,1.1.2,2.7-.7,3.7-.2a1.26,1.26,0,0,0,1.8-1.4,5,5,0,0,1-.2-3.8c-.5.2-.9.4-1.4.6,1.7.2,1.1,2.7,1.1,3.8l1.5-1.2c-.6-.2.4-1.9.6-2,1.3-1,1.1.3,1.4,1.3.5,1.6.2.5-1.1.7l1.5,1.5a12.75,12.75,0,0,0,0-3.9c-.2-1.5-2.5-.9-2.3.6v2.6a1.23,1.23,0,0,0,1.5,1.5c1.6-.3,2.5.3,2.9-1.6.4-1.7,0-4.6-1.6-5.5-4.9-2.5-7.7,5.9-3.6,7a1.2,1.2,0,0,0,1.5-1.2c.1-3.1.9-5.6-2.9-6.2a1.34,1.34,0,0,0-1.4.6c-1.1,1.7-.6,3.9-.1,5.7.6-.5,1.2-.9,1.8-1.4a3.39,3.39,0,0,0-1.9-.5c-1.9,0-1.8,1.5-1.2-1.7.2-.9-.8-2-1.8-1.4-1.5,1-2,2.5-3.3,3.8a1.2,1.2,0,0,0,.5,2c5.7,1.3,5.7-.5,6.3-5.5.1-.7-.6-1.1-1.2-1.2l-4.5-.6a1.16,1.16,0,0,0-.8,2c-.6.3-1.3.5-1.9.8-.2.5-.4.9-.6,1.4l-.6.3,1.2-1.5c1.2.3,2.3.5,3.5.8.3-.7.6-1.5.9-2.2-3.9-1.1-7.5-2.4-9.5-6.1a1.19,1.19,0,0,0-2.2.6,18.19,18.19,0,0,0,0,3.3,1.2,1.2,0,0,0,2.4,0c.1-.6.1-1.2.2-1.9l-2.4-.3a10.48,10.48,0,0,0,.4,3.5c.3,1.4,2.3,1,2.4-.3q.15-3.9.6-7.8h-2.4c0,1.7.6,3.2.7,5,.2,2-.7,4.7,1.1,5.9.1.5.3,1.1.4,1.6a3,3,0,0,0,.7.5c-.1-.7-.2-1.5-.3-2.2a12.3,12.3,0,0,1-1.7-4.1c-.4-1.4-2.2-.9-2.4.3-.3,2.2-1.4,5.3.5,7s5.7,1.8,8.1,2c1.8.6,1.8-1.8.3-1.9Z" transform="translate(-56.95 -551.69)"/><path class="cls-2" d="M139.5,568.8a1.65,1.65,0,0,0,.8-1.3c.1-1-1.1-1.4-1.8-1-2.3,1-.2,4.3,1.9,2.6.9-.8-.1-2.3-1.2-2a1.58,1.58,0,0,0-1.2,1.8,2.07,2.07,0,0,0,.6,1,1.61,1.61,0,0,0,.7.4c.5.2.6.2.2-.1a1.24,1.24,0,0,0,2.4-.3,7,7,0,0,0-5.4-7.2c-1.4-.3-3.2-.6-3.6,1.1-.4,2.1.7,4.4.8,6.5l2.2-.6a12.94,12.94,0,0,1-.8-2.6l-2.3.6.9,3.3,2.3-.6a7.11,7.11,0,0,1-.4-2l-2.4.3a3.73,3.73,0,0,0,2.1,2.9,14.29,14.29,0,0,0,4.6.3l-.3-2.4c-.9.2-3.1.9-3.9.6v2.3c1.6-.3,3.3-.6,3.7-2.4.4-1.5-.5-2.9-1.5-4-2.7-2.9-5.1,2.6-2.7,4.3a2,2,0,0,0,3-1.2,4.71,4.71,0,0,0-.6-4.3,1.58,1.58,0,0,0-2.8.4c-.5,1.5.4,3.7,1.1,5,.5,1.1,2.2.5,2.2-.6a8.63,8.63,0,0,0-1.4-4.7,1.22,1.22,0,0,0-2.1,0,2.63,2.63,0,0,0,1.3,3.7,1.31,1.31,0,0,0,1.2-.3c1.2-1.2.4-3.9-1.2-4.4-1.9-.6-2.3,1.8-1.3,2.8.7.7,2.2.2,2-.8a3.72,3.72,0,0,0-1-2.2c-.7-.7-2.1-.2-2,.8v.4c.1,1.5,2.5,1.5,2.4,0v-.4c-.7.3-1.4.6-2,.8.1.2.2.3.3.5.7-.3,1.4-.6,2-.8-.1-.1-.1-.2-.2-.2,0,.3.1.6.1.9a.37.37,0,0,1,.1-.3c-.2.2-.4.5-.6.7a.35.35,0,0,0,.2-.1h-1.2a1.35,1.35,0,0,1,.5,1.2,2,2,0,0,1,.4-.8c-.1.1-.1.2-.2.2l1.2-.3c0-.1.1-.1.1-.2h-2.1a6.3,6.3,0,0,1,1.1,3.5l2.2-.6a13.35,13.35,0,0,1-.7-1.8,2.77,2.77,0,0,1-.1-.9V566c-.2.2-.5.4-.7.6h.2c-.3,0-.6-.1-.9-.1.5.3.1,1.2.3,1.5.5.6.9-.7,1.1-.9-.2.2-.5.4-.7.6h.3c-.3,0-.6-.1-.9-.1.5.3,1.3,1.2,1.3,1.7,0,.9-1.3.9-2,1-1.3.2-1,1.9,0,2.3,1.4.6,3.7-.3,5.2-.6s1-2.3-.3-2.4h-2.6c-1.1,0-1.5-.3-1.8-1.4-.3-1.3-2.5-1.1-2.4.3a10.89,10.89,0,0,0,.5,2.6c.5,1.4,2.8.9,2.3-.6l-.9-3.3a1.19,1.19,0,0,0-2.3.6,17,17,0,0,0,1,3.2c.5,1.1,2.3.5,2.2-.6a23.58,23.58,0,0,0-.4-2.8c-.1-.5-.2-.9-.3-1.4a14.25,14.25,0,0,1-.3-1.6,2,2,0,0,0-.8.4,4.73,4.73,0,0,1,5.2,5l2.4-.3c-.4-1.1-1.1-1.1-2-1.6.2.2.4.5.6.7v.1l-.8.8c.1,0,.2,0,.2-.1-.4-.7-.8-1.3-1.2-2-.1.1-.2.1-.2.2a2,2,0,0,0,.8-.4h0c.2.2.4.5.6.7a.37.37,0,0,0-.1-.3c0,.3-.1.6-.1.9h0c-.6-.3-1.2-.7-1.8-1v.2c.2-.3.4-.7.6-1-.1,0-.1.1-.2.1-1.3.5-.1,2.6,1.3,1.8Z" transform="translate(-56.95 -551.69)"/><path class="cls-1" d="M121.5,564l-1.5-.6v2.3a3.67,3.67,0,0,0,1.6-.9c.8-.6.2-1.8-.5-2a13.36,13.36,0,0,1-1.8-.7c.2.5.4.9.6,1.4,0-.1.1-.2.1-.3l-.8.8c.8-.3,1.3-.4,1.7-1.2a1.28,1.28,0,0,0-.7-1.8c-1.3-.3-3.7-.6-4.4-1.8-.5-1.1.6-4.3,1-5.4a1.19,1.19,0,0,0-2.3-.6c-.5,1.9-1.8,5.5-.8,7.4s4.2,2.4,5.9,2.8c-.2-.6-.5-1.2-.7-1.8-.1.1-1,.5-1.3,1.2a1.2,1.2,0,0,0,.6,1.4,6.5,6.5,0,0,0,2.3.9,14.62,14.62,0,0,1-.5-2l-.6.3c-1.2.3-1,1.9,0,2.3l1.5.6c1.4.6,2-1.8.6-2.3Z" transform="translate(-56.95 -551.69)"/><path class="cls-3" d="M107.2,556.6c-.4,4.3-.9,8.5-1.2,12.8-.1.8,1.1.8,1.2,0,.3-4.3.8-8.5,1.2-12.8.1-.7-1.1-.7-1.2,0Z" transform="translate(-56.95 -551.69)"/><path class="cls-3" d="M106.9,570.6c5.4.6,10.5,2.6,16,2.7,2.8.1,5.5-.4,8.3-.3s5.4.6,8.1.4a.6.6,0,0,0,0-1.2c-2.4.1-4.8-.3-7.2-.4-3.1-.1-6.2.4-9.2.3-5.4-.2-10.6-2-16-2.7-.8-.1-.8,1.1,0,1.2Z" transform="translate(-56.95 -551.69)"/><path class="cls-3" d="M139.6,573.4c1.1,0,1.9.3,2.4-.8a10,10,0,0,0,.2-5.7c-.9-3.6-4.1-4.7-7.4-5.3a.62.62,0,0,0-.3,1.2c2.1.4,4.6.8,5.9,2.8.9,1.4,1.9,6.7-.7,6.7-.8-.2-.8,1-.1,1.1Z" transform="translate(-56.95 -551.69)"/><path class="cls-3" d="M135.3,561.7c-6.1-1.2-12.4-1-18.4-2.2a.62.62,0,0,0-.3,1.2c6,1.3,12.4,1,18.4,2.2.7.1,1-1.1.3-1.2Z" transform="translate(-56.95 -551.69)"/><path class="cls-3" d="M116.6,559.8c.3-2.4.6-4.7.9-7.1.1-.8-1.1-.8-1.2,0-.3,2.4-.6,4.7-.9,7.1-.1.8,1.1.8,1.2,0Z" transform="translate(-56.95 -551.69)"/><path class="cls-3" d="M117.1,551.9c-3,.1-6.1.4-9.1-.2a.62.62,0,0,0-.3,1.2,49.06,49.06,0,0,0,9.4.2.6.6,0,0,0,0-1.2Z" transform="translate(-56.95 -551.69)"/><path class="cls-3" d="M108.2,556.4a25.41,25.41,0,0,1-.1-3.9.6.6,0,0,0-1.2,0c0,1.3,0,2.6.1,3.9,0,.7,1.2.7,1.2,0Z" transform="translate(-56.95 -551.69)"/><path class="cls-3" d="M141.4,570.4c-1.3,0-2.5.6-3.8.4-.8-.1-.8,1.1,0,1.2,1.3.2,2.5-.4,3.8-.4a.6.6,0,0,0,0-1.2Z" transform="translate(-56.95 -551.69)"/><path class="cls-3" d="M141.2,570.1a62,62,0,0,1-9.6.7.6.6,0,0,0,0,1.2,67.4,67.4,0,0,0,10-.8c.6-.1.3-1.2-.4-1.1Z" transform="translate(-56.95 -551.69)"/><path class="cls-3" d="M132.3,570.8a95.55,95.55,0,0,1-12,.5c-4.3-.2-8.6-1.5-12.8-2.4a.62.62,0,0,0-.3,1.2c4,.8,8,2,12,2.4,4.3.4,8.8-.2,13.1-.5.7-.1.7-1.3,0-1.2Z" transform="translate(-56.95 -551.69)"/><path class="cls-3" d="M140.7,570.8a8.87,8.87,0,0,1-6.6.8.62.62,0,0,0-.3,1.2,10.25,10.25,0,0,0,7.5-.9.63.63,0,0,0-.6-1.1Z" transform="translate(-56.95 -551.69)"/><path class="cls-3" d="M134.4,571.9a29.94,29.94,0,0,1-6.7-.1c-.8-.1-.8,1.1,0,1.2a28.12,28.12,0,0,0,7.1.1c.7-.1.4-1.3-.4-1.2Z" transform="translate(-56.95 -551.69)"/><path class="cls-3" d="M135.7,571.9a6.75,6.75,0,0,1,1.4-.2c-.1-.4-.1-.8-.2-1.2a10.46,10.46,0,0,1-1.7.4c-.7.1-.5,1.1.2,1.2a13.41,13.41,0,0,0,2-.1.63.63,0,0,0,0-1.2,3.3,3.3,0,0,0-1.4,0l.3,1.2a7.49,7.49,0,0,0,1.6-.4c.7-.2.4-1.4-.3-1.2a9.37,9.37,0,0,1-1.6.4c-.8.1-.4,1.3.3,1.2h.8v-1.2a9.7,9.7,0,0,1-1.7.1c.1.4.1.8.2,1.2a10.46,10.46,0,0,0,1.7-.4.62.62,0,0,0-.2-1.2,5.08,5.08,0,0,0-1.7.3.57.57,0,1,0,.3,1.1Z" transform="translate(-56.95 -551.69)"/><path class="cls-3" d="M129.7,571.8c-1.6.5-3,.2-4.6.4-.8.1-.4,1.3.3,1.2a20.84,20.84,0,0,1,2.5,0,7.79,7.79,0,0,0,2.1-.4c.7-.2.4-1.4-.3-1.2Z" transform="translate(-56.95 -551.69)"/><path class="cls-3" d="M122.5,570.9c-5.1.4-10.1-.7-15.1-1.7a.62.62,0,0,0-.3,1.2c5.1,1,10.2,2.2,15.4,1.8.7-.2.7-1.4,0-1.3Z" transform="translate(-56.95 -551.69)"/><path class="cls-3" d="M126.8,571c-6.4.3-13.3-1-19.5-2.6-.7-.2-1.1,1-.3,1.2,6.2,1.6,13.3,3,19.8,2.7.7-.1.7-1.3,0-1.3Z" transform="translate(-56.95 -551.69)"/><path class="cls-3" d="M125.3,561.6a2.9,2.9,0,0,0-1,2.9c.1.8,1.3.4,1.2-.3a1.81,1.81,0,0,1,.7-1.7c.5-.5-.3-1.4-.9-.9Z" transform="translate(-56.95 -551.69)"/><path class="cls-3" d="M121,561a3.43,3.43,0,0,0-.7,3.1c.2.7,1.4.4,1.2-.3a2.12,2.12,0,0,1,.4-1.9c.5-.7-.4-1.5-.9-.9Z" transform="translate(-56.95 -551.69)"/><path class="cls-3" d="M117.1,560.4a2.74,2.74,0,0,0-.6,3.2c.3.7,1.4.1,1-.6a1.39,1.39,0,0,1,.4-1.7c.7-.5-.2-1.4-.8-.9Z" transform="translate(-56.95 -551.69)"/><path class="cls-3" d="M132.5,562.1c-1.1,3-.6,6.1.1,9.1.2.8,1.3.4,1.2-.3-.6-2.8-1.2-5.7-.1-8.5.2-.7-1-1.1-1.2-.3Z" transform="translate(-56.95 -551.69)"/><path class="cls-3" d="M115.4,556.5a3.11,3.11,0,0,1-2.6-.6c-.6-.5-1.2.6-.6,1a4.78,4.78,0,0,0,3.5.7c.8-.1.5-1.3-.3-1.1Z" transform="translate(-56.95 -551.69)"/></svg>