<svg id="Layer_1" data-name="Layer 1" xmlns="http://www.w3.org/2000/svg" viewBox="0 0 24.25 23.85"><defs><style>.cls-1{fill:#fff;}</style></defs><title>Sock</title><path class="cls-1" d="M58.68,469.84l-9.06.05a2.83,2.83,0,0,0-1.51.29A3.47,3.47,0,0,0,47,472.68a6.73,6.73,0,0,0,.1,3.76,3.74,3.74,0,0,0,1.17,1.45c2.28,1.75,5.36.93,8.11.44A56.74,56.74,0,0,1,68.77,478" transform="translate(-46.06 -455.67)"/><path d="M58.68,469.24c-2.75,0-5.56-.12-8.31,0a4.82,4.82,0,0,0-2.69.47c-1.73,1.22-2,5.13-1.18,6.91,1.1,2.39,3.81,3,6.2,2.83,5.45-.32,10.55-1.18,16.07-.95.77,0,.77-1.17,0-1.2a83.89,83.89,0,0,0-14.93.78c-2.46.33-8.43,1.11-6.31-5.29a3.17,3.17,0,0,1,2.84-2.35c2.49-.5,5.78,0,8.31,0a.6.6,0,0,0,0-1.2Z" transform="translate(-46.06 -455.67)"/><path class="cls-1" d="M69.68,477.78c.39-6.94-1.2-14.05,0-20.81" transform="translate(-46.06 -455.67)"/><path d="M70.28,477.78c.25-6.9-1-13.78,0-20.65.11-.76-1-1.08-1.16-.32-1,7,.26,14,0,21,0,.77,1.17.77,1.2,0Z" transform="translate(-46.06 -455.67)"/><path class="cls-1" d="M59.66,470.39a9.93,9.93,0,0,0,.42-3.71,79,79,0,0,1,.57-9.89,1,1,0,0,1,.1-.38c.25-.42.81-.11,1.17.16a4.65,4.65,0,0,0,3.8.87c1.18-.26,2.31-1,3.5-.82" transform="translate(-46.06 -455.67)"/><path d="M60.23,470.55c1.14-3.9-.16-8.18.83-12.11a1.63,1.63,0,0,1,.55-1.33,2.73,2.73,0,0,0,.76.47c.51,0,1.13.46,1.67.53,1.85.25,3.33-.83,5.16-.87a.6.6,0,0,0,0-1.2,10.86,10.86,0,0,0-2.78.58,4.12,4.12,0,0,1-2.92.14,13.72,13.72,0,0,1-1.71-.95c-.72-.13-.94-.32-1.53.25-.87.83-.56,4-.63,5.12-.19,2.94.26,6.22-.56,9.05a.6.6,0,0,0,1.16.32Z" transform="translate(-46.06 -455.67)"/><path class="cls-1" d="M51.28,476.39a6.21,6.21,0,0,0-2.68-2.75.61.61,0,0,0-.9.52l-.1.91h1.2c-.05-.42-.81-2.66-.09-2.72s.77-1.27,0-1.2a1.55,1.55,0,0,0-1.39,1.1c-.34,1,.16,1.85.28,2.82a.6.6,0,0,0,1.2,0l.1-.91-.9.52A5.14,5.14,0,0,1,50.24,477c.35.69,1.39.08,1-.61Z" transform="translate(-46.06 -455.67)"/><path class="cls-1" d="M49.33,473.23a2.89,2.89,0,0,1,0-1.25c.06-.21.29-.65.57-.5.68.36,1.29-.67.61-1a1.56,1.56,0,0,0-2,.54,3.29,3.29,0,0,0-.28,2.57c.13.76,1.29.44,1.16-.32Z" transform="translate(-46.06 -455.67)"/><path class="cls-1" d="M52.7,477.23c-2-.07-3-1.4-4.15-2.79-.49-.59-1.34.26-.85.85,1.39,1.67,2.69,3.05,5,3.14.77,0,.77-1.17,0-1.2Z" transform="translate(-46.06 -455.67)"/><path class="cls-1" d="M49.6,472.64c-.56.46-1.15-1-.4-1.14a3.77,3.77,0,0,1,1.07.17l1.25.2c.76.12,1.08-1,.32-1.16l-1.63-.26a4.71,4.71,0,0,0-1.32-.14,1.56,1.56,0,0,0-1.22,1.59,1.73,1.73,0,0,0,2.78,1.59c.6-.49-.25-1.33-.85-.85Z" transform="translate(-46.06 -455.67)"/><path class="cls-1" d="M56.59,471.77l-.14,0,.46.06h0l.06.46c.09-.46,1.45-.4,1.79-.43a3.41,3.41,0,0,0,1.62-.5.61.61,0,0,0,0-1,2,2,0,0,0-2.32.37c-.56.54.29,1.38.85.85a.75.75,0,0,1,.86-.18v-1c-1,.66-2.35.17-3.37.85a1.11,1.11,0,0,0-.59,1.12.83.83,0,0,0,1.06.61c.75-.17.43-1.33-.32-1.16Z" transform="translate(-46.06 -455.67)"/><path class="cls-1" d="M47.15,473.28c-.3.62-.09,1,.21,1.59a13.64,13.64,0,0,0,.93,2.31c1.07,1.41,2.89.82,4.36,1.26a.6.6,0,0,0,.32-1.16c-1.06-.31-2.53.08-3.44-.57-.52-.37-.59-1-.78-1.6,0-.12-.58-1.18-.56-1.21.33-.69-.7-1.3-1-.61Z" transform="translate(-46.06 -455.67)"/><path class="cls-1" d="M49.43,476.85c-1.1-.18-1.35-2.82-1-3.6s-.71-1.3-1-.61a4.56,4.56,0,0,0,0,3.32c.26.89.7,1.87,1.71,2,.76.13,1.08-1,.32-1.16Z" transform="translate(-46.06 -455.67)"/><path class="cls-1" d="M62.77,458.64c1.77-.34,3.49.52,5.26,0a.6.6,0,0,0-.32-1.16c-1.72.49-3.5-.35-5.26,0-.76.14-.44,1.3.32,1.16Z" transform="translate(-46.06 -455.67)"/></svg>