<svg id="Layer_1" data-name="Layer 1" xmlns="http://www.w3.org/2000/svg" viewBox="0 0 24.26 23.8"><defs><style>.cls-1{fill:#fff;}.cls-2{fill:#a7ceee;}</style></defs><title>Sock</title><path class="cls-1" d="M23.62,22.11c.39-6.94-1.2-14,0-20.81" transform="translate(0 0)"/><ellipse class="cls-2" cx="6.86" cy="19.86" rx="6.3" ry="3.86"/><ellipse class="cls-2" cx="6.58" cy="16.22" rx="5.2" ry="2.19"/><ellipse class="cls-2" cx="2.33" cy="17.33" rx="1.61" ry="1.73"/><ellipse class="cls-2" cx="13.72" cy="17.11" rx="7.31" ry="3.08"/><ellipse class="cls-2" cx="12.93" cy="20.15" rx="4.73" ry="1.96"/><ellipse class="cls-2" cx="15.65" cy="3.15" rx="0.8" ry="2.13"/><ellipse class="cls-2" cx="23.17" cy="3.16" rx="0.45" ry="1.87"/><ellipse class="cls-2" cx="22.23" cy="3.47" rx="1.2" ry="2.44"/><circle class="cls-2" cx="22.64" cy="20.77" r="1.1"/><rect class="cls-2" x="15.54" y="16" width="7.89" height="6.11"/><rect class="cls-2" x="13.91" y="4.25" width="9.26" height="13.44"/><rect class="cls-2" x="14.85" y="1.03" width="1.75" height="4.56"/><rect class="cls-2" x="15.29" y="1.81" width="7.43" height="4.09"/><rect class="cls-2" x="14.16" y="6.94" width="2.28" height="4.16"/><rect class="cls-2" x="14.16" y="2.28" width="2.72" height="3.94"/><rect class="cls-2" x="14.41" y="5.03" width="3.96" height="5.38"/><path d="M13.06,13.57c-2.85,0-5.75-.12-8.6,0A5.14,5.14,0,0,0,1.68,14C-.11,15.26-.39,19.17.46,20.95c1.14,2.39,3.94,3,6.41,2.83,5.64-.32,10.92-1.18,16.63-1a.6.6,0,0,0,0-1.2A89.76,89.76,0,0,0,8,22.41c-2.55.33-8.72,1.11-6.53-5.29a3.25,3.25,0,0,1,2.94-2.35c2.58-.5,6,0,8.6,0a.6.6,0,1,0,0-1.2Z" transform="translate(0 0)"/><path d="M14.17,14.54c1.14-3.81-.16-8,.83-11.83a1.57,1.57,0,0,1,.55-1.3,2.74,2.74,0,0,0,.76.46c.51,0,1.13.45,1.67.52,1.85.24,3.33-.81,5.16-.85a.59.59,0,0,0,.6-.59.59.59,0,0,0-.6-.59,11.08,11.08,0,0,0-2.78.57,4.21,4.21,0,0,1-2.92.14A13.82,13.82,0,0,1,15.73.14C15,0,14.79-.18,14.2.38c-.87.81-.56,3.91-.63,5-.19,2.87.26,6.08-.56,8.84a.59.59,0,0,0,.42.72.6.6,0,0,0,.74-.41Z" transform="translate(0 0)"/><path d="M24.22,22.11c.25-6.9-1-13.78,0-20.65.11-.76-1-1.08-1.16-.32-1,7,.26,14,0,21a.6.6,0,0,0,1.2,0Z" transform="translate(0 0)"/></svg>