<svg id="Layer_1" data-name="Layer 1" xmlns="http://www.w3.org/2000/svg" viewBox="0 0 65.92 165.2"><defs><style>.cls-1{fill:#64ab97;}</style></defs><title>Straptop</title><path class="cls-1" d="M102.4,146.2l-.3-1.2c.1.9.1,1.1.1.4,0,.3-.1.6-.1.9a5.07,5.07,0,0,1-.9,1.6c-1.1.4-2.1.9-3.2,1.3-2,.3-3.8-1.5-4.1-3.3a2.85,2.85,0,0,1,0-1.3c-.2.5-.1.5.1,0s.2-.5,0-.1-.2.4.1-.1a4.37,4.37,0,0,1,2.4-1.3,3.78,3.78,0,0,1,2.7.5c3.4,3.7,3.1,6.6-1.1,8.8a5.92,5.92,0,0,0,3.6-2.8,5.75,5.75,0,0,0,.6-4.6,6.23,6.23,0,0,0-7.4-4.2c-3.1.5-5.3,3.8-5.3,6.8a7.17,7.17,0,0,0,3.8,6.4,7.68,7.68,0,0,0,8-.4,10.57,10.57,0,0,0,4.1-5.8c1.6-5.6-2.6-11.4-8.6-10.6a7.91,7.91,0,0,0-6.3,5.5,10.35,10.35,0,0,0,.3,6.5c1,3,4.2,5.2,7.4,4.2,2.9-.8,5.2-4,4.1-7.2Z" transform="translate(-66.28 -104.7)"/><path class="cls-1" d="M86.3,195.7c-.1.1-.2.3-.3.4l5.8-1.5c-.2,0-.4-.1-.6-.1,1.2.9,2.4,1.8,3.6,2.8-1.3-2.7-.9-7.3-1.4-10.2a29,29,0,0,0-3.6-9.8c-3.1-5.2-11-2.9-11.2,3-.1,4.7-.1,9.5,0,14.2l11.2-3c-2.3-3.8-2.4-8.1-2.4-12.4-.1-5.6-8.5-8.6-11.2-3a31.59,31.59,0,0,0-3,10.9h12c-.4-4.4-.6-8.7-.7-13.1-.1-7.2-9.4-7.6-11.8-1.6l-1.2,3H83.1c-.3-1.1-.6-2.3-.9-3.4-1.7-6.6-11.7-5.1-11.8,1.6A179.26,179.26,0,0,0,75.8,219c1.6,6.2,9.6,5.2,11.6,0a182.37,182.37,0,0,0,5.7-17.7c-3.9-.5-7.9-1.1-11.8-1.6-.5,6.9-1.1,13.7-1.6,20.6-.4,5-2,12.1,4.2,14.1,5.8,1.9,8.9-3.2,10.2-7.8,1.9-6.7,3.5-13.5,5.3-20.2-3.9-.5-7.9-1.1-11.8-1.6a132.5,132.5,0,0,1,.8,21.8h12a61.73,61.73,0,0,1,3.2-20.4c-3.7.5-7.3,1-11,1.4,1.7,2.3.7,8.8.8,11.5.1,4.2.1,8.4,0,12.7-.1,7.8,11.6,7.7,12,0a77.8,77.8,0,0,1,1.4-11.7,48.75,48.75,0,0,1,1.2-5.2c.3-1.3,1.8-3.6.4-2.6-2.7-.7-5.5-1.4-8.2-2.2,1.6,2.5-.4,8.9-.7,11.8-.5,4.6-1.1,9.2-1.6,13.9-.8,6.7,10.5,8.2,11.8,1.6a108,108,0,0,1,8.6-26.1l-11.2-3c.3,8.6-1.6,16.8-3.6,25.2,3.9,1.1,7.7,2.1,11.6,3.2a119.08,119.08,0,0,1,6.9-26.2c-3.9-.5-7.9-1.1-11.8-1.6-.1,9.3-3.5,18.1-3.6,27.4,0,6.7,10.1,8.2,11.8,1.6a267.13,267.13,0,0,0,5.5-26.3c-3.9-.5-7.9-1.1-11.8-1.6,0,3.3.1,6.6.1,9.9.1,7.9,11.1,7.5,12,0a200.93,200.93,0,0,0,1.3-23.3h-12c.1,5.9.2,11.7.3,17.6.1,6.6,10.2,8.3,11.8,1.6a68,68,0,0,0,1.8-20.6h-12a114.36,114.36,0,0,1-.1,21.1c-.8,7.7,11.2,7.6,12,0a99.53,99.53,0,0,0,.6-10.9c.1-7.9-11.3-7.5-12,0a166.58,166.58,0,0,1-6.1,31.3c3.9.5,7.9,1.1,11.8,1.6a32,32,0,0,1,2.2-15.9c-3.9-.5-7.9-1.1-11.8-1.6-.4,8.7-1.2,17.3-2.3,25.9h12a43.76,43.76,0,0,1,1-8.1H111.1a56.54,56.54,0,0,1,.2,13h12a57.92,57.92,0,0,1,1.2-8.2c-3.9-.5-7.9-1.1-11.8-1.6a111.19,111.19,0,0,1,.4,12.9c-.3,7.7,11.7,7.7,12,0,.1-3.8.3-7.6.4-11.3-3.9.5-7.9,1.1-11.8,1.6,1.1,6.3,2.5,12.5,3.9,18.7l7.4-7.4c-7.7-1.8-15.4.9-23.2.3a208.58,208.58,0,0,0-26.2-.4c1.9,2.5,3.9,5.1,5.8,7.6,4.5-15.1,8.5-30.6,4.7-46.3-1.5-6.1-9.7-5.2-11.6,0-2.8,7.8,0,15.6-1.6,23.5,3.9.5,7.9,1.1,11.8,1.6.6-12.1,4-23.1-1-34.7-2.3-5.4-11.8-2.7-11.2,3a98.79,98.79,0,0,0,4.4,20.8c1.8,5.5,7.7,14.2,5.6,20.2.9-1.2,1.8-2.4,2.8-3.6-.2.2-.5.3-.7.5h6.1c-.3-.2-.6-.3-.9-.5.9,1.2,1.8,2.4,2.8,3.6-.3-.8-.1-5.1,1.2-5.3l-4.6-.6-1.8-3a5.28,5.28,0,0,1-.4,2.5c-.6,2-1.9,1.8.7,2.9s1.7,0,2.3-2a12.39,12.39,0,0,1,1.8-3.4,10.59,10.59,0,0,1,1-1.2c.8-.5.7-.7-.2-.7-.9-1.4,0,2.2.1,2.5a13.83,13.83,0,0,1,.1,2.9v2.2c-.1,1.1,0,1,.2-.3,1.2-.9,2.4-1.8,3.6-2.8,1.9.8,2.5.5,1.9-.7v-.8c.8-1.6.9-2.1-.6-2.6-2.5-.9-.7,2.4-.6,4.2.1,1.3-1.3,5.2.5,4.2l4.6-.6c-.3-.1-.5-.2-.8-.3,1.2.9,2.4,1.8,3.6,2.8-1.3-2.2,1.3-4.5-.8-5.5-1.9-.9-.9.6-1,2.2a12.05,12.05,0,0,1-1.2,4.5h10.4c-.7-1.3-1.4-3.3,0-4.4l-4.2,1.8c-2.9-3.3-4-3.3-3.2-.1a6.65,6.65,0,0,1-.6,3.4c.9-1.2,1.8-2.4,2.8-3.6l-.9.6,4.6-.6c-.3-.1-.5-.2-.8-.3,1.2.9,2.4,1.8,3.6,2.8a1.2,1.2,0,0,1-.2-.8c0-2.4-2-2.3-6.1.3-.2-1.5-.4-3.1-.6-4.6-.1.3-.1.6-.2.9-1.2,7.6,10.3,10.8,11.6,3.2,1.6-9.7-10.7-14.2-15.5-5.4-3.8,7,2.4,21.2,11,13.8,5.8-4.9,4.5-21.3-4.7-21.7-10.6-.5-10.5,14.6-7.1,20.8,2,3.7,8.4,4.1,10.4,0,3.5-7.6,5.4-22.8-6.4-24-11-1.1-15.3,11.9-12.4,20.6,1.5,4.6,6.7,7.1,11,4.2s4.8-10.1,4.6-14.9-1.5-10.9-6-13.7c-4.2-2.6-9.3-1-12.6,2.3-6.1,6.2-5.9,18.6,2.1,23.2A7.73,7.73,0,0,0,104,253c1.6-4.4.9-10.9-.7-15.2s-5-8.5-10-8.7c-5.5-.2-9.8,4.2-12.4,8.6-4.3,7.1-5.9,24,7.2,21.9,9.1-1.5,17.5-21.2,5.7-24.5-11-3.1-18.7,18.9-9.1,24.1,1.7.9,4.3,1.3,6.1,0,7.1-5.2,3.9-15.4,1.1-22.2-3.4-8.5-6.1-16.9-7.2-26.1l-11.2,3c3.7,8.8-.3,19.6-.7,28.7-.3,6.7,10.4,8.3,11.8,1.6,1.6-7.7-1.1-16.1,1.6-23.5H74.6c3.3,13.5-.8,27-4.7,39.9-1.1,3.6,1.9,7.8,5.8,7.6a197,197,0,0,1,24.3.2,53.3,53.3,0,0,0,11.3.1c3.6-.4,7.2-1.5,10.7-.7a6.07,6.07,0,0,0,7.4-7.4c-1.5-6.2-2.8-12.4-3.9-18.7-1.3-6.9-11.5-4.9-11.8,1.6-.1,3.8-.3,7.6-.4,11.3h12a111.19,111.19,0,0,0-.4-12.9c-.6-6.3-10.1-8.6-11.8-1.6a61.4,61.4,0,0,0-1.6,11.4c-.4,7.8,11.4,7.6,12,0a73.05,73.05,0,0,0-.6-16.2c-.8-6-10.3-5.5-11.6,0a71.36,71.36,0,0,0-1.5,11.3c-.3,7.9,11.1,7.4,12,0,1.1-8.6,1.8-17.2,2.3-25.9.4-7.2-9.5-7.5-11.8-1.6a40.21,40.21,0,0,0-2.6,19.1c.7,6.4,9.8,8.5,11.8,1.6a201.82,201.82,0,0,0,6.5-34.5H116a98.18,98.18,0,0,1-.6,10.9h12a114.36,114.36,0,0,0,.1-21.1c-.7-7.6-12.5-7.8-12,0a56.7,56.7,0,0,1-1.4,17.4c3.9.5,7.9,1.1,11.8,1.6-.1-5.9-.2-11.7-.3-17.6-.1-7.7-12.1-7.7-12,0a181,181,0,0,1-1.3,23.3h12c0-3.3-.1-6.6-.1-9.9-.1-6.5-10.7-8.5-11.8-1.6a255.54,255.54,0,0,1-5.5,26.3c3.9.5,7.9,1.1,11.8,1.6.1-9.3,3.5-18.1,3.6-27.4.1-7.2-9.5-7.6-11.8-1.6a119.08,119.08,0,0,0-6.9,26.2c-1.1,7.4,9.7,10.9,11.6,3.2,2.3-9.3,4.4-18.7,4.1-28.4-.2-5.6-8.4-8.7-11.2-3a118.07,118.07,0,0,0-9.8,29c3.9.5,7.9,1.1,11.8,1.6.7-5.8,1.4-11.7,2.1-17.5.6-5,1.5-9.8-1.3-14.2-1.6-2.6-5.5-4.1-8.2-2.2-4.3,3-5.4,7.5-6.5,12.4a113.36,113.36,0,0,0-2.4,17.5h12c.1-5.5,0-11-.1-16.6-.1-4.5.4-9.8-2.3-13.7-3-4.2-9.3-3.7-11,1.4a72.3,72.3,0,0,0-3.6,23.6c.1,7.8,11.6,7.7,12,0a122,122,0,0,0-.8-21.8c-.8-6.3-9.9-8.7-11.8-1.6-1,3.7-1.9,7.4-2.9,11-.6,2.1-1.1,8.9-2.8,10.4l5.8-1.5c-.3-.1-.6-.1-.9-.2,1.2.9,2.4,1.8,3.6,2.8.5,2.2.7,2.1.6-.4l.3-3.9c.2-2.3.4-4.6.5-6.9l1.2-14.7c.5-6.8-10.1-8-11.8-1.6a182.37,182.37,0,0,1-5.7,17.7H87.7a163.21,163.21,0,0,1-5-42.3c-3.9.5-7.9,1.1-11.8,1.6.3,1.1.6,2.3.9,3.4,1.6,6.2,9.5,5.1,11.6,0l1.2-3c-3.9-.5-7.9-1.1-11.8-1.6,0,4.4.3,8.7.7,13.1a6,6,0,0,0,12,0,14.43,14.43,0,0,1,1.4-4.9l-11.2-3c.1,6.5.6,12.8,4,18.5,3,5,11.3,3,11.2-3-.1-4.7-.1-9.5,0-14.2l-11.2,3c3.2,5.5,2.1,11.7,3.9,17.6,1.5,4.9,7.6,7.7,11.4,3.4,4.9-5.9-3.5-14.5-8.7-8.7Z" transform="translate(-66.28 -104.7)"/><path class="cls-1" d="M93.8,246.2c-2.9-.4-5.6-.1-7.7,2.2-1.7,1.8-2.3,4.2-3,6.5a6,6,0,0,0,2.8,6.8c.3.2.7.4,1,.6,1-3.7,2-7.5,3-11.2a15,15,0,0,0-3,0c-2.4.3-4.5,1.3-5.5,3.7-.8,2.1-.6,5,1.2,6.6a16.84,16.84,0,0,0,6.2,3.6c1.1-3.9,2.1-7.7,3.2-11.6a18.42,18.42,0,0,0-4.7-.7c-5.8-.1-8.3,8.4-3,11.2a19.2,19.2,0,0,0,5.5,2c3.2.5,6.4-.8,7.4-4.2.8-2.9-1-6.8-4.2-7.4-2.9-.5-6.4-1.7-9,.2-1.6,1.2-3.2,3-3,5.2.3,2.5,1.1,4.5,3.5,5.8a25.49,25.49,0,0,0,5.3,1.8c.5-3.9,1.1-7.9,1.6-11.8a4.5,4.5,0,0,1-2.8-.4c-6.3-2.2-10.8,8.1-4.6,11a17,17,0,0,0,4.8,1.6V256.1c-.9.3-1.8.7-2.6,1-2.8,1-4.8,3.5-4.3,6.6.4,2.7,2.9,5.6,5.9,5.2,1.4-.2,2.8-.3,4.2-.5,3-.4,5.5-2,5.9-5.2.3-2.7-1.3-6.1-4.3-6.6l-6.2-.9c-3.2-.5-6.4.8-7.4,4.2-.8,2.8,1,6.9,4.2,7.4l6.2.9c.5-3.9,1.1-7.9,1.6-11.8-1.4.2-2.8.3-4.2.5.5,3.9,1.1,7.9,1.6,11.8.9-.3,1.8-.7,2.6-1a6.21,6.21,0,0,0,4.4-5.8c0-2.4-1.8-5.4-4.4-5.8l-1.9-.4c-1.5,3.7-3.1,7.3-4.6,11a15.3,15.3,0,0,0,6,.8c6.6-.5,8.3-9.7,1.6-11.8-.6-.2-1.2-.4-1.9-.6-1.2-.4-1.6-1,.2.6l1.8,4.2v-.3c-1,1.7-2,3.5-3,5.2.1-.1.2-.2.3-.2-1,.3-2,.5-3,.8-.9,0,.3.1.7.1l1.8.3c1.1-3.9,2.1-7.7,3.2-11.6a9.66,9.66,0,0,1-2.7-.7c-1,3.7-2,7.5-3,11.2,1.1,0,.4-.1,1.5.3a6,6,0,0,0,3.2-11.6c.7.2-1.4-.9-.9-.5l-4.2,10.2a15,15,0,0,1,3,0c6.1.5,7.9-8.3,3-11.2-.3-.2-.7-.4-1-.6.9,2.3,1.8,4.5,2.8,6.8a9.83,9.83,0,0,0,.5-1.6c.1-1-.1.9-1.9,1.3H90.3a.9.9,0,0,1,.5.1c3.2.4,6.4-.8,7.4-4.2.5-3-1.2-7.1-4.4-7.5Z" transform="translate(-66.28 -104.7)"/><path class="cls-1" d="M99.7,189.1c-.5-4.1-.4-7.9,1.2-11.7-3.7-.5-7.3-1-11-1.4,3.2,7.9-.2,16.6,2.5,24.8,2.2,6.6,11.1,5.1,11.8-1.6.7-7,1.4-14.1,2-21.1h-12a184.07,184.07,0,0,1-.4,22.3c3.9-.5,7.9-1.1,11.8-1.6a35.14,35.14,0,0,1-1-19.8H93a104.19,104.19,0,0,1,.7,20.9c-.4,6.6,10.8,8.3,11.8,1.6.6-3.7,1.1-7.4,1.7-11.1.3-2.2.1-7,1.5-8.8-3.3-.9-6.7-1.8-10-2.6a44.07,44.07,0,0,1,1.1,14.5h12c0-3.2.1-6.5.4-9.7-3.9.5-7.9,1.1-11.8,1.6a15,15,0,0,1-.1,7.3c3.3-.9,6.7-1.8,10-2.6-4.7-5.4-.5-12.3-5-17.4-3.5-3.9-10.1-5.6-11.9-10.9-1-2.9-1.4-5.6-4.3-7.3a9.56,9.56,0,0,0-9,0c-6.3,3.2-6.3,10.3-4.5,16.2,3.7-1.5,7.3-3.1,11-4.6a7.79,7.79,0,0,1-1.6-4.9c-.2-7.7-11.7-7.7-12,0-.1,4-.3,8.1-.4,12.1,3.9-.5,7.9-1.1,11.8-1.6a26.56,26.56,0,0,1-2.3-10l-11.2,3a7.6,7.6,0,0,1,1.7,4.5l11.2-3a17.29,17.29,0,0,1-1.8-7c-.5-7.6-11.9-7.8-12,0v2.2c3.9-.5,7.9-1.1,11.8-1.6a49.14,49.14,0,0,0-2.1-7.5c-2.7-7.2-13.3-4.5-11.6,3.2.3,1.2.5,2.4.8,3.6,1.3,5.7,10.3,5.7,11.6,0a37.3,37.3,0,0,1,7-15.1c4.1-5.4-5-12.5-9.4-7.3l-4.6,5.5c3.1,2.4,6.3,4.8,9.4,7.3,1.5-2.1,2.9-4.2,4.4-6.4.7-1.1,1.5-2.1,2.2-3.2q-1.65,1.65.3,1.5c1.2,1,5.3.9,6.9,1.2s4.7.3,5.9,1c-.9-1.2-1.8-2.4-2.8-3.6-.6-1.7.3-1.5-1.2-.3-1.1.8-2,2.1-3,3a48.46,48.46,0,0,1-6.1,4.9c-1.1.7-2.6,1.7-3.6,2.2a3.55,3.55,0,0,1-.4.9c.4,0,.4-.1-.1-.2.5-.5-1.8.1-1.1-.2l4.6-.6c-.4-.1-.9-.1-1.3-.2,1.2.9,2.4,1.8,3.6,2.8a2.88,2.88,0,0,1-.1-2.4c-4.9-2.1-7.2-1.8-6.9,1.1-.8,1.9-.2,5.4-.4,7.5a109.71,109.71,0,0,1-2.7,15H92.7c-2.2-6.2-2.5-12.7.2-18.9l-9.4,1.2c2.9,2.5,2.7,9.4,3,12.9a117.62,117.62,0,0,1,.4,15.7h12a58,58,0,0,1,6.3-28c-3.7-.5-7.3-1-11-1.4,4.4,13.1.9,27.2,2.6,40.7.9,7.5,11.7,7.9,12,0,.4-12.5-.2-25.6,2.6-37.9-3.9-.5-7.9-1.1-11.8-1.6-.5,13.3-.9,26.7-1.4,40-.3,7.9,11.1,7.4,12,0,1-7.9,2.1-15.7,4.4-23.4-3.9-.5-7.9-1.1-11.8-1.6-.6,11-1.2,22.1-1.8,33.1-.4,7.9,11,7.4,12,0,1-7.9,2.1-15.7,3.1-23.6h-12q.9,9.45.9,18.9c0,7.9,11.1,7.5,12,0,1-8.4,1.9-16.8,2.9-25.1h-12c-.3,9-.7,17.9-1,26.9-.3,7.9,11.2,7.5,12,0,.8-7.7,1.6-15.3,2.4-23h-12c.5,5.6.9,11.2,1.4,16.8.6,7.6,12.1,7.8,12,0a110.6,110.6,0,0,1,1.2-18.2H112.3c2.4,6.2-1,13.1,1.1,19.7s11,5,11.8-1.6q.9-8.25,1.2-16.5c.2-6.6-10.5-8.3-11.8-1.6a42.56,42.56,0,0,0-.1,15.1c1.2,7.1,11.2,4.6,11.8-1.6l.9-9h-12c-.1,4.1-.2,8.1-.3,12.2h12c-.1-6-.3-12.1-.4-18.1-.2-7.7-11.9-7.7-12,0,0,3-.1,6.1-.1,9.1h12c-.4-6.9-.8-13.8-1.3-20.7-.4-5.7-1.2-11.2-4.4-16-3.1-4.5-11.7-3.4-11.2,3a17.19,17.19,0,0,1-1.4,9.2c3.7.5,7.3,1,11,1.4a46.26,46.26,0,0,1-1.9-18.5h-12a199.32,199.32,0,0,1,1.6,26.7c3.9-.5,7.9-1.1,11.8-1.6a56.34,56.34,0,0,1-.7-22.4c.4-2.8.8-5.7-.7-8.3-1.3-2.3-3.4-2.8-5.3-4.3.9,1.2,1.8,2.4,2.8,3.6,0-.2-.1-.5-.1-.7-.9,2.3-1.8,4.5-2.8,6.8a25.21,25.21,0,0,1,4.2-2.4l-5.8-1.5a28.84,28.84,0,0,1,7.5,14.2c3.7-1.5,7.3-3.1,11-4.6-.8-1.2-1.5-2.5-2.3-3.7-3.6-5.9-12.4-2-11,4.6,1.1,5,2,10,2.7,15.1,3.7-1.5,7.3-3.1,11-4.6a21.23,21.23,0,0,1-2.5-8.1c-.7-7.6-11.9-7.8-12,0-.1,4.9-.1,9.8-.2,14.8,3.9-.5,7.9-1.1,11.8-1.6-2.6-7.7-4.9-15.6-7.7-23.2-2.3-6.3-6.6-10.4-13.7-9.1-4,.7-5.2,5.7-3.6,8.8a40.37,40.37,0,0,1,4.5,20.8c-.2,6.2,8.1,7.8,11.2,3a8.58,8.58,0,0,0-.8-10.4c-3.2-3.7-8.6-4.2-13.1-5.2-2.3-.5-4.7-1.1-7-1.6-1.6-.4-4.9-.5-6.2-1.7-1.1-1.1-1.3-4-1.6-5.5a48.7,48.7,0,0,1-.8-9.3h-12c.3,4.9-2.3,7.6-3.4,12.1-1,4.1.5,7.8,3.1,11,6.4,8.1,13.5,15.6,20.3,23.4,3.2,3.7,8.5,1.2,10-2.6a7.36,7.36,0,0,0,.5-3.6c-.3-7.7-12.3-7.7-12,0,0,.1-.1.2-.1.4,3.3-.9,6.7-1.8,10-2.6-5.6-6.4-11.2-12.9-16.8-19.3-.5-.5-3.3-3.2-3.4-4,0-.6,1.5-2.5,1.8-3.3a22.92,22.92,0,0,0,1.9-11.3c-.4-7.7-12.2-7.8-12,0s.4,20,7.8,24.8c3.4,2.2,7.5,2.8,11.3,3.7,2.3.5,4.7,1.1,7,1.6,1.2.3,2.3.5,3.5.8a12.44,12.44,0,0,1,1.6.4c1.8.7,1.7-.5-.2-3.6l11.2,3a51.91,51.91,0,0,0-6.2-26.8c-1.2,2.9-2.4,5.9-3.6,8.8-1.7-.5-2,0-.8,1.5.4,1.2.8,2.5,1.2,3.7.6,1.9,1.2,3.7,1.9,5.6,1.5,4.4,2.9,8.7,4.4,13.1,2.1,6.3,11.7,5.4,11.8-1.6.1-4.9.1-9.8.2-14.8h-12a35.27,35.27,0,0,0,4.1,14.2c3.5,6.5,11.9,1.6,11-4.6-.7-5.1-1.6-10.1-2.7-15.1-3.7,1.5-7.3,3.1-11,4.6.8,1.2,1.5,2.5,2.3,3.7,3.6,5.9,12.4,2,11-4.6a39.83,39.83,0,0,0-10.6-19.5c-1.4-1.4-3.9-2.3-5.8-1.5a36.43,36.43,0,0,0-7.1,3.6,6.49,6.49,0,0,0-2.8,6.8c.2,1.1,4.1,5.9,4.4,5.2-.4-.6-.7-1.3-1.1-1.9-.2.9-.3,1.8-.5,2.7a45.2,45.2,0,0,0-.6,5.3,66.19,66.19,0,0,0,1.8,20.8c1.6,6.7,11.7,5.1,11.8-1.6a199.32,199.32,0,0,0-1.6-26.7c-1-7.6-11.2-7.8-12,0a54.49,54.49,0,0,0,2.3,21.6c1.4,4.5,8.7,6.4,11,1.4a28.67,28.67,0,0,0,3-15.2l-11.2,3c2.8,4.1,2.7,8.9,3,13.7.3,5.6.7,11.3,1,16.9.5,7.6,11.9,7.8,12,0,0-3,.1-6.1.1-9.1h-12c.1,6,.3,12.1.4,18.1.2,7.7,11.8,7.7,12,0,.1-4.1.2-8.1.3-12.2.2-7.8-11.3-7.6-12,0l-.9,9c3.9-.5,7.9-1.1,11.8-1.6a25.42,25.42,0,0,1,.1-8.7c-3.9-.5-7.9-1.1-11.8-1.6q-.3,8.25-1.2,16.5c3.9-.5,7.9-1.1,11.8-1.6-2.1-6.4,1.5-13.1-1.1-19.7-1.9-4.8-10.5-6.5-11.6,0a127.71,127.71,0,0,0-1.6,21.4h12c-.5-5.6-.9-11.2-1.4-16.8-.7-7.8-11.2-7.7-12,0s-1.6,15.3-2.4,23h12c.3-9,.7-17.9,1-26.9.3-7.9-11.1-7.5-12,0-1,8.4-1.9,16.8-2.9,25.1h12q0-9.45-.9-18.9c-.8-7.8-11-7.6-12,0-1,7.9-2.1,15.7-3.1,23.6h12c.6-11,1.2-22.1,1.8-33.1.4-6.9-9.9-7.9-11.8-1.6-2.6,8.7-3.7,17.6-4.8,26.6h12c.5-13.3.9-26.7,1.4-40,.2-6.7-10.3-8.2-11.8-1.6-3.1,13.4-2.6,27.5-3,41.1h12c-1.8-14.6,1.8-29.6-3-43.9-1.5-4.6-8.5-6.3-11-1.4a69.66,69.66,0,0,0-8,34.1c.2,7.7,11.7,7.7,12,0a135,135,0,0,0-1-21.1c-.8-5.7-1.3-11.9-5.9-16-2.6-2.3-7.8-2.6-9.4,1.2-3.9,9.1-4.8,18.7-1.4,28.1,1.9,5.3,10,6.1,11.6,0,2.2-8.5,4.1-18.1,3.6-26.9-.5-7-8.5-13.4-14.4-7.1C77,147,77.5,159,85,160.8s12.7-6.2,11.7-12.9a11.45,11.45,0,1,0-21.4,7.3c3.8,7.1,11.8,7.3,18.1,3.8s14.7-9.9,17.7-16.6c4.8-10.9-10.5-11.6-17.1-12.7-4.1-.7-8.3-2-11.9.7-4,2.9-6.7,8.7-9.5,12.7-3.8,5.6,5,12.5,9.4,7.3l4.6-5.5c-3.1-2.4-6.3-4.8-9.4-7.3a45.44,45.44,0,0,0-8.2,18H80.6c-.3-1.2-.5-2.4-.8-3.6-3.9,1.1-7.7,2.1-11.6,3.2a49.14,49.14,0,0,1,2.1,7.5c1.3,6.8,11.7,5,11.8-1.6v-2.2h-12a32.69,32.69,0,0,0,3.5,13c2.6,5.4,11.4,2.7,11.2-3a19.23,19.23,0,0,0-3.3-10.6c-3.2-4.6-11.3-3.3-11.2,3A35.39,35.39,0,0,0,73,174.5c2.5,6,11.5,5.6,11.8-1.6.1-4,.3-8.1.4-12.1h-12a20.11,20.11,0,0,0,3.2,10.9c3.6,5.5,13.1,2.1,11-4.6a11.46,11.46,0,0,0-.8-2.8c-3.7-2.5-5.3-2.7-4.7-.5.1.5.2,1,.3,1.4a20.88,20.88,0,0,0,2.2,4.8c2.3,3.4,5.8,5.8,9.1,8.1.3.2,1.7,1.6,2.1,1.5.5.6.7.4.4-.5,0-1.1-.1-1.1-.2,0-.7,2.1-.3,4.8.1,7a24.08,24.08,0,0,0,6.1,12.1c3,3.4,9,1.6,10-2.6a30.19,30.19,0,0,0,.1-13.7c-1.5-7-11.2-4.8-11.8,1.6-.3,3.2-.4,6.4-.4,9.7,0,7.8,11.4,7.6,12,0a54.81,54.81,0,0,0-1.5-17.6c-1-4-7.2-6.3-10-2.6-5.3,6.8-5.1,17-6.3,25.3,3.9.5,7.9,1.1,11.8,1.6a120.34,120.34,0,0,0-1.1-24c-.8-6-10.3-5.4-11.6,0a47.65,47.65,0,0,0,1,26.2c2.2,6.6,11.2,5.1,11.8-1.6a184.44,184.44,0,0,0,.4-22.3c-.4-7.8-11.3-7.6-12,0-.7,7-1.4,14.1-2,21.1,3.9-.5,7.9-1.1,11.8-1.6-2.7-8,.7-16.7-2.5-24.8-1.7-4.1-8.7-6.7-11-1.4a33.11,33.11,0,0,0-2.9,17.8c.4,3.2,2.5,6,6,6,2.8-.2,6.3-3,5.9-6.2Z" transform="translate(-66.28 -104.7)"/><path class="cls-1" d="M125.7,174.8c.6-.9,1.1-1.7,1.7-2.6l-11.2-3c.1,1.3.1,2.6.2,3.9h12c-.1-.6,0-1.2-.1-1.8s0-.3-.1.3c.1-.3.1-.7.2-1-3.9-.5-7.9-1.1-11.8-1.6,0,1,.1,2.1.1,3.1a6,6,0,0,0,11.8,1.6,23.13,23.13,0,0,0,.9-7.4c-.2-3.1-2.6-6.2-6-6-3.1.1-6.2,2.6-6,6a24.32,24.32,0,0,1,0,2.7c0,.9.3-1.4,0,.1a5.73,5.73,0,0,1-.4,1.4c3.9.5,7.9,1.1,11.8,1.6,0-1-.1-2.1-.1-3.1a6,6,0,0,0-5.2-5.9,6,6,0,0,0-6.6,4.3,15.05,15.05,0,0,0-.5,5.6,6.17,6.17,0,0,0,1.8,4.2,6.44,6.44,0,0,0,4.2,1.8,6.08,6.08,0,0,0,6-6c-.1-1.3-.1-2.6-.2-3.9-.1-2.5-1.8-5.2-4.4-5.8a6.4,6.4,0,0,0-6.8,2.8c-.6.9-1.1,1.7-1.7,2.6a6,6,0,0,0,2.2,8.2,6.12,6.12,0,0,0,8.2-2.1Z" transform="translate(-66.28 -104.7)"/><path class="cls-1" d="M110.1,183.5a38.89,38.89,0,0,0,4.7,14.8c2.5,4.5,9.7,3.5,11-1.4.2-.6.3-1.3.5-1.9-3.7.5-7.3,1-11,1.4.2.5.5,1,.7,1.5,2.6,5.7,11,2.5,11.2-3,0-.2.1-.4.1-.6-3.7.5-7.3,1-11,1.4a4.87,4.87,0,0,0-.4-1.1c.2,6.6,10.1,8.4,11.8,1.6.2-1,.5-2,.7-2.9-3.9-.5-7.9-1.1-11.8-1.6,0,.7.1,1.4.1,2.2.3,6.4,10.6,8.6,11.8,1.6a108.14,108.14,0,0,0,1.3-27.8c-3.9.5-7.9,1.1-11.8,1.6.3,1,.6,2,.9,3.1,1.9,6.3,12,5.4,11.8-1.6-.2-5-.3-10.1-.5-15.1-3.9.5-7.9,1.1-11.8,1.6.2.8.4,1.7.6,2.5,1.4,5.3,10.7,6.1,11.6,0,.1-.7.2-1.3.3-2H119.3c.1.5.2,1.1.3,1.6,3.9-1.1,7.7-2.1,11.6-3.2a31.76,31.76,0,0,0-5.2-10.8c-4.6-5.9-14.8-.4-10.4,6.1.7,1.1,1.5,2.1,2.2,3.2,3.6,5.2,13.5,2.2,11-4.6-1.2-3.1-2.4-6.2-3.6-9.4-3.7,1.5-7.3,3.1-11,4.6,1.4,2.2,2.7,4.4,4.1,6.6,3.5,5.5,13.3,2.1,11-4.6a32.7,32.7,0,0,0-3.5-7.3c-4.3-6.3-14.2-.7-10.4,6.1a37.86,37.86,0,0,1,4.2,10.7c1.8,7.5,13.4,4.3,11.6-3.2a51.51,51.51,0,0,0-5.4-13.6c-3.5,2-6.9,4-10.4,6.1a18.46,18.46,0,0,1,2.3,4.4c3.7-1.5,7.3-3.1,11-4.6-1.4-2.2-2.7-4.4-4.1-6.6-3.4-5.5-13.5-2-11,4.6,1.2,3.1,2.4,6.2,3.6,9.4,3.7-1.5,7.3-3.1,11-4.6-.7-1.1-1.5-2.1-2.2-3.2-3.5,2-6.9,4-10.4,6.1a21.88,21.88,0,0,1,4,7.9c2,7.5,13,4.3,11.6-3.2-.1-.5-.2-1.1-.3-1.6-1-5.6-10.8-5.9-11.6,0-.1.7-.2,1.3-.3,2h11.6c-.2-.8-.4-1.7-.6-2.5-1.7-6.5-12-5.2-11.8,1.6.2,5,.3,10.1.5,15.1,3.9-.5,7.9-1.1,11.8-1.6-.3-1-.6-2-.9-3.1-1.9-6.2-12.4-5.4-11.8,1.6a96.31,96.31,0,0,1-.9,24.6c3.9.5,7.9,1.1,11.8,1.6,0-.7-.1-1.4-.1-2.2-.3-6.5-10.1-8.4-11.8-1.6-.2,1-.5,2-.7,2.9,3.9.5,7.9,1.1,11.8,1.6a10.23,10.23,0,0,0-1.3-4.9c-2.4-4.9-9.5-3.2-11,1.4a15.87,15.87,0,0,0-.6,3.8l11.2-3c-.2-.5-.5-1-.7-1.5-2.2-4.8-9.7-3.3-11,1.4-.2.6-.3,1.3-.5,1.9,3.7-.5,7.3-1,11-1.4a24.33,24.33,0,0,1-3.1-8.8c-.7-7.7-12.7-7.7-11.8-.1Z" transform="translate(-66.28 -104.7)"/><path class="cls-1" d="M88.8,170a49.22,49.22,0,0,0-8.1-2.3c-1.6.2-2.3-.6-2-2.3a1.23,1.23,0,0,0-2.4-.3l-.3.9h2.3a37.3,37.3,0,0,0-3.2-6.3,1.22,1.22,0,0,0-2.2.3,24,24,0,0,0-1.2,3.8l2.2-.3a11.05,11.05,0,0,1-1.5-4.3c-.3-1.5-2.5-.9-2.3.6a8.61,8.61,0,0,1,0,3.2l2.4-.3a13.71,13.71,0,0,1-.8-3.5c-.2-1.2-2-1.1-2.3,0a6.61,6.61,0,0,0-.3,2.4l2.4-.3-.3-2.1c-.2-1.5-2.2-.9-2.4.3l-.3,2.1h2.4a16.33,16.33,0,0,1,.1-3.1c.1-1.3-2.1-1.6-2.4-.3a14.16,14.16,0,0,1-.4,2l2.4.3c0-.8.1-1.6.1-2.5H68.3c.4,3.5.9,7,1.3,10.5a1.2,1.2,0,0,0,2.4,0c.1-1.3.2-2.5.3-3.8H69.9a5,5,0,0,0,.5,2.1,1.19,1.19,0,0,0,2.3-.6c-.2-1.8-.5-3.5-.7-5.3-.2-1.4-2.4-1-2.4.3a32.25,32.25,0,0,0,.9,7.6c.3,1.1,2.1,1.2,2.3,0,.1-.5.1-1,.2-1.5l-2.4-.3a28,28,0,0,1-.3,4l2.4-.3a3.87,3.87,0,0,1-.3-2.6H70c-.1,1.2-.1,2.4-.2,3.6-.1,1.6,2.3,1.5,2.4,0a8.08,8.08,0,0,0,0-3.1c-.1-1.2-2.2-1.7-2.4-.3a14.15,14.15,0,0,0-.2,2.9H72a13.4,13.4,0,0,0-.1-2,1.23,1.23,0,0,0-2.4-.3,3.55,3.55,0,0,0-.2,1l2.4.3c.1-.5.1-1.1.2-1.6.2-1.3-2.1-1.7-2.4-.3a16.35,16.35,0,0,0-.2,2.2l2.4-.3c-.1-.5-.1-1.1-.2-1.6,0-1.3-2.1-1.7-2.4-.3,0,.3-.1.6-.1,1a1.2,1.2,0,0,0,2.2.9,5.31,5.31,0,0,0,.8-1.7H69.7a25.35,25.35,0,0,1,.8,6.8c0,1.3,2.1,1.7,2.4.3a8.58,8.58,0,0,0,.2-2.3,1.23,1.23,0,0,0-2.4-.3l-.6,1.8,2.4.3c-.1-1.2-.2-2.4-.2-3.6a1.2,1.2,0,0,0-2.4,0,8.17,8.17,0,0,0-.1,2.7c0,1.6,2.2,1.5,2.4,0a11,11,0,0,0,.2-1.8H70c.1.7.1,1.4.2,2.1h2.4c-.1-.6-.2-1.3-.3-1.9-.2-1.5-2.5-1.6-2.4,0s.2,3,.3,4.4a1.19,1.19,0,0,0,2.2.6,1.91,1.91,0,0,0,.4-1.5H70.4v1.8c0,1,1.4,1.7,2,.8a1.91,1.91,0,0,0,.6-1.6,1.23,1.23,0,0,0-2.4-.3,5.58,5.58,0,0,0-.3,2.2,1.2,1.2,0,0,0,2.4,0v-2.7c0-1.3-2.1-1.7-2.4-.3a8.92,8.92,0,0,0-.3,2.8,1.2,1.2,0,0,0,2.4,0v-2.7c0-1.5-1.9-1.5-2.4-.3a4,4,0,0,0-.5,2.8c.1,1.3,2.1,1.7,2.4.3a9,9,0,0,0,.2-2.3c0-1.1-1.7-1.7-2.2-.6a2.51,2.51,0,0,1-.4.7l2.2.3c-.1-1-.3-2-.4-2.9-.2-1.5-2.5-.9-2.3.6.1,1,.3,2,.4,2.9s1.8,1.2,2.2.3a2.51,2.51,0,0,1,.4-.7l-2.2-.6c0,.6-.1,1.1-.1,1.7l2.4.3c.1-.7.3-1.4.4-2.2l-2.4-.3v2.7h2.4c.1-.7.1-1.4.2-2.2l-2.4-.3V179h2.4c.1-.5.1-1.1.2-1.6l-2.4-.3.1-.1c.7.3,1.4.6,2,.8V176a1.2,1.2,0,0,0-2.4,0c0,.1-.1.2-.1.3l2.2.6c-.1-1.5-.2-3-.3-4.4H69.6c.1.6.2,1.3.3,1.9.2,1.5,2.5,1.6,2.4,0-.1-.7-.1-1.4-.2-2.1a1.2,1.2,0,0,0-2.4,0,11,11,0,0,0-.2,1.8h2.4a12.21,12.21,0,0,1,.1-2.7H69.6c.1,1.2.2,2.4.2,3.6a1.23,1.23,0,0,0,2.4.3l.6-1.8-2.4-.3c0,.5-.1,1.1-.1,1.6l2.4.3a30.6,30.6,0,0,0-.9-7.4,1.2,1.2,0,0,0-2.3,0,6.12,6.12,0,0,0-.5,1.2c.7.3,1.5.6,2.2.9,0-.3.1-.6.1-1l-2.4-.3a7.8,7.8,0,0,0,.3,2.2c.3,1.4,2.3,1,2.4-.3.1-.5.1-1,.2-1.6l-2.4-.3c-.1.5-.1,1.1-.2,1.6-.2,1.3,2.1,1.6,2.4.3a3.55,3.55,0,0,0,.2-1l-2.4-.3a13.4,13.4,0,0,0,.1,2,1.2,1.2,0,0,0,2.4,0c0-.7.1-1.5.1-2.2l-2.4-.3a8.08,8.08,0,0,1,0,3.1H72c.1-1.2.1-2.4.2-3.6.1-1.6-2.2-1.5-2.4,0a8.52,8.52,0,0,0,.3,3.2,1.23,1.23,0,0,0,2.4-.3,26,26,0,0,0,.3-4c0-1.3-2.2-1.7-2.4-.3-.1.5-.1,1-.2,1.5h2.3a32.74,32.74,0,0,1-.9-7l-2.4.3c.2,1.8.5,3.5.7,5.3l2.3-.6c-.1-.5-.3-1-.4-1.5a1.2,1.2,0,0,0-2.4,0c-.1,1.3-.2,2.5-.3,3.8h2.4c-.4-3.5-.9-7-1.3-10.5a1.2,1.2,0,0,0-2.4,0c0,.8-.1,1.6-.1,2.5a1.23,1.23,0,0,0,2.4.3,14.16,14.16,0,0,1,.4-2l-2.4-.3a15.82,15.82,0,0,0-.1,3.1c0,1.6,2.2,1.5,2.4,0l.3-2.1-2.4.3.3,2.1c.2,1.4,2.3,1,2.4-.3l.3-1.8H69a22.07,22.07,0,0,0,.8,3.5,1.24,1.24,0,0,0,2.4-.3,12.12,12.12,0,0,0-.1-3.8l-2.3.6a13.25,13.25,0,0,0,1.8,4.8,1.22,1.22,0,0,0,2.2-.3,27.79,27.79,0,0,1,1.2-3.8l-2.2.3a38.14,38.14,0,0,1,2.9,5.7,1.2,1.2,0,0,0,2.3,0l.3-.9-2.4-.3c.3,2.7,1,6,4.2,6.6,2.5.4,4.2-1.4,4.2-3.8,0-1.6-.9-4.5-3.1-3.7-2,.7-1.8,4.3-1.1,5.8,2.4,5.2,10.5,1.8,8.1-3.5-.7-1.5-2.3-2.6-3.7-1.1-2,2.2,1,5.4,2.8,6.5,1.6.8,2.8-1.3,1.5-2.1Z" transform="translate(-66.28 -104.7)"/><path class="cls-1" d="M72.5,264c-.1.1-.1.3-.2.4a1.14,1.14,0,0,0,.4,1.6c.1.1.2.1.4.2v-2.1c-1.2.4-2.4.7-3.7,1.1.3.6.7,1.2,1,1.8.7-1.7,1.5-3.3,2.2-5,.5-1.2-.9-2.5-1.9-1.5l-.9.9c.7.4,1.3.8,2,1.2.8-3.1,1.5-6.3,2.1-9.5a1.19,1.19,0,0,0-2.3-.6c-.3,1.1-.7,2.2-1,3.3l2.3.6a149.17,149.17,0,0,0,1.4-30.6H71.9c.2,2.9.4,5.9.6,8.8.1,1.5,2.5,1.5,2.4,0-.2-2.9-.4-5.9-.6-8.8-.1-1.5-2.5-1.5-2.4,0a142.41,142.41,0,0,1-1.3,29.9,1.19,1.19,0,1,0,2.3.6c.3-1.1.7-2.2,1-3.3l-2.3-.6c-.6,3.2-1.3,6.3-2.1,9.5-.3,1.1,1.2,2.1,2,1.2l.9-.9c-.6-.5-1.3-1-1.9-1.5-.7,1.7-1.5,3.3-2.2,5a1.21,1.21,0,0,0,1,1.8,7.23,7.23,0,0,0,4.9-1.4,1.26,1.26,0,0,0,0-2.1c-.1-.1-.2-.1-.4-.2.1.5.3,1.1.4,1.6.1-.1.1-.3.2-.4.8-1.2-1.2-2.4-1.9-1Z" transform="translate(-66.28 -104.7)"/><path class="cls-1" d="M74.9,226c-.2.1-.4.3-.6.4.6.2,1.2.5,1.8.7-.1-.7-.1-1.4-.2-2.1,0-1.1-1.7-1.7-2.2-.6a4.67,4.67,0,0,0-.5,1l2.2.3c-.2-1.3-.5-2.7-.7-4s-2.3-1-2.4.3-.1,2.6-.2,3.9h2.4c-.7-6.8.1-13.6,0-20.4a1.23,1.23,0,0,0-2.4-.3,16.25,16.25,0,0,0-.2,7.6c.3,1.3,2.5,1,2.4-.3-.3-3-.6-6-.9-9.1-.1-1.5-2.5-1.5-2.4,0,.2,3,.5,6,.9,9.1l2.4-.3a12.25,12.25,0,0,1,.2-6.3l-2.4-.3c.1,6.8-.7,13.6,0,20.4a1.2,1.2,0,0,0,2.4,0c.1-1.3.1-2.6.2-3.9l-2.4.3c.2,1.3.5,2.7.7,4a1.22,1.22,0,0,0,2.2.3,4.67,4.67,0,0,0,.5-1l-2.2-.6a26.35,26.35,0,0,0,.2,2.8,1.26,1.26,0,0,0,1.8.7c.2-.1.4-.3.6-.4,1.3-1,.1-3.1-1.2-2.2Z" transform="translate(-66.28 -104.7)"/><path class="cls-1" d="M76,202.7c-.2-1.1-.5-2.2-.7-3.3-.3-1.3-1.9-1-2.3,0a26.43,26.43,0,0,0-1.2,4h2.3c-.3-1-.5-2-.8-3l-2.4.3c0,.7.1,1.3.1,2-.1,1.5,2.3,1.5,2.4,0,.4-4.8-.7-9.6-.7-14.5a75,75,0,0,0-.8-12.5c-.2-1.5-2.5-.9-2.3.6a106.32,106.32,0,0,1,.7,13.8c.1,4.2,1.1,8.3.7,12.5h2.4a5.76,5.76,0,0,0-.2-2.6c-.3-1.3-2.5-1-2.4.3a7.4,7.4,0,0,0,.9,3.6c.4,1,2,1.3,2.3,0a30.38,30.38,0,0,1,1.2-4H72.9c.2,1.1.5,2.2.7,3.3a1.23,1.23,0,1,0,2.4-.5Z" transform="translate(-66.28 -104.7)"/><path class="cls-1" d="M75.6,169.2c-.3-.2-.5-.3-.8-.5a1.28,1.28,0,0,0-1.8.7,4.92,4.92,0,0,1-1,1.5,12.25,12.25,0,0,0,1.9.2,10.38,10.38,0,0,1-.4-1,1.17,1.17,0,0,0-1.9-.2c-.2.3-.4.5-.6.8a14.62,14.62,0,0,0,2,.5c0-.2-.1-.5-.1-.7a1.22,1.22,0,0,0-2.2-.3c-.2.4-.5.9-.7,1.3h2.1v-.3c-.7-.3-1.5-.6-2.2-.9-.2.5-.3.9-.5,1.4-.5,1.5,1.8,2.1,2.3.6a1.39,1.39,0,1,0-2.6-1c-.6,1.5,1.7,2,2.3.6a7,7,0,0,0,.5-3.5c-.2-1.5-2.6-1.5-2.4,0a5.86,5.86,0,0,1-.4,2.9l2.3.6v-.1l-.8.8h.1c-.3,0-.6-.1-.9-.1a.1.1,0,0,1,.1.1c-.2-.3-.4-.7-.6-1v.1l2.3.6c.2-.5.3-.9.5-1.4a1.2,1.2,0,0,0-2.2-.9,2.62,2.62,0,0,0,0,2.7,1.26,1.26,0,0,0,2.1,0c.2-.4.5-.9.7-1.3l-2.2-.3c0,.2.1.5.1.7a1.17,1.17,0,0,0,2,.5c.2-.3.4-.5.6-.8a12.25,12.25,0,0,0-1.9-.2,10.38,10.38,0,0,1,.4,1,1.23,1.23,0,0,0,1.9.2,5.15,5.15,0,0,0,1.6-2.5c-.6.2-1.2.5-1.8.7.3.2.5.3.8.5a1.22,1.22,0,1,0,1.4-2Z" transform="translate(-66.28 -104.7)"/><path class="cls-1" d="M117.5,250.5c1.5,3.5,2.7,7.2,4.4,10.5,1.4,2.8,3.2,3.7,5.5,5.7a14.62,14.62,0,0,0,.5-2l-3,.6a1.2,1.2,0,0,0,0,2.4c1.6.2,3.2.4,4.8.5l-.3-2.4c-1.2.3-2.4.6-3.6.8.2.8.4,1.5.6,2.3a31.07,31.07,0,0,0,3.2-.4c-.2-.7-.4-1.5-.6-2.2a8.27,8.27,0,0,0-1.3.7,1.19,1.19,0,0,0,.6,2.2,5.34,5.34,0,0,0,2.2-.3,1.26,1.26,0,0,0,.7-1.8c-.7-1.6-1.4-3.1-2.1-4.6a1.2,1.2,0,0,0-2.2.9c.1.5.2,1,.3,1.6l2.4-.3a73.67,73.67,0,0,0-2-8.1,1.19,1.19,0,0,0-2.3.6,58.31,58.31,0,0,0,2.5,7c.5,1.1,2.4.6,2.2-.6a52.77,52.77,0,0,0-1.3-6.7c-.4-1.5-2.5-.8-2.3.6s.4,2.6.6,4l2.3-.6a90,90,0,0,1-1.6-10.4c-.2-1.5-2.5-1.5-2.4,0l.6,6c.1,1.5,2.5,1.6,2.4,0-.2-3.3-.6-6.5-1.1-9.8-.3-1.5-2.5-.9-2.3.6l.9,6c.2,1.3,2.5,1,2.4-.3-.3-2.2-.4-4.3-.5-6.5l-2.4.3c.6,3.7,1.3,7.4,1.9,11.2.2,1.3,2.5,1,2.4-.3-.7-6.2-1.3-12.5-2-18.7-.2-1.5-2.6-1.5-2.4,0,.7,6.2,1.3,12.5,2,18.7l2.4-.3c-.6-3.7-1.3-7.4-1.9-11.2-.2-1.3-2.4-1-2.4.3.1,2.2.2,4.3.5,6.5l2.4-.3-.9-6-2.3.6c.5,3,.9,6.1,1.1,9.1h2.4l-.6-6h-2.4c.4,3.7,1,7.4,1.7,11,.3,1.5,2.5.9,2.3-.6-.2-1.3-.4-2.6-.6-4l-2.3.6a30.38,30.38,0,0,1,1.2,6l2.2-.6a49.7,49.7,0,0,1-2.2-6.5l-2.3.6a45.65,45.65,0,0,1,2,8.1c.2,1.3,2.4,1,2.4-.3a4.13,4.13,0,0,0-.4-2.2c-.7.3-1.5.6-2.2.9.7,1.5,1.5,3.1,2.1,4.6.2-.6.5-1.2.7-1.8-.5.1-1.1.1-1.6.2.2.7.4,1.5.6,2.2a8.27,8.27,0,0,0,1.3-.7,1.19,1.19,0,0,0-.6-2.2,10.39,10.39,0,0,0-3.9.4,1.19,1.19,0,0,0,.6,2.3c1.2-.3,2.4-.6,3.6-.8,1.4-.3.9-2.2-.3-2.4-1.6-.2-3.2-.4-4.8-.5v2.4a9.71,9.71,0,0,0,3.7-.7,1.2,1.2,0,0,0,.5-2c-1.9-1.7-3.8-3-5.1-5.2-1.7-3.1-2.8-6.7-4.2-10-.6-.7-3-.1-2.4,1.3Z" transform="translate(-66.28 -104.7)"/><path class="cls-1" d="M129.2,201.1c.3-2.1.7-4.2.8-6.3.1-1.2-.6-2.5-2-2.2a1.19,1.19,0,0,0,.6,2.3c.1,0,.1,0,.2-.1l-1.2-.3c.1.1-.4,2.3-.4,2.7-.1,1.1-.3,2.1-.4,3.2-.2,1.5,2.1,2.2,2.4.7Z" transform="translate(-66.28 -104.7)"/><path class="cls-1" d="M123.4,233.1c.2,1.3.5,2.7.7,4,.7-.3,1.5-.6,2.2-.9a5.07,5.07,0,0,1-.2-1.3l-2.4-.3c.1,1.4.2,2.9.3,4.3a1.2,1.2,0,0,0,2.4,0c.1-.9.2-1.9.3-2.8h-2.4c.1,1.3.2,2.6.4,3.8a1.2,1.2,0,0,0,2.4,0,26.73,26.73,0,0,0,.1-4h-2.4c.1.9.1,1.8.2,2.7h2.4a10.63,10.63,0,0,1-.1-3.1l-2.4.3c0,.8-.1,1.6-.1,2.4l2.4.3c.6-13,1.3-25.9,2.2-38.9.1-1.5-2.3-1.5-2.4,0-.9,12.9-1.7,25.9-2.2,38.9-.1,1.3,2.1,1.6,2.4.3a6.63,6.63,0,0,0,.1-3.7c-.2-1.4-2.3-1-2.4.3a16.33,16.33,0,0,0,.1,3.1c.2,1.5,2.5,1.6,2.4,0-.1-.9-.1-1.8-.2-2.7-.1-1.5-2.5-1.6-2.4,0a26.73,26.73,0,0,1-.1,4h2.4c-.1-1.3-.2-2.6-.4-3.8a1.2,1.2,0,0,0-2.4,0c-.1.9-.2,1.9-.3,2.8h2.4c-.1-1.4-.2-2.9-.3-4.3s-2.2-1.7-2.4-.3a3.8,3.8,0,0,0,.5,3.1c.7,1.3,2.4.3,2.2-.9s-.5-2.7-.7-4c-.3-1.5-2.6-.9-2.3.7Z" transform="translate(-66.28 -104.7)"/><path class="cls-1" d="M125.3,233.2c.1-1.2.1-2.4.2-3.6l-2.4-.3a31.54,31.54,0,0,1-.5,10.6l2.2-.3c-1.2-2.8.4-7.4.9-10.3s1.1-5.9,1.8-8.9l-2.3-.6a60.25,60.25,0,0,0-1.2,10.4h2.4a97.39,97.39,0,0,1,.3-10.8c.1-1.4-2.1-1.6-2.4-.3a33.14,33.14,0,0,0-.8,5.5c-.1,1.5,2.3,1.5,2.4,0a26.48,26.48,0,0,1,.7-4.8l-2.4-.3a97.39,97.39,0,0,0-.3,10.8,1.2,1.2,0,0,0,2.4,0,54.48,54.48,0,0,1,1.1-9.8c.3-1.5-2-2.2-2.3-.6-.9,4.2-1.7,8.4-2.3,12.6-.4,2.8-1.3,5.8-.1,8.4a1.22,1.22,0,0,0,2.2-.3,35.06,35.06,0,0,0,.6-11.2,1.23,1.23,0,0,0-2.4-.3,11.53,11.53,0,0,0-.2,4.9c.3,1.4,2.6.7,2.4-.8Z" transform="translate(-66.28 -104.7)"/><path class="cls-1" d="M70.9,264.9c1.5.5,2.9,1,4.4,1.5.2-.8.4-1.5.6-2.3a11.36,11.36,0,0,0-4.5,0,1.17,1.17,0,0,0-.5,2,5.44,5.44,0,0,0,4.4,1.5,1.23,1.23,0,0,0,.3-2.4,5,5,0,0,0-3.4-.2,1.19,1.19,0,0,0-.6,2.2,7.62,7.62,0,0,0,2.9,1.3c1.3.4,2.2-1.6.9-2.2a9,9,0,0,0-4.2-1c-1.6,0-1.5,2.2,0,2.4,1.8.2,3.6.5,5.5.7l-.3-2.4c-.6.2-1.1.5-1.7.7-1.1.5-1.2,2.5.3,2.4,3.6-.3,7.1-.6,10.7-1l-.3-2.4c-1.4.1-2.8.3-4.1.4l-.3,2.4c3.8-.4,7.5-.7,11.3-1.1a1.2,1.2,0,0,0,0-2.4,21.54,21.54,0,0,0-7.6.5c-1.4.3-1,2.3.3,2.4a63.79,63.79,0,0,0,10.7-.3l-.3-2.4a6.4,6.4,0,0,1-4.5.7v2.4a17,17,0,0,1,3.9.2l.3-2.4c-1,.1-2,.1-3.1.2-1.5.1-1.6,2.5,0,2.4,11-.5,22-.9,32.9.4,1.4.2,1.6-2,.3-2.4-4.6-1.4-9.2-2.5-13.6.2-1,.6-.6,2.4.6,2.2.8-.1,1.6-.1,2.4-.2,1.5-.1,1.5-2.5,0-2.4-.8.1-1.6.1-2.4.2.2.7.4,1.5.6,2.2,3.7-2.3,7.8-1.1,11.7.1l.3-2.4c-11-1.3-21.9-.9-32.9-.4v2.4c1-.1,2-.1,3.1-.2s1.7-2.2.3-2.4a34,34,0,0,0-4.5-.3,1.2,1.2,0,0,0,0,2.4,9.38,9.38,0,0,0,5.2-.8c1.1-.4,1.1-2.5-.3-2.4a63.79,63.79,0,0,1-10.7.3l.3,2.4a18,18,0,0,1,6.9-.4v-2.4c-3.8.4-7.5.7-11.3,1.1-1.2.1-1.8,2.1-.3,2.4a9.92,9.92,0,0,0,5.4-.4c1.2-.4,1.1-2.5-.3-2.4-3.6.3-7.1.6-10.7,1l.3,2.4c.6-.2,1.1-.5,1.7-.7a1.23,1.23,0,0,0-.3-2.4c-1.8-.2-3.6-.5-5.5-.7v2.4l3,.6c.3-.7.6-1.5.9-2.2-.8-.4-1.5-.7-2.3-1.1-.2.7-.4,1.5-.6,2.2.9,0,1.8.1,2.8.1l.3-2.4a27.58,27.58,0,0,0-2.7-.8,14.62,14.62,0,0,0-.5,2h3.3a1.19,1.19,0,0,0,.6-2.3c-1.5-.5-2.9-1-4.4-1.5-1.5,0-2.1,2.3-.7,2.8Z" transform="translate(-66.28 -104.7)"/><path class="cls-1" d="M115.4,266.9a2.65,2.65,0,0,0,2.5,1.5l-.3-2.4a4.68,4.68,0,0,1-1.7.2l.3,2.4c1.7-.4,3.7-.1,3.8-2.5s-2.3-3-3.5-4.7c-.5.6-.9,1.2-1.4,1.8a24.15,24.15,0,0,0,5.9,1.4,1.18,1.18,0,0,0,1-1.8,6.29,6.29,0,0,0-2.7-2.4c-.3.7-.6,1.5-.9,2.2,1.6.5,3.3,1,4.9,1.5a1.21,1.21,0,0,0,1.2-2,4.25,4.25,0,0,0-3-1.4,1.15,1.15,0,0,0-1,1.8c.3.5.7.9,1,1.4s.4,1,.6.6l1.2-.9a16,16,0,0,1-3-.3c-1.2-.2-1.6,1.7-.6,2.2a18,18,0,0,0,5.1,1.7l.3-2.4a11.48,11.48,0,0,1-3.7-.6l-.3,2.4c1.7,0,3.3.1,5,.1,1.1,0,1.7-1.8.6-2.2s-1.9-.8-2.9-1.2c-.2.7-.4,1.5-.6,2.2a9.7,9.7,0,0,0,1.7-.1,1.18,1.18,0,0,0,1-1.8,3.56,3.56,0,0,0-1.4-1.6c-.3.7-.6,1.5-.9,2.2.3.1.6.1.9.2,1.5.3,2.1-2,.6-2.3-.3-.1-.6-.1-.9-.2a1.2,1.2,0,0,0-.9,2.2c.2.2.3.5.5.7.3-.6.7-1.2,1-1.8a9.7,9.7,0,0,0-1.7.1c-1.1,0-1.8,1.7-.6,2.2,1,.4,1.9.8,2.9,1.2.2-.7.4-1.5.6-2.2-1.7,0-3.3-.1-5-.1-1.4,0-1.5,1.9-.3,2.4a12.51,12.51,0,0,0,4.3.7c1.3,0,1.7-2.1.3-2.4a18.06,18.06,0,0,1-4.5-1.4c-.2.7-.4,1.5-.6,2.2a15.26,15.26,0,0,0,3,.3,1.29,1.29,0,0,0,1.2-.9c.5-1.4-1.1-2.8-1.9-3.8-.3.6-.7,1.2-1,1.8.4.2.9.5,1.3.7.4-.7.8-1.3,1.2-2-1.6-.5-3.3-1-4.9-1.5a1.2,1.2,0,0,0-.9,2.2,4,4,0,0,1,1.8,1.6c.3-.6.7-1.2,1-1.8a24.16,24.16,0,0,1-5.3-1.3c-1-.4-1.9.9-1.4,1.8a6.17,6.17,0,0,0,1.8,1.8c.4.3,1.7,1,.7,1.7-.1.1-1.3.1-1.5.2a1.24,1.24,0,0,0,.3,2.4,9.08,9.08,0,0,0,2.3-.3,1.24,1.24,0,0,0-.3-2.4c-.1-.1-.3-.2-.4-.3-.5-1.6-2.5-.4-1.8,1Z" transform="translate(-66.28 -104.7)"/><path class="cls-1" d="M79.1,153.7l-.3-1.5-2.2.3c-.5-.2-1.1-.4-1.6-.6l-1.5,1.2c-.7.1-.5.7.4,1.9H71.6c-.1.9.3,1.3,1.1,1.2a1.19,1.19,0,0,0-2.3.6c0,.3-.1.6-.1.9l2.2-.3-.6-3.3H69.5a18.29,18.29,0,0,1,.2,3.3,10.93,10.93,0,0,1,1.5-.8,3.07,3.07,0,0,1-.2-2.1c.1-1.4-2-1.6-2.4-.3-.1.5-.3,1.1-.4,1.6h2.3c-.2-.4-.4-.9-.6-1.3-.6-1.4-2.9-.8-2.3.6a8.34,8.34,0,0,1,1,3.4c.2,1.4,2.4,1,2.4-.3v-2.9H68.6a9.91,9.91,0,0,0,.4,3.4c.6-.5,1.2-.9,1.8-1.4-.3-.5-.6-1-.9-1.6l-2.2.6c.3.7.6,1.3.9,2a1.2,1.2,0,0,0,2.2-.9c-.8-2.7-1.5-5,.4-7.7-.7-.3-1.5-.6-2.2-.9-.3.5-.7,1-1,1.5.7.4,1.3.8,2,1.2a5.33,5.33,0,0,1,1.8-4c-.7-.3-1.4-.6-2-.8l-.3.6c.6.5,1.3,1,1.9,1.5.6-.9,1.1-1.9,1.7-2.8-.7-.3-1.5-.6-2.2-.9-.4.7-.9,1.5-1.3,2.2.7.4,1.3.8,2,1.2a7.12,7.12,0,0,1,1.9-4l-2.1-1.2a8.27,8.27,0,0,1-2.6,3.5c.6.5,1.3,1,1.9,1.5a78,78,0,0,1,5.8-9.1L74.4,138a20.85,20.85,0,0,1-3.3,4.5c.6.5,1.3,1,1.9,1.5a62.31,62.31,0,0,0,6.1-14.9c.3-1.3-1.6-2.2-2.2-.9a97.83,97.83,0,0,0-4.7,12.1l2.3.6a13.46,13.46,0,0,1,2.1-5.1l-2.1-1.2c-1.1,2.4-2.3,4.7-3.4,7.1-.7,1.4,1.4,2.6,2.1,1.2,1.1-2.4,2.3-4.7,3.4-7.1a1.21,1.21,0,0,0-2.1-1.2,14.9,14.9,0,0,0-2.3,5.7,1.19,1.19,0,0,0,2.3.6c1.3-3.9,2.8-7.7,4.5-11.5-.7-.3-1.5-.6-2.2-.9A66,66,0,0,1,71,142.8a1.23,1.23,0,0,0,1.9,1.5,22.33,22.33,0,0,0,3.7-5,1.21,1.21,0,0,0-2.1-1.2,66.7,66.7,0,0,0-5.8,9.1,1.23,1.23,0,0,0,1.9,1.5,13.14,13.14,0,0,0,3-4,1.21,1.21,0,0,0-2.1-1.2,11.57,11.57,0,0,0-2.1,4.5c-.3,1.1,1.2,2.2,2,1.2a11.22,11.22,0,0,0,2-3.3c.5-1.3-1.5-2.1-2.2-.9-.6.9-1.1,1.9-1.7,2.8a1.23,1.23,0,0,0,1.9,1.5c.9-.8.9-1.1,1-2.3a1.16,1.16,0,0,0-2-.8,9,9,0,0,0-2.4,5.1,1.21,1.21,0,0,0,2,1.2,3.9,3.9,0,0,0,1.7-2.6,1.2,1.2,0,0,0-2.2-.9c-2.2,3-1.7,6.1-.7,9.5.7-.3,1.5-.6,2.2-.9-.3-.7-.6-1.3-.9-2-.5-1.1-2.4-.6-2.2.6a4.29,4.29,0,0,0,2.1,3.6c.9.7,2-.4,1.8-1.4s-.2-1.9-.3-2.8a1.2,1.2,0,0,0-2.4,0v2.9l2.4-.3a7.91,7.91,0,0,0-1-3.4l-2.3.6c.2.4.4.9.6,1.3.4,1,2,1.2,2.3,0,.1-.5.3-1.1.4-1.6l-2.4-.3c-.1,1.8-.2,4.1,2,4.4a1.24,1.24,0,0,0,1.5-.8,10.82,10.82,0,0,0-.1-4,1.2,1.2,0,0,0-2.4,0,7.63,7.63,0,0,0,.9,4.5,1.22,1.22,0,0,0,2.2-.3,3.33,3.33,0,0,0,.1-2.2L71,157c.5,1.2,1.4,2.8,3,2s.8-3.3.5-4.5-2.1-1.2-2.3,0c-.5,2.3,1.8,4.2,3.8,2.4,1.8-1.7.8-5.1-1.3-6-.8-.3-1.5.5-1.5,1.2-.1,7,9.1,4.3,6.1-.6a1.22,1.22,0,0,0-2.2.3c-.3,1.7-.3,1.8.6,3.3.1,1.1,2.2-.1,1.4-1.4Z" transform="translate(-66.28 -104.7)"/><path class="cls-1" d="M78.4,131.4a53.21,53.21,0,0,1-3.2,7.8c-.8,1.7-2,5.4-3.8,6a10.93,10.93,0,0,0,1.5.8c0-.4.1-.9.1-1.3H70.7c-.2.5-.3,1-.5,1.5a14.62,14.62,0,0,0,2,.5c.1-.4.1-.7.2-1.1.6-1.4-1.7-2-2.3-.6a3.3,3.3,0,0,0-.2,2.4,1.2,1.2,0,0,0,2,.5,3.79,3.79,0,0,0,1.1-3.8c-.2-1.2-2-1.1-2.3,0a4.61,4.61,0,0,0-.1,2.6,1.2,1.2,0,0,0,1.5.8c2.4-.8,3.4-3.5,4.5-5.6a93.17,93.17,0,0,0,4.2-9.8c.5-1.5-1.9-2.1-2.4-.7Z" transform="translate(-66.28 -104.7)"/><path class="cls-1" d="M80.8,129c.4-1.4.9-2.8,1.3-4.2s-1.7-2.2-2.2-.9c-.8,1.8-1.6,3.7-2.4,5.5l2.2.6a16.9,16.9,0,0,1,.9-6.3c.5-1.5-1.7-2-2.3-.6s-1.3,3.1-1.9,4.6l2.4.3a3.11,3.11,0,0,1,.6-2.9l-2.2-.6a7.57,7.57,0,0,1-.1,1.5l2.4.3c.2-1.9.5-3.8.7-5.7.2-1.4-2-1.6-2.4-.3-.6,1.9-1.1,3.9-1.7,5.8l2.4.3a8.9,8.9,0,0,1,1.2-3.9l-2.2-.6a24.5,24.5,0,0,1-.9,5.3l2.3.6c.3-1.3.6-2.6,1-3.9a1.19,1.19,0,0,0-2.3-.6c-.3.9-.6,1.9-.9,2.8l2.3.6a86.28,86.28,0,0,1,2.8-8.6l-2.4-.3a19.13,19.13,0,0,1-.6,4.8h2.3a9.41,9.41,0,0,1,.5-5.5l-2.4-.3a25.51,25.51,0,0,1-.1,7.3h2.3a11.34,11.34,0,0,1,.2-8.3H79.3a59,59,0,0,1,1.3,11.1l2.4-.3a25.51,25.51,0,0,1-.7-7.3l-2.2.6a46.05,46.05,0,0,1,3.2,8c.7-.3,1.5-.6,2.2-.9a48.19,48.19,0,0,1-2.7-7.2c-.7.3-1.5.6-2.2.9a40.2,40.2,0,0,1,4.1,7.3c.7-.3,1.5-.6,2.2-.9-.8-1.5-1.7-3-2.5-4.4-.6.5-1.3,1-1.9,1.5,1.4,1.7,2.7,3.4,4.1,5l1.7-1.7c-1.1-1.3-2.3-2.6-3.4-3.8l-1.7,1.7c2.5,2.3,4.9,4.6,7.4,6.9.5-.6,1-1.3,1.5-1.9a49.53,49.53,0,0,1-6.4-4.6c-1.2-1-2.8.6-1.7,1.7.9.8,1.7,1.6,2.6,2.4,1,1,2.4-.2,1.9-1.5a35.11,35.11,0,0,1-2.9-11,1.23,1.23,0,0,0-2.4-.3,45.07,45.07,0,0,0-.9,5.3l2.2-.6a6.41,6.41,0,0,1-.3-4.9c.5-1.5-1.8-2.1-2.3-.6a8.24,8.24,0,0,0,.5,6.7c.6,1.2,2.1.5,2.2-.6.2-1.6.5-3.1.8-4.6l-2.4-.3a37.91,37.91,0,0,0,3.2,12.3c.6-.5,1.3-1,1.9-1.5-.9-.8-1.7-1.6-2.6-2.4l-1.7,1.7a54.1,54.1,0,0,0,6.9,4.9,1.22,1.22,0,0,0,1.5-1.9c-2.5-2.3-4.9-4.6-7.4-6.9-1.1-1.1-2.7.5-1.7,1.7s2.3,2.6,3.4,3.8,2.7-.5,1.7-1.7c-1.4-1.7-2.7-3.4-4.1-5-.9-1.1-2.5.3-1.9,1.5.8,1.5,1.7,3,2.5,4.4.7,1.1,2.7.4,2.2-.9a46.4,46.4,0,0,0-4.3-7.9,1.2,1.2,0,0,0-2.2.9,52,52,0,0,0,2.9,7.8,1.2,1.2,0,0,0,2.2-.9,52.41,52.41,0,0,0-3.5-8.5,1.19,1.19,0,0,0-2.2.6,29.88,29.88,0,0,0,.8,7.9,1.24,1.24,0,0,0,2.4-.3,51.28,51.28,0,0,0-1.4-11.7c-.3-1.3-1.9-1-2.3,0a13,13,0,0,0-.2,9.5c.3,1,2.1,1.3,2.3,0a30,30,0,0,0,.2-7.9,1.24,1.24,0,0,0-2.4-.3,11.3,11.3,0,0,0-.5,6.8c.2,1.2,2,1.1,2.3,0a20.24,20.24,0,0,0,.7-5.5c0-1.4-1.9-1.5-2.4-.3a86.29,86.29,0,0,0-2.8,8.6,1.19,1.19,0,0,0,2.3.6c.3-.9.6-1.9.9-2.8l-2.3-.6c-.3,1.3-.6,2.6-1,3.9a1.19,1.19,0,0,0,2.3.6,40.41,40.41,0,0,0,1-5.9,1.19,1.19,0,0,0-2.2-.6,11.59,11.59,0,0,0-1.5,5.1c-.1,1.4,2,1.6,2.4.3.6-1.9,1.1-3.9,1.7-5.8l-2.4-.3c-.2,1.9-.5,3.8-.7,5.7-.2,1.4,2,1.6,2.4.3a3,3,0,0,0,.1-2.1,1.19,1.19,0,0,0-2.2-.6,6,6,0,0,0-.9,4.1,1.23,1.23,0,0,0,2.4.3c.6-1.5,1.3-3.1,1.9-4.6l-2.3-.6a18.3,18.3,0,0,0-1,7c.1,1.1,1.7,1.8,2.2.6.8-1.8,1.6-3.7,2.4-5.5-.7-.3-1.5-.6-2.2-.9-.4,1.4-.9,2.8-1.3,4.2-.5,1.1,1.9,1.8,2.3.3Z" transform="translate(-66.28 -104.7)"/><path class="cls-1" d="M83,120a31.92,31.92,0,0,1,.3-6.9,1.19,1.19,0,0,0-2.3-.6c-.7,1.8-1.4,3.6-2,5.3l2.2-.3a3.49,3.49,0,0,1-.2-3.8l-2.2-.3a15.06,15.06,0,0,1,.6,3.7,1.2,1.2,0,0,0,2.4,0c.1-2.4.3-4.7.4-7.1H79.8a12.88,12.88,0,0,1-1,5.1l2.4.3a59.85,59.85,0,0,1,.7-6.1,1.19,1.19,0,0,0-2.3-.6l-.6,1.8h2.3c-.3-.9-.2-1,.2-.2A10.93,10.93,0,0,0,81,112a15.53,15.53,0,0,0-.4,2.1,16.25,16.25,0,0,0,.2,5.8,1.2,1.2,0,0,0,2.3,0,45.19,45.19,0,0,0,.8-10.4l-2.4.3a64.83,64.83,0,0,1,.6,7.6l2.4-.3a17,17,0,0,1-1.2-7H80.9c.2,1.7.3,3.4.5,5.2a1.2,1.2,0,0,0,2.4,0c0-2.3-.1-4.7-.3-7H81.1l.6,6a1.2,1.2,0,0,0,2.4,0v-5.9a1.2,1.2,0,0,0-2.4,0v5.9h2.4l-.6-6c-.1-1.5-2.5-1.5-2.4,0,.2,2.3.3,4.7.3,7h2.4c-.2-1.7-.3-3.4-.5-5.2a1.2,1.2,0,0,0-2.4,0,20.13,20.13,0,0,0,1.3,7.7c.5,1.2,2.4,1.1,2.4-.3a58.1,58.1,0,0,0-.7-8.3c-.2-1.3-2.4-1-2.4.3a46.21,46.21,0,0,1-.7,9.8h2.3c-.5-3.2.2-5.7.9-8.7.3-1.5.2-3.2-1.2-4.1a2.57,2.57,0,0,0-3.1.4c-1.2,1.2-.9,2.9-.6,4.3a1.2,1.2,0,0,0,2.3,0l.6-1.8-2.3-.6a51,51,0,0,0-.8,6.7c-.1,1.4,1.9,1.5,2.4.3a16,16,0,0,0,1.1-5.7,1.2,1.2,0,0,0-2.4,0c-.1,2.4-.3,4.7-.4,7.1H82a22.39,22.39,0,0,0-.7-4.4,1.22,1.22,0,0,0-2.2-.3,5.8,5.8,0,0,0,.2,6.2,1.22,1.22,0,0,0,2.2-.3c.7-1.8,1.4-3.6,2-5.3l-2.3-.6a37.75,37.75,0,0,0-.4,7.5,1.1,1.1,0,1,0,2.2,0Z" transform="translate(-66.28 -104.7)"/><path class="cls-1" d="M85.9,129.8c2.2,1.3,4.4,2.5,6.6,3.8a1.23,1.23,0,0,0,1.5-1.9l-6.1-6.1-1.7,1.7a31.17,31.17,0,0,0,6.2,4.6,1.21,1.21,0,0,0,1.2-2.1c-1.1-.7-2.1-1.4-3.2-2.1-.3.7-.6,1.5-.9,2.2a89.08,89.08,0,0,1,11.2,3.2c.2-.8.4-1.5.6-2.3-2.2-.4-4.4-.8-6.6-1.1a1.19,1.19,0,1,0-.6,2.3,39.31,39.31,0,0,0,13.2,1.3c1.5-.1,1.6-2.5,0-2.4a60,60,0,0,0-6.1.6c.2.8.4,1.5.6,2.3,2.2-.7,4.3-1.5,6.5-2.2-.3-.7-.6-1.5-.9-2.2a16.2,16.2,0,0,1-8.1,1.4l.3,2.4c5.5-1.5,14.2-2.1,17.8-7.1.8-1.1-1-2.5-1.9-1.5a36.8,36.8,0,0,0-3.7,5.1c-.8,1.3,1.2,2.5,2.1,1.2,1.4-2.1,2.8-4.1,4.2-6.2-.7-.3-1.5-.6-2.2-.9a42.84,42.84,0,0,0-.7,10.7,1.23,1.23,0,0,0,2.4.3A33.5,33.5,0,0,0,120,125l-2.4.3,1.5,10.2c.2,1.3,2.5,1,2.4-.3-.4-3.6-.9-7.2-1.6-10.8l-2.3.6q2,6,3.3,12a1.19,1.19,0,0,0,2.3-.6c-.7-3.8-1.3-7.7-2-11.5-.7.3-1.5.6-2.2.9a25.87,25.87,0,0,1,2.6,9.4l2.2-.6a21.91,21.91,0,0,1-2.3-7.1l-2.3.6a59.34,59.34,0,0,1,2,10.2l2.2-.6a20.81,20.81,0,0,1-4-8.5c-.4-1.5-2.5-.8-2.3.6a15.62,15.62,0,0,1-.2,6.8c-.3,1.5,2,2.2,2.3.6a24,24,0,0,0,.2-8l-2.3.6a23,23,0,0,0,4.2,9.1c.6.8,2.4.7,2.2-.6a50.31,50.31,0,0,0-2.1-10.8,1.19,1.19,0,0,0-2.3.6,25.15,25.15,0,0,0,2.5,7.6,1.19,1.19,0,0,0,2.2-.6,29.87,29.87,0,0,0-2.9-10.6c-.6-1.3-2.4-.3-2.2.9.7,3.8,1.3,7.7,2,11.5l2.3-.6q-1.5-6.15-3.3-12a1.19,1.19,0,0,0-2.3.6c.7,3.4,1.2,6.8,1.6,10.2l2.4-.3-1.5-10.2c-.2-1.4-2.2-.9-2.4.3a32.7,32.7,0,0,1-2.3,9.2l2.4.3a42.88,42.88,0,0,1,.6-10.1,1.2,1.2,0,0,0-2.2-.9c-1.4,2.1-2.8,4.1-4.2,6.2l2.1,1.2a26.07,26.07,0,0,1,3.4-4.6c-.6-.5-1.3-1-1.9-1.5-2.8,4-12,4.8-16.3,6a1.23,1.23,0,0,0,.3,2.4,17.94,17.94,0,0,0,9.4-1.7,1.2,1.2,0,0,0-.9-2.2c-2.2.7-4.3,1.5-6.5,2.2a1.19,1.19,0,0,0,.6,2.3,33.08,33.08,0,0,1,5.5-.5v-2.4a44.58,44.58,0,0,1-12.6-1.2c-.2.8-.4,1.5-.6,2.3,2.2.4,4.4.8,6.6,1.1a1.19,1.19,0,0,0,.6-2.3,89.08,89.08,0,0,0-11.2-3.2,1.2,1.2,0,0,0-.9,2.2c1.1.7,2.1,1.4,3.2,2.1l1.2-2.1a26.24,26.24,0,0,1-5.7-4.2,1.2,1.2,0,0,0-1.7,1.7l6.1,6.1c.5-.6,1-1.3,1.5-1.9-2.2-1.3-4.4-2.5-6.6-3.8-1.7-.6-2.9,1.4-1.5,2.2Z" transform="translate(-66.28 -104.7)"/><path class="cls-1" d="M79,123.8c.5-1.7,1-3.3,1.5-5a1.19,1.19,0,0,0-2.3-.6c-.5,1.7-1,3.3-1.5,5-.5,1.5,1.8,2.1,2.3.6Z" transform="translate(-66.28 -104.7)"/><path class="cls-1" d="M81.5,108.9c-.3-1-.6-1.9-.9-2.9l-1.2,1.5a7.52,7.52,0,0,1,3.6.5,1.14,1.14,0,0,0,1.6-.4c.3-.5.2-1.4-.4-1.6a8.75,8.75,0,0,0-4.8-.8,1.29,1.29,0,0,0-1.2,1.5c.3,1,.6,1.9.9,2.9.6,1.4,2.9.8,2.4-.7Z" transform="translate(-66.28 -104.7)"/><path class="cls-1" d="M119.3,126.5a20.2,20.2,0,0,1,.3-4.9,1.19,1.19,0,0,0-2.3-.6c-.4,1.3-.7,2.5-1,3.8h2.3a7,7,0,0,1,.1-3.8c.3-1.2-1.6-2.2-2.2-.9a21.85,21.85,0,0,0-.9,2.3l2.4.3a24.09,24.09,0,0,1,.7-3.7l-2.4-.3c-.1.7-.3,1.4-.4,2.2l2.4.3a6.08,6.08,0,0,1,.4-3.5l-2.4-.3c-.1,2-.2,4-.4,6-.1,1.3,2.2,1.7,2.4.3a26.15,26.15,0,0,1,.9-3.8h-2.3c.2,1.6.5,3.3.7,4.9.2,1.4,2.3.9,2.4-.3.2-2.1.4-4.2.5-6.3l-2.4.3a25.81,25.81,0,0,1,1.5,6.8l2.4-.3a14,14,0,0,1-.4-5h-2.4l.9,6.6,2.4-.3a22.39,22.39,0,0,1-.7-4.4l-2.4.3c.4,1.1.8,2.3,1.2,3.4l2.3-.6a43.12,43.12,0,0,1-2.4-8.5c-.3-1.4-2.3-1-2.4.3-.1.6-.3,1.2-.4,1.9l2.4.3a47.08,47.08,0,0,1-.3-5.3c0-1.3-2.1-1.7-2.4-.3-.2,1.2-.4,2.5-.6,3.7l2.4.3a25.61,25.61,0,0,1,.3-3.9c.2-1.4-2-1.6-2.4-.3l-.9,3.3,2.4.3c0-.8.1-1.6.1-2.4.2-1.5-2-2.2-2.3-.6-.2,1.2-.5,2.3-.7,3.5l2.3.6c.6-3,2.3-7,.6-9.8a1.22,1.22,0,0,0-2.2.3,11.41,11.41,0,0,0-.6,4.5,1.23,1.23,0,0,0,2.4.3l.9-3.6h-2.3a12.34,12.34,0,0,1,.7,6.3h2.4a55.42,55.42,0,0,1,.7-5.7h-2.3c.4,2.3.6,4.6.8,6.9l2.4-.3a18.28,18.28,0,0,1-.4-5.2h-2.4c0,1.5-.1,3.1-.1,4.6H121c-.1-2.3.9-8.4-2.2-9.1-1.5-.3-2.1,2-.6,2.3.6.1,1.1.3,1.7.4,1.5.4,2.1-2,.6-2.3-.6-.1-1.1-.3-1.7-.4-.2.8-.4,1.5-.6,2.3.4.1.4,6,.4,6.7a1.2,1.2,0,0,0,2.4,0c0-1.5.1-3.1.1-4.6a1.2,1.2,0,0,0-2.4,0,19,19,0,0,0,.5,5.8,1.24,1.24,0,0,0,2.4-.3,47.81,47.81,0,0,0-.9-7.6,1.2,1.2,0,0,0-2.3,0,44.78,44.78,0,0,0-.8,6.4c-.1,1.6,2.2,1.5,2.4,0a13.46,13.46,0,0,0-.8-6.9c-.4-1-2-1.2-2.3,0l-.9,3.6,2.4.3a12.66,12.66,0,0,1,.5-3.9l-2.2.3c1.1,1.9-.5,6-.9,8-.3,1.5,2,2.2,2.3.6.2-1.2.5-2.3.7-3.5l-2.3-.6a15.14,15.14,0,0,0-.2,3,1.23,1.23,0,0,0,2.4.3l.9-3.3-2.4-.3a24.66,24.66,0,0,0-.3,3.9c0,1.3,2.1,1.7,2.4.3.2-1.2.4-2.5.6-3.7l-2.4-.3a47.08,47.08,0,0,0,.3,5.3,1.23,1.23,0,0,0,2.4.3,4.34,4.34,0,0,0,.5-2.5l-2.4.3a63.17,63.17,0,0,0,2.4,8.5c.5,1.4,2.8.8,2.3-.6-.4-1.1-.8-2.3-1.2-3.4s-2.4-1.1-2.4.3a20.88,20.88,0,0,0,.8,5c.3,1.3,2.5,1,2.4-.3l-.9-6.6a1.2,1.2,0,0,0-2.4,0,17.49,17.49,0,0,0,.5,5.6c.3,1.3,2.5,1.1,2.4-.3a37.57,37.57,0,0,0-1.6-7.4,1.24,1.24,0,0,0-2.4.3c-.2,2.1-.4,4.2-.5,6.3l2.4-.3c-.2-1.6-.5-3.3-.7-4.9-.2-1.2-2-1-2.3,0a26.15,26.15,0,0,0-.9,3.8l2.4.3c.1-2,.2-4,.4-6,.1-1.4-2-1.6-2.4-.3a11.28,11.28,0,0,0-.5,4.1,1.23,1.23,0,0,0,2.4.3,13.73,13.73,0,0,0,.5-2.8c.2-1.4-2-1.6-2.4-.3a29.71,29.71,0,0,0-.8,4.3c-.2,1.4,2,1.5,2.4.3l.6-1.8c-.7-.3-1.5-.6-2.2-.9a12.52,12.52,0,0,0-.1,5.1,1.21,1.21,0,0,0,2.3,0,17.79,17.79,0,0,1,1-3.8l-2.3-.6a26.32,26.32,0,0,0-.3,5.6,1.06,1.06,0,1,0,2.1,0Z" transform="translate(-66.28 -104.7)"/><path class="cls-1" d="M121.5,127.2c0-2.7,0-5.4-.1-8a1.19,1.19,0,0,0-2.2-.6,5,5,0,0,0-.9,3.6,1.2,1.2,0,0,0,2.4,0c.1-1,.1-2.1.2-3.1h-2.4a92.06,92.06,0,0,1,.3,10.5c-.1,1.4,1.9,1.5,2.4.3a13.05,13.05,0,0,0,.6-5.2l-2.4.3c.4,2.4,1,4.8,1.6,7.2a1.23,1.23,0,0,0,2.4-.3,23.41,23.41,0,0,0-.8-5.2,1.24,1.24,0,0,0-2.4.3,26.31,26.31,0,0,0,.7,4.9c.3,1.3,2.5,1,2.4-.3a34,34,0,0,0-.8-4.6,1.19,1.19,0,0,0-2.3.6c.8,3.6,1.5,7.2,2.3,10.9.3,1.5,2.6.9,2.3-.6a27.54,27.54,0,0,0-2.1-6.9c-.5-1.2-2.7-.3-2.2.9,1.3,3.3,2.6,6.7,4,10a1.19,1.19,0,0,0,2.3-.6,33.29,33.29,0,0,0-2.6-8.1,1.2,1.2,0,0,0-2.2.9c.9,2.6,1.7,5.1,2.6,7.7.5,1.5,2.8.8,2.3-.6-1.4-4.4-2.9-8.8-4.3-13.1-.4-1.2-2.5-1.1-2.4.3a41.25,41.25,0,0,0,2.6,9.9c.4,1.1,2.5,1.1,2.4-.3-.3-2.8-.8-5.7-1.3-8.5-.2-1.3-2.5-1-2.4.3.1,1.7.2,3.3.4,5,.1,1.5,2.5,1.5,2.4,0-.1-1.7-.2-3.3-.4-5l-2.4.3q.75,3.9,1.2,7.8l2.4-.3a42.6,42.6,0,0,1-2.5-9.3l-2.4.3c1.4,4.4,2.9,8.8,4.3,13.1l2.3-.6c-.9-2.6-1.7-5.1-2.6-7.7-.7.3-1.5.6-2.2.9a29.49,29.49,0,0,1,2.3,7.5l2.3-.6c-1.3-3.3-2.6-6.7-4-10-.7.3-1.5.6-2.2.9a28.53,28.53,0,0,1,1.9,6.3l2.3-.6c-.8-3.6-1.5-7.2-2.3-10.9l-2.3.6a25.75,25.75,0,0,1,.8,4l2.4-.3a15.4,15.4,0,0,1-.6-4.3l-2.4.3a17.66,17.66,0,0,1,.7,4.6l2.4-.3c-.6-2.4-1.2-4.8-1.6-7.2-.2-1.3-2.4-1-2.4.3a10.38,10.38,0,0,1-.5,4.6l2.4.3a61.44,61.44,0,0,0-.3-10.5,1.2,1.2,0,0,0-2.4,0c-.1,1-.1,2.1-.2,3.1h2.4a20.48,20.48,0,0,0,.5-2.4l-2.2-.6c0,2.7,0,5.4.1,8a1.2,1.2,0,1,0,2.4.1Z" transform="translate(-66.28 -104.7)"/><path class="cls-1" d="M124.9,192.8c.5-2.2.9-4.4,1.4-6.7l-2.4-.3c0,2.5.1,5.1.1,7.6,0,1.3,2.1,1.7,2.4.3s.6-2.9.9-4.3l-2.4-.3c-.1,1.2-.2,2.3-.3,3.5s2.1,1.6,2.4.3c.2-1.1.5-2.3.7-3.4l-2.4-.3c0,1.2-.1,2.5-.1,3.7a1.2,1.2,0,0,0,2.4,0,54,54,0,0,1,1.4-10.6l-2.3-.6c-.3,1.6-.5,3.1-.8,4.7l2.4.3c.1-3.2.1-6.4.2-9.6h-2.4a24.38,24.38,0,0,1,0,5.4h2.4c.2-2.7.4-5.4.5-8a1.23,1.23,0,0,0-2.4-.3,129.06,129.06,0,0,0-1.6,20.6c0,1.3,2.1,1.7,2.4.3,1.2-5.9.8-12,.8-17.9,0-7,.1-13.9.1-20.9h-2.4c.2,1.4.3,2.8.5,4.2.2,1.2,2,1.8,2.4.3a31.39,31.39,0,0,0,.8-8.1h-2.4a64.53,64.53,0,0,1,.1,7.6c-.1,1.4,2,1.6,2.4.3a21.46,21.46,0,0,0,.9-6.1,1.23,1.23,0,0,0-2.4-.3,18,18,0,0,0-1.1,5.6h2.4v-6.9l-2.2.6c.2.6.5,1.1.7,1.7.6,1.3,2.5.3,2.2-.9a13.86,13.86,0,0,0-2.6-5.8c-.9-1.2-3,0-2.1,1.2a12.79,12.79,0,0,1,2.3,5.2c.7-.3,1.5-.6,2.2-.9-.2-.6-.5-1.1-.7-1.7-.5-1.1-2.2-.5-2.2.6v6.9a1.2,1.2,0,0,0,2.4,0,12.52,12.52,0,0,1,1.1-5l-2.4-.3a20.9,20.9,0,0,1-.8,5.5l2.4.3a64,64,0,0,0-.1-7.6,1.2,1.2,0,0,0-2.4,0,26.91,26.91,0,0,1-.7,7.5l2.4.3c-.2-1.4-.3-2.8-.5-4.2s-2.4-1.6-2.4,0c0,6.3-.1,12.6-.1,18.9s.5,13-.8,19.3l2.4.3a134.65,134.65,0,0,1,1.5-20l-2.4-.3c-.2,2.7-.4,5.4-.5,8-.1,1.6,2.2,1.5,2.4,0a16.31,16.31,0,0,0,0-5.4c-.2-1.5-2.4-1.6-2.4,0-.1,3.2-.1,6.4-.2,9.6,0,1.3,2.1,1.7,2.4.3.3-1.6.5-3.1.8-4.7s-2-2.2-2.3-.6a61.26,61.26,0,0,0-1.4,11.3h2.4c0-1.2.1-2.5.1-3.7s-2.1-1.7-2.4-.3c-.2,1.1-.5,2.3-.7,3.4l2.4.3c.1-1.2.2-2.3.3-3.5s-2.1-1.6-2.4-.3-.6,2.9-.9,4.3l2.4.3c0-2.5-.1-5.1-.1-7.6,0-1.3-2.1-1.7-2.4-.3-.5,2.2-.9,4.4-1.4,6.7-.5,1.4,1.8,2,2.1.5Z" transform="translate(-66.28 -104.7)"/><path class="cls-1" d="M127.4,153.6a13.52,13.52,0,0,0,.3-4l-2.2.6c.6.9,1.1,1.8,1.7,2.7a1.2,1.2,0,0,0,2.2-.9c-.1-.8-.3-1.5-.4-2.3-.6.5-1.2.9-1.8,1.4.4.2.5.5.6,1,.7-.3,1.5-.6,2.2-.9a10.54,10.54,0,0,1-1.3-2.6c-.7.3-1.5.6-2.2.9a5.39,5.39,0,0,1,.8,2.1c.7-.3,1.5-.6,2.2-.9a3.36,3.36,0,0,1-.5-1.4l-2.2.6a7.47,7.47,0,0,1,1.3,3.5c.1,1.5,2.5,1.5,2.4,0a11,11,0,0,0-1.6-4.7c-.6-.9-2.4-.7-2.2.6a6.07,6.07,0,0,0,.8,2.6,1.2,1.2,0,0,0,2.2-.9,10.24,10.24,0,0,0-1.1-2.7c-.7-1.1-2.7-.4-2.2.9a17.72,17.72,0,0,0,1.5,3.1,1.2,1.2,0,0,0,2.2-.9,3.24,3.24,0,0,0-1.7-2.4,1.26,1.26,0,0,0-1.8,1.4c.1.8.3,1.5.4,2.3.7-.3,1.5-.6,2.2-.9-.6-.9-1.1-1.8-1.7-2.7a1.18,1.18,0,0,0-2.2.6,13.05,13.05,0,0,1-.3,3.4c-.2,1.3,2.1,2,2.4.5Z" transform="translate(-66.28 -104.7)"/><path class="cls-1" d="M92,144c-.1,0-.1-.1-.2-.1l1.2.9-.1-.1.9,1.2c0-.1-.1-.1-.1-.2.2.5.4,1,.6,1.4,0-.1,0-.1-.1-.2.1.5.1,1.1.2,1.6v-.3c-.1.5-.1,1.1-.2,1.6,0-.1,0-.1.1-.2-.2.5-.4,1-.6,1.4,0-.1.1-.1.1-.2l-.9,1.2.1-.1-1.2.9c.1-.1.1-.1.2-.1-.5.2-1,.4-1.4.6.1,0,.2-.1.3-.1-.5.1-1.1.1-1.6.2h.3c-.5-.1-1.1-.1-1.6-.2.1,0,.3.1.4.1-.5-.2-1-.4-1.4-.6a.35.35,0,0,1,.2.1l-1.2-.9.2.2-.9-1.2c.1.1.1.2.2.3-.2-.5-.4-1-.6-1.4a.6.6,0,0,1,.1.4c-.1-.5-.1-1.1-.2-1.6v.6c.1-.5.1-1.1.2-1.6,0,.1-.1.3-.1.4.2-.5.4-1,.6-1.4a.35.35,0,0,1-.1.2l.9-1.2-.1.1,1.2-.9c-.1.1-.1.1-.2.1.5-.2,1-.4,1.4-.6h-.1c.5-.1,1.1-.1,1.6-.2h-.3c.5.1,1.1.1,1.6.2h-.1c.5.2,1,.4,1.4.6a.1.1,0,0,1-.1-.1l1.2.9c-.1,0-.1-.1-.2-.2l.9,1.2a.1.1,0,0,0-.1-.1c.2.5.4,1,.6,1.4,0-.1-.1-.2-.1-.3.1.5.1,1.1.2,1.6v-.1c-.1.5-.1,1.1-.2,1.6,0-.1,0-.2.1-.2-.2.5-.4,1-.6,1.4a.1.1,0,0,1,.1-.1,6.19,6.19,0,0,0,.6-4.6,6.29,6.29,0,0,0-2.8-3.6,6.19,6.19,0,0,0-4.6-.6,6.63,6.63,0,0,0-3.6,2.8,7.42,7.42,0,0,0-1,3.5,8.2,8.2,0,0,0,.9,3.4,6.74,6.74,0,0,0,7.5,3,6.84,6.84,0,0,0,4.8-4.8,12.51,12.51,0,0,0,.3-1.9v-.4a7.27,7.27,0,0,0-.7-2.9,6.71,6.71,0,0,0-4.7-4.1c-.5-.1-1.3-.2-1.8-.3a11.08,11.08,0,0,0-1.9.2,6.61,6.61,0,0,0-2.5,1.3,6.51,6.51,0,0,0-2.6,5.5,6.65,6.65,0,0,0,.9,3.4,6.73,6.73,0,0,0,1.1,1.4,4.51,4.51,0,0,0,1.4,1,6.63,6.63,0,0,0,4.6.6A6.29,6.29,0,0,0,94,152a6.19,6.19,0,0,0,.6-4.6A5.4,5.4,0,0,0,92,144Z" transform="translate(-66.28 -104.7)"/><path class="cls-1" d="M95.5,145.6c-.1-.1-.1-.2-.2-.3a6,6,0,0,0-3.6-2.8,6.19,6.19,0,0,0-4.6.6,6.29,6.29,0,0,0-2.8,3.6c-.1.5-.1,1.1-.2,1.6a6.11,6.11,0,0,0,.8,3c.1.1.1.2.2.3a6,6,0,0,0,3.6,2.8,6.19,6.19,0,0,0,4.6-.6,6.29,6.29,0,0,0,2.8-3.6c.1-.5.1-1.1.2-1.6a5.64,5.64,0,0,0-.8-3Z" transform="translate(-66.28 -104.7)"/><path class="cls-1" d="M71,154.5c-.2.2-.3.4-.5.6l2,.3c-.2-.4-1.1-2.4-1.2-2.8-.3-1.1-2.2-1.3-2.4,0-.1.4-.1.8-.2,1.2l2.3-.3c-.2-.3-.4-.7-.6-1a1.27,1.27,0,0,0-2.3.3l-.3,1.2,2.3-.3c-.2-.3-.5-.7-.7-1a1.31,1.31,0,0,0-2.2,0c-.1.1-.1.2-.2.3a1.34,1.34,0,0,0,.2,1.5c.1.1.2.1.3.2a1.27,1.27,0,0,0,1.8,0l.1-.1a1.27,1.27,0,0,0,0-1.8l-.1-.1a1.23,1.23,0,0,0-2.1.6c-.6,2.2.6,5.2,1.1,7.3l2.1-1.2a2.06,2.06,0,0,0-3.4,0,1.39,1.39,0,0,0-.2,1.5c.6,1.5,1.9,1.7,3.2.9a1,1,0,0,0,.6-1.1c-.2-2.5-1-5.6-.6-8.1.4-3.3,3.3-6.6,4.7-9.7a55.26,55.26,0,0,0,4.5-15.5,1.25,1.25,0,0,0-2.4-.7c-.3.7-.6,1.4-.9,2l2.5.3c0-.5.1-1,.1-1.5.1-1.5-2-1.5-2.5-.3-.2.4-.3.8-.5,1.2-.5,1.3,1.7,2.3,2.3,1,.2-.4.3-.7.5-1.1H76.1c0,.1.1.1.1.2.2-.6.3-1.1.5-1.7a.35.35,0,0,0-.2.1c.6.3,1.2.5,1.9.8-.5-2.6,1.9-7,2.4-9.6a29.08,29.08,0,0,0,.6-8.3c-.1-1.3-2.2-1.8-2.5-.3-.2,1.1-.4,2.2-.7,3.3-.3,1.3,1.7,2.4,2.3,1a11.73,11.73,0,0,1,.5-1.1c-.8-.2-1.6-.4-2.3-.6a17,17,0,0,1-.1,2.3,1.25,1.25,0,0,0,2.5,0,17,17,0,0,1,.1-2.3c0-1.2-1.8-1.8-2.3-.6a11.73,11.73,0,0,1-.5,1.1,22.88,22.88,0,0,1,2.3,1c.2-1.1.4-2.2.7-3.3l-2.5-.3a34.81,34.81,0,0,1-1.6,12c-.6,2.1-1.7,4.3-1.3,6.6a1.4,1.4,0,0,0,1.9.8.35.35,0,0,0,.2-.1,1.39,1.39,0,0,0,.5-1.7c0-.1-.1-.1-.1-.2a1.31,1.31,0,0,0-2.2,0c-.2.4-.3.7-.5,1.1a22.88,22.88,0,0,1,2.3,1c.2-.4.3-.8.5-1.2l-2.5-.3c0,.5-.1,1-.1,1.5-.1,1.5,2,1.5,2.5.3.3-.7.6-1.4.9-2a21.72,21.72,0,0,1-2.4-.7,52,52,0,0,1-6.7,19.5c-1,1.7-2.2,3.2-2.5,5.1-.4,2.1-.3,8.1,1,9.7.9,1.1,2.3-.1,2.1-1.2-.3-1.5-1.5-4.5-1.1-5.9l-2.1.6.1.1v-1.8l-.1.1h1.8c0,.3.1.7.1,1H67.4c.2.3.5.7.7,1,.6.8,2.1.8,2.3-.3l.3-1.2-2.3.3c.2.3.4.7.6,1a1.27,1.27,0,0,0,2.3-.3c.1-.4.1-.8.2-1.2H69.1a24.4,24.4,0,0,0,1.4,3.4,1.29,1.29,0,0,0,2,.3c.2-.2.3-.4.5-.6.8-1.7-1-3.5-2-2.2Z" transform="translate(-66.28 -104.7)"/><path class="cls-1" d="M91,133.8a15.65,15.65,0,0,0,9.8.7,1.28,1.28,0,0,0-.3-2.5,2.26,2.26,0,0,1-1.9-1.1c-.4.6-.7,1.3-1.1,1.9a22.62,22.62,0,0,1,4.5-.2c1.5.1,1.6-2,.3-2.5-.8-.3-1.7-.5-2.5-.8-.1.8-.2,1.6-.3,2.5a12.26,12.26,0,0,1,3.2.7c1.5.5,2.2-1.9.7-2.4a16.78,16.78,0,0,0-3.9-.7c-1.5-.1-1.6,2.1-.3,2.5.8.3,1.7.5,2.5.8.1-.8.2-1.6.3-2.5a22.62,22.62,0,0,0-4.5.2c-.8.1-1.7,1-1.1,1.9a5.37,5.37,0,0,0,4,2.3c-.1-.8-.2-1.6-.3-2.5a12.76,12.76,0,0,1-8.4-.7c-1.6-.7-2.2,1.8-.7,2.4Z" transform="translate(-66.28 -104.7)"/><path class="cls-1" d="M122.8,132a21.35,21.35,0,0,1-.8-4.4c-.8.2-1.6.4-2.3.6.4.9.7,1.8,1.1,2.7a1.28,1.28,0,0,0,2.5-.3,32.53,32.53,0,0,0-.3-4.4,22.88,22.88,0,0,0-2.3,1c.3,1,.6,1.9.9,2.9a21.72,21.72,0,0,0,2.4-.7,37.45,37.45,0,0,1-1.2-4.5c-.4-1.6-2.7-.9-2.4.7.1.6.2,1.2.3,1.7a21.72,21.72,0,0,0,2.4-.7c-.4-2-.7-3.9-1-5.9l-2.5.3.6,2.4c.4,1.6,2.7.9,2.4-.7a49.87,49.87,0,0,1-.7-5.4c-.1-1.6-2.6-1.6-2.5,0,0,.9.1,1.8.1,2.7H122a34.38,34.38,0,0,0-3.5-12.5c-.7.5-1.3,1-2,1.5.2.3.5.7.7,1a1.25,1.25,0,0,0,2.4-.7,2.79,2.79,0,0,0-1.4-2.1,1.27,1.27,0,0,0-2,1.5,31.33,31.33,0,0,1,3.2,11.2c.1,1.6,2.6,1.6,2.5,0,0-.9-.1-1.8-.1-2.7h-2.5a59.74,59.74,0,0,0,.8,6.1,21.72,21.72,0,0,0,2.4-.7l-.6-2.4c-.3-1.3-2.6-1.1-2.5.3.3,2.2.6,4.4,1.1,6.6.3,1.6,2.7.9,2.4-.7-.1-.6-.2-1.2-.3-1.7a21.72,21.72,0,0,0-2.4.7l1.2,4.5a1.25,1.25,0,0,0,2.4-.7,10.38,10.38,0,0,0-1.2-3.5c-.6-1.4-2.5-.3-2.3,1a15.33,15.33,0,0,1,.2,3.7l2.5-.3a10.59,10.59,0,0,0-1.4-3.3c-.5-1.1-2.5-.6-2.3.6a45.43,45.43,0,0,0,.9,5.1c.6,1.7,3,1.1,2.6-.5Z" transform="translate(-66.28 -104.7)"/><path class="cls-1" d="M71.4,150.1v-.4H69.1q.6-.6,0-.3c.6.3,1.2.7,1.8,1,0-.3-.1-.7-.1-1a1.24,1.24,0,0,0-.8-1.5l.4.4c-.7-.4-1.3-.8-2-1.2-.1.2-.1.4-.2.6l2.4.3c.1-1.4,1.7-2.7,2.2-4.1a1.2,1.2,0,0,0-2.2-.9,5,5,0,0,0-.8,1.2c.7.3,1.5.6,2.2.9.1-.4.2-.7.3-1.1l-2.3-.6v.3a1.19,1.19,0,0,0,2.3.6,6.37,6.37,0,0,0,.2-.7l-2.3-.6a3.29,3.29,0,0,1-.7,1.6c.7.3,1.5.6,2.2.9a6.9,6.9,0,0,1,1.3-2c-.6-.5-1.3-1-1.9-1.5-.4.9-.8,1.7-1.2,2.6l2.2.6a2.77,2.77,0,0,1,.1-.9c.4-1.3-1.6-2.2-2.2-.9a4.94,4.94,0,0,0-.5,2.4c.2,1.5,2.6,1.5,2.4,0a1.67,1.67,0,0,1,.1-1.2c-.7-.3-1.5-.6-2.2-.9a7.77,7.77,0,0,0-.2,1.6c0,1.1,1.7,1.7,2.2.6.4-.9.8-1.7,1.2-2.6.5-1.2-.9-2.5-1.9-1.5a7.67,7.67,0,0,0-1.9,3.1c-.6,1.4,1.5,1.9,2.2.9a4.35,4.35,0,0,0,.9-2.1,1.19,1.19,0,0,0-2.3-.6,6.37,6.37,0,0,0-.2.7l2.3.6v-.3a1.19,1.19,0,0,0-2.3-.6c-.1.4-.2.7-.3,1.1a1.2,1.2,0,0,0,2.2.9,8.34,8.34,0,0,1,.8-1.2c-.7-.3-1.5-.6-2.2-.9-.6,1.8-2.2,2.8-2.2,4.7-.1,1.4,1.9,1.5,2.4.3.1-.2.1-.4.2-.6.5-1.2-1.2-1.8-2-1.2-1.4,1.1-1.3,3.2.7,3.6a10.93,10.93,0,0,1-.8-1.5,4.3,4.3,0,0,0,0,1.6,1.18,1.18,0,0,0,1.8,1,1.89,1.89,0,0,0,1.1-2.4c-.2-1.3-1.9-1-2.3,0a2.46,2.46,0,0,0,.2,2.2c.6,1.5,2.7.3,2-1Z" transform="translate(-66.28 -104.7)"/><path class="cls-1" d="M125.2,137.7a25.06,25.06,0,0,1-1.6-4.6c-.3-1.3-2.5-1-2.4.3a20.07,20.07,0,0,0,1.6,6.4c.5,1.1,2.4.6,2.2-.6-.2-1.9-.5-3.8-.8-5.7-.7.3-1.5.6-2.2.9a14.08,14.08,0,0,1,2,4.9l2.3-.6c-.6-1.9-1.2-3.8-1.7-5.6-.5-1.5-2.8-.8-2.3.6.8,2.6,1.6,5.3,2.4,7.9a1.19,1.19,0,0,0,2.3-.6c-.2-1.2-.4-2.5-.6-3.7l-2.3.6c.7,1.7,1.3,3.5,2,5.2.7-.3,1.5-.6,2.2-.9a10.44,10.44,0,0,1-1.1-2.4,1.19,1.19,0,0,0-2.3.6c.4,1.7.8,3.5,1.2,5.2a1.19,1.19,0,0,0,2.3-.6c-.4-1.7-.8-3.5-1.2-5.2l-2.3.6a11.37,11.37,0,0,0,1.3,3c.7,1.1,2.7.4,2.2-.9-.7-1.7-1.3-3.5-2-5.2a1.19,1.19,0,0,0-2.3.6c.2,1.2.4,2.5.6,3.7l2.3-.6c-.8-2.6-1.6-5.3-2.4-7.9l-2.3.6c.6,1.9,1.2,3.8,1.7,5.6a1.19,1.19,0,0,0,2.3-.6,15.51,15.51,0,0,0-2.2-5.5,1.2,1.2,0,0,0-2.2.9c.3,1.7.5,3.4.8,5.1l2.2-.6a18.72,18.72,0,0,1-1.2-5.2l-2.4.3a32.38,32.38,0,0,0,1.9,5.2c.6,1.4,2.6.1,2-1.2Z" transform="translate(-66.28 -104.7)"/><path class="cls-1" d="M129.2,161.8a16.44,16.44,0,0,0,1.4-2.2l-2.2-.6-.3,3.9c-.1,1.2,1.3,1.4,2,.8a7.22,7.22,0,0,0,1.8-2.4l-2.2-.6c-.1.6-.1,1.2-.2,1.8a1.17,1.17,0,0,0,2.2.6,5.45,5.45,0,0,0,.5-2.2c-.1-1.5-2.5-1.5-2.4,0a1.64,1.64,0,0,1-.2,1l2.2.6c.1-.6.1-1.2.2-1.8a1.19,1.19,0,0,0-2.2-.6,9,9,0,0,1-1.4,2c.7.3,1.4.6,2,.8l.3-3.9c.1-1.1-1.8-1.7-2.2-.6a9.5,9.5,0,0,1-1,1.7,1.24,1.24,0,0,0,0,1.7,1.15,1.15,0,0,0,1.7,0Z" transform="translate(-66.28 -104.7)"/><path class="cls-1" d="M123.5,127.5c-.1-.6-.3-1.3-.4-1.9a1.2,1.2,0,1,0-2.3.7c0,.3.1.6.1.9a1.29,1.29,0,0,0,1.2.9,1.4,1.4,0,0,0,1.2-.9,2.8,2.8,0,0,0-.4-2.5,1.17,1.17,0,1,0-2,1.2.62.62,0,0,1,.1.7h2.3c0-.3-.1-.6-.1-.9l-2.3.6c.1.6.3,1.3.4,1.9a1.16,1.16,0,1,0,2.2-.7Z" transform="translate(-66.28 -104.7)"/><path class="cls-1" d="M120.8,112.3a15.55,15.55,0,0,0,.8-2.3,1.19,1.19,0,0,0-2.3-.6,7.37,7.37,0,0,1-.4,1.4,1.2,1.2,0,0,0,2.2.9,2.54,2.54,0,0,0,.4-1.7,1.29,1.29,0,0,0-1.2-1.2c-.6,0-1.3.6-1.2,1.2a.9.9,0,0,1-.1.5c.7.3,1.5.6,2.2.9a7.37,7.37,0,0,1,.4-1.4l-2.3-.6a10.5,10.5,0,0,1-.8,2.3c-.3.6.3,1.3.8,1.5a1.26,1.26,0,0,0,1.5-.9Z" transform="translate(-66.28 -104.7)"/><path class="cls-1" d="M126.9,239.8a11,11,0,0,1,.3-3.6l-2.4-.3v6a1.2,1.2,0,0,0,2.4,0,36.88,36.88,0,0,0,.1-4.7h-2.4c.1,1.5.2,3.1.3,4.6a1.2,1.2,0,0,0,2.4,0c.2-2.1.3-4.2.5-6.4h-2.4c0,1.4,0,2.8-.1,4.2l2.2-.6a5.58,5.58,0,0,1-.5-3.8l-2.4-.3a56.83,56.83,0,0,0,.3,5.9c.2,1.5,2.6,1.5,2.4,0a58.28,58.28,0,0,1-.3-5.9,1.23,1.23,0,0,0-2.4-.3,7.77,7.77,0,0,0,.7,5.6,1.19,1.19,0,0,0,2.2-.6c0-1.4,0-2.8.1-4.2a1.2,1.2,0,0,0-2.4,0c-.2,2.1-.3,4.2-.5,6.4h2.4c-.1-1.5-.2-3.1-.3-4.6a1.2,1.2,0,0,0-2.4,0c0,1.6,0,3.1-.1,4.7H127v-6c0-1.3-2.1-1.7-2.4-.3a20.24,20.24,0,0,0-.4,4.3c.3,1.5,2.7,1.5,2.7-.1Z" transform="translate(-66.28 -104.7)"/><path d="M67.7,267.8c3.5,1.7,7,1.7,10.8,1.7H96.3c11.6,0,23.3,0,34.9.4a.6.6,0,0,0,0-1.2c-10.4-.3-20.8-.4-31.2-.4H85c-5.3,0-11.8.9-16.8-1.5-.5-.4-1.2.6-.5,1Z" transform="translate(-66.28 -104.7)"/><path d="M68.7,267.5c4.8-16.6,3.9-33.9,3.4-51-.5-18-1.9-36-2.9-54a.6.6,0,1,0-1.2,0c1,17.4,2.3,34.7,2.9,52.1.5,17.6,1.7,35.5-3.3,52.6a.57.57,0,1,0,1.1.3Z" transform="translate(-66.28 -104.7)"/><path d="M132.1,267.8c-3.5-7.9-2.7-17.9-3.3-26.5s-.6-17.2-.4-25.8c.4-17,2-33.9,3.2-50.9.1-.8-1.1-.8-1.2,0-1.3,18.2-3,36.4-3.3,54.7-.1,8.9.1,17.9.8,26.8.6,7.5,0,15.2,3.1,22.3.3.7,1.4.1,1.1-.6Z" transform="translate(-66.28 -104.7)"/><path d="M121,107.8a60.19,60.19,0,0,0,1.1,16.4c.2.8,1.3.4,1.2-.3a58,58,0,0,1-1.1-16.1.6.6,0,1,0-1.2,0Z" transform="translate(-66.28 -104.7)"/><path d="M131.6,164.9c2.6-13.9-5.7-26.1-7.8-39.5-.1-.8-1.3-.4-1.2.3,2,13.1,10.3,25.2,7.8,38.8-.1.8,1.1,1.1,1.2.4Z" transform="translate(-66.28 -104.7)"/><path d="M115.7,124a148.12,148.12,0,0,0,.7-16.3.6.6,0,1,0-1.2,0,126.23,126.23,0,0,1-.7,16.3c-.1.8,1.1.8,1.2,0Z" transform="translate(-66.28 -104.7)"/><path d="M116,107.9l5.4.3a.6.6,0,1,0,0-1.2l-5.4-.3a.6.6,0,1,0,0,1.2Z" transform="translate(-66.28 -104.7)"/><path d="M77.4,105.7c1.3,5.3.2,10.9-1.1,16.1a.62.62,0,1,0,1.2.3c1.3-5.4,2.5-11.2,1.1-16.8-.3-.6-1.4-.3-1.2.4Z" transform="translate(-66.28 -104.7)"/><path d="M68.6,161.5c.4-3.1-.6-5.6-1-8.6-.7-4.8,2.2-9.1,4.3-13.2,2.8-5.6,5.2-11,5.1-17.4a.6.6,0,1,0-1.2,0c.2,8.3-4.3,15-7.6,22.2-1,2.3-2.1,4.6-1.9,7.2.2,3.4,1.6,6.3,1.2,9.8-.2.8,1,.7,1.1,0Z" transform="translate(-66.28 -104.7)"/><path d="M86,122a127.11,127.11,0,0,1-.8-16.3.6.6,0,1,0-1.2,0,126.22,126.22,0,0,0,.8,16.3c.1.8,1.3.8,1.2,0Z" transform="translate(-66.28 -104.7)"/><path d="M84.3,104.7l-6.1.3a.6.6,0,1,0,0,1.2l6.1-.3a.6.6,0,0,0,0-1.2Z" transform="translate(-66.28 -104.7)"/><path d="M85.6,122.7c.2,5.5,9.2,7,13.4,7.4,5.2.5,14.2.4,16.1-5.6a.62.62,0,0,0-1.2-.3c-1.6,5.1-9.8,5.2-14.2,4.8-3.6-.3-12.8-1.6-12.9-6.3a.6.6,0,0,0-1.2,0Z" transform="translate(-66.28 -104.7)"/></svg>