<svg id="Layer_1" data-name="Layer 1" xmlns="http://www.w3.org/2000/svg" viewBox="0 0 116.53 166.02"><defs><style>.cls-1{fill:#4370b7;}</style></defs><title>T-Shirtv</title><path class="cls-1" d="M88.8,171a49.22,49.22,0,0,0-8.1-2.3c-1.6.2-2.3-.6-2-2.3a1.23,1.23,0,0,0-2.4-.3l-.3.9h2.3a37.3,37.3,0,0,0-3.2-6.3,1.22,1.22,0,0,0-2.2.3,24,24,0,0,0-1.2,3.8l2.2-.3a11.05,11.05,0,0,1-1.5-4.3c-.3-1.5-2.5-.9-2.3.6a8.61,8.61,0,0,1,0,3.2l2.4-.3a13.71,13.71,0,0,1-.8-3.5c-.2-1.2-2-1.1-2.3,0a6.61,6.61,0,0,0-.3,2.4l2.4-.3-.3-2.1c-.2-1.5-2.2-.9-2.4.3l-.3,2.1h2.4a16.33,16.33,0,0,1,.1-3.1c.1-1.3-2.1-1.6-2.4-.3a14.16,14.16,0,0,1-.4,2l2.4.3c0-.8.1-1.6.1-2.5H68.3c.4,3.5.9,7,1.3,10.5a1.2,1.2,0,0,0,2.4,0c.1-1.3.2-2.5.3-3.8H69.9a5,5,0,0,0,.5,2.1,1.19,1.19,0,0,0,2.3-.6c-.2-1.8-.5-3.5-.7-5.3-.2-1.4-2.4-1-2.4.3a32.25,32.25,0,0,0,.9,7.6c.3,1.1,2.1,1.2,2.3,0,.1-.5.1-1,.2-1.5l-2.4-.3a28,28,0,0,1-.3,4l2.4-.3a3.87,3.87,0,0,1-.3-2.6H70c-.1,1.2-.1,2.4-.2,3.6-.1,1.6,2.3,1.5,2.4,0a8.08,8.08,0,0,0,0-3.1c-.1-1.2-2.2-1.7-2.4-.3a14.15,14.15,0,0,0-.2,2.9H72a13.4,13.4,0,0,0-.1-2,1.23,1.23,0,0,0-2.4-.3,3.55,3.55,0,0,0-.2,1l2.4.3c.1-.5.1-1.1.2-1.6.2-1.3-2.1-1.7-2.4-.3a16.35,16.35,0,0,0-.2,2.2l2.4-.3c-.1-.5-.1-1.1-.2-1.6,0-1.3-2.1-1.7-2.4-.3,0,.3-.1.6-.1,1a1.2,1.2,0,0,0,2.2.9,5.31,5.31,0,0,0,.8-1.7H69.7a25.35,25.35,0,0,1,.8,6.8c0,1.3,2.1,1.7,2.4.3a8.58,8.58,0,0,0,.2-2.3,1.23,1.23,0,0,0-2.4-.3l-.6,1.8,2.4.3c-.1-1.2-.2-2.4-.2-3.6a1.2,1.2,0,0,0-2.4,0,8.17,8.17,0,0,0-.1,2.7c0,1.6,2.2,1.5,2.4,0a11,11,0,0,0,.2-1.8H70c.1.7.1,1.4.2,2.1h2.4c-.1-.6-.2-1.3-.3-1.9-.2-1.5-2.5-1.6-2.4,0s.2,3,.3,4.4a1.19,1.19,0,0,0,2.2.6,1.91,1.91,0,0,0,.4-1.5H70.4v1.8c0,1,1.4,1.7,2,.8a1.91,1.91,0,0,0,.6-1.6,1.23,1.23,0,0,0-2.4-.3,5.58,5.58,0,0,0-.3,2.2,1.2,1.2,0,0,0,2.4,0v-2.7c0-1.3-2.1-1.7-2.4-.3a8.92,8.92,0,0,0-.3,2.8,1.2,1.2,0,0,0,2.4,0v-2.7c0-1.5-1.9-1.5-2.4-.3a4,4,0,0,0-.5,2.8c.1,1.3,2.1,1.7,2.4.3a9,9,0,0,0,.2-2.3c0-1.1-1.7-1.7-2.2-.6a2.51,2.51,0,0,1-.4.7l2.2.3c-.1-1-.3-2-.4-2.9-.2-1.5-2.5-.9-2.3.6.1,1,.3,2,.4,2.9s1.8,1.2,2.2.3a2.51,2.51,0,0,1,.4-.7l-2.2-.6c0,.6-.1,1.1-.1,1.7l2.4.3c.1-.7.3-1.4.4-2.2l-2.4-.3v2.7h2.4c.1-.7.1-1.4.2-2.2l-2.4-.3V180h2.4c.1-.5.1-1.1.2-1.6l-2.4-.3.1-.1c.7.3,1.4.6,2,.8V177a1.2,1.2,0,0,0-2.4,0c0,.1-.1.2-.1.3l2.2.6c-.1-1.5-.2-3-.3-4.4H69.6c.1.6.2,1.3.3,1.9.2,1.5,2.5,1.6,2.4,0-.1-.7-.1-1.4-.2-2.1a1.2,1.2,0,0,0-2.4,0,11,11,0,0,0-.2,1.8h2.4a12.21,12.21,0,0,1,.1-2.7H69.6c.1,1.2.2,2.4.2,3.6a1.23,1.23,0,0,0,2.4.3l.6-1.8-2.4-.3c0,.5-.1,1.1-.1,1.6l2.4.3a30.6,30.6,0,0,0-.9-7.4,1.2,1.2,0,0,0-2.3,0,6.12,6.12,0,0,0-.5,1.2c.7.3,1.5.6,2.2.9,0-.3.1-.6.1-1l-2.4-.3a7.8,7.8,0,0,0,.3,2.2c.3,1.4,2.3,1,2.4-.3.1-.5.1-1,.2-1.6l-2.4-.3c-.1.5-.1,1.1-.2,1.6-.2,1.3,2.1,1.6,2.4.3a3.55,3.55,0,0,0,.2-1l-2.4-.3a13.4,13.4,0,0,0,.1,2,1.2,1.2,0,0,0,2.4,0c0-.7.1-1.5.1-2.2l-2.4-.3a8.08,8.08,0,0,1,0,3.1H72c.1-1.2.1-2.4.2-3.6.1-1.6-2.2-1.5-2.4,0a8.52,8.52,0,0,0,.3,3.2,1.23,1.23,0,0,0,2.4-.3,26,26,0,0,0,.3-4c0-1.3-2.2-1.7-2.4-.3-.1.5-.1,1-.2,1.5h2.3a32.74,32.74,0,0,1-.9-7l-2.4.3c.2,1.8.5,3.5.7,5.3l2.3-.6c-.1-.5-.3-1-.4-1.5a1.2,1.2,0,0,0-2.4,0c-.1,1.3-.2,2.5-.3,3.8h2.4c-.4-3.5-.9-7-1.3-10.5a1.2,1.2,0,0,0-2.4,0c0,.8-.1,1.6-.1,2.5a1.23,1.23,0,0,0,2.4.3,14.16,14.16,0,0,1,.4-2l-2.4-.3a15.82,15.82,0,0,0-.1,3.1c0,1.6,2.2,1.5,2.4,0l.3-2.1-2.4.3.3,2.1c.2,1.4,2.3,1,2.4-.3l.3-1.8H69a22.07,22.07,0,0,0,.8,3.5,1.24,1.24,0,0,0,2.4-.3,12.12,12.12,0,0,0-.1-3.8l-2.3.6a13.25,13.25,0,0,0,1.8,4.8,1.22,1.22,0,0,0,2.2-.3,27.79,27.79,0,0,1,1.2-3.8l-2.2.3a38.14,38.14,0,0,1,2.9,5.7,1.2,1.2,0,0,0,2.3,0l.3-.9-2.4-.3c.3,2.7,1,6,4.2,6.6,2.5.4,4.2-1.4,4.2-3.8,0-1.6-.9-4.5-3.1-3.7-2,.7-1.8,4.3-1.1,5.8,2.4,5.2,10.5,1.8,8.1-3.5-.7-1.5-2.3-2.6-3.7-1.1-2,2.2,1,5.4,2.8,6.5,1.6.8,2.8-1.3,1.5-2.1Z" transform="translate(-41.58 -104.88)"/><path class="cls-1" d="M72.5,265c-.1.1-.1.3-.2.4a1.14,1.14,0,0,0,.4,1.6c.1.1.2.1.4.2v-2.1c-1.2.4-2.4.7-3.7,1.1.3.6.7,1.2,1,1.8.7-1.7,1.5-3.3,2.2-5,.5-1.2-.9-2.5-1.9-1.5l-.9.9c.7.4,1.3.8,2,1.2.8-3.1,1.5-6.3,2.1-9.5a1.19,1.19,0,0,0-2.3-.6c-.3,1.1-.7,2.2-1,3.3l2.3.6a149.17,149.17,0,0,0,1.4-30.6H71.9c.2,2.9.4,5.9.6,8.8.1,1.5,2.5,1.5,2.4,0-.2-2.9-.4-5.9-.6-8.8-.1-1.5-2.5-1.5-2.4,0a142.41,142.41,0,0,1-1.3,29.9,1.19,1.19,0,1,0,2.3.6c.3-1.1.7-2.2,1-3.3l-2.3-.6c-.6,3.2-1.3,6.3-2.1,9.5-.3,1.1,1.2,2.1,2,1.2l.9-.9c-.6-.5-1.3-1-1.9-1.5-.7,1.7-1.5,3.3-2.2,5a1.21,1.21,0,0,0,1,1.8,7.23,7.23,0,0,0,4.9-1.4,1.26,1.26,0,0,0,0-2.1c-.1-.1-.2-.1-.4-.2.1.5.3,1.1.4,1.6.1-.1.1-.3.2-.4.8-1.2-1.2-2.4-1.9-1Z" transform="translate(-41.58 -104.88)"/><path class="cls-1" d="M74.9,227c-.2.1-.4.3-.6.4.6.2,1.2.5,1.8.7-.1-.7-.1-1.4-.2-2.1,0-1.1-1.7-1.7-2.2-.6a4.67,4.67,0,0,0-.5,1l2.2.3c-.2-1.3-.5-2.7-.7-4s-2.3-1-2.4.3-.1,2.6-.2,3.9h2.4c-.7-6.8.1-13.6,0-20.4a1.23,1.23,0,0,0-2.4-.3,16.25,16.25,0,0,0-.2,7.6c.3,1.3,2.5,1,2.4-.3-.3-3-.6-6-.9-9.1-.1-1.5-2.5-1.5-2.4,0,.2,3,.5,6,.9,9.1l2.4-.3a12.25,12.25,0,0,1,.2-6.3l-2.4-.3c.1,6.8-.7,13.6,0,20.4a1.2,1.2,0,0,0,2.4,0c.1-1.3.1-2.6.2-3.9l-2.4.3c.2,1.3.5,2.7.7,4a1.22,1.22,0,0,0,2.2.3,4.67,4.67,0,0,0,.5-1l-2.2-.6a26.35,26.35,0,0,0,.2,2.8,1.26,1.26,0,0,0,1.8.7c.2-.1.4-.3.6-.4,1.3-1,.1-3.1-1.2-2.2Z" transform="translate(-41.58 -104.88)"/><path class="cls-1" d="M76,203.7c-.2-1.1-.5-2.2-.7-3.3-.3-1.3-1.9-1-2.3,0a26.43,26.43,0,0,0-1.2,4h2.3c-.3-1-.5-2-.8-3l-2.4.3c0,.7.1,1.3.1,2-.1,1.5,2.3,1.5,2.4,0,.4-4.8-.7-9.6-.7-14.5a75,75,0,0,0-.8-12.5c-.2-1.5-2.5-.9-2.3.6a106.32,106.32,0,0,1,.7,13.8c.1,4.2,1.1,8.3.7,12.5h2.4a5.76,5.76,0,0,0-.2-2.6c-.3-1.3-2.5-1-2.4.3a7.4,7.4,0,0,0,.9,3.6c.4,1,2,1.3,2.3,0a30.38,30.38,0,0,1,1.2-4H72.9c.2,1.1.5,2.2.7,3.3a1.23,1.23,0,1,0,2.4-.5Z" transform="translate(-41.58 -104.88)"/><path class="cls-1" d="M75.6,170.2c-.3-.2-.5-.3-.8-.5a1.28,1.28,0,0,0-1.8.7,4.92,4.92,0,0,1-1,1.5,12.25,12.25,0,0,0,1.9.2,10.38,10.38,0,0,1-.4-1,1.17,1.17,0,0,0-1.9-.2c-.2.3-.4.5-.6.8a14.62,14.62,0,0,0,2,.5c0-.2-.1-.5-.1-.7a1.22,1.22,0,0,0-2.2-.3c-.2.4-.5.9-.7,1.3h2.1v-.3c-.7-.3-1.5-.6-2.2-.9-.2.5-.3.9-.5,1.4-.5,1.5,1.8,2.1,2.3.6a1.39,1.39,0,1,0-2.6-1c-.6,1.5,1.7,2,2.3.6a7,7,0,0,0,.5-3.5c-.2-1.5-2.6-1.5-2.4,0a5.86,5.86,0,0,1-.4,2.9l2.3.6v-.1l-.8.8h.1c-.3,0-.6-.1-.9-.1a.1.1,0,0,1,.1.1c-.2-.3-.4-.7-.6-1v.1l2.3.6c.2-.5.3-.9.5-1.4a1.2,1.2,0,0,0-2.2-.9,2.62,2.62,0,0,0,0,2.7,1.26,1.26,0,0,0,2.1,0c.2-.4.5-.9.7-1.3l-2.2-.3c0,.2.1.5.1.7a1.17,1.17,0,0,0,2,.5c.2-.3.4-.5.6-.8a12.25,12.25,0,0,0-1.9-.2,10.38,10.38,0,0,1,.4,1,1.23,1.23,0,0,0,1.9.2,5.15,5.15,0,0,0,1.6-2.5c-.6.2-1.2.5-1.8.7.3.2.5.3.8.5a1.22,1.22,0,1,0,1.4-2Z" transform="translate(-41.58 -104.88)"/><path class="cls-1" d="M48.4,173.9c-.2-.2-.5-.4-.7-.6a1.21,1.21,0,0,0-1.5-.2.37.37,0,0,0-.3.1,1.2,1.2,0,0,0-1.4.6c-.2-.1-.3-.2-.5-.2-.8-.6-1.7.2-1.8,1a3.1,3.1,0,0,0,2.8,3.7,1.2,1.2,0,0,0,.9-2.2,7.45,7.45,0,0,0-2.4-1.1,1.21,1.21,0,0,0-1.2,2c1.6,1.7,4.4,1.8,6.6,2.3a1.19,1.19,0,0,0,.6-2.3c-.8-.2-1.6-.5-2.4-.7-.2.8-.4,1.5-.6,2.3a84.93,84.93,0,0,1,16.2,5.2,1.21,1.21,0,0,0,1.8-1,9.66,9.66,0,0,0,.1-2.4,1.2,1.2,0,0,0-2.4,0,9.66,9.66,0,0,1-.1,2.4c.6-.3,1.2-.7,1.8-1a83.44,83.44,0,0,0-16.7-5.4,1.19,1.19,0,0,0-.6,2.3c.8.2,1.6.5,2.4.7.2-.8.4-1.5.6-2.3-1.6-.4-4.4-.4-5.6-1.7-.4.7-.8,1.3-1.2,2l1.8.9c.3-.7.6-1.5.9-2.2l-1.1-1.4c-.6.3-1.2.7-1.8,1,1.4.9,3,1.1,3.8-.6-.5.2-.9.4-1.4.6a2,2,0,0,0,2.2-.3c-.5-.1-1-.1-1.5-.2a2.94,2.94,0,0,0,1.2,1c1.6.5,2.8-1.5,1.5-2.3Z" transform="translate(-41.58 -104.88)"/><path class="cls-1" d="M62.3,178.5a14.09,14.09,0,0,1,.7-5l-2.4-.3-.3,5.4a1.19,1.19,0,0,0,2.2.6,32.51,32.51,0,0,0,1.8-4.3l-2.3-.6a24.16,24.16,0,0,0-.5,4.7c0,1.4,1.9,1.5,2.4.3s.8-2.1,1.2-3.2l-2.3-.6c-.2,1.2-.4,2.3-.6,3.5a1.19,1.19,0,0,0,2.3.6l.6-1.8-2.4-.3c0,.5-.1.9-.1,1.4-.1,1.6,2.2,1.5,2.4,0a33.81,33.81,0,0,1,1.6-7l-2.4-.3a4.87,4.87,0,0,0,.1,1.2c.1,1.5,2.5,1.5,2.4,0a4.87,4.87,0,0,0-.1-1.2,1.23,1.23,0,0,0-2.4-.3,39.75,39.75,0,0,0-1.7,7.6h2.4c0-.5.1-.9.1-1.4.1-1.4-1.9-1.5-2.4-.3L62,179l2.3.6c.2-1.2.4-2.3.6-3.5a1.19,1.19,0,0,0-2.3-.6c-.4,1.1-.8,2.1-1.2,3.2l2.4.3a25.81,25.81,0,0,1,.4-4,1.19,1.19,0,0,0-2.3-.6,17.25,17.25,0,0,1-1.6,3.7l2.2.6.3-5.4c.1-1.4-1.9-1.6-2.4-.3a15.22,15.22,0,0,0-.8,5.6c.3,1.5,2.7,1.5,2.7-.1Z" transform="translate(-41.58 -104.88)"/><path class="cls-1" d="M65.2,175.3c.5-2.8,1.1-5.6,1.6-8.4l-2.3-.6a40.48,40.48,0,0,1-.9,4.8,1.19,1.19,0,0,0,2.3.6,43,43,0,0,0,1.8-7.9c.2-1.4-2-1.5-2.4-.3a48.37,48.37,0,0,0-1.4,5.1c-.3,1.5,2,2.2,2.3.6.6-2.6,1.2-5.2,1.8-7.9a1.19,1.19,0,0,0-2.3-.6c-.3,1.3-.7,2.5-1,3.8l2.3.6a37.72,37.72,0,0,1,1.4-5.8c.5-1.5-1.8-2-2.3-.6a26.43,26.43,0,0,0-1.2,4l2.3.6c.1-.5.2-1.1.3-1.6.2-1.5-2.1-2.2-2.3-.6-.1.5-.2,1.1-.3,1.6-.2,1.5,2,2.2,2.3.6a26.43,26.43,0,0,1,1.2-4l-2.3-.6a54.5,54.5,0,0,0-1.4,5.8c-.2,1.5,1.9,2.2,2.3.6.3-1.3.7-2.5,1-3.8l-2.3-.6c-.6,2.6-1.2,5.2-1.8,7.9l2.3.6a48.38,48.38,0,0,1,1.4-5.1l-2.4-.3a36.84,36.84,0,0,1-1.7,7.3l2.3.6a40.48,40.48,0,0,0,.9-4.8c.2-1.5-2-2.2-2.3-.6-.5,2.8-1.1,5.6-1.6,8.4-.2,1.5,2.1,2.1,2.4.6Z" transform="translate(-41.58 -104.88)"/><path class="cls-1" d="M57.6,177.7c-.2-.2-.3-.5-.5-.7-.5.6-.9,1.2-1.4,1.8l5.7,2.1a1.26,1.26,0,0,0,1.5-1.5c-.1-.4-.3-.8-.4-1.2-.7.4-1.3.8-2,1.2a2.19,2.19,0,0,0,.3.5c.7-.3,1.5-.6,2.2-.9-1.4-2.9-4.4-2.3-7-3-3.1-.8-5.4-2.5-8.8-2.1a1.2,1.2,0,0,0-.8,1.5,3.34,3.34,0,0,0,2.2,2.4c.2-.8.4-1.5.6-2.3a5.15,5.15,0,0,1-2-.9c-.3.7-.6,1.5-.9,2.2l3.3.6c1.2.2,2.3-1.6.9-2.2a16.59,16.59,0,0,0-3.1-1.2,1.19,1.19,0,0,0-.6,2.3c2.5.8,5.1,1.6,7.6,2.5a1.2,1.2,0,0,0,.9-2.2c-.7-.5-1.4-.9-2.1-1.4-.3.7-.6,1.5-.9,2.2a15.44,15.44,0,0,0,3.1.5,1.15,1.15,0,0,0,1-1.8,8.6,8.6,0,0,0-3.6-2.9c-.2.7-.4,1.5-.6,2.2.5.1,1.1.3,1.6.4,1.4.7,2.6-1.4,1.2-2.1a5.55,5.55,0,0,0-2.8-.7c-1.1,0-1.7,1.7-.6,2.2a6.21,6.21,0,0,1,2.7,2.1c.3-.6.7-1.2,1-1.8a7.27,7.27,0,0,1-2.5-.4,1.2,1.2,0,0,0-.9,2.2c.7.5,1.4.9,2.1,1.4.3-.7.6-1.5.9-2.2-2.5-.8-5.1-1.6-7.6-2.5-.2.8-.4,1.5-.6,2.3a13.38,13.38,0,0,1,2.6.9c.3-.7.6-1.5.9-2.2l-3.3-.6c-1.3-.2-2.2,1.5-.9,2.2a12,12,0,0,0,2.6,1.1c1.5.5,2-1.8.6-2.3-.2-.2-.4-.5-.6-.7a10.93,10.93,0,0,0-.8,1.5c2.4-.3,4.4,1,6.6,1.8,1.9.6,5.6.2,6.5,2.2.6,1.3,2.4.3,2.2-.9a1.8,1.8,0,0,0-.9-1.6c-.8-.7-2.4-.1-2,1.2.1.4.3.8.4,1.2l1.5-1.5-5.7-2.1c-1.1-.4-1.7.9-1.4,1.8a3.11,3.11,0,0,0,1.4,1.6c1.3.7,2.5-1.3,1.2-2.2Z" transform="translate(-41.58 -104.88)"/><path class="cls-1" d="M57.8,175.3c.3-1.1.5-2.2.9-3.3l-2.3-.6c-.3,1.5-.7,3-1.1,4.5s1.8,2.1,2.3.6a44.27,44.27,0,0,1,3.2-7c-.7-.3-1.5-.6-2.2-.9-.8,2.4-3.1,5.7-1.4,8a1.25,1.25,0,0,0,1.2.3c2.6-.9,3.7-5.5,4.9-7.7-.7-.3-1.5-.6-2.2-.9a55.26,55.26,0,0,1-2.4,7.9l2.3.6c.9-5.4,3.9-10.3,3.6-15.9a1.23,1.23,0,0,0-2.4-.3,88.46,88.46,0,0,0-4,13.3l2.3.6c1-5,2-10.1,3-15.1l-2.4-.3a49.79,49.79,0,0,1-.4,12.8l2.4.3a67,67,0,0,1,2.2-13.4l-2.4-.3a73.46,73.46,0,0,1-1.3,12.4l2.3.6a69.74,69.74,0,0,1,2.8-12l-2.4-.3c-.4,3.4-.9,6.8-1.6,10.2l2.3.6c.5-3.8,1.1-7.6,1.6-11.4.2-1.2-1.6-2.3-2.2-.9-1.3,3.1-2.7,6.2-4,9.3-.6,1.4,1.5,2.6,2.1,1.2,1.3-3.1,2.7-6.2,4-9.3-.7-.3-1.5-.6-2.2-.9-.5,3.8-1.1,7.6-1.6,11.4-.2,1.5,2,2.2,2.3.6.7-3.6,1.3-7.2,1.7-10.9.2-1.4-2-1.5-2.4-.3a61.54,61.54,0,0,0-2.8,12c-.2,1.5,2,2.2,2.3.6a80.77,80.77,0,0,0,1.4-13,1.23,1.23,0,0,0-2.4-.3,66.82,66.82,0,0,0-2.2,14.1,1.23,1.23,0,0,0,2.4.3,50.8,50.8,0,0,0,.5-13.5c-.1-1.3-2.1-1.7-2.4-.3-1,5-2,10.1-3,15.1-.3,1.5,2,2.2,2.3.6a126.76,126.76,0,0,1,4-13.3l-2.4-.3c.3,5.4-2.7,10.1-3.5,15.3a1.19,1.19,0,0,0,2.3.6,55.26,55.26,0,0,0,2.4-7.9,1.2,1.2,0,0,0-2.2-.9c-.7,1.3-1.3,2.6-2,3.9-.4.7-2,2.6-.8,2.7s2.1-4.2,2.5-5.4-1.5-2.1-2.2-.9a40,40,0,0,0-3.4,7.6l2.3.6a32.85,32.85,0,0,0,1.1-4.5,1.19,1.19,0,0,0-2.3-.6l-.9,3.3c-.1,1.6,2.2,2.2,2.5.7Z" transform="translate(-41.58 -104.88)"/><path class="cls-1" d="M62.6,172.8a1.09,1.09,0,0,1,.4-.9,14.62,14.62,0,0,0-2-.5,4.78,4.78,0,0,1-.3,2.9,1.35,1.35,0,0,0,.8,1.5A1.24,1.24,0,0,0,63,175c.2-.5.4-1.1.6-1.6a14.62,14.62,0,0,1-2,.5v-.7c.7.3,1.4.6,2,.8a5.82,5.82,0,0,1,.3-1.9H61.6a3.28,3.28,0,0,1,.1,1.7h2.4a6.8,6.8,0,0,1,.2-2l-2.3-.6a3.58,3.58,0,0,1-.4,1.1,1.21,1.21,0,0,0,2.1,1.2,4.92,4.92,0,0,0,.6-1.7,1.19,1.19,0,0,0-2.3-.6,11.53,11.53,0,0,0-.3,2.6,1.2,1.2,0,0,0,2.4,0,5.83,5.83,0,0,0-.2-2.3,1.2,1.2,0,0,0-2.3,0,7.46,7.46,0,0,0-.4,2.6c0,.9,1.3,1.7,2,.8a2,2,0,0,0,0-2.7,1.25,1.25,0,0,0-2,.5c-.2.5-.4,1.1-.6,1.6l2.3.6a7.49,7.49,0,0,0,.3-4.2,1.2,1.2,0,0,0-2-.5,3.63,3.63,0,0,0-1.1,2.6,1.25,1.25,0,0,0,2.5,0Z" transform="translate(-41.58 -104.88)"/><path class="cls-1" d="M48.1,173.2c0-.4-.1-.7-.1-1.1a1.19,1.19,0,0,0-2.3-.6c-.3.6-.5,1.1-.8,1.7-.7-.4-1.3-.8-2-1.2-.1.4-.2.7-.3,1.1l2.4.3c-.6-.2-1.1-.3-1.7-.5a1.23,1.23,0,0,0,2.4.3c.5-1.7,1.1-3.4,1.7-5,.6-1.4-1.8-2.1-2.3-.6a30.54,30.54,0,0,1-1.3,3.2l2.4.3c.2-.7.3-1.4.5-2.2l-2.3-.6a13.32,13.32,0,0,0-.5,1.9c.7.3,1.5.6,2.2.9a13.56,13.56,0,0,1,.6-2.9c.5-1.5-1.7-2-2.3-.6-.3.6-.5,1.2-.8,1.8l2.3.6c.4-1.6.8-3.3,1.3-4.9.3-1.3-1.6-2.2-2.2-.9l-1.5,3.6c.7.3,1.5.6,2.2.9.9-2.3,1.7-4.7,2.6-7l-2.3-.6c-1,3.1-2.1,6.2-3.1,9.3-.5,1.5,1.7,2,2.3.6s1.2-2.9,1.8-4.3l-2.3-.6c-.3,1.1-.6,2.1-.9,3.2a1.19,1.19,0,0,0,2.3.6l2.4-8.1-2.3-.6c-.2.9-.5,1.8-.7,2.7.7.3,1.5.6,2.2.9.3-1.6.6-3.2,1-4.8.2-1.2-1.6-2.2-2.2-.9a11.66,11.66,0,0,0-1,2.6l2.3.6c.2-.7.4-1.4.6-2.2a1.19,1.19,0,0,0-2.3-.6,26.17,26.17,0,0,0-1.3,4.8l2.4.3a47.62,47.62,0,0,1,1-5.2c.2-1.1-1.2-2.1-2-1.2a3,3,0,0,0-1,1.9c-.3,1.5,2,2.2,2.3.6.2-1,.5-1.9.7-2.9a1.19,1.19,0,0,0-2.3-.6l-.3.9,2.3.6c.3-1.4.6-2.7.9-4.1s-2-2.2-2.3-.6c-.1.6-.3,1.2-.4,1.8l2.3.6c.3-1.3.5-2.6.8-3.9a1.19,1.19,0,0,0-2.3-.6,7.4,7.4,0,0,0-.8,2.9c-.3,1.5,2,2.2,2.3.6.3-1.4.7-2.9,1-4.3a1.19,1.19,0,0,0-2.3-.6c-.2.9-.5,1.8-.7,2.7l2.4.3c.1-.7.2-1.4.3-2.2a10.93,10.93,0,0,1-1.5.8c.1,0,.2.1.3.1a10.93,10.93,0,0,1-.8-1.5.76.76,0,0,1-.1.4,10.93,10.93,0,0,1,1.5-.8c.9.2.6-.2.6-1.1,0-1.3-2.1-1.7-2.4-.3-.1.4-.1.8-.2,1.2a1.19,1.19,0,0,0,2.3.6,19.73,19.73,0,0,0,.7-2.6l-2.3-.6-.9,6c-.2,1.2,1.6,2.3,2.2.9s1.2-2.7,1.9-4c-.7-.3-1.5-.6-2.2-.9a67.32,67.32,0,0,0-1,12.7c0,1.3,2.1,1.7,2.4.3a36.18,36.18,0,0,1,1.7-5.6l-2.4-.3c-.3,3.7-.6,7.4-1.1,11.1.7-.3,1.4-.6,2-.8-.2-.9-.5-1.9-.7-2.8a14.62,14.62,0,0,1-2,.5c2.9,2.4,1.7,4.5,1.6,7.2a1.1,1.1,0,0,0,.6,1c.3.7.6,1.3.9,2l1.5-1.2a6.37,6.37,0,0,0,.2-.7h2.3c.4-1.1.9-2.2,1.3-3.3-.6-.3-1.2-.7-1.8-1a14.26,14.26,0,0,1-1.3,4.9l2.4.3c-.8-1-1.7-2-2.5-3.1-.5.6-.9,1.2-1.4,1.8a10.37,10.37,0,0,1,6.3,3.2c.3-.7.6-1.4.8-2a8.94,8.94,0,0,1-7-2.9,1.15,1.15,0,0,0-2,.8c.1.4.2.8.3,1.3l1.5,1.2a7.08,7.08,0,0,1,2.4-6c-.7-.3-1.4-.6-2-.8,1,1.3,1.3.7,1-1.8l-2.4-.3c-.2.7-.3,1.4-.5,2.1l2.4.3a13.17,13.17,0,0,1,1.3-4.8l-2.4-.3a11.48,11.48,0,0,1,0,3.7,1.19,1.19,0,0,0,2.3.6c.4-.9.8-1.9,1.1-2.8l-2.2-.3a8.2,8.2,0,0,1,.3,4.4c-.1,1.4,1.9,1.5,2.4.3.7-1.9,1.4-3.7,2.1-5.6l-2.3-.6c-.3,1.9-.6,3.9-.9,5.8a1.19,1.19,0,0,0,2.3.6c.9-2.2,1.8-4.5,2.8-6.7l-2.3-.6c-.7,3.1-1.3,6.2-2,9.3a1.19,1.19,0,0,0,2.3.6c.9-2.4,1.8-4.7,2.9-7-.7-.3-1.5-.6-2.2-.9-.4,2.5-1,5-1.6,7.5-.4,1.5,1.7,2,2.3.6,1-2.5,2-5,3-7.4l-2.3-.6c-.5,2-1.1,4-1.6,6a1.19,1.19,0,0,0,2.3.6c1-2.6,1.9-5.3,2.9-7.9l-2.4-.3a27,27,0,0,1-1.4,5.6l2.3.6c.8-3.8,1.5-7.6,2-11.4.2-1.2-1.8-1.7-2.2-.6a23.48,23.48,0,0,0-1.9,7.8c-.1,1.3,2.2,1.7,2.4.3s.5-2.5.8-3.8a1.19,1.19,0,0,0-2.3-.6c-.4,1.1-.7,2.3-1.1,3.4l2.4.3a34.49,34.49,0,0,1,.7-5.5c.2-1-1.2-2.2-2-1.2-.6.8-1.3,1.6-1.9,2.4.7.4,1.3.8,2,1.2a7.86,7.86,0,0,1,.8-2.6l-2.3-.6a40.43,40.43,0,0,1-1.8,5.6l2.3.6c.9-2.5,1.8-5,2.7-7.6.5-1.3-1.5-2-2.2-.9a47,47,0,0,0-3.9,6.9c.7.3,1.5.6,2.2.9a38.11,38.11,0,0,1,2.4-6.7c-.7-.3-1.5-.6-2.2-.9a41.3,41.3,0,0,1-3,6.8c.7.3,1.5.6,2.2.9a54,54,0,0,1,2.5-6.7,1.21,1.21,0,0,0-2.1-1.2c-1.2,1.8-2.4,3.6-3.7,5.4l2.2.6a11.91,11.91,0,0,1,1.3-4.9c-.7-.3-1.5-.6-2.2-.9l-2.7,6.6,2.3.6c.8-2.2,1.6-4.5,2.5-6.7l-2.3-.6a58.21,58.21,0,0,1-3,7.9c.7.3,1.5.6,2.2.9a26.25,26.25,0,0,1,2.1-7.1c-.7-.3-1.5-.6-2.2-.9-.7,1.7-1.3,3.5-2,5.2H54a9.72,9.72,0,0,1,.4-5.6,1.19,1.19,0,0,0-2.3-.6c-.7,1.9-1.4,3.8-2,5.6l2.4.3a12,12,0,0,1,1.5-5.9c-.7-.3-1.5-.6-2.2-.9-.4,2.5-.8,4.9-1.2,7.4l2.4.3a84.61,84.61,0,0,1,.8-8.8H51.5c0,1.4-.1,2.7-.1,4.1h2.3a20.34,20.34,0,0,1-.1-5.5c.1-1.4-1.9-1.5-2.4-.3-.4,1-.7,1.9-1.1,2.9l2.4.3c-.1-.8-.1-1.6-.2-2.4-.1-1.1-1.7-1.7-2.2-.6a28.26,28.26,0,0,0-1.7,4l2.3.6a8.92,8.92,0,0,1,1.5-3.1H50.1c.1.4.1.8.2,1.2-.2,1.2,1.6,2.3,2.2.9.2-.4.4-.9.6-1.3l-2.2-.6c-.1.8-.2,1.7-.3,2.5a1.19,1.19,0,0,0,2.3.6,5.82,5.82,0,0,0,.4-3.2c0-1.1-1.7-1.8-2.2-.6-.2.4-.4.9-.6,1.3.7.3,1.5.6,2.2.9a3.52,3.52,0,0,0-.5-3,1.26,1.26,0,0,0-2.1,0,18.06,18.06,0,0,0-1.8,3.7c-.5,1.5,1.8,2.1,2.3.6a17.5,17.5,0,0,1,1.5-3.4l-2.2-.6c.1.8.1,1.6.2,2.4a1.23,1.23,0,0,0,2.4.3c.4-1,.7-1.9,1.1-2.9l-2.4-.3a25.76,25.76,0,0,0,.2,6.2c.2,1.2,2,1.1,2.3,0a10.58,10.58,0,0,0,.1-5.3,1.2,1.2,0,0,0-2.3,0c-.4,3.1-.7,6.3-.9,9.4a1.23,1.23,0,0,0,2.4.3c.4-2.5.8-4.9,1.2-7.4.2-1.2-1.6-2.3-2.2-.9a17.34,17.34,0,0,0-1.8,7.1c-.1,1.4,1.9,1.5,2.4.3.7-1.9,1.4-3.8,2-5.6l-2.3-.6a14.71,14.71,0,0,0-.4,6.9c.2,1.3,1.9,1,2.3,0,.7-1.7,1.3-3.5,2-5.2a1.2,1.2,0,0,0-2.2-.9,29.23,29.23,0,0,0-2.4,7.6c-.2,1.2,1.6,2.3,2.2.9a65.86,65.86,0,0,0,3.2-8.4c.5-1.5-1.8-2.1-2.3-.6-.8,2.2-1.6,4.5-2.5,6.7-.5,1.5,1.7,2,2.3.6l2.7-6.6c.5-1.2-1.6-2.2-2.2-.9a18.35,18.35,0,0,0-1.6,6.1c-.1,1.3,1.6,1.5,2.2.6,1.2-1.8,2.4-3.6,3.7-5.4l-2.1-1.2c-1,2.4-1.9,4.8-2.7,7.3a1.2,1.2,0,0,0,2.2.9,40.77,40.77,0,0,0,3.3-7.4c.4-1.3-1.6-2.2-2.2-.9a39.76,39.76,0,0,0-2.6,7.3c-.3,1.3,1.6,2.2,2.2.9a76.88,76.88,0,0,1,3.9-6.9c-.7-.3-1.5-.6-2.2-.9-.9,2.5-1.8,5-2.7,7.6-.5,1.5,1.7,2,2.3.6a45.87,45.87,0,0,0,1.8-5.6,1.19,1.19,0,0,0-2.3-.6,7.86,7.86,0,0,0-.8,2.6c-.2,1.1,1.2,2.2,2,1.2.6-.8,1.3-1.6,1.9-2.4-.7-.4-1.3-.8-2-1.2a40.67,40.67,0,0,0-.7,6.1c-.1,1.4,2,1.6,2.4.3.4-1.1.7-2.3,1.1-3.4l-2.3-.6a25.72,25.72,0,0,0-.8,3.8l2.4.3a16.74,16.74,0,0,1,1.5-6.6l-2.2-.6c-.5,3.6-1.1,7.2-1.9,10.8a1.19,1.19,0,0,0,2.3.6,35,35,0,0,0,1.5-6.2c.2-1.4-1.9-1.5-2.4-.3-1,2.6-1.9,5.3-2.9,7.9l2.3.6c.5-2,1.1-4,1.6-6,.4-1.5-1.7-2-2.3-.6-1,2.5-2,5-3,7.4l2.3.6a66.87,66.87,0,0,0,1.6-7.5c.2-1.2-1.6-2.3-2.2-.9-1.1,2.5-2.2,5-3.1,7.5l2.3.6c.7-3.1,1.3-6.2,2-9.3a1.19,1.19,0,0,0-2.3-.6c-.9,2.2-1.8,4.5-2.8,6.7l2.3.6c.3-1.9.6-3.9.9-5.8a1.19,1.19,0,0,0-2.3-.6c-.7,1.9-1.4,3.7-2.1,5.6l2.4.3a16.66,16.66,0,0,0-.4-5,1.22,1.22,0,0,0-2.2-.3,23.29,23.29,0,0,0-1.4,3.3l2.3.6a16.13,16.13,0,0,0,.1-4.4,1.23,1.23,0,0,0-2.4-.3,21.52,21.52,0,0,0-1.4,5.4c-.2,1.4,2,1.5,2.4.3a11.79,11.79,0,0,0,.6-2.7c.2-1.4-2-1.6-2.4-.3-.4,1.6-1.4,5.6.9,6.4s2.9-2.4,2.8-3.9a1.17,1.17,0,0,0-2-.8,10.33,10.33,0,0,0-3.1,7.7,1.29,1.29,0,0,0,1.5,1.2c5.2-1.1.8-9.9-2.5-5.3-3,4.2,3.8,7.8,4,1.8-.7.3-1.4.6-2,.8a11.48,11.48,0,0,0,8.7,3.6,1.16,1.16,0,0,0,.8-2,13.23,13.23,0,0,0-7.4-3.8c-.9-.2-2,.8-1.4,1.8,1.1,1.6,2.7,3.6,4.9,3.5a2.57,2.57,0,0,0,2.7-3c-.6-4-5.4-2.1-5.4,1.3,0,1.4,1.9,1.5,2.4.3a21.18,21.18,0,0,0,1.4-5.5,1.18,1.18,0,0,0-1.8-1,5.27,5.27,0,0,0-2.4,6.1c.3,1.2,1.9,1,2.3,0,1.1-3-1-7.8-4.5-4.6-2.1,1.9-.7,8.3,2.7,7.2,2.6-.8,1.7-4.8-.9-4.9-3.2-.1-3.4,3.9-.5,4.7a1.2,1.2,0,0,0,1.5-1.2c.2-1.8-1.7-6.5-4.2-6-3.1.7-1.3,5.5,1.7,4,2.7-1.3,1.4-7-1.6-6.3-3.2.7-2.3,7,1.1,7a1.29,1.29,0,0,0,1.2-.9,8.54,8.54,0,0,0-2-9.8,1.26,1.26,0,0,0-2,.5,3.93,3.93,0,0,0,1.3,5.1,1.18,1.18,0,0,0,2-.8c.5-3.7.8-7.4,1.1-11.1.1-1.5-1.9-1.5-2.4-.3a39.82,39.82,0,0,0-1.7,5.6l2.4.3a81.12,81.12,0,0,1,.9-12.1c.2-1.2-1.6-2.3-2.2-.9s-1.2,2.7-1.9,4c.7.3,1.5.6,2.2.9l.9-6c.2-1.5-2-2.2-2.3-.6a19.73,19.73,0,0,1-.7,2.6l2.3.6c.1-.4.1-.8.2-1.2l-2.4-.3c0,1.4-.8,2.9,1.1,3.4.6.1,1.4-.2,1.5-.8a.76.76,0,0,1,.1-.4,1.35,1.35,0,0,0-.8-1.5c-.1,0-.2-.1-.3-.1a1.24,1.24,0,0,0-1.5.8,6.81,6.81,0,0,0-.4,2.8,1.23,1.23,0,0,0,2.4.3c.2-.9.5-1.8.7-2.7l-2.3-.6c-.3,1.4-.7,2.9-1,4.3l2.3.6a9.61,9.61,0,0,1,.8-2.9L47,152c-.3,1.3-.5,2.6-.8,3.9-.3,1.5,2,2.2,2.3.6.1-.6.3-1.2.4-1.8l-2.3-.6c-.3,1.4-.6,2.7-.9,4.1a1.19,1.19,0,0,0,2.3.6l.3-.9-2.3-.6c-.2,1-.5,1.9-.7,2.9l2.3.6a3.55,3.55,0,0,1,.4-.9c-.7-.4-1.3-.8-2-1.2-.4,2-.9,3.8-1.1,5.8-.1,1.3,2.1,1.6,2.4.3a26.17,26.17,0,0,1,1.3-4.8l-2.3-.6c-.2.7-.4,1.4-.6,2.2a1.19,1.19,0,0,0,2.3.6c.3-.7.5-1.3.8-2-.7-.3-1.5-.6-2.2-.9-.3,1.6-.6,3.2-1,4.8-.2,1.2,1.6,2.3,2.2.9a9.07,9.07,0,0,0,1-3.3c.2-1.5-1.9-2.2-2.3-.6l-2.4,8.1,2.3.6c.3-1.1.6-2.1.9-3.2.4-1.5-1.7-2-2.3-.6s-1.2,2.9-1.8,4.3l2.3.6c1-3.1,2.1-6.2,3.1-9.3.5-1.5-1.8-2.1-2.3-.6-.9,2.3-1.7,4.7-2.6,7-.5,1.3,1.7,2.2,2.2.9l1.5-3.6c-.7-.3-1.5-.6-2.2-.9-.4,1.6-.8,3.3-1.3,4.9s1.7,2,2.3.6c.3-.6.5-1.2.8-1.8l-2.3-.6a7.17,7.17,0,0,0-.6,2.9c-.2,1.2,1.6,2.3,2.2.9a7.32,7.32,0,0,0,.8-2.5,1.19,1.19,0,0,0-2.3-.6,5.46,5.46,0,0,0-.6,2.8c-.1,1.5,1.9,1.5,2.4.3a30.54,30.54,0,0,1,1.3-3.2l-2.3-.6c-.6,1.7-1.2,3.3-1.7,5l2.4.3v-.4a1.18,1.18,0,0,0-.9-1.2.6.6,0,0,1-.4-.1,1.2,1.2,0,0,0-1.4.6,2.82,2.82,0,0,0-.4,1.5,1.23,1.23,0,0,0,2.4.3c.1-.4.2-.7.3-1.1a1.23,1.23,0,0,0-2-1.2c-3.2,2.6,3,6.7,4.8.7l-2.3-.6a3.94,3.94,0,0,0,.1,2.4c-.3,1.6,2.1,1,1.6-.5Z" transform="translate(-41.58 -104.88)"/><path class="cls-1" d="M49,157.3V153a1.16,1.16,0,0,0-2-.8,2,2,0,0,0-.8,1.4l2.3.6a5.07,5.07,0,0,0,.2-1.3,1.19,1.19,0,1,0-2.3-.6c-.1.6-.3,1.2-.4,1.8l2.3.6c.1-.4.1-.7.2-1.1.2-1.2-1.5-2.3-2.2-.9a3.92,3.92,0,0,0-.6,2.4c0,1.3,2.1,1.7,2.4.3.9-3.9,1.7-7.7,2.6-11.6l-2.3-.6c-.3,1.6-.5,3.3-.8,4.9l2.4.3a10.94,10.94,0,0,1,.3-4.4c.3-1.5-2-2.2-2.3-.6s-.8,3.2-1.1,4.8l2.4.3a15.23,15.23,0,0,1,.6-4.2,1.19,1.19,0,0,0-2.3-.6c-.3,1.1-.6,2.1-.8,3.2l2.3.6c.2-1,.3-1.9.5-2.9l-2.4-.3c-.2.6-.3,1.3-.5,1.9l2.3.6c.3-2.3.7-4.5,1-6.8.2-1.5-1.9-2.2-2.3-.6-.3.9-.5,1.8-.8,2.7l2.3.6c.3-1.7.5-3.4.8-5.1l-2.4-.3c-.2,1.3-.3,2.6-.5,3.9s2.1,1.6,2.4.3c.6-2.7,1.1-5.4,1.7-8.1l-2.4-.3a10.39,10.39,0,0,1-.4,3.9l2.3.6c.3-1.7.5-3.4.8-5.1l-2.4-.3a8.53,8.53,0,0,1-.8,3.5l2.4.3c.1-.9.2-1.7.3-2.6a1.19,1.19,0,0,0-2.3-.6c-.4,1.1-.8,2.1-1.1,3.2l2.4.3c.2-2.1.4-4.2.6-6.2.1-1.4-2-1.6-2.4-.3a65.7,65.7,0,0,0-1.6,7.7c-.2,1.2,1.5,2.2,2.2.9a7.5,7.5,0,0,0,.9-2.5c.3-1.5-2-2.2-2.3-.6-.2.6-.4,1.3-.6,1.9.7.3,1.5.6,2.2.9.4-2.6,1-5.1,1.6-7.7l-2.4-.3c-.2,2.1-.4,4.2-.6,6.2-.1,1.4,1.9,1.5,2.4.3s.8-2.1,1.1-3.2l-2.3-.6a5.79,5.79,0,0,0-.3,3.2,1.23,1.23,0,0,0,2.4.3,15,15,0,0,0,.9-4.2c.1-1.3-2.2-1.7-2.4-.3-.3,1.7-.5,3.4-.8,5.1-.2,1.5,1.9,2.2,2.3.6a13.84,13.84,0,0,0,.5-4.5c0-1.3-2.1-1.7-2.4-.3-.6,2.7-1.1,5.4-1.7,8.1l2.4.3c.2-1.3.3-2.6.5-3.9s-2.2-1.7-2.4-.3c-.3,1.7-.5,3.4-.8,5.1-.2,1.5,1.9,2.2,2.3.6.3-.9.5-1.8.8-2.7l-2.3-.6c-.3,2.3-.7,4.5-1,6.8a1.19,1.19,0,0,0,2.3.6,11,11,0,0,0,.6-2.6,1.23,1.23,0,0,0-2.4-.3c-.2,1-.3,1.9-.5,2.9-.2,1.5,1.9,2.2,2.3.6.3-1.1.6-2.1.8-3.2l-2.3-.6a25.25,25.25,0,0,0-.7,4.8c-.1,1.3,2,1.6,2.4.3.4-1.6.8-3.2,1.1-4.8l-2.3-.6a20.7,20.7,0,0,0-.4,5c.1,1.3,2.1,1.7,2.4.3.3-1.6.5-3.3.8-4.9s-2-2.2-2.3-.6c-.9,3.9-1.7,7.7-2.6,11.6l2.4.3a5,5,0,0,0,.2-1.2c-.7-.3-1.5-.6-2.2-.9-.1.4-.1.7-.2,1.1-.2,1.5,1.9,2.2,2.3.6.1-.6.3-1.2.4-1.8l-2.3-.6a5.07,5.07,0,0,0-.2,1.3c-.3,1.5,2,2.2,2.3.6.1-.1.1-.2.2-.4-.7-.3-1.4-.6-2-.8v4.3c-.4,1.7,2,1.7,2.1.2Z" transform="translate(-41.58 -104.88)"/><path class="cls-1" d="M52.1,130.1l-.3-2.4a1.2,1.2,0,0,0-2.2-.9c-.3.5-.6,1-.9,1.6l2.2.6c.3-1,.5-2,.8-3l-2.2-.6-1.2,3.3,2.2.6c.1-.8.1-1.5.2-2.3a1.19,1.19,0,0,0-2.3-.6c-.4,1-.8,2-1.2,3.1l2.3.6c.8-2.3,1.6-4.6,2.4-7l-2.4-.3c-.2.5-.4,1.1-.6,1.6.7.3,1.5.6,2.2.9.3-1.2.6-2.3.8-3.5l-2.3-.6a7.65,7.65,0,0,1-1.1,3.2c.7.3,1.5.6,2.2.9a23.74,23.74,0,0,1,3.4-7.8L52,116.3c-.7,1.1-1.4,2.2-2,3.2l2.1,1.2a33.34,33.34,0,0,1,4.6-5.9L55,113.1a8.48,8.48,0,0,1-3.3,2.9l1.6,1.6a5.24,5.24,0,0,1,4.3-3.6,1.24,1.24,0,0,0-.3-2.4,5.8,5.8,0,0,0-3.2.7c.5.6,1,1.3,1.5,1.9a23.46,23.46,0,0,1,4.7-3.6,1.2,1.2,0,0,0-.9-2.2,6,6,0,0,0-4.5,3.4c-.7,1.2.9,2.3,1.9,1.5a15.7,15.7,0,0,1,5.8-3.2,1.24,1.24,0,0,0-.3-2.4,6.09,6.09,0,0,0-2.7.2c-1.3.3-1,2.5.3,2.4a58.79,58.79,0,0,1,6-.3c1.6,0,1.5-2.2,0-2.4-1.3-.2-2.7-.3-4-.5v2.4c2.3-.1,4.5-.3,6.8-.4a1.2,1.2,0,0,0,0-2.4c-1.4-.1-2.9-.1-4.3-.2v2.4c3-.2,6-.3,9-.5l-.3-2.4-2.7.3-.3,2.4,7.2.3v-2.4a10,10,0,0,1-4.5-.5l-.3,2.4h7.3a1.23,1.23,0,0,0,.3-2.4,14.73,14.73,0,0,0-4.7-.4,1.2,1.2,0,0,0,0,2.4c2.9-.3,5.4.8,7.6,3.4.7-.3,1.5-.6,2.2-.9a17.15,17.15,0,0,0-3.7-4.8c-1.1-1-2.8.6-1.7,1.7a42.71,42.71,0,0,1,4.1,4.4c.8,1.1,2.7-.4,1.9-1.5-1.1-1.5-2.3-3-3.4-4.5-.6.5-1.3,1-1.9,1.5a7.22,7.22,0,0,1,2.3,2.6,1.21,1.21,0,0,0,2.1-1.2c-.5-.9-1-1.7-1.4-2.6-.6.5-1.3,1-1.9,1.5a13.62,13.62,0,0,1,3.4,6.5c.7-.3,1.5-.6,2.2-.9-.5-1-1.1-2-1.6-3-.6.5-1.3,1-1.9,1.5a35.66,35.66,0,0,1,5,7.2c.6-.5,1.3-1,1.9-1.5a23.71,23.71,0,0,1-3.2-3.9c-.6.5-1.3,1-1.9,1.5a50.36,50.36,0,0,1,6.1,7.7c.6-.5,1.3-1,1.9-1.5a40.1,40.1,0,0,1-3.1-4.1c-.6.5-1.3,1-1.9,1.5a53.86,53.86,0,0,1,5.9,5.8l1.7-1.7c-.9-1-1.9-1.9-2.8-2.9l-1.7,1.7c1.9,1.9,3.8,3.9,5.8,5.8.5-.6,1-1.3,1.5-1.9l-2.5-1.9c-1.1-.8-2.5,1-1.5,1.9.7.5,1.3,1,2,1.6a1.2,1.2,0,0,0,1.7-1.7,10,10,0,0,0-1-1.1L95.9,126c.5.6,1.1,1.2,1.6,1.8,1,1.2,2.7-.5,1.7-1.7-.5-.6-1.1-1.2-1.6-1.8-1-1.2-2.7.5-1.7,1.7a10,10,0,0,0,1,1.1l1.7-1.7c-.7-.5-1.3-1-2-1.6-.5.6-1,1.3-1.5,1.9l2.5,1.9c1.1.8,2.4-.9,1.5-1.9-1.9-1.9-3.8-3.9-5.8-5.8a1.2,1.2,0,0,0-1.7,1.7c.9,1,1.9,1.9,2.8,2.9,1.1,1.1,2.7-.5,1.7-1.7a46.25,46.25,0,0,0-5.9-5.8c-1-.8-2.7.3-1.9,1.5,1.1,1.6,2.3,3.1,3.5,4.6.9,1,2.6-.3,1.9-1.5a50.92,50.92,0,0,0-6.5-8.2c-.9-.9-2.7.3-1.9,1.5a38.33,38.33,0,0,0,3.6,4.4c1,1,2.5-.3,1.9-1.5a37.35,37.35,0,0,0-5.4-7.6c-.9-1-2.5.3-1.9,1.5.5,1,1.1,2,1.6,3a1.2,1.2,0,0,0,2.2-.9,16,16,0,0,0-4-7.6c-.9-1-2.5.3-1.9,1.5.5.9,1,1.7,1.4,2.6l2.1-1.2a10.09,10.09,0,0,0-2.7-3.1c-1-.8-2.8.3-1.9,1.5,1.1,1.5,2.3,3,3.4,4.5.6-.5,1.3-1,1.9-1.5a42.71,42.71,0,0,0-4.1-4.4l-1.7,1.7a15.42,15.42,0,0,1,3.3,4.3c.7,1.3,2.4.3,2.2-.9-.8-5-5.7-5.2-9.9-5.1v2.4a9.53,9.53,0,0,1,4.1.3l.3-2.4H72.5a1.23,1.23,0,0,0-.3,2.4,17.68,17.68,0,0,0,5.1.5,1.2,1.2,0,0,0,0-2.4l-7.2-.3a1.23,1.23,0,0,0-.3,2.4,5.8,5.8,0,0,0,3.9-.3c1.2-.4,1.1-2.4-.3-2.4-3,.2-6,.3-9,.5a1.2,1.2,0,0,0,0,2.4c1.4.1,2.9.1,4.3.2V107c-2.3.1-4.5.3-6.8.4a1.2,1.2,0,0,0,0,2.4c1.3.2,2.7.3,4,.5v-2.4q-3,0-6,.3l.3,2.4c.7,0,1.4-.1,2.1-.1l-.3-2.4a18.72,18.72,0,0,0-6.9,3.8c.6.5,1.3,1,1.9,1.5,1-.8,2-1.5,3-2.3-.3-.7-.6-1.5-.9-2.2a22.53,22.53,0,0,0-5.2,4c-1,1,.3,2.4,1.5,1.9.7-.1,1.3-.3,2-.4l-.3-2.4a7.39,7.39,0,0,0-5.7,4.7c-.5,1,.5,2.3,1.6,1.6a17,17,0,0,0,3.8-3.3c1-1.2-.6-2.8-1.7-1.7a39.26,39.26,0,0,0-5,6.4c-.8,1.3,1.3,2.5,2.1,1.2.7-1.1,1.4-2.2,2-3.2.8-1.3-1.2-2.5-2.1-1.2a26.29,26.29,0,0,0-3.7,8.4,1.2,1.2,0,0,0,2.2.9A12.38,12.38,0,0,0,52,122c.3-1.5-2-2.2-2.3-.6-.3,1.2-.6,2.3-.8,3.5a1.2,1.2,0,0,0,2.2.9A4.1,4.1,0,0,0,52,123c.1-1.4-1.9-1.5-2.4-.3-.8,2.3-1.6,4.6-2.4,7-.5,1.5,1.8,2.1,2.3.6.4-1,.8-2,1.2-3.1l-2.3-.6a4.82,4.82,0,0,0-.2,2.9,1.19,1.19,0,0,0,2.2.6,10.15,10.15,0,0,0,1.6-4.5,1.19,1.19,0,0,0-2.2-.6,10.07,10.07,0,0,0-1.1,4.2,1.19,1.19,0,0,0,2.2.6c.3-.5.6-1,.9-1.6-.7-.3-1.5-.6-2.2-.9a5.16,5.16,0,0,0,.6,4.2c.5,1.1,2.6-.1,1.9-1.4Z" transform="translate(-41.58 -104.88)"/><path class="cls-1" d="M100.3,126.8c.7-.3,1.4-.5,2.1-.8,1.4-.5.8-2.8-.6-2.3a15.52,15.52,0,0,0-2.1.4c.2.7.4,1.5.6,2.2.4-.2.9-.5,1.3-.7l-1.2-2.1c-1,.3-1.9.6-2.9.9.2.7.4,1.5.6,2.2,2.4-1.3,4.8-2.5,7.1-3.8-.5-.6-1-1.3-1.5-1.9-.6.5-1.2,1.1-1.8,1.6-1,.9.3,2.7,1.5,1.9,1.4-1.1,2.9-2.1,4.3-3.2,1.2-.9,0-3-1.2-2.1l-2.4,1.8c.5.6,1,1.3,1.5,1.9l6.4-5.2-1.7-1.7a11,11,0,0,0-1.1,1l1.7,1.7c1.8-2.3,3.5-4.7,5.3-7l-2.1-1.2c-.4.6-.8,1.3-1.2,1.9.7.3,1.5.6,2.2.9,1.6-8.7,20-4.3,25-1.5.3-.7.6-1.5.9-2.2a14.31,14.31,0,0,0-1.5-1.1c-.5.6-1,1.3-1.5,1.9a16.84,16.84,0,0,1,8.4,10.9l2.3-.6a33.85,33.85,0,0,0-2.6-6.2l-2.1,1.2c1,1.7,2.1,3.5,3.1,5.2.7,1.1,2.7.4,2.2-.9l-1.5-3.9c-.7.3-1.5.6-2.2.9a34,34,0,0,1,2.8,9.4l2.3-.6c-.3-1.2-.6-2.5-.9-3.7s-2.5-1-2.4.3c.2,1.9.5,3.8.7,5.7l2.4-.3c-.2-1.5-.5-3-.7-4.5l-2.3.6,1.2,4.5a1.19,1.19,0,0,0,2.3-.6c-.2-1.3-.5-2.6-.7-3.9l-2.3.6c.4,1.3.7,2.6,1.1,3.9a1.2,1.2,0,0,0,2.3,0,8.32,8.32,0,0,0-.2-5.4c-.5-1.4-2.7-.9-2.3.6a37.24,37.24,0,0,1,1.2,10.5,1.2,1.2,0,0,0,2.4,0,37.52,37.52,0,0,0-1.3-11.1l-2.3.6c.1,1.4.2,2.8.2,4.1h2.3c-.4-1.3-.7-2.6-1.1-3.9a1.19,1.19,0,0,0-2.3.6c.2,1.3.5,2.6.7,3.9l2.3-.6-1.2-4.5a1.19,1.19,0,0,0-2.3.6c.2,1.5.5,3,.7,4.5.2,1.3,2.5,1,2.4-.3-.2-1.9-.5-3.8-.7-5.7l-2.4.3c.3,1.2.6,2.5.9,3.7a1.19,1.19,0,0,0,2.3-.6,34.36,34.36,0,0,0-3-9.9c-.6-1.2-2.7-.3-2.2.9l1.5,3.9c.7-.3,1.5-.6,2.2-.9-1-1.7-2.1-3.5-3.1-5.2a1.21,1.21,0,0,0-2.1,1.2,30.47,30.47,0,0,1,2.4,5.6,1.19,1.19,0,0,0,2.3-.6,19,19,0,0,0-9.5-12.3c-1.2-.7-2.3.9-1.5,1.9a4.3,4.3,0,0,0,2.6,1.8c1.3.5,2.1-1.5.9-2.2-5.4-3-11.8-3.7-18-3.7-4.8,0-9.6,1.4-10.6,6.6a1.2,1.2,0,0,0,2.2.9c.4-.6.8-1.3,1.2-1.9.9-1.3-1.2-2.4-2.1-1.2-1.6,2.2-3.2,4.4-4.9,6.6-.9,1.2.5,2.8,1.7,1.7a11,11,0,0,0,1.1-1c1.2-1-.5-2.7-1.7-1.7l-6.4,5.2c-1,.9.4,2.7,1.5,1.9l2.4-1.8-1.2-2.1c-1.4,1.1-2.9,2.1-4.3,3.2.5.6,1,1.3,1.5,1.9.6-.5,1.2-1.1,1.8-1.6,1-.9-.3-2.5-1.5-1.9-2.4,1.3-4.8,2.5-7.1,3.8a1.19,1.19,0,0,0,.6,2.2,8.49,8.49,0,0,0,4.1-1.2,1.21,1.21,0,0,0-1.2-2.1c-.4.2-.9.5-1.3.7a1.17,1.17,0,0,0,.6,2.2,5,5,0,0,0,2.7-.5c-.2-.8-.4-1.5-.6-2.3-.7.3-1.4.5-2.1.8-1.4.5-.8,2.9.7,2.3Z" transform="translate(-41.58 -104.88)"/><path class="cls-1" d="M119.4,109.7a7,7,0,0,0-1.1-2.3c-.1.5-.1,1-.2,1.5a3.26,3.26,0,0,0,.8-1.9c.1-.6-.6-1.2-1.2-1.2a1.29,1.29,0,0,0-1.2,1.2.35.35,0,0,0-.1.2,1.37,1.37,0,0,0-.2,1.5,3.81,3.81,0,0,1,.8,1.7c.5,1.4,2.8.8,2.4-.7Z" transform="translate(-41.58 -104.88)"/><path class="cls-1" d="M150,147.4c.7-2.5,1.4-5,2-7.5l-2.4-.3c.1,2.8.1,5.5.2,8.3a1.23,1.23,0,0,0,2.4.3,39.75,39.75,0,0,0,1.1-9.1c0-1.3-2.1-1.7-2.4-.3a19.58,19.58,0,0,0-.4,6.4,1.2,1.2,0,0,0,2.4,0c.1-2.5.1-5,.2-7.5a1.23,1.23,0,0,0-2.4-.3,9.6,9.6,0,0,0-.6,3.3l2.4-.3a9,9,0,0,1-.1-4,1.19,1.19,0,0,0-2.3-.6,4,4,0,0,0-.3,1.9,1.2,1.2,0,0,0,2.4,0v-3.4h-2.4v2.9l2.4-.3c-.2-.5-.3-.9-.5-1.4-.5-1.4-2.8-.8-2.3.6.1.2.1.5.2.7.5,1.5,2.8.8,2.3-.6-.1-.2-.1-.5-.2-.7l-2.3.6c.2.5.3.9.5,1.4.4,1.2,2.4,1.1,2.4-.3v-2.9a1.2,1.2,0,0,0-2.4,0v3.4h2.4c.1-.4.1-.8.2-1.2l-2.3-.6a13.51,13.51,0,0,0,.1,5.3c.3,1.4,2.3,1,2.4-.3a8.08,8.08,0,0,1,.5-2.7l-2.4-.3c-.1,2.5-.1,5-.2,7.5H153a15.56,15.56,0,0,1,.4-5.7l-2.4-.3a38.62,38.62,0,0,1-1,8.4l2.4.3c-.1-2.8-.1-5.5-.2-8.3a1.23,1.23,0,0,0-2.4-.3c-.7,2.5-1.4,5-2,7.5-.5,1.2,1.8,1.8,2.2.4Z" transform="translate(-41.58 -104.88)"/><path class="cls-1" d="M136.1,166.9a42.9,42.9,0,0,0-1.3-6,1.23,1.23,0,0,0-2.4.3,28.44,28.44,0,0,0,.5,5.1c.3,1.4,2.2.9,2.4-.3a21.76,21.76,0,0,0-.1-5.7,1.2,1.2,0,0,0-2.3,0,11.88,11.88,0,0,0,.2,5.3,1.19,1.19,0,0,0,2.3-.6,35.37,35.37,0,0,0-1.1-4.4,1.19,1.19,0,0,0-2.3.6c.2,1.5.4,2.9.7,4.4l2.3-.6c-.3-1.5-.6-2.9-.9-4.4a1.24,1.24,0,0,0-2.4.3v3.8l2.4-.3c-.2-.9-.3-1.9-.5-2.8-.2-1.3-2.5-1-2.4.3a29.19,29.19,0,0,0,.9,5c.3,1.1,2.1,1.2,2.3,0,.1-.6.2-1.1.3-1.7h-2.3a29.79,29.79,0,0,1,.9,4.3c.2,1.5,2.5.9,2.3-.6-.1-.7-.2-1.5-.3-2.2-.2-1.3-2.5-1-2.4.3.1,1.1.3,2.3.4,3.4.2,1.5,2.5,1.6,2.4,0a19.73,19.73,0,0,0-.4-3.5c-.2-1.3-2.5-1-2.4.3a22.54,22.54,0,0,0,.6,3.6c.3,1.5,2.6.9,2.3-.6-.2-.9-.3-1.8-.5-2.7a1.24,1.24,0,0,0-2.4.3,12.41,12.41,0,0,0,.3,2.7c.3,1.5,2.6.9,2.3-.6-.2-1.1-.5-2.2-.7-3.3-.3-1.4-2.3-1-2.4.3,0,1.1,0,2.3-.1,3.4a1.2,1.2,0,0,0,2.4,0c0-.8.1-1.6.1-2.4l-2.4.3a16.81,16.81,0,0,1,.9,3.2,1.19,1.19,0,0,0,2.3-.6,4.25,4.25,0,0,1-.2-1.1l-2.3.6a16.11,16.11,0,0,1,.6,4.4h2.4a16.35,16.35,0,0,1-.2-2.2c-.2-1.5-2.5-1.6-2.4,0,.1.7.1,1.4.2,2.2l2.4-.3c-.2-1.3-.5-2.5-.7-3.8-.3-1.5-2.6-.9-2.3.6.2,1.1.4,2.1.5,3.2.7-.3,1.5-.6,2.2-.9-.2-.6-.4-1.1-.6-1.7a1.19,1.19,0,0,0-2.3.6c.9,3.8,1.8,7.5,2.7,11.3a1.19,1.19,0,0,0,2.3-.6c-.5-2.4-1.1-4.7-1.6-7.1-.3-1.3-2.5-1-2.4.3a21.41,21.41,0,0,0,1.3,6.2,1.2,1.2,0,0,0,2.3,0c.1-.3,3-.4,3.5-.6a1.19,1.19,0,0,0-.6-2.3,4.18,4.18,0,0,0-3.2,1.9c-.8,1,.2,2.7,1.5,1.9a33.68,33.68,0,0,1,5.9-3.2c1.4-.6.8-2.9-.6-2.3-.9.4-1.9.7-2.8,1.1a1.19,1.19,0,0,0,.6,2.3,18.9,18.9,0,0,0,4.1-1,1.19,1.19,0,0,0-.6-2.3,13.55,13.55,0,0,0-4.3,1.8,1.21,1.21,0,0,0,1.2,2.1,25.88,25.88,0,0,1,7.1-2.4c1.5-.3.9-2.6-.6-2.3a29.14,29.14,0,0,0-7.7,2.6l1.2,2.1a8.59,8.59,0,0,1,3.8-1.6c-.2-.8-.4-1.5-.6-2.3a20.42,20.42,0,0,1-4.1,1c.2.8.4,1.5.6,2.3.9-.4,1.9-.7,2.8-1.1-.2-.8-.4-1.5-.6-2.3a33.58,33.58,0,0,0-6.5,3.4c.5.6,1,1.3,1.5,1.9.7-.4,1.5-.8,2.2-1.2-.2-.8-.4-1.5-.6-2.3-2.2.7-4.3-.4-5.2,2.3h2.3a17.51,17.51,0,0,1-1.2-5.6l-2.4.3c.5,2.4,1.1,4.7,1.6,7.1l2.3-.6c-.9-3.8-1.8-7.5-2.7-11.3l-2.3.6a8.49,8.49,0,0,0,.9,2.2c.7,1.3,2.4.3,2.2-.9s-.4-2.1-.5-3.2l-2.3.6c.2,1.3.5,2.5.7,3.8s2.5,1,2.4-.3c-.1-.7-.1-1.4-.2-2.2h-2.4a16.35,16.35,0,0,1,.2,2.2c.2,1.5,2.5,1.6,2.4,0a28.65,28.65,0,0,0-.7-5,1.19,1.19,0,0,0-2.3.6,4.25,4.25,0,0,1,.2,1.1l2.3-.6a16.81,16.81,0,0,0-.9-3.2,1.23,1.23,0,0,0-2.4.3c0,.8-.1,1.6-.1,2.4H135c0-1.1,0-2.3.1-3.4l-2.4.3c.2,1.1.5,2.2.7,3.3l2.3-.6a15,15,0,0,1-.2-2l-2.4.3c.2.9.3,1.8.5,2.7l2.3-.6c-.2-1-.3-2-.5-3l-2.4.3c.1,1,.2,1.9.3,2.9h2.4c-.1-1.1-.3-2.3-.4-3.4l-2.4.3c.1.7.2,1.5.3,2.2l2.3-.6a29.79,29.79,0,0,0-.9-4.3c-.3-1.1-2.1-1.2-2.3,0-.1.6-.2,1.1-.3,1.7h2.3a21.35,21.35,0,0,1-.8-4.4l-2.4.3c.2.9.3,1.9.5,2.8.2,1.3,2.4,1,2.4-.3V161l-2.4.3c.3,1.5.6,2.9.9,4.4s2.5.9,2.3-.6-.4-2.9-.7-4.4l-2.3.6c.4,1.5.8,2.9,1.1,4.4l2.3-.6c-.1-1.4-.2-2.7-.2-4.1h-2.3a16.76,16.76,0,0,1,0,5l2.4-.3a17.15,17.15,0,0,1-.4-4.5l-2.4.3a40,40,0,0,1,1.3,6,1.29,1.29,0,0,0,2.5-.6Z" transform="translate(-41.58 -104.88)"/><path class="cls-1" d="M134.3,156.2a2.84,2.84,0,0,1-.4,1.2,12.25,12.25,0,0,1,1.9-.2,5.46,5.46,0,0,1-1.3-2.5,1.2,1.2,0,0,0-2.3,0,7.72,7.72,0,0,0-.4,3.7c.6-.3,1.2-.7,1.8-1-.1-.1-.1-.2-.2-.3-.7.3-1.5.6-2.2.9a2.84,2.84,0,0,1,.4,1.2c.6-.5,1.2-.9,1.8-1.4-.1-.1-.2-.1-.3-.2a1.19,1.19,0,0,0-2,.8,7.41,7.41,0,0,0,.1,2.1l2.3-.6c-.2-.6-.4-1.2-.6-1.9a1.22,1.22,0,0,0-2.2-.3c-.1.3-.3.6-.4.9h2.1a5.73,5.73,0,0,1-.4-1.4c-.7.3-1.4.6-2,.8a10.38,10.38,0,0,1,1.2,1.7,1.19,1.19,0,0,0,2.2-.6,7.54,7.54,0,0,1,.9-2.9h-2.1c.6,1.5,1.1,3,1.6,4.6a1.23,1.23,0,0,0,2.4-.3,26.22,26.22,0,0,0-.1-5.6c-.7.3-1.5.6-2.2.9,1.2,1.9.2,4.3,1.9,6.1.6.6,1.9.4,2-.5a35.29,35.29,0,0,1,1.4-5.6l-2.4-.3c.2,1.5.3,2.9.5,4.4s2.5,1.6,2.4,0c-.1-1.4-.2-2.7-.3-4.1s-2.5-1.5-2.4,0,.2,2.7.3,4.1h2.4c-.2-1.5-.3-2.9-.5-4.4a1.23,1.23,0,0,0-2.4-.3,35.28,35.28,0,0,0-1.4,5.6,14.62,14.62,0,0,1,2-.5c-.7-.8-.6-2-.7-3a5.67,5.67,0,0,0-.8-2.6,1.2,1.2,0,0,0-2.2.9,20.91,20.91,0,0,1,0,5l2.4-.3a44,44,0,0,0-1.8-5.1,1.26,1.26,0,0,0-2.1,0,12.1,12.1,0,0,0-1.3,4.2l2.2-.6a17,17,0,0,0-1.5-2.2c-.6-.8-2.2-.2-2,.8a8.39,8.39,0,0,0,.7,2.6,1.22,1.22,0,0,0,2.1,0c.1-.3.3-.6.4-.9l-2.2-.3c.2.6.4,1.2.6,1.9a1.19,1.19,0,0,0,2.3-.6,3.3,3.3,0,0,1,0-1.4c-.7.3-1.4.6-2,.8a3.51,3.51,0,0,0,.8.5,1.24,1.24,0,0,0,1.8-1.4,4.49,4.49,0,0,0-.7-1.8,1.2,1.2,0,0,0-2.2.9,2.94,2.94,0,0,0,1.3,1.8,1.21,1.21,0,0,0,1.8-1,8.19,8.19,0,0,1,.3-3.1h-2.3a7.5,7.5,0,0,0,1.9,3.5,1.24,1.24,0,0,0,1.9-.2,5.46,5.46,0,0,0,.6-1.8c.2-1.6-2.1-2.2-2.4-.7Z" transform="translate(-41.58 -104.88)"/><path class="cls-1" d="M151.7,158.8c.3-2.6.6-5.3.9-7.9h-2.4c.1,1.8.3,3.6.4,5.3.1,1.5,2.5,1.6,2.4,0a42.83,42.83,0,0,1,.2-6.2h-2.4c.2,1.6.4,3.1.6,4.7s2.5,1.6,2.4,0c-.2-2.1-.4-4.2-.5-6.2a1.2,1.2,0,0,0-2.4,0,32.53,32.53,0,0,0,.3,4.4c.2,1.5,2.6,1.5,2.4,0-.2-1.9-.4-3.7-.6-5.6h-2.4c.2,1.5.4,2.9.6,4.4s2.5,1.6,2.4,0c-.2-2-.3-4.1-.5-6.1-.1-1.5-2.5-1.5-2.4,0,.2,2.6.3,5.2.5,7.8.1,1.5,2.5,1.6,2.4,0-.1-1.8-.2-3.7-.3-5.5a1.2,1.2,0,0,0-2.4,0,14.22,14.22,0,0,0,.5,3.6,1.23,1.23,0,0,0,2.4-.3,32.87,32.87,0,0,0-.5-5.4c-.2-1.3-2.4-1-2.4.3.1,4,.2,7.9.3,11.9l2.2-.6-.6-2.7-2.4.3a34.48,34.48,0,0,1,.7,7.2l2.4-.3c-.2-1.6-.4-3.1-.7-4.7l-2.3.6a57.83,57.83,0,0,1,1.2,5.7c.2,1.3,2.4,1,2.4-.3-.1-2.2-.2-4.5-.3-6.7l-2.4.3.9,5.1c.2,1.3,2.5,1,2.4-.3-.2-1.9-.5-3.8-.7-5.7-.2-1.5-2.4-1.6-2.4,0a38.29,38.29,0,0,0,.8,6.8c.3,1.3,2.5,1,2.4-.3-.4-3.2-.8-6.3-1.3-9.5-.2-1.5-2.6-1.5-2.4,0,.2,1.7.4,3.4.6,5.2.2,1.5,2.4,1.6,2.4,0a30.52,30.52,0,0,0-.6-6c-.3-1.5-2.6-.9-2.3.6a31.68,31.68,0,0,1,.5,5.3h2.4c-.2-1.7-.4-3.4-.6-5.2h-2.4c.4,3.2.8,6.3,1.3,9.5l2.4-.3a43.59,43.59,0,0,1-.7-6.2h-2.4c.2,1.9.5,3.8.7,5.7l2.4-.3-.9-5.1c-.2-1.3-2.4-1-2.4.3.1,2.2.2,4.5.3,6.7l2.4-.3a57.83,57.83,0,0,0-1.2-5.7c-.4-1.5-2.5-.8-2.3.6.2,1.6.4,3.1.7,4.7.2,1.4,2.4,1,2.4-.3a40.47,40.47,0,0,0-.8-7.8,1.24,1.24,0,0,0-2.4.3,13,13,0,0,0,.9,3.9c.5,1.1,2.3.5,2.2-.6-.1-4-.2-7.9-.3-11.9l-2.4.3a24.87,24.87,0,0,1,.4,4.7l2.4-.3a7.77,7.77,0,0,1-.4-3H151c.1,1.8.2,3.7.3,5.5h2.4c-.2-2.6-.3-5.2-.5-7.8h-2.4c.2,2,.3,4.1.5,6.1h2.4c-.2-1.5-.4-2.9-.6-4.4s-2.6-1.5-2.4,0c.2,1.9.4,3.7.6,5.6h2.4a32.53,32.53,0,0,1-.3-4.4H151c.2,2.1.4,4.2.5,6.2h2.4c-.2-1.6-.4-3.1-.6-4.7a1.2,1.2,0,0,0-2.4,0,42.83,42.83,0,0,0-.2,6.2h2.4c-.1-1.8-.3-3.6-.4-5.3a1.2,1.2,0,0,0-2.4,0c-.3,2.6-.6,5.3-.9,7.9-.3,1.7,2.1,1.7,2.3.2Z" transform="translate(-41.58 -104.88)"/><path class="cls-1" d="M147.7,179.3c1.3.1,2.6.2,3.9.2l-.3-2.4c-.5.1-1,.3-1.5.4.2.8.4,1.5.6,2.3,2-.6,6.1-.6,6.3-3.3.1-2-.7-4.6-1-6.6-.4-2.5-.8-5-1.1-7.5l-2.3.6a28.12,28.12,0,0,1,.5,9.6c-.2,1.5,2.2,1.5,2.4,0a29.13,29.13,0,0,0-.6-10.2,1.19,1.19,0,0,0-2.3.6c.5,3.1,1,6.2,1.4,9.4.2,1.2.9,3,0,3.9-.6.6-3.1.8-4,1.1a1.19,1.19,0,0,0,.6,2.3c.5-.1,1-.3,1.5-.4a1.24,1.24,0,0,0-.3-2.4c-1.3,0-2.6-.1-3.9-.2-1.4.1-1.4,2.5.1,2.6Z" transform="translate(-41.58 -104.88)"/><path class="cls-1" d="M154.7,177.1a1,1,0,0,1,.9.6c.6-.5,1.3-1,1.9-1.5l-1.8-1.5a1.2,1.2,0,0,0-1.7,1.7l1.8,1.5a1.23,1.23,0,0,0,1.9-1.5,3.26,3.26,0,0,0-3-1.8c-1.5.1-1.5,2.5,0,2.5Z" transform="translate(-41.58 -104.88)"/><path class="cls-1" d="M117.5,251.5c1.5,3.5,2.7,7.2,4.4,10.5,1.4,2.8,3.2,3.7,5.5,5.7a14.62,14.62,0,0,0,.5-2l-3,.6a1.2,1.2,0,0,0,0,2.4c1.6.2,3.2.4,4.8.5l-.3-2.4c-1.2.3-2.4.6-3.6.8.2.8.4,1.5.6,2.3a31.07,31.07,0,0,0,3.2-.4c-.2-.7-.4-1.5-.6-2.2a8.27,8.27,0,0,0-1.3.7,1.19,1.19,0,0,0,.6,2.2,5.34,5.34,0,0,0,2.2-.3,1.26,1.26,0,0,0,.7-1.8c-.7-1.6-1.4-3.1-2.1-4.6a1.2,1.2,0,0,0-2.2.9c.1.5.2,1,.3,1.6l2.4-.3a73.67,73.67,0,0,0-2-8.1,1.19,1.19,0,0,0-2.3.6,58.31,58.31,0,0,0,2.5,7c.5,1.1,2.4.6,2.2-.6a52.77,52.77,0,0,0-1.3-6.7c-.4-1.5-2.5-.8-2.3.6s.4,2.6.6,4l2.3-.6a90,90,0,0,1-1.6-10.4c-.2-1.5-2.5-1.5-2.4,0l.6,6c.1,1.5,2.5,1.6,2.4,0-.2-3.3-.6-6.5-1.1-9.8-.3-1.5-2.5-.9-2.3.6l.9,6c.2,1.3,2.5,1,2.4-.3-.3-2.2-.4-4.3-.5-6.5l-2.4.3c.6,3.7,1.3,7.4,1.9,11.2.2,1.3,2.5,1,2.4-.3-.7-6.2-1.3-12.5-2-18.7-.2-1.5-2.6-1.5-2.4,0,.7,6.2,1.3,12.5,2,18.7l2.4-.3c-.6-3.7-1.3-7.4-1.9-11.2-.2-1.3-2.4-1-2.4.3.1,2.2.2,4.3.5,6.5l2.4-.3-.9-6-2.3.6c.5,3,.9,6.1,1.1,9.1h2.4l-.6-6h-2.4c.4,3.7,1,7.4,1.7,11,.3,1.5,2.5.9,2.3-.6-.2-1.3-.4-2.6-.6-4l-2.3.6a30.38,30.38,0,0,1,1.2,6l2.2-.6a49.7,49.7,0,0,1-2.2-6.5l-2.3.6a45.65,45.65,0,0,1,2,8.1c.2,1.3,2.4,1,2.4-.3a4.13,4.13,0,0,0-.4-2.2c-.7.3-1.5.6-2.2.9.7,1.5,1.5,3.1,2.1,4.6.2-.6.5-1.2.7-1.8-.5.1-1.1.1-1.6.2.2.7.4,1.5.6,2.2a8.27,8.27,0,0,0,1.3-.7,1.19,1.19,0,0,0-.6-2.2,10.39,10.39,0,0,0-3.9.4,1.19,1.19,0,0,0,.6,2.3c1.2-.3,2.4-.6,3.6-.8,1.4-.3.9-2.2-.3-2.4-1.6-.2-3.2-.4-4.8-.5v2.4a9.71,9.71,0,0,0,3.7-.7,1.2,1.2,0,0,0,.5-2c-1.9-1.7-3.8-3-5.1-5.2-1.7-3.1-2.8-6.7-4.2-10-.6-.7-3-.1-2.4,1.3Z" transform="translate(-41.58 -104.88)"/><path class="cls-1" d="M127.8,167.6a43.87,43.87,0,0,0,2.9-6.2,1.2,1.2,0,0,0-2.2-.9,42.64,42.64,0,0,0-2.8,7.8c-.4,1.5,1.7,2,2.3.6.9-2.3,1.9-4.6,2.8-6.8l-2.3-.6a31.09,31.09,0,0,0-1.4,6.2c-.1,1.3,1.7,1.5,2.2.6a16,16,0,0,0,2-4.4l-2.4-.3c-.1.8-.2,1.5-.3,2.3-.2,1.4,2,1.6,2.4.3s.7-2.4,1.1-3.6a1.2,1.2,0,0,0-2.2-.9c-.2.4-.5.7-.7,1.1.7.3,1.5.6,2.2.9.2-1.4.5-2.8.7-4.3.2-1.2-1.6-2.3-2.2-.9a32.56,32.56,0,0,0-2.6,8h2.3c0-.5-.1-1.1-.1-1.6.3-1.5-2-2.2-2.3-.6-.5,2.5-1,4.9-1.5,7.4a1.19,1.19,0,0,0,2.3.6c.4-1.5.8-2.9,1.2-4.4a1.19,1.19,0,0,0-2.3-.6,27.67,27.67,0,0,0-1.1,6.4c-.1,1.4,2,1.6,2.4.3l1.5-5.4h-2.3a11.86,11.86,0,0,1,0,4.6c-.2,1.4,2,1.6,2.4.3.4-1.7.9-3.4,1.3-5.1l-2.3-.6c-.2,1.4-.5,2.7-.7,4.1l2.4.3c.1-2.1.2-4.2.3-6.4a1.23,1.23,0,0,0-2.4-.3,114.27,114.27,0,0,0-2.3,18.4c-.1,1.6,2.2,1.5,2.4,0,.4-3.4.8-6.8,1.2-10.3.2-1.3-2.1-1.7-2.4-.3a53.88,53.88,0,0,0-.7,9.8,1.23,1.23,0,0,0,2.4.3,47.09,47.09,0,0,0,1.7-9.1c.1-1.5-2.2-1.5-2.4,0l-2.4,22.2h2.4c.2-3,.4-6,.5-9h-2.4c0,3.9.2,7.7.4,11.5l2.4-.3c-.1-.8-.2-1.7-.3-2.5-.2-1.3-2-1-2.3,0a9,9,0,0,0-.5,4.3,1.2,1.2,0,0,0,2.4,0c.1-2,.2-3.9.3-5.9h-2.4a88.09,88.09,0,0,0,.1,8.9,1.2,1.2,0,0,0,2.4,0v-3.6a1.2,1.2,0,0,0-2.4,0v3.6h2.4a88.09,88.09,0,0,1-.1-8.9c.1-1.5-2.3-1.5-2.4,0-.1,2-.2,3.9-.3,5.9h2.4a5.88,5.88,0,0,1,.4-3.7h-2.3c.1.8.2,1.7.3,2.5.2,1.3,2.5,1,2.4-.3-.3-3.8-.4-7.7-.4-11.5a1.2,1.2,0,0,0-2.4,0c-.2,3-.4,6-.5,9-.1,1.6,2.2,1.5,2.4,0l2.4-22.2h-2.4a47.9,47.9,0,0,1-1.6,8.4l2.4.3a47.43,47.43,0,0,1,.6-9.2l-2.4-.3c-.4,3.4-.8,6.8-1.2,10.3h2.4a115.71,115.71,0,0,1,2.2-17.7l-2.4-.3c-.1,2.1-.2,4.2-.3,6.4a1.23,1.23,0,0,0,2.4.3c.2-1.4.5-2.7.7-4.1a1.19,1.19,0,1,0-2.3-.6c-.4,1.7-.9,3.4-1.3,5.1l2.4.3a18.83,18.83,0,0,0-.1-5.3c-.2-1.2-2-1.1-2.3,0l-1.5,5.4,2.4.3a22.88,22.88,0,0,1,1.1-5.8l-2.3-.6c-.4,1.5-.8,2.9-1.2,4.4l2.3.6c.5-2.5,1-4.9,1.5-7.4l-2.3-.6a4.79,4.79,0,0,0,.1,2.9c.3,1.1,2.1,1.2,2.3,0a26.74,26.74,0,0,1,2.4-7.4c-.7-.3-1.5-.6-2.2-.9-.2,1.4-.5,2.8-.7,4.3a1.2,1.2,0,0,0,2.2.9c.2-.4.5-.7.7-1.1-.7-.3-1.5-.6-2.2-.9-.4,1.2-.7,2.4-1.1,3.6l2.4.3c.1-.8.2-1.5.3-2.3.2-1.4-2-1.6-2.4-.3a10.09,10.09,0,0,1-1.7,3.8l2.2.6a21,21,0,0,1,1.3-5.5c.5-1.5-1.7-2-2.3-.6-.9,2.3-1.9,4.6-2.8,6.8l2.3.6a39.76,39.76,0,0,1,2.6-7.3c-.7-.3-1.5-.6-2.2-.9a36.14,36.14,0,0,1-2.7,5.6,1.06,1.06,0,1,0,1.7,1.2Z" transform="translate(-41.58 -104.88)"/><path class="cls-1" d="M129.2,202.1c.3-2.1.7-4.2.8-6.3.1-1.2-.6-2.5-2-2.2a1.19,1.19,0,0,0,.6,2.3c.1,0,.1,0,.2-.1l-1.2-.3c.1.1-.4,2.3-.4,2.7-.1,1.1-.3,2.1-.4,3.2-.2,1.5,2.1,2.2,2.4.7Z" transform="translate(-41.58 -104.88)"/><path class="cls-1" d="M123.4,234.1c.2,1.3.5,2.7.7,4,.7-.3,1.5-.6,2.2-.9a5.07,5.07,0,0,1-.2-1.3l-2.4-.3c.1,1.4.2,2.9.3,4.3a1.2,1.2,0,0,0,2.4,0c.1-.9.2-1.9.3-2.8h-2.4c.1,1.3.2,2.6.4,3.8a1.2,1.2,0,0,0,2.4,0,26.73,26.73,0,0,0,.1-4h-2.4c.1.9.1,1.8.2,2.7h2.4a10.63,10.63,0,0,1-.1-3.1l-2.4.3c0,.8-.1,1.6-.1,2.4l2.4.3c.6-13,1.3-25.9,2.2-38.9.1-1.5-2.3-1.5-2.4,0-.9,12.9-1.7,25.9-2.2,38.9-.1,1.3,2.1,1.6,2.4.3a6.63,6.63,0,0,0,.1-3.7c-.2-1.4-2.3-1-2.4.3a16.33,16.33,0,0,0,.1,3.1c.2,1.5,2.5,1.6,2.4,0-.1-.9-.1-1.8-.2-2.7-.1-1.5-2.5-1.6-2.4,0a26.73,26.73,0,0,1-.1,4h2.4c-.1-1.3-.2-2.6-.4-3.8a1.2,1.2,0,0,0-2.4,0c-.1.9-.2,1.9-.3,2.8h2.4c-.1-1.4-.2-2.9-.3-4.3s-2.2-1.7-2.4-.3a3.8,3.8,0,0,0,.5,3.1c.7,1.3,2.4.3,2.2-.9s-.5-2.7-.7-4c-.3-1.5-2.6-.9-2.3.7Z" transform="translate(-41.58 -104.88)"/><path class="cls-1" d="M125.3,234.2c.1-1.2.1-2.4.2-3.6l-2.4-.3a31.54,31.54,0,0,1-.5,10.6l2.2-.3c-1.2-2.8.4-7.4.9-10.3s1.1-5.9,1.8-8.9l-2.3-.6a60.25,60.25,0,0,0-1.2,10.4h2.4a97.39,97.39,0,0,1,.3-10.8c.1-1.4-2.1-1.6-2.4-.3a33.14,33.14,0,0,0-.8,5.5c-.1,1.5,2.3,1.5,2.4,0a26.48,26.48,0,0,1,.7-4.8l-2.4-.3a97.39,97.39,0,0,0-.3,10.8,1.2,1.2,0,0,0,2.4,0,54.48,54.48,0,0,1,1.1-9.8c.3-1.5-2-2.2-2.3-.6-.9,4.2-1.7,8.4-2.3,12.6-.4,2.8-1.3,5.8-.1,8.4a1.22,1.22,0,0,0,2.2-.3,35.06,35.06,0,0,0,.6-11.2,1.23,1.23,0,0,0-2.4-.3,11.53,11.53,0,0,0-.2,4.9c.3,1.4,2.6.7,2.4-.8Z" transform="translate(-41.58 -104.88)"/><path class="cls-1" d="M70.9,265.9c1.5.5,2.9,1,4.4,1.5.2-.8.4-1.5.6-2.3a11.36,11.36,0,0,0-4.5,0,1.17,1.17,0,0,0-.5,2,5.44,5.44,0,0,0,4.4,1.5,1.23,1.23,0,0,0,.3-2.4,5,5,0,0,0-3.4-.2,1.19,1.19,0,0,0-.6,2.2,7.62,7.62,0,0,0,2.9,1.3c1.3.4,2.2-1.6.9-2.2a9,9,0,0,0-4.2-1c-1.6,0-1.5,2.2,0,2.4,1.8.2,3.6.5,5.5.7l-.3-2.4c-.6.2-1.1.5-1.7.7-1.1.5-1.2,2.5.3,2.4,3.6-.3,7.1-.6,10.7-1l-.3-2.4c-1.4.1-2.8.3-4.1.4l-.3,2.4c3.8-.4,7.5-.7,11.3-1.1a1.2,1.2,0,0,0,0-2.4,21.54,21.54,0,0,0-7.6.5c-1.4.3-1,2.3.3,2.4a63.79,63.79,0,0,0,10.7-.3l-.3-2.4a6.4,6.4,0,0,1-4.5.7v2.4a17,17,0,0,1,3.9.2l.3-2.4c-1,.1-2,.1-3.1.2-1.5.1-1.6,2.5,0,2.4,11-.5,22-.9,32.9.4,1.4.2,1.6-2,.3-2.4-4.6-1.4-9.2-2.5-13.6.2-1,.6-.6,2.4.6,2.2.8-.1,1.6-.1,2.4-.2,1.5-.1,1.5-2.5,0-2.4-.8.1-1.6.1-2.4.2.2.7.4,1.5.6,2.2,3.7-2.3,7.8-1.1,11.7.1l.3-2.4c-11-1.3-21.9-.9-32.9-.4v2.4c1-.1,2-.1,3.1-.2s1.7-2.2.3-2.4a34,34,0,0,0-4.5-.3,1.2,1.2,0,0,0,0,2.4,9.38,9.38,0,0,0,5.2-.8c1.1-.4,1.1-2.5-.3-2.4a63.79,63.79,0,0,1-10.7.3l.3,2.4a18,18,0,0,1,6.9-.4v-2.4c-3.8.4-7.5.7-11.3,1.1-1.2.1-1.8,2.1-.3,2.4a9.92,9.92,0,0,0,5.4-.4c1.2-.4,1.1-2.5-.3-2.4-3.6.3-7.1.6-10.7,1l.3,2.4c.6-.2,1.1-.5,1.7-.7a1.23,1.23,0,0,0-.3-2.4c-1.8-.2-3.6-.5-5.5-.7v2.4l3,.6c.3-.7.6-1.5.9-2.2-.8-.4-1.5-.7-2.3-1.1-.2.7-.4,1.5-.6,2.2.9,0,1.8.1,2.8.1l.3-2.4a27.58,27.58,0,0,0-2.7-.8,14.62,14.62,0,0,0-.5,2h3.3a1.19,1.19,0,0,0,.6-2.3c-1.5-.5-2.9-1-4.4-1.5-1.5,0-2.1,2.3-.7,2.8Z" transform="translate(-41.58 -104.88)"/><path class="cls-1" d="M115.4,267.9a2.65,2.65,0,0,0,2.5,1.5l-.3-2.4a4.68,4.68,0,0,1-1.7.2l.3,2.4c1.7-.4,3.7-.1,3.8-2.5s-2.3-3-3.5-4.7c-.5.6-.9,1.2-1.4,1.8a24.15,24.15,0,0,0,5.9,1.4,1.18,1.18,0,0,0,1-1.8,6.29,6.29,0,0,0-2.7-2.4c-.3.7-.6,1.5-.9,2.2,1.6.5,3.3,1,4.9,1.5a1.21,1.21,0,0,0,1.2-2,4.25,4.25,0,0,0-3-1.4,1.15,1.15,0,0,0-1,1.8c.3.5.7.9,1,1.4s.4,1,.6.6l1.2-.9a16,16,0,0,1-3-.3c-1.2-.2-1.6,1.7-.6,2.2a18,18,0,0,0,5.1,1.7l.3-2.4a11.48,11.48,0,0,1-3.7-.6l-.3,2.4c1.7,0,3.3.1,5,.1,1.1,0,1.7-1.8.6-2.2s-1.9-.8-2.9-1.2c-.2.7-.4,1.5-.6,2.2a9.7,9.7,0,0,0,1.7-.1,1.18,1.18,0,0,0,1-1.8,3.56,3.56,0,0,0-1.4-1.6c-.3.7-.6,1.5-.9,2.2.3.1.6.1.9.2,1.5.3,2.1-2,.6-2.3-.3-.1-.6-.1-.9-.2a1.2,1.2,0,0,0-.9,2.2c.2.2.3.5.5.7.3-.6.7-1.2,1-1.8a9.7,9.7,0,0,0-1.7.1c-1.1,0-1.8,1.7-.6,2.2,1,.4,1.9.8,2.9,1.2.2-.7.4-1.5.6-2.2-1.7,0-3.3-.1-5-.1-1.4,0-1.5,1.9-.3,2.4a12.51,12.51,0,0,0,4.3.7c1.3,0,1.7-2.1.3-2.4a18.06,18.06,0,0,1-4.5-1.4c-.2.7-.4,1.5-.6,2.2a15.26,15.26,0,0,0,3,.3,1.29,1.29,0,0,0,1.2-.9c.5-1.4-1.1-2.8-1.9-3.8-.3.6-.7,1.2-1,1.8.4.2.9.5,1.3.7.4-.7.8-1.3,1.2-2-1.6-.5-3.3-1-4.9-1.5a1.2,1.2,0,0,0-.9,2.2,4,4,0,0,1,1.8,1.6c.3-.6.7-1.2,1-1.8a24.16,24.16,0,0,1-5.3-1.3c-1-.4-1.9.9-1.4,1.8a6.17,6.17,0,0,0,1.8,1.8c.4.3,1.7,1,.7,1.7-.1.1-1.3.1-1.5.2a1.24,1.24,0,0,0,.3,2.4,9.08,9.08,0,0,0,2.3-.3,1.24,1.24,0,0,0-.3-2.4c-.1-.1-.3-.2-.4-.3-.5-1.6-2.5-.4-1.8,1Z" transform="translate(-41.58 -104.88)"/><path class="cls-1" d="M102.4,147.2l-.3-1.2c.1.9.1,1.1.1.4,0,.3-.1.6-.1.9a5.07,5.07,0,0,1-.9,1.6c-1.1.4-2.1.9-3.2,1.3-2,.3-3.8-1.5-4.1-3.3a2.85,2.85,0,0,1,0-1.3c-.2.5-.1.5.1,0s.2-.5,0-.1-.2.4.1-.1a4.37,4.37,0,0,1,2.4-1.3,3.78,3.78,0,0,1,2.7.5c3.4,3.7,3.1,6.6-1.1,8.8a5.92,5.92,0,0,0,3.6-2.8,5.75,5.75,0,0,0,.6-4.6,6.23,6.23,0,0,0-7.4-4.2c-3.1.5-5.3,3.8-5.3,6.8a7.17,7.17,0,0,0,3.8,6.4,7.68,7.68,0,0,0,8-.4,10.57,10.57,0,0,0,4.1-5.8c1.6-5.6-2.6-11.4-8.6-10.6a7.91,7.91,0,0,0-6.3,5.5,10.35,10.35,0,0,0,.3,6.5c1,3,4.2,5.2,7.4,4.2,2.9-.8,5.2-4,4.1-7.2Z" transform="translate(-41.58 -104.88)"/><path class="cls-1" d="M75.7,137.8l-.9,8.4H68.7c.3.1.5.3.8.4-.9-1.2-1.8-2.4-2.8-3.6,1.1,1.9,2.2,3.9,3.4,5.8l-4.2,1.8c-3.4-1.8-4-2.9-1.7-3.5,1.9,1.5,3.9,2.9,5.8,4.4-.6.3-1.1.5-1.7.8-3.3-1.9-6.7-3.9-10-5.8.5,2.1,1,4.2,1.6,6.3-1.4-2.5-2.8-4.9-4.2-7.4.7,2,1.4,3.9,2.1,5.9-2.3-.9-4.5-1.8-6.8-2.8.4-.9.8-1.9,1.2-2.8l5.8,1.5c-.2-.2-.3-.4-.5-.6l1.8,4.2c-.1-1.6.8-2.6,1.9-3.6L51,143a1.11,1.11,0,0,1-.5,1.4c3.3.9,6.7,1.8,10,2.6-.5-1.5-.9-2.6.3-3.9-3.3-.9-6.7-1.8-10-2.6,0,.4.1.8.1,1.1l1.8-4.2,1.2-.6,4.6.6c-.2-.1-.5-.3-.7-.4.9,1.2,1.8,2.4,2.8,3.6a6.15,6.15,0,0,1,1.6-2c-3.3-.9-6.7-1.8-10-2.6l.6-.9,4.6-.6c-.3-.1-.7-.2-1-.3l4.2,4.2c-.3-.8.6-1.8,1.3-2.1l-7.6-5.8a1.57,1.57,0,0,1-1.1,1c2.7.7,5.5,1.4,8.2,2.2-.6-1.4,1.2-2.2,2-2.6-2.4-3.1-4.8-6.3-7.3-9.4-.7.9-.9,1.2-.6.7l4.6.6-.6-.3c1,1.7,2,3.5,3,5.2a3.86,3.86,0,0,0,1.1-1.7c3.2-5.8-4.7-12.5-9.4-7.3l-3.4,3.7c3.1,2.4,6.3,4.8,9.4,7.3a12.87,12.87,0,0,1,6.5-6.3c7-2.8,4.5-13.5-3.2-11.6a57.42,57.42,0,0,0-8,2.6c2.3,2.9,4.5,5.9,6.8,8.8,2.5-5.3,13.3-3.2,16.3.4l8.5-8.5c-2-2.4-4-4.7-6-7.1-4.4-5.2-13.3,1.7-9.4,7.3,5,7.2,8.4,15.3,13.4,22.4,3.1-2.4,6.3-4.8,9.4-7.3a46.74,46.74,0,0,1-5.5-8.4c-3.1,2.4-6.3,4.8-9.4,7.3a57.83,57.83,0,0,1,10.8,13.8c3.8,6.7,14,.7,10.4-6.1-2.8-5.2-5.6-10.3-8.4-15.5-3.5,2-6.9,4-10.4,6.1,3.9,5.1,8,10.1,12.1,15,4.4,5.2,13-1.5,9.4-7.3A127.45,127.45,0,0,0,91,118.8l-8.5,8.5a64.69,64.69,0,0,1,15,16.7c2.3-2.9,4.5-5.9,6.8-8.8-4.6-1.8-9.1-3.6-13.6-5.4-3.1-1.3-8.7-2.7-10.9-5.5-3.1,2.4-6.3,4.8-9.4,7.3a6.87,6.87,0,0,1,1.9,1.9,5,5,0,0,1,.6,2.4c3.5-1.3,4.4-2.3,2.7-3.1a6.12,6.12,0,0,1-1.5-1.7c0-2.2-1.6-3.4-5-3.5a9,9,0,0,1-1.5,1.9,6,6,0,0,1-2.2,1.6c-2.1.6-1.5,1,1.7,1.2l1.8,4.2c.4-3.8,4.7-7.6,7.4-9.8l-10.2-4.2a6.61,6.61,0,0,1-.3,3.4l-.6.9c-1.2.9-1,1.1.7.5,1.2.9,2.4,1.8,3.6,2.8-1.4,3.7-1,4.8,1.3,3.4.5-.1,1-.3,1.5-.4a9,9,0,0,1,2.8-.4q-1.35-1.65-.9,0c-1.1,2.4,1.6,7.8-1,10l4.2-1.8c-.5,0-.9-.1-1.4-.1l4.2,1.8c-.5.8-.9,1.6-1.4,2.3.3.4.6.7.9,1.1a28.26,28.26,0,0,1,1.1,3.1c.2,1.6.1,4.5-1.7,5.3l4.6-.6c1,1.1,1.2,1.2.8.1a14.62,14.62,0,0,1-.5-2c-1-3.1-.1,1.7-.1,1.5-.1.5-.1,1.1-.2,1.6-1.1,2.3.1,2.9,3.6,2,.4-.3-.5-1.6.5-2.2l-4.6.6c.3.1.6.1.9.2l-4.2-4.2c.9.6,1.9,1.2,2.8,1.8-3.7.5-7.3,1-11,1.4a3.36,3.36,0,0,1,.5,2.9c.9-1.2,1.8-2.4,2.8-3.6-.2.1-.4.3-.6.4l4.6-.6c1,.6,1.2.4.5-.7-3,1.7-6,3.5-9,5.2.9.5,1-.5.3,1.3,3.3-.9,6.7-1.8,10-2.6.2-.1.3-.1.5-.2H69.7c.6,4.3.9,8.5,1.1,12.8.2,6.4,10.6,8.6,11.8,1.6a32.47,32.47,0,0,1,2-7.4l-11.2-3c.1,4.6.3,9.2.4,13.7,3.9-.5,7.9-1.1,11.8-1.6a9.17,9.17,0,0,1,.6-6.3l-11.2-3a164,164,0,0,1-1.5,17.2c-.9,6.3,7.4,11.1,11,4.6,3.7-6.7,3.8-16,8.8-21.8l-10.2-4.2c.9,8.4-1.8,16.7-.9,25.1.6,6.1,10.7,8.9,11.8,1.6,1.3-8.9,2.7-17.9,7.4-25.8-3.7-.5-7.3-1-11-1.4,1.5,3.9-1.5,11-2.4,15-1.2,5.3-2.5,10.6-3.9,15.8,3.9,1.1,7.7,2.1,11.6,3.2,2.5-14,5.1-29.3,14.6-40.5-3.3-1.9-6.7-3.9-10-5.8-2.1,12.9-5.5,25.6-9,38.2,3.9.5,7.9,1.1,11.8,1.6a165.25,165.25,0,0,1,3.3-19.7c1.4-5.7,2.9-12.1,7.2-16.4-3.3-.9-6.7-1.8-10-2.6.8,3.3-1.5,9.1-2.3,12.4-.9,4-1.9,7.9-2.9,11.8-2.1,8.2-4.4,16.3-7,24.3,3.9.5,7.9,1.1,11.8,1.6.2-7.9,3.2-15.4,5.6-22.8,2.5-7.7,5.1-15.4,8.1-22.9-3.9-.5-7.9-1.1-11.8-1.6-.6,17.9-7.8,34.6-10.9,52.1,3.9.5,7.9,1.1,11.8,1.6a111.34,111.34,0,0,1,14.4-44.8l-11.2-3c-1.1,14.5-4.2,28.7-7.3,42.9,3.9.5,7.9,1.1,11.8,1.6a153.74,153.74,0,0,1,7.7-40.2c-3.9-.5-7.9-1.1-11.8-1.6-.6,8.3-1.4,16.5-2.7,24.7-1,6.5-3.9,14.3-1.7,20.8,1.8,5.2,10.3,6.2,11.6,0l7.8-36.6c-3.9-.5-7.9-1.1-11.8-1.6-1.3,12.1-2.6,24.2-4,36.3h12c1-10.2,2.1-20.3,3.1-30.5h-12c.1,10,.3,20,.4,30,.1,7.9,11.2,7.5,12,0,1.1-9.9,2.1-19.9,3.2-29.8h-12c0,7.2-.4,14.4-1,21.6h12c.5-7.8,1.1-15.6,1.6-23.3h-12c.4,5.6.8,11.2-.5,16.7,3.9.5,7.9,1.1,11.8,1.6a46.78,46.78,0,0,1,3.9-25.8c-3.7-1.5-7.3-3.1-11-4.6a22.16,22.16,0,0,1-4.5,10c3.3,1.9,6.7,3.9,10,5.8a76,76,0,0,1,8-20.4c-3.5-2-6.9-4-10.4-6.1-2.2,4.5-4.8,9.5-8.8,12.6l4.2-1.8h-1.1c1.7,1,3.5,2,5.2,3,1,1.8.8.7,1.5-.7a15.72,15.72,0,0,1,1.8-3.1,19.81,19.81,0,0,1,5.1-4.9l-8.2-8.2a49.11,49.11,0,0,1-5.7,6.3c-.8.8-1.6,1.5-2.5,2.3a15.58,15.58,0,0,1-2,1.6c-.9.6-1,.7-.2.3,1.7,1,3.5,2,5.2,3-.1,2.5.1,2.6.6.4.2-.5.3-1.1.5-1.6a37.63,37.63,0,0,1,2.3-5.5c.7-1.3,3.6-7.6,4.9-7.9l-7.4-7.4a22,22,0,0,1-2.6,4.5,8,8,0,0,1-1.5,1.7c-1.5,1.1-1.5,1.4,0,.8,1.7,1,3.5,2,5.2,3-.1-.3-.3-.6-.4-.9.2,1.5.4,3.1.6,4.6a4.7,4.7,0,0,1,1.5-2.5c.5-.5,2.6-1.2.9-1l-4.2-1.8.5.5-1.8-4.2c.2,2.6-4,.1,0,3.3,2.7,2.1,1.6.3,3.7-1.5,5.2-4.3-1.7-13.4-7.3-9.4-.8.6-2.4,1.1-2.9,1.7-1.4.3-1.2,1.2.8,2.8.1,2.1.8,2.9,2.1,2.5-1.9-3.3-3.9-6.7-5.8-10-.3,1-.8,1.2-1.5.7l4.2,1.8c-1.1,3.6-.7,4.7,1.1,3.2-2.9-2.3-5.9-4.5-8.8-6.8l-.3.9c.9-1.2,1.8-2.4,2.8-3.6.4-.1.8-.3,1.3-.4l4.2,1.8c.3,1.1.7,2.2,1,3.3-.9,1.2-1.8,2.4-2.8,3.6-1.1-.1-2.3-.1-3.4-.2-.4-3.1-.8-6.3-1.2-9.4a4.35,4.35,0,0,1-.7.6h6.1c-.3-.1-.5-.3-.8-.4,1,1.7,2,3.5,3,5.2v-.8L110,134c-.6.4-1.2.7-1.8,1.1L104,124.9c.6-.1,1.2-.2,1.9-.3l-4.2,10.2a28.2,28.2,0,0,0,9.9-2.4c7.1-3.1,1-13.4-6.1-10.4a8.38,8.38,0,0,1-3.8.8A6,6,0,0,0,97.5,133c4.2,4.5,10.7,4.3,15.1.3,4.2-3.9.5-9.7-4.2-10.2s-8.3,2.8-8.5,7.5a6,6,0,0,0,3,5.2c3.7,2,7.3,1.2,10-2,2.2-2.7,2.6-7.7-1.2-9.4-6-2.8-14.1,1.3-11.6,8.8,2.6,7.7,11.8,5.8,14.3-.6,2-5-4.6-9.3-8.8-6.8-5,3.1-8.8,8.9-4.7,14.5,3.9,5.4,11.8,3.1,15.5-1.2,3.8-4.5.2-11.5-5.8-10s-12,8.3-8.4,14.6c3.7,6.5,12.8,3.7,17.6.3-2.4-3.1-4.8-6.3-7.3-9.4-5,4.2-8.2,13.7-2.5,18.8,6.2,5.4,14.1-.4,17.5-6,4.1-6.9-.7-14.8-8.8-11.6-6.5,2.6-12.1,10-8.9,16.9.9,2,3.2,2.8,5.2,3,7.8.6,13.2-9.9,15.6-15.9,1.8-4.4-3.4-8.4-7.4-7.4-5.6,1.4-9.1,7.9-11.7,12.7-2.4,4.5-6,11.3-5,16.6,1.3,6.9,8.6,6.9,13.3,3.5a71.42,71.42,0,0,0,13.9-14.1c3.7-4.8-3.5-11.5-8.2-8.2-6.8,4.8-17.5,16.2-12.7,25.2a6.09,6.09,0,0,0,5.2,3c7.7-.1,13-10.8,16-16.8,3.4-6.9-6.5-12.8-10.4-6.1a85.8,85.8,0,0,0-9.2,23.2c-1.3,5.4,6,10.8,10,5.8a34.34,34.34,0,0,0,7.5-15.3c1.3-6.2-7.9-11.1-11-4.6a58.41,58.41,0,0,0-5.5,31.9c.7,6.2,10.1,8.8,11.8,1.6,1.5-6.6,1.4-13.1.9-19.9a6,6,0,0,0-12,0c-.5,7.8-1.1,15.6-1.6,23.3s11.4,7.6,12,0c.6-7.2.9-14.4,1-21.6,0-7.9-11.2-7.5-12,0-1.1,9.9-2.1,19.9-3.2,29.8h12c-.1-10-.3-20-.4-30-.1-7.9-11.2-7.5-12,0-1,10.2-2.1,20.3-3.1,30.5-.8,7.7,11.2,7.6,12,0,1.3-12.1,2.6-24.2,4-36.3.7-6.7-10.4-8.2-11.8-1.6l-7.8,36.6h11.6c-1-3,.4-6.6.9-9.6.6-3.5,1.1-7.1,1.6-10.7,1-7.3,1.8-14.7,2.3-22.1.5-7-9.8-7.8-11.8-1.6a168.88,168.88,0,0,0-8.1,43.4c-.4,6.7,10.3,8.2,11.8,1.6,3.3-15.2,6.5-30.5,7.7-46.1.5-6.1-8.4-8-11.2-3a125,125,0,0,0-16,50.8c-.6,6.7,10.6,8.3,11.8,1.6,3.3-18.6,10.6-36.3,11.3-55.3.3-7.2-9.5-7.5-11.8-1.6-3.2,8.2-6,16.4-8.7,24.8-2.6,7.9-5.2,15.7-5.4,24.1-.2,6.9,9.8,7.9,11.8,1.6,2.9-9.2,5.6-18.5,7.9-27.9,1.1-4.5,2.2-9.1,3.2-13.7s2.2-8.8,1.1-13.3a6,6,0,0,0-10-2.6c-10.9,11.2-12.1,29.9-14,44.6-.9,6.8,10,7.9,11.8,1.6,3.5-12.6,6.9-25.2,9-38.2.9-5.3-5.7-10.9-10-5.8C90.6,157,87,173.3,84,189.7c-1.3,7.5,9.6,10.8,11.6,3.2q2.55-9.75,4.8-19.5c1.2-5.5,3.7-12.1,1.6-17.6-1.8-4.7-8.1-6.1-11-1.4-5.3,8.8-7.1,18.6-8.6,28.6,3.9.5,7.9,1.1,11.8,1.6-.9-8.4,1.8-16.7.9-25.1-.5-4.6-6.5-8.6-10.2-4.2-6.2,7.2-6.2,16.3-10.6,24.3,3.7,1.5,7.3,3.1,11,4.6a201.17,201.17,0,0,0,2-20.4c.2-5.7-8.6-8.5-11.2-3a23.09,23.09,0,0,0-1.8,15.5c1.5,6.6,12,5.2,11.8-1.6-.1-4.6-.3-9.2-.4-13.7-.2-5.4-8.7-8.9-11.2-3a45.62,45.62,0,0,0-3.2,10.3c3.9.5,7.9,1.1,11.8,1.6-.2-5.4-.8-10.7-1.5-16-.9-6.5-9.8-4.9-11.6,0-1.6,4.4-.3,8.4,2.6,11.8,3.2,3.9,8.5,1.1,10-2.6a11.9,11.9,0,0,0-5.8-14.9c-3.7-1.8-9.5.3-9,5.2.6,5.6,4.9,14.8,12.2,11.9,6.6-2.7,4.9-11.6,2.3-16.5s-9.4-3.2-11,1.4c-4.6,13.5,16.1,18.1,20.3,5.2,1.6-5.1-.3-11.8-6.6-11.6-6,.2-9.5,7.3-9.6,12.5s3,10.9,8.5,11.9c6.4,1.2,10.5-4.4,11.7-10s.5-11.7-3.8-15.7-10.9-4.6-15.3-.7c-7.5,6.7-3.8,28.4,8.9,23,11.2-4.8,9.1-22.8,1-29.2-4.3-3.4-10.2-4.1-14.7-.5s-4.8,10.7-.9,15.1A7.87,7.87,0,0,0,84,148.4c2.7-5.4,3.2-13,1.9-18.8-1.5-6.7-7.2-9.3-13.6-8.5-5.8.8-14.1,3.5-14.5,10.5s7.4,9.7,12.7,6.5,8.1-9.5,7.6-15.4a6,6,0,0,0-10.2-4.2c-4.9,4-9.5,9.9-10.7,16.3-1.3,6.8,5.2,10.3,11,8.4,5.4-1.7,10.9-6.5,12.5-12.1s-1.5-12-7.9-12c-6,0-10.6,5.5-10.8,11.3-.2,5.6,3.5,11,8.4,13.6s11.6,1.6,13.7-4.1c2.3-5.8-.6-12.7-5.2-16.5-4.8-4-13.9,1.5-9.4,7.3,3.6,4.6,7.9,6.8,13.2,9,6.1,2.6,12.3,5,18.4,7.5,5,2,9.4-4.6,6.8-8.8a73.11,73.11,0,0,0-16.8-19.1c-5.9-4.7-13.8,2.6-8.5,8.5A99.59,99.59,0,0,1,93.3,142c3.1-2.4,6.3-4.8,9.4-7.3-3.5-4.1-7-8.3-10.3-12.6-4.6-5.9-14.2-1-10.4,6.1,2.8,5.2,5.6,10.3,8.4,15.5,3.5-2,6.9-4,10.4-6.1a68.91,68.91,0,0,0-12.7-16.2c-5-4.8-12.6,1.2-9.4,7.3a55.93,55.93,0,0,0,7.4,10.8c4.3,5.1,13.4-1.7,9.4-7.3-5.1-7.1-8.5-15.3-13.4-22.4-3.1,2.4-6.3,4.8-9.4,7.3,2,2.4,4,4.7,6,7.1,5,5.9,13.3-2.6,8.5-8.5-7.7-9.4-29.3-10.1-35.1,2-2,4.1,1.4,11.1,6.8,8.8a44,44,0,0,1,8-2.6c-1.1-3.9-2.1-7.7-3.2-11.6A26,26,0,0,0,50,124.1c-3.1,5.8,4.7,12.5,9.4,7.3l3.4-3.7c-3.1-2.4-6.3-4.8-9.4-7.3a19.78,19.78,0,0,0-2.8,7.8,5.88,5.88,0,0,0,3,5.2c4,2.3,8.4.5,11.1-2.8,4.4-5.4-1-12.2-7.3-9.4-7.5,3.3-9.4,12-6.3,19,1.3,3,5.7,3.7,8.2,2.2,4.4-2.6,6.4-6.4,7.1-11.4.5-3.6-4.3-7.2-7.6-5.8-6.4,2.6-14.9,12.8-8.1,19.5,7.2,7.2,16-3.9,13.2-11.3-1.6-4.2-6.6-6-10-2.6-4.3,4.1-8.3,13.5-1.6,17.4,7.1,4.1,12.2-4,10.4-10.2-1.2-4.1-7-6.2-10-2.6-3.8,4.4-5.4,10-3.3,15.6,1.5,4.1,6.7,6.1,10,2.6a14.09,14.09,0,0,0,4.1-9.9c.1-5.3-6.5-7.8-10.2-4.2-4.6,4.3-7.6,11.5-3.2,16.9,1.4,1.7,3.9,1.9,5.8,1.5,6.7-1.3,8.2-9.6,6-14.8-.9-2.2-4.6-3.7-6.8-2.8-6.4,2.6-9.3,10.6-3.2,15.6s14.6.4,15.8-6.7a6.23,6.23,0,0,0-4.2-7.4c-7.4-2.9-13.9,6.1-9.5,12.4,4.8,7,14.8,3.7,16.3-4,1.2-5.8-5.5-10.1-10-5.8-3.8,3.6-4.1,10,0,13.6,4.7,4,12,1.8,14.2-3.8,2-5.3-2-11.6-7.9-11.2-6.6.4-8.6,6.8-7.7,12.3.4,2.4,3.4,4.6,5.8,4.4,7.4-.7,14-8.7,10.1-16.1-3.8-7.2-14.8-5.2-15.3,3.1-.5,8.6,10.2,11.3,15.7,6,4.8-4.6,6.6-17-2.9-17-8.3,0-8.7,11.3-3.6,15.5,6.1,5.1,16.4.6,15.8-7.8-.5-7.2-10.1-12.5-15.4-6.2C63,144.3,71.7,153,79.4,150c6.6-3.4,3.5-15-3.7-12.2Z" transform="translate(-41.58 -104.88)"/><path class="cls-1" d="M136.2,136.6c-6.7-.2-4.9,3.5-4.6,6.8a15.27,15.27,0,0,1-1.1,6.7c2.9-1.2,5.9-2.4,8.8-3.6a9.13,9.13,0,0,1,.8,1.3H129.7a14.64,14.64,0,0,1,.3,10.5c3.7-.5,7.3-1,11-1.4-.8-1.1-1.2-1.5-.9-2.8-3.7.5-7.3,1-11,1.4a19.43,19.43,0,0,1,2,8.2c.2,6.4,10.8,8.6,11.8,1.6.2-1.2.4-2.5.6-3.7H131.9a18.9,18.9,0,0,1,1,4.1c.5,6.1,7.6,7.9,11.2,3,.1-.1.2-.2.2-.3-2.3.9-4.5,1.8-6.8,2.8a.6.6,0,0,1,.4.1l-4.2-4.2c.8,2.7.1,6.6.1,9.3,0,3.7,3.8,7.1,7.6,5.8,3.3-1.1,6.6-2.3,9.9-3.4a6,6,0,0,0,4.4-5.8,110.44,110.44,0,0,0-2.5-20.6c-1.3-6-10-5.5-11.6,0a42.08,42.08,0,0,0-1.4,15.4c.6,6.1,10.7,8.8,11.8,1.6a127.54,127.54,0,0,0,1.3-29.6c-.6-8.4-1.4-18.1-7.1-24.8-5.2-6.1-13.6-8.3-21.4-8.1-10,.2-14.9,8-21.1,14.8-3.6,4-.1,12.5,5.8,10,2.6-1.1,5.2-2.1,7.8-3.2,1.2-.5,2.3-.9,3.5-1.4,2.1-.9,3.3-.3.7-1.6-.9-1.2-1.8-2.4-2.8-3.6.2-1.3,0-1-.6.7-.5.9-1,1.8-1.6,2.7a16.38,16.38,0,0,1-2.1,2.5c-1.6,1-1.6,1.3-.1,1l4.2,1.8c.4.9.8,1.8,1.2,2.8a14.8,14.8,0,0,0,.8-1.3c.9-.6,1.6-2,2.5-2.7a10.39,10.39,0,0,1,2.4-1.7c1.8-1.1,2.6-.4.2-1-1.2-.9-2.4-1.8-3.6-2.8.1.3.2.5.3.8-.2-1.5-.4-3.1-.6-4.6-.6,3.8-3.5,6.6-6.7,8.4,2.9,2.3,5.9,4.5,8.8,6.8.4-2.4,1.5-1.7,3.1-3.2,2.5-.4,2.1-1.2-1.2-2.5a5.1,5.1,0,0,1-1.2,2.3h10.4q-.9-3.75-4.5,2.4a1.88,1.88,0,0,1,.2,1.8l11.2-3a4.92,4.92,0,0,1-.6-1.7c-.2-1.6-.9-.9-1.9,2.3l-4.6.6c-.9-1-1.2-1-.9.2l11.2-3c-2.4-5.1-1.3-11.5-5.8-15.6a11.74,11.74,0,0,0-13.8-1.3c-6.7,3.8-.7,14.1,6.1,10.4-.8.4-.2,2.8.1,4.2a36.64,36.64,0,0,0,3,8.4c2.6,5.7,11.1,2.5,11.2-3,.1-5.9-4.8-14.1-11.8-11.5s-5.1,11-2.5,16.1c2.9,5.7,10.8,2.5,11.2-3,.4-6.5-4.4-13.8-11.4-13.8-9,0-9.4,9.6-6.6,15.7,2,4.4,8.1,3.4,10.4,0,4.1-6.1,4.5-17.5-5-18.4-7.4-.7-16.4,5-17.7,12.6-.8,5,3.9,9.6,8.8,6.8a25,25,0,0,0,10.9-11.8c2-4.5,2-10.8-4-12.1-8.8-1.8-22.2,11.6-20.4,20.3,1.1,5.5,7.3,7,11.6,4.3,4.7-3,8.5-8.4,10.5-13.5,1.9-4.9.8-10.9-5.2-11.8-2.8-.4-5.3.9-7.8,1.9-3.5,1.4-6.9,2.8-10.4,4.3,1.9,3.3,3.9,6.7,5.8,10,2.2-2.4,4.4-4.9,6.7-7.3,2.5-2.7,3.6-4.1,7.4-3.9,5.6.2,10.6,1.8,12.8,7.4,2.3,5.8,2.4,12.9,2.6,19.1a120.43,120.43,0,0,1-1.2,20.8c3.9.5,7.9,1.1,11.8,1.6a31.31,31.31,0,0,1,1-12.2H141.7a92.81,92.81,0,0,1,2,17.4c1.5-1.9,2.9-3.9,4.4-5.8-3.3,1.1-6.6,2.3-9.9,3.4l7.6,5.8c0-4,.6-8.6-.5-12.5-.5-1.8-2.2-3.9-4.2-4.2a.6.6,0,0,1-.4-.1,6.33,6.33,0,0,0-6.8,2.8c-.1.1-.2.2-.2.3l11.2,3a30.4,30.4,0,0,0-1.4-7.3c-1.7-5-10.6-6.4-11.6,0-.2,1.2-.4,2.5-.6,3.7,3.9.5,7.9,1.1,11.8,1.6a34,34,0,0,0-3.6-14.3c-2.3-4.6-9.8-3.5-11,1.4a14.4,14.4,0,0,0,2.1,12.1c3,4.1,9.4,3.8,11-1.4,2.1-6.8,1.3-13.3-1.5-19.8-1.9-4.4-8.2-3.4-10.4,0-3.5,5.4-1.5,11.5,3.5,15.1,3.4,2.4,7.7-.3,8.8-3.6,2.8-8.2,1.5-28.1-11.9-24.8-5,1.2-7.4,6.7-6,11.4,1.6,5.5,6.6,8.5,12.1,8.7,7.8-.2,7.8-12.2,0-12.5Z" transform="translate(-41.58 -104.88)"/><path class="cls-1" d="M86.3,196.7c-.1.1-.2.3-.3.4l5.8-1.5c-.2,0-.4-.1-.6-.1,1.2.9,2.4,1.8,3.6,2.8-1.3-2.7-.9-7.3-1.4-10.2a29,29,0,0,0-3.6-9.8c-3.1-5.2-11-2.9-11.2,3-.1,4.7-.1,9.5,0,14.2l11.2-3c-2.3-3.8-2.4-8.1-2.4-12.4-.1-5.6-8.5-8.6-11.2-3a31.59,31.59,0,0,0-3,10.9h12c-.4-4.4-.6-8.7-.7-13.1-.1-7.2-9.4-7.6-11.8-1.6l-1.2,3H83.1c-.3-1.1-.6-2.3-.9-3.4-1.7-6.6-11.7-5.1-11.8,1.6A179.26,179.26,0,0,0,75.8,220c1.6,6.2,9.6,5.2,11.6,0a182.37,182.37,0,0,0,5.7-17.7c-3.9-.5-7.9-1.1-11.8-1.6-.5,6.9-1.1,13.7-1.6,20.6-.4,5-2,12.1,4.2,14.1,5.8,1.9,8.9-3.2,10.2-7.8,1.9-6.7,3.5-13.5,5.3-20.2-3.9-.5-7.9-1.1-11.8-1.6a132.5,132.5,0,0,1,.8,21.8h12a61.73,61.73,0,0,1,3.2-20.4c-3.7.5-7.3,1-11,1.4,1.7,2.3.7,8.8.8,11.5.1,4.2.1,8.4,0,12.7-.1,7.8,11.6,7.7,12,0a77.8,77.8,0,0,1,1.4-11.7,48.75,48.75,0,0,1,1.2-5.2c.3-1.3,1.8-3.6.4-2.6-2.7-.7-5.5-1.4-8.2-2.2,1.6,2.5-.4,8.9-.7,11.8-.5,4.6-1.1,9.2-1.6,13.9-.8,6.7,10.5,8.2,11.8,1.6a108,108,0,0,1,8.6-26.1l-11.2-3c.3,8.6-1.6,16.8-3.6,25.2,3.9,1.1,7.7,2.1,11.6,3.2a119.08,119.08,0,0,1,6.9-26.2c-3.9-.5-7.9-1.1-11.8-1.6-.1,9.3-3.5,18.1-3.6,27.4,0,6.7,10.1,8.2,11.8,1.6a267.13,267.13,0,0,0,5.5-26.3c-3.9-.5-7.9-1.1-11.8-1.6,0,3.3.1,6.6.1,9.9.1,7.9,11.1,7.5,12,0a200.93,200.93,0,0,0,1.3-23.3h-12c.1,5.9.2,11.7.3,17.6.1,6.6,10.2,8.3,11.8,1.6a68,68,0,0,0,1.8-20.6h-12a114.36,114.36,0,0,1-.1,21.1c-.8,7.7,11.2,7.6,12,0a99.53,99.53,0,0,0,.6-10.9c.1-7.9-11.3-7.5-12,0a166.58,166.58,0,0,1-6.1,31.3c3.9.5,7.9,1.1,11.8,1.6a32,32,0,0,1,2.2-15.9c-3.9-.5-7.9-1.1-11.8-1.6-.4,8.7-1.2,17.3-2.3,25.9h12a43.76,43.76,0,0,1,1-8.1H111.1a56.54,56.54,0,0,1,.2,13h12a57.92,57.92,0,0,1,1.2-8.2c-3.9-.5-7.9-1.1-11.8-1.6a111.19,111.19,0,0,1,.4,12.9c-.3,7.7,11.7,7.7,12,0,.1-3.8.3-7.6.4-11.3-3.9.5-7.9,1.1-11.8,1.6,1.1,6.3,2.5,12.5,3.9,18.7l7.4-7.4c-7.7-1.8-15.4.9-23.2.3a208.58,208.58,0,0,0-26.2-.4c1.9,2.5,3.9,5.1,5.8,7.6,4.5-15.1,8.5-30.6,4.7-46.3-1.5-6.1-9.7-5.2-11.6,0-2.8,7.8,0,15.6-1.6,23.5,3.9.5,7.9,1.1,11.8,1.6.6-12.1,4-23.1-1-34.7-2.3-5.4-11.8-2.7-11.2,3a98.79,98.79,0,0,0,4.4,20.8c1.8,5.5,7.7,14.2,5.6,20.2.9-1.2,1.8-2.4,2.8-3.6-.2.2-.5.3-.7.5h6.1c-.3-.2-.6-.3-.9-.5.9,1.2,1.8,2.4,2.8,3.6-.3-.8-.1-5.1,1.2-5.3l-4.6-.6-1.8-3a5.28,5.28,0,0,1-.4,2.5c-.6,2-1.9,1.8.7,2.9s1.7,0,2.3-2a12.39,12.39,0,0,1,1.8-3.4,10.59,10.59,0,0,1,1-1.2c.8-.5.7-.7-.2-.7-.9-1.4,0,2.2.1,2.5a13.83,13.83,0,0,1,.1,2.9v2.2c-.1,1.1,0,1,.2-.3,1.2-.9,2.4-1.8,3.6-2.8,1.9.8,2.5.5,1.9-.7v-.8c.8-1.6.9-2.1-.6-2.6-2.5-.9-.7,2.4-.6,4.2.1,1.3-1.3,5.2.5,4.2l4.6-.6c-.3-.1-.5-.2-.8-.3,1.2.9,2.4,1.8,3.6,2.8-1.3-2.2,1.3-4.5-.8-5.5-1.9-.9-.9.6-1,2.2a12.05,12.05,0,0,1-1.2,4.5h10.4c-.7-1.3-1.4-3.3,0-4.4l-4.2,1.8c-2.9-3.3-4-3.3-3.2-.1a6.65,6.65,0,0,1-.6,3.4c.9-1.2,1.8-2.4,2.8-3.6l-.9.6,4.6-.6c-.3-.1-.5-.2-.8-.3,1.2.9,2.4,1.8,3.6,2.8a1.2,1.2,0,0,1-.2-.8c0-2.4-2-2.3-6.1.3-.2-1.5-.4-3.1-.6-4.6-.1.3-.1.6-.2.9-1.2,7.6,10.3,10.8,11.6,3.2,1.6-9.7-10.7-14.2-15.5-5.4-3.8,7,2.4,21.2,11,13.8,5.8-4.9,4.5-21.3-4.7-21.7-10.6-.5-10.5,14.6-7.1,20.8,2,3.7,8.4,4.1,10.4,0,3.5-7.6,5.4-22.8-6.4-24-11-1.1-15.3,11.9-12.4,20.6,1.5,4.6,6.7,7.1,11,4.2s4.8-10.1,4.6-14.9-1.5-10.9-6-13.7c-4.2-2.6-9.3-1-12.6,2.3-6.1,6.2-5.9,18.6,2.1,23.2A7.73,7.73,0,0,0,104,254c1.6-4.4.9-10.9-.7-15.2s-5-8.5-10-8.7c-5.5-.2-9.8,4.2-12.4,8.6-4.3,7.1-5.9,24,7.2,21.9,9.1-1.5,17.5-21.2,5.7-24.5-11-3.1-18.7,18.9-9.1,24.1,1.7.9,4.3,1.3,6.1,0,7.1-5.2,3.9-15.4,1.1-22.2-3.4-8.5-6.1-16.9-7.2-26.1l-11.2,3c3.7,8.8-.3,19.6-.7,28.7-.3,6.7,10.4,8.3,11.8,1.6,1.6-7.7-1.1-16.1,1.6-23.5H74.6c3.3,13.5-.8,27-4.7,39.9-1.1,3.6,1.9,7.8,5.8,7.6a197,197,0,0,1,24.3.2,53.3,53.3,0,0,0,11.3.1c3.6-.4,7.2-1.5,10.7-.7a6.07,6.07,0,0,0,7.4-7.4c-1.5-6.2-2.8-12.4-3.9-18.7-1.3-6.9-11.5-4.9-11.8,1.6-.1,3.8-.3,7.6-.4,11.3h12a111.19,111.19,0,0,0-.4-12.9c-.6-6.3-10.1-8.6-11.8-1.6a61.4,61.4,0,0,0-1.6,11.4c-.4,7.8,11.4,7.6,12,0a73.05,73.05,0,0,0-.6-16.2c-.8-6-10.3-5.5-11.6,0a71.36,71.36,0,0,0-1.5,11.3c-.3,7.9,11.1,7.4,12,0,1.1-8.6,1.8-17.2,2.3-25.9.4-7.2-9.5-7.5-11.8-1.6a40.21,40.21,0,0,0-2.6,19.1c.7,6.4,9.8,8.5,11.8,1.6a201.82,201.82,0,0,0,6.5-34.5H116a98.18,98.18,0,0,1-.6,10.9h12a114.36,114.36,0,0,0,.1-21.1c-.7-7.6-12.5-7.8-12,0a56.7,56.7,0,0,1-1.4,17.4c3.9.5,7.9,1.1,11.8,1.6-.1-5.9-.2-11.7-.3-17.6-.1-7.7-12.1-7.7-12,0a181,181,0,0,1-1.3,23.3h12c0-3.3-.1-6.6-.1-9.9-.1-6.5-10.7-8.5-11.8-1.6a255.54,255.54,0,0,1-5.5,26.3c3.9.5,7.9,1.1,11.8,1.6.1-9.3,3.5-18.1,3.6-27.4.1-7.2-9.5-7.6-11.8-1.6a119.08,119.08,0,0,0-6.9,26.2c-1.1,7.4,9.7,10.9,11.6,3.2,2.3-9.3,4.4-18.7,4.1-28.4-.2-5.6-8.4-8.7-11.2-3a118.07,118.07,0,0,0-9.8,29c3.9.5,7.9,1.1,11.8,1.6.7-5.8,1.4-11.7,2.1-17.5.6-5,1.5-9.8-1.3-14.2-1.6-2.6-5.5-4.1-8.2-2.2-4.3,3-5.4,7.5-6.5,12.4a113.36,113.36,0,0,0-2.4,17.5h12c.1-5.5,0-11-.1-16.6-.1-4.5.4-9.8-2.3-13.7-3-4.2-9.3-3.7-11,1.4a72.3,72.3,0,0,0-3.6,23.6c.1,7.8,11.6,7.7,12,0a122,122,0,0,0-.8-21.8c-.8-6.3-9.9-8.7-11.8-1.6-1,3.7-1.9,7.4-2.9,11-.6,2.1-1.1,8.9-2.8,10.4l5.8-1.5c-.3-.1-.6-.1-.9-.2,1.2.9,2.4,1.8,3.6,2.8.5,2.2.7,2.1.6-.4l.3-3.9c.2-2.3.4-4.6.5-6.9l1.2-14.7c.5-6.8-10.1-8-11.8-1.6a182.37,182.37,0,0,1-5.7,17.7H87.7a163.21,163.21,0,0,1-5-42.3c-3.9.5-7.9,1.1-11.8,1.6.3,1.1.6,2.3.9,3.4,1.6,6.2,9.5,5.1,11.6,0l1.2-3c-3.9-.5-7.9-1.1-11.8-1.6,0,4.4.3,8.7.7,13.1a6,6,0,0,0,12,0,14.43,14.43,0,0,1,1.4-4.9l-11.2-3c.1,6.5.6,12.8,4,18.5,3,5,11.3,3,11.2-3-.1-4.7-.1-9.5,0-14.2l-11.2,3c3.2,5.5,2.1,11.7,3.9,17.6,1.5,4.9,7.6,7.7,11.4,3.4,4.9-5.9-3.5-14.5-8.7-8.7Z" transform="translate(-41.58 -104.88)"/><path class="cls-1" d="M93.8,247.2c-2.9-.4-5.6-.1-7.7,2.2-1.7,1.8-2.3,4.2-3,6.5a6,6,0,0,0,2.8,6.8c.3.2.7.4,1,.6,1-3.7,2-7.5,3-11.2a15,15,0,0,0-3,0c-2.4.3-4.5,1.3-5.5,3.7-.8,2.1-.6,5,1.2,6.6a16.84,16.84,0,0,0,6.2,3.6c1.1-3.9,2.1-7.7,3.2-11.6a18.42,18.42,0,0,0-4.7-.7c-5.8-.1-8.3,8.4-3,11.2a19.2,19.2,0,0,0,5.5,2c3.2.5,6.4-.8,7.4-4.2.8-2.9-1-6.8-4.2-7.4-2.9-.5-6.4-1.7-9,.2-1.6,1.2-3.2,3-3,5.2.3,2.5,1.1,4.5,3.5,5.8a25.49,25.49,0,0,0,5.3,1.8c.5-3.9,1.1-7.9,1.6-11.8a4.5,4.5,0,0,1-2.8-.4c-6.3-2.2-10.8,8.1-4.6,11a17,17,0,0,0,4.8,1.6V257.1c-.9.3-1.8.7-2.6,1-2.8,1-4.8,3.5-4.3,6.6.4,2.7,2.9,5.6,5.9,5.2,1.4-.2,2.8-.3,4.2-.5,3-.4,5.5-2,5.9-5.2.3-2.7-1.3-6.1-4.3-6.6l-6.2-.9c-3.2-.5-6.4.8-7.4,4.2-.8,2.8,1,6.9,4.2,7.4l6.2.9c.5-3.9,1.1-7.9,1.6-11.8-1.4.2-2.8.3-4.2.5.5,3.9,1.1,7.9,1.6,11.8.9-.3,1.8-.7,2.6-1a6.21,6.21,0,0,0,4.4-5.8c0-2.4-1.8-5.4-4.4-5.8l-1.9-.4c-1.5,3.7-3.1,7.3-4.6,11a15.3,15.3,0,0,0,6,.8c6.6-.5,8.3-9.7,1.6-11.8-.6-.2-1.2-.4-1.9-.6-1.2-.4-1.6-1,.2.6l1.8,4.2v-.3c-1,1.7-2,3.5-3,5.2.1-.1.2-.2.3-.2-1,.3-2,.5-3,.8-.9,0,.3.1.7.1l1.8.3c1.1-3.9,2.1-7.7,3.2-11.6a9.66,9.66,0,0,1-2.7-.7c-1,3.7-2,7.5-3,11.2,1.1,0,.4-.1,1.5.3a6,6,0,0,0,3.2-11.6c.7.2-1.4-.9-.9-.5l-4.2,10.2a15,15,0,0,1,3,0c6.1.5,7.9-8.3,3-11.2-.3-.2-.7-.4-1-.6.9,2.3,1.8,4.5,2.8,6.8a9.83,9.83,0,0,0,.5-1.6c.1-1-.1.9-1.9,1.3H90.3a.9.9,0,0,1,.5.1c3.2.4,6.4-.8,7.4-4.2.5-3-1.2-7.1-4.4-7.5Z" transform="translate(-41.58 -104.88)"/><path d="M67.7,268.8c3.5,1.7,7,1.7,10.8,1.7H96.3c11.6,0,23.3,0,34.9.4a.6.6,0,0,0,0-1.2c-10.4-.3-20.8-.4-31.2-.4H85c-5.3,0-11.8.9-16.8-1.5-.5-.4-1.2.6-.5,1Z" transform="translate(-41.58 -104.88)"/><path d="M68.7,268.5c4.8-16.6,3.9-33.9,3.4-51-.5-18-1.9-36-2.9-54a.6.6,0,1,0-1.2,0c1,17.4,2.3,34.7,2.9,52.1.5,17.6,1.7,35.5-3.3,52.6a.57.57,0,1,0,1.1.3Z" transform="translate(-41.58 -104.88)"/><path d="M64.6,185.7A191,191,0,0,0,69,159.5c.1-.8-1.1-.8-1.2,0a191.67,191.67,0,0,1-4.3,25.9c-.3.7.9,1,1.1.3Z" transform="translate(-41.58 -104.88)"/><path d="M64.1,184.1c-6.2-4-14-5.2-21-7.1-.7-.2-1.1,1-.3,1.2,6.9,1.9,14.6,3.1,20.7,7,.7.4,1.3-.7.6-1.1Z" transform="translate(-41.58 -104.88)"/><path d="M42.7,177.4a298.21,298.21,0,0,0,4.2-35.3c.7-12,.6-26.7,12.7-33.2a.58.58,0,1,0-.6-1c-9.3,5-12,15.2-12.7,25.1-1.2,14.8-2.1,29.5-4.7,44.2-.2.6,1,1,1.1.2Z" transform="translate(-41.58 -104.88)"/><path d="M59,109.2c3.6-2.4,8.5-2.4,12.7-2.8a112.32,112.32,0,0,1,11.6-.3.6.6,0,1,0,0-1.2,114.89,114.89,0,0,0-15.5.7c-3.3.4-6.6.6-9.4,2.5a.63.63,0,0,0,.6,1.1Z" transform="translate(-41.58 -104.88)"/><path d="M82.6,106.3c3,2.8,4.1,6.7,6.5,9.9,2.5,3.4,6.1,6.1,9.2,8.9.6.5,1.4-.3.8-.8-3.5-3.3-7.6-6.4-10.2-10.5-1.8-2.9-3-5.9-5.5-8.3-.5-.5-1.3.3-.8.8Z" transform="translate(-41.58 -104.88)"/><path d="M132.1,269c-4.9-17.1-3.8-35-3.3-52.6.5-17.4,1.8-34.8,2.9-52.1a.6.6,0,1,0-1.2,0c-1.1,18-2.4,36-2.9,54-.5,17.1-1.5,34.4,3.4,51a.57.57,0,0,0,1.1-.3Z" transform="translate(-41.58 -104.88)"/><path d="M136.3,186.1a172.8,172.8,0,0,1-4.3-25.9c-.1-.8-1.3-.8-1.2,0a181.41,181.41,0,0,0,4.4,26.2c.1.8,1.2.4,1.1-.3Z" transform="translate(-41.58 -104.88)"/><path d="M136.1,185.9c6.1-3.9,13.8-5.1,20.7-7,.7-.2.4-1.4-.3-1.2-7,1.9-14.8,3.2-21,7.1-.6.5,0,1.5.6,1.1Z" transform="translate(-41.58 -104.88)"/><path d="M158.1,177.8c-2.6-14.7-3.5-29.3-4.7-44.2-.8-9.8-3.5-20.1-12.7-25.1-.7-.4-1.3.7-.6,1,12.1,6.5,12,21.2,12.7,33.2A300.72,300.72,0,0,0,157,178c.1.9,1.2.6,1.1-.2Z" transform="translate(-41.58 -104.88)"/><path d="M141.3,108.9c-2.8-1.9-6.1-2.1-9.4-2.5a114.15,114.15,0,0,0-15.5-.7.6.6,0,1,0,0,1.2,111.6,111.6,0,0,1,11.6.3c4.2.3,9.1.3,12.7,2.8.6.4,1.2-.7.6-1.1Z" transform="translate(-41.58 -104.88)"/><path d="M116.2,106.2c-3,2.4-4.5,5.8-6.8,8.8-2.9,3.6-7.1,6.2-10.7,9.1-.6.5.2,1.3.8.8,3.5-2.7,7.6-5.3,10.5-8.7,2.5-3,4-6.6,7.1-9.1.5-.5-.3-1.3-.9-.9Z" transform="translate(-41.58 -104.88)"/></svg>