<svg id="Layer_1" data-name="Layer 1" xmlns="http://www.w3.org/2000/svg" viewBox="0 0 65.71 116.58"><defs><style>.cls-1{fill:#d2d6ed;}.cls-2{fill:none;stroke:#000;stroke-miterlimit:10;stroke-width:0.1px;}</style></defs><title>Trousersshort</title><g id="_Group_" data-name="&lt;Group&gt;"><path class="cls-1" d="M131.5,312.2h.2c-.2,4-.4,8-.6,11.9-.2,4.3-.4,8.6-.7,12.9-.6,9.7-1.6,19.3-2.5,28.9-.5,4.9-.9,9.8-1.4,14.6h0c-8.3,0-16.7.2-25,.4a.37.37,0,0,1-.3-.1c0-.1,0-.1.1-.1v-.3c-.1-3-.3-6.1-.3-9.1,0-1.8-.1-3.7-.1-5.5,0-5.4.1-10.8.5-16.1h-.1c0-5.4.1-10.9.1-16.4,0-4.8.1-9.7.1-14.5h-.2a114.07,114.07,0,0,1,.3-13.1,2.36,2.36,0,0,0-.8-.9,1.86,1.86,0,0,0-2.1.6,3.4,3.4,0,0,0-.3,2h0c.3,4.1.4,8.2.3,12.2h-.2c0,4.8.1,9.7.1,14.5,0,5.5.1,10.9.1,16.4h-.1c.3,5.1.5,10.2.5,15.3,0,2.1,0,4.2-.1,6.4-.1,3-.2,6.1-.3,9.1l-.8.1c-8,0-16.1.2-24.1.3-.1,0-.2,0-.2-.1v-.1h0c-.5-4.9-1-9.9-1.4-14.8-.9-9.6-1.9-19.3-2.5-28.9-.3-4.3-.5-8.6-.7-12.9-.2-4-.4-7.9-.6-11.9h.2a288.66,288.66,0,0,1-.4-34.8c.2-3.8.5-7.8,2.7-11h.2c9.7-.5,19.4-.5,29.2-.1l7,.3a156.91,156.91,0,0,0,21.7-.9l.2-.1c2.1,3.1,2.5,7.1,2.6,10.9A253.66,253.66,0,0,1,131.5,312.2Z" transform="translate(-67.59 -265.89)"/><path class="cls-2" d="M71.2,267.4c9.7-.5,19.4-.5,29.2-.1l7,.3a156.91,156.91,0,0,0,21.7-.9" transform="translate(-67.59 -265.89)"/><path class="cls-2" d="M73.8,381.7h-.1c0,.1.1.1.2.1,8-.2,16-.3,24.1-.3" transform="translate(-67.59 -265.89)"/><path class="cls-2" d="M73.7,381.6c-.5-4.9-1-9.9-1.4-14.8-.9-9.6-1.9-19.3-2.5-28.9-.3-4.3-.5-8.6-.7-12.9-.2-4-.4-7.9-.6-11.9" transform="translate(-67.59 -265.89)"/><path class="cls-2" d="M68.7,313.7v-.6a288.66,288.66,0,0,1-.4-34.8c.2-3.8.5-7.8,2.7-11" transform="translate(-67.59 -265.89)"/><path class="cls-2" d="M98.8,381.4c.1-3,.2-6.1.3-9.1,0-2.1.1-4.2.1-6.4,0-5.1-.2-10.2-.5-15.3,0-.6-.1-1.1-.1-1.7" transform="translate(-67.59 -265.89)"/><path class="cls-2" d="M98.9,350.6c0-5.4-.1-10.9-.1-16.4,0-4.8-.1-9.7-.1-14.5v-.3" transform="translate(-67.59 -265.89)"/><path class="cls-2" d="M98.8,319.8a82.54,82.54,0,0,0-.3-12.2c0-.5-.1-1-.1-1.5" transform="translate(-67.59 -265.89)"/><path class="cls-2" d="M126.5,380.7v-.2c.5-4.9,1-9.8,1.4-14.6.9-9.6,1.9-19.3,2.5-28.9.3-4.3.5-8.6.7-12.9.2-4,.4-8,.6-11.9" transform="translate(-67.59 -265.89)"/><path class="cls-2" d="M131.5,312.9v-.6a269.45,269.45,0,0,0,.4-34.8c-.2-3.8-.5-7.8-2.6-10.9h0" transform="translate(-67.59 -265.89)"/><path class="cls-2" d="M101.4,380.5c-.1-3-.3-6.1-.3-9.1,0-1.8-.1-3.7-.1-5.5,0-5.4.1-10.8.5-16.1,0-.6.1-1.1.1-1.7" transform="translate(-67.59 -265.89)"/><path class="cls-2" d="M101.4,349.7c0-5.4.1-10.9.1-16.4,0-4.8.1-9.7.1-14.5v-.3" transform="translate(-67.59 -265.89)"/><path class="cls-2" d="M101.4,318.9a114.07,114.07,0,0,1,.3-13.1v-.6" transform="translate(-67.59 -265.89)"/><path class="cls-2" d="M101.4,380.8h0c-.1-.1-.1,0-.1,0s.2.1.3.1c8.3-.2,16.7-.3,25-.4" transform="translate(-67.59 -265.89)"/><path class="cls-2" d="M98.6,307.5a3.4,3.4,0,0,1,.3-2,1.61,1.61,0,0,1,2.1-.6,1.42,1.42,0,0,1,.8.9,1.45,1.45,0,0,1,.1,1.1" transform="translate(-67.59 -265.89)"/></g><path d="M71,267.8c19.4.6,38.6,1.2,58-.5.8-.1.8-1.3,0-1.2-19.3,1.7-38.6,1.2-58,.5a.6.6,0,0,0,0,1.2Z" transform="translate(-67.59 -265.89)"/><path d="M74.1,382.3c8.2-.7,16.4.6,24.6-.8.8-.1.4-1.3-.3-1.2-8,1.3-16.2,0-24.3.7-.8.2-.8,1.4,0,1.3Z" transform="translate(-67.59 -265.89)"/><path d="M102.8,380.7c-.2-.2-.4-.3-.5-.5-.1.3-.3.7-.4,1,8.1,0,16.1,0,24.2-.1a.6.6,0,0,0,0-1.2c-8.1,0-16.1,0-24.2.1-.5,0-.8.7-.4,1,.2.2.4.3.5.5.5.5,1.4-.3.8-.8Z" transform="translate(-67.59 -265.89)"/><path d="M99,306.8c-.6-1.6,1.6-1.3,2.4-.9s1.3-.7.6-1c-1-.4-2.3-.8-3.3-.2a2.05,2.05,0,0,0-.8,2.5c.3.6,1.4.3,1.1-.4Z" transform="translate(-67.59 -265.89)"/><path d="M74.5,381.9l-3.6-40.8c-.1-.8-1.3-.8-1.2,0l3.6,40.8c.1.7,1.3.8,1.2,0Z" transform="translate(-67.59 -265.89)"/><path d="M99.5,380.6c.8-15.2.5-30.3-.1-45.5a.6.6,0,0,0-1.2,0c.6,15.2.9,30.3.1,45.5a.6.6,0,0,0,1.2,0Z" transform="translate(-67.59 -265.89)"/><path d="M99.4,335.2c-.3-5.5-.3-11.1-.1-16.6.2-4.1,1.1-8.6-.3-12.6-.3-.7-1.4-.4-1.2.3,1.6,4.3.4,9.7.2,14.2a141.85,141.85,0,0,0,.2,14.6.6.6,0,1,0,1.2.1Z" transform="translate(-67.59 -265.89)"/><path d="M71,341.5c-1.4-11.1-1.1-22.2-2.2-33.3-.1-.8-1.3-.8-1.2,0,1.1,11.1.8,22.3,2.2,33.3.1.8,1.3.8,1.2,0Z" transform="translate(-67.59 -265.89)"/><path d="M68.9,308.6c-.1-6.6,0-13.2.1-19.8s-1-15.1,2.6-21a.58.58,0,1,0-1-.6c-3.3,5.4-2.6,11.8-2.7,17.9-.2,7.8-.3,15.7-.2,23.5a.6.6,0,0,0,1.2,0Z" transform="translate(-67.59 -265.89)"/><path d="M102.7,380.2c-.8-15.2-.5-30.3.1-45.5a.6.6,0,0,0-1.2,0c-.6,15.2-.9,30.3-.1,45.5a.6.6,0,0,0,1.2,0Z" transform="translate(-67.59 -265.89)"/><path d="M102.8,334.9c.3-4.9.3-9.8.2-14.6-.1-4.5-1.4-9.9.2-14.2.3-.7-.9-1-1.2-.3-1.5,3.9-.5,8.5-.3,12.6.2,5.5.2,11.1-.1,16.6-.1.6,1.1.6,1.2-.1Z" transform="translate(-67.59 -265.89)"/><path d="M130.7,339.9c1.6-11.1,1.3-22.4,2.6-33.5.1-.8-1.1-.8-1.2,0-1.3,11-.9,22.2-2.5,33.2a.57.57,0,1,0,1.1.3Z" transform="translate(-67.59 -265.89)"/><path d="M126.3,381.1c1.4-13.6,2.9-27.2,4.3-40.8.1-.8-1.1-.8-1.2,0-1.4,13.6-2.9,27.2-4.3,40.8a.6.6,0,0,0,1.2,0Z" transform="translate(-67.59 -265.89)"/><path d="M133.1,307.6c.1-7.8,0-15.7-.2-23.5-.1-6.1.6-12.5-2.7-17.9a.58.58,0,1,0-1,.6c3.6,5.9,2.5,14.4,2.6,21s.2,13.2.1,19.8a.6.6,0,1,0,1.2,0Z" transform="translate(-67.59 -265.89)"/><path d="M100.3,268.4c-1.1-.1-1,1.4-1.1,2.1-.2,2.1-.4,4.1-.5,6.2-.1.8,1.1.8,1.2,0s.7-7,.4-7.1c.8.1.8-1.1,0-1.2Z" transform="translate(-67.59 -265.89)"/><path d="M103.5,270.3c0,.1.1.2.1.3a.62.62,0,1,0-1.2-.3.82.82,0,0,0,.4,1c.7.4,1.4-.6.7-1Z" transform="translate(-67.59 -265.89)"/><path d="M73,279.9c5,.1,9.6-1.6,10.9-6.9a.62.62,0,1,0-1.2-.3c-1.2,4.8-5.3,6.1-9.8,6.1-.7-.1-.7,1.1.1,1.1Z" transform="translate(-67.59 -265.89)"/><path d="M126.9,278.2c-4.5.1-8.6-1.2-9.8-6.1-.2-.8-1.3-.4-1.2.3,1.3,5.4,5.9,7,10.9,6.9a.55.55,0,1,0,.1-1.1Z" transform="translate(-67.59 -265.89)"/></svg>