<?xml version="1.0" encoding="utf-8"?>
<!-- Generator: Adobe Illustrator 21.0.2, SVG Export Plug-In . SVG Version: 6.00 Build 0)  -->
<svg version="1.1" id="Layer_1" xmlns="http://www.w3.org/2000/svg" xmlns:xlink="http://www.w3.org/1999/xlink" x="0px" y="0px"
	 viewBox="0 0 13.8 20.2" style="enable-background:new 0 0 13.8 20.2;" xml:space="preserve">
<style type="text/css">
	.st0{fill:#EE8BBA;}
	.st1{fill:none;stroke:#231F20;stroke-width:0.75;stroke-miterlimit:10;}
</style>
<title>Woman_Symbol</title>
<path class="st0" d="M2.5,5.5c0.2-0.6,0.6-1,1-1.4c0.5-0.4,1.1-0.7,1.6-1C6.5,2.3,5.3,0.3,4,1.1C3.3,1.5,2.6,1.9,2,2.4
	C1.4,2.9,0.9,3.6,0.6,4.3C-0.1,5.6,1.8,6.8,2.5,5.5L2.5,5.5z"/>
<path class="st0" d="M11.6,5.4c0.7,0,1.2-0.6,1.2-1.2c0-0.7-0.6-1.2-1.2-1.2c-0.7,0-1.2,0.6-1.2,1.2c0,0,0,0,0,0
	C10.4,4.9,10.9,5.4,11.6,5.4z"/>
<path class="st0" d="M12.8,3.9c-0.5-1.4-1.5-2.5-2.9-3C8.4,0.3,6.6-0.2,5.1,0.6c-0.6,0.3-0.8,1-0.5,1.7c0.3,0.6,1,0.8,1.7,0.5
	c0,0,0.1,0,0.1-0.1C7,2.4,8.2,2.9,8.8,3.1c0.8,0.2,1.4,0.7,1.6,1.5c0.2,0.6,0.9,1,1.5,0.8C12.6,5.1,12.9,4.5,12.8,3.9L12.8,3.9z"/>
<path class="st0" d="M10.9,5.5c0.1,1,0.1,2,0,3c-0.1,1.6,2.4,1.6,2.5,0c0.1-1.2,0.1-2.5-0.1-3.7C13,3.3,10.6,3.9,10.9,5.5L10.9,5.5z
	"/>
<path class="st0" d="M10.2,9.6l0.1-0.1L10,9.7C9.7,9.8,9.5,10,9.3,10.2c-0.3,0.3-0.4,0.5-0.8,0.5c-0.7,0-1.2,0.6-1.2,1.2
	c0,0.7,0.6,1.2,1.2,1.2l0,0c0.9,0,1.8-0.4,2.5-1.1c0.6-0.6,1.5-0.8,1.7-1.8c0.2-0.7-0.2-1.3-0.9-1.5C11.1,8.6,10.4,8.9,10.2,9.6z"/>
<path class="st0" d="M0.1,5.7c-0.5,2.6,0.7,5.3,3,6.7c0.6,0.4,1.3,0.2,1.7-0.3s0.2-1.3-0.3-1.7c0,0-0.1,0-0.1-0.1
	C3,9.5,2.2,7.9,2.5,6.3C2.8,4.8,0.4,4.1,0.1,5.7L0.1,5.7z"/>
<path class="st0" d="M3.3,12.3C4.2,12.7,5.1,13,6,13.1c0.9,0.1,1.8,0,2.7-0.3l-1-0.1l0.2,0.1c1.4,0.5,2.7-1.2,1.2-1.8
	c-0.9-0.3-1.3,0-2.2,0.1c-0.8,0-1.6-0.2-2.4-0.6C3.1,10,1.8,11.8,3.3,12.3L3.3,12.3z"/>
<path class="st0" d="M12,3.5L12,3.5l0.4,0.3L12.6,4c-0.2-0.6-0.8-1-1.4-0.8c-0.6,0.2-1,0.8-0.8,1.5c0.1,0.5,0.5,1,1,1.1
	C12,6,12.6,5.6,12.8,5C12.9,4.4,12.6,3.7,12,3.5L12,3.5z"/>
<path class="st0" d="M7.3,15.4l-0.2-0.8l-1,0.2c0.1,0.2,0.2,0.5,0.2,0.7L7.3,15.4C7.2,14.9,7,14.4,6.9,14l-1,0.2l0.2,0.6l1-0.2
	l-0.2-0.7l-1,0.1L6,14.2c0.1,0.2,0.4,0.4,0.6,0.3c0.2,0,0.4-0.2,0.4-0.4c0,0,0-0.1,0-0.1l-0.1-0.6l-1,0.2L6,13.9
	c0.1,0.2,0.4,0.4,0.6,0.3c0.2,0,0.4-0.2,0.4-0.5c0,0,0,0,0-0.1l-0.1-0.5l-1,0.1c0.1,0.2,0.2,0.4,0.3,0.6c0.1,0.4,1,0.4,1-0.1
	c0-0.2,0-0.5,0-0.7l-1,0.1l0.4,0.9c0.2,0.4,1,0.4,1-0.1c-0.1-0.3-0.1-0.7,0-1l-1,0.1l0.1,0.7h1l-0.1-0.9c-0.1-0.5-1.1-0.5-1,0
	l0.3,2.1l1-0.1l-0.1-0.7l-1,0.2c0.1,0.5,0.2,1,0.1,1.5l1-0.1l-0.2-0.8c-0.1-0.2-0.3-0.4-0.6-0.4c-0.2,0-0.4,0.2-0.4,0.4c0,0,0,0,0,0
	v1.6l1-0.1c-0.1-0.3-0.2-0.6-0.2-0.9c0-0.3-0.2-0.5-0.5-0.5s-0.5,0.2-0.5,0.5l-0.1,1.2l1-0.1c-0.1-0.4-0.2-0.9-0.2-1.3h-1v0.8l1-0.1
	l-0.2-0.7c0-0.3-0.2-0.5-0.5-0.5s-0.5,0.2-0.5,0.5v0.3l1-0.1c-0.1-0.4-0.2-0.7-0.2-1.1h-1c0.1,1.2,0.5,2.3,0.6,3.5
	c0,0.4,0.2,1.5,0.3,0.5c0-0.7-0.2-1.5-0.1-2.2c0.1-0.5-0.9-0.5-1,0C5.4,17,5,20.4,7,19.9c0.2,0,0.3-0.1,0.3-0.3
	c0.4-1.6-0.4-3.5-0.6-5.2c-0.1-0.5-1-0.5-1,0c0,0.4,0.1,0.9,0.2,1.3c0.1,0.5,1,0.3,1-0.1v-0.3h-1c0,0.3,0.1,0.7,0.3,1
	c0.2,0.4,1,0.4,1-0.1v-0.8c0-0.5-1-0.5-1,0c0,0.5,0.1,1,0.2,1.5c0.1,0.5,1,0.3,1-0.1l0.1-1.2h-1c0,0.4,0.1,0.7,0.2,1.1
	C6.8,17,7,17.2,7.2,17.1c0.2,0,0.4-0.2,0.4-0.4c0,0,0,0,0,0V15l-1,0.1l0.2,0.8c0.1,0.5,1,0.4,1-0.1c0-0.6,0-1.2-0.2-1.7
	c-0.1-0.5-1-0.3-1,0.2l0.1,0.8c0.1,0.4,1,0.4,1-0.1l-0.3-2.1h-1l0.1,0.9c0.1,0.5,1,0.5,1,0c0-0.3-0.1-0.6-0.1-0.9
	c-0.1-0.5-0.9-0.3-1,0.1c-0.1,0.3-0.1,0.7,0,1l1-0.1L7.2,13c-0.1-0.2-0.3-0.4-0.6-0.4c-0.2,0-0.4,0.2-0.4,0.4c0,0,0,0,0,0
	c0,0.2,0,0.5,0,0.7l1-0.1c0-0.2-0.1-0.4-0.2-0.6c-0.2-0.4-1-0.4-1,0.1c0,0.2,0,0.5,0.1,0.7l1-0.2L7,13.4c-0.1-0.2-0.4-0.4-0.6-0.3
	c-0.2,0-0.4,0.2-0.4,0.5c0,0,0,0,0,0.1l0.1,0.6l1-0.2L7,13.7c-0.2-0.4-1-0.4-1,0.1c0,0.3,0.1,0.7,0.2,1c0.1,0.2,0.4,0.4,0.6,0.3
	c0.2,0,0.4-0.2,0.4-0.5c0,0,0,0,0-0.1L7.1,14c-0.1-0.5-1-0.3-1,0.2c0.1,0.4,0.2,0.9,0.4,1.3c0.1,0.2,0.4,0.4,0.6,0.3
	c0.2,0,0.4-0.2,0.4-0.5c0,0,0,0,0-0.1c0-0.3-0.1-0.5-0.2-0.7c-0.1-0.2-0.4-0.4-0.6-0.3c-0.2,0-0.4,0.2-0.4,0.5c0,0,0,0,0,0.1
	l0.2,0.8c0.1,0.5,1.1,0.3,1-0.2L7.3,15.4z"/>
<path class="st0" d="M7.4,17.9c-0.1-0.1-0.1-0.3,0-0.4l-0.3,0.2h0.1H6.8v0.1l0.5-0.3H7.2l0.3,0.1c-0.1-0.2-0.2-0.4-0.1-0.5l-0.7,0.4
	c0.1,0,0.1,0.4,0.1,0.5c0.1,0.2,0.3,0.3,0.5,0.4c0.3,0,0.5,0,0.8,0c0.4-0.1,0.7-0.1,1.1-0.1c0.2,0,0.4-0.2,0.5-0.4
	c0-0.1,0-0.2,0-0.2c-0.4-0.8-1.7-0.2-2.4-0.4c-0.3-0.1-0.5,0.1-0.6,0.3c-0.1,0.2,0.1,0.5,0.3,0.5c0,0,0,0,0.1,0
	C7.2,18,7.5,18,7.8,18c0.1,0,0.8-0.1,0.9,0l0.4-0.6c-0.3,0-0.6,0-0.9,0c-0.2,0.1-0.5,0.1-0.7,0.1l0.2,0.3c-0.2-0.4,0-0.8-0.6-1
	c-0.2-0.1-0.5,0-0.7,0.2c0,0.1-0.1,0.1-0.1,0.2c0,0.5,0.1,1.3,0.8,1.3c0.2,0,0.4-0.1,0.5-0.3c0.2-0.4,0-0.9-0.4-1.1
	c-0.1,0-0.2-0.1-0.3-0.1c-0.6,0.1-0.6,0.9-0.5,1.3c0.1,0.2,0.4,0.4,0.6,0.3C7.4,18.4,7.5,18.2,7.4,17.9C7.5,17.9,7.5,17.9,7.4,17.9
	L7.4,17.9z"/>
<path class="st0" d="M8.2,17c-0.1,0-0.2,0-0.3-0.1v0.3l0,0l-0.3,0.3c0.3,0,0.5,0.1,0.8,0.2v-0.8c-0.1,0-0.3,0-0.4,0
	c-0.2-0.1-0.5,0.1-0.6,0.3c-0.1,0.2,0,0.4,0.2,0.5c0.4,0.2,0.9,0.2,1.2,0.4l0.3-0.8c-0.2,0-0.4,0-0.5,0c-0.2,0-0.4,0.2-0.4,0.4
	c0,0.1,0.1,0.3,0.2,0.3c0.2,0.1,0.4,0.1,0.6,0.1c0.6-0.1,0.6-0.8,0-0.8h-1L8,18.2c0.3,0,0.5-0.1,0.8-0.1c0.2,0,0.4,0,0.6,0
	c0.4-0.1,0.4-0.5,0.3-0.8s-0.1-0.6-0.5-0.7c-0.4-0.1-0.9,0-1.3,0.2c-0.6,0.2-0.1,1,0.5,0.7c0.2-0.1,0.4-0.1,0.6-0.1l-0.3-0.2
	c0.1,0.1,0.1,0.3,0.1,0.5l0.1-0.3l0,0l0.3-0.1c-0.5,0-1,0-1.4,0.1c-0.6,0.1-0.4,0.8,0.1,0.8h1v-0.8H8.8l-0.1,0.8c0.1,0,0.2,0,0.3,0
	c0.3,0,0.5-0.2,0.5-0.4c0-0.2-0.1-0.3-0.2-0.4c-0.4-0.2-0.9-0.2-1.2-0.4l-0.4,0.8c0.3,0.1,0.7,0.1,1,0c0.2,0.1,0.5-0.1,0.5-0.3
	c0.1-0.2-0.1-0.5-0.3-0.5c-0.1,0-0.1,0-0.2,0c-0.4-0.1-0.9-0.2-1.3-0.2c-0.2,0-0.3,0.1-0.3,0.3c-0.2,0.6,0.6,0.8,1.2,0.8
	c0.2,0.1,0.5-0.1,0.5-0.3C8.8,17.3,8.6,17,8.4,17C8.3,17,8.3,17,8.2,17L8.2,17z"/>
<path class="st0" d="M5.9,17.5c-0.4-0.1-0.9,0-1.3-0.1l0.3,0.2c0,0-0.3,0-0.1,0c0.1,0,0.3,0,0.4,0C5.4,17.6,5.7,17.6,5.9,17.5
	l-0.3-0.8c-0.3,0.1-0.7,0.2-1,0.2v0.8c0.5-0.1,0.9-0.1,1.4,0c0.2,0.1,0.5,0,0.5-0.3s0-0.5-0.3-0.5c-0.5-0.1-1.1-0.1-1.6,0
	c-0.6,0-0.6,0.8,0,0.8c0.5,0,1-0.1,1.5-0.3c0.5-0.2,0.1-0.8-0.4-0.8s-0.9-0.1-1.3,0c-0.3,0.1-0.6,0.4-0.6,0.7c0,0.3,0.2,0.6,0.5,0.7
	c0.4,0.1,0.9,0,1.4,0.1c0.2,0.1,0.5,0,0.5-0.3S6.1,17.5,5.9,17.5L5.9,17.5z"/>
<ellipse class="st1" cx="6.9" cy="6.8" rx="6.5" ry="6.5"/>
<ellipse class="st1" cx="6.8" cy="6.9" rx="4.3" ry="4.3"/>
<line class="st1" x1="5.7" y1="13" x2="5.7" y2="16.8"/>
<line class="st1" x1="7.9" y1="13.1" x2="7.8" y2="16.9"/>
<line class="st1" x1="6.1" y1="16.7" x2="3.8" y2="16.7"/>
<line class="st1" x1="9.7" y1="16.8" x2="7.5" y2="16.8"/>
<line class="st1" x1="6" y1="18.1" x2="3.8" y2="18.1"/>
<line class="st1" x1="9.6" y1="18.2" x2="7.4" y2="18.2"/>
<line class="st1" x1="5.7" y1="18.3" x2="5.7" y2="19.9"/>
<line class="st1" x1="7.8" y1="18.2" x2="7.8" y2="19.9"/>
<line class="st1" x1="3.9" y1="16.4" x2="3.9" y2="18.4"/>
<line class="st1" x1="9.6" y1="16.5" x2="9.6" y2="18.5"/>
<line class="st1" x1="8.1" y1="19.8" x2="5.3" y2="19.8"/>
<path class="st0" d="M6.2,12.4l0.2,0.6c0.1,0.2,0.4,0.4,0.6,0.3c0.2,0,0.4-0.2,0.4-0.5c0,0,0,0,0-0.1c0-0.1-0.1-0.2-0.1-0.3
	c-0.2-0.2-0.5-0.2-0.7-0.1c-0.1,0.1-0.2,0.2-0.2,0.4c0,0.1,0.1,0.3,0.1,0.4l0.8-0.3l-0.1-0.1c-0.2-0.2-0.5-0.2-0.7-0.1
	c-0.1,0-0.2,0.1-0.2,0.2v0.2c-0.1,0.5,0.8,0.7,1,0.2v-0.2l-0.9,0.1c0.1,0.1,0.1,0.2,0.2,0.2c0.2,0.2,0.5,0.2,0.7,0
	c0.1-0.1,0.1-0.2,0.1-0.3c0-0.2,0-0.4-0.1-0.6l-0.9,0.3V13l1-0.2l-0.2-0.6c-0.1-0.2-0.4-0.4-0.6-0.3C6.4,11.9,6.3,12.1,6.2,12.4
	c0.1,0,0.1,0,0.1,0L6.2,12.4z"/>
<path class="st0" d="M7.2,12.8c0-0.2,0-0.3-0.1-0.4c-0.2-0.5-1-0.3-1,0.2v0.3L7,12.5l-0.1-0.2c-0.2-0.5-1-0.1-0.9,0.3l0.1,0.5
	c0.1,0.4,1,0.4,1-0.1L7.2,12.8c-0.2-0.5-1.1-0.5-1.1,0v0.3l1-0.1L7,12.4l-0.9,0.3l0.1,0.2c0.2,0.5,1,0.1,0.9-0.3v-0.3l-1,0.2
	c0,0.1,0,0.2,0,0.2C6.1,13.3,7.1,13.3,7.2,12.8L7.2,12.8z"/>
<path class="st0" d="M6.8,12.1H6.7c-0.1,0-0.3,0-0.3,0.2c0,0,0,0,0,0c0,0,0,0.1,0,0.1c0,0.3,0,0.6-0.1,0.9l0.4-0.1l0,0
	c0-0.1-0.2-0.2-0.3-0.2c0,0,0,0,0,0c-0.1,0-0.1,0.1-0.2,0.2v0.1c0,0.1,0,0.3,0.2,0.3c0.1,0,0.1,0,0.2,0l0,0c0.1-0.1,0.2-0.2,0.1-0.4
	l0,0c0-0.1-0.2-0.2-0.3-0.1c0,0,0,0,0,0l0,0c-0.1,0.1-0.1,0.2-0.2,0.4l0.5,0.1v-1.1c0-0.1-0.1-0.3-0.2-0.3c-0.1,0-0.3,0.1-0.3,0.2
	c0,0,0,0.1,0,0.1c0,0.3,0,0.6,0,0.9l0.5-0.1v-0.4c0-0.3-0.4-0.5-0.5-0.1V13l0.5,0.1v-0.1c0-0.1-0.1-0.3-0.2-0.3
	c-0.1,0-0.3,0.1-0.3,0.2c0,0,0,0.1,0,0.1v0.2c0,0.1,0.1,0.3,0.2,0.3c0.1,0,0.3-0.1,0.3-0.2c0,0,0-0.1,0-0.1v-0.2
	c0-0.1-0.1-0.3-0.2-0.3c-0.1,0-0.3,0.1-0.3,0.2c0,0,0,0.1,0,0.1v0.2c0,0.1,0.1,0.3,0.2,0.3c0.1,0,0.3-0.1,0.3-0.2c0,0,0-0.1,0-0.1
	v-0.2H6.1v0.2h0.5v-0.2H6.1v0.2c0,0.3,0.4,0.4,0.5,0.1V13l-0.5-0.1c0,0.2,0,0.4,0,0.7c0,0.1,0.1,0.2,0.3,0.2s0.2-0.1,0.2-0.3l0,0
	c0-0.3,0-0.6,0-0.9H6.1v1.1c0,0.1,0.1,0.3,0.2,0.3c0,0,0,0,0,0c0.1,0,0.2-0.1,0.2-0.2c0,0,0-0.1,0-0.1l-0.4-0.1l0,0l0.1-0.4l0,0
	l0.4,0.3v-0.1H6.2c0,0.1,0.1,0.2,0.1,0.3c0.1,0.1,0.2,0.1,0.3,0c0,0,0,0,0,0c0,0,0.1-0.1,0.1-0.1c0.1-0.3,0.1-0.7,0.1-1l-0.3,0.3
	h0.1c0.1,0,0.3-0.1,0.3-0.2c0,0,0,0,0,0C7,12.3,6.9,12.2,6.8,12.1L6.8,12.1z"/>
<path class="st0" d="M7.1,13.6v-0.6l-0.5,0.2l0.1,1.2c0,0.3,0.2,0.5,0.3,0.4c0.1-0.2,0.2-0.4,0.2-0.6V13H6.7c0,0.6,0,1.2,0.1,1.8
	c0,0.3,0.2,0.5,0.3,0.4c0.1-0.2,0.2-0.4,0.2-0.6v-1.5l-0.5,0.2c0,0.5,0.1,1.1,0.2,1.6s0.5,0.5,0.5-0.2l-0.1-1.6l-0.5,0.2L7,14.9
	c0,0.7,0.5,0.5,0.5-0.2s0-1.4-0.1-2.1S6.9,12.3,6.9,13L7,14c0,0.7,0.5,0.5,0.5-0.2v-1L7,13c0,0.3,0,0.7,0,1l0.5-0.2v-0.6L7,13.4
	c0,0.2,0,0.5,0,0.8c0,0.8,0.5,0.8,0.5,0c0-0.4,0-0.7,0-1.1c0-0.7-0.5-0.5-0.5,0.2c0,0.3,0,0.6,0,0.9c0,0.7,0.5,0.5,0.5-0.2
	c0-0.4,0-0.9,0-1.3c0-0.7-0.5-0.5-0.5,0.2v1l0.5-0.2l-0.1-1L7,13c0,0.6,0.1,1.1,0.1,1.7l0.5-0.2l-0.1-1.7c0-0.7-0.5-0.5-0.5,0.2
	l0,1.6l0.5-0.2c-0.1-0.5-0.1-1-0.2-1.6c0-0.3-0.2-0.5-0.3-0.4c-0.1,0.2-0.2,0.4-0.2,0.6v1.5l0.5-0.2c0-0.5-0.1-1-0.1-1.4
	c0-0.3-0.1-0.6-0.3-0.6S6.7,12.6,6.7,13v1.3l0.5-0.1l-0.1-1.2C7,12.3,6.6,12.4,6.6,13v0.6C6.6,14.4,7.1,14.4,7.1,13.6L7.1,13.6z"/>
</svg>
