<?xml version="1.0" encoding="utf-8"?>
<!-- Generator: Adobe Illustrator 22.1.0, SVG Export Plug-In . SVG Version: 6.00 Build 0)  -->
<svg version="1.1" id="Layer_1" xmlns="http://www.w3.org/2000/svg" xmlns:xlink="http://www.w3.org/1999/xlink" x="0px" y="0px"
	 viewBox="0 0 200 600" style="enable-background:new 0 0 200 600;" xml:space="preserve">
<style type="text/css">
	.st0{fill:#0D0800;}
</style>
<g>
	<g>
		<g>
			<g>
				<path class="st0" d="M41.2,293.1c-5.1,1.9-4.8-5.2-3.4-7c0.3-0.4,1.3-0.3,1.6-0.8c0.9-1.5,0.9-1.9,1.2-3.7
					c0.6-3.7,1.3-3.4,4.5-3.6c2.2-0.1,4.6-0.9,4.8,2.6c0.1,1.7-0.8,9.2-2,3.6c-0.4,0.5-0.8,1-1.2,1.5c-0.9-1.3-1.8-2.6-2.7-3.9
					c-0.6,0-1.1,0-1.7,0c1-0.8,2-1.6,2.9-2.4c-0.3-0.7-0.6-1.4-0.8-2c-0.5,0.2-1.1,0.4-1.6,0.6c0.1,0.8,0.2,1.6,0.3,2.4
					c1.4,0.9,2.9,1.9,4.3,2.8c0.4-0.5,0.8-1,1.2-1.5c-0.4-0.7-0.7-1.4-1.1-2.2c-0.7,0-1.4,0-2.1,0c1.1,2.3,2.1,4.7,3,7.1
					c0.7-0.3,1.5-0.6,2.2-0.9c-1.4-1.9-1.8-4-1.1-6.4c-0.5,0.3-1,0.6-1.5,0.8c-0.2,0.1-0.3,0.2-0.5,0.3c0.6,0.1,1.3,0.2,1.9,0.2
					c0-0.2,0-0.4,0-0.5c-0.5-0.1-1.1-0.3-1.6-0.4c0.2,0.3,0.3,0.7,0.5,1c0.7,1.4,2.7,0.2,2.1-1.2c-1-2.3-2.4,6-2.4,6.4
					c-0.2,1.5,0.1,5.6-0.8,6.7c-4.8,2.7-7.2,0.7-7.1-5.9c1.7-2.2,2.1-1.7,1.3,1.6c0.5-0.3,1-0.6,1.5-0.8c-0.6-0.8-1.2-1.5-1.8-2.3
					c-0.4,0.4-0.8,0.8-1.2,1.2c1.4,0,2.6,4.2,2.9,5.2c0.5-0.5,1-1,1.5-1.5c-0.4,0.6-0.9,1.3-1.3,1.9c0.7-0.3,1.4-0.6,2-0.8
					c-0.2,0.8-0.4,1.7-0.6,2.5c0.7-0.1,1.5-0.2,2.2-0.3c-1-4-1-4-0.2,0c0.7-0.4,1.3-0.8,2-1.2c0.2-0.1,0.4-0.2,0.6-0.2
					c0.4,1,2,1.2,2.3,0c0.4-1.6,0.3-2.6-0.5-4c-0.7,0.4-1.4,0.8-2.1,1.2c0.8,1.2,1.6,2.3,2.4,3.5c0.9,1.3,2.7,0.2,2.1-1.2
					c-0.5-1.1-1-2.1-1.5-3.2c-0.7,0.4-1.4,0.8-2.1,1.2c1.5,2.7,1.9,6.3,0.3,9.1c-0.5,0.6-1,1.3-1.4,1.9c-2.3,2.7-3.4,1.6-3.2-3.2
					c-0.6-0.1-1.3-0.2-1.9-0.2c0.1,0.6,0.1,1.2,0.2,1.9c0.7,0.3,1.5,0.6,2.2,0.9c0.1-0.2,0.2-0.3,0.4-0.5c-0.6-0.2-1.2-0.5-1.8-0.7
					c0,1.1,0,2.2,0.1,3.3c-0.1,1,0.8,2,1.8,1.4c3.6-2.2,2.5-7.4,2.6-11c-0.8,0.1-1.6,0.2-2.4,0.3c0.8,1.9,1,3.6,0.8,5.6
					c0.8,0,1.6,0,2.4,0c0.1-1.4,0.4-2.7,0.9-4c-0.8,0-1.5,0-2.3,0c0.1,1.1,0.2,2.2,0.4,3.3c0.8-0.1,1.6-0.2,2.4-0.3
					c0-1.1-0.1-2.2-0.1-3.3c-0.7,0.3-1.4,0.6-2,0.8c0.1,0.2,0.2,0.4,0.3,0.6c0.7-0.3,1.5-0.6,2.2-0.9c-0.3-0.8-0.5-1.7-0.8-2.5
					c-0.4,0.5-0.8,1-1.2,1.5c1.3-0.1,1.5-0.1,2.2-1.2c-0.7-0.1-1.5-0.2-2.2-0.3c0.5,1.8,1.5,6.5-1,6.3c-1,0-1.6-0.6-1.9-1.7
					c0.2,1,0.7,1.8,1.4,2.5c0.5-0.6,1-1.3,1.5-1.9c-0.6-0.5-1.3-1-1.9-1.5c-0.6,0.5-1.3,1-1.9,1.5c1.1,0.7,2,1.7,2.6,2.9
					c0.3-0.6,0.7-1.2,1-1.8c-2.6-0.2-4.2,1-6.6,1.7c-4.5,1.4-7.1-0.6-7.2-5.4c0-1.5,0.5-2.8,0.3-4.4c-0.8,0-1.6,0-2.4,0
					c0.3,1.2,0.3,2.5,0,3.7c0.7-0.2,1.5-0.4,2.2-0.6c0-0.1,0-0.2,0.1-0.3c-0.6,0.2-1.2,0.5-1.8,0.7c1.2,0.8,2.4,1.6,3.6,2.4
					c-0.5,0.3-1,0.6-1.5,0.8c0.5,0.6,1,1.2,1.6,1.8c0.5-0.5,1-1,1.5-1.5c-0.5-0.4-1.1-0.8-1.6-1.2c-0.5,0.5-1,1-1.5,1.5
					c0.2,0.2,0.5,0.5,0.7,0.7c0.5-0.5,1-1,1.5-1.5c-0.5-0.6-0.9-1.1-1.4-1.7c-0.7,0.3-1.5,0.6-2.2,0.9c0.9,1.2,1.7,2.2,2.8,3.2
					s2.8-0.7,1.7-1.7c-1-0.8-1.8-1.7-2.4-2.7c-0.8-1.1-2.5-0.4-2.2,0.9c0.4,2,1.2,2.7,3.1,3.3c0.8,0.3,1.8-0.6,1.5-1.5
					c-0.6-1.7-0.7-1.8-2.4-2.4c-0.8-0.3-1.8,0.7-1.5,1.5c0.6,1.8,1.4,2.6,3.3,2.8c0.9,0.1,1.7-0.5,1.5-1.5c-0.5-2-1.3-2.8-3.3-3.4
					c-0.6-0.2-1.4,0.2-1.5,0.8c0,0.2-0.1,0.4-0.1,0.6c-0.1,0.6,0.1,1,0.6,1.4c0.2,0.1,0.3,0.3,0.5,0.4c0.3,0.3,0.9,0.2,1.2,0
					c3.4-1.7-0.4-5-2.2-6.1c-0.7-0.4-1.5,0-1.8,0.7c-0.3,0.9-0.2,1.3,0.2,2.1c0.5,1.2,2.1,0.4,2.2-0.6c0.3-1.2,0.3-2.5,0-3.7
					c-0.2-1.5-2.6-1.5-2.4,0c0.5,4.5-1.8,8.3,2.6,11.5c4.8,3.5,8.4-1.5,13.3-1c0.9,0.1,1.5-1.1,1-1.8c-0.9-1.4-1.7-2.3-3-3.4
					c-1-0.8-2.7,0.2-1.9,1.5c0.8,1.1,1.5,1.8,2.8,2.4s2.3-0.8,1.5-1.9c-1.4-1.8-3.8-4.7-6.1-2.9c-0.3,0.2-0.4,0.8-0.3,1.2
					c0.7,1.9,3.6,7.6,6.5,6.5c3.5-1.3,2.7-8.2,2.1-10.8c-0.3-1-1.7-1.1-2.2-0.3c-0.1,0-0.1,0-0.2,0c-0.8,0-1.3,0.7-1.2,1.5
					c0.3,1.7,0.3,1.5,1,3.1c0.6,1.3,2.5,0.3,2.2-0.9c-0.2-0.8-0.3-1-0.9-1.6c-0.8-0.8-2-0.1-2,0.8c-0.2,2.2-0.2,1.7,0.2,3.9
					c0.2,1.3,2.4,1,2.4-0.3c-0.1-1.9-0.1-2.1-0.5-3.9c-0.2-1.2-2-1.1-2.3,0c-0.5,1.6-0.8,3-0.9,4.7c-0.2,1.5,2.2,1.5,2.4,0
					c0.3-2.3,0-4.1-0.9-6.2c-0.5-1.2-2.3-1.1-2.4,0.3c0,2.1,0.8,7.6-1.4,8.9c0.6,0.5,1.2,0.9,1.8,1.4c0.2-1.6,0.2-3-0.1-4.6
					c-0.1-0.7-1.2-1.2-1.8-0.7c-0.9,0.7-1.1,0.9-1.5,1.9c-0.5,1.3,1.6,2.1,2.2,0.9c0.8-1.7,0.8-2.7-0.2-4.3
					c-0.4-0.7-1.3-0.8-1.9-0.2c-1.4,1.3-3,3.2-1.6,5.2c0.8,1.1,2.4,1.7,3.6,0.8c3.4-2.4-1.5-7.8-4.8-4.9c-2.7,2.3,0.1,7,2.7,4.2
					c2.3-2.6-2-5.6-3.6-2.4c-0.2,0.4-0.2,0.8,0,1.2c1.1,1.7,3,2.6,4.8,1.3c0.3-0.2,0.7-0.6,0.6-1c-0.4-3.4-5.4-3.7-5.6,0
					c-0.1,3.1,3.9,4.3,5.7,1.9c1.8-2.5-0.8-6.6-3.8-5.4c-2.9,1.2-2,6.8,1.4,6.4c3.6-0.4,2.6-6.1,0.2-7.4c-4-2.2-6.9,2.8-5.5,6.2
					c1.9,4.6,7.9,4.1,11.3,1.6c4.9-3.6,5.5-9.9,2.7-15c-0.7-1.4-2.7-0.2-2.1,1.2c0.5,1.1,1,2.1,1.5,3.2c0.7-0.4,1.4-0.8,2.1-1.2
					c-0.8-1.2-1.6-2.3-2.4-3.5c-0.9-1.3-2.8-0.2-2.1,1.2c0.1,0.7,0.2,1.4,0.3,2.2c0.8,0,1.5,0,2.3,0c-1.9-4.8-7.8-1.3-4.6,2.6
					c0.8,1,2.3-0.1,2-1.2c-0.6-2.7-4-4.5-4.6-0.8c-0.3,1.9,1.5,4.7,3.5,3.1c1.7-1.3,1.3-6.6-1-7.3c-4-1.1-2.9,5-2,6.7
					c0.4,0.9,2,0.7,2.2-0.3c0.4-2.2,0.4-8.4-3.4-7.7c-3.7,0.7-1.5,4.7,0,6.2c0.8,0.7,2,0.2,2-0.8c0.2-2.7-1.9-6.6-5-4.7
					c-0.5,0.3-0.6,0.8-0.6,1.4c0.3,2.2,1.9,3.2,3.9,3.7c0.9,0.2,1.8-0.6,1.5-1.5c-0.8-2.5-2-7.1-5.2-7c-0.6,0-1.3,0.5-1.2,1.2
					c0.3,2.4,1.3,3.7,3.6,4.6c0.6,0.2,1.4-0.2,1.5-0.8c0.5-2.5,0.8-7.2-3-6c-1.8,0.6-7.8,6.7-3.6,8.3c2.3,0.8,4.1-2.3,2.2-3.8
					c-1.8-1.5-4.4,0.7-3.6,2.8c1,2.8,4.9,1.8,5.4-0.8c0.5-2.5-1.7-3.9-3.8-2.6c-2.3,1.4-2.4,5.7,0.8,5.9c3,0.3,3.2-3.2,1.2-4.6
					c-0.4-0.2-0.8-0.2-1.2,0c-2.2,1.1-3.1,4.9-0.1,5.8c2.1,0.7,4.1-1.7,2.5-3.5c-1.9-2-4.7,0.3-4.3,2.6c0.5,3.1,4.6,3.8,6.3,1.3
					c1.2-1.8,0.4-4.9-2.1-4.5c-2.8,0.5-2.8,4.5-1.1,6.1c2.3,2.1,6.4,0.2,6.2-2.9c-0.1-2.1-2.6-3.8-4.3-2.1c-2.4,2.4,0,8.2,3.3,8.4
					c3.8,0.3,3.7-4.5,2-6.6c-0.3-0.3-0.8-0.4-1.2-0.3c-2.6,0.5-3.8,5-1.5,6.7c3.8,2.8,5.4-3.2,5.8-5.6c0.3-2.2,0.5-4.5,0.8-6.7
					c0.3-2.5,1.2-4.7,1.7-7.1c0.2-1,0.7-1.7-0.4-2.5c-2.5-2-4,1.6-3.2,3.5c0.7-0.4,1.4-0.8,2.1-1.2c-0.2-0.3-0.3-0.7-0.5-1
					c-0.3-0.5-1.1-0.8-1.6-0.4c-1.5,1.1-1.8,2.2-0.9,3.8c0.4,0.6,1.4,0.8,1.9,0.2c1.6-1.7,1.6-3.8-0.8-4.6c-0.5-0.2-1.1,0.1-1.4,0.6
					c-0.1,0.2-0.3,0.4-0.4,0.7c-0.2,0.3-0.2,0.9,0,1.2c2.2,2.9,5-0.9,2-2.2c-0.6-0.2-1.3,0.3-1.5,0.8c-0.7,3.1-0.3,5.5,1.3,8.2
					c0.7,1.1,2.7,0.4,2.2-0.9c-0.7-1.8-1.7-6.8-4.7-6c-1.6,0.4-1.9,2-1.4,3.5c0.5,1.4,2.1,3,3.7,2c2.3-1.5,0.2-5.6-0.8-7.2
					c-0.5-0.8-1.6-0.8-2.1,0c-1.8,2.8-0.1,5.7,3.2,5.8c0.8,0,1.3-0.8,1.2-1.5c-0.8-3.5-3.8-5.3-7.3-4.5c-1.4,0.3-0.9,2.2,0.3,2.4
					c1.5,0.2,2.3-0.2,3.3-1.3c0.7-0.8,0.2-2-0.8-2c-2.3-0.2-7.9,2.6-4.2,5.2c2.3,1.6,4.2-1.3,2.5-3.1c-0.3-0.3-0.8-0.4-1.2-0.3
					c-2.3,0.6-2.4,3.9,0.2,4.1c3.1,0.3,2.7-3,1-4.4c-0.4-0.3-1.1-0.2-1.5,0.2c-1.5,1.6-2.9,5.8,0.8,5.8c2.7,0,2.9-3,1.1-4.4
					c-0.5-0.4-1.2-0.5-1.7,0c-1.7,1.8-2.6,6.4,1.5,6.2c2.6-0.2,3-3.2,1.1-4.5c-0.3-0.2-0.9-0.2-1.2,0c-2.2,1.5-2.3,5.4,0.8,6
					c3.3,0.6,4.2-3.5,1.5-4.9c-0.5-0.2-1.1-0.2-1.5,0.2c-2.3,2.3-1.2,7.1,2.7,5.8c2.8-0.9,2.6-5.3-0.5-5.4c-0.8,0-1.3,0.8-1.2,1.5
					c0.4,1.7,2.1,6,4.5,5.3c0.9-0.3,1.2-1,1.5-1.8c0.3-0.9,0.1-2,0.1-2.9c0.1-1.7,0.6-3.3,0.9-5c0.6-2.8,0.7-4.5-2.6-5
					c-2.6-0.4-9.4-0.8-11.4,1.7c-0.9,1.1-0.6,1.8-0.7,3.1c-0.3,2.2,1,0.6-2,3.8c-0.4,0.4-1.1,0.5-1.4,1c-2,3.1-0.2,6.9,1.8,9.7
					c4.2,6.2,7.9-2.5,3.6-2.4c-0.5,0-1,0.4-1.2,0.9c-1.2,4,6.1,3.6,3.9-0.6c-0.2-0.4-0.6-0.6-1-0.6c-1.3-0.1-1.5,0.1-2.2,1.2
					c-0.3,0.4-0.2,1.1,0.2,1.5c0.2,0.2,0.3,0.4,0.5,0.5c0.3,0.3,0.8,0.5,1.2,0.3c0.2-0.1,0.4-0.2,0.6-0.2
					C43.3,294.8,42.7,292.5,41.2,293.1L41.2,293.1z"/>
			</g>
			<ellipse class="st0" cx="37.3" cy="298" rx="2.2" ry="1.5"/>
			<ellipse class="st0" cx="41.6" cy="285" rx="2.3" ry="4.5"/>
			<ellipse class="st0" cx="34.5" cy="290" rx="1" ry="4.6"/>
		</g>
		<g>
			<g>
				<path class="st0" d="M40,299c1.5,0,1.5-2.4,0-2.4S38.5,299,40,299L40,299z"/>
			</g>
		</g>
		<g>
			<g>
				<path class="st0" d="M39.8,298.7c1.5,0,1.5-2.4,0-2.4C38.3,296.3,38.3,298.7,39.8,298.7L39.8,298.7z"/>
			</g>
		</g>
		<g>
			<g>
				<path class="st0" d="M38.8,299.4c-0.6-0.9-1-1.8-1.1-3c-0.6,0.3-1.2,0.7-1.8,1c0.5,0.5,0.9,1,1.4,1.5c0.6-0.5,1.2-0.9,1.8-1.4
					c-0.9-0.5-2-1.4-2.7-2.1c-1-0.9-0.6,0.5-1.1-1.5c-0.5-1.6-0.1-3.1,1.2-4.3c0.4-0.4,1.1-0.6,1.5-1.1c1.2-1.4,1.5-5.3,3.7-5.6
					c1.5-0.2,0.9-2.5-0.6-2.3c-2.2,0.3-3.1,1.8-3.8,3.8c-0.4,1.1-0.5,1.8-1.4,2.7c-0.5,0.4-0.9,0.5-1.3,0.9c-0.7,0.6-1,1-1.3,1.9
					c-0.5,1.5-1.4,4.7-0.4,6.3c0.5,0.8,1.1,0.8,1.7,1.2c1.1,0.7,2.3,1.6,3.5,2.3c0.8,0.5,2.1-0.3,1.8-1.4c-0.5-1.4-1.1-2.2-2.5-2.9
					c-0.7-0.4-1.9,0.1-1.8,1c0.2,1.6,0.5,2.8,1.4,4.2C37.6,302,39.6,300.8,38.8,299.4L38.8,299.4z"/>
			</g>
		</g>
		<g>
			<g>
				<g>
					<path class="st0" d="M37.7,278c0.4,1.7,0.5,3.4,0.3,5.2c-0.1,0.8,1.1,0.8,1.2,0c0.2-1.9,0.1-3.7-0.4-5.5
						C38.7,276.9,37.5,277.3,37.7,278L37.7,278z"/>
				</g>
			</g>
			<g>
				<g>
					<path class="st0" d="M38.2,283c-2,0.1-4.3,0.4-5.3,2.4c-0.4,0.9-0.2,1.5-0.3,2.5c-0.1,2.2-0.7,4.2-1,6.4
						c-0.6,5.6,4.4,9.6,9.5,10.7c0.8,0.2,1.1-1,0.3-1.2c-5-1.1-9.4-5.1-8.4-10.6c0.6-3.5,0.1-8.7,5.1-9
						C38.9,284.2,38.9,283,38.2,283L38.2,283z"/>
				</g>
			</g>
			<g>
				<g>
					<path class="st0" d="M41,305.5c1.9,0.1,3.5,0,5.1-1c1.4-0.9,2.4-2.1,3.9-2.9c0.7-0.4,1.2-0.6,1.7-1.3c3.1-3.7,1.7-11,0.1-15
						c-0.3-0.7-1.4-0.4-1.2,0.3c1.6,4.1,2.7,9.8-0.2,13.5c-1.9,2.4-6.5,5.4-9.5,5.2C40.2,304.3,40.2,305.5,41,305.5L41,305.5z"/>
				</g>
			</g>
			<g>
				<g>
					<path class="st0" d="M51.8,285.5c0.1-2.2,0.5-4.3,1.1-6.3c0.2-0.7-0.9-1.1-1.2-0.3c-0.6,2.2-1,4.4-1.1,6.7
						C50.6,286.3,51.8,286.3,51.8,285.5L51.8,285.5z"/>
				</g>
			</g>
			<g>
				<g>
					<path class="st0" d="M38.6,278.7c0-1.2,2.9-1.9,3.8-1.9c0.9,0,1.8,0,2.8,0.1c0.9,0,7.7-0.2,6.8,2c-0.3,0.7,0.9,1,1.2,0.3
						c1.6-3.9-4.9-3.4-6.9-3.4c-2.6-0.1-9-1.3-8.9,3C37.5,279.4,38.7,279.4,38.6,278.7L38.6,278.7z"/>
				</g>
			</g>
		</g>
	</g>
	<g>
		<g>
			<g>
				<path class="st0" d="M158.6,296.4c0.2,0.1,0.4,0.2,0.6,0.2c0.4,0.1,0.9,0,1.2-0.3c0.2-0.2,0.3-0.4,0.5-0.5
					c0.3-0.4,0.5-1,0.2-1.5c-0.7-1-0.9-1.2-2.2-1.2c-0.4,0-0.8,0.2-1,0.6c-2.2,4.2,5.2,4.6,3.9,0.6c-0.2-0.5-0.6-0.9-1.2-0.9
					c-4.4,0-1,8.1,3.2,3.1c1.8-2.2,4.4-7.5,2.2-10.3c-0.4-0.5-1-0.6-1.4-1.1c-0.6-0.2-1.1-0.7-1.3-1.4c-1.1-0.6-1.4-1.5-0.8-2.5
					c-0.2-1.4,0.2-1.9-0.7-3.1c-2.1-2.5-7.9-1.8-10.6-1.7c-3.1,0.1-4.3,1.2-3.6,4.4c0.3,1.5,1,3.1,1.2,4.7c0.1,1.1-0.3,2.7,0.1,3.8
					c0.3,0.7,0.5,1.4,1.3,1.7c2.6,0.8,4.3-3.4,4.7-5.2c0.2-0.7-0.3-1.5-1.2-1.5c-3.1,0.1-3.3,4.5-0.5,5.4c3.9,1.3,5-3.5,2.7-5.8
					c-0.4-0.4-1-0.4-1.5-0.2c-2.7,1.4-1.9,5.5,1.5,4.9c3.1-0.6,3-4.5,0.8-6c-0.3-0.2-0.9-0.2-1.2,0c-1.8,1.3-1.4,4.3,1.1,4.5
					c4,0.3,3.1-4.4,1.5-6.2c-0.5-0.5-1.2-0.4-1.7,0c-1.8,1.5-1.6,4.4,1.1,4.4c3.7,0.1,2.3-4.2,0.8-5.8c-0.3-0.3-1-0.5-1.5-0.2
					c-1.7,1.3-2.1,4.7,1,4.4c2.6-0.3,2.5-3.5,0.2-4.1c-0.4-0.1-0.9,0-1.2,0.3c-1.6,1.8,0.3,4.8,2.5,3.1c3.7-2.6-2-5.4-4.2-5.2
					c-1,0.1-1.6,1.2-0.8,2c1,1.1,1.8,1.4,3.3,1.3c1.2-0.1,1.8-2,0.3-2.4c-3.5-0.8-6.5,1-7.3,4.5c-0.2,0.7,0.4,1.5,1.2,1.5
					c3.3-0.1,5-2.9,3.2-5.8c-0.5-0.8-1.6-0.8-2.1,0c-1,1.6-3,5.5-0.9,7.1c1.5,1.1,3.3-0.5,3.8-1.9c0.5-1.3,0.3-3-1.2-3.4
					c-3.1-1-4.2,4.2-4.9,5.9c-0.5,1.3,1.5,2,2.2,0.9c1.7-2.7,2-5.2,1.3-8.2c-0.1-0.6-0.9-1.1-1.5-0.8c-3,1.2-0.2,5.1,2,2.2
					c0.2-0.3,0.2-0.9,0-1.2c-0.1-0.2-0.3-0.4-0.4-0.7c-0.3-0.4-0.8-0.7-1.4-0.6c-2.4,0.8-2.3,2.9-0.8,4.6c0.5,0.6,1.5,0.4,1.9-0.2
					c1-1.6,0.6-2.7-0.9-3.8c-0.5-0.4-1.4-0.1-1.6,0.4c-0.2,0.3-0.3,0.7-0.5,1c0.7,0.4,1.4,0.8,2.1,1.2c0.8-1.8-0.5-5.3-3.1-3.6
					c-0.9,0.6-0.8,1.4-0.7,2.2c0.5,0.9,0.9,1.8,1.3,2.8c0.2,1.6,0.4,3.2,0.6,4.7c0.3,2.2,0.5,4.5,0.8,6.7c0.3,2.4,1.8,8.2,5.6,5.7
					c2.5-1.6,1.3-6.3-1.4-6.8c-0.4-0.1-0.9,0-1.2,0.3c-1.6,1.9-2,5.6,1,6.4c3.4,0.9,5.3-3.4,5-6.1c-0.3-2.3-2.6-4.2-4.4-1.7
					c-2,2.6,1.2,6.2,4.1,5.5c7.3-1.8-1.2-11-2.3-4.8c-0.6,3.4,3.8,5.2,6,2.8c1.6-1.7,1-5.1-1.7-5.1c-2.5,0-3.2,3.6-0.6,4.3
					c3.7,1,4-4.5,1.3-5.9c-0.4-0.2-0.8-0.2-1.2,0c-2.1,1.4-1.8,4.9,1.2,4.6c3.2-0.3,3.1-4.5,0.8-5.9c-2.1-1.3-4.3,0.1-3.8,2.6
					s4.4,3.5,5.4,0.8c0.7-2-1.8-4.2-3.6-2.8c-1.9,1.5-0.1,4.7,2.2,3.8c4.3-1.6-1.7-7.7-3.6-8.3c-3.8-1.2-3.5,3.5-3,6
					c0.1,0.6,0.9,1,1.5,0.8c2.3-0.8,3.3-2.2,3.6-4.6c0.1-0.7-0.6-1.2-1.2-1.2c-3.2-0.1-4.5,4.5-5.2,7c-0.3,0.9,0.6,1.7,1.5,1.5
					c2-0.5,3.6-1.5,3.9-3.7c0.1-0.5-0.1-1.1-0.6-1.4c-3.1-1.9-5.2,1.9-5,4.7c0.1,1,1.3,1.6,2,0.8c1.5-1.5,3.7-5.5,0-6.2
					c-3.8-0.7-3.8,5.5-3.4,7.7c0.2,1,1.7,1.2,2.2,0.3c0.9-1.7,2-7.8-2-6.7c-2.2,0.6-2.6,6-1,7.3c2,1.6,3.8-1.3,3.5-3.1
					c-0.6-3.8-4-2-4.6,0.8c-0.2,1.1,1.2,2.2,2,1.2c3.2-3.8-2.7-7.4-4.6-2.6c0.8,0,1.5,0,2.3,0c0.1-0.7,0.2-1.4,0.3-2.2
					c0.8-1.4-1.2-2.5-2.1-1.2c-0.8,1.2-1.6,2.3-2.4,3.5c0.7,0.4,1.4,0.8,2.1,1.2c0.5-1.1,1-2.1,1.5-3.2c0.7-1.4-1.3-2.6-2.1-1.2
					c-2.8,5.1-2.2,11.4,2.7,15c3.4,2.5,9.4,3,11.3-1.6c1.4-3.4-1.5-8.4-5.5-6.2c-2.4,1.3-3.4,7,0.2,7.4c3.3,0.4,4.2-5.2,1.4-6.4
					c-3-1.3-5.7,2.9-3.8,5.4c1.8,2.4,5.8,1.2,5.7-1.9c-0.2-3.7-5.1-3.4-5.6,0c-0.1,0.4,0.3,0.8,0.6,1c1.8,1.3,3.7,0.4,4.8-1.3
					c0.2-0.4,0.2-0.8,0-1.2c-1.6-3.1-5.9-0.4-3.7,2.3c2.4,3,5.7-1.5,2.8-4c-3.2-2.8-8.2,2.2-5,4.8c1.1,0.9,2.8,0.5,3.6-0.6
					c1.5-1.9-0.1-4-1.5-5.3c-0.6-0.5-1.4-0.4-1.9,0.2c-1.1,1.6-1,2.6-0.2,4.3c0.6,1.2,2.7,0.3,2.2-0.9c-0.4-1-0.6-1.3-1.5-1.9
					c-0.6-0.5-1.6,0-1.8,0.7c-0.3,1.6-0.3,3-0.1,4.6c0.6-0.5,1.2-0.9,1.8-1.4c-2.2-1.3-1.4-6.9-1.4-8.9c0-1.4-1.9-1.5-2.4-0.3
					c-0.9,2.2-1.1,3.9-0.9,6.2c0.2,1.5,2.6,1.5,2.4,0c-0.2-1.6-0.5-3.1-0.9-4.7c-0.3-1.1-2.1-1.2-2.3,0c-0.3,1.8-0.4,2.1-0.5,3.9
					c-0.1,1.3,2.1,1.7,2.4,0.3c0.4-2.2,0.4-1.7,0.2-3.9c-0.1-1-1.3-1.6-2-0.8c-0.6,0.6-0.7,0.8-0.9,1.6c-0.3,1.3,1.6,2.2,2.2,0.9
					c0.7-1.6,0.7-1.4,1-3.1c0.1-0.8-0.3-1.5-1.2-1.5c-0.1,0-0.1,0-0.2,0c-0.5-0.8-1.9-0.7-2.2,0.3c-0.7,2.7-1.4,9.5,2.1,10.8
					c2.9,1.1,5.8-4.7,6.5-6.5c0.1-0.4,0-0.9-0.3-1.2c-2.4-1.8-4.7,1.1-6.1,2.9c-0.8,1.1,0.2,2.5,1.5,1.9s2-1.2,2.8-2.4
					c0.8-1.2-0.9-2.2-1.9-1.5c-1.3,1-2.1,2-3,3.4c-0.4,0.7,0.1,1.9,1,1.8c4.9-0.5,8.5,4.6,13.3,1c4.4-3.2,2.1-7,2.6-11.5
					c0.2-1.5-2.2-1.5-2.4,0c-0.3,1.2-0.3,2.5,0,3.7c0.1,1,1.7,1.8,2.2,0.6c0.4-0.9,0.5-1.2,0.2-2.1c-0.2-0.7-1.1-1.1-1.8-0.7
					c-1.9,1.1-5.6,4.4-2.2,6.1c0.4,0.2,0.9,0.3,1.2,0c0.2-0.1,0.3-0.3,0.5-0.4c0.5-0.3,0.7-0.8,0.6-1.4c0-0.2-0.1-0.4-0.1-0.6
					c-0.1-0.6-0.9-1-1.5-0.8c-1.9,0.7-2.7,1.4-3.3,3.4c-0.3,1,0.6,1.6,1.5,1.5c1.9-0.3,2.6-1.1,3.3-2.8c0.3-0.8-0.6-1.8-1.5-1.5
					c-1.7,0.6-1.8,0.7-2.4,2.4c-0.3,0.9,0.7,1.7,1.5,1.5c1.9-0.6,2.7-1.4,3.1-3.3c0.3-1.4-1.4-2-2.2-0.9c-0.7,1-1.5,2-2.4,2.7
					c-1.1,1,0.6,2.7,1.7,1.7c1.1-1,2-2,2.8-3.2c-0.7-0.3-1.5-0.6-2.2-0.9c-0.5,0.6-0.9,1.1-1.4,1.7c0.5,0.5,1,1,1.5,1.5
					c0.2-0.2,0.5-0.5,0.7-0.7c-0.5-0.5-1-1-1.5-1.5c-0.5,0.4-1.1,0.8-1.6,1.2c0.5,0.5,1,1,1.5,1.5c0.5-0.6,1-1.2,1.6-1.8
					c-0.5-0.3-1-0.6-1.5-0.8c1.2-0.8,2.4-1.6,3.6-2.4c-0.6-0.2-1.2-0.5-1.8-0.7c0,0.1,0,0.2,0.1,0.3c0.7,0.2,1.5,0.4,2.2,0.6
					c-0.3-1.2-0.3-2.5,0-3.7c-0.8,0-1.6,0-2.4,0c-0.1,1.1-0.1,2,0.1,3.1c0.5,5-1.6,8.3-7,6.6c-2.4-0.7-3.9-1.9-6.6-1.7
					c0.3,0.6,0.7,1.2,1,1.8c0.6-1.2,1.5-2.1,2.6-2.9c-0.6-0.5-1.3-1-1.9-1.5c-0.6,0.5-1.3,1-1.9,1.5c0.5,0.6,1,1.3,1.5,1.9
					c0.7-0.7,1.2-1.5,1.4-2.5c-0.3,1.1-0.9,1.6-1.9,1.7c-2.5,0.1-1.5-4.5-1-6.3c-0.7,0.1-1.5,0.2-2.2,0.3c0.7,1.1,0.9,1.2,2.2,1.2
					c-0.4-0.5-0.8-1-1.2-1.5c-0.3,0.8-0.5,1.7-0.8,2.5c0.7,0.3,1.5,0.6,2.2,0.9c0.1-0.2,0.2-0.4,0.3-0.6c-0.7-0.3-1.4-0.6-2-0.8
					c0,1.1-0.1,2.2-0.1,3.3c0.8,0.1,1.6,0.2,2.4,0.3c0.1-1.1,0.2-2.2,0.4-3.3c-0.8,0-1.5,0-2.3,0c0.5,1.3,0.8,2.6,0.9,4
					c0.8,0,1.6,0,2.4,0c-0.2-2,0-3.7,0.8-5.6c-0.8-0.1-1.6-0.2-2.4-0.3c0,3.6-1,8.8,2.6,11c1,0.6,1.9-0.4,1.8-1.4
					c0-1.1,0-2.2,0.1-3.3c-0.6,0.2-1.2,0.5-1.8,0.7c0.1,0.2,0.2,0.3,0.4,0.5c0.7-0.3,1.5-0.6,2.2-0.9c0.1-0.6,0.1-1.2,0.2-1.9
					c-0.6,0.1-1.3,0.2-1.9,0.2c0.3,4.5-0.4,5.8-2.2,3.9c-1-0.6-1.8-1.5-2.4-2.6c-1.6-2.9-1.2-6.2,0.3-9.1c-0.7-0.4-1.4-0.8-2.1-1.2
					c-0.5,1.1-1,2.1-1.5,3.2c-0.7,1.4,1.2,2.5,2.1,1.2c0.8-1.2,1.6-2.3,2.4-3.5c-0.7-0.4-1.4-0.8-2.1-1.2c-0.8,1.4-0.9,2.4-0.5,4
					c0.3,1.2,1.9,1,2.3,0c0.2,0.1,0.4,0.2,0.6,0.2c0.7,0.4,1.3,0.8,2,1.2c0.8-4,0.7-4-0.2,0c0.7,0.1,1.5,0.2,2.2,0.3
					c-0.2-0.8-0.4-1.7-0.6-2.5c0.7,0.3,1.4,0.6,2,0.8c-0.4-0.6-0.9-1.3-1.3-1.9c0.5,0.5,1,1,1.5,1.5c0.3-1,1.5-5.2,2.9-5.2
					c-0.4-0.4-0.8-0.8-1.2-1.2c-0.6,0.8-1.2,1.5-1.8,2.3c0.5,0.3,1,0.6,1.5,0.8c-0.8-3.3-0.4-3.9,1.3-1.6c0.1,6.6-2.2,8.6-7.1,5.9
					c-0.9-1.1-0.6-5.3-0.8-6.7c-0.1-0.4-1.5-8.7-2.4-6.4c-0.6,1.4,1.4,2.6,2.1,1.2c0.2-0.3,0.3-0.7,0.5-1c-0.5,0.1-1.1,0.3-1.6,0.4
					c0,0.2,0,0.4,0,0.5c0.6-0.1,1.3-0.2,1.9-0.2c-0.2-0.1-0.3-0.2-0.5-0.3c-0.5-0.3-1-0.6-1.5-0.8c0.7,2.4,0.3,4.5-1.1,6.4
					c0.7,0.3,1.5,0.6,2.2,0.9c0.9-2.4,1.9-4.8,3-7.1c-0.7,0-1.4,0-2.1,0c-0.4,0.7-0.7,1.4-1.1,2.2c0.4,0.5,0.8,1,1.2,1.5
					c1.4-0.9,2.9-1.9,4.3-2.8c0.1-0.8,0.2-1.6,0.3-2.4c-0.5-0.2-1.1-0.4-1.6-0.6c-0.3,0.7-0.6,1.4-0.8,2c1,0.8,2,1.6,2.9,2.4
					c-0.6,0-1.1,0-1.7,0c-0.9,1.3-1.8,2.6-2.7,3.9c-0.4-0.5-0.8-1-1.2-1.5c-1.2,5.6-2.2-1.9-2-3.6c0.2-3.4,2.6-2.7,4.8-2.6
					c3.2,0.1,3.9-0.1,4.5,3.6c0.3,1.8,0.2,2.1,1.2,3.7c0.3,0.5,1.3,0.4,1.6,0.8c1.5,1.9,1.7,9-3.4,7
					C157.8,293.5,157.2,295.8,158.6,296.4L158.6,296.4z"/>
			</g>
		</g>
		<g>
			<g>
				<path class="st0" d="M160.5,300c1.5,0,1.5-2.4,0-2.4C158.9,297.6,158.9,300,160.5,300L160.5,300z"/>
			</g>
		</g>
		<g>
			<g>
				<path class="st0" d="M160.6,299.7c1.5,0,1.5-2.4,0-2.4C159.1,297.3,159.1,299.7,160.6,299.7L160.6,299.7z"/>
			</g>
		</g>
		<g>
			<g>
				<path class="st0" d="M163.7,301.6c0.9-1.4,1.2-2.6,1.4-4.2c0.1-1-1.1-1.4-1.8-1c-1.4,0.7-1.9,1.5-2.5,2.9
					c-0.4,1,0.9,1.8,1.8,1.4c1.1-0.6,1.9-1.6,3.1-2.2c0.8-0.4,1.4-0.2,2-1.1c1-1.6,0.2-4.8-0.3-6.4c-0.2-0.7-0.5-1.2-1-1.7
					c-1.2-1.2-2.2-1.3-2.9-3.3c-0.8-2.1-1.5-3.9-4-4.2c-1.5-0.2-2.2,2.1-0.6,2.3c1.1,0.2,2.1,2.6,2.6,3.5c0.3,0.6,0.4,1.1,0.8,1.6
					c0.5,0.7,1.2,0.9,1.8,1.5c0.8,0.7,1.4,2.1,1.5,3.2c0.1,1.4-0.6,1.8-1.3,2.5c-0.6,0.6-2.1,1.7-2.9,2.2c0.6,0.5,1.2,0.9,1.8,1.4
					c0.5-0.5,0.9-1,1.4-1.5c-0.6-0.3-1.2-0.7-1.8-1c-0.1,1.1-0.4,2.1-1.1,3C160.8,301.7,162.9,302.9,163.7,301.6L163.7,301.6z"/>
			</g>
		</g>
		<g>
			<g>
				<g>
					<path class="st0" d="M161,278.5c-0.5,1.9-0.6,3.7-0.4,5.6c0.2,1.5,2.6,1.5,2.4,0c-0.2-1.7-0.1-3.3,0.3-5
						C163.7,277.6,161.4,277,161,278.5L161,278.5z"/>
				</g>
			</g>
			<g>
				<g>
					<path class="st0" d="M162.3,285.8c4.8,0.3,3.6,2.2,3.8,4.7c0.1,1.3,0.5,2.6,0.7,3.9c0.9,5.1-3.3,8.8-8,9.9
						c-1.5,0.3-0.9,2.6,0.6,2.3c5.4-1.2,10.6-5.5,10-11.4c-0.2-1.7-0.8-3.4-0.9-5.2c-0.1-1.1,0.1-2.4-0.2-3.5c-0.9-2.6-3.6-3-6-3.2
						C160.7,283.3,160.8,285.7,162.3,285.8L162.3,285.8z"/>
				</g>
			</g>
			<g>
				<g>
					<path class="st0" d="M159.4,304.7c-2.8,0.2-7.2-2.7-9-4.9c-2.7-3.5-1.5-9.1-0.1-13c0.6-1.4-1.8-2.1-2.3-0.6
						c-1.6,4.2-3,11.6,0.2,15.5c0.5,0.7,1.2,1,1.9,1.4c1.4,0.9,2.4,1.8,3.8,2.8c1.7,1.2,3.5,1.3,5.5,1.2
						C161,307,161,304.6,159.4,304.7L159.4,304.7z"/>
				</g>
			</g>
			<g>
				<g>
					<path class="st0" d="M150.5,286.5c-0.1-2.3-0.5-4.6-1.2-6.8c-0.4-1.5-2.8-0.8-2.3,0.6c0.6,2,1,4.1,1.1,6.2
						C148.1,288,150.5,288,150.5,286.5L150.5,286.5z"/>
				</g>
			</g>
			<g>
				<g>
					<path class="st0" d="M163.6,279.6c0.2-4.8-6.5-3.7-9.5-3.6c-2.4,0-9.2-0.2-7.4,4.2c0.6,1.4,2.9,0.8,2.3-0.6
						c-0.5-1.1,5.5-1.2,6.2-1.2c1,0,6-0.7,6,1.2C161.2,281.2,163.6,281.2,163.6,279.6L163.6,279.6z"/>
				</g>
			</g>
		</g>
	</g>
</g>
</svg>
