<?xml version="1.0" encoding="utf-8"?>
<!-- Generator: Adobe Illustrator 22.1.0, SVG Export Plug-In . SVG Version: 6.00 Build 0)  -->
<svg version="1.1" id="Layer_1" xmlns="http://www.w3.org/2000/svg" xmlns:xlink="http://www.w3.org/1999/xlink" x="0px" y="0px"
	 viewBox="0 0 200 600" style="enable-background:new 0 0 200 600;" xml:space="preserve">
<style type="text/css">
	.st0{fill:#7A000A;}
	.st1{fill:#002256;}
	.st2{fill:#00000A;}
</style>
<g>
	<g>
		<g>
			<g>
				<path class="st0" d="M40.1,293c0.2,0.1,0.4,0.1,0.5,0.2c0.1,0.7,0.2,1.4,0.3,2.1c-0.1-0.2-0.3-0.4-0.4-0.7
					c-0.5,0.4-1.1,0.9-1.5,1.2c-0.6-1.2-1.2-2.6-1.6-3.9c-1.1-1.4-1.1-3,0-4.6c0.4-0.5,1.2-0.5,1.6-0.9c1.4-1.2,1-2.4,1.2-4.1
					c0.4-3,1-2.6,3.6-2.7c1.6-0.1,3.6-0.9,3.8,1.6c0.1,0.7-0.4,1.6-0.5,2.4c-0.2,1.7,0.6,5.5-0.3,1.2c-0.5,0.8-1.1,1.4-1.5,2.2
					c0-0.4,0-0.8,0-1.2c-0.6,0.1-1.3,0.2-2,0.3c0-1.1,0-2-0.1-3.1c-0.7,0-1.5,0-2.2,0c0.7-0.5,1.4-0.9,2.1-1.3
					c-0.6,0.1-1.3,0.2-2,0.3c1-0.4,1.9-0.8,2.9-1.2c-0.4-1-0.7-1.9-1.2-3c-0.4,0.1-0.7,0.3-1.1,0.4c0.2,1.2,0.3,2.3,0.4,3.4
					c1.1,0.8,2.1,1.5,3.2,2.3c0.5-0.8,1.1-1.4,1.5-2.2c-0.2-0.4-0.4-0.8-0.5-1.2c-0.9,0-1.9,0-2.8,0c1,2.2,1.8,4.4,2.6,6.6
					c1-0.5,2-0.9,3-1.3c-1.3-1.6-1.5-3.5-0.9-5.7c-0.6,0.4-1.3,0.8-2,1.2c0.5-0.4,1.1-0.7,1.7-1.1c-0.6,0.3-1.3,0.6-1.8,0.8
					c-0.2-0.1-0.4-0.3-0.5-0.4c0.8,0.1,1.7,0.2,2.5,0.4c-0.1,0.1-0.1,0.2-0.2,0.3c-0.7-0.2-1.4-0.4-2.2-0.6c0.2,0.3,0.3,0.7,0.4,1
					c0.9,2,3.6,0.3,2.8-1.7c-1.2-3-2.5,1.5-2.7,2c-0.4,1.3-0.4,3-0.5,4.4c-0.2,1.3,0,5.5-0.7,6.4c-3.6,2.4-5.4,0.6-5.5-5.3
					c1.6-2,1.7-1.7,0.3,1.1c0.6-0.4,1.3-0.8,2-1.2c-0.4-0.6-0.8-1.1-1.3-1.6c-0.5,0.6-1.1,1.2-1.6,1.7c0.8,0,2,3.9,2.1,4.6
					c0.6-0.7,1.3-1.4,2-2.1c-0.5-0.5-1.1-1.1-1.6-1.5c-0.3,0.7-0.5,1.3-0.7,1.9c0.2,0.7,0.3,1.3,0.4,2c0.9-0.4,1.8-0.8,2.8-1.2
					c-0.4,0.9-1,1.8-1.4,2.7c1-0.1,2-0.3,3-0.4c-1.9-3.4-2.2-3.3-1.2,0.5c0.9-0.6,1.8-1.2,2.7-1.7c-0.1,0.1-0.3,0.2-0.4,0.3
					c0.5,1.4,2.7,1.8,3.1,0c0.4-1.6,0.3-2.8-0.5-4.3c-0.9,0.6-1.9,1.2-2.8,1.7c0.7,1.2,1.4,2.2,2.1,3.4c1.2,1.8,3.7,0.3,2.8-1.7
					c-0.4-1.1-0.9-2-1.3-3.1c-0.9,0.6-1.9,1.2-2.8,1.7c1.3,2.5,1.6,5.6,0.3,8.2c-0.4,0.6-0.8,1.2-1.3,1.7c-1.9,2.3-2.6,1.5-2.1-2.3
					c-0.8-0.1-1.7-0.2-2.5-0.4c0.1,0.4,0.1,0.8,0.2,1.2c1,0.5,2,0.9,3,1.3L45,300c-0.8-0.4-1.6-0.7-2.3-1.1c0,1,0,1.9,0.1,2.9
					c-0.2,1.3,1.1,2.8,2.3,1.9c3.4-2.3,2.5-7.3,2.6-11c-1.1,0.2-2.1,0.3-3.1,0.5c0.7,1.7,0.9,3.4,0.7,5.2c1.1,0,2.1,0,3.2,0
					c0.1-1.2,0.4-2.5,0.7-3.7c-1.1,0-2.1,0-3.1,0c0.1,1,0.2,2,0.3,3c1.1-0.2,2.1-0.3,3.1-0.5c0-1-0.1-2-0.1-3
					c-0.9,0.4-1.8,0.8-2.8,1.2c0,0.1,0.1,0.2,0.1,0.3c1-0.5,2-0.9,3-1.3c-0.2-0.8-0.4-1.5-0.6-2.3c-0.5,0.8-1.1,1.4-1.5,2.2
					c1.3-0.1,1.8-0.3,2.5-1.4c-1-0.1-2-0.3-3-0.4c0.2,0.9,1,6.3-0.4,5.7c-0.5-0.4-1-1-1.3-1.6c-0.7,1.2-0.6,2.3,0.4,3.1
					c0.6-0.9,1.3-1.8,2-2.7c-0.5-0.4-1-0.9-1.5-1.2c-0.8,0.7-1.7,1.4-2.5,2.1c1,0.7,1.7,1.5,2.2,2.6c0.4-0.9,0.9-1.7,1.4-2.6
					c-2.4-0.2-3.8,1-6.1,1.6c-3.7,1.2-5.6-0.5-5.7-4.6c0-1.4,0.4-2.7,0.3-4.2c-1.1,0-2.1,0-3.2,0c0.3,1.2,0.3,2.4,0,3.5
					c1-0.3,2-0.6,3-0.9c0,0.1,0.1,0.1,0.1,0.2c-0.8,0.4-1.6,0.7-2.3,1.1c1.1,0.2,2.1,0.4,3.1,0.5c0.3,0.7,0.5,1.3,0.7,1.9
					c0-0.2,0.1-0.4,0.1-0.6c-0.6,0.4-1.3,0.8-2,1.2c0.4,0.4,0.7,0.9,1.1,1.2c0.6-0.7,1.3-1.4,2-2.1c-0.4-0.3-0.7-0.5-1.1-0.8
					c-0.6,0.7-1.3,1.4-2,2.1c0.1,0.1,0.2,0.2,0.3,0.3c0.6-0.7,1.3-1.4,2-2.1c-0.3-0.4-0.6-0.8-0.9-1.2c-1,0.5-2,0.9-3,1.3
					c0.8,1.2,1.6,2.2,2.6,3.2c1.5,1.5,3.8-1,2.2-2.4c-0.8-0.7-1.5-1.5-2.1-2.5c-1.1-1.6-3.3-0.7-3,1.3c0.4,2.1,1.3,3,3.1,3.6
					c1.1,0.4,2.4-0.9,2-2.1c-0.6-1.8-0.8-2-2.5-2.7c-1.2-0.5-2.4,1-2,2.1c0.6,1.9,1.4,2.8,3.3,3.2c1.2,0.2,2.3-0.8,2-2.1
					c-0.5-2.1-1.3-3-3.3-3.7c-0.8-0.3-1.8,0.3-2,1.2c0,0.2-0.1,0.4-0.1,0.6c-0.2,0.9,0.1,1.4,0.7,1.9c0.2,0.1,0.3,0.3,0.4,0.4
					c0.4,0.4,1.2,0.3,1.6,0c3.4-1.9,0-5.6-2-6.8c-0.9-0.6-2.1,0-2.3,1.1c-0.3,1.1-0.2,1.5,0.2,2.5c0.7,1.8,2.9,0.6,3-0.9
					c0.3-1.2,0.3-2.4,0-3.5c-0.3-2.2-3.5-2.2-3.2,0c0.5,4.5-1.6,8.2,2.6,11.5c4.6,3.5,7.6-1.3,12.2-1c1.3,0.1,2-1.5,1.4-2.6
					c-0.8-1.3-1.5-2.3-2.8-3.4c-1.3-1.2-3.7,0.3-2.5,2.1c0.7,1.2,1.4,1.9,2.7,2.5c1.7,0.9,3-1.2,2-2.7c-1.5-2.1-3.8-4.8-6.3-2.8
					c-0.4,0.4-0.6,1.2-0.4,1.7c0.8,2.2,3.6,8,6.6,6.6c3.3-1.5,2.8-8.2,2.1-11c-0.4-1.5-2.2-1.6-3-0.4c0.1-0.1,0.2-0.2,0.4-0.3
					c-1.1,0-1.8,1.1-1.5,2.2c0.3,1.5,0.4,1.7,1,3.2c0.7,1.8,3.3,0.5,3-1.3c-0.2-0.9-0.4-1.2-1-1.8c-1.1-1.2-2.6-0.2-2.8,1.2
					c-0.2,2-0.1,1.9,0.2,3.9c0.4,1.9,3.2,1.4,3.1-0.5c-0.1-1.6-0.2-2.3-0.4-3.9c-0.3-1.7-2.7-1.5-3.1,0s-0.7,3.1-0.9,4.6
					c-0.3,2.2,3,2.2,3.2,0c0.3-2.3,0-4-0.8-6.1c-0.6-1.7-3.1-1.6-3.1,0.5c0,1.7,0.7,7-1,8.1c0.8,0.7,1.6,1.3,2.3,1.9
					c0.2-1.7,0.2-3.1-0.1-4.7c-0.2-1.1-1.6-1.7-2.3-1.1c-0.9,0.7-1.2,1.2-1.5,2.2c-0.7,1.8,2.1,3.1,3,1.3c0.8-1.8,0.9-3-0.2-4.7
					c-0.6-1-1.7-1.2-2.5-0.4c-1.5,1.4-2.9,3.5-1.5,5.7c0.8,1.3,2.8,2,4,1c3.6-2.9-1.5-8.9-5-5.6c-2.9,2.8,0.4,8.1,3.2,4.8
					c2.7-3.1-2.2-6.8-4.1-3c-0.3,0.6-0.4,1.2,0,1.7c1.2,1.8,3.2,2.9,5,1.4c0.4-0.3,0.9-0.9,0.8-1.5c-0.4-3.8-5.7-4.4-6-0.2
					c-0.3,3.5,4.1,5.1,6.1,2.2c1.9-2.8-1-7.5-4.2-5.9c-3,1.5-2,7.7,1.5,7.2c3.8-0.5,2.9-6.7,0.3-8.2c-3.9-2.2-6.9,3-5.5,6.6
					c1.8,4.8,7.5,4.5,10.9,1.9c4.7-3.6,5.3-10,2.7-15.2c-1-2-3.7-0.3-2.8,1.7c0.4,1.1,0.9,2,1.3,3.1c0.9-0.6,1.9-1.2,2.8-1.7
					c-0.7-1.2-1.4-2.2-2.1-3.4c-1.2-1.8-3.8-0.2-2.8,1.7c0.1,0.6,0.1,1.1,0.2,1.6c1.1,0,2.1,0,3.1,0c-2.1-5.5-8.5-1.3-5,3.1
					c1.1,1.4,3-0.1,2.7-1.7c-0.7-3.2-4.6-4.9-5.2-0.8c-0.4,2.2,1.9,5.7,4,3.5c1.7-1.6,1.3-7.2-1.1-8c-4.1-1.3-3.4,5.3-2.4,7.3
					c0.6,1.2,2.7,1.1,3-0.4c0.4-2.6,0.3-8.7-3.6-8.1c-3.8,0.6-2.1,5.2-0.4,6.9c1.1,1.1,2.6,0.3,2.8-1.2c0.3-3.1-2.1-7-5.3-5
					c-0.7,0.5-0.8,1.2-0.7,1.9c0.3,2.3,1.9,3.4,3.8,3.9c1.2,0.3,2.3-0.9,2-2.1c-0.8-2.7-2-7.2-5.2-7.1c-0.8,0-1.7,0.8-1.6,1.7
					c0.3,2.6,1.3,4,3.6,5c0.8,0.3,1.8-0.4,2-1.2c0.4-2.7,0.4-8.2-3.5-6.4c-2.1,0.9-7.4,7.1-3.2,8.9c2.6,1.1,4.7-2.6,2.6-4.6
					c-2.1-1.8-5,0.8-4.1,3.4c1.2,3.1,5.2,2.1,5.8-0.9s-2.1-4.8-4.3-3.1c-2.3,1.7-2.2,6.4,1.2,6.7c3.3,0.3,3.6-3.9,1.3-5.5
					c-0.4-0.4-1.2-0.3-1.6,0c-2.4,1.3-3,5.7,0.1,6.6c2.4,0.8,4.5-2.4,2.6-4.3c-2.1-2.3-5.1,0.4-4.7,3.2c0.5,3.5,4.9,4.2,6.6,1.3
					c1.3-2.1,0.3-5.8-2.5-5.1c-2.9,0.6-3,5-1.3,6.8c2.4,2.4,6.5,0.3,6.4-3.2c0-2.5-3-4.6-4.7-2.5c-2.3,2.7-0.1,8.7,3.3,9
					c3.9,0.4,4.1-4.9,2.2-7.3c-0.4-0.5-1.1-0.6-1.6-0.5c-2.8,0.6-3.8,5.5-1.5,7.4c3.8,3.2,5.7-3,6.1-5.8c0.5-4.4,1.1-8.6,2.1-12.9
					c0.3-1.2,0.7-2.2-0.4-3.2c-2.8-2.2-4.6,1.7-3.7,4c0.9-0.6,1.9-1.2,2.8-1.7c-0.2-0.3-0.3-0.7-0.4-1c-0.4-0.8-1.5-1.2-2.2-0.6
					c-1.5,1.2-2,2.6-1,4.4c0.5,1,1.8,1.2,2.5,0.4c1.7-2,1.6-4.4-0.9-5.4c-0.7-0.3-1.4,0.2-1.8,0.8c-0.1,0.2-0.3,0.4-0.4,0.7
					c-0.3,0.5-0.4,1.2,0,1.7c2.5,3.6,6-1.3,2.4-2.9c-0.8-0.3-1.8,0.4-2,1.2c-0.6,3.1-0.4,5.7,1.3,8.3c0.9,1.6,3.6,0.6,3-1.3
					c-0.8-2.2-1.7-6.8-4.7-6.1c-1.9,0.4-2.3,2.5-1.7,4.2c0.6,1.6,2.4,3.3,4.1,2.1c2.3-1.6,0.4-5.9-0.5-7.6c-0.6-1.2-2.1-1.2-2.8,0
					c-1.8,3.1-0.1,6.3,3.3,6.4c1.1,0,1.8-1.2,1.5-2.2c-0.8-3.6-3.8-5.6-7.2-4.7c-1.9,0.5-1.3,3.2,0.4,3.4c1.4,0.2,2.4-0.3,3.4-1.4
					c1-1.2,0.3-2.8-1.2-3c-2.7-0.3-7.9,3.3-4,6c2.6,1.9,4.7-1.6,3-3.9c-0.4-0.5-1.1-0.6-1.6-0.5c-2.5,0.7-2.7,4.7,0.2,5.1
					c3.4,0.5,3.3-3.5,1.3-5.3c-0.5-0.5-1.5-0.2-2,0.3c-1.7,1.9-2.8,6.2,0.9,6.5c3,0.2,3.5-3.5,1.5-5.2c-0.6-0.6-1.6-0.8-2.2,0
					c-1.8,2.1-2.3,7.3,1.8,6.9c2.9-0.3,3.2-3.8,1.3-5.5c-0.4-0.3-1.2-0.3-1.6,0c-2.4,1.7-2.3,6.3,1,6.8c3.5,0.6,4.6-4.1,1.6-5.8
					c-0.6-0.4-1.4-0.3-2,0.3c-2.5,2.6-1.1,7.9,2.9,6.5c3-1.1,2.8-6.2-0.5-6.3c-1.1,0-1.8,1.2-1.5,2.2c0.4,2,2.1,6.1,4.7,5.5
					c1-0.3,1.4-1.2,1.7-2.1c0.3-1,0.1-2,0.2-3c0.1-1.5,0.5-3.1,0.8-4.6c0.5-3,0.4-5.1-2.9-5.5c-2.7-0.3-8.6-0.8-10.6,1.9
					c-0.9,1.2-0.6,2.1-0.7,3.5c-0.2,1.7,0.6,1.2-1.4,3c-0.4,0.4-1.1,0.7-1.5,1.2c-2.2,2.8,0,7.5,1.5,10c4.4,7,8.7-3.3,3.7-3.2
					c-0.7,0-1.3,0.6-1.5,1.2c-1.3,4.8,6.9,4.3,4.5-0.8c-0.3-0.6-0.8-0.9-1.4-0.9c-1.3-0.1-1.7,0.3-2.4,1.4c-0.4,0.7-0.2,1.5,0.3,2.1
					c0.2,0.2,0.3,0.4,0.4,0.5c0.4,0.4,1.1,0.7,1.6,0.5c0.2-0.1,0.4-0.2,0.5-0.2C42.9,295.5,42.1,292.3,40.1,293L40.1,293z"/>
			</g>
			<ellipse class="st0" cx="48.1" cy="291.2" rx="3.1" ry="6.5"/>
			<ellipse class="st0" cx="50.6" cy="290.6" rx="1.4" ry="4.6"/>
			<ellipse class="st0" cx="48.5" cy="296.1" rx="4" ry="2.9"/>
			<ellipse class="st0" cx="50.6" cy="292" rx="1.9" ry="4.1"/>
		</g>
		<g>
			<g>
				<path class="st1" d="M40,299c1.5,0,1.5-2.4,0-2.4S38.5,299,40,299L40,299z"/>
			</g>
		</g>
		<g>
			<g>
				<path class="st0" d="M39.8,299.3c2.3,0,2.3-3.6,0-3.6C37.5,295.7,37.5,299.3,39.8,299.3L39.8,299.3z"/>
			</g>
		</g>
		<g>
			<g>
				<path class="st0" d="M39.3,299.1c-0.6-0.8-0.9-1.7-1-2.7c-0.9,0.5-1.8,1-2.7,1.6c0.4,0.4,0.7,0.7,1.1,1.1c0.9-0.7,1.8-1.4,2.6-2
					c-1-0.5-2-1.4-2.8-2.1s-0.6,0.1-1-1.1c-0.3-1,0.4-2.9,1-3.5c0.5-0.5,1.4-0.8,1.9-1.4c1-1.2,1.7-5.1,3.4-5.3
					c2.3-0.3,1.3-3.8-1-3.5c-2.4,0.3-3.5,2-4.3,4.2c-0.6,1.8-1.1,2.1-2.5,3.2c-0.8,0.7-1.2,1.2-1.6,2.3c-0.6,1.8-1.4,5-0.4,6.7
					c0.5,0.9,1.3,1,2.1,1.5c1.1,0.6,2.2,1.5,3.3,2.2c1.3,0.7,3.2-0.5,2.6-2c-0.6-1.6-1.2-2.5-2.8-3.3c-1.1-0.6-2.9,0.1-2.7,1.6
					c0.2,1.7,0.6,3,1.5,4.5C37.4,302.9,40.6,301.1,39.3,299.1L39.3,299.1z"/>
			</g>
		</g>
		<g>
			<g>
				<g>
					<path class="st2" d="M37.7,278c0.4,1.7,0.5,3.4,0.3,5.2c-0.1,0.8,1.1,0.8,1.2,0c0.2-1.9,0.1-3.7-0.4-5.5
						C38.7,276.9,37.5,277.3,37.7,278L37.7,278z"/>
				</g>
			</g>
			<g>
				<g>
					<path class="st2" d="M38.2,283c-2,0.1-4.3,0.4-5.3,2.4c-0.4,0.9-0.2,1.5-0.3,2.5c-0.1,2.2-0.7,4.2-1,6.4
						c-0.6,5.6,4.4,9.6,9.5,10.7c0.8,0.2,1.1-1,0.3-1.2c-5-1.1-9.4-5.1-8.4-10.6c0.6-3.5,0.1-8.7,5.1-9
						C38.9,284.2,38.9,283,38.2,283L38.2,283z"/>
				</g>
			</g>
			<g>
				<g>
					<path class="st2" d="M41,305.5c1.9,0.1,3.5,0,5.1-1c1.4-0.9,2.4-2.1,3.9-2.9c0.7-0.4,1.2-0.6,1.7-1.3c3.1-3.7,1.7-11,0.1-15
						c-0.3-0.7-1.4-0.4-1.2,0.3c1.6,4.1,2.7,9.8-0.2,13.5c-1.9,2.4-6.5,5.4-9.5,5.2C40.2,304.3,40.2,305.5,41,305.5L41,305.5z"/>
				</g>
			</g>
			<g>
				<g>
					<path class="st2" d="M51.8,285.5c0.1-2.2,0.5-4.3,1.1-6.3c0.2-0.7-0.9-1.1-1.2-0.3c-0.6,2.2-1,4.4-1.1,6.7
						C50.6,286.3,51.8,286.3,51.8,285.5L51.8,285.5z"/>
				</g>
			</g>
			<g>
				<g>
					<path class="st2" d="M38.6,278.7c0-1.2,2.9-1.9,3.8-1.9c0.9,0,1.8,0,2.8,0.1c0.9,0,7.7-0.2,6.8,2c-0.3,0.7,0.9,1,1.2,0.3
						c1.6-3.9-4.9-3.4-6.9-3.4c-2.6-0.1-9-1.3-8.9,3C37.5,279.4,38.7,279.4,38.6,278.7L38.6,278.7z"/>
				</g>
			</g>
		</g>
	</g>
	<g>
		<g>
			<g>
				<path class="st0" d="M158,296.3c0.2,0.1,0.3,0.2,0.5,0.2c0.5,0.2,1.1,0,1.5-0.5c0.2-0.2,0.2-0.4,0.4-0.5
					c0.4-0.5,0.6-1.4,0.2-2.1c-0.7-1.1-1.1-1.4-2.2-1.4c-0.5,0-1.1,0.3-1.3,0.8c-2.2,4.8,5.4,5.4,4.1,0.7c-0.2-0.7-0.7-1.2-1.4-1.2
					c-4.5,0-1.1,9.4,3,3.7c1.6-2.2,3.7-7.4,1.8-10.2c-0.4-0.6-0.9-0.7-1.3-1.2c-1.3-1.2-1.3-1.3-1.5-3c-0.2-1.4,0.2-2.1-0.7-3.4
					c-1.9-2.6-6.6-2-9.1-1.9c-2.9,0.1-4,1.5-3.4,4.8c0.2,1.4,0.8,2.7,1,4.2c0.1,1.1-0.2,2.5,0.1,3.6c0.2,0.8,0.6,1.7,1.4,2
					c2.5,0.9,4.1-3.2,4.5-5.2c0.2-1-0.4-2.1-1.4-2.1c-3.1,0.1-3.4,5.1-0.5,6.2c3.7,1.4,4.9-3.8,2.6-6.3c-0.5-0.6-1.2-0.7-1.8-0.3
					c-2.7,1.6-1.7,6.2,1.5,5.6c3-0.6,3.1-4.9,0.9-6.6c-0.4-0.3-1.1-0.3-1.5,0c-1.9,1.5-1.5,5,1.1,5.3c3.8,0.4,3.3-4.7,1.6-6.7
					c-0.6-0.7-1.5-0.6-2,0c-1.8,1.7-1.3,5.2,1.4,5c3.4-0.2,2.5-4.5,0.8-6.3c-0.4-0.5-1.3-0.7-1.8-0.3c-1.8,1.6-1.9,5.5,1.2,5.1
					c2.6-0.4,2.5-4.3,0.2-4.9c-0.5-0.2-1.1,0-1.5,0.5c-1.6,2.1,0.3,5.7,2.7,3.8c3.4-2.8-1.3-6.2-3.7-5.9c-1.2,0.1-2,1.8-1.1,2.9
					c0.9,1.1,1.7,1.5,3.1,1.4c1.6-0.2,2.1-2.9,0.4-3.3c-3.1-0.7-5.8,1-6.5,4.6c-0.2,1,0.4,2.1,1.4,2.1c3-0.1,4.7-3.2,3-6.2
					c-0.6-1.1-2-1.1-2.5,0c-1,1.8-2.5,5.6-0.7,7.3c1.5,1.4,3.3-0.2,3.8-1.9c0.6-1.6,0.2-3.4-1.3-4c-2.9-1-3.9,3.9-4.6,6
					c-0.6,1.9,1.8,2.9,2.7,1.3c1.5-2.6,1.7-5.1,1.1-8.1c-0.2-0.8-1.1-1.5-1.8-1.2c-3.3,1.5-0.2,6.3,2.2,2.8c0.3-0.5,0.2-1.2,0-1.7
					c-0.1-0.2-0.2-0.4-0.3-0.7c-0.3-0.6-1-1-1.6-0.7c-2.3,0.8-2.4,3.3-0.8,5.2c0.7,0.8,1.9,0.6,2.3-0.4c0.9-1.8,0.5-3.2-0.9-4.3
					c-0.6-0.5-1.7-0.2-2,0.6c-0.2,0.3-0.2,0.7-0.4,0.9c0.8,0.6,1.7,1.1,2.5,1.7c0.8-2.1-0.6-6-3.2-4.1c-1,0.7-0.9,1.8-0.7,2.8
					c0.4,0.7,0.7,1.6,1,2.4c0.2,1.4,0.3,2.8,0.5,4.3c0.2,2.1,0.4,4.2,0.7,6.2c0.3,2.7,1.9,8.5,5.4,5.7c2.3-1.8,1.3-6.7-1.3-7.4
					c-0.5-0.1-1.1,0-1.5,0.5c-1.6,2.1-1.8,6.2,1,7c3.1,0.9,5-3.3,4.7-6.2c-0.2-2.7-2.8-4.7-4.5-1.9c-1.8,2.9,1.1,6.7,3.8,6
					c2.4-0.7,3.5-4.4,1.9-6.5c-1.5-2-4-1.1-4.3,1.5c-0.4,3.5,3.5,5.6,5.6,3.1c1.6-1.9,1-5.8-1.6-5.8c-2.7,0-3.2,4.3-0.6,5.1
					c3.6,1,4-4.9,1.3-6.5c-0.5-0.3-1.1-0.4-1.5,0c-2.1,1.6-1.8,5.6,1.2,5.3c3.1-0.3,3.2-4.8,1.1-6.5c-2-1.6-4.4,0.2-3.9,3
					c0.6,2.9,4.3,3.8,5.3,0.8c0.9-2.4-1.9-5-3.8-3.3c-2,1.9,0,5.5,2.4,4.5c3.9-1.8-1.1-7.8-2.9-8.7c-3.6-1.7-3.6,3.6-3.2,6.2
					c0.2,0.8,1.1,1.5,1.8,1.2c2.1-0.8,3-2.3,3.3-4.8c0.1-0.9-0.7-1.7-1.5-1.7c-2.9-0.1-4.1,4.3-4.7,6.9c-0.3,1.2,0.7,2.4,1.8,2.1
					c1.8-0.6,3.3-1.7,3.5-3.8c0.1-0.7-0.1-1.5-0.7-1.9c-2.9-2-5.1,1.9-4.8,4.8c0.1,1.4,1.6,2.2,2.5,1.2c1.6-1.7,3.2-6.2-0.3-6.7
					c-3.4-0.6-3.7,5.4-3.3,7.8c0.2,1.4,2.1,1.7,2.7,0.4c0.9-2,1.6-8.4-2.2-7.1c-2.2,0.7-2.6,6.2-1,7.7c2,2,4-1.2,3.7-3.4
					c-0.6-4-4.1-2.3-4.7,0.7c-0.3,1.5,1.5,3,2.5,1.7c3.1-4.3-2.7-8.3-4.6-3c1,0,1.9,0,2.9,0c0.1-0.6,0.1-1,0.2-1.6
					c1-1.9-1.5-3.4-2.5-1.7c-0.7,1.1-1.3,2.1-2,3.3c0.8,0.6,1.7,1.1,2.5,1.7c0.4-1,0.8-2,1.2-3c0.8-2-1.6-3.6-2.5-1.7
					c-2.4,5-1.9,11.2,2.5,14.7c3.1,2.5,8.3,2.9,10-1.9c1.2-3.5-1.5-8.6-5.1-6.4c-2.4,1.4-3.3,7.5,0.2,8c3.3,0.5,4.2-5.5,1.4-7
					c-2.9-1.6-5.6,3-3.8,5.8c1.8,2.8,5.7,1.3,5.6-2.1c-0.2-4.1-5.1-3.6-5.5,0.2c-0.1,0.7,0.3,1.1,0.7,1.5c1.7,1.4,3.6,0.4,4.6-1.4
					c0.3-0.6,0.2-1.2,0-1.7c-1.6-3.5-6.1-0.4-3.8,2.7c2.4,3.4,5.8-1.6,3-4.5c-3-3.1-7.9,2.2-4.7,5.2c1.1,1.1,2.9,0.7,3.7-0.7
					c1.4-2.1,0.1-4.3-1.3-5.7c-0.7-0.7-1.8-0.6-2.3,0.4c-1,1.7-0.9,2.8-0.2,4.6c0.7,1.7,3.4,0.5,2.7-1.3c-0.4-1-0.7-1.4-1.4-2.1
					c-0.7-0.7-2,0-2.1,1c-0.2,1.6-0.2,3-0.1,4.6c0.7-0.7,1.5-1.3,2.1-1.9c-1.6-1-0.9-6.2-0.9-7.8c0-2.1-2.3-2.1-2.9-0.5
					c-0.7,2.1-1,3.7-0.7,6c0.2,2.1,3.2,2.1,2.9,0c-0.2-1.6-0.4-3-0.8-4.5c-0.4-1.5-2.5-1.7-2.9,0c-0.2,1.6-0.3,2.2-0.4,3.8
					c-0.1,1.9,2.6,2.3,2.9,0.5c0.3-1.9,0.3-1.9,0.2-3.8c-0.1-1.4-1.6-2.3-2.5-1.2c-0.5,0.6-0.7,0.9-0.9,1.8c-0.4,1.8,2,3.1,2.7,1.3
					c0.5-1.4,0.7-1.6,0.9-3.1c0.2-1.1-0.4-2.1-1.4-2.1c0.1,0.1,0.2,0.2,0.3,0.3c-0.7-1.2-2.4-1-2.7,0.4c-0.7,2.8-1.1,9.2,1.9,10.7
					C154.6,304,157.2,298.4,158,296.3c0.1-0.6-0.1-1.4-0.5-1.8c-2.2-2-4.3,0.7-5.7,2.7c-1.1,1.5,0.2,3.4,1.8,2.6
					c1.1-0.6,1.7-1.3,2.5-2.4c1.1-1.7-1.1-3.1-2.3-2.1c-1.1,0.9-1.8,2-2.5,3.3c-0.6,1,0.2,2.6,1.3,2.5c4.2-0.5,7,4.3,11.1,0.9
					c3.8-3.2,1.9-6.8,2.4-11.2c0.2-2.1-2.7-2.1-2.9,0c-0.2,1.1-0.2,2.3,0,3.4c0.2,1.4,2.1,2.6,2.8,0.8c0.3-0.9,0.5-1.4,0.2-2.4
					c-0.2-1-1.3-1.6-2.1-1c-1.9,1.3-4.9,4.8-1.8,6.6c0.4,0.3,1.1,0.4,1.5,0c0.2-0.1,0.2-0.3,0.4-0.4c0.6-0.5,0.8-1.1,0.7-1.9
					c0-0.2-0.1-0.4-0.1-0.6c-0.2-0.8-1.1-1.5-1.8-1.2c-1.7,0.7-2.5,1.6-3,3.6c-0.3,1.3,0.7,2.2,1.8,2.1c1.7-0.3,2.5-1.2,3-3.1
					c0.3-1.1-0.8-2.5-1.8-2.1c-1.6,0.7-1.7,0.8-2.3,2.6c-0.4,1.2,0.8,2.4,1.8,2.1c1.7-0.7,2.5-1.5,2.9-3.5c0.3-1.9-1.7-2.9-2.7-1.3
					c-0.5,0.9-1.1,1.8-1.9,2.4c-1.4,1.5,0.7,3.8,2,2.3c0.9-0.9,1.6-2,2.4-3.1c-0.9-0.5-1.8-0.8-2.7-1.3c-0.2,0.4-0.6,0.7-0.8,1.1
					c0.6,0.7,1.2,1.4,1.8,2.1c0.1-0.1,0.2-0.2,0.2-0.3c-0.6-0.7-1.2-1.4-1.8-2.1c-0.3,0.3-0.7,0.5-1,0.7c0.6,0.7,1.2,1.4,1.8,2.1
					c0.3-0.4,0.7-0.8,1-1.2c-0.6-0.4-1.2-0.7-1.8-1.2c0,0.2,0.1,0.4,0.1,0.6c0.2-0.7,0.5-1.3,0.7-1.9c1-0.2,2-0.4,2.9-0.5
					c-0.7-0.4-1.5-0.7-2.1-1c0-0.1,0.1-0.1,0.1-0.2c0.9,0.3,1.8,0.6,2.8,0.8c-0.2-1.1-0.2-2.3,0-3.4c-1,0-2,0-2.9,0
					c-0.1,1.1-0.1,2,0.1,3.1c0.4,4.2-1.1,6.9-5.1,5.5c-2-0.7-3.4-1.9-5.6-1.6c0.4,0.8,0.8,1.7,1.3,2.5c0.5-1,1.1-2,2-2.5
					c-0.7-0.7-1.6-1.4-2.3-2.1c-0.5,0.4-0.9,0.8-1.4,1.2c0.6,0.8,1.2,1.8,1.8,2.6c1-0.8,1.1-1.8,0.4-3c-0.2,0.7-0.6,1.2-1.1,1.6
					c-1.3,0.7-0.6-4.7-0.4-5.5c-0.9,0.1-1.8,0.3-2.7,0.4c0.7,1.1,1.1,1.4,2.3,1.4c-0.5-0.7-1-1.4-1.4-2.1c-0.2,0.7-0.4,1.5-0.6,2.2
					c0.9,0.5,1.8,0.8,2.7,1.3c0-0.1,0.1-0.2,0.1-0.3c-0.8-0.4-1.6-0.7-2.5-1.2c0,0.9-0.1,2-0.1,2.9c1,0.2,2,0.3,2.9,0.5
					c0.1-0.9,0.2-2,0.2-2.9c-1,0-1.9,0-2.9,0c0.4,1.2,0.6,2.3,0.7,3.6c1,0,2,0,2.9,0c-0.2-1.9,0-3.4,0.7-5c-1-0.2-2-0.3-2.9-0.5
					c0,3.6-0.8,8.6,2.4,10.7c1.2,0.8,2.3-0.6,2.1-1.9c0-0.9,0-1.9,0.1-2.8c-0.7,0.4-1.5,0.7-2.1,1l0.1,0.1c0.9-0.5,1.8-0.8,2.7-1.3
					c0.1-0.4,0.1-0.7,0.2-1.2c-0.7,0.1-1.6,0.2-2.3,0.4c0.5,3.4,0.1,4.3-1.1,2.8c-0.8-0.6-1.4-1.3-1.8-2.3c-1.2-2.5-0.9-5.4,0.2-7.9
					c-0.8-0.6-1.7-1.1-2.5-1.7c-0.4,1-0.8,2-1.2,3c-0.8,2,1.5,3.4,2.5,1.7c0.7-1.1,1.3-2.1,2-3.3c-0.8-0.6-1.7-1.1-2.5-1.7
					c-0.7,1.5-0.8,2.5-0.5,4.2c0.4,1.8,2.3,1.4,2.9,0c-0.1-0.1-0.2-0.2-0.3-0.3c0.8,0.6,1.6,1.1,2.5,1.7c1-3.6,0.6-3.7-1.1-0.5
					c0.9,0.1,1.8,0.3,2.7,0.4c-0.4-0.8-0.9-1.8-1.3-2.6c0.8,0.4,1.6,0.7,2.5,1.2c0.2-0.7,0.2-1.3,0.4-2c-0.2-0.7-0.5-1.3-0.7-1.9
					c-0.5,0.5-1,1-1.5,1.5c0.6,0.7,1.2,1.4,1.8,2.1c0.2-0.6,1.1-4.5,2-4.5c-0.5-0.6-1-1.1-1.5-1.7c-0.4,0.6-0.7,1-1.1,1.6
					c0.6,0.4,1.2,0.7,1.8,1.2c-1.4-2.6-1.3-3,0.2-1c-0.1,5.7-1.7,7.5-5,5.1c-0.7-0.9-0.6-4.9-0.7-6.2c-0.2-1.4-0.2-2.9-0.5-4.3
					c-0.1-0.5-1.3-4.8-2.5-2c-0.7,2,1.7,3.6,2.5,1.7c0.2-0.3,0.2-0.7,0.4-0.9c-0.7,0.2-1.3,0.4-2,0.6c-0.1-0.1-0.1-0.2-0.2-0.3
					c0.7-0.1,1.6-0.2,2.3-0.4c-0.2,0.1-0.3,0.3-0.5,0.4c-0.6-0.3-1.1-0.6-1.6-0.7c0.5,0.4,1,0.7,1.6,1c-0.6-0.4-1.2-0.7-1.8-1.2
					c0.6,2.1,0.2,3.9-0.8,5.5c0.9,0.5,1.8,0.8,2.7,1.3c0.7-2.2,1.5-4.4,2.4-6.4c-0.8,0-1.7,0-2.5,0c-0.2,0.4-0.3,0.7-0.5,1.1
					c0.5,0.7,1,1.4,1.4,2.1c1-0.7,2-1.5,2.9-2.2c0.2-1.1,0.2-2.2,0.4-3.3c-0.3-0.1-0.7-0.3-1-0.4c-0.3,0.9-0.7,1.9-1.1,2.9
					c0.9,0.4,1.7,0.7,2.6,1.1c-0.6-0.1-1.2-0.2-1.8-0.3c0.7,0.5,1.3,0.8,2,1.3c-0.7,0-1.4,0-2,0c0,1,0,2-0.1,3
					c-0.6-0.1-1.2-0.2-1.8-0.3c0,0.4,0,0.7,0,1.1c-0.5-0.7-1-1.4-1.4-2.1c-0.8,4.2-0.1,0.6-0.2-1.1c-0.1-0.7-0.6-1.7-0.5-2.3
					c0.2-2.3,2-1.7,3.5-1.6c2.3,0.1,2.9-0.3,3.3,2.6c0.2,1.7-0.2,2.7,1.1,4c0.4,0.4,1.1,0.5,1.5,0.8c1,1.6,1,3.2,0,4.5
					c-0.5,1.3-1,2.5-1.5,3.8c-0.5-0.4-1-0.8-1.4-1.2c-0.1,0.2-0.2,0.4-0.3,0.7c0.1-0.7,0.2-1.4,0.2-2.1c0.2-0.1,0.3-0.1,0.5-0.2
					C157,292.3,156.3,295.6,158,296.3L158,296.3z"/>
			</g>
			<ellipse class="st0" cx="149" cy="294.6" rx="1.5" ry="5.9"/>
			<ellipse class="st0" cx="151.4" cy="290" rx="2.4" ry="3.4"/>
			<ellipse class="st0" cx="161.3" cy="278.8" rx="0.7" ry="0.4"/>
			<ellipse class="st0" cx="149.3" cy="290.1" rx="0.4" ry="2.8"/>
			<ellipse class="st0" cx="160.8" cy="302.6" rx="1.8" ry="1.6"/>
			<ellipse class="st0" cx="165.6" cy="294.2" rx="1.9" ry="5"/>
			<ellipse class="st0" cx="164.6" cy="298.1" rx="3.1" ry="3.6"/>
			<ellipse class="st0" cx="162" cy="301" rx="3.8" ry="3.2"/>
			<ellipse class="st0" cx="164.6" cy="288.8" rx="3.1" ry="3.3"/>
		</g>
		<g>
			<g>
				<path class="st1" d="M160.5,300c1.5,0,1.5-2.4,0-2.4C158.9,297.6,158.9,300,160.5,300L160.5,300z"/>
			</g>
		</g>
		<g>
			<g>
				<path class="st0" d="M160.6,300.3c2.3,0,2.3-3.6,0-3.6C158.3,296.7,158.3,300.3,160.6,300.3L160.6,300.3z"/>
			</g>
		</g>
		<g>
			<g>
				<path class="st0" d="M164.2,301.9c0.9-1.4,1.3-2.8,1.5-4.5c0.2-1.4-1.6-2.1-2.7-1.6c-1.5,0.8-2.2,1.7-2.8,3.3
					c-0.6,1.5,1.4,2.8,2.6,2c1-0.6,1.9-1.6,2.9-2.1c0.9-0.5,1.7-0.3,2.4-1.3c1.2-1.8,0.4-5.1-0.2-6.9c-0.8-2.4-3.1-2.6-3.9-5
					c-0.8-2.3-1.8-4.3-4.4-4.7c-2.3-0.3-3.2,3.2-1,3.5c1.6,0.2,2.3,3.7,3.1,4.9c0.6,0.9,1.5,1.1,2.2,1.8c0.6,0.6,1,1.9,1.1,2.8
					c0.1,1.2-0.2,1.2-0.9,1.8c-0.8,0.7-2.2,1.7-3,2.2c0.9,0.7,1.8,1.4,2.6,2c0.4-0.4,0.7-0.7,1.1-1.1c-0.9-0.5-1.8-1-2.7-1.6
					c-0.1,1-0.4,1.9-1,2.7C159.9,302.1,163,303.9,164.2,301.9L164.2,301.9z"/>
			</g>
		</g>
		<g>
			<g>
				<g>
					<path class="st2" d="M161.6,278.7c-0.5,1.8-0.6,3.6-0.4,5.5c0.1,0.8,1.3,0.8,1.2,0c-0.2-1.7-0.1-3.5,0.3-5.2
						C162.9,278.2,161.8,277.9,161.6,278.7L161.6,278.7z"/>
				</g>
			</g>
			<g>
				<g>
					<path class="st2" d="M162.3,285.2c5,0.4,4.5,5.6,5.1,9c0.9,5.4-3.4,9.5-8.4,10.6c-0.8,0.2-0.4,1.3,0.3,1.2
						c5.1-1.1,10.2-5.1,9.5-10.7c-0.2-1.8-0.8-3.4-0.9-5.2c-0.1-1,0.1-2.3-0.2-3.2c-0.8-2.4-3.3-2.7-5.5-2.9
						C161.5,284,161.5,285.2,162.3,285.2L162.3,285.2z"/>
				</g>
			</g>
			<g>
				<g>
					<path class="st2" d="M159.4,305.3c-3,0.2-7.6-2.8-9.5-5.2c-2.9-3.7-1.8-9.4-0.2-13.5c0.3-0.7-0.9-1-1.2-0.3
						c-1.5,4-3,11.3,0.1,15c0.5,0.6,1,0.9,1.7,1.3c1.4,0.9,2.5,2,3.9,2.9c1.6,1.1,3.2,1.1,5.1,1
						C160.2,306.5,160.2,305.3,159.4,305.3L159.4,305.3z"/>
				</g>
			</g>
			<g>
				<g>
					<path class="st2" d="M149.9,286.5c-0.1-2.3-0.5-4.5-1.1-6.7c-0.2-0.7-1.4-0.4-1.2,0.3c0.6,2.1,1,4.2,1.1,6.3
						C148.7,287.3,149.9,287.3,149.9,286.5L149.9,286.5z"/>
				</g>
			</g>
			<g>
				<g>
					<path class="st2" d="M163,279.6c0.2-4.3-6.3-3.1-8.9-3c-1.9,0-8.4-0.4-6.9,3.4c0.3,0.7,1.4,0.4,1.2-0.3
						c0.8-0.6,1.6-1.2,2.4-1.9c0.6,0,1.1,0,1.7,0c0.9,0,1.8,0,2.8-0.1c1.4,0,6.7-0.8,6.6,1.8C161.8,280.4,163,280.4,163,279.6
						L163,279.6z"/>
				</g>
			</g>
		</g>
	</g>
</g>
</svg>
