<?xml version="1.0" encoding="utf-8"?>
<!-- Generator: Adobe Illustrator 21.0.2, SVG Export Plug-In . SVG Version: 6.00 Build 0)  -->
<svg version="1.1" id="Layer_1" xmlns="http://www.w3.org/2000/svg" xmlns:xlink="http://www.w3.org/1999/xlink" x="0px" y="0px"
	 viewBox="0 0 200 600" style="enable-background:new 0 0 200 600;" xml:space="preserve">
<style type="text/css">
	.st0{fill:#FEFBDB;}
	.st1{display:none;}
	.st2{display:inline;fill:#FEFBDB;}
	.st3{fill:#FCF2D8;}
</style>
<g>
	<g>
		<g>
			<g>
				<g id="XMLID_2_">
					<g>
						<path class="st0" d="M78.5,131.5c0.1,0.7,0.5,1.4,1,1.9c0.9,0.9,2.1,1.4,3.3,1.8c11.2,3.8,23.7,4.1,35.1,0.6
							c2.2-0.7,4.3-1.4,6.5-2l0.1-0.1c0.3-8.9,0.2-17.9-0.5-26.8l0.3-0.6c1.5,0,3,0.1,4.5,0.3l0.3,0.8c0.1,2,0,4.1,0,6.1
							c-0.1,2.4-0.1,4.9-0.1,7.3c-0.1,4.2-0.2,8.3-0.7,12.4l0.1,0c3.1,2,5.5,5,7,8.4c1.4,3.1,2.1,6.4,2.2,9.7h0.1
							c0.1,0.7,0.1,1.5-0.2,2.2c-0.1,0.2-0.2,0.5-0.3,0.7c-0.1,0.3,0,0.6,0,0.9c0.3,2.5-0.1,5.1-1.5,7.1c-0.5,0.7-1,1.4-1.6,2.1
							c-1.2,1.4-2.4,2.7-3.6,4.1l-0.6-0.4c-0.2,0.4-0.4,0.7-0.6,1.1c-0.3,5-0.6,10-0.9,15c-1.2,19.5-2.4,39.1-6.2,58.3l-0.1,0.2
							c-2.2-0.6-4.5-0.5-6.7-0.8c-2.3-0.2-4.6-0.9-6.9-1.1c-2.5-0.3-5-0.2-7.6,0c-8.1,0.4-16.2,0.8-24.1,2.2l-0.5,0
							c-1.1-16-2.3-31.9-3.4-47.9l-0.1,0c-1.5-8.9-0.7-18.1-2.3-26.9c0,0,0,0,0,0c0,0,0,0,0,0c-1.1-1.1-2.4-1.9-3.5-3
							c-3.9-3.8-5.3-10-3.4-15.1l0.3,0.1c1.2-6,3.6-12.1,8.5-15.8l0-0.8c2.3-8.6,0.7-17.8,1.8-26.7l0.6,0.1c0.3,0.1,0.6,0.1,0.8,0.2
							c1-0.3,2.2-0.3,3.2-0.1l0,0c0.3,0.3,0.4,0.8,0.4,1.3c0.3,5.9,0,11.8-0.4,17.7c-0.1,1.5-0.2,2.9-0.2,4.4
							C78.4,130.7,78.4,131.1,78.5,131.5z"/>
					</g>
					<g>
					</g>
				</g>
			</g>
			<g class="st1">
				<path class="st2" d="M79.2,200.5c-0.5-1.2,0.1-2.6,0.5-3.9c0.4-1.3,0.5-3-0.7-3.6c-0.6,1.6-0.7,3.4-0.2,5.1
					c0-2.2-0.1-4.3-0.5-6.5c0,0.5,0,0.9,0,1.4c-0.2-0.5-0.3-1.1-0.5-1.6c0.1,2.1,0.2,4.2,0.4,6.3c0.3,5.1,0.6,10.2,0.4,15.4
					c0,0.9-0.1,1.9,0.2,2.8c0.1,0.5,0.4,0.9,0.5,1.3c0.6,1.8-0.1,4.2,1.2,5.5"/>
			</g>
			<g>
				<path class="st0" d="M88.1,226.5c-1,1.3-2.9,1.5-4.5,1.3c-0.4,0-0.8-0.1-1.2-0.3c-0.6-0.4-0.9-1.2-0.7-1.9
					c-0.2,1.1-0.6,2.1-1.2,3.1c-1.1-0.9,0.2-3-0.7-4.1"/>
			</g>
			<g>
				<path class="st0" d="M120.3,158.1c3.2-0.8,6.2-2.4,8.7-4.5c0.3,2-0.2,4.1-1.3,5.7c1.9-1.5,3.4-3.5,4.4-5.8
					c0.8,1.9-0.3,4.2-2,5.3c-1.7,1.2-3.8,1.5-5.8,1.8c-2.1,0.3-4.3,0.5-6.4,0.2c-0.4-0.1-0.8-0.1-1.2,0c-0.4,0.2-0.6,0.6-0.9,0.9
					c-1.2,2.2-2.3,4.4-3.2,6.7c-0.2-0.8-0.1-1.7,0.3-2.4c0.8,1.7,1.4,3.4,1.9,5.2c0.5-1,0.9-2.1,1.4-3.1c0.5,0.8,1,1.8,1.2,2.8
					c0.9-1.1,1.7-2.3,2.4-3.5c0.4,1,0.7,2,0.8,3.1c0.7-0.3,1.3-0.9,1.6-1.6c0,0.3,0,0.7,0,1c0.5-1,1.1-1.9,1.6-2.9
					c0.1,0.5,0.2,0.9,0.3,1.4c0.3-0.3,0-0.9-0.5-0.9s-0.9,0.1-1.3,0.2c-0.6,0.1-1.3-0.1-1.9-0.1c-1.9-0.1-3.6,1-5.2,2
					c-4.3,2.7-8.8,5-13.4,7c-0.4,0.2-0.9,0.4-1.3,0.2c-0.4-0.2-0.6-0.7-0.7-1.2c-0.3-1.2-0.6-2.3-0.9-3.5c-0.9,1.2-2.7,1.4-4,0.8
					c-1.3-0.6-2.2-2-2.5-3.4c-0.2-0.8-0.3-1.6-0.7-2.3c-0.4-0.7-1.5-1.1-2.1-0.5c-0.1-0.2-0.2-0.3-0.3-0.5c-3,1.9-6.5,2.9-10,3.1
					c-0.7-1.5-2.5-2.5-4.1-2.2"/>
			</g>
			<g>
				<path class="st0" d="M71.5,168.6c1.1,0.3,2.1,0.7,3.2,1c0.9,0.3,1.7,0.5,2.6,0.7c2,0.3,4.1-0.1,6-0.8c1.9-0.7,3.7-1.8,5.4-2.8"
					/>
			</g>
			<g>
				<path class="st0" d="M128.3,168c-1.1,0.3-2.1,0.7-3.2,1c-0.9,0.3-1.7,0.5-2.6,0.7c-2,0.3-4.1-0.1-6-0.8s-3.7-1.8-5.4-2.8"/>
			</g>
		</g>
		<g>
			<path class="st0" d="M112,166.2c2.8,1.5,5.8,3.1,9,3.3c2.2,0.1,4.4-0.5,6.6-1.2"/>
		</g>
		<g>
			<path class="st0" d="M127.9,168.2c0.1-0.1,0.2-0.2,0.4-0.3"/>
		</g>
		<g>
			<path class="st0" d="M124,150.7c0.2-0.3,0.7-0.4,0.9-0.1c0.3,0.2,0.3,0.7,0,0.9c-0.3,0.2-0.8-0.1-0.7-0.4c0-0.3,0.3-0.5,0.6-0.5
				c1.1-0.2,2.2,0.9,2,2c0.1-0.4,0.6-0.7,1-0.6c0.4,0.1,0.8,0.4,1,0.8c0.1,0.2,0.2,0.5,0.1,0.7c-0.1,0.2-0.6,0.2-0.5-0.1
				c0.1-0.4,0.6-0.6,1-0.4c0.4,0.2,0.5,0.7,0.3,1c0.1-0.2,0.3-0.5,0.5-0.5c0.3-0.1,0.6,0.1,0.6,0.3c0.1,0.3-0.2,0.5-0.5,0.4
				c0.3-0.3,0.8-0.3,1.2-0.2c0.1,0.2-0.1,0.5-0.3,0.5c-0.2-0.3,0.1-0.7,0.5-0.7c0.4,0,0.6,0.3,0.9,0.5c-0.4,0.1-0.7,0.4-0.8,0.8"/>
		</g>
		<g>
			<path class="st0" d="M87.1,230.7c-1,0.6-2.3,0.6-3.3,0.1c-1-0.5-1.7-1.6-1.8-2.7c-0.1,0.8-0.2,1.6-0.3,2.3
				c-0.3-1.2-0.6-2.4-1-3.5c-0.1,1.2,0,2.4,0.2,3.6c-0.6-2-0.8-4.2-1-6.3c-0.9-8.9-1.5-17.8-2.1-26.7c-0.2-2.3-0.3-4.6-0.5-6.9
				c0-0.6-0.1-1.3-0.1-1.9c-0.2-3.8-0.4-7.6-0.4-11.4"/>
		</g>
		<g>
			<path class="st0" d="M87.3,166.2c-2.8,1.5-5.8,3.1-9,3.3c-2.2,0.1-4.4-0.5-6.6-1.2"/>
		</g>
	</g>
	<g>
		<g>
			<path class="st3" d="M71.5,169.4c5.1,1,10.6,1.2,14.8-2.4c0.6-0.5-0.3-1.4-0.8-0.8c-3.8,3.3-9,3-13.6,2.1
				C71.1,168.1,70.7,169.3,71.5,169.4L71.5,169.4z"/>
		</g>
	</g>
	<g>
		<g>
			<path class="st3" d="M128.1,168c-4.6,0.9-9.8,1.2-13.6-2.1c-0.6-0.5-1.4,0.3-0.8,0.8c4.2,3.6,9.7,3.4,14.8,2.4
				C129.2,169,128.9,167.8,128.1,168L128.1,168z"/>
		</g>
	</g>
	<g>
		<g>
			<g>
				<path d="M122.9,242.8c3.9-24.7,5.9-49.4,6.8-74.4c0-0.8-1.2-0.8-1.2,0c-0.9,24.9-2.8,49.4-6.8,74
					C121.7,243.3,122.8,243.6,122.9,242.8L122.9,242.8z"/>
			</g>
		</g>
		<g>
			<g>
				<path d="M76.8,242.5c-3.3-24.7-5-49.4-5.7-74.4c0-0.8-1.2-0.8-1.2,0c0.8,25,2.4,49.8,5.8,74.7C75.7,243.6,76.9,243.3,76.8,242.5
					L76.8,242.5z"/>
			</g>
		</g>
		<g>
			<g>
				<path d="M72.1,133.7c-10.5,8-14,26.4-2.1,34.8c0.6,0.4,1.2-0.6,0.6-1c-11.1-7.9-7.6-25.2,2.1-32.7
					C73.3,134.3,72.7,133.2,72.1,133.7L72.1,133.7z"/>
			</g>
		</g>
		<g>
			<g>
				<path d="M130.3,168.8c13.9-6.7,8.9-28.3-1.4-35.9c-0.6-0.5-1.2,0.6-0.6,1c9.6,7.1,14.4,27.5,1.4,33.8
					C129,168.1,129.6,169.2,130.3,168.8L130.3,168.8z"/>
			</g>
		</g>
		<g>
			<g>
				<path d="M72.7,134.3c1.1-4,0.9-8.4,1.1-12.6c0.2-4.9,0.4-9.8,0.5-14.8c0-0.8-1.2-0.8-1.2,0c-0.1,4.3-0.3,8.6-0.4,12.9
					c-0.2,4.6,0.1,9.7-1.1,14.1C71.3,134.8,72.5,135.1,72.7,134.3L72.7,134.3z"/>
			</g>
		</g>
		<g>
			<g>
				<path d="M79.8,132.9c-1.2-4,0.3-9.3,0.5-13.5c0.2-4.4,0.2-8.8,0-13.2c0-0.8-1.2-0.8-1.2,0c0.2,5,0.2,10-0.1,15
					c-0.2,3.9-1.5,8.2-0.3,11.9C78.9,134,80.1,133.7,79.8,132.9L79.8,132.9z"/>
			</g>
		</g>
		<g>
			<g>
				<path d="M129.2,133.5c0.8-8.9,1-17.8,0.6-26.7c0-0.8-1.2-0.8-1.2,0c0.4,8.9,0.2,17.8-0.6,26.7
					C127.9,134.3,129.1,134.2,129.2,133.5L129.2,133.5z"/>
			</g>
		</g>
		<g>
			<g>
				<path d="M124.6,133.9c2.3-8.4,0.2-18.7-0.3-27.3c0-0.8-1.2-0.8-1.2,0c0.5,8.5,2.5,18.7,0.3,27
					C123.3,134.4,124.4,134.7,124.6,133.9L124.6,133.9z"/>
			</g>
		</g>
		<g>
			<g>
				<path d="M74.3,107.3c1.5,0,3.1,0,4.6-0.1c0.8-0.1,0.8-1.3,0-1.2c-1.5,0.1-3.1,0.2-4.6,0.1C73.5,106.1,73.5,107.3,74.3,107.3
					L74.3,107.3z"/>
			</g>
		</g>
		<g>
			<g>
				<path d="M124.1,106.7c1.6,0,3.2-0.1,4.7-0.2c0.8,0,0.8-1.2,0-1.2c-1.6,0.1-3.2,0.1-4.7,0.2C123.4,105.5,123.4,106.7,124.1,106.7
					L124.1,106.7z"/>
			</g>
		</g>
		<g>
			<g>
				<path d="M76.9,243.4c15.2-3.2,30.7-2.7,45.8,0.7c0.8,0.2,1.1-1,0.3-1.2c-15.3-3.5-30.9-4-46.4-0.7
					C75.8,242.4,76.1,243.5,76.9,243.4L76.9,243.4z"/>
			</g>
		</g>
		<g>
			<g>
				<path d="M79.2,134.2c5.8,3.9,14.3,4.7,21.1,4.6c8.3,0,16.4-1.7,24.2-4.3c0.2-0.1,0.5-0.3,0.4-0.6c0-0.2,0-0.4-0.1-0.7
					c-0.1-0.8-1.3-0.8-1.2,0c0.2,2.4-20,4.2-21.6,4.3c-7.2,0.2-16.2-0.3-22.3-4.4C79.2,132.8,78.6,133.8,79.2,134.2L79.2,134.2z"/>
			</g>
		</g>
		<g>
			<g>
				<path d="M112.9,137.5c3.8-0.4,7.5-1.3,11-2.7c0.7-0.3,0.4-1.4-0.3-1.2c-3.5,1.4-7,2.3-10.7,2.7
					C112.1,136.4,112.1,137.6,112.9,137.5L112.9,137.5z"/>
			</g>
		</g>
	</g>
</g>
</svg>
