<?xml version="1.0" encoding="utf-8"?>
<!-- Generator: Adobe Illustrator 21.0.2, SVG Export Plug-In . SVG Version: 6.00 Build 0)  -->
<svg version="1.1" id="Layer_1" xmlns="http://www.w3.org/2000/svg" xmlns:xlink="http://www.w3.org/1999/xlink" x="0px" y="0px"
	 viewBox="0 0 200 600" style="enable-background:new 0 0 200 600;" xml:space="preserve">
<style type="text/css">
	.st0{fill:#FCBC79;}
	.st1{fill:#141113;}
	.st2{fill:#292728;}
</style>
<g>
	<g>
		<g>
			<path class="st0" d="M72.6,567.8c-1,0-10.1,0.9-9.1-1.6c0.5-1.1,11.2-0.3,12.8-0.3c4.3,0,10.2,1.3,11.8-3.8
				c0.4-1.3-1.1-2.3-2.2-1.7c-0.8,0.4-1,0.7-1.4,1.5c0.9,0.3,1.9,0.5,2.8,0.8c-0.3-4.1-0.7-8.2-1-12.3c-0.3-4.1-1.1-9.4-0.4-13.4
				c-0.9,0.1-1.8,0.2-2.7,0.4c1.6,2.7,1.8,5.4,1.9,8.5c0,2,2.8,1.9,3,0c0.3-2.2,0.6-4.3,0.9-6.5c-1,0-2,0-3,0c0,2,0.1,4,0.1,6
				c0,1.6,2.7,2.1,2.9,0.4c0.3-1.9,0.7-3.5,1.4-5.3c-1-0.1-2-0.3-2.9-0.4c0,1.8-0.2,3.7-0.5,5.5c-0.3,1.9,2.6,2.7,2.9,0.8
				c0.3-1.9,0.7-3.8,1-5.7c-1-0.1-2-0.3-2.9-0.4c0.1,1.7,0.1,3.3-0.1,5c-0.1,1.7,2.6,2,2.9,0.4c0.4-1.9,0.8-3.8,1.2-5.7
				c-1-0.1-2-0.3-2.9-0.4c0,1.4,0,2.7,0.1,4.1c0,1.6,2.6,2.1,2.9,0.4c0.4-1.7,0.7-3.3,1.1-5c-1,0-1.9,0-2.9,0c0.1,1,0.2,1.9,0.3,2.9
				c1,0,2,0,3,0c-0.2-1.4-0.1-2.7,0.3-4c-1-0.1-2-0.3-2.9-0.4c-0.9,8-2.3,15.8-4.3,23.6c-0.4,1.7,1.8,2.5,2.7,1.2
				c3-4.4,3.4-9.5,3.4-14.7c-1,0.1-2,0.3-2.9,0.4c1,3.1-1.5,6.3-2.9,8.9c0.9,0.1,1.8,0.2,2.7,0.4c-0.9-2.7-0.8-5.2-0.6-7.9
				c-1,0.1-2,0.3-2.9,0.4c0.4,2.3,0.3,4.2,0.1,6.4c1-0.1,2-0.3,2.9-0.4c-0.6-3-0.5-5.5,0.4-8.4c-1-0.1-2-0.3-2.9-0.4
				c0.2,2.1,0.2,3.5-0.4,5.6c1,0,1.9,0,2.9,0c-1-2.3-1.1-4.2,0.1-6.6c-0.9-0.3-1.9-0.5-2.8-0.8c0.1,2.8-0.4,5.3-1.5,7.9
				c1,0,1.9,0,2.9,0c-0.6-2-0.5-3.9,0.2-5.9c-1-0.1-2-0.3-2.9-0.4c0.3,3.1,0.3,6.1,0,9.3c1,0,2,0,3,0c-0.2-1.7,0-3.4,0.6-5.1
				c-1-0.1-2-0.3-2.9-0.4c-0.2,2.4-0.6,4.8-1.1,7.2c-0.4,1.9,2.2,2.6,2.9,0.8c0.4-0.9,0.7-1.8,0.9-2.8c-1,0-1.9,0-2.9,0
				c-0.1,1.2-0.1,2.4-0.2,3.6c1,0.3,1.9,0.5,2.9,0.8c0.1-0.3,0.1-0.7,0.2-1c-1,0-1.9,0-2.9,0c0.2,0.5,0.3,1,0.5,1.5
				c0.4,1.3,2.7,1.6,2.9,0c0.1-0.6,0.2-1.2,0.3-1.8c0.3-1.9-2.6-2.7-2.9-0.8c-0.1,0.6-0.2,1.2-0.3,1.8c1,0,1.9,0,2.9,0
				c-0.2-0.5-0.3-1-0.5-1.5c-0.4-1.3-2.6-1.6-2.9,0c-0.1,0.3-0.1,0.7-0.2,1c-0.3,1.9,2.4,2.7,2.9,0.8c0.5-1.9,0.5-3.3,0.2-5.2
				c-0.2-1.5-2.5-1.3-2.9,0c-0.2,0.9-0.5,1.9-0.9,2.8c1,0.3,1.9,0.5,2.9,0.8c0.5-2.7,0.9-5.3,1.2-8c0.2-1.7-2.5-2-2.9-0.4
				c-0.5,2-0.7,3.8-0.7,5.9c0,2,2.8,1.9,3,0c0.4-3.1,0.4-6.1,0-9.3c-0.2-1.6-2.4-2.1-2.9-0.4c-0.8,2.6-0.8,4.8-0.2,7.5
				c0.4,1.6,2.4,1.2,2.9,0c1.2-2.9,1.6-5.6,1.6-8.7c0-1.4-2.1-2.1-2.8-0.8c-1.5,3-1.7,5.9-0.4,9c0.5,1.3,2.5,1.6,2.9,0
				c0.5-2.2,0.7-4.1,0.5-6.3c-0.2-1.6-2.5-2.1-2.9-0.4c-1,3.4-1.1,6.6-0.4,10c0.4,1.8,2.8,1.1,2.9-0.4c0.3-2.5,0.2-4.8-0.2-7.2
				c-0.3-1.8-2.8-1.2-2.9,0.4c-0.3,3.1-0.3,5.8,0.7,8.7c0.4,1.2,2.1,1.5,2.7,0.4c1.9-3.5,4.6-7.1,3.2-11.3c-0.5-1.6-2.9-1.3-2.9,0.4
				c-0.1,4.7-0.3,9.2-3,13.2c0.9,0.4,1.8,0.8,2.7,1.2c2-8,3.5-16.1,4.4-24.4c0.2-1.7-2.6-2-2.9-0.4c-0.4,1.7-0.5,3.1-0.5,4.8
				c0.1,1.9,2.8,1.9,3,0c0.2-2.1,0.2-1.7-0.4-3.7c-0.4-1.4-2.6-1.5-2.9,0c-0.4,1.7-0.7,3.3-1.1,5c1,0.1,2,0.3,2.9,0.4
				c0-1.4,0-2.7-0.1-4.1c0-1.6-2.6-2.1-2.9-0.4c-0.4,1.9-0.8,3.8-1.2,5.7c1,0.1,2,0.3,2.9,0.4c0.1-1.7,0.2-3.3,0.1-5
				c-0.1-1.6-2.6-2.2-2.9-0.4c-0.3,1.9-0.7,3.8-1,5.7c1,0.3,1.9,0.5,2.9,0.8c0.3-2.1,0.5-4.1,0.6-6.3c0.1-1.8-2.4-1.9-2.9-0.4
				c-0.7,1.8-1.1,3.4-1.4,5.3c1,0.1,2,0.3,2.9,0.4c0-2-0.1-4-0.1-6c0-2-2.8-1.9-3,0c-0.3,2.2-0.6,4.3-0.9,6.5c1,0,2,0,3,0
				c-0.1-3.6-0.4-6.9-2.3-10c-0.6-1-2.5-1-2.7,0.4c-0.7,3.9-0.1,8.4,0.2,12.4c0.3,4.7,0.7,9.4,1.1,14.1c0.1,1.3,2.2,2.3,2.8,0.8
				c0.1-0.1,0.2-0.3,0.3-0.4c-0.7-0.6-1.5-1.1-2.2-1.7c-1,3.2-15.9,1.5-18.7,1.6c-2.6,0.1-6.2,0.2-7.1,3.2
				c-2.2,6.5,10.4,4.7,13.2,4.7C74.6,570.8,74.6,567.8,72.6,567.8L72.6,567.8z"/>
		</g>
	</g>
	<g>
		<g>
			<path class="st0" d="M72.2,566.3c-1.7,0.4-3.3,0.5-5,0.4c0.1,1,0.3,2,0.4,2.9c1.1-0.7,2.4-0.9,3.7-0.6c0-1,0-2,0-3
				c-1.5,0.1-2.9,0-4.4-0.3c0,1,0,1.9,0,2.9c1.6-0.5,3.2-0.6,4.9-0.4c-0.1-1-0.3-2-0.4-2.9c-1.5,0.6-3.1,0.8-4.8,0.5
				c0.1,0.9,0.2,1.8,0.4,2.7c0.8-0.1,1.7-0.1,2.5-0.2c0.1-1,0.3-2,0.4-2.9c-2.4-0.3-5.6-0.9-7.5,0.9c-0.4,0.3-0.5,1-0.4,1.5
				c0.7,2.5,3.1,2.6,5.4,3.3c0-1,0-1.9,0-2.9c-0.7,0.1-1.4,0.2-2.1,0.2c-1.6,0-2.1,2.6-0.4,2.9c1.9,0.3,3.7,0.5,5.7,0.4
				c-0.1-1-0.3-2-0.4-2.9c-0.8,0.1-1.7,0.3-2.5,0.4c-1.7,0.3-1.3,3.2,0.4,2.9c2.3-0.3,4.2-0.3,6.6,0.1c0.1-1,0.3-2,0.4-2.9
				c-2.1-0.1-4,0.1-6,0.4c0.4,0.9,0.8,1.8,1.2,2.7c2.2-1,4.2-3.9,6.7-4c-0.1-1-0.3-2-0.4-2.9c-1.3,0.3-2.7,0.4-4.1,0.2c0,1,0,2,0,3
				c1.9-0.4,3.8-0.1,5.7,0.8c0-0.9,0-1.7,0-2.6c-1.5,0.7-3,1.3-4.5,2c-1.4,0.6-0.7,2.9,0.8,2.8c1.5-0.1,1.8-0.1,3.3-0.5
				c-0.4-0.9-0.8-1.8-1.2-2.7c-0.8,0.4-1.6,0.8-2.3,1.2c-1.6,0.8-0.4,3,1.2,2.7c1.7-0.3,3.3-0.5,5-0.7c-0.1-1-0.3-2-0.4-2.9
				c-0.6,0.2-1.2,0.3-1.9,0.5c0.4,0.9,0.8,1.8,1.2,2.7c1.6-0.8,3.3-1,5-0.8c0-1,0-2,0-3c-1.9,0.1-2.1,0.2-3.8,1
				c-1.6,0.8-0.4,3.1,1.2,2.7c3-0.7,7.1-0.9,8.6-3.9c1.1-2.2,0.6-5.1-1.6-6.3c-0.6-0.4-1.3-0.2-1.8,0.2c-2.8,2.2-4.9,7.5-9.5,7.1
				c0.5,0.6,1,1.3,1.4,1.9c1.4-0.5,2.9-1.1,4.3-1.6c0-0.9,0-1.7,0-2.6c-0.8,0.1-1.6,0.3-2.4,0.4c0.1,0.6,0.2,1.2,0.2,1.8
				c1.6-0.7,3.1-1.4,4.7-2.1c0.4-0.5,0.7-1,1.1-1.4c-0.1,0.1-0.3,0.1-0.4,0.2c0.6,0.5,1.3,1,1.9,1.4c0,0,0.1,0,0.1,0
				c-0.8-0.1-1.6-0.2-2.4-0.3c0,0,0,0,0,0c1,0,1.9,0,2.9,0c0-0.1,0.1-0.2,0.1-0.3c-0.8,0.1-1.6,0.2-2.4,0.3c-0.1-0.3-0.1-0.6-0.2-1
				c-0.3,1.9,2.6,2.7,2.9,0.8c0.1-0.8,0.1-1.4-0.6-2c-0.8-0.6-1.8-0.6-2.4,0.3c-0.7,1-0.7,1.4-0.4,2.6c0.4,1.5,2.4,1.3,2.9,0
				c0.4-1,0.3-1.4-0.3-2.3c-0.6-0.8-1.6-1-2.4-0.3c-0.8,0.7-0.9,1.1-1,2.1c0,0.9,1,1.8,1.9,1.4c0.1-0.1,0.3-0.1,0.4-0.2
				c0.7-0.3,1-0.7,1.1-1.4c0-0.2,0-0.3,0.1-0.5c0.1-0.5-0.3-1-0.7-1.3c-1.7-1.1-3.6,0.1-3.9,2.1c-0.1,0.5-0.1,1.1,0.4,1.5
				c2.7,2.1,5.6-1.9,3.4-4.1c-2.3-2.4-6.2,1.8-5.5,4.3c0.1,0.5,0.5,1,1,1c1.9,0.4,3.6-1.3,2.5-3.2c-1.5-2.8-6.2-1.1-7.6,0.8
				c-0.4,0.5-0.2,1.4,0.2,1.8c1.8,1.8,4.1,1.3,6,0.1c1-0.6,1-2,0-2.6c-3.8-2.3-7.5-0.8-8.7,3.4c-0.3,1,0.5,1.8,1.4,1.9
				c5.5,0.5,7.9-5,11.6-7.9c-0.6,0.1-1.2,0.2-1.8,0.2c4.1,2.2-6,4.7-6.3,4.7c0.4,0.9,0.8,1.8,1.2,2.7c0.8-0.2,1.5-0.4,2.3-0.6
				c1.9-0.1,1.9-2.9,0-3c-2.4-0.1-4.3,0.3-6.5,1.2c-1.6,0.7-0.4,3.2,1.2,2.7c0.6-0.2,1.2-0.3,1.9-0.5c1.6-0.4,1.3-3.1-0.4-2.9
				c-2,0.2-3.9,0.5-5.8,0.8c0.4,0.9,0.8,1.8,1.2,2.7c0.8-0.4,1.6-0.8,2.3-1.2c1.5-0.8,0.5-3.2-1.2-2.7c-0.8,0.1-1.7,0.3-2.5,0.4
				c0.3,0.9,0.5,1.9,0.8,2.8c1.5-0.7,3-1.3,4.5-2c1-0.4,1-2.2,0-2.6c-2.5-1.1-4.4-1.5-7.2-1.2c-1.9,0.2-2,2.9,0,3
				c1.7,0.1,3.2,0,4.9-0.3c1.7-0.3,1.3-3-0.4-2.9c-3.7,0.2-5,3-8.2,4.5c-1.7,0.8-0.4,3,1.2,2.7c1.7-0.4,3.5-0.5,5.2-0.3
				c1.7,0.1,2.1-2.7,0.4-2.9c-2.5-0.4-4.8-0.5-7.4-0.2c0.1,1,0.3,2,0.4,2.9c0.8-0.1,1.7-0.3,2.5-0.4c1.7-0.3,1.3-3-0.4-2.9
				c-1.6,0.1-3.3,0-4.9-0.3c-0.1,1-0.3,2-0.4,2.9c1.3,0,1.7-0.1,2.9-0.4c1.5-0.3,1.3-2.5,0-2.9c-0.9-0.8-1.6-0.8-1.9,0
				c1.2,0,2.4,0,3.6,0.2c1.8,0.2,1.8-2.4,0.4-2.9c-1.8-0.8-3-0.4-4.8,0.5c-1.1,0.5-0.9,2.6,0.4,2.7c2.3,0.3,4.1,0.2,6.4-0.5
				c1.6-0.5,1.3-2.9-0.4-2.9c-2-0.1-3.7,0.1-5.7,0.5c-1.4,0.3-1.5,2.6,0,2.9c1.7,0.3,3.4,0.5,5.2,0.4c2,0,1.9-2.8,0-3
				c-1.7-0.1-2.9,0-4.5,0.7c-1.5,0.6-1.4,2.9,0.4,2.9c2,0,3.8-0.1,5.8-0.5C74.9,568.8,74.1,566,72.2,566.3L72.2,566.3z"/>
		</g>
	</g>
	<g>
		<g>
			<path class="st0" d="M80.2,568.9c0.8,0.1,1.5,0,2.1-0.6c0.8-0.8,0.4-2.2-0.7-2.5c-0.8-0.2-1.6-0.4-2.4-0.6
				c0.2,0.8,0.4,1.7,0.7,2.5c-0.3,0-0.6,0-0.9-0.1c0.4-0.9,0.7-1.7,1.1-2.6c-0.6,0-1.1-0.1-1.6-0.4c-0.3,0.9-0.5,1.9-0.8,2.8
				c0.1,0,0.3,0.1,0.4,0.1c0.7,0.3,1.6-0.3,1.8-1c0.2-0.9-0.3-1.5-1-1.8c-0.4-0.2-0.8-0.2-1.2-0.2c-1.6-0.1-1.9,2.1-0.8,2.8
				c0.9,0.6,2,0.9,3.2,0.8c1.1-0.1,2.2-1.7,1.1-2.6c-1-0.8-2.4-0.9-3.3,0.1c-0.6,0.8-0.6,2.3,0.7,2.5c0.8,0.2,1.6,0.4,2.4,0.6
				c-0.2-0.8-0.4-1.7-0.7-2.5c0.1-0.1,0.2-0.1,0.2-0.2c0.3,0,0.5,0,0.8,0c-0.1,0-0.1,0-0.2,0c-0.8-0.1-1.6,0.2-1.8,1
				C79,567.8,79.4,568.8,80.2,568.9L80.2,568.9z"/>
		</g>
	</g>
	<g>
		<g>
			<path class="st0" d="M111.7,546.3c-0.4-1.9-0.9-3.4-1.8-5.1c-0.8,0.6-1.6,1.2-2.4,1.8c0.4,0.9,0.9,1.8,1.3,2.7
				c1-0.3,1.9-0.5,2.9-0.8c-0.4-1.3-0.7-2.5-0.9-3.8c-0.2-1.5-2.6-1.4-2.9,0c-0.2,0.7-0.3,1.5-0.5,2.2c1,0,1.9,0,2.9,0
				c-0.1-1-0.1-2-0.2-2.9c0.1-1.7-2.7-2.1-2.9-0.4c0.2-0.2,0.5-0.5,0.7-0.7c0.6,0.3,1.2,0.7,1.8,1c-0.1-0.2-0.1-0.4-0.2-0.6
				c-0.5-1.5-3-1.4-2.9,0.4c0.1,4.9,2.5,9.4,2.5,14.2c0.9-0.3,1.9-0.5,2.8-0.8c-0.8-1.4-1.3-2.9-1.4-4.4c-1,0.3-1.9,0.5-2.9,0.8
				c0.4,0.8,0.7,1.6,0.7,2.5c1-0.3,1.9-0.5,2.9-0.8c-0.4-2.3-0.8-4.5-1.2-6.8c-1,0.3-1.9,0.5-2.9,0.8c1.3,4.9,0.9,10.1,3.3,14.7
				c0.8-0.6,1.6-1.2,2.4-1.8c-0.2-0.3-0.4-0.7-0.6-1c-0.8,0.5-1.7,1-2.5,1.5c0.9,0.7,1.6,1.5,2,2.6c0.7,1.3,2.8,0.7,2.8-0.8
				c0-0.5,0-1,0-1.4c-0.9,0.3-1.9,0.5-2.8,0.8c0.3,0.5,0.6,0.9,0.9,1.4c0.7,1.1,2.4,0.9,2.7-0.4c1.2-4.4,1.9-8.8,2.2-13.3
				c0.2-2.6,1.2-6.4-0.7-8.5c-0.3-0.4-1-0.6-1.5-0.4c-4.7,1.8-3.4,13.1-3.7,16.9c1-0.1,2-0.3,2.9-0.4c-1.1-4.3,0.2-8.6-0.2-13
				c-0.2-1.9-3-2-3,0c0.1,4.5-0.1,8.9-0.7,13.4c1,0.1,2,0.3,2.9,0.4c-0.2-4.4-0.4-8.7-0.4-13.1c-1,0.1-2,0.3-2.9,0.4
				c1.5,5.1,1.9,10.1,1.5,15.4c1-0.1,2-0.3,2.9-0.4c-0.1-1.1-0.3-2.1-0.4-3.2c-1,0.1-2,0.3-2.9,0.4c1.1,3.6-0.4,7.5,2.4,10.3
				c1.2,1.3,3.1-0.3,2.4-1.8c-0.2-0.9-0.5-1.9-0.7-2.8c-0.9,0.4-1.7,0.7-2.6,1.1c0.8,0.5,1.5,1.2,2.1,2c0.7-0.7,1.4-1.4,2.1-2.1
				c-0.4-0.4-0.9-0.8-1.3-1.1c-0.7,0.7-1.4,1.4-2.1,2.1c1.9,1.5,3.6,1.9,6,2c1.7,0.1,2-2.6,0.4-2.9c-0.7-0.2-1.5-0.4-2.2-0.5
				c-0.1,1-0.3,2-0.4,2.9c3.2,0.3,6.4,0.6,9.7,0.7c2.3,0.1,9.8-1.1,10.4,2.5c0.3,1.7,3,1.3,2.9-0.4c0-1-0.1-1.9-0.1-2.9
				c-1,0-2,0-3,0c0.5,5.1-9.8,3.7-12.6,3.4c-3.6-0.3-13.6-1-11.3-6.9c0.7-1.8-2.2-2.6-2.9-0.8c-3.5,8.8,6.7,9.9,13.3,10.6
				c5.3,0.6,17.2,2.1,16.5-6.3c-0.2-1.9-3.1-2-3,0c0,1,0.1,1.9,0.1,2.9c1-0.1,2-0.3,2.9-0.4c-0.5-3-2.6-4.2-5.5-4.6
				c-5.7-0.7-11.7-0.2-17.5-0.8c-1.7-0.2-2,2.6-0.4,2.9c0.7,0.2,1.5,0.4,2.2,0.5c0.1-1,0.3-2,0.4-2.9c-1.5,0.1-2.8-0.2-3.9-1.1
				c-1.5-1.2-3.6,0.8-2.1,2.1c0.4,0.4,0.9,0.8,1.3,1.1c1.5,1.3,3.4-0.7,2.1-2.1c-0.6-0.8-1.3-1.5-2.1-2c-0.9-0.7-2.6-0.4-2.6,1.1
				c0.1,1.7,0.4,2.8,1.1,4.3c0.8-0.6,1.6-1.2,2.4-1.8c-1.5-1.6-0.9-6.9-1.6-9c-0.5-1.5-3-1.4-2.9,0.4c0.1,1.8,0.1,2.2,0.5,4
				c0.4,1.8,2.8,1.2,2.9-0.4c0.5-5.6,0-10.9-1.6-16.2c-0.5-1.6-3-1.3-2.9,0.4c0.1,4.4,0.2,8.7,0.4,13.1c0.1,1.6,2.7,2.2,2.9,0.4
				c0.6-4.7,0.9-9.4,0.8-14.2c-1,0-2,0-3,0c0.5,4.6-0.8,9.2,0.3,13.8c0.4,1.7,2.8,1.2,2.9-0.4c0.1-2.4,0.2-4.8,0.4-7.2
				c0.1-1.5,0.8-3.6,0.5-5.1c-0.5-3-0.8-1.2-0.9,0.7c-0.3,5.4-0.8,10.8-2.3,16c0.9-0.1,1.8-0.2,2.7-0.4c-0.3-0.5-0.6-0.9-0.9-1.4
				c-0.8-1.2-2.8-0.8-2.8,0.8c0,0.5,0,1,0,1.4c0.9-0.3,1.9-0.5,2.8-0.8c-0.7-1.3-1.4-2.2-2.5-3.2c-1.2-1.1-2.8,0-2.5,1.5
				c0.2,1.3,0.3,1.5,1.4,2.3c1.3,1,3.2-0.2,2.4-1.8c-2.1-4.1-1.7-9.5-3-14c-0.5-1.9-3.2-1.1-2.9,0.8c0.4,2.3,0.8,4.5,1.2,6.8
				c0.3,1.9,3.2,1.1,2.9-0.8c0-0.9-0.2-1.7-0.7-2.5c-0.7-1.8-3.2-1.1-2.9,0.8c0.3,1.9,0.8,3.4,1.7,5.1c0.7,1.4,2.8,0.7,2.8-0.8
				c0-4.9-2.4-9.3-2.5-14.2c-1,0.1-2,0.3-2.9,0.4c0.1,0.2,0.1,0.4,0.2,0.6c0.3,0.8,1,1.2,1.8,1c0.1,0,0.2,0,0.3,0c0.5-0.1,1-0.6,1-1
				c0-0.1,0-0.2,0-0.3c-1-0.1-2-0.3-2.9-0.4c-0.1,2-0.1,1.8,0.3,3.7c0.3,1.4,2.6,1.4,2.9,0c0.2-0.7,0.3-1.5,0.5-2.2
				c-1,0-1.9,0-2.9,0c0.2,1.3,0.5,2.5,0.9,3.8c0.6,1.8,3.4,1.1,2.9-0.8c-0.4-1.6-1-2.7-2.1-4c-1.2-1.3-3.1,0.4-2.4,1.8
				c0.8,1.4,1.3,2.8,1.5,4.4C109.2,549,112.1,548.2,111.7,546.3L111.7,546.3z"/>
		</g>
	</g>
	<g>
		<g>
			<path class="st0" d="M117.9,564.8c-0.1,0-0.2-0.1-0.3-0.1c-0.3,0.9-0.5,1.9-0.8,2.8c3.7-0.4,6.8,1.4,10.2,2.6
				c0.1-1,0.3-2,0.4-2.9c-1.3,0.3-2.7,0.1-4-0.4c-0.1,1-0.3,2-0.4,2.9c4.6,0,9-0.6,13.5-1.7c1.6-0.4,1.3-3-0.4-2.9
				c-4.5,0.1-8.8-0.4-13.2-1.6c-0.1,1-0.3,2-0.4,2.9c1-0.1,3.1-0.4,4,0.2c-0.2-0.6-0.5-1.1-0.7-1.7c-0.2,0.6-12.9,1-12.9,0.9
				c-0.9,0.3-1.9,0.5-2.8,0.8c1.3,2.9,3.4,4.3,6.6,4.5c1.9,0.1,1.9-2.9,0-3c-1.3-1-2.6-2-4-3c-0.6-1.3-3-0.7-2.8,0.8
				c0.6,4.3,4,4.1,7.5,3.2c2.4-0.6,10.3,0.1,11.2-3.3c0.2-0.6-0.1-1.4-0.7-1.7c-1.6-0.9-3.7-0.7-5.6-0.6c-1.7,0.1-2.1,2.5-0.4,2.9
				c4.6,1.3,9.2,1.8,14,1.7c-0.1-1-0.3-2-0.4-2.9c-4.2,1.1-8.4,1.6-12.7,1.6c-1.7,0-2,2.5-0.4,2.9c1.7,0.5,3,0.7,4.8,0.5
				c1.7-0.1,2.1-2.4,0.4-2.9c-3.7-1.3-7-3.1-11-2.7c-1.3,0.1-2.2,2.1-0.8,2.8c1.1,0.5,1.5,0.5,2.7,0.4
				C120.6,567.5,119.7,564.6,117.9,564.8L117.9,564.8z"/>
		</g>
	</g>
</g>
<g>
	<g>
		<g>
			<g>
				<path class="st1" d="M70.8,70.9c1,1.5,2.5,1.7,3.8,0.5c0.4-0.3,0.5-1,0.4-1.5c-0.3-1.2-1.2-2.2-2.6-1.9c-2.2,0.4-2,3-1.9,4.7
					c0.1,1.6,2.6,2.2,2.9,0.4c0.3-1.5,0.5-3,0.8-4.6c0.2-1.3-1.4-2.7-2.5-1.5c-0.8,0.9-1,1.3-1.5,2.5c-0.6,1.6,1.9,2.6,2.7,1.2
					c0.7-1.2,1.3-2.3,1.9-3.6c-0.9-0.4-1.8-0.8-2.7-1.2c-0.2,0.4-0.4,0.9-0.5,1.3c1,0.3,1.9,0.5,2.9,0.8c0.7-2.8,1.5-5.5,2.2-8.3
					c-1-0.3-1.9-0.5-2.9-0.8c-0.2,0.8-0.4,1.7-0.6,2.5c-0.4,1.6,1.9,2.7,2.7,1.2c0.4-1,1-1.8,1.8-2.6c-0.8-0.6-1.6-1.2-2.4-1.8
					c-0.5,1.1-1,2.1-1.5,3.2c0.9,0.5,1.7,1,2.6,1.5c1.8-4.1,2.9-8.2,3.4-12.7c0.2-1.7-2.7-2.1-2.9-0.4c-0.3,1.8-0.6,3.6-0.9,5.4
					c-0.3,1.9,2.6,2.7,2.9,0.8c0.7-4.2,2.2-7.8,4.7-11.3c-0.9-0.5-1.7-1-2.6-1.5c-0.5,1.4-1.3,2.6-2.3,3.7c-1.3,1.4,0.8,3.6,2.1,2.1
					c2-2.2,4.1-4.3,6.4-6.3c-0.7-0.7-1.4-1.4-2.1-2.1c-1.4,1.6-2.9,3.1-4.5,4.6c-1,0.9-0.2,2.5,1.1,2.6c2.9,0,5-0.8,7.2-2.6
					c1.2-1-0.1-2.9-1.5-2.5c-1.9,0.6-3.1,1.3-4.4,2.8c-1.3,1.4,0.8,3.5,2.1,2.1c2.7-2.7,6.6-2.1,9.8-3.9c2.8-1.5,4.1-4.2,5.4-7
					c0.5-1.2-0.7-3.1-2.1-2.1c-3.8,2.9-7.8,5-12.5,6.3c-1.9,0.5-1.1,3.4,0.8,2.9c4-1,7.7-2.4,11.3-4.3c-0.5-0.9-1-1.7-1.5-2.6
					c-1.7,1.2-3.4,2.4-5.1,3.5c-1.6,1.1-0.2,3.4,1.5,2.6c1.7-0.7,2.9-1.6,4.2-2.8c0.7-0.6,0.5-1.9-0.3-2.4c-4.6-2.5-13-1.6-15.6,3.5
					c-0.6,1.2,0.8,3,2.1,2.1c1.8-1.4,3.7-2.4,5.9-3.1c-0.5-0.8-1-1.7-1.5-2.5c-1.1,1.3-2.5,2.2-4.2,2.8c0.5,0.8,1,1.7,1.5,2.5
					c3.6-2.9,8.3-3.6,11.8-6.7c1.5-1.3-0.6-3.3-2.1-2.1c-1.5,1.2-3,2.2-4.7,3.2c-1.7,1-0.2,3.4,1.5,2.6c2.1-1,8-2.6,8.5-5.2
					c0.1-0.7-0.4-1.2-0.4-1.8c0-0.3-0.5-0.6-0.5-0.9c0-0.2,0.5-0.5,0.5-0.8c-0.2-7.6-8.8-1.7-12,0.4c0.6,0.8,1.2,1.6,1.8,2.4
					c1.5-2,3.3-2.2,5.5-0.6c0.8,0.2,1.7,0.4,2.5,0.7c0.1-0.3,0.2-0.5,0.3-0.8c-0.9,0-1.7,0-2.6,0c0.3-0.5,0.7-1,1-1.5
					c-0.8,0.4-1.5,0.9-2.3,1.3c0.9-0.5,1.9-1,2.8-1.5c-0.7,0-1.4,0-2.1,0c0.2,0.1,0.3,0.3,0.5,0.4c-0.1-0.6-0.2-1.2-0.2-1.8
					c0,0-2.6,0.6-2.7,0.7c-0.9,0.6-1.7,1.6-2.1,2.6c-1,2.3-0.5,4.5,0.5,6.6c0.8,1.5,3.3,0.5,2.7-1.2c-0.4-1.8-0.9-3.5-1.3-5.3
					c0.2-0.7-0.3-1.7-1-1.8c-1.8-0.4-3-0.4-4.7,0.3c0.3,1,0.5,1.9,0.8,2.9c1.5-0.6,3-1.3,4.4-2.1c1.4-0.7,0.6-2.7-0.8-2.8
					c-2.5-0.2-5.4,1.6-7.3,2.9c-2.4,1.7-4.1,4.4-5.7,6.8c0.9,0.3,1.9,0.5,2.8,0.8c-0.1-5.3,6-4.6,8.8-4.3c0-1,0-2,0-3
					c-2.1-0.1-4.2-0.2-6.3-0.2c0.3,0.9,0.5,1.9,0.8,2.8c-0.1,0.3-0.3,0.6-0.4,0.8c0.3,0.9,0.5,1.9,0.8,2.8c2.3-1.1,4.2-1.3,6.7-1
					c1.7,0.2,2-2.6,0.4-2.9c-7.6-1.5-11.6,2.2-13.2,9.4c-0.4,1.6,1.9,2.7,2.7,1.2c1.4-2.7,3.1-5,5.2-7.1c-0.8-0.6-1.6-1.2-2.4-1.8
					c-1.6,2.4-3.2,4.8-4.9,7.2c0.9,0.5,1.7,1,2.6,1.5c0.4-0.7,6.1-10.9,3-10.8c-0.2,0-3.4,4.2-3.8,4.7c-1.1,1.3-2.2,2.7-3.2,4.1
					c-3.6,5.5-5.9,13.7-4.8,20.2c0.9-0.4,1.8-0.8,2.7-1.2c-0.8-1.5-1.6-3.1-2.3-4.6c-0.8-1.6-3.1-0.4-2.7,1.2c0.3,1.4,0.7,2.7,1,4.1
					c1-0.3,1.9-0.5,2.9-0.8c-1.2-5.2-0.5-18,5.8-20.1c-0.6-0.6-1.2-1.2-1.8-1.8c-1.7,6.7-7.9,13.6-5.6,21c0.3,1.1,2.2,1.6,2.7,0.4
					c2.4-5.7,4.8-11.4,7.2-17.1c0.6-1.6-2-2.7-2.7-1.2c-1,2.2-2.1,4.4-3.1,6.6c0.9,0.4,1.8,0.8,2.7,1.2c0.7-1.8,1.4-3.6,2.1-5.5
					c0.6-1.6-2.1-2.7-2.7-1.2c-0.7,0.8-1.3,1.7-2,2.5c0.8,0.4,1.5,0.9,2.3,1.3c-0.1-1.8,0.6-3.5,1.9-4.8c1.1-1.3-0.3-3.2-1.8-2.4
					c-2.6,1.4-3.8,3.4-4.2,6.3c-0.2,1.6,2,1.8,2.8,0.8c2.9-4.1,5.7-8.1,8.6-12.2c1.1-1.6-1.5-3.1-2.6-1.5c-2.8,4.1-5.7,8.2-8.6,12.2
					c0.9,0.3,1.9,0.5,2.8,0.8c0.9-1.2,1.8-2.5,2.7-3.7c-0.6-0.8-1.2-1.6-1.8-2.4c-1.8,2.1-2.6,4.2-2.7,6.9c-0.1,1.1,1.3,1.9,2.3,1.3
					c1.5-1,2.4-1.9,3.1-3.6c-0.9-0.4-1.8-0.8-2.7-1.2c-0.7,1.8-1.4,3.6-2.1,5.5c-0.6,1.6,2,2.7,2.7,1.2c1-2.2,2.1-4.4,3.1-6.6
					c-0.9-0.4-1.8-0.8-2.7-1.2c-2.3,5.5-4.6,10.9-6.9,16.4c0.9,0.1,1.8,0.2,2.7,0.4c-2.1-6.7,4-13.4,5.6-19.4
					c0.3-1.1-0.7-2.2-1.8-1.8c-8.3,2.7-9.7,16.6-7.9,23.8c0.5,1.9,3.3,1.1,2.9-0.8c-0.3-1.4-0.7-2.7-1-4.1c-0.9,0.4-1.8,0.8-2.7,1.2
					c0.8,1.5,1.6,3.1,2.3,4.6c0.8,1.6,3,0.4,2.7-1.2c-1.1-6.7,2.2-15,6.2-20.2c1.8-2.3,6.1-5.6,5.9-8.8c0-0.5-0.3-1.1-0.7-1.3
					c-1.3-0.6-2.5-0.7-3.5,0.6c-0.7,0.9-0.8,2.5-1.1,3.5c-0.8,2.6-2.1,4.8-3.4,7.2c-1,1.7,1.5,3.1,2.6,1.5c1.6-2.4,3.2-4.8,4.9-7.2
					c1-1.4-1.2-3-2.4-1.8c-2.4,2.3-4.2,4.8-5.7,7.7c0.9,0.4,1.8,0.8,2.7,1.2c1.1-5.1,3.8-8.4,9.5-7.3c0.1-1,0.3-2,0.4-2.9
					c-3-0.4-5.4,0.1-8.2,1.4c-1.3,0.6-0.7,2.9,0.8,2.8c7.3-0.6,3.6-9.8-1.1-6.4c-1.2,0.9-0.8,2.7,0.8,2.8c2.1,0.1,4.2,0.2,6.3,0.2
					c1.9,0.1,1.9-2.9,0-3c-5.3-0.4-11.9,0.6-11.8,7.3c0,1.6,2,2,2.8,0.8c1.8-2.6,3.1-4.5,5.9-6c1-0.5,3.7-2.3,4.6-2.2
					c-0.3-0.9-0.5-1.9-0.8-2.8c-1.2,0.7-2.4,1.2-3.7,1.7c-1.7,0.7-1,3.6,0.8,2.9c1-0.1,2.1-0.2,3.1-0.3c-0.3-0.6-0.7-1.2-1-1.8
					c-1.4,4.7,5.6,7.4,6.6,2.8c0.9-3.8-5.4-4.1-5.6-0.2c-0.1,4.1,6.4,3.9,5.9-0.2c-0.2-1.7-2-2.7-3.6-2.3c-3.3,0.8-2.8,4.4-2,6.8
					c0.9-0.4,1.8-0.8,2.7-1.2c-2.7-5.3,3-4.4,4.2-6.9c0.3-0.6,0.3-1.3-0.2-1.8c-0.2-0.1-0.3-0.3-0.5-0.4c-0.6-0.6-1.5-0.6-2.1,0
					c-1.6,1.5-3.2,6.5,0.6,6.4c3.5-0.1,2.2-4.2,0.2-5.3c-1.1-0.6-2.1,0.2-2.3,1.3c-0.8,7,7.8,5.6,4.6,0c-0.6-1-2-0.9-2.6,0
					c-0.9,1.2-0.8,1.6-0.6,3.1c0.2,1.1,1.8,1.4,2.5,0.7c1.9-2.1,2.2-5-0.5-6.6c-3.4-1.9-6.7,0.9-9.2,2.9c-1.3,1.1,0.4,3.3,1.8,2.4
					c0.8-0.5,7.1-4.6,7.5-3.9c0-0.1-0.8,1.6-0.8,1.8c0,0.5,0.9,1.7,0.8,1.9c-0.1,0.8-5.3,2.7-6.6,3.4c0.5,0.9,1,1.7,1.5,2.6
					c1.9-1.1,3.6-2.3,5.3-3.6c-0.7-0.7-1.4-1.4-2.1-2.1C91,37.3,86.2,38,82.6,41c-1.1,0.9,0.1,3.1,1.5,2.5c2.1-0.9,3.8-1.9,5.5-3.6
					c1-1,0-3-1.5-2.5c-2.4,0.8-4.5,1.8-6.6,3.4c0.7,0.7,1.4,1.4,2.1,2.1c1.8-3.4,8.7-3.9,11.5-2.4c-0.1-0.8-0.2-1.6-0.3-2.4
					c-1,1.1-2.2,1.9-3.6,2.3c0.5,0.9,1,1.7,1.5,2.6c1.7-1.2,3.4-2.4,5.1-3.5c1.6-1.1,0.2-3.5-1.5-2.6c-3.4,1.8-6.9,3.1-10.6,4
					c0.3,1,0.5,1.9,0.8,2.9c4.9-1.3,9.2-3.5,13.2-6.6c-0.7-0.7-1.4-1.4-2.1-2.1c-2,4.4-4.3,6.1-9.1,7.3c-2.3,0.6-4,1.3-5.7,3
					c0.7,0.7,1.4,1.4,2.1,2.1c1-0.7,2.1-1.3,3.1-2c-0.5-0.8-1-1.7-1.5-2.5c-1.5,1.4-3.2,1.9-5.1,1.7c0.4,0.9,0.7,1.7,1.1,2.6
					c1.6-1.5,3-3,4.5-4.6c1.3-1.5-0.7-3.4-2.1-2.1c-2.3,1.9-4.4,4-6.4,6.3c0.7,0.7,1.4,1.4,2.1,2.1c1.2-1.4,2-2.6,2.8-4.3
					c0.8-1.8-1.5-3.1-2.6-1.5c-2.6,3.7-4.2,7.5-5,12c1,0.3,1.9,0.5,2.9,0.8c0.3-1.8,0.6-3.6,0.9-5.4c-1-0.1-2-0.3-2.9-0.4
					c-0.4,4-1.4,7.6-3,11.2c-0.8,1.7,1.8,3.3,2.6,1.5c0.5-1.1,1-2.1,1.5-3.2c0.7-1.4-1.2-3.2-2.4-1.8c-0.9,1-1.6,2-2.2,3.2
					c0.9,0.4,1.8,0.8,2.7,1.2c0.2-0.8,0.4-1.7,0.6-2.5c0.4-1.9-2.4-2.7-2.9-0.8c-0.7,2.8-1.5,5.5-2.2,8.3c-0.5,1.9,2.2,2.5,2.9,0.8
					c0.2-0.4,0.4-0.9,0.5-1.3c0.6-1.6-2-2.7-2.7-1.2c-0.6,1.2-1.2,2.4-1.9,3.6c0.9,0.4,1.8,0.8,2.7,1.2c0.2-0.4,0.5-0.8,0.7-1.1
					c-0.8-0.5-1.7-1-2.5-1.5c-0.3,1.5-0.5,3-0.8,4.6c1,0.1,2,0.3,2.9,0.4c0-1.1-0.1-2.2-0.1-3.4C72.3,67.8,69.7,69.3,70.8,70.9
					L70.8,70.9z"/>
			</g>
		</g>
		<g>
			<g>
				<path class="st1" d="M75.1,51.3c0.4-1.4,1-2.7,2-3.9c-0.9-0.4-1.7-0.7-2.6-1.1c0.1,1.5-0.4,2.7-0.9,4.1c1,0.3,1.9,0.5,2.9,0.8
					c0.4-1.5,1-2.8,1.9-4c-0.9-0.1-1.8-0.2-2.7-0.4c0.3,1.6,0.1,3.1-0.4,4.7c1,0,1.9,0,2.9,0c-0.1-0.4,0.1-0.7,0.3-1.1
					c-0.9-0.3-1.9-0.5-2.8-0.8c-0.1,1-0.5,1.9-1,2.8c0.9,0.1,1.8,0.2,2.7,0.4c0,0,0,0,0,0c-0.3,0.2-0.6,0.5-0.9,0.7c0,0,0.1,0,0.1,0
					c-0.6-0.5-1.3-1-1.9-1.4c0,0,0,0,0,0c0.2,1.9,3.2,1.9,3,0c0,0,0,0,0,0c-0.1-1.1-0.9-1.6-1.9-1.4c-1.3,0.2-1.5,1.9-1.3,3
					c0.3,1.3,2.1,1.4,2.7,0.4c0.8-1.4,1.2-2.8,1.4-4.3c0.2-1.5-2.1-1.9-2.8-0.8c-0.6,1.1-0.8,2.2-0.6,3.4c0.2,1.6,2.4,1.2,2.9,0
					c0.8-2,0.9-4.1,0.4-6.2c-0.3-1.3-2.1-1.4-2.7-0.4c-1,1.5-1.7,3.1-2.2,4.7c-0.5,1.9,2.2,2.6,2.9,0.8c0.6-1.6,1.1-3.2,1-4.9
					c-0.1-1.2-1.6-2.1-2.6-1.1c-1.3,1.5-2.3,3.2-2.8,5.2C71.8,52.4,74.6,53.2,75.1,51.3L75.1,51.3z"/>
			</g>
		</g>
		<g>
			<g>
				<path class="st1" d="M80.2,87.9c-0.1-0.4-0.2-0.6-0.4-1c-0.8-1.5-3.1-0.5-2.7,1.2c0.3,1.3,0.8,2.5,1.5,3.7
					c0.8,1.4,2.7,0.6,2.8-0.8c0.1-1.2,0-2.3-0.3-3.5c-0.9,0.4-1.8,0.8-2.7,1.2c0.1,0.2,0.1,0.3,0.2,0.5c0.9-0.4,1.8-0.8,2.7-1.2
					c-0.7-1.5-1.6-2.9-2.7-4.3c-1-1.3-2.8,0.1-2.5,1.5c0.3,1.2,0.7,2.3,1.4,3.3c0.7-0.7,1.4-1.4,2.1-2.1c-0.4-0.3-0.4-1.1-0.5-1.6
					c-0.1-0.6-0.3-1-0.6-1.5c-0.9-1.5-3-0.5-2.7,1.2c0,0.1,0,0.3,0.1,0.4c0.9-0.4,1.8-0.8,2.7-1.2c-0.5-0.7-1-1.3-1.5-1.9
					c-1.3-1.5-3.4,0.7-2.1,2.1c0.4,0.4,0.7,0.9,1,1.3c1,1.4,3,0.5,2.7-1.2c0-0.1,0-0.3-0.1-0.4c-0.9,0.4-1.8,0.8-2.7,1.2
					c0.5,0.8,0.4,1.7,0.8,2.6c0.3,0.7,0.8,1.2,1.4,1.6c1.2,0.8,2.9-0.8,2.1-2.1c-0.5-0.8-0.9-1.6-1.1-2.6c-0.8,0.5-1.7,1-2.5,1.5
					c0.9,1.1,1.6,2.4,2.2,3.7c0.8,1.6,3.1,0.4,2.7-1.2c-0.1-0.5-0.2-0.8-0.5-1.2c-0.9-1.5-3.1-0.5-2.7,1.2c0.2,0.9,0.2,1.8,0.2,2.7
					c0.9-0.3,1.9-0.5,2.8-0.8c-0.5-1-0.9-1.9-1.2-3c-0.9,0.4-1.8,0.8-2.7,1.2c0,0.1,0.1,0.2,0.1,0.3C77.7,90.6,80.5,89.8,80.2,87.9
					L80.2,87.9z"/>
			</g>
		</g>
		<g>
			<g>
				<path class="st1" d="M78.8,88.6c0.8,0.7,1.5,1.4,2.3,2.1c0.6,0.5,1.5,0.6,2.1,0c0.6-0.6,0.6-1.6,0-2.1c-0.8-0.7-1.5-1.4-2.3-2.1
					c-0.6-0.5-1.5-0.6-2.1,0C78.2,87,78.2,88,78.8,88.6L78.8,88.6z"/>
			</g>
		</g>
		<g>
			<g>
				<path class="st1" d="M79.5,89.3c0.1,0.1,0.2,0.2,0.3,0.3c0.6,0.6,1.5,0.6,2.1,0c0.6-0.6,0.6-1.5,0-2.1c-0.1-0.1-0.2-0.2-0.3-0.3
					c-0.6-0.6-1.5-0.6-2.1,0C78.9,87.8,78.9,88.8,79.5,89.3L79.5,89.3z"/>
			</g>
		</g>
		<g>
			<g>
				<path class="st1" d="M80.6,89.8c0.9,0.6,1.7,1.3,2.4,2.1c0.5-0.8,1-1.7,1.5-2.5c-0.2-0.1-0.5-0.2-0.7-0.2
					c-0.3,1-0.5,1.9-0.8,2.9c0.5,0.1,1,0.3,1.4,0.7c0.7-0.7,1.4-1.4,2.1-2.1c-0.2-0.2-0.4-0.4-0.6-0.5c-0.6,0.8-1.2,1.6-1.8,2.4
					c0.6,0.3,1.1,0.6,1.7,0.9c1.7,0.9,3.2-1.7,1.5-2.6c-0.6-0.3-1.1-0.6-1.7-0.9c-1.4-0.7-3.2,1.2-1.8,2.4c0.2,0.2,0.4,0.4,0.6,0.5
					c1.5,1.2,3.6-0.9,2.1-2.1c-0.8-0.7-1.7-1.2-2.7-1.5c-1.9-0.5-2.6,2.3-0.8,2.9c0.2,0.1,0.5,0.2,0.7,0.2c1.5,0.5,2.5-1.5,1.5-2.5
					c-0.9-0.9-1.9-1.8-3-2.5C80.5,86.1,79,88.7,80.6,89.8L80.6,89.8z"/>
			</g>
		</g>
		<g>
			<g>
				<path class="st1" d="M75.1,79.5c0.1-0.7,0.3-1.4,0.4-2.1c0.2-0.8-0.2-1.7-1-1.8c-0.8-0.2-1.7,0.2-1.8,1
					c-0.1,0.7-0.3,1.4-0.4,2.1c-0.2,0.8,0.2,1.7,1,1.8C74,80.7,74.9,80.3,75.1,79.5L75.1,79.5z"/>
			</g>
		</g>
		<g>
			<g>
				<path class="st1" d="M72.1,75.6c0,0.3,0,0.6,0,0.8c0,0.8,0.7,1.5,1.5,1.5c0.8,0,1.5-0.7,1.5-1.5c0-0.3,0-0.6,0-0.8
					c0-0.8-0.7-1.5-1.5-1.5C72.8,74.1,72.1,74.8,72.1,75.6L72.1,75.6z"/>
			</g>
		</g>
		<g>
			<g>
				<path class="st1" d="M73,79.7c0.3,0.9,0.7,1.7,1.3,2.4c0.5,0.6,1.3,1,2.1,0.5c0.6-0.4,1-1.4,0.5-2.1c-0.2-0.3-0.4-0.6-0.6-0.9
					c-0.2-0.4-0.3-0.5-0.4-0.8c-0.3-0.8-1-1.3-1.8-1C73.3,78,72.7,78.9,73,79.7L73,79.7z"/>
			</g>
		</g>
		<g>
			<g>
				<path class="st1" d="M74.5,82.3c0.5,0.5,1,1,1.5,1.5c0.6,0.6,1.5,0.6,2.1,0c0.6-0.6,0.6-1.5,0-2.1c-0.5-0.5-1-1-1.5-1.5
					c-0.6-0.6-1.5-0.6-2.1,0C73.9,80.8,73.9,81.8,74.5,82.3L74.5,82.3z"/>
			</g>
		</g>
		<g>
			<g>
				<path class="st1" d="M113,93.7c0.2,0,0.5-0.1,0.7-0.1c1.7-0.2,1.3-3.2-0.4-2.9c-0.7,0.1-1.1,0.2-1.8,0.5
					c-1.6,0.7-0.5,3.2,1.2,2.7c2.1-0.6,4.1-1.5,6.1-2.5c-0.7-0.6-1.5-1.1-2.2-1.7c-0.1,0.3-0.2,0.6-0.2,0.9
					c-0.7,1.4,1.1,3.2,2.4,1.8c0.9-1,1.6-1.9,2.3-3.1c0.9-1.4-1.2-3.1-2.4-1.8c-0.6,0.7-1.2,1.1-1.9,1.5c0.7,0.7,1.4,1.4,2.1,2.1
					c0.5-0.9,1.6-1.2,2.3-1.9c0.6-0.6,1-1.3,1.5-2c1.5-2,3.3-3.6,5.1-5.2c-0.7-0.7-1.4-1.4-2.1-2.1c-1.4,1.7-2.3,3.5-2.9,5.6
					c-0.5,1.7,1.8,2.5,2.7,1.2c0.7-0.9,1.3-1.9,2-2.8c1.1-1.6-1.5-3.1-2.6-1.5c-0.7,0.9-1.3,1.9-2,2.8c0.9,0.4,1.8,0.8,2.7,1.2
					c0.5-1.6,1.1-3,2.1-4.3c1.2-1.5-0.6-3.4-2.1-2.1c-1.9,1.7-3.8,3.5-5.4,5.5c-0.8,1-1.4,1.7-2.4,2.5c-0.7,0.5-1.2,1-1.6,1.8
					c-0.7,1.3,0.7,2.8,2.1,2.1c1-0.5,1.8-1.2,2.5-2c-0.8-0.6-1.6-1.2-2.4-1.8c-0.5,0.9-1.1,1.7-1.8,2.4c0.8,0.6,1.6,1.2,2.4,1.8
					c0.3-0.6,0.4-0.9,0.5-1.6c0.2-1.3-1-2.3-2.2-1.7c-1.7,0.9-3.5,1.6-5.4,2.2C112.3,91.9,112.7,92.9,113,93.7c0.2,0,0.2,0,0.3-0.1
					c-0.1-1-0.3-2-0.4-2.9c-0.2,0-0.5,0.1-0.7,0.1C110.3,91.1,111.1,94,113,93.7L113,93.7z"/>
			</g>
		</g>
		<g>
			<g>
				<path class="st1" d="M124.6,85c1.5-1.2,2.2-2.3,2.8-4.1c0.6-1.7-1.8-2.5-2.7-1.2c-0.7,1-1.4,2.1-2.1,3.1
					c-0.9,1.4,1.2,3.1,2.4,1.8c1.8-2,3.1-4.1,4.3-6.6c0.8-1.7-1.5-3.1-2.6-1.5c-0.9,1.4-1.6,2.7-2.2,4.3c1,0.3,1.9,0.5,2.9,0.8
					c0.2-0.7,0.4-1.3,0.5-2c0.4-1.6-1.9-2.7-2.7-1.2c-0.4,0.9-0.9,1.7-1.5,2.5c0.9,0.5,1.7,1,2.6,1.5c0.8-1.4,1.4-2.8,1.9-4.3
					c-1-0.3-1.9-0.5-2.9-0.8c-0.1,0.4-0.2,0.9-0.3,1.3c-0.5,1.9,2.3,2.6,2.9,0.8c0.8-2.7,1.3-5.3,1.7-8.1c-1,0-2,0-3,0
					c-0.1,2.2-0.1,4.4-0.2,6.6c-0.1,1.9,2.9,1.9,3,0c0.2-5,0.3-10,0.5-14.9c-1,0.1-2,0.3-2.9,0.4c0.7,2.9,0.8,4.9,0.2,7.8
					c-0.3,1.6,2,2.8,2.7,1.2c2.4-5.5,3.4-11.2,0.5-16.7c-0.9-1.6-3-0.4-2.7,1.2c0.4,2.5,0.8,5,1.2,7.5c1-0.3,1.9-0.5,2.9-0.8
					c-1.2-6.8-2.8-13.5-5-20.1c-0.8,0.5-1.7,1-2.5,1.5c2.9,2.4,3.3,7.6,4,11.1c0.3,1.7,3,1.3,2.9-0.4c0-6.3-0.5-12.7-5.6-17.1
					c-1.5-1.3-3.4,0.7-2.1,2.1c3.2,3.7,4.5,8,3.7,12.8c-0.3,1.9,2.6,2.7,2.9,0.8c1-5.9-0.5-11.2-4.4-15.7c-0.7,0.7-1.4,1.4-2.1,2.1
					c4.5,3.9,4.7,9.4,4.7,15c1-0.1,2-0.3,2.9-0.4c-0.8-4.1-1.3-9.6-4.8-12.4c-1.1-0.9-3-0.1-2.5,1.5c2.1,6.6,3.8,13.3,5,20.1
					c0.3,1.9,3.2,1.1,2.9-0.8c-0.4-2.5-0.8-5-1.2-7.5c-0.9,0.4-1.8,0.8-2.7,1.2c2.4,4.5,1.4,9.2-0.5,13.7c0.9,0.4,1.8,0.8,2.7,1.2
					c0.7-3.3,0.6-6.2-0.2-9.4c-0.4-1.7-2.9-1.3-2.9,0.4c-0.2,5-0.3,10-0.5,14.9c1,0,2,0,3,0c0.1-2.2,0.1-4.4,0.2-6.6
					c0.1-2-2.8-1.9-3,0c-0.3,2.5-0.8,4.9-1.6,7.3c1,0.3,1.9,0.5,2.9,0.8c0.1-0.4,0.2-0.9,0.3-1.3c0.5-1.9-2.3-2.6-2.9-0.8
					c-0.4,1.3-0.9,2.5-1.6,3.6c-1,1.7,1.5,3.1,2.6,1.5c0.6-0.8,1.1-1.6,1.5-2.5c-0.9-0.4-1.8-0.8-2.7-1.2c-0.2,0.7-0.4,1.3-0.5,2
					c-0.5,1.9,2.2,2.6,2.9,0.8c0.4-1.3,1.1-2.5,1.9-3.6c-0.9-0.5-1.7-1-2.6-1.5c-1,2.2-2.2,4.1-3.8,6c0.8,0.6,1.6,1.2,2.4,1.8
					c0.7-1,1.4-2.1,2.1-3.1c-0.9-0.4-1.8-0.8-2.7-1.2c-0.7,0.9-1.4,1.8-2.1,2.7C121,84.1,123.1,86.2,124.6,85L124.6,85z"/>
			</g>
		</g>
		<g>
			<g>
				<path class="st1" d="M100.6,32.2c0.3-0.1,0.5-0.2,0.8-0.2c-0.1-0.9-0.2-1.8-0.4-2.7c-0.2,0-0.4,0.1-0.5,0.1
					c0.4,0.5,0.7,1,1.1,1.4c0.1-0.2,0.1-0.3,0.2-0.5c1.4-1.1-0.4-3.1-1.8-2.4c-0.4,0.2-0.7,0.4-1.1,0.6c-1.3,0.7-0.7,2.8,0.8,2.8
					c1.6,0,2.6-0.4,3.7-1.6c-0.6,0.1-1.2,0.2-1.8,0.2c1.6,1,3.3,1.9,5,2.7c1.7,0.7,3.3-1.6,1.5-2.6c-1.3-0.7-2.6-1.4-3.8-2.1
					c-0.4,0.9-0.8,1.8-1.2,2.7c1.5,0.4,2.8,0.9,4.2,1.5c1.6,0.7,2.7-2,1.2-2.7c-1.5-0.7-1.5-0.7-3.1-1.1c-1.9-0.4-2.6,2.2-0.8,2.9
					c2.3,0.8,4.6,1.6,6.8,2.4c1.8,0.7,2.6-2.2,0.8-2.9c-1.4-0.5-2.8-1.2-4.1-1.9c-0.1,0.9-0.2,1.8-0.4,2.7c4-0.7,5.6,3,6.6,5.8
					c0.9-0.4,1.8-0.8,2.7-1.2c-0.8-1.5-1.3-3.1-1.6-4.7c-0.9,0.4-1.8,0.8-2.7,1.2c2.5,3.4,4.7,6.9,6.7,10.6c0.9,1.7,3.4,0.2,2.6-1.5
					c-0.8-1.6-1.5-3.3-2.3-4.9c-0.8,0.6-1.6,1.2-2.4,1.8c2.2,2.1,4.3,4.2,6.4,6.4c1,1.1,3,0,2.5-1.5c-0.9-2.7-2.1-4.9-4-7
					c-0.7,0.7-1.4,1.4-2.1,2.1c1.1,0.8,1.8,1.9,2.3,3.1c0.7,1.3,2.9,0.7,2.8-0.8c-0.2-4.7-3.3-8.4-8-9.1c-1.7-0.2-2.6,1.7-1.2,2.7
					c2.4,1.7,3.8,3.8,4.6,6.6c0.8-0.5,1.7-1,2.5-1.5c-2.8-2.5-4.5-6.1-8.1-7.7c-4-1.7-9.2,1-12.7-1.5c-0.4,0.9-0.8,1.8-1.2,2.7
					c3.9,0.8,7.1,2.5,10,5.3c0.6-0.8,1.2-1.6,1.8-2.4c-2.8-1.9-5.6-3.8-8.4-5.8c-0.4,0.9-0.8,1.8-1.2,2.7c3.2,0.9,5.8,2.3,8.3,4.6
					c0.5-0.8,1-1.7,1.5-2.5c-3.5-1.4-6.7-3.2-9.7-5.4c-0.4,0.9-0.8,1.8-1.2,2.7c5.3,2,9.7,5.4,13,10c0.8-0.6,1.6-1.2,2.4-1.8
					c-1.9-1.9-3.4-3.8-4.6-6.2c-0.7,0.7-1.4,1.4-2.1,2.1c2.5,1.5,4.4,3.2,6.2,5.5c0.8-0.6,1.6-1.2,2.4-1.8c-2.5-2.6-5-5.2-7.5-7.8
					c-0.5,0.8-1,1.7-1.5,2.5c4.3,1,5.3,5.3,7.1,8.7c1.3,2.4,4.7,5.2,5.1,7.8c1-0.1,2-0.3,2.9-0.4c-1.1-3-2.6-5.5-4.8-7.8
					c-1-1-3,0-2.5,1.5c0.6,1.7,1.3,3.3,2.1,4.9c0.8-0.6,1.6-1.2,2.4-1.8c-1-0.8-1.8-1.7-2.4-2.8c-0.8,0.6-1.6,1.2-2.4,1.8
					c0.3,0.2,0.5,0.5,0.8,0.7c1.1,1,2.9,0,2.5-1.5c-0.2-0.9-0.5-1.8-0.7-2.7c-0.7,0.6-1.5,1.1-2.2,1.7c1.3,0.9,2.4,1.9,3.2,3.2
					c1.1,1.6,3.4,0.3,2.6-1.5c-0.8-1.7-1.6-3.5-2.4-5.2c-0.8,0.6-1.6,1.2-2.4,1.8c1.1,1.2,2.1,2.6,3,4.1c1,1.7,3.4,0.2,2.6-1.5
					c-0.6-1.3-1.2-2.6-1.8-3.9c-0.9,0.5-1.7,1-2.6,1.5c1,1.3,1.9,2.7,2.7,4.1c0.9,1.5,3.1,0.5,2.7-1.2c-0.5-1.9-0.4-1.7-1.4-3.4
					c-1-1.7-3.4-0.2-2.6,1.5c0.9,2,1.9,3.9,3,5.7c1,1.7,3.4,0.2,2.6-1.5c-0.5-1.1-1-2.2-1.7-3.2c-0.7-1.3-2.8-0.7-2.8,0.8
					c0.1,2.6,0.4,5,1,7.5c0.9-0.4,1.8-0.8,2.7-1.2c-0.5-1-1.1-1.9-1.7-2.9c-0.7-1.2-3-0.8-2.8,0.8c0,0.4,0.1,0.9,0.1,1.3
					c0.9-0.3,1.9-0.5,2.8-0.8c-0.5-1-0.7-1.3-1.4-2.1c-1.1-1.3-2.7,0.2-2.5,1.5c0.1,0.8,0.2,1.6,0.3,2.3c0.9-0.4,1.8-0.8,2.7-1.2
					c-0.4-0.8-0.7-1.6-1.1-2.4c-1,0.3-1.9,0.5-2.9,0.8c1.2,3.2,2,6.3,2.4,9.7c1-0.1,2-0.3,2.9-0.4c-1.1-3.3-1.9-6.6-2.4-10
					c-1,0.3-1.9,0.5-2.9,0.8c1,2.4,1.7,4.8,2.3,7.2c0.4,1.6,2.4,1.3,2.9,0c0.3-0.7,0.6-1.5,0.9-2.2c-1,0-1.9,0-2.9,0
					c0.4,1.3,0.5,2.7,0.4,4.1c-0.1,1.9,2.8,1.9,3,0c0.1-1.7,0.3-3.4,0.4-5.1c-1,0.1-2,0.3-2.9,0.4c0.4,1.8,0.6,3.5,0.6,5.3
					c1,0,2,0,3,0c0-1,0.1-2,0.1-3.1c-1,0-1.9,0-2.9,0c0.9,3.7-0.4,4.1-1.5,7.1c1,0.1,2,0.3,2.9,0.4c-0.1-1.1-0.2-2.2-0.4-3.2
					c-0.9,0.3-1.9,0.5-2.8,0.8c0.2,0.5,0.5,1.1,0.7,1.6c0.9-0.5,1.7-1,2.6-1.5c-0.2-0.6-0.5-1.2-0.7-1.7c-0.8,0.5-1.7,1-2.5,1.5
					c1.1,1-0.2,4.8-0.4,6c-0.2,1-0.7,1.8-0.9,2.8c-0.3,1.4,1.4,2.6,2.5,1.5c2.5-2.6,4.1-5.4,4.9-8.9c0.4-1.7-1.8-2.5-2.7-1.2
					c-0.3,0.5-0.7,1-1,1.5c0.9,0.1,1.8,0.2,2.7,0.4c-0.6-4.5-0.5-10.2-2.4-14.3c-1.5-3.3-4.7-4.7-7.4-6.8c-3.6-2.8-5.2-6.2-9.5-8.1
					c-3.6-1.5-7.4-2.4-11.2-1.6c-1,0.2-1.5,1.8-0.7,2.5c1.2,1,2.5,1.9,3.9,2.7c0.3-0.9,0.5-1.9,0.8-2.8c-1.3-0.1-2.6-0.4-3.8-0.9
					c-1.6-0.5-2.6,1.9-1.2,2.7c1.5,0.9,2.8,1.5,4.4,2c0.1-1,0.3-2,0.4-2.9c-0.8,0-1.5,0-2.3,0c-1.2,0-1.8,1.3-1.3,2.3
					c0.7,1.4,1,1.5,2.4,2c1.8,0.6,2.6-2.3,0.8-2.9c-0.5-0.2-1-0.3-1.4-0.5c-1.7-0.6-2.5,1.8-1.2,2.7c0.4,0.2,0.7,0.5,1.1,0.7
					c0.4-0.9,0.8-1.8,1.2-2.7c-0.5-0.1-1-0.2-1.5-0.3c-1.3-0.2-2.7,1.4-1.5,2.5c2.5,2.2,8.2,1.5,9.7,4.2c0.8,1.4,2.6,0.6,2.8-0.8
					c0.5-4.9-3.4-7.3-7.5-8.9c-1.6-0.6-2.7,2-1.2,2.7c2.4,1.1,4.6,2.3,6.8,3.6c0.4-0.9,0.8-1.8,1.2-2.7c-2.3-0.4-4.1-0.9-6.3-1.9
					c-1.7-0.7-3.2,1.5-1.5,2.6c1.6,1,3.1,2.1,4.5,3.3c0.5-0.8,1-1.7,1.5-2.5c-1.7-0.4-3.1-1.2-4.1-2.5c-0.5,0.8-1,1.7-1.5,2.5
					c1.4,0.1,2.7,0.6,3.9,1.4c0.4-0.9,0.8-1.8,1.2-2.7c-1-0.5-2-1-3-1.4c-0.4,0.9-0.7,1.7-1.1,2.6c1.9-0.3,3.6,0.2,5.1,1.4
					c0.4-0.9,0.8-1.8,1.2-2.7c-1.2-0.8-2.3-1.6-3.5-2.4c-0.4,0.8-0.9,1.5-1.3,2.3c2.8,0.2,4.7,1.8,5.8,4.2c0.7-0.7,1.4-1.4,2.1-2.1
					c-1.4-0.9-2.4-2-3-3.5c-0.8,0.6-1.6,1.2-2.4,1.8c1.6,1.5,2.9,3.1,4,4.9c0.8-0.6,1.6-1.2,2.4-1.8c-0.6-0.5-1.1-1-1.7-1.5
					c-1.3-1.2-3,0.3-2.4,1.8c1.3,2.9,3.6,4.7,5.2,7.3c0.7,1.1,2.4,0.9,2.7-0.4c0.5-1.6,1-3.2,1.5-4.8c0.2-0.7-0.1-1.3-0.7-1.7
					c-1.4-1-2.8-1.7-4.3-2.4c-1.6-0.7-2.9,1-1.8,2.4c1.3,1.6,2.6,3.1,3.9,4.7c0.7-0.7,1.4-1.4,2.1-2.1c-0.9-0.9-1.8-2-2.5-3.1
					c-0.8,0.6-1.6,1.2-2.4,1.8c0.9,0.7,1.5,1.6,1.9,2.7c0.6-0.7,1.1-1.5,1.7-2.2c-0.6-0.4-1.2-0.9-1.8-1.3c-0.8,0.5-1.7,1-2.5,1.5
					c0.3,0.5,0.7,1,1,1.5c0.8-0.6,1.6-1.2,2.4-1.8c-1.5-0.9-2.3-2.3-2.5-4c-0.7,0.6-1.5,1.1-2.2,1.7c0.4,0.6,0.8,1.2,1.2,1.8
					c0.8-0.4,1.5-0.9,2.3-1.3c-0.5-0.9-1.1-1.7-1.6-2.6c-0.5,0.4-1,0.7-1.4,1.1c0.4,0.4,0.8,0.9,1.2,1.3c0.9,1.7,3.5,0.2,2.6-1.5
					c-0.9-1.6-1.8-2.8-3.8-2.8c-0.7,0-1.2,0.5-1.4,1.1c-0.8,2.5,0.9,4.7,3,6c0.9,0.6,2.4-0.1,2.3-1.3c-0.2-2.2-0.8-3.3-2.7-4.4
					c-1.2-0.7-2.5,0.5-2.2,1.7c0.5,2.3,1.4,3.9,3.2,5.3c1.4,1.1,3-0.2,2.4-1.8c-0.5-1.2-0.5-1.2-1.5-2.1c-1-1-3,0-2.5,1.5
					c0.7,2.1,1.6,3,3.9,3.4c1.3,0.2,2.3-1,1.7-2.2c-0.6-1.3-1.3-2.3-2.4-3.3c-1.2-1.1-3.4,0.4-2.4,1.8c0.9,1.3,1.9,2.5,3,3.7
					c1.3,1.4,3.3-0.7,2.1-2.1c-1.3-1.6-2.6-3.1-3.9-4.7c-0.6,0.8-1.2,1.6-1.8,2.4c1.6,0.7,2.9,1.4,4.3,2.4c-0.2-0.6-0.5-1.1-0.7-1.7
					c-0.5,1.6-1,3.2-1.5,4.8c0.9-0.1,1.8-0.2,2.7-0.4c-1.6-2.6-3.9-4.4-5.2-7.3c-0.8,0.6-1.6,1.2-2.4,1.8c0.6,0.5,1.1,1,1.7,1.5
					c1.2,1.1,3.3-0.3,2.4-1.8c-1.3-2.1-2.7-3.8-4.5-5.5c-1.3-1.2-3.1,0.3-2.4,1.8c1,2,2.2,3.3,4.1,4.6c1.4,0.9,2.6-0.8,2.1-2.1
					c-1.6-3.6-4.5-5.4-8.4-5.7c-1.1-0.1-2,1.4-1.3,2.3c1.5,2,2.9,3.1,5.3,3.8c1.7,0.5,2.5-1.8,1.2-2.7c-2.1-1.4-4.1-1.9-6.7-1.8
					c-1.3,0.1-2,1.6-1.1,2.6c1.4,1.3,2.5,1.9,4.4,2.2c1.6,0.2,2.7-1.8,1.2-2.7c-1.5-0.9-2.8-1.4-4.6-1.7c-1.4-0.2-2.6,1.4-1.5,2.5
					c1.6,1.6,3.3,2.6,5.5,3.3c1.4,0.4,2.7-1.6,1.5-2.5c-1.7-1.3-3.4-2.6-5.2-3.8c-0.5,0.9-1,1.7-1.5,2.6c2.3,1,4.5,1.7,7,2.2
					c1.6,0.3,2.7-1.8,1.2-2.7c-2.2-1.3-4.5-2.5-6.8-3.6c-0.4,0.9-0.8,1.8-1.2,2.7c2.6,1.1,5.7,2.3,5.3,6c0.9-0.3,1.9-0.5,2.8-0.8
					c-2.3-4.3-7-2-10.2-4.8c-0.5,0.8-1,1.7-1.5,2.5c0.5,0.1,1,0.2,1.5,0.3c1.7,0.3,2.6-1.7,1.2-2.7c-0.4-0.2-0.7-0.5-1.1-0.7
					c-0.4,0.9-0.8,1.8-1.2,2.7c0.5,0.2,1,0.3,1.4,0.5c0.3-1,0.5-1.9,0.8-2.9c-0.2-0.2-0.4-0.4-0.6-0.6c-0.4,0.8-0.9,1.5-1.3,2.3
					c0.8,0,1.5,0,2.3,0c1.7,0,2-2.4,0.4-2.9c-1.4-0.3-2.6-0.9-3.7-1.7c-0.4,0.9-0.8,1.8-1.2,2.7c1.6,0.5,3,0.8,4.6,1
					c1.5,0.2,1.9-2.1,0.8-2.8c-1.2-0.6-2.2-1.4-3.2-2.2c-0.2,0.8-0.4,1.7-0.7,2.5c3.7-0.8,8.7,0.6,11.8,2.7c2.7,1.9,4.2,4.9,7,6.9
					c3.2,2.3,5.6,3.6,6.5,7.8c0.8,3.6,1,7.5,1.5,11.1c0.2,1.4,2.1,1.3,2.7,0.4c0.3-0.5,0.7-1,1-1.5c-0.9-0.4-1.8-0.8-2.7-1.2
					c-0.8,3.1-2,5.3-4.2,7.6c0.8,0.5,1.7,1,2.5,1.5c0.9-4,4.5-8.2,0.6-11.7c-1.1-1-2.9,0-2.5,1.5c0.3,1.2,0.4,1.4,1,2.5
					c1,1.7,3.4,0.2,2.6-1.5c-0.2-0.5-0.5-1.1-0.7-1.6c-0.6-1.3-3-0.7-2.8,0.8c0.1,1.1,0.2,2.2,0.4,3.2c0.2,1.7,2.3,2,2.9,0.4
					c0.5-0.6,1.1-1.2,1.6-1.8c0.4-0.2,0.8-0.8,0.7-1.3c-0.1-1.9-0.4-3.7-0.8-5.5c-0.3-1.4-2.6-1.5-2.9,0c-0.4,2.1-0.4,1.8-0.2,3.9
					c0.2,1.9,3.1,2,3,0c-0.1-2.1-0.3-4.1-0.7-6.1c-0.3-1.8-2.8-1.2-2.9,0.4c-0.1,1.7-0.3,3.4-0.4,5.1c1,0,2,0,3,0
					c0.1-1.7-0.1-3.2-0.5-4.9c-0.4-1.6-2.4-1.3-2.9,0c-0.3,0.7-0.6,1.5-0.9,2.2c1,0,1.9,0,2.9,0c-0.6-2.5-1.4-4.9-2.3-7.2
					c-0.7-1.8-3.2-1.1-2.9,0.8c0.5,3.4,1.3,6.7,2.4,10c0.5,1.5,3.1,1.4,2.9-0.4c-0.4-3.6-1.2-7-2.5-10.5c-0.7-1.8-3.5-1.1-2.9,0.8
					c0.5,1.6,0.6,1.7,1.4,3.1c0.9,1.6,3,0.4,2.7-1.2c-0.1-0.8-0.2-1.6-0.3-2.3c-0.8,0.5-1.7,1-2.5,1.5c0.3,0.5,0.6,1,1,1.5
					c0.7,1.3,3,0.7,2.8-0.8c0-0.4-0.1-0.9-0.1-1.3c-0.9,0.3-1.9,0.5-2.8,0.8c0.6,0.9,1.2,1.9,1.7,2.9c0.8,1.5,3.1,0.5,2.7-1.2
					c-0.5-2.2-0.8-4.4-0.9-6.7c-0.9,0.3-1.9,0.5-2.8,0.8c0.7,1,1.2,2.1,1.7,3.2c0.9-0.5,1.7-1,2.6-1.5c-1.1-1.9-2.1-3.8-3-5.7
					c-0.9,0.5-1.7,1-2.6,1.5c0.4,0.9,0.7,1.8,1.1,2.6c0.9-0.4,1.8-0.8,2.7-1.2c-0.8-1.4-1.7-2.8-2.7-4.1c-1.2-1.5-3.4-0.3-2.6,1.5
					c0.6,1.3,1.2,2.6,1.8,3.9c0.9-0.5,1.7-1,2.6-1.5c-1-1.7-2.2-3.2-3.4-4.7c-1.2-1.4-3,0.4-2.4,1.8c0.8,1.7,1.6,3.5,2.4,5.2
					c0.9-0.5,1.7-1,2.6-1.5c-1.3-1.7-2.6-3-4.3-4.3c-1.1-0.8-2.5,0.5-2.2,1.7c0.2,0.9,0.5,1.8,0.7,2.7c0.8-0.5,1.7-1,2.5-1.5
					c-0.3-0.2-0.5-0.5-0.8-0.7c-1.2-1.1-3.3,0.3-2.4,1.8c0.8,1.3,1.7,2.4,2.9,3.4c1.3,1.2,3.1-0.3,2.4-1.8c-0.7-1.3-1.3-2.7-1.8-4.2
					c-0.8,0.5-1.7,1-2.5,1.5c1.9,2,3.1,3.9,4.1,6.5c0.5,1.5,3.2,1.4,2.9-0.4c-0.6-4.5-4.6-7.5-6.5-11.6c-1.7-3.7-3.7-6.9-7.9-7.9
					c-1.4-0.3-2.5,1.4-1.5,2.5c2.5,2.6,5,5.2,7.5,7.8c1.2,1.2,3.4-0.4,2.4-1.8c-2-2.7-4.3-4.8-7.2-6.5c-1.3-0.8-2.7,0.8-2.1,2.1
					c1.4,2.6,3,4.8,5.1,6.8c1.2,1.1,3.4-0.4,2.4-1.8c-3.8-5.3-8.7-9.1-14.8-11.4c-1.7-0.6-2.4,1.8-1.2,2.7c3.3,2.3,6.7,4.2,10.5,5.7
					c1.4,0.6,2.5-1.6,1.5-2.5c-2.9-2.5-6-4.3-9.7-5.3c-1.7-0.5-2.5,1.8-1.2,2.7c2.8,1.9,5.6,3.8,8.4,5.8c1.4,1,3-1.2,1.8-2.4
					c-3.2-3.2-6.9-5.1-11.3-6.1c-1.7-0.4-2.5,1.8-1.2,2.7c2.9,2.1,5.6,1,8.9,1.1c6.1,0,7.3,4.2,11.3,7.6c1.1,0.9,2.9,0.1,2.5-1.5
					c-1-3.6-2.9-6.2-6-8.4c-0.4,0.9-0.8,1.8-1.2,2.7c3.4,0.5,5.7,2.6,5.8,6.2c0.9-0.3,1.9-0.5,2.8-0.8c-0.7-1.5-1.5-2.6-2.8-3.7
					c-1.4-1.3-3.4,0.7-2.1,2.1c1.7,1.8,2.5,3.2,3.3,5.6c0.8-0.5,1.7-1,2.5-1.5c-2-2.2-4.1-4.3-6.4-6.4c-1.3-1.2-3.1,0.3-2.4,1.8
					c0.8,1.6,1.5,3.3,2.3,4.9c0.9-0.5,1.7-1,2.6-1.5c-2-3.7-4.2-7.3-6.7-10.6c-1-1.3-3.2-0.6-2.7,1.2c0.5,2,1.1,3.6,1.9,5.5
					c0.7,1.5,3.4,0.4,2.7-1.2c-1.8-4.8-4.7-8.9-10.3-7.9c-1.3,0.2-1.5,2.2-0.4,2.7c1.6,0.8,3.2,1.5,4.9,2.2c0.3-1,0.5-1.9,0.8-2.9
					c-2.3-0.8-4.6-1.6-6.8-2.4c-0.3,1-0.5,1.9-0.8,2.9c0.8,0.3,1.6,0.5,2.4,0.8c0.4-0.9,0.8-1.8,1.2-2.7c-1.4-0.6-2.8-1.1-4.2-1.5
					c-1.6-0.5-2.7,1.9-1.2,2.7c1.3,0.7,2.6,1.4,3.8,2.1c0.5-0.9,1-1.7,1.5-2.6c-1.8-0.8-3.4-1.6-5-2.7c-0.5-0.3-1.4-0.2-1.8,0.2
					c-0.5,0.3-1,0.5-1.6,0.8c0.3,0.9,0.5,1.9,0.8,2.8c0.4-0.2,0.7-0.4,1.1-0.6c-0.6-0.8-1.2-1.6-1.8-2.4c-1.1,0.9-1.2,1.2-1.1,2.6
					c0.1,0.7,0.4,1.2,1.1,1.4c1.3,0.5,1.7,0.4,2.8-0.4c0.9-0.7,1-2.4-0.4-2.7c-2.5-0.5-5.5,1.9-3.2,4.3c1.7,1.8,4.9,0.7,4.3-1.8
					c-0.1-0.5-0.6-0.9-1-1c-2.7-0.8-4.5,2.1-3.3,4.5c1.1,2.2,4.4,2.5,5-0.3c0.5-2.5-2.3-5.3-4.7-3.9c-2.3,1.4-1.1,4.5,1.3,4.4
					C102.5,35.1,102.5,32.1,100.6,32.2L100.6,32.2z"/>
			</g>
		</g>
		<g>
			<g>
				<path class="st1" d="M116.4,39.9c-1.3-0.8-2.5-0.7-3.5,0.4c-1.8,1.9,0,4.2,0.1,6.3c0.9-0.4,1.7-0.7,2.6-1.1
					c1.7-1.1,2.7-0.5,2.7,1.6c0.2,0.6,0.4,1.2,0.6,1.8c0.4,1.1,0.9,2.1,1.7,3.1c0.8,1.1,2.9,0.9,2.8-0.8c-0.4-4.9-3.8-10.6-8.2-12.9
					c-2.1-1.1-4.9-1.4-7.3-1.2c-0.7,0.1-1.3,0.3-1.9,0.4c-2.6,0.5-4.3,0.1-6.9-0.7c-1.4-0.4-2.6,1.5-1.5,2.5
					c0.5,0.5,1.1,0.9,1.6,1.4c0.4-0.9,0.7-1.7,1.1-2.6c-0.3-0.1-0.5-0.2-0.8-0.2c-1.4-0.9-3.1,1.2-1.8,2.4c1.3,1.2,2.3,1.6,4.1,1.7
					c1.9,0.1,1.9-2.9,0-3c-0.7-0.3-1.3-0.5-2-0.8c-0.6,0.8-1.2,1.6-1.8,2.4c0.9,0.6,1.2,0.6,2.3,0.7c1.2,0,2-1.7,1.1-2.6
					c-0.5-0.5-1.1-0.9-1.6-1.4c-0.5,0.8-1,1.7-1.5,2.5c1.7,0.5,3.9,1.6,5.7,1.6c1.6,0,1.1-0.3,2.4-0.7c6.8-1.7,13.4,3.4,14,10.5
					c0.9-0.3,1.9-0.5,2.8-0.8c-2.1-3-2.7-10.5-7.9-10.1c-4,0.3-4.7,5-1.9,7.2c0.9,0.7,2.6,0.4,2.6-1.1c0-1-0.2-3.5-1.1-4
					C116.5,43.5,118,40.9,116.4,39.9L116.4,39.9z"/>
			</g>
		</g>
	</g>
	<g>
		<g>
			<g>
				<path d="M72.3,74.8c-1.2-2-1.4-3.6-0.7-5.9c0.4-1.4,0.6-2.8,0.6-4.3c0-0.8-1.2-0.8-1.2,0c0.1,2.3-0.9,4.2-1.1,6.4
					c-0.1,1.6,0.6,3,1.4,4.4C71.7,76,72.7,75.4,72.3,74.8L72.3,74.8z"/>
			</g>
		</g>
		<g>
			<g>
				<path d="M72.2,64.5c-0.8-2.1-1.7-4.5-1.6-6.8c0.1-2.1,1.2-3.9,1.6-5.9c1.1-4.9,0.2-8,5.2-10.9c0.7-0.4,0.1-1.4-0.6-1
					c-3.4,2-5,4.6-5.6,8.4c-1.1,6.2-2.4,10.5-0.2,16.6C71.3,65.5,72.4,65.2,72.2,64.5L72.2,64.5z"/>
			</g>
		</g>
		<g>
			<g>
				<path d="M78,39.9c0-5.1,4.5-5.6,8.1-7.6c4-2.3,8.3-5.7,13-2.7c0.7,0.4,1.3-0.6,0.6-1c-4.8-3-9.3-0.2-13.6,2.3
					c-4.7,2.8-9.3,2.7-9.3,9C76.8,40.7,78,40.7,78,39.9L78,39.9z"/>
			</g>
		</g>
		<g>
			<g>
				<path d="M72.5,75.3c0.1-1.4,1.2-2,1.7-3.2c0.6-1.4,0.5-3.1,0.9-4.6c0.3-0.9,0.7-1.6,0.6-2.6c-0.1-1.9-1.1-3.3-0.8-5.3
					c0.1-0.8-1.1-0.8-1.2,0c-0.1,1.2-0.2,2.2,0.1,3.3c0.6,2.2,0.2,3.4-0.3,5.5c-0.3,1.6-0.6,3-1.4,4.5c-0.5,0.9-0.8,1.3-0.9,2.4
					C71.3,76.1,72.5,76.1,72.5,75.3L72.5,75.3z"/>
			</g>
		</g>
		<g>
			<g>
				<path d="M73.6,81.3c0.7-2.5-0.8-4.9,0-7.4c0.2-0.7-0.9-1.1-1.2-0.3c-0.8,2.5,0.7,4.9,0,7.4C72.2,81.7,73.4,82,73.6,81.3
					L73.6,81.3z"/>
			</g>
		</g>
		<g>
			<g>
				<path d="M73.7,82.1c0.8-0.7,1.5-1.5,1.9-2.5c0.3-0.7-0.7-1.3-1-0.6c-0.4,0.9-1,1.6-1.7,2.2C72.3,81.7,73.2,82.6,73.7,82.1
					L73.7,82.1z"/>
			</g>
		</g>
		<g>
			<g>
				<path d="M77,86.2c-1.4-1.5-0.1-4.1-1.4-5.7c-0.5-0.6-1.5,0-1,0.6c1.3,1.8,0,4.2,1.6,6C76.7,87.6,77.5,86.8,77,86.2L77,86.2z"/>
			</g>
		</g>
		<g>
			<g>
				<path d="M77.1,87c0.3-0.4,0.7-0.6,1.3-0.6c0.8,0,0.8-1.2,0-1.2c-0.8,0-1.5,0.3-2.1,0.9C75.8,86.7,76.6,87.6,77.1,87L77.1,87z"/>
			</g>
		</g>
		<g>
			<g>
				<path d="M75.4,60c-0.2-1.1-0.1-2.2,0.3-3.2c0.3-0.7-0.9-1-1.2-0.3c-0.5,1.2-0.6,2.5-0.3,3.9C74.4,61,75.6,60.7,75.4,60L75.4,60z
					"/>
			</g>
		</g>
		<g>
			<g>
				<path d="M75.9,65.1c0.3-3,3-5.2,3.4-8.4c0.3-2.9,0.3-5.4,2.2-7.9c1.4-1.8,3.2-3.4,4.8-5.1c0.5-0.6-0.3-1.4-0.8-0.8
					c-2.8,2.9-6.3,5.6-7.1,9.8c-0.5,2.9-0.3,5.6-1.8,8.3c-0.9,1.5-1.7,2.3-1.9,4.1C74.7,65.9,75.9,65.9,75.9,65.1L75.9,65.1z"/>
			</g>
		</g>
		<g>
			<g>
				<path d="M96.6,40.9c-1,2.6-2.7,2.9-5.3,3.3c-1.1,0.2-2.1,0.3-3.1,0.9c-1.6,0.9-2.5,2-4.5,2.3c-1.2,0.2-1.9,0-3,0.5
					c-0.7,0.3-0.1,1.4,0.6,1c1.4-0.7,3-0.1,4.5-0.8c0.8-0.4,1.5-1.1,2.2-1.6c1.4-0.9,2.7-1.1,4.3-1.3c3-0.4,4.2-1.2,5.4-4.1
					C98.1,40.5,96.9,40.2,96.6,40.9L96.6,40.9z"/>
			</g>
		</g>
		<g>
			<g>
				<path d="M97.5,36.6c-1.1,2-0.7,4.5,1.5,5.5c1.1,0.5,2.2,0.4,3.3,0.2c2.9-0.3,5.5,0.5,6.7,3.4c0.3,0.7,1.4,0.4,1.2-0.3
					c-0.7-1.8-2-3.2-3.8-4c-1.1-0.5-2.2-0.5-3.4-0.4c-0.6,0.1-1.3,0.3-1.9,0.2c-2.4-0.2-3.6-2-2.5-4.1
					C98.9,36.5,97.8,35.9,97.5,36.6L97.5,36.6z"/>
			</g>
		</g>
		<g>
			<g>
				<path d="M110.2,46.7c1.6-1.8,0.6-5,0-7.1c-0.2-0.7-1.4-0.4-1.2,0.3c0.4,1.5,1.5,4.6,0.3,5.9C108.8,46.4,109.6,47.3,110.2,46.7
					L110.2,46.7z"/>
			</g>
		</g>
		<g>
			<g>
				<path d="M109.2,41.7c0.8,1.1,1.5,2.2,2,3.5c0.3,0.8,0.6,1.6,1.1,2.3c1.1,1.3,3.1,1.5,3.7,3.1c0.3,0.7,1.3,0.1,1-0.6
					c-0.6-1.5-2.1-1.8-3.3-2.8c-1-0.8-1.2-1.9-1.7-3c-0.5-1.1-1.1-2.1-1.9-3.1C109.8,40.5,108.8,41.1,109.2,41.7L109.2,41.7z"/>
			</g>
		</g>
		<g>
			<g>
				<path d="M117.6,50.6c0.3-1.4,0.4-2.9,0.4-4.3c0-0.8-1.2-0.8-1.2,0c0.1,1.4,0,2.7-0.3,4C116.3,51,117.5,51.3,117.6,50.6
					L117.6,50.6z"/>
			</g>
		</g>
		<g>
			<g>
				<path d="M117,47.9c4.3,3.2,2.9,7.2,4.7,11.4c1.2,3,2.2,4.2,1.6,7.8c-0.3,1.5-0.8,2.7-0.9,4.2c-0.1,0.8,1.1,0.8,1.2,0
					c0.2-2.3,1.4-4.5,1.3-6.9c-0.2-2.5-1.8-4.7-2.4-7.1c-1.1-4.4-0.9-7.6-4.9-10.5C117,46.4,116.4,47.4,117,47.9L117,47.9z"/>
			</g>
		</g>
		<g>
			<g>
				<path d="M124.1,73.5c2.2-2.3,3.7-5,4.5-8.1c0.2-0.7-1-1.1-1.2-0.3c-0.7,2.9-2.1,5.4-4.2,7.5C122.7,73.2,123.6,74,124.1,73.5
					L124.1,73.5z"/>
			</g>
		</g>
		<g>
			<g>
				<path d="M123.8,72.4c-0.1-0.3-0.1-0.6-0.2-0.9c-0.1-0.7-1.3-0.5-1.2,0.2c0,0.3,0,0.5-0.1,0.8c-0.3,0.7,0.7,1.3,1,0.6
					c0.2-0.4,0.3-0.9,0.2-1.4c-0.4,0.1-0.8,0.1-1.2,0.2c0.1,0.3,0.1,0.6,0.2,0.9C122.8,73.5,124,73.2,123.8,72.4L123.8,72.4z"/>
			</g>
		</g>
		<g>
			<g>
				<path d="M116.5,89.4c-0.3,1.1-0.6,2.1-1.1,3.2c-0.2,0.4,0,0.9,0.5,0.9c4.5,0.3,6.1-5,6.8-8.4c0.2-0.8-1-1.1-1.2-0.3
					c-0.6,2.9-1.8,7.8-5.6,7.6c0.2,0.3,0.3,0.6,0.5,0.9c0.5-1.1,0.9-2.3,1.2-3.5C117.8,89,116.6,88.7,116.5,89.4L116.5,89.4z"/>
			</g>
		</g>
		<g>
			<g>
				<path d="M121.6,85c0.4,1.1,0.6,2.1,0.6,3.2c0,0.6,0.8,0.8,1.1,0.3c0.6-1.1,2.1-1.4,2.9-2.4c0.9-1.1,1.3-2.4,1.6-3.7
					c0.4-1.5,1.1-3,1.5-4.6c0.4-1.6,0.4-3.4,0.5-5.1c0.1-0.8-1.1-0.8-1.2,0c-0.2,3.2-0.9,5.8-1.8,8.9c-0.5,1.9-1,3.5-2.7,4.7
					c-0.9,0.6-1.4,0.6-1.9,1.6c0.4,0.1,0.7,0.2,1.1,0.3c0.1-1.3-0.1-2.3-0.6-3.6C122.5,83.9,121.3,84.2,121.6,85L121.6,85z"/>
			</g>
		</g>
		<g>
			<g>
				<path d="M130.1,73.1c0.1-4.2,3.7-7.9,2.7-12.1c-0.6-2.8-1.7-5.5-2.3-8.3c-0.3-1.4-0.5-2.2-1.5-3.3c-0.5-0.6-1.4,0.3-0.8,0.8
					c1.2,1.2,1.3,5.3,1.8,7.2c0.7,2.6,2.2,4.2,1.5,7.1c-0.8,3-2.5,5.3-2.6,8.5C128.8,73.8,130,73.8,130.1,73.1L130.1,73.1z"/>
			</g>
		</g>
		<g>
			<g>
				<path d="M99.8,28.9c1.3-2.1,6.7,0.2,8.8,0.6c2.4,0.5,4.7,0.4,6.7,2.9c0.6,0.7,0.9,1.6,1.5,2.3c2.1,2.3,4.8,2.7,6.6,5.5
					c2,3.1,3.1,7.4,4.5,10.9c0.3,0.7,1.4,0.4,1.2-0.3c-1.6-4-2.7-9.3-5.5-12.7c-1.1-1.4-2.6-1.8-4-2.9c-2.2-1.7-2.9-3.9-4.7-5.7
					c-0.9-0.9-1.8-1.4-3.1-1.5c-2.8-0.4-3.8,0-7.2-0.9c-2.4-0.7-4.3-1.3-5.8,1.1C98.4,29,99.4,29.6,99.8,28.9L99.8,28.9z"/>
			</g>
		</g>
		<g>
			<g>
				<path d="M124.1,40.2c3.1-0.5,5.8,6.8,6.1,8.7c0.3,2.3,0.9,5.2,0.6,7.4c-0.1,0.8,1,1.1,1.2,0.3c0.3-2.1-0.2-3.9-0.4-6
					c-0.2-2.3-0.1-3.8-1.3-5.8c-1.3-2.2-3.4-6.2-6.4-5.7C123,39.1,123.3,40.3,124.1,40.2L124.1,40.2z"/>
			</g>
		</g>
		<g>
			<g>
				<path d="M116.7,33.2c2.5-0.5,5.2,1.4,6.4,3.5c0.7,1.3,0.9,2.7,2.2,3.7c0.6,0.5,1.2-0.6,0.6-1c-1.1-0.8-1.2-2.3-1.9-3.5
					c-0.5-0.8-1.2-1.5-1.9-2.2c-1.6-1.3-3.5-2.2-5.7-1.7C115.6,32.2,115.9,33.4,116.7,33.2L116.7,33.2z"/>
			</g>
		</g>
		<g>
			<g>
				<path d="M76.7,86.2c-0.8,0.7-0.5,1.7,0,2.5c1.1,1.6,2.3,3,3.4,4.5c0.2,0.3,0.7,0.4,0.9,0.1c1.4-1.7,0.5-3.6,0.9-5.5
					c0.2-0.8-1-1.1-1.2-0.3c-0.3,1.5,0.5,3.7-0.6,5c0.3,0,0.6,0.1,0.9,0.1c-0.4-0.6-4.2-4.9-3.6-5.5C78.1,86.5,77.2,85.6,76.7,86.2
					L76.7,86.2z"/>
			</g>
		</g>
		<g>
			<g>
				<path d="M80.9,90c1.4,2.1,3.5,3.5,6,4c0.8,0.1,1.1-1,0.3-1.2c-2.2-0.4-4-1.6-5.3-3.4C81.5,88.8,80.5,89.4,80.9,90L80.9,90z"/>
			</g>
		</g>
		<g>
			<g>
				<path d="M111.2,94.6c1.8-0.3,3.4-1.1,4.9-2.3c0.6-0.5-0.3-1.3-0.8-0.8c-1.3,1.1-2.7,1.7-4.3,2C110.2,93.6,110.5,94.7,111.2,94.6
					L111.2,94.6z"/>
			</g>
		</g>
		<g>
			<g>
				<path d="M129.6,74.8c0.1-2-0.4-4-1.4-5.8c-0.4-0.7-1.4-0.1-1,0.6c0.9,1.6,1.3,3.3,1.2,5.2C128.4,75.5,129.6,75.5,129.6,74.8
					L129.6,74.8z"/>
			</g>
		</g>
	</g>
	<g>
		<g>
			<path class="st1" d="M120,36.8c-0.3-0.2-0.7-0.4-1-0.6c-1.7-1-3,1.5-1.5,2.6c0.3,0.2,0.6,0.5,0.9,0.7c1.5,1.1,2.8-1.1,1.8-2.4
				c-0.3-0.4-0.6-0.8-0.9-1.3c-0.6,0.7-1.1,1.5-1.7,2.2c0.3,0,0.6,0.1,0.9,0.3c1.3,0.6,2.9-0.7,2.1-2.1c-0.3-0.5-0.7-1-1.1-1.5
				c-0.6,0.8-1.2,1.6-1.8,2.4c0.1,0.1,0.2,0.2,0.2,0.2c0.4-0.9,0.7-1.7,1.1-2.6c0.3,0-0.7-1.1-0.8-1.2c-0.5-0.4-1.3-0.7-1.8-0.2
				c-0.1,0.1-0.1,0.1-0.2,0.2c0.5,0,1,0,1.5,0c-0.1,0-0.1-0.1-0.2-0.1c-1.5-1-2.8,1.1-1.8,2.4c0.9,1.1,1.8,2.1,2.6,3.2
				c1,1.2,2.8-0.1,2.5-1.5c-0.1-0.4-0.2-0.7-0.3-1.1c-0.8,0.5-1.7,1-2.5,1.5c0.5,0.4,0.9,0.8,1.2,1.2c1,1.3,2.7-0.2,2.5-1.5
				c-0.1-0.5-0.2-0.8-0.5-1.2c-0.7,0.7-1.4,1.4-2.1,2.1c0.4,0.3,0.8,0.6,1.1,0.9c1.2,1.2,3.2-0.4,2.4-1.8c-0.2-0.4-0.4-0.7-0.6-1.1
				c-0.9,0.5-1.7,1-2.6,1.5c0.3,0.4,0.6,0.7,0.8,1.1c0.8-0.6,1.6-1.2,2.4-1.8c-0.2-0.2-0.3-0.3-0.5-0.5c-1.2-1.3-3.1,0.3-2.4,1.8
				c0.7,1.5,1.3,3.1,1.7,4.7c0.5,1.9,3.4,1.1,2.9-0.8c-0.5-1.9-1.2-3.6-2-5.4c-0.8,0.6-1.6,1.2-2.4,1.8c0.2,0.2,0.3,0.3,0.5,0.5
				c1.2,1.2,3.4-0.4,2.4-1.8c-0.3-0.4-0.6-0.7-0.8-1.1c-1.1-1.5-3.6-0.2-2.6,1.5c0.2,0.4,0.4,0.7,0.6,1.1c0.8-0.6,1.6-1.2,2.4-1.8
				c-0.5-0.5-1.1-1-1.7-1.4c-1.2-0.8-2.9,0.8-2.1,2.1c0.1,0.2,0.1,0.3,0.2,0.5c0.8-0.5,1.7-1,2.5-1.5c-0.4-0.5-0.8-0.9-1.2-1.2
				c-1.1-0.9-2.9-0.1-2.5,1.5c0.1,0.4,0.2,0.7,0.3,1.1c0.8-0.5,1.7-1,2.5-1.5c-0.9-1.1-1.8-2.1-2.6-3.2c-0.6,0.8-1.2,1.6-1.8,2.4
				c0.1,0,0.1,0.1,0.2,0.1c0.4,0.3,1.1,0.3,1.5,0c0.1-0.1,0.1-0.1,0.2-0.2c-0.6-0.1-1.2-0.2-1.8-0.2c0.5,0.4,0.7,1,1.2,1.5
				c0.5,0.4,1,0.5,1.7,0.6c1.4,0.1,1.8-1.7,1.1-2.6c-0.3-0.3-0.5-0.5-0.9-0.7c-1.6-0.9-2.8,1.1-1.8,2.4c0.2,0.3,0.4,0.6,0.6,0.9
				c0.7-0.7,1.4-1.4,2.1-2.1c-0.5-0.3-1-0.5-1.6-0.6c-1.2-0.2-2.4,1-1.7,2.2c0.4,0.7,0.8,1.3,1.3,1.9c0.6-0.8,1.2-1.6,1.8-2.4
				c-0.3-0.2-0.6-0.5-0.9-0.7c-0.5,0.9-1,1.7-1.5,2.6c0.3,0.2,0.7,0.4,1,0.6C120.2,40.3,121.7,37.8,120,36.8L120,36.8z"/>
		</g>
	</g>
	<g>
		<g>
			<path class="st1" d="M126.3,47c-0.2-0.4-0.3-0.9-0.5-1.3c-0.9,0.4-1.8,0.8-2.7,1.2c0.8,1,1.5,2.1,2.2,3.2c0.7,1.2,3,0.8,2.8-0.8
				c-0.1-1.1-0.2-1.5-0.5-2.5c-0.9,0.4-1.8,0.8-2.7,1.2c0.4,0.7,0.7,1.4,1.1,2c0.8,1.5,3.3,0.5,2.7-1.2c-0.1-0.4-0.2-0.7-0.4-1.1
				c-0.6-1.8-3.5-1.1-2.9,0.8c0.2,0.7,0.4,1.3,0.6,2c0.9-0.4,1.8-0.8,2.7-1.2c-0.1-0.1-0.1-0.3-0.2-0.4c-0.8-1.5-3.4-0.5-2.7,1.2
				c0.1,0.3,0.3,0.7,0.4,1c0.7,1.8,3.4,1.1,2.9-0.8c-0.1-0.2-0.1-0.4-0.2-0.6c-0.9,0.4-1.8,0.8-2.7,1.2c0.1,0.2,0.3,0.4,0.4,0.6
				c0.8,1.2,2.8,0.8,2.8-0.8c0-0.2,0-0.5,0-0.7c-0.9,0.3-1.9,0.5-2.8,0.8c0.1,0.4,0.3,0.8,0.4,1.2c0.5,1.9,3.2,1.1,2.9-0.8
				c-0.1-0.4-0.1-0.7-0.2-1.1c-1,0.3-1.9,0.5-2.9,0.8c0.2,0.6,0.4,1.1,0.6,1.7c0.9-0.4,1.8-0.8,2.7-1.2c-0.2-0.3-0.3-0.6-0.5-0.9
				c-0.9-1.6-3-0.4-2.7,1.2c0.1,0.9,0.2,1.8,0.2,2.6c1-0.1,2-0.3,2.9-0.4c-0.3-1.3-0.5-2.6-0.5-4c-1,0.1-2,0.3-2.9,0.4
				c0.1,0.5,0.3,1.1,0.4,1.6c0.9-0.4,1.8-0.8,2.7-1.2c-1-1.5-1.8-3.1-2.6-4.7c-0.9,0.5-1.7,1-2.6,1.5c0.2,0.3,0.3,0.5,0.5,0.8
				c0.9-0.5,1.7-1,2.6-1.5c-0.6-0.8-1.2-1.6-1.8-2.4c-0.7,0.7-1.4,1.4-2.1,2.1c0.5,0.3,1,0.7,1.5,1c1.2,0.8,3-0.8,2.1-2.1
				c-0.7-0.9-1.4-1.8-2.3-2.6c-0.6,0.8-1.2,1.6-1.8,2.4c0.8,0.4,1.5,1,2.1,1.6c0.6-0.8,1.2-1.6,1.8-2.4c-0.8-0.6-1.6-1.2-2.3-2
				c-0.6,0.8-1.2,1.6-1.8,2.4c1.1,0.5,1.8,1,2.6,1.9c0.7-0.7,1.4-1.4,2.1-2.1c-0.9-0.9-1.8-1.8-2.6-2.6c-0.6,0.8-1.2,1.6-1.8,2.4
				c0.6,0.3,1.2,0.7,1.8,1c1.7,0.9,3.2-1.6,1.5-2.6c-0.7-0.4-1.3-0.9-1.9-1.4c-0.6,0.8-1.2,1.6-1.8,2.4c0.7,0.4,1.5,0.9,2.2,1.3
				c0.5-0.9,1-1.7,1.5-2.6c-1-0.5-1.8-1.1-2.6-2c-0.6,0.8-1.2,1.6-1.8,2.4c0.6,0.2,1.2,0.6,1.7,1c1.4,1,3.1-1.3,1.8-2.4
				c-0.6-0.5-1.2-1-1.8-1.4c-0.6,0.8-1.2,1.6-1.8,2.4c0.6,0.4,1.2,0.8,1.7,1.3c0.7-0.7,1.4-1.4,2.1-2.1c-0.6-0.5-1.2-1.1-1.8-1.6
				c-0.6,0.8-1.2,1.6-1.8,2.4c0.5,0.3,0.9,0.6,1.4,0.8c1.4,0.9,3.1-1.2,1.8-2.4c-0.5-0.4-0.9-0.9-1.4-1.2c-0.6,0.8-1.2,1.6-1.8,2.4
				c0.3,0.2,0.5,0.3,0.8,0.5c1.5,0.8,3-1.1,1.8-2.4c-0.9-0.9-1.3-1.6-1.8-2.7c-0.8-1.7-3.4-0.2-2.6,1.5c0.6,1.3,1.4,2.3,2.3,3.3
				c0.6-0.8,1.2-1.6,1.8-2.4c-0.3-0.2-0.5-0.3-0.8-0.5c-1.4-0.8-3.2,1.3-1.8,2.4c0.5,0.4,1,0.8,1.4,1.2c0.6-0.8,1.2-1.6,1.8-2.4
				c-0.5-0.3-0.9-0.6-1.4-0.8c-1.4-0.9-3.1,1.2-1.8,2.4c0.6,0.5,1.2,1.1,1.8,1.6c1.4,1.3,3.5-0.8,2.1-2.1c-0.7-0.7-1.5-1.3-2.3-1.8
				c-1.4-0.9-3.1,1.3-1.8,2.4c0.6,0.5,1.2,1,1.8,1.4c0.6-0.8,1.2-1.6,1.8-2.4c-0.5-0.4-1.1-0.8-1.7-1c-1.5-0.7-3.1,1.1-1.8,2.4
				c1,1,2,1.8,3.2,2.4c1.7,0.9,3.2-1.6,1.5-2.6c-0.7-0.4-1.5-0.9-2.2-1.3c-1.4-0.8-3.1,1.2-1.8,2.4c0.8,0.7,1.6,1.3,2.5,1.9
				c0.5-0.9,1-1.7,1.5-2.6c-0.6-0.3-1.2-0.7-1.8-1c-1.5-0.8-3.1,1.1-1.8,2.4c0.9,0.9,1.8,1.8,2.6,2.6c1.4,1.4,3.4-0.7,2.1-2.1
				c-1-1.1-1.9-1.8-3.2-2.3c-1.5-0.6-3.1,1.1-1.8,2.4c0.9,0.9,1.9,1.7,2.9,2.4c1.4,1,3.1-1.2,1.8-2.4c-0.9-0.8-1.7-1.4-2.7-2.1
				c-1.4-0.9-3.1,1.2-1.8,2.4c0.7,0.6,1.3,1.2,1.8,2c0.7-0.7,1.4-1.4,2.1-2.1c-0.5-0.3-1-0.7-1.5-1c-1.2-0.8-3,0.8-2.1,2.1
				c0.6,0.8,1.2,1.6,1.8,2.4c1.1,1.5,3.7,0.1,2.6-1.5c-0.2-0.3-0.3-0.5-0.5-0.8c-1.1-1.6-3.4-0.2-2.6,1.5c0.8,1.6,1.7,3.2,2.6,4.7
				c0.9,1.4,3.2,0.5,2.7-1.2c-0.1-0.5-0.3-1.1-0.4-1.6c-0.5-1.6-3-1.3-2.9,0.4c0.1,1.6,0.3,3.2,0.6,4.8c0.4,1.7,3,1.3,2.9-0.4
				c0-1.2-0.1-2.3-0.3-3.4c-0.9,0.4-1.8,0.8-2.7,1.2c0.2,0.3,0.3,0.6,0.5,0.9c0.8,1.4,3.3,0.5,2.7-1.2c-0.2-0.6-0.4-1.1-0.6-1.7
				c-0.6-1.9-3.2-1.1-2.9,0.8c0.1,0.4,0.1,0.7,0.2,1.1c1-0.3,1.9-0.5,2.9-0.8c-0.2-0.8-0.3-1.2-0.7-2c-0.7-1.4-2.8-0.7-2.8,0.8
				c0,0.2,0,0.5,0,0.7c0.9-0.3,1.9-0.5,2.8-0.8c-0.1-0.2-0.3-0.4-0.4-0.6c-0.9-1.4-3.2-0.5-2.7,1.2c0.1,0.2,0.1,0.4,0.2,0.6
				c1-0.3,1.9-0.5,2.9-0.8c-0.1-0.3-0.3-0.7-0.4-1c-0.9,0.4-1.8,0.8-2.7,1.2c0.1,0.1,0.1,0.3,0.2,0.4c0.8,1.5,3.3,0.5,2.7-1.2
				c-0.2-0.7-0.4-1.3-0.6-2c-1,0.3-1.9,0.5-2.9,0.8c0.1,0.4,0.2,0.7,0.4,1.1c0.9-0.4,1.8-0.8,2.7-1.2c-0.4-0.7-0.7-1.4-1.1-2
				c-0.8-1.5-3.2-0.5-2.7,1.2c0.1,0.6,0.3,1.1,0.4,1.7c0.9-0.3,1.9-0.5,2.8-0.8c-0.7-1.1-1.4-2.1-2.2-3.2c-1-1.3-3.2-0.6-2.7,1.2
				c0.2,0.9,0.4,1.2,0.8,2C124.6,50.3,127.2,48.8,126.3,47L126.3,47z"/>
		</g>
	</g>
	<g>
		<g>
			<path class="st1" d="M127.3,46c-0.1-0.1-0.1-0.3-0.2-0.5c-0.8,0.5-1.7,1-2.5,1.5c0.5,0.5,1,1,1.2,1.7c0.3,0.8,1,1.3,1.8,1
				c0.8-0.2,1.2-1,1-1.8c-0.1-0.7-0.3-1.4-0.4-2.1c-0.8,0.5-1.7,1-2.5,1.5c0.4,0.3,0.7,0.7,0.7,1.1c0.9-0.4,1.7-0.7,2.6-1.1
				c-0.2-0.2-0.3-0.3-0.3-0.7c-0.9,0.4-1.8,0.8-2.7,1.2c0.3,0.5,0.5,1.1,0.7,1.7c0.5,1.9,3.4,1.1,2.9-0.8c-0.2-0.8-0.6-1.6-1-2.4
				c-0.3-0.7-1.2-0.9-1.9-0.6c-0.7,0.3-1,1-0.9,1.8c0.1,0.8,0.5,1.5,1.1,2c0.9,0.8,2.7,0.3,2.6-1.1c-0.1-1.3-0.6-2.4-1.6-3.3
				c-1.2-1-2.8-0.1-2.5,1.5c0.1,0.7,0.3,1.4,0.4,2.1c1-0.3,1.9-0.5,2.9-0.8c-0.5-1.2-1.1-2.2-2-3c-1.1-1-2.8,0-2.5,1.5
				c0.1,0.7,0.5,1.3,0.9,1.8c0.5,0.6,1.6,0.5,2.1,0C127.9,47.5,127.8,46.7,127.3,46L127.3,46z"/>
		</g>
	</g>
	<g>
		<g>
			<path class="st1" d="M128.5,50.8c0.1-0.1,0.3-0.5,0.4-0.6c-0.8-0.1-1.6-0.2-2.4-0.3c0.4,0.7,0.8,1.3,1.2,2
				c0.4,0.7,1.3,0.9,2.1,0.5c0.7-0.4,1-1.4,0.5-2.1c-0.4-0.7-0.8-1.3-1.2-2c-0.5-0.8-1.7-1-2.4-0.3c-0.5,0.6-0.9,1.2-1.2,2
				c-0.3,0.7,0.3,1.7,1,1.8C127.5,52.1,128.2,51.6,128.5,50.8L128.5,50.8z"/>
		</g>
	</g>
	<g>
		<g>
			<path class="st2" d="M77.2,53.1c0-2,0.4-4.5,1.5-6.1c1.1-1.5,2.5-2.9,3.8-4.3c0.5-0.6-0.3-1.4-0.8-0.8c-1.5,1.6-3.4,3.3-4.4,5.2
				c-0.9,1.8-1.2,4.1-1.3,6C76,53.9,77.2,53.9,77.2,53.1L77.2,53.1z"/>
		</g>
	</g>
	<g>
		<g>
			<path class="st2" d="M81.8,38.9c0.2-1.9,4.4-3.5,5.9-4.3c2.1-1,4.3-1.9,6.6-2.6c0.7-0.2,0.4-1.4-0.3-1.2c-3.1,1-6.1,2.2-8.9,3.8
				c-1.8,1-4.3,2-4.5,4.2C80.6,39.7,81.8,39.7,81.8,38.9L81.8,38.9z"/>
		</g>
	</g>
	<g>
		<g>
			<path class="st2" d="M101.8,35.1c-1.1,0.5-1.1,2-0.4,2.7c0.4,0.5,1.1,0.7,1.7,0.9c0.7,0.2,1.8,0.2,2.3,0.9c0.5,0.6,1.5,0,1-0.6
				c-0.6-0.8-1.5-1.1-2.4-1.3c-0.5-0.1-1.1-0.2-1.5-0.4c-0.4-0.3-0.7-0.9-0.1-1.1C103.1,35.8,102.5,34.8,101.8,35.1L101.8,35.1z"/>
		</g>
	</g>
	<g>
		<g>
			<path class="st2" d="M115.5,35.9c2.7-1.5,4.6,2.5,6.1,4c0.5,0.6,1.4-0.3,0.8-0.8c-2-2-4.2-6.1-7.6-4.2
				C114.3,35.2,114.9,36.2,115.5,35.9L115.5,35.9z"/>
		</g>
	</g>
	<g>
		<g>
			<path class="st2" d="M120.3,47c1.3,1.9,2.5,3.9,3.5,5.9c1.4,2.9,1.2,6.2,1.5,9.3c0.1,0.8,1.3,0.8,1.2,0c-0.2-2.8-0.1-6.1-1.1-8.8
				c-1-2.5-2.5-4.9-4.1-7C120.8,45.8,119.8,46.4,120.3,47L120.3,47z"/>
		</g>
	</g>
</g>
</svg>
