<?xml version="1.0" encoding="utf-8"?>
<!-- Generator: Adobe Illustrator 21.0.2, SVG Export Plug-In . SVG Version: 6.00 Build 0)  -->
<svg version="1.1" id="Layer_1" xmlns="http://www.w3.org/2000/svg" xmlns:xlink="http://www.w3.org/1999/xlink" x="0px" y="0px"
	 viewBox="0 0 200 600" style="enable-background:new 0 0 200 600;" xml:space="preserve">
<style type="text/css">
	.st0{fill:#EE7A22;}
	.st1{fill:#EC8622;}
</style>
<g>
	<g>
		<g>
			<g>
				<path class="st0" d="M71.6,71.3c0.9,1.4,2.1,1.5,3.4,0.4c0.3-0.3,0.4-0.8,0.3-1.2c-0.3-1.1-1-1.9-2.2-1.7
					c-2.1,0.2-1.8,3-1.7,4.5c0.1,1.3,2.1,1.7,2.4,0.3c0.3-1.5,0.5-3,0.8-4.6c0.2-1.1-1.1-2.2-2-1.2c-0.8,0.9-0.9,1.2-1.4,2.3
					c-0.5,1.3,1.5,2.1,2.2,0.9c0.7-1.2,1.3-2.3,1.9-3.6c-0.7-0.3-1.5-0.6-2.2-0.9c-0.2,0.4-0.4,0.9-0.5,1.3c0.8,0.2,1.5,0.4,2.3,0.6
					c0.7-2.8,1.5-5.5,2.2-8.3c-0.8-0.2-1.5-0.4-2.3-0.6c-0.2,0.8-0.4,1.7-0.6,2.5c-0.3,1.3,1.5,2.2,2.2,0.9c0.5-1,1.1-1.9,1.8-2.7
					c-0.6-0.5-1.3-1-1.9-1.5c-0.5,1.1-1,2.1-1.5,3.2c0.7,0.4,1.4,0.8,2.1,1.2c1.8-4.1,2.9-8.1,3.3-12.6c0.1-1.3-2.1-1.7-2.4-0.3
					c-0.3,1.8-0.6,3.6-0.9,5.4c-0.3,1.5,2.1,2.2,2.3,0.6c0.7-4.2,2.2-7.9,4.7-11.3c-0.7-0.4-1.4-0.8-2.1-1.2
					c-0.5,1.4-1.3,2.7-2.3,3.7c-1,1.2,0.7,2.9,1.7,1.7c2-2.2,4.1-4.3,6.4-6.3c-0.6-0.6-1.1-1.1-1.7-1.7c-1.4,1.6-2.9,3.1-4.5,4.6
					c-0.8,0.7-0.2,2,0.8,2c2.8,0,4.9-0.8,7-2.5c0.9-0.8-0.1-2.3-1.2-2c-1.9,0.5-3,1.2-4.3,2.7c-1,1.2,0.6,2.8,1.7,1.7
					c2.7-2.7,6.7-2.2,9.8-3.9c2.7-1.5,4.1-4.2,5.3-6.9c0.4-0.9-0.6-2.5-1.6-1.6c-3.8,2.9-7.9,5-12.6,6.3c-1.5,0.4-0.9,2.7,0.6,2.3
					c4-1,7.6-2.4,11.3-4.3c-0.4-0.7-0.8-1.4-1.2-2.1c-1.7,1.2-3.4,2.4-5.1,3.5c-1.3,0.9-0.2,2.7,1.2,2.1c1.7-0.7,2.8-1.5,4.1-2.7
					c0.6-0.5,0.4-1.5-0.2-1.9c-4.5-2.4-12.7-1.6-15.2,3.4c-0.5,1,0.6,2.4,1.6,1.6c1.8-1.4,3.7-2.4,5.9-3.1c-0.4-0.7-0.8-1.3-1.2-2
					c-1.2,1.3-2.6,2.3-4.3,2.9c0.4,0.7,0.8,1.3,1.2,2c3.6-2.9,8.3-3.6,11.8-6.7c1.2-1-0.5-2.6-1.7-1.7c-1.6,1.3-3.1,2.2-4.8,3.2
					c-1.4,0.8-0.2,2.7,1.2,2.1c1.9-0.9,7.9-2.5,8.4-5c0.1-0.6-0.3-1.1-0.4-1.6c0-0.4-0.4-0.7-0.5-1.1c0-0.4,0.4-0.5,0.4-0.9
					c-0.2-7.1-8.7-1.1-11.6,0.7c0.5,0.6,1,1.3,1.5,1.9c1.6-2.2,3.6-2.2,5.9-0.1c0.7,0.2,1.3,0.4,2,0.5c0.1-0.3,0.2-0.7,0.3-1
					c-0.7,0-1.4,0-2.1,0c0.1-0.5,0.3-0.9,0.4-1.4c-0.6,0.3-1.2,0.7-1.8,1c0.8-0.5,1.6-1,2.4-1.5c-0.6,0-1.1,0-1.7,0
					c-1.7-1.7-3.7,0.5-4.5,2.3c-1,2.2-0.5,4.3,0.5,6.3c0.6,1.2,2.6,0.4,2.2-0.9c-0.4-1.8-0.9-3.6-1.3-5.4c0.2-0.6-0.2-1.3-0.8-1.5
					c-1.8-0.4-2.9-0.3-4.6,0.3c0.2,0.8,0.4,1.5,0.6,2.3c1.5-0.6,2.9-1.3,4.4-2c1.2-0.6,0.5-2.1-0.6-2.2c-2.4-0.2-5.3,1.6-7.2,2.9
					c-2.4,1.6-4,4.3-5.6,6.7c0.7,0.2,1.5,0.4,2.2,0.6c-0.1-5.6,6.1-4.9,9.1-4.6c0-0.8,0-1.6,0-2.4c-2.1-0.1-4.2-0.2-6.3-0.2
					c0.2,0.7,0.4,1.5,0.6,2.2c-0.1,0.5-0.2,0.9-0.3,1.4c0.2,0.7,0.4,1.5,0.6,2.2c2.3-1.1,4.3-1.4,6.8-1c1.3,0.2,1.6-2.1,0.3-2.4
					c-7.5-1.5-11.3,2.1-12.8,9.2c-0.3,1.3,1.5,2.2,2.2,0.9c1.4-2.7,3.1-5,5.3-7.1c-0.6-0.5-1.3-1-1.9-1.5c-1.6,2.4-3.2,4.8-4.9,7.2
					c0.7,0.4,1.4,0.8,2.1,1.2c0.4-0.8,5.7-10,3.5-10.5c-0.7-0.2-6.4,7.9-7,8.9c-3.6,5.4-5.9,13.5-4.8,20c0.7-0.3,1.5-0.6,2.2-0.9
					c-0.8-1.5-1.6-3.1-2.3-4.6c-0.6-1.2-2.5-0.4-2.2,0.9c0.3,1.4,0.7,2.7,1,4.1c0.8-0.2,1.5-0.4,2.3-0.6c-1.3-5.3-0.4-18.3,6-20.5
					c-0.5-0.5-1-1-1.5-1.5c-1.7,6.6-7.9,13.5-5.6,20.8c0.3,0.9,1.8,1.3,2.2,0.3c2.4-5.7,4.8-11.3,7.2-17c0.5-1.2-1.6-2.1-2.2-0.9
					c-1,2.2-2.1,4.4-3.1,6.6c0.7,0.3,1.5,0.6,2.2,0.9c0.7-1.8,1.4-3.6,2.1-5.5c0.5-1.3-1.7-2.2-2.2-0.9c-0.7,0.9-1.4,1.8-2.1,2.6
					c0.6,0.3,1.2,0.7,1.8,1c-0.1-1.9,0.6-3.6,2-5c0.9-1-0.2-2.5-1.5-1.9c-2.5,1.3-3.7,3.2-4,6.1c-0.2,1.3,1.6,1.5,2.2,0.6
					c2.9-4.1,5.7-8.1,8.6-12.2c0.9-1.3-1.2-2.5-2.1-1.2c-2.8,4.1-5.7,8.2-8.6,12.2c0.7,0.2,1.5,0.4,2.2,0.6c0.9-1.3,1.9-2.7,2.8-4
					c-0.5-0.6-1-1.3-1.5-1.9c-1.7,2-2.5,4-2.7,6.7c0,0.9,1.1,1.5,1.8,1c1.5-1,2.3-1.9,3-3.5c-0.7-0.3-1.5-0.6-2.2-0.9
					c-0.7,1.8-1.4,3.6-2.1,5.5c-0.5,1.3,1.6,2.1,2.2,0.9c1-2.2,2.1-4.4,3.1-6.6c-0.7-0.3-1.5-0.6-2.2-0.9c-2.3,5.5-4.6,11-6.9,16.5
					c0.7,0.1,1.5,0.2,2.2,0.3c-2.1-6.8,4-13.5,5.6-19.6c0.2-0.8-0.6-1.8-1.5-1.5c-8.1,2.7-9.4,16.4-7.7,23.4
					c0.4,1.5,2.7,0.9,2.3-0.6c-0.3-1.4-0.7-2.7-1-4.1c-0.7,0.3-1.5,0.6-2.2,0.9c0.8,1.5,1.6,3.1,2.3,4.6c0.7,1.3,2.4,0.3,2.2-0.9
					c-1.1-6.9,2.2-15.2,6.3-20.5c1.7-2.2,6-5.5,5.8-8.5c0-0.4-0.2-0.9-0.6-1c-1.2-0.6-2-0.6-3.1,0.5c-0.7,0.8-0.8,2.6-1.1,3.4
					c-0.8,2.6-2.1,4.9-3.4,7.2c-0.8,1.4,1.2,2.5,2.1,1.2c1.6-2.4,3.2-4.8,4.9-7.2c0.8-1.1-0.9-2.4-1.9-1.5c-2.3,2.3-4.1,4.7-5.6,7.6
					c0.7,0.3,1.5,0.6,2.2,0.9c1.2-5.3,4-8.7,9.9-7.5c0.1-0.8,0.2-1.6,0.3-2.4c-3-0.4-5.3,0.1-8,1.4c-1,0.5-0.6,2.3,0.6,2.2
					c6.8-0.6,3.4-9-1-5.9c-0.9,0.7-0.6,2.2,0.6,2.2c2.1,0.1,4.2,0.2,6.3,0.2c1.6,0.1,1.5-2.3,0-2.4c-5.1-0.4-11.6,0.5-11.5,7
					c0,1.2,1.6,1.6,2.2,0.6c1.8-2.6,3.2-4.6,6-6.1c1-0.6,3.8-2.3,4.7-2.2c-0.2-0.7-0.4-1.5-0.6-2.2c-1.2,0.7-2.5,1.3-3.8,1.8
					c-1.4,0.6-0.8,2.9,0.6,2.3c1.1-0.1,2.2-0.2,3.3-0.3c-0.3-0.5-0.6-1-0.8-1.5c-1.3,4.4,5.2,6.8,6.1,2.6c0.7-3.4-4.9-3.5-5,0
					c-0.1,3.7,5.9,3.5,5.3-0.2c-0.2-1.5-1.7-2.4-3.2-2c-3.1,0.7-2.6,4.2-1.9,6.5c0.7-0.3,1.5-0.6,2.2-0.9c-3-6,3-4.6,4.2-7.2
					c0.2-0.5,0.2-1.1-0.2-1.5c-0.2-0.1-0.3-0.3-0.5-0.4c-0.5-0.5-1.2-0.4-1.7,0c-1.4,1.2-3.1,6,0.4,5.8c3.2-0.2,1.8-3.7,0.1-4.7
					c-0.9-0.5-1.7,0.2-1.8,1c-0.7,6.6,7,5.3,4.1,0.2c-0.5-0.8-1.6-0.7-2.1,0c-0.8,1.2-0.8,1.4-0.6,2.9c0.1,0.9,1.4,1.1,2,0.5
					c1.8-1.9,2.1-4.6-0.5-6.1c-3.2-1.9-6.4,0.9-8.9,2.9c-1.1,0.9,0.3,2.6,1.5,1.9c1-0.6,6.9-4.8,7.8-3.4c0.1,0.1-1,1.1-0.7,1.6
					c0,0,0.7,1.8,0.7,1.7c-0.2,1.3-5.1,3.1-6.7,3.9c0.4,0.7,0.8,1.4,1.2,2.1c1.9-1.1,3.6-2.2,5.3-3.6c-0.6-0.6-1.1-1.1-1.7-1.7
					c-3.4,3.1-8.2,3.8-11.8,6.7c-0.9,0.7,0.1,2.5,1.2,2c2.1-0.8,3.8-1.9,5.4-3.5c0.8-0.8,0-2.4-1.2-2c-2.4,0.8-4.5,1.8-6.5,3.3
					c0.5,0.5,1.1,1.1,1.6,1.6c1.9-3.6,8.9-4.1,11.9-2.5c-0.1-0.6-0.2-1.3-0.2-1.9c-1,1.1-2.2,1.9-3.6,2.4c0.4,0.7,0.8,1.4,1.2,2.1
					c1.7-1.2,3.4-2.4,5.1-3.5c1.3-0.9,0.2-2.8-1.2-2.1c-3.4,1.8-6.9,3.1-10.7,4c0.2,0.8,0.4,1.5,0.6,2.3c4.8-1.3,9.1-3.5,13.1-6.5
					c-0.5-0.5-1.1-1.1-1.6-1.6c-2.1,4.5-4.4,6.2-9.2,7.5c-2.3,0.6-3.9,1.2-5.5,2.9c0.6,0.6,1.1,1.1,1.7,1.7c1.1-0.7,2.2-1.4,3.2-2.1
					c-0.4-0.7-0.8-1.3-1.2-2c-1.5,1.4-3.3,2-5.3,1.8c0.3,0.7,0.6,1.4,0.8,2c1.6-1.5,3-3,4.5-4.6c1-1.2-0.5-2.7-1.7-1.7
					c-2.3,1.9-4.4,4-6.4,6.3c0.6,0.6,1.1,1.1,1.7,1.7c1.2-1.4,2-2.6,2.7-4.2c0.6-1.4-1.2-2.5-2.1-1.2c-2.6,3.6-4.2,7.5-5,11.9
					c0.8,0.2,1.5,0.4,2.3,0.6c0.3-1.8,0.6-3.6,0.9-5.4c-0.8-0.1-1.6-0.2-2.4-0.3c-0.4,4-1.4,7.7-3,11.3c-0.6,1.4,1.4,2.6,2.1,1.2
					c0.5-1.1,1-2.1,1.5-3.2c0.5-1.1-0.9-2.6-1.9-1.5c-0.9,1-1.5,2-2.2,3.2c0.7,0.3,1.5,0.6,2.2,0.9c0.2-0.8,0.4-1.7,0.6-2.5
					c0.3-1.5-1.9-2.1-2.3-0.6c-0.7,2.8-1.5,5.5-2.2,8.3c-0.4,1.5,1.7,2,2.3,0.6c0.2-0.4,0.4-0.9,0.5-1.3c0.5-1.2-1.6-2.2-2.2-0.9
					c-0.6,1.2-1.2,2.4-1.9,3.6c0.7,0.3,1.5,0.6,2.2,0.9c0.3-0.4,0.5-0.8,0.8-1.3c-0.7-0.4-1.3-0.8-2-1.2c-0.3,1.5-0.5,3-0.8,4.6
					c0.8,0.1,1.6,0.2,2.4,0.3c0-1.1,0-2.1-0.1-3.2C72.9,68.8,70.8,70,71.6,71.3L71.6,71.3z"/>
			</g>
		</g>
		<g>
			<g>
				<path class="st0" d="M75.4,51.8c0.4-1.5,1.1-2.8,2.1-4c-0.7-0.3-1.4-0.6-2-0.8c0.1,1.5-0.4,2.8-0.9,4.2c0.8,0.2,1.5,0.4,2.3,0.6
					c0.4-1.5,1.1-2.8,1.9-4.1c-0.7-0.1-1.5-0.2-2.2-0.3c0.3,1.7,0.2,3.2-0.4,4.8c0.8,0,1.5,0,2.3,0c-0.1-0.5,0.1-0.9,0.3-1.3
					c-0.7-0.2-1.5-0.4-2.2-0.6c-0.1,1.1-0.5,2-1,3c0.7,0.1,1.5,0.2,2.2,0.3c0-0.1,0-0.1,0-0.2c-0.2,0.2-0.5,0.4-0.7,0.6
					c0,0,0.1,0,0.1,0c-0.5-0.4-1-0.8-1.5-1.2c0,0,0,0,0,0c0.2,1.5,2.6,1.5,2.4,0c0,0,0,0,0,0c-0.1-0.8-0.7-1.3-1.5-1.2
					c-1.2,0.2-1.3,1.7-1.1,2.6c0.2,1,1.7,1.2,2.2,0.3c0.8-1.3,1.2-2.7,1.4-4.2c0.2-1.2-1.7-1.6-2.2-0.6c-0.6,1-0.7,2-0.6,3.2
					c0.2,1.3,2,1,2.3,0c0.7-2,0.8-4,0.4-6.1c-0.2-1.1-1.7-1.1-2.2-0.3c-1,1.4-1.7,3-2.2,4.7c-0.4,1.5,1.8,2,2.3,0.6
					c0.6-1.6,1.1-3.1,1-4.8c-0.1-1-1.3-1.7-2-0.8c-1.3,1.5-2.2,3.1-2.7,5C72.7,52.7,75.1,53.3,75.4,51.8L75.4,51.8z"/>
			</g>
		</g>
		<g>
			<g>
				<path class="st0" d="M80.5,88.5c-0.1-0.4-0.2-0.6-0.3-0.9c-0.7-1.2-2.5-0.4-2.2,0.9c0.3,1.3,0.8,2.5,1.4,3.6
					c0.6,1.1,2.1,0.5,2.2-0.6c0.1-1.2,0-2.3-0.3-3.4c-0.7,0.3-1.5,0.6-2.2,0.9c0.1,0.2,0.2,0.4,0.2,0.6c0.7-0.3,1.5-0.6,2.2-0.9
					c-0.7-1.5-1.6-2.9-2.6-4.2c-0.8-1-2.3,0.1-2,1.2c0.3,1.2,0.7,2.2,1.4,3.2c0.5-0.5,1.1-1.1,1.6-1.6c-0.7-0.4-0.7-2.4-1.2-3.2
					c-0.8-1.2-2.4-0.4-2.2,0.9c0,0.1,0,0.3,0.1,0.4c0.7-0.3,1.5-0.6,2.2-0.9c-0.5-0.7-0.9-1.3-1.5-1.9c-1-1.2-2.7,0.5-1.7,1.7
					c0.4,0.4,0.7,0.9,1.1,1.4c0.8,1.2,2.4,0.4,2.2-0.9c0-0.1,0-0.3-0.1-0.4c-0.7,0.3-1.5,0.6-2.2,0.9c0.9,1.5,0.4,3,2.1,4
					c1,0.6,2.3-0.6,1.6-1.6c-0.6-0.8-0.9-1.7-1.1-2.7c-0.7,0.4-1.3,0.8-2,1.2c0.9,1.2,1.6,2.4,2.3,3.7c0.6,1.3,2.5,0.4,2.2-0.9
					c-0.1-0.5-0.2-0.7-0.5-1.2c-0.7-1.2-2.5-0.4-2.2,0.9c0.2,0.9,0.2,1.8,0.2,2.8c0.7-0.2,1.5-0.4,2.2-0.6c-0.5-1-0.9-2-1.2-3.1
					c-0.7,0.3-1.5,0.6-2.2,0.9c0,0.1,0.1,0.2,0.1,0.3C78.5,90.7,80.8,90,80.5,88.5L80.5,88.5z"/>
			</g>
		</g>
		<g>
			<g>
				<path class="st0" d="M79.6,88.9c0.8,0.7,1.5,1.4,2.3,2.1c0.5,0.4,1.2,0.5,1.7,0c0.4-0.4,0.5-1.3,0-1.7c-0.8-0.7-1.5-1.4-2.3-2.1
					c-0.5-0.4-1.2-0.5-1.7,0C79.2,87.7,79.1,88.5,79.6,88.9L79.6,88.9z"/>
			</g>
		</g>
		<g>
			<g>
				<path class="st0" d="M80.3,89.7c0.1,0.1,0.2,0.2,0.3,0.3c1.1,1.1,2.8-0.6,1.7-1.7c-0.1-0.1-0.2-0.2-0.3-0.3
					C80.9,86.9,79.2,88.6,80.3,89.7L80.3,89.7z"/>
			</g>
		</g>
		<g>
			<g>
				<path class="st0" d="M81.4,90.1c0.9,0.6,1.7,1.3,2.5,2.1c0.4-0.7,0.8-1.3,1.2-2c-0.2-0.1-0.5-0.2-0.7-0.2
					c-0.2,0.8-0.4,1.5-0.6,2.3c0.6,0.1,1.1,0.4,1.5,0.8c0.6-0.6,1.1-1.1,1.7-1.7c-0.2-0.2-0.4-0.4-0.6-0.5c-0.5,0.6-1,1.3-1.5,1.9
					c0.6,0.3,1.1,0.6,1.7,0.9c1.4,0.7,2.6-1.4,1.2-2.1c-0.6-0.3-1.1-0.6-1.7-0.9c-1.1-0.6-2.6,1-1.5,1.9c0.2,0.2,0.4,0.4,0.6,0.5
					c1.2,1,2.9-0.7,1.7-1.7c-0.8-0.7-1.6-1.1-2.6-1.4c-1.5-0.4-2.1,1.8-0.6,2.3c0.2,0.1,0.5,0.2,0.7,0.2c1.2,0.4,2-1.2,1.2-2
					c-0.9-0.9-1.9-1.7-3-2.5C81.3,87.1,80.1,89.2,81.4,90.1L81.4,90.1z"/>
			</g>
		</g>
		<g>
			<g>
				<path class="st0" d="M75.4,80c0.1-0.7,0.3-1.4,0.4-2.1c0.1-0.6-0.2-1.3-0.8-1.5c-0.6-0.2-1.3,0.2-1.5,0.8
					c-0.1,0.7-0.3,1.4-0.4,2.1c-0.1,0.6,0.2,1.3,0.8,1.5C74.5,81,75.2,80.6,75.4,80L75.4,80z"/>
			</g>
		</g>
		<g>
			<g>
				<path class="st0" d="M73,76.2c0,0.3,0,0.6,0,0.8c0,1.5,2.4,1.5,2.4,0c0-0.3,0-0.6,0-0.8C75.4,74.6,73,74.6,73,76.2L73,76.2z"/>
			</g>
		</g>
		<g>
			<g>
				<path class="st0" d="M73.9,80.1c0.3,0.8,0.7,1.6,1.2,2.3c0.4,0.5,1,0.8,1.6,0.4c0.5-0.3,0.8-1.1,0.4-1.6c-0.4-0.5-0.8-1.1-1-1.7
					c-0.2-0.6-0.8-1-1.5-0.8C74.1,78.8,73.6,79.5,73.9,80.1L73.9,80.1z"/>
			</g>
		</g>
		<g>
			<g>
				<path class="st0" d="M75.3,82.7c0.5,0.5,1,1,1.5,1.5c1.1,1.1,2.8-0.6,1.7-1.7c-0.5-0.5-1-1-1.5-1.5
					C75.9,79.9,74.2,81.6,75.3,82.7L75.3,82.7z"/>
			</g>
		</g>
		<g>
			<g>
				<path class="st0" d="M113.5,94c0.2,0,0.5-0.1,0.7-0.1c1.3-0.2,1-2.5-0.3-2.4c-0.6,0.1-1,0.2-1.6,0.5c-1.2,0.6-0.4,2.6,0.9,2.2
					c2.1-0.6,4.1-1.4,6-2.5c-0.6-0.5-1.2-0.9-1.8-1.4c-0.1,0.3-0.2,0.6-0.3,0.9c-0.5,1.2,0.9,2.5,1.9,1.5c0.9-0.9,1.6-1.9,2.2-3
					c0.7-1.1-1-2.5-1.9-1.5c-0.6,0.7-1.2,1.2-2,1.6c0.5,0.5,1.1,1.1,1.6,1.6c0.5-1,1.6-1.3,2.3-2c0.6-0.6,1-1.3,1.5-2
					c1.5-2,3.3-3.6,5.2-5.3c-0.6-0.6-1.1-1.1-1.7-1.7c-1.3,1.7-2.2,3.4-2.8,5.5c-0.4,1.4,1.4,2,2.2,0.9c0.7-0.9,1.3-1.9,2-2.8
					c0.9-1.3-1.2-2.5-2.1-1.2c-0.7,0.9-1.3,1.9-2,2.8c0.7,0.3,1.5,0.6,2.2,0.9c0.5-1.7,1.1-3.1,2.2-4.5c0.9-1.2-0.5-2.8-1.7-1.7
					c-1.9,1.7-3.8,3.4-5.4,5.5c-0.8,1-1.4,1.8-2.4,2.6c-0.7,0.5-1.1,0.9-1.5,1.7c-0.6,1.1,0.6,2.2,1.6,1.6c1-0.5,1.7-1.1,2.5-2
					c-0.6-0.5-1.3-1-1.9-1.5c-0.5,0.9-1.1,1.7-1.9,2.5c0.6,0.5,1.3,1,1.9,1.5c0.3-0.6,0.4-0.8,0.5-1.5c0.2-1-0.8-1.9-1.8-1.4
					c-1.8,0.9-3.6,1.6-5.5,2.2C112.9,92.6,113.2,93.3,113.5,94c0.1,0,0.3,0,0.4-0.1c-0.1-0.8-0.2-1.6-0.3-2.4
					c-0.2,0-0.5,0.1-0.7,0.1C111.3,91.9,112,94.2,113.5,94L113.5,94z"/>
			</g>
		</g>
		<g>
			<g>
				<path class="st0" d="M125,85.3c1.4-1.2,2.1-2.2,2.8-3.9c0.5-1.3-1.5-2-2.2-0.9c-0.7,1-1.4,2.1-2.1,3.1c-0.8,1.1,1,2.5,1.9,1.5
					c1.7-2,3.1-4.1,4.2-6.5c0.6-1.4-1.2-2.5-2.1-1.2c-0.9,1.4-1.6,2.7-2.2,4.2c0.8,0.2,1.5,0.4,2.3,0.6c0.2-0.7,0.4-1.3,0.5-2
					c0.3-1.3-1.5-2.2-2.2-0.9c-0.4,0.9-0.9,1.7-1.5,2.5c0.7,0.4,1.4,0.8,2.1,1.2c0.8-1.4,1.4-2.7,1.9-4.2c-0.8-0.2-1.5-0.4-2.3-0.6
					c-0.1,0.4-0.2,0.9-0.3,1.3c-0.4,1.5,1.9,2.1,2.3,0.6c0.8-2.6,1.3-5.3,1.7-8c-0.8,0-1.6,0-2.4,0c-0.1,2.2-0.1,4.4-0.2,6.6
					c0,1.5,2.3,1.5,2.4,0c0.2-5,0.3-10,0.5-14.9c-0.8,0.1-1.6,0.2-2.4,0.3c0.8,3,0.8,5,0.2,8c-0.3,1.2,1.6,2.2,2.2,0.9
					c2.3-5.4,3.4-11,0.5-16.4c-0.7-1.3-2.4-0.3-2.2,0.9c0.4,2.5,0.8,5,1.2,7.5c0.8-0.2,1.5-0.4,2.3-0.6c-1.2-6.8-2.8-13.5-5-20.1
					c-0.7,0.4-1.3,0.8-2,1.2c3,2.4,3.4,7.7,4.1,11.2c0.3,1.3,2.4,1,2.4-0.3c0-6.3-0.4-12.5-5.5-16.9c-1.2-1-2.7,0.5-1.7,1.7
					c3.3,3.7,4.6,8.1,3.7,13.1c-0.2,1.5,2.1,2.2,2.3,0.6c0.9-5.8-0.5-11-4.4-15.4c-0.6,0.6-1.1,1.1-1.7,1.7
					c4.6,3.9,4.8,9.6,4.8,15.2c0.8-0.1,1.6-0.2,2.4-0.3c-0.8-4-1.3-9.5-4.7-12.3c-0.9-0.7-2.4-0.1-2,1.2c2.1,6.6,3.8,13.3,5,20.1
					c0.3,1.5,2.6,0.9,2.3-0.6c-0.4-2.5-0.8-5-1.2-7.5c-0.7,0.3-1.5,0.6-2.2,0.9c2.4,4.6,1.5,9.4-0.5,14c0.7,0.3,1.5,0.6,2.2,0.9
					c0.7-3.2,0.6-6.1-0.2-9.3c-0.3-1.3-2.3-1-2.4,0.3c-0.2,5-0.3,10-0.5,14.9c0.8,0,1.6,0,2.4,0c0.1-2.2,0.1-4.4,0.2-6.6
					c0-1.6-2.2-1.5-2.4,0c-0.3,2.5-0.8,4.9-1.6,7.4c0.8,0.2,1.5,0.4,2.3,0.6c0.1-0.4,0.2-0.9,0.3-1.3c0.4-1.5-1.8-2.1-2.3-0.6
					c-0.4,1.3-0.9,2.5-1.7,3.7c-0.8,1.4,1.2,2.5,2.1,1.2c0.6-0.8,1.1-1.6,1.5-2.5c-0.7-0.3-1.5-0.6-2.2-0.9c-0.2,0.7-0.4,1.3-0.5,2
					c-0.4,1.5,1.8,2.1,2.3,0.6c0.4-1.3,1.1-2.6,1.9-3.7c-0.7-0.4-1.4-0.8-2.1-1.2c-1,2.3-2.2,4.1-3.8,6c0.6,0.5,1.3,1,1.9,1.5
					c0.7-1,1.4-2.1,2.1-3.1c-0.7-0.3-1.5-0.6-2.2-0.9c-0.7,1-1.4,1.9-2.1,2.9C122.1,84.6,123.8,86.3,125,85.3L125,85.3z"/>
			</g>
		</g>
		<g>
			<g>
				<path class="st0" d="M101.2,33c0.3-0.3,0.6-0.5,0.8-0.8c-0.1-0.7-0.2-1.5-0.3-2.2c0.1,0.2,0.3,0.4,0.4,0.6
					c1.1-0.9-0.3-2.5-1.5-1.9c-0.4,0.2-0.7,0.4-1.1,0.6c-1.1,0.5-0.5,2.3,0.6,2.2c0.7,0,2.2-0.7,2.7-0.7c1.2,0.1,3.2,1.5,4.4,2
					c1.4,0.6,2.6-1.3,1.2-2.1c-1.3-0.7-2.6-1.4-3.8-2.1c-0.3,0.7-0.6,1.5-0.9,2.2c1.5,0.4,2.8,0.9,4.2,1.5c1.2,0.5,2.2-1.6,0.9-2.2
					c-1.5-0.7-1.4-0.7-3-1c-1.5-0.3-2.1,1.8-0.6,2.3c2.3,0.8,4.6,1.6,6.8,2.4c1.5,0.5,2-1.7,0.6-2.3c-1.4-0.5-2.9-1.2-4.2-1.9
					c-0.1,0.7-0.2,1.5-0.3,2.2c4.2-0.8,5.9,3.1,7,6c0.7-0.3,1.5-0.6,2.2-0.9c-0.8-1.5-1.4-3.1-1.7-4.8c-0.7,0.3-1.5,0.6-2.2,0.9
					c2.5,3.4,4.7,6.9,6.7,10.6c0.7,1.4,2.7,0.2,2.1-1.2c-0.8-1.6-1.5-3.3-2.3-4.9c-0.6,0.5-1.3,1-1.9,1.5c2.2,2.1,4.3,4.2,6.4,6.4
					c0.8,0.9,2.4,0,2-1.2c-0.8-2.7-2.1-4.8-3.9-6.8c-0.6,0.6-1.1,1.1-1.7,1.7c1.1,0.9,1.9,1.9,2.3,3.2c0.5,1.1,2.3,0.6,2.2-0.6
					c-0.2-4.6-3.2-8.2-7.8-8.8c-1.3-0.2-2.1,1.4-0.9,2.2c2.5,1.8,3.9,3.9,4.7,6.8c0.7-0.4,1.3-0.8,2-1.2c-2.8-2.4-4.4-6.1-8-7.6
					c-4-1.7-9.2,1.1-12.7-1.5c-0.3,0.7-0.6,1.5-0.9,2.2c4,0.8,7.2,2.5,10.1,5.4c0.5-0.6,1-1.3,1.5-1.9c-2.8-1.9-5.6-3.8-8.4-5.8
					c-0.3,0.7-0.6,1.5-0.9,2.2c3.3,1,5.9,2.4,8.5,4.6c0.4-0.7,0.8-1.3,1.2-2c-3.5-1.4-6.7-3.2-9.8-5.4c-0.3,0.7-0.6,1.5-0.9,2.2
					c5.4,2.1,9.8,5.5,13.2,10.2c0.6-0.5,1.3-1,1.9-1.5c-1.9-1.9-3.4-3.9-4.7-6.2c-0.5,0.5-1.1,1.1-1.6,1.6c2.5,1.5,4.5,3.2,6.3,5.6
					c0.6-0.5,1.3-1,1.9-1.5c-2.5-2.6-5-5.2-7.5-7.8c-0.4,0.7-0.8,1.3-1.2,2c4.4,1,5.4,5.4,7.3,8.9c1.3,2.5,4.8,5.2,5.1,8
					c0.8-0.1,1.6-0.2,2.4-0.3c-1.1-3-2.6-5.4-4.8-7.7c-0.8-0.8-2.4,0-2,1.2c0.6,1.7,1.3,3.2,2.1,4.8c0.6-0.5,1.3-1,1.9-1.5
					c-1-0.8-1.8-1.8-2.4-2.9c-0.6,0.5-1.3,1-1.9,1.5c0.3,0.2,0.5,0.5,0.8,0.7c0.9,0.8,2.3,0,2-1.2c-0.2-0.9-0.5-1.8-0.7-2.7
					c-0.6,0.5-1.2,0.9-1.8,1.4c1.3,0.9,2.4,2,3.3,3.3c0.9,1.2,2.7,0.2,2.1-1.2c-0.8-1.7-1.6-3.5-2.4-5.2c-0.6,0.5-1.3,1-1.9,1.5
					c1.1,1.3,2.1,2.6,3,4.1c0.8,1.3,2.7,0.2,2.1-1.2c-0.6-1.3-1.2-2.6-1.8-3.9c-0.7,0.4-1.4,0.8-2.1,1.2c1,1.3,1.9,2.7,2.7,4.1
					c0.7,1.2,2.5,0.4,2.2-0.9c-0.5-2-0.3-1.6-1.3-3.3c-0.8-1.3-2.7-0.2-2.1,1.2c0.9,2,1.9,3.9,3,5.7c0.8,1.4,2.7,0.2,2.1-1.2
					c-0.5-1.1-1-2.2-1.7-3.2c-0.6-1-2.3-0.6-2.2,0.6c0.1,2.6,0.4,4.9,1,7.4c0.7-0.3,1.5-0.6,2.2-0.9c-0.5-1-1.1-1.9-1.7-2.9
					c-0.6-0.9-2.4-0.6-2.2,0.6c0,0.4,0.1,0.9,0.1,1.3c0.7-0.2,1.5-0.4,2.2-0.6c-0.5-1-0.7-1.2-1.4-2.1c-0.8-1.1-2.2,0.1-2,1.2
					c0.1,0.8,0.2,1.6,0.3,2.3c0.7-0.3,1.5-0.6,2.2-0.9c-0.4-0.8-0.7-1.7-1.1-2.5c-0.8,0.2-1.5,0.4-2.3,0.6c1.2,3.2,2,6.3,2.4,9.8
					c0.8-0.1,1.6-0.2,2.4-0.3c-1.1-3.3-1.9-6.6-2.4-10c-0.8,0.2-1.5,0.4-2.3,0.6c1,2.4,1.7,4.8,2.3,7.2c0.3,1.3,1.9,1,2.3,0
					c0.3-0.7,0.6-1.5,0.9-2.2c-0.8,0-1.5,0-2.3,0c0.4,1.4,0.5,2.7,0.4,4.1c-0.1,1.6,2.3,1.5,2.4,0c0.1-1.7,0.3-3.4,0.4-5.1
					c-0.8,0.1-1.6,0.2-2.4,0.3c0.4,1.8,0.6,3.6,0.6,5.4c0.8,0,1.6,0,2.4,0c0-1.1,0.1-2.1,0.1-3.2c-0.8,0-1.5,0-2.3,0
					c0.9,3.7-0.4,4.3-1.5,7.2c0.8,0.1,1.6,0.2,2.4,0.3c-0.1-1.1-0.2-2.2-0.4-3.2c-0.7,0.2-1.5,0.4-2.2,0.6c0.2,0.5,0.5,1.1,0.7,1.6
					c0.7-0.4,1.4-0.8,2.1-1.2c-0.3-0.6-0.5-1.2-0.8-1.8c-0.7,0.4-1.3,0.8-2,1.2c1.2,1-0.1,5.1-0.4,6.3c-0.2,1-0.7,1.8-0.9,2.8
					c-0.3,1.1,1.1,2.1,2,1.2c2.4-2.6,4-5.4,4.9-8.8c0.3-1.4-1.4-2-2.2-0.9c-0.3,0.5-0.7,1-1,1.5c0.7,0.1,1.5,0.2,2.2,0.3
					c-0.6-4.4-0.4-10.2-2.4-14.3c-1.5-3.2-4.7-4.6-7.3-6.6c-3.5-2.7-5.1-6.2-9.4-8c-3.5-1.5-7.2-2.3-11-1.5c-0.8,0.2-1.2,1.4-0.5,2
					c1.2,1,2.4,1.8,3.8,2.6c0.2-0.7,0.4-1.5,0.6-2.2c-1.3-0.1-2.6-0.4-3.9-0.9c-1.3-0.4-2.1,1.5-0.9,2.2c1.4,0.9,2.8,1.5,4.4,2
					c0.1-0.8,0.2-1.6,0.3-2.4c-0.8,0-1.5,0-2.3,0c-1,0-1.4,1-1,1.8c0.7,1.3,0.8,1.4,2.2,1.9c1.5,0.5,2.1-1.8,0.6-2.3
					c-0.5-0.2-1-0.3-1.4-0.5c-1.4-0.5-2,1.5-0.9,2.2c0.4,0.2,0.7,0.5,1.1,0.7c0.3-0.7,0.6-1.5,0.9-2.2c-0.5-0.1-1-0.2-1.5-0.3
					c-1.1-0.2-2.2,1.1-1.2,2c2.6,2.2,8.2,1.4,9.8,4.2c0.6,1.1,2.1,0.5,2.2-0.6c0.5-4.8-3.3-7-7.2-8.6c-1.2-0.5-2.2,1.6-0.9,2.2
					c2.4,1.1,4.6,2.3,6.8,3.6c0.3-0.7,0.6-1.5,0.9-2.2c-2.3-0.4-4.2-0.9-6.4-1.9c-1.4-0.6-2.5,1.2-1.2,2.1c1.6,1.1,3.1,2.1,4.6,3.3
					c0.4-0.7,0.8-1.3,1.2-2c-1.7-0.4-3.1-1.3-4.3-2.6c-0.4,0.7-0.8,1.3-1.2,2c1.4,0.1,2.8,0.6,4,1.5c0.3-0.7,0.6-1.5,0.9-2.2
					c-1.1-0.5-2.1-1-3.2-1.5c-0.3,0.7-0.6,1.4-0.8,2c2-0.3,3.7,0.2,5.3,1.4c0.3-0.7,0.6-1.5,0.9-2.2c-1.2-0.9-2.5-1.7-3.7-2.6
					c-0.3,0.6-0.7,1.2-1,1.8c2.9,0.2,4.9,1.8,6.1,4.4c0.5-0.5,1.1-1.1,1.6-1.6c-1.5-0.9-2.5-2.1-3.1-3.6c-0.6,0.5-1.3,1-1.9,1.5
					c1.6,1.5,2.9,3.1,4.1,5c0.6-0.5,1.3-1,1.9-1.5c-0.6-0.5-1.1-1-1.7-1.5c-1-1-2.4,0.2-1.9,1.5c1.3,2.9,3.6,4.7,5.2,7.3
					c0.5,0.9,1.9,0.7,2.2-0.3c0.5-1.6,1-3.2,1.5-4.8c0.2-0.5-0.1-1.1-0.6-1.4c-1.4-1-2.8-1.7-4.3-2.4c-1.3-0.6-2.3,0.8-1.5,1.9
					c1.3,1.6,2.6,3.1,3.9,4.7c0.6-0.6,1.1-1.1,1.7-1.7c-0.9-1-1.8-2-2.5-3.1c-0.6,0.5-1.3,1-1.9,1.5c0.9,0.7,1.6,1.6,2,2.7
					c0.5-0.6,0.9-1.2,1.4-1.8c-0.7-0.5-1.3-1-2-1.5c-0.7,0.4-1.3,0.8-2,1.2c0.4,0.5,0.7,1,1.1,1.6c0.6-0.5,1.3-1,1.9-1.5
					c-1.5-1-2.4-2.4-2.5-4.1c-0.6,0.5-1.2,0.9-1.8,1.4c0.5,0.7,0.9,1.4,1.4,2.1c0.6-0.3,1.2-0.7,1.8-1c-0.5-0.2-1-0.4-1.4-0.6
					c0.7,1.4,2.8,0.2,2.1-1.2c-0.8-1.5-1.7-2.6-3.5-2.7c-0.5,0-1,0.4-1.2,0.9c-0.8,2.4,0.9,4.4,2.8,5.7c0.7,0.4,1.9-0.1,1.8-1
					c-0.2-2.1-0.8-3.1-2.6-4.2c-0.9-0.6-2,0.4-1.8,1.4c0.5,2.2,1.4,3.8,3.2,5.2c1.1,0.9,2.4-0.2,1.9-1.5c-0.5-1.2-0.5-1.1-1.4-2
					c-0.8-0.8-2.4,0-2,1.2c0.7,2,1.5,2.8,3.6,3.2c1.1,0.2,1.8-0.8,1.4-1.8c-0.6-1.3-1.3-2.2-2.3-3.2c-0.9-0.9-2.7,0.3-1.9,1.5
					c0.9,1.3,1.9,2.5,2.9,3.6c1.1,1.2,2.7-0.5,1.7-1.7c-1.3-1.6-2.6-3.1-3.9-4.7c-0.5,0.6-1,1.3-1.5,1.9c3.6,1.6,3.4,2.3,2.3,5.9
					c0.7-0.1,1.5-0.2,2.2-0.3c-1.6-2.6-3.9-4.4-5.2-7.3c-0.6,0.5-1.3,1-1.9,1.5c0.6,0.5,1.1,1,1.7,1.5c1,0.9,2.6-0.3,1.9-1.5
					c-1.3-2.1-2.6-3.8-4.4-5.5c-1-0.9-2.5,0.2-1.9,1.5c1,2,2.2,3.2,4,4.5c1.1,0.8,2.1-0.7,1.6-1.6c-1.5-3.5-4.4-5.3-8.1-5.6
					c-0.9-0.1-1.6,1.1-1,1.8c1.4,2,2.8,3,5.1,3.7c1.3,0.4,2-1.5,0.9-2.2c-2.1-1.4-4-1.9-6.5-1.8c-1,0.1-1.6,1.3-0.8,2
					c1.3,1.3,2.4,1.9,4.2,2.1c1.3,0.2,2.2-1.4,0.9-2.2c-1.5-0.9-2.8-1.4-4.5-1.7c-1.1-0.2-2.1,1.1-1.2,2c1.6,1.6,3.2,2.6,5.3,3.2
					c1.1,0.3,2.1-1.2,1.2-2c-1.7-1.3-3.3-2.5-5.1-3.7c-0.4,0.7-0.8,1.4-1.2,2.1c2.3,1,4.5,1.7,6.9,2.1c1.3,0.2,2.2-1.5,0.9-2.2
					c-2.2-1.3-4.5-2.5-6.8-3.6c-0.3,0.7-0.6,1.5-0.9,2.2c2.7,1.1,5.9,2.5,5.5,6.3c0.7-0.2,1.5-0.4,2.2-0.6c-2.3-4.2-7-2-10.1-4.7
					c-0.4,0.7-0.8,1.3-1.2,2c0.5,0.1,1,0.2,1.5,0.3c1.3,0.2,2.1-1.4,0.9-2.2c-0.4-0.2-0.7-0.5-1.1-0.7c-0.3,0.7-0.6,1.5-0.9,2.2
					c0.5,0.2,1,0.3,1.4,0.5c0.2-0.8,0.4-1.5,0.6-2.3c-0.3-0.3-0.5-0.5-0.8-0.8c-0.3,0.6-0.7,1.2-1,1.8c0.8,0,1.5,0,2.3,0
					c1.4,0,1.6-2,0.3-2.4c-1.4-0.3-2.6-0.9-3.8-1.7c-0.3,0.7-0.6,1.5-0.9,2.2c1.5,0.5,2.9,0.8,4.5,1c1.2,0.2,1.6-1.7,0.6-2.2
					c-1.2-0.6-2.3-1.4-3.3-2.3c-0.2,0.7-0.4,1.3-0.5,2c3.8-0.8,8.9,0.5,12,2.8c2.7,1.9,4.2,4.9,7,6.9c3.3,2.3,5.7,3.7,6.6,8
					c0.8,3.6,1,7.5,1.5,11.1c0.2,1.1,1.7,1,2.2,0.3c0.3-0.5,0.7-1,1-1.5c-0.7-0.3-1.5-0.6-2.2-0.9c-0.8,3.1-2,5.4-4.2,7.7
					c0.7,0.4,1.3,0.8,2,1.2c0.9-3.8,4.5-8,0.7-11.4c-0.9-0.8-2.3,0-2,1.2c0.3,1.3,0.3,1.2,1,2.4c0.8,1.4,2.7,0.2,2.1-1.2
					c-0.2-0.5-0.5-1.1-0.7-1.6c-0.5-1.1-2.4-0.6-2.2,0.6c0.1,1.1,0.2,2.2,0.4,3.2c0.2,1.4,1.9,1.6,2.4,0.3c0.6-0.7,1.2-1.3,1.8-2
					c0.3-0.2,0.6-0.6,0.6-1c-0.1-1.9-0.4-3.6-0.8-5.5c-0.3-1.1-2.1-1.2-2.3,0c-0.4,2.1-0.4,1.6-0.2,3.8c0.2,1.5,2.5,1.6,2.4,0
					c-0.1-2.1-0.3-4-0.7-6c-0.3-1.4-2.3-0.9-2.4,0.3c-0.1,1.7-0.3,3.4-0.4,5.1c0.8,0,1.6,0,2.4,0c0.1-1.7-0.1-3.1-0.5-4.8
					c-0.3-1.3-1.9-1-2.3,0c-0.3,0.7-0.6,1.5-0.9,2.2c0.8,0,1.5,0,2.3,0c-0.6-2.5-1.4-4.9-2.3-7.2c-0.6-1.4-2.6-0.9-2.3,0.6
					c0.5,3.4,1.3,6.7,2.4,10c0.4,1.2,2.5,1.1,2.4-0.3c-0.4-3.6-1.2-7-2.5-10.4c-0.5-1.4-2.8-0.9-2.3,0.6c0.5,1.6,0.5,1.6,1.4,3.1
					c0.7,1.3,2.4,0.3,2.2-0.9c-0.1-0.8-0.2-1.6-0.3-2.3c-0.7,0.4-1.3,0.8-2,1.2c0.3,0.5,0.7,1.1,1,1.6c0.5,1,2.4,0.6,2.2-0.6
					c0-0.4-0.1-0.9-0.1-1.3c-0.7,0.2-1.5,0.4-2.2,0.6c0.6,0.9,1.2,1.9,1.7,2.9c0.7,1.2,2.5,0.4,2.2-0.9c-0.5-2.3-0.8-4.5-0.9-6.8
					c-0.7,0.2-1.5,0.4-2.2,0.6c0.7,1,1.2,2.1,1.7,3.2c0.7-0.4,1.4-0.8,2.1-1.2c-1.1-1.9-2.1-3.8-3-5.7c-0.7,0.4-1.4,0.8-2.1,1.2
					c0.4,0.9,0.7,1.8,1.1,2.7c0.7-0.3,1.5-0.6,2.2-0.9c-0.8-1.4-1.7-2.8-2.7-4.1c-0.9-1.2-2.7-0.2-2.1,1.2c0.6,1.3,1.2,2.6,1.8,3.9
					c0.7-0.4,1.4-0.8,2.1-1.2c-1-1.6-2.1-3.1-3.4-4.6c-0.9-1.1-2.4,0.3-1.9,1.5c0.8,1.7,1.6,3.5,2.4,5.2c0.7-0.4,1.4-0.8,2.1-1.2
					c-1.2-1.7-2.5-3-4.2-4.2c-0.9-0.6-2,0.4-1.8,1.4c0.2,0.9,0.5,1.8,0.7,2.7c0.7-0.4,1.3-0.8,2-1.2c-0.3-0.2-0.5-0.5-0.8-0.7
					c-1-0.9-2.7,0.3-1.9,1.5c0.8,1.3,1.7,2.3,2.8,3.4c1,1,2.5-0.2,1.9-1.5c-0.7-1.4-1.3-2.8-1.8-4.3c-0.7,0.4-1.3,0.8-2,1.2
					c1.9,2,3.2,4,4.1,6.6c0.4,1.2,2.5,1.1,2.4-0.3c-0.6-4.4-4.6-7.4-6.5-11.4c-1.7-3.6-3.6-6.8-7.7-7.7c-1.2-0.3-2,1.1-1.2,2
					c2.5,2.6,5,5.2,7.5,7.8c0.9,0.9,2.7-0.3,1.9-1.5c-2-2.7-4.3-4.7-7.1-6.4c-1.1-0.6-2.2,0.6-1.6,1.6c1.3,2.6,2.9,4.7,5,6.7
					c0.9,0.9,2.7-0.3,1.9-1.5c-3.8-5.3-8.6-8.9-14.6-11.3c-1.4-0.5-2,1.5-0.9,2.2c3.3,2.3,6.7,4.1,10.4,5.7c1.1,0.5,2-1.2,1.2-2
					c-2.8-2.5-5.9-4.2-9.5-5.2c-1.4-0.4-2,1.5-0.9,2.2c2.8,1.9,5.6,3.8,8.4,5.8c1.1,0.8,2.4-0.9,1.5-1.9c-3.2-3.1-6.8-5.1-11.2-6
					c-1.4-0.3-2,1.4-0.9,2.2c2.8,2,5.5,1,8.8,1c6.2,0,7.5,4.2,11.5,7.7c0.9,0.8,2.3,0,2-1.2c-1-3.5-2.8-6.1-5.8-8.2
					c-0.3,0.7-0.6,1.5-0.9,2.2c3.6,0.5,5.9,2.8,6.1,6.5c0.7-0.2,1.5-0.4,2.2-0.6c-0.7-1.5-1.5-2.5-2.7-3.7c-1.1-1.1-2.7,0.6-1.7,1.7
					c1.7,1.9,2.6,3.3,3.3,5.8c0.7-0.4,1.3-0.8,2-1.2c-2-2.2-4.1-4.3-6.4-6.4c-1-1-2.4,0.2-1.9,1.5c0.8,1.6,1.5,3.3,2.3,4.9
					c0.7-0.4,1.4-0.8,2.1-1.2c-2-3.7-4.2-7.3-6.7-10.6c-0.8-1.1-2.5-0.5-2.2,0.9c0.5,1.9,1.1,3.6,1.9,5.4c0.6,1.2,2.7,0.3,2.2-0.9
					c-1.8-4.6-4.5-8.7-10-7.7c-1,0.2-1.2,1.7-0.3,2.2c1.6,0.8,3.1,1.5,4.8,2.2c0.2-0.8,0.4-1.5,0.6-2.3c-2.3-0.8-4.6-1.6-6.8-2.4
					c-0.2,0.8-0.4,1.5-0.6,2.3c0.8,0.3,1.6,0.5,2.4,0.8c0.3-0.7,0.6-1.5,0.9-2.2c-1.4-0.6-2.8-1.1-4.2-1.5c-1.3-0.4-2.1,1.5-0.9,2.2
					c1.3,0.7,2.6,1.4,3.8,2.1c0.4-0.7,0.8-1.4,1.2-2.1c-1.8-0.8-3.4-1.6-5-2.7c-0.4-0.3-1.1-0.2-1.5,0.2c-0.6,0.3-1.2,0.6-1.8,0.9
					c0.2,0.7,0.4,1.5,0.6,2.2c0.4-0.2,0.7-0.4,1.1-0.6c-0.5-0.6-1-1.3-1.5-1.9c-1.1,0.9-1.1,1.1-1,2.4c0.1,0.6,0.3,1,0.9,1.2
					c1.3,0.4,1.5,0.4,2.6-0.4c0.7-0.6,0.8-1.9-0.3-2.2c-2.2-0.5-5,1.6-2.9,3.8c1.5,1.6,4.3,0.7,3.8-1.6c-0.1-0.4-0.5-0.7-0.8-0.8
					c-2.5-0.8-4.1,1.9-2.9,4.1c1,1.9,3.8,2.2,4.4-0.2c0.5-2.2-2.1-4.9-4.2-3.6c-2.1,1.2-1,3.9,1.2,3.9C102.7,35.4,102.7,33,101.2,33
					L101.2,33z"/>
			</g>
		</g>
		<g>
			<g>
				<path class="st0" d="M116.8,40.7c-1.1-0.7-2.2-0.7-3.2,0.3c-1.7,1.7,0.1,4.1,0.2,6.1c0.7-0.3,1.4-0.6,2-0.8
					c2-1.6,3.1-1.1,3.2,1.3c0.2,0.6,0.4,1.2,0.6,1.8c0.4,1.1,0.9,2.1,1.6,3.1c0.6,0.9,2.3,0.7,2.2-0.6c-0.4-4.8-3.7-10.4-8.1-12.7
					c-2-1.1-4.9-1.5-7.1-1.1c-0.6,0.1-1.2,0.3-1.8,0.4c-1,0.8-2.2,1-3.6,0.4c-1.2-0.3-2.4-0.7-3.6-1c-1.1-0.3-2.1,1.2-1.2,2
					c0.5,0.5,1.1,0.9,1.6,1.4c0.3-0.7,0.6-1.4,0.8-2c-0.3-0.1-0.6-0.2-0.9-0.3c-1.1-0.7-2.5,1-1.5,1.9c1.3,1.1,2.2,1.5,3.9,1.6
					c1.5,0.1,1.5-2.3,0-2.4c-0.7-0.3-1.5-0.6-2.2-0.9c-0.5,0.6-1,1.3-1.5,1.9c0.9,0.6,1.1,0.6,2.1,0.6c1,0,1.6-1.4,0.8-2
					c-0.5-0.5-1.1-0.9-1.6-1.4c-0.4,0.7-0.8,1.3-1.2,2c1.7,0.5,3.9,1.5,5.7,1.6c1.7,0,0.8-0.3,2.3-0.6c7.1-1.7,13.8,3.3,14.4,10.8
					c0.7-0.2,1.5-0.4,2.2-0.6c-2-2.8-2.6-10.2-7.5-10c-3.9,0.2-4.4,4.6-1.8,6.7c0.7,0.6,2.1,0.3,2-0.8c0-0.7-0.4-4.1-0.7-4.3
					C116.9,43.6,118.1,41.5,116.8,40.7L116.8,40.7z"/>
			</g>
		</g>
	</g>
	<g>
		<g>
			<g>
				<path d="M72.9,75.3c-1.2-2-1.4-3.6-0.7-5.9c0.4-1.4,0.6-2.8,0.6-4.3c0-0.8-1.2-0.8-1.2,0c0.1,2.3-0.9,4.2-1.1,6.4
					c-0.1,1.6,0.6,3,1.4,4.4C72.3,76.6,73.3,76,72.9,75.3L72.9,75.3z"/>
			</g>
		</g>
		<g>
			<g>
				<path d="M72.8,65.1c-0.8-2.1-1.7-4.5-1.6-6.8c0.1-2.1,1.2-3.9,1.6-5.9c1.1-4.9,0.2-8,5.2-10.9c0.7-0.4,0.1-1.4-0.6-1
					c-3.4,2-5,4.6-5.6,8.4c-1.1,6.2-2.4,10.5-0.2,16.6C71.9,66.1,73,65.8,72.8,65.1L72.8,65.1z"/>
			</g>
		</g>
		<g>
			<g>
				<path d="M78.6,40.5c0-5.1,4.5-5.6,8.1-7.6c4-2.3,8.3-5.7,13-2.7c0.7,0.4,1.3-0.6,0.6-1c-4.8-3-9.3-0.2-13.6,2.3
					c-4.7,2.8-9.3,2.7-9.3,9C77.4,41.3,78.6,41.3,78.6,40.5L78.6,40.5z"/>
			</g>
		</g>
		<g>
			<g>
				<path d="M73.1,75.9c0.1-1.4,1.2-2,1.7-3.2c0.6-1.4,0.5-3.1,0.9-4.6c0.3-0.9,0.7-1.6,0.6-2.6c-0.1-1.9-1.1-3.3-0.8-5.3
					c0.1-0.8-1.1-0.8-1.2,0c-0.1,1.2-0.2,2.2,0.1,3.3c0.6,2.2,0.2,3.4-0.3,5.5c-0.3,1.6-0.6,3-1.4,4.5c-0.5,0.9-0.8,1.3-0.9,2.4
					C71.9,76.6,73.1,76.6,73.1,75.9L73.1,75.9z"/>
			</g>
		</g>
		<g>
			<g>
				<path d="M74.2,81.9c0.7-2.5-0.8-4.9,0-7.4c0.2-0.7-0.9-1.1-1.2-0.3c-0.8,2.5,0.7,4.9,0,7.4C72.8,82.3,74,82.6,74.2,81.9
					L74.2,81.9z"/>
			</g>
		</g>
		<g>
			<g>
				<path d="M74.3,82.7c0.8-0.7,1.5-1.5,1.9-2.5c0.3-0.7-0.7-1.3-1-0.6c-0.4,0.9-1,1.6-1.7,2.2C72.9,82.3,73.8,83.1,74.3,82.7
					L74.3,82.7z"/>
			</g>
		</g>
		<g>
			<g>
				<path d="M77.6,86.8c-1.4-1.5-0.1-4.1-1.4-5.7c-0.5-0.6-1.5,0-1,0.6c1.3,1.8,0,4.2,1.6,6C77.3,88.2,78.1,87.3,77.6,86.8
					L77.6,86.8z"/>
			</g>
		</g>
		<g>
			<g>
				<path d="M77.7,87.6c0.3-0.4,0.7-0.6,1.3-0.6c0.8,0,0.8-1.2,0-1.2c-0.8,0-1.5,0.3-2.1,0.9C76.4,87.3,77.2,88.2,77.7,87.6
					L77.7,87.6z"/>
			</g>
		</g>
		<g>
			<g>
				<path d="M76,60.5c-0.2-1.1-0.1-2.2,0.3-3.2c0.3-0.7-0.9-1-1.2-0.3c-0.5,1.2-0.6,2.5-0.3,3.9C75,61.6,76.2,61.3,76,60.5L76,60.5z
					"/>
			</g>
		</g>
		<g>
			<g>
				<path d="M76.5,65.7c0.3-3,3-5.2,3.4-8.4c0.3-2.9,0.3-5.4,2.2-7.9c1.4-1.8,3.2-3.4,4.8-5.1c0.5-0.6-0.3-1.4-0.8-0.8
					c-2.8,2.9-6.3,5.6-7.1,9.8c-0.5,2.9-0.3,5.6-1.8,8.3c-0.9,1.5-1.7,2.3-1.9,4.1C75.3,66.5,76.5,66.5,76.5,65.7L76.5,65.7z"/>
			</g>
		</g>
		<g>
			<g>
				<path d="M97.2,41.5c-1,2.6-2.7,2.9-5.3,3.3c-1.1,0.2-2.1,0.3-3.1,0.9c-1.6,0.9-2.5,2-4.5,2.3c-1.2,0.2-1.9,0-3,0.5
					c-0.7,0.3-0.1,1.4,0.6,1c1.4-0.7,3-0.1,4.5-0.8c0.8-0.4,1.5-1.1,2.2-1.6c1.4-0.9,2.7-1.1,4.3-1.3c3-0.4,4.2-1.2,5.4-4.1
					C98.7,41.1,97.5,40.8,97.2,41.5L97.2,41.5z"/>
			</g>
		</g>
		<g>
			<g>
				<path d="M98.1,37.1c-1.1,2-0.7,4.5,1.5,5.5c1.1,0.5,2.2,0.4,3.3,0.2c2.9-0.3,5.5,0.5,6.7,3.4c0.3,0.7,1.4,0.4,1.2-0.3
					c-0.7-1.8-2-3.2-3.8-4c-1.1-0.5-2.2-0.5-3.4-0.4c-0.6,0.1-1.3,0.3-1.9,0.2c-2.4-0.2-3.6-2-2.5-4.1
					C99.5,37.1,98.4,36.5,98.1,37.1L98.1,37.1z"/>
			</g>
		</g>
		<g>
			<g>
				<path d="M110.8,47.3c1.6-1.8,0.6-5,0-7.1c-0.2-0.7-1.4-0.4-1.2,0.3c0.4,1.5,1.5,4.6,0.3,5.9C109.4,47,110.2,47.8,110.8,47.3
					L110.8,47.3z"/>
			</g>
		</g>
		<g>
			<g>
				<path d="M109.8,42.3c0.8,1.1,1.5,2.2,2,3.5c0.3,0.8,0.6,1.6,1.1,2.3c1.1,1.3,3.1,1.5,3.7,3.1c0.3,0.7,1.3,0.1,1-0.6
					c-0.6-1.5-2.1-1.8-3.3-2.8c-1-0.8-1.2-1.9-1.7-3c-0.5-1.1-1.1-2.1-1.9-3.1C110.4,41.1,109.4,41.7,109.8,42.3L109.8,42.3z"/>
			</g>
		</g>
		<g>
			<g>
				<path d="M118.2,51.2c0.3-1.4,0.4-2.9,0.4-4.3c0-0.8-1.2-0.8-1.2,0c0.1,1.4,0,2.7-0.3,4C116.9,51.6,118.1,51.9,118.2,51.2
					L118.2,51.2z"/>
			</g>
		</g>
		<g>
			<g>
				<path d="M117.6,48.5c4.3,3.2,2.9,7.2,4.7,11.4c1.2,3,2.2,4.2,1.6,7.8c-0.3,1.5-0.8,2.7-0.9,4.2c-0.1,0.8,1.1,0.8,1.2,0
					c0.2-2.3,1.4-4.5,1.3-6.9c-0.2-2.5-1.8-4.7-2.4-7.1c-1.1-4.4-0.9-7.6-4.9-10.5C117.6,47,117,48,117.6,48.5L117.6,48.5z"/>
			</g>
		</g>
		<g>
			<g>
				<path d="M124.7,74c2.2-2.3,3.7-5,4.5-8.1c0.2-0.7-1-1.1-1.2-0.3c-0.7,2.9-2.1,5.4-4.2,7.5C123.3,73.7,124.2,74.6,124.7,74
					L124.7,74z"/>
			</g>
		</g>
		<g>
			<g>
				<path d="M124.4,73c-0.1-0.3-0.1-0.6-0.2-0.9c-0.1-0.7-1.3-0.5-1.2,0.2c0,0.3,0,0.5-0.1,0.8c-0.3,0.7,0.7,1.3,1,0.6
					c0.2-0.4,0.3-0.9,0.2-1.4c-0.4,0.1-0.8,0.1-1.2,0.2c0.1,0.3,0.1,0.6,0.2,0.9C123.4,74.1,124.6,73.8,124.4,73L124.4,73z"/>
			</g>
		</g>
		<g>
			<g>
				<path d="M117.1,90c-0.3,1.1-0.6,2.1-1.1,3.2c-0.2,0.4,0,0.9,0.5,0.9c4.5,0.3,6.1-5,6.8-8.4c0.2-0.8-1-1.1-1.2-0.3
					c-0.6,2.9-1.8,7.8-5.6,7.6c0.2,0.3,0.3,0.6,0.5,0.9c0.5-1.1,0.9-2.3,1.2-3.5C118.4,89.6,117.2,89.2,117.1,90L117.1,90z"/>
			</g>
		</g>
		<g>
			<g>
				<path d="M122.2,85.5c0.4,1.1,0.6,2.1,0.6,3.2c0,0.6,0.8,0.8,1.1,0.3c0.6-1.1,2.1-1.4,2.9-2.4c0.9-1.1,1.3-2.4,1.6-3.7
					c0.4-1.5,1.1-3,1.5-4.6c0.4-1.6,0.4-3.4,0.5-5.1c0.1-0.8-1.1-0.8-1.2,0c-0.2,3.2-0.9,5.8-1.8,8.9c-0.5,1.9-1,3.5-2.7,4.7
					c-0.9,0.6-1.4,0.6-1.9,1.6c0.4,0.1,0.7,0.2,1.1,0.3c0.1-1.3-0.1-2.3-0.6-3.6C123.1,84.5,121.9,84.8,122.2,85.5L122.2,85.5z"/>
			</g>
		</g>
		<g>
			<g>
				<path d="M130.7,73.6c0.1-4.2,3.7-7.9,2.7-12.1c-0.6-2.8-1.7-5.5-2.3-8.3c-0.3-1.4-0.5-2.2-1.5-3.3c-0.5-0.6-1.4,0.3-0.8,0.8
					c1.2,1.2,1.3,5.3,1.8,7.2c0.7,2.6,2.2,4.2,1.5,7.1c-0.8,3-2.5,5.3-2.6,8.5C129.4,74.4,130.6,74.4,130.7,73.6L130.7,73.6z"/>
			</g>
		</g>
		<g>
			<g>
				<path d="M100.4,29.5c1.3-2.1,6.7,0.2,8.8,0.6c2.4,0.5,4.7,0.4,6.7,2.9c0.6,0.7,0.9,1.6,1.5,2.3c2.1,2.3,4.8,2.7,6.6,5.5
					c2,3.1,3.1,7.4,4.5,10.9c0.3,0.7,1.4,0.4,1.2-0.3c-1.6-4-2.7-9.3-5.5-12.7c-1.1-1.4-2.6-1.8-4-2.9c-2.2-1.7-2.9-3.9-4.7-5.7
					c-0.9-0.9-1.8-1.4-3.1-1.5c-2.8-0.4-3.8,0-7.2-0.9c-2.4-0.7-4.3-1.3-5.8,1.1C99,29.6,100,30.2,100.4,29.5L100.4,29.5z"/>
			</g>
		</g>
		<g>
			<g>
				<path d="M124.7,40.7c3.1-0.5,5.8,6.8,6.1,8.7c0.3,2.3,0.9,5.2,0.6,7.4c-0.1,0.8,1,1.1,1.2,0.3c0.3-2.1-0.2-3.9-0.4-6
					c-0.2-2.3-0.1-3.8-1.3-5.8c-1.3-2.2-3.4-6.2-6.4-5.7C123.6,39.7,123.9,40.8,124.7,40.7L124.7,40.7z"/>
			</g>
		</g>
		<g>
			<g>
				<path d="M117.3,33.8c2.5-0.5,5.2,1.4,6.4,3.5c0.7,1.3,0.9,2.7,2.2,3.7c0.6,0.5,1.2-0.6,0.6-1c-1.1-0.8-1.2-2.3-1.9-3.5
					c-0.5-0.8-1.2-1.5-1.9-2.2c-1.6-1.3-3.5-2.2-5.7-1.7C116.2,32.8,116.5,33.9,117.3,33.8L117.3,33.8z"/>
			</g>
		</g>
		<g>
			<g>
				<path d="M77.3,86.7c-0.8,0.7-0.5,1.7,0,2.5c1.1,1.6,2.3,3,3.4,4.5c0.2,0.3,0.7,0.4,0.9,0.1c1.4-1.7,0.5-3.6,0.9-5.5
					c0.2-0.8-1-1.1-1.2-0.3c-0.3,1.5,0.5,3.7-0.6,5c0.3,0,0.6,0.1,0.9,0.1c-0.4-0.6-4.2-4.9-3.6-5.5C78.7,87.1,77.8,86.2,77.3,86.7
					L77.3,86.7z"/>
			</g>
		</g>
		<g>
			<g>
				<path d="M81.5,90.6c1.4,2.1,3.5,3.5,6,4c0.8,0.1,1.1-1,0.3-1.2c-2.2-0.4-4-1.6-5.3-3.4C82.1,89.4,81.1,90,81.5,90.6L81.5,90.6z"
					/>
			</g>
		</g>
		<g>
			<g>
				<path d="M111.8,95.1c1.8-0.3,3.4-1.1,4.9-2.3c0.6-0.5-0.3-1.3-0.8-0.8c-1.3,1.1-2.7,1.7-4.3,2C110.8,94.1,111.1,95.3,111.8,95.1
					L111.8,95.1z"/>
			</g>
		</g>
		<g>
			<g>
				<path d="M130.2,75.3c0.1-2-0.4-4-1.4-5.8c-0.4-0.7-1.4-0.1-1,0.6c0.9,1.6,1.3,3.3,1.2,5.2C129,76.1,130.2,76.1,130.2,75.3
					L130.2,75.3z"/>
			</g>
		</g>
	</g>
	<g>
		<g>
			<path class="st0" d="M120.6,37.3c-0.3-0.2-0.7-0.4-1-0.6c-1.7-1-3,1.5-1.5,2.6c0.3,0.2,0.6,0.5,0.9,0.7c1.5,1.1,2.8-1.1,1.8-2.4
				c-0.3-0.4-0.6-0.8-0.9-1.3c-0.6,0.7-1.1,1.5-1.7,2.2c0.3,0,0.6,0.1,0.9,0.3c1.3,0.6,2.9-0.7,2.1-2.1c-0.3-0.5-0.7-1-1.1-1.5
				c-0.6,0.8-1.2,1.6-1.8,2.4c0.1,0.1,0.2,0.2,0.2,0.2c0.4-0.9,0.7-1.7,1.1-2.6c0.3,0-0.7-1.1-0.8-1.2c-0.5-0.4-1.3-0.7-1.8-0.2
				c-0.1,0.1-0.1,0.1-0.2,0.2c0.5,0,1,0,1.5,0c-0.1,0-0.1-0.1-0.2-0.1c-1.5-1-2.8,1.1-1.8,2.4c0.9,1.1,1.8,2.1,2.6,3.2
				c1,1.2,2.8-0.1,2.5-1.5c-0.1-0.4-0.2-0.7-0.3-1.1c-0.8,0.5-1.7,1-2.5,1.5c0.5,0.4,0.9,0.8,1.2,1.2c1,1.3,2.7-0.2,2.5-1.5
				c-0.1-0.5-0.2-0.8-0.5-1.2c-0.7,0.7-1.4,1.4-2.1,2.1c0.4,0.3,0.8,0.6,1.1,0.9c1.2,1.2,3.2-0.4,2.4-1.8c-0.2-0.4-0.4-0.7-0.6-1.1
				c-0.9,0.5-1.7,1-2.6,1.5c0.3,0.4,0.6,0.7,0.8,1.1c0.8-0.6,1.6-1.2,2.4-1.8c-0.2-0.2-0.3-0.3-0.5-0.5c-1.2-1.3-3.1,0.3-2.4,1.8
				c0.7,1.5,1.3,3.1,1.7,4.7c0.5,1.9,3.4,1.1,2.9-0.8c-0.5-1.9-1.2-3.6-2-5.4c-0.8,0.6-1.6,1.2-2.4,1.8c0.2,0.2,0.3,0.3,0.5,0.5
				c1.2,1.2,3.4-0.4,2.4-1.8c-0.3-0.4-0.6-0.7-0.8-1.1c-1.1-1.5-3.6-0.2-2.6,1.5c0.2,0.4,0.4,0.7,0.6,1.1c0.8-0.6,1.6-1.2,2.4-1.8
				c-0.5-0.5-1.1-1-1.7-1.4c-1.2-0.8-2.9,0.8-2.1,2.1c0.1,0.2,0.1,0.3,0.2,0.5c0.8-0.5,1.7-1,2.5-1.5c-0.4-0.5-0.8-0.9-1.2-1.2
				c-1.1-0.9-2.9-0.1-2.5,1.5c0.1,0.4,0.2,0.7,0.3,1.1c0.8-0.5,1.7-1,2.5-1.5c-0.9-1.1-1.8-2.1-2.6-3.2c-0.6,0.8-1.2,1.6-1.8,2.4
				c0.1,0,0.1,0.1,0.2,0.1c0.4,0.3,1.1,0.3,1.5,0c0.1-0.1,0.1-0.1,0.2-0.2c-0.6-0.1-1.2-0.2-1.8-0.2c0.5,0.4,0.7,1,1.2,1.5
				c0.5,0.4,1,0.5,1.7,0.6c1.4,0.1,1.8-1.7,1.1-2.6c-0.3-0.3-0.5-0.5-0.9-0.7c-1.6-0.9-2.8,1.1-1.8,2.4c0.2,0.3,0.4,0.6,0.6,0.9
				c0.7-0.7,1.4-1.4,2.1-2.1c-0.5-0.3-1-0.5-1.6-0.6c-1.2-0.2-2.4,1-1.7,2.2c0.4,0.7,0.8,1.3,1.3,1.9c0.6-0.8,1.2-1.6,1.8-2.4
				c-0.3-0.2-0.6-0.5-0.9-0.7c-0.5,0.9-1,1.7-1.5,2.6c0.3,0.2,0.7,0.4,1,0.6C120.8,40.9,122.3,38.3,120.6,37.3L120.6,37.3z"/>
		</g>
	</g>
	<g>
		<g>
			<path class="st0" d="M126.8,47.9c-0.2-0.5-0.3-0.9-0.5-1.4c-0.9,0.4-1.8,0.8-2.7,1.2c0.8,1.1,1.5,2.2,2.1,3.3
				c0.7,1.2,2.9,0.8,2.8-0.8c-0.1-1.1-0.2-1.5-0.5-2.6c-0.9,0.4-1.8,0.8-2.7,1.2c0.3,0.7,0.7,1.4,1,2.1c0.8,1.5,3.3,0.5,2.7-1.2
				c-0.1-0.4-0.2-0.7-0.4-1.1c-0.6-1.8-3.4-1.1-2.9,0.8c0.2,0.7,0.4,1.4,0.6,2.1c0.9-0.4,1.8-0.8,2.7-1.2c-0.1-0.1-0.1-0.3-0.2-0.4
				c-0.8-1.5-3.3-0.5-2.7,1.2c0.1,0.4,0.3,0.7,0.4,1.1c0.7,1.8,3.4,1.1,2.9-0.8c0-0.2-0.1-0.4-0.1-0.6c-0.9,0.4-1.8,0.8-2.7,1.2
				c0.1,0.2,0.3,0.4,0.4,0.6c0.8,1.3,2.8,0.8,2.8-0.8c0-0.2,0-0.5,0-0.7c-0.9,0.3-1.9,0.5-2.8,0.8c0.1,0.4,0.3,0.9,0.4,1.3
				c0.4,1.6,3.2,1.3,2.9-0.4c0-0.4-0.1-0.7-0.1-1.1c-1,0.1-2,0.3-2.9,0.4c0.2,0.6,0.4,1.2,0.6,1.8c0.9-0.4,1.8-0.8,2.7-1.2
				c-0.2-0.3-0.3-0.6-0.5-0.9c-0.9-1.6-3-0.4-2.7,1.2c0.1,0.9,0.2,1.8,0.2,2.7c1-0.1,2-0.3,2.9-0.4c-0.3-1.4-0.5-2.7-0.5-4.1
				c-1,0.1-2,0.3-2.9,0.4c0.1,0.5,0.3,1.1,0.4,1.6c0.9-0.4,1.8-0.8,2.7-1.2c-0.9-1.6-1.8-3.2-2.5-4.8c-0.9,0.5-1.7,1-2.6,1.5
				c0.2,0.3,0.3,0.6,0.5,0.8c0.9-0.5,1.7-1,2.6-1.5c-0.6-0.8-1.2-1.6-1.8-2.5c-0.7,0.7-1.4,1.4-2.1,2.1c0.5,0.3,0.9,0.7,1.4,1
				c1.2,0.9,2.9-0.9,2.1-2.1c-0.7-1-1.4-1.8-2.2-2.7c-0.6,0.8-1.2,1.6-1.8,2.4c0.7,0.5,1.4,1,2,1.6c0.7-0.7,1.4-1.4,2.1-2.1
				c-0.9-0.7-1.7-1.4-2.5-2.3c-0.6,0.8-1.2,1.6-1.8,2.4c1,0.5,1.8,1.1,2.5,1.9c0.7-0.7,1.4-1.4,2.1-2.1c-0.9-0.9-1.7-1.8-2.6-2.7
				c-0.6,0.8-1.2,1.6-1.8,2.4c0.6,0.3,1.2,0.7,1.8,1c1.7,1,3.1-1.5,1.5-2.6c-0.7-0.4-1.3-0.9-1.8-1.5c-0.6,0.8-1.2,1.6-1.8,2.4
				c0.7,0.4,1.4,0.9,2.1,1.3c0.5-0.9,1-1.7,1.5-2.6c-1-0.6-1.8-1.2-2.5-2c-0.6,0.8-1.2,1.6-1.8,2.4c0.6,0.2,1.1,0.6,1.6,1
				c1.3,1,3.1-1.2,1.8-2.4c-0.6-0.5-1.1-1-1.7-1.5c-0.6,0.8-1.2,1.6-1.8,2.4c0.6,0.4,1.2,0.9,1.7,1.4c0.7-0.7,1.4-1.4,2.1-2.1
				c-0.6-0.6-1.1-1.1-1.7-1.7c-0.6,0.8-1.2,1.6-1.8,2.4c0.4,0.3,0.9,0.6,1.3,0.9c1.4,0.9,3-1.2,1.8-2.4c-0.4-0.5-0.9-0.9-1.4-1.3
				c-0.6,0.8-1.2,1.6-1.8,2.4c0.3,0.2,0.5,0.3,0.8,0.5c1.5,0.9,2.9-1.1,1.8-2.4c-0.8-0.9-1.3-1.7-1.8-2.8c-0.8-1.8-3.4-0.2-2.6,1.5
				c0.6,1.3,1.3,2.4,2.2,3.4c0.6-0.8,1.2-1.6,1.8-2.4c-0.3-0.2-0.5-0.3-0.8-0.5c-1.4-0.9-3.2,1.2-1.8,2.4c0.5,0.4,1,0.8,1.4,1.3
				c0.6-0.8,1.2-1.6,1.8-2.4c-0.4-0.3-0.9-0.6-1.3-0.9c-1.4-0.9-3,1.2-1.8,2.4c0.6,0.6,1.1,1.1,1.7,1.7c1.4,1.4,3.5-0.8,2.1-2.1
				c-0.7-0.7-1.4-1.3-2.3-1.9c-1.4-1-3.1,1.2-1.8,2.4c0.6,0.5,1.1,1,1.7,1.5c0.6-0.8,1.2-1.6,1.8-2.4c-0.5-0.4-1-0.8-1.6-1
				c-1.5-0.8-3,1.1-1.8,2.4c0.9,1,1.9,1.8,3.1,2.5c1.7,1,3.1-1.6,1.5-2.6c-0.7-0.4-1.4-0.9-2.1-1.3c-1.4-0.9-3.1,1.2-1.8,2.4
				c0.8,0.7,1.6,1.3,2.4,1.9c0.5-0.9,1-1.7,1.5-2.6c-0.6-0.3-1.2-0.7-1.8-1c-1.5-0.9-3,1.1-1.8,2.4c0.9,0.9,1.7,1.8,2.6,2.7
				c1.3,1.4,3.4-0.7,2.1-2.1c-0.9-1.1-1.9-1.8-3.1-2.4c-1.5-0.7-3.1,1.1-1.8,2.4c0.8,0.8,1.6,1.6,2.5,2.3c1.5,1.2,3.6-0.7,2.1-2.1
				c-0.8-0.8-1.7-1.5-2.6-2.1c-1.4-1-3,1.2-1.8,2.4c0.7,0.6,1.2,1.3,1.7,2c0.7-0.7,1.4-1.4,2.1-2.1c-0.5-0.3-0.9-0.7-1.4-1
				c-1.2-0.9-2.9,0.9-2.1,2.1c0.6,0.8,1.2,1.6,1.8,2.5c1.1,1.5,3.6,0.2,2.6-1.5c-0.2-0.3-0.3-0.6-0.5-0.8c-1-1.7-3.4-0.2-2.6,1.5
				c0.8,1.7,1.6,3.3,2.5,4.8c0.9,1.5,3.2,0.5,2.7-1.2c-0.1-0.5-0.3-1.1-0.4-1.6c-0.4-1.6-3-1.3-2.9,0.4c0.1,1.7,0.3,3.3,0.6,4.9
				c0.4,1.7,3,1.3,2.9-0.4c0-1.2-0.1-2.3-0.3-3.5c-0.9,0.4-1.8,0.8-2.7,1.2c0.2,0.3,0.3,0.6,0.5,0.9c0.8,1.5,3.3,0.5,2.7-1.2
				c-0.2-0.6-0.4-1.2-0.6-1.8c-0.5-1.5-3.2-1.4-2.9,0.4c0,0.4,0.1,0.7,0.1,1.1c1-0.1,2-0.3,2.9-0.4c-0.2-0.9-0.3-1.2-0.7-2
				c-0.6-1.4-2.8-0.6-2.8,0.8c0,0.2,0,0.5,0,0.7c0.9-0.3,1.9-0.5,2.8-0.8c-0.1-0.2-0.3-0.4-0.4-0.6c-0.9-1.4-3.2-0.5-2.7,1.2
				c0,0.2,0.1,0.4,0.1,0.6c1-0.3,1.9-0.5,2.9-0.8c-0.1-0.4-0.3-0.7-0.4-1.1c-0.9,0.4-1.8,0.8-2.7,1.2c0.1,0.1,0.1,0.3,0.2,0.4
				c0.8,1.5,3.2,0.5,2.7-1.2c-0.2-0.7-0.4-1.4-0.6-2.1c-1,0.3-1.9,0.5-2.9,0.8c0.1,0.4,0.2,0.7,0.4,1.1c0.9-0.4,1.8-0.8,2.7-1.2
				c-0.3-0.7-0.7-1.4-1-2.1c-0.8-1.5-3.2-0.5-2.7,1.2c0.1,0.6,0.2,1.2,0.4,1.8c0.9-0.3,1.9-0.5,2.8-0.8c-0.7-1.1-1.4-2.2-2.1-3.3
				c-1-1.4-3.1-0.6-2.7,1.2c0.2,0.9,0.4,1.3,0.8,2.1C125,51.2,127.6,49.7,126.8,47.9L126.8,47.9z"/>
		</g>
	</g>
	<g>
		<g>
			<path class="st0" d="M127.9,46.6c-0.1-0.1-0.1-0.3-0.2-0.5c-0.8,0.5-1.7,1-2.5,1.5c0.5,0.5,1,1,1.2,1.7c0.3,0.8,1,1.3,1.8,1
				c0.8-0.2,1.2-1,1-1.8c-0.1-0.7-0.3-1.4-0.4-2.1c-0.8,0.5-1.7,1-2.5,1.5c0.4,0.3,0.7,0.7,0.7,1.1c0.9-0.4,1.7-0.7,2.6-1.1
				c-0.2-0.2-0.3-0.3-0.3-0.7c-0.9,0.4-1.8,0.8-2.7,1.2c0.3,0.5,0.5,1.1,0.7,1.7c0.5,1.9,3.4,1.1,2.9-0.8c-0.2-0.8-0.6-1.6-1-2.4
				c-0.3-0.7-1.2-0.9-1.9-0.6c-0.7,0.3-1,1-0.9,1.8c0.1,0.8,0.5,1.5,1.1,2c0.9,0.8,2.7,0.3,2.6-1.1c-0.1-1.3-0.6-2.4-1.6-3.3
				c-1.2-1-2.8-0.1-2.5,1.5c0.1,0.7,0.3,1.4,0.4,2.1c1-0.3,1.9-0.5,2.9-0.8c-0.5-1.2-1.1-2.2-2-3c-1.1-1-2.8,0-2.5,1.5
				c0.1,0.7,0.5,1.3,0.9,1.8c0.5,0.6,1.6,0.5,2.1,0C128.5,48.1,128.4,47.2,127.9,46.6L127.9,46.6z"/>
		</g>
	</g>
	<g>
		<g>
			<path class="st0" d="M129.1,51.4c0.1-0.1,0.3-0.5,0.4-0.6c-0.8-0.1-1.6-0.2-2.4-0.3c0.4,0.7,0.8,1.3,1.2,2
				c0.4,0.7,1.3,0.9,2.1,0.5c0.7-0.4,1-1.4,0.5-2.1c-0.4-0.7-0.8-1.3-1.2-2c-0.5-0.8-1.7-1-2.4-0.3c-0.5,0.6-0.9,1.2-1.2,2
				c-0.3,0.7,0.3,1.7,1,1.8C128.1,52.6,128.8,52.2,129.1,51.4L129.1,51.4z"/>
		</g>
	</g>
	<g>
		<g>
			<path class="st0" d="M127.4,52.8c-0.1,0.2-0.1,0.4-0.2,0.7c-0.2,0.8,0.2,1.7,1,1.8c0.8,0.2,1.6-0.2,1.8-1
				c0.1-0.2,0.1-0.4,0.2-0.7c0.2-0.8-0.2-1.7-1-1.8C128.4,51.5,127.6,52,127.4,52.8L127.4,52.8z"/>
		</g>
	</g>
	<g>
		<g>
			<path class="st1" d="M77.8,53.7c0-2,0.4-4.5,1.5-6.1c1.1-1.5,2.5-2.9,3.8-4.3c0.5-0.6-0.3-1.4-0.8-0.8c-1.5,1.6-3.4,3.3-4.4,5.2
				c-0.9,1.8-1.2,4.1-1.3,6C76.6,54.4,77.8,54.4,77.8,53.7L77.8,53.7z"/>
		</g>
	</g>
	<g>
		<g>
			<g>
				<path class="st1" d="M82.4,39.5c0.2-1.9,4.4-3.5,5.9-4.3c2.1-1,4.3-1.9,6.6-2.6c0.7-0.2,0.4-1.4-0.3-1.2c-3.1,1-6.1,2.2-8.9,3.8
					c-1.8,1-4.3,2-4.5,4.2C81.2,40.3,82.4,40.3,82.4,39.5L82.4,39.5z"/>
			</g>
		</g>
		<g>
			<g>
				<path class="st1" d="M102.4,35.7c-1.1,0.5-1.1,2-0.4,2.7c0.4,0.5,1.1,0.7,1.7,0.9c0.7,0.2,1.8,0.2,2.3,0.9c0.5,0.6,1.5,0,1-0.6
					c-0.6-0.8-1.5-1.1-2.4-1.3c-0.5-0.1-1.1-0.2-1.5-0.4c-0.4-0.3-0.7-0.9-0.1-1.1C103.7,36.4,103.1,35.4,102.4,35.7L102.4,35.7z"/>
			</g>
		</g>
		<g>
			<g>
				<path class="st1" d="M116.1,36.4c2.7-1.5,4.6,2.5,6.1,4c0.5,0.6,1.4-0.3,0.8-0.8c-2-2-4.2-6.1-7.6-4.2
					C114.9,35.8,115.5,36.8,116.1,36.4L116.1,36.4z"/>
			</g>
		</g>
		<g>
			<g>
				<path class="st1" d="M120.9,47.6c1.3,1.9,2.5,3.9,3.5,5.9c1.4,2.9,1.2,6.2,1.5,9.3c0.1,0.8,1.3,0.8,1.2,0
					c-0.2-2.8-0.1-6.1-1.1-8.8c-1-2.5-2.5-4.9-4.1-7C121.4,46.4,120.4,47,120.9,47.6L120.9,47.6z"/>
			</g>
		</g>
	</g>
</g>
</svg>
