<?xml version="1.0" encoding="utf-8"?>
<!-- Generator: Adobe Illustrator 22.1.0, SVG Export Plug-In . SVG Version: 6.00 Build 0)  -->
<svg version="1.1" id="Layer_1" xmlns="http://www.w3.org/2000/svg" xmlns:xlink="http://www.w3.org/1999/xlink" x="0px" y="0px"
	 viewBox="0 0 200 600" style="enable-background:new 0 0 200 600;" xml:space="preserve">
<style type="text/css">
	.st0{fill:#BED731;}
	.st1{fill:none;stroke:#BED731;stroke-miterlimit:10;}
	.st2{fill:#A7BE2B;}
</style>
<g>
	<g>
		<g>
			<g>
				<path class="st0" d="M105.6,142.1c-2.2,1.7-4.4,3.3-6.6,5c1.2-2.9,2.4-5.8,3.6-8.7c1.2,0.3,2.3,0.6,3.5,0.9
					c0.5,1.9,1,3.9,1.5,5.8c0.1-0.3,0.1-0.6,0.2-0.8c-1.4,1.4-2.8,2.8-4.2,4.2c0.2-0.1,0.5-0.2,0.7-0.2c-1.5-0.2-3.1-0.4-4.6-0.6
					c-0.4-0.3-0.7-0.7-1.1-1c-0.2-1.5-0.4-3.1-0.6-4.6c0.7-0.6,0.6-0.6-0.2,0.1c-0.5,0.6-1.2,0.9-2,1c1.4,0.6,2.8,1.2,4.2,1.7
					c1.6,2.5,1.5,3.8-0.1,3.8c-1.7-1-3.4-2-5.1-2.9c0.1,0.3,0.3,0.6,0.4,0.9c-0.2-1.5-0.4-3.1-0.6-4.6c0.3-0.8-0.1-0.7-1.1,0.5
					c-2.5,0.4-4.3,1.9-5.3,4.7c-0.6-1.4-1.2-2.8-1.7-4.2c0.9-1.4,0.7-1.4-0.5,0c-1.8,1.3-2.7,3.3-2.6,5.9c-1.4-1.4-2.8-2.8-4.2-4.2
					c-0.9-2.4,0.2-0.6-1.3,0.3c-1,0.5-3.2,0.2-4.5,0.8c-3,1.3-5.9,3.7-8.5,5.6c-5.1,3.7-7.2,9.8-3.8,15.6c1,1.6,3.1,3.2,5.1,2.9
					c4.5-0.5,5.5-3.1,8.9-5.3c1.2-0.7,12-2.3,12.1-1.7c1.4-2.4,2.8-4.9,4.2-7.3c-1,0.4-1.9,0.4-2.9,0c0.6,1.4,1.2,2.8,1.7,4.2
					c0-0.3,0-0.6,0-0.9c-1,1.7-2,3.4-2.9,5.1c3-1.4,8.1-1.4,11.4-2c4-0.7,7.9-1.5,11.9-2.2c5.7-1.1,5.7-10.4,0-11.5
					c-10-1.9-21-0.6-31.2-0.5c-5.1,0-10.2-0.1-15.3,0.1c-5.3,0.3-6.8,2.2-9.3,6.5c1.2-0.9,2.4-1.8,3.6-2.7c-0.4,0.1-0.7,0.3-1.1,0.4
					c2.4,1.4,4.9,2.8,7.3,4.2c-1.3-3.8,1-9.7,1.7-13.6c0.7-4.2,0.9-8.3,1.3-12.5c0.4-3.8,2-8.1,5.2-10.6c3.3-2.5,7.2,0.3,10.8,1.4
					c8.1,2.4,16.8,3.7,25.2,2.7c3.7-0.4,7.5-1,10.8-2.7c1.2-0.6,2.7-1.4,3.7-2.4c1.5-1.1,1.4-1.3-0.3-0.5c1.1,0.3,2.1,0.6,3.2,0.9
					c4.9,1.4,5.6,1.4,5.4,6.6c-0.2,4.4-0.3,8.8-0.1,13.2c0.1,1.2,0.6,4.4,0.1,5.1c-0.7,0.9-4.4,1.3-5.4,1.6
					c-4.2,1.2-8.4,2.6-12.6,3.6c-4.5,1.1-8.4,1.3-12.5-1.1c-3.3-1.9-6.1-4.3-9.6-5.8c-3.7-1.6-7.6-2.2-11.7-2.5
					c-2.4-0.2-4.7-0.1-7.1-0.2c-1.2,0-2.4,0-3.5-0.1c-1.7-0.3-1.7,0,0,0.8c0.2,1.5,0.4,3.1,0.6,4.6c0.4-2.9,4-6.2,5.5-8.7
					c1.5-2.4,2.4-7.1,4.4-9c1.4-1.4,6.6,0.2,9.1,0.6c3.5,0.6,7,1.1,10.5,1.3c7.9,0.4,15.9,0.1,23.8,0c6,0,14.8-1.5,12.1-9.9
					c-1.7-5.3-10.1-6-11.5,0c-1.4,6.1-1,12.4-2.1,18.5c-0.2,1.2-0.9,5.6-2.2,6.1c-1.7,0.7-6.8-2.3-8.4-3c-6-2.4-11.9-2-18.2-2.5
					c-3.1-0.2-6.1-0.8-9.1-1.7c-1.4-0.4-2.9-0.8-4.2-1.4c-0.6-0.3-2.2-2-1.9-1c-0.2,1.5-0.4,3.1-0.6,4.6c5.5-7.5,16.4-4.8,23.8-3.3
					c3.9,0.8,8,1.5,12,1.5c3.6-0.1,9.1-0.7,10.8,1.6c0-2,0-4,0-6c-3.9,6.7-11.8-0.8-16.5-2.3c-6.4-2-13.2-0.8-19.7-2.5
					c-3.1-0.8-5.6-1.6-8.3,0.8c-2.4,2.1-2.9,5.3-2,8.3c1.9,6.7,8.4,10,14.8,11.1c7.3,1.2,14.5,2,21.6,4.1c3.5,1,6.6,1.9,8.9,4.8
					c2.4,2.9,4.3,6.4,6.3,9.5c3.4,5.1,7.3,9.1,13.8,6.1c6.6-3.1,7.7-10.2,5.1-16.4c-1.3-3-5.6-3.6-8.1-2.1c-3.1,1.8-3.4,5.2-2.1,8.1
					c-0.2-0.2-0.3-0.3-0.5-0.5c1.4,0.6,2.8,1.2,4.2,1.7c-3.6-2.8-6-9.2-8.8-13c-3.1-4.2-6.9-6.6-11.7-8.4
					c-5.3-1.9-10.9-3.2-16.5-4.1c-2.3-0.4-15.6-0.8-15.4-4.2c-0.6,1.4-1.2,2.8-1.7,4.2c0.2-0.2,0.4-0.5,0.7-0.7
					c-1.9,0.5-3.9,1-5.8,1.5c4.7,0.9,9,1.9,13.9,2.2c5.6,0.3,9.4,1.6,14.3,4.2c8.4,4.3,18.8,2.3,23.9-6.3c1-1.7,1.2-4.3,0-6
					c-4.7-6.4-12-8.1-19.4-7.6c-8.3,0.5-16.1-2.8-24.3-3.1c-7.5-0.3-13.8,2.1-19.6,6.8c-2.8,2.3-5.3,4.8-4.5,8.7
					c0.6,3.2,3.5,5.8,6.1,7.4c6.2,3.8,14.3,5,21.4,5.4c4,0.2,8-0.1,11.8,1.2c3.6,1.1,6.9,3.1,10.7,3.9c19,3.8,16.4-21.7,19-32.9
					c-3.8,0-7.7,0-11.5,0c0.1,0.3,0.2,0.6,0.3,1c0.2-1.5,0.4-3.1,0.6-4.6c-0.2,0.3-0.4,0.6-0.6,0.9c1.2-0.9,2.4-1.8,3.6-2.7
					c-2.4,0.9-5.9,0.3-8.5,0.3c-3.3,0-6.7,0-10,0c-7,0-13.7-0.4-20.7-1.5c-4.7-0.8-10.5-2.5-14.8,0.4c-4.5,3.1-5.7,8.8-8.2,13.3
					c-2.4,4.2-7.5,8.7-7.4,13.9c0.1,6.1,6.1,7.8,11,8.1c5.7,0.3,12-0.6,17.5,1.7c5.4,2.2,9.2,6.7,15,8.2c5.6,1.4,11.3,0.4,16.8-1.1
					c6.1-1.7,13.2-2.9,18.9-5.7c4.9-2.4,6.3-6.6,6.1-11.8c-0.2-6.4-0.1-12.8-0.1-19.2c0-4.8-1.2-9.5-5.2-12.4
					c-3.6-2.6-11.2-5.2-15.8-4.9c-2.8,0.2-4.5,1.5-6.6,3.1s-4.2,2.2-6.9,2.6c-6.5,0.9-13.2,0.1-19.6-1.5c-6.1-1.6-12.1-5.3-18.6-3.2
					c-5.5,1.8-10,7.1-12.4,12.3c-2.9,6.2-2.5,12.6-3.5,19.2c-1,6.5-4,14.4-1.8,20.9c1,2.9,4.1,5.3,7.3,4.2c2-0.7,3.4-1.3,4.6-3.1
					c0.5-0.8,1-1.6,1.3-2.5c-0.4,0.7-0.8,1.3-1.3,2c0.1,0.5,13.1-0.1,14.4-0.1c4.5,0,8.9-0.1,13.4-0.1c4.7,0,9.9-0.7,14.6,0.2
					c0-3.8,0-7.7,0-11.5c-4.6,0.9-9.2,1.7-13.8,2.6c-4.1,0.8-8.6,1.1-12.4,2.9c-1.8,0.8-3,3.2-2.9,5.1c0.2,8.2,9.8,9.8,16.2,8.2
					c3.3-0.8,4.8-4.2,4.2-7.3c-1.5-7.6-10.1-8.8-16.5-8.4c-3.4,0.2-7,0.5-10.3,1.7c-1.5,0.6-2.8,1.3-4.1,2.2
					c-0.8,0.6-4.8,3.1-1.6,2.7c1.7,1,3.4,2,5.1,2.9c-0.2-0.8-0.2-0.7,0.1,0.3c0.9-0.6,1.8-1.2,2.7-1.8c1.1-0.8,2.7-2.2,4-2.7
					c0.1,0,3-0.2,4-0.6c1.4-0.5,2.6-1.3,3.8-2.3c4.8-4.2,8.8-13.1,0.7-16.4c-6.5-2.6-12.5,3.6-11.3,10.1c1.3,7,9.7,9.4,15.5,6.5
					c5.5-2.8,11-10.1,5.6-15.7c-4.9-5.2-12.7-0.9-13.7,5.3c-2.8,17.5,29.9,11.3,22.6-4c-0.8-1.7-3.3-3.2-5.1-2.9
					c-5.2,0.7-10.5,3.7-11.1,9.5c-0.5,5.4,4,9.5,9.3,8.8c4.6-0.6,10.5-5.1,11.3-9.8c0.9-5.2-3.9-9.9-9.1-8.2
					c-1.9,0.6-3.7,2.1-4.2,4.2c-1.2,5.9,3.5,10.7,9.5,8.8c4-1.3,5.2-5.2,3.6-8.7c-2.1-4.7-8.9-5.4-12.4-1.9
					c-4.1,4.2-1.9,10.5,2.7,13.2C106.2,156.2,112.2,146,105.6,142.1L105.6,142.1z"/>
			</g>
		</g>
		<g>
			<g>
				<path class="st0" d="M146.6,153.6c-0.8-2.1-1.2-4-1.2-6.2c-3.9,0.5-7.8,1.1-11.7,1.6c0.4,3.1,0.5,6.3,0.4,9.5
					c-0.1,5.9,8.2,8.2,11.1,3c2.6-4.8,2.4-9.5,1.8-14.8c-0.7-6.1-1.5-12.2-2.2-18.2c-0.5-4.5-4.6-7.4-9-5.1
					c-4.3,2.2-8.6,4.8-11.4,8.9c-3,4.5-3.8,9.9-5.5,14.9c-3.2,9.1-11.5,21.9-6.3,31.5c2.1,3.8,8.2,3.9,10.3,0
					c2.4-4.5,4.5-9.2,6.4-13.9c-3.9-0.5-7.8-1.1-11.7-1.6c-0.6,13.4-6.8,27.2-3.3,40.5c1.3,5,8.3,5.7,10.9,1.4c2-3.3,1.5-6,0.8-9.5
					c-0.7-3.3-0.4-6.8-1.3-10.1s-2.9-6.3-5.2-8.8c-1-1.1-2.1-2.1-3.3-3.1c-0.9-0.7-3.2-2-3.6-3c-1.1-2.3,0.1-5.1-1.7-7.6
					c-1.8-2.6-4.6-3.5-7.7-3.6c-8.5-0.2-17.3,1.2-25.7,1.7c-3,0.2-6.3,2.6-6,6c0.6,6.2,1.2,12.5,1.8,18.7c0.5,5,2.3,11.7,0.8,16.6
					c-1.4,4.7,3.1,8.1,7.3,7.3c9.9-1.7,29.3-1.7,26.3-16.9c-1.1-5.4-5.3-10.3-9.5-13.7c-1.2-1-2.2-1.7-3.6-2.3
					c-0.6-0.3-1.3-0.4-2-0.5c-1.8-0.4-1.2,0.2,1.8,1.8c0.9-0.6-2.7-5.3-3.2-5.7c-4.8-4-10.9-0.1-9.9,5.8c0.9,6,0.3,18.3,7.1,21.1
					c3.7,1.5,5.9-0.8,9.3-1.1c3.8-0.4,7.8,1.6,10.9,3.6c5.5,3.6,10.3-3.2,8.1-8.1c-1.8-4.2-3.9-8.2-6.4-12c-1.2-1.8-2.5-3.6-3.9-5.4
					c-0.7-0.9-3.3-5.1-4.4-5.2c-2.5,4.8-2.5,6.3,0,4.5c0.9-0.5,1.7-0.9,2.6-1.3c1.7-0.9,3.6-1.6,5.3-2.5c3.5-1.9,6.2-4.3,8.6-7.5
					c-3.7-1-7.4-2-11.1-3c0.7,7.4,2.7,15.8-0.3,22.9c-2.5,6.1-7.3,12.3-14.4,12.8c-6.7,0.5-8.1,9.4-1.6,11.7c4.3,1.5,8,0.2,12.3-0.3
					c4.4-0.6,9,0.1,13.4,0.6c3.2,0.4,5.9-3,6-6c0-3.6-2.8-5.5-6-6c-3.8-0.5-7.7-1-11.5-0.8c-3.3,0.2-7.9,2-11,0.9
					c-0.5,3.9-1.1,7.8-1.6,11.7c10.3-0.8,18.3-6.9,23.3-15.9c5.7-10.3,4.4-20.4,3.3-31.8c-0.6-6.1-7.5-7.8-11.1-3
					c-4.5,6-19,5.9-17.5,16c0.7,4.5,5.4,7.9,7.9,11.4c3.1,4.4,5.7,9.1,7.8,14.1c2.7-2.7,5.4-5.4,8.1-8.1c-3.7-2.4-7.9-4.1-12.3-4.8
					c-2-0.3-3.9-0.5-5.9-0.3c-1.7,0.1-4.1,1.7-5.7,1.5c1.4,0.6,2.8,1.2,4.2,1.7c-0.6-0.5-0.8-5.7-0.9-6.5c-0.4-2.7-0.8-5.4-1.2-8.1
					c-3.3,1.9-6.6,3.9-9.9,5.8c-0.6-0.5,0.7,2.2,1,2.8c0.5,0.9,1,1.8,1.8,2.5c1.7,1.5,3.1,1.2,4.9,2c1.2,0.6,2.2,1.9,3,2.9
					c0.6,0.7,3,3.1,2.6,4.2c0.1-0.1-3.5,0.4-4,0.5c-4.6,0.8-9.2,1.6-13.8,2.4c2.4,2.4,4.9,4.9,7.3,7.3c1.8-5.7,0.4-12-0.2-17.8
					c-0.7-6.9-1.4-13.8-2-20.7c-2,2-4,4-6,6c6.4-0.4,12.9-0.9,19.3-1.3c1.2-0.1,2.7,0.1,3.9-0.3c2.2,0.3,2.5-0.1,0.9-1.2
					c-0.8-1.3-1.2-1.5-1.1-0.4c-1.1,1.3,1,5.6,1.6,6.6c2.5,4,7.2,5.9,9.9,9.8c1.7,2.5,1.4,4.9,1.7,7.8c0.1,1.1,0.3,2.3,0.5,3.4
					c0.2,0.7,0.4,1.3,0.5,2c0.2,1,0.3,0.9,0.2-0.3c3.6,0.5,7.3,0.9,10.9,1.4c-1.6-6.2,0.2-12.3,1.4-18.4c1.2-6.2,2.1-12.5,2.4-18.9
					c0.3-7.3-9.3-7.3-11.7-1.6c-1.6,3.8-3.4,7.4-5.2,11c3.4,0,6.9,0,10.3,0c-1.1-2,2.1-8.4,2.9-10.6c1.5-3.9,3.2-7.8,4.6-11.7
					c1.2-3.4,1.7-7.7,3.5-10.8c1.8-2.9,5-4.4,8-5.9c-3-1.7-6-3.4-9-5.1c0.6,4.9,1.2,9.7,1.8,14.6c0.4,3.6,2.1,9.1,0.3,12.4
					c3.7,1,7.4,2,11.1,3c0.1-4.3-0.3-8.4-0.9-12.7c-0.9-6.8-11.7-4.9-11.7,1.6c0,3.2,0.5,6.3,1.6,9.4
					C137.8,163.9,149.3,160.8,146.6,153.6L146.6,153.6z"/>
			</g>
		</g>
		<g>
			<g>
				<path class="st0" d="M75.7,168.1c-0.6-0.9-1.4-1.7-2.2-2.5c-1.2-1.2-3.1,0.3-2.3,1.8c0.3,0.6,0.6,1.1,0.9,1.7
					c0.6-0.7,1.1-1.5,1.7-2.2c-0.3-0.2-0.7-0.4-1-0.6c-1.3-1.1-3.1,0.2-2.3,1.8c1.1,2.2,1.5,4.2,1.4,6.6c1-0.1,1.9-0.3,2.9-0.4
					c0-0.8-0.1-1.7-0.1-2.5c-1,0-2,0-3,0c0.2,8.7,0.9,17.3,2.2,25.8c1-0.3,1.9-0.5,2.9-0.8c-0.4-2.5-0.8-5.1-1.2-7.6
					c-0.3-1.6-3.1-1.3-2.9,0.4c0.9,6.6,1,13.3,1.1,19.9c0,1.1,0.9,1.6,1.9,1.4c8.2-1.3,16.4-1.3,24.7-1.5c4.1-0.1,8.2-0.2,12.3-0.2
					c1.8,0,3.6-0.1,5.3,0.1c2,0.1,3.9,0.9,5.9,0.8c0.6,0,1.3-0.4,1.4-1.1c0.3-1.7-0.1-3.5-0.2-5.2c-1,0.1-1.9,0.3-2.9,0.4
					c0,0.2,0,0.5-0.1,0.7c1,0.3,1.9,0.5,2.9,0.8c0.9-4,0.5-8.1,0.8-12.2c0.1-1.7-0.2-3.4-0.1-5.2c0.1-3.4,1.4-6.5,2.7-9.6
					c-0.9-0.3-1.8-0.5-2.8-0.8c0.1,6.1-2.9,11.6-3.5,17.7c-0.2,1.9,2.8,1.9,3,0c0.6-6.1,3.6-11.5,3.5-17.7c0-1.4-2.2-2.2-2.8-0.8
					c-1.8,4.1-3.3,8.1-3.1,12.6c0.2,4.6,0.4,10.6-0.6,15c-0.4,1.9,2.2,2.6,2.9,0.8c0.4-1,0.3-1.3,0.1-2.3c-0.4-1.6-3.1-1.3-2.9,0.4
					c0.1,1.2,0.5,3.2,0.3,4.4c0.5-0.4,1-0.7,1.4-1.1c-1.8,0-4.1-0.7-5.9-0.8c-2.4-0.1-4.8-0.1-7.1-0.1c-4.1,0-8.1,0.1-12.2,0.2
					c-8,0.2-15.9,0.3-23.8,1.5c0.6,0.5,1.3,1,1.9,1.4c-0.1-6.7-0.3-13.3-1.1-19.9c-1,0.1-1.9,0.3-2.9,0.4c0.4,2.5,0.8,5.1,1.2,7.6
					c0.3,1.9,3.2,1.1,2.9-0.8c-1.3-8.3-1.9-16.6-2.1-25c0-1.9-2.9-1.9-3,0c-0.1,1.5,0,1.8,0.2,3.3c0.3,1.7,2.8,1.2,2.9-0.4
					c0.2-3-0.4-5.4-1.8-8.1c-0.8,0.6-1.6,1.2-2.3,1.8c0.8,0.7,1.3,1,2.3,1.4c1.3,0.5,2.2-1.2,1.7-2.2c-0.3-0.6-0.6-1.1-0.9-1.7
					c-0.8,0.6-1.6,1.2-2.3,1.8c0.8,0.7,1.5,1.6,2.2,2.5C74.8,171.7,76.9,169.6,75.7,168.1L75.7,168.1z"/>
			</g>
		</g>
		<g>
			<g>
				<path class="st0" d="M67.9,172.8c0.6-0.8,1.2-1.7,1.8-2.5c-0.9-0.4-1.8-0.8-2.7-1.1c-0.2,0.5-0.4,1-0.5,1.5
					c-0.8,1.7,1.5,3.2,2.6,1.5c0.6-1,0.7-1.1,1-2.3c0.4-1.6-1.9-2.7-2.7-1.1c-1.1,2.1-1.8,4.1-2.3,6.4c-0.3,1.5,2,2.8,2.7,1.1
					c0.2-0.4,0.4-0.8,0.5-1.2c-0.9-0.4-1.8-0.8-2.7-1.1c-0.4,1.4,0.5,0.4-0.5,0c-1.2-0.5-2.2-1.3-3.4-1.8c-2-0.8-4.2-0.9-6.1-1.7
					c-1.3-0.5-1.8-0.7-2-2.5c-0.1-1.1,0.5-2.7,0.7-3.8c0.4-3.1,0.6-6.2,0.6-9.4c0-1.7-2.5-2.1-2.9-0.4c-0.7,3.1-2.6,8.7-0.7,11.7
					c0.6,1,1.2,1.3,2.3,1.8c0.4,0.2,1.2-0.2,1.5,0c1.3,0.8,3.1,3.8,3.6,5.4c0.8-0.5,1.7-1,2.5-1.4c-0.1,0.4-0.2,0.7-0.3,1.1
					c0.7-0.3,1.5-0.6,2.2-0.9c-2.2-3-3-3.6-2.3-1.8c1,1.1,1.7,2.3,2.3,3.6c0.8-0.6,1.6-1.2,2.3-1.8c-1.5-1.5-2.6-3-3.4-5.1
					c-0.8,0.5-1.7,1-2.5,1.4c1.7,2,2.7,3.7,3.5,6.2c0.5,1.5,3.1,1.4,2.9-0.4c-0.2-1.3-0.3-2.7-0.2-4c-0.5,0.4-1,0.7-1.4,1.1
					c0,0.3,0,0.6,0,0.9c1-0.1,1.9-0.3,2.9-0.4c-0.3-1.6-0.5-1.6-1.7-2.8c-2.3-2.1-4.3-3.6-6.1-6.2c-0.7,0.7-1.4,1.4-2,2
					c1,0.6,1.8,1.4,2.5,2.3c0.5-0.8,1-1.7,1.4-2.5c-2.3-0.1-4-1.4-5.1-3.7c-0.7-1.6-3.1-0.4-2.7,1.1c0.2,1,0.5,1.3,1.3,1.9
					c0.8,0.6,2,0,2.2-0.9c1.1-5.2,0.6-9.9-1.5-14.8c-0.4-0.8-1.8-1-2.3-0.3c0.6-0.5,1.2-1,1.8-1.5c0.2-1.5,0.4-2.9,0.6-4.4
					c0.3-1.5,0.6-3.1,0.8-4.6c0.5-2.9,1.1-5.7,1.6-8.6c0.3-1.5-2-2.8-2.7-1.1c-0.8,1.7-1.4,3.4-1.8,5.2c1,0.3,1.9,0.5,2.9,0.8
					c0.7-3.4,1.5-6.9,2.3-10.3c0.4-1.7-1.8-2.5-2.7-1.1c-1.7,2.5-2.4,4.8-2.5,7.8c-0.1,1.6,2.7,2.1,2.9,0.4
					c0.6-4.2,1.6-8.1,3.3-12.1c0.7-1.7-1.8-2.4-2.7-1.1s-1.4,2.4-1.8,3.8c-0.6,1.9,2.2,2.5,2.9,0.8c0.5-1.3,0.8-2.3,1.1-3.7
					c0.3-1.5-1.9-2.8-2.7-1.1c-1.4,3-1.3,5.7-0.7,9c0.3,1.9,3.2,1.1,2.9-0.8c-0.6-2.3-0.5-4.5,0.4-6.7c-0.9-0.4-1.8-0.8-2.7-1.1
					c-0.2,1.3-0.6,2.4-1.1,3.7c1,0.3,1.9,0.5,2.9,0.8c0.3-1.2,0.8-2.2,1.5-3.1c-0.9-0.4-1.8-0.8-2.7-1.1c-1.6,3.9-2.7,7.9-3.3,12.1
					c1,0.1,1.9,0.3,2.9,0.4c0.1-2.4,0.8-4.3,2.1-6.3c-0.9-0.4-1.8-0.8-2.7-1.1c-0.8,3.4-1.6,6.9-2.3,10.3c-0.4,1.9,2.4,2.7,2.9,0.8
					c0.3-1.6,0.8-3.1,1.5-4.5c-0.9-0.4-1.8-0.8-2.7-1.1c-0.8,4.1-1.6,8.1-2.3,12.2c-0.5,2.9-1.5,6.4-0.8,9.3c0.1,0.5,0.6,0.9,1,1
					c0.1,0,0.3,0.1,0.4,0.1c0.5,0.1,1.1,0,1.4-0.4c0.1-0.1,0.2-0.2,0.2-0.3c-0.8-0.1-1.6-0.2-2.3-0.3c1.7,4.1,2.1,8.2,1.2,12.5
					c0.7-0.3,1.5-0.6,2.2-0.9c0,0,0-0.1,0.1-0.1c-0.9,0.4-1.8,0.8-2.7,1.1c1.4,3.1,3.6,4.5,6.9,5.1c1.5,0.3,2.4-1.3,1.4-2.5
					c-0.9-1.1-1.9-1.9-3.1-2.8c-1.2-0.9-2.9,0.8-2,2c1,1.4,1.9,2.7,3.1,3.9c0.9,0.9,4.1,3,4.3,4.3c0.3,1.6,3.1,1.3,2.9-0.4
					c-0.2-1.8-0.8-4-3-3.8c-0.6,0-1.3,0.4-1.4,1.1c-0.4,1.6,0,3.2,0.1,4.8c1-0.1,1.9-0.3,2.9-0.4c-1-2.9-2.3-5.2-4.3-7.5
					c-0.9-1.1-3,0.1-2.5,1.4c1,2.5,2.3,4.5,4.2,6.4c1.3,1.2,3.1-0.3,2.3-1.8c-0.9-1.9-4.9-8.5-7.9-5.6c-2.6,2.5,2.1,6.7,3.8,7.9
					c0.7,0.5,2,0,2.2-0.9c0.4-2.3-1.4-5.7-4.2-5.4c-3.4,0.4-2.3,4.2-0.5,5.6c1.1,0.8,3,0.1,2.5-1.4c-0.7-2.2-2.1-5.2-4.7-5.5
					c-1.6-0.2-3.5,0.9-3.4,2.7c0.3,3.6,5.7,2.4,4.3-1.6c-1.8-5.2-7.9-1.3-5.7,2.7c2.4,4.2,7.3-2.2,5.3-5.2c-2.1-3.1-7,1.4-4.7,4.1
					c3.2,3.8,9.3-3.6,5.8-6.7c-3.3-2.9-7.8,3.7-4.1,6.2c3.9,2.5,7.7-5,4-6.9c-4.6-2.4-8,8-2.3,8c1.9,0,3.4-2.2,2.5-3.9
					c-0.5-1-1.1-0.8-2-1.4c-1.5-0.9,0.7,1.6-2-1.3c-2.1-2.3-0.6-5.5,0.1-8.3c-1-0.1-1.9-0.3-2.9-0.4c0,4.8-1.3,9.4-1.6,14.2
					c-0.1,1.7-0.1,2.4,1.5,3.5c2.7,1.7,6.7,1.4,9.7,2.9c1.9,0.9,3.1,2.3,5.3,2c0.5-0.1,0.9-0.6,1-1c0.2-0.5,0.4-1,0.6-1.6
					c0.5-1.6-2-2.7-2.7-1.1c-0.2,0.4-0.4,0.8-0.5,1.2c0.9,0.4,1.8,0.8,2.7,1.1c0.4-2.1,1-3.7,2-5.7c-0.9-0.4-1.8-0.8-2.7-1.1
					c-0.2,0.5-0.4,1-0.7,1.5c0.9,0.5,1.7,1,2.6,1.5c0.4-0.8,0.6-1.4,0.8-2.2c0.5-1.7-1.8-2.4-2.7-1.1c-0.6,0.8-1.2,1.7-1.8,2.5
					C64.2,172.8,66.8,174.3,67.9,172.8L67.9,172.8z"/>
			</g>
		</g>
		<g>
			<g>
				<path class="st0" d="M128.8,169.1c1.9,0,3.9,5.9,4.4,7.1c0.8-0.5,1.7-1,2.5-1.4c-0.2-0.3-0.3-0.6-0.5-0.9
					c-0.9,0.3-1.8,0.5-2.8,0.8c0.1,0.4,0.1,0.8,0.2,1.2c0,0.9,0.9,1.8,1.9,1.4c4.6-1.6,11.2-2.8,15.1-5.7c0.6-0.4,0.8-1,0.7-1.7
					c-0.3-2.1-0.8-3.9-0.5-6.1c-1,0-2,0-3,0c-0.2,4.5-0.9,5.2-4.9,6.2c-0.3,0.1-5.2,1.6-5.4,1.4c0.2,0.3,1.5-4.7,1.7-5.3
					c0.4-2.1,0.7-4.3,1.1-6.5c0.3-1.9,0.2-4.8,1.1-6.5c0.2-2.9,0.9-2.5,2.2,1.3c0.2,0.6,0.4,1.3,0.5,1.9c0.7,2.4,1.7,4.2,3.7,5.8
					c1,0.7,2.2-0.3,2.2-1.3c0.3-7.5-0.3-17.2-3.5-24.1c-0.9-2.1-2.1-3.9-2.7-6.1c-0.1-0.3-0.8-8.5-0.5-3.7c0.2,4.2,0.3,8.4,1.4,12.5
					c0.4,1.6,2.9,1.3,2.9-0.4c0-1.8-0.2-3.4-0.5-5.2c-0.3-1.6-3.1-1.3-2.9,0.4c0.3,2.9,0.8,5.7,1.8,8.4c0.6,1.8,3.5,1,2.9-0.8
					c-1.4-4.2-0.7-9-1.4-13.4c-0.6-3.9-1-8.3-3.1-11.7c-0.9,0.5-1.7,1-2.6,1.5c1.2,1.8,1.8,3.5,2.1,5.6c0.3,1.9,3.2,1.1,2.9-0.8
					c-0.4-2.4-1.1-4.2-2.4-6.3c-1-1.6-3.6-0.2-2.6,1.5c4.4,7.4,1.6,16.6,4.2,24.4c1-0.3,1.9-0.5,2.9-0.8c-0.9-2.5-1.4-5-1.7-7.6
					c-1,0.1-1.9,0.3-2.9,0.4c0.4,1.4,0.5,2.9,0.4,4.4c1-0.1,1.9-0.3,2.9-0.4c-1-3.9-1-7.7-1.3-11.7c-0.1-1.6,0.1-4.3-1-5.8
					c-1.6-2-3.8-1.1-4.6,1c-1.9,5.3,0.9,10.8,3,15.4c3.1,6.8,3.6,16,3.4,23.3c0.7-0.4,1.5-0.9,2.2-1.3c-2.4-1.9-3.2-12.8-8.4-11.4
					c-1.8,0.5-2,2.7-2.4,4.2c-1,4.6-1.4,9.3-2.4,13.9c-0.8,3.6-3.1,8.4,2.2,8.1c2.5-0.1,8.1-1.2,10.2-2.8c2.1-1.6,2.1-5.2,2.2-7.6
					c0.1-2-2.7-1.8-3,0c-0.3,2.6,0.3,4.4,0.7,6.9c0.2-0.6,0.5-1.1,0.7-1.7c-3.7,2.8-10,3.8-14.4,5.4c0.6,0.5,1.3,1,1.9,1.4
					c0-1.2-0.1-1.6-0.6-2.7c-0.6-1.4-2.9-0.7-2.8,0.8c0.1,1.6,0.2,1.9,1.4,3c1,0.9,3.1,0,2.5-1.4c-1.4-3.5-3-9.3-7.3-9.3
					C126.9,166.1,126.9,169.1,128.8,169.1L128.8,169.1z"/>
			</g>
		</g>
		<g>
			<g>
				<path class="st0" d="M59.6,117.9c0.6,0.1,1.1,0.3,1.7,0.4c-0.6-0.6-1.2-1.2-1.8-1.7c-0.1,0-0.2,0-0.2-0.1c0.4,0.5,0.7,1,1.1,1.4
					c0-0.1,0-0.1,0-0.2c-0.4-0.7-0.9-1.4-1.3-2.1c-0.3,0.1-0.6,0.1-0.9,0.2c0.1,0.9,0.2,1.7,0.4,2.6c0.7-0.3,1.4-0.7,2.1-1
					c-0.4-0.9-0.8-1.7-1.1-2.6c-0.4,0.2-0.8,0.5-1.2,0.7c0.7,0.3,1.5,0.6,2.2,0.9c0,0.1-0.1,0.3-0.1,0.4c-0.6-0.7-1.1-1.4-1.7-2.1
					c-0.8,0.8-1.6,1.5-2.4,2.3c0.7,0.7,1.4,1.4,2,1.9c4-8.3,13.4-9.8,22-9.2c0.9,0.1,1.8-1,1.4-1.8c-1.2-2.9-4-2.4-6.8-2.1
					c-2.9,0.3-8.3,0.7-10.3,3c-5.2,6,8.8,12.7,11.9,14.8c3.5,2.1,6.4,4.9,10.7,4.4c4.9-0.6,10-2.3,14.5-4.2c2.8-1.2,7.9-2.7,7.9-6.5
					c0-3-2.9-4.4-5.3-5.2c0,1,0,1.8,0,2.8c6.3-1,12.3-2.1,17.4-6.2c1.3-1-0.1-2.6-1.4-2.4c-1.7,0.3-2.7,0.9-3.8,2.2
					c0.8,0.6,1.6,1.2,2.3,1.7c2.2-2.8,7.2-1.5,10.2-0.7c3.6,1,5.7,2.6,7.6,5.7c0.9,1.5,2.3,6,5,5c2.1-0.7,1.9-3.9,1.2-5.4
					c-1.5-3.7-5.1-5.9-8.8-7c-1.8-0.6-2.6,2.2-0.8,2.8c2,0.6,7.2,2.9,7.1,5.6c0-1.3-2.1-4.1-2.9-4.9c-1.6-1.9-3.6-3.1-5.8-4
					c-5.1-1.9-11.8-3.3-15.4,1.4c-1,1.3,1.3,3,2.3,1.7c0.8-0.5,1.7-1,2.5-1.4c-0.5-0.8-1-1.6-1.4-2.4c-4.6,3.7-10.4,4.6-16.1,5.4
					c-1.6,0.2-1.3,2.4,0,2.8c2.6,2.6,2.6,4.2-0.1,4.9c-1.5,0.7-3,1.4-4.4,2c-1.7,0.7-3.4,1.3-5,1.7c-5.6,1.7-9,1.9-14.3-1.4
					c-1.7-1.1-3.3-2-4.9-3.1c-1.4-0.9-5.6-2.7-6.3-4.3c0.2-1.6,0.3-3.2,0.5-4.8c1-0.3,2.1-0.6,3.2-0.8c0.9-0.2,6.3-1.4,6.8-0.4
					c0.5-0.6,1-1.3,1.4-1.8c-9.6-0.8-19.9,1.4-24.5,10.6c-0.6,1.3,0.7,2.6,2,1.9c1.7-0.9,2.6-1.7,3.5-3.4c0.6-1.2-0.4-2.3-1.7-2.1
					c-1.7,0.3-2.4,1.5-2,3.1c0.2,0.9,1.4,1.4,2.2,0.9c0.4-0.2,0.8-0.5,1.2-0.7c1.5-0.9,0.5-3-1.1-2.6c-1.7,0.4-1.4,0.3-2.8,1.3
					c-1,0.7-1,2.3,0.4,2.6c2,0.5,3,0,4.1-1.4c0.7-0.9-0.3-2.1-1.3-2.1c-2,0-3.2,1.1-3,3.1c0.1,0.7,0.4,1.2,1.1,1.4
					c2,0.8,3.3-0.1,3.9-1.9c0.4-1.2-0.8-1.9-1.8-1.7c-4.6,0.7-4.1,6.8-0.1,5.1C62,120,61.2,117.2,59.6,117.9L59.6,117.9z"/>
			</g>
		</g>
		<g>
			<g>
				<path class="st0" d="M64.5,112.1c0.1-0.4,0.4-0.6,0.9-0.7c-0.5-0.8-1-1.7-1.4-2.5c-0.1,0.1-0.1,0.1,0,0.1c0.2,0,0.7,0,0.8,0.2
					c0.1,0.3,0.1,0.5,0.2,0.8c0,0.1-0.1,0.3-0.2,0.4c0.1-0.1,0.2-0.1,0.3-0.2c0.2-0.1,0.5-0.2,0.7-0.3c-0.7-0.2-1.4-0.4-2-0.5
					c0,0,0,0.1,0.1,0.1c-0.1-0.3-0.1-0.5-0.2-0.8c0.2-0.3,0.5-0.6,0.7-0.9c0.4,0.9,0.8,1.8,1.1,2.7c0.1-0.1,0.2-0.2,0.3-0.2
					c-0.2,0-0.4,0-0.5,0c-0.2-0.2-0.4-0.4-0.5-0.5l0.1,0.1c0.5,0.7,1.3,1,2,0.5c0.6-0.4,1-1.4,0.5-2c-0.9-1.2-2.3-1.3-3.4-0.4
					c-0.6,0.4-0.9,1.1-0.6,1.9c0.3,0.7,1,1,1.8,0.9c1.4-0.3,1.7-1.7,1.3-2.9c-0.3-0.7-1.4-0.9-2-0.5c-0.6,0.3-1.1,0.5-1.6,1
					c-0.6,0.7-0.9,1.7-0.4,2.6c0.8,1.5,2.9,1.4,3.9,0.2c1-1.2,0-2.7-1.4-2.5s-2.6,1.4-3,2.7C61.1,113.2,63.9,114,64.5,112.1
					L64.5,112.1z"/>
			</g>
		</g>
		<g>
			<g>
				<path class="st0" d="M122,106.2c0.2,0,0.5,0.3,0.5,0.5c-0.2,0.4-0.5,0.9-0.7,1.3h0.1c-0.3,0.1-0.5,0.1-0.8,0.2h0.1
					c-0.3-0.1-0.5-0.1-0.8-0.2l-0.1-0.1c-0.1-0.2-0.3-0.4-0.4-0.7v0.1c0-0.3,0-0.5,0-0.8v-0.1c0.2-0.2,0.4-0.4,0.5-0.5
					c0.9,0.2,1.1,0.2,0.7,0c0.1,0,0.1,0.1,0.1,0.1s0.1,0.1,0.1,0.2c0,0.4-0.1,0.7-0.3,0.9c-0.3,0.1-0.5,0.1-0.8,0.2
					c-0.6-0.2-0.9-0.5-1-1c0.1-0.3,0.1-0.5,0.2-0.8l0.1-0.1c0.4-0.1,0.7-0.3,1.1-0.4c0.1,0,0.1,0,0.2,0c0.2,0.1,0.4,0.3,0.7,0.4
					l-0.1-0.1c-0.6-0.5-1.5-0.6-2.1,0c-0.5,0.5-0.6,1.6,0,2.1c0.7,0.6,1.8,0.8,2.5,0c0.6-0.6,0.6-1.6,0.2-2.3
					c-0.5-0.8-1.6-1.1-2.4-0.7c-0.7,0.4-1.1,1.1-1.1,1.9c0,1.5,1.8,2.9,3.2,2.2c0.9-0.4,1.4-1.4,1-2.4s-1.6-1.3-2.5-0.8
					c-0.5,0.2-0.7,0.8-0.7,1.3c0,1.4,1.1,2.5,2.5,2.5c0.8,0,1.5-0.7,1.5-1.5C123.5,106.9,122.8,106.2,122,106.2L122,106.2z"/>
			</g>
		</g>
		<g>
			<g>
				<path class="st0" d="M124.1,208C124.2,207.9,124.2,207.8,124.1,208c-0.1,0.1-0.2,0.2-0.4,0.2c0.8-0.3,1.3-1,1-1.8
					c-0.2-0.7-1.1-1.3-1.8-1c-0.6,0.2-1.2,0.6-1.4,1.2c-0.3,0.7-0.2,1.6,0.5,2C122.7,208.9,123.8,208.7,124.1,208L124.1,208z"/>
			</g>
		</g>
		<g>
			<g>
				<path class="st0" d="M112.5,172.4c0.2-0.4,0.3-0.8,0.5-1.2c-0.6-0.1-1.2-0.2-1.8-0.2c1.3,1.4,0.8,4.7,0.6,6.3
					c-0.2,1.5,2.1,2,2.8,0.8c1.8-3.6,2.6,2.2,2.7,3.7c0.2,1.9,0.1,3.8,0.4,5.7c0.4,2.4,1,5,2.8,6.9c3.8,4.1,5-1,5.5-4.4
					c-1-0.1-1.9-0.3-2.9-0.4c0.2,1.6,0.3,3.2,0.3,4.8c0,1.8,2.3,1.9,2.9,0.4s1.1-2.9,1.5-4.4c0.5-1.8-2.3-2.6-2.9-0.8
					c-0.5,1.4-0.5,1.4-0.4,2.9c0.1,1.6,2.7,2.1,2.9,0.4c0.5-3.8,0.6-7.6,0.8-11.4c0.1-2,0.2-4,0.3-6.1c0-1,0-2.1,0-3.1
					c1.7-2.7,2.5-2.1,2.5,1.7c0.2,1.9,2.9,1.9,3,0c0.2-3.6-1.9-10.9-6.9-10.2c-4.4,0.6-5.5,8.1-6.4,11.4c-1.6,6-4.2,13.6-3,19.8
					c0.7,3.7,3.2,6.6,4.2,10.2c0.6,2.2,0.4,3.7,2.4,5.1c1.2,0.8,2.4-0.5,2.2-1.7c-0.4-1.6-0.4-3.2-0.2-4.8c-1,0.1-1.9,0.3-2.9,0.4
					c0,0.7,0.1,1.3,0.1,2c1,0,2,0,3,0c0-4.4,0.3-8.8,0.9-13.2c-1-0.3-1.9-0.5-2.9-0.8c-0.2,1.2-0.3,2.3-0.5,3.5
					c-0.3,1.9,2.6,2.7,2.9,0.8c0.2-1.2,0.3-2.3,0.5-3.5c0.3-1.9-2.6-2.7-2.9-0.8c-0.7,4.6-1.1,9.3-1,13.9c0,1.9,2.8,1.9,3,0
					c0.1-1.3,0.1-1.5-0.2-2.8c-0.3-1.7-2.8-1.2-2.9,0.4c-0.2,2-0.1,3.6,0.3,5.6c0.7-0.6,1.5-1.1,2.2-1.7c-1.1-0.7-2-5.8-2.7-7.3
					c-2.4-5.1-2.9-8.3-1.9-13.7c0.6-3.6,1.5-7.2,2.4-10.7c0.4-1.7,0.9-3.3,1.4-5c0.3-3,2.1-3.6,5.2-1.8c0.8,1.5,1.1,3.1,0.8,4.7
					c1,0,2,0,3,0c-0.3-2.9-3.3-10.9-7.3-6.7c-2,2.1-1.1,6.4-1.2,9c-0.2,5.3-0.2,10.7-0.9,15.9c1,0.1,1.9,0.3,2.9,0.4
					c0.1-0.7,0.2-1.4,0.3-2.1c-1-0.3-1.9-0.5-2.9-0.8c-0.4,1.5-0.9,2.9-1.5,4.4c1,0.1,1.9,0.3,2.9,0.4c0-1.6-0.2-3.2-0.3-4.8
					c-0.2-1.5-2.6-2.2-2.9-0.4c-0.3,2.2-0.5,4.5-1.9,0.6c-0.7-2-0.7-4.2-0.9-6.4c-0.2-2.7-0.2-5.6-1.4-8.1c-2.2-4.7-5.1-2.2-7,1.4
					c0.9,0.3,1.8,0.5,2.8,0.8c0.3-2.7,0.5-6.2-1.5-8.4c-0.5-0.5-1.2-0.5-1.8-0.2c-1.5,0.7-1.8,2.3-2,3.8
					C109.3,174.3,112.3,174.3,112.5,172.4L112.5,172.4z"/>
			</g>
		</g>
		<line class="st1" x1="73.3" y1="125.4" x2="79.7" y2="127.2"/>
		<line class="st1" x1="81.2" y1="106.7" x2="83.8" y2="109.8"/>
		<line class="st1" x1="105.9" y1="112.6" x2="100.5" y2="112.3"/>
		<line class="st1" x1="94.8" y1="111.8" x2="102.1" y2="112.4"/>
		<ellipse class="st0" cx="67.3" cy="116.7" rx="6" ry="2.3"/>
		<ellipse class="st0" cx="65.1" cy="112.4" rx="6.4" ry="1.7"/>
		<ellipse class="st0" cx="64.3" cy="112.7" rx="3" ry="4.7"/>
		<ellipse class="st0" cx="64.6" cy="112.5" rx="5.5" ry="3"/>
		<ellipse class="st0" cx="79.8" cy="106.9" rx="1.7" ry="2.2"/>
		<ellipse class="st0" cx="74.4" cy="106.7" rx="5.4" ry="1.4"/>
		<ellipse class="st0" cx="79.2" cy="118.8" rx="5.4" ry="1.4"/>
		<ellipse transform="matrix(0.173 -0.9849 0.9849 0.173 -0.6569 216.6944)" class="st0" cx="128.7" cy="108.7" rx="3.7" ry="7.9"/>
		<ellipse class="st0" cx="73.6" cy="106.7" rx="7.1" ry="1.2"/>
		<ellipse class="st0" cx="72.7" cy="107.8" rx="3.8" ry="2.3"/>
		<ellipse class="st0" cx="122.1" cy="107.4" rx="2.7" ry="2.1"/>
		<ellipse class="st0" cx="123.6" cy="108.9" rx="2.9" ry="3.9"/>
		<ellipse class="st0" cx="135" cy="111.4" rx="3.3" ry="4"/>
		<circle class="st0" cx="123.6" cy="107.4" r="2.8"/>
		<ellipse class="st0" cx="72.9" cy="108.7" rx="5.2" ry="3.7"/>
	</g>
	<g>
		<g>
			<path class="st2" d="M63.4,160.1c3.1,6.1,9,10.1,16,10.3c5.8,0.1,11.6-2.8,13.5-8.5c0.2-0.7-0.9-1-1.1-0.3
				c-2,6.4-9.3,8.5-15.3,7.3c-5.4-1.1-9.5-4.5-12-9.4C64,158.9,63,159.5,63.4,160.1L63.4,160.1z"/>
		</g>
	</g>
	<g>
		<g>
			<g>
				<g>
					<path d="M50.1,171.6c0.2,1.8,3.5,1.9,4.8,2.3c4,1.2,7.9,2.7,11.8,4.3c0.7,0.3,1-0.9,0.3-1.1c-2.6-1.1-5.2-2.1-7.8-3
						c-1-0.4-7.9-2-7.9-2.4C51.2,170.8,50,170.8,50.1,171.6L50.1,171.6z"/>
				</g>
			</g>
			<g>
				<g>
					<path d="M67.8,178.5c1.3-3.2,2.4-6.5,3.4-9.9c0.2-0.7-0.9-1-1.1-0.3c-1,3.3-2.2,6.6-3.4,9.9C66.4,178.9,67.5,179.2,67.8,178.5
						L67.8,178.5z"/>
				</g>
			</g>
			<g>
				<g>
					<path d="M50.8,171.7c0.7-12.1,1.8-24.1,3.3-36.2c0.1-0.8-1.1-0.8-1.2,0c-1.5,12-2.6,24.1-3.3,36.2
						C49.6,172.5,50.8,172.5,50.8,171.7L50.8,171.7z"/>
				</g>
			</g>
			<g>
				<g>
					<path d="M54,135.9c0.7-7.7,0.2-16.7,5.1-23.1c5.5-7.1,13.9-7.6,22.2-7.5c0.8,0,0.8-1.2,0-1.2c-8.4-0.1-16.9,0.5-22.7,7.4
						c-5.6,6.7-5,16.2-5.8,24.4C52.8,136.7,54,136.7,54,135.9L54,135.9z"/>
				</g>
			</g>
			<g>
				<g>
					<path d="M74.6,210.8c-0.3-8.5-1-16.9-1.7-25.4c-0.3-4.5-0.6-8.9-1-13.4c-0.1-1.6,0.1-2.8-1.3-3.7c-0.6-0.4-1.2,0.6-0.6,1
						c1.7,1.1,1.2,9.3,1.4,11.2c0.3,3.6,0.5,7.1,0.8,10.7c0.5,6.5,1,13,1.2,19.5C73.4,211.6,74.6,211.6,74.6,210.8L74.6,210.8z"/>
				</g>
			</g>
		</g>
		<g>
			<g>
				<g>
					<path d="M149.2,171.6c0,0.3-7.1,2.1-7.9,2.4c-2.6,0.9-5.2,1.9-7.8,3c-0.7,0.3-0.4,1.4,0.3,1.1c3.9-1.6,7.8-3,11.8-4.3
						c1.4-0.4,4.6-0.5,4.8-2.3C150.4,170.8,149.3,170.8,149.2,171.6L149.2,171.6z"/>
				</g>
			</g>
			<g>
				<g>
					<path d="M133.8,178.2c-1.3-3.2-2.4-6.5-3.4-9.9c-0.2-0.7-1.4-0.4-1.1,0.3c1,3.3,2.2,6.6,3.4,9.9
						C132.9,179.2,134.1,178.9,133.8,178.2L133.8,178.2z"/>
				</g>
			</g>
			<g>
				<g>
					<path d="M150.8,171.7c-0.7-12.1-1.8-24.1-3.3-36.2c-0.1-0.7-1.3-0.8-1.2,0c1.5,12,2.6,24.1,3.3,36.2
						C149.7,172.5,150.9,172.5,150.8,171.7L150.8,171.7z"/>
				</g>
			</g>
			<g>
				<g>
					<path d="M147.6,135.9c-0.8-8.2-0.2-17.7-5.8-24.4c-5.7-6.9-14.3-7.5-22.7-7.4c-0.8,0-0.8,1.2,0,1.2c8.3-0.1,16.7,0.4,22.2,7.5
						c4.9,6.4,4.4,15.4,5.1,23.1C146.5,136.7,147.7,136.7,147.6,135.9L147.6,135.9z"/>
				</g>
			</g>
			<g>
				<g>
					<path d="M127.1,210.8c0.2-6.5,0.7-13,1.2-19.5c0.2-3.2,0.5-6.5,0.7-9.7c0.2-2.1-0.3-11,1.4-12.2c0.6-0.4,0-1.5-0.6-1
						c-1.4,0.9-1.2,2.1-1.3,3.7c-0.3,4.5-0.7,8.9-1,13.4c-0.6,8.4-1.4,16.9-1.7,25.4C125.9,211.6,127,211.6,127.1,210.8L127.1,210.8
						z"/>
				</g>
			</g>
		</g>
		<g>
			<g>
				<path d="M80.5,105.4c2.9,6.6,12.8,7,19,6.9c7.4-0.2,16.1-0.9,20.7-7.4c0.4-0.6-0.6-1.2-1-0.6c-4.3,6.2-12.8,6.7-19.7,6.9
					c-5.6,0.1-15.4-0.3-18-6.3C81.2,104.1,80.2,104.7,80.5,105.4L80.5,105.4z"/>
			</g>
		</g>
		<g>
			<g>
				<path d="M73.9,211.5c3.8,0.1,7.5-1,11.3-0.9c4.4,0.1,8.6,0.1,13.1-0.2c9.1-0.5,19-0.8,28,0.5c0.7,0.1,1.1-1,0.3-1.1
					c-8.7-1.2-17.9-0.9-26.6-0.6c-4.4,0.1-8.7,0.5-13.1,0.3s-8.6,0.9-13,0.8C73.1,210.3,73.1,211.4,73.9,211.5L73.9,211.5z"/>
			</g>
		</g>
	</g>
	<g>
		<g>
			<path class="st2" d="M133.7,160.5c-2.5,4.8-6.6,8.3-12,9.4c-6.1,1.2-13.3-0.9-15.3-7.3c-0.2-0.7-1.4-0.4-1.1,0.3
				c1.8,5.8,7.7,8.6,13.5,8.5c6.9-0.1,12.9-4.2,16-10.3C135.1,160.5,134.1,159.9,133.7,160.5L133.7,160.5z"/>
		</g>
	</g>
</g>
</svg>
