<svg id="Layer_1" data-name="Layer 1" xmlns="http://www.w3.org/2000/svg" viewBox="0 0 57.81 32.42"><defs><style>.cls-1{fill:#141113;}.cls-2{fill:#292728;}</style></defs><title>Black</title><path class="cls-1" d="M123.41,42c1.14-.48,1.56,2.28,1.6,2.85h1.2a4.39,4.39,0,0,0-1.93-3.33c-.64-.44-1.24.6-.61,1A3.09,3.09,0,0,1,125,44.84c.06.76,1.26.77,1.2,0-.13-1.71-1-4.9-3.41-3.89-.71.3-.1,1.34.61,1Z" transform="translate(-71.28 -28.32)"/><path class="cls-1" d="M81.26,42.9c-1.78.4-2.51,2.12-3.26,3.6l2.19.92A12,12,0,0,1,84.52,40l-1.64-1.64L80,42c-.86,1.12.93,2.33,1.88,1.45l2.14-2-2-1.17a4,4,0,0,1-1,2.23c-1,1.14.65,2.84,1.7,1.7A6.13,6.13,0,0,0,84.35,41a1.21,1.21,0,0,0-2-1.17l-2.14,2,1.88,1.45L85,39.53c.72-.93-.71-2.36-1.64-1.64a14.35,14.35,0,0,0-5.43,8.9c-.23,1.25,1.53,2.22,2.19.92.4-.78.87-2.28,1.83-2.5,1.51-.34.87-2.65-.64-2.31Z" transform="translate(-71.28 -28.32)"/><path class="cls-1" d="M77.5,44.66c-.17,0-1.48,0-1.15.23l.59,1c0-1.65,1.34-2.56,2.31-3.62.78-.86,1.12-2,2-2.84s1.76-1.17,2.57-1.84c1-.82,1.7-2.11,3-2.34,1.52-.27.87-2.58-.64-2.31s-2.31,1.29-3.38,2.31S80.09,37,79,38.28c-.52.62-.77,1.39-1.26,2s-1.32,1.18-1.86,1.89a6.63,6.63,0,0,0-1.38,3.74,1.2,1.2,0,0,0,.59,1,3.55,3.55,0,0,0,2.36.1c1.51-.19,1.53-2.6,0-2.4Z" transform="translate(-71.28 -28.32)"/><path class="cls-1" d="M79.35,40.61A29.37,29.37,0,0,0,73.49,53.3l2.36.32c.13-1.13,1.27-2.14,1.9-3a27.45,27.45,0,0,0,1.56-2.67c.73-1.36-1.34-2.57-2.07-1.21C76,49,73.76,51,73.45,53.62c-.16,1.34,2.1,1.64,2.36.32A26.86,26.86,0,0,1,81,42.31c.94-1.2-.74-2.91-1.7-1.7Z" transform="translate(-71.28 -28.32)"/><path class="cls-1" d="M74.84,50.6l-.69,1.74A1.21,1.21,0,0,0,75,53.82,1.23,1.23,0,0,0,76.47,53l.69-1.74a1.21,1.21,0,0,0-.84-1.48,1.23,1.23,0,0,0-1.48.84Z" transform="translate(-71.28 -28.32)"/><path class="cls-1" d="M76,51.17a15.79,15.79,0,0,1,0-2c0-.32,0-1,.31-1.23a1.2,1.2,0,0,0-1.21-2.07c-1.73,1-1.6,3.58-1.52,5.33.08,1.54,2.48,1.55,2.4,0Z" transform="translate(-71.28 -28.32)"/><path class="cls-1" d="M74.74,54.24a7.93,7.93,0,0,0,.76-2.1,2.58,2.58,0,0,0-.92-2.05,1.21,1.21,0,0,0-1.7,0,5.28,5.28,0,0,0-1.15,4.24,1.21,1.21,0,0,0,1.48.84A1.23,1.23,0,0,0,74,53.69a2.62,2.62,0,0,1,.53-1.91h-1.7s.3.27.27.31q0-.48-.07-.11l-.1.26-.56,1.35a1.21,1.21,0,0,0,.84,1.48,1.23,1.23,0,0,0,1.48-.84Z" transform="translate(-71.28 -28.32)"/><path class="cls-1" d="M74.52,51.13a5.07,5.07,0,0,0-2,3c-.16,1.12-1.07,2-.94,3.18.16,1.52,2.56,1.54,2.4,0-.07-.7.7-1.47.83-2.19a2.85,2.85,0,0,1,.35-1.27,6,6,0,0,1,1.07-1.05c1.17-1-.53-2.7-1.7-1.7Z" transform="translate(-71.28 -28.32)"/><path class="cls-1" d="M73.81,53.33a.91.91,0,0,1-.15.49,1.24,1.24,0,0,0,0,1.7,1.21,1.21,0,0,0,1.7,0,3.72,3.72,0,0,0,.85-2.19,1.2,1.2,0,0,0-2.4,0Z" transform="translate(-71.28 -28.32)"/><path class="cls-1" d="M83.42,41.21a14.19,14.19,0,0,1,8.06-6.39c4-1.39,7.41-.21,11.15,1.2V33.7a35.56,35.56,0,0,1-7.81.57v2.4a44.39,44.39,0,0,1,6.75.21v-2.4L95,33.9c-1.55-.14-1.5,2.22,0,2.4s3.06.3,4.61.36a1.21,1.21,0,0,0,.61-2.24,11.47,11.47,0,0,0-6.13-1.61,1.22,1.22,0,0,0-1,1.81,13.7,13.7,0,0,0,2,3.12l1.17-2-5.68-.84a1.21,1.21,0,0,0-1.17,2,15.1,15.1,0,0,0,3.41,2.59c1.37.77,2.43-1.18,1.21-2.07a17.68,17.68,0,0,0-3.66-2.09l-.29,2.19,4.29-1.2a1.21,1.21,0,0,0,0-2.31c-5-1.6-11.12,2-11.43,7.37a1.21,1.21,0,0,0,1.81,1c3.46-1.89,7.2-1.94,11.05-1.67,1.33.09,1.65-2.11.32-2.36a72.13,72.13,0,0,1-9-2.28c-1.48-.48-2.1,1.83-.64,2.31l5.19,1.72.64-2.31a23.15,23.15,0,0,0-5.83-.65,1.21,1.21,0,0,0-.32,2.36c2.64.93,5.75.71,7.79,2.94l.85-2a9.73,9.73,0,0,1-4.32-1.35l-.61,2.24a9.61,9.61,0,0,1,5.49,1c1.38.68,2.6-1.39,1.21-2.07a11.82,11.82,0,0,0-6.7-1.3c-1.09.1-1.75,1.64-.61,2.24a15.51,15.51,0,0,0,5.53,1.67c1.11.13,1.48-1.36.85-2-2.39-2.62-5.69-2.45-8.85-3.56l-.32,2.36a20.89,20.89,0,0,1,5.19.57,1.2,1.2,0,0,0,.64-2.31L87.15,36.1l-.64,2.31a72.13,72.13,0,0,0,9,2.28l.32-2.36c-4.39-.3-8.36-.14-12.26,2l1.81,1c.22-3.79,5-6.12,8.39-5.05V34l-4.29,1.2c-.9.25-1.28,1.77-.29,2.19a17.68,17.68,0,0,1,3.66,2.09l1.21-2.07a8.8,8.8,0,0,1-2.93-2.21L90,37.2l5.68.84a1.21,1.21,0,0,0,1.17-2,8.24,8.24,0,0,1-1.66-2.64l-1,1.81A9.07,9.07,0,0,1,99,36.49l.61-2.24c-1.56-.06-3.07-.17-4.61-.36v2.4l6.53.58c1.55.14,1.51-2.24,0-2.4a44.39,44.39,0,0,0-6.75-.21,1.2,1.2,0,0,0,0,2.4,38.41,38.41,0,0,0,8.45-.66c1.28-.24,1-1.94,0-2.31-4.25-1.61-8.32-2.78-12.73-1.12-4.09,1.54-7,3.65-9.19,7.43a1.2,1.2,0,0,0,2.07,1.21Z" transform="translate(-71.28 -28.32)"/><path class="cls-1" d="M92.75,39.4q-3.25-.12-6.5,0a1.2,1.2,0,0,0,0,2.4q3.25-.08,6.5,0c1.54.06,1.54-2.34,0-2.4Z" transform="translate(-71.28 -28.32)"/><path class="cls-1" d="M98.25,39.76h2l.29-2.19a10.81,10.81,0,0,1-6.4-.94l-.29,2.19a11,11,0,0,1,8.49,0l.32-2.36a11.92,11.92,0,0,1-6.33-1.14L96,37.54a18.42,18.42,0,0,1,5.23-.78c1,0,6.82,1,2.46-.26-1-.29-4.42-.17-1.35-1.28a6.72,6.72,0,0,1,2.34-.4q2.93-.31.5,2.56-2.61.49-1.11-1.81,3.54-.54,3.43,2.48-.44-2.46-2,2.39a9.61,9.61,0,0,1-2.8.11c-2.81-.23-5.45-1.2-8.29-1.23l.32,2.36a39.46,39.46,0,0,1,10.87-.31V39a42.44,42.44,0,0,1-4.39-.06c-1.54-.1-1.54,2.3,0,2.4a42.44,42.44,0,0,0,4.39.06,1.2,1.2,0,0,0,0-2.4,41.71,41.71,0,0,0-11.51.4c-1.36.23-1,2.34.32,2.36,4.17,0,10.1,3.05,13.91.11,2.55-2,1.76-6.44-1-7.82S101,34.8,102,38c.87,2.83,5.15,3.53,7.34,1.82,2.94-2.3-.91-6.21-3.46-6.66-2.26-.4-7.16,1.54-5.68,4.59,1.29,2.66,6.6,2.64,8.57.91,2.78-2.44-.06-5.63-2.86-6.11-1.95-.33-9.29.94-7.72,4.33.65,1.4,3.31,1.86,4.57,2,1.73.17,3.5-.14,4.51-1.64a1.18,1.18,0,0,0,0-1.21c-2-3-9.09-1.55-11.9-.76a1.21,1.21,0,0,0-.29,2.19,14.34,14.34,0,0,0,7.54,1.47,1.21,1.21,0,0,0,.32-2.36,13,13,0,0,0-9.77,0c-.85.33-1.32,1.72-.29,2.19a13.88,13.88,0,0,0,8.25,1.18,1.21,1.21,0,0,0,.29-2.19,4.2,4.2,0,0,0-3.82-.25c-1.42.56-.8,2.89.64,2.31Z" transform="translate(-71.28 -28.32)"/><path class="cls-1" d="M93.2,41.66l4,.88V40.23l-2.43-.1c-1.09-.29-2.12,1.2-1.17,2,4.7,4,11.53,2.92,16.59.44,1.39-.68.17-2.75-1.21-2.07-4,1.94-9.89,3.14-13.68-.07l-1.17,2a6.28,6.28,0,0,0,3.7.1,1.21,1.21,0,0,0,0-2.31l-4-.88c-1.5-.34-2.15,2-.64,2.31Z" transform="translate(-71.28 -28.32)"/><path class="cls-1" d="M108,39.12a10.63,10.63,0,0,1,4,.27l.64-2.31c-1.46-.32-2.91-.58-4.39-.78-1.2-.17-2.29,1.56-.92,2.19s2.9,1.4,4.32,2.16l.29-2.19a22.55,22.55,0,0,1-3,.72c-1.37.23-1,2.33.32,2.36,3.93.09,8.85-1.19,11.72,2.28l1.45-1.88c-4.3-2.25-8.23-5.69-12.25-8.43l-.92,2.19a19.18,19.18,0,0,1,5.23,3.14l1.45-1.88A49,49,0,0,1,109,31.7l-1.45,1.88a21.3,21.3,0,0,1,8.2,6.5l.85-2a11.9,11.9,0,0,1-5.49-1c-1.42-.6-2,1.72-.64,2.31a13.19,13.19,0,0,0,6.12,1,1.22,1.22,0,0,0,.85-2,22.7,22.7,0,0,0-8.68-6.87c-1.15-.52-2.54.9-1.45,1.88A52.53,52.53,0,0,0,114.71,39c1.13.7,2.55-1,1.45-1.88a23,23,0,0,0-6.29-3.76c-1.35-.48-2,1.47-.92,2.19,4,2.74,7.94,6.18,12.25,8.43a1.21,1.21,0,0,0,1.45-1.88c-3.37-4.07-8.78-2.87-13.42-3l.32,2.36a22.55,22.55,0,0,0,3-.72,1.21,1.21,0,0,0,.29-2.19q-2.13-1.14-4.32-2.16l-.92,2.19c1.48.2,2.93.46,4.39.78a1.2,1.2,0,0,0,.64-2.31,12.34,12.34,0,0,0-4.63-.36c-1.52.17-1.54,2.57,0,2.4Z" transform="translate(-71.28 -28.32)"/><path class="cls-1" d="M115.84,41.44a30.94,30.94,0,0,1,4.85,3.08c1.5,1.13,3.06,1.64,3.81,3.52l2.19-.92a38.32,38.32,0,0,0-3.56-4c-1.13-1.1-2.65.52-1.7,1.7l2.3,2.85,1.7-1.7-3-3a1.21,1.21,0,0,0-1.88,1.45c1.41,2.55,4.23,4.26,5.15,7.06.48,1.46,2.8.84,2.31-.64-1-3.13-3.84-4.85-5.39-7.64l-1.88,1.45,3,3c1.13,1.11,2.65-.52,1.7-1.7l-2.3-2.85-1.7,1.7a34,34,0,0,1,3.18,3.55c.74,1,2.75.47,2.19-.92a7.46,7.46,0,0,0-3.45-4c-2.16-1.33-4-2.89-6.32-4-1.37-.7-2.59,1.37-1.21,2.07Z" transform="translate(-71.28 -28.32)"/><path class="cls-1" d="M128.51,54.37c-.7-9.45-6.92-17-15.51-20.68-1.41-.6-2.63,1.47-1.21,2.07,7.75,3.29,13.69,10,14.32,18.61.11,1.53,2.51,1.54,2.4,0Z" transform="translate(-71.28 -28.32)"/><path class="cls-1" d="M118,39.12l.2.37a1.21,1.21,0,0,0,2.19-.92c-1.81-6-9-8.8-14.77-9.58a35.53,35.53,0,0,0-9.43.35c-2.76.42-6.61,1.31-9,2.79-1.31.81-.11,2.88,1.21,2.07,3.76-2.31,9.5-2.59,13.72-2.86,5.36-.35,14.24,2.14,16,7.87l2.19-.92-.2-.37c-.73-1.36-2.81-.15-2.07,1.21Z" transform="translate(-71.28 -28.32)"/><path class="cls-1" d="M106.59,31.82q-4-.41-8-.64c-1.54-.09-1.54,2.31,0,2.4q4,.23,8,.64c1.54.16,1.52-2.24,0-2.4Z" transform="translate(-71.28 -28.32)"/><path class="cls-1" d="M107.25,35.14c-1.84-.24-3.61-.55-5.42-.95l-.32,2.36c6.41.08,12.81.35,18.61,3.38,1,.53,2.33-.58,1.64-1.64a16.1,16.1,0,0,0-3.48-3.92c-1.19-1-2.9.72-1.7,1.7a13.28,13.28,0,0,1,3.1,3.44l1.64-1.64c-6.18-3.23-13-3.62-19.82-3.71a1.21,1.21,0,0,0-.32,2.36c2,.44,4,.77,6.05,1,1.53.2,1.51-2.21,0-2.4Z" transform="translate(-71.28 -28.32)"/><path class="cls-1" d="M95.62,33c3.12-1.24,8.32-1.59,11.34.11a1.2,1.2,0,0,0,1.21-2.07c-3.61-2-9.41-1.85-13.19-.36-1.42.56-.8,2.88.64,2.31Z" transform="translate(-71.28 -28.32)"/><path class="cls-1" d="M118.48,39.55a3.88,3.88,0,0,0-.65-1,1.21,1.21,0,0,0-1.7,0,1.22,1.22,0,0,0,0,1.7,1.87,1.87,0,0,1,.27.48,1.21,1.21,0,0,0,1.64.43,1.23,1.23,0,0,0,.43-1.64Z" transform="translate(-71.28 -28.32)"/><path class="cls-1" d="M71.3,57.33v.75a1.2,1.2,0,0,0,2.4,0v-.75a1.2,1.2,0,0,0-2.4,0Z" transform="translate(-71.28 -28.32)"/><path class="cls-1" d="M123.55,40.47a5.57,5.57,0,0,0-.95-1.4,1.2,1.2,0,1,0-1.7,1.7,3.52,3.52,0,0,1,.57.92,1.21,1.21,0,0,0,1.64.43,1.23,1.23,0,0,0,.43-1.64Z" transform="translate(-71.28 -28.32)"/><path class="cls-1" d="M120.33,45.37a1.2,1.2,0,0,0,0-2.4,1.2,1.2,0,0,0,0,2.4Z" transform="translate(-71.28 -28.32)"/><path class="cls-1" d="M127.1,50.33l-1.2-1.86a1.23,1.23,0,0,0-1.64-.43,1.21,1.21,0,0,0-.43,1.64l1.2,1.86a1.23,1.23,0,0,0,1.64.43,1.21,1.21,0,0,0,.43-1.64Z" transform="translate(-71.28 -28.32)"/><path d="M72.39,59.54c-.1-7,2.7-16,7.4-21.2,5.3-5.9,13.1-8.4,20.9-8.7,8.3-.3,14.4,1.9,19.7,8.2,2.5,2.9,5.6,6.2,6.5,10s.7,8.3,1,12.3c.1.8,1.3.8,1.2,0-.3-4.3,0-9.2-1.2-13.3-1-3.5-3.8-6.4-6-9.2-5.9-7-11.9-9.6-21.1-9.3-17.2.6-29.8,13.6-29.5,31.1a.55.55,0,1,0,1.1.1Z" transform="translate(-71.28 -28.32)"/><path d="M72.77,60.34c3-5.3,6.12-11.9,10.47-16.1,4.54-4.4,11.26.3,16.69.6a17,17,0,0,0,6.72-.7c2.77-1.1,3.26-2.2,6.42-2.1,6.91.3,12.15,9.8,14.32,15.7.3.7,1.38.4,1.19-.3-2.17-5.9-5.73-11.6-10.86-15.3-6.42-4.6-9.78,1.7-16.79,1.6a18.36,18.36,0,0,1-7.7-1.6,29,29,0,0,0-3.65-1.6,6.5,6.5,0,0,0-4.84,1.1c-2.27,1.5-4,4.2-5.43,6.4-2.67,3.8-5,7.8-7.31,11.8-.59.6.4,1.2.79.5Z" transform="translate(-71.28 -28.32)"/><path class="cls-2" d="M93.29,38.34a16.17,16.17,0,0,0,9,3,.6.6,0,1,0,0-1.2,14.94,14.94,0,0,1-8.4-2.9c-.6-.4-1.2.7-.6,1.1Z" transform="translate(-71.28 -28.32)"/><path class="cls-2" d="M74.69,54.34c2.4-6.4,4.7-13.2,10.8-16.9a.58.58,0,1,0-.6-1,16.18,16.18,0,0,0-6.7,7c-1.7,3.4-3.2,7-4.6,10.6-.3.7.8,1,1.1.3Z" transform="translate(-71.28 -28.32)"/><path class="cls-2" d="M111.89,33.74a45.71,45.71,0,0,1,7.6,6.2c2.1,2.2,3.3,5.1,5.6,7,.6.5,1.4-.3.8-.8-2.5-2.1-3.9-5.3-6.2-7.7a51.66,51.66,0,0,0-7.3-5.8c-.5-.3-1.1.7-.5,1.1Z" transform="translate(-71.28 -28.32)"/><path class="cls-2" d="M97.89,34.14a27.79,27.79,0,0,0,7.9,2.9.62.62,0,0,0,.3-1.2,25.54,25.54,0,0,1-7.6-2.7.58.58,0,1,0-.6,1Z" transform="translate(-71.28 -28.32)"/></svg>