<svg id="Layer_1" data-name="Layer 1" xmlns="http://www.w3.org/2000/svg" viewBox="0 0 58.03 32.42"><defs><style>.cls-1{fill:#ffe322;}.cls-2{fill:#f7ed56;}</style></defs><title>Blond</title><path class="cls-1" d="M22.75,15.79c-1.05.07-1.74,1.1-2.27,2l-.64,1.08a12.82,12.82,0,0,1,5.51-8.28l-3.24,3.76,2.42-2A4.38,4.38,0,0,1,23,15.14" transform="translate(-12.12 0)"/><path class="cls-1" d="M22.43,14.68c-1.88.38-2.72,2.11-3.59,3.63l2.19.92a12,12,0,0,1,5-7.56L24.54,9.75,21.3,13.51a1.2,1.2,0,1,0,1.7,1.7l2.42-2-2-1.17a3.78,3.78,0,0,1-1.18,2.27c-1.12,1.07.58,2.77,1.7,1.7a5.87,5.87,0,0,0,1.79-3.33,1.21,1.21,0,0,0-2-1.17l-2.42,2,1.7,1.7,3.24-3.76c.83-1-.26-2.71-1.45-1.88a14.37,14.37,0,0,0-6.06,9,1.21,1.21,0,0,0,2.19.92c.52-.91,1-2.3,2.16-2.53,1.51-.3.87-2.62-.64-2.31Z" transform="translate(-12.12 0)"/><path class="cls-1" d="M18.34,17.54,17,17.68c-.16,0-.35,0-.44-.1a.45.45,0,0,1,0-.38,6.92,6.92,0,0,1,1.46-3c.38-.38.84-.67,1.2-1.06.63-.68.92-1.6,1.49-2.33C21.61,9.7,23,9.18,24,8.24s1.89-2.39,3.29-2.43" transform="translate(-12.12 0)"/><path class="cls-1" d="M18.34,16.34c-.17,0-1.48,0-1.15.23l.59,1c0-1.65,1.34-2.56,2.31-3.62.78-.86,1.12-2,2-2.84s1.76-1.17,2.57-1.84c1-.82,1.7-2.11,3-2.34,1.52-.27.87-2.58-.64-2.31s-2.31,1.29-3.38,2.31-2.71,1.75-3.8,3c-.52.62-.77,1.39-1.26,2s-1.32,1.18-1.86,1.89a6.63,6.63,0,0,0-1.38,3.74,1.2,1.2,0,0,0,.59,1,3.55,3.55,0,0,0,2.36.1c1.51-.19,1.53-2.6,0-2.4Z" transform="translate(-12.12 0)"/><path class="cls-1" d="M21,13.14A26.91,26.91,0,0,0,15.49,25.3c0-1.17.88-2.11,1.61-3a21.87,21.87,0,0,0,2-3.29" transform="translate(-12.12 0)"/><path class="cls-1" d="M20.19,12.29A29.37,29.37,0,0,0,14.33,25l2.36.32c.13-1.13,1.27-2.14,1.9-3a27.45,27.45,0,0,0,1.56-2.67c.73-1.36-1.34-2.57-2.07-1.21-1.24,2.26-3.48,4.26-3.79,6.88-.16,1.34,2.1,1.64,2.36.32A26.86,26.86,0,0,1,21.84,14c.94-1.2-.74-2.91-1.7-1.7Z" transform="translate(-12.12 0)"/><path class="cls-1" d="M16.84,22.6l-.69,1.74" transform="translate(-12.12 0)"/><path class="cls-1" d="M15.68,22.28,15,24a1.21,1.21,0,0,0,.85,1.48,1.23,1.23,0,0,0,1.47-.82L18,22.94a1.21,1.21,0,0,0-.84-1.48,1.23,1.23,0,0,0-1.48.84Z" transform="translate(-12.12 0)"/><path class="cls-1" d="M15.6,22.85a14.58,14.58,0,0,1,.09-2.7,1.91,1.91,0,0,1,.83-1.59" transform="translate(-12.12 0)"/><path class="cls-1" d="M16.84,22.85a15.79,15.79,0,0,1,0-2c0-.32,0-1,.31-1.23a1.2,1.2,0,0,0-1.21-2.07c-1.73,1-1.6,3.58-1.52,5.33.08,1.54,2.48,1.55,2.4,0Z" transform="translate(-12.12 0)"/><path class="cls-1" d="M14.42,25.6l.6-1.46a1.48,1.48,0,0,0,.14-.48,1.51,1.51,0,0,0-.58-1,3.82,3.82,0,0,0-.85,3" transform="translate(-12.12 0)"/><path class="cls-1" d="M15.58,25.92a7.93,7.93,0,0,0,.76-2.1,2.58,2.58,0,0,0-.92-2,1.21,1.21,0,0,0-1.7,0A5.28,5.28,0,0,0,12.57,26a1.21,1.21,0,0,0,1.48.84,1.23,1.23,0,0,0,.79-1.48,2.62,2.62,0,0,1,.53-1.91h-1.7s.3.27.27.31q0-.48-.07-.11l-.1.26-.56,1.35A1.21,1.21,0,0,0,14,26.75a1.23,1.23,0,0,0,1.48-.84Z" transform="translate(-12.12 0)"/><path class="cls-1" d="M16.21,23.68A4.08,4.08,0,0,0,14.52,26a2.19,2.19,0,0,1-.07.67c-.17.83-1.05,1.52-.85,2.35" transform="translate(-12.12 0)"/><path class="cls-1" d="M15.36,22.81a5.07,5.07,0,0,0-2,3c-.16,1.12-1.07,2-.94,3.18.16,1.52,2.56,1.54,2.4,0-.07-.7.7-1.47.83-2.19A2.85,2.85,0,0,1,16,25.53a6,6,0,0,1,1.07-1c1.17-1-.53-2.7-1.7-1.7Z" transform="translate(-12.12 0)"/><path class="cls-1" d="M15.84,25a2.15,2.15,0,0,1-.5,1.34" transform="translate(-12.12 0)"/><path class="cls-1" d="M14.65,25a.91.91,0,0,1-.15.49,1.24,1.24,0,0,0,0,1.7,1.21,1.21,0,0,0,1.7,0A3.72,3.72,0,0,0,17,25a1.2,1.2,0,0,0-2.4,0Z" transform="translate(-12.12 0)"/><path class="cls-1" d="M23.22,12.29a13.28,13.28,0,0,1,2.69-3.71A13.26,13.26,0,0,1,28.36,7,19,19,0,0,1,34.3,4.68c3.22-.49,6.44.7,9.49,1.86a31.32,31.32,0,0,1-8.13.61,35.85,35.85,0,0,1,6.75.21l-6.57-.58a37.85,37.85,0,0,0,4.61.36A8.89,8.89,0,0,0,35,5.68a8.88,8.88,0,0,0,1.87,2.89l-5.7-.89a9.89,9.89,0,0,0,3.17,2.4A12.57,12.57,0,0,0,30.65,8l4.29-1.2a2.93,2.93,0,0,0-1.84-.26c-2,.15-4.09.36-5.57,1.67A9.12,9.12,0,0,0,26.07,10a4.37,4.37,0,0,0-1,3,14,14,0,0,1,3.43-1.54,14.38,14.38,0,0,1,2.84-.32,36.48,36.48,0,0,1,5.39,0,60.43,60.43,0,0,1-9-2.28l5.11,1.79a17,17,0,0,0-5.51-.61,23.14,23.14,0,0,0,4.44,1.06,6.08,6.08,0,0,1,3.88,2.2,10.89,10.89,0,0,1-4.92-1.51,9.3,9.3,0,0,1,6.11,1.11" transform="translate(-12.12 0)"/><path class="cls-1" d="M24.26,12.89A14.19,14.19,0,0,1,32.32,6.5c4-1.39,7.41-.21,11.15,1.2V5.38A35.56,35.56,0,0,1,35.66,6v2.4a44.39,44.39,0,0,1,6.75.21V6.16l-6.57-.58c-1.55-.14-1.5,2.22,0,2.4s3.06.3,4.61.36a1.21,1.21,0,0,0,.61-2.24,11.47,11.47,0,0,0-6.13-1.61,1.22,1.22,0,0,0-1,1.81,13.7,13.7,0,0,0,2,3.12l1.17-2-5.68-.84a1.21,1.21,0,0,0-1.17,2,15.1,15.1,0,0,0,3.41,2.59A1.2,1.2,0,0,0,34.87,9.1,17.68,17.68,0,0,0,31.21,7L30.92,9.2,35.21,8a1.21,1.21,0,0,0,0-2.31c-5-1.6-11.12,2-11.43,7.37a1.21,1.21,0,0,0,1.81,1c3.46-1.89,7.2-1.94,11.05-1.67,1.33.09,1.65-2.11.32-2.36a72.13,72.13,0,0,1-9-2.28c-1.48-.48-2.1,1.83-.64,2.31l5.19,1.72.64-2.31a23.15,23.15,0,0,0-5.83-.65A1.21,1.21,0,0,0,27,11.18c2.64.93,5.75.71,7.79,2.94l.85-2a9.73,9.73,0,0,1-4.32-1.35L30.71,13a9.61,9.61,0,0,1,5.49,1c1.38.68,2.6-1.39,1.21-2.07a11.82,11.82,0,0,0-6.7-1.3c-1.09.1-1.75,1.64-.61,2.24a15.51,15.51,0,0,0,5.53,1.67c1.11.13,1.48-1.36.85-2C34.09,9.93,30.79,10.1,27.63,9l-.32,2.36a20.89,20.89,0,0,1,5.19.57,1.2,1.2,0,0,0,.64-2.31L28,7.78l-.64,2.31a72.13,72.13,0,0,0,9,2.28L36.67,10c-4.39-.3-8.36-.14-12.26,2l1.81,1c.22-3.79,5-6.12,8.39-5V5.68l-4.29,1.2c-.9.25-1.28,1.77-.29,2.19a17.68,17.68,0,0,1,3.66,2.09L34.9,9.09A8.8,8.8,0,0,1,32,6.88l-1.13,2,5.68.84a1.21,1.21,0,0,0,1.17-2A8.24,8.24,0,0,1,36,5.08L35,6.89a9.07,9.07,0,0,1,4.81,1.28l.61-2.24c-1.56-.06-3.07-.17-4.61-.36V8l6.53.58c1.55.14,1.51-2.24,0-2.4a44.39,44.39,0,0,0-6.75-.21,1.2,1.2,0,0,0,0,2.4,38.41,38.41,0,0,0,8.45-.66c1.28-.24,1-1.94,0-2.31-4.25-1.61-8.32-2.78-12.73-1.12a16.4,16.4,0,0,0-9.19,7.43,1.2,1.2,0,0,0,2.07,1.21Z" transform="translate(-12.12 0)"/><path class="cls-1" d="M33.59,12.28q-3.25-.13-6.5,0" transform="translate(-12.12 0)"/><path class="cls-1" d="M33.59,11.08q-3.25-.12-6.5,0a1.2,1.2,0,0,0,0,2.4q3.25-.08,6.5,0C35.13,13.54,35.13,11.14,33.59,11.08Z" transform="translate(-12.12 0)"/><path class="cls-1" d="M38.77,10.28a2.73,2.73,0,0,1,2.89.12,11.23,11.23,0,0,1-7.33-1.06,11.32,11.32,0,0,1,9.13,0A11.8,11.8,0,0,1,36.52,8a17.94,17.94,0,0,1,10-.22c.23.06.51.18.53.42s-.15.35-.31.46a4.39,4.39,0,0,1-3,.61,13,13,0,0,1-3-.86c-.29-.11-.61-.26-.69-.55s.19-.65.46-.87a7.82,7.82,0,0,1,5.91-1.69,4.2,4.2,0,0,1,2.31.94,2.22,2.22,0,0,1,.7,2.29A2.9,2.9,0,0,1,47,10.16a7.41,7.41,0,0,1-3.73-.43C42.6,9.48,41.91,9,42,8.3a1.49,1.49,0,0,1,.37-.76,4.38,4.38,0,0,1,7.5,1.14,1.71,1.71,0,0,1,0,1.5,1.91,1.91,0,0,1-1.18.73,5.14,5.14,0,0,1-2.87.11,2.64,2.64,0,0,1-1.9-2,2.38,2.38,0,0,1,1.7-2.5,3,3,0,0,1,3,.94,4.13,4.13,0,0,1,.95,3.07,2.89,2.89,0,0,1-.62,1.69,3.07,3.07,0,0,1-1.21.78,11,11,0,0,1-6.2.14,26.73,26.73,0,0,0-6.21-.92,37,37,0,0,1,11.19-.36,32,32,0,0,1-4.39-.06" transform="translate(-12.12 0)"/><path class="cls-1" d="M39.09,11.44h2l.29-2.19A10.81,10.81,0,0,1,35,8.31l-.29,2.19a11,11,0,0,1,8.49,0l.32-2.36A11.92,11.92,0,0,1,37.17,7l-.33,2.22a18.42,18.42,0,0,1,5.23-.78c1,0,6.82,1,2.46-.26-1-.29-4.42-.17-1.35-1.28a6.72,6.72,0,0,1,2.34-.4q2.93-.31.5,2.56-2.61.49-1.11-1.81,3.54-.54,3.43,2.48-.44-2.46-2,2.39a9.61,9.61,0,0,1-2.8.11C40.73,12,38.09,11,35.25,11l.32,2.36a39.46,39.46,0,0,1,10.87-.31V10.68A42.44,42.44,0,0,1,42,10.62c-1.54-.1-1.54,2.3,0,2.4a42.44,42.44,0,0,0,4.39.06,1.2,1.2,0,1,0,0-2.4,41.71,41.71,0,0,0-11.51.4c-1.36.23-1,2.34.32,2.36,4.17,0,10.1,3,13.91.11,2.55-2,1.76-6.44-1-7.82s-6.32.75-5.32,3.95c.87,2.83,5.15,3.53,7.34,1.82,2.94-2.3-.91-6.21-3.46-6.66-2.26-.4-7.16,1.54-5.68,4.59,1.29,2.66,6.6,2.64,8.57.91,2.78-2.44-.06-5.63-2.86-6.11C44.8,3.9,37.46,5.17,39,8.56c.65,1.4,3.31,1.86,4.57,2,1.73.17,3.5-.14,4.51-1.64a1.18,1.18,0,0,0,0-1.21c-2-3-9.09-1.55-11.9-.76a1.21,1.21,0,0,0-.29,2.19,14.34,14.34,0,0,0,7.54,1.47,1.21,1.21,0,0,0,.32-2.36,13,13,0,0,0-9.77,0c-.85.33-1.32,1.72-.29,2.19A13.88,13.88,0,0,0,42,11.62a1.21,1.21,0,0,0,.29-2.19,4.2,4.2,0,0,0-3.82-.25c-1.42.56-.8,2.89.64,2.31Z" transform="translate(-12.12 0)"/><path class="cls-1" d="M34.36,12.18l4,.88a4,4,0,0,1-3.07-.1c1.31,1.35,3.3,1.71,5.16,2a16.94,16.94,0,0,0,4.06.31,17,17,0,0,0,5.92-2.06" transform="translate(-12.12 0)"/><path class="cls-1" d="M34,13.34l4,.88V11.91l-2.43-.1c-1.09-.29-2.12,1.2-1.17,2,4.7,4,11.53,2.92,16.59.44,1.39-.68.17-2.75-1.21-2.07-4,1.94-9.89,3.14-13.68-.07l-1.17,2a6.28,6.28,0,0,0,3.7.1,1.21,1.21,0,0,0,0-2.31l-4-.88c-1.5-.34-2.15,2-.64,2.31Z" transform="translate(-12.12 0)"/><path class="cls-1" d="M48.84,9.6a9.59,9.59,0,0,1,4.31.32,44.14,44.14,0,0,0-4.39-.78q2.2,1,4.32,2.16a15.42,15.42,0,0,1-3,.72c2.23.11,4.47-.24,6.69-.1s4.58.91,5.88,2.73a18.23,18.23,0,0,1-3.16-2c-3-2.21-6-4.3-9.09-6.39a18.5,18.5,0,0,1,5.75,3.42A45.41,45.41,0,0,1,49,4.26a20.66,20.66,0,0,1,8.44,6.68,11,11,0,0,1-5.81-1" transform="translate(-12.12 0)"/><path class="cls-1" d="M48.84,10.8a10.63,10.63,0,0,1,4,.27l.64-2.31C52,8.44,50.57,8.18,49.09,8c-1.2-.17-2.29,1.56-.92,2.19s2.9,1.4,4.32,2.16l.29-2.19a22.55,22.55,0,0,1-3,.72c-1.37.23-1,2.33.32,2.36C54,13.31,59,12,61.82,15.5l1.45-1.88C59,11.37,55,7.93,51,5.19L50.1,7.38a19.18,19.18,0,0,1,5.23,3.14l1.45-1.88a49,49,0,0,1-6.94-5.26L48.39,5.26a21.3,21.3,0,0,1,8.2,6.5l.85-2a11.9,11.9,0,0,1-5.49-1c-1.42-.6-2,1.72-.64,2.31a13.19,13.19,0,0,0,6.12,1,1.22,1.22,0,0,0,.85-2A22.7,22.7,0,0,0,49.6,3.2c-1.15-.52-2.54.9-1.45,1.88a52.53,52.53,0,0,0,7.4,5.6c1.13.7,2.55-1,1.45-1.88A23,23,0,0,0,50.71,5c-1.35-.48-2,1.47-.92,2.19,4,2.74,7.94,6.18,12.25,8.43a1.21,1.21,0,0,0,1.45-1.88c-3.37-4.07-8.78-2.87-13.42-3l.32,2.36a22.55,22.55,0,0,0,3-.72,1.21,1.21,0,0,0,.29-2.19q-2.13-1.14-4.32-2.16l-.92,2.19c1.48.2,2.93.46,4.39.78a1.2,1.2,0,0,0,.64-2.31,12.34,12.34,0,0,0-4.63-.36c-1.52.17-1.54,2.57,0,2.4Z" transform="translate(-12.12 0)"/><path class="cls-1" d="M57.29,12.08a23.23,23.23,0,0,1,4,2.36c.56.44,1.08.93,1.68,1.32a21.39,21.39,0,0,1,1.87,1.14,5.51,5.51,0,0,1,1.63,2.5,31.15,31.15,0,0,0-3.37-3.79l2.3,2.85-3-3c1.36,2.72,4.48,4.41,5.27,7.35" transform="translate(-12.12 0)"/><path class="cls-1" d="M56.68,13.12a30.94,30.94,0,0,1,4.85,3.08c1.5,1.13,3.06,1.64,3.81,3.52l2.19-.92a38.32,38.32,0,0,0-3.56-4c-1.13-1.1-2.65.52-1.7,1.7l2.3,2.85,1.7-1.7-3-3a1.21,1.21,0,0,0-1.88,1.45c1.41,2.55,4.23,4.26,5.15,7.06.48,1.46,2.8.84,2.31-.64-1-3.13-3.84-4.85-5.39-7.64l-1.88,1.45,3,3c1.13,1.11,2.65-.52,1.7-1.7L64,14.78l-1.7,1.7A34,34,0,0,1,65.46,20c.74,1,2.75.47,2.19-.92a7.46,7.46,0,0,0-3.45-4,68.74,68.74,0,0,0-6.32-4c-1.37-.7-2.59,1.37-1.21,2.07Z" transform="translate(-12.12 0)"/><path class="cls-1" d="M68.15,24.17a14.67,14.67,0,0,0-.9-4.2,21.55,21.55,0,0,0-1-2.76,14.76,14.76,0,0,0-1.6-2.56A24.87,24.87,0,0,0,53.25,6.4" transform="translate(-12.12 0)"/><path class="cls-1" d="M69.35,24.17C68.6,15,61.81,8.41,53.55,5.25,52.11,4.7,51.48,7,52.91,7.56c7.18,2.74,13.38,8.59,14,16.6.12,1.53,2.53,1.54,2.4,0Z" transform="translate(-12.12 0)"/><path class="cls-1" d="M59.91,10.19l.2.37a7.6,7.6,0,0,0-3.19-4.69A21.08,21.08,0,0,0,51.7,3.35c-2.56-.94-5.22-1.84-7.94-1.64-1,.08-2,.31-3.07.39-1.64.13-3.33-.13-4.9.32-.91.27-1.74.76-2.65,1-1.51.45-3.3.31-4.47,1.37" transform="translate(-12.12 0)"/><path class="cls-1" d="M58.84,10.8l.2.37a1.21,1.21,0,0,0,2.19-.92c-1.81-6-9-8.8-14.77-9.58A35.53,35.53,0,0,0,37,1c-2.76.42-6.61,1.31-9,2.79-1.31.81-.11,2.88,1.21,2.07C33,3.57,38.74,3.29,43,3c5.36-.35,14.24,2.14,16,7.87L61.15,10,61,9.6c-.73-1.36-2.81-.15-2.07,1.21Z" transform="translate(-12.12 0)"/><path class="cls-1" d="M47.43,4.68q-4-.42-8-.64" transform="translate(-12.12 0)"/><path class="cls-1" d="M47.43,3.5q-4-.41-8-.64c-1.54-.09-1.54,2.31,0,2.4q4,.23,8,.64C49,6.06,48.95,3.66,47.43,3.5Z" transform="translate(-12.12 0)"/><path class="cls-1" d="M48.09,8a50.31,50.31,0,0,1-5.73-1c6.58.07,13.47.31,19.21,3.54a11.84,11.84,0,0,0-3.29-3.68" transform="translate(-12.12 0)"/><path class="cls-1" d="M48.09,6.82c-1.84-.24-3.61-.55-5.42-1l-.32,2.36c6.41.08,12.81.35,18.61,3.38,1,.53,2.33-.58,1.64-1.64a16.1,16.1,0,0,0-3.48-3.92c-1.19-1-2.9.72-1.7,1.7a13.28,13.28,0,0,1,3.1,3.44l1.64-1.64C56,6.32,49.16,5.93,42.34,5.84A1.21,1.21,0,0,0,42,8.2a58.25,58.25,0,0,0,6.05,1c1.53.2,1.51-2.21,0-2.4Z" transform="translate(-12.12 0)"/><path d="M13.23,31.22c-.1-7,2.7-16,7.4-21.2,5.3-5.9,13.1-8.4,20.9-8.7,8.3-.3,14.4,1.9,19.7,8.2,2.5,2.9,5.6,6.2,6.5,10s.7,8.3,1,12.3c.1.8,1.3.8,1.2,0-.3-4.3,0-9.2-1.2-13.3-1-3.5-3.8-6.4-6-9.2-5.9-7-11.9-9.6-21.1-9.3-17.2.6-29.8,13.6-29.5,31.1a.55.55,0,0,0,1.1.1Z" transform="translate(-12.12 0)"/><path d="M13.63,32c3-5.3,6.2-11.9,10.6-16.1,4.6-4.4,11.4.3,16.9.6a17.37,17.37,0,0,0,6.8-.7c2.8-1.1,3.3-2.2,6.5-2.1,7,.3,12.3,9.8,14.5,15.7.3.7,1.4.4,1.2-.3-2.2-5.9-5.8-11.6-11-15.3-6.5-4.6-9.9,1.7-17,1.6a18.79,18.79,0,0,1-7.8-1.6,29.54,29.54,0,0,0-3.7-1.6,6.65,6.65,0,0,0-4.9,1.1c-2.3,1.5-4,4.2-5.5,6.4-2.7,3.8-5.1,7.8-7.4,11.8C12.23,32.12,13.23,32.72,13.63,32Z" transform="translate(-12.12 0)"/><path class="cls-2" d="M34.13,10a16.17,16.17,0,0,0,9,3,.6.6,0,0,0,0-1.2,14.94,14.94,0,0,1-8.4-2.9C34.13,8.52,33.53,9.62,34.13,10Z" transform="translate(-12.12 0)"/><path class="cls-2" d="M15.53,26c2.4-6.4,4.7-13.2,10.8-16.9a.58.58,0,0,0-.6-1,16.18,16.18,0,0,0-6.7,7c-1.7,3.4-3.2,7-4.6,10.6C14.13,26.42,15.23,26.72,15.53,26Z" transform="translate(-12.12 0)"/><path class="cls-2" d="M52.73,5.42a45.71,45.71,0,0,1,7.6,6.2c2.1,2.2,3.3,5.1,5.6,7,.6.5,1.4-.3.8-.8-2.5-2.1-3.9-5.3-6.2-7.7a51.66,51.66,0,0,0-7.3-5.8C52.73,4,52.13,5,52.73,5.42Z" transform="translate(-12.12 0)"/><path class="cls-2" d="M38.73,5.82a27.79,27.79,0,0,0,7.9,2.9.62.62,0,0,0,.3-1.2,25.54,25.54,0,0,1-7.6-2.7.58.58,0,0,0-.6,1Z" transform="translate(-12.12 0)"/></svg>